<?xml version="1.0" encoding="UTF-8" standalone="no"?>
<!DOCTYPE svg PUBLIC "-//W3C//DTD SVG 1.1//EN"
 "http://www.w3.org/Graphics/SVG/1.1/DTD/svg11.dtd">
<!-- Generated by graphviz version 2.38.0 (20140413.2041)
 -->
<!-- Title: Physical_NumberDensity Pages: 1 -->
<svg width="142pt" height="172pt"
 viewBox="0.00 0.00 142.00 172.00" xmlns="http://www.w3.org/2000/svg" xmlns:xlink="http://www.w3.org/1999/xlink">
<g id="graph0" class="graph" transform="scale(1 1) rotate(0) translate(4 168)">
<title>Physical_NumberDensity</title>
<polygon fill="white" stroke="none" points="-4,4 -4,-168 138,-168 138,4 -4,4"/>
<!-- Node44 -->
<g id="node1" class="node"><title>Node44</title>
<polygon fill="#bfbfbf" stroke="black" points="3,-72.5 3,-91.5 131,-91.5 131,-72.5 3,-72.5"/>
<text text-anchor="middle" x="67" y="-79.5" font-family="Helvetica,sans-Serif" font-size="10.00">Physical_NumberDensity</text>
</g>
<!-- Node45 -->
<g id="node2" class="node"><title>Node45</title>
<g id="a_node2"><a xlink:href="auxiliary__functions_8c.html#a8c19ee75677b35306b324fd42419c164" target="_top" xlink:title="Comoving_NumberDensity">
<polygon fill="white" stroke="black" points="0,-144.5 0,-163.5 134,-163.5 134,-144.5 0,-144.5"/>
<text text-anchor="middle" x="67" y="-151.5" font-family="Helvetica,sans-Serif" font-size="10.00">Comoving_NumberDensity</text>
</a>
</g>
</g>
<!-- Node44&#45;&gt;Node45 -->
<g id="edge1" class="edge"><title>Node44&#45;&gt;Node45</title>
<path fill="none" stroke="midnightblue" d="M67,-91.7102C67,-102.614 67,-120.592 67,-134.439"/>
<polygon fill="midnightblue" stroke="midnightblue" points="63.5001,-134.444 67,-144.444 70.5001,-134.444 63.5001,-134.444"/>
</g>
<!-- Node46 -->
<g id="node3" class="node"><title>Node46</title>
<g id="a_node3"><a xlink:href="auxiliary__functions_8c.html#aa952a2752ce56a18ee0e7551947167e9" target="_top" xlink:title="cube">
<polygon fill="white" stroke="black" points="48,-0.5 48,-19.5 86,-19.5 86,-0.5 48,-0.5"/>
<text text-anchor="middle" x="67" y="-7.5" font-family="Helvetica,sans-Serif" font-size="10.00">cube</text>
</a>
</g>
</g>
<!-- Node44&#45;&gt;Node46 -->
<g id="edge2" class="edge"><title>Node44&#45;&gt;Node46</title>
<path fill="none" stroke="midnightblue" d="M67,-72.2898C67,-61.3861 67,-43.4077 67,-29.5612"/>
<polygon fill="midnightblue" stroke="midnightblue" points="70.5001,-29.5564 67,-19.5564 63.5001,-29.5564 70.5001,-29.5564"/>
</g>
</g>
</svg>
