<?xml version="1.0" encoding="UTF-8" standalone="no"?>
<!DOCTYPE svg PUBLIC "-//W3C//DTD SVG 1.1//EN"
 "http://www.w3.org/Graphics/SVG/1.1/DTD/svg11.dtd">
<!-- Generated by graphviz version 2.38.0 (20140413.2041)
 -->
<!-- Title: Physical_ElectronDensity Pages: 1 -->
<svg width="188pt" height="28pt"
 viewBox="0.00 0.00 187.50 28.00" xmlns="http://www.w3.org/2000/svg" xmlns:xlink="http://www.w3.org/1999/xlink">
<g id="graph0" class="graph" transform="scale(1 1) rotate(0) translate(4 24)">
<title>Physical_ElectronDensity</title>
<polygon fill="white" stroke="none" points="-4,4 -4,-24 183.5,-24 183.5,4 -4,4"/>
<!-- Node38 -->
<g id="node1" class="node"><title>Node38</title>
<polygon fill="#bfbfbf" stroke="black" points="50.5,-0.5 50.5,-19.5 179.5,-19.5 179.5,-0.5 50.5,-0.5"/>
<text text-anchor="middle" x="115" y="-7.5" font-family="Helvetica,sans-Serif" font-size="10.00">Physical_ElectronDensity</text>
</g>
<!-- Node39 -->
<g id="node2" class="node"><title>Node39</title>
<g id="a_node2"><a xlink:href="auxiliary__functions_8c.html#aa4b893fe8fbb3c28627cac852ad83e52" target="_top" xlink:title="ElectronDensity">
<polygon fill="white" stroke="black" points="-7.10543e-15,-0.5 -7.10543e-15,-19.5 86,-19.5 86,-0.5 -7.10543e-15,-0.5"/>
<text text-anchor="middle" x="43" y="-7.5" font-family="Helvetica,sans-Serif" font-size="10.00">ElectronDensity</text>
</a>
</g>
</g>
<!-- Node38&#45;&gt;Node39 -->
<g id="edge1" class="edge"><title>Node38&#45;&gt;Node39</title>
<path fill="none" stroke="midnightblue" d="M50.2208,-10C50.1502,-10 50.0799,-10 50.0101,-10"/>
<polygon fill="midnightblue" stroke="midnightblue" points="40.4357,-13.5047 50.4341,-10 40.4324,-6.50469 40.4357,-13.5047"/>
</g>
</g>
</svg>
