<?xml version="1.0" encoding="UTF-8" standalone="no"?>
<!DOCTYPE svg PUBLIC "-//W3C//DTD SVG 1.1//EN"
 "http://www.w3.org/Graphics/SVG/1.1/DTD/svg11.dtd">
<!-- Generated by graphviz version 2.38.0 (20140413.2041)
 -->
<!-- Title: Physical_InternalEnergy Pages: 1 -->
<svg width="333pt" height="28pt"
 viewBox="0.00 0.00 333.00 28.00" xmlns="http://www.w3.org/2000/svg" xmlns:xlink="http://www.w3.org/1999/xlink">
<g id="graph0" class="graph" transform="scale(1 1) rotate(0) translate(4 24)">
<title>Physical_InternalEnergy</title>
<polygon fill="white" stroke="none" points="-4,4 -4,-24 329,-24 329,4 -4,4"/>
<!-- Node40 -->
<g id="node1" class="node"><title>Node40</title>
<polygon fill="#bfbfbf" stroke="black" points="0,-0.5 0,-19.5 122,-19.5 122,-0.5 0,-0.5"/>
<text text-anchor="middle" x="61" y="-7.5" font-family="Helvetica,sans-Serif" font-size="10.00">Physical_InternalEnergy</text>
</g>
<!-- Node41 -->
<g id="node2" class="node"><title>Node41</title>
<g id="a_node2"><a xlink:href="auxiliary__functions_8c.html#aef36fe4bf0c58bde1d9d65a903917dfe" target="_top" xlink:title="Physical_Density">
<polygon fill="white" stroke="black" points="158,-0.5 158,-19.5 251,-19.5 251,-0.5 158,-0.5"/>
<text text-anchor="middle" x="204.5" y="-7.5" font-family="Helvetica,sans-Serif" font-size="10.00">Physical_Density</text>
</a>
</g>
</g>
<!-- Node40&#45;&gt;Node41 -->
<g id="edge1" class="edge"><title>Node40&#45;&gt;Node41</title>
<path fill="none" stroke="midnightblue" d="M122.009,-10C130.577,-10 139.36,-10 147.84,-10"/>
<polygon fill="midnightblue" stroke="midnightblue" points="147.998,-13.5001 157.998,-10 147.998,-6.5001 147.998,-13.5001"/>
</g>
<!-- Node42 -->
<g id="node3" class="node"><title>Node42</title>
<g id="a_node3"><a xlink:href="auxiliary__functions_8c.html#aa952a2752ce56a18ee0e7551947167e9" target="_top" xlink:title="cube">
<polygon fill="white" stroke="black" points="287,-0.5 287,-19.5 325,-19.5 325,-0.5 287,-0.5"/>
<text text-anchor="middle" x="306" y="-7.5" font-family="Helvetica,sans-Serif" font-size="10.00">cube</text>
</a>
</g>
</g>
<!-- Node41&#45;&gt;Node42 -->
<g id="edge2" class="edge"><title>Node41&#45;&gt;Node42</title>
<path fill="none" stroke="midnightblue" d="M251.173,-10C259.883,-10 268.762,-10 276.73,-10"/>
<polygon fill="midnightblue" stroke="midnightblue" points="276.931,-13.5001 286.931,-10 276.931,-6.5001 276.931,-13.5001"/>
</g>
</g>
</svg>
