<?xml version="1.0" encoding="UTF-8" standalone="no"?>
<!DOCTYPE svg PUBLIC "-//W3C//DTD SVG 1.1//EN"
 "http://www.w3.org/Graphics/SVG/1.1/DTD/svg11.dtd">
<!-- Generated by graphviz version 2.38.0 (20140413.2041)
 -->
<!-- Title: ElectronDensity Pages: 1 -->
<svg width="552pt" height="66pt"
 viewBox="0.00 0.00 552.00 66.00" xmlns="http://www.w3.org/2000/svg" xmlns:xlink="http://www.w3.org/1999/xlink">
<g id="graph0" class="graph" transform="scale(1 1) rotate(0) translate(4 62)">
<title>ElectronDensity</title>
<polygon fill="white" stroke="none" points="-4,4 -4,-62 548,-62 548,4 -4,4"/>
<!-- Node19 -->
<g id="node1" class="node"><title>Node19</title>
<polygon fill="#bfbfbf" stroke="black" points="0,-19.5 0,-38.5 86,-38.5 86,-19.5 0,-19.5"/>
<text text-anchor="middle" x="43" y="-26.5" font-family="Helvetica,sans-Serif" font-size="10.00">ElectronDensity</text>
</g>
<!-- Node20 -->
<g id="node2" class="node"><title>Node20</title>
<g id="a_node2"><a xlink:href="auxiliary__functions_8c.html#abd995b7397e57f2f98c04c94d526636e" target="_top" xlink:title="Physical_ElectronDensity">
<polygon fill="white" stroke="black" points="122,-19.5 122,-38.5 251,-38.5 251,-19.5 122,-19.5"/>
<text text-anchor="middle" x="186.5" y="-26.5" font-family="Helvetica,sans-Serif" font-size="10.00">Physical_ElectronDensity</text>
</a>
</g>
</g>
<!-- Node19&#45;&gt;Node20 -->
<g id="edge1" class="edge"><title>Node19&#45;&gt;Node20</title>
<path fill="none" stroke="midnightblue" d="M86.0716,-29C94.1519,-29 102.833,-29 111.579,-29"/>
<polygon fill="midnightblue" stroke="midnightblue" points="111.843,-32.5001 121.843,-29 111.843,-25.5001 111.843,-32.5001"/>
</g>
<!-- Node21 -->
<g id="node3" class="node"><title>Node21</title>
<g id="a_node3"><a xlink:href="auxiliary__functions_8c.html#ae41752a8a9fb9886dfc8413050bd318b" target="_top" xlink:title="Comoving_ElectronDensity">
<polygon fill="white" stroke="black" points="287,-38.5 287,-57.5 423,-57.5 423,-38.5 287,-38.5"/>
<text text-anchor="middle" x="355" y="-45.5" font-family="Helvetica,sans-Serif" font-size="10.00">Comoving_ElectronDensity</text>
</a>
</g>
</g>
<!-- Node20&#45;&gt;Node21 -->
<g id="edge2" class="edge"><title>Node20&#45;&gt;Node21</title>
<path fill="none" stroke="midnightblue" d="M251.397,-36.2916C259.768,-37.2468 268.416,-38.2336 276.975,-39.2104"/>
<polygon fill="midnightblue" stroke="midnightblue" points="276.628,-42.6934 286.96,-40.3498 277.422,-35.7385 276.628,-42.6934"/>
</g>
<!-- Node23 -->
<g id="node5" class="node"><title>Node23</title>
<g id="a_node5"><a xlink:href="auxiliary__functions_8c.html#aa952a2752ce56a18ee0e7551947167e9" target="_top" xlink:title="cube">
<polygon fill="white" stroke="black" points="336,-0.5 336,-19.5 374,-19.5 374,-0.5 336,-0.5"/>
<text text-anchor="middle" x="355" y="-7.5" font-family="Helvetica,sans-Serif" font-size="10.00">cube</text>
</a>
</g>
</g>
<!-- Node20&#45;&gt;Node23 -->
<g id="edge4" class="edge"><title>Node20&#45;&gt;Node23</title>
<path fill="none" stroke="midnightblue" d="M251.397,-21.7084C277.05,-18.7811 305.298,-15.5576 325.649,-13.2353"/>
<polygon fill="midnightblue" stroke="midnightblue" points="326.256,-16.6887 335.795,-12.0774 325.463,-9.73389 326.256,-16.6887"/>
</g>
<!-- Node22 -->
<g id="node4" class="node"><title>Node22</title>
<g id="a_node4"><a xlink:href="auxiliary__functions_8c.html#a9d3db0c9152e9175af7f378a24de5e16" target="_top" xlink:title="IonizationGrade">
<polygon fill="white" stroke="black" points="459,-38.5 459,-57.5 544,-57.5 544,-38.5 459,-38.5"/>
<text text-anchor="middle" x="501.5" y="-45.5" font-family="Helvetica,sans-Serif" font-size="10.00">IonizationGrade</text>
</a>
</g>
</g>
<!-- Node21&#45;&gt;Node22 -->
<g id="edge3" class="edge"><title>Node21&#45;&gt;Node22</title>
<path fill="none" stroke="midnightblue" d="M423.174,-48C431.672,-48 440.265,-48 448.479,-48"/>
<polygon fill="midnightblue" stroke="midnightblue" points="448.644,-51.5001 458.644,-48 448.644,-44.5001 448.644,-51.5001"/>
</g>
</g>
</svg>
