<?xml version="1.0" encoding="UTF-8" standalone="no"?>
<!DOCTYPE svg PUBLIC "-//W3C//DTD SVG 1.1//EN"
 "http://www.w3.org/Graphics/SVG/1.1/DTD/svg11.dtd">
<!-- Generated by graphviz version 2.38.0 (20140413.2041)
 -->
<!-- Title: Physical_ElectronDensity Pages: 1 -->
<svg width="430pt" height="66pt"
 viewBox="0.00 0.00 430.00 66.00" xmlns="http://www.w3.org/2000/svg" xmlns:xlink="http://www.w3.org/1999/xlink">
<g id="graph0" class="graph" transform="scale(1 1) rotate(0) translate(4 62)">
<title>Physical_ElectronDensity</title>
<polygon fill="white" stroke="none" points="-4,4 -4,-62 426,-62 426,4 -4,4"/>
<!-- Node34 -->
<g id="node1" class="node"><title>Node34</title>
<polygon fill="#bfbfbf" stroke="black" points="0,-19.5 0,-38.5 129,-38.5 129,-19.5 0,-19.5"/>
<text text-anchor="middle" x="64.5" y="-26.5" font-family="Helvetica,sans-Serif" font-size="10.00">Physical_ElectronDensity</text>
</g>
<!-- Node35 -->
<g id="node2" class="node"><title>Node35</title>
<g id="a_node2"><a xlink:href="auxiliary__functions_8c.html#ae41752a8a9fb9886dfc8413050bd318b" target="_top" xlink:title="Comoving_ElectronDensity">
<polygon fill="white" stroke="black" points="165,-38.5 165,-57.5 301,-57.5 301,-38.5 165,-38.5"/>
<text text-anchor="middle" x="233" y="-45.5" font-family="Helvetica,sans-Serif" font-size="10.00">Comoving_ElectronDensity</text>
</a>
</g>
</g>
<!-- Node34&#45;&gt;Node35 -->
<g id="edge1" class="edge"><title>Node34&#45;&gt;Node35</title>
<path fill="none" stroke="midnightblue" d="M129.397,-36.2916C137.768,-37.2468 146.416,-38.2336 154.975,-39.2104"/>
<polygon fill="midnightblue" stroke="midnightblue" points="154.628,-42.6934 164.96,-40.3498 155.422,-35.7385 154.628,-42.6934"/>
</g>
<!-- Node37 -->
<g id="node4" class="node"><title>Node37</title>
<g id="a_node4"><a xlink:href="auxiliary__functions_8c.html#aa952a2752ce56a18ee0e7551947167e9" target="_top" xlink:title="cube">
<polygon fill="white" stroke="black" points="214,-0.5 214,-19.5 252,-19.5 252,-0.5 214,-0.5"/>
<text text-anchor="middle" x="233" y="-7.5" font-family="Helvetica,sans-Serif" font-size="10.00">cube</text>
</a>
</g>
</g>
<!-- Node34&#45;&gt;Node37 -->
<g id="edge3" class="edge"><title>Node34&#45;&gt;Node37</title>
<path fill="none" stroke="midnightblue" d="M129.397,-21.7084C155.05,-18.7811 183.298,-15.5576 203.649,-13.2353"/>
<polygon fill="midnightblue" stroke="midnightblue" points="204.256,-16.6887 213.795,-12.0774 203.463,-9.73389 204.256,-16.6887"/>
</g>
<!-- Node36 -->
<g id="node3" class="node"><title>Node36</title>
<g id="a_node3"><a xlink:href="auxiliary__functions_8c.html#a9d3db0c9152e9175af7f378a24de5e16" target="_top" xlink:title="IonizationGrade">
<polygon fill="white" stroke="black" points="337,-38.5 337,-57.5 422,-57.5 422,-38.5 337,-38.5"/>
<text text-anchor="middle" x="379.5" y="-45.5" font-family="Helvetica,sans-Serif" font-size="10.00">IonizationGrade</text>
</a>
</g>
</g>
<!-- Node35&#45;&gt;Node36 -->
<g id="edge2" class="edge"><title>Node35&#45;&gt;Node36</title>
<path fill="none" stroke="midnightblue" d="M301.174,-48C309.672,-48 318.265,-48 326.479,-48"/>
<polygon fill="midnightblue" stroke="midnightblue" points="326.644,-51.5001 336.644,-48 326.644,-44.5001 326.644,-51.5001"/>
</g>
</g>
</svg>
