<?xml version="1.0" encoding="UTF-8" standalone="no"?>
<!DOCTYPE svg PUBLIC "-//W3C//DTD SVG 1.1//EN"
 "http://www.w3.org/Graphics/SVG/1.1/DTD/svg11.dtd">
<!-- Generated by graphviz version 2.38.0 (20140413.2041)
 -->
<!-- Title: set_units Pages: 1 -->
<!--zoomable 460 -->
<svg id="main" version="1.1" xmlns="http://www.w3.org/2000/svg" xmlns:xlink="http://www.w3.org/1999/xlink" xml:space="preserve" onload="init(evt)">
<style type="text/css"><![CDATA[
.edge:hover path { stroke: red; }
.edge:hover polygon { stroke: red; fill: red; }
]]></style>
<script type="text/javascript"><![CDATA[
var edges = document.getElementsByTagName('g');
if (edges && edges.length) {
  for (var i=0;i<edges.length;i++) {
    if (edges[i].id.substr(0,4)=='edge') {
      edges[i].setAttribute('class','edge');
    }
  }
}
]]></script>
        <defs>
                <circle id="rim" cx="0" cy="0" r="7"/>
                <circle id="rim2" cx="0" cy="0" r="3.5"/>
                <g id="zoomPlus">
                        <use xlink:href="#rim" fill="#404040">
                                <set attributeName="fill" to="#808080" begin="zoomplus.mouseover" end="zoomplus.mouseout"/>
                        </use>
                        <path d="M-4,0h8M0,-4v8" fill="none" stroke="white" stroke-width="1.5" pointer-events="none"/>
                </g>
                <g id="zoomMin">
                        <use xlink:href="#rim" fill="#404040">
                                <set attributeName="fill" to="#808080" begin="zoomminus.mouseover" end="zoomminus.mouseout"/>
                        </use>
                        <path d="M-4,0h8" fill="none" stroke="white" stroke-width="1.5" pointer-events="none"/>
                </g>
                <g id="dirArrow">
                        <path fill="none" stroke="white" stroke-width="1.5" d="M0,-3.0v7 M-2.5,-0.5L0,-3.0L2.5,-0.5"/>
                </g>
               <g id="resetDef">
                       <use xlink:href="#rim2" fill="#404040">
                               <set attributeName="fill" to="#808080" begin="reset.mouseover" end="reset.mouseout"/>
                       </use>
               </g>
        </defs>

<script type="text/javascript">
var viewWidth = 449;
var viewHeight = 460;
var sectionId = 'dynsection-8';
</script>
<script xlink:href="svgpan.js"/>
<svg id="graph" class="graph">
<g id="viewport">
<title>set_units</title>
<polygon fill="white" stroke="none" points="-4,4 -4,-456 445.123,-456 445.123,4 -4,4"/>
<!-- Node297 -->
<g id="node1" class="node"><title>Node297</title>
<polygon fill="#bfbfbf" stroke="black" points="192.561,-216.5 192.561,-235.5 248.561,-235.5 248.561,-216.5 192.561,-216.5"/>
<text text-anchor="middle" x="220.561" y="-223.5" font-family="Helvetica,sans-Serif" font-size="10.00">set_units</text>
</g>
<!-- Node298 -->
<g id="node2" class="node"><title>Node298</title>
<g id="a_node2"><a xlink:href="cosmology_8c.html#ae08ef9a7dfe20422c1588ab5138f5b8e" target="_top" xlink:title="init_cosmology">
<polygon fill="white" stroke="black" points="179.561,-288.5 179.561,-307.5 261.561,-307.5 261.561,-288.5 179.561,-288.5"/>
<text text-anchor="middle" x="220.561" y="-295.5" font-family="Helvetica,sans-Serif" font-size="10.00">init_cosmology</text>
</a>
</g>
</g>
<!-- Node297&#45;&gt;Node298 -->
<g id="edge1" class="edge"><title>Node297&#45;&gt;Node298</title>
<path fill="none" stroke="midnightblue" d="M220.561,-235.71C220.561,-246.614 220.561,-264.592 220.561,-278.439"/>
<polygon fill="midnightblue" stroke="midnightblue" points="217.062,-278.444 220.561,-288.444 224.062,-278.444 217.062,-278.444"/>
</g>
<!-- Node307 -->
<g id="node11" class="node"><title>Node307</title>
<g id="a_node11"><a xlink:href="endrun_8c.html#a6567cd867c5549fb6586e19ccd819764" target="_top" xlink:title="message">
<polygon fill="white" stroke="black" points="192.561,-144.5 192.561,-163.5 248.561,-163.5 248.561,-144.5 192.561,-144.5"/>
<text text-anchor="middle" x="220.561" y="-151.5" font-family="Helvetica,sans-Serif" font-size="10.00">message</text>
</a>
</g>
</g>
<!-- Node297&#45;&gt;Node307 -->
<g id="edge14" class="edge"><title>Node297&#45;&gt;Node307</title>
<path fill="none" stroke="midnightblue" d="M220.561,-216.29C220.561,-205.386 220.561,-187.408 220.561,-173.561"/>
<polygon fill="midnightblue" stroke="midnightblue" points="224.062,-173.556 220.561,-163.556 217.062,-173.556 224.062,-173.556"/>
</g>
<!-- Node299 -->
<g id="node3" class="node"><title>Node299</title>
<g id="a_node3"><a xlink:href="cosmology_8c.html#ac1d39b759a1cfef3faaaa8b46d75bc0a" target="_top" xlink:title="hubble_function">
<polygon fill="white" stroke="black" points="178.061,-360.5 178.061,-379.5 263.061,-379.5 263.061,-360.5 178.061,-360.5"/>
<text text-anchor="middle" x="220.561" y="-367.5" font-family="Helvetica,sans-Serif" font-size="10.00">hubble_function</text>
</a>
</g>
</g>
<!-- Node298&#45;&gt;Node299 -->
<g id="edge2" class="edge"><title>Node298&#45;&gt;Node299</title>
<path fill="none" stroke="midnightblue" d="M220.561,-307.71C220.561,-318.614 220.561,-336.592 220.561,-350.439"/>
<polygon fill="midnightblue" stroke="midnightblue" points="217.062,-350.444 220.561,-360.444 224.062,-350.444 217.062,-350.444"/>
</g>
<!-- Node298&#45;&gt;Node307 -->
<g id="edge12" class="edge"><title>Node298&#45;&gt;Node307</title>
<path fill="none" stroke="midnightblue" d="M220.561,-288.102C220.561,-264.56 220.561,-204.868 220.561,-173.672"/>
<polygon fill="midnightblue" stroke="midnightblue" points="224.062,-173.588 220.561,-163.588 217.062,-173.588 224.062,-173.588"/>
</g>
<!-- Node300 -->
<g id="node4" class="node"><title>Node300</title>
<g id="a_node4"><a xlink:href="cosmology_8c.html#a54b21ed58c2038abf1c78cda8b5d4bf0" target="_top" xlink:title="OmegaFLD">
<polygon fill="white" stroke="black" points="374.123,-324.5 374.123,-343.5 441.123,-343.5 441.123,-324.5 374.123,-324.5"/>
<text text-anchor="middle" x="407.623" y="-331.5" font-family="Helvetica,sans-Serif" font-size="10.00">OmegaFLD</text>
</a>
</g>
</g>
<!-- Node299&#45;&gt;Node300 -->
<g id="edge3" class="edge"><title>Node299&#45;&gt;Node300</title>
<path fill="none" stroke="midnightblue" d="M263.477,-361.741C293.616,-355.941 333.789,-348.209 364.069,-342.382"/>
<polygon fill="midnightblue" stroke="midnightblue" points="364.771,-345.811 373.929,-340.484 363.448,-338.937 364.771,-345.811"/>
</g>
<!-- Node301 -->
<g id="node5" class="node"><title>Node301</title>
<g id="a_node5"><a xlink:href="cosmology_8c.html#ace7ed7b8c64e751bc0210cc9bb0280b3" target="_top" xlink:title="growth">
<polygon fill="white" stroke="black" points="197.561,-432.5 197.561,-451.5 243.561,-451.5 243.561,-432.5 197.561,-432.5"/>
<text text-anchor="middle" x="220.561" y="-439.5" font-family="Helvetica,sans-Serif" font-size="10.00">growth</text>
</a>
</g>
</g>
<!-- Node299&#45;&gt;Node301 -->
<g id="edge4" class="edge"><title>Node299&#45;&gt;Node301</title>
<path fill="none" stroke="midnightblue" d="M215.773,-379.71C213.702,-390.614 213.271,-408.592 214.481,-422.439"/>
<polygon fill="midnightblue" stroke="midnightblue" points="211.023,-422.988 215.802,-432.444 217.962,-422.071 211.023,-422.988"/>
</g>
<!-- Node301&#45;&gt;Node299 -->
<g id="edge7" class="edge"><title>Node301&#45;&gt;Node299</title>
<path fill="none" stroke="midnightblue" d="M225.35,-432.29C227.421,-421.386 227.852,-403.408 226.642,-389.561"/>
<polygon fill="midnightblue" stroke="midnightblue" points="230.1,-389.012 225.321,-379.556 223.161,-389.929 230.1,-389.012"/>
</g>
<!-- Node302 -->
<g id="node6" class="node"><title>Node302</title>
<g id="a_node6"><a xlink:href="cosmology_8c.html#af1fe52807a376f35b61e9db09f4135ae" target="_top" xlink:title="growth_ode">
<polygon fill="white" stroke="black" points="-7.10543e-15,-324.5 -7.10543e-15,-343.5 67,-343.5 67,-324.5 -7.10543e-15,-324.5"/>
<text text-anchor="middle" x="33.5" y="-331.5" font-family="Helvetica,sans-Serif" font-size="10.00">growth_ode</text>
</a>
</g>
</g>
<!-- Node301&#45;&gt;Node302 -->
<g id="edge5" class="edge"><title>Node301&#45;&gt;Node302</title>
<path fill="none" stroke="midnightblue" d="M203.961,-432.416C171.236,-413.522 98.1972,-371.353 59.1993,-348.837"/>
<polygon fill="midnightblue" stroke="midnightblue" points="60.4735,-345.532 50.0633,-343.563 56.9735,-351.594 60.4735,-345.532"/>
</g>
<!-- Node303 -->
<g id="node7" class="node"><title>Node303</title>
<g id="a_node7"><a xlink:href="endrun_8c.html#ad963d7efdb9f10f7a2298c8ccd222ab0" target="_top" xlink:title="endrun">
<polygon fill="white" stroke="black" points="384.623,-108.5 384.623,-127.5 430.623,-127.5 430.623,-108.5 384.623,-108.5"/>
<text text-anchor="middle" x="407.623" y="-115.5" font-family="Helvetica,sans-Serif" font-size="10.00">endrun</text>
</a>
</g>
</g>
<!-- Node301&#45;&gt;Node303 -->
<g id="edge8" class="edge"><title>Node301&#45;&gt;Node303</title>
<path fill="none" stroke="midnightblue" d="M226.16,-432.303C252.246,-387.121 362.07,-196.9 396.946,-136.493"/>
<polygon fill="midnightblue" stroke="midnightblue" points="400.077,-138.069 402.046,-127.659 394.015,-134.569 400.077,-138.069"/>
</g>
<!-- Node302&#45;&gt;Node299 -->
<g id="edge6" class="edge"><title>Node302&#45;&gt;Node299</title>
<path fill="none" stroke="midnightblue" d="M67.3754,-340.519C95.3064,-345.895 135.419,-353.614 167.591,-359.806"/>
<polygon fill="midnightblue" stroke="midnightblue" points="167.251,-363.304 177.732,-361.757 168.574,-356.431 167.251,-363.304"/>
</g>
<!-- Node304 -->
<g id="node8" class="node"><title>Node304</title>
<g id="a_node8"><a xlink:href="endrun_8c.html#a7267113a7c0a094743bb565eabc695d1" target="_top" xlink:title="messagev">
<polygon fill="white" stroke="black" points="189.561,-72.5 189.561,-91.5 251.561,-91.5 251.561,-72.5 189.561,-72.5"/>
<text text-anchor="middle" x="220.561" y="-79.5" font-family="Helvetica,sans-Serif" font-size="10.00">messagev</text>
</a>
</g>
</g>
<!-- Node303&#45;&gt;Node304 -->
<g id="edge9" class="edge"><title>Node303&#45;&gt;Node304</title>
<path fill="none" stroke="midnightblue" d="M384.31,-113.513C353.693,-107.621 299.42,-97.1762 261.791,-89.9346"/>
<polygon fill="midnightblue" stroke="midnightblue" points="262.134,-86.4365 251.653,-87.9835 260.811,-93.3103 262.134,-86.4365"/>
</g>
<!-- Node305 -->
<g id="node9" class="node"><title>Node305</title>
<g id="a_node9"><a xlink:href="endrun_8c.html#a87108946670b4c3afbe846c6726675ff" target="_top" xlink:title="putline">
<polygon fill="white" stroke="black" points="11,-108.5 11,-127.5 56,-127.5 56,-108.5 11,-108.5"/>
<text text-anchor="middle" x="33.5" y="-115.5" font-family="Helvetica,sans-Serif" font-size="10.00">putline</text>
</a>
</g>
</g>
<!-- Node304&#45;&gt;Node305 -->
<g id="edge10" class="edge"><title>Node304&#45;&gt;Node305</title>
<path fill="none" stroke="midnightblue" d="M189.252,-88.0256C155.131,-94.5922 100.791,-105.05 66.1507,-111.716"/>
<polygon fill="midnightblue" stroke="midnightblue" points="65.2354,-108.328 56.0771,-113.655 66.5583,-115.202 65.2354,-108.328"/>
</g>
<!-- Node306 -->
<g id="node10" class="node"><title>Node306</title>
<g id="a_node10"><a xlink:href="endrun_8c.html#a1200f02a595ab7cbe17c9e36ff32af0f" target="_top" xlink:title="show_backtrace">
<polygon fill="white" stroke="black" points="176.561,-0.5 176.561,-19.5 264.561,-19.5 264.561,-0.5 176.561,-0.5"/>
<text text-anchor="middle" x="220.561" y="-7.5" font-family="Helvetica,sans-Serif" font-size="10.00">show_backtrace</text>
</a>
</g>
</g>
<!-- Node304&#45;&gt;Node306 -->
<g id="edge11" class="edge"><title>Node304&#45;&gt;Node306</title>
<path fill="none" stroke="midnightblue" d="M220.561,-72.2898C220.561,-61.3861 220.561,-43.4077 220.561,-29.5612"/>
<polygon fill="midnightblue" stroke="midnightblue" points="224.062,-29.5564 220.561,-19.5564 217.062,-29.5564 224.062,-29.5564"/>
</g>
<!-- Node307&#45;&gt;Node304 -->
<g id="edge13" class="edge"><title>Node307&#45;&gt;Node304</title>
<path fill="none" stroke="midnightblue" d="M220.561,-144.29C220.561,-133.386 220.561,-115.408 220.561,-101.561"/>
<polygon fill="midnightblue" stroke="midnightblue" points="224.062,-101.556 220.561,-91.5564 217.062,-101.556 224.062,-101.556"/>
</g>
</g>
</svg>
        <g id="navigator" transform="translate(0 0)" fill="#404254">
                <rect fill="#f2f5e9" fill-opacity="0.5" stroke="#606060" stroke-width=".5" x="0" y="0" width="60" height="60"/>
                <use id="zoomplus" xlink:href="#zoomPlus" x="17" y="9" onmousedown="handleZoom(evt,'in')"/>
                <use id="zoomminus" xlink:href="#zoomMin" x="42" y="9" onmousedown="handleZoom(evt,'out')"/>
                <use id="reset" xlink:href="#resetDef" x="30" y="36" onmousedown="handleReset()"/>
                <g id="arrowUp" xlink:href="#dirArrow" transform="translate(30 24)" onmousedown="handlePan(0,-1)">
                  <use xlink:href="#rim" fill="#404040">
                        <set attributeName="fill" to="#808080" begin="arrowUp.mouseover" end="arrowUp.mouseout"/>
                  </use>
                  <path fill="none" stroke="white" stroke-width="1.5" d="M0,-3.0v7 M-2.5,-0.5L0,-3.0L2.5,-0.5"/>
                </g>
                <g id="arrowRight" xlink:href="#dirArrow" transform="rotate(90) translate(36 -43)" onmousedown="handlePan(1,0)">
                  <use xlink:href="#rim" fill="#404040">
                        <set attributeName="fill" to="#808080" begin="arrowRight.mouseover" end="arrowRight.mouseout"/>
                  </use>
                  <path fill="none" stroke="white" stroke-width="1.5" d="M0,-3.0v7 M-2.5,-0.5L0,-3.0L2.5,-0.5"/>
                </g>
                <g id="arrowDown" xlink:href="#dirArrow" transform="rotate(180) translate(-30 -48)" onmousedown="handlePan(0,1)">
                  <use xlink:href="#rim" fill="#404040">
                        <set attributeName="fill" to="#808080" begin="arrowDown.mouseover" end="arrowDown.mouseout"/>
                  </use>
                  <path fill="none" stroke="white" stroke-width="1.5" d="M0,-3.0v7 M-2.5,-0.5L0,-3.0L2.5,-0.5"/>
                </g>
                <g id="arrowLeft" xlink:href="#dirArrow" transform="rotate(270) translate(-36 17)" onmousedown="handlePan(-1,0)">
                  <use xlink:href="#rim" fill="#404040">
                        <set attributeName="fill" to="#808080" begin="arrowLeft.mouseover" end="arrowLeft.mouseout"/>
                  </use>
                  <path fill="none" stroke="white" stroke-width="1.5" d="M0,-3.0v7 M-2.5,-0.5L0,-3.0L2.5,-0.5"/>
                </g>
        </g>
        <svg viewBox="0 0 15 15" width="100%" height="30px" preserveAspectRatio="xMaxYMin meet">
         <g id="arrow_out" transform="scale(0.3 0.3)">
          <a xlink:href="begrun_8c_abc253d7e6685a5245c81819ccc03f1f0_cgraph_org.svg" target="_base">
           <rect id="button" ry="5" rx="5" y="6" x="6" height="38" width="38"
                fill="#f2f5e9" fill-opacity="0.5" stroke="#606060" stroke-width="1.0"/>
           <path id="arrow"
             d="M 11.500037,31.436501 C 11.940474,20.09759 22.043105,11.32322 32.158766,21.979434 L 37.068811,17.246167 C 37.068811,17.246167 37.088388,32 37.088388,32 L 22.160133,31.978069 C 22.160133,31.978069 26.997745,27.140456 26.997745,27.140456 C 18.528582,18.264221 13.291696,25.230495 11.500037,31.436501 z"
             style="fill:#404040;"/>
          </a>
         </g>
        </svg>
</svg>
