<?xml version="1.0" encoding="UTF-8" standalone="no"?>
<!DOCTYPE svg PUBLIC "-//W3C//DTD SVG 1.1//EN"
 "http://www.w3.org/Graphics/SVG/1.1/DTD/svg11.dtd">
<!-- Generated by graphviz version 2.38.0 (20140413.2041)
 -->
<!-- Title: set_softenings Pages: 1 -->
<svg width="91pt" height="388pt"
 viewBox="0.00 0.00 91.00 388.00" xmlns="http://www.w3.org/2000/svg" xmlns:xlink="http://www.w3.org/1999/xlink">
<g id="graph0" class="graph" transform="scale(1 1) rotate(0) translate(4 384)">
<title>set_softenings</title>
<polygon fill="white" stroke="none" points="-4,4 -4,-384 87,-384 87,4 -4,4"/>
<!-- Node291 -->
<g id="node1" class="node"><title>Node291</title>
<polygon fill="#bfbfbf" stroke="black" points="1.5,-360.5 1.5,-379.5 81.5,-379.5 81.5,-360.5 1.5,-360.5"/>
<text text-anchor="middle" x="41.5" y="-367.5" font-family="Helvetica,sans-Serif" font-size="10.00">set_softenings</text>
</g>
<!-- Node292 -->
<g id="node2" class="node"><title>Node292</title>
<g id="a_node2"><a xlink:href="proto_8h.html#a74dc0e5e9eefe11fc8434b62de573146" target="_top" xlink:title="begrun">
<polygon fill="white" stroke="black" points="18.5,-288.5 18.5,-307.5 64.5,-307.5 64.5,-288.5 18.5,-288.5"/>
<text text-anchor="middle" x="41.5" y="-295.5" font-family="Helvetica,sans-Serif" font-size="10.00">begrun</text>
</a>
</g>
</g>
<!-- Node291&#45;&gt;Node292 -->
<g id="edge1" class="edge"><title>Node291&#45;&gt;Node292</title>
<path fill="none" stroke="midnightblue" d="M41.5,-350.243C41.5,-336.357 41.5,-318.393 41.5,-307.556"/>
<polygon fill="midnightblue" stroke="midnightblue" points="38.0001,-350.29 41.5,-360.29 45.0001,-350.29 38.0001,-350.29"/>
</g>
<!-- Node293 -->
<g id="node3" class="node"><title>Node293</title>
<g id="a_node3"><a xlink:href="main_8c.html#a3c04138a5bfe5d72780bb7e82a18e627" target="_top" xlink:title="main">
<polygon fill="white" stroke="black" points="22.5,-216.5 22.5,-235.5 60.5,-235.5 60.5,-216.5 22.5,-216.5"/>
<text text-anchor="middle" x="41.5" y="-223.5" font-family="Helvetica,sans-Serif" font-size="10.00">main</text>
</a>
</g>
</g>
<!-- Node292&#45;&gt;Node293 -->
<g id="edge2" class="edge"><title>Node292&#45;&gt;Node293</title>
<path fill="none" stroke="midnightblue" d="M41.5,-278.243C41.5,-264.357 41.5,-246.393 41.5,-235.556"/>
<polygon fill="midnightblue" stroke="midnightblue" points="38.0001,-278.29 41.5,-288.29 45.0001,-278.29 38.0001,-278.29"/>
</g>
<!-- Node294 -->
<g id="node4" class="node"><title>Node294</title>
<g id="a_node4"><a xlink:href="walltime_8h.html#a76d2135b612766d4d665748454b879d6" target="_top" xlink:title="walltime_report">
<polygon fill="white" stroke="black" points="0,-0.5 0,-19.5 83,-19.5 83,-0.5 0,-0.5"/>
<text text-anchor="middle" x="41.5" y="-7.5" font-family="Helvetica,sans-Serif" font-size="10.00">walltime_report</text>
</a>
</g>
</g>
<!-- Node293&#45;&gt;Node294 -->
<g id="edge3" class="edge"><title>Node293&#45;&gt;Node294</title>
<path fill="none" stroke="midnightblue" d="M41.5,-206.266C41.5,-161.443 41.5,-53.2692 41.5,-19.9425"/>
<polygon fill="midnightblue" stroke="midnightblue" points="38.0001,-206.44 41.5,-216.44 45.0001,-206.44 38.0001,-206.44"/>
</g>
<!-- Node295 -->
<g id="node5" class="node"><title>Node295</title>
<g id="a_node5"><a xlink:href="run_8c.html#adc59e9ee1517e4e690694a64ab6a59d2" target="_top" xlink:title="write_cpu_log">
<polygon fill="white" stroke="black" points="3,-72.5 3,-91.5 80,-91.5 80,-72.5 3,-72.5"/>
<text text-anchor="middle" x="41.5" y="-79.5" font-family="Helvetica,sans-Serif" font-size="10.00">write_cpu_log</text>
</a>
</g>
</g>
<!-- Node294&#45;&gt;Node295 -->
<g id="edge4" class="edge"><title>Node294&#45;&gt;Node295</title>
<path fill="none" stroke="midnightblue" d="M41.5,-29.7574C41.5,-43.6427 41.5,-61.607 41.5,-72.4436"/>
<polygon fill="midnightblue" stroke="midnightblue" points="45.0001,-29.7102 41.5,-19.7102 38.0001,-29.7103 45.0001,-29.7102"/>
</g>
<!-- Node296 -->
<g id="node6" class="node"><title>Node296</title>
<g id="a_node6"><a xlink:href="run_8c.html#a05e0ffe612d44e6d7f3a9ae5b9df56a2" target="_top" xlink:title="run">
<polygon fill="white" stroke="black" points="26.5,-144.5 26.5,-163.5 56.5,-163.5 56.5,-144.5 26.5,-144.5"/>
<text text-anchor="middle" x="41.5" y="-151.5" font-family="Helvetica,sans-Serif" font-size="10.00">run</text>
</a>
</g>
</g>
<!-- Node295&#45;&gt;Node296 -->
<g id="edge5" class="edge"><title>Node295&#45;&gt;Node296</title>
<path fill="none" stroke="midnightblue" d="M41.5,-101.757C41.5,-115.643 41.5,-133.607 41.5,-144.444"/>
<polygon fill="midnightblue" stroke="midnightblue" points="45.0001,-101.71 41.5,-91.7102 38.0001,-101.71 45.0001,-101.71"/>
</g>
<!-- Node296&#45;&gt;Node293 -->
<g id="edge6" class="edge"><title>Node296&#45;&gt;Node293</title>
<path fill="none" stroke="midnightblue" d="M41.5,-173.757C41.5,-187.643 41.5,-205.607 41.5,-216.444"/>
<polygon fill="midnightblue" stroke="midnightblue" points="45.0001,-173.71 41.5,-163.71 38.0001,-173.71 45.0001,-173.71"/>
</g>
</g>
</svg>
