<?xml version="1.0" encoding="UTF-8" standalone="no"?>
<!DOCTYPE svg PUBLIC "-//W3C//DTD SVG 1.1//EN"
 "http://www.w3.org/Graphics/SVG/1.1/DTD/svg11.dtd">
<!-- Generated by graphviz version 2.38.0 (20140413.2041)
 -->
<!-- Title: set_softenings Pages: 1 -->
<svg width="291pt" height="215pt"
 viewBox="0.00 0.00 290.50 215.06" xmlns="http://www.w3.org/2000/svg" xmlns:xlink="http://www.w3.org/1999/xlink">
<g id="graph0" class="graph" transform="scale(1 1) rotate(0) translate(4 211.061)">
<title>set_softenings</title>
<polygon fill="white" stroke="none" points="-4,4 -4,-211.061 286.5,-211.061 286.5,4 -4,4"/>
<!-- Node286 -->
<g id="node1" class="node"><title>Node286</title>
<polygon fill="#bfbfbf" stroke="black" points="184,-0.5 184,-19.5 264,-19.5 264,-0.5 184,-0.5"/>
<text text-anchor="middle" x="224" y="-7.5" font-family="Helvetica,sans-Serif" font-size="10.00">set_softenings</text>
</g>
<!-- Node287 -->
<g id="node2" class="node"><title>Node287</title>
<g id="a_node2"><a xlink:href="endrun_8c.html#a6567cd867c5549fb6586e19ccd819764" target="_top" xlink:title="message">
<polygon fill="white" stroke="black" points="160,-62.8538 160,-81.8538 216,-81.8538 216,-62.8538 160,-62.8538"/>
<text text-anchor="middle" x="188" y="-69.8538" font-family="Helvetica,sans-Serif" font-size="10.00">message</text>
</a>
</g>
</g>
<!-- Node286&#45;&gt;Node287 -->
<g id="edge1" class="edge"><title>Node286&#45;&gt;Node287</title>
<path fill="none" stroke="midnightblue" d="M218.375,-19.7428C213.175,-28.75 205.303,-42.3834 198.877,-53.5148"/>
<polygon fill="midnightblue" stroke="midnightblue" points="195.673,-52.0634 193.704,-62.4737 201.735,-55.5634 195.673,-52.0634"/>
</g>
<!-- Node288 -->
<g id="node3" class="node"><title>Node288</title>
<g id="a_node3"><a xlink:href="endrun_8c.html#a7267113a7c0a094743bb565eabc695d1" target="_top" xlink:title="messagev">
<polygon fill="white" stroke="black" points="121,-125.208 121,-144.208 183,-144.208 183,-125.208 121,-125.208"/>
<text text-anchor="middle" x="152" y="-132.208" font-family="Helvetica,sans-Serif" font-size="10.00">messagev</text>
</a>
</g>
</g>
<!-- Node287&#45;&gt;Node288 -->
<g id="edge2" class="edge"><title>Node287&#45;&gt;Node288</title>
<path fill="none" stroke="midnightblue" d="M182.375,-82.0966C177.175,-91.1038 169.303,-104.737 162.877,-115.869"/>
<polygon fill="midnightblue" stroke="midnightblue" points="159.673,-114.417 157.704,-124.828 165.735,-117.917 159.673,-114.417"/>
</g>
<!-- Node289 -->
<g id="node4" class="node"><title>Node289</title>
<g id="a_node4"><a xlink:href="endrun_8c.html#a87108946670b4c3afbe846c6726675ff" target="_top" xlink:title="putline">
<polygon fill="white" stroke="black" points="237.5,-187.561 237.5,-206.561 282.5,-206.561 282.5,-187.561 237.5,-187.561"/>
<text text-anchor="middle" x="260" y="-194.561" font-family="Helvetica,sans-Serif" font-size="10.00">putline</text>
</a>
</g>
</g>
<!-- Node288&#45;&gt;Node289 -->
<g id="edge3" class="edge"><title>Node288&#45;&gt;Node289</title>
<path fill="none" stroke="midnightblue" d="M168.875,-144.45C186.47,-154.609 214.257,-170.652 234.524,-182.353"/>
<polygon fill="midnightblue" stroke="midnightblue" points="232.833,-185.418 243.243,-187.387 236.333,-179.356 232.833,-185.418"/>
</g>
<!-- Node290 -->
<g id="node5" class="node"><title>Node290</title>
<g id="a_node5"><a xlink:href="endrun_8c.html#a1200f02a595ab7cbe17c9e36ff32af0f" target="_top" xlink:title="show_backtrace">
<polygon fill="white" stroke="black" points="0,-62.8538 0,-81.8538 88,-81.8538 88,-62.8538 0,-62.8538"/>
<text text-anchor="middle" x="44" y="-69.8538" font-family="Helvetica,sans-Serif" font-size="10.00">show_backtrace</text>
</a>
</g>
</g>
<!-- Node288&#45;&gt;Node290 -->
<g id="edge4" class="edge"><title>Node288&#45;&gt;Node290</title>
<path fill="none" stroke="midnightblue" d="M135.125,-124.965C117.53,-114.806 89.7434,-98.7638 69.4759,-87.0623"/>
<polygon fill="midnightblue" stroke="midnightblue" points="71.1668,-83.9972 60.7565,-82.0282 67.6668,-90.0593 71.1668,-83.9972"/>
</g>
</g>
</svg>
