<?xml version="1.0" encoding="UTF-8" standalone="no"?>
<!DOCTYPE svg PUBLIC "-//W3C//DTD SVG 1.1//EN"
 "http://www.w3.org/Graphics/SVG/1.1/DTD/svg11.dtd">
<!-- Generated by graphviz version 2.38.0 (20140413.2041)
 -->
<!-- Title: begrun.c Pages: 1 -->
<!--zoomable 669 -->
<svg id="main" version="1.1" xmlns="http://www.w3.org/2000/svg" xmlns:xlink="http://www.w3.org/1999/xlink" xml:space="preserve" onload="init(evt)">
<style type="text/css"><![CDATA[
.edge:hover path { stroke: red; }
.edge:hover polygon { stroke: red; fill: red; }
]]></style>
<script type="text/javascript"><![CDATA[
var edges = document.getElementsByTagName('g');
if (edges && edges.length) {
  for (var i=0;i<edges.length;i++) {
    if (edges[i].id.substr(0,4)=='edge') {
      edges[i].setAttribute('class','edge');
    }
  }
}
]]></script>
        <defs>
                <circle id="rim" cx="0" cy="0" r="7"/>
                <circle id="rim2" cx="0" cy="0" r="3.5"/>
                <g id="zoomPlus">
                        <use xlink:href="#rim" fill="#404040">
                                <set attributeName="fill" to="#808080" begin="zoomplus.mouseover" end="zoomplus.mouseout"/>
                        </use>
                        <path d="M-4,0h8M0,-4v8" fill="none" stroke="white" stroke-width="1.5" pointer-events="none"/>
                </g>
                <g id="zoomMin">
                        <use xlink:href="#rim" fill="#404040">
                                <set attributeName="fill" to="#808080" begin="zoomminus.mouseover" end="zoomminus.mouseout"/>
                        </use>
                        <path d="M-4,0h8" fill="none" stroke="white" stroke-width="1.5" pointer-events="none"/>
                </g>
                <g id="dirArrow">
                        <path fill="none" stroke="white" stroke-width="1.5" d="M0,-3.0v7 M-2.5,-0.5L0,-3.0L2.5,-0.5"/>
                </g>
               <g id="resetDef">
                       <use xlink:href="#rim2" fill="#404040">
                               <set attributeName="fill" to="#808080" begin="reset.mouseover" end="reset.mouseout"/>
                       </use>
               </g>
        </defs>

<script type="text/javascript">
var viewWidth = 632;
var viewHeight = 669;
var sectionId = 'dynsection-0';
</script>
<script xlink:href="svgpan.js"/>
<svg id="graph" class="graph">
<g id="viewport">
<title>begrun.c</title>
<polygon fill="white" stroke="none" points="-4,4 -4,-664.527 628.022,-664.527 628.022,4 -4,4"/>
<!-- Node0 -->
<g id="node1" class="node"><title>Node0</title>
<polygon fill="#bfbfbf" stroke="black" points="113.641,-251.523 113.641,-270.523 167.641,-270.523 167.641,-251.523 113.641,-251.523"/>
<text text-anchor="middle" x="140.641" y="-258.523" font-family="Helvetica,sans-Serif" font-size="10.00">begrun.c</text>
</g>
<!-- Node1 -->
<g id="node2" class="node"><title>Node1</title>
<polygon fill="white" stroke="#bfbfbf" points="523.892,-378.201 523.892,-397.201 564.892,-397.201 564.892,-378.201 523.892,-378.201"/>
<text text-anchor="middle" x="544.392" y="-385.201" font-family="Helvetica,sans-Serif" font-size="10.00">mpi.h</text>
</g>
<!-- Node0&#45;&gt;Node1 -->
<g id="edge1" class="edge"><title>Node0&#45;&gt;Node1</title>
<path fill="none" stroke="midnightblue" d="M167.759,-269.532C240.203,-292.261 437.896,-354.288 513.984,-378.16"/>
<polygon fill="midnightblue" stroke="midnightblue" points="513.298,-381.614 523.888,-381.268 515.394,-374.935 513.298,-381.614"/>
</g>
<!-- Node2 -->
<g id="node3" class="node"><title>Node2</title>
<polygon fill="white" stroke="#bfbfbf" points="512.594,-421.011 512.594,-440.011 558.594,-440.011 558.594,-421.011 512.594,-421.011"/>
<text text-anchor="middle" x="535.594" y="-428.011" font-family="Helvetica,sans-Serif" font-size="10.00">stdio.h</text>
</g>
<!-- Node0&#45;&gt;Node2 -->
<g id="edge2" class="edge"><title>Node0&#45;&gt;Node2</title>
<path fill="none" stroke="midnightblue" d="M163.007,-270.621C229.515,-299.162 426.234,-383.581 503.716,-416.831"/>
<polygon fill="midnightblue" stroke="midnightblue" points="502.414,-420.081 512.984,-420.808 505.175,-413.648 502.414,-420.081"/>
</g>
<!-- Node3 -->
<g id="node4" class="node"><title>Node3</title>
<polygon fill="white" stroke="#bfbfbf" points="261.889,-641.027 261.889,-660.027 309.889,-660.027 309.889,-641.027 261.889,-641.027"/>
<text text-anchor="middle" x="285.889" y="-648.027" font-family="Helvetica,sans-Serif" font-size="10.00">stdlib.h</text>
</g>
<!-- Node0&#45;&gt;Node3 -->
<g id="edge3" class="edge"><title>Node0&#45;&gt;Node3</title>
<path fill="none" stroke="midnightblue" d="M144.232,-270.652C163.265,-321.693 252.484,-560.946 278.655,-631.13"/>
<polygon fill="midnightblue" stroke="midnightblue" points="275.52,-632.74 282.294,-640.887 282.079,-630.294 275.52,-632.74"/>
</g>
<!-- Node4 -->
<g id="node5" class="node"><title>Node4</title>
<polygon fill="white" stroke="#bfbfbf" points="204.976,-626.421 204.976,-645.421 253.976,-645.421 253.976,-626.421 204.976,-626.421"/>
<text text-anchor="middle" x="229.476" y="-633.421" font-family="Helvetica,sans-Serif" font-size="10.00">string.h</text>
</g>
<!-- Node0&#45;&gt;Node4 -->
<g id="edge4" class="edge"><title>Node0&#45;&gt;Node4</title>
<path fill="none" stroke="midnightblue" d="M142.926,-270.667C154.709,-320.39 208.667,-548.105 224.866,-616.464"/>
<polygon fill="midnightblue" stroke="midnightblue" points="221.494,-617.418 227.206,-626.341 228.306,-615.803 221.494,-617.418"/>
</g>
<!-- Node5 -->
<g id="node6" class="node"><title>Node5</title>
<polygon fill="white" stroke="#bfbfbf" points="153.658,-600.758 153.658,-619.758 200.658,-619.758 200.658,-600.758 153.658,-600.758"/>
<text text-anchor="middle" x="177.158" y="-607.758" font-family="Helvetica,sans-Serif" font-size="10.00">math.h</text>
</g>
<!-- Node0&#45;&gt;Node5 -->
<g id="edge5" class="edge"><title>Node0&#45;&gt;Node5</title>
<path fill="none" stroke="midnightblue" d="M141.656,-270.728C146.6,-318.014 168.206,-524.642 175.062,-590.214"/>
<polygon fill="midnightblue" stroke="midnightblue" points="171.61,-590.853 176.131,-600.434 178.572,-590.125 171.61,-590.853"/>
</g>
<!-- Node6 -->
<g id="node7" class="node"><title>Node6</title>
<polygon fill="white" stroke="#bfbfbf" points="97.0775,-565.089 97.0775,-584.089 165.078,-584.089 165.078,-565.089 97.0775,-565.089"/>
<text text-anchor="middle" x="131.078" y="-572.089" font-family="Helvetica,sans-Serif" font-size="10.00">sys/types.h</text>
</g>
<!-- Node0&#45;&gt;Node6 -->
<g id="edge6" class="edge"><title>Node0&#45;&gt;Node6</title>
<path fill="none" stroke="midnightblue" d="M140.344,-270.752C139.006,-314.647 133.513,-494.723 131.678,-554.901"/>
<polygon fill="midnightblue" stroke="midnightblue" points="128.177,-554.872 131.371,-564.974 135.174,-555.086 128.177,-554.872"/>
</g>
<!-- Node7 -->
<g id="node8" class="node"><title>Node7</title>
<polygon fill="white" stroke="#bfbfbf" points="63.1201,-520.874 63.1201,-539.874 123.12,-539.874 123.12,-520.874 63.1201,-520.874"/>
<text text-anchor="middle" x="93.1201" y="-527.874" font-family="Helvetica,sans-Serif" font-size="10.00">sys/stat.h</text>
</g>
<!-- Node0&#45;&gt;Node7 -->
<g id="edge7" class="edge"><title>Node0&#45;&gt;Node7</title>
<path fill="none" stroke="midnightblue" d="M138.95,-270.61C132.065,-309.631 106.068,-456.985 96.5979,-510.661"/>
<polygon fill="midnightblue" stroke="midnightblue" points="93.1316,-510.165 94.8408,-520.621 100.025,-511.381 93.1316,-510.165"/>
</g>
<!-- Node8 -->
<g id="node9" class="node"><title>Node8</title>
<polygon fill="white" stroke="#bfbfbf" points="39.3402,-469.923 39.3402,-488.923 90.3402,-488.923 90.3402,-469.923 39.3402,-469.923"/>
<text text-anchor="middle" x="64.8402" y="-476.923" font-family="Helvetica,sans-Serif" font-size="10.00">unistd.h</text>
</g>
<!-- Node0&#45;&gt;Node8 -->
<g id="edge8" class="edge"><title>Node0&#45;&gt;Node8</title>
<path fill="none" stroke="midnightblue" d="M137.286,-270.69C125.693,-304.093 87.1754,-415.07 71.5315,-460.144"/>
<polygon fill="midnightblue" stroke="midnightblue" points="68.1287,-459.274 68.1563,-469.869 74.7417,-461.569 68.1287,-459.274"/>
</g>
<!-- Node9 -->
<g id="node10" class="node"><title>Node9</title>
<polygon fill="white" stroke="#bfbfbf" points="482.359,-461.174 482.359,-480.174 554.359,-480.174 554.359,-461.174 482.359,-461.174"/>
<text text-anchor="middle" x="518.359" y="-468.174" font-family="Helvetica,sans-Serif" font-size="10.00">gsl/gsl_rng.h</text>
</g>
<!-- Node0&#45;&gt;Node9 -->
<g id="edge9" class="edge"><title>Node0&#45;&gt;Node9</title>
<path fill="none" stroke="midnightblue" d="M157.852,-270.576C218.073,-304.001 419.578,-415.846 492.085,-456.091"/>
<polygon fill="midnightblue" stroke="midnightblue" points="490.604,-459.272 501.047,-461.065 494.002,-453.151 490.604,-459.272"/>
</g>
<!-- Node10 -->
<g id="node11" class="node"><title>Node10</title>
<g id="a_node11"><a xlink:href="allvars_8h.html" target="_top" xlink:title="declares global variables. ">
<polygon fill="white" stroke="black" points="165.604,-399.457 165.604,-418.457 218.604,-418.457 218.604,-399.457 165.604,-399.457"/>
<text text-anchor="middle" x="192.104" y="-406.457" font-family="Helvetica,sans-Serif" font-size="10.00">allvars.h</text>
</a>
</g>
</g>
<!-- Node0&#45;&gt;Node10 -->
<g id="edge10" class="edge"><title>Node0&#45;&gt;Node10</title>
<path fill="none" stroke="midnightblue" d="M144.018,-270.73C152.416,-294.87 174.365,-357.964 185.468,-389.88"/>
<polygon fill="midnightblue" stroke="midnightblue" points="182.19,-391.112 188.782,-399.407 188.802,-388.812 182.19,-391.112"/>
</g>
<!-- Node12 -->
<g id="node13" class="node"><title>Node12</title>
<g id="a_node13"><a xlink:href="cosmology_8h.html" target="_top" xlink:title="cosmology.h">
<polygon fill="white" stroke="black" points="425.715,-527.156 425.715,-546.156 497.715,-546.156 497.715,-527.156 425.715,-527.156"/>
<text text-anchor="middle" x="461.715" y="-534.156" font-family="Helvetica,sans-Serif" font-size="10.00">cosmology.h</text>
</a>
</g>
</g>
<!-- Node0&#45;&gt;Node12 -->
<g id="edge27" class="edge"><title>Node0&#45;&gt;Node12</title>
<path fill="none" stroke="midnightblue" d="M152.068,-270.833C199.662,-311.691 382.456,-468.615 442.489,-520.151"/>
<polygon fill="midnightblue" stroke="midnightblue" points="440.557,-523.106 450.425,-526.964 445.117,-517.794 440.557,-523.106"/>
</g>
<!-- Node20 -->
<g id="node21" class="node"><title>Node20</title>
<g id="a_node21"><a xlink:href="param_8h.html" target="_top" xlink:title="param.h">
<polygon fill="white" stroke="black" points="21.3954,-414.323 21.3954,-433.323 73.3954,-433.323 73.3954,-414.323 21.3954,-414.323"/>
<text text-anchor="middle" x="47.3954" y="-421.323" font-family="Helvetica,sans-Serif" font-size="10.00">param.h</text>
</a>
</g>
</g>
<!-- Node0&#45;&gt;Node20 -->
<g id="edge23" class="edge"><title>Node0&#45;&gt;Node20</title>
<path fill="none" stroke="midnightblue" d="M135.087,-270.72C120.028,-297.011 78.2142,-370.016 58.2609,-404.852"/>
<polygon fill="midnightblue" stroke="midnightblue" points="54.9709,-403.554 53.0379,-413.971 61.0452,-407.033 54.9709,-403.554"/>
</g>
<!-- Node21 -->
<g id="node22" class="node"><title>Node21</title>
<g id="a_node22"><a xlink:href="densitykernel_8h.html" target="_top" xlink:title="densitykernel.h">
<polygon fill="white" stroke="black" points="-3.55271e-14,-356.349 -3.55271e-14,-375.349 83,-375.349 83,-356.349 -3.55271e-14,-356.349"/>
<text text-anchor="middle" x="41.5" y="-363.349" font-family="Helvetica,sans-Serif" font-size="10.00">densitykernel.h</text>
</a>
</g>
</g>
<!-- Node0&#45;&gt;Node21 -->
<g id="edge24" class="edge"><title>Node0&#45;&gt;Node21</title>
<path fill="none" stroke="midnightblue" d="M131.492,-270.697C114.671,-288.483 78.6356,-326.584 57.6248,-348.799"/>
<polygon fill="midnightblue" stroke="midnightblue" points="54.9557,-346.528 50.6271,-356.198 60.0414,-351.338 54.9557,-346.528"/>
</g>
<!-- Node22 -->
<g id="node23" class="node"><title>Node22</title>
<g id="a_node23"><a xlink:href="proto_8h.html" target="_top" xlink:title="proto.h">
<polygon fill="white" stroke="black" points="23.8954,-298.375 23.8954,-317.375 70.8954,-317.375 70.8954,-298.375 23.8954,-298.375"/>
<text text-anchor="middle" x="47.3954" y="-305.375" font-family="Helvetica,sans-Serif" font-size="10.00">proto.h</text>
</a>
</g>
</g>
<!-- Node0&#45;&gt;Node22 -->
<g id="edge25" class="edge"><title>Node0&#45;&gt;Node22</title>
<path fill="none" stroke="midnightblue" d="M121.321,-270.731C108.105,-277.371 90.3715,-286.281 75.5857,-293.71"/>
<polygon fill="midnightblue" stroke="midnightblue" points="73.7363,-290.723 66.3722,-298.34 76.8791,-296.977 73.7363,-290.723"/>
</g>
<!-- Node23 -->
<g id="node24" class="node"><title>Node23</title>
<g id="a_node24"><a xlink:href="sfr__eff_8h.html" target="_top" xlink:title="sfr_eff.h">
<polygon fill="white" stroke="black" points="38.3402,-242.774 38.3402,-261.774 91.3402,-261.774 91.3402,-242.774 38.3402,-242.774"/>
<text text-anchor="middle" x="64.8402" y="-249.774" font-family="Helvetica,sans-Serif" font-size="10.00">sfr_eff.h</text>
</a>
</g>
</g>
<!-- Node0&#45;&gt;Node23 -->
<g id="edge26" class="edge"><title>Node0&#45;&gt;Node23</title>
<path fill="none" stroke="midnightblue" d="M113.275,-257.865C109.49,-257.428 105.553,-256.973 101.632,-256.521"/>
<polygon fill="midnightblue" stroke="midnightblue" points="101.74,-253.01 91.4049,-255.34 100.938,-259.964 101.74,-253.01"/>
</g>
<!-- Node24 -->
<g id="node25" class="node"><title>Node24</title>
<g id="a_node25"><a xlink:href="cooling_8h.html" target="_top" xlink:title="cooling.h">
<polygon fill="white" stroke="black" points="65.1201,-191.823 65.1201,-210.823 121.12,-210.823 121.12,-191.823 65.1201,-191.823"/>
<text text-anchor="middle" x="93.1201" y="-198.823" font-family="Helvetica,sans-Serif" font-size="10.00">cooling.h</text>
</a>
</g>
</g>
<!-- Node0&#45;&gt;Node24 -->
<g id="edge28" class="edge"><title>Node0&#45;&gt;Node24</title>
<path fill="none" stroke="midnightblue" d="M133.006,-251.432C126.05,-242.693 115.603,-229.568 107.146,-218.943"/>
<polygon fill="midnightblue" stroke="midnightblue" points="109.86,-216.734 100.894,-211.09 104.384,-221.093 109.86,-216.734"/>
</g>
<!-- Node25 -->
<g id="node26" class="node"><title>Node25</title>
<g id="a_node26"><a xlink:href="slotsmanager_8h.html" target="_top" xlink:title="slotsmanager.h">
<polygon fill="white" stroke="black" points="413.906,-286.465 413.906,-305.465 496.906,-305.465 496.906,-286.465 413.906,-286.465"/>
<text text-anchor="middle" x="455.406" y="-293.465" font-family="Helvetica,sans-Serif" font-size="10.00">slotsmanager.h</text>
</a>
</g>
</g>
<!-- Node0&#45;&gt;Node25 -->
<g id="edge29" class="edge"><title>Node0&#45;&gt;Node25</title>
<path fill="none" stroke="midnightblue" d="M167.75,-264.033C220.16,-269.851 336.161,-282.728 403.755,-290.231"/>
<polygon fill="midnightblue" stroke="midnightblue" points="403.441,-293.718 413.767,-291.343 404.214,-286.761 403.441,-293.718"/>
</g>
<!-- Node30 -->
<g id="node31" class="node"><title>Node30</title>
<g id="a_node31"><a xlink:href="petaio_8h.html" target="_top" xlink:title="petaio.h">
<polygon fill="white" stroke="black" points="105.578,-147.608 105.578,-166.608 156.578,-166.608 156.578,-147.608 105.578,-147.608"/>
<text text-anchor="middle" x="131.078" y="-154.608" font-family="Helvetica,sans-Serif" font-size="10.00">petaio.h</text>
</a>
</g>
</g>
<!-- Node0&#45;&gt;Node30 -->
<g id="edge39" class="edge"><title>Node0&#45;&gt;Node30</title>
<path fill="none" stroke="midnightblue" d="M139.759,-251.434C138.2,-234.498 134.931,-198.983 132.88,-176.689"/>
<polygon fill="midnightblue" stroke="midnightblue" points="136.36,-176.312 131.958,-166.675 129.389,-176.954 136.36,-176.312"/>
</g>
<!-- Node32 -->
<g id="node33" class="node"><title>Node32</title>
<g id="a_node33"><a xlink:href="mymalloc_8h.html" target="_top" xlink:title="mymalloc.h">
<polygon fill="white" stroke="black" points="143.658,-111.939 143.658,-130.939 210.658,-130.939 210.658,-111.939 143.658,-111.939"/>
<text text-anchor="middle" x="177.158" y="-118.939" font-family="Helvetica,sans-Serif" font-size="10.00">mymalloc.h</text>
</a>
</g>
</g>
<!-- Node0&#45;&gt;Node32 -->
<g id="edge41" class="edge"><title>Node0&#45;&gt;Node32</title>
<path fill="none" stroke="midnightblue" d="M143.151,-251.429C149.093,-228.718 164.113,-171.302 172.055,-140.946"/>
<polygon fill="midnightblue" stroke="midnightblue" points="175.486,-141.661 174.631,-131.1 168.714,-139.889 175.486,-141.661"/>
</g>
<!-- Node34 -->
<g id="node35" class="node"><title>Node34</title>
<g id="a_node35"><a xlink:href="endrun_8h.html" target="_top" xlink:title="endrun.h">
<polygon fill="white" stroke="black" points="202.476,-86.276 202.476,-105.276 256.476,-105.276 256.476,-86.276 202.476,-86.276"/>
<text text-anchor="middle" x="229.476" y="-93.276" font-family="Helvetica,sans-Serif" font-size="10.00">endrun.h</text>
</a>
</g>
</g>
<!-- Node0&#45;&gt;Node34 -->
<g id="edge43" class="edge"><title>Node0&#45;&gt;Node34</title>
<path fill="none" stroke="midnightblue" d="M145.932,-251.181C160.347,-224.368 200.493,-149.689 219.393,-114.531"/>
<polygon fill="midnightblue" stroke="midnightblue" points="222.672,-115.825 224.324,-105.36 216.506,-112.51 222.672,-115.825"/>
</g>
<!-- Node35 -->
<g id="node36" class="node"><title>Node35</title>
<g id="a_node36"><a xlink:href="utils-string_8h.html" target="_top" xlink:title="utils&#45;string.h">
<polygon fill="white" stroke="black" points="250.889,-71.6697 250.889,-90.6697 320.889,-90.6697 320.889,-71.6697 250.889,-71.6697"/>
<text text-anchor="middle" x="285.889" y="-78.6697" font-family="Helvetica,sans-Serif" font-size="10.00">utils&#45;string.h</text>
</a>
</g>
</g>
<!-- Node0&#45;&gt;Node35 -->
<g id="edge44" class="edge"><title>Node0&#45;&gt;Node35</title>
<path fill="none" stroke="midnightblue" d="M148.45,-251.354C171.798,-222.443 241.322,-136.354 271.568,-98.9024"/>
<polygon fill="midnightblue" stroke="midnightblue" points="274.481,-100.866 278.041,-90.8872 269.035,-96.4681 274.481,-100.866"/>
</g>
<!-- Node37 -->
<g id="node38" class="node"><title>Node37</title>
<g id="a_node38"><a xlink:href="system_8h.html" target="_top" xlink:title="system.h">
<polygon fill="white" stroke="black" points="315.587,-68.7182 315.587,-87.7182 372.587,-87.7182 372.587,-68.7182 315.587,-68.7182"/>
<text text-anchor="middle" x="344.087" y="-75.7182" font-family="Helvetica,sans-Serif" font-size="10.00">system.h</text>
</a>
</g>
</g>
<!-- Node0&#45;&gt;Node37 -->
<g id="edge46" class="edge"><title>Node0&#45;&gt;Node37</title>
<path fill="none" stroke="midnightblue" d="M151.293,-251.452C184.099,-221.975 283.894,-132.304 325.532,-94.8905"/>
<polygon fill="midnightblue" stroke="midnightblue" points="327.948,-97.425 333.047,-88.1378 323.27,-92.2181 327.948,-97.425"/>
</g>
<!-- Node38 -->
<g id="node39" class="node"><title>Node38</title>
<g id="a_node39"><a xlink:href="hci_8h.html" target="_top" xlink:title="hci.h">
<polygon fill="white" stroke="black" points="382.688,-77.5424 382.688,-96.5424 420.688,-96.5424 420.688,-77.5424 382.688,-77.5424"/>
<text text-anchor="middle" x="401.688" y="-84.5424" font-family="Helvetica,sans-Serif" font-size="10.00">hci.h</text>
</a>
</g>
</g>
<!-- Node0&#45;&gt;Node38 -->
<g id="edge47" class="edge"><title>Node0&#45;&gt;Node38</title>
<path fill="none" stroke="midnightblue" d="M155.048,-251.422C198.103,-222.726 326.074,-137.437 378.697,-102.366"/>
<polygon fill="midnightblue" stroke="midnightblue" points="380.945,-105.073 387.326,-96.6145 377.063,-99.248 380.945,-105.073"/>
</g>
<!-- Node39 -->
<g id="node40" class="node"><title>Node39</title>
<polygon fill="white" stroke="#bfbfbf" points="398.834,-92.2809 398.834,-122.281 513.834,-122.281 513.834,-92.2809 398.834,-92.2809"/>
<text text-anchor="start" x="406.834" y="-110.281" font-family="Helvetica,sans-Serif" font-size="10.00">kspace&#45;neutrinos/delta</text>
<text text-anchor="middle" x="456.334" y="-99.2809" font-family="Helvetica,sans-Serif" font-size="10.00">_tot_table.h</text>
</g>
<!-- Node0&#45;&gt;Node39 -->
<g id="edge48" class="edge"><title>Node0&#45;&gt;Node39</title>
<path fill="none" stroke="midnightblue" d="M160.389,-251.406C211.313,-226.606 347.866,-160.105 416.212,-126.82"/>
<polygon fill="midnightblue" stroke="midnightblue" points="417.929,-129.877 425.387,-122.352 414.864,-123.583 417.929,-129.877"/>
</g>
<!-- Node40 -->
<g id="node41" class="node"><title>Node40</title>
<polygon fill="white" stroke="#bfbfbf" points="429.787,-117.605 429.787,-158.605 581.787,-158.605 581.787,-117.605 429.787,-117.605"/>
<text text-anchor="start" x="437.787" y="-146.605" font-family="Helvetica,sans-Serif" font-size="10.00">/home/yfeng1/source</text>
<text text-anchor="start" x="437.787" y="-135.605" font-family="Helvetica,sans-Serif" font-size="10.00">/MP&#45;Gadget3/kspace&#45;neutrinos</text>
<text text-anchor="middle" x="505.787" y="-124.605" font-family="Helvetica,sans-Serif" font-size="10.00">/transfer_init.h</text>
</g>
<!-- Node0&#45;&gt;Node40 -->
<g id="edge49" class="edge"><title>Node0&#45;&gt;Node40</title>
<path fill="none" stroke="midnightblue" d="M167.788,-251.885C223.773,-233.039 353.62,-189.329 435.093,-161.903"/>
<polygon fill="midnightblue" stroke="midnightblue" points="436.42,-165.149 444.781,-158.641 434.187,-158.515 436.42,-165.149"/>
</g>
<!-- Node41 -->
<g id="node42" class="node"><title>Node41</title>
<polygon fill="white" stroke="#bfbfbf" points="472.022,-157.753 472.022,-198.753 624.022,-198.753 624.022,-157.753 472.022,-157.753"/>
<text text-anchor="start" x="480.022" y="-186.753" font-family="Helvetica,sans-Serif" font-size="10.00">/home/yfeng1/source</text>
<text text-anchor="start" x="480.022" y="-175.753" font-family="Helvetica,sans-Serif" font-size="10.00">/MP&#45;Gadget3/kspace&#45;neutrinos</text>
<text text-anchor="middle" x="548.022" y="-164.753" font-family="Helvetica,sans-Serif" font-size="10.00">/omega_nu_single.h</text>
</g>
<!-- Node0&#45;&gt;Node41 -->
<g id="edge50" class="edge"><title>Node0&#45;&gt;Node41</title>
<path fill="none" stroke="midnightblue" d="M167.686,-255.528C226.669,-243.545 369.01,-214.624 461.848,-195.762"/>
<polygon fill="midnightblue" stroke="midnightblue" points="462.69,-199.162 471.793,-193.741 461.296,-192.303 462.69,-199.162"/>
</g>
<!-- Node10&#45;&gt;Node1 -->
<g id="edge11" class="edge"><title>Node10&#45;&gt;Node1</title>
<path fill="none" stroke="midnightblue" d="M218.872,-407.342C283.039,-403.47 445.345,-393.677 513.503,-389.565"/>
<polygon fill="midnightblue" stroke="midnightblue" points="513.833,-393.051 523.604,-388.955 513.412,-386.064 513.833,-393.051"/>
</g>
<!-- Node10&#45;&gt;Node2 -->
<g id="edge12" class="edge"><title>Node10&#45;&gt;Node2</title>
<path fill="none" stroke="midnightblue" d="M218.771,-410.63C280.715,-414.517 434.213,-424.149 502.232,-428.418"/>
<polygon fill="midnightblue" stroke="midnightblue" points="502.189,-431.922 512.388,-429.055 502.627,-424.935 502.189,-431.922"/>
</g>
<!-- Node10&#45;&gt;Node9 -->
<g id="edge13" class="edge"><title>Node10&#45;&gt;Node9</title>
<path fill="none" stroke="midnightblue" d="M218.803,-414.007C274.316,-424.509 402.779,-448.81 472.067,-461.917"/>
<polygon fill="midnightblue" stroke="midnightblue" points="471.776,-465.424 482.252,-463.844 473.077,-458.546 471.776,-465.424"/>
</g>
<!-- Node11 -->
<g id="node12" class="node"><title>Node11</title>
<polygon fill="white" stroke="#bfbfbf" points="468.392,-497.045 468.392,-516.045 518.392,-516.045 518.392,-497.045 468.392,-497.045"/>
<text text-anchor="middle" x="493.392" y="-504.045" font-family="Helvetica,sans-Serif" font-size="10.00">signal.h</text>
</g>
<!-- Node10&#45;&gt;Node11 -->
<g id="edge14" class="edge"><title>Node10&#45;&gt;Node11</title>
<path fill="none" stroke="midnightblue" d="M218.841,-417.617C273.41,-435.292 397.576,-475.51 458.442,-495.225"/>
<polygon fill="midnightblue" stroke="midnightblue" points="457.404,-498.568 467.996,-498.319 459.561,-491.908 457.404,-498.568"/>
</g>
<!-- Node10&#45;&gt;Node12 -->
<g id="edge15" class="edge"><title>Node10&#45;&gt;Node12</title>
<path fill="none" stroke="midnightblue" d="M212.369,-418.555C259.619,-440.935 377.256,-496.653 432.362,-522.753"/>
<polygon fill="midnightblue" stroke="midnightblue" points="431.047,-526.003 441.583,-527.121 434.044,-519.677 431.047,-526.003"/>
</g>
<!-- Node15 -->
<g id="node16" class="node"><title>Node15</title>
<g id="a_node16"><a xlink:href="walltime_8h.html" target="_top" xlink:title="walltime.h">
<polygon fill="white" stroke="black" points="394.125,-550.274 394.125,-569.274 455.125,-569.274 455.125,-550.274 394.125,-550.274"/>
<text text-anchor="middle" x="424.625" y="-557.274" font-family="Helvetica,sans-Serif" font-size="10.00">walltime.h</text>
</a>
</g>
</g>
<!-- Node10&#45;&gt;Node15 -->
<g id="edge18" class="edge"><title>Node10&#45;&gt;Node15</title>
<path fill="none" stroke="midnightblue" d="M207.003,-418.621C246.458,-444.212 353.876,-513.885 401.435,-544.733"/>
<polygon fill="midnightblue" stroke="midnightblue" points="399.556,-547.686 409.85,-550.191 403.365,-541.813 399.556,-547.686"/>
</g>
<!-- Node16 -->
<g id="node17" class="node"><title>Node16</title>
<polygon fill="white" stroke="#bfbfbf" points="357.641,-565.453 357.641,-584.453 409.641,-584.453 409.641,-565.453 357.641,-565.453"/>
<text text-anchor="middle" x="383.641" y="-572.453" font-family="Helvetica,sans-Serif" font-size="10.00">assert.h</text>
</g>
<!-- Node10&#45;&gt;Node16 -->
<g id="edge19" class="edge"><title>Node10&#45;&gt;Node16</title>
<path fill="none" stroke="midnightblue" d="M203.23,-418.599C234.834,-445.989 325.408,-524.485 364.877,-558.692"/>
<polygon fill="midnightblue" stroke="midnightblue" points="362.635,-561.38 372.485,-565.284 367.22,-556.09 362.635,-561.38"/>
</g>
<!-- Node17 -->
<g id="node18" class="node"><title>Node17</title>
<g id="a_node18"><a xlink:href="physconst_8h.html" target="_top" xlink:title="physconst.h">
<polygon fill="white" stroke="black" points="305.44,-572.071 305.44,-591.071 375.44,-591.071 375.44,-572.071 305.44,-572.071"/>
<text text-anchor="middle" x="340.44" y="-579.071" font-family="Helvetica,sans-Serif" font-size="10.00">physconst.h</text>
</a>
</g>
</g>
<!-- Node10&#45;&gt;Node17 -->
<g id="edge20" class="edge"><title>Node10&#45;&gt;Node17</title>
<path fill="none" stroke="midnightblue" d="M200.29,-418.483C224.244,-446.357 294.451,-528.055 325.443,-564.119"/>
<polygon fill="midnightblue" stroke="midnightblue" points="322.924,-566.558 332.096,-571.862 328.233,-561.996 322.924,-566.558"/>
</g>
<!-- Node18 -->
<g id="node19" class="node"><title>Node18</title>
<g id="a_node19"><a xlink:href="types_8h.html" target="_top" xlink:title="types.h">
<polygon fill="white" stroke="black" points="233.369,-363.633 233.369,-382.633 282.369,-382.633 282.369,-363.633 233.369,-363.633"/>
<text text-anchor="middle" x="257.869" y="-370.633" font-family="Helvetica,sans-Serif" font-size="10.00">types.h</text>
</a>
</g>
</g>
<!-- Node10&#45;&gt;Node18 -->
<g id="edge21" class="edge"><title>Node10&#45;&gt;Node18</title>
<path fill="none" stroke="midnightblue" d="M209.728,-399.357C216.362,-395.743 224.062,-391.549 231.331,-387.589"/>
<polygon fill="midnightblue" stroke="midnightblue" points="233.089,-390.617 240.197,-382.759 229.741,-384.469 233.089,-390.617"/>
</g>
<!-- Node13 -->
<g id="node14" class="node"><title>Node13</title>
<polygon fill="white" stroke="#bfbfbf" points="446.761,-341.78 446.761,-360.78 498.761,-360.78 498.761,-341.78 446.761,-341.78"/>
<text text-anchor="middle" x="472.761" y="-348.78" font-family="Helvetica,sans-Serif" font-size="10.00">stddef.h</text>
</g>
<!-- Node12&#45;&gt;Node13 -->
<g id="edge16" class="edge"><title>Node12&#45;&gt;Node13</title>
<path fill="none" stroke="midnightblue" d="M462.293,-526.951C464.031,-497.795 469.228,-410.569 471.581,-371.085"/>
<polygon fill="midnightblue" stroke="midnightblue" points="475.087,-371.08 472.189,-360.89 468.1,-370.664 475.087,-371.08"/>
</g>
<!-- Node14 -->
<g id="node15" class="node"><title>Node14</title>
<polygon fill="white" stroke="#bfbfbf" points="444.287,-578.592 444.287,-608.592 567.287,-608.592 567.287,-578.592 444.287,-578.592"/>
<text text-anchor="start" x="452.287" y="-596.592" font-family="Helvetica,sans-Serif" font-size="10.00">kspace&#45;neutrinos/omega</text>
<text text-anchor="middle" x="505.787" y="-585.592" font-family="Helvetica,sans-Serif" font-size="10.00">_nu_single.h</text>
</g>
<!-- Node12&#45;&gt;Node14 -->
<g id="edge17" class="edge"><title>Node12&#45;&gt;Node14</title>
<path fill="none" stroke="midnightblue" d="M469.191,-546.315C474.275,-552.882 481.229,-561.867 487.711,-570.241"/>
<polygon fill="midnightblue" stroke="midnightblue" points="485.06,-572.534 493.949,-578.299 490.596,-568.249 485.06,-572.534"/>
</g>
<!-- Node19 -->
<g id="node20" class="node"><title>Node19</title>
<polygon fill="white" stroke="#bfbfbf" points="305,-356.349 305,-375.349 354,-375.349 354,-356.349 305,-356.349"/>
<text text-anchor="middle" x="329.5" y="-363.349" font-family="Helvetica,sans-Serif" font-size="10.00">stdint.h</text>
</g>
<!-- Node18&#45;&gt;Node19 -->
<g id="edge22" class="edge"><title>Node18&#45;&gt;Node19</title>
<path fill="none" stroke="midnightblue" d="M282.521,-370.626C286.416,-370.23 290.507,-369.814 294.582,-369.399"/>
<polygon fill="midnightblue" stroke="midnightblue" points="294.966,-372.879 304.56,-368.385 294.257,-365.914 294.966,-372.879"/>
</g>
<!-- Node25&#45;&gt;Node1 -->
<g id="edge30" class="edge"><title>Node25&#45;&gt;Node1</title>
<path fill="none" stroke="midnightblue" d="M464.929,-305.782C479.915,-321.232 509.201,-351.422 527.728,-370.523"/>
<polygon fill="midnightblue" stroke="midnightblue" points="525.462,-373.213 534.937,-377.954 530.487,-368.339 525.462,-373.213"/>
</g>
<!-- Node25&#45;&gt;Node18 -->
<g id="edge32" class="edge"><title>Node25&#45;&gt;Node18</title>
<path fill="none" stroke="midnightblue" d="M430.787,-305.582C395.796,-319.252 331.544,-344.352 291.981,-359.807"/>
<polygon fill="midnightblue" stroke="midnightblue" points="290.528,-356.617 282.487,-363.516 293.075,-363.137 290.528,-356.617"/>
</g>
<!-- Node26 -->
<g id="node27" class="node"><title>Node26</title>
<g id="a_node27"><a xlink:href="event_8h.html" target="_top" xlink:title="event.h">
<polygon fill="white" stroke="black" points="493.859,-251.523 493.859,-270.523 542.859,-270.523 542.859,-251.523 493.859,-251.523"/>
<text text-anchor="middle" x="518.359" y="-258.523" font-family="Helvetica,sans-Serif" font-size="10.00">event.h</text>
</a>
</g>
</g>
<!-- Node25&#45;&gt;Node26 -->
<g id="edge31" class="edge"><title>Node25&#45;&gt;Node26</title>
<path fill="none" stroke="midnightblue" d="M472.608,-286.417C478.715,-283.028 485.731,-279.133 492.406,-275.429"/>
<polygon fill="midnightblue" stroke="midnightblue" points="494.133,-278.473 501.177,-270.56 490.735,-272.353 494.133,-278.473"/>
</g>
<!-- Node27 -->
<g id="node28" class="node"><title>Node27</title>
<g id="a_node28"><a xlink:href="partmanager_8h.html" target="_top" xlink:title="partmanager.h">
<polygon fill="white" stroke="black" points="427.396,-313.24 427.396,-332.24 506.396,-332.24 506.396,-313.24 427.396,-313.24"/>
<text text-anchor="middle" x="466.896" y="-320.24" font-family="Helvetica,sans-Serif" font-size="10.00">partmanager.h</text>
</a>
</g>
</g>
<!-- Node25&#45;&gt;Node27 -->
<g id="edge33" class="edge"><title>Node25&#45;&gt;Node27</title>
<path fill="none" stroke="midnightblue" d="M459.554,-305.632C459.618,-305.781 459.683,-305.932 459.748,-306.083"/>
<polygon fill="midnightblue" stroke="midnightblue" points="455.555,-305.189 462.715,-312.998 461.988,-302.428 455.555,-305.189"/>
</g>
<!-- Node27&#45;&gt;Node18 -->
<g id="edge35" class="edge"><title>Node27&#45;&gt;Node18</title>
<path fill="none" stroke="midnightblue" d="M427.088,-332.337C388.11,-341.734 329.336,-355.903 292.313,-364.829"/>
<polygon fill="midnightblue" stroke="midnightblue" points="291.383,-361.453 282.481,-367.199 293.023,-368.258 291.383,-361.453"/>
</g>
<!-- Node28 -->
<g id="node29" class="node"><title>Node28</title>
<polygon fill="white" stroke="#bfbfbf" points="507.094,-291.686 507.094,-310.686 564.094,-310.686 564.094,-291.686 507.094,-291.686"/>
<text text-anchor="middle" x="535.594" y="-298.686" font-family="Helvetica,sans-Serif" font-size="10.00">pthread.h</text>
</g>
<!-- Node27&#45;&gt;Node28 -->
<g id="edge34" class="edge"><title>Node27&#45;&gt;Node28</title>
<path fill="none" stroke="midnightblue" d="M497.228,-313.224C497.327,-313.193 497.426,-313.162 497.525,-313.131"/>
<polygon fill="midnightblue" stroke="midnightblue" points="498.252,-316.57 506.746,-310.237 496.157,-309.891 498.252,-316.57"/>
</g>
<!-- Node29 -->
<g id="node30" class="node"><title>Node29</title>
<g id="a_node30"><a xlink:href="peano_8h.html" target="_top" xlink:title="peano.h">
<polygon fill="white" stroke="black" points="375.631,-349.064 375.631,-368.064 426.631,-368.064 426.631,-349.064 375.631,-349.064"/>
<text text-anchor="middle" x="401.131" y="-356.064" font-family="Helvetica,sans-Serif" font-size="10.00">peano.h</text>
</a>
</g>
</g>
<!-- Node27&#45;&gt;Node29 -->
<g id="edge36" class="edge"><title>Node27&#45;&gt;Node29</title>
<path fill="none" stroke="midnightblue" d="M449.272,-332.341C442.638,-335.955 434.938,-340.149 427.669,-344.109"/>
<polygon fill="midnightblue" stroke="midnightblue" points="425.911,-341.081 418.803,-348.938 429.259,-347.228 425.911,-341.081"/>
</g>
<!-- Node29&#45;&gt;Node13 -->
<g id="edge37" class="edge"><title>Node29&#45;&gt;Node13</title>
<path fill="none" stroke="midnightblue" d="M426.991,-355.935C430.097,-355.619 433.311,-355.292 436.529,-354.965"/>
<polygon fill="midnightblue" stroke="midnightblue" points="437.104,-358.425 446.698,-353.931 436.395,-351.46 437.104,-358.425"/>
</g>
<!-- Node29&#45;&gt;Node19 -->
<g id="edge38" class="edge"><title>Node29&#45;&gt;Node19</title>
<path fill="none" stroke="midnightblue" d="M375.27,-361.194C371.716,-361.556 368.02,-361.931 364.338,-362.306"/>
<polygon fill="midnightblue" stroke="midnightblue" points="363.721,-358.851 354.126,-363.344 364.429,-365.815 363.721,-358.851"/>
</g>
<!-- Node31 -->
<g id="node32" class="node"><title>Node31</title>
<polygon fill="white" stroke="#bfbfbf" points="56.4719,-95.4232 56.4719,-114.423 106.472,-114.423 106.472,-95.4232 56.4719,-95.4232"/>
<text text-anchor="middle" x="81.4719" y="-102.423" font-family="Helvetica,sans-Serif" font-size="10.00">bigfile.h</text>
</g>
<!-- Node30&#45;&gt;Node31 -->
<g id="edge40" class="edge"><title>Node30&#45;&gt;Node31</title>
<path fill="none" stroke="midnightblue" d="M121.979,-147.537C115.126,-140.328 105.557,-130.26 97.4394,-121.721"/>
<polygon fill="midnightblue" stroke="midnightblue" points="99.9391,-119.271 90.5127,-114.434 94.8656,-124.093 99.9391,-119.271"/>
</g>
<!-- Node33 -->
<g id="node34" class="node"><title>Node33</title>
<g id="a_node34"><a xlink:href="memory_8h.html" target="_top" xlink:title="memory.h">
<polygon fill="white" stroke="black" points="109.073,-50.8367 109.073,-69.8367 169.073,-69.8367 169.073,-50.8367 109.073,-50.8367"/>
<text text-anchor="middle" x="139.073" y="-57.8367" font-family="Helvetica,sans-Serif" font-size="10.00">memory.h</text>
</a>
</g>
</g>
<!-- Node32&#45;&gt;Node33 -->
<g id="edge42" class="edge"><title>Node32&#45;&gt;Node33</title>
<path fill="none" stroke="midnightblue" d="M171.208,-111.892C165.706,-103.065 157.379,-89.7056 150.58,-78.7976"/>
<polygon fill="midnightblue" stroke="midnightblue" points="153.368,-76.6536 145.108,-70.0185 147.427,-80.3564 153.368,-76.6536"/>
</g>
<!-- Node36 -->
<g id="node37" class="node"><title>Node36</title>
<polygon fill="white" stroke="#bfbfbf" points="248.986,-0.5 248.986,-19.5 300.986,-19.5 300.986,-0.5 248.986,-0.5"/>
<text text-anchor="middle" x="274.986" y="-7.5" font-family="Helvetica,sans-Serif" font-size="10.00">stdarg.h</text>
</g>
<!-- Node35&#45;&gt;Node36 -->
<g id="edge45" class="edge"><title>Node35&#45;&gt;Node36</title>
<path fill="none" stroke="midnightblue" d="M284.418,-71.5715C282.786,-60.9133 280.105,-43.4165 278.018,-29.7933"/>
<polygon fill="midnightblue" stroke="midnightblue" points="281.477,-29.2575 276.503,-19.9029 274.558,-30.3176 281.477,-29.2575"/>
</g>
</g>
</svg>
        <g id="navigator" transform="translate(0 0)" fill="#404254">
                <rect fill="#f2f5e9" fill-opacity="0.5" stroke="#606060" stroke-width=".5" x="0" y="0" width="60" height="60"/>
                <use id="zoomplus" xlink:href="#zoomPlus" x="17" y="9" onmousedown="handleZoom(evt,'in')"/>
                <use id="zoomminus" xlink:href="#zoomMin" x="42" y="9" onmousedown="handleZoom(evt,'out')"/>
                <use id="reset" xlink:href="#resetDef" x="30" y="36" onmousedown="handleReset()"/>
                <g id="arrowUp" xlink:href="#dirArrow" transform="translate(30 24)" onmousedown="handlePan(0,-1)">
                  <use xlink:href="#rim" fill="#404040">
                        <set attributeName="fill" to="#808080" begin="arrowUp.mouseover" end="arrowUp.mouseout"/>
                  </use>
                  <path fill="none" stroke="white" stroke-width="1.5" d="M0,-3.0v7 M-2.5,-0.5L0,-3.0L2.5,-0.5"/>
                </g>
                <g id="arrowRight" xlink:href="#dirArrow" transform="rotate(90) translate(36 -43)" onmousedown="handlePan(1,0)">
                  <use xlink:href="#rim" fill="#404040">
                        <set attributeName="fill" to="#808080" begin="arrowRight.mouseover" end="arrowRight.mouseout"/>
                  </use>
                  <path fill="none" stroke="white" stroke-width="1.5" d="M0,-3.0v7 M-2.5,-0.5L0,-3.0L2.5,-0.5"/>
                </g>
                <g id="arrowDown" xlink:href="#dirArrow" transform="rotate(180) translate(-30 -48)" onmousedown="handlePan(0,1)">
                  <use xlink:href="#rim" fill="#404040">
                        <set attributeName="fill" to="#808080" begin="arrowDown.mouseover" end="arrowDown.mouseout"/>
                  </use>
                  <path fill="none" stroke="white" stroke-width="1.5" d="M0,-3.0v7 M-2.5,-0.5L0,-3.0L2.5,-0.5"/>
                </g>
                <g id="arrowLeft" xlink:href="#dirArrow" transform="rotate(270) translate(-36 17)" onmousedown="handlePan(-1,0)">
                  <use xlink:href="#rim" fill="#404040">
                        <set attributeName="fill" to="#808080" begin="arrowLeft.mouseover" end="arrowLeft.mouseout"/>
                  </use>
                  <path fill="none" stroke="white" stroke-width="1.5" d="M0,-3.0v7 M-2.5,-0.5L0,-3.0L2.5,-0.5"/>
                </g>
        </g>
        <svg viewBox="0 0 15 15" width="100%" height="30px" preserveAspectRatio="xMaxYMin meet">
         <g id="arrow_out" transform="scale(0.3 0.3)">
          <a xlink:href="begrun_8c__incl_org.svg" target="_base">
           <rect id="button" ry="5" rx="5" y="6" x="6" height="38" width="38"
                fill="#f2f5e9" fill-opacity="0.5" stroke="#606060" stroke-width="1.0"/>
           <path id="arrow"
             d="M 11.500037,31.436501 C 11.940474,20.09759 22.043105,11.32322 32.158766,21.979434 L 37.068811,17.246167 C 37.068811,17.246167 37.088388,32 37.088388,32 L 22.160133,31.978069 C 22.160133,31.978069 26.997745,27.140456 26.997745,27.140456 C 18.528582,18.264221 13.291696,25.230495 11.500037,31.436501 z"
             style="fill:#404040;"/>
          </a>
         </g>
        </svg>
</svg>
