<?xml version="1.0" encoding="UTF-8" standalone="no"?>
<!DOCTYPE svg PUBLIC "-//W3C//DTD SVG 1.1//EN"
 "http://www.w3.org/Graphics/SVG/1.1/DTD/svg11.dtd">
<!-- Generated by graphviz version 2.38.0 (20140413.2041)
 -->
<!-- Title: blackhole.h Pages: 1 -->
<svg width="167pt" height="153pt"
 viewBox="0.00 0.00 167.00 152.71" xmlns="http://www.w3.org/2000/svg" xmlns:xlink="http://www.w3.org/1999/xlink">
<g id="graph0" class="graph" transform="scale(1 1) rotate(0) translate(4 148.708)">
<title>blackhole.h</title>
<polygon fill="white" stroke="none" points="-4,4 -4,-148.708 163,-148.708 163,4 -4,4"/>
<!-- Node1 -->
<g id="node1" class="node"><title>Node1</title>
<polygon fill="#bfbfbf" stroke="black" points="57,-62.8538 57,-81.8538 123,-81.8538 123,-62.8538 57,-62.8538"/>
<text text-anchor="middle" x="90" y="-69.8538" font-family="Helvetica,sans-Serif" font-size="10.00">blackhole.h</text>
</g>
<!-- Node2 -->
<g id="node2" class="node"><title>Node2</title>
<g id="a_node2"><a xlink:href="blackhole_8c.html" target="_top" xlink:title="routines for gas accretion onto black holes, and black hole mergers ">
<polygon fill="white" stroke="black" points="93,-125.208 93,-144.208 159,-144.208 159,-125.208 93,-125.208"/>
<text text-anchor="middle" x="126" y="-132.208" font-family="Helvetica,sans-Serif" font-size="10.00">blackhole.c</text>
</a>
</g>
</g>
<!-- Node1&#45;&gt;Node2 -->
<g id="edge1" class="edge"><title>Node1&#45;&gt;Node2</title>
<path fill="none" stroke="midnightblue" d="M100.779,-91.0238C107.191,-102.13 115.068,-115.774 120.296,-124.828"/>
<polygon fill="midnightblue" stroke="midnightblue" points="103.656,-89.0069 95.625,-82.0966 97.594,-92.5069 103.656,-89.0069"/>
</g>
<!-- Node3 -->
<g id="node3" class="node"><title>Node3</title>
<g id="a_node3"><a xlink:href="fof_8c.html" target="_top" xlink:title="parallel FoF group finder ">
<polygon fill="white" stroke="black" points="0,-62.8538 0,-81.8538 36,-81.8538 36,-62.8538 0,-62.8538"/>
<text text-anchor="middle" x="18" y="-69.8538" font-family="Helvetica,sans-Serif" font-size="10.00">fof.c</text>
</a>
</g>
</g>
<!-- Node1&#45;&gt;Node3 -->
<g id="edge2" class="edge"><title>Node1&#45;&gt;Node3</title>
<path fill="none" stroke="midnightblue" d="M46.6543,-72.3538C43.0523,-72.3538 39.5527,-72.3538 36.3083,-72.3538"/>
<polygon fill="midnightblue" stroke="midnightblue" points="46.9502,-75.8539 56.9502,-72.3538 46.9501,-68.8539 46.9502,-75.8539"/>
</g>
<!-- Node4 -->
<g id="node4" class="node"><title>Node4</title>
<g id="a_node4"><a xlink:href="run_8c.html" target="_top" xlink:title="iterates over timesteps, main loop ">
<polygon fill="white" stroke="black" points="107,-0.5 107,-19.5 145,-19.5 145,-0.5 107,-0.5"/>
<text text-anchor="middle" x="126" y="-7.5" font-family="Helvetica,sans-Serif" font-size="10.00">run.c</text>
</a>
</g>
</g>
<!-- Node1&#45;&gt;Node4 -->
<g id="edge3" class="edge"><title>Node1&#45;&gt;Node4</title>
<path fill="none" stroke="midnightblue" d="M100.779,-53.6839C107.191,-42.5781 115.068,-28.9341 120.296,-19.8801"/>
<polygon fill="midnightblue" stroke="midnightblue" points="97.594,-52.2008 95.625,-62.611 103.656,-55.7008 97.594,-52.2008"/>
</g>
</g>
</svg>
