<?xml version="1.0" encoding="UTF-8" standalone="no"?>
<!DOCTYPE svg PUBLIC "-//W3C//DTD SVG 1.1//EN"
 "http://www.w3.org/Graphics/SVG/1.1/DTD/svg11.dtd">
<!-- Generated by graphviz version 2.38.0 (20140413.2041)
 -->
<!-- Title: blackhole.h Pages: 1 -->
<svg width="176pt" height="104pt"
 viewBox="0.00 0.00 176.00 104.00" xmlns="http://www.w3.org/2000/svg" xmlns:xlink="http://www.w3.org/1999/xlink">
<g id="graph0" class="graph" transform="scale(1 1) rotate(0) translate(4 100)">
<title>blackhole.h</title>
<polygon fill="white" stroke="none" points="-4,4 -4,-100 172,-100 172,4 -4,4"/>
<!-- Node1 -->
<g id="node1" class="node"><title>Node1</title>
<polygon fill="#bfbfbf" stroke="black" points="0,-38.5 0,-57.5 66,-57.5 66,-38.5 0,-38.5"/>
<text text-anchor="middle" x="33" y="-45.5" font-family="Helvetica,sans-Serif" font-size="10.00">blackhole.h</text>
</g>
<!-- Node2 -->
<g id="node2" class="node"><title>Node2</title>
<g id="a_node2"><a xlink:href="blackhole_8c.html" target="_top" xlink:title="routines for gas accretion onto black holes, and black hole mergers ">
<polygon fill="white" stroke="black" points="102,-76.5 102,-95.5 168,-95.5 168,-76.5 102,-76.5"/>
<text text-anchor="middle" x="135" y="-83.5" font-family="Helvetica,sans-Serif" font-size="10.00">blackhole.c</text>
</a>
</g>
</g>
<!-- Node1&#45;&gt;Node2 -->
<g id="edge1" class="edge"><title>Node1&#45;&gt;Node2</title>
<path fill="none" stroke="midnightblue" d="M68.9067,-61.2646C82.0349,-66.2533 96.695,-71.8241 108.774,-76.4141"/>
<polygon fill="midnightblue" stroke="midnightblue" points="69.8253,-57.8695 59.2342,-57.589 67.3388,-64.413 69.8253,-57.8695"/>
</g>
<!-- Node3 -->
<g id="node3" class="node"><title>Node3</title>
<g id="a_node3"><a xlink:href="fof_8c.html" target="_top" xlink:title="parallel FoF group finder ">
<polygon fill="white" stroke="black" points="117,-38.5 117,-57.5 153,-57.5 153,-38.5 117,-38.5"/>
<text text-anchor="middle" x="135" y="-45.5" font-family="Helvetica,sans-Serif" font-size="10.00">fof.c</text>
</a>
</g>
</g>
<!-- Node1&#45;&gt;Node3 -->
<g id="edge2" class="edge"><title>Node1&#45;&gt;Node3</title>
<path fill="none" stroke="midnightblue" d="M76.3117,-48C90.5092,-48 105.554,-48 116.719,-48"/>
<polygon fill="midnightblue" stroke="midnightblue" points="76.1911,-44.5001 66.1911,-48 76.191,-51.5001 76.1911,-44.5001"/>
</g>
<!-- Node4 -->
<g id="node4" class="node"><title>Node4</title>
<g id="a_node4"><a xlink:href="run_8c.html" target="_top" xlink:title="iterates over timesteps, main loop ">
<polygon fill="white" stroke="black" points="116,-0.5 116,-19.5 154,-19.5 154,-0.5 116,-0.5"/>
<text text-anchor="middle" x="135" y="-7.5" font-family="Helvetica,sans-Serif" font-size="10.00">run.c</text>
</a>
</g>
</g>
<!-- Node1&#45;&gt;Node4 -->
<g id="edge3" class="edge"><title>Node1&#45;&gt;Node4</title>
<path fill="none" stroke="midnightblue" d="M68.7241,-34.8049C84.5369,-28.796 102.605,-21.9302 115.717,-16.9477"/>
<polygon fill="midnightblue" stroke="midnightblue" points="67.3388,-31.587 59.2342,-38.411 69.8253,-38.1305 67.3388,-31.587"/>
</g>
</g>
</svg>
