<?xml version="1.0" encoding="UTF-8" standalone="no"?>
<!DOCTYPE svg PUBLIC "-//W3C//DTD SVG 1.1//EN"
 "http://www.w3.org/Graphics/SVG/1.1/DTD/svg11.dtd">
<!-- Generated by graphviz version 2.50.0 (0)
 -->
<!-- Title: libgadget/blackhole.h Pages: 1 -->
<svg width="569pt" height="84pt"
 viewBox="0.00 0.00 568.50 84.00" xmlns="http://www.w3.org/2000/svg" xmlns:xlink="http://www.w3.org/1999/xlink">
<g id="graph0" class="graph" transform="scale(1 1) rotate(0) translate(4 80)">
<title>libgadget/blackhole.h</title>
<polygon fill="white" stroke="transparent" points="-4,4 -4,-80 564.5,-80 564.5,4 -4,4"/>
<!-- Node1 -->
<g id="node1" class="node">
<title>Node1</title>
<g id="a_node1"><a xlink:title=" ">
<polygon fill="#bfbfbf" stroke="black" points="232.5,-56.5 232.5,-75.5 354.5,-75.5 354.5,-56.5 232.5,-56.5"/>
<text text-anchor="middle" x="293.5" y="-63.5" font-family="Helvetica,sans-Serif" font-size="10.00">libgadget/blackhole.h</text>
</a>
</g>
</g>
<!-- Node2 -->
<g id="node2" class="node">
<title>Node2</title>
<g id="a_node2"><a xlink:href="blackhole_8c.html" target="_top" xlink:title="routines for gas accretion onto black holes, and black hole mergers">
<polygon fill="white" stroke="black" points="0,-0.5 0,-19.5 121,-19.5 121,-0.5 0,-0.5"/>
<text text-anchor="middle" x="60.5" y="-7.5" font-family="Helvetica,sans-Serif" font-size="10.00">libgadget/blackhole.c</text>
</a>
</g>
</g>
<!-- Node1&#45;&gt;Node2 -->
<g id="edge1" class="edge">
<title>Node1&#45;&gt;Node2</title>
<path fill="none" stroke="midnightblue" d="M246.7,-54.15C202.67,-43.95 137.65,-28.88 97.25,-19.52"/>
<polygon fill="midnightblue" stroke="midnightblue" points="246.05,-57.6 256.58,-56.44 247.63,-50.78 246.05,-57.6"/>
</g>
<!-- Node3 -->
<g id="node3" class="node">
<title>Node3</title>
<g id="a_node3"><a xlink:href="drift_8c.html" target="_top" xlink:title=" ">
<polygon fill="white" stroke="black" points="139,-0.5 139,-19.5 232,-19.5 232,-0.5 139,-0.5"/>
<text text-anchor="middle" x="185.5" y="-7.5" font-family="Helvetica,sans-Serif" font-size="10.00">libgadget/drift.c</text>
</a>
</g>
</g>
<!-- Node1&#45;&gt;Node3 -->
<g id="edge2" class="edge">
<title>Node1&#45;&gt;Node3</title>
<path fill="none" stroke="midnightblue" d="M266.95,-51.73C246.95,-41.73 220.11,-28.31 202.81,-19.65"/>
<polygon fill="midnightblue" stroke="midnightblue" points="265.64,-54.98 276.15,-56.32 268.77,-48.72 265.64,-54.98"/>
</g>
<!-- Node4 -->
<g id="node4" class="node">
<title>Node4</title>
<g id="a_node4"><a xlink:href="fof_8c.html" target="_top" xlink:title="parallel FoF group finder">
<polygon fill="white" stroke="black" points="250.5,-0.5 250.5,-19.5 336.5,-19.5 336.5,-0.5 250.5,-0.5"/>
<text text-anchor="middle" x="293.5" y="-7.5" font-family="Helvetica,sans-Serif" font-size="10.00">libgadget/fof.c</text>
</a>
</g>
</g>
<!-- Node1&#45;&gt;Node4 -->
<g id="edge3" class="edge">
<title>Node1&#45;&gt;Node4</title>
<path fill="none" stroke="midnightblue" d="M293.5,-45.8C293.5,-36.91 293.5,-26.78 293.5,-19.75"/>
<polygon fill="midnightblue" stroke="midnightblue" points="290,-46.08 293.5,-56.08 297,-46.08 290,-46.08"/>
</g>
<!-- Node5 -->
<g id="node5" class="node">
<title>Node5</title>
<g id="a_node5"><a xlink:href="run_8c.html" target="_top" xlink:title="iterates over timesteps, main loop">
<polygon fill="white" stroke="black" points="355,-0.5 355,-19.5 444,-19.5 444,-0.5 355,-0.5"/>
<text text-anchor="middle" x="399.5" y="-7.5" font-family="Helvetica,sans-Serif" font-size="10.00">libgadget/run.c</text>
</a>
</g>
</g>
<!-- Node1&#45;&gt;Node5 -->
<g id="edge4" class="edge">
<title>Node1&#45;&gt;Node5</title>
<path fill="none" stroke="midnightblue" d="M319.56,-51.73C339.18,-41.73 365.53,-28.31 382.51,-19.65"/>
<polygon fill="midnightblue" stroke="midnightblue" points="317.85,-48.67 310.53,-56.32 321.03,-54.9 317.85,-48.67"/>
</g>
<!-- Node6 -->
<g id="node6" class="node">
<title>Node6</title>
<g id="a_node6"><a xlink:href="gadget_2params_8c.html" target="_top" xlink:title=" ">
<polygon fill="white" stroke="black" points="462.5,-0.5 462.5,-19.5 560.5,-19.5 560.5,-0.5 462.5,-0.5"/>
<text text-anchor="middle" x="511.5" y="-7.5" font-family="Helvetica,sans-Serif" font-size="10.00">gadget/params.c</text>
</a>
</g>
</g>
<!-- Node1&#45;&gt;Node6 -->
<g id="edge5" class="edge">
<title>Node1&#45;&gt;Node6</title>
<path fill="none" stroke="midnightblue" d="M337.81,-54.02C378.99,-43.82 439.47,-28.84 477.12,-19.52"/>
<polygon fill="midnightblue" stroke="midnightblue" points="336.91,-50.64 328.04,-56.44 338.59,-57.44 336.91,-50.64"/>
</g>
</g>
</svg>
