<?xml version="1.0" encoding="UTF-8" standalone="no"?>
<!DOCTYPE svg PUBLIC "-//W3C//DTD SVG 1.1//EN"
 "http://www.w3.org/Graphics/SVG/1.1/DTD/svg11.dtd">
<!-- Generated by graphviz version 2.38.0 (20140413.2041)
 -->
<!-- Title: AbundanceRatios Pages: 1 -->
<svg width="718pt" height="132pt"
 viewBox="0.00 0.00 718.00 131.72" xmlns="http://www.w3.org/2000/svg" xmlns:xlink="http://www.w3.org/1999/xlink">
<g id="graph0" class="graph" transform="scale(1 1) rotate(0) translate(4 127.721)">
<title>AbundanceRatios</title>
<polygon fill="white" stroke="none" points="-4,4 -4,-127.721 714,-127.721 714,4 -4,4"/>
<!-- Node0 -->
<g id="node1" class="node"><title>Node0</title>
<polygon fill="#bfbfbf" stroke="black" points="0,-60.5 0,-79.5 94,-79.5 94,-60.5 0,-60.5"/>
<text text-anchor="middle" x="47" y="-67.5" font-family="Helvetica,sans-Serif" font-size="10.00">AbundanceRatios</text>
</g>
<!-- Node1 -->
<g id="node2" class="node"><title>Node1</title>
<g id="a_node2"><a xlink:href="cooling_8c.html#ab11b943f8d84fd82d32d840e76bacbdc" target="_top" xlink:title="solve_equilibrium_temp">
<polygon fill="white" stroke="black" points="130,-60.5 130,-79.5 249,-79.5 249,-60.5 130,-60.5"/>
<text text-anchor="middle" x="189.5" y="-67.5" font-family="Helvetica,sans-Serif" font-size="10.00">solve_equilibrium_temp</text>
</a>
</g>
</g>
<!-- Node0&#45;&gt;Node1 -->
<g id="edge1" class="edge"><title>Node0&#45;&gt;Node1</title>
<path fill="none" stroke="midnightblue" d="M94.005,-70C102.231,-70 110.962,-70 119.664,-70"/>
<polygon fill="midnightblue" stroke="midnightblue" points="119.834,-73.5001 129.834,-70 119.834,-66.5001 119.834,-73.5001"/>
</g>
<!-- Node2 -->
<g id="node3" class="node"><title>Node2</title>
<g id="a_node3"><a xlink:href="cooling_8c.html#afbf748e353386bc7c718b8f000ea5dbf" target="_top" xlink:title="find_abundances_and\l_rates">
<polygon fill="white" stroke="black" points="285,-77 285,-107 396,-107 396,-77 285,-77"/>
<text text-anchor="start" x="293" y="-95" font-family="Helvetica,sans-Serif" font-size="10.00">find_abundances_and</text>
<text text-anchor="middle" x="340.5" y="-84" font-family="Helvetica,sans-Serif" font-size="10.00">_rates</text>
</a>
</g>
</g>
<!-- Node1&#45;&gt;Node2 -->
<g id="edge2" class="edge"><title>Node1&#45;&gt;Node2</title>
<path fill="none" stroke="midnightblue" d="M249.389,-78.695C257.716,-79.9246 266.316,-81.1944 274.747,-82.4392"/>
<polygon fill="midnightblue" stroke="midnightblue" points="274.513,-85.9424 284.917,-83.9407 275.535,-79.0175 274.513,-85.9424"/>
</g>
<!-- Node3 -->
<g id="node4" class="node"><title>Node3</title>
<g id="a_node4"><a xlink:href="endrun_8c.html#a6567cd867c5549fb6586e19ccd819764" target="_top" xlink:title="message">
<polygon fill="white" stroke="black" points="432,-101.5 432,-120.5 488,-120.5 488,-101.5 432,-101.5"/>
<text text-anchor="middle" x="460" y="-108.5" font-family="Helvetica,sans-Serif" font-size="10.00">message</text>
</a>
</g>
</g>
<!-- Node1&#45;&gt;Node3 -->
<g id="edge10" class="edge"><title>Node1&#45;&gt;Node3</title>
<path fill="none" stroke="midnightblue" d="M204.437,-79.5318C222.207,-91.0529 254.319,-109.792 285,-117 331.198,-127.854 386.176,-123.138 421.788,-117.867"/>
<polygon fill="midnightblue" stroke="midnightblue" points="422.405,-121.314 431.742,-116.305 421.32,-114.398 422.405,-121.314"/>
</g>
<!-- Node7 -->
<g id="node8" class="node"><title>Node7</title>
<g id="a_node8"><a xlink:href="endrun_8c.html#ad963d7efdb9f10f7a2298c8ccd222ab0" target="_top" xlink:title="endrun">
<polygon fill="white" stroke="black" points="437,-63.5 437,-82.5 483,-82.5 483,-63.5 437,-63.5"/>
<text text-anchor="middle" x="460" y="-70.5" font-family="Helvetica,sans-Serif" font-size="10.00">endrun</text>
</a>
</g>
</g>
<!-- Node1&#45;&gt;Node7 -->
<g id="edge11" class="edge"><title>Node1&#45;&gt;Node7</title>
<path fill="none" stroke="midnightblue" d="M249.429,-67.8864C290.525,-66.7896 346.624,-66.0437 396,-68 405.983,-68.3955 416.836,-69.1423 426.676,-69.9405"/>
<polygon fill="midnightblue" stroke="midnightblue" points="426.605,-73.4471 436.867,-70.8125 427.202,-66.4726 426.605,-73.4471"/>
</g>
<!-- Node8 -->
<g id="node9" class="node"><title>Node8</title>
<g id="a_node9"><a xlink:href="allvars_8h.html#a320153e129e2fe4833e5b43935499d3e" target="_top" xlink:title="DMAX">
<polygon fill="white" stroke="black" points="317.5,-0.5 317.5,-19.5 363.5,-19.5 363.5,-0.5 317.5,-0.5"/>
<text text-anchor="middle" x="340.5" y="-7.5" font-family="Helvetica,sans-Serif" font-size="10.00">DMAX</text>
</a>
</g>
</g>
<!-- Node1&#45;&gt;Node8 -->
<g id="edge9" class="edge"><title>Node1&#45;&gt;Node8</title>
<path fill="none" stroke="midnightblue" d="M214.109,-60.4928C239.507,-50.2655 280.02,-33.9516 308.093,-22.6473"/>
<polygon fill="midnightblue" stroke="midnightblue" points="309.489,-25.858 317.458,-18.8759 306.875,-19.3647 309.489,-25.858"/>
</g>
<!-- Node2&#45;&gt;Node3 -->
<g id="edge3" class="edge"><title>Node2&#45;&gt;Node3</title>
<path fill="none" stroke="midnightblue" d="M396.122,-100.833C404.803,-102.236 413.604,-103.659 421.763,-104.979"/>
<polygon fill="midnightblue" stroke="midnightblue" points="421.266,-108.444 431.697,-106.585 422.384,-101.534 421.266,-108.444"/>
</g>
<!-- Node2&#45;&gt;Node7 -->
<g id="edge7" class="edge"><title>Node2&#45;&gt;Node7</title>
<path fill="none" stroke="midnightblue" d="M396.122,-83.1675C406.573,-81.4776 417.198,-79.7595 426.667,-78.2283"/>
<polygon fill="midnightblue" stroke="midnightblue" points="427.483,-81.642 436.796,-76.5905 426.365,-74.7318 427.483,-81.642"/>
</g>
<!-- Node4 -->
<g id="node5" class="node"><title>Node4</title>
<g id="a_node5"><a xlink:href="endrun_8c.html#a7267113a7c0a094743bb565eabc695d1" target="_top" xlink:title="messagev">
<polygon fill="white" stroke="black" points="524,-82.5 524,-101.5 586,-101.5 586,-82.5 524,-82.5"/>
<text text-anchor="middle" x="555" y="-89.5" font-family="Helvetica,sans-Serif" font-size="10.00">messagev</text>
</a>
</g>
</g>
<!-- Node3&#45;&gt;Node4 -->
<g id="edge4" class="edge"><title>Node3&#45;&gt;Node4</title>
<path fill="none" stroke="midnightblue" d="M488.4,-105.402C496.41,-103.766 505.336,-101.942 513.959,-100.18"/>
<polygon fill="midnightblue" stroke="midnightblue" points="514.773,-103.587 523.87,-98.1556 513.372,-96.7282 514.773,-103.587"/>
</g>
<!-- Node5 -->
<g id="node6" class="node"><title>Node5</title>
<g id="a_node6"><a xlink:href="endrun_8c.html#a87108946670b4c3afbe846c6726675ff" target="_top" xlink:title="putline">
<polygon fill="white" stroke="black" points="643.5,-101.5 643.5,-120.5 688.5,-120.5 688.5,-101.5 643.5,-101.5"/>
<text text-anchor="middle" x="666" y="-108.5" font-family="Helvetica,sans-Serif" font-size="10.00">putline</text>
</a>
</g>
</g>
<!-- Node4&#45;&gt;Node5 -->
<g id="edge5" class="edge"><title>Node4&#45;&gt;Node5</title>
<path fill="none" stroke="midnightblue" d="M586.073,-97.2421C600.677,-99.7877 618.231,-102.848 633.072,-105.435"/>
<polygon fill="midnightblue" stroke="midnightblue" points="632.866,-108.951 643.318,-107.221 634.068,-102.055 632.866,-108.951"/>
</g>
<!-- Node6 -->
<g id="node7" class="node"><title>Node6</title>
<g id="a_node7"><a xlink:href="endrun_8c.html#a1200f02a595ab7cbe17c9e36ff32af0f" target="_top" xlink:title="show_backtrace">
<polygon fill="white" stroke="black" points="622,-63.5 622,-82.5 710,-82.5 710,-63.5 622,-63.5"/>
<text text-anchor="middle" x="666" y="-70.5" font-family="Helvetica,sans-Serif" font-size="10.00">show_backtrace</text>
</a>
</g>
</g>
<!-- Node4&#45;&gt;Node6 -->
<g id="edge6" class="edge"><title>Node4&#45;&gt;Node6</title>
<path fill="none" stroke="midnightblue" d="M586.073,-86.7579C594.131,-85.3533 603.087,-83.7921 611.991,-82.2402"/>
<polygon fill="midnightblue" stroke="midnightblue" points="612.719,-85.6661 621.969,-80.5008 611.517,-78.7701 612.719,-85.6661"/>
</g>
<!-- Node7&#45;&gt;Node4 -->
<g id="edge8" class="edge"><title>Node7&#45;&gt;Node4</title>
<path fill="none" stroke="midnightblue" d="M483.04,-77.5027C492.239,-79.3822 503.224,-81.6264 513.77,-83.781"/>
<polygon fill="midnightblue" stroke="midnightblue" points="513.177,-87.232 523.675,-85.8046 514.578,-80.3737 513.177,-87.232"/>
</g>
</g>
</svg>
