<?xml version="1.0" encoding="UTF-8" standalone="no"?>
<!DOCTYPE svg PUBLIC "-//W3C//DTD SVG 1.1//EN"
 "http://www.w3.org/Graphics/SVG/1.1/DTD/svg11.dtd">
<!-- Generated by graphviz version 2.38.0 (20140413.2041)
 -->
<!-- Title: IonizeParamsTable Pages: 1 -->
<svg width="988pt" height="142pt"
 viewBox="0.00 0.00 988.00 142.00" xmlns="http://www.w3.org/2000/svg" xmlns:xlink="http://www.w3.org/1999/xlink">
<g id="graph0" class="graph" transform="scale(1 1) rotate(0) translate(4 138)">
<title>IonizeParamsTable</title>
<polygon fill="white" stroke="none" points="-4,4 -4,-138 984,-138 984,4 -4,4"/>
<!-- Node283 -->
<g id="node1" class="node"><title>Node283</title>
<polygon fill="#bfbfbf" stroke="black" points="0,-57.5 0,-76.5 101,-76.5 101,-57.5 0,-57.5"/>
<text text-anchor="middle" x="50.5" y="-64.5" font-family="Helvetica,sans-Serif" font-size="10.00">IonizeParamsTable</text>
</g>
<!-- Node284 -->
<g id="node2" class="node"><title>Node284</title>
<g id="a_node2"><a xlink:href="cooling_8h.html#a3726675e0d696430fe9d252ade9c46dd" target="_top" xlink:title="IonizeParams">
<polygon fill="white" stroke="black" points="137,-57.5 137,-76.5 214,-76.5 214,-57.5 137,-57.5"/>
<text text-anchor="middle" x="175.5" y="-64.5" font-family="Helvetica,sans-Serif" font-size="10.00">IonizeParams</text>
</a>
</g>
</g>
<!-- Node283&#45;&gt;Node284 -->
<g id="edge1" class="edge"><title>Node283&#45;&gt;Node284</title>
<path fill="none" stroke="midnightblue" d="M111.291,-67C119.963,-67 128.679,-67 136.751,-67"/>
<polygon fill="midnightblue" stroke="midnightblue" points="111.174,-63.5001 101.174,-67 111.174,-70.5001 111.174,-63.5001"/>
</g>
<!-- Node285 -->
<g id="node3" class="node"><title>Node285</title>
<g id="a_node3"><a xlink:href="MakePrimordialCoolingTable_8c.html#a0ddf1224851353fc92bfbff6f499fa97" target="_top" xlink:title="main">
<polygon fill="white" stroke="black" points="273.5,-76.5 273.5,-95.5 311.5,-95.5 311.5,-76.5 273.5,-76.5"/>
<text text-anchor="middle" x="292.5" y="-83.5" font-family="Helvetica,sans-Serif" font-size="10.00">main</text>
</a>
</g>
</g>
<!-- Node284&#45;&gt;Node285 -->
<g id="edge2" class="edge"><title>Node284&#45;&gt;Node285</title>
<path fill="none" stroke="midnightblue" d="M224.199,-74.8807C241.584,-77.7529 260.2,-80.8287 273.436,-83.0156"/>
<polygon fill="midnightblue" stroke="midnightblue" points="224.592,-71.3983 214.155,-73.2213 223.451,-78.3047 224.592,-71.3983"/>
</g>
<!-- Node286 -->
<g id="node4" class="node"><title>Node286</title>
<g id="a_node4"><a xlink:href="timestep_8h.html#aaebcb31d8cb374d360e1e165df6fe26d" target="_top" xlink:title="set_global_time">
<polygon fill="white" stroke="black" points="250,-38.5 250,-57.5 335,-57.5 335,-38.5 250,-38.5"/>
<text text-anchor="middle" x="292.5" y="-45.5" font-family="Helvetica,sans-Serif" font-size="10.00">set_global_time</text>
</a>
</g>
</g>
<!-- Node284&#45;&gt;Node286 -->
<g id="edge3" class="edge"><title>Node284&#45;&gt;Node286</title>
<path fill="none" stroke="midnightblue" d="M224.285,-59.105C232.75,-57.7065 241.504,-56.2602 249.784,-54.8922"/>
<polygon fill="midnightblue" stroke="midnightblue" points="223.451,-55.6953 214.155,-60.7787 224.592,-62.6017 223.451,-55.6953"/>
</g>
<!-- Node287 -->
<g id="node5" class="node"><title>Node287</title>
<g id="a_node5"><a xlink:href="proto_8h.html#ab080cb20bac2a1a6153a84e8cfd15374" target="_top" xlink:title="init">
<polygon fill="white" stroke="black" points="371,-76.5 371,-95.5 400,-95.5 400,-76.5 371,-76.5"/>
<text text-anchor="middle" x="385.5" y="-83.5" font-family="Helvetica,sans-Serif" font-size="10.00">init</text>
</a>
</g>
</g>
<!-- Node286&#45;&gt;Node287 -->
<g id="edge4" class="edge"><title>Node286&#45;&gt;Node287</title>
<path fill="none" stroke="midnightblue" d="M325.749,-61.4665C341.244,-67.9372 358.986,-75.3459 370.883,-80.3136"/>
<polygon fill="midnightblue" stroke="midnightblue" points="327.04,-58.2127 316.463,-57.589 324.342,-64.6721 327.04,-58.2127"/>
</g>
<!-- Node292 -->
<g id="node10" class="node"><title>Node292</title>
<g id="a_node10"><a xlink:href="run_8c.html#a05e0ffe612d44e6d7f3a9ae5b9df56a2" target="_top" xlink:title="run">
<polygon fill="white" stroke="black" points="950,-57.5 950,-76.5 980,-76.5 980,-57.5 950,-57.5"/>
<text text-anchor="middle" x="965" y="-64.5" font-family="Helvetica,sans-Serif" font-size="10.00">run</text>
</a>
</g>
</g>
<!-- Node286&#45;&gt;Node292 -->
<g id="edge11" class="edge"><title>Node286&#45;&gt;Node292</title>
<path fill="none" stroke="midnightblue" d="M345.574,-48C381.517,-48 430.41,-48 473.5,-48 473.5,-48 473.5,-48 720.5,-48 807.85,-48 912.293,-60.3029 949.758,-65.1087"/>
<polygon fill="midnightblue" stroke="midnightblue" points="345.327,-44.5001 335.327,-48 345.327,-51.5001 345.327,-44.5001"/>
</g>
<!-- Node293 -->
<g id="node11" class="node"><title>Node293</title>
<g id="a_node11"><a xlink:href="sfr__eff_8c.html#a2d96bcfa1a035956535e5840d306744b" target="_top" xlink:title="cooling_direct">
<polygon fill="white" stroke="black" points="436,-0.5 436,-19.5 513,-19.5 513,-0.5 436,-0.5"/>
<text text-anchor="middle" x="474.5" y="-7.5" font-family="Helvetica,sans-Serif" font-size="10.00">cooling_direct</text>
</a>
</g>
</g>
<!-- Node286&#45;&gt;Node293 -->
<g id="edge12" class="edge"><title>Node286&#45;&gt;Node293</title>
<path fill="none" stroke="midnightblue" d="M345.199,-37.0857C374.173,-30.9691 409.656,-23.4781 435.958,-17.9256"/>
<polygon fill="midnightblue" stroke="midnightblue" points="344.309,-33.6963 335.248,-39.1865 345.755,-40.5454 344.309,-33.6963"/>
</g>
<!-- Node288 -->
<g id="node6" class="node"><title>Node288</title>
<g id="a_node6"><a xlink:href="proto_8h.html#a74dc0e5e9eefe11fc8434b62de573146" target="_top" xlink:title="begrun">
<polygon fill="white" stroke="black" points="451.5,-76.5 451.5,-95.5 497.5,-95.5 497.5,-76.5 451.5,-76.5"/>
<text text-anchor="middle" x="474.5" y="-83.5" font-family="Helvetica,sans-Serif" font-size="10.00">begrun</text>
</a>
</g>
</g>
<!-- Node287&#45;&gt;Node288 -->
<g id="edge5" class="edge"><title>Node287&#45;&gt;Node288</title>
<path fill="none" stroke="midnightblue" d="M410.411,-86C423.15,-86 438.722,-86 451.208,-86"/>
<polygon fill="midnightblue" stroke="midnightblue" points="410.094,-82.5001 400.094,-86 410.094,-89.5001 410.094,-82.5001"/>
</g>
<!-- Node289 -->
<g id="node7" class="node"><title>Node289</title>
<g id="a_node7"><a xlink:href="main_8c.html#a3c04138a5bfe5d72780bb7e82a18e627" target="_top" xlink:title="main">
<polygon fill="white" stroke="black" points="576.5,-76.5 576.5,-95.5 614.5,-95.5 614.5,-76.5 576.5,-76.5"/>
<text text-anchor="middle" x="595.5" y="-83.5" font-family="Helvetica,sans-Serif" font-size="10.00">main</text>
</a>
</g>
</g>
<!-- Node288&#45;&gt;Node289 -->
<g id="edge6" class="edge"><title>Node288&#45;&gt;Node289</title>
<path fill="none" stroke="midnightblue" d="M507.842,-86C529.879,-86 558.245,-86 576.405,-86"/>
<polygon fill="midnightblue" stroke="midnightblue" points="507.604,-82.5001 497.604,-86 507.604,-89.5001 507.604,-82.5001"/>
</g>
<!-- Node290 -->
<g id="node8" class="node"><title>Node290</title>
<g id="a_node8"><a xlink:href="walltime_8h.html#a76d2135b612766d4d665748454b879d6" target="_top" xlink:title="walltime_report">
<polygon fill="white" stroke="black" points="678,-114.5 678,-133.5 761,-133.5 761,-114.5 678,-114.5"/>
<text text-anchor="middle" x="719.5" y="-121.5" font-family="Helvetica,sans-Serif" font-size="10.00">walltime_report</text>
</a>
</g>
</g>
<!-- Node289&#45;&gt;Node290 -->
<g id="edge7" class="edge"><title>Node289&#45;&gt;Node290</title>
<path fill="none" stroke="midnightblue" d="M624.287,-94.655C643.164,-100.535 668.145,-108.316 687.64,-114.388"/>
<polygon fill="midnightblue" stroke="midnightblue" points="625.09,-91.2393 614.502,-91.607 623.008,-97.9226 625.09,-91.2393"/>
</g>
<!-- Node291 -->
<g id="node9" class="node"><title>Node291</title>
<g id="a_node9"><a xlink:href="run_8c.html#adc59e9ee1517e4e690694a64ab6a59d2" target="_top" xlink:title="write_cpu_log">
<polygon fill="white" stroke="black" points="817,-114.5 817,-133.5 894,-133.5 894,-114.5 817,-114.5"/>
<text text-anchor="middle" x="855.5" y="-121.5" font-family="Helvetica,sans-Serif" font-size="10.00">write_cpu_log</text>
</a>
</g>
</g>
<!-- Node290&#45;&gt;Node291 -->
<g id="edge8" class="edge"><title>Node290&#45;&gt;Node291</title>
<path fill="none" stroke="midnightblue" d="M771.303,-124C786.415,-124 802.697,-124 816.816,-124"/>
<polygon fill="midnightblue" stroke="midnightblue" points="771.068,-120.5 761.068,-124 771.068,-127.5 771.068,-120.5"/>
</g>
<!-- Node291&#45;&gt;Node292 -->
<g id="edge9" class="edge"><title>Node291&#45;&gt;Node292</title>
<path fill="none" stroke="midnightblue" d="M891.49,-110.632C899.038,-107.407 906.884,-103.79 914,-100 927.035,-93.0572 940.994,-83.6632 950.84,-76.6735"/>
<polygon fill="midnightblue" stroke="midnightblue" points="890.068,-107.432 882.165,-114.488 892.744,-113.9 890.068,-107.432"/>
</g>
<!-- Node292&#45;&gt;Node289 -->
<g id="edge10" class="edge"><title>Node292&#45;&gt;Node289</title>
<path fill="none" stroke="midnightblue" d="M939.469,-68.2683C870.396,-71.8394 675.364,-81.9227 614.724,-85.0578"/>
<polygon fill="midnightblue" stroke="midnightblue" points="939.983,-71.7465 949.789,-67.7347 939.622,-64.7558 939.983,-71.7465"/>
</g>
<!-- Node294 -->
<g id="node12" class="node"><title>Node294</title>
<g id="a_node12"><a xlink:href="sfr__eff_8c.html#aec2d4b18a02ca0bbca8111e41fae0248" target="_top" xlink:title="cool_postprocess">
<polygon fill="white" stroke="black" points="549,-0.5 549,-19.5 642,-19.5 642,-0.5 549,-0.5"/>
<text text-anchor="middle" x="595.5" y="-7.5" font-family="Helvetica,sans-Serif" font-size="10.00">cool_postprocess</text>
</a>
</g>
</g>
<!-- Node293&#45;&gt;Node294 -->
<g id="edge13" class="edge"><title>Node293&#45;&gt;Node294</title>
<path fill="none" stroke="midnightblue" d="M523.213,-10C531.633,-10 540.382,-10 548.747,-10"/>
<polygon fill="midnightblue" stroke="midnightblue" points="523.152,-6.5001 513.152,-10 523.152,-13.5001 523.152,-6.5001"/>
</g>
<!-- Node295 -->
<g id="node13" class="node"><title>Node295</title>
<g id="a_node13"><a xlink:href="sfr__eff_8h.html#aaa7b178a168a5d23b2cfe478ebc58ee1" target="_top" xlink:title="cooling_only">
<polygon fill="white" stroke="black" points="684,-0.5 684,-19.5 755,-19.5 755,-0.5 684,-0.5"/>
<text text-anchor="middle" x="719.5" y="-7.5" font-family="Helvetica,sans-Serif" font-size="10.00">cooling_only</text>
</a>
</g>
</g>
<!-- Node294&#45;&gt;Node295 -->
<g id="edge14" class="edge"><title>Node294&#45;&gt;Node295</title>
<path fill="none" stroke="midnightblue" d="M652.449,-10C663.172,-10 674.105,-10 683.909,-10"/>
<polygon fill="midnightblue" stroke="midnightblue" points="652.275,-6.5001 642.275,-10 652.275,-13.5001 652.275,-6.5001"/>
</g>
<!-- Node296 -->
<g id="node14" class="node"><title>Node296</title>
<g id="a_node14"><a xlink:href="run_8c.html#abb80d08f4d52f4a7bdf28d1cecfead5b" target="_top" xlink:title="compute_accelerations">
<polygon fill="white" stroke="black" points="797,-0.5 797,-19.5 914,-19.5 914,-0.5 797,-0.5"/>
<text text-anchor="middle" x="855.5" y="-7.5" font-family="Helvetica,sans-Serif" font-size="10.00">compute_accelerations</text>
</a>
</g>
</g>
<!-- Node295&#45;&gt;Node296 -->
<g id="edge15" class="edge"><title>Node295&#45;&gt;Node296</title>
<path fill="none" stroke="midnightblue" d="M765.275,-10C775.437,-10 786.369,-10 796.978,-10"/>
<polygon fill="midnightblue" stroke="midnightblue" points="765.008,-6.5001 755.008,-10 765.008,-13.5001 765.008,-6.5001"/>
</g>
<!-- Node296&#45;&gt;Node292 -->
<g id="edge16" class="edge"><title>Node296&#45;&gt;Node292</title>
<path fill="none" stroke="midnightblue" d="M891.49,-23.3685C899.038,-26.5926 906.884,-30.21 914,-34 927.035,-40.9428 940.994,-50.3368 950.84,-57.3265"/>
<polygon fill="midnightblue" stroke="midnightblue" points="892.744,-20.0997 882.165,-19.5116 890.068,-26.5682 892.744,-20.0997"/>
</g>
</g>
</svg>
