<?xml version="1.0" encoding="UTF-8" standalone="no"?>
<!DOCTYPE svg PUBLIC "-//W3C//DTD SVG 1.1//EN"
 "http://www.w3.org/Graphics/SVG/1.1/DTD/svg11.dtd">
<!-- Generated by graphviz version 2.50.0 (0)
 -->
<!-- Title: get_heatingcooling_rate Pages: 1 -->
<svg width="785pt" height="962pt"
 viewBox="0.00 0.00 785.00 962.00" xmlns="http://www.w3.org/2000/svg" xmlns:xlink="http://www.w3.org/1999/xlink">
<g id="graph0" class="graph" transform="scale(1 1) rotate(0) translate(4 958)">
<title>get_heatingcooling_rate</title>
<polygon fill="white" stroke="transparent" points="-4,4 -4,-958 781,-958 781,4 -4,4"/>
<!-- Node1 -->
<g id="node1" class="node">
<title>Node1</title>
<g id="a_node1"><a xlink:title=" ">
<polygon fill="#bfbfbf" stroke="black" points="0,-450.5 0,-469.5 134,-469.5 134,-450.5 0,-450.5"/>
<text text-anchor="middle" x="67" y="-457.5" font-family="Helvetica,sans-Serif" font-size="10.00">get_heatingcooling_rate</text>
</a>
</g>
</g>
<!-- Node2 -->
<g id="node2" class="node">
<title>Node2</title>
<g id="a_node2"><a xlink:href="cooling__rates_8c.html#a91f4218c7bbe44b113290f3d33dbe6a3" target="_top" xlink:title=" ">
<polygon fill="white" stroke="black" points="181,-744.5 181,-763.5 288,-763.5 288,-744.5 181,-744.5"/>
<text text-anchor="middle" x="234.5" y="-751.5" font-family="Helvetica,sans-Serif" font-size="10.00">cool_CollisionalH0</text>
</a>
</g>
</g>
<!-- Node1&#45;&gt;Node2 -->
<g id="edge1" class="edge">
<title>Node1&#45;&gt;Node2</title>
<path fill="none" stroke="midnightblue" d="M69.28,-469.56C74.66,-506.47 98.63,-641.57 170,-721 177.04,-728.83 186.38,-735.09 195.72,-739.97"/>
<polygon fill="midnightblue" stroke="midnightblue" points="194.45,-743.24 204.98,-744.39 197.46,-736.92 194.45,-743.24"/>
</g>
<!-- Node12 -->
<g id="node7" class="node">
<title>Node12</title>
<g id="a_node7"><a xlink:href="cooling__rates_8c.html#a505668e05dea8eb4ef19d1a1a4d2c6a0" target="_top" xlink:title=" ">
<polygon fill="white" stroke="black" points="178,-896.5 178,-915.5 291,-915.5 291,-896.5 178,-896.5"/>
<text text-anchor="middle" x="234.5" y="-903.5" font-family="Helvetica,sans-Serif" font-size="10.00">cool_CollisionalHe0</text>
</a>
</g>
</g>
<!-- Node1&#45;&gt;Node12 -->
<g id="edge6" class="edge">
<title>Node1&#45;&gt;Node12</title>
<path fill="none" stroke="midnightblue" d="M68.51,-469.53C71.32,-515.15 88,-714.6 170,-849 180.06,-865.49 196.36,-879.98 209.92,-890.22"/>
<polygon fill="midnightblue" stroke="midnightblue" points="208.19,-893.29 218.34,-896.31 212.29,-887.61 208.19,-893.29"/>
</g>
<!-- Node16 -->
<g id="node11" class="node">
<title>Node16</title>
<g id="a_node11"><a xlink:href="cooling__rates_8c.html#abc1474dde5a2e416ed6796f28b16ff70" target="_top" xlink:title=" ">
<polygon fill="white" stroke="black" points="178,-820.5 178,-839.5 291,-839.5 291,-820.5 178,-820.5"/>
<text text-anchor="middle" x="234.5" y="-827.5" font-family="Helvetica,sans-Serif" font-size="10.00">cool_CollisionalHeP</text>
</a>
</g>
</g>
<!-- Node1&#45;&gt;Node16 -->
<g id="edge11" class="edge">
<title>Node1&#45;&gt;Node16</title>
<path fill="none" stroke="midnightblue" d="M69.29,-469.74C75.02,-510.08 100.92,-666.91 170,-773 180.61,-789.29 197.03,-803.86 210.52,-814.19"/>
<polygon fill="midnightblue" stroke="midnightblue" points="208.74,-817.23 218.86,-820.34 212.89,-811.59 208.74,-817.23"/>
</g>
<!-- Node20 -->
<g id="node14" class="node">
<title>Node20</title>
<g id="a_node14"><a xlink:href="cooling__rates_8c.html#a0d677086155cb51baab0e974c43a670d" target="_top" xlink:title=" ">
<polygon fill="white" stroke="black" points="364.5,-507.5 364.5,-526.5 448.5,-526.5 448.5,-507.5 364.5,-507.5"/>
<text text-anchor="middle" x="406.5" y="-514.5" font-family="Helvetica,sans-Serif" font-size="10.00">cool_FreeFree</text>
</a>
</g>
</g>
<!-- Node1&#45;&gt;Node20 -->
<g id="edge15" class="edge">
<title>Node1&#45;&gt;Node20</title>
<path fill="none" stroke="midnightblue" d="M117.76,-469.52C134.36,-472.63 152.96,-476.04 170,-479 233.29,-490 306.35,-501.62 354.1,-509.07"/>
<polygon fill="midnightblue" stroke="midnightblue" points="353.76,-512.56 364.18,-510.64 354.84,-505.65 353.76,-512.56"/>
</g>
<!-- Node21 -->
<g id="node15" class="node">
<title>Node21</title>
<g id="a_node15"><a xlink:href="cooling__rates_8c.html#a58d19bd7da94095b5e1014ae6ff1cdd1" target="_top" xlink:title=" ">
<polygon fill="white" stroke="black" points="189.5,-526.5 189.5,-545.5 279.5,-545.5 279.5,-526.5 189.5,-526.5"/>
<text text-anchor="middle" x="234.5" y="-533.5" font-family="Helvetica,sans-Serif" font-size="10.00">cool_FreeFree1</text>
</a>
</g>
</g>
<!-- Node1&#45;&gt;Node21 -->
<g id="edge16" class="edge">
<title>Node1&#45;&gt;Node21</title>
<path fill="none" stroke="midnightblue" d="M85.41,-469.62C105.49,-480.54 139.64,-498.57 170,-512 178.63,-515.82 188.07,-519.59 196.97,-522.98"/>
<polygon fill="midnightblue" stroke="midnightblue" points="195.76,-526.26 206.35,-526.49 198.21,-519.71 195.76,-526.26"/>
</g>
<!-- Node22 -->
<g id="node16" class="node">
<title>Node22</title>
<g id="a_node16"><a xlink:href="cooling__rates_8c.html#ab832ac86b46693520c2e624e78ae5b6f" target="_top" xlink:title=" ">
<polygon fill="white" stroke="black" points="175.5,-450.5 175.5,-469.5 293.5,-469.5 293.5,-450.5 175.5,-450.5"/>
<text text-anchor="middle" x="234.5" y="-457.5" font-family="Helvetica,sans-Serif" font-size="10.00">cool_he_reion_factor</text>
</a>
</g>
</g>
<!-- Node1&#45;&gt;Node22 -->
<g id="edge18" class="edge">
<title>Node1&#45;&gt;Node22</title>
<path fill="none" stroke="midnightblue" d="M134.36,-460C144.55,-460 155.08,-460 165.3,-460"/>
<polygon fill="midnightblue" stroke="midnightblue" points="165.4,-463.5 175.4,-460 165.4,-456.5 165.4,-463.5"/>
</g>
<!-- Node23 -->
<g id="node17" class="node">
<title>Node23</title>
<g id="a_node17"><a xlink:href="cooling__rates_8c.html#a3d5529d2fcb8110e21342e8f68253df9" target="_top" xlink:title=" ">
<polygon fill="white" stroke="black" points="173.5,-412.5 173.5,-431.5 295.5,-431.5 295.5,-412.5 173.5,-412.5"/>
<text text-anchor="middle" x="234.5" y="-419.5" font-family="Helvetica,sans-Serif" font-size="10.00">cool_InverseCompton</text>
</a>
</g>
</g>
<!-- Node1&#45;&gt;Node23 -->
<g id="edge19" class="edge">
<title>Node1&#45;&gt;Node23</title>
<path fill="none" stroke="midnightblue" d="M109.76,-450.41C131.7,-445.37 158.78,-439.16 182.01,-433.82"/>
<polygon fill="midnightblue" stroke="midnightblue" points="183.07,-437.17 192.04,-431.52 181.51,-430.35 183.07,-437.17"/>
</g>
<!-- Node24 -->
<g id="node18" class="node">
<title>Node24</title>
<g id="a_node18"><a xlink:href="cooling__rates_8c.html#a92e49211024227d1d978741626688bfd" target="_top" xlink:title=" ">
<polygon fill="white" stroke="black" points="184,-374.5 184,-393.5 285,-393.5 285,-374.5 184,-374.5"/>
<text text-anchor="middle" x="234.5" y="-381.5" font-family="Helvetica,sans-Serif" font-size="10.00">cool_RecombHeP</text>
</a>
</g>
</g>
<!-- Node1&#45;&gt;Node24 -->
<g id="edge20" class="edge">
<title>Node1&#45;&gt;Node24</title>
<path fill="none" stroke="midnightblue" d="M82.69,-450.43C102.05,-438.14 137.49,-416.75 170,-403 175.43,-400.7 181.23,-398.56 187.04,-396.61"/>
<polygon fill="midnightblue" stroke="midnightblue" points="188.29,-399.89 196.75,-393.51 186.16,-393.22 188.29,-399.89"/>
</g>
<!-- Node30 -->
<g id="node21" class="node">
<title>Node30</title>
<g id="a_node21"><a xlink:href="cooling__rates_8c.html#a71f830d20ef0f24d2dcbe8e4e39f0b0f" target="_top" xlink:title=" ">
<polygon fill="white" stroke="black" points="181,-564.5 181,-583.5 288,-583.5 288,-564.5 181,-564.5"/>
<text text-anchor="middle" x="234.5" y="-571.5" font-family="Helvetica,sans-Serif" font-size="10.00">cool_RecombHePP</text>
</a>
</g>
</g>
<!-- Node1&#45;&gt;Node30 -->
<g id="edge23" class="edge">
<title>Node1&#45;&gt;Node30</title>
<path fill="none" stroke="midnightblue" d="M75.64,-469.62C91.31,-488.7 129.06,-531.54 170,-555 173.87,-557.22 178.02,-559.2 182.28,-560.96"/>
<polygon fill="midnightblue" stroke="midnightblue" points="181.12,-564.26 191.71,-564.49 183.57,-557.71 181.12,-564.26"/>
</g>
<!-- Node33 -->
<g id="node24" class="node">
<title>Node33</title>
<g id="a_node24"><a xlink:href="cooling__rates_8c.html#ac01719643833cfb9d154981b6c3a61ae" target="_top" xlink:title=" ">
<polygon fill="white" stroke="black" points="359,-706.5 359,-725.5 454,-725.5 454,-706.5 359,-706.5"/>
<text text-anchor="middle" x="406.5" y="-713.5" font-family="Helvetica,sans-Serif" font-size="10.00">cool_RecombHp</text>
</a>
</g>
</g>
<!-- Node1&#45;&gt;Node33 -->
<g id="edge26" class="edge">
<title>Node1&#45;&gt;Node33</title>
<path fill="none" stroke="midnightblue" d="M69.63,-469.81C75.8,-503.57 100.94,-615.75 170,-669 221.27,-708.54 297.01,-717.4 348.65,-718.26"/>
<polygon fill="midnightblue" stroke="midnightblue" points="348.94,-721.76 358.97,-718.33 348.99,-714.76 348.94,-721.76"/>
</g>
<!-- Node34 -->
<g id="node25" class="node">
<title>Node34</title>
<g id="a_node25"><a xlink:href="density_8c.html#ac49d34dfc3f4e37cac0953d5bc1417a4" target="_top" xlink:title=" ">
<polygon fill="white" stroke="black" points="380,-339.5 380,-358.5 433,-358.5 433,-339.5 380,-339.5"/>
<text text-anchor="middle" x="406.5" y="-346.5" font-family="Helvetica,sans-Serif" font-size="10.00">density</text>
</a>
</g>
</g>
<!-- Node1&#45;&gt;Node34 -->
<g id="edge28" class="edge">
<title>Node1&#45;&gt;Node34</title>
<path fill="none" stroke="midnightblue" d="M74.79,-450.21C89.43,-429.99 126.26,-383.95 170,-365 235.9,-336.45 321.93,-339.49 369.65,-344.25"/>
<polygon fill="midnightblue" stroke="midnightblue" points="369.48,-347.75 379.8,-345.35 370.23,-340.79 369.48,-347.75"/>
</g>
<!-- Node100 -->
<g id="node41" class="node">
<title>Node100</title>
<g id="a_node41"><a xlink:href="cooling__rates_8c.html#a49fe0aaef8ccce8a7757d95bd7e747bc" target="_top" xlink:title=" ">
<polygon fill="white" stroke="black" points="190.5,-298.5 190.5,-317.5 278.5,-317.5 278.5,-298.5 190.5,-298.5"/>
<text text-anchor="middle" x="234.5" y="-305.5" font-family="Helvetica,sans-Serif" font-size="10.00">get_equilib_ne</text>
</a>
</g>
</g>
<!-- Node1&#45;&gt;Node100 -->
<g id="edge48" class="edge">
<title>Node1&#45;&gt;Node100</title>
<path fill="none" stroke="midnightblue" d="M73.31,-450.18C86.56,-426.55 123.38,-365.97 170,-332 175.63,-327.9 182.05,-324.41 188.59,-321.47"/>
<polygon fill="midnightblue" stroke="midnightblue" points="190.25,-324.57 198.18,-317.55 187.6,-318.09 190.25,-324.57"/>
</g>
<!-- Node102 -->
<g id="node43" class="node">
<title>Node102</title>
<g id="a_node43"><a xlink:href="cooling__rates_8c.html#a625d7f0b6854ceca763e9de5bc363cd6" target="_top" xlink:title=" ">
<polygon fill="white" stroke="black" points="527,-0.5 527,-19.5 633,-19.5 633,-0.5 527,-0.5"/>
<text text-anchor="middle" x="580" y="-7.5" font-family="Helvetica,sans-Serif" font-size="10.00">get_temp_internal</text>
</a>
</g>
</g>
<!-- Node1&#45;&gt;Node102 -->
<g id="edge53" class="edge">
<title>Node1&#45;&gt;Node102</title>
<path fill="none" stroke="midnightblue" d="M71,-450.15C80.45,-420.88 112.37,-333.7 170,-289 217.23,-252.37 244.59,-275.74 299,-251 384.86,-211.96 419.97,-211.35 478,-137 509.13,-97.11 477.56,-64.1 514,-29 515.49,-27.56 517.09,-26.23 518.76,-25"/>
<polygon fill="midnightblue" stroke="midnightblue" points="520.94,-27.78 527.73,-19.65 517.35,-21.77 520.94,-27.78"/>
</g>
<!-- Node105 -->
<g id="node44" class="node">
<title>Node105</title>
<g id="a_node44"><a xlink:href="cooling__rates_8c.html#ad7129e8eda48d01252d3a5c42e309e80" target="_top" xlink:title=" ">
<polygon fill="white" stroke="black" points="337,-592.5 337,-611.5 476,-611.5 476,-592.5 337,-592.5"/>
<text text-anchor="middle" x="406.5" y="-599.5" font-family="Helvetica,sans-Serif" font-size="10.00">get_interpolated_recomb</text>
</a>
</g>
</g>
<!-- Node1&#45;&gt;Node105 -->
<g id="edge52" class="edge">
<title>Node1&#45;&gt;Node105</title>
<path fill="none" stroke="midnightblue" d="M71.9,-469.71C82.83,-495.45 116.5,-565.33 170,-593 225.25,-621.58 297.93,-619.39 347.85,-612.89"/>
<polygon fill="midnightblue" stroke="midnightblue" points="348.42,-616.35 357.84,-611.5 347.45,-609.42 348.42,-616.35"/>
</g>
<!-- Node104 -->
<g id="node45" class="node">
<title>Node104</title>
<g id="a_node45"><a xlink:href="cooling__rates_8c.html#a553119a3fc59a26ee611cd2072906c08" target="_top" xlink:title=" ">
<polygon fill="white" stroke="black" points="195,-640.5 195,-659.5 274,-659.5 274,-640.5 195,-640.5"/>
<text text-anchor="middle" x="234.5" y="-647.5" font-family="Helvetica,sans-Serif" font-size="10.00">nH0_internal</text>
</a>
</g>
</g>
<!-- Node1&#45;&gt;Node104 -->
<g id="edge54" class="edge">
<title>Node1&#45;&gt;Node104</title>
<path fill="none" stroke="midnightblue" d="M71.39,-469.77C81.68,-498.04 115.24,-580.75 170,-626 174.95,-630.09 180.67,-633.52 186.6,-636.4"/>
<polygon fill="midnightblue" stroke="midnightblue" points="185.46,-639.72 196.03,-640.47 188.23,-633.29 185.46,-639.72"/>
</g>
<!-- Node106 -->
<g id="node46" class="node">
<title>Node106</title>
<g id="a_node46"><a xlink:href="cooling__rates_8c.html#a0dc0e1c80c6b75c326084bfea9788659" target="_top" xlink:title=" ">
<polygon fill="white" stroke="black" points="195,-222.5 195,-241.5 274,-241.5 274,-222.5 195,-222.5"/>
<text text-anchor="middle" x="234.5" y="-229.5" font-family="Helvetica,sans-Serif" font-size="10.00">nHe_internal</text>
</a>
</g>
</g>
<!-- Node1&#45;&gt;Node106 -->
<g id="edge58" class="edge">
<title>Node1&#45;&gt;Node106</title>
<path fill="none" stroke="midnightblue" d="M70.15,-450.37C77.81,-418.16 106.8,-313.04 170,-256 174.65,-251.8 180.11,-248.31 185.84,-245.42"/>
<polygon fill="midnightblue" stroke="midnightblue" points="187.27,-248.61 194.98,-241.35 184.42,-242.22 187.27,-248.61"/>
</g>
<!-- Node107 -->
<g id="node47" class="node">
<title>Node107</title>
<g id="a_node47"><a xlink:href="cooling__rates_8c.html#a1b5398b1747c75e8150cd4c5fb1cfc20" target="_top" xlink:title=" ">
<polygon fill="white" stroke="black" points="195,-184.5 195,-203.5 274,-203.5 274,-184.5 195,-184.5"/>
<text text-anchor="middle" x="234.5" y="-191.5" font-family="Helvetica,sans-Serif" font-size="10.00">nHp_internal</text>
</a>
</g>
</g>
<!-- Node1&#45;&gt;Node107 -->
<g id="edge59" class="edge">
<title>Node1&#45;&gt;Node107</title>
<path fill="none" stroke="midnightblue" d="M69.05,-450.28C73.57,-413.46 94.62,-281.13 170,-213 174.43,-209 179.67,-205.83 185.22,-203.34"/>
<polygon fill="midnightblue" stroke="midnightblue" points="186.63,-206.55 194.74,-199.74 184.15,-200 186.63,-206.55"/>
</g>
<!-- Node108 -->
<g id="node48" class="node">
<title>Node108</title>
<g id="a_node48"><a xlink:href="cooling__rates_8c.html#aa32133cf6965b6a3c8cdb5a7d6e7adba" target="_top" xlink:title=" ">
<polygon fill="white" stroke="black" points="188,-146.5 188,-165.5 281,-165.5 281,-146.5 188,-146.5"/>
<text text-anchor="middle" x="234.5" y="-153.5" font-family="Helvetica,sans-Serif" font-size="10.00">self_shield_corr</text>
</a>
</g>
</g>
<!-- Node1&#45;&gt;Node108 -->
<g id="edge60" class="edge">
<title>Node1&#45;&gt;Node108</title>
<path fill="none" stroke="midnightblue" d="M68.46,-450.23C70.87,-409.95 85.54,-255.1 170,-175 172.71,-172.43 175.74,-170.21 178.99,-168.29"/>
<polygon fill="midnightblue" stroke="midnightblue" points="180.54,-171.43 187.96,-163.87 177.45,-165.15 180.54,-171.43"/>
</g>
<!-- Node109 -->
<g id="node49" class="node">
<title>Node109</title>
<g id="a_node49"><a xlink:href="cooling__rates_8h.html#ab473cc86aec6309283e5e5afa80e6123" target="_top" xlink:title=" ">
<polygon fill="white" stroke="black" points="170,-108.5 170,-127.5 299,-127.5 299,-108.5 170,-108.5"/>
<text text-anchor="middle" x="234.5" y="-115.5" font-family="Helvetica,sans-Serif" font-size="10.00">TableMetalCoolingRate</text>
</a>
</g>
</g>
<!-- Node1&#45;&gt;Node109 -->
<g id="edge61" class="edge">
<title>Node1&#45;&gt;Node109</title>
<path fill="none" stroke="midnightblue" d="M67.98,-450.45C68.44,-407.41 76.15,-229.44 170,-137 171.48,-135.55 173.06,-134.2 174.72,-132.96"/>
<polygon fill="midnightblue" stroke="midnightblue" points="176.9,-135.74 183.65,-127.57 173.28,-129.74 176.9,-135.74"/>
</g>
<!-- Node3 -->
<g id="node3" class="node">
<title>Node3</title>
<g id="a_node3"><a xlink:href="cooling__rates_8c.html#a5c931df6cf7a37624a4f5f879a786d79" target="_top" xlink:title=" ">
<polygon fill="white" stroke="black" points="338,-782.5 338,-801.5 475,-801.5 475,-782.5 338,-782.5"/>
<text text-anchor="middle" x="406.5" y="-789.5" font-family="Helvetica,sans-Serif" font-size="10.00">cool_CollisionalExciteH0</text>
</a>
</g>
</g>
<!-- Node2&#45;&gt;Node3 -->
<g id="edge2" class="edge">
<title>Node2&#45;&gt;Node3</title>
<path fill="none" stroke="midnightblue" d="M278.4,-763.59C301.03,-768.65 329,-774.9 352.93,-780.25"/>
<polygon fill="midnightblue" stroke="midnightblue" points="352.39,-783.71 362.91,-782.48 353.91,-776.88 352.39,-783.71"/>
</g>
<!-- Node5 -->
<g id="node5" class="node">
<title>Node5</title>
<g id="a_node5"><a xlink:href="cooling__rates_8c.html#ae7aae39b06d61c98c6a695bc3f7a1c57" target="_top" xlink:title=" ">
<polygon fill="white" stroke="black" points="338.5,-744.5 338.5,-763.5 474.5,-763.5 474.5,-744.5 338.5,-744.5"/>
<text text-anchor="middle" x="406.5" y="-751.5" font-family="Helvetica,sans-Serif" font-size="10.00">cool_CollisionalIonizeH0</text>
</a>
</g>
</g>
<!-- Node2&#45;&gt;Node5 -->
<g id="edge4" class="edge">
<title>Node2&#45;&gt;Node5</title>
<path fill="none" stroke="midnightblue" d="M288.36,-754C300.94,-754 314.62,-754 328.06,-754"/>
<polygon fill="midnightblue" stroke="midnightblue" points="328.25,-757.5 338.25,-754 328.25,-750.5 328.25,-757.5"/>
</g>
<!-- Node4 -->
<g id="node4" class="node">
<title>Node4</title>
<g id="a_node4"><a xlink:href="cooling__rates_8c.html#ab3f67e120c9858bcad81d5cb738b850c" target="_top" xlink:title=" ">
<polygon fill="white" stroke="black" points="564,-858.5 564,-877.5 596,-877.5 596,-858.5 564,-858.5"/>
<text text-anchor="middle" x="580" y="-865.5" font-family="Helvetica,sans-Serif" font-size="10.00">_t5</text>
</a>
</g>
</g>
<!-- Node3&#45;&gt;Node4 -->
<g id="edge3" class="edge">
<title>Node3&#45;&gt;Node4</title>
<path fill="none" stroke="midnightblue" d="M449.83,-801.56C459.25,-804.19 469.08,-807.35 478,-811 505.99,-822.46 535.91,-840.09 555.85,-852.71"/>
<polygon fill="midnightblue" stroke="midnightblue" points="554.22,-855.83 564.53,-858.29 558.01,-849.94 554.22,-855.83"/>
</g>
<!-- Node6 -->
<g id="node6" class="node">
<title>Node6</title>
<g id="a_node6"><a xlink:href="cooling__rates_8c.html#a0f7fe629038f0f72e6d729daaac69b84" target="_top" xlink:title=" ">
<polygon fill="white" stroke="red" points="521.5,-716.5 521.5,-735.5 638.5,-735.5 638.5,-716.5 521.5,-716.5"/>
<text text-anchor="middle" x="580" y="-723.5" font-family="Helvetica,sans-Serif" font-size="10.00">recomb_GammaeH0</text>
</a>
</g>
</g>
<!-- Node5&#45;&gt;Node6 -->
<g id="edge5" class="edge">
<title>Node5&#45;&gt;Node6</title>
<path fill="none" stroke="midnightblue" d="M466.04,-744.44C480.55,-742.07 496.21,-739.52 511.12,-737.08"/>
<polygon fill="midnightblue" stroke="midnightblue" points="512,-740.49 521.3,-735.42 510.87,-733.58 512,-740.49"/>
</g>
<!-- Node13 -->
<g id="node8" class="node">
<title>Node13</title>
<g id="a_node8"><a xlink:href="cooling__rates_8c.html#a38d4d9daba4c7a0f8f3629042b32e053" target="_top" xlink:title=" ">
<polygon fill="white" stroke="black" points="335,-896.5 335,-915.5 478,-915.5 478,-896.5 335,-896.5"/>
<text text-anchor="middle" x="406.5" y="-903.5" font-family="Helvetica,sans-Serif" font-size="10.00">cool_CollisionalExciteHe0</text>
</a>
</g>
</g>
<!-- Node12&#45;&gt;Node13 -->
<g id="edge7" class="edge">
<title>Node12&#45;&gt;Node13</title>
<path fill="none" stroke="midnightblue" d="M291.16,-906C301.84,-906 313.22,-906 324.51,-906"/>
<polygon fill="midnightblue" stroke="midnightblue" points="324.82,-909.5 334.82,-906 324.82,-902.5 324.82,-909.5"/>
</g>
<!-- Node14 -->
<g id="node9" class="node">
<title>Node14</title>
<g id="a_node9"><a xlink:href="cooling__rates_8c.html#af7474c2a079bd580ca605575db213ab7" target="_top" xlink:title=" ">
<polygon fill="white" stroke="black" points="335.5,-934.5 335.5,-953.5 477.5,-953.5 477.5,-934.5 335.5,-934.5"/>
<text text-anchor="middle" x="406.5" y="-941.5" font-family="Helvetica,sans-Serif" font-size="10.00">cool_CollisionalIonizeHe0</text>
</a>
</g>
</g>
<!-- Node12&#45;&gt;Node14 -->
<g id="edge9" class="edge">
<title>Node12&#45;&gt;Node14</title>
<path fill="none" stroke="midnightblue" d="M278.4,-915.59C301.03,-920.65 329,-926.9 352.93,-932.25"/>
<polygon fill="midnightblue" stroke="midnightblue" points="352.39,-935.71 362.91,-934.48 353.91,-928.88 352.39,-935.71"/>
</g>
<!-- Node13&#45;&gt;Node4 -->
<g id="edge8" class="edge">
<title>Node13&#45;&gt;Node4</title>
<path fill="none" stroke="midnightblue" d="M450.78,-896.41C483.36,-889.19 526.9,-879.54 553.93,-873.55"/>
<polygon fill="midnightblue" stroke="midnightblue" points="554.76,-876.96 563.76,-871.38 553.24,-870.12 554.76,-876.96"/>
</g>
<!-- Node15 -->
<g id="node10" class="node">
<title>Node15</title>
<g id="a_node10"><a xlink:href="cooling__rates_8c.html#af836d359d1e89590043df866d2b7659a" target="_top" xlink:title=" ">
<polygon fill="white" stroke="red" points="518.5,-934.5 518.5,-953.5 641.5,-953.5 641.5,-934.5 518.5,-934.5"/>
<text text-anchor="middle" x="580" y="-941.5" font-family="Helvetica,sans-Serif" font-size="10.00">recomb_GammaeHe0</text>
</a>
</g>
</g>
<!-- Node14&#45;&gt;Node15 -->
<g id="edge10" class="edge">
<title>Node14&#45;&gt;Node15</title>
<path fill="none" stroke="midnightblue" d="M477.75,-944C487.88,-944 498.31,-944 508.44,-944"/>
<polygon fill="midnightblue" stroke="midnightblue" points="508.46,-947.5 518.46,-944 508.46,-940.5 508.46,-947.5"/>
</g>
<!-- Node17 -->
<g id="node12" class="node">
<title>Node17</title>
<g id="a_node12"><a xlink:href="cooling__rates_8c.html#a6603d2320fb8a8c220365adf14fca0f1" target="_top" xlink:title=" ">
<polygon fill="white" stroke="black" points="335,-858.5 335,-877.5 478,-877.5 478,-858.5 335,-858.5"/>
<text text-anchor="middle" x="406.5" y="-865.5" font-family="Helvetica,sans-Serif" font-size="10.00">cool_CollisionalExciteHeP</text>
</a>
</g>
</g>
<!-- Node16&#45;&gt;Node17 -->
<g id="edge12" class="edge">
<title>Node16&#45;&gt;Node17</title>
<path fill="none" stroke="midnightblue" d="M278.4,-839.59C301.03,-844.65 329,-850.9 352.93,-856.25"/>
<polygon fill="midnightblue" stroke="midnightblue" points="352.39,-859.71 362.91,-858.48 353.91,-852.88 352.39,-859.71"/>
</g>
<!-- Node18 -->
<g id="node13" class="node">
<title>Node18</title>
<g id="a_node13"><a xlink:href="cooling__rates_8c.html#ac4101d0b14c7a383d0e7d59a9c839ea0" target="_top" xlink:title=" ">
<polygon fill="white" stroke="red" points="335.5,-820.5 335.5,-839.5 477.5,-839.5 477.5,-820.5 335.5,-820.5"/>
<text text-anchor="middle" x="406.5" y="-827.5" font-family="Helvetica,sans-Serif" font-size="10.00">cool_CollisionalIonizeHeP</text>
</a>
</g>
</g>
<!-- Node16&#45;&gt;Node18 -->
<g id="edge14" class="edge">
<title>Node16&#45;&gt;Node18</title>
<path fill="none" stroke="midnightblue" d="M291.16,-830C302.1,-830 313.77,-830 325.33,-830"/>
<polygon fill="midnightblue" stroke="midnightblue" points="325.43,-833.5 335.43,-830 325.43,-826.5 325.43,-833.5"/>
</g>
<!-- Node17&#45;&gt;Node4 -->
<g id="edge13" class="edge">
<title>Node17&#45;&gt;Node4</title>
<path fill="none" stroke="midnightblue" d="M478.25,-868C505.03,-868 533.82,-868 553.74,-868"/>
<polygon fill="midnightblue" stroke="midnightblue" points="553.83,-871.5 563.83,-868 553.83,-864.5 553.83,-871.5"/>
</g>
<!-- Node21&#45;&gt;Node20 -->
<g id="edge17" class="edge">
<title>Node21&#45;&gt;Node20</title>
<path fill="none" stroke="midnightblue" d="M279.72,-531.06C302.52,-528.51 330.44,-525.39 354.18,-522.74"/>
<polygon fill="midnightblue" stroke="midnightblue" points="354.87,-526.18 364.42,-521.59 354.09,-519.22 354.87,-526.18"/>
</g>
<!-- Node25 -->
<g id="node19" class="node">
<title>Node25</title>
<g id="a_node19"><a xlink:href="cooling__rates_8c.html#aae532612ef4581227c75e5c7b9178917" target="_top" xlink:title=" ">
<polygon fill="white" stroke="red" points="348.5,-415.5 348.5,-434.5 464.5,-434.5 464.5,-415.5 348.5,-415.5"/>
<text text-anchor="middle" x="406.5" y="-422.5" font-family="Helvetica,sans-Serif" font-size="10.00">cool_RecombDielect</text>
</a>
</g>
</g>
<!-- Node24&#45;&gt;Node25 -->
<g id="edge21" class="edge">
<title>Node24&#45;&gt;Node25</title>
<path fill="none" stroke="midnightblue" d="M274.93,-393.51C299.09,-399.34 330.22,-406.84 356.02,-413.07"/>
<polygon fill="midnightblue" stroke="midnightblue" points="355.45,-416.53 365.99,-415.47 357.09,-409.72 355.45,-416.53"/>
</g>
<!-- Node27 -->
<g id="node20" class="node">
<title>Node27</title>
<g id="a_node20"><a xlink:href="cooling__rates_8c.html#ae02222d195fadd9353a8714a7205b946" target="_top" xlink:title=" ">
<polygon fill="white" stroke="red" points="354,-377.5 354,-396.5 459,-396.5 459,-377.5 354,-377.5"/>
<text text-anchor="middle" x="406.5" y="-384.5" font-family="Helvetica,sans-Serif" font-size="10.00">recomb_alphaHep</text>
</a>
</g>
</g>
<!-- Node24&#45;&gt;Node27 -->
<g id="edge22" class="edge">
<title>Node24&#45;&gt;Node27</title>
<path fill="none" stroke="midnightblue" d="M285.13,-384.88C303.4,-385.2 324.34,-385.57 343.56,-385.91"/>
<polygon fill="midnightblue" stroke="midnightblue" points="343.68,-389.41 353.74,-386.09 343.8,-382.41 343.68,-389.41"/>
</g>
<!-- Node31 -->
<g id="node22" class="node">
<title>Node31</title>
<g id="a_node22"><a xlink:href="cooling__rates_8c.html#ae08e722fe458659ebb6fc75a878071fb" target="_top" xlink:title=" ">
<polygon fill="white" stroke="red" points="351,-554.5 351,-573.5 462,-573.5 462,-554.5 351,-554.5"/>
<text text-anchor="middle" x="406.5" y="-561.5" font-family="Helvetica,sans-Serif" font-size="10.00">recomb_alphaHepp</text>
</a>
</g>
</g>
<!-- Node30&#45;&gt;Node31 -->
<g id="edge24" class="edge">
<title>Node30&#45;&gt;Node31</title>
<path fill="none" stroke="midnightblue" d="M288.36,-570.89C304.98,-569.91 323.52,-568.82 340.87,-567.8"/>
<polygon fill="midnightblue" stroke="midnightblue" points="341.14,-571.29 350.91,-567.21 340.73,-564.3 341.14,-571.29"/>
</g>
<!-- Node32 -->
<g id="node23" class="node">
<title>Node32</title>
<g id="a_node23"><a xlink:href="cooling__rates_8c.html#a02d09028ebf882b01cb430f9f908fd7a" target="_top" xlink:title=" ">
<polygon fill="white" stroke="red" points="530.5,-643.5 530.5,-662.5 629.5,-662.5 629.5,-643.5 530.5,-643.5"/>
<text text-anchor="middle" x="580" y="-650.5" font-family="Helvetica,sans-Serif" font-size="10.00">recomb_alphaHp</text>
</a>
</g>
</g>
<!-- Node31&#45;&gt;Node32 -->
<g id="edge25" class="edge">
<title>Node31&#45;&gt;Node32</title>
<path fill="none" stroke="midnightblue" d="M459.8,-573.64C466.24,-576.08 472.49,-579.15 478,-583 500.75,-598.89 491.42,-617.87 514,-634 516.73,-635.95 519.65,-637.7 522.7,-639.27"/>
<polygon fill="midnightblue" stroke="midnightblue" points="521.56,-642.59 532.12,-643.47 524.41,-636.2 521.56,-642.59"/>
</g>
<!-- Node33&#45;&gt;Node32 -->
<g id="edge27" class="edge">
<title>Node33&#45;&gt;Node32</title>
<path fill="none" stroke="midnightblue" d="M433.55,-706.43C462.84,-695.67 510.6,-678.13 543.35,-666.1"/>
<polygon fill="midnightblue" stroke="midnightblue" points="544.81,-669.29 552.99,-662.55 542.4,-662.72 544.81,-669.29"/>
</g>
<!-- Node35 -->
<g id="node26" class="node">
<title>Node35</title>
<g id="a_node26"><a xlink:href="density_8c.html#a338ab2cf6c2f52522edb746f04061af9" target="_top" xlink:title=" ">
<polygon fill="white" stroke="black" points="539.5,-605.5 539.5,-624.5 620.5,-624.5 620.5,-605.5 539.5,-605.5"/>
<text text-anchor="middle" x="580" y="-612.5" font-family="Helvetica,sans-Serif" font-size="10.00">density_copy</text>
</a>
</g>
</g>
<!-- Node34&#45;&gt;Node35 -->
<g id="edge29" class="edge">
<title>Node34&#45;&gt;Node35</title>
<path fill="none" stroke="midnightblue" d="M433.23,-349.29C448.42,-350.89 466.82,-355.55 478,-368 546.57,-444.3 446.24,-518.98 514,-596 518.28,-600.87 523.73,-604.52 529.65,-607.25"/>
<polygon fill="midnightblue" stroke="midnightblue" points="528.64,-610.61 539.24,-610.84 531.1,-604.06 528.64,-610.61"/>
</g>
<!-- Node36 -->
<g id="node27" class="node">
<title>Node36</title>
<g id="a_node27"><a xlink:href="density_8c.html#af9776b9b60703f24e380d743918248c3" target="_top" xlink:title=" ">
<polygon fill="white" stroke="black" points="530.5,-567.5 530.5,-586.5 629.5,-586.5 629.5,-567.5 530.5,-567.5"/>
<text text-anchor="middle" x="580" y="-574.5" font-family="Helvetica,sans-Serif" font-size="10.00">density_haswork</text>
</a>
</g>
</g>
<!-- Node34&#45;&gt;Node36 -->
<g id="edge30" class="edge">
<title>Node34&#45;&gt;Node36</title>
<path fill="none" stroke="midnightblue" d="M433.07,-349.44C448.21,-351.09 466.6,-355.76 478,-368 535.09,-429.3 459.74,-489.18 514,-553 517.19,-556.75 521.03,-559.92 525.22,-562.59"/>
<polygon fill="midnightblue" stroke="midnightblue" points="523.76,-565.78 534.23,-567.41 527.06,-559.61 523.76,-565.78"/>
</g>
<!-- Node37 -->
<g id="node28" class="node">
<title>Node37</title>
<g id="a_node28"><a xlink:href="density_8c.html#a146d61fe2d2f53ea9b7fabf2ea5e90b7" target="_top" xlink:title=" ">
<polygon fill="white" stroke="red" points="534,-491.5 534,-510.5 626,-510.5 626,-491.5 534,-491.5"/>
<text text-anchor="middle" x="580" y="-498.5" font-family="Helvetica,sans-Serif" font-size="10.00">density_ngbiter</text>
</a>
</g>
</g>
<!-- Node34&#45;&gt;Node37 -->
<g id="edge31" class="edge">
<title>Node34&#45;&gt;Node37</title>
<path fill="none" stroke="midnightblue" d="M433.22,-350.05C448.03,-351.95 466.03,-356.68 478,-368 515.07,-403.06 478.56,-440.3 514,-477 517.81,-480.95 522.33,-484.25 527.18,-487.01"/>
<polygon fill="midnightblue" stroke="midnightblue" points="525.67,-490.17 536.19,-491.42 528.75,-483.88 525.67,-490.17"/>
</g>
<!-- Node53 -->
<g id="node29" class="node">
<title>Node53</title>
<g id="a_node29"><a xlink:href="timebinmgr_8c.html#a7166c93d068baea59abf2ef8cee3c7aa" target="_top" xlink:title=" ">
<polygon fill="white" stroke="red" points="684.5,-524.5 684.5,-543.5 774.5,-543.5 774.5,-524.5 684.5,-524.5"/>
<text text-anchor="middle" x="729.5" y="-531.5" font-family="Helvetica,sans-Serif" font-size="10.00">dloga_from_dti</text>
</a>
</g>
</g>
<!-- Node34&#45;&gt;Node53 -->
<g id="edge38" class="edge">
<title>Node34&#45;&gt;Node53</title>
<path fill="none" stroke="midnightblue" d="M433.24,-349.64C448.25,-351.38 466.44,-356.08 478,-368 526.33,-417.84 460.98,-475.18 514,-520 560.2,-559.05 633.9,-554.26 681.75,-545.49"/>
<polygon fill="midnightblue" stroke="midnightblue" points="682.7,-548.87 691.84,-543.51 681.35,-542 682.7,-548.87"/>
</g>
<!-- Node56 -->
<g id="node30" class="node">
<title>Node56</title>
<g id="a_node30"><a xlink:href="density_8c.html#a300eea2fe5e00af45e3c65215ff5bfe7" target="_top" xlink:title=" ">
<polygon fill="white" stroke="black" points="682,-481.5 682,-500.5 777,-500.5 777,-481.5 682,-481.5"/>
<text text-anchor="middle" x="729.5" y="-488.5" font-family="Helvetica,sans-Serif" font-size="10.00">SPH_EntVarPred</text>
</a>
</g>
</g>
<!-- Node34&#45;&gt;Node56 -->
<g id="edge44" class="edge">
<title>Node34&#45;&gt;Node56</title>
<path fill="none" stroke="midnightblue" d="M433.26,-350.88C447.72,-353.09 465.35,-357.84 478,-368 504.97,-389.66 486.85,-415.57 514,-437 538.26,-456.15 616.83,-472.57 671.81,-482.12"/>
<polygon fill="midnightblue" stroke="midnightblue" points="671.34,-485.59 681.78,-483.82 672.52,-478.69 671.34,-485.59"/>
</g>
<!-- Node57 -->
<g id="node31" class="node">
<title>Node57</title>
<g id="a_node31"><a xlink:href="density_8c.html#a10d3cfe0024d97740707f82efde883ea" target="_top" xlink:title=" ">
<polygon fill="white" stroke="black" points="690.5,-434.5 690.5,-453.5 768.5,-453.5 768.5,-434.5 690.5,-434.5"/>
<text text-anchor="middle" x="729.5" y="-441.5" font-family="Helvetica,sans-Serif" font-size="10.00">SPH_VelPred</text>
</a>
</g>
</g>
<!-- Node34&#45;&gt;Node57 -->
<g id="edge45" class="edge">
<title>Node34&#45;&gt;Node57</title>
<path fill="none" stroke="midnightblue" d="M433.3,-352.46C447.26,-355.16 464.39,-359.88 478,-368 497.98,-379.92 493.52,-394.97 514,-406 566.06,-434.03 634.52,-441.99 679.94,-443.95"/>
<polygon fill="midnightblue" stroke="midnightblue" points="680,-447.45 690.12,-444.3 680.25,-440.46 680,-447.45"/>
</g>
<!-- Node59 -->
<g id="node32" class="node">
<title>Node59</title>
<g id="a_node32"><a xlink:href="density_8c.html#ae39f5a18f937d210e258c8e8cb710044" target="_top" xlink:title=" ">
<polygon fill="white" stroke="red" points="522,-377.5 522,-396.5 638,-396.5 638,-377.5 522,-377.5"/>
<text text-anchor="middle" x="580" y="-384.5" font-family="Helvetica,sans-Serif" font-size="10.00">density_postprocess</text>
</a>
</g>
</g>
<!-- Node34&#45;&gt;Node59 -->
<g id="edge35" class="edge">
<title>Node34&#45;&gt;Node59</title>
<path fill="none" stroke="midnightblue" d="M433.18,-349.71C463.61,-354.24 514.35,-365.34 547.23,-374.58"/>
<polygon fill="midnightblue" stroke="midnightblue" points="546.65,-378.06 557.23,-377.5 548.62,-371.34 546.65,-378.06"/>
</g>
<!-- Node62 -->
<g id="node33" class="node">
<title>Node62</title>
<g id="a_node33"><a xlink:href="density_8c.html#ad169b636ff2e25d362af36cdedb8a3f2" target="_top" xlink:title=" ">
<polygon fill="white" stroke="black" points="534.5,-339.5 534.5,-358.5 625.5,-358.5 625.5,-339.5 534.5,-339.5"/>
<text text-anchor="middle" x="580" y="-346.5" font-family="Helvetica,sans-Serif" font-size="10.00">density_reduce</text>
</a>
</g>
</g>
<!-- Node34&#45;&gt;Node62 -->
<g id="edge37" class="edge">
<title>Node34&#45;&gt;Node62</title>
<path fill="none" stroke="midnightblue" d="M433.18,-349C457.19,-349 493.82,-349 524.37,-349"/>
<polygon fill="midnightblue" stroke="midnightblue" points="524.47,-352.5 534.47,-349 524.47,-345.5 524.47,-352.5"/>
</g>
<!-- Node63 -->
<g id="node34" class="node">
<title>Node63</title>
<g id="a_node34"><a xlink:href="gravity_8h.html#ad2fea9ffa95e668ed71b563e817d2e1b" target="_top" xlink:title=" ">
<polygon fill="white" stroke="black" points="524.5,-301.5 524.5,-320.5 635.5,-320.5 635.5,-301.5 524.5,-301.5"/>
<text text-anchor="middle" x="580" y="-308.5" font-family="Helvetica,sans-Serif" font-size="10.00">FORCE_SOFTENING</text>
</a>
</g>
</g>
<!-- Node34&#45;&gt;Node63 -->
<g id="edge39" class="edge">
<title>Node34&#45;&gt;Node63</title>
<path fill="none" stroke="midnightblue" d="M433.18,-343.31C457.63,-337.89 495.18,-329.57 526.05,-322.73"/>
<polygon fill="midnightblue" stroke="midnightblue" points="526.81,-326.15 535.81,-320.57 525.29,-319.32 526.81,-326.15"/>
</g>
<!-- Node64 -->
<g id="node35" class="node">
<title>Node64</title>
<g id="a_node35"><a xlink:href="timefac_8c.html#ae45524bb6dcfabd035dd6edfda728079" target="_top" xlink:title=" ">
<polygon fill="white" stroke="red" points="524,-252 524,-282 636,-282 636,-252 524,-252"/>
<text text-anchor="start" x="532" y="-270" font-family="Helvetica,sans-Serif" font-size="10.00">get_exact_gravkick</text>
<text text-anchor="middle" x="580" y="-259" font-family="Helvetica,sans-Serif" font-size="10.00">_factor</text>
</a>
</g>
</g>
<!-- Node34&#45;&gt;Node64 -->
<g id="edge40" class="edge">
<title>Node34&#45;&gt;Node64</title>
<path fill="none" stroke="midnightblue" d="M433.3,-345.54C447.26,-342.84 464.39,-338.12 478,-330 497.98,-318.08 494.67,-304.94 514,-292 516.9,-290.06 519.98,-288.24 523.15,-286.53"/>
<polygon fill="midnightblue" stroke="midnightblue" points="524.85,-289.6 532.27,-282.04 521.76,-283.32 524.85,-289.6"/>
</g>
<!-- Node68 -->
<g id="node36" class="node">
<title>Node68</title>
<g id="a_node36"><a xlink:href="timefac_8c.html#a2bfd65177ba7cde60bbe22eb0a84f96b" target="_top" xlink:title=" ">
<polygon fill="white" stroke="red" points="521,-203 521,-233 639,-233 639,-203 521,-203"/>
<text text-anchor="start" x="529" y="-221" font-family="Helvetica,sans-Serif" font-size="10.00">get_exact_hydrokick</text>
<text text-anchor="middle" x="580" y="-210" font-family="Helvetica,sans-Serif" font-size="10.00">_factor</text>
</a>
</g>
</g>
<!-- Node34&#45;&gt;Node68 -->
<g id="edge41" class="edge">
<title>Node34&#45;&gt;Node68</title>
<path fill="none" stroke="midnightblue" d="M433.27,-347.58C447.91,-345.53 465.72,-340.79 478,-330 509.44,-302.38 484.04,-272.22 514,-243 515.62,-241.42 517.35,-239.94 519.16,-238.55"/>
<polygon fill="midnightblue" stroke="midnightblue" points="521.14,-241.44 527.58,-233.03 517.3,-235.59 521.14,-241.44"/>
</g>
<!-- Node70 -->
<g id="node37" class="node">
<title>Node70</title>
<g id="a_node37"><a xlink:href="density_8c.html#a23e510a287a10de773a4a0f14db2ff52" target="_top" xlink:title=" ">
<polygon fill="white" stroke="black" points="541.5,-164.5 541.5,-183.5 618.5,-183.5 618.5,-164.5 541.5,-164.5"/>
<text text-anchor="middle" x="580" y="-171.5" font-family="Helvetica,sans-Serif" font-size="10.00">GetNumNgb</text>
</a>
</g>
</g>
<!-- Node34&#45;&gt;Node70 -->
<g id="edge42" class="edge">
<title>Node34&#45;&gt;Node70</title>
<path fill="none" stroke="midnightblue" d="M433.13,-348.25C448.1,-346.47 466.28,-341.77 478,-330 522.11,-285.69 470.67,-239.08 514,-194 518.89,-188.91 525.05,-185.11 531.6,-182.27"/>
<polygon fill="midnightblue" stroke="midnightblue" points="533.17,-185.42 541.4,-178.76 530.81,-178.83 533.17,-185.42"/>
</g>
<!-- Node66 -->
<g id="node38" class="node">
<title>Node66</title>
<g id="a_node38"><a xlink:href="test__timefac_8c.html#a5b77523ed91eb413cb28b12d8c2ceb46" target="_top" xlink:title=" ">
<polygon fill="white" stroke="black" points="541,-126.5 541,-145.5 619,-145.5 619,-126.5 541,-126.5"/>
<text text-anchor="middle" x="580" y="-133.5" font-family="Helvetica,sans-Serif" font-size="10.00">loga_from_ti</text>
</a>
</g>
</g>
<!-- Node34&#45;&gt;Node66 -->
<g id="edge43" class="edge">
<title>Node34&#45;&gt;Node66</title>
<path fill="none" stroke="midnightblue" d="M433.03,-348.52C448.15,-346.85 466.53,-342.18 478,-330 532.43,-272.18 460.19,-213.39 514,-155 518.71,-149.89 524.71,-146.12 531.16,-143.36"/>
<polygon fill="midnightblue" stroke="midnightblue" points="532.54,-146.58 540.82,-139.98 530.23,-139.98 532.54,-146.58"/>
</g>
<!-- Node71 -->
<g id="node39" class="node">
<title>Node71</title>
<g id="a_node39"><a xlink:href="treewalk_8c.html#a72643adf5c7952933b8f5fbb27d45a97" target="_top" xlink:title=" ">
<polygon fill="white" stroke="red" points="514,-88.5 514,-107.5 646,-107.5 646,-88.5 514,-88.5"/>
<text text-anchor="middle" x="580" y="-95.5" font-family="Helvetica,sans-Serif" font-size="10.00">treewalk_do_hsml_loop</text>
</a>
</g>
</g>
<!-- Node34&#45;&gt;Node71 -->
<g id="edge46" class="edge">
<title>Node34&#45;&gt;Node71</title>
<path fill="none" stroke="midnightblue" d="M433.18,-348.66C448.36,-347.05 466.75,-342.38 478,-330 542.56,-258.94 450.19,-188.74 514,-117 515.18,-115.67 516.45,-114.43 517.79,-113.28"/>
<polygon fill="midnightblue" stroke="midnightblue" points="519.89,-116.09 526.17,-107.56 515.94,-110.31 519.89,-116.09"/>
</g>
<!-- Node97 -->
<g id="node40" class="node">
<title>Node97</title>
<g id="a_node40"><a xlink:href="treewalk_8c.html#a1878fddf49185074fd570a46f3eea372" target="_top" xlink:title=" ">
<polygon fill="white" stroke="red" points="521,-39 521,-69 639,-69 639,-39 521,-39"/>
<text text-anchor="start" x="529" y="-57" font-family="Helvetica,sans-Serif" font-size="10.00">treewalk_visit_nolist</text>
<text text-anchor="middle" x="580" y="-46" font-family="Helvetica,sans-Serif" font-size="10.00">_ngbiter</text>
</a>
</g>
</g>
<!-- Node34&#45;&gt;Node97 -->
<g id="edge47" class="edge">
<title>Node34&#45;&gt;Node97</title>
<path fill="none" stroke="midnightblue" d="M433.29,-348.76C448.51,-347.18 466.9,-342.52 478,-330 552.73,-245.65 443.75,-167.12 514,-79 514.97,-77.79 516,-76.64 517.09,-75.54"/>
<polygon fill="midnightblue" stroke="midnightblue" points="519.47,-78.11 525.01,-69.08 515.04,-72.69 519.47,-78.11"/>
</g>
<!-- Node37&#45;&gt;Node53 -->
<g id="edge32" class="edge">
<title>Node37&#45;&gt;Node53</title>
<path fill="none" stroke="midnightblue" d="M623.66,-510.54C640.02,-514.2 658.88,-518.42 676.05,-522.27"/>
<polygon fill="midnightblue" stroke="midnightblue" points="675.41,-525.71 685.93,-524.48 676.94,-518.88 675.41,-525.71"/>
</g>
<!-- Node37&#45;&gt;Node56 -->
<g id="edge33" class="edge">
<title>Node37&#45;&gt;Node56</title>
<path fill="none" stroke="midnightblue" d="M626.06,-497.95C640.44,-496.97 656.56,-495.88 671.67,-494.85"/>
<polygon fill="midnightblue" stroke="midnightblue" points="672.19,-498.33 681.93,-494.16 671.72,-491.34 672.19,-498.33"/>
</g>
<!-- Node37&#45;&gt;Node57 -->
<g id="edge34" class="edge">
<title>Node37&#45;&gt;Node57</title>
<path fill="none" stroke="midnightblue" d="M605.69,-491.46C629.94,-482.09 667.14,-467.71 694.24,-457.24"/>
<polygon fill="midnightblue" stroke="midnightblue" points="695.67,-460.44 703.73,-453.57 693.14,-453.91 695.67,-460.44"/>
</g>
<!-- Node59&#45;&gt;Node34 -->
<g id="edge36" class="edge">
<title>Node59&#45;&gt;Node34</title>
<path fill="none" stroke="midnightblue" d="M521.65,-380.7C494.16,-375.29 462.26,-367.88 439.19,-361.4"/>
<polygon fill="midnightblue" stroke="midnightblue" points="440.15,-358.03 429.57,-358.59 438.19,-364.75 440.15,-358.03"/>
</g>
<!-- Node100&#45;&gt;Node34 -->
<g id="edge49" class="edge">
<title>Node100&#45;&gt;Node34</title>
<path fill="none" stroke="midnightblue" d="M274.93,-317.51C303.54,-324.41 341.94,-333.67 369.68,-340.36"/>
<polygon fill="midnightblue" stroke="midnightblue" points="369.21,-343.85 379.75,-342.79 370.85,-337.04 369.21,-343.85"/>
</g>
<!-- Node101 -->
<g id="node42" class="node">
<title>Node101</title>
<g id="a_node42"><a xlink:href="cooling__rates_8c.html#a01dfbce9cb6f2a5b4e750906e4360716" target="_top" xlink:title=" ">
<polygon fill="white" stroke="red" points="347,-290 347,-320 466,-320 466,-290 347,-290"/>
<text text-anchor="start" x="355" y="-308" font-family="Helvetica,sans-Serif" font-size="10.00">scipy_optimize_fixed</text>
<text text-anchor="middle" x="406.5" y="-297" font-family="Helvetica,sans-Serif" font-size="10.00">_point</text>
</a>
</g>
</g>
<!-- Node100&#45;&gt;Node101 -->
<g id="edge50" class="edge">
<title>Node100&#45;&gt;Node101</title>
<path fill="none" stroke="midnightblue" d="M278.84,-307.24C296.43,-306.92 317.18,-306.56 336.75,-306.21"/>
<polygon fill="midnightblue" stroke="midnightblue" points="336.91,-309.71 346.85,-306.04 336.78,-302.71 336.91,-309.71"/>
</g>
<!-- Node101&#45;&gt;Node102 -->
<g id="edge51" class="edge">
<title>Node101&#45;&gt;Node102</title>
<path fill="none" stroke="midnightblue" d="M460.33,-289.89C467.09,-285.99 473.29,-281.11 478,-275 545.48,-187.5 441.48,-112.37 514,-29 515.33,-27.47 516.78,-26.06 518.32,-24.76"/>
<polygon fill="midnightblue" stroke="midnightblue" points="520.35,-27.61 526.71,-19.14 516.45,-21.8 520.35,-27.61"/>
</g>
<!-- Node104&#45;&gt;Node6 -->
<g id="edge57" class="edge">
<title>Node104&#45;&gt;Node6</title>
<path fill="none" stroke="midnightblue" d="M274.37,-656.44C322.45,-664.67 406.69,-679.89 478,-697 498.06,-701.81 520.1,-708.03 538.46,-713.47"/>
<polygon fill="midnightblue" stroke="midnightblue" points="537.66,-716.89 548.24,-716.41 539.67,-710.18 537.66,-716.89"/>
</g>
<!-- Node104&#45;&gt;Node32 -->
<g id="edge56" class="edge">
<title>Node104&#45;&gt;Node32</title>
<path fill="none" stroke="midnightblue" d="M274.24,-650.34C334.27,-650.86 450.18,-651.87 520.47,-652.49"/>
<polygon fill="midnightblue" stroke="midnightblue" points="520.46,-655.99 530.49,-652.58 520.53,-648.99 520.46,-655.99"/>
</g>
<!-- Node104&#45;&gt;Node105 -->
<g id="edge55" class="edge">
<title>Node104&#45;&gt;Node105</title>
<path fill="none" stroke="midnightblue" d="M269.49,-640.4C296.02,-632.91 333.05,-622.46 361.78,-614.34"/>
<polygon fill="midnightblue" stroke="midnightblue" points="362.89,-617.67 371.57,-611.58 360.99,-610.93 362.89,-617.67"/>
</g>
<!-- Node110 -->
<g id="node50" class="node">
<title>Node110</title>
<g id="a_node50"><a xlink:href="interp_8c.html#a122801a20f7bc02d225659574ce6ed1f" target="_top" xlink:title=" ">
<polygon fill="white" stroke="red" points="371,-108.5 371,-127.5 442,-127.5 442,-108.5 371,-108.5"/>
<text text-anchor="middle" x="406.5" y="-115.5" font-family="Helvetica,sans-Serif" font-size="10.00">interp_eval</text>
</a>
</g>
</g>
<!-- Node109&#45;&gt;Node110 -->
<g id="edge62" class="edge">
<title>Node109&#45;&gt;Node110</title>
<path fill="none" stroke="midnightblue" d="M299.29,-118C319.79,-118 342.06,-118 360.89,-118"/>
<polygon fill="midnightblue" stroke="midnightblue" points="360.96,-121.5 370.96,-118 360.96,-114.5 360.96,-121.5"/>
</g>
</g>
</svg>
