<?xml version="1.0" encoding="UTF-8" standalone="no"?>
<!DOCTYPE svg PUBLIC "-//W3C//DTD SVG 1.1//EN"
 "http://www.w3.org/Graphics/SVG/1.1/DTD/svg11.dtd">
<!-- Generated by graphviz version 2.38.0 (20140413.2041)
 -->
<!-- Title: InitUVF Pages: 1 -->
<svg width="642pt" height="588pt"
 viewBox="0.00 0.00 642.03 588.03" xmlns="http://www.w3.org/2000/svg" xmlns:xlink="http://www.w3.org/1999/xlink">
<g id="graph0" class="graph" transform="scale(1 1) rotate(0) translate(4 584.029)">
<title>InitUVF</title>
<polygon fill="white" stroke="none" points="-4,4 -4,-584.029 638.029,-584.029 638.029,4 -4,4"/>
<!-- Node254 -->
<g id="node1" class="node"><title>Node254</title>
<polygon fill="#bfbfbf" stroke="black" points="315.97,-255.058 315.97,-274.058 365.97,-274.058 365.97,-255.058 315.97,-255.058"/>
<text text-anchor="middle" x="340.97" y="-262.058" font-family="Helvetica,sans-Serif" font-size="10.00">InitUVF</text>
</g>
<!-- Node255 -->
<g id="node2" class="node"><title>Node255</title>
<g id="a_node2"><a xlink:href="cooling_8h.html#ae51373f12f72a32d01160ad576457d52" target="_top" xlink:title="InitCool">
<polygon fill="white" stroke="black" points="315.97,-327.058 315.97,-346.058 365.97,-346.058 365.97,-327.058 315.97,-327.058"/>
<text text-anchor="middle" x="340.97" y="-334.058" font-family="Helvetica,sans-Serif" font-size="10.00">InitCool</text>
</a>
</g>
</g>
<!-- Node254&#45;&gt;Node255 -->
<g id="edge1" class="edge"><title>Node254&#45;&gt;Node255</title>
<path fill="none" stroke="midnightblue" d="M340.97,-284.316C340.97,-298.201 340.97,-316.165 340.97,-327.002"/>
<polygon fill="midnightblue" stroke="midnightblue" points="344.47,-284.269 340.97,-274.269 337.47,-284.269 344.47,-284.269"/>
</g>
<!-- Node261 -->
<g id="node8" class="node"><title>Node261</title>
<g id="a_node8"><a xlink:href="cooling_8c.html#a03df5c3fb852b03dbbddf38c2cd3e895" target="_top" xlink:title="PrimordialCoolingRate">
<polygon fill="white" stroke="black" points="283.97,-183.058 283.97,-202.058 397.97,-202.058 397.97,-183.058 283.97,-183.058"/>
<text text-anchor="middle" x="340.97" y="-190.058" font-family="Helvetica,sans-Serif" font-size="10.00">PrimordialCoolingRate</text>
</a>
</g>
</g>
<!-- Node254&#45;&gt;Node261 -->
<g id="edge8" class="edge"><title>Node254&#45;&gt;Node261</title>
<path fill="none" stroke="midnightblue" d="M340.97,-244.801C340.97,-230.916 340.97,-212.951 340.97,-202.115"/>
<polygon fill="midnightblue" stroke="midnightblue" points="337.47,-244.848 340.97,-254.848 344.47,-244.848 337.47,-244.848"/>
</g>
<!-- Node256 -->
<g id="node3" class="node"><title>Node256</title>
<g id="a_node3"><a xlink:href="proto_8h.html#a74dc0e5e9eefe11fc8434b62de573146" target="_top" xlink:title="begrun">
<polygon fill="white" stroke="black" points="317.97,-399.058 317.97,-418.058 363.97,-418.058 363.97,-399.058 317.97,-399.058"/>
<text text-anchor="middle" x="340.97" y="-406.058" font-family="Helvetica,sans-Serif" font-size="10.00">begrun</text>
</a>
</g>
</g>
<!-- Node255&#45;&gt;Node256 -->
<g id="edge2" class="edge"><title>Node255&#45;&gt;Node256</title>
<path fill="none" stroke="midnightblue" d="M340.97,-356.316C340.97,-370.201 340.97,-388.165 340.97,-399.002"/>
<polygon fill="midnightblue" stroke="midnightblue" points="344.47,-356.269 340.97,-346.269 337.47,-356.269 344.47,-356.269"/>
</g>
<!-- Node257 -->
<g id="node4" class="node"><title>Node257</title>
<g id="a_node4"><a xlink:href="main_8c.html#a3c04138a5bfe5d72780bb7e82a18e627" target="_top" xlink:title="main">
<polygon fill="white" stroke="black" points="321.97,-471.058 321.97,-490.058 359.97,-490.058 359.97,-471.058 321.97,-471.058"/>
<text text-anchor="middle" x="340.97" y="-478.058" font-family="Helvetica,sans-Serif" font-size="10.00">main</text>
</a>
</g>
</g>
<!-- Node256&#45;&gt;Node257 -->
<g id="edge3" class="edge"><title>Node256&#45;&gt;Node257</title>
<path fill="none" stroke="midnightblue" d="M340.97,-428.316C340.97,-442.201 340.97,-460.165 340.97,-471.002"/>
<polygon fill="midnightblue" stroke="midnightblue" points="344.47,-428.269 340.97,-418.269 337.47,-428.269 344.47,-428.269"/>
</g>
<!-- Node258 -->
<g id="node5" class="node"><title>Node258</title>
<g id="a_node5"><a xlink:href="walltime_8h.html#a76d2135b612766d4d665748454b879d6" target="_top" xlink:title="walltime_report">
<polygon fill="white" stroke="black" points="503.117,-458.705 503.117,-477.705 586.117,-477.705 586.117,-458.705 503.117,-458.705"/>
<text text-anchor="middle" x="544.617" y="-465.705" font-family="Helvetica,sans-Serif" font-size="10.00">walltime_report</text>
</a>
</g>
</g>
<!-- Node257&#45;&gt;Node258 -->
<g id="edge4" class="edge"><title>Node257&#45;&gt;Node258</title>
<path fill="none" stroke="midnightblue" d="M370.115,-478.791C404.888,-476.681 463.278,-473.139 502.845,-470.739"/>
<polygon fill="midnightblue" stroke="midnightblue" points="369.898,-475.297 360.129,-479.396 370.322,-482.284 369.898,-475.297"/>
</g>
<!-- Node259 -->
<g id="node6" class="node"><title>Node259</title>
<g id="a_node6"><a xlink:href="run_8c.html#adc59e9ee1517e4e690694a64ab6a59d2" target="_top" xlink:title="write_cpu_log">
<polygon fill="white" stroke="black" points="557.029,-509.617 557.029,-528.617 634.029,-528.617 634.029,-509.617 557.029,-509.617"/>
<text text-anchor="middle" x="595.529" y="-516.617" font-family="Helvetica,sans-Serif" font-size="10.00">write_cpu_log</text>
</a>
</g>
</g>
<!-- Node258&#45;&gt;Node259 -->
<g id="edge5" class="edge"><title>Node258&#45;&gt;Node259</title>
<path fill="none" stroke="midnightblue" d="M561.862,-485.45C569.825,-493.413 578.988,-502.576 585.742,-509.331"/>
<polygon fill="midnightblue" stroke="midnightblue" points="563.979,-482.618 554.433,-478.021 559.029,-487.567 563.979,-482.618"/>
</g>
<!-- Node260 -->
<g id="node7" class="node"><title>Node260</title>
<g id="a_node7"><a xlink:href="run_8c.html#a05e0ffe612d44e6d7f3a9ae5b9df56a2" target="_top" xlink:title="run">
<polygon fill="white" stroke="black" points="122.323,-458.705 122.323,-477.705 152.323,-477.705 152.323,-458.705 122.323,-458.705"/>
<text text-anchor="middle" x="137.323" y="-465.705" font-family="Helvetica,sans-Serif" font-size="10.00">run</text>
</a>
</g>
</g>
<!-- Node259&#45;&gt;Node260 -->
<g id="edge6" class="edge"><title>Node259&#45;&gt;Node260</title>
<path fill="none" stroke="midnightblue" d="M546.833,-513.706C444.983,-502.39 213.81,-476.704 152.489,-469.89"/>
<polygon fill="midnightblue" stroke="midnightblue" points="546.532,-517.194 556.857,-514.82 547.305,-510.237 546.532,-517.194"/>
</g>
<!-- Node260&#45;&gt;Node257 -->
<g id="edge7" class="edge"><title>Node260&#45;&gt;Node257</title>
<path fill="none" stroke="midnightblue" d="M162.687,-469.744C203.954,-472.247 284.729,-477.147 321.684,-479.389"/>
<polygon fill="midnightblue" stroke="midnightblue" points="162.824,-466.246 152.63,-469.134 162.4,-473.233 162.824,-466.246"/>
</g>
<!-- Node262 -->
<g id="node9" class="node"><title>Node262</title>
<g id="a_node9"><a xlink:href="cooling_8c.html#a67e75a1a9b6f82de5fc274f6351acd85" target="_top" xlink:title="CoolingRateFromU">
<polygon fill="white" stroke="black" points="290.47,-111.058 290.47,-130.058 391.47,-130.058 391.47,-111.058 290.47,-111.058"/>
<text text-anchor="middle" x="340.97" y="-118.058" font-family="Helvetica,sans-Serif" font-size="10.00">CoolingRateFromU</text>
</a>
</g>
</g>
<!-- Node261&#45;&gt;Node262 -->
<g id="edge9" class="edge"><title>Node261&#45;&gt;Node262</title>
<path fill="none" stroke="midnightblue" d="M340.97,-172.801C340.97,-158.916 340.97,-140.951 340.97,-130.115"/>
<polygon fill="midnightblue" stroke="midnightblue" points="337.47,-172.848 340.97,-182.848 344.47,-172.848 337.47,-172.848"/>
</g>
<!-- Node263 -->
<g id="node10" class="node"><title>Node263</title>
<g id="a_node10"><a xlink:href="cooling_8h.html#a89d3440e3ecc1e262536d6c47a301c3e" target="_top" xlink:title="DoCooling">
<polygon fill="white" stroke="black" points="157.235,-102.323 157.235,-121.323 219.235,-121.323 219.235,-102.323 157.235,-102.323"/>
<text text-anchor="middle" x="188.235" y="-109.323" font-family="Helvetica,sans-Serif" font-size="10.00">DoCooling</text>
</a>
</g>
</g>
<!-- Node262&#45;&gt;Node263 -->
<g id="edge10" class="edge"><title>Node262&#45;&gt;Node263</title>
<path fill="none" stroke="midnightblue" d="M280.041,-117.074C259.206,-115.882 236.772,-114.599 219.296,-113.6"/>
<polygon fill="midnightblue" stroke="midnightblue" points="279.928,-120.573 290.112,-117.65 280.328,-113.584 279.928,-120.573"/>
</g>
<!-- Node268 -->
<g id="node15" class="node"><title>Node268</title>
<g id="a_node15"><a xlink:href="cooling_8h.html#a8559afa70c9a321c2f2e376fa6bdf45e" target="_top" xlink:title="GetCoolingTime">
<polygon fill="white" stroke="black" points="450.205,-102.323 450.205,-121.323 537.205,-121.323 537.205,-102.323 450.205,-102.323"/>
<text text-anchor="middle" x="493.705" y="-109.323" font-family="Helvetica,sans-Serif" font-size="10.00">GetCoolingTime</text>
</a>
</g>
</g>
<!-- Node262&#45;&gt;Node268 -->
<g id="edge16" class="edge"><title>Node262&#45;&gt;Node268</title>
<path fill="none" stroke="midnightblue" d="M402.175,-117.058C418.17,-116.143 435.089,-115.176 449.971,-114.325"/>
<polygon fill="midnightblue" stroke="midnightblue" points="401.613,-113.584 391.829,-117.65 402.012,-120.573 401.613,-113.584"/>
</g>
<!-- Node264 -->
<g id="node11" class="node"><title>Node264</title>
<g id="a_node11"><a xlink:href="sfr__eff_8c.html#a2d96bcfa1a035956535e5840d306744b" target="_top" xlink:title="cooling_direct">
<polygon fill="white" stroke="black" points="98.8234,-51.4117 98.8234,-70.4117 175.823,-70.4117 175.823,-51.4117 98.8234,-51.4117"/>
<text text-anchor="middle" x="137.323" y="-58.4117" font-family="Helvetica,sans-Serif" font-size="10.00">cooling_direct</text>
</a>
</g>
</g>
<!-- Node263&#45;&gt;Node264 -->
<g id="edge11" class="edge"><title>Node263&#45;&gt;Node264</title>
<path fill="none" stroke="midnightblue" d="M170.99,-94.5781C163.027,-86.6153 153.864,-77.4522 147.11,-70.6978"/>
<polygon fill="midnightblue" stroke="midnightblue" points="168.873,-97.4109 178.419,-102.007 173.823,-92.4611 168.873,-97.4109"/>
</g>
<!-- Node265 -->
<g id="node12" class="node"><title>Node265</title>
<g id="a_node12"><a xlink:href="sfr__eff_8c.html#aec2d4b18a02ca0bbca8111e41fae0248" target="_top" xlink:title="cool_postprocess">
<polygon fill="white" stroke="black" points="39.9117,-0.5 39.9117,-19.5 132.912,-19.5 132.912,-0.5 39.9117,-0.5"/>
<text text-anchor="middle" x="86.4117" y="-7.5" font-family="Helvetica,sans-Serif" font-size="10.00">cool_postprocess</text>
</a>
</g>
</g>
<!-- Node264&#45;&gt;Node265 -->
<g id="edge12" class="edge"><title>Node264&#45;&gt;Node265</title>
<path fill="none" stroke="midnightblue" d="M120.078,-43.6664C112.115,-35.7037 102.952,-26.5405 96.1978,-19.7862"/>
<polygon fill="midnightblue" stroke="midnightblue" points="117.961,-46.4992 127.507,-51.0954 122.911,-41.5494 117.961,-46.4992"/>
</g>
<!-- Node266 -->
<g id="node13" class="node"><title>Node266</title>
<g id="a_node13"><a xlink:href="sfr__eff_8h.html#aaa7b178a168a5d23b2cfe478ebc58ee1" target="_top" xlink:title="cooling_only">
<polygon fill="white" stroke="black" points="-1.42109e-14,-560.529 -1.42109e-14,-579.529 71,-579.529 71,-560.529 -1.42109e-14,-560.529"/>
<text text-anchor="middle" x="35.5" y="-567.529" font-family="Helvetica,sans-Serif" font-size="10.00">cooling_only</text>
</a>
</g>
</g>
<!-- Node265&#45;&gt;Node266 -->
<g id="edge13" class="edge"><title>Node265&#45;&gt;Node266</title>
<path fill="none" stroke="midnightblue" d="M84.6157,-29.7564C76.3661,-120.502 42.2582,-495.689 36.3683,-560.477"/>
<polygon fill="midnightblue" stroke="midnightblue" points="88.1082,-29.9962 85.528,-19.7203 81.1369,-29.3624 88.1082,-29.9962"/>
</g>
<!-- Node267 -->
<g id="node14" class="node"><title>Node267</title>
<g id="a_node14"><a xlink:href="run_8c.html#abb80d08f4d52f4a7bdf28d1cecfead5b" target="_top" xlink:title="compute_accelerations">
<polygon fill="white" stroke="black" points="27.9117,-509.617 27.9117,-528.617 144.912,-528.617 144.912,-509.617 27.9117,-509.617"/>
<text text-anchor="middle" x="86.4117" y="-516.617" font-family="Helvetica,sans-Serif" font-size="10.00">compute_accelerations</text>
</a>
</g>
</g>
<!-- Node266&#45;&gt;Node267 -->
<g id="edge14" class="edge"><title>Node266&#45;&gt;Node267</title>
<path fill="none" stroke="midnightblue" d="M52.7453,-552.783C60.708,-544.821 69.8712,-535.657 76.6255,-528.903"/>
<polygon fill="midnightblue" stroke="midnightblue" points="49.9125,-550.666 45.3163,-560.212 54.8623,-555.616 49.9125,-550.666"/>
</g>
<!-- Node267&#45;&gt;Node260 -->
<g id="edge15" class="edge"><title>Node267&#45;&gt;Node260</title>
<path fill="none" stroke="midnightblue" d="M103.657,-501.872C111.62,-493.909 120.783,-484.746 127.537,-477.991"/>
<polygon fill="midnightblue" stroke="midnightblue" points="100.824,-499.755 96.228,-509.301 105.774,-504.704 100.824,-499.755"/>
</g>
<!-- Node268&#45;&gt;Node264 -->
<g id="edge17" class="edge"><title>Node268&#45;&gt;Node264</title>
<path fill="none" stroke="midnightblue" d="M439.7,-104.108C367.063,-93.7316 239.665,-75.5319 175.928,-66.4267"/>
<polygon fill="midnightblue" stroke="midnightblue" points="439.611,-107.631 450.006,-105.581 440.601,-100.701 439.611,-107.631"/>
</g>
</g>
</svg>
