<?xml version="1.0" encoding="UTF-8" standalone="no"?>
<!DOCTYPE svg PUBLIC "-//W3C//DTD SVG 1.1//EN"
 "http://www.w3.org/Graphics/SVG/1.1/DTD/svg11.dtd">
<!-- Generated by graphviz version 2.50.0 (0)
 -->
<!-- Title: Q_inst Pages: 1 -->
<svg width="763pt" height="78pt"
 viewBox="0.00 0.00 763.00 77.50" xmlns="http://www.w3.org/2000/svg" xmlns:xlink="http://www.w3.org/1999/xlink">
<g id="graph0" class="graph" transform="scale(1 1) rotate(0) translate(4 73.5)">
<title>Q_inst</title>
<polygon fill="white" stroke="transparent" points="-4,4 -4,-73.5 759,-73.5 759,4 -4,4"/>
<!-- Node1 -->
<g id="node1" class="node">
<title>Node1</title>
<g id="a_node1"><a xlink:title=" ">
<polygon fill="#bfbfbf" stroke="black" points="708,-22.5 708,-41.5 755,-41.5 755,-22.5 708,-22.5"/>
<text text-anchor="middle" x="731.5" y="-29.5" font-family="Helvetica,sans-Serif" font-size="10.00">Q_inst</text>
</a>
</g>
</g>
<!-- Node2 -->
<g id="node2" class="node">
<title>Node2</title>
<g id="a_node2"><a xlink:href="cooling__qso__lightup_8c.html#a1e889225391707117df9040605db0cc2" target="_top" xlink:title=" ">
<polygon fill="white" stroke="black" points="558,-22.5 558,-41.5 672,-41.5 672,-22.5 558,-22.5"/>
<text text-anchor="middle" x="615" y="-29.5" font-family="Helvetica,sans-Serif" font-size="10.00">load_heii_reion_hist</text>
</a>
</g>
</g>
<!-- Node1&#45;&gt;Node2 -->
<g id="edge1" class="edge">
<title>Node1&#45;&gt;Node2</title>
<path fill="none" stroke="midnightblue" d="M697.87,-32C689.85,-32 681.04,-32 672.26,-32"/>
<polygon fill="midnightblue" stroke="midnightblue" points="697.88,-35.5 707.88,-32 697.88,-28.5 697.88,-35.5"/>
</g>
<!-- Node3 -->
<g id="node3" class="node">
<title>Node3</title>
<g id="a_node3"><a xlink:href="cooling__qso__lightup_8c.html#a582d24ae7261aa1e23bd948329237d92" target="_top" xlink:title=" ">
<polygon fill="white" stroke="black" points="428,-22.5 428,-41.5 522,-41.5 522,-22.5 428,-22.5"/>
<text text-anchor="middle" x="475" y="-29.5" font-family="Helvetica,sans-Serif" font-size="10.00">init_qso_lightup</text>
</a>
</g>
</g>
<!-- Node2&#45;&gt;Node3 -->
<g id="edge2" class="edge">
<title>Node2&#45;&gt;Node3</title>
<path fill="none" stroke="midnightblue" d="M547.83,-32C539.23,-32 530.57,-32 522.38,-32"/>
<polygon fill="midnightblue" stroke="midnightblue" points="547.87,-35.5 557.87,-32 547.87,-28.5 547.87,-35.5"/>
</g>
<!-- Node4 -->
<g id="node4" class="node">
<title>Node4</title>
<g id="a_node4"><a xlink:href="cooling_8c.html#a17345bafab1e456c8ec9eda0d8c2a3f6" target="_top" xlink:title=" ">
<polygon fill="white" stroke="black" points="319,-22.5 319,-41.5 392,-41.5 392,-22.5 319,-22.5"/>
<text text-anchor="middle" x="355.5" y="-29.5" font-family="Helvetica,sans-Serif" font-size="10.00">init_cooling</text>
</a>
</g>
</g>
<!-- Node3&#45;&gt;Node4 -->
<g id="edge3" class="edge">
<title>Node3&#45;&gt;Node4</title>
<path fill="none" stroke="midnightblue" d="M417.79,-32C409.11,-32 400.36,-32 392.3,-32"/>
<polygon fill="midnightblue" stroke="midnightblue" points="417.9,-35.5 427.9,-32 417.9,-28.5 417.9,-35.5"/>
</g>
<!-- Node5 -->
<g id="node5" class="node">
<title>Node5</title>
<g id="a_node5"><a xlink:href="sfr__eff_8c.html#a17ba6f2251e04bc57005d00cc09640c8" target="_top" xlink:title=" ">
<polygon fill="white" stroke="black" points="163,-39 163,-69 283,-69 283,-39 163,-39"/>
<text text-anchor="start" x="171" y="-57" font-family="Helvetica,sans-Serif" font-size="10.00">init_cooling_and_star</text>
<text text-anchor="middle" x="223" y="-46" font-family="Helvetica,sans-Serif" font-size="10.00">_formation</text>
</a>
</g>
</g>
<!-- Node4&#45;&gt;Node5 -->
<g id="edge4" class="edge">
<title>Node4&#45;&gt;Node5</title>
<path fill="none" stroke="midnightblue" d="M308.97,-39.68C300.65,-41.08 291.86,-42.56 283.21,-44.02"/>
<polygon fill="midnightblue" stroke="midnightblue" points="309.56,-43.13 318.84,-38.01 308.4,-36.22 309.56,-43.13"/>
</g>
<!-- Node8 -->
<g id="node8" class="node">
<title>Node8</title>
<g id="a_node8"><a xlink:href="test__cooling_8c.html#a5fe9c1155a1baae832661fc31fea0654" target="_top" xlink:title=" ">
<polygon fill="white" stroke="black" points="177.5,-0.5 177.5,-19.5 268.5,-19.5 268.5,-0.5 177.5,-0.5"/>
<text text-anchor="middle" x="223" y="-7.5" font-family="Helvetica,sans-Serif" font-size="10.00">test_DoCooling</text>
</a>
</g>
</g>
<!-- Node4&#45;&gt;Node8 -->
<g id="edge7" class="edge">
<title>Node4&#45;&gt;Node8</title>
<path fill="none" stroke="midnightblue" d="M308.77,-24.29C295.86,-22.11 281.82,-19.75 268.96,-17.58"/>
<polygon fill="midnightblue" stroke="midnightblue" points="308.4,-27.78 318.84,-25.99 309.56,-20.87 308.4,-27.78"/>
</g>
<!-- Node6 -->
<g id="node6" class="node">
<title>Node6</title>
<g id="a_node6"><a xlink:href="run_8c.html#aee4609880c9e92e1c421c4bd238589fd" target="_top" xlink:title=" ">
<polygon fill="white" stroke="black" points="77,-44.5 77,-63.5 127,-63.5 127,-44.5 77,-44.5"/>
<text text-anchor="middle" x="102" y="-51.5" font-family="Helvetica,sans-Serif" font-size="10.00">begrun</text>
</a>
</g>
</g>
<!-- Node5&#45;&gt;Node6 -->
<g id="edge5" class="edge">
<title>Node5&#45;&gt;Node6</title>
<path fill="none" stroke="midnightblue" d="M152.85,-54C143.7,-54 134.87,-54 127.25,-54"/>
<polygon fill="midnightblue" stroke="midnightblue" points="152.85,-57.5 162.85,-54 152.85,-50.5 152.85,-57.5"/>
</g>
<!-- Node7 -->
<g id="node7" class="node">
<title>Node7</title>
<g id="a_node7"><a xlink:href="gadget_2main_8c.html#a3c04138a5bfe5d72780bb7e82a18e627" target="_top" xlink:title=" ">
<polygon fill="white" stroke="black" points="0,-44.5 0,-63.5 41,-63.5 41,-44.5 0,-44.5"/>
<text text-anchor="middle" x="20.5" y="-51.5" font-family="Helvetica,sans-Serif" font-size="10.00">main</text>
</a>
</g>
</g>
<!-- Node6&#45;&gt;Node7 -->
<g id="edge6" class="edge">
<title>Node6&#45;&gt;Node7</title>
<path fill="none" stroke="midnightblue" d="M66.71,-54C57.96,-54 48.84,-54 41.11,-54"/>
<polygon fill="midnightblue" stroke="midnightblue" points="66.72,-57.5 76.72,-54 66.72,-50.5 66.72,-57.5"/>
</g>
<!-- Node9 -->
<g id="node9" class="node">
<title>Node9</title>
<g id="a_node9"><a xlink:href="test__cooling_8c.html#a840291bc02cba5474a4cb46a9b9566fe" target="_top" xlink:title=" ">
<polygon fill="white" stroke="black" points="81.5,-0.5 81.5,-19.5 122.5,-19.5 122.5,-0.5 81.5,-0.5"/>
<text text-anchor="middle" x="102" y="-7.5" font-family="Helvetica,sans-Serif" font-size="10.00">main</text>
</a>
</g>
</g>
<!-- Node8&#45;&gt;Node9 -->
<g id="edge8" class="edge">
<title>Node8&#45;&gt;Node9</title>
<path fill="none" stroke="midnightblue" d="M167.02,-10C151.14,-10 134.83,-10 122.65,-10"/>
<polygon fill="midnightblue" stroke="midnightblue" points="167.35,-13.5 177.35,-10 167.35,-6.5 167.35,-13.5"/>
</g>
</g>
</svg>
