<?xml version="1.0" encoding="UTF-8" standalone="no"?>
<!DOCTYPE svg PUBLIC "-//W3C//DTD SVG 1.1//EN"
 "http://www.w3.org/Graphics/SVG/1.1/DTD/svg11.dtd">
<!-- Generated by graphviz version 2.38.0 (20140413.2041)
 -->
<!-- Title: DoCooling Pages: 1 -->
<!--zoomable 524 -->
<svg id="main" version="1.1" xmlns="http://www.w3.org/2000/svg" xmlns:xlink="http://www.w3.org/1999/xlink" xml:space="preserve" onload="init(evt)">
<style type="text/css"><![CDATA[
.edge:hover path { stroke: red; }
.edge:hover polygon { stroke: red; fill: red; }
]]></style>
<script type="text/javascript"><![CDATA[
var edges = document.getElementsByTagName('g');
if (edges && edges.length) {
  for (var i=0;i<edges.length;i++) {
    if (edges[i].id.substr(0,4)=='edge') {
      edges[i].setAttribute('class','edge');
    }
  }
}
]]></script>
        <defs>
                <circle id="rim" cx="0" cy="0" r="7"/>
                <circle id="rim2" cx="0" cy="0" r="3.5"/>
                <g id="zoomPlus">
                        <use xlink:href="#rim" fill="#404040">
                                <set attributeName="fill" to="#808080" begin="zoomplus.mouseover" end="zoomplus.mouseout"/>
                        </use>
                        <path d="M-4,0h8M0,-4v8" fill="none" stroke="white" stroke-width="1.5" pointer-events="none"/>
                </g>
                <g id="zoomMin">
                        <use xlink:href="#rim" fill="#404040">
                                <set attributeName="fill" to="#808080" begin="zoomminus.mouseover" end="zoomminus.mouseout"/>
                        </use>
                        <path d="M-4,0h8" fill="none" stroke="white" stroke-width="1.5" pointer-events="none"/>
                </g>
                <g id="dirArrow">
                        <path fill="none" stroke="white" stroke-width="1.5" d="M0,-3.0v7 M-2.5,-0.5L0,-3.0L2.5,-0.5"/>
                </g>
               <g id="resetDef">
                       <use xlink:href="#rim2" fill="#404040">
                               <set attributeName="fill" to="#808080" begin="reset.mouseover" end="reset.mouseout"/>
                       </use>
               </g>
        </defs>

<script type="text/javascript">
var viewWidth = 512;
var viewHeight = 524;
var sectionId = 'dynsection-7';
</script>
<script xlink:href="svgpan.js"/>
<svg id="graph" class="graph">
<g id="viewport">
<title>DoCooling</title>
<polygon fill="white" stroke="none" points="-4,4 -4,-520.343 508.474,-520.343 508.474,4 -4,4"/>
<!-- Node59 -->
<g id="node1" class="node"><title>Node59</title>
<polygon fill="#bfbfbf" stroke="black" points="229,-213.218 229,-232.218 291,-232.218 291,-213.218 229,-213.218"/>
<text text-anchor="middle" x="260" y="-220.218" font-family="Helvetica,sans-Serif" font-size="10.00">DoCooling</text>
</g>
<!-- Node60 -->
<g id="node2" class="node"><title>Node60</title>
<g id="a_node2"><a xlink:href="cooling_8c.html#a67e75a1a9b6f82de5fc274f6351acd85" target="_top" xlink:title="CoolingRateFromU">
<polygon fill="white" stroke="black" points="245.5,-275.572 245.5,-294.572 346.5,-294.572 346.5,-275.572 245.5,-275.572"/>
<text text-anchor="middle" x="296" y="-282.572" font-family="Helvetica,sans-Serif" font-size="10.00">CoolingRateFromU</text>
</a>
</g>
</g>
<!-- Node59&#45;&gt;Node60 -->
<g id="edge1" class="edge"><title>Node59&#45;&gt;Node60</title>
<path fill="none" stroke="midnightblue" d="M265.625,-232.461C270.825,-241.468 278.697,-255.102 285.123,-266.233"/>
<polygon fill="midnightblue" stroke="midnightblue" points="282.265,-268.282 290.296,-275.192 288.327,-264.782 282.265,-268.282"/>
</g>
<!-- Node63 -->
<g id="node5" class="node"><title>Node63</title>
<g id="a_node5"><a xlink:href="endrun_8c.html#a6567cd867c5549fb6586e19ccd819764" target="_top" xlink:title="message">
<polygon fill="white" stroke="black" points="176.845,-166.938 176.845,-185.938 232.845,-185.938 232.845,-166.938 176.845,-166.938"/>
<text text-anchor="middle" x="204.845" y="-173.938" font-family="Helvetica,sans-Serif" font-size="10.00">message</text>
</a>
</g>
</g>
<!-- Node59&#45;&gt;Node63 -->
<g id="edge28" class="edge"><title>Node59&#45;&gt;Node63</title>
<path fill="none" stroke="midnightblue" d="M248.572,-213.129C241.472,-207.172 232.168,-199.365 223.968,-192.484"/>
<polygon fill="midnightblue" stroke="midnightblue" points="226.169,-189.762 216.258,-186.015 221.669,-195.124 226.169,-189.762"/>
</g>
<!-- Node67 -->
<g id="node9" class="node"><title>Node67</title>
<g id="a_node9"><a xlink:href="endrun_8c.html#ad963d7efdb9f10f7a2298c8ccd222ab0" target="_top" xlink:title="endrun">
<polygon fill="white" stroke="black" points="304.658,-188.593 304.658,-207.593 350.658,-207.593 350.658,-188.593 304.658,-188.593"/>
<text text-anchor="middle" x="327.658" y="-195.593" font-family="Helvetica,sans-Serif" font-size="10.00">endrun</text>
</a>
</g>
</g>
<!-- Node59&#45;&gt;Node67 -->
<g id="edge27" class="edge"><title>Node59&#45;&gt;Node67</title>
<path fill="none" stroke="midnightblue" d="M286.352,-213.127C289.135,-212.114 291.989,-211.076 294.833,-210.04"/>
<polygon fill="midnightblue" stroke="midnightblue" points="296.15,-213.286 304.35,-206.576 293.756,-206.708 296.15,-213.286"/>
</g>
<!-- Node61 -->
<g id="node3" class="node"><title>Node61</title>
<g id="a_node3"><a xlink:href="cooling_8c.html#a03df5c3fb852b03dbbddf38c2cd3e895" target="_top" xlink:title="PrimordialCoolingRate">
<polygon fill="white" stroke="black" points="338.316,-262.469 338.316,-281.469 452.316,-281.469 452.316,-262.469 338.316,-262.469"/>
<text text-anchor="middle" x="395.316" y="-269.469" font-family="Helvetica,sans-Serif" font-size="10.00">PrimordialCoolingRate</text>
</a>
</g>
</g>
<!-- Node60&#45;&gt;Node61 -->
<g id="edge2" class="edge"><title>Node60&#45;&gt;Node61</title>
<path fill="none" stroke="midnightblue" d="M346.531,-278.406C346.579,-278.399 346.627,-278.393 346.674,-278.387"/>
<polygon fill="midnightblue" stroke="midnightblue" points="337.364,-283.152 346.818,-278.368 336.444,-276.212 337.364,-283.152"/>
</g>
<!-- Node75 -->
<g id="node17" class="node"><title>Node75</title>
<g id="a_node17"><a xlink:href="cooling_8c.html#ab11b943f8d84fd82d32d840e76bacbdc" target="_top" xlink:title="solve_equilibrium_temp">
<polygon fill="white" stroke="black" points="272.5,-337.926 272.5,-356.926 391.5,-356.926 391.5,-337.926 272.5,-337.926"/>
<text text-anchor="middle" x="332" y="-344.926" font-family="Helvetica,sans-Serif" font-size="10.00">solve_equilibrium_temp</text>
</a>
</g>
</g>
<!-- Node60&#45;&gt;Node75 -->
<g id="edge20" class="edge"><title>Node60&#45;&gt;Node75</title>
<path fill="none" stroke="midnightblue" d="M301.625,-294.815C306.825,-303.822 314.697,-317.456 321.123,-328.587"/>
<polygon fill="midnightblue" stroke="midnightblue" points="318.265,-330.636 326.296,-337.546 324.327,-327.136 318.265,-330.636"/>
</g>
<!-- Node77 -->
<g id="node19" class="node"><title>Node77</title>
<g id="a_node19"><a xlink:href="cooling_8c.html#a42839be7d31e531f4481672b6bdf0e80" target="_top" xlink:title="TableMetalCoolingRate">
<polygon fill="white" stroke="black" points="175.495,-355.031 175.495,-374.031 294.495,-374.031 294.495,-355.031 175.495,-355.031"/>
<text text-anchor="middle" x="234.995" y="-362.031" font-family="Helvetica,sans-Serif" font-size="10.00">TableMetalCoolingRate</text>
</a>
</g>
</g>
<!-- Node60&#45;&gt;Node77 -->
<g id="edge25" class="edge"><title>Node60&#45;&gt;Node77</title>
<path fill="none" stroke="midnightblue" d="M288.52,-294.815C278.64,-307.683 261.058,-330.583 248.75,-346.615"/>
<polygon fill="midnightblue" stroke="midnightblue" points="245.85,-344.645 242.536,-354.708 251.402,-348.907 245.85,-344.645"/>
</g>
<!-- Node62 -->
<g id="node4" class="node"><title>Node62</title>
<g id="a_node4"><a xlink:href="cooling_8c.html#afbf748e353386bc7c718b8f000ea5dbf" target="_top" xlink:title="find_abundances_and\l_rates">
<polygon fill="white" stroke="black" points="94.1896,-115.157 94.1896,-145.157 205.19,-145.157 205.19,-115.157 94.1896,-115.157"/>
<text text-anchor="start" x="102.19" y="-133.157" font-family="Helvetica,sans-Serif" font-size="10.00">find_abundances_and</text>
<text text-anchor="middle" x="149.69" y="-122.157" font-family="Helvetica,sans-Serif" font-size="10.00">_rates</text>
</a>
</g>
</g>
<!-- Node61&#45;&gt;Node62 -->
<g id="edge3" class="edge"><title>Node61&#45;&gt;Node62</title>
<path fill="none" stroke="midnightblue" d="M378.818,-262.444C339.264,-239.608 238.334,-181.336 184.594,-150.309"/>
<polygon fill="midnightblue" stroke="midnightblue" points="186.173,-147.179 175.762,-145.21 182.673,-153.241 186.173,-147.179"/>
</g>
<!-- Node68 -->
<g id="node10" class="node"><title>Node68</title>
<g id="a_node10"><a xlink:href="cooling_8c.html#a9f80a0acc810f34877d2253785959d2f" target="_top" xlink:title="he_reion_factor">
<polygon fill="white" stroke="black" points="421.474,-287.095 421.474,-306.095 504.474,-306.095 504.474,-287.095 421.474,-287.095"/>
<text text-anchor="middle" x="462.974" y="-294.095" font-family="Helvetica,sans-Serif" font-size="10.00">he_reion_factor</text>
</a>
</g>
</g>
<!-- Node61&#45;&gt;Node68 -->
<g id="edge10" class="edge"><title>Node61&#45;&gt;Node68</title>
<path fill="none" stroke="midnightblue" d="M421.668,-281.561C423.351,-282.174 425.061,-282.796 426.779,-283.421"/>
<polygon fill="midnightblue" stroke="midnightblue" points="425.988,-286.858 436.582,-286.989 428.382,-280.28 425.988,-286.858"/>
</g>
<!-- Node69 -->
<g id="node11" class="node"><title>Node69</title>
<g id="a_node11"><a xlink:href="cooling_8c.html#a2376b91ae81e2c073e274e60258037aa" target="_top" xlink:title="InitUVF">
<polygon fill="white" stroke="black" points="260.005,-71.4062 260.005,-90.4062 310.005,-90.4062 310.005,-71.4062 260.005,-71.4062"/>
<text text-anchor="middle" x="285.005" y="-78.4062" font-family="Helvetica,sans-Serif" font-size="10.00">InitUVF</text>
</a>
</g>
</g>
<!-- Node61&#45;&gt;Node69 -->
<g id="edge11" class="edge"><title>Node61&#45;&gt;Node69</title>
<path fill="none" stroke="midnightblue" d="M389.694,-262.232C372.253,-232.023 318.856,-139.537 295.796,-99.5967"/>
<polygon fill="midnightblue" stroke="midnightblue" points="298.779,-97.7634 290.748,-90.8532 292.717,-101.263 298.779,-97.7634"/>
</g>
<!-- Node62&#45;&gt;Node63 -->
<g id="edge4" class="edge"><title>Node62&#45;&gt;Node63</title>
<path fill="none" stroke="midnightblue" d="M167.749,-145.311C173.407,-150.058 179.673,-155.316 185.42,-160.138"/>
<polygon fill="midnightblue" stroke="midnightblue" points="183.427,-163.035 193.337,-166.782 187.926,-157.673 183.427,-163.035"/>
</g>
<!-- Node62&#45;&gt;Node67 -->
<g id="edge8" class="edge"><title>Node62&#45;&gt;Node67</title>
<path fill="none" stroke="midnightblue" d="M189.187,-145.234C221.02,-157.386 265.242,-174.267 295.076,-185.655"/>
<polygon fill="midnightblue" stroke="midnightblue" points="294.012,-188.996 304.603,-189.292 296.508,-182.456 294.012,-188.996"/>
</g>
<!-- Node64 -->
<g id="node6" class="node"><title>Node64</title>
<g id="a_node6"><a xlink:href="endrun_8c.html#a7267113a7c0a094743bb565eabc695d1" target="_top" xlink:title="messagev">
<polygon fill="white" stroke="black" points="93.6843,-262.469 93.6843,-281.469 155.684,-281.469 155.684,-262.469 93.6843,-262.469"/>
<text text-anchor="middle" x="124.684" y="-269.469" font-family="Helvetica,sans-Serif" font-size="10.00">messagev</text>
</a>
</g>
</g>
<!-- Node63&#45;&gt;Node64 -->
<g id="edge5" class="edge"><title>Node63&#45;&gt;Node64</title>
<path fill="none" stroke="midnightblue" d="M196.866,-185.947C183.49,-201.887 156.351,-234.23 139.427,-254.399"/>
<polygon fill="midnightblue" stroke="midnightblue" points="136.617,-252.304 132.87,-262.214 141.979,-256.804 136.617,-252.304"/>
</g>
<!-- Node65 -->
<g id="node7" class="node"><title>Node65</title>
<g id="a_node7"><a xlink:href="endrun_8c.html#a87108946670b4c3afbe846c6726675ff" target="_top" xlink:title="putline">
<polygon fill="white" stroke="black" points="72.0344,-352.061 72.0344,-371.061 117.034,-371.061 117.034,-352.061 72.0344,-352.061"/>
<text text-anchor="middle" x="94.5344" y="-359.061" font-family="Helvetica,sans-Serif" font-size="10.00">putline</text>
</a>
</g>
</g>
<!-- Node64&#45;&gt;Node65 -->
<g id="edge6" class="edge"><title>Node64&#45;&gt;Node65</title>
<path fill="none" stroke="midnightblue" d="M121.458,-281.557C116.584,-296.039 107.247,-323.784 100.954,-342.485"/>
<polygon fill="midnightblue" stroke="midnightblue" points="97.6101,-341.448 97.7378,-352.042 104.245,-343.68 97.6101,-341.448"/>
</g>
<!-- Node66 -->
<g id="node8" class="node"><title>Node66</title>
<g id="a_node8"><a xlink:href="endrun_8c.html#a1200f02a595ab7cbe17c9e36ff32af0f" target="_top" xlink:title="show_backtrace">
<polygon fill="white" stroke="black" points="-2.84217e-14,-213.218 -2.84217e-14,-232.218 88,-232.218 88,-213.218 -2.84217e-14,-213.218"/>
<text text-anchor="middle" x="44" y="-220.218" font-family="Helvetica,sans-Serif" font-size="10.00">show_backtrace</text>
</a>
</g>
</g>
<!-- Node64&#45;&gt;Node66 -->
<g id="edge7" class="edge"><title>Node64&#45;&gt;Node66</title>
<path fill="none" stroke="midnightblue" d="M108.744,-262.239C97.1762,-255.178 81.3213,-245.5 68.1967,-237.489"/>
<polygon fill="midnightblue" stroke="midnightblue" points="69.992,-234.484 59.633,-232.261 66.3449,-240.459 69.992,-234.484"/>
</g>
<!-- Node67&#45;&gt;Node64 -->
<g id="edge9" class="edge"><title>Node67&#45;&gt;Node64</title>
<path fill="none" stroke="midnightblue" d="M304.374,-206.568C269.091,-219.41 201.81,-243.898 160.336,-258.993"/>
<polygon fill="midnightblue" stroke="midnightblue" points="159.088,-255.723 150.888,-262.432 161.482,-262.301 159.088,-255.723"/>
</g>
<!-- Node69&#45;&gt;Node63 -->
<g id="edge12" class="edge"><title>Node69&#45;&gt;Node63</title>
<path fill="none" stroke="midnightblue" d="M277.026,-90.4154C263.651,-106.355 236.512,-138.699 219.588,-158.868"/>
<polygon fill="midnightblue" stroke="midnightblue" points="216.777,-156.772 213.03,-166.683 222.139,-161.272 216.777,-156.772"/>
</g>
<!-- Node69&#45;&gt;Node67 -->
<g id="edge17" class="edge"><title>Node69&#45;&gt;Node67</title>
<path fill="none" stroke="midnightblue" d="M288.496,-90.4961C295.494,-109.724 311.361,-153.316 320.607,-178.721"/>
<polygon fill="midnightblue" stroke="midnightblue" points="317.41,-180.171 324.119,-188.371 323.988,-177.777 317.41,-180.171"/>
</g>
<!-- Node70 -->
<g id="node12" class="node"><title>Node70</title>
<g id="a_node12"><a xlink:href="cooling_8c.html#a699118238135c50feda6b32348cf3106" target="_top" xlink:title="h5readdouble">
<polygon fill="white" stroke="black" points="358.316,-163.968 358.316,-182.968 432.316,-182.968 432.316,-163.968 358.316,-163.968"/>
<text text-anchor="middle" x="395.316" y="-170.968" font-family="Helvetica,sans-Serif" font-size="10.00">h5readdouble</text>
</a>
</g>
</g>
<!-- Node69&#45;&gt;Node70 -->
<g id="edge13" class="edge"><title>Node69&#45;&gt;Node70</title>
<path fill="none" stroke="midnightblue" d="M296.395,-90.4632C315.221,-106.26 353.033,-137.988 376.068,-157.316"/>
<polygon fill="midnightblue" stroke="midnightblue" points="373.913,-160.077 383.823,-163.824 378.412,-154.715 373.913,-160.077"/>
</g>
<!-- Node71 -->
<g id="node13" class="node"><title>Node71</title>
<g id="a_node13"><a xlink:href="interp_8c.html#a3d1d9b0250b6e9ea65e2c45da82ecd56" target="_top" xlink:title="interp_init">
<polygon fill="white" stroke="black" points="192.992,-0.5 192.992,-19.5 251.992,-19.5 251.992,-0.5 192.992,-0.5"/>
<text text-anchor="middle" x="222.492" y="-7.5" font-family="Helvetica,sans-Serif" font-size="10.00">interp_init</text>
</a>
</g>
</g>
<!-- Node69&#45;&gt;Node71 -->
<g id="edge15" class="edge"><title>Node69&#45;&gt;Node71</title>
<path fill="none" stroke="midnightblue" d="M276.575,-71.3434C266.749,-60.1991 250.308,-41.5502 238.127,-27.7339"/>
<polygon fill="midnightblue" stroke="midnightblue" points="240.429,-25.0526 231.19,-19.8662 235.178,-29.6819 240.429,-25.0526"/>
</g>
<!-- Node72 -->
<g id="node14" class="node"><title>Node72</title>
<g id="a_node14"><a xlink:href="interp_8c.html#ac22328bc7b7411b4a29d1644dfac2a62" target="_top" xlink:title="interp_init_dim">
<polygon fill="white" stroke="black" points="328,-26.157 328,-45.157 408,-45.157 408,-26.157 328,-26.157"/>
<text text-anchor="middle" x="368" y="-33.157" font-family="Helvetica,sans-Serif" font-size="10.00">interp_init_dim</text>
</a>
</g>
</g>
<!-- Node69&#45;&gt;Node72 -->
<g id="edge16" class="edge"><title>Node69&#45;&gt;Node72</title>
<path fill="none" stroke="midnightblue" d="M302.606,-71.31C313.94,-65.1308 328.881,-56.9849 341.62,-50.0393"/>
<polygon fill="midnightblue" stroke="midnightblue" points="343.32,-53.0992 350.424,-45.2393 339.969,-46.9533 343.32,-53.0992"/>
</g>
<!-- Node73 -->
<g id="node15" class="node"><title>Node73</title>
<g id="a_node15"><a xlink:href="interp_8c.html#a122801a20f7bc02d225659574ce6ed1f" target="_top" xlink:title="interp_eval">
<polygon fill="white" stroke="black" points="190.492,-425.937 190.492,-444.937 254.492,-444.937 254.492,-425.937 190.492,-425.937"/>
<text text-anchor="middle" x="222.492" y="-432.937" font-family="Helvetica,sans-Serif" font-size="10.00">interp_eval</text>
</a>
</g>
</g>
<!-- Node69&#45;&gt;Node73 -->
<g id="edge18" class="edge"><title>Node69&#45;&gt;Node73</title>
<path fill="none" stroke="midnightblue" d="M283.268,-90.7584C274.768,-138.966 237.501,-350.317 225.931,-415.934"/>
<polygon fill="midnightblue" stroke="midnightblue" points="222.481,-415.343 224.191,-425.799 229.375,-416.559 222.481,-415.343"/>
</g>
<!-- Node70&#45;&gt;Node67 -->
<g id="edge14" class="edge"><title>Node70&#45;&gt;Node67</title>
<path fill="none" stroke="midnightblue" d="M368.964,-183.059C366.181,-184.072 363.327,-185.11 360.483,-186.146"/>
<polygon fill="midnightblue" stroke="midnightblue" points="359.165,-182.901 350.966,-189.61 361.56,-189.478 359.165,-182.901"/>
</g>
<!-- Node74 -->
<g id="node16" class="node"><title>Node74</title>
<g id="a_node16"><a xlink:href="interp_8c.html#a6aed1ca33077431a63a03015b419ccf8" target="_top" xlink:title="linearindex">
<polygon fill="white" stroke="black" points="178.489,-496.843 178.489,-515.843 241.489,-515.843 241.489,-496.843 178.489,-496.843"/>
<text text-anchor="middle" x="209.989" y="-503.843" font-family="Helvetica,sans-Serif" font-size="10.00">linearindex</text>
</a>
</g>
</g>
<!-- Node73&#45;&gt;Node74 -->
<g id="edge19" class="edge"><title>Node73&#45;&gt;Node74</title>
<path fill="none" stroke="midnightblue" d="M220.806,-445C218.933,-455.618 215.86,-473.05 213.466,-486.623"/>
<polygon fill="midnightblue" stroke="midnightblue" points="210.019,-486.021 211.729,-496.477 216.912,-487.237 210.019,-486.021"/>
</g>
<!-- Node75&#45;&gt;Node62 -->
<g id="edge21" class="edge"><title>Node75&#45;&gt;Node62</title>
<path fill="none" stroke="midnightblue" d="M323.931,-337.81C296.823,-305.504 208.512,-200.259 169.048,-153.228"/>
<polygon fill="midnightblue" stroke="midnightblue" points="171.601,-150.825 162.492,-145.414 166.238,-155.324 171.601,-150.825"/>
</g>
<!-- Node75&#45;&gt;Node63 -->
<g id="edge23" class="edge"><title>Node75&#45;&gt;Node63</title>
<path fill="none" stroke="midnightblue" d="M324.799,-337.743C304.167,-309.999 244.613,-229.914 217.984,-194.106"/>
<polygon fill="midnightblue" stroke="midnightblue" points="220.742,-191.95 211.967,-186.015 215.125,-196.128 220.742,-191.95"/>
</g>
<!-- Node75&#45;&gt;Node67 -->
<g id="edge24" class="edge"><title>Node75&#45;&gt;Node67</title>
<path fill="none" stroke="midnightblue" d="M331.715,-337.628C331.01,-313.365 329.171,-250.121 328.23,-217.772"/>
<polygon fill="midnightblue" stroke="midnightblue" points="331.727,-217.627 327.938,-207.733 324.73,-217.831 331.727,-217.627"/>
</g>
<!-- Node76 -->
<g id="node18" class="node"><title>Node76</title>
<g id="a_node18"><a xlink:href="allvars_8h.html#a320153e129e2fe4833e5b43935499d3e" target="_top" xlink:title="DMAX">
<polygon fill="white" stroke="black" points="345,-400.28 345,-419.28 391,-419.28 391,-400.28 345,-400.28"/>
<text text-anchor="middle" x="368" y="-407.28" font-family="Helvetica,sans-Serif" font-size="10.00">DMAX</text>
</a>
</g>
</g>
<!-- Node75&#45;&gt;Node76 -->
<g id="edge22" class="edge"><title>Node75&#45;&gt;Node76</title>
<path fill="none" stroke="midnightblue" d="M337.625,-357.169C342.825,-366.176 350.697,-379.81 357.123,-390.941"/>
<polygon fill="midnightblue" stroke="midnightblue" points="354.265,-392.99 362.296,-399.9 360.327,-389.49 354.265,-392.99"/>
</g>
<!-- Node77&#45;&gt;Node73 -->
<g id="edge26" class="edge"><title>Node77&#45;&gt;Node73</title>
<path fill="none" stroke="midnightblue" d="M233.308,-374.094C231.436,-384.712 228.362,-402.144 225.969,-415.717"/>
<polygon fill="midnightblue" stroke="midnightblue" points="222.521,-415.115 224.232,-425.571 229.415,-416.33 222.521,-415.115"/>
</g>
</g>
</svg>
        <g id="navigator" transform="translate(0 0)" fill="#404254">
                <rect fill="#f2f5e9" fill-opacity="0.5" stroke="#606060" stroke-width=".5" x="0" y="0" width="60" height="60"/>
                <use id="zoomplus" xlink:href="#zoomPlus" x="17" y="9" onmousedown="handleZoom(evt,'in')"/>
                <use id="zoomminus" xlink:href="#zoomMin" x="42" y="9" onmousedown="handleZoom(evt,'out')"/>
                <use id="reset" xlink:href="#resetDef" x="30" y="36" onmousedown="handleReset()"/>
                <g id="arrowUp" xlink:href="#dirArrow" transform="translate(30 24)" onmousedown="handlePan(0,-1)">
                  <use xlink:href="#rim" fill="#404040">
                        <set attributeName="fill" to="#808080" begin="arrowUp.mouseover" end="arrowUp.mouseout"/>
                  </use>
                  <path fill="none" stroke="white" stroke-width="1.5" d="M0,-3.0v7 M-2.5,-0.5L0,-3.0L2.5,-0.5"/>
                </g>
                <g id="arrowRight" xlink:href="#dirArrow" transform="rotate(90) translate(36 -43)" onmousedown="handlePan(1,0)">
                  <use xlink:href="#rim" fill="#404040">
                        <set attributeName="fill" to="#808080" begin="arrowRight.mouseover" end="arrowRight.mouseout"/>
                  </use>
                  <path fill="none" stroke="white" stroke-width="1.5" d="M0,-3.0v7 M-2.5,-0.5L0,-3.0L2.5,-0.5"/>
                </g>
                <g id="arrowDown" xlink:href="#dirArrow" transform="rotate(180) translate(-30 -48)" onmousedown="handlePan(0,1)">
                  <use xlink:href="#rim" fill="#404040">
                        <set attributeName="fill" to="#808080" begin="arrowDown.mouseover" end="arrowDown.mouseout"/>
                  </use>
                  <path fill="none" stroke="white" stroke-width="1.5" d="M0,-3.0v7 M-2.5,-0.5L0,-3.0L2.5,-0.5"/>
                </g>
                <g id="arrowLeft" xlink:href="#dirArrow" transform="rotate(270) translate(-36 17)" onmousedown="handlePan(-1,0)">
                  <use xlink:href="#rim" fill="#404040">
                        <set attributeName="fill" to="#808080" begin="arrowLeft.mouseover" end="arrowLeft.mouseout"/>
                  </use>
                  <path fill="none" stroke="white" stroke-width="1.5" d="M0,-3.0v7 M-2.5,-0.5L0,-3.0L2.5,-0.5"/>
                </g>
        </g>
        <svg viewBox="0 0 15 15" width="100%" height="30px" preserveAspectRatio="xMaxYMin meet">
         <g id="arrow_out" transform="scale(0.3 0.3)">
          <a xlink:href="cooling_8c_a89d3440e3ecc1e262536d6c47a301c3e_cgraph_org.svg" target="_base">
           <rect id="button" ry="5" rx="5" y="6" x="6" height="38" width="38"
                fill="#f2f5e9" fill-opacity="0.5" stroke="#606060" stroke-width="1.0"/>
           <path id="arrow"
             d="M 11.500037,31.436501 C 11.940474,20.09759 22.043105,11.32322 32.158766,21.979434 L 37.068811,17.246167 C 37.068811,17.246167 37.088388,32 37.088388,32 L 22.160133,31.978069 C 22.160133,31.978069 26.997745,27.140456 26.997745,27.140456 C 18.528582,18.264221 13.291696,25.230495 11.500037,31.436501 z"
             style="fill:#404040;"/>
          </a>
         </g>
        </svg>
</svg>
