<?xml version="1.0" encoding="UTF-8" standalone="no"?>
<!DOCTYPE svg PUBLIC "-//W3C//DTD SVG 1.1//EN"
 "http://www.w3.org/Graphics/SVG/1.1/DTD/svg11.dtd">
<!-- Generated by graphviz version 2.38.0 (20140413.2041)
 -->
<!-- Title: InitCool Pages: 1 -->
<svg width="451pt" height="428pt"
 viewBox="0.00 0.00 450.94 427.78" xmlns="http://www.w3.org/2000/svg" xmlns:xlink="http://www.w3.org/1999/xlink">
<g id="graph0" class="graph" transform="scale(1 1) rotate(0) translate(4 423.78)">
<title>InitCool</title>
<polygon fill="white" stroke="none" points="-4,4 -4,-423.78 446.939,-423.78 446.939,4 -4,4"/>
<!-- Node198 -->
<g id="node1" class="node"><title>Node198</title>
<polygon fill="#bfbfbf" stroke="black" points="111.466,-88.5108 111.466,-107.511 161.466,-107.511 161.466,-88.5108 111.466,-88.5108"/>
<text text-anchor="middle" x="136.466" y="-95.5108" font-family="Helvetica,sans-Serif" font-size="10.00">InitCool</text>
</g>
<!-- Node199 -->
<g id="node2" class="node"><title>Node199</title>
<g id="a_node2"><a xlink:href="cooling_8c.html#a8811aa6b7b911f49073fe1bff5426e30" target="_top" xlink:title="InitCoolMemory">
<polygon fill="white" stroke="black" points="7.10543e-15,-74.3764 7.10543e-15,-93.3764 86,-93.3764 86,-74.3764 7.10543e-15,-74.3764"/>
<text text-anchor="middle" x="43" y="-81.3764" font-family="Helvetica,sans-Serif" font-size="10.00">InitCoolMemory</text>
</a>
</g>
</g>
<!-- Node198&#45;&gt;Node199 -->
<g id="edge1" class="edge"><title>Node198&#45;&gt;Node199</title>
<path fill="none" stroke="midnightblue" d="M111.419,-94.223C106.674,-93.5055 101.545,-92.73 96.3047,-91.9374"/>
<polygon fill="midnightblue" stroke="midnightblue" points="96.57,-88.4378 86.1591,-90.4031 95.5233,-95.3591 96.57,-88.4378"/>
</g>
<!-- Node200 -->
<g id="node3" class="node"><title>Node200</title>
<g id="a_node3"><a xlink:href="cooling_8c.html#a326e770a9a01730d251ba08ae8cc321f" target="_top" xlink:title="InitMetalCooling">
<polygon fill="white" stroke="black" points="97.3077,-188.593 97.3077,-207.593 184.308,-207.593 184.308,-188.593 97.3077,-188.593"/>
<text text-anchor="middle" x="140.808" y="-195.593" font-family="Helvetica,sans-Serif" font-size="10.00">InitMetalCooling</text>
</a>
</g>
</g>
<!-- Node198&#45;&gt;Node200 -->
<g id="edge2" class="edge"><title>Node198&#45;&gt;Node200</title>
<path fill="none" stroke="midnightblue" d="M136.882,-107.607C137.584,-123.781 139.016,-156.792 139.943,-178.155"/>
<polygon fill="midnightblue" stroke="midnightblue" points="136.456,-178.54 140.386,-188.379 143.449,-178.236 136.456,-178.54"/>
</g>
<!-- Node208 -->
<g id="node11" class="node"><title>Node208</title>
<g id="a_node11"><a xlink:href="cooling_8c.html#a2376b91ae81e2c073e274e60258037aa" target="_top" xlink:title="InitUVF">
<polygon fill="white" stroke="black" points="238.621,-166.938 238.621,-185.938 288.621,-185.938 288.621,-166.938 238.621,-166.938"/>
<text text-anchor="middle" x="263.621" y="-173.938" font-family="Helvetica,sans-Serif" font-size="10.00">InitUVF</text>
</a>
</g>
</g>
<!-- Node198&#45;&gt;Node208 -->
<g id="edge11" class="edge"><title>Node198&#45;&gt;Node208</title>
<path fill="none" stroke="midnightblue" d="M152.057,-107.628C173.793,-121.033 213.417,-145.473 239.12,-161.326"/>
<polygon fill="midnightblue" stroke="midnightblue" points="237.553,-164.472 247.902,-166.742 241.228,-158.514 237.553,-164.472"/>
</g>
<!-- Node209 -->
<g id="node12" class="node"><title>Node209</title>
<g id="a_node12"><a xlink:href="endrun_8c.html#a6567cd867c5549fb6586e19ccd819764" target="_top" xlink:title="message">
<polygon fill="white" stroke="black" points="252.466,-88.5108 252.466,-107.511 308.466,-107.511 308.466,-88.5108 252.466,-88.5108"/>
<text text-anchor="middle" x="280.466" y="-95.5108" font-family="Helvetica,sans-Serif" font-size="10.00">message</text>
</a>
</g>
</g>
<!-- Node198&#45;&gt;Node209 -->
<g id="edge21" class="edge"><title>Node198&#45;&gt;Node209</title>
<path fill="none" stroke="midnightblue" d="M161.548,-98.0108C183.787,-98.0108 216.601,-98.0108 242.13,-98.0108"/>
<polygon fill="midnightblue" stroke="midnightblue" points="242.22,-101.511 252.22,-98.0108 242.22,-94.5109 242.22,-101.511"/>
</g>
<!-- Node212 -->
<g id="node15" class="node"><title>Node212</title>
<g id="a_node15"><a xlink:href="cooling_8c.html#a14aeab8afa1a6425bb619362496ae143" target="_top" xlink:title="MakeCoolingTable">
<polygon fill="white" stroke="black" points="121.958,-0.5 121.958,-19.5 219.958,-19.5 219.958,-0.5 121.958,-0.5"/>
<text text-anchor="middle" x="170.958" y="-7.5" font-family="Helvetica,sans-Serif" font-size="10.00">MakeCoolingTable</text>
</a>
</g>
</g>
<!-- Node198&#45;&gt;Node212 -->
<g id="edge20" class="edge"><title>Node198&#45;&gt;Node212</title>
<path fill="none" stroke="midnightblue" d="M140.289,-88.2558C145.886,-73.9726 156.421,-47.0908 163.564,-28.8657"/>
<polygon fill="midnightblue" stroke="midnightblue" points="166.832,-30.1188 167.222,-19.5311 160.315,-27.5645 166.832,-30.1188"/>
</g>
<!-- Node213 -->
<g id="node16" class="node"><title>Node213</title>
<g id="a_node16"><a xlink:href="cooling_8c.html#a3f254f8f8b266123110343b938a67fe2" target="_top" xlink:title="ReadIonizeParams">
<polygon fill="white" stroke="black" points="133.46,-355.031 133.46,-374.031 233.46,-374.031 233.46,-355.031 133.46,-355.031"/>
<text text-anchor="middle" x="183.46" y="-362.031" font-family="Helvetica,sans-Serif" font-size="10.00">ReadIonizeParams</text>
</a>
</g>
</g>
<!-- Node198&#45;&gt;Node213 -->
<g id="edge22" class="edge"><title>Node198&#45;&gt;Node213</title>
<path fill="none" stroke="midnightblue" d="M138.194,-107.812C145.075,-146.835 170.6,-291.597 179.976,-344.773"/>
<polygon fill="midnightblue" stroke="midnightblue" points="176.582,-345.681 181.766,-354.921 183.476,-344.465 176.582,-345.681"/>
</g>
<!-- Node201 -->
<g id="node4" class="node"><title>Node201</title>
<g id="a_node4"><a xlink:href="cooling_8c.html#a699118238135c50feda6b32348cf3106" target="_top" xlink:title="h5readdouble">
<polygon fill="white" stroke="black" points="171.466,-213.218 171.466,-232.218 245.466,-232.218 245.466,-213.218 171.466,-213.218"/>
<text text-anchor="middle" x="208.466" y="-220.218" font-family="Helvetica,sans-Serif" font-size="10.00">h5readdouble</text>
</a>
</g>
</g>
<!-- Node200&#45;&gt;Node201 -->
<g id="edge3" class="edge"><title>Node200&#45;&gt;Node201</title>
<path fill="none" stroke="midnightblue" d="M167.16,-207.684C168.843,-208.297 170.553,-208.919 172.271,-209.545"/>
<polygon fill="midnightblue" stroke="midnightblue" points="171.48,-212.981 182.074,-213.113 173.874,-206.404 171.48,-212.981"/>
</g>
<!-- Node202 -->
<g id="node5" class="node"><title>Node202</title>
<g id="a_node5"><a xlink:href="endrun_8c.html#ad963d7efdb9f10f7a2298c8ccd222ab0" target="_top" xlink:title="endrun">
<polygon fill="white" stroke="black" points="221.466,-275.572 221.466,-294.572 267.466,-294.572 267.466,-275.572 221.466,-275.572"/>
<text text-anchor="middle" x="244.466" y="-282.572" font-family="Helvetica,sans-Serif" font-size="10.00">endrun</text>
</a>
</g>
</g>
<!-- Node200&#45;&gt;Node202 -->
<g id="edge8" class="edge"><title>Node200&#45;&gt;Node202</title>
<path fill="none" stroke="midnightblue" d="M152.297,-207.734C169.887,-222.494 203.701,-250.867 225.118,-268.838"/>
<polygon fill="midnightblue" stroke="midnightblue" points="223.015,-271.642 232.925,-275.388 227.514,-266.279 223.015,-271.642"/>
</g>
<!-- Node206 -->
<g id="node9" class="node"><title>Node206</title>
<g id="a_node9"><a xlink:href="interp_8c.html#a3d1d9b0250b6e9ea65e2c45da82ecd56" target="_top" xlink:title="interp_init">
<polygon fill="white" stroke="black" points="68.6552,-305.78 68.6552,-324.78 127.655,-324.78 127.655,-305.78 68.6552,-305.78"/>
<text text-anchor="middle" x="98.1552" y="-312.78" font-family="Helvetica,sans-Serif" font-size="10.00">interp_init</text>
</a>
</g>
</g>
<!-- Node200&#45;&gt;Node206 -->
<g id="edge9" class="edge"><title>Node200&#45;&gt;Node206</title>
<path fill="none" stroke="midnightblue" d="M137.317,-207.683C130.319,-226.911 114.453,-270.503 105.206,-295.908"/>
<polygon fill="midnightblue" stroke="midnightblue" points="101.825,-294.963 101.694,-305.557 108.403,-297.358 101.825,-294.963"/>
</g>
<!-- Node207 -->
<g id="node10" class="node"><title>Node207</title>
<g id="a_node10"><a xlink:href="interp_8c.html#ac22328bc7b7411b4a29d1644dfac2a62" target="_top" xlink:title="interp_init_dim">
<polygon fill="white" stroke="black" points="24.4656,-213.218 24.4656,-232.218 104.466,-232.218 104.466,-213.218 24.4656,-213.218"/>
<text text-anchor="middle" x="64.4656" y="-220.218" font-family="Helvetica,sans-Serif" font-size="10.00">interp_init_dim</text>
</a>
</g>
</g>
<!-- Node200&#45;&gt;Node207 -->
<g id="edge10" class="edge"><title>Node200&#45;&gt;Node207</title>
<path fill="none" stroke="midnightblue" d="M111.073,-207.684C108.619,-208.476 106.115,-209.284 103.606,-210.093"/>
<polygon fill="midnightblue" stroke="midnightblue" points="102.436,-206.793 93.9934,-213.194 104.585,-213.455 102.436,-206.793"/>
</g>
<!-- Node201&#45;&gt;Node202 -->
<g id="edge4" class="edge"><title>Node201&#45;&gt;Node202</title>
<path fill="none" stroke="midnightblue" d="M214.091,-232.461C219.291,-241.468 227.162,-255.102 233.589,-266.233"/>
<polygon fill="midnightblue" stroke="midnightblue" points="230.73,-268.282 238.761,-275.192 236.792,-264.782 230.73,-268.282"/>
</g>
<!-- Node203 -->
<g id="node6" class="node"><title>Node203</title>
<g id="a_node6"><a xlink:href="endrun_8c.html#a7267113a7c0a094743bb565eabc695d1" target="_top" xlink:title="messagev">
<polygon fill="white" stroke="black" points="287.776,-305.78 287.776,-324.78 349.776,-324.78 349.776,-305.78 287.776,-305.78"/>
<text text-anchor="middle" x="318.776" y="-312.78" font-family="Helvetica,sans-Serif" font-size="10.00">messagev</text>
</a>
</g>
</g>
<!-- Node202&#45;&gt;Node203 -->
<g id="edge5" class="edge"><title>Node202&#45;&gt;Node203</title>
<path fill="none" stroke="midnightblue" d="M267.571,-294.465C273.33,-296.806 279.618,-299.362 285.754,-301.856"/>
<polygon fill="midnightblue" stroke="midnightblue" points="284.591,-305.162 295.173,-305.685 287.227,-298.677 284.591,-305.162"/>
</g>
<!-- Node204 -->
<g id="node7" class="node"><title>Node204</title>
<g id="a_node7"><a xlink:href="endrun_8c.html#a87108946670b4c3afbe846c6726675ff" target="_top" xlink:title="putline">
<polygon fill="white" stroke="black" points="388.939,-287.095 388.939,-306.095 433.939,-306.095 433.939,-287.095 388.939,-287.095"/>
<text text-anchor="middle" x="411.439" y="-294.095" font-family="Helvetica,sans-Serif" font-size="10.00">putline</text>
</a>
</g>
</g>
<!-- Node203&#45;&gt;Node204 -->
<g id="edge6" class="edge"><title>Node203&#45;&gt;Node204</title>
<path fill="none" stroke="midnightblue" d="M349.889,-309.006C359.233,-307.122 369.506,-305.05 378.938,-303.149"/>
<polygon fill="midnightblue" stroke="midnightblue" points="379.647,-306.576 388.757,-301.169 378.263,-299.714 379.647,-306.576"/>
</g>
<!-- Node205 -->
<g id="node8" class="node"><title>Node205</title>
<g id="a_node8"><a xlink:href="endrun_8c.html#a1200f02a595ab7cbe17c9e36ff32af0f" target="_top" xlink:title="show_backtrace">
<polygon fill="white" stroke="black" points="272.466,-400.28 272.466,-419.28 360.466,-419.28 360.466,-400.28 272.466,-400.28"/>
<text text-anchor="middle" x="316.466" y="-407.28" font-family="Helvetica,sans-Serif" font-size="10.00">show_backtrace</text>
</a>
</g>
</g>
<!-- Node203&#45;&gt;Node205 -->
<g id="edge7" class="edge"><title>Node203&#45;&gt;Node205</title>
<path fill="none" stroke="midnightblue" d="M318.537,-325.037C318.164,-340.325 317.433,-370.226 316.947,-390.107"/>
<polygon fill="midnightblue" stroke="midnightblue" points="313.445,-390.134 316.699,-400.217 320.443,-390.305 313.445,-390.134"/>
</g>
<!-- Node208&#45;&gt;Node201 -->
<g id="edge14" class="edge"><title>Node208&#45;&gt;Node201</title>
<path fill="none" stroke="midnightblue" d="M252.193,-186.027C245.093,-191.984 235.789,-199.792 227.589,-206.672"/>
<polygon fill="midnightblue" stroke="midnightblue" points="225.29,-204.032 219.879,-213.141 229.789,-209.395 225.29,-204.032"/>
</g>
<!-- Node208&#45;&gt;Node202 -->
<g id="edge17" class="edge"><title>Node208&#45;&gt;Node202</title>
<path fill="none" stroke="midnightblue" d="M261.921,-186.078C258.791,-203.83 252.059,-242.01 247.93,-265.424"/>
<polygon fill="midnightblue" stroke="midnightblue" points="244.479,-264.841 246.189,-275.297 251.373,-266.057 244.479,-264.841"/>
</g>
<!-- Node208&#45;&gt;Node206 -->
<g id="edge15" class="edge"><title>Node208&#45;&gt;Node206</title>
<path fill="none" stroke="midnightblue" d="M252.248,-185.981C224.381,-209.364 152.437,-269.732 117.612,-298.953"/>
<polygon fill="midnightblue" stroke="midnightblue" points="115.019,-296.561 109.608,-305.67 119.518,-301.923 115.019,-296.561"/>
</g>
<!-- Node208&#45;&gt;Node207 -->
<g id="edge16" class="edge"><title>Node208&#45;&gt;Node207</title>
<path fill="none" stroke="midnightblue" d="M238.398,-182.299C207.394,-189.504 154.046,-201.901 114.587,-211.071"/>
<polygon fill="midnightblue" stroke="midnightblue" points="113.57,-207.714 104.622,-213.387 115.154,-214.532 113.57,-207.714"/>
</g>
<!-- Node208&#45;&gt;Node209 -->
<g id="edge12" class="edge"><title>Node208&#45;&gt;Node209</title>
<path fill="none" stroke="midnightblue" d="M265.686,-166.821C268.288,-154.709 272.824,-133.589 276.187,-117.934"/>
<polygon fill="midnightblue" stroke="midnightblue" points="279.705,-118.218 278.383,-107.706 272.861,-116.748 279.705,-118.218"/>
</g>
<!-- Node210 -->
<g id="node13" class="node"><title>Node210</title>
<g id="a_node13"><a xlink:href="interp_8c.html#a122801a20f7bc02d225659574ce6ed1f" target="_top" xlink:title="interp_eval">
<polygon fill="white" stroke="black" points="311.781,-163.968 311.781,-182.968 375.781,-182.968 375.781,-163.968 311.781,-163.968"/>
<text text-anchor="middle" x="343.781" y="-170.968" font-family="Helvetica,sans-Serif" font-size="10.00">interp_eval</text>
</a>
</g>
</g>
<!-- Node208&#45;&gt;Node210 -->
<g id="edge18" class="edge"><title>Node208&#45;&gt;Node210</title>
<path fill="none" stroke="midnightblue" d="M288.984,-175.498C292.897,-175.353 297.028,-175.2 301.194,-175.046"/>
<polygon fill="midnightblue" stroke="midnightblue" points="301.66,-178.531 311.523,-174.663 301.401,-171.536 301.66,-178.531"/>
</g>
<!-- Node209&#45;&gt;Node203 -->
<g id="edge13" class="edge"><title>Node209&#45;&gt;Node203</title>
<path fill="none" stroke="midnightblue" d="M282.161,-107.627C288.008,-140.788 307.405,-250.794 315.344,-295.815"/>
<polygon fill="midnightblue" stroke="midnightblue" points="311.917,-296.535 317.1,-305.775 318.81,-295.319 311.917,-296.535"/>
</g>
<!-- Node211 -->
<g id="node14" class="node"><title>Node211</title>
<g id="a_node14"><a xlink:href="interp_8c.html#a6aed1ca33077431a63a03015b419ccf8" target="_top" xlink:title="linearindex">
<polygon fill="white" stroke="black" points="379.939,-139.342 379.939,-158.342 442.939,-158.342 442.939,-139.342 379.939,-139.342"/>
<text text-anchor="middle" x="411.439" y="-146.342" font-family="Helvetica,sans-Serif" font-size="10.00">linearindex</text>
</a>
</g>
</g>
<!-- Node210&#45;&gt;Node211 -->
<g id="edge19" class="edge"><title>Node210&#45;&gt;Node211</title>
<path fill="none" stroke="midnightblue" d="M370.133,-163.876C371.817,-163.263 373.527,-162.641 375.244,-162.016"/>
<polygon fill="midnightblue" stroke="midnightblue" points="376.848,-165.157 385.048,-158.448 374.454,-158.579 376.848,-165.157"/>
</g>
<!-- Node213&#45;&gt;Node202 -->
<g id="edge23" class="edge"><title>Node213&#45;&gt;Node202</title>
<path fill="none" stroke="midnightblue" d="M190.941,-354.788C200.82,-341.92 218.402,-319.02 230.711,-302.988"/>
<polygon fill="midnightblue" stroke="midnightblue" points="233.61,-304.958 236.924,-294.895 228.058,-300.696 233.61,-304.958"/>
</g>
<!-- Node213&#45;&gt;Node209 -->
<g id="edge24" class="edge"><title>Node213&#45;&gt;Node209</title>
<path fill="none" stroke="midnightblue" d="M187.028,-354.729C201.29,-315.543 254.362,-169.729 273.516,-117.105"/>
<polygon fill="midnightblue" stroke="midnightblue" points="276.837,-118.215 276.968,-107.621 270.259,-115.82 276.837,-118.215"/>
</g>
</g>
</svg>
