<?xml version="1.0" encoding="UTF-8" standalone="no"?>
<!DOCTYPE svg PUBLIC "-//W3C//DTD SVG 1.1//EN"
 "http://www.w3.org/Graphics/SVG/1.1/DTD/svg11.dtd">
<!-- Generated by graphviz version 2.38.0 (20140413.2041)
 -->
<!-- Title: ConvertInternalEnergy2Temperature Pages: 1 -->
<svg width="1002pt" height="53pt"
 viewBox="0.00 0.00 1002.00 52.50" xmlns="http://www.w3.org/2000/svg" xmlns:xlink="http://www.w3.org/1999/xlink">
<g id="graph0" class="graph" transform="scale(1 1) rotate(0) translate(4 48.5)">
<title>ConvertInternalEnergy2Temperature</title>
<polygon fill="white" stroke="none" points="-4,4 -4,-48.5 998,-48.5 998,4 -4,4"/>
<!-- Node12 -->
<g id="node1" class="node"><title>Node12</title>
<polygon fill="#bfbfbf" stroke="black" points="0,-6 0,-25 174,-25 174,-6 0,-6"/>
<text text-anchor="middle" x="87" y="-13" font-family="Helvetica,sans-Serif" font-size="10.00">ConvertInternalEnergy2Temperature</text>
</g>
<!-- Node13 -->
<g id="node2" class="node"><title>Node13</title>
<g id="a_node2"><a xlink:href="global_8c.html#ae8e7beaf9e92a3759146c0554e621846" target="_top" xlink:title="compute_global_quantities\l_of_system">
<polygon fill="white" stroke="black" points="210,-0.5 210,-30.5 342,-30.5 342,-0.5 210,-0.5"/>
<text text-anchor="start" x="218" y="-18.5" font-family="Helvetica,sans-Serif" font-size="10.00">compute_global_quantities</text>
<text text-anchor="middle" x="276" y="-7.5" font-family="Helvetica,sans-Serif" font-size="10.00">_of_system</text>
</a>
</g>
</g>
<!-- Node12&#45;&gt;Node13 -->
<g id="edge1" class="edge"><title>Node12&#45;&gt;Node13</title>
<path fill="none" stroke="midnightblue" d="M184.242,-15.5C192.875,-15.5 201.476,-15.5 209.752,-15.5"/>
<polygon fill="midnightblue" stroke="midnightblue" points="184.111,-12.0001 174.111,-15.5 184.111,-19.0001 184.111,-12.0001"/>
</g>
<!-- Node14 -->
<g id="node3" class="node"><title>Node14</title>
<g id="a_node3"><a xlink:href="proto_8h.html#ae903322da17c6875ab606b032b918099" target="_top" xlink:title="energy_statistics">
<polygon fill="white" stroke="black" points="378,-6 378,-25 469,-25 469,-6 378,-6"/>
<text text-anchor="middle" x="423.5" y="-13" font-family="Helvetica,sans-Serif" font-size="10.00">energy_statistics</text>
</a>
</g>
</g>
<!-- Node13&#45;&gt;Node14 -->
<g id="edge2" class="edge"><title>Node13&#45;&gt;Node14</title>
<path fill="none" stroke="midnightblue" d="M352.342,-15.5C361.082,-15.5 369.772,-15.5 377.906,-15.5"/>
<polygon fill="midnightblue" stroke="midnightblue" points="352.09,-12.0001 342.09,-15.5 352.09,-19.0001 352.09,-12.0001"/>
</g>
<!-- Node15 -->
<g id="node4" class="node"><title>Node15</title>
<g id="a_node4"><a xlink:href="run_8c.html#abb80d08f4d52f4a7bdf28d1cecfead5b" target="_top" xlink:title="compute_accelerations">
<polygon fill="white" stroke="black" points="505,-6 505,-25 622,-25 622,-6 505,-6"/>
<text text-anchor="middle" x="563.5" y="-13" font-family="Helvetica,sans-Serif" font-size="10.00">compute_accelerations</text>
</a>
</g>
</g>
<!-- Node14&#45;&gt;Node15 -->
<g id="edge3" class="edge"><title>Node14&#45;&gt;Node15</title>
<path fill="none" stroke="midnightblue" d="M479.347,-15.5C487.728,-15.5 496.399,-15.5 504.838,-15.5"/>
<polygon fill="midnightblue" stroke="midnightblue" points="479.305,-12.0001 469.305,-15.5 479.305,-19.0001 479.305,-12.0001"/>
</g>
<!-- Node16 -->
<g id="node5" class="node"><title>Node16</title>
<g id="a_node5"><a xlink:href="run_8c.html#a05e0ffe612d44e6d7f3a9ae5b9df56a2" target="_top" xlink:title="run">
<polygon fill="white" stroke="black" points="658,-6 658,-25 688,-25 688,-6 658,-6"/>
<text text-anchor="middle" x="673" y="-13" font-family="Helvetica,sans-Serif" font-size="10.00">run</text>
</a>
</g>
</g>
<!-- Node15&#45;&gt;Node16 -->
<g id="edge4" class="edge"><title>Node15&#45;&gt;Node16</title>
<path fill="none" stroke="midnightblue" d="M632.254,-15.5C641.899,-15.5 650.897,-15.5 657.884,-15.5"/>
<polygon fill="midnightblue" stroke="midnightblue" points="632.027,-12.0001 622.027,-15.5 632.026,-19.0001 632.027,-12.0001"/>
</g>
<!-- Node17 -->
<g id="node6" class="node"><title>Node17</title>
<g id="a_node6"><a xlink:href="main_8c.html#a3c04138a5bfe5d72780bb7e82a18e627" target="_top" xlink:title="main">
<polygon fill="white" stroke="black" points="724,-25 724,-44 762,-44 762,-25 724,-25"/>
<text text-anchor="middle" x="743" y="-32" font-family="Helvetica,sans-Serif" font-size="10.00">main</text>
</a>
</g>
</g>
<!-- Node16&#45;&gt;Node17 -->
<g id="edge5" class="edge"><title>Node16&#45;&gt;Node17</title>
<path fill="none" stroke="midnightblue" d="M697.853,-22.1647C706.37,-24.5447 715.823,-27.186 723.79,-29.4119"/>
<polygon fill="midnightblue" stroke="midnightblue" points="698.663,-18.757 688.09,-19.4368 696.779,-25.4988 698.663,-18.757"/>
</g>
<!-- Node18 -->
<g id="node7" class="node"><title>Node18</title>
<g id="a_node7"><a xlink:href="walltime_8h.html#a76d2135b612766d4d665748454b879d6" target="_top" xlink:title="walltime_report">
<polygon fill="white" stroke="black" points="798,-25 798,-44 881,-44 881,-25 798,-25"/>
<text text-anchor="middle" x="839.5" y="-32" font-family="Helvetica,sans-Serif" font-size="10.00">walltime_report</text>
</a>
</g>
</g>
<!-- Node17&#45;&gt;Node18 -->
<g id="edge6" class="edge"><title>Node17&#45;&gt;Node18</title>
<path fill="none" stroke="midnightblue" d="M772.411,-34.5C780.347,-34.5 789.132,-34.5 797.635,-34.5"/>
<polygon fill="midnightblue" stroke="midnightblue" points="772.221,-31.0001 762.221,-34.5 772.221,-38.0001 772.221,-31.0001"/>
</g>
<!-- Node19 -->
<g id="node8" class="node"><title>Node19</title>
<g id="a_node8"><a xlink:href="run_8c.html#adc59e9ee1517e4e690694a64ab6a59d2" target="_top" xlink:title="write_cpu_log">
<polygon fill="white" stroke="black" points="917,-6 917,-25 994,-25 994,-6 917,-6"/>
<text text-anchor="middle" x="955.5" y="-13" font-family="Helvetica,sans-Serif" font-size="10.00">write_cpu_log</text>
</a>
</g>
</g>
<!-- Node18&#45;&gt;Node19 -->
<g id="edge7" class="edge"><title>Node18&#45;&gt;Node19</title>
<path fill="none" stroke="midnightblue" d="M891.031,-26.0782C899.684,-24.6359 908.54,-23.1601 916.785,-21.7859"/>
<polygon fill="midnightblue" stroke="midnightblue" points="890.302,-22.6514 881.013,-27.7478 891.452,-29.5561 890.302,-22.6514"/>
</g>
<!-- Node19&#45;&gt;Node16 -->
<g id="edge8" class="edge"><title>Node19&#45;&gt;Node16</title>
<path fill="none" stroke="midnightblue" d="M906.727,-15.5C841.488,-15.5 728.088,-15.5 688.296,-15.5"/>
<polygon fill="midnightblue" stroke="midnightblue" points="906.765,-19.0001 916.765,-15.5 906.765,-12.0001 906.765,-19.0001"/>
</g>
</g>
</svg>
