<?xml version="1.0" encoding="UTF-8" standalone="no"?>
<!DOCTYPE svg PUBLIC "-//W3C//DTD SVG 1.1//EN"
 "http://www.w3.org/Graphics/SVG/1.1/DTD/svg11.dtd">
<!-- Generated by graphviz version 2.50.0 (0)
 -->
<!-- Title: GetCoolingTime Pages: 1 -->
<svg width="916pt" height="960pt"
 viewBox="0.00 0.00 916.00 960.00" xmlns="http://www.w3.org/2000/svg" xmlns:xlink="http://www.w3.org/1999/xlink">
<g id="graph0" class="graph" transform="scale(1 1) rotate(0) translate(4 956)">
<title>GetCoolingTime</title>
<polygon fill="white" stroke="transparent" points="-4,4 -4,-956 912,-956 912,4 -4,4"/>
<!-- Node1 -->
<g id="node1" class="node">
<title>Node1</title>
<g id="a_node1"><a xlink:title=" ">
<polygon fill="#bfbfbf" stroke="black" points="0,-438.5 0,-457.5 95,-457.5 95,-438.5 0,-438.5"/>
<text text-anchor="middle" x="47.5" y="-445.5" font-family="Helvetica,sans-Serif" font-size="10.00">GetCoolingTime</text>
</a>
</g>
</g>
<!-- Node2 -->
<g id="node2" class="node">
<title>Node2</title>
<g id="a_node2"><a xlink:href="cooling__rates_8c.html#a95acdc83b28994ee3d85976205493223" target="_top" xlink:title=" ">
<polygon fill="white" stroke="black" points="131,-438.5 131,-457.5 265,-457.5 265,-438.5 131,-438.5"/>
<text text-anchor="middle" x="198" y="-445.5" font-family="Helvetica,sans-Serif" font-size="10.00">get_heatingcooling_rate</text>
</a>
</g>
</g>
<!-- Node1&#45;&gt;Node2 -->
<g id="edge1" class="edge">
<title>Node1&#45;&gt;Node2</title>
<path fill="none" stroke="midnightblue" d="M95.08,-448C103.21,-448 111.86,-448 120.55,-448"/>
<polygon fill="midnightblue" stroke="midnightblue" points="120.73,-451.5 130.73,-448 120.73,-444.5 120.73,-451.5"/>
</g>
<!-- Node3 -->
<g id="node3" class="node">
<title>Node3</title>
<g id="a_node3"><a xlink:href="cooling__rates_8c.html#a91f4218c7bbe44b113290f3d33dbe6a3" target="_top" xlink:title=" ">
<polygon fill="white" stroke="black" points="312,-742.5 312,-761.5 419,-761.5 419,-742.5 312,-742.5"/>
<text text-anchor="middle" x="365.5" y="-749.5" font-family="Helvetica,sans-Serif" font-size="10.00">cool_CollisionalH0</text>
</a>
</g>
</g>
<!-- Node2&#45;&gt;Node3 -->
<g id="edge2" class="edge">
<title>Node2&#45;&gt;Node3</title>
<path fill="none" stroke="midnightblue" d="M201.33,-457.73C210,-492.48 242.88,-612.8 301,-695 312.3,-710.98 328.84,-725.64 342.21,-736.09"/>
<polygon fill="midnightblue" stroke="midnightblue" points="340.36,-739.08 350.45,-742.32 344.58,-733.5 340.36,-739.08"/>
</g>
<!-- Node13 -->
<g id="node8" class="node">
<title>Node13</title>
<g id="a_node8"><a xlink:href="cooling__rates_8c.html#a505668e05dea8eb4ef19d1a1a4d2c6a0" target="_top" xlink:title=" ">
<polygon fill="white" stroke="black" points="309,-894.5 309,-913.5 422,-913.5 422,-894.5 309,-894.5"/>
<text text-anchor="middle" x="365.5" y="-901.5" font-family="Helvetica,sans-Serif" font-size="10.00">cool_CollisionalHe0</text>
</a>
</g>
</g>
<!-- Node2&#45;&gt;Node13 -->
<g id="edge7" class="edge">
<title>Node2&#45;&gt;Node13</title>
<path fill="none" stroke="midnightblue" d="M199.44,-457.77C201.95,-504.55 217.45,-709.11 301,-847 311.01,-863.53 327.31,-878.01 340.88,-888.24"/>
<polygon fill="midnightblue" stroke="midnightblue" points="339.16,-891.31 349.32,-894.33 343.26,-885.64 339.16,-891.31"/>
</g>
<!-- Node17 -->
<g id="node11" class="node">
<title>Node17</title>
<g id="a_node11"><a xlink:href="cooling__rates_8c.html#abc1474dde5a2e416ed6796f28b16ff70" target="_top" xlink:title=" ">
<polygon fill="white" stroke="black" points="309,-818.5 309,-837.5 422,-837.5 422,-818.5 309,-818.5"/>
<text text-anchor="middle" x="365.5" y="-825.5" font-family="Helvetica,sans-Serif" font-size="10.00">cool_CollisionalHeP</text>
</a>
</g>
</g>
<!-- Node2&#45;&gt;Node17 -->
<g id="edge11" class="edge">
<title>Node2&#45;&gt;Node17</title>
<path fill="none" stroke="midnightblue" d="M200.18,-457.77C205.51,-498.95 230.27,-661.27 301,-771 311.53,-787.34 327.96,-801.91 341.46,-812.23"/>
<polygon fill="midnightblue" stroke="midnightblue" points="339.69,-815.27 349.83,-818.37 343.84,-809.63 339.69,-815.27"/>
</g>
<!-- Node21 -->
<g id="node14" class="node">
<title>Node21</title>
<g id="a_node14"><a xlink:href="cooling__rates_8c.html#a0d677086155cb51baab0e974c43a670d" target="_top" xlink:title=" ">
<polygon fill="white" stroke="black" points="495.5,-495.5 495.5,-514.5 579.5,-514.5 579.5,-495.5 495.5,-495.5"/>
<text text-anchor="middle" x="537.5" y="-502.5" font-family="Helvetica,sans-Serif" font-size="10.00">cool_FreeFree</text>
</a>
</g>
</g>
<!-- Node2&#45;&gt;Node21 -->
<g id="edge15" class="edge">
<title>Node2&#45;&gt;Node21</title>
<path fill="none" stroke="midnightblue" d="M211.29,-457.65C229.59,-471.36 265.66,-495.8 301,-505 362.74,-521.08 436.72,-517.56 485.07,-512.35"/>
<polygon fill="midnightblue" stroke="midnightblue" points="485.75,-515.8 495.29,-511.19 484.95,-508.84 485.75,-515.8"/>
</g>
<!-- Node22 -->
<g id="node15" class="node">
<title>Node22</title>
<g id="a_node15"><a xlink:href="cooling__rates_8c.html#a58d19bd7da94095b5e1014ae6ff1cdd1" target="_top" xlink:title=" ">
<polygon fill="white" stroke="black" points="320.5,-476.5 320.5,-495.5 410.5,-495.5 410.5,-476.5 320.5,-476.5"/>
<text text-anchor="middle" x="365.5" y="-483.5" font-family="Helvetica,sans-Serif" font-size="10.00">cool_FreeFree1</text>
</a>
</g>
</g>
<!-- Node2&#45;&gt;Node22 -->
<g id="edge16" class="edge">
<title>Node2&#45;&gt;Node22</title>
<path fill="none" stroke="midnightblue" d="M240.76,-457.59C262.7,-462.63 289.78,-468.84 313.01,-474.18"/>
<polygon fill="midnightblue" stroke="midnightblue" points="312.51,-477.65 323.04,-476.48 314.07,-470.83 312.51,-477.65"/>
</g>
<!-- Node23 -->
<g id="node16" class="node">
<title>Node23</title>
<g id="a_node16"><a xlink:href="cooling__rates_8c.html#ab832ac86b46693520c2e624e78ae5b6f" target="_top" xlink:title=" ">
<polygon fill="white" stroke="black" points="306.5,-438.5 306.5,-457.5 424.5,-457.5 424.5,-438.5 306.5,-438.5"/>
<text text-anchor="middle" x="365.5" y="-445.5" font-family="Helvetica,sans-Serif" font-size="10.00">cool_he_reion_factor</text>
</a>
</g>
</g>
<!-- Node2&#45;&gt;Node23 -->
<g id="edge18" class="edge">
<title>Node2&#45;&gt;Node23</title>
<path fill="none" stroke="midnightblue" d="M265.36,-448C275.55,-448 286.08,-448 296.3,-448"/>
<polygon fill="midnightblue" stroke="midnightblue" points="296.4,-451.5 306.4,-448 296.4,-444.5 296.4,-451.5"/>
</g>
<!-- Node24 -->
<g id="node17" class="node">
<title>Node24</title>
<g id="a_node17"><a xlink:href="cooling__rates_8c.html#a3d5529d2fcb8110e21342e8f68253df9" target="_top" xlink:title=" ">
<polygon fill="white" stroke="black" points="304.5,-400.5 304.5,-419.5 426.5,-419.5 426.5,-400.5 304.5,-400.5"/>
<text text-anchor="middle" x="365.5" y="-407.5" font-family="Helvetica,sans-Serif" font-size="10.00">cool_InverseCompton</text>
</a>
</g>
</g>
<!-- Node2&#45;&gt;Node24 -->
<g id="edge19" class="edge">
<title>Node2&#45;&gt;Node24</title>
<path fill="none" stroke="midnightblue" d="M240.76,-438.41C262.7,-433.37 289.78,-427.16 313.01,-421.82"/>
<polygon fill="midnightblue" stroke="midnightblue" points="314.07,-425.17 323.04,-419.52 312.51,-418.35 314.07,-425.17"/>
</g>
<!-- Node25 -->
<g id="node18" class="node">
<title>Node25</title>
<g id="a_node18"><a xlink:href="cooling__rates_8c.html#a92e49211024227d1d978741626688bfd" target="_top" xlink:title=" ">
<polygon fill="white" stroke="black" points="315,-362.5 315,-381.5 416,-381.5 416,-362.5 315,-362.5"/>
<text text-anchor="middle" x="365.5" y="-369.5" font-family="Helvetica,sans-Serif" font-size="10.00">cool_RecombHeP</text>
</a>
</g>
</g>
<!-- Node2&#45;&gt;Node25 -->
<g id="edge20" class="edge">
<title>Node2&#45;&gt;Node25</title>
<path fill="none" stroke="midnightblue" d="M213.69,-438.43C233.05,-426.14 268.49,-404.75 301,-391 306.43,-388.7 312.23,-386.56 318.04,-384.61"/>
<polygon fill="midnightblue" stroke="midnightblue" points="319.29,-387.89 327.75,-381.51 317.16,-381.22 319.29,-387.89"/>
</g>
<!-- Node31 -->
<g id="node21" class="node">
<title>Node31</title>
<g id="a_node21"><a xlink:href="cooling__rates_8c.html#a71f830d20ef0f24d2dcbe8e4e39f0b0f" target="_top" xlink:title=" ">
<polygon fill="white" stroke="black" points="312,-666.5 312,-685.5 419,-685.5 419,-666.5 312,-666.5"/>
<text text-anchor="middle" x="365.5" y="-673.5" font-family="Helvetica,sans-Serif" font-size="10.00">cool_RecombHePP</text>
</a>
</g>
</g>
<!-- Node2&#45;&gt;Node31 -->
<g id="edge23" class="edge">
<title>Node2&#45;&gt;Node31</title>
<path fill="none" stroke="midnightblue" d="M200.82,-457.58C207.61,-490.57 234.51,-600.57 301,-657 303,-658.69 305.14,-660.24 307.39,-661.64"/>
<polygon fill="midnightblue" stroke="midnightblue" points="306,-664.87 316.49,-666.41 309.25,-658.67 306,-664.87"/>
</g>
<!-- Node34 -->
<g id="node24" class="node">
<title>Node34</title>
<g id="a_node24"><a xlink:href="cooling__rates_8c.html#ac01719643833cfb9d154981b6c3a61ae" target="_top" xlink:title=" ">
<polygon fill="white" stroke="black" points="490,-552.5 490,-571.5 585,-571.5 585,-552.5 490,-552.5"/>
<text text-anchor="middle" x="537.5" y="-559.5" font-family="Helvetica,sans-Serif" font-size="10.00">cool_RecombHp</text>
</a>
</g>
</g>
<!-- Node2&#45;&gt;Node34 -->
<g id="edge26" class="edge">
<title>Node2&#45;&gt;Node34</title>
<path fill="none" stroke="midnightblue" d="M208.4,-457.55C225.28,-474.06 262.56,-507.74 301,-524 358.69,-548.4 430.41,-557.23 479.45,-560.38"/>
<polygon fill="midnightblue" stroke="midnightblue" points="479.37,-563.88 489.56,-560.96 479.78,-556.89 479.37,-563.88"/>
</g>
<!-- Node35 -->
<g id="node25" class="node">
<title>Node35</title>
<g id="a_node25"><a xlink:href="density_8c.html#ac49d34dfc3f4e37cac0953d5bc1417a4" target="_top" xlink:title=" ">
<polygon fill="white" stroke="black" points="511,-327.5 511,-346.5 564,-346.5 564,-327.5 511,-327.5"/>
<text text-anchor="middle" x="537.5" y="-334.5" font-family="Helvetica,sans-Serif" font-size="10.00">density</text>
</a>
</g>
</g>
<!-- Node2&#45;&gt;Node35 -->
<g id="edge28" class="edge">
<title>Node2&#45;&gt;Node35</title>
<path fill="none" stroke="midnightblue" d="M205.79,-438.21C220.43,-417.99 257.26,-371.95 301,-353 366.9,-324.45 452.93,-327.49 500.65,-332.25"/>
<polygon fill="midnightblue" stroke="midnightblue" points="500.48,-335.75 510.8,-333.35 501.23,-328.79 500.48,-335.75"/>
</g>
<!-- Node101 -->
<g id="node41" class="node">
<title>Node101</title>
<g id="a_node41"><a xlink:href="cooling__rates_8c.html#a49fe0aaef8ccce8a7757d95bd7e747bc" target="_top" xlink:title=" ">
<polygon fill="white" stroke="black" points="321.5,-286.5 321.5,-305.5 409.5,-305.5 409.5,-286.5 321.5,-286.5"/>
<text text-anchor="middle" x="365.5" y="-293.5" font-family="Helvetica,sans-Serif" font-size="10.00">get_equilib_ne</text>
</a>
</g>
</g>
<!-- Node2&#45;&gt;Node101 -->
<g id="edge48" class="edge">
<title>Node2&#45;&gt;Node101</title>
<path fill="none" stroke="midnightblue" d="M204.31,-438.18C217.56,-414.55 254.38,-353.97 301,-320 306.63,-315.9 313.05,-312.41 319.59,-309.47"/>
<polygon fill="midnightblue" stroke="midnightblue" points="321.25,-312.57 329.18,-305.55 318.6,-306.09 321.25,-312.57"/>
</g>
<!-- Node103 -->
<g id="node43" class="node">
<title>Node103</title>
<g id="a_node43"><a xlink:href="cooling__rates_8c.html#a625d7f0b6854ceca763e9de5bc363cd6" target="_top" xlink:title=" ">
<polygon fill="white" stroke="black" points="658,-0.5 658,-19.5 764,-19.5 764,-0.5 658,-0.5"/>
<text text-anchor="middle" x="711" y="-7.5" font-family="Helvetica,sans-Serif" font-size="10.00">get_temp_internal</text>
</a>
</g>
</g>
<!-- Node2&#45;&gt;Node103 -->
<g id="edge53" class="edge">
<title>Node2&#45;&gt;Node103</title>
<path fill="none" stroke="midnightblue" d="M202,-438.15C211.45,-408.88 243.37,-321.7 301,-277 348.23,-240.37 375.59,-263.74 430,-239 515.86,-199.96 549.6,-198.27 609,-125 637.7,-89.6 611.6,-60 645,-29 646.68,-27.44 648.48,-26.01 650.38,-24.69"/>
<polygon fill="midnightblue" stroke="midnightblue" points="652.25,-27.65 659.19,-19.64 648.77,-21.58 652.25,-27.65"/>
</g>
<!-- Node106 -->
<g id="node44" class="node">
<title>Node106</title>
<g id="a_node44"><a xlink:href="cooling__rates_8c.html#ad7129e8eda48d01252d3a5c42e309e80" target="_top" xlink:title=" ">
<polygon fill="white" stroke="black" points="468,-590.5 468,-609.5 607,-609.5 607,-590.5 468,-590.5"/>
<text text-anchor="middle" x="537.5" y="-597.5" font-family="Helvetica,sans-Serif" font-size="10.00">get_interpolated_recomb</text>
</a>
</g>
</g>
<!-- Node2&#45;&gt;Node106 -->
<g id="edge52" class="edge">
<title>Node2&#45;&gt;Node106</title>
<path fill="none" stroke="midnightblue" d="M205.31,-457.7C219.58,-478.79 256.58,-528.82 301,-553 349.2,-579.24 410.1,-590.92 457.89,-596.08"/>
<polygon fill="midnightblue" stroke="midnightblue" points="457.58,-599.56 467.88,-597.08 458.29,-592.6 457.58,-599.56"/>
</g>
<!-- Node105 -->
<g id="node45" class="node">
<title>Node105</title>
<g id="a_node45"><a xlink:href="cooling__rates_8c.html#a553119a3fc59a26ee611cd2072906c08" target="_top" xlink:title=" ">
<polygon fill="white" stroke="black" points="326,-628.5 326,-647.5 405,-647.5 405,-628.5 326,-628.5"/>
<text text-anchor="middle" x="365.5" y="-635.5" font-family="Helvetica,sans-Serif" font-size="10.00">nH0_internal</text>
</a>
</g>
</g>
<!-- Node2&#45;&gt;Node105 -->
<g id="edge54" class="edge">
<title>Node2&#45;&gt;Node105</title>
<path fill="none" stroke="midnightblue" d="M202.39,-457.77C212.68,-486.04 246.24,-568.75 301,-614 305.95,-618.09 311.67,-621.52 317.6,-624.4"/>
<polygon fill="midnightblue" stroke="midnightblue" points="316.46,-627.72 327.03,-628.47 319.23,-621.29 316.46,-627.72"/>
</g>
<!-- Node107 -->
<g id="node46" class="node">
<title>Node107</title>
<g id="a_node46"><a xlink:href="cooling__rates_8c.html#a0dc0e1c80c6b75c326084bfea9788659" target="_top" xlink:title=" ">
<polygon fill="white" stroke="black" points="326,-210.5 326,-229.5 405,-229.5 405,-210.5 326,-210.5"/>
<text text-anchor="middle" x="365.5" y="-217.5" font-family="Helvetica,sans-Serif" font-size="10.00">nHe_internal</text>
</a>
</g>
</g>
<!-- Node2&#45;&gt;Node107 -->
<g id="edge58" class="edge">
<title>Node2&#45;&gt;Node107</title>
<path fill="none" stroke="midnightblue" d="M201.15,-438.37C208.81,-406.16 237.8,-301.04 301,-244 305.65,-239.8 311.11,-236.31 316.84,-233.42"/>
<polygon fill="midnightblue" stroke="midnightblue" points="318.27,-236.61 325.98,-229.35 315.42,-230.22 318.27,-236.61"/>
</g>
<!-- Node108 -->
<g id="node47" class="node">
<title>Node108</title>
<g id="a_node47"><a xlink:href="cooling__rates_8c.html#a1b5398b1747c75e8150cd4c5fb1cfc20" target="_top" xlink:title=" ">
<polygon fill="white" stroke="black" points="326,-172.5 326,-191.5 405,-191.5 405,-172.5 326,-172.5"/>
<text text-anchor="middle" x="365.5" y="-179.5" font-family="Helvetica,sans-Serif" font-size="10.00">nHp_internal</text>
</a>
</g>
</g>
<!-- Node2&#45;&gt;Node108 -->
<g id="edge59" class="edge">
<title>Node2&#45;&gt;Node108</title>
<path fill="none" stroke="midnightblue" d="M200.05,-438.28C204.57,-401.46 225.62,-269.13 301,-201 305.43,-197 310.67,-193.83 316.22,-191.34"/>
<polygon fill="midnightblue" stroke="midnightblue" points="317.63,-194.55 325.74,-187.74 315.15,-188 317.63,-194.55"/>
</g>
<!-- Node109 -->
<g id="node48" class="node">
<title>Node109</title>
<g id="a_node48"><a xlink:href="cooling__rates_8c.html#aa32133cf6965b6a3c8cdb5a7d6e7adba" target="_top" xlink:title=" ">
<polygon fill="white" stroke="black" points="319,-134.5 319,-153.5 412,-153.5 412,-134.5 319,-134.5"/>
<text text-anchor="middle" x="365.5" y="-141.5" font-family="Helvetica,sans-Serif" font-size="10.00">self_shield_corr</text>
</a>
</g>
</g>
<!-- Node2&#45;&gt;Node109 -->
<g id="edge60" class="edge">
<title>Node2&#45;&gt;Node109</title>
<path fill="none" stroke="midnightblue" d="M199.46,-438.23C201.87,-397.95 216.54,-243.1 301,-163 303.71,-160.43 306.74,-158.21 309.99,-156.29"/>
<polygon fill="midnightblue" stroke="midnightblue" points="311.54,-159.43 318.96,-151.87 308.45,-153.15 311.54,-159.43"/>
</g>
<!-- Node110 -->
<g id="node49" class="node">
<title>Node110</title>
<g id="a_node49"><a xlink:href="cooling__rates_8h.html#ab473cc86aec6309283e5e5afa80e6123" target="_top" xlink:title=" ">
<polygon fill="white" stroke="black" points="301,-96.5 301,-115.5 430,-115.5 430,-96.5 301,-96.5"/>
<text text-anchor="middle" x="365.5" y="-103.5" font-family="Helvetica,sans-Serif" font-size="10.00">TableMetalCoolingRate</text>
</a>
</g>
</g>
<!-- Node2&#45;&gt;Node110 -->
<g id="edge61" class="edge">
<title>Node2&#45;&gt;Node110</title>
<path fill="none" stroke="midnightblue" d="M198.98,-438.45C199.44,-395.41 207.15,-217.44 301,-125 302.48,-123.55 304.06,-122.2 305.72,-120.96"/>
<polygon fill="midnightblue" stroke="midnightblue" points="307.9,-123.74 314.65,-115.57 304.28,-117.74 307.9,-123.74"/>
</g>
<!-- Node4 -->
<g id="node4" class="node">
<title>Node4</title>
<g id="a_node4"><a xlink:href="cooling__rates_8c.html#a5c931df6cf7a37624a4f5f879a786d79" target="_top" xlink:title=" ">
<polygon fill="white" stroke="black" points="469,-780.5 469,-799.5 606,-799.5 606,-780.5 469,-780.5"/>
<text text-anchor="middle" x="537.5" y="-787.5" font-family="Helvetica,sans-Serif" font-size="10.00">cool_CollisionalExciteH0</text>
</a>
</g>
</g>
<!-- Node3&#45;&gt;Node4 -->
<g id="edge3" class="edge">
<title>Node3&#45;&gt;Node4</title>
<path fill="none" stroke="midnightblue" d="M409.4,-761.59C432.03,-766.65 460,-772.9 483.93,-778.25"/>
<polygon fill="midnightblue" stroke="midnightblue" points="483.39,-781.71 493.91,-780.48 484.91,-774.88 483.39,-781.71"/>
</g>
<!-- Node6 -->
<g id="node6" class="node">
<title>Node6</title>
<g id="a_node6"><a xlink:href="cooling__rates_8c.html#ae7aae39b06d61c98c6a695bc3f7a1c57" target="_top" xlink:title=" ">
<polygon fill="white" stroke="black" points="469.5,-742.5 469.5,-761.5 605.5,-761.5 605.5,-742.5 469.5,-742.5"/>
<text text-anchor="middle" x="537.5" y="-749.5" font-family="Helvetica,sans-Serif" font-size="10.00">cool_CollisionalIonizeH0</text>
</a>
</g>
</g>
<!-- Node3&#45;&gt;Node6 -->
<g id="edge5" class="edge">
<title>Node3&#45;&gt;Node6</title>
<path fill="none" stroke="midnightblue" d="M419.36,-752C431.94,-752 445.62,-752 459.06,-752"/>
<polygon fill="midnightblue" stroke="midnightblue" points="459.25,-755.5 469.25,-752 459.25,-748.5 459.25,-755.5"/>
</g>
<!-- Node5 -->
<g id="node5" class="node">
<title>Node5</title>
<g id="a_node5"><a xlink:href="cooling__rates_8c.html#ab3f67e120c9858bcad81d5cb738b850c" target="_top" xlink:title=" ">
<polygon fill="white" stroke="black" points="695,-856.5 695,-875.5 727,-875.5 727,-856.5 695,-856.5"/>
<text text-anchor="middle" x="711" y="-863.5" font-family="Helvetica,sans-Serif" font-size="10.00">_t5</text>
</a>
</g>
</g>
<!-- Node4&#45;&gt;Node5 -->
<g id="edge4" class="edge">
<title>Node4&#45;&gt;Node5</title>
<path fill="none" stroke="midnightblue" d="M580.83,-799.56C590.25,-802.19 600.08,-805.35 609,-809 636.99,-820.46 666.91,-838.09 686.85,-850.71"/>
<polygon fill="midnightblue" stroke="midnightblue" points="685.22,-853.83 695.53,-856.29 689.01,-847.94 685.22,-853.83"/>
</g>
<!-- Node7 -->
<g id="node7" class="node">
<title>Node7</title>
<g id="a_node7"><a xlink:href="cooling__rates_8c.html#a0f7fe629038f0f72e6d729daaac69b84" target="_top" xlink:title=" ">
<polygon fill="white" stroke="red" points="652.5,-723.5 652.5,-742.5 769.5,-742.5 769.5,-723.5 652.5,-723.5"/>
<text text-anchor="middle" x="711" y="-730.5" font-family="Helvetica,sans-Serif" font-size="10.00">recomb_GammaeH0</text>
</a>
</g>
</g>
<!-- Node6&#45;&gt;Node7 -->
<g id="edge6" class="edge">
<title>Node6&#45;&gt;Node7</title>
<path fill="none" stroke="midnightblue" d="M605.79,-744.55C617.81,-743.21 630.34,-741.82 642.38,-740.49"/>
<polygon fill="midnightblue" stroke="midnightblue" points="642.79,-743.97 652.34,-739.39 642.02,-737.01 642.79,-743.97"/>
</g>
<!-- Node14 -->
<g id="node9" class="node">
<title>Node14</title>
<g id="a_node9"><a xlink:href="cooling__rates_8c.html#a38d4d9daba4c7a0f8f3629042b32e053" target="_top" xlink:title=" ">
<polygon fill="white" stroke="black" points="466,-932.5 466,-951.5 609,-951.5 609,-932.5 466,-932.5"/>
<text text-anchor="middle" x="537.5" y="-939.5" font-family="Helvetica,sans-Serif" font-size="10.00">cool_CollisionalExciteHe0</text>
</a>
</g>
</g>
<!-- Node13&#45;&gt;Node14 -->
<g id="edge8" class="edge">
<title>Node13&#45;&gt;Node14</title>
<path fill="none" stroke="midnightblue" d="M409.4,-913.59C432.03,-918.65 460,-924.9 483.93,-930.25"/>
<polygon fill="midnightblue" stroke="midnightblue" points="483.39,-933.71 493.91,-932.48 484.91,-926.88 483.39,-933.71"/>
</g>
<!-- Node15 -->
<g id="node10" class="node">
<title>Node15</title>
<g id="a_node10"><a xlink:href="cooling__rates_8c.html#af7474c2a079bd580ca605575db213ab7" target="_top" xlink:title=" ">
<polygon fill="white" stroke="red" points="466.5,-894.5 466.5,-913.5 608.5,-913.5 608.5,-894.5 466.5,-894.5"/>
<text text-anchor="middle" x="537.5" y="-901.5" font-family="Helvetica,sans-Serif" font-size="10.00">cool_CollisionalIonizeHe0</text>
</a>
</g>
</g>
<!-- Node13&#45;&gt;Node15 -->
<g id="edge10" class="edge">
<title>Node13&#45;&gt;Node15</title>
<path fill="none" stroke="midnightblue" d="M422.16,-904C433.1,-904 444.77,-904 456.33,-904"/>
<polygon fill="midnightblue" stroke="midnightblue" points="456.43,-907.5 466.43,-904 456.43,-900.5 456.43,-907.5"/>
</g>
<!-- Node14&#45;&gt;Node5 -->
<g id="edge9" class="edge">
<title>Node14&#45;&gt;Node5</title>
<path fill="none" stroke="midnightblue" d="M580.83,-932.44C590.25,-929.81 600.08,-926.65 609,-923 636.99,-911.54 666.91,-893.91 686.85,-881.29"/>
<polygon fill="midnightblue" stroke="midnightblue" points="689.01,-884.06 695.53,-875.71 685.22,-878.17 689.01,-884.06"/>
</g>
<!-- Node18 -->
<g id="node12" class="node">
<title>Node18</title>
<g id="a_node12"><a xlink:href="cooling__rates_8c.html#a6603d2320fb8a8c220365adf14fca0f1" target="_top" xlink:title=" ">
<polygon fill="white" stroke="black" points="466,-856.5 466,-875.5 609,-875.5 609,-856.5 466,-856.5"/>
<text text-anchor="middle" x="537.5" y="-863.5" font-family="Helvetica,sans-Serif" font-size="10.00">cool_CollisionalExciteHeP</text>
</a>
</g>
</g>
<!-- Node17&#45;&gt;Node18 -->
<g id="edge12" class="edge">
<title>Node17&#45;&gt;Node18</title>
<path fill="none" stroke="midnightblue" d="M409.4,-837.59C432.03,-842.65 460,-848.9 483.93,-854.25"/>
<polygon fill="midnightblue" stroke="midnightblue" points="483.39,-857.71 493.91,-856.48 484.91,-850.88 483.39,-857.71"/>
</g>
<!-- Node19 -->
<g id="node13" class="node">
<title>Node19</title>
<g id="a_node13"><a xlink:href="cooling__rates_8c.html#ac4101d0b14c7a383d0e7d59a9c839ea0" target="_top" xlink:title=" ">
<polygon fill="white" stroke="red" points="466.5,-818.5 466.5,-837.5 608.5,-837.5 608.5,-818.5 466.5,-818.5"/>
<text text-anchor="middle" x="537.5" y="-825.5" font-family="Helvetica,sans-Serif" font-size="10.00">cool_CollisionalIonizeHeP</text>
</a>
</g>
</g>
<!-- Node17&#45;&gt;Node19 -->
<g id="edge14" class="edge">
<title>Node17&#45;&gt;Node19</title>
<path fill="none" stroke="midnightblue" d="M422.16,-828C433.1,-828 444.77,-828 456.33,-828"/>
<polygon fill="midnightblue" stroke="midnightblue" points="456.43,-831.5 466.43,-828 456.43,-824.5 456.43,-831.5"/>
</g>
<!-- Node18&#45;&gt;Node5 -->
<g id="edge13" class="edge">
<title>Node18&#45;&gt;Node5</title>
<path fill="none" stroke="midnightblue" d="M609.25,-866C636.03,-866 664.82,-866 684.74,-866"/>
<polygon fill="midnightblue" stroke="midnightblue" points="684.83,-869.5 694.83,-866 684.83,-862.5 684.83,-869.5"/>
</g>
<!-- Node22&#45;&gt;Node21 -->
<g id="edge17" class="edge">
<title>Node22&#45;&gt;Node21</title>
<path fill="none" stroke="midnightblue" d="M410.72,-490.94C433.52,-493.49 461.44,-496.61 485.18,-499.26"/>
<polygon fill="midnightblue" stroke="midnightblue" points="485.09,-502.78 495.42,-500.41 485.87,-495.82 485.09,-502.78"/>
</g>
<!-- Node26 -->
<g id="node19" class="node">
<title>Node26</title>
<g id="a_node19"><a xlink:href="cooling__rates_8c.html#aae532612ef4581227c75e5c7b9178917" target="_top" xlink:title=" ">
<polygon fill="white" stroke="red" points="479.5,-403.5 479.5,-422.5 595.5,-422.5 595.5,-403.5 479.5,-403.5"/>
<text text-anchor="middle" x="537.5" y="-410.5" font-family="Helvetica,sans-Serif" font-size="10.00">cool_RecombDielect</text>
</a>
</g>
</g>
<!-- Node25&#45;&gt;Node26 -->
<g id="edge21" class="edge">
<title>Node25&#45;&gt;Node26</title>
<path fill="none" stroke="midnightblue" d="M405.93,-381.51C430.09,-387.34 461.22,-394.84 487.02,-401.07"/>
<polygon fill="midnightblue" stroke="midnightblue" points="486.45,-404.53 496.99,-403.47 488.09,-397.72 486.45,-404.53"/>
</g>
<!-- Node28 -->
<g id="node20" class="node">
<title>Node28</title>
<g id="a_node20"><a xlink:href="cooling__rates_8c.html#ae02222d195fadd9353a8714a7205b946" target="_top" xlink:title=" ">
<polygon fill="white" stroke="red" points="485,-365.5 485,-384.5 590,-384.5 590,-365.5 485,-365.5"/>
<text text-anchor="middle" x="537.5" y="-372.5" font-family="Helvetica,sans-Serif" font-size="10.00">recomb_alphaHep</text>
</a>
</g>
</g>
<!-- Node25&#45;&gt;Node28 -->
<g id="edge22" class="edge">
<title>Node25&#45;&gt;Node28</title>
<path fill="none" stroke="midnightblue" d="M416.13,-372.88C434.4,-373.2 455.34,-373.57 474.56,-373.91"/>
<polygon fill="midnightblue" stroke="midnightblue" points="474.68,-377.41 484.74,-374.09 474.8,-370.41 474.68,-377.41"/>
</g>
<!-- Node32 -->
<g id="node22" class="node">
<title>Node32</title>
<g id="a_node22"><a xlink:href="cooling__rates_8c.html#ae08e722fe458659ebb6fc75a878071fb" target="_top" xlink:title=" ">
<polygon fill="white" stroke="red" points="482,-666.5 482,-685.5 593,-685.5 593,-666.5 482,-666.5"/>
<text text-anchor="middle" x="537.5" y="-673.5" font-family="Helvetica,sans-Serif" font-size="10.00">recomb_alphaHepp</text>
</a>
</g>
</g>
<!-- Node31&#45;&gt;Node32 -->
<g id="edge24" class="edge">
<title>Node31&#45;&gt;Node32</title>
<path fill="none" stroke="midnightblue" d="M419.36,-676C435.98,-676 454.52,-676 471.87,-676"/>
<polygon fill="midnightblue" stroke="midnightblue" points="471.91,-679.5 481.91,-676 471.91,-672.5 471.91,-679.5"/>
</g>
<!-- Node33 -->
<g id="node23" class="node">
<title>Node33</title>
<g id="a_node23"><a xlink:href="cooling__rates_8c.html#a02d09028ebf882b01cb430f9f908fd7a" target="_top" xlink:title=" ">
<polygon fill="white" stroke="red" points="661.5,-643.5 661.5,-662.5 760.5,-662.5 760.5,-643.5 661.5,-643.5"/>
<text text-anchor="middle" x="711" y="-650.5" font-family="Helvetica,sans-Serif" font-size="10.00">recomb_alphaHp</text>
</a>
</g>
</g>
<!-- Node32&#45;&gt;Node33 -->
<g id="edge25" class="edge">
<title>Node32&#45;&gt;Node33</title>
<path fill="none" stroke="midnightblue" d="M593.24,-668.66C611.77,-666.17 632.53,-663.39 651.35,-660.87"/>
<polygon fill="midnightblue" stroke="midnightblue" points="651.84,-664.33 661.29,-659.53 650.91,-657.39 651.84,-664.33"/>
</g>
<!-- Node34&#45;&gt;Node33 -->
<g id="edge27" class="edge">
<title>Node34&#45;&gt;Node33</title>
<path fill="none" stroke="midnightblue" d="M585.36,-569.6C593.71,-572.32 601.98,-576 609,-581 632.2,-597.52 621.98,-617.24 645,-634 647.66,-635.94 650.52,-637.68 653.5,-639.24"/>
<polygon fill="midnightblue" stroke="midnightblue" points="652.16,-642.48 662.72,-643.42 655.06,-636.11 652.16,-642.48"/>
</g>
<!-- Node36 -->
<g id="node26" class="node">
<title>Node36</title>
<g id="a_node26"><a xlink:href="density_8c.html#a338ab2cf6c2f52522edb746f04061af9" target="_top" xlink:title=" ">
<polygon fill="white" stroke="black" points="670.5,-555.5 670.5,-574.5 751.5,-574.5 751.5,-555.5 670.5,-555.5"/>
<text text-anchor="middle" x="711" y="-562.5" font-family="Helvetica,sans-Serif" font-size="10.00">density_copy</text>
</a>
</g>
</g>
<!-- Node35&#45;&gt;Node36 -->
<g id="edge29" class="edge">
<title>Node35&#45;&gt;Node36</title>
<path fill="none" stroke="midnightblue" d="M564.09,-337.42C579.24,-339.06 597.63,-343.73 609,-356 667.42,-419.04 587.25,-482.35 645,-546 649.35,-550.8 654.85,-554.41 660.79,-557.13"/>
<polygon fill="midnightblue" stroke="midnightblue" points="659.8,-560.49 670.39,-560.7 662.24,-553.93 659.8,-560.49"/>
</g>
<!-- Node37 -->
<g id="node27" class="node">
<title>Node37</title>
<g id="a_node27"><a xlink:href="density_8c.html#af9776b9b60703f24e380d743918248c3" target="_top" xlink:title=" ">
<polygon fill="white" stroke="black" points="661.5,-517.5 661.5,-536.5 760.5,-536.5 760.5,-517.5 661.5,-517.5"/>
<text text-anchor="middle" x="711" y="-524.5" font-family="Helvetica,sans-Serif" font-size="10.00">density_haswork</text>
</a>
</g>
</g>
<!-- Node35&#45;&gt;Node37 -->
<g id="edge30" class="edge">
<title>Node35&#45;&gt;Node37</title>
<path fill="none" stroke="midnightblue" d="M564.21,-337.67C579.21,-339.43 597.39,-344.12 609,-356 656.01,-404.11 600.21,-452.82 645,-503 648.47,-506.88 652.62,-510.14 657.12,-512.87"/>
<polygon fill="midnightblue" stroke="midnightblue" points="655.64,-516.04 666.14,-517.5 658.84,-509.82 655.64,-516.04"/>
</g>
<!-- Node38 -->
<g id="node28" class="node">
<title>Node38</title>
<g id="a_node28"><a xlink:href="density_8c.html#a146d61fe2d2f53ea9b7fabf2ea5e90b7" target="_top" xlink:title=" ">
<polygon fill="white" stroke="red" points="665,-441.5 665,-460.5 757,-460.5 757,-441.5 665,-441.5"/>
<text text-anchor="middle" x="711" y="-448.5" font-family="Helvetica,sans-Serif" font-size="10.00">density_ngbiter</text>
</a>
</g>
</g>
<!-- Node35&#45;&gt;Node38 -->
<g id="edge31" class="edge">
<title>Node35&#45;&gt;Node38</title>
<path fill="none" stroke="midnightblue" d="M564.31,-338.83C578.78,-341.02 596.41,-345.77 609,-356 636.46,-378.31 618.58,-403.47 645,-427 649.49,-431 654.7,-434.35 660.18,-437.15"/>
<polygon fill="midnightblue" stroke="midnightblue" points="659.03,-440.47 669.59,-441.38 661.9,-434.09 659.03,-440.47"/>
</g>
<!-- Node54 -->
<g id="node29" class="node">
<title>Node54</title>
<g id="a_node29"><a xlink:href="timebinmgr_8c.html#a7166c93d068baea59abf2ef8cee3c7aa" target="_top" xlink:title=" ">
<polygon fill="white" stroke="red" points="815.5,-474.5 815.5,-493.5 905.5,-493.5 905.5,-474.5 815.5,-474.5"/>
<text text-anchor="middle" x="860.5" y="-481.5" font-family="Helvetica,sans-Serif" font-size="10.00">dloga_from_dti</text>
</a>
</g>
</g>
<!-- Node35&#45;&gt;Node54 -->
<g id="edge38" class="edge">
<title>Node35&#45;&gt;Node54</title>
<path fill="none" stroke="midnightblue" d="M564.28,-337.99C579.11,-339.88 597.1,-344.6 609,-356 647.36,-392.76 603.19,-437.21 645,-470 691.51,-506.47 762.57,-503.18 810,-495.36"/>
<polygon fill="midnightblue" stroke="midnightblue" points="810.81,-498.77 820.04,-493.58 809.59,-491.88 810.81,-498.77"/>
</g>
<!-- Node57 -->
<g id="node30" class="node">
<title>Node57</title>
<g id="a_node30"><a xlink:href="density_8c.html#a300eea2fe5e00af45e3c65215ff5bfe7" target="_top" xlink:title=" ">
<polygon fill="white" stroke="black" points="813,-431.5 813,-450.5 908,-450.5 908,-431.5 813,-431.5"/>
<text text-anchor="middle" x="860.5" y="-438.5" font-family="Helvetica,sans-Serif" font-size="10.00">SPH_EntVarPred</text>
</a>
</g>
</g>
<!-- Node35&#45;&gt;Node57 -->
<g id="edge44" class="edge">
<title>Node35&#45;&gt;Node57</title>
<path fill="none" stroke="midnightblue" d="M564.03,-341.66C577.76,-344.71 594.75,-349.37 609,-356 626.66,-364.21 627.37,-372.71 645,-381 695.96,-404.98 758.37,-421.1 802.7,-430.54"/>
<polygon fill="midnightblue" stroke="midnightblue" points="802.22,-434.01 812.72,-432.62 803.64,-427.16 802.22,-434.01"/>
</g>
<!-- Node58 -->
<g id="node31" class="node">
<title>Node58</title>
<g id="a_node31"><a xlink:href="density_8c.html#a10d3cfe0024d97740707f82efde883ea" target="_top" xlink:title=" ">
<polygon fill="white" stroke="black" points="821.5,-384.5 821.5,-403.5 899.5,-403.5 899.5,-384.5 821.5,-384.5"/>
<text text-anchor="middle" x="860.5" y="-391.5" font-family="Helvetica,sans-Serif" font-size="10.00">SPH_VelPred</text>
</a>
</g>
</g>
<!-- Node35&#45;&gt;Node58 -->
<g id="edge45" class="edge">
<title>Node35&#45;&gt;Node58</title>
<path fill="none" stroke="midnightblue" d="M564.32,-341.62C585.89,-345.47 617.45,-351.1 645,-356 702.05,-366.14 767.65,-377.76 811.12,-385.45"/>
<polygon fill="midnightblue" stroke="midnightblue" points="810.68,-388.92 821.14,-387.22 811.9,-382.03 810.68,-388.92"/>
</g>
<!-- Node60 -->
<g id="node32" class="node">
<title>Node60</title>
<g id="a_node32"><a xlink:href="density_8c.html#ae39f5a18f937d210e258c8e8cb710044" target="_top" xlink:title=" ">
<polygon fill="white" stroke="red" points="653,-327.5 653,-346.5 769,-346.5 769,-327.5 653,-327.5"/>
<text text-anchor="middle" x="711" y="-334.5" font-family="Helvetica,sans-Serif" font-size="10.00">density_postprocess</text>
</a>
</g>
</g>
<!-- Node35&#45;&gt;Node60 -->
<g id="edge35" class="edge">
<title>Node35&#45;&gt;Node60</title>
<path fill="none" stroke="midnightblue" d="M564.18,-332.02C584.98,-330.5 615.27,-329.96 642.86,-330.39"/>
<polygon fill="midnightblue" stroke="midnightblue" points="642.81,-333.89 652.88,-330.6 642.95,-326.89 642.81,-333.89"/>
</g>
<!-- Node63 -->
<g id="node33" class="node">
<title>Node63</title>
<g id="a_node33"><a xlink:href="density_8c.html#ad169b636ff2e25d362af36cdedb8a3f2" target="_top" xlink:title=" ">
<polygon fill="white" stroke="black" points="665.5,-289.5 665.5,-308.5 756.5,-308.5 756.5,-289.5 665.5,-289.5"/>
<text text-anchor="middle" x="711" y="-296.5" font-family="Helvetica,sans-Serif" font-size="10.00">density_reduce</text>
</a>
</g>
</g>
<!-- Node35&#45;&gt;Node63 -->
<g id="edge37" class="edge">
<title>Node35&#45;&gt;Node63</title>
<path fill="none" stroke="midnightblue" d="M564.18,-331.31C588.63,-325.89 626.18,-317.57 657.05,-310.73"/>
<polygon fill="midnightblue" stroke="midnightblue" points="657.81,-314.15 666.81,-308.57 656.29,-307.32 657.81,-314.15"/>
</g>
<!-- Node64 -->
<g id="node34" class="node">
<title>Node64</title>
<g id="a_node34"><a xlink:href="gravity_8h.html#ad2fea9ffa95e668ed71b563e817d2e1b" target="_top" xlink:title=" ">
<polygon fill="white" stroke="black" points="655.5,-251.5 655.5,-270.5 766.5,-270.5 766.5,-251.5 655.5,-251.5"/>
<text text-anchor="middle" x="711" y="-258.5" font-family="Helvetica,sans-Serif" font-size="10.00">FORCE_SOFTENING</text>
</a>
</g>
</g>
<!-- Node35&#45;&gt;Node64 -->
<g id="edge39" class="edge">
<title>Node35&#45;&gt;Node64</title>
<path fill="none" stroke="midnightblue" d="M564.3,-333.54C578.26,-330.84 595.39,-326.12 609,-318 628.98,-306.08 625.15,-292.13 645,-280 648.56,-277.83 652.37,-275.89 656.31,-274.17"/>
<polygon fill="midnightblue" stroke="midnightblue" points="657.6,-277.42 665.65,-270.53 655.06,-270.9 657.6,-277.42"/>
</g>
<!-- Node65 -->
<g id="node35" class="node">
<title>Node65</title>
<g id="a_node35"><a xlink:href="timefac_8c.html#ae45524bb6dcfabd035dd6edfda728079" target="_top" xlink:title=" ">
<polygon fill="white" stroke="red" points="655,-202 655,-232 767,-232 767,-202 655,-202"/>
<text text-anchor="start" x="663" y="-220" font-family="Helvetica,sans-Serif" font-size="10.00">get_exact_gravkick</text>
<text text-anchor="middle" x="711" y="-209" font-family="Helvetica,sans-Serif" font-size="10.00">_factor</text>
</a>
</g>
</g>
<!-- Node35&#45;&gt;Node65 -->
<g id="edge40" class="edge">
<title>Node35&#45;&gt;Node65</title>
<path fill="none" stroke="midnightblue" d="M564.07,-335.35C578.65,-333.22 596.45,-328.48 609,-318 637.69,-294.04 617.6,-267.42 645,-242 646.69,-240.43 648.49,-238.96 650.38,-237.57"/>
<polygon fill="midnightblue" stroke="midnightblue" points="652.52,-240.36 659.1,-232.05 648.78,-234.44 652.52,-240.36"/>
</g>
<!-- Node69 -->
<g id="node36" class="node">
<title>Node69</title>
<g id="a_node36"><a xlink:href="timefac_8c.html#a2bfd65177ba7cde60bbe22eb0a84f96b" target="_top" xlink:title=" ">
<polygon fill="white" stroke="red" points="652,-153 652,-183 770,-183 770,-153 652,-153"/>
<text text-anchor="start" x="660" y="-171" font-family="Helvetica,sans-Serif" font-size="10.00">get_exact_hydrokick</text>
<text text-anchor="middle" x="711" y="-160" font-family="Helvetica,sans-Serif" font-size="10.00">_factor</text>
</a>
</g>
</g>
<!-- Node35&#45;&gt;Node69 -->
<g id="edge41" class="edge">
<title>Node35&#45;&gt;Node69</title>
<path fill="none" stroke="midnightblue" d="M564.04,-336.16C578.97,-334.34 597.16,-329.64 609,-318 650.23,-277.47 605.93,-235.61 645,-193 646.21,-191.68 647.49,-190.43 648.84,-189.25"/>
<polygon fill="midnightblue" stroke="midnightblue" points="651.17,-191.89 657.18,-183.16 647.04,-186.23 651.17,-191.89"/>
</g>
<!-- Node71 -->
<g id="node37" class="node">
<title>Node71</title>
<g id="a_node37"><a xlink:href="density_8c.html#a23e510a287a10de773a4a0f14db2ff52" target="_top" xlink:title=" ">
<polygon fill="white" stroke="black" points="672.5,-114.5 672.5,-133.5 749.5,-133.5 749.5,-114.5 672.5,-114.5"/>
<text text-anchor="middle" x="711" y="-121.5" font-family="Helvetica,sans-Serif" font-size="10.00">GetNumNgb</text>
</a>
</g>
</g>
<!-- Node35&#45;&gt;Node71 -->
<g id="edge42" class="edge">
<title>Node35&#45;&gt;Node71</title>
<path fill="none" stroke="midnightblue" d="M564.02,-336.52C579.14,-334.85 597.52,-330.18 609,-318 663.16,-260.53 591.86,-202.42 645,-144 649.92,-138.6 656.25,-134.64 663.04,-131.74"/>
<polygon fill="midnightblue" stroke="midnightblue" points="664.21,-135.04 672.47,-128.41 661.88,-128.44 664.21,-135.04"/>
</g>
<!-- Node67 -->
<g id="node38" class="node">
<title>Node67</title>
<g id="a_node38"><a xlink:href="test__timefac_8c.html#a5b77523ed91eb413cb28b12d8c2ceb46" target="_top" xlink:title=" ">
<polygon fill="white" stroke="black" points="672,-76.5 672,-95.5 750,-95.5 750,-76.5 672,-76.5"/>
<text text-anchor="middle" x="711" y="-83.5" font-family="Helvetica,sans-Serif" font-size="10.00">loga_from_ti</text>
</a>
</g>
</g>
<!-- Node35&#45;&gt;Node67 -->
<g id="edge43" class="edge">
<title>Node35&#45;&gt;Node67</title>
<path fill="none" stroke="midnightblue" d="M564.18,-336.66C579.36,-335.05 597.75,-330.38 609,-318 673.56,-246.94 581.19,-176.74 645,-105 649.67,-99.75 655.71,-95.91 662.22,-93.12"/>
<polygon fill="midnightblue" stroke="midnightblue" points="663.69,-96.31 671.98,-89.73 661.39,-89.7 663.69,-96.31"/>
</g>
<!-- Node72 -->
<g id="node39" class="node">
<title>Node72</title>
<g id="a_node39"><a xlink:href="treewalk_8c.html#a72643adf5c7952933b8f5fbb27d45a97" target="_top" xlink:title=" ">
<polygon fill="white" stroke="red" points="645,-38.5 645,-57.5 777,-57.5 777,-38.5 645,-38.5"/>
<text text-anchor="middle" x="711" y="-45.5" font-family="Helvetica,sans-Serif" font-size="10.00">treewalk_do_hsml_loop</text>
</a>
</g>
</g>
<!-- Node35&#45;&gt;Node72 -->
<g id="edge46" class="edge">
<title>Node35&#45;&gt;Node72</title>
<path fill="none" stroke="midnightblue" d="M564.29,-336.76C579.51,-335.18 597.9,-330.52 609,-318 683.73,-233.65 571.16,-152.14 645,-67 646.04,-65.81 647.14,-64.69 648.31,-63.63"/>
<polygon fill="midnightblue" stroke="midnightblue" points="650.63,-66.28 656.76,-57.64 646.58,-60.57 650.63,-66.28"/>
</g>
<!-- Node98 -->
<g id="node40" class="node">
<title>Node98</title>
<g id="a_node40"><a xlink:href="treewalk_8c.html#a1878fddf49185074fd570a46f3eea372" target="_top" xlink:title=" ">
<polygon fill="white" stroke="red" points="652,-594 652,-624 770,-624 770,-594 652,-594"/>
<text text-anchor="start" x="660" y="-612" font-family="Helvetica,sans-Serif" font-size="10.00">treewalk_visit_nolist</text>
<text text-anchor="middle" x="711" y="-601" font-family="Helvetica,sans-Serif" font-size="10.00">_ngbiter</text>
</a>
</g>
</g>
<!-- Node35&#45;&gt;Node98 -->
<g id="edge47" class="edge">
<title>Node35&#45;&gt;Node98</title>
<path fill="none" stroke="midnightblue" d="M564.23,-337.29C579.42,-338.89 597.82,-343.55 609,-356 677.57,-432.3 580.48,-504.24 645,-584 645.97,-585.2 647.01,-586.35 648.11,-587.44"/>
<polygon fill="midnightblue" stroke="midnightblue" points="646.09,-590.31 656.06,-593.87 650.49,-584.86 646.09,-590.31"/>
</g>
<!-- Node38&#45;&gt;Node54 -->
<g id="edge32" class="edge">
<title>Node38&#45;&gt;Node54</title>
<path fill="none" stroke="midnightblue" d="M754.66,-460.54C771.02,-464.2 789.88,-468.42 807.05,-472.27"/>
<polygon fill="midnightblue" stroke="midnightblue" points="806.41,-475.71 816.93,-474.48 807.94,-468.88 806.41,-475.71"/>
</g>
<!-- Node38&#45;&gt;Node57 -->
<g id="edge33" class="edge">
<title>Node38&#45;&gt;Node57</title>
<path fill="none" stroke="midnightblue" d="M757.06,-447.95C771.44,-446.97 787.56,-445.88 802.67,-444.85"/>
<polygon fill="midnightblue" stroke="midnightblue" points="803.19,-448.33 812.93,-444.16 802.72,-441.34 803.19,-448.33"/>
</g>
<!-- Node38&#45;&gt;Node58 -->
<g id="edge34" class="edge">
<title>Node38&#45;&gt;Node58</title>
<path fill="none" stroke="midnightblue" d="M736.69,-441.46C760.94,-432.09 798.14,-417.71 825.24,-407.24"/>
<polygon fill="midnightblue" stroke="midnightblue" points="826.67,-410.44 834.73,-403.57 824.14,-403.91 826.67,-410.44"/>
</g>
<!-- Node60&#45;&gt;Node35 -->
<g id="edge36" class="edge">
<title>Node60&#45;&gt;Node35</title>
<path fill="none" stroke="midnightblue" d="M652.88,-343.4C626.96,-344.05 597.09,-343.79 574.38,-342.61"/>
<polygon fill="midnightblue" stroke="midnightblue" points="574.37,-339.1 564.18,-341.98 573.94,-346.09 574.37,-339.1"/>
</g>
<!-- Node101&#45;&gt;Node35 -->
<g id="edge49" class="edge">
<title>Node101&#45;&gt;Node35</title>
<path fill="none" stroke="midnightblue" d="M405.93,-305.51C434.54,-312.41 472.94,-321.67 500.68,-328.36"/>
<polygon fill="midnightblue" stroke="midnightblue" points="500.21,-331.85 510.75,-330.79 501.85,-325.04 500.21,-331.85"/>
</g>
<!-- Node102 -->
<g id="node42" class="node">
<title>Node102</title>
<g id="a_node42"><a xlink:href="cooling__rates_8c.html#a01dfbce9cb6f2a5b4e750906e4360716" target="_top" xlink:title=" ">
<polygon fill="white" stroke="red" points="478,-278 478,-308 597,-308 597,-278 478,-278"/>
<text text-anchor="start" x="486" y="-296" font-family="Helvetica,sans-Serif" font-size="10.00">scipy_optimize_fixed</text>
<text text-anchor="middle" x="537.5" y="-285" font-family="Helvetica,sans-Serif" font-size="10.00">_point</text>
</a>
</g>
</g>
<!-- Node101&#45;&gt;Node102 -->
<g id="edge50" class="edge">
<title>Node101&#45;&gt;Node102</title>
<path fill="none" stroke="midnightblue" d="M409.84,-295.24C427.43,-294.92 448.18,-294.56 467.75,-294.21"/>
<polygon fill="midnightblue" stroke="midnightblue" points="467.91,-297.71 477.85,-294.04 467.78,-290.71 467.91,-297.71"/>
</g>
<!-- Node102&#45;&gt;Node103 -->
<g id="edge51" class="edge">
<title>Node102&#45;&gt;Node103</title>
<path fill="none" stroke="midnightblue" d="M591.29,-277.85C598.06,-273.96 604.27,-269.09 609,-263 673.56,-179.91 575.65,-108.14 645,-29 646.34,-27.47 647.79,-26.07 649.33,-24.77"/>
<polygon fill="midnightblue" stroke="midnightblue" points="651.36,-27.63 657.74,-19.17 647.48,-21.8 651.36,-27.63"/>
</g>
<!-- Node105&#45;&gt;Node7 -->
<g id="edge57" class="edge">
<title>Node105&#45;&gt;Node7</title>
<path fill="none" stroke="midnightblue" d="M405.15,-646.07C413.7,-648.79 422.45,-652.36 430,-657 449.81,-669.19 445.4,-684.19 466,-695 520.6,-723.67 590.87,-732.11 641.97,-734.02"/>
<polygon fill="midnightblue" stroke="midnightblue" points="642.15,-737.52 652.25,-734.32 642.36,-730.53 642.15,-737.52"/>
</g>
<!-- Node105&#45;&gt;Node33 -->
<g id="edge56" class="edge">
<title>Node105&#45;&gt;Node33</title>
<path fill="none" stroke="midnightblue" d="M405.24,-639.69C465.27,-642.31 581.18,-647.37 651.47,-650.44"/>
<polygon fill="midnightblue" stroke="midnightblue" points="651.35,-653.94 661.49,-650.88 651.66,-646.95 651.35,-653.94"/>
</g>
<!-- Node105&#45;&gt;Node106 -->
<g id="edge55" class="edge">
<title>Node105&#45;&gt;Node106</title>
<path fill="none" stroke="midnightblue" d="M405.08,-629.38C428.43,-624.16 458.52,-617.43 484.02,-611.73"/>
<polygon fill="midnightblue" stroke="midnightblue" points="484.9,-615.12 493.9,-609.52 483.38,-608.29 484.9,-615.12"/>
</g>
<!-- Node111 -->
<g id="node50" class="node">
<title>Node111</title>
<g id="a_node50"><a xlink:href="interp_8c.html#a122801a20f7bc02d225659574ce6ed1f" target="_top" xlink:title=" ">
<polygon fill="white" stroke="red" points="502,-96.5 502,-115.5 573,-115.5 573,-96.5 502,-96.5"/>
<text text-anchor="middle" x="537.5" y="-103.5" font-family="Helvetica,sans-Serif" font-size="10.00">interp_eval</text>
</a>
</g>
</g>
<!-- Node110&#45;&gt;Node111 -->
<g id="edge62" class="edge">
<title>Node110&#45;&gt;Node111</title>
<path fill="none" stroke="midnightblue" d="M430.29,-106C450.79,-106 473.06,-106 491.89,-106"/>
<polygon fill="midnightblue" stroke="midnightblue" points="491.96,-109.5 501.96,-106 491.96,-102.5 491.96,-109.5"/>
</g>
</g>
</svg>
