<?xml version="1.0" encoding="UTF-8" standalone="no"?>
<!DOCTYPE svg PUBLIC "-//W3C//DTD SVG 1.1//EN"
 "http://www.w3.org/Graphics/SVG/1.1/DTD/svg11.dtd">
<!-- Generated by graphviz version 2.38.0 (20140413.2041)
 -->
<!-- Title: GetGlobalUVBG Pages: 1 -->
<svg width="971pt" height="47pt"
 viewBox="0.00 0.00 971.00 47.00" xmlns="http://www.w3.org/2000/svg" xmlns:xlink="http://www.w3.org/1999/xlink">
<g id="graph0" class="graph" transform="scale(1 1) rotate(0) translate(4 43)">
<title>GetGlobalUVBG</title>
<polygon fill="white" stroke="none" points="-4,4 -4,-43 967,-43 967,4 -4,4"/>
<!-- Node77 -->
<g id="node1" class="node"><title>Node77</title>
<polygon fill="#bfbfbf" stroke="black" points="0,-0.5 0,-19.5 89,-19.5 89,-0.5 0,-0.5"/>
<text text-anchor="middle" x="44.5" y="-7.5" font-family="Helvetica,sans-Serif" font-size="10.00">GetGlobalUVBG</text>
</g>
<!-- Node78 -->
<g id="node2" class="node"><title>Node78</title>
<g id="a_node2"><a xlink:href="sfr__eff_8c.html#a2d96bcfa1a035956535e5840d306744b" target="_top" xlink:title="cooling_direct">
<polygon fill="white" stroke="black" points="125,-0.5 125,-19.5 202,-19.5 202,-0.5 125,-0.5"/>
<text text-anchor="middle" x="163.5" y="-7.5" font-family="Helvetica,sans-Serif" font-size="10.00">cooling_direct</text>
</a>
</g>
</g>
<!-- Node77&#45;&gt;Node78 -->
<g id="edge1" class="edge"><title>Node77&#45;&gt;Node78</title>
<path fill="none" stroke="midnightblue" d="M99.0908,-10C107.725,-10 116.503,-10 124.665,-10"/>
<polygon fill="midnightblue" stroke="midnightblue" points="99.0665,-6.5001 89.0665,-10 99.0664,-13.5001 99.0665,-6.5001"/>
</g>
<!-- Node79 -->
<g id="node3" class="node"><title>Node79</title>
<g id="a_node3"><a xlink:href="sfr__eff_8c.html#aec2d4b18a02ca0bbca8111e41fae0248" target="_top" xlink:title="cool_postprocess">
<polygon fill="white" stroke="black" points="238,-0.5 238,-19.5 331,-19.5 331,-0.5 238,-0.5"/>
<text text-anchor="middle" x="284.5" y="-7.5" font-family="Helvetica,sans-Serif" font-size="10.00">cool_postprocess</text>
</a>
</g>
</g>
<!-- Node78&#45;&gt;Node79 -->
<g id="edge2" class="edge"><title>Node78&#45;&gt;Node79</title>
<path fill="none" stroke="midnightblue" d="M212.213,-10C220.633,-10 229.382,-10 237.747,-10"/>
<polygon fill="midnightblue" stroke="midnightblue" points="212.152,-6.5001 202.152,-10 212.152,-13.5001 212.152,-6.5001"/>
</g>
<!-- Node80 -->
<g id="node4" class="node"><title>Node80</title>
<g id="a_node4"><a xlink:href="sfr__eff_8h.html#aaa7b178a168a5d23b2cfe478ebc58ee1" target="_top" xlink:title="cooling_only">
<polygon fill="white" stroke="black" points="367,-0.5 367,-19.5 438,-19.5 438,-0.5 367,-0.5"/>
<text text-anchor="middle" x="402.5" y="-7.5" font-family="Helvetica,sans-Serif" font-size="10.00">cooling_only</text>
</a>
</g>
</g>
<!-- Node79&#45;&gt;Node80 -->
<g id="edge3" class="edge"><title>Node79&#45;&gt;Node80</title>
<path fill="none" stroke="midnightblue" d="M341.209,-10C349.963,-10 358.787,-10 366.88,-10"/>
<polygon fill="midnightblue" stroke="midnightblue" points="341.013,-6.5001 331.013,-10 341.013,-13.5001 341.013,-6.5001"/>
</g>
<!-- Node81 -->
<g id="node5" class="node"><title>Node81</title>
<g id="a_node5"><a xlink:href="run_8c.html#abb80d08f4d52f4a7bdf28d1cecfead5b" target="_top" xlink:title="compute_accelerations">
<polygon fill="white" stroke="black" points="474,-0.5 474,-19.5 591,-19.5 591,-0.5 474,-0.5"/>
<text text-anchor="middle" x="532.5" y="-7.5" font-family="Helvetica,sans-Serif" font-size="10.00">compute_accelerations</text>
</a>
</g>
</g>
<!-- Node80&#45;&gt;Node81 -->
<g id="edge4" class="edge"><title>Node80&#45;&gt;Node81</title>
<path fill="none" stroke="midnightblue" d="M448.239,-10C456.447,-10 465.12,-10 473.647,-10"/>
<polygon fill="midnightblue" stroke="midnightblue" points="448.139,-6.5001 438.139,-10 448.139,-13.5001 448.139,-6.5001"/>
</g>
<!-- Node82 -->
<g id="node6" class="node"><title>Node82</title>
<g id="a_node6"><a xlink:href="run_8c.html#a05e0ffe612d44e6d7f3a9ae5b9df56a2" target="_top" xlink:title="run">
<polygon fill="white" stroke="black" points="627,-0.5 627,-19.5 657,-19.5 657,-0.5 627,-0.5"/>
<text text-anchor="middle" x="642" y="-7.5" font-family="Helvetica,sans-Serif" font-size="10.00">run</text>
</a>
</g>
</g>
<!-- Node81&#45;&gt;Node82 -->
<g id="edge5" class="edge"><title>Node81&#45;&gt;Node82</title>
<path fill="none" stroke="midnightblue" d="M601.254,-10C610.899,-10 619.897,-10 626.884,-10"/>
<polygon fill="midnightblue" stroke="midnightblue" points="601.027,-6.5001 591.027,-10 601.026,-13.5001 601.027,-6.5001"/>
</g>
<!-- Node83 -->
<g id="node7" class="node"><title>Node83</title>
<g id="a_node7"><a xlink:href="main_8c.html#a3c04138a5bfe5d72780bb7e82a18e627" target="_top" xlink:title="main">
<polygon fill="white" stroke="black" points="693,-19.5 693,-38.5 731,-38.5 731,-19.5 693,-19.5"/>
<text text-anchor="middle" x="712" y="-26.5" font-family="Helvetica,sans-Serif" font-size="10.00">main</text>
</a>
</g>
</g>
<!-- Node82&#45;&gt;Node83 -->
<g id="edge6" class="edge"><title>Node82&#45;&gt;Node83</title>
<path fill="none" stroke="midnightblue" d="M666.853,-16.6647C675.37,-19.0447 684.823,-21.686 692.79,-23.9119"/>
<polygon fill="midnightblue" stroke="midnightblue" points="667.663,-13.257 657.09,-13.9368 665.779,-19.9988 667.663,-13.257"/>
</g>
<!-- Node84 -->
<g id="node8" class="node"><title>Node84</title>
<g id="a_node8"><a xlink:href="walltime_8h.html#a76d2135b612766d4d665748454b879d6" target="_top" xlink:title="walltime_report">
<polygon fill="white" stroke="black" points="767,-19.5 767,-38.5 850,-38.5 850,-19.5 767,-19.5"/>
<text text-anchor="middle" x="808.5" y="-26.5" font-family="Helvetica,sans-Serif" font-size="10.00">walltime_report</text>
</a>
</g>
</g>
<!-- Node83&#45;&gt;Node84 -->
<g id="edge7" class="edge"><title>Node83&#45;&gt;Node84</title>
<path fill="none" stroke="midnightblue" d="M741.411,-29C749.347,-29 758.132,-29 766.635,-29"/>
<polygon fill="midnightblue" stroke="midnightblue" points="741.221,-25.5001 731.221,-29 741.221,-32.5001 741.221,-25.5001"/>
</g>
<!-- Node85 -->
<g id="node9" class="node"><title>Node85</title>
<g id="a_node9"><a xlink:href="run_8c.html#adc59e9ee1517e4e690694a64ab6a59d2" target="_top" xlink:title="write_cpu_log">
<polygon fill="white" stroke="black" points="886,-0.5 886,-19.5 963,-19.5 963,-0.5 886,-0.5"/>
<text text-anchor="middle" x="924.5" y="-7.5" font-family="Helvetica,sans-Serif" font-size="10.00">write_cpu_log</text>
</a>
</g>
</g>
<!-- Node84&#45;&gt;Node85 -->
<g id="edge8" class="edge"><title>Node84&#45;&gt;Node85</title>
<path fill="none" stroke="midnightblue" d="M860.031,-20.5782C868.684,-19.1359 877.54,-17.6601 885.785,-16.2859"/>
<polygon fill="midnightblue" stroke="midnightblue" points="859.302,-17.1514 850.013,-22.2478 860.452,-24.0561 859.302,-17.1514"/>
</g>
<!-- Node85&#45;&gt;Node82 -->
<g id="edge9" class="edge"><title>Node85&#45;&gt;Node82</title>
<path fill="none" stroke="midnightblue" d="M875.727,-10C810.488,-10 697.088,-10 657.296,-10"/>
<polygon fill="midnightblue" stroke="midnightblue" points="875.765,-13.5001 885.765,-10 875.765,-6.5001 875.765,-13.5001"/>
</g>
</g>
</svg>
