<?xml version="1.0" encoding="UTF-8" standalone="no"?>
<!DOCTYPE svg PUBLIC "-//W3C//DTD SVG 1.1//EN"
 "http://www.w3.org/Graphics/SVG/1.1/DTD/svg11.dtd">
<!-- Generated by graphviz version 2.38.0 (20140413.2041)
 -->
<!-- Title: CoolingRateFromU Pages: 1 -->
<svg width="880pt" height="589pt"
 viewBox="0.00 0.00 880.00 589.18" xmlns="http://www.w3.org/2000/svg" xmlns:xlink="http://www.w3.org/1999/xlink">
<g id="graph0" class="graph" transform="scale(1 1) rotate(0) translate(4 585.184)">
<title>CoolingRateFromU</title>
<polygon fill="white" stroke="none" points="-4,4 -4,-585.184 876,-585.184 876,4 -4,4"/>
<!-- Node48 -->
<g id="node1" class="node"><title>Node48</title>
<polygon fill="#bfbfbf" stroke="black" points="492,-62.8538 492,-81.8538 593,-81.8538 593,-62.8538 492,-62.8538"/>
<text text-anchor="middle" x="542.5" y="-69.8538" font-family="Helvetica,sans-Serif" font-size="10.00">CoolingRateFromU</text>
</g>
<!-- Node49 -->
<g id="node2" class="node"><title>Node49</title>
<g id="a_node2"><a xlink:href="cooling_8h.html#a89d3440e3ecc1e262536d6c47a301c3e" target="_top" xlink:title="DoCooling">
<polygon fill="white" stroke="black" points="475.5,-125.208 475.5,-144.208 537.5,-144.208 537.5,-125.208 475.5,-125.208"/>
<text text-anchor="middle" x="506.5" y="-132.208" font-family="Helvetica,sans-Serif" font-size="10.00">DoCooling</text>
</a>
</g>
</g>
<!-- Node48&#45;&gt;Node49 -->
<g id="edge1" class="edge"><title>Node48&#45;&gt;Node49</title>
<path fill="none" stroke="midnightblue" d="M531.721,-91.0238C525.309,-102.13 517.432,-115.774 512.204,-124.828"/>
<polygon fill="midnightblue" stroke="midnightblue" points="534.906,-92.5069 536.875,-82.0966 528.844,-89.0069 534.906,-92.5069"/>
</g>
<!-- Node58 -->
<g id="node11" class="node"><title>Node58</title>
<g id="a_node11"><a xlink:href="cooling_8h.html#a8559afa70c9a321c2f2e376fa6bdf45e" target="_top" xlink:title="GetCoolingTime">
<polygon fill="white" stroke="black" points="535,-0.5 535,-19.5 622,-19.5 622,-0.5 535,-0.5"/>
<text text-anchor="middle" x="578.5" y="-7.5" font-family="Helvetica,sans-Serif" font-size="10.00">GetCoolingTime</text>
</a>
</g>
</g>
<!-- Node48&#45;&gt;Node58 -->
<g id="edge11" class="edge"><title>Node48&#45;&gt;Node58</title>
<path fill="none" stroke="midnightblue" d="M553.279,-53.6839C559.691,-42.5781 567.568,-28.9341 572.796,-19.8801"/>
<polygon fill="midnightblue" stroke="midnightblue" points="550.094,-52.2008 548.125,-62.611 556.156,-55.7008 550.094,-52.2008"/>
</g>
<!-- Node50 -->
<g id="node3" class="node"><title>Node50</title>
<g id="a_node3"><a xlink:href="sfr__eff_8c.html#a2d96bcfa1a035956535e5840d306744b" target="_top" xlink:title="cooling_direct">
<polygon fill="white" stroke="black" points="432,-187.561 432,-206.561 509,-206.561 509,-187.561 432,-187.561"/>
<text text-anchor="middle" x="470.5" y="-194.561" font-family="Helvetica,sans-Serif" font-size="10.00">cooling_direct</text>
</a>
</g>
</g>
<!-- Node49&#45;&gt;Node50 -->
<g id="edge2" class="edge"><title>Node49&#45;&gt;Node50</title>
<path fill="none" stroke="midnightblue" d="M495.721,-153.378C489.309,-164.483 481.432,-178.127 476.204,-187.181"/>
<polygon fill="midnightblue" stroke="midnightblue" points="498.906,-154.861 500.875,-144.45 492.844,-151.361 498.906,-154.861"/>
</g>
<!-- Node51 -->
<g id="node4" class="node"><title>Node51</title>
<g id="a_node4"><a xlink:href="sfr__eff_8c.html#aec2d4b18a02ca0bbca8111e41fae0248" target="_top" xlink:title="cool_postprocess">
<polygon fill="white" stroke="black" points="388,-249.915 388,-268.915 481,-268.915 481,-249.915 388,-249.915"/>
<text text-anchor="middle" x="434.5" y="-256.915" font-family="Helvetica,sans-Serif" font-size="10.00">cool_postprocess</text>
</a>
</g>
</g>
<!-- Node50&#45;&gt;Node51 -->
<g id="edge3" class="edge"><title>Node50&#45;&gt;Node51</title>
<path fill="none" stroke="midnightblue" d="M459.721,-215.731C453.309,-226.837 445.432,-240.481 440.204,-249.535"/>
<polygon fill="midnightblue" stroke="midnightblue" points="462.906,-217.215 464.875,-206.804 456.844,-213.715 462.906,-217.215"/>
</g>
<!-- Node52 -->
<g id="node5" class="node"><title>Node52</title>
<g id="a_node5"><a xlink:href="sfr__eff_8h.html#aaa7b178a168a5d23b2cfe478ebc58ee1" target="_top" xlink:title="cooling_only">
<polygon fill="white" stroke="black" points="363,-312.269 363,-331.269 434,-331.269 434,-312.269 363,-312.269"/>
<text text-anchor="middle" x="398.5" y="-319.269" font-family="Helvetica,sans-Serif" font-size="10.00">cooling_only</text>
</a>
</g>
</g>
<!-- Node51&#45;&gt;Node52 -->
<g id="edge4" class="edge"><title>Node51&#45;&gt;Node52</title>
<path fill="none" stroke="midnightblue" d="M423.721,-278.085C417.309,-289.191 409.432,-302.835 404.204,-311.889"/>
<polygon fill="midnightblue" stroke="midnightblue" points="426.906,-279.568 428.875,-269.158 420.844,-276.068 426.906,-279.568"/>
</g>
<!-- Node53 -->
<g id="node6" class="node"><title>Node53</title>
<g id="a_node6"><a xlink:href="run_8c.html#abb80d08f4d52f4a7bdf28d1cecfead5b" target="_top" xlink:title="compute_accelerations">
<polygon fill="white" stroke="black" points="304,-374.623 304,-393.623 421,-393.623 421,-374.623 304,-374.623"/>
<text text-anchor="middle" x="362.5" y="-381.623" font-family="Helvetica,sans-Serif" font-size="10.00">compute_accelerations</text>
</a>
</g>
</g>
<!-- Node52&#45;&gt;Node53 -->
<g id="edge5" class="edge"><title>Node52&#45;&gt;Node53</title>
<path fill="none" stroke="midnightblue" d="M387.721,-340.439C381.309,-351.545 373.432,-365.189 368.204,-374.243"/>
<polygon fill="midnightblue" stroke="midnightblue" points="390.906,-341.922 392.875,-331.512 384.844,-338.422 390.906,-341.922"/>
</g>
<!-- Node54 -->
<g id="node7" class="node"><title>Node54</title>
<g id="a_node7"><a xlink:href="run_8c.html#a05e0ffe612d44e6d7f3a9ae5b9df56a2" target="_top" xlink:title="run">
<polygon fill="white" stroke="black" points="311.5,-436.977 311.5,-455.977 341.5,-455.977 341.5,-436.977 311.5,-436.977"/>
<text text-anchor="middle" x="326.5" y="-443.977" font-family="Helvetica,sans-Serif" font-size="10.00">run</text>
</a>
</g>
</g>
<!-- Node53&#45;&gt;Node54 -->
<g id="edge6" class="edge"><title>Node53&#45;&gt;Node54</title>
<path fill="none" stroke="midnightblue" d="M351.721,-402.793C345.309,-413.899 337.432,-427.543 332.204,-436.597"/>
<polygon fill="midnightblue" stroke="midnightblue" points="354.906,-404.276 356.875,-393.866 348.844,-400.776 354.906,-404.276"/>
</g>
<!-- Node55 -->
<g id="node8" class="node"><title>Node55</title>
<g id="a_node8"><a xlink:href="main_8c.html#a3c04138a5bfe5d72780bb7e82a18e627" target="_top" xlink:title="main">
<polygon fill="white" stroke="black" points="775.5,-499.331 775.5,-518.331 813.5,-518.331 813.5,-499.331 775.5,-499.331"/>
<text text-anchor="middle" x="794.5" y="-506.331" font-family="Helvetica,sans-Serif" font-size="10.00">main</text>
</a>
</g>
</g>
<!-- Node54&#45;&gt;Node55 -->
<g id="edge7" class="edge"><title>Node54&#45;&gt;Node55</title>
<path fill="none" stroke="midnightblue" d="M351.63,-449.825C434.999,-460.933 701.34,-496.419 775.293,-506.272"/>
<polygon fill="midnightblue" stroke="midnightblue" points="351.916,-446.332 341.541,-448.481 350.991,-453.271 351.916,-446.332"/>
</g>
<!-- Node56 -->
<g id="node9" class="node"><title>Node56</title>
<g id="a_node9"><a xlink:href="walltime_8h.html#a76d2135b612766d4d665748454b879d6" target="_top" xlink:title="walltime_report">
<polygon fill="white" stroke="black" points="789,-561.684 789,-580.684 872,-580.684 872,-561.684 789,-561.684"/>
<text text-anchor="middle" x="830.5" y="-568.684" font-family="Helvetica,sans-Serif" font-size="10.00">walltime_report</text>
</a>
</g>
</g>
<!-- Node55&#45;&gt;Node56 -->
<g id="edge8" class="edge"><title>Node55&#45;&gt;Node56</title>
<path fill="none" stroke="midnightblue" d="M805.279,-527.501C811.691,-538.606 819.568,-552.25 824.796,-561.304"/>
<polygon fill="midnightblue" stroke="midnightblue" points="808.156,-525.484 800.125,-518.573 802.094,-528.984 808.156,-525.484"/>
</g>
<!-- Node57 -->
<g id="node10" class="node"><title>Node57</title>
<g id="a_node10"><a xlink:href="run_8c.html#adc59e9ee1517e4e690694a64ab6a59d2" target="_top" xlink:title="write_cpu_log">
<polygon fill="white" stroke="black" points="-5.68434e-14,-62.8538 -5.68434e-14,-81.8538 77,-81.8538 77,-62.8538 -5.68434e-14,-62.8538"/>
<text text-anchor="middle" x="38.5" y="-69.8538" font-family="Helvetica,sans-Serif" font-size="10.00">write_cpu_log</text>
</a>
</g>
</g>
<!-- Node56&#45;&gt;Node57 -->
<g id="edge9" class="edge"><title>Node56&#45;&gt;Node57</title>
<path fill="none" stroke="midnightblue" d="M806.916,-556.331C687.498,-481.116 151.376,-143.447 53.7728,-81.9732"/>
<polygon fill="midnightblue" stroke="midnightblue" points="805.059,-559.297 815.386,-561.665 808.79,-553.374 805.059,-559.297"/>
</g>
<!-- Node57&#45;&gt;Node54 -->
<g id="edge10" class="edge"><title>Node57&#45;&gt;Node54</title>
<path fill="none" stroke="midnightblue" d="M52.2378,-90.1997C103.239,-156.452 280.746,-387.04 319.14,-436.916"/>
<polygon fill="midnightblue" stroke="midnightblue" points="54.782,-87.7669 45.9086,-81.9778 49.2351,-92.0369 54.782,-87.7669"/>
</g>
<!-- Node58&#45;&gt;Node50 -->
<g id="edge12" class="edge"><title>Node58&#45;&gt;Node50</title>
<path fill="none" stroke="midnightblue" d="M567.948,-28.2771C545.43,-67.279 493.323,-157.53 476.123,-187.323"/>
<polygon fill="midnightblue" stroke="midnightblue" points="571.027,-29.9439 572.996,-19.5336 564.965,-26.4438 571.027,-29.9439"/>
</g>
</g>
</svg>
