<?xml version="1.0" encoding="UTF-8" standalone="no"?>
<!DOCTYPE svg PUBLIC "-//W3C//DTD SVG 1.1//EN"
 "http://www.w3.org/Graphics/SVG/1.1/DTD/svg11.dtd">
<!-- Generated by graphviz version 2.50.0 (0)
 -->
<!-- Title: TableMetalCoolingRate Pages: 1 -->
<svg width="351pt" height="28pt"
 viewBox="0.00 0.00 351.00 28.00" xmlns="http://www.w3.org/2000/svg" xmlns:xlink="http://www.w3.org/1999/xlink">
<g id="graph0" class="graph" transform="scale(1 1) rotate(0) translate(4 24)">
<title>TableMetalCoolingRate</title>
<polygon fill="white" stroke="transparent" points="-4,4 -4,-24 347,-24 347,4 -4,4"/>
<!-- Node1 -->
<g id="node1" class="node">
<title>Node1</title>
<g id="a_node1"><a xlink:title=" ">
<polygon fill="#bfbfbf" stroke="black" points="0,-0.5 0,-19.5 129,-19.5 129,-0.5 0,-0.5"/>
<text text-anchor="middle" x="64.5" y="-7.5" font-family="Helvetica,sans-Serif" font-size="10.00">TableMetalCoolingRate</text>
</a>
</g>
</g>
<!-- Node2 -->
<g id="node2" class="node">
<title>Node2</title>
<g id="a_node2"><a xlink:href="interp_8c.html#a122801a20f7bc02d225659574ce6ed1f" target="_top" xlink:title=" ">
<polygon fill="white" stroke="black" points="165,-0.5 165,-19.5 236,-19.5 236,-0.5 165,-0.5"/>
<text text-anchor="middle" x="200.5" y="-7.5" font-family="Helvetica,sans-Serif" font-size="10.00">interp_eval</text>
</a>
</g>
</g>
<!-- Node1&#45;&gt;Node2 -->
<g id="edge1" class="edge">
<title>Node1&#45;&gt;Node2</title>
<path fill="none" stroke="midnightblue" d="M129.36,-10C137.99,-10 146.68,-10 154.87,-10"/>
<polygon fill="midnightblue" stroke="midnightblue" points="154.94,-13.5 164.94,-10 154.94,-6.5 154.94,-13.5"/>
</g>
<!-- Node3 -->
<g id="node3" class="node">
<title>Node3</title>
<g id="a_node3"><a xlink:href="interp_8c.html#a6aed1ca33077431a63a03015b419ccf8" target="_top" xlink:title=" ">
<polygon fill="white" stroke="black" points="272,-0.5 272,-19.5 343,-19.5 343,-0.5 272,-0.5"/>
<text text-anchor="middle" x="307.5" y="-7.5" font-family="Helvetica,sans-Serif" font-size="10.00">linearindex</text>
</a>
</g>
</g>
<!-- Node2&#45;&gt;Node3 -->
<g id="edge2" class="edge">
<title>Node2&#45;&gt;Node3</title>
<path fill="none" stroke="midnightblue" d="M236.17,-10C244.33,-10 253.13,-10 261.66,-10"/>
<polygon fill="midnightblue" stroke="midnightblue" points="261.86,-13.5 271.86,-10 261.86,-6.5 261.86,-13.5"/>
</g>
</g>
</svg>
