<?xml version="1.0" encoding="UTF-8" standalone="no"?>
<!DOCTYPE svg PUBLIC "-//W3C//DTD SVG 1.1//EN"
 "http://www.w3.org/Graphics/SVG/1.1/DTD/svg11.dtd">
<!-- Generated by graphviz version 2.38.0 (20140413.2041)
 -->
<!-- Title: cooling.c Pages: 1 -->
<!--zoomable 660 -->
<svg id="main" version="1.1" xmlns="http://www.w3.org/2000/svg" xmlns:xlink="http://www.w3.org/1999/xlink" xml:space="preserve" onload="init(evt)">
<style type="text/css"><![CDATA[
.edge:hover path { stroke: red; }
.edge:hover polygon { stroke: red; fill: red; }
]]></style>
<script type="text/javascript"><![CDATA[
var edges = document.getElementsByTagName('g');
if (edges && edges.length) {
  for (var i=0;i<edges.length;i++) {
    if (edges[i].id.substr(0,4)=='edge') {
      edges[i].setAttribute('class','edge');
    }
  }
}
]]></script>
        <defs>
                <circle id="rim" cx="0" cy="0" r="7"/>
                <circle id="rim2" cx="0" cy="0" r="3.5"/>
                <g id="zoomPlus">
                        <use xlink:href="#rim" fill="#404040">
                                <set attributeName="fill" to="#808080" begin="zoomplus.mouseover" end="zoomplus.mouseout"/>
                        </use>
                        <path d="M-4,0h8M0,-4v8" fill="none" stroke="white" stroke-width="1.5" pointer-events="none"/>
                </g>
                <g id="zoomMin">
                        <use xlink:href="#rim" fill="#404040">
                                <set attributeName="fill" to="#808080" begin="zoomminus.mouseover" end="zoomminus.mouseout"/>
                        </use>
                        <path d="M-4,0h8" fill="none" stroke="white" stroke-width="1.5" pointer-events="none"/>
                </g>
                <g id="dirArrow">
                        <path fill="none" stroke="white" stroke-width="1.5" d="M0,-3.0v7 M-2.5,-0.5L0,-3.0L2.5,-0.5"/>
                </g>
               <g id="resetDef">
                       <use xlink:href="#rim2" fill="#404040">
                               <set attributeName="fill" to="#808080" begin="reset.mouseover" end="reset.mouseout"/>
                       </use>
               </g>
        </defs>

<script type="text/javascript">
var viewWidth = 549;
var viewHeight = 660;
var sectionId = 'dynsection-0';
</script>
<script xlink:href="svgpan.js"/>
<svg id="graph" class="graph">
<g id="viewport">
<title>cooling.c</title>
<polygon fill="white" stroke="none" points="-4,4 -4,-655.789 545.343,-655.789 545.343,4 -4,4"/>
<!-- Node0 -->
<g id="node1" class="node"><title>Node0</title>
<polygon fill="#bfbfbf" stroke="black" points="172.125,-151.728 172.125,-170.728 228.125,-170.728 228.125,-151.728 172.125,-151.728"/>
<text text-anchor="middle" x="200.125" y="-158.728" font-family="Helvetica,sans-Serif" font-size="10.00">cooling.c</text>
</g>
<!-- Node1 -->
<g id="node2" class="node"><title>Node1</title>
<polygon fill="white" stroke="#bfbfbf" points="500.343,-376.297 500.343,-395.297 541.343,-395.297 541.343,-376.297 500.343,-376.297"/>
<text text-anchor="middle" x="520.843" y="-383.297" font-family="Helvetica,sans-Serif" font-size="10.00">mpi.h</text>
</g>
<!-- Node0&#45;&gt;Node1 -->
<g id="edge1" class="edge"><title>Node0&#45;&gt;Node1</title>
<path fill="none" stroke="midnightblue" d="M213.906,-170.877C264.073,-206.005 437.237,-327.256 498.859,-370.404"/>
<polygon fill="midnightblue" stroke="midnightblue" points="496.915,-373.315 507.114,-376.184 500.93,-367.581 496.915,-373.315"/>
</g>
<!-- Node2 -->
<g id="node3" class="node"><title>Node2</title>
<polygon fill="white" stroke="#bfbfbf" points="472.186,-446.789 472.186,-465.789 518.186,-465.789 518.186,-446.789 472.186,-446.789"/>
<text text-anchor="middle" x="495.186" y="-453.789" font-family="Helvetica,sans-Serif" font-size="10.00">stdio.h</text>
</g>
<!-- Node0&#45;&gt;Node2 -->
<g id="edge2" class="edge"><title>Node0&#45;&gt;Node2</title>
<path fill="none" stroke="midnightblue" d="M209.942,-171.045C252.831,-213.934 424.034,-385.137 478.475,-439.578"/>
<polygon fill="midnightblue" stroke="midnightblue" points="476.084,-442.137 485.63,-446.734 481.034,-437.188 476.084,-442.137"/>
</g>
<!-- Node3 -->
<g id="node4" class="node"><title>Node3</title>
<polygon fill="white" stroke="#bfbfbf" points="0.5,-388.8 0.5,-407.8 48.5,-407.8 48.5,-388.8 0.5,-388.8"/>
<text text-anchor="middle" x="24.5" y="-395.8" font-family="Helvetica,sans-Serif" font-size="10.00">stdlib.h</text>
</g>
<!-- Node0&#45;&gt;Node3 -->
<g id="edge3" class="edge"><title>Node0&#45;&gt;Node3</title>
<path fill="none" stroke="midnightblue" d="M193.022,-170.815C166.436,-206.704 72.5326,-333.462 37.6631,-380.531"/>
<polygon fill="midnightblue" stroke="midnightblue" points="34.8309,-378.475 31.6906,-388.594 40.4556,-382.642 34.8309,-378.475"/>
</g>
<!-- Node4 -->
<g id="node5" class="node"><title>Node4</title>
<polygon fill="white" stroke="#bfbfbf" points="-3.90799e-14,-288.779 -3.90799e-14,-307.779 49,-307.779 49,-288.779 -3.90799e-14,-288.779"/>
<text text-anchor="middle" x="24.5" y="-295.779" font-family="Helvetica,sans-Serif" font-size="10.00">string.h</text>
</g>
<!-- Node0&#45;&gt;Node4 -->
<g id="edge4" class="edge"><title>Node0&#45;&gt;Node4</title>
<path fill="none" stroke="midnightblue" d="M187.775,-170.865C157.994,-194.105 81.9717,-253.43 45.1318,-282.178"/>
<polygon fill="midnightblue" stroke="midnightblue" points="42.8014,-279.557 37.071,-288.469 47.1079,-285.076 42.8014,-279.557"/>
</g>
<!-- Node5 -->
<g id="node6" class="node"><title>Node5</title>
<polygon fill="white" stroke="#bfbfbf" points="35.2093,-194.789 35.2093,-213.789 82.2093,-213.789 82.2093,-194.789 35.2093,-194.789"/>
<text text-anchor="middle" x="58.7093" y="-201.789" font-family="Helvetica,sans-Serif" font-size="10.00">math.h</text>
</g>
<!-- Node0&#45;&gt;Node5 -->
<g id="edge5" class="edge"><title>Node0&#45;&gt;Node5</title>
<path fill="none" stroke="midnightblue" d="M171.847,-169.838C148.855,-176.84 116.365,-186.733 92.0967,-194.123"/>
<polygon fill="midnightblue" stroke="midnightblue" points="90.7977,-190.86 82.251,-197.121 92.8369,-197.556 90.7977,-190.86"/>
</g>
<!-- Node6 -->
<g id="node7" class="node"><title>Node6</title>
<g id="a_node7"><a xlink:href="allvars_8h.html" target="_top" xlink:title="declares global variables. ">
<polygon fill="white" stroke="black" points="146.309,-388.04 146.309,-407.04 199.309,-407.04 199.309,-388.04 146.309,-388.04"/>
<text text-anchor="middle" x="172.809" y="-395.04" font-family="Helvetica,sans-Serif" font-size="10.00">allvars.h</text>
</a>
</g>
</g>
<!-- Node0&#45;&gt;Node6 -->
<g id="edge6" class="edge"><title>Node0&#45;&gt;Node6</title>
<path fill="none" stroke="midnightblue" d="M199.02,-170.784C194.945,-206.038 180.703,-329.251 175.099,-377.73"/>
<polygon fill="midnightblue" stroke="midnightblue" points="171.599,-377.529 173.927,-387.865 178.552,-378.333 171.599,-377.529"/>
</g>
<!-- Node17 -->
<g id="node18" class="node"><title>Node17</title>
<g id="a_node18"><a xlink:href="partmanager_8h.html" target="_top" xlink:title="partmanager.h">
<polygon fill="white" stroke="black" points="393.332,-266.789 393.332,-285.789 472.332,-285.789 472.332,-266.789 393.332,-266.789"/>
<text text-anchor="middle" x="432.832" y="-273.789" font-family="Helvetica,sans-Serif" font-size="10.00">partmanager.h</text>
</a>
</g>
</g>
<!-- Node0&#45;&gt;Node17 -->
<g id="edge19" class="edge"><title>Node0&#45;&gt;Node17</title>
<path fill="none" stroke="midnightblue" d="M219.565,-170.84C260.648,-191.153 356.447,-238.521 404.412,-262.237"/>
<polygon fill="midnightblue" stroke="midnightblue" points="403.096,-265.491 413.611,-266.785 406.198,-259.216 403.096,-265.491"/>
</g>
<!-- Node20 -->
<g id="node21" class="node"><title>Node20</title>
<polygon fill="white" stroke="#bfbfbf" points="98.0018,-118.169 98.0018,-137.169 148.002,-137.169 148.002,-118.169 98.0018,-118.169"/>
<text text-anchor="middle" x="123.002" y="-125.169" font-family="Helvetica,sans-Serif" font-size="10.00">bigfile.h</text>
</g>
<!-- Node0&#45;&gt;Node20 -->
<g id="edge25" class="edge"><title>Node0&#45;&gt;Node20</title>
<path fill="none" stroke="midnightblue" d="M178.231,-151.701C170.741,-148.442 162.212,-144.731 154.135,-141.216"/>
<polygon fill="midnightblue" stroke="midnightblue" points="155.517,-138 144.951,-137.219 152.724,-144.419 155.517,-138"/>
</g>
<!-- Node21 -->
<g id="node22" class="node"><title>Node21</title>
<g id="a_node22"><a xlink:href="cooling_8h.html" target="_top" xlink:title="cooling.h">
<polygon fill="white" stroke="black" points="181.623,-68.1579 181.623,-87.1579 237.623,-87.1579 237.623,-68.1579 181.623,-68.1579"/>
<text text-anchor="middle" x="209.623" y="-75.1579" font-family="Helvetica,sans-Serif" font-size="10.00">cooling.h</text>
</a>
</g>
</g>
<!-- Node0&#45;&gt;Node21 -->
<g id="edge26" class="edge"><title>Node0&#45;&gt;Node21</title>
<path fill="none" stroke="midnightblue" d="M201.214,-151.641C202.709,-138.488 205.432,-114.534 207.374,-97.4454"/>
<polygon fill="midnightblue" stroke="midnightblue" points="210.865,-97.7213 208.517,-87.39 203.91,-96.9308 210.865,-97.7213"/>
</g>
<!-- Node22 -->
<g id="node23" class="node"><title>Node22</title>
<g id="a_node23"><a xlink:href="interp_8h.html" target="_top" xlink:title="interp.h">
<polygon fill="white" stroke="black" points="283.625,-50.7893 283.625,-69.7893 332.625,-69.7893 332.625,-50.7893 283.625,-50.7893"/>
<text text-anchor="middle" x="308.125" y="-57.7893" font-family="Helvetica,sans-Serif" font-size="10.00">interp.h</text>
</a>
</g>
</g>
<!-- Node0&#45;&gt;Node22 -->
<g id="edge27" class="edge"><title>Node0&#45;&gt;Node22</title>
<path fill="none" stroke="midnightblue" d="M210.48,-151.549C228.913,-134.322 267.609,-98.1561 290.363,-76.8894"/>
<polygon fill="midnightblue" stroke="midnightblue" points="293.042,-79.1764 297.958,-69.7911 288.262,-74.0622 293.042,-79.1764"/>
</g>
<!-- Node23 -->
<g id="node24" class="node"><title>Node23</title>
<g id="a_node24"><a xlink:href="mymalloc_8h.html" target="_top" xlink:title="mymalloc.h">
<polygon fill="white" stroke="black" points="373.126,-68.1579 373.126,-87.1579 440.126,-87.1579 440.126,-68.1579 373.126,-68.1579"/>
<text text-anchor="middle" x="406.626" y="-75.1579" font-family="Helvetica,sans-Serif" font-size="10.00">mymalloc.h</text>
</a>
</g>
</g>
<!-- Node0&#45;&gt;Node23 -->
<g id="edge28" class="edge"><title>Node0&#45;&gt;Node23</title>
<path fill="none" stroke="midnightblue" d="M223.813,-151.641C260.592,-136.757 331.546,-108.042 373.42,-91.0965"/>
<polygon fill="midnightblue" stroke="midnightblue" points="374.94,-94.2568 382.897,-87.261 372.314,-87.768 374.94,-94.2568"/>
</g>
<!-- Node25 -->
<g id="node26" class="node"><title>Node25</title>
<g id="a_node26"><a xlink:href="endrun_8h.html" target="_top" xlink:title="endrun.h">
<polygon fill="white" stroke="black" points="466.247,-118.169 466.247,-137.169 520.247,-137.169 520.247,-118.169 466.247,-118.169"/>
<text text-anchor="middle" x="493.247" y="-125.169" font-family="Helvetica,sans-Serif" font-size="10.00">endrun.h</text>
</a>
</g>
</g>
<!-- Node0&#45;&gt;Node25 -->
<g id="edge30" class="edge"><title>Node0&#45;&gt;Node25</title>
<path fill="none" stroke="midnightblue" d="M228.23,-158.01C281.355,-151.928 396.499,-138.745 455.991,-131.934"/>
<polygon fill="midnightblue" stroke="midnightblue" points="456.543,-135.394 466.08,-130.779 455.747,-128.439 456.543,-135.394"/>
</g>
<!-- Node6&#45;&gt;Node1 -->
<g id="edge7" class="edge"><title>Node6&#45;&gt;Node1</title>
<path fill="none" stroke="midnightblue" d="M199.541,-396.638C262.998,-394.497 422.44,-389.118 489.914,-386.841"/>
<polygon fill="midnightblue" stroke="midnightblue" points="490.048,-390.338 499.925,-386.503 489.812,-383.342 490.048,-390.338"/>
</g>
<!-- Node6&#45;&gt;Node2 -->
<g id="edge8" class="edge"><title>Node6&#45;&gt;Node2</title>
<path fill="none" stroke="midnightblue" d="M199.465,-402.398C258.053,-413.075 397.916,-438.563 462.039,-450.249"/>
<polygon fill="midnightblue" stroke="midnightblue" points="461.551,-453.717 472.017,-452.067 462.806,-446.831 461.551,-453.717"/>
</g>
<!-- Node7 -->
<g id="node8" class="node"><title>Node7</title>
<polygon fill="white" stroke="#bfbfbf" points="410.967,-504.255 410.967,-523.255 482.967,-523.255 482.967,-504.255 410.967,-504.255"/>
<text text-anchor="middle" x="446.967" y="-511.255" font-family="Helvetica,sans-Serif" font-size="10.00">gsl/gsl_rng.h</text>
</g>
<!-- Node6&#45;&gt;Node7 -->
<g id="edge9" class="edge"><title>Node6&#45;&gt;Node7</title>
<path fill="none" stroke="midnightblue" d="M195.244,-407.051C243.742,-427.609 358.495,-476.252 414.748,-500.098"/>
<polygon fill="midnightblue" stroke="midnightblue" points="413.648,-503.433 424.221,-504.113 416.38,-496.988 413.648,-503.433"/>
</g>
<!-- Node8 -->
<g id="node9" class="node"><title>Node8</title>
<polygon fill="white" stroke="#bfbfbf" points="357.001,-541.763 357.001,-560.763 407.001,-560.763 407.001,-541.763 357.001,-541.763"/>
<text text-anchor="middle" x="382.001" y="-548.763" font-family="Helvetica,sans-Serif" font-size="10.00">signal.h</text>
</g>
<!-- Node6&#45;&gt;Node8 -->
<g id="edge10" class="edge"><title>Node6&#45;&gt;Node8</title>
<path fill="none" stroke="midnightblue" d="M185.895,-407.156C221.041,-432.983 317.742,-504.043 360.818,-535.697"/>
<polygon fill="midnightblue" stroke="midnightblue" points="358.789,-538.549 368.92,-541.651 362.934,-532.909 358.789,-538.549"/>
</g>
<!-- Node9 -->
<g id="node10" class="node"><title>Node9</title>
<g id="a_node10"><a xlink:href="cosmology_8h.html" target="_top" xlink:title="cosmology.h">
<polygon fill="white" stroke="black" points="272.125,-554.789 272.125,-573.789 344.125,-573.789 344.125,-554.789 272.125,-554.789"/>
<text text-anchor="middle" x="308.125" y="-561.789" font-family="Helvetica,sans-Serif" font-size="10.00">cosmology.h</text>
</a>
</g>
</g>
<!-- Node6&#45;&gt;Node9 -->
<g id="edge11" class="edge"><title>Node6&#45;&gt;Node9</title>
<path fill="none" stroke="midnightblue" d="M180.868,-407.472C203.108,-434.877 265.559,-511.835 293.862,-546.714"/>
<polygon fill="midnightblue" stroke="midnightblue" points="291.258,-549.059 300.277,-554.619 296.693,-544.648 291.258,-549.059"/>
</g>
<!-- Node12 -->
<g id="node13" class="node"><title>Node12</title>
<g id="a_node13"><a xlink:href="walltime_8h.html" target="_top" xlink:title="walltime.h">
<polygon fill="white" stroke="black" points="203.748,-541.763 203.748,-560.763 264.748,-560.763 264.748,-541.763 203.748,-541.763"/>
<text text-anchor="middle" x="234.248" y="-548.763" font-family="Helvetica,sans-Serif" font-size="10.00">walltime.h</text>
</a>
</g>
</g>
<!-- Node6&#45;&gt;Node12 -->
<g id="edge14" class="edge"><title>Node6&#45;&gt;Node12</title>
<path fill="none" stroke="midnightblue" d="M176.652,-407.156C186.608,-432.067 213.382,-499.056 226.622,-532.182"/>
<polygon fill="midnightblue" stroke="midnightblue" points="223.445,-533.664 230.406,-541.651 229.945,-531.066 223.445,-533.664"/>
</g>
<!-- Node13 -->
<g id="node14" class="node"><title>Node13</title>
<polygon fill="white" stroke="#bfbfbf" points="143.283,-504.255 143.283,-523.255 195.283,-523.255 195.283,-504.255 143.283,-504.255"/>
<text text-anchor="middle" x="169.283" y="-511.255" font-family="Helvetica,sans-Serif" font-size="10.00">assert.h</text>
</g>
<!-- Node6&#45;&gt;Node13 -->
<g id="edge15" class="edge"><title>Node6&#45;&gt;Node13</title>
<path fill="none" stroke="midnightblue" d="M172.52,-407.051C171.947,-425.949 170.653,-468.58 169.886,-493.864"/>
<polygon fill="midnightblue" stroke="midnightblue" points="166.38,-494.012 169.575,-504.113 173.377,-494.224 166.38,-494.012"/>
</g>
<!-- Node14 -->
<g id="node15" class="node"><title>Node14</title>
<g id="a_node15"><a xlink:href="physconst_8h.html" target="_top" xlink:title="physconst.h">
<polygon fill="white" stroke="black" points="86.0631,-446.789 86.0631,-465.789 156.063,-465.789 156.063,-446.789 86.0631,-446.789"/>
<text text-anchor="middle" x="121.063" y="-453.789" font-family="Helvetica,sans-Serif" font-size="10.00">physconst.h</text>
</a>
</g>
</g>
<!-- Node6&#45;&gt;Node14 -->
<g id="edge16" class="edge"><title>Node6&#45;&gt;Node14</title>
<path fill="none" stroke="midnightblue" d="M164.264,-407.241C156.654,-415.882 145.341,-428.726 136.201,-439.103"/>
<polygon fill="midnightblue" stroke="midnightblue" points="133.432,-436.951 129.449,-446.769 138.685,-441.578 133.432,-436.951"/>
</g>
<!-- Node15 -->
<g id="node16" class="node"><title>Node15</title>
<g id="a_node16"><a xlink:href="types_8h.html" target="_top" xlink:title="types.h">
<polygon fill="white" stroke="black" points="212.718,-351.292 212.718,-370.292 261.718,-370.292 261.718,-351.292 212.718,-351.292"/>
<text text-anchor="middle" x="237.218" y="-358.292" font-family="Helvetica,sans-Serif" font-size="10.00">types.h</text>
</a>
</g>
</g>
<!-- Node6&#45;&gt;Node15 -->
<g id="edge17" class="edge"><title>Node6&#45;&gt;Node15</title>
<path fill="none" stroke="midnightblue" d="M189.732,-387.885C196.336,-384.117 204.056,-379.712 211.329,-375.563"/>
<polygon fill="midnightblue" stroke="midnightblue" points="213.234,-378.506 220.185,-370.51 209.765,-372.426 213.234,-378.506"/>
</g>
<!-- Node10 -->
<g id="node11" class="node"><title>Node10</title>
<polygon fill="white" stroke="#bfbfbf" points="423.937,-313.784 423.937,-332.784 475.937,-332.784 475.937,-313.784 423.937,-313.784"/>
<text text-anchor="middle" x="449.937" y="-320.784" font-family="Helvetica,sans-Serif" font-size="10.00">stddef.h</text>
</g>
<!-- Node9&#45;&gt;Node10 -->
<g id="edge12" class="edge"><title>Node9&#45;&gt;Node10</title>
<path fill="none" stroke="midnightblue" d="M313.859,-554.543C335.287,-518.128 410.864,-389.687 439.147,-341.621"/>
<polygon fill="midnightblue" stroke="midnightblue" points="442.231,-343.281 444.286,-332.887 436.198,-339.731 442.231,-343.281"/>
</g>
<!-- Node11 -->
<g id="node12" class="node"><title>Node11</title>
<polygon fill="white" stroke="#bfbfbf" points="246.625,-621.289 246.625,-651.289 369.625,-651.289 369.625,-621.289 246.625,-621.289"/>
<text text-anchor="start" x="254.625" y="-639.289" font-family="Helvetica,sans-Serif" font-size="10.00">kspace&#45;neutrinos/omega</text>
<text text-anchor="middle" x="308.125" y="-628.289" font-family="Helvetica,sans-Serif" font-size="10.00">_nu_single.h</text>
</g>
<!-- Node9&#45;&gt;Node11 -->
<g id="edge13" class="edge"><title>Node9&#45;&gt;Node11</title>
<path fill="none" stroke="midnightblue" d="M308.125,-574C308.125,-583.476 308.125,-598.296 308.125,-611.103"/>
<polygon fill="midnightblue" stroke="midnightblue" points="304.625,-611.226 308.125,-621.226 311.625,-611.226 304.625,-611.226"/>
</g>
<!-- Node16 -->
<g id="node17" class="node"><title>Node16</title>
<polygon fill="white" stroke="#bfbfbf" points="283.625,-338.789 283.625,-357.789 332.625,-357.789 332.625,-338.789 283.625,-338.789"/>
<text text-anchor="middle" x="308.125" y="-345.789" font-family="Helvetica,sans-Serif" font-size="10.00">stdint.h</text>
</g>
<!-- Node15&#45;&gt;Node16 -->
<g id="edge18" class="edge"><title>Node15&#45;&gt;Node16</title>
<path fill="none" stroke="midnightblue" d="M262.018,-356.419C265.667,-355.776 269.482,-355.103 273.288,-354.432"/>
<polygon fill="midnightblue" stroke="midnightblue" points="273.979,-357.864 283.219,-352.681 272.763,-350.971 273.979,-357.864"/>
</g>
<!-- Node17&#45;&gt;Node15 -->
<g id="edge21" class="edge"><title>Node17&#45;&gt;Node15</title>
<path fill="none" stroke="midnightblue" d="M410.773,-285.819C376.066,-300.812 308.569,-329.97 268.749,-347.171"/>
<polygon fill="midnightblue" stroke="midnightblue" points="267.289,-343.989 259.497,-351.168 270.065,-350.415 267.289,-343.989"/>
</g>
<!-- Node18 -->
<g id="node19" class="node"><title>Node18</title>
<polygon fill="white" stroke="#bfbfbf" points="466.686,-230.789 466.686,-249.789 523.686,-249.789 523.686,-230.789 466.686,-230.789"/>
<text text-anchor="middle" x="495.186" y="-237.789" font-family="Helvetica,sans-Serif" font-size="10.00">pthread.h</text>
</g>
<!-- Node17&#45;&gt;Node18 -->
<g id="edge20" class="edge"><title>Node17&#45;&gt;Node18</title>
<path fill="none" stroke="midnightblue" d="M449.542,-266.642C455.693,-263.091 462.809,-258.983 469.565,-255.082"/>
<polygon fill="midnightblue" stroke="midnightblue" points="471.52,-257.994 478.43,-249.963 468.02,-251.932 471.52,-257.994"/>
</g>
<!-- Node19 -->
<g id="node20" class="node"><title>Node19</title>
<g id="a_node20"><a xlink:href="peano_8h.html" target="_top" xlink:title="peano.h">
<polygon fill="white" stroke="black" points="353.531,-326.287 353.531,-345.287 404.531,-345.287 404.531,-326.287 353.531,-326.287"/>
<text text-anchor="middle" x="379.031" y="-333.287" font-family="Helvetica,sans-Serif" font-size="10.00">peano.h</text>
</a>
</g>
</g>
<!-- Node17&#45;&gt;Node19 -->
<g id="edge22" class="edge"><title>Node17&#45;&gt;Node19</title>
<path fill="none" stroke="midnightblue" d="M424.188,-285.849C416.235,-294.644 404.251,-307.897 394.626,-318.54"/>
<polygon fill="midnightblue" stroke="midnightblue" points="391.943,-316.289 387.832,-326.053 397.135,-320.984 391.943,-316.289"/>
</g>
<!-- Node19&#45;&gt;Node10 -->
<g id="edge23" class="edge"><title>Node19&#45;&gt;Node10</title>
<path fill="none" stroke="midnightblue" d="M404.63,-331.273C407.53,-330.761 410.527,-330.233 413.532,-329.703"/>
<polygon fill="midnightblue" stroke="midnightblue" points="414.42,-333.101 423.66,-327.917 413.204,-326.207 414.42,-333.101"/>
</g>
<!-- Node19&#45;&gt;Node16 -->
<g id="edge24" class="edge"><title>Node19&#45;&gt;Node16</title>
<path fill="none" stroke="midnightblue" d="M353.432,-340.3C349.996,-340.906 346.425,-341.536 342.864,-342.164"/>
<polygon fill="midnightblue" stroke="midnightblue" points="342.214,-338.724 332.974,-343.908 343.43,-345.618 342.214,-338.724"/>
</g>
<!-- Node24 -->
<g id="node25" class="node"><title>Node24</title>
<g id="a_node25"><a xlink:href="memory_8h.html" target="_top" xlink:title="memory.h">
<polygon fill="white" stroke="black" points="401.252,-0.5 401.252,-19.5 461.252,-19.5 461.252,-0.5 401.252,-0.5"/>
<text text-anchor="middle" x="431.252" y="-7.5" font-family="Helvetica,sans-Serif" font-size="10.00">memory.h</text>
</a>
</g>
</g>
<!-- Node23&#45;&gt;Node24 -->
<g id="edge29" class="edge"><title>Node23&#45;&gt;Node24</title>
<path fill="none" stroke="midnightblue" d="M410.155,-67.9641C413.812,-57.9159 419.627,-41.9398 424.226,-29.3024"/>
<polygon fill="midnightblue" stroke="midnightblue" points="427.599,-30.2698 427.73,-19.6757 421.021,-27.8756 427.599,-30.2698"/>
</g>
</g>
</svg>
        <g id="navigator" transform="translate(0 0)" fill="#404254">
                <rect fill="#f2f5e9" fill-opacity="0.5" stroke="#606060" stroke-width=".5" x="0" y="0" width="60" height="60"/>
                <use id="zoomplus" xlink:href="#zoomPlus" x="17" y="9" onmousedown="handleZoom(evt,'in')"/>
                <use id="zoomminus" xlink:href="#zoomMin" x="42" y="9" onmousedown="handleZoom(evt,'out')"/>
                <use id="reset" xlink:href="#resetDef" x="30" y="36" onmousedown="handleReset()"/>
                <g id="arrowUp" xlink:href="#dirArrow" transform="translate(30 24)" onmousedown="handlePan(0,-1)">
                  <use xlink:href="#rim" fill="#404040">
                        <set attributeName="fill" to="#808080" begin="arrowUp.mouseover" end="arrowUp.mouseout"/>
                  </use>
                  <path fill="none" stroke="white" stroke-width="1.5" d="M0,-3.0v7 M-2.5,-0.5L0,-3.0L2.5,-0.5"/>
                </g>
                <g id="arrowRight" xlink:href="#dirArrow" transform="rotate(90) translate(36 -43)" onmousedown="handlePan(1,0)">
                  <use xlink:href="#rim" fill="#404040">
                        <set attributeName="fill" to="#808080" begin="arrowRight.mouseover" end="arrowRight.mouseout"/>
                  </use>
                  <path fill="none" stroke="white" stroke-width="1.5" d="M0,-3.0v7 M-2.5,-0.5L0,-3.0L2.5,-0.5"/>
                </g>
                <g id="arrowDown" xlink:href="#dirArrow" transform="rotate(180) translate(-30 -48)" onmousedown="handlePan(0,1)">
                  <use xlink:href="#rim" fill="#404040">
                        <set attributeName="fill" to="#808080" begin="arrowDown.mouseover" end="arrowDown.mouseout"/>
                  </use>
                  <path fill="none" stroke="white" stroke-width="1.5" d="M0,-3.0v7 M-2.5,-0.5L0,-3.0L2.5,-0.5"/>
                </g>
                <g id="arrowLeft" xlink:href="#dirArrow" transform="rotate(270) translate(-36 17)" onmousedown="handlePan(-1,0)">
                  <use xlink:href="#rim" fill="#404040">
                        <set attributeName="fill" to="#808080" begin="arrowLeft.mouseover" end="arrowLeft.mouseout"/>
                  </use>
                  <path fill="none" stroke="white" stroke-width="1.5" d="M0,-3.0v7 M-2.5,-0.5L0,-3.0L2.5,-0.5"/>
                </g>
        </g>
        <svg viewBox="0 0 15 15" width="100%" height="30px" preserveAspectRatio="xMaxYMin meet">
         <g id="arrow_out" transform="scale(0.3 0.3)">
          <a xlink:href="cooling_8c__incl_org.svg" target="_base">
           <rect id="button" ry="5" rx="5" y="6" x="6" height="38" width="38"
                fill="#f2f5e9" fill-opacity="0.5" stroke="#606060" stroke-width="1.0"/>
           <path id="arrow"
             d="M 11.500037,31.436501 C 11.940474,20.09759 22.043105,11.32322 32.158766,21.979434 L 37.068811,17.246167 C 37.068811,17.246167 37.088388,32 37.088388,32 L 22.160133,31.978069 C 22.160133,31.978069 26.997745,27.140456 26.997745,27.140456 C 18.528582,18.264221 13.291696,25.230495 11.500037,31.436501 z"
             style="fill:#404040;"/>
          </a>
         </g>
        </svg>
</svg>
