<?xml version="1.0" encoding="UTF-8" standalone="no"?>
<!DOCTYPE svg PUBLIC "-//W3C//DTD SVG 1.1//EN"
 "http://www.w3.org/Graphics/SVG/1.1/DTD/svg11.dtd">
<!-- Generated by graphviz version 2.50.0 (0)
 -->
<!-- Title: init_cosmology Pages: 1 -->
<svg width="612pt" height="294pt"
 viewBox="0.00 0.00 612.00 294.00" xmlns="http://www.w3.org/2000/svg" xmlns:xlink="http://www.w3.org/1999/xlink">
<g id="graph0" class="graph" transform="scale(1 1) rotate(0) translate(4 290)">
<title>init_cosmology</title>
<polygon fill="white" stroke="transparent" points="-4,4 -4,-290 608,-290 608,4 -4,4"/>
<!-- Node1 -->
<g id="node1" class="node">
<title>Node1</title>
<g id="a_node1"><a xlink:title=" ">
<polygon fill="#bfbfbf" stroke="black" points="513,-95.5 513,-114.5 604,-114.5 604,-95.5 513,-95.5"/>
<text text-anchor="middle" x="558.5" y="-102.5" font-family="Helvetica,sans-Serif" font-size="10.00">init_cosmology</text>
</a>
</g>
</g>
<!-- Node2 -->
<g id="node2" class="node">
<title>Node2</title>
<g id="a_node2"><a xlink:href="run_8c.html#aee4609880c9e92e1c421c4bd238589fd" target="_top" xlink:title=" ">
<polygon fill="white" stroke="black" points="401,-237.5 401,-256.5 451,-256.5 451,-237.5 401,-237.5"/>
<text text-anchor="middle" x="426" y="-244.5" font-family="Helvetica,sans-Serif" font-size="10.00">begrun</text>
</a>
</g>
</g>
<!-- Node1&#45;&gt;Node2 -->
<g id="edge1" class="edge">
<title>Node1&#45;&gt;Node2</title>
<path fill="none" stroke="midnightblue" d="M543.46,-122.76C527.83,-142.24 501.53,-174.17 477,-200 464.2,-213.48 448.43,-227.98 438.07,-237.26"/>
<polygon fill="midnightblue" stroke="midnightblue" points="546.35,-124.75 549.85,-114.75 540.88,-120.38 546.35,-124.75"/>
</g>
<!-- Node4 -->
<g id="node4" class="node">
<title>Node4</title>
<g id="a_node4"><a xlink:href="test__density_8c.html#a1f2c8c2a35e14ec19a93d42363f0fe55" target="_top" xlink:title=" ">
<polygon fill="white" stroke="black" points="379,-171.5 379,-190.5 473,-190.5 473,-171.5 379,-171.5"/>
<text text-anchor="middle" x="426" y="-178.5" font-family="Helvetica,sans-Serif" font-size="10.00">do_density_test</text>
</a>
</g>
</g>
<!-- Node1&#45;&gt;Node4 -->
<g id="edge3" class="edge">
<title>Node1&#45;&gt;Node4</title>
<path fill="none" stroke="midnightblue" d="M531.99,-119.86C505.76,-135.13 465.68,-158.47 443.39,-171.45"/>
<polygon fill="midnightblue" stroke="midnightblue" points="534.09,-122.68 540.97,-114.63 530.57,-116.63 534.09,-122.68"/>
</g>
<!-- Node9 -->
<g id="node9" class="node">
<title>Node9</title>
<g id="a_node9"><a xlink:href="test__gravity_8c.html#aa6bdcef3f6cb327efb3f2f993f64b7ce" target="_top" xlink:title=" ">
<polygon fill="white" stroke="black" points="384.5,-114.5 384.5,-133.5 467.5,-133.5 467.5,-114.5 384.5,-114.5"/>
<text text-anchor="middle" x="426" y="-121.5" font-family="Helvetica,sans-Serif" font-size="10.00">do_force_test</text>
</a>
</g>
</g>
<!-- Node1&#45;&gt;Node9 -->
<g id="edge8" class="edge">
<title>Node1&#45;&gt;Node9</title>
<path fill="none" stroke="midnightblue" d="M502.82,-112.96C491.1,-114.67 478.92,-116.44 467.84,-118.05"/>
<polygon fill="midnightblue" stroke="midnightblue" points="503.56,-116.39 512.95,-111.49 502.55,-109.46 503.56,-116.39"/>
</g>
<!-- Node15 -->
<g id="node15" class="node">
<title>Node15</title>
<g id="a_node15"><a xlink:href="genic_2main_8c.html#a3c04138a5bfe5d72780bb7e82a18e627" target="_top" xlink:title=" ">
<polygon fill="white" stroke="black" points="405.5,-76.5 405.5,-95.5 446.5,-95.5 446.5,-76.5 405.5,-76.5"/>
<text text-anchor="middle" x="426" y="-83.5" font-family="Helvetica,sans-Serif" font-size="10.00">main</text>
</a>
</g>
</g>
<!-- Node1&#45;&gt;Node15 -->
<g id="edge16" class="edge">
<title>Node1&#45;&gt;Node15</title>
<path fill="none" stroke="midnightblue" d="M502.96,-97.06C482.94,-94.15 461.54,-91.03 446.57,-88.85"/>
<polygon fill="midnightblue" stroke="midnightblue" points="502.55,-100.54 512.95,-98.51 503.56,-93.61 502.55,-100.54"/>
</g>
<!-- Node16 -->
<g id="node16" class="node">
<title>Node16</title>
<g id="a_node16"><a xlink:href="test__power_8c.html#ab3743688c369a6a63ebea4512080e9fe" target="_top" xlink:title=" ">
<polygon fill="white" stroke="black" points="404,-38.5 404,-57.5 448,-57.5 448,-38.5 404,-38.5"/>
<text text-anchor="middle" x="426" y="-45.5" font-family="Helvetica,sans-Serif" font-size="10.00">setup</text>
</a>
</g>
</g>
<!-- Node1&#45;&gt;Node16 -->
<g id="edge17" class="edge">
<title>Node1&#45;&gt;Node16</title>
<path fill="none" stroke="midnightblue" d="M528.77,-90.77C513.52,-83.39 494.38,-74.39 477,-67 467.6,-63 457.05,-58.93 448.07,-55.59"/>
<polygon fill="midnightblue" stroke="midnightblue" points="527.65,-94.12 538.17,-95.36 530.72,-87.83 527.65,-94.12"/>
</g>
<!-- Node17 -->
<g id="node17" class="node">
<title>Node17</title>
<g id="a_node17"><a xlink:href="test__cosmology_8c.html#af56daaa3f74187231513f913d0a3b770" target="_top" xlink:title=" ">
<polygon fill="white" stroke="black" points="375,-0.5 375,-19.5 477,-19.5 477,-0.5 375,-0.5"/>
<text text-anchor="middle" x="426" y="-7.5" font-family="Helvetica,sans-Serif" font-size="10.00">setup_cosmology</text>
</a>
</g>
</g>
<!-- Node1&#45;&gt;Node17 -->
<g id="edge18" class="edge">
<title>Node1&#45;&gt;Node17</title>
<path fill="none" stroke="midnightblue" d="M542.57,-87.33C527.49,-70.42 502.79,-45.17 477,-29 471.1,-25.3 464.36,-22.14 457.79,-19.52"/>
<polygon fill="midnightblue" stroke="midnightblue" points="540.32,-90.08 549.53,-95.32 545.6,-85.48 540.32,-90.08"/>
</g>
<!-- Node3 -->
<g id="node3" class="node">
<title>Node3</title>
<g id="a_node3"><a xlink:href="gadget_2main_8c.html#a3c04138a5bfe5d72780bb7e82a18e627" target="_top" xlink:title=" ">
<polygon fill="white" stroke="black" points="265,-266.5 265,-285.5 306,-285.5 306,-266.5 265,-266.5"/>
<text text-anchor="middle" x="285.5" y="-273.5" font-family="Helvetica,sans-Serif" font-size="10.00">main</text>
</a>
</g>
</g>
<!-- Node2&#45;&gt;Node3 -->
<g id="edge2" class="edge">
<title>Node2&#45;&gt;Node3</title>
<path fill="none" stroke="midnightblue" d="M390.84,-254.15C364.27,-259.72 328.33,-267.24 306.32,-271.85"/>
<polygon fill="midnightblue" stroke="midnightblue" points="391.8,-257.53 400.88,-252.05 390.37,-250.68 391.8,-257.53"/>
</g>
<!-- Node5 -->
<g id="node5" class="node">
<title>Node5</title>
<g id="a_node5"><a xlink:href="test__density_8c.html#ab398a273f1cc5a1816af9ef286a460f3" target="_top" xlink:title=" ">
<polygon fill="white" stroke="black" points="238,-228.5 238,-247.5 333,-247.5 333,-228.5 238,-228.5"/>
<text text-anchor="middle" x="285.5" y="-235.5" font-family="Helvetica,sans-Serif" font-size="10.00">do_random_test</text>
</a>
</g>
</g>
<!-- Node4&#45;&gt;Node5 -->
<g id="edge4" class="edge">
<title>Node4&#45;&gt;Node5</title>
<path fill="none" stroke="midnightblue" d="M395.19,-194.78C378.73,-202.23 357.87,-211.43 339,-219 330.9,-222.25 322.01,-225.56 313.88,-228.49"/>
<polygon fill="midnightblue" stroke="midnightblue" points="396.67,-197.95 404.32,-190.62 393.77,-191.58 396.67,-197.95"/>
</g>
<!-- Node7 -->
<g id="node7" class="node">
<title>Node7</title>
<g id="a_node7"><a xlink:href="test__density_8c.html#a0b98ad62e33169daca9a098f23b22730" target="_top" xlink:title=" ">
<polygon fill="white" stroke="black" points="232,-190.5 232,-209.5 339,-209.5 339,-190.5 232,-190.5"/>
<text text-anchor="middle" x="285.5" y="-197.5" font-family="Helvetica,sans-Serif" font-size="10.00">test_density_close</text>
</a>
</g>
</g>
<!-- Node4&#45;&gt;Node7 -->
<g id="edge6" class="edge">
<title>Node4&#45;&gt;Node7</title>
<path fill="none" stroke="midnightblue" d="M368.82,-188.71C359.01,-190.05 348.83,-191.45 339.12,-192.78"/>
<polygon fill="midnightblue" stroke="midnightblue" points="369.45,-192.15 378.88,-187.33 368.5,-185.22 369.45,-192.15"/>
</g>
<!-- Node8 -->
<g id="node8" class="node">
<title>Node8</title>
<g id="a_node8"><a xlink:href="test__density_8c.html#af90097e65c497dae6bed7b2d03702f89" target="_top" xlink:title=" ">
<polygon fill="white" stroke="black" points="236.5,-152.5 236.5,-171.5 334.5,-171.5 334.5,-152.5 236.5,-152.5"/>
<text text-anchor="middle" x="285.5" y="-159.5" font-family="Helvetica,sans-Serif" font-size="10.00">test_density_flat</text>
</a>
</g>
</g>
<!-- Node4&#45;&gt;Node8 -->
<g id="edge7" class="edge">
<title>Node4&#45;&gt;Node8</title>
<path fill="none" stroke="midnightblue" d="M368.72,-173.28C357.47,-171.74 345.74,-170.13 334.79,-168.62"/>
<polygon fill="midnightblue" stroke="midnightblue" points="368.5,-176.78 378.88,-174.67 369.45,-169.85 368.5,-176.78"/>
</g>
<!-- Node6 -->
<g id="node6" class="node">
<title>Node6</title>
<g id="a_node6"><a xlink:href="test__density_8c.html#a79c97c1ac28bcad8abc150104d7cb7c0" target="_top" xlink:title=" ">
<polygon fill="white" stroke="black" points="77,-228.5 77,-247.5 196,-247.5 196,-228.5 77,-228.5"/>
<text text-anchor="middle" x="136.5" y="-235.5" font-family="Helvetica,sans-Serif" font-size="10.00">test_density_random</text>
</a>
</g>
</g>
<!-- Node5&#45;&gt;Node6 -->
<g id="edge5" class="edge">
<title>Node5&#45;&gt;Node6</title>
<path fill="none" stroke="midnightblue" d="M227.8,-238C217.42,-238 206.56,-238 196.13,-238"/>
<polygon fill="midnightblue" stroke="midnightblue" points="227.99,-241.5 237.99,-238 227.99,-234.5 227.99,-241.5"/>
</g>
<!-- Node10 -->
<g id="node10" class="node">
<title>Node10</title>
<g id="a_node10"><a xlink:href="test__gravity_8c.html#a31e06bbad4eac810c349a6bc44a0aa08" target="_top" xlink:title=" ">
<polygon fill="white" stroke="black" points="238,-114.5 238,-133.5 333,-133.5 333,-114.5 238,-114.5"/>
<text text-anchor="middle" x="285.5" y="-121.5" font-family="Helvetica,sans-Serif" font-size="10.00">do_random_test</text>
</a>
</g>
</g>
<!-- Node9&#45;&gt;Node10 -->
<g id="edge9" class="edge">
<title>Node9&#45;&gt;Node10</title>
<path fill="none" stroke="midnightblue" d="M373.81,-124C360.56,-124 346.36,-124 333.34,-124"/>
<polygon fill="midnightblue" stroke="midnightblue" points="374.19,-127.5 384.19,-124 374.19,-120.5 374.19,-127.5"/>
</g>
<!-- Node13 -->
<g id="node13" class="node">
<title>Node13</title>
<g id="a_node13"><a xlink:href="test__gravity_8c.html#ac3391a3ee98d428389e50b886e988c63" target="_top" xlink:title=" ">
<polygon fill="white" stroke="black" points="88.5,-76.5 88.5,-95.5 184.5,-95.5 184.5,-76.5 88.5,-76.5"/>
<text text-anchor="middle" x="136.5" y="-83.5" font-family="Helvetica,sans-Serif" font-size="10.00">test_force_close</text>
</a>
</g>
</g>
<!-- Node9&#45;&gt;Node13 -->
<g id="edge12" class="edge">
<title>Node9&#45;&gt;Node13</title>
<path fill="none" stroke="midnightblue" d="M376.65,-112.22C364.42,-109.54 351.27,-106.93 339,-105 286.41,-96.74 225.5,-91.61 184.53,-88.79"/>
<polygon fill="midnightblue" stroke="midnightblue" points="376.14,-115.69 386.66,-114.47 377.67,-108.86 376.14,-115.69"/>
</g>
<!-- Node14 -->
<g id="node14" class="node">
<title>Node14</title>
<g id="a_node14"><a xlink:href="test__gravity_8c.html#a87bcba11fc8f8f2ad649784bb1b8a48d" target="_top" xlink:title=" ">
<polygon fill="white" stroke="black" points="93.5,-38.5 93.5,-57.5 179.5,-57.5 179.5,-38.5 93.5,-38.5"/>
<text text-anchor="middle" x="136.5" y="-45.5" font-family="Helvetica,sans-Serif" font-size="10.00">test_force_flat</text>
</a>
</g>
</g>
<!-- Node9&#45;&gt;Node14 -->
<g id="edge14" class="edge">
<title>Node9&#45;&gt;Node14</title>
<path fill="none" stroke="midnightblue" d="M389.04,-110.72C384.3,-108.86 379.52,-106.92 375,-105 358.72,-98.07 355.8,-93.54 339,-88 285.31,-70.29 220.87,-59.18 179.56,-53.28"/>
<polygon fill="midnightblue" stroke="midnightblue" points="388.05,-114.09 398.64,-114.42 390.57,-107.56 388.05,-114.09"/>
</g>
<!-- Node11 -->
<g id="node11" class="node">
<title>Node11</title>
<g id="a_node11"><a xlink:href="test__gravity_8c.html#a17492d7388898745e66a636173c8ce1d" target="_top" xlink:title=" ">
<polygon fill="white" stroke="black" points="82.5,-114.5 82.5,-133.5 190.5,-133.5 190.5,-114.5 82.5,-114.5"/>
<text text-anchor="middle" x="136.5" y="-121.5" font-family="Helvetica,sans-Serif" font-size="10.00">test_force_random</text>
</a>
</g>
</g>
<!-- Node10&#45;&gt;Node11 -->
<g id="edge10" class="edge">
<title>Node10&#45;&gt;Node11</title>
<path fill="none" stroke="midnightblue" d="M227.89,-124C215.64,-124 202.73,-124 190.62,-124"/>
<polygon fill="midnightblue" stroke="midnightblue" points="227.99,-127.5 237.99,-124 227.99,-120.5 227.99,-127.5"/>
</g>
<!-- Node12 -->
<g id="node12" class="node">
<title>Node12</title>
<g id="a_node12"><a xlink:href="test__gravity_8c.html#a840291bc02cba5474a4cb46a9b9566fe" target="_top" xlink:title=" ">
<polygon fill="white" stroke="black" points="0,-76.5 0,-95.5 41,-95.5 41,-76.5 0,-76.5"/>
<text text-anchor="middle" x="20.5" y="-83.5" font-family="Helvetica,sans-Serif" font-size="10.00">main</text>
</a>
</g>
</g>
<!-- Node11&#45;&gt;Node12 -->
<g id="edge11" class="edge">
<title>Node11&#45;&gt;Node12</title>
<path fill="none" stroke="midnightblue" d="M95.94,-111.25C89.6,-109.17 83.12,-107.04 77,-105 65.12,-101.04 51.84,-96.5 41.25,-92.85"/>
<polygon fill="midnightblue" stroke="midnightblue" points="95.12,-114.66 105.71,-114.42 97.28,-108 95.12,-114.66"/>
</g>
<!-- Node13&#45;&gt;Node12 -->
<g id="edge13" class="edge">
<title>Node13&#45;&gt;Node12</title>
<path fill="none" stroke="midnightblue" d="M78.29,-86C64.91,-86 51.54,-86 41.14,-86"/>
<polygon fill="midnightblue" stroke="midnightblue" points="78.47,-89.5 88.47,-86 78.47,-82.5 78.47,-89.5"/>
</g>
<!-- Node14&#45;&gt;Node12 -->
<g id="edge15" class="edge">
<title>Node14&#45;&gt;Node12</title>
<path fill="none" stroke="midnightblue" d="M95.94,-60.75C89.6,-62.83 83.12,-64.96 77,-67 65.12,-70.96 51.84,-75.5 41.25,-79.15"/>
<polygon fill="midnightblue" stroke="midnightblue" points="97.28,-64 105.71,-57.58 95.12,-57.34 97.28,-64"/>
</g>
<!-- Node18 -->
<g id="node18" class="node">
<title>Node18</title>
<g id="a_node18"><a xlink:href="test__cosmology_8c.html#a827aa5bd8e2e3f1cc0a15cbcf4655f35" target="_top" xlink:title=" ">
<polygon fill="white" stroke="black" points="238.5,-0.5 238.5,-19.5 332.5,-19.5 332.5,-0.5 238.5,-0.5"/>
<text text-anchor="middle" x="285.5" y="-7.5" font-family="Helvetica,sans-Serif" font-size="10.00">test_cosmology</text>
</a>
</g>
</g>
<!-- Node17&#45;&gt;Node18 -->
<g id="edge19" class="edge">
<title>Node17&#45;&gt;Node18</title>
<path fill="none" stroke="midnightblue" d="M364.82,-10C354.07,-10 343.02,-10 332.74,-10"/>
<polygon fill="midnightblue" stroke="midnightblue" points="365,-13.5 375,-10 365,-6.5 365,-13.5"/>
</g>
<!-- Node19 -->
<g id="node19" class="node">
<title>Node19</title>
<g id="a_node19"><a xlink:href="test__cosmology_8c.html#a840291bc02cba5474a4cb46a9b9566fe" target="_top" xlink:title=" ">
<polygon fill="white" stroke="black" points="116,-0.5 116,-19.5 157,-19.5 157,-0.5 116,-0.5"/>
<text text-anchor="middle" x="136.5" y="-7.5" font-family="Helvetica,sans-Serif" font-size="10.00">main</text>
</a>
</g>
</g>
<!-- Node18&#45;&gt;Node19 -->
<g id="edge20" class="edge">
<title>Node18&#45;&gt;Node19</title>
<path fill="none" stroke="midnightblue" d="M228.26,-10C203.26,-10 175.45,-10 157.28,-10"/>
<polygon fill="midnightblue" stroke="midnightblue" points="228.39,-13.5 238.39,-10 228.39,-6.5 228.39,-13.5"/>
</g>
</g>
</svg>
