<?xml version="1.0" encoding="UTF-8" standalone="no"?>
<!DOCTYPE svg PUBLIC "-//W3C//DTD SVG 1.1//EN"
 "http://www.w3.org/Graphics/SVG/1.1/DTD/svg11.dtd">
<!-- Generated by graphviz version 2.50.0 (0)
 -->
<!-- Title: libgadget/cosmology.c Pages: 1 -->
<svg width="1426pt" height="252pt"
 viewBox="0.00 0.00 1426.00 252.00" xmlns="http://www.w3.org/2000/svg" xmlns:xlink="http://www.w3.org/1999/xlink">
<g id="graph0" class="graph" transform="scale(1 1) rotate(0) translate(4 248)">
<title>libgadget/cosmology.c</title>
<polygon fill="white" stroke="transparent" points="-4,4 -4,-248 1422,-248 1422,4 -4,4"/>
<!-- Node1 -->
<g id="node1" class="node">
<title>Node1</title>
<g id="a_node1"><a xlink:title=" ">
<polygon fill="#bfbfbf" stroke="black" points="520.5,-224.5 520.5,-243.5 645.5,-243.5 645.5,-224.5 520.5,-224.5"/>
<text text-anchor="middle" x="583" y="-231.5" font-family="Helvetica,sans-Serif" font-size="10.00">libgadget/cosmology.c</text>
</a>
</g>
</g>
<!-- Node2 -->
<g id="node2" class="node">
<title>Node2</title>
<g id="a_node2"><a xlink:title=" ">
<polygon fill="white" stroke="#bfbfbf" points="225.5,-168.5 225.5,-187.5 276.5,-187.5 276.5,-168.5 225.5,-168.5"/>
<text text-anchor="middle" x="251" y="-175.5" font-family="Helvetica,sans-Serif" font-size="10.00">math.h</text>
</a>
</g>
</g>
<!-- Node1&#45;&gt;Node2 -->
<g id="edge1" class="edge">
<title>Node1&#45;&gt;Node2</title>
<path fill="none" stroke="midnightblue" d="M520.39,-225.39C462.29,-217.9 373.26,-205.35 286.56,-187.92"/>
<polygon fill="midnightblue" stroke="midnightblue" points="287.04,-184.45 276.54,-185.89 285.65,-191.31 287.04,-184.45"/>
</g>
<!-- Node3 -->
<g id="node3" class="node">
<title>Node3</title>
<g id="a_node3"><a xlink:title=" ">
<polygon fill="white" stroke="#bfbfbf" points="295,-168.5 295,-187.5 411,-187.5 411,-168.5 295,-168.5"/>
<text text-anchor="middle" x="353" y="-175.5" font-family="Helvetica,sans-Serif" font-size="10.00">gsl/gsl_integration.h</text>
</a>
</g>
</g>
<!-- Node1&#45;&gt;Node3 -->
<g id="edge2" class="edge">
<title>Node1&#45;&gt;Node3</title>
<path fill="none" stroke="midnightblue" d="M546.56,-224.44C506.6,-215.06 442.41,-199.99 399.02,-189.8"/>
<polygon fill="midnightblue" stroke="midnightblue" points="399.81,-186.39 389.27,-187.52 398.21,-193.21 399.81,-186.39"/>
</g>
<!-- Node4 -->
<g id="node4" class="node">
<title>Node4</title>
<g id="a_node4"><a xlink:title=" ">
<polygon fill="white" stroke="#bfbfbf" points="429,-168.5 429,-187.5 517,-187.5 517,-168.5 429,-168.5"/>
<text text-anchor="middle" x="473" y="-175.5" font-family="Helvetica,sans-Serif" font-size="10.00">gsl/gsl_errno.h</text>
</a>
</g>
</g>
<!-- Node1&#45;&gt;Node4 -->
<g id="edge3" class="edge">
<title>Node1&#45;&gt;Node4</title>
<path fill="none" stroke="midnightblue" d="M565.33,-224.32C547.61,-215.62 520.1,-202.12 499.71,-192.11"/>
<polygon fill="midnightblue" stroke="midnightblue" points="501.15,-188.92 490.63,-187.65 498.06,-195.2 501.15,-188.92"/>
</g>
<!-- Node5 -->
<g id="node5" class="node">
<title>Node5</title>
<g id="a_node5"><a xlink:title=" ">
<polygon fill="white" stroke="#bfbfbf" points="535.5,-168.5 535.5,-187.5 630.5,-187.5 630.5,-168.5 535.5,-168.5"/>
<text text-anchor="middle" x="583" y="-175.5" font-family="Helvetica,sans-Serif" font-size="10.00">gsl/gsl_odeiv2.h</text>
</a>
</g>
</g>
<!-- Node1&#45;&gt;Node5 -->
<g id="edge4" class="edge">
<title>Node1&#45;&gt;Node5</title>
<path fill="none" stroke="midnightblue" d="M583,-224.08C583,-217.01 583,-206.86 583,-197.99"/>
<polygon fill="midnightblue" stroke="midnightblue" points="586.5,-197.75 583,-187.75 579.5,-197.75 586.5,-197.75"/>
</g>
<!-- Node6 -->
<g id="node6" class="node">
<title>Node6</title>
<g id="a_node6"><a xlink:href="cosmology_8h.html" target="_top" xlink:title=" ">
<polygon fill="white" stroke="black" points="1117.5,-168.5 1117.5,-187.5 1194.5,-187.5 1194.5,-168.5 1117.5,-168.5"/>
<text text-anchor="middle" x="1156" y="-175.5" font-family="Helvetica,sans-Serif" font-size="10.00">cosmology.h</text>
</a>
</g>
</g>
<!-- Node1&#45;&gt;Node6 -->
<g id="edge5" class="edge">
<title>Node1&#45;&gt;Node6</title>
<path fill="none" stroke="midnightblue" d="M645.69,-227.09C760.79,-216.24 1003.54,-193.37 1107.3,-183.59"/>
<polygon fill="midnightblue" stroke="midnightblue" points="1107.86,-187.05 1117.49,-182.63 1107.2,-180.08 1107.86,-187.05"/>
</g>
<!-- Node11 -->
<g id="node11" class="node">
<title>Node11</title>
<g id="a_node11"><a xlink:href="physconst_8h.html" target="_top" xlink:title=" ">
<polygon fill="white" stroke="black" points="1212.5,-168.5 1212.5,-187.5 1287.5,-187.5 1287.5,-168.5 1212.5,-168.5"/>
<text text-anchor="middle" x="1250" y="-175.5" font-family="Helvetica,sans-Serif" font-size="10.00">physconst.h</text>
</a>
</g>
</g>
<!-- Node1&#45;&gt;Node11 -->
<g id="edge10" class="edge">
<title>Node1&#45;&gt;Node11</title>
<path fill="none" stroke="midnightblue" d="M645.84,-230.96C756.48,-226.81 993.41,-215.48 1202.47,-188.06"/>
<polygon fill="midnightblue" stroke="midnightblue" points="1202.95,-191.52 1212.41,-186.74 1202.03,-184.59 1202.95,-191.52"/>
</g>
<!-- Node12 -->
<g id="node12" class="node">
<title>Node12</title>
<g id="a_node12"><a xlink:href="utils_8h.html" target="_top" xlink:title=" ">
<polygon fill="white" stroke="black" points="648.5,-168.5 648.5,-187.5 695.5,-187.5 695.5,-168.5 648.5,-168.5"/>
<text text-anchor="middle" x="672" y="-175.5" font-family="Helvetica,sans-Serif" font-size="10.00">utils.h</text>
</a>
</g>
</g>
<!-- Node1&#45;&gt;Node12 -->
<g id="edge11" class="edge">
<title>Node1&#45;&gt;Node12</title>
<path fill="none" stroke="midnightblue" d="M597.3,-224.32C611.18,-215.9 632.49,-202.97 648.8,-193.07"/>
<polygon fill="midnightblue" stroke="midnightblue" points="651,-195.83 657.74,-187.65 647.37,-189.85 651,-195.83"/>
</g>
<!-- Node7 -->
<g id="node7" class="node">
<title>Node7</title>
<g id="a_node7"><a xlink:title=" ">
<polygon fill="white" stroke="#bfbfbf" points="892,-0.5 892,-19.5 948,-19.5 948,-0.5 892,-0.5"/>
<text text-anchor="middle" x="920" y="-7.5" font-family="Helvetica,sans-Serif" font-size="10.00">stddef.h</text>
</a>
</g>
</g>
<!-- Node6&#45;&gt;Node7 -->
<g id="edge6" class="edge">
<title>Node6&#45;&gt;Node7</title>
<path fill="none" stroke="midnightblue" d="M1157.62,-168.26C1161.16,-146.17 1167.06,-87.57 1137,-56 1112.94,-30.74 1014.11,-18.69 958.49,-13.81"/>
<polygon fill="midnightblue" stroke="midnightblue" points="958.56,-10.3 948.31,-12.95 957.98,-17.28 958.56,-10.3"/>
</g>
<!-- Node8 -->
<g id="node8" class="node">
<title>Node8</title>
<g id="a_node8"><a xlink:href="omega__nu__single_8h.html" target="_top" xlink:title=" ">
<polygon fill="white" stroke="black" points="1184.5,-112.5 1184.5,-131.5 1295.5,-131.5 1295.5,-112.5 1184.5,-112.5"/>
<text text-anchor="middle" x="1240" y="-119.5" font-family="Helvetica,sans-Serif" font-size="10.00">omega_nu_single.h</text>
</a>
</g>
</g>
<!-- Node6&#45;&gt;Node8 -->
<g id="edge7" class="edge">
<title>Node6&#45;&gt;Node8</title>
<path fill="none" stroke="midnightblue" d="M1169.5,-168.32C1182.6,-159.9 1202.71,-146.97 1218.11,-137.07"/>
<polygon fill="midnightblue" stroke="midnightblue" points="1220.02,-140.01 1226.54,-131.65 1216.23,-134.12 1220.02,-140.01"/>
</g>
<!-- Node10 -->
<g id="node10" class="node">
<title>Node10</title>
<g id="a_node10"><a xlink:href="unitsystem_8h.html" target="_top" xlink:title=" ">
<polygon fill="white" stroke="black" points="1314,-112.5 1314,-131.5 1418,-131.5 1418,-112.5 1314,-112.5"/>
<text text-anchor="middle" x="1366" y="-119.5" font-family="Helvetica,sans-Serif" font-size="10.00">utils/unitsystem.h</text>
</a>
</g>
</g>
<!-- Node6&#45;&gt;Node10 -->
<g id="edge9" class="edge">
<title>Node6&#45;&gt;Node10</title>
<path fill="none" stroke="midnightblue" d="M1189.28,-168.44C1225.45,-159.14 1283.38,-144.25 1322.98,-134.06"/>
<polygon fill="midnightblue" stroke="midnightblue" points="1324.07,-137.4 1332.88,-131.52 1322.32,-130.62 1324.07,-137.4"/>
</g>
<!-- Node9 -->
<g id="node9" class="node">
<title>Node9</title>
<g id="a_node9"><a xlink:title=" ">
<polygon fill="white" stroke="#bfbfbf" points="1194.5,-56.5 1194.5,-75.5 1285.5,-75.5 1285.5,-56.5 1194.5,-56.5"/>
<text text-anchor="middle" x="1240" y="-63.5" font-family="Helvetica,sans-Serif" font-size="10.00">gsl/gsl_interp.h</text>
</a>
</g>
</g>
<!-- Node8&#45;&gt;Node9 -->
<g id="edge8" class="edge">
<title>Node8&#45;&gt;Node9</title>
<path fill="none" stroke="midnightblue" d="M1240,-112.08C1240,-105.01 1240,-94.86 1240,-85.99"/>
<polygon fill="midnightblue" stroke="midnightblue" points="1243.5,-85.75 1240,-75.75 1236.5,-85.75 1243.5,-85.75"/>
</g>
<!-- Node12&#45;&gt;Node7 -->
<g id="edge14" class="edge">
<title>Node12&#45;&gt;Node7</title>
<path fill="none" stroke="midnightblue" d="M695.58,-176.13C730.85,-173.74 798,-164.86 843,-132 879.41,-105.41 902.83,-55.91 913.43,-29.2"/>
<polygon fill="midnightblue" stroke="midnightblue" points="916.8,-30.17 917.08,-19.58 910.26,-27.69 916.8,-30.17"/>
</g>
<!-- Node13 -->
<g id="node13" class="node">
<title>Node13</title>
<g id="a_node13"><a xlink:title=" ">
<polygon fill="white" stroke="#bfbfbf" points="73,-56.5 73,-75.5 123,-75.5 123,-56.5 73,-56.5"/>
<text text-anchor="middle" x="98" y="-63.5" font-family="Helvetica,sans-Serif" font-size="10.00">stdio.h</text>
</a>
</g>
</g>
<!-- Node12&#45;&gt;Node13 -->
<g id="edge12" class="edge">
<title>Node12&#45;&gt;Node13</title>
<path fill="none" stroke="midnightblue" d="M648.33,-169.97C645.21,-169.21 642.04,-168.53 639,-168 536,-150.17 266.05,-173.23 170,-132 145.45,-121.46 123.68,-99.03 110.67,-83.49"/>
<polygon fill="midnightblue" stroke="midnightblue" points="113.38,-81.27 104.38,-75.68 107.93,-85.66 113.38,-81.27"/>
</g>
<!-- Node14 -->
<g id="node14" class="node">
<title>Node14</title>
<g id="a_node14"><a xlink:title=" ">
<polygon fill="white" stroke="#bfbfbf" points="373.5,-56.5 373.5,-75.5 426.5,-75.5 426.5,-56.5 373.5,-56.5"/>
<text text-anchor="middle" x="400" y="-63.5" font-family="Helvetica,sans-Serif" font-size="10.00">stdint.h</text>
</a>
</g>
</g>
<!-- Node12&#45;&gt;Node14 -->
<g id="edge13" class="edge">
<title>Node12&#45;&gt;Node14</title>
<path fill="none" stroke="midnightblue" d="M648.28,-170.21C645.17,-169.42 642.02,-168.66 639,-168 542.19,-146.94 493.21,-197.65 419,-132 405.95,-120.45 401.64,-100.49 400.33,-85.72"/>
<polygon fill="midnightblue" stroke="midnightblue" points="403.82,-85.48 399.81,-75.67 396.83,-85.84 403.82,-85.48"/>
</g>
<!-- Node15 -->
<g id="node15" class="node">
<title>Node15</title>
<g id="a_node15"><a xlink:title=" ">
<polygon fill="white" stroke="#bfbfbf" points="165,-56.5 165,-75.5 209,-75.5 209,-56.5 165,-56.5"/>
<text text-anchor="middle" x="187" y="-63.5" font-family="Helvetica,sans-Serif" font-size="10.00">mpi.h</text>
</a>
</g>
</g>
<!-- Node12&#45;&gt;Node15 -->
<g id="edge15" class="edge">
<title>Node12&#45;&gt;Node15</title>
<path fill="none" stroke="midnightblue" d="M648.33,-169.97C645.21,-169.22 642.04,-168.53 639,-168 588.71,-159.25 215.65,-169.48 181,-132 169.61,-119.68 173.4,-99.87 178.62,-85.35"/>
<polygon fill="midnightblue" stroke="midnightblue" points="181.94,-86.48 182.48,-75.9 175.46,-83.83 181.94,-86.48"/>
</g>
<!-- Node16 -->
<g id="node16" class="node">
<title>Node16</title>
<g id="a_node16"><a xlink:href="peano_8h.html" target="_top" xlink:title=" ">
<polygon fill="white" stroke="black" points="738,-112.5 738,-131.5 818,-131.5 818,-112.5 738,-112.5"/>
<text text-anchor="middle" x="778" y="-119.5" font-family="Helvetica,sans-Serif" font-size="10.00">utils/peano.h</text>
</a>
</g>
</g>
<!-- Node12&#45;&gt;Node16 -->
<g id="edge16" class="edge">
<title>Node12&#45;&gt;Node16</title>
<path fill="none" stroke="midnightblue" d="M689.03,-168.32C706.03,-159.66 732.38,-146.24 751.99,-136.25"/>
<polygon fill="midnightblue" stroke="midnightblue" points="753.69,-139.31 761.01,-131.65 750.51,-133.08 753.69,-139.31"/>
</g>
<!-- Node17 -->
<g id="node17" class="node">
<title>Node17</title>
<g id="a_node17"><a xlink:href="memory_8h.html" target="_top" xlink:title=" ">
<polygon fill="white" stroke="black" points="912.5,-56.5 912.5,-75.5 1001.5,-75.5 1001.5,-56.5 912.5,-56.5"/>
<text text-anchor="middle" x="957" y="-63.5" font-family="Helvetica,sans-Serif" font-size="10.00">utils/memory.h</text>
</a>
</g>
</g>
<!-- Node12&#45;&gt;Node17 -->
<g id="edge19" class="edge">
<title>Node12&#45;&gt;Node17</title>
<path fill="none" stroke="midnightblue" d="M695.79,-177.04C738.92,-176.13 831.68,-169.55 898,-132 918.43,-120.43 935.63,-99.26 946.1,-84.22"/>
<polygon fill="midnightblue" stroke="midnightblue" points="949.08,-86.05 951.71,-75.79 943.26,-82.17 949.08,-86.05"/>
</g>
<!-- Node18 -->
<g id="node18" class="node">
<title>Node18</title>
<g id="a_node18"><a xlink:href="mymalloc_8h.html" target="_top" xlink:title=" ">
<polygon fill="white" stroke="black" points="950,-112.5 950,-131.5 1048,-131.5 1048,-112.5 950,-112.5"/>
<text text-anchor="middle" x="999" y="-119.5" font-family="Helvetica,sans-Serif" font-size="10.00">utils/mymalloc.h</text>
</a>
</g>
</g>
<!-- Node12&#45;&gt;Node18 -->
<g id="edge21" class="edge">
<title>Node12&#45;&gt;Node18</title>
<path fill="none" stroke="midnightblue" d="M695.52,-173.12C746.15,-164.76 866.78,-144.83 939.79,-132.78"/>
<polygon fill="midnightblue" stroke="midnightblue" points="940.47,-136.21 949.77,-131.13 939.33,-129.31 940.47,-136.21"/>
</g>
<!-- Node19 -->
<g id="node19" class="node">
<title>Node19</title>
<g id="a_node19"><a xlink:href="paramset_8h.html" target="_top" xlink:title=" ">
<polygon fill="white" stroke="black" points="0,-112.5 0,-131.5 96,-131.5 96,-112.5 0,-112.5"/>
<text text-anchor="middle" x="48" y="-119.5" font-family="Helvetica,sans-Serif" font-size="10.00">utils/paramset.h</text>
</a>
</g>
</g>
<!-- Node12&#45;&gt;Node19 -->
<g id="edge23" class="edge">
<title>Node12&#45;&gt;Node19</title>
<path fill="none" stroke="midnightblue" d="M648.33,-169.94C645.21,-169.19 642.04,-168.51 639,-168 406.63,-128.81 344.33,-156.94 110,-132 108.72,-131.86 107.43,-131.72 106.13,-131.57"/>
<polygon fill="midnightblue" stroke="midnightblue" points="106.37,-128.08 96.02,-130.34 105.52,-135.02 106.37,-128.08"/>
</g>
<!-- Node20 -->
<g id="node20" class="node">
<title>Node20</title>
<g id="a_node20"><a xlink:href="event_8h.html" target="_top" xlink:title=" ">
<polygon fill="white" stroke="black" points="428.5,-112.5 428.5,-131.5 505.5,-131.5 505.5,-112.5 428.5,-112.5"/>
<text text-anchor="middle" x="467" y="-119.5" font-family="Helvetica,sans-Serif" font-size="10.00">utils/event.h</text>
</a>
</g>
</g>
<!-- Node12&#45;&gt;Node20 -->
<g id="edge25" class="edge">
<title>Node12&#45;&gt;Node20</title>
<path fill="none" stroke="midnightblue" d="M648.21,-170.48C645.12,-169.64 641.98,-168.8 639,-168 595.03,-156.25 544.65,-143.11 509.84,-134.08"/>
<polygon fill="midnightblue" stroke="midnightblue" points="510.56,-130.65 500,-131.53 508.8,-137.42 510.56,-130.65"/>
</g>
<!-- Node21 -->
<g id="node21" class="node">
<title>Node21</title>
<g id="a_node21"><a xlink:href="openmpsort_8h.html" target="_top" xlink:title=" ">
<polygon fill="white" stroke="black" points="1020,-56.5 1020,-75.5 1128,-75.5 1128,-56.5 1020,-56.5"/>
<text text-anchor="middle" x="1074" y="-63.5" font-family="Helvetica,sans-Serif" font-size="10.00">utils/openmpsort.h</text>
</a>
</g>
</g>
<!-- Node12&#45;&gt;Node21 -->
<g id="edge26" class="edge">
<title>Node12&#45;&gt;Node21</title>
<path fill="none" stroke="midnightblue" d="M695.56,-177.58C770.68,-178.95 1002.72,-179.19 1057,-132 1070.05,-120.66 1073.68,-100.66 1074.44,-85.83"/>
<polygon fill="midnightblue" stroke="midnightblue" points="1077.94,-85.77 1074.55,-75.73 1070.94,-85.69 1077.94,-85.77"/>
</g>
<!-- Node22 -->
<g id="node22" class="node">
<title>Node22</title>
<g id="a_node22"><a xlink:href="system_8h.html" target="_top" xlink:title=" ">
<polygon fill="white" stroke="black" points="190,-112.5 190,-131.5 276,-131.5 276,-112.5 190,-112.5"/>
<text text-anchor="middle" x="233" y="-119.5" font-family="Helvetica,sans-Serif" font-size="10.00">utils/system.h</text>
</a>
</g>
</g>
<!-- Node12&#45;&gt;Node22 -->
<g id="edge28" class="edge">
<title>Node12&#45;&gt;Node22</title>
<path fill="none" stroke="midnightblue" d="M648.32,-170.04C645.2,-169.27 642.04,-168.56 639,-168 486.71,-139.69 443.44,-152.93 286.13,-132.05"/>
<polygon fill="midnightblue" stroke="midnightblue" points="286.47,-128.57 276.09,-130.7 285.53,-135.51 286.47,-128.57"/>
</g>
<!-- Node24 -->
<g id="node24" class="node">
<title>Node24</title>
<g id="a_node24"><a xlink:href="string_8h.html" target="_top" xlink:title=" ">
<polygon fill="white" stroke="black" points="294.5,-112.5 294.5,-131.5 371.5,-131.5 371.5,-112.5 294.5,-112.5"/>
<text text-anchor="middle" x="333" y="-119.5" font-family="Helvetica,sans-Serif" font-size="10.00">utils/string.h</text>
</a>
</g>
</g>
<!-- Node12&#45;&gt;Node24 -->
<g id="edge32" class="edge">
<title>Node12&#45;&gt;Node24</title>
<path fill="none" stroke="midnightblue" d="M648.29,-170.15C645.18,-169.37 642.02,-168.62 639,-168 527.77,-145.01 498.22,-149.51 386,-132 384.7,-131.8 383.39,-131.59 382.06,-131.38"/>
<polygon fill="midnightblue" stroke="midnightblue" points="382.2,-127.86 371.77,-129.71 381.08,-134.77 382.2,-127.86"/>
</g>
<!-- Node25 -->
<g id="node25" class="node">
<title>Node25</title>
<g id="a_node25"><a xlink:href="endrun_8h.html" target="_top" xlink:title=" ">
<polygon fill="white" stroke="black" points="523.5,-112.5 523.5,-131.5 606.5,-131.5 606.5,-112.5 523.5,-112.5"/>
<text text-anchor="middle" x="565" y="-119.5" font-family="Helvetica,sans-Serif" font-size="10.00">utils/endrun.h</text>
</a>
</g>
</g>
<!-- Node12&#45;&gt;Node25 -->
<g id="edge34" class="edge">
<title>Node12&#45;&gt;Node25</title>
<path fill="none" stroke="midnightblue" d="M654.81,-168.32C637.65,-159.66 611.05,-146.24 591.25,-136.25"/>
<polygon fill="midnightblue" stroke="midnightblue" points="592.65,-133.04 582.15,-131.65 589.5,-139.28 592.65,-133.04"/>
</g>
<!-- Node26 -->
<g id="node26" class="node">
<title>Node26</title>
<g id="a_node26"><a xlink:href="interp_8h.html" target="_top" xlink:title=" ">
<polygon fill="white" stroke="black" points="778,-56.5 778,-75.5 856,-75.5 856,-56.5 778,-56.5"/>
<text text-anchor="middle" x="817" y="-63.5" font-family="Helvetica,sans-Serif" font-size="10.00">utils/interp.h</text>
</a>
</g>
</g>
<!-- Node12&#45;&gt;Node26 -->
<g id="edge35" class="edge">
<title>Node12&#45;&gt;Node26</title>
<path fill="none" stroke="midnightblue" d="M695.65,-173.62C735,-167.46 811.18,-153.06 827,-132 837.15,-118.48 832.22,-98.86 826.25,-84.71"/>
<polygon fill="midnightblue" stroke="midnightblue" points="829.36,-83.1 821.92,-75.55 823.02,-86.08 829.36,-83.1"/>
</g>
<!-- Node27 -->
<g id="node27" class="node">
<title>Node27</title>
<g id="a_node27"><a xlink:href="spinlocks_8h.html" target="_top" xlink:title=" ">
<polygon fill="white" stroke="black" points="624.5,-112.5 624.5,-131.5 719.5,-131.5 719.5,-112.5 624.5,-112.5"/>
<text text-anchor="middle" x="672" y="-119.5" font-family="Helvetica,sans-Serif" font-size="10.00">utils/spinlocks.h</text>
</a>
</g>
</g>
<!-- Node12&#45;&gt;Node27 -->
<g id="edge37" class="edge">
<title>Node12&#45;&gt;Node27</title>
<path fill="none" stroke="midnightblue" d="M672,-168.08C672,-161.01 672,-150.86 672,-141.99"/>
<polygon fill="midnightblue" stroke="midnightblue" points="675.5,-141.75 672,-131.75 668.5,-141.75 675.5,-141.75"/>
</g>
<!-- Node16&#45;&gt;Node7 -->
<g id="edge17" class="edge">
<title>Node16&#45;&gt;Node7</title>
<path fill="none" stroke="midnightblue" d="M773.29,-112.46C766.6,-99.03 756.47,-72.81 769,-56 794.82,-21.37 846.24,-12.34 881.85,-10.5"/>
<polygon fill="midnightblue" stroke="midnightblue" points="882.03,-14 891.9,-10.15 881.78,-7 882.03,-14"/>
</g>
<!-- Node16&#45;&gt;Node14 -->
<g id="edge18" class="edge">
<title>Node16&#45;&gt;Node14</title>
<path fill="none" stroke="midnightblue" d="M737.91,-113.63C734.56,-113.06 731.22,-112.51 728,-112 622.77,-95.32 497.95,-79.2 437.09,-71.58"/>
<polygon fill="midnightblue" stroke="midnightblue" points="437.2,-68.06 426.84,-70.3 436.33,-75.01 437.2,-68.06"/>
</g>
<!-- Node17&#45;&gt;Node7 -->
<g id="edge20" class="edge">
<title>Node17&#45;&gt;Node7</title>
<path fill="none" stroke="midnightblue" d="M950.89,-56.08C945.72,-48.53 938.15,-37.49 931.81,-28.23"/>
<polygon fill="midnightblue" stroke="midnightblue" points="934.54,-26.02 926,-19.75 928.76,-29.98 934.54,-26.02"/>
</g>
<!-- Node18&#45;&gt;Node17 -->
<g id="edge22" class="edge">
<title>Node18&#45;&gt;Node17</title>
<path fill="none" stroke="midnightblue" d="M992.06,-112.08C986.07,-104.38 977.25,-93.03 969.95,-83.65"/>
<polygon fill="midnightblue" stroke="midnightblue" points="972.71,-81.5 963.81,-75.75 967.18,-85.79 972.71,-81.5"/>
</g>
<!-- Node19&#45;&gt;Node13 -->
<g id="edge24" class="edge">
<title>Node19&#45;&gt;Node13</title>
<path fill="none" stroke="midnightblue" d="M56.26,-112.08C63.46,-104.3 74.11,-92.8 82.85,-83.37"/>
<polygon fill="midnightblue" stroke="midnightblue" points="85.67,-85.47 89.9,-75.75 80.53,-80.71 85.67,-85.47"/>
</g>
<!-- Node21&#45;&gt;Node7 -->
<g id="edge27" class="edge">
<title>Node21&#45;&gt;Node7</title>
<path fill="none" stroke="midnightblue" d="M1049.6,-56.44C1023.8,-47.4 982.92,-33.06 953.98,-22.92"/>
<polygon fill="midnightblue" stroke="midnightblue" points="954.88,-19.52 944.29,-19.52 952.57,-26.13 954.88,-19.52"/>
</g>
<!-- Node22&#45;&gt;Node14 -->
<g id="edge29" class="edge">
<title>Node22&#45;&gt;Node14</title>
<path fill="none" stroke="midnightblue" d="M259.46,-112.44C287.68,-103.32 332.54,-88.81 363.97,-78.65"/>
<polygon fill="midnightblue" stroke="midnightblue" points="365.22,-81.92 373.66,-75.52 363.07,-75.26 365.22,-81.92"/>
</g>
<!-- Node22&#45;&gt;Node15 -->
<g id="edge30" class="edge">
<title>Node22&#45;&gt;Node15</title>
<path fill="none" stroke="midnightblue" d="M225.4,-112.08C218.77,-104.3 208.98,-92.8 200.94,-83.37"/>
<polygon fill="midnightblue" stroke="midnightblue" points="203.6,-81.09 194.45,-75.75 198.27,-85.63 203.6,-81.09"/>
</g>
<!-- Node23 -->
<g id="node23" class="node">
<title>Node23</title>
<g id="a_node23"><a xlink:title=" ">
<polygon fill="white" stroke="#bfbfbf" points="252,-56.5 252,-75.5 308,-75.5 308,-56.5 252,-56.5"/>
<text text-anchor="middle" x="280" y="-63.5" font-family="Helvetica,sans-Serif" font-size="10.00">stdarg.h</text>
</a>
</g>
</g>
<!-- Node22&#45;&gt;Node23 -->
<g id="edge31" class="edge">
<title>Node22&#45;&gt;Node23</title>
<path fill="none" stroke="midnightblue" d="M240.76,-112.08C247.54,-104.3 257.54,-92.8 265.76,-83.37"/>
<polygon fill="midnightblue" stroke="midnightblue" points="268.46,-85.59 272.38,-75.75 263.18,-81 268.46,-85.59"/>
</g>
<!-- Node24&#45;&gt;Node23 -->
<g id="edge33" class="edge">
<title>Node24&#45;&gt;Node23</title>
<path fill="none" stroke="midnightblue" d="M324.25,-112.08C316.53,-104.22 305.1,-92.57 295.78,-83.08"/>
<polygon fill="midnightblue" stroke="midnightblue" points="298.09,-80.44 288.59,-75.75 293.1,-85.34 298.09,-80.44"/>
</g>
<!-- Node26&#45;&gt;Node7 -->
<g id="edge36" class="edge">
<title>Node26&#45;&gt;Node7</title>
<path fill="none" stroke="midnightblue" d="M833.55,-56.32C849.99,-47.7 875.43,-34.36 894.47,-24.39"/>
<polygon fill="midnightblue" stroke="midnightblue" points="896.26,-27.4 903.49,-19.65 893.01,-21.2 896.26,-27.4"/>
</g>
</g>
</svg>
