<?xml version="1.0" encoding="UTF-8" standalone="no"?>
<!DOCTYPE svg PUBLIC "-//W3C//DTD SVG 1.1//EN"
 "http://www.w3.org/Graphics/SVG/1.1/DTD/svg11.dtd">
<!-- Generated by graphviz version 2.38.0 (20140413.2041)
 -->
<!-- Title: init_cosmology Pages: 1 -->
<svg width="639pt" height="123pt"
 viewBox="0.00 0.00 639.00 123.00" xmlns="http://www.w3.org/2000/svg" xmlns:xlink="http://www.w3.org/1999/xlink">
<g id="graph0" class="graph" transform="scale(1 1) rotate(0) translate(4 119)">
<title>init_cosmology</title>
<polygon fill="white" stroke="none" points="-4,4 -4,-119 635,-119 635,4 -4,4"/>
<!-- Node84 -->
<g id="node1" class="node"><title>Node84</title>
<polygon fill="#bfbfbf" stroke="black" points="0,-28.5 0,-47.5 82,-47.5 82,-28.5 0,-28.5"/>
<text text-anchor="middle" x="41" y="-35.5" font-family="Helvetica,sans-Serif" font-size="10.00">init_cosmology</text>
</g>
<!-- Node85 -->
<g id="node2" class="node"><title>Node85</title>
<g id="a_node2"><a xlink:href="cosmology_8c.html#ac1d39b759a1cfef3faaaa8b46d75bc0a" target="_top" xlink:title="hubble_function">
<polygon fill="white" stroke="black" points="118,-57.5 118,-76.5 203,-76.5 203,-57.5 118,-57.5"/>
<text text-anchor="middle" x="160.5" y="-64.5" font-family="Helvetica,sans-Serif" font-size="10.00">hubble_function</text>
</a>
</g>
</g>
<!-- Node84&#45;&gt;Node85 -->
<g id="edge1" class="edge"><title>Node84&#45;&gt;Node85</title>
<path fill="none" stroke="midnightblue" d="M80.7995,-47.5761C90.4254,-49.9518 100.862,-52.5276 110.892,-55.0031"/>
<polygon fill="midnightblue" stroke="midnightblue" points="110.194,-58.4358 120.741,-57.434 111.871,-51.6397 110.194,-58.4358"/>
</g>
<!-- Node93 -->
<g id="node10" class="node"><title>Node93</title>
<g id="a_node10"><a xlink:href="endrun_8c.html#a6567cd867c5549fb6586e19ccd819764" target="_top" xlink:title="message">
<polygon fill="white" stroke="black" points="132.5,-0.5 132.5,-19.5 188.5,-19.5 188.5,-0.5 132.5,-0.5"/>
<text text-anchor="middle" x="160.5" y="-7.5" font-family="Helvetica,sans-Serif" font-size="10.00">message</text>
</a>
</g>
</g>
<!-- Node84&#45;&gt;Node93 -->
<g id="edge11" class="edge"><title>Node84&#45;&gt;Node93</title>
<path fill="none" stroke="midnightblue" d="M82.1082,-28.4423C95.1179,-25.3421 109.488,-21.9177 122.279,-18.8698"/>
<polygon fill="midnightblue" stroke="midnightblue" points="123.225,-22.2423 132.141,-16.5195 121.602,-15.433 123.225,-22.2423"/>
</g>
<!-- Node86 -->
<g id="node3" class="node"><title>Node86</title>
<g id="a_node3"><a xlink:href="cosmology_8c.html#ace7ed7b8c64e751bc0210cc9bb0280b3" target="_top" xlink:title="growth">
<polygon fill="white" stroke="black" points="249.5,-95.5 249.5,-114.5 295.5,-114.5 295.5,-95.5 249.5,-95.5"/>
<text text-anchor="middle" x="272.5" y="-102.5" font-family="Helvetica,sans-Serif" font-size="10.00">growth</text>
</a>
</g>
</g>
<!-- Node85&#45;&gt;Node86 -->
<g id="edge2" class="edge"><title>Node85&#45;&gt;Node86</title>
<path fill="none" stroke="midnightblue" d="M203.086,-74.7979C218.31,-79.6368 234.993,-85.7084 248.074,-91.2634"/>
<polygon fill="midnightblue" stroke="midnightblue" points="246.732,-94.4976 257.29,-95.3818 249.588,-88.1066 246.732,-94.4976"/>
</g>
<!-- Node92 -->
<g id="node9" class="node"><title>Node92</title>
<g id="a_node9"><a xlink:href="cosmology_8c.html#a54b21ed58c2038abf1c78cda8b5d4bf0" target="_top" xlink:title="OmegaFLD">
<polygon fill="white" stroke="black" points="239,-57.5 239,-76.5 306,-76.5 306,-57.5 239,-57.5"/>
<text text-anchor="middle" x="272.5" y="-64.5" font-family="Helvetica,sans-Serif" font-size="10.00">OmegaFLD</text>
</a>
</g>
</g>
<!-- Node85&#45;&gt;Node92 -->
<g id="edge10" class="edge"><title>Node85&#45;&gt;Node92</title>
<path fill="none" stroke="midnightblue" d="M203.086,-67C211.477,-67 220.312,-67 228.743,-67"/>
<polygon fill="midnightblue" stroke="midnightblue" points="228.769,-70.5001 238.769,-67 228.769,-63.5001 228.769,-70.5001"/>
</g>
<!-- Node86&#45;&gt;Node85 -->
<g id="edge9" class="edge"><title>Node86&#45;&gt;Node85</title>
<path fill="none" stroke="midnightblue" d="M249.107,-102.824C230.459,-97.9377 203.984,-88.8224 185.027,-80.7793"/>
<polygon fill="midnightblue" stroke="midnightblue" points="186.439,-77.5767 175.881,-76.6991 183.587,-83.9695 186.439,-77.5767"/>
</g>
<!-- Node87 -->
<g id="node4" class="node"><title>Node87</title>
<g id="a_node4"><a xlink:href="endrun_8c.html#ad963d7efdb9f10f7a2298c8ccd222ab0" target="_top" xlink:title="endrun">
<polygon fill="white" stroke="black" points="352.5,-85.5 352.5,-104.5 398.5,-104.5 398.5,-85.5 352.5,-85.5"/>
<text text-anchor="middle" x="375.5" y="-92.5" font-family="Helvetica,sans-Serif" font-size="10.00">endrun</text>
</a>
</g>
</g>
<!-- Node86&#45;&gt;Node87 -->
<g id="edge3" class="edge"><title>Node86&#45;&gt;Node87</title>
<path fill="none" stroke="midnightblue" d="M295.915,-102.781C309.609,-101.425 327.342,-99.6691 342.497,-98.1686"/>
<polygon fill="midnightblue" stroke="midnightblue" points="342.889,-101.647 352.495,-97.1787 342.199,-94.6811 342.889,-101.647"/>
</g>
<!-- Node91 -->
<g id="node8" class="node"><title>Node91</title>
<g id="a_node8"><a xlink:href="cosmology_8c.html#af1fe52807a376f35b61e9db09f4135ae" target="_top" xlink:title="growth_ode">
<polygon fill="white" stroke="black" points="342,-38.5 342,-57.5 409,-57.5 409,-38.5 342,-38.5"/>
<text text-anchor="middle" x="375.5" y="-45.5" font-family="Helvetica,sans-Serif" font-size="10.00">growth_ode</text>
</a>
</g>
</g>
<!-- Node86&#45;&gt;Node91 -->
<g id="edge7" class="edge"><title>Node86&#45;&gt;Node91</title>
<path fill="none" stroke="midnightblue" d="M290.633,-95.3307C306.545,-86.3509 330.456,-72.8566 348.68,-62.5715"/>
<polygon fill="midnightblue" stroke="midnightblue" points="350.631,-65.4895 357.62,-57.5265 347.191,-59.3933 350.631,-65.4895"/>
</g>
<!-- Node88 -->
<g id="node5" class="node"><title>Node88</title>
<g id="a_node5"><a xlink:href="endrun_8c.html#a7267113a7c0a094743bb565eabc695d1" target="_top" xlink:title="messagev">
<polygon fill="white" stroke="black" points="445,-33.5 445,-52.5 507,-52.5 507,-33.5 445,-33.5"/>
<text text-anchor="middle" x="476" y="-40.5" font-family="Helvetica,sans-Serif" font-size="10.00">messagev</text>
</a>
</g>
</g>
<!-- Node87&#45;&gt;Node88 -->
<g id="edge4" class="edge"><title>Node87&#45;&gt;Node88</title>
<path fill="none" stroke="midnightblue" d="M394.566,-85.4624C409.468,-77.5954 430.841,-66.3125 447.81,-57.3544"/>
<polygon fill="midnightblue" stroke="midnightblue" points="449.505,-60.417 456.715,-52.6532 446.237,-54.2267 449.505,-60.417"/>
</g>
<!-- Node89 -->
<g id="node6" class="node"><title>Node89</title>
<g id="a_node6"><a xlink:href="endrun_8c.html#a87108946670b4c3afbe846c6726675ff" target="_top" xlink:title="putline">
<polygon fill="white" stroke="black" points="564.5,-52.5 564.5,-71.5 609.5,-71.5 609.5,-52.5 564.5,-52.5"/>
<text text-anchor="middle" x="587" y="-59.5" font-family="Helvetica,sans-Serif" font-size="10.00">putline</text>
</a>
</g>
</g>
<!-- Node88&#45;&gt;Node89 -->
<g id="edge5" class="edge"><title>Node88&#45;&gt;Node89</title>
<path fill="none" stroke="midnightblue" d="M507.073,-48.2421C521.677,-50.7877 539.231,-53.8476 554.072,-56.4346"/>
<polygon fill="midnightblue" stroke="midnightblue" points="553.866,-59.9514 564.318,-58.2207 555.068,-53.0553 553.866,-59.9514"/>
</g>
<!-- Node90 -->
<g id="node7" class="node"><title>Node90</title>
<g id="a_node7"><a xlink:href="endrun_8c.html#a1200f02a595ab7cbe17c9e36ff32af0f" target="_top" xlink:title="show_backtrace">
<polygon fill="white" stroke="black" points="543,-14.5 543,-33.5 631,-33.5 631,-14.5 543,-14.5"/>
<text text-anchor="middle" x="587" y="-21.5" font-family="Helvetica,sans-Serif" font-size="10.00">show_backtrace</text>
</a>
</g>
</g>
<!-- Node88&#45;&gt;Node90 -->
<g id="edge6" class="edge"><title>Node88&#45;&gt;Node90</title>
<path fill="none" stroke="midnightblue" d="M507.073,-37.7579C515.131,-36.3533 524.087,-34.7921 532.991,-33.2402"/>
<polygon fill="midnightblue" stroke="midnightblue" points="533.719,-36.6661 542.969,-31.5008 532.517,-29.7701 533.719,-36.6661"/>
</g>
<!-- Node91&#45;&gt;Node85 -->
<g id="edge8" class="edge"><title>Node91&#45;&gt;Node85</title>
<path fill="none" stroke="midnightblue" d="M341.787,-45.8103C314.261,-44.4909 273.915,-43.7825 239,-48 227.086,-49.4391 214.361,-52.0798 202.739,-54.9441"/>
<polygon fill="midnightblue" stroke="midnightblue" points="201.665,-51.6065 192.856,-57.4942 203.414,-58.3845 201.665,-51.6065"/>
</g>
<!-- Node93&#45;&gt;Node88 -->
<g id="edge12" class="edge"><title>Node93&#45;&gt;Node88</title>
<path fill="none" stroke="midnightblue" d="M188.73,-10.9113C234.448,-12.7046 329.446,-17.5602 409,-29 417.5,-30.2223 426.544,-31.8927 435.124,-33.6542"/>
<polygon fill="midnightblue" stroke="midnightblue" points="434.412,-37.0811 444.922,-35.7427 435.872,-30.2349 434.412,-37.0811"/>
</g>
</g>
</svg>
