<?xml version="1.0" encoding="UTF-8" standalone="no"?>
<!DOCTYPE svg PUBLIC "-//W3C//DTD SVG 1.1//EN"
 "http://www.w3.org/Graphics/SVG/1.1/DTD/svg11.dtd">
<!-- Generated by graphviz version 2.38.0 (20140413.2041)
 -->
<!-- Title: OmegaFLD Pages: 1 -->
<!--zoomable 781 -->
<svg id="main" version="1.1" xmlns="http://www.w3.org/2000/svg" xmlns:xlink="http://www.w3.org/1999/xlink" xml:space="preserve" onload="init(evt)">
<style type="text/css"><![CDATA[
.edge:hover path { stroke: red; }
.edge:hover polygon { stroke: red; fill: red; }
]]></style>
<script type="text/javascript"><![CDATA[
var edges = document.getElementsByTagName('g');
if (edges && edges.length) {
  for (var i=0;i<edges.length;i++) {
    if (edges[i].id.substr(0,4)=='edge') {
      edges[i].setAttribute('class','edge');
    }
  }
}
]]></script>
        <defs>
                <circle id="rim" cx="0" cy="0" r="7"/>
                <circle id="rim2" cx="0" cy="0" r="3.5"/>
                <g id="zoomPlus">
                        <use xlink:href="#rim" fill="#404040">
                                <set attributeName="fill" to="#808080" begin="zoomplus.mouseover" end="zoomplus.mouseout"/>
                        </use>
                        <path d="M-4,0h8M0,-4v8" fill="none" stroke="white" stroke-width="1.5" pointer-events="none"/>
                </g>
                <g id="zoomMin">
                        <use xlink:href="#rim" fill="#404040">
                                <set attributeName="fill" to="#808080" begin="zoomminus.mouseover" end="zoomminus.mouseout"/>
                        </use>
                        <path d="M-4,0h8" fill="none" stroke="white" stroke-width="1.5" pointer-events="none"/>
                </g>
                <g id="dirArrow">
                        <path fill="none" stroke="white" stroke-width="1.5" d="M0,-3.0v7 M-2.5,-0.5L0,-3.0L2.5,-0.5"/>
                </g>
               <g id="resetDef">
                       <use xlink:href="#rim2" fill="#404040">
                               <set attributeName="fill" to="#808080" begin="reset.mouseover" end="reset.mouseout"/>
                       </use>
               </g>
        </defs>

<script type="text/javascript">
var viewWidth = 805;
var viewHeight = 781;
var sectionId = 'dynsection-16';
</script>
<script xlink:href="svgpan.js"/>
<svg id="graph" class="graph">
<g id="viewport">
<title>OmegaFLD</title>
<polygon fill="white" stroke="none" points="-4,4 -4,-777.237 801.133,-777.237 801.133,4 -4,4"/>
<!-- Node184 -->
<g id="node1" class="node"><title>Node184</title>
<polygon fill="#bfbfbf" stroke="black" points="40.1236,-196.455 40.1236,-215.455 107.124,-215.455 107.124,-196.455 40.1236,-196.455"/>
<text text-anchor="middle" x="73.6236" y="-203.455" font-family="Helvetica,sans-Serif" font-size="10.00">OmegaFLD</text>
</g>
<!-- Node185 -->
<g id="node2" class="node"><title>Node185</title>
<g id="a_node2"><a xlink:href="cosmology_8h.html#ac1d39b759a1cfef3faaaa8b46d75bc0a" target="_top" xlink:title="hubble_function">
<polygon fill="white" stroke="black" points="127.003,-512.162 127.003,-531.162 212.003,-531.162 212.003,-512.162 127.003,-512.162"/>
<text text-anchor="middle" x="169.503" y="-519.162" font-family="Helvetica,sans-Serif" font-size="10.00">hubble_function</text>
</a>
</g>
</g>
<!-- Node184&#45;&gt;Node185 -->
<g id="edge1" class="edge"><title>Node184&#45;&gt;Node185</title>
<path fill="none" stroke="midnightblue" d="M79.5766,-225.557C97.9262,-285.977 153.186,-467.933 166.563,-511.982"/>
<polygon fill="midnightblue" stroke="midnightblue" points="82.8532,-224.301 76.5983,-215.75 76.1553,-226.335 82.8532,-224.301"/>
</g>
<!-- Node186 -->
<g id="node3" class="node"><title>Node186</title>
<g id="a_node3"><a xlink:href="cosmology_8h.html#acea8b1c328e88c014dc546b41032f7db" target="_top" xlink:title="init_cosmology">
<polygon fill="white" stroke="black" points="168.79,-128.855 168.79,-147.855 250.79,-147.855 250.79,-128.855 168.79,-128.855"/>
<text text-anchor="middle" x="209.79" y="-135.855" font-family="Helvetica,sans-Serif" font-size="10.00">init_cosmology</text>
</a>
</g>
</g>
<!-- Node185&#45;&gt;Node186 -->
<g id="edge2" class="edge"><title>Node185&#45;&gt;Node186</title>
<path fill="none" stroke="midnightblue" d="M171.603,-501.679C178.964,-431.647 203.434,-198.832 208.761,-148.15"/>
<polygon fill="midnightblue" stroke="midnightblue" points="168.104,-501.491 170.539,-511.802 175.066,-502.223 168.104,-501.491"/>
</g>
<!-- Node193 -->
<g id="node10" class="node"><title>Node193</title>
<g id="a_node10"><a xlink:href="cosmology_8c.html#af1fe52807a376f35b61e9db09f4135ae" target="_top" xlink:title="growth_ode">
<polygon fill="white" stroke="black" points="406.63,-700.908 406.63,-719.908 473.63,-719.908 473.63,-700.908 406.63,-700.908"/>
<text text-anchor="middle" x="440.13" y="-707.908" font-family="Helvetica,sans-Serif" font-size="10.00">growth_ode</text>
</a>
</g>
</g>
<!-- Node185&#45;&gt;Node193 -->
<g id="edge10" class="edge"><title>Node185&#45;&gt;Node193</title>
<path fill="none" stroke="midnightblue" d="M191.81,-537.22C245.844,-574.905 382.52,-670.228 426.366,-700.808"/>
<polygon fill="midnightblue" stroke="midnightblue" points="193.5,-534.132 183.296,-531.282 189.496,-539.873 193.5,-534.132"/>
</g>
<!-- Node194 -->
<g id="node11" class="node"><title>Node194</title>
<g id="a_node11"><a xlink:href="cosmology_8c.html#ace7ed7b8c64e751bc0210cc9bb0280b3" target="_top" xlink:title="growth">
<polygon fill="white" stroke="black" points="268.254,-685.261 268.254,-704.261 314.254,-704.261 314.254,-685.261 268.254,-685.261"/>
<text text-anchor="middle" x="291.254" y="-692.261" font-family="Helvetica,sans-Serif" font-size="10.00">growth</text>
</a>
</g>
</g>
<!-- Node185&#45;&gt;Node194 -->
<g id="edge20" class="edge"><title>Node185&#45;&gt;Node194</title>
<path fill="none" stroke="midnightblue" d="M177.622,-540.429C199.018,-577.153 255.42,-657.036 279.941,-684.982"/>
<polygon fill="midnightblue" stroke="midnightblue" points="180.473,-538.352 172.571,-531.294 174.347,-541.739 180.473,-538.352"/>
</g>
<!-- Node200 -->
<g id="node17" class="node"><title>Node200</title>
<g id="a_node17"><a xlink:href="lightcone_8c.html#a53356309f04e9e22e9631e0be5a97b36" target="_top" xlink:title="kernel">
<polygon fill="white" stroke="black" points="592.28,-297.971 592.28,-316.971 635.28,-316.971 635.28,-297.971 592.28,-297.971"/>
<text text-anchor="middle" x="613.78" y="-304.971" font-family="Helvetica,sans-Serif" font-size="10.00">kernel</text>
</a>
</g>
</g>
<!-- Node185&#45;&gt;Node200 -->
<g id="edge21" class="edge"><title>Node185&#45;&gt;Node200</title>
<path fill="none" stroke="midnightblue" d="M198.663,-507.604C282.547,-467.163 522.995,-351.24 593.882,-317.064"/>
<polygon fill="midnightblue" stroke="midnightblue" points="196.944,-504.547 189.456,-512.043 199.984,-510.853 196.944,-504.547"/>
</g>
<!-- Node210 -->
<g id="node27" class="node"><title>Node210</title>
<g id="a_node27"><a xlink:href="timefac_8c.html#a032ad4e64bea7e928dc97ae1c1e361d5" target="_top" xlink:title="drift_integ">
<polygon fill="white" stroke="black" points="132.113,-610.412 132.113,-629.412 191.113,-629.412 191.113,-610.412 132.113,-610.412"/>
<text text-anchor="middle" x="161.613" y="-617.412" font-family="Helvetica,sans-Serif" font-size="10.00">drift_integ</text>
</a>
</g>
</g>
<!-- Node185&#45;&gt;Node210 -->
<g id="edge36" class="edge"><title>Node185&#45;&gt;Node210</title>
<path fill="none" stroke="midnightblue" d="M167.915,-541.442C166.241,-562.279 163.675,-594.235 162.395,-610.172"/>
<polygon fill="midnightblue" stroke="midnightblue" points="171.406,-541.69 168.718,-531.442 164.428,-541.13 171.406,-541.69"/>
</g>
<!-- Node212 -->
<g id="node29" class="node"><title>Node212</title>
<g id="a_node29"><a xlink:href="timefac_8c.html#a49e011c5b6ec2bada1f53279cd98eb68" target="_top" xlink:title="gravkick_integ">
<polygon fill="white" stroke="black" points="33.6236,-489.306 33.6236,-508.306 113.624,-508.306 113.624,-489.306 33.6236,-489.306"/>
<text text-anchor="middle" x="73.6236" y="-496.306" font-family="Helvetica,sans-Serif" font-size="10.00">gravkick_integ</text>
</a>
</g>
</g>
<!-- Node185&#45;&gt;Node212 -->
<g id="edge39" class="edge"><title>Node185&#45;&gt;Node212</title>
<path fill="none" stroke="midnightblue" d="M119.496,-509.741C117.511,-509.268 115.531,-508.796 113.569,-508.328"/>
<polygon fill="midnightblue" stroke="midnightblue" points="118.858,-513.187 129.397,-512.102 120.481,-506.378 118.858,-513.187"/>
</g>
<!-- Node213 -->
<g id="node30" class="node"><title>Node213</title>
<g id="a_node30"><a xlink:href="timefac_8c.html#aaaf796ff786097cfa60676d9e006621f" target="_top" xlink:title="hydrokick_integ">
<polygon fill="white" stroke="black" points="-7.10543e-15,-342.88 -7.10543e-15,-361.88 85,-361.88 85,-342.88 -7.10543e-15,-342.88"/>
<text text-anchor="middle" x="42.5" y="-349.88" font-family="Helvetica,sans-Serif" font-size="10.00">hydrokick_integ</text>
</a>
</g>
</g>
<!-- Node185&#45;&gt;Node213 -->
<g id="edge41" class="edge"><title>Node185&#45;&gt;Node213</title>
<path fill="none" stroke="midnightblue" d="M156.31,-504.077C129.78,-468.715 70.7345,-390.014 49.9296,-362.283"/>
<polygon fill="midnightblue" stroke="midnightblue" points="153.51,-506.178 162.311,-512.076 159.109,-501.977 153.51,-506.178"/>
</g>
<!-- Node214 -->
<g id="node31" class="node"><title>Node214</title>
<g id="a_node31"><a xlink:href="timestep_8h.html#aaebcb31d8cb374d360e1e165df6fe26d" target="_top" xlink:title="set_global_time">
<polygon fill="white" stroke="black" points="215.468,-503.4 215.468,-522.4 300.468,-522.4 300.468,-503.4 215.468,-503.4"/>
<text text-anchor="middle" x="257.968" y="-510.4" font-family="Helvetica,sans-Serif" font-size="10.00">set_global_time</text>
</a>
</g>
</g>
<!-- Node185&#45;&gt;Node214 -->
<g id="edge43" class="edge"><title>Node185&#45;&gt;Node214</title>
<path fill="none" stroke="midnightblue" d="M214.965,-517.159C215.098,-517.146 215.231,-517.133 215.363,-517.12"/>
<polygon fill="midnightblue" stroke="midnightblue" points="221.787,-512.966 212.181,-517.435 222.477,-519.932 221.787,-512.966"/>
</g>
<!-- Node187 -->
<g id="node4" class="node"><title>Node187</title>
<g id="a_node4"><a xlink:href="begrun_8c.html#abc253d7e6685a5245c81819ccc03f1f0" target="_top" xlink:title="set_units">
<polygon fill="white" stroke="black" points="229.968,-182.361 229.968,-201.361 285.968,-201.361 285.968,-182.361 229.968,-182.361"/>
<text text-anchor="middle" x="257.968" y="-189.361" font-family="Helvetica,sans-Serif" font-size="10.00">set_units</text>
</a>
</g>
</g>
<!-- Node186&#45;&gt;Node187 -->
<g id="edge3" class="edge"><title>Node186&#45;&gt;Node187</title>
<path fill="none" stroke="midnightblue" d="M225.365,-155.652C233.256,-164.416 242.547,-174.734 249.187,-182.109"/>
<polygon fill="midnightblue" stroke="midnightblue" points="227.919,-153.258 218.627,-148.169 222.717,-157.942 227.919,-153.258"/>
</g>
<!-- Node188 -->
<g id="node5" class="node"><title>Node188</title>
<g id="a_node5"><a xlink:href="proto_8h.html#a74dc0e5e9eefe11fc8434b62de573146" target="_top" xlink:title="begrun">
<polygon fill="white" stroke="black" points="364.448,-199.669 364.448,-218.669 410.448,-218.669 410.448,-199.669 364.448,-199.669"/>
<text text-anchor="middle" x="387.448" y="-206.669" font-family="Helvetica,sans-Serif" font-size="10.00">begrun</text>
</a>
</g>
</g>
<!-- Node187&#45;&gt;Node188 -->
<g id="edge4" class="edge"><title>Node187&#45;&gt;Node188</title>
<path fill="none" stroke="midnightblue" d="M296.122,-196.961C318.193,-199.912 345.254,-203.529 364.166,-206.057"/>
<polygon fill="midnightblue" stroke="midnightblue" points="296.439,-193.473 286.063,-195.617 295.511,-200.411 296.439,-193.473"/>
</g>
<!-- Node189 -->
<g id="node6" class="node"><title>Node189</title>
<g id="a_node6"><a xlink:href="main_8c.html#a3c04138a5bfe5d72780bb7e82a18e627" target="_top" xlink:title="main">
<polygon fill="white" stroke="black" points="405.749,-274.404 405.749,-293.404 443.749,-293.404 443.749,-274.404 405.749,-274.404"/>
<text text-anchor="middle" x="424.749" y="-281.404" font-family="Helvetica,sans-Serif" font-size="10.00">main</text>
</a>
</g>
</g>
<!-- Node188&#45;&gt;Node189 -->
<g id="edge5" class="edge"><title>Node188&#45;&gt;Node189</title>
<path fill="none" stroke="midnightblue" d="M396.937,-228.18C404.302,-242.937 414.204,-262.776 419.989,-274.368"/>
<polygon fill="midnightblue" stroke="midnightblue" points="399.922,-226.324 392.324,-218.939 393.659,-229.45 399.922,-226.324"/>
</g>
<!-- Node190 -->
<g id="node7" class="node"><title>Node190</title>
<g id="a_node7"><a xlink:href="walltime_8h.html#a76d2135b612766d4d665748454b879d6" target="_top" xlink:title="walltime_report">
<polygon fill="white" stroke="black" points="361,-342.88 361,-361.88 444,-361.88 444,-342.88 361,-342.88"/>
<text text-anchor="middle" x="402.5" y="-349.88" font-family="Helvetica,sans-Serif" font-size="10.00">walltime_report</text>
</a>
</g>
</g>
<!-- Node189&#45;&gt;Node190 -->
<g id="edge6" class="edge"><title>Node189&#45;&gt;Node190</title>
<path fill="none" stroke="midnightblue" d="M418.495,-303.152C414.335,-315.957 409.042,-332.246 405.711,-342.496"/>
<polygon fill="midnightblue" stroke="midnightblue" points="421.894,-304.018 421.656,-293.426 415.237,-301.855 421.894,-304.018"/>
</g>
<!-- Node191 -->
<g id="node8" class="node"><title>Node191</title>
<g id="a_node8"><a xlink:href="run_8c.html#adc59e9ee1517e4e690694a64ab6a59d2" target="_top" xlink:title="write_cpu_log">
<polygon fill="white" stroke="black" points="341.751,-411.356 341.751,-430.356 418.751,-430.356 418.751,-411.356 341.751,-411.356"/>
<text text-anchor="middle" x="380.251" y="-418.356" font-family="Helvetica,sans-Serif" font-size="10.00">write_cpu_log</text>
</a>
</g>
</g>
<!-- Node190&#45;&gt;Node191 -->
<g id="edge7" class="edge"><title>Node190&#45;&gt;Node191</title>
<path fill="none" stroke="midnightblue" d="M396.246,-371.628C392.086,-384.433 386.793,-400.722 383.462,-410.973"/>
<polygon fill="midnightblue" stroke="midnightblue" points="399.645,-372.494 399.406,-361.902 392.987,-370.331 399.645,-372.494"/>
</g>
<!-- Node192 -->
<g id="node9" class="node"><title>Node192</title>
<g id="a_node9"><a xlink:href="run_8c.html#a05e0ffe612d44e6d7f3a9ae5b9df56a2" target="_top" xlink:title="run">
<polygon fill="white" stroke="black" points="343.002,-479.832 343.002,-498.832 373.002,-498.832 373.002,-479.832 343.002,-479.832"/>
<text text-anchor="middle" x="358.002" y="-486.832" font-family="Helvetica,sans-Serif" font-size="10.00">run</text>
</a>
</g>
</g>
<!-- Node191&#45;&gt;Node192 -->
<g id="edge8" class="edge"><title>Node191&#45;&gt;Node192</title>
<path fill="none" stroke="midnightblue" d="M373.997,-440.104C369.836,-452.909 364.544,-469.198 361.213,-479.449"/>
<polygon fill="midnightblue" stroke="midnightblue" points="377.396,-440.97 377.157,-430.378 370.738,-438.807 377.396,-440.97"/>
</g>
<!-- Node192&#45;&gt;Node189 -->
<g id="edge9" class="edge"><title>Node192&#45;&gt;Node189</title>
<path fill="none" stroke="midnightblue" d="M364.306,-469.93C378.222,-427.101 411.155,-325.743 421.548,-293.755"/>
<polygon fill="midnightblue" stroke="midnightblue" points="360.893,-469.108 361.131,-479.7 367.55,-471.271 360.893,-469.108"/>
</g>
<!-- Node193&#45;&gt;Node194 -->
<g id="edge11" class="edge"><title>Node193&#45;&gt;Node194</title>
<path fill="none" stroke="midnightblue" d="M396.392,-705.811C369.489,-702.983 336.098,-699.474 314.261,-697.179"/>
<polygon fill="midnightblue" stroke="midnightblue" points="396.037,-709.293 406.348,-706.858 396.769,-702.331 396.037,-709.293"/>
</g>
<!-- Node194&#45;&gt;Node185 -->
<g id="edge19" class="edge"><title>Node194&#45;&gt;Node185</title>
<path fill="none" stroke="midnightblue" d="M283.135,-675.994C261.739,-639.27 205.337,-559.387 180.816,-531.441"/>
<polygon fill="midnightblue" stroke="midnightblue" points="280.284,-678.071 288.186,-685.129 286.41,-674.684 280.284,-678.071"/>
</g>
<!-- Node195 -->
<g id="node12" class="node"><title>Node195</title>
<g id="a_node12"><a xlink:href="cosmology_8h.html#ac5ab3012d3ab5d4ea9879cbacae135fb" target="_top" xlink:title="F_Omega">
<polygon fill="white" stroke="black" points="239.505,-753.737 239.505,-772.737 298.505,-772.737 298.505,-753.737 239.505,-753.737"/>
<text text-anchor="middle" x="269.005" y="-760.737" font-family="Helvetica,sans-Serif" font-size="10.00">F_Omega</text>
</a>
</g>
</g>
<!-- Node194&#45;&gt;Node195 -->
<g id="edge12" class="edge"><title>Node194&#45;&gt;Node195</title>
<path fill="none" stroke="midnightblue" d="M285,-714.009C280.839,-726.813 275.547,-743.102 272.216,-753.353"/>
<polygon fill="midnightblue" stroke="midnightblue" points="288.399,-714.874 288.16,-704.282 281.741,-712.711 288.399,-714.874"/>
</g>
<!-- Node196 -->
<g id="node13" class="node"><title>Node196</title>
<g id="a_node13"><a xlink:href="cosmology_8h.html#a43947590473b9f1216fcf16bd7e5c1ed" target="_top" xlink:title="GrowthFactor">
<polygon fill="white" stroke="black" points="597.497,-173.598 597.497,-192.598 673.497,-192.598 673.497,-173.598 597.497,-173.598"/>
<text text-anchor="middle" x="635.497" y="-180.598" font-family="Helvetica,sans-Serif" font-size="10.00">GrowthFactor</text>
</a>
</g>
</g>
<!-- Node194&#45;&gt;Node196 -->
<g id="edge13" class="edge"><title>Node194&#45;&gt;Node196</title>
<path fill="none" stroke="midnightblue" d="M303.455,-676.626C358.986,-594.087 586.945,-255.262 628.859,-192.965"/>
<polygon fill="midnightblue" stroke="midnightblue" points="300.501,-674.746 297.823,-684.996 306.309,-678.653 300.501,-674.746"/>
</g>
<!-- Node197 -->
<g id="node14" class="node"><title>Node197</title>
<g id="a_node14"><a xlink:href="proto_8h.html#a6a55456b331c8b01d7ae1352809b82f2" target="_top" xlink:title="gravpm_force">
<polygon fill="white" stroke="black" points="539.248,-215.919 539.248,-234.919 615.248,-234.919 615.248,-215.919 539.248,-215.919"/>
<text text-anchor="middle" x="577.248" y="-222.919" font-family="Helvetica,sans-Serif" font-size="10.00">gravpm_force</text>
</a>
</g>
</g>
<!-- Node196&#45;&gt;Node197 -->
<g id="edge14" class="edge"><title>Node196&#45;&gt;Node197</title>
<path fill="none" stroke="midnightblue" d="M614.112,-198.635C606.172,-204.404 597.405,-210.774 590.413,-215.854"/>
<polygon fill="midnightblue" stroke="midnightblue" points="616.246,-201.411 622.279,-192.701 612.132,-195.748 616.246,-201.411"/>
</g>
<!-- Node198 -->
<g id="node15" class="node"><title>Node198</title>
<g id="a_node15"><a xlink:href="run_8c.html#abb80d08f4d52f4a7bdf28d1cecfead5b" target="_top" xlink:title="compute_accelerations">
<polygon fill="white" stroke="black" points="541.326,-430.735 541.326,-449.735 658.326,-449.735 658.326,-430.735 541.326,-430.735"/>
<text text-anchor="middle" x="599.826" y="-437.735" font-family="Helvetica,sans-Serif" font-size="10.00">compute_accelerations</text>
</a>
</g>
</g>
<!-- Node197&#45;&gt;Node198 -->
<g id="edge15" class="edge"><title>Node197&#45;&gt;Node198</title>
<path fill="none" stroke="midnightblue" d="M579.31,-245.045C583.996,-289.622 595.303,-397.203 598.787,-430.347"/>
<polygon fill="midnightblue" stroke="midnightblue" points="582.773,-244.506 578.247,-234.926 575.812,-245.237 582.773,-244.506"/>
</g>
<!-- Node199 -->
<g id="node16" class="node"><title>Node199</title>
<g id="a_node16"><a xlink:href="runtests_8c.html#a549024555ca61e3f05a7100307e44f69" target="_top" xlink:title="runtests">
<polygon fill="white" stroke="black" points="492.998,-258.239 492.998,-277.239 544.998,-277.239 544.998,-258.239 492.998,-258.239"/>
<text text-anchor="middle" x="518.998" y="-265.239" font-family="Helvetica,sans-Serif" font-size="10.00">runtests</text>
</a>
</g>
</g>
<!-- Node197&#45;&gt;Node199 -->
<g id="edge17" class="edge"><title>Node197&#45;&gt;Node199</title>
<path fill="none" stroke="midnightblue" d="M555.862,-240.956C547.923,-246.725 539.156,-253.094 532.164,-258.174"/>
<polygon fill="midnightblue" stroke="midnightblue" points="557.997,-243.731 564.03,-235.022 553.883,-238.068 557.997,-243.731"/>
</g>
<!-- Node198&#45;&gt;Node192 -->
<g id="edge16" class="edge"><title>Node198&#45;&gt;Node192</title>
<path fill="none" stroke="midnightblue" d="M542.854,-451.802C487.318,-463.078 406.517,-479.483 373.216,-486.244"/>
<polygon fill="midnightblue" stroke="midnightblue" points="543.809,-455.18 552.913,-449.76 542.416,-448.32 543.809,-455.18"/>
</g>
<!-- Node199&#45;&gt;Node189 -->
<g id="edge18" class="edge"><title>Node199&#45;&gt;Node189</title>
<path fill="none" stroke="midnightblue" d="M483.095,-273.897C469.722,-276.191 455.069,-278.704 443.793,-280.638"/>
<polygon fill="midnightblue" stroke="midnightblue" points="483.731,-277.339 492.995,-272.199 482.547,-270.44 483.731,-277.339"/>
</g>
<!-- Node201 -->
<g id="node18" class="node"><title>Node201</title>
<g id="a_node18"><a xlink:href="density_8c.html#a146d61fe2d2f53ea9b7fabf2ea5e90b7" target="_top" xlink:title="density_ngbiter">
<polygon fill="white" stroke="black" points="642.707,-283.002 642.707,-302.002 725.707,-302.002 725.707,-283.002 642.707,-283.002"/>
<text text-anchor="middle" x="684.207" y="-290.002" font-family="Helvetica,sans-Serif" font-size="10.00">density_ngbiter</text>
</a>
</g>
</g>
<!-- Node200&#45;&gt;Node201 -->
<g id="edge22" class="edge"><title>Node200&#45;&gt;Node201</title>
<path fill="none" stroke="midnightblue" d="M642.102,-301.451C642.257,-301.418 642.413,-301.385 642.568,-301.352"/>
<polygon fill="midnightblue" stroke="midnightblue" points="644.347,-297.396 635.293,-302.899 645.802,-304.243 644.347,-297.396"/>
</g>
<!-- Node207 -->
<g id="node24" class="node"><title>Node207</title>
<g id="a_node24"><a xlink:href="lightcone_8c.html#a7fdea7b197fee74242ceb6a86a63bae3" target="_top" xlink:title="lightcone_init_entry">
<polygon fill="white" stroke="black" points="496,-93.465 496,-112.465 597,-112.465 597,-93.465 496,-93.465"/>
<text text-anchor="middle" x="546.5" y="-100.465" font-family="Helvetica,sans-Serif" font-size="10.00">lightcone_init_entry</text>
</a>
</g>
</g>
<!-- Node200&#45;&gt;Node207 -->
<g id="edge31" class="edge"><title>Node200&#45;&gt;Node207</title>
<path fill="none" stroke="midnightblue" d="M607.425,-288.156C593.398,-245.519 560.203,-144.616 549.726,-112.772"/>
<polygon fill="midnightblue" stroke="midnightblue" points="604.175,-289.477 610.625,-297.882 610.825,-287.289 604.175,-289.477"/>
</g>
<!-- Node209 -->
<g id="node26" class="node"><title>Node209</title>
<g id="a_node26"><a xlink:href="param_8h.html#a952eae1977b498c4fdfabed1742a3ba2" target="_top" xlink:title="read_parameter_file">
<polygon fill="white" stroke="black" points="492.353,-312.941 492.353,-331.941 594.353,-331.941 594.353,-312.941 492.353,-312.941"/>
<text text-anchor="middle" x="543.353" y="-319.941" font-family="Helvetica,sans-Serif" font-size="10.00">read_parameter_file</text>
</a>
</g>
</g>
<!-- Node200&#45;&gt;Node209 -->
<g id="edge34" class="edge"><title>Node200&#45;&gt;Node209</title>
<path fill="none" stroke="midnightblue" d="M588.32,-312.883C588.231,-312.902 588.142,-312.921 588.052,-312.94"/>
<polygon fill="midnightblue" stroke="midnightblue" points="583.213,-317.547 592.267,-312.044 581.758,-310.7 583.213,-317.547"/>
</g>
<!-- Node202 -->
<g id="node19" class="node"><title>Node202</title>
<g id="a_node19"><a xlink:href="density_8c.html#a69886540d0642590a0022fc14ce61f06" target="_top" xlink:title="density_internal">
<polygon fill="white" stroke="black" points="712.133,-417.729 712.133,-436.729 797.133,-436.729 797.133,-417.729 712.133,-417.729"/>
<text text-anchor="middle" x="754.633" y="-424.729" font-family="Helvetica,sans-Serif" font-size="10.00">density_internal</text>
</a>
</g>
</g>
<!-- Node201&#45;&gt;Node202 -->
<g id="edge23" class="edge"><title>Node201&#45;&gt;Node202</title>
<path fill="none" stroke="midnightblue" d="M694.047,-311.327C709.284,-340.476 738.036,-395.477 749.614,-417.627"/>
<polygon fill="midnightblue" stroke="midnightblue" points="697.006,-309.432 689.271,-302.191 690.802,-312.675 697.006,-309.432"/>
</g>
<!-- Node203 -->
<g id="node20" class="node"><title>Node203</title>
<g id="a_node20"><a xlink:href="proto_8h.html#a8ce8ad3893801ac7d380efd9b7ef26d3" target="_top" xlink:title="density">
<polygon fill="white" stroke="black" points="660.207,-402.759 660.207,-421.759 708.207,-421.759 708.207,-402.759 660.207,-402.759"/>
<text text-anchor="middle" x="684.207" y="-409.759" font-family="Helvetica,sans-Serif" font-size="10.00">density</text>
</a>
</g>
</g>
<!-- Node202&#45;&gt;Node203 -->
<g id="edge24" class="edge"><title>Node202&#45;&gt;Node203</title>
<path fill="none" stroke="midnightblue" d="M708.731,-417.472C708.575,-417.439 708.42,-417.406 708.265,-417.373"/>
<polygon fill="midnightblue" stroke="midnightblue" points="701.532,-419.519 712.041,-418.175 702.987,-412.672 701.532,-419.519"/>
</g>
<!-- Node206 -->
<g id="node23" class="node"><title>Node206</title>
<g id="a_node23"><a xlink:href="proto_8h.html#a137ca78a0bd40fa7a75438e90e4f66a8" target="_top" xlink:title="density_update">
<polygon fill="white" stroke="black" points="249.754,-0.5 249.754,-19.5 332.754,-19.5 332.754,-0.5 249.754,-0.5"/>
<text text-anchor="middle" x="291.254" y="-7.5" font-family="Helvetica,sans-Serif" font-size="10.00">density_update</text>
</a>
</g>
</g>
<!-- Node202&#45;&gt;Node206 -->
<g id="edge29" class="edge"><title>Node202&#45;&gt;Node206</title>
<path fill="none" stroke="midnightblue" d="M736.056,-410.502C658.538,-340.704 362.109,-73.7983 301.945,-19.626"/>
<polygon fill="midnightblue" stroke="midnightblue" points="733.862,-413.236 743.636,-417.327 738.546,-408.034 733.862,-413.236"/>
</g>
<!-- Node203&#45;&gt;Node198 -->
<g id="edge28" class="edge"><title>Node203&#45;&gt;Node198</title>
<path fill="none" stroke="midnightblue" d="M650.303,-423.5C643.127,-425.879 635.618,-428.369 628.651,-430.678"/>
<polygon fill="midnightblue" stroke="midnightblue" points="651.41,-426.82 659.8,-420.351 649.207,-420.176 651.41,-426.82"/>
</g>
<!-- Node204 -->
<g id="node21" class="node"><title>Node204</title>
<g id="a_node21"><a xlink:href="init_8c.html#a643ef34b585446f8ccbbf3239df2db71" target="_top" xlink:title="setup_smoothinglengths">
<polygon fill="white" stroke="black" points="252.503,-68.9761 252.503,-87.9761 374.503,-87.9761 374.503,-68.9761 252.503,-68.9761"/>
<text text-anchor="middle" x="313.503" y="-75.9761" font-family="Helvetica,sans-Serif" font-size="10.00">setup_smoothinglengths</text>
</a>
</g>
</g>
<!-- Node203&#45;&gt;Node204 -->
<g id="edge25" class="edge"><title>Node203&#45;&gt;Node204</title>
<path fill="none" stroke="midnightblue" d="M665.96,-395.83C600.131,-336.557 376.022,-134.769 324.241,-88.1446"/>
<polygon fill="midnightblue" stroke="midnightblue" points="663.738,-398.539 673.512,-402.629 668.422,-393.337 663.738,-398.539"/>
</g>
<!-- Node205 -->
<g id="node22" class="node"><title>Node205</title>
<g id="a_node22"><a xlink:href="proto_8h.html#ab080cb20bac2a1a6153a84e8cfd15374" target="_top" xlink:title="init">
<polygon fill="white" stroke="black" points="365.422,-128.064 365.422,-147.064 394.422,-147.064 394.422,-128.064 365.422,-128.064"/>
<text text-anchor="middle" x="379.922" y="-135.064" font-family="Helvetica,sans-Serif" font-size="10.00">init</text>
</a>
</g>
</g>
<!-- Node204&#45;&gt;Node205 -->
<g id="edge26" class="edge"><title>Node204&#45;&gt;Node205</title>
<path fill="none" stroke="midnightblue" d="M332.138,-95.0544C344.084,-105.682 359.168,-119.101 369.158,-127.988"/>
<polygon fill="midnightblue" stroke="midnightblue" points="334.269,-92.2649 324.471,-88.2332 329.616,-97.4949 334.269,-92.2649"/>
</g>
<!-- Node205&#45;&gt;Node188 -->
<g id="edge27" class="edge"><title>Node205&#45;&gt;Node188</title>
<path fill="none" stroke="midnightblue" d="M381.987,-157.213C383.438,-171.022 385.316,-188.888 386.449,-199.665"/>
<polygon fill="midnightblue" stroke="midnightblue" points="385.463,-156.8 380.937,-147.221 378.501,-157.532 385.463,-156.8"/>
</g>
<!-- Node206&#45;&gt;Node204 -->
<g id="edge30" class="edge"><title>Node206&#45;&gt;Node204</title>
<path fill="none" stroke="midnightblue" d="M297.508,-29.2481C301.668,-42.0523 306.961,-58.3415 310.292,-68.5922"/>
<polygon fill="midnightblue" stroke="midnightblue" points="300.766,-27.9503 294.348,-19.5213 294.109,-30.1135 300.766,-27.9503"/>
</g>
<!-- Node208 -->
<g id="node25" class="node"><title>Node208</title>
<g id="a_node25"><a xlink:href="lightcone_8c.html#a3efc2e9b2e1cb0b9abf7e86d27e3e900" target="_top" xlink:title="lightcone_init">
<polygon fill="white" stroke="black" points="473.5,-155.819 473.5,-174.819 547.5,-174.819 547.5,-155.819 473.5,-155.819"/>
<text text-anchor="middle" x="510.5" y="-162.819" font-family="Helvetica,sans-Serif" font-size="10.00">lightcone_init</text>
</a>
</g>
</g>
<!-- Node207&#45;&gt;Node208 -->
<g id="edge32" class="edge"><title>Node207&#45;&gt;Node208</title>
<path fill="none" stroke="midnightblue" d="M535.721,-121.635C529.309,-132.741 521.432,-146.385 516.204,-155.439"/>
<polygon fill="midnightblue" stroke="midnightblue" points="538.906,-123.118 540.875,-112.708 532.844,-119.618 538.906,-123.118"/>
</g>
<!-- Node208&#45;&gt;Node188 -->
<g id="edge33" class="edge"><title>Node208&#45;&gt;Node188</title>
<path fill="none" stroke="midnightblue" d="M474.151,-178.272C453.657,-185.575 428.658,-194.484 410.778,-200.855"/>
<polygon fill="midnightblue" stroke="midnightblue" points="475.555,-181.488 483.8,-174.834 473.205,-174.894 475.555,-181.488"/>
</g>
<!-- Node209&#45;&gt;Node189 -->
<g id="edge35" class="edge"><title>Node209&#45;&gt;Node189</title>
<path fill="none" stroke="midnightblue" d="M504.446,-309.799C484.222,-303.228 460.395,-295.486 444.096,-290.19"/>
<polygon fill="midnightblue" stroke="midnightblue" points="503.443,-313.154 514.035,-312.915 505.606,-306.496 503.443,-313.154"/>
</g>
<!-- Node211 -->
<g id="node28" class="node"><title>Node211</title>
<g id="a_node28"><a xlink:href="timefac_8h.html#a1468eaf9ef1cf0a635ba6af56313074b" target="_top" xlink:title="init_drift_table">
<polygon fill="white" stroke="black" points="394.104,-56.458 394.104,-75.458 471.104,-75.458 471.104,-56.458 394.104,-56.458"/>
<text text-anchor="middle" x="432.604" y="-63.458" font-family="Helvetica,sans-Serif" font-size="10.00">init_drift_table</text>
</a>
</g>
</g>
<!-- Node210&#45;&gt;Node211 -->
<g id="edge37" class="edge"><title>Node210&#45;&gt;Node211</title>
<path fill="none" stroke="midnightblue" d="M170.763,-601.208C213.846,-513.138 395.725,-141.346 427.771,-75.8376"/>
<polygon fill="midnightblue" stroke="midnightblue" points="167.567,-599.777 166.317,-610.298 173.855,-602.853 167.567,-599.777"/>
</g>
<!-- Node211&#45;&gt;Node205 -->
<g id="edge38" class="edge"><title>Node211&#45;&gt;Node205</title>
<path fill="none" stroke="midnightblue" d="M419.34,-83.9863C409.037,-97.9902 395.157,-116.855 386.914,-128.06"/>
<polygon fill="midnightblue" stroke="midnightblue" points="422.392,-85.7441 425.499,-75.6151 416.754,-81.5958 422.392,-85.7441"/>
</g>
<!-- Node212&#45;&gt;Node211 -->
<g id="edge40" class="edge"><title>Node212&#45;&gt;Node211</title>
<path fill="none" stroke="midnightblue" d="M88.3318,-481.071C148.993,-407.928 378.715,-130.936 424.6,-75.6088"/>
<polygon fill="midnightblue" stroke="midnightblue" points="85.4856,-479.02 81.7959,-488.952 90.8737,-483.489 85.4856,-479.02"/>
</g>
<!-- Node213&#45;&gt;Node211 -->
<g id="edge42" class="edge"><title>Node213&#45;&gt;Node211</title>
<path fill="none" stroke="midnightblue" d="M63.6962,-336.818C134.647,-284.724 362.553,-117.391 419.576,-75.5236"/>
<polygon fill="midnightblue" stroke="midnightblue" points="61.4687,-334.111 55.4795,-342.851 65.6115,-339.753 61.4687,-334.111"/>
</g>
<!-- Node214&#45;&gt;Node192 -->
<g id="edge45" class="edge"><title>Node214&#45;&gt;Node192</title>
<path fill="none" stroke="midnightblue" d="M308.363,-501.027C320.893,-498.075 333.392,-495.13 342.713,-492.934"/>
<polygon fill="midnightblue" stroke="midnightblue" points="307.298,-497.682 298.367,-503.382 308.903,-504.495 307.298,-497.682"/>
</g>
<!-- Node214&#45;&gt;Node205 -->
<g id="edge44" class="edge"><title>Node214&#45;&gt;Node205</title>
<path fill="none" stroke="midnightblue" d="M264.326,-493.332C286.607,-424.757 360.68,-196.784 376.805,-147.155"/>
<polygon fill="midnightblue" stroke="midnightblue" points="260.866,-492.652 261.105,-503.244 267.524,-494.815 260.866,-492.652"/>
</g>
<!-- Node215 -->
<g id="node32" class="node"><title>Node215</title>
<g id="a_node32"><a xlink:href="sfr__eff_8c.html#a2d96bcfa1a035956535e5840d306744b" target="_top" xlink:title="cooling_direct">
<polygon fill="white" stroke="black" points="508,-592.296 508,-611.296 585,-611.296 585,-592.296 508,-592.296"/>
<text text-anchor="middle" x="546.5" y="-599.296" font-family="Helvetica,sans-Serif" font-size="10.00">cooling_direct</text>
</a>
</g>
</g>
<!-- Node214&#45;&gt;Node215 -->
<g id="edge46" class="edge"><title>Node214&#45;&gt;Node215</title>
<path fill="none" stroke="midnightblue" d="M298.454,-525.373C356.702,-543.319 462.902,-576.039 515.408,-592.216"/>
<polygon fill="midnightblue" stroke="midnightblue" points="299.433,-522.013 288.846,-522.413 297.372,-528.702 299.433,-522.013"/>
</g>
<!-- Node216 -->
<g id="node33" class="node"><title>Node216</title>
<g id="a_node33"><a xlink:href="sfr__eff_8c.html#aec2d4b18a02ca0bbca8111e41fae0248" target="_top" xlink:title="cool_postprocess">
<polygon fill="white" stroke="black" points="647.246,-554.483 647.246,-573.483 740.246,-573.483 740.246,-554.483 647.246,-554.483"/>
<text text-anchor="middle" x="693.746" y="-561.483" font-family="Helvetica,sans-Serif" font-size="10.00">cool_postprocess</text>
</a>
</g>
</g>
<!-- Node215&#45;&gt;Node216 -->
<g id="edge47" class="edge"><title>Node215&#45;&gt;Node216</title>
<path fill="none" stroke="midnightblue" d="M593.395,-589.753C613.82,-584.508 637.421,-578.447 656.602,-573.522"/>
<polygon fill="midnightblue" stroke="midnightblue" points="592.472,-586.377 583.656,-592.254 594.213,-593.157 592.472,-586.377"/>
</g>
<!-- Node217 -->
<g id="node34" class="node"><title>Node217</title>
<g id="a_node34"><a xlink:href="sfr__eff_8h.html#aaa7b178a168a5d23b2cfe478ebc58ee1" target="_top" xlink:title="cooling_only">
<polygon fill="white" stroke="black" points="599.997,-512.162 599.997,-531.162 670.997,-531.162 670.997,-512.162 599.997,-512.162"/>
<text text-anchor="middle" x="635.497" y="-519.162" font-family="Helvetica,sans-Serif" font-size="10.00">cooling_only</text>
</a>
</g>
</g>
<!-- Node216&#45;&gt;Node217 -->
<g id="edge48" class="edge"><title>Node216&#45;&gt;Node217</title>
<path fill="none" stroke="midnightblue" d="M672.361,-548.446C664.421,-542.677 655.654,-536.308 648.662,-531.228"/>
<polygon fill="midnightblue" stroke="midnightblue" points="670.381,-551.334 680.528,-554.38 674.496,-545.67 670.381,-551.334"/>
</g>
<!-- Node217&#45;&gt;Node198 -->
<g id="edge49" class="edge"><title>Node217&#45;&gt;Node198</title>
<path fill="none" stroke="midnightblue" d="M627.206,-502.736C619.96,-486.195 609.735,-462.855 604.052,-449.883"/>
<polygon fill="midnightblue" stroke="midnightblue" points="624.046,-504.247 631.265,-512.002 630.458,-501.438 624.046,-504.247"/>
</g>
</g>
</svg>
        <g id="navigator" transform="translate(0 0)" fill="#404254">
                <rect fill="#f2f5e9" fill-opacity="0.5" stroke="#606060" stroke-width=".5" x="0" y="0" width="60" height="60"/>
                <use id="zoomplus" xlink:href="#zoomPlus" x="17" y="9" onmousedown="handleZoom(evt,'in')"/>
                <use id="zoomminus" xlink:href="#zoomMin" x="42" y="9" onmousedown="handleZoom(evt,'out')"/>
                <use id="reset" xlink:href="#resetDef" x="30" y="36" onmousedown="handleReset()"/>
                <g id="arrowUp" xlink:href="#dirArrow" transform="translate(30 24)" onmousedown="handlePan(0,-1)">
                  <use xlink:href="#rim" fill="#404040">
                        <set attributeName="fill" to="#808080" begin="arrowUp.mouseover" end="arrowUp.mouseout"/>
                  </use>
                  <path fill="none" stroke="white" stroke-width="1.5" d="M0,-3.0v7 M-2.5,-0.5L0,-3.0L2.5,-0.5"/>
                </g>
                <g id="arrowRight" xlink:href="#dirArrow" transform="rotate(90) translate(36 -43)" onmousedown="handlePan(1,0)">
                  <use xlink:href="#rim" fill="#404040">
                        <set attributeName="fill" to="#808080" begin="arrowRight.mouseover" end="arrowRight.mouseout"/>
                  </use>
                  <path fill="none" stroke="white" stroke-width="1.5" d="M0,-3.0v7 M-2.5,-0.5L0,-3.0L2.5,-0.5"/>
                </g>
                <g id="arrowDown" xlink:href="#dirArrow" transform="rotate(180) translate(-30 -48)" onmousedown="handlePan(0,1)">
                  <use xlink:href="#rim" fill="#404040">
                        <set attributeName="fill" to="#808080" begin="arrowDown.mouseover" end="arrowDown.mouseout"/>
                  </use>
                  <path fill="none" stroke="white" stroke-width="1.5" d="M0,-3.0v7 M-2.5,-0.5L0,-3.0L2.5,-0.5"/>
                </g>
                <g id="arrowLeft" xlink:href="#dirArrow" transform="rotate(270) translate(-36 17)" onmousedown="handlePan(-1,0)">
                  <use xlink:href="#rim" fill="#404040">
                        <set attributeName="fill" to="#808080" begin="arrowLeft.mouseover" end="arrowLeft.mouseout"/>
                  </use>
                  <path fill="none" stroke="white" stroke-width="1.5" d="M0,-3.0v7 M-2.5,-0.5L0,-3.0L2.5,-0.5"/>
                </g>
        </g>
        <svg viewBox="0 0 15 15" width="100%" height="30px" preserveAspectRatio="xMaxYMin meet">
         <g id="arrow_out" transform="scale(0.3 0.3)">
          <a xlink:href="cosmology_8c_a54b21ed58c2038abf1c78cda8b5d4bf0_icgraph_org.svg" target="_base">
           <rect id="button" ry="5" rx="5" y="6" x="6" height="38" width="38"
                fill="#f2f5e9" fill-opacity="0.5" stroke="#606060" stroke-width="1.0"/>
           <path id="arrow"
             d="M 11.500037,31.436501 C 11.940474,20.09759 22.043105,11.32322 32.158766,21.979434 L 37.068811,17.246167 C 37.068811,17.246167 37.088388,32 37.088388,32 L 22.160133,31.978069 C 22.160133,31.978069 26.997745,27.140456 26.997745,27.140456 C 18.528582,18.264221 13.291696,25.230495 11.500037,31.436501 z"
             style="fill:#404040;"/>
          </a>
         </g>
        </svg>
</svg>
