<?xml version="1.0" encoding="UTF-8" standalone="no"?>
<!DOCTYPE svg PUBLIC "-//W3C//DTD SVG 1.1//EN"
 "http://www.w3.org/Graphics/SVG/1.1/DTD/svg11.dtd">
<!-- Generated by graphviz version 2.38.0 (20140413.2041)
 -->
<!-- Title: hubble_function Pages: 1 -->
<svg width="615pt" height="464pt"
 viewBox="0.00 0.00 614.50 464.48" xmlns="http://www.w3.org/2000/svg" xmlns:xlink="http://www.w3.org/1999/xlink">
<g id="graph0" class="graph" transform="scale(1 1) rotate(0) translate(4 460.477)">
<title>hubble_function</title>
<polygon fill="white" stroke="none" points="-4,4 -4,-460.477 610.5,-460.477 610.5,4 -4,4"/>
<!-- Node42 -->
<g id="node1" class="node"><title>Node42</title>
<polygon fill="#bfbfbf" stroke="black" points="325.5,-187.561 325.5,-206.561 410.5,-206.561 410.5,-187.561 325.5,-187.561"/>
<text text-anchor="middle" x="368" y="-194.561" font-family="Helvetica,sans-Serif" font-size="10.00">hubble_function</text>
</g>
<!-- Node43 -->
<g id="node2" class="node"><title>Node43</title>
<g id="a_node2"><a xlink:href="cosmology_8c.html#ace7ed7b8c64e751bc0210cc9bb0280b3" target="_top" xlink:title="growth">
<polygon fill="white" stroke="black" points="309,-249.915 309,-268.915 355,-268.915 355,-249.915 309,-249.915"/>
<text text-anchor="middle" x="332" y="-256.915" font-family="Helvetica,sans-Serif" font-size="10.00">growth</text>
</a>
</g>
</g>
<!-- Node42&#45;&gt;Node43 -->
<g id="edge1" class="edge"><title>Node42&#45;&gt;Node43</title>
<path fill="none" stroke="midnightblue" d="M362.375,-206.804C357.175,-215.811 349.303,-229.445 342.877,-240.576"/>
<polygon fill="midnightblue" stroke="midnightblue" points="339.673,-239.125 337.704,-249.535 345.735,-242.625 339.673,-239.125"/>
</g>
<!-- Node50 -->
<g id="node9" class="node"><title>Node50</title>
<g id="a_node9"><a xlink:href="cosmology_8c.html#a54b21ed58c2038abf1c78cda8b5d4bf0" target="_top" xlink:title="OmegaFLD">
<polygon fill="white" stroke="black" points="370.5,-125.208 370.5,-144.208 437.5,-144.208 437.5,-125.208 370.5,-125.208"/>
<text text-anchor="middle" x="404" y="-132.208" font-family="Helvetica,sans-Serif" font-size="10.00">OmegaFLD</text>
</a>
</g>
</g>
<!-- Node42&#45;&gt;Node50 -->
<g id="edge11" class="edge"><title>Node42&#45;&gt;Node50</title>
<path fill="none" stroke="midnightblue" d="M373.625,-187.319C378.825,-178.312 386.697,-164.678 393.123,-153.547"/>
<polygon fill="midnightblue" stroke="midnightblue" points="396.327,-154.998 398.296,-144.588 390.265,-151.498 396.327,-154.998"/>
</g>
<!-- Node44 -->
<g id="node3" class="node"><title>Node44</title>
<g id="a_node3"><a xlink:href="endrun_8c.html#ad963d7efdb9f10f7a2298c8ccd222ab0" target="_top" xlink:title="endrun">
<polygon fill="white" stroke="black" points="273,-312.269 273,-331.269 319,-331.269 319,-312.269 273,-312.269"/>
<text text-anchor="middle" x="296" y="-319.269" font-family="Helvetica,sans-Serif" font-size="10.00">endrun</text>
</a>
</g>
</g>
<!-- Node43&#45;&gt;Node44 -->
<g id="edge2" class="edge"><title>Node43&#45;&gt;Node44</title>
<path fill="none" stroke="midnightblue" d="M326.375,-269.158C321.175,-278.165 313.303,-291.799 306.877,-302.93"/>
<polygon fill="midnightblue" stroke="midnightblue" points="303.673,-301.479 301.704,-311.889 309.735,-304.979 303.673,-301.479"/>
</g>
<!-- Node48 -->
<g id="node7" class="node"><title>Node48</title>
<g id="a_node7"><a xlink:href="cosmology_8c.html#af1fe52807a376f35b61e9db09f4135ae" target="_top" xlink:title="growth_ode">
<polygon fill="white" stroke="black" points="442.5,-0.5 442.5,-19.5 509.5,-19.5 509.5,-0.5 442.5,-0.5"/>
<text text-anchor="middle" x="476" y="-7.5" font-family="Helvetica,sans-Serif" font-size="10.00">growth_ode</text>
</a>
</g>
</g>
<!-- Node43&#45;&gt;Node48 -->
<g id="edge6" class="edge"><title>Node43&#45;&gt;Node48</title>
<path fill="none" stroke="midnightblue" d="M337.645,-249.638C359.241,-212.233 436.836,-77.8345 465.372,-28.4082"/>
<polygon fill="midnightblue" stroke="midnightblue" points="468.425,-30.1201 470.394,-19.7098 462.363,-26.62 468.425,-30.1201"/>
</g>
<!-- Node49 -->
<g id="node8" class="node"><title>Node49</title>
<g id="a_node8"><a xlink:href="cosmology_8c.html#ac1d39b759a1cfef3faaaa8b46d75bc0a" target="_top" xlink:title="hubble_function">
<polygon fill="white" stroke="black" points="397.5,-62.8538 397.5,-81.8538 482.5,-81.8538 482.5,-62.8538 397.5,-62.8538"/>
<text text-anchor="middle" x="440" y="-69.8538" font-family="Helvetica,sans-Serif" font-size="10.00">hubble_function</text>
</a>
</g>
</g>
<!-- Node43&#45;&gt;Node49 -->
<g id="edge10" class="edge"><title>Node43&#45;&gt;Node49</title>
<path fill="none" stroke="midnightblue" d="M341.581,-249.72C363.53,-220.062 415.351,-130.725 433.766,-91.3094"/>
<polygon fill="midnightblue" stroke="midnightblue" points="437.031,-92.5793 437.857,-82.0167 430.624,-89.7586 437.031,-92.5793"/>
</g>
<!-- Node45 -->
<g id="node4" class="node"><title>Node45</title>
<g id="a_node4"><a xlink:href="endrun_8c.html#a7267113a7c0a094743bb565eabc695d1" target="_top" xlink:title="messagev">
<polygon fill="white" stroke="black" points="229,-374.623 229,-393.623 291,-393.623 291,-374.623 229,-374.623"/>
<text text-anchor="middle" x="260" y="-381.623" font-family="Helvetica,sans-Serif" font-size="10.00">messagev</text>
</a>
</g>
</g>
<!-- Node44&#45;&gt;Node45 -->
<g id="edge3" class="edge"><title>Node44&#45;&gt;Node45</title>
<path fill="none" stroke="midnightblue" d="M290.375,-331.512C285.175,-340.519 277.303,-354.153 270.877,-365.284"/>
<polygon fill="midnightblue" stroke="midnightblue" points="267.673,-363.833 265.704,-374.243 273.735,-367.333 267.673,-363.833"/>
</g>
<!-- Node46 -->
<g id="node5" class="node"><title>Node46</title>
<g id="a_node5"><a xlink:href="endrun_8c.html#a87108946670b4c3afbe846c6726675ff" target="_top" xlink:title="putline">
<polygon fill="white" stroke="black" points="561.5,-436.977 561.5,-455.977 606.5,-455.977 606.5,-436.977 561.5,-436.977"/>
<text text-anchor="middle" x="584" y="-443.977" font-family="Helvetica,sans-Serif" font-size="10.00">putline</text>
</a>
</g>
</g>
<!-- Node45&#45;&gt;Node46 -->
<g id="edge4" class="edge"><title>Node45&#45;&gt;Node46</title>
<path fill="none" stroke="midnightblue" d="M291.066,-390.102C352.454,-401.916 488.762,-428.148 551.386,-440.2"/>
<polygon fill="midnightblue" stroke="midnightblue" points="551.005,-443.691 561.486,-442.144 552.328,-436.817 551.005,-443.691"/>
</g>
<!-- Node47 -->
<g id="node6" class="node"><title>Node47</title>
<g id="a_node6"><a xlink:href="endrun_8c.html#a1200f02a595ab7cbe17c9e36ff32af0f" target="_top" xlink:title="show_backtrace">
<polygon fill="white" stroke="black" points="-2.84217e-14,-125.208 -2.84217e-14,-144.208 88,-144.208 88,-125.208 -2.84217e-14,-125.208"/>
<text text-anchor="middle" x="44" y="-132.208" font-family="Helvetica,sans-Serif" font-size="10.00">show_backtrace</text>
</a>
</g>
</g>
<!-- Node45&#45;&gt;Node47 -->
<g id="edge5" class="edge"><title>Node45&#45;&gt;Node47</title>
<path fill="none" stroke="midnightblue" d="M251.533,-374.346C218.936,-336.707 101.288,-200.858 59.148,-152.199"/>
<polygon fill="midnightblue" stroke="midnightblue" points="61.6012,-149.685 52.4089,-144.417 56.3097,-154.268 61.6012,-149.685"/>
</g>
<!-- Node48&#45;&gt;Node49 -->
<g id="edge7" class="edge"><title>Node48&#45;&gt;Node49</title>
<path fill="none" stroke="midnightblue" d="M470.375,-19.7428C465.175,-28.75 457.303,-42.3834 450.877,-53.5148"/>
<polygon fill="midnightblue" stroke="midnightblue" points="447.673,-52.0634 445.704,-62.4737 453.735,-55.5634 447.673,-52.0634"/>
</g>
<!-- Node49&#45;&gt;Node43 -->
<g id="edge8" class="edge"><title>Node49&#45;&gt;Node43</title>
<path fill="none" stroke="midnightblue" d="M430.419,-82.0488C408.47,-111.707 356.649,-201.044 338.234,-240.46"/>
<polygon fill="midnightblue" stroke="midnightblue" points="334.969,-239.19 334.143,-249.752 341.376,-242.011 334.969,-239.19"/>
</g>
<!-- Node49&#45;&gt;Node50 -->
<g id="edge9" class="edge"><title>Node49&#45;&gt;Node50</title>
<path fill="none" stroke="midnightblue" d="M434.375,-82.0966C429.175,-91.1038 421.303,-104.737 414.877,-115.869"/>
<polygon fill="midnightblue" stroke="midnightblue" points="411.673,-114.417 409.704,-124.828 417.735,-117.917 411.673,-114.417"/>
</g>
</g>
</svg>
