<?xml version="1.0" encoding="UTF-8" standalone="no"?>
<!DOCTYPE svg PUBLIC "-//W3C//DTD SVG 1.1//EN"
 "http://www.w3.org/Graphics/SVG/1.1/DTD/svg11.dtd">
<!-- Generated by graphviz version 2.38.0 (20140413.2041)
 -->
<!-- Title: density.c Pages: 1 -->
<svg width="565pt" height="693pt"
 viewBox="0.00 0.00 565.00 693.00" xmlns="http://www.w3.org/2000/svg" xmlns:xlink="http://www.w3.org/1999/xlink">
<g id="graph0" class="graph" transform="scale(1 1) rotate(0) translate(4 689)">
<title>density.c</title>
<polygon fill="white" stroke="none" points="-4,4 -4,-689 561,-689 561,4 -4,4"/>
<!-- Node0 -->
<g id="node1" class="node"><title>Node0</title>
<polygon fill="#bfbfbf" stroke="black" points="0,-266.5 0,-285.5 56,-285.5 56,-266.5 0,-266.5"/>
<text text-anchor="middle" x="28" y="-273.5" font-family="Helvetica,sans-Serif" font-size="10.00">density.c</text>
</g>
<!-- Node1 -->
<g id="node2" class="node"><title>Node1</title>
<polygon fill="white" stroke="#bfbfbf" points="341.5,-361.5 341.5,-380.5 382.5,-380.5 382.5,-361.5 341.5,-361.5"/>
<text text-anchor="middle" x="362" y="-368.5" font-family="Helvetica,sans-Serif" font-size="10.00">mpi.h</text>
</g>
<!-- Node0&#45;&gt;Node1 -->
<g id="edge1" class="edge"><title>Node0&#45;&gt;Node1</title>
<path fill="none" stroke="midnightblue" d="M30.1288,-285.644C33.7009,-311.215 47.3091,-380.718 92,-409 166.361,-456.058 204.643,-430.405 290,-409 307.739,-404.551 325.888,-394.727 339.396,-386.182"/>
<polygon fill="midnightblue" stroke="midnightblue" points="341.518,-388.976 347.944,-380.553 337.668,-383.13 341.518,-388.976"/>
</g>
<!-- Node2 -->
<g id="node3" class="node"><title>Node2</title>
<polygon fill="white" stroke="#bfbfbf" points="339,-665.5 339,-684.5 385,-684.5 385,-665.5 339,-665.5"/>
<text text-anchor="middle" x="362" y="-672.5" font-family="Helvetica,sans-Serif" font-size="10.00">stdio.h</text>
</g>
<!-- Node0&#45;&gt;Node2 -->
<g id="edge2" class="edge"><title>Node0&#45;&gt;Node2</title>
<path fill="none" stroke="midnightblue" d="M29.1146,-285.624C29.9887,-319.94 37.0439,-438.189 92,-512 154.142,-595.463 272.82,-644.987 329.435,-664.853"/>
<polygon fill="midnightblue" stroke="midnightblue" points="328.341,-668.178 338.935,-668.112 330.612,-661.557 328.341,-668.178"/>
</g>
<!-- Node3 -->
<g id="node4" class="node"><title>Node3</title>
<polygon fill="white" stroke="#bfbfbf" points="109.5,-342.5 109.5,-361.5 157.5,-361.5 157.5,-342.5 109.5,-342.5"/>
<text text-anchor="middle" x="133.5" y="-349.5" font-family="Helvetica,sans-Serif" font-size="10.00">stdlib.h</text>
</g>
<!-- Node0&#45;&gt;Node3 -->
<g id="edge3" class="edge"><title>Node0&#45;&gt;Node3</title>
<path fill="none" stroke="midnightblue" d="M38.0751,-285.845C49.6993,-298.047 70.8777,-318.948 92,-333 94.5683,-334.709 97.3146,-336.345 100.122,-337.889"/>
<polygon fill="midnightblue" stroke="midnightblue" points="98.6533,-341.069 109.153,-342.488 101.83,-334.831 98.6533,-341.069"/>
</g>
<!-- Node4 -->
<g id="node5" class="node"><title>Node4</title>
<polygon fill="white" stroke="#bfbfbf" points="109,-304.5 109,-323.5 158,-323.5 158,-304.5 109,-304.5"/>
<text text-anchor="middle" x="133.5" y="-311.5" font-family="Helvetica,sans-Serif" font-size="10.00">string.h</text>
</g>
<!-- Node0&#45;&gt;Node4 -->
<g id="edge4" class="edge"><title>Node0&#45;&gt;Node4</title>
<path fill="none" stroke="midnightblue" d="M55.1174,-285.589C68.5466,-290.52 85.0567,-296.581 99.3728,-301.837"/>
<polygon fill="midnightblue" stroke="midnightblue" points="98.2749,-305.163 108.869,-305.324 100.688,-298.592 98.2749,-305.163"/>
</g>
<!-- Node5 -->
<g id="node6" class="node"><title>Node5</title>
<polygon fill="white" stroke="#bfbfbf" points="110,-266.5 110,-285.5 157,-285.5 157,-266.5 110,-266.5"/>
<text text-anchor="middle" x="133.5" y="-273.5" font-family="Helvetica,sans-Serif" font-size="10.00">math.h</text>
</g>
<!-- Node0&#45;&gt;Node5 -->
<g id="edge5" class="edge"><title>Node0&#45;&gt;Node5</title>
<path fill="none" stroke="midnightblue" d="M56.1934,-276C69.4616,-276 85.5335,-276 99.4989,-276"/>
<polygon fill="midnightblue" stroke="midnightblue" points="99.6864,-279.5 109.686,-276 99.6864,-272.5 99.6864,-279.5"/>
</g>
<!-- Node6 -->
<g id="node7" class="node"><title>Node6</title>
<polygon fill="white" stroke="#bfbfbf" points="93.5,-228.5 93.5,-247.5 173.5,-247.5 173.5,-228.5 93.5,-228.5"/>
<text text-anchor="middle" x="133.5" y="-235.5" font-family="Helvetica,sans-Serif" font-size="10.00">gsl/gsl_math.h</text>
</g>
<!-- Node0&#45;&gt;Node6 -->
<g id="edge6" class="edge"><title>Node0&#45;&gt;Node6</title>
<path fill="none" stroke="midnightblue" d="M55.1174,-266.411C67.7428,-261.776 83.0914,-256.14 96.7798,-251.115"/>
<polygon fill="midnightblue" stroke="midnightblue" points="98.2099,-254.318 106.391,-247.586 95.7973,-247.747 98.2099,-254.318"/>
</g>
<!-- Node7 -->
<g id="node8" class="node"><title>Node7</title>
<g id="a_node8"><a xlink:href="allvars_8h.html" target="_top" xlink:title="declares global variables. ">
<polygon fill="white" stroke="black" points="224,-494.5 224,-513.5 277,-513.5 277,-494.5 224,-494.5"/>
<text text-anchor="middle" x="250.5" y="-501.5" font-family="Helvetica,sans-Serif" font-size="10.00">allvars.h</text>
</a>
</g>
</g>
<!-- Node0&#45;&gt;Node7 -->
<g id="edge7" class="edge"><title>Node0&#45;&gt;Node7</title>
<path fill="none" stroke="midnightblue" d="M28.5443,-285.855C27.5684,-319.749 29.3407,-432.326 92,-485 125.626,-513.268 178.491,-513.687 213.567,-509.986"/>
<polygon fill="midnightblue" stroke="midnightblue" points="214.339,-513.418 223.841,-508.732 213.491,-506.47 214.339,-513.418"/>
</g>
<!-- Node18 -->
<g id="node19" class="node"><title>Node18</title>
<g id="a_node19"><a xlink:href="cooling_8h.html" target="_top" xlink:title="cooling.h">
<polygon fill="white" stroke="black" points="105.5,-190.5 105.5,-209.5 161.5,-209.5 161.5,-190.5 105.5,-190.5"/>
<text text-anchor="middle" x="133.5" y="-197.5" font-family="Helvetica,sans-Serif" font-size="10.00">cooling.h</text>
</a>
</g>
</g>
<!-- Node0&#45;&gt;Node18 -->
<g id="edge20" class="edge"><title>Node0&#45;&gt;Node18</title>
<path fill="none" stroke="midnightblue" d="M38.0751,-266.155C49.6993,-253.953 70.8777,-233.052 92,-219 94.5683,-217.291 97.3146,-215.655 100.122,-214.111"/>
<polygon fill="midnightblue" stroke="midnightblue" points="101.83,-217.169 109.153,-209.512 98.6533,-210.931 101.83,-217.169"/>
</g>
<!-- Node19 -->
<g id="node20" class="node"><title>Node19</title>
<g id="a_node20"><a xlink:href="densitykernel_8h.html" target="_top" xlink:title="densitykernel.h">
<polygon fill="white" stroke="black" points="92,-152.5 92,-171.5 175,-171.5 175,-152.5 92,-152.5"/>
<text text-anchor="middle" x="133.5" y="-159.5" font-family="Helvetica,sans-Serif" font-size="10.00">densitykernel.h</text>
</a>
</g>
</g>
<!-- Node0&#45;&gt;Node19 -->
<g id="edge21" class="edge"><title>Node0&#45;&gt;Node19</title>
<path fill="none" stroke="midnightblue" d="M33.1811,-266.396C41.741,-247.706 62.9329,-206.082 92,-181 93.7199,-179.516 95.5755,-178.123 97.5133,-176.82"/>
<polygon fill="midnightblue" stroke="midnightblue" points="99.4811,-179.724 106.37,-171.675 95.965,-173.671 99.4811,-179.724"/>
</g>
<!-- Node20 -->
<g id="node21" class="node"><title>Node20</title>
<g id="a_node21"><a xlink:href="treewalk_8h.html" target="_top" xlink:title="treewalk.h">
<polygon fill="white" stroke="black" points="102.5,-456.5 102.5,-475.5 164.5,-475.5 164.5,-456.5 102.5,-456.5"/>
<text text-anchor="middle" x="133.5" y="-463.5" font-family="Helvetica,sans-Serif" font-size="10.00">treewalk.h</text>
</a>
</g>
</g>
<!-- Node0&#45;&gt;Node20 -->
<g id="edge22" class="edge"><title>Node0&#45;&gt;Node20</title>
<path fill="none" stroke="midnightblue" d="M30.3976,-285.746C34.7827,-313.254 50.5319,-392.696 92,-442 94.7816,-445.307 98.1419,-448.272 101.723,-450.895"/>
<polygon fill="midnightblue" stroke="midnightblue" points="100.003,-453.95 110.312,-456.395 103.778,-448.055 100.003,-453.95"/>
</g>
<!-- Node21 -->
<g id="node22" class="node"><title>Node21</title>
<g id="a_node22"><a xlink:href="mymalloc_8h.html" target="_top" xlink:title="mymalloc.h">
<polygon fill="white" stroke="black" points="100,-114.5 100,-133.5 167,-133.5 167,-114.5 100,-114.5"/>
<text text-anchor="middle" x="133.5" y="-121.5" font-family="Helvetica,sans-Serif" font-size="10.00">mymalloc.h</text>
</a>
</g>
</g>
<!-- Node0&#45;&gt;Node21 -->
<g id="edge25" class="edge"><title>Node0&#45;&gt;Node21</title>
<path fill="none" stroke="midnightblue" d="M31.1717,-266.32C36.994,-242.401 55.076,-179.787 92,-143 93.403,-141.602 94.9284,-140.294 96.5377,-139.072"/>
<polygon fill="midnightblue" stroke="midnightblue" points="98.5219,-141.959 105.108,-133.66 94.7839,-136.041 98.5219,-141.959"/>
</g>
<!-- Node23 -->
<g id="node24" class="node"><title>Node23</title>
<g id="a_node24"><a xlink:href="slotsmanager_8h.html" target="_top" xlink:title="slotsmanager.h">
<polygon fill="white" stroke="black" points="92,-380.5 92,-399.5 175,-399.5 175,-380.5 92,-380.5"/>
<text text-anchor="middle" x="133.5" y="-387.5" font-family="Helvetica,sans-Serif" font-size="10.00">slotsmanager.h</text>
</a>
</g>
</g>
<!-- Node0&#45;&gt;Node23 -->
<g id="edge27" class="edge"><title>Node0&#45;&gt;Node23</title>
<path fill="none" stroke="midnightblue" d="M33.1811,-285.604C41.741,-304.294 62.9329,-345.918 92,-371 93.7199,-372.484 95.5755,-373.877 97.5133,-375.18"/>
<polygon fill="midnightblue" stroke="midnightblue" points="95.965,-378.329 106.37,-380.325 99.4811,-372.276 95.965,-378.329"/>
</g>
<!-- Node28 -->
<g id="node29" class="node"><title>Node28</title>
<g id="a_node29"><a xlink:href="endrun_8h.html" target="_top" xlink:title="endrun.h">
<polygon fill="white" stroke="black" points="106.5,-76.5 106.5,-95.5 160.5,-95.5 160.5,-76.5 106.5,-76.5"/>
<text text-anchor="middle" x="133.5" y="-83.5" font-family="Helvetica,sans-Serif" font-size="10.00">endrun.h</text>
</a>
</g>
</g>
<!-- Node0&#45;&gt;Node28 -->
<g id="edge37" class="edge"><title>Node0&#45;&gt;Node28</title>
<path fill="none" stroke="midnightblue" d="M30.0197,-266.162C33.4613,-237.659 47.0743,-153.949 92,-105 93.5788,-103.28 95.3452,-101.702 97.2336,-100.256"/>
<polygon fill="midnightblue" stroke="midnightblue" points="99.4546,-102.996 106.088,-94.7348 95.7509,-97.0558 99.4546,-102.996"/>
</g>
<!-- Node29 -->
<g id="node30" class="node"><title>Node29</title>
<g id="a_node30"><a xlink:href="timestep_8h.html" target="_top" xlink:title="timestep.h">
<polygon fill="white" stroke="black" points="102.5,-38.5 102.5,-57.5 164.5,-57.5 164.5,-38.5 102.5,-38.5"/>
<text text-anchor="middle" x="133.5" y="-45.5" font-family="Helvetica,sans-Serif" font-size="10.00">timestep.h</text>
</a>
</g>
</g>
<!-- Node0&#45;&gt;Node29 -->
<g id="edge38" class="edge"><title>Node0&#45;&gt;Node29</title>
<path fill="none" stroke="midnightblue" d="M29.2317,-266.379C30.503,-234.166 38.7373,-128.66 92,-67 93.0154,-65.8245 94.1193,-64.7167 95.2918,-63.6733"/>
<polygon fill="midnightblue" stroke="midnightblue" points="97.6436,-66.2983 103.811,-57.6837 93.6177,-60.5718 97.6436,-66.2983"/>
</g>
<!-- Node31 -->
<g id="node32" class="node"><title>Node31</title>
<g id="a_node32"><a xlink:href="system_8h.html" target="_top" xlink:title="system.h">
<polygon fill="white" stroke="black" points="105,-0.5 105,-19.5 162,-19.5 162,-0.5 105,-0.5"/>
<text text-anchor="middle" x="133.5" y="-7.5" font-family="Helvetica,sans-Serif" font-size="10.00">system.h</text>
</a>
</g>
</g>
<!-- Node0&#45;&gt;Node31 -->
<g id="edge40" class="edge"><title>Node0&#45;&gt;Node31</title>
<path fill="none" stroke="midnightblue" d="M28.6884,-266.203C28.0631,-230.186 30.5198,-103.349 92,-29 93.2992,-27.4289 94.7578,-25.9802 96.3294,-24.6453"/>
<polygon fill="midnightblue" stroke="midnightblue" points="98.5643,-27.3605 104.915,-18.88 94.6619,-21.5492 98.5643,-27.3605"/>
</g>
<!-- Node7&#45;&gt;Node1 -->
<g id="edge8" class="edge"><title>Node7&#45;&gt;Node1</title>
<path fill="none" stroke="midnightblue" d="M259.375,-494.435C277.596,-472.304 322.892,-417.287 346.369,-388.771"/>
<polygon fill="midnightblue" stroke="midnightblue" points="349.247,-390.782 352.901,-380.837 343.843,-386.333 349.247,-390.782"/>
</g>
<!-- Node7&#45;&gt;Node2 -->
<g id="edge9" class="edge"><title>Node7&#45;&gt;Node2</title>
<path fill="none" stroke="midnightblue" d="M255.266,-513.513C267.147,-543.186 304.334,-633.413 326,-656 327.364,-657.422 328.858,-658.763 330.437,-660.023"/>
<polygon fill="midnightblue" stroke="midnightblue" points="328.565,-662.982 338.818,-665.654 332.469,-657.172 328.565,-662.982"/>
</g>
<!-- Node8 -->
<g id="node9" class="node"><title>Node8</title>
<polygon fill="white" stroke="#bfbfbf" points="326,-437.5 326,-456.5 398,-456.5 398,-437.5 326,-437.5"/>
<text text-anchor="middle" x="362" y="-444.5" font-family="Helvetica,sans-Serif" font-size="10.00">gsl/gsl_rng.h</text>
</g>
<!-- Node7&#45;&gt;Node8 -->
<g id="edge10" class="edge"><title>Node7&#45;&gt;Node8</title>
<path fill="none" stroke="midnightblue" d="M270.075,-494.331C287.563,-485.227 313.964,-471.484 333.82,-461.149"/>
<polygon fill="midnightblue" stroke="midnightblue" points="335.445,-464.248 342.699,-456.526 332.213,-458.039 335.445,-464.248"/>
</g>
<!-- Node9 -->
<g id="node10" class="node"><title>Node9</title>
<polygon fill="white" stroke="#bfbfbf" points="337,-627.5 337,-646.5 387,-646.5 387,-627.5 337,-627.5"/>
<text text-anchor="middle" x="362" y="-634.5" font-family="Helvetica,sans-Serif" font-size="10.00">signal.h</text>
</g>
<!-- Node7&#45;&gt;Node9 -->
<g id="edge11" class="edge"><title>Node7&#45;&gt;Node9</title>
<path fill="none" stroke="midnightblue" d="M255.79,-513.696C265.576,-534.915 291.403,-586.114 326,-618 327.449,-619.335 329.009,-620.609 330.638,-621.818"/>
<polygon fill="midnightblue" stroke="midnightblue" points="328.853,-624.832 339.153,-627.311 332.647,-618.949 328.853,-624.832"/>
</g>
<!-- Node10 -->
<g id="node11" class="node"><title>Node10</title>
<g id="a_node11"><a xlink:href="cosmology_8h.html" target="_top" xlink:title="cosmology.h">
<polygon fill="white" stroke="black" points="326,-589.5 326,-608.5 398,-608.5 398,-589.5 326,-589.5"/>
<text text-anchor="middle" x="362" y="-596.5" font-family="Helvetica,sans-Serif" font-size="10.00">cosmology.h</text>
</a>
</g>
</g>
<!-- Node7&#45;&gt;Node10 -->
<g id="edge12" class="edge"><title>Node7&#45;&gt;Node10</title>
<path fill="none" stroke="midnightblue" d="M259.424,-513.795C272.247,-529.221 298.861,-559.524 326,-580 327.839,-581.387 329.791,-582.735 331.797,-584.03"/>
<polygon fill="midnightblue" stroke="midnightblue" points="330.358,-587.245 340.745,-589.332 333.926,-581.223 330.358,-587.245"/>
</g>
<!-- Node13 -->
<g id="node14" class="node"><title>Node13</title>
<g id="a_node14"><a xlink:href="walltime_8h.html" target="_top" xlink:title="walltime.h">
<polygon fill="white" stroke="black" points="331.5,-551.5 331.5,-570.5 392.5,-570.5 392.5,-551.5 331.5,-551.5"/>
<text text-anchor="middle" x="362" y="-558.5" font-family="Helvetica,sans-Serif" font-size="10.00">walltime.h</text>
</a>
</g>
</g>
<!-- Node7&#45;&gt;Node13 -->
<g id="edge15" class="edge"><title>Node7&#45;&gt;Node13</title>
<path fill="none" stroke="midnightblue" d="M270.075,-513.669C287.563,-522.773 313.964,-536.516 333.82,-546.851"/>
<polygon fill="midnightblue" stroke="midnightblue" points="332.213,-549.961 342.699,-551.474 335.445,-543.752 332.213,-549.961"/>
</g>
<!-- Node14 -->
<g id="node15" class="node"><title>Node14</title>
<polygon fill="white" stroke="#bfbfbf" points="336,-513.5 336,-532.5 388,-532.5 388,-513.5 336,-513.5"/>
<text text-anchor="middle" x="362" y="-520.5" font-family="Helvetica,sans-Serif" font-size="10.00">assert.h</text>
</g>
<!-- Node7&#45;&gt;Node14 -->
<g id="edge16" class="edge"><title>Node7&#45;&gt;Node14</title>
<path fill="none" stroke="midnightblue" d="M277.173,-508.455C291.692,-510.974 310.055,-514.16 325.89,-516.908"/>
<polygon fill="midnightblue" stroke="midnightblue" points="325.414,-520.378 335.866,-518.639 326.611,-513.481 325.414,-520.378"/>
</g>
<!-- Node15 -->
<g id="node16" class="node"><title>Node15</title>
<g id="a_node16"><a xlink:href="physconst_8h.html" target="_top" xlink:title="physconst.h">
<polygon fill="white" stroke="black" points="327,-475.5 327,-494.5 397,-494.5 397,-475.5 327,-475.5"/>
<text text-anchor="middle" x="362" y="-482.5" font-family="Helvetica,sans-Serif" font-size="10.00">physconst.h</text>
</a>
</g>
</g>
<!-- Node7&#45;&gt;Node15 -->
<g id="edge17" class="edge"><title>Node7&#45;&gt;Node15</title>
<path fill="none" stroke="midnightblue" d="M277.173,-499.545C288.96,-497.5 303.28,-495.015 316.725,-492.682"/>
<polygon fill="midnightblue" stroke="midnightblue" points="317.525,-496.096 326.779,-490.938 316.328,-489.199 317.525,-496.096"/>
</g>
<!-- Node16 -->
<g id="node17" class="node"><title>Node16</title>
<g id="a_node17"><a xlink:href="types_8h.html" target="_top" xlink:title="types.h">
<polygon fill="white" stroke="black" points="337.5,-323.5 337.5,-342.5 386.5,-342.5 386.5,-323.5 337.5,-323.5"/>
<text text-anchor="middle" x="362" y="-330.5" font-family="Helvetica,sans-Serif" font-size="10.00">types.h</text>
</a>
</g>
</g>
<!-- Node7&#45;&gt;Node16 -->
<g id="edge18" class="edge"><title>Node7&#45;&gt;Node16</title>
<path fill="none" stroke="midnightblue" d="M255.266,-494.487C267.147,-464.814 304.334,-374.587 326,-352 327.217,-350.731 328.539,-349.526 329.931,-348.386"/>
<polygon fill="midnightblue" stroke="midnightblue" points="332.175,-351.091 338.453,-342.556 328.223,-345.313 332.175,-351.091"/>
</g>
<!-- Node11 -->
<g id="node12" class="node"><title>Node11</title>
<polygon fill="white" stroke="#bfbfbf" points="469.5,-453.5 469.5,-472.5 521.5,-472.5 521.5,-453.5 469.5,-453.5"/>
<text text-anchor="middle" x="495.5" y="-460.5" font-family="Helvetica,sans-Serif" font-size="10.00">stddef.h</text>
</g>
<!-- Node10&#45;&gt;Node11 -->
<g id="edge13" class="edge"><title>Node10&#45;&gt;Node11</title>
<path fill="none" stroke="midnightblue" d="M383.83,-589.394C388.713,-586.692 393.731,-583.518 398,-580 434.036,-550.305 466.455,-505.604 482.974,-480.938"/>
<polygon fill="midnightblue" stroke="midnightblue" points="485.928,-482.817 488.501,-472.539 480.08,-478.969 485.928,-482.817"/>
</g>
<!-- Node12 -->
<g id="node13" class="node"><title>Node12</title>
<polygon fill="white" stroke="#bfbfbf" points="434,-584 434,-614 557,-614 557,-584 434,-584"/>
<text text-anchor="start" x="442" y="-602" font-family="Helvetica,sans-Serif" font-size="10.00">kspace&#45;neutrinos/omega</text>
<text text-anchor="middle" x="495.5" y="-591" font-family="Helvetica,sans-Serif" font-size="10.00">_nu_single.h</text>
</g>
<!-- Node10&#45;&gt;Node12 -->
<g id="edge14" class="edge"><title>Node10&#45;&gt;Node12</title>
<path fill="none" stroke="midnightblue" d="M398.24,-599C406.199,-599 414.925,-599 423.772,-599"/>
<polygon fill="midnightblue" stroke="midnightblue" points="423.778,-602.5 433.778,-599 423.778,-595.5 423.778,-602.5"/>
</g>
<!-- Node17 -->
<g id="node18" class="node"><title>Node17</title>
<polygon fill="white" stroke="#bfbfbf" points="471,-323.5 471,-342.5 520,-342.5 520,-323.5 471,-323.5"/>
<text text-anchor="middle" x="495.5" y="-330.5" font-family="Helvetica,sans-Serif" font-size="10.00">stdint.h</text>
</g>
<!-- Node16&#45;&gt;Node17 -->
<g id="edge19" class="edge"><title>Node16&#45;&gt;Node17</title>
<path fill="none" stroke="midnightblue" d="M386.51,-333C407.138,-333 437.386,-333 460.626,-333"/>
<polygon fill="midnightblue" stroke="midnightblue" points="460.751,-336.5 470.751,-333 460.751,-329.5 460.751,-336.5"/>
</g>
<!-- Node20&#45;&gt;Node7 -->
<g id="edge24" class="edge"><title>Node20&#45;&gt;Node7</title>
<path fill="none" stroke="midnightblue" d="M163.519,-475.589C178.838,-480.651 197.764,-486.905 213.957,-492.255"/>
<polygon fill="midnightblue" stroke="midnightblue" points="213.036,-495.637 223.629,-495.451 215.232,-488.991 213.036,-495.637"/>
</g>
<!-- Node20&#45;&gt;Node17 -->
<g id="edge23" class="edge"><title>Node20&#45;&gt;Node17</title>
<path fill="none" stroke="midnightblue" d="M164.692,-461.16C196.306,-455.73 247.21,-445.956 290,-433 339.448,-418.028 351.619,-412.761 398,-390 423.819,-377.329 451.994,-360.288 471.197,-348.147"/>
<polygon fill="midnightblue" stroke="midnightblue" points="473.307,-350.952 479.853,-342.621 469.541,-345.052 473.307,-350.952"/>
</g>
<!-- Node22 -->
<g id="node23" class="node"><title>Node22</title>
<g id="a_node23"><a xlink:href="memory_8h.html" target="_top" xlink:title="memory.h">
<polygon fill="white" stroke="black" points="220.5,-114.5 220.5,-133.5 280.5,-133.5 280.5,-114.5 220.5,-114.5"/>
<text text-anchor="middle" x="250.5" y="-121.5" font-family="Helvetica,sans-Serif" font-size="10.00">memory.h</text>
</a>
</g>
</g>
<!-- Node21&#45;&gt;Node22 -->
<g id="edge26" class="edge"><title>Node21&#45;&gt;Node22</title>
<path fill="none" stroke="midnightblue" d="M167.147,-124C180.482,-124 196.025,-124 209.993,-124"/>
<polygon fill="midnightblue" stroke="midnightblue" points="210.304,-127.5 220.304,-124 210.304,-120.5 210.304,-127.5"/>
</g>
<!-- Node23&#45;&gt;Node1 -->
<g id="edge28" class="edge"><title>Node23&#45;&gt;Node1</title>
<path fill="none" stroke="midnightblue" d="M165.444,-380.495C179.242,-376.73 195.786,-372.861 211,-371 252.439,-365.931 300.801,-367.211 331.165,-368.875"/>
<polygon fill="midnightblue" stroke="midnightblue" points="331.299,-372.39 341.491,-369.495 331.719,-365.402 331.299,-372.39"/>
</g>
<!-- Node23&#45;&gt;Node16 -->
<g id="edge30" class="edge"><title>Node23&#45;&gt;Node16</title>
<path fill="none" stroke="midnightblue" d="M160.104,-380.411C174.849,-375.113 193.81,-368.678 211,-364 250.478,-353.256 296.685,-344.229 327.273,-338.736"/>
<polygon fill="midnightblue" stroke="midnightblue" points="328.166,-342.132 337.404,-336.943 326.947,-335.239 328.166,-342.132"/>
</g>
<!-- Node24 -->
<g id="node25" class="node"><title>Node24</title>
<g id="a_node25"><a xlink:href="event_8h.html" target="_top" xlink:title="event.h">
<polygon fill="white" stroke="black" points="226,-380.5 226,-399.5 275,-399.5 275,-380.5 226,-380.5"/>
<text text-anchor="middle" x="250.5" y="-387.5" font-family="Helvetica,sans-Serif" font-size="10.00">event.h</text>
</a>
</g>
</g>
<!-- Node23&#45;&gt;Node24 -->
<g id="edge29" class="edge"><title>Node23&#45;&gt;Node24</title>
<path fill="none" stroke="midnightblue" d="M175.045,-390C188.281,-390 202.834,-390 215.535,-390"/>
<polygon fill="midnightblue" stroke="midnightblue" points="215.699,-393.5 225.699,-390 215.699,-386.5 215.699,-393.5"/>
</g>
<!-- Node25 -->
<g id="node26" class="node"><title>Node25</title>
<g id="a_node26"><a xlink:href="partmanager_8h.html" target="_top" xlink:title="partmanager.h">
<polygon fill="white" stroke="black" points="211,-266.5 211,-285.5 290,-285.5 290,-266.5 211,-266.5"/>
<text text-anchor="middle" x="250.5" y="-273.5" font-family="Helvetica,sans-Serif" font-size="10.00">partmanager.h</text>
</a>
</g>
</g>
<!-- Node23&#45;&gt;Node25 -->
<g id="edge31" class="edge"><title>Node23&#45;&gt;Node25</title>
<path fill="none" stroke="midnightblue" d="M161.391,-380.479C166.301,-377.921 171.097,-374.785 175,-371 200.398,-346.368 187.109,-326.096 211,-300 213.932,-296.798 217.386,-293.861 221.002,-291.225"/>
<polygon fill="midnightblue" stroke="midnightblue" points="223.103,-294.034 229.563,-285.635 219.276,-288.172 223.103,-294.034"/>
</g>
<!-- Node25&#45;&gt;Node16 -->
<g id="edge33" class="edge"><title>Node25&#45;&gt;Node16</title>
<path fill="none" stroke="midnightblue" d="M270.075,-285.669C287.563,-294.773 313.964,-308.516 333.82,-318.851"/>
<polygon fill="midnightblue" stroke="midnightblue" points="332.213,-321.961 342.699,-323.474 335.445,-315.752 332.213,-321.961"/>
</g>
<!-- Node26 -->
<g id="node27" class="node"><title>Node26</title>
<polygon fill="white" stroke="#bfbfbf" points="333.5,-285.5 333.5,-304.5 390.5,-304.5 390.5,-285.5 333.5,-285.5"/>
<text text-anchor="middle" x="362" y="-292.5" font-family="Helvetica,sans-Serif" font-size="10.00">pthread.h</text>
</g>
<!-- Node25&#45;&gt;Node26 -->
<g id="edge32" class="edge"><title>Node25&#45;&gt;Node26</title>
<path fill="none" stroke="midnightblue" d="M290.106,-282.699C300.931,-284.577 312.681,-286.616 323.445,-288.484"/>
<polygon fill="midnightblue" stroke="midnightblue" points="322.948,-291.95 333.399,-290.211 324.145,-285.053 322.948,-291.95"/>
</g>
<!-- Node27 -->
<g id="node28" class="node"><title>Node27</title>
<g id="a_node28"><a xlink:href="peano_8h.html" target="_top" xlink:title="peano.h">
<polygon fill="white" stroke="black" points="336.5,-247.5 336.5,-266.5 387.5,-266.5 387.5,-247.5 336.5,-247.5"/>
<text text-anchor="middle" x="362" y="-254.5" font-family="Helvetica,sans-Serif" font-size="10.00">peano.h</text>
</a>
</g>
</g>
<!-- Node25&#45;&gt;Node27 -->
<g id="edge34" class="edge"><title>Node25&#45;&gt;Node27</title>
<path fill="none" stroke="midnightblue" d="M290.106,-269.301C301.891,-267.256 314.773,-265.021 326.284,-263.024"/>
<polygon fill="midnightblue" stroke="midnightblue" points="327.145,-266.427 336.399,-261.269 325.948,-259.53 327.145,-266.427"/>
</g>
<!-- Node27&#45;&gt;Node11 -->
<g id="edge35" class="edge"><title>Node27&#45;&gt;Node11</title>
<path fill="none" stroke="midnightblue" d="M385.584,-266.521C390.075,-269.129 394.483,-272.284 398,-276 423.692,-303.145 417.05,-318.689 434,-352 450.745,-384.908 471.61,-422.501 483.947,-444.41"/>
<polygon fill="midnightblue" stroke="midnightblue" points="481.004,-446.315 488.971,-453.299 487.098,-442.871 481.004,-446.315"/>
</g>
<!-- Node27&#45;&gt;Node17 -->
<g id="edge36" class="edge"><title>Node27&#45;&gt;Node17</title>
<path fill="none" stroke="midnightblue" d="M380.874,-266.542C386.389,-269.529 392.466,-272.865 398,-276 422.588,-289.93 450.336,-306.4 469.745,-318.044"/>
<polygon fill="midnightblue" stroke="midnightblue" points="468.18,-321.187 478.553,-323.341 471.787,-315.188 468.18,-321.187"/>
</g>
<!-- Node30 -->
<g id="node31" class="node"><title>Node30</title>
<g id="a_node31"><a xlink:href="timebinmgr_8h.html" target="_top" xlink:title="timebinmgr.h">
<polygon fill="white" stroke="black" points="214,-38.5 214,-57.5 287,-57.5 287,-38.5 214,-38.5"/>
<text text-anchor="middle" x="250.5" y="-45.5" font-family="Helvetica,sans-Serif" font-size="10.00">timebinmgr.h</text>
</a>
</g>
</g>
<!-- Node29&#45;&gt;Node30 -->
<g id="edge39" class="edge"><title>Node29&#45;&gt;Node30</title>
<path fill="none" stroke="midnightblue" d="M164.715,-48C176.582,-48 190.468,-48 203.527,-48"/>
<polygon fill="midnightblue" stroke="midnightblue" points="203.768,-51.5001 213.768,-48 203.768,-44.5001 203.768,-51.5001"/>
</g>
</g>
</svg>
