<?xml version="1.0" encoding="UTF-8" standalone="no"?>
<!DOCTYPE svg PUBLIC "-//W3C//DTD SVG 1.1//EN"
 "http://www.w3.org/Graphics/SVG/1.1/DTD/svg11.dtd">
<!-- Generated by graphviz version 2.50.0 (0)
 -->
<!-- Title: GetDensityKernelType Pages: 1 -->
<svg width="1229pt" height="211pt"
 viewBox="0.00 0.00 1229.00 211.00" xmlns="http://www.w3.org/2000/svg" xmlns:xlink="http://www.w3.org/1999/xlink">
<g id="graph0" class="graph" transform="scale(1 1) rotate(0) translate(4 207)">
<title>GetDensityKernelType</title>
<polygon fill="white" stroke="transparent" points="-4,4 -4,-207 1225,-207 1225,4 -4,4"/>
<!-- Node1 -->
<g id="node1" class="node">
<title>Node1</title>
<g id="a_node1"><a xlink:title=" ">
<polygon fill="#bfbfbf" stroke="black" points="0,-145.5 0,-164.5 125,-164.5 125,-145.5 0,-145.5"/>
<text text-anchor="middle" x="62.5" y="-152.5" font-family="Helvetica,sans-Serif" font-size="10.00">GetDensityKernelType</text>
</a>
</g>
</g>
<!-- Node2 -->
<g id="node2" class="node">
<title>Node2</title>
<g id="a_node2"><a xlink:href="densitykernel_8c.html#adc7ade6568b4d241b0f46cde1d5243e2" target="_top" xlink:title=" ">
<polygon fill="white" stroke="black" points="161,-183.5 161,-202.5 311,-202.5 311,-183.5 161,-183.5"/>
<text text-anchor="middle" x="236" y="-190.5" font-family="Helvetica,sans-Serif" font-size="10.00">density_kernel_desnumngb</text>
</a>
</g>
</g>
<!-- Node1&#45;&gt;Node2 -->
<g id="edge1" class="edge">
<title>Node1&#45;&gt;Node2</title>
<path fill="none" stroke="midnightblue" d="M106.78,-164.59C129.61,-169.65 157.82,-175.9 181.96,-181.25"/>
<polygon fill="midnightblue" stroke="midnightblue" points="181.51,-184.73 192.03,-183.48 183.03,-177.9 181.51,-184.73"/>
</g>
<!-- Node3 -->
<g id="node3" class="node">
<title>Node3</title>
<g id="a_node3"><a xlink:href="lightcone_8c.html#a53356309f04e9e22e9631e0be5a97b36" target="_top" xlink:title=" ">
<polygon fill="white" stroke="black" points="516,-126.5 516,-145.5 563,-145.5 563,-126.5 516,-126.5"/>
<text text-anchor="middle" x="539.5" y="-133.5" font-family="Helvetica,sans-Serif" font-size="10.00">kernel</text>
</a>
</g>
</g>
<!-- Node1&#45;&gt;Node3 -->
<g id="edge19" class="edge">
<title>Node1&#45;&gt;Node3</title>
<path fill="none" stroke="midnightblue" d="M125.11,-152.54C227,-148.46 427.16,-140.45 505.73,-137.31"/>
<polygon fill="midnightblue" stroke="midnightblue" points="506.14,-140.8 515.99,-136.9 505.86,-133.8 506.14,-140.8"/>
</g>
<!-- Node11 -->
<g id="node11" class="node">
<title>Node11</title>
<g id="a_node11"><a xlink:href="densitykernel_8c.html#ac964db66f17e32a55c5137c884f4b76b" target="_top" xlink:title=" ">
<polygon fill="white" stroke="black" points="181.5,-85.5 181.5,-104.5 290.5,-104.5 290.5,-85.5 181.5,-85.5"/>
<text text-anchor="middle" x="236" y="-92.5" font-family="Helvetica,sans-Serif" font-size="10.00">density_kernel_init</text>
</a>
</g>
</g>
<!-- Node1&#45;&gt;Node11 -->
<g id="edge11" class="edge">
<title>Node1&#45;&gt;Node11</title>
<path fill="none" stroke="midnightblue" d="M90.67,-145.49C119.69,-135.34 165.85,-119.19 198.13,-107.9"/>
<polygon fill="midnightblue" stroke="midnightblue" points="199.39,-111.17 207.67,-104.56 197.07,-104.56 199.39,-111.17"/>
</g>
<!-- Node2&#45;&gt;Node3 -->
<g id="edge2" class="edge">
<title>Node2&#45;&gt;Node3</title>
<path fill="none" stroke="midnightblue" d="M311.13,-189.88C353.97,-186.84 408.59,-180.84 456,-169 474.29,-164.43 493.92,-156.7 509.45,-149.87"/>
<polygon fill="midnightblue" stroke="midnightblue" points="511.33,-152.86 519,-145.56 508.44,-146.48 511.33,-152.86"/>
</g>
<!-- Node4 -->
<g id="node4" class="node">
<title>Node4</title>
<g id="a_node4"><a xlink:href="cosmology_8c.html#ab425f16e6fe06110e2fb4944065b81bb" target="_top" xlink:title=" ">
<polygon fill="white" stroke="black" points="623,-126.5 623,-145.5 718,-145.5 718,-126.5 623,-126.5"/>
<text text-anchor="middle" x="670.5" y="-133.5" font-family="Helvetica,sans-Serif" font-size="10.00">hubble_function</text>
</a>
</g>
</g>
<!-- Node3&#45;&gt;Node4 -->
<g id="edge3" class="edge">
<title>Node3&#45;&gt;Node4</title>
<path fill="none" stroke="midnightblue" d="M563.27,-136C577.05,-136 595.29,-136 612.77,-136"/>
<polygon fill="midnightblue" stroke="midnightblue" points="612.93,-139.5 622.93,-136 612.93,-132.5 612.93,-139.5"/>
</g>
<!-- Node5 -->
<g id="node5" class="node">
<title>Node5</title>
<g id="a_node5"><a xlink:href="omega__nu__single_8c.html#aca4b20af5bd369bcd096c670c27c6e36" target="_top" xlink:title=" ">
<polygon fill="white" stroke="black" points="754,-145.5 754,-164.5 843,-164.5 843,-145.5 754,-145.5"/>
<text text-anchor="middle" x="798.5" y="-152.5" font-family="Helvetica,sans-Serif" font-size="10.00">get_omega_nu</text>
</a>
</g>
</g>
<!-- Node4&#45;&gt;Node5 -->
<g id="edge4" class="edge">
<title>Node4&#45;&gt;Node5</title>
<path fill="none" stroke="midnightblue" d="M718.06,-143.02C726.42,-144.28 735.2,-145.61 743.75,-146.9"/>
<polygon fill="midnightblue" stroke="midnightblue" points="743.23,-150.36 753.64,-148.39 744.27,-143.43 743.23,-150.36"/>
</g>
<!-- Node10 -->
<g id="node10" class="node">
<title>Node10</title>
<g id="a_node10"><a xlink:href="cosmology_8c.html#a187e0106f302118344b027cf942347e0" target="_top" xlink:title=" ">
<polygon fill="white" stroke="black" points="763,-107.5 763,-126.5 834,-126.5 834,-107.5 763,-107.5"/>
<text text-anchor="middle" x="798.5" y="-114.5" font-family="Helvetica,sans-Serif" font-size="10.00">OmegaFLD</text>
</a>
</g>
</g>
<!-- Node4&#45;&gt;Node10 -->
<g id="edge10" class="edge">
<title>Node4&#45;&gt;Node10</title>
<path fill="none" stroke="midnightblue" d="M718.06,-128.98C729.44,-127.26 741.59,-125.43 752.87,-123.73"/>
<polygon fill="midnightblue" stroke="midnightblue" points="753.58,-127.16 762.95,-122.21 752.54,-120.24 753.58,-127.16"/>
</g>
<!-- Node6 -->
<g id="node6" class="node">
<title>Node6</title>
<g id="a_node6"><a xlink:href="omega__nu__single_8c.html#a5d81e97a54be82580201631d495bd694" target="_top" xlink:title=" ">
<polygon fill="white" stroke="black" points="879,-145.5 879,-164.5 929,-164.5 929,-145.5 879,-145.5"/>
<text text-anchor="middle" x="904" y="-152.5" font-family="Helvetica,sans-Serif" font-size="10.00">rho_nu</text>
</a>
</g>
</g>
<!-- Node5&#45;&gt;Node6 -->
<g id="edge5" class="edge">
<title>Node5&#45;&gt;Node6</title>
<path fill="none" stroke="midnightblue" d="M843.09,-155C851.72,-155 860.65,-155 868.9,-155"/>
<polygon fill="midnightblue" stroke="midnightblue" points="868.92,-158.5 878.92,-155 868.92,-151.5 868.92,-158.5"/>
</g>
<!-- Node7 -->
<g id="node7" class="node">
<title>Node7</title>
<g id="a_node7"><a xlink:href="omega__nu__single_8c.html#a5d053cc2c3fa75a3c357bbb99af5de62" target="_top" xlink:title=" ">
<polygon fill="white" stroke="black" points="965,-164.5 965,-183.5 1056,-183.5 1056,-164.5 965,-164.5"/>
<text text-anchor="middle" x="1010.5" y="-171.5" font-family="Helvetica,sans-Serif" font-size="10.00">non_rel_rho_nu</text>
</a>
</g>
</g>
<!-- Node6&#45;&gt;Node7 -->
<g id="edge6" class="edge">
<title>Node6&#45;&gt;Node7</title>
<path fill="none" stroke="midnightblue" d="M929.24,-159.41C936.95,-160.81 945.81,-162.42 954.78,-164.05"/>
<polygon fill="midnightblue" stroke="midnightblue" points="954.41,-167.54 964.88,-165.89 955.67,-160.65 954.41,-167.54"/>
</g>
<!-- Node9 -->
<g id="node9" class="node">
<title>Node9</title>
<g id="a_node9"><a xlink:href="omega__nu__single_8c.html#ac447b6c2f0363d19b68b2ce9f29009c4" target="_top" xlink:title=" ">
<polygon fill="white" stroke="black" points="976.5,-126.5 976.5,-145.5 1044.5,-145.5 1044.5,-126.5 976.5,-126.5"/>
<text text-anchor="middle" x="1010.5" y="-133.5" font-family="Helvetica,sans-Serif" font-size="10.00">rel_rho_nu</text>
</a>
</g>
</g>
<!-- Node6&#45;&gt;Node9 -->
<g id="edge8" class="edge">
<title>Node6&#45;&gt;Node9</title>
<path fill="none" stroke="midnightblue" d="M929.24,-150.59C940.27,-148.59 953.68,-146.15 966.35,-143.85"/>
<polygon fill="midnightblue" stroke="midnightblue" points="967.08,-147.27 976.29,-142.04 965.83,-140.38 967.08,-147.27"/>
</g>
<!-- Node8 -->
<g id="node8" class="node">
<title>Node8</title>
<g id="a_node8"><a xlink:href="omega__nu__single_8c.html#acf81fc868c0deb61c3541958dd6114be" target="_top" xlink:title=" ">
<polygon fill="white" stroke="black" points="1092,-145.5 1092,-164.5 1221,-164.5 1221,-145.5 1092,-145.5"/>
<text text-anchor="middle" x="1156.5" y="-152.5" font-family="Helvetica,sans-Serif" font-size="10.00">get_rho_nu_conversion</text>
</a>
</g>
</g>
<!-- Node7&#45;&gt;Node8 -->
<g id="edge7" class="edge">
<title>Node7&#45;&gt;Node8</title>
<path fill="none" stroke="midnightblue" d="M1056.27,-168.09C1064.49,-167.01 1073.26,-165.85 1082.07,-164.69"/>
<polygon fill="midnightblue" stroke="midnightblue" points="1082.53,-168.16 1091.99,-163.38 1081.62,-161.22 1082.53,-168.16"/>
</g>
<!-- Node9&#45;&gt;Node8 -->
<g id="edge9" class="edge">
<title>Node9&#45;&gt;Node8</title>
<path fill="none" stroke="midnightblue" d="M1044.54,-140.36C1055.72,-141.83 1068.7,-143.55 1081.75,-145.27"/>
<polygon fill="midnightblue" stroke="midnightblue" points="1081.35,-148.75 1091.72,-146.58 1082.26,-141.81 1081.35,-148.75"/>
</g>
<!-- Node11&#45;&gt;Node3 -->
<g id="edge18" class="edge">
<title>Node11&#45;&gt;Node3</title>
<path fill="none" stroke="midnightblue" d="M290.55,-102.28C352.93,-110.76 454,-124.51 505.73,-131.54"/>
<polygon fill="midnightblue" stroke="midnightblue" points="505.3,-135.02 515.68,-132.9 506.25,-128.08 505.3,-135.02"/>
</g>
<!-- Node12 -->
<g id="node12" class="node">
<title>Node12</title>
<g id="a_node12"><a xlink:href="densitykernel_8c.html#aa9cfb29556ae79bcc2a2f2255ea09050" target="_top" xlink:title=" ">
<polygon fill="white" stroke="black" points="347,-58 347,-88 456,-88 456,-58 347,-58"/>
<text text-anchor="start" x="355" y="-76" font-family="Helvetica,sans-Serif" font-size="10.00">density_kernel_init</text>
<text text-anchor="middle" x="401.5" y="-65" font-family="Helvetica,sans-Serif" font-size="10.00">_with_type</text>
</a>
</g>
</g>
<!-- Node11&#45;&gt;Node12 -->
<g id="edge12" class="edge">
<title>Node11&#45;&gt;Node12</title>
<path fill="none" stroke="midnightblue" d="M290.54,-87.8C305.36,-85.8 321.59,-83.62 336.92,-81.55"/>
<polygon fill="midnightblue" stroke="midnightblue" points="337.4,-85.02 346.84,-80.22 336.47,-78.08 337.4,-85.02"/>
</g>
<!-- Node13 -->
<g id="node13" class="node">
<title>Node13</title>
<g id="a_node13"><a xlink:href="endrun_8c.html#ad963d7efdb9f10f7a2298c8ccd222ab0" target="_top" xlink:title=" ">
<polygon fill="white" stroke="black" points="376.5,-19.5 376.5,-38.5 426.5,-38.5 426.5,-19.5 376.5,-19.5"/>
<text text-anchor="middle" x="401.5" y="-26.5" font-family="Helvetica,sans-Serif" font-size="10.00">endrun</text>
</a>
</g>
</g>
<!-- Node11&#45;&gt;Node13 -->
<g id="edge14" class="edge">
<title>Node11&#45;&gt;Node13</title>
<path fill="none" stroke="midnightblue" d="M259.23,-85.41C281.38,-75.92 316.4,-61.11 347,-49 353.44,-46.45 360.35,-43.8 367,-41.3"/>
<polygon fill="midnightblue" stroke="midnightblue" points="368.31,-44.54 376.46,-37.77 365.86,-37.99 368.31,-44.54"/>
</g>
<!-- Node12&#45;&gt;Node3 -->
<g id="edge13" class="edge">
<title>Node12&#45;&gt;Node3</title>
<path fill="none" stroke="midnightblue" d="M435.08,-88.09C457.39,-98.43 486.77,-112.04 508.51,-122.11"/>
<polygon fill="midnightblue" stroke="midnightblue" points="507.07,-125.3 517.61,-126.32 510.01,-118.94 507.07,-125.3"/>
</g>
<!-- Node14 -->
<g id="node14" class="node">
<title>Node14</title>
<g id="a_node14"><a xlink:href="system_8c.html#a341c8d27bd6c7dde856566810b412b1f" target="_top" xlink:title=" ">
<polygon fill="white" stroke="black" points="500,-38.5 500,-57.5 579,-57.5 579,-38.5 500,-38.5"/>
<text text-anchor="middle" x="539.5" y="-45.5" font-family="Helvetica,sans-Serif" font-size="10.00">MPIU_Tracev</text>
</a>
</g>
</g>
<!-- Node13&#45;&gt;Node14 -->
<g id="edge15" class="edge">
<title>Node13&#45;&gt;Node14</title>
<path fill="none" stroke="midnightblue" d="M426.5,-32.35C444.01,-34.8 468.34,-38.2 489.86,-41.2"/>
<polygon fill="midnightblue" stroke="midnightblue" points="489.44,-44.68 499.83,-42.6 490.41,-37.75 489.44,-44.68"/>
</g>
<!-- Node16 -->
<g id="node16" class="node">
<title>Node16</title>
<g id="a_node16"><a xlink:href="endrun_8c.html#a1200f02a595ab7cbe17c9e36ff32af0f" target="_top" xlink:title=" ">
<polygon fill="white" stroke="black" points="492,-0.5 492,-19.5 587,-19.5 587,-0.5 492,-0.5"/>
<text text-anchor="middle" x="539.5" y="-7.5" font-family="Helvetica,sans-Serif" font-size="10.00">show_backtrace</text>
</a>
</g>
</g>
<!-- Node13&#45;&gt;Node16 -->
<g id="edge17" class="edge">
<title>Node13&#45;&gt;Node16</title>
<path fill="none" stroke="midnightblue" d="M426.5,-25.65C441.89,-23.5 462.55,-20.61 481.93,-17.9"/>
<polygon fill="midnightblue" stroke="midnightblue" points="482.5,-21.36 491.92,-16.51 481.53,-14.43 482.5,-21.36"/>
</g>
<!-- Node15 -->
<g id="node15" class="node">
<title>Node15</title>
<g id="a_node15"><a xlink:href="system_8c.html#a87108946670b4c3afbe846c6726675ff" target="_top" xlink:title=" ">
<polygon fill="white" stroke="black" points="645.5,-38.5 645.5,-57.5 695.5,-57.5 695.5,-38.5 645.5,-38.5"/>
<text text-anchor="middle" x="670.5" y="-45.5" font-family="Helvetica,sans-Serif" font-size="10.00">putline</text>
</a>
</g>
</g>
<!-- Node14&#45;&gt;Node15 -->
<g id="edge16" class="edge">
<title>Node14&#45;&gt;Node15</title>
<path fill="none" stroke="midnightblue" d="M579.2,-48C597.03,-48 618,-48 635.24,-48"/>
<polygon fill="midnightblue" stroke="midnightblue" points="635.43,-51.5 645.43,-48 635.43,-44.5 635.43,-51.5"/>
</g>
</g>
</svg>
