<?xml version="1.0" encoding="UTF-8" standalone="no"?>
<!DOCTYPE svg PUBLIC "-//W3C//DTD SVG 1.1//EN"
 "http://www.w3.org/Graphics/SVG/1.1/DTD/svg11.dtd">
<!-- Generated by graphviz version 2.38.0 (20140413.2041)
 -->
<!-- Title: density_kernel_dwk Pages: 1 -->
<svg width="1147pt" height="113pt"
 viewBox="0.00 0.00 1147.00 113.00" xmlns="http://www.w3.org/2000/svg" xmlns:xlink="http://www.w3.org/1999/xlink">
<g id="graph0" class="graph" transform="scale(1 1) rotate(0) translate(4 109)">
<title>density_kernel_dwk</title>
<polygon fill="white" stroke="none" points="-4,4 -4,-109 1143,-109 1143,4 -4,4"/>
<!-- Node8 -->
<g id="node1" class="node"><title>Node8</title>
<polygon fill="#bfbfbf" stroke="black" points="0,-19.5 0,-38.5 103,-38.5 103,-19.5 0,-19.5"/>
<text text-anchor="middle" x="51.5" y="-26.5" font-family="Helvetica,sans-Serif" font-size="10.00">density_kernel_dwk</text>
</g>
<!-- Node9 -->
<g id="node2" class="node"><title>Node9</title>
<g id="a_node2"><a xlink:href="density_8c.html#a146d61fe2d2f53ea9b7fabf2ea5e90b7" target="_top" xlink:title="density_ngbiter">
<polygon fill="white" stroke="black" points="139,-38.5 139,-57.5 222,-57.5 222,-38.5 139,-38.5"/>
<text text-anchor="middle" x="180.5" y="-45.5" font-family="Helvetica,sans-Serif" font-size="10.00">density_ngbiter</text>
</a>
</g>
</g>
<!-- Node8&#45;&gt;Node9 -->
<g id="edge1" class="edge"><title>Node8&#45;&gt;Node9</title>
<path fill="none" stroke="midnightblue" d="M113.208,-38.0823C121.915,-39.3849 130.692,-40.698 138.883,-41.9234"/>
<polygon fill="midnightblue" stroke="midnightblue" points="113.467,-34.5821 103.059,-36.5639 112.431,-41.5051 113.467,-34.5821"/>
</g>
<!-- Node21 -->
<g id="node14" class="node"><title>Node21</title>
<g id="a_node14"><a xlink:href="hydra_8c.html#a573da066bd5ea955c89ec5250d472bbb" target="_top" xlink:title="hydro_ngbiter">
<polygon fill="white" stroke="black" points="143,-0.5 143,-19.5 218,-19.5 218,-0.5 143,-0.5"/>
<text text-anchor="middle" x="180.5" y="-7.5" font-family="Helvetica,sans-Serif" font-size="10.00">hydro_ngbiter</text>
</a>
</g>
</g>
<!-- Node8&#45;&gt;Node21 -->
<g id="edge16" class="edge"><title>Node8&#45;&gt;Node21</title>
<path fill="none" stroke="midnightblue" d="M113.129,-19.9295C123.27,-18.4123 133.509,-16.8805 142.809,-15.4892"/>
<polygon fill="midnightblue" stroke="midnightblue" points="112.431,-16.4949 103.059,-21.4361 113.467,-23.4179 112.431,-16.4949"/>
</g>
<!-- Node10 -->
<g id="node3" class="node"><title>Node10</title>
<g id="a_node3"><a xlink:href="density_8c.html#a69886540d0642590a0022fc14ce61f06" target="_top" xlink:title="density_internal">
<polygon fill="white" stroke="black" points="258,-38.5 258,-57.5 343,-57.5 343,-38.5 258,-38.5"/>
<text text-anchor="middle" x="300.5" y="-45.5" font-family="Helvetica,sans-Serif" font-size="10.00">density_internal</text>
</a>
</g>
</g>
<!-- Node9&#45;&gt;Node10 -->
<g id="edge2" class="edge"><title>Node9&#45;&gt;Node10</title>
<path fill="none" stroke="midnightblue" d="M232.263,-48C240.72,-48 249.408,-48 257.612,-48"/>
<polygon fill="midnightblue" stroke="midnightblue" points="232.109,-44.5001 222.109,-48 232.109,-51.5001 232.109,-44.5001"/>
</g>
<!-- Node11 -->
<g id="node4" class="node"><title>Node11</title>
<g id="a_node4"><a xlink:href="proto_8h.html#a8ce8ad3893801ac7d380efd9b7ef26d3" target="_top" xlink:title="density">
<polygon fill="white" stroke="black" points="396.5,-38.5 396.5,-57.5 444.5,-57.5 444.5,-38.5 396.5,-38.5"/>
<text text-anchor="middle" x="420.5" y="-45.5" font-family="Helvetica,sans-Serif" font-size="10.00">density</text>
</a>
</g>
</g>
<!-- Node10&#45;&gt;Node11 -->
<g id="edge3" class="edge"><title>Node10&#45;&gt;Node11</title>
<path fill="none" stroke="midnightblue" d="M353.379,-48C368.438,-48 384.125,-48 396.439,-48"/>
<polygon fill="midnightblue" stroke="midnightblue" points="353.102,-44.5001 343.102,-48 353.102,-51.5001 353.102,-44.5001"/>
</g>
<!-- Node20 -->
<g id="node13" class="node"><title>Node20</title>
<g id="a_node13"><a xlink:href="proto_8h.html#a137ca78a0bd40fa7a75438e90e4f66a8" target="_top" xlink:title="density_update">
<polygon fill="white" stroke="black" points="379,-76.5 379,-95.5 462,-95.5 462,-76.5 379,-76.5"/>
<text text-anchor="middle" x="420.5" y="-83.5" font-family="Helvetica,sans-Serif" font-size="10.00">density_update</text>
</a>
</g>
</g>
<!-- Node10&#45;&gt;Node20 -->
<g id="edge14" class="edge"><title>Node10&#45;&gt;Node20</title>
<path fill="none" stroke="midnightblue" d="M340.876,-60.6804C356.82,-65.8148 374.921,-71.6441 389.733,-76.4141"/>
<polygon fill="midnightblue" stroke="midnightblue" points="341.868,-57.3229 331.276,-57.589 339.722,-63.9859 341.868,-57.3229"/>
</g>
<!-- Node12 -->
<g id="node5" class="node"><title>Node12</title>
<g id="a_node5"><a xlink:href="init_8c.html#a643ef34b585446f8ccbbf3239df2db71" target="_top" xlink:title="setup_smoothinglengths">
<polygon fill="white" stroke="black" points="498,-66.5 498,-85.5 620,-85.5 620,-66.5 498,-66.5"/>
<text text-anchor="middle" x="559" y="-73.5" font-family="Helvetica,sans-Serif" font-size="10.00">setup_smoothinglengths</text>
</a>
</g>
</g>
<!-- Node11&#45;&gt;Node12 -->
<g id="edge4" class="edge"><title>Node11&#45;&gt;Node12</title>
<path fill="none" stroke="midnightblue" d="M454.701,-54.8105C471.76,-58.3096 492.827,-62.6312 511.478,-66.457"/>
<polygon fill="midnightblue" stroke="midnightblue" points="455.155,-51.3307 444.655,-52.7498 453.748,-58.1879 455.155,-51.3307"/>
</g>
<!-- Node19 -->
<g id="node12" class="node"><title>Node19</title>
<g id="a_node12"><a xlink:href="run_8c.html#abb80d08f4d52f4a7bdf28d1cecfead5b" target="_top" xlink:title="compute_accelerations">
<polygon fill="white" stroke="black" points="500.5,-9.5 500.5,-28.5 617.5,-28.5 617.5,-9.5 500.5,-9.5"/>
<text text-anchor="middle" x="559" y="-16.5" font-family="Helvetica,sans-Serif" font-size="10.00">compute_accelerations</text>
</a>
</g>
</g>
<!-- Node11&#45;&gt;Node19 -->
<g id="edge12" class="edge"><title>Node11&#45;&gt;Node19</title>
<path fill="none" stroke="midnightblue" d="M454.472,-40.995C472.085,-37.2531 494.02,-32.5929 513.16,-28.5264"/>
<polygon fill="midnightblue" stroke="midnightblue" points="453.71,-37.5787 444.655,-43.0805 455.164,-44.4259 453.71,-37.5787"/>
</g>
<!-- Node13 -->
<g id="node6" class="node"><title>Node13</title>
<g id="a_node6"><a xlink:href="proto_8h.html#ab080cb20bac2a1a6153a84e8cfd15374" target="_top" xlink:title="init">
<polygon fill="white" stroke="black" points="656,-66.5 656,-85.5 685,-85.5 685,-66.5 656,-66.5"/>
<text text-anchor="middle" x="670.5" y="-73.5" font-family="Helvetica,sans-Serif" font-size="10.00">init</text>
</a>
</g>
</g>
<!-- Node12&#45;&gt;Node13 -->
<g id="edge5" class="edge"><title>Node12&#45;&gt;Node13</title>
<path fill="none" stroke="midnightblue" d="M630.355,-76C639.917,-76 648.785,-76 655.654,-76"/>
<polygon fill="midnightblue" stroke="midnightblue" points="630.196,-72.5001 620.196,-76 630.196,-79.5001 630.196,-72.5001"/>
</g>
<!-- Node14 -->
<g id="node7" class="node"><title>Node14</title>
<g id="a_node7"><a xlink:href="proto_8h.html#a74dc0e5e9eefe11fc8434b62de573146" target="_top" xlink:title="begrun">
<polygon fill="white" stroke="black" points="721,-66.5 721,-85.5 767,-85.5 767,-66.5 721,-66.5"/>
<text text-anchor="middle" x="744" y="-73.5" font-family="Helvetica,sans-Serif" font-size="10.00">begrun</text>
</a>
</g>
</g>
<!-- Node13&#45;&gt;Node14 -->
<g id="edge6" class="edge"><title>Node13&#45;&gt;Node14</title>
<path fill="none" stroke="midnightblue" d="M695.37,-76C703.585,-76 712.743,-76 720.818,-76"/>
<polygon fill="midnightblue" stroke="midnightblue" points="695.286,-72.5001 685.286,-76 695.286,-79.5001 695.286,-72.5001"/>
</g>
<!-- Node15 -->
<g id="node8" class="node"><title>Node15</title>
<g id="a_node8"><a xlink:href="main_8c.html#a3c04138a5bfe5d72780bb7e82a18e627" target="_top" xlink:title="main">
<polygon fill="white" stroke="black" points="803,-66.5 803,-85.5 841,-85.5 841,-66.5 803,-66.5"/>
<text text-anchor="middle" x="822" y="-73.5" font-family="Helvetica,sans-Serif" font-size="10.00">main</text>
</a>
</g>
</g>
<!-- Node14&#45;&gt;Node15 -->
<g id="edge7" class="edge"><title>Node14&#45;&gt;Node15</title>
<path fill="none" stroke="midnightblue" d="M777.541,-76C786.114,-76 795.067,-76 802.603,-76"/>
<polygon fill="midnightblue" stroke="midnightblue" points="777.391,-72.5001 767.391,-76 777.391,-79.5001 777.391,-72.5001"/>
</g>
<!-- Node16 -->
<g id="node9" class="node"><title>Node16</title>
<g id="a_node9"><a xlink:href="walltime_8h.html#a76d2135b612766d4d665748454b879d6" target="_top" xlink:title="walltime_report">
<polygon fill="white" stroke="black" points="877,-85.5 877,-104.5 960,-104.5 960,-85.5 877,-85.5"/>
<text text-anchor="middle" x="918.5" y="-92.5" font-family="Helvetica,sans-Serif" font-size="10.00">walltime_report</text>
</a>
</g>
</g>
<!-- Node15&#45;&gt;Node16 -->
<g id="edge8" class="edge"><title>Node15&#45;&gt;Node16</title>
<path fill="none" stroke="midnightblue" d="M851.141,-81.658C859.148,-83.2678 868.035,-85.0547 876.635,-86.7837"/>
<polygon fill="midnightblue" stroke="midnightblue" points="851.714,-78.2033 841.221,-79.6634 850.334,-85.0659 851.714,-78.2033"/>
</g>
<!-- Node17 -->
<g id="node10" class="node"><title>Node17</title>
<g id="a_node10"><a xlink:href="run_8c.html#adc59e9ee1517e4e690694a64ab6a59d2" target="_top" xlink:title="write_cpu_log">
<polygon fill="white" stroke="black" points="996,-85.5 996,-104.5 1073,-104.5 1073,-85.5 996,-85.5"/>
<text text-anchor="middle" x="1034.5" y="-92.5" font-family="Helvetica,sans-Serif" font-size="10.00">write_cpu_log</text>
</a>
</g>
</g>
<!-- Node16&#45;&gt;Node17 -->
<g id="edge9" class="edge"><title>Node16&#45;&gt;Node17</title>
<path fill="none" stroke="midnightblue" d="M970.031,-95C978.684,-95 987.54,-95 995.785,-95"/>
<polygon fill="midnightblue" stroke="midnightblue" points="970.013,-91.5001 960.013,-95 970.013,-98.5001 970.013,-91.5001"/>
</g>
<!-- Node18 -->
<g id="node11" class="node"><title>Node18</title>
<g id="a_node11"><a xlink:href="run_8c.html#a05e0ffe612d44e6d7f3a9ae5b9df56a2" target="_top" xlink:title="run">
<polygon fill="white" stroke="black" points="1109,-47.5 1109,-66.5 1139,-66.5 1139,-47.5 1109,-47.5"/>
<text text-anchor="middle" x="1124" y="-54.5" font-family="Helvetica,sans-Serif" font-size="10.00">run</text>
</a>
</g>
</g>
<!-- Node17&#45;&gt;Node18 -->
<g id="edge10" class="edge"><title>Node17&#45;&gt;Node18</title>
<path fill="none" stroke="midnightblue" d="M1067.1,-81.2746C1081.42,-75.0585 1097.62,-68.0243 1108.87,-63.1344"/>
<polygon fill="midnightblue" stroke="midnightblue" points="1065.36,-78.2172 1057.58,-85.411 1068.15,-84.6378 1065.36,-78.2172"/>
</g>
<!-- Node18&#45;&gt;Node15 -->
<g id="edge11" class="edge"><title>Node18&#45;&gt;Node15</title>
<path fill="none" stroke="midnightblue" d="M1098.76,-58.5353C1040.39,-62.2319 893.064,-71.5626 841.315,-74.8401"/>
<polygon fill="midnightblue" stroke="midnightblue" points="1099.13,-62.0191 1108.89,-57.8939 1098.68,-55.0331 1099.13,-62.0191"/>
</g>
<!-- Node19&#45;&gt;Node18 -->
<g id="edge13" class="edge"><title>Node19&#45;&gt;Node18</title>
<path fill="none" stroke="midnightblue" d="M628.111,-19C662.548,-19 704.994,-19 743,-19 743,-19 743,-19 919.5,-19 991.74,-19 1075.99,-42.4259 1108.86,-52.4917"/>
<polygon fill="midnightblue" stroke="midnightblue" points="627.694,-15.5001 617.694,-19 627.694,-22.5001 627.694,-15.5001"/>
</g>
<!-- Node20&#45;&gt;Node12 -->
<g id="edge15" class="edge"><title>Node20&#45;&gt;Node12</title>
<path fill="none" stroke="midnightblue" d="M472.095,-82.2934C480.487,-81.6786 489.262,-81.0357 497.863,-80.4056"/>
<polygon fill="midnightblue" stroke="midnightblue" points="471.802,-78.8054 462.085,-83.0267 472.314,-85.7867 471.802,-78.8054"/>
</g>
<!-- Node22 -->
<g id="node15" class="node"><title>Node22</title>
<g id="a_node15"><a xlink:href="hydra_8h.html#a6789381bce7d1c316df8ecf04b47a607" target="_top" xlink:title="hydro_force">
<polygon fill="white" stroke="black" points="266.5,-0.5 266.5,-19.5 334.5,-19.5 334.5,-0.5 266.5,-0.5"/>
<text text-anchor="middle" x="300.5" y="-7.5" font-family="Helvetica,sans-Serif" font-size="10.00">hydro_force</text>
</a>
</g>
</g>
<!-- Node21&#45;&gt;Node22 -->
<g id="edge17" class="edge"><title>Node21&#45;&gt;Node22</title>
<path fill="none" stroke="midnightblue" d="M228.22,-10C241.004,-10 254.593,-10 266.439,-10"/>
<polygon fill="midnightblue" stroke="midnightblue" points="228.189,-6.5001 218.189,-10 228.189,-13.5001 228.189,-6.5001"/>
</g>
<!-- Node22&#45;&gt;Node19 -->
<g id="edge18" class="edge"><title>Node22&#45;&gt;Node19</title>
<path fill="none" stroke="midnightblue" d="M344.577,-11.5115C387.274,-13.0096 452.958,-15.3143 500.178,-16.9712"/>
<polygon fill="midnightblue" stroke="midnightblue" points="344.624,-8.01108 334.508,-11.1582 344.379,-15.0068 344.624,-8.01108"/>
</g>
</g>
</svg>
