<?xml version="1.0" encoding="UTF-8" standalone="no"?>
<!DOCTYPE svg PUBLIC "-//W3C//DTD SVG 1.1//EN"
 "http://www.w3.org/Graphics/SVG/1.1/DTD/svg11.dtd">
<!-- Generated by graphviz version 2.38.0 (20140413.2041)
 -->
<!-- Title: density_ngbiter Pages: 1 -->
<svg width="657pt" height="607pt"
 viewBox="0.00 0.00 657.04 607.13" xmlns="http://www.w3.org/2000/svg" xmlns:xlink="http://www.w3.org/1999/xlink">
<g id="graph0" class="graph" transform="scale(1 1) rotate(0) translate(4 603.125)">
<title>density_ngbiter</title>
<polygon fill="white" stroke="none" points="-4,4 -4,-603.125 653.039,-603.125 653.039,4 -4,4"/>
<!-- Node233 -->
<g id="node1" class="node"><title>Node233</title>
<polygon fill="#bfbfbf" stroke="black" points="173.437,-108.377 173.437,-127.377 256.437,-127.377 256.437,-108.377 173.437,-108.377"/>
<text text-anchor="middle" x="214.937" y="-115.377" font-family="Helvetica,sans-Serif" font-size="10.00">density_ngbiter</text>
</g>
<!-- Node234 -->
<g id="node2" class="node"><title>Node234</title>
<g id="a_node2"><a xlink:href="densitykernel_8h.html#ab8155c6c628c91d85e5c8d13c771c680" target="_top" xlink:title="crossproduct">
<polygon fill="white" stroke="black" points="38.2415,-343.4 38.2415,-362.4 111.241,-362.4 111.241,-343.4 38.2415,-343.4"/>
<text text-anchor="middle" x="74.7415" y="-350.4" font-family="Helvetica,sans-Serif" font-size="10.00">crossproduct</text>
</a>
</g>
</g>
<!-- Node233&#45;&gt;Node234 -->
<g id="edge1" class="edge"><title>Node233&#45;&gt;Node234</title>
<path fill="none" stroke="midnightblue" d="M209.267,-127.381C188.176,-162.738 114.017,-287.058 85.7754,-334.402"/>
<polygon fill="midnightblue" stroke="midnightblue" points="82.5987,-332.896 80.4815,-343.277 88.6104,-336.482 82.5987,-332.896"/>
</g>
<!-- Node235 -->
<g id="node3" class="node"><title>Node235</title>
<g id="a_node3"><a xlink:href="densitykernel_8h.html#aec0c9b61e7d0eea4c1322bac43953c52" target="_top" xlink:title="density_kernel_dW">
<polygon fill="white" stroke="black" points="-1.42109e-14,-243.019 -1.42109e-14,-262.019 100,-262.019 100,-243.019 -1.42109e-14,-243.019"/>
<text text-anchor="middle" x="50" y="-250.019" font-family="Helvetica,sans-Serif" font-size="10.00">density_kernel_dW</text>
</a>
</g>
</g>
<!-- Node233&#45;&gt;Node235 -->
<g id="edge2" class="edge"><title>Node233&#45;&gt;Node235</title>
<path fill="none" stroke="midnightblue" d="M203.075,-127.56C175.02,-150.462 104.352,-208.151 69.7316,-236.412"/>
<polygon fill="midnightblue" stroke="midnightblue" points="67.2877,-233.889 61.7544,-242.924 71.7143,-239.311 67.2877,-233.889"/>
</g>
<!-- Node236 -->
<g id="node4" class="node"><title>Node236</title>
<g id="a_node4"><a xlink:href="densitykernel_8c.html#a0186d7befa22874293c78f61468ed76a" target="_top" xlink:title="density_kernel_dwk">
<polygon fill="white" stroke="black" points="23.2415,-142.639 23.2415,-161.639 126.241,-161.639 126.241,-142.639 23.2415,-142.639"/>
<text text-anchor="middle" x="74.7415" y="-149.639" font-family="Helvetica,sans-Serif" font-size="10.00">density_kernel_dwk</text>
</a>
</g>
</g>
<!-- Node233&#45;&gt;Node236 -->
<g id="edge3" class="edge"><title>Node233&#45;&gt;Node236</title>
<path fill="none" stroke="midnightblue" d="M175.885,-127.421C159.765,-131.36 140.901,-135.97 123.859,-140.135"/>
<polygon fill="midnightblue" stroke="midnightblue" points="122.954,-136.754 114.071,-142.528 124.616,-143.553 122.954,-136.754"/>
</g>
<!-- Node237 -->
<g id="node5" class="node"><title>Node237</title>
<g id="a_node5"><a xlink:href="densitykernel_8c.html#ad60b1f36f3eae1dd499c32554c3328e3" target="_top" xlink:title="density_kernel_init">
<polygon fill="white" stroke="black" points="94.298,-65.2548 94.298,-84.2548 192.298,-84.2548 192.298,-65.2548 94.298,-65.2548"/>
<text text-anchor="middle" x="143.298" y="-72.2548" font-family="Helvetica,sans-Serif" font-size="10.00">density_kernel_init</text>
</a>
</g>
</g>
<!-- Node233&#45;&gt;Node237 -->
<g id="edge4" class="edge"><title>Node233&#45;&gt;Node237</title>
<path fill="none" stroke="midnightblue" d="M199.038,-108.307C189.856,-102.78 178.113,-95.7113 167.776,-89.4888"/>
<polygon fill="midnightblue" stroke="midnightblue" points="169.525,-86.4568 159.153,-84.2983 165.915,-92.4542 169.525,-86.4568"/>
</g>
<!-- Node238 -->
<g id="node6" class="node"><title>Node238</title>
<g id="a_node6"><a xlink:href="endrun_8c.html#ad963d7efdb9f10f7a2298c8ccd222ab0" target="_top" xlink:title="endrun">
<polygon fill="white" stroke="black" points="404.678,-386.254 404.678,-405.254 450.678,-405.254 450.678,-386.254 404.678,-386.254"/>
<text text-anchor="middle" x="427.678" y="-393.254" font-family="Helvetica,sans-Serif" font-size="10.00">endrun</text>
</a>
</g>
</g>
<!-- Node233&#45;&gt;Node238 -->
<g id="edge13" class="edge"><title>Node233&#45;&gt;Node238</title>
<path fill="none" stroke="midnightblue" d="M222.26,-127.442C253.202,-167.858 373.499,-324.986 414.161,-378.098"/>
<polygon fill="midnightblue" stroke="midnightblue" points="411.528,-380.416 420.386,-386.229 417.086,-376.161 411.528,-380.416"/>
</g>
<!-- Node243 -->
<g id="node11" class="node"><title>Node243</title>
<g id="a_node11"><a xlink:href="densitykernel_8c.html#ac4e5abd2c5d6459b39437185da18ee48" target="_top" xlink:title="density_kernel_volume">
<polygon fill="white" stroke="black" points="181.964,-28.5942 181.964,-47.5942 297.964,-47.5942 297.964,-28.5942 181.964,-28.5942"/>
<text text-anchor="middle" x="239.964" y="-35.5942" font-family="Helvetica,sans-Serif" font-size="10.00">density_kernel_volume</text>
</a>
</g>
</g>
<!-- Node233&#45;&gt;Node243 -->
<g id="edge10" class="edge"><title>Node233&#45;&gt;Node243</title>
<path fill="none" stroke="midnightblue" d="M218.006,-108.094C221.908,-95.6527 228.742,-73.8699 233.751,-57.8991"/>
<polygon fill="midnightblue" stroke="midnightblue" points="237.217,-58.5464 236.87,-47.9572 230.537,-56.4511 237.217,-58.5464"/>
</g>
<!-- Node244 -->
<g id="node12" class="node"><title>Node244</title>
<g id="a_node12"><a xlink:href="densitykernel_8c.html#afb1d08bb021ac0edae2020eca1a48ea5" target="_top" xlink:title="density_kernel_wk">
<polygon fill="white" stroke="black" points="293.595,-41.0558 293.595,-60.0558 391.595,-60.0558 391.595,-41.0558 293.595,-41.0558"/>
<text text-anchor="middle" x="342.595" y="-48.0558" font-family="Helvetica,sans-Serif" font-size="10.00">density_kernel_wk</text>
</a>
</g>
</g>
<!-- Node233&#45;&gt;Node244 -->
<g id="edge11" class="edge"><title>Node233&#45;&gt;Node244</title>
<path fill="none" stroke="midnightblue" d="M232.956,-108.374C254.408,-97.0615 290.451,-78.0543 315.322,-64.9383"/>
<polygon fill="midnightblue" stroke="midnightblue" points="317.041,-67.9888 324.253,-60.2282 313.775,-61.797 317.041,-67.9888"/>
</g>
<!-- Node245 -->
<g id="node13" class="node"><title>Node245</title>
<g id="a_node13"><a xlink:href="densitykernel_8h.html#a04db2ef3f6058136edf1ad0b06b1b04e" target="_top" xlink:title="dotproduct">
<polygon fill="white" stroke="black" points="396.678,-99.7849 396.678,-118.785 458.678,-118.785 458.678,-99.7849 396.678,-99.7849"/>
<text text-anchor="middle" x="427.678" y="-106.785" font-family="Helvetica,sans-Serif" font-size="10.00">dotproduct</text>
</a>
</g>
</g>
<!-- Node233&#45;&gt;Node245 -->
<g id="edge12" class="edge"><title>Node233&#45;&gt;Node245</title>
<path fill="none" stroke="midnightblue" d="M256.461,-116.2C294.041,-114.682 349.083,-112.459 386.542,-110.946"/>
<polygon fill="midnightblue" stroke="midnightblue" points="386.762,-114.44 396.612,-110.54 386.479,-107.446 386.762,-114.44"/>
</g>
<!-- Node246 -->
<g id="node14" class="node"><title>Node246</title>
<g id="a_node14"><a xlink:href="lightcone_8c.html#a53356309f04e9e22e9631e0be5a97b36" target="_top" xlink:title="kernel">
<polygon fill="white" stroke="black" points="454.223,-191.327 454.223,-210.327 497.223,-210.327 497.223,-191.327 454.223,-191.327"/>
<text text-anchor="middle" x="475.723" y="-198.327" font-family="Helvetica,sans-Serif" font-size="10.00">kernel</text>
</a>
</g>
</g>
<!-- Node233&#45;&gt;Node246 -->
<g id="edge14" class="edge"><title>Node233&#45;&gt;Node246</title>
<path fill="none" stroke="midnightblue" d="M244.852,-127.392C294.543,-143.198 393.632,-174.716 444.301,-190.833"/>
<polygon fill="midnightblue" stroke="midnightblue" points="443.462,-194.238 454.052,-193.934 445.584,-187.568 443.462,-194.238"/>
</g>
<!-- Node251 -->
<g id="node19" class="node"><title>Node251</title>
<g id="a_node19"><a xlink:href="timestep_8c.html#acc11c5bded8c3b09e663310d7e773878" target="_top" xlink:title="sph_VelPred">
<polygon fill="white" stroke="black" points="204.468,-175.698 204.468,-194.698 276.468,-194.698 276.468,-175.698 204.468,-175.698"/>
<text text-anchor="middle" x="240.468" y="-182.698" font-family="Helvetica,sans-Serif" font-size="10.00">sph_VelPred</text>
</a>
</g>
</g>
<!-- Node233&#45;&gt;Node251 -->
<g id="edge22" class="edge"><title>Node233&#45;&gt;Node251</title>
<path fill="none" stroke="midnightblue" d="M218.595,-127.522C222.387,-137.521 228.416,-153.417 233.184,-165.992"/>
<polygon fill="midnightblue" stroke="midnightblue" points="229.999,-167.462 236.817,-175.571 236.544,-164.979 229.999,-167.462"/>
</g>
<!-- Node237&#45;&gt;Node238 -->
<g id="edge5" class="edge"><title>Node237&#45;&gt;Node238</title>
<path fill="none" stroke="midnightblue" d="M151.809,-84.3617C191.711,-129.402 360.497,-319.922 412.417,-378.528"/>
<polygon fill="midnightblue" stroke="midnightblue" points="409.95,-381.02 419.201,-386.184 415.189,-376.378 409.95,-381.02"/>
</g>
<!-- Node242 -->
<g id="node10" class="node"><title>Node242</title>
<g id="a_node10"><a xlink:href="densitykernel_8c.html#ad2c669dd99e5ae3ab0f498624e6fd840" target="_top" xlink:title="density_kernel_init\l_with_type">
<polygon fill="white" stroke="black" points="53.3974,-0.5 53.3974,-30.5 151.397,-30.5 151.397,-0.5 53.3974,-0.5"/>
<text text-anchor="start" x="61.3974" y="-18.5" font-family="Helvetica,sans-Serif" font-size="10.00">density_kernel_init</text>
<text text-anchor="middle" x="102.397" y="-7.5" font-family="Helvetica,sans-Serif" font-size="10.00">_with_type</text>
</a>
</g>
</g>
<!-- Node237&#45;&gt;Node242 -->
<g id="edge9" class="edge"><title>Node237&#45;&gt;Node242</title>
<path fill="none" stroke="midnightblue" d="M136.727,-65.2345C131.867,-58.1937 125.027,-48.2843 118.73,-39.162"/>
<polygon fill="midnightblue" stroke="midnightblue" points="121.503,-37.0181 112.942,-30.7764 115.742,-40.9945 121.503,-37.0181"/>
</g>
<!-- Node239 -->
<g id="node7" class="node"><title>Node239</title>
<g id="a_node7"><a xlink:href="endrun_8c.html#a7267113a7c0a094743bb565eabc695d1" target="_top" xlink:title="messagev">
<polygon fill="white" stroke="black" points="490.011,-376.86 490.011,-395.86 552.011,-395.86 552.011,-376.86 490.011,-376.86"/>
<text text-anchor="middle" x="521.011" y="-383.86" font-family="Helvetica,sans-Serif" font-size="10.00">messagev</text>
</a>
</g>
</g>
<!-- Node238&#45;&gt;Node239 -->
<g id="edge6" class="edge"><title>Node238&#45;&gt;Node239</title>
<path fill="none" stroke="midnightblue" d="M450.749,-393.432C459.483,-392.553 469.714,-391.523 479.623,-390.525"/>
<polygon fill="midnightblue" stroke="midnightblue" points="480.157,-393.989 489.756,-389.506 479.456,-387.025 480.157,-393.989"/>
</g>
<!-- Node240 -->
<g id="node8" class="node"><title>Node240</title>
<g id="a_node8"><a xlink:href="endrun_8c.html#a87108946670b4c3afbe846c6726675ff" target="_top" xlink:title="putline">
<polygon fill="white" stroke="black" points="593.039,-329.173 593.039,-348.173 638.039,-348.173 638.039,-329.173 593.039,-329.173"/>
<text text-anchor="middle" x="615.539" y="-336.173" font-family="Helvetica,sans-Serif" font-size="10.00">putline</text>
</a>
</g>
</g>
<!-- Node239&#45;&gt;Node240 -->
<g id="edge7" class="edge"><title>Node239&#45;&gt;Node240</title>
<path fill="none" stroke="midnightblue" d="M540.14,-376.71C553.722,-369.858 572.176,-360.548 587.428,-352.854"/>
<polygon fill="midnightblue" stroke="midnightblue" points="589.087,-355.938 596.438,-348.309 585.934,-349.688 589.087,-355.938"/>
</g>
<!-- Node241 -->
<g id="node9" class="node"><title>Node241</title>
<g id="a_node9"><a xlink:href="endrun_8c.html#a1200f02a595ab7cbe17c9e36ff32af0f" target="_top" xlink:title="show_backtrace">
<polygon fill="white" stroke="black" points="491.464,-481.744 491.464,-500.744 579.464,-500.744 579.464,-481.744 491.464,-481.744"/>
<text text-anchor="middle" x="535.464" y="-488.744" font-family="Helvetica,sans-Serif" font-size="10.00">show_backtrace</text>
</a>
</g>
</g>
<!-- Node239&#45;&gt;Node241 -->
<g id="edge8" class="edge"><title>Node239&#45;&gt;Node241</title>
<path fill="none" stroke="midnightblue" d="M522.345,-396.039C524.7,-413.132 529.64,-448.979 532.741,-471.48"/>
<polygon fill="midnightblue" stroke="midnightblue" points="529.301,-472.159 534.133,-481.588 536.235,-471.203 529.301,-472.159"/>
</g>
<!-- Node247 -->
<g id="node15" class="node"><title>Node247</title>
<g id="a_node15"><a xlink:href="cosmology_8c.html#ac1d39b759a1cfef3faaaa8b46d75bc0a" target="_top" xlink:title="hubble_function">
<polygon fill="white" stroke="black" points="503.131,-174.096 503.131,-193.096 588.131,-193.096 588.131,-174.096 503.131,-174.096"/>
<text text-anchor="middle" x="545.631" y="-181.096" font-family="Helvetica,sans-Serif" font-size="10.00">hubble_function</text>
</a>
</g>
</g>
<!-- Node246&#45;&gt;Node247 -->
<g id="edge15" class="edge"><title>Node246&#45;&gt;Node247</title>
<path fill="none" stroke="midnightblue" d="M497.459,-195.47C497.555,-195.446 497.65,-195.423 497.746,-195.399"/>
<polygon fill="midnightblue" stroke="midnightblue" points="498.084,-198.921 506.955,-193.129 496.408,-192.124 498.084,-198.921"/>
</g>
<!-- Node248 -->
<g id="node16" class="node"><title>Node248</title>
<g id="a_node16"><a xlink:href="cosmology_8c.html#ace7ed7b8c64e751bc0210cc9bb0280b3" target="_top" xlink:title="growth">
<polygon fill="white" stroke="black" points="345.126,-512.304 345.126,-531.304 391.126,-531.304 391.126,-512.304 345.126,-512.304"/>
<text text-anchor="middle" x="368.126" y="-519.304" font-family="Helvetica,sans-Serif" font-size="10.00">growth</text>
</a>
</g>
</g>
<!-- Node247&#45;&gt;Node248 -->
<g id="edge16" class="edge"><title>Node247&#45;&gt;Node248</title>
<path fill="none" stroke="midnightblue" d="M537.634,-193.263C507.286,-239.635 402.408,-438.996 374.65,-502.401"/>
<polygon fill="midnightblue" stroke="midnightblue" points="371.271,-501.409 370.636,-511.985 377.728,-504.113 371.271,-501.409"/>
</g>
<!-- Node250 -->
<g id="node18" class="node"><title>Node250</title>
<g id="a_node18"><a xlink:href="cosmology_8c.html#a54b21ed58c2038abf1c78cda8b5d4bf0" target="_top" xlink:title="OmegaFLD">
<polygon fill="white" stroke="black" points="582.039,-156.866 582.039,-175.866 649.039,-175.866 649.039,-156.866 582.039,-156.866"/>
<text text-anchor="middle" x="615.539" y="-163.866" font-family="Helvetica,sans-Serif" font-size="10.00">OmegaFLD</text>
</a>
</g>
</g>
<!-- Node247&#45;&gt;Node250 -->
<g id="edge21" class="edge"><title>Node247&#45;&gt;Node250</title>
<path fill="none" stroke="midnightblue" d="M584.266,-174.074C584.329,-174.058 584.392,-174.043 584.455,-174.027"/>
<polygon fill="midnightblue" stroke="midnightblue" points="575.774,-179.776 584.644,-173.981 574.096,-172.979 575.774,-179.776"/>
</g>
<!-- Node248&#45;&gt;Node238 -->
<g id="edge17" class="edge"><title>Node248&#45;&gt;Node238</title>
<path fill="none" stroke="midnightblue" d="M372.799,-511.913C382.719,-490.916 406.021,-441.595 418.84,-414.462"/>
<polygon fill="midnightblue" stroke="midnightblue" points="422.083,-415.791 423.19,-405.254 415.754,-412.801 422.083,-415.791"/>
</g>
<!-- Node248&#45;&gt;Node247 -->
<g id="edge20" class="edge"><title>Node248&#45;&gt;Node247</title>
<path fill="none" stroke="midnightblue" d="M376.123,-512.137C406.472,-465.766 511.35,-266.404 539.107,-202.999"/>
<polygon fill="midnightblue" stroke="midnightblue" points="542.486,-203.992 543.121,-193.416 536.03,-201.287 542.486,-203.992"/>
</g>
<!-- Node249 -->
<g id="node17" class="node"><title>Node249</title>
<g id="a_node17"><a xlink:href="cosmology_8c.html#af1fe52807a376f35b61e9db09f4135ae" target="_top" xlink:title="growth_ode">
<polygon fill="white" stroke="black" points="360.158,-579.625 360.158,-598.625 427.158,-598.625 427.158,-579.625 360.158,-579.625"/>
<text text-anchor="middle" x="393.658" y="-586.625" font-family="Helvetica,sans-Serif" font-size="10.00">growth_ode</text>
</a>
</g>
</g>
<!-- Node248&#45;&gt;Node249 -->
<g id="edge18" class="edge"><title>Node248&#45;&gt;Node249</title>
<path fill="none" stroke="midnightblue" d="M371.784,-531.45C375.576,-541.448 381.605,-557.344 386.374,-569.919"/>
<polygon fill="midnightblue" stroke="midnightblue" points="383.188,-571.389 390.006,-579.498 389.733,-568.906 383.188,-571.389"/>
</g>
<!-- Node249&#45;&gt;Node247 -->
<g id="edge19" class="edge"><title>Node249&#45;&gt;Node247</title>
<path fill="none" stroke="midnightblue" d="M397.265,-579.501C416.932,-527.021 511.335,-275.112 538.378,-202.952"/>
<polygon fill="midnightblue" stroke="midnightblue" points="541.759,-203.903 541.991,-193.311 535.204,-201.447 541.759,-203.903"/>
</g>
<!-- Node252 -->
<g id="node20" class="node"><title>Node252</title>
<g id="a_node20"><a xlink:href="timefac_8c.html#a04f496d2bb899efbf6bcd34c606906bd" target="_top" xlink:title="get_gravkick_factor">
<polygon fill="white" stroke="black" points="215,-243.019 215,-262.019 317,-262.019 317,-243.019 215,-243.019"/>
<text text-anchor="middle" x="266" y="-250.019" font-family="Helvetica,sans-Serif" font-size="10.00">get_gravkick_factor</text>
</a>
</g>
</g>
<!-- Node251&#45;&gt;Node252 -->
<g id="edge23" class="edge"><title>Node251&#45;&gt;Node252</title>
<path fill="none" stroke="midnightblue" d="M244.126,-194.844C247.918,-204.842 253.947,-220.739 258.716,-233.313"/>
<polygon fill="midnightblue" stroke="midnightblue" points="255.53,-234.783 262.349,-242.892 262.075,-232.3 255.53,-234.783"/>
</g>
<!-- Node256 -->
<g id="node24" class="node"><title>Node256</title>
<g id="a_node24"><a xlink:href="timefac_8c.html#a9d78f344a7de7062087825becb1f403a" target="_top" xlink:title="get_hydrokick_factor">
<polygon fill="white" stroke="black" points="130.699,-361.529 130.699,-380.529 237.699,-380.529 237.699,-361.529 130.699,-361.529"/>
<text text-anchor="middle" x="184.199" y="-368.529" font-family="Helvetica,sans-Serif" font-size="10.00">get_hydrokick_factor</text>
</a>
</g>
</g>
<!-- Node251&#45;&gt;Node256 -->
<g id="edge28" class="edge"><title>Node251&#45;&gt;Node256</title>
<path fill="none" stroke="midnightblue" d="M237.522,-194.928C228.634,-224.28 201.968,-312.346 190.057,-351.683"/>
<polygon fill="midnightblue" stroke="midnightblue" points="186.664,-350.811 187.116,-361.396 193.364,-352.839 186.664,-350.811"/>
</g>
<!-- Node253 -->
<g id="node21" class="node"><title>Node253</title>
<g id="a_node21"><a xlink:href="timefac_8c.html#a6821c579370313dd41f0f81e8c0b7304" target="_top" xlink:title="find_bin_number">
<polygon fill="white" stroke="black" points="247.532,-310.341 247.532,-329.341 335.532,-329.341 335.532,-310.341 247.532,-310.341"/>
<text text-anchor="middle" x="291.532" y="-317.341" font-family="Helvetica,sans-Serif" font-size="10.00">find_bin_number</text>
</a>
</g>
</g>
<!-- Node252&#45;&gt;Node253 -->
<g id="edge24" class="edge"><title>Node252&#45;&gt;Node253</title>
<path fill="none" stroke="midnightblue" d="M269.658,-262.165C273.45,-272.163 279.479,-288.06 284.248,-300.634"/>
<polygon fill="midnightblue" stroke="midnightblue" points="281.062,-302.104 287.88,-310.213 287.607,-299.622 281.062,-302.104"/>
</g>
<!-- Node254 -->
<g id="node22" class="node"><title>Node254</title>
<g id="a_node22"><a xlink:href="timebinmgr_8c.html#a90eb3a2bdca47035148249e68fc244be" target="_top" xlink:title="loga_from_ti">
<polygon fill="white" stroke="black" points="312.801,-361.529 312.801,-380.529 382.801,-380.529 382.801,-361.529 312.801,-361.529"/>
<text text-anchor="middle" x="347.801" y="-368.529" font-family="Helvetica,sans-Serif" font-size="10.00">loga_from_ti</text>
</a>
</g>
</g>
<!-- Node253&#45;&gt;Node254 -->
<g id="edge25" class="edge"><title>Node253&#45;&gt;Node254</title>
<path fill="none" stroke="midnightblue" d="M302.115,-329.469C309.896,-336.547 320.659,-346.338 329.784,-354.639"/>
<polygon fill="midnightblue" stroke="midnightblue" points="327.512,-357.304 337.265,-361.444 332.223,-352.126 327.512,-357.304"/>
</g>
<!-- Node254&#45;&gt;Node238 -->
<g id="edge26" class="edge"><title>Node254&#45;&gt;Node238</title>
<path fill="none" stroke="midnightblue" d="M378.913,-380.659C384.038,-382.246 389.367,-383.895 394.54,-385.496"/>
<polygon fill="midnightblue" stroke="midnightblue" points="393.611,-388.872 404.198,-388.486 395.681,-382.185 393.611,-388.872"/>
</g>
<!-- Node255 -->
<g id="node23" class="node"><title>Node255</title>
<g id="a_node23"><a xlink:href="timebinmgr_8c.html#a1aaa55e4aa15066a753c96e8646e62be" target="_top" xlink:title="Dloga_interval_ti">
<polygon fill="white" stroke="black" points="195.464,-457.444 195.464,-476.444 284.464,-476.444 284.464,-457.444 195.464,-457.444"/>
<text text-anchor="middle" x="239.964" y="-464.444" font-family="Helvetica,sans-Serif" font-size="10.00">Dloga_interval_ti</text>
</a>
</g>
</g>
<!-- Node254&#45;&gt;Node255 -->
<g id="edge27" class="edge"><title>Node254&#45;&gt;Node255</title>
<path fill="none" stroke="midnightblue" d="M337.067,-380.576C318.658,-396.951 280.865,-430.565 258.24,-450.689"/>
<polygon fill="midnightblue" stroke="midnightblue" points="255.801,-448.174 250.655,-457.436 260.453,-453.405 255.801,-448.174"/>
</g>
<!-- Node256&#45;&gt;Node253 -->
<g id="edge29" class="edge"><title>Node256&#45;&gt;Node253</title>
<path fill="none" stroke="midnightblue" d="M204.136,-361.521C220.449,-353.741 243.756,-342.625 262.199,-333.83"/>
<polygon fill="midnightblue" stroke="midnightblue" points="263.818,-336.935 271.337,-329.472 260.804,-330.617 263.818,-336.935"/>
</g>
</g>
</svg>
