<?xml version="1.0" encoding="UTF-8" standalone="no"?>
<!DOCTYPE svg PUBLIC "-//W3C//DTD SVG 1.1//EN"
 "http://www.w3.org/Graphics/SVG/1.1/DTD/svg11.dtd">
<!-- Generated by graphviz version 2.38.0 (20140413.2041)
 -->
<!-- Title: density_kernel_init Pages: 1 -->
<svg width="606pt" height="532pt"
 viewBox="0.00 0.00 606.33 532.00" xmlns="http://www.w3.org/2000/svg" xmlns:xlink="http://www.w3.org/1999/xlink">
<g id="graph0" class="graph" transform="scale(1 1) rotate(0) translate(4 528)">
<title>density_kernel_init</title>
<polygon fill="white" stroke="none" points="-4,4 -4,-528 602.331,-528 602.331,4 -4,4"/>
<!-- Node29 -->
<g id="node1" class="node"><title>Node29</title>
<polygon fill="#bfbfbf" stroke="black" points="238.915,-288.5 238.915,-307.5 336.915,-307.5 336.915,-288.5 238.915,-288.5"/>
<text text-anchor="middle" x="287.915" y="-295.5" font-family="Helvetica,sans-Serif" font-size="10.00">density_kernel_init</text>
</g>
<!-- Node30 -->
<g id="node2" class="node"><title>Node30</title>
<g id="a_node2"><a xlink:href="density_8c.html#a146d61fe2d2f53ea9b7fabf2ea5e90b7" target="_top" xlink:title="density_ngbiter">
<polygon fill="white" stroke="black" points="282.415,-350.854 282.415,-369.854 365.415,-369.854 365.415,-350.854 282.415,-350.854"/>
<text text-anchor="middle" x="323.915" y="-357.854" font-family="Helvetica,sans-Serif" font-size="10.00">density_ngbiter</text>
</a>
</g>
</g>
<!-- Node29&#45;&gt;Node30 -->
<g id="edge1" class="edge"><title>Node29&#45;&gt;Node30</title>
<path fill="none" stroke="midnightblue" d="M298.694,-316.67C305.106,-327.776 312.984,-341.42 318.211,-350.474"/>
<polygon fill="midnightblue" stroke="midnightblue" points="301.571,-314.653 293.54,-307.743 295.509,-318.153 301.571,-314.653"/>
</g>
<!-- Node42 -->
<g id="node14" class="node"><title>Node42</title>
<g id="a_node14"><a xlink:href="hydra_8c.html#a573da066bd5ea955c89ec5250d472bbb" target="_top" xlink:title="hydro_ngbiter">
<polygon fill="white" stroke="black" points="188.061,-324.5 188.061,-343.5 263.061,-343.5 263.061,-324.5 188.061,-324.5"/>
<text text-anchor="middle" x="225.561" y="-331.5" font-family="Helvetica,sans-Serif" font-size="10.00">hydro_ngbiter</text>
</a>
</g>
</g>
<!-- Node29&#45;&gt;Node42 -->
<g id="edge16" class="edge"><title>Node29&#45;&gt;Node42</title>
<path fill="none" stroke="midnightblue" d="M262.345,-312.763C255.59,-316.663 248.473,-320.772 242.317,-324.326"/>
<polygon fill="midnightblue" stroke="midnightblue" points="264.295,-315.678 271.206,-307.647 260.795,-309.616 264.295,-315.678"/>
</g>
<!-- Node44 -->
<g id="node16" class="node"><title>Node44</title>
<g id="a_node16"><a xlink:href="param_8h.html#a952eae1977b498c4fdfabed1742a3ba2" target="_top" xlink:title="read_parameter_file">
<polygon fill="white" stroke="black" points="236.915,-216.5 236.915,-235.5 338.915,-235.5 338.915,-216.5 236.915,-216.5"/>
<text text-anchor="middle" x="287.915" y="-223.5" font-family="Helvetica,sans-Serif" font-size="10.00">read_parameter_file</text>
</a>
</g>
</g>
<!-- Node29&#45;&gt;Node44 -->
<g id="edge19" class="edge"><title>Node29&#45;&gt;Node44</title>
<path fill="none" stroke="midnightblue" d="M287.915,-278.243C287.915,-264.357 287.915,-246.393 287.915,-235.556"/>
<polygon fill="midnightblue" stroke="midnightblue" points="284.415,-278.29 287.915,-288.29 291.415,-278.29 284.415,-278.29"/>
</g>
<!-- Node31 -->
<g id="node3" class="node"><title>Node31</title>
<g id="a_node3"><a xlink:href="density_8c.html#a69886540d0642590a0022fc14ce61f06" target="_top" xlink:title="density_internal">
<polygon fill="white" stroke="black" points="317.415,-413.208 317.415,-432.208 402.415,-432.208 402.415,-413.208 317.415,-413.208"/>
<text text-anchor="middle" x="359.915" y="-420.208" font-family="Helvetica,sans-Serif" font-size="10.00">density_internal</text>
</a>
</g>
</g>
<!-- Node30&#45;&gt;Node31 -->
<g id="edge2" class="edge"><title>Node30&#45;&gt;Node31</title>
<path fill="none" stroke="midnightblue" d="M334.694,-379.024C341.106,-390.13 348.984,-403.774 354.211,-412.828"/>
<polygon fill="midnightblue" stroke="midnightblue" points="337.571,-377.007 329.54,-370.097 331.509,-380.507 337.571,-377.007"/>
</g>
<!-- Node32 -->
<g id="node4" class="node"><title>Node32</title>
<g id="a_node4"><a xlink:href="proto_8h.html#a8ce8ad3893801ac7d380efd9b7ef26d3" target="_top" xlink:title="density">
<polygon fill="white" stroke="black" points="450.977,-396.5 450.977,-415.5 498.977,-415.5 498.977,-396.5 450.977,-396.5"/>
<text text-anchor="middle" x="474.977" y="-403.5" font-family="Helvetica,sans-Serif" font-size="10.00">density</text>
</a>
</g>
</g>
<!-- Node31&#45;&gt;Node32 -->
<g id="edge3" class="edge"><title>Node31&#45;&gt;Node32</title>
<path fill="none" stroke="midnightblue" d="M412.507,-415.071C425.833,-413.136 439.516,-411.149 450.666,-409.53"/>
<polygon fill="midnightblue" stroke="midnightblue" points="411.826,-411.633 402.433,-416.534 412.832,-418.56 411.826,-411.633"/>
</g>
<!-- Node41 -->
<g id="node13" class="node"><title>Node41</title>
<g id="a_node13"><a xlink:href="proto_8h.html#a137ca78a0bd40fa7a75438e90e4f66a8" target="_top" xlink:title="density_update">
<polygon fill="white" stroke="black" points="246.415,-504.5 246.415,-523.5 329.415,-523.5 329.415,-504.5 246.415,-504.5"/>
<text text-anchor="middle" x="287.915" y="-511.5" font-family="Helvetica,sans-Serif" font-size="10.00">density_update</text>
</a>
</g>
</g>
<!-- Node31&#45;&gt;Node41 -->
<g id="edge14" class="edge"><title>Node31&#45;&gt;Node41</title>
<path fill="none" stroke="midnightblue" d="M345.96,-440.403C330.924,-459.467 307.548,-489.107 295.565,-504.3"/>
<polygon fill="midnightblue" stroke="midnightblue" points="348.766,-442.497 352.21,-432.478 343.269,-438.162 348.766,-442.497"/>
</g>
<!-- Node33 -->
<g id="node5" class="node"><title>Node33</title>
<g id="a_node5"><a xlink:href="init_8c.html#a643ef34b585446f8ccbbf3239df2db71" target="_top" xlink:title="setup_smoothinglengths">
<polygon fill="white" stroke="black" points="476.331,-432.5 476.331,-451.5 598.331,-451.5 598.331,-432.5 476.331,-432.5"/>
<text text-anchor="middle" x="537.331" y="-439.5" font-family="Helvetica,sans-Serif" font-size="10.00">setup_smoothinglengths</text>
</a>
</g>
</g>
<!-- Node32&#45;&gt;Node33 -->
<g id="edge4" class="edge"><title>Node32&#45;&gt;Node33</title>
<path fill="none" stroke="midnightblue" d="M500.548,-420.763C507.302,-424.663 514.419,-428.772 520.575,-432.326"/>
<polygon fill="midnightblue" stroke="midnightblue" points="502.097,-417.616 491.686,-415.647 498.597,-423.678 502.097,-417.616"/>
</g>
<!-- Node40 -->
<g id="node12" class="node"><title>Node40</title>
<g id="a_node12"><a xlink:href="run_8c.html#abb80d08f4d52f4a7bdf28d1cecfead5b" target="_top" xlink:title="compute_accelerations">
<polygon fill="white" stroke="black" points="42.3538,-396.5 42.3538,-415.5 159.354,-415.5 159.354,-396.5 42.3538,-396.5"/>
<text text-anchor="middle" x="100.854" y="-403.5" font-family="Helvetica,sans-Serif" font-size="10.00">compute_accelerations</text>
</a>
</g>
</g>
<!-- Node32&#45;&gt;Node40 -->
<g id="edge12" class="edge"><title>Node32&#45;&gt;Node40</title>
<path fill="none" stroke="midnightblue" d="M440.364,-406C376.295,-406 238.573,-406 159.638,-406"/>
<polygon fill="midnightblue" stroke="midnightblue" points="440.718,-409.5 450.718,-406 440.718,-402.5 440.718,-409.5"/>
</g>
<!-- Node34 -->
<g id="node6" class="node"><title>Node34</title>
<g id="a_node6"><a xlink:href="proto_8h.html#ab080cb20bac2a1a6153a84e8cfd15374" target="_top" xlink:title="init">
<polygon fill="white" stroke="black" points="273.415,-0.5 273.415,-19.5 302.415,-19.5 302.415,-0.5 273.415,-0.5"/>
<text text-anchor="middle" x="287.915" y="-7.5" font-family="Helvetica,sans-Serif" font-size="10.00">init</text>
</a>
</g>
</g>
<!-- Node33&#45;&gt;Node34 -->
<g id="edge5" class="edge"><title>Node33&#45;&gt;Node34</title>
<path fill="none" stroke="midnightblue" d="M526.592,-423.4C483.67,-349.057 325.227,-74.6262 293.476,-19.6318"/>
<polygon fill="midnightblue" stroke="midnightblue" points="523.621,-425.255 531.653,-432.165 529.684,-421.755 523.621,-425.255"/>
</g>
<!-- Node35 -->
<g id="node7" class="node"><title>Node35</title>
<g id="a_node7"><a xlink:href="proto_8h.html#a74dc0e5e9eefe11fc8434b62de573146" target="_top" xlink:title="begrun">
<polygon fill="white" stroke="black" points="264.915,-72.5 264.915,-91.5 310.915,-91.5 310.915,-72.5 264.915,-72.5"/>
<text text-anchor="middle" x="287.915" y="-79.5" font-family="Helvetica,sans-Serif" font-size="10.00">begrun</text>
</a>
</g>
</g>
<!-- Node34&#45;&gt;Node35 -->
<g id="edge6" class="edge"><title>Node34&#45;&gt;Node35</title>
<path fill="none" stroke="midnightblue" d="M287.915,-29.7574C287.915,-43.6427 287.915,-61.607 287.915,-72.4436"/>
<polygon fill="midnightblue" stroke="midnightblue" points="291.415,-29.7102 287.915,-19.7102 284.415,-29.7103 291.415,-29.7102"/>
</g>
<!-- Node36 -->
<g id="node8" class="node"><title>Node36</title>
<g id="a_node8"><a xlink:href="main_8c.html#a3c04138a5bfe5d72780bb7e82a18e627" target="_top" xlink:title="main">
<polygon fill="white" stroke="black" points="268.915,-144.5 268.915,-163.5 306.915,-163.5 306.915,-144.5 268.915,-144.5"/>
<text text-anchor="middle" x="287.915" y="-151.5" font-family="Helvetica,sans-Serif" font-size="10.00">main</text>
</a>
</g>
</g>
<!-- Node35&#45;&gt;Node36 -->
<g id="edge7" class="edge"><title>Node35&#45;&gt;Node36</title>
<path fill="none" stroke="midnightblue" d="M287.915,-101.757C287.915,-115.643 287.915,-133.607 287.915,-144.444"/>
<polygon fill="midnightblue" stroke="midnightblue" points="291.415,-101.71 287.915,-91.7102 284.415,-101.71 291.415,-101.71"/>
</g>
<!-- Node37 -->
<g id="node9" class="node"><title>Node37</title>
<g id="a_node9"><a xlink:href="walltime_8h.html#a76d2135b612766d4d665748454b879d6" target="_top" xlink:title="walltime_report">
<polygon fill="white" stroke="black" points="59.3538,-180.5 59.3538,-199.5 142.354,-199.5 142.354,-180.5 59.3538,-180.5"/>
<text text-anchor="middle" x="100.854" y="-187.5" font-family="Helvetica,sans-Serif" font-size="10.00">walltime_report</text>
</a>
</g>
</g>
<!-- Node36&#45;&gt;Node37 -->
<g id="edge8" class="edge"><title>Node36&#45;&gt;Node37</title>
<path fill="none" stroke="midnightblue" d="M258.777,-159.608C227.565,-165.614 177.764,-175.199 142.44,-181.997"/>
<polygon fill="midnightblue" stroke="midnightblue" points="259.443,-163.044 268.601,-157.717 258.12,-156.17 259.443,-163.044"/>
</g>
<!-- Node38 -->
<g id="node10" class="node"><title>Node38</title>
<g id="a_node10"><a xlink:href="run_8c.html#adc59e9ee1517e4e690694a64ab6a59d2" target="_top" xlink:title="write_cpu_log">
<polygon fill="white" stroke="black" points="7.10543e-15,-144.5 7.10543e-15,-163.5 77,-163.5 77,-144.5 7.10543e-15,-144.5"/>
<text text-anchor="middle" x="38.5" y="-151.5" font-family="Helvetica,sans-Serif" font-size="10.00">write_cpu_log</text>
</a>
</g>
</g>
<!-- Node37&#45;&gt;Node38 -->
<g id="edge9" class="edge"><title>Node37&#45;&gt;Node38</title>
<path fill="none" stroke="midnightblue" d="M75.283,-175.237C68.5287,-171.337 61.4113,-167.228 55.2558,-163.674"/>
<polygon fill="midnightblue" stroke="midnightblue" points="73.7339,-178.384 84.1441,-180.353 77.2339,-172.322 73.7339,-178.384"/>
</g>
<!-- Node39 -->
<g id="node11" class="node"><title>Node39</title>
<g id="a_node11"><a xlink:href="run_8c.html#a05e0ffe612d44e6d7f3a9ae5b9df56a2" target="_top" xlink:title="run">
<polygon fill="white" stroke="black" points="459.977,-180.5 459.977,-199.5 489.977,-199.5 489.977,-180.5 459.977,-180.5"/>
<text text-anchor="middle" x="474.977" y="-187.5" font-family="Helvetica,sans-Serif" font-size="10.00">run</text>
</a>
</g>
</g>
<!-- Node38&#45;&gt;Node39 -->
<g id="edge10" class="edge"><title>Node38&#45;&gt;Node39</title>
<path fill="none" stroke="midnightblue" d="M87.4559,-158.038C185.375,-166.114 401.014,-183.9 459.877,-188.755"/>
<polygon fill="midnightblue" stroke="midnightblue" points="87.4883,-154.529 77.2344,-157.195 86.9128,-161.505 87.4883,-154.529"/>
</g>
<!-- Node39&#45;&gt;Node36 -->
<g id="edge11" class="edge"><title>Node39&#45;&gt;Node36</title>
<path fill="none" stroke="midnightblue" d="M449.435,-185.084C411.437,-177.772 340.874,-164.192 307.013,-157.675"/>
<polygon fill="midnightblue" stroke="midnightblue" points="449.188,-188.601 459.669,-187.054 450.51,-181.727 449.188,-188.601"/>
</g>
<!-- Node40&#45;&gt;Node39 -->
<g id="edge13" class="edge"><title>Node40&#45;&gt;Node39</title>
<path fill="none" stroke="midnightblue" d="M126.3,-391.308C198.404,-349.68 402.553,-231.814 459.854,-198.731"/>
<polygon fill="midnightblue" stroke="midnightblue" points="124.322,-388.409 117.412,-396.44 127.822,-394.471 124.322,-388.409"/>
</g>
<!-- Node41&#45;&gt;Node33 -->
<g id="edge15" class="edge"><title>Node41&#45;&gt;Node33</title>
<path fill="none" stroke="midnightblue" d="M330.735,-501.639C379.861,-487.458 459.373,-464.505 504.073,-451.601"/>
<polygon fill="midnightblue" stroke="midnightblue" points="329.673,-498.303 321.036,-504.439 331.614,-505.028 329.673,-498.303"/>
</g>
<!-- Node43 -->
<g id="node15" class="node"><title>Node43</title>
<g id="a_node15"><a xlink:href="hydra_8h.html#a6789381bce7d1c316df8ecf04b47a607" target="_top" xlink:title="hydro_force">
<polygon fill="white" stroke="black" points="129.208,-360.5 129.208,-379.5 197.208,-379.5 197.208,-360.5 129.208,-360.5"/>
<text text-anchor="middle" x="163.208" y="-367.5" font-family="Helvetica,sans-Serif" font-size="10.00">hydro_force</text>
</a>
</g>
</g>
<!-- Node42&#45;&gt;Node43 -->
<g id="edge17" class="edge"><title>Node42&#45;&gt;Node43</title>
<path fill="none" stroke="midnightblue" d="M199.991,-348.763C193.236,-352.663 186.119,-356.772 179.963,-360.326"/>
<polygon fill="midnightblue" stroke="midnightblue" points="201.942,-351.678 208.852,-343.647 198.442,-345.616 201.942,-351.678"/>
</g>
<!-- Node43&#45;&gt;Node40 -->
<g id="edge18" class="edge"><title>Node43&#45;&gt;Node40</title>
<path fill="none" stroke="midnightblue" d="M137.637,-384.763C130.882,-388.663 123.765,-392.772 117.61,-396.326"/>
<polygon fill="midnightblue" stroke="midnightblue" points="139.588,-387.678 146.498,-379.647 136.088,-381.616 139.588,-387.678"/>
</g>
<!-- Node44&#45;&gt;Node36 -->
<g id="edge20" class="edge"><title>Node44&#45;&gt;Node36</title>
<path fill="none" stroke="midnightblue" d="M287.915,-206.243C287.915,-192.357 287.915,-174.393 287.915,-163.556"/>
<polygon fill="midnightblue" stroke="midnightblue" points="284.415,-206.29 287.915,-216.29 291.415,-206.29 284.415,-206.29"/>
</g>
</g>
</svg>
