<?xml version="1.0" encoding="UTF-8" standalone="no"?>
<!DOCTYPE svg PUBLIC "-//W3C//DTD SVG 1.1//EN"
 "http://www.w3.org/Graphics/SVG/1.1/DTD/svg11.dtd">
<!-- Generated by graphviz version 2.38.0 (20140413.2041)
 -->
<!-- Title: densitykernel.c Pages: 1 -->
<svg width="414pt" height="373pt"
 viewBox="0.00 0.00 413.79 372.91" xmlns="http://www.w3.org/2000/svg" xmlns:xlink="http://www.w3.org/1999/xlink">
<g id="graph0" class="graph" transform="scale(1 1) rotate(0) translate(4 368.914)">
<title>densitykernel.c</title>
<polygon fill="white" stroke="none" points="-4,4 -4,-368.914 409.786,-368.914 409.786,4 -4,4"/>
<!-- Node0 -->
<g id="node1" class="node"><title>Node0</title>
<polygon fill="#bfbfbf" stroke="black" points="236,-202.464 236,-221.464 319,-221.464 319,-202.464 236,-202.464"/>
<text text-anchor="middle" x="277.5" y="-209.464" font-family="Helvetica,sans-Serif" font-size="10.00">densitykernel.c</text>
</g>
<!-- Node1 -->
<g id="node2" class="node"><title>Node1</title>
<polygon fill="white" stroke="#bfbfbf" points="323.908,-219.694 323.908,-238.694 370.908,-238.694 370.908,-219.694 323.908,-219.694"/>
<text text-anchor="middle" x="347.408" y="-226.694" font-family="Helvetica,sans-Serif" font-size="10.00">math.h</text>
</g>
<!-- Node0&#45;&gt;Node1 -->
<g id="edge1" class="edge"><title>Node0&#45;&gt;Node1</title>
<path fill="none" stroke="midnightblue" d="M316.134,-221.486C316.292,-221.525 316.45,-221.564 316.608,-221.603"/>
<polygon fill="midnightblue" stroke="midnightblue" points="313.035,-224.327 323.582,-223.322 314.71,-217.53 313.035,-224.327"/>
</g>
<!-- Node2 -->
<g id="node3" class="node"><title>Node2</title>
<g id="a_node3"><a xlink:href="allvars_8h.html" target="_top" xlink:title="declares global variables. ">
<polygon fill="white" stroke="black" points="181.092,-219.694 181.092,-238.694 234.092,-238.694 234.092,-219.694 181.092,-219.694"/>
<text text-anchor="middle" x="207.592" y="-226.694" font-family="Helvetica,sans-Serif" font-size="10.00">allvars.h</text>
</a>
</g>
</g>
<!-- Node0&#45;&gt;Node2 -->
<g id="edge2" class="edge"><title>Node0&#45;&gt;Node2</title>
<path fill="none" stroke="midnightblue" d="M238.866,-221.486C238.771,-221.509 238.676,-221.533 238.582,-221.556"/>
<polygon fill="midnightblue" stroke="midnightblue" points="243.23,-216.805 234.358,-222.597 244.905,-223.602 243.23,-216.805"/>
</g>
<!-- Node15 -->
<g id="node16" class="node"><title>Node15</title>
<g id="a_node16"><a xlink:href="densitykernel_8h.html" target="_top" xlink:title="densitykernel.h">
<polygon fill="white" stroke="black" points="289.893,-154.719 289.893,-173.719 372.893,-173.719 372.893,-154.719 289.893,-154.719"/>
<text text-anchor="middle" x="331.393" y="-161.719" font-family="Helvetica,sans-Serif" font-size="10.00">densitykernel.h</text>
</a>
</g>
</g>
<!-- Node0&#45;&gt;Node15 -->
<g id="edge15" class="edge"><title>Node0&#45;&gt;Node15</title>
<path fill="none" stroke="midnightblue" d="M288.406,-202.302C295.419,-196.089 304.71,-187.858 312.86,-180.637"/>
<polygon fill="midnightblue" stroke="midnightblue" points="315.339,-183.117 320.503,-173.866 310.697,-177.878 315.339,-183.117"/>
</g>
<!-- Node16 -->
<g id="node17" class="node"><title>Node16</title>
<g id="a_node17"><a xlink:href="endrun_8h.html" target="_top" xlink:title="endrun.h">
<polygon fill="white" stroke="black" points="320.408,-185.233 320.408,-204.233 374.408,-204.233 374.408,-185.233 320.408,-185.233"/>
<text text-anchor="middle" x="347.408" y="-192.233" font-family="Helvetica,sans-Serif" font-size="10.00">endrun.h</text>
</a>
</g>
</g>
<!-- Node0&#45;&gt;Node16 -->
<g id="edge16" class="edge"><title>Node0&#45;&gt;Node16</title>
<path fill="none" stroke="midnightblue" d="M316.134,-202.441C316.221,-202.42 316.308,-202.398 316.395,-202.377"/>
<polygon fill="midnightblue" stroke="midnightblue" points="311.398,-207.213 320.27,-201.422 309.723,-200.417 311.398,-207.213"/>
</g>
<!-- Node3 -->
<g id="node4" class="node"><title>Node3</title>
<polygon fill="white" stroke="#bfbfbf" points="364.786,-297.953 364.786,-316.953 405.786,-316.953 405.786,-297.953 364.786,-297.953"/>
<text text-anchor="middle" x="385.286" y="-304.953" font-family="Helvetica,sans-Serif" font-size="10.00">mpi.h</text>
</g>
<!-- Node2&#45;&gt;Node3 -->
<g id="edge3" class="edge"><title>Node2&#45;&gt;Node3</title>
<path fill="none" stroke="midnightblue" d="M229.381,-238.79C260.978,-252.706 319.627,-278.536 355.288,-294.242"/>
<polygon fill="midnightblue" stroke="midnightblue" points="354.133,-297.558 364.696,-298.385 356.955,-291.151 354.133,-297.558"/>
</g>
<!-- Node4 -->
<g id="node5" class="node"><title>Node4</title>
<polygon fill="white" stroke="#bfbfbf" points="305.563,-337.106 305.563,-356.106 351.563,-356.106 351.563,-337.106 305.563,-337.106"/>
<text text-anchor="middle" x="328.563" y="-344.106" font-family="Helvetica,sans-Serif" font-size="10.00">stdio.h</text>
</g>
<!-- Node2&#45;&gt;Node4 -->
<g id="edge4" class="edge"><title>Node2&#45;&gt;Node4</title>
<path fill="none" stroke="midnightblue" d="M217.492,-238.803C238.049,-258.755 285.587,-304.894 311.301,-329.852"/>
<polygon fill="midnightblue" stroke="midnightblue" points="308.913,-332.412 318.527,-336.865 313.789,-327.389 308.913,-332.412"/>
</g>
<!-- Node5 -->
<g id="node6" class="node"><title>Node5</title>
<polygon fill="white" stroke="#bfbfbf" points="224.143,-345.414 224.143,-364.414 296.143,-364.414 296.143,-345.414 224.143,-345.414"/>
<text text-anchor="middle" x="260.143" y="-352.414" font-family="Helvetica,sans-Serif" font-size="10.00">gsl/gsl_rng.h</text>
</g>
<!-- Node2&#45;&gt;Node5 -->
<g id="edge5" class="edge"><title>Node2&#45;&gt;Node5</title>
<path fill="none" stroke="midnightblue" d="M211.716,-239.059C220.426,-259.898 240.83,-308.711 252.176,-335.855"/>
<polygon fill="midnightblue" stroke="midnightblue" points="248.952,-337.218 256.038,-345.094 255.411,-334.518 248.952,-337.218"/>
</g>
<!-- Node6 -->
<g id="node7" class="node"><title>Node6</title>
<polygon fill="white" stroke="#bfbfbf" points="170.699,-320.973 170.699,-339.973 220.699,-339.973 220.699,-320.973 170.699,-320.973"/>
<text text-anchor="middle" x="195.699" y="-327.973" font-family="Helvetica,sans-Serif" font-size="10.00">signal.h</text>
</g>
<!-- Node2&#45;&gt;Node6 -->
<g id="edge6" class="edge"><title>Node2&#45;&gt;Node6</title>
<path fill="none" stroke="midnightblue" d="M206.452,-238.905C204.511,-255.432 200.53,-289.332 197.994,-310.926"/>
<polygon fill="midnightblue" stroke="midnightblue" points="194.509,-310.599 196.818,-320.939 201.461,-311.416 194.509,-310.599"/>
</g>
<!-- Node7 -->
<g id="node8" class="node"><title>Node7</title>
<g id="a_node8"><a xlink:href="cosmology_8h.html" target="_top" xlink:title="cosmology.h">
<polygon fill="white" stroke="black" points="101.684,-236.925 101.684,-255.925 173.684,-255.925 173.684,-236.925 101.684,-236.925"/>
<text text-anchor="middle" x="137.684" y="-243.925" font-family="Helvetica,sans-Serif" font-size="10.00">cosmology.h</text>
</a>
</g>
</g>
<!-- Node2&#45;&gt;Node7 -->
<g id="edge7" class="edge"><title>Node2&#45;&gt;Node7</title>
<path fill="none" stroke="midnightblue" d="M180.764,-235.807C180.62,-235.842 180.475,-235.878 180.33,-235.914"/>
<polygon fill="midnightblue" stroke="midnightblue" points="182.598,-231.75 173.726,-237.541 184.273,-238.546 182.598,-231.75"/>
</g>
<!-- Node10 -->
<g id="node11" class="node"><title>Node10</title>
<g id="a_node11"><a xlink:href="walltime_8h.html" target="_top" xlink:title="walltime.h">
<polygon fill="white" stroke="black" points="119.494,-135.543 119.494,-154.543 180.494,-154.543 180.494,-135.543 119.494,-135.543"/>
<text text-anchor="middle" x="149.994" y="-142.543" font-family="Helvetica,sans-Serif" font-size="10.00">walltime.h</text>
</a>
</g>
</g>
<!-- Node2&#45;&gt;Node10 -->
<g id="edge10" class="edge"><title>Node2&#45;&gt;Node10</title>
<path fill="none" stroke="midnightblue" d="M200.985,-219.541C191.611,-205.845 174.276,-180.519 162.445,-163.234"/>
<polygon fill="midnightblue" stroke="midnightblue" points="165.061,-160.859 156.524,-154.584 159.285,-164.813 165.061,-160.859"/>
</g>
<!-- Node11 -->
<g id="node12" class="node"><title>Node11</title>
<polygon fill="white" stroke="#bfbfbf" points="169.699,-83.9538 169.699,-102.954 221.699,-102.954 221.699,-83.9538 169.699,-83.9538"/>
<text text-anchor="middle" x="195.699" y="-90.9538" font-family="Helvetica,sans-Serif" font-size="10.00">assert.h</text>
</g>
<!-- Node2&#45;&gt;Node11 -->
<g id="edge11" class="edge"><title>Node2&#45;&gt;Node11</title>
<path fill="none" stroke="midnightblue" d="M206.737,-219.432C204.8,-197.322 200.044,-143.05 197.452,-113.469"/>
<polygon fill="midnightblue" stroke="midnightblue" points="200.906,-112.784 196.546,-103.127 193.933,-113.395 200.906,-112.784"/>
</g>
<!-- Node12 -->
<g id="node13" class="node"><title>Node12</title>
<g id="a_node13"><a xlink:href="physconst_8h.html" target="_top" xlink:title="physconst.h">
<polygon fill="white" stroke="black" points="225.143,-59.5134 225.143,-78.5134 295.143,-78.5134 295.143,-59.5134 225.143,-59.5134"/>
<text text-anchor="middle" x="260.143" y="-66.5134" font-family="Helvetica,sans-Serif" font-size="10.00">physconst.h</text>
</a>
</g>
</g>
<!-- Node2&#45;&gt;Node12 -->
<g id="edge12" class="edge"><title>Node2&#45;&gt;Node12</title>
<path fill="none" stroke="midnightblue" d="M210.722,-219.654C219.136,-194.007 242.371,-123.185 253.727,-88.5696"/>
<polygon fill="midnightblue" stroke="midnightblue" points="257.171,-89.2991 256.963,-78.7063 250.52,-87.117 257.171,-89.2991"/>
</g>
<!-- Node13 -->
<g id="node14" class="node"><title>Node13</title>
<g id="a_node14"><a xlink:href="types_8h.html" target="_top" xlink:title="types.h">
<polygon fill="white" stroke="black" points="304.063,-67.8212 304.063,-86.8212 353.063,-86.8212 353.063,-67.8212 304.063,-67.8212"/>
<text text-anchor="middle" x="328.563" y="-74.8212" font-family="Helvetica,sans-Serif" font-size="10.00">types.h</text>
</a>
</g>
</g>
<!-- Node2&#45;&gt;Node13 -->
<g id="edge13" class="edge"><title>Node2&#45;&gt;Node13</title>
<path fill="none" stroke="midnightblue" d="M215.159,-219.694C234.923,-194.882 288.342,-127.817 314.18,-95.3782"/>
<polygon fill="midnightblue" stroke="midnightblue" points="317.193,-97.2135 320.686,-87.211 311.718,-92.8523 317.193,-97.2135"/>
</g>
<!-- Node8 -->
<g id="node9" class="node"><title>Node8</title>
<polygon fill="white" stroke="#bfbfbf" points="60.2415,-302.844 60.2415,-321.844 112.241,-321.844 112.241,-302.844 60.2415,-302.844"/>
<text text-anchor="middle" x="86.2415" y="-309.844" font-family="Helvetica,sans-Serif" font-size="10.00">stddef.h</text>
</g>
<!-- Node7&#45;&gt;Node8 -->
<g id="edge8" class="edge"><title>Node7&#45;&gt;Node8</title>
<path fill="none" stroke="midnightblue" d="M130.094,-256.152C122.267,-266.18 109.884,-282.048 100.27,-294.368"/>
<polygon fill="midnightblue" stroke="midnightblue" points="97.2563,-292.54 93.8632,-302.577 102.775,-296.847 97.2563,-292.54"/>
</g>
<!-- Node9 -->
<g id="node10" class="node"><title>Node9</title>
<polygon fill="white" stroke="#bfbfbf" points="-1.42109e-14,-196.964 -1.42109e-14,-226.964 123,-226.964 123,-196.964 -1.42109e-14,-196.964"/>
<text text-anchor="start" x="8" y="-214.964" font-family="Helvetica,sans-Serif" font-size="10.00">kspace&#45;neutrinos/omega</text>
<text text-anchor="middle" x="61.5" y="-203.964" font-family="Helvetica,sans-Serif" font-size="10.00">_nu_single.h</text>
</g>
<!-- Node7&#45;&gt;Node9 -->
<g id="edge9" class="edge"><title>Node7&#45;&gt;Node9</title>
<path fill="none" stroke="midnightblue" d="M116.463,-236.826C112.594,-235.075 108.434,-233.194 104.197,-231.277"/>
<polygon fill="midnightblue" stroke="midnightblue" points="105.435,-227.996 94.8809,-227.063 102.55,-234.374 105.435,-227.996"/>
</g>
<!-- Node14 -->
<g id="node15" class="node"><title>Node14</title>
<polygon fill="white" stroke="#bfbfbf" points="329.595,-0.5 329.595,-19.5 378.595,-19.5 378.595,-0.5 329.595,-0.5"/>
<text text-anchor="middle" x="354.095" y="-7.5" font-family="Helvetica,sans-Serif" font-size="10.00">stdint.h</text>
</g>
<!-- Node13&#45;&gt;Node14 -->
<g id="edge14" class="edge"><title>Node13&#45;&gt;Node14</title>
<path fill="none" stroke="midnightblue" d="M332.221,-67.6757C336.013,-57.6774 342.042,-41.7808 346.811,-29.2064"/>
<polygon fill="midnightblue" stroke="midnightblue" points="350.17,-30.2189 350.443,-19.6276 343.625,-27.7366 350.17,-30.2189"/>
</g>
</g>
</svg>
