<?xml version="1.0" encoding="UTF-8" standalone="no"?>
<!DOCTYPE svg PUBLIC "-//W3C//DTD SVG 1.1//EN"
 "http://www.w3.org/Graphics/SVG/1.1/DTD/svg11.dtd">
<!-- Generated by graphviz version 2.38.0 (20140413.2041)
 -->
<!-- Title: density_kernel_init_with_type Pages: 1 -->
<!--zoomable 682 -->
<svg id="main" version="1.1" xmlns="http://www.w3.org/2000/svg" xmlns:xlink="http://www.w3.org/1999/xlink" xml:space="preserve" onload="init(evt)">
<style type="text/css"><![CDATA[
.edge:hover path { stroke: red; }
.edge:hover polygon { stroke: red; fill: red; }
]]></style>
<script type="text/javascript"><![CDATA[
var edges = document.getElementsByTagName('g');
if (edges && edges.length) {
  for (var i=0;i<edges.length;i++) {
    if (edges[i].id.substr(0,4)=='edge') {
      edges[i].setAttribute('class','edge');
    }
  }
}
]]></script>
        <defs>
                <circle id="rim" cx="0" cy="0" r="7"/>
                <circle id="rim2" cx="0" cy="0" r="3.5"/>
                <g id="zoomPlus">
                        <use xlink:href="#rim" fill="#404040">
                                <set attributeName="fill" to="#808080" begin="zoomplus.mouseover" end="zoomplus.mouseout"/>
                        </use>
                        <path d="M-4,0h8M0,-4v8" fill="none" stroke="white" stroke-width="1.5" pointer-events="none"/>
                </g>
                <g id="zoomMin">
                        <use xlink:href="#rim" fill="#404040">
                                <set attributeName="fill" to="#808080" begin="zoomminus.mouseover" end="zoomminus.mouseout"/>
                        </use>
                        <path d="M-4,0h8" fill="none" stroke="white" stroke-width="1.5" pointer-events="none"/>
                </g>
                <g id="dirArrow">
                        <path fill="none" stroke="white" stroke-width="1.5" d="M0,-3.0v7 M-2.5,-0.5L0,-3.0L2.5,-0.5"/>
                </g>
               <g id="resetDef">
                       <use xlink:href="#rim2" fill="#404040">
                               <set attributeName="fill" to="#808080" begin="reset.mouseover" end="reset.mouseout"/>
                       </use>
               </g>
        </defs>

<script type="text/javascript">
var viewWidth = 587;
var viewHeight = 682;
var sectionId = 'dynsection-5';
</script>
<script xlink:href="svgpan.js"/>
<svg id="graph" class="graph">
<g id="viewport">
<title>density_kernel_init_with_type</title>
<polygon fill="white" stroke="none" points="-4,4 -4,-677.5 582.831,-677.5 582.831,4 -4,4"/>
<!-- Node46 -->
<g id="node1" class="node"><title>Node46</title>
<polygon fill="#bfbfbf" stroke="black" points="238.915,-0.5 238.915,-30.5 336.915,-30.5 336.915,-0.5 238.915,-0.5"/>
<text text-anchor="start" x="246.915" y="-18.5" font-family="Helvetica,sans-Serif" font-size="10.00">density_kernel_init</text>
<text text-anchor="middle" x="287.915" y="-7.5" font-family="Helvetica,sans-Serif" font-size="10.00">_with_type</text>
</g>
<!-- Node47 -->
<g id="node2" class="node"><title>Node47</title>
<g id="a_node2"><a xlink:href="densitykernel_8h.html#ad60b1f36f3eae1dd499c32554c3328e3" target="_top" xlink:title="density_kernel_init">
<polygon fill="white" stroke="black" points="238.915,-78 238.915,-97 336.915,-97 336.915,-78 238.915,-78"/>
<text text-anchor="middle" x="287.915" y="-85" font-family="Helvetica,sans-Serif" font-size="10.00">density_kernel_init</text>
</a>
</g>
</g>
<!-- Node46&#45;&gt;Node47 -->
<g id="edge1" class="edge"><title>Node46&#45;&gt;Node47</title>
<path fill="none" stroke="midnightblue" d="M287.915,-40.8663C287.915,-53.6237 287.915,-68.3384 287.915,-77.771"/>
<polygon fill="midnightblue" stroke="midnightblue" points="291.415,-40.7693 287.915,-30.7693 284.415,-40.7694 291.415,-40.7693"/>
</g>
<!-- Node48 -->
<g id="node3" class="node"><title>Node48</title>
<g id="a_node3"><a xlink:href="density_8c.html#a146d61fe2d2f53ea9b7fabf2ea5e90b7" target="_top" xlink:title="density_ngbiter">
<polygon fill="white" stroke="black" points="246.415,-150 246.415,-169 329.415,-169 329.415,-150 246.415,-150"/>
<text text-anchor="middle" x="287.915" y="-157" font-family="Helvetica,sans-Serif" font-size="10.00">density_ngbiter</text>
</a>
</g>
</g>
<!-- Node47&#45;&gt;Node48 -->
<g id="edge2" class="edge"><title>Node47&#45;&gt;Node48</title>
<path fill="none" stroke="midnightblue" d="M287.915,-107.257C287.915,-121.143 287.915,-139.107 287.915,-149.944"/>
<polygon fill="midnightblue" stroke="midnightblue" points="291.415,-107.21 287.915,-97.2102 284.415,-107.21 291.415,-107.21"/>
</g>
<!-- Node60 -->
<g id="node15" class="node"><title>Node60</title>
<g id="a_node15"><a xlink:href="hydra_8c.html#a573da066bd5ea955c89ec5250d472bbb" target="_top" xlink:title="hydro_ngbiter">
<polygon fill="white" stroke="black" points="1,-222 1,-241 76,-241 76,-222 1,-222"/>
<text text-anchor="middle" x="38.5" y="-229" font-family="Helvetica,sans-Serif" font-size="10.00">hydro_ngbiter</text>
</a>
</g>
</g>
<!-- Node47&#45;&gt;Node60 -->
<g id="edge17" class="edge"><title>Node47&#45;&gt;Node60</title>
<path fill="none" stroke="midnightblue" d="M262.387,-102.239C211.329,-131.717 97.8731,-197.221 55.1792,-221.87"/>
<polygon fill="midnightblue" stroke="midnightblue" points="264.253,-105.203 271.163,-97.1718 260.753,-99.1408 264.253,-105.203"/>
</g>
<!-- Node62 -->
<g id="node17" class="node"><title>Node62</title>
<g id="a_node17"><a xlink:href="param_8h.html#a952eae1977b498c4fdfabed1742a3ba2" target="_top" xlink:title="read_parameter_file">
<polygon fill="white" stroke="black" points="236.915,-654 236.915,-673 338.915,-673 338.915,-654 236.915,-654"/>
<text text-anchor="middle" x="287.915" y="-661" font-family="Helvetica,sans-Serif" font-size="10.00">read_parameter_file</text>
</a>
</g>
</g>
<!-- Node47&#45;&gt;Node62 -->
<g id="edge20" class="edge"><title>Node47&#45;&gt;Node62</title>
<path fill="none" stroke="midnightblue" d="M287.915,-107.175C287.915,-199.342 287.915,-586.729 287.915,-653.636"/>
<polygon fill="midnightblue" stroke="midnightblue" points="291.415,-107.017 287.915,-97.017 284.415,-107.017 291.415,-107.017"/>
</g>
<!-- Node49 -->
<g id="node4" class="node"><title>Node49</title>
<g id="a_node4"><a xlink:href="density_8c.html#a69886540d0642590a0022fc14ce61f06" target="_top" xlink:title="density_internal">
<polygon fill="white" stroke="black" points="245.415,-222 245.415,-241 330.415,-241 330.415,-222 245.415,-222"/>
<text text-anchor="middle" x="287.915" y="-229" font-family="Helvetica,sans-Serif" font-size="10.00">density_internal</text>
</a>
</g>
</g>
<!-- Node48&#45;&gt;Node49 -->
<g id="edge3" class="edge"><title>Node48&#45;&gt;Node49</title>
<path fill="none" stroke="midnightblue" d="M287.915,-179.257C287.915,-193.143 287.915,-211.107 287.915,-221.944"/>
<polygon fill="midnightblue" stroke="midnightblue" points="291.415,-179.21 287.915,-169.21 284.415,-179.21 291.415,-179.21"/>
</g>
<!-- Node50 -->
<g id="node5" class="node"><title>Node50</title>
<g id="a_node5"><a xlink:href="proto_8h.html#a8ce8ad3893801ac7d380efd9b7ef26d3" target="_top" xlink:title="density">
<polygon fill="white" stroke="black" points="201.561,-330 201.561,-349 249.561,-349 249.561,-330 201.561,-330"/>
<text text-anchor="middle" x="225.561" y="-337" font-family="Helvetica,sans-Serif" font-size="10.00">density</text>
</a>
</g>
</g>
<!-- Node49&#45;&gt;Node50 -->
<g id="edge4" class="edge"><title>Node49&#45;&gt;Node50</title>
<path fill="none" stroke="midnightblue" d="M277.28,-249.922C263.94,-273.027 241.559,-311.791 231.172,-329.782"/>
<polygon fill="midnightblue" stroke="midnightblue" points="280.413,-251.495 282.382,-241.084 274.351,-247.995 280.413,-251.495"/>
</g>
<!-- Node59 -->
<g id="node14" class="node"><title>Node59</title>
<g id="a_node14"><a xlink:href="proto_8h.html#a137ca78a0bd40fa7a75438e90e4f66a8" target="_top" xlink:title="density_update">
<polygon fill="white" stroke="black" points="308.769,-330 308.769,-349 391.769,-349 391.769,-330 308.769,-330"/>
<text text-anchor="middle" x="350.269" y="-337" font-family="Helvetica,sans-Serif" font-size="10.00">density_update</text>
</a>
</g>
</g>
<!-- Node49&#45;&gt;Node59 -->
<g id="edge15" class="edge"><title>Node49&#45;&gt;Node59</title>
<path fill="none" stroke="midnightblue" d="M298.551,-249.922C311.891,-273.027 334.271,-311.791 344.658,-329.782"/>
<polygon fill="midnightblue" stroke="midnightblue" points="301.48,-247.995 293.449,-241.084 295.418,-251.495 301.48,-247.995"/>
</g>
<!-- Node51 -->
<g id="node6" class="node"><title>Node51</title>
<g id="a_node6"><a xlink:href="init_8c.html#a643ef34b585446f8ccbbf3239df2db71" target="_top" xlink:title="setup_smoothinglengths">
<polygon fill="white" stroke="black" points="226.915,-366 226.915,-385 348.915,-385 348.915,-366 226.915,-366"/>
<text text-anchor="middle" x="287.915" y="-373" font-family="Helvetica,sans-Serif" font-size="10.00">setup_smoothinglengths</text>
</a>
</g>
</g>
<!-- Node50&#45;&gt;Node51 -->
<g id="edge5" class="edge"><title>Node50&#45;&gt;Node51</title>
<path fill="none" stroke="midnightblue" d="M251.132,-354.263C257.887,-358.163 265.004,-362.272 271.16,-365.826"/>
<polygon fill="midnightblue" stroke="midnightblue" points="252.681,-351.116 242.271,-349.147 249.181,-357.178 252.681,-351.116"/>
</g>
<!-- Node58 -->
<g id="node13" class="node"><title>Node58</title>
<g id="a_node13"><a xlink:href="run_8c.html#abb80d08f4d52f4a7bdf28d1cecfead5b" target="_top" xlink:title="compute_accelerations">
<polygon fill="white" stroke="black" points="85.4153,-366 85.4153,-385 202.415,-385 202.415,-366 85.4153,-366"/>
<text text-anchor="middle" x="143.915" y="-373" font-family="Helvetica,sans-Serif" font-size="10.00">compute_accelerations</text>
</a>
</g>
</g>
<!-- Node50&#45;&gt;Node58 -->
<g id="edge13" class="edge"><title>Node50&#45;&gt;Node58</title>
<path fill="none" stroke="midnightblue" d="M194.401,-353.239C184.782,-357.481 174.403,-362.057 165.572,-365.951"/>
<polygon fill="midnightblue" stroke="midnightblue" points="195.944,-356.384 203.682,-349.147 193.12,-349.979 195.944,-356.384"/>
</g>
<!-- Node52 -->
<g id="node7" class="node"><title>Node52</title>
<g id="a_node7"><a xlink:href="proto_8h.html#ab080cb20bac2a1a6153a84e8cfd15374" target="_top" xlink:title="init">
<polygon fill="white" stroke="black" points="309.415,-428.354 309.415,-447.354 338.415,-447.354 338.415,-428.354 309.415,-428.354"/>
<text text-anchor="middle" x="323.915" y="-435.354" font-family="Helvetica,sans-Serif" font-size="10.00">init</text>
</a>
</g>
</g>
<!-- Node51&#45;&gt;Node52 -->
<g id="edge6" class="edge"><title>Node51&#45;&gt;Node52</title>
<path fill="none" stroke="midnightblue" d="M298.694,-394.17C305.106,-405.276 312.984,-418.92 318.211,-427.974"/>
<polygon fill="midnightblue" stroke="midnightblue" points="301.571,-392.153 293.54,-385.243 295.509,-395.653 301.571,-392.153"/>
</g>
<!-- Node53 -->
<g id="node8" class="node"><title>Node53</title>
<g id="a_node8"><a xlink:href="proto_8h.html#a74dc0e5e9eefe11fc8434b62de573146" target="_top" xlink:title="begrun">
<polygon fill="white" stroke="black" points="336.915,-490.708 336.915,-509.708 382.915,-509.708 382.915,-490.708 336.915,-490.708"/>
<text text-anchor="middle" x="359.915" y="-497.708" font-family="Helvetica,sans-Serif" font-size="10.00">begrun</text>
</a>
</g>
</g>
<!-- Node52&#45;&gt;Node53 -->
<g id="edge7" class="edge"><title>Node52&#45;&gt;Node53</title>
<path fill="none" stroke="midnightblue" d="M334.694,-456.524C341.106,-467.63 348.984,-481.274 354.211,-490.328"/>
<polygon fill="midnightblue" stroke="midnightblue" points="337.571,-454.507 329.54,-447.597 331.509,-458.007 337.571,-454.507"/>
</g>
<!-- Node54 -->
<g id="node9" class="node"><title>Node54</title>
<g id="a_node9"><a xlink:href="main_8c.html#a3c04138a5bfe5d72780bb7e82a18e627" target="_top" xlink:title="main">
<polygon fill="white" stroke="black" points="376.915,-553.061 376.915,-572.061 414.915,-572.061 414.915,-553.061 376.915,-553.061"/>
<text text-anchor="middle" x="395.915" y="-560.061" font-family="Helvetica,sans-Serif" font-size="10.00">main</text>
</a>
</g>
</g>
<!-- Node53&#45;&gt;Node54 -->
<g id="edge8" class="edge"><title>Node53&#45;&gt;Node54</title>
<path fill="none" stroke="midnightblue" d="M370.694,-518.878C377.106,-529.983 384.984,-543.627 390.211,-552.681"/>
<polygon fill="midnightblue" stroke="midnightblue" points="373.571,-516.861 365.54,-509.95 367.509,-520.361 373.571,-516.861"/>
</g>
<!-- Node55 -->
<g id="node10" class="node"><title>Node55</title>
<g id="a_node10"><a xlink:href="walltime_8h.html#a76d2135b612766d4d665748454b879d6" target="_top" xlink:title="walltime_report">
<polygon fill="white" stroke="black" points="495.831,-510 495.831,-529 578.831,-529 578.831,-510 495.831,-510"/>
<text text-anchor="middle" x="537.331" y="-517" font-family="Helvetica,sans-Serif" font-size="10.00">walltime_report</text>
</a>
</g>
</g>
<!-- Node54&#45;&gt;Node55 -->
<g id="edge9" class="edge"><title>Node54&#45;&gt;Node55</title>
<path fill="none" stroke="midnightblue" d="M424.755,-553.78C448.331,-546.601 481.611,-536.467 505.871,-529.08"/>
<polygon fill="midnightblue" stroke="midnightblue" points="423.534,-550.493 414.987,-556.754 425.573,-557.189 423.534,-550.493"/>
</g>
<!-- Node56 -->
<g id="node11" class="node"><title>Node56</title>
<g id="a_node11"><a xlink:href="run_8c.html#adc59e9ee1517e4e690694a64ab6a59d2" target="_top" xlink:title="write_cpu_log">
<polygon fill="white" stroke="black" points="-2.84217e-14,-510 -2.84217e-14,-529 77,-529 77,-510 -2.84217e-14,-510"/>
<text text-anchor="middle" x="38.5" y="-517" font-family="Helvetica,sans-Serif" font-size="10.00">write_cpu_log</text>
</a>
</g>
</g>
<!-- Node55&#45;&gt;Node56 -->
<g id="edge10" class="edge"><title>Node55&#45;&gt;Node56</title>
<path fill="none" stroke="midnightblue" d="M485.456,-519.5C385.058,-519.5 166.255,-519.5 77.2864,-519.5"/>
<polygon fill="midnightblue" stroke="midnightblue" points="485.659,-523 495.659,-519.5 485.659,-516 485.659,-523"/>
</g>
<!-- Node57 -->
<g id="node12" class="node"><title>Node57</title>
<g id="a_node12"><a xlink:href="run_8c.html#a05e0ffe612d44e6d7f3a9ae5b9df56a2" target="_top" xlink:title="run">
<polygon fill="white" stroke="black" points="85.8538,-474 85.8538,-493 115.854,-493 115.854,-474 85.8538,-474"/>
<text text-anchor="middle" x="100.854" y="-481" font-family="Helvetica,sans-Serif" font-size="10.00">run</text>
</a>
</g>
</g>
<!-- Node56&#45;&gt;Node57 -->
<g id="edge11" class="edge"><title>Node56&#45;&gt;Node57</title>
<path fill="none" stroke="midnightblue" d="M64.1748,-504.677C71.5324,-500.429 79.3122,-495.937 85.8044,-492.189"/>
<polygon fill="midnightblue" stroke="midnightblue" points="62.1199,-501.822 55.2097,-509.853 65.62,-507.884 62.1199,-501.822"/>
</g>
<!-- Node57&#45;&gt;Node54 -->
<g id="edge12" class="edge"><title>Node57&#45;&gt;Node54</title>
<path fill="none" stroke="midnightblue" d="M125.627,-490.138C183.244,-505.576 325.258,-543.629 376.818,-557.444"/>
<polygon fill="midnightblue" stroke="midnightblue" points="126.457,-486.737 115.892,-487.529 124.645,-493.498 126.457,-486.737"/>
</g>
<!-- Node58&#45;&gt;Node57 -->
<g id="edge14" class="edge"><title>Node58&#45;&gt;Node57</title>
<path fill="none" stroke="midnightblue" d="M136.322,-394.544C127.083,-417.717 111.838,-455.951 104.729,-473.782"/>
<polygon fill="midnightblue" stroke="midnightblue" points="139.641,-395.669 140.094,-385.084 133.139,-393.077 139.641,-395.669"/>
</g>
<!-- Node59&#45;&gt;Node51 -->
<g id="edge16" class="edge"><title>Node59&#45;&gt;Node51</title>
<path fill="none" stroke="midnightblue" d="M324.698,-354.263C317.944,-358.163 310.827,-362.272 304.671,-365.826"/>
<polygon fill="midnightblue" stroke="midnightblue" points="326.649,-357.178 333.559,-349.147 323.149,-351.116 326.649,-357.178"/>
</g>
<!-- Node61 -->
<g id="node16" class="node"><title>Node61</title>
<g id="a_node16"><a xlink:href="hydra_8h.html#a6789381bce7d1c316df8ecf04b47a607" target="_top" xlink:title="hydro_force">
<polygon fill="white" stroke="black" points="66.8538,-258 66.8538,-277 134.854,-277 134.854,-258 66.8538,-258"/>
<text text-anchor="middle" x="100.854" y="-265" font-family="Helvetica,sans-Serif" font-size="10.00">hydro_force</text>
</a>
</g>
</g>
<!-- Node60&#45;&gt;Node61 -->
<g id="edge18" class="edge"><title>Node60&#45;&gt;Node61</title>
<path fill="none" stroke="midnightblue" d="M64.0708,-246.263C70.8252,-250.163 77.9426,-254.272 84.098,-257.826"/>
<polygon fill="midnightblue" stroke="midnightblue" points="65.62,-243.116 55.2097,-241.147 62.1199,-249.178 65.62,-243.116"/>
</g>
<!-- Node61&#45;&gt;Node58 -->
<g id="edge19" class="edge"><title>Node61&#45;&gt;Node58</title>
<path fill="none" stroke="midnightblue" d="M108.447,-286.544C117.687,-309.717 132.931,-347.951 140.041,-365.782"/>
<polygon fill="midnightblue" stroke="midnightblue" points="111.63,-285.077 104.675,-277.084 105.128,-287.669 111.63,-285.077"/>
</g>
<!-- Node62&#45;&gt;Node54 -->
<g id="edge21" class="edge"><title>Node62&#45;&gt;Node54</title>
<path fill="none" stroke="midnightblue" d="M305.612,-646.961C328.435,-625.629 367.376,-589.235 385.749,-572.063"/>
<polygon fill="midnightblue" stroke="midnightblue" points="303.187,-644.436 298.271,-653.822 307.967,-649.55 303.187,-644.436"/>
</g>
</g>
</svg>
        <g id="navigator" transform="translate(0 0)" fill="#404254">
                <rect fill="#f2f5e9" fill-opacity="0.5" stroke="#606060" stroke-width=".5" x="0" y="0" width="60" height="60"/>
                <use id="zoomplus" xlink:href="#zoomPlus" x="17" y="9" onmousedown="handleZoom(evt,'in')"/>
                <use id="zoomminus" xlink:href="#zoomMin" x="42" y="9" onmousedown="handleZoom(evt,'out')"/>
                <use id="reset" xlink:href="#resetDef" x="30" y="36" onmousedown="handleReset()"/>
                <g id="arrowUp" xlink:href="#dirArrow" transform="translate(30 24)" onmousedown="handlePan(0,-1)">
                  <use xlink:href="#rim" fill="#404040">
                        <set attributeName="fill" to="#808080" begin="arrowUp.mouseover" end="arrowUp.mouseout"/>
                  </use>
                  <path fill="none" stroke="white" stroke-width="1.5" d="M0,-3.0v7 M-2.5,-0.5L0,-3.0L2.5,-0.5"/>
                </g>
                <g id="arrowRight" xlink:href="#dirArrow" transform="rotate(90) translate(36 -43)" onmousedown="handlePan(1,0)">
                  <use xlink:href="#rim" fill="#404040">
                        <set attributeName="fill" to="#808080" begin="arrowRight.mouseover" end="arrowRight.mouseout"/>
                  </use>
                  <path fill="none" stroke="white" stroke-width="1.5" d="M0,-3.0v7 M-2.5,-0.5L0,-3.0L2.5,-0.5"/>
                </g>
                <g id="arrowDown" xlink:href="#dirArrow" transform="rotate(180) translate(-30 -48)" onmousedown="handlePan(0,1)">
                  <use xlink:href="#rim" fill="#404040">
                        <set attributeName="fill" to="#808080" begin="arrowDown.mouseover" end="arrowDown.mouseout"/>
                  </use>
                  <path fill="none" stroke="white" stroke-width="1.5" d="M0,-3.0v7 M-2.5,-0.5L0,-3.0L2.5,-0.5"/>
                </g>
                <g id="arrowLeft" xlink:href="#dirArrow" transform="rotate(270) translate(-36 17)" onmousedown="handlePan(-1,0)">
                  <use xlink:href="#rim" fill="#404040">
                        <set attributeName="fill" to="#808080" begin="arrowLeft.mouseover" end="arrowLeft.mouseout"/>
                  </use>
                  <path fill="none" stroke="white" stroke-width="1.5" d="M0,-3.0v7 M-2.5,-0.5L0,-3.0L2.5,-0.5"/>
                </g>
        </g>
        <svg viewBox="0 0 15 15" width="100%" height="30px" preserveAspectRatio="xMaxYMin meet">
         <g id="arrow_out" transform="scale(0.3 0.3)">
          <a xlink:href="densitykernel_8c_ad2c669dd99e5ae3ab0f498624e6fd840_icgraph_org.svg" target="_base">
           <rect id="button" ry="5" rx="5" y="6" x="6" height="38" width="38"
                fill="#f2f5e9" fill-opacity="0.5" stroke="#606060" stroke-width="1.0"/>
           <path id="arrow"
             d="M 11.500037,31.436501 C 11.940474,20.09759 22.043105,11.32322 32.158766,21.979434 L 37.068811,17.246167 C 37.068811,17.246167 37.088388,32 37.088388,32 L 22.160133,31.978069 C 22.160133,31.978069 26.997745,27.140456 26.997745,27.140456 C 18.528582,18.264221 13.291696,25.230495 11.500037,31.436501 z"
             style="fill:#404040;"/>
          </a>
         </g>
        </svg>
</svg>
