<?xml version="1.0" encoding="UTF-8" standalone="no"?>
<!DOCTYPE svg PUBLIC "-//W3C//DTD SVG 1.1//EN"
 "http://www.w3.org/Graphics/SVG/1.1/DTD/svg11.dtd">
<!-- Generated by graphviz version 2.50.0 (0)
 -->
<!-- Title: SPH_EntVarPred Pages: 1 -->
<svg width="1612pt" height="578pt"
 viewBox="0.00 0.00 1612.00 577.53" xmlns="http://www.w3.org/2000/svg" xmlns:xlink="http://www.w3.org/1999/xlink">
<g id="graph0" class="graph" transform="scale(1 1) rotate(0) translate(4 573.53)">
<title>SPH_EntVarPred</title>
<polygon fill="white" stroke="transparent" points="-4,4 -4,-573.53 1608,-573.53 1608,4 -4,4"/>
<!-- Node1 -->
<g id="node1" class="node">
<title>Node1</title>
<g id="a_node1"><a xlink:title=" ">
<polygon fill="#bfbfbf" stroke="black" points="1509,-338.89 1509,-357.89 1604,-357.89 1604,-338.89 1509,-338.89"/>
<text text-anchor="middle" x="1556.5" y="-345.89" font-family="Helvetica,sans-Serif" font-size="10.00">SPH_EntVarPred</text>
</a>
</g>
</g>
<!-- Node2 -->
<g id="node2" class="node">
<title>Node2</title>
<g id="a_node2"><a xlink:href="density_8c.html#ac49d34dfc3f4e37cac0953d5bc1417a4" target="_top" xlink:title=" ">
<polygon fill="white" stroke="black" points="1281.5,-300.89 1281.5,-319.89 1334.5,-319.89 1334.5,-300.89 1281.5,-300.89"/>
<text text-anchor="middle" x="1308" y="-307.89" font-family="Helvetica,sans-Serif" font-size="10.00">density</text>
</a>
</g>
</g>
<!-- Node1&#45;&gt;Node2 -->
<g id="edge1" class="edge">
<title>Node1&#45;&gt;Node2</title>
<path fill="none" stroke="midnightblue" d="M1498.64,-344.36C1464.38,-341.39 1419.97,-336.61 1381,-329.39 1365.49,-326.51 1348.41,-322.06 1334.78,-318.19"/>
<polygon fill="midnightblue" stroke="midnightblue" points="1498.67,-347.87 1508.93,-345.22 1499.26,-340.9 1498.67,-347.87"/>
</g>
<!-- Node50 -->
<g id="node48" class="node">
<title>Node50</title>
<g id="a_node48"><a xlink:href="density_8c.html#a146d61fe2d2f53ea9b7fabf2ea5e90b7" target="_top" xlink:title=" ">
<polygon fill="white" stroke="black" points="1381,-300.89 1381,-319.89 1473,-319.89 1473,-300.89 1381,-300.89"/>
<text text-anchor="middle" x="1427" y="-307.89" font-family="Helvetica,sans-Serif" font-size="10.00">density_ngbiter</text>
</a>
</g>
</g>
<!-- Node1&#45;&gt;Node50 -->
<g id="edge70" class="edge">
<title>Node1&#45;&gt;Node50</title>
<path fill="none" stroke="midnightblue" d="M1513.44,-335.85C1496.1,-330.68 1476.32,-324.79 1460.16,-319.97"/>
<polygon fill="midnightblue" stroke="midnightblue" points="1512.74,-339.3 1523.33,-338.8 1514.74,-332.59 1512.74,-339.3"/>
</g>
<!-- Node51 -->
<g id="node49" class="node">
<title>Node51</title>
<g id="a_node49"><a xlink:href="hydra_8c.html#a573da066bd5ea955c89ec5250d472bbb" target="_top" xlink:title=" ">
<polygon fill="white" stroke="black" points="1385,-477.89 1385,-496.89 1469,-496.89 1469,-477.89 1385,-477.89"/>
<text text-anchor="middle" x="1427" y="-484.89" font-family="Helvetica,sans-Serif" font-size="10.00">hydro_ngbiter</text>
</a>
</g>
</g>
<!-- Node1&#45;&gt;Node51 -->
<g id="edge72" class="edge">
<title>Node1&#45;&gt;Node51</title>
<path fill="none" stroke="midnightblue" d="M1539.9,-365.4C1512.87,-394.87 1458.18,-454.48 1436.82,-477.77"/>
<polygon fill="midnightblue" stroke="midnightblue" points="1542.56,-367.68 1546.74,-357.94 1537.4,-362.94 1542.56,-367.68"/>
</g>
<!-- Node3 -->
<g id="node3" class="node">
<title>Node3</title>
<g id="a_node3"><a xlink:href="density_8c.html#ae39f5a18f937d210e258c8e8cb710044" target="_top" xlink:title=" ">
<polygon fill="white" stroke="black" points="1116.5,-395.89 1116.5,-414.89 1232.5,-414.89 1232.5,-395.89 1116.5,-395.89"/>
<text text-anchor="middle" x="1174.5" y="-402.89" font-family="Helvetica,sans-Serif" font-size="10.00">density_postprocess</text>
</a>
</g>
</g>
<!-- Node2&#45;&gt;Node3 -->
<g id="edge2" class="edge">
<title>Node2&#45;&gt;Node3</title>
<path fill="none" stroke="midnightblue" d="M1288.86,-327.73C1275.61,-342.89 1256.3,-364.01 1235,-377.39 1221.04,-386.15 1202.68,-391.21 1190.07,-395.75"/>
<polygon fill="midnightblue" stroke="midnightblue" points="1291.65,-329.85 1295.57,-320 1286.37,-325.26 1291.65,-329.85"/>
</g>
<!-- Node4 -->
<g id="node4" class="node">
<title>Node4</title>
<g id="a_node4"><a xlink:href="test__density_8c.html#a1f2c8c2a35e14ec19a93d42363f0fe55" target="_top" xlink:title=" ">
<polygon fill="white" stroke="black" points="1127.5,-471.89 1127.5,-490.89 1221.5,-490.89 1221.5,-471.89 1127.5,-471.89"/>
<text text-anchor="middle" x="1174.5" y="-478.89" font-family="Helvetica,sans-Serif" font-size="10.00">do_density_test</text>
</a>
</g>
</g>
<!-- Node2&#45;&gt;Node4 -->
<g id="edge4" class="edge">
<title>Node2&#45;&gt;Node4</title>
<path fill="none" stroke="midnightblue" d="M1302.25,-330.09C1293.81,-361.17 1273.36,-421.7 1235,-457.39 1228.31,-463.61 1219.81,-468.31 1211.33,-471.82"/>
<polygon fill="midnightblue" stroke="midnightblue" points="1305.73,-330.63 1304.83,-320.08 1298.95,-328.89 1305.73,-330.63"/>
</g>
<!-- Node9 -->
<g id="node9" class="node">
<title>Node9</title>
<g id="a_node9"><a xlink:href="cooling__rates_8c.html#a3bb9e77ab6f85db5eaded74d8532e817" target="_top" xlink:title=" ">
<polygon fill="white" stroke="black" points="1114,-357.89 1114,-376.89 1235,-376.89 1235,-357.89 1114,-357.89"/>
<text text-anchor="middle" x="1174.5" y="-364.89" font-family="Helvetica,sans-Serif" font-size="10.00">get_compton_cooling</text>
</a>
</g>
</g>
<!-- Node2&#45;&gt;Node9 -->
<g id="edge9" class="edge">
<title>Node2&#45;&gt;Node9</title>
<path fill="none" stroke="midnightblue" d="M1277.28,-324.38C1264.35,-330.37 1248.99,-337.36 1235,-343.39 1223.54,-348.32 1210.72,-353.53 1199.92,-357.83"/>
<polygon fill="midnightblue" stroke="midnightblue" points="1279.04,-327.42 1286.63,-320.03 1276.09,-321.08 1279.04,-327.42"/>
</g>
<!-- Node10 -->
<g id="node10" class="node">
<title>Node10</title>
<g id="a_node10"><a xlink:href="cooling__rates_8c.html#a49fe0aaef8ccce8a7757d95bd7e747bc" target="_top" xlink:title=" ">
<polygon fill="white" stroke="black" points="1130.5,-243.89 1130.5,-262.89 1218.5,-262.89 1218.5,-243.89 1130.5,-243.89"/>
<text text-anchor="middle" x="1174.5" y="-250.89" font-family="Helvetica,sans-Serif" font-size="10.00">get_equilib_ne</text>
</a>
</g>
</g>
<!-- Node2&#45;&gt;Node10 -->
<g id="edge10" class="edge">
<title>Node2&#45;&gt;Node10</title>
<path fill="none" stroke="midnightblue" d="M1277.28,-296.39C1264.35,-290.4 1248.99,-283.41 1235,-277.39 1223.54,-272.45 1210.72,-267.24 1199.92,-262.94"/>
<polygon fill="midnightblue" stroke="midnightblue" points="1276.09,-299.69 1286.63,-300.74 1279.04,-293.35 1276.09,-299.69"/>
</g>
<!-- Node11 -->
<g id="node11" class="node">
<title>Node11</title>
<g id="a_node11"><a xlink:href="cooling__rates_8c.html#a95acdc83b28994ee3d85976205493223" target="_top" xlink:title=" ">
<polygon fill="white" stroke="black" points="940,-129.89 940,-148.89 1074,-148.89 1074,-129.89 940,-129.89"/>
<text text-anchor="middle" x="1007" y="-136.89" font-family="Helvetica,sans-Serif" font-size="10.00">get_heatingcooling_rate</text>
</a>
</g>
</g>
<!-- Node2&#45;&gt;Node11 -->
<g id="edge58" class="edge">
<title>Node2&#45;&gt;Node11</title>
<path fill="none" stroke="midnightblue" d="M1303.07,-290.76C1295.69,-259.46 1276.59,-198.77 1235,-169.39 1188.49,-136.53 1122.95,-131.05 1074.25,-132.6"/>
<polygon fill="midnightblue" stroke="midnightblue" points="1299.72,-291.83 1305.28,-300.85 1306.56,-290.34 1299.72,-291.83"/>
</g>
<!-- Node16 -->
<g id="node16" class="node">
<title>Node16</title>
<g id="a_node16"><a xlink:href="run_8c.html#a89690448ef43a8d624b963382b7503ed" target="_top" xlink:title=" ">
<polygon fill="white" stroke="black" points="137,-489.89 137,-508.89 169,-508.89 169,-489.89 137,-489.89"/>
<text text-anchor="middle" x="153" y="-496.89" font-family="Helvetica,sans-Serif" font-size="10.00">run</text>
</a>
</g>
</g>
<!-- Node2&#45;&gt;Node16 -->
<g id="edge64" class="edge">
<title>Node2&#45;&gt;Node16</title>
<path fill="none" stroke="midnightblue" d="M1305.84,-330.45C1302.39,-369.94 1288.76,-457.6 1235,-500.39 1155.32,-563.79 1109.83,-531.39 1008,-531.39 1008,-531.39 1008,-531.39 507,-531.39 375.62,-531.39 217.86,-509.13 169.09,-501.74"/>
<polygon fill="midnightblue" stroke="midnightblue" points="1309.35,-330.49 1306.59,-320.26 1302.37,-329.97 1309.35,-330.49"/>
</g>
<!-- Node18 -->
<g id="node18" class="node">
<title>Node18</title>
<g id="a_node18"><a xlink:href="run_8c.html#a02ef4c629cc0fea15dce527f09ea672f" target="_top" xlink:title=" ">
<polygon fill="white" stroke="black" points="130,-183.89 130,-202.89 176,-202.89 176,-183.89 130,-183.89"/>
<text text-anchor="middle" x="153" y="-190.89" font-family="Helvetica,sans-Serif" font-size="10.00">runfof</text>
</a>
</g>
</g>
<!-- Node2&#45;&gt;Node18 -->
<g id="edge65" class="edge">
<title>Node2&#45;&gt;Node18</title>
<path fill="none" stroke="midnightblue" d="M1304.65,-290.38C1297.49,-233.18 1274.07,-70.91 1235,-37.39 1158.01,28.68 1109.45,-13.39 1008,-13.39 1008,-13.39 1008,-13.39 507,-13.39 392.55,-13.39 364.29,-44.48 265,-101.39 223.09,-125.41 181.28,-165.5 163.24,-183.78"/>
<polygon fill="midnightblue" stroke="midnightblue" points="1301.21,-291.13 1305.89,-300.63 1308.16,-290.28 1301.21,-291.13"/>
</g>
<!-- Node40 -->
<g id="node38" class="node">
<title>Node40</title>
<g id="a_node38"><a xlink:href="cooling__rates_8c.html#a7d2ed144da379e39dba0b89504f18b3f" target="_top" xlink:title=" ">
<polygon fill="white" stroke="black" points="936,-369.89 936,-388.89 1078,-388.89 1078,-369.89 936,-369.89"/>
<text text-anchor="middle" x="1007" y="-376.89" font-family="Helvetica,sans-Serif" font-size="10.00">get_helium_ion_phys_cgs</text>
</a>
</g>
</g>
<!-- Node2&#45;&gt;Node40 -->
<g id="edge59" class="edge">
<title>Node2&#45;&gt;Node40</title>
<path fill="none" stroke="midnightblue" d="M1301.25,-329.9C1292.14,-356.79 1271.58,-404.23 1235,-424.39 1187.9,-450.35 1165.17,-440.93 1114,-424.39 1095.22,-418.31 1095.81,-406.89 1078,-398.39 1070.04,-394.59 1061.21,-391.45 1052.56,-388.89"/>
<polygon fill="midnightblue" stroke="midnightblue" points="1304.68,-330.66 1304.37,-320.07 1298.01,-328.54 1304.68,-330.66"/>
</g>
<!-- Node42 -->
<g id="node40" class="node">
<title>Node42</title>
<g id="a_node40"><a xlink:href="cooling__rates_8c.html#af7b5f48ba3aba9d9bfd66f17d3b804dd" target="_top" xlink:title=" ">
<polygon fill="white" stroke="black" points="944,-205.89 944,-224.89 1070,-224.89 1070,-205.89 944,-205.89"/>
<text text-anchor="middle" x="1007" y="-212.89" font-family="Helvetica,sans-Serif" font-size="10.00">get_individual_cooling</text>
</a>
</g>
</g>
<!-- Node2&#45;&gt;Node42 -->
<g id="edge60" class="edge">
<title>Node2&#45;&gt;Node42</title>
<path fill="none" stroke="midnightblue" d="M1295.69,-292.26C1283.27,-274.12 1261.51,-247.12 1235,-234.39 1183.49,-209.63 1117.81,-206.77 1070.36,-208.97"/>
<polygon fill="midnightblue" stroke="midnightblue" points="1292.9,-294.38 1301.32,-300.82 1298.75,-290.54 1292.9,-294.38"/>
</g>
<!-- Node43 -->
<g id="node41" class="node">
<title>Node43</title>
<g id="a_node41"><a xlink:href="cooling__rates_8c.html#a39b57e3a443ae27897938bc736562c52" target="_top" xlink:title=" ">
<polygon fill="white" stroke="black" points="965,-167.89 965,-186.89 1049,-186.89 1049,-167.89 965,-167.89"/>
<text text-anchor="middle" x="1007" y="-174.89" font-family="Helvetica,sans-Serif" font-size="10.00">get_ne_by_nh</text>
</a>
</g>
</g>
<!-- Node2&#45;&gt;Node43 -->
<g id="edge61" class="edge">
<title>Node2&#45;&gt;Node43</title>
<path fill="none" stroke="midnightblue" d="M1299.73,-291.21C1289.37,-266.8 1267.9,-225.39 1235,-205.39 1177.83,-170.63 1097.57,-169.5 1049.39,-172.78"/>
<polygon fill="midnightblue" stroke="midnightblue" points="1296.61,-292.84 1303.59,-300.81 1303.1,-290.22 1296.61,-292.84"/>
</g>
<!-- Node44 -->
<g id="node42" class="node">
<title>Node44</title>
<g id="a_node42"><a xlink:href="cooling__rates_8c.html#ac2956701ee030f7151eb7aee494f0ed5" target="_top" xlink:title=" ">
<polygon fill="white" stroke="black" points="949.5,-320.39 949.5,-350.39 1064.5,-350.39 1064.5,-320.39 949.5,-320.39"/>
<text text-anchor="start" x="957.5" y="-338.39" font-family="Helvetica,sans-Serif" font-size="10.00">get_neutral_fraction</text>
<text text-anchor="middle" x="1007" y="-327.39" font-family="Helvetica,sans-Serif" font-size="10.00">_phys_cgs</text>
</a>
</g>
</g>
<!-- Node2&#45;&gt;Node44 -->
<g id="edge62" class="edge">
<title>Node2&#45;&gt;Node44</title>
<path fill="none" stroke="midnightblue" d="M1271,-313.4C1219.76,-317.68 1125.31,-325.58 1064.64,-330.65"/>
<polygon fill="midnightblue" stroke="midnightblue" points="1271.58,-316.86 1281.25,-312.54 1270.99,-309.88 1271.58,-316.86"/>
</g>
<!-- Node47 -->
<g id="node45" class="node">
<title>Node47</title>
<g id="a_node45"><a xlink:href="cooling_8h.html#a9d49b5c9b051327b017b311226aa4730" target="_top" xlink:title=" ">
<polygon fill="white" stroke="black" points="975.5,-281.89 975.5,-300.89 1038.5,-300.89 1038.5,-281.89 975.5,-281.89"/>
<text text-anchor="middle" x="1007" y="-288.89" font-family="Helvetica,sans-Serif" font-size="10.00">get_temp</text>
</a>
</g>
</g>
<!-- Node2&#45;&gt;Node47 -->
<g id="edge63" class="edge">
<title>Node2&#45;&gt;Node47</title>
<path fill="none" stroke="midnightblue" d="M1271.23,-308.11C1211.94,-304.35 1094.36,-296.87 1038.65,-293.33"/>
<polygon fill="midnightblue" stroke="midnightblue" points="1271.05,-311.61 1281.25,-308.75 1271.49,-304.62 1271.05,-311.61"/>
</g>
<!-- Node48 -->
<g id="node46" class="node">
<title>Node48</title>
<g id="a_node46"><a xlink:href="init_8c.html#af35b2ff44ee11141241741fa051ad2ac" target="_top" xlink:title=" ">
<polygon fill="white" stroke="black" points="1116,-80.39 1116,-110.39 1233,-110.39 1233,-80.39 1116,-80.39"/>
<text text-anchor="start" x="1124" y="-98.39" font-family="Helvetica,sans-Serif" font-size="10.00">setup_density_indep</text>
<text text-anchor="middle" x="1174.5" y="-87.39" font-family="Helvetica,sans-Serif" font-size="10.00">_entropy</text>
</a>
</g>
</g>
<!-- Node2&#45;&gt;Node48 -->
<g id="edge66" class="edge">
<title>Node2&#45;&gt;Node48</title>
<path fill="none" stroke="midnightblue" d="M1304.11,-290.74C1297.77,-254.04 1279.52,-174.4 1235,-125.39 1229.55,-119.39 1222.64,-114.43 1215.46,-110.39"/>
<polygon fill="midnightblue" stroke="midnightblue" points="1300.66,-291.35 1305.7,-300.66 1307.57,-290.23 1300.66,-291.35"/>
</g>
<!-- Node49 -->
<g id="node47" class="node">
<title>Node49</title>
<g id="a_node47"><a xlink:href="init_8c.html#a713a74e1e0ca55699bc6581763bae177" target="_top" xlink:title=" ">
<polygon fill="white" stroke="black" points="938.5,-53.89 938.5,-72.89 1075.5,-72.89 1075.5,-53.89 938.5,-53.89"/>
<text text-anchor="middle" x="1007" y="-60.89" font-family="Helvetica,sans-Serif" font-size="10.00">setup_smoothinglengths</text>
</a>
</g>
</g>
<!-- Node2&#45;&gt;Node49 -->
<g id="edge69" class="edge">
<title>Node2&#45;&gt;Node49</title>
<path fill="none" stroke="midnightblue" d="M1304.06,-290.61C1295.81,-238.2 1270.75,-97.85 1235,-70.39 1178.09,-26.67 1087.37,-41.57 1039.67,-53.84"/>
<polygon fill="midnightblue" stroke="midnightblue" points="1300.62,-291.29 1305.6,-300.65 1307.54,-290.23 1300.62,-291.29"/>
</g>
<!-- Node3&#45;&gt;Node2 -->
<g id="edge3" class="edge">
<title>Node3&#45;&gt;Node2</title>
<path fill="none" stroke="midnightblue" d="M1241.36,-390.93C1271.27,-369.24 1294.82,-336.81 1303.46,-319.98"/>
<polygon fill="midnightblue" stroke="midnightblue" points="1239.09,-388.24 1232.76,-396.74 1243.01,-394.04 1239.09,-388.24"/>
</g>
<!-- Node5 -->
<g id="node5" class="node">
<title>Node5</title>
<g id="a_node5"><a xlink:href="test__density_8c.html#ab398a273f1cc5a1816af9ef286a460f3" target="_top" xlink:title=" ">
<polygon fill="white" stroke="black" points="959.5,-445.89 959.5,-464.89 1054.5,-464.89 1054.5,-445.89 959.5,-445.89"/>
<text text-anchor="middle" x="1007" y="-452.89" font-family="Helvetica,sans-Serif" font-size="10.00">do_random_test</text>
</a>
</g>
</g>
<!-- Node4&#45;&gt;Node5 -->
<g id="edge5" class="edge">
<title>Node4&#45;&gt;Node5</title>
<path fill="none" stroke="midnightblue" d="M1117.31,-472.56C1096.94,-469.36 1074.18,-465.78 1054.72,-462.73"/>
<polygon fill="midnightblue" stroke="midnightblue" points="1116.98,-476.05 1127.4,-474.14 1118.06,-469.13 1116.98,-476.05"/>
</g>
<!-- Node7 -->
<g id="node7" class="node">
<title>Node7</title>
<g id="a_node7"><a xlink:href="test__density_8c.html#a0b98ad62e33169daca9a098f23b22730" target="_top" xlink:title=" ">
<polygon fill="white" stroke="black" points="953.5,-407.89 953.5,-426.89 1060.5,-426.89 1060.5,-407.89 953.5,-407.89"/>
<text text-anchor="middle" x="1007" y="-414.89" font-family="Helvetica,sans-Serif" font-size="10.00">test_density_close</text>
</a>
</g>
</g>
<!-- Node4&#45;&gt;Node7 -->
<g id="edge7" class="edge">
<title>Node4&#45;&gt;Node7</title>
<path fill="none" stroke="midnightblue" d="M1137.91,-468.01C1129.95,-464.75 1121.61,-461.12 1114,-457.39 1097.37,-449.23 1095.09,-443.54 1078,-436.39 1069.29,-432.74 1059.67,-429.6 1050.43,-426.98"/>
<polygon fill="midnightblue" stroke="midnightblue" points="1136.79,-471.33 1147.37,-471.79 1139.38,-464.83 1136.79,-471.33"/>
</g>
<!-- Node8 -->
<g id="node8" class="node">
<title>Node8</title>
<g id="a_node8"><a xlink:href="test__density_8c.html#af90097e65c497dae6bed7b2d03702f89" target="_top" xlink:title=" ">
<polygon fill="white" stroke="black" points="958,-483.89 958,-502.89 1056,-502.89 1056,-483.89 958,-483.89"/>
<text text-anchor="middle" x="1007" y="-490.89" font-family="Helvetica,sans-Serif" font-size="10.00">test_density_flat</text>
</a>
</g>
</g>
<!-- Node4&#45;&gt;Node8 -->
<g id="edge8" class="edge">
<title>Node4&#45;&gt;Node8</title>
<path fill="none" stroke="midnightblue" d="M1117.25,-485.46C1097.41,-486.9 1075.28,-488.51 1056.16,-489.89"/>
<polygon fill="midnightblue" stroke="midnightblue" points="1117.68,-488.94 1127.4,-484.73 1117.17,-481.96 1117.68,-488.94"/>
</g>
<!-- Node6 -->
<g id="node6" class="node">
<title>Node6</title>
<g id="a_node6"><a xlink:href="test__density_8c.html#a79c97c1ac28bcad8abc150104d7cb7c0" target="_top" xlink:title=" ">
<polygon fill="white" stroke="black" points="772,-445.89 772,-464.89 891,-464.89 891,-445.89 772,-445.89"/>
<text text-anchor="middle" x="831.5" y="-452.89" font-family="Helvetica,sans-Serif" font-size="10.00">test_density_random</text>
</a>
</g>
</g>
<!-- Node5&#45;&gt;Node6 -->
<g id="edge6" class="edge">
<title>Node5&#45;&gt;Node6</title>
<path fill="none" stroke="midnightblue" d="M949,-455.39C930.49,-455.39 909.92,-455.39 891.28,-455.39"/>
<polygon fill="midnightblue" stroke="midnightblue" points="949.05,-458.89 959.05,-455.39 949.05,-451.89 949.05,-458.89"/>
</g>
<!-- Node10&#45;&gt;Node11 -->
<g id="edge11" class="edge">
<title>Node10&#45;&gt;Node11</title>
<path fill="none" stroke="midnightblue" d="M1160.47,-235.68C1143.74,-214.22 1112.7,-178.44 1078,-158.39 1071.35,-154.54 1063.89,-151.45 1056.39,-148.98"/>
<polygon fill="midnightblue" stroke="midnightblue" points="1157.7,-237.82 1166.54,-243.66 1163.27,-233.58 1157.7,-237.82"/>
</g>
<!-- Node10&#45;&gt;Node40 -->
<g id="edge45" class="edge">
<title>Node10&#45;&gt;Node40</title>
<path fill="none" stroke="midnightblue" d="M1162.1,-271.34C1146.14,-295.01 1114.92,-336.35 1078,-359.39 1071.03,-363.74 1063.09,-367.17 1055.11,-369.86"/>
<polygon fill="midnightblue" stroke="midnightblue" points="1165.06,-273.21 1167.62,-262.93 1159.21,-269.37 1165.06,-273.21"/>
</g>
<!-- Node10&#45;&gt;Node42 -->
<g id="edge48" class="edge">
<title>Node10&#45;&gt;Node42</title>
<path fill="none" stroke="midnightblue" d="M1121.69,-241.49C1098.43,-236.15 1071.35,-229.93 1049.46,-224.91"/>
<polygon fill="midnightblue" stroke="midnightblue" points="1121.21,-244.97 1131.74,-243.8 1122.77,-238.15 1121.21,-244.97"/>
</g>
<!-- Node10&#45;&gt;Node43 -->
<g id="edge49" class="edge">
<title>Node10&#45;&gt;Node43</title>
<path fill="none" stroke="midnightblue" d="M1151.8,-238.08C1133.01,-225.42 1104.73,-207.74 1078,-196.39 1068.96,-192.55 1058.93,-189.28 1049.35,-186.6"/>
<polygon fill="midnightblue" stroke="midnightblue" points="1149.98,-241.08 1160.21,-243.84 1153.94,-235.31 1149.98,-241.08"/>
</g>
<!-- Node10&#45;&gt;Node44 -->
<g id="edge50" class="edge">
<title>Node10&#45;&gt;Node44</title>
<path fill="none" stroke="midnightblue" d="M1150.91,-268.59C1131.98,-280.9 1103.97,-298.14 1078,-310.39 1070.41,-313.96 1062.17,-317.34 1054.08,-320.38"/>
<polygon fill="midnightblue" stroke="midnightblue" points="1152.99,-271.41 1159.42,-262.98 1149.14,-265.56 1152.99,-271.41"/>
</g>
<!-- Node46 -->
<g id="node44" class="node">
<title>Node46</title>
<g id="a_node44"><a xlink:href="test__cooling__rates_8c.html#ab44c08fa4b634165f11849064be29d98" target="_top" xlink:title=" ">
<polygon fill="white" stroke="black" points="779,-281.89 779,-300.89 884,-300.89 884,-281.89 779,-281.89"/>
<text text-anchor="middle" x="831.5" y="-288.89" font-family="Helvetica,sans-Serif" font-size="10.00">test_rate_network</text>
</a>
</g>
</g>
<!-- Node10&#45;&gt;Node46 -->
<g id="edge57" class="edge">
<title>Node10&#45;&gt;Node46</title>
<path fill="none" stroke="midnightblue" d="M1120.25,-256.09C1072.01,-258.91 999.04,-264.1 936,-272.39 917.16,-274.86 896.55,-278.46 878.71,-281.86"/>
<polygon fill="midnightblue" stroke="midnightblue" points="1120.67,-259.57 1130.46,-255.51 1120.27,-252.59 1120.67,-259.57"/>
</g>
<!-- Node10&#45;&gt;Node47 -->
<g id="edge55" class="edge">
<title>Node10&#45;&gt;Node47</title>
<path fill="none" stroke="midnightblue" d="M1121.92,-265.23C1094.55,-271.51 1061.85,-279.02 1038.52,-284.38"/>
<polygon fill="midnightblue" stroke="midnightblue" points="1122.77,-268.62 1131.74,-262.98 1121.21,-261.8 1122.77,-268.62"/>
</g>
<!-- Node12 -->
<g id="node12" class="node">
<title>Node12</title>
<g id="a_node12"><a xlink:href="cooling_8c.html#a6b70cdd6a87b2bcaec1739ac40ad79e3" target="_top" xlink:title=" ">
<polygon fill="white" stroke="black" points="786.5,-186.89 786.5,-205.89 876.5,-205.89 876.5,-186.89 786.5,-186.89"/>
<text text-anchor="middle" x="831.5" y="-193.89" font-family="Helvetica,sans-Serif" font-size="10.00">get_lambdanet</text>
</a>
</g>
</g>
<!-- Node11&#45;&gt;Node12 -->
<g id="edge12" class="edge">
<title>Node11&#45;&gt;Node12</title>
<path fill="none" stroke="midnightblue" d="M958.58,-151.66C950.99,-153.79 943.26,-156.07 936,-158.39 908.46,-167.16 877.4,-178.81 856.55,-186.88"/>
<polygon fill="midnightblue" stroke="midnightblue" points="959.7,-154.98 968.41,-148.95 957.84,-148.23 959.7,-154.98"/>
</g>
<!-- Node21 -->
<g id="node21" class="node">
<title>Node21</title>
<g id="a_node21"><a xlink:href="cooling_8c.html#a2cb008d71b53fcb66c3596042453bdb8" target="_top" xlink:title=" ">
<polygon fill="white" stroke="black" points="784,-129.89 784,-148.89 879,-148.89 879,-129.89 784,-129.89"/>
<text text-anchor="middle" x="831.5" y="-136.89" font-family="Helvetica,sans-Serif" font-size="10.00">GetCoolingTime</text>
</a>
</g>
</g>
<!-- Node11&#45;&gt;Node21 -->
<g id="edge22" class="edge">
<title>Node11&#45;&gt;Node21</title>
<path fill="none" stroke="midnightblue" d="M929.81,-139.39C912.51,-139.39 894.64,-139.39 879.01,-139.39"/>
<polygon fill="midnightblue" stroke="midnightblue" points="929.91,-142.89 939.91,-139.39 929.91,-135.89 929.91,-142.89"/>
</g>
<!-- Node38 -->
<g id="node36" class="node">
<title>Node38</title>
<g id="a_node36"><a xlink:href="test__cooling__rates_8c.html#a055d88ea6d38fc323deccde7fd0dca3f" target="_top" xlink:title=" ">
<polygon fill="white" stroke="black" points="763,-234.89 763,-253.89 900,-253.89 900,-234.89 763,-234.89"/>
<text text-anchor="middle" x="831.5" y="-241.89" font-family="Helvetica,sans-Serif" font-size="10.00">test_heatingcooling_rate</text>
</a>
</g>
</g>
<!-- Node11&#45;&gt;Node38 -->
<g id="edge43" class="edge">
<title>Node11&#45;&gt;Node38</title>
<path fill="none" stroke="midnightblue" d="M944.4,-153.13C941.45,-154.69 938.63,-156.44 936,-158.39 911.9,-176.19 922.79,-195.93 900,-215.39 890.01,-223.92 877.13,-230.28 865.31,-234.83"/>
<polygon fill="midnightblue" stroke="midnightblue" points="945.89,-156.29 953.52,-148.94 942.98,-149.93 945.89,-156.29"/>
</g>
<!-- Node13 -->
<g id="node13" class="node">
<title>Node13</title>
<g id="a_node13"><a xlink:href="cooling_8c.html#ad3b2ce3b26247df36f1de8c97ccccf05" target="_top" xlink:title=" ">
<polygon fill="white" stroke="black" points="632,-205.89 632,-224.89 699,-224.89 699,-205.89 632,-205.89"/>
<text text-anchor="middle" x="665.5" y="-212.89" font-family="Helvetica,sans-Serif" font-size="10.00">DoCooling</text>
</a>
</g>
</g>
<!-- Node12&#45;&gt;Node13 -->
<g id="edge13" class="edge">
<title>Node12&#45;&gt;Node13</title>
<path fill="none" stroke="midnightblue" d="M775.87,-202.71C750.47,-205.66 721.11,-209.06 699.21,-211.6"/>
<polygon fill="midnightblue" stroke="midnightblue" points="776.59,-206.16 786.12,-201.53 775.78,-199.2 776.59,-206.16"/>
</g>
<!-- Node14 -->
<g id="node14" class="node">
<title>Node14</title>
<g id="a_node14"><a xlink:href="sfr__eff_8c.html#adbc106c51df0aa2c0b5727eadbf2dd3c" target="_top" xlink:title=" ">
<polygon fill="white" stroke="black" points="465.5,-205.89 465.5,-224.89 550.5,-224.89 550.5,-205.89 465.5,-205.89"/>
<text text-anchor="middle" x="508" y="-212.89" font-family="Helvetica,sans-Serif" font-size="10.00">cooling_direct</text>
</a>
</g>
</g>
<!-- Node13&#45;&gt;Node14 -->
<g id="edge14" class="edge">
<title>Node13&#45;&gt;Node14</title>
<path fill="none" stroke="midnightblue" d="M621.78,-215.39C599.65,-215.39 572.72,-215.39 550.73,-215.39"/>
<polygon fill="midnightblue" stroke="midnightblue" points="621.9,-218.89 631.9,-215.39 621.9,-211.89 621.9,-218.89"/>
</g>
<!-- Node19 -->
<g id="node19" class="node">
<title>Node19</title>
<g id="a_node19"><a xlink:href="test__cooling_8c.html#a5fe9c1155a1baae832661fc31fea0654" target="_top" xlink:title=" ">
<polygon fill="white" stroke="black" points="462.5,-167.89 462.5,-186.89 553.5,-186.89 553.5,-167.89 462.5,-167.89"/>
<text text-anchor="middle" x="508" y="-174.89" font-family="Helvetica,sans-Serif" font-size="10.00">test_DoCooling</text>
</a>
</g>
</g>
<!-- Node13&#45;&gt;Node19 -->
<g id="edge20" class="edge">
<title>Node13&#45;&gt;Node19</title>
<path fill="none" stroke="midnightblue" d="M622.01,-205C598.87,-199.35 570.44,-192.4 547.88,-186.89"/>
<polygon fill="midnightblue" stroke="midnightblue" points="621.36,-208.45 631.9,-207.42 623.02,-201.65 621.36,-208.45"/>
</g>
<!-- Node15 -->
<g id="node15" class="node">
<title>Node15</title>
<g id="a_node15"><a xlink:href="sfr__eff_8c.html#abc5b151d356619b98a8ded72cc9426c7" target="_top" xlink:title=" ">
<polygon fill="white" stroke="black" points="265,-205.89 265,-224.89 412,-224.89 412,-205.89 265,-205.89"/>
<text text-anchor="middle" x="338.5" y="-212.89" font-family="Helvetica,sans-Serif" font-size="10.00">cooling_and_starformation</text>
</a>
</g>
</g>
<!-- Node14&#45;&gt;Node15 -->
<g id="edge15" class="edge">
<title>Node14&#45;&gt;Node15</title>
<path fill="none" stroke="midnightblue" d="M455.05,-215.39C441.45,-215.39 426.53,-215.39 412.06,-215.39"/>
<polygon fill="midnightblue" stroke="midnightblue" points="455.16,-218.89 465.16,-215.39 455.16,-211.89 455.16,-218.89"/>
</g>
<!-- Node15&#45;&gt;Node16 -->
<g id="edge16" class="edge">
<title>Node15&#45;&gt;Node16</title>
<path fill="none" stroke="midnightblue" d="M268.85,-230.68C267.49,-231.83 266.21,-233.07 265,-234.39 200.19,-305.22 280.49,-366.35 229,-447.39 214.64,-469.99 186.55,-485.41 169.12,-493.28"/>
<polygon fill="midnightblue" stroke="midnightblue" points="270.98,-233.47 277.26,-224.94 267.03,-227.69 270.98,-233.47"/>
</g>
<!-- Node15&#45;&gt;Node18 -->
<g id="edge18" class="edge">
<title>Node15&#45;&gt;Node18</title>
<path fill="none" stroke="midnightblue" d="M254.81,-205.47C225.86,-202 195.7,-198.39 176,-196.02"/>
<polygon fill="midnightblue" stroke="midnightblue" points="254.63,-208.98 264.98,-206.69 255.46,-202.03 254.63,-208.98"/>
</g>
<!-- Node17 -->
<g id="node17" class="node">
<title>Node17</title>
<g id="a_node17"><a xlink:href="gadget_2main_8c.html#a3c04138a5bfe5d72780bb7e82a18e627" target="_top" xlink:title=" ">
<polygon fill="white" stroke="black" points="0,-183.89 0,-202.89 41,-202.89 41,-183.89 0,-183.89"/>
<text text-anchor="middle" x="20.5" y="-190.89" font-family="Helvetica,sans-Serif" font-size="10.00">main</text>
</a>
</g>
</g>
<!-- Node16&#45;&gt;Node17 -->
<g id="edge17" class="edge">
<title>Node16&#45;&gt;Node17</title>
<path fill="none" stroke="midnightblue" d="M127.51,-488.47C110.75,-479.73 89.38,-465.88 77,-447.39 22.27,-365.61 20.5,-238.92 21.19,-203.11"/>
<polygon fill="midnightblue" stroke="midnightblue" points="126.24,-491.74 136.75,-493.02 129.33,-485.46 126.24,-491.74"/>
</g>
<!-- Node18&#45;&gt;Node17 -->
<g id="edge19" class="edge">
<title>Node18&#45;&gt;Node17</title>
<path fill="none" stroke="midnightblue" d="M119.56,-193.39C94.95,-193.39 61.93,-193.39 41.18,-193.39"/>
<polygon fill="midnightblue" stroke="midnightblue" points="119.86,-196.89 129.86,-193.39 119.86,-189.89 119.86,-196.89"/>
</g>
<!-- Node20 -->
<g id="node20" class="node">
<title>Node20</title>
<g id="a_node20"><a xlink:href="test__cooling_8c.html#a840291bc02cba5474a4cb46a9b9566fe" target="_top" xlink:title=" ">
<polygon fill="white" stroke="black" points="318,-167.89 318,-186.89 359,-186.89 359,-167.89 318,-167.89"/>
<text text-anchor="middle" x="338.5" y="-174.89" font-family="Helvetica,sans-Serif" font-size="10.00">main</text>
</a>
</g>
</g>
<!-- Node19&#45;&gt;Node20 -->
<g id="edge21" class="edge">
<title>Node19&#45;&gt;Node20</title>
<path fill="none" stroke="midnightblue" d="M452.01,-177.39C420.13,-177.39 381.92,-177.39 359.24,-177.39"/>
<polygon fill="midnightblue" stroke="midnightblue" points="452.11,-180.89 462.11,-177.39 452.11,-173.89 452.11,-180.89"/>
</g>
<!-- Node21&#45;&gt;Node19 -->
<g id="edge42" class="edge">
<title>Node21&#45;&gt;Node19</title>
<path fill="none" stroke="midnightblue" d="M773.76,-150.8C758.62,-153.57 742.22,-156.33 727,-158.39 667.33,-166.45 597.98,-171.81 553.81,-174.72"/>
<polygon fill="midnightblue" stroke="midnightblue" points="774.83,-154.16 784.02,-148.89 773.55,-147.28 774.83,-154.16"/>
</g>
<!-- Node22 -->
<g id="node22" class="node">
<title>Node22</title>
<g id="a_node22"><a xlink:href="sfr__eff_8c.html#a64f07331e54d0eb86fd4f6466d58e0f2" target="_top" xlink:title=" ">
<polygon fill="white" stroke="black" points="619,-243.89 619,-262.89 712,-262.89 712,-243.89 619,-243.89"/>
<text text-anchor="middle" x="665.5" y="-250.89" font-family="Helvetica,sans-Serif" font-size="10.00">cooling_relaxed</text>
</a>
</g>
</g>
<!-- Node21&#45;&gt;Node22 -->
<g id="edge23" class="edge">
<title>Node21&#45;&gt;Node22</title>
<path fill="none" stroke="midnightblue" d="M798.14,-153.45C786.22,-159.65 773.15,-167.74 763,-177.39 741.28,-198.03 750.75,-216.11 727,-234.39 721.94,-238.28 716.07,-241.39 710.01,-243.86"/>
<polygon fill="midnightblue" stroke="midnightblue" points="799.97,-156.45 807.39,-148.89 796.87,-150.17 799.97,-156.45"/>
</g>
<!-- Node32 -->
<g id="node31" class="node">
<title>Node32</title>
<g id="a_node31"><a xlink:href="sfr__eff_8c.html#a054be999a15e37a4d4d9b8dde836f287" target="_top" xlink:title=" ">
<polygon fill="white" stroke="black" points="631.5,-129.89 631.5,-148.89 699.5,-148.89 699.5,-129.89 631.5,-129.89"/>
<text text-anchor="middle" x="665.5" y="-136.89" font-family="Helvetica,sans-Serif" font-size="10.00">get_egyeff</text>
</a>
</g>
</g>
<!-- Node21&#45;&gt;Node32 -->
<g id="edge32" class="edge">
<title>Node21&#45;&gt;Node32</title>
<path fill="none" stroke="midnightblue" d="M773.92,-139.39C749.14,-139.39 720.92,-139.39 699.63,-139.39"/>
<polygon fill="midnightblue" stroke="midnightblue" points="773.94,-142.89 783.94,-139.39 773.94,-135.89 773.94,-142.89"/>
</g>
<!-- Node33 -->
<g id="node32" class="node">
<title>Node33</title>
<g id="a_node32"><a xlink:href="sfr__eff_8c.html#a17ba6f2251e04bc57005d00cc09640c8" target="_top" xlink:title=" ">
<polygon fill="white" stroke="black" points="448,-105.39 448,-135.39 568,-135.39 568,-105.39 448,-105.39"/>
<text text-anchor="start" x="456" y="-123.39" font-family="Helvetica,sans-Serif" font-size="10.00">init_cooling_and_star</text>
<text text-anchor="middle" x="508" y="-112.39" font-family="Helvetica,sans-Serif" font-size="10.00">_formation</text>
</a>
</g>
</g>
<!-- Node21&#45;&gt;Node33 -->
<g id="edge41" class="edge">
<title>Node21&#45;&gt;Node33</title>
<path fill="none" stroke="midnightblue" d="M778.5,-127.94C762.11,-124.84 743.87,-121.92 727,-120.39 673.48,-115.51 612.26,-116.05 568.35,-117.49"/>
<polygon fill="midnightblue" stroke="midnightblue" points="777.95,-131.39 788.44,-129.87 779.3,-124.52 777.95,-131.39"/>
</g>
<!-- Node23 -->
<g id="node23" class="node">
<title>Node23</title>
<g id="a_node23"><a xlink:href="sfr__eff_8c.html#a4951e59bdceebd7b56b972942bc3a10d" target="_top" xlink:title=" ">
<polygon fill="white" stroke="black" points="465.5,-331.89 465.5,-350.89 550.5,-350.89 550.5,-331.89 465.5,-331.89"/>
<text text-anchor="middle" x="508" y="-338.89" font-family="Helvetica,sans-Serif" font-size="10.00">get_sfr_eeqos</text>
</a>
</g>
</g>
<!-- Node22&#45;&gt;Node23 -->
<g id="edge24" class="edge">
<title>Node22&#45;&gt;Node23</title>
<path fill="none" stroke="midnightblue" d="M617.63,-266.42C612.94,-268.22 608.32,-270.21 604,-272.39 570.68,-289.16 536.45,-317.21 519.64,-331.84"/>
<polygon fill="midnightblue" stroke="midnightblue" points="619.03,-269.64 627.28,-262.99 616.68,-263.04 619.03,-269.64"/>
</g>
<!-- Node24 -->
<g id="node24" class="node">
<title>Node24</title>
<g id="a_node24"><a xlink:href="sfr__eff_8c.html#a18c2f2fb564de2ff8a5372d8bcbe0968" target="_top" xlink:title=" ">
<polygon fill="white" stroke="black" points="283,-353.39 283,-383.39 394,-383.39 394,-353.39 283,-353.39"/>
<text text-anchor="start" x="291" y="-371.39" font-family="Helvetica,sans-Serif" font-size="10.00">get_helium_neutral</text>
<text text-anchor="middle" x="338.5" y="-360.39" font-family="Helvetica,sans-Serif" font-size="10.00">_fraction_sfreff</text>
</a>
</g>
</g>
<!-- Node23&#45;&gt;Node24 -->
<g id="edge25" class="edge">
<title>Node23&#45;&gt;Node24</title>
<path fill="none" stroke="midnightblue" d="M455.28,-349.72C435.87,-352.85 413.74,-356.42 394.07,-359.59"/>
<polygon fill="midnightblue" stroke="midnightblue" points="455.85,-353.18 465.16,-348.13 454.74,-346.27 455.85,-353.18"/>
</g>
<!-- Node28 -->
<g id="node28" class="node">
<title>Node28</title>
<g id="a_node28"><a xlink:href="sfr__eff_8c.html#a4e4a6b5d6976b26f1ababfba475c1f4c" target="_top" xlink:title=" ">
<polygon fill="white" stroke="black" points="281,-293.39 281,-323.39 396,-323.39 396,-293.39 281,-293.39"/>
<text text-anchor="start" x="289" y="-311.39" font-family="Helvetica,sans-Serif" font-size="10.00">get_neutral_fraction</text>
<text text-anchor="middle" x="338.5" y="-300.39" font-family="Helvetica,sans-Serif" font-size="10.00">_sfreff</text>
</a>
</g>
</g>
<!-- Node23&#45;&gt;Node28 -->
<g id="edge29" class="edge">
<title>Node23&#45;&gt;Node28</title>
<path fill="none" stroke="midnightblue" d="M455.35,-331.21C436.63,-327.52 415.4,-323.34 396.27,-319.57"/>
<polygon fill="midnightblue" stroke="midnightblue" points="454.68,-334.65 465.16,-333.14 456.03,-327.78 454.68,-334.65"/>
</g>
<!-- Node25 -->
<g id="node25" class="node">
<title>Node25</title>
<g id="a_node25"><a xlink:href="petaio_8c.html#a7c9ab26d8fa276570275e651ef60b626" target="_top" xlink:title=" ">
<polygon fill="white" stroke="black" points="99.5,-342.89 99.5,-361.89 206.5,-361.89 206.5,-342.89 99.5,-342.89"/>
<text text-anchor="middle" x="153" y="-349.89" font-family="Helvetica,sans-Serif" font-size="10.00">GTHeliumIFraction</text>
</a>
</g>
</g>
<!-- Node24&#45;&gt;Node25 -->
<g id="edge26" class="edge">
<title>Node24&#45;&gt;Node25</title>
<path fill="none" stroke="midnightblue" d="M272.85,-362.75C251.22,-360.86 227.39,-358.78 206.77,-356.99"/>
<polygon fill="midnightblue" stroke="midnightblue" points="272.67,-366.25 282.94,-363.63 273.28,-359.27 272.67,-366.25"/>
</g>
<!-- Node26 -->
<g id="node26" class="node">
<title>Node26</title>
<g id="a_node26"><a xlink:href="petaio_8c.html#a07cf999493947ef5a5a1c09a6eb9a811" target="_top" xlink:title=" ">
<polygon fill="white" stroke="black" points="98,-418.89 98,-437.89 208,-437.89 208,-418.89 98,-418.89"/>
<text text-anchor="middle" x="153" y="-425.89" font-family="Helvetica,sans-Serif" font-size="10.00">GTHeliumIIFraction</text>
</a>
</g>
</g>
<!-- Node24&#45;&gt;Node26 -->
<g id="edge27" class="edge">
<title>Node24&#45;&gt;Node26</title>
<path fill="none" stroke="midnightblue" d="M291.33,-387.15C272.21,-394.58 249.71,-402.87 229,-409.39 218.11,-412.81 206.18,-416.06 195.11,-418.86"/>
<polygon fill="midnightblue" stroke="midnightblue" points="292.67,-390.39 300.7,-383.48 290.12,-383.87 292.67,-390.39"/>
</g>
<!-- Node27 -->
<g id="node27" class="node">
<title>Node27</title>
<g id="a_node27"><a xlink:href="petaio_8c.html#ab79156c0afd70a6ac3953b8db5a718a3" target="_top" xlink:title=" ">
<polygon fill="white" stroke="black" points="96.5,-380.89 96.5,-399.89 209.5,-399.89 209.5,-380.89 96.5,-380.89"/>
<text text-anchor="middle" x="153" y="-387.89" font-family="Helvetica,sans-Serif" font-size="10.00">GTHeliumIIIFraction</text>
</a>
</g>
</g>
<!-- Node24&#45;&gt;Node27 -->
<g id="edge28" class="edge">
<title>Node24&#45;&gt;Node27</title>
<path fill="none" stroke="midnightblue" d="M272.98,-376.12C252.3,-378.6 229.6,-381.32 209.62,-383.72"/>
<polygon fill="midnightblue" stroke="midnightblue" points="273.43,-379.59 282.94,-374.93 272.6,-372.64 273.43,-379.59"/>
</g>
<!-- Node29 -->
<g id="node29" class="node">
<title>Node29</title>
<g id="a_node29"><a xlink:href="blackhole_8c.html#a8acb3cb152653ffaa7953e776e056382" target="_top" xlink:title=" ">
<polygon fill="white" stroke="red" points="96,-293.39 96,-323.39 210,-323.39 210,-293.39 96,-293.39"/>
<text text-anchor="start" x="104" y="-311.39" font-family="Helvetica,sans-Serif" font-size="10.00">blackhole_accretion</text>
<text text-anchor="middle" x="153" y="-300.39" font-family="Helvetica,sans-Serif" font-size="10.00">_ngbiter</text>
</a>
</g>
</g>
<!-- Node28&#45;&gt;Node29 -->
<g id="edge30" class="edge">
<title>Node28&#45;&gt;Node29</title>
<path fill="none" stroke="midnightblue" d="M270.71,-308.39C250.8,-308.39 229.2,-308.39 210.05,-308.39"/>
<polygon fill="midnightblue" stroke="midnightblue" points="270.95,-311.89 280.95,-308.39 270.95,-304.89 270.95,-311.89"/>
</g>
<!-- Node31 -->
<g id="node30" class="node">
<title>Node31</title>
<g id="a_node30"><a xlink:href="petaio_8c.html#a52bacc56b79300a30f2ac8ebc1c7fd07" target="_top" xlink:title=" ">
<polygon fill="white" stroke="black" points="77,-254.89 77,-273.89 229,-273.89 229,-254.89 77,-254.89"/>
<text text-anchor="middle" x="153" y="-261.89" font-family="Helvetica,sans-Serif" font-size="10.00">GTNeutralHydrogenFraction</text>
</a>
</g>
</g>
<!-- Node28&#45;&gt;Node31 -->
<g id="edge31" class="edge">
<title>Node28&#45;&gt;Node31</title>
<path fill="none" stroke="midnightblue" d="M271.17,-292.48C245.25,-286.27 216.38,-279.34 193.78,-273.93"/>
<polygon fill="midnightblue" stroke="midnightblue" points="270.41,-295.9 280.95,-294.83 272.04,-289.09 270.41,-295.9"/>
</g>
<!-- Node32&#45;&gt;Node33 -->
<g id="edge33" class="edge">
<title>Node32&#45;&gt;Node33</title>
<path fill="none" stroke="midnightblue" d="M620.79,-134.05C604.43,-132.05 585.56,-129.74 568.04,-127.6"/>
<polygon fill="midnightblue" stroke="midnightblue" points="620.79,-137.57 631.14,-135.31 621.64,-130.62 620.79,-137.57"/>
</g>
<!-- Node35 -->
<g id="node34" class="node">
<title>Node35</title>
<g id="a_node34"><a xlink:href="sfr__eff_8c.html#a4080dc1b2496c08090d1101544b48cc2" target="_top" xlink:title=" ">
<polygon fill="white" stroke="red" points="461,-249.89 461,-268.89 555,-268.89 555,-249.89 461,-249.89"/>
<text text-anchor="middle" x="508" y="-256.89" font-family="Helvetica,sans-Serif" font-size="10.00">sfreff_on_eeqos</text>
</a>
</g>
</g>
<!-- Node32&#45;&gt;Node35 -->
<g id="edge36" class="edge">
<title>Node32&#45;&gt;Node35</title>
<path fill="none" stroke="midnightblue" d="M646.38,-155.96C634.22,-167.2 617.95,-182.48 604,-196.39 587.53,-212.81 587.11,-221.12 568,-234.39 558.95,-240.66 548.08,-245.83 538.14,-249.8"/>
<polygon fill="midnightblue" stroke="midnightblue" points="649.07,-158.24 654.05,-148.89 644.33,-153.09 649.07,-158.24"/>
</g>
<!-- Node34 -->
<g id="node33" class="node">
<title>Node34</title>
<g id="a_node33"><a xlink:href="run_8c.html#aee4609880c9e92e1c421c4bd238589fd" target="_top" xlink:title=" ">
<polygon fill="white" stroke="black" points="313.5,-110.89 313.5,-129.89 363.5,-129.89 363.5,-110.89 313.5,-110.89"/>
<text text-anchor="middle" x="338.5" y="-117.89" font-family="Helvetica,sans-Serif" font-size="10.00">begrun</text>
</a>
</g>
</g>
<!-- Node33&#45;&gt;Node34 -->
<g id="edge34" class="edge">
<title>Node33&#45;&gt;Node34</title>
<path fill="none" stroke="midnightblue" d="M437.94,-120.39C411.53,-120.39 383.1,-120.39 363.61,-120.39"/>
<polygon fill="midnightblue" stroke="midnightblue" points="437.95,-123.89 447.95,-120.39 437.95,-116.89 437.95,-123.89"/>
</g>
<!-- Node34&#45;&gt;Node17 -->
<g id="edge35" class="edge">
<title>Node34&#45;&gt;Node17</title>
<path fill="none" stroke="midnightblue" d="M303.22,-126.08C253.1,-134.72 157.06,-152.48 77,-174.39 64.92,-177.69 51.63,-182.21 41.09,-186.01"/>
<polygon fill="midnightblue" stroke="midnightblue" points="303.93,-129.51 313.2,-124.37 302.75,-122.61 303.93,-129.51"/>
</g>
<!-- Node35&#45;&gt;Node15 -->
<g id="edge38" class="edge">
<title>Node35&#45;&gt;Node15</title>
<path fill="none" stroke="midnightblue" d="M461,-247.27C445.44,-243.18 427.97,-238.58 412,-234.39 400.3,-231.31 387.53,-227.96 376.01,-224.95"/>
<polygon fill="midnightblue" stroke="midnightblue" points="460.35,-250.72 470.91,-249.88 462.13,-243.95 460.35,-250.72"/>
</g>
<!-- Node35&#45;&gt;Node24 -->
<g id="edge39" class="edge">
<title>Node35&#45;&gt;Node24</title>
<path fill="none" stroke="midnightblue" d="M488.39,-275.43C469.79,-291.05 440,-314.91 412,-332.39 399.84,-339.98 385.86,-347.23 373.44,-353.22"/>
<polygon fill="midnightblue" stroke="midnightblue" points="490.74,-278.03 496.11,-268.89 486.22,-272.69 490.74,-278.03"/>
</g>
<!-- Node35&#45;&gt;Node28 -->
<g id="edge40" class="edge">
<title>Node35&#45;&gt;Node28</title>
<path fill="none" stroke="midnightblue" d="M464.43,-271.84C442.05,-278.39 414.46,-286.46 390.9,-293.35"/>
<polygon fill="midnightblue" stroke="midnightblue" points="465.69,-275.12 474.31,-268.95 463.73,-268.4 465.69,-275.12"/>
</g>
<!-- Node36 -->
<g id="node35" class="node">
<title>Node36</title>
<g id="a_node35"><a xlink:href="blackhole_8c.html#a67428742d307f266f245f41b661e3c29" target="_top" xlink:title=" ">
<polygon fill="white" stroke="red" points="281.5,-244.39 281.5,-274.39 395.5,-274.39 395.5,-244.39 281.5,-244.39"/>
<text text-anchor="start" x="289.5" y="-262.39" font-family="Helvetica,sans-Serif" font-size="10.00">blackhole_feedback</text>
<text text-anchor="middle" x="338.5" y="-251.39" font-family="Helvetica,sans-Serif" font-size="10.00">_ngbiter</text>
</a>
</g>
</g>
<!-- Node35&#45;&gt;Node36 -->
<g id="edge37" class="edge">
<title>Node35&#45;&gt;Node36</title>
<path fill="none" stroke="midnightblue" d="M450.61,-259.39C432.91,-259.39 413.38,-259.39 395.7,-259.39"/>
<polygon fill="midnightblue" stroke="midnightblue" points="450.79,-262.89 460.79,-259.39 450.79,-255.89 450.79,-262.89"/>
</g>
<!-- Node39 -->
<g id="node37" class="node">
<title>Node39</title>
<g id="a_node37"><a xlink:href="test__cooling__rates_8c.html#a840291bc02cba5474a4cb46a9b9566fe" target="_top" xlink:title=" ">
<polygon fill="white" stroke="black" points="645,-281.89 645,-300.89 686,-300.89 686,-281.89 645,-281.89"/>
<text text-anchor="middle" x="665.5" y="-288.89" font-family="Helvetica,sans-Serif" font-size="10.00">main</text>
</a>
</g>
</g>
<!-- Node38&#45;&gt;Node39 -->
<g id="edge44" class="edge">
<title>Node38&#45;&gt;Node39</title>
<path fill="none" stroke="midnightblue" d="M787.53,-256.7C754.77,-266.09 711.19,-278.58 686.25,-285.73"/>
<polygon fill="midnightblue" stroke="midnightblue" points="788.66,-260.02 797.31,-253.9 786.73,-253.29 788.66,-260.02"/>
</g>
<!-- Node41 -->
<g id="node39" class="node">
<title>Node41</title>
<g id="a_node39"><a xlink:href="cooling_8c.html#ae342c4a687fc7f1ff741a45d010e0e4d" target="_top" xlink:title=" ">
<polygon fill="white" stroke="black" points="604,-369.89 604,-388.89 727,-388.89 727,-369.89 604,-369.89"/>
<text text-anchor="middle" x="665.5" y="-376.89" font-family="Helvetica,sans-Serif" font-size="10.00">GetHeliumIonFraction</text>
</a>
</g>
</g>
<!-- Node40&#45;&gt;Node41 -->
<g id="edge46" class="edge">
<title>Node40&#45;&gt;Node41</title>
<path fill="none" stroke="midnightblue" d="M925.32,-379.39C864.5,-379.39 782.38,-379.39 727.09,-379.39"/>
<polygon fill="midnightblue" stroke="midnightblue" points="925.66,-382.89 935.66,-379.39 925.66,-375.89 925.66,-382.89"/>
</g>
<!-- Node41&#45;&gt;Node24 -->
<g id="edge47" class="edge">
<title>Node41&#45;&gt;Node24</title>
<path fill="none" stroke="midnightblue" d="M593.59,-376.99C533.58,-374.96 448.82,-372.09 394.01,-370.23"/>
<polygon fill="midnightblue" stroke="midnightblue" points="593.64,-380.49 603.75,-377.33 593.88,-373.49 593.64,-380.49"/>
</g>
<!-- Node45 -->
<g id="node43" class="node">
<title>Node45</title>
<g id="a_node43"><a xlink:href="cooling_8c.html#afc517262b7b2a6b80ba9302b10d4721c" target="_top" xlink:title=" ">
<polygon fill="white" stroke="black" points="611,-322.89 611,-341.89 720,-341.89 720,-322.89 611,-322.89"/>
<text text-anchor="middle" x="665.5" y="-329.89" font-family="Helvetica,sans-Serif" font-size="10.00">GetNeutralFraction</text>
</a>
</g>
</g>
<!-- Node44&#45;&gt;Node45 -->
<g id="edge51" class="edge">
<title>Node44&#45;&gt;Node45</title>
<path fill="none" stroke="midnightblue" d="M939.16,-334.8C875.04,-334.23 779.45,-333.38 720.15,-332.86"/>
<polygon fill="midnightblue" stroke="midnightblue" points="939.14,-338.3 949.18,-334.88 939.21,-331.3 939.14,-338.3"/>
</g>
<!-- Node44&#45;&gt;Node46 -->
<g id="edge53" class="edge">
<title>Node44&#45;&gt;Node46</title>
<path fill="none" stroke="midnightblue" d="M939.27,-318.46C915.79,-312.51 890.23,-306.03 870.01,-300.9"/>
<polygon fill="midnightblue" stroke="midnightblue" points="938.64,-321.91 949.19,-320.98 940.36,-315.13 938.64,-321.91"/>
</g>
<!-- Node45&#45;&gt;Node28 -->
<g id="edge52" class="edge">
<title>Node45&#45;&gt;Node28</title>
<path fill="none" stroke="midnightblue" d="M600.97,-325.42C589.98,-324.32 578.67,-323.27 568,-322.39 509.57,-317.57 442.62,-313.66 396.36,-311.2"/>
<polygon fill="midnightblue" stroke="midnightblue" points="600.64,-328.9 610.94,-326.43 601.35,-321.94 600.64,-328.9"/>
</g>
<!-- Node46&#45;&gt;Node39 -->
<g id="edge54" class="edge">
<title>Node46&#45;&gt;Node39</title>
<path fill="none" stroke="midnightblue" d="M768.49,-291.39C739.39,-291.39 706.71,-291.39 686.36,-291.39"/>
<polygon fill="midnightblue" stroke="midnightblue" points="768.61,-294.89 778.61,-291.39 768.61,-287.89 768.61,-294.89"/>
</g>
<!-- Node47&#45;&gt;Node46 -->
<g id="edge56" class="edge">
<title>Node47&#45;&gt;Node46</title>
<path fill="none" stroke="midnightblue" d="M965.12,-291.39C940.94,-291.39 910.09,-291.39 884.23,-291.39"/>
<polygon fill="midnightblue" stroke="midnightblue" points="965.38,-294.89 975.38,-291.39 965.38,-287.89 965.38,-294.89"/>
</g>
<!-- Node48&#45;&gt;Node49 -->
<g id="edge67" class="edge">
<title>Node48&#45;&gt;Node49</title>
<path fill="none" stroke="midnightblue" d="M1105.66,-82.27C1089.48,-79.14 1072.5,-75.86 1057.33,-72.93"/>
<polygon fill="midnightblue" stroke="midnightblue" points="1105.13,-85.73 1115.62,-84.19 1106.46,-78.86 1105.13,-85.73"/>
</g>
<!-- Node49&#45;&gt;Node34 -->
<g id="edge68" class="edge">
<title>Node49&#45;&gt;Node34</title>
<path fill="none" stroke="midnightblue" d="M928.03,-63.71C819.77,-65.1 618.06,-71.1 448,-95.39 418.72,-99.57 385.68,-107.68 363.84,-113.53"/>
<polygon fill="midnightblue" stroke="midnightblue" points="928.25,-67.21 938.21,-63.59 928.17,-60.21 928.25,-67.21"/>
</g>
<!-- Node50&#45;&gt;Node2 -->
<g id="edge71" class="edge">
<title>Node50&#45;&gt;Node2</title>
<path fill="none" stroke="midnightblue" d="M1370.7,-310.39C1358.04,-310.39 1345.19,-310.39 1334.51,-310.39"/>
<polygon fill="midnightblue" stroke="midnightblue" points="1370.76,-313.89 1380.76,-310.39 1370.76,-306.89 1370.76,-313.89"/>
</g>
<!-- Node52 -->
<g id="node50" class="node">
<title>Node52</title>
<g id="a_node50"><a xlink:href="hydra_8c.html#aab8e916e02126d7f36d2065cc5678dec" target="_top" xlink:title=" ">
<polygon fill="white" stroke="black" points="1271,-518.89 1271,-537.89 1345,-537.89 1345,-518.89 1271,-518.89"/>
<text text-anchor="middle" x="1308" y="-525.89" font-family="Helvetica,sans-Serif" font-size="10.00">hydro_force</text>
</a>
</g>
</g>
<!-- Node51&#45;&gt;Node52 -->
<g id="edge73" class="edge">
<title>Node51&#45;&gt;Node52</title>
<path fill="none" stroke="midnightblue" d="M1389.19,-500.29C1372.1,-506.28 1352.13,-513.27 1336.39,-518.79"/>
<polygon fill="midnightblue" stroke="midnightblue" points="1390.58,-503.51 1398.86,-496.9 1388.27,-496.9 1390.58,-503.51"/>
</g>
<!-- Node52&#45;&gt;Node16 -->
<g id="edge74" class="edge">
<title>Node52&#45;&gt;Node16</title>
<path fill="none" stroke="midnightblue" d="M1261.03,-540.15C1252.42,-542.1 1243.46,-543.95 1235,-545.39 1134.99,-562.41 1109.45,-569.39 1008,-569.39 1008,-569.39 1008,-569.39 507,-569.39 398.92,-569.39 369.83,-571.69 265,-545.39 229.39,-536.45 190.28,-518.06 169.31,-507.44"/>
<polygon fill="midnightblue" stroke="midnightblue" points="1261.98,-543.53 1270.92,-537.85 1260.39,-536.71 1261.98,-543.53"/>
</g>
</g>
</svg>
