<?xml version="1.0" encoding="UTF-8" standalone="no"?>
<!DOCTYPE svg PUBLIC "-//W3C//DTD SVG 1.1//EN"
 "http://www.w3.org/Graphics/SVG/1.1/DTD/svg11.dtd">
<!-- Generated by graphviz version 2.50.0 (0)
 -->
<!-- Title: libgenic Pages: 1 -->
<svg width="168pt" height="132pt"
 viewBox="0.00 0.00 168.00 132.00" xmlns="http://www.w3.org/2000/svg" xmlns:xlink="http://www.w3.org/1999/xlink">
<g id="graph0" class="graph" transform="scale(1 1) rotate(0) translate(4 128)">
<title>libgenic</title>
<polygon fill="white" stroke="transparent" points="-4,4 -4,-128 164,-128 164,4 -4,4"/>
<g id="clust1" class="cluster">
<title>clusterdir_f041f369dc0c8941d6ee4ed0abe520d7</title>
<g id="a_clust1"><a xlink:href="dir_f041f369dc0c8941d6ee4ed0abe520d7.html" target="_top">
<polygon fill="#eeeeff" stroke="black" points="8,-64 8,-116 152,-116 152,-64 8,-64"/>
</a>
</g>
</g>
<!-- dir_f041f369dc0c8941d6ee4ed0abe520d7 -->
<g id="node1" class="node">
<title>dir_f041f369dc0c8941d6ee4ed0abe520d7</title>
<text text-anchor="middle" x="116" y="-87.5" font-family="Helvetica,sans-Serif" font-size="10.00">libgenic</text>
</g>
<!-- dir_8db5bc7a24c620673ff2e44953ca6f6c -->
<g id="node3" class="node">
<title>dir_8db5bc7a24c620673ff2e44953ca6f6c</title>
<g id="a_node3"><a xlink:href="dir_8db5bc7a24c620673ff2e44953ca6f6c.html" target="_top" xlink:title="libgadget">
<polygon fill="white" stroke="red" points="110,-36 48,-36 48,0 110,0 110,-36"/>
<text text-anchor="middle" x="79" y="-15.5" font-family="Helvetica,sans-Serif" font-size="10.00">libgadget</text>
</a>
</g>
</g>
<!-- dir_f041f369dc0c8941d6ee4ed0abe520d7&#45;&gt;dir_8db5bc7a24c620673ff2e44953ca6f6c -->
<g id="edge1" class="edge">
<title>dir_f041f369dc0c8941d6ee4ed0abe520d7&#45;&gt;dir_8db5bc7a24c620673ff2e44953ca6f6c</title>
<path fill="none" stroke="black" d="M106.85,-71.7C102.6,-63.64 97.44,-53.89 92.73,-44.98"/>
<polygon fill="black" stroke="black" points="95.81,-43.31 88.04,-36.1 89.62,-46.58 95.81,-43.31"/>
<g id="a_edge1&#45;headlabel"><a xlink:href="dir_000005_000002.html" target="_top" xlink:title="32">
<text text-anchor="middle" x="100" y="-42.66" font-family="Helvetica,sans-Serif" font-size="10.00">32</text>
</a>
</g>
</g>
<!-- dir_4e24c3a74b4c78c2a1530e3825173e2e -->
<g id="node2" class="node">
<title>dir_4e24c3a74b4c78c2a1530e3825173e2e</title>
<g id="a_node2"><a xlink:href="dir_4e24c3a74b4c78c2a1530e3825173e2e.html" target="_top" xlink:title="tests">
<polygon fill="white" stroke="black" points="70,-108 16,-108 16,-72 70,-72 70,-108"/>
<text text-anchor="middle" x="43" y="-87.5" font-family="Helvetica,sans-Serif" font-size="10.00">tests</text>
</a>
</g>
</g>
<!-- dir_4e24c3a74b4c78c2a1530e3825173e2e&#45;&gt;dir_8db5bc7a24c620673ff2e44953ca6f6c -->
<g id="edge2" class="edge">
<title>dir_4e24c3a74b4c78c2a1530e3825173e2e&#45;&gt;dir_8db5bc7a24c620673ff2e44953ca6f6c</title>
<path fill="none" stroke="black" d="M51.9,-71.7C56,-63.73 60.95,-54.1 65.49,-45.26"/>
<polygon fill="black" stroke="black" points="68.74,-46.6 70.2,-36.1 62.52,-43.4 68.74,-46.6"/>
<g id="a_edge2&#45;headlabel"><a xlink:href="dir_000006_000002.html" target="_top" xlink:title="4">
<text text-anchor="middle" x="69.62" y="-48.59" font-family="Helvetica,sans-Serif" font-size="10.00">4</text>
</a>
</g>
</g>
</g>
</svg>
