<?xml version="1.0" encoding="UTF-8" standalone="no"?>
<!DOCTYPE svg PUBLIC "-//W3C//DTD SVG 1.1//EN"
 "http://www.w3.org/Graphics/SVG/1.1/DTD/svg11.dtd">
<!-- Generated by graphviz version 2.38.0 (20140413.2041)
 -->
<!-- Title: domain_toptree_insert Pages: 1 -->
<svg width="188pt" height="39pt"
 viewBox="0.00 0.00 187.50 39.00" xmlns="http://www.w3.org/2000/svg" xmlns:xlink="http://www.w3.org/1999/xlink">
<g id="graph0" class="graph" transform="scale(1 1) rotate(0) translate(4 35)">
<title>domain_toptree_insert</title>
<polygon fill="white" stroke="none" points="-4,4 -4,-35 183.5,-35 183.5,4 -4,4"/>
<!-- Node560 -->
<g id="node1" class="node"><title>Node560</title>
<polygon fill="#bfbfbf" stroke="black" points="66.5,-6 66.5,-25 179.5,-25 179.5,-6 66.5,-6"/>
<text text-anchor="middle" x="123" y="-13" font-family="Helvetica,sans-Serif" font-size="10.00">domain_toptree_insert</text>
</g>
<!-- Node561 -->
<g id="node2" class="node"><title>Node561</title>
<g id="a_node2"><a xlink:href="domain_8c.html#a68801e6ae47ede6055ff1ce301bee95a" target="_top" xlink:title="domain_toptree_get\l_subnode">
<polygon fill="white" stroke="black" points="-7.10543e-15,-0.5 -7.10543e-15,-30.5 102,-30.5 102,-0.5 -7.10543e-15,-0.5"/>
<text text-anchor="start" x="8" y="-18.5" font-family="Helvetica,sans-Serif" font-size="10.00">domain_toptree_get</text>
<text text-anchor="middle" x="51" y="-7.5" font-family="Helvetica,sans-Serif" font-size="10.00">_subnode</text>
</a>
</g>
</g>
<!-- Node560&#45;&gt;Node561 -->
<g id="edge1" class="edge"><title>Node560&#45;&gt;Node561</title>
<path fill="none" stroke="midnightblue" d="M66.2693,-15.5C66.1996,-15.5 66.1301,-15.5 66.0607,-15.5"/>
<polygon fill="midnightblue" stroke="midnightblue" points="75.8546,-12.0048 65.853,-15.5 75.8513,-19.0048 75.8546,-12.0048"/>
</g>
</g>
</svg>
