<?xml version="1.0" encoding="UTF-8" standalone="no"?>
<!DOCTYPE svg PUBLIC "-//W3C//DTD SVG 1.1//EN"
 "http://www.w3.org/Graphics/SVG/1.1/DTD/svg11.dtd">
<!-- Generated by graphviz version 2.38.0 (20140413.2041)
 -->
<!-- Title: topleaf_ext_order_by_task_and_key Pages: 1 -->
<svg width="1078pt" height="142pt"
 viewBox="0.00 0.00 1078.00 142.00" xmlns="http://www.w3.org/2000/svg" xmlns:xlink="http://www.w3.org/1999/xlink">
<g id="graph0" class="graph" transform="scale(1 1) rotate(0) translate(4 138)">
<title>topleaf_ext_order_by_task_and_key</title>
<polygon fill="white" stroke="none" points="-4,4 -4,-138 1074,-138 1074,4 -4,4"/>
<!-- Node697 -->
<g id="node1" class="node"><title>Node697</title>
<polygon fill="#bfbfbf" stroke="black" points="0,-52 0,-82 107,-82 107,-52 0,-52"/>
<text text-anchor="start" x="8" y="-70" font-family="Helvetica,sans-Serif" font-size="10.00">topleaf_ext_order_by</text>
<text text-anchor="middle" x="53.5" y="-59" font-family="Helvetica,sans-Serif" font-size="10.00">_task_and_key</text>
</g>
<!-- Node698 -->
<g id="node2" class="node"><title>Node698</title>
<g id="a_node2"><a xlink:href="domain_8c.html#a5f149615b010ce2a87638e36d4f6216f" target="_top" xlink:title="domain_assign_balanced">
<polygon fill="white" stroke="black" points="143,-57.5 143,-76.5 269,-76.5 269,-57.5 143,-57.5"/>
<text text-anchor="middle" x="206" y="-64.5" font-family="Helvetica,sans-Serif" font-size="10.00">domain_assign_balanced</text>
</a>
</g>
</g>
<!-- Node697&#45;&gt;Node698 -->
<g id="edge1" class="edge"><title>Node697&#45;&gt;Node698</title>
<path fill="none" stroke="midnightblue" d="M117.301,-67C125.744,-67 134.403,-67 142.835,-67"/>
<polygon fill="midnightblue" stroke="midnightblue" points="117.138,-63.5001 107.138,-67 117.138,-70.5001 117.138,-63.5001"/>
</g>
<!-- Node699 -->
<g id="node3" class="node"><title>Node699</title>
<g id="a_node3"><a xlink:href="domain_8c.html#af60cf0afd1098cdffe60c28f82e6b22c" target="_top" xlink:title="domain_balance">
<polygon fill="white" stroke="black" points="305,-57.5 305,-76.5 392,-76.5 392,-57.5 305,-57.5"/>
<text text-anchor="middle" x="348.5" y="-64.5" font-family="Helvetica,sans-Serif" font-size="10.00">domain_balance</text>
</a>
</g>
</g>
<!-- Node698&#45;&gt;Node699 -->
<g id="edge2" class="edge"><title>Node698&#45;&gt;Node699</title>
<path fill="none" stroke="midnightblue" d="M279.252,-67C287.967,-67 296.641,-67 304.737,-67"/>
<polygon fill="midnightblue" stroke="midnightblue" points="279.034,-63.5001 269.034,-67 279.034,-70.5001 279.034,-63.5001"/>
</g>
<!-- Node700 -->
<g id="node4" class="node"><title>Node700</title>
<g id="a_node4"><a xlink:href="domain_8h.html#a168c36ec12faca23e23395b6a13d2037" target="_top" xlink:title="domain_decompose_full">
<polygon fill="white" stroke="black" points="428,-57.5 428,-76.5 550,-76.5 550,-57.5 428,-57.5"/>
<text text-anchor="middle" x="489" y="-64.5" font-family="Helvetica,sans-Serif" font-size="10.00">domain_decompose_full</text>
</a>
</g>
</g>
<!-- Node699&#45;&gt;Node700 -->
<g id="edge3" class="edge"><title>Node699&#45;&gt;Node700</title>
<path fill="none" stroke="midnightblue" d="M402.214,-67C410.606,-67 419.342,-67 427.889,-67"/>
<polygon fill="midnightblue" stroke="midnightblue" points="402.185,-63.5001 392.185,-67 402.185,-70.5001 402.185,-63.5001"/>
</g>
<!-- Node701 -->
<g id="node5" class="node"><title>Node701</title>
<g id="a_node5"><a xlink:href="domain_8h.html#acf7b74bdcb6563a4603538914fc16157" target="_top" xlink:title="domain_maintain">
<polygon fill="white" stroke="black" points="586,-114.5 586,-133.5 676,-133.5 676,-114.5 586,-114.5"/>
<text text-anchor="middle" x="631" y="-121.5" font-family="Helvetica,sans-Serif" font-size="10.00">domain_maintain</text>
</a>
</g>
</g>
<!-- Node700&#45;&gt;Node701 -->
<g id="edge4" class="edge"><title>Node700&#45;&gt;Node701</title>
<path fill="none" stroke="midnightblue" d="M522.767,-80.3409C548.444,-90.795 583.548,-105.087 606.491,-114.428"/>
<polygon fill="midnightblue" stroke="midnightblue" points="524.014,-77.0698 513.433,-76.5405 521.375,-83.5531 524.014,-77.0698"/>
</g>
<!-- Node702 -->
<g id="node6" class="node"><title>Node702</title>
<g id="a_node6"><a xlink:href="run_8c.html#a05e0ffe612d44e6d7f3a9ae5b9df56a2" target="_top" xlink:title="run">
<polygon fill="white" stroke="black" points="723,-76.5 723,-95.5 753,-95.5 753,-76.5 723,-76.5"/>
<text text-anchor="middle" x="738" y="-83.5" font-family="Helvetica,sans-Serif" font-size="10.00">run</text>
</a>
</g>
</g>
<!-- Node700&#45;&gt;Node702 -->
<g id="edge13" class="edge"><title>Node700&#45;&gt;Node702</title>
<path fill="none" stroke="midnightblue" d="M560.089,-72.3915C616.696,-76.7458 691.844,-82.5265 722.776,-84.9059"/>
<polygon fill="midnightblue" stroke="midnightblue" points="560.346,-68.901 550.107,-71.6236 559.809,-75.8804 560.346,-68.901"/>
</g>
<!-- Node706 -->
<g id="node10" class="node"><title>Node706</title>
<g id="a_node10"><a xlink:href="proto_8h.html#ab080cb20bac2a1a6153a84e8cfd15374" target="_top" xlink:title="init">
<polygon fill="white" stroke="black" points="616.5,-38.5 616.5,-57.5 645.5,-57.5 645.5,-38.5 616.5,-38.5"/>
<text text-anchor="middle" x="631" y="-45.5" font-family="Helvetica,sans-Serif" font-size="10.00">init</text>
</a>
</g>
</g>
<!-- Node700&#45;&gt;Node706 -->
<g id="edge10" class="edge"><title>Node700&#45;&gt;Node706</title>
<path fill="none" stroke="midnightblue" d="M560.338,-57.4542C581.767,-54.546 603.153,-51.6435 616.465,-49.8369"/>
<polygon fill="midnightblue" stroke="midnightblue" points="559.624,-54.0189 550.185,-58.832 560.565,-60.9553 559.624,-54.0189"/>
</g>
<!-- Node708 -->
<g id="node12" class="node"><title>Node708</title>
<g id="a_node12"><a xlink:href="runtests_8c.html#a549024555ca61e3f05a7100307e44f69" target="_top" xlink:title="runtests">
<polygon fill="white" stroke="black" points="712,-0.5 712,-19.5 764,-19.5 764,-0.5 712,-0.5"/>
<text text-anchor="middle" x="738" y="-7.5" font-family="Helvetica,sans-Serif" font-size="10.00">runtests</text>
</a>
</g>
</g>
<!-- Node700&#45;&gt;Node708 -->
<g id="edge14" class="edge"><title>Node700&#45;&gt;Node708</title>
<path fill="none" stroke="midnightblue" d="M518.903,-53.3436C537.636,-45.0524 562.786,-34.9531 586,-29 629.381,-17.8748 681.513,-13.1524 711.79,-11.2313"/>
<polygon fill="midnightblue" stroke="midnightblue" points="517.41,-50.1776 509.736,-57.483 520.291,-56.5573 517.41,-50.1776"/>
</g>
<!-- Node701&#45;&gt;Node702 -->
<g id="edge5" class="edge"><title>Node701&#45;&gt;Node702</title>
<path fill="none" stroke="midnightblue" d="M667.991,-110.975C686.81,-104.164 708.78,-96.213 722.785,-91.1446"/>
<polygon fill="midnightblue" stroke="midnightblue" points="666.708,-107.717 658.496,-114.411 669.09,-114.299 666.708,-107.717"/>
</g>
<!-- Node703 -->
<g id="node7" class="node"><title>Node703</title>
<g id="a_node7"><a xlink:href="main_8c.html#a3c04138a5bfe5d72780bb7e82a18e627" target="_top" xlink:title="main">
<polygon fill="white" stroke="black" points="800,-38.5 800,-57.5 838,-57.5 838,-38.5 800,-38.5"/>
<text text-anchor="middle" x="819" y="-45.5" font-family="Helvetica,sans-Serif" font-size="10.00">main</text>
</a>
</g>
</g>
<!-- Node702&#45;&gt;Node703 -->
<g id="edge6" class="edge"><title>Node702&#45;&gt;Node703</title>
<path fill="none" stroke="midnightblue" d="M762.484,-74.7039C774.432,-68.9569 788.733,-62.0778 799.828,-56.7411"/>
<polygon fill="midnightblue" stroke="midnightblue" points="760.618,-71.7175 753.124,-79.2064 763.652,-78.0257 760.618,-71.7175"/>
</g>
<!-- Node704 -->
<g id="node8" class="node"><title>Node704</title>
<g id="a_node8"><a xlink:href="walltime_8h.html#a76d2135b612766d4d665748454b879d6" target="_top" xlink:title="walltime_report">
<polygon fill="white" stroke="black" points="874,-38.5 874,-57.5 957,-57.5 957,-38.5 874,-38.5"/>
<text text-anchor="middle" x="915.5" y="-45.5" font-family="Helvetica,sans-Serif" font-size="10.00">walltime_report</text>
</a>
</g>
</g>
<!-- Node703&#45;&gt;Node704 -->
<g id="edge7" class="edge"><title>Node703&#45;&gt;Node704</title>
<path fill="none" stroke="midnightblue" d="M848.411,-48C856.347,-48 865.132,-48 873.635,-48"/>
<polygon fill="midnightblue" stroke="midnightblue" points="848.221,-44.5001 838.221,-48 848.221,-51.5001 848.221,-44.5001"/>
</g>
<!-- Node705 -->
<g id="node9" class="node"><title>Node705</title>
<g id="a_node9"><a xlink:href="run_8c.html#adc59e9ee1517e4e690694a64ab6a59d2" target="_top" xlink:title="write_cpu_log">
<polygon fill="white" stroke="black" points="993,-57.5 993,-76.5 1070,-76.5 1070,-57.5 993,-57.5"/>
<text text-anchor="middle" x="1031.5" y="-64.5" font-family="Helvetica,sans-Serif" font-size="10.00">write_cpu_log</text>
</a>
</g>
</g>
<!-- Node704&#45;&gt;Node705 -->
<g id="edge8" class="edge"><title>Node704&#45;&gt;Node705</title>
<path fill="none" stroke="midnightblue" d="M967.031,-56.4218C975.684,-57.8641 984.54,-59.3399 992.785,-60.7141"/>
<polygon fill="midnightblue" stroke="midnightblue" points="967.452,-52.9439 957.013,-54.7522 966.302,-59.8486 967.452,-52.9439"/>
</g>
<!-- Node705&#45;&gt;Node702 -->
<g id="edge9" class="edge"><title>Node705&#45;&gt;Node702</title>
<path fill="none" stroke="midnightblue" d="M982.767,-70.1113C914.862,-74.5373 794.058,-82.4113 753.06,-85.0836"/>
<polygon fill="midnightblue" stroke="midnightblue" points="983.037,-73.6012 992.788,-69.4581 982.582,-66.616 983.037,-73.6012"/>
</g>
<!-- Node707 -->
<g id="node11" class="node"><title>Node707</title>
<g id="a_node11"><a xlink:href="proto_8h.html#a74dc0e5e9eefe11fc8434b62de573146" target="_top" xlink:title="begrun">
<polygon fill="white" stroke="black" points="715,-38.5 715,-57.5 761,-57.5 761,-38.5 715,-38.5"/>
<text text-anchor="middle" x="738" y="-45.5" font-family="Helvetica,sans-Serif" font-size="10.00">begrun</text>
</a>
</g>
</g>
<!-- Node706&#45;&gt;Node707 -->
<g id="edge11" class="edge"><title>Node706&#45;&gt;Node707</title>
<path fill="none" stroke="midnightblue" d="M655.828,-48C673.541,-48 697.535,-48 714.836,-48"/>
<polygon fill="midnightblue" stroke="midnightblue" points="655.727,-44.5001 645.727,-48 655.727,-51.5001 655.727,-44.5001"/>
</g>
<!-- Node707&#45;&gt;Node703 -->
<g id="edge12" class="edge"><title>Node707&#45;&gt;Node703</title>
<path fill="none" stroke="midnightblue" d="M771.232,-48C780.987,-48 791.354,-48 799.842,-48"/>
<polygon fill="midnightblue" stroke="midnightblue" points="771.006,-44.5001 761.006,-48 771.006,-51.5001 771.006,-44.5001"/>
</g>
<!-- Node708&#45;&gt;Node703 -->
<g id="edge15" class="edge"><title>Node708&#45;&gt;Node703</title>
<path fill="none" stroke="midnightblue" d="M767.971,-23.9354C778.679,-29.0861 790.5,-34.7724 799.962,-39.3237"/>
<polygon fill="midnightblue" stroke="midnightblue" points="769.464,-20.7697 758.935,-19.589 766.43,-27.0779 769.464,-20.7697"/>
</g>
</g>
</svg>
