<?xml version="1.0" encoding="UTF-8" standalone="no"?>
<!DOCTYPE svg PUBLIC "-//W3C//DTD SVG 1.1//EN"
 "http://www.w3.org/Graphics/SVG/1.1/DTD/svg11.dtd">
<!-- Generated by graphviz version 2.50.0 (0)
 -->
<!-- Title: libgadget/domain.h Pages: 1 -->
<svg width="1397pt" height="364pt"
 viewBox="0.00 0.00 1396.53 364.00" xmlns="http://www.w3.org/2000/svg" xmlns:xlink="http://www.w3.org/1999/xlink">
<g id="graph0" class="graph" transform="scale(1 1) rotate(0) translate(4 360)">
<title>libgadget/domain.h</title>
<polygon fill="white" stroke="transparent" points="-4,4 -4,-360 1392.53,-360 1392.53,4 -4,4"/>
<!-- Node1 -->
<g id="node1" class="node">
<title>Node1</title>
<g id="a_node1"><a xlink:title=" ">
<polygon fill="#bfbfbf" stroke="black" points="581.03,-336.5 581.03,-355.5 692.03,-355.5 692.03,-336.5 581.03,-336.5"/>
<text text-anchor="middle" x="636.53" y="-343.5" font-family="Helvetica,sans-Serif" font-size="10.00">libgadget/domain.h</text>
</a>
</g>
</g>
<!-- Node2 -->
<g id="node2" class="node">
<title>Node2</title>
<g id="a_node2"><a xlink:title=" ">
<polygon fill="white" stroke="#bfbfbf" points="350.53,-56.5 350.53,-75.5 394.53,-75.5 394.53,-56.5 350.53,-56.5"/>
<text text-anchor="middle" x="372.53" y="-63.5" font-family="Helvetica,sans-Serif" font-size="10.00">mpi.h</text>
</a>
</g>
</g>
<!-- Node1&#45;&gt;Node2 -->
<g id="edge1" class="edge">
<title>Node1&#45;&gt;Node2</title>
<path fill="none" stroke="midnightblue" d="M580.98,-337.62C489.1,-323.83 315.53,-290.45 315.53,-235 315.53,-235 315.53,-235 315.53,-177 315.53,-140.3 340.85,-103.66 357.74,-83.3"/>
<polygon fill="midnightblue" stroke="midnightblue" points="360.48,-85.48 364.36,-75.62 355.18,-80.9 360.48,-85.48"/>
</g>
<!-- Node3 -->
<g id="node3" class="node">
<title>Node3</title>
<g id="a_node3"><a xlink:href="peano_8h.html" target="_top" xlink:title=" ">
<polygon fill="white" stroke="black" points="1308.53,-112.5 1308.53,-131.5 1388.53,-131.5 1388.53,-112.5 1308.53,-112.5"/>
<text text-anchor="middle" x="1348.53" y="-119.5" font-family="Helvetica,sans-Serif" font-size="10.00">utils/peano.h</text>
</a>
</g>
</g>
<!-- Node1&#45;&gt;Node3 -->
<g id="edge2" class="edge">
<title>Node1&#45;&gt;Node3</title>
<path fill="none" stroke="midnightblue" d="M692.34,-343.46C766.32,-340.25 900.35,-330.37 1010.53,-300 1128.68,-267.43 1156.95,-250.25 1262.53,-188 1287.65,-173.19 1314.05,-152.32 1330.87,-138.26"/>
<polygon fill="midnightblue" stroke="midnightblue" points="1333.37,-140.73 1338.73,-131.6 1328.84,-135.39 1333.37,-140.73"/>
</g>
<!-- Node6 -->
<g id="node6" class="node">
<title>Node6</title>
<g id="a_node6"><a xlink:href="paramset_8h.html" target="_top" xlink:title=" ">
<polygon fill="white" stroke="black" points="153.53,-112.5 153.53,-131.5 249.53,-131.5 249.53,-112.5 153.53,-112.5"/>
<text text-anchor="middle" x="201.53" y="-119.5" font-family="Helvetica,sans-Serif" font-size="10.00">utils/paramset.h</text>
</a>
</g>
</g>
<!-- Node1&#45;&gt;Node6 -->
<g id="edge5" class="edge">
<title>Node1&#45;&gt;Node6</title>
<path fill="none" stroke="midnightblue" d="M580.75,-344.5C496.66,-342.62 342.83,-334.42 301.53,-300 254.12,-260.5 293.81,-218.62 258.53,-168 249.94,-155.68 236.99,-145.08 225.61,-137.26"/>
<polygon fill="midnightblue" stroke="midnightblue" points="227.22,-134.14 216.93,-131.62 223.41,-140 227.22,-134.14"/>
</g>
<!-- Node8 -->
<g id="node8" class="node">
<title>Node8</title>
<g id="a_node8"><a xlink:href="drift_8h.html" target="_top" xlink:title=" ">
<polygon fill="white" stroke="black" points="957.03,-280.5 957.03,-299.5 1002.03,-299.5 1002.03,-280.5 957.03,-280.5"/>
<text text-anchor="middle" x="979.53" y="-287.5" font-family="Helvetica,sans-Serif" font-size="10.00">drift.h</text>
</a>
</g>
</g>
<!-- Node1&#45;&gt;Node8 -->
<g id="edge7" class="edge">
<title>Node1&#45;&gt;Node8</title>
<path fill="none" stroke="midnightblue" d="M690.88,-336.44C762.9,-325.1 887.72,-305.45 946.77,-296.16"/>
<polygon fill="midnightblue" stroke="midnightblue" points="947.67,-299.56 957,-294.55 946.58,-292.64 947.67,-299.56"/>
</g>
<!-- Node4 -->
<g id="node4" class="node">
<title>Node4</title>
<g id="a_node4"><a xlink:title=" ">
<polygon fill="white" stroke="#bfbfbf" points="716.53,-0.5 716.53,-19.5 772.53,-19.5 772.53,-0.5 716.53,-0.5"/>
<text text-anchor="middle" x="744.53" y="-7.5" font-family="Helvetica,sans-Serif" font-size="10.00">stddef.h</text>
</a>
</g>
</g>
<!-- Node3&#45;&gt;Node4 -->
<g id="edge3" class="edge">
<title>Node3&#45;&gt;Node4</title>
<path fill="none" stroke="midnightblue" d="M1342.01,-112.34C1330.47,-97.75 1304.84,-68.6 1275.53,-56 1186.78,-17.85 889.48,-12 782.93,-11.13"/>
<polygon fill="midnightblue" stroke="midnightblue" points="782.67,-7.63 772.64,-11.06 782.62,-14.63 782.67,-7.63"/>
</g>
<!-- Node5 -->
<g id="node5" class="node">
<title>Node5</title>
<g id="a_node5"><a xlink:title=" ">
<polygon fill="white" stroke="#bfbfbf" points="1214.03,-56.5 1214.03,-75.5 1267.03,-75.5 1267.03,-56.5 1214.03,-56.5"/>
<text text-anchor="middle" x="1240.53" y="-63.5" font-family="Helvetica,sans-Serif" font-size="10.00">stdint.h</text>
</a>
</g>
</g>
<!-- Node3&#45;&gt;Node5 -->
<g id="edge4" class="edge">
<title>Node3&#45;&gt;Node5</title>
<path fill="none" stroke="midnightblue" d="M1331.17,-112.32C1313.85,-103.66 1287.01,-90.24 1267.02,-80.25"/>
<polygon fill="midnightblue" stroke="midnightblue" points="1268.34,-77 1257.84,-75.65 1265.21,-83.26 1268.34,-77"/>
</g>
<!-- Node7 -->
<g id="node7" class="node">
<title>Node7</title>
<g id="a_node7"><a xlink:title=" ">
<polygon fill="white" stroke="#bfbfbf" points="214.53,-56.5 214.53,-75.5 264.53,-75.5 264.53,-56.5 214.53,-56.5"/>
<text text-anchor="middle" x="239.53" y="-63.5" font-family="Helvetica,sans-Serif" font-size="10.00">stdio.h</text>
</a>
</g>
</g>
<!-- Node6&#45;&gt;Node7 -->
<g id="edge6" class="edge">
<title>Node6&#45;&gt;Node7</title>
<path fill="none" stroke="midnightblue" d="M207.8,-112.08C213.17,-104.46 221.04,-93.26 227.6,-83.94"/>
<polygon fill="midnightblue" stroke="midnightblue" points="230.48,-85.94 233.37,-75.75 224.75,-81.91 230.48,-85.94"/>
</g>
<!-- Node9 -->
<g id="node9" class="node">
<title>Node9</title>
<g id="a_node9"><a xlink:href="cosmology_8h.html" target="_top" xlink:title=" ">
<polygon fill="white" stroke="black" points="96.03,-224.5 96.03,-243.5 173.03,-243.5 173.03,-224.5 96.03,-224.5"/>
<text text-anchor="middle" x="134.53" y="-231.5" font-family="Helvetica,sans-Serif" font-size="10.00">cosmology.h</text>
</a>
</g>
</g>
<!-- Node8&#45;&gt;Node9 -->
<g id="edge8" class="edge">
<title>Node8&#45;&gt;Node9</title>
<path fill="none" stroke="midnightblue" d="M956.92,-287.56C844.24,-280.35 342.29,-248.28 183.12,-238.11"/>
<polygon fill="midnightblue" stroke="midnightblue" points="183.34,-234.61 173.14,-237.47 182.89,-241.6 183.34,-234.61"/>
</g>
<!-- Node13 -->
<g id="node13" class="node">
<title>Node13</title>
<g id="a_node13"><a xlink:href="types_8h.html" target="_top" xlink:title=" ">
<polygon fill="white" stroke="black" points="1237.03,-112.5 1237.03,-131.5 1290.03,-131.5 1290.03,-112.5 1237.03,-112.5"/>
<text text-anchor="middle" x="1263.53" y="-119.5" font-family="Helvetica,sans-Serif" font-size="10.00">types.h</text>
</a>
</g>
</g>
<!-- Node8&#45;&gt;Node13 -->
<g id="edge13" class="edge">
<title>Node8&#45;&gt;Node13</title>
<path fill="none" stroke="midnightblue" d="M990.61,-280.24C1017.75,-259.05 1090.17,-204.15 1156.53,-168 1180.31,-155.04 1208.62,-143.28 1230.14,-135.04"/>
<polygon fill="midnightblue" stroke="midnightblue" points="1231.39,-138.31 1239.51,-131.51 1228.92,-131.76 1231.39,-138.31"/>
</g>
<!-- Node14 -->
<g id="node14" class="node">
<title>Node14</title>
<g id="a_node14"><a xlink:href="partmanager_8h.html" target="_top" xlink:title=" ">
<polygon fill="white" stroke="black" points="1165.53,-168.5 1165.53,-187.5 1253.53,-187.5 1253.53,-168.5 1165.53,-168.5"/>
<text text-anchor="middle" x="1209.53" y="-175.5" font-family="Helvetica,sans-Serif" font-size="10.00">partmanager.h</text>
</a>
</g>
</g>
<!-- Node8&#45;&gt;Node14 -->
<g id="edge15" class="edge">
<title>Node8&#45;&gt;Node14</title>
<path fill="none" stroke="midnightblue" d="M997.96,-280.45C1017.32,-271.45 1048.61,-256.84 1075.53,-244 1112.73,-226.26 1155.57,-205.4 1182.59,-192.2"/>
<polygon fill="midnightblue" stroke="midnightblue" points="1184.34,-195.23 1191.79,-187.7 1181.27,-188.95 1184.34,-195.23"/>
</g>
<!-- Node15 -->
<g id="node15" class="node">
<title>Node15</title>
<g id="a_node15"><a xlink:href="slotsmanager_8h.html" target="_top" xlink:title=" ">
<polygon fill="white" stroke="black" points="933.53,-224.5 933.53,-243.5 1025.53,-243.5 1025.53,-224.5 933.53,-224.5"/>
<text text-anchor="middle" x="979.53" y="-231.5" font-family="Helvetica,sans-Serif" font-size="10.00">slotsmanager.h</text>
</a>
</g>
</g>
<!-- Node8&#45;&gt;Node15 -->
<g id="edge18" class="edge">
<title>Node8&#45;&gt;Node15</title>
<path fill="none" stroke="midnightblue" d="M979.53,-280.08C979.53,-273.01 979.53,-262.86 979.53,-253.99"/>
<polygon fill="midnightblue" stroke="midnightblue" points="983.03,-253.75 979.53,-243.75 976.03,-253.75 983.03,-253.75"/>
</g>
<!-- Node9&#45;&gt;Node4 -->
<g id="edge9" class="edge">
<title>Node9&#45;&gt;Node4</title>
<path fill="none" stroke="midnightblue" d="M95.86,-230.88C66.04,-226.97 26.61,-216.35 6.53,-188 -4.73,-172.11 -0.6,-131.14 16.53,-112 74.93,-46.7 119.42,-72.17 205.53,-56 391.1,-21.14 617.68,-13.28 706.37,-11.51"/>
<polygon fill="midnightblue" stroke="midnightblue" points="706.55,-15.01 716.49,-11.32 706.42,-8.01 706.55,-15.01"/>
</g>
<!-- Node10 -->
<g id="node10" class="node">
<title>Node10</title>
<g id="a_node10"><a xlink:href="omega__nu__single_8h.html" target="_top" xlink:title=" ">
<polygon fill="white" stroke="black" points="16.03,-168.5 16.03,-187.5 127.03,-187.5 127.03,-168.5 16.03,-168.5"/>
<text text-anchor="middle" x="71.53" y="-175.5" font-family="Helvetica,sans-Serif" font-size="10.00">omega_nu_single.h</text>
</a>
</g>
</g>
<!-- Node9&#45;&gt;Node10 -->
<g id="edge10" class="edge">
<title>Node9&#45;&gt;Node10</title>
<path fill="none" stroke="midnightblue" d="M124.4,-224.32C115,-216.26 100.78,-204.08 89.46,-194.37"/>
<polygon fill="midnightblue" stroke="midnightblue" points="91.7,-191.68 81.83,-187.83 87.15,-197 91.7,-191.68"/>
</g>
<!-- Node12 -->
<g id="node12" class="node">
<title>Node12</title>
<g id="a_node12"><a xlink:href="unitsystem_8h.html" target="_top" xlink:title=" ">
<polygon fill="white" stroke="black" points="145.53,-168.5 145.53,-187.5 249.53,-187.5 249.53,-168.5 145.53,-168.5"/>
<text text-anchor="middle" x="197.53" y="-175.5" font-family="Helvetica,sans-Serif" font-size="10.00">utils/unitsystem.h</text>
</a>
</g>
</g>
<!-- Node9&#45;&gt;Node12 -->
<g id="edge12" class="edge">
<title>Node9&#45;&gt;Node12</title>
<path fill="none" stroke="midnightblue" d="M144.65,-224.32C154.05,-216.26 168.27,-204.08 179.6,-194.37"/>
<polygon fill="midnightblue" stroke="midnightblue" points="181.91,-197 187.22,-187.83 177.35,-191.68 181.91,-197"/>
</g>
<!-- Node11 -->
<g id="node11" class="node">
<title>Node11</title>
<g id="a_node11"><a xlink:title=" ">
<polygon fill="white" stroke="#bfbfbf" points="26.03,-112.5 26.03,-131.5 117.03,-131.5 117.03,-112.5 26.03,-112.5"/>
<text text-anchor="middle" x="71.53" y="-119.5" font-family="Helvetica,sans-Serif" font-size="10.00">gsl/gsl_interp.h</text>
</a>
</g>
</g>
<!-- Node10&#45;&gt;Node11 -->
<g id="edge11" class="edge">
<title>Node10&#45;&gt;Node11</title>
<path fill="none" stroke="midnightblue" d="M71.53,-168.08C71.53,-161.01 71.53,-150.86 71.53,-141.99"/>
<polygon fill="midnightblue" stroke="midnightblue" points="75.03,-141.75 71.53,-131.75 68.03,-141.75 75.03,-141.75"/>
</g>
<!-- Node13&#45;&gt;Node5 -->
<g id="edge14" class="edge">
<title>Node13&#45;&gt;Node5</title>
<path fill="none" stroke="midnightblue" d="M1259.73,-112.08C1256.61,-104.77 1252.1,-94.18 1248.24,-85.1"/>
<polygon fill="midnightblue" stroke="midnightblue" points="1251.39,-83.58 1244.25,-75.75 1244.95,-86.32 1251.39,-83.58"/>
</g>
<!-- Node14&#45;&gt;Node3 -->
<g id="edge17" class="edge">
<title>Node14&#45;&gt;Node3</title>
<path fill="none" stroke="midnightblue" d="M1231.55,-168.44C1254.63,-159.48 1291.09,-145.31 1317.17,-135.18"/>
<polygon fill="midnightblue" stroke="midnightblue" points="1318.55,-138.4 1326.6,-131.52 1316.02,-131.88 1318.55,-138.4"/>
</g>
<!-- Node14&#45;&gt;Node13 -->
<g id="edge16" class="edge">
<title>Node14&#45;&gt;Node13</title>
<path fill="none" stroke="midnightblue" d="M1218.44,-168.08C1226.31,-160.22 1237.96,-148.57 1247.44,-139.08"/>
<polygon fill="midnightblue" stroke="midnightblue" points="1250.18,-141.3 1254.78,-131.75 1245.23,-136.35 1250.18,-141.3"/>
</g>
<!-- Node15&#45;&gt;Node2 -->
<g id="edge19" class="edge">
<title>Node15&#45;&gt;Node2</title>
<path fill="none" stroke="midnightblue" d="M933.34,-229.84C813.2,-220.85 494.32,-191.81 409.53,-132 393.64,-120.8 383.69,-100.48 378.15,-85.53"/>
<polygon fill="midnightblue" stroke="midnightblue" points="381.39,-84.16 374.89,-75.8 374.75,-86.39 381.39,-84.16"/>
</g>
<!-- Node15&#45;&gt;Node13 -->
<g id="edge44" class="edge">
<title>Node15&#45;&gt;Node13</title>
<path fill="none" stroke="midnightblue" d="M985.96,-224.24C996.92,-210.03 1020.62,-182.1 1047.53,-168 1117.85,-131.13 1144.86,-148.51 1222.53,-132 1223.81,-131.73 1225.11,-131.45 1226.43,-131.17"/>
<polygon fill="midnightblue" stroke="midnightblue" points="1227.6,-134.49 1236.63,-128.96 1226.12,-127.65 1227.6,-134.49"/>
</g>
<!-- Node15&#45;&gt;Node14 -->
<g id="edge45" class="edge">
<title>Node15&#45;&gt;Node14</title>
<path fill="none" stroke="midnightblue" d="M1015.97,-224.44C1055.93,-215.06 1120.11,-199.99 1163.51,-189.8"/>
<polygon fill="midnightblue" stroke="midnightblue" points="1164.32,-193.21 1173.25,-187.52 1162.72,-186.39 1164.32,-193.21"/>
</g>
<!-- Node16 -->
<g id="node16" class="node">
<title>Node16</title>
<g id="a_node16"><a xlink:href="utils_8h.html" target="_top" xlink:title=" ">
<polygon fill="white" stroke="black" points="753.03,-168.5 753.03,-187.5 800.03,-187.5 800.03,-168.5 753.03,-168.5"/>
<text text-anchor="middle" x="776.53" y="-175.5" font-family="Helvetica,sans-Serif" font-size="10.00">utils.h</text>
</a>
</g>
</g>
<!-- Node15&#45;&gt;Node16 -->
<g id="edge20" class="edge">
<title>Node15&#45;&gt;Node16</title>
<path fill="none" stroke="midnightblue" d="M947.36,-224.44C909.96,-214.49 848.5,-198.15 810.39,-188.01"/>
<polygon fill="midnightblue" stroke="midnightblue" points="810.86,-184.51 800.3,-185.32 809.06,-191.28 810.86,-184.51"/>
</g>
<!-- Node16&#45;&gt;Node2 -->
<g id="edge24" class="edge">
<title>Node16&#45;&gt;Node2</title>
<path fill="none" stroke="midnightblue" d="M752.8,-175.73C685.74,-171.84 496.09,-158.7 440.53,-132 417.39,-120.88 397.04,-98.92 384.76,-83.62"/>
<polygon fill="midnightblue" stroke="midnightblue" points="387.39,-81.29 378.51,-75.51 381.85,-85.56 387.39,-81.29"/>
</g>
<!-- Node16&#45;&gt;Node3 -->
<g id="edge25" class="edge">
<title>Node16&#45;&gt;Node3</title>
<path fill="none" stroke="midnightblue" d="M800.28,-175.73C874.28,-171.62 1107.14,-157.42 1298.53,-132 1298.63,-131.99 1298.73,-131.97 1298.83,-131.96"/>
<polygon fill="midnightblue" stroke="midnightblue" points="1299.07,-135.46 1308.46,-130.55 1298.06,-128.54 1299.07,-135.46"/>
</g>
<!-- Node16&#45;&gt;Node4 -->
<g id="edge23" class="edge">
<title>Node16&#45;&gt;Node4</title>
<path fill="none" stroke="midnightblue" d="M752.78,-174.41C709.57,-169.15 620.86,-155.68 602.53,-132 582.53,-106.18 619.05,-70.3 635.53,-56 655.86,-38.35 684.08,-26.95 706.7,-20.05"/>
<polygon fill="midnightblue" stroke="midnightblue" points="707.7,-23.41 716.34,-17.27 705.76,-16.68 707.7,-23.41"/>
</g>
<!-- Node16&#45;&gt;Node5 -->
<g id="edge22" class="edge">
<title>Node16&#45;&gt;Node5</title>
<path fill="none" stroke="midnightblue" d="M800.3,-168.99C824.75,-160.55 863.76,-146.49 896.53,-132 914.34,-124.12 916.98,-117.95 935.53,-112 960.69,-103.94 1128.5,-81.54 1203.92,-71.72"/>
<polygon fill="midnightblue" stroke="midnightblue" points="1204.46,-75.18 1213.93,-70.42 1203.56,-68.24 1204.46,-75.18"/>
</g>
<!-- Node16&#45;&gt;Node6 -->
<g id="edge30" class="edge">
<title>Node16&#45;&gt;Node6</title>
<path fill="none" stroke="midnightblue" d="M752.96,-175.41C680.05,-170.39 451.79,-153.9 263.53,-132 262.25,-131.85 260.96,-131.7 259.66,-131.54"/>
<polygon fill="midnightblue" stroke="midnightblue" points="259.92,-128.04 249.55,-130.25 259.03,-134.99 259.92,-128.04"/>
</g>
<!-- Node16&#45;&gt;Node7 -->
<g id="edge21" class="edge">
<title>Node16&#45;&gt;Node7</title>
<path fill="none" stroke="midnightblue" d="M752.98,-176.09C694.2,-173.41 536.61,-163.59 409.53,-132 357.56,-119.08 299.9,-94.78 266.85,-79.83"/>
<polygon fill="midnightblue" stroke="midnightblue" points="267.97,-76.49 257.42,-75.51 265.06,-82.86 267.97,-76.49"/>
</g>
<!-- Node17 -->
<g id="node17" class="node">
<title>Node17</title>
<g id="a_node17"><a xlink:href="memory_8h.html" target="_top" xlink:title=" ">
<polygon fill="white" stroke="black" points="462.03,-56.5 462.03,-75.5 551.03,-75.5 551.03,-56.5 462.03,-56.5"/>
<text text-anchor="middle" x="506.53" y="-63.5" font-family="Helvetica,sans-Serif" font-size="10.00">utils/memory.h</text>
</a>
</g>
</g>
<!-- Node16&#45;&gt;Node17 -->
<g id="edge26" class="edge">
<title>Node16&#45;&gt;Node17</title>
<path fill="none" stroke="midnightblue" d="M752.89,-177.56C684.43,-178.63 488.29,-177.59 448.53,-132 432.89,-114.07 458.37,-93.63 480.35,-80.53"/>
<polygon fill="midnightblue" stroke="midnightblue" points="482.14,-83.54 489.11,-75.57 478.69,-77.45 482.14,-83.54"/>
</g>
<!-- Node18 -->
<g id="node18" class="node">
<title>Node18</title>
<g id="a_node18"><a xlink:href="mymalloc_8h.html" target="_top" xlink:title=" ">
<polygon fill="white" stroke="black" points="457.53,-112.5 457.53,-131.5 555.53,-131.5 555.53,-112.5 457.53,-112.5"/>
<text text-anchor="middle" x="506.53" y="-119.5" font-family="Helvetica,sans-Serif" font-size="10.00">utils/mymalloc.h</text>
</a>
</g>
</g>
<!-- Node16&#45;&gt;Node18 -->
<g id="edge28" class="edge">
<title>Node16&#45;&gt;Node18</title>
<path fill="none" stroke="midnightblue" d="M752.57,-172.21C709.47,-163.59 617.92,-145.28 559.46,-133.59"/>
<polygon fill="midnightblue" stroke="midnightblue" points="559.8,-130.08 549.3,-131.56 558.42,-136.95 559.8,-130.08"/>
</g>
<!-- Node19 -->
<g id="node19" class="node">
<title>Node19</title>
<g id="a_node19"><a xlink:href="event_8h.html" target="_top" xlink:title=" ">
<polygon fill="white" stroke="black" points="811.03,-112.5 811.03,-131.5 888.03,-131.5 888.03,-112.5 811.03,-112.5"/>
<text text-anchor="middle" x="849.53" y="-119.5" font-family="Helvetica,sans-Serif" font-size="10.00">utils/event.h</text>
</a>
</g>
</g>
<!-- Node16&#45;&gt;Node19 -->
<g id="edge31" class="edge">
<title>Node16&#45;&gt;Node19</title>
<path fill="none" stroke="midnightblue" d="M788.25,-168.32C799.36,-160.11 816.27,-147.6 829.51,-137.81"/>
<polygon fill="midnightblue" stroke="midnightblue" points="831.63,-140.59 837.58,-131.83 827.46,-134.97 831.63,-140.59"/>
</g>
<!-- Node20 -->
<g id="node20" class="node">
<title>Node20</title>
<g id="a_node20"><a xlink:href="openmpsort_8h.html" target="_top" xlink:title=" ">
<polygon fill="white" stroke="black" points="869.53,-56.5 869.53,-75.5 977.53,-75.5 977.53,-56.5 869.53,-56.5"/>
<text text-anchor="middle" x="923.53" y="-63.5" font-family="Helvetica,sans-Serif" font-size="10.00">utils/openmpsort.h</text>
</a>
</g>
</g>
<!-- Node16&#45;&gt;Node20 -->
<g id="edge32" class="edge">
<title>Node16&#45;&gt;Node20</title>
<path fill="none" stroke="midnightblue" d="M800.2,-176.62C858.48,-175.13 1006.36,-167.83 1036.53,-132 1058.29,-106.14 1016.21,-88.33 977.36,-77.98"/>
<polygon fill="midnightblue" stroke="midnightblue" points="978.15,-74.57 967.59,-75.51 976.43,-81.36 978.15,-74.57"/>
</g>
<!-- Node21 -->
<g id="node21" class="node">
<title>Node21</title>
<g id="a_node21"><a xlink:href="system_8h.html" target="_top" xlink:title=" ">
<polygon fill="white" stroke="black" points="611.53,-112.5 611.53,-131.5 697.53,-131.5 697.53,-112.5 611.53,-112.5"/>
<text text-anchor="middle" x="654.53" y="-119.5" font-family="Helvetica,sans-Serif" font-size="10.00">utils/system.h</text>
</a>
</g>
</g>
<!-- Node16&#45;&gt;Node21 -->
<g id="edge34" class="edge">
<title>Node16&#45;&gt;Node21</title>
<path fill="none" stroke="midnightblue" d="M757.19,-168.44C737.21,-159.6 705.78,-145.69 682.96,-135.59"/>
<polygon fill="midnightblue" stroke="midnightblue" points="684.33,-132.36 673.77,-131.52 681.49,-138.76 684.33,-132.36"/>
</g>
<!-- Node23 -->
<g id="node23" class="node">
<title>Node23</title>
<g id="a_node23"><a xlink:href="string_8h.html" target="_top" xlink:title=" ">
<polygon fill="white" stroke="black" points="716.03,-112.5 716.03,-131.5 793.03,-131.5 793.03,-112.5 716.03,-112.5"/>
<text text-anchor="middle" x="754.53" y="-119.5" font-family="Helvetica,sans-Serif" font-size="10.00">utils/string.h</text>
</a>
</g>
</g>
<!-- Node16&#45;&gt;Node23 -->
<g id="edge38" class="edge">
<title>Node16&#45;&gt;Node23</title>
<path fill="none" stroke="midnightblue" d="M772.89,-168.08C769.91,-160.77 765.6,-150.18 761.9,-141.1"/>
<polygon fill="midnightblue" stroke="midnightblue" points="765.11,-139.69 758.09,-131.75 758.62,-142.33 765.11,-139.69"/>
</g>
<!-- Node24 -->
<g id="node24" class="node">
<title>Node24</title>
<g id="a_node24"><a xlink:href="endrun_8h.html" target="_top" xlink:title=" ">
<polygon fill="white" stroke="black" points="945.03,-112.5 945.03,-131.5 1028.03,-131.5 1028.03,-112.5 945.03,-112.5"/>
<text text-anchor="middle" x="986.53" y="-119.5" font-family="Helvetica,sans-Serif" font-size="10.00">utils/endrun.h</text>
</a>
</g>
</g>
<!-- Node16&#45;&gt;Node24 -->
<g id="edge40" class="edge">
<title>Node16&#45;&gt;Node24</title>
<path fill="none" stroke="midnightblue" d="M800.21,-170.91C834.94,-161.98 900.25,-145.18 943.58,-134.04"/>
<polygon fill="midnightblue" stroke="midnightblue" points="944.47,-137.43 953.28,-131.55 942.72,-130.65 944.47,-137.43"/>
</g>
<!-- Node25 -->
<g id="node25" class="node">
<title>Node25</title>
<g id="a_node25"><a xlink:href="interp_8h.html" target="_top" xlink:title=" ">
<polygon fill="white" stroke="black" points="1076.53,-56.5 1076.53,-75.5 1154.53,-75.5 1154.53,-56.5 1076.53,-56.5"/>
<text text-anchor="middle" x="1115.53" y="-63.5" font-family="Helvetica,sans-Serif" font-size="10.00">utils/interp.h</text>
</a>
</g>
</g>
<!-- Node16&#45;&gt;Node25 -->
<g id="edge41" class="edge">
<title>Node16&#45;&gt;Node25</title>
<path fill="none" stroke="midnightblue" d="M800.19,-176.22C883.91,-173.22 1162.44,-161.09 1188.53,-132 1206.36,-112.11 1174.65,-92.1 1147.59,-79.64"/>
<polygon fill="midnightblue" stroke="midnightblue" points="1148.86,-76.38 1138.3,-75.56 1146.05,-82.79 1148.86,-76.38"/>
</g>
<!-- Node26 -->
<g id="node26" class="node">
<title>Node26</title>
<g id="a_node26"><a xlink:href="spinlocks_8h.html" target="_top" xlink:title=" ">
<polygon fill="white" stroke="black" points="1085.03,-112.5 1085.03,-131.5 1180.03,-131.5 1180.03,-112.5 1085.03,-112.5"/>
<text text-anchor="middle" x="1132.53" y="-119.5" font-family="Helvetica,sans-Serif" font-size="10.00">utils/spinlocks.h</text>
</a>
</g>
</g>
<!-- Node16&#45;&gt;Node26 -->
<g id="edge43" class="edge">
<title>Node16&#45;&gt;Node26</title>
<path fill="none" stroke="midnightblue" d="M800.16,-173.42C855.52,-165.02 994.92,-143.87 1074.49,-131.8"/>
<polygon fill="midnightblue" stroke="midnightblue" points="1075.47,-135.19 1084.83,-130.23 1074.42,-128.27 1075.47,-135.19"/>
</g>
<!-- Node17&#45;&gt;Node4 -->
<g id="edge27" class="edge">
<title>Node17&#45;&gt;Node4</title>
<path fill="none" stroke="midnightblue" d="M544.24,-56.44C588.62,-46.37 661.91,-29.75 706.45,-19.64"/>
<polygon fill="midnightblue" stroke="midnightblue" points="707.33,-23.03 716.31,-17.4 705.78,-16.2 707.33,-23.03"/>
</g>
<!-- Node18&#45;&gt;Node17 -->
<g id="edge29" class="edge">
<title>Node18&#45;&gt;Node17</title>
<path fill="none" stroke="midnightblue" d="M506.53,-112.08C506.53,-105.01 506.53,-94.86 506.53,-85.99"/>
<polygon fill="midnightblue" stroke="midnightblue" points="510.03,-85.75 506.53,-75.75 503.03,-85.75 510.03,-85.75"/>
</g>
<!-- Node20&#45;&gt;Node4 -->
<g id="edge33" class="edge">
<title>Node20&#45;&gt;Node4</title>
<path fill="none" stroke="midnightblue" d="M895.16,-56.44C864.79,-47.28 816.42,-32.69 782.71,-22.52"/>
<polygon fill="midnightblue" stroke="midnightblue" points="783.34,-19.05 772.76,-19.52 781.32,-25.76 783.34,-19.05"/>
</g>
<!-- Node21&#45;&gt;Node2 -->
<g id="edge36" class="edge">
<title>Node21&#45;&gt;Node2</title>
<path fill="none" stroke="midnightblue" d="M611.39,-112.74C554.49,-101.84 455.64,-82.92 404.79,-73.18"/>
<polygon fill="midnightblue" stroke="midnightblue" points="405.18,-69.69 394.7,-71.25 403.86,-76.56 405.18,-69.69"/>
</g>
<!-- Node21&#45;&gt;Node5 -->
<g id="edge35" class="edge">
<title>Node21&#45;&gt;Node5</title>
<path fill="none" stroke="midnightblue" d="M697.61,-113.23C700.62,-112.78 703.62,-112.37 706.53,-112 908.68,-86.6 960.75,-95.83 1163.53,-76 1176.61,-74.72 1190.91,-73.11 1203.61,-71.6"/>
<polygon fill="midnightblue" stroke="midnightblue" points="1204.32,-75.04 1213.83,-70.37 1203.48,-68.09 1204.32,-75.04"/>
</g>
<!-- Node22 -->
<g id="node22" class="node">
<title>Node22</title>
<g id="a_node22"><a xlink:title=" ">
<polygon fill="white" stroke="#bfbfbf" points="644.53,-56.5 644.53,-75.5 700.53,-75.5 700.53,-56.5 644.53,-56.5"/>
<text text-anchor="middle" x="672.53" y="-63.5" font-family="Helvetica,sans-Serif" font-size="10.00">stdarg.h</text>
</a>
</g>
</g>
<!-- Node21&#45;&gt;Node22 -->
<g id="edge37" class="edge">
<title>Node21&#45;&gt;Node22</title>
<path fill="none" stroke="midnightblue" d="M657.5,-112.08C659.91,-104.85 663.39,-94.41 666.39,-85.4"/>
<polygon fill="midnightblue" stroke="midnightblue" points="669.77,-86.34 669.61,-75.75 663.13,-84.13 669.77,-86.34"/>
</g>
<!-- Node23&#45;&gt;Node22 -->
<g id="edge39" class="edge">
<title>Node23&#45;&gt;Node22</title>
<path fill="none" stroke="midnightblue" d="M741.35,-112.32C728.68,-103.98 709.29,-91.21 694.32,-81.35"/>
<polygon fill="midnightblue" stroke="midnightblue" points="695.94,-78.23 685.67,-75.65 692.09,-84.08 695.94,-78.23"/>
</g>
<!-- Node25&#45;&gt;Node4 -->
<g id="edge42" class="edge">
<title>Node25&#45;&gt;Node4</title>
<path fill="none" stroke="midnightblue" d="M1076.52,-59.32C1005.03,-48.92 853.84,-26.91 782.85,-16.58"/>
<polygon fill="midnightblue" stroke="midnightblue" points="782.98,-13.06 772.58,-15.08 781.97,-19.99 782.98,-13.06"/>
</g>
</g>
</svg>
