<?xml version="1.0" encoding="UTF-8" standalone="no"?>
<!DOCTYPE svg PUBLIC "-//W3C//DTD SVG 1.1//EN"
 "http://www.w3.org/Graphics/SVG/1.1/DTD/svg11.dtd">
<!-- Generated by graphviz version 2.38.0 (20140413.2041)
 -->
<!-- Title: mp_order_by_key Pages: 1 -->
<svg width="1279pt" height="142pt"
 viewBox="0.00 0.00 1279.00 142.00" xmlns="http://www.w3.org/2000/svg" xmlns:xlink="http://www.w3.org/1999/xlink">
<g id="graph0" class="graph" transform="scale(1 1) rotate(0) translate(4 138)">
<title>mp_order_by_key</title>
<polygon fill="white" stroke="none" points="-4,4 -4,-138 1275,-138 1275,4 -4,4"/>
<!-- Node656 -->
<g id="node1" class="node"><title>Node656</title>
<polygon fill="#bfbfbf" stroke="black" points="0,-57.5 0,-76.5 94,-76.5 94,-57.5 0,-57.5"/>
<text text-anchor="middle" x="47" y="-64.5" font-family="Helvetica,sans-Serif" font-size="10.00">mp_order_by_key</text>
</g>
<!-- Node657 -->
<g id="node2" class="node"><title>Node657</title>
<g id="a_node2"><a xlink:href="domain_8c.html#a31ed88504efc8a98d11e356c8b3ccda7" target="_top" xlink:title="domain_check_for_local\l_refine_subsample">
<polygon fill="white" stroke="black" points="130,-52 130,-82 252,-82 252,-52 130,-52"/>
<text text-anchor="start" x="138" y="-70" font-family="Helvetica,sans-Serif" font-size="10.00">domain_check_for_local</text>
<text text-anchor="middle" x="191" y="-59" font-family="Helvetica,sans-Serif" font-size="10.00">_refine_subsample</text>
</a>
</g>
</g>
<!-- Node656&#45;&gt;Node657 -->
<g id="edge1" class="edge"><title>Node656&#45;&gt;Node657</title>
<path fill="none" stroke="midnightblue" d="M104.218,-67C112.656,-67 121.387,-67 129.902,-67"/>
<polygon fill="midnightblue" stroke="midnightblue" points="104.103,-63.5001 94.1033,-67 104.103,-70.5001 104.103,-63.5001"/>
</g>
<!-- Node658 -->
<g id="node3" class="node"><title>Node658</title>
<g id="a_node3"><a xlink:href="domain_8c.html#aa8992a67d8b8750c8b87c3e1f692fb3b" target="_top" xlink:title="domain_determine_global\l_toptree">
<polygon fill="white" stroke="black" points="288,-52 288,-82 415,-82 415,-52 288,-52"/>
<text text-anchor="start" x="296" y="-70" font-family="Helvetica,sans-Serif" font-size="10.00">domain_determine_global</text>
<text text-anchor="middle" x="351.5" y="-59" font-family="Helvetica,sans-Serif" font-size="10.00">_toptree</text>
</a>
</g>
</g>
<!-- Node657&#45;&gt;Node658 -->
<g id="edge2" class="edge"><title>Node657&#45;&gt;Node658</title>
<path fill="none" stroke="midnightblue" d="M262.583,-67C271.027,-67 279.605,-67 287.925,-67"/>
<polygon fill="midnightblue" stroke="midnightblue" points="262.374,-63.5001 252.374,-67 262.374,-70.5001 262.374,-63.5001"/>
</g>
<!-- Node659 -->
<g id="node4" class="node"><title>Node659</title>
<g id="a_node4"><a xlink:href="domain_8c.html#ad4bc28a1efce192ef245acec104c6d2e" target="_top" xlink:title="domain_attempt_decompose">
<polygon fill="white" stroke="black" points="451,-57.5 451,-76.5 593,-76.5 593,-57.5 451,-57.5"/>
<text text-anchor="middle" x="522" y="-64.5" font-family="Helvetica,sans-Serif" font-size="10.00">domain_attempt_decompose</text>
</a>
</g>
</g>
<!-- Node658&#45;&gt;Node659 -->
<g id="edge3" class="edge"><title>Node658&#45;&gt;Node659</title>
<path fill="none" stroke="midnightblue" d="M425.428,-67C433.859,-67 442.444,-67 450.837,-67"/>
<polygon fill="midnightblue" stroke="midnightblue" points="425.243,-63.5001 415.243,-67 425.243,-70.5001 425.243,-63.5001"/>
</g>
<!-- Node660 -->
<g id="node5" class="node"><title>Node660</title>
<g id="a_node5"><a xlink:href="domain_8h.html#a168c36ec12faca23e23395b6a13d2037" target="_top" xlink:title="domain_decompose_full">
<polygon fill="white" stroke="black" points="629,-57.5 629,-76.5 751,-76.5 751,-57.5 629,-57.5"/>
<text text-anchor="middle" x="690" y="-64.5" font-family="Helvetica,sans-Serif" font-size="10.00">domain_decompose_full</text>
</a>
</g>
</g>
<!-- Node659&#45;&gt;Node660 -->
<g id="edge4" class="edge"><title>Node659&#45;&gt;Node660</title>
<path fill="none" stroke="midnightblue" d="M603.451,-67C612.047,-67 620.679,-67 628.979,-67"/>
<polygon fill="midnightblue" stroke="midnightblue" points="603.399,-63.5001 593.399,-67 603.399,-70.5001 603.399,-63.5001"/>
</g>
<!-- Node661 -->
<g id="node6" class="node"><title>Node661</title>
<g id="a_node6"><a xlink:href="domain_8h.html#acf7b74bdcb6563a4603538914fc16157" target="_top" xlink:title="domain_maintain">
<polygon fill="white" stroke="black" points="787,-114.5 787,-133.5 877,-133.5 877,-114.5 787,-114.5"/>
<text text-anchor="middle" x="832" y="-121.5" font-family="Helvetica,sans-Serif" font-size="10.00">domain_maintain</text>
</a>
</g>
</g>
<!-- Node660&#45;&gt;Node661 -->
<g id="edge5" class="edge"><title>Node660&#45;&gt;Node661</title>
<path fill="none" stroke="midnightblue" d="M723.767,-80.3409C749.444,-90.795 784.548,-105.087 807.491,-114.428"/>
<polygon fill="midnightblue" stroke="midnightblue" points="725.014,-77.0698 714.433,-76.5405 722.375,-83.5531 725.014,-77.0698"/>
</g>
<!-- Node662 -->
<g id="node7" class="node"><title>Node662</title>
<g id="a_node7"><a xlink:href="run_8c.html#a05e0ffe612d44e6d7f3a9ae5b9df56a2" target="_top" xlink:title="run">
<polygon fill="white" stroke="black" points="924,-76.5 924,-95.5 954,-95.5 954,-76.5 924,-76.5"/>
<text text-anchor="middle" x="939" y="-83.5" font-family="Helvetica,sans-Serif" font-size="10.00">run</text>
</a>
</g>
</g>
<!-- Node660&#45;&gt;Node662 -->
<g id="edge14" class="edge"><title>Node660&#45;&gt;Node662</title>
<path fill="none" stroke="midnightblue" d="M761.089,-72.3915C817.696,-76.7458 892.844,-82.5265 923.776,-84.9059"/>
<polygon fill="midnightblue" stroke="midnightblue" points="761.346,-68.901 751.107,-71.6236 760.809,-75.8804 761.346,-68.901"/>
</g>
<!-- Node666 -->
<g id="node11" class="node"><title>Node666</title>
<g id="a_node11"><a xlink:href="proto_8h.html#ab080cb20bac2a1a6153a84e8cfd15374" target="_top" xlink:title="init">
<polygon fill="white" stroke="black" points="817.5,-38.5 817.5,-57.5 846.5,-57.5 846.5,-38.5 817.5,-38.5"/>
<text text-anchor="middle" x="832" y="-45.5" font-family="Helvetica,sans-Serif" font-size="10.00">init</text>
</a>
</g>
</g>
<!-- Node660&#45;&gt;Node666 -->
<g id="edge11" class="edge"><title>Node660&#45;&gt;Node666</title>
<path fill="none" stroke="midnightblue" d="M761.338,-57.4542C782.767,-54.546 804.153,-51.6435 817.465,-49.8369"/>
<polygon fill="midnightblue" stroke="midnightblue" points="760.624,-54.0189 751.185,-58.832 761.565,-60.9553 760.624,-54.0189"/>
</g>
<!-- Node668 -->
<g id="node13" class="node"><title>Node668</title>
<g id="a_node13"><a xlink:href="runtests_8c.html#a549024555ca61e3f05a7100307e44f69" target="_top" xlink:title="runtests">
<polygon fill="white" stroke="black" points="913,-0.5 913,-19.5 965,-19.5 965,-0.5 913,-0.5"/>
<text text-anchor="middle" x="939" y="-7.5" font-family="Helvetica,sans-Serif" font-size="10.00">runtests</text>
</a>
</g>
</g>
<!-- Node660&#45;&gt;Node668 -->
<g id="edge15" class="edge"><title>Node660&#45;&gt;Node668</title>
<path fill="none" stroke="midnightblue" d="M719.903,-53.3436C738.636,-45.0524 763.786,-34.9531 787,-29 830.381,-17.8748 882.513,-13.1524 912.79,-11.2313"/>
<polygon fill="midnightblue" stroke="midnightblue" points="718.41,-50.1776 710.736,-57.483 721.291,-56.5573 718.41,-50.1776"/>
</g>
<!-- Node661&#45;&gt;Node662 -->
<g id="edge6" class="edge"><title>Node661&#45;&gt;Node662</title>
<path fill="none" stroke="midnightblue" d="M868.991,-110.975C887.81,-104.164 909.78,-96.213 923.785,-91.1446"/>
<polygon fill="midnightblue" stroke="midnightblue" points="867.708,-107.717 859.496,-114.411 870.09,-114.299 867.708,-107.717"/>
</g>
<!-- Node663 -->
<g id="node8" class="node"><title>Node663</title>
<g id="a_node8"><a xlink:href="main_8c.html#a3c04138a5bfe5d72780bb7e82a18e627" target="_top" xlink:title="main">
<polygon fill="white" stroke="black" points="1001,-38.5 1001,-57.5 1039,-57.5 1039,-38.5 1001,-38.5"/>
<text text-anchor="middle" x="1020" y="-45.5" font-family="Helvetica,sans-Serif" font-size="10.00">main</text>
</a>
</g>
</g>
<!-- Node662&#45;&gt;Node663 -->
<g id="edge7" class="edge"><title>Node662&#45;&gt;Node663</title>
<path fill="none" stroke="midnightblue" d="M963.484,-74.7039C975.432,-68.9569 989.733,-62.0778 1000.83,-56.7411"/>
<polygon fill="midnightblue" stroke="midnightblue" points="961.618,-71.7175 954.124,-79.2064 964.652,-78.0257 961.618,-71.7175"/>
</g>
<!-- Node664 -->
<g id="node9" class="node"><title>Node664</title>
<g id="a_node9"><a xlink:href="walltime_8h.html#a76d2135b612766d4d665748454b879d6" target="_top" xlink:title="walltime_report">
<polygon fill="white" stroke="black" points="1075,-38.5 1075,-57.5 1158,-57.5 1158,-38.5 1075,-38.5"/>
<text text-anchor="middle" x="1116.5" y="-45.5" font-family="Helvetica,sans-Serif" font-size="10.00">walltime_report</text>
</a>
</g>
</g>
<!-- Node663&#45;&gt;Node664 -->
<g id="edge8" class="edge"><title>Node663&#45;&gt;Node664</title>
<path fill="none" stroke="midnightblue" d="M1049.41,-48C1057.35,-48 1066.13,-48 1074.63,-48"/>
<polygon fill="midnightblue" stroke="midnightblue" points="1049.22,-44.5001 1039.22,-48 1049.22,-51.5001 1049.22,-44.5001"/>
</g>
<!-- Node665 -->
<g id="node10" class="node"><title>Node665</title>
<g id="a_node10"><a xlink:href="run_8c.html#adc59e9ee1517e4e690694a64ab6a59d2" target="_top" xlink:title="write_cpu_log">
<polygon fill="white" stroke="black" points="1194,-57.5 1194,-76.5 1271,-76.5 1271,-57.5 1194,-57.5"/>
<text text-anchor="middle" x="1232.5" y="-64.5" font-family="Helvetica,sans-Serif" font-size="10.00">write_cpu_log</text>
</a>
</g>
</g>
<!-- Node664&#45;&gt;Node665 -->
<g id="edge9" class="edge"><title>Node664&#45;&gt;Node665</title>
<path fill="none" stroke="midnightblue" d="M1168.03,-56.4218C1176.68,-57.8641 1185.54,-59.3399 1193.78,-60.7141"/>
<polygon fill="midnightblue" stroke="midnightblue" points="1168.45,-52.9439 1158.01,-54.7522 1167.3,-59.8486 1168.45,-52.9439"/>
</g>
<!-- Node665&#45;&gt;Node662 -->
<g id="edge10" class="edge"><title>Node665&#45;&gt;Node662</title>
<path fill="none" stroke="midnightblue" d="M1183.77,-70.1113C1115.86,-74.5373 995.058,-82.4113 954.06,-85.0836"/>
<polygon fill="midnightblue" stroke="midnightblue" points="1184.04,-73.6012 1193.79,-69.4581 1183.58,-66.616 1184.04,-73.6012"/>
</g>
<!-- Node667 -->
<g id="node12" class="node"><title>Node667</title>
<g id="a_node12"><a xlink:href="proto_8h.html#a74dc0e5e9eefe11fc8434b62de573146" target="_top" xlink:title="begrun">
<polygon fill="white" stroke="black" points="916,-38.5 916,-57.5 962,-57.5 962,-38.5 916,-38.5"/>
<text text-anchor="middle" x="939" y="-45.5" font-family="Helvetica,sans-Serif" font-size="10.00">begrun</text>
</a>
</g>
</g>
<!-- Node666&#45;&gt;Node667 -->
<g id="edge12" class="edge"><title>Node666&#45;&gt;Node667</title>
<path fill="none" stroke="midnightblue" d="M856.828,-48C874.541,-48 898.535,-48 915.836,-48"/>
<polygon fill="midnightblue" stroke="midnightblue" points="856.727,-44.5001 846.727,-48 856.727,-51.5001 856.727,-44.5001"/>
</g>
<!-- Node667&#45;&gt;Node663 -->
<g id="edge13" class="edge"><title>Node667&#45;&gt;Node663</title>
<path fill="none" stroke="midnightblue" d="M972.232,-48C981.987,-48 992.354,-48 1000.84,-48"/>
<polygon fill="midnightblue" stroke="midnightblue" points="972.006,-44.5001 962.006,-48 972.006,-51.5001 972.006,-44.5001"/>
</g>
<!-- Node668&#45;&gt;Node663 -->
<g id="edge16" class="edge"><title>Node668&#45;&gt;Node663</title>
<path fill="none" stroke="midnightblue" d="M968.971,-23.9354C979.679,-29.0861 991.5,-34.7724 1000.96,-39.3237"/>
<polygon fill="midnightblue" stroke="midnightblue" points="970.464,-20.7697 959.935,-19.589 967.43,-27.0779 970.464,-20.7697"/>
</g>
</g>
</svg>
