<?xml version="1.0" encoding="UTF-8" standalone="no"?>
<!DOCTYPE svg PUBLIC "-//W3C//DTD SVG 1.1//EN"
 "http://www.w3.org/Graphics/SVG/1.1/DTD/svg11.dtd">
<!-- Generated by graphviz version 2.38.0 (20140413.2041)
 -->
<!-- Title: domain_toptree_truncate Pages: 1 -->
<svg width="140pt" height="178pt"
 viewBox="0.00 0.00 140.00 177.50" xmlns="http://www.w3.org/2000/svg" xmlns:xlink="http://www.w3.org/1999/xlink">
<g id="graph0" class="graph" transform="scale(1 1) rotate(0) translate(4 173.5)">
<title>domain_toptree_truncate</title>
<polygon fill="white" stroke="none" points="-4,4 -4,-173.5 136,-173.5 136,4 -4,4"/>
<!-- Node612 -->
<g id="node1" class="node"><title>Node612</title>
<polygon fill="#bfbfbf" stroke="black" points="4,-72.5 4,-91.5 128,-91.5 128,-72.5 4,-72.5"/>
<text text-anchor="middle" x="66" y="-79.5" font-family="Helvetica,sans-Serif" font-size="10.00">domain_toptree_truncate</text>
</g>
<!-- Node613 -->
<g id="node2" class="node"><title>Node613</title>
<g id="a_node2"><a xlink:href="domain_8c.html#a81f1b6e1765f65ef2dcc98a55fb2b9d1" target="_top" xlink:title="domain_toptree_garbage\l_collection">
<polygon fill="white" stroke="black" points="4.5,-139 4.5,-169 127.5,-169 127.5,-139 4.5,-139"/>
<text text-anchor="start" x="12.5" y="-157" font-family="Helvetica,sans-Serif" font-size="10.00">domain_toptree_garbage</text>
<text text-anchor="middle" x="66" y="-146" font-family="Helvetica,sans-Serif" font-size="10.00">_collection</text>
</a>
</g>
</g>
<!-- Node612&#45;&gt;Node613 -->
<g id="edge1" class="edge"><title>Node612&#45;&gt;Node613</title>
<path fill="none" stroke="midnightblue" d="M66,-91.7102C66,-101.186 66,-116.006 66,-128.813"/>
<polygon fill="midnightblue" stroke="midnightblue" points="62.5001,-128.937 66,-138.937 69.5001,-128.937 62.5001,-128.937"/>
</g>
<!-- Node614 -->
<g id="node3" class="node"><title>Node614</title>
<g id="a_node3"><a xlink:href="domain_8c.html#aa341c3c1a14a334b2f286fc220daea91" target="_top" xlink:title="domain_toptree_truncate_r">
<polygon fill="white" stroke="black" points="0,-0.5 0,-19.5 132,-19.5 132,-0.5 0,-0.5"/>
<text text-anchor="middle" x="66" y="-7.5" font-family="Helvetica,sans-Serif" font-size="10.00">domain_toptree_truncate_r</text>
</a>
</g>
</g>
<!-- Node612&#45;&gt;Node614 -->
<g id="edge2" class="edge"><title>Node612&#45;&gt;Node614</title>
<path fill="none" stroke="midnightblue" d="M66,-72.2898C66,-61.3861 66,-43.4077 66,-29.5612"/>
<polygon fill="midnightblue" stroke="midnightblue" points="69.5001,-29.5564 66,-19.5564 62.5001,-29.5564 69.5001,-29.5564"/>
</g>
</g>
</svg>
