<?xml version="1.0" encoding="UTF-8" standalone="no"?>
<!DOCTYPE svg PUBLIC "-//W3C//DTD SVG 1.1//EN"
 "http://www.w3.org/Graphics/SVG/1.1/DTD/svg11.dtd">
<!-- Generated by graphviz version 2.50.0 (0)
 -->
<!-- Title: domain_check_for_local_refine_subsample Pages: 1 -->
<svg width="704pt" height="243pt"
 viewBox="0.00 0.00 704.00 243.40" xmlns="http://www.w3.org/2000/svg" xmlns:xlink="http://www.w3.org/1999/xlink">
<g id="graph0" class="graph" transform="scale(1 1) rotate(0) translate(4 239.4)">
<title>domain_check_for_local_refine_subsample</title>
<polygon fill="white" stroke="transparent" points="-4,4 -4,-239.4 700,-239.4 700,4 -4,4"/>
<!-- Node1 -->
<g id="node1" class="node">
<title>Node1</title>
<g id="a_node1"><a xlink:title=" ">
<polygon fill="#bfbfbf" stroke="black" points="0,-109 0,-139 134,-139 134,-109 0,-109"/>
<text text-anchor="start" x="8" y="-127" font-family="Helvetica,sans-Serif" font-size="10.00">domain_check_for_local</text>
<text text-anchor="middle" x="67" y="-116" font-family="Helvetica,sans-Serif" font-size="10.00">_refine_subsample</text>
</a>
</g>
</g>
<!-- Node2 -->
<g id="node2" class="node">
<title>Node2</title>
<g id="a_node2"><a xlink:href="domain_8c.html#a68801e6ae47ede6055ff1ce301bee95a" target="_top" xlink:title=" ">
<polygon fill="white" stroke="black" points="364,-196 364,-226 479,-226 479,-196 364,-196"/>
<text text-anchor="start" x="372" y="-214" font-family="Helvetica,sans-Serif" font-size="10.00">domain_toptree_get</text>
<text text-anchor="middle" x="421.5" y="-203" font-family="Helvetica,sans-Serif" font-size="10.00">_subnode</text>
</a>
</g>
</g>
<!-- Node1&#45;&gt;Node2 -->
<g id="edge1" class="edge">
<title>Node1&#45;&gt;Node2</title>
<path fill="none" stroke="midnightblue" d="M78.37,-139.18C94.75,-161.66 129.02,-202.87 170,-219 228.93,-242.19 301.82,-236.43 353.75,-227.13"/>
<polygon fill="midnightblue" stroke="midnightblue" points="354.67,-230.52 363.85,-225.24 353.38,-223.64 354.67,-230.52"/>
</g>
<!-- Node3 -->
<g id="node3" class="node">
<title>Node3</title>
<g id="a_node3"><a xlink:href="domain_8c.html#a352966dc4df949dcba3c9bc864e74064" target="_top" xlink:title=" ">
<polygon fill="white" stroke="black" points="185.5,-190.5 185.5,-209.5 312.5,-209.5 312.5,-190.5 185.5,-190.5"/>
<text text-anchor="middle" x="249" y="-197.5" font-family="Helvetica,sans-Serif" font-size="10.00">domain_toptree_insert</text>
</a>
</g>
</g>
<!-- Node1&#45;&gt;Node3 -->
<g id="edge2" class="edge">
<title>Node1&#45;&gt;Node3</title>
<path fill="none" stroke="midnightblue" d="M91.01,-139.25C111.12,-151.98 141.49,-169.8 170,-181 176.36,-183.5 183.15,-185.74 189.97,-187.72"/>
<polygon fill="midnightblue" stroke="midnightblue" points="189.36,-191.19 199.93,-190.46 191.21,-184.44 189.36,-191.19"/>
</g>
<!-- Node4 -->
<g id="node4" class="node">
<title>Node4</title>
<g id="a_node4"><a xlink:href="domain_8c.html#a7a2dff4d8f64c8406ab9138321fe49e5" target="_top" xlink:title=" ">
<polygon fill="white" stroke="black" points="189,-152.5 189,-171.5 309,-171.5 309,-152.5 189,-152.5"/>
<text text-anchor="middle" x="249" y="-159.5" font-family="Helvetica,sans-Serif" font-size="10.00">domain_toptree_split</text>
</a>
</g>
</g>
<!-- Node1&#45;&gt;Node4 -->
<g id="edge4" class="edge">
<title>Node1&#45;&gt;Node4</title>
<path fill="none" stroke="midnightblue" d="M134,-137.93C153.39,-142.03 174.39,-146.46 193.01,-150.39"/>
<polygon fill="midnightblue" stroke="midnightblue" points="192.3,-153.82 202.8,-152.46 193.74,-146.97 192.3,-153.82"/>
</g>
<!-- Node5 -->
<g id="node5" class="node">
<title>Node5</title>
<g id="a_node5"><a xlink:href="endrun_8c.html#ad963d7efdb9f10f7a2298c8ccd222ab0" target="_top" xlink:title=" ">
<polygon fill="white" stroke="black" points="396.5,-141.5 396.5,-160.5 446.5,-160.5 446.5,-141.5 396.5,-141.5"/>
<text text-anchor="middle" x="421.5" y="-148.5" font-family="Helvetica,sans-Serif" font-size="10.00">endrun</text>
</a>
</g>
</g>
<!-- Node1&#45;&gt;Node5 -->
<g id="edge10" class="edge">
<title>Node1&#45;&gt;Node5</title>
<path fill="none" stroke="midnightblue" d="M134,-128.58C186.57,-132.29 262.02,-137.74 328,-143 347.16,-144.53 368.54,-146.37 385.92,-147.9"/>
<polygon fill="midnightblue" stroke="midnightblue" points="385.89,-151.41 396.16,-148.81 386.51,-144.44 385.89,-151.41"/>
</g>
<!-- Node9 -->
<g id="node9" class="node">
<title>Node9</title>
<g id="a_node9"><a xlink:href="domain_8c.html#a5b4020188b4f5bfd059732e331a2b22d" target="_top" xlink:title=" ">
<polygon fill="white" stroke="black" points="170,-76.5 170,-95.5 328,-95.5 328,-76.5 170,-76.5"/>
<text text-anchor="middle" x="249" y="-83.5" font-family="Helvetica,sans-Serif" font-size="10.00">domain_toptree_update_cost</text>
</a>
</g>
</g>
<!-- Node1&#45;&gt;Node9 -->
<g id="edge9" class="edge">
<title>Node1&#45;&gt;Node9</title>
<path fill="none" stroke="midnightblue" d="M134,-110.07C153.39,-105.97 174.39,-101.54 193.01,-97.61"/>
<polygon fill="midnightblue" stroke="midnightblue" points="193.74,-101.03 202.8,-95.54 192.3,-94.18 193.74,-101.03"/>
</g>
<!-- Node10 -->
<g id="node10" class="node">
<title>Node10</title>
<g id="a_node10"><a xlink:href="domain_8c.html#a136c91f0b70a3e54f9dbc31e35029bd0" target="_top" xlink:title=" ">
<polygon fill="white" stroke="black" points="197.5,-38.5 197.5,-57.5 300.5,-57.5 300.5,-38.5 197.5,-38.5"/>
<text text-anchor="middle" x="249" y="-45.5" font-family="Helvetica,sans-Serif" font-size="10.00">mp_order_by_key</text>
</a>
</g>
</g>
<!-- Node1&#45;&gt;Node10 -->
<g id="edge11" class="edge">
<title>Node1&#45;&gt;Node10</title>
<path fill="none" stroke="midnightblue" d="M91.01,-108.75C111.12,-96.02 141.49,-78.2 170,-67 176.36,-64.5 183.15,-62.26 189.97,-60.28"/>
<polygon fill="midnightblue" stroke="midnightblue" points="191.21,-63.56 199.93,-57.54 189.36,-56.81 191.21,-63.56"/>
</g>
<!-- Node11 -->
<g id="node11" class="node">
<title>Node11</title>
<g id="a_node11"><a xlink:href="domain_8c.html#a2f4d04d1300469983c97d4cd0ccc272f" target="_top" xlink:title=" ">
<polygon fill="white" stroke="black" points="208,-0.5 208,-19.5 290,-19.5 290,-0.5 208,-0.5"/>
<text text-anchor="middle" x="249" y="-7.5" font-family="Helvetica,sans-Serif" font-size="10.00">order_by_key</text>
</a>
</g>
</g>
<!-- Node1&#45;&gt;Node11 -->
<g id="edge12" class="edge">
<title>Node1&#45;&gt;Node11</title>
<path fill="none" stroke="midnightblue" d="M79.78,-108.97C97.19,-87.81 131.87,-49.55 170,-29 178.56,-24.39 188.25,-20.88 197.81,-18.21"/>
<polygon fill="midnightblue" stroke="midnightblue" points="198.84,-21.56 207.68,-15.73 197.13,-14.77 198.84,-21.56"/>
</g>
<!-- Node3&#45;&gt;Node2 -->
<g id="edge3" class="edge">
<title>Node3&#45;&gt;Node2</title>
<path fill="none" stroke="midnightblue" d="M312.52,-204.03C325.92,-204.9 340.14,-205.82 353.7,-206.69"/>
<polygon fill="midnightblue" stroke="midnightblue" points="353.71,-210.2 363.92,-207.35 354.16,-203.21 353.71,-210.2"/>
</g>
<!-- Node4&#45;&gt;Node5 -->
<g id="edge5" class="edge">
<title>Node4&#45;&gt;Node5</title>
<path fill="none" stroke="midnightblue" d="M309.15,-158.18C334.78,-156.53 363.88,-154.65 385.91,-153.23"/>
<polygon fill="midnightblue" stroke="midnightblue" points="386.35,-156.71 396.1,-152.57 385.9,-149.73 386.35,-156.71"/>
</g>
<!-- Node6 -->
<g id="node6" class="node">
<title>Node6</title>
<g id="a_node6"><a xlink:href="system_8c.html#a341c8d27bd6c7dde856566810b412b1f" target="_top" xlink:title=" ">
<polygon fill="white" stroke="black" points="523,-160.5 523,-179.5 602,-179.5 602,-160.5 523,-160.5"/>
<text text-anchor="middle" x="562.5" y="-167.5" font-family="Helvetica,sans-Serif" font-size="10.00">MPIU_Tracev</text>
</a>
</g>
</g>
<!-- Node5&#45;&gt;Node6 -->
<g id="edge6" class="edge">
<title>Node5&#45;&gt;Node6</title>
<path fill="none" stroke="midnightblue" d="M446.71,-154.31C464.92,-156.8 490.48,-160.29 512.86,-163.35"/>
<polygon fill="midnightblue" stroke="midnightblue" points="512.5,-166.83 522.88,-164.72 513.45,-159.9 512.5,-166.83"/>
</g>
<!-- Node8 -->
<g id="node8" class="node">
<title>Node8</title>
<g id="a_node8"><a xlink:href="endrun_8c.html#a1200f02a595ab7cbe17c9e36ff32af0f" target="_top" xlink:title=" ">
<polygon fill="white" stroke="black" points="515,-122.5 515,-141.5 610,-141.5 610,-122.5 515,-122.5"/>
<text text-anchor="middle" x="562.5" y="-129.5" font-family="Helvetica,sans-Serif" font-size="10.00">show_backtrace</text>
</a>
</g>
</g>
<!-- Node5&#45;&gt;Node8 -->
<g id="edge8" class="edge">
<title>Node5&#45;&gt;Node8</title>
<path fill="none" stroke="midnightblue" d="M446.71,-147.69C462.75,-145.5 484.48,-142.53 504.72,-139.76"/>
<polygon fill="midnightblue" stroke="midnightblue" points="505.39,-143.2 514.82,-138.38 504.44,-136.27 505.39,-143.2"/>
</g>
<!-- Node7 -->
<g id="node7" class="node">
<title>Node7</title>
<g id="a_node7"><a xlink:href="system_8c.html#a87108946670b4c3afbe846c6726675ff" target="_top" xlink:title=" ">
<polygon fill="white" stroke="black" points="646,-160.5 646,-179.5 696,-179.5 696,-160.5 646,-160.5"/>
<text text-anchor="middle" x="671" y="-167.5" font-family="Helvetica,sans-Serif" font-size="10.00">putline</text>
</a>
</g>
</g>
<!-- Node6&#45;&gt;Node7 -->
<g id="edge7" class="edge">
<title>Node6&#45;&gt;Node7</title>
<path fill="none" stroke="midnightblue" d="M602.25,-170C613.22,-170 625.09,-170 635.77,-170"/>
<polygon fill="midnightblue" stroke="midnightblue" points="635.99,-173.5 645.99,-170 635.99,-166.5 635.99,-173.5"/>
</g>
</g>
</svg>
