<?xml version="1.0" encoding="UTF-8" standalone="no"?>
<!DOCTYPE svg PUBLIC "-//W3C//DTD SVG 1.1//EN"
 "http://www.w3.org/Graphics/SVG/1.1/DTD/svg11.dtd">
<!-- Generated by graphviz version 2.38.0 (20140413.2041)
 -->
<!-- Title: domain_check_memory_bound Pages: 1 -->
<svg width="292pt" height="221pt"
 viewBox="0.00 0.00 292.00 220.56" xmlns="http://www.w3.org/2000/svg" xmlns:xlink="http://www.w3.org/1999/xlink">
<g id="graph0" class="graph" transform="scale(1 1) rotate(0) translate(4 216.561)">
<title>domain_check_memory_bound</title>
<polygon fill="white" stroke="none" points="-4,4 -4,-216.561 288,-216.561 288,4 -4,4"/>
<!-- Node127 -->
<g id="node1" class="node"><title>Node127</title>
<polygon fill="#bfbfbf" stroke="black" points="164,-0.5 164,-30.5 284,-30.5 284,-0.5 164,-0.5"/>
<text text-anchor="start" x="172" y="-18.5" font-family="Helvetica,sans-Serif" font-size="10.00">domain_check_memory</text>
<text text-anchor="middle" x="224" y="-7.5" font-family="Helvetica,sans-Serif" font-size="10.00">_bound</text>
</g>
<!-- Node128 -->
<g id="node2" class="node"><title>Node128</title>
<g id="a_node2"><a xlink:href="endrun_8c.html#a6567cd867c5549fb6586e19ccd819764" target="_top" xlink:title="message">
<polygon fill="white" stroke="black" points="160,-68.3538 160,-87.3538 216,-87.3538 216,-68.3538 160,-68.3538"/>
<text text-anchor="middle" x="188" y="-75.3538" font-family="Helvetica,sans-Serif" font-size="10.00">message</text>
</a>
</g>
</g>
<!-- Node127&#45;&gt;Node128 -->
<g id="edge1" class="edge"><title>Node127&#45;&gt;Node128</title>
<path fill="none" stroke="midnightblue" d="M215.285,-30.5941C210.281,-39.2612 203.959,-50.2119 198.661,-59.3892"/>
<polygon fill="midnightblue" stroke="midnightblue" points="195.577,-57.7307 193.608,-68.141 201.639,-61.2307 195.577,-57.7307"/>
</g>
<!-- Node129 -->
<g id="node3" class="node"><title>Node129</title>
<g id="a_node3"><a xlink:href="endrun_8c.html#a7267113a7c0a094743bb565eabc695d1" target="_top" xlink:title="messagev">
<polygon fill="white" stroke="black" points="121,-130.708 121,-149.708 183,-149.708 183,-130.708 121,-130.708"/>
<text text-anchor="middle" x="152" y="-137.708" font-family="Helvetica,sans-Serif" font-size="10.00">messagev</text>
</a>
</g>
</g>
<!-- Node128&#45;&gt;Node129 -->
<g id="edge2" class="edge"><title>Node128&#45;&gt;Node129</title>
<path fill="none" stroke="midnightblue" d="M182.375,-87.5966C177.175,-96.6038 169.303,-110.237 162.877,-121.369"/>
<polygon fill="midnightblue" stroke="midnightblue" points="159.673,-119.917 157.704,-130.328 165.735,-123.417 159.673,-119.917"/>
</g>
<!-- Node130 -->
<g id="node4" class="node"><title>Node130</title>
<g id="a_node4"><a xlink:href="endrun_8c.html#a87108946670b4c3afbe846c6726675ff" target="_top" xlink:title="putline">
<polygon fill="white" stroke="black" points="237.5,-193.061 237.5,-212.061 282.5,-212.061 282.5,-193.061 237.5,-193.061"/>
<text text-anchor="middle" x="260" y="-200.061" font-family="Helvetica,sans-Serif" font-size="10.00">putline</text>
</a>
</g>
</g>
<!-- Node129&#45;&gt;Node130 -->
<g id="edge3" class="edge"><title>Node129&#45;&gt;Node130</title>
<path fill="none" stroke="midnightblue" d="M168.875,-149.95C186.47,-160.109 214.257,-176.152 234.524,-187.853"/>
<polygon fill="midnightblue" stroke="midnightblue" points="232.833,-190.918 243.243,-192.887 236.333,-184.856 232.833,-190.918"/>
</g>
<!-- Node131 -->
<g id="node5" class="node"><title>Node131</title>
<g id="a_node5"><a xlink:href="endrun_8c.html#a1200f02a595ab7cbe17c9e36ff32af0f" target="_top" xlink:title="show_backtrace">
<polygon fill="white" stroke="black" points="0,-68.3538 0,-87.3538 88,-87.3538 88,-68.3538 0,-68.3538"/>
<text text-anchor="middle" x="44" y="-75.3538" font-family="Helvetica,sans-Serif" font-size="10.00">show_backtrace</text>
</a>
</g>
</g>
<!-- Node129&#45;&gt;Node131 -->
<g id="edge4" class="edge"><title>Node129&#45;&gt;Node131</title>
<path fill="none" stroke="midnightblue" d="M135.125,-130.465C117.53,-120.306 89.7434,-104.264 69.4759,-92.5623"/>
<polygon fill="midnightblue" stroke="midnightblue" points="71.1668,-89.4972 60.7565,-87.5282 67.6668,-95.5593 71.1668,-89.4972"/>
</g>
</g>
</svg>
