<?xml version="1.0" encoding="UTF-8" standalone="no"?>
<!DOCTYPE svg PUBLIC "-//W3C//DTD SVG 1.1//EN"
 "http://www.w3.org/Graphics/SVG/1.1/DTD/svg11.dtd">
<!-- Generated by graphviz version 2.38.0 (20140413.2041)
 -->
<!-- Title: domain_global_refine Pages: 1 -->
<svg width="1135pt" height="142pt"
 viewBox="0.00 0.00 1135.00 142.00" xmlns="http://www.w3.org/2000/svg" xmlns:xlink="http://www.w3.org/1999/xlink">
<g id="graph0" class="graph" transform="scale(1 1) rotate(0) translate(4 138)">
<title>domain_global_refine</title>
<polygon fill="white" stroke="none" points="-4,4 -4,-138 1131,-138 1131,4 -4,4"/>
<!-- Node353 -->
<g id="node1" class="node"><title>Node353</title>
<polygon fill="#bfbfbf" stroke="black" points="0,-57.5 0,-76.5 108,-76.5 108,-57.5 0,-57.5"/>
<text text-anchor="middle" x="54" y="-64.5" font-family="Helvetica,sans-Serif" font-size="10.00">domain_global_refine</text>
</g>
<!-- Node354 -->
<g id="node2" class="node"><title>Node354</title>
<g id="a_node2"><a xlink:href="domain_8c.html#aa8992a67d8b8750c8b87c3e1f692fb3b" target="_top" xlink:title="domain_determine_global\l_toptree">
<polygon fill="white" stroke="black" points="144,-52 144,-82 271,-82 271,-52 144,-52"/>
<text text-anchor="start" x="152" y="-70" font-family="Helvetica,sans-Serif" font-size="10.00">domain_determine_global</text>
<text text-anchor="middle" x="207.5" y="-59" font-family="Helvetica,sans-Serif" font-size="10.00">_toptree</text>
</a>
</g>
</g>
<!-- Node353&#45;&gt;Node354 -->
<g id="edge1" class="edge"><title>Node353&#45;&gt;Node354</title>
<path fill="none" stroke="midnightblue" d="M118.547,-67C126.962,-67 135.584,-67 143.981,-67"/>
<polygon fill="midnightblue" stroke="midnightblue" points="118.413,-63.5001 108.413,-67 118.413,-70.5001 118.413,-63.5001"/>
</g>
<!-- Node355 -->
<g id="node3" class="node"><title>Node355</title>
<g id="a_node3"><a xlink:href="domain_8c.html#ad4bc28a1efce192ef245acec104c6d2e" target="_top" xlink:title="domain_attempt_decompose">
<polygon fill="white" stroke="black" points="307,-57.5 307,-76.5 449,-76.5 449,-57.5 307,-57.5"/>
<text text-anchor="middle" x="378" y="-64.5" font-family="Helvetica,sans-Serif" font-size="10.00">domain_attempt_decompose</text>
</a>
</g>
</g>
<!-- Node354&#45;&gt;Node355 -->
<g id="edge2" class="edge"><title>Node354&#45;&gt;Node355</title>
<path fill="none" stroke="midnightblue" d="M281.428,-67C289.859,-67 298.444,-67 306.837,-67"/>
<polygon fill="midnightblue" stroke="midnightblue" points="281.243,-63.5001 271.243,-67 281.243,-70.5001 281.243,-63.5001"/>
</g>
<!-- Node356 -->
<g id="node4" class="node"><title>Node356</title>
<g id="a_node4"><a xlink:href="domain_8h.html#a168c36ec12faca23e23395b6a13d2037" target="_top" xlink:title="domain_decompose_full">
<polygon fill="white" stroke="black" points="485,-57.5 485,-76.5 607,-76.5 607,-57.5 485,-57.5"/>
<text text-anchor="middle" x="546" y="-64.5" font-family="Helvetica,sans-Serif" font-size="10.00">domain_decompose_full</text>
</a>
</g>
</g>
<!-- Node355&#45;&gt;Node356 -->
<g id="edge3" class="edge"><title>Node355&#45;&gt;Node356</title>
<path fill="none" stroke="midnightblue" d="M459.451,-67C468.047,-67 476.679,-67 484.979,-67"/>
<polygon fill="midnightblue" stroke="midnightblue" points="459.399,-63.5001 449.399,-67 459.399,-70.5001 459.399,-63.5001"/>
</g>
<!-- Node357 -->
<g id="node5" class="node"><title>Node357</title>
<g id="a_node5"><a xlink:href="domain_8h.html#acf7b74bdcb6563a4603538914fc16157" target="_top" xlink:title="domain_maintain">
<polygon fill="white" stroke="black" points="643,-114.5 643,-133.5 733,-133.5 733,-114.5 643,-114.5"/>
<text text-anchor="middle" x="688" y="-121.5" font-family="Helvetica,sans-Serif" font-size="10.00">domain_maintain</text>
</a>
</g>
</g>
<!-- Node356&#45;&gt;Node357 -->
<g id="edge4" class="edge"><title>Node356&#45;&gt;Node357</title>
<path fill="none" stroke="midnightblue" d="M579.767,-80.3409C605.444,-90.795 640.548,-105.087 663.491,-114.428"/>
<polygon fill="midnightblue" stroke="midnightblue" points="581.014,-77.0698 570.433,-76.5405 578.375,-83.5531 581.014,-77.0698"/>
</g>
<!-- Node358 -->
<g id="node6" class="node"><title>Node358</title>
<g id="a_node6"><a xlink:href="run_8c.html#a05e0ffe612d44e6d7f3a9ae5b9df56a2" target="_top" xlink:title="run">
<polygon fill="white" stroke="black" points="780,-76.5 780,-95.5 810,-95.5 810,-76.5 780,-76.5"/>
<text text-anchor="middle" x="795" y="-83.5" font-family="Helvetica,sans-Serif" font-size="10.00">run</text>
</a>
</g>
</g>
<!-- Node356&#45;&gt;Node358 -->
<g id="edge13" class="edge"><title>Node356&#45;&gt;Node358</title>
<path fill="none" stroke="midnightblue" d="M617.089,-72.3915C673.696,-76.7458 748.844,-82.5265 779.776,-84.9059"/>
<polygon fill="midnightblue" stroke="midnightblue" points="617.346,-68.901 607.107,-71.6236 616.809,-75.8804 617.346,-68.901"/>
</g>
<!-- Node362 -->
<g id="node10" class="node"><title>Node362</title>
<g id="a_node10"><a xlink:href="proto_8h.html#ab080cb20bac2a1a6153a84e8cfd15374" target="_top" xlink:title="init">
<polygon fill="white" stroke="black" points="673.5,-38.5 673.5,-57.5 702.5,-57.5 702.5,-38.5 673.5,-38.5"/>
<text text-anchor="middle" x="688" y="-45.5" font-family="Helvetica,sans-Serif" font-size="10.00">init</text>
</a>
</g>
</g>
<!-- Node356&#45;&gt;Node362 -->
<g id="edge10" class="edge"><title>Node356&#45;&gt;Node362</title>
<path fill="none" stroke="midnightblue" d="M617.338,-57.4542C638.767,-54.546 660.153,-51.6435 673.465,-49.8369"/>
<polygon fill="midnightblue" stroke="midnightblue" points="616.624,-54.0189 607.185,-58.832 617.565,-60.9553 616.624,-54.0189"/>
</g>
<!-- Node364 -->
<g id="node12" class="node"><title>Node364</title>
<g id="a_node12"><a xlink:href="runtests_8c.html#a549024555ca61e3f05a7100307e44f69" target="_top" xlink:title="runtests">
<polygon fill="white" stroke="black" points="769,-0.5 769,-19.5 821,-19.5 821,-0.5 769,-0.5"/>
<text text-anchor="middle" x="795" y="-7.5" font-family="Helvetica,sans-Serif" font-size="10.00">runtests</text>
</a>
</g>
</g>
<!-- Node356&#45;&gt;Node364 -->
<g id="edge14" class="edge"><title>Node356&#45;&gt;Node364</title>
<path fill="none" stroke="midnightblue" d="M575.903,-53.3436C594.636,-45.0524 619.786,-34.9531 643,-29 686.381,-17.8748 738.513,-13.1524 768.79,-11.2313"/>
<polygon fill="midnightblue" stroke="midnightblue" points="574.41,-50.1776 566.736,-57.483 577.291,-56.5573 574.41,-50.1776"/>
</g>
<!-- Node357&#45;&gt;Node358 -->
<g id="edge5" class="edge"><title>Node357&#45;&gt;Node358</title>
<path fill="none" stroke="midnightblue" d="M724.991,-110.975C743.81,-104.164 765.78,-96.213 779.785,-91.1446"/>
<polygon fill="midnightblue" stroke="midnightblue" points="723.708,-107.717 715.496,-114.411 726.09,-114.299 723.708,-107.717"/>
</g>
<!-- Node359 -->
<g id="node7" class="node"><title>Node359</title>
<g id="a_node7"><a xlink:href="main_8c.html#a3c04138a5bfe5d72780bb7e82a18e627" target="_top" xlink:title="main">
<polygon fill="white" stroke="black" points="857,-38.5 857,-57.5 895,-57.5 895,-38.5 857,-38.5"/>
<text text-anchor="middle" x="876" y="-45.5" font-family="Helvetica,sans-Serif" font-size="10.00">main</text>
</a>
</g>
</g>
<!-- Node358&#45;&gt;Node359 -->
<g id="edge6" class="edge"><title>Node358&#45;&gt;Node359</title>
<path fill="none" stroke="midnightblue" d="M819.484,-74.7039C831.432,-68.9569 845.733,-62.0778 856.828,-56.7411"/>
<polygon fill="midnightblue" stroke="midnightblue" points="817.618,-71.7175 810.124,-79.2064 820.652,-78.0257 817.618,-71.7175"/>
</g>
<!-- Node360 -->
<g id="node8" class="node"><title>Node360</title>
<g id="a_node8"><a xlink:href="walltime_8h.html#a76d2135b612766d4d665748454b879d6" target="_top" xlink:title="walltime_report">
<polygon fill="white" stroke="black" points="931,-38.5 931,-57.5 1014,-57.5 1014,-38.5 931,-38.5"/>
<text text-anchor="middle" x="972.5" y="-45.5" font-family="Helvetica,sans-Serif" font-size="10.00">walltime_report</text>
</a>
</g>
</g>
<!-- Node359&#45;&gt;Node360 -->
<g id="edge7" class="edge"><title>Node359&#45;&gt;Node360</title>
<path fill="none" stroke="midnightblue" d="M905.411,-48C913.347,-48 922.132,-48 930.635,-48"/>
<polygon fill="midnightblue" stroke="midnightblue" points="905.221,-44.5001 895.221,-48 905.221,-51.5001 905.221,-44.5001"/>
</g>
<!-- Node361 -->
<g id="node9" class="node"><title>Node361</title>
<g id="a_node9"><a xlink:href="run_8c.html#adc59e9ee1517e4e690694a64ab6a59d2" target="_top" xlink:title="write_cpu_log">
<polygon fill="white" stroke="black" points="1050,-57.5 1050,-76.5 1127,-76.5 1127,-57.5 1050,-57.5"/>
<text text-anchor="middle" x="1088.5" y="-64.5" font-family="Helvetica,sans-Serif" font-size="10.00">write_cpu_log</text>
</a>
</g>
</g>
<!-- Node360&#45;&gt;Node361 -->
<g id="edge8" class="edge"><title>Node360&#45;&gt;Node361</title>
<path fill="none" stroke="midnightblue" d="M1024.03,-56.4218C1032.68,-57.8641 1041.54,-59.3399 1049.78,-60.7141"/>
<polygon fill="midnightblue" stroke="midnightblue" points="1024.45,-52.9439 1014.01,-54.7522 1023.3,-59.8486 1024.45,-52.9439"/>
</g>
<!-- Node361&#45;&gt;Node358 -->
<g id="edge9" class="edge"><title>Node361&#45;&gt;Node358</title>
<path fill="none" stroke="midnightblue" d="M1039.77,-70.1113C971.862,-74.5373 851.058,-82.4113 810.06,-85.0836"/>
<polygon fill="midnightblue" stroke="midnightblue" points="1040.04,-73.6012 1049.79,-69.4581 1039.58,-66.616 1040.04,-73.6012"/>
</g>
<!-- Node363 -->
<g id="node11" class="node"><title>Node363</title>
<g id="a_node11"><a xlink:href="proto_8h.html#a74dc0e5e9eefe11fc8434b62de573146" target="_top" xlink:title="begrun">
<polygon fill="white" stroke="black" points="772,-38.5 772,-57.5 818,-57.5 818,-38.5 772,-38.5"/>
<text text-anchor="middle" x="795" y="-45.5" font-family="Helvetica,sans-Serif" font-size="10.00">begrun</text>
</a>
</g>
</g>
<!-- Node362&#45;&gt;Node363 -->
<g id="edge11" class="edge"><title>Node362&#45;&gt;Node363</title>
<path fill="none" stroke="midnightblue" d="M712.828,-48C730.541,-48 754.535,-48 771.836,-48"/>
<polygon fill="midnightblue" stroke="midnightblue" points="712.727,-44.5001 702.727,-48 712.727,-51.5001 712.727,-44.5001"/>
</g>
<!-- Node363&#45;&gt;Node359 -->
<g id="edge12" class="edge"><title>Node363&#45;&gt;Node359</title>
<path fill="none" stroke="midnightblue" d="M828.232,-48C837.987,-48 848.354,-48 856.842,-48"/>
<polygon fill="midnightblue" stroke="midnightblue" points="828.006,-44.5001 818.006,-48 828.006,-51.5001 828.006,-44.5001"/>
</g>
<!-- Node364&#45;&gt;Node359 -->
<g id="edge15" class="edge"><title>Node364&#45;&gt;Node359</title>
<path fill="none" stroke="midnightblue" d="M824.971,-23.9354C835.679,-29.0861 847.5,-34.7724 856.962,-39.3237"/>
<polygon fill="midnightblue" stroke="midnightblue" points="826.464,-20.7697 815.935,-19.589 823.43,-27.0779 826.464,-20.7697"/>
</g>
</g>
</svg>
