<?xml version="1.0" encoding="UTF-8" standalone="no"?>
<!DOCTYPE svg PUBLIC "-//W3C//DTD SVG 1.1//EN"
 "http://www.w3.org/Graphics/SVG/1.1/DTD/svg11.dtd">
<!-- Generated by graphviz version 2.50.0 (0)
 -->
<!-- Title: set_domain_par Pages: 1 -->
<svg width="284pt" height="66pt"
 viewBox="0.00 0.00 284.00 66.00" xmlns="http://www.w3.org/2000/svg" xmlns:xlink="http://www.w3.org/1999/xlink">
<g id="graph0" class="graph" transform="scale(1 1) rotate(0) translate(4 62)">
<title>set_domain_par</title>
<polygon fill="white" stroke="transparent" points="-4,4 -4,-62 280,-62 280,4 -4,4"/>
<!-- Node1 -->
<g id="node1" class="node">
<title>Node1</title>
<g id="a_node1"><a xlink:title=" ">
<polygon fill="#bfbfbf" stroke="black" points="181,-19.5 181,-38.5 276,-38.5 276,-19.5 181,-19.5"/>
<text text-anchor="middle" x="228.5" y="-26.5" font-family="Helvetica,sans-Serif" font-size="10.00">set_domain_par</text>
</a>
</g>
</g>
<!-- Node2 -->
<g id="node2" class="node">
<title>Node2</title>
<g id="a_node2"><a xlink:href="test__gravity_8c.html#aa1c74bce2067b4182648175e6fe83676" target="_top" xlink:title=" ">
<polygon fill="white" stroke="black" points="77,-38.5 77,-57.5 145,-57.5 145,-38.5 77,-38.5"/>
<text text-anchor="middle" x="111" y="-45.5" font-family="Helvetica,sans-Serif" font-size="10.00">setup_tree</text>
</a>
</g>
</g>
<!-- Node1&#45;&gt;Node2 -->
<g id="edge1" class="edge">
<title>Node1&#45;&gt;Node2</title>
<path fill="none" stroke="midnightblue" d="M170.71,-38.34C162.02,-39.77 153.29,-41.21 145.33,-42.52"/>
<polygon fill="midnightblue" stroke="midnightblue" points="171.56,-41.75 180.85,-36.67 170.42,-34.84 171.56,-41.75"/>
</g>
<!-- Node4 -->
<g id="node4" class="node">
<title>Node4</title>
<g id="a_node4"><a xlink:href="test__fof_8c.html#a2b2edcaa960047ba6c815956c46d82a6" target="_top" xlink:title=" ">
<polygon fill="white" stroke="black" points="84,-0.5 84,-19.5 138,-19.5 138,-0.5 84,-0.5"/>
<text text-anchor="middle" x="111" y="-7.5" font-family="Helvetica,sans-Serif" font-size="10.00">test_fof</text>
</a>
</g>
</g>
<!-- Node1&#45;&gt;Node4 -->
<g id="edge3" class="edge">
<title>Node1&#45;&gt;Node4</title>
<path fill="none" stroke="midnightblue" d="M170.88,-19.69C159.45,-17.81 147.97,-15.92 138.22,-14.31"/>
<polygon fill="midnightblue" stroke="midnightblue" points="170.42,-23.16 180.85,-21.33 171.56,-16.25 170.42,-23.16"/>
</g>
<!-- Node3 -->
<g id="node3" class="node">
<title>Node3</title>
<g id="a_node3"><a xlink:href="test__gravity_8c.html#a840291bc02cba5474a4cb46a9b9566fe" target="_top" xlink:title=" ">
<polygon fill="white" stroke="black" points="0,-38.5 0,-57.5 41,-57.5 41,-38.5 0,-38.5"/>
<text text-anchor="middle" x="20.5" y="-45.5" font-family="Helvetica,sans-Serif" font-size="10.00">main</text>
</a>
</g>
</g>
<!-- Node2&#45;&gt;Node3 -->
<g id="edge2" class="edge">
<title>Node2&#45;&gt;Node3</title>
<path fill="none" stroke="midnightblue" d="M66.51,-48C57.66,-48 48.77,-48 41.25,-48"/>
<polygon fill="midnightblue" stroke="midnightblue" points="66.79,-51.5 76.79,-48 66.79,-44.5 66.79,-51.5"/>
</g>
<!-- Node5 -->
<g id="node5" class="node">
<title>Node5</title>
<g id="a_node5"><a xlink:href="test__fof_8c.html#a840291bc02cba5474a4cb46a9b9566fe" target="_top" xlink:title=" ">
<polygon fill="white" stroke="black" points="0,-0.5 0,-19.5 41,-19.5 41,-0.5 0,-0.5"/>
<text text-anchor="middle" x="20.5" y="-7.5" font-family="Helvetica,sans-Serif" font-size="10.00">main</text>
</a>
</g>
</g>
<!-- Node4&#45;&gt;Node5 -->
<g id="edge4" class="edge">
<title>Node4&#45;&gt;Node5</title>
<path fill="none" stroke="midnightblue" d="M73.6,-10C62.51,-10 50.75,-10 41.21,-10"/>
<polygon fill="midnightblue" stroke="midnightblue" points="73.93,-13.5 83.93,-10 73.93,-6.5 73.93,-13.5"/>
</g>
</g>
</svg>
