<?xml version="1.0" encoding="UTF-8" standalone="no"?>
<!DOCTYPE svg PUBLIC "-//W3C//DTD SVG 1.1//EN"
 "http://www.w3.org/Graphics/SVG/1.1/DTD/svg11.dtd">
<!-- Generated by graphviz version 2.38.0 (20140413.2041)
 -->
<!-- Title: drift_particle Pages: 1 -->
<!--zoomable 651 -->
<svg id="main" version="1.1" xmlns="http://www.w3.org/2000/svg" xmlns:xlink="http://www.w3.org/1999/xlink" xml:space="preserve" onload="init(evt)">
<style type="text/css"><![CDATA[
.edge:hover path { stroke: red; }
.edge:hover polygon { stroke: red; fill: red; }
]]></style>
<script type="text/javascript"><![CDATA[
var edges = document.getElementsByTagName('g');
if (edges && edges.length) {
  for (var i=0;i<edges.length;i++) {
    if (edges[i].id.substr(0,4)=='edge') {
      edges[i].setAttribute('class','edge');
    }
  }
}
]]></script>
        <defs>
                <circle id="rim" cx="0" cy="0" r="7"/>
                <circle id="rim2" cx="0" cy="0" r="3.5"/>
                <g id="zoomPlus">
                        <use xlink:href="#rim" fill="#404040">
                                <set attributeName="fill" to="#808080" begin="zoomplus.mouseover" end="zoomplus.mouseout"/>
                        </use>
                        <path d="M-4,0h8M0,-4v8" fill="none" stroke="white" stroke-width="1.5" pointer-events="none"/>
                </g>
                <g id="zoomMin">
                        <use xlink:href="#rim" fill="#404040">
                                <set attributeName="fill" to="#808080" begin="zoomminus.mouseover" end="zoomminus.mouseout"/>
                        </use>
                        <path d="M-4,0h8" fill="none" stroke="white" stroke-width="1.5" pointer-events="none"/>
                </g>
                <g id="dirArrow">
                        <path fill="none" stroke="white" stroke-width="1.5" d="M0,-3.0v7 M-2.5,-0.5L0,-3.0L2.5,-0.5"/>
                </g>
               <g id="resetDef">
                       <use xlink:href="#rim2" fill="#404040">
                               <set attributeName="fill" to="#808080" begin="reset.mouseover" end="reset.mouseout"/>
                       </use>
               </g>
        </defs>

<script type="text/javascript">
var viewWidth = 729;
var viewHeight = 651;
var sectionId = 'dynsection-5';
</script>
<script xlink:href="svgpan.js"/>
<svg id="graph" class="graph">
<g id="viewport">
<title>drift_particle</title>
<polygon fill="white" stroke="none" points="-4,4 -4,-646.506 725.303,-646.506 725.303,4 -4,4"/>
<!-- Node55 -->
<g id="node1" class="node"><title>Node55</title>
<polygon fill="#bfbfbf" stroke="black" points="298.264,-286.4 298.264,-305.4 368.264,-305.4 368.264,-286.4 298.264,-286.4"/>
<text text-anchor="middle" x="333.264" y="-293.4" font-family="Helvetica,sans-Serif" font-size="10.00">drift_particle</text>
</g>
<!-- Node56 -->
<g id="node2" class="node"><title>Node56</title>
<g id="a_node2"><a xlink:href="gravshort-tree_8c.html#a3ffcbdc6a83731eeae868eb50429d837" target="_top" xlink:title="force_treeev_shortrange">
<polygon fill="white" stroke="black" points="326.157,-334.145 326.157,-353.145 448.157,-353.145 448.157,-334.145 326.157,-334.145"/>
<text text-anchor="middle" x="387.157" y="-341.145" font-family="Helvetica,sans-Serif" font-size="10.00">force_treeev_shortrange</text>
</a>
</g>
</g>
<!-- Node55&#45;&gt;Node56 -->
<g id="edge1" class="edge"><title>Node55&#45;&gt;Node56</title>
<path fill="none" stroke="midnightblue" d="M351.816,-312.335C359.968,-319.557 369.258,-327.788 376.267,-333.997"/>
<polygon fill="midnightblue" stroke="midnightblue" points="353.976,-309.573 344.17,-305.562 349.334,-314.813 353.976,-309.573"/>
</g>
<!-- Node64 -->
<g id="node10" class="node"><title>Node64</title>
<g id="a_node10"><a xlink:href="gravshort-tree-old_8c.html#a253236d87892b895c61ce50b15c03693" target="_top" xlink:title="force_treeevaluate\l_shortrange">
<polygon fill="white" stroke="black" points="259.233,-348.221 259.233,-378.221 356.233,-378.221 356.233,-348.221 259.233,-348.221"/>
<text text-anchor="start" x="267.233" y="-366.221" font-family="Helvetica,sans-Serif" font-size="10.00">force_treeevaluate</text>
<text text-anchor="middle" x="307.733" y="-355.221" font-family="Helvetica,sans-Serif" font-size="10.00">_shortrange</text>
</a>
</g>
</g>
<!-- Node55&#45;&gt;Node64 -->
<g id="edge11" class="edge"><title>Node55&#45;&gt;Node64</title>
<path fill="none" stroke="midnightblue" d="M325.998,-315.06C322.02,-325.548 317.163,-338.356 313.457,-348.128"/>
<polygon fill="midnightblue" stroke="midnightblue" points="329.333,-316.137 329.606,-305.546 322.787,-313.655 329.333,-316.137"/>
</g>
<!-- Node67 -->
<g id="node13" class="node"><title>Node67</title>
<g id="a_node13"><a xlink:href="treewalk_8h.html#a145aa9608fd3824bec8049ee97da1c6f" target="_top" xlink:title="treewalk_visit_ngbiter">
<polygon fill="white" stroke="black" points="252.233,-219.079 252.233,-238.079 363.233,-238.079 363.233,-219.079 252.233,-219.079"/>
<text text-anchor="middle" x="307.733" y="-226.079" font-family="Helvetica,sans-Serif" font-size="10.00">treewalk_visit_ngbiter</text>
</a>
</g>
</g>
<!-- Node55&#45;&gt;Node67 -->
<g id="edge15" class="edge"><title>Node55&#45;&gt;Node67</title>
<path fill="none" stroke="midnightblue" d="M325.972,-276.671C321.201,-264.093 315.173,-248.198 311.384,-238.207"/>
<polygon fill="midnightblue" stroke="midnightblue" points="322.787,-278.146 329.606,-286.255 329.333,-275.663 322.787,-278.146"/>
</g>
<!-- Node57 -->
<g id="node3" class="node"><title>Node57</title>
<g id="a_node3"><a xlink:href="proto_8h.html#a3890f7b7605d1abaf3cd23eeca5bcdd5" target="_top" xlink:title="grav_short_tree">
<polygon fill="white" stroke="black" points="399.05,-381.89 399.05,-400.89 483.05,-400.89 483.05,-381.89 399.05,-381.89"/>
<text text-anchor="middle" x="441.05" y="-388.89" font-family="Helvetica,sans-Serif" font-size="10.00">grav_short_tree</text>
</a>
</g>
</g>
<!-- Node56&#45;&gt;Node57 -->
<g id="edge2" class="edge"><title>Node56&#45;&gt;Node57</title>
<path fill="none" stroke="midnightblue" d="M405.708,-360.08C413.86,-367.302 423.151,-375.533 430.16,-381.742"/>
<polygon fill="midnightblue" stroke="midnightblue" points="407.869,-357.318 398.063,-353.307 403.227,-362.558 407.869,-357.318"/>
</g>
<!-- Node58 -->
<g id="node4" class="node"><title>Node58</title>
<g id="a_node4"><a xlink:href="run_8c.html#abb80d08f4d52f4a7bdf28d1cecfead5b" target="_top" xlink:title="compute_accelerations">
<polygon fill="white" stroke="black" points="484.488,-338.092 484.488,-357.092 601.488,-357.092 601.488,-338.092 484.488,-338.092"/>
<text text-anchor="middle" x="542.988" y="-345.092" font-family="Helvetica,sans-Serif" font-size="10.00">compute_accelerations</text>
</a>
</g>
</g>
<!-- Node57&#45;&gt;Node58 -->
<g id="edge3" class="edge"><title>Node57&#45;&gt;Node58</title>
<path fill="none" stroke="midnightblue" d="M472.425,-377.909C487.991,-371.221 506.434,-363.298 520.56,-357.228"/>
<polygon fill="midnightblue" stroke="midnightblue" points="470.975,-374.723 463.169,-381.886 473.738,-381.155 470.975,-374.723"/>
</g>
<!-- Node63 -->
<g id="node9" class="node"><title>Node63</title>
<g id="a_node9"><a xlink:href="runtests_8c.html#a549024555ca61e3f05a7100307e44f69" target="_top" xlink:title="runtests">
<polygon fill="white" stroke="black" points="429.966,-464.165 429.966,-483.165 481.966,-483.165 481.966,-464.165 429.966,-464.165"/>
<text text-anchor="middle" x="455.966" y="-471.165" font-family="Helvetica,sans-Serif" font-size="10.00">runtests</text>
</a>
</g>
</g>
<!-- Node57&#45;&gt;Node63 -->
<g id="edge9" class="edge"><title>Node57&#45;&gt;Node63</title>
<path fill="none" stroke="midnightblue" d="M444.69,-411.467C447.708,-428.112 451.867,-451.057 454.199,-463.916"/>
<polygon fill="midnightblue" stroke="midnightblue" points="448.047,-410.366 442.819,-401.151 441.16,-411.615 448.047,-410.366"/>
</g>
<!-- Node59 -->
<g id="node5" class="node"><title>Node59</title>
<g id="a_node5"><a xlink:href="run_8c.html#a05e0ffe612d44e6d7f3a9ae5b9df56a2" target="_top" xlink:title="run">
<polygon fill="white" stroke="black" points="597.895,-355.323 597.895,-374.323 627.895,-374.323 627.895,-355.323 597.895,-355.323"/>
<text text-anchor="middle" x="612.895" y="-362.323" font-family="Helvetica,sans-Serif" font-size="10.00">run</text>
</a>
</g>
</g>
<!-- Node58&#45;&gt;Node59 -->
<g id="edge4" class="edge"><title>Node58&#45;&gt;Node59</title>
<path fill="none" stroke="midnightblue" d="M591.48,-359.545C593.638,-360.077 595.715,-360.589 597.67,-361.07"/>
<polygon fill="midnightblue" stroke="midnightblue" points="592.169,-356.11 581.622,-357.115 590.494,-362.906 592.169,-356.11"/>
</g>
<!-- Node60 -->
<g id="node6" class="node"><title>Node60</title>
<g id="a_node6"><a xlink:href="main_8c.html#a3c04138a5bfe5d72780bb7e82a18e627" target="_top" xlink:title="main">
<polygon fill="white" stroke="black" points="477.867,-523.42 477.867,-542.42 515.867,-542.42 515.867,-523.42 477.867,-523.42"/>
<text text-anchor="middle" x="496.867" y="-530.42" font-family="Helvetica,sans-Serif" font-size="10.00">main</text>
</a>
</g>
</g>
<!-- Node59&#45;&gt;Node60 -->
<g id="edge5" class="edge"><title>Node59&#45;&gt;Node60</title>
<path fill="none" stroke="midnightblue" d="M600.532,-382.734C576.148,-418.061 522.581,-495.666 503.654,-523.086"/>
<polygon fill="midnightblue" stroke="midnightblue" points="603.525,-384.56 606.325,-374.342 597.764,-380.584 603.525,-384.56"/>
</g>
<!-- Node61 -->
<g id="node7" class="node"><title>Node61</title>
<g id="a_node7"><a xlink:href="walltime_8h.html#a76d2135b612766d4d665748454b879d6" target="_top" xlink:title="walltime_report">
<polygon fill="white" stroke="black" points="561.228,-525.124 561.228,-544.124 644.228,-544.124 644.228,-525.124 561.228,-525.124"/>
<text text-anchor="middle" x="602.728" y="-532.124" font-family="Helvetica,sans-Serif" font-size="10.00">walltime_report</text>
</a>
</g>
</g>
<!-- Node60&#45;&gt;Node61 -->
<g id="edge6" class="edge"><title>Node60&#45;&gt;Node61</title>
<path fill="none" stroke="midnightblue" d="M526.396,-533.395C537.132,-533.568 549.476,-533.767 561.065,-533.953"/>
<polygon fill="midnightblue" stroke="midnightblue" points="526.338,-529.894 516.283,-533.232 526.226,-536.893 526.338,-529.894"/>
</g>
<!-- Node62 -->
<g id="node8" class="node"><title>Node62</title>
<g id="a_node8"><a xlink:href="run_8c.html#adc59e9ee1517e4e690694a64ab6a59d2" target="_top" xlink:title="write_cpu_log">
<polygon fill="white" stroke="black" points="644.303,-372.554 644.303,-391.554 721.303,-391.554 721.303,-372.554 644.303,-372.554"/>
<text text-anchor="middle" x="682.803" y="-379.554" font-family="Helvetica,sans-Serif" font-size="10.00">write_cpu_log</text>
</a>
</g>
</g>
<!-- Node61&#45;&gt;Node62 -->
<g id="edge7" class="edge"><title>Node61&#45;&gt;Node62</title>
<path fill="none" stroke="midnightblue" d="M612.447,-516.106C629.625,-483.377 664.766,-416.421 677.796,-391.594"/>
<polygon fill="midnightblue" stroke="midnightblue" points="609.285,-514.599 607.737,-525.08 615.483,-517.852 609.285,-514.599"/>
</g>
<!-- Node62&#45;&gt;Node59 -->
<g id="edge8" class="edge"><title>Node62&#45;&gt;Node59</title>
<path fill="none" stroke="midnightblue" d="M634.311,-370.101C632.152,-369.569 630.075,-369.058 628.121,-368.576"/>
<polygon fill="midnightblue" stroke="midnightblue" points="633.622,-373.536 644.169,-372.531 635.297,-366.74 633.622,-373.536"/>
</g>
<!-- Node63&#45;&gt;Node60 -->
<g id="edge10" class="edge"><title>Node63&#45;&gt;Node60</title>
<path fill="none" stroke="midnightblue" d="M468.326,-491.571C475.505,-501.971 484.269,-514.668 490.176,-523.226"/>
<polygon fill="midnightblue" stroke="midnightblue" points="471.099,-489.427 462.538,-483.185 465.338,-493.403 471.099,-489.427"/>
</g>
<!-- Node65 -->
<g id="node11" class="node"><title>Node65</title>
<g id="a_node11"><a xlink:href="gravshort-tree-old_8c.html#a35575b446cf8d239ac5417132ca5d4c9" target="_top" xlink:title="fill_ntab">
<polygon fill="white" stroke="black" points="290.907,-429.35 290.907,-448.35 340.907,-448.35 340.907,-429.35 290.907,-429.35"/>
<text text-anchor="middle" x="315.907" y="-436.35" font-family="Helvetica,sans-Serif" font-size="10.00">fill_ntab</text>
</a>
</g>
</g>
<!-- Node64&#45;&gt;Node65 -->
<g id="edge12" class="edge"><title>Node64&#45;&gt;Node65</title>
<path fill="none" stroke="midnightblue" d="M310.473,-388.58C311.986,-402.573 313.775,-419.129 314.876,-429.31"/>
<polygon fill="midnightblue" stroke="midnightblue" points="313.941,-388.092 309.387,-378.526 306.982,-388.844 313.941,-388.092"/>
</g>
<!-- Node66 -->
<g id="node12" class="node"><title>Node66</title>
<g id="a_node12"><a xlink:href="gravshort-tree-old_8c.html#af703f51f005d6f005c4cfd250fdd5eb9" target="_top" xlink:title="grav_short_tree_old">
<polygon fill="white" stroke="black" points="200.463,-404.91 200.463,-423.91 302.463,-423.91 302.463,-404.91 200.463,-404.91"/>
<text text-anchor="middle" x="251.463" y="-411.91" font-family="Helvetica,sans-Serif" font-size="10.00">grav_short_tree_old</text>
</a>
</g>
</g>
<!-- Node64&#45;&gt;Node66 -->
<g id="edge14" class="edge"><title>Node64&#45;&gt;Node66</title>
<path fill="none" stroke="midnightblue" d="M283.744,-385.044C276.11,-391.989 268.059,-399.313 261.907,-404.909"/>
<polygon fill="midnightblue" stroke="midnightblue" points="286.112,-387.621 291.154,-378.303 281.402,-382.443 286.112,-387.621"/>
</g>
<!-- Node65&#45;&gt;Node66 -->
<g id="edge13" class="edge"><title>Node65&#45;&gt;Node66</title>
<path fill="none" stroke="midnightblue" d="M281.024,-425.621C279.537,-425.057 278.059,-424.496 276.601,-423.943"/>
<polygon fill="midnightblue" stroke="midnightblue" points="280.215,-429.057 290.807,-429.331 282.698,-422.512 280.215,-429.057"/>
</g>
<!-- Node68 -->
<g id="node14" class="node"><title>Node68</title>
<g id="a_node14"><a xlink:href="density_8c.html#a69886540d0642590a0022fc14ce61f06" target="_top" xlink:title="density_internal">
<polygon fill="white" stroke="black" points="150.949,-320.862 150.949,-339.862 235.949,-339.862 235.949,-320.862 150.949,-320.862"/>
<text text-anchor="middle" x="193.449" y="-327.862" font-family="Helvetica,sans-Serif" font-size="10.00">density_internal</text>
</a>
</g>
</g>
<!-- Node67&#45;&gt;Node68 -->
<g id="edge16" class="edge"><title>Node67&#45;&gt;Node68</title>
<path fill="none" stroke="midnightblue" d="M289.007,-245.256C264.855,-266.766 223.649,-303.465 204.207,-320.78"/>
<polygon fill="midnightblue" stroke="midnightblue" points="291.635,-247.603 296.775,-238.338 286.979,-242.375 291.635,-247.603"/>
</g>
<!-- Node74 -->
<g id="node20" class="node"><title>Node74</title>
<g id="a_node20"><a xlink:href="fof_8c.html#a77c15fc071e72ec1ea91652d28740ce1" target="_top" xlink:title="fof_label_primary">
<polygon fill="white" stroke="black" points="205.963,-167.89 205.963,-186.89 296.963,-186.89 296.963,-167.89 205.963,-167.89"/>
<text text-anchor="middle" x="251.463" y="-174.89" font-family="Helvetica,sans-Serif" font-size="10.00">fof_label_primary</text>
</a>
</g>
</g>
<!-- Node67&#45;&gt;Node74 -->
<g id="edge25" class="edge"><title>Node67&#45;&gt;Node74</title>
<path fill="none" stroke="midnightblue" d="M289.659,-212.138C280.528,-203.831 269.768,-194.043 261.999,-186.975"/>
<polygon fill="midnightblue" stroke="midnightblue" points="287.396,-214.811 297.149,-218.951 292.107,-209.633 287.396,-214.811"/>
</g>
<!-- Node80 -->
<g id="node26" class="node"><title>Node80</title>
<g id="a_node26"><a xlink:href="fof_8c.html#a9bbff144989b21ac4cbedc3aa2c6b1dc" target="_top" xlink:title="fof_label_secondary">
<polygon fill="white" stroke="black" points="332.327,-151.758 332.327,-170.758 436.327,-170.758 436.327,-151.758 332.327,-151.758"/>
<text text-anchor="middle" x="384.327" y="-158.758" font-family="Helvetica,sans-Serif" font-size="10.00">fof_label_secondary</text>
</a>
</g>
</g>
<!-- Node67&#45;&gt;Node80 -->
<g id="edge36" class="edge"><title>Node67&#45;&gt;Node80</title>
<path fill="none" stroke="midnightblue" d="M326.253,-212.301C340.985,-199.353 361.097,-181.676 373.373,-170.885"/>
<polygon fill="midnightblue" stroke="midnightblue" points="323.907,-209.703 318.707,-218.934 328.529,-214.961 323.907,-209.703"/>
</g>
<!-- Node81 -->
<g id="node27" class="node"><title>Node81</title>
<g id="a_node27"><a xlink:href="runtests_8c.html#a60eab909e50b5e048e572b833dcc2846" target="_top" xlink:title="grav_short_pair">
<polygon fill="white" stroke="black" points="399.55,-190.91 399.55,-209.91 482.55,-209.91 482.55,-190.91 399.55,-190.91"/>
<text text-anchor="middle" x="441.05" y="-197.91" font-family="Helvetica,sans-Serif" font-size="10.00">grav_short_pair</text>
</a>
</g>
</g>
<!-- Node67&#45;&gt;Node81 -->
<g id="edge39" class="edge"><title>Node67&#45;&gt;Node81</title>
<path fill="none" stroke="midnightblue" d="M362.879,-216.927C374.987,-214.369 387.618,-211.7 399.107,-209.272"/>
<polygon fill="midnightblue" stroke="midnightblue" points="361.928,-213.551 352.868,-219.042 363.375,-220.399 361.928,-213.551"/>
</g>
<!-- Node82 -->
<g id="node28" class="node"><title>Node82</title>
<g id="a_node28"><a xlink:href="hydra_8h.html#a6789381bce7d1c316df8ecf04b47a607" target="_top" xlink:title="hydro_force">
<polygon fill="white" stroke="black" points="439.08,-251.939 439.08,-270.939 507.08,-270.939 507.08,-251.939 439.08,-251.939"/>
<text text-anchor="middle" x="473.08" y="-258.939" font-family="Helvetica,sans-Serif" font-size="10.00">hydro_force</text>
</a>
</g>
</g>
<!-- Node67&#45;&gt;Node82 -->
<g id="edge41" class="edge"><title>Node67&#45;&gt;Node82</title>
<path fill="none" stroke="midnightblue" d="M365.495,-240.058C390.044,-244.937 417.826,-250.458 439.008,-254.668"/>
<polygon fill="midnightblue" stroke="midnightblue" points="366.048,-236.6 355.558,-238.083 364.684,-243.466 366.048,-236.6"/>
</g>
<!-- Node69 -->
<g id="node15" class="node"><title>Node69</title>
<g id="a_node15"><a xlink:href="proto_8h.html#a8ce8ad3893801ac7d380efd9b7ef26d3" target="_top" xlink:title="density">
<polygon fill="white" stroke="black" points="118.006,-386.78 118.006,-405.78 166.006,-405.78 166.006,-386.78 118.006,-386.78"/>
<text text-anchor="middle" x="142.006" y="-393.78" font-family="Helvetica,sans-Serif" font-size="10.00">density</text>
</a>
</g>
</g>
<!-- Node68&#45;&gt;Node69 -->
<g id="edge17" class="edge"><title>Node68&#45;&gt;Node69</title>
<path fill="none" stroke="midnightblue" d="M179.458,-348.288C169.852,-360.599 157.466,-376.47 149.627,-386.514"/>
<polygon fill="midnightblue" stroke="midnightblue" points="182.465,-350.125 185.858,-340.088 176.946,-345.818 182.465,-350.125"/>
</g>
<!-- Node73 -->
<g id="node19" class="node"><title>Node73</title>
<g id="a_node19"><a xlink:href="proto_8h.html#a137ca78a0bd40fa7a75438e90e4f66a8" target="_top" xlink:title="density_update">
<polygon fill="white" stroke="black" points="75.7642,-286.4 75.7642,-305.4 158.764,-305.4 158.764,-286.4 75.7642,-286.4"/>
<text text-anchor="middle" x="117.264" y="-293.4" font-family="Helvetica,sans-Serif" font-size="10.00">density_update</text>
</a>
</g>
</g>
<!-- Node68&#45;&gt;Node73 -->
<g id="edge23" class="edge"><title>Node68&#45;&gt;Node73</title>
<path fill="none" stroke="midnightblue" d="M162.893,-316.54C154.668,-312.82 145.956,-308.878 138.372,-305.448"/>
<polygon fill="midnightblue" stroke="midnightblue" points="161.673,-319.83 172.227,-320.762 164.558,-313.452 161.673,-319.83"/>
</g>
<!-- Node69&#45;&gt;Node58 -->
<g id="edge22" class="edge"><title>Node69&#45;&gt;Node58</title>
<path fill="none" stroke="midnightblue" d="M176.437,-392.1C245.054,-383.768 399.523,-365.012 484.394,-354.707"/>
<polygon fill="midnightblue" stroke="midnightblue" points="175.691,-388.664 166.186,-393.344 176.535,-395.613 175.691,-388.664"/>
</g>
<!-- Node70 -->
<g id="node16" class="node"><title>Node70</title>
<g id="a_node16"><a xlink:href="init_8c.html#a643ef34b585446f8ccbbf3239df2db71" target="_top" xlink:title="setup_smoothinglengths">
<polygon fill="white" stroke="black" points="17.2528,-420.24 17.2528,-439.24 139.253,-439.24 139.253,-420.24 17.2528,-420.24"/>
<text text-anchor="middle" x="78.2528" y="-427.24" font-family="Helvetica,sans-Serif" font-size="10.00">setup_smoothinglengths</text>
</a>
</g>
</g>
<!-- Node69&#45;&gt;Node70 -->
<g id="edge18" class="edge"><title>Node69&#45;&gt;Node70</title>
<path fill="none" stroke="midnightblue" d="M114.339,-410.801C108.277,-413.982 102.009,-417.272 96.4312,-420.2"/>
<polygon fill="midnightblue" stroke="midnightblue" points="116.338,-413.705 123.566,-405.958 113.085,-407.507 116.338,-413.705"/>
</g>
<!-- Node71 -->
<g id="node17" class="node"><title>Node71</title>
<g id="a_node17"><a xlink:href="proto_8h.html#ab080cb20bac2a1a6153a84e8cfd15374" target="_top" xlink:title="init">
<polygon fill="white" stroke="black" points="-3.55271e-14,-453.7 -3.55271e-14,-472.7 29,-472.7 29,-453.7 -3.55271e-14,-453.7"/>
<text text-anchor="middle" x="14.5" y="-460.7" font-family="Helvetica,sans-Serif" font-size="10.00">init</text>
</a>
</g>
</g>
<!-- Node70&#45;&gt;Node71 -->
<g id="edge19" class="edge"><title>Node70&#45;&gt;Node71</title>
<path fill="none" stroke="midnightblue" d="M50.7505,-444.175C43.3645,-448.051 35.6592,-452.095 29.2614,-455.453"/>
<polygon fill="midnightblue" stroke="midnightblue" points="52.5849,-447.165 59.8129,-439.418 49.3318,-440.967 52.5849,-447.165"/>
</g>
<!-- Node72 -->
<g id="node18" class="node"><title>Node72</title>
<g id="a_node18"><a xlink:href="proto_8h.html#a74dc0e5e9eefe11fc8434b62de573146" target="_top" xlink:title="begrun">
<polygon fill="white" stroke="black" points="437.922,-623.006 437.922,-642.006 483.922,-642.006 483.922,-623.006 437.922,-623.006"/>
<text text-anchor="middle" x="460.922" y="-630.006" font-family="Helvetica,sans-Serif" font-size="10.00">begrun</text>
</a>
</g>
</g>
<!-- Node71&#45;&gt;Node72 -->
<g id="edge20" class="edge"><title>Node71&#45;&gt;Node72</title>
<path fill="none" stroke="midnightblue" d="M38.8513,-472.436C117.037,-502.088 361.064,-594.635 437.671,-623.688"/>
<polygon fill="midnightblue" stroke="midnightblue" points="39.9446,-469.107 29.3533,-468.834 37.4623,-475.652 39.9446,-469.107"/>
</g>
<!-- Node72&#45;&gt;Node60 -->
<g id="edge21" class="edge"><title>Node72&#45;&gt;Node60</title>
<path fill="none" stroke="midnightblue" d="M467.817,-613.404C475.46,-592.228 487.486,-558.91 493.378,-542.586"/>
<polygon fill="midnightblue" stroke="midnightblue" points="464.471,-612.363 464.368,-622.957 471.056,-614.739 464.471,-612.363"/>
</g>
<!-- Node73&#45;&gt;Node70 -->
<g id="edge24" class="edge"><title>Node73&#45;&gt;Node70</title>
<path fill="none" stroke="midnightblue" d="M111.59,-315.366C103.095,-344.51 87.3907,-398.39 81.033,-420.202"/>
<polygon fill="midnightblue" stroke="midnightblue" points="115.02,-316.106 114.459,-305.526 108.3,-314.147 115.02,-316.106"/>
</g>
<!-- Node75 -->
<g id="node21" class="node"><title>Node75</title>
<g id="a_node21"><a xlink:href="fof_8c.html#aa0d13cc94e97083dfd468ed33331eed7" target="_top" xlink:title="fof_periodic_wrap">
<polygon fill="white" stroke="black" points="125.086,-143.166 125.086,-162.166 218.086,-162.166 218.086,-143.166 125.086,-143.166"/>
<text text-anchor="middle" x="171.586" y="-150.166" font-family="Helvetica,sans-Serif" font-size="10.00">fof_periodic_wrap</text>
</a>
</g>
</g>
<!-- Node74&#45;&gt;Node75 -->
<g id="edge26" class="edge"><title>Node74&#45;&gt;Node75</title>
<path fill="none" stroke="midnightblue" d="M210.57,-164.733C207.851,-163.891 205.138,-163.051 202.481,-162.229"/>
<polygon fill="midnightblue" stroke="midnightblue" points="209.764,-168.147 220.352,-167.76 211.834,-161.46 209.764,-168.147"/>
</g>
<!-- Node78 -->
<g id="node24" class="node"><title>Node78</title>
<g id="a_node24"><a xlink:href="fof_8h.html#a7f10d50a8e07ce0bb67ffdfaf904d7c8" target="_top" xlink:title="fof_fof">
<polygon fill="white" stroke="black" points="285.228,-71.975 285.228,-90.975 329.228,-90.975 329.228,-71.975 285.228,-71.975"/>
<text text-anchor="middle" x="307.228" y="-78.975" font-family="Helvetica,sans-Serif" font-size="10.00">fof_fof</text>
</a>
</g>
</g>
<!-- Node74&#45;&gt;Node78 -->
<g id="edge35" class="edge"><title>Node74&#45;&gt;Node78</title>
<path fill="none" stroke="midnightblue" d="M262.042,-159.195C273.844,-138.895 292.487,-106.829 301.7,-90.9838"/>
<polygon fill="midnightblue" stroke="midnightblue" points="259.014,-157.439 257.014,-167.843 265.066,-160.957 259.014,-157.439"/>
</g>
<!-- Node76 -->
<g id="node22" class="node"><title>Node76</title>
<g id="a_node22"><a xlink:href="fof_8c.html#a36336d505e8a4fb8e8fdaf9a796e40d4" target="_top" xlink:title="fof_finish_group_properties">
<polygon fill="white" stroke="black" points="11.2528,-152.56 11.2528,-171.56 145.253,-171.56 145.253,-152.56 11.2528,-152.56"/>
<text text-anchor="middle" x="78.2528" y="-159.56" font-family="Helvetica,sans-Serif" font-size="10.00">fof_finish_group_properties</text>
</a>
</g>
</g>
<!-- Node75&#45;&gt;Node76 -->
<g id="edge27" class="edge"><title>Node75&#45;&gt;Node76</title>
<path fill="none" stroke="midnightblue" d="M115.016,-151.695C112.898,-151.964 110.809,-152.249 108.767,-152.549"/>
<polygon fill="midnightblue" stroke="midnightblue" points="115.518,-155.161 125.064,-150.565 114.735,-148.205 115.518,-155.161"/>
</g>
<!-- Node76&#45;&gt;Node75 -->
<g id="edge28" class="edge"><title>Node76&#45;&gt;Node75</title>
<path fill="none" stroke="midnightblue" d="M145.88,-161.428C145.938,-161.418 145.996,-161.409 146.054,-161.399"/>
<polygon fill="midnightblue" stroke="midnightblue" points="155.004,-156.375 145.706,-161.457 156.144,-163.282 155.004,-156.375"/>
</g>
<!-- Node77 -->
<g id="node23" class="node"><title>Node77</title>
<g id="a_node23"><a xlink:href="fof_8c.html#ae4b5e05b1f0225637629759a9e2ba72e" target="_top" xlink:title="fof_compile_catalogue">
<polygon fill="white" stroke="black" points="112.662,-49.3808 112.662,-68.3808 226.662,-68.3808 226.662,-49.3808 112.662,-49.3808"/>
<text text-anchor="middle" x="169.662" y="-56.3808" font-family="Helvetica,sans-Serif" font-size="10.00">fof_compile_catalogue</text>
</a>
</g>
</g>
<!-- Node76&#45;&gt;Node77 -->
<g id="edge29" class="edge"><title>Node76&#45;&gt;Node77</title>
<path fill="none" stroke="midnightblue" d="M93.3635,-145.003C112.667,-123.214 145.433,-86.229 160.98,-68.6807"/>
<polygon fill="midnightblue" stroke="midnightblue" points="90.7,-142.732 86.6885,-152.538 95.9396,-147.374 90.7,-142.732"/>
</g>
<!-- Node77&#45;&gt;Node75 -->
<g id="edge30" class="edge"><title>Node77&#45;&gt;Node75</title>
<path fill="none" stroke="midnightblue" d="M170.066,-78.5979C170.47,-98.2901 171.075,-127.746 171.385,-142.894"/>
<polygon fill="midnightblue" stroke="midnightblue" points="173.565,-78.4903 169.86,-68.5642 166.566,-78.6339 173.565,-78.4903"/>
</g>
<!-- Node77&#45;&gt;Node78 -->
<g id="edge31" class="edge"><title>Node77&#45;&gt;Node78</title>
<path fill="none" stroke="midnightblue" d="M236.989,-69.9388C254.364,-72.7925 271.863,-75.6665 285.048,-77.8321"/>
<polygon fill="midnightblue" stroke="midnightblue" points="237.242,-66.4336 226.807,-68.2665 236.108,-73.341 237.242,-66.4336"/>
</g>
<!-- Node78&#45;&gt;Node60 -->
<g id="edge34" class="edge"><title>Node78&#45;&gt;Node60</title>
<path fill="none" stroke="midnightblue" d="M315.37,-100.856C348.036,-178.62 468.98,-466.532 492.784,-523.2"/>
<polygon fill="midnightblue" stroke="midnightblue" points="318.465,-99.188 311.365,-91.3239 312.012,-101.899 318.465,-99.188"/>
</g>
<!-- Node79 -->
<g id="node25" class="node"><title>Node79</title>
<g id="a_node25"><a xlink:href="proto_8h.html#a312b6a02f7cde171412989ea5f9be48f" target="_top" xlink:title="write_checkpoint">
<polygon fill="white" stroke="black" points="253.55,-0.5 253.55,-19.5 343.55,-19.5 343.55,-0.5 253.55,-0.5"/>
<text text-anchor="middle" x="298.55" y="-7.5" font-family="Helvetica,sans-Serif" font-size="10.00">write_checkpoint</text>
</a>
</g>
</g>
<!-- Node78&#45;&gt;Node79 -->
<g id="edge32" class="edge"><title>Node78&#45;&gt;Node79</title>
<path fill="none" stroke="midnightblue" d="M304.812,-61.5791C303.167,-48.0295 301.06,-30.671 299.757,-19.9453"/>
<polygon fill="midnightblue" stroke="midnightblue" points="301.378,-62.3304 306.058,-71.8356 308.327,-61.4866 301.378,-62.3304"/>
</g>
<!-- Node79&#45;&gt;Node59 -->
<g id="edge33" class="edge"><title>Node79&#45;&gt;Node59</title>
<path fill="none" stroke="midnightblue" d="M313.985,-27.4225C369.998,-90.649 561.513,-306.825 604.35,-355.177"/>
<polygon fill="midnightblue" stroke="midnightblue" points="316.536,-25.0245 307.285,-19.8603 311.297,-29.6664 316.536,-25.0245"/>
</g>
<!-- Node80&#45;&gt;Node75 -->
<g id="edge37" class="edge"><title>Node80&#45;&gt;Node75</title>
<path fill="none" stroke="midnightblue" d="M322.233,-158.75C289.059,-157.41 248.892,-155.788 218.379,-154.556"/>
<polygon fill="midnightblue" stroke="midnightblue" points="322.152,-162.249 332.285,-159.156 322.434,-155.255 322.152,-162.249"/>
</g>
<!-- Node80&#45;&gt;Node78 -->
<g id="edge38" class="edge"><title>Node80&#45;&gt;Node78</title>
<path fill="none" stroke="midnightblue" d="M367.895,-144.254C352.338,-128.155 329.517,-104.539 316.759,-91.338"/>
<polygon fill="midnightblue" stroke="midnightblue" points="365.407,-146.716 374.873,-151.475 370.441,-141.852 365.407,-146.716"/>
</g>
<!-- Node81&#45;&gt;Node63 -->
<g id="edge40" class="edge"><title>Node81&#45;&gt;Node63</title>
<path fill="none" stroke="midnightblue" d="M442.13,-220.203C445.096,-274.54 453.288,-424.597 455.442,-464.056"/>
<polygon fill="midnightblue" stroke="midnightblue" points="445.621,-219.93 441.581,-210.136 438.631,-220.312 445.621,-219.93"/>
</g>
<!-- Node82&#45;&gt;Node58 -->
<g id="edge42" class="edge"><title>Node82&#45;&gt;Node58</title>
<path fill="none" stroke="midnightblue" d="M487.252,-278.905C501.717,-296.73 523.636,-323.743 535.204,-338"/>
<polygon fill="midnightblue" stroke="midnightblue" points="489.847,-276.548 480.828,-270.988 484.411,-280.958 489.847,-276.548"/>
</g>
</g>
</svg>
        <g id="navigator" transform="translate(0 0)" fill="#404254">
                <rect fill="#f2f5e9" fill-opacity="0.5" stroke="#606060" stroke-width=".5" x="0" y="0" width="60" height="60"/>
                <use id="zoomplus" xlink:href="#zoomPlus" x="17" y="9" onmousedown="handleZoom(evt,'in')"/>
                <use id="zoomminus" xlink:href="#zoomMin" x="42" y="9" onmousedown="handleZoom(evt,'out')"/>
                <use id="reset" xlink:href="#resetDef" x="30" y="36" onmousedown="handleReset()"/>
                <g id="arrowUp" xlink:href="#dirArrow" transform="translate(30 24)" onmousedown="handlePan(0,-1)">
                  <use xlink:href="#rim" fill="#404040">
                        <set attributeName="fill" to="#808080" begin="arrowUp.mouseover" end="arrowUp.mouseout"/>
                  </use>
                  <path fill="none" stroke="white" stroke-width="1.5" d="M0,-3.0v7 M-2.5,-0.5L0,-3.0L2.5,-0.5"/>
                </g>
                <g id="arrowRight" xlink:href="#dirArrow" transform="rotate(90) translate(36 -43)" onmousedown="handlePan(1,0)">
                  <use xlink:href="#rim" fill="#404040">
                        <set attributeName="fill" to="#808080" begin="arrowRight.mouseover" end="arrowRight.mouseout"/>
                  </use>
                  <path fill="none" stroke="white" stroke-width="1.5" d="M0,-3.0v7 M-2.5,-0.5L0,-3.0L2.5,-0.5"/>
                </g>
                <g id="arrowDown" xlink:href="#dirArrow" transform="rotate(180) translate(-30 -48)" onmousedown="handlePan(0,1)">
                  <use xlink:href="#rim" fill="#404040">
                        <set attributeName="fill" to="#808080" begin="arrowDown.mouseover" end="arrowDown.mouseout"/>
                  </use>
                  <path fill="none" stroke="white" stroke-width="1.5" d="M0,-3.0v7 M-2.5,-0.5L0,-3.0L2.5,-0.5"/>
                </g>
                <g id="arrowLeft" xlink:href="#dirArrow" transform="rotate(270) translate(-36 17)" onmousedown="handlePan(-1,0)">
                  <use xlink:href="#rim" fill="#404040">
                        <set attributeName="fill" to="#808080" begin="arrowLeft.mouseover" end="arrowLeft.mouseout"/>
                  </use>
                  <path fill="none" stroke="white" stroke-width="1.5" d="M0,-3.0v7 M-2.5,-0.5L0,-3.0L2.5,-0.5"/>
                </g>
        </g>
        <svg viewBox="0 0 15 15" width="100%" height="30px" preserveAspectRatio="xMaxYMin meet">
         <g id="arrow_out" transform="scale(0.3 0.3)">
          <a xlink:href="drift_8c_aef778a2d1f0e7e44a06517bb0b6cd8ea_icgraph_org.svg" target="_base">
           <rect id="button" ry="5" rx="5" y="6" x="6" height="38" width="38"
                fill="#f2f5e9" fill-opacity="0.5" stroke="#606060" stroke-width="1.0"/>
           <path id="arrow"
             d="M 11.500037,31.436501 C 11.940474,20.09759 22.043105,11.32322 32.158766,21.979434 L 37.068811,17.246167 C 37.068811,17.246167 37.088388,32 37.088388,32 L 22.160133,31.978069 C 22.160133,31.978069 26.997745,27.140456 26.997745,27.140456 C 18.528582,18.264221 13.291696,25.230495 11.500037,31.436501 z"
             style="fill:#404040;"/>
          </a>
         </g>
        </svg>
</svg>
