<?xml version="1.0" encoding="UTF-8" standalone="no"?>
<!DOCTYPE svg PUBLIC "-//W3C//DTD SVG 1.1//EN"
 "http://www.w3.org/Graphics/SVG/1.1/DTD/svg11.dtd">
<!-- Generated by graphviz version 2.38.0 (20140413.2041)
 -->
<!-- Title: drift_particle_full Pages: 1 -->
<!--zoomable 560 -->
<svg id="main" version="1.1" xmlns="http://www.w3.org/2000/svg" xmlns:xlink="http://www.w3.org/1999/xlink" xml:space="preserve" onload="init(evt)">
<style type="text/css"><![CDATA[
.edge:hover path { stroke: red; }
.edge:hover polygon { stroke: red; fill: red; }
]]></style>
<script type="text/javascript"><![CDATA[
var edges = document.getElementsByTagName('g');
if (edges && edges.length) {
  for (var i=0;i<edges.length;i++) {
    if (edges[i].id.substr(0,4)=='edge') {
      edges[i].setAttribute('class','edge');
    }
  }
}
]]></script>
        <defs>
                <circle id="rim" cx="0" cy="0" r="7"/>
                <circle id="rim2" cx="0" cy="0" r="3.5"/>
                <g id="zoomPlus">
                        <use xlink:href="#rim" fill="#404040">
                                <set attributeName="fill" to="#808080" begin="zoomplus.mouseover" end="zoomplus.mouseout"/>
                        </use>
                        <path d="M-4,0h8M0,-4v8" fill="none" stroke="white" stroke-width="1.5" pointer-events="none"/>
                </g>
                <g id="zoomMin">
                        <use xlink:href="#rim" fill="#404040">
                                <set attributeName="fill" to="#808080" begin="zoomminus.mouseover" end="zoomminus.mouseout"/>
                        </use>
                        <path d="M-4,0h8" fill="none" stroke="white" stroke-width="1.5" pointer-events="none"/>
                </g>
                <g id="dirArrow">
                        <path fill="none" stroke="white" stroke-width="1.5" d="M0,-3.0v7 M-2.5,-0.5L0,-3.0L2.5,-0.5"/>
                </g>
               <g id="resetDef">
                       <use xlink:href="#rim2" fill="#404040">
                               <set attributeName="fill" to="#808080" begin="reset.mouseover" end="reset.mouseout"/>
                       </use>
               </g>
        </defs>

<script type="text/javascript">
var viewWidth = 536;
var viewHeight = 560;
var sectionId = 'dynsection-6';
</script>
<script xlink:href="svgpan.js"/>
<svg id="graph" class="graph">
<g id="viewport">
<title>drift_particle_full</title>
<polygon fill="white" stroke="none" points="-4,4 -4,-556.155 532.135,-556.155 532.135,4 -4,4"/>
<!-- Node83 -->
<g id="node1" class="node"><title>Node83</title>
<polygon fill="#bfbfbf" stroke="black" points="112.898,-466.135 112.898,-485.135 200.898,-485.135 200.898,-466.135 112.898,-466.135"/>
<text text-anchor="middle" x="156.898" y="-473.135" font-family="Helvetica,sans-Serif" font-size="10.00">drift_particle_full</text>
</g>
<!-- Node84 -->
<g id="node2" class="node"><title>Node84</title>
<g id="a_node2"><a xlink:href="endrun_8c.html#ad963d7efdb9f10f7a2298c8ccd222ab0" target="_top" xlink:title="endrun">
<polygon fill="white" stroke="black" points="216.558,-410.577 216.558,-429.577 262.558,-429.577 262.558,-410.577 216.558,-410.577"/>
<text text-anchor="middle" x="239.558" y="-417.577" font-family="Helvetica,sans-Serif" font-size="10.00">endrun</text>
</a>
</g>
</g>
<!-- Node83&#45;&gt;Node84 -->
<g id="edge1" class="edge"><title>Node83&#45;&gt;Node84</title>
<path fill="none" stroke="midnightblue" d="M171.297,-465.958C183.861,-457.513 202.306,-445.116 216.856,-435.336"/>
<polygon fill="midnightblue" stroke="midnightblue" points="218.978,-438.127 225.325,-429.644 215.073,-432.317 218.978,-438.127"/>
</g>
<!-- Node88 -->
<g id="node6" class="node"><title>Node88</title>
<g id="a_node6"><a xlink:href="drift_8c.html#a6686c80412f5ab3f2dd3a00cec58f4e3" target="_top" xlink:title="real_drift_particle">
<polygon fill="white" stroke="black" points="249.164,-133.539 249.164,-152.539 340.164,-152.539 340.164,-133.539 249.164,-133.539"/>
<text text-anchor="middle" x="294.664" y="-140.539" font-family="Helvetica,sans-Serif" font-size="10.00">real_drift_particle</text>
</a>
</g>
</g>
<!-- Node83&#45;&gt;Node88 -->
<g id="edge5" class="edge"><title>Node83&#45;&gt;Node88</title>
<path fill="none" stroke="midnightblue" d="M160.873,-466.04C179.807,-420.329 261.004,-224.302 286.78,-162.074"/>
<polygon fill="midnightblue" stroke="midnightblue" points="290.08,-163.251 290.674,-152.673 283.613,-160.572 290.08,-163.251"/>
</g>
<!-- Node85 -->
<g id="node3" class="node"><title>Node85</title>
<g id="a_node3"><a xlink:href="endrun_8c.html#a7267113a7c0a094743bb565eabc695d1" target="_top" xlink:title="messagev">
<polygon fill="white" stroke="black" points="361.293,-419.312 361.293,-438.312 423.293,-438.312 423.293,-419.312 361.293,-419.312"/>
<text text-anchor="middle" x="392.293" y="-426.312" font-family="Helvetica,sans-Serif" font-size="10.00">messagev</text>
</a>
</g>
</g>
<!-- Node84&#45;&gt;Node85 -->
<g id="edge2" class="edge"><title>Node84&#45;&gt;Node85</title>
<path fill="none" stroke="midnightblue" d="M262.755,-421.404C286.167,-422.743 322.815,-424.839 351.164,-426.46"/>
<polygon fill="midnightblue" stroke="midnightblue" points="351.01,-429.957 361.194,-427.034 351.41,-422.968 351.01,-429.957"/>
</g>
<!-- Node86 -->
<g id="node4" class="node"><title>Node86</title>
<g id="a_node4"><a xlink:href="endrun_8c.html#a87108946670b4c3afbe846c6726675ff" target="_top" xlink:title="putline">
<polygon fill="white" stroke="black" points="483.135,-376.79 483.135,-395.79 528.135,-395.79 528.135,-376.79 483.135,-376.79"/>
<text text-anchor="middle" x="505.635" y="-383.79" font-family="Helvetica,sans-Serif" font-size="10.00">putline</text>
</a>
</g>
</g>
<!-- Node85&#45;&gt;Node86 -->
<g id="edge3" class="edge"><title>Node85&#45;&gt;Node86</title>
<path fill="none" stroke="midnightblue" d="M417.729,-419.27C434.097,-413.129 455.52,-405.092 473.12,-398.489"/>
<polygon fill="midnightblue" stroke="midnightblue" points="474.84,-401.582 482.973,-394.792 472.381,-395.028 474.84,-401.582"/>
</g>
<!-- Node87 -->
<g id="node5" class="node"><title>Node87</title>
<g id="a_node5"><a xlink:href="endrun_8c.html#a1200f02a595ab7cbe17c9e36ff32af0f" target="_top" xlink:title="show_backtrace">
<polygon fill="white" stroke="black" points="305.771,-532.655 305.771,-551.655 393.771,-551.655 393.771,-532.655 305.771,-532.655"/>
<text text-anchor="middle" x="349.771" y="-539.655" font-family="Helvetica,sans-Serif" font-size="10.00">show_backtrace</text>
</a>
</g>
</g>
<!-- Node85&#45;&gt;Node87 -->
<g id="edge4" class="edge"><title>Node85&#45;&gt;Node87</title>
<path fill="none" stroke="midnightblue" d="M388.668,-438.476C381.67,-457.129 366.182,-498.411 357.001,-522.883"/>
<polygon fill="midnightblue" stroke="midnightblue" points="353.623,-521.923 353.387,-532.516 360.177,-524.382 353.623,-521.923"/>
</g>
<!-- Node88&#45;&gt;Node84 -->
<g id="edge6" class="edge"><title>Node88&#45;&gt;Node84</title>
<path fill="none" stroke="midnightblue" d="M292.768,-152.575C284.853,-192.364 254.37,-345.613 243.465,-400.434"/>
<polygon fill="midnightblue" stroke="midnightblue" points="240.022,-399.804 241.504,-410.294 246.888,-401.169 240.022,-399.804"/>
</g>
<!-- Node89 -->
<g id="node7" class="node"><title>Node89</title>
<g id="a_node7"><a xlink:href="timefac_8c.html#a2ba6a28833c81ebf383c159da3597f1b" target="_top" xlink:title="get_drift_factor">
<polygon fill="white" stroke="black" points="226.111,-200.058 226.111,-219.058 308.111,-219.058 308.111,-200.058 226.111,-200.058"/>
<text text-anchor="middle" x="267.111" y="-207.058" font-family="Helvetica,sans-Serif" font-size="10.00">get_drift_factor</text>
</a>
</g>
</g>
<!-- Node88&#45;&gt;Node89 -->
<g id="edge7" class="edge"><title>Node88&#45;&gt;Node89</title>
<path fill="none" stroke="midnightblue" d="M290.717,-152.569C286.625,-162.448 280.118,-178.156 274.972,-190.58"/>
<polygon fill="midnightblue" stroke="midnightblue" points="271.645,-189.467 271.052,-200.045 278.112,-192.146 271.645,-189.467"/>
</g>
<!-- Node93 -->
<g id="node11" class="node"><title>Node93</title>
<g id="a_node11"><a xlink:href="lightcone_8c.html#ab92b5a79e5578abc1b3598ba46e9a857" target="_top" xlink:title="lightcone_cross">
<polygon fill="white" stroke="black" points="114.398,-67.0193 114.398,-86.0193 199.398,-86.0193 199.398,-67.0193 114.398,-67.0193"/>
<text text-anchor="middle" x="156.898" y="-74.0193" font-family="Helvetica,sans-Serif" font-size="10.00">lightcone_cross</text>
</a>
</g>
</g>
<!-- Node88&#45;&gt;Node93 -->
<g id="edge12" class="edge"><title>Node88&#45;&gt;Node93</title>
<path fill="none" stroke="midnightblue" d="M274.926,-133.508C251.601,-122.246 212.589,-103.409 185.846,-90.4966"/>
<polygon fill="midnightblue" stroke="midnightblue" points="187.127,-87.2286 176.6,-86.0322 184.084,-93.5322 187.127,-87.2286"/>
</g>
<!-- Node95 -->
<g id="node13" class="node"><title>Node95</title>
<g id="a_node13"><a xlink:href="peano_8h.html#a48e081711b7df745b6222e6e62e081ed" target="_top" xlink:title="PEANO">
<polygon fill="white" stroke="black" points="296.218,-67.0193 296.218,-86.0193 348.218,-86.0193 348.218,-67.0193 296.218,-67.0193"/>
<text text-anchor="middle" x="322.218" y="-74.0193" font-family="Helvetica,sans-Serif" font-size="10.00">PEANO</text>
</a>
</g>
</g>
<!-- Node88&#45;&gt;Node95 -->
<g id="edge14" class="edge"><title>Node88&#45;&gt;Node95</title>
<path fill="none" stroke="midnightblue" d="M298.612,-133.508C302.704,-123.629 309.21,-107.922 314.357,-95.4969"/>
<polygon fill="midnightblue" stroke="midnightblue" points="317.684,-96.6105 318.277,-86.0322 311.217,-93.9316 317.684,-96.6105"/>
</g>
<!-- Node97 -->
<g id="node15" class="node"><title>Node97</title>
<g id="a_node15"><a xlink:href="timebinmgr_8c.html#a37f0feff42f32e30d011f964a40e921e" target="_top" xlink:title="dloga_from_dti">
<polygon fill="white" stroke="black" points="-1.42109e-14,-349.237 -1.42109e-14,-368.237 80,-368.237 80,-349.237 -1.42109e-14,-349.237"/>
<text text-anchor="middle" x="40" y="-356.237" font-family="Helvetica,sans-Serif" font-size="10.00">dloga_from_dti</text>
</a>
</g>
</g>
<!-- Node88&#45;&gt;Node97 -->
<g id="edge16" class="edge"><title>Node88&#45;&gt;Node97</title>
<path fill="none" stroke="midnightblue" d="M283.393,-152.585C243.628,-186.266 109.585,-299.799 59.2845,-342.403"/>
<polygon fill="midnightblue" stroke="midnightblue" points="56.7986,-339.922 51.43,-349.056 61.3228,-345.263 56.7986,-339.922"/>
</g>
<!-- Node98 -->
<g id="node16" class="node"><title>Node98</title>
<g id="a_node16"><a xlink:href="endrun_8c.html#a6567cd867c5549fb6586e19ccd819764" target="_top" xlink:title="message">
<polygon fill="white" stroke="black" points="411.116,-183.918 411.116,-202.918 467.116,-202.918 467.116,-183.918 411.116,-183.918"/>
<text text-anchor="middle" x="439.116" y="-190.918" font-family="Helvetica,sans-Serif" font-size="10.00">message</text>
</a>
</g>
</g>
<!-- Node88&#45;&gt;Node98 -->
<g id="edge19" class="edge"><title>Node88&#45;&gt;Node98</title>
<path fill="none" stroke="midnightblue" d="M322.175,-152.633C344.866,-160.547 377.265,-171.847 402.209,-180.546"/>
<polygon fill="midnightblue" stroke="midnightblue" points="401.113,-183.871 411.708,-183.859 403.419,-177.261 401.113,-183.871"/>
</g>
<!-- Node90 -->
<g id="node8" class="node"><title>Node90</title>
<g id="a_node8"><a xlink:href="timefac_8c.html#a6821c579370313dd41f0f81e8c0b7304" target="_top" xlink:title="find_bin_number">
<polygon fill="white" stroke="black" points="195.558,-266.577 195.558,-285.577 283.558,-285.577 283.558,-266.577 195.558,-266.577"/>
<text text-anchor="middle" x="239.558" y="-273.577" font-family="Helvetica,sans-Serif" font-size="10.00">find_bin_number</text>
</a>
</g>
</g>
<!-- Node89&#45;&gt;Node90 -->
<g id="edge8" class="edge"><title>Node89&#45;&gt;Node90</title>
<path fill="none" stroke="midnightblue" d="M263.163,-219.089C259.071,-228.968 252.565,-244.675 247.419,-257.1"/>
<polygon fill="midnightblue" stroke="midnightblue" points="244.092,-255.986 243.498,-266.564 250.559,-258.665 244.092,-255.986"/>
</g>
<!-- Node91 -->
<g id="node9" class="node"><title>Node91</title>
<g id="a_node9"><a xlink:href="timebinmgr_8c.html#a90eb3a2bdca47035148249e68fc244be" target="_top" xlink:title="loga_from_ti">
<polygon fill="white" stroke="black" points="177.005,-333.097 177.005,-352.097 247.005,-352.097 247.005,-333.097 177.005,-333.097"/>
<text text-anchor="middle" x="212.005" y="-340.097" font-family="Helvetica,sans-Serif" font-size="10.00">loga_from_ti</text>
</a>
</g>
</g>
<!-- Node90&#45;&gt;Node91 -->
<g id="edge9" class="edge"><title>Node90&#45;&gt;Node91</title>
<path fill="none" stroke="midnightblue" d="M235.61,-285.608C231.518,-295.487 225.012,-311.194 219.866,-323.619"/>
<polygon fill="midnightblue" stroke="midnightblue" points="216.538,-322.505 215.945,-333.084 223.006,-325.184 216.538,-322.505"/>
</g>
<!-- Node91&#45;&gt;Node84 -->
<g id="edge10" class="edge"><title>Node91&#45;&gt;Node84</title>
<path fill="none" stroke="midnightblue" d="M215.383,-352.097C219.68,-364.18 227.203,-385.334 232.718,-400.844"/>
<polygon fill="midnightblue" stroke="midnightblue" points="229.503,-402.25 236.152,-410.499 236.099,-399.904 229.503,-402.25"/>
</g>
<!-- Node92 -->
<g id="node10" class="node"><title>Node92</title>
<g id="a_node10"><a xlink:href="timebinmgr_8c.html#a1aaa55e4aa15066a753c96e8646e62be" target="_top" xlink:title="Dloga_interval_ti">
<polygon fill="white" stroke="black" points="62.0193,-211.471 62.0193,-230.471 151.019,-230.471 151.019,-211.471 62.0193,-211.471"/>
<text text-anchor="middle" x="106.519" y="-218.471" font-family="Helvetica,sans-Serif" font-size="10.00">Dloga_interval_ti</text>
</a>
</g>
</g>
<!-- Node91&#45;&gt;Node92 -->
<g id="edge11" class="edge"><title>Node91&#45;&gt;Node92</title>
<path fill="none" stroke="midnightblue" d="M203.728,-333.053C186.022,-312.638 144.249,-264.474 121.657,-238.425"/>
<polygon fill="midnightblue" stroke="midnightblue" points="124.247,-236.07 115.051,-230.808 118.959,-240.656 124.247,-236.07"/>
</g>
<!-- Node94 -->
<g id="node12" class="node"><title>Node94</title>
<g id="a_node12"><a xlink:href="system_8c.html#a14a8799b5e9e58e14107bad2fadc7e06" target="_top" xlink:title="get_random_number">
<polygon fill="white" stroke="black" points="76.8452,-0.5 76.8452,-19.5 181.845,-19.5 181.845,-0.5 76.8452,-0.5"/>
<text text-anchor="middle" x="129.345" y="-7.5" font-family="Helvetica,sans-Serif" font-size="10.00">get_random_number</text>
</a>
</g>
</g>
<!-- Node93&#45;&gt;Node94 -->
<g id="edge13" class="edge"><title>Node93&#45;&gt;Node94</title>
<path fill="none" stroke="midnightblue" d="M152.951,-66.9887C148.859,-57.1096 142.352,-41.4023 137.206,-28.9776"/>
<polygon fill="midnightblue" stroke="midnightblue" points="140.346,-27.4123 133.286,-19.5129 133.879,-30.0911 140.346,-27.4123"/>
</g>
<!-- Node96 -->
<g id="node14" class="node"><title>Node96</title>
<g id="a_node14"><a xlink:href="peano_8h.html#a2b98881a670e236ef744e3283ebe71a4" target="_top" xlink:title="peano_hilbert_key">
<polygon fill="white" stroke="black" points="302.271,-0.5 302.271,-19.5 397.271,-19.5 397.271,-0.5 302.271,-0.5"/>
<text text-anchor="middle" x="349.771" y="-7.5" font-family="Helvetica,sans-Serif" font-size="10.00">peano_hilbert_key</text>
</a>
</g>
</g>
<!-- Node95&#45;&gt;Node96 -->
<g id="edge15" class="edge"><title>Node95&#45;&gt;Node96</title>
<path fill="none" stroke="midnightblue" d="M326.165,-66.9887C330.257,-57.1096 336.764,-41.4023 341.91,-28.9776"/>
<polygon fill="midnightblue" stroke="midnightblue" points="345.237,-30.0911 345.83,-19.5129 338.77,-27.4123 345.237,-30.0911"/>
</g>
<!-- Node97&#45;&gt;Node84 -->
<g id="edge18" class="edge"><title>Node97&#45;&gt;Node84</title>
<path fill="none" stroke="midnightblue" d="M71.1809,-368.321C107.954,-379.625 168.822,-398.334 206.424,-409.893"/>
<polygon fill="midnightblue" stroke="midnightblue" points="205.786,-413.358 216.373,-412.951 207.843,-406.667 205.786,-413.358"/>
</g>
<!-- Node97&#45;&gt;Node92 -->
<g id="edge17" class="edge"><title>Node97&#45;&gt;Node92</title>
<path fill="none" stroke="midnightblue" d="M44.7839,-348.829C55.7628,-326.091 82.9235,-269.839 97.2816,-240.103"/>
<polygon fill="midnightblue" stroke="midnightblue" points="100.582,-241.316 101.779,-230.789 94.2788,-238.272 100.582,-241.316"/>
</g>
<!-- Node98&#45;&gt;Node85 -->
<g id="edge20" class="edge"><title>Node98&#45;&gt;Node85</title>
<path fill="none" stroke="midnightblue" d="M437.222,-202.937C430.237,-238.053 405.824,-360.789 396.218,-409.079"/>
<polygon fill="midnightblue" stroke="midnightblue" points="392.728,-408.684 394.21,-419.175 399.594,-410.05 392.728,-408.684"/>
</g>
</g>
</svg>
        <g id="navigator" transform="translate(0 0)" fill="#404254">
                <rect fill="#f2f5e9" fill-opacity="0.5" stroke="#606060" stroke-width=".5" x="0" y="0" width="60" height="60"/>
                <use id="zoomplus" xlink:href="#zoomPlus" x="17" y="9" onmousedown="handleZoom(evt,'in')"/>
                <use id="zoomminus" xlink:href="#zoomMin" x="42" y="9" onmousedown="handleZoom(evt,'out')"/>
                <use id="reset" xlink:href="#resetDef" x="30" y="36" onmousedown="handleReset()"/>
                <g id="arrowUp" xlink:href="#dirArrow" transform="translate(30 24)" onmousedown="handlePan(0,-1)">
                  <use xlink:href="#rim" fill="#404040">
                        <set attributeName="fill" to="#808080" begin="arrowUp.mouseover" end="arrowUp.mouseout"/>
                  </use>
                  <path fill="none" stroke="white" stroke-width="1.5" d="M0,-3.0v7 M-2.5,-0.5L0,-3.0L2.5,-0.5"/>
                </g>
                <g id="arrowRight" xlink:href="#dirArrow" transform="rotate(90) translate(36 -43)" onmousedown="handlePan(1,0)">
                  <use xlink:href="#rim" fill="#404040">
                        <set attributeName="fill" to="#808080" begin="arrowRight.mouseover" end="arrowRight.mouseout"/>
                  </use>
                  <path fill="none" stroke="white" stroke-width="1.5" d="M0,-3.0v7 M-2.5,-0.5L0,-3.0L2.5,-0.5"/>
                </g>
                <g id="arrowDown" xlink:href="#dirArrow" transform="rotate(180) translate(-30 -48)" onmousedown="handlePan(0,1)">
                  <use xlink:href="#rim" fill="#404040">
                        <set attributeName="fill" to="#808080" begin="arrowDown.mouseover" end="arrowDown.mouseout"/>
                  </use>
                  <path fill="none" stroke="white" stroke-width="1.5" d="M0,-3.0v7 M-2.5,-0.5L0,-3.0L2.5,-0.5"/>
                </g>
                <g id="arrowLeft" xlink:href="#dirArrow" transform="rotate(270) translate(-36 17)" onmousedown="handlePan(-1,0)">
                  <use xlink:href="#rim" fill="#404040">
                        <set attributeName="fill" to="#808080" begin="arrowLeft.mouseover" end="arrowLeft.mouseout"/>
                  </use>
                  <path fill="none" stroke="white" stroke-width="1.5" d="M0,-3.0v7 M-2.5,-0.5L0,-3.0L2.5,-0.5"/>
                </g>
        </g>
        <svg viewBox="0 0 15 15" width="100%" height="30px" preserveAspectRatio="xMaxYMin meet">
         <g id="arrow_out" transform="scale(0.3 0.3)">
          <a xlink:href="drift_8c_a4feabe018e5729864dcfd97f0515ecce_cgraph_org.svg" target="_base">
           <rect id="button" ry="5" rx="5" y="6" x="6" height="38" width="38"
                fill="#f2f5e9" fill-opacity="0.5" stroke="#606060" stroke-width="1.0"/>
           <path id="arrow"
             d="M 11.500037,31.436501 C 11.940474,20.09759 22.043105,11.32322 32.158766,21.979434 L 37.068811,17.246167 C 37.068811,17.246167 37.088388,32 37.088388,32 L 22.160133,31.978069 C 22.160133,31.978069 26.997745,27.140456 26.997745,27.140456 C 18.528582,18.264221 13.291696,25.230495 11.500037,31.436501 z"
             style="fill:#404040;"/>
          </a>
         </g>
        </svg>
</svg>
