<?xml version="1.0" encoding="UTF-8" standalone="no"?>
<!DOCTYPE svg PUBLIC "-//W3C//DTD SVG 1.1//EN"
 "http://www.w3.org/Graphics/SVG/1.1/DTD/svg11.dtd">
<!-- Generated by graphviz version 2.50.0 (0)
 -->
<!-- Title: drift_all_particles Pages: 1 -->
<svg width="1088pt" height="218pt"
 viewBox="0.00 0.00 1088.00 218.00" xmlns="http://www.w3.org/2000/svg" xmlns:xlink="http://www.w3.org/1999/xlink">
<g id="graph0" class="graph" transform="scale(1 1) rotate(0) translate(4 214)">
<title>drift_all_particles</title>
<polygon fill="white" stroke="transparent" points="-4,4 -4,-214 1084,-214 1084,4 -4,4"/>
<!-- Node1 -->
<g id="node1" class="node">
<title>Node1</title>
<g id="a_node1"><a xlink:title=" ">
<polygon fill="#bfbfbf" stroke="black" points="0,-76.5 0,-95.5 101,-95.5 101,-76.5 0,-76.5"/>
<text text-anchor="middle" x="50.5" y="-83.5" font-family="Helvetica,sans-Serif" font-size="10.00">drift_all_particles</text>
</a>
</g>
</g>
<!-- Node2 -->
<g id="node2" class="node">
<title>Node2</title>
<g id="a_node2"><a xlink:href="endrun_8c.html#ad963d7efdb9f10f7a2298c8ccd222ab0" target="_top" xlink:title=" ">
<polygon fill="white" stroke="black" points="340.5,-76.5 340.5,-95.5 390.5,-95.5 390.5,-76.5 340.5,-76.5"/>
<text text-anchor="middle" x="365.5" y="-83.5" font-family="Helvetica,sans-Serif" font-size="10.00">endrun</text>
</a>
</g>
</g>
<!-- Node1&#45;&gt;Node2 -->
<g id="edge1" class="edge">
<title>Node1&#45;&gt;Node2</title>
<path fill="none" stroke="midnightblue" d="M101.1,-86C165.06,-86 274.67,-86 330.16,-86"/>
<polygon fill="midnightblue" stroke="midnightblue" points="330.19,-89.5 340.19,-86 330.19,-82.5 330.19,-89.5"/>
</g>
<!-- Node6 -->
<g id="node6" class="node">
<title>Node6</title>
<g id="a_node6"><a xlink:href="timefac_8c.html#a4a608a436edf9737ebb7d4c06a142542" target="_top" xlink:title=" ">
<polygon fill="white" stroke="black" points="137,-133.5 137,-152.5 260,-152.5 260,-133.5 137,-133.5"/>
<text text-anchor="middle" x="198.5" y="-140.5" font-family="Helvetica,sans-Serif" font-size="10.00">get_exact_drift_factor</text>
</a>
</g>
</g>
<!-- Node1&#45;&gt;Node6 -->
<g id="edge5" class="edge">
<title>Node1&#45;&gt;Node6</title>
<path fill="none" stroke="midnightblue" d="M75.94,-95.54C99.94,-104.91 136.76,-119.29 163.59,-129.76"/>
<polygon fill="midnightblue" stroke="midnightblue" points="162.4,-133.05 172.98,-133.43 164.94,-126.53 162.4,-133.05"/>
</g>
<!-- Node17 -->
<g id="node17" class="node">
<title>Node17</title>
<g id="a_node17"><a xlink:href="drift_8c.html#afcd5522c5be796dbcb33e4e6d689ab3b" target="_top" xlink:title=" ">
<polygon fill="white" stroke="black" points="147.5,-38.5 147.5,-57.5 249.5,-57.5 249.5,-38.5 147.5,-38.5"/>
<text text-anchor="middle" x="198.5" y="-45.5" font-family="Helvetica,sans-Serif" font-size="10.00">real_drift_particle</text>
</a>
</g>
</g>
<!-- Node1&#45;&gt;Node17 -->
<g id="edge17" class="edge">
<title>Node1&#45;&gt;Node17</title>
<path fill="none" stroke="midnightblue" d="M88.34,-76.41C107.35,-71.46 130.73,-65.38 150.97,-60.11"/>
<polygon fill="midnightblue" stroke="midnightblue" points="152.13,-63.43 160.92,-57.52 150.36,-56.65 152.13,-63.43"/>
</g>
<!-- Node3 -->
<g id="node3" class="node">
<title>Node3</title>
<g id="a_node3"><a xlink:href="system_8c.html#a341c8d27bd6c7dde856566810b412b1f" target="_top" xlink:title=" ">
<polygon fill="white" stroke="black" points="484.5,-57.5 484.5,-76.5 563.5,-76.5 563.5,-57.5 484.5,-57.5"/>
<text text-anchor="middle" x="524" y="-64.5" font-family="Helvetica,sans-Serif" font-size="10.00">MPIU_Tracev</text>
</a>
</g>
</g>
<!-- Node2&#45;&gt;Node3 -->
<g id="edge2" class="edge">
<title>Node2&#45;&gt;Node3</title>
<path fill="none" stroke="midnightblue" d="M390.61,-83.07C412.83,-80.38 446.48,-76.29 474.29,-72.91"/>
<polygon fill="midnightblue" stroke="midnightblue" points="474.74,-76.39 484.24,-71.71 473.89,-69.44 474.74,-76.39"/>
</g>
<!-- Node5 -->
<g id="node5" class="node">
<title>Node5</title>
<g id="a_node5"><a xlink:href="endrun_8c.html#a1200f02a595ab7cbe17c9e36ff32af0f" target="_top" xlink:title=" ">
<polygon fill="white" stroke="black" points="476.5,-95.5 476.5,-114.5 571.5,-114.5 571.5,-95.5 476.5,-95.5"/>
<text text-anchor="middle" x="524" y="-102.5" font-family="Helvetica,sans-Serif" font-size="10.00">show_backtrace</text>
</a>
</g>
</g>
<!-- Node2&#45;&gt;Node5 -->
<g id="edge4" class="edge">
<title>Node2&#45;&gt;Node5</title>
<path fill="none" stroke="midnightblue" d="M390.61,-88.93C410.74,-91.37 440.26,-94.95 466.31,-98.12"/>
<polygon fill="midnightblue" stroke="midnightblue" points="466.13,-101.62 476.48,-99.35 466.97,-94.67 466.13,-101.62"/>
</g>
<!-- Node4 -->
<g id="node4" class="node">
<title>Node4</title>
<g id="a_node4"><a xlink:href="system_8c.html#a87108946670b4c3afbe846c6726675ff" target="_top" xlink:title=" ">
<polygon fill="white" stroke="black" points="632.5,-57.5 632.5,-76.5 682.5,-76.5 682.5,-57.5 632.5,-57.5"/>
<text text-anchor="middle" x="657.5" y="-64.5" font-family="Helvetica,sans-Serif" font-size="10.00">putline</text>
</a>
</g>
</g>
<!-- Node3&#45;&gt;Node4 -->
<g id="edge3" class="edge">
<title>Node3&#45;&gt;Node4</title>
<path fill="none" stroke="midnightblue" d="M563.74,-67C582.36,-67 604.48,-67 622.45,-67"/>
<polygon fill="midnightblue" stroke="midnightblue" points="622.49,-70.5 632.49,-67 622.49,-63.5 622.49,-70.5"/>
</g>
<!-- Node7 -->
<g id="node7" class="node">
<title>Node7</title>
<g id="a_node7"><a xlink:href="timefac_8c.html#a032ad4e64bea7e928dc97ae1c1e361d5" target="_top" xlink:title=" ">
<polygon fill="white" stroke="black" points="332.5,-171.5 332.5,-190.5 398.5,-190.5 398.5,-171.5 332.5,-171.5"/>
<text text-anchor="middle" x="365.5" y="-178.5" font-family="Helvetica,sans-Serif" font-size="10.00">drift_integ</text>
</a>
</g>
</g>
<!-- Node6&#45;&gt;Node7 -->
<g id="edge6" class="edge">
<title>Node6&#45;&gt;Node7</title>
<path fill="none" stroke="midnightblue" d="M241.14,-152.59C265.97,-158.31 297.42,-165.55 322.35,-171.29"/>
<polygon fill="midnightblue" stroke="midnightblue" points="321.72,-174.74 332.25,-173.57 323.29,-167.92 321.72,-174.74"/>
</g>
<!-- Node15 -->
<g id="node15" class="node">
<title>Node15</title>
<g id="a_node15"><a xlink:href="timefac_8c.html#af1450d3415f072175cac148407f31705" target="_top" xlink:title=" ">
<polygon fill="white" stroke="black" points="316.5,-133.5 316.5,-152.5 414.5,-152.5 414.5,-133.5 316.5,-133.5"/>
<text text-anchor="middle" x="365.5" y="-140.5" font-family="Helvetica,sans-Serif" font-size="10.00">get_exact_factor</text>
</a>
</g>
</g>
<!-- Node6&#45;&gt;Node15 -->
<g id="edge15" class="edge">
<title>Node6&#45;&gt;Node15</title>
<path fill="none" stroke="midnightblue" d="M260,-143C275.1,-143 291.25,-143 306.24,-143"/>
<polygon fill="midnightblue" stroke="midnightblue" points="306.4,-146.5 316.4,-143 306.4,-139.5 306.4,-146.5"/>
</g>
<!-- Node8 -->
<g id="node8" class="node">
<title>Node8</title>
<g id="a_node8"><a xlink:href="cosmology_8c.html#ab425f16e6fe06110e2fb4944065b81bb" target="_top" xlink:title=" ">
<polygon fill="white" stroke="black" points="476.5,-171.5 476.5,-190.5 571.5,-190.5 571.5,-171.5 476.5,-171.5"/>
<text text-anchor="middle" x="524" y="-178.5" font-family="Helvetica,sans-Serif" font-size="10.00">hubble_function</text>
</a>
</g>
</g>
<!-- Node7&#45;&gt;Node8 -->
<g id="edge7" class="edge">
<title>Node7&#45;&gt;Node8</title>
<path fill="none" stroke="midnightblue" d="M398.55,-181C418.01,-181 443.42,-181 466.2,-181"/>
<polygon fill="midnightblue" stroke="midnightblue" points="466.45,-184.5 476.45,-181 466.45,-177.5 466.45,-184.5"/>
</g>
<!-- Node9 -->
<g id="node9" class="node">
<title>Node9</title>
<g id="a_node9"><a xlink:href="omega__nu__single_8c.html#aca4b20af5bd369bcd096c670c27c6e36" target="_top" xlink:title=" ">
<polygon fill="white" stroke="black" points="613,-152.5 613,-171.5 702,-171.5 702,-152.5 613,-152.5"/>
<text text-anchor="middle" x="657.5" y="-159.5" font-family="Helvetica,sans-Serif" font-size="10.00">get_omega_nu</text>
</a>
</g>
</g>
<!-- Node8&#45;&gt;Node9 -->
<g id="edge8" class="edge">
<title>Node8&#45;&gt;Node9</title>
<path fill="none" stroke="midnightblue" d="M571.73,-174.25C581.81,-172.79 592.54,-171.24 602.85,-169.75"/>
<polygon fill="midnightblue" stroke="midnightblue" points="603.6,-173.18 612.99,-168.29 602.6,-166.25 603.6,-173.18"/>
</g>
<!-- Node14 -->
<g id="node14" class="node">
<title>Node14</title>
<g id="a_node14"><a xlink:href="cosmology_8c.html#a187e0106f302118344b027cf942347e0" target="_top" xlink:title=" ">
<polygon fill="white" stroke="black" points="622,-190.5 622,-209.5 693,-209.5 693,-190.5 622,-190.5"/>
<text text-anchor="middle" x="657.5" y="-197.5" font-family="Helvetica,sans-Serif" font-size="10.00">OmegaFLD</text>
</a>
</g>
</g>
<!-- Node8&#45;&gt;Node14 -->
<g id="edge14" class="edge">
<title>Node8&#45;&gt;Node14</title>
<path fill="none" stroke="midnightblue" d="M571.73,-187.75C584.78,-189.64 598.92,-191.68 611.85,-193.55"/>
<polygon fill="midnightblue" stroke="midnightblue" points="611.51,-197.04 621.91,-195 612.51,-190.11 611.51,-197.04"/>
</g>
<!-- Node10 -->
<g id="node10" class="node">
<title>Node10</title>
<g id="a_node10"><a xlink:href="omega__nu__single_8c.html#a5d81e97a54be82580201631d495bd694" target="_top" xlink:title=" ">
<polygon fill="white" stroke="black" points="738,-152.5 738,-171.5 788,-171.5 788,-152.5 738,-152.5"/>
<text text-anchor="middle" x="763" y="-159.5" font-family="Helvetica,sans-Serif" font-size="10.00">rho_nu</text>
</a>
</g>
</g>
<!-- Node9&#45;&gt;Node10 -->
<g id="edge9" class="edge">
<title>Node9&#45;&gt;Node10</title>
<path fill="none" stroke="midnightblue" d="M702.09,-162C710.72,-162 719.65,-162 727.9,-162"/>
<polygon fill="midnightblue" stroke="midnightblue" points="727.92,-165.5 737.92,-162 727.92,-158.5 727.92,-165.5"/>
</g>
<!-- Node11 -->
<g id="node11" class="node">
<title>Node11</title>
<g id="a_node11"><a xlink:href="omega__nu__single_8c.html#a5d053cc2c3fa75a3c357bbb99af5de62" target="_top" xlink:title=" ">
<polygon fill="white" stroke="black" points="824,-171.5 824,-190.5 915,-190.5 915,-171.5 824,-171.5"/>
<text text-anchor="middle" x="869.5" y="-178.5" font-family="Helvetica,sans-Serif" font-size="10.00">non_rel_rho_nu</text>
</a>
</g>
</g>
<!-- Node10&#45;&gt;Node11 -->
<g id="edge10" class="edge">
<title>Node10&#45;&gt;Node11</title>
<path fill="none" stroke="midnightblue" d="M788.24,-166.41C795.95,-167.81 804.81,-169.42 813.78,-171.05"/>
<polygon fill="midnightblue" stroke="midnightblue" points="813.41,-174.54 823.88,-172.89 814.67,-167.65 813.41,-174.54"/>
</g>
<!-- Node13 -->
<g id="node13" class="node">
<title>Node13</title>
<g id="a_node13"><a xlink:href="omega__nu__single_8c.html#ac447b6c2f0363d19b68b2ce9f29009c4" target="_top" xlink:title=" ">
<polygon fill="white" stroke="black" points="835.5,-133.5 835.5,-152.5 903.5,-152.5 903.5,-133.5 835.5,-133.5"/>
<text text-anchor="middle" x="869.5" y="-140.5" font-family="Helvetica,sans-Serif" font-size="10.00">rel_rho_nu</text>
</a>
</g>
</g>
<!-- Node10&#45;&gt;Node13 -->
<g id="edge12" class="edge">
<title>Node10&#45;&gt;Node13</title>
<path fill="none" stroke="midnightblue" d="M788.24,-157.59C799.27,-155.59 812.68,-153.15 825.35,-150.85"/>
<polygon fill="midnightblue" stroke="midnightblue" points="826.08,-154.27 835.29,-149.04 824.83,-147.38 826.08,-154.27"/>
</g>
<!-- Node12 -->
<g id="node12" class="node">
<title>Node12</title>
<g id="a_node12"><a xlink:href="omega__nu__single_8c.html#acf81fc868c0deb61c3541958dd6114be" target="_top" xlink:title=" ">
<polygon fill="white" stroke="black" points="951,-152.5 951,-171.5 1080,-171.5 1080,-152.5 951,-152.5"/>
<text text-anchor="middle" x="1015.5" y="-159.5" font-family="Helvetica,sans-Serif" font-size="10.00">get_rho_nu_conversion</text>
</a>
</g>
</g>
<!-- Node11&#45;&gt;Node12 -->
<g id="edge11" class="edge">
<title>Node11&#45;&gt;Node12</title>
<path fill="none" stroke="midnightblue" d="M915.27,-175.09C923.49,-174.01 932.26,-172.85 941.07,-171.69"/>
<polygon fill="midnightblue" stroke="midnightblue" points="941.53,-175.16 950.99,-170.38 940.62,-168.22 941.53,-175.16"/>
</g>
<!-- Node13&#45;&gt;Node12 -->
<g id="edge13" class="edge">
<title>Node13&#45;&gt;Node12</title>
<path fill="none" stroke="midnightblue" d="M903.54,-147.36C914.72,-148.83 927.7,-150.55 940.75,-152.27"/>
<polygon fill="midnightblue" stroke="midnightblue" points="940.35,-155.75 950.72,-153.58 941.26,-148.81 940.35,-155.75"/>
</g>
<!-- Node16 -->
<g id="node16" class="node">
<title>Node16</title>
<g id="a_node16"><a xlink:href="test__timefac_8c.html#a5b77523ed91eb413cb28b12d8c2ceb46" target="_top" xlink:title=" ">
<polygon fill="white" stroke="black" points="485,-133.5 485,-152.5 563,-152.5 563,-133.5 485,-133.5"/>
<text text-anchor="middle" x="524" y="-140.5" font-family="Helvetica,sans-Serif" font-size="10.00">loga_from_ti</text>
</a>
</g>
</g>
<!-- Node15&#45;&gt;Node16 -->
<g id="edge16" class="edge">
<title>Node15&#45;&gt;Node16</title>
<path fill="none" stroke="midnightblue" d="M414.73,-143C433.75,-143 455.56,-143 474.6,-143"/>
<polygon fill="midnightblue" stroke="midnightblue" points="474.85,-146.5 484.85,-143 474.85,-139.5 474.85,-146.5"/>
</g>
<!-- Node17&#45;&gt;Node2 -->
<g id="edge19" class="edge">
<title>Node17&#45;&gt;Node2</title>
<path fill="none" stroke="midnightblue" d="M241.14,-57.59C268.78,-63.96 304.61,-72.21 330.53,-78.18"/>
<polygon fill="midnightblue" stroke="midnightblue" points="329.76,-81.59 340.29,-80.42 331.33,-74.77 329.76,-81.59"/>
</g>
<!-- Node18 -->
<g id="node18" class="node">
<title>Node18</title>
<g id="a_node18"><a xlink:href="blackhole_8c.html#a0b1d65f6ebc375cda4a8d541a0780861" target="_top" xlink:title=" ">
<polygon fill="white" stroke="black" points="296,-0.5 296,-19.5 435,-19.5 435,-0.5 296,-0.5"/>
<text text-anchor="middle" x="365.5" y="-7.5" font-family="Helvetica,sans-Serif" font-size="10.00">BHGetRepositionEnabled</text>
</a>
</g>
</g>
<!-- Node17&#45;&gt;Node18 -->
<g id="edge18" class="edge">
<title>Node17&#45;&gt;Node18</title>
<path fill="none" stroke="midnightblue" d="M241.14,-38.41C263.01,-33.37 290.01,-27.16 313.16,-21.82"/>
<polygon fill="midnightblue" stroke="midnightblue" points="314.2,-25.18 323.16,-19.52 312.63,-18.35 314.2,-25.18"/>
</g>
<!-- Node19 -->
<g id="node19" class="node">
<title>Node19</title>
<g id="a_node19"><a xlink:href="peano_8h.html#a48e081711b7df745b6222e6e62e081ed" target="_top" xlink:title=" ">
<polygon fill="white" stroke="black" points="340.5,-38.5 340.5,-57.5 390.5,-57.5 390.5,-38.5 340.5,-38.5"/>
<text text-anchor="middle" x="365.5" y="-45.5" font-family="Helvetica,sans-Serif" font-size="10.00">PEANO</text>
</a>
</g>
</g>
<!-- Node17&#45;&gt;Node19 -->
<g id="edge20" class="edge">
<title>Node17&#45;&gt;Node19</title>
<path fill="none" stroke="midnightblue" d="M249.9,-48C275.87,-48 306.87,-48 330.08,-48"/>
<polygon fill="midnightblue" stroke="midnightblue" points="330.14,-51.5 340.14,-48 330.14,-44.5 330.14,-51.5"/>
</g>
<!-- Node20 -->
<g id="node20" class="node">
<title>Node20</title>
<g id="a_node20"><a xlink:href="peano_8h.html#a2b98881a670e236ef744e3283ebe71a4" target="_top" xlink:title=" ">
<polygon fill="white" stroke="black" points="471,-19.5 471,-38.5 577,-38.5 577,-19.5 471,-19.5"/>
<text text-anchor="middle" x="524" y="-26.5" font-family="Helvetica,sans-Serif" font-size="10.00">peano_hilbert_key</text>
</a>
</g>
</g>
<!-- Node19&#45;&gt;Node20 -->
<g id="edge21" class="edge">
<title>Node19&#45;&gt;Node20</title>
<path fill="none" stroke="midnightblue" d="M390.61,-45.07C409.37,-42.79 436.29,-39.53 460.95,-36.53"/>
<polygon fill="midnightblue" stroke="midnightblue" points="461.49,-39.99 470.99,-35.31 460.64,-33.05 461.49,-39.99"/>
</g>
</g>
</svg>
