<?xml version="1.0" encoding="UTF-8" standalone="no"?>
<!DOCTYPE svg PUBLIC "-//W3C//DTD SVG 1.1//EN"
 "http://www.w3.org/Graphics/SVG/1.1/DTD/svg11.dtd">
<!-- Generated by graphviz version 2.38.0 (20140413.2041)
 -->
<!-- Title: init_stacktrace Pages: 1 -->
<svg width="325pt" height="28pt"
 viewBox="0.00 0.00 325.00 28.00" xmlns="http://www.w3.org/2000/svg" xmlns:xlink="http://www.w3.org/1999/xlink">
<g id="graph0" class="graph" transform="scale(1 1) rotate(0) translate(4 24)">
<title>init_stacktrace</title>
<polygon fill="white" stroke="none" points="-4,4 -4,-24 321,-24 321,4 -4,4"/>
<!-- Node202 -->
<g id="node1" class="node"><title>Node202</title>
<polygon fill="#bfbfbf" stroke="black" points="0,-0.5 0,-19.5 80,-19.5 80,-0.5 0,-0.5"/>
<text text-anchor="middle" x="40" y="-7.5" font-family="Helvetica,sans-Serif" font-size="10.00">init_stacktrace</text>
</g>
<!-- Node203 -->
<g id="node2" class="node"><title>Node203</title>
<g id="a_node2"><a xlink:href="endrun_8c.html#aac222a0612f300474b17f748f0ebbca9" target="_top" xlink:title="OsSigHandler">
<polygon fill="white" stroke="black" points="116,-0.5 116,-19.5 193,-19.5 193,-0.5 116,-0.5"/>
<text text-anchor="middle" x="154.5" y="-7.5" font-family="Helvetica,sans-Serif" font-size="10.00">OsSigHandler</text>
</a>
</g>
</g>
<!-- Node202&#45;&gt;Node203 -->
<g id="edge1" class="edge"><title>Node202&#45;&gt;Node203</title>
<path fill="none" stroke="midnightblue" d="M80.0313,-10C88.2427,-10 96.996,-10 105.493,-10"/>
<polygon fill="midnightblue" stroke="midnightblue" points="105.676,-13.5001 115.676,-10 105.676,-6.5001 105.676,-13.5001"/>
</g>
<!-- Node204 -->
<g id="node3" class="node"><title>Node204</title>
<g id="a_node3"><a xlink:href="endrun_8c.html#a1200f02a595ab7cbe17c9e36ff32af0f" target="_top" xlink:title="show_backtrace">
<polygon fill="white" stroke="black" points="229,-0.5 229,-19.5 317,-19.5 317,-0.5 229,-0.5"/>
<text text-anchor="middle" x="273" y="-7.5" font-family="Helvetica,sans-Serif" font-size="10.00">show_backtrace</text>
</a>
</g>
</g>
<!-- Node203&#45;&gt;Node204 -->
<g id="edge2" class="edge"><title>Node203&#45;&gt;Node204</title>
<path fill="none" stroke="midnightblue" d="M193.003,-10C201.226,-10 210.083,-10 218.79,-10"/>
<polygon fill="midnightblue" stroke="midnightblue" points="218.894,-13.5001 228.894,-10 218.894,-6.5001 218.894,-13.5001"/>
</g>
</g>
</svg>
