<?xml version="1.0" encoding="UTF-8" standalone="no"?>
<!DOCTYPE svg PUBLIC "-//W3C//DTD SVG 1.1//EN"
 "http://www.w3.org/Graphics/SVG/1.1/DTD/svg11.dtd">
<!-- Generated by graphviz version 2.38.0 (20140413.2041)
 -->
<!-- Title: endrun.c Pages: 1 -->
<svg width="204pt" height="171pt"
 viewBox="0.00 0.00 203.58 170.53" xmlns="http://www.w3.org/2000/svg" xmlns:xlink="http://www.w3.org/1999/xlink">
<g id="graph0" class="graph" transform="scale(1 1) rotate(0) translate(4 166.534)">
<title>endrun.c</title>
<polygon fill="white" stroke="none" points="-4,4 -4,-166.534 199.583,-166.534 199.583,4 -4,4"/>
<!-- Node0 -->
<g id="node1" class="node"><title>Node0</title>
<polygon fill="#bfbfbf" stroke="black" points="68.5,-71.7671 68.5,-90.7671 122.5,-90.7671 122.5,-71.7671 68.5,-71.7671"/>
<text text-anchor="middle" x="95.5" y="-78.7671" font-family="Helvetica,sans-Serif" font-size="10.00">endrun.c</text>
</g>
<!-- Node1 -->
<g id="node2" class="node"><title>Node1</title>
<polygon fill="white" stroke="#bfbfbf" points="144.083,-92.0519 144.083,-111.052 185.083,-111.052 185.083,-92.0519 144.083,-92.0519"/>
<text text-anchor="middle" x="164.583" y="-99.0519" font-family="Helvetica,sans-Serif" font-size="10.00">mpi.h</text>
</g>
<!-- Node0&#45;&gt;Node1 -->
<g id="edge1" class="edge"><title>Node0&#45;&gt;Node1</title>
<path fill="none" stroke="midnightblue" d="M122.804,-89.2842C126.49,-90.3667 130.292,-91.483 134.031,-92.5808"/>
<polygon fill="midnightblue" stroke="midnightblue" points="133.076,-95.9481 143.657,-95.4073 135.048,-89.2317 133.076,-95.9481"/>
</g>
<!-- Node2 -->
<g id="node3" class="node"><title>Node2</title>
<polygon fill="white" stroke="#bfbfbf" points="119.65,-126.181 119.65,-145.181 165.65,-145.181 165.65,-126.181 119.65,-126.181"/>
<text text-anchor="middle" x="142.65" y="-133.181" font-family="Helvetica,sans-Serif" font-size="10.00">stdio.h</text>
</g>
<!-- Node0&#45;&gt;Node2 -->
<g id="edge2" class="edge"><title>Node0&#45;&gt;Node2</title>
<path fill="none" stroke="midnightblue" d="M103.929,-90.9953C110.5,-98.5783 119.793,-109.303 127.628,-118.345"/>
<polygon fill="midnightblue" stroke="midnightblue" points="125.1,-120.772 134.293,-126.037 130.39,-116.188 125.1,-120.772"/>
</g>
<!-- Node3 -->
<g id="node4" class="node"><title>Node3</title>
<polygon fill="white" stroke="#bfbfbf" points="81.7467,-143.034 81.7467,-162.034 129.747,-162.034 129.747,-143.034 81.7467,-143.034"/>
<text text-anchor="middle" x="105.747" y="-150.034" font-family="Helvetica,sans-Serif" font-size="10.00">stdlib.h</text>
</g>
<!-- Node0&#45;&gt;Node3 -->
<g id="edge3" class="edge"><title>Node0&#45;&gt;Node3</title>
<path fill="none" stroke="midnightblue" d="M96.8819,-90.8785C98.4164,-101.551 100.936,-119.072 102.897,-132.714"/>
<polygon fill="midnightblue" stroke="midnightblue" points="99.4333,-133.218 104.321,-142.618 106.362,-132.222 99.4333,-133.218"/>
</g>
<!-- Node4 -->
<g id="node5" class="node"><title>Node4</title>
<polygon fill="white" stroke="#bfbfbf" points="39.5901,-137.261 39.5901,-156.261 91.5901,-156.261 91.5901,-137.261 39.5901,-137.261"/>
<text text-anchor="middle" x="65.5901" y="-144.261" font-family="Helvetica,sans-Serif" font-size="10.00">stdarg.h</text>
</g>
<!-- Node0&#45;&gt;Node4 -->
<g id="edge4" class="edge"><title>Node0&#45;&gt;Node4</title>
<path fill="none" stroke="midnightblue" d="M91.0867,-90.9309C86.6688,-100.605 79.7535,-115.747 74.2389,-127.823"/>
<polygon fill="midnightblue" stroke="midnightblue" points="70.992,-126.507 70.0215,-137.057 77.3595,-129.415 70.992,-126.507"/>
</g>
<!-- Node5 -->
<g id="node6" class="node"><title>Node5</title>
<polygon fill="white" stroke="#bfbfbf" points="10.4297,-110.693 10.4297,-129.693 59.4297,-129.693 59.4297,-110.693 10.4297,-110.693"/>
<text text-anchor="middle" x="34.9297" y="-117.693" font-family="Helvetica,sans-Serif" font-size="10.00">string.h</text>
</g>
<!-- Node0&#45;&gt;Node5 -->
<g id="edge5" class="edge"><title>Node0&#45;&gt;Node5</title>
<path fill="none" stroke="midnightblue" d="M80.5276,-90.8893C73.7795,-95.2261 65.6549,-100.447 58.1447,-105.274"/>
<polygon fill="midnightblue" stroke="midnightblue" points="56.2502,-102.331 49.7299,-110.682 60.0348,-108.22 56.2502,-102.331"/>
</g>
<!-- Node6 -->
<g id="node7" class="node"><title>Node6</title>
<polygon fill="white" stroke="#bfbfbf" points="-3.55271e-15,-71.7671 -3.55271e-15,-90.7671 47,-90.7671 47,-71.7671 -3.55271e-15,-71.7671"/>
<text text-anchor="middle" x="23.5" y="-78.7671" font-family="Helvetica,sans-Serif" font-size="10.00">errno.h</text>
</g>
<!-- Node0&#45;&gt;Node6 -->
<g id="edge6" class="edge"><title>Node0&#45;&gt;Node6</title>
<path fill="none" stroke="midnightblue" d="M68.2799,-81.2671C64.7481,-81.2671 61.0963,-81.2671 57.472,-81.2671"/>
<polygon fill="midnightblue" stroke="midnightblue" points="57.4531,-77.7672 47.4531,-81.2671 57.453,-84.7672 57.4531,-77.7672"/>
</g>
<!-- Node7 -->
<g id="node8" class="node"><title>Node7</title>
<g id="a_node8"><a xlink:href="endrun_8h.html" target="_top" xlink:title="endrun.h">
<polygon fill="white" stroke="black" points="7.92975,-32.841 7.92975,-51.841 61.9297,-51.841 61.9297,-32.841 7.92975,-32.841"/>
<text text-anchor="middle" x="34.9297" y="-39.841" font-family="Helvetica,sans-Serif" font-size="10.00">endrun.h</text>
</a>
</g>
</g>
<!-- Node0&#45;&gt;Node7 -->
<g id="edge7" class="edge"><title>Node0&#45;&gt;Node7</title>
<path fill="none" stroke="midnightblue" d="M80.5276,-71.6449C73.7795,-67.3082 65.6549,-62.0869 58.1447,-57.2604"/>
<polygon fill="midnightblue" stroke="midnightblue" points="60.0348,-54.3146 49.7299,-51.8525 56.2502,-60.2034 60.0348,-54.3146"/>
</g>
<!-- Node8 -->
<g id="node9" class="node"><title>Node8</title>
<polygon fill="white" stroke="#bfbfbf" points="40.0901,-6.27364 40.0901,-25.2736 91.0901,-25.2736 91.0901,-6.27364 40.0901,-6.27364"/>
<text text-anchor="middle" x="65.5901" y="-13.2736" font-family="Helvetica,sans-Serif" font-size="10.00">unistd.h</text>
</g>
<!-- Node0&#45;&gt;Node8 -->
<g id="edge8" class="edge"><title>Node0&#45;&gt;Node8</title>
<path fill="none" stroke="midnightblue" d="M91.0867,-71.6034C86.6688,-61.9294 79.7535,-46.7872 74.2389,-34.7118"/>
<polygon fill="midnightblue" stroke="midnightblue" points="77.3595,-33.1194 70.0215,-25.4771 70.992,-36.0274 77.3595,-33.1194"/>
</g>
<!-- Node9 -->
<g id="node10" class="node"><title>Node9</title>
<polygon fill="white" stroke="#bfbfbf" points="71.7467,-0.5 71.7467,-19.5 139.747,-19.5 139.747,-0.5 71.7467,-0.5"/>
<text text-anchor="middle" x="105.747" y="-7.5" font-family="Helvetica,sans-Serif" font-size="10.00">sys/types.h</text>
</g>
<!-- Node0&#45;&gt;Node9 -->
<g id="edge9" class="edge"><title>Node0&#45;&gt;Node9</title>
<path fill="none" stroke="midnightblue" d="M96.8819,-71.6557C98.4164,-60.983 100.936,-43.4623 102.897,-29.8204"/>
<polygon fill="midnightblue" stroke="midnightblue" points="106.362,-30.3128 104.321,-19.9164 99.4333,-29.3165 106.362,-30.3128"/>
</g>
<!-- Node10 -->
<g id="node11" class="node"><title>Node10</title>
<polygon fill="white" stroke="#bfbfbf" points="111.65,-17.3532 111.65,-36.3532 173.65,-36.3532 173.65,-17.3532 111.65,-17.3532"/>
<text text-anchor="middle" x="142.65" y="-24.3532" font-family="Helvetica,sans-Serif" font-size="10.00">sys/wait.h</text>
</g>
<!-- Node0&#45;&gt;Node10 -->
<g id="edge10" class="edge"><title>Node0&#45;&gt;Node10</title>
<path fill="none" stroke="midnightblue" d="M103.929,-71.539C110.5,-63.956 119.793,-53.2314 127.628,-44.1895"/>
<polygon fill="midnightblue" stroke="midnightblue" points="130.39,-46.3466 134.293,-36.4971 125.1,-41.7626 130.39,-46.3466"/>
</g>
<!-- Node11 -->
<g id="node12" class="node"><title>Node11</title>
<polygon fill="white" stroke="#bfbfbf" points="133.583,-51.4824 133.583,-70.4824 195.583,-70.4824 195.583,-51.4824 133.583,-51.4824"/>
<text text-anchor="middle" x="164.583" y="-58.4824" font-family="Helvetica,sans-Serif" font-size="10.00">execinfo.h</text>
</g>
<!-- Node0&#45;&gt;Node11 -->
<g id="edge11" class="edge"><title>Node0&#45;&gt;Node11</title>
<path fill="none" stroke="midnightblue" d="M122.804,-73.2501C123.02,-73.1864 123.238,-73.1226 123.455,-73.0587"/>
<polygon fill="midnightblue" stroke="midnightblue" points="124.761,-76.323 133.37,-70.1474 122.789,-69.6066 124.761,-76.323"/>
</g>
</g>
</svg>
