<?xml version="1.0" encoding="UTF-8" standalone="no"?>
<!DOCTYPE svg PUBLIC "-//W3C//DTD SVG 1.1//EN"
 "http://www.w3.org/Graphics/SVG/1.1/DTD/svg11.dtd">
<!-- Generated by graphviz version 2.50.0 (0)
 -->
<!-- Title: libgadget/utils/endrun.c Pages: 1 -->
<svg width="856pt" height="140pt"
 viewBox="0.00 0.00 855.50 140.00" xmlns="http://www.w3.org/2000/svg" xmlns:xlink="http://www.w3.org/1999/xlink">
<g id="graph0" class="graph" transform="scale(1 1) rotate(0) translate(4 136)">
<title>libgadget/utils/endrun.c</title>
<polygon fill="white" stroke="transparent" points="-4,4 -4,-136 851.5,-136 851.5,4 -4,4"/>
<!-- Node1 -->
<g id="node1" class="node">
<title>Node1</title>
<g id="a_node1"><a xlink:title=" ">
<polygon fill="#bfbfbf" stroke="black" points="310.5,-112.5 310.5,-131.5 441.5,-131.5 441.5,-112.5 310.5,-112.5"/>
<text text-anchor="middle" x="376" y="-119.5" font-family="Helvetica,sans-Serif" font-size="10.00">libgadget/utils/endrun.c</text>
</a>
</g>
</g>
<!-- Node2 -->
<g id="node2" class="node">
<title>Node2</title>
<g id="a_node2"><a xlink:title=" ">
<polygon fill="white" stroke="#bfbfbf" points="0,-0.5 0,-19.5 44,-19.5 44,-0.5 0,-0.5"/>
<text text-anchor="middle" x="22" y="-7.5" font-family="Helvetica,sans-Serif" font-size="10.00">mpi.h</text>
</a>
</g>
</g>
<!-- Node1&#45;&gt;Node2 -->
<g id="edge1" class="edge">
<title>Node1&#45;&gt;Node2</title>
<path fill="none" stroke="midnightblue" d="M310.27,-119.75C226.16,-116.87 86.6,-107.36 47,-76 32.95,-64.87 26.79,-44.84 24.09,-29.95"/>
<polygon fill="midnightblue" stroke="midnightblue" points="27.52,-29.19 22.63,-19.79 20.59,-30.19 27.52,-29.19"/>
</g>
<!-- Node3 -->
<g id="node3" class="node">
<title>Node3</title>
<g id="a_node3"><a xlink:title=" ">
<polygon fill="white" stroke="#bfbfbf" points="246,-56.5 246,-75.5 296,-75.5 296,-56.5 246,-56.5"/>
<text text-anchor="middle" x="271" y="-63.5" font-family="Helvetica,sans-Serif" font-size="10.00">stdio.h</text>
</a>
</g>
</g>
<!-- Node1&#45;&gt;Node3 -->
<g id="edge2" class="edge">
<title>Node1&#45;&gt;Node3</title>
<path fill="none" stroke="midnightblue" d="M359.13,-112.32C342.29,-103.66 316.19,-90.24 296.76,-80.25"/>
<polygon fill="midnightblue" stroke="midnightblue" points="298.32,-77.12 287.83,-75.65 295.12,-83.34 298.32,-77.12"/>
</g>
<!-- Node4 -->
<g id="node4" class="node">
<title>Node4</title>
<g id="a_node4"><a xlink:title=" ">
<polygon fill="white" stroke="#bfbfbf" points="314.5,-56.5 314.5,-75.5 367.5,-75.5 367.5,-56.5 314.5,-56.5"/>
<text text-anchor="middle" x="341" y="-63.5" font-family="Helvetica,sans-Serif" font-size="10.00">stdlib.h</text>
</a>
</g>
</g>
<!-- Node1&#45;&gt;Node4 -->
<g id="edge3" class="edge">
<title>Node1&#45;&gt;Node4</title>
<path fill="none" stroke="midnightblue" d="M370.22,-112.08C365.33,-104.53 358.17,-93.49 352.17,-84.23"/>
<polygon fill="midnightblue" stroke="midnightblue" points="355.05,-82.24 346.67,-75.75 349.17,-86.05 355.05,-82.24"/>
</g>
<!-- Node5 -->
<g id="node5" class="node">
<title>Node5</title>
<g id="a_node5"><a xlink:title=" ">
<polygon fill="white" stroke="#bfbfbf" points="134,-0.5 134,-19.5 190,-19.5 190,-0.5 134,-0.5"/>
<text text-anchor="middle" x="162" y="-7.5" font-family="Helvetica,sans-Serif" font-size="10.00">stdarg.h</text>
</a>
</g>
</g>
<!-- Node1&#45;&gt;Node5 -->
<g id="edge4" class="edge">
<title>Node1&#45;&gt;Node5</title>
<path fill="none" stroke="midnightblue" d="M310.41,-115.51C255.98,-109.47 184.61,-97.62 166,-76 155.29,-63.56 155.44,-44.32 157.58,-30"/>
<polygon fill="midnightblue" stroke="midnightblue" points="161.09,-30.27 159.55,-19.79 154.22,-28.95 161.09,-30.27"/>
</g>
<!-- Node6 -->
<g id="node6" class="node">
<title>Node6</title>
<g id="a_node6"><a xlink:href="string_8h.html" target="_top" xlink:title=" ">
<polygon fill="white" stroke="black" points="174.5,-56.5 174.5,-75.5 227.5,-75.5 227.5,-56.5 174.5,-56.5"/>
<text text-anchor="middle" x="201" y="-63.5" font-family="Helvetica,sans-Serif" font-size="10.00">string.h</text>
</a>
</g>
</g>
<!-- Node1&#45;&gt;Node6 -->
<g id="edge5" class="edge">
<title>Node1&#45;&gt;Node6</title>
<path fill="none" stroke="midnightblue" d="M348.27,-112.44C318.31,-103.2 270.45,-88.43 237.46,-78.25"/>
<polygon fill="midnightblue" stroke="midnightblue" points="238.33,-74.85 227.74,-75.25 236.26,-81.54 238.33,-74.85"/>
</g>
<!-- Node7 -->
<g id="node7" class="node">
<title>Node7</title>
<g id="a_node7"><a xlink:title=" ">
<polygon fill="white" stroke="#bfbfbf" points="385.5,-56.5 385.5,-75.5 436.5,-75.5 436.5,-56.5 385.5,-56.5"/>
<text text-anchor="middle" x="411" y="-63.5" font-family="Helvetica,sans-Serif" font-size="10.00">errno.h</text>
</a>
</g>
</g>
<!-- Node1&#45;&gt;Node7 -->
<g id="edge7" class="edge">
<title>Node1&#45;&gt;Node7</title>
<path fill="none" stroke="midnightblue" d="M381.78,-112.08C386.67,-104.53 393.83,-93.49 399.83,-84.23"/>
<polygon fill="midnightblue" stroke="midnightblue" points="402.83,-86.05 405.33,-75.75 396.95,-82.24 402.83,-86.05"/>
</g>
<!-- Node8 -->
<g id="node8" class="node">
<title>Node8</title>
<g id="a_node8"><a xlink:href="endrun_8h.html" target="_top" xlink:title=" ">
<polygon fill="white" stroke="black" points="454.5,-56.5 454.5,-75.5 513.5,-75.5 513.5,-56.5 454.5,-56.5"/>
<text text-anchor="middle" x="484" y="-63.5" font-family="Helvetica,sans-Serif" font-size="10.00">endrun.h</text>
</a>
</g>
</g>
<!-- Node1&#45;&gt;Node8 -->
<g id="edge8" class="edge">
<title>Node1&#45;&gt;Node8</title>
<path fill="none" stroke="midnightblue" d="M393.35,-112.32C410.67,-103.66 437.52,-90.24 457.5,-80.25"/>
<polygon fill="midnightblue" stroke="midnightblue" points="459.31,-83.26 466.69,-75.65 456.18,-77 459.31,-83.26"/>
</g>
<!-- Node9 -->
<g id="node9" class="node">
<title>Node9</title>
<g id="a_node9"><a xlink:href="system_8h.html" target="_top" xlink:title=" ">
<polygon fill="white" stroke="black" points="56,-56.5 56,-75.5 118,-75.5 118,-56.5 56,-56.5"/>
<text text-anchor="middle" x="87" y="-63.5" font-family="Helvetica,sans-Serif" font-size="10.00">system.h</text>
</a>
</g>
</g>
<!-- Node1&#45;&gt;Node9 -->
<g id="edge9" class="edge">
<title>Node1&#45;&gt;Node9</title>
<path fill="none" stroke="midnightblue" d="M328.73,-112.5C279.54,-103.6 200.32,-89.13 132,-76 130.9,-75.79 129.79,-75.58 128.67,-75.36"/>
<polygon fill="midnightblue" stroke="midnightblue" points="128.95,-71.84 118.46,-73.35 127.6,-78.71 128.95,-71.84"/>
</g>
<!-- Node11 -->
<g id="node11" class="node">
<title>Node11</title>
<g id="a_node11"><a xlink:title=" ">
<polygon fill="white" stroke="#bfbfbf" points="532,-56.5 532,-75.5 588,-75.5 588,-56.5 532,-56.5"/>
<text text-anchor="middle" x="560" y="-63.5" font-family="Helvetica,sans-Serif" font-size="10.00">unistd.h</text>
</a>
</g>
</g>
<!-- Node1&#45;&gt;Node11 -->
<g id="edge13" class="edge">
<title>Node1&#45;&gt;Node11</title>
<path fill="none" stroke="midnightblue" d="M405.16,-112.44C436.79,-103.16 487.41,-88.3 522.11,-78.12"/>
<polygon fill="midnightblue" stroke="midnightblue" points="523.28,-81.43 531.89,-75.25 521.31,-74.71 523.28,-81.43"/>
</g>
<!-- Node12 -->
<g id="node12" class="node">
<title>Node12</title>
<g id="a_node12"><a xlink:title=" ">
<polygon fill="white" stroke="#bfbfbf" points="606,-56.5 606,-75.5 678,-75.5 678,-56.5 606,-56.5"/>
<text text-anchor="middle" x="642" y="-63.5" font-family="Helvetica,sans-Serif" font-size="10.00">sys/types.h</text>
</a>
</g>
</g>
<!-- Node1&#45;&gt;Node12 -->
<g id="edge14" class="edge">
<title>Node1&#45;&gt;Node12</title>
<path fill="none" stroke="midnightblue" d="M418.15,-112.44C466.53,-102.62 545.63,-86.56 595.69,-76.4"/>
<polygon fill="midnightblue" stroke="midnightblue" points="596.5,-79.81 605.61,-74.39 595.11,-72.95 596.5,-79.81"/>
</g>
<!-- Node13 -->
<g id="node13" class="node">
<title>Node13</title>
<g id="a_node13"><a xlink:title=" ">
<polygon fill="white" stroke="#bfbfbf" points="696,-56.5 696,-75.5 762,-75.5 762,-56.5 696,-56.5"/>
<text text-anchor="middle" x="729" y="-63.5" font-family="Helvetica,sans-Serif" font-size="10.00">sys/wait.h</text>
</a>
</g>
</g>
<!-- Node1&#45;&gt;Node13 -->
<g id="edge15" class="edge">
<title>Node1&#45;&gt;Node13</title>
<path fill="none" stroke="midnightblue" d="M441.73,-112.8C502.54,-104.91 595.67,-92.08 685.48,-76.18"/>
<polygon fill="midnightblue" stroke="midnightblue" points="686.34,-79.58 695.57,-74.38 685.11,-72.69 686.34,-79.58"/>
</g>
<!-- Node14 -->
<g id="node14" class="node">
<title>Node14</title>
<g id="a_node14"><a xlink:title=" ">
<polygon fill="white" stroke="#bfbfbf" points="780.5,-56.5 780.5,-75.5 847.5,-75.5 847.5,-56.5 780.5,-56.5"/>
<text text-anchor="middle" x="814" y="-63.5" font-family="Helvetica,sans-Serif" font-size="10.00">execinfo.h</text>
</a>
</g>
</g>
<!-- Node1&#45;&gt;Node14 -->
<g id="edge16" class="edge">
<title>Node1&#45;&gt;Node14</title>
<path fill="none" stroke="midnightblue" d="M441.6,-115.41C518.11,-108.46 648.57,-95.31 770.38,-75.96"/>
<polygon fill="midnightblue" stroke="midnightblue" points="770.94,-79.41 780.25,-74.37 769.83,-72.5 770.94,-79.41"/>
</g>
<!-- Node6&#45;&gt;Node5 -->
<g id="edge6" class="edge">
<title>Node6&#45;&gt;Node5</title>
<path fill="none" stroke="midnightblue" d="M194.56,-56.08C189.05,-48.46 180.97,-37.26 174.24,-27.94"/>
<polygon fill="midnightblue" stroke="midnightblue" points="177.01,-25.81 168.32,-19.75 171.34,-29.91 177.01,-25.81"/>
</g>
<!-- Node9&#45;&gt;Node2 -->
<g id="edge11" class="edge">
<title>Node9&#45;&gt;Node2</title>
<path fill="none" stroke="midnightblue" d="M76.56,-56.32C66.85,-48.26 52.18,-36.08 40.5,-26.37"/>
<polygon fill="midnightblue" stroke="midnightblue" points="42.56,-23.53 32.63,-19.83 38.09,-28.92 42.56,-23.53"/>
</g>
<!-- Node9&#45;&gt;Node5 -->
<g id="edge12" class="edge">
<title>Node9&#45;&gt;Node5</title>
<path fill="none" stroke="midnightblue" d="M99.05,-56.32C110.46,-48.11 127.83,-35.6 141.43,-25.81"/>
<polygon fill="midnightblue" stroke="midnightblue" points="143.66,-28.52 149.73,-19.83 139.57,-22.84 143.66,-28.52"/>
</g>
<!-- Node10 -->
<g id="node10" class="node">
<title>Node10</title>
<g id="a_node10"><a xlink:title=" ">
<polygon fill="white" stroke="#bfbfbf" points="62.5,-0.5 62.5,-19.5 115.5,-19.5 115.5,-0.5 62.5,-0.5"/>
<text text-anchor="middle" x="89" y="-7.5" font-family="Helvetica,sans-Serif" font-size="10.00">stdint.h</text>
</a>
</g>
</g>
<!-- Node9&#45;&gt;Node10 -->
<g id="edge10" class="edge">
<title>Node9&#45;&gt;Node10</title>
<path fill="none" stroke="midnightblue" d="M87.33,-56.08C87.59,-49.01 87.97,-38.86 88.3,-29.99"/>
<polygon fill="midnightblue" stroke="midnightblue" points="91.8,-29.87 88.68,-19.75 84.81,-29.61 91.8,-29.87"/>
</g>
</g>
</svg>
