<?xml version="1.0" encoding="UTF-8" standalone="no"?>
<!DOCTYPE svg PUBLIC "-//W3C//DTD SVG 1.1//EN"
 "http://www.w3.org/Graphics/SVG/1.1/DTD/svg11.dtd">
<!-- Generated by graphviz version 2.38.0 (20140413.2041)
 -->
<!-- Title: message Pages: 1 -->
<svg width="286pt" height="66pt"
 viewBox="0.00 0.00 286.00 66.00" xmlns="http://www.w3.org/2000/svg" xmlns:xlink="http://www.w3.org/1999/xlink">
<g id="graph0" class="graph" transform="scale(1 1) rotate(0) translate(4 62)">
<title>message</title>
<polygon fill="white" stroke="none" points="-4,4 -4,-62 282,-62 282,4 -4,4"/>
<!-- Node202 -->
<g id="node1" class="node"><title>Node202</title>
<polygon fill="#bfbfbf" stroke="black" points="-2.84217e-14,-19.5 -2.84217e-14,-38.5 56,-38.5 56,-19.5 -2.84217e-14,-19.5"/>
<text text-anchor="middle" x="28" y="-26.5" font-family="Helvetica,sans-Serif" font-size="10.00">message</text>
</g>
<!-- Node203 -->
<g id="node2" class="node"><title>Node203</title>
<g id="a_node2"><a xlink:href="endrun_8c.html#a7267113a7c0a094743bb565eabc695d1" target="_top" xlink:title="messagev">
<polygon fill="white" stroke="black" points="92,-19.5 92,-38.5 154,-38.5 154,-19.5 92,-19.5"/>
<text text-anchor="middle" x="123" y="-26.5" font-family="Helvetica,sans-Serif" font-size="10.00">messagev</text>
</a>
</g>
</g>
<!-- Node202&#45;&gt;Node203 -->
<g id="edge1" class="edge"><title>Node202&#45;&gt;Node203</title>
<path fill="none" stroke="midnightblue" d="M56.4001,-29C64.3231,-29 73.1416,-29 81.6774,-29"/>
<polygon fill="midnightblue" stroke="midnightblue" points="81.8698,-32.5001 91.8698,-29 81.8698,-25.5001 81.8698,-32.5001"/>
</g>
<!-- Node204 -->
<g id="node3" class="node"><title>Node204</title>
<g id="a_node3"><a xlink:href="endrun_8c.html#a87108946670b4c3afbe846c6726675ff" target="_top" xlink:title="putline">
<polygon fill="white" stroke="black" points="211.5,-38.5 211.5,-57.5 256.5,-57.5 256.5,-38.5 211.5,-38.5"/>
<text text-anchor="middle" x="234" y="-45.5" font-family="Helvetica,sans-Serif" font-size="10.00">putline</text>
</a>
</g>
</g>
<!-- Node203&#45;&gt;Node204 -->
<g id="edge2" class="edge"><title>Node203&#45;&gt;Node204</title>
<path fill="none" stroke="midnightblue" d="M154.073,-34.2421C168.677,-36.7877 186.231,-39.8476 201.072,-42.4346"/>
<polygon fill="midnightblue" stroke="midnightblue" points="200.866,-45.9514 211.318,-44.2207 202.068,-39.0553 200.866,-45.9514"/>
</g>
<!-- Node205 -->
<g id="node4" class="node"><title>Node205</title>
<g id="a_node4"><a xlink:href="endrun_8c.html#a1200f02a595ab7cbe17c9e36ff32af0f" target="_top" xlink:title="show_backtrace">
<polygon fill="white" stroke="black" points="190,-0.5 190,-19.5 278,-19.5 278,-0.5 190,-0.5"/>
<text text-anchor="middle" x="234" y="-7.5" font-family="Helvetica,sans-Serif" font-size="10.00">show_backtrace</text>
</a>
</g>
</g>
<!-- Node203&#45;&gt;Node205 -->
<g id="edge3" class="edge"><title>Node203&#45;&gt;Node205</title>
<path fill="none" stroke="midnightblue" d="M154.073,-23.7579C162.131,-22.3533 171.087,-20.7921 179.991,-19.2402"/>
<polygon fill="midnightblue" stroke="midnightblue" points="180.719,-22.6661 189.969,-17.5008 179.517,-15.7701 180.719,-22.6661"/>
</g>
</g>
</svg>
