<?xml version="1.0" encoding="UTF-8" standalone="no"?>
<!DOCTYPE svg PUBLIC "-//W3C//DTD SVG 1.1//EN"
 "http://www.w3.org/Graphics/SVG/1.1/DTD/svg11.dtd">
<!-- Generated by graphviz version 2.38.0 (20140413.2041)
 -->
<!-- Title: init_endrun Pages: 1 -->
<svg width="444pt" height="47pt"
 viewBox="0.00 0.00 444.00 47.00" xmlns="http://www.w3.org/2000/svg" xmlns:xlink="http://www.w3.org/1999/xlink">
<g id="graph0" class="graph" transform="scale(1 1) rotate(0) translate(4 43)">
<title>init_endrun</title>
<polygon fill="white" stroke="none" points="-4,4 -4,-43 440,-43 440,4 -4,4"/>
<!-- Node197 -->
<g id="node1" class="node"><title>Node197</title>
<polygon fill="#bfbfbf" stroke="black" points="0,-0.5 0,-19.5 64,-19.5 64,-0.5 0,-0.5"/>
<text text-anchor="middle" x="32" y="-7.5" font-family="Helvetica,sans-Serif" font-size="10.00">init_endrun</text>
</g>
<!-- Node198 -->
<g id="node2" class="node"><title>Node198</title>
<g id="a_node2"><a xlink:href="main_8c.html#a3c04138a5bfe5d72780bb7e82a18e627" target="_top" xlink:title="main">
<polygon fill="white" stroke="black" points="100,-0.5 100,-19.5 138,-19.5 138,-0.5 100,-0.5"/>
<text text-anchor="middle" x="119" y="-7.5" font-family="Helvetica,sans-Serif" font-size="10.00">main</text>
</a>
</g>
</g>
<!-- Node197&#45;&gt;Node198 -->
<g id="edge1" class="edge"><title>Node197&#45;&gt;Node198</title>
<path fill="none" stroke="midnightblue" d="M74.4555,-10C83.3213,-10 92.2477,-10 99.6903,-10"/>
<polygon fill="midnightblue" stroke="midnightblue" points="74.1682,-6.5001 64.1682,-10 74.1682,-13.5001 74.1682,-6.5001"/>
</g>
<!-- Node199 -->
<g id="node3" class="node"><title>Node199</title>
<g id="a_node3"><a xlink:href="walltime_8h.html#a76d2135b612766d4d665748454b879d6" target="_top" xlink:title="walltime_report">
<polygon fill="white" stroke="black" points="174,-19.5 174,-38.5 257,-38.5 257,-19.5 174,-19.5"/>
<text text-anchor="middle" x="215.5" y="-26.5" font-family="Helvetica,sans-Serif" font-size="10.00">walltime_report</text>
</a>
</g>
</g>
<!-- Node198&#45;&gt;Node199 -->
<g id="edge2" class="edge"><title>Node198&#45;&gt;Node199</title>
<path fill="none" stroke="midnightblue" d="M148.141,-15.658C156.148,-17.2678 165.035,-19.0547 173.635,-20.7837"/>
<polygon fill="midnightblue" stroke="midnightblue" points="148.714,-12.2033 138.221,-13.6634 147.334,-19.0659 148.714,-12.2033"/>
</g>
<!-- Node200 -->
<g id="node4" class="node"><title>Node200</title>
<g id="a_node4"><a xlink:href="run_8c.html#adc59e9ee1517e4e690694a64ab6a59d2" target="_top" xlink:title="write_cpu_log">
<polygon fill="white" stroke="black" points="293,-19.5 293,-38.5 370,-38.5 370,-19.5 293,-19.5"/>
<text text-anchor="middle" x="331.5" y="-26.5" font-family="Helvetica,sans-Serif" font-size="10.00">write_cpu_log</text>
</a>
</g>
</g>
<!-- Node199&#45;&gt;Node200 -->
<g id="edge3" class="edge"><title>Node199&#45;&gt;Node200</title>
<path fill="none" stroke="midnightblue" d="M267.031,-29C275.684,-29 284.54,-29 292.785,-29"/>
<polygon fill="midnightblue" stroke="midnightblue" points="267.013,-25.5001 257.013,-29 267.013,-32.5001 267.013,-25.5001"/>
</g>
<!-- Node201 -->
<g id="node5" class="node"><title>Node201</title>
<g id="a_node5"><a xlink:href="run_8c.html#a05e0ffe612d44e6d7f3a9ae5b9df56a2" target="_top" xlink:title="run">
<polygon fill="white" stroke="black" points="406,-0.5 406,-19.5 436,-19.5 436,-0.5 406,-0.5"/>
<text text-anchor="middle" x="421" y="-7.5" font-family="Helvetica,sans-Serif" font-size="10.00">run</text>
</a>
</g>
</g>
<!-- Node200&#45;&gt;Node201 -->
<g id="edge4" class="edge"><title>Node200&#45;&gt;Node201</title>
<path fill="none" stroke="midnightblue" d="M379.925,-18.7021C389.329,-16.6601 398.505,-14.6676 405.698,-13.1056"/>
<polygon fill="midnightblue" stroke="midnightblue" points="379.145,-15.2897 370.116,-20.832 380.631,-22.1303 379.145,-15.2897"/>
</g>
<!-- Node201&#45;&gt;Node198 -->
<g id="edge5" class="edge"><title>Node201&#45;&gt;Node198</title>
<path fill="none" stroke="midnightblue" d="M395.758,-10C337.391,-10 190.064,-10 138.315,-10"/>
<polygon fill="midnightblue" stroke="midnightblue" points="395.885,-13.5001 405.885,-10 395.885,-6.5001 395.885,-13.5001"/>
</g>
</g>
</svg>
