<?xml version="1.0" encoding="UTF-8" standalone="no"?>
<!DOCTYPE svg PUBLIC "-//W3C//DTD SVG 1.1//EN"
 "http://www.w3.org/Graphics/SVG/1.1/DTD/svg11.dtd">
<!-- Generated by graphviz version 2.50.0 (0)
 -->
<!-- Title: show_backtrace Pages: 1 -->
<svg width="947pt" height="1788pt"
 viewBox="0.00 0.00 947.00 1787.50" xmlns="http://www.w3.org/2000/svg" xmlns:xlink="http://www.w3.org/1999/xlink">
<g id="graph0" class="graph" transform="scale(1 1) rotate(0) translate(4 1783.5)">
<title>show_backtrace</title>
<polygon fill="white" stroke="transparent" points="-4,4 -4,-1783.5 943,-1783.5 943,4 -4,4"/>
<!-- Node1 -->
<g id="node1" class="node">
<title>Node1</title>
<g id="a_node1"><a xlink:title=" ">
<polygon fill="#bfbfbf" stroke="black" points="844,-855.5 844,-874.5 939,-874.5 939,-855.5 844,-855.5"/>
<text text-anchor="middle" x="891.5" y="-862.5" font-family="Helvetica,sans-Serif" font-size="10.00">show_backtrace</text>
</a>
</g>
</g>
<!-- Node2 -->
<g id="node2" class="node">
<title>Node2</title>
<g id="a_node2"><a xlink:href="endrun_8c.html#ad963d7efdb9f10f7a2298c8ccd222ab0" target="_top" xlink:title=" ">
<polygon fill="white" stroke="red" points="741.5,-874.5 741.5,-893.5 791.5,-893.5 791.5,-874.5 741.5,-874.5"/>
<text text-anchor="middle" x="766.5" y="-881.5" font-family="Helvetica,sans-Serif" font-size="10.00">endrun</text>
</a>
</g>
</g>
<!-- Node1&#45;&gt;Node2 -->
<g id="edge1" class="edge">
<title>Node1&#45;&gt;Node2</title>
<path fill="none" stroke="midnightblue" d="M833.83,-873.75C818.99,-876.05 803.77,-878.4 791.66,-880.27"/>
<polygon fill="midnightblue" stroke="midnightblue" points="834.65,-877.17 844,-872.18 833.58,-870.25 834.65,-877.17"/>
</g>
<!-- Node372 -->
<g id="node50" class="node">
<title>Node372</title>
<g id="a_node50"><a xlink:href="endrun_8c.html#aac222a0612f300474b17f748f0ebbca9" target="_top" xlink:title=" ">
<polygon fill="white" stroke="red" points="725,-836.5 725,-855.5 808,-855.5 808,-836.5 725,-836.5"/>
<text text-anchor="middle" x="766.5" y="-843.5" font-family="Helvetica,sans-Serif" font-size="10.00">OsSigHandler</text>
</a>
</g>
</g>
<!-- Node1&#45;&gt;Node372 -->
<g id="edge67" class="edge">
<title>Node1&#45;&gt;Node372</title>
<path fill="none" stroke="midnightblue" d="M833.87,-856.25C825.15,-854.9 816.3,-853.54 808.02,-852.26"/>
<polygon fill="midnightblue" stroke="midnightblue" points="833.58,-859.75 844,-857.82 834.65,-852.83 833.58,-859.75"/>
</g>
<!-- Node3 -->
<g id="node3" class="node">
<title>Node3</title>
<g id="a_node3"><a xlink:href="proto_8h.html#a4c3daf725f954b7bdbcd0e8cc89de14b" target="_top" xlink:title=" ">
<polygon fill="white" stroke="red" points="554,-1749 554,-1779 672,-1779 672,-1749 554,-1749"/>
<text text-anchor="start" x="562" y="-1767" font-family="Helvetica,sans-Serif" font-size="10.00">_bigfile_utils_create</text>
<text text-anchor="middle" x="613" y="-1756" font-family="Helvetica,sans-Serif" font-size="10.00">_block_from_c_array</text>
</a>
</g>
</g>
<!-- Node2&#45;&gt;Node3 -->
<g id="edge2" class="edge">
<title>Node2&#45;&gt;Node3</title>
<path fill="none" stroke="midnightblue" d="M765.01,-903.7C761.84,-1025.35 742.57,-1671.27 689,-1739 684.49,-1744.71 678.63,-1749.12 672.18,-1752.53"/>
<polygon fill="midnightblue" stroke="midnightblue" points="768.51,-903.69 765.27,-893.6 761.52,-903.51 768.51,-903.69"/>
</g>
<!-- Node9 -->
<g id="node4" class="node">
<title>Node9</title>
<g id="a_node4"><a xlink:href="gravpm_8c.html#ab2df22dd026866467284fbf8161743c4" target="_top" xlink:title=" ">
<polygon fill="white" stroke="red" points="583.5,-1710.5 583.5,-1729.5 642.5,-1729.5 642.5,-1710.5 583.5,-1710.5"/>
<text text-anchor="middle" x="613" y="-1717.5" font-family="Helvetica,sans-Serif" font-size="10.00">_prepare</text>
</a>
</g>
</g>
<!-- Node2&#45;&gt;Node9 -->
<g id="edge3" class="edge">
<title>Node2&#45;&gt;Node9</title>
<path fill="none" stroke="midnightblue" d="M764.99,-903.98C761.75,-1023.27 742.52,-1638.49 689,-1701 677.73,-1714.16 658.78,-1718.88 642.74,-1720.33"/>
<polygon fill="midnightblue" stroke="midnightblue" points="768.49,-903.84 765.26,-893.75 761.49,-903.65 768.49,-903.84"/>
</g>
<!-- Node22 -->
<g id="node5" class="node">
<title>Node22</title>
<g id="a_node5"><a xlink:href="mpsort_8c.html#aa299453e6deb4926a6f6648d8669d74a" target="_top" xlink:title=" ">
<polygon fill="white" stroke="red" points="556.5,-1672.5 556.5,-1691.5 669.5,-1691.5 669.5,-1672.5 556.5,-1672.5"/>
<text text-anchor="middle" x="613" y="-1679.5" font-family="Helvetica,sans-Serif" font-size="10.00">_setup_mpsort_mpi</text>
</a>
</g>
</g>
<!-- Node2&#45;&gt;Node22 -->
<g id="edge4" class="edge">
<title>Node2&#45;&gt;Node22</title>
<path fill="none" stroke="midnightblue" d="M764.9,-903.76C761.21,-1019.22 740.08,-1603.61 689,-1663 683.83,-1669.01 677.06,-1673.26 669.7,-1676.24"/>
<polygon fill="midnightblue" stroke="midnightblue" points="768.4,-903.67 765.22,-893.56 761.41,-903.45 768.4,-903.67"/>
</g>
<!-- Node25 -->
<g id="node6" class="node">
<title>Node25</title>
<g id="a_node6"><a xlink:href="mpsort_8c.html#a529cae9b31fc0b9fbcf7509a616b114f" target="_top" xlink:title=" ">
<polygon fill="white" stroke="red" points="549.5,-1634.5 549.5,-1653.5 676.5,-1653.5 676.5,-1634.5 549.5,-1634.5"/>
<text text-anchor="middle" x="613" y="-1641.5" font-family="Helvetica,sans-Serif" font-size="10.00">_solve_for_layout_mpi</text>
</a>
</g>
</g>
<!-- Node2&#45;&gt;Node25 -->
<g id="edge5" class="edge">
<title>Node2&#45;&gt;Node25</title>
<path fill="none" stroke="midnightblue" d="M764.79,-903.83C760.6,-1016.09 737.6,-1568.77 689,-1625 685.49,-1629.06 681.24,-1632.32 676.58,-1634.93"/>
<polygon fill="midnightblue" stroke="midnightblue" points="768.3,-903.73 765.16,-893.61 761.3,-903.48 768.3,-903.73"/>
</g>
<!-- Node27 -->
<g id="node7" class="node">
<title>Node27</title>
<g id="a_node7"><a xlink:href="forcetree_8c.html#aa745b024ee4449af60e622e8c2bc32c1" target="_top" xlink:title=" ">
<polygon fill="white" stroke="red" points="555,-1596.5 555,-1615.5 671,-1615.5 671,-1596.5 555,-1596.5"/>
<text text-anchor="middle" x="613" y="-1603.5" font-family="Helvetica,sans-Serif" font-size="10.00">add_particle_to_tree</text>
</a>
</g>
</g>
<!-- Node2&#45;&gt;Node27 -->
<g id="edge6" class="edge">
<title>Node2&#45;&gt;Node27</title>
<path fill="none" stroke="midnightblue" d="M764.67,-903.83C759.97,-1012.6 735.14,-1533.92 689,-1587 684.15,-1592.58 677.93,-1596.63 671.14,-1599.57"/>
<polygon fill="midnightblue" stroke="midnightblue" points="768.18,-903.76 765.11,-893.62 761.19,-903.46 768.18,-903.76"/>
</g>
<!-- Node53 -->
<g id="node8" class="node">
<title>Node53</title>
<g id="a_node8"><a xlink:href="memory_8c.html#a9101bc2df32496c54603c12301372ea8" target="_top" xlink:title=" ">
<polygon fill="white" stroke="red" points="560.5,-1558.5 560.5,-1577.5 665.5,-1577.5 665.5,-1558.5 560.5,-1558.5"/>
<text text-anchor="middle" x="613" y="-1565.5" font-family="Helvetica,sans-Serif" font-size="10.00">allocator_alloc_va</text>
</a>
</g>
</g>
<!-- Node2&#45;&gt;Node53 -->
<g id="edge7" class="edge">
<title>Node2&#45;&gt;Node53</title>
<path fill="none" stroke="midnightblue" d="M764.45,-904.2C758.81,-1009.56 730.75,-1493.23 689,-1544 682.92,-1551.39 674.56,-1556.54 665.62,-1560.11"/>
<polygon fill="midnightblue" stroke="midnightblue" points="767.96,-904.16 764.99,-893.99 760.97,-903.79 767.96,-904.16"/>
</g>
<!-- Node63 -->
<g id="node9" class="node">
<title>Node63</title>
<g id="a_node9"><a xlink:href="memory_8c.html#abfed47e0b17b8bfa570cd2f0066e269d" target="_top" xlink:title=" ">
<polygon fill="white" stroke="black" points="376,-1539.5 376,-1558.5 492,-1558.5 492,-1539.5 376,-1539.5"/>
<text text-anchor="middle" x="434" y="-1546.5" font-family="Helvetica,sans-Serif" font-size="10.00">allocator_realloc_int</text>
</a>
</g>
</g>
<!-- Node2&#45;&gt;Node63 -->
<g id="edge12" class="edge">
<title>Node2&#45;&gt;Node63</title>
<path fill="none" stroke="midnightblue" d="M764.5,-903.62C759.15,-1004.98 732.54,-1466.26 689,-1511 662.49,-1538.24 558.62,-1546.05 492.2,-1548.23"/>
<polygon fill="midnightblue" stroke="midnightblue" points="768,-903.72 765.02,-893.55 761.01,-903.36 768,-903.72"/>
</g>
<!-- Node64 -->
<g id="node10" class="node">
<title>Node64</title>
<g id="a_node10"><a xlink:href="memory_8c.html#ad5c874c536ebf1120a9c656644851c3b" target="_top" xlink:title=" ">
<polygon fill="white" stroke="red" points="562.5,-1482.5 562.5,-1501.5 663.5,-1501.5 663.5,-1482.5 562.5,-1482.5"/>
<text text-anchor="middle" x="613" y="-1489.5" font-family="Helvetica,sans-Serif" font-size="10.00">allocator_destroy</text>
</a>
</g>
</g>
<!-- Node2&#45;&gt;Node64 -->
<g id="edge9" class="edge">
<title>Node2&#45;&gt;Node64</title>
<path fill="none" stroke="midnightblue" d="M765.79,-903.87C766.75,-996.62 766.05,-1386.2 689,-1473 682.4,-1480.43 673.35,-1485.16 663.82,-1488.12"/>
<polygon fill="midnightblue" stroke="midnightblue" points="769.29,-903.81 765.67,-893.85 762.29,-903.89 769.29,-903.81"/>
</g>
<!-- Node65 -->
<g id="node11" class="node">
<title>Node65</title>
<g id="a_node11"><a xlink:href="memory_8c.html#a447d6f87d997bf8d2de6fd9a450715b2" target="_top" xlink:title=" ">
<polygon fill="white" stroke="red" points="571,-1444.5 571,-1463.5 655,-1463.5 655,-1444.5 571,-1444.5"/>
<text text-anchor="middle" x="613" y="-1451.5" font-family="Helvetica,sans-Serif" font-size="10.00">allocator_free</text>
</a>
</g>
</g>
<!-- Node2&#45;&gt;Node65 -->
<g id="edge10" class="edge">
<title>Node2&#45;&gt;Node65</title>
<path fill="none" stroke="midnightblue" d="M765.6,-903.69C765.62,-992.43 761.21,-1354.36 689,-1435 680.4,-1444.61 667.7,-1449.68 655.19,-1452.27"/>
<polygon fill="midnightblue" stroke="midnightblue" points="769.1,-903.64 765.57,-893.64 762.1,-903.65 769.1,-903.64"/>
</g>
<!-- Node66 -->
<g id="node12" class="node">
<title>Node66</title>
<g id="a_node12"><a xlink:href="memory_8c.html#a1071a12fb6ee5a98c249cbcd497bfdd0" target="_top" xlink:title=" ">
<polygon fill="white" stroke="red" points="559,-1406.5 559,-1425.5 667,-1425.5 667,-1406.5 559,-1406.5"/>
<text text-anchor="middle" x="613" y="-1413.5" font-family="Helvetica,sans-Serif" font-size="10.00">allocator_iter_next</text>
</a>
</g>
</g>
<!-- Node2&#45;&gt;Node66 -->
<g id="edge11" class="edge">
<title>Node2&#45;&gt;Node66</title>
<path fill="none" stroke="midnightblue" d="M765.22,-903.9C763.63,-988.38 753.33,-1316.44 689,-1392 683.24,-1398.77 675.57,-1403.64 667.33,-1407.16"/>
<polygon fill="midnightblue" stroke="midnightblue" points="768.72,-903.71 765.39,-893.65 761.72,-903.59 768.72,-903.71"/>
</g>
<!-- Node72 -->
<g id="node13" class="node">
<title>Node72</title>
<g id="a_node13"><a xlink:href="timestep_8c.html#a8cd9d7c91611cbf3493edfa7d5491be9" target="_top" xlink:title=" ">
<polygon fill="white" stroke="red" points="387.5,-1349.5 387.5,-1368.5 480.5,-1368.5 480.5,-1349.5 387.5,-1349.5"/>
<text text-anchor="middle" x="434" y="-1356.5" font-family="Helvetica,sans-Serif" font-size="10.00">apply_half_kick</text>
</a>
</g>
</g>
<!-- Node2&#45;&gt;Node72 -->
<g id="edge13" class="edge">
<title>Node2&#45;&gt;Node72</title>
<path fill="none" stroke="midnightblue" d="M765.54,-903.92C765.27,-986.31 759.53,-1298.92 689,-1359 623.71,-1414.62 511.01,-1385.72 460.63,-1368.63"/>
<polygon fill="midnightblue" stroke="midnightblue" points="769.04,-903.68 765.55,-893.68 762.04,-903.68 769.04,-903.68"/>
</g>
<!-- Node73 -->
<g id="node14" class="node">
<title>Node73</title>
<g id="a_node14"><a xlink:href="blackhole_8c.html#a67428742d307f266f245f41b661e3c29" target="_top" xlink:title=" ">
<polygon fill="white" stroke="red" points="377,-1227 377,-1257 491,-1257 491,-1227 377,-1227"/>
<text text-anchor="start" x="385" y="-1245" font-family="Helvetica,sans-Serif" font-size="10.00">blackhole_feedback</text>
<text text-anchor="middle" x="434" y="-1234" font-family="Helvetica,sans-Serif" font-size="10.00">_ngbiter</text>
</a>
</g>
</g>
<!-- Node2&#45;&gt;Node73 -->
<g id="edge14" class="edge">
<title>Node2&#45;&gt;Node73</title>
<path fill="none" stroke="midnightblue" d="M763.66,-904.15C757.37,-968.24 734.57,-1165.59 689,-1207 660.83,-1232.6 556.96,-1239.61 491.1,-1241.45"/>
<polygon fill="midnightblue" stroke="midnightblue" points="767.18,-904.09 764.64,-893.8 760.21,-903.43 767.18,-904.09"/>
</g>
<!-- Node75 -->
<g id="node15" class="node">
<title>Node75</title>
<g id="a_node15"><a xlink:href="blackhole_8c.html#a55011275ba072b3b09666174d52bc0b3" target="_top" xlink:title=" ">
<polygon fill="white" stroke="red" points="553.5,-1178.5 553.5,-1197.5 672.5,-1197.5 672.5,-1178.5 553.5,-1178.5"/>
<text text-anchor="middle" x="613" y="-1185.5" font-family="Helvetica,sans-Serif" font-size="10.00">blackhole_make_one</text>
</a>
</g>
</g>
<!-- Node2&#45;&gt;Node75 -->
<g id="edge15" class="edge">
<title>Node2&#45;&gt;Node75</title>
<path fill="none" stroke="midnightblue" d="M762.8,-903.86C754.48,-962.15 727.48,-1131.06 689,-1169 684.31,-1173.62 678.67,-1177.17 672.62,-1179.89"/>
<polygon fill="midnightblue" stroke="midnightblue" points="766.3,-904.13 764.21,-893.75 759.36,-903.17 766.3,-904.13"/>
</g>
<!-- Node78 -->
<g id="node16" class="node">
<title>Node78</title>
<g id="a_node16"><a xlink:href="init_8c.html#a3f7061bcc4ad1561e16bf521d3930bc7" target="_top" xlink:title=" ">
<polygon fill="white" stroke="red" points="571,-1140.5 571,-1159.5 655,-1159.5 655,-1140.5 571,-1140.5"/>
<text text-anchor="middle" x="613" y="-1147.5" font-family="Helvetica,sans-Serif" font-size="10.00">check_omega</text>
</a>
</g>
</g>
<!-- Node2&#45;&gt;Node78 -->
<g id="edge16" class="edge">
<title>Node2&#45;&gt;Node78</title>
<path fill="none" stroke="midnightblue" d="M765.51,-903.78C764.41,-950.51 754.88,-1068.48 689,-1131 679.84,-1139.69 667.3,-1144.56 655.09,-1147.25"/>
<polygon fill="midnightblue" stroke="midnightblue" points="769.01,-903.79 765.64,-893.75 762.01,-903.7 769.01,-903.79"/>
</g>
<!-- Node80 -->
<g id="node17" class="node">
<title>Node80</title>
<g id="a_node17"><a xlink:href="init_8c.html#ab364d00a825a0626c372d4e4d920dc82" target="_top" xlink:title=" ">
<polygon fill="white" stroke="red" points="565.5,-1102.5 565.5,-1121.5 660.5,-1121.5 660.5,-1102.5 565.5,-1102.5"/>
<text text-anchor="middle" x="613" y="-1109.5" font-family="Helvetica,sans-Serif" font-size="10.00">check_positions</text>
</a>
</g>
</g>
<!-- Node2&#45;&gt;Node80 -->
<g id="edge17" class="edge">
<title>Node2&#45;&gt;Node80</title>
<path fill="none" stroke="midnightblue" d="M763.72,-903.88C759.03,-944.36 742.72,-1036.85 689,-1088 681.18,-1095.45 671.04,-1100.58 660.76,-1104.13"/>
<polygon fill="midnightblue" stroke="midnightblue" points="767.22,-904.01 764.77,-893.71 760.26,-903.29 767.22,-904.01"/>
</g>
<!-- Node81 -->
<g id="node18" class="node">
<title>Node81</title>
<g id="a_node18"><a xlink:href="test__mpsort_8c.html#ac95b61396aba2c2be4798b7970019a9d" target="_top" xlink:title=" ">
<polygon fill="white" stroke="black" points="572.5,-1026.5 572.5,-1045.5 653.5,-1045.5 653.5,-1026.5 572.5,-1026.5"/>
<text text-anchor="middle" x="613" y="-1033.5" font-family="Helvetica,sans-Serif" font-size="10.00">check_sorted</text>
</a>
</g>
</g>
<!-- Node2&#45;&gt;Node81 -->
<g id="edge18" class="edge">
<title>Node2&#45;&gt;Node81</title>
<path fill="none" stroke="midnightblue" d="M759.08,-903.07C748.72,-931.01 725.68,-982.89 689,-1012 678.83,-1020.07 665.88,-1025.46 653.61,-1029.04"/>
<polygon fill="midnightblue" stroke="midnightblue" points="762.38,-904.23 762.43,-893.63 755.79,-901.89 762.38,-904.23"/>
</g>
<!-- Node82 -->
<g id="node19" class="node">
<title>Node82</title>
<g id="a_node19"><a xlink:href="test__mpsort_8c.html#a1c15b4378d642137c96a8386bf2c12a9" target="_top" xlink:title=" ">
<polygon fill="white" stroke="red" points="379.5,-1045.5 379.5,-1064.5 488.5,-1064.5 488.5,-1045.5 379.5,-1045.5"/>
<text text-anchor="middle" x="434" y="-1052.5" font-family="Helvetica,sans-Serif" font-size="10.00">do_long_radix_test</text>
</a>
</g>
</g>
<!-- Node2&#45;&gt;Node82 -->
<g id="edge37" class="edge">
<title>Node2&#45;&gt;Node82</title>
<path fill="none" stroke="midnightblue" d="M763.45,-903.75C758.41,-940.98 741.68,-1020.85 689,-1055 619.43,-1100.09 515.06,-1078.95 464.52,-1064.54"/>
<polygon fill="midnightblue" stroke="midnightblue" points="766.95,-904.01 764.67,-893.66 760,-903.17 766.95,-904.01"/>
</g>
<!-- Node85 -->
<g id="node20" class="node">
<title>Node85</title>
<g id="a_node20"><a xlink:href="test__mpsort_8c.html#a7d775e5486e94b3f4fdebe704bbf06b1" target="_top" xlink:title=" ">
<polygon fill="white" stroke="red" points="388,-997.5 388,-1016.5 480,-1016.5 480,-997.5 388,-997.5"/>
<text text-anchor="middle" x="434" y="-1004.5" font-family="Helvetica,sans-Serif" font-size="10.00">do_mpsort_test</text>
</a>
</g>
</g>
<!-- Node2&#45;&gt;Node85 -->
<g id="edge38" class="edge">
<title>Node2&#45;&gt;Node85</title>
<path fill="none" stroke="midnightblue" d="M756.27,-902.77C744.18,-925.13 720.72,-961.61 689,-979 623.25,-1015.03 533.62,-1015.69 480.29,-1011.98"/>
<polygon fill="midnightblue" stroke="midnightblue" points="759.52,-904.11 761.01,-893.62 753.3,-900.89 759.52,-904.11"/>
</g>
<!-- Node89 -->
<g id="node21" class="node">
<title>Node89</title>
<g id="a_node21"><a xlink:href="cosmology_8c.html#a3bd6ee61b8a336eed081224546393158" target="_top" xlink:title=" ">
<polygon fill="white" stroke="red" points="576,-950.5 576,-969.5 650,-969.5 650,-950.5 576,-950.5"/>
<text text-anchor="middle" x="613" y="-957.5" font-family="Helvetica,sans-Serif" font-size="10.00">check_units</text>
</a>
</g>
</g>
<!-- Node2&#45;&gt;Node89 -->
<g id="edge21" class="edge">
<title>Node2&#45;&gt;Node89</title>
<path fill="none" stroke="midnightblue" d="M747.7,-900.48C732.98,-913.27 711,-930.53 689,-941 676.87,-946.77 662.77,-950.93 650.1,-953.86"/>
<polygon fill="midnightblue" stroke="midnightblue" points="750.33,-902.82 755.47,-893.55 745.67,-897.59 750.33,-902.82"/>
</g>
<!-- Node90 -->
<g id="node22" class="node">
<title>Node90</title>
<g id="a_node22"><a xlink:href="sfr__eff_8c.html#abc5b151d356619b98a8ded72cc9426c7" target="_top" xlink:title=" ">
<polygon fill="white" stroke="red" points="539.5,-912.5 539.5,-931.5 686.5,-931.5 686.5,-912.5 539.5,-912.5"/>
<text text-anchor="middle" x="613" y="-919.5" font-family="Helvetica,sans-Serif" font-size="10.00">cooling_and_starformation</text>
</a>
</g>
</g>
<!-- Node2&#45;&gt;Node90 -->
<g id="edge22" class="edge">
<title>Node2&#45;&gt;Node90</title>
<path fill="none" stroke="midnightblue" d="M731.59,-892.51C707.99,-898.42 676.51,-906.32 652.06,-912.45"/>
<polygon fill="midnightblue" stroke="midnightblue" points="732.65,-895.85 741.49,-890.02 730.94,-889.06 732.65,-895.85"/>
</g>
<!-- Node91 -->
<g id="node23" class="node">
<title>Node91</title>
<g id="a_node23"><a xlink:href="neutrinos__lra_8c.html#ab578612d4bc9d5b9d19e90963f0cf1d4" target="_top" xlink:title=" ">
<polygon fill="white" stroke="red" points="373,-855.5 373,-874.5 495,-874.5 495,-855.5 373,-855.5"/>
<text text-anchor="middle" x="434" y="-862.5" font-family="Helvetica,sans-Serif" font-size="10.00">delta_nu_from_power</text>
</a>
</g>
</g>
<!-- Node2&#45;&gt;Node91 -->
<g id="edge23" class="edge">
<title>Node2&#45;&gt;Node91</title>
<path fill="none" stroke="midnightblue" d="M731.32,-873.62C718.22,-870.15 703.04,-866.72 689,-865 623.02,-856.93 546.66,-858.36 495.04,-860.91"/>
<polygon fill="midnightblue" stroke="midnightblue" points="730.75,-877.1 741.32,-876.39 732.62,-870.35 730.75,-877.1"/>
</g>
<!-- Node93 -->
<g id="node24" class="node">
<title>Node93</title>
<g id="a_node24"><a xlink:href="power_8c.html#a63abbd0ad63ecf6c4fdf5ee5af7bb38b" target="_top" xlink:title=" ">
<polygon fill="white" stroke="red" points="565.5,-798.5 565.5,-817.5 660.5,-817.5 660.5,-798.5 565.5,-798.5"/>
<text text-anchor="middle" x="613" y="-805.5" font-family="Helvetica,sans-Serif" font-size="10.00">Delta_Tabulated</text>
</a>
</g>
</g>
<!-- Node2&#45;&gt;Node93 -->
<g id="edge24" class="edge">
<title>Node2&#45;&gt;Node93</title>
<path fill="none" stroke="midnightblue" d="M732.64,-869.65C730,-868.17 727.42,-866.62 725,-865 706.97,-852.92 707.77,-842.89 689,-832 678.48,-825.89 666.2,-821.13 654.67,-817.52"/>
<polygon fill="midnightblue" stroke="midnightblue" points="731.22,-872.85 741.71,-874.31 734.42,-866.63 731.22,-872.85"/>
</g>
<!-- Node111 -->
<g id="node25" class="node">
<title>Node111</title>
<g id="a_node25"><a xlink:href="neutrinos__lra_8c.html#a7e32637f89940d8c7604935f57a099d6" target="_top" xlink:title=" ">
<polygon fill="white" stroke="black" points="560.5,-874.5 560.5,-893.5 665.5,-893.5 665.5,-874.5 560.5,-874.5"/>
<text text-anchor="middle" x="613" y="-881.5" font-family="Helvetica,sans-Serif" font-size="10.00">delta_tot_first_init</text>
</a>
</g>
</g>
<!-- Node2&#45;&gt;Node111 -->
<g id="edge25" class="edge">
<title>Node2&#45;&gt;Node111</title>
<path fill="none" stroke="midnightblue" d="M731.35,-884C712.02,-884 687.46,-884 665.81,-884"/>
<polygon fill="midnightblue" stroke="midnightblue" points="731.49,-887.5 741.49,-884 731.49,-880.5 731.49,-887.5"/>
</g>
<!-- Node112 -->
<g id="node26" class="node">
<title>Node112</title>
<g id="a_node26"><a xlink:href="density_8c.html#abb05cdc00cf397be5c4dd467308cc4bd" target="_top" xlink:title=" ">
<polygon fill="white" stroke="black" points="540,-760.5 540,-779.5 686,-779.5 686,-760.5 540,-760.5"/>
<text text-anchor="middle" x="613" y="-767.5" font-family="Helvetica,sans-Serif" font-size="10.00">density_check_neighbours</text>
</a>
</g>
</g>
<!-- Node2&#45;&gt;Node112 -->
<g id="edge27" class="edge">
<title>Node2&#45;&gt;Node112</title>
<path fill="none" stroke="midnightblue" d="M732.49,-871.02C729.79,-869.23 727.24,-867.23 725,-865 698.52,-838.62 717.87,-812.74 689,-789 684.33,-785.16 678.99,-782.08 673.35,-779.62"/>
<polygon fill="midnightblue" stroke="midnightblue" points="731.04,-874.22 741.48,-876.03 734.45,-868.1 731.04,-874.22"/>
</g>
<!-- Node113 -->
<g id="node27" class="node">
<title>Node113</title>
<g id="a_node27"><a xlink:href="density_8c.html#ae39f5a18f937d210e258c8e8cb710044" target="_top" xlink:title=" ">
<polygon fill="white" stroke="red" points="376,-741.5 376,-760.5 492,-760.5 492,-741.5 376,-741.5"/>
<text text-anchor="middle" x="434" y="-748.5" font-family="Helvetica,sans-Serif" font-size="10.00">density_postprocess</text>
</a>
</g>
</g>
<!-- Node2&#45;&gt;Node113 -->
<g id="edge33" class="edge">
<title>Node2&#45;&gt;Node113</title>
<path fill="none" stroke="midnightblue" d="M732.61,-871.65C729.8,-869.72 727.2,-867.51 725,-865 690,-825.02 731.86,-782.41 689,-751 620.89,-701.08 512.55,-725.85 462.28,-741.49"/>
<polygon fill="midnightblue" stroke="midnightblue" points="731.03,-874.77 741.46,-876.64 734.47,-868.68 731.03,-874.77"/>
</g>
<!-- Node148 -->
<g id="node28" class="node">
<title>Node148</title>
<g id="a_node28"><a xlink:href="densitykernel_8c.html#ac964db66f17e32a55c5137c884f4b76b" target="_top" xlink:title=" ">
<polygon fill="white" stroke="red" points="558.5,-1254.5 558.5,-1273.5 667.5,-1273.5 667.5,-1254.5 558.5,-1254.5"/>
<text text-anchor="middle" x="613" y="-1261.5" font-family="Helvetica,sans-Serif" font-size="10.00">density_kernel_init</text>
</a>
</g>
</g>
<!-- Node2&#45;&gt;Node148 -->
<g id="edge29" class="edge">
<title>Node2&#45;&gt;Node148</title>
<path fill="none" stroke="midnightblue" d="M763.84,-903.65C757.79,-970.74 734.85,-1189.41 689,-1240 683.22,-1246.38 675.74,-1251.08 667.75,-1254.53"/>
<polygon fill="midnightblue" stroke="midnightblue" points="767.33,-903.86 764.72,-893.59 760.36,-903.25 767.33,-903.86"/>
</g>
<!-- Node150 -->
<g id="node29" class="node">
<title>Node150</title>
<g id="a_node29"><a xlink:href="density_8c.html#a146d61fe2d2f53ea9b7fabf2ea5e90b7" target="_top" xlink:title=" ">
<polygon fill="white" stroke="red" points="388,-1292.5 388,-1311.5 480,-1311.5 480,-1292.5 388,-1292.5"/>
<text text-anchor="middle" x="434" y="-1299.5" font-family="Helvetica,sans-Serif" font-size="10.00">density_ngbiter</text>
</a>
</g>
</g>
<!-- Node2&#45;&gt;Node150 -->
<g id="edge32" class="edge">
<title>Node2&#45;&gt;Node150</title>
<path fill="none" stroke="midnightblue" d="M764.75,-904.06C761.56,-977.73 746.48,-1231.77 689,-1283 659.17,-1309.59 544.84,-1308.1 480.2,-1304.93"/>
<polygon fill="midnightblue" stroke="midnightblue" points="768.26,-903.97 765.17,-893.84 761.26,-903.69 768.26,-903.97"/>
</g>
<!-- Node164 -->
<g id="node30" class="node">
<title>Node164</title>
<g id="a_node30"><a xlink:href="timebinmgr_8c.html#a7166c93d068baea59abf2ef8cee3c7aa" target="_top" xlink:title=" ">
<polygon fill="white" stroke="red" points="568,-1330.5 568,-1349.5 658,-1349.5 658,-1330.5 568,-1330.5"/>
<text text-anchor="middle" x="613" y="-1337.5" font-family="Helvetica,sans-Serif" font-size="10.00">dloga_from_dti</text>
</a>
</g>
</g>
<!-- Node2&#45;&gt;Node164 -->
<g id="edge34" class="edge">
<title>Node2&#45;&gt;Node164</title>
<path fill="none" stroke="midnightblue" d="M764.64,-903.77C760.96,-979.91 744.06,-1252.99 689,-1316 681.08,-1325.06 669.75,-1330.73 658.28,-1334.26"/>
<polygon fill="midnightblue" stroke="midnightblue" points="768.15,-903.81 765.11,-893.66 761.15,-903.49 768.15,-903.81"/>
</g>
<!-- Node119 -->
<g id="node31" class="node">
<title>Node119</title>
<g id="a_node31"><a xlink:href="cooling_8c.html#ad3b2ce3b26247df36f1de8c97ccccf05" target="_top" xlink:title=" ">
<polygon fill="white" stroke="red" points="579.5,-684.5 579.5,-703.5 646.5,-703.5 646.5,-684.5 579.5,-684.5"/>
<text text-anchor="middle" x="613" y="-691.5" font-family="Helvetica,sans-Serif" font-size="10.00">DoCooling</text>
</a>
</g>
</g>
<!-- Node2&#45;&gt;Node119 -->
<g id="edge39" class="edge">
<title>Node2&#45;&gt;Node119</title>
<path fill="none" stroke="midnightblue" d="M732.44,-871.79C729.66,-869.84 727.12,-867.58 725,-865 682.38,-812.96 734.88,-767.19 689,-718 678.09,-706.3 661.49,-700.29 646.67,-697.2"/>
<polygon fill="midnightblue" stroke="midnightblue" points="730.82,-874.9 741.24,-876.83 734.3,-868.83 730.82,-874.9"/>
</g>
<!-- Node166 -->
<g id="node32" class="node">
<title>Node166</title>
<g id="a_node32"><a xlink:href="domain_8c.html#af7498987cf21a4bf13bcf9e1472b6fb1" target="_top" xlink:title=" ">
<polygon fill="white" stroke="red" points="543,-646.5 543,-665.5 683,-665.5 683,-646.5 543,-646.5"/>
<text text-anchor="middle" x="613" y="-653.5" font-family="Helvetica,sans-Serif" font-size="10.00">domain_assign_balanced</text>
</a>
</g>
</g>
<!-- Node2&#45;&gt;Node166 -->
<g id="edge40" class="edge">
<title>Node2&#45;&gt;Node166</title>
<path fill="none" stroke="midnightblue" d="M732.75,-872.23C729.83,-870.18 727.16,-867.78 725,-865 672.32,-797.09 747.9,-737.59 689,-675 685.41,-671.18 681.17,-668.09 676.57,-665.59"/>
<polygon fill="midnightblue" stroke="midnightblue" points="731.05,-875.29 741.48,-877.17 734.5,-869.2 731.05,-875.29"/>
</g>
<!-- Node170 -->
<g id="node33" class="node">
<title>Node170</title>
<g id="a_node33"><a xlink:href="domain_8c.html#a8b7c1ba9988b7c05f7d5078d3f3c176c" target="_top" xlink:title=" ">
<polygon fill="white" stroke="black" points="172,-551.5 172,-570.5 331,-570.5 331,-551.5 172,-551.5"/>
<text text-anchor="middle" x="251.5" y="-558.5" font-family="Helvetica,sans-Serif" font-size="10.00">domain_attempt_decompose</text>
</a>
</g>
</g>
<!-- Node2&#45;&gt;Node170 -->
<g id="edge41" class="edge">
<title>Node2&#45;&gt;Node170</title>
<path fill="none" stroke="midnightblue" d="M732.61,-872.34C729.71,-870.27 727.09,-867.84 725,-865 655.58,-770.7 773.39,-685.18 689,-604 663.79,-579.75 449.89,-568.16 331.15,-563.55"/>
<polygon fill="midnightblue" stroke="midnightblue" points="730.88,-875.39 741.3,-877.3 734.35,-869.31 730.88,-875.39"/>
</g>
<!-- Node168 -->
<g id="node34" class="node">
<title>Node168</title>
<g id="a_node34"><a xlink:href="domain_8c.html#a60c51b92b4bd66165bb14fab993da4f0" target="_top" xlink:title=" ">
<polygon fill="white" stroke="red" points="0,-522.5 0,-541.5 136,-541.5 136,-522.5 0,-522.5"/>
<text text-anchor="middle" x="68" y="-529.5" font-family="Helvetica,sans-Serif" font-size="10.00">domain_decompose_full</text>
</a>
</g>
</g>
<!-- Node2&#45;&gt;Node168 -->
<g id="edge47" class="edge">
<title>Node2&#45;&gt;Node168</title>
<path fill="none" stroke="midnightblue" d="M732.66,-872.3C729.76,-870.23 727.12,-867.82 725,-865 663.38,-782.98 763.22,-707.82 689,-637 647.19,-597.1 227.65,-595.58 172,-580 139.7,-570.96 104.88,-552.76 85.13,-541.55"/>
<polygon fill="midnightblue" stroke="midnightblue" points="730.95,-875.35 741.37,-877.25 734.41,-869.27 730.95,-875.35"/>
</g>
<!-- Node171 -->
<g id="node35" class="node">
<title>Node171</title>
<g id="a_node35"><a xlink:href="exchange_8c.html#a1bdd3526ea369a324852d39e3b5d10dc" target="_top" xlink:title=" ">
<polygon fill="white" stroke="black" points="379.5,-456.5 379.5,-475.5 488.5,-475.5 488.5,-456.5 379.5,-456.5"/>
<text text-anchor="middle" x="434" y="-463.5" font-family="Helvetica,sans-Serif" font-size="10.00">domain_build_plan</text>
</a>
</g>
</g>
<!-- Node2&#45;&gt;Node171 -->
<g id="edge43" class="edge">
<title>Node2&#45;&gt;Node171</title>
<path fill="none" stroke="midnightblue" d="M732.23,-872.24C729.46,-870.19 726.97,-867.79 725,-865 676.77,-796.57 748.24,-549.15 689,-490 632.11,-433.2 528.21,-444.87 472.56,-456.48"/>
<polygon fill="midnightblue" stroke="midnightblue" points="730.75,-875.42 741.15,-877.41 734.26,-869.37 730.75,-875.42"/>
</g>
<!-- Node172 -->
<g id="node36" class="node">
<title>Node172</title>
<g id="a_node36"><a xlink:href="exchange_8c.html#af794ce127bda2ca9ae13900960db03b0" target="_top" xlink:title=" ">
<polygon fill="white" stroke="red" points="198.5,-494.5 198.5,-513.5 304.5,-513.5 304.5,-494.5 198.5,-494.5"/>
<text text-anchor="middle" x="251.5" y="-501.5" font-family="Helvetica,sans-Serif" font-size="10.00">domain_exchange</text>
</a>
</g>
</g>
<!-- Node2&#45;&gt;Node172 -->
<g id="edge48" class="edge">
<title>Node2&#45;&gt;Node172</title>
<path fill="none" stroke="midnightblue" d="M732.25,-872.22C729.48,-870.17 726.98,-867.79 725,-865 680.22,-801.99 745.52,-571.74 689,-519 634.74,-468.37 408.24,-486.4 304.64,-497.69"/>
<polygon fill="midnightblue" stroke="midnightblue" points="730.77,-875.41 741.18,-877.39 734.28,-869.35 730.77,-875.41"/>
</g>
<!-- Node182 -->
<g id="node37" class="node">
<title>Node182</title>
<g id="a_node37"><a xlink:href="domain_8c.html#a218ac8b92cd8ca0550e622cad7adf068" target="_top" xlink:title=" ">
<polygon fill="white" stroke="red" points="367,-311 367,-341 501,-341 501,-311 367,-311"/>
<text text-anchor="start" x="375" y="-329" font-family="Helvetica,sans-Serif" font-size="10.00">domain_check_for_local</text>
<text text-anchor="middle" x="434" y="-318" font-family="Helvetica,sans-Serif" font-size="10.00">_refine_subsample</text>
</a>
</g>
</g>
<!-- Node2&#45;&gt;Node182 -->
<g id="edge46" class="edge">
<title>Node2&#45;&gt;Node182</title>
<path fill="none" stroke="midnightblue" d="M732.6,-872.63C729.66,-870.5 727.03,-867.97 725,-865 658.11,-767.19 774.45,-415.09 689,-333 634.13,-280.28 537.88,-295.43 480.93,-310.92"/>
<polygon fill="midnightblue" stroke="midnightblue" points="731.05,-875.77 741.47,-877.67 734.51,-869.69 731.05,-875.77"/>
</g>
<!-- Node184 -->
<g id="node38" class="node">
<title>Node184</title>
<g id="a_node38"><a xlink:href="exchange_8c.html#a506bfd8f0d5e80d66191a76c0cc7b4cd" target="_top" xlink:title=" ">
<polygon fill="white" stroke="black" points="367,-418.5 367,-437.5 501,-437.5 501,-418.5 367,-418.5"/>
<text text-anchor="middle" x="434" y="-425.5" font-family="Helvetica,sans-Serif" font-size="10.00">domain_exchange_once</text>
</a>
</g>
</g>
<!-- Node2&#45;&gt;Node184 -->
<g id="edge49" class="edge">
<title>Node2&#45;&gt;Node184</title>
<path fill="none" stroke="midnightblue" d="M732.2,-872.26C729.43,-870.21 726.95,-867.8 725,-865 671.07,-787.59 756.7,-507.71 689,-442 663.21,-416.97 567.55,-418.11 501.29,-422.26"/>
<polygon fill="midnightblue" stroke="midnightblue" points="730.71,-875.44 741.11,-877.44 734.22,-869.39 730.71,-875.44"/>
</g>
<!-- Node185 -->
<g id="node39" class="node">
<title>Node185</title>
<g id="a_node39"><a xlink:href="exchange_8c.html#ad0a5952d7a5b297dd06c373acdaf552f" target="_top" xlink:title=" ">
<polygon fill="white" stroke="black" points="368,-532.5 368,-551.5 500,-551.5 500,-532.5 368,-532.5"/>
<text text-anchor="middle" x="434" y="-539.5" font-family="Helvetica,sans-Serif" font-size="10.00">domain_find_iter_space</text>
</a>
</g>
</g>
<!-- Node2&#45;&gt;Node185 -->
<g id="edge51" class="edge">
<title>Node2&#45;&gt;Node185</title>
<path fill="none" stroke="midnightblue" d="M732.56,-872.38C729.67,-870.3 727.06,-867.86 725,-865 646.58,-756.53 784.85,-659.43 689,-566 631.75,-510.2 528.96,-521.15 473.31,-532.47"/>
<polygon fill="midnightblue" stroke="midnightblue" points="730.82,-875.42 741.24,-877.35 734.3,-869.34 730.82,-875.42"/>
</g>
<!-- Node186 -->
<g id="node40" class="node">
<title>Node186</title>
<g id="a_node40"><a xlink:href="domain_8c.html#a81b9c6e72edbb78aa68fcea5e1c34a7f" target="_top" xlink:title=" ">
<polygon fill="white" stroke="red" points="368.5,-249 368.5,-279 499.5,-279 499.5,-249 368.5,-249"/>
<text text-anchor="start" x="376.5" y="-267" font-family="Helvetica,sans-Serif" font-size="10.00">domain_nonrecursively</text>
<text text-anchor="middle" x="434" y="-256" font-family="Helvetica,sans-Serif" font-size="10.00">_combine_topTree</text>
</a>
</g>
</g>
<!-- Node2&#45;&gt;Node186 -->
<g id="edge53" class="edge">
<title>Node2&#45;&gt;Node186</title>
<path fill="none" stroke="midnightblue" d="M732.58,-872.65C729.64,-870.51 727.02,-867.98 725,-865 687.03,-808.98 738.25,-303.42 689,-257 630.41,-201.78 526.27,-228.85 471.3,-248.94"/>
<polygon fill="midnightblue" stroke="midnightblue" points="731.02,-875.79 741.44,-877.69 734.48,-869.7 731.02,-875.79"/>
</g>
<!-- Node187 -->
<g id="node41" class="node">
<title>Node187</title>
<g id="a_node41"><a xlink:href="exchange_8c.html#a285784bd5ff2c9b8328789a8a093e445" target="_top" xlink:title=" ">
<polygon fill="white" stroke="red" points="537,-380.5 537,-399.5 689,-399.5 689,-380.5 537,-380.5"/>
<text text-anchor="middle" x="613" y="-387.5" font-family="Helvetica,sans-Serif" font-size="10.00">domain_test_id_uniqueness</text>
</a>
</g>
</g>
<!-- Node2&#45;&gt;Node187 -->
<g id="edge54" class="edge">
<title>Node2&#45;&gt;Node187</title>
<path fill="none" stroke="midnightblue" d="M732.18,-872.27C729.42,-870.21 726.95,-867.81 725,-865 667.74,-782.36 751.46,-492.78 689,-414 683.99,-407.68 677.3,-403 669.98,-399.53"/>
<polygon fill="midnightblue" stroke="midnightblue" points="730.69,-875.45 741.1,-877.45 734.21,-869.4 730.69,-875.45"/>
</g>
<!-- Node188 -->
<g id="node42" class="node">
<title>Node188</title>
<g id="a_node42"><a xlink:href="domain_8c.html#a19888720c7b8c2ff51300de4801151a0" target="_top" xlink:title=" ">
<polygon fill="white" stroke="black" points="547.5,-266.5 547.5,-285.5 678.5,-285.5 678.5,-266.5 547.5,-266.5"/>
<text text-anchor="middle" x="613" y="-273.5" font-family="Helvetica,sans-Serif" font-size="10.00">domain_toptree_merge</text>
</a>
</g>
</g>
<!-- Node2&#45;&gt;Node188 -->
<g id="edge57" class="edge">
<title>Node2&#45;&gt;Node188</title>
<path fill="none" stroke="midnightblue" d="M732.59,-872.64C729.65,-870.5 727.03,-867.98 725,-865 654.18,-761.01 766.37,-399.21 689,-300 684.12,-293.75 677.61,-289.1 670.44,-285.64"/>
<polygon fill="midnightblue" stroke="midnightblue" points="731.04,-875.78 741.46,-877.68 734.5,-869.7 731.04,-875.78"/>
</g>
<!-- Node189 -->
<g id="node43" class="node">
<title>Node189</title>
<g id="a_node43"><a xlink:href="domain_8c.html#a7a2dff4d8f64c8406ab9138321fe49e5" target="_top" xlink:title=" ">
<polygon fill="white" stroke="black" points="553,-342.5 553,-361.5 673,-361.5 673,-342.5 553,-342.5"/>
<text text-anchor="middle" x="613" y="-349.5" font-family="Helvetica,sans-Serif" font-size="10.00">domain_toptree_split</text>
</a>
</g>
</g>
<!-- Node2&#45;&gt;Node189 -->
<g id="edge59" class="edge">
<title>Node2&#45;&gt;Node189</title>
<path fill="none" stroke="midnightblue" d="M732.62,-872.62C729.68,-870.49 727.04,-867.97 725,-865 662.63,-774.31 759.72,-455.35 689,-371 684.69,-365.85 679.19,-361.99 673.15,-359.11"/>
<polygon fill="midnightblue" stroke="midnightblue" points="731.07,-875.76 741.49,-877.66 734.53,-869.68 731.07,-875.76"/>
</g>
<!-- Node190 -->
<g id="node44" class="node">
<title>Node190</title>
<g id="a_node44"><a xlink:href="drift_8c.html#a5dc18d2303c140777f7f219b21d0f00b" target="_top" xlink:title=" ">
<polygon fill="white" stroke="red" points="562.5,-190.5 562.5,-209.5 663.5,-209.5 663.5,-190.5 562.5,-190.5"/>
<text text-anchor="middle" x="613" y="-197.5" font-family="Helvetica,sans-Serif" font-size="10.00">drift_all_particles</text>
</a>
</g>
</g>
<!-- Node2&#45;&gt;Node190 -->
<g id="edge61" class="edge">
<title>Node2&#45;&gt;Node190</title>
<path fill="none" stroke="midnightblue" d="M732.57,-872.65C729.63,-870.51 727.02,-867.99 725,-865 645.14,-746.78 776.31,-336.83 689,-224 682.64,-215.78 673.45,-210.33 663.66,-206.72"/>
<polygon fill="midnightblue" stroke="midnightblue" points="731.01,-875.79 741.43,-877.7 734.47,-869.71 731.01,-875.79"/>
</g>
<!-- Node191 -->
<g id="node45" class="node">
<title>Node191</title>
<g id="a_node45"><a xlink:href="treewalk_8c.html#a0b5feaa7a56276366d62ca281d2d3060" target="_top" xlink:title=" ">
<polygon fill="white" stroke="red" points="582.5,-152.5 582.5,-171.5 643.5,-171.5 643.5,-152.5 582.5,-152.5"/>
<text text-anchor="middle" x="613" y="-159.5" font-family="Helvetica,sans-Serif" font-size="10.00">ev_begin</text>
</a>
</g>
</g>
<!-- Node2&#45;&gt;Node191 -->
<g id="edge62" class="edge">
<title>Node2&#45;&gt;Node191</title>
<path fill="none" stroke="midnightblue" d="M732.56,-872.66C729.63,-870.52 727.01,-867.99 725,-865 640.02,-738.72 785.61,-298.62 689,-181 678.17,-167.82 659.63,-163.04 643.69,-161.57"/>
<polygon fill="midnightblue" stroke="midnightblue" points="731,-875.8 741.42,-877.71 734.46,-869.72 731,-875.8"/>
</g>
<!-- Node202 -->
<g id="node46" class="node">
<title>Node202</title>
<g id="a_node46"><a xlink:href="checkpoint_8c.html#afa525d0629e73e8e9676075503f5bac7" target="_top" xlink:title=" ">
<polygon fill="white" stroke="red" points="559,-114.5 559,-133.5 667,-133.5 667,-114.5 559,-114.5"/>
<text text-anchor="middle" x="613" y="-121.5" font-family="Helvetica,sans-Serif" font-size="10.00">find_last_snapnum</text>
</a>
</g>
</g>
<!-- Node2&#45;&gt;Node202 -->
<g id="edge63" class="edge">
<title>Node2&#45;&gt;Node202</title>
<path fill="none" stroke="midnightblue" d="M732.55,-872.67C729.62,-870.53 727.01,-867.99 725,-865 680.25,-798.3 739.9,-205.14 689,-143 683.38,-136.14 675.68,-131.56 667.33,-128.53"/>
<polygon fill="midnightblue" stroke="midnightblue" points="730.99,-875.8 741.41,-877.72 734.45,-869.72 730.99,-875.8"/>
</g>
<!-- Node204 -->
<g id="node47" class="node">
<title>Node204</title>
<g id="a_node47"><a xlink:href="fof_8c.html#a16942d501e7ac23fdccef42ef0f3b63b" target="_top" xlink:title=" ">
<polygon fill="white" stroke="red" points="549,-76.5 549,-95.5 677,-95.5 677,-76.5 549,-76.5"/>
<text text-anchor="middle" x="613" y="-83.5" font-family="Helvetica,sans-Serif" font-size="10.00">fof_compile_catalogue</text>
</a>
</g>
</g>
<!-- Node2&#45;&gt;Node204 -->
<g id="edge64" class="edge">
<title>Node2&#45;&gt;Node204</title>
<path fill="none" stroke="midnightblue" d="M732.54,-872.67C729.61,-870.53 727,-868 725,-865 677.98,-794.74 742.49,-170.47 689,-105 685.69,-100.94 681.64,-97.68 677.16,-95.07"/>
<polygon fill="midnightblue" stroke="midnightblue" points="730.98,-875.81 741.4,-877.72 734.45,-869.73 730.98,-875.81"/>
</g>
<!-- Node174 -->
<g id="node48" class="node">
<title>Node174</title>
<g id="a_node48"><a xlink:href="fofpetaio_8c.html#a1acbf084a8ae3acf80bc22e10715a5de" target="_top" xlink:title=" ">
<polygon fill="white" stroke="red" points="548.5,-38.5 548.5,-57.5 677.5,-57.5 677.5,-38.5 548.5,-38.5"/>
<text text-anchor="middle" x="613" y="-45.5" font-family="Helvetica,sans-Serif" font-size="10.00">fof_distribute_particles</text>
</a>
</g>
</g>
<!-- Node2&#45;&gt;Node174 -->
<g id="edge65" class="edge">
<title>Node2&#45;&gt;Node174</title>
<path fill="none" stroke="midnightblue" d="M732.53,-872.67C729.61,-870.53 727,-868 725,-865 675.72,-791.18 745.08,-135.8 689,-67 685.78,-63.04 681.86,-59.84 677.52,-57.26"/>
<polygon fill="midnightblue" stroke="midnightblue" points="730.97,-875.81 741.39,-877.73 734.44,-869.73 730.97,-875.81"/>
</g>
<!-- Node194 -->
<g id="node49" class="node">
<title>Node194</title>
<g id="a_node49"><a xlink:href="fof_8c.html#acdac83ed649364bfe1f14e9c572c7f2f" target="_top" xlink:title=" ">
<polygon fill="white" stroke="red" points="555.5,-0.5 555.5,-19.5 670.5,-19.5 670.5,-0.5 555.5,-0.5"/>
<text text-anchor="middle" x="613" y="-7.5" font-family="Helvetica,sans-Serif" font-size="10.00">fof_label_secondary</text>
</a>
</g>
</g>
<!-- Node2&#45;&gt;Node194 -->
<g id="edge66" class="edge">
<title>Node2&#45;&gt;Node194</title>
<path fill="none" stroke="midnightblue" d="M732.53,-872.68C729.6,-870.54 727,-868 725,-865 673.46,-787.62 747.67,-101.13 689,-29 684.17,-23.06 677.77,-18.82 670.74,-15.83"/>
<polygon fill="midnightblue" stroke="midnightblue" points="730.96,-875.82 741.39,-877.73 734.43,-869.74 730.96,-875.82"/>
</g>
<!-- Node53&#45;&gt;Node63 -->
<g id="edge8" class="edge">
<title>Node53&#45;&gt;Node63</title>
<path fill="none" stroke="midnightblue" d="M550.31,-1561.38C531.37,-1559.35 510.62,-1557.12 492.01,-1555.12"/>
<polygon fill="midnightblue" stroke="midnightblue" points="550.01,-1564.87 560.33,-1562.45 550.76,-1557.91 550.01,-1564.87"/>
</g>
<!-- Node81&#45;&gt;Node82 -->
<g id="edge19" class="edge">
<title>Node81&#45;&gt;Node82</title>
<path fill="none" stroke="midnightblue" d="M562.09,-1041.36C539.2,-1043.81 512.02,-1046.73 488.69,-1049.24"/>
<polygon fill="midnightblue" stroke="midnightblue" points="562.71,-1044.81 572.28,-1040.26 561.96,-1037.85 562.71,-1044.81"/>
</g>
<!-- Node81&#45;&gt;Node85 -->
<g id="edge20" class="edge">
<title>Node81&#45;&gt;Node85</title>
<path fill="none" stroke="midnightblue" d="M562.33,-1027.86C536.56,-1023.64 505.3,-1018.52 480.2,-1014.41"/>
<polygon fill="midnightblue" stroke="midnightblue" points="561.84,-1031.33 572.28,-1029.49 562.98,-1024.42 561.84,-1031.33"/>
</g>
<!-- Node111&#45;&gt;Node91 -->
<g id="edge26" class="edge">
<title>Node111&#45;&gt;Node91</title>
<path fill="none" stroke="midnightblue" d="M550.05,-877.35C532.25,-875.44 512.86,-873.36 495.16,-871.46"/>
<polygon fill="midnightblue" stroke="midnightblue" points="550.01,-880.87 560.33,-878.45 550.76,-873.91 550.01,-880.87"/>
</g>
<!-- Node112&#45;&gt;Node113 -->
<g id="edge28" class="edge">
<title>Node112&#45;&gt;Node113</title>
<path fill="none" stroke="midnightblue" d="M529.63,-761.16C516.95,-759.8 504.09,-758.42 492.12,-757.13"/>
<polygon fill="midnightblue" stroke="midnightblue" points="529.44,-764.66 539.75,-762.24 530.18,-757.7 529.44,-764.66"/>
</g>
<!-- Node148&#45;&gt;Node73 -->
<g id="edge30" class="edge">
<title>Node148&#45;&gt;Node73</title>
<path fill="none" stroke="midnightblue" d="M548.23,-1256.07C529.57,-1253.75 509.32,-1251.24 491.17,-1248.98"/>
<polygon fill="midnightblue" stroke="midnightblue" points="548.06,-1259.58 558.41,-1257.34 548.92,-1252.63 548.06,-1259.58"/>
</g>
<!-- Node148&#45;&gt;Node150 -->
<g id="edge31" class="edge">
<title>Node148&#45;&gt;Node150</title>
<path fill="none" stroke="midnightblue" d="M557.26,-1275.75C532.23,-1281.13 502.97,-1287.41 479.34,-1292.48"/>
<polygon fill="midnightblue" stroke="midnightblue" points="558.29,-1279.11 567.34,-1273.59 556.82,-1272.27 558.29,-1279.11"/>
</g>
<!-- Node164&#45;&gt;Node72 -->
<g id="edge35" class="edge">
<title>Node164&#45;&gt;Node72</title>
<path fill="none" stroke="midnightblue" d="M557.54,-1345.85C532.96,-1348.48 504.25,-1351.57 480.8,-1354.08"/>
<polygon fill="midnightblue" stroke="midnightblue" points="558.22,-1349.29 567.79,-1344.75 557.48,-1342.33 558.22,-1349.29"/>
</g>
<!-- Node164&#45;&gt;Node150 -->
<g id="edge36" class="edge">
<title>Node164&#45;&gt;Node150</title>
<path fill="none" stroke="midnightblue" d="M558.01,-1328.41C532.78,-1322.99 503.13,-1316.63 479.26,-1311.5"/>
<polygon fill="midnightblue" stroke="midnightblue" points="557.28,-1331.83 567.79,-1330.51 558.75,-1324.99 557.28,-1331.83"/>
</g>
<!-- Node170&#45;&gt;Node168 -->
<g id="edge42" class="edge">
<title>Node170&#45;&gt;Node168</title>
<path fill="none" stroke="midnightblue" d="M180.84,-549.87C163.65,-547.12 145.39,-544.21 128.72,-541.54"/>
<polygon fill="midnightblue" stroke="midnightblue" points="180.39,-553.34 190.82,-551.46 181.5,-546.43 180.39,-553.34"/>
</g>
<!-- Node171&#45;&gt;Node172 -->
<g id="edge44" class="edge">
<title>Node171&#45;&gt;Node172</title>
<path fill="none" stroke="midnightblue" d="M377.52,-477.68C351.92,-483.07 321.92,-489.39 297.72,-494.48"/>
<polygon fill="midnightblue" stroke="midnightblue" points="378.39,-481.07 387.45,-475.59 376.95,-474.22 378.39,-481.07"/>
</g>
<!-- Node172&#45;&gt;Node168 -->
<g id="edge45" class="edge">
<title>Node172&#45;&gt;Node168</title>
<path fill="none" stroke="midnightblue" d="M188.6,-513.55C169.89,-516.44 149.35,-519.6 130.66,-522.49"/>
<polygon fill="midnightblue" stroke="midnightblue" points="189.14,-517.01 198.49,-512.02 188.07,-510.09 189.14,-517.01"/>
</g>
<!-- Node184&#45;&gt;Node172 -->
<g id="edge50" class="edge">
<title>Node184&#45;&gt;Node172</title>
<path fill="none" stroke="midnightblue" d="M385.48,-440.55C379.21,-442.54 372.91,-444.7 367,-447 331.2,-460.93 291.5,-482.06 269.51,-494.3"/>
<polygon fill="midnightblue" stroke="midnightblue" points="386.71,-443.84 395.26,-437.59 384.67,-437.14 386.71,-443.84"/>
</g>
<!-- Node185&#45;&gt;Node172 -->
<g id="edge52" class="edge">
<title>Node185&#45;&gt;Node172</title>
<path fill="none" stroke="midnightblue" d="M377.52,-530.32C351.92,-524.93 321.92,-518.61 297.72,-513.52"/>
<polygon fill="midnightblue" stroke="midnightblue" points="376.95,-533.78 387.45,-532.41 378.39,-526.93 376.95,-533.78"/>
</g>
<!-- Node187&#45;&gt;Node168 -->
<g id="edge55" class="edge">
<title>Node187&#45;&gt;Node168</title>
<path fill="none" stroke="midnightblue" d="M526.65,-390.48C479.13,-392.28 419.21,-397.08 367,-409 276.32,-429.71 257.68,-448.79 172,-485 142.85,-497.32 109.63,-512.73 88.98,-522.48"/>
<polygon fill="midnightblue" stroke="midnightblue" points="527.02,-393.97 536.9,-390.14 526.79,-386.98 527.02,-393.97"/>
</g>
<!-- Node187&#45;&gt;Node184 -->
<g id="edge56" class="edge">
<title>Node187&#45;&gt;Node184</title>
<path fill="none" stroke="midnightblue" d="M557.26,-401.75C532.23,-407.13 502.97,-413.41 479.34,-418.48"/>
<polygon fill="midnightblue" stroke="midnightblue" points="558.29,-405.11 567.34,-399.59 556.82,-398.27 558.29,-405.11"/>
</g>
<!-- Node188&#45;&gt;Node186 -->
<g id="edge58" class="edge">
<title>Node188&#45;&gt;Node186</title>
<path fill="none" stroke="midnightblue" d="M537.04,-270.92C524.65,-270.08 511.89,-269.21 499.77,-268.39"/>
<polygon fill="midnightblue" stroke="midnightblue" points="537.13,-274.43 547.35,-271.62 537.61,-267.45 537.13,-274.43"/>
</g>
<!-- Node189&#45;&gt;Node182 -->
<g id="edge60" class="edge">
<title>Node189&#45;&gt;Node182</title>
<path fill="none" stroke="midnightblue" d="M542.37,-341.77C528.84,-339.78 514.7,-337.71 501.28,-335.74"/>
<polygon fill="midnightblue" stroke="midnightblue" points="542.17,-345.28 552.57,-343.27 543.18,-338.35 542.17,-345.28"/>
</g>
</g>
</svg>
