<?xml version="1.0" encoding="UTF-8" standalone="no"?>
<!DOCTYPE svg PUBLIC "-//W3C//DTD SVG 1.1//EN"
 "http://www.w3.org/Graphics/SVG/1.1/DTD/svg11.dtd">
<!-- Generated by graphviz version 2.38.0 (20140413.2041)
 -->
<!-- Title: event.h Pages: 1 -->
<svg width="359pt" height="315pt"
 viewBox="0.00 0.00 358.82 314.77" xmlns="http://www.w3.org/2000/svg" xmlns:xlink="http://www.w3.org/1999/xlink">
<g id="graph0" class="graph" transform="scale(1 1) rotate(0) translate(4 310.771)">
<title>event.h</title>
<polygon fill="white" stroke="none" points="-4,4 -4,-310.771 354.824,-310.771 354.824,4 -4,4"/>
<!-- Node1 -->
<g id="node1" class="node"><title>Node1</title>
<polygon fill="#bfbfbf" stroke="black" points="210.414,-169.895 210.414,-188.895 259.414,-188.895 259.414,-169.895 210.414,-169.895"/>
<text text-anchor="middle" x="234.914" y="-176.895" font-family="Helvetica,sans-Serif" font-size="10.00">event.h</text>
</g>
<!-- Node2 -->
<g id="node2" class="node"><title>Node2</title>
<g id="a_node2"><a xlink:href="slotsmanager_8h.html" target="_top" xlink:title="slotsmanager.h">
<polygon fill="white" stroke="black" points="59.138,-117.876 59.138,-136.876 142.138,-136.876 142.138,-117.876 59.138,-117.876"/>
<text text-anchor="middle" x="100.638" y="-124.876" font-family="Helvetica,sans-Serif" font-size="10.00">slotsmanager.h</text>
</a>
</g>
</g>
<!-- Node1&#45;&gt;Node2 -->
<g id="edge1" class="edge"><title>Node1&#45;&gt;Node2</title>
<path fill="none" stroke="midnightblue" d="M200.725,-166.15C177.285,-157.069 146.721,-145.229 125.565,-137.033"/>
<polygon fill="midnightblue" stroke="midnightblue" points="199.697,-169.505 210.286,-169.854 202.225,-162.978 199.697,-169.505"/>
</g>
<!-- Node10 -->
<g id="node10" class="node"><title>Node10</title>
<g id="a_node10"><a xlink:href="forcetree_8c.html" target="_top" xlink:title="gravitational tree and code for Ewald correction ">
<polygon fill="white" stroke="black" points="136.276,-143.886 136.276,-162.886 199.276,-162.886 199.276,-143.886 136.276,-143.886"/>
<text text-anchor="middle" x="167.776" y="-150.886" font-family="Helvetica,sans-Serif" font-size="10.00">forcetree.c</text>
</a>
</g>
</g>
<!-- Node1&#45;&gt;Node10 -->
<g id="edge20" class="edge"><title>Node1&#45;&gt;Node10</title>
<path fill="none" stroke="midnightblue" d="M200.778,-166.171C197.95,-165.075 195.128,-163.982 192.392,-162.922"/>
<polygon fill="midnightblue" stroke="midnightblue" points="199.706,-169.509 210.296,-169.858 202.235,-162.982 199.706,-169.509"/>
</g>
<!-- Node18 -->
<g id="node18" class="node"><title>Node18</title>
<g id="a_node18"><a xlink:href="slotsmanager_8c.html" target="_top" xlink:title="slotsmanager.c">
<polygon fill="white" stroke="black" points="267.824,-170.346 267.824,-189.346 350.824,-189.346 350.824,-170.346 267.824,-170.346"/>
<text text-anchor="middle" x="309.324" y="-177.346" font-family="Helvetica,sans-Serif" font-size="10.00">slotsmanager.c</text>
</a>
</g>
</g>
<!-- Node1&#45;&gt;Node18 -->
<g id="edge21" class="edge"><title>Node1&#45;&gt;Node18</title>
<path fill="none" stroke="midnightblue" d="M267.516,-179.593C267.601,-179.593 267.687,-179.594 267.773,-179.594"/>
<polygon fill="midnightblue" stroke="midnightblue" points="269.713,-176.106 259.691,-179.545 269.67,-183.106 269.713,-176.106"/>
</g>
<!-- Node20 -->
<g id="node20" class="node"><title>Node20</title>
<g id="a_node20"><a xlink:href="event_8c.html" target="_top" xlink:title="event.c">
<polygon fill="white" stroke="black" points="265.707,-219.692 265.707,-238.692 314.707,-238.692 314.707,-219.692 265.707,-219.692"/>
<text text-anchor="middle" x="290.207" y="-226.692" font-family="Helvetica,sans-Serif" font-size="10.00">event.c</text>
</a>
</g>
</g>
<!-- Node1&#45;&gt;Node20 -->
<g id="edge19" class="edge"><title>Node1&#45;&gt;Node20</title>
<path fill="none" stroke="midnightblue" d="M253.105,-195.778C261.876,-203.677 272.09,-212.876 279.579,-219.62"/>
<polygon fill="midnightblue" stroke="midnightblue" points="255.348,-193.088 245.575,-188.996 250.664,-198.289 255.348,-193.088"/>
</g>
<!-- Node3 -->
<g id="node3" class="node"><title>Node3</title>
<g id="a_node3"><a xlink:href="begrun_8c.html" target="_top" xlink:title="initial set&#45;up of a simulation run ">
<polygon fill="white" stroke="black" points="227.555,-258.8 227.555,-277.8 281.555,-277.8 281.555,-258.8 227.555,-258.8"/>
<text text-anchor="middle" x="254.555" y="-265.8" font-family="Helvetica,sans-Serif" font-size="10.00">begrun.c</text>
</a>
</g>
</g>
<!-- Node2&#45;&gt;Node3 -->
<g id="edge2" class="edge"><title>Node2&#45;&gt;Node3</title>
<path fill="none" stroke="midnightblue" d="M118.645,-143.863C150.974,-173.463 217.903,-234.742 243.902,-258.546"/>
<polygon fill="midnightblue" stroke="midnightblue" points="120.956,-141.234 111.217,-137.063 116.229,-146.397 120.956,-141.234"/>
</g>
<!-- Node4 -->
<g id="node4" class="node"><title>Node4</title>
<g id="a_node4"><a xlink:href="blackhole_8c.html" target="_top" xlink:title="routines for gas accretion onto black holes, and black hole mergers ">
<polygon fill="white" stroke="black" points="174.183,-282.389 174.183,-301.389 240.183,-301.389 240.183,-282.389 174.183,-282.389"/>
<text text-anchor="middle" x="207.183" y="-289.389" font-family="Helvetica,sans-Serif" font-size="10.00">blackhole.c</text>
</a>
</g>
</g>
<!-- Node2&#45;&gt;Node4 -->
<g id="edge3" class="edge"><title>Node2&#45;&gt;Node4</title>
<path fill="none" stroke="midnightblue" d="M112.659,-145.937C135.37,-181.005 183.843,-255.849 201.004,-282.348"/>
<polygon fill="midnightblue" stroke="midnightblue" points="115.358,-143.666 106.984,-137.175 109.482,-147.471 115.358,-143.666"/>
</g>
<!-- Node5 -->
<g id="node5" class="node"><title>Node5</title>
<g id="a_node5"><a xlink:href="density_8c.html" target="_top" xlink:title="SPH density computation and smoothing length determination. ">
<polygon fill="white" stroke="black" points="126.489,-287.271 126.489,-306.271 182.489,-306.271 182.489,-287.271 126.489,-287.271"/>
<text text-anchor="middle" x="154.489" y="-294.271" font-family="Helvetica,sans-Serif" font-size="10.00">density.c</text>
</a>
</g>
</g>
<!-- Node2&#45;&gt;Node5 -->
<g id="edge4" class="edge"><title>Node2&#45;&gt;Node5</title>
<path fill="none" stroke="midnightblue" d="M106.816,-146.81C118.325,-183.014 142.667,-259.583 151.339,-286.862"/>
<polygon fill="midnightblue" stroke="midnightblue" points="110.053,-145.439 103.688,-136.969 103.382,-147.56 110.053,-145.439"/>
</g>
<!-- Node6 -->
<g id="node6" class="node"><title>Node6</title>
<g id="a_node6"><a xlink:href="domain_8c.html" target="_top" xlink:title="code for domain decomposition ">
<polygon fill="white" stroke="black" points="75.5897,-272.789 75.5897,-291.789 131.59,-291.789 131.59,-272.789 75.5897,-272.789"/>
<text text-anchor="middle" x="103.59" y="-279.789" font-family="Helvetica,sans-Serif" font-size="10.00">domain.c</text>
</a>
</g>
</g>
<!-- Node2&#45;&gt;Node6 -->
<g id="edge5" class="edge"><title>Node2&#45;&gt;Node6</title>
<path fill="none" stroke="midnightblue" d="M101.021,-147.485C101.663,-181.162 102.931,-247.72 103.405,-272.602"/>
<polygon fill="midnightblue" stroke="midnightblue" points="104.513,-146.998 100.823,-137.067 97.5139,-147.132 104.513,-146.998"/>
</g>
<!-- Node7 -->
<g id="node7" class="node"><title>Node7</title>
<g id="a_node7"><a xlink:href="drift_8c.html" target="_top" xlink:title="drift.c">
<polygon fill="white" stroke="black" points="40.8587,-240.898 40.8587,-259.898 81.8587,-259.898 81.8587,-240.898 40.8587,-240.898"/>
<text text-anchor="middle" x="61.3587" y="-247.898" font-family="Helvetica,sans-Serif" font-size="10.00">drift.c</text>
</a>
</g>
</g>
<!-- Node2&#45;&gt;Node7 -->
<g id="edge6" class="edge"><title>Node2&#45;&gt;Node7</title>
<path fill="none" stroke="midnightblue" d="M94.4389,-146.792C85.906,-173.517 70.8674,-220.617 64.4266,-240.789"/>
<polygon fill="midnightblue" stroke="midnightblue" points="97.8483,-147.62 97.5558,-137.03 91.18,-145.491 97.8483,-147.62"/>
</g>
<!-- Node8 -->
<g id="node8" class="node"><title>Node8</title>
<g id="a_node8"><a xlink:href="exchange_8c.html" target="_top" xlink:title="exchange.c">
<polygon fill="white" stroke="black" points="7.10543e-15,-195.905 7.10543e-15,-214.905 67,-214.905 67,-195.905 7.10543e-15,-195.905"/>
<text text-anchor="middle" x="33.5" y="-202.905" font-family="Helvetica,sans-Serif" font-size="10.00">exchange.c</text>
</a>
</g>
</g>
<!-- Node2&#45;&gt;Node8 -->
<g id="edge7" class="edge"><title>Node2&#45;&gt;Node8</title>
<path fill="none" stroke="midnightblue" d="M85.584,-144.872C72.0618,-160.588 52.7069,-183.082 41.7998,-195.758"/>
<polygon fill="midnightblue" stroke="midnightblue" points="88.5363,-146.807 92.4056,-136.944 83.2302,-142.242 88.5363,-146.807"/>
</g>
<!-- Node9 -->
<g id="node9" class="node"><title>Node9</title>
<g id="a_node9"><a xlink:href="fof_8c.html" target="_top" xlink:title="parallel FoF group finder ">
<polygon fill="white" stroke="black" points="5.776,-143.886 5.776,-162.886 41.776,-162.886 41.776,-143.886 5.776,-143.886"/>
<text text-anchor="middle" x="23.776" y="-150.886" font-family="Helvetica,sans-Serif" font-size="10.00">fof.c</text>
</a>
</g>
</g>
<!-- Node2&#45;&gt;Node9 -->
<g id="edge8" class="edge"><title>Node2&#45;&gt;Node9</title>
<path fill="none" stroke="midnightblue" d="M62.7697,-140.191C55.5869,-142.621 48.378,-145.061 42.1467,-147.169"/>
<polygon fill="midnightblue" stroke="midnightblue" points="64.1034,-143.434 72.4539,-136.914 61.8596,-136.804 64.1034,-143.434"/>
</g>
<!-- Node2&#45;&gt;Node10 -->
<g id="edge9" class="edge"><title>Node2&#45;&gt;Node10</title>
<path fill="none" stroke="midnightblue" d="M134.774,-140.601C137.602,-141.696 140.424,-142.789 143.16,-143.85"/>
<polygon fill="midnightblue" stroke="midnightblue" points="135.846,-137.262 125.256,-136.914 133.317,-143.79 135.846,-137.262"/>
</g>
<!-- Node11 -->
<g id="node11" class="node"><title>Node11</title>
<g id="a_node11"><a xlink:href="global_8c.html" target="_top" xlink:title="global.c">
<polygon fill="white" stroke="black" points="8.5,-91.8669 8.5,-110.867 58.5,-110.867 58.5,-91.8669 8.5,-91.8669"/>
<text text-anchor="middle" x="33.5" y="-98.8669" font-family="Helvetica,sans-Serif" font-size="10.00">global.c</text>
</a>
</g>
</g>
<!-- Node2&#45;&gt;Node11 -->
<g id="edge10" class="edge"><title>Node2&#45;&gt;Node11</title>
<path fill="none" stroke="midnightblue" d="M66.5019,-114.152C63.6743,-113.057 60.8521,-111.963 58.1155,-110.903"/>
<polygon fill="midnightblue" stroke="midnightblue" points="65.4304,-117.49 76.0195,-117.839 67.9592,-110.963 65.4304,-117.49"/>
</g>
<!-- Node12 -->
<g id="node12" class="node"><title>Node12</title>
<g id="a_node12"><a xlink:href="hydra_8c.html" target="_top" xlink:title="Computation of SPH forces and rate of entropy generation. ">
<polygon fill="white" stroke="black" points="36.8587,-46.8735 36.8587,-65.8735 85.8587,-65.8735 85.8587,-46.8735 36.8587,-46.8735"/>
<text text-anchor="middle" x="61.3587" y="-53.8735" font-family="Helvetica,sans-Serif" font-size="10.00">hydra.c</text>
</a>
</g>
</g>
<!-- Node2&#45;&gt;Node12 -->
<g id="edge11" class="edge"><title>Node2&#45;&gt;Node12</title>
<path fill="none" stroke="midnightblue" d="M90.3685,-108.813C82.8336,-95.1924 72.8954,-77.2277 66.8242,-66.2532"/>
<polygon fill="midnightblue" stroke="midnightblue" points="87.4372,-110.745 95.3406,-117.801 93.5625,-107.356 87.4372,-110.745"/>
</g>
<!-- Node13 -->
<g id="node13" class="node"><title>Node13</title>
<g id="a_node13"><a xlink:href="init_8c.html" target="_top" xlink:title="code for initialisation of a simulation from initial conditions ">
<polygon fill="white" stroke="black" points="84.5897,-14.9822 84.5897,-33.9822 122.59,-33.9822 122.59,-14.9822 84.5897,-14.9822"/>
<text text-anchor="middle" x="103.59" y="-21.9822" font-family="Helvetica,sans-Serif" font-size="10.00">init.c</text>
</a>
</g>
</g>
<!-- Node2&#45;&gt;Node13 -->
<g id="edge12" class="edge"><title>Node2&#45;&gt;Node13</title>
<path fill="none" stroke="midnightblue" d="M101.214,-107.281C101.846,-85.2531 102.834,-50.8317 103.312,-34.168"/>
<polygon fill="midnightblue" stroke="midnightblue" points="97.7093,-107.414 100.921,-117.51 104.706,-107.615 97.7093,-107.414"/>
</g>
<!-- Node14 -->
<g id="node14" class="node"><title>Node14</title>
<g id="a_node14"><a xlink:href="main_8c.html" target="_top" xlink:title="start of the program ">
<polygon fill="white" stroke="black" points="131.489,-0.5 131.489,-19.5 177.489,-19.5 177.489,-0.5 131.489,-0.5"/>
<text text-anchor="middle" x="154.489" y="-7.5" font-family="Helvetica,sans-Serif" font-size="10.00">main.c</text>
</a>
</g>
</g>
<!-- Node2&#45;&gt;Node14 -->
<g id="edge13" class="edge"><title>Node2&#45;&gt;Node14</title>
<path fill="none" stroke="midnightblue" d="M109.305,-108.486C120.917,-83.176 141.095,-39.1951 150.022,-19.7381"/>
<polygon fill="midnightblue" stroke="midnightblue" points="106.034,-107.222 105.045,-117.771 112.396,-110.141 106.034,-107.222"/>
</g>
<!-- Node15 -->
<g id="node15" class="node"><title>Node15</title>
<g id="a_node15"><a xlink:href="petaio_8c.html" target="_top" xlink:title="petaio.c">
<polygon fill="white" stroke="black" points="181.683,-5.38283 181.683,-24.3828 232.683,-24.3828 232.683,-5.38283 181.683,-5.38283"/>
<text text-anchor="middle" x="207.183" y="-12.3828" font-family="Helvetica,sans-Serif" font-size="10.00">petaio.c</text>
</a>
</g>
</g>
<!-- Node2&#45;&gt;Node15 -->
<g id="edge14" class="edge"><title>Node2&#45;&gt;Node15</title>
<path fill="none" stroke="midnightblue" d="M116.664,-110.456C139.345,-86.5083 180.057,-43.5241 198.122,-24.4497"/>
<polygon fill="midnightblue" stroke="midnightblue" points="114.057,-108.118 109.722,-117.785 119.14,-112.932 114.057,-108.118"/>
</g>
<!-- Node16 -->
<g id="node16" class="node"><title>Node16</title>
<g id="a_node16"><a xlink:href="run_8c.html" target="_top" xlink:title="iterates over timesteps, main loop ">
<polygon fill="white" stroke="black" points="235.555,-28.9712 235.555,-47.9712 273.555,-47.9712 273.555,-28.9712 235.555,-28.9712"/>
<text text-anchor="middle" x="254.555" y="-35.9712" font-family="Helvetica,sans-Serif" font-size="10.00">run.c</text>
</a>
</g>
</g>
<!-- Node2&#45;&gt;Node16 -->
<g id="edge15" class="edge"><title>Node2&#45;&gt;Node16</title>
<path fill="none" stroke="midnightblue" d="M125.781,-112.853C157.363,-94.6112 210.686,-63.8108 237.735,-48.1868"/>
<polygon fill="midnightblue" stroke="midnightblue" points="124.019,-109.829 117.11,-117.862 127.52,-115.891 124.019,-109.829"/>
</g>
<!-- Node17 -->
<g id="node17" class="node"><title>Node17</title>
<g id="a_node17"><a xlink:href="sfr__eff_8c.html" target="_top" xlink:title="sfr_eff.c">
<polygon fill="white" stroke="black" points="263.707,-68.0795 263.707,-87.0795 316.707,-87.0795 316.707,-68.0795 263.707,-68.0795"/>
<text text-anchor="middle" x="290.207" y="-75.0795" font-family="Helvetica,sans-Serif" font-size="10.00">sfr_eff.c</text>
</a>
</g>
</g>
<!-- Node2&#45;&gt;Node17 -->
<g id="edge16" class="edge"><title>Node2&#45;&gt;Node17</title>
<path fill="none" stroke="midnightblue" d="M147.132,-115.163C183.713,-105.554 233.388,-92.505 263.549,-84.5822"/>
<polygon fill="midnightblue" stroke="midnightblue" points="145.971,-111.849 137.189,-117.775 147.75,-118.619 145.971,-111.849"/>
</g>
<!-- Node2&#45;&gt;Node18 -->
<g id="edge17" class="edge"><title>Node2&#45;&gt;Node18</title>
<path fill="none" stroke="midnightblue" d="M148.566,-139.427C185.886,-148.81 236.976,-161.655 271.462,-170.326"/>
<polygon fill="midnightblue" stroke="midnightblue" points="148.981,-135.922 138.429,-136.878 147.274,-142.711 148.981,-135.922"/>
</g>
<!-- Node19 -->
<g id="node19" class="node"><title>Node19</title>
<g id="a_node19"><a xlink:href="timestep_8c.html" target="_top" xlink:title="routines for &#39;kicking&#39; particles in momentum space and assigning new timesteps ">
<polygon fill="white" stroke="black" points="278.324,-117.426 278.324,-136.426 340.324,-136.426 340.324,-117.426 278.324,-117.426"/>
<text text-anchor="middle" x="309.324" y="-124.426" font-family="Helvetica,sans-Serif" font-size="10.00">timestep.c</text>
</a>
</g>
</g>
<!-- Node2&#45;&gt;Node19 -->
<g id="edge18" class="edge"><title>Node2&#45;&gt;Node19</title>
<path fill="none" stroke="midnightblue" d="M152.603,-127.264C192.079,-127.179 245.06,-127.065 278.192,-126.993"/>
<polygon fill="midnightblue" stroke="midnightblue" points="152.36,-123.765 142.367,-127.286 152.375,-130.765 152.36,-123.765"/>
</g>
</g>
</svg>
