<?xml version="1.0" encoding="UTF-8" standalone="no"?>
<!DOCTYPE svg PUBLIC "-//W3C//DTD SVG 1.1//EN"
 "http://www.w3.org/Graphics/SVG/1.1/DTD/svg11.dtd">
<!-- Generated by graphviz version 2.50.0 (0)
 -->
<!-- Title: event_unlisten Pages: 1 -->
<svg width="1109pt" height="750pt"
 viewBox="0.00 0.00 1109.00 750.44" xmlns="http://www.w3.org/2000/svg" xmlns:xlink="http://www.w3.org/1999/xlink">
<g id="graph0" class="graph" transform="scale(1 1) rotate(0) translate(4 746.44)">
<title>event_unlisten</title>
<polygon fill="white" stroke="transparent" points="-4,4 -4,-746.44 1105,-746.44 1105,4 -4,4"/>
<!-- Node1 -->
<g id="node1" class="node">
<title>Node1</title>
<g id="a_node1"><a xlink:title=" ">
<polygon fill="#bfbfbf" stroke="black" points="1012,-171.94 1012,-190.94 1101,-190.94 1101,-171.94 1012,-171.94"/>
<text text-anchor="middle" x="1056.5" y="-178.94" font-family="Helvetica,sans-Serif" font-size="10.00">event_unlisten</text>
</a>
</g>
</g>
<!-- Node2 -->
<g id="node2" class="node">
<title>Node2</title>
<g id="a_node2"><a xlink:href="forcetree_8c.html#aaa26dfea4b696133a8bc35c5e0c56037" target="_top" xlink:title=" ">
<polygon fill="white" stroke="black" points="885,-323.94 885,-342.94 976,-342.94 976,-323.94 885,-323.94"/>
<text text-anchor="middle" x="930.5" y="-330.94" font-family="Helvetica,sans-Serif" font-size="10.00">force_tree_free</text>
</a>
</g>
</g>
<!-- Node1&#45;&gt;Node2 -->
<g id="edge1" class="edge">
<title>Node1&#45;&gt;Node2</title>
<path fill="none" stroke="midnightblue" d="M1041.13,-199.05C1014.79,-231.34 959.61,-298.99 939.25,-323.94"/>
<polygon fill="midnightblue" stroke="midnightblue" points="1044.13,-200.91 1047.74,-190.95 1038.71,-196.49 1044.13,-200.91"/>
</g>
<!-- Node37 -->
<g id="node37" class="node">
<title>Node37</title>
<g id="a_node37"><a xlink:href="timestep_8c.html#aec3f9fb84aa5cda053a144da6588ffcd" target="_top" xlink:title=" ">
<polygon fill="white" stroke="black" points="887.5,-152.94 887.5,-171.94 973.5,-171.94 973.5,-152.94 887.5,-152.94"/>
<text text-anchor="middle" x="930.5" y="-159.94" font-family="Helvetica,sans-Serif" font-size="10.00">free_activelist</text>
</a>
</g>
</g>
<!-- Node1&#45;&gt;Node37 -->
<g id="edge64" class="edge">
<title>Node1&#45;&gt;Node37</title>
<path fill="none" stroke="midnightblue" d="M1001.71,-173.2C992.29,-171.76 982.62,-170.27 973.57,-168.89"/>
<polygon fill="midnightblue" stroke="midnightblue" points="1001.37,-176.69 1011.78,-174.74 1002.43,-169.77 1001.37,-176.69"/>
</g>
<!-- Node3 -->
<g id="node3" class="node">
<title>Node3</title>
<g id="a_node3"><a xlink:href="gravpm_8c.html#ab2df22dd026866467284fbf8161743c4" target="_top" xlink:title=" ">
<polygon fill="white" stroke="black" points="761,-570.94 761,-589.94 820,-589.94 820,-570.94 761,-570.94"/>
<text text-anchor="middle" x="790.5" y="-577.94" font-family="Helvetica,sans-Serif" font-size="10.00">_prepare</text>
</a>
</g>
</g>
<!-- Node2&#45;&gt;Node3 -->
<g id="edge2" class="edge">
<title>Node2&#45;&gt;Node3</title>
<path fill="none" stroke="midnightblue" d="M927.65,-353.32C922.67,-396.01 905.28,-497.34 849,-556.44 841.24,-564.59 830.3,-570.08 820.04,-573.72"/>
<polygon fill="midnightblue" stroke="midnightblue" points="931.13,-353.67 928.71,-343.36 924.17,-352.93 931.13,-353.67"/>
</g>
<!-- Node5 -->
<g id="node5" class="node">
<title>Node5</title>
<g id="a_node5"><a xlink:href="test__gravity_8c.html#aa6bdcef3f6cb327efb3f2f993f64b7ce" target="_top" xlink:title=" ">
<polygon fill="white" stroke="black" points="413,-646.94 413,-665.94 496,-665.94 496,-646.94 413,-646.94"/>
<text text-anchor="middle" x="454.5" y="-653.94" font-family="Helvetica,sans-Serif" font-size="10.00">do_force_test</text>
</a>
</g>
</g>
<!-- Node2&#45;&gt;Node5 -->
<g id="edge24" class="edge">
<title>Node2&#45;&gt;Node5</title>
<path fill="none" stroke="midnightblue" d="M927.01,-352.97C918.99,-412.59 891.83,-590.36 849,-626.44 745.26,-713.85 566.6,-684 490.97,-665.98"/>
<polygon fill="midnightblue" stroke="midnightblue" points="930.49,-353.36 928.32,-342.99 923.55,-352.45 930.49,-353.36"/>
</g>
<!-- Node11 -->
<g id="node11" class="node">
<title>Node11</title>
<g id="a_node11"><a xlink:href="run_8c.html#a89690448ef43a8d624b963382b7503ed" target="_top" xlink:title=" ">
<polygon fill="white" stroke="black" points="120.5,-257.94 120.5,-276.94 152.5,-276.94 152.5,-257.94 120.5,-257.94"/>
<text text-anchor="middle" x="136.5" y="-264.94" font-family="Helvetica,sans-Serif" font-size="10.00">run</text>
</a>
</g>
</g>
<!-- Node2&#45;&gt;Node11 -->
<g id="edge52" class="edge">
<title>Node2&#45;&gt;Node11</title>
<path fill="none" stroke="midnightblue" d="M923.63,-314.18C913.53,-284.56 889.91,-228.34 849,-200.44 766.85,-144.41 727.94,-162.44 628.5,-162.44 628.5,-162.44 628.5,-162.44 453.5,-162.44 353.9,-162.44 323.8,-157.81 232,-196.44 196.82,-211.25 162.87,-242.02 146.94,-257.74"/>
<polygon fill="midnightblue" stroke="midnightblue" points="920.33,-315.36 926.74,-323.79 926.99,-313.2 920.33,-315.36"/>
</g>
<!-- Node13 -->
<g id="node13" class="node">
<title>Node13</title>
<g id="a_node13"><a xlink:href="run_8h.html#aa438e424237818b7728b98cd764e45d1" target="_top" xlink:title=" ">
<polygon fill="white" stroke="black" points="406.5,-608.94 406.5,-627.94 502.5,-627.94 502.5,-608.94 406.5,-608.94"/>
<text text-anchor="middle" x="454.5" y="-615.94" font-family="Helvetica,sans-Serif" font-size="10.00">run_gravity_test</text>
</a>
</g>
</g>
<!-- Node2&#45;&gt;Node13 -->
<g id="edge53" class="edge">
<title>Node2&#45;&gt;Node13</title>
<path fill="none" stroke="midnightblue" d="M926.51,-353.08C917.53,-409.2 888.95,-568.27 849,-599.44 796.36,-640.52 595.11,-629.99 502.57,-622.68"/>
<polygon fill="midnightblue" stroke="midnightblue" points="930,-353.44 928.08,-343.02 923.08,-352.36 930,-353.44"/>
</g>
<!-- Node15 -->
<g id="node15" class="node">
<title>Node15</title>
<g id="a_node15"><a xlink:href="run_8c.html#afc20ced36c74991ca5c2004510c6c628" target="_top" xlink:title=" ">
<polygon fill="white" stroke="black" points="423.5,-418.94 423.5,-437.94 485.5,-437.94 485.5,-418.94 423.5,-418.94"/>
<text text-anchor="middle" x="454.5" y="-425.94" font-family="Helvetica,sans-Serif" font-size="10.00">runpower</text>
</a>
</g>
</g>
<!-- Node2&#45;&gt;Node15 -->
<g id="edge55" class="edge">
<title>Node2&#45;&gt;Node15</title>
<path fill="none" stroke="midnightblue" d="M916.83,-351.29C902.66,-369.62 877.88,-397.15 849,-409.44 723.14,-463.02 553.76,-444.48 485.68,-433.8"/>
<polygon fill="midnightblue" stroke="midnightblue" points="919.74,-353.25 922.91,-343.14 914.13,-349.07 919.74,-353.25"/>
</g>
<!-- Node16 -->
<g id="node16" class="node">
<title>Node16</title>
<g id="a_node16"><a xlink:href="test__density_8c.html#a1f2c8c2a35e14ec19a93d42363f0fe55" target="_top" xlink:title=" ">
<polygon fill="white" stroke="black" points="407.5,-532.94 407.5,-551.94 501.5,-551.94 501.5,-532.94 407.5,-532.94"/>
<text text-anchor="middle" x="454.5" y="-539.94" font-family="Helvetica,sans-Serif" font-size="10.00">do_density_test</text>
</a>
</g>
</g>
<!-- Node2&#45;&gt;Node16 -->
<g id="edge19" class="edge">
<title>Node2&#45;&gt;Node16</title>
<path fill="none" stroke="midnightblue" d="M927.48,-353.41C922.33,-392.64 904.89,-479.32 849,-518.44 794.12,-556.85 593.09,-550.55 501.51,-545.46"/>
<polygon fill="midnightblue" stroke="midnightblue" points="930.98,-353.61 928.67,-343.27 924.03,-352.8 930.98,-353.61"/>
</g>
<!-- Node21 -->
<g id="node21" class="node">
<title>Node21</title>
<g id="a_node21"><a xlink:href="fof_8c.html#aef0df27f65ad2e5a95f66ae4e970da23" target="_top" xlink:title=" ">
<polygon fill="white" stroke="black" points="430,-190.94 430,-209.94 479,-209.94 479,-190.94 430,-190.94"/>
<text text-anchor="middle" x="454.5" y="-197.94" font-family="Helvetica,sans-Serif" font-size="10.00">fof_fof</text>
</a>
</g>
</g>
<!-- Node2&#45;&gt;Node21 -->
<g id="edge25" class="edge">
<title>Node2&#45;&gt;Node21</title>
<path fill="none" stroke="midnightblue" d="M918.87,-314.97C905.53,-293.72 880.53,-259.65 849,-243.44 722.49,-178.39 543.29,-190.42 479.33,-197.41"/>
<polygon fill="midnightblue" stroke="midnightblue" points="915.99,-316.98 924.16,-323.73 921.98,-313.36 915.99,-316.98"/>
</g>
<!-- Node22 -->
<g id="node22" class="node">
<title>Node22</title>
<g id="a_node22"><a xlink:href="run_8c.html#a02ef4c629cc0fea15dce527f09ea672f" target="_top" xlink:title=" ">
<polygon fill="white" stroke="black" points="268,-418.94 268,-437.94 314,-437.94 314,-418.94 268,-418.94"/>
<text text-anchor="middle" x="291" y="-425.94" font-family="Helvetica,sans-Serif" font-size="10.00">runfof</text>
</a>
</g>
</g>
<!-- Node2&#45;&gt;Node22 -->
<g id="edge54" class="edge">
<title>Node2&#45;&gt;Node22</title>
<path fill="none" stroke="midnightblue" d="M924.18,-353.19C914.73,-384.06 891.86,-443.05 849,-470.44 762.3,-525.85 484.13,-498.38 386,-467.44 368.54,-461.94 366.77,-454.77 350,-447.44 338.45,-442.39 325.1,-437.93 314.13,-434.6"/>
<polygon fill="midnightblue" stroke="midnightblue" points="927.66,-353.78 927.07,-343.2 920.93,-351.83 927.66,-353.78"/>
</g>
<!-- Node25 -->
<g id="node25" class="node">
<title>Node25</title>
<g id="a_node25"><a xlink:href="forcetree_8c.html#a0de0fec1cfeb5e2aad5f33a843de25e7" target="_top" xlink:title=" ">
<polygon fill="white" stroke="black" points="743,-380.94 743,-399.94 838,-399.94 838,-380.94 743,-380.94"/>
<text text-anchor="middle" x="790.5" y="-387.94" font-family="Helvetica,sans-Serif" font-size="10.00">force_tree_build</text>
</a>
</g>
</g>
<!-- Node2&#45;&gt;Node25 -->
<g id="edge31" class="edge">
<title>Node2&#45;&gt;Node25</title>
<path fill="none" stroke="midnightblue" d="M896.87,-346.92C871.59,-357.36 837.19,-371.57 814.67,-380.87"/>
<polygon fill="midnightblue" stroke="midnightblue" points="898.5,-350.03 906.4,-342.98 895.82,-343.56 898.5,-350.03"/>
</g>
<!-- Node26 -->
<g id="node26" class="node">
<title>Node26</title>
<g id="a_node26"><a xlink:href="forcetree_8c.html#a5156dae3aae56140d6e9ae0ab58867cc" target="_top" xlink:title=" ">
<polygon fill="white" stroke="black" points="575,-456.94 575,-475.94 680,-475.94 680,-456.94 575,-456.94"/>
<text text-anchor="middle" x="627.5" y="-463.94" font-family="Helvetica,sans-Serif" font-size="10.00">force_tree_rebuild</text>
</a>
</g>
</g>
<!-- Node2&#45;&gt;Node26 -->
<g id="edge49" class="edge">
<title>Node2&#45;&gt;Node26</title>
<path fill="none" stroke="midnightblue" d="M921.48,-352.39C909.67,-377.7 885.03,-421.74 849,-442.44 797.25,-472.18 727.33,-474.7 680.22,-472.07"/>
<polygon fill="midnightblue" stroke="midnightblue" points="924.74,-353.67 925.63,-343.11 918.35,-350.81 924.74,-353.67"/>
</g>
<!-- Node27 -->
<g id="node27" class="node">
<title>Node27</title>
<g id="a_node27"><a xlink:href="init_8c.html#a713a74e1e0ca55699bc6581763bae177" target="_top" xlink:title=" ">
<polygon fill="white" stroke="black" points="386,-304.94 386,-323.94 523,-323.94 523,-304.94 386,-304.94"/>
<text text-anchor="middle" x="454.5" y="-311.94" font-family="Helvetica,sans-Serif" font-size="10.00">setup_smoothinglengths</text>
</a>
</g>
</g>
<!-- Node2&#45;&gt;Node27 -->
<g id="edge56" class="edge">
<title>Node2&#45;&gt;Node27</title>
<path fill="none" stroke="midnightblue" d="M874.7,-334.77C802.31,-336.05 670.9,-336.73 559,-328.44 545.26,-327.42 530.55,-325.77 516.67,-323.96"/>
<polygon fill="midnightblue" stroke="midnightblue" points="875.01,-338.26 884.94,-334.58 874.88,-331.26 875.01,-338.26"/>
</g>
<!-- Node29 -->
<g id="node29" class="node">
<title>Node29</title>
<g id="a_node29"><a xlink:href="forcetree_8c.html#aa01061828cef34bc4c55ef9eaa7c03f5" target="_top" xlink:title=" ">
<polygon fill="white" stroke="black" points="559,-266.94 559,-285.94 696,-285.94 696,-266.94 559,-266.94"/>
<text text-anchor="middle" x="627.5" y="-273.94" font-family="Helvetica,sans-Serif" font-size="10.00">force_tree_rebuild_mask</text>
</a>
</g>
</g>
<!-- Node2&#45;&gt;Node29 -->
<g id="edge50" class="edge">
<title>Node2&#45;&gt;Node29</title>
<path fill="none" stroke="midnightblue" d="M901.19,-319.55C886.05,-312.71 866.89,-304.99 849,-300.44 798.8,-287.69 740.48,-281.71 696.44,-278.91"/>
<polygon fill="midnightblue" stroke="midnightblue" points="899.95,-322.83 910.5,-323.87 902.9,-316.48 899.95,-322.83"/>
</g>
<!-- Node30 -->
<g id="node30" class="node">
<title>Node30</title>
<g id="a_node30"><a xlink:href="metal__return_8c.html#a7c817252ab7c0f679fea71bde6dea852" target="_top" xlink:title=" ">
<polygon fill="white" stroke="black" points="414.5,-266.94 414.5,-285.94 494.5,-285.94 494.5,-266.94 414.5,-266.94"/>
<text text-anchor="middle" x="454.5" y="-273.94" font-family="Helvetica,sans-Serif" font-size="10.00">metal_return</text>
</a>
</g>
</g>
<!-- Node2&#45;&gt;Node30 -->
<g id="edge51" class="edge">
<title>Node2&#45;&gt;Node30</title>
<path fill="none" stroke="midnightblue" d="M874.62,-329.18C802.15,-323.25 670.65,-311.39 559,-295.44 537.66,-292.39 514,-288.12 494.7,-284.39"/>
<polygon fill="midnightblue" stroke="midnightblue" points="874.63,-332.69 884.88,-330.01 875.19,-325.72 874.63,-332.69"/>
</g>
<!-- Node31 -->
<g id="node31" class="node">
<title>Node31</title>
<g id="a_node31"><a xlink:href="cooling__qso__lightup_8c.html#a047bd5886141415004b83a046b49d5cc" target="_top" xlink:title=" ">
<polygon fill="white" stroke="black" points="406,-228.94 406,-247.94 503,-247.94 503,-228.94 406,-228.94"/>
<text text-anchor="middle" x="454.5" y="-235.94" font-family="Helvetica,sans-Serif" font-size="10.00">turn_on_quasars</text>
</a>
</g>
</g>
<!-- Node2&#45;&gt;Node31 -->
<g id="edge63" class="edge">
<title>Node2&#45;&gt;Node31</title>
<path fill="none" stroke="midnightblue" d="M911.31,-316.93C895.89,-303.94 872.58,-286.56 849,-277.44 731.02,-231.83 579.03,-231.67 503.1,-235.17"/>
<polygon fill="midnightblue" stroke="midnightblue" points="909.17,-319.71 919.02,-323.62 913.76,-314.42 909.17,-319.71"/>
</g>
<!-- Node33 -->
<g id="node33" class="node">
<title>Node33</title>
<g id="a_node33"><a xlink:href="test__forcetree_8c.html#a5e0c9730fb489959495ce5b37dd34676" target="_top" xlink:title=" ">
<polygon fill="white" stroke="black" points="738,-38.94 738,-57.94 843,-57.94 843,-38.94 738,-38.94"/>
<text text-anchor="middle" x="790.5" y="-45.94" font-family="Helvetica,sans-Serif" font-size="10.00">test_rebuild_close</text>
</a>
</g>
</g>
<!-- Node2&#45;&gt;Node33 -->
<g id="edge57" class="edge">
<title>Node2&#45;&gt;Node33</title>
<path fill="none" stroke="midnightblue" d="M923.7,-313.84C905.6,-252.75 851.24,-69.74 849,-67.44 845.18,-63.53 840.54,-60.42 835.58,-57.95"/>
<polygon fill="midnightblue" stroke="midnightblue" points="920.44,-315.16 926.63,-323.76 927.15,-313.17 920.44,-315.16"/>
</g>
<!-- Node35 -->
<g id="node35" class="node">
<title>Node35</title>
<g id="a_node35"><a xlink:href="test__forcetree_8c.html#a080b6db3c2228926f1fd3ec9e5f66eb2" target="_top" xlink:title=" ">
<polygon fill="white" stroke="black" points="743,-114.94 743,-133.94 838,-133.94 838,-114.94 743,-114.94"/>
<text text-anchor="middle" x="790.5" y="-121.94" font-family="Helvetica,sans-Serif" font-size="10.00">test_rebuild_flat</text>
</a>
</g>
</g>
<!-- Node2&#45;&gt;Node35 -->
<g id="edge59" class="edge">
<title>Node2&#45;&gt;Node35</title>
<path fill="none" stroke="midnightblue" d="M925.92,-313.46C918.26,-276.21 896.94,-195.67 849,-148.44 842.68,-142.22 834.51,-137.52 826.32,-134"/>
<polygon fill="midnightblue" stroke="midnightblue" points="922.54,-314.39 927.87,-323.54 929.41,-313.06 922.54,-314.39"/>
</g>
<!-- Node36 -->
<g id="node36" class="node">
<title>Node36</title>
<g id="a_node36"><a xlink:href="test__forcetree_8c.html#afc70bf685cb49e5182a1a8d50564373a" target="_top" xlink:title=" ">
<polygon fill="white" stroke="black" points="732,-76.94 732,-95.94 849,-95.94 849,-76.94 732,-76.94"/>
<text text-anchor="middle" x="790.5" y="-83.94" font-family="Helvetica,sans-Serif" font-size="10.00">test_rebuild_random</text>
</a>
</g>
</g>
<!-- Node2&#45;&gt;Node36 -->
<g id="edge61" class="edge">
<title>Node2&#45;&gt;Node36</title>
<path fill="none" stroke="midnightblue" d="M923.76,-314.16C908.07,-261.95 864.61,-120.73 849,-105.44 845.02,-101.54 840.22,-98.44 835.12,-95.98"/>
<polygon fill="midnightblue" stroke="midnightblue" points="920.45,-315.29 926.67,-323.87 927.15,-313.28 920.45,-315.29"/>
</g>
<!-- Node4 -->
<g id="node4" class="node">
<title>Node4</title>
<g id="a_node4"><a xlink:href="gravity_8h.html#ad95fd36f6f2e0ca8664796f845d5326c" target="_top" xlink:title=" ">
<polygon fill="white" stroke="black" points="585.5,-570.94 585.5,-589.94 669.5,-589.94 669.5,-570.94 585.5,-570.94"/>
<text text-anchor="middle" x="627.5" y="-577.94" font-family="Helvetica,sans-Serif" font-size="10.00">gravpm_force</text>
</a>
</g>
</g>
<!-- Node3&#45;&gt;Node4 -->
<g id="edge3" class="edge">
<title>Node3&#45;&gt;Node4</title>
<path fill="none" stroke="midnightblue" d="M750.7,-580.44C726.23,-580.44 694.66,-580.44 669.74,-580.44"/>
<polygon fill="midnightblue" stroke="midnightblue" points="750.72,-583.94 760.72,-580.44 750.72,-576.94 750.72,-583.94"/>
</g>
<!-- Node4&#45;&gt;Node5 -->
<g id="edge4" class="edge">
<title>Node4&#45;&gt;Node5</title>
<path fill="none" stroke="midnightblue" d="M602.97,-595.44C582.48,-608 551.64,-625.7 523,-637.44 514.21,-641.04 504.51,-644.21 495.28,-646.88"/>
<polygon fill="midnightblue" stroke="midnightblue" points="604.96,-598.32 611.61,-590.07 601.27,-592.38 604.96,-598.32"/>
</g>
<!-- Node4&#45;&gt;Node11 -->
<g id="edge12" class="edge">
<title>Node4&#45;&gt;Node11</title>
<path fill="none" stroke="midnightblue" d="M575.42,-585.66C480.22,-594.19 280.87,-606.03 232,-561.44 147.12,-484 257.73,-402.35 196,-305.44 185.85,-289.51 166.35,-278.88 152.66,-273.01"/>
<polygon fill="midnightblue" stroke="midnightblue" points="575.76,-589.15 585.4,-584.75 575.12,-582.17 575.76,-589.15"/>
</g>
<!-- Node4&#45;&gt;Node13 -->
<g id="edge14" class="edge">
<title>Node4&#45;&gt;Node13</title>
<path fill="none" stroke="midnightblue" d="M575.24,-591.83C550.7,-597.29 521.64,-603.74 498.3,-608.93"/>
<polygon fill="midnightblue" stroke="midnightblue" points="576.1,-595.23 585.11,-589.64 574.58,-588.39 576.1,-595.23"/>
</g>
<!-- Node4&#45;&gt;Node15 -->
<g id="edge17" class="edge">
<title>Node4&#45;&gt;Node15</title>
<path fill="none" stroke="midnightblue" d="M608.06,-564.05C572.32,-532.28 494.62,-463.21 466.19,-437.95"/>
<polygon fill="midnightblue" stroke="midnightblue" points="606,-566.9 615.8,-570.93 610.65,-561.67 606,-566.9"/>
</g>
<!-- Node6 -->
<g id="node6" class="node">
<title>Node6</title>
<g id="a_node6"><a xlink:href="test__gravity_8c.html#a31e06bbad4eac810c349a6bc44a0aa08" target="_top" xlink:title=" ">
<polygon fill="white" stroke="black" points="243.5,-646.94 243.5,-665.94 338.5,-665.94 338.5,-646.94 243.5,-646.94"/>
<text text-anchor="middle" x="291" y="-653.94" font-family="Helvetica,sans-Serif" font-size="10.00">do_random_test</text>
</a>
</g>
</g>
<!-- Node5&#45;&gt;Node6 -->
<g id="edge5" class="edge">
<title>Node5&#45;&gt;Node6</title>
<path fill="none" stroke="midnightblue" d="M402.67,-656.44C382.21,-656.44 358.77,-656.44 338.75,-656.44"/>
<polygon fill="midnightblue" stroke="midnightblue" points="402.75,-659.94 412.75,-656.44 402.75,-652.94 402.75,-659.94"/>
</g>
<!-- Node9 -->
<g id="node9" class="node">
<title>Node9</title>
<g id="a_node9"><a xlink:href="test__gravity_8c.html#ac3391a3ee98d428389e50b886e988c63" target="_top" xlink:title=" ">
<polygon fill="white" stroke="black" points="88.5,-722.94 88.5,-741.94 184.5,-741.94 184.5,-722.94 88.5,-722.94"/>
<text text-anchor="middle" x="136.5" y="-729.94" font-family="Helvetica,sans-Serif" font-size="10.00">test_force_close</text>
</a>
</g>
</g>
<!-- Node5&#45;&gt;Node9 -->
<g id="edge8" class="edge">
<title>Node5&#45;&gt;Node9</title>
<path fill="none" stroke="midnightblue" d="M422.33,-669.94C402.04,-678.29 374.83,-688.66 350,-695.44 294.18,-710.67 228.34,-720.99 184.9,-726.79"/>
<polygon fill="midnightblue" stroke="midnightblue" points="423.81,-673.12 431.69,-666.03 421.11,-666.66 423.81,-673.12"/>
</g>
<!-- Node10 -->
<g id="node10" class="node">
<title>Node10</title>
<g id="a_node10"><a xlink:href="test__gravity_8c.html#a87bcba11fc8f8f2ad649784bb1b8a48d" target="_top" xlink:title=" ">
<polygon fill="white" stroke="black" points="93.5,-684.94 93.5,-703.94 179.5,-703.94 179.5,-684.94 93.5,-684.94"/>
<text text-anchor="middle" x="136.5" y="-691.94" font-family="Helvetica,sans-Serif" font-size="10.00">test_force_flat</text>
</a>
</g>
</g>
<!-- Node5&#45;&gt;Node10 -->
<g id="edge10" class="edge">
<title>Node5&#45;&gt;Node10</title>
<path fill="none" stroke="midnightblue" d="M402.71,-666.73C385.98,-669.86 367.24,-673.09 350,-675.44 291.1,-683.46 222.52,-688.89 179.56,-691.83"/>
<polygon fill="midnightblue" stroke="midnightblue" points="403.67,-670.11 412.84,-664.8 402.36,-663.23 403.67,-670.11"/>
</g>
<!-- Node7 -->
<g id="node7" class="node">
<title>Node7</title>
<g id="a_node7"><a xlink:href="test__gravity_8c.html#a17492d7388898745e66a636173c8ce1d" target="_top" xlink:title=" ">
<polygon fill="white" stroke="black" points="82.5,-646.94 82.5,-665.94 190.5,-665.94 190.5,-646.94 82.5,-646.94"/>
<text text-anchor="middle" x="136.5" y="-653.94" font-family="Helvetica,sans-Serif" font-size="10.00">test_force_random</text>
</a>
</g>
</g>
<!-- Node6&#45;&gt;Node7 -->
<g id="edge6" class="edge">
<title>Node6&#45;&gt;Node7</title>
<path fill="none" stroke="midnightblue" d="M233.03,-656.44C219.18,-656.44 204.41,-656.44 190.74,-656.44"/>
<polygon fill="midnightblue" stroke="midnightblue" points="233.42,-659.94 243.42,-656.44 233.42,-652.94 233.42,-659.94"/>
</g>
<!-- Node8 -->
<g id="node8" class="node">
<title>Node8</title>
<g id="a_node8"><a xlink:href="test__gravity_8c.html#a840291bc02cba5474a4cb46a9b9566fe" target="_top" xlink:title=" ">
<polygon fill="white" stroke="black" points="0,-684.94 0,-703.94 41,-703.94 41,-684.94 0,-684.94"/>
<text text-anchor="middle" x="20.5" y="-691.94" font-family="Helvetica,sans-Serif" font-size="10.00">main</text>
</a>
</g>
</g>
<!-- Node7&#45;&gt;Node8 -->
<g id="edge7" class="edge">
<title>Node7&#45;&gt;Node8</title>
<path fill="none" stroke="midnightblue" d="M95.94,-669.2C89.6,-671.27 83.12,-673.4 77,-675.44 65.12,-679.4 51.84,-683.95 41.25,-687.59"/>
<polygon fill="midnightblue" stroke="midnightblue" points="97.28,-672.44 105.71,-666.02 95.12,-665.78 97.28,-672.44"/>
</g>
<!-- Node9&#45;&gt;Node8 -->
<g id="edge9" class="edge">
<title>Node9&#45;&gt;Node8</title>
<path fill="none" stroke="midnightblue" d="M95.94,-719.69C89.6,-717.62 83.12,-715.48 77,-713.44 65.12,-709.48 51.84,-704.94 41.25,-701.29"/>
<polygon fill="midnightblue" stroke="midnightblue" points="95.12,-723.1 105.71,-722.87 97.28,-716.44 95.12,-723.1"/>
</g>
<!-- Node10&#45;&gt;Node8 -->
<g id="edge11" class="edge">
<title>Node10&#45;&gt;Node8</title>
<path fill="none" stroke="midnightblue" d="M83.14,-694.44C68.19,-694.44 52.81,-694.44 41.15,-694.44"/>
<polygon fill="midnightblue" stroke="midnightblue" points="83.37,-697.94 93.37,-694.44 83.37,-690.94 83.37,-697.94"/>
</g>
<!-- Node12 -->
<g id="node12" class="node">
<title>Node12</title>
<g id="a_node12"><a xlink:href="gadget_2main_8c.html#a3c04138a5bfe5d72780bb7e82a18e627" target="_top" xlink:title=" ">
<polygon fill="white" stroke="black" points="0,-380.94 0,-399.94 41,-399.94 41,-380.94 0,-380.94"/>
<text text-anchor="middle" x="20.5" y="-387.94" font-family="Helvetica,sans-Serif" font-size="10.00">main</text>
</a>
</g>
</g>
<!-- Node11&#45;&gt;Node12 -->
<g id="edge13" class="edge">
<title>Node11&#45;&gt;Node12</title>
<path fill="none" stroke="midnightblue" d="M111.42,-280C100.15,-286.61 87.05,-295.42 77,-305.44 53.42,-328.97 34.41,-364.09 26.07,-380.86"/>
<polygon fill="midnightblue" stroke="midnightblue" points="113.33,-282.94 120.33,-274.99 109.9,-276.84 113.33,-282.94"/>
</g>
<!-- Node14 -->
<g id="node14" class="node">
<title>Node14</title>
<g id="a_node14"><a xlink:href="run_8c.html#ab1d8bf99f794003fa95002043fe3b47c" target="_top" xlink:title=" ">
<polygon fill="white" stroke="black" points="108.5,-589.94 108.5,-608.94 164.5,-608.94 164.5,-589.94 108.5,-589.94"/>
<text text-anchor="middle" x="136.5" y="-596.94" font-family="Helvetica,sans-Serif" font-size="10.00">runtests</text>
</a>
</g>
</g>
<!-- Node13&#45;&gt;Node14 -->
<g id="edge15" class="edge">
<title>Node13&#45;&gt;Node14</title>
<path fill="none" stroke="midnightblue" d="M395.99,-614.98C327.41,-610.86 215.67,-604.14 164.56,-601.07"/>
<polygon fill="midnightblue" stroke="midnightblue" points="396,-618.49 406.19,-615.6 396.42,-611.5 396,-618.49"/>
</g>
<!-- Node14&#45;&gt;Node12 -->
<g id="edge16" class="edge">
<title>Node14&#45;&gt;Node12</title>
<path fill="none" stroke="midnightblue" d="M104.64,-584.79C94.65,-578.76 84.28,-570.93 77,-561.44 37.11,-509.43 25.32,-427.68 22.37,-399.98"/>
<polygon fill="midnightblue" stroke="midnightblue" points="103.18,-587.98 113.61,-589.82 106.6,-581.87 103.18,-587.98"/>
</g>
<!-- Node15&#45;&gt;Node12 -->
<g id="edge18" class="edge">
<title>Node15&#45;&gt;Node12</title>
<path fill="none" stroke="midnightblue" d="M413.44,-419.89C394.32,-416.12 371.06,-411.97 350,-409.44 233.44,-395.43 92.34,-391.67 41.2,-390.73"/>
<polygon fill="midnightblue" stroke="midnightblue" points="412.81,-423.34 423.31,-421.88 414.19,-416.47 412.81,-423.34"/>
</g>
<!-- Node17 -->
<g id="node17" class="node">
<title>Node17</title>
<g id="a_node17"><a xlink:href="test__density_8c.html#ab398a273f1cc5a1816af9ef286a460f3" target="_top" xlink:title=" ">
<polygon fill="white" stroke="black" points="243.5,-532.94 243.5,-551.94 338.5,-551.94 338.5,-532.94 243.5,-532.94"/>
<text text-anchor="middle" x="291" y="-539.94" font-family="Helvetica,sans-Serif" font-size="10.00">do_random_test</text>
</a>
</g>
</g>
<!-- Node16&#45;&gt;Node17 -->
<g id="edge20" class="edge">
<title>Node16&#45;&gt;Node17</title>
<path fill="none" stroke="midnightblue" d="M397.13,-542.44C378,-542.44 356.85,-542.44 338.57,-542.44"/>
<polygon fill="midnightblue" stroke="midnightblue" points="397.22,-545.94 407.22,-542.44 397.22,-538.94 397.22,-545.94"/>
</g>
<!-- Node19 -->
<g id="node19" class="node">
<title>Node19</title>
<g id="a_node19"><a xlink:href="test__density_8c.html#a0b98ad62e33169daca9a098f23b22730" target="_top" xlink:title=" ">
<polygon fill="white" stroke="black" points="237.5,-456.94 237.5,-475.94 344.5,-475.94 344.5,-456.94 237.5,-456.94"/>
<text text-anchor="middle" x="291" y="-463.94" font-family="Helvetica,sans-Serif" font-size="10.00">test_density_close</text>
</a>
</g>
</g>
<!-- Node16&#45;&gt;Node19 -->
<g id="edge22" class="edge">
<title>Node16&#45;&gt;Node19</title>
<path fill="none" stroke="midnightblue" d="M408.81,-529.42C400.95,-526.33 393.05,-522.68 386,-518.44 367.4,-507.25 368.74,-496.4 350,-485.44 343.6,-481.7 336.36,-478.58 329.22,-476.03"/>
<polygon fill="midnightblue" stroke="midnightblue" points="407.71,-532.74 418.31,-532.9 410.12,-526.17 407.71,-532.74"/>
</g>
<!-- Node20 -->
<g id="node20" class="node">
<title>Node20</title>
<g id="a_node20"><a xlink:href="test__density_8c.html#af90097e65c497dae6bed7b2d03702f89" target="_top" xlink:title=" ">
<polygon fill="white" stroke="black" points="242,-494.94 242,-513.94 340,-513.94 340,-494.94 242,-494.94"/>
<text text-anchor="middle" x="291" y="-501.94" font-family="Helvetica,sans-Serif" font-size="10.00">test_density_flat</text>
</a>
</g>
</g>
<!-- Node16&#45;&gt;Node20 -->
<g id="edge23" class="edge">
<title>Node16&#45;&gt;Node20</title>
<path fill="none" stroke="midnightblue" d="M402.94,-530.54C380.24,-525.2 353.82,-518.99 332.46,-513.96"/>
<polygon fill="midnightblue" stroke="midnightblue" points="402.21,-533.97 412.75,-532.85 403.81,-527.15 402.21,-533.97"/>
</g>
<!-- Node18 -->
<g id="node18" class="node">
<title>Node18</title>
<g id="a_node18"><a xlink:href="test__density_8c.html#a79c97c1ac28bcad8abc150104d7cb7c0" target="_top" xlink:title=" ">
<polygon fill="white" stroke="black" points="77,-532.94 77,-551.94 196,-551.94 196,-532.94 77,-532.94"/>
<text text-anchor="middle" x="136.5" y="-539.94" font-family="Helvetica,sans-Serif" font-size="10.00">test_density_random</text>
</a>
</g>
</g>
<!-- Node17&#45;&gt;Node18 -->
<g id="edge21" class="edge">
<title>Node17&#45;&gt;Node18</title>
<path fill="none" stroke="midnightblue" d="M233.05,-542.44C221.02,-542.44 208.3,-542.44 196.21,-542.44"/>
<polygon fill="midnightblue" stroke="midnightblue" points="233.42,-545.94 243.42,-542.44 233.42,-538.94 233.42,-545.94"/>
</g>
<!-- Node21&#45;&gt;Node11 -->
<g id="edge26" class="edge">
<title>Node21&#45;&gt;Node11</title>
<path fill="none" stroke="midnightblue" d="M419.52,-199.37C375.41,-198.87 296.46,-201.06 232,-219.44 201.74,-228.07 169.74,-246.59 151.83,-257.93"/>
<polygon fill="midnightblue" stroke="midnightblue" points="419.63,-202.87 429.69,-199.54 419.75,-195.87 419.63,-202.87"/>
</g>
<!-- Node21&#45;&gt;Node22 -->
<g id="edge27" class="edge">
<title>Node21&#45;&gt;Node22</title>
<path fill="none" stroke="midnightblue" d="M419.85,-203.99C408.06,-206.66 395.42,-211.33 386,-219.44 320.9,-275.54 298.74,-385.76 293.4,-418.84"/>
<polygon fill="midnightblue" stroke="midnightblue" points="420.71,-207.39 429.9,-202.11 419.43,-200.51 420.71,-207.39"/>
</g>
<!-- Node23 -->
<g id="node23" class="node">
<title>Node23</title>
<g id="a_node23"><a xlink:href="test__fof_8c.html#a2b2edcaa960047ba6c815956c46d82a6" target="_top" xlink:title=" ">
<polygon fill="white" stroke="black" points="264,-114.94 264,-133.94 318,-133.94 318,-114.94 264,-114.94"/>
<text text-anchor="middle" x="291" y="-121.94" font-family="Helvetica,sans-Serif" font-size="10.00">test_fof</text>
</a>
</g>
</g>
<!-- Node21&#45;&gt;Node23 -->
<g id="edge29" class="edge">
<title>Node21&#45;&gt;Node23</title>
<path fill="none" stroke="midnightblue" d="M423.63,-186.38C391.21,-171.13 340.35,-147.19 312.29,-133.99"/>
<polygon fill="midnightblue" stroke="midnightblue" points="422.51,-189.72 433.05,-190.82 425.49,-183.39 422.51,-189.72"/>
</g>
<!-- Node22&#45;&gt;Node12 -->
<g id="edge28" class="edge">
<title>Node22&#45;&gt;Node12</title>
<path fill="none" stroke="midnightblue" d="M257.62,-426.16C215.7,-422.89 140.49,-415.97 77,-404.44 64.97,-402.26 51.69,-398.94 41.14,-396.08"/>
<polygon fill="midnightblue" stroke="midnightblue" points="257.54,-429.66 267.78,-426.93 258.07,-422.68 257.54,-429.66"/>
</g>
<!-- Node24 -->
<g id="node24" class="node">
<title>Node24</title>
<g id="a_node24"><a xlink:href="test__fof_8c.html#a840291bc02cba5474a4cb46a9b9566fe" target="_top" xlink:title=" ">
<polygon fill="white" stroke="black" points="116,-114.94 116,-133.94 157,-133.94 157,-114.94 116,-114.94"/>
<text text-anchor="middle" x="136.5" y="-121.94" font-family="Helvetica,sans-Serif" font-size="10.00">main</text>
</a>
</g>
</g>
<!-- Node23&#45;&gt;Node24 -->
<g id="edge30" class="edge">
<title>Node23&#45;&gt;Node24</title>
<path fill="none" stroke="midnightblue" d="M253.61,-124.44C223.33,-124.44 181.39,-124.44 157.08,-124.44"/>
<polygon fill="midnightblue" stroke="midnightblue" points="253.78,-127.94 263.78,-124.44 253.78,-120.94 253.78,-127.94"/>
</g>
<!-- Node25&#45;&gt;Node26 -->
<g id="edge32" class="edge">
<title>Node25&#45;&gt;Node26</title>
<path fill="none" stroke="midnightblue" d="M759.72,-404.5C727.41,-419.75 676.7,-443.69 648.73,-456.89"/>
<polygon fill="midnightblue" stroke="midnightblue" points="761.56,-407.5 769.11,-400.07 758.57,-401.17 761.56,-407.5"/>
</g>
<!-- Node25&#45;&gt;Node29 -->
<g id="edge42" class="edge">
<title>Node25&#45;&gt;Node29</title>
<path fill="none" stroke="midnightblue" d="M767.79,-375.07C734.12,-351.23 670.26,-306.01 642.25,-286.18"/>
<polygon fill="midnightblue" stroke="midnightblue" points="765.87,-377.99 776.05,-380.92 769.91,-372.28 765.87,-377.99"/>
</g>
<!-- Node26&#45;&gt;Node5 -->
<g id="edge34" class="edge">
<title>Node26&#45;&gt;Node5</title>
<path fill="none" stroke="midnightblue" d="M612.47,-484.17C598.08,-502.8 575.53,-533.24 559,-561.44 540.1,-593.69 551.55,-613.32 523,-637.44 515.37,-643.88 505.71,-648.15 496.09,-650.97"/>
<polygon fill="midnightblue" stroke="midnightblue" points="615.42,-486.08 618.81,-476.04 609.9,-481.77 615.42,-486.08"/>
</g>
<!-- Node26&#45;&gt;Node11 -->
<g id="edge35" class="edge">
<title>Node26&#45;&gt;Node11</title>
<path fill="none" stroke="midnightblue" d="M602.01,-451.58C581.37,-439.39 550.84,-422.14 523,-409.44 382.85,-345.48 204.76,-288.36 152.53,-272.07"/>
<polygon fill="midnightblue" stroke="midnightblue" points="600.37,-454.68 610.75,-456.79 603.95,-448.66 600.37,-454.68"/>
</g>
<!-- Node26&#45;&gt;Node13 -->
<g id="edge36" class="edge">
<title>Node26&#45;&gt;Node13</title>
<path fill="none" stroke="midnightblue" d="M609.02,-482.89C588.61,-502.01 553.71,-534.41 523,-561.44 503.66,-578.47 480.63,-597.7 467.09,-608.9"/>
<polygon fill="midnightblue" stroke="midnightblue" points="611.45,-485.42 616.34,-476.02 606.66,-480.31 611.45,-485.42"/>
</g>
<!-- Node26&#45;&gt;Node15 -->
<g id="edge38" class="edge">
<title>Node26&#45;&gt;Node15</title>
<path fill="none" stroke="midnightblue" d="M573.41,-454.64C544.57,-448.23 509.94,-440.54 485.7,-435.15"/>
<polygon fill="midnightblue" stroke="midnightblue" points="572.83,-458.1 583.35,-456.85 574.35,-451.27 572.83,-458.1"/>
</g>
<!-- Node26&#45;&gt;Node16 -->
<g id="edge33" class="edge">
<title>Node26&#45;&gt;Node16</title>
<path fill="none" stroke="midnightblue" d="M595.31,-480.3C561.01,-495.55 506.82,-519.63 476.98,-532.89"/>
<polygon fill="midnightblue" stroke="midnightblue" points="597.13,-483.33 604.84,-476.07 594.28,-476.93 597.13,-483.33"/>
</g>
<!-- Node26&#45;&gt;Node22 -->
<g id="edge37" class="edge">
<title>Node26&#45;&gt;Node22</title>
<path fill="none" stroke="midnightblue" d="M564.63,-463.61C515.92,-460.88 446.41,-455.9 386,-447.44 361.27,-443.98 333.25,-438.05 314.28,-433.73"/>
<polygon fill="midnightblue" stroke="midnightblue" points="564.52,-467.11 574.7,-464.16 564.9,-460.12 564.52,-467.11"/>
</g>
<!-- Node26&#45;&gt;Node27 -->
<g id="edge39" class="edge">
<title>Node26&#45;&gt;Node27</title>
<path fill="none" stroke="midnightblue" d="M616.11,-447.93C599.73,-420.34 565.37,-368.45 523,-338.44 514.27,-332.26 503.79,-327.52 493.72,-323.96"/>
<polygon fill="midnightblue" stroke="midnightblue" points="613.27,-450.01 621.31,-456.91 619.33,-446.51 613.27,-450.01"/>
</g>
<!-- Node28 -->
<g id="node28" class="node">
<title>Node28</title>
<g id="a_node28"><a xlink:href="run_8c.html#aee4609880c9e92e1c421c4bd238589fd" target="_top" xlink:title=" ">
<polygon fill="white" stroke="black" points="111.5,-314.94 111.5,-333.94 161.5,-333.94 161.5,-314.94 111.5,-314.94"/>
<text text-anchor="middle" x="136.5" y="-321.94" font-family="Helvetica,sans-Serif" font-size="10.00">begrun</text>
</a>
</g>
</g>
<!-- Node27&#45;&gt;Node28 -->
<g id="edge40" class="edge">
<title>Node27&#45;&gt;Node28</title>
<path fill="none" stroke="midnightblue" d="M375.59,-316.91C305.51,-319.12 206.87,-322.25 161.74,-323.67"/>
<polygon fill="midnightblue" stroke="midnightblue" points="375.83,-320.4 385.71,-316.59 375.6,-313.4 375.83,-320.4"/>
</g>
<!-- Node28&#45;&gt;Node12 -->
<g id="edge41" class="edge">
<title>Node28&#45;&gt;Node12</title>
<path fill="none" stroke="midnightblue" d="M109.87,-339.28C87.89,-352.01 56.86,-369.97 38.02,-380.88"/>
<polygon fill="midnightblue" stroke="midnightblue" points="111.78,-342.22 118.68,-334.18 108.27,-336.16 111.78,-342.22"/>
</g>
<!-- Node29&#45;&gt;Node21 -->
<g id="edge43" class="edge">
<title>Node29&#45;&gt;Node21</title>
<path fill="none" stroke="midnightblue" d="M602.97,-261.44C582.48,-248.88 551.64,-231.18 523,-219.44 508.81,-213.62 492.23,-208.93 479.06,-205.66"/>
<polygon fill="midnightblue" stroke="midnightblue" points="601.27,-264.5 611.61,-266.81 604.96,-258.56 601.27,-264.5"/>
</g>
<!-- Node29&#45;&gt;Node30 -->
<g id="edge44" class="edge">
<title>Node29&#45;&gt;Node30</title>
<path fill="none" stroke="midnightblue" d="M548.84,-276.44C530.02,-276.44 510.69,-276.44 494.54,-276.44"/>
<polygon fill="midnightblue" stroke="midnightblue" points="548.92,-279.94 558.92,-276.44 548.92,-272.94 548.92,-279.94"/>
</g>
<!-- Node29&#45;&gt;Node31 -->
<g id="edge46" class="edge">
<title>Node29&#45;&gt;Node31</title>
<path fill="none" stroke="midnightblue" d="M573.29,-264.62C549.18,-259.26 521.06,-253.01 498.34,-247.96"/>
<polygon fill="midnightblue" stroke="midnightblue" points="572.83,-268.1 583.35,-266.85 574.35,-261.27 572.83,-268.1"/>
</g>
<!-- Node30&#45;&gt;Node11 -->
<g id="edge45" class="edge">
<title>Node30&#45;&gt;Node11</title>
<path fill="none" stroke="midnightblue" d="M404.09,-275.03C330.92,-272.95 197.56,-269.15 152.69,-267.87"/>
<polygon fill="midnightblue" stroke="midnightblue" points="404.34,-278.54 414.44,-275.33 404.54,-271.54 404.34,-278.54"/>
</g>
<!-- Node32 -->
<g id="node32" class="node">
<title>Node32</title>
<g id="a_node32"><a xlink:href="cooling__qso__lightup_8c.html#a42cfb86673e895125f77c946b7db8ced" target="_top" xlink:title=" ">
<polygon fill="white" stroke="black" points="232,-228.94 232,-247.94 350,-247.94 350,-228.94 232,-228.94"/>
<text text-anchor="middle" x="291" y="-235.94" font-family="Helvetica,sans-Serif" font-size="10.00">do_heiii_reionization</text>
</a>
</g>
</g>
<!-- Node31&#45;&gt;Node32 -->
<g id="edge47" class="edge">
<title>Node31&#45;&gt;Node32</title>
<path fill="none" stroke="midnightblue" d="M395.84,-238.44C380.98,-238.44 364.99,-238.44 350.11,-238.44"/>
<polygon fill="midnightblue" stroke="midnightblue" points="395.92,-241.94 405.92,-238.44 395.92,-234.94 395.92,-241.94"/>
</g>
<!-- Node32&#45;&gt;Node11 -->
<g id="edge48" class="edge">
<title>Node32&#45;&gt;Node11</title>
<path fill="none" stroke="midnightblue" d="M229.49,-249.95C201.47,-255.28 170.5,-261.17 152.59,-264.57"/>
<polygon fill="midnightblue" stroke="midnightblue" points="230.47,-253.32 239.64,-248.02 229.17,-246.45 230.47,-253.32"/>
</g>
<!-- Node34 -->
<g id="node34" class="node">
<title>Node34</title>
<g id="a_node34"><a xlink:href="test__forcetree_8c.html#a840291bc02cba5474a4cb46a9b9566fe" target="_top" xlink:title=" ">
<polygon fill="white" stroke="black" points="607,-76.94 607,-95.94 648,-95.94 648,-76.94 607,-76.94"/>
<text text-anchor="middle" x="627.5" y="-83.94" font-family="Helvetica,sans-Serif" font-size="10.00">main</text>
</a>
</g>
</g>
<!-- Node33&#45;&gt;Node34 -->
<g id="edge58" class="edge">
<title>Node33&#45;&gt;Node34</title>
<path fill="none" stroke="midnightblue" d="M739.13,-60.33C708.3,-67.61 670.57,-76.51 648.09,-81.82"/>
<polygon fill="midnightblue" stroke="midnightblue" points="739.94,-63.73 748.87,-58.03 738.34,-56.92 739.94,-63.73"/>
</g>
<!-- Node35&#45;&gt;Node34 -->
<g id="edge60" class="edge">
<title>Node35&#45;&gt;Node34</title>
<path fill="none" stroke="midnightblue" d="M739.13,-112.55C708.3,-105.27 670.57,-96.37 648.09,-91.06"/>
<polygon fill="midnightblue" stroke="midnightblue" points="738.34,-115.96 748.87,-114.85 739.94,-109.15 738.34,-115.96"/>
</g>
<!-- Node36&#45;&gt;Node34 -->
<g id="edge62" class="edge">
<title>Node36&#45;&gt;Node34</title>
<path fill="none" stroke="midnightblue" d="M721.75,-86.44C695.15,-86.44 666.63,-86.44 648.24,-86.44"/>
<polygon fill="midnightblue" stroke="midnightblue" points="721.83,-89.94 731.83,-86.44 721.83,-82.94 721.83,-89.94"/>
</g>
<!-- Node37&#45;&gt;Node11 -->
<g id="edge65" class="edge">
<title>Node37&#45;&gt;Node11</title>
<path fill="none" stroke="midnightblue" d="M924.04,-143.2C914.4,-113.12 891.26,-55.71 849,-29.44 765.47,22.49 726.86,-10.44 628.5,-10.44 628.5,-10.44 628.5,-10.44 453.5,-10.44 346.38,-10.44 312.25,-34.49 232,-105.44 181.02,-150.51 150.29,-229.97 140.73,-257.62"/>
<polygon fill="midnightblue" stroke="midnightblue" points="920.74,-144.38 927,-152.93 927.44,-142.35 920.74,-144.38"/>
</g>
</g>
</svg>
