<?xml version="1.0" encoding="UTF-8" standalone="no"?>
<!DOCTYPE svg PUBLIC "-//W3C//DTD SVG 1.1//EN"
 "http://www.w3.org/Graphics/SVG/1.1/DTD/svg11.dtd">
<!-- Generated by graphviz version 2.50.0 (0)
 -->
<!-- Title: libgadget/exchange.h Pages: 1 -->
<svg width="1482pt" height="364pt"
 viewBox="0.00 0.00 1481.68 364.00" xmlns="http://www.w3.org/2000/svg" xmlns:xlink="http://www.w3.org/1999/xlink">
<g id="graph0" class="graph" transform="scale(1 1) rotate(0) translate(4 360)">
<title>libgadget/exchange.h</title>
<polygon fill="white" stroke="transparent" points="-4,4 -4,-360 1477.68,-360 1477.68,4 -4,4"/>
<!-- Node1 -->
<g id="node1" class="node">
<title>Node1</title>
<g id="a_node1"><a xlink:title=" ">
<polygon fill="#bfbfbf" stroke="black" points="327.5,-336.5 327.5,-355.5 449.5,-355.5 449.5,-336.5 327.5,-336.5"/>
<text text-anchor="middle" x="388.5" y="-343.5" font-family="Helvetica,sans-Serif" font-size="10.00">libgadget/exchange.h</text>
</a>
</g>
</g>
<!-- Node2 -->
<g id="node2" class="node">
<title>Node2</title>
<g id="a_node2"><a xlink:href="partmanager_8h.html" target="_top" xlink:title=" ">
<polygon fill="white" stroke="black" points="327.5,-168.5 327.5,-187.5 415.5,-187.5 415.5,-168.5 327.5,-168.5"/>
<text text-anchor="middle" x="371.5" y="-175.5" font-family="Helvetica,sans-Serif" font-size="10.00">partmanager.h</text>
</a>
</g>
</g>
<!-- Node1&#45;&gt;Node2 -->
<g id="edge1" class="edge">
<title>Node1&#45;&gt;Node2</title>
<path fill="none" stroke="midnightblue" d="M379.75,-336.29C371.94,-327.84 361.05,-314.25 356.5,-300 345.28,-264.85 356.29,-221.47 364.46,-197.36"/>
<polygon fill="midnightblue" stroke="midnightblue" points="367.83,-198.34 367.93,-187.74 361.25,-195.97 367.83,-198.34"/>
</g>
<!-- Node7 -->
<g id="node7" class="node">
<title>Node7</title>
<g id="a_node7"><a xlink:href="slotsmanager_8h.html" target="_top" xlink:title=" ">
<polygon fill="white" stroke="black" points="403.5,-224.5 403.5,-243.5 495.5,-243.5 495.5,-224.5 403.5,-224.5"/>
<text text-anchor="middle" x="449.5" y="-231.5" font-family="Helvetica,sans-Serif" font-size="10.00">slotsmanager.h</text>
</a>
</g>
</g>
<!-- Node1&#45;&gt;Node7 -->
<g id="edge7" class="edge">
<title>Node1&#45;&gt;Node7</title>
<path fill="none" stroke="midnightblue" d="M395.14,-336.33C401.76,-327.47 411.99,-313.19 419.5,-300 428.24,-284.66 436.51,-266.34 442.15,-253.06"/>
<polygon fill="midnightblue" stroke="midnightblue" points="445.46,-254.22 446.07,-243.65 438.99,-251.53 445.46,-254.22"/>
</g>
<!-- Node22 -->
<g id="node22" class="node">
<title>Node22</title>
<g id="a_node22"><a xlink:href="drift_8h.html" target="_top" xlink:title=" ">
<polygon fill="white" stroke="black" points="366,-280.5 366,-299.5 411,-299.5 411,-280.5 366,-280.5"/>
<text text-anchor="middle" x="388.5" y="-287.5" font-family="Helvetica,sans-Serif" font-size="10.00">drift.h</text>
</a>
</g>
</g>
<!-- Node1&#45;&gt;Node22 -->
<g id="edge36" class="edge">
<title>Node1&#45;&gt;Node22</title>
<path fill="none" stroke="midnightblue" d="M388.5,-336.08C388.5,-329.01 388.5,-318.86 388.5,-309.99"/>
<polygon fill="midnightblue" stroke="midnightblue" points="392,-309.75 388.5,-299.75 385,-309.75 392,-309.75"/>
</g>
<!-- Node3 -->
<g id="node3" class="node">
<title>Node3</title>
<g id="a_node3"><a xlink:href="types_8h.html" target="_top" xlink:title=" ">
<polygon fill="white" stroke="black" points="302,-112.5 302,-131.5 355,-131.5 355,-112.5 302,-112.5"/>
<text text-anchor="middle" x="328.5" y="-119.5" font-family="Helvetica,sans-Serif" font-size="10.00">types.h</text>
</a>
</g>
</g>
<!-- Node2&#45;&gt;Node3 -->
<g id="edge2" class="edge">
<title>Node2&#45;&gt;Node3</title>
<path fill="none" stroke="midnightblue" d="M364.4,-168.08C358.26,-160.38 349.23,-149.03 341.76,-139.65"/>
<polygon fill="midnightblue" stroke="midnightblue" points="344.44,-137.39 335.47,-131.75 338.96,-141.75 344.44,-137.39"/>
</g>
<!-- Node5 -->
<g id="node5" class="node">
<title>Node5</title>
<g id="a_node5"><a xlink:href="peano_8h.html" target="_top" xlink:title=" ">
<polygon fill="white" stroke="black" points="373.5,-112.5 373.5,-131.5 453.5,-131.5 453.5,-112.5 373.5,-112.5"/>
<text text-anchor="middle" x="413.5" y="-119.5" font-family="Helvetica,sans-Serif" font-size="10.00">utils/peano.h</text>
</a>
</g>
</g>
<!-- Node2&#45;&gt;Node5 -->
<g id="edge4" class="edge">
<title>Node2&#45;&gt;Node5</title>
<path fill="none" stroke="midnightblue" d="M378.44,-168.08C384.43,-160.38 393.25,-149.03 400.55,-139.65"/>
<polygon fill="midnightblue" stroke="midnightblue" points="403.32,-141.79 406.69,-131.75 397.79,-137.5 403.32,-141.79"/>
</g>
<!-- Node4 -->
<g id="node4" class="node">
<title>Node4</title>
<g id="a_node4"><a xlink:title=" ">
<polygon fill="white" stroke="#bfbfbf" points="480,-56.5 480,-75.5 533,-75.5 533,-56.5 480,-56.5"/>
<text text-anchor="middle" x="506.5" y="-63.5" font-family="Helvetica,sans-Serif" font-size="10.00">stdint.h</text>
</a>
</g>
</g>
<!-- Node3&#45;&gt;Node4 -->
<g id="edge3" class="edge">
<title>Node3&#45;&gt;Node4</title>
<path fill="none" stroke="midnightblue" d="M355.15,-112.92C385.78,-103.62 436.21,-88.32 470.36,-77.96"/>
<polygon fill="midnightblue" stroke="midnightblue" points="471.41,-81.3 479.96,-75.05 469.38,-74.61 471.41,-81.3"/>
</g>
<!-- Node5&#45;&gt;Node4 -->
<g id="edge6" class="edge">
<title>Node5&#45;&gt;Node4</title>
<path fill="none" stroke="midnightblue" d="M428.44,-112.32C443.09,-103.82 465.63,-90.73 482.74,-80.8"/>
<polygon fill="midnightblue" stroke="midnightblue" points="484.7,-83.7 491.6,-75.65 481.19,-77.65 484.7,-83.7"/>
</g>
<!-- Node6 -->
<g id="node6" class="node">
<title>Node6</title>
<g id="a_node6"><a xlink:title=" ">
<polygon fill="white" stroke="#bfbfbf" points="898.5,-0.5 898.5,-19.5 954.5,-19.5 954.5,-0.5 898.5,-0.5"/>
<text text-anchor="middle" x="926.5" y="-7.5" font-family="Helvetica,sans-Serif" font-size="10.00">stddef.h</text>
</a>
</g>
</g>
<!-- Node5&#45;&gt;Node6 -->
<g id="edge5" class="edge">
<title>Node5&#45;&gt;Node6</title>
<path fill="none" stroke="midnightblue" d="M418.12,-112.41C426.43,-97.91 445.4,-68.9 470.5,-56 543.05,-18.72 791.96,-12.29 888.14,-11.21"/>
<polygon fill="midnightblue" stroke="midnightblue" points="888.33,-14.71 898.3,-11.11 888.26,-7.71 888.33,-14.71"/>
</g>
<!-- Node7&#45;&gt;Node2 -->
<g id="edge35" class="edge">
<title>Node7&#45;&gt;Node2</title>
<path fill="none" stroke="midnightblue" d="M436.97,-224.32C424.91,-215.98 406.47,-203.21 392.23,-193.35"/>
<polygon fill="midnightblue" stroke="midnightblue" points="394.22,-190.47 384,-187.65 390.23,-196.22 394.22,-190.47"/>
</g>
<!-- Node7&#45;&gt;Node3 -->
<g id="edge34" class="edge">
<title>Node7&#45;&gt;Node3</title>
<path fill="none" stroke="midnightblue" d="M448.28,-224.33C445.94,-210.74 439.66,-184.28 424.5,-168 408.62,-150.95 384.96,-139.75 365.11,-132.8"/>
<polygon fill="midnightblue" stroke="midnightblue" points="366.02,-129.41 355.43,-129.62 363.84,-136.06 366.02,-129.41"/>
</g>
<!-- Node8 -->
<g id="node8" class="node">
<title>Node8</title>
<g id="a_node8"><a xlink:title=" ">
<polygon fill="white" stroke="#bfbfbf" points="916.5,-56.5 916.5,-75.5 960.5,-75.5 960.5,-56.5 916.5,-56.5"/>
<text text-anchor="middle" x="938.5" y="-63.5" font-family="Helvetica,sans-Serif" font-size="10.00">mpi.h</text>
</a>
</g>
</g>
<!-- Node7&#45;&gt;Node8 -->
<g id="edge8" class="edge">
<title>Node7&#45;&gt;Node8</title>
<path fill="none" stroke="midnightblue" d="M455.42,-224.36C471.66,-201.44 519.53,-138.99 576.5,-112 606.01,-98.02 822.86,-77.36 906.1,-69.86"/>
<polygon fill="midnightblue" stroke="midnightblue" points="906.6,-73.33 916.24,-68.95 905.97,-66.36 906.6,-73.33"/>
</g>
<!-- Node9 -->
<g id="node9" class="node">
<title>Node9</title>
<g id="a_node9"><a xlink:href="utils_8h.html" target="_top" xlink:title=" ">
<polygon fill="white" stroke="black" points="950,-168.5 950,-187.5 997,-187.5 997,-168.5 950,-168.5"/>
<text text-anchor="middle" x="973.5" y="-175.5" font-family="Helvetica,sans-Serif" font-size="10.00">utils.h</text>
</a>
</g>
</g>
<!-- Node7&#45;&gt;Node9 -->
<g id="edge9" class="edge">
<title>Node7&#45;&gt;Node9</title>
<path fill="none" stroke="midnightblue" d="M495.54,-228.26C599.2,-217.57 848.9,-191.84 939.74,-182.48"/>
<polygon fill="midnightblue" stroke="midnightblue" points="940.17,-185.95 949.76,-181.45 939.46,-178.99 940.17,-185.95"/>
</g>
<!-- Node9&#45;&gt;Node4 -->
<g id="edge11" class="edge">
<title>Node9&#45;&gt;Node4</title>
<path fill="none" stroke="midnightblue" d="M949.91,-176.57C873.45,-174.84 633.5,-166.7 565.5,-132 544.36,-121.22 527.12,-99.51 516.84,-84.15"/>
<polygon fill="midnightblue" stroke="midnightblue" points="519.7,-82.12 511.37,-75.57 513.79,-85.88 519.7,-82.12"/>
</g>
<!-- Node9&#45;&gt;Node5 -->
<g id="edge14" class="edge">
<title>Node9&#45;&gt;Node5</title>
<path fill="none" stroke="midnightblue" d="M949.63,-174.72C880.76,-168.13 675.71,-148.51 505.5,-132 492.01,-130.69 477.4,-129.27 463.89,-127.94"/>
<polygon fill="midnightblue" stroke="midnightblue" points="464.1,-124.45 453.8,-126.96 463.41,-131.41 464.1,-124.45"/>
</g>
<!-- Node9&#45;&gt;Node6 -->
<g id="edge12" class="edge">
<title>Node9&#45;&gt;Node6</title>
<path fill="none" stroke="midnightblue" d="M997.24,-177.51C1033.21,-176.95 1101.46,-170.46 1140.5,-132 1165.09,-107.78 1178.44,-82.65 1156.5,-56 1132.65,-27.03 1023.8,-16.45 964.79,-12.79"/>
<polygon fill="midnightblue" stroke="midnightblue" points="964.92,-9.29 954.73,-12.21 964.51,-16.28 964.92,-9.29"/>
</g>
<!-- Node9&#45;&gt;Node8 -->
<g id="edge13" class="edge">
<title>Node9&#45;&gt;Node8</title>
<path fill="none" stroke="midnightblue" d="M979.41,-168.26C987.28,-155.47 999.23,-131.1 990.5,-112 984.72,-99.36 973.45,-88.91 962.87,-81.27"/>
<polygon fill="midnightblue" stroke="midnightblue" points="964.54,-78.18 954.28,-75.53 960.65,-84 964.54,-78.18"/>
</g>
<!-- Node10 -->
<g id="node10" class="node">
<title>Node10</title>
<g id="a_node10"><a xlink:title=" ">
<polygon fill="white" stroke="#bfbfbf" points="1240.5,-56.5 1240.5,-75.5 1290.5,-75.5 1290.5,-56.5 1240.5,-56.5"/>
<text text-anchor="middle" x="1265.5" y="-63.5" font-family="Helvetica,sans-Serif" font-size="10.00">stdio.h</text>
</a>
</g>
</g>
<!-- Node9&#45;&gt;Node10 -->
<g id="edge10" class="edge">
<title>Node9&#45;&gt;Node10</title>
<path fill="none" stroke="midnightblue" d="M997.24,-176.36C1039.41,-174.34 1129.2,-166.03 1195.5,-132 1218.44,-120.23 1239.34,-98.78 1252.21,-83.75"/>
<polygon fill="midnightblue" stroke="midnightblue" points="1255.14,-85.7 1258.82,-75.76 1249.74,-81.24 1255.14,-85.7"/>
</g>
<!-- Node11 -->
<g id="node11" class="node">
<title>Node11</title>
<g id="a_node11"><a xlink:href="memory_8h.html" target="_top" xlink:title=" ">
<polygon fill="white" stroke="black" points="1366,-56.5 1366,-75.5 1455,-75.5 1455,-56.5 1366,-56.5"/>
<text text-anchor="middle" x="1410.5" y="-63.5" font-family="Helvetica,sans-Serif" font-size="10.00">utils/memory.h</text>
</a>
</g>
</g>
<!-- Node9&#45;&gt;Node11 -->
<g id="edge15" class="edge">
<title>Node9&#45;&gt;Node11</title>
<path fill="none" stroke="midnightblue" d="M997.24,-176.68C1091.59,-175.14 1436.39,-167.17 1468.5,-132 1484.55,-114.43 1458.96,-93.91 1436.86,-80.7"/>
<polygon fill="midnightblue" stroke="midnightblue" points="1438.46,-77.58 1428.04,-75.68 1435,-83.67 1438.46,-77.58"/>
</g>
<!-- Node12 -->
<g id="node12" class="node">
<title>Node12</title>
<g id="a_node12"><a xlink:href="mymalloc_8h.html" target="_top" xlink:title=" ">
<polygon fill="white" stroke="black" points="1361.5,-112.5 1361.5,-131.5 1459.5,-131.5 1459.5,-112.5 1361.5,-112.5"/>
<text text-anchor="middle" x="1410.5" y="-119.5" font-family="Helvetica,sans-Serif" font-size="10.00">utils/mymalloc.h</text>
</a>
</g>
</g>
<!-- Node9&#45;&gt;Node12 -->
<g id="edge17" class="edge">
<title>Node9&#45;&gt;Node12</title>
<path fill="none" stroke="midnightblue" d="M997.04,-174.5C1055.24,-168.26 1210.73,-151.2 1351.37,-132.11"/>
<polygon fill="midnightblue" stroke="midnightblue" points="1352.04,-135.55 1361.47,-130.73 1351.09,-128.62 1352.04,-135.55"/>
</g>
<!-- Node13 -->
<g id="node13" class="node">
<title>Node13</title>
<g id="a_node13"><a xlink:href="paramset_8h.html" target="_top" xlink:title=" ">
<polygon fill="white" stroke="black" points="1247.5,-112.5 1247.5,-131.5 1343.5,-131.5 1343.5,-112.5 1247.5,-112.5"/>
<text text-anchor="middle" x="1295.5" y="-119.5" font-family="Helvetica,sans-Serif" font-size="10.00">utils/paramset.h</text>
</a>
</g>
</g>
<!-- Node9&#45;&gt;Node13 -->
<g id="edge19" class="edge">
<title>Node9&#45;&gt;Node13</title>
<path fill="none" stroke="midnightblue" d="M997.18,-173.03C1047.29,-164.63 1165.34,-144.83 1237,-132.81"/>
<polygon fill="midnightblue" stroke="midnightblue" points="1237.94,-136.2 1247.23,-131.1 1236.78,-129.3 1237.94,-136.2"/>
</g>
<!-- Node14 -->
<g id="node14" class="node">
<title>Node14</title>
<g id="a_node14"><a xlink:href="event_8h.html" target="_top" xlink:title=" ">
<polygon fill="white" stroke="black" points="586,-112.5 586,-131.5 663,-131.5 663,-112.5 586,-112.5"/>
<text text-anchor="middle" x="624.5" y="-119.5" font-family="Helvetica,sans-Serif" font-size="10.00">utils/event.h</text>
</a>
</g>
</g>
<!-- Node9&#45;&gt;Node14 -->
<g id="edge21" class="edge">
<title>Node9&#45;&gt;Node14</title>
<path fill="none" stroke="midnightblue" d="M949.95,-173.83C900.58,-167.11 782.42,-150.65 673.39,-132.27"/>
<polygon fill="midnightblue" stroke="midnightblue" points="673.65,-128.76 663.21,-130.54 672.48,-135.67 673.65,-128.76"/>
</g>
<!-- Node15 -->
<g id="node15" class="node">
<title>Node15</title>
<g id="a_node15"><a xlink:href="openmpsort_8h.html" target="_top" xlink:title=" ">
<polygon fill="white" stroke="black" points="677.5,-56.5 677.5,-75.5 785.5,-75.5 785.5,-56.5 677.5,-56.5"/>
<text text-anchor="middle" x="731.5" y="-63.5" font-family="Helvetica,sans-Serif" font-size="10.00">utils/openmpsort.h</text>
</a>
</g>
</g>
<!-- Node9&#45;&gt;Node15 -->
<g id="edge22" class="edge">
<title>Node9&#45;&gt;Node15</title>
<path fill="none" stroke="midnightblue" d="M949.85,-176.12C868.16,-172.83 601.51,-160 576.5,-132 545.81,-97.63 611.96,-80.93 667.16,-73.18"/>
<polygon fill="midnightblue" stroke="midnightblue" points="667.86,-76.61 677.32,-71.83 666.94,-69.68 667.86,-76.61"/>
</g>
<!-- Node16 -->
<g id="node16" class="node">
<title>Node16</title>
<g id="a_node16"><a xlink:href="system_8h.html" target="_top" xlink:title=" ">
<polygon fill="white" stroke="black" points="895.5,-112.5 895.5,-131.5 981.5,-131.5 981.5,-112.5 895.5,-112.5"/>
<text text-anchor="middle" x="938.5" y="-119.5" font-family="Helvetica,sans-Serif" font-size="10.00">utils/system.h</text>
</a>
</g>
</g>
<!-- Node9&#45;&gt;Node16 -->
<g id="edge24" class="edge">
<title>Node9&#45;&gt;Node16</title>
<path fill="none" stroke="midnightblue" d="M967.72,-168.08C962.83,-160.53 955.67,-149.49 949.67,-140.23"/>
<polygon fill="midnightblue" stroke="midnightblue" points="952.55,-138.24 944.17,-131.75 946.67,-142.05 952.55,-138.24"/>
</g>
<!-- Node18 -->
<g id="node18" class="node">
<title>Node18</title>
<g id="a_node18"><a xlink:href="string_8h.html" target="_top" xlink:title=" ">
<polygon fill="white" stroke="black" points="1038,-112.5 1038,-131.5 1115,-131.5 1115,-112.5 1038,-112.5"/>
<text text-anchor="middle" x="1076.5" y="-119.5" font-family="Helvetica,sans-Serif" font-size="10.00">utils/string.h</text>
</a>
</g>
</g>
<!-- Node9&#45;&gt;Node18 -->
<g id="edge28" class="edge">
<title>Node9&#45;&gt;Node18</title>
<path fill="none" stroke="midnightblue" d="M990.05,-168.32C1006.49,-159.7 1031.93,-146.36 1050.97,-136.39"/>
<polygon fill="midnightblue" stroke="midnightblue" points="1052.76,-139.4 1059.99,-131.65 1049.51,-133.2 1052.76,-139.4"/>
</g>
<!-- Node19 -->
<g id="node19" class="node">
<title>Node19</title>
<g id="a_node19"><a xlink:href="endrun_8h.html" target="_top" xlink:title=" ">
<polygon fill="white" stroke="black" points="681,-112.5 681,-131.5 764,-131.5 764,-112.5 681,-112.5"/>
<text text-anchor="middle" x="722.5" y="-119.5" font-family="Helvetica,sans-Serif" font-size="10.00">utils/endrun.h</text>
</a>
</g>
</g>
<!-- Node9&#45;&gt;Node19 -->
<g id="edge30" class="edge">
<title>Node9&#45;&gt;Node19</title>
<path fill="none" stroke="midnightblue" d="M949.89,-171.92C909.42,-163.21 825.98,-145.26 772.21,-133.69"/>
<polygon fill="midnightblue" stroke="midnightblue" points="772.72,-130.22 762.2,-131.54 771.24,-137.07 772.72,-130.22"/>
</g>
<!-- Node20 -->
<g id="node20" class="node">
<title>Node20</title>
<g id="a_node20"><a xlink:href="interp_8h.html" target="_top" xlink:title=" ">
<polygon fill="white" stroke="black" points="1069.5,-56.5 1069.5,-75.5 1147.5,-75.5 1147.5,-56.5 1069.5,-56.5"/>
<text text-anchor="middle" x="1108.5" y="-63.5" font-family="Helvetica,sans-Serif" font-size="10.00">utils/interp.h</text>
</a>
</g>
</g>
<!-- Node9&#45;&gt;Node20 -->
<g id="edge31" class="edge">
<title>Node9&#45;&gt;Node20</title>
<path fill="none" stroke="midnightblue" d="M997.02,-177.84C1031.3,-177.63 1094.12,-171.48 1123.5,-132 1133.72,-118.26 1127.13,-98.71 1119.74,-84.64"/>
<polygon fill="midnightblue" stroke="midnightblue" points="1122.73,-82.82 1114.69,-75.91 1116.67,-86.32 1122.73,-82.82"/>
</g>
<!-- Node21 -->
<g id="node21" class="node">
<title>Node21</title>
<g id="a_node21"><a xlink:href="spinlocks_8h.html" target="_top" xlink:title=" ">
<polygon fill="white" stroke="black" points="782,-112.5 782,-131.5 877,-131.5 877,-112.5 782,-112.5"/>
<text text-anchor="middle" x="829.5" y="-119.5" font-family="Helvetica,sans-Serif" font-size="10.00">utils/spinlocks.h</text>
</a>
</g>
</g>
<!-- Node9&#45;&gt;Node21 -->
<g id="edge33" class="edge">
<title>Node9&#45;&gt;Node21</title>
<path fill="none" stroke="midnightblue" d="M950.68,-168.44C926.67,-159.44 888.67,-145.19 861.63,-135.05"/>
<polygon fill="midnightblue" stroke="midnightblue" points="862.8,-131.75 852.21,-131.52 860.34,-138.3 862.8,-131.75"/>
</g>
<!-- Node11&#45;&gt;Node6 -->
<g id="edge16" class="edge">
<title>Node11&#45;&gt;Node6</title>
<path fill="none" stroke="midnightblue" d="M1365.83,-60.02C1271.5,-49.49 1053.37,-25.15 964.86,-15.28"/>
<polygon fill="midnightblue" stroke="midnightblue" points="965.05,-11.78 954.72,-14.15 964.28,-18.74 965.05,-11.78"/>
</g>
<!-- Node12&#45;&gt;Node11 -->
<g id="edge18" class="edge">
<title>Node12&#45;&gt;Node11</title>
<path fill="none" stroke="midnightblue" d="M1410.5,-112.08C1410.5,-105.01 1410.5,-94.86 1410.5,-85.99"/>
<polygon fill="midnightblue" stroke="midnightblue" points="1414,-85.75 1410.5,-75.75 1407,-85.75 1414,-85.75"/>
</g>
<!-- Node13&#45;&gt;Node10 -->
<g id="edge20" class="edge">
<title>Node13&#45;&gt;Node10</title>
<path fill="none" stroke="midnightblue" d="M1290.55,-112.08C1286.4,-104.61 1280.35,-93.72 1275.23,-84.52"/>
<polygon fill="midnightblue" stroke="midnightblue" points="1278.28,-82.79 1270.36,-75.75 1272.16,-86.19 1278.28,-82.79"/>
</g>
<!-- Node15&#45;&gt;Node6 -->
<g id="edge23" class="edge">
<title>Node15&#45;&gt;Node6</title>
<path fill="none" stroke="midnightblue" d="M762.4,-56.44C796.56,-46.98 851.61,-31.74 888.42,-21.55"/>
<polygon fill="midnightblue" stroke="midnightblue" points="889.58,-24.86 898.28,-18.82 887.71,-18.11 889.58,-24.86"/>
</g>
<!-- Node16&#45;&gt;Node4 -->
<g id="edge25" class="edge">
<title>Node16&#45;&gt;Node4</title>
<path fill="none" stroke="midnightblue" d="M895.43,-113.5C892.07,-112.97 888.73,-112.47 885.5,-112 760.37,-93.96 611.24,-77.81 543.39,-70.76"/>
<polygon fill="midnightblue" stroke="midnightblue" points="543.52,-67.25 533.21,-69.71 542.8,-74.22 543.52,-67.25"/>
</g>
<!-- Node16&#45;&gt;Node8 -->
<g id="edge26" class="edge">
<title>Node16&#45;&gt;Node8</title>
<path fill="none" stroke="midnightblue" d="M938.5,-112.08C938.5,-105.01 938.5,-94.86 938.5,-85.99"/>
<polygon fill="midnightblue" stroke="midnightblue" points="942,-85.75 938.5,-75.75 935,-85.75 942,-85.75"/>
</g>
<!-- Node17 -->
<g id="node17" class="node">
<title>Node17</title>
<g id="a_node17"><a xlink:title=" ">
<polygon fill="white" stroke="#bfbfbf" points="984.5,-56.5 984.5,-75.5 1040.5,-75.5 1040.5,-56.5 984.5,-56.5"/>
<text text-anchor="middle" x="1012.5" y="-63.5" font-family="Helvetica,sans-Serif" font-size="10.00">stdarg.h</text>
</a>
</g>
</g>
<!-- Node16&#45;&gt;Node17 -->
<g id="edge27" class="edge">
<title>Node16&#45;&gt;Node17</title>
<path fill="none" stroke="midnightblue" d="M950.39,-112.32C961.65,-104.11 978.79,-91.6 992.21,-81.81"/>
<polygon fill="midnightblue" stroke="midnightblue" points="994.38,-84.56 1000.39,-75.83 990.25,-78.9 994.38,-84.56"/>
</g>
<!-- Node18&#45;&gt;Node17 -->
<g id="edge29" class="edge">
<title>Node18&#45;&gt;Node17</title>
<path fill="none" stroke="midnightblue" d="M1066.22,-112.32C1056.66,-104.26 1042.22,-92.08 1030.72,-82.37"/>
<polygon fill="midnightblue" stroke="midnightblue" points="1032.87,-79.61 1022.97,-75.83 1028.36,-84.96 1032.87,-79.61"/>
</g>
<!-- Node20&#45;&gt;Node6 -->
<g id="edge32" class="edge">
<title>Node20&#45;&gt;Node6</title>
<path fill="none" stroke="midnightblue" d="M1079.66,-56.44C1048.46,-47.19 998.59,-32.39 964.28,-22.21"/>
<polygon fill="midnightblue" stroke="midnightblue" points="965.19,-18.83 954.61,-19.34 963.2,-25.54 965.19,-18.83"/>
</g>
<!-- Node22&#45;&gt;Node2 -->
<g id="edge43" class="edge">
<title>Node22&#45;&gt;Node2</title>
<path fill="none" stroke="midnightblue" d="M387.17,-280.37C384.42,-262.62 378.09,-221.67 374.37,-197.6"/>
<polygon fill="midnightblue" stroke="midnightblue" points="377.81,-196.94 372.83,-187.59 370.9,-198.01 377.81,-196.94"/>
</g>
<!-- Node22&#45;&gt;Node3 -->
<g id="edge42" class="edge">
<title>Node22&#45;&gt;Node3</title>
<path fill="none" stroke="midnightblue" d="M379.61,-280.29C363.64,-263.97 330.66,-226.89 318.5,-188 313.71,-172.68 317.2,-154.57 321.32,-141.37"/>
<polygon fill="midnightblue" stroke="midnightblue" points="324.74,-142.19 324.76,-131.6 318.14,-139.87 324.74,-142.19"/>
</g>
<!-- Node22&#45;&gt;Node7 -->
<g id="edge44" class="edge">
<title>Node22&#45;&gt;Node7</title>
<path fill="none" stroke="midnightblue" d="M398.3,-280.32C407.32,-272.34 420.91,-260.31 431.82,-250.65"/>
<polygon fill="midnightblue" stroke="midnightblue" points="434.35,-253.08 439.52,-243.83 429.71,-247.84 434.35,-253.08"/>
</g>
<!-- Node23 -->
<g id="node23" class="node">
<title>Node23</title>
<g id="a_node23"><a xlink:href="cosmology_8h.html" target="_top" xlink:title=" ">
<polygon fill="white" stroke="black" points="141,-224.5 141,-243.5 218,-243.5 218,-224.5 141,-224.5"/>
<text text-anchor="middle" x="179.5" y="-231.5" font-family="Helvetica,sans-Serif" font-size="10.00">cosmology.h</text>
</a>
</g>
</g>
<!-- Node22&#45;&gt;Node23 -->
<g id="edge37" class="edge">
<title>Node22&#45;&gt;Node23</title>
<path fill="none" stroke="midnightblue" d="M365.74,-283.12C331.38,-274.24 265.7,-257.27 222.24,-246.04"/>
<polygon fill="midnightblue" stroke="midnightblue" points="223.07,-242.64 212.51,-243.53 221.32,-249.42 223.07,-242.64"/>
</g>
<!-- Node23&#45;&gt;Node6 -->
<g id="edge38" class="edge">
<title>Node23&#45;&gt;Node6</title>
<path fill="none" stroke="midnightblue" d="M172.25,-224.35C162.2,-211.24 146.54,-185.96 158.5,-168 233.7,-55.07 310.24,-86.27 442.5,-56 605.24,-18.75 805.49,-12.2 888.09,-11.14"/>
<polygon fill="midnightblue" stroke="midnightblue" points="888.3,-14.64 898.26,-11.04 888.23,-7.64 888.3,-14.64"/>
</g>
<!-- Node24 -->
<g id="node24" class="node">
<title>Node24</title>
<g id="a_node24"><a xlink:href="omega__nu__single_8h.html" target="_top" xlink:title=" ">
<polygon fill="white" stroke="black" points="0,-168.5 0,-187.5 111,-187.5 111,-168.5 0,-168.5"/>
<text text-anchor="middle" x="55.5" y="-175.5" font-family="Helvetica,sans-Serif" font-size="10.00">omega_nu_single.h</text>
</a>
</g>
</g>
<!-- Node23&#45;&gt;Node24 -->
<g id="edge39" class="edge">
<title>Node23&#45;&gt;Node24</title>
<path fill="none" stroke="midnightblue" d="M159.85,-224.44C139.54,-215.6 107.6,-201.69 84.4,-191.59"/>
<polygon fill="midnightblue" stroke="midnightblue" points="85.62,-188.3 75.06,-187.52 82.83,-194.72 85.62,-188.3"/>
</g>
<!-- Node26 -->
<g id="node26" class="node">
<title>Node26</title>
<g id="a_node26"><a xlink:href="unitsystem_8h.html" target="_top" xlink:title=" ">
<polygon fill="white" stroke="black" points="167.5,-168.5 167.5,-187.5 271.5,-187.5 271.5,-168.5 167.5,-168.5"/>
<text text-anchor="middle" x="219.5" y="-175.5" font-family="Helvetica,sans-Serif" font-size="10.00">utils/unitsystem.h</text>
</a>
</g>
</g>
<!-- Node23&#45;&gt;Node26 -->
<g id="edge41" class="edge">
<title>Node23&#45;&gt;Node26</title>
<path fill="none" stroke="midnightblue" d="M186.11,-224.08C191.76,-216.46 200.04,-205.26 206.95,-195.94"/>
<polygon fill="midnightblue" stroke="midnightblue" points="209.88,-197.87 213.02,-187.75 204.25,-193.7 209.88,-197.87"/>
</g>
<!-- Node25 -->
<g id="node25" class="node">
<title>Node25</title>
<g id="a_node25"><a xlink:title=" ">
<polygon fill="white" stroke="#bfbfbf" points="10,-112.5 10,-131.5 101,-131.5 101,-112.5 10,-112.5"/>
<text text-anchor="middle" x="55.5" y="-119.5" font-family="Helvetica,sans-Serif" font-size="10.00">gsl/gsl_interp.h</text>
</a>
</g>
</g>
<!-- Node24&#45;&gt;Node25 -->
<g id="edge40" class="edge">
<title>Node24&#45;&gt;Node25</title>
<path fill="none" stroke="midnightblue" d="M55.5,-168.08C55.5,-161.01 55.5,-150.86 55.5,-141.99"/>
<polygon fill="midnightblue" stroke="midnightblue" points="59,-141.75 55.5,-131.75 52,-141.75 59,-141.75"/>
</g>
</g>
</svg>
