<?xml version="1.0" encoding="UTF-8" standalone="no"?>
<!DOCTYPE svg PUBLIC "-//W3C//DTD SVG 1.1//EN"
 "http://www.w3.org/Graphics/SVG/1.1/DTD/svg11.dtd">
<!-- Generated by graphviz version 2.50.0 (0)
 -->
<!-- Title: libgadget/exchange.c Pages: 1 -->
<svg width="1526pt" height="420pt"
 viewBox="0.00 0.00 1525.50 420.00" xmlns="http://www.w3.org/2000/svg" xmlns:xlink="http://www.w3.org/1999/xlink">
<g id="graph0" class="graph" transform="scale(1 1) rotate(0) translate(4 416)">
<title>libgadget/exchange.c</title>
<polygon fill="white" stroke="transparent" points="-4,4 -4,-416 1521.5,-416 1521.5,4 -4,4"/>
<!-- Node1 -->
<g id="node1" class="node">
<title>Node1</title>
<g id="a_node1"><a xlink:title=" ">
<polygon fill="#bfbfbf" stroke="black" points="412.5,-392.5 412.5,-411.5 533.5,-411.5 533.5,-392.5 412.5,-392.5"/>
<text text-anchor="middle" x="473" y="-399.5" font-family="Helvetica,sans-Serif" font-size="10.00">libgadget/exchange.c</text>
</a>
</g>
</g>
<!-- Node2 -->
<g id="node2" class="node">
<title>Node2</title>
<g id="a_node2"><a xlink:title=" ">
<polygon fill="white" stroke="#bfbfbf" points="71,-56.5 71,-75.5 115,-75.5 115,-56.5 71,-56.5"/>
<text text-anchor="middle" x="93" y="-63.5" font-family="Helvetica,sans-Serif" font-size="10.00">mpi.h</text>
</a>
</g>
</g>
<!-- Node1&#45;&gt;Node2 -->
<g id="edge1" class="edge">
<title>Node1&#45;&gt;Node2</title>
<path fill="none" stroke="midnightblue" d="M412.13,-399.51C284.38,-394.72 0,-374.68 0,-291 0,-291 0,-291 0,-177 0,-134.31 41.35,-99.64 68.91,-81.28"/>
<polygon fill="midnightblue" stroke="midnightblue" points="71.11,-84.03 77.64,-75.69 67.33,-78.13 71.11,-84.03"/>
</g>
<!-- Node3 -->
<g id="node3" class="node">
<title>Node3</title>
<g id="a_node3"><a xlink:title=" ">
<polygon fill="white" stroke="#bfbfbf" points="630.5,-336.5 630.5,-355.5 677.5,-355.5 677.5,-336.5 630.5,-336.5"/>
<text text-anchor="middle" x="654" y="-343.5" font-family="Helvetica,sans-Serif" font-size="10.00">omp.h</text>
</a>
</g>
</g>
<!-- Node1&#45;&gt;Node3 -->
<g id="edge2" class="edge">
<title>Node1&#45;&gt;Node3</title>
<path fill="none" stroke="midnightblue" d="M501.68,-392.44C533.93,-382.82 586.24,-367.21 620.39,-357.03"/>
<polygon fill="midnightblue" stroke="midnightblue" points="621.78,-360.27 630.36,-354.05 619.77,-353.56 621.78,-360.27"/>
</g>
<!-- Node4 -->
<g id="node4" class="node">
<title>Node4</title>
<g id="a_node4"><a xlink:href="string_8h.html" target="_top" xlink:title=" ">
<polygon fill="white" stroke="black" points="916.5,-112.5 916.5,-131.5 969.5,-131.5 969.5,-112.5 916.5,-112.5"/>
<text text-anchor="middle" x="943" y="-119.5" font-family="Helvetica,sans-Serif" font-size="10.00">string.h</text>
</a>
</g>
</g>
<!-- Node1&#45;&gt;Node4 -->
<g id="edge3" class="edge">
<title>Node1&#45;&gt;Node4</title>
<path fill="none" stroke="midnightblue" d="M487.58,-392.38C555.02,-352.49 836.89,-185.77 919.9,-136.66"/>
<polygon fill="midnightblue" stroke="midnightblue" points="921.76,-139.63 928.59,-131.52 918.2,-133.6 921.76,-139.63"/>
</g>
<!-- Node6 -->
<g id="node6" class="node">
<title>Node6</title>
<g id="a_node6"><a xlink:href="exchange_8h.html" target="_top" xlink:title=" ">
<polygon fill="white" stroke="black" points="279.5,-336.5 279.5,-355.5 352.5,-355.5 352.5,-336.5 279.5,-336.5"/>
<text text-anchor="middle" x="316" y="-343.5" font-family="Helvetica,sans-Serif" font-size="10.00">exchange.h</text>
</a>
</g>
</g>
<!-- Node1&#45;&gt;Node6 -->
<g id="edge5" class="edge">
<title>Node1&#45;&gt;Node6</title>
<path fill="none" stroke="midnightblue" d="M448.12,-392.44C421.71,-383.36 379.78,-368.94 350.26,-358.78"/>
<polygon fill="midnightblue" stroke="midnightblue" points="351.36,-355.46 340.76,-355.52 349.08,-362.08 351.36,-355.46"/>
</g>
<!-- Node7 -->
<g id="node7" class="node">
<title>Node7</title>
<g id="a_node7"><a xlink:href="partmanager_8h.html" target="_top" xlink:title=" ">
<polygon fill="white" stroke="black" points="172,-168.5 172,-187.5 260,-187.5 260,-168.5 172,-168.5"/>
<text text-anchor="middle" x="216" y="-175.5" font-family="Helvetica,sans-Serif" font-size="10.00">partmanager.h</text>
</a>
</g>
</g>
<!-- Node1&#45;&gt;Node7 -->
<g id="edge50" class="edge">
<title>Node1&#45;&gt;Node7</title>
<path fill="none" stroke="midnightblue" d="M412.28,-400.06C364.7,-396.79 298.49,-386.45 249,-356 195.08,-322.83 181.69,-303.83 161,-244 158.09,-235.6 157.19,-232.03 161,-224 167.13,-211.07 178.99,-200.62 190.14,-193.05"/>
<polygon fill="midnightblue" stroke="midnightblue" points="192.19,-195.9 198.8,-187.61 188.47,-189.97 192.19,-195.9"/>
</g>
<!-- Node12 -->
<g id="node12" class="node">
<title>Node12</title>
<g id="a_node12"><a xlink:href="slotsmanager_8h.html" target="_top" xlink:title=" ">
<polygon fill="white" stroke="black" points="170,-224.5 170,-243.5 262,-243.5 262,-224.5 170,-224.5"/>
<text text-anchor="middle" x="216" y="-231.5" font-family="Helvetica,sans-Serif" font-size="10.00">slotsmanager.h</text>
</a>
</g>
</g>
<!-- Node1&#45;&gt;Node12 -->
<g id="edge49" class="edge">
<title>Node1&#45;&gt;Node12</title>
<path fill="none" stroke="midnightblue" d="M412.33,-393.53C361,-386.13 292.45,-373.4 271,-356 238.7,-329.79 224.62,-280.5 219.11,-253.63"/>
<polygon fill="midnightblue" stroke="midnightblue" points="222.52,-252.81 217.25,-243.62 215.64,-254.09 222.52,-252.81"/>
</g>
<!-- Node13 -->
<g id="node13" class="node">
<title>Node13</title>
<g id="a_node13"><a xlink:href="utils_8h.html" target="_top" xlink:title=" ">
<polygon fill="white" stroke="black" points="542.5,-168.5 542.5,-187.5 589.5,-187.5 589.5,-168.5 542.5,-168.5"/>
<text text-anchor="middle" x="566" y="-175.5" font-family="Helvetica,sans-Serif" font-size="10.00">utils.h</text>
</a>
</g>
</g>
<!-- Node1&#45;&gt;Node13 -->
<g id="edge59" class="edge">
<title>Node1&#45;&gt;Node13</title>
<path fill="none" stroke="midnightblue" d="M476.65,-392.3C490.39,-359.49 539.24,-242.88 558.3,-197.38"/>
<polygon fill="midnightblue" stroke="midnightblue" points="561.64,-198.46 562.28,-187.88 555.19,-195.75 561.64,-198.46"/>
</g>
<!-- Node24 -->
<g id="node24" class="node">
<title>Node24</title>
<g id="a_node24"><a xlink:href="drift_8h.html" target="_top" xlink:title=" ">
<polygon fill="white" stroke="black" points="331.5,-280.5 331.5,-299.5 376.5,-299.5 376.5,-280.5 331.5,-280.5"/>
<text text-anchor="middle" x="354" y="-287.5" font-family="Helvetica,sans-Serif" font-size="10.00">drift.h</text>
</a>
</g>
</g>
<!-- Node1&#45;&gt;Node24 -->
<g id="edge52" class="edge">
<title>Node1&#45;&gt;Node24</title>
<path fill="none" stroke="midnightblue" d="M463.66,-392.37C443.59,-373.81 396.1,-329.91 370.7,-306.44"/>
<polygon fill="midnightblue" stroke="midnightblue" points="373.01,-303.81 363.29,-299.59 368.26,-308.95 373.01,-303.81"/>
</g>
<!-- Node29 -->
<g id="node29" class="node">
<title>Node29</title>
<g id="a_node29"><a xlink:href="walltime_8h.html" target="_top" xlink:title=" ">
<polygon fill="white" stroke="black" points="696,-336.5 696,-355.5 764,-355.5 764,-336.5 696,-336.5"/>
<text text-anchor="middle" x="730" y="-343.5" font-family="Helvetica,sans-Serif" font-size="10.00">walltime.h</text>
</a>
</g>
</g>
<!-- Node1&#45;&gt;Node29 -->
<g id="edge51" class="edge">
<title>Node1&#45;&gt;Node29</title>
<path fill="none" stroke="midnightblue" d="M513.72,-392.44C560.63,-382.59 637.43,-366.45 685.77,-356.29"/>
<polygon fill="midnightblue" stroke="midnightblue" points="686.57,-359.7 695.64,-354.22 685.13,-352.85 686.57,-359.7"/>
</g>
<!-- Node30 -->
<g id="node30" class="node">
<title>Node30</title>
<g id="a_node30"><a xlink:href="timefac_8h.html" target="_top" xlink:title=" ">
<polygon fill="white" stroke="black" points="441.5,-224.5 441.5,-243.5 504.5,-243.5 504.5,-224.5 441.5,-224.5"/>
<text text-anchor="middle" x="473" y="-231.5" font-family="Helvetica,sans-Serif" font-size="10.00">timefac.h</text>
</a>
</g>
</g>
<!-- Node1&#45;&gt;Node30 -->
<g id="edge53" class="edge">
<title>Node1&#45;&gt;Node30</title>
<path fill="none" stroke="midnightblue" d="M473,-392.08C473,-365.95 473,-289.21 473,-253.58"/>
<polygon fill="midnightblue" stroke="midnightblue" points="476.5,-253.57 473,-243.57 469.5,-253.57 476.5,-253.57"/>
</g>
<!-- Node32 -->
<g id="node32" class="node">
<title>Node32</title>
<g id="a_node32"><a xlink:href="mpsort_8h.html" target="_top" xlink:title=" ">
<polygon fill="white" stroke="black" points="782,-336.5 782,-355.5 866,-355.5 866,-336.5 782,-336.5"/>
<text text-anchor="middle" x="824" y="-343.5" font-family="Helvetica,sans-Serif" font-size="10.00">utils/mpsort.h</text>
</a>
</g>
</g>
<!-- Node1&#45;&gt;Node32 -->
<g id="edge60" class="edge">
<title>Node1&#45;&gt;Node32</title>
<path fill="none" stroke="midnightblue" d="M532.84,-392.49C591.25,-384.07 682.92,-370.59 771.99,-356.13"/>
<polygon fill="midnightblue" stroke="midnightblue" points="772.68,-359.56 781.99,-354.5 771.56,-352.66 772.68,-359.56"/>
</g>
<!-- Node5 -->
<g id="node5" class="node">
<title>Node5</title>
<g id="a_node5"><a xlink:title=" ">
<polygon fill="white" stroke="#bfbfbf" points="456,-56.5 456,-75.5 512,-75.5 512,-56.5 456,-56.5"/>
<text text-anchor="middle" x="484" y="-63.5" font-family="Helvetica,sans-Serif" font-size="10.00">stdarg.h</text>
</a>
</g>
</g>
<!-- Node4&#45;&gt;Node5 -->
<g id="edge4" class="edge">
<title>Node4&#45;&gt;Node5</title>
<path fill="none" stroke="midnightblue" d="M916.34,-117.86C838.76,-108.74 612.94,-82.17 522.3,-71.51"/>
<polygon fill="midnightblue" stroke="midnightblue" points="522.53,-68.01 512.19,-70.32 521.71,-74.96 522.53,-68.01"/>
</g>
<!-- Node6&#45;&gt;Node7 -->
<g id="edge6" class="edge">
<title>Node6&#45;&gt;Node7</title>
<path fill="none" stroke="midnightblue" d="M314.41,-336.35C310.25,-315.41 297.46,-261.01 271,-224 262.4,-211.96 249.78,-201.33 238.8,-193.42"/>
<polygon fill="midnightblue" stroke="midnightblue" points="240.68,-190.47 230.46,-187.69 236.72,-196.24 240.68,-190.47"/>
</g>
<!-- Node6&#45;&gt;Node12 -->
<g id="edge12" class="edge">
<title>Node6&#45;&gt;Node12</title>
<path fill="none" stroke="midnightblue" d="M308.15,-336.37C291.43,-317.97 252.06,-274.67 230.59,-251.05"/>
<polygon fill="midnightblue" stroke="midnightblue" points="233.13,-248.64 223.81,-243.59 227.95,-253.35 233.13,-248.64"/>
</g>
<!-- Node6&#45;&gt;Node24 -->
<g id="edge40" class="edge">
<title>Node6&#45;&gt;Node24</title>
<path fill="none" stroke="midnightblue" d="M322.27,-336.08C327.64,-328.46 335.52,-317.26 342.08,-307.94"/>
<polygon fill="midnightblue" stroke="midnightblue" points="344.95,-309.94 347.84,-299.75 339.22,-305.91 344.95,-309.94"/>
</g>
<!-- Node8 -->
<g id="node8" class="node">
<title>Node8</title>
<g id="a_node8"><a xlink:href="types_8h.html" target="_top" xlink:title=" ">
<polygon fill="white" stroke="black" points="66.5,-112.5 66.5,-131.5 119.5,-131.5 119.5,-112.5 66.5,-112.5"/>
<text text-anchor="middle" x="93" y="-119.5" font-family="Helvetica,sans-Serif" font-size="10.00">types.h</text>
</a>
</g>
</g>
<!-- Node7&#45;&gt;Node8 -->
<g id="edge7" class="edge">
<title>Node7&#45;&gt;Node8</title>
<path fill="none" stroke="midnightblue" d="M196.51,-168.44C176.36,-159.6 144.68,-145.69 121.67,-135.59"/>
<polygon fill="midnightblue" stroke="midnightblue" points="122.96,-132.33 112.4,-131.52 120.15,-138.74 122.96,-132.33"/>
</g>
<!-- Node10 -->
<g id="node10" class="node">
<title>Node10</title>
<g id="a_node10"><a xlink:href="peano_8h.html" target="_top" xlink:title=" ">
<polygon fill="white" stroke="black" points="176,-112.5 176,-131.5 256,-131.5 256,-112.5 176,-112.5"/>
<text text-anchor="middle" x="216" y="-119.5" font-family="Helvetica,sans-Serif" font-size="10.00">utils/peano.h</text>
</a>
</g>
</g>
<!-- Node7&#45;&gt;Node10 -->
<g id="edge9" class="edge">
<title>Node7&#45;&gt;Node10</title>
<path fill="none" stroke="midnightblue" d="M216,-168.08C216,-161.01 216,-150.86 216,-141.99"/>
<polygon fill="midnightblue" stroke="midnightblue" points="219.5,-141.75 216,-131.75 212.5,-141.75 219.5,-141.75"/>
</g>
<!-- Node9 -->
<g id="node9" class="node">
<title>Node9</title>
<g id="a_node9"><a xlink:title=" ">
<polygon fill="white" stroke="#bfbfbf" points="279.5,-56.5 279.5,-75.5 332.5,-75.5 332.5,-56.5 279.5,-56.5"/>
<text text-anchor="middle" x="306" y="-63.5" font-family="Helvetica,sans-Serif" font-size="10.00">stdint.h</text>
</a>
</g>
</g>
<!-- Node8&#45;&gt;Node9 -->
<g id="edge8" class="edge">
<title>Node8&#45;&gt;Node9</title>
<path fill="none" stroke="midnightblue" d="M119.55,-114.27C157.44,-104.66 227.15,-86.99 269.76,-76.19"/>
<polygon fill="midnightblue" stroke="midnightblue" points="270.62,-79.58 279.45,-73.73 268.9,-72.79 270.62,-79.58"/>
</g>
<!-- Node10&#45;&gt;Node9 -->
<g id="edge11" class="edge">
<title>Node10&#45;&gt;Node9</title>
<path fill="none" stroke="midnightblue" d="M230.46,-112.32C244.5,-103.9 266.05,-90.97 282.54,-81.07"/>
<polygon fill="midnightblue" stroke="midnightblue" points="284.8,-83.8 291.58,-75.65 281.2,-77.8 284.8,-83.8"/>
</g>
<!-- Node11 -->
<g id="node11" class="node">
<title>Node11</title>
<g id="a_node11"><a xlink:title=" ">
<polygon fill="white" stroke="#bfbfbf" points="991,-0.5 991,-19.5 1047,-19.5 1047,-0.5 991,-0.5"/>
<text text-anchor="middle" x="1019" y="-7.5" font-family="Helvetica,sans-Serif" font-size="10.00">stddef.h</text>
</a>
</g>
</g>
<!-- Node10&#45;&gt;Node11 -->
<g id="edge10" class="edge">
<title>Node10&#45;&gt;Node11</title>
<path fill="none" stroke="midnightblue" d="M220.32,-112.31C228.14,-97.67 246.15,-68.45 271,-56 334.69,-24.1 836.9,-13.85 980.67,-11.55"/>
<polygon fill="midnightblue" stroke="midnightblue" points="980.83,-15.05 990.78,-11.39 980.72,-8.05 980.83,-15.05"/>
</g>
<!-- Node12&#45;&gt;Node2 -->
<g id="edge13" class="edge">
<title>Node12&#45;&gt;Node2</title>
<path fill="none" stroke="midnightblue" d="M186.63,-224.4C148.49,-211.43 83.65,-182.83 57,-132 48.09,-115 61.7,-95.8 74.66,-82.71"/>
<polygon fill="midnightblue" stroke="midnightblue" points="77.15,-85.16 82.04,-75.76 72.36,-80.06 77.15,-85.16"/>
</g>
<!-- Node12&#45;&gt;Node7 -->
<g id="edge39" class="edge">
<title>Node12&#45;&gt;Node7</title>
<path fill="none" stroke="midnightblue" d="M216,-224.08C216,-217.01 216,-206.86 216,-197.99"/>
<polygon fill="midnightblue" stroke="midnightblue" points="219.5,-197.75 216,-187.75 212.5,-197.75 219.5,-197.75"/>
</g>
<!-- Node12&#45;&gt;Node8 -->
<g id="edge38" class="edge">
<title>Node12&#45;&gt;Node8</title>
<path fill="none" stroke="midnightblue" d="M205.32,-224.17C194.53,-215.2 177.44,-200.82 163,-188 144.34,-171.43 123.43,-151.88 109.37,-138.58"/>
<polygon fill="midnightblue" stroke="midnightblue" points="111.61,-135.89 101.94,-131.54 106.79,-140.96 111.61,-135.89"/>
</g>
<!-- Node12&#45;&gt;Node13 -->
<g id="edge14" class="edge">
<title>Node12&#45;&gt;Node13</title>
<path fill="none" stroke="midnightblue" d="M262.17,-227.12C322.37,-219.26 430.85,-204.38 523,-188 526.06,-187.46 529.23,-186.86 532.4,-186.24"/>
<polygon fill="midnightblue" stroke="midnightblue" points="533.29,-189.63 542.39,-184.21 531.9,-182.77 533.29,-189.63"/>
</g>
<!-- Node13&#45;&gt;Node2 -->
<g id="edge18" class="edge">
<title>Node13&#45;&gt;Node2</title>
<path fill="none" stroke="midnightblue" d="M542.42,-171.6C536.14,-170.29 529.33,-168.98 523,-168 365.84,-143.68 312.8,-195.5 167,-132 142.13,-121.17 119.67,-98.8 106.18,-83.36"/>
<polygon fill="midnightblue" stroke="midnightblue" points="108.77,-81 99.65,-75.61 103.42,-85.51 108.77,-81"/>
</g>
<!-- Node13&#45;&gt;Node4 -->
<g id="edge33" class="edge">
<title>Node13&#45;&gt;Node4</title>
<path fill="none" stroke="midnightblue" d="M589.63,-170.97C594.37,-169.88 599.33,-168.83 604,-168 735.34,-144.59 770.47,-154.33 902,-132 903.29,-131.78 904.61,-131.55 905.93,-131.3"/>
<polygon fill="midnightblue" stroke="midnightblue" points="907.04,-134.65 916.17,-129.28 905.68,-127.79 907.04,-134.65"/>
</g>
<!-- Node13&#45;&gt;Node9 -->
<g id="edge16" class="edge">
<title>Node13&#45;&gt;Node9</title>
<path fill="none" stroke="midnightblue" d="M557.63,-168.45C543.52,-154.52 513.55,-127.01 483,-112 437.54,-89.67 379.9,-77.68 342.98,-71.83"/>
<polygon fill="midnightblue" stroke="midnightblue" points="343.09,-68.31 332.68,-70.27 342.05,-75.23 343.09,-68.31"/>
</g>
<!-- Node13&#45;&gt;Node10 -->
<g id="edge19" class="edge">
<title>Node13&#45;&gt;Node10</title>
<path fill="none" stroke="midnightblue" d="M542.4,-171.76C536.11,-170.45 529.31,-169.1 523,-168 412.06,-148.67 380.98,-150.35 265.99,-132.1"/>
<polygon fill="midnightblue" stroke="midnightblue" points="266.52,-128.64 256.09,-130.51 265.41,-135.55 266.52,-128.64"/>
</g>
<!-- Node13&#45;&gt;Node11 -->
<g id="edge17" class="edge">
<title>Node13&#45;&gt;Node11</title>
<path fill="none" stroke="midnightblue" d="M589.65,-171.07C594.39,-169.97 599.34,-168.9 604,-168 711.22,-147.4 752.29,-186.32 847,-132 884.57,-110.45 873.25,-81.86 908,-56 929.8,-39.78 958.26,-28.39 980.91,-21.13"/>
<polygon fill="midnightblue" stroke="midnightblue" points="982,-24.46 990.54,-18.18 979.95,-17.76 982,-24.46"/>
</g>
<!-- Node14 -->
<g id="node14" class="node">
<title>Node14</title>
<g id="a_node14"><a xlink:title=" ">
<polygon fill="white" stroke="#bfbfbf" points="717,-56.5 717,-75.5 767,-75.5 767,-56.5 717,-56.5"/>
<text text-anchor="middle" x="742" y="-63.5" font-family="Helvetica,sans-Serif" font-size="10.00">stdio.h</text>
</a>
</g>
</g>
<!-- Node13&#45;&gt;Node14 -->
<g id="edge15" class="edge">
<title>Node13&#45;&gt;Node14</title>
<path fill="none" stroke="midnightblue" d="M589.66,-171.11C594.39,-170.01 599.34,-168.92 604,-168 654.11,-158.11 797.83,-170.84 831,-132 851.21,-108.33 809.8,-88.5 776.92,-77.18"/>
<polygon fill="midnightblue" stroke="midnightblue" points="777.66,-73.74 767.07,-73.95 775.48,-80.39 777.66,-73.74"/>
</g>
<!-- Node15 -->
<g id="node15" class="node">
<title>Node15</title>
<g id="a_node15"><a xlink:href="memory_8h.html" target="_top" xlink:title=" ">
<polygon fill="white" stroke="black" points="916.5,-56.5 916.5,-75.5 1005.5,-75.5 1005.5,-56.5 916.5,-56.5"/>
<text text-anchor="middle" x="961" y="-63.5" font-family="Helvetica,sans-Serif" font-size="10.00">utils/memory.h</text>
</a>
</g>
</g>
<!-- Node13&#45;&gt;Node15 -->
<g id="edge20" class="edge">
<title>Node13&#45;&gt;Node15</title>
<path fill="none" stroke="midnightblue" d="M589.68,-176.82C687.99,-175.85 1060.39,-169.67 1095,-132 1101.01,-125.45 1100.19,-119.22 1095,-112 1085.03,-98.14 1046.33,-86.06 1013.07,-77.91"/>
<polygon fill="midnightblue" stroke="midnightblue" points="1013.49,-74.41 1002.96,-75.51 1011.88,-81.23 1013.49,-74.41"/>
</g>
<!-- Node16 -->
<g id="node16" class="node">
<title>Node16</title>
<g id="a_node16"><a xlink:href="mymalloc_8h.html" target="_top" xlink:title=" ">
<polygon fill="white" stroke="black" points="988,-112.5 988,-131.5 1086,-131.5 1086,-112.5 988,-112.5"/>
<text text-anchor="middle" x="1037" y="-119.5" font-family="Helvetica,sans-Serif" font-size="10.00">utils/mymalloc.h</text>
</a>
</g>
</g>
<!-- Node13&#45;&gt;Node16 -->
<g id="edge22" class="edge">
<title>Node13&#45;&gt;Node16</title>
<path fill="none" stroke="midnightblue" d="M589.79,-174.79C651.81,-168.95 823.74,-152.23 977.85,-132.1"/>
<polygon fill="midnightblue" stroke="midnightblue" points="978.52,-135.54 987.97,-130.77 977.6,-128.6 978.52,-135.54"/>
</g>
<!-- Node17 -->
<g id="node17" class="node">
<title>Node17</title>
<g id="a_node17"><a xlink:href="paramset_8h.html" target="_top" xlink:title=" ">
<polygon fill="white" stroke="black" points="378,-112.5 378,-131.5 474,-131.5 474,-112.5 378,-112.5"/>
<text text-anchor="middle" x="426" y="-119.5" font-family="Helvetica,sans-Serif" font-size="10.00">utils/paramset.h</text>
</a>
</g>
</g>
<!-- Node13&#45;&gt;Node17 -->
<g id="edge24" class="edge">
<title>Node13&#45;&gt;Node17</title>
<path fill="none" stroke="midnightblue" d="M543.82,-168.44C520.57,-159.48 483.85,-145.31 457.58,-135.18"/>
<polygon fill="midnightblue" stroke="midnightblue" points="458.67,-131.85 448.08,-131.52 456.15,-138.38 458.67,-131.85"/>
</g>
<!-- Node18 -->
<g id="node18" class="node">
<title>Node18</title>
<g id="a_node18"><a xlink:href="event_8h.html" target="_top" xlink:title=" ">
<polygon fill="white" stroke="black" points="530.5,-112.5 530.5,-131.5 607.5,-131.5 607.5,-112.5 530.5,-112.5"/>
<text text-anchor="middle" x="569" y="-119.5" font-family="Helvetica,sans-Serif" font-size="10.00">utils/event.h</text>
</a>
</g>
</g>
<!-- Node13&#45;&gt;Node18 -->
<g id="edge26" class="edge">
<title>Node13&#45;&gt;Node18</title>
<path fill="none" stroke="midnightblue" d="M566.5,-168.08C566.89,-161.01 567.45,-150.86 567.95,-141.99"/>
<polygon fill="midnightblue" stroke="midnightblue" points="571.45,-141.93 568.51,-131.75 564.46,-141.54 571.45,-141.93"/>
</g>
<!-- Node19 -->
<g id="node19" class="node">
<title>Node19</title>
<g id="a_node19"><a xlink:href="openmpsort_8h.html" target="_top" xlink:title=" ">
<polygon fill="white" stroke="black" points="1024,-56.5 1024,-75.5 1132,-75.5 1132,-56.5 1024,-56.5"/>
<text text-anchor="middle" x="1078" y="-63.5" font-family="Helvetica,sans-Serif" font-size="10.00">utils/openmpsort.h</text>
</a>
</g>
</g>
<!-- Node13&#45;&gt;Node19 -->
<g id="edge27" class="edge">
<title>Node13&#45;&gt;Node19</title>
<path fill="none" stroke="midnightblue" d="M589.72,-176.89C689.94,-176.16 1075.23,-170.85 1111,-132 1124.16,-117.7 1109.66,-97.17 1095.95,-83.03"/>
<polygon fill="midnightblue" stroke="midnightblue" points="1098.21,-80.35 1088.59,-75.91 1093.34,-85.38 1098.21,-80.35"/>
</g>
<!-- Node20 -->
<g id="node20" class="node">
<title>Node20</title>
<g id="a_node20"><a xlink:href="system_8h.html" target="_top" xlink:title=" ">
<polygon fill="white" stroke="black" points="274,-112.5 274,-131.5 360,-131.5 360,-112.5 274,-112.5"/>
<text text-anchor="middle" x="317" y="-119.5" font-family="Helvetica,sans-Serif" font-size="10.00">utils/system.h</text>
</a>
</g>
</g>
<!-- Node13&#45;&gt;Node20 -->
<g id="edge29" class="edge">
<title>Node13&#45;&gt;Node20</title>
<path fill="none" stroke="midnightblue" d="M542.12,-171.82C501.76,-163.07 419.24,-145.17 366.1,-133.65"/>
<polygon fill="midnightblue" stroke="midnightblue" points="366.73,-130.2 356.22,-131.5 365.25,-137.04 366.73,-130.2"/>
</g>
<!-- Node21 -->
<g id="node21" class="node">
<title>Node21</title>
<g id="a_node21"><a xlink:href="endrun_8h.html" target="_top" xlink:title=" ">
<polygon fill="white" stroke="black" points="625.5,-112.5 625.5,-131.5 708.5,-131.5 708.5,-112.5 625.5,-112.5"/>
<text text-anchor="middle" x="667" y="-119.5" font-family="Helvetica,sans-Serif" font-size="10.00">utils/endrun.h</text>
</a>
</g>
</g>
<!-- Node13&#45;&gt;Node21 -->
<g id="edge34" class="edge">
<title>Node13&#45;&gt;Node21</title>
<path fill="none" stroke="midnightblue" d="M582.23,-168.32C598.35,-159.7 623.3,-146.36 641.96,-136.39"/>
<polygon fill="midnightblue" stroke="midnightblue" points="643.64,-139.46 650.81,-131.65 640.34,-133.28 643.64,-139.46"/>
</g>
<!-- Node22 -->
<g id="node22" class="node">
<title>Node22</title>
<g id="a_node22"><a xlink:href="interp_8h.html" target="_top" xlink:title=" ">
<polygon fill="white" stroke="black" points="1150,-56.5 1150,-75.5 1228,-75.5 1228,-56.5 1150,-56.5"/>
<text text-anchor="middle" x="1189" y="-63.5" font-family="Helvetica,sans-Serif" font-size="10.00">utils/interp.h</text>
</a>
</g>
</g>
<!-- Node13&#45;&gt;Node22 -->
<g id="edge35" class="edge">
<title>Node13&#45;&gt;Node22</title>
<path fill="none" stroke="midnightblue" d="M589.76,-177.32C683.83,-178.23 1029.75,-178.32 1127,-132 1148.92,-121.56 1167.11,-99.78 1178,-84.31"/>
<polygon fill="midnightblue" stroke="midnightblue" points="1181.14,-85.91 1183.8,-75.65 1175.33,-82.01 1181.14,-85.91"/>
</g>
<!-- Node23 -->
<g id="node23" class="node">
<title>Node23</title>
<g id="a_node23"><a xlink:href="spinlocks_8h.html" target="_top" xlink:title=" ">
<polygon fill="white" stroke="black" points="726.5,-112.5 726.5,-131.5 821.5,-131.5 821.5,-112.5 726.5,-112.5"/>
<text text-anchor="middle" x="774" y="-119.5" font-family="Helvetica,sans-Serif" font-size="10.00">utils/spinlocks.h</text>
</a>
</g>
</g>
<!-- Node13&#45;&gt;Node23 -->
<g id="edge37" class="edge">
<title>Node13&#45;&gt;Node23</title>
<path fill="none" stroke="midnightblue" d="M589.86,-170.81C624.34,-161.85 688.63,-145.16 731.38,-134.07"/>
<polygon fill="midnightblue" stroke="midnightblue" points="732.42,-137.41 741.22,-131.51 730.66,-130.64 732.42,-137.41"/>
</g>
<!-- Node15&#45;&gt;Node11 -->
<g id="edge21" class="edge">
<title>Node15&#45;&gt;Node11</title>
<path fill="none" stroke="midnightblue" d="M970.32,-56.32C978.89,-48.34 991.81,-36.31 1002.19,-26.65"/>
<polygon fill="midnightblue" stroke="midnightblue" points="1004.58,-29.21 1009.51,-19.83 999.81,-24.09 1004.58,-29.21"/>
</g>
<!-- Node16&#45;&gt;Node15 -->
<g id="edge23" class="edge">
<title>Node16&#45;&gt;Node15</title>
<path fill="none" stroke="midnightblue" d="M1024.79,-112.32C1013.22,-104.11 995.62,-91.6 981.84,-81.81"/>
<polygon fill="midnightblue" stroke="midnightblue" points="983.61,-78.77 973.43,-75.83 979.56,-84.48 983.61,-78.77"/>
</g>
<!-- Node17&#45;&gt;Node14 -->
<g id="edge25" class="edge">
<title>Node17&#45;&gt;Node14</title>
<path fill="none" stroke="midnightblue" d="M474.34,-112.74C538.47,-101.78 650.15,-82.7 706.84,-73.01"/>
<polygon fill="midnightblue" stroke="midnightblue" points="707.49,-76.45 716.76,-71.31 706.31,-69.55 707.49,-76.45"/>
</g>
<!-- Node19&#45;&gt;Node11 -->
<g id="edge28" class="edge">
<title>Node19&#45;&gt;Node11</title>
<path fill="none" stroke="midnightblue" d="M1068.52,-56.32C1059.8,-48.34 1046.66,-36.31 1036.1,-26.65"/>
<polygon fill="midnightblue" stroke="midnightblue" points="1038.39,-24 1028.65,-19.83 1033.67,-29.17 1038.39,-24"/>
</g>
<!-- Node20&#45;&gt;Node2 -->
<g id="edge31" class="edge">
<title>Node20&#45;&gt;Node2</title>
<path fill="none" stroke="midnightblue" d="M281.51,-112.44C238.4,-102.05 166.35,-84.68 124.92,-74.7"/>
<polygon fill="midnightblue" stroke="midnightblue" points="125.63,-71.27 115.09,-72.32 123.99,-78.07 125.63,-71.27"/>
</g>
<!-- Node20&#45;&gt;Node5 -->
<g id="edge32" class="edge">
<title>Node20&#45;&gt;Node5</title>
<path fill="none" stroke="midnightblue" d="M343.46,-112.44C371.68,-103.32 416.54,-88.81 447.97,-78.65"/>
<polygon fill="midnightblue" stroke="midnightblue" points="449.22,-81.92 457.66,-75.52 447.07,-75.26 449.22,-81.92"/>
</g>
<!-- Node20&#45;&gt;Node9 -->
<g id="edge30" class="edge">
<title>Node20&#45;&gt;Node9</title>
<path fill="none" stroke="midnightblue" d="M315.18,-112.08C313.73,-104.93 311.63,-94.64 309.81,-85.69"/>
<polygon fill="midnightblue" stroke="midnightblue" points="313.21,-84.85 307.78,-75.75 306.35,-86.25 313.21,-84.85"/>
</g>
<!-- Node22&#45;&gt;Node11 -->
<g id="edge36" class="edge">
<title>Node22&#45;&gt;Node11</title>
<path fill="none" stroke="midnightblue" d="M1162.06,-56.44C1133.34,-47.32 1087.67,-32.81 1055.68,-22.65"/>
<polygon fill="midnightblue" stroke="midnightblue" points="1056.4,-19.21 1045.81,-19.52 1054.28,-25.88 1056.4,-19.21"/>
</g>
<!-- Node24&#45;&gt;Node7 -->
<g id="edge47" class="edge">
<title>Node24&#45;&gt;Node7</title>
<path fill="none" stroke="midnightblue" d="M349.14,-280.44C341.16,-267 324.14,-240.75 304,-224 287.53,-210.3 266.19,-199.25 248.65,-191.54"/>
<polygon fill="midnightblue" stroke="midnightblue" points="249.92,-188.28 239.35,-187.6 247.19,-194.72 249.92,-188.28"/>
</g>
<!-- Node24&#45;&gt;Node8 -->
<g id="edge46" class="edge">
<title>Node24&#45;&gt;Node8</title>
<path fill="none" stroke="midnightblue" d="M351.68,-280.45C347.89,-267.48 339.53,-242.38 327,-224 306.82,-194.39 300.29,-185.46 269,-168 256.85,-161.22 177.75,-142.39 129.82,-131.35"/>
<polygon fill="midnightblue" stroke="midnightblue" points="130.35,-127.88 119.82,-129.06 128.78,-134.7 130.35,-127.88"/>
</g>
<!-- Node24&#45;&gt;Node12 -->
<g id="edge48" class="edge">
<title>Node24&#45;&gt;Node12</title>
<path fill="none" stroke="midnightblue" d="M332.13,-280.44C309.22,-271.48 273.02,-257.31 247.13,-247.18"/>
<polygon fill="midnightblue" stroke="midnightblue" points="248.35,-243.9 237.76,-243.52 245.8,-250.42 248.35,-243.9"/>
</g>
<!-- Node25 -->
<g id="node25" class="node">
<title>Node25</title>
<g id="a_node25"><a xlink:href="cosmology_8h.html" target="_top" xlink:title=" ">
<polygon fill="white" stroke="black" points="1217.5,-168.5 1217.5,-187.5 1294.5,-187.5 1294.5,-168.5 1217.5,-168.5"/>
<text text-anchor="middle" x="1256" y="-175.5" font-family="Helvetica,sans-Serif" font-size="10.00">cosmology.h</text>
</a>
</g>
</g>
<!-- Node24&#45;&gt;Node25 -->
<g id="edge41" class="edge">
<title>Node24&#45;&gt;Node25</title>
<path fill="none" stroke="midnightblue" d="M376.75,-286.23C495.03,-271.8 1040.75,-205.25 1207.48,-184.92"/>
<polygon fill="midnightblue" stroke="midnightblue" points="1207.95,-188.39 1217.45,-183.7 1207.1,-181.44 1207.95,-188.39"/>
</g>
<!-- Node25&#45;&gt;Node11 -->
<g id="edge42" class="edge">
<title>Node25&#45;&gt;Node11</title>
<path fill="none" stroke="midnightblue" d="M1257.62,-168.26C1261.17,-146.16 1267.08,-87.55 1237,-56 1212.76,-30.58 1113.02,-18.57 1057.23,-13.74"/>
<polygon fill="midnightblue" stroke="midnightblue" points="1057.28,-10.23 1047.02,-12.9 1056.7,-17.21 1057.28,-10.23"/>
</g>
<!-- Node26 -->
<g id="node26" class="node">
<title>Node26</title>
<g id="a_node26"><a xlink:href="omega__nu__single_8h.html" target="_top" xlink:title=" ">
<polygon fill="white" stroke="black" points="1406.5,-112.5 1406.5,-131.5 1517.5,-131.5 1517.5,-112.5 1406.5,-112.5"/>
<text text-anchor="middle" x="1462" y="-119.5" font-family="Helvetica,sans-Serif" font-size="10.00">omega_nu_single.h</text>
</a>
</g>
</g>
<!-- Node25&#45;&gt;Node26 -->
<g id="edge43" class="edge">
<title>Node25&#45;&gt;Node26</title>
<path fill="none" stroke="midnightblue" d="M1288.64,-168.44C1324.05,-159.16 1380.71,-144.31 1419.55,-134.13"/>
<polygon fill="midnightblue" stroke="midnightblue" points="1420.73,-137.44 1429.51,-131.52 1418.95,-130.67 1420.73,-137.44"/>
</g>
<!-- Node28 -->
<g id="node28" class="node">
<title>Node28</title>
<g id="a_node28"><a xlink:href="unitsystem_8h.html" target="_top" xlink:title=" ">
<polygon fill="white" stroke="black" points="1284,-112.5 1284,-131.5 1388,-131.5 1388,-112.5 1284,-112.5"/>
<text text-anchor="middle" x="1336" y="-119.5" font-family="Helvetica,sans-Serif" font-size="10.00">utils/unitsystem.h</text>
</a>
</g>
</g>
<!-- Node25&#45;&gt;Node28 -->
<g id="edge45" class="edge">
<title>Node25&#45;&gt;Node28</title>
<path fill="none" stroke="midnightblue" d="M1268.85,-168.32C1281.22,-159.98 1300.13,-147.21 1314.74,-137.35"/>
<polygon fill="midnightblue" stroke="midnightblue" points="1316.85,-140.15 1323.18,-131.65 1312.93,-134.35 1316.85,-140.15"/>
</g>
<!-- Node27 -->
<g id="node27" class="node">
<title>Node27</title>
<g id="a_node27"><a xlink:title=" ">
<polygon fill="white" stroke="#bfbfbf" points="1416.5,-56.5 1416.5,-75.5 1507.5,-75.5 1507.5,-56.5 1416.5,-56.5"/>
<text text-anchor="middle" x="1462" y="-63.5" font-family="Helvetica,sans-Serif" font-size="10.00">gsl/gsl_interp.h</text>
</a>
</g>
</g>
<!-- Node26&#45;&gt;Node27 -->
<g id="edge44" class="edge">
<title>Node26&#45;&gt;Node27</title>
<path fill="none" stroke="midnightblue" d="M1462,-112.08C1462,-105.01 1462,-94.86 1462,-85.99"/>
<polygon fill="midnightblue" stroke="midnightblue" points="1465.5,-85.75 1462,-75.75 1458.5,-85.75 1465.5,-85.75"/>
</g>
<!-- Node30&#45;&gt;Node8 -->
<g id="edge54" class="edge">
<title>Node30&#45;&gt;Node8</title>
<path fill="none" stroke="midnightblue" d="M463.84,-224.34C448.08,-210.01 414.24,-181.58 380,-168 277.29,-127.25 242.7,-151.86 134,-132 132.71,-131.76 131.4,-131.52 130.07,-131.26"/>
<polygon fill="midnightblue" stroke="midnightblue" points="130.35,-127.75 119.85,-129.18 128.95,-134.6 130.35,-127.75"/>
</g>
<!-- Node30&#45;&gt;Node25 -->
<g id="edge55" class="edge">
<title>Node30&#45;&gt;Node25</title>
<path fill="none" stroke="midnightblue" d="M504.66,-230.82C625.78,-222.46 1060.27,-192.5 1207.11,-182.37"/>
<polygon fill="midnightblue" stroke="midnightblue" points="1207.44,-185.86 1217.18,-181.68 1206.96,-178.87 1207.44,-185.86"/>
</g>
<!-- Node31 -->
<g id="node31" class="node">
<title>Node31</title>
<g id="a_node31"><a xlink:href="timebinmgr_8h.html" target="_top" xlink:title=" ">
<polygon fill="white" stroke="black" points="432,-168.5 432,-187.5 514,-187.5 514,-168.5 432,-168.5"/>
<text text-anchor="middle" x="473" y="-175.5" font-family="Helvetica,sans-Serif" font-size="10.00">timebinmgr.h</text>
</a>
</g>
</g>
<!-- Node30&#45;&gt;Node31 -->
<g id="edge56" class="edge">
<title>Node30&#45;&gt;Node31</title>
<path fill="none" stroke="midnightblue" d="M473,-224.08C473,-217.01 473,-206.86 473,-197.99"/>
<polygon fill="midnightblue" stroke="midnightblue" points="476.5,-197.75 473,-187.75 469.5,-197.75 476.5,-197.75"/>
</g>
<!-- Node31&#45;&gt;Node8 -->
<g id="edge57" class="edge">
<title>Node31&#45;&gt;Node8</title>
<path fill="none" stroke="midnightblue" d="M431.88,-170.1C427.2,-169.37 422.5,-168.65 418,-168 292.09,-149.72 259.37,-153.66 134,-132 132.71,-131.78 131.39,-131.54 130.07,-131.29"/>
<polygon fill="midnightblue" stroke="midnightblue" points="130.33,-127.78 119.84,-129.25 128.96,-134.64 130.33,-127.78"/>
</g>
<!-- Node31&#45;&gt;Node17 -->
<g id="edge58" class="edge">
<title>Node31&#45;&gt;Node17</title>
<path fill="none" stroke="midnightblue" d="M465.24,-168.08C458.46,-160.3 448.46,-148.8 440.24,-139.37"/>
<polygon fill="midnightblue" stroke="midnightblue" points="442.82,-137 433.62,-131.75 437.54,-141.59 442.82,-137"/>
</g>
</g>
</svg>
