<?xml version="1.0" encoding="UTF-8" standalone="no"?>
<!DOCTYPE svg PUBLIC "-//W3C//DTD SVG 1.1//EN"
 "http://www.w3.org/Graphics/SVG/1.1/DTD/svg11.dtd">
<!-- Generated by graphviz version 2.38.0 (20140413.2041)
 -->
<!-- Title: domain_exchange_once Pages: 1 -->
<svg width="1671pt" height="237pt"
 viewBox="0.00 0.00 1671.00 237.00" xmlns="http://www.w3.org/2000/svg" xmlns:xlink="http://www.w3.org/1999/xlink">
<g id="graph0" class="graph" transform="scale(1 1) rotate(0) translate(4 233)">
<title>domain_exchange_once</title>
<polygon fill="white" stroke="none" points="-4,4 -4,-233 1667,-233 1667,4 -4,4"/>
<!-- Node119 -->
<g id="node1" class="node"><title>Node119</title>
<polygon fill="#bfbfbf" stroke="black" points="0,-95.5 0,-114.5 122,-114.5 122,-95.5 0,-95.5"/>
<text text-anchor="middle" x="61" y="-102.5" font-family="Helvetica,sans-Serif" font-size="10.00">domain_exchange_once</text>
</g>
<!-- Node120 -->
<g id="node2" class="node"><title>Node120</title>
<g id="a_node2"><a xlink:href="exchange_8h.html#a299bb3cc6ca0e0353d2aa66bcc8d91ca" target="_top" xlink:title="domain_exchange">
<polygon fill="white" stroke="black" points="158,-95.5 158,-114.5 253,-114.5 253,-95.5 158,-95.5"/>
<text text-anchor="middle" x="205.5" y="-102.5" font-family="Helvetica,sans-Serif" font-size="10.00">domain_exchange</text>
</a>
</g>
</g>
<!-- Node119&#45;&gt;Node120 -->
<g id="edge1" class="edge"><title>Node119&#45;&gt;Node120</title>
<path fill="none" stroke="midnightblue" d="M132.232,-105C140.967,-105 149.721,-105 157.971,-105"/>
<polygon fill="midnightblue" stroke="midnightblue" points="132.02,-101.5 122.02,-105 132.02,-108.5 132.02,-101.5"/>
</g>
<!-- Node121 -->
<g id="node3" class="node"><title>Node121</title>
<g id="a_node3"><a xlink:href="domain_8h.html#a168c36ec12faca23e23395b6a13d2037" target="_top" xlink:title="domain_decompose_full">
<polygon fill="white" stroke="black" points="1021,-152.5 1021,-171.5 1143,-171.5 1143,-152.5 1021,-152.5"/>
<text text-anchor="middle" x="1082" y="-159.5" font-family="Helvetica,sans-Serif" font-size="10.00">domain_decompose_full</text>
</a>
</g>
</g>
<!-- Node120&#45;&gt;Node121 -->
<g id="edge2" class="edge"><title>Node120&#45;&gt;Node121</title>
<path fill="none" stroke="midnightblue" d="M235.889,-118.923C251.367,-125.695 270.856,-133.356 289,-138 374.876,-159.979 398.356,-162 487,-162 487,-162 487,-162 769,-162 856.615,-162 958.069,-162 1020.9,-162"/>
<polygon fill="midnightblue" stroke="midnightblue" points="236.908,-115.544 226.351,-114.642 234.041,-121.93 236.908,-115.544"/>
</g>
<!-- Node122 -->
<g id="node4" class="node"><title>Node122</title>
<g id="a_node4"><a xlink:href="domain_8h.html#acf7b74bdcb6563a4603538914fc16157" target="_top" xlink:title="domain_maintain">
<polygon fill="white" stroke="black" points="1179,-95.5 1179,-114.5 1269,-114.5 1269,-95.5 1179,-95.5"/>
<text text-anchor="middle" x="1224" y="-102.5" font-family="Helvetica,sans-Serif" font-size="10.00">domain_maintain</text>
</a>
</g>
</g>
<!-- Node120&#45;&gt;Node122 -->
<g id="edge15" class="edge"><title>Node120&#45;&gt;Node122</title>
<path fill="none" stroke="midnightblue" d="M263.266,-111.106C319.874,-116.662 409.345,-124 487,-124 487,-124 487,-124 929,-124 1017.74,-124 1121.24,-115.273 1178.73,-109.648"/>
<polygon fill="midnightblue" stroke="midnightblue" points="263.386,-107.601 253.088,-110.092 262.692,-114.566 263.386,-107.601"/>
</g>
<!-- Node130 -->
<g id="node12" class="node"><title>Node130</title>
<g id="a_node12"><a xlink:href="fofpetaio_8c.html#adeaedcc6bf73d7750d9b5c8871c682d9" target="_top" xlink:title="fof_distribute_particles">
<polygon fill="white" stroke="black" points="289,-76.5 289,-95.5 404,-95.5 404,-76.5 289,-76.5"/>
<text text-anchor="middle" x="346.5" y="-83.5" font-family="Helvetica,sans-Serif" font-size="10.00">fof_distribute_particles</text>
</a>
</g>
</g>
<!-- Node120&#45;&gt;Node130 -->
<g id="edge16" class="edge"><title>Node120&#45;&gt;Node130</title>
<path fill="none" stroke="midnightblue" d="M263.216,-97.2475C271.582,-96.1039 280.204,-94.9253 288.575,-93.7811"/>
<polygon fill="midnightblue" stroke="midnightblue" points="262.605,-93.7983 253.172,-98.6204 263.554,-100.734 262.605,-93.7983"/>
</g>
<!-- Node138 -->
<g id="node20" class="node"><title>Node138</title>
<g id="a_node20"><a xlink:href="fofpetaio_8c.html#a039a9030108427652142d7ee5701b098" target="_top" xlink:title="fof_return_particles">
<polygon fill="white" stroke="black" points="296.5,-38.5 296.5,-57.5 396.5,-57.5 396.5,-38.5 296.5,-38.5"/>
<text text-anchor="middle" x="346.5" y="-45.5" font-family="Helvetica,sans-Serif" font-size="10.00">fof_return_particles</text>
</a>
</g>
</g>
<!-- Node120&#45;&gt;Node138 -->
<g id="edge29" class="edge"><title>Node120&#45;&gt;Node138</title>
<path fill="none" stroke="midnightblue" d="M235.105,-90.9057C250.832,-83.3903 270.795,-74.2297 289,-67 297.368,-63.677 306.573,-60.4182 315.081,-57.5638"/>
<polygon fill="midnightblue" stroke="midnightblue" points="233.398,-87.8428 225.913,-95.3405 236.44,-94.1474 233.398,-87.8428"/>
</g>
<!-- Node121&#45;&gt;Node122 -->
<g id="edge3" class="edge"><title>Node121&#45;&gt;Node122</title>
<path fill="none" stroke="midnightblue" d="M1116.4,-148.713C1125.07,-145.244 1134.39,-141.497 1143,-138 1162.21,-130.197 1183.96,-121.217 1199.92,-114.597"/>
<polygon fill="midnightblue" stroke="midnightblue" points="1114.95,-145.523 1106.96,-152.482 1117.55,-152.023 1114.95,-145.523"/>
</g>
<!-- Node123 -->
<g id="node5" class="node"><title>Node123</title>
<g id="a_node5"><a xlink:href="run_8c.html#a05e0ffe612d44e6d7f3a9ae5b9df56a2" target="_top" xlink:title="run">
<polygon fill="white" stroke="black" points="1316,-100.5 1316,-119.5 1346,-119.5 1346,-100.5 1316,-100.5"/>
<text text-anchor="middle" x="1331" y="-107.5" font-family="Helvetica,sans-Serif" font-size="10.00">run</text>
</a>
</g>
</g>
<!-- Node121&#45;&gt;Node123 -->
<g id="edge12" class="edge"><title>Node121&#45;&gt;Node123</title>
<path fill="none" stroke="midnightblue" d="M1141.27,-150.47C1177.97,-143.116 1226.31,-133.258 1269,-124 1285.14,-120.5 1303.62,-116.22 1315.97,-113.321"/>
<polygon fill="midnightblue" stroke="midnightblue" points="1140.36,-147.083 1131.24,-152.476 1141.73,-153.947 1140.36,-147.083"/>
</g>
<!-- Node127 -->
<g id="node9" class="node"><title>Node127</title>
<g id="a_node9"><a xlink:href="proto_8h.html#ab080cb20bac2a1a6153a84e8cfd15374" target="_top" xlink:title="init">
<polygon fill="white" stroke="black" points="1209.5,-209.5 1209.5,-228.5 1238.5,-228.5 1238.5,-209.5 1209.5,-209.5"/>
<text text-anchor="middle" x="1224" y="-216.5" font-family="Helvetica,sans-Serif" font-size="10.00">init</text>
</a>
</g>
</g>
<!-- Node121&#45;&gt;Node127 -->
<g id="edge9" class="edge"><title>Node121&#45;&gt;Node127</title>
<path fill="none" stroke="midnightblue" d="M1115.97,-175.424C1145.65,-187.508 1187.8,-204.668 1209.27,-213.411"/>
<polygon fill="midnightblue" stroke="midnightblue" points="1117.01,-172.07 1106.43,-171.541 1114.37,-178.553 1117.01,-172.07"/>
</g>
<!-- Node129 -->
<g id="node11" class="node"><title>Node129</title>
<g id="a_node11"><a xlink:href="runtests_8c.html#a549024555ca61e3f05a7100307e44f69" target="_top" xlink:title="runtests">
<polygon fill="white" stroke="black" points="1305,-157.5 1305,-176.5 1357,-176.5 1357,-157.5 1305,-157.5"/>
<text text-anchor="middle" x="1331" y="-164.5" font-family="Helvetica,sans-Serif" font-size="10.00">runtests</text>
</a>
</g>
</g>
<!-- Node121&#45;&gt;Node129 -->
<g id="edge13" class="edge"><title>Node121&#45;&gt;Node129</title>
<path fill="none" stroke="midnightblue" d="M1153.37,-163.424C1204.12,-164.452 1269.65,-165.778 1304.9,-166.492"/>
<polygon fill="midnightblue" stroke="midnightblue" points="1153.18,-159.92 1143.11,-163.217 1153.03,-166.919 1153.18,-159.92"/>
</g>
<!-- Node122&#45;&gt;Node123 -->
<g id="edge4" class="edge"><title>Node122&#45;&gt;Node123</title>
<path fill="none" stroke="midnightblue" d="M1279.42,-107.591C1292.78,-108.228 1305.97,-108.856 1315.53,-109.311"/>
<polygon fill="midnightblue" stroke="midnightblue" points="1279.38,-104.086 1269.23,-107.106 1279.05,-111.078 1279.38,-104.086"/>
</g>
<!-- Node124 -->
<g id="node6" class="node"><title>Node124</title>
<g id="a_node6"><a xlink:href="main_8c.html#a3c04138a5bfe5d72780bb7e82a18e627" target="_top" xlink:title="main">
<polygon fill="white" stroke="black" points="1393,-138.5 1393,-157.5 1431,-157.5 1431,-138.5 1393,-138.5"/>
<text text-anchor="middle" x="1412" y="-145.5" font-family="Helvetica,sans-Serif" font-size="10.00">main</text>
</a>
</g>
</g>
<!-- Node123&#45;&gt;Node124 -->
<g id="edge5" class="edge"><title>Node123&#45;&gt;Node124</title>
<path fill="none" stroke="midnightblue" d="M1355.48,-121.296C1367.43,-127.043 1381.73,-133.922 1392.83,-139.259"/>
<polygon fill="midnightblue" stroke="midnightblue" points="1356.65,-117.974 1346.12,-116.794 1353.62,-124.283 1356.65,-117.974"/>
</g>
<!-- Node125 -->
<g id="node7" class="node"><title>Node125</title>
<g id="a_node7"><a xlink:href="walltime_8h.html#a76d2135b612766d4d665748454b879d6" target="_top" xlink:title="walltime_report">
<polygon fill="white" stroke="black" points="1467,-138.5 1467,-157.5 1550,-157.5 1550,-138.5 1467,-138.5"/>
<text text-anchor="middle" x="1508.5" y="-145.5" font-family="Helvetica,sans-Serif" font-size="10.00">walltime_report</text>
</a>
</g>
</g>
<!-- Node124&#45;&gt;Node125 -->
<g id="edge6" class="edge"><title>Node124&#45;&gt;Node125</title>
<path fill="none" stroke="midnightblue" d="M1441.41,-148C1449.35,-148 1458.13,-148 1466.63,-148"/>
<polygon fill="midnightblue" stroke="midnightblue" points="1441.22,-144.5 1431.22,-148 1441.22,-151.5 1441.22,-144.5"/>
</g>
<!-- Node126 -->
<g id="node8" class="node"><title>Node126</title>
<g id="a_node8"><a xlink:href="run_8c.html#adc59e9ee1517e4e690694a64ab6a59d2" target="_top" xlink:title="write_cpu_log">
<polygon fill="white" stroke="black" points="1586,-119.5 1586,-138.5 1663,-138.5 1663,-119.5 1586,-119.5"/>
<text text-anchor="middle" x="1624.5" y="-126.5" font-family="Helvetica,sans-Serif" font-size="10.00">write_cpu_log</text>
</a>
</g>
</g>
<!-- Node125&#45;&gt;Node126 -->
<g id="edge7" class="edge"><title>Node125&#45;&gt;Node126</title>
<path fill="none" stroke="midnightblue" d="M1560.03,-139.578C1568.68,-138.136 1577.54,-136.66 1585.78,-135.286"/>
<polygon fill="midnightblue" stroke="midnightblue" points="1559.3,-136.151 1550.01,-141.248 1560.45,-143.056 1559.3,-136.151"/>
</g>
<!-- Node126&#45;&gt;Node123 -->
<g id="edge8" class="edge"><title>Node126&#45;&gt;Node123</title>
<path fill="none" stroke="midnightblue" d="M1575.77,-125.889C1507.86,-121.463 1387.06,-113.589 1346.06,-110.916"/>
<polygon fill="midnightblue" stroke="midnightblue" points="1575.58,-129.384 1585.79,-126.542 1576.04,-122.399 1575.58,-129.384"/>
</g>
<!-- Node128 -->
<g id="node10" class="node"><title>Node128</title>
<g id="a_node10"><a xlink:href="proto_8h.html#a74dc0e5e9eefe11fc8434b62de573146" target="_top" xlink:title="begrun">
<polygon fill="white" stroke="black" points="1308,-204.5 1308,-223.5 1354,-223.5 1354,-204.5 1308,-204.5"/>
<text text-anchor="middle" x="1331" y="-211.5" font-family="Helvetica,sans-Serif" font-size="10.00">begrun</text>
</a>
</g>
</g>
<!-- Node127&#45;&gt;Node128 -->
<g id="edge10" class="edge"><title>Node127&#45;&gt;Node128</title>
<path fill="none" stroke="midnightblue" d="M1248.83,-217.865C1266.54,-217.022 1290.53,-215.879 1307.84,-215.055"/>
<polygon fill="midnightblue" stroke="midnightblue" points="1248.55,-214.375 1238.73,-218.346 1248.88,-221.367 1248.55,-214.375"/>
</g>
<!-- Node128&#45;&gt;Node124 -->
<g id="edge11" class="edge"><title>Node128&#45;&gt;Node124</title>
<path fill="none" stroke="midnightblue" d="M1351.42,-197.78C1366.52,-185.161 1386.96,-168.081 1399.55,-157.564"/>
<polygon fill="midnightblue" stroke="midnightblue" points="1349.09,-195.164 1343.66,-204.261 1353.57,-200.536 1349.09,-195.164"/>
</g>
<!-- Node129&#45;&gt;Node124 -->
<g id="edge14" class="edge"><title>Node129&#45;&gt;Node124</title>
<path fill="none" stroke="midnightblue" d="M1367.22,-158.529C1376.09,-156.397 1385.24,-154.195 1392.88,-152.359"/>
<polygon fill="midnightblue" stroke="midnightblue" points="1366.34,-155.142 1357.43,-160.884 1367.97,-161.948 1366.34,-155.142"/>
</g>
<!-- Node131 -->
<g id="node13" class="node"><title>Node131</title>
<g id="a_node13"><a xlink:href="fofpetaio_8c.html#ae9bc2119aed92e2556b9ad427e646b45" target="_top" xlink:title="fof_save_particles">
<polygon fill="white" stroke="black" points="440,-47.5 440,-66.5 536,-66.5 536,-47.5 440,-47.5"/>
<text text-anchor="middle" x="488" y="-54.5" font-family="Helvetica,sans-Serif" font-size="10.00">fof_save_particles</text>
</a>
</g>
</g>
<!-- Node130&#45;&gt;Node131 -->
<g id="edge17" class="edge"><title>Node130&#45;&gt;Node131</title>
<path fill="none" stroke="midnightblue" d="M403.403,-74.3786C415.876,-71.7857 428.964,-69.0649 440.984,-66.566"/>
<polygon fill="midnightblue" stroke="midnightblue" points="402.642,-70.9618 393.564,-76.4239 404.067,-77.8153 402.642,-70.9618"/>
</g>
<!-- Node132 -->
<g id="node14" class="node"><title>Node132</title>
<g id="a_node14"><a xlink:href="fof_8c.html#aa0d13cc94e97083dfd468ed33331eed7" target="_top" xlink:title="fof_periodic_wrap">
<polygon fill="white" stroke="black" points="572,-66.5 572,-85.5 665,-85.5 665,-66.5 572,-66.5"/>
<text text-anchor="middle" x="618.5" y="-73.5" font-family="Helvetica,sans-Serif" font-size="10.00">fof_periodic_wrap</text>
</a>
</g>
</g>
<!-- Node131&#45;&gt;Node132 -->
<g id="edge18" class="edge"><title>Node131&#45;&gt;Node132</title>
<path fill="none" stroke="midnightblue" d="M546.063,-65.4374C554.634,-66.7046 563.377,-67.9974 571.673,-69.224"/>
<polygon fill="midnightblue" stroke="midnightblue" points="546.523,-61.9674 536.119,-63.967 545.499,-68.8921 546.523,-61.9674"/>
</g>
<!-- Node137 -->
<g id="node19" class="node"><title>Node137</title>
<g id="a_node19"><a xlink:href="fof_8h.html#ad08d3c5fd1cf1f78c75a17330a8e0348" target="_top" xlink:title="fof_save_groups">
<polygon fill="white" stroke="black" points="723.5,-0.5 723.5,-19.5 812.5,-19.5 812.5,-0.5 723.5,-0.5"/>
<text text-anchor="middle" x="768" y="-7.5" font-family="Helvetica,sans-Serif" font-size="10.00">fof_save_groups</text>
</a>
</g>
</g>
<!-- Node131&#45;&gt;Node137 -->
<g id="edge27" class="edge"><title>Node131&#45;&gt;Node137</title>
<path fill="none" stroke="midnightblue" d="M546.329,-47.3076C598.869,-38.425 675.533,-25.4639 723.281,-17.3914"/>
<polygon fill="midnightblue" stroke="midnightblue" points="545.436,-43.909 536.159,-49.0271 546.602,-50.811 545.436,-43.909"/>
</g>
<!-- Node133 -->
<g id="node15" class="node"><title>Node133</title>
<g id="a_node15"><a xlink:href="fof_8c.html#a36336d505e8a4fb8e8fdaf9a796e40d4" target="_top" xlink:title="fof_finish_group_properties">
<polygon fill="white" stroke="black" points="701,-76.5 701,-95.5 835,-95.5 835,-76.5 701,-76.5"/>
<text text-anchor="middle" x="768" y="-83.5" font-family="Helvetica,sans-Serif" font-size="10.00">fof_finish_group_properties</text>
</a>
</g>
</g>
<!-- Node132&#45;&gt;Node133 -->
<g id="edge19" class="edge"><title>Node132&#45;&gt;Node133</title>
<path fill="none" stroke="midnightblue" d="M675.386,-73.2181C690.146,-73.9173 705.922,-75.0658 720.15,-76.4897"/>
<polygon fill="midnightblue" stroke="midnightblue" points="675.496,-69.7197 665.361,-72.8079 675.21,-76.7139 675.496,-69.7197"/>
</g>
<!-- Node133&#45;&gt;Node132 -->
<g id="edge20" class="edge"><title>Node133&#45;&gt;Node132</title>
<path fill="none" stroke="midnightblue" d="M690.709,-87.5742C682.054,-86.9631 673.446,-86.2311 665.361,-85.4106"/>
<polygon fill="midnightblue" stroke="midnightblue" points="690.657,-91.0781 700.863,-88.234 691.111,-84.0928 690.657,-91.0781"/>
</g>
<!-- Node134 -->
<g id="node16" class="node"><title>Node134</title>
<g id="a_node16"><a xlink:href="fof_8c.html#ae4b5e05b1f0225637629759a9e2ba72e" target="_top" xlink:title="fof_compile_catalogue">
<polygon fill="white" stroke="black" points="871,-47.5 871,-66.5 985,-66.5 985,-47.5 871,-47.5"/>
<text text-anchor="middle" x="928" y="-54.5" font-family="Helvetica,sans-Serif" font-size="10.00">fof_compile_catalogue</text>
</a>
</g>
</g>
<!-- Node133&#45;&gt;Node134 -->
<g id="edge21" class="edge"><title>Node133&#45;&gt;Node134</title>
<path fill="none" stroke="midnightblue" d="M831.112,-74.5997C845.691,-71.9237 861.076,-69.1 875.151,-66.5165"/>
<polygon fill="midnightblue" stroke="midnightblue" points="830.377,-71.1761 821.173,-76.4239 831.641,-78.0611 830.377,-71.1761"/>
</g>
<!-- Node134&#45;&gt;Node132 -->
<g id="edge22" class="edge"><title>Node134&#45;&gt;Node132</title>
<path fill="none" stroke="midnightblue" d="M860.517,-58.7922C815.457,-60.289 754.584,-62.8604 701,-67 689.362,-67.8991 676.817,-69.1456 665.141,-70.4247"/>
<polygon fill="midnightblue" stroke="midnightblue" points="860.866,-62.2828 870.748,-58.4617 860.64,-55.2865 860.866,-62.2828"/>
</g>
<!-- Node135 -->
<g id="node17" class="node"><title>Node135</title>
<g id="a_node17"><a xlink:href="fof_8h.html#a7f10d50a8e07ce0bb67ffdfaf904d7c8" target="_top" xlink:title="fof_fof">
<polygon fill="white" stroke="black" points="1060,-47.5 1060,-66.5 1104,-66.5 1104,-47.5 1060,-47.5"/>
<text text-anchor="middle" x="1082" y="-54.5" font-family="Helvetica,sans-Serif" font-size="10.00">fof_fof</text>
</a>
</g>
</g>
<!-- Node134&#45;&gt;Node135 -->
<g id="edge23" class="edge"><title>Node134&#45;&gt;Node135</title>
<path fill="none" stroke="midnightblue" d="M995.378,-57C1018.62,-57 1043.09,-57 1059.89,-57"/>
<polygon fill="midnightblue" stroke="midnightblue" points="995.167,-53.5001 985.167,-57 995.167,-60.5001 995.167,-53.5001"/>
</g>
<!-- Node135&#45;&gt;Node124 -->
<g id="edge26" class="edge"><title>Node135&#45;&gt;Node124</title>
<path fill="none" stroke="midnightblue" d="M1114.46,-54.2727C1167.54,-51.0641 1276.95,-50.5459 1357,-91 1378.66,-101.944 1396.3,-125.226 1405.05,-138.398"/>
<polygon fill="midnightblue" stroke="midnightblue" points="1114.05,-50.7918 1104.31,-54.9616 1114.53,-57.7757 1114.05,-50.7918"/>
</g>
<!-- Node136 -->
<g id="node18" class="node"><title>Node136</title>
<g id="a_node18"><a xlink:href="proto_8h.html#a312b6a02f7cde171412989ea5f9be48f" target="_top" xlink:title="write_checkpoint">
<polygon fill="white" stroke="black" points="1179,-19.5 1179,-38.5 1269,-38.5 1269,-19.5 1179,-19.5"/>
<text text-anchor="middle" x="1224" y="-26.5" font-family="Helvetica,sans-Serif" font-size="10.00">write_checkpoint</text>
</a>
</g>
</g>
<!-- Node135&#45;&gt;Node136 -->
<g id="edge24" class="edge"><title>Node135&#45;&gt;Node136</title>
<path fill="none" stroke="midnightblue" d="M1114.21,-50.7586C1133.25,-46.9505 1157.89,-42.0229 1178.9,-37.8203"/>
<polygon fill="midnightblue" stroke="midnightblue" points="1113.38,-47.3541 1104.26,-52.7474 1114.76,-54.2182 1113.38,-47.3541"/>
</g>
<!-- Node136&#45;&gt;Node123 -->
<g id="edge25" class="edge"><title>Node136&#45;&gt;Node123</title>
<path fill="none" stroke="midnightblue" d="M1245.59,-44.881C1266.99,-61.3948 1299.81,-86.7083 1317.56,-100.403"/>
<polygon fill="midnightblue" stroke="midnightblue" points="1247.51,-41.9467 1237.46,-38.6098 1243.24,-47.4892 1247.51,-41.9467"/>
</g>
<!-- Node137&#45;&gt;Node136 -->
<g id="edge28" class="edge"><title>Node137&#45;&gt;Node136</title>
<path fill="none" stroke="midnightblue" d="M822.596,-12.243C913.255,-16.0371 1095.17,-23.6503 1178.93,-27.1558"/>
<polygon fill="midnightblue" stroke="midnightblue" points="822.669,-8.74309 812.531,-11.8218 822.376,-15.737 822.669,-8.74309"/>
</g>
<!-- Node138&#45;&gt;Node131 -->
<g id="edge30" class="edge"><title>Node138&#45;&gt;Node131</title>
<path fill="none" stroke="midnightblue" d="M406.667,-51.8172C417.684,-52.528 429.062,-53.2621 439.667,-53.9462"/>
<polygon fill="midnightblue" stroke="midnightblue" points="406.887,-48.3242 396.682,-51.1731 406.436,-55.3097 406.887,-48.3242"/>
</g>
</g>
</svg>
