<?xml version="1.0" encoding="UTF-8" standalone="no"?>
<!DOCTYPE svg PUBLIC "-//W3C//DTD SVG 1.1//EN"
 "http://www.w3.org/Graphics/SVG/1.1/DTD/svg11.dtd">
<!-- Generated by graphviz version 2.38.0 (20140413.2041)
 -->
<!-- Title: domain_exchange Pages: 1 -->
<!--zoomable 531 -->
<svg id="main" version="1.1" xmlns="http://www.w3.org/2000/svg" xmlns:xlink="http://www.w3.org/1999/xlink" xml:space="preserve" onload="init(evt)">
<style type="text/css"><![CDATA[
.edge:hover path { stroke: red; }
.edge:hover polygon { stroke: red; fill: red; }
]]></style>
<script type="text/javascript"><![CDATA[
var edges = document.getElementsByTagName('g');
if (edges && edges.length) {
  for (var i=0;i<edges.length;i++) {
    if (edges[i].id.substr(0,4)=='edge') {
      edges[i].setAttribute('class','edge');
    }
  }
}
]]></script>
        <defs>
                <circle id="rim" cx="0" cy="0" r="7"/>
                <circle id="rim2" cx="0" cy="0" r="3.5"/>
                <g id="zoomPlus">
                        <use xlink:href="#rim" fill="#404040">
                                <set attributeName="fill" to="#808080" begin="zoomplus.mouseover" end="zoomplus.mouseout"/>
                        </use>
                        <path d="M-4,0h8M0,-4v8" fill="none" stroke="white" stroke-width="1.5" pointer-events="none"/>
                </g>
                <g id="zoomMin">
                        <use xlink:href="#rim" fill="#404040">
                                <set attributeName="fill" to="#808080" begin="zoomminus.mouseover" end="zoomminus.mouseout"/>
                        </use>
                        <path d="M-4,0h8" fill="none" stroke="white" stroke-width="1.5" pointer-events="none"/>
                </g>
                <g id="dirArrow">
                        <path fill="none" stroke="white" stroke-width="1.5" d="M0,-3.0v7 M-2.5,-0.5L0,-3.0L2.5,-0.5"/>
                </g>
               <g id="resetDef">
                       <use xlink:href="#rim2" fill="#404040">
                               <set attributeName="fill" to="#808080" begin="reset.mouseover" end="reset.mouseout"/>
                       </use>
               </g>
        </defs>

<script type="text/javascript">
var viewWidth = 531;
var viewHeight = 531;
var sectionId = 'dynsection-5';
</script>
<script xlink:href="svgpan.js"/>
<svg id="graph" class="graph">
<g id="viewport">
<title>domain_exchange</title>
<polygon fill="white" stroke="none" points="-4,4 -4,-526.724 526.545,-526.724 526.545,4 -4,4"/>
<!-- Node76 -->
<g id="node1" class="node"><title>Node76</title>
<polygon fill="#bfbfbf" stroke="black" points="157.211,-285.569 157.211,-304.569 252.211,-304.569 252.211,-285.569 157.211,-285.569"/>
<text text-anchor="middle" x="204.711" y="-292.569" font-family="Helvetica,sans-Serif" font-size="10.00">domain_exchange</text>
</g>
<!-- Node77 -->
<g id="node2" class="node"><title>Node77</title>
<g id="a_node2"><a xlink:href="domain_8h.html#a168c36ec12faca23e23395b6a13d2037" target="_top" xlink:title="domain_decompose_full">
<polygon fill="white" stroke="black" points="133.464,-356.836 133.464,-375.836 255.464,-375.836 255.464,-356.836 133.464,-356.836"/>
<text text-anchor="middle" x="194.464" y="-363.836" font-family="Helvetica,sans-Serif" font-size="10.00">domain_decompose_full</text>
</a>
</g>
</g>
<!-- Node76&#45;&gt;Node77 -->
<g id="edge1" class="edge"><title>Node76&#45;&gt;Node77</title>
<path fill="none" stroke="midnightblue" d="M201.858,-314.907C199.916,-328.417 197.427,-345.725 195.89,-356.419"/>
<polygon fill="midnightblue" stroke="midnightblue" points="205.37,-315.076 203.329,-304.68 198.441,-314.08 205.37,-315.076"/>
</g>
<!-- Node78 -->
<g id="node3" class="node"><title>Node78</title>
<g id="a_node3"><a xlink:href="domain_8h.html#acf7b74bdcb6563a4603538914fc16157" target="_top" xlink:title="domain_maintain">
<polygon fill="white" stroke="black" points="99.1405,-246.642 99.1405,-265.642 189.141,-265.642 189.141,-246.642 99.1405,-246.642"/>
<text text-anchor="middle" x="144.141" y="-253.642" font-family="Helvetica,sans-Serif" font-size="10.00">domain_maintain</text>
</a>
</g>
</g>
<!-- Node76&#45;&gt;Node78 -->
<g id="edge14" class="edge"><title>Node76&#45;&gt;Node78</title>
<path fill="none" stroke="midnightblue" d="M181.304,-280.026C173.783,-275.193 165.665,-269.976 158.941,-265.654"/>
<polygon fill="midnightblue" stroke="midnightblue" points="179.434,-282.984 189.738,-285.446 183.218,-277.096 179.434,-282.984"/>
</g>
<!-- Node86 -->
<g id="node11" class="node"><title>Node86</title>
<g id="a_node11"><a xlink:href="fofpetaio_8c.html#adeaedcc6bf73d7750d9b5c8871c682d9" target="_top" xlink:title="fof_distribute_particles">
<polygon fill="white" stroke="black" points="157.457,-214.301 157.457,-233.301 272.457,-233.301 272.457,-214.301 157.457,-214.301"/>
<text text-anchor="middle" x="214.957" y="-221.301" font-family="Helvetica,sans-Serif" font-size="10.00">fof_distribute_particles</text>
</a>
</g>
</g>
<!-- Node76&#45;&gt;Node86 -->
<g id="edge15" class="edge"><title>Node76&#45;&gt;Node86</title>
<path fill="none" stroke="midnightblue" d="M207.563,-275.23C209.506,-261.72 211.994,-244.412 213.532,-233.718"/>
<polygon fill="midnightblue" stroke="midnightblue" points="204.052,-275.061 206.093,-285.457 210.98,-276.057 204.052,-275.061"/>
</g>
<!-- Node94 -->
<g id="node19" class="node"><title>Node94</title>
<g id="a_node19"><a xlink:href="fofpetaio_8c.html#a039a9030108427652142d7ee5701b098" target="_top" xlink:title="fof_return_particles">
<polygon fill="white" stroke="black" points="223.794,-265.284 223.794,-284.284 323.794,-284.284 323.794,-265.284 223.794,-265.284"/>
<text text-anchor="middle" x="273.794" y="-272.284" font-family="Helvetica,sans-Serif" font-size="10.00">fof_return_particles</text>
</a>
</g>
</g>
<!-- Node76&#45;&gt;Node94 -->
<g id="edge28" class="edge"><title>Node76&#45;&gt;Node94</title>
<path fill="none" stroke="midnightblue" d="M241.171,-284.363C241.258,-284.337 241.346,-284.312 241.433,-284.286"/>
<polygon fill="midnightblue" stroke="midnightblue" points="245.838,-279.344 237.23,-285.52 247.811,-286.061 245.838,-279.344"/>
</g>
<!-- Node77&#45;&gt;Node78 -->
<g id="edge2" class="edge"><title>Node77&#45;&gt;Node78</title>
<path fill="none" stroke="midnightblue" d="M185.712,-347.17C174.864,-323.417 156.8,-283.863 148.525,-265.742"/>
<polygon fill="midnightblue" stroke="midnightblue" points="182.66,-348.914 189.998,-356.557 189.028,-346.006 182.66,-348.914"/>
</g>
<!-- Node79 -->
<g id="node4" class="node"><title>Node79</title>
<g id="a_node4"><a xlink:href="run_8c.html#a05e0ffe612d44e6d7f3a9ae5b9df56a2" target="_top" xlink:title="run">
<polygon fill="white" stroke="black" points="249.531,-416.556 249.531,-435.556 279.531,-435.556 279.531,-416.556 249.531,-416.556"/>
<text text-anchor="middle" x="264.531" y="-423.556" font-family="Helvetica,sans-Serif" font-size="10.00">run</text>
</a>
</g>
</g>
<!-- Node77&#45;&gt;Node79 -->
<g id="edge11" class="edge"><title>Node77&#45;&gt;Node79</title>
<path fill="none" stroke="midnightblue" d="M213.433,-382.504C226.097,-393.298 242.335,-407.138 253.068,-416.286"/>
<polygon fill="midnightblue" stroke="midnightblue" points="215.603,-379.754 205.721,-375.931 211.062,-385.081 215.603,-379.754"/>
</g>
<!-- Node83 -->
<g id="node8" class="node"><title>Node83</title>
<g id="a_node8"><a xlink:href="proto_8h.html#ab080cb20bac2a1a6153a84e8cfd15374" target="_top" xlink:title="init">
<polygon fill="white" stroke="black" points="69.0703,-363.421 69.0703,-382.421 98.0703,-382.421 98.0703,-363.421 69.0703,-363.421"/>
<text text-anchor="middle" x="83.5703" y="-370.421" font-family="Helvetica,sans-Serif" font-size="10.00">init</text>
</a>
</g>
</g>
<!-- Node77&#45;&gt;Node83 -->
<g id="edge8" class="edge"><title>Node77&#45;&gt;Node83</title>
<path fill="none" stroke="midnightblue" d="M122.947,-370.583C113.704,-371.131 105.112,-371.642 98.3283,-372.044"/>
<polygon fill="midnightblue" stroke="midnightblue" points="123.404,-374.062 133.179,-369.975 122.989,-367.074 123.404,-374.062"/>
</g>
<!-- Node85 -->
<g id="node10" class="node"><title>Node85</title>
<g id="a_node10"><a xlink:href="runtests_8c.html#a549024555ca61e3f05a7100307e44f69" target="_top" xlink:title="runtests">
<polygon fill="white" stroke="black" points="34.7108,-285.569 34.7108,-304.569 86.7108,-304.569 86.7108,-285.569 34.7108,-285.569"/>
<text text-anchor="middle" x="60.7108" y="-292.569" font-family="Helvetica,sans-Serif" font-size="10.00">runtests</text>
</a>
</g>
</g>
<!-- Node77&#45;&gt;Node85 -->
<g id="edge12" class="edge"><title>Node77&#45;&gt;Node85</title>
<path fill="none" stroke="midnightblue" d="M167.355,-351.891C140.996,-337.847 101.695,-316.906 78.8907,-304.755"/>
<polygon fill="midnightblue" stroke="midnightblue" points="165.954,-355.111 176.426,-356.724 169.246,-348.933 165.954,-355.111"/>
</g>
<!-- Node78&#45;&gt;Node79 -->
<g id="edge3" class="edge"><title>Node78&#45;&gt;Node79</title>
<path fill="none" stroke="midnightblue" d="M157,-274.292C182.446,-310.205 238.43,-389.218 257.788,-416.539"/>
<polygon fill="midnightblue" stroke="midnightblue" points="159.595,-271.901 150.958,-265.765 153.884,-275.947 159.595,-271.901"/>
</g>
<!-- Node80 -->
<g id="node5" class="node"><title>Node80</title>
<g id="a_node5"><a xlink:href="main_8c.html#a3c04138a5bfe5d72780bb7e82a18e627" target="_top" xlink:title="main">
<polygon fill="white" stroke="black" points="367.422,-402.347 367.422,-421.347 405.422,-421.347 405.422,-402.347 367.422,-402.347"/>
<text text-anchor="middle" x="386.422" y="-409.347" font-family="Helvetica,sans-Serif" font-size="10.00">main</text>
</a>
</g>
</g>
<!-- Node79&#45;&gt;Node80 -->
<g id="edge4" class="edge"><title>Node79&#45;&gt;Node80</title>
<path fill="none" stroke="midnightblue" d="M290.015,-423.085C312.984,-420.407 346.256,-416.529 367.097,-414.1"/>
<polygon fill="midnightblue" stroke="midnightblue" points="289.496,-419.622 279.968,-424.256 290.306,-426.575 289.496,-419.622"/>
</g>
<!-- Node81 -->
<g id="node6" class="node"><title>Node81</title>
<g id="a_node6"><a xlink:href="walltime_8h.html#a76d2135b612766d4d665748454b879d6" target="_top" xlink:title="walltime_report">
<polygon fill="white" stroke="black" points="439.545,-366.708 439.545,-385.708 522.545,-385.708 522.545,-366.708 439.545,-366.708"/>
<text text-anchor="middle" x="481.045" y="-373.708" font-family="Helvetica,sans-Serif" font-size="10.00">walltime_report</text>
</a>
</g>
</g>
<!-- Node80&#45;&gt;Node81 -->
<g id="edge5" class="edge"><title>Node80&#45;&gt;Node81</title>
<path fill="none" stroke="midnightblue" d="M414.992,-401.086C427.994,-396.189 443.248,-390.444 455.82,-385.709"/>
<polygon fill="midnightblue" stroke="midnightblue" points="413.694,-397.835 405.57,-404.635 416.162,-404.385 413.694,-397.835"/>
</g>
<!-- Node82 -->
<g id="node7" class="node"><title>Node82</title>
<g id="a_node7"><a xlink:href="run_8c.html#adc59e9ee1517e4e690694a64ab6a59d2" target="_top" xlink:title="write_cpu_log">
<polygon fill="white" stroke="black" points="196.951,-499.37 196.951,-518.37 273.951,-518.37 273.951,-499.37 196.951,-499.37"/>
<text text-anchor="middle" x="235.451" y="-506.37" font-family="Helvetica,sans-Serif" font-size="10.00">write_cpu_log</text>
</a>
</g>
</g>
<!-- Node81&#45;&gt;Node82 -->
<g id="edge6" class="edge"><title>Node81&#45;&gt;Node82</title>
<path fill="none" stroke="midnightblue" d="M454.387,-390.607C403.979,-417.836 295.925,-476.204 253.283,-499.237"/>
<polygon fill="midnightblue" stroke="midnightblue" points="456.247,-393.58 463.382,-385.748 452.92,-387.422 456.247,-393.58"/>
</g>
<!-- Node82&#45;&gt;Node79 -->
<g id="edge7" class="edge"><title>Node82&#45;&gt;Node79</title>
<path fill="none" stroke="midnightblue" d="M242.23,-489.564C248.174,-472.636 256.566,-448.737 261.175,-435.612"/>
<polygon fill="midnightblue" stroke="midnightblue" points="238.912,-488.45 238.901,-499.045 245.516,-490.769 238.912,-488.45"/>
</g>
<!-- Node84 -->
<g id="node9" class="node"><title>Node84</title>
<g id="a_node9"><a xlink:href="proto_8h.html#a74dc0e5e9eefe11fc8434b62de573146" target="_top" xlink:title="begrun">
<polygon fill="white" stroke="black" points="-1.77636e-14,-402.347 -1.77636e-14,-421.347 46,-421.347 46,-402.347 -1.77636e-14,-402.347"/>
<text text-anchor="middle" x="23" y="-409.347" font-family="Helvetica,sans-Serif" font-size="10.00">begrun</text>
</a>
</g>
</g>
<!-- Node83&#45;&gt;Node84 -->
<g id="edge9" class="edge"><title>Node83&#45;&gt;Node84</title>
<path fill="none" stroke="midnightblue" d="M60.4584,-387.774C52.9105,-392.625 44.7319,-397.881 37.9481,-402.24"/>
<polygon fill="midnightblue" stroke="midnightblue" points="62.3876,-390.695 68.9079,-382.344 58.6031,-384.806 62.3876,-390.695"/>
</g>
<!-- Node84&#45;&gt;Node80 -->
<g id="edge10" class="edge"><title>Node84&#45;&gt;Node80</title>
<path fill="none" stroke="midnightblue" d="M56.2059,-411.847C130.596,-411.847 308.683,-411.847 367.332,-411.847"/>
<polygon fill="midnightblue" stroke="midnightblue" points="56.0094,-408.347 46.0093,-411.847 56.0093,-415.347 56.0094,-408.347"/>
</g>
<!-- Node85&#45;&gt;Node80 -->
<g id="edge13" class="edge"><title>Node85&#45;&gt;Node80</title>
<path fill="none" stroke="midnightblue" d="M96.3769,-307.856C165.285,-332.562 314.575,-386.087 367.415,-405.033"/>
<polygon fill="midnightblue" stroke="midnightblue" points="97.409,-304.508 86.8145,-304.428 95.0465,-311.097 97.409,-304.508"/>
</g>
<!-- Node87 -->
<g id="node12" class="node"><title>Node87</title>
<g id="a_node12"><a xlink:href="fofpetaio_8c.html#ae9bc2119aed92e2556b9ad427e646b45" target="_top" xlink:title="fof_save_particles">
<polygon fill="white" stroke="black" points="177.204,-143.034 177.204,-162.034 273.204,-162.034 273.204,-143.034 177.204,-143.034"/>
<text text-anchor="middle" x="225.204" y="-150.034" font-family="Helvetica,sans-Serif" font-size="10.00">fof_save_particles</text>
</a>
</g>
</g>
<!-- Node86&#45;&gt;Node87 -->
<g id="edge16" class="edge"><title>Node86&#45;&gt;Node87</title>
<path fill="none" stroke="midnightblue" d="M217.81,-203.963C219.752,-190.453 222.241,-173.145 223.778,-162.451"/>
<polygon fill="midnightblue" stroke="midnightblue" points="214.298,-203.794 216.339,-214.19 221.227,-204.79 214.298,-203.794"/>
</g>
<!-- Node88 -->
<g id="node13" class="node"><title>Node88</title>
<g id="a_node13"><a xlink:href="fof_8c.html#aa0d13cc94e97083dfd468ed33331eed7" target="_top" xlink:title="fof_periodic_wrap">
<polygon fill="white" stroke="black" points="127.471,-71.7671 127.471,-90.7671 220.471,-90.7671 220.471,-71.7671 127.471,-71.7671"/>
<text text-anchor="middle" x="173.971" y="-78.7671" font-family="Helvetica,sans-Serif" font-size="10.00">fof_periodic_wrap</text>
</a>
</g>
</g>
<!-- Node87&#45;&gt;Node88 -->
<g id="edge17" class="edge"><title>Node87&#45;&gt;Node88</title>
<path fill="none" stroke="midnightblue" d="M212.378,-134.693C202.486,-120.933 189.172,-102.413 181.1,-91.1836"/>
<polygon fill="midnightblue" stroke="midnightblue" points="209.616,-136.846 218.295,-142.923 215.299,-132.76 209.616,-136.846"/>
</g>
<!-- Node93 -->
<g id="node18" class="node"><title>Node93</title>
<g id="a_node18"><a xlink:href="fof_8h.html#ad08d3c5fd1cf1f78c75a17330a8e0348" target="_top" xlink:title="fof_save_groups">
<polygon fill="white" stroke="black" points="301.661,-122.327 301.661,-141.327 390.661,-141.327 390.661,-122.327 301.661,-122.327"/>
<text text-anchor="middle" x="346.161" y="-129.327" font-family="Helvetica,sans-Serif" font-size="10.00">fof_save_groups</text>
</a>
</g>
</g>
<!-- Node87&#45;&gt;Node93 -->
<g id="edge26" class="edge"><title>Node87&#45;&gt;Node93</title>
<path fill="none" stroke="midnightblue" d="M283.413,-142.569C289.431,-141.539 295.478,-140.503 301.317,-139.504"/>
<polygon fill="midnightblue" stroke="midnightblue" points="282.623,-139.153 273.357,-144.291 283.804,-146.053 282.623,-139.153"/>
</g>
<!-- Node89 -->
<g id="node14" class="node"><title>Node89</title>
<g id="a_node14"><a xlink:href="fof_8c.html#a36336d505e8a4fb8e8fdaf9a796e40d4" target="_top" xlink:title="fof_finish_group_properties">
<polygon fill="white" stroke="black" points="18.0712,-23.5946 18.0712,-42.5946 152.071,-42.5946 152.071,-23.5946 18.0712,-23.5946"/>
<text text-anchor="middle" x="85.0712" y="-30.5946" font-family="Helvetica,sans-Serif" font-size="10.00">fof_finish_group_properties</text>
</a>
</g>
</g>
<!-- Node88&#45;&gt;Node89 -->
<g id="edge18" class="edge"><title>Node88&#45;&gt;Node89</title>
<path fill="none" stroke="midnightblue" d="M157.305,-65.7689C145.714,-58.1701 129.961,-49.3925 116.109,-42.722"/>
<polygon fill="midnightblue" stroke="midnightblue" points="155.389,-68.6993 165.594,-71.5475 159.392,-62.9571 155.389,-68.6993"/>
</g>
<!-- Node89&#45;&gt;Node88 -->
<g id="edge19" class="edge"><title>Node89&#45;&gt;Node88</title>
<path fill="none" stroke="midnightblue" d="M101.737,-48.5928C113.328,-56.1916 129.081,-64.9692 142.933,-71.6397"/>
<polygon fill="midnightblue" stroke="midnightblue" points="103.653,-45.6624 93.4484,-42.8142 99.6497,-51.4046 103.653,-45.6624"/>
</g>
<!-- Node90 -->
<g id="node15" class="node"><title>Node90</title>
<g id="a_node15"><a xlink:href="fof_8c.html#ae4b5e05b1f0225637629759a9e2ba72e" target="_top" xlink:title="fof_compile_catalogue">
<polygon fill="white" stroke="black" points="188.697,-0.5 188.697,-19.5 302.697,-19.5 302.697,-0.5 188.697,-0.5"/>
<text text-anchor="middle" x="245.697" y="-7.5" font-family="Helvetica,sans-Serif" font-size="10.00">fof_compile_catalogue</text>
</a>
</g>
</g>
<!-- Node89&#45;&gt;Node90 -->
<g id="edge20" class="edge"><title>Node89&#45;&gt;Node90</title>
<path fill="none" stroke="midnightblue" d="M161.253,-22.1412C170.444,-20.8198 179.707,-19.488 188.56,-18.2152"/>
<polygon fill="midnightblue" stroke="midnightblue" points="160.732,-18.6802 151.331,-23.5678 161.728,-25.6089 160.732,-18.6802"/>
</g>
<!-- Node90&#45;&gt;Node88 -->
<g id="edge21" class="edge"><title>Node90&#45;&gt;Node88</title>
<path fill="none" stroke="midnightblue" d="M228.916,-26.6739C214.964,-40.5366 195.576,-59.8007 183.951,-71.3507"/>
<polygon fill="midnightblue" stroke="midnightblue" points="231.397,-29.1426 236.024,-19.6114 226.463,-24.1769 231.397,-29.1426"/>
</g>
<!-- Node91 -->
<g id="node16" class="node"><title>Node91</title>
<g id="a_node16"><a xlink:href="fof_8h.html#a7f10d50a8e07ce0bb67ffdfaf904d7c8" target="_top" xlink:title="fof_fof">
<polygon fill="white" stroke="black" points="371.311,-503.224 371.311,-522.224 415.311,-522.224 415.311,-503.224 371.311,-503.224"/>
<text text-anchor="middle" x="393.311" y="-510.224" font-family="Helvetica,sans-Serif" font-size="10.00">fof_fof</text>
</a>
</g>
</g>
<!-- Node90&#45;&gt;Node91 -->
<g id="edge22" class="edge"><title>Node90&#45;&gt;Node91</title>
<path fill="none" stroke="midnightblue" d="M251.372,-29.3263C275.928,-112.956 372.601,-442.194 390.464,-503.03"/>
<polygon fill="midnightblue" stroke="midnightblue" points="254.69,-28.2025 248.514,-19.5937 247.974,-30.1747 254.69,-28.2025"/>
</g>
<!-- Node91&#45;&gt;Node80 -->
<g id="edge25" class="edge"><title>Node91&#45;&gt;Node80</title>
<path fill="none" stroke="midnightblue" d="M391.949,-492.784C390.482,-471.309 388.209,-438.023 387.09,-421.638"/>
<polygon fill="midnightblue" stroke="midnightblue" points="388.477,-493.314 392.65,-503.052 395.461,-492.837 388.477,-493.314"/>
</g>
<!-- Node92 -->
<g id="node17" class="node"><title>Node92</title>
<g id="a_node17"><a xlink:href="proto_8h.html#a312b6a02f7cde171412989ea5f9be48f" target="_top" xlink:title="write_checkpoint">
<polygon fill="white" stroke="black" points="69.9811,-482.049 69.9811,-501.049 159.981,-501.049 159.981,-482.049 69.9811,-482.049"/>
<text text-anchor="middle" x="114.981" y="-489.049" font-family="Helvetica,sans-Serif" font-size="10.00">write_checkpoint</text>
</a>
</g>
</g>
<!-- Node91&#45;&gt;Node92 -->
<g id="edge23" class="edge"><title>Node91&#45;&gt;Node92</title>
<path fill="none" stroke="midnightblue" d="M360.842,-510.254C311.204,-506.478 216.302,-499.258 160.031,-494.976"/>
<polygon fill="midnightblue" stroke="midnightblue" points="360.768,-513.759 371.004,-511.027 361.299,-506.779 360.768,-513.759"/>
</g>
<!-- Node92&#45;&gt;Node79 -->
<g id="edge24" class="edge"><title>Node92&#45;&gt;Node79</title>
<path fill="none" stroke="midnightblue" d="M145.94,-477.991C177.425,-464.203 224.922,-443.402 249.143,-432.794"/>
<polygon fill="midnightblue" stroke="midnightblue" points="144.483,-474.808 136.727,-482.026 147.291,-481.22 144.483,-474.808"/>
</g>
<!-- Node93&#45;&gt;Node92 -->
<g id="edge27" class="edge"><title>Node93&#45;&gt;Node92</title>
<path fill="none" stroke="midnightblue" d="M334.349,-150.205C292.589,-215.185 152.731,-432.809 121.292,-481.729"/>
<polygon fill="midnightblue" stroke="midnightblue" points="337.515,-151.753 339.977,-141.448 331.626,-147.969 337.515,-151.753"/>
</g>
<!-- Node94&#45;&gt;Node87 -->
<g id="edge29" class="edge"><title>Node94&#45;&gt;Node87</title>
<path fill="none" stroke="midnightblue" d="M266.266,-255.843C255.736,-229.35 237.002,-182.217 228.999,-162.082"/>
<polygon fill="midnightblue" stroke="midnightblue" points="263.035,-257.191 269.981,-265.191 269.54,-254.605 263.035,-257.191"/>
</g>
</g>
</svg>
        <g id="navigator" transform="translate(0 0)" fill="#404254">
                <rect fill="#f2f5e9" fill-opacity="0.5" stroke="#606060" stroke-width=".5" x="0" y="0" width="60" height="60"/>
                <use id="zoomplus" xlink:href="#zoomPlus" x="17" y="9" onmousedown="handleZoom(evt,'in')"/>
                <use id="zoomminus" xlink:href="#zoomMin" x="42" y="9" onmousedown="handleZoom(evt,'out')"/>
                <use id="reset" xlink:href="#resetDef" x="30" y="36" onmousedown="handleReset()"/>
                <g id="arrowUp" xlink:href="#dirArrow" transform="translate(30 24)" onmousedown="handlePan(0,-1)">
                  <use xlink:href="#rim" fill="#404040">
                        <set attributeName="fill" to="#808080" begin="arrowUp.mouseover" end="arrowUp.mouseout"/>
                  </use>
                  <path fill="none" stroke="white" stroke-width="1.5" d="M0,-3.0v7 M-2.5,-0.5L0,-3.0L2.5,-0.5"/>
                </g>
                <g id="arrowRight" xlink:href="#dirArrow" transform="rotate(90) translate(36 -43)" onmousedown="handlePan(1,0)">
                  <use xlink:href="#rim" fill="#404040">
                        <set attributeName="fill" to="#808080" begin="arrowRight.mouseover" end="arrowRight.mouseout"/>
                  </use>
                  <path fill="none" stroke="white" stroke-width="1.5" d="M0,-3.0v7 M-2.5,-0.5L0,-3.0L2.5,-0.5"/>
                </g>
                <g id="arrowDown" xlink:href="#dirArrow" transform="rotate(180) translate(-30 -48)" onmousedown="handlePan(0,1)">
                  <use xlink:href="#rim" fill="#404040">
                        <set attributeName="fill" to="#808080" begin="arrowDown.mouseover" end="arrowDown.mouseout"/>
                  </use>
                  <path fill="none" stroke="white" stroke-width="1.5" d="M0,-3.0v7 M-2.5,-0.5L0,-3.0L2.5,-0.5"/>
                </g>
                <g id="arrowLeft" xlink:href="#dirArrow" transform="rotate(270) translate(-36 17)" onmousedown="handlePan(-1,0)">
                  <use xlink:href="#rim" fill="#404040">
                        <set attributeName="fill" to="#808080" begin="arrowLeft.mouseover" end="arrowLeft.mouseout"/>
                  </use>
                  <path fill="none" stroke="white" stroke-width="1.5" d="M0,-3.0v7 M-2.5,-0.5L0,-3.0L2.5,-0.5"/>
                </g>
        </g>
        <svg viewBox="0 0 15 15" width="100%" height="30px" preserveAspectRatio="xMaxYMin meet">
         <g id="arrow_out" transform="scale(0.3 0.3)">
          <a xlink:href="exchange_8c_a299bb3cc6ca0e0353d2aa66bcc8d91ca_icgraph_org.svg" target="_base">
           <rect id="button" ry="5" rx="5" y="6" x="6" height="38" width="38"
                fill="#f2f5e9" fill-opacity="0.5" stroke="#606060" stroke-width="1.0"/>
           <path id="arrow"
             d="M 11.500037,31.436501 C 11.940474,20.09759 22.043105,11.32322 32.158766,21.979434 L 37.068811,17.246167 C 37.068811,17.246167 37.088388,32 37.088388,32 L 22.160133,31.978069 C 22.160133,31.978069 26.997745,27.140456 26.997745,27.140456 C 18.528582,18.264221 13.291696,25.230495 11.500037,31.436501 z"
             style="fill:#404040;"/>
          </a>
         </g>
        </svg>
</svg>
