<?xml version="1.0" encoding="UTF-8" standalone="no"?>
<!DOCTYPE svg PUBLIC "-//W3C//DTD SVG 1.1//EN"
 "http://www.w3.org/Graphics/SVG/1.1/DTD/svg11.dtd">
<!-- Generated by graphviz version 2.50.0 (0)
 -->
<!-- Title: fof_save_particles Pages: 1 -->
<svg width="1305pt" height="1191pt"
 viewBox="0.00 0.00 1305.00 1190.89" xmlns="http://www.w3.org/2000/svg" xmlns:xlink="http://www.w3.org/1999/xlink">
<g id="graph0" class="graph" transform="scale(1 1) rotate(0) translate(4 1186.89)">
<title>fof_save_particles</title>
<polygon fill="white" stroke="transparent" points="-4,4 -4,-1186.89 1301,-1186.89 1301,4 -4,4"/>
<!-- Node1 -->
<g id="node1" class="node">
<title>Node1</title>
<g id="a_node1"><a xlink:title=" ">
<polygon fill="#bfbfbf" stroke="black" points="0,-285.5 0,-304.5 106,-304.5 106,-285.5 0,-285.5"/>
<text text-anchor="middle" x="53" y="-292.5" font-family="Helvetica,sans-Serif" font-size="10.00">fof_save_particles</text>
</a>
</g>
</g>
<!-- Node2 -->
<g id="node2" class="node">
<title>Node2</title>
<g id="a_node2"><a xlink:href="fofpetaio_8c.html#a061f2af250c42035ff82a2b14c4abfe5" target="_top" xlink:title=" ">
<polygon fill="white" stroke="black" points="160,-1145.5 160,-1164.5 253,-1164.5 253,-1145.5 160,-1145.5"/>
<text text-anchor="middle" x="206.5" y="-1152.5" font-family="Helvetica,sans-Serif" font-size="10.00">build_buffer_fof</text>
</a>
</g>
</g>
<!-- Node1&#45;&gt;Node2 -->
<g id="edge1" class="edge">
<title>Node1&#45;&gt;Node2</title>
<path fill="none" stroke="midnightblue" d="M54.37,-304.74C57.86,-394.02 86.02,-1068.47 142,-1136 144.57,-1139.1 147.62,-1141.71 150.98,-1143.9"/>
<polygon fill="midnightblue" stroke="midnightblue" points="149.37,-1147.01 159.85,-1148.54 152.61,-1140.8 149.37,-1147.01"/>
</g>
<!-- Node4 -->
<g id="node4" class="node">
<title>Node4</title>
<g id="a_node4"><a xlink:href="petaio_8c.html#a329a32cec3055c120a2b868dc53df379" target="_top" xlink:title=" ">
<polygon fill="white" stroke="black" points="154.5,-247.5 154.5,-266.5 258.5,-266.5 258.5,-247.5 154.5,-247.5"/>
<text text-anchor="middle" x="206.5" y="-254.5" font-family="Helvetica,sans-Serif" font-size="10.00">destroy_io_blocks</text>
</a>
</g>
</g>
<!-- Node1&#45;&gt;Node4 -->
<g id="edge3" class="edge">
<title>Node1&#45;&gt;Node4</title>
<path fill="none" stroke="midnightblue" d="M92.23,-285.41C112.13,-280.42 136.66,-274.27 157.79,-268.97"/>
<polygon fill="midnightblue" stroke="midnightblue" points="158.7,-272.35 167.55,-266.52 156.99,-265.56 158.7,-272.35"/>
</g>
<!-- Node5 -->
<g id="node5" class="node">
<title>Node5</title>
<g id="a_node5"><a xlink:href="endrun_8c.html#ad963d7efdb9f10f7a2298c8ccd222ab0" target="_top" xlink:title=" ">
<polygon fill="white" stroke="black" points="1020,-727.5 1020,-746.5 1070,-746.5 1070,-727.5 1020,-727.5"/>
<text text-anchor="middle" x="1045" y="-734.5" font-family="Helvetica,sans-Serif" font-size="10.00">endrun</text>
</a>
</g>
</g>
<!-- Node1&#45;&gt;Node5 -->
<g id="edge4" class="edge">
<title>Node1&#45;&gt;Node5</title>
<path fill="none" stroke="midnightblue" d="M64.72,-304.52C80.42,-317.83 111.15,-341.52 142,-352 242.06,-385.98 273.33,-371 379,-371 379,-371 379,-371 709.5,-371 827.33,-371 885.43,-311.3 974,-389 1024.03,-432.89 1039.47,-650.47 1043.07,-717.39"/>
<polygon fill="midnightblue" stroke="midnightblue" points="1039.58,-717.61 1043.58,-727.42 1046.57,-717.26 1039.58,-717.61"/>
</g>
<!-- Node9 -->
<g id="node9" class="node">
<title>Node9</title>
<g id="a_node9"><a xlink:href="string_8c.html#a787c3b0717214d830c69b7e8785a3e33" target="_top" xlink:title=" ">
<polygon fill="white" stroke="black" points="147,-209.5 147,-228.5 266,-228.5 266,-209.5 147,-209.5"/>
<text text-anchor="middle" x="206.5" y="-216.5" font-family="Helvetica,sans-Serif" font-size="10.00">fastpm_strdup_printf</text>
</a>
</g>
</g>
<!-- Node1&#45;&gt;Node9 -->
<g id="edge8" class="edge">
<title>Node1&#45;&gt;Node9</title>
<path fill="none" stroke="midnightblue" d="M66.45,-285.29C82.93,-272.84 113.25,-251.28 142,-238 146.96,-235.71 152.27,-233.61 157.62,-231.72"/>
<polygon fill="midnightblue" stroke="midnightblue" points="158.85,-235 167.24,-228.53 156.65,-228.35 158.85,-235"/>
</g>
<!-- Node11 -->
<g id="node11" class="node">
<title>Node11</title>
<g id="a_node11"><a xlink:href="fofpetaio_8c.html#a1acbf084a8ae3acf80bc22e10715a5de" target="_top" xlink:title=" ">
<polygon fill="white" stroke="black" points="142,-550.5 142,-569.5 271,-569.5 271,-550.5 142,-550.5"/>
<text text-anchor="middle" x="206.5" y="-557.5" font-family="Helvetica,sans-Serif" font-size="10.00">fof_distribute_particles</text>
</a>
</g>
</g>
<!-- Node1&#45;&gt;Node11 -->
<g id="edge10" class="edge">
<title>Node1&#45;&gt;Node11</title>
<path fill="none" stroke="midnightblue" d="M59.57,-304.75C81.94,-343.87 165.43,-489.9 195.02,-541.67"/>
<polygon fill="midnightblue" stroke="midnightblue" points="192.04,-543.5 200.04,-550.45 198.11,-540.03 192.04,-543.5"/>
</g>
<!-- Node33 -->
<g id="node20" class="node">
<title>Node33</title>
<g id="a_node20"><a xlink:href="endrun_8c.html#a6567cd867c5549fb6586e19ccd819764" target="_top" xlink:title=" ">
<polygon fill="white" stroke="black" points="1014.5,-917.5 1014.5,-936.5 1075.5,-936.5 1075.5,-917.5 1014.5,-917.5"/>
<text text-anchor="middle" x="1045" y="-924.5" font-family="Helvetica,sans-Serif" font-size="10.00">message</text>
</a>
</g>
</g>
<!-- Node1&#45;&gt;Node33 -->
<g id="edge60" class="edge">
<title>Node1&#45;&gt;Node33</title>
<path fill="none" stroke="midnightblue" d="M54.01,-304.73C54.42,-356.26 60.75,-601.47 142,-778 190.61,-883.62 214.04,-911.17 307,-981 547.64,-1161.77 724.1,-1265.73 974,-1098 1025.41,-1063.49 1039.09,-983.8 1042.71,-946.68"/>
<polygon fill="midnightblue" stroke="midnightblue" points="1046.21,-946.88 1043.54,-936.63 1039.23,-946.31 1046.21,-946.88"/>
</g>
<!-- Node60 -->
<g id="node33" class="node">
<title>Node60</title>
<g id="a_node33"><a xlink:href="fofpetaio_8c.html#abdd22faea7567c76dc09d1196fcdcbb1" target="_top" xlink:title=" ">
<polygon fill="white" stroke="black" points="145.5,-171.5 145.5,-190.5 267.5,-190.5 267.5,-171.5 145.5,-171.5"/>
<text text-anchor="middle" x="206.5" y="-178.5" font-family="Helvetica,sans-Serif" font-size="10.00">fof_radix_Group_GrNr</text>
</a>
</g>
</g>
<!-- Node1&#45;&gt;Node60 -->
<g id="edge48" class="edge">
<title>Node1&#45;&gt;Node60</title>
<path fill="none" stroke="midnightblue" d="M60.27,-285.34C73.21,-266.17 104.79,-223.18 142,-200 145.36,-197.9 148.97,-196.03 152.7,-194.35"/>
<polygon fill="midnightblue" stroke="midnightblue" points="154.15,-197.54 162.14,-190.58 151.55,-191.04 154.15,-197.54"/>
</g>
<!-- Node61 -->
<g id="node34" class="node">
<title>Node61</title>
<g id="a_node34"><a xlink:href="fofpetaio_8c.html#a733f38fec62d160ef64ab50ba9010d37" target="_top" xlink:title=" ">
<polygon fill="white" stroke="black" points="144.5,-133.5 144.5,-152.5 268.5,-152.5 268.5,-133.5 144.5,-133.5"/>
<text text-anchor="middle" x="206.5" y="-140.5" font-family="Helvetica,sans-Serif" font-size="10.00">fof_register_io_blocks</text>
</a>
</g>
</g>
<!-- Node1&#45;&gt;Node61 -->
<g id="edge49" class="edge">
<title>Node1&#45;&gt;Node61</title>
<path fill="none" stroke="midnightblue" d="M57.66,-285.3C67.41,-260.76 96.42,-195.83 142,-162 144.63,-160.05 147.47,-158.29 150.43,-156.72"/>
<polygon fill="midnightblue" stroke="midnightblue" points="151.96,-159.86 159.59,-152.51 149.04,-153.5 151.96,-159.86"/>
</g>
<!-- Node62 -->
<g id="node35" class="node">
<title>Node62</title>
<g id="a_node35"><a xlink:href="fofpetaio_8c.html#a6dc37f7fd4902e660ff7fd21f3565fff" target="_top" xlink:title=" ">
<polygon fill="white" stroke="black" points="157,-323.5 157,-342.5 256,-342.5 256,-323.5 157,-323.5"/>
<text text-anchor="middle" x="206.5" y="-330.5" font-family="Helvetica,sans-Serif" font-size="10.00">fof_write_header</text>
</a>
</g>
</g>
<!-- Node1&#45;&gt;Node62 -->
<g id="edge50" class="edge">
<title>Node1&#45;&gt;Node62</title>
<path fill="none" stroke="midnightblue" d="M92.23,-304.59C112.13,-309.58 136.66,-315.73 157.79,-321.03"/>
<polygon fill="midnightblue" stroke="midnightblue" points="156.99,-324.44 167.55,-323.48 158.7,-317.65 156.99,-324.44"/>
</g>
<!-- Node19 -->
<g id="node37" class="node">
<title>Node19</title>
<g id="a_node37"><a xlink:href="cosmology_8c.html#ab425f16e6fe06110e2fb4944065b81bb" target="_top" xlink:title=" ">
<polygon fill="white" stroke="black" points="332.5,-247.5 332.5,-266.5 427.5,-266.5 427.5,-247.5 332.5,-247.5"/>
<text text-anchor="middle" x="380" y="-254.5" font-family="Helvetica,sans-Serif" font-size="10.00">hubble_function</text>
</a>
</g>
</g>
<!-- Node1&#45;&gt;Node19 -->
<g id="edge59" class="edge">
<title>Node1&#45;&gt;Node19</title>
<path fill="none" stroke="midnightblue" d="M106.32,-291.7C150.36,-288.61 214.94,-283.37 271,-276 287.73,-273.8 305.81,-270.85 322.31,-267.93"/>
<polygon fill="midnightblue" stroke="midnightblue" points="323.13,-271.33 332.36,-266.12 321.89,-264.45 323.13,-271.33"/>
</g>
<!-- Node64 -->
<g id="node43" class="node">
<title>Node64</title>
<g id="a_node43"><a xlink:href="petaio_8c.html#ad7b91d2323ffc8919df52d90c9f3b6f2" target="_top" xlink:title=" ">
<polygon fill="white" stroke="black" points="151.5,-1107.5 151.5,-1126.5 261.5,-1126.5 261.5,-1107.5 151.5,-1107.5"/>
<text text-anchor="middle" x="206.5" y="-1114.5" font-family="Helvetica,sans-Serif" font-size="10.00">petaio_build_buffer</text>
</a>
</g>
</g>
<!-- Node1&#45;&gt;Node64 -->
<g id="edge61" class="edge">
<title>Node1&#45;&gt;Node64</title>
<path fill="none" stroke="midnightblue" d="M54.46,-304.76C58.66,-391.39 91.07,-1027.33 142,-1093 144.84,-1096.66 148.3,-1099.76 152.14,-1102.39"/>
<polygon fill="midnightblue" stroke="midnightblue" points="150.58,-1105.54 161.01,-1107.43 154.04,-1099.45 150.58,-1105.54"/>
</g>
<!-- Node65 -->
<g id="node44" class="node">
<title>Node65</title>
<g id="a_node44"><a xlink:href="petaio_8c.html#aacb623e82f8c6aa12d46c1c6e010bd9f" target="_top" xlink:title=" ">
<polygon fill="white" stroke="black" points="143.5,-95.5 143.5,-114.5 269.5,-114.5 269.5,-95.5 143.5,-95.5"/>
<text text-anchor="middle" x="206.5" y="-102.5" font-family="Helvetica,sans-Serif" font-size="10.00">petaio_build_selection</text>
</a>
</g>
</g>
<!-- Node1&#45;&gt;Node65 -->
<g id="edge64" class="edge">
<title>Node1&#45;&gt;Node65</title>
<path fill="none" stroke="midnightblue" d="M56.18,-285.18C63.17,-255.99 87.81,-169.01 142,-124 144.05,-122.3 146.25,-120.74 148.56,-119.33"/>
<polygon fill="midnightblue" stroke="midnightblue" points="150.59,-122.22 157.89,-114.54 147.39,-116 150.59,-122.22"/>
</g>
<!-- Node66 -->
<g id="node45" class="node">
<title>Node66</title>
<g id="a_node45"><a xlink:href="petaio_8c.html#a00bc8b1ba2ab1de94d983b08b14580c7" target="_top" xlink:title=" ">
<polygon fill="white" stroke="black" points="145,-57.5 145,-76.5 268,-76.5 268,-57.5 145,-57.5"/>
<text text-anchor="middle" x="206.5" y="-64.5" font-family="Helvetica,sans-Serif" font-size="10.00">petaio_destroy_buffer</text>
</a>
</g>
</g>
<!-- Node1&#45;&gt;Node66 -->
<g id="edge65" class="edge">
<title>Node1&#45;&gt;Node66</title>
<path fill="none" stroke="midnightblue" d="M55.14,-285.45C59.58,-252.54 78.72,-142.81 142,-86 143.74,-84.44 145.6,-83.01 147.56,-81.69"/>
<polygon fill="midnightblue" stroke="midnightblue" points="149.6,-84.56 156.64,-76.64 146.2,-78.44 149.6,-84.56"/>
</g>
<!-- Node67 -->
<g id="node46" class="node">
<title>Node67</title>
<g id="a_node46"><a xlink:href="petaio_8c.html#af6f495a272ad8ddce896b809aa18ad16" target="_top" xlink:title=" ">
<polygon fill="white" stroke="black" points="844.5,-1069.5 844.5,-1088.5 951.5,-1088.5 951.5,-1069.5 844.5,-1069.5"/>
<text text-anchor="middle" x="898" y="-1076.5" font-family="Helvetica,sans-Serif" font-size="10.00">petaio_save_block</text>
</a>
</g>
</g>
<!-- Node1&#45;&gt;Node67 -->
<g id="edge66" class="edge">
<title>Node1&#45;&gt;Node67</title>
<path fill="none" stroke="midnightblue" d="M55.2,-304.9C63.45,-368.69 117.08,-725.06 307,-920 450.14,-1066.93 713.65,-1082.61 834.03,-1081.49"/>
<polygon fill="midnightblue" stroke="midnightblue" points="834.23,-1084.99 844.19,-1081.35 834.14,-1077.99 834.23,-1084.99"/>
</g>
<!-- Node69 -->
<g id="node48" class="node">
<title>Node69</title>
<g id="a_node48"><a xlink:href="petaio_8c.html#a6d0888c0dbd0c70b0de352d0352c9906" target="_top" xlink:title=" ">
<polygon fill="white" stroke="black" points="154,-19.5 154,-38.5 259,-38.5 259,-19.5 154,-19.5"/>
<text text-anchor="middle" x="206.5" y="-26.5" font-family="Helvetica,sans-Serif" font-size="10.00">register_io_blocks</text>
</a>
</g>
</g>
<!-- Node1&#45;&gt;Node69 -->
<g id="edge70" class="edge">
<title>Node1&#45;&gt;Node69</title>
<path fill="none" stroke="midnightblue" d="M54.45,-285.31C56.7,-248.61 69.71,-116.65 142,-48 143.66,-46.42 145.45,-44.98 147.33,-43.65"/>
<polygon fill="midnightblue" stroke="midnightblue" points="149.21,-46.6 156.11,-38.56 145.7,-40.55 149.21,-46.6"/>
</g>
<!-- Node3 -->
<g id="node3" class="node">
<title>Node3</title>
<g id="a_node3"><a xlink:href="petaio_8c.html#aafe1fe998e7ca93a780ad69be4d061dc" target="_top" xlink:title=" ">
<polygon fill="white" stroke="black" points="325,-1145.5 325,-1164.5 435,-1164.5 435,-1145.5 325,-1145.5"/>
<text text-anchor="middle" x="380" y="-1152.5" font-family="Helvetica,sans-Serif" font-size="10.00">petaio_alloc_buffer</text>
</a>
</g>
</g>
<!-- Node2&#45;&gt;Node3 -->
<g id="edge2" class="edge">
<title>Node2&#45;&gt;Node3</title>
<path fill="none" stroke="midnightblue" d="M253.01,-1155C271.85,-1155 294.05,-1155 314.53,-1155"/>
<polygon fill="midnightblue" stroke="midnightblue" points="314.73,-1158.5 324.73,-1155 314.73,-1151.5 314.73,-1158.5"/>
</g>
<!-- Node6 -->
<g id="node6" class="node">
<title>Node6</title>
<g id="a_node6"><a xlink:href="system_8c.html#a341c8d27bd6c7dde856566810b412b1f" target="_top" xlink:title=" ">
<polygon fill="white" stroke="black" points="1124,-841.5 1124,-860.5 1203,-860.5 1203,-841.5 1124,-841.5"/>
<text text-anchor="middle" x="1163.5" y="-848.5" font-family="Helvetica,sans-Serif" font-size="10.00">MPIU_Tracev</text>
</a>
</g>
</g>
<!-- Node5&#45;&gt;Node6 -->
<g id="edge5" class="edge">
<title>Node5&#45;&gt;Node6</title>
<path fill="none" stroke="midnightblue" d="M1055.93,-746.72C1075.79,-766.15 1120.61,-810.01 1145.33,-834.2"/>
<polygon fill="midnightblue" stroke="midnightblue" points="1143,-836.81 1152.59,-841.31 1147.89,-831.81 1143,-836.81"/>
</g>
<!-- Node8 -->
<g id="node8" class="node">
<title>Node8</title>
<g id="a_node8"><a xlink:href="endrun_8c.html#a1200f02a595ab7cbe17c9e36ff32af0f" target="_top" xlink:title=" ">
<polygon fill="white" stroke="black" points="1116,-727.5 1116,-746.5 1211,-746.5 1211,-727.5 1116,-727.5"/>
<text text-anchor="middle" x="1163.5" y="-734.5" font-family="Helvetica,sans-Serif" font-size="10.00">show_backtrace</text>
</a>
</g>
</g>
<!-- Node5&#45;&gt;Node8 -->
<g id="edge7" class="edge">
<title>Node5&#45;&gt;Node8</title>
<path fill="none" stroke="midnightblue" d="M1070.14,-737C1080.55,-737 1093.21,-737 1105.77,-737"/>
<polygon fill="midnightblue" stroke="midnightblue" points="1105.78,-740.5 1115.78,-737 1105.78,-733.5 1105.78,-740.5"/>
</g>
<!-- Node7 -->
<g id="node7" class="node">
<title>Node7</title>
<g id="a_node7"><a xlink:href="system_8c.html#a87108946670b4c3afbe846c6726675ff" target="_top" xlink:title=" ">
<polygon fill="white" stroke="black" points="1247,-841.5 1247,-860.5 1297,-860.5 1297,-841.5 1247,-841.5"/>
<text text-anchor="middle" x="1272" y="-848.5" font-family="Helvetica,sans-Serif" font-size="10.00">putline</text>
</a>
</g>
</g>
<!-- Node6&#45;&gt;Node7 -->
<g id="edge6" class="edge">
<title>Node6&#45;&gt;Node7</title>
<path fill="none" stroke="midnightblue" d="M1203.25,-851C1214.22,-851 1226.09,-851 1236.77,-851"/>
<polygon fill="midnightblue" stroke="midnightblue" points="1236.99,-854.5 1246.99,-851 1236.99,-847.5 1236.99,-854.5"/>
</g>
<!-- Node10 -->
<g id="node10" class="node">
<title>Node10</title>
<g id="a_node10"><a xlink:href="string_8c.html#ae1f141218851350d5d41e00bc16cc705" target="_top" xlink:title=" ">
<polygon fill="white" stroke="black" points="317.5,-209.5 317.5,-228.5 442.5,-228.5 442.5,-209.5 317.5,-209.5"/>
<text text-anchor="middle" x="380" y="-216.5" font-family="Helvetica,sans-Serif" font-size="10.00">fastpm_strdup_vprintf</text>
</a>
</g>
</g>
<!-- Node9&#45;&gt;Node10 -->
<g id="edge9" class="edge">
<title>Node9&#45;&gt;Node10</title>
<path fill="none" stroke="midnightblue" d="M266.04,-219C279.19,-219 293.28,-219 306.91,-219"/>
<polygon fill="midnightblue" stroke="midnightblue" points="307.21,-222.5 317.21,-219 307.21,-215.5 307.21,-222.5"/>
</g>
<!-- Node11&#45;&gt;Node5 -->
<g id="edge11" class="edge">
<title>Node11&#45;&gt;Node5</title>
<path fill="none" stroke="midnightblue" d="M219.04,-550.32C260.01,-517 403.4,-409 541,-409 541,-409 541,-409 709.5,-409 827.76,-409 885.48,-359.58 974,-438 1016.36,-475.53 1036.61,-656.47 1042.28,-717.13"/>
<polygon fill="midnightblue" stroke="midnightblue" points="1038.81,-717.65 1043.2,-727.29 1045.79,-717.02 1038.81,-717.65"/>
</g>
<!-- Node12 -->
<g id="node12" class="node">
<title>Node12</title>
<g id="a_node12"><a xlink:href="fofpetaio_8c.html#acabb6e5f5905a3e5fea38a30142fa243" target="_top" xlink:title=" ">
<polygon fill="white" stroke="black" points="308.5,-531.5 308.5,-550.5 451.5,-550.5 451.5,-531.5 308.5,-531.5"/>
<text text-anchor="middle" x="380" y="-538.5" font-family="Helvetica,sans-Serif" font-size="10.00">fof_try_particle_exchange</text>
</a>
</g>
</g>
<!-- Node11&#45;&gt;Node12 -->
<g id="edge12" class="edge">
<title>Node11&#45;&gt;Node12</title>
<path fill="none" stroke="midnightblue" d="M271.36,-552.93C280.15,-551.95 289.26,-550.94 298.31,-549.94"/>
<polygon fill="midnightblue" stroke="midnightblue" points="298.91,-553.39 308.46,-548.81 298.13,-546.44 298.91,-553.39"/>
</g>
<!-- Node11&#45;&gt;Node33 -->
<g id="edge45" class="edge">
<title>Node11&#45;&gt;Node33</title>
<path fill="none" stroke="midnightblue" d="M209.57,-569.66C224.03,-634.45 316.22,-1003 541,-1003 541,-1003 541,-1003 709.5,-1003 827.36,-1003 864.44,-1027.45 974,-984 995.68,-975.4 1015.8,-957.54 1028.86,-944.09"/>
<polygon fill="midnightblue" stroke="midnightblue" points="1031.42,-946.48 1035.69,-936.79 1026.3,-941.7 1031.42,-946.48"/>
</g>
<!-- Node52 -->
<g id="node25" class="node">
<title>Node52</title>
<g id="a_node25"><a xlink:href="slotsmanager_8c.html#a0effa6d52d74a3ca0b91c1cae3b72b5e" target="_top" xlink:title=" ">
<polygon fill="white" stroke="black" points="857,-955.5 857,-974.5 939,-974.5 939,-955.5 857,-955.5"/>
<text text-anchor="middle" x="898" y="-962.5" font-family="Helvetica,sans-Serif" font-size="10.00">slots_reserve</text>
</a>
</g>
</g>
<!-- Node11&#45;&gt;Node52 -->
<g id="edge47" class="edge">
<title>Node11&#45;&gt;Node52</title>
<path fill="none" stroke="midnightblue" d="M217.79,-569.57C263.06,-611.26 450.32,-779.06 631,-874 702.38,-911.51 792.42,-938.51 847.3,-952.94"/>
<polygon fill="midnightblue" stroke="midnightblue" points="846.57,-956.36 857.13,-955.48 848.33,-949.59 846.57,-956.36"/>
</g>
<!-- Node59 -->
<g id="node32" class="node">
<title>Node59</title>
<g id="a_node32"><a xlink:href="fofpetaio_8c.html#ab6011cca4c1072998c6296e91ff42a95" target="_top" xlink:title=" ">
<polygon fill="white" stroke="black" points="313,-569.5 313,-588.5 447,-588.5 447,-569.5 313,-569.5"/>
<text text-anchor="middle" x="380" y="-576.5" font-family="Helvetica,sans-Serif" font-size="10.00">order_by_type_and_grnr</text>
</a>
</g>
</g>
<!-- Node11&#45;&gt;Node59 -->
<g id="edge46" class="edge">
<title>Node11&#45;&gt;Node59</title>
<path fill="none" stroke="midnightblue" d="M271.36,-567.07C281.61,-568.21 292.3,-569.4 302.81,-570.56"/>
<polygon fill="midnightblue" stroke="midnightblue" points="302.47,-574.04 312.79,-571.67 303.24,-567.09 302.47,-574.04"/>
</g>
<!-- Node12&#45;&gt;Node5 -->
<g id="edge41" class="edge">
<title>Node12&#45;&gt;Node5</title>
<path fill="none" stroke="midnightblue" d="M394.14,-531.48C413.69,-517.94 452.09,-493.7 489,-484 593.26,-456.61 888.47,-410.39 974,-476 1013,-505.92 1035.06,-661.75 1041.78,-717.3"/>
<polygon fill="midnightblue" stroke="midnightblue" points="1038.31,-717.76 1042.95,-727.28 1045.26,-716.94 1038.31,-717.76"/>
</g>
<!-- Node13 -->
<g id="node13" class="node">
<title>Node13</title>
<g id="a_node13"><a xlink:href="exchange_8c.html#af794ce127bda2ca9ae13900960db03b0" target="_top" xlink:title=" ">
<polygon fill="white" stroke="black" points="489,-613.5 489,-632.5 595,-632.5 595,-613.5 489,-613.5"/>
<text text-anchor="middle" x="542" y="-620.5" font-family="Helvetica,sans-Serif" font-size="10.00">domain_exchange</text>
</a>
</g>
</g>
<!-- Node12&#45;&gt;Node13 -->
<g id="edge13" class="edge">
<title>Node12&#45;&gt;Node13</title>
<path fill="none" stroke="midnightblue" d="M431.63,-550.53C439.08,-553 446.44,-556.11 453,-560 473.01,-571.87 470.21,-584.29 489,-598 494.6,-602.09 500.97,-605.79 507.29,-609.02"/>
<polygon fill="midnightblue" stroke="midnightblue" points="505.88,-612.23 516.41,-613.4 508.91,-605.92 505.88,-612.23"/>
</g>
<!-- Node56 -->
<g id="node29" class="node">
<title>Node56</title>
<g id="a_node29"><a xlink:href="fofpetaio_8c.html#af0ee1a6294b726f6041860817b39cd50" target="_top" xlink:title=" ">
<polygon fill="white" stroke="black" points="495.5,-493.5 495.5,-512.5 588.5,-512.5 588.5,-493.5 495.5,-493.5"/>
<text text-anchor="middle" x="542" y="-500.5" font-family="Helvetica,sans-Serif" font-size="10.00">fof_radix_origin</text>
</a>
</g>
</g>
<!-- Node12&#45;&gt;Node56 -->
<g id="edge42" class="edge">
<title>Node12&#45;&gt;Node56</title>
<path fill="none" stroke="midnightblue" d="M421.37,-531.41C442.49,-526.4 468.53,-520.21 490.92,-514.89"/>
<polygon fill="midnightblue" stroke="midnightblue" points="491.99,-518.24 500.92,-512.52 490.38,-511.43 491.99,-518.24"/>
</g>
<!-- Node57 -->
<g id="node30" class="node">
<title>Node57</title>
<g id="a_node30"><a xlink:href="fofpetaio_8c.html#a46333a51691f00069d1bbaaf18984b5a" target="_top" xlink:title=" ">
<polygon fill="white" stroke="black" points="491.5,-569.5 491.5,-588.5 592.5,-588.5 592.5,-569.5 491.5,-569.5"/>
<text text-anchor="middle" x="542" y="-576.5" font-family="Helvetica,sans-Serif" font-size="10.00">fof_radix_sortkey</text>
</a>
</g>
</g>
<!-- Node12&#45;&gt;Node57 -->
<g id="edge43" class="edge">
<title>Node12&#45;&gt;Node57</title>
<path fill="none" stroke="midnightblue" d="M421.37,-550.59C442.49,-555.6 468.53,-561.79 490.92,-567.11"/>
<polygon fill="midnightblue" stroke="midnightblue" points="490.38,-570.57 500.92,-569.48 491.99,-563.76 490.38,-570.57"/>
</g>
<!-- Node58 -->
<g id="node31" class="node">
<title>Node58</title>
<g id="a_node31"><a xlink:href="fofpetaio_8c.html#a6afb42df21c7eeaa2212d32efc06a0bd" target="_top" xlink:title=" ">
<polygon fill="white" stroke="black" points="491,-531.5 491,-550.5 593,-550.5 593,-531.5 491,-531.5"/>
<text text-anchor="middle" x="542" y="-538.5" font-family="Helvetica,sans-Serif" font-size="10.00">fof_sorted_layout</text>
</a>
</g>
</g>
<!-- Node12&#45;&gt;Node58 -->
<g id="edge44" class="edge">
<title>Node12&#45;&gt;Node58</title>
<path fill="none" stroke="midnightblue" d="M451.64,-541C461.36,-541 471.26,-541 480.76,-541"/>
<polygon fill="midnightblue" stroke="midnightblue" points="480.89,-544.5 490.89,-541 480.89,-537.5 480.89,-544.5"/>
</g>
<!-- Node13&#45;&gt;Node5 -->
<g id="edge39" class="edge">
<title>Node13&#45;&gt;Node5</title>
<path fill="none" stroke="midnightblue" d="M571.28,-613.4C579.64,-609.57 588.32,-604.5 595,-598 620.07,-573.6 602.33,-548.05 631,-528 693.61,-484.2 912.69,-458.4 974,-504 1008.97,-530.01 1033.05,-665.53 1041.07,-717.07"/>
<polygon fill="midnightblue" stroke="midnightblue" points="1037.66,-717.88 1042.61,-727.24 1044.58,-716.83 1037.66,-717.88"/>
</g>
<!-- Node14 -->
<g id="node14" class="node">
<title>Node14</title>
<g id="a_node14"><a xlink:href="exchange_8c.html#a53d0a94330418e30dfb76f468cfc1483" target="_top" xlink:title=" ">
<polygon fill="white" stroke="black" points="631,-613.5 631,-632.5 786,-632.5 786,-613.5 631,-613.5"/>
<text text-anchor="middle" x="708.5" y="-620.5" font-family="Helvetica,sans-Serif" font-size="10.00">domain_build_exchange_list</text>
</a>
</g>
</g>
<!-- Node13&#45;&gt;Node14 -->
<g id="edge14" class="edge">
<title>Node13&#45;&gt;Node14</title>
<path fill="none" stroke="midnightblue" d="M595.05,-623C603.23,-623 611.88,-623 620.6,-623"/>
<polygon fill="midnightblue" stroke="midnightblue" points="620.85,-626.5 630.85,-623 620.85,-619.5 620.85,-626.5"/>
</g>
<!-- Node32 -->
<g id="node19" class="node">
<title>Node32</title>
<g id="a_node19"><a xlink:href="exchange_8c.html#a1bdd3526ea369a324852d39e3b5d10dc" target="_top" xlink:title=" ">
<polygon fill="white" stroke="black" points="843.5,-727.5 843.5,-746.5 952.5,-746.5 952.5,-727.5 843.5,-727.5"/>
<text text-anchor="middle" x="898" y="-734.5" font-family="Helvetica,sans-Serif" font-size="10.00">domain_build_plan</text>
</a>
</g>
</g>
<!-- Node13&#45;&gt;Node32 -->
<g id="edge20" class="edge">
<title>Node13&#45;&gt;Node32</title>
<path fill="none" stroke="midnightblue" d="M557.35,-632.59C574.3,-643.52 603.65,-661.27 631,-672 697.97,-698.27 778.72,-716.2 833.55,-726.46"/>
<polygon fill="midnightblue" stroke="midnightblue" points="833.01,-729.92 843.48,-728.29 834.27,-723.04 833.01,-729.92"/>
</g>
<!-- Node34 -->
<g id="node21" class="node">
<title>Node34</title>
<g id="a_node21"><a xlink:href="exchange_8c.html#a506bfd8f0d5e80d66191a76c0cc7b4cd" target="_top" xlink:title=" ">
<polygon fill="white" stroke="red" points="641.5,-803.5 641.5,-822.5 775.5,-822.5 775.5,-803.5 641.5,-803.5"/>
<text text-anchor="middle" x="708.5" y="-810.5" font-family="Helvetica,sans-Serif" font-size="10.00">domain_exchange_once</text>
</a>
</g>
</g>
<!-- Node13&#45;&gt;Node34 -->
<g id="edge24" class="edge">
<title>Node13&#45;&gt;Node34</title>
<path fill="none" stroke="midnightblue" d="M548.96,-632.72C562.31,-654.1 596.17,-706.43 631,-745 648.38,-764.25 670.82,-783.66 686.89,-796.78"/>
<polygon fill="midnightblue" stroke="midnightblue" points="685.1,-799.84 695.09,-803.39 689.49,-794.39 685.1,-799.84"/>
</g>
<!-- Node39 -->
<g id="node24" class="node">
<title>Node39</title>
<g id="a_node24"><a xlink:href="system_8c.html#ade2741449d03e719e2e91a6e511e07a4" target="_top" xlink:title=" ">
<polygon fill="white" stroke="black" points="865,-689.5 865,-708.5 931,-708.5 931,-689.5 865,-689.5"/>
<text text-anchor="middle" x="898" y="-696.5" font-family="Helvetica,sans-Serif" font-size="10.00">MPIU_Any</text>
</a>
</g>
</g>
<!-- Node13&#45;&gt;Node39 -->
<g id="edge40" class="edge">
<title>Node13&#45;&gt;Node39</title>
<path fill="none" stroke="midnightblue" d="M587.31,-632.58C601.29,-635.6 616.79,-638.94 631,-642 710,-658.99 802.22,-678.73 854.7,-689.96"/>
<polygon fill="midnightblue" stroke="midnightblue" points="854.14,-693.42 864.65,-692.08 855.6,-686.57 854.14,-693.42"/>
</g>
<!-- Node53 -->
<g id="node26" class="node">
<title>Node53</title>
<g id="a_node26"><a xlink:href="exchange_8c.html#ad0a5952d7a5b297dd06c373acdaf552f" target="_top" xlink:title=" ">
<polygon fill="white" stroke="black" points="832,-879.5 832,-898.5 964,-898.5 964,-879.5 832,-879.5"/>
<text text-anchor="middle" x="898" y="-886.5" font-family="Helvetica,sans-Serif" font-size="10.00">domain_find_iter_space</text>
</a>
</g>
</g>
<!-- Node13&#45;&gt;Node53 -->
<g id="edge34" class="edge">
<title>Node13&#45;&gt;Node53</title>
<path fill="none" stroke="midnightblue" d="M543.98,-632.74C547.88,-666.26 565.51,-777.76 631,-832 684.19,-876.05 763.4,-888.37 821.55,-890.84"/>
<polygon fill="midnightblue" stroke="midnightblue" points="821.67,-894.35 831.79,-891.19 821.91,-887.35 821.67,-894.35"/>
</g>
<!-- Node54 -->
<g id="node27" class="node">
<title>Node54</title>
<g id="a_node27"><a xlink:href="exchange_8c.html#ab419f41200e3b51751e75f85e9c2473b" target="_top" xlink:title=" ">
<polygon fill="white" stroke="black" points="632.5,-575.5 632.5,-594.5 784.5,-594.5 784.5,-575.5 632.5,-575.5"/>
<text text-anchor="middle" x="708.5" y="-582.5" font-family="Helvetica,sans-Serif" font-size="10.00">domain_free_exchangeplan</text>
</a>
</g>
</g>
<!-- Node13&#45;&gt;Node54 -->
<g id="edge37" class="edge">
<title>Node13&#45;&gt;Node54</title>
<path fill="none" stroke="midnightblue" d="M584.51,-613.41C606.32,-608.37 633.23,-602.16 656.32,-596.82"/>
<polygon fill="midnightblue" stroke="midnightblue" points="657.33,-600.18 666.29,-594.52 655.76,-593.36 657.33,-600.18"/>
</g>
<!-- Node55 -->
<g id="node28" class="node">
<title>Node55</title>
<g id="a_node28"><a xlink:href="exchange_8c.html#a1e8dbb24c4636035c16e83e1509baac9" target="_top" xlink:title=" ">
<polygon fill="white" stroke="black" points="634.5,-537.5 634.5,-556.5 782.5,-556.5 782.5,-537.5 634.5,-537.5"/>
<text text-anchor="middle" x="708.5" y="-544.5" font-family="Helvetica,sans-Serif" font-size="10.00">domain_init_exchangeplan</text>
</a>
</g>
</g>
<!-- Node13&#45;&gt;Node55 -->
<g id="edge38" class="edge">
<title>Node13&#45;&gt;Node55</title>
<path fill="none" stroke="midnightblue" d="M566.27,-613.49C575.53,-609.28 586.08,-603.94 595,-598 612.82,-586.14 612.06,-575.98 631,-566 635.5,-563.63 640.31,-561.54 645.23,-559.72"/>
<polygon fill="midnightblue" stroke="midnightblue" points="646.45,-563 654.81,-556.5 644.22,-556.36 646.45,-563"/>
</g>
<!-- Node15 -->
<g id="node15" class="node">
<title>Node15</title>
<g id="a_node15"><a xlink:href="system_8c.html#a98a657dc63957ee4d2d237c6411f32f7" target="_top" xlink:title=" ">
<polygon fill="white" stroke="black" points="831,-552 831,-582 965,-582 965,-552 831,-552"/>
<text text-anchor="start" x="839" y="-570" font-family="Helvetica,sans-Serif" font-size="10.00">gadget_compact_thread</text>
<text text-anchor="middle" x="898" y="-559" font-family="Helvetica,sans-Serif" font-size="10.00">_arrays</text>
</a>
</g>
</g>
<!-- Node14&#45;&gt;Node15 -->
<g id="edge15" class="edge">
<title>Node14&#45;&gt;Node15</title>
<path fill="none" stroke="midnightblue" d="M750.55,-613.43C762.07,-610.58 774.57,-607.32 786,-604 786.2,-603.94 814.3,-594.58 842.17,-585.28"/>
<polygon fill="midnightblue" stroke="midnightblue" points="843.6,-588.5 851.98,-582.01 841.38,-581.86 843.6,-588.5"/>
</g>
<!-- Node16 -->
<g id="node16" class="node">
<title>Node16</title>
<g id="a_node16"><a xlink:href="system_8c.html#a0082531d4facaa6caabf05fb9fd547d4" target="_top" xlink:title=" ">
<polygon fill="white" stroke="black" points="838.5,-640 838.5,-670 957.5,-670 957.5,-640 838.5,-640"/>
<text text-anchor="start" x="846.5" y="-658" font-family="Helvetica,sans-Serif" font-size="10.00">gadget_setup_thread</text>
<text text-anchor="middle" x="898" y="-647" font-family="Helvetica,sans-Serif" font-size="10.00">_arrays</text>
</a>
</g>
</g>
<!-- Node14&#45;&gt;Node16 -->
<g id="edge16" class="edge">
<title>Node14&#45;&gt;Node16</title>
<path fill="none" stroke="midnightblue" d="M765.25,-632.51C785.01,-635.89 807.48,-639.72 828.2,-643.26"/>
<polygon fill="midnightblue" stroke="midnightblue" points="827.76,-646.73 838.21,-644.97 828.94,-639.83 827.76,-646.73"/>
</g>
<!-- Node17 -->
<g id="node17" class="node">
<title>Node17</title>
<g id="a_node17"><a xlink:href="timefac_8c.html#a4a608a436edf9737ebb7d4c06a142542" target="_top" xlink:title=" ">
<polygon fill="white" stroke="red" points="836.5,-601.5 836.5,-620.5 959.5,-620.5 959.5,-601.5 836.5,-601.5"/>
<text text-anchor="middle" x="898" y="-608.5" font-family="Helvetica,sans-Serif" font-size="10.00">get_exact_drift_factor</text>
</a>
</g>
</g>
<!-- Node14&#45;&gt;Node17 -->
<g id="edge17" class="edge">
<title>Node14&#45;&gt;Node17</title>
<path fill="none" stroke="midnightblue" d="M786.03,-618.1C799.3,-617.25 813.04,-616.37 826.14,-615.53"/>
<polygon fill="midnightblue" stroke="midnightblue" points="826.74,-619 836.49,-614.87 826.29,-612.02 826.74,-619"/>
</g>
<!-- Node28 -->
<g id="node18" class="node">
<title>Node28</title>
<g id="a_node18"><a xlink:href="drift_8c.html#afcd5522c5be796dbcb33e4e6d689ab3b" target="_top" xlink:title=" ">
<polygon fill="white" stroke="red" points="847,-513.5 847,-532.5 949,-532.5 949,-513.5 847,-513.5"/>
<text text-anchor="middle" x="898" y="-520.5" font-family="Helvetica,sans-Serif" font-size="10.00">real_drift_particle</text>
</a>
</g>
</g>
<!-- Node14&#45;&gt;Node28 -->
<g id="edge18" class="edge">
<title>Node14&#45;&gt;Node28</title>
<path fill="none" stroke="midnightblue" d="M768.9,-613.37C775,-610.92 780.84,-607.84 786,-604 811.24,-585.19 796.92,-562.03 822,-543 826.68,-539.45 831.93,-536.53 837.44,-534.13"/>
<polygon fill="midnightblue" stroke="midnightblue" points="838.76,-537.37 846.87,-530.55 836.28,-530.82 838.76,-537.37"/>
</g>
<!-- Node28&#45;&gt;Node5 -->
<g id="edge19" class="edge">
<title>Node28&#45;&gt;Node5</title>
<path fill="none" stroke="midnightblue" d="M949.24,-529.23C958.29,-532.24 967.05,-536.62 974,-543 1025.38,-590.16 1039.1,-677.86 1042.72,-717.11"/>
<polygon fill="midnightblue" stroke="midnightblue" points="1039.24,-717.54 1043.52,-727.23 1046.22,-716.99 1039.24,-717.54"/>
</g>
<!-- Node32&#45;&gt;Node5 -->
<g id="edge21" class="edge">
<title>Node32&#45;&gt;Node5</title>
<path fill="none" stroke="midnightblue" d="M952.58,-737C971.69,-737 992.68,-737 1009.72,-737"/>
<polygon fill="midnightblue" stroke="midnightblue" points="1009.77,-740.5 1019.77,-737 1009.77,-733.5 1009.77,-740.5"/>
</g>
<!-- Node32&#45;&gt;Node33 -->
<g id="edge22" class="edge">
<title>Node32&#45;&gt;Node33</title>
<path fill="none" stroke="midnightblue" d="M915.6,-746.61C932.02,-756.76 957.09,-774.03 974,-794 1004.22,-829.68 1026.43,-880.59 1037.04,-907.91"/>
<polygon fill="midnightblue" stroke="midnightblue" points="1033.84,-909.34 1040.64,-917.46 1040.39,-906.86 1033.84,-909.34"/>
</g>
<!-- Node33&#45;&gt;Node6 -->
<g id="edge23" class="edge">
<title>Node33&#45;&gt;Node6</title>
<path fill="none" stroke="midnightblue" d="M1060.75,-917.37C1080.54,-904.47 1115.87,-881.42 1139.25,-866.17"/>
<polygon fill="midnightblue" stroke="midnightblue" points="1141.4,-868.94 1147.86,-860.55 1137.58,-863.08 1141.4,-868.94"/>
</g>
<!-- Node34&#45;&gt;Node5 -->
<g id="edge29" class="edge">
<title>Node34&#45;&gt;Node5</title>
<path fill="none" stroke="midnightblue" d="M757.46,-803.46C810.58,-792.7 898.69,-774.32 974,-756 985.71,-753.15 998.45,-749.78 1009.81,-746.67"/>
<polygon fill="midnightblue" stroke="midnightblue" points="1011.08,-749.95 1019.78,-743.91 1009.21,-743.2 1011.08,-749.95"/>
</g>
<!-- Node34&#45;&gt;Node33 -->
<g id="edge30" class="edge">
<title>Node34&#45;&gt;Node33</title>
<path fill="none" stroke="midnightblue" d="M717.26,-822.74C733.94,-842.85 775.49,-888.7 822,-908 881.83,-932.83 958.38,-933.3 1004.17,-930.66"/>
<polygon fill="midnightblue" stroke="midnightblue" points="1004.54,-934.15 1014.29,-930 1004.08,-927.16 1004.54,-934.15"/>
</g>
<!-- Node35 -->
<g id="node22" class="node">
<title>Node35</title>
<g id="a_node22"><a xlink:href="exchange_8c.html#a8599d56da0ae04a7f229757e055af62c" target="_top" xlink:title=" ">
<polygon fill="white" stroke="black" points="830.5,-803.5 830.5,-822.5 965.5,-822.5 965.5,-803.5 830.5,-803.5"/>
<text text-anchor="middle" x="898" y="-810.5" font-family="Helvetica,sans-Serif" font-size="10.00">_transpose_plan_entries</text>
</a>
</g>
</g>
<!-- Node34&#45;&gt;Node35 -->
<g id="edge25" class="edge">
<title>Node34&#45;&gt;Node35</title>
<path fill="none" stroke="midnightblue" d="M775.61,-813C790,-813 805.34,-813 820.11,-813"/>
<polygon fill="midnightblue" stroke="midnightblue" points="820.23,-816.5 830.23,-813 820.23,-809.5 820.23,-816.5"/>
</g>
<!-- Node36 -->
<g id="node23" class="node">
<title>Node36</title>
<g id="a_node23"><a xlink:href="exchange_8c.html#a285784bd5ff2c9b8328789a8a093e445" target="_top" xlink:title=" ">
<polygon fill="white" stroke="red" points="822,-841.5 822,-860.5 974,-860.5 974,-841.5 822,-841.5"/>
<text text-anchor="middle" x="898" y="-848.5" font-family="Helvetica,sans-Serif" font-size="10.00">domain_test_id_uniqueness</text>
</a>
</g>
</g>
<!-- Node34&#45;&gt;Node36 -->
<g id="edge26" class="edge">
<title>Node34&#45;&gt;Node36</title>
<path fill="none" stroke="midnightblue" d="M756.81,-822.59C782.11,-827.72 813.45,-834.07 840.07,-839.46"/>
<polygon fill="midnightblue" stroke="midnightblue" points="839.53,-842.92 850.03,-841.48 840.92,-836.06 839.53,-842.92"/>
</g>
<!-- Node34&#45;&gt;Node39 -->
<g id="edge31" class="edge">
<title>Node34&#45;&gt;Node39</title>
<path fill="none" stroke="midnightblue" d="M718.07,-803.27C735.6,-783.98 777.66,-740.78 822,-718 832.15,-712.78 843.83,-708.94 854.9,-706.12"/>
<polygon fill="midnightblue" stroke="midnightblue" points="855.88,-709.49 864.84,-703.82 854.3,-702.67 855.88,-709.49"/>
</g>
<!-- Node34&#45;&gt;Node52 -->
<g id="edge32" class="edge">
<title>Node34&#45;&gt;Node52</title>
<path fill="none" stroke="midnightblue" d="M715.29,-822.61C730.05,-846.29 771.51,-907.94 822,-941 829.56,-945.95 838.22,-949.95 846.91,-953.15"/>
<polygon fill="midnightblue" stroke="midnightblue" points="846.07,-956.56 856.66,-956.44 848.3,-949.93 846.07,-956.56"/>
</g>
<!-- Node36&#45;&gt;Node5 -->
<g id="edge27" class="edge">
<title>Node36&#45;&gt;Node5</title>
<path fill="none" stroke="midnightblue" d="M954.93,-841.46C961.67,-839 968.2,-835.9 974,-832 1002.77,-812.66 1024.09,-777.38 1035.24,-755.69"/>
<polygon fill="midnightblue" stroke="midnightblue" points="1038.47,-757.03 1039.76,-746.52 1032.2,-753.94 1038.47,-757.03"/>
</g>
<!-- Node36&#45;&gt;Node33 -->
<g id="edge28" class="edge">
<title>Node36&#45;&gt;Node33</title>
<path fill="none" stroke="midnightblue" d="M949.32,-860.52C957.79,-863.02 966.32,-866.14 974,-870 994.41,-880.26 1014.27,-897.31 1027.59,-910.1"/>
<polygon fill="midnightblue" stroke="midnightblue" points="1025.41,-912.87 1034.98,-917.41 1030.33,-907.89 1025.41,-912.87"/>
</g>
<!-- Node52&#45;&gt;Node33 -->
<g id="edge33" class="edge">
<title>Node52&#45;&gt;Node33</title>
<path fill="none" stroke="midnightblue" d="M935.59,-955.41C956.59,-949.91 982.98,-942.99 1004.46,-937.36"/>
<polygon fill="midnightblue" stroke="midnightblue" points="1005.47,-940.72 1014.25,-934.8 1003.69,-933.95 1005.47,-940.72"/>
</g>
<!-- Node53&#45;&gt;Node5 -->
<g id="edge35" class="edge">
<title>Node53&#45;&gt;Node5</title>
<path fill="none" stroke="midnightblue" d="M957.43,-879.5C963.37,-877.02 969.04,-873.91 974,-870 1011.26,-840.65 1030.9,-785.92 1039.16,-756.66"/>
<polygon fill="midnightblue" stroke="midnightblue" points="1042.59,-757.35 1041.78,-746.79 1035.83,-755.56 1042.59,-757.35"/>
</g>
<!-- Node53&#45;&gt;Node33 -->
<g id="edge36" class="edge">
<title>Node53&#45;&gt;Node33</title>
<path fill="none" stroke="midnightblue" d="M935.59,-898.59C956.59,-904.09 982.98,-911.01 1004.46,-916.64"/>
<polygon fill="midnightblue" stroke="midnightblue" points="1003.69,-920.05 1014.25,-919.2 1005.47,-913.28 1003.69,-920.05"/>
</g>
<!-- Node62&#45;&gt;Node5 -->
<g id="edge51" class="edge">
<title>Node62&#45;&gt;Node5</title>
<path fill="none" stroke="midnightblue" d="M256.1,-333C321.04,-333 439.68,-333 541,-333 541,-333 541,-333 709.5,-333 827.54,-333 886.8,-277.45 974,-357 1027.87,-406.14 1040.73,-645.86 1043.38,-717.04"/>
<polygon fill="midnightblue" stroke="midnightblue" points="1039.89,-717.42 1043.73,-727.3 1046.89,-717.18 1039.89,-717.42"/>
</g>
<!-- Node63 -->
<g id="node36" class="node">
<title>Node63</title>
<g id="a_node36"><a xlink:href="petaio_8c.html#ab6fdd6f262d6108be8c4720ba1e0505b" target="_top" xlink:title=" ">
<polygon fill="white" stroke="black" points="314.5,-285.5 314.5,-304.5 445.5,-304.5 445.5,-285.5 314.5,-285.5"/>
<text text-anchor="middle" x="380" y="-292.5" font-family="Helvetica,sans-Serif" font-size="10.00">GetUsePeculiarVelocity</text>
</a>
</g>
</g>
<!-- Node62&#45;&gt;Node63 -->
<g id="edge52" class="edge">
<title>Node62&#45;&gt;Node63</title>
<path fill="none" stroke="midnightblue" d="M250.78,-323.41C273.61,-318.35 301.82,-312.1 325.96,-306.75"/>
<polygon fill="midnightblue" stroke="midnightblue" points="327.03,-310.1 336.03,-304.52 325.51,-303.27 327.03,-310.1"/>
</g>
<!-- Node62&#45;&gt;Node19 -->
<g id="edge53" class="edge">
<title>Node62&#45;&gt;Node19</title>
<path fill="none" stroke="midnightblue" d="M239.94,-323.42C250.26,-319.69 261.46,-314.87 271,-309 289.49,-297.62 287.95,-286.41 307,-276 311.89,-273.33 317.18,-271.02 322.59,-269.02"/>
<polygon fill="midnightblue" stroke="midnightblue" points="324.02,-272.23 332.4,-265.76 321.81,-265.59 324.02,-272.23"/>
</g>
<!-- Node20 -->
<g id="node38" class="node">
<title>Node20</title>
<g id="a_node38"><a xlink:href="omega__nu__single_8c.html#aca4b20af5bd369bcd096c670c27c6e36" target="_top" xlink:title=" ">
<polygon fill="white" stroke="black" points="497.5,-266.5 497.5,-285.5 586.5,-285.5 586.5,-266.5 497.5,-266.5"/>
<text text-anchor="middle" x="542" y="-273.5" font-family="Helvetica,sans-Serif" font-size="10.00">get_omega_nu</text>
</a>
</g>
</g>
<!-- Node19&#45;&gt;Node20 -->
<g id="edge54" class="edge">
<title>Node19&#45;&gt;Node20</title>
<path fill="none" stroke="midnightblue" d="M427.71,-262.55C446.32,-264.76 467.85,-267.31 487.11,-269.6"/>
<polygon fill="midnightblue" stroke="midnightblue" points="486.91,-273.1 497.25,-270.8 487.73,-266.15 486.91,-273.1"/>
</g>
<!-- Node25 -->
<g id="node42" class="node">
<title>Node25</title>
<g id="a_node42"><a xlink:href="cosmology_8c.html#a187e0106f302118344b027cf942347e0" target="_top" xlink:title=" ">
<polygon fill="white" stroke="black" points="506.5,-228.5 506.5,-247.5 577.5,-247.5 577.5,-228.5 506.5,-228.5"/>
<text text-anchor="middle" x="542" y="-235.5" font-family="Helvetica,sans-Serif" font-size="10.00">OmegaFLD</text>
</a>
</g>
</g>
<!-- Node19&#45;&gt;Node25 -->
<g id="edge58" class="edge">
<title>Node19&#45;&gt;Node25</title>
<path fill="none" stroke="midnightblue" d="M427.71,-251.45C449.35,-248.88 474.94,-245.84 496.33,-243.3"/>
<polygon fill="midnightblue" stroke="midnightblue" points="496.93,-246.76 506.45,-242.1 496.11,-239.81 496.93,-246.76"/>
</g>
<!-- Node21 -->
<g id="node39" class="node">
<title>Node21</title>
<g id="a_node39"><a xlink:href="omega__nu__single_8c.html#a5d81e97a54be82580201631d495bd694" target="_top" xlink:title=" ">
<polygon fill="white" stroke="black" points="683.5,-266.5 683.5,-285.5 733.5,-285.5 733.5,-266.5 683.5,-266.5"/>
<text text-anchor="middle" x="708.5" y="-273.5" font-family="Helvetica,sans-Serif" font-size="10.00">rho_nu</text>
</a>
</g>
</g>
<!-- Node20&#45;&gt;Node21 -->
<g id="edge55" class="edge">
<title>Node20&#45;&gt;Node21</title>
<path fill="none" stroke="midnightblue" d="M586.65,-276C613.64,-276 647.79,-276 672.9,-276"/>
<polygon fill="midnightblue" stroke="midnightblue" points="673.06,-279.5 683.06,-276 673.06,-272.5 673.06,-279.5"/>
</g>
<!-- Node22 -->
<g id="node40" class="node">
<title>Node22</title>
<g id="a_node40"><a xlink:href="omega__nu__single_8c.html#a5d053cc2c3fa75a3c357bbb99af5de62" target="_top" xlink:title=" ">
<polygon fill="white" stroke="red" points="852.5,-275.5 852.5,-294.5 943.5,-294.5 943.5,-275.5 852.5,-275.5"/>
<text text-anchor="middle" x="898" y="-282.5" font-family="Helvetica,sans-Serif" font-size="10.00">non_rel_rho_nu</text>
</a>
</g>
</g>
<!-- Node21&#45;&gt;Node22 -->
<g id="edge56" class="edge">
<title>Node21&#45;&gt;Node22</title>
<path fill="none" stroke="midnightblue" d="M733.63,-277.16C760.81,-278.46 805.9,-280.63 841.82,-282.35"/>
<polygon fill="midnightblue" stroke="midnightblue" points="842.01,-285.86 852.17,-282.85 842.35,-278.87 842.01,-285.86"/>
</g>
<!-- Node24 -->
<g id="node41" class="node">
<title>Node24</title>
<g id="a_node41"><a xlink:href="omega__nu__single_8c.html#ac447b6c2f0363d19b68b2ce9f29009c4" target="_top" xlink:title=" ">
<polygon fill="white" stroke="red" points="864,-237.5 864,-256.5 932,-256.5 932,-237.5 864,-237.5"/>
<text text-anchor="middle" x="898" y="-244.5" font-family="Helvetica,sans-Serif" font-size="10.00">rel_rho_nu</text>
</a>
</g>
</g>
<!-- Node21&#45;&gt;Node24 -->
<g id="edge57" class="edge">
<title>Node21&#45;&gt;Node24</title>
<path fill="none" stroke="midnightblue" d="M733.63,-272.27C763.92,-267.58 816.41,-259.46 853.72,-253.69"/>
<polygon fill="midnightblue" stroke="midnightblue" points="854.46,-257.12 863.81,-252.13 853.39,-250.2 854.46,-257.12"/>
</g>
<!-- Node64&#45;&gt;Node3 -->
<g id="edge63" class="edge">
<title>Node64&#45;&gt;Node3</title>
<path fill="none" stroke="midnightblue" d="M250.78,-1126.59C273.61,-1131.65 301.82,-1137.9 325.96,-1143.25"/>
<polygon fill="midnightblue" stroke="midnightblue" points="325.51,-1146.73 336.03,-1145.48 327.03,-1139.9 325.51,-1146.73"/>
</g>
<!-- Node64&#45;&gt;Node5 -->
<g id="edge62" class="edge">
<title>Node64&#45;&gt;Node5</title>
<path fill="none" stroke="midnightblue" d="M261.52,-1114.91C418.21,-1107.74 868.38,-1079.14 974,-984 1008.4,-953.01 1033.07,-809.64 1041.14,-756.71"/>
<polygon fill="midnightblue" stroke="midnightblue" points="1044.64,-757 1042.65,-746.6 1037.72,-755.97 1044.64,-757"/>
</g>
<!-- Node67&#45;&gt;Node5 -->
<g id="edge68" class="edge">
<title>Node67&#45;&gt;Node5</title>
<path fill="none" stroke="midnightblue" d="M951.57,-1069.99C959.99,-1066.5 967.92,-1061.67 974,-1055 979.16,-1049.33 1025.84,-824.94 1039.97,-756.57"/>
<polygon fill="midnightblue" stroke="midnightblue" points="1043.42,-757.17 1042.01,-746.67 1036.56,-755.75 1043.42,-757.17"/>
</g>
<!-- Node67&#45;&gt;Node33 -->
<g id="edge69" class="edge">
<title>Node67&#45;&gt;Node33</title>
<path fill="none" stroke="midnightblue" d="M947.38,-1069.48C956.9,-1066.03 966.3,-1061.35 974,-1055 1009.18,-1025.96 1029.5,-974.43 1038.47,-946.43"/>
<polygon fill="midnightblue" stroke="midnightblue" points="1041.89,-947.21 1041.44,-936.63 1035.19,-945.18 1041.89,-947.21"/>
</g>
<!-- Node68 -->
<g id="node47" class="node">
<title>Node68</title>
<g id="a_node47"><a xlink:href="system_8c.html#a1d471d98379273269e8045d2998eca73" target="_top" xlink:title=" ">
<polygon fill="white" stroke="black" points="1010,-1069.5 1010,-1088.5 1080,-1088.5 1080,-1069.5 1010,-1069.5"/>
<text text-anchor="middle" x="1045" y="-1076.5" font-family="Helvetica,sans-Serif" font-size="10.00">count_sum</text>
</a>
</g>
</g>
<!-- Node67&#45;&gt;Node68 -->
<g id="edge67" class="edge">
<title>Node67&#45;&gt;Node68</title>
<path fill="none" stroke="midnightblue" d="M951.76,-1079C967.42,-1079 984.41,-1079 999.49,-1079"/>
<polygon fill="midnightblue" stroke="midnightblue" points="999.58,-1082.5 1009.58,-1079 999.58,-1075.5 999.58,-1082.5"/>
</g>
<!-- Node70 -->
<g id="node49" class="node">
<title>Node70</title>
<g id="a_node49"><a xlink:href="hydra_8c.html#ad2e04e2dce31315c1541bbea55f33d2a" target="_top" xlink:title=" ">
<polygon fill="white" stroke="black" points="307,-38.5 307,-57.5 453,-57.5 453,-38.5 307,-38.5"/>
<text text-anchor="middle" x="380" y="-45.5" font-family="Helvetica,sans-Serif" font-size="10.00">DensityIndependentSphOn</text>
</a>
</g>
</g>
<!-- Node69&#45;&gt;Node70 -->
<g id="edge71" class="edge">
<title>Node69&#45;&gt;Node70</title>
<path fill="none" stroke="midnightblue" d="M259.42,-34.75C271.17,-36.05 283.92,-37.47 296.58,-38.87"/>
<polygon fill="midnightblue" stroke="midnightblue" points="296.37,-42.37 306.69,-39.99 297.14,-35.41 296.37,-42.37"/>
</g>
<!-- Node71 -->
<g id="node50" class="node">
<title>Node71</title>
<g id="a_node50"><a xlink:href="petaio_8c.html#a54ed522ccc2f848abe664cfa255a6305" target="_top" xlink:title=" ">
<polygon fill="white" stroke="black" points="337,-0.5 337,-19.5 423,-19.5 423,-0.5 337,-0.5"/>
<text text-anchor="middle" x="380" y="-7.5" font-family="Helvetica,sans-Serif" font-size="10.00">order_by_type</text>
</a>
</g>
</g>
<!-- Node69&#45;&gt;Node71 -->
<g id="edge72" class="edge">
<title>Node69&#45;&gt;Node71</title>
<path fill="none" stroke="midnightblue" d="M259.42,-23.25C280.69,-20.89 305.26,-18.17 326.58,-15.81"/>
<polygon fill="midnightblue" stroke="midnightblue" points="327.2,-19.26 336.75,-14.68 326.43,-12.3 327.2,-19.26"/>
</g>
</g>
</svg>
