<?xml version="1.0" encoding="UTF-8" standalone="no"?>
<!DOCTYPE svg PUBLIC "-//W3C//DTD SVG 1.1//EN"
 "http://www.w3.org/Graphics/SVG/1.1/DTD/svg11.dtd">
<!-- Generated by graphviz version 2.38.0 (20140413.2041)
 -->
<!-- Title: fof_reduce_groups Pages: 1 -->
<svg width="299pt" height="233pt"
 viewBox="0.00 0.00 299.06 233.06" xmlns="http://www.w3.org/2000/svg" xmlns:xlink="http://www.w3.org/1999/xlink">
<g id="graph0" class="graph" transform="scale(1 1) rotate(0) translate(4 229.058)">
<title>fof_reduce_groups</title>
<polygon fill="white" stroke="none" points="-4,4 -4,-229.058 295.058,-229.058 295.058,4 -4,4"/>
<!-- Node909 -->
<g id="node1" class="node"><title>Node909</title>
<polygon fill="#bfbfbf" stroke="black" points="87.5193,-133.539 87.5193,-152.539 184.519,-152.539 184.519,-133.539 87.5193,-133.539"/>
<text text-anchor="middle" x="136.019" y="-140.539" font-family="Helvetica,sans-Serif" font-size="10.00">fof_reduce_groups</text>
</g>
<!-- Node910 -->
<g id="node2" class="node"><title>Node910</title>
<g id="a_node2"><a xlink:href="fof_8c.html#a03e30b1f689d4079b62b1adc5d427230" target="_top" xlink:title="fof_compare_Group_MinID">
<polygon fill="white" stroke="black" points="135.539,-161.092 135.539,-180.092 269.539,-180.092 269.539,-161.092 135.539,-161.092"/>
<text text-anchor="middle" x="202.539" y="-168.092" font-family="Helvetica,sans-Serif" font-size="10.00">fof_compare_Group_MinID</text>
</a>
</g>
</g>
<!-- Node909&#45;&gt;Node910 -->
<g id="edge1" class="edge"><title>Node909&#45;&gt;Node910</title>
<path fill="none" stroke="midnightblue" d="M159.285,-152.675C162.708,-154.093 166.287,-155.576 169.857,-157.055"/>
<polygon fill="midnightblue" stroke="midnightblue" points="168.596,-160.321 179.174,-160.914 171.275,-153.853 168.596,-160.321"/>
</g>
<!-- Node911 -->
<g id="node3" class="node"><title>Node911</title>
<g id="a_node3"><a xlink:href="fof_8c.html#ab7c80be15a87e30fc1755b5c2b61d10e" target="_top" xlink:title="fof_compare_Group_MinIDTask">
<polygon fill="white" stroke="black" points="86.0725,-200.058 86.0725,-219.058 241.073,-219.058 241.073,-200.058 86.0725,-200.058"/>
<text text-anchor="middle" x="163.573" y="-207.058" font-family="Helvetica,sans-Serif" font-size="10.00">fof_compare_Group_MinIDTask</text>
</a>
</g>
</g>
<!-- Node909&#45;&gt;Node911 -->
<g id="edge2" class="edge"><title>Node909&#45;&gt;Node911</title>
<path fill="none" stroke="midnightblue" d="M139.967,-152.569C144.059,-162.448 150.565,-178.156 155.712,-190.58"/>
<polygon fill="midnightblue" stroke="midnightblue" points="152.572,-192.146 159.632,-200.045 159.039,-189.467 152.572,-192.146"/>
</g>
<!-- Node912 -->
<g id="node4" class="node"><title>Node912</title>
<g id="a_node4"><a xlink:href="fof_8c.html#a38736560a30d7ab3ccc673c6bded9681" target="_top" xlink:title="fof_compare_Group_Original\lIndex">
<polygon fill="white" stroke="black" points="38.4661,-194.558 38.4661,-224.558 178.466,-224.558 178.466,-194.558 38.4661,-194.558"/>
<text text-anchor="start" x="46.4661" y="-212.558" font-family="Helvetica,sans-Serif" font-size="10.00">fof_compare_Group_Original</text>
<text text-anchor="middle" x="108.466" y="-201.558" font-family="Helvetica,sans-Serif" font-size="10.00">Index</text>
</a>
</g>
</g>
<!-- Node909&#45;&gt;Node912 -->
<g id="edge3" class="edge"><title>Node909&#45;&gt;Node912</title>
<path fill="none" stroke="midnightblue" d="M132.072,-152.569C128.573,-161.016 123.309,-173.723 118.64,-184.996"/>
<polygon fill="midnightblue" stroke="midnightblue" points="115.342,-183.813 114.749,-194.391 121.809,-186.492 115.342,-183.813"/>
</g>
<!-- Node913 -->
<g id="node5" class="node"><title>Node913</title>
<g id="a_node5"><a xlink:href="fof_8c.html#a5a60f22d94d6bc3edcaeee00b8183bed" target="_top" xlink:title="fof_radix_Group_Original\lTaskMinID">
<polygon fill="white" stroke="black" points="7.5,-155.592 7.5,-185.592 131.5,-185.592 131.5,-155.592 7.5,-155.592"/>
<text text-anchor="start" x="15.5" y="-173.592" font-family="Helvetica,sans-Serif" font-size="10.00">fof_radix_Group_Original</text>
<text text-anchor="middle" x="69.5" y="-162.592" font-family="Helvetica,sans-Serif" font-size="10.00">TaskMinID</text>
</a>
</g>
</g>
<!-- Node909&#45;&gt;Node913 -->
<g id="edge4" class="edge"><title>Node909&#45;&gt;Node913</title>
<path fill="none" stroke="midnightblue" d="M112.754,-152.675C112.614,-152.734 112.473,-152.792 112.332,-152.85"/>
<polygon fill="midnightblue" stroke="midnightblue" points="113.755,-148.472 105.855,-155.533 116.434,-154.94 113.755,-148.472"/>
</g>
<!-- Node914 -->
<g id="node6" class="node"><title>Node914</title>
<g id="a_node6"><a xlink:href="fof_8c.html#a6bfa3c7f8774cd9b58aefbd038252a92" target="_top" xlink:title="fof_radix_Group_TotalCount\lTaskDiffMinID">
<polygon fill="white" stroke="black" points="0,-100.485 0,-130.485 139,-130.485 139,-100.485 0,-100.485"/>
<text text-anchor="start" x="8" y="-118.485" font-family="Helvetica,sans-Serif" font-size="10.00">fof_radix_Group_TotalCount</text>
<text text-anchor="middle" x="69.5" y="-107.485" font-family="Helvetica,sans-Serif" font-size="10.00">TaskDiffMinID</text>
</a>
</g>
</g>
<!-- Node909&#45;&gt;Node914 -->
<g id="edge5" class="edge"><title>Node909&#45;&gt;Node914</title>
<path fill="none" stroke="midnightblue" d="M112.754,-133.402C112.614,-133.344 112.473,-133.285 112.332,-133.227"/>
<polygon fill="midnightblue" stroke="midnightblue" points="116.434,-131.138 105.855,-130.544 113.755,-137.605 116.434,-131.138"/>
</g>
<!-- Node915 -->
<g id="node7" class="node"><title>Node915</title>
<g id="a_node7"><a xlink:href="system_8c.html#a3ceeaa7b959adb85bf1cfc731bc5c7ec" target="_top" xlink:title="MPI_Alltoallv_smart">
<polygon fill="white" stroke="black" points="56.4661,-67.0193 56.4661,-86.0193 160.466,-86.0193 160.466,-67.0193 56.4661,-67.0193"/>
<text text-anchor="middle" x="108.466" y="-74.0193" font-family="Helvetica,sans-Serif" font-size="10.00">MPI_Alltoallv_smart</text>
</a>
</g>
</g>
<!-- Node909&#45;&gt;Node915 -->
<g id="edge6" class="edge"><title>Node909&#45;&gt;Node915</title>
<path fill="none" stroke="midnightblue" d="M132.072,-133.508C127.98,-123.629 121.473,-107.922 116.327,-95.4969"/>
<polygon fill="midnightblue" stroke="midnightblue" points="119.467,-93.9316 112.406,-86.0322 113,-96.6105 119.467,-93.9316"/>
</g>
<!-- Node917 -->
<g id="node9" class="node"><title>Node917</title>
<g id="a_node9"><a xlink:href="openmpsort_8c.html#a8938b38d71dd3b45bfc7cc745c096248" target="_top" xlink:title="qsort_openmp">
<polygon fill="white" stroke="black" points="147.931,-82.627 147.931,-101.627 225.931,-101.627 225.931,-82.627 147.931,-82.627"/>
<text text-anchor="middle" x="186.931" y="-89.627" font-family="Helvetica,sans-Serif" font-size="10.00">qsort_openmp</text>
</a>
</g>
</g>
<!-- Node909&#45;&gt;Node917 -->
<g id="edge8" class="edge"><title>Node909&#45;&gt;Node917</title>
<path fill="none" stroke="midnightblue" d="M145.836,-133.222C152.597,-126.461 161.762,-117.296 169.721,-109.337"/>
<polygon fill="midnightblue" stroke="midnightblue" points="172.549,-111.459 177.145,-101.913 167.599,-106.509 172.549,-111.459"/>
</g>
<!-- Node916 -->
<g id="node8" class="node"><title>Node916</title>
<g id="a_node8"><a xlink:href="system_8c.html#a0233ee60e9c4f0a8dbe43e1c662231c6" target="_top" xlink:title="MPI_Alltoallv_sparse">
<polygon fill="white" stroke="black" points="26.4129,-0.5 26.4129,-19.5 135.413,-19.5 135.413,-0.5 26.4129,-0.5"/>
<text text-anchor="middle" x="80.9129" y="-7.5" font-family="Helvetica,sans-Serif" font-size="10.00">MPI_Alltoallv_sparse</text>
</a>
</g>
</g>
<!-- Node915&#45;&gt;Node916 -->
<g id="edge7" class="edge"><title>Node915&#45;&gt;Node916</title>
<path fill="none" stroke="midnightblue" d="M104.518,-66.9887C100.426,-57.1096 93.9202,-41.4023 88.7737,-28.9776"/>
<polygon fill="midnightblue" stroke="midnightblue" points="91.9138,-27.4123 84.8533,-19.5129 85.4466,-30.0911 91.9138,-27.4123"/>
</g>
<!-- Node918 -->
<g id="node10" class="node"><title>Node918</title>
<g id="a_node10"><a xlink:href="openmpsort_8c.html#a9af28c641be3cee5fdee6ec137e84c9d" target="_top" xlink:title="msort_with_tmp">
<polygon fill="white" stroke="black" points="148.126,-0.5 148.126,-19.5 234.126,-19.5 234.126,-0.5 148.126,-0.5"/>
<text text-anchor="middle" x="191.126" y="-7.5" font-family="Helvetica,sans-Serif" font-size="10.00">msort_with_tmp</text>
</a>
</g>
</g>
<!-- Node917&#45;&gt;Node918 -->
<g id="edge9" class="edge"><title>Node917&#45;&gt;Node918</title>
<path fill="none" stroke="midnightblue" d="M187.429,-82.3834C188.085,-69.541 189.255,-46.6361 190.103,-30.0247"/>
<polygon fill="midnightblue" stroke="midnightblue" points="193.614,-29.8964 190.629,-19.7309 186.623,-29.5393 193.614,-29.8964"/>
</g>
<!-- Node919 -->
<g id="node11" class="node"><title>Node919</title>
<g id="a_node11"><a xlink:href="openmpsort_8c.html#af794f526e2627202b5e7d35506fa3434" target="_top" xlink:title="merge">
<polygon fill="white" stroke="black" points="247.058,-78.4322 247.058,-97.4322 291.058,-97.4322 291.058,-78.4322 247.058,-78.4322"/>
<text text-anchor="middle" x="269.058" y="-85.4322" font-family="Helvetica,sans-Serif" font-size="10.00">merge</text>
</a>
</g>
</g>
<!-- Node917&#45;&gt;Node919 -->
<g id="edge10" class="edge"><title>Node917&#45;&gt;Node919</title>
<path fill="none" stroke="midnightblue" d="M226.07,-90.1279C229.623,-89.9464 233.196,-89.764 236.68,-89.586"/>
<polygon fill="midnightblue" stroke="midnightblue" points="236.957,-93.0765 246.766,-89.0708 236.6,-86.0856 236.957,-93.0765"/>
</g>
</g>
</svg>
