<?xml version="1.0" encoding="UTF-8" standalone="no"?>
<!DOCTYPE svg PUBLIC "-//W3C//DTD SVG 1.1//EN"
 "http://www.w3.org/Graphics/SVG/1.1/DTD/svg11.dtd">
<!-- Generated by graphviz version 2.38.0 (20140413.2041)
 -->
<!-- Title: fof_reduce_group Pages: 1 -->
<svg width="921pt" height="116pt"
 viewBox="0.00 0.00 921.00 116.05" xmlns="http://www.w3.org/2000/svg" xmlns:xlink="http://www.w3.org/1999/xlink">
<g id="graph0" class="graph" transform="scale(1 1) rotate(0) translate(4 112.051)">
<title>fof_reduce_group</title>
<polygon fill="white" stroke="none" points="-4,4 -4,-112.051 917,-112.051 917,4 -4,4"/>
<!-- Node899 -->
<g id="node1" class="node"><title>Node899</title>
<polygon fill="#bfbfbf" stroke="black" points="0,-12.551 0,-31.551 92,-31.551 92,-12.551 0,-12.551"/>
<text text-anchor="middle" x="46" y="-19.551" font-family="Helvetica,sans-Serif" font-size="10.00">fof_reduce_group</text>
</g>
<!-- Node900 -->
<g id="node2" class="node"><title>Node900</title>
<g id="a_node2"><a xlink:href="fof_8c.html#ae4b5e05b1f0225637629759a9e2ba72e" target="_top" xlink:title="fof_compile_catalogue">
<polygon fill="white" stroke="black" points="128,-12.551 128,-31.551 242,-31.551 242,-12.551 128,-12.551"/>
<text text-anchor="middle" x="185" y="-19.551" font-family="Helvetica,sans-Serif" font-size="10.00">fof_compile_catalogue</text>
</a>
</g>
</g>
<!-- Node899&#45;&gt;Node900 -->
<g id="edge1" class="edge"><title>Node899&#45;&gt;Node900</title>
<path fill="none" stroke="midnightblue" d="M102.314,-22.051C110.716,-22.051 119.392,-22.051 127.812,-22.051"/>
<polygon fill="midnightblue" stroke="midnightblue" points="102.239,-18.5511 92.2386,-22.051 102.239,-25.5511 102.239,-18.5511"/>
</g>
<!-- Node901 -->
<g id="node3" class="node"><title>Node901</title>
<g id="a_node3"><a xlink:href="fof_8h.html#a7f10d50a8e07ce0bb67ffdfaf904d7c8" target="_top" xlink:title="fof_fof">
<polygon fill="white" stroke="black" points="302.5,-50.551 302.5,-69.551 346.5,-69.551 346.5,-50.551 302.5,-50.551"/>
<text text-anchor="middle" x="324.5" y="-57.551" font-family="Helvetica,sans-Serif" font-size="10.00">fof_fof</text>
</a>
</g>
</g>
<!-- Node900&#45;&gt;Node901 -->
<g id="edge2" class="edge"><title>Node900&#45;&gt;Node901</title>
<path fill="none" stroke="midnightblue" d="M230.338,-34.3044C254.382,-40.9493 283.005,-48.8595 302.119,-54.1422"/>
<polygon fill="midnightblue" stroke="midnightblue" points="231.268,-30.9303 220.697,-31.64 229.403,-37.6774 231.268,-30.9303"/>
</g>
<!-- Node907 -->
<g id="node9" class="node"><title>Node907</title>
<g id="a_node9"><a xlink:href="fof_8c.html#aa0d13cc94e97083dfd468ed33331eed7" target="_top" xlink:title="fof_periodic_wrap">
<polygon fill="white" stroke="black" points="278,-12.551 278,-31.551 371,-31.551 371,-12.551 278,-12.551"/>
<text text-anchor="middle" x="324.5" y="-19.551" font-family="Helvetica,sans-Serif" font-size="10.00">fof_periodic_wrap</text>
</a>
</g>
</g>
<!-- Node900&#45;&gt;Node907 -->
<g id="edge10" class="edge"><title>Node900&#45;&gt;Node907</title>
<path fill="none" stroke="midnightblue" d="M252.424,-22.051C261.075,-22.051 269.776,-22.051 277.977,-22.051"/>
<polygon fill="midnightblue" stroke="midnightblue" points="252.323,-18.5511 242.323,-22.051 252.323,-25.5511 252.323,-18.5511"/>
</g>
<!-- Node902 -->
<g id="node4" class="node"><title>Node902</title>
<g id="a_node4"><a xlink:href="proto_8h.html#a312b6a02f7cde171412989ea5f9be48f" target="_top" xlink:title="write_checkpoint">
<polygon fill="white" stroke="black" points="429,-50.551 429,-69.551 519,-69.551 519,-50.551 429,-50.551"/>
<text text-anchor="middle" x="474" y="-57.551" font-family="Helvetica,sans-Serif" font-size="10.00">write_checkpoint</text>
</a>
</g>
</g>
<!-- Node901&#45;&gt;Node902 -->
<g id="edge3" class="edge"><title>Node901&#45;&gt;Node902</title>
<path fill="none" stroke="midnightblue" d="M356.89,-60.051C377.822,-60.051 405.641,-60.051 428.801,-60.051"/>
<polygon fill="midnightblue" stroke="midnightblue" points="356.633,-56.5511 346.633,-60.051 356.633,-63.5511 356.633,-56.5511"/>
</g>
<!-- Node904 -->
<g id="node6" class="node"><title>Node904</title>
<g id="a_node6"><a xlink:href="main_8c.html#a3c04138a5bfe5d72780bb7e82a18e627" target="_top" xlink:title="main">
<polygon fill="white" stroke="black" points="643,-88.551 643,-107.551 681,-107.551 681,-88.551 643,-88.551"/>
<text text-anchor="middle" x="662" y="-95.551" font-family="Helvetica,sans-Serif" font-size="10.00">main</text>
</a>
</g>
</g>
<!-- Node901&#45;&gt;Node904 -->
<g id="edge9" class="edge"><title>Node901&#45;&gt;Node904</title>
<path fill="none" stroke="midnightblue" d="M356.629,-68.4984C371.729,-72.29 390.197,-76.4797 407,-79.051 494.642,-92.4627 600.806,-96.521 642.719,-97.6503"/>
<polygon fill="midnightblue" stroke="midnightblue" points="357.331,-65.0651 346.774,-65.9618 355.586,-71.8441 357.331,-65.0651"/>
</g>
<!-- Node903 -->
<g id="node5" class="node"><title>Node903</title>
<g id="a_node5"><a xlink:href="run_8c.html#a05e0ffe612d44e6d7f3a9ae5b9df56a2" target="_top" xlink:title="run">
<polygon fill="white" stroke="black" points="577,-50.551 577,-69.551 607,-69.551 607,-50.551 577,-50.551"/>
<text text-anchor="middle" x="592" y="-57.551" font-family="Helvetica,sans-Serif" font-size="10.00">run</text>
</a>
</g>
</g>
<!-- Node902&#45;&gt;Node903 -->
<g id="edge4" class="edge"><title>Node902&#45;&gt;Node903</title>
<path fill="none" stroke="midnightblue" d="M529.418,-60.051C546.966,-60.051 564.953,-60.051 576.921,-60.051"/>
<polygon fill="midnightblue" stroke="midnightblue" points="529.186,-56.5511 519.186,-60.051 529.186,-63.5511 529.186,-56.5511"/>
</g>
<!-- Node903&#45;&gt;Node904 -->
<g id="edge5" class="edge"><title>Node903&#45;&gt;Node904</title>
<path fill="none" stroke="midnightblue" d="M615.942,-72.8716C624.96,-77.9111 635.143,-83.6013 643.544,-88.2959"/>
<polygon fill="midnightblue" stroke="midnightblue" points="617.526,-69.7476 607.09,-67.9246 614.112,-75.8582 617.526,-69.7476"/>
</g>
<!-- Node905 -->
<g id="node7" class="node"><title>Node905</title>
<g id="a_node7"><a xlink:href="walltime_8h.html#a76d2135b612766d4d665748454b879d6" target="_top" xlink:title="walltime_report">
<polygon fill="white" stroke="black" points="717,-88.551 717,-107.551 800,-107.551 800,-88.551 717,-88.551"/>
<text text-anchor="middle" x="758.5" y="-95.551" font-family="Helvetica,sans-Serif" font-size="10.00">walltime_report</text>
</a>
</g>
</g>
<!-- Node904&#45;&gt;Node905 -->
<g id="edge6" class="edge"><title>Node904&#45;&gt;Node905</title>
<path fill="none" stroke="midnightblue" d="M691.411,-98.051C699.347,-98.051 708.132,-98.051 716.635,-98.051"/>
<polygon fill="midnightblue" stroke="midnightblue" points="691.221,-94.5511 681.221,-98.051 691.221,-101.551 691.221,-94.5511"/>
</g>
<!-- Node906 -->
<g id="node8" class="node"><title>Node906</title>
<g id="a_node8"><a xlink:href="run_8c.html#adc59e9ee1517e4e690694a64ab6a59d2" target="_top" xlink:title="write_cpu_log">
<polygon fill="white" stroke="black" points="836,-69.551 836,-88.551 913,-88.551 913,-69.551 836,-69.551"/>
<text text-anchor="middle" x="874.5" y="-76.551" font-family="Helvetica,sans-Serif" font-size="10.00">write_cpu_log</text>
</a>
</g>
</g>
<!-- Node905&#45;&gt;Node906 -->
<g id="edge7" class="edge"><title>Node905&#45;&gt;Node906</title>
<path fill="none" stroke="midnightblue" d="M810.031,-89.6292C818.684,-88.1869 827.54,-86.7111 835.785,-85.3369"/>
<polygon fill="midnightblue" stroke="midnightblue" points="809.302,-86.2024 800.013,-91.2988 810.452,-93.1071 809.302,-86.2024"/>
</g>
<!-- Node906&#45;&gt;Node903 -->
<g id="edge8" class="edge"><title>Node906&#45;&gt;Node903</title>
<path fill="none" stroke="midnightblue" d="M825.727,-75.815C760.488,-71.396 647.088,-63.7147 607.296,-61.0193"/>
<polygon fill="midnightblue" stroke="midnightblue" points="825.551,-79.3111 835.765,-76.495 826.024,-72.3271 825.551,-79.3111"/>
</g>
<!-- Node908 -->
<g id="node10" class="node"><title>Node908</title>
<g id="a_node10"><a xlink:href="fof_8c.html#a36336d505e8a4fb8e8fdaf9a796e40d4" target="_top" xlink:title="fof_finish_group_properties">
<polygon fill="white" stroke="black" points="407,-12.551 407,-31.551 541,-31.551 541,-12.551 407,-12.551"/>
<text text-anchor="middle" x="474" y="-19.551" font-family="Helvetica,sans-Serif" font-size="10.00">fof_finish_group_properties</text>
</a>
</g>
</g>
<!-- Node907&#45;&gt;Node908 -->
<g id="edge11" class="edge"><title>Node907&#45;&gt;Node908</title>
<path fill="none" stroke="midnightblue" d="M381.613,-15.4756C389.866,-15.3093 398.431,-15.2618 406.863,-15.3331"/>
<polygon fill="midnightblue" stroke="midnightblue" points="381.264,-11.9836 371.361,-15.7497 381.451,-18.9811 381.264,-11.9836"/>
</g>
<!-- Node908&#45;&gt;Node900 -->
<g id="edge12" class="edge"><title>Node908&#45;&gt;Node900</title>
<path fill="none" stroke="midnightblue" d="M421.303,-10.5125C405.268,-7.44942 387.479,-4.57275 371,-3.05101 329.842,0.749671 319.119,1.15067 278,-3.05101 259.828,-4.90785 239.947,-8.77667 223.331,-12.5416"/>
<polygon fill="midnightblue" stroke="midnightblue" points="421.067,-14.0335 431.556,-12.5399 422.425,-7.16649 421.067,-14.0335"/>
</g>
<!-- Node908&#45;&gt;Node907 -->
<g id="edge13" class="edge"><title>Node908&#45;&gt;Node907</title>
<path fill="none" stroke="midnightblue" d="M396.709,-28.7974C388.054,-28.7732 379.446,-28.6248 371.361,-28.3524"/>
<polygon fill="midnightblue" stroke="midnightblue" points="396.873,-32.2971 406.863,-28.7689 396.853,-25.2971 396.873,-32.2971"/>
</g>
</g>
</svg>
