<?xml version="1.0" encoding="UTF-8" standalone="no"?>
<!DOCTYPE svg PUBLIC "-//W3C//DTD SVG 1.1//EN"
 "http://www.w3.org/Graphics/SVG/1.1/DTD/svg11.dtd">
<!-- Generated by graphviz version 2.38.0 (20140413.2041)
 -->
<!-- Title: fof_save_groups Pages: 1 -->
<svg width="595pt" height="47pt"
 viewBox="0.00 0.00 595.00 47.00" xmlns="http://www.w3.org/2000/svg" xmlns:xlink="http://www.w3.org/1999/xlink">
<g id="graph0" class="graph" transform="scale(1 1) rotate(0) translate(4 43)">
<title>fof_save_groups</title>
<polygon fill="white" stroke="none" points="-4,4 -4,-43 591,-43 591,4 -4,4"/>
<!-- Node232 -->
<g id="node1" class="node"><title>Node232</title>
<polygon fill="#bfbfbf" stroke="black" points="0,-0.5 0,-19.5 89,-19.5 89,-0.5 0,-0.5"/>
<text text-anchor="middle" x="44.5" y="-7.5" font-family="Helvetica,sans-Serif" font-size="10.00">fof_save_groups</text>
</g>
<!-- Node233 -->
<g id="node2" class="node"><title>Node233</title>
<g id="a_node2"><a xlink:href="proto_8h.html#a312b6a02f7cde171412989ea5f9be48f" target="_top" xlink:title="write_checkpoint">
<polygon fill="white" stroke="black" points="125,-0.5 125,-19.5 215,-19.5 215,-0.5 125,-0.5"/>
<text text-anchor="middle" x="170" y="-7.5" font-family="Helvetica,sans-Serif" font-size="10.00">write_checkpoint</text>
</a>
</g>
</g>
<!-- Node232&#45;&gt;Node233 -->
<g id="edge1" class="edge"><title>Node232&#45;&gt;Node233</title>
<path fill="none" stroke="midnightblue" d="M99.2277,-10C107.698,-10 116.373,-10 124.6,-10"/>
<polygon fill="midnightblue" stroke="midnightblue" points="99.0415,-6.5001 89.0415,-10 99.0414,-13.5001 99.0415,-6.5001"/>
</g>
<!-- Node234 -->
<g id="node3" class="node"><title>Node234</title>
<g id="a_node3"><a xlink:href="run_8c.html#a05e0ffe612d44e6d7f3a9ae5b9df56a2" target="_top" xlink:title="run">
<polygon fill="white" stroke="black" points="251,-0.5 251,-19.5 281,-19.5 281,-0.5 251,-0.5"/>
<text text-anchor="middle" x="266" y="-7.5" font-family="Helvetica,sans-Serif" font-size="10.00">run</text>
</a>
</g>
</g>
<!-- Node233&#45;&gt;Node234 -->
<g id="edge2" class="edge"><title>Node233&#45;&gt;Node234</title>
<path fill="none" stroke="midnightblue" d="M225.253,-10C234.778,-10 243.896,-10 250.991,-10"/>
<polygon fill="midnightblue" stroke="midnightblue" points="225.248,-6.5001 215.247,-10 225.247,-13.5001 225.248,-6.5001"/>
</g>
<!-- Node235 -->
<g id="node4" class="node"><title>Node235</title>
<g id="a_node4"><a xlink:href="main_8c.html#a3c04138a5bfe5d72780bb7e82a18e627" target="_top" xlink:title="main">
<polygon fill="white" stroke="black" points="317,-19.5 317,-38.5 355,-38.5 355,-19.5 317,-19.5"/>
<text text-anchor="middle" x="336" y="-26.5" font-family="Helvetica,sans-Serif" font-size="10.00">main</text>
</a>
</g>
</g>
<!-- Node234&#45;&gt;Node235 -->
<g id="edge3" class="edge"><title>Node234&#45;&gt;Node235</title>
<path fill="none" stroke="midnightblue" d="M290.853,-16.6647C299.37,-19.0447 308.823,-21.686 316.79,-23.9119"/>
<polygon fill="midnightblue" stroke="midnightblue" points="291.663,-13.257 281.09,-13.9368 289.779,-19.9988 291.663,-13.257"/>
</g>
<!-- Node236 -->
<g id="node5" class="node"><title>Node236</title>
<g id="a_node5"><a xlink:href="walltime_8h.html#a76d2135b612766d4d665748454b879d6" target="_top" xlink:title="walltime_report">
<polygon fill="white" stroke="black" points="391,-19.5 391,-38.5 474,-38.5 474,-19.5 391,-19.5"/>
<text text-anchor="middle" x="432.5" y="-26.5" font-family="Helvetica,sans-Serif" font-size="10.00">walltime_report</text>
</a>
</g>
</g>
<!-- Node235&#45;&gt;Node236 -->
<g id="edge4" class="edge"><title>Node235&#45;&gt;Node236</title>
<path fill="none" stroke="midnightblue" d="M365.411,-29C373.347,-29 382.132,-29 390.635,-29"/>
<polygon fill="midnightblue" stroke="midnightblue" points="365.221,-25.5001 355.221,-29 365.221,-32.5001 365.221,-25.5001"/>
</g>
<!-- Node237 -->
<g id="node6" class="node"><title>Node237</title>
<g id="a_node6"><a xlink:href="run_8c.html#adc59e9ee1517e4e690694a64ab6a59d2" target="_top" xlink:title="write_cpu_log">
<polygon fill="white" stroke="black" points="510,-0.5 510,-19.5 587,-19.5 587,-0.5 510,-0.5"/>
<text text-anchor="middle" x="548.5" y="-7.5" font-family="Helvetica,sans-Serif" font-size="10.00">write_cpu_log</text>
</a>
</g>
</g>
<!-- Node236&#45;&gt;Node237 -->
<g id="edge5" class="edge"><title>Node236&#45;&gt;Node237</title>
<path fill="none" stroke="midnightblue" d="M484.031,-20.5782C492.684,-19.1359 501.54,-17.6601 509.785,-16.2859"/>
<polygon fill="midnightblue" stroke="midnightblue" points="483.302,-17.1514 474.013,-22.2478 484.452,-24.0561 483.302,-17.1514"/>
</g>
<!-- Node237&#45;&gt;Node234 -->
<g id="edge6" class="edge"><title>Node237&#45;&gt;Node234</title>
<path fill="none" stroke="midnightblue" d="M499.727,-10C434.488,-10 321.088,-10 281.296,-10"/>
<polygon fill="midnightblue" stroke="midnightblue" points="499.765,-13.5001 509.765,-10 499.765,-6.5001 499.765,-13.5001"/>
</g>
</g>
</svg>
