<?xml version="1.0" encoding="UTF-8" standalone="no"?>
<!DOCTYPE svg PUBLIC "-//W3C//DTD SVG 1.1//EN"
 "http://www.w3.org/Graphics/SVG/1.1/DTD/svg11.dtd">
<!-- Generated by graphviz version 2.38.0 (20140413.2041)
 -->
<!-- Title: fof_reduce_base_group Pages: 1 -->
<svg width="1282pt" height="104pt"
 viewBox="0.00 0.00 1282.00 104.00" xmlns="http://www.w3.org/2000/svg" xmlns:xlink="http://www.w3.org/1999/xlink">
<g id="graph0" class="graph" transform="scale(1 1) rotate(0) translate(4 100)">
<title>fof_reduce_base_group</title>
<polygon fill="white" stroke="none" points="-4,4 -4,-100 1278,-100 1278,4 -4,4"/>
<!-- Node887 -->
<g id="node1" class="node"><title>Node887</title>
<polygon fill="#bfbfbf" stroke="black" points="0,-47.5 0,-66.5 118,-66.5 118,-47.5 0,-47.5"/>
<text text-anchor="middle" x="59" y="-54.5" font-family="Helvetica,sans-Serif" font-size="10.00">fof_reduce_base_group</text>
</g>
<!-- Node888 -->
<g id="node2" class="node"><title>Node888</title>
<g id="a_node2"><a xlink:href="fof_8c.html#a9f9dcc0e11addb6231e3db442eed2cb9" target="_top" xlink:title="fof_compile_base">
<polygon fill="white" stroke="black" points="154,-47.5 154,-66.5 247,-66.5 247,-47.5 154,-47.5"/>
<text text-anchor="middle" x="200.5" y="-54.5" font-family="Helvetica,sans-Serif" font-size="10.00">fof_compile_base</text>
</a>
</g>
</g>
<!-- Node887&#45;&gt;Node888 -->
<g id="edge1" class="edge"><title>Node887&#45;&gt;Node888</title>
<path fill="none" stroke="midnightblue" d="M128.381,-57C136.96,-57 145.568,-57 153.684,-57"/>
<polygon fill="midnightblue" stroke="midnightblue" points="128.352,-53.5001 118.352,-57 128.352,-60.5001 128.352,-53.5001"/>
</g>
<!-- Node889 -->
<g id="node3" class="node"><title>Node889</title>
<g id="a_node3"><a xlink:href="fof_8h.html#a7f10d50a8e07ce0bb67ffdfaf904d7c8" target="_top" xlink:title="fof_fof">
<polygon fill="white" stroke="black" points="732,-57.5 732,-76.5 776,-76.5 776,-57.5 732,-57.5"/>
<text text-anchor="middle" x="754" y="-64.5" font-family="Helvetica,sans-Serif" font-size="10.00">fof_fof</text>
</a>
</g>
</g>
<!-- Node888&#45;&gt;Node889 -->
<g id="edge2" class="edge"><title>Node888&#45;&gt;Node889</title>
<path fill="none" stroke="midnightblue" d="M257.225,-58.9229C331.359,-61.376 466.513,-65.4827 582,-67 636.027,-67.7098 699.663,-67.4104 731.939,-67.1779"/>
<polygon fill="midnightblue" stroke="midnightblue" points="257.288,-55.4231 247.177,-58.5881 257.055,-62.4193 257.288,-55.4231"/>
</g>
<!-- Node895 -->
<g id="node9" class="node"><title>Node895</title>
<g id="a_node9"><a xlink:href="fof_8c.html#aa0d13cc94e97083dfd468ed33331eed7" target="_top" xlink:title="fof_periodic_wrap">
<polygon fill="white" stroke="black" points="283,-19.5 283,-38.5 376,-38.5 376,-19.5 283,-19.5"/>
<text text-anchor="middle" x="329.5" y="-26.5" font-family="Helvetica,sans-Serif" font-size="10.00">fof_periodic_wrap</text>
</a>
</g>
</g>
<!-- Node888&#45;&gt;Node895 -->
<g id="edge10" class="edge"><title>Node888&#45;&gt;Node895</title>
<path fill="none" stroke="midnightblue" d="M254.858,-45.236C265.024,-42.9948 275.545,-40.675 285.344,-38.5146"/>
<polygon fill="midnightblue" stroke="midnightblue" points="253.863,-41.8713 244.851,-47.4423 255.37,-48.7071 253.863,-41.8713"/>
</g>
<!-- Node890 -->
<g id="node4" class="node"><title>Node890</title>
<g id="a_node4"><a xlink:href="proto_8h.html#a312b6a02f7cde171412989ea5f9be48f" target="_top" xlink:title="write_checkpoint">
<polygon fill="white" stroke="black" points="812,-76.5 812,-95.5 902,-95.5 902,-76.5 812,-76.5"/>
<text text-anchor="middle" x="857" y="-83.5" font-family="Helvetica,sans-Serif" font-size="10.00">write_checkpoint</text>
</a>
</g>
</g>
<!-- Node889&#45;&gt;Node890 -->
<g id="edge3" class="edge"><title>Node889&#45;&gt;Node890</title>
<path fill="none" stroke="midnightblue" d="M786.44,-72.9145C794.455,-74.4223 803.221,-76.0713 811.746,-77.675"/>
<polygon fill="midnightblue" stroke="midnightblue" points="786.894,-69.4386 776.42,-71.0294 785.6,-76.3179 786.894,-69.4386"/>
</g>
<!-- Node892 -->
<g id="node6" class="node"><title>Node892</title>
<g id="a_node6"><a xlink:href="main_8c.html#a3c04138a5bfe5d72780bb7e82a18e627" target="_top" xlink:title="main">
<polygon fill="white" stroke="black" points="1004,-38.5 1004,-57.5 1042,-57.5 1042,-38.5 1004,-38.5"/>
<text text-anchor="middle" x="1023" y="-45.5" font-family="Helvetica,sans-Serif" font-size="10.00">main</text>
</a>
</g>
</g>
<!-- Node889&#45;&gt;Node892 -->
<g id="edge9" class="edge"><title>Node889&#45;&gt;Node892</title>
<path fill="none" stroke="midnightblue" d="M786.497,-64.7586C842.766,-60.7545 958.86,-52.4931 1003.74,-49.2997"/>
<polygon fill="midnightblue" stroke="midnightblue" points="786.125,-61.2762 776.398,-65.4773 786.622,-68.2585 786.125,-61.2762"/>
</g>
<!-- Node891 -->
<g id="node5" class="node"><title>Node891</title>
<g id="a_node5"><a xlink:href="run_8c.html#a05e0ffe612d44e6d7f3a9ae5b9df56a2" target="_top" xlink:title="run">
<polygon fill="white" stroke="black" points="938,-76.5 938,-95.5 968,-95.5 968,-76.5 938,-76.5"/>
<text text-anchor="middle" x="953" y="-83.5" font-family="Helvetica,sans-Serif" font-size="10.00">run</text>
</a>
</g>
</g>
<!-- Node890&#45;&gt;Node891 -->
<g id="edge4" class="edge"><title>Node890&#45;&gt;Node891</title>
<path fill="none" stroke="midnightblue" d="M912.253,-86C921.778,-86 930.896,-86 937.991,-86"/>
<polygon fill="midnightblue" stroke="midnightblue" points="912.248,-82.5001 902.247,-86 912.247,-89.5001 912.248,-82.5001"/>
</g>
<!-- Node891&#45;&gt;Node892 -->
<g id="edge5" class="edge"><title>Node891&#45;&gt;Node892</title>
<path fill="none" stroke="midnightblue" d="M976.942,-73.1794C985.96,-68.14 996.143,-62.4497 1004.54,-57.7551"/>
<polygon fill="midnightblue" stroke="midnightblue" points="975.112,-70.1928 968.09,-78.1264 978.526,-76.3034 975.112,-70.1928"/>
</g>
<!-- Node893 -->
<g id="node7" class="node"><title>Node893</title>
<g id="a_node7"><a xlink:href="walltime_8h.html#a76d2135b612766d4d665748454b879d6" target="_top" xlink:title="walltime_report">
<polygon fill="white" stroke="black" points="1078,-38.5 1078,-57.5 1161,-57.5 1161,-38.5 1078,-38.5"/>
<text text-anchor="middle" x="1119.5" y="-45.5" font-family="Helvetica,sans-Serif" font-size="10.00">walltime_report</text>
</a>
</g>
</g>
<!-- Node892&#45;&gt;Node893 -->
<g id="edge6" class="edge"><title>Node892&#45;&gt;Node893</title>
<path fill="none" stroke="midnightblue" d="M1052.41,-48C1060.35,-48 1069.13,-48 1077.63,-48"/>
<polygon fill="midnightblue" stroke="midnightblue" points="1052.22,-44.5001 1042.22,-48 1052.22,-51.5001 1052.22,-44.5001"/>
</g>
<!-- Node894 -->
<g id="node8" class="node"><title>Node894</title>
<g id="a_node8"><a xlink:href="run_8c.html#adc59e9ee1517e4e690694a64ab6a59d2" target="_top" xlink:title="write_cpu_log">
<polygon fill="white" stroke="black" points="1197,-57.5 1197,-76.5 1274,-76.5 1274,-57.5 1197,-57.5"/>
<text text-anchor="middle" x="1235.5" y="-64.5" font-family="Helvetica,sans-Serif" font-size="10.00">write_cpu_log</text>
</a>
</g>
</g>
<!-- Node893&#45;&gt;Node894 -->
<g id="edge7" class="edge"><title>Node893&#45;&gt;Node894</title>
<path fill="none" stroke="midnightblue" d="M1171.03,-56.4218C1179.68,-57.8641 1188.54,-59.3399 1196.78,-60.7141"/>
<polygon fill="midnightblue" stroke="midnightblue" points="1171.45,-52.9439 1161.01,-54.7522 1170.3,-59.8486 1171.45,-52.9439"/>
</g>
<!-- Node894&#45;&gt;Node891 -->
<g id="edge8" class="edge"><title>Node894&#45;&gt;Node891</title>
<path fill="none" stroke="midnightblue" d="M1186.73,-70.236C1121.49,-74.655 1008.09,-82.3363 968.296,-85.0317"/>
<polygon fill="midnightblue" stroke="midnightblue" points="1187.02,-73.7239 1196.76,-69.556 1186.55,-66.7399 1187.02,-73.7239"/>
</g>
<!-- Node896 -->
<g id="node10" class="node"><title>Node896</title>
<g id="a_node10"><a xlink:href="fof_8c.html#a36336d505e8a4fb8e8fdaf9a796e40d4" target="_top" xlink:title="fof_finish_group_properties">
<polygon fill="white" stroke="black" points="412,-0.5 412,-19.5 546,-19.5 546,-0.5 412,-0.5"/>
<text text-anchor="middle" x="479" y="-7.5" font-family="Helvetica,sans-Serif" font-size="10.00">fof_finish_group_properties</text>
</a>
</g>
</g>
<!-- Node895&#45;&gt;Node896 -->
<g id="edge11" class="edge"><title>Node895&#45;&gt;Node896</title>
<path fill="none" stroke="midnightblue" d="M371.221,-17.6463C383.821,-15.4993 398.043,-13.4643 411.9,-11.797"/>
<polygon fill="midnightblue" stroke="midnightblue" points="370.286,-14.2581 361.062,-19.4705 371.523,-21.148 370.286,-14.2581"/>
</g>
<!-- Node896&#45;&gt;Node895 -->
<g id="edge15" class="edge"><title>Node896&#45;&gt;Node895</title>
<path fill="none" stroke="midnightblue" d="M437.459,-21.323C418.53,-24.5539 395.913,-27.5342 376.361,-29.3938"/>
<polygon fill="midnightblue" stroke="midnightblue" points="438.33,-24.7226 447.553,-19.5078 437.091,-17.8331 438.33,-24.7226"/>
</g>
<!-- Node897 -->
<g id="node11" class="node"><title>Node897</title>
<g id="a_node11"><a xlink:href="fof_8c.html#ae4b5e05b1f0225637629759a9e2ba72e" target="_top" xlink:title="fof_compile_catalogue">
<polygon fill="white" stroke="black" points="582,-38.5 582,-57.5 696,-57.5 696,-38.5 582,-38.5"/>
<text text-anchor="middle" x="639" y="-45.5" font-family="Helvetica,sans-Serif" font-size="10.00">fof_compile_catalogue</text>
</a>
</g>
</g>
<!-- Node896&#45;&gt;Node897 -->
<g id="edge12" class="edge"><title>Node896&#45;&gt;Node897</title>
<path fill="none" stroke="midnightblue" d="M529.762,-21.968C551.903,-27.2931 577.612,-33.4762 598.417,-38.4799"/>
<polygon fill="midnightblue" stroke="midnightblue" points="530.411,-18.5245 519.87,-19.589 528.774,-25.3304 530.411,-18.5245"/>
</g>
<!-- Node897&#45;&gt;Node889 -->
<g id="edge13" class="edge"><title>Node897&#45;&gt;Node889</title>
<path fill="none" stroke="midnightblue" d="M706.277,-59.1439C715.507,-60.6959 724.379,-62.1876 731.865,-63.4463"/>
<polygon fill="midnightblue" stroke="midnightblue" points="706.611,-55.651 696.169,-57.4443 705.45,-62.5541 706.611,-55.651"/>
</g>
<!-- Node897&#45;&gt;Node895 -->
<g id="edge14" class="edge"><title>Node897&#45;&gt;Node895</title>
<path fill="none" stroke="midnightblue" d="M571.523,-43.8925C512.525,-40.2471 427.893,-35.0178 376.204,-31.824"/>
<polygon fill="midnightblue" stroke="midnightblue" points="571.663,-47.4077 581.86,-44.5312 572.095,-40.421 571.663,-47.4077"/>
</g>
</g>
</svg>
