<?xml version="1.0" encoding="UTF-8" standalone="no"?>
<!DOCTYPE svg PUBLIC "-//W3C//DTD SVG 1.1//EN"
 "http://www.w3.org/Graphics/SVG/1.1/DTD/svg11.dtd">
<!-- Generated by graphviz version 2.38.0 (20140413.2041)
 -->
<!-- Title: fof_compare_Group_OriginalIndex Pages: 1 -->
<!--zoomable 576 -->
<svg id="main" version="1.1" xmlns="http://www.w3.org/2000/svg" xmlns:xlink="http://www.w3.org/1999/xlink" xml:space="preserve" onload="init(evt)">
<style type="text/css"><![CDATA[
.edge:hover path { stroke: red; }
.edge:hover polygon { stroke: red; fill: red; }
]]></style>
<script type="text/javascript"><![CDATA[
var edges = document.getElementsByTagName('g');
if (edges && edges.length) {
  for (var i=0;i<edges.length;i++) {
    if (edges[i].id.substr(0,4)=='edge') {
      edges[i].setAttribute('class','edge');
    }
  }
}
]]></script>
        <defs>
                <circle id="rim" cx="0" cy="0" r="7"/>
                <circle id="rim2" cx="0" cy="0" r="3.5"/>
                <g id="zoomPlus">
                        <use xlink:href="#rim" fill="#404040">
                                <set attributeName="fill" to="#808080" begin="zoomplus.mouseover" end="zoomplus.mouseout"/>
                        </use>
                        <path d="M-4,0h8M0,-4v8" fill="none" stroke="white" stroke-width="1.5" pointer-events="none"/>
                </g>
                <g id="zoomMin">
                        <use xlink:href="#rim" fill="#404040">
                                <set attributeName="fill" to="#808080" begin="zoomminus.mouseover" end="zoomminus.mouseout"/>
                        </use>
                        <path d="M-4,0h8" fill="none" stroke="white" stroke-width="1.5" pointer-events="none"/>
                </g>
                <g id="dirArrow">
                        <path fill="none" stroke="white" stroke-width="1.5" d="M0,-3.0v7 M-2.5,-0.5L0,-3.0L2.5,-0.5"/>
                </g>
               <g id="resetDef">
                       <use xlink:href="#rim2" fill="#404040">
                               <set attributeName="fill" to="#808080" begin="reset.mouseover" end="reset.mouseout"/>
                       </use>
               </g>
        </defs>

<script type="text/javascript">
var viewWidth = 593;
var viewHeight = 576;
var sectionId = 'dynsection-8';
</script>
<script xlink:href="svgpan.js"/>
<svg id="graph" class="graph">
<g id="viewport">
<title>fof_compare_Group_OriginalIndex</title>
<polygon fill="white" stroke="none" points="-4,4 -4,-571.809 588.998,-571.809 588.998,4 -4,4"/>
<!-- Node61 -->
<g id="node1" class="node"><title>Node61</title>
<polygon fill="#bfbfbf" stroke="black" points="331.5,-131.952 331.5,-161.952 471.5,-161.952 471.5,-131.952 331.5,-131.952"/>
<text text-anchor="start" x="339.5" y="-149.952" font-family="Helvetica,sans-Serif" font-size="10.00">fof_compare_Group_Original</text>
<text text-anchor="middle" x="401.5" y="-138.952" font-family="Helvetica,sans-Serif" font-size="10.00">Index</text>
</g>
<!-- Node62 -->
<g id="node2" class="node"><title>Node62</title>
<g id="a_node2"><a xlink:href="fof_8c.html#aa0d13cc94e97083dfd468ed33331eed7" target="_top" xlink:title="fof_periodic_wrap">
<polygon fill="white" stroke="black" points="296.751,-179.773 296.751,-198.773 389.751,-198.773 389.751,-179.773 296.751,-179.773"/>
<text text-anchor="middle" x="343.251" y="-186.773" font-family="Helvetica,sans-Serif" font-size="10.00">fof_periodic_wrap</text>
</a>
</g>
</g>
<!-- Node61&#45;&gt;Node62 -->
<g id="edge1" class="edge"><title>Node61&#45;&gt;Node62</title>
<path fill="none" stroke="midnightblue" d="M372.608,-167.943C366.944,-172.059 361.267,-176.183 356.437,-179.693"/>
<polygon fill="midnightblue" stroke="midnightblue" points="374.767,-170.701 380.799,-161.992 370.652,-165.038 374.767,-170.701"/>
</g>
<!-- Node71 -->
<g id="node11" class="node"><title>Node71</title>
<g id="a_node11"><a xlink:href="fof_8c.html#a43f1ce0c3f8262e02cd94d9e670f9ed2" target="_top" xlink:title="fof_reduce_groups">
<polygon fill="white" stroke="black" points="411.249,-95.1316 411.249,-114.132 508.249,-114.132 508.249,-95.1316 411.249,-95.1316"/>
<text text-anchor="middle" x="459.749" y="-102.132" font-family="Helvetica,sans-Serif" font-size="10.00">fof_reduce_groups</text>
</a>
</g>
</g>
<!-- Node61&#45;&gt;Node71 -->
<g id="edge14" class="edge"><title>Node61&#45;&gt;Node71</title>
<path fill="none" stroke="midnightblue" d="M430.392,-125.961C436.056,-121.846 441.733,-117.722 446.563,-114.212"/>
<polygon fill="midnightblue" stroke="midnightblue" points="428.233,-123.203 422.201,-131.912 432.348,-128.866 428.233,-123.203"/>
</g>
<!-- Node63 -->
<g id="node3" class="node"><title>Node63</title>
<g id="a_node3"><a xlink:href="fof_8c.html#a36336d505e8a4fb8e8fdaf9a796e40d4" target="_top" xlink:title="fof_finish_group_properties">
<polygon fill="white" stroke="black" points="450.998,-222.093 450.998,-241.093 584.998,-241.093 584.998,-222.093 450.998,-222.093"/>
<text text-anchor="middle" x="517.998" y="-229.093" font-family="Helvetica,sans-Serif" font-size="10.00">fof_finish_group_properties</text>
</a>
</g>
</g>
<!-- Node62&#45;&gt;Node63 -->
<g id="edge2" class="edge"><title>Node62&#45;&gt;Node63</title>
<path fill="none" stroke="midnightblue" d="M373.016,-201.937C394.359,-208.459 423.97,-216.061 450.872,-222.086"/>
<polygon fill="midnightblue" stroke="midnightblue" points="373.841,-198.526 363.25,-198.833 371.721,-205.197 373.841,-198.526"/>
</g>
<!-- Node63&#45;&gt;Node62 -->
<g id="edge3" class="edge"><title>Node63&#45;&gt;Node62</title>
<path fill="none" stroke="midnightblue" d="M488.371,-218.972C461.439,-210.734 421.261,-200.761 390.001,-194.42"/>
<polygon fill="midnightblue" stroke="midnightblue" points="487.408,-222.338 497.999,-222.033 489.53,-215.667 487.408,-222.338"/>
</g>
<!-- Node64 -->
<g id="node4" class="node"><title>Node64</title>
<g id="a_node4"><a xlink:href="fof_8c.html#ae4b5e05b1f0225637629759a9e2ba72e" target="_top" xlink:title="fof_compile_catalogue">
<polygon fill="white" stroke="black" points="228.002,-222.093 228.002,-241.093 342.002,-241.093 342.002,-222.093 228.002,-222.093"/>
<text text-anchor="middle" x="285.002" y="-229.093" font-family="Helvetica,sans-Serif" font-size="10.00">fof_compile_catalogue</text>
</a>
</g>
</g>
<!-- Node63&#45;&gt;Node64 -->
<g id="edge4" class="edge"><title>Node63&#45;&gt;Node64</title>
<path fill="none" stroke="midnightblue" d="M440.648,-231.593C408.483,-231.593 371.813,-231.593 342.148,-231.593"/>
<polygon fill="midnightblue" stroke="midnightblue" points="440.919,-235.093 450.919,-231.593 440.919,-228.093 440.919,-235.093"/>
</g>
<!-- Node64&#45;&gt;Node62 -->
<g id="edge5" class="edge"><title>Node64&#45;&gt;Node62</title>
<path fill="none" stroke="midnightblue" d="M306.387,-216.056C314.326,-210.287 323.094,-203.918 330.085,-198.838"/>
<polygon fill="midnightblue" stroke="midnightblue" points="304.252,-213.281 298.219,-221.99 308.367,-218.944 304.252,-213.281"/>
</g>
<!-- Node65 -->
<g id="node5" class="node"><title>Node65</title>
<g id="a_node5"><a xlink:href="fof_8h.html#a7f10d50a8e07ce0bb67ffdfaf904d7c8" target="_top" xlink:title="fof_fof">
<polygon fill="white" stroke="black" points="204.752,-264.414 204.752,-283.414 248.752,-283.414 248.752,-264.414 204.752,-264.414"/>
<text text-anchor="middle" x="226.752" y="-271.414" font-family="Helvetica,sans-Serif" font-size="10.00">fof_fof</text>
</a>
</g>
</g>
<!-- Node64&#45;&gt;Node65 -->
<g id="edge6" class="edge"><title>Node64&#45;&gt;Node65</title>
<path fill="none" stroke="midnightblue" d="M263.616,-247.13C255.677,-252.899 246.91,-259.269 239.918,-264.349"/>
<polygon fill="midnightblue" stroke="midnightblue" points="265.751,-249.906 271.784,-241.196 261.636,-244.243 265.751,-249.906"/>
</g>
<!-- Node66 -->
<g id="node6" class="node"><title>Node66</title>
<g id="a_node6"><a xlink:href="proto_8h.html#a312b6a02f7cde171412989ea5f9be48f" target="_top" xlink:title="write_checkpoint">
<polygon fill="white" stroke="black" points="267.503,-411.356 267.503,-430.356 357.503,-430.356 357.503,-411.356 267.503,-411.356"/>
<text text-anchor="middle" x="312.503" y="-418.356" font-family="Helvetica,sans-Serif" font-size="10.00">write_checkpoint</text>
</a>
</g>
</g>
<!-- Node65&#45;&gt;Node66 -->
<g id="edge7" class="edge"><title>Node65&#45;&gt;Node66</title>
<path fill="none" stroke="midnightblue" d="M237.423,-292.199C255.738,-323.584 292.554,-386.671 306.744,-410.987"/>
<polygon fill="midnightblue" stroke="midnightblue" points="240.442,-290.428 232.379,-283.555 234.396,-293.956 240.442,-290.428"/>
</g>
<!-- Node68 -->
<g id="node8" class="node"><title>Node68</title>
<g id="a_node8"><a xlink:href="main_8c.html#a3c04138a5bfe5d72780bb7e82a18e627" target="_top" xlink:title="main">
<polygon fill="white" stroke="black" points="94.5,-137.452 94.5,-156.452 132.5,-156.452 132.5,-137.452 94.5,-137.452"/>
<text text-anchor="middle" x="113.5" y="-144.452" font-family="Helvetica,sans-Serif" font-size="10.00">main</text>
</a>
</g>
</g>
<!-- Node65&#45;&gt;Node68 -->
<g id="edge13" class="edge"><title>Node65&#45;&gt;Node68</title>
<path fill="none" stroke="midnightblue" d="M211.52,-256.837C187.407,-229.806 141.225,-178.034 122.111,-156.606"/>
<polygon fill="midnightblue" stroke="midnightblue" points="208.971,-259.238 218.24,-264.371 214.195,-254.579 208.971,-259.238"/>
</g>
<!-- Node67 -->
<g id="node7" class="node"><title>Node67</title>
<g id="a_node7"><a xlink:href="run_8c.html#a05e0ffe612d44e6d7f3a9ae5b9df56a2" target="_top" xlink:title="run">
<polygon fill="white" stroke="black" points="275.254,-479.832 275.254,-498.832 305.254,-498.832 305.254,-479.832 275.254,-479.832"/>
<text text-anchor="middle" x="290.254" y="-486.832" font-family="Helvetica,sans-Serif" font-size="10.00">run</text>
</a>
</g>
</g>
<!-- Node66&#45;&gt;Node67 -->
<g id="edge8" class="edge"><title>Node66&#45;&gt;Node67</title>
<path fill="none" stroke="midnightblue" d="M306.249,-440.104C302.089,-452.909 296.796,-469.198 293.465,-479.449"/>
<polygon fill="midnightblue" stroke="midnightblue" points="309.648,-440.97 309.409,-430.378 302.991,-438.807 309.648,-440.97"/>
</g>
<!-- Node67&#45;&gt;Node68 -->
<g id="edge9" class="edge"><title>Node67&#45;&gt;Node68</title>
<path fill="none" stroke="midnightblue" d="M280.599,-470.631C247.991,-407.468 142.638,-203.394 118.472,-156.583"/>
<polygon fill="midnightblue" stroke="midnightblue" points="277.645,-472.538 285.342,-479.818 283.865,-469.327 277.645,-472.538"/>
</g>
<!-- Node69 -->
<g id="node9" class="node"><title>Node69</title>
<g id="a_node9"><a xlink:href="walltime_8h.html#a76d2135b612766d4d665748454b879d6" target="_top" xlink:title="walltime_report">
<polygon fill="white" stroke="black" points="-3.55271e-14,-137.452 -3.55271e-14,-156.452 83,-156.452 83,-137.452 -3.55271e-14,-137.452"/>
<text text-anchor="middle" x="41.5" y="-144.452" font-family="Helvetica,sans-Serif" font-size="10.00">walltime_report</text>
</a>
</g>
</g>
<!-- Node68&#45;&gt;Node69 -->
<g id="edge10" class="edge"><title>Node68&#45;&gt;Node69</title>
<path fill="none" stroke="midnightblue" d="M84.162,-146.952C83.8021,-146.952 83.4413,-146.952 83.0797,-146.952"/>
<polygon fill="midnightblue" stroke="midnightblue" points="84.2054,-150.452 94.2053,-146.952 84.2053,-143.452 84.2054,-150.452"/>
</g>
<!-- Node70 -->
<g id="node10" class="node"><title>Node70</title>
<g id="a_node10"><a xlink:href="run_8c.html#adc59e9ee1517e4e690694a64ab6a59d2" target="_top" xlink:title="write_cpu_log">
<polygon fill="white" stroke="black" points="229.505,-548.309 229.505,-567.309 306.505,-567.309 306.505,-548.309 229.505,-548.309"/>
<text text-anchor="middle" x="268.005" y="-555.309" font-family="Helvetica,sans-Serif" font-size="10.00">write_cpu_log</text>
</a>
</g>
</g>
<!-- Node69&#45;&gt;Node70 -->
<g id="edge11" class="edge"><title>Node69&#45;&gt;Node70</title>
<path fill="none" stroke="midnightblue" d="M51.7517,-165.548C91.2745,-237.238 233.019,-494.348 262.579,-547.967"/>
<polygon fill="midnightblue" stroke="midnightblue" points="54.7687,-163.771 46.8756,-156.703 48.6385,-167.15 54.7687,-163.771"/>
</g>
<!-- Node70&#45;&gt;Node67 -->
<g id="edge12" class="edge"><title>Node70&#45;&gt;Node67</title>
<path fill="none" stroke="midnightblue" d="M274.259,-538.56C278.419,-525.756 283.712,-509.467 287.042,-499.216"/>
<polygon fill="midnightblue" stroke="midnightblue" points="270.86,-537.695 271.098,-548.287 277.517,-539.858 270.86,-537.695"/>
</g>
<!-- Node71&#45;&gt;Node62 -->
<g id="edge15" class="edge"><title>Node71&#45;&gt;Node62</title>
<path fill="none" stroke="midnightblue" d="M438.259,-120.245C414.322,-137.636 376.379,-165.203 356.459,-179.677"/>
<polygon fill="midnightblue" stroke="midnightblue" points="440.352,-123.05 446.385,-114.341 436.238,-117.387 440.352,-123.05"/>
</g>
<!-- Node71&#45;&gt;Node64 -->
<g id="edge19" class="edge"><title>Node71&#45;&gt;Node64</title>
<path fill="none" stroke="midnightblue" d="M438.139,-120.332C401.51,-146.945 328.29,-200.142 298.288,-221.94"/>
<polygon fill="midnightblue" stroke="midnightblue" points="440.582,-122.884 446.615,-114.174 436.467,-117.221 440.582,-122.884"/>
</g>
<!-- Node72 -->
<g id="node12" class="node"><title>Node72</title>
<g id="a_node12"><a xlink:href="fof_8c.html#a9f9dcc0e11addb6231e3db442eed2cb9" target="_top" xlink:title="fof_compile_base">
<polygon fill="white" stroke="black" points="310.502,-0.5 310.502,-19.5 403.502,-19.5 403.502,-0.5 310.502,-0.5"/>
<text text-anchor="middle" x="357.002" y="-7.5" font-family="Helvetica,sans-Serif" font-size="10.00">fof_compile_base</text>
</a>
</g>
</g>
<!-- Node71&#45;&gt;Node72 -->
<g id="edge16" class="edge"><title>Node71&#45;&gt;Node72</title>
<path fill="none" stroke="midnightblue" d="M441.613,-87.9279C420.052,-68.0703 384.806,-35.6083 367.4,-19.5767"/>
<polygon fill="midnightblue" stroke="midnightblue" points="439.414,-90.6606 449.14,-94.8608 444.156,-85.5117 439.414,-90.6606"/>
</g>
<!-- Node72&#45;&gt;Node62 -->
<g id="edge17" class="edge"><title>Node72&#45;&gt;Node62</title>
<path fill="none" stroke="midnightblue" d="M355.465,-30.0369C352.515,-68.4869 346.162,-151.316 343.994,-179.587"/>
<polygon fill="midnightblue" stroke="midnightblue" points="358.987,-29.8769 356.262,-19.6385 352.008,-29.3415 358.987,-29.8769"/>
</g>
<!-- Node72&#45;&gt;Node65 -->
<g id="edge18" class="edge"><title>Node72&#45;&gt;Node65</title>
<path fill="none" stroke="midnightblue" d="M347.705,-28.8372C321.974,-80.9729 250.467,-225.862 231.449,-264.398"/>
<polygon fill="midnightblue" stroke="midnightblue" points="350.924,-30.2222 352.211,-19.7058 344.647,-27.1242 350.924,-30.2222"/>
</g>
</g>
</svg>
        <g id="navigator" transform="translate(0 0)" fill="#404254">
                <rect fill="#f2f5e9" fill-opacity="0.5" stroke="#606060" stroke-width=".5" x="0" y="0" width="60" height="60"/>
                <use id="zoomplus" xlink:href="#zoomPlus" x="17" y="9" onmousedown="handleZoom(evt,'in')"/>
                <use id="zoomminus" xlink:href="#zoomMin" x="42" y="9" onmousedown="handleZoom(evt,'out')"/>
                <use id="reset" xlink:href="#resetDef" x="30" y="36" onmousedown="handleReset()"/>
                <g id="arrowUp" xlink:href="#dirArrow" transform="translate(30 24)" onmousedown="handlePan(0,-1)">
                  <use xlink:href="#rim" fill="#404040">
                        <set attributeName="fill" to="#808080" begin="arrowUp.mouseover" end="arrowUp.mouseout"/>
                  </use>
                  <path fill="none" stroke="white" stroke-width="1.5" d="M0,-3.0v7 M-2.5,-0.5L0,-3.0L2.5,-0.5"/>
                </g>
                <g id="arrowRight" xlink:href="#dirArrow" transform="rotate(90) translate(36 -43)" onmousedown="handlePan(1,0)">
                  <use xlink:href="#rim" fill="#404040">
                        <set attributeName="fill" to="#808080" begin="arrowRight.mouseover" end="arrowRight.mouseout"/>
                  </use>
                  <path fill="none" stroke="white" stroke-width="1.5" d="M0,-3.0v7 M-2.5,-0.5L0,-3.0L2.5,-0.5"/>
                </g>
                <g id="arrowDown" xlink:href="#dirArrow" transform="rotate(180) translate(-30 -48)" onmousedown="handlePan(0,1)">
                  <use xlink:href="#rim" fill="#404040">
                        <set attributeName="fill" to="#808080" begin="arrowDown.mouseover" end="arrowDown.mouseout"/>
                  </use>
                  <path fill="none" stroke="white" stroke-width="1.5" d="M0,-3.0v7 M-2.5,-0.5L0,-3.0L2.5,-0.5"/>
                </g>
                <g id="arrowLeft" xlink:href="#dirArrow" transform="rotate(270) translate(-36 17)" onmousedown="handlePan(-1,0)">
                  <use xlink:href="#rim" fill="#404040">
                        <set attributeName="fill" to="#808080" begin="arrowLeft.mouseover" end="arrowLeft.mouseout"/>
                  </use>
                  <path fill="none" stroke="white" stroke-width="1.5" d="M0,-3.0v7 M-2.5,-0.5L0,-3.0L2.5,-0.5"/>
                </g>
        </g>
        <svg viewBox="0 0 15 15" width="100%" height="30px" preserveAspectRatio="xMaxYMin meet">
         <g id="arrow_out" transform="scale(0.3 0.3)">
          <a xlink:href="fof_8c_a38736560a30d7ab3ccc673c6bded9681_icgraph_org.svg" target="_base">
           <rect id="button" ry="5" rx="5" y="6" x="6" height="38" width="38"
                fill="#f2f5e9" fill-opacity="0.5" stroke="#606060" stroke-width="1.0"/>
           <path id="arrow"
             d="M 11.500037,31.436501 C 11.940474,20.09759 22.043105,11.32322 32.158766,21.979434 L 37.068811,17.246167 C 37.068811,17.246167 37.088388,32 37.088388,32 L 22.160133,31.978069 C 22.160133,31.978069 26.997745,27.140456 26.997745,27.140456 C 18.528582,18.264221 13.291696,25.230495 11.500037,31.436501 z"
             style="fill:#404040;"/>
          </a>
         </g>
        </svg>
</svg>
