<?xml version="1.0" encoding="UTF-8" standalone="no"?>
<!DOCTYPE svg PUBLIC "-//W3C//DTD SVG 1.1//EN"
 "http://www.w3.org/Graphics/SVG/1.1/DTD/svg11.dtd">
<!-- Generated by graphviz version 2.38.0 (20140413.2041)
 -->
<!-- Title: fofp_merge Pages: 1 -->
<svg width="745pt" height="640pt"
 viewBox="0.00 0.00 745.04 640.00" xmlns="http://www.w3.org/2000/svg" xmlns:xlink="http://www.w3.org/1999/xlink">
<g id="graph0" class="graph" transform="scale(1 1) rotate(0) translate(4 636)">
<title>fofp_merge</title>
<polygon fill="white" stroke="none" points="-4,4 -4,-636 741.038,-636 741.038,4 -4,4"/>
<!-- Node1169 -->
<g id="node1" class="node"><title>Node1169</title>
<polygon fill="#bfbfbf" stroke="black" points="346.269,-612.5 346.269,-631.5 411.269,-631.5 411.269,-612.5 346.269,-612.5"/>
<text text-anchor="middle" x="378.769" y="-619.5" font-family="Helvetica,sans-Serif" font-size="10.00">fofp_merge</text>
</g>
<!-- Node1170 -->
<g id="node2" class="node"><title>Node1170</title>
<g id="a_node2"><a xlink:href="fof_8c.html#a79ee094597b54a42c693bec87234a960" target="_top" xlink:title="fof_primary_ngbiter">
<polygon fill="white" stroke="black" points="328.769,-540.5 328.769,-559.5 428.769,-559.5 428.769,-540.5 328.769,-540.5"/>
<text text-anchor="middle" x="378.769" y="-547.5" font-family="Helvetica,sans-Serif" font-size="10.00">fof_primary_ngbiter</text>
</a>
</g>
</g>
<!-- Node1169&#45;&gt;Node1170 -->
<g id="edge1" class="edge"><title>Node1169&#45;&gt;Node1170</title>
<path fill="none" stroke="midnightblue" d="M378.769,-602.243C378.769,-588.357 378.769,-570.393 378.769,-559.556"/>
<polygon fill="midnightblue" stroke="midnightblue" points="375.269,-602.29 378.769,-612.29 382.269,-602.29 375.269,-602.29"/>
</g>
<!-- Node1171 -->
<g id="node3" class="node"><title>Node1171</title>
<g id="a_node3"><a xlink:href="fof_8c.html#a77c15fc071e72ec1ea91652d28740ce1" target="_top" xlink:title="fof_label_primary">
<polygon fill="white" stroke="black" points="333.269,-468.5 333.269,-487.5 424.269,-487.5 424.269,-468.5 333.269,-468.5"/>
<text text-anchor="middle" x="378.769" y="-475.5" font-family="Helvetica,sans-Serif" font-size="10.00">fof_label_primary</text>
</a>
</g>
</g>
<!-- Node1170&#45;&gt;Node1171 -->
<g id="edge2" class="edge"><title>Node1170&#45;&gt;Node1171</title>
<path fill="none" stroke="midnightblue" d="M378.769,-530.243C378.769,-516.357 378.769,-498.393 378.769,-487.556"/>
<polygon fill="midnightblue" stroke="midnightblue" points="375.269,-530.29 378.769,-540.29 382.269,-530.29 375.269,-530.29"/>
</g>
<!-- Node1181 -->
<g id="node13" class="node"><title>Node1181</title>
<g id="a_node13"><a xlink:href="fof_8c.html#a1bed49f1026480eb6a53cbcefd3873aa" target="_top" xlink:title="fof_primary_haswork">
<polygon fill="white" stroke="black" points="13.5,-360.5 13.5,-379.5 120.5,-379.5 120.5,-360.5 13.5,-360.5"/>
<text text-anchor="middle" x="67" y="-367.5" font-family="Helvetica,sans-Serif" font-size="10.00">fof_primary_haswork</text>
</a>
</g>
</g>
<!-- Node1170&#45;&gt;Node1181 -->
<g id="edge17" class="edge"><title>Node1170&#45;&gt;Node1181</title>
<path fill="none" stroke="midnightblue" d="M353.255,-535.269C291.38,-499.546 134.673,-409.071 83.4666,-379.507"/>
<polygon fill="midnightblue" stroke="midnightblue" points="351.597,-538.353 362.007,-540.322 355.097,-532.291 351.597,-538.353"/>
</g>
<!-- Node1172 -->
<g id="node4" class="node"><title>Node1172</title>
<g id="a_node4"><a xlink:href="fof_8h.html#a7f10d50a8e07ce0bb67ffdfaf904d7c8" target="_top" xlink:title="fof_fof">
<polygon fill="white" stroke="black" points="248.769,-367.561 248.769,-386.561 292.769,-386.561 292.769,-367.561 248.769,-367.561"/>
<text text-anchor="middle" x="270.769" y="-374.561" font-family="Helvetica,sans-Serif" font-size="10.00">fof_fof</text>
</a>
</g>
</g>
<!-- Node1171&#45;&gt;Node1172 -->
<g id="edge3" class="edge"><title>Node1171&#45;&gt;Node1172</title>
<path fill="none" stroke="midnightblue" d="M361.073,-461.461C338.249,-440.129 299.309,-403.735 280.936,-386.563"/>
<polygon fill="midnightblue" stroke="midnightblue" points="358.718,-464.05 368.414,-468.322 363.498,-458.936 358.718,-464.05"/>
</g>
<!-- Node1178 -->
<g id="node10" class="node"><title>Node1178</title>
<g id="a_node10"><a xlink:href="fof_8c.html#aa0d13cc94e97083dfd468ed33331eed7" target="_top" xlink:title="fof_periodic_wrap">
<polygon fill="white" stroke="black" points="644.038,-360.5 644.038,-379.5 737.038,-379.5 737.038,-360.5 644.038,-360.5"/>
<text text-anchor="middle" x="690.538" y="-367.5" font-family="Helvetica,sans-Serif" font-size="10.00">fof_periodic_wrap</text>
</a>
</g>
</g>
<!-- Node1171&#45;&gt;Node1178 -->
<g id="edge11" class="edge"><title>Node1171&#45;&gt;Node1178</title>
<path fill="none" stroke="midnightblue" d="M416.041,-465.089C479.435,-443.128 606.826,-398.999 662.933,-379.563"/>
<polygon fill="midnightblue" stroke="midnightblue" points="414.74,-461.835 406.437,-468.416 417.031,-468.45 414.74,-461.835"/>
</g>
<!-- Node1173 -->
<g id="node5" class="node"><title>Node1173</title>
<g id="a_node5"><a xlink:href="proto_8h.html#a312b6a02f7cde171412989ea5f9be48f" target="_top" xlink:title="write_checkpoint">
<polygon fill="white" stroke="black" points="333.769,-36.5 333.769,-55.5 423.769,-55.5 423.769,-36.5 333.769,-36.5"/>
<text text-anchor="middle" x="378.769" y="-43.5" font-family="Helvetica,sans-Serif" font-size="10.00">write_checkpoint</text>
</a>
</g>
</g>
<!-- Node1172&#45;&gt;Node1173 -->
<g id="edge4" class="edge"><title>Node1172&#45;&gt;Node1173</title>
<path fill="none" stroke="midnightblue" d="M277.059,-357.781C297.378,-295.496 360.801,-101.08 375.641,-55.5897"/>
<polygon fill="midnightblue" stroke="midnightblue" points="273.659,-356.918 273.885,-367.51 280.314,-359.089 273.659,-356.918"/>
</g>
<!-- Node1175 -->
<g id="node7" class="node"><title>Node1175</title>
<g id="a_node7"><a xlink:href="main_8c.html#a3c04138a5bfe5d72780bb7e82a18e627" target="_top" xlink:title="main">
<polygon fill="white" stroke="black" points="287.769,-305.208 287.769,-324.208 325.769,-324.208 325.769,-305.208 287.769,-305.208"/>
<text text-anchor="middle" x="306.769" y="-312.208" font-family="Helvetica,sans-Serif" font-size="10.00">main</text>
</a>
</g>
</g>
<!-- Node1172&#45;&gt;Node1175 -->
<g id="edge10" class="edge"><title>Node1172&#45;&gt;Node1175</title>
<path fill="none" stroke="midnightblue" d="M281.548,-358.392C287.96,-347.286 295.838,-333.642 301.065,-324.588"/>
<polygon fill="midnightblue" stroke="midnightblue" points="278.363,-356.908 276.394,-367.319 284.425,-360.408 278.363,-356.908"/>
</g>
<!-- Node1174 -->
<g id="node6" class="node"><title>Node1174</title>
<g id="a_node6"><a xlink:href="run_8c.html#a05e0ffe612d44e6d7f3a9ae5b9df56a2" target="_top" xlink:title="run">
<polygon fill="white" stroke="black" points="301.415,-216.5 301.415,-235.5 331.415,-235.5 331.415,-216.5 301.415,-216.5"/>
<text text-anchor="middle" x="316.415" y="-223.5" font-family="Helvetica,sans-Serif" font-size="10.00">run</text>
</a>
</g>
</g>
<!-- Node1173&#45;&gt;Node1174 -->
<g id="edge5" class="edge"><title>Node1173&#45;&gt;Node1174</title>
<path fill="none" stroke="midnightblue" d="M372.142,-65.1298C358.925,-103.286 329.702,-187.644 319.784,-216.275"/>
<polygon fill="midnightblue" stroke="midnightblue" points="375.451,-66.2724 375.417,-55.6776 368.836,-63.981 375.451,-66.2724"/>
</g>
<!-- Node1174&#45;&gt;Node1175 -->
<g id="edge6" class="edge"><title>Node1174&#45;&gt;Node1175</title>
<path fill="none" stroke="midnightblue" d="M314.26,-245.822C312.254,-264.268 309.35,-290.971 307.814,-305.101"/>
<polygon fill="midnightblue" stroke="midnightblue" points="317.745,-246.152 315.346,-235.832 310.786,-245.395 317.745,-246.152"/>
</g>
<!-- Node1176 -->
<g id="node8" class="node"><title>Node1176</title>
<g id="a_node8"><a xlink:href="walltime_8h.html#a76d2135b612766d4d665748454b879d6" target="_top" xlink:title="walltime_report">
<polygon fill="white" stroke="black" points="399.623,-144.5 399.623,-163.5 482.623,-163.5 482.623,-144.5 399.623,-144.5"/>
<text text-anchor="middle" x="441.123" y="-151.5" font-family="Helvetica,sans-Serif" font-size="10.00">walltime_report</text>
</a>
</g>
</g>
<!-- Node1175&#45;&gt;Node1176 -->
<g id="edge7" class="edge"><title>Node1175&#45;&gt;Node1176</title>
<path fill="none" stroke="midnightblue" d="M321.526,-297.056C349.845,-263.182 410.957,-190.083 432.993,-163.725"/>
<polygon fill="midnightblue" stroke="midnightblue" points="318.5,-295.219 314.771,-305.136 323.87,-299.709 318.5,-295.219"/>
</g>
<!-- Node1177 -->
<g id="node9" class="node"><title>Node1177</title>
<g id="a_node9"><a xlink:href="run_8c.html#adc59e9ee1517e4e690694a64ab6a59d2" target="_top" xlink:title="write_cpu_log">
<polygon fill="white" stroke="black" points="340.269,-180.5 340.269,-199.5 417.269,-199.5 417.269,-180.5 340.269,-180.5"/>
<text text-anchor="middle" x="378.769" y="-187.5" font-family="Helvetica,sans-Serif" font-size="10.00">write_cpu_log</text>
</a>
</g>
</g>
<!-- Node1176&#45;&gt;Node1177 -->
<g id="edge8" class="edge"><title>Node1176&#45;&gt;Node1177</title>
<path fill="none" stroke="midnightblue" d="M415.552,-168.763C408.798,-172.663 401.68,-176.772 395.525,-180.326"/>
<polygon fill="midnightblue" stroke="midnightblue" points="417.503,-171.678 424.413,-163.647 414.003,-165.616 417.503,-171.678"/>
</g>
<!-- Node1177&#45;&gt;Node1174 -->
<g id="edge9" class="edge"><title>Node1177&#45;&gt;Node1174</title>
<path fill="none" stroke="midnightblue" d="M353.094,-204.823C345.737,-209.071 337.957,-213.563 331.465,-217.311"/>
<polygon fill="midnightblue" stroke="midnightblue" points="355.149,-207.678 362.059,-199.647 351.649,-201.616 355.149,-207.678"/>
</g>
<!-- Node1179 -->
<g id="node11" class="node"><title>Node1179</title>
<g id="a_node11"><a xlink:href="fof_8c.html#a36336d505e8a4fb8e8fdaf9a796e40d4" target="_top" xlink:title="fof_finish_group_properties">
<polygon fill="white" stroke="black" points="-1.42109e-14,-0.5 -1.42109e-14,-19.5 134,-19.5 134,-0.5 -1.42109e-14,-0.5"/>
<text text-anchor="middle" x="67" y="-7.5" font-family="Helvetica,sans-Serif" font-size="10.00">fof_finish_group_properties</text>
</a>
</g>
</g>
<!-- Node1178&#45;&gt;Node1179 -->
<g id="edge12" class="edge"><title>Node1178&#45;&gt;Node1179</title>
<path fill="none" stroke="midnightblue" d="M669.865,-354.944C575.408,-294.145 185.692,-69.1751 88.8408,-19.5871"/>
<polygon fill="midnightblue" stroke="midnightblue" points="668.013,-357.914 678.298,-360.459 671.845,-352.056 668.013,-357.914"/>
</g>
<!-- Node1179&#45;&gt;Node1178 -->
<g id="edge16" class="edge"><title>Node1179&#45;&gt;Node1178</title>
<path fill="none" stroke="midnightblue" d="M87.6728,-25.0564C182.13,-85.8549 571.846,-310.825 668.697,-360.413"/>
<polygon fill="midnightblue" stroke="midnightblue" points="89.5253,-22.0859 79.2406,-19.5413 85.6938,-27.9441 89.5253,-22.0859"/>
</g>
<!-- Node1180 -->
<g id="node12" class="node"><title>Node1180</title>
<g id="a_node12"><a xlink:href="fof_8c.html#ae4b5e05b1f0225637629759a9e2ba72e" target="_top" xlink:title="fof_compile_catalogue">
<polygon fill="white" stroke="black" points="72.3538,-36.5 72.3538,-55.5 186.354,-55.5 186.354,-36.5 72.3538,-36.5"/>
<text text-anchor="middle" x="129.354" y="-43.5" font-family="Helvetica,sans-Serif" font-size="10.00">fof_compile_catalogue</text>
</a>
</g>
</g>
<!-- Node1179&#45;&gt;Node1180 -->
<g id="edge13" class="edge"><title>Node1179&#45;&gt;Node1180</title>
<path fill="none" stroke="midnightblue" d="M92.5708,-24.7633C99.3252,-28.6629 106.443,-32.7722 112.598,-36.326"/>
<polygon fill="midnightblue" stroke="midnightblue" points="94.12,-21.6163 83.7097,-19.6473 90.6199,-27.6785 94.12,-21.6163"/>
</g>
<!-- Node1180&#45;&gt;Node1172 -->
<g id="edge14" class="edge"><title>Node1180&#45;&gt;Node1172</title>
<path fill="none" stroke="midnightblue" d="M137.425,-64.8951C163.851,-126.76 247.201,-321.887 266.673,-367.472"/>
<polygon fill="midnightblue" stroke="midnightblue" points="140.581,-63.3723 133.434,-55.551 134.143,-66.122 140.581,-63.3723"/>
</g>
<!-- Node1180&#45;&gt;Node1178 -->
<g id="edge15" class="edge"><title>Node1180&#45;&gt;Node1178</title>
<path fill="none" stroke="midnightblue" d="M154.642,-60.6003C251.117,-116.3 594.586,-314.602 674.046,-360.478"/>
<polygon fill="midnightblue" stroke="midnightblue" points="156.255,-57.4902 145.845,-55.5212 152.755,-63.5524 156.255,-57.4902"/>
</g>
<!-- Node1181&#45;&gt;Node1171 -->
<g id="edge18" class="edge"><title>Node1181&#45;&gt;Node1171</title>
<path fill="none" stroke="midnightblue" d="M104.272,-382.911C167.665,-404.872 295.057,-449.001 351.164,-468.437"/>
<polygon fill="midnightblue" stroke="midnightblue" points="105.262,-379.55 94.6674,-379.584 102.971,-386.165 105.262,-379.55"/>
</g>
</g>
</svg>
