<?xml version="1.0" encoding="UTF-8" standalone="no"?>
<!DOCTYPE svg PUBLIC "-//W3C//DTD SVG 1.1//EN"
 "http://www.w3.org/Graphics/SVG/1.1/DTD/svg11.dtd">
<!-- Generated by graphviz version 2.38.0 (20140413.2041)
 -->
<!-- Title: fof_fof Pages: 1 -->
<svg width="431pt" height="104pt"
 viewBox="0.00 0.00 431.00 104.00" xmlns="http://www.w3.org/2000/svg" xmlns:xlink="http://www.w3.org/1999/xlink">
<g id="graph0" class="graph" transform="scale(1 1) rotate(0) translate(4 100)">
<title>fof_fof</title>
<polygon fill="white" stroke="none" points="-4,4 -4,-100 427,-100 427,4 -4,4"/>
<!-- Node509 -->
<g id="node1" class="node"><title>Node509</title>
<polygon fill="#bfbfbf" stroke="black" points="0,-19.5 0,-38.5 44,-38.5 44,-19.5 0,-19.5"/>
<text text-anchor="middle" x="22" y="-26.5" font-family="Helvetica,sans-Serif" font-size="10.00">fof_fof</text>
</g>
<!-- Node510 -->
<g id="node2" class="node"><title>Node510</title>
<g id="a_node2"><a xlink:href="main_8c.html#a3c04138a5bfe5d72780bb7e82a18e627" target="_top" xlink:title="main">
<polygon fill="white" stroke="black" points="80,-38.5 80,-57.5 118,-57.5 118,-38.5 80,-38.5"/>
<text text-anchor="middle" x="99" y="-45.5" font-family="Helvetica,sans-Serif" font-size="10.00">main</text>
</a>
</g>
</g>
<!-- Node509&#45;&gt;Node510 -->
<g id="edge1" class="edge"><title>Node509&#45;&gt;Node510</title>
<path fill="none" stroke="midnightblue" d="M54.2457,-36.9156C63.0103,-39.1359 72.2439,-41.4751 79.9581,-43.4294"/>
<polygon fill="midnightblue" stroke="midnightblue" points="54.8447,-33.4568 44.2914,-34.3938 53.1256,-40.2425 54.8447,-33.4568"/>
</g>
<!-- Node514 -->
<g id="node6" class="node"><title>Node514</title>
<g id="a_node6"><a xlink:href="proto_8h.html#a312b6a02f7cde171412989ea5f9be48f" target="_top" xlink:title="write_checkpoint">
<polygon fill="white" stroke="black" points="154,-0.5 154,-19.5 244,-19.5 244,-0.5 154,-0.5"/>
<text text-anchor="middle" x="199" y="-7.5" font-family="Helvetica,sans-Serif" font-size="10.00">write_checkpoint</text>
</a>
</g>
</g>
<!-- Node509&#45;&gt;Node514 -->
<g id="edge6" class="edge"><title>Node509&#45;&gt;Node514</title>
<path fill="none" stroke="midnightblue" d="M54.3912,-25.5918C82.062,-22.5876 122.68,-18.1776 153.664,-14.8136"/>
<polygon fill="midnightblue" stroke="midnightblue" points="53.6729,-22.1491 44.1091,-26.7082 54.4285,-29.1083 53.6729,-22.1491"/>
</g>
<!-- Node511 -->
<g id="node3" class="node"><title>Node511</title>
<g id="a_node3"><a xlink:href="walltime_8h.html#a76d2135b612766d4d665748454b879d6" target="_top" xlink:title="walltime_report">
<polygon fill="white" stroke="black" points="157.5,-76.5 157.5,-95.5 240.5,-95.5 240.5,-76.5 157.5,-76.5"/>
<text text-anchor="middle" x="199" y="-83.5" font-family="Helvetica,sans-Serif" font-size="10.00">walltime_report</text>
</a>
</g>
</g>
<!-- Node510&#45;&gt;Node511 -->
<g id="edge2" class="edge"><title>Node510&#45;&gt;Node511</title>
<path fill="none" stroke="midnightblue" d="M127.805,-58.7815C142.15,-64.3439 159.497,-71.0703 173.357,-76.4447"/>
<polygon fill="midnightblue" stroke="midnightblue" points="129.022,-55.4996 118.433,-55.1475 126.491,-62.0261 129.022,-55.4996"/>
</g>
<!-- Node512 -->
<g id="node4" class="node"><title>Node512</title>
<g id="a_node4"><a xlink:href="run_8c.html#adc59e9ee1517e4e690694a64ab6a59d2" target="_top" xlink:title="write_cpu_log">
<polygon fill="white" stroke="black" points="280,-76.5 280,-95.5 357,-95.5 357,-76.5 280,-76.5"/>
<text text-anchor="middle" x="318.5" y="-83.5" font-family="Helvetica,sans-Serif" font-size="10.00">write_cpu_log</text>
</a>
</g>
</g>
<!-- Node511&#45;&gt;Node512 -->
<g id="edge3" class="edge"><title>Node511&#45;&gt;Node512</title>
<path fill="none" stroke="midnightblue" d="M250.811,-86C260.599,-86 270.686,-86 279.959,-86"/>
<polygon fill="midnightblue" stroke="midnightblue" points="250.766,-82.5001 240.766,-86 250.766,-89.5001 250.766,-82.5001"/>
</g>
<!-- Node513 -->
<g id="node5" class="node"><title>Node513</title>
<g id="a_node5"><a xlink:href="run_8c.html#a05e0ffe612d44e6d7f3a9ae5b9df56a2" target="_top" xlink:title="run">
<polygon fill="white" stroke="black" points="393,-38.5 393,-57.5 423,-57.5 423,-38.5 393,-38.5"/>
<text text-anchor="middle" x="408" y="-45.5" font-family="Helvetica,sans-Serif" font-size="10.00">run</text>
</a>
</g>
</g>
<!-- Node512&#45;&gt;Node513 -->
<g id="edge4" class="edge"><title>Node512&#45;&gt;Node513</title>
<path fill="none" stroke="midnightblue" d="M351.104,-72.2746C365.418,-66.0585 381.615,-59.0243 392.875,-54.1344"/>
<polygon fill="midnightblue" stroke="midnightblue" points="349.358,-69.2172 341.58,-76.411 352.147,-75.6378 349.358,-69.2172"/>
</g>
<!-- Node513&#45;&gt;Node510 -->
<g id="edge5" class="edge"><title>Node513&#45;&gt;Node510</title>
<path fill="none" stroke="midnightblue" d="M382.5,-48C322.811,-48 170.916,-48 118.285,-48"/>
<polygon fill="midnightblue" stroke="midnightblue" points="382.84,-51.5001 392.84,-48 382.84,-44.5001 382.84,-51.5001"/>
</g>
<!-- Node514&#45;&gt;Node513 -->
<g id="edge7" class="edge"><title>Node514&#45;&gt;Node513</title>
<path fill="none" stroke="midnightblue" d="M254.224,-16.6381C284.608,-20.7699 323.097,-26.6904 357,-34 369.16,-36.6218 382.74,-40.4852 392.675,-43.4898"/>
<polygon fill="midnightblue" stroke="midnightblue" points="254.625,-13.1606 244.249,-15.306 253.698,-20.099 254.625,-13.1606"/>
</g>
</g>
</svg>
