<?xml version="1.0" encoding="UTF-8" standalone="no"?>
<!DOCTYPE svg PUBLIC "-//W3C//DTD SVG 1.1//EN"
 "http://www.w3.org/Graphics/SVG/1.1/DTD/svg11.dtd">
<!-- Generated by graphviz version 2.38.0 (20140413.2041)
 -->
<!-- Title: fof_compare_Group_MinIDTask Pages: 1 -->
<svg width="1452pt" height="152pt"
 viewBox="0.00 0.00 1452.00 152.00" xmlns="http://www.w3.org/2000/svg" xmlns:xlink="http://www.w3.org/1999/xlink">
<g id="graph0" class="graph" transform="scale(1 1) rotate(0) translate(4 148)">
<title>fof_compare_Group_MinIDTask</title>
<polygon fill="white" stroke="none" points="-4,4 -4,-148 1448,-148 1448,4 -4,4"/>
<!-- Node48 -->
<g id="node1" class="node"><title>Node48</title>
<polygon fill="#bfbfbf" stroke="black" points="0,-124.5 0,-143.5 155,-143.5 155,-124.5 0,-124.5"/>
<text text-anchor="middle" x="77.5" y="-131.5" font-family="Helvetica,sans-Serif" font-size="10.00">fof_compare_Group_MinIDTask</text>
</g>
<!-- Node49 -->
<g id="node2" class="node"><title>Node49</title>
<g id="a_node2"><a xlink:href="fof_8c.html#aa0d13cc94e97083dfd468ed33331eed7" target="_top" xlink:title="fof_periodic_wrap">
<polygon fill="white" stroke="black" points="453,-48.5 453,-67.5 546,-67.5 546,-48.5 453,-48.5"/>
<text text-anchor="middle" x="499.5" y="-55.5" font-family="Helvetica,sans-Serif" font-size="10.00">fof_periodic_wrap</text>
</a>
</g>
</g>
<!-- Node48&#45;&gt;Node49 -->
<g id="edge1" class="edge"><title>Node48&#45;&gt;Node49</title>
<path fill="none" stroke="midnightblue" d="M165.155,-130.061C234.445,-125.175 333.47,-114.272 417,-90 438.02,-83.8922 461.18,-74.5307 477.421,-67.5084"/>
<polygon fill="midnightblue" stroke="midnightblue" points="164.893,-126.57 155.152,-130.739 165.366,-133.554 164.893,-126.57"/>
</g>
<!-- Node58 -->
<g id="node11" class="node"><title>Node58</title>
<g id="a_node11"><a xlink:href="fof_8c.html#a43f1ce0c3f8262e02cd94d9e670f9ed2" target="_top" xlink:title="fof_reduce_groups">
<polygon fill="white" stroke="black" points="191,-86.5 191,-105.5 288,-105.5 288,-86.5 191,-86.5"/>
<text text-anchor="middle" x="239.5" y="-93.5" font-family="Helvetica,sans-Serif" font-size="10.00">fof_reduce_groups</text>
</a>
</g>
</g>
<!-- Node48&#45;&gt;Node58 -->
<g id="edge14" class="edge"><title>Node48&#45;&gt;Node58</title>
<path fill="none" stroke="midnightblue" d="M128.892,-122.032C151.313,-116.707 177.347,-110.524 198.416,-105.52"/>
<polygon fill="midnightblue" stroke="midnightblue" points="127.795,-118.695 118.875,-124.411 129.413,-125.505 127.795,-118.695"/>
</g>
<!-- Node50 -->
<g id="node3" class="node"><title>Node50</title>
<g id="a_node3"><a xlink:href="fof_8c.html#a36336d505e8a4fb8e8fdaf9a796e40d4" target="_top" xlink:title="fof_finish_group_properties">
<polygon fill="white" stroke="black" points="582,-29.5 582,-48.5 716,-48.5 716,-29.5 582,-29.5"/>
<text text-anchor="middle" x="649" y="-36.5" font-family="Helvetica,sans-Serif" font-size="10.00">fof_finish_group_properties</text>
</a>
</g>
</g>
<!-- Node49&#45;&gt;Node50 -->
<g id="edge2" class="edge"><title>Node49&#45;&gt;Node50</title>
<path fill="none" stroke="midnightblue" d="M541.221,-46.6463C553.821,-44.4993 568.043,-42.4643 581.9,-40.797"/>
<polygon fill="midnightblue" stroke="midnightblue" points="540.286,-43.2581 531.062,-48.4705 541.523,-50.148 540.286,-43.2581"/>
</g>
<!-- Node50&#45;&gt;Node49 -->
<g id="edge3" class="edge"><title>Node50&#45;&gt;Node49</title>
<path fill="none" stroke="midnightblue" d="M607.459,-50.323C588.53,-53.5539 565.913,-56.5342 546.361,-58.3938"/>
<polygon fill="midnightblue" stroke="midnightblue" points="608.33,-53.7226 617.553,-48.5078 607.091,-46.8331 608.33,-53.7226"/>
</g>
<!-- Node51 -->
<g id="node4" class="node"><title>Node51</title>
<g id="a_node4"><a xlink:href="fof_8c.html#ae4b5e05b1f0225637629759a9e2ba72e" target="_top" xlink:title="fof_compile_catalogue">
<polygon fill="white" stroke="black" points="752,-48.5 752,-67.5 866,-67.5 866,-48.5 752,-48.5"/>
<text text-anchor="middle" x="809" y="-55.5" font-family="Helvetica,sans-Serif" font-size="10.00">fof_compile_catalogue</text>
</a>
</g>
</g>
<!-- Node50&#45;&gt;Node51 -->
<g id="edge4" class="edge"><title>Node50&#45;&gt;Node51</title>
<path fill="none" stroke="midnightblue" d="M726.15,-48.1572C734.757,-49.1923 743.409,-50.2327 751.697,-51.2294"/>
<polygon fill="midnightblue" stroke="midnightblue" points="726.437,-44.6667 716.091,-46.9476 725.601,-51.6166 726.437,-44.6667"/>
</g>
<!-- Node51&#45;&gt;Node49 -->
<g id="edge5" class="edge"><title>Node51&#45;&gt;Node49</title>
<path fill="none" stroke="midnightblue" d="M741.523,-58C682.525,-58 597.893,-58 546.204,-58"/>
<polygon fill="midnightblue" stroke="midnightblue" points="741.86,-61.5001 751.86,-58 741.86,-54.5001 741.86,-61.5001"/>
</g>
<!-- Node52 -->
<g id="node5" class="node"><title>Node52</title>
<g id="a_node5"><a xlink:href="fof_8h.html#a7f10d50a8e07ce0bb67ffdfaf904d7c8" target="_top" xlink:title="fof_fof">
<polygon fill="white" stroke="black" points="902,-19.5 902,-38.5 946,-38.5 946,-19.5 902,-19.5"/>
<text text-anchor="middle" x="924" y="-26.5" font-family="Helvetica,sans-Serif" font-size="10.00">fof_fof</text>
</a>
</g>
</g>
<!-- Node51&#45;&gt;Node52 -->
<g id="edge6" class="edge"><title>Node51&#45;&gt;Node52</title>
<path fill="none" stroke="midnightblue" d="M857.325,-45.8547C872.845,-41.8718 889.313,-37.6453 901.877,-34.4209"/>
<polygon fill="midnightblue" stroke="midnightblue" points="856.13,-42.5479 847.314,-48.4239 857.87,-49.3282 856.13,-42.5479"/>
</g>
<!-- Node53 -->
<g id="node6" class="node"><title>Node53</title>
<g id="a_node6"><a xlink:href="proto_8h.html#a312b6a02f7cde171412989ea5f9be48f" target="_top" xlink:title="write_checkpoint">
<polygon fill="white" stroke="black" points="982,-0.5 982,-19.5 1072,-19.5 1072,-0.5 982,-0.5"/>
<text text-anchor="middle" x="1027" y="-7.5" font-family="Helvetica,sans-Serif" font-size="10.00">write_checkpoint</text>
</a>
</g>
</g>
<!-- Node52&#45;&gt;Node53 -->
<g id="edge7" class="edge"><title>Node52&#45;&gt;Node53</title>
<path fill="none" stroke="midnightblue" d="M956.44,-23.0855C964.455,-21.5777 973.221,-19.9287 981.746,-18.325"/>
<polygon fill="midnightblue" stroke="midnightblue" points="955.6,-19.6821 946.42,-24.9706 956.894,-26.5614 955.6,-19.6821"/>
</g>
<!-- Node55 -->
<g id="node8" class="node"><title>Node55</title>
<g id="a_node8"><a xlink:href="main_8c.html#a3c04138a5bfe5d72780bb7e82a18e627" target="_top" xlink:title="main">
<polygon fill="white" stroke="black" points="1174,-38.5 1174,-57.5 1212,-57.5 1212,-38.5 1174,-38.5"/>
<text text-anchor="middle" x="1193" y="-45.5" font-family="Helvetica,sans-Serif" font-size="10.00">main</text>
</a>
</g>
</g>
<!-- Node52&#45;&gt;Node55 -->
<g id="edge13" class="edge"><title>Node52&#45;&gt;Node55</title>
<path fill="none" stroke="midnightblue" d="M956.497,-31.2414C1012.77,-35.2455 1128.86,-43.5069 1173.74,-46.7003"/>
<polygon fill="midnightblue" stroke="midnightblue" points="956.622,-27.7415 946.398,-30.5227 956.125,-34.7238 956.622,-27.7415"/>
</g>
<!-- Node54 -->
<g id="node7" class="node"><title>Node54</title>
<g id="a_node7"><a xlink:href="run_8c.html#a05e0ffe612d44e6d7f3a9ae5b9df56a2" target="_top" xlink:title="run">
<polygon fill="white" stroke="black" points="1108,-0.5 1108,-19.5 1138,-19.5 1138,-0.5 1108,-0.5"/>
<text text-anchor="middle" x="1123" y="-7.5" font-family="Helvetica,sans-Serif" font-size="10.00">run</text>
</a>
</g>
</g>
<!-- Node53&#45;&gt;Node54 -->
<g id="edge8" class="edge"><title>Node53&#45;&gt;Node54</title>
<path fill="none" stroke="midnightblue" d="M1082.25,-10C1091.78,-10 1100.9,-10 1107.99,-10"/>
<polygon fill="midnightblue" stroke="midnightblue" points="1082.25,-6.5001 1072.25,-10 1082.25,-13.5001 1082.25,-6.5001"/>
</g>
<!-- Node54&#45;&gt;Node55 -->
<g id="edge9" class="edge"><title>Node54&#45;&gt;Node55</title>
<path fill="none" stroke="midnightblue" d="M1146.94,-22.8206C1155.96,-27.86 1166.14,-33.5503 1174.54,-38.2449"/>
<polygon fill="midnightblue" stroke="midnightblue" points="1148.53,-19.6966 1138.09,-17.8736 1145.11,-25.8072 1148.53,-19.6966"/>
</g>
<!-- Node56 -->
<g id="node9" class="node"><title>Node56</title>
<g id="a_node9"><a xlink:href="walltime_8h.html#a76d2135b612766d4d665748454b879d6" target="_top" xlink:title="walltime_report">
<polygon fill="white" stroke="black" points="1248,-38.5 1248,-57.5 1331,-57.5 1331,-38.5 1248,-38.5"/>
<text text-anchor="middle" x="1289.5" y="-45.5" font-family="Helvetica,sans-Serif" font-size="10.00">walltime_report</text>
</a>
</g>
</g>
<!-- Node55&#45;&gt;Node56 -->
<g id="edge10" class="edge"><title>Node55&#45;&gt;Node56</title>
<path fill="none" stroke="midnightblue" d="M1222.41,-48C1230.35,-48 1239.13,-48 1247.63,-48"/>
<polygon fill="midnightblue" stroke="midnightblue" points="1222.22,-44.5001 1212.22,-48 1222.22,-51.5001 1222.22,-44.5001"/>
</g>
<!-- Node57 -->
<g id="node10" class="node"><title>Node57</title>
<g id="a_node10"><a xlink:href="run_8c.html#adc59e9ee1517e4e690694a64ab6a59d2" target="_top" xlink:title="write_cpu_log">
<polygon fill="white" stroke="black" points="1367,-19.5 1367,-38.5 1444,-38.5 1444,-19.5 1367,-19.5"/>
<text text-anchor="middle" x="1405.5" y="-26.5" font-family="Helvetica,sans-Serif" font-size="10.00">write_cpu_log</text>
</a>
</g>
</g>
<!-- Node56&#45;&gt;Node57 -->
<g id="edge11" class="edge"><title>Node56&#45;&gt;Node57</title>
<path fill="none" stroke="midnightblue" d="M1341.03,-39.5782C1349.68,-38.1359 1358.54,-36.6601 1366.78,-35.2859"/>
<polygon fill="midnightblue" stroke="midnightblue" points="1340.3,-36.1514 1331.01,-41.2478 1341.45,-43.0561 1340.3,-36.1514"/>
</g>
<!-- Node57&#45;&gt;Node54 -->
<g id="edge12" class="edge"><title>Node57&#45;&gt;Node54</title>
<path fill="none" stroke="midnightblue" d="M1356.73,-25.764C1291.49,-21.345 1178.09,-13.6637 1138.3,-10.9683"/>
<polygon fill="midnightblue" stroke="midnightblue" points="1356.55,-29.2601 1366.76,-26.444 1357.02,-22.2761 1356.55,-29.2601"/>
</g>
<!-- Node58&#45;&gt;Node49 -->
<g id="edge15" class="edge"><title>Node58&#45;&gt;Node49</title>
<path fill="none" stroke="midnightblue" d="M298.093,-87.5174C344.798,-80.6383 409.736,-71.0738 452.888,-64.718"/>
<polygon fill="midnightblue" stroke="midnightblue" points="297.505,-84.0661 288.122,-88.9859 298.525,-90.9913 297.505,-84.0661"/>
</g>
<!-- Node58&#45;&gt;Node51 -->
<g id="edge19" class="edge"><title>Node58&#45;&gt;Node51</title>
<path fill="none" stroke="midnightblue" d="M298.451,-95.1326C388.161,-93.3262 565.971,-87.8979 716,-72 727.568,-70.7742 739.906,-69.1305 751.666,-67.401"/>
<polygon fill="midnightblue" stroke="midnightblue" points="298.147,-91.6377 288.216,-95.3305 298.282,-98.6364 298.147,-91.6377"/>
</g>
<!-- Node59 -->
<g id="node12" class="node"><title>Node59</title>
<g id="a_node12"><a xlink:href="fof_8c.html#a9f9dcc0e11addb6231e3db442eed2cb9" target="_top" xlink:title="fof_compile_base">
<polygon fill="white" stroke="black" points="324,-29.5 324,-48.5 417,-48.5 417,-29.5 324,-29.5"/>
<text text-anchor="middle" x="370.5" y="-36.5" font-family="Helvetica,sans-Serif" font-size="10.00">fof_compile_base</text>
</a>
</g>
</g>
<!-- Node58&#45;&gt;Node59 -->
<g id="edge16" class="edge"><title>Node58&#45;&gt;Node59</title>
<path fill="none" stroke="midnightblue" d="M271.32,-82.3819C294.921,-71.9535 326.884,-57.8303 347.838,-48.5716"/>
<polygon fill="midnightblue" stroke="midnightblue" points="269.824,-79.2164 262.092,-86.4595 272.653,-85.6192 269.824,-79.2164"/>
</g>
<!-- Node59&#45;&gt;Node49 -->
<g id="edge17" class="edge"><title>Node59&#45;&gt;Node49</title>
<path fill="none" stroke="midnightblue" d="M427.501,-47.3782C435.93,-48.6391 444.537,-49.9268 452.717,-51.1506"/>
<polygon fill="midnightblue" stroke="midnightblue" points="427.758,-43.8776 417.35,-45.8594 426.722,-50.8006 427.758,-43.8776"/>
</g>
<!-- Node59&#45;&gt;Node52 -->
<g id="edge18" class="edge"><title>Node59&#45;&gt;Node52</title>
<path fill="none" stroke="midnightblue" d="M427.522,-32.5606C469.881,-28.028 529.51,-22.3641 582,-20 641.495,-17.3204 656.458,-18.7062 716,-20 783.97,-21.4769 864.405,-25.6786 901.852,-27.7768"/>
<polygon fill="midnightblue" stroke="midnightblue" points="426.975,-29.0993 417.41,-33.6562 427.729,-36.0586 426.975,-29.0993"/>
</g>
</g>
</svg>
