<?xml version="1.0" encoding="UTF-8" standalone="no"?>
<!DOCTYPE svg PUBLIC "-//W3C//DTD SVG 1.1//EN"
 "http://www.w3.org/Graphics/SVG/1.1/DTD/svg11.dtd">
<!-- Generated by graphviz version 2.38.0 (20140413.2041)
 -->
<!-- Title: fof_register_io_blocks Pages: 1 -->
<svg width="802pt" height="47pt"
 viewBox="0.00 0.00 802.00 47.00" xmlns="http://www.w3.org/2000/svg" xmlns:xlink="http://www.w3.org/1999/xlink">
<g id="graph0" class="graph" transform="scale(1 1) rotate(0) translate(4 43)">
<title>fof_register_io_blocks</title>
<polygon fill="white" stroke="none" points="-4,4 -4,-43 798,-43 798,4 -4,4"/>
<!-- Node141 -->
<g id="node1" class="node"><title>Node141</title>
<polygon fill="#bfbfbf" stroke="black" points="0,-0.5 0,-19.5 112,-19.5 112,-0.5 0,-0.5"/>
<text text-anchor="middle" x="56" y="-7.5" font-family="Helvetica,sans-Serif" font-size="10.00">fof_register_io_blocks</text>
</g>
<!-- Node142 -->
<g id="node2" class="node"><title>Node142</title>
<g id="a_node2"><a xlink:href="petaio_8c.html#afdc43604464800f6a96d72801667d046" target="_top" xlink:title="register_io_blocks">
<polygon fill="white" stroke="black" points="148,-0.5 148,-19.5 243,-19.5 243,-0.5 148,-0.5"/>
<text text-anchor="middle" x="195.5" y="-7.5" font-family="Helvetica,sans-Serif" font-size="10.00">register_io_blocks</text>
</a>
</g>
</g>
<!-- Node141&#45;&gt;Node142 -->
<g id="edge1" class="edge"><title>Node141&#45;&gt;Node142</title>
<path fill="none" stroke="midnightblue" d="M122.194,-10C130.821,-10 139.523,-10 147.754,-10"/>
<polygon fill="midnightblue" stroke="midnightblue" points="122.134,-6.5001 112.134,-10 122.134,-13.5001 122.134,-6.5001"/>
</g>
<!-- Node143 -->
<g id="node3" class="node"><title>Node143</title>
<g id="a_node3"><a xlink:href="petaio_8h.html#a2398ab5c3e8c8475d7c625fcac182c5b" target="_top" xlink:title="petaio_init">
<polygon fill="white" stroke="black" points="279,-0.5 279,-19.5 340,-19.5 340,-0.5 279,-0.5"/>
<text text-anchor="middle" x="309.5" y="-7.5" font-family="Helvetica,sans-Serif" font-size="10.00">petaio_init</text>
</a>
</g>
</g>
<!-- Node142&#45;&gt;Node143 -->
<g id="edge2" class="edge"><title>Node142&#45;&gt;Node143</title>
<path fill="none" stroke="midnightblue" d="M253.073,-10C262.008,-10 270.923,-10 278.91,-10"/>
<polygon fill="midnightblue" stroke="midnightblue" points="253.025,-6.5001 243.025,-10 253.025,-13.5001 253.025,-6.5001"/>
</g>
<!-- Node144 -->
<g id="node4" class="node"><title>Node144</title>
<g id="a_node4"><a xlink:href="proto_8h.html#a74dc0e5e9eefe11fc8434b62de573146" target="_top" xlink:title="begrun">
<polygon fill="white" stroke="black" points="376,-0.5 376,-19.5 422,-19.5 422,-0.5 376,-0.5"/>
<text text-anchor="middle" x="399" y="-7.5" font-family="Helvetica,sans-Serif" font-size="10.00">begrun</text>
</a>
</g>
</g>
<!-- Node143&#45;&gt;Node144 -->
<g id="edge3" class="edge"><title>Node143&#45;&gt;Node144</title>
<path fill="none" stroke="midnightblue" d="M350.268,-10C359.068,-10 368.084,-10 375.878,-10"/>
<polygon fill="midnightblue" stroke="midnightblue" points="350.124,-6.5001 340.124,-10 350.123,-13.5001 350.124,-6.5001"/>
</g>
<!-- Node145 -->
<g id="node5" class="node"><title>Node145</title>
<g id="a_node5"><a xlink:href="main_8c.html#a3c04138a5bfe5d72780bb7e82a18e627" target="_top" xlink:title="main">
<polygon fill="white" stroke="black" points="458,-0.5 458,-19.5 496,-19.5 496,-0.5 458,-0.5"/>
<text text-anchor="middle" x="477" y="-7.5" font-family="Helvetica,sans-Serif" font-size="10.00">main</text>
</a>
</g>
</g>
<!-- Node144&#45;&gt;Node145 -->
<g id="edge4" class="edge"><title>Node144&#45;&gt;Node145</title>
<path fill="none" stroke="midnightblue" d="M432.541,-10C441.114,-10 450.067,-10 457.603,-10"/>
<polygon fill="midnightblue" stroke="midnightblue" points="432.391,-6.5001 422.391,-10 432.391,-13.5001 432.391,-6.5001"/>
</g>
<!-- Node146 -->
<g id="node6" class="node"><title>Node146</title>
<g id="a_node6"><a xlink:href="walltime_8h.html#a76d2135b612766d4d665748454b879d6" target="_top" xlink:title="walltime_report">
<polygon fill="white" stroke="black" points="532,-19.5 532,-38.5 615,-38.5 615,-19.5 532,-19.5"/>
<text text-anchor="middle" x="573.5" y="-26.5" font-family="Helvetica,sans-Serif" font-size="10.00">walltime_report</text>
</a>
</g>
</g>
<!-- Node145&#45;&gt;Node146 -->
<g id="edge5" class="edge"><title>Node145&#45;&gt;Node146</title>
<path fill="none" stroke="midnightblue" d="M506.141,-15.658C514.148,-17.2678 523.035,-19.0547 531.635,-20.7837"/>
<polygon fill="midnightblue" stroke="midnightblue" points="506.714,-12.2033 496.221,-13.6634 505.334,-19.0659 506.714,-12.2033"/>
</g>
<!-- Node147 -->
<g id="node7" class="node"><title>Node147</title>
<g id="a_node7"><a xlink:href="run_8c.html#adc59e9ee1517e4e690694a64ab6a59d2" target="_top" xlink:title="write_cpu_log">
<polygon fill="white" stroke="black" points="651,-19.5 651,-38.5 728,-38.5 728,-19.5 651,-19.5"/>
<text text-anchor="middle" x="689.5" y="-26.5" font-family="Helvetica,sans-Serif" font-size="10.00">write_cpu_log</text>
</a>
</g>
</g>
<!-- Node146&#45;&gt;Node147 -->
<g id="edge6" class="edge"><title>Node146&#45;&gt;Node147</title>
<path fill="none" stroke="midnightblue" d="M625.031,-29C633.684,-29 642.54,-29 650.785,-29"/>
<polygon fill="midnightblue" stroke="midnightblue" points="625.013,-25.5001 615.013,-29 625.013,-32.5001 625.013,-25.5001"/>
</g>
<!-- Node148 -->
<g id="node8" class="node"><title>Node148</title>
<g id="a_node8"><a xlink:href="run_8c.html#a05e0ffe612d44e6d7f3a9ae5b9df56a2" target="_top" xlink:title="run">
<polygon fill="white" stroke="black" points="764,-0.5 764,-19.5 794,-19.5 794,-0.5 764,-0.5"/>
<text text-anchor="middle" x="779" y="-7.5" font-family="Helvetica,sans-Serif" font-size="10.00">run</text>
</a>
</g>
</g>
<!-- Node147&#45;&gt;Node148 -->
<g id="edge7" class="edge"><title>Node147&#45;&gt;Node148</title>
<path fill="none" stroke="midnightblue" d="M737.925,-18.7021C747.329,-16.6601 756.505,-14.6676 763.698,-13.1056"/>
<polygon fill="midnightblue" stroke="midnightblue" points="737.145,-15.2897 728.116,-20.832 738.631,-22.1303 737.145,-15.2897"/>
</g>
<!-- Node148&#45;&gt;Node145 -->
<g id="edge8" class="edge"><title>Node148&#45;&gt;Node145</title>
<path fill="none" stroke="midnightblue" d="M753.758,-10C695.391,-10 548.064,-10 496.315,-10"/>
<polygon fill="midnightblue" stroke="midnightblue" points="753.885,-13.5001 763.885,-10 753.885,-6.5001 753.885,-13.5001"/>
</g>
</g>
</svg>
