<?xml version="1.0" encoding="UTF-8" standalone="no"?>
<!DOCTYPE svg PUBLIC "-//W3C//DTD SVG 1.1//EN"
 "http://www.w3.org/Graphics/SVG/1.1/DTD/svg11.dtd">
<!-- Generated by graphviz version 2.50.0 (0)
 -->
<!-- Title: fof_write_header Pages: 1 -->
<svg width="783pt" height="151pt"
 viewBox="0.00 0.00 783.00 151.00" xmlns="http://www.w3.org/2000/svg" xmlns:xlink="http://www.w3.org/1999/xlink">
<g id="graph0" class="graph" transform="scale(1 1) rotate(0) translate(4 147)">
<title>fof_write_header</title>
<polygon fill="white" stroke="transparent" points="-4,4 -4,-147 779,-147 779,4 -4,4"/>
<!-- Node1 -->
<g id="node1" class="node">
<title>Node1</title>
<g id="a_node1"><a xlink:title=" ">
<polygon fill="#bfbfbf" stroke="black" points="0,-57.5 0,-76.5 99,-76.5 99,-57.5 0,-57.5"/>
<text text-anchor="middle" x="49.5" y="-64.5" font-family="Helvetica,sans-Serif" font-size="10.00">fof_write_header</text>
</a>
</g>
</g>
<!-- Node2 -->
<g id="node2" class="node">
<title>Node2</title>
<g id="a_node2"><a xlink:href="endrun_8c.html#ad963d7efdb9f10f7a2298c8ccd222ab0" target="_top" xlink:title=" ">
<polygon fill="white" stroke="black" points="175.5,-95.5 175.5,-114.5 225.5,-114.5 225.5,-95.5 175.5,-95.5"/>
<text text-anchor="middle" x="200.5" y="-102.5" font-family="Helvetica,sans-Serif" font-size="10.00">endrun</text>
</a>
</g>
</g>
<!-- Node1&#45;&gt;Node2 -->
<g id="edge1" class="edge">
<title>Node1&#45;&gt;Node2</title>
<path fill="none" stroke="midnightblue" d="M88.1,-76.59C111.98,-82.68 142.63,-90.5 165.73,-96.39"/>
<polygon fill="midnightblue" stroke="midnightblue" points="164.89,-99.79 175.45,-98.87 166.62,-93 164.89,-99.79"/>
</g>
<!-- Node6 -->
<g id="node6" class="node">
<title>Node6</title>
<g id="a_node6"><a xlink:href="petaio_8c.html#ab6fdd6f262d6108be8c4720ba1e0505b" target="_top" xlink:title=" ">
<polygon fill="white" stroke="black" points="135,-57.5 135,-76.5 266,-76.5 266,-57.5 135,-57.5"/>
<text text-anchor="middle" x="200.5" y="-64.5" font-family="Helvetica,sans-Serif" font-size="10.00">GetUsePeculiarVelocity</text>
</a>
</g>
</g>
<!-- Node1&#45;&gt;Node6 -->
<g id="edge5" class="edge">
<title>Node1&#45;&gt;Node6</title>
<path fill="none" stroke="midnightblue" d="M99.29,-67C107.46,-67 116.11,-67 124.76,-67"/>
<polygon fill="midnightblue" stroke="midnightblue" points="124.88,-70.5 134.88,-67 124.88,-63.5 124.88,-70.5"/>
</g>
<!-- Node7 -->
<g id="node7" class="node">
<title>Node7</title>
<g id="a_node7"><a xlink:href="cosmology_8c.html#ab425f16e6fe06110e2fb4944065b81bb" target="_top" xlink:title=" ">
<polygon fill="white" stroke="black" points="153,-19.5 153,-38.5 248,-38.5 248,-19.5 153,-19.5"/>
<text text-anchor="middle" x="200.5" y="-26.5" font-family="Helvetica,sans-Serif" font-size="10.00">hubble_function</text>
</a>
</g>
</g>
<!-- Node1&#45;&gt;Node7 -->
<g id="edge6" class="edge">
<title>Node1&#45;&gt;Node7</title>
<path fill="none" stroke="midnightblue" d="M88.1,-57.41C107.58,-52.44 131.57,-46.32 152.3,-41.04"/>
<polygon fill="midnightblue" stroke="midnightblue" points="153.35,-44.38 162.17,-38.52 151.62,-37.6 153.35,-44.38"/>
</g>
<!-- Node3 -->
<g id="node3" class="node">
<title>Node3</title>
<g id="a_node3"><a xlink:href="system_8c.html#a341c8d27bd6c7dde856566810b412b1f" target="_top" xlink:title=" ">
<polygon fill="white" stroke="black" points="310,-123.5 310,-142.5 389,-142.5 389,-123.5 310,-123.5"/>
<text text-anchor="middle" x="349.5" y="-130.5" font-family="Helvetica,sans-Serif" font-size="10.00">MPIU_Tracev</text>
</a>
</g>
</g>
<!-- Node2&#45;&gt;Node3 -->
<g id="edge2" class="edge">
<title>Node2&#45;&gt;Node3</title>
<path fill="none" stroke="midnightblue" d="M225.77,-109.62C245.84,-113.45 274.97,-118.99 299.82,-123.73"/>
<polygon fill="midnightblue" stroke="midnightblue" points="299.33,-127.2 309.81,-125.63 300.64,-120.32 299.33,-127.2"/>
</g>
<!-- Node5 -->
<g id="node5" class="node">
<title>Node5</title>
<g id="a_node5"><a xlink:href="endrun_8c.html#a1200f02a595ab7cbe17c9e36ff32af0f" target="_top" xlink:title=" ">
<polygon fill="white" stroke="black" points="302,-85.5 302,-104.5 397,-104.5 397,-85.5 302,-85.5"/>
<text text-anchor="middle" x="349.5" y="-92.5" font-family="Helvetica,sans-Serif" font-size="10.00">show_backtrace</text>
</a>
</g>
</g>
<!-- Node2&#45;&gt;Node5 -->
<g id="edge4" class="edge">
<title>Node2&#45;&gt;Node5</title>
<path fill="none" stroke="midnightblue" d="M225.77,-103.35C243.75,-102.13 268.98,-100.41 291.9,-98.85"/>
<polygon fill="midnightblue" stroke="midnightblue" points="292.16,-102.34 301.9,-98.17 291.68,-95.36 292.16,-102.34"/>
</g>
<!-- Node4 -->
<g id="node4" class="node">
<title>Node4</title>
<g id="a_node4"><a xlink:href="system_8c.html#a87108946670b4c3afbe846c6726675ff" target="_top" xlink:title=" ">
<polygon fill="white" stroke="black" points="433,-123.5 433,-142.5 483,-142.5 483,-123.5 433,-123.5"/>
<text text-anchor="middle" x="458" y="-130.5" font-family="Helvetica,sans-Serif" font-size="10.00">putline</text>
</a>
</g>
</g>
<!-- Node3&#45;&gt;Node4 -->
<g id="edge3" class="edge">
<title>Node3&#45;&gt;Node4</title>
<path fill="none" stroke="midnightblue" d="M389.25,-133C400.22,-133 412.09,-133 422.77,-133"/>
<polygon fill="midnightblue" stroke="midnightblue" points="422.99,-136.5 432.99,-133 422.99,-129.5 422.99,-136.5"/>
</g>
<!-- Node8 -->
<g id="node8" class="node">
<title>Node8</title>
<g id="a_node8"><a xlink:href="omega__nu__single_8c.html#aca4b20af5bd369bcd096c670c27c6e36" target="_top" xlink:title=" ">
<polygon fill="white" stroke="black" points="305,-38.5 305,-57.5 394,-57.5 394,-38.5 305,-38.5"/>
<text text-anchor="middle" x="349.5" y="-45.5" font-family="Helvetica,sans-Serif" font-size="10.00">get_omega_nu</text>
</a>
</g>
</g>
<!-- Node7&#45;&gt;Node8 -->
<g id="edge7" class="edge">
<title>Node7&#45;&gt;Node8</title>
<path fill="none" stroke="midnightblue" d="M248.01,-35.01C262.77,-36.92 279.22,-39.05 294.47,-41.02"/>
<polygon fill="midnightblue" stroke="midnightblue" points="294.43,-44.54 304.79,-42.35 295.32,-37.6 294.43,-44.54"/>
</g>
<!-- Node13 -->
<g id="node13" class="node">
<title>Node13</title>
<g id="a_node13"><a xlink:href="cosmology_8c.html#a187e0106f302118344b027cf942347e0" target="_top" xlink:title=" ">
<polygon fill="white" stroke="black" points="314,-0.5 314,-19.5 385,-19.5 385,-0.5 314,-0.5"/>
<text text-anchor="middle" x="349.5" y="-7.5" font-family="Helvetica,sans-Serif" font-size="10.00">OmegaFLD</text>
</a>
</g>
</g>
<!-- Node7&#45;&gt;Node13 -->
<g id="edge13" class="edge">
<title>Node7&#45;&gt;Node13</title>
<path fill="none" stroke="midnightblue" d="M248.01,-22.99C265.87,-20.68 286.2,-18.05 303.88,-15.77"/>
<polygon fill="midnightblue" stroke="midnightblue" points="304.47,-19.22 313.94,-14.47 303.58,-12.28 304.47,-19.22"/>
</g>
<!-- Node9 -->
<g id="node9" class="node">
<title>Node9</title>
<g id="a_node9"><a xlink:href="omega__nu__single_8c.html#a5d81e97a54be82580201631d495bd694" target="_top" xlink:title=" ">
<polygon fill="white" stroke="black" points="433,-38.5 433,-57.5 483,-57.5 483,-38.5 433,-38.5"/>
<text text-anchor="middle" x="458" y="-45.5" font-family="Helvetica,sans-Serif" font-size="10.00">rho_nu</text>
</a>
</g>
</g>
<!-- Node8&#45;&gt;Node9 -->
<g id="edge8" class="edge">
<title>Node8&#45;&gt;Node9</title>
<path fill="none" stroke="midnightblue" d="M394.12,-48C403.62,-48 413.54,-48 422.62,-48"/>
<polygon fill="midnightblue" stroke="midnightblue" points="422.81,-51.5 432.81,-48 422.81,-44.5 422.81,-51.5"/>
</g>
<!-- Node10 -->
<g id="node10" class="node">
<title>Node10</title>
<g id="a_node10"><a xlink:href="omega__nu__single_8c.html#a5d053cc2c3fa75a3c357bbb99af5de62" target="_top" xlink:title=" ">
<polygon fill="white" stroke="black" points="519,-57.5 519,-76.5 610,-76.5 610,-57.5 519,-57.5"/>
<text text-anchor="middle" x="564.5" y="-64.5" font-family="Helvetica,sans-Serif" font-size="10.00">non_rel_rho_nu</text>
</a>
</g>
</g>
<!-- Node9&#45;&gt;Node10 -->
<g id="edge9" class="edge">
<title>Node9&#45;&gt;Node10</title>
<path fill="none" stroke="midnightblue" d="M483.24,-52.41C490.95,-53.81 499.81,-55.42 508.78,-57.05"/>
<polygon fill="midnightblue" stroke="midnightblue" points="508.41,-60.54 518.88,-58.89 509.67,-53.65 508.41,-60.54"/>
</g>
<!-- Node12 -->
<g id="node12" class="node">
<title>Node12</title>
<g id="a_node12"><a xlink:href="omega__nu__single_8c.html#ac447b6c2f0363d19b68b2ce9f29009c4" target="_top" xlink:title=" ">
<polygon fill="white" stroke="black" points="530.5,-19.5 530.5,-38.5 598.5,-38.5 598.5,-19.5 530.5,-19.5"/>
<text text-anchor="middle" x="564.5" y="-26.5" font-family="Helvetica,sans-Serif" font-size="10.00">rel_rho_nu</text>
</a>
</g>
</g>
<!-- Node9&#45;&gt;Node12 -->
<g id="edge11" class="edge">
<title>Node9&#45;&gt;Node12</title>
<path fill="none" stroke="midnightblue" d="M483.24,-43.59C494.27,-41.59 507.68,-39.15 520.35,-36.85"/>
<polygon fill="midnightblue" stroke="midnightblue" points="521.08,-40.27 530.29,-35.04 519.83,-33.38 521.08,-40.27"/>
</g>
<!-- Node11 -->
<g id="node11" class="node">
<title>Node11</title>
<g id="a_node11"><a xlink:href="omega__nu__single_8c.html#acf81fc868c0deb61c3541958dd6114be" target="_top" xlink:title=" ">
<polygon fill="white" stroke="black" points="646,-38.5 646,-57.5 775,-57.5 775,-38.5 646,-38.5"/>
<text text-anchor="middle" x="710.5" y="-45.5" font-family="Helvetica,sans-Serif" font-size="10.00">get_rho_nu_conversion</text>
</a>
</g>
</g>
<!-- Node10&#45;&gt;Node11 -->
<g id="edge10" class="edge">
<title>Node10&#45;&gt;Node11</title>
<path fill="none" stroke="midnightblue" d="M610.27,-61.09C618.49,-60.01 627.26,-58.85 636.07,-57.69"/>
<polygon fill="midnightblue" stroke="midnightblue" points="636.53,-61.16 645.99,-56.38 635.62,-54.22 636.53,-61.16"/>
</g>
<!-- Node12&#45;&gt;Node11 -->
<g id="edge12" class="edge">
<title>Node12&#45;&gt;Node11</title>
<path fill="none" stroke="midnightblue" d="M598.54,-33.36C609.72,-34.83 622.7,-36.55 635.75,-38.27"/>
<polygon fill="midnightblue" stroke="midnightblue" points="635.35,-41.75 645.72,-39.58 636.26,-34.81 635.35,-41.75"/>
</g>
</g>
</svg>
