<?xml version="1.0" encoding="UTF-8" standalone="no"?>
<!DOCTYPE svg PUBLIC "-//W3C//DTD SVG 1.1//EN"
 "http://www.w3.org/Graphics/SVG/1.1/DTD/svg11.dtd">
<!-- Generated by graphviz version 2.38.0 (20140413.2041)
 -->
<!-- Title: fof_radix_origin Pages: 1 -->
<svg width="1327pt" height="104pt"
 viewBox="0.00 0.00 1327.00 104.00" xmlns="http://www.w3.org/2000/svg" xmlns:xlink="http://www.w3.org/1999/xlink">
<g id="graph0" class="graph" transform="scale(1 1) rotate(0) translate(4 100)">
<title>fof_radix_origin</title>
<polygon fill="white" stroke="none" points="-4,4 -4,-100 1323,-100 1323,4 -4,4"/>
<!-- Node113 -->
<g id="node1" class="node"><title>Node113</title>
<polygon fill="#bfbfbf" stroke="black" points="0,-38.5 0,-57.5 83,-57.5 83,-38.5 0,-38.5"/>
<text text-anchor="middle" x="41.5" y="-45.5" font-family="Helvetica,sans-Serif" font-size="10.00">fof_radix_origin</text>
</g>
<!-- Node114 -->
<g id="node2" class="node"><title>Node114</title>
<g id="a_node2"><a xlink:href="fofpetaio_8c.html#adeaedcc6bf73d7750d9b5c8871c682d9" target="_top" xlink:title="fof_distribute_particles">
<polygon fill="white" stroke="black" points="119,-38.5 119,-57.5 234,-57.5 234,-38.5 119,-38.5"/>
<text text-anchor="middle" x="176.5" y="-45.5" font-family="Helvetica,sans-Serif" font-size="10.00">fof_distribute_particles</text>
</a>
</g>
</g>
<!-- Node113&#45;&gt;Node114 -->
<g id="edge1" class="edge"><title>Node113&#45;&gt;Node114</title>
<path fill="none" stroke="midnightblue" d="M93.1885,-48C101.616,-48 110.402,-48 118.963,-48"/>
<polygon fill="midnightblue" stroke="midnightblue" points="93.1271,-44.5001 83.1271,-48 93.127,-51.5001 93.1271,-44.5001"/>
</g>
<!-- Node115 -->
<g id="node3" class="node"><title>Node115</title>
<g id="a_node3"><a xlink:href="fofpetaio_8c.html#ae9bc2119aed92e2556b9ad427e646b45" target="_top" xlink:title="fof_save_particles">
<polygon fill="white" stroke="black" points="270,-38.5 270,-57.5 366,-57.5 366,-38.5 270,-38.5"/>
<text text-anchor="middle" x="318" y="-45.5" font-family="Helvetica,sans-Serif" font-size="10.00">fof_save_particles</text>
</a>
</g>
</g>
<!-- Node114&#45;&gt;Node115 -->
<g id="edge2" class="edge"><title>Node114&#45;&gt;Node115</title>
<path fill="none" stroke="midnightblue" d="M244.259,-48C252.844,-48 261.49,-48 269.674,-48"/>
<polygon fill="midnightblue" stroke="midnightblue" points="244.24,-44.5001 234.24,-48 244.24,-51.5001 244.24,-44.5001"/>
</g>
<!-- Node116 -->
<g id="node4" class="node"><title>Node116</title>
<g id="a_node4"><a xlink:href="fof_8c.html#aa0d13cc94e97083dfd468ed33331eed7" target="_top" xlink:title="fof_periodic_wrap">
<polygon fill="white" stroke="black" points="402,-57.5 402,-76.5 495,-76.5 495,-57.5 402,-57.5"/>
<text text-anchor="middle" x="448.5" y="-64.5" font-family="Helvetica,sans-Serif" font-size="10.00">fof_periodic_wrap</text>
</a>
</g>
</g>
<!-- Node115&#45;&gt;Node116 -->
<g id="edge3" class="edge"><title>Node115&#45;&gt;Node116</title>
<path fill="none" stroke="midnightblue" d="M376.063,-56.4374C384.634,-57.7046 393.377,-58.9974 401.673,-60.224"/>
<polygon fill="midnightblue" stroke="midnightblue" points="376.523,-52.9674 366.119,-54.967 375.499,-59.8921 376.523,-52.9674"/>
</g>
<!-- Node125 -->
<g id="node13" class="node"><title>Node125</title>
<g id="a_node13"><a xlink:href="fof_8h.html#ad08d3c5fd1cf1f78c75a17330a8e0348" target="_top" xlink:title="fof_save_groups">
<polygon fill="white" stroke="black" points="553.5,-0.5 553.5,-19.5 642.5,-19.5 642.5,-0.5 553.5,-0.5"/>
<text text-anchor="middle" x="598" y="-7.5" font-family="Helvetica,sans-Serif" font-size="10.00">fof_save_groups</text>
</a>
</g>
</g>
<!-- Node115&#45;&gt;Node125 -->
<g id="edge16" class="edge"><title>Node115&#45;&gt;Node125</title>
<path fill="none" stroke="midnightblue" d="M376.329,-40.1636C428.869,-32.9819 505.533,-22.5027 553.281,-15.976"/>
<polygon fill="midnightblue" stroke="midnightblue" points="375.593,-36.7317 366.159,-41.5538 376.541,-43.6672 375.593,-36.7317"/>
</g>
<!-- Node117 -->
<g id="node5" class="node"><title>Node117</title>
<g id="a_node5"><a xlink:href="fof_8c.html#a36336d505e8a4fb8e8fdaf9a796e40d4" target="_top" xlink:title="fof_finish_group_properties">
<polygon fill="white" stroke="black" points="531,-76.5 531,-95.5 665,-95.5 665,-76.5 531,-76.5"/>
<text text-anchor="middle" x="598" y="-83.5" font-family="Helvetica,sans-Serif" font-size="10.00">fof_finish_group_properties</text>
</a>
</g>
</g>
<!-- Node116&#45;&gt;Node117 -->
<g id="edge4" class="edge"><title>Node116&#45;&gt;Node117</title>
<path fill="none" stroke="midnightblue" d="M505.361,-67.6254C526.124,-69.8752 548.901,-73.1373 566.553,-76.4922"/>
<polygon fill="midnightblue" stroke="midnightblue" points="505.665,-64.1383 495.361,-66.6062 504.955,-71.1022 505.665,-64.1383"/>
</g>
<!-- Node117&#45;&gt;Node116 -->
<g id="edge15" class="edge"><title>Node117&#45;&gt;Node116</title>
<path fill="none" stroke="midnightblue" d="M520.887,-82.9425C506.413,-81.0403 492.06,-78.8068 480.062,-76.5295"/>
<polygon fill="midnightblue" stroke="midnightblue" points="520.541,-86.4265 530.9,-84.203 521.415,-79.4813 520.541,-86.4265"/>
</g>
<!-- Node118 -->
<g id="node6" class="node"><title>Node118</title>
<g id="a_node6"><a xlink:href="fof_8c.html#ae4b5e05b1f0225637629759a9e2ba72e" target="_top" xlink:title="fof_compile_catalogue">
<polygon fill="white" stroke="black" points="701,-38.5 701,-57.5 815,-57.5 815,-38.5 701,-38.5"/>
<text text-anchor="middle" x="758" y="-45.5" font-family="Helvetica,sans-Serif" font-size="10.00">fof_compile_catalogue</text>
</a>
</g>
</g>
<!-- Node117&#45;&gt;Node118 -->
<g id="edge5" class="edge"><title>Node117&#45;&gt;Node118</title>
<path fill="none" stroke="midnightblue" d="M648.762,-74.032C670.903,-68.7069 696.612,-62.5238 717.417,-57.5201"/>
<polygon fill="midnightblue" stroke="midnightblue" points="647.774,-70.6696 638.87,-76.411 649.411,-77.4755 647.774,-70.6696"/>
</g>
<!-- Node118&#45;&gt;Node116 -->
<g id="edge14" class="edge"><title>Node118&#45;&gt;Node116</title>
<path fill="none" stroke="midnightblue" d="M690.523,-52.1075C631.525,-55.7529 546.893,-60.9822 495.204,-64.176"/>
<polygon fill="midnightblue" stroke="midnightblue" points="691.095,-55.579 700.86,-51.4688 690.663,-48.5923 691.095,-55.579"/>
</g>
<!-- Node119 -->
<g id="node7" class="node"><title>Node119</title>
<g id="a_node7"><a xlink:href="fof_8h.html#a7f10d50a8e07ce0bb67ffdfaf904d7c8" target="_top" xlink:title="fof_fof">
<polygon fill="white" stroke="black" points="851,-38.5 851,-57.5 895,-57.5 895,-38.5 851,-38.5"/>
<text text-anchor="middle" x="873" y="-45.5" font-family="Helvetica,sans-Serif" font-size="10.00">fof_fof</text>
</a>
</g>
</g>
<!-- Node118&#45;&gt;Node119 -->
<g id="edge6" class="edge"><title>Node118&#45;&gt;Node119</title>
<path fill="none" stroke="midnightblue" d="M825.277,-48C834.507,-48 843.379,-48 850.865,-48"/>
<polygon fill="midnightblue" stroke="midnightblue" points="825.169,-44.5001 815.169,-48 825.169,-51.5001 825.169,-44.5001"/>
</g>
<!-- Node120 -->
<g id="node8" class="node"><title>Node120</title>
<g id="a_node8"><a xlink:href="main_8c.html#a3c04138a5bfe5d72780bb7e82a18e627" target="_top" xlink:title="main">
<polygon fill="white" stroke="black" points="957,-38.5 957,-57.5 995,-57.5 995,-38.5 957,-38.5"/>
<text text-anchor="middle" x="976" y="-45.5" font-family="Helvetica,sans-Serif" font-size="10.00">main</text>
</a>
</g>
</g>
<!-- Node119&#45;&gt;Node120 -->
<g id="edge7" class="edge"><title>Node119&#45;&gt;Node120</title>
<path fill="none" stroke="midnightblue" d="M905.455,-48C922.404,-48 942.707,-48 956.987,-48"/>
<polygon fill="midnightblue" stroke="midnightblue" points="905.42,-44.5001 895.42,-48 905.419,-51.5001 905.42,-44.5001"/>
</g>
<!-- Node124 -->
<g id="node12" class="node"><title>Node124</title>
<g id="a_node12"><a xlink:href="proto_8h.html#a312b6a02f7cde171412989ea5f9be48f" target="_top" xlink:title="write_checkpoint">
<polygon fill="white" stroke="black" points="931,-0.5 931,-19.5 1021,-19.5 1021,-0.5 931,-0.5"/>
<text text-anchor="middle" x="976" y="-7.5" font-family="Helvetica,sans-Serif" font-size="10.00">write_checkpoint</text>
</a>
</g>
</g>
<!-- Node119&#45;&gt;Node124 -->
<g id="edge12" class="edge"><title>Node119&#45;&gt;Node124</title>
<path fill="none" stroke="midnightblue" d="M904.886,-36.3795C919.24,-30.9791 936.097,-24.6368 949.685,-19.5246"/>
<polygon fill="midnightblue" stroke="midnightblue" points="903.546,-33.1439 895.42,-39.9412 906.011,-39.6955 903.546,-33.1439"/>
</g>
<!-- Node121 -->
<g id="node9" class="node"><title>Node121</title>
<g id="a_node9"><a xlink:href="walltime_8h.html#a76d2135b612766d4d665748454b879d6" target="_top" xlink:title="walltime_report">
<polygon fill="white" stroke="black" points="1057,-76.5 1057,-95.5 1140,-95.5 1140,-76.5 1057,-76.5"/>
<text text-anchor="middle" x="1098.5" y="-83.5" font-family="Helvetica,sans-Serif" font-size="10.00">walltime_report</text>
</a>
</g>
</g>
<!-- Node120&#45;&gt;Node121 -->
<g id="edge8" class="edge"><title>Node120&#45;&gt;Node121</title>
<path fill="none" stroke="midnightblue" d="M1004.72,-56.7418C1023.38,-62.6249 1047.97,-70.3819 1067.15,-76.4305"/>
<polygon fill="midnightblue" stroke="midnightblue" points="1005.63,-53.3586 995.04,-53.689 1003.52,-60.0345 1005.63,-53.3586"/>
</g>
<!-- Node122 -->
<g id="node10" class="node"><title>Node122</title>
<g id="a_node10"><a xlink:href="run_8c.html#adc59e9ee1517e4e690694a64ab6a59d2" target="_top" xlink:title="write_cpu_log">
<polygon fill="white" stroke="black" points="1176,-76.5 1176,-95.5 1253,-95.5 1253,-76.5 1176,-76.5"/>
<text text-anchor="middle" x="1214.5" y="-83.5" font-family="Helvetica,sans-Serif" font-size="10.00">write_cpu_log</text>
</a>
</g>
</g>
<!-- Node121&#45;&gt;Node122 -->
<g id="edge9" class="edge"><title>Node121&#45;&gt;Node122</title>
<path fill="none" stroke="midnightblue" d="M1150.03,-86C1158.68,-86 1167.54,-86 1175.78,-86"/>
<polygon fill="midnightblue" stroke="midnightblue" points="1150.01,-82.5001 1140.01,-86 1150.01,-89.5001 1150.01,-82.5001"/>
</g>
<!-- Node123 -->
<g id="node11" class="node"><title>Node123</title>
<g id="a_node11"><a xlink:href="run_8c.html#a05e0ffe612d44e6d7f3a9ae5b9df56a2" target="_top" xlink:title="run">
<polygon fill="white" stroke="black" points="1289,-38.5 1289,-57.5 1319,-57.5 1319,-38.5 1289,-38.5"/>
<text text-anchor="middle" x="1304" y="-45.5" font-family="Helvetica,sans-Serif" font-size="10.00">run</text>
</a>
</g>
</g>
<!-- Node122&#45;&gt;Node123 -->
<g id="edge10" class="edge"><title>Node122&#45;&gt;Node123</title>
<path fill="none" stroke="midnightblue" d="M1247.1,-72.2746C1261.42,-66.0585 1277.62,-59.0243 1288.87,-54.1344"/>
<polygon fill="midnightblue" stroke="midnightblue" points="1245.36,-69.2172 1237.58,-76.411 1248.15,-75.6378 1245.36,-69.2172"/>
</g>
<!-- Node123&#45;&gt;Node120 -->
<g id="edge11" class="edge"><title>Node123&#45;&gt;Node120</title>
<path fill="none" stroke="midnightblue" d="M1278.85,-48C1216.48,-48 1050.99,-48 995.461,-48"/>
<polygon fill="midnightblue" stroke="midnightblue" points="1278.93,-51.5001 1288.93,-48 1278.93,-44.5001 1278.93,-51.5001"/>
</g>
<!-- Node124&#45;&gt;Node123 -->
<g id="edge13" class="edge"><title>Node124&#45;&gt;Node123</title>
<path fill="none" stroke="midnightblue" d="M1031.3,-16.3291C1108.24,-25.2984 1244.58,-41.1907 1288.76,-46.3399"/>
<polygon fill="midnightblue" stroke="midnightblue" points="1031.64,-12.8458 1021.31,-15.1644 1030.83,-19.7988 1031.64,-12.8458"/>
</g>
<!-- Node125&#45;&gt;Node124 -->
<g id="edge17" class="edge"><title>Node125&#45;&gt;Node124</title>
<path fill="none" stroke="midnightblue" d="M653.023,-10C727.853,-10 861.63,-10 930.83,-10"/>
<polygon fill="midnightblue" stroke="midnightblue" points="652.868,-6.5001 642.868,-10 652.868,-13.5001 652.868,-6.5001"/>
</g>
</g>
</svg>
