<?xml version="1.0" encoding="UTF-8" standalone="no"?>
<!DOCTYPE svg PUBLIC "-//W3C//DTD SVG 1.1//EN"
 "http://www.w3.org/Graphics/SVG/1.1/DTD/svg11.dtd">
<!-- Generated by graphviz version 2.50.0 (0)
 -->
<!-- Title: merge_partial_force_trees Pages: 1 -->
<svg width="850pt" height="241pt"
 viewBox="0.00 0.00 850.00 240.69" xmlns="http://www.w3.org/2000/svg" xmlns:xlink="http://www.w3.org/1999/xlink">
<g id="graph0" class="graph" transform="scale(1 1) rotate(0) translate(4 236.69)">
<title>merge_partial_force_trees</title>
<polygon fill="white" stroke="transparent" points="-4,4 -4,-236.69 846,-236.69 846,4 -4,4"/>
<!-- Node1 -->
<g id="node1" class="node">
<title>Node1</title>
<g id="a_node1"><a xlink:title=" ">
<polygon fill="#bfbfbf" stroke="black" points="0,-28.19 0,-58.19 115,-58.19 115,-28.19 0,-28.19"/>
<text text-anchor="start" x="8" y="-46.19" font-family="Helvetica,sans-Serif" font-size="10.00">merge_partial_force</text>
<text text-anchor="middle" x="57.5" y="-35.19" font-family="Helvetica,sans-Serif" font-size="10.00">_trees</text>
</a>
</g>
</g>
<!-- Node2 -->
<g id="node2" class="node">
<title>Node2</title>
<g id="a_node2"><a xlink:href="forcetree_8c.html#aa745b024ee4449af60e622e8c2bc32c1" target="_top" xlink:title=" ">
<polygon fill="white" stroke="black" points="151,-52.69 151,-71.69 267,-71.69 267,-52.69 151,-52.69"/>
<text text-anchor="middle" x="209" y="-59.69" font-family="Helvetica,sans-Serif" font-size="10.00">add_particle_to_tree</text>
</a>
</g>
</g>
<!-- Node1&#45;&gt;Node2 -->
<g id="edge1" class="edge">
<title>Node1&#45;&gt;Node2</title>
<path fill="none" stroke="midnightblue" d="M115.02,-50.37C123.46,-51.44 132.23,-52.56 140.86,-53.66"/>
<polygon fill="midnightblue" stroke="midnightblue" points="140.54,-57.14 150.9,-54.93 141.43,-50.2 140.54,-57.14"/>
</g>
<!-- Node13 -->
<g id="node13" class="node">
<title>Node13</title>
<g id="a_node13"><a xlink:href="endrun_8c.html#ad963d7efdb9f10f7a2298c8ccd222ab0" target="_top" xlink:title=" ">
<polygon fill="white" stroke="black" points="344,-14.69 344,-33.69 394,-33.69 394,-14.69 344,-14.69"/>
<text text-anchor="middle" x="369" y="-21.69" font-family="Helvetica,sans-Serif" font-size="10.00">endrun</text>
</a>
</g>
</g>
<!-- Node1&#45;&gt;Node13 -->
<g id="edge17" class="edge">
<title>Node1&#45;&gt;Node13</title>
<path fill="none" stroke="midnightblue" d="M115.27,-39.7C179.1,-35.78 280.73,-29.55 333.56,-26.3"/>
<polygon fill="midnightblue" stroke="midnightblue" points="333.99,-29.78 343.76,-25.68 333.56,-22.8 333.99,-29.78"/>
</g>
<!-- Node3 -->
<g id="node3" class="node">
<title>Node3</title>
<g id="a_node3"><a xlink:href="forcetree_8c.html#aa2a5e7409df1552470bd55312d9d1e17" target="_top" xlink:title=" ">
<polygon fill="white" stroke="black" points="303,-109.69 303,-128.69 435,-128.69 435,-109.69 303,-109.69"/>
<text text-anchor="middle" x="369" y="-116.69" font-family="Helvetica,sans-Serif" font-size="10.00">create_new_node_layer</text>
</a>
</g>
</g>
<!-- Node2&#45;&gt;Node3 -->
<g id="edge2" class="edge">
<title>Node2&#45;&gt;Node3</title>
<path fill="none" stroke="midnightblue" d="M236.45,-71.73C262.54,-81.14 302.62,-95.6 331.69,-106.09"/>
<polygon fill="midnightblue" stroke="midnightblue" points="330.87,-109.52 341.47,-109.62 333.25,-102.93 330.87,-109.52"/>
</g>
<!-- Node6 -->
<g id="node6" class="node">
<title>Node6</title>
<g id="a_node6"><a xlink:href="forcetree_8c.html#a95095093b87159c1b23a2cb267d9940a" target="_top" xlink:title=" ">
<polygon fill="white" stroke="black" points="492.5,-52.69 492.5,-71.69 571.5,-71.69 571.5,-52.69 492.5,-52.69"/>
<text text-anchor="middle" x="532" y="-59.69" font-family="Helvetica,sans-Serif" font-size="10.00">get_subnode</text>
</a>
</g>
</g>
<!-- Node2&#45;&gt;Node6 -->
<g id="edge15" class="edge">
<title>Node2&#45;&gt;Node6</title>
<path fill="none" stroke="midnightblue" d="M267.02,-62.19C328.08,-62.19 423.97,-62.19 481.82,-62.19"/>
<polygon fill="midnightblue" stroke="midnightblue" points="482.17,-65.69 492.17,-62.19 482.17,-58.69 482.17,-65.69"/>
</g>
<!-- Node11 -->
<g id="node11" class="node">
<title>Node11</title>
<g id="a_node11"><a xlink:href="forcetree_8c.html#adb744eb97469a1f65a702c05bc71cee1" target="_top" xlink:title=" ">
<polygon fill="white" stroke="black" points="471,-204.69 471,-223.69 593,-223.69 593,-204.69 471,-204.69"/>
<text text-anchor="middle" x="532" y="-211.69" font-family="Helvetica,sans-Serif" font-size="10.00">modify_internal_node</text>
</a>
</g>
</g>
<!-- Node2&#45;&gt;Node11 -->
<g id="edge16" class="edge">
<title>Node2&#45;&gt;Node11</title>
<path fill="none" stroke="midnightblue" d="M219.45,-71.91C235.36,-87.79 269.08,-119.39 303,-138.19 358.88,-169.16 429.47,-190.27 477.19,-202.24"/>
<polygon fill="midnightblue" stroke="midnightblue" points="476.47,-205.66 487.01,-204.65 478.14,-198.86 476.47,-205.66"/>
</g>
<!-- Node2&#45;&gt;Node13 -->
<g id="edge12" class="edge">
<title>Node2&#45;&gt;Node13</title>
<path fill="none" stroke="midnightblue" d="M249.87,-52.6C275.79,-46.37 309.22,-38.33 333.9,-32.39"/>
<polygon fill="midnightblue" stroke="midnightblue" points="334.99,-35.73 343.9,-29.99 333.35,-28.92 334.99,-35.73"/>
</g>
<!-- Node4 -->
<g id="node4" class="node">
<title>Node4</title>
<g id="a_node4"><a xlink:href="forcetree_8c.html#a6710cf447fc53308c513b002cf446ebf" target="_top" xlink:title=" ">
<polygon fill="white" stroke="black" points="491.5,-166.69 491.5,-185.69 572.5,-185.69 572.5,-166.69 491.5,-166.69"/>
<text text-anchor="middle" x="532" y="-173.69" font-family="Helvetica,sans-Serif" font-size="10.00">get_freenode</text>
</a>
</g>
</g>
<!-- Node3&#45;&gt;Node4 -->
<g id="edge3" class="edge">
<title>Node3&#45;&gt;Node4</title>
<path fill="none" stroke="midnightblue" d="M394.36,-128.77C414.73,-136.68 444.62,-148.06 471,-157.19 477.1,-159.3 483.58,-161.45 489.93,-163.5"/>
<polygon fill="midnightblue" stroke="midnightblue" points="489.16,-166.93 499.76,-166.64 491.29,-160.26 489.16,-166.93"/>
</g>
<!-- Node3&#45;&gt;Node6 -->
<g id="edge5" class="edge">
<title>Node3&#45;&gt;Node6</title>
<path fill="none" stroke="midnightblue" d="M394.36,-109.61C414.73,-101.7 444.62,-90.32 471,-81.19 477.1,-79.08 483.58,-76.93 489.93,-74.87"/>
<polygon fill="midnightblue" stroke="midnightblue" points="491.29,-78.11 499.76,-71.74 489.16,-71.45 491.29,-78.11"/>
</g>
<!-- Node7 -->
<g id="node7" class="node">
<title>Node7</title>
<g id="a_node7"><a xlink:href="forcetree_8c.html#a068d7c90773680cb8c9b0684d584420d" target="_top" xlink:title=" ">
<polygon fill="white" stroke="black" points="480,-128.69 480,-147.69 584,-147.69 584,-128.69 480,-128.69"/>
<text text-anchor="middle" x="532" y="-135.69" font-family="Helvetica,sans-Serif" font-size="10.00">init_internal_node</text>
</a>
</g>
</g>
<!-- Node3&#45;&gt;Node7 -->
<g id="edge6" class="edge">
<title>Node3&#45;&gt;Node7</title>
<path fill="none" stroke="midnightblue" d="M435.02,-126.86C446.38,-128.2 458.17,-129.59 469.43,-130.92"/>
<polygon fill="midnightblue" stroke="midnightblue" points="469.26,-134.43 479.6,-132.12 470.08,-127.47 469.26,-134.43"/>
</g>
<!-- Node8 -->
<g id="node8" class="node">
<title>Node8</title>
<g id="a_node8"><a xlink:href="endrun_8c.html#a6567cd867c5549fb6586e19ccd819764" target="_top" xlink:title=" ">
<polygon fill="white" stroke="black" points="501.5,-90.69 501.5,-109.69 562.5,-109.69 562.5,-90.69 501.5,-90.69"/>
<text text-anchor="middle" x="532" y="-97.69" font-family="Helvetica,sans-Serif" font-size="10.00">message</text>
</a>
</g>
</g>
<!-- Node3&#45;&gt;Node8 -->
<g id="edge7" class="edge">
<title>Node3&#45;&gt;Node8</title>
<path fill="none" stroke="midnightblue" d="M435.02,-111.52C454.1,-109.26 474.39,-106.87 491.37,-104.87"/>
<polygon fill="midnightblue" stroke="midnightblue" points="491.96,-108.32 501.48,-103.67 491.13,-101.37 491.96,-108.32"/>
</g>
<!-- Node3&#45;&gt;Node11 -->
<g id="edge10" class="edge">
<title>Node3&#45;&gt;Node11</title>
<path fill="none" stroke="midnightblue" d="M380.39,-128.93C397.84,-144.84 434.72,-176.49 471,-195.19 475.27,-197.39 479.84,-199.39 484.48,-201.2"/>
<polygon fill="midnightblue" stroke="midnightblue" points="483.45,-204.55 494.04,-204.65 485.82,-197.97 483.45,-204.55"/>
</g>
<!-- Node5 -->
<g id="node5" class="node">
<title>Node5</title>
<g id="a_node5"><a xlink:href="system_8h.html#a00eeba7aebd7952f4c0ecebb60fbeca2" target="_top" xlink:title=" ">
<polygon fill="white" stroke="black" points="629,-163.69 629,-182.69 756,-182.69 756,-163.69 629,-163.69"/>
<text text-anchor="middle" x="692.5" y="-170.69" font-family="Helvetica,sans-Serif" font-size="10.00">atomic_fetch_and_add</text>
</a>
</g>
</g>
<!-- Node4&#45;&gt;Node5 -->
<g id="edge4" class="edge">
<title>Node4&#45;&gt;Node5</title>
<path fill="none" stroke="midnightblue" d="M572.59,-175.44C586.5,-175.18 602.62,-174.87 618.4,-174.57"/>
<polygon fill="midnightblue" stroke="midnightblue" points="618.77,-178.07 628.7,-174.38 618.64,-171.07 618.77,-178.07"/>
</g>
<!-- Node9 -->
<g id="node9" class="node">
<title>Node9</title>
<g id="a_node9"><a xlink:href="system_8c.html#a341c8d27bd6c7dde856566810b412b1f" target="_top" xlink:title=" ">
<polygon fill="white" stroke="black" points="653,-33.69 653,-52.69 732,-52.69 732,-33.69 653,-33.69"/>
<text text-anchor="middle" x="692.5" y="-40.69" font-family="Helvetica,sans-Serif" font-size="10.00">MPIU_Tracev</text>
</a>
</g>
</g>
<!-- Node8&#45;&gt;Node9 -->
<g id="edge8" class="edge">
<title>Node8&#45;&gt;Node9</title>
<path fill="none" stroke="midnightblue" d="M562.72,-91.17C572.42,-88.13 583.21,-84.63 593,-81.19 614.95,-73.49 639.33,-64.09 658.35,-56.56"/>
<polygon fill="midnightblue" stroke="midnightblue" points="659.77,-59.76 667.77,-52.82 657.18,-53.26 659.77,-59.76"/>
</g>
<!-- Node10 -->
<g id="node10" class="node">
<title>Node10</title>
<g id="a_node10"><a xlink:href="system_8c.html#a87108946670b4c3afbe846c6726675ff" target="_top" xlink:title=" ">
<polygon fill="white" stroke="black" points="792,-33.69 792,-52.69 842,-52.69 842,-33.69 792,-33.69"/>
<text text-anchor="middle" x="817" y="-40.69" font-family="Helvetica,sans-Serif" font-size="10.00">putline</text>
</a>
</g>
</g>
<!-- Node9&#45;&gt;Node10 -->
<g id="edge9" class="edge">
<title>Node9&#45;&gt;Node10</title>
<path fill="none" stroke="midnightblue" d="M732.26,-43.19C748.09,-43.19 766.25,-43.19 781.61,-43.19"/>
<polygon fill="midnightblue" stroke="midnightblue" points="781.72,-46.69 791.72,-43.19 781.72,-39.69 781.72,-46.69"/>
</g>
<!-- Node12 -->
<g id="node12" class="node">
<title>Node12</title>
<g id="a_node12"><a xlink:href="forcetree_8c.html#a569cd386bf7d67968fad6344898cb70c" target="_top" xlink:title=" ">
<polygon fill="white" stroke="black" points="631,-202.19 631,-232.19 754,-232.19 754,-202.19 631,-202.19"/>
<text text-anchor="start" x="639" y="-220.19" font-family="Helvetica,sans-Serif" font-size="10.00">add_particle_moment</text>
<text text-anchor="middle" x="692.5" y="-209.19" font-family="Helvetica,sans-Serif" font-size="10.00">_to_node</text>
</a>
</g>
</g>
<!-- Node11&#45;&gt;Node12 -->
<g id="edge11" class="edge">
<title>Node11&#45;&gt;Node12</title>
<path fill="none" stroke="midnightblue" d="M593.37,-215.33C602.27,-215.5 611.51,-215.67 620.6,-215.85"/>
<polygon fill="midnightblue" stroke="midnightblue" points="620.7,-219.35 630.77,-216.04 620.84,-212.35 620.7,-219.35"/>
</g>
<!-- Node13&#45;&gt;Node9 -->
<g id="edge13" class="edge">
<title>Node13&#45;&gt;Node9</title>
<path fill="none" stroke="midnightblue" d="M394.3,-17.89C435.5,-8.16 521.57,8.11 593,-5.19 617.82,-9.81 644.44,-20.46 663.75,-29.31"/>
<polygon fill="midnightblue" stroke="midnightblue" points="662.32,-32.51 672.86,-33.61 665.31,-26.18 662.32,-32.51"/>
</g>
<!-- Node14 -->
<g id="node14" class="node">
<title>Node14</title>
<g id="a_node14"><a xlink:href="endrun_8c.html#a1200f02a595ab7cbe17c9e36ff32af0f" target="_top" xlink:title=" ">
<polygon fill="white" stroke="black" points="484.5,-14.69 484.5,-33.69 579.5,-33.69 579.5,-14.69 484.5,-14.69"/>
<text text-anchor="middle" x="532" y="-21.69" font-family="Helvetica,sans-Serif" font-size="10.00">show_backtrace</text>
</a>
</g>
</g>
<!-- Node13&#45;&gt;Node14 -->
<g id="edge14" class="edge">
<title>Node13&#45;&gt;Node14</title>
<path fill="none" stroke="midnightblue" d="M394.1,-24.19C415.18,-24.19 446.63,-24.19 474.07,-24.19"/>
<polygon fill="midnightblue" stroke="midnightblue" points="474.36,-27.69 484.36,-24.19 474.36,-20.69 474.36,-27.69"/>
</g>
</g>
</svg>
