<?xml version="1.0" encoding="UTF-8" standalone="no"?>
<!DOCTYPE svg PUBLIC "-//W3C//DTD SVG 1.1//EN"
 "http://www.w3.org/Graphics/SVG/1.1/DTD/svg11.dtd">
<!-- Generated by graphviz version 2.38.0 (20140413.2041)
 -->
<!-- Title: force_update_hmax Pages: 1 -->
<svg width="424pt" height="66pt"
 viewBox="0.00 0.00 424.00 66.00" xmlns="http://www.w3.org/2000/svg" xmlns:xlink="http://www.w3.org/1999/xlink">
<g id="graph0" class="graph" transform="scale(1 1) rotate(0) translate(4 62)">
<title>force_update_hmax</title>
<polygon fill="white" stroke="none" points="-4,4 -4,-62 420,-62 420,4 -4,4"/>
<!-- Node466 -->
<g id="node1" class="node"><title>Node466</title>
<polygon fill="#bfbfbf" stroke="black" points="0,-19.5 0,-38.5 102,-38.5 102,-19.5 0,-19.5"/>
<text text-anchor="middle" x="51" y="-26.5" font-family="Helvetica,sans-Serif" font-size="10.00">force_update_hmax</text>
</g>
<!-- Node467 -->
<g id="node2" class="node"><title>Node467</title>
<g id="a_node2"><a xlink:href="endrun_8c.html#a6567cd867c5549fb6586e19ccd819764" target="_top" xlink:title="message">
<polygon fill="white" stroke="black" points="138,-19.5 138,-38.5 194,-38.5 194,-19.5 138,-19.5"/>
<text text-anchor="middle" x="166" y="-26.5" font-family="Helvetica,sans-Serif" font-size="10.00">message</text>
</a>
</g>
</g>
<!-- Node466&#45;&gt;Node467 -->
<g id="edge1" class="edge"><title>Node466&#45;&gt;Node467</title>
<path fill="none" stroke="midnightblue" d="M102.222,-29C110.746,-29 119.464,-29 127.586,-29"/>
<polygon fill="midnightblue" stroke="midnightblue" points="127.853,-32.5001 137.853,-29 127.853,-25.5001 127.853,-32.5001"/>
</g>
<!-- Node468 -->
<g id="node3" class="node"><title>Node468</title>
<g id="a_node3"><a xlink:href="endrun_8c.html#a7267113a7c0a094743bb565eabc695d1" target="_top" xlink:title="messagev">
<polygon fill="white" stroke="black" points="230,-19.5 230,-38.5 292,-38.5 292,-19.5 230,-19.5"/>
<text text-anchor="middle" x="261" y="-26.5" font-family="Helvetica,sans-Serif" font-size="10.00">messagev</text>
</a>
</g>
</g>
<!-- Node467&#45;&gt;Node468 -->
<g id="edge2" class="edge"><title>Node467&#45;&gt;Node468</title>
<path fill="none" stroke="midnightblue" d="M194.4,-29C202.323,-29 211.142,-29 219.677,-29"/>
<polygon fill="midnightblue" stroke="midnightblue" points="219.87,-32.5001 229.87,-29 219.87,-25.5001 219.87,-32.5001"/>
</g>
<!-- Node469 -->
<g id="node4" class="node"><title>Node469</title>
<g id="a_node4"><a xlink:href="endrun_8c.html#a87108946670b4c3afbe846c6726675ff" target="_top" xlink:title="putline">
<polygon fill="white" stroke="black" points="349.5,-38.5 349.5,-57.5 394.5,-57.5 394.5,-38.5 349.5,-38.5"/>
<text text-anchor="middle" x="372" y="-45.5" font-family="Helvetica,sans-Serif" font-size="10.00">putline</text>
</a>
</g>
</g>
<!-- Node468&#45;&gt;Node469 -->
<g id="edge3" class="edge"><title>Node468&#45;&gt;Node469</title>
<path fill="none" stroke="midnightblue" d="M292.073,-34.2421C306.677,-36.7877 324.231,-39.8476 339.072,-42.4346"/>
<polygon fill="midnightblue" stroke="midnightblue" points="338.866,-45.9514 349.318,-44.2207 340.068,-39.0553 338.866,-45.9514"/>
</g>
<!-- Node470 -->
<g id="node5" class="node"><title>Node470</title>
<g id="a_node5"><a xlink:href="endrun_8c.html#a1200f02a595ab7cbe17c9e36ff32af0f" target="_top" xlink:title="show_backtrace">
<polygon fill="white" stroke="black" points="328,-0.5 328,-19.5 416,-19.5 416,-0.5 328,-0.5"/>
<text text-anchor="middle" x="372" y="-7.5" font-family="Helvetica,sans-Serif" font-size="10.00">show_backtrace</text>
</a>
</g>
</g>
<!-- Node468&#45;&gt;Node470 -->
<g id="edge4" class="edge"><title>Node468&#45;&gt;Node470</title>
<path fill="none" stroke="midnightblue" d="M292.073,-23.7579C300.131,-22.3533 309.087,-20.7921 317.991,-19.2402"/>
<polygon fill="midnightblue" stroke="midnightblue" points="318.719,-22.6661 327.969,-17.5008 317.517,-15.7701 318.719,-22.6661"/>
</g>
</g>
</svg>
