<?xml version="1.0" encoding="UTF-8" standalone="no"?>
<!DOCTYPE svg PUBLIC "-//W3C//DTD SVG 1.1//EN"
 "http://www.w3.org/Graphics/SVG/1.1/DTD/svg11.dtd">
<!-- Generated by graphviz version 2.38.0 (20140413.2041)
 -->
<!-- Title: force_update_node_recursive Pages: 1 -->
<svg width="599pt" height="189pt"
 viewBox="0.00 0.00 599.00 189.00" xmlns="http://www.w3.org/2000/svg" xmlns:xlink="http://www.w3.org/1999/xlink">
<g id="graph0" class="graph" transform="scale(1 1) rotate(0) translate(4 185)">
<title>force_update_node_recursive</title>
<polygon fill="white" stroke="none" points="-4,4 -4,-185 595,-185 595,4 -4,4"/>
<!-- Node477 -->
<g id="node1" class="node"><title>Node477</title>
<polygon fill="#bfbfbf" stroke="black" points="0,-76.5 0,-95.5 144,-95.5 144,-76.5 0,-76.5"/>
<text text-anchor="middle" x="72" y="-83.5" font-family="Helvetica,sans-Serif" font-size="10.00">force_update_node_recursive</text>
</g>
<!-- Node478 -->
<g id="node2" class="node"><title>Node478</title>
<g id="a_node2"><a xlink:href="forcetree_8c.html#a569cd386bf7d67968fad6344898cb70c" target="_top" xlink:title="add_particle_moment\l_to_node">
<polygon fill="white" stroke="black" points="180,-115 180,-145 290,-145 290,-115 180,-115"/>
<text text-anchor="start" x="188" y="-133" font-family="Helvetica,sans-Serif" font-size="10.00">add_particle_moment</text>
<text text-anchor="middle" x="235" y="-122" font-family="Helvetica,sans-Serif" font-size="10.00">_to_node</text>
</a>
</g>
</g>
<!-- Node477&#45;&gt;Node478 -->
<g id="edge1" class="edge"><title>Node477&#45;&gt;Node478</title>
<path fill="none" stroke="midnightblue" d="M107.935,-95.5473C126.058,-100.5 148.776,-106.709 169.916,-112.486"/>
<polygon fill="midnightblue" stroke="midnightblue" points="169.248,-115.932 179.817,-115.192 171.094,-109.18 169.248,-115.932"/>
</g>
<!-- Node479 -->
<g id="node3" class="node"><title>Node479</title>
<g id="a_node3"><a xlink:href="forcetree_8c.html#a756a7b1f862dd81ef83e1f6c00f8ebb2" target="_top" xlink:title="force_adjust_node_softening">
<polygon fill="white" stroke="black" points="326,-161.5 326,-180.5 467,-180.5 467,-161.5 326,-161.5"/>
<text text-anchor="middle" x="396.5" y="-168.5" font-family="Helvetica,sans-Serif" font-size="10.00">force_adjust_node_softening</text>
</a>
</g>
</g>
<!-- Node477&#45;&gt;Node479 -->
<g id="edge8" class="edge"><title>Node477&#45;&gt;Node479</title>
<path fill="none" stroke="midnightblue" d="M83.8817,-95.7247C102.197,-111.43 141.018,-141.933 180,-155 223.377,-169.54 274.328,-173.858 315.794,-174.394"/>
<polygon fill="midnightblue" stroke="midnightblue" points="315.827,-177.894 325.848,-174.453 315.869,-170.894 315.827,-177.894"/>
</g>
<!-- Node481 -->
<g id="node5" class="node"><title>Node481</title>
<g id="a_node5"><a xlink:href="endrun_8c.html#ad963d7efdb9f10f7a2298c8ccd222ab0" target="_top" xlink:title="endrun">
<polygon fill="white" stroke="black" points="212,-76.5 212,-95.5 258,-95.5 258,-76.5 212,-76.5"/>
<text text-anchor="middle" x="235" y="-83.5" font-family="Helvetica,sans-Serif" font-size="10.00">endrun</text>
</a>
</g>
</g>
<!-- Node477&#45;&gt;Node481 -->
<g id="edge4" class="edge"><title>Node477&#45;&gt;Node481</title>
<path fill="none" stroke="midnightblue" d="M144.086,-86C164.125,-86 184.953,-86 201.511,-86"/>
<polygon fill="midnightblue" stroke="midnightblue" points="201.725,-89.5001 211.725,-86 201.725,-82.5001 201.725,-89.5001"/>
</g>
<!-- Node485 -->
<g id="node9" class="node"><title>Node485</title>
<g id="a_node9"><a xlink:href="forcetree_8c.html#a96d9883368c2630c024e1196e849f07c" target="_top" xlink:title="force_get_next_node">
<polygon fill="white" stroke="black" points="181.5,-38.5 181.5,-57.5 288.5,-57.5 288.5,-38.5 181.5,-38.5"/>
<text text-anchor="middle" x="235" y="-45.5" font-family="Helvetica,sans-Serif" font-size="10.00">force_get_next_node</text>
</a>
</g>
</g>
<!-- Node477&#45;&gt;Node485 -->
<g id="edge9" class="edge"><title>Node477&#45;&gt;Node485</title>
<path fill="none" stroke="midnightblue" d="M113.627,-76.411C134.968,-71.3739 161.312,-65.1562 183.908,-59.8229"/>
<polygon fill="midnightblue" stroke="midnightblue" points="184.736,-63.2237 193.665,-57.5201 183.128,-56.4109 184.736,-63.2237"/>
</g>
<!-- Node486 -->
<g id="node10" class="node"><title>Node486</title>
<g id="a_node10"><a xlink:href="forcetree_8c.html#a8571da12c389bfcf10555865a0e3882d" target="_top" xlink:title="force_set_next_node">
<polygon fill="white" stroke="black" points="181.5,-0.5 181.5,-19.5 288.5,-19.5 288.5,-0.5 181.5,-0.5"/>
<text text-anchor="middle" x="235" y="-7.5" font-family="Helvetica,sans-Serif" font-size="10.00">force_set_next_node</text>
</a>
</g>
</g>
<!-- Node477&#45;&gt;Node486 -->
<g id="edge10" class="edge"><title>Node477&#45;&gt;Node486</title>
<path fill="none" stroke="midnightblue" d="M89.2948,-76.3193C109.947,-64.2856 146.855,-43.5598 180,-29 184.713,-26.9297 189.73,-24.9193 194.734,-23.0294"/>
<polygon fill="midnightblue" stroke="midnightblue" points="196.061,-26.2709 204.259,-19.5593 193.665,-19.6938 196.061,-26.2709"/>
</g>
<!-- Node478&#45;&gt;Node479 -->
<g id="edge2" class="edge"><title>Node478&#45;&gt;Node479</title>
<path fill="none" stroke="midnightblue" d="M290.445,-143.995C309.329,-148.849 330.324,-154.246 348.552,-158.932"/>
<polygon fill="midnightblue" stroke="midnightblue" points="347.806,-162.354 358.362,-161.454 349.548,-155.574 347.806,-162.354"/>
</g>
<!-- Node480 -->
<g id="node4" class="node"><title>Node480</title>
<g id="a_node4"><a xlink:href="partmanager_8h.html#a75af6ed4098fb6fbcc96a532b6e1bd11" target="_top" xlink:title="FORCE_SOFTENING">
<polygon fill="white" stroke="black" points="338.5,-120.5 338.5,-139.5 454.5,-139.5 454.5,-120.5 338.5,-120.5"/>
<text text-anchor="middle" x="396.5" y="-127.5" font-family="Helvetica,sans-Serif" font-size="10.00">FORCE_SOFTENING</text>
</a>
</g>
</g>
<!-- Node478&#45;&gt;Node480 -->
<g id="edge3" class="edge"><title>Node478&#45;&gt;Node480</title>
<path fill="none" stroke="midnightblue" d="M290.445,-130C302.622,-130 315.677,-130 328.301,-130"/>
<polygon fill="midnightblue" stroke="midnightblue" points="328.308,-133.5 338.308,-130 328.308,-126.5 328.308,-133.5"/>
</g>
<!-- Node482 -->
<g id="node6" class="node"><title>Node482</title>
<g id="a_node6"><a xlink:href="endrun_8c.html#a7267113a7c0a094743bb565eabc695d1" target="_top" xlink:title="messagev">
<polygon fill="white" stroke="black" points="365.5,-76.5 365.5,-95.5 427.5,-95.5 427.5,-76.5 365.5,-76.5"/>
<text text-anchor="middle" x="396.5" y="-83.5" font-family="Helvetica,sans-Serif" font-size="10.00">messagev</text>
</a>
</g>
</g>
<!-- Node481&#45;&gt;Node482 -->
<g id="edge5" class="edge"><title>Node481&#45;&gt;Node482</title>
<path fill="none" stroke="midnightblue" d="M258.178,-86C283.14,-86 324.215,-86 354.95,-86"/>
<polygon fill="midnightblue" stroke="midnightblue" points="355.347,-89.5001 365.347,-86 355.347,-82.5001 355.347,-89.5001"/>
</g>
<!-- Node483 -->
<g id="node7" class="node"><title>Node483</title>
<g id="a_node7"><a xlink:href="endrun_8c.html#a87108946670b4c3afbe846c6726675ff" target="_top" xlink:title="putline">
<polygon fill="white" stroke="black" points="524.5,-95.5 524.5,-114.5 569.5,-114.5 569.5,-95.5 524.5,-95.5"/>
<text text-anchor="middle" x="547" y="-102.5" font-family="Helvetica,sans-Serif" font-size="10.00">putline</text>
</a>
</g>
</g>
<!-- Node482&#45;&gt;Node483 -->
<g id="edge6" class="edge"><title>Node482&#45;&gt;Node483</title>
<path fill="none" stroke="midnightblue" d="M427.551,-89.8449C452.728,-93.0662 488.565,-97.6514 514.215,-100.933"/>
<polygon fill="midnightblue" stroke="midnightblue" points="513.82,-104.411 524.183,-102.209 514.708,-97.4677 513.82,-104.411"/>
</g>
<!-- Node484 -->
<g id="node8" class="node"><title>Node484</title>
<g id="a_node8"><a xlink:href="endrun_8c.html#a1200f02a595ab7cbe17c9e36ff32af0f" target="_top" xlink:title="show_backtrace">
<polygon fill="white" stroke="black" points="503,-57.5 503,-76.5 591,-76.5 591,-57.5 503,-57.5"/>
<text text-anchor="middle" x="547" y="-64.5" font-family="Helvetica,sans-Serif" font-size="10.00">show_backtrace</text>
</a>
</g>
</g>
<!-- Node482&#45;&gt;Node484 -->
<g id="edge7" class="edge"><title>Node482&#45;&gt;Node484</title>
<path fill="none" stroke="midnightblue" d="M427.551,-82.1551C446.208,-79.768 470.718,-76.632 492.599,-73.8324"/>
<polygon fill="midnightblue" stroke="midnightblue" points="493.289,-77.2728 502.764,-72.5319 492.401,-70.3294 493.289,-77.2728"/>
</g>
</g>
</svg>
