<?xml version="1.0" encoding="UTF-8" standalone="no"?>
<!DOCTYPE svg PUBLIC "-//W3C//DTD SVG 1.1//EN"
 "http://www.w3.org/Graphics/SVG/1.1/DTD/svg11.dtd">
<!-- Generated by graphviz version 2.50.0 (0)
 -->
<!-- Title: create_new_node_layer Pages: 1 -->
<svg width="547pt" height="190pt"
 viewBox="0.00 0.00 547.00 189.50" xmlns="http://www.w3.org/2000/svg" xmlns:xlink="http://www.w3.org/1999/xlink">
<g id="graph0" class="graph" transform="scale(1 1) rotate(0) translate(4 185.5)">
<title>create_new_node_layer</title>
<polygon fill="white" stroke="transparent" points="-4,4 -4,-185.5 543,-185.5 543,4 -4,4"/>
<!-- Node1 -->
<g id="node1" class="node">
<title>Node1</title>
<g id="a_node1"><a xlink:title=" ">
<polygon fill="#bfbfbf" stroke="black" points="0,-86 0,-105 132,-105 132,-86 0,-86"/>
<text text-anchor="middle" x="66" y="-93" font-family="Helvetica,sans-Serif" font-size="10.00">create_new_node_layer</text>
</a>
</g>
</g>
<!-- Node2 -->
<g id="node2" class="node">
<title>Node2</title>
<g id="a_node2"><a xlink:href="forcetree_8c.html#a6710cf447fc53308c513b002cf446ebf" target="_top" xlink:title=" ">
<polygon fill="white" stroke="black" points="188.5,-162 188.5,-181 269.5,-181 269.5,-162 188.5,-162"/>
<text text-anchor="middle" x="229" y="-169" font-family="Helvetica,sans-Serif" font-size="10.00">get_freenode</text>
</a>
</g>
</g>
<!-- Node1&#45;&gt;Node2 -->
<g id="edge1" class="edge">
<title>Node1&#45;&gt;Node2</title>
<path fill="none" stroke="midnightblue" d="M81.89,-105.21C101.16,-117.46 136.06,-138.61 168,-152.5 173.07,-154.71 178.49,-156.78 183.91,-158.69"/>
<polygon fill="midnightblue" stroke="midnightblue" points="183,-162.08 193.6,-161.95 185.23,-155.45 183,-162.08"/>
</g>
<!-- Node4 -->
<g id="node4" class="node">
<title>Node4</title>
<g id="a_node4"><a xlink:href="forcetree_8c.html#a95095093b87159c1b23a2cb267d9940a" target="_top" xlink:title=" ">
<polygon fill="white" stroke="black" points="189.5,-124 189.5,-143 268.5,-143 268.5,-124 189.5,-124"/>
<text text-anchor="middle" x="229" y="-131" font-family="Helvetica,sans-Serif" font-size="10.00">get_subnode</text>
</a>
</g>
</g>
<!-- Node1&#45;&gt;Node4 -->
<g id="edge3" class="edge">
<title>Node1&#45;&gt;Node4</title>
<path fill="none" stroke="midnightblue" d="M107.63,-105.09C129.46,-110.24 156.52,-116.63 179.45,-122.04"/>
<polygon fill="midnightblue" stroke="midnightblue" points="178.79,-125.48 189.33,-124.37 180.4,-118.67 178.79,-125.48"/>
</g>
<!-- Node5 -->
<g id="node5" class="node">
<title>Node5</title>
<g id="a_node5"><a xlink:href="forcetree_8c.html#a068d7c90773680cb8c9b0684d584420d" target="_top" xlink:title=" ">
<polygon fill="white" stroke="black" points="177,-86 177,-105 281,-105 281,-86 177,-86"/>
<text text-anchor="middle" x="229" y="-93" font-family="Helvetica,sans-Serif" font-size="10.00">init_internal_node</text>
</a>
</g>
</g>
<!-- Node1&#45;&gt;Node5 -->
<g id="edge4" class="edge">
<title>Node1&#45;&gt;Node5</title>
<path fill="none" stroke="midnightblue" d="M132.02,-95.5C143.38,-95.5 155.17,-95.5 166.43,-95.5"/>
<polygon fill="midnightblue" stroke="midnightblue" points="166.6,-99 176.6,-95.5 166.6,-92 166.6,-99"/>
</g>
<!-- Node6 -->
<g id="node6" class="node">
<title>Node6</title>
<g id="a_node6"><a xlink:href="endrun_8c.html#a6567cd867c5549fb6586e19ccd819764" target="_top" xlink:title=" ">
<polygon fill="white" stroke="black" points="198.5,-48 198.5,-67 259.5,-67 259.5,-48 198.5,-48"/>
<text text-anchor="middle" x="229" y="-55" font-family="Helvetica,sans-Serif" font-size="10.00">message</text>
</a>
</g>
</g>
<!-- Node1&#45;&gt;Node6 -->
<g id="edge5" class="edge">
<title>Node1&#45;&gt;Node6</title>
<path fill="none" stroke="midnightblue" d="M107.63,-85.91C132.32,-80.08 163.72,-72.67 188.26,-66.88"/>
<polygon fill="midnightblue" stroke="midnightblue" points="189.38,-70.21 198.31,-64.51 187.78,-63.4 189.38,-70.21"/>
</g>
<!-- Node9 -->
<g id="node9" class="node">
<title>Node9</title>
<g id="a_node9"><a xlink:href="forcetree_8c.html#adb744eb97469a1f65a702c05bc71cee1" target="_top" xlink:title=" ">
<polygon fill="white" stroke="black" points="168,-9 168,-28 290,-28 290,-9 168,-9"/>
<text text-anchor="middle" x="229" y="-16" font-family="Helvetica,sans-Serif" font-size="10.00">modify_internal_node</text>
</a>
</g>
</g>
<!-- Node1&#45;&gt;Node9 -->
<g id="edge8" class="edge">
<title>Node1&#45;&gt;Node9</title>
<path fill="none" stroke="midnightblue" d="M81.93,-85.87C101.23,-73.69 136.16,-52.63 168,-38.5 173.73,-35.96 179.89,-33.55 186,-31.35"/>
<polygon fill="midnightblue" stroke="midnightblue" points="187.18,-34.65 195.49,-28.07 184.9,-28.03 187.18,-34.65"/>
</g>
<!-- Node3 -->
<g id="node3" class="node">
<title>Node3</title>
<g id="a_node3"><a xlink:href="system_8h.html#a00eeba7aebd7952f4c0ecebb60fbeca2" target="_top" xlink:title=" ">
<polygon fill="white" stroke="black" points="326,-162 326,-181 453,-181 453,-162 326,-162"/>
<text text-anchor="middle" x="389.5" y="-169" font-family="Helvetica,sans-Serif" font-size="10.00">atomic_fetch_and_add</text>
</a>
</g>
</g>
<!-- Node2&#45;&gt;Node3 -->
<g id="edge2" class="edge">
<title>Node2&#45;&gt;Node3</title>
<path fill="none" stroke="midnightblue" d="M269.59,-171.5C283.5,-171.5 299.62,-171.5 315.4,-171.5"/>
<polygon fill="midnightblue" stroke="midnightblue" points="315.7,-175 325.7,-171.5 315.7,-168 315.7,-175"/>
</g>
<!-- Node7 -->
<g id="node7" class="node">
<title>Node7</title>
<g id="a_node7"><a xlink:href="system_8c.html#a341c8d27bd6c7dde856566810b412b1f" target="_top" xlink:title=" ">
<polygon fill="white" stroke="black" points="350,-50 350,-69 429,-69 429,-50 350,-50"/>
<text text-anchor="middle" x="389.5" y="-57" font-family="Helvetica,sans-Serif" font-size="10.00">MPIU_Tracev</text>
</a>
</g>
</g>
<!-- Node6&#45;&gt;Node7 -->
<g id="edge6" class="edge">
<title>Node6&#45;&gt;Node7</title>
<path fill="none" stroke="midnightblue" d="M259.81,-57.88C282.3,-58.16 313.62,-58.56 339.73,-58.88"/>
<polygon fill="midnightblue" stroke="midnightblue" points="339.78,-62.39 349.82,-59.01 339.87,-55.39 339.78,-62.39"/>
</g>
<!-- Node8 -->
<g id="node8" class="node">
<title>Node8</title>
<g id="a_node8"><a xlink:href="system_8c.html#a87108946670b4c3afbe846c6726675ff" target="_top" xlink:title=" ">
<polygon fill="white" stroke="black" points="489,-50 489,-69 539,-69 539,-50 489,-50"/>
<text text-anchor="middle" x="514" y="-57" font-family="Helvetica,sans-Serif" font-size="10.00">putline</text>
</a>
</g>
</g>
<!-- Node7&#45;&gt;Node8 -->
<g id="edge7" class="edge">
<title>Node7&#45;&gt;Node8</title>
<path fill="none" stroke="midnightblue" d="M429.26,-59.5C445.09,-59.5 463.25,-59.5 478.61,-59.5"/>
<polygon fill="midnightblue" stroke="midnightblue" points="478.72,-63 488.72,-59.5 478.72,-56 478.72,-63"/>
</g>
<!-- Node10 -->
<g id="node10" class="node">
<title>Node10</title>
<g id="a_node10"><a xlink:href="forcetree_8c.html#a569cd386bf7d67968fad6344898cb70c" target="_top" xlink:title=" ">
<polygon fill="white" stroke="black" points="328,-0.5 328,-30.5 451,-30.5 451,-0.5 328,-0.5"/>
<text text-anchor="start" x="336" y="-18.5" font-family="Helvetica,sans-Serif" font-size="10.00">add_particle_moment</text>
<text text-anchor="middle" x="389.5" y="-7.5" font-family="Helvetica,sans-Serif" font-size="10.00">_to_node</text>
</a>
</g>
</g>
<!-- Node9&#45;&gt;Node10 -->
<g id="edge9" class="edge">
<title>Node9&#45;&gt;Node10</title>
<path fill="none" stroke="midnightblue" d="M290.37,-17.36C299.27,-17.19 308.51,-17.01 317.6,-16.84"/>
<polygon fill="midnightblue" stroke="midnightblue" points="317.84,-20.34 327.77,-16.65 317.7,-13.34 317.84,-20.34"/>
</g>
</g>
</svg>
