<?xml version="1.0" encoding="UTF-8" standalone="no"?>
<!DOCTYPE svg PUBLIC "-//W3C//DTD SVG 1.1//EN"
 "http://www.w3.org/Graphics/SVG/1.1/DTD/svg11.dtd">
<!-- Generated by graphviz version 2.38.0 (20140413.2041)
 -->
<!-- Title: force_tree_build_single Pages: 1 -->
<svg width="1075pt" height="256pt"
 viewBox="0.00 0.00 1075.00 256.00" xmlns="http://www.w3.org/2000/svg" xmlns:xlink="http://www.w3.org/1999/xlink">
<g id="graph0" class="graph" transform="scale(1 1) rotate(0) translate(4 252)">
<title>force_tree_build_single</title>
<polygon fill="white" stroke="none" points="-4,4 -4,-252 1071,-252 1071,4 -4,4"/>
<!-- Node275 -->
<g id="node1" class="node"><title>Node275</title>
<polygon fill="#bfbfbf" stroke="black" points="0,-76.5 0,-95.5 116,-95.5 116,-76.5 0,-76.5"/>
<text text-anchor="middle" x="58" y="-83.5" font-family="Helvetica,sans-Serif" font-size="10.00">force_tree_build_single</text>
</g>
<!-- Node276 -->
<g id="node2" class="node"><title>Node276</title>
<g id="a_node2"><a xlink:href="forcetree_8c.html#a69350a797a01322b05ec26913d2fa62d" target="_top" xlink:title="force_tree_build">
<polygon fill="white" stroke="black" points="152,-76.5 152,-95.5 238,-95.5 238,-76.5 152,-76.5"/>
<text text-anchor="middle" x="195" y="-83.5" font-family="Helvetica,sans-Serif" font-size="10.00">force_tree_build</text>
</a>
</g>
</g>
<!-- Node275&#45;&gt;Node276 -->
<g id="edge1" class="edge"><title>Node275&#45;&gt;Node276</title>
<path fill="none" stroke="midnightblue" d="M126.387,-86C135.051,-86 143.717,-86 151.814,-86"/>
<polygon fill="midnightblue" stroke="midnightblue" points="126.252,-82.5001 116.252,-86 126.252,-89.5001 126.252,-82.5001"/>
</g>
<!-- Node277 -->
<g id="node3" class="node"><title>Node277</title>
<g id="a_node3"><a xlink:href="forcetree_8h.html#a45a1a710bd7d997dbe7cf22a7600b731" target="_top" xlink:title="force_tree_rebuild">
<polygon fill="white" stroke="black" points="274,-76.5 274,-95.5 368,-95.5 368,-76.5 274,-76.5"/>
<text text-anchor="middle" x="321" y="-83.5" font-family="Helvetica,sans-Serif" font-size="10.00">force_tree_rebuild</text>
</a>
</g>
</g>
<!-- Node276&#45;&gt;Node277 -->
<g id="edge2" class="edge"><title>Node276&#45;&gt;Node277</title>
<path fill="none" stroke="midnightblue" d="M248.387,-86C256.768,-86 265.388,-86 273.616,-86"/>
<polygon fill="midnightblue" stroke="midnightblue" points="248.327,-82.5001 238.327,-86 248.327,-89.5001 248.327,-82.5001"/>
</g>
<!-- Node278 -->
<g id="node4" class="node"><title>Node278</title>
<g id="a_node4"><a xlink:href="domain_8h.html#a168c36ec12faca23e23395b6a13d2037" target="_top" xlink:title="domain_decompose_full">
<polygon fill="white" stroke="black" points="404,-114.5 404,-133.5 526,-133.5 526,-114.5 404,-114.5"/>
<text text-anchor="middle" x="465" y="-121.5" font-family="Helvetica,sans-Serif" font-size="10.00">domain_decompose_full</text>
</a>
</g>
</g>
<!-- Node277&#45;&gt;Node278 -->
<g id="edge3" class="edge"><title>Node277&#45;&gt;Node278</title>
<path fill="none" stroke="midnightblue" d="M367.493,-98.1742C387.128,-103.429 409.766,-109.487 428.179,-114.414"/>
<polygon fill="midnightblue" stroke="midnightblue" points="368.397,-94.7931 357.833,-95.589 366.588,-101.555 368.397,-94.7931"/>
</g>
<!-- Node279 -->
<g id="node5" class="node"><title>Node279</title>
<g id="a_node5"><a xlink:href="domain_8h.html#acf7b74bdcb6563a4603538914fc16157" target="_top" xlink:title="domain_maintain">
<polygon fill="white" stroke="black" points="575.5,-76.5 575.5,-95.5 665.5,-95.5 665.5,-76.5 575.5,-76.5"/>
<text text-anchor="middle" x="620.5" y="-83.5" font-family="Helvetica,sans-Serif" font-size="10.00">domain_maintain</text>
</a>
</g>
</g>
<!-- Node277&#45;&gt;Node279 -->
<g id="edge16" class="edge"><title>Node277&#45;&gt;Node279</title>
<path fill="none" stroke="midnightblue" d="M378.465,-86C435.617,-86 522.817,-86 575.178,-86"/>
<polygon fill="midnightblue" stroke="midnightblue" points="378.158,-82.5001 368.158,-86 378.158,-89.5001 378.158,-82.5001"/>
</g>
<!-- Node280 -->
<g id="node6" class="node"><title>Node280</title>
<g id="a_node6"><a xlink:href="run_8c.html#a05e0ffe612d44e6d7f3a9ae5b9df56a2" target="_top" xlink:title="run">
<polygon fill="white" stroke="black" points="723,-114.5 723,-133.5 753,-133.5 753,-114.5 723,-114.5"/>
<text text-anchor="middle" x="738" y="-121.5" font-family="Helvetica,sans-Serif" font-size="10.00">run</text>
</a>
</g>
</g>
<!-- Node277&#45;&gt;Node280 -->
<g id="edge24" class="edge"><title>Node277&#45;&gt;Node280</title>
<path fill="none" stroke="midnightblue" d="M360.456,-73.5894C427.874,-54.0411 570.539,-22.6256 679,-67 702.52,-76.6228 721.639,-100.893 730.919,-114.456"/>
<polygon fill="midnightblue" stroke="midnightblue" points="359.271,-70.2901 350.683,-76.4942 361.265,-77 359.271,-70.2901"/>
</g>
<!-- Node287 -->
<g id="node13" class="node"><title>Node287</title>
<g id="a_node13"><a xlink:href="fof_8h.html#ad08d3c5fd1cf1f78c75a17330a8e0348" target="_top" xlink:title="fof_save_groups">
<polygon fill="white" stroke="black" points="420.5,-0.5 420.5,-19.5 509.5,-19.5 509.5,-0.5 420.5,-0.5"/>
<text text-anchor="middle" x="465" y="-7.5" font-family="Helvetica,sans-Serif" font-size="10.00">fof_save_groups</text>
</a>
</g>
</g>
<!-- Node277&#45;&gt;Node287 -->
<g id="edge17" class="edge"><title>Node277&#45;&gt;Node287</title>
<path fill="none" stroke="midnightblue" d="M343.708,-70.6756C359.871,-59.656 382.727,-44.882 404,-34 414.488,-28.6353 426.466,-23.6339 436.947,-19.6002"/>
<polygon fill="midnightblue" stroke="midnightblue" points="341.71,-67.8013 335.469,-76.3627 345.687,-73.5621 341.71,-67.8013"/>
</g>
<!-- Node289 -->
<g id="node15" class="node"><title>Node289</title>
<g id="a_node15"><a xlink:href="proto_8h.html#a6a55456b331c8b01d7ae1352809b82f2" target="_top" xlink:title="gravpm_force">
<polygon fill="white" stroke="black" points="427,-190.5 427,-209.5 503,-209.5 503,-190.5 427,-190.5"/>
<text text-anchor="middle" x="465" y="-197.5" font-family="Helvetica,sans-Serif" font-size="10.00">gravpm_force</text>
</a>
</g>
</g>
<!-- Node277&#45;&gt;Node289 -->
<g id="edge20" class="edge"><title>Node277&#45;&gt;Node289</title>
<path fill="none" stroke="midnightblue" d="M342.188,-102.208C372.167,-126.275 427.532,-170.723 451.924,-190.305"/>
<polygon fill="midnightblue" stroke="midnightblue" points="344.096,-99.2507 334.107,-95.7196 339.714,-104.709 344.096,-99.2507"/>
</g>
<!-- Node278&#45;&gt;Node279 -->
<g id="edge4" class="edge"><title>Node278&#45;&gt;Node279</title>
<path fill="none" stroke="midnightblue" d="M514.635,-111.96C536.08,-106.651 560.923,-100.501 581.044,-95.5201"/>
<polygon fill="midnightblue" stroke="midnightblue" points="513.6,-108.61 504.735,-114.411 515.283,-115.405 513.6,-108.61"/>
</g>
<!-- Node278&#45;&gt;Node280 -->
<g id="edge13" class="edge"><title>Node278&#45;&gt;Node280</title>
<path fill="none" stroke="midnightblue" d="M536.518,-124C600.112,-124 688.728,-124 722.841,-124"/>
<polygon fill="midnightblue" stroke="midnightblue" points="536.144,-120.5 526.144,-124 536.144,-127.5 536.144,-120.5"/>
</g>
<!-- Node284 -->
<g id="node10" class="node"><title>Node284</title>
<g id="a_node10"><a xlink:href="proto_8h.html#ab080cb20bac2a1a6153a84e8cfd15374" target="_top" xlink:title="init">
<polygon fill="white" stroke="black" points="606,-152.5 606,-171.5 635,-171.5 635,-152.5 606,-152.5"/>
<text text-anchor="middle" x="620.5" y="-159.5" font-family="Helvetica,sans-Serif" font-size="10.00">init</text>
</a>
</g>
</g>
<!-- Node278&#45;&gt;Node284 -->
<g id="edge10" class="edge"><title>Node278&#45;&gt;Node284</title>
<path fill="none" stroke="midnightblue" d="M514.74,-136.066C546.462,-143.919 585.581,-153.603 605.861,-158.624"/>
<polygon fill="midnightblue" stroke="midnightblue" points="515.283,-132.595 504.735,-133.589 513.6,-139.39 515.283,-132.595"/>
</g>
<!-- Node286 -->
<g id="node12" class="node"><title>Node286</title>
<g id="a_node12"><a xlink:href="runtests_8c.html#a549024555ca61e3f05a7100307e44f69" target="_top" xlink:title="runtests">
<polygon fill="white" stroke="black" points="594.5,-190.5 594.5,-209.5 646.5,-209.5 646.5,-190.5 594.5,-190.5"/>
<text text-anchor="middle" x="620.5" y="-197.5" font-family="Helvetica,sans-Serif" font-size="10.00">runtests</text>
</a>
</g>
</g>
<!-- Node278&#45;&gt;Node286 -->
<g id="edge14" class="edge"><title>Node278&#45;&gt;Node286</title>
<path fill="none" stroke="midnightblue" d="M488.645,-139.356C507.633,-151.758 535.776,-169.053 562,-181 572.333,-185.707 584.181,-189.824 594.427,-193.012"/>
<polygon fill="midnightblue" stroke="midnightblue" points="490.378,-136.306 480.107,-133.706 486.515,-142.144 490.378,-136.306"/>
</g>
<!-- Node279&#45;&gt;Node280 -->
<g id="edge5" class="edge"><title>Node279&#45;&gt;Node280</title>
<path fill="none" stroke="midnightblue" d="M660.241,-98.7459C681.847,-105.854 707.449,-114.278 722.946,-119.376"/>
<polygon fill="midnightblue" stroke="midnightblue" points="661.238,-95.3896 650.646,-95.589 659.051,-102.039 661.238,-95.3896"/>
</g>
<!-- Node281 -->
<g id="node7" class="node"><title>Node281</title>
<g id="a_node7"><a xlink:href="main_8c.html#a3c04138a5bfe5d72780bb7e82a18e627" target="_top" xlink:title="main">
<polygon fill="white" stroke="black" points="797,-152.5 797,-171.5 835,-171.5 835,-152.5 797,-152.5"/>
<text text-anchor="middle" x="816" y="-159.5" font-family="Helvetica,sans-Serif" font-size="10.00">main</text>
</a>
</g>
</g>
<!-- Node280&#45;&gt;Node281 -->
<g id="edge6" class="edge"><title>Node280&#45;&gt;Node281</title>
<path fill="none" stroke="midnightblue" d="M762.387,-135.693C773.434,-141.217 786.425,-147.712 796.734,-152.867"/>
<polygon fill="midnightblue" stroke="midnightblue" points="763.805,-132.489 753.295,-131.148 760.674,-138.75 763.805,-132.489"/>
</g>
<!-- Node282 -->
<g id="node8" class="node"><title>Node282</title>
<g id="a_node8"><a xlink:href="walltime_8h.html#a76d2135b612766d4d665748454b879d6" target="_top" xlink:title="walltime_report">
<polygon fill="white" stroke="black" points="871,-152.5 871,-171.5 954,-171.5 954,-152.5 871,-152.5"/>
<text text-anchor="middle" x="912.5" y="-159.5" font-family="Helvetica,sans-Serif" font-size="10.00">walltime_report</text>
</a>
</g>
</g>
<!-- Node281&#45;&gt;Node282 -->
<g id="edge7" class="edge"><title>Node281&#45;&gt;Node282</title>
<path fill="none" stroke="midnightblue" d="M845.411,-162C853.347,-162 862.132,-162 870.635,-162"/>
<polygon fill="midnightblue" stroke="midnightblue" points="845.221,-158.5 835.221,-162 845.221,-165.5 845.221,-158.5"/>
</g>
<!-- Node283 -->
<g id="node9" class="node"><title>Node283</title>
<g id="a_node9"><a xlink:href="run_8c.html#adc59e9ee1517e4e690694a64ab6a59d2" target="_top" xlink:title="write_cpu_log">
<polygon fill="white" stroke="black" points="990,-133.5 990,-152.5 1067,-152.5 1067,-133.5 990,-133.5"/>
<text text-anchor="middle" x="1028.5" y="-140.5" font-family="Helvetica,sans-Serif" font-size="10.00">write_cpu_log</text>
</a>
</g>
</g>
<!-- Node282&#45;&gt;Node283 -->
<g id="edge8" class="edge"><title>Node282&#45;&gt;Node283</title>
<path fill="none" stroke="midnightblue" d="M964.031,-153.578C972.684,-152.136 981.54,-150.66 989.785,-149.286"/>
<polygon fill="midnightblue" stroke="midnightblue" points="963.302,-150.151 954.013,-155.248 964.452,-157.056 963.302,-150.151"/>
</g>
<!-- Node283&#45;&gt;Node280 -->
<g id="edge9" class="edge"><title>Node283&#45;&gt;Node280</title>
<path fill="none" stroke="midnightblue" d="M979.504,-139.839C912.378,-135.418 794.102,-127.629 753.307,-124.942"/>
<polygon fill="midnightblue" stroke="midnightblue" points="979.61,-143.354 989.818,-140.518 980.07,-136.369 979.61,-143.354"/>
</g>
<!-- Node285 -->
<g id="node11" class="node"><title>Node285</title>
<g id="a_node11"><a xlink:href="proto_8h.html#a74dc0e5e9eefe11fc8434b62de573146" target="_top" xlink:title="begrun">
<polygon fill="white" stroke="black" points="715,-152.5 715,-171.5 761,-171.5 761,-152.5 715,-152.5"/>
<text text-anchor="middle" x="738" y="-159.5" font-family="Helvetica,sans-Serif" font-size="10.00">begrun</text>
</a>
</g>
</g>
<!-- Node284&#45;&gt;Node285 -->
<g id="edge11" class="edge"><title>Node284&#45;&gt;Node285</title>
<path fill="none" stroke="midnightblue" d="M645.217,-162C665.557,-162 694.653,-162 714.602,-162"/>
<polygon fill="midnightblue" stroke="midnightblue" points="645.203,-158.5 635.203,-162 645.203,-165.5 645.203,-158.5"/>
</g>
<!-- Node285&#45;&gt;Node281 -->
<g id="edge12" class="edge"><title>Node285&#45;&gt;Node281</title>
<path fill="none" stroke="midnightblue" d="M771.541,-162C780.114,-162 789.067,-162 796.603,-162"/>
<polygon fill="midnightblue" stroke="midnightblue" points="771.391,-158.5 761.391,-162 771.391,-165.5 771.391,-158.5"/>
</g>
<!-- Node286&#45;&gt;Node281 -->
<g id="edge15" class="edge"><title>Node286&#45;&gt;Node281</title>
<path fill="none" stroke="midnightblue" d="M656.982,-197.171C685.398,-194.427 726.132,-189.416 761,-181 773.173,-178.062 786.444,-173.413 796.784,-169.45"/>
<polygon fill="midnightblue" stroke="midnightblue" points="656.369,-193.712 646.732,-198.114 657.011,-200.683 656.369,-193.712"/>
</g>
<!-- Node288 -->
<g id="node14" class="node"><title>Node288</title>
<g id="a_node14"><a xlink:href="proto_8h.html#a312b6a02f7cde171412989ea5f9be48f" target="_top" xlink:title="write_checkpoint">
<polygon fill="white" stroke="black" points="575.5,-0.5 575.5,-19.5 665.5,-19.5 665.5,-0.5 575.5,-0.5"/>
<text text-anchor="middle" x="620.5" y="-7.5" font-family="Helvetica,sans-Serif" font-size="10.00">write_checkpoint</text>
</a>
</g>
</g>
<!-- Node287&#45;&gt;Node288 -->
<g id="edge18" class="edge"><title>Node287&#45;&gt;Node288</title>
<path fill="none" stroke="midnightblue" d="M519.727,-10C537.888,-10 557.944,-10 575.282,-10"/>
<polygon fill="midnightblue" stroke="midnightblue" points="519.576,-6.5001 509.576,-10 519.576,-13.5001 519.576,-6.5001"/>
</g>
<!-- Node288&#45;&gt;Node280 -->
<g id="edge19" class="edge"><title>Node288&#45;&gt;Node280</title>
<path fill="none" stroke="midnightblue" d="M663.332,-23.8811C668.918,-26.732 674.324,-30.086 679,-34 706.369,-56.9067 725.31,-96.0783 733.069,-114.232"/>
<polygon fill="midnightblue" stroke="midnightblue" points="664.406,-20.5238 653.857,-19.5483 661.495,-26.8899 664.406,-20.5238"/>
</g>
<!-- Node289&#45;&gt;Node286 -->
<g id="edge23" class="edge"><title>Node289&#45;&gt;Node286</title>
<path fill="none" stroke="midnightblue" d="M513.445,-200C540.109,-200 572.324,-200 594.201,-200"/>
<polygon fill="midnightblue" stroke="midnightblue" points="513.158,-196.5 503.158,-200 513.158,-203.5 513.158,-196.5"/>
</g>
<!-- Node290 -->
<g id="node16" class="node"><title>Node290</title>
<g id="a_node16"><a xlink:href="run_8c.html#abb80d08f4d52f4a7bdf28d1cecfead5b" target="_top" xlink:title="compute_accelerations">
<polygon fill="white" stroke="black" points="562,-228.5 562,-247.5 679,-247.5 679,-228.5 562,-228.5"/>
<text text-anchor="middle" x="620.5" y="-235.5" font-family="Helvetica,sans-Serif" font-size="10.00">compute_accelerations</text>
</a>
</g>
</g>
<!-- Node289&#45;&gt;Node290 -->
<g id="edge21" class="edge"><title>Node289&#45;&gt;Node290</title>
<path fill="none" stroke="midnightblue" d="M512.894,-211.609C534.739,-217.017 560.406,-223.371 581.081,-228.489"/>
<polygon fill="midnightblue" stroke="midnightblue" points="513.706,-208.204 503.158,-209.199 512.024,-214.999 513.706,-208.204"/>
</g>
<!-- Node290&#45;&gt;Node280 -->
<g id="edge22" class="edge"><title>Node290&#45;&gt;Node280</title>
<path fill="none" stroke="midnightblue" d="M672.786,-223.673C674.983,-222.259 677.07,-220.706 679,-219 707.006,-194.249 692.369,-172.745 715,-143 717.567,-139.626 720.818,-136.421 724.028,-133.637"/>
<polygon fill="midnightblue" stroke="midnightblue" points="671.02,-220.649 663.871,-228.469 674.336,-226.814 671.02,-220.649"/>
</g>
</g>
</svg>
