<?xml version="1.0" encoding="UTF-8" standalone="no"?>
<!DOCTYPE svg PUBLIC "-//W3C//DTD SVG 1.1//EN"
 "http://www.w3.org/Graphics/SVG/1.1/DTD/svg11.dtd">
<!-- Generated by graphviz version 2.38.0 (20140413.2041)
 -->
<!-- Title: force_tree_build_single Pages: 1 -->
<svg width="911pt" height="470pt"
 viewBox="0.00 0.00 911.00 469.50" xmlns="http://www.w3.org/2000/svg" xmlns:xlink="http://www.w3.org/1999/xlink">
<g id="graph0" class="graph" transform="scale(1 1) rotate(0) translate(4 465.5)">
<title>force_tree_build_single</title>
<polygon fill="white" stroke="none" points="-4,4 -4,-465.5 907,-465.5 907,4 -4,4"/>
<!-- Node252 -->
<g id="node1" class="node"><title>Node252</title>
<polygon fill="#bfbfbf" stroke="black" points="0,-335.5 0,-354.5 116,-354.5 116,-335.5 0,-335.5"/>
<text text-anchor="middle" x="58" y="-342.5" font-family="Helvetica,sans-Serif" font-size="10.00">force_tree_build_single</text>
</g>
<!-- Node253 -->
<g id="node2" class="node"><title>Node253</title>
<g id="a_node2"><a xlink:href="forcetree_8c.html#a5dd5b4b96039c79e703efd5106ca012a" target="_top" xlink:title="force_insert_pseudo\l_particles">
<polygon fill="white" stroke="black" points="162,-431 162,-461 266,-461 266,-431 162,-431"/>
<text text-anchor="start" x="170" y="-449" font-family="Helvetica,sans-Serif" font-size="10.00">force_insert_pseudo</text>
<text text-anchor="middle" x="214" y="-438" font-family="Helvetica,sans-Serif" font-size="10.00">_particles</text>
</a>
</g>
</g>
<!-- Node252&#45;&gt;Node253 -->
<g id="edge1" class="edge"><title>Node252&#45;&gt;Node253</title>
<path fill="none" stroke="midnightblue" d="M70.2213,-354.726C87.1954,-369.164 120.743,-396.64 152,-416 157.797,-419.591 164.085,-423.089 170.347,-426.353"/>
<polygon fill="midnightblue" stroke="midnightblue" points="168.939,-429.563 179.442,-430.952 172.097,-423.316 168.939,-429.563"/>
</g>
<!-- Node254 -->
<g id="node3" class="node"><title>Node254</title>
<g id="a_node3"><a xlink:href="forcetree_8c.html#a8571da12c389bfcf10555865a0e3882d" target="_top" xlink:title="force_set_next_node">
<polygon fill="white" stroke="black" points="493.5,-392.5 493.5,-411.5 600.5,-411.5 600.5,-392.5 493.5,-392.5"/>
<text text-anchor="middle" x="547" y="-399.5" font-family="Helvetica,sans-Serif" font-size="10.00">force_set_next_node</text>
</a>
</g>
</g>
<!-- Node252&#45;&gt;Node254 -->
<g id="edge3" class="edge"><title>Node252&#45;&gt;Node254</title>
<path fill="none" stroke="midnightblue" d="M116.297,-351.706C208.241,-362.468 388.04,-383.512 483.3,-394.661"/>
<polygon fill="midnightblue" stroke="midnightblue" points="483.029,-398.153 493.368,-395.84 483.843,-391.201 483.029,-398.153"/>
</g>
<!-- Node255 -->
<g id="node4" class="node"><title>Node255</title>
<g id="a_node4"><a xlink:href="forcetree_8c.html#ab571f41f30d0859373efe8f65b6523b2" target="_top" xlink:title="force_tree_create_nodes">
<polygon fill="white" stroke="black" points="152,-259.5 152,-278.5 276,-278.5 276,-259.5 152,-259.5"/>
<text text-anchor="middle" x="214" y="-266.5" font-family="Helvetica,sans-Serif" font-size="10.00">force_tree_create_nodes</text>
</a>
</g>
</g>
<!-- Node252&#45;&gt;Node255 -->
<g id="edge4" class="edge"><title>Node252&#45;&gt;Node255</title>
<path fill="none" stroke="midnightblue" d="M78.5042,-335.375C105.234,-322.183 153.44,-298.393 184.295,-283.166"/>
<polygon fill="midnightblue" stroke="midnightblue" points="186.236,-286.111 193.654,-278.547 183.138,-279.834 186.236,-286.111"/>
</g>
<!-- Node271 -->
<g id="node20" class="node"><title>Node271</title>
<g id="a_node20"><a xlink:href="forcetree_8c.html#a079d4156d4368c439545f14fcf81878f" target="_top" xlink:title="force_update_node_recursive">
<polygon fill="white" stroke="black" points="312,-126.5 312,-145.5 456,-145.5 456,-126.5 312,-126.5"/>
<text text-anchor="middle" x="384" y="-133.5" font-family="Helvetica,sans-Serif" font-size="10.00">force_update_node_recursive</text>
</a>
</g>
</g>
<!-- Node252&#45;&gt;Node271 -->
<g id="edge24" class="edge"><title>Node252&#45;&gt;Node271</title>
<path fill="none" stroke="midnightblue" d="M67.0094,-335.304C82.2958,-317.166 117.217,-277.457 152,-250 217.093,-198.617 235.436,-185.862 312,-154 316.793,-152.005 321.864,-150.189 327.001,-148.545"/>
<polygon fill="midnightblue" stroke="midnightblue" points="328.322,-151.803 336.906,-145.594 326.323,-145.095 328.322,-151.803"/>
</g>
<!-- Node253&#45;&gt;Node254 -->
<g id="edge2" class="edge"><title>Node253&#45;&gt;Node254</title>
<path fill="none" stroke="midnightblue" d="M266.304,-440.073C315.135,-434.323 390.652,-425.148 456,-416 464.761,-414.774 473.991,-413.415 483.067,-412.039"/>
<polygon fill="midnightblue" stroke="midnightblue" points="483.86,-415.459 493.215,-410.486 482.8,-408.54 483.86,-415.459"/>
</g>
<!-- Node256 -->
<g id="node5" class="node"><title>Node256</title>
<g id="a_node5"><a xlink:href="forcetree_8c.html#ad8ee13a12eb949d8554c8d413b684a80" target="_top" xlink:title="force_create_node_for\l_topnode">
<polygon fill="white" stroke="black" points="327.5,-77 327.5,-107 440.5,-107 440.5,-77 327.5,-77"/>
<text text-anchor="start" x="335.5" y="-95" font-family="Helvetica,sans-Serif" font-size="10.00">force_create_node_for</text>
<text text-anchor="middle" x="384" y="-84" font-family="Helvetica,sans-Serif" font-size="10.00">_topnode</text>
</a>
</g>
</g>
<!-- Node255&#45;&gt;Node256 -->
<g id="edge5" class="edge"><title>Node255&#45;&gt;Node256</title>
<path fill="none" stroke="midnightblue" d="M218.572,-259.241C228.836,-232.52 260.99,-157.469 312,-117 314.255,-115.211 316.649,-113.544 319.139,-111.992"/>
<polygon fill="midnightblue" stroke="midnightblue" points="320.856,-115.043 327.922,-107.148 317.475,-108.913 320.856,-115.043"/>
</g>
<!-- Node257 -->
<g id="node6" class="node"><title>Node257</title>
<g id="a_node6"><a xlink:href="endrun_8c.html#ad963d7efdb9f10f7a2298c8ccd222ab0" target="_top" xlink:title="endrun">
<polygon fill="white" stroke="black" points="524,-126.5 524,-145.5 570,-145.5 570,-126.5 524,-126.5"/>
<text text-anchor="middle" x="547" y="-133.5" font-family="Helvetica,sans-Serif" font-size="10.00">endrun</text>
</a>
</g>
</g>
<!-- Node255&#45;&gt;Node257 -->
<g id="edge14" class="edge"><title>Node255&#45;&gt;Node257</title>
<path fill="none" stroke="midnightblue" d="M224.237,-259.478C240.464,-243.315 275.815,-210.558 312,-193 330.143,-184.196 453.827,-156.292 513.681,-143.074"/>
<polygon fill="midnightblue" stroke="midnightblue" points="514.722,-146.429 523.735,-140.859 513.216,-139.592 514.722,-146.429"/>
</g>
<!-- Node262 -->
<g id="node11" class="node"><title>Node262</title>
<g id="a_node11"><a xlink:href="forcetree_8c.html#ab3ee27767a982ea77a18f5f4983e4344" target="_top" xlink:title="inside_node">
<polygon fill="white" stroke="black" points="350,-316.5 350,-335.5 418,-335.5 418,-316.5 350,-316.5"/>
<text text-anchor="middle" x="384" y="-323.5" font-family="Helvetica,sans-Serif" font-size="10.00">inside_node</text>
</a>
</g>
</g>
<!-- Node255&#45;&gt;Node262 -->
<g id="edge11" class="edge"><title>Node255&#45;&gt;Node262</title>
<path fill="none" stroke="midnightblue" d="M237.474,-278.632C256.968,-286.787 286.054,-298.476 312,-307 320.992,-309.954 330.733,-312.791 340.035,-315.331"/>
<polygon fill="midnightblue" stroke="midnightblue" points="339.335,-318.767 349.9,-317.963 341.14,-312.004 339.335,-318.767"/>
</g>
<!-- Node263 -->
<g id="node12" class="node"><title>Node263</title>
<g id="a_node12"><a xlink:href="domain_8c.html#ab933a4fc02cd61de36a066634c7c7a5b" target="_top" xlink:title="domain_get_topleaf">
<polygon fill="white" stroke="black" points="333.5,-278.5 333.5,-297.5 434.5,-297.5 434.5,-278.5 333.5,-278.5"/>
<text text-anchor="middle" x="384" y="-285.5" font-family="Helvetica,sans-Serif" font-size="10.00">domain_get_topleaf</text>
</a>
</g>
</g>
<!-- Node255&#45;&gt;Node263 -->
<g id="edge12" class="edge"><title>Node255&#45;&gt;Node263</title>
<path fill="none" stroke="midnightblue" d="M276.127,-275.913C291.449,-277.646 307.87,-279.503 323.13,-281.229"/>
<polygon fill="midnightblue" stroke="midnightblue" points="323.151,-284.754 333.481,-282.4 323.938,-277.798 323.151,-284.754"/>
</g>
<!-- Node264 -->
<g id="node13" class="node"><title>Node264</title>
<g id="a_node13"><a xlink:href="forcetree_8c.html#a95095093b87159c1b23a2cb267d9940a" target="_top" xlink:title="get_subnode">
<polygon fill="white" stroke="black" points="511,-335.5 511,-354.5 583,-354.5 583,-335.5 511,-335.5"/>
<text text-anchor="middle" x="547" y="-342.5" font-family="Helvetica,sans-Serif" font-size="10.00">get_subnode</text>
</a>
</g>
</g>
<!-- Node255&#45;&gt;Node264 -->
<g id="edge13" class="edge"><title>Node255&#45;&gt;Node264</title>
<path fill="none" stroke="midnightblue" d="M223.114,-278.633C238.389,-295.925 273.374,-331.67 312,-345 374.61,-366.607 452.382,-360.692 500.608,-353.548"/>
<polygon fill="midnightblue" stroke="midnightblue" points="501.39,-356.968 510.729,-351.965 500.309,-350.052 501.39,-356.968"/>
</g>
<!-- Node265 -->
<g id="node14" class="node"><title>Node265</title>
<g id="a_node14"><a xlink:href="forcetree_8c.html#a7206eeadd2231b432e8c0932fd23b1e5" target="_top" xlink:title="modify_internal_node">
<polygon fill="white" stroke="black" points="329.5,-240.5 329.5,-259.5 438.5,-259.5 438.5,-240.5 329.5,-240.5"/>
<text text-anchor="middle" x="384" y="-247.5" font-family="Helvetica,sans-Serif" font-size="10.00">modify_internal_node</text>
</a>
</g>
</g>
<!-- Node255&#45;&gt;Node265 -->
<g id="edge15" class="edge"><title>Node255&#45;&gt;Node265</title>
<path fill="none" stroke="midnightblue" d="M276.127,-262.087C290.169,-260.499 305.134,-258.806 319.283,-257.206"/>
<polygon fill="midnightblue" stroke="midnightblue" points="319.873,-260.662 329.416,-256.06 319.086,-253.706 319.873,-260.662"/>
</g>
<!-- Node270 -->
<g id="node19" class="node"><title>Node270</title>
<g id="a_node19"><a xlink:href="endrun_8c.html#a6567cd867c5549fb6586e19ccd819764" target="_top" xlink:title="message">
<polygon fill="white" stroke="black" points="356,-202.5 356,-221.5 412,-221.5 412,-202.5 356,-202.5"/>
<text text-anchor="middle" x="384" y="-209.5" font-family="Helvetica,sans-Serif" font-size="10.00">message</text>
</a>
</g>
</g>
<!-- Node255&#45;&gt;Node270 -->
<g id="edge22" class="edge"><title>Node255&#45;&gt;Node270</title>
<path fill="none" stroke="midnightblue" d="M237.474,-259.368C256.968,-251.213 286.054,-239.524 312,-231 322.952,-227.402 335.017,-223.977 346.044,-221.051"/>
<polygon fill="midnightblue" stroke="midnightblue" points="347.019,-224.414 355.819,-218.514 345.26,-217.639 347.019,-224.414"/>
</g>
<!-- Node256&#45;&gt;Node257 -->
<g id="edge6" class="edge"><title>Node256&#45;&gt;Node257</title>
<path fill="none" stroke="midnightblue" d="M439.957,-107.019C464.695,-113.78 493.023,-121.522 514.174,-127.302"/>
<polygon fill="midnightblue" stroke="midnightblue" points="513.364,-130.709 523.933,-129.969 515.209,-123.957 513.364,-130.709"/>
</g>
<!-- Node261 -->
<g id="node10" class="node"><title>Node261</title>
<g id="a_node10"><a xlink:href="peano_8c.html#a2b98881a670e236ef744e3283ebe71a4" target="_top" xlink:title="peano_hilbert_key">
<polygon fill="white" stroke="black" points="499.5,-0.5 499.5,-19.5 594.5,-19.5 594.5,-0.5 499.5,-0.5"/>
<text text-anchor="middle" x="547" y="-7.5" font-family="Helvetica,sans-Serif" font-size="10.00">peano_hilbert_key</text>
</a>
</g>
</g>
<!-- Node256&#45;&gt;Node261 -->
<g id="edge10" class="edge"><title>Node256&#45;&gt;Node261</title>
<path fill="none" stroke="midnightblue" d="M407.675,-76.8975C428.867,-63.2114 461.701,-43.0877 492,-29 496.441,-26.935 501.174,-24.961 505.921,-23.1194"/>
<polygon fill="midnightblue" stroke="midnightblue" points="507.432,-26.2919 515.596,-19.5386 505.003,-19.727 507.432,-26.2919"/>
</g>
<!-- Node258 -->
<g id="node7" class="node"><title>Node258</title>
<g id="a_node7"><a xlink:href="endrun_8c.html#a7267113a7c0a094743bb565eabc695d1" target="_top" xlink:title="messagev">
<polygon fill="white" stroke="black" points="677.5,-164.5 677.5,-183.5 739.5,-183.5 739.5,-164.5 677.5,-164.5"/>
<text text-anchor="middle" x="708.5" y="-171.5" font-family="Helvetica,sans-Serif" font-size="10.00">messagev</text>
</a>
</g>
</g>
<!-- Node257&#45;&gt;Node258 -->
<g id="edge7" class="edge"><title>Node257&#45;&gt;Node258</title>
<path fill="none" stroke="midnightblue" d="M570.178,-141.284C595.249,-147.257 636.574,-157.102 667.352,-164.435"/>
<polygon fill="midnightblue" stroke="midnightblue" points="666.808,-167.903 677.347,-166.816 668.43,-161.094 666.808,-167.903"/>
</g>
<!-- Node259 -->
<g id="node8" class="node"><title>Node259</title>
<g id="a_node8"><a xlink:href="endrun_8c.html#a87108946670b4c3afbe846c6726675ff" target="_top" xlink:title="putline">
<polygon fill="white" stroke="black" points="836.5,-183.5 836.5,-202.5 881.5,-202.5 881.5,-183.5 836.5,-183.5"/>
<text text-anchor="middle" x="859" y="-190.5" font-family="Helvetica,sans-Serif" font-size="10.00">putline</text>
</a>
</g>
</g>
<!-- Node258&#45;&gt;Node259 -->
<g id="edge8" class="edge"><title>Node258&#45;&gt;Node259</title>
<path fill="none" stroke="midnightblue" d="M739.551,-177.845C764.728,-181.066 800.565,-185.651 826.215,-188.933"/>
<polygon fill="midnightblue" stroke="midnightblue" points="825.82,-192.411 836.183,-190.209 826.708,-185.468 825.82,-192.411"/>
</g>
<!-- Node260 -->
<g id="node9" class="node"><title>Node260</title>
<g id="a_node9"><a xlink:href="endrun_8c.html#a1200f02a595ab7cbe17c9e36ff32af0f" target="_top" xlink:title="show_backtrace">
<polygon fill="white" stroke="black" points="815,-145.5 815,-164.5 903,-164.5 903,-145.5 815,-145.5"/>
<text text-anchor="middle" x="859" y="-152.5" font-family="Helvetica,sans-Serif" font-size="10.00">show_backtrace</text>
</a>
</g>
</g>
<!-- Node258&#45;&gt;Node260 -->
<g id="edge9" class="edge"><title>Node258&#45;&gt;Node260</title>
<path fill="none" stroke="midnightblue" d="M739.551,-170.155C758.208,-167.768 782.718,-164.632 804.599,-161.832"/>
<polygon fill="midnightblue" stroke="midnightblue" points="805.289,-165.273 814.764,-160.532 804.401,-158.329 805.289,-165.273"/>
</g>
<!-- Node265&#45;&gt;Node254 -->
<g id="edge21" class="edge"><title>Node265&#45;&gt;Node254</title>
<path fill="none" stroke="midnightblue" d="M438.667,-258.339C445,-260.993 450.983,-264.465 456,-269 489.495,-299.279 464.32,-328.328 492,-364 499.083,-373.128 508.959,-380.959 518.331,-387.099"/>
<polygon fill="midnightblue" stroke="midnightblue" points="516.701,-390.205 527.054,-392.455 520.364,-384.24 516.701,-390.205"/>
</g>
<!-- Node265&#45;&gt;Node264 -->
<g id="edge20" class="edge"><title>Node265&#45;&gt;Node264</title>
<path fill="none" stroke="midnightblue" d="M434.932,-259.596C442.273,-262.064 449.531,-265.149 456,-269 475.991,-280.9 474.4,-291.786 492,-307 501.429,-315.15 512.588,-323.232 522.308,-329.832"/>
<polygon fill="midnightblue" stroke="midnightblue" points="520.473,-332.816 530.738,-335.438 524.349,-326.986 520.473,-332.816"/>
</g>
<!-- Node266 -->
<g id="node15" class="node"><title>Node266</title>
<g id="a_node15"><a xlink:href="forcetree_8c.html#a96d9883368c2630c024e1196e849f07c" target="_top" xlink:title="force_get_next_node">
<polygon fill="white" stroke="black" points="493.5,-164.5 493.5,-183.5 600.5,-183.5 600.5,-164.5 493.5,-164.5"/>
<text text-anchor="middle" x="547" y="-171.5" font-family="Helvetica,sans-Serif" font-size="10.00">force_get_next_node</text>
</a>
</g>
</g>
<!-- Node265&#45;&gt;Node266 -->
<g id="edge16" class="edge"><title>Node265&#45;&gt;Node266</title>
<path fill="none" stroke="midnightblue" d="M428.894,-240.485C438.029,-237.89 447.468,-234.739 456,-231 481.244,-219.937 507.596,-202.439 525.211,-189.746"/>
<polygon fill="midnightblue" stroke="midnightblue" points="527.585,-192.346 533.575,-183.606 523.442,-186.703 527.585,-192.346"/>
</g>
<!-- Node267 -->
<g id="node16" class="node"><title>Node267</title>
<g id="a_node16"><a xlink:href="forcetree_8c.html#a6710cf447fc53308c513b002cf446ebf" target="_top" xlink:title="get_freenode">
<polygon fill="white" stroke="black" points="510.5,-278.5 510.5,-297.5 583.5,-297.5 583.5,-278.5 510.5,-278.5"/>
<text text-anchor="middle" x="547" y="-285.5" font-family="Helvetica,sans-Serif" font-size="10.00">get_freenode</text>
</a>
</g>
</g>
<!-- Node265&#45;&gt;Node267 -->
<g id="edge17" class="edge"><title>Node265&#45;&gt;Node267</title>
<path fill="none" stroke="midnightblue" d="M425.627,-259.589C448.45,-264.976 476.993,-271.713 500.556,-277.274"/>
<polygon fill="midnightblue" stroke="midnightblue" points="499.782,-280.688 510.319,-279.578 501.39,-273.875 499.782,-280.688"/>
</g>
<!-- Node269 -->
<g id="node18" class="node"><title>Node269</title>
<g id="a_node18"><a xlink:href="forcetree_8c.html#a068d7c90773680cb8c9b0684d584420d" target="_top" xlink:title="init_internal_node">
<polygon fill="white" stroke="black" points="501,-240.5 501,-259.5 593,-259.5 593,-240.5 501,-240.5"/>
<text text-anchor="middle" x="547" y="-247.5" font-family="Helvetica,sans-Serif" font-size="10.00">init_internal_node</text>
</a>
</g>
</g>
<!-- Node265&#45;&gt;Node269 -->
<g id="edge19" class="edge"><title>Node265&#45;&gt;Node269</title>
<path fill="none" stroke="midnightblue" d="M438.611,-250C455.352,-250 473.846,-250 490.701,-250"/>
<polygon fill="midnightblue" stroke="midnightblue" points="490.954,-253.5 500.954,-250 490.953,-246.5 490.954,-253.5"/>
</g>
<!-- Node268 -->
<g id="node17" class="node"><title>Node268</title>
<g id="a_node17"><a xlink:href="system_8h.html#a00eeba7aebd7952f4c0ecebb60fbeca2" target="_top" xlink:title="atomic_fetch_and_add">
<polygon fill="white" stroke="black" points="651,-278.5 651,-297.5 766,-297.5 766,-278.5 651,-278.5"/>
<text text-anchor="middle" x="708.5" y="-285.5" font-family="Helvetica,sans-Serif" font-size="10.00">atomic_fetch_and_add</text>
</a>
</g>
</g>
<!-- Node267&#45;&gt;Node268 -->
<g id="edge18" class="edge"><title>Node267&#45;&gt;Node268</title>
<path fill="none" stroke="midnightblue" d="M583.795,-288C600.611,-288 621.219,-288 640.756,-288"/>
<polygon fill="midnightblue" stroke="midnightblue" points="640.85,-291.5 650.85,-288 640.85,-284.5 640.85,-291.5"/>
</g>
<!-- Node270&#45;&gt;Node258 -->
<g id="edge23" class="edge"><title>Node270&#45;&gt;Node258</title>
<path fill="none" stroke="midnightblue" d="M412.151,-210.418C453.324,-207.839 533.965,-202.086 602,-193 623.678,-190.105 647.685,-185.864 667.314,-182.123"/>
<polygon fill="midnightblue" stroke="midnightblue" points="667.991,-185.557 677.145,-180.222 666.662,-178.684 667.991,-185.557"/>
</g>
<!-- Node271&#45;&gt;Node254 -->
<g id="edge27" class="edge"><title>Node271&#45;&gt;Node254</title>
<path fill="none" stroke="midnightblue" d="M403.128,-145.68C419.55,-155.419 443.092,-171.989 456,-193 496.656,-259.175 449.272,-299.144 492,-364 498.213,-373.431 507.641,-381.231 516.89,-387.258"/>
<polygon fill="midnightblue" stroke="midnightblue" points="515.217,-390.336 525.591,-392.489 518.824,-384.337 515.217,-390.336"/>
</g>
<!-- Node271&#45;&gt;Node257 -->
<g id="edge26" class="edge"><title>Node271&#45;&gt;Node257</title>
<path fill="none" stroke="midnightblue" d="M456.086,-136C476.125,-136 496.953,-136 513.511,-136"/>
<polygon fill="midnightblue" stroke="midnightblue" points="513.725,-139.5 523.725,-136 513.725,-132.5 513.725,-139.5"/>
</g>
<!-- Node271&#45;&gt;Node266 -->
<g id="edge25" class="edge"><title>Node271&#45;&gt;Node266</title>
<path fill="none" stroke="midnightblue" d="M425.627,-145.589C446.968,-150.626 473.312,-156.844 495.908,-162.177"/>
<polygon fill="midnightblue" stroke="midnightblue" points="495.128,-165.589 505.665,-164.48 496.736,-158.776 495.128,-165.589"/>
</g>
<!-- Node272 -->
<g id="node21" class="node"><title>Node272</title>
<g id="a_node21"><a xlink:href="forcetree_8c.html#a756a7b1f862dd81ef83e1f6c00f8ebb2" target="_top" xlink:title="force_adjust_node_softening">
<polygon fill="white" stroke="black" points="638,-85.5 638,-104.5 779,-104.5 779,-85.5 638,-85.5"/>
<text text-anchor="middle" x="708.5" y="-92.5" font-family="Helvetica,sans-Serif" font-size="10.00">force_adjust_node_softening</text>
</a>
</g>
</g>
<!-- Node271&#45;&gt;Node272 -->
<g id="edge28" class="edge"><title>Node271&#45;&gt;Node272</title>
<path fill="none" stroke="midnightblue" d="M434.153,-126.486C452.287,-123.183 473.034,-119.648 492,-117 536.809,-110.743 587.095,-105.508 627.814,-101.717"/>
<polygon fill="midnightblue" stroke="midnightblue" points="628.314,-105.186 637.951,-100.784 627.672,-98.2153 628.314,-105.186"/>
</g>
<!-- Node273 -->
<g id="node22" class="node"><title>Node273</title>
<g id="a_node22"><a xlink:href="forcetree_8c.html#a569cd386bf7d67968fad6344898cb70c" target="_top" xlink:title="add_particle_moment\l_to_node">
<polygon fill="white" stroke="black" points="492,-39 492,-69 602,-69 602,-39 492,-39"/>
<text text-anchor="start" x="500" y="-57" font-family="Helvetica,sans-Serif" font-size="10.00">add_particle_moment</text>
<text text-anchor="middle" x="547" y="-46" font-family="Helvetica,sans-Serif" font-size="10.00">_to_node</text>
</a>
</g>
</g>
<!-- Node271&#45;&gt;Node273 -->
<g id="edge29" class="edge"><title>Node271&#45;&gt;Node273</title>
<path fill="none" stroke="midnightblue" d="M430.523,-126.482C439.264,-123.747 448.136,-120.302 456,-116 474.78,-105.725 474.538,-96.3838 492,-84 496.82,-80.582 502.066,-77.2457 507.332,-74.1142"/>
<polygon fill="midnightblue" stroke="midnightblue" points="509.209,-77.0722 516.141,-69.0594 505.725,-71.0008 509.209,-77.0722"/>
</g>
<!-- Node273&#45;&gt;Node272 -->
<g id="edge30" class="edge"><title>Node273&#45;&gt;Node272</title>
<path fill="none" stroke="midnightblue" d="M602.445,-67.9952C621.329,-72.8494 642.324,-78.2464 660.552,-82.9318"/>
<polygon fill="midnightblue" stroke="midnightblue" points="659.806,-86.3537 670.362,-85.4536 661.548,-79.5741 659.806,-86.3537"/>
</g>
<!-- Node274 -->
<g id="node23" class="node"><title>Node274</title>
<g id="a_node23"><a xlink:href="partmanager_8h.html#a75af6ed4098fb6fbcc96a532b6e1bd11" target="_top" xlink:title="FORCE_SOFTENING">
<polygon fill="white" stroke="black" points="650.5,-44.5 650.5,-63.5 766.5,-63.5 766.5,-44.5 650.5,-44.5"/>
<text text-anchor="middle" x="708.5" y="-51.5" font-family="Helvetica,sans-Serif" font-size="10.00">FORCE_SOFTENING</text>
</a>
</g>
</g>
<!-- Node273&#45;&gt;Node274 -->
<g id="edge31" class="edge"><title>Node273&#45;&gt;Node274</title>
<path fill="none" stroke="midnightblue" d="M602.445,-54C614.622,-54 627.677,-54 640.301,-54"/>
<polygon fill="midnightblue" stroke="midnightblue" points="640.308,-57.5001 650.308,-54 640.308,-50.5001 640.308,-57.5001"/>
</g>
</g>
</svg>
