<?xml version="1.0" encoding="UTF-8" standalone="no"?>
<!DOCTYPE svg PUBLIC "-//W3C//DTD SVG 1.1//EN"
 "http://www.w3.org/Graphics/SVG/1.1/DTD/svg11.dtd">
<!-- Generated by graphviz version 2.50.0 (0)
 -->
<!-- Title: force_tree_rebuild_mask Pages: 1 -->
<svg width="599pt" height="142pt"
 viewBox="0.00 0.00 599.00 142.00" xmlns="http://www.w3.org/2000/svg" xmlns:xlink="http://www.w3.org/1999/xlink">
<g id="graph0" class="graph" transform="scale(1 1) rotate(0) translate(4 138)">
<title>force_tree_rebuild_mask</title>
<polygon fill="white" stroke="transparent" points="-4,4 -4,-138 595,-138 595,4 -4,4"/>
<!-- Node1 -->
<g id="node1" class="node">
<title>Node1</title>
<g id="a_node1"><a xlink:title=" ">
<polygon fill="#bfbfbf" stroke="black" points="454,-76.5 454,-95.5 591,-95.5 591,-76.5 454,-76.5"/>
<text text-anchor="middle" x="522.5" y="-83.5" font-family="Helvetica,sans-Serif" font-size="10.00">force_tree_rebuild_mask</text>
</a>
</g>
</g>
<!-- Node2 -->
<g id="node2" class="node">
<title>Node2</title>
<g id="a_node2"><a xlink:href="fof_8c.html#aef0df27f65ad2e5a95f66ae4e970da23" target="_top" xlink:title=" ">
<polygon fill="white" stroke="black" points="201.5,-38.5 201.5,-57.5 250.5,-57.5 250.5,-38.5 201.5,-38.5"/>
<text text-anchor="middle" x="226" y="-45.5" font-family="Helvetica,sans-Serif" font-size="10.00">fof_fof</text>
</a>
</g>
</g>
<!-- Node1&#45;&gt;Node2 -->
<g id="edge1" class="edge">
<title>Node1&#45;&gt;Node2</title>
<path fill="none" stroke="midnightblue" d="M464.09,-74.59C449.12,-71.86 432.99,-69.12 418,-67 357.95,-58.52 286.74,-52.49 250.6,-49.72"/>
<polygon fill="midnightblue" stroke="midnightblue" points="463.76,-78.09 474.23,-76.48 465.04,-71.21 463.76,-78.09"/>
</g>
<!-- Node8 -->
<g id="node8" class="node">
<title>Node8</title>
<g id="a_node8"><a xlink:href="metal__return_8c.html#a7c817252ab7c0f679fea71bde6dea852" target="_top" xlink:title=" ">
<polygon fill="white" stroke="black" points="329.5,-114.5 329.5,-133.5 409.5,-133.5 409.5,-114.5 329.5,-114.5"/>
<text text-anchor="middle" x="369.5" y="-121.5" font-family="Helvetica,sans-Serif" font-size="10.00">metal_return</text>
</a>
</g>
</g>
<!-- Node1&#45;&gt;Node8 -->
<g id="edge8" class="edge">
<title>Node1&#45;&gt;Node8</title>
<path fill="none" stroke="midnightblue" d="M473.66,-98.04C452.56,-103.35 428.12,-109.5 408.33,-114.48"/>
<polygon fill="midnightblue" stroke="midnightblue" points="474.55,-101.42 483.4,-95.59 472.84,-94.64 474.55,-101.42"/>
</g>
<!-- Node9 -->
<g id="node9" class="node">
<title>Node9</title>
<g id="a_node9"><a xlink:href="cooling__qso__lightup_8c.html#a047bd5886141415004b83a046b49d5cc" target="_top" xlink:title=" ">
<polygon fill="white" stroke="black" points="321,-76.5 321,-95.5 418,-95.5 418,-76.5 321,-76.5"/>
<text text-anchor="middle" x="369.5" y="-83.5" font-family="Helvetica,sans-Serif" font-size="10.00">turn_on_quasars</text>
</a>
</g>
</g>
<!-- Node1&#45;&gt;Node9 -->
<g id="edge10" class="edge">
<title>Node1&#45;&gt;Node9</title>
<path fill="none" stroke="midnightblue" d="M443.71,-86C434.98,-86 426.29,-86 418.11,-86"/>
<polygon fill="midnightblue" stroke="midnightblue" points="443.95,-89.5 453.95,-86 443.95,-82.5 443.95,-89.5"/>
</g>
<!-- Node3 -->
<g id="node3" class="node">
<title>Node3</title>
<g id="a_node3"><a xlink:href="run_8c.html#a89690448ef43a8d624b963382b7503ed" target="_top" xlink:title=" ">
<polygon fill="white" stroke="black" points="88,-76.5 88,-95.5 120,-95.5 120,-76.5 88,-76.5"/>
<text text-anchor="middle" x="104" y="-83.5" font-family="Helvetica,sans-Serif" font-size="10.00">run</text>
</a>
</g>
</g>
<!-- Node2&#45;&gt;Node3 -->
<g id="edge2" class="edge">
<title>Node2&#45;&gt;Node3</title>
<path fill="none" stroke="midnightblue" d="M191.75,-58.53C168.38,-65.93 138.19,-75.49 120.29,-81.16"/>
<polygon fill="midnightblue" stroke="midnightblue" points="192.82,-61.86 201.29,-55.51 190.7,-55.19 192.82,-61.86"/>
</g>
<!-- Node5 -->
<g id="node5" class="node">
<title>Node5</title>
<g id="a_node5"><a xlink:href="run_8c.html#a02ef4c629cc0fea15dce527f09ea672f" target="_top" xlink:title=" ">
<polygon fill="white" stroke="black" points="81,-38.5 81,-57.5 127,-57.5 127,-38.5 81,-38.5"/>
<text text-anchor="middle" x="104" y="-45.5" font-family="Helvetica,sans-Serif" font-size="10.00">runfof</text>
</a>
</g>
</g>
<!-- Node2&#45;&gt;Node5 -->
<g id="edge4" class="edge">
<title>Node2&#45;&gt;Node5</title>
<path fill="none" stroke="midnightblue" d="M191.08,-48C170.55,-48 144.96,-48 127.04,-48"/>
<polygon fill="midnightblue" stroke="midnightblue" points="191.29,-51.5 201.29,-48 191.29,-44.5 191.29,-51.5"/>
</g>
<!-- Node6 -->
<g id="node6" class="node">
<title>Node6</title>
<g id="a_node6"><a xlink:href="test__fof_8c.html#a2b2edcaa960047ba6c815956c46d82a6" target="_top" xlink:title=" ">
<polygon fill="white" stroke="black" points="77,-0.5 77,-19.5 131,-19.5 131,-0.5 77,-0.5"/>
<text text-anchor="middle" x="104" y="-7.5" font-family="Helvetica,sans-Serif" font-size="10.00">test_fof</text>
</a>
</g>
</g>
<!-- Node2&#45;&gt;Node6 -->
<g id="edge6" class="edge">
<title>Node2&#45;&gt;Node6</title>
<path fill="none" stroke="midnightblue" d="M191.5,-37.39C172.42,-31.35 148.87,-23.89 131.16,-18.28"/>
<polygon fill="midnightblue" stroke="midnightblue" points="190.7,-40.81 201.29,-40.49 192.82,-34.14 190.7,-40.81"/>
</g>
<!-- Node4 -->
<g id="node4" class="node">
<title>Node4</title>
<g id="a_node4"><a xlink:href="gadget_2main_8c.html#a3c04138a5bfe5d72780bb7e82a18e627" target="_top" xlink:title=" ">
<polygon fill="white" stroke="black" points="0,-57.5 0,-76.5 41,-76.5 41,-57.5 0,-57.5"/>
<text text-anchor="middle" x="20.5" y="-64.5" font-family="Helvetica,sans-Serif" font-size="10.00">main</text>
</a>
</g>
</g>
<!-- Node3&#45;&gt;Node4 -->
<g id="edge3" class="edge">
<title>Node3&#45;&gt;Node4</title>
<path fill="none" stroke="midnightblue" d="M77.92,-80.15C66.07,-77.39 52.14,-74.14 41.09,-71.57"/>
<polygon fill="midnightblue" stroke="midnightblue" points="77.14,-83.56 87.67,-82.43 78.73,-76.75 77.14,-83.56"/>
</g>
<!-- Node5&#45;&gt;Node4 -->
<g id="edge5" class="edge">
<title>Node5&#45;&gt;Node4</title>
<path fill="none" stroke="midnightblue" d="M70.71,-55.53C60.75,-57.85 50.09,-60.34 41.24,-62.4"/>
<polygon fill="midnightblue" stroke="midnightblue" points="71.79,-58.87 80.73,-53.19 70.2,-52.05 71.79,-58.87"/>
</g>
<!-- Node7 -->
<g id="node7" class="node">
<title>Node7</title>
<g id="a_node7"><a xlink:href="test__fof_8c.html#a840291bc02cba5474a4cb46a9b9566fe" target="_top" xlink:title=" ">
<polygon fill="white" stroke="black" points="0,-0.5 0,-19.5 41,-19.5 41,-0.5 0,-0.5"/>
<text text-anchor="middle" x="20.5" y="-7.5" font-family="Helvetica,sans-Serif" font-size="10.00">main</text>
</a>
</g>
</g>
<!-- Node6&#45;&gt;Node7 -->
<g id="edge7" class="edge">
<title>Node6&#45;&gt;Node7</title>
<path fill="none" stroke="midnightblue" d="M66.7,-10C57.94,-10 48.9,-10 41.22,-10"/>
<polygon fill="midnightblue" stroke="midnightblue" points="66.76,-13.5 76.76,-10 66.76,-6.5 66.76,-13.5"/>
</g>
<!-- Node8&#45;&gt;Node3 -->
<g id="edge9" class="edge">
<title>Node8&#45;&gt;Node3</title>
<path fill="none" stroke="midnightblue" d="M319.14,-122.15C278.1,-119.94 218.32,-115.17 167,-105 150.66,-101.76 132.49,-95.92 120.07,-91.56"/>
<polygon fill="midnightblue" stroke="midnightblue" points="318.99,-125.64 329.15,-122.66 319.34,-118.65 318.99,-125.64"/>
</g>
<!-- Node10 -->
<g id="node10" class="node">
<title>Node10</title>
<g id="a_node10"><a xlink:href="cooling__qso__lightup_8c.html#a42cfb86673e895125f77c946b7db8ced" target="_top" xlink:title=" ">
<polygon fill="white" stroke="black" points="167,-76.5 167,-95.5 285,-95.5 285,-76.5 167,-76.5"/>
<text text-anchor="middle" x="226" y="-83.5" font-family="Helvetica,sans-Serif" font-size="10.00">do_heiii_reionization</text>
</a>
</g>
</g>
<!-- Node9&#45;&gt;Node10 -->
<g id="edge11" class="edge">
<title>Node9&#45;&gt;Node10</title>
<path fill="none" stroke="midnightblue" d="M310.84,-86C302.38,-86 293.67,-86 285.2,-86"/>
<polygon fill="midnightblue" stroke="midnightblue" points="310.99,-89.5 320.99,-86 310.99,-82.5 310.99,-89.5"/>
</g>
<!-- Node10&#45;&gt;Node3 -->
<g id="edge12" class="edge">
<title>Node10&#45;&gt;Node3</title>
<path fill="none" stroke="midnightblue" d="M156.7,-86C142.97,-86 129.84,-86 120.24,-86"/>
<polygon fill="midnightblue" stroke="midnightblue" points="156.76,-89.5 166.76,-86 156.76,-82.5 156.76,-89.5"/>
</g>
</g>
</svg>
