<?xml version="1.0" encoding="UTF-8" standalone="no"?>
<!DOCTYPE svg PUBLIC "-//W3C//DTD SVG 1.1//EN"
 "http://www.w3.org/Graphics/SVG/1.1/DTD/svg11.dtd">
<!-- Generated by graphviz version 2.38.0 (20140413.2041)
 -->
<!-- Title: get_freenode Pages: 1 -->
<svg width="1489pt" height="256pt"
 viewBox="0.00 0.00 1489.00 256.00" xmlns="http://www.w3.org/2000/svg" xmlns:xlink="http://www.w3.org/1999/xlink">
<g id="graph0" class="graph" transform="scale(1 1) rotate(0) translate(4 252)">
<title>get_freenode</title>
<polygon fill="white" stroke="none" points="-4,4 -4,-252 1485,-252 1485,4 -4,4"/>
<!-- Node506 -->
<g id="node1" class="node"><title>Node506</title>
<polygon fill="#bfbfbf" stroke="black" points="0,-76.5 0,-95.5 73,-95.5 73,-76.5 0,-76.5"/>
<text text-anchor="middle" x="36.5" y="-83.5" font-family="Helvetica,sans-Serif" font-size="10.00">get_freenode</text>
</g>
<!-- Node507 -->
<g id="node2" class="node"><title>Node507</title>
<g id="a_node2"><a xlink:href="forcetree_8c.html#a7206eeadd2231b432e8c0932fd23b1e5" target="_top" xlink:title="modify_internal_node">
<polygon fill="white" stroke="black" points="109,-76.5 109,-95.5 218,-95.5 218,-76.5 109,-76.5"/>
<text text-anchor="middle" x="163.5" y="-83.5" font-family="Helvetica,sans-Serif" font-size="10.00">modify_internal_node</text>
</a>
</g>
</g>
<!-- Node506&#45;&gt;Node507 -->
<g id="edge1" class="edge"><title>Node506&#45;&gt;Node507</title>
<path fill="none" stroke="midnightblue" d="M83.5329,-86C91.8088,-86 100.499,-86 108.966,-86"/>
<polygon fill="midnightblue" stroke="midnightblue" points="83.32,-82.5001 73.32,-86 83.3199,-89.5001 83.32,-82.5001"/>
</g>
<!-- Node508 -->
<g id="node3" class="node"><title>Node508</title>
<g id="a_node3"><a xlink:href="forcetree_8c.html#ab571f41f30d0859373efe8f65b6523b2" target="_top" xlink:title="force_tree_create_nodes">
<polygon fill="white" stroke="black" points="254,-76.5 254,-95.5 378,-95.5 378,-76.5 254,-76.5"/>
<text text-anchor="middle" x="316" y="-83.5" font-family="Helvetica,sans-Serif" font-size="10.00">force_tree_create_nodes</text>
</a>
</g>
</g>
<!-- Node507&#45;&gt;Node508 -->
<g id="edge2" class="edge"><title>Node507&#45;&gt;Node508</title>
<path fill="none" stroke="midnightblue" d="M228.508,-86C236.889,-86 245.46,-86 253.793,-86"/>
<polygon fill="midnightblue" stroke="midnightblue" points="228.409,-82.5001 218.409,-86 228.409,-89.5001 228.409,-82.5001"/>
</g>
<!-- Node509 -->
<g id="node4" class="node"><title>Node509</title>
<g id="a_node4"><a xlink:href="forcetree_8c.html#aac1fca475cd9acc615f8e86d04198a2f" target="_top" xlink:title="force_tree_build_single">
<polygon fill="white" stroke="black" points="414,-76.5 414,-95.5 530,-95.5 530,-76.5 414,-76.5"/>
<text text-anchor="middle" x="472" y="-83.5" font-family="Helvetica,sans-Serif" font-size="10.00">force_tree_build_single</text>
</a>
</g>
</g>
<!-- Node508&#45;&gt;Node509 -->
<g id="edge3" class="edge"><title>Node508&#45;&gt;Node509</title>
<path fill="none" stroke="midnightblue" d="M388.31,-86C396.891,-86 405.565,-86 413.906,-86"/>
<polygon fill="midnightblue" stroke="midnightblue" points="388.307,-82.5001 378.307,-86 388.307,-89.5001 388.307,-82.5001"/>
</g>
<!-- Node510 -->
<g id="node5" class="node"><title>Node510</title>
<g id="a_node5"><a xlink:href="forcetree_8c.html#a69350a797a01322b05ec26913d2fa62d" target="_top" xlink:title="force_tree_build">
<polygon fill="white" stroke="black" points="566,-76.5 566,-95.5 652,-95.5 652,-76.5 566,-76.5"/>
<text text-anchor="middle" x="609" y="-83.5" font-family="Helvetica,sans-Serif" font-size="10.00">force_tree_build</text>
</a>
</g>
</g>
<!-- Node509&#45;&gt;Node510 -->
<g id="edge4" class="edge"><title>Node509&#45;&gt;Node510</title>
<path fill="none" stroke="midnightblue" d="M540.387,-86C549.051,-86 557.717,-86 565.814,-86"/>
<polygon fill="midnightblue" stroke="midnightblue" points="540.252,-82.5001 530.252,-86 540.252,-89.5001 540.252,-82.5001"/>
</g>
<!-- Node511 -->
<g id="node6" class="node"><title>Node511</title>
<g id="a_node6"><a xlink:href="forcetree_8h.html#a45a1a710bd7d997dbe7cf22a7600b731" target="_top" xlink:title="force_tree_rebuild">
<polygon fill="white" stroke="black" points="688,-76.5 688,-95.5 782,-95.5 782,-76.5 688,-76.5"/>
<text text-anchor="middle" x="735" y="-83.5" font-family="Helvetica,sans-Serif" font-size="10.00">force_tree_rebuild</text>
</a>
</g>
</g>
<!-- Node510&#45;&gt;Node511 -->
<g id="edge5" class="edge"><title>Node510&#45;&gt;Node511</title>
<path fill="none" stroke="midnightblue" d="M662.387,-86C670.768,-86 679.388,-86 687.616,-86"/>
<polygon fill="midnightblue" stroke="midnightblue" points="662.327,-82.5001 652.327,-86 662.327,-89.5001 662.327,-82.5001"/>
</g>
<!-- Node512 -->
<g id="node7" class="node"><title>Node512</title>
<g id="a_node7"><a xlink:href="domain_8h.html#a168c36ec12faca23e23395b6a13d2037" target="_top" xlink:title="domain_decompose_full">
<polygon fill="white" stroke="black" points="818,-114.5 818,-133.5 940,-133.5 940,-114.5 818,-114.5"/>
<text text-anchor="middle" x="879" y="-121.5" font-family="Helvetica,sans-Serif" font-size="10.00">domain_decompose_full</text>
</a>
</g>
</g>
<!-- Node511&#45;&gt;Node512 -->
<g id="edge6" class="edge"><title>Node511&#45;&gt;Node512</title>
<path fill="none" stroke="midnightblue" d="M781.493,-98.1742C801.128,-103.429 823.766,-109.487 842.179,-114.414"/>
<polygon fill="midnightblue" stroke="midnightblue" points="782.397,-94.7931 771.833,-95.589 780.588,-101.555 782.397,-94.7931"/>
</g>
<!-- Node513 -->
<g id="node8" class="node"><title>Node513</title>
<g id="a_node8"><a xlink:href="domain_8h.html#acf7b74bdcb6563a4603538914fc16157" target="_top" xlink:title="domain_maintain">
<polygon fill="white" stroke="black" points="989.5,-76.5 989.5,-95.5 1079.5,-95.5 1079.5,-76.5 989.5,-76.5"/>
<text text-anchor="middle" x="1034.5" y="-83.5" font-family="Helvetica,sans-Serif" font-size="10.00">domain_maintain</text>
</a>
</g>
</g>
<!-- Node511&#45;&gt;Node513 -->
<g id="edge19" class="edge"><title>Node511&#45;&gt;Node513</title>
<path fill="none" stroke="midnightblue" d="M792.465,-86C849.617,-86 936.817,-86 989.178,-86"/>
<polygon fill="midnightblue" stroke="midnightblue" points="792.158,-82.5001 782.158,-86 792.158,-89.5001 792.158,-82.5001"/>
</g>
<!-- Node514 -->
<g id="node9" class="node"><title>Node514</title>
<g id="a_node9"><a xlink:href="run_8c.html#a05e0ffe612d44e6d7f3a9ae5b9df56a2" target="_top" xlink:title="run">
<polygon fill="white" stroke="black" points="1137,-114.5 1137,-133.5 1167,-133.5 1167,-114.5 1137,-114.5"/>
<text text-anchor="middle" x="1152" y="-121.5" font-family="Helvetica,sans-Serif" font-size="10.00">run</text>
</a>
</g>
</g>
<!-- Node511&#45;&gt;Node514 -->
<g id="edge27" class="edge"><title>Node511&#45;&gt;Node514</title>
<path fill="none" stroke="midnightblue" d="M774.456,-73.5894C841.874,-54.0411 984.539,-22.6256 1093,-67 1116.52,-76.6228 1135.64,-100.893 1144.92,-114.456"/>
<polygon fill="midnightblue" stroke="midnightblue" points="773.271,-70.2901 764.683,-76.4942 775.265,-77 773.271,-70.2901"/>
</g>
<!-- Node521 -->
<g id="node16" class="node"><title>Node521</title>
<g id="a_node16"><a xlink:href="fof_8h.html#ad08d3c5fd1cf1f78c75a17330a8e0348" target="_top" xlink:title="fof_save_groups">
<polygon fill="white" stroke="black" points="834.5,-0.5 834.5,-19.5 923.5,-19.5 923.5,-0.5 834.5,-0.5"/>
<text text-anchor="middle" x="879" y="-7.5" font-family="Helvetica,sans-Serif" font-size="10.00">fof_save_groups</text>
</a>
</g>
</g>
<!-- Node511&#45;&gt;Node521 -->
<g id="edge20" class="edge"><title>Node511&#45;&gt;Node521</title>
<path fill="none" stroke="midnightblue" d="M757.708,-70.6756C773.871,-59.656 796.727,-44.882 818,-34 828.488,-28.6353 840.466,-23.6339 850.947,-19.6002"/>
<polygon fill="midnightblue" stroke="midnightblue" points="755.71,-67.8013 749.469,-76.3627 759.687,-73.5621 755.71,-67.8013"/>
</g>
<!-- Node523 -->
<g id="node18" class="node"><title>Node523</title>
<g id="a_node18"><a xlink:href="proto_8h.html#a6a55456b331c8b01d7ae1352809b82f2" target="_top" xlink:title="gravpm_force">
<polygon fill="white" stroke="black" points="841,-190.5 841,-209.5 917,-209.5 917,-190.5 841,-190.5"/>
<text text-anchor="middle" x="879" y="-197.5" font-family="Helvetica,sans-Serif" font-size="10.00">gravpm_force</text>
</a>
</g>
</g>
<!-- Node511&#45;&gt;Node523 -->
<g id="edge23" class="edge"><title>Node511&#45;&gt;Node523</title>
<path fill="none" stroke="midnightblue" d="M756.188,-102.208C786.167,-126.275 841.532,-170.723 865.924,-190.305"/>
<polygon fill="midnightblue" stroke="midnightblue" points="758.096,-99.2507 748.107,-95.7196 753.714,-104.709 758.096,-99.2507"/>
</g>
<!-- Node512&#45;&gt;Node513 -->
<g id="edge7" class="edge"><title>Node512&#45;&gt;Node513</title>
<path fill="none" stroke="midnightblue" d="M928.635,-111.96C950.08,-106.651 974.923,-100.501 995.044,-95.5201"/>
<polygon fill="midnightblue" stroke="midnightblue" points="927.6,-108.61 918.735,-114.411 929.283,-115.405 927.6,-108.61"/>
</g>
<!-- Node512&#45;&gt;Node514 -->
<g id="edge16" class="edge"><title>Node512&#45;&gt;Node514</title>
<path fill="none" stroke="midnightblue" d="M950.518,-124C1014.11,-124 1102.73,-124 1136.84,-124"/>
<polygon fill="midnightblue" stroke="midnightblue" points="950.144,-120.5 940.144,-124 950.144,-127.5 950.144,-120.5"/>
</g>
<!-- Node518 -->
<g id="node13" class="node"><title>Node518</title>
<g id="a_node13"><a xlink:href="proto_8h.html#ab080cb20bac2a1a6153a84e8cfd15374" target="_top" xlink:title="init">
<polygon fill="white" stroke="black" points="1020,-152.5 1020,-171.5 1049,-171.5 1049,-152.5 1020,-152.5"/>
<text text-anchor="middle" x="1034.5" y="-159.5" font-family="Helvetica,sans-Serif" font-size="10.00">init</text>
</a>
</g>
</g>
<!-- Node512&#45;&gt;Node518 -->
<g id="edge13" class="edge"><title>Node512&#45;&gt;Node518</title>
<path fill="none" stroke="midnightblue" d="M928.74,-136.066C960.462,-143.919 999.581,-153.603 1019.86,-158.624"/>
<polygon fill="midnightblue" stroke="midnightblue" points="929.283,-132.595 918.735,-133.589 927.6,-139.39 929.283,-132.595"/>
</g>
<!-- Node520 -->
<g id="node15" class="node"><title>Node520</title>
<g id="a_node15"><a xlink:href="runtests_8c.html#a549024555ca61e3f05a7100307e44f69" target="_top" xlink:title="runtests">
<polygon fill="white" stroke="black" points="1008.5,-190.5 1008.5,-209.5 1060.5,-209.5 1060.5,-190.5 1008.5,-190.5"/>
<text text-anchor="middle" x="1034.5" y="-197.5" font-family="Helvetica,sans-Serif" font-size="10.00">runtests</text>
</a>
</g>
</g>
<!-- Node512&#45;&gt;Node520 -->
<g id="edge17" class="edge"><title>Node512&#45;&gt;Node520</title>
<path fill="none" stroke="midnightblue" d="M902.645,-139.356C921.633,-151.758 949.776,-169.053 976,-181 986.333,-185.707 998.181,-189.824 1008.43,-193.012"/>
<polygon fill="midnightblue" stroke="midnightblue" points="904.378,-136.306 894.107,-133.706 900.515,-142.144 904.378,-136.306"/>
</g>
<!-- Node513&#45;&gt;Node514 -->
<g id="edge8" class="edge"><title>Node513&#45;&gt;Node514</title>
<path fill="none" stroke="midnightblue" d="M1074.24,-98.7459C1095.85,-105.854 1121.45,-114.278 1136.95,-119.376"/>
<polygon fill="midnightblue" stroke="midnightblue" points="1075.24,-95.3896 1064.65,-95.589 1073.05,-102.039 1075.24,-95.3896"/>
</g>
<!-- Node515 -->
<g id="node10" class="node"><title>Node515</title>
<g id="a_node10"><a xlink:href="main_8c.html#a3c04138a5bfe5d72780bb7e82a18e627" target="_top" xlink:title="main">
<polygon fill="white" stroke="black" points="1211,-152.5 1211,-171.5 1249,-171.5 1249,-152.5 1211,-152.5"/>
<text text-anchor="middle" x="1230" y="-159.5" font-family="Helvetica,sans-Serif" font-size="10.00">main</text>
</a>
</g>
</g>
<!-- Node514&#45;&gt;Node515 -->
<g id="edge9" class="edge"><title>Node514&#45;&gt;Node515</title>
<path fill="none" stroke="midnightblue" d="M1176.39,-135.693C1187.43,-141.217 1200.42,-147.712 1210.73,-152.867"/>
<polygon fill="midnightblue" stroke="midnightblue" points="1177.8,-132.489 1167.3,-131.148 1174.67,-138.75 1177.8,-132.489"/>
</g>
<!-- Node516 -->
<g id="node11" class="node"><title>Node516</title>
<g id="a_node11"><a xlink:href="walltime_8h.html#a76d2135b612766d4d665748454b879d6" target="_top" xlink:title="walltime_report">
<polygon fill="white" stroke="black" points="1285,-152.5 1285,-171.5 1368,-171.5 1368,-152.5 1285,-152.5"/>
<text text-anchor="middle" x="1326.5" y="-159.5" font-family="Helvetica,sans-Serif" font-size="10.00">walltime_report</text>
</a>
</g>
</g>
<!-- Node515&#45;&gt;Node516 -->
<g id="edge10" class="edge"><title>Node515&#45;&gt;Node516</title>
<path fill="none" stroke="midnightblue" d="M1259.41,-162C1267.35,-162 1276.13,-162 1284.63,-162"/>
<polygon fill="midnightblue" stroke="midnightblue" points="1259.22,-158.5 1249.22,-162 1259.22,-165.5 1259.22,-158.5"/>
</g>
<!-- Node517 -->
<g id="node12" class="node"><title>Node517</title>
<g id="a_node12"><a xlink:href="run_8c.html#adc59e9ee1517e4e690694a64ab6a59d2" target="_top" xlink:title="write_cpu_log">
<polygon fill="white" stroke="black" points="1404,-133.5 1404,-152.5 1481,-152.5 1481,-133.5 1404,-133.5"/>
<text text-anchor="middle" x="1442.5" y="-140.5" font-family="Helvetica,sans-Serif" font-size="10.00">write_cpu_log</text>
</a>
</g>
</g>
<!-- Node516&#45;&gt;Node517 -->
<g id="edge11" class="edge"><title>Node516&#45;&gt;Node517</title>
<path fill="none" stroke="midnightblue" d="M1378.03,-153.578C1386.68,-152.136 1395.54,-150.66 1403.78,-149.286"/>
<polygon fill="midnightblue" stroke="midnightblue" points="1377.3,-150.151 1368.01,-155.248 1378.45,-157.056 1377.3,-150.151"/>
</g>
<!-- Node517&#45;&gt;Node514 -->
<g id="edge12" class="edge"><title>Node517&#45;&gt;Node514</title>
<path fill="none" stroke="midnightblue" d="M1393.5,-139.839C1326.38,-135.418 1208.1,-127.629 1167.31,-124.942"/>
<polygon fill="midnightblue" stroke="midnightblue" points="1393.61,-143.354 1403.82,-140.518 1394.07,-136.369 1393.61,-143.354"/>
</g>
<!-- Node519 -->
<g id="node14" class="node"><title>Node519</title>
<g id="a_node14"><a xlink:href="proto_8h.html#a74dc0e5e9eefe11fc8434b62de573146" target="_top" xlink:title="begrun">
<polygon fill="white" stroke="black" points="1129,-152.5 1129,-171.5 1175,-171.5 1175,-152.5 1129,-152.5"/>
<text text-anchor="middle" x="1152" y="-159.5" font-family="Helvetica,sans-Serif" font-size="10.00">begrun</text>
</a>
</g>
</g>
<!-- Node518&#45;&gt;Node519 -->
<g id="edge14" class="edge"><title>Node518&#45;&gt;Node519</title>
<path fill="none" stroke="midnightblue" d="M1059.22,-162C1079.56,-162 1108.65,-162 1128.6,-162"/>
<polygon fill="midnightblue" stroke="midnightblue" points="1059.2,-158.5 1049.2,-162 1059.2,-165.5 1059.2,-158.5"/>
</g>
<!-- Node519&#45;&gt;Node515 -->
<g id="edge15" class="edge"><title>Node519&#45;&gt;Node515</title>
<path fill="none" stroke="midnightblue" d="M1185.54,-162C1194.11,-162 1203.07,-162 1210.6,-162"/>
<polygon fill="midnightblue" stroke="midnightblue" points="1185.39,-158.5 1175.39,-162 1185.39,-165.5 1185.39,-158.5"/>
</g>
<!-- Node520&#45;&gt;Node515 -->
<g id="edge18" class="edge"><title>Node520&#45;&gt;Node515</title>
<path fill="none" stroke="midnightblue" d="M1070.98,-197.171C1099.4,-194.427 1140.13,-189.416 1175,-181 1187.17,-178.062 1200.44,-173.413 1210.78,-169.45"/>
<polygon fill="midnightblue" stroke="midnightblue" points="1070.37,-193.712 1060.73,-198.114 1071.01,-200.683 1070.37,-193.712"/>
</g>
<!-- Node522 -->
<g id="node17" class="node"><title>Node522</title>
<g id="a_node17"><a xlink:href="proto_8h.html#a312b6a02f7cde171412989ea5f9be48f" target="_top" xlink:title="write_checkpoint">
<polygon fill="white" stroke="black" points="989.5,-0.5 989.5,-19.5 1079.5,-19.5 1079.5,-0.5 989.5,-0.5"/>
<text text-anchor="middle" x="1034.5" y="-7.5" font-family="Helvetica,sans-Serif" font-size="10.00">write_checkpoint</text>
</a>
</g>
</g>
<!-- Node521&#45;&gt;Node522 -->
<g id="edge21" class="edge"><title>Node521&#45;&gt;Node522</title>
<path fill="none" stroke="midnightblue" d="M933.727,-10C951.888,-10 971.944,-10 989.282,-10"/>
<polygon fill="midnightblue" stroke="midnightblue" points="933.576,-6.5001 923.576,-10 933.576,-13.5001 933.576,-6.5001"/>
</g>
<!-- Node522&#45;&gt;Node514 -->
<g id="edge22" class="edge"><title>Node522&#45;&gt;Node514</title>
<path fill="none" stroke="midnightblue" d="M1077.33,-23.8811C1082.92,-26.732 1088.32,-30.086 1093,-34 1120.37,-56.9067 1139.31,-96.0783 1147.07,-114.232"/>
<polygon fill="midnightblue" stroke="midnightblue" points="1078.41,-20.5238 1067.86,-19.5483 1075.5,-26.8899 1078.41,-20.5238"/>
</g>
<!-- Node523&#45;&gt;Node520 -->
<g id="edge26" class="edge"><title>Node523&#45;&gt;Node520</title>
<path fill="none" stroke="midnightblue" d="M927.445,-200C954.109,-200 986.324,-200 1008.2,-200"/>
<polygon fill="midnightblue" stroke="midnightblue" points="927.158,-196.5 917.158,-200 927.158,-203.5 927.158,-196.5"/>
</g>
<!-- Node524 -->
<g id="node19" class="node"><title>Node524</title>
<g id="a_node19"><a xlink:href="run_8c.html#abb80d08f4d52f4a7bdf28d1cecfead5b" target="_top" xlink:title="compute_accelerations">
<polygon fill="white" stroke="black" points="976,-228.5 976,-247.5 1093,-247.5 1093,-228.5 976,-228.5"/>
<text text-anchor="middle" x="1034.5" y="-235.5" font-family="Helvetica,sans-Serif" font-size="10.00">compute_accelerations</text>
</a>
</g>
</g>
<!-- Node523&#45;&gt;Node524 -->
<g id="edge24" class="edge"><title>Node523&#45;&gt;Node524</title>
<path fill="none" stroke="midnightblue" d="M926.894,-211.609C948.739,-217.017 974.406,-223.371 995.081,-228.489"/>
<polygon fill="midnightblue" stroke="midnightblue" points="927.706,-208.204 917.158,-209.199 926.024,-214.999 927.706,-208.204"/>
</g>
<!-- Node524&#45;&gt;Node514 -->
<g id="edge25" class="edge"><title>Node524&#45;&gt;Node514</title>
<path fill="none" stroke="midnightblue" d="M1086.79,-223.673C1088.98,-222.259 1091.07,-220.706 1093,-219 1121.01,-194.249 1106.37,-172.745 1129,-143 1131.57,-139.626 1134.82,-136.421 1138.03,-133.637"/>
<polygon fill="midnightblue" stroke="midnightblue" points="1085.02,-220.649 1077.87,-228.469 1088.34,-226.814 1085.02,-220.649"/>
</g>
</g>
</svg>
