<?xml version="1.0" encoding="UTF-8" standalone="no"?>
<!DOCTYPE svg PUBLIC "-//W3C//DTD SVG 1.1//EN"
 "http://www.w3.org/Graphics/SVG/1.1/DTD/svg11.dtd">
<!-- Generated by graphviz version 2.38.0 (20140413.2041)
 -->
<!-- Title: grav_short_pair_ngbiter Pages: 1 -->
<svg width="330pt" height="237pt"
 viewBox="0.00 0.00 329.65 237.15" xmlns="http://www.w3.org/2000/svg" xmlns:xlink="http://www.w3.org/1999/xlink">
<g id="graph0" class="graph" transform="scale(1 1) rotate(0) translate(4 233.147)">
<title>grav_short_pair_ngbiter</title>
<polygon fill="white" stroke="none" points="-4,4 -4,-233.147 325.647,-233.147 325.647,4 -4,4"/>
<!-- Node66 -->
<g id="node1" class="node"><title>Node66</title>
<polygon fill="#bfbfbf" stroke="black" points="100.823,-35.8234 100.823,-54.8234 218.823,-54.8234 218.823,-35.8234 100.823,-35.8234"/>
<text text-anchor="middle" x="159.823" y="-42.8234" font-family="Helvetica,sans-Serif" font-size="10.00">grav_short_pair_ngbiter</text>
</g>
<!-- Node67 -->
<g id="node2" class="node"><title>Node67</title>
<g id="a_node2"><a xlink:href="endrun_8c.html#ad963d7efdb9f10f7a2298c8ccd222ab0" target="_top" xlink:title="endrun">
<polygon fill="white" stroke="black" points="136.823,-107.823 136.823,-126.823 182.823,-126.823 182.823,-107.823 136.823,-107.823"/>
<text text-anchor="middle" x="159.823" y="-114.823" font-family="Helvetica,sans-Serif" font-size="10.00">endrun</text>
</a>
</g>
</g>
<!-- Node66&#45;&gt;Node67 -->
<g id="edge1" class="edge"><title>Node66&#45;&gt;Node67</title>
<path fill="none" stroke="midnightblue" d="M159.823,-55.0336C159.823,-65.9372 159.823,-83.9156 159.823,-97.7622"/>
<polygon fill="midnightblue" stroke="midnightblue" points="156.323,-97.7669 159.823,-107.767 163.323,-97.767 156.323,-97.7669"/>
</g>
<!-- Node71 -->
<g id="node6" class="node"><title>Node71</title>
<g id="a_node6"><a xlink:href="partmanager_8h.html#a75af6ed4098fb6fbcc96a532b6e1bd11" target="_top" xlink:title="FORCE_SOFTENING">
<polygon fill="white" stroke="black" points="-1.42109e-14,-6 -1.42109e-14,-25 116,-25 116,-6 -1.42109e-14,-6"/>
<text text-anchor="middle" x="58" y="-13" font-family="Helvetica,sans-Serif" font-size="10.00">FORCE_SOFTENING</text>
</a>
</g>
</g>
<!-- Node66&#45;&gt;Node71 -->
<g id="edge5" class="edge"><title>Node66&#45;&gt;Node71</title>
<path fill="none" stroke="midnightblue" d="M127.326,-35.8051C118.692,-33.2763 109.242,-30.5083 100.173,-27.852"/>
<polygon fill="midnightblue" stroke="midnightblue" points="101.119,-24.4822 90.538,-25.0302 99.151,-31.2 101.119,-24.4822"/>
</g>
<!-- Node72 -->
<g id="node7" class="node"><title>Node72</title>
<g id="a_node7"><a xlink:href="gravshort_8h.html#a12c9a07d8a9055ea0e0455cc0180f735" target="_top" xlink:title="grav_apply_short_range\l_window">
<polygon fill="white" stroke="black" points="201.647,-0.5 201.647,-30.5 321.647,-30.5 321.647,-0.5 201.647,-0.5"/>
<text text-anchor="start" x="209.647" y="-18.5" font-family="Helvetica,sans-Serif" font-size="10.00">grav_apply_short_range</text>
<text text-anchor="middle" x="261.647" y="-7.5" font-family="Helvetica,sans-Serif" font-size="10.00">_window</text>
</a>
</g>
</g>
<!-- Node66&#45;&gt;Node72 -->
<g id="edge6" class="edge"><title>Node66&#45;&gt;Node72</title>
<path fill="none" stroke="midnightblue" d="M192.321,-35.8051C194.995,-35.022 197.746,-34.216 200.541,-33.3974"/>
<polygon fill="midnightblue" stroke="midnightblue" points="201.543,-36.7511 210.156,-30.5813 199.575,-30.0333 201.543,-36.7511"/>
</g>
<!-- Node68 -->
<g id="node3" class="node"><title>Node68</title>
<g id="a_node3"><a xlink:href="endrun_8c.html#a7267113a7c0a094743bb565eabc695d1" target="_top" xlink:title="messagev">
<polygon fill="white" stroke="black" points="128.823,-179.823 128.823,-198.823 190.823,-198.823 190.823,-179.823 128.823,-179.823"/>
<text text-anchor="middle" x="159.823" y="-186.823" font-family="Helvetica,sans-Serif" font-size="10.00">messagev</text>
</a>
</g>
</g>
<!-- Node67&#45;&gt;Node68 -->
<g id="edge2" class="edge"><title>Node67&#45;&gt;Node68</title>
<path fill="none" stroke="midnightblue" d="M159.823,-127.034C159.823,-137.937 159.823,-155.916 159.823,-169.762"/>
<polygon fill="midnightblue" stroke="midnightblue" points="156.323,-169.767 159.823,-179.767 163.323,-169.767 156.323,-169.767"/>
</g>
<!-- Node69 -->
<g id="node4" class="node"><title>Node69</title>
<g id="a_node4"><a xlink:href="endrun_8c.html#a87108946670b4c3afbe846c6726675ff" target="_top" xlink:title="putline">
<polygon fill="white" stroke="black" points="239.147,-209.647 239.147,-228.647 284.147,-228.647 284.147,-209.647 239.147,-209.647"/>
<text text-anchor="middle" x="261.647" y="-216.647" font-family="Helvetica,sans-Serif" font-size="10.00">putline</text>
</a>
</g>
</g>
<!-- Node68&#45;&gt;Node69 -->
<g id="edge3" class="edge"><title>Node68&#45;&gt;Node69</title>
<path fill="none" stroke="midnightblue" d="M190.927,-198.433C203.081,-201.993 217.019,-206.076 229.291,-209.67"/>
<polygon fill="midnightblue" stroke="midnightblue" points="228.551,-213.1 239.132,-212.552 230.519,-206.382 228.551,-213.1"/>
</g>
<!-- Node70 -->
<g id="node5" class="node"><title>Node70</title>
<g id="a_node5"><a xlink:href="endrun_8c.html#a1200f02a595ab7cbe17c9e36ff32af0f" target="_top" xlink:title="show_backtrace">
<polygon fill="white" stroke="black" points="14,-209.647 14,-228.647 102,-228.647 102,-209.647 14,-209.647"/>
<text text-anchor="middle" x="58" y="-216.647" font-family="Helvetica,sans-Serif" font-size="10.00">show_backtrace</text>
</a>
</g>
</g>
<!-- Node68&#45;&gt;Node70 -->
<g id="edge4" class="edge"><title>Node68&#45;&gt;Node70</title>
<path fill="none" stroke="midnightblue" d="M128.72,-198.433C119.778,-201.052 109.87,-203.954 100.371,-206.737"/>
<polygon fill="midnightblue" stroke="midnightblue" points="99.2902,-203.406 90.6772,-209.576 101.258,-210.124 99.2902,-203.406"/>
</g>
</g>
</svg>
