<?xml version="1.0" encoding="UTF-8" standalone="no"?>
<!DOCTYPE svg PUBLIC "-//W3C//DTD SVG 1.1//EN"
 "http://www.w3.org/Graphics/SVG/1.1/DTD/svg11.dtd">
<!-- Generated by graphviz version 2.50.0 (0)
 -->
<!-- Title: libgadget/gravity.c Pages: 1 -->
<svg width="1753pt" height="532pt"
 viewBox="0.00 0.00 1753.00 532.00" xmlns="http://www.w3.org/2000/svg" xmlns:xlink="http://www.w3.org/1999/xlink">
<g id="graph0" class="graph" transform="scale(1 1) rotate(0) translate(4 528)">
<title>libgadget/gravity.c</title>
<polygon fill="white" stroke="transparent" points="-4,4 -4,-528 1749,-528 1749,4 -4,4"/>
<!-- Node1 -->
<g id="node1" class="node">
<title>Node1</title>
<g id="a_node1"><a xlink:title=" ">
<polygon fill="#bfbfbf" stroke="black" points="904.5,-504.5 904.5,-523.5 1011.5,-523.5 1011.5,-504.5 904.5,-504.5"/>
<text text-anchor="middle" x="958" y="-511.5" font-family="Helvetica,sans-Serif" font-size="10.00">libgadget/gravity.c</text>
</a>
</g>
</g>
<!-- Node2 -->
<g id="node2" class="node">
<title>Node2</title>
<g id="a_node2"><a xlink:title=" ">
<polygon fill="white" stroke="#bfbfbf" points="54,-56.5 54,-75.5 98,-75.5 98,-56.5 54,-56.5"/>
<text text-anchor="middle" x="76" y="-63.5" font-family="Helvetica,sans-Serif" font-size="10.00">mpi.h</text>
</a>
</g>
</g>
<!-- Node1&#45;&gt;Node2 -->
<g id="edge1" class="edge">
<title>Node1&#45;&gt;Node2</title>
<path fill="none" stroke="midnightblue" d="M904.44,-512.52C702.69,-510.03 0,-494.76 0,-403 0,-403 0,-403 0,-177 0,-137.28 33.96,-101.5 56.48,-82.15"/>
<polygon fill="midnightblue" stroke="midnightblue" points="58.98,-84.63 64.46,-75.57 54.52,-79.24 58.98,-84.63"/>
</g>
<!-- Node3 -->
<g id="node3" class="node">
<title>Node3</title>
<g id="a_node3"><a xlink:title=" ">
<polygon fill="white" stroke="#bfbfbf" points="203,-56.5 203,-75.5 253,-75.5 253,-56.5 203,-56.5"/>
<text text-anchor="middle" x="228" y="-63.5" font-family="Helvetica,sans-Serif" font-size="10.00">stdio.h</text>
</a>
</g>
</g>
<!-- Node1&#45;&gt;Node3 -->
<g id="edge2" class="edge">
<title>Node1&#45;&gt;Node3</title>
<path fill="none" stroke="midnightblue" d="M904.49,-511.35C724.48,-505.08 152,-479.17 152,-403 152,-403 152,-403 152,-177 152,-146.9 154.17,-136.95 171,-112 179.4,-99.55 192.33,-88.94 203.75,-81.15"/>
<polygon fill="midnightblue" stroke="midnightblue" points="205.96,-83.89 212.47,-75.54 202.17,-78.01 205.96,-83.89"/>
</g>
<!-- Node4 -->
<g id="node4" class="node">
<title>Node4</title>
<g id="a_node4"><a xlink:title=" ">
<polygon fill="white" stroke="#bfbfbf" points="1036.5,-448.5 1036.5,-467.5 1089.5,-467.5 1089.5,-448.5 1036.5,-448.5"/>
<text text-anchor="middle" x="1063" y="-455.5" font-family="Helvetica,sans-Serif" font-size="10.00">stdlib.h</text>
</a>
</g>
</g>
<!-- Node1&#45;&gt;Node4 -->
<g id="edge3" class="edge">
<title>Node1&#45;&gt;Node4</title>
<path fill="none" stroke="midnightblue" d="M974.87,-504.32C991.71,-495.66 1017.81,-482.24 1037.24,-472.25"/>
<polygon fill="midnightblue" stroke="midnightblue" points="1038.88,-475.34 1046.17,-467.65 1035.68,-469.12 1038.88,-475.34"/>
</g>
<!-- Node5 -->
<g id="node5" class="node">
<title>Node5</title>
<g id="a_node5"><a xlink:href="string_8h.html" target="_top" xlink:title=" ">
<polygon fill="white" stroke="black" points="1014.5,-112.5 1014.5,-131.5 1067.5,-131.5 1067.5,-112.5 1014.5,-112.5"/>
<text text-anchor="middle" x="1041" y="-119.5" font-family="Helvetica,sans-Serif" font-size="10.00">string.h</text>
</a>
</g>
</g>
<!-- Node1&#45;&gt;Node5 -->
<g id="edge4" class="edge">
<title>Node1&#45;&gt;Node5</title>
<path fill="none" stroke="midnightblue" d="M954.09,-504.36C946.17,-486.07 929,-441.91 929,-403 929,-403 929,-403 929,-345 929,-265.88 902.45,-232.69 948,-168 955.44,-157.43 983.99,-144.5 1007.51,-135.21"/>
<polygon fill="midnightblue" stroke="midnightblue" points="1008.81,-138.46 1016.88,-131.6 1006.29,-131.93 1008.81,-138.46"/>
</g>
<!-- Node7 -->
<g id="node7" class="node">
<title>Node7</title>
<g id="a_node7"><a xlink:title=" ">
<polygon fill="white" stroke="#bfbfbf" points="1107.5,-448.5 1107.5,-467.5 1158.5,-467.5 1158.5,-448.5 1107.5,-448.5"/>
<text text-anchor="middle" x="1133" y="-455.5" font-family="Helvetica,sans-Serif" font-size="10.00">math.h</text>
</a>
</g>
</g>
<!-- Node1&#45;&gt;Node7 -->
<g id="edge6" class="edge">
<title>Node1&#45;&gt;Node7</title>
<path fill="none" stroke="midnightblue" d="M985.73,-504.44C1016.04,-495.09 1064.67,-480.08 1097.69,-469.9"/>
<polygon fill="midnightblue" stroke="midnightblue" points="1098.87,-473.19 1107.39,-466.9 1096.81,-466.51 1098.87,-473.19"/>
</g>
<!-- Node8 -->
<g id="node8" class="node">
<title>Node8</title>
<g id="a_node8"><a xlink:href="utils_8h.html" target="_top" xlink:title=" ">
<polygon fill="white" stroke="black" points="782.5,-168.5 782.5,-187.5 829.5,-187.5 829.5,-168.5 782.5,-168.5"/>
<text text-anchor="middle" x="806" y="-175.5" font-family="Helvetica,sans-Serif" font-size="10.00">utils.h</text>
</a>
</g>
</g>
<!-- Node1&#45;&gt;Node8 -->
<g id="edge7" class="edge">
<title>Node1&#45;&gt;Node8</title>
<path fill="none" stroke="midnightblue" d="M904.29,-511.47C833,-506.24 716,-485.15 716,-403 716,-403 716,-403 716,-289 716,-246.66 756.44,-211.66 783.1,-193.18"/>
<polygon fill="midnightblue" stroke="midnightblue" points="785.16,-196.02 791.54,-187.56 781.28,-190.19 785.16,-196.02"/>
</g>
<!-- Node21 -->
<g id="node21" class="node">
<title>Node21</title>
<g id="a_node21"><a xlink:href="gravity_8h.html" target="_top" xlink:title=" ">
<polygon fill="white" stroke="black" points="959.5,-448.5 959.5,-467.5 1018.5,-467.5 1018.5,-448.5 959.5,-448.5"/>
<text text-anchor="middle" x="989" y="-455.5" font-family="Helvetica,sans-Serif" font-size="10.00">gravity.h</text>
</a>
</g>
</g>
<!-- Node1&#45;&gt;Node21 -->
<g id="edge33" class="edge">
<title>Node1&#45;&gt;Node21</title>
<path fill="none" stroke="midnightblue" d="M963.12,-504.08C967.41,-496.61 973.66,-485.72 978.94,-476.52"/>
<polygon fill="midnightblue" stroke="midnightblue" points="982.03,-478.17 983.98,-467.75 975.96,-474.68 982.03,-478.17"/>
</g>
<!-- Node38 -->
<g id="node38" class="node">
<title>Node38</title>
<g id="a_node38"><a xlink:href="shortrange-kernel_8c.html" target="_top" xlink:title=" ">
<polygon fill="white" stroke="black" points="1176.5,-448.5 1176.5,-467.5 1287.5,-467.5 1287.5,-448.5 1176.5,-448.5"/>
<text text-anchor="middle" x="1232" y="-455.5" font-family="Helvetica,sans-Serif" font-size="10.00">shortrange&#45;kernel.c</text>
</a>
</g>
</g>
<!-- Node1&#45;&gt;Node38 -->
<g id="edge72" class="edge">
<title>Node1&#45;&gt;Node38</title>
<path fill="none" stroke="midnightblue" d="M1001.42,-504.44C1049.52,-494.96 1127.09,-479.67 1178.81,-469.48"/>
<polygon fill="midnightblue" stroke="midnightblue" points="1179.65,-472.88 1188.79,-467.52 1178.3,-466.02 1179.65,-472.88"/>
</g>
<!-- Node6 -->
<g id="node6" class="node">
<title>Node6</title>
<g id="a_node6"><a xlink:title=" ">
<polygon fill="white" stroke="#bfbfbf" points="966,-56.5 966,-75.5 1022,-75.5 1022,-56.5 966,-56.5"/>
<text text-anchor="middle" x="994" y="-63.5" font-family="Helvetica,sans-Serif" font-size="10.00">stdarg.h</text>
</a>
</g>
</g>
<!-- Node5&#45;&gt;Node6 -->
<g id="edge5" class="edge">
<title>Node5&#45;&gt;Node6</title>
<path fill="none" stroke="midnightblue" d="M1033.24,-112.08C1026.46,-104.3 1016.46,-92.8 1008.24,-83.37"/>
<polygon fill="midnightblue" stroke="midnightblue" points="1010.82,-81 1001.62,-75.75 1005.54,-85.59 1010.82,-81"/>
</g>
<!-- Node8&#45;&gt;Node2 -->
<g id="edge11" class="edge">
<title>Node8&#45;&gt;Node2</title>
<path fill="none" stroke="midnightblue" d="M782.19,-176.97C681.07,-176.58 287.1,-172.47 171,-132 140.51,-121.37 110.67,-98.27 92.8,-82.67"/>
<polygon fill="midnightblue" stroke="midnightblue" points="94.82,-79.78 85.04,-75.7 90.14,-84.99 94.82,-79.78"/>
</g>
<!-- Node8&#45;&gt;Node3 -->
<g id="edge8" class="edge">
<title>Node8&#45;&gt;Node3</title>
<path fill="none" stroke="midnightblue" d="M801.4,-168.37C793.12,-153.82 774.18,-124.74 749,-112 727.32,-101.03 377.51,-76.93 263.57,-69.34"/>
<polygon fill="midnightblue" stroke="midnightblue" points="263.51,-65.83 253.3,-68.66 263.04,-72.81 263.51,-65.83"/>
</g>
<!-- Node8&#45;&gt;Node5 -->
<g id="edge28" class="edge">
<title>Node8&#45;&gt;Node5</title>
<path fill="none" stroke="midnightblue" d="M829.63,-171.84C865.26,-164.01 935.12,-148.53 1004.5,-132.08"/>
<polygon fill="midnightblue" stroke="midnightblue" points="1005.36,-135.47 1014.28,-129.75 1003.74,-128.66 1005.36,-135.47"/>
</g>
<!-- Node9 -->
<g id="node9" class="node">
<title>Node9</title>
<g id="a_node9"><a xlink:title=" ">
<polygon fill="white" stroke="#bfbfbf" points="1082.5,-56.5 1082.5,-75.5 1135.5,-75.5 1135.5,-56.5 1082.5,-56.5"/>
<text text-anchor="middle" x="1109" y="-63.5" font-family="Helvetica,sans-Serif" font-size="10.00">stdint.h</text>
</a>
</g>
</g>
<!-- Node8&#45;&gt;Node9 -->
<g id="edge9" class="edge">
<title>Node8&#45;&gt;Node9</title>
<path fill="none" stroke="midnightblue" d="M829.81,-174.3C892.23,-167.06 1057.19,-146.72 1077,-132 1092.11,-120.77 1100.49,-100.46 1104.85,-85.51"/>
<polygon fill="midnightblue" stroke="midnightblue" points="1108.24,-86.35 1107.34,-75.79 1101.47,-84.61 1108.24,-86.35"/>
</g>
<!-- Node10 -->
<g id="node10" class="node">
<title>Node10</title>
<g id="a_node10"><a xlink:title=" ">
<polygon fill="white" stroke="#bfbfbf" points="868,-0.5 868,-19.5 924,-19.5 924,-0.5 868,-0.5"/>
<text text-anchor="middle" x="896" y="-7.5" font-family="Helvetica,sans-Serif" font-size="10.00">stddef.h</text>
</a>
</g>
</g>
<!-- Node8&#45;&gt;Node10 -->
<g id="edge10" class="edge">
<title>Node8&#45;&gt;Node10</title>
<path fill="none" stroke="midnightblue" d="M813.52,-168.43C827.82,-151.75 859.06,-113.27 877,-76 884.17,-61.1 889.2,-42.96 892.27,-29.63"/>
<polygon fill="midnightblue" stroke="midnightblue" points="895.72,-30.26 894.4,-19.74 888.87,-28.78 895.72,-30.26"/>
</g>
<!-- Node11 -->
<g id="node11" class="node">
<title>Node11</title>
<g id="a_node11"><a xlink:href="peano_8h.html" target="_top" xlink:title=" ">
<polygon fill="white" stroke="black" points="1124,-112.5 1124,-131.5 1204,-131.5 1204,-112.5 1124,-112.5"/>
<text text-anchor="middle" x="1164" y="-119.5" font-family="Helvetica,sans-Serif" font-size="10.00">utils/peano.h</text>
</a>
</g>
</g>
<!-- Node8&#45;&gt;Node11 -->
<g id="edge12" class="edge">
<title>Node8&#45;&gt;Node11</title>
<path fill="none" stroke="midnightblue" d="M829.67,-173.65C880.86,-166.36 1005.65,-148.42 1110,-132 1111.27,-131.8 1112.55,-131.6 1113.85,-131.39"/>
<polygon fill="midnightblue" stroke="midnightblue" points="1114.59,-134.82 1123.91,-129.77 1113.48,-127.9 1114.59,-134.82"/>
</g>
<!-- Node12 -->
<g id="node12" class="node">
<title>Node12</title>
<g id="a_node12"><a xlink:href="memory_8h.html" target="_top" xlink:title=" ">
<polygon fill="white" stroke="black" points="375.5,-56.5 375.5,-75.5 464.5,-75.5 464.5,-56.5 375.5,-56.5"/>
<text text-anchor="middle" x="420" y="-63.5" font-family="Helvetica,sans-Serif" font-size="10.00">utils/memory.h</text>
</a>
</g>
</g>
<!-- Node8&#45;&gt;Node12 -->
<g id="edge15" class="edge">
<title>Node8&#45;&gt;Node12</title>
<path fill="none" stroke="midnightblue" d="M782.38,-170.93C777.64,-169.84 772.68,-168.81 768,-168 695.52,-155.5 495.36,-179.25 439,-132 425.65,-120.8 421.39,-100.78 420.17,-85.91"/>
<polygon fill="midnightblue" stroke="midnightblue" points="423.66,-85.61 419.73,-75.77 416.66,-85.91 423.66,-85.61"/>
</g>
<!-- Node13 -->
<g id="node13" class="node">
<title>Node13</title>
<g id="a_node13"><a xlink:href="mymalloc_8h.html" target="_top" xlink:title=" ">
<polygon fill="white" stroke="black" points="294,-112.5 294,-131.5 392,-131.5 392,-112.5 294,-112.5"/>
<text text-anchor="middle" x="343" y="-119.5" font-family="Helvetica,sans-Serif" font-size="10.00">utils/mymalloc.h</text>
</a>
</g>
</g>
<!-- Node8&#45;&gt;Node13 -->
<g id="edge17" class="edge">
<title>Node8&#45;&gt;Node13</title>
<path fill="none" stroke="midnightblue" d="M782.38,-170.89C777.64,-169.81 772.68,-168.78 768,-168 608.54,-141.31 566.51,-151.44 406,-132 404.74,-131.85 403.46,-131.69 402.17,-131.53"/>
<polygon fill="midnightblue" stroke="midnightblue" points="402.52,-128.04 392.15,-130.23 401.62,-134.99 402.52,-128.04"/>
</g>
<!-- Node14 -->
<g id="node14" class="node">
<title>Node14</title>
<g id="a_node14"><a xlink:href="paramset_8h.html" target="_top" xlink:title=" ">
<polygon fill="white" stroke="black" points="180,-112.5 180,-131.5 276,-131.5 276,-112.5 180,-112.5"/>
<text text-anchor="middle" x="228" y="-119.5" font-family="Helvetica,sans-Serif" font-size="10.00">utils/paramset.h</text>
</a>
</g>
</g>
<!-- Node8&#45;&gt;Node14 -->
<g id="edge19" class="edge">
<title>Node8&#45;&gt;Node14</title>
<path fill="none" stroke="midnightblue" d="M782.4,-170.8C777.66,-169.73 772.69,-168.73 768,-168 558.49,-135.59 500.57,-156.16 286.16,-132.03"/>
<polygon fill="midnightblue" stroke="midnightblue" points="286.5,-128.55 276.16,-130.89 285.7,-135.5 286.5,-128.55"/>
</g>
<!-- Node15 -->
<g id="node15" class="node">
<title>Node15</title>
<g id="a_node15"><a xlink:href="event_8h.html" target="_top" xlink:title=" ">
<polygon fill="white" stroke="black" points="448.5,-112.5 448.5,-131.5 525.5,-131.5 525.5,-112.5 448.5,-112.5"/>
<text text-anchor="middle" x="487" y="-119.5" font-family="Helvetica,sans-Serif" font-size="10.00">utils/event.h</text>
</a>
</g>
</g>
<!-- Node8&#45;&gt;Node15 -->
<g id="edge21" class="edge">
<title>Node8&#45;&gt;Node15</title>
<path fill="none" stroke="midnightblue" d="M782.35,-171.09C777.61,-169.99 772.66,-168.91 768,-168 667.85,-148.47 639.4,-149.79 535.65,-132.23"/>
<polygon fill="midnightblue" stroke="midnightblue" points="536.16,-128.77 525.71,-130.53 534.97,-135.67 536.16,-128.77"/>
</g>
<!-- Node16 -->
<g id="node16" class="node">
<title>Node16</title>
<g id="a_node16"><a xlink:href="openmpsort_8h.html" target="_top" xlink:title=" ">
<polygon fill="white" stroke="black" points="664,-56.5 664,-75.5 772,-75.5 772,-56.5 664,-56.5"/>
<text text-anchor="middle" x="718" y="-63.5" font-family="Helvetica,sans-Serif" font-size="10.00">utils/openmpsort.h</text>
</a>
</g>
</g>
<!-- Node8&#45;&gt;Node16 -->
<g id="edge22" class="edge">
<title>Node8&#45;&gt;Node16</title>
<path fill="none" stroke="midnightblue" d="M804.49,-168.2C801.85,-154.88 795.35,-129.35 782,-112 772.07,-99.09 757.4,-88.41 744.61,-80.69"/>
<polygon fill="midnightblue" stroke="midnightblue" points="746.15,-77.53 735.73,-75.61 742.67,-83.61 746.15,-77.53"/>
</g>
<!-- Node17 -->
<g id="node17" class="node">
<title>Node17</title>
<g id="a_node17"><a xlink:href="system_8h.html" target="_top" xlink:title=" ">
<polygon fill="white" stroke="black" points="910,-112.5 910,-131.5 996,-131.5 996,-112.5 910,-112.5"/>
<text text-anchor="middle" x="953" y="-119.5" font-family="Helvetica,sans-Serif" font-size="10.00">utils/system.h</text>
</a>
</g>
</g>
<!-- Node8&#45;&gt;Node17 -->
<g id="edge24" class="edge">
<title>Node8&#45;&gt;Node17</title>
<path fill="none" stroke="midnightblue" d="M829.29,-168.44C853.81,-159.44 892.6,-145.19 920.2,-135.05"/>
<polygon fill="midnightblue" stroke="midnightblue" points="921.64,-138.25 929.82,-131.52 919.22,-131.68 921.64,-138.25"/>
</g>
<!-- Node18 -->
<g id="node18" class="node">
<title>Node18</title>
<g id="a_node18"><a xlink:href="endrun_8h.html" target="_top" xlink:title=" ">
<polygon fill="white" stroke="black" points="543.5,-112.5 543.5,-131.5 626.5,-131.5 626.5,-112.5 543.5,-112.5"/>
<text text-anchor="middle" x="585" y="-119.5" font-family="Helvetica,sans-Serif" font-size="10.00">utils/endrun.h</text>
</a>
</g>
</g>
<!-- Node8&#45;&gt;Node18 -->
<g id="edge29" class="edge">
<title>Node8&#45;&gt;Node18</title>
<path fill="none" stroke="midnightblue" d="M782.35,-171.22C746.04,-162.35 675.94,-145.22 629.81,-133.95"/>
<polygon fill="midnightblue" stroke="midnightblue" points="630.61,-130.54 620.06,-131.57 628.95,-137.34 630.61,-130.54"/>
</g>
<!-- Node19 -->
<g id="node19" class="node">
<title>Node19</title>
<g id="a_node19"><a xlink:href="interp_8h.html" target="_top" xlink:title=" ">
<polygon fill="white" stroke="black" points="790,-56.5 790,-75.5 868,-75.5 868,-56.5 790,-56.5"/>
<text text-anchor="middle" x="829" y="-63.5" font-family="Helvetica,sans-Serif" font-size="10.00">utils/interp.h</text>
</a>
</g>
</g>
<!-- Node8&#45;&gt;Node19 -->
<g id="edge30" class="edge">
<title>Node8&#45;&gt;Node19</title>
<path fill="none" stroke="midnightblue" d="M809.11,-168.49C812.27,-159.52 817.11,-144.94 820,-132 823.42,-116.69 825.76,-99.05 827.2,-86.01"/>
<polygon fill="midnightblue" stroke="midnightblue" points="830.7,-86.22 828.23,-75.91 823.73,-85.51 830.7,-86.22"/>
</g>
<!-- Node20 -->
<g id="node20" class="node">
<title>Node20</title>
<g id="a_node20"><a xlink:href="spinlocks_8h.html" target="_top" xlink:title=" ">
<polygon fill="white" stroke="black" points="644.5,-112.5 644.5,-131.5 739.5,-131.5 739.5,-112.5 644.5,-112.5"/>
<text text-anchor="middle" x="692" y="-119.5" font-family="Helvetica,sans-Serif" font-size="10.00">utils/spinlocks.h</text>
</a>
</g>
</g>
<!-- Node8&#45;&gt;Node20 -->
<g id="edge32" class="edge">
<title>Node8&#45;&gt;Node20</title>
<path fill="none" stroke="midnightblue" d="M787.94,-168.44C769.43,-159.68 740.42,-145.94 719.14,-135.86"/>
<polygon fill="midnightblue" stroke="midnightblue" points="720.51,-132.63 709.98,-131.52 717.52,-138.96 720.51,-132.63"/>
</g>
<!-- Node11&#45;&gt;Node9 -->
<g id="edge14" class="edge">
<title>Node11&#45;&gt;Node9</title>
<path fill="none" stroke="midnightblue" d="M1154.92,-112.08C1146.83,-104.14 1134.8,-92.34 1125.09,-82.8"/>
<polygon fill="midnightblue" stroke="midnightblue" points="1127.5,-80.26 1117.91,-75.75 1122.6,-85.25 1127.5,-80.26"/>
</g>
<!-- Node11&#45;&gt;Node10 -->
<g id="edge13" class="edge">
<title>Node11&#45;&gt;Node10</title>
<path fill="none" stroke="midnightblue" d="M1164.16,-112.36C1163.92,-98.31 1161.26,-70.63 1145,-56 1114.51,-28.57 996.06,-17.22 934.16,-13.08"/>
<polygon fill="midnightblue" stroke="midnightblue" points="934.22,-9.57 924.01,-12.43 933.77,-16.56 934.22,-9.57"/>
</g>
<!-- Node12&#45;&gt;Node10 -->
<g id="edge16" class="edge">
<title>Node12&#45;&gt;Node10</title>
<path fill="none" stroke="midnightblue" d="M464.78,-59.92C557.85,-49.36 770.75,-25.21 857.82,-15.33"/>
<polygon fill="midnightblue" stroke="midnightblue" points="858.26,-18.8 867.8,-14.2 857.47,-11.85 858.26,-18.8"/>
</g>
<!-- Node13&#45;&gt;Node12 -->
<g id="edge18" class="edge">
<title>Node13&#45;&gt;Node12</title>
<path fill="none" stroke="midnightblue" d="M355.37,-112.32C367.16,-104.06 385.13,-91.45 399.14,-81.63"/>
<polygon fill="midnightblue" stroke="midnightblue" points="401.48,-84.26 407.66,-75.65 397.46,-78.53 401.48,-84.26"/>
</g>
<!-- Node14&#45;&gt;Node3 -->
<g id="edge20" class="edge">
<title>Node14&#45;&gt;Node3</title>
<path fill="none" stroke="midnightblue" d="M228,-112.08C228,-105.01 228,-94.86 228,-85.99"/>
<polygon fill="midnightblue" stroke="midnightblue" points="231.5,-85.75 228,-75.75 224.5,-85.75 231.5,-85.75"/>
</g>
<!-- Node16&#45;&gt;Node10 -->
<g id="edge23" class="edge">
<title>Node16&#45;&gt;Node10</title>
<path fill="none" stroke="midnightblue" d="M746.2,-56.44C776.41,-47.28 824.51,-32.69 858.03,-22.52"/>
<polygon fill="midnightblue" stroke="midnightblue" points="859.37,-25.77 867.93,-19.52 857.34,-19.07 859.37,-25.77"/>
</g>
<!-- Node17&#45;&gt;Node2 -->
<g id="edge26" class="edge">
<title>Node17&#45;&gt;Node2</title>
<path fill="none" stroke="midnightblue" d="M909.77,-118.69C793.82,-112.45 466.29,-94.45 194,-76 165.02,-74.04 132.07,-71.5 108.37,-69.62"/>
<polygon fill="midnightblue" stroke="midnightblue" points="108.42,-66.11 98.18,-68.8 107.87,-73.09 108.42,-66.11"/>
</g>
<!-- Node17&#45;&gt;Node6 -->
<g id="edge27" class="edge">
<title>Node17&#45;&gt;Node6</title>
<path fill="none" stroke="midnightblue" d="M959.77,-112.08C965.56,-104.46 974.06,-93.26 981.14,-83.94"/>
<polygon fill="midnightblue" stroke="midnightblue" points="984.1,-85.83 987.36,-75.75 978.52,-81.6 984.1,-85.83"/>
</g>
<!-- Node17&#45;&gt;Node9 -->
<g id="edge25" class="edge">
<title>Node17&#45;&gt;Node9</title>
<path fill="none" stroke="midnightblue" d="M977.72,-112.44C1003.85,-103.4 1045.26,-89.06 1074.58,-78.92"/>
<polygon fill="midnightblue" stroke="midnightblue" points="1076.09,-82.1 1084.4,-75.52 1073.8,-75.48 1076.09,-82.1"/>
</g>
<!-- Node19&#45;&gt;Node10 -->
<g id="edge31" class="edge">
<title>Node19&#45;&gt;Node10</title>
<path fill="none" stroke="midnightblue" d="M839.76,-56.32C849.77,-48.26 864.89,-36.08 876.93,-26.37"/>
<polygon fill="midnightblue" stroke="midnightblue" points="879.45,-28.83 885.04,-19.83 875.06,-23.38 879.45,-28.83"/>
</g>
<!-- Node22 -->
<g id="node22" class="node">
<title>Node22</title>
<g id="a_node22"><a xlink:href="forcetree_8h.html" target="_top" xlink:title=" ">
<polygon fill="white" stroke="black" points="957,-392.5 957,-411.5 1027,-411.5 1027,-392.5 957,-392.5"/>
<text text-anchor="middle" x="992" y="-399.5" font-family="Helvetica,sans-Serif" font-size="10.00">forcetree.h</text>
</a>
</g>
</g>
<!-- Node21&#45;&gt;Node22 -->
<g id="edge34" class="edge">
<title>Node21&#45;&gt;Node22</title>
<path fill="none" stroke="midnightblue" d="M989.5,-448.08C989.89,-441.01 990.45,-430.86 990.95,-421.99"/>
<polygon fill="midnightblue" stroke="midnightblue" points="994.45,-421.93 991.51,-411.75 987.46,-421.54 994.45,-421.93"/>
</g>
<!-- Node32 -->
<g id="node32" class="node">
<title>Node32</title>
<g id="a_node32"><a xlink:href="petapm_8h.html" target="_top" xlink:title=" ">
<polygon fill="white" stroke="black" points="1602.5,-168.5 1602.5,-187.5 1665.5,-187.5 1665.5,-168.5 1602.5,-168.5"/>
<text text-anchor="middle" x="1634" y="-175.5" font-family="Helvetica,sans-Serif" font-size="10.00">petapm.h</text>
</a>
</g>
</g>
<!-- Node21&#45;&gt;Node32 -->
<g id="edge56" class="edge">
<title>Node21&#45;&gt;Node32</title>
<path fill="none" stroke="midnightblue" d="M1018.72,-449.64C1021.84,-449.02 1024.98,-448.46 1028,-448 1137.5,-431.5 1432.05,-472.18 1525,-412 1552.54,-394.17 1560,-379.81 1560,-347 1560,-347 1560,-347 1560,-289 1560,-249.61 1593.07,-213.73 1615,-194.26"/>
<polygon fill="midnightblue" stroke="midnightblue" points="1617.43,-196.79 1622.76,-187.64 1612.88,-191.47 1617.43,-196.79"/>
</g>
<!-- Node34 -->
<g id="node34" class="node">
<title>Node34</title>
<g id="a_node34"><a xlink:href="powerspectrum_8h.html" target="_top" xlink:title=" ">
<polygon fill="white" stroke="black" points="1583.5,-112.5 1583.5,-131.5 1684.5,-131.5 1684.5,-112.5 1583.5,-112.5"/>
<text text-anchor="middle" x="1634" y="-119.5" font-family="Helvetica,sans-Serif" font-size="10.00">powerspectrum.h</text>
</a>
</g>
</g>
<!-- Node21&#45;&gt;Node34 -->
<g id="edge62" class="edge">
<title>Node21&#45;&gt;Node34</title>
<path fill="none" stroke="midnightblue" d="M1018.8,-450.06C1021.9,-449.35 1025.01,-448.66 1028,-448 1135.1,-424.45 1511,-456.65 1511,-347 1511,-347 1511,-347 1511,-233 1511,-184.48 1564.84,-152.01 1601.27,-135.6"/>
<polygon fill="midnightblue" stroke="midnightblue" points="1602.78,-138.76 1610.58,-131.58 1600.01,-132.33 1602.78,-138.76"/>
</g>
<!-- Node35 -->
<g id="node35" class="node">
<title>Node35</title>
<g id="a_node35"><a xlink:href="timestep_8h.html" target="_top" xlink:title=" ">
<polygon fill="white" stroke="black" points="1013.5,-280.5 1013.5,-299.5 1082.5,-299.5 1082.5,-280.5 1013.5,-280.5"/>
<text text-anchor="middle" x="1048" y="-287.5" font-family="Helvetica,sans-Serif" font-size="10.00">timestep.h</text>
</a>
</g>
</g>
<!-- Node21&#45;&gt;Node35 -->
<g id="edge63" class="edge">
<title>Node21&#45;&gt;Node35</title>
<path fill="none" stroke="midnightblue" d="M1002.25,-448.4C1013.32,-440.41 1028.48,-427.44 1036,-412 1052.11,-378.9 1051.84,-334.75 1050.03,-309.96"/>
<polygon fill="midnightblue" stroke="midnightblue" points="1053.5,-309.41 1049.11,-299.76 1046.52,-310.04 1053.5,-309.41"/>
</g>
<!-- Node23 -->
<g id="node23" class="node">
<title>Node23</title>
<g id="a_node23"><a xlink:href="types_8h.html" target="_top" xlink:title=" ">
<polygon fill="white" stroke="black" points="1222.5,-112.5 1222.5,-131.5 1275.5,-131.5 1275.5,-112.5 1222.5,-112.5"/>
<text text-anchor="middle" x="1249" y="-119.5" font-family="Helvetica,sans-Serif" font-size="10.00">types.h</text>
</a>
</g>
</g>
<!-- Node22&#45;&gt;Node23 -->
<g id="edge35" class="edge">
<title>Node22&#45;&gt;Node23</title>
<path fill="none" stroke="midnightblue" d="M1027.07,-396.6C1110.53,-385.16 1314,-351.11 1314,-291 1314,-291 1314,-291 1314,-233 1314,-195.18 1285.16,-158.94 1265.91,-138.96"/>
<polygon fill="midnightblue" stroke="midnightblue" points="1268.14,-136.24 1258.59,-131.66 1263.2,-141.2 1268.14,-136.24"/>
</g>
<!-- Node24 -->
<g id="node24" class="node">
<title>Node24</title>
<g id="a_node24"><a xlink:href="domain_8h.html" target="_top" xlink:title=" ">
<polygon fill="white" stroke="black" points="839,-336.5 839,-355.5 901,-355.5 901,-336.5 839,-336.5"/>
<text text-anchor="middle" x="870" y="-343.5" font-family="Helvetica,sans-Serif" font-size="10.00">domain.h</text>
</a>
</g>
</g>
<!-- Node22&#45;&gt;Node24 -->
<g id="edge37" class="edge">
<title>Node22&#45;&gt;Node24</title>
<path fill="none" stroke="midnightblue" d="M972.67,-392.44C952.68,-383.6 921.26,-369.69 898.44,-359.59"/>
<polygon fill="midnightblue" stroke="midnightblue" points="899.8,-356.36 889.24,-355.52 896.97,-362.76 899.8,-356.36"/>
</g>
<!-- Node23&#45;&gt;Node9 -->
<g id="edge36" class="edge">
<title>Node23&#45;&gt;Node9</title>
<path fill="none" stroke="midnightblue" d="M1226.82,-112.44C1203.57,-103.48 1166.85,-89.31 1140.58,-79.18"/>
<polygon fill="midnightblue" stroke="midnightblue" points="1141.67,-75.85 1131.08,-75.52 1139.15,-82.38 1141.67,-75.85"/>
</g>
<!-- Node24&#45;&gt;Node2 -->
<g id="edge38" class="edge">
<title>Node24&#45;&gt;Node2</title>
<path fill="none" stroke="midnightblue" d="M838.9,-344.23C687.86,-340.07 38,-317.41 38,-235 38,-235 38,-235 38,-177 38,-142.81 54.6,-105.76 65.86,-84.57"/>
<polygon fill="midnightblue" stroke="midnightblue" points="68.95,-86.22 70.72,-75.77 62.82,-82.83 68.95,-86.22"/>
</g>
<!-- Node24&#45;&gt;Node11 -->
<g id="edge39" class="edge">
<title>Node24&#45;&gt;Node11</title>
<path fill="none" stroke="midnightblue" d="M871.04,-336.33C875.01,-307.4 891.89,-213.43 948,-168 960.81,-157.63 1053.96,-140.88 1113.68,-131"/>
<polygon fill="midnightblue" stroke="midnightblue" points="1114.38,-134.43 1123.68,-129.36 1113.25,-127.52 1114.38,-134.43"/>
</g>
<!-- Node24&#45;&gt;Node14 -->
<g id="edge40" class="edge">
<title>Node24&#45;&gt;Node14</title>
<path fill="none" stroke="midnightblue" d="M845.23,-336.43C746.02,-302.13 377.27,-174.62 262.39,-134.89"/>
<polygon fill="midnightblue" stroke="midnightblue" points="263.29,-131.5 252.7,-131.54 261.01,-138.12 263.29,-131.5"/>
</g>
<!-- Node25 -->
<g id="node25" class="node">
<title>Node25</title>
<g id="a_node25"><a xlink:href="drift_8h.html" target="_top" xlink:title=" ">
<polygon fill="white" stroke="black" points="1177.5,-280.5 1177.5,-299.5 1222.5,-299.5 1222.5,-280.5 1177.5,-280.5"/>
<text text-anchor="middle" x="1200" y="-287.5" font-family="Helvetica,sans-Serif" font-size="10.00">drift.h</text>
</a>
</g>
</g>
<!-- Node24&#45;&gt;Node25 -->
<g id="edge41" class="edge">
<title>Node24&#45;&gt;Node25</title>
<path fill="none" stroke="midnightblue" d="M901.05,-339.92C963.51,-329.7 1103.84,-306.74 1167.5,-296.32"/>
<polygon fill="midnightblue" stroke="midnightblue" points="1168.08,-299.77 1177.39,-294.7 1166.95,-292.86 1168.08,-299.77"/>
</g>
<!-- Node25&#45;&gt;Node23 -->
<g id="edge47" class="edge">
<title>Node25&#45;&gt;Node23</title>
<path fill="none" stroke="midnightblue" d="M1202.63,-280.08C1210.35,-253.95 1233,-177.21 1243.52,-141.58"/>
<polygon fill="midnightblue" stroke="midnightblue" points="1247,-142.15 1246.47,-131.57 1240.28,-140.17 1247,-142.15"/>
</g>
<!-- Node26 -->
<g id="node26" class="node">
<title>Node26</title>
<g id="a_node26"><a xlink:href="cosmology_8h.html" target="_top" xlink:title=" ">
<polygon fill="white" stroke="black" points="1342.5,-168.5 1342.5,-187.5 1419.5,-187.5 1419.5,-168.5 1342.5,-168.5"/>
<text text-anchor="middle" x="1381" y="-175.5" font-family="Helvetica,sans-Serif" font-size="10.00">cosmology.h</text>
</a>
</g>
</g>
<!-- Node25&#45;&gt;Node26 -->
<g id="edge42" class="edge">
<title>Node25&#45;&gt;Node26</title>
<path fill="none" stroke="midnightblue" d="M1214.2,-280.37C1245.39,-261.41 1320.12,-216 1358.06,-192.94"/>
<polygon fill="midnightblue" stroke="midnightblue" points="1360.14,-195.78 1366.86,-187.59 1356.5,-189.79 1360.14,-195.78"/>
</g>
<!-- Node30 -->
<g id="node30" class="node">
<title>Node30</title>
<g id="a_node30"><a xlink:href="partmanager_8h.html" target="_top" xlink:title=" ">
<polygon fill="white" stroke="black" points="1095,-168.5 1095,-187.5 1183,-187.5 1183,-168.5 1095,-168.5"/>
<text text-anchor="middle" x="1139" y="-175.5" font-family="Helvetica,sans-Serif" font-size="10.00">partmanager.h</text>
</a>
</g>
</g>
<!-- Node25&#45;&gt;Node30 -->
<g id="edge48" class="edge">
<title>Node25&#45;&gt;Node30</title>
<path fill="none" stroke="midnightblue" d="M1198.74,-280.08C1196.61,-267.05 1191.47,-242.39 1181,-224 1174.75,-213.02 1165.31,-202.59 1156.97,-194.53"/>
<polygon fill="midnightblue" stroke="midnightblue" points="1159.17,-191.8 1149.44,-187.6 1154.43,-196.95 1159.17,-191.8"/>
</g>
<!-- Node31 -->
<g id="node31" class="node">
<title>Node31</title>
<g id="a_node31"><a xlink:href="slotsmanager_8h.html" target="_top" xlink:title=" ">
<polygon fill="white" stroke="black" points="998,-224.5 998,-243.5 1090,-243.5 1090,-224.5 998,-224.5"/>
<text text-anchor="middle" x="1044" y="-231.5" font-family="Helvetica,sans-Serif" font-size="10.00">slotsmanager.h</text>
</a>
</g>
</g>
<!-- Node25&#45;&gt;Node31 -->
<g id="edge51" class="edge">
<title>Node25&#45;&gt;Node31</title>
<path fill="none" stroke="midnightblue" d="M1177.32,-281.15C1151.35,-272.16 1108.54,-257.34 1078.45,-246.92"/>
<polygon fill="midnightblue" stroke="midnightblue" points="1079.37,-243.54 1068.77,-243.58 1077.08,-250.15 1079.37,-243.54"/>
</g>
<!-- Node26&#45;&gt;Node10 -->
<g id="edge43" class="edge">
<title>Node26&#45;&gt;Node10</title>
<path fill="none" stroke="midnightblue" d="M1369.56,-168.38C1351.94,-155.3 1316.86,-130.07 1285,-112 1233.81,-82.97 1221.21,-73.46 1165,-56 1085.04,-31.16 987.21,-19.17 934.34,-14.12"/>
<polygon fill="midnightblue" stroke="midnightblue" points="934.35,-10.61 924.07,-13.18 933.71,-17.58 934.35,-10.61"/>
</g>
<!-- Node27 -->
<g id="node27" class="node">
<title>Node27</title>
<g id="a_node27"><a xlink:href="omega__nu__single_8h.html" target="_top" xlink:title=" ">
<polygon fill="white" stroke="black" points="1454.5,-112.5 1454.5,-131.5 1565.5,-131.5 1565.5,-112.5 1454.5,-112.5"/>
<text text-anchor="middle" x="1510" y="-119.5" font-family="Helvetica,sans-Serif" font-size="10.00">omega_nu_single.h</text>
</a>
</g>
</g>
<!-- Node26&#45;&gt;Node27 -->
<g id="edge44" class="edge">
<title>Node26&#45;&gt;Node27</title>
<path fill="none" stroke="midnightblue" d="M1401.44,-168.44C1422.67,-159.56 1456.1,-145.56 1480.25,-135.45"/>
<polygon fill="midnightblue" stroke="midnightblue" points="1481.78,-138.61 1489.66,-131.52 1479.08,-132.15 1481.78,-138.61"/>
</g>
<!-- Node29 -->
<g id="node29" class="node">
<title>Node29</title>
<g id="a_node29"><a xlink:href="unitsystem_8h.html" target="_top" xlink:title=" ">
<polygon fill="white" stroke="black" points="1332,-112.5 1332,-131.5 1436,-131.5 1436,-112.5 1332,-112.5"/>
<text text-anchor="middle" x="1384" y="-119.5" font-family="Helvetica,sans-Serif" font-size="10.00">utils/unitsystem.h</text>
</a>
</g>
</g>
<!-- Node26&#45;&gt;Node29 -->
<g id="edge46" class="edge">
<title>Node26&#45;&gt;Node29</title>
<path fill="none" stroke="midnightblue" d="M1381.5,-168.08C1381.89,-161.01 1382.45,-150.86 1382.95,-141.99"/>
<polygon fill="midnightblue" stroke="midnightblue" points="1386.45,-141.93 1383.51,-131.75 1379.46,-141.54 1386.45,-141.93"/>
</g>
<!-- Node28 -->
<g id="node28" class="node">
<title>Node28</title>
<g id="a_node28"><a xlink:title=" ">
<polygon fill="white" stroke="#bfbfbf" points="1476.5,-56.5 1476.5,-75.5 1567.5,-75.5 1567.5,-56.5 1476.5,-56.5"/>
<text text-anchor="middle" x="1522" y="-63.5" font-family="Helvetica,sans-Serif" font-size="10.00">gsl/gsl_interp.h</text>
</a>
</g>
</g>
<!-- Node27&#45;&gt;Node28 -->
<g id="edge45" class="edge">
<title>Node27&#45;&gt;Node28</title>
<path fill="none" stroke="midnightblue" d="M1511.98,-112.08C1513.57,-104.93 1515.86,-94.64 1517.85,-85.69"/>
<polygon fill="midnightblue" stroke="midnightblue" points="1521.3,-86.27 1520.06,-75.75 1514.47,-84.75 1521.3,-86.27"/>
</g>
<!-- Node30&#45;&gt;Node11 -->
<g id="edge50" class="edge">
<title>Node30&#45;&gt;Node11</title>
<path fill="none" stroke="midnightblue" d="M1143.13,-168.08C1146.51,-160.77 1151.42,-150.18 1155.62,-141.1"/>
<polygon fill="midnightblue" stroke="midnightblue" points="1158.92,-142.3 1159.95,-131.75 1152.57,-139.36 1158.92,-142.3"/>
</g>
<!-- Node30&#45;&gt;Node23 -->
<g id="edge49" class="edge">
<title>Node30&#45;&gt;Node23</title>
<path fill="none" stroke="midnightblue" d="M1156.67,-168.32C1174.39,-159.62 1201.9,-146.12 1222.29,-136.11"/>
<polygon fill="midnightblue" stroke="midnightblue" points="1223.94,-139.2 1231.37,-131.65 1220.85,-132.92 1223.94,-139.2"/>
</g>
<!-- Node31&#45;&gt;Node2 -->
<g id="edge52" class="edge">
<title>Node31&#45;&gt;Node2</title>
<path fill="none" stroke="midnightblue" d="M997.86,-232.52C833.78,-230.1 280.27,-215.77 128,-132 108.47,-121.26 93.6,-99.87 84.86,-84.56"/>
<polygon fill="midnightblue" stroke="midnightblue" points="87.84,-82.7 80.02,-75.55 81.67,-86.02 87.84,-82.7"/>
</g>
<!-- Node31&#45;&gt;Node8 -->
<g id="edge53" class="edge">
<title>Node31&#45;&gt;Node8</title>
<path fill="none" stroke="midnightblue" d="M1006.29,-224.44C960.42,-214.04 883.69,-196.63 839.71,-186.65"/>
<polygon fill="midnightblue" stroke="midnightblue" points="840.32,-183.2 829.8,-184.4 838.77,-190.02 840.32,-183.2"/>
</g>
<!-- Node31&#45;&gt;Node23 -->
<g id="edge54" class="edge">
<title>Node31&#45;&gt;Node23</title>
<path fill="none" stroke="midnightblue" d="M1047.18,-224.4C1052.81,-210.4 1065.86,-182.79 1086,-168 1091.21,-164.18 1166.37,-144.32 1212.78,-132.3"/>
<polygon fill="midnightblue" stroke="midnightblue" points="1213.69,-135.68 1222.5,-129.79 1211.94,-128.9 1213.69,-135.68"/>
</g>
<!-- Node31&#45;&gt;Node30 -->
<g id="edge55" class="edge">
<title>Node31&#45;&gt;Node30</title>
<path fill="none" stroke="midnightblue" d="M1059.26,-224.32C1074.22,-215.82 1097.25,-202.73 1114.73,-192.8"/>
<polygon fill="midnightblue" stroke="midnightblue" points="1116.81,-195.64 1123.77,-187.65 1113.35,-189.55 1116.81,-195.64"/>
</g>
<!-- Node33 -->
<g id="node33" class="node">
<title>Node33</title>
<g id="a_node33"><a xlink:title=" ">
<polygon fill="white" stroke="#bfbfbf" points="1703,-112.5 1703,-131.5 1745,-131.5 1745,-112.5 1703,-112.5"/>
<text text-anchor="middle" x="1724" y="-119.5" font-family="Helvetica,sans-Serif" font-size="10.00">pfft.h</text>
</a>
</g>
</g>
<!-- Node32&#45;&gt;Node33 -->
<g id="edge57" class="edge">
<title>Node32&#45;&gt;Node33</title>
<path fill="none" stroke="midnightblue" d="M1648.46,-168.32C1662.5,-159.9 1684.05,-146.97 1700.54,-137.07"/>
<polygon fill="midnightblue" stroke="midnightblue" points="1702.8,-139.8 1709.58,-131.65 1699.2,-133.8 1702.8,-139.8"/>
</g>
<!-- Node32&#45;&gt;Node34 -->
<g id="edge58" class="edge">
<title>Node32&#45;&gt;Node34</title>
<path fill="none" stroke="midnightblue" d="M1634,-168.08C1634,-161.01 1634,-150.86 1634,-141.99"/>
<polygon fill="midnightblue" stroke="midnightblue" points="1637.5,-141.75 1634,-131.75 1630.5,-141.75 1637.5,-141.75"/>
</g>
<!-- Node34&#45;&gt;Node9 -->
<g id="edge60" class="edge">
<title>Node34&#45;&gt;Node9</title>
<path fill="none" stroke="midnightblue" d="M1583.49,-113.11C1580.62,-112.72 1577.78,-112.35 1575,-112 1415.73,-92.18 1224.91,-76.16 1145.97,-69.87"/>
<polygon fill="midnightblue" stroke="midnightblue" points="1145.83,-66.35 1135.59,-69.05 1145.28,-73.33 1145.83,-66.35"/>
</g>
<!-- Node34&#45;&gt;Node10 -->
<g id="edge59" class="edge">
<title>Node34&#45;&gt;Node10</title>
<path fill="none" stroke="midnightblue" d="M1629.43,-112.32C1621.18,-97.69 1602.3,-68.49 1577,-56 1519.33,-27.54 1069.63,-14.99 934.36,-11.83"/>
<polygon fill="midnightblue" stroke="midnightblue" points="934.16,-8.32 924.08,-11.59 933.99,-15.32 934.16,-8.32"/>
</g>
<!-- Node34&#45;&gt;Node28 -->
<g id="edge61" class="edge">
<title>Node34&#45;&gt;Node28</title>
<path fill="none" stroke="midnightblue" d="M1616.01,-112.32C1597.96,-103.62 1569.95,-90.12 1549.2,-80.11"/>
<polygon fill="midnightblue" stroke="midnightblue" points="1550.48,-76.84 1539.95,-75.65 1547.44,-83.15 1550.48,-76.84"/>
</g>
<!-- Node35&#45;&gt;Node14 -->
<g id="edge64" class="edge">
<title>Node35&#45;&gt;Node14</title>
<path fill="none" stroke="midnightblue" d="M1028.4,-280.46C975.37,-257.79 824.21,-195.89 692,-168 517.53,-131.19 467.05,-153.34 286.28,-132.06"/>
<polygon fill="midnightblue" stroke="midnightblue" points="286.52,-128.57 276.17,-130.84 285.68,-135.51 286.52,-128.57"/>
</g>
<!-- Node36 -->
<g id="node36" class="node">
<title>Node36</title>
<g id="a_node36"><a xlink:href="timebinmgr_8h.html" target="_top" xlink:title=" ">
<polygon fill="white" stroke="black" points="957,-168.5 957,-187.5 1039,-187.5 1039,-168.5 957,-168.5"/>
<text text-anchor="middle" x="998" y="-175.5" font-family="Helvetica,sans-Serif" font-size="10.00">timebinmgr.h</text>
</a>
</g>
</g>
<!-- Node35&#45;&gt;Node36 -->
<g id="edge65" class="edge">
<title>Node35&#45;&gt;Node36</title>
<path fill="none" stroke="midnightblue" d="M1029.02,-280.4C1015.11,-272.95 997.29,-260.74 989,-244 981.82,-229.5 985.38,-211.08 989.97,-197.56"/>
<polygon fill="midnightblue" stroke="midnightblue" points="993.35,-198.52 993.69,-187.93 986.82,-195.99 993.35,-198.52"/>
</g>
<!-- Node37 -->
<g id="node37" class="node">
<title>Node37</title>
<g id="a_node37"><a xlink:href="timefac_8h.html" target="_top" xlink:title=" ">
<polygon fill="white" stroke="black" points="1108.5,-224.5 1108.5,-243.5 1171.5,-243.5 1171.5,-224.5 1108.5,-224.5"/>
<text text-anchor="middle" x="1140" y="-231.5" font-family="Helvetica,sans-Serif" font-size="10.00">timefac.h</text>
</a>
</g>
</g>
<!-- Node35&#45;&gt;Node37 -->
<g id="edge68" class="edge">
<title>Node35&#45;&gt;Node37</title>
<path fill="none" stroke="midnightblue" d="M1062.78,-280.32C1077.27,-271.82 1099.57,-258.73 1116.49,-248.8"/>
<polygon fill="midnightblue" stroke="midnightblue" points="1118.4,-251.74 1125.26,-243.65 1114.86,-245.7 1118.4,-251.74"/>
</g>
<!-- Node36&#45;&gt;Node14 -->
<g id="edge67" class="edge">
<title>Node36&#45;&gt;Node14</title>
<path fill="none" stroke="midnightblue" d="M956.59,-174.61C819.74,-166.7 385.56,-141.33 286.13,-131.94"/>
<polygon fill="midnightblue" stroke="midnightblue" points="286.46,-128.46 276.16,-130.93 285.75,-135.42 286.46,-128.46"/>
</g>
<!-- Node36&#45;&gt;Node23 -->
<g id="edge66" class="edge">
<title>Node36&#45;&gt;Node23</title>
<path fill="none" stroke="midnightblue" d="M1039.32,-168.84C1080.65,-160.58 1146.27,-147.16 1212.52,-132.04"/>
<polygon fill="midnightblue" stroke="midnightblue" points="1213.33,-135.45 1222.29,-129.8 1211.76,-128.62 1213.33,-135.45"/>
</g>
<!-- Node37&#45;&gt;Node23 -->
<g id="edge69" class="edge">
<title>Node37&#45;&gt;Node23</title>
<path fill="none" stroke="midnightblue" d="M1150.74,-224.44C1161.52,-215.68 1178.45,-201.46 1192,-188 1207.72,-172.38 1224.27,-153.16 1235.46,-139.68"/>
<polygon fill="midnightblue" stroke="midnightblue" points="1238.33,-141.7 1241.98,-131.75 1232.93,-137.25 1238.33,-141.7"/>
</g>
<!-- Node37&#45;&gt;Node26 -->
<g id="edge70" class="edge">
<title>Node37&#45;&gt;Node26</title>
<path fill="none" stroke="midnightblue" d="M1171.51,-225.94C1212.6,-216.73 1284.9,-200.53 1332.88,-189.78"/>
<polygon fill="midnightblue" stroke="midnightblue" points="1333.73,-193.18 1342.73,-187.58 1332.2,-186.35 1333.73,-193.18"/>
</g>
<!-- Node37&#45;&gt;Node36 -->
<g id="edge71" class="edge">
<title>Node37&#45;&gt;Node36</title>
<path fill="none" stroke="midnightblue" d="M1117.5,-224.44C1093.92,-215.48 1056.68,-201.31 1030.04,-191.18"/>
<polygon fill="midnightblue" stroke="midnightblue" points="1030.99,-187.8 1020.4,-187.52 1028.5,-194.34 1030.99,-187.8"/>
</g>
</g>
</svg>
