<?xml version="1.0" encoding="UTF-8" standalone="no"?>
<!DOCTYPE svg PUBLIC "-//W3C//DTD SVG 1.1//EN"
 "http://www.w3.org/Graphics/SVG/1.1/DTD/svg11.dtd">
<!-- Generated by graphviz version 2.38.0 (20140413.2041)
 -->
<!-- Title: set_softenings Pages: 1 -->
<svg width="171pt" height="28pt"
 viewBox="0.00 0.00 171.00 28.00" xmlns="http://www.w3.org/2000/svg" xmlns:xlink="http://www.w3.org/1999/xlink">
<g id="graph0" class="graph" transform="scale(1 1) rotate(0) translate(4 24)">
<title>set_softenings</title>
<polygon fill="white" stroke="none" points="-4,4 -4,-24 167,-24 167,4 -4,4"/>
<!-- Node110 -->
<g id="node1" class="node"><title>Node110</title>
<polygon fill="#bfbfbf" stroke="black" points="83,-0.5 83,-19.5 163,-19.5 163,-0.5 83,-0.5"/>
<text text-anchor="middle" x="123" y="-7.5" font-family="Helvetica,sans-Serif" font-size="10.00">set_softenings</text>
</g>
<!-- Node111 -->
<g id="node2" class="node"><title>Node111</title>
<g id="a_node2"><a xlink:href="gravshort-tree-old_8c.html#af703f51f005d6f005c4cfd250fdd5eb9" target="_top" xlink:title="grav_short_tree_old">
<polygon fill="white" stroke="black" points="-7.10543e-15,-0.5 -7.10543e-15,-19.5 102,-19.5 102,-0.5 -7.10543e-15,-0.5"/>
<text text-anchor="middle" x="51" y="-7.5" font-family="Helvetica,sans-Serif" font-size="10.00">grav_short_tree_old</text>
</a>
</g>
</g>
<!-- Node110&#45;&gt;Node111 -->
<g id="edge1" class="edge"><title>Node110&#45;&gt;Node111</title>
<path fill="none" stroke="midnightblue" d="M82.5966,-10C82.5322,-10 82.4679,-10 82.4035,-10"/>
<polygon fill="midnightblue" stroke="midnightblue" points="72.7916,-13.5052 82.7898,-10 72.788,-6.50517 72.7916,-13.5052"/>
</g>
</g>
</svg>
