<?xml version="1.0" encoding="UTF-8" standalone="no"?>
<!DOCTYPE svg PUBLIC "-//W3C//DTD SVG 1.1//EN"
 "http://www.w3.org/Graphics/SVG/1.1/DTD/svg11.dtd">
<!-- Generated by graphviz version 2.50.0 (0)
 -->
<!-- Title: force_transfer Pages: 1 -->
<svg width="225pt" height="104pt"
 viewBox="0.00 0.00 225.00 104.00" xmlns="http://www.w3.org/2000/svg" xmlns:xlink="http://www.w3.org/1999/xlink">
<g id="graph0" class="graph" transform="scale(1 1) rotate(0) translate(4 100)">
<title>force_transfer</title>
<polygon fill="white" stroke="transparent" points="-4,4 -4,-100 221,-100 221,4 -4,4"/>
<!-- Node1 -->
<g id="node1" class="node">
<title>Node1</title>
<g id="a_node1"><a xlink:title=" ">
<polygon fill="#bfbfbf" stroke="black" points="132,-38.5 132,-57.5 217,-57.5 217,-38.5 132,-38.5"/>
<text text-anchor="middle" x="174.5" y="-45.5" font-family="Helvetica,sans-Serif" font-size="10.00">force_transfer</text>
</a>
</g>
</g>
<!-- Node2 -->
<g id="node2" class="node">
<title>Node2</title>
<g id="a_node2"><a xlink:href="gravpm_8c.html#a1ce62d2c8ff17e6724de65fa2fca31ec" target="_top" xlink:title=" ">
<polygon fill="white" stroke="black" points="0,-76.5 0,-95.5 96,-95.5 96,-76.5 0,-76.5"/>
<text text-anchor="middle" x="48" y="-83.5" font-family="Helvetica,sans-Serif" font-size="10.00">force_x_transfer</text>
</a>
</g>
</g>
<!-- Node1&#45;&gt;Node2 -->
<g id="edge1" class="edge">
<title>Node1&#45;&gt;Node2</title>
<path fill="none" stroke="midnightblue" d="M132.43,-60.54C115.49,-65.7 96.18,-71.6 80.41,-76.41"/>
<polygon fill="midnightblue" stroke="midnightblue" points="133.54,-63.86 142.08,-57.59 131.5,-57.16 133.54,-63.86"/>
</g>
<!-- Node3 -->
<g id="node3" class="node">
<title>Node3</title>
<g id="a_node3"><a xlink:href="gravpm_8c.html#a7a9eb1c3736c0d4de2a6e2ce96849e4c" target="_top" xlink:title=" ">
<polygon fill="white" stroke="black" points="0,-38.5 0,-57.5 96,-57.5 96,-38.5 0,-38.5"/>
<text text-anchor="middle" x="48" y="-45.5" font-family="Helvetica,sans-Serif" font-size="10.00">force_y_transfer</text>
</a>
</g>
</g>
<!-- Node1&#45;&gt;Node3 -->
<g id="edge2" class="edge">
<title>Node1&#45;&gt;Node3</title>
<path fill="none" stroke="midnightblue" d="M121.56,-48C113.1,-48 104.39,-48 96.06,-48"/>
<polygon fill="midnightblue" stroke="midnightblue" points="121.7,-51.5 131.7,-48 121.7,-44.5 121.7,-51.5"/>
</g>
<!-- Node4 -->
<g id="node4" class="node">
<title>Node4</title>
<g id="a_node4"><a xlink:href="gravpm_8c.html#a767e0d4b5cb8ce61867f571e9dbb95a9" target="_top" xlink:title=" ">
<polygon fill="white" stroke="black" points="0.5,-0.5 0.5,-19.5 95.5,-19.5 95.5,-0.5 0.5,-0.5"/>
<text text-anchor="middle" x="48" y="-7.5" font-family="Helvetica,sans-Serif" font-size="10.00">force_z_transfer</text>
</a>
</g>
</g>
<!-- Node1&#45;&gt;Node4 -->
<g id="edge3" class="edge">
<title>Node1&#45;&gt;Node4</title>
<path fill="none" stroke="midnightblue" d="M132.43,-35.46C115.49,-30.3 96.18,-24.4 80.41,-19.59"/>
<polygon fill="midnightblue" stroke="midnightblue" points="131.5,-38.84 142.08,-38.41 133.54,-32.14 131.5,-38.84"/>
</g>
</g>
</svg>
