<?xml version="1.0" encoding="UTF-8" standalone="no"?>
<!DOCTYPE svg PUBLIC "-//W3C//DTD SVG 1.1//EN"
 "http://www.w3.org/Graphics/SVG/1.1/DTD/svg11.dtd">
<!-- Generated by graphviz version 2.50.0 (0)
 -->
<!-- Title: libgadget/gravshort&#45;pair.c Pages: 1 -->
<svg width="1791pt" height="599pt"
 viewBox="0.00 0.00 1791.00 599.00" xmlns="http://www.w3.org/2000/svg" xmlns:xlink="http://www.w3.org/1999/xlink">
<g id="graph0" class="graph" transform="scale(1 1) rotate(0) translate(4 595)">
<title>libgadget/gravshort&#45;pair.c</title>
<polygon fill="white" stroke="transparent" points="-4,4 -4,-595 1787,-595 1787,4 -4,4"/>
<!-- Node1 -->
<g id="node1" class="node">
<title>Node1</title>
<g id="a_node1"><a xlink:title=" ">
<polygon fill="#bfbfbf" stroke="black" points="1118,-560.5 1118,-590.5 1230,-590.5 1230,-560.5 1118,-560.5"/>
<text text-anchor="start" x="1126" y="-578.5" font-family="Helvetica,sans-Serif" font-size="10.00">libgadget/gravshort</text>
<text text-anchor="middle" x="1174" y="-567.5" font-family="Helvetica,sans-Serif" font-size="10.00">&#45;pair.c</text>
</a>
</g>
</g>
<!-- Node2 -->
<g id="node2" class="node">
<title>Node2</title>
<g id="a_node2"><a xlink:title=" ">
<polygon fill="white" stroke="#bfbfbf" points="54,-56.5 54,-75.5 98,-75.5 98,-56.5 54,-56.5"/>
<text text-anchor="middle" x="76" y="-63.5" font-family="Helvetica,sans-Serif" font-size="10.00">mpi.h</text>
</a>
</g>
</g>
<!-- Node1&#45;&gt;Node2 -->
<g id="edge1" class="edge">
<title>Node1&#45;&gt;Node2</title>
<path fill="none" stroke="midnightblue" d="M1117.77,-574.94C883.86,-576.05 0,-572.73 0,-459 0,-459 0,-459 0,-177 0,-137.28 33.96,-101.5 56.48,-82.15"/>
<polygon fill="midnightblue" stroke="midnightblue" points="58.98,-84.63 64.46,-75.57 54.52,-79.24 58.98,-84.63"/>
</g>
<!-- Node3 -->
<g id="node3" class="node">
<title>Node3</title>
<g id="a_node3"><a xlink:title=" ">
<polygon fill="white" stroke="#bfbfbf" points="589,-56.5 589,-75.5 639,-75.5 639,-56.5 589,-56.5"/>
<text text-anchor="middle" x="614" y="-63.5" font-family="Helvetica,sans-Serif" font-size="10.00">stdio.h</text>
</a>
</g>
</g>
<!-- Node1&#45;&gt;Node3 -->
<g id="edge2" class="edge">
<title>Node1&#45;&gt;Node3</title>
<path fill="none" stroke="midnightblue" d="M1117.73,-575.09C943.8,-576.34 416.83,-575.65 255,-524 203.43,-507.54 152,-513.13 152,-459 152,-459 152,-459 152,-177 152,-146.9 147.86,-131.25 171,-112 202.14,-86.09 479.29,-72.44 578.7,-68.35"/>
<polygon fill="midnightblue" stroke="midnightblue" points="578.99,-71.84 588.84,-67.94 578.71,-64.84 578.99,-71.84"/>
</g>
<!-- Node4 -->
<g id="node4" class="node">
<title>Node4</title>
<g id="a_node4"><a xlink:title=" ">
<polygon fill="white" stroke="#bfbfbf" points="1234.5,-504.5 1234.5,-523.5 1287.5,-523.5 1287.5,-504.5 1234.5,-504.5"/>
<text text-anchor="middle" x="1261" y="-511.5" font-family="Helvetica,sans-Serif" font-size="10.00">stdlib.h</text>
</a>
</g>
</g>
<!-- Node1&#45;&gt;Node4 -->
<g id="edge3" class="edge">
<title>Node1&#45;&gt;Node4</title>
<path fill="none" stroke="midnightblue" d="M1194.62,-560.4C1208.3,-551.04 1226.21,-538.79 1239.98,-529.38"/>
<polygon fill="midnightblue" stroke="midnightblue" points="1242.06,-532.19 1248.34,-523.66 1238.11,-526.41 1242.06,-532.19"/>
</g>
<!-- Node5 -->
<g id="node5" class="node">
<title>Node5</title>
<g id="a_node5"><a xlink:href="string_8h.html" target="_top" xlink:title=" ">
<polygon fill="white" stroke="black" points="180.5,-112.5 180.5,-131.5 233.5,-131.5 233.5,-112.5 180.5,-112.5"/>
<text text-anchor="middle" x="207" y="-119.5" font-family="Helvetica,sans-Serif" font-size="10.00">string.h</text>
</a>
</g>
</g>
<!-- Node1&#45;&gt;Node5 -->
<g id="edge4" class="edge">
<title>Node1&#45;&gt;Node5</title>
<path fill="none" stroke="midnightblue" d="M1117.81,-574.49C954.99,-573.94 485.16,-568.43 339,-524 284.3,-507.37 228,-516.17 228,-459 228,-459 228,-459 228,-233 228,-200.38 218.98,-163.28 212.77,-141.57"/>
<polygon fill="midnightblue" stroke="midnightblue" points="216.04,-140.32 209.83,-131.73 209.33,-142.32 216.04,-140.32"/>
</g>
<!-- Node7 -->
<g id="node7" class="node">
<title>Node7</title>
<g id="a_node7"><a xlink:title=" ">
<polygon fill="white" stroke="#bfbfbf" points="1305.5,-504.5 1305.5,-523.5 1356.5,-523.5 1356.5,-504.5 1305.5,-504.5"/>
<text text-anchor="middle" x="1331" y="-511.5" font-family="Helvetica,sans-Serif" font-size="10.00">math.h</text>
</a>
</g>
</g>
<!-- Node1&#45;&gt;Node7 -->
<g id="edge6" class="edge">
<title>Node1&#45;&gt;Node7</title>
<path fill="none" stroke="midnightblue" d="M1211.21,-560.4C1237.78,-550.33 1273.19,-536.91 1298.61,-527.28"/>
<polygon fill="midnightblue" stroke="midnightblue" points="1300.04,-530.47 1308.16,-523.66 1297.56,-523.93 1300.04,-530.47"/>
</g>
<!-- Node8 -->
<g id="node8" class="node">
<title>Node8</title>
<g id="a_node8"><a xlink:title=" ">
<polygon fill="white" stroke="#bfbfbf" points="1375,-504.5 1375,-523.5 1463,-523.5 1463,-504.5 1375,-504.5"/>
<text text-anchor="middle" x="1419" y="-511.5" font-family="Helvetica,sans-Serif" font-size="10.00">gsl/gsl_math.h</text>
</a>
</g>
</g>
<!-- Node1&#45;&gt;Node8 -->
<g id="edge7" class="edge">
<title>Node1&#45;&gt;Node8</title>
<path fill="none" stroke="midnightblue" d="M1230.21,-560.85C1273.84,-550.25 1333.52,-535.76 1374.02,-525.92"/>
<polygon fill="midnightblue" stroke="midnightblue" points="1374.99,-529.29 1383.88,-523.53 1373.34,-522.49 1374.99,-529.29"/>
</g>
<!-- Node9 -->
<g id="node9" class="node">
<title>Node9</title>
<g id="a_node9"><a xlink:href="utils_8h.html" target="_top" xlink:title=" ">
<polygon fill="white" stroke="black" points="728.5,-168.5 728.5,-187.5 775.5,-187.5 775.5,-168.5 728.5,-168.5"/>
<text text-anchor="middle" x="752" y="-175.5" font-family="Helvetica,sans-Serif" font-size="10.00">utils.h</text>
</a>
</g>
</g>
<!-- Node1&#45;&gt;Node9 -->
<g id="edge8" class="edge">
<title>Node1&#45;&gt;Node9</title>
<path fill="none" stroke="midnightblue" d="M1117.89,-573.29C919.92,-568.31 266,-545.31 266,-459 266,-459 266,-459 266,-289 266,-196.17 607.53,-181.68 717.99,-179.42"/>
<polygon fill="midnightblue" stroke="midnightblue" points="718.3,-182.91 728.23,-179.23 718.17,-175.91 718.3,-182.91"/>
</g>
<!-- Node22 -->
<g id="node22" class="node">
<title>Node22</title>
<g id="a_node22"><a xlink:href="cooling_8h.html" target="_top" xlink:title=" ">
<polygon fill="white" stroke="black" points="1556.5,-392.5 1556.5,-411.5 1617.5,-411.5 1617.5,-392.5 1556.5,-392.5"/>
<text text-anchor="middle" x="1587" y="-399.5" font-family="Helvetica,sans-Serif" font-size="10.00">cooling.h</text>
</a>
</g>
</g>
<!-- Node1&#45;&gt;Node22 -->
<g id="edge34" class="edge">
<title>Node1&#45;&gt;Node22</title>
<path fill="none" stroke="midnightblue" d="M1180.75,-560.38C1189.15,-544.34 1204.97,-518.51 1226,-504 1252.76,-485.53 1457.72,-434.35 1546.36,-412.78"/>
<polygon fill="midnightblue" stroke="midnightblue" points="1547.43,-416.13 1556.33,-410.37 1545.78,-409.32 1547.43,-416.13"/>
</g>
<!-- Node27 -->
<g id="node27" class="node">
<title>Node27</title>
<g id="a_node27"><a xlink:href="densitykernel_8h.html" target="_top" xlink:title=" ">
<polygon fill="white" stroke="black" points="1481,-504.5 1481,-523.5 1573,-523.5 1573,-504.5 1481,-504.5"/>
<text text-anchor="middle" x="1527" y="-511.5" font-family="Helvetica,sans-Serif" font-size="10.00">densitykernel.h</text>
</a>
</g>
</g>
<!-- Node1&#45;&gt;Node27 -->
<g id="edge40" class="edge">
<title>Node1&#45;&gt;Node27</title>
<path fill="none" stroke="midnightblue" d="M1230.32,-565.01C1296.29,-553.89 1404.89,-535.58 1470.8,-524.47"/>
<polygon fill="midnightblue" stroke="midnightblue" points="1471.72,-527.87 1481,-522.75 1470.56,-520.96 1471.72,-527.87"/>
</g>
<!-- Node28 -->
<g id="node28" class="node">
<title>Node28</title>
<g id="a_node28"><a xlink:href="treewalk_8h.html" target="_top" xlink:title=" ">
<polygon fill="white" stroke="black" points="1044,-448.5 1044,-467.5 1112,-467.5 1112,-448.5 1044,-448.5"/>
<text text-anchor="middle" x="1078" y="-455.5" font-family="Helvetica,sans-Serif" font-size="10.00">treewalk.h</text>
</a>
</g>
</g>
<!-- Node1&#45;&gt;Node28 -->
<g id="edge41" class="edge">
<title>Node1&#45;&gt;Node28</title>
<path fill="none" stroke="midnightblue" d="M1142.33,-560.36C1126.64,-551.88 1108.61,-539.67 1097,-524 1087.05,-510.57 1082.29,-492 1080.03,-478.15"/>
<polygon fill="midnightblue" stroke="midnightblue" points="1083.44,-477.29 1078.65,-467.84 1076.51,-478.22 1083.44,-477.29"/>
</g>
<!-- Node35 -->
<g id="node35" class="node">
<title>Node35</title>
<g id="a_node35"><a xlink:href="gravshort_8h.html" target="_top" xlink:title=" ">
<polygon fill="white" stroke="black" points="1106,-504.5 1106,-523.5 1178,-523.5 1178,-504.5 1106,-504.5"/>
<text text-anchor="middle" x="1142" y="-511.5" font-family="Helvetica,sans-Serif" font-size="10.00">gravshort.h</text>
</a>
</g>
</g>
<!-- Node1&#45;&gt;Node35 -->
<g id="edge62" class="edge">
<title>Node1&#45;&gt;Node35</title>
<path fill="none" stroke="midnightblue" d="M1166.42,-560.4C1161.96,-552.11 1156.28,-541.55 1151.52,-532.71"/>
<polygon fill="midnightblue" stroke="midnightblue" points="1154.48,-530.81 1146.66,-523.66 1148.31,-534.12 1154.48,-530.81"/>
</g>
<!-- Node43 -->
<g id="node43" class="node">
<title>Node43</title>
<g id="a_node43"><a xlink:href="walltime_8h.html" target="_top" xlink:title=" ">
<polygon fill="white" stroke="black" points="1591,-504.5 1591,-523.5 1659,-523.5 1659,-504.5 1591,-504.5"/>
<text text-anchor="middle" x="1625" y="-511.5" font-family="Helvetica,sans-Serif" font-size="10.00">walltime.h</text>
</a>
</g>
</g>
<!-- Node1&#45;&gt;Node43 -->
<g id="edge83" class="edge">
<title>Node1&#45;&gt;Node43</title>
<path fill="none" stroke="midnightblue" d="M1230.31,-569.03C1307.21,-561.22 1449.56,-545.6 1580.57,-524.12"/>
<polygon fill="midnightblue" stroke="midnightblue" points="1581.49,-527.52 1590.78,-522.43 1580.34,-520.61 1581.49,-527.52"/>
</g>
<!-- Node6 -->
<g id="node6" class="node">
<title>Node6</title>
<g id="a_node6"><a xlink:title=" ">
<polygon fill="white" stroke="#bfbfbf" points="223,-56.5 223,-75.5 279,-75.5 279,-56.5 223,-56.5"/>
<text text-anchor="middle" x="251" y="-63.5" font-family="Helvetica,sans-Serif" font-size="10.00">stdarg.h</text>
</a>
</g>
</g>
<!-- Node5&#45;&gt;Node6 -->
<g id="edge5" class="edge">
<title>Node5&#45;&gt;Node6</title>
<path fill="none" stroke="midnightblue" d="M214.27,-112.08C220.54,-104.38 229.79,-93.03 237.43,-83.65"/>
<polygon fill="midnightblue" stroke="midnightblue" points="240.27,-85.71 243.87,-75.75 234.84,-81.29 240.27,-85.71"/>
</g>
<!-- Node9&#45;&gt;Node2 -->
<g id="edge12" class="edge">
<title>Node9&#45;&gt;Node2</title>
<path fill="none" stroke="midnightblue" d="M728.3,-176.79C632.82,-175.69 276.44,-169.14 171,-132 140.55,-121.27 110.69,-98.2 92.81,-82.63"/>
<polygon fill="midnightblue" stroke="midnightblue" points="94.83,-79.74 85.05,-75.68 90.16,-84.96 94.83,-79.74"/>
</g>
<!-- Node9&#45;&gt;Node3 -->
<g id="edge9" class="edge">
<title>Node9&#45;&gt;Node3</title>
<path fill="none" stroke="midnightblue" d="M745.79,-168.15C736.1,-154.77 716.26,-129.15 695,-112 679.09,-99.16 659.02,-87.98 642.84,-79.98"/>
<polygon fill="midnightblue" stroke="midnightblue" points="644.35,-76.82 633.82,-75.64 641.32,-83.13 644.35,-76.82"/>
</g>
<!-- Node9&#45;&gt;Node5 -->
<g id="edge29" class="edge">
<title>Node9&#45;&gt;Node5</title>
<path fill="none" stroke="midnightblue" d="M728.5,-176.23C657.06,-173.63 436.19,-163.54 243.65,-131.83"/>
<polygon fill="midnightblue" stroke="midnightblue" points="244.08,-128.35 233.64,-130.15 242.92,-135.25 244.08,-128.35"/>
</g>
<!-- Node10 -->
<g id="node10" class="node">
<title>Node10</title>
<g id="a_node10"><a xlink:title=" ">
<polygon fill="white" stroke="#bfbfbf" points="1025.5,-56.5 1025.5,-75.5 1078.5,-75.5 1078.5,-56.5 1025.5,-56.5"/>
<text text-anchor="middle" x="1052" y="-63.5" font-family="Helvetica,sans-Serif" font-size="10.00">stdint.h</text>
</a>
</g>
</g>
<!-- Node9&#45;&gt;Node10 -->
<g id="edge10" class="edge">
<title>Node9&#45;&gt;Node10</title>
<path fill="none" stroke="midnightblue" d="M775.75,-173.54C833.32,-165.02 976.95,-142.93 996,-132 1015.71,-120.69 1031.82,-99.77 1041.62,-84.72"/>
<polygon fill="midnightblue" stroke="midnightblue" points="1044.83,-86.17 1047.12,-75.83 1038.88,-82.49 1044.83,-86.17"/>
</g>
<!-- Node11 -->
<g id="node11" class="node">
<title>Node11</title>
<g id="a_node11"><a xlink:title=" ">
<polygon fill="white" stroke="#bfbfbf" points="969,-0.5 969,-19.5 1025,-19.5 1025,-0.5 969,-0.5"/>
<text text-anchor="middle" x="997" y="-7.5" font-family="Helvetica,sans-Serif" font-size="10.00">stddef.h</text>
</a>
</g>
</g>
<!-- Node9&#45;&gt;Node11 -->
<g id="edge11" class="edge">
<title>Node9&#45;&gt;Node11</title>
<path fill="none" stroke="midnightblue" d="M775.8,-173.7C820.8,-167.08 916.21,-151.2 943,-132 976.87,-107.73 989.84,-57.23 994.54,-29.77"/>
<polygon fill="midnightblue" stroke="midnightblue" points="998.05,-29.96 996.08,-19.55 991.12,-28.92 998.05,-29.96"/>
</g>
<!-- Node12 -->
<g id="node12" class="node">
<title>Node12</title>
<g id="a_node12"><a xlink:href="peano_8h.html" target="_top" xlink:title=" ">
<polygon fill="white" stroke="black" points="1048,-112.5 1048,-131.5 1128,-131.5 1128,-112.5 1048,-112.5"/>
<text text-anchor="middle" x="1088" y="-119.5" font-family="Helvetica,sans-Serif" font-size="10.00">utils/peano.h</text>
</a>
</g>
</g>
<!-- Node9&#45;&gt;Node12 -->
<g id="edge13" class="edge">
<title>Node9&#45;&gt;Node12</title>
<path fill="none" stroke="midnightblue" d="M775.78,-173.26C824.32,-165.62 938.34,-147.6 1034,-132 1035.27,-131.79 1036.55,-131.58 1037.84,-131.37"/>
<polygon fill="midnightblue" stroke="midnightblue" points="1038.6,-134.79 1047.9,-129.71 1037.46,-127.89 1038.6,-134.79"/>
</g>
<!-- Node13 -->
<g id="node13" class="node">
<title>Node13</title>
<g id="a_node13"><a xlink:href="memory_8h.html" target="_top" xlink:title=" ">
<polygon fill="white" stroke="black" points="783.5,-56.5 783.5,-75.5 872.5,-75.5 872.5,-56.5 783.5,-56.5"/>
<text text-anchor="middle" x="828" y="-63.5" font-family="Helvetica,sans-Serif" font-size="10.00">utils/memory.h</text>
</a>
</g>
</g>
<!-- Node9&#45;&gt;Node13 -->
<g id="edge16" class="edge">
<title>Node9&#45;&gt;Node13</title>
<path fill="none" stroke="midnightblue" d="M757.96,-168.37C770.51,-150.22 799.81,-107.8 816.26,-83.99"/>
<polygon fill="midnightblue" stroke="midnightblue" points="819.26,-85.81 822.06,-75.59 813.5,-81.83 819.26,-85.81"/>
</g>
<!-- Node14 -->
<g id="node14" class="node">
<title>Node14</title>
<g id="a_node14"><a xlink:href="mymalloc_8h.html" target="_top" xlink:title=" ">
<polygon fill="white" stroke="black" points="818,-112.5 818,-131.5 916,-131.5 916,-112.5 818,-112.5"/>
<text text-anchor="middle" x="867" y="-119.5" font-family="Helvetica,sans-Serif" font-size="10.00">utils/mymalloc.h</text>
</a>
</g>
</g>
<!-- Node9&#45;&gt;Node14 -->
<g id="edge18" class="edge">
<title>Node9&#45;&gt;Node14</title>
<path fill="none" stroke="midnightblue" d="M770.22,-168.44C788.9,-159.68 818.16,-145.94 839.62,-135.86"/>
<polygon fill="midnightblue" stroke="midnightblue" points="841.3,-138.93 848.86,-131.52 838.32,-132.6 841.3,-138.93"/>
</g>
<!-- Node15 -->
<g id="node15" class="node">
<title>Node15</title>
<g id="a_node15"><a xlink:href="paramset_8h.html" target="_top" xlink:title=" ">
<polygon fill="white" stroke="black" points="1146,-112.5 1146,-131.5 1242,-131.5 1242,-112.5 1146,-112.5"/>
<text text-anchor="middle" x="1194" y="-119.5" font-family="Helvetica,sans-Serif" font-size="10.00">utils/paramset.h</text>
</a>
</g>
</g>
<!-- Node9&#45;&gt;Node15 -->
<g id="edge20" class="edge">
<title>Node9&#45;&gt;Node15</title>
<path fill="none" stroke="midnightblue" d="M775.92,-174.54C835.05,-168.4 993.02,-151.54 1135.58,-132.15"/>
<polygon fill="midnightblue" stroke="midnightblue" points="1136.38,-135.57 1145.82,-130.75 1135.44,-128.64 1136.38,-135.57"/>
</g>
<!-- Node16 -->
<g id="node16" class="node">
<title>Node16</title>
<g id="a_node16"><a xlink:href="event_8h.html" target="_top" xlink:title=" ">
<polygon fill="white" stroke="black" points="394.5,-112.5 394.5,-131.5 471.5,-131.5 471.5,-112.5 394.5,-112.5"/>
<text text-anchor="middle" x="433" y="-119.5" font-family="Helvetica,sans-Serif" font-size="10.00">utils/event.h</text>
</a>
</g>
</g>
<!-- Node9&#45;&gt;Node16 -->
<g id="edge22" class="edge">
<title>Node9&#45;&gt;Node16</title>
<path fill="none" stroke="midnightblue" d="M728.41,-173.25C682.89,-165.98 579.52,-149.3 481.8,-132.11"/>
<polygon fill="midnightblue" stroke="midnightblue" points="482.22,-128.63 471.76,-130.34 481,-135.52 482.22,-128.63"/>
</g>
<!-- Node17 -->
<g id="node17" class="node">
<title>Node17</title>
<g id="a_node17"><a xlink:href="openmpsort_8h.html" target="_top" xlink:title=" ">
<polygon fill="white" stroke="black" points="657,-56.5 657,-75.5 765,-75.5 765,-56.5 657,-56.5"/>
<text text-anchor="middle" x="711" y="-63.5" font-family="Helvetica,sans-Serif" font-size="10.00">utils/openmpsort.h</text>
</a>
</g>
</g>
<!-- Node9&#45;&gt;Node17 -->
<g id="edge23" class="edge">
<title>Node9&#45;&gt;Node17</title>
<path fill="none" stroke="midnightblue" d="M748.76,-168.16C744.17,-155.65 735.49,-132.06 728,-112 724.71,-103.19 721.02,-93.42 717.93,-85.24"/>
<polygon fill="midnightblue" stroke="midnightblue" points="721.1,-83.73 714.28,-75.62 714.55,-86.21 721.1,-83.73"/>
</g>
<!-- Node18 -->
<g id="node18" class="node">
<title>Node18</title>
<g id="a_node18"><a xlink:href="system_8h.html" target="_top" xlink:title=" ">
<polygon fill="white" stroke="black" points="252,-112.5 252,-131.5 338,-131.5 338,-112.5 252,-112.5"/>
<text text-anchor="middle" x="295" y="-119.5" font-family="Helvetica,sans-Serif" font-size="10.00">utils/system.h</text>
</a>
</g>
</g>
<!-- Node9&#45;&gt;Node18 -->
<g id="edge25" class="edge">
<title>Node9&#45;&gt;Node18</title>
<path fill="none" stroke="midnightblue" d="M728.39,-174.21C657.87,-165.88 447.51,-141.02 348.12,-129.28"/>
<polygon fill="midnightblue" stroke="midnightblue" points="348.34,-125.78 338,-128.08 347.52,-132.73 348.34,-125.78"/>
</g>
<!-- Node19 -->
<g id="node19" class="node">
<title>Node19</title>
<g id="a_node19"><a xlink:href="endrun_8h.html" target="_top" xlink:title=" ">
<polygon fill="white" stroke="black" points="489.5,-112.5 489.5,-131.5 572.5,-131.5 572.5,-112.5 489.5,-112.5"/>
<text text-anchor="middle" x="531" y="-119.5" font-family="Helvetica,sans-Serif" font-size="10.00">utils/endrun.h</text>
</a>
</g>
</g>
<!-- Node9&#45;&gt;Node19 -->
<g id="edge30" class="edge">
<title>Node9&#45;&gt;Node19</title>
<path fill="none" stroke="midnightblue" d="M728.35,-171.22C692.04,-162.35 621.94,-145.22 575.81,-133.95"/>
<polygon fill="midnightblue" stroke="midnightblue" points="576.61,-130.54 566.06,-131.57 574.95,-137.34 576.61,-130.54"/>
</g>
<!-- Node20 -->
<g id="node20" class="node">
<title>Node20</title>
<g id="a_node20"><a xlink:href="interp_8h.html" target="_top" xlink:title=" ">
<polygon fill="white" stroke="black" points="891,-56.5 891,-75.5 969,-75.5 969,-56.5 891,-56.5"/>
<text text-anchor="middle" x="930" y="-63.5" font-family="Helvetica,sans-Serif" font-size="10.00">utils/interp.h</text>
</a>
</g>
</g>
<!-- Node9&#45;&gt;Node20 -->
<g id="edge31" class="edge">
<title>Node9&#45;&gt;Node20</title>
<path fill="none" stroke="midnightblue" d="M775.78,-174.21C818.59,-168.67 905.94,-154.79 925,-132 935.54,-119.4 935.74,-100.18 933.93,-85.91"/>
<polygon fill="midnightblue" stroke="midnightblue" points="937.33,-85.02 932.21,-75.74 930.42,-86.19 937.33,-85.02"/>
</g>
<!-- Node21 -->
<g id="node21" class="node">
<title>Node21</title>
<g id="a_node21"><a xlink:href="spinlocks_8h.html" target="_top" xlink:title=" ">
<polygon fill="white" stroke="black" points="590.5,-112.5 590.5,-131.5 685.5,-131.5 685.5,-112.5 590.5,-112.5"/>
<text text-anchor="middle" x="638" y="-119.5" font-family="Helvetica,sans-Serif" font-size="10.00">utils/spinlocks.h</text>
</a>
</g>
</g>
<!-- Node9&#45;&gt;Node21 -->
<g id="edge33" class="edge">
<title>Node9&#45;&gt;Node21</title>
<path fill="none" stroke="midnightblue" d="M733.94,-168.44C715.43,-159.68 686.42,-145.94 665.14,-135.86"/>
<polygon fill="midnightblue" stroke="midnightblue" points="666.51,-132.63 655.98,-131.52 663.52,-138.96 666.51,-132.63"/>
</g>
<!-- Node12&#45;&gt;Node10 -->
<g id="edge15" class="edge">
<title>Node12&#45;&gt;Node10</title>
<path fill="none" stroke="midnightblue" d="M1082.06,-112.08C1077.02,-104.53 1069.66,-93.49 1063.49,-84.23"/>
<polygon fill="midnightblue" stroke="midnightblue" points="1066.29,-82.13 1057.83,-75.75 1060.47,-86.01 1066.29,-82.13"/>
</g>
<!-- Node12&#45;&gt;Node11 -->
<g id="edge14" class="edge">
<title>Node12&#45;&gt;Node11</title>
<path fill="none" stroke="midnightblue" d="M1090.72,-112.22C1094.26,-98.94 1098.84,-73.45 1088,-56 1076.31,-37.17 1054.14,-25.98 1034.62,-19.47"/>
<polygon fill="midnightblue" stroke="midnightblue" points="1035.59,-16.11 1025.01,-16.56 1033.56,-22.81 1035.59,-16.11"/>
</g>
<!-- Node13&#45;&gt;Node11 -->
<g id="edge17" class="edge">
<title>Node13&#45;&gt;Node11</title>
<path fill="none" stroke="midnightblue" d="M854.78,-56.44C883.33,-47.32 928.73,-32.81 960.54,-22.65"/>
<polygon fill="midnightblue" stroke="midnightblue" points="961.89,-25.89 970.35,-19.52 959.76,-19.23 961.89,-25.89"/>
</g>
<!-- Node14&#45;&gt;Node13 -->
<g id="edge19" class="edge">
<title>Node14&#45;&gt;Node13</title>
<path fill="none" stroke="midnightblue" d="M860.56,-112.08C855.05,-104.46 846.97,-93.26 840.24,-83.94"/>
<polygon fill="midnightblue" stroke="midnightblue" points="843.01,-81.81 834.32,-75.75 837.34,-85.91 843.01,-81.81"/>
</g>
<!-- Node15&#45;&gt;Node3 -->
<g id="edge21" class="edge">
<title>Node15&#45;&gt;Node3</title>
<path fill="none" stroke="midnightblue" d="M1145.84,-113.11C1142.85,-112.71 1139.89,-112.33 1137,-112 923.8,-87.36 864.7,-111.29 649.19,-75.88"/>
<polygon fill="midnightblue" stroke="midnightblue" points="649.58,-72.4 639.14,-74.21 648.43,-79.31 649.58,-72.4"/>
</g>
<!-- Node17&#45;&gt;Node11 -->
<g id="edge24" class="edge">
<title>Node17&#45;&gt;Node11</title>
<path fill="none" stroke="midnightblue" d="M756.32,-56.44C812.28,-45.88 906.48,-28.09 958.9,-18.19"/>
<polygon fill="midnightblue" stroke="midnightblue" points="959.62,-21.62 968.8,-16.32 958.32,-14.74 959.62,-21.62"/>
</g>
<!-- Node18&#45;&gt;Node2 -->
<g id="edge27" class="edge">
<title>Node18&#45;&gt;Node2</title>
<path fill="none" stroke="midnightblue" d="M260.3,-112.44C218.47,-102.13 148.75,-84.94 108.11,-74.92"/>
<polygon fill="midnightblue" stroke="midnightblue" points="108.75,-71.47 98.2,-72.47 107.07,-78.27 108.75,-71.47"/>
</g>
<!-- Node18&#45;&gt;Node6 -->
<g id="edge28" class="edge">
<title>Node18&#45;&gt;Node6</title>
<path fill="none" stroke="midnightblue" d="M287.73,-112.08C281.46,-104.38 272.21,-93.03 264.57,-83.65"/>
<polygon fill="midnightblue" stroke="midnightblue" points="267.16,-81.29 258.13,-75.75 261.73,-85.71 267.16,-81.29"/>
</g>
<!-- Node18&#45;&gt;Node10 -->
<g id="edge26" class="edge">
<title>Node18&#45;&gt;Node10</title>
<path fill="none" stroke="midnightblue" d="M338.2,-113.72C342.85,-113.07 347.52,-112.48 352,-112 629.09,-82.23 700.43,-100.84 978,-76 990.16,-74.91 1003.41,-73.4 1015.3,-71.93"/>
<polygon fill="midnightblue" stroke="midnightblue" points="1015.85,-75.39 1025.33,-70.66 1014.97,-68.45 1015.85,-75.39"/>
</g>
<!-- Node20&#45;&gt;Node11 -->
<g id="edge32" class="edge">
<title>Node20&#45;&gt;Node11</title>
<path fill="none" stroke="midnightblue" d="M940.76,-56.32C950.77,-48.26 965.89,-36.08 977.93,-26.37"/>
<polygon fill="midnightblue" stroke="midnightblue" points="980.45,-28.83 986.04,-19.83 976.06,-23.38 980.45,-28.83"/>
</g>
<!-- Node23 -->
<g id="node23" class="node">
<title>Node23</title>
<g id="a_node23"><a xlink:href="cosmology_8h.html" target="_top" xlink:title=" ">
<polygon fill="white" stroke="black" points="1384.5,-168.5 1384.5,-187.5 1461.5,-187.5 1461.5,-168.5 1384.5,-168.5"/>
<text text-anchor="middle" x="1423" y="-175.5" font-family="Helvetica,sans-Serif" font-size="10.00">cosmology.h</text>
</a>
</g>
</g>
<!-- Node22&#45;&gt;Node23 -->
<g id="edge35" class="edge">
<title>Node22&#45;&gt;Node23</title>
<path fill="none" stroke="midnightblue" d="M1580.57,-392.3C1556.08,-359.15 1468.37,-240.41 1435.53,-195.96"/>
<polygon fill="midnightblue" stroke="midnightblue" points="1438.32,-193.85 1429.56,-187.88 1432.69,-198.01 1438.32,-193.85"/>
</g>
<!-- Node23&#45;&gt;Node11 -->
<g id="edge36" class="edge">
<title>Node23&#45;&gt;Node11</title>
<path fill="none" stroke="midnightblue" d="M1411.91,-168.31C1394.06,-154.68 1357.5,-128.17 1323,-112 1223.6,-65.4 1097.32,-33.35 1035.13,-19.2"/>
<polygon fill="midnightblue" stroke="midnightblue" points="1035.52,-15.7 1025,-16.92 1033.99,-22.53 1035.52,-15.7"/>
</g>
<!-- Node24 -->
<g id="node24" class="node">
<title>Node24</title>
<g id="a_node24"><a xlink:href="omega__nu__single_8h.html" target="_top" xlink:title=" ">
<polygon fill="white" stroke="black" points="1492.5,-112.5 1492.5,-131.5 1603.5,-131.5 1603.5,-112.5 1492.5,-112.5"/>
<text text-anchor="middle" x="1548" y="-119.5" font-family="Helvetica,sans-Serif" font-size="10.00">omega_nu_single.h</text>
</a>
</g>
</g>
<!-- Node23&#45;&gt;Node24 -->
<g id="edge37" class="edge">
<title>Node23&#45;&gt;Node24</title>
<path fill="none" stroke="midnightblue" d="M1442.81,-168.44C1463.29,-159.6 1495.48,-145.69 1518.86,-135.59"/>
<polygon fill="midnightblue" stroke="midnightblue" points="1520.49,-138.7 1528.29,-131.52 1517.72,-132.27 1520.49,-138.7"/>
</g>
<!-- Node26 -->
<g id="node26" class="node">
<title>Node26</title>
<g id="a_node26"><a xlink:href="unitsystem_8h.html" target="_top" xlink:title=" ">
<polygon fill="white" stroke="black" points="1370,-112.5 1370,-131.5 1474,-131.5 1474,-112.5 1370,-112.5"/>
<text text-anchor="middle" x="1422" y="-119.5" font-family="Helvetica,sans-Serif" font-size="10.00">utils/unitsystem.h</text>
</a>
</g>
</g>
<!-- Node23&#45;&gt;Node26 -->
<g id="edge39" class="edge">
<title>Node23&#45;&gt;Node26</title>
<path fill="none" stroke="midnightblue" d="M1422.83,-168.08C1422.7,-161.01 1422.52,-150.86 1422.35,-141.99"/>
<polygon fill="midnightblue" stroke="midnightblue" points="1425.85,-141.68 1422.16,-131.75 1418.85,-141.81 1425.85,-141.68"/>
</g>
<!-- Node25 -->
<g id="node25" class="node">
<title>Node25</title>
<g id="a_node25"><a xlink:title=" ">
<polygon fill="white" stroke="#bfbfbf" points="1514.5,-56.5 1514.5,-75.5 1605.5,-75.5 1605.5,-56.5 1514.5,-56.5"/>
<text text-anchor="middle" x="1560" y="-63.5" font-family="Helvetica,sans-Serif" font-size="10.00">gsl/gsl_interp.h</text>
</a>
</g>
</g>
<!-- Node24&#45;&gt;Node25 -->
<g id="edge38" class="edge">
<title>Node24&#45;&gt;Node25</title>
<path fill="none" stroke="midnightblue" d="M1549.98,-112.08C1551.57,-104.93 1553.86,-94.64 1555.85,-85.69"/>
<polygon fill="midnightblue" stroke="midnightblue" points="1559.3,-86.27 1558.06,-75.75 1552.47,-84.75 1559.3,-86.27"/>
</g>
<!-- Node28&#45;&gt;Node10 -->
<g id="edge42" class="edge">
<title>Node28&#45;&gt;Node10</title>
<path fill="none" stroke="midnightblue" d="M1043.66,-455.37C901.43,-448.16 366,-416.42 366,-347 366,-347 366,-347 366,-177 366,-146.77 362.24,-130.69 386,-112 437.8,-71.26 912.37,-81.98 978,-76 990.16,-74.89 1003.41,-73.38 1015.29,-71.91"/>
<polygon fill="midnightblue" stroke="midnightblue" points="1015.84,-75.37 1025.32,-70.64 1014.96,-68.42 1015.84,-75.37"/>
</g>
<!-- Node28&#45;&gt;Node15 -->
<g id="edge43" class="edge">
<title>Node28&#45;&gt;Node15</title>
<path fill="none" stroke="midnightblue" d="M1043.94,-456.24C978.58,-452.79 842,-435.04 842,-347 842,-347 842,-347 842,-289 842,-213.88 893.86,-203.61 960,-168 975.32,-159.75 1071.58,-142.91 1135.77,-132.33"/>
<polygon fill="midnightblue" stroke="midnightblue" points="1136.47,-135.76 1145.78,-130.69 1135.34,-128.85 1136.47,-135.76"/>
</g>
<!-- Node29 -->
<g id="node29" class="node">
<title>Node29</title>
<g id="a_node29"><a xlink:href="forcetree_8h.html" target="_top" xlink:title=" ">
<polygon fill="white" stroke="black" points="1044,-392.5 1044,-411.5 1114,-411.5 1114,-392.5 1044,-392.5"/>
<text text-anchor="middle" x="1079" y="-399.5" font-family="Helvetica,sans-Serif" font-size="10.00">forcetree.h</text>
</a>
</g>
</g>
<!-- Node28&#45;&gt;Node29 -->
<g id="edge44" class="edge">
<title>Node28&#45;&gt;Node29</title>
<path fill="none" stroke="midnightblue" d="M1078.17,-448.08C1078.3,-441.01 1078.48,-430.86 1078.65,-421.99"/>
<polygon fill="midnightblue" stroke="midnightblue" points="1082.15,-421.81 1078.84,-411.75 1075.15,-421.68 1082.15,-421.81"/>
</g>
<!-- Node30 -->
<g id="node30" class="node">
<title>Node30</title>
<g id="a_node30"><a xlink:href="types_8h.html" target="_top" xlink:title=" ">
<polygon fill="white" stroke="black" points="1260.5,-112.5 1260.5,-131.5 1313.5,-131.5 1313.5,-112.5 1260.5,-112.5"/>
<text text-anchor="middle" x="1287" y="-119.5" font-family="Helvetica,sans-Serif" font-size="10.00">types.h</text>
</a>
</g>
</g>
<!-- Node29&#45;&gt;Node30 -->
<g id="edge45" class="edge">
<title>Node29&#45;&gt;Node30</title>
<path fill="none" stroke="midnightblue" d="M1083.78,-392.43C1101.64,-360.81 1166.99,-248.32 1237,-168 1246.38,-157.24 1258.2,-146.5 1267.99,-138.21"/>
<polygon fill="midnightblue" stroke="midnightblue" points="1270.48,-140.69 1275.96,-131.62 1266.02,-135.3 1270.48,-140.69"/>
</g>
<!-- Node31 -->
<g id="node31" class="node">
<title>Node31</title>
<g id="a_node31"><a xlink:href="domain_8h.html" target="_top" xlink:title=" ">
<polygon fill="white" stroke="black" points="887,-336.5 887,-355.5 949,-355.5 949,-336.5 887,-336.5"/>
<text text-anchor="middle" x="918" y="-343.5" font-family="Helvetica,sans-Serif" font-size="10.00">domain.h</text>
</a>
</g>
</g>
<!-- Node29&#45;&gt;Node31 -->
<g id="edge47" class="edge">
<title>Node29&#45;&gt;Node31</title>
<path fill="none" stroke="midnightblue" d="M1053.49,-392.44C1026.4,-383.36 983.41,-368.94 953.13,-358.78"/>
<polygon fill="midnightblue" stroke="midnightblue" points="953.99,-355.38 943.39,-355.52 951.76,-362.01 953.99,-355.38"/>
</g>
<!-- Node30&#45;&gt;Node10 -->
<g id="edge46" class="edge">
<title>Node30&#45;&gt;Node10</title>
<path fill="none" stroke="midnightblue" d="M1260.28,-114.25C1257.15,-113.48 1254.01,-112.72 1251,-112 1194.42,-98.53 1128.55,-83.83 1088.58,-75.01"/>
<polygon fill="midnightblue" stroke="midnightblue" points="1089.28,-71.58 1078.76,-72.85 1087.77,-78.42 1089.28,-71.58"/>
</g>
<!-- Node31&#45;&gt;Node2 -->
<g id="edge48" class="edge">
<title>Node31&#45;&gt;Node2</title>
<path fill="none" stroke="midnightblue" d="M886.68,-339.63C789.21,-322.53 483.1,-265.83 238,-188 175.31,-168.09 147.03,-179 101,-132 88.72,-119.46 82.33,-100.24 79.09,-85.94"/>
<polygon fill="midnightblue" stroke="midnightblue" points="82.46,-84.92 77.13,-75.76 75.59,-86.24 82.46,-84.92"/>
</g>
<!-- Node31&#45;&gt;Node12 -->
<g id="edge49" class="edge">
<title>Node31&#45;&gt;Node12</title>
<path fill="none" stroke="midnightblue" d="M913.7,-336.46C900.42,-308.71 863.27,-219.89 904,-168 912.38,-157.33 986.39,-141.72 1037.95,-131.97"/>
<polygon fill="midnightblue" stroke="midnightblue" points="1038.76,-135.38 1047.94,-130.1 1037.47,-128.5 1038.76,-135.38"/>
</g>
<!-- Node31&#45;&gt;Node15 -->
<g id="edge50" class="edge">
<title>Node31&#45;&gt;Node15</title>
<path fill="none" stroke="midnightblue" d="M917.48,-336.48C916.61,-315.84 916.61,-262.05 937,-224 954.38,-191.56 965.43,-185.13 998,-168 1021.58,-155.6 1086.73,-141.99 1135.48,-133.02"/>
<polygon fill="midnightblue" stroke="midnightblue" points="1136.4,-136.41 1145.62,-131.18 1135.15,-129.52 1136.4,-136.41"/>
</g>
<!-- Node32 -->
<g id="node32" class="node">
<title>Node32</title>
<g id="a_node32"><a xlink:href="drift_8h.html" target="_top" xlink:title=" ">
<polygon fill="white" stroke="black" points="1030.5,-280.5 1030.5,-299.5 1075.5,-299.5 1075.5,-280.5 1030.5,-280.5"/>
<text text-anchor="middle" x="1053" y="-287.5" font-family="Helvetica,sans-Serif" font-size="10.00">drift.h</text>
</a>
</g>
</g>
<!-- Node31&#45;&gt;Node32 -->
<g id="edge51" class="edge">
<title>Node31&#45;&gt;Node32</title>
<path fill="none" stroke="midnightblue" d="M939.39,-336.44C961.71,-327.52 996.9,-313.44 1022.21,-303.32"/>
<polygon fill="midnightblue" stroke="midnightblue" points="1023.72,-306.48 1031.71,-299.52 1021.12,-299.98 1023.72,-306.48"/>
</g>
<!-- Node32&#45;&gt;Node23 -->
<g id="edge52" class="edge">
<title>Node32&#45;&gt;Node23</title>
<path fill="none" stroke="midnightblue" d="M1075.66,-287.2C1147.07,-281.35 1364.3,-262.23 1390,-244 1405.45,-233.04 1414.11,-212.68 1418.65,-197.65"/>
<polygon fill="midnightblue" stroke="midnightblue" points="1422.06,-198.43 1421.25,-187.87 1415.3,-196.63 1422.06,-198.43"/>
</g>
<!-- Node32&#45;&gt;Node30 -->
<g id="edge53" class="edge">
<title>Node32&#45;&gt;Node30</title>
<path fill="none" stroke="midnightblue" d="M1062.43,-280.44C1085.53,-259.7 1147.19,-205.72 1204,-168 1221.92,-156.1 1243.28,-144.57 1259.84,-136.17"/>
<polygon fill="midnightblue" stroke="midnightblue" points="1261.6,-139.2 1268.98,-131.6 1258.47,-132.94 1261.6,-139.2"/>
</g>
<!-- Node33 -->
<g id="node33" class="node">
<title>Node33</title>
<g id="a_node33"><a xlink:href="partmanager_8h.html" target="_top" xlink:title=" ">
<polygon fill="white" stroke="black" points="1026,-168.5 1026,-187.5 1114,-187.5 1114,-168.5 1026,-168.5"/>
<text text-anchor="middle" x="1070" y="-175.5" font-family="Helvetica,sans-Serif" font-size="10.00">partmanager.h</text>
</a>
</g>
</g>
<!-- Node32&#45;&gt;Node33 -->
<g id="edge54" class="edge">
<title>Node32&#45;&gt;Node33</title>
<path fill="none" stroke="midnightblue" d="M1054.33,-280.37C1057.08,-262.62 1063.41,-221.67 1067.13,-197.6"/>
<polygon fill="midnightblue" stroke="midnightblue" points="1070.6,-198.01 1068.67,-187.59 1063.69,-196.94 1070.6,-198.01"/>
</g>
<!-- Node34 -->
<g id="node34" class="node">
<title>Node34</title>
<g id="a_node34"><a xlink:href="slotsmanager_8h.html" target="_top" xlink:title=" ">
<polygon fill="white" stroke="black" points="946,-224.5 946,-243.5 1038,-243.5 1038,-224.5 946,-224.5"/>
<text text-anchor="middle" x="992" y="-231.5" font-family="Helvetica,sans-Serif" font-size="10.00">slotsmanager.h</text>
</a>
</g>
</g>
<!-- Node32&#45;&gt;Node34 -->
<g id="edge57" class="edge">
<title>Node32&#45;&gt;Node34</title>
<path fill="none" stroke="midnightblue" d="M1043.2,-280.32C1034.18,-272.34 1020.59,-260.31 1009.68,-250.65"/>
<polygon fill="midnightblue" stroke="midnightblue" points="1011.79,-247.84 1001.98,-243.83 1007.15,-253.08 1011.79,-247.84"/>
</g>
<!-- Node33&#45;&gt;Node12 -->
<g id="edge56" class="edge">
<title>Node33&#45;&gt;Node12</title>
<path fill="none" stroke="midnightblue" d="M1072.97,-168.08C1075.38,-160.85 1078.86,-150.41 1081.87,-141.4"/>
<polygon fill="midnightblue" stroke="midnightblue" points="1085.24,-142.34 1085.08,-131.75 1078.6,-140.13 1085.24,-142.34"/>
</g>
<!-- Node33&#45;&gt;Node30 -->
<g id="edge55" class="edge">
<title>Node33&#45;&gt;Node30</title>
<path fill="none" stroke="midnightblue" d="M1104.37,-168.47C1138.78,-159.92 1193.54,-146.32 1250.38,-132.15"/>
<polygon fill="midnightblue" stroke="midnightblue" points="1251.41,-135.5 1260.26,-129.69 1249.71,-128.71 1251.41,-135.5"/>
</g>
<!-- Node34&#45;&gt;Node2 -->
<g id="edge58" class="edge">
<title>Node34&#45;&gt;Node2</title>
<path fill="none" stroke="midnightblue" d="M945.76,-232.17C787.67,-228.62 270.65,-211.08 128,-132 108.51,-121.19 93.63,-99.82 84.88,-84.53"/>
<polygon fill="midnightblue" stroke="midnightblue" points="87.86,-82.67 80.03,-75.53 81.69,-86 87.86,-82.67"/>
</g>
<!-- Node34&#45;&gt;Node9 -->
<g id="edge59" class="edge">
<title>Node34&#45;&gt;Node9</title>
<path fill="none" stroke="midnightblue" d="M953.97,-224.44C907.59,-214.01 829.93,-196.53 785.64,-186.57"/>
<polygon fill="midnightblue" stroke="midnightblue" points="786.19,-183.11 775.66,-184.32 784.65,-189.93 786.19,-183.11"/>
</g>
<!-- Node34&#45;&gt;Node30 -->
<g id="edge60" class="edge">
<title>Node34&#45;&gt;Node30</title>
<path fill="none" stroke="midnightblue" d="M992.66,-224.24C994.23,-210.03 999.49,-182.11 1017,-168 1096.46,-103.99 1144.86,-149.81 1250.28,-131.84"/>
<polygon fill="midnightblue" stroke="midnightblue" points="1251.14,-135.24 1260.33,-129.96 1249.85,-128.36 1251.14,-135.24"/>
</g>
<!-- Node34&#45;&gt;Node33 -->
<g id="edge61" class="edge">
<title>Node34&#45;&gt;Node33</title>
<path fill="none" stroke="midnightblue" d="M1004.53,-224.32C1016.59,-215.98 1035.03,-203.21 1049.27,-193.35"/>
<polygon fill="midnightblue" stroke="midnightblue" points="1051.27,-196.22 1057.5,-187.65 1047.28,-190.47 1051.27,-196.22"/>
</g>
<!-- Node35&#45;&gt;Node28 -->
<g id="edge64" class="edge">
<title>Node35&#45;&gt;Node28</title>
<path fill="none" stroke="midnightblue" d="M1131.72,-504.32C1122.16,-496.26 1107.72,-484.08 1096.22,-474.37"/>
<polygon fill="midnightblue" stroke="midnightblue" points="1098.37,-471.61 1088.47,-467.83 1093.86,-476.96 1098.37,-471.61"/>
</g>
<!-- Node35&#45;&gt;Node33 -->
<g id="edge63" class="edge">
<title>Node35&#45;&gt;Node33</title>
<path fill="none" stroke="midnightblue" d="M1142,-504.44C1142,-485.94 1142,-440.81 1142,-403 1142,-403 1142,-403 1142,-289 1142,-249.94 1109.82,-213.94 1088.49,-194.37"/>
<polygon fill="midnightblue" stroke="midnightblue" points="1090.75,-191.7 1080.94,-187.7 1086.12,-196.94 1090.75,-191.7"/>
</g>
<!-- Node36 -->
<g id="node36" class="node">
<title>Node36</title>
<g id="a_node36"><a xlink:href="gravity_8h.html" target="_top" xlink:title=" ">
<polygon fill="white" stroke="black" points="1170.5,-448.5 1170.5,-467.5 1229.5,-467.5 1229.5,-448.5 1170.5,-448.5"/>
<text text-anchor="middle" x="1200" y="-455.5" font-family="Helvetica,sans-Serif" font-size="10.00">gravity.h</text>
</a>
</g>
</g>
<!-- Node35&#45;&gt;Node36 -->
<g id="edge65" class="edge">
<title>Node35&#45;&gt;Node36</title>
<path fill="none" stroke="midnightblue" d="M1151.32,-504.32C1159.89,-496.34 1172.81,-484.31 1183.19,-474.65"/>
<polygon fill="midnightblue" stroke="midnightblue" points="1185.58,-477.21 1190.51,-467.83 1180.81,-472.09 1185.58,-477.21"/>
</g>
<!-- Node36&#45;&gt;Node29 -->
<g id="edge66" class="edge">
<title>Node36&#45;&gt;Node29</title>
<path fill="none" stroke="midnightblue" d="M1180.83,-448.44C1161.09,-439.64 1130.11,-425.81 1107.51,-415.72"/>
<polygon fill="midnightblue" stroke="midnightblue" points="1108.64,-412.4 1098.08,-411.52 1105.79,-418.79 1108.64,-412.4"/>
</g>
<!-- Node37 -->
<g id="node37" class="node">
<title>Node37</title>
<g id="a_node37"><a xlink:href="petapm_8h.html" target="_top" xlink:title=" ">
<polygon fill="white" stroke="black" points="1640.5,-168.5 1640.5,-187.5 1703.5,-187.5 1703.5,-168.5 1640.5,-168.5"/>
<text text-anchor="middle" x="1672" y="-175.5" font-family="Helvetica,sans-Serif" font-size="10.00">petapm.h</text>
</a>
</g>
</g>
<!-- Node36&#45;&gt;Node37 -->
<g id="edge67" class="edge">
<title>Node36&#45;&gt;Node37</title>
<path fill="none" stroke="midnightblue" d="M1229.53,-456.26C1277.32,-454.07 1373.64,-445.49 1447,-412 1488.99,-392.83 1528,-393.16 1528,-347 1528,-347 1528,-347 1528,-289 1528,-236.76 1588.59,-206.01 1631.17,-190.85"/>
<polygon fill="midnightblue" stroke="midnightblue" points="1632.41,-194.12 1640.75,-187.58 1630.16,-187.49 1632.41,-194.12"/>
</g>
<!-- Node39 -->
<g id="node39" class="node">
<title>Node39</title>
<g id="a_node39"><a xlink:href="powerspectrum_8h.html" target="_top" xlink:title=" ">
<polygon fill="white" stroke="black" points="1621.5,-112.5 1621.5,-131.5 1722.5,-131.5 1722.5,-112.5 1621.5,-112.5"/>
<text text-anchor="middle" x="1672" y="-119.5" font-family="Helvetica,sans-Serif" font-size="10.00">powerspectrum.h</text>
</a>
</g>
</g>
<!-- Node36&#45;&gt;Node39 -->
<g id="edge73" class="edge">
<title>Node36&#45;&gt;Node39</title>
<path fill="none" stroke="midnightblue" d="M1212.14,-448.41C1275.78,-403.38 1570.96,-194.5 1651.6,-137.44"/>
<polygon fill="midnightblue" stroke="midnightblue" points="1653.8,-140.17 1659.94,-131.54 1649.75,-134.45 1653.8,-140.17"/>
</g>
<!-- Node40 -->
<g id="node40" class="node">
<title>Node40</title>
<g id="a_node40"><a xlink:href="timestep_8h.html" target="_top" xlink:title=" ">
<polygon fill="white" stroke="black" points="1219.5,-280.5 1219.5,-299.5 1288.5,-299.5 1288.5,-280.5 1219.5,-280.5"/>
<text text-anchor="middle" x="1254" y="-287.5" font-family="Helvetica,sans-Serif" font-size="10.00">timestep.h</text>
</a>
</g>
</g>
<!-- Node36&#45;&gt;Node40 -->
<g id="edge74" class="edge">
<title>Node36&#45;&gt;Node40</title>
<path fill="none" stroke="midnightblue" d="M1202.9,-448.08C1211.44,-421.83 1236.58,-344.55 1248.11,-309.12"/>
<polygon fill="midnightblue" stroke="midnightblue" points="1251.45,-310.16 1251.21,-299.57 1244.79,-307.99 1251.45,-310.16"/>
</g>
<!-- Node38 -->
<g id="node38" class="node">
<title>Node38</title>
<g id="a_node38"><a xlink:title=" ">
<polygon fill="white" stroke="#bfbfbf" points="1741,-112.5 1741,-131.5 1783,-131.5 1783,-112.5 1741,-112.5"/>
<text text-anchor="middle" x="1762" y="-119.5" font-family="Helvetica,sans-Serif" font-size="10.00">pfft.h</text>
</a>
</g>
</g>
<!-- Node37&#45;&gt;Node38 -->
<g id="edge68" class="edge">
<title>Node37&#45;&gt;Node38</title>
<path fill="none" stroke="midnightblue" d="M1686.46,-168.32C1700.5,-159.9 1722.05,-146.97 1738.54,-137.07"/>
<polygon fill="midnightblue" stroke="midnightblue" points="1740.8,-139.8 1747.58,-131.65 1737.2,-133.8 1740.8,-139.8"/>
</g>
<!-- Node37&#45;&gt;Node39 -->
<g id="edge69" class="edge">
<title>Node37&#45;&gt;Node39</title>
<path fill="none" stroke="midnightblue" d="M1672,-168.08C1672,-161.01 1672,-150.86 1672,-141.99"/>
<polygon fill="midnightblue" stroke="midnightblue" points="1675.5,-141.75 1672,-131.75 1668.5,-141.75 1675.5,-141.75"/>
</g>
<!-- Node39&#45;&gt;Node10 -->
<g id="edge71" class="edge">
<title>Node39&#45;&gt;Node10</title>
<path fill="none" stroke="midnightblue" d="M1621.18,-113.01C1618.42,-112.65 1615.68,-112.31 1613,-112 1415.98,-89.1 1178.67,-74.22 1088.85,-69.04"/>
<polygon fill="midnightblue" stroke="midnightblue" points="1088.82,-65.54 1078.64,-68.46 1088.42,-72.52 1088.82,-65.54"/>
</g>
<!-- Node39&#45;&gt;Node11 -->
<g id="edge70" class="edge">
<title>Node39&#45;&gt;Node11</title>
<path fill="none" stroke="midnightblue" d="M1667.42,-112.34C1659.16,-97.73 1640.26,-68.57 1615,-56 1563.19,-30.21 1161.77,-15.98 1035.14,-12.1"/>
<polygon fill="midnightblue" stroke="midnightblue" points="1035.23,-8.6 1025.13,-11.8 1035.02,-15.6 1035.23,-8.6"/>
</g>
<!-- Node39&#45;&gt;Node25 -->
<g id="edge72" class="edge">
<title>Node39&#45;&gt;Node25</title>
<path fill="none" stroke="midnightblue" d="M1654.01,-112.32C1635.96,-103.62 1607.95,-90.12 1587.2,-80.11"/>
<polygon fill="midnightblue" stroke="midnightblue" points="1588.48,-76.84 1577.95,-75.65 1585.44,-83.15 1588.48,-76.84"/>
</g>
<!-- Node40&#45;&gt;Node15 -->
<g id="edge75" class="edge">
<title>Node40&#45;&gt;Node15</title>
<path fill="none" stroke="midnightblue" d="M1250.77,-280.08C1241.29,-253.83 1213.35,-176.55 1200.55,-141.12"/>
<polygon fill="midnightblue" stroke="midnightblue" points="1203.79,-139.78 1197.1,-131.57 1197.2,-142.16 1203.79,-139.78"/>
</g>
<!-- Node41 -->
<g id="node41" class="node">
<title>Node41</title>
<g id="a_node41"><a xlink:href="timebinmgr_8h.html" target="_top" xlink:title=" ">
<polygon fill="white" stroke="black" points="1246,-168.5 1246,-187.5 1328,-187.5 1328,-168.5 1246,-168.5"/>
<text text-anchor="middle" x="1287" y="-175.5" font-family="Helvetica,sans-Serif" font-size="10.00">timebinmgr.h</text>
</a>
</g>
</g>
<!-- Node40&#45;&gt;Node41 -->
<g id="edge76" class="edge">
<title>Node40&#45;&gt;Node41</title>
<path fill="none" stroke="midnightblue" d="M1256.59,-280.37C1261.94,-262.54 1274.31,-221.3 1281.52,-197.27"/>
<polygon fill="midnightblue" stroke="midnightblue" points="1284.9,-198.18 1284.42,-187.59 1278.2,-196.16 1284.9,-198.18"/>
</g>
<!-- Node42 -->
<g id="node42" class="node">
<title>Node42</title>
<g id="a_node42"><a xlink:href="timefac_8h.html" target="_top" xlink:title=" ">
<polygon fill="white" stroke="black" points="1317.5,-224.5 1317.5,-243.5 1380.5,-243.5 1380.5,-224.5 1317.5,-224.5"/>
<text text-anchor="middle" x="1349" y="-231.5" font-family="Helvetica,sans-Serif" font-size="10.00">timefac.h</text>
</a>
</g>
</g>
<!-- Node40&#45;&gt;Node42 -->
<g id="edge79" class="edge">
<title>Node40&#45;&gt;Node42</title>
<path fill="none" stroke="midnightblue" d="M1269.26,-280.32C1284.22,-271.82 1307.25,-258.73 1324.73,-248.8"/>
<polygon fill="midnightblue" stroke="midnightblue" points="1326.81,-251.64 1333.77,-243.65 1323.35,-245.55 1326.81,-251.64"/>
</g>
<!-- Node41&#45;&gt;Node15 -->
<g id="edge78" class="edge">
<title>Node41&#45;&gt;Node15</title>
<path fill="none" stroke="midnightblue" d="M1272.06,-168.32C1257.41,-159.82 1234.87,-146.73 1217.76,-136.8"/>
<polygon fill="midnightblue" stroke="midnightblue" points="1219.31,-133.65 1208.9,-131.65 1215.8,-139.7 1219.31,-133.65"/>
</g>
<!-- Node41&#45;&gt;Node30 -->
<g id="edge77" class="edge">
<title>Node41&#45;&gt;Node30</title>
<path fill="none" stroke="midnightblue" d="M1287,-168.08C1287,-161.01 1287,-150.86 1287,-141.99"/>
<polygon fill="midnightblue" stroke="midnightblue" points="1290.5,-141.75 1287,-131.75 1283.5,-141.75 1290.5,-141.75"/>
</g>
<!-- Node42&#45;&gt;Node23 -->
<g id="edge81" class="edge">
<title>Node42&#45;&gt;Node23</title>
<path fill="none" stroke="midnightblue" d="M1360.89,-224.32C1372.15,-216.11 1389.29,-203.6 1402.71,-193.81"/>
<polygon fill="midnightblue" stroke="midnightblue" points="1404.88,-196.56 1410.89,-187.83 1400.75,-190.9 1404.88,-196.56"/>
</g>
<!-- Node42&#45;&gt;Node30 -->
<g id="edge80" class="edge">
<title>Node42&#45;&gt;Node30</title>
<path fill="none" stroke="midnightblue" d="M1349.13,-224.41C1348.96,-211.39 1347.2,-186.22 1337,-168 1330.23,-155.9 1318.98,-145.34 1308.86,-137.5"/>
<polygon fill="midnightblue" stroke="midnightblue" points="1310.9,-134.65 1300.76,-131.58 1306.77,-140.3 1310.9,-134.65"/>
</g>
<!-- Node42&#45;&gt;Node41 -->
<g id="edge82" class="edge">
<title>Node42&#45;&gt;Node41</title>
<path fill="none" stroke="midnightblue" d="M1339.04,-224.32C1329.87,-216.34 1316.06,-204.31 1304.97,-194.65"/>
<polygon fill="midnightblue" stroke="midnightblue" points="1306.98,-191.76 1297.14,-187.83 1302.38,-197.04 1306.98,-191.76"/>
</g>
</g>
</svg>
