<?xml version="1.0" encoding="UTF-8" standalone="no"?>
<!DOCTYPE svg PUBLIC "-//W3C//DTD SVG 1.1//EN"
 "http://www.w3.org/Graphics/SVG/1.1/DTD/svg11.dtd">
<!-- Generated by graphviz version 2.50.0 (0)
 -->
<!-- Title: libgadget/gravshort&#45;tree.c Pages: 1 -->
<svg width="2325pt" height="599pt"
 viewBox="0.00 0.00 2324.50 599.00" xmlns="http://www.w3.org/2000/svg" xmlns:xlink="http://www.w3.org/1999/xlink">
<g id="graph0" class="graph" transform="scale(1 1) rotate(0) translate(4 595)">
<title>libgadget/gravshort&#45;tree.c</title>
<polygon fill="white" stroke="transparent" points="-4,4 -4,-595 2320.5,-595 2320.5,4 -4,4"/>
<!-- Node1 -->
<g id="node1" class="node">
<title>Node1</title>
<g id="a_node1"><a xlink:title=" ">
<polygon fill="#bfbfbf" stroke="black" points="1716.5,-560.5 1716.5,-590.5 1828.5,-590.5 1828.5,-560.5 1716.5,-560.5"/>
<text text-anchor="start" x="1724.5" y="-578.5" font-family="Helvetica,sans-Serif" font-size="10.00">libgadget/gravshort</text>
<text text-anchor="middle" x="1772.5" y="-567.5" font-family="Helvetica,sans-Serif" font-size="10.00">&#45;tree.c</text>
</a>
</g>
</g>
<!-- Node2 -->
<g id="node2" class="node">
<title>Node2</title>
<g id="a_node2"><a xlink:title=" ">
<polygon fill="white" stroke="#bfbfbf" points="1647.5,-56.5 1647.5,-75.5 1691.5,-75.5 1691.5,-56.5 1647.5,-56.5"/>
<text text-anchor="middle" x="1669.5" y="-63.5" font-family="Helvetica,sans-Serif" font-size="10.00">mpi.h</text>
</a>
</g>
</g>
<!-- Node1&#45;&gt;Node2 -->
<g id="edge1" class="edge">
<title>Node1&#45;&gt;Node2</title>
<path fill="none" stroke="midnightblue" d="M1766.91,-560.17C1759,-538.58 1745.5,-496.27 1745.5,-459 1745.5,-459 1745.5,-459 1745.5,-177 1745.5,-137.28 1711.54,-101.5 1689.02,-82.15"/>
<polygon fill="midnightblue" stroke="midnightblue" points="1690.98,-79.24 1681.04,-75.57 1686.52,-84.63 1690.98,-79.24"/>
</g>
<!-- Node3 -->
<g id="node3" class="node">
<title>Node3</title>
<g id="a_node3"><a xlink:title=" ">
<polygon fill="white" stroke="#bfbfbf" points="1774,-504.5 1774,-523.5 1827,-523.5 1827,-504.5 1774,-504.5"/>
<text text-anchor="middle" x="1800.5" y="-511.5" font-family="Helvetica,sans-Serif" font-size="10.00">stdlib.h</text>
</a>
</g>
</g>
<!-- Node1&#45;&gt;Node3 -->
<g id="edge2" class="edge">
<title>Node1&#45;&gt;Node3</title>
<path fill="none" stroke="midnightblue" d="M1779.14,-560.4C1783.04,-552.11 1788,-541.55 1792.17,-532.71"/>
<polygon fill="midnightblue" stroke="midnightblue" points="1795.33,-534.2 1796.43,-523.66 1789,-531.22 1795.33,-534.2"/>
</g>
<!-- Node4 -->
<g id="node4" class="node">
<title>Node4</title>
<g id="a_node4"><a xlink:href="string_8h.html" target="_top" xlink:title=" ">
<polygon fill="white" stroke="black" points="1434,-112.5 1434,-131.5 1487,-131.5 1487,-112.5 1434,-112.5"/>
<text text-anchor="middle" x="1460.5" y="-119.5" font-family="Helvetica,sans-Serif" font-size="10.00">string.h</text>
</a>
</g>
</g>
<!-- Node1&#45;&gt;Node4 -->
<g id="edge3" class="edge">
<title>Node1&#45;&gt;Node4</title>
<path fill="none" stroke="midnightblue" d="M1758.07,-560.27C1738.92,-539.8 1707.5,-499.96 1707.5,-459 1707.5,-459 1707.5,-459 1707.5,-233 1707.5,-210.13 1564.31,-158.32 1495.98,-134.89"/>
<polygon fill="midnightblue" stroke="midnightblue" points="1497.06,-131.56 1486.47,-131.65 1494.8,-138.19 1497.06,-131.56"/>
</g>
<!-- Node6 -->
<g id="node6" class="node">
<title>Node6</title>
<g id="a_node6"><a xlink:title=" ">
<polygon fill="white" stroke="#bfbfbf" points="1845,-504.5 1845,-523.5 1896,-523.5 1896,-504.5 1845,-504.5"/>
<text text-anchor="middle" x="1870.5" y="-511.5" font-family="Helvetica,sans-Serif" font-size="10.00">math.h</text>
</a>
</g>
</g>
<!-- Node1&#45;&gt;Node6 -->
<g id="edge5" class="edge">
<title>Node1&#45;&gt;Node6</title>
<path fill="none" stroke="midnightblue" d="M1795.72,-560.4C1811.29,-550.95 1831.7,-538.56 1847.26,-529.11"/>
<polygon fill="midnightblue" stroke="midnightblue" points="1849.51,-531.84 1856.24,-523.66 1845.88,-525.86 1849.51,-531.84"/>
</g>
<!-- Node7 -->
<g id="node7" class="node">
<title>Node7</title>
<g id="a_node7"><a xlink:title=" ">
<polygon fill="white" stroke="#bfbfbf" points="1914.5,-504.5 1914.5,-523.5 1986.5,-523.5 1986.5,-504.5 1914.5,-504.5"/>
<text text-anchor="middle" x="1950.5" y="-511.5" font-family="Helvetica,sans-Serif" font-size="10.00">sys/types.h</text>
</a>
</g>
</g>
<!-- Node1&#45;&gt;Node7 -->
<g id="edge6" class="edge">
<title>Node1&#45;&gt;Node7</title>
<path fill="none" stroke="midnightblue" d="M1814.68,-560.4C1845.31,-550.16 1886.27,-536.47 1915.17,-526.81"/>
<polygon fill="midnightblue" stroke="midnightblue" points="1916.48,-530.06 1924.86,-523.57 1914.27,-523.42 1916.48,-530.06"/>
</g>
<!-- Node8 -->
<g id="node8" class="node">
<title>Node8</title>
<g id="a_node8"><a xlink:title=" ">
<polygon fill="white" stroke="#bfbfbf" points="2004.5,-504.5 2004.5,-523.5 2068.5,-523.5 2068.5,-504.5 2004.5,-504.5"/>
<text text-anchor="middle" x="2036.5" y="-511.5" font-family="Helvetica,sans-Serif" font-size="10.00">sys/stat.h</text>
</a>
</g>
</g>
<!-- Node1&#45;&gt;Node8 -->
<g id="edge7" class="edge">
<title>Node1&#45;&gt;Node8</title>
<path fill="none" stroke="midnightblue" d="M1828.81,-561.81C1878.4,-550.63 1949.53,-534.6 1994.35,-524.5"/>
<polygon fill="midnightblue" stroke="midnightblue" points="1995.33,-527.87 2004.32,-522.25 1993.79,-521.04 1995.33,-527.87"/>
</g>
<!-- Node9 -->
<g id="node9" class="node">
<title>Node9</title>
<g id="a_node9"><a xlink:title=" ">
<polygon fill="white" stroke="#bfbfbf" points="2087,-504.5 2087,-523.5 2146,-523.5 2146,-504.5 2087,-504.5"/>
<text text-anchor="middle" x="2116.5" y="-511.5" font-family="Helvetica,sans-Serif" font-size="10.00">sys/ipc.h</text>
</a>
</g>
</g>
<!-- Node1&#45;&gt;Node9 -->
<g id="edge8" class="edge">
<title>Node1&#45;&gt;Node9</title>
<path fill="none" stroke="midnightblue" d="M1828.62,-566.29C1887.86,-557.38 1984.16,-542.2 2076.9,-524.01"/>
<polygon fill="midnightblue" stroke="midnightblue" points="2077.6,-527.44 2086.73,-522.07 2076.24,-520.58 2077.6,-527.44"/>
</g>
<!-- Node10 -->
<g id="node10" class="node">
<title>Node10</title>
<g id="a_node10"><a xlink:title=" ">
<polygon fill="white" stroke="#bfbfbf" points="2164.5,-504.5 2164.5,-523.5 2230.5,-523.5 2230.5,-504.5 2164.5,-504.5"/>
<text text-anchor="middle" x="2197.5" y="-511.5" font-family="Helvetica,sans-Serif" font-size="10.00">sys/sem.h</text>
</a>
</g>
</g>
<!-- Node1&#45;&gt;Node10 -->
<g id="edge9" class="edge">
<title>Node1&#45;&gt;Node10</title>
<path fill="none" stroke="midnightblue" d="M1828.53,-568.53C1901.29,-560.47 2032.42,-544.87 2153.86,-524.17"/>
<polygon fill="midnightblue" stroke="midnightblue" points="2154.81,-527.56 2164.08,-522.41 2153.63,-520.66 2154.81,-527.56"/>
</g>
<!-- Node11 -->
<g id="node11" class="node">
<title>Node11</title>
<g id="a_node11"><a xlink:href="utils_8h.html" target="_top" xlink:title=" ">
<polygon fill="white" stroke="black" points="1063,-168.5 1063,-187.5 1110,-187.5 1110,-168.5 1063,-168.5"/>
<text text-anchor="middle" x="1086.5" y="-175.5" font-family="Helvetica,sans-Serif" font-size="10.00">utils.h</text>
</a>
</g>
</g>
<!-- Node1&#45;&gt;Node11 -->
<g id="edge10" class="edge">
<title>Node1&#45;&gt;Node11</title>
<path fill="none" stroke="midnightblue" d="M1740.85,-560.4C1724.78,-551.86 1706.06,-539.6 1693.5,-524 1674.19,-500.01 1669.5,-489.8 1669.5,-459 1669.5,-459 1669.5,-459 1669.5,-289 1669.5,-232.7 1244.29,-192.34 1120.15,-181.75"/>
<polygon fill="midnightblue" stroke="midnightblue" points="1120.34,-178.25 1110.08,-180.9 1119.75,-185.23 1120.34,-178.25"/>
</g>
<!-- Node25 -->
<g id="node25" class="node">
<title>Node25</title>
<g id="a_node25"><a xlink:href="forcetree_8h.html" target="_top" xlink:title=" ">
<polygon fill="white" stroke="black" points="675.5,-392.5 675.5,-411.5 745.5,-411.5 745.5,-392.5 675.5,-392.5"/>
<text text-anchor="middle" x="710.5" y="-399.5" font-family="Helvetica,sans-Serif" font-size="10.00">forcetree.h</text>
</a>
</g>
</g>
<!-- Node1&#45;&gt;Node25 -->
<g id="edge36" class="edge">
<title>Node1&#45;&gt;Node25</title>
<path fill="none" stroke="midnightblue" d="M1716.15,-565.4C1528.31,-535.07 925.76,-437.76 755.62,-410.29"/>
<polygon fill="midnightblue" stroke="midnightblue" points="756.17,-406.83 745.74,-408.69 755.06,-413.74 756.17,-406.83"/>
</g>
<!-- Node35 -->
<g id="node35" class="node">
<title>Node35</title>
<g id="a_node35"><a xlink:href="treewalk_8h.html" target="_top" xlink:title=" ">
<polygon fill="white" stroke="black" points="613.5,-448.5 613.5,-467.5 681.5,-467.5 681.5,-448.5 613.5,-448.5"/>
<text text-anchor="middle" x="647.5" y="-455.5" font-family="Helvetica,sans-Serif" font-size="10.00">treewalk.h</text>
</a>
</g>
</g>
<!-- Node1&#45;&gt;Node35 -->
<g id="edge58" class="edge">
<title>Node1&#45;&gt;Node35</title>
<path fill="none" stroke="midnightblue" d="M1716.15,-573.99C1494.43,-571.73 692.28,-561 653.5,-524 641.35,-512.4 641.26,-492.45 643.33,-477.7"/>
<polygon fill="midnightblue" stroke="midnightblue" points="646.81,-478.13 645.18,-467.66 639.93,-476.86 646.81,-478.13"/>
</g>
<!-- Node36 -->
<g id="node36" class="node">
<title>Node36</title>
<g id="a_node36"><a xlink:href="timestep_8h.html" target="_top" xlink:title=" ">
<polygon fill="white" stroke="black" points="444,-280.5 444,-299.5 513,-299.5 513,-280.5 444,-280.5"/>
<text text-anchor="middle" x="478.5" y="-287.5" font-family="Helvetica,sans-Serif" font-size="10.00">timestep.h</text>
</a>
</g>
</g>
<!-- Node1&#45;&gt;Node36 -->
<g id="edge62" class="edge">
<title>Node1&#45;&gt;Node36</title>
<path fill="none" stroke="midnightblue" d="M1716.41,-574.81C1470.68,-575.58 497.7,-572 416.5,-468 377.15,-417.61 434.64,-340.38 463.57,-307.14"/>
<polygon fill="midnightblue" stroke="midnightblue" points="466.18,-309.47 470.23,-299.68 460.96,-304.81 466.18,-309.47"/>
</g>
<!-- Node39 -->
<g id="node39" class="node">
<title>Node39</title>
<g id="a_node39"><a xlink:href="gravshort_8h.html" target="_top" xlink:title=" ">
<polygon fill="white" stroke="black" points="662.5,-504.5 662.5,-523.5 734.5,-523.5 734.5,-504.5 662.5,-504.5"/>
<text text-anchor="middle" x="698.5" y="-511.5" font-family="Helvetica,sans-Serif" font-size="10.00">gravshort.h</text>
</a>
</g>
</g>
<!-- Node1&#45;&gt;Node39 -->
<g id="edge71" class="edge">
<title>Node1&#45;&gt;Node39</title>
<path fill="none" stroke="midnightblue" d="M1716.24,-574.26C1561.37,-573.07 1115.9,-565.95 748.5,-524 747.24,-523.86 745.97,-523.7 744.69,-523.53"/>
<polygon fill="midnightblue" stroke="midnightblue" points="745.14,-520.06 734.74,-522.09 744.13,-526.99 745.14,-520.06"/>
</g>
<!-- Node44 -->
<g id="node44" class="node">
<title>Node44</title>
<g id="a_node44"><a xlink:href="walltime_8h.html" target="_top" xlink:title=" ">
<polygon fill="white" stroke="black" points="2248.5,-504.5 2248.5,-523.5 2316.5,-523.5 2316.5,-504.5 2248.5,-504.5"/>
<text text-anchor="middle" x="2282.5" y="-511.5" font-family="Helvetica,sans-Serif" font-size="10.00">walltime.h</text>
</a>
</g>
</g>
<!-- Node1&#45;&gt;Node44 -->
<g id="edge84" class="edge">
<title>Node1&#45;&gt;Node44</title>
<path fill="none" stroke="midnightblue" d="M1828.81,-570.22C1914.91,-563.27 2084.61,-548.01 2238.2,-524.07"/>
<polygon fill="midnightblue" stroke="midnightblue" points="2238.96,-527.49 2248.29,-522.48 2237.87,-520.58 2238.96,-527.49"/>
</g>
<!-- Node5 -->
<g id="node5" class="node">
<title>Node5</title>
<g id="a_node5"><a xlink:title=" ">
<polygon fill="white" stroke="#bfbfbf" points="1133.5,-56.5 1133.5,-75.5 1189.5,-75.5 1189.5,-56.5 1133.5,-56.5"/>
<text text-anchor="middle" x="1161.5" y="-63.5" font-family="Helvetica,sans-Serif" font-size="10.00">stdarg.h</text>
</a>
</g>
</g>
<!-- Node4&#45;&gt;Node5 -->
<g id="edge4" class="edge">
<title>Node4&#45;&gt;Node5</title>
<path fill="none" stroke="midnightblue" d="M1433.97,-116.21C1380.87,-106.62 1261.37,-85.04 1199.79,-73.92"/>
<polygon fill="midnightblue" stroke="midnightblue" points="1200.17,-70.43 1189.71,-72.1 1198.93,-77.32 1200.17,-70.43"/>
</g>
<!-- Node11&#45;&gt;Node2 -->
<g id="edge14" class="edge">
<title>Node11&#45;&gt;Node2</title>
<path fill="none" stroke="midnightblue" d="M1110.05,-177.28C1200.2,-178.02 1522.73,-177.39 1612.5,-132 1633.35,-121.46 1649.92,-99.7 1659.71,-84.26"/>
<polygon fill="midnightblue" stroke="midnightblue" points="1662.75,-86 1664.9,-75.63 1656.75,-82.39 1662.75,-86"/>
</g>
<!-- Node11&#45;&gt;Node4 -->
<g id="edge31" class="edge">
<title>Node11&#45;&gt;Node4</title>
<path fill="none" stroke="midnightblue" d="M1110.02,-174.49C1164.6,-168.52 1304.04,-152.44 1419.5,-132 1420.79,-131.77 1422.1,-131.53 1423.43,-131.28"/>
<polygon fill="midnightblue" stroke="midnightblue" points="1424.54,-134.63 1433.66,-129.22 1423.16,-127.76 1424.54,-134.63"/>
</g>
<!-- Node12 -->
<g id="node12" class="node">
<title>Node12</title>
<g id="a_node12"><a xlink:title=" ">
<polygon fill="white" stroke="#bfbfbf" points="629.5,-56.5 629.5,-75.5 679.5,-75.5 679.5,-56.5 629.5,-56.5"/>
<text text-anchor="middle" x="654.5" y="-63.5" font-family="Helvetica,sans-Serif" font-size="10.00">stdio.h</text>
</a>
</g>
</g>
<!-- Node11&#45;&gt;Node12 -->
<g id="edge11" class="edge">
<title>Node11&#45;&gt;Node12</title>
<path fill="none" stroke="midnightblue" d="M1062.81,-172.36C1024.64,-164.75 947.27,-148.79 882.5,-132 852.42,-124.2 845.35,-120.63 815.5,-112 772.23,-99.49 722.25,-85.61 689.6,-76.62"/>
<polygon fill="midnightblue" stroke="midnightblue" points="690.21,-73.16 679.64,-73.88 688.35,-79.91 690.21,-73.16"/>
</g>
<!-- Node13 -->
<g id="node13" class="node">
<title>Node13</title>
<g id="a_node13"><a xlink:title=" ">
<polygon fill="white" stroke="#bfbfbf" points="533,-56.5 533,-75.5 586,-75.5 586,-56.5 533,-56.5"/>
<text text-anchor="middle" x="559.5" y="-63.5" font-family="Helvetica,sans-Serif" font-size="10.00">stdint.h</text>
</a>
</g>
</g>
<!-- Node11&#45;&gt;Node13 -->
<g id="edge12" class="edge">
<title>Node11&#45;&gt;Node13</title>
<path fill="none" stroke="midnightblue" d="M1062.72,-174.23C1005.41,-167.35 861.01,-148.85 815.5,-132 799.42,-126.04 798.48,-118.23 782.5,-112 748.97,-98.92 650.16,-81.66 596.01,-72.79"/>
<polygon fill="midnightblue" stroke="midnightblue" points="596.56,-69.34 586.12,-71.19 595.43,-76.25 596.56,-69.34"/>
</g>
<!-- Node14 -->
<g id="node14" class="node">
<title>Node14</title>
<g id="a_node14"><a xlink:title=" ">
<polygon fill="white" stroke="#bfbfbf" points="787.5,-0.5 787.5,-19.5 843.5,-19.5 843.5,-0.5 787.5,-0.5"/>
<text text-anchor="middle" x="815.5" y="-7.5" font-family="Helvetica,sans-Serif" font-size="10.00">stddef.h</text>
</a>
</g>
</g>
<!-- Node11&#45;&gt;Node14 -->
<g id="edge13" class="edge">
<title>Node11&#45;&gt;Node14</title>
<path fill="none" stroke="midnightblue" d="M1110.26,-176.64C1168.76,-175.18 1317.21,-167.96 1347.5,-132 1353.23,-125.2 1352.56,-119.31 1347.5,-112 1291.05,-30.48 966.41,-14.73 853.89,-11.71"/>
<polygon fill="midnightblue" stroke="midnightblue" points="853.76,-8.2 843.68,-11.45 853.59,-15.2 853.76,-8.2"/>
</g>
<!-- Node15 -->
<g id="node15" class="node">
<title>Node15</title>
<g id="a_node15"><a xlink:href="peano_8h.html" target="_top" xlink:title=" ">
<polygon fill="white" stroke="black" points="693.5,-112.5 693.5,-131.5 773.5,-131.5 773.5,-112.5 693.5,-112.5"/>
<text text-anchor="middle" x="733.5" y="-119.5" font-family="Helvetica,sans-Serif" font-size="10.00">utils/peano.h</text>
</a>
</g>
</g>
<!-- Node11&#45;&gt;Node15 -->
<g id="edge15" class="edge">
<title>Node11&#45;&gt;Node15</title>
<path fill="none" stroke="midnightblue" d="M1062.84,-173.57C1012.26,-166.2 889.9,-148.24 787.5,-132 786.23,-131.8 784.95,-131.59 783.65,-131.39"/>
<polygon fill="midnightblue" stroke="midnightblue" points="784.02,-127.9 773.59,-129.75 782.9,-134.81 784.02,-127.9"/>
</g>
<!-- Node16 -->
<g id="node16" class="node">
<title>Node16</title>
<g id="a_node16"><a xlink:href="memory_8h.html" target="_top" xlink:title=" ">
<polygon fill="white" stroke="black" points="1396,-56.5 1396,-75.5 1485,-75.5 1485,-56.5 1396,-56.5"/>
<text text-anchor="middle" x="1440.5" y="-63.5" font-family="Helvetica,sans-Serif" font-size="10.00">utils/memory.h</text>
</a>
</g>
</g>
<!-- Node11&#45;&gt;Node16 -->
<g id="edge18" class="edge">
<title>Node11&#45;&gt;Node16</title>
<path fill="none" stroke="midnightblue" d="M1110.04,-175.44C1171.33,-171.06 1334.37,-157.3 1381.5,-132 1402.18,-120.9 1419.34,-99.63 1429.72,-84.44"/>
<polygon fill="midnightblue" stroke="midnightblue" points="1432.75,-86.2 1435.28,-75.92 1426.89,-82.38 1432.75,-86.2"/>
</g>
<!-- Node17 -->
<g id="node17" class="node">
<title>Node17</title>
<g id="a_node17"><a xlink:href="mymalloc_8h.html" target="_top" xlink:title=" ">
<polygon fill="white" stroke="black" points="1505.5,-112.5 1505.5,-131.5 1603.5,-131.5 1603.5,-112.5 1505.5,-112.5"/>
<text text-anchor="middle" x="1554.5" y="-119.5" font-family="Helvetica,sans-Serif" font-size="10.00">utils/mymalloc.h</text>
</a>
</g>
</g>
<!-- Node11&#45;&gt;Node17 -->
<g id="edge20" class="edge">
<title>Node11&#45;&gt;Node17</title>
<path fill="none" stroke="midnightblue" d="M1110.06,-174.76C1171.47,-168.83 1341.71,-151.94 1495.18,-131.99"/>
<polygon fill="midnightblue" stroke="midnightblue" points="1495.8,-135.43 1505.27,-130.67 1494.9,-128.49 1495.8,-135.43"/>
</g>
<!-- Node18 -->
<g id="node18" class="node">
<title>Node18</title>
<g id="a_node18"><a xlink:href="paramset_8h.html" target="_top" xlink:title=" ">
<polygon fill="white" stroke="black" points="579.5,-112.5 579.5,-131.5 675.5,-131.5 675.5,-112.5 579.5,-112.5"/>
<text text-anchor="middle" x="627.5" y="-119.5" font-family="Helvetica,sans-Serif" font-size="10.00">utils/paramset.h</text>
</a>
</g>
</g>
<!-- Node11&#45;&gt;Node18 -->
<g id="edge22" class="edge">
<title>Node11&#45;&gt;Node18</title>
<path fill="none" stroke="midnightblue" d="M1062.89,-174.73C1002.2,-168.83 835.58,-152.11 685.96,-132.14"/>
<polygon fill="midnightblue" stroke="midnightblue" points="686.06,-128.63 675.68,-130.76 685.12,-135.56 686.06,-128.63"/>
</g>
<!-- Node19 -->
<g id="node19" class="node">
<title>Node19</title>
<g id="a_node19"><a xlink:href="event_8h.html" target="_top" xlink:title=" ">
<polygon fill="white" stroke="black" points="1048,-112.5 1048,-131.5 1125,-131.5 1125,-112.5 1048,-112.5"/>
<text text-anchor="middle" x="1086.5" y="-119.5" font-family="Helvetica,sans-Serif" font-size="10.00">utils/event.h</text>
</a>
</g>
</g>
<!-- Node11&#45;&gt;Node19 -->
<g id="edge24" class="edge">
<title>Node11&#45;&gt;Node19</title>
<path fill="none" stroke="midnightblue" d="M1086.5,-168.08C1086.5,-161.01 1086.5,-150.86 1086.5,-141.99"/>
<polygon fill="midnightblue" stroke="midnightblue" points="1090,-141.75 1086.5,-131.75 1083,-141.75 1090,-141.75"/>
</g>
<!-- Node20 -->
<g id="node20" class="node">
<title>Node20</title>
<g id="a_node20"><a xlink:href="openmpsort_8h.html" target="_top" xlink:title=" ">
<polygon fill="white" stroke="black" points="761.5,-56.5 761.5,-75.5 869.5,-75.5 869.5,-56.5 761.5,-56.5"/>
<text text-anchor="middle" x="815.5" y="-63.5" font-family="Helvetica,sans-Serif" font-size="10.00">utils/openmpsort.h</text>
</a>
</g>
</g>
<!-- Node11&#45;&gt;Node20 -->
<g id="edge25" class="edge">
<title>Node11&#45;&gt;Node20</title>
<path fill="none" stroke="midnightblue" d="M1063,-172.7C1030.52,-166.28 970.49,-152.68 922.5,-132 890.33,-118.14 856.26,-95.97 835.43,-81.45"/>
<polygon fill="midnightblue" stroke="midnightblue" points="837.29,-78.47 827.1,-75.55 833.25,-84.19 837.29,-78.47"/>
</g>
<!-- Node21 -->
<g id="node21" class="node">
<title>Node21</title>
<g id="a_node21"><a xlink:href="system_8h.html" target="_top" xlink:title=" ">
<polygon fill="white" stroke="black" points="943.5,-112.5 943.5,-131.5 1029.5,-131.5 1029.5,-112.5 943.5,-112.5"/>
<text text-anchor="middle" x="986.5" y="-119.5" font-family="Helvetica,sans-Serif" font-size="10.00">utils/system.h</text>
</a>
</g>
</g>
<!-- Node11&#45;&gt;Node21 -->
<g id="edge27" class="edge">
<title>Node11&#45;&gt;Node21</title>
<path fill="none" stroke="midnightblue" d="M1070.43,-168.32C1054.54,-159.74 1029.99,-146.49 1011.54,-136.52"/>
<polygon fill="midnightblue" stroke="midnightblue" points="1012.99,-133.33 1002.53,-131.65 1009.66,-139.49 1012.99,-133.33"/>
</g>
<!-- Node22 -->
<g id="node22" class="node">
<title>Node22</title>
<g id="a_node22"><a xlink:href="endrun_8h.html" target="_top" xlink:title=" ">
<polygon fill="white" stroke="black" points="1143,-112.5 1143,-131.5 1226,-131.5 1226,-112.5 1143,-112.5"/>
<text text-anchor="middle" x="1184.5" y="-119.5" font-family="Helvetica,sans-Serif" font-size="10.00">utils/endrun.h</text>
</a>
</g>
</g>
<!-- Node11&#45;&gt;Node22 -->
<g id="edge32" class="edge">
<title>Node11&#45;&gt;Node22</title>
<path fill="none" stroke="midnightblue" d="M1102.25,-168.32C1117.82,-159.74 1141.88,-146.49 1159.96,-136.52"/>
<polygon fill="midnightblue" stroke="midnightblue" points="1161.72,-139.55 1168.79,-131.65 1158.35,-133.42 1161.72,-139.55"/>
</g>
<!-- Node23 -->
<g id="node23" class="node">
<title>Node23</title>
<g id="a_node23"><a xlink:href="interp_8h.html" target="_top" xlink:title=" ">
<polygon fill="white" stroke="black" points="887.5,-56.5 887.5,-75.5 965.5,-75.5 965.5,-56.5 887.5,-56.5"/>
<text text-anchor="middle" x="926.5" y="-63.5" font-family="Helvetica,sans-Serif" font-size="10.00">utils/interp.h</text>
</a>
</g>
</g>
<!-- Node11&#45;&gt;Node23 -->
<g id="edge33" class="edge">
<title>Node11&#45;&gt;Node23</title>
<path fill="none" stroke="midnightblue" d="M1062.95,-173.23C1024.57,-166.6 951.13,-151.64 934.5,-132 923.83,-119.4 922.69,-100.19 923.7,-85.91"/>
<polygon fill="midnightblue" stroke="midnightblue" points="927.21,-86.07 924.83,-75.74 920.25,-85.3 927.21,-86.07"/>
</g>
<!-- Node24 -->
<g id="node24" class="node">
<title>Node24</title>
<g id="a_node24"><a xlink:href="spinlocks_8h.html" target="_top" xlink:title=" ">
<polygon fill="white" stroke="black" points="1244,-112.5 1244,-131.5 1339,-131.5 1339,-112.5 1244,-112.5"/>
<text text-anchor="middle" x="1291.5" y="-119.5" font-family="Helvetica,sans-Serif" font-size="10.00">utils/spinlocks.h</text>
</a>
</g>
</g>
<!-- Node11&#45;&gt;Node24 -->
<g id="edge35" class="edge">
<title>Node11&#45;&gt;Node24</title>
<path fill="none" stroke="midnightblue" d="M1110.02,-170.81C1144,-161.85 1207.36,-145.16 1249.49,-134.07"/>
<polygon fill="midnightblue" stroke="midnightblue" points="1250.41,-137.44 1259.19,-131.51 1248.63,-130.67 1250.41,-137.44"/>
</g>
<!-- Node15&#45;&gt;Node13 -->
<g id="edge17" class="edge">
<title>Node15&#45;&gt;Node13</title>
<path fill="none" stroke="midnightblue" d="M705.93,-112.44C676.14,-103.2 628.55,-88.43 595.75,-78.25"/>
<polygon fill="midnightblue" stroke="midnightblue" points="596.67,-74.87 586.09,-75.25 594.6,-81.56 596.67,-74.87"/>
</g>
<!-- Node15&#45;&gt;Node14 -->
<g id="edge16" class="edge">
<title>Node15&#45;&gt;Node14</title>
<path fill="none" stroke="midnightblue" d="M734.24,-112.22C735.73,-98.94 740.11,-73.45 752.5,-56 761.77,-42.95 776.05,-32.3 788.67,-24.65"/>
<polygon fill="midnightblue" stroke="midnightblue" points="790.53,-27.61 797.47,-19.61 787.05,-21.54 790.53,-27.61"/>
</g>
<!-- Node16&#45;&gt;Node14 -->
<g id="edge19" class="edge">
<title>Node16&#45;&gt;Node14</title>
<path fill="none" stroke="midnightblue" d="M1395.77,-57.83C1390.96,-57.16 1386.13,-56.54 1381.5,-56 1183.47,-33.05 945.08,-18.28 853.7,-13.08"/>
<polygon fill="midnightblue" stroke="midnightblue" points="853.72,-9.58 843.54,-12.51 853.33,-16.57 853.72,-9.58"/>
</g>
<!-- Node17&#45;&gt;Node16 -->
<g id="edge21" class="edge">
<title>Node17&#45;&gt;Node16</title>
<path fill="none" stroke="midnightblue" d="M1536.44,-112.44C1517.93,-103.68 1488.92,-89.94 1467.64,-79.86"/>
<polygon fill="midnightblue" stroke="midnightblue" points="1469.01,-76.63 1458.48,-75.52 1466.02,-82.96 1469.01,-76.63"/>
</g>
<!-- Node18&#45;&gt;Node12 -->
<g id="edge23" class="edge">
<title>Node18&#45;&gt;Node12</title>
<path fill="none" stroke="midnightblue" d="M631.96,-112.08C635.65,-104.69 641.02,-93.95 645.59,-84.81"/>
<polygon fill="midnightblue" stroke="midnightblue" points="648.78,-86.26 650.12,-75.75 642.52,-83.13 648.78,-86.26"/>
</g>
<!-- Node20&#45;&gt;Node14 -->
<g id="edge26" class="edge">
<title>Node20&#45;&gt;Node14</title>
<path fill="none" stroke="midnightblue" d="M815.5,-56.08C815.5,-49.01 815.5,-38.86 815.5,-29.99"/>
<polygon fill="midnightblue" stroke="midnightblue" points="819,-29.75 815.5,-19.75 812,-29.75 819,-29.75"/>
</g>
<!-- Node21&#45;&gt;Node2 -->
<g id="edge29" class="edge">
<title>Node21&#45;&gt;Node2</title>
<path fill="none" stroke="midnightblue" d="M1029.58,-113.2C1032.59,-112.76 1035.59,-112.35 1038.5,-112 1156.4,-97.63 1525.53,-75.42 1637.18,-68.87"/>
<polygon fill="midnightblue" stroke="midnightblue" points="1637.68,-72.35 1647.46,-68.27 1637.28,-65.36 1637.68,-72.35"/>
</g>
<!-- Node21&#45;&gt;Node5 -->
<g id="edge30" class="edge">
<title>Node21&#45;&gt;Node5</title>
<path fill="none" stroke="midnightblue" d="M1014.23,-112.44C1043.93,-103.28 1091.22,-88.69 1124.17,-78.52"/>
<polygon fill="midnightblue" stroke="midnightblue" points="1125.38,-81.81 1133.9,-75.52 1123.31,-75.12 1125.38,-81.81"/>
</g>
<!-- Node21&#45;&gt;Node13 -->
<g id="edge28" class="edge">
<title>Node21&#45;&gt;Node13</title>
<path fill="none" stroke="midnightblue" d="M943.35,-116.04C874.86,-108.08 737.08,-91.76 620.5,-76 612.68,-74.94 604.31,-73.75 596.35,-72.58"/>
<polygon fill="midnightblue" stroke="midnightblue" points="596.61,-69.08 586.2,-71.08 595.58,-76.01 596.61,-69.08"/>
</g>
<!-- Node23&#45;&gt;Node14 -->
<g id="edge34" class="edge">
<title>Node23&#45;&gt;Node14</title>
<path fill="none" stroke="midnightblue" d="M908.67,-56.32C890.78,-47.62 863.02,-34.12 842.45,-24.11"/>
<polygon fill="midnightblue" stroke="midnightblue" points="843.81,-20.88 833.29,-19.65 840.75,-27.18 843.81,-20.88"/>
</g>
<!-- Node26 -->
<g id="node26" class="node">
<title>Node26</title>
<g id="a_node26"><a xlink:href="types_8h.html" target="_top" xlink:title=" ">
<polygon fill="white" stroke="black" points="508,-112.5 508,-131.5 561,-131.5 561,-112.5 508,-112.5"/>
<text text-anchor="middle" x="534.5" y="-119.5" font-family="Helvetica,sans-Serif" font-size="10.00">types.h</text>
</a>
</g>
</g>
<!-- Node25&#45;&gt;Node26 -->
<g id="edge37" class="edge">
<title>Node25&#45;&gt;Node26</title>
<path fill="none" stroke="midnightblue" d="M707.95,-392.07C698.21,-359.2 660.72,-242.89 597.5,-168 586.9,-155.44 572.04,-144.61 559.42,-136.72"/>
<polygon fill="midnightblue" stroke="midnightblue" points="561.1,-133.64 550.72,-131.52 557.51,-139.65 561.1,-133.64"/>
</g>
<!-- Node27 -->
<g id="node27" class="node">
<title>Node27</title>
<g id="a_node27"><a xlink:href="domain_8h.html" target="_top" xlink:title=" ">
<polygon fill="white" stroke="black" points="917.5,-336.5 917.5,-355.5 979.5,-355.5 979.5,-336.5 917.5,-336.5"/>
<text text-anchor="middle" x="948.5" y="-343.5" font-family="Helvetica,sans-Serif" font-size="10.00">domain.h</text>
</a>
</g>
</g>
<!-- Node25&#45;&gt;Node27 -->
<g id="edge39" class="edge">
<title>Node25&#45;&gt;Node27</title>
<path fill="none" stroke="midnightblue" d="M745.62,-393.03C788.77,-383.24 861.88,-366.65 907.55,-356.29"/>
<polygon fill="midnightblue" stroke="midnightblue" points="908.43,-359.68 917.41,-354.05 906.89,-352.85 908.43,-359.68"/>
</g>
<!-- Node26&#45;&gt;Node13 -->
<g id="edge38" class="edge">
<title>Node26&#45;&gt;Node13</title>
<path fill="none" stroke="midnightblue" d="M538.63,-112.08C542.01,-104.77 546.92,-94.18 551.12,-85.1"/>
<polygon fill="midnightblue" stroke="midnightblue" points="554.42,-86.3 555.45,-75.75 548.07,-83.36 554.42,-86.3"/>
</g>
<!-- Node27&#45;&gt;Node2 -->
<g id="edge40" class="edge">
<title>Node27&#45;&gt;Node2</title>
<path fill="none" stroke="midnightblue" d="M979.68,-338.29C1067.77,-318.97 1325.5,-259.99 1532.5,-188 1591.92,-167.34 1625.15,-182.62 1662.5,-132 1672.28,-118.74 1673.22,-99.61 1672.2,-85.54"/>
<polygon fill="midnightblue" stroke="midnightblue" points="1675.67,-85.1 1671.09,-75.54 1668.72,-85.87 1675.67,-85.1"/>
</g>
<!-- Node27&#45;&gt;Node15 -->
<g id="edge41" class="edge">
<title>Node27&#45;&gt;Node15</title>
<path fill="none" stroke="midnightblue" d="M952.89,-336.38C966.47,-308.4 1004.43,-218.93 962.5,-168 937.78,-137.97 834.47,-139.68 783.72,-132.69"/>
<polygon fill="midnightblue" stroke="midnightblue" points="784.17,-129.22 773.73,-131.06 783.04,-136.13 784.17,-129.22"/>
</g>
<!-- Node27&#45;&gt;Node18 -->
<g id="edge42" class="edge">
<title>Node27&#45;&gt;Node18</title>
<path fill="none" stroke="midnightblue" d="M948.85,-336.27C949.32,-315.6 948.45,-262.55 929.5,-224 914.38,-193.25 906.64,-184.3 876.5,-168 868.12,-163.47 756.77,-144.42 685.84,-132.6"/>
<polygon fill="midnightblue" stroke="midnightblue" points="686.12,-129.1 675.69,-130.91 684.98,-136.01 686.12,-129.1"/>
</g>
<!-- Node28 -->
<g id="node28" class="node">
<title>Node28</title>
<g id="a_node28"><a xlink:href="drift_8h.html" target="_top" xlink:title=" ">
<polygon fill="white" stroke="black" points="727,-280.5 727,-299.5 772,-299.5 772,-280.5 727,-280.5"/>
<text text-anchor="middle" x="749.5" y="-287.5" font-family="Helvetica,sans-Serif" font-size="10.00">drift.h</text>
</a>
</g>
</g>
<!-- Node27&#45;&gt;Node28 -->
<g id="edge43" class="edge">
<title>Node27&#45;&gt;Node28</title>
<path fill="none" stroke="midnightblue" d="M917.41,-336.56C880.54,-326.56 819.38,-309.96 781.93,-299.8"/>
<polygon fill="midnightblue" stroke="midnightblue" points="782.61,-296.36 772.04,-297.12 780.77,-303.11 782.61,-296.36"/>
</g>
<!-- Node28&#45;&gt;Node26 -->
<g id="edge49" class="edge">
<title>Node28&#45;&gt;Node26</title>
<path fill="none" stroke="midnightblue" d="M742.84,-280.35C726,-258.95 679.56,-202.73 630.5,-168 611.31,-154.41 587.37,-143.18 568.2,-135.34"/>
<polygon fill="midnightblue" stroke="midnightblue" points="569.24,-131.99 558.66,-131.55 566.66,-138.49 569.24,-131.99"/>
</g>
<!-- Node29 -->
<g id="node29" class="node">
<title>Node29</title>
<g id="a_node29"><a xlink:href="cosmology_8h.html" target="_top" xlink:title=" ">
<polygon fill="white" stroke="black" points="373,-168.5 373,-187.5 450,-187.5 450,-168.5 373,-168.5"/>
<text text-anchor="middle" x="411.5" y="-175.5" font-family="Helvetica,sans-Serif" font-size="10.00">cosmology.h</text>
</a>
</g>
</g>
<!-- Node28&#45;&gt;Node29 -->
<g id="edge44" class="edge">
<title>Node28&#45;&gt;Node29</title>
<path fill="none" stroke="midnightblue" d="M726.82,-288.59C662.82,-287.02 482.55,-279.45 437.5,-244 423.34,-232.86 416.86,-212.83 413.92,-197.94"/>
<polygon fill="midnightblue" stroke="midnightblue" points="417.33,-197.1 412.28,-187.79 410.42,-198.22 417.33,-197.1"/>
</g>
<!-- Node33 -->
<g id="node33" class="node">
<title>Node33</title>
<g id="a_node33"><a xlink:href="partmanager_8h.html" target="_top" xlink:title=" ">
<polygon fill="white" stroke="black" points="758.5,-168.5 758.5,-187.5 846.5,-187.5 846.5,-168.5 758.5,-168.5"/>
<text text-anchor="middle" x="802.5" y="-175.5" font-family="Helvetica,sans-Serif" font-size="10.00">partmanager.h</text>
</a>
</g>
</g>
<!-- Node28&#45;&gt;Node33 -->
<g id="edge50" class="edge">
<title>Node28&#45;&gt;Node33</title>
<path fill="none" stroke="midnightblue" d="M753.66,-280.37C762.33,-262.38 782.48,-220.55 794.01,-196.63"/>
<polygon fill="midnightblue" stroke="midnightblue" points="797.17,-198.12 798.36,-187.59 790.87,-195.08 797.17,-198.12"/>
</g>
<!-- Node34 -->
<g id="node34" class="node">
<title>Node34</title>
<g id="a_node34"><a xlink:href="slotsmanager_8h.html" target="_top" xlink:title=" ">
<polygon fill="white" stroke="black" points="828.5,-224.5 828.5,-243.5 920.5,-243.5 920.5,-224.5 828.5,-224.5"/>
<text text-anchor="middle" x="874.5" y="-231.5" font-family="Helvetica,sans-Serif" font-size="10.00">slotsmanager.h</text>
</a>
</g>
</g>
<!-- Node28&#45;&gt;Node34 -->
<g id="edge53" class="edge">
<title>Node28&#45;&gt;Node34</title>
<path fill="none" stroke="midnightblue" d="M769.31,-280.44C789.79,-271.6 821.98,-257.69 845.36,-247.59"/>
<polygon fill="midnightblue" stroke="midnightblue" points="846.99,-250.7 854.79,-243.52 844.22,-244.27 846.99,-250.7"/>
</g>
<!-- Node29&#45;&gt;Node14 -->
<g id="edge45" class="edge">
<title>Node29&#45;&gt;Node14</title>
<path fill="none" stroke="midnightblue" d="M400.62,-168.24C386.03,-155.41 363.41,-131 376.5,-112 422.26,-45.6 679.2,-20.63 777.37,-13.44"/>
<polygon fill="midnightblue" stroke="midnightblue" points="777.72,-16.92 787.45,-12.72 777.23,-9.94 777.72,-16.92"/>
</g>
<!-- Node30 -->
<g id="node30" class="node">
<title>Node30</title>
<g id="a_node30"><a xlink:href="omega__nu__single_8h.html" target="_top" xlink:title=" ">
<polygon fill="white" stroke="black" points="180,-112.5 180,-131.5 291,-131.5 291,-112.5 180,-112.5"/>
<text text-anchor="middle" x="235.5" y="-119.5" font-family="Helvetica,sans-Serif" font-size="10.00">omega_nu_single.h</text>
</a>
</g>
</g>
<!-- Node29&#45;&gt;Node30 -->
<g id="edge46" class="edge">
<title>Node29&#45;&gt;Node30</title>
<path fill="none" stroke="midnightblue" d="M383.61,-168.44C353.75,-159.28 306.19,-144.69 273.04,-134.52"/>
<polygon fill="midnightblue" stroke="midnightblue" points="273.84,-131.1 263.26,-131.52 271.79,-137.8 273.84,-131.1"/>
</g>
<!-- Node32 -->
<g id="node32" class="node">
<title>Node32</title>
<g id="a_node32"><a xlink:href="unitsystem_8h.html" target="_top" xlink:title=" ">
<polygon fill="white" stroke="black" points="385.5,-112.5 385.5,-131.5 489.5,-131.5 489.5,-112.5 385.5,-112.5"/>
<text text-anchor="middle" x="437.5" y="-119.5" font-family="Helvetica,sans-Serif" font-size="10.00">utils/unitsystem.h</text>
</a>
</g>
</g>
<!-- Node29&#45;&gt;Node32 -->
<g id="edge48" class="edge">
<title>Node29&#45;&gt;Node32</title>
<path fill="none" stroke="midnightblue" d="M415.79,-168.08C419.35,-160.69 424.52,-149.95 428.92,-140.81"/>
<polygon fill="midnightblue" stroke="midnightblue" points="432.1,-142.28 433.29,-131.75 425.79,-139.24 432.1,-142.28"/>
</g>
<!-- Node31 -->
<g id="node31" class="node">
<title>Node31</title>
<g id="a_node31"><a xlink:title=" ">
<polygon fill="white" stroke="#bfbfbf" points="135,-56.5 135,-75.5 226,-75.5 226,-56.5 135,-56.5"/>
<text text-anchor="middle" x="180.5" y="-63.5" font-family="Helvetica,sans-Serif" font-size="10.00">gsl/gsl_interp.h</text>
</a>
</g>
</g>
<!-- Node30&#45;&gt;Node31 -->
<g id="edge47" class="edge">
<title>Node30&#45;&gt;Node31</title>
<path fill="none" stroke="midnightblue" d="M226.42,-112.08C218.33,-104.14 206.3,-92.34 196.59,-82.8"/>
<polygon fill="midnightblue" stroke="midnightblue" points="199,-80.26 189.41,-75.75 194.1,-85.25 199,-80.26"/>
</g>
<!-- Node33&#45;&gt;Node15 -->
<g id="edge52" class="edge">
<title>Node33&#45;&gt;Node15</title>
<path fill="none" stroke="midnightblue" d="M791.41,-168.32C781.01,-160.18 765.24,-147.84 752.78,-138.09"/>
<polygon fill="midnightblue" stroke="midnightblue" points="754.82,-135.24 744.79,-131.83 750.51,-140.75 754.82,-135.24"/>
</g>
<!-- Node33&#45;&gt;Node26 -->
<g id="edge51" class="edge">
<title>Node33&#45;&gt;Node26</title>
<path fill="none" stroke="midnightblue" d="M758.31,-169.15C713.63,-161.06 642.35,-147.71 571.23,-132.07"/>
<polygon fill="midnightblue" stroke="midnightblue" points="571.72,-128.59 561.2,-129.84 570.21,-135.42 571.72,-128.59"/>
</g>
<!-- Node34&#45;&gt;Node2 -->
<g id="edge54" class="edge">
<title>Node34&#45;&gt;Node2</title>
<path fill="none" stroke="midnightblue" d="M920.71,-232.59C1068.12,-230.44 1524.22,-216.91 1639.5,-132 1654.48,-120.97 1662.2,-100.62 1666.02,-85.62"/>
<polygon fill="midnightblue" stroke="midnightblue" points="1669.44,-86.37 1668.17,-75.85 1662.61,-84.86 1669.44,-86.37"/>
</g>
<!-- Node34&#45;&gt;Node11 -->
<g id="edge55" class="edge">
<title>Node34&#45;&gt;Node11</title>
<path fill="none" stroke="midnightblue" d="M908.09,-224.44C947.83,-214.32 1013.58,-197.57 1053.19,-187.48"/>
<polygon fill="midnightblue" stroke="midnightblue" points="1054.08,-190.87 1062.91,-185.01 1052.36,-184.09 1054.08,-190.87"/>
</g>
<!-- Node34&#45;&gt;Node26 -->
<g id="edge56" class="edge">
<title>Node34&#45;&gt;Node26</title>
<path fill="none" stroke="midnightblue" d="M874.75,-224.26C874.63,-210.07 872.14,-182.19 855.5,-168 809.11,-128.44 648.6,-142.34 571.47,-131.71"/>
<polygon fill="midnightblue" stroke="midnightblue" points="571.59,-128.19 561.16,-130.04 570.47,-135.1 571.59,-128.19"/>
</g>
<!-- Node34&#45;&gt;Node33 -->
<g id="edge57" class="edge">
<title>Node34&#45;&gt;Node33</title>
<path fill="none" stroke="midnightblue" d="M862.93,-224.32C852.08,-216.18 835.62,-203.84 822.62,-194.09"/>
<polygon fill="midnightblue" stroke="midnightblue" points="824.38,-191.03 814.28,-187.83 820.18,-196.63 824.38,-191.03"/>
</g>
<!-- Node35&#45;&gt;Node13 -->
<g id="edge59" class="edge">
<title>Node35&#45;&gt;Node13</title>
<path fill="none" stroke="midnightblue" d="M629.17,-448.34C572.86,-420.45 403.73,-326.59 363.5,-188 356.76,-164.78 376.47,-112.03 376.5,-112 396.69,-91.54 475.38,-77.97 522.75,-71.47"/>
<polygon fill="midnightblue" stroke="midnightblue" points="523.47,-74.9 532.92,-70.11 522.55,-67.96 523.47,-74.9"/>
</g>
<!-- Node35&#45;&gt;Node18 -->
<g id="edge60" class="edge">
<title>Node35&#45;&gt;Node18</title>
<path fill="none" stroke="midnightblue" d="M646.99,-448.41C644.35,-404.47 632.38,-204.57 628.63,-141.87"/>
<polygon fill="midnightblue" stroke="midnightblue" points="632.1,-141.31 628.01,-131.54 625.12,-141.73 632.1,-141.31"/>
</g>
<!-- Node35&#45;&gt;Node25 -->
<g id="edge61" class="edge">
<title>Node35&#45;&gt;Node25</title>
<path fill="none" stroke="midnightblue" d="M657.62,-448.32C667.03,-440.26 681.24,-428.08 692.57,-418.37"/>
<polygon fill="midnightblue" stroke="midnightblue" points="694.88,-421 700.19,-411.83 690.32,-415.68 694.88,-421"/>
</g>
<!-- Node36&#45;&gt;Node18 -->
<g id="edge63" class="edge">
<title>Node36&#45;&gt;Node18</title>
<path fill="none" stroke="midnightblue" d="M492.56,-280.42C517.02,-264.84 567.66,-229.62 597.5,-188 607.9,-173.49 616.07,-154.81 621.24,-141.2"/>
<polygon fill="midnightblue" stroke="midnightblue" points="624.62,-142.14 624.73,-131.55 618.04,-139.76 624.62,-142.14"/>
</g>
<!-- Node37 -->
<g id="node37" class="node">
<title>Node37</title>
<g id="a_node37"><a xlink:href="timebinmgr_8h.html" target="_top" xlink:title=" ">
<polygon fill="white" stroke="black" points="506.5,-168.5 506.5,-187.5 588.5,-187.5 588.5,-168.5 506.5,-168.5"/>
<text text-anchor="middle" x="547.5" y="-175.5" font-family="Helvetica,sans-Serif" font-size="10.00">timebinmgr.h</text>
</a>
</g>
</g>
<!-- Node36&#45;&gt;Node37 -->
<g id="edge64" class="edge">
<title>Node36&#45;&gt;Node37</title>
<path fill="none" stroke="midnightblue" d="M487.66,-280.37C496.41,-271.77 509.54,-257.88 518.5,-244 528.02,-229.25 535.9,-210.86 541.03,-197.41"/>
<polygon fill="midnightblue" stroke="midnightblue" points="544.38,-198.44 544.54,-187.84 537.81,-196.03 544.38,-198.44"/>
</g>
<!-- Node38 -->
<g id="node38" class="node">
<title>Node38</title>
<g id="a_node38"><a xlink:href="timefac_8h.html" target="_top" xlink:title=" ">
<polygon fill="white" stroke="black" points="447,-224.5 447,-243.5 510,-243.5 510,-224.5 447,-224.5"/>
<text text-anchor="middle" x="478.5" y="-231.5" font-family="Helvetica,sans-Serif" font-size="10.00">timefac.h</text>
</a>
</g>
</g>
<!-- Node36&#45;&gt;Node38 -->
<g id="edge67" class="edge">
<title>Node36&#45;&gt;Node38</title>
<path fill="none" stroke="midnightblue" d="M478.5,-280.08C478.5,-273.01 478.5,-262.86 478.5,-253.99"/>
<polygon fill="midnightblue" stroke="midnightblue" points="482,-253.75 478.5,-243.75 475,-253.75 482,-253.75"/>
</g>
<!-- Node37&#45;&gt;Node18 -->
<g id="edge66" class="edge">
<title>Node37&#45;&gt;Node18</title>
<path fill="none" stroke="midnightblue" d="M560.35,-168.32C572.72,-159.98 591.63,-147.21 606.24,-137.35"/>
<polygon fill="midnightblue" stroke="midnightblue" points="608.35,-140.15 614.68,-131.65 604.43,-134.35 608.35,-140.15"/>
</g>
<!-- Node37&#45;&gt;Node26 -->
<g id="edge65" class="edge">
<title>Node37&#45;&gt;Node26</title>
<path fill="none" stroke="midnightblue" d="M545.35,-168.08C543.63,-160.93 541.15,-150.64 539,-141.69"/>
<polygon fill="midnightblue" stroke="midnightblue" points="542.35,-140.65 536.61,-131.75 535.54,-142.29 542.35,-140.65"/>
</g>
<!-- Node38&#45;&gt;Node26 -->
<g id="edge68" class="edge">
<title>Node38&#45;&gt;Node26</title>
<path fill="none" stroke="midnightblue" d="M479.91,-224.16C482.23,-211.24 487.61,-186.71 497.5,-168 503.1,-157.4 511.44,-146.98 518.79,-138.83"/>
<polygon fill="midnightblue" stroke="midnightblue" points="521.36,-141.2 525.67,-131.52 516.27,-136.41 521.36,-141.2"/>
</g>
<!-- Node38&#45;&gt;Node29 -->
<g id="edge69" class="edge">
<title>Node38&#45;&gt;Node29</title>
<path fill="none" stroke="midnightblue" d="M467.74,-224.32C457.73,-216.26 442.61,-204.08 430.57,-194.37"/>
<polygon fill="midnightblue" stroke="midnightblue" points="432.44,-191.38 422.46,-187.83 428.05,-196.83 432.44,-191.38"/>
</g>
<!-- Node38&#45;&gt;Node37 -->
<g id="edge70" class="edge">
<title>Node38&#45;&gt;Node37</title>
<path fill="none" stroke="midnightblue" d="M489.59,-224.32C499.99,-216.18 515.76,-203.84 528.22,-194.09"/>
<polygon fill="midnightblue" stroke="midnightblue" points="530.49,-196.75 536.21,-187.83 526.18,-191.24 530.49,-196.75"/>
</g>
<!-- Node39&#45;&gt;Node33 -->
<g id="edge72" class="edge">
<title>Node39&#45;&gt;Node33</title>
<path fill="none" stroke="midnightblue" d="M715.8,-504.45C744.9,-488.72 800.5,-452.22 800.5,-403 800.5,-403 800.5,-403 800.5,-289 800.5,-256.94 801.36,-219.64 801.95,-197.75"/>
<polygon fill="midnightblue" stroke="midnightblue" points="805.46,-197.65 802.24,-187.56 798.46,-197.45 805.46,-197.65"/>
</g>
<!-- Node39&#45;&gt;Node35 -->
<g id="edge73" class="edge">
<title>Node39&#45;&gt;Node35</title>
<path fill="none" stroke="midnightblue" d="M690.08,-504.08C682.65,-496.22 671.65,-484.57 662.69,-475.08"/>
<polygon fill="midnightblue" stroke="midnightblue" points="665.18,-472.62 655.76,-467.75 660.09,-477.42 665.18,-472.62"/>
</g>
<!-- Node40 -->
<g id="node40" class="node">
<title>Node40</title>
<g id="a_node40"><a xlink:href="gravity_8h.html" target="_top" xlink:title=" ">
<polygon fill="white" stroke="black" points="426,-448.5 426,-467.5 485,-467.5 485,-448.5 426,-448.5"/>
<text text-anchor="middle" x="455.5" y="-455.5" font-family="Helvetica,sans-Serif" font-size="10.00">gravity.h</text>
</a>
</g>
</g>
<!-- Node39&#45;&gt;Node40 -->
<g id="edge74" class="edge">
<title>Node39&#45;&gt;Node40</title>
<path fill="none" stroke="midnightblue" d="M662.38,-504.97C617.64,-495.03 541.67,-478.15 495.29,-467.84"/>
<polygon fill="midnightblue" stroke="midnightblue" points="495.82,-464.38 485.3,-465.62 494.3,-471.21 495.82,-464.38"/>
</g>
<!-- Node40&#45;&gt;Node25 -->
<g id="edge75" class="edge">
<title>Node40&#45;&gt;Node25</title>
<path fill="none" stroke="midnightblue" d="M485,-450.75C529.25,-441.38 613.14,-423.62 665.19,-412.59"/>
<polygon fill="midnightblue" stroke="midnightblue" points="666.1,-415.98 675.16,-410.48 664.65,-409.13 666.1,-415.98"/>
</g>
<!-- Node40&#45;&gt;Node36 -->
<g id="edge83" class="edge">
<title>Node40&#45;&gt;Node36</title>
<path fill="none" stroke="midnightblue" d="M456.74,-448.08C460.36,-421.95 470.99,-345.21 475.93,-309.58"/>
<polygon fill="midnightblue" stroke="midnightblue" points="479.41,-309.95 477.31,-299.57 472.47,-308.99 479.41,-309.95"/>
</g>
<!-- Node41 -->
<g id="node41" class="node">
<title>Node41</title>
<g id="a_node41"><a xlink:href="petapm_8h.html" target="_top" xlink:title=" ">
<polygon fill="white" stroke="black" points="109,-168.5 109,-187.5 172,-187.5 172,-168.5 109,-168.5"/>
<text text-anchor="middle" x="140.5" y="-175.5" font-family="Helvetica,sans-Serif" font-size="10.00">petapm.h</text>
</a>
</g>
</g>
<!-- Node40&#45;&gt;Node41 -->
<g id="edge76" class="edge">
<title>Node40&#45;&gt;Node41</title>
<path fill="none" stroke="midnightblue" d="M445.73,-448.38C400.99,-408.89 215.44,-245.13 157.72,-194.19"/>
<polygon fill="midnightblue" stroke="midnightblue" points="159.97,-191.52 150.16,-187.52 155.34,-196.77 159.97,-191.52"/>
</g>
<!-- Node43 -->
<g id="node43" class="node">
<title>Node43</title>
<g id="a_node43"><a xlink:href="powerspectrum_8h.html" target="_top" xlink:title=" ">
<polygon fill="white" stroke="black" points="0,-112.5 0,-131.5 101,-131.5 101,-112.5 0,-112.5"/>
<text text-anchor="middle" x="50.5" y="-119.5" font-family="Helvetica,sans-Serif" font-size="10.00">powerspectrum.h</text>
</a>
</g>
</g>
<!-- Node40&#45;&gt;Node43 -->
<g id="edge82" class="edge">
<title>Node40&#45;&gt;Node43</title>
<path fill="none" stroke="midnightblue" d="M425.87,-455.05C334.85,-448.26 65.5,-421.83 65.5,-347 65.5,-347 65.5,-347 65.5,-233 65.5,-200.5 58.99,-163.1 54.55,-141.34"/>
<polygon fill="midnightblue" stroke="midnightblue" points="57.96,-140.56 52.46,-131.5 51.11,-142.01 57.96,-140.56"/>
</g>
<!-- Node42 -->
<g id="node42" class="node">
<title>Node42</title>
<g id="a_node42"><a xlink:title=" ">
<polygon fill="white" stroke="#bfbfbf" points="119.5,-112.5 119.5,-131.5 161.5,-131.5 161.5,-112.5 119.5,-112.5"/>
<text text-anchor="middle" x="140.5" y="-119.5" font-family="Helvetica,sans-Serif" font-size="10.00">pfft.h</text>
</a>
</g>
</g>
<!-- Node41&#45;&gt;Node42 -->
<g id="edge77" class="edge">
<title>Node41&#45;&gt;Node42</title>
<path fill="none" stroke="midnightblue" d="M140.5,-168.08C140.5,-161.01 140.5,-150.86 140.5,-141.99"/>
<polygon fill="midnightblue" stroke="midnightblue" points="144,-141.75 140.5,-131.75 137,-141.75 144,-141.75"/>
</g>
<!-- Node41&#45;&gt;Node43 -->
<g id="edge78" class="edge">
<title>Node41&#45;&gt;Node43</title>
<path fill="none" stroke="midnightblue" d="M126.04,-168.32C112,-159.9 90.45,-146.97 73.96,-137.07"/>
<polygon fill="midnightblue" stroke="midnightblue" points="75.3,-133.8 64.92,-131.65 71.7,-139.8 75.3,-133.8"/>
</g>
<!-- Node43&#45;&gt;Node13 -->
<g id="edge80" class="edge">
<title>Node43&#45;&gt;Node13</title>
<path fill="none" stroke="midnightblue" d="M101.21,-113.21C104.35,-112.79 107.47,-112.38 110.5,-112 263.26,-92.9 446.06,-76.61 522.77,-70.07"/>
<polygon fill="midnightblue" stroke="midnightblue" points="523.21,-73.54 532.88,-69.21 522.62,-66.57 523.21,-73.54"/>
</g>
<!-- Node43&#45;&gt;Node14 -->
<g id="edge79" class="edge">
<title>Node43&#45;&gt;Node14</title>
<path fill="none" stroke="midnightblue" d="M57.22,-112.28C69.13,-97.59 95.53,-68.3 125.5,-56 185.78,-31.25 640.14,-16.11 776.76,-12.09"/>
<polygon fill="midnightblue" stroke="midnightblue" points="777.25,-15.57 787.15,-11.78 777.05,-8.58 777.25,-15.57"/>
</g>
<!-- Node43&#45;&gt;Node31 -->
<g id="edge81" class="edge">
<title>Node43&#45;&gt;Node31</title>
<path fill="none" stroke="midnightblue" d="M71.1,-112.44C92.49,-103.56 126.18,-89.56 150.52,-79.45"/>
<polygon fill="midnightblue" stroke="midnightblue" points="152.11,-82.58 160,-75.52 149.42,-76.12 152.11,-82.58"/>
</g>
</g>
</svg>
