<?xml version="1.0" encoding="UTF-8" standalone="no"?>
<!DOCTYPE svg PUBLIC "-//W3C//DTD SVG 1.1//EN"
 "http://www.w3.org/Graphics/SVG/1.1/DTD/svg11.dtd">
<!-- Generated by graphviz version 2.50.0 (0)
 -->
<!-- Title: _prepare Pages: 1 -->
<svg width="642pt" height="306pt"
 viewBox="0.00 0.00 642.00 305.50" xmlns="http://www.w3.org/2000/svg" xmlns:xlink="http://www.w3.org/1999/xlink">
<g id="graph0" class="graph" transform="scale(1 1) rotate(0) translate(4 301.5)">
<title>_prepare</title>
<polygon fill="white" stroke="transparent" points="-4,4 -4,-301.5 638,-301.5 638,4 -4,4"/>
<!-- Node1 -->
<g id="node1" class="node">
<title>Node1</title>
<g id="a_node1"><a xlink:title=" ">
<polygon fill="#bfbfbf" stroke="black" points="0,-133.5 0,-152.5 59,-152.5 59,-133.5 0,-133.5"/>
<text text-anchor="middle" x="29.5" y="-140.5" font-family="Helvetica,sans-Serif" font-size="10.00">_prepare</text>
</a>
</g>
</g>
<!-- Node2 -->
<g id="node2" class="node">
<title>Node2</title>
<g id="a_node2"><a xlink:href="gravpm_8c.html#af217876fec3193dbdfe8c6cc8e3515c9" target="_top" xlink:title=" ">
<polygon fill="white" stroke="black" points="101.5,-269.5 101.5,-288.5 235.5,-288.5 235.5,-269.5 101.5,-269.5"/>
<text text-anchor="middle" x="168.5" y="-276.5" font-family="Helvetica,sans-Serif" font-size="10.00">convert_node_to_region</text>
</a>
</g>
</g>
<!-- Node1&#45;&gt;Node2 -->
<g id="edge1" class="edge">
<title>Node1&#45;&gt;Node2</title>
<path fill="none" stroke="midnightblue" d="M33.68,-152.63C41.08,-173.63 61.43,-223.93 95,-252 101.74,-257.63 109.76,-262.15 117.98,-265.76"/>
<polygon fill="midnightblue" stroke="midnightblue" points="116.69,-269.01 127.28,-269.45 119.28,-262.5 116.69,-269.01"/>
</g>
<!-- Node4 -->
<g id="node4" class="node">
<title>Node4</title>
<g id="a_node4"><a xlink:href="endrun_8c.html#ad963d7efdb9f10f7a2298c8ccd222ab0" target="_top" xlink:title=" ">
<polygon fill="white" stroke="black" points="321.5,-76.5 321.5,-95.5 371.5,-95.5 371.5,-76.5 321.5,-76.5"/>
<text text-anchor="middle" x="346.5" y="-83.5" font-family="Helvetica,sans-Serif" font-size="10.00">endrun</text>
</a>
</g>
</g>
<!-- Node1&#45;&gt;Node4 -->
<g id="edge3" class="edge">
<title>Node1&#45;&gt;Node4</title>
<path fill="none" stroke="midnightblue" d="M43.01,-133.26C55.43,-124.18 75.41,-111.15 95,-105 169.44,-81.64 262.15,-81.65 311.26,-83.77"/>
<polygon fill="midnightblue" stroke="midnightblue" points="311.18,-87.27 321.34,-84.27 311.52,-80.28 311.18,-87.27"/>
</g>
<!-- Node8 -->
<g id="node8" class="node">
<title>Node8</title>
<g id="a_node8"><a xlink:href="forcetree_8c.html#ab8a2310bd448851f4aa42ae6bcec2e01" target="_top" xlink:title=" ">
<polygon fill="white" stroke="black" points="451,-190.5 451,-209.5 548,-209.5 548,-190.5 451,-190.5"/>
<text text-anchor="middle" x="499.5" y="-197.5" font-family="Helvetica,sans-Serif" font-size="10.00">force_get_father</text>
</a>
</g>
</g>
<!-- Node1&#45;&gt;Node8 -->
<g id="edge7" class="edge">
<title>Node1&#45;&gt;Node8</title>
<path fill="none" stroke="midnightblue" d="M37.04,-152.82C47.38,-167.41 69.01,-194.32 95,-206 216.1,-260.41 379,-230.98 455.47,-212.02"/>
<polygon fill="midnightblue" stroke="midnightblue" points="456.4,-215.39 465.23,-209.54 454.68,-208.61 456.4,-215.39"/>
</g>
<!-- Node9 -->
<g id="node9" class="node">
<title>Node9</title>
<g id="a_node9"><a xlink:href="forcetree_8c.html#a6676b2eba19512b1671a4c21fcb6e71d" target="_top" xlink:title=" ">
<polygon fill="white" stroke="black" points="288.5,-190.5 288.5,-209.5 404.5,-209.5 404.5,-190.5 288.5,-190.5"/>
<text text-anchor="middle" x="346.5" y="-197.5" font-family="Helvetica,sans-Serif" font-size="10.00">force_tree_allocated</text>
</a>
</g>
</g>
<!-- Node1&#45;&gt;Node9 -->
<g id="edge8" class="edge">
<title>Node1&#45;&gt;Node9</title>
<path fill="none" stroke="midnightblue" d="M43.01,-152.74C55.43,-161.82 75.41,-174.85 95,-181 154.95,-199.81 226.77,-203.47 278.1,-203.07"/>
<polygon fill="midnightblue" stroke="midnightblue" points="278.46,-206.56 288.41,-202.93 278.36,-199.56 278.46,-206.56"/>
</g>
<!-- Node10 -->
<g id="node10" class="node">
<title>Node10</title>
<g id="a_node10"><a xlink:href="forcetree_8c.html#aaa26dfea4b696133a8bc35c5e0c56037" target="_top" xlink:title=" ">
<polygon fill="white" stroke="black" points="123,-152.5 123,-171.5 214,-171.5 214,-152.5 123,-152.5"/>
<text text-anchor="middle" x="168.5" y="-159.5" font-family="Helvetica,sans-Serif" font-size="10.00">force_tree_free</text>
</a>
</g>
</g>
<!-- Node1&#45;&gt;Node10 -->
<g id="edge9" class="edge">
<title>Node1&#45;&gt;Node10</title>
<path fill="none" stroke="midnightblue" d="M59.22,-146.98C74.78,-149.14 94.52,-151.88 112.88,-154.43"/>
<polygon fill="midnightblue" stroke="midnightblue" points="112.52,-157.91 122.9,-155.82 113.48,-150.97 112.52,-157.91"/>
</g>
<!-- Node13 -->
<g id="node13" class="node">
<title>Node13</title>
<g id="a_node13"><a xlink:href="endrun_8c.html#a6567cd867c5549fb6586e19ccd819764" target="_top" xlink:title=" ">
<polygon fill="white" stroke="black" points="138,-38.5 138,-57.5 199,-57.5 199,-38.5 138,-38.5"/>
<text text-anchor="middle" x="168.5" y="-45.5" font-family="Helvetica,sans-Serif" font-size="10.00">message</text>
</a>
</g>
</g>
<!-- Node1&#45;&gt;Node13 -->
<g id="edge14" class="edge">
<title>Node1&#45;&gt;Node13</title>
<path fill="none" stroke="midnightblue" d="M36.84,-133.27C47.23,-118.07 69.31,-88.7 95,-72 104.97,-65.52 116.86,-60.63 128.1,-57.02"/>
<polygon fill="midnightblue" stroke="midnightblue" points="129.14,-60.36 137.74,-54.16 127.15,-53.64 129.14,-60.36"/>
</g>
<!-- Node14 -->
<g id="node14" class="node">
<title>Node14</title>
<g id="a_node14"><a xlink:href="gravpm_8c.html#a68feeaa24243361ef41a7dc300062e31" target="_top" xlink:title=" ">
<polygon fill="white" stroke="black" points="95,-114.5 95,-133.5 242,-133.5 242,-114.5 95,-114.5"/>
<text text-anchor="middle" x="168.5" y="-121.5" font-family="Helvetica,sans-Serif" font-size="10.00">pm_mark_region_for_node</text>
</a>
</g>
</g>
<!-- Node1&#45;&gt;Node14 -->
<g id="edge16" class="edge">
<title>Node1&#45;&gt;Node14</title>
<path fill="none" stroke="midnightblue" d="M59.22,-139.02C68.02,-137.8 78.16,-136.39 88.63,-134.94"/>
<polygon fill="midnightblue" stroke="midnightblue" points="89.32,-138.38 98.74,-133.54 88.35,-131.44 89.32,-138.38"/>
</g>
<!-- Node15 -->
<g id="node15" class="node">
<title>Node15</title>
<g id="a_node15"><a xlink:href="powerspectrum_8c.html#aefaa39c2de60e16f97240004e662553b" target="_top" xlink:title=" ">
<polygon fill="white" stroke="black" points="108,-0.5 108,-19.5 229,-19.5 229,-0.5 108,-0.5"/>
<text text-anchor="middle" x="168.5" y="-7.5" font-family="Helvetica,sans-Serif" font-size="10.00">powerspectrum_alloc</text>
</a>
</g>
</g>
<!-- Node1&#45;&gt;Node15 -->
<g id="edge18" class="edge">
<title>Node1&#45;&gt;Node15</title>
<path fill="none" stroke="midnightblue" d="M33.14,-133.34C39.68,-111.26 58.78,-56.88 95,-29 97.45,-27.12 100.06,-25.42 102.8,-23.89"/>
<polygon fill="midnightblue" stroke="midnightblue" points="104.35,-27.02 111.86,-19.55 101.33,-20.71 104.35,-27.02"/>
</g>
<!-- Node3 -->
<g id="node3" class="node">
<title>Node3</title>
<g id="a_node3"><a xlink:href="petapm_8c.html#aab9d79e0558c1678eac096c336bca66e" target="_top" xlink:title=" ">
<polygon fill="white" stroke="black" points="291,-267 291,-297 402,-297 402,-267 291,-267"/>
<text text-anchor="start" x="299" y="-285" font-family="Helvetica,sans-Serif" font-size="10.00">petapm_region_init</text>
<text text-anchor="middle" x="346.5" y="-274" font-family="Helvetica,sans-Serif" font-size="10.00">_strides</text>
</a>
</g>
</g>
<!-- Node2&#45;&gt;Node3 -->
<g id="edge2" class="edge">
<title>Node2&#45;&gt;Node3</title>
<path fill="none" stroke="midnightblue" d="M235.54,-280.13C250.36,-280.38 266.06,-280.65 280.83,-280.9"/>
<polygon fill="midnightblue" stroke="midnightblue" points="280.82,-284.4 290.88,-281.07 280.94,-277.4 280.82,-284.4"/>
</g>
<!-- Node5 -->
<g id="node5" class="node">
<title>Node5</title>
<g id="a_node5"><a xlink:href="system_8c.html#a341c8d27bd6c7dde856566810b412b1f" target="_top" xlink:title=" ">
<polygon fill="white" stroke="black" points="460,-38.5 460,-57.5 539,-57.5 539,-38.5 460,-38.5"/>
<text text-anchor="middle" x="499.5" y="-45.5" font-family="Helvetica,sans-Serif" font-size="10.00">MPIU_Tracev</text>
</a>
</g>
</g>
<!-- Node4&#45;&gt;Node5 -->
<g id="edge4" class="edge">
<title>Node4&#45;&gt;Node5</title>
<path fill="none" stroke="midnightblue" d="M371.76,-79.89C393.05,-74.54 424.63,-66.59 450.94,-59.97"/>
<polygon fill="midnightblue" stroke="midnightblue" points="451.89,-63.34 460.74,-57.5 450.19,-56.55 451.89,-63.34"/>
</g>
<!-- Node7 -->
<g id="node7" class="node">
<title>Node7</title>
<g id="a_node7"><a xlink:href="endrun_8c.html#a1200f02a595ab7cbe17c9e36ff32af0f" target="_top" xlink:title=" ">
<polygon fill="white" stroke="black" points="452,-76.5 452,-95.5 547,-95.5 547,-76.5 452,-76.5"/>
<text text-anchor="middle" x="499.5" y="-83.5" font-family="Helvetica,sans-Serif" font-size="10.00">show_backtrace</text>
</a>
</g>
</g>
<!-- Node4&#45;&gt;Node7 -->
<g id="edge6" class="edge">
<title>Node4&#45;&gt;Node7</title>
<path fill="none" stroke="midnightblue" d="M371.76,-86C390.58,-86 417.44,-86 441.6,-86"/>
<polygon fill="midnightblue" stroke="midnightblue" points="441.75,-89.5 451.75,-86 441.75,-82.5 441.75,-89.5"/>
</g>
<!-- Node6 -->
<g id="node6" class="node">
<title>Node6</title>
<g id="a_node6"><a xlink:href="system_8c.html#a87108946670b4c3afbe846c6726675ff" target="_top" xlink:title=" ">
<polygon fill="white" stroke="black" points="584,-38.5 584,-57.5 634,-57.5 634,-38.5 584,-38.5"/>
<text text-anchor="middle" x="609" y="-45.5" font-family="Helvetica,sans-Serif" font-size="10.00">putline</text>
</a>
</g>
</g>
<!-- Node5&#45;&gt;Node6 -->
<g id="edge5" class="edge">
<title>Node5&#45;&gt;Node6</title>
<path fill="none" stroke="midnightblue" d="M539.01,-48C550.33,-48 562.64,-48 573.68,-48"/>
<polygon fill="midnightblue" stroke="midnightblue" points="573.8,-51.5 583.8,-48 573.8,-44.5 573.8,-51.5"/>
</g>
<!-- Node10&#45;&gt;Node9 -->
<g id="edge11" class="edge">
<title>Node10&#45;&gt;Node9</title>
<path fill="none" stroke="midnightblue" d="M213.91,-171.59C237.45,-176.67 266.56,-182.96 291.4,-188.32"/>
<polygon fill="midnightblue" stroke="midnightblue" points="290.89,-191.79 301.41,-190.48 292.37,-184.95 290.89,-191.79"/>
</g>
<!-- Node11 -->
<g id="node11" class="node">
<title>Node11</title>
<g id="a_node11"><a xlink:href="event_8c.html#a4b5347d345f55b1b454c1eeb02916ca8" target="_top" xlink:title=" ">
<polygon fill="white" stroke="black" points="302,-114.5 302,-133.5 391,-133.5 391,-114.5 302,-114.5"/>
<text text-anchor="middle" x="346.5" y="-121.5" font-family="Helvetica,sans-Serif" font-size="10.00">event_unlisten</text>
</a>
</g>
</g>
<!-- Node10&#45;&gt;Node11 -->
<g id="edge10" class="edge">
<title>Node10&#45;&gt;Node11</title>
<path fill="none" stroke="midnightblue" d="M213.91,-152.41C237.54,-147.31 266.78,-141 291.69,-135.62"/>
<polygon fill="midnightblue" stroke="midnightblue" points="292.68,-138.99 301.71,-133.45 291.2,-132.14 292.68,-138.99"/>
</g>
<!-- Node12 -->
<g id="node12" class="node">
<title>Node12</title>
<g id="a_node12"><a xlink:href="forcetree_8c.html#a6c833489d009e4b5e850dc5997214775" target="_top" xlink:title=" ">
<polygon fill="white" stroke="black" points="278,-152.5 278,-171.5 415,-171.5 415,-152.5 278,-152.5"/>
<text text-anchor="middle" x="346.5" y="-159.5" font-family="Helvetica,sans-Serif" font-size="10.00">force_tree_eh_slots_fork</text>
</a>
</g>
</g>
<!-- Node10&#45;&gt;Node12 -->
<g id="edge12" class="edge">
<title>Node10&#45;&gt;Node12</title>
<path fill="none" stroke="midnightblue" d="M214.37,-162C230.61,-162 249.45,-162 267.71,-162"/>
<polygon fill="midnightblue" stroke="midnightblue" points="267.76,-165.5 277.76,-162 267.76,-158.5 267.76,-165.5"/>
</g>
<!-- Node12&#45;&gt;Node8 -->
<g id="edge13" class="edge">
<title>Node12&#45;&gt;Node8</title>
<path fill="none" stroke="midnightblue" d="M385.6,-171.59C405.44,-176.58 429.88,-182.73 450.95,-188.03"/>
<polygon fill="midnightblue" stroke="midnightblue" points="450.12,-191.43 460.67,-190.48 451.83,-184.65 450.12,-191.43"/>
</g>
<!-- Node13&#45;&gt;Node5 -->
<g id="edge15" class="edge">
<title>Node13&#45;&gt;Node5</title>
<path fill="none" stroke="midnightblue" d="M199.28,-48C256.07,-48 380.37,-48 449.56,-48"/>
<polygon fill="midnightblue" stroke="midnightblue" points="449.76,-51.5 459.76,-48 449.76,-44.5 449.76,-51.5"/>
</g>
<!-- Node14&#45;&gt;Node4 -->
<g id="edge17" class="edge">
<title>Node14&#45;&gt;Node4</title>
<path fill="none" stroke="midnightblue" d="M213.91,-114.41C244.07,-107.9 283.37,-99.41 311.14,-93.42"/>
<polygon fill="midnightblue" stroke="midnightblue" points="312.14,-96.78 321.18,-91.25 310.66,-89.94 312.14,-96.78"/>
</g>
<!-- Node16 -->
<g id="node16" class="node">
<title>Node16</title>
<g id="a_node16"><a xlink:href="powerspectrum_8c.html#a7e84e9780767180ff574a0bcc9a4b26f" target="_top" xlink:title=" ">
<polygon fill="white" stroke="black" points="287,-0.5 287,-19.5 406,-19.5 406,-0.5 287,-0.5"/>
<text text-anchor="middle" x="346.5" y="-7.5" font-family="Helvetica,sans-Serif" font-size="10.00">powerspectrum_zero</text>
</a>
</g>
</g>
<!-- Node15&#45;&gt;Node16 -->
<g id="edge19" class="edge">
<title>Node15&#45;&gt;Node16</title>
<path fill="none" stroke="midnightblue" d="M229.09,-10C244.38,-10 260.96,-10 276.69,-10"/>
<polygon fill="midnightblue" stroke="midnightblue" points="276.87,-13.5 286.87,-10 276.87,-6.5 276.87,-13.5"/>
</g>
</g>
</svg>
