<?xml version="1.0" encoding="UTF-8" standalone="no"?>
<!DOCTYPE svg PUBLIC "-//W3C//DTD SVG 1.1//EN"
 "http://www.w3.org/Graphics/SVG/1.1/DTD/svg11.dtd">
<!-- Generated by graphviz version 2.50.0 (0)
 -->
<!-- Title: gravpm_init_periodic Pages: 1 -->
<svg width="602pt" height="116pt"
 viewBox="0.00 0.00 602.00 115.50" xmlns="http://www.w3.org/2000/svg" xmlns:xlink="http://www.w3.org/1999/xlink">
<g id="graph0" class="graph" transform="scale(1 1) rotate(0) translate(4 111.5)">
<title>gravpm_init_periodic</title>
<polygon fill="white" stroke="transparent" points="-4,4 -4,-111.5 598,-111.5 598,4 -4,4"/>
<!-- Node1 -->
<g id="node1" class="node">
<title>Node1</title>
<g id="a_node1"><a xlink:title=" ">
<polygon fill="#bfbfbf" stroke="black" points="0,-50 0,-69 119,-69 119,-50 0,-50"/>
<text text-anchor="middle" x="59.5" y="-57" font-family="Helvetica,sans-Serif" font-size="10.00">gravpm_init_periodic</text>
</a>
</g>
</g>
<!-- Node2 -->
<g id="node2" class="node">
<title>Node2</title>
<g id="a_node2"><a xlink:href="petapm_8c.html#a1e97d60cf8850a187c7ea470c18d791d" target="_top" xlink:title=" ">
<polygon fill="white" stroke="black" points="155,-50 155,-69 230,-69 230,-50 155,-50"/>
<text text-anchor="middle" x="192.5" y="-57" font-family="Helvetica,sans-Serif" font-size="10.00">petapm_init</text>
</a>
</g>
</g>
<!-- Node1&#45;&gt;Node2 -->
<g id="edge1" class="edge">
<title>Node1&#45;&gt;Node2</title>
<path fill="none" stroke="midnightblue" d="M119.1,-59.5C127.63,-59.5 136.31,-59.5 144.57,-59.5"/>
<polygon fill="midnightblue" stroke="midnightblue" points="144.75,-63 154.75,-59.5 144.75,-56 144.75,-63"/>
</g>
<!-- Node3 -->
<g id="node3" class="node">
<title>Node3</title>
<g id="a_node3"><a xlink:href="endrun_8c.html#ad963d7efdb9f10f7a2298c8ccd222ab0" target="_top" xlink:title=" ">
<polygon fill="white" stroke="black" points="296.5,-50 296.5,-69 346.5,-69 346.5,-50 296.5,-50"/>
<text text-anchor="middle" x="321.5" y="-57" font-family="Helvetica,sans-Serif" font-size="10.00">endrun</text>
</a>
</g>
</g>
<!-- Node2&#45;&gt;Node3 -->
<g id="edge2" class="edge">
<title>Node2&#45;&gt;Node3</title>
<path fill="none" stroke="midnightblue" d="M230.23,-59.5C247.83,-59.5 268.78,-59.5 286.06,-59.5"/>
<polygon fill="midnightblue" stroke="midnightblue" points="286.29,-63 296.29,-59.5 286.29,-56 286.29,-63"/>
</g>
<!-- Node7 -->
<g id="node7" class="node">
<title>Node7</title>
<g id="a_node7"><a xlink:href="endrun_8c.html#a6567cd867c5549fb6586e19ccd819764" target="_top" xlink:title=" ">
<polygon fill="white" stroke="black" points="291,-88 291,-107 352,-107 352,-88 291,-88"/>
<text text-anchor="middle" x="321.5" y="-95" font-family="Helvetica,sans-Serif" font-size="10.00">message</text>
</a>
</g>
</g>
<!-- Node2&#45;&gt;Node7 -->
<g id="edge6" class="edge">
<title>Node2&#45;&gt;Node7</title>
<path fill="none" stroke="midnightblue" d="M225.55,-69.09C242.26,-74.09 262.85,-80.25 280.58,-85.56"/>
<polygon fill="midnightblue" stroke="midnightblue" points="280.06,-89.05 290.64,-88.57 282.07,-82.35 280.06,-89.05"/>
</g>
<!-- Node8 -->
<g id="node8" class="node">
<title>Node8</title>
<g id="a_node8"><a xlink:href="petapm_8c.html#aab9d79e0558c1678eac096c336bca66e" target="_top" xlink:title=" ">
<polygon fill="white" stroke="black" points="266,-0.5 266,-30.5 377,-30.5 377,-0.5 266,-0.5"/>
<text text-anchor="start" x="274" y="-18.5" font-family="Helvetica,sans-Serif" font-size="10.00">petapm_region_init</text>
<text text-anchor="middle" x="321.5" y="-7.5" font-family="Helvetica,sans-Serif" font-size="10.00">_strides</text>
</a>
</g>
</g>
<!-- Node2&#45;&gt;Node8 -->
<g id="edge8" class="edge">
<title>Node2&#45;&gt;Node8</title>
<path fill="none" stroke="midnightblue" d="M221.06,-49.95C234.59,-45.26 251.37,-39.45 267.27,-33.94"/>
<polygon fill="midnightblue" stroke="midnightblue" points="268.71,-37.15 277.02,-30.57 266.42,-30.53 268.71,-37.15"/>
</g>
<!-- Node4 -->
<g id="node4" class="node">
<title>Node4</title>
<g id="a_node4"><a xlink:href="system_8c.html#a341c8d27bd6c7dde856566810b412b1f" target="_top" xlink:title=" ">
<polygon fill="white" stroke="black" points="421,-88 421,-107 500,-107 500,-88 421,-88"/>
<text text-anchor="middle" x="460.5" y="-95" font-family="Helvetica,sans-Serif" font-size="10.00">MPIU_Tracev</text>
</a>
</g>
</g>
<!-- Node3&#45;&gt;Node4 -->
<g id="edge3" class="edge">
<title>Node3&#45;&gt;Node4</title>
<path fill="none" stroke="midnightblue" d="M346.68,-66.21C365.61,-71.46 392.47,-78.91 415.23,-85.22"/>
<polygon fill="midnightblue" stroke="midnightblue" points="414.45,-88.64 425.03,-87.94 416.33,-81.89 414.45,-88.64"/>
</g>
<!-- Node6 -->
<g id="node6" class="node">
<title>Node6</title>
<g id="a_node6"><a xlink:href="endrun_8c.html#a1200f02a595ab7cbe17c9e36ff32af0f" target="_top" xlink:title=" ">
<polygon fill="white" stroke="black" points="413,-50 413,-69 508,-69 508,-50 413,-50"/>
<text text-anchor="middle" x="460.5" y="-57" font-family="Helvetica,sans-Serif" font-size="10.00">show_backtrace</text>
</a>
</g>
</g>
<!-- Node3&#45;&gt;Node6 -->
<g id="edge5" class="edge">
<title>Node3&#45;&gt;Node6</title>
<path fill="none" stroke="midnightblue" d="M346.68,-59.5C362.25,-59.5 383.17,-59.5 402.76,-59.5"/>
<polygon fill="midnightblue" stroke="midnightblue" points="402.86,-63 412.86,-59.5 402.86,-56 402.86,-63"/>
</g>
<!-- Node5 -->
<g id="node5" class="node">
<title>Node5</title>
<g id="a_node5"><a xlink:href="system_8c.html#a87108946670b4c3afbe846c6726675ff" target="_top" xlink:title=" ">
<polygon fill="white" stroke="black" points="544,-88 544,-107 594,-107 594,-88 544,-88"/>
<text text-anchor="middle" x="569" y="-95" font-family="Helvetica,sans-Serif" font-size="10.00">putline</text>
</a>
</g>
</g>
<!-- Node4&#45;&gt;Node5 -->
<g id="edge4" class="edge">
<title>Node4&#45;&gt;Node5</title>
<path fill="none" stroke="midnightblue" d="M500.25,-97.5C511.22,-97.5 523.09,-97.5 533.77,-97.5"/>
<polygon fill="midnightblue" stroke="midnightblue" points="533.99,-101 543.99,-97.5 533.99,-94 533.99,-101"/>
</g>
<!-- Node7&#45;&gt;Node4 -->
<g id="edge7" class="edge">
<title>Node7&#45;&gt;Node4</title>
<path fill="none" stroke="midnightblue" d="M352.23,-97.5C369.3,-97.5 391.18,-97.5 410.71,-97.5"/>
<polygon fill="midnightblue" stroke="midnightblue" points="410.97,-101 420.97,-97.5 410.97,-94 410.97,-101"/>
</g>
</g>
</svg>
