<?xml version="1.0" encoding="UTF-8" standalone="no"?>
<!DOCTYPE svg PUBLIC "-//W3C//DTD SVG 1.1//EN"
 "http://www.w3.org/Graphics/SVG/1.1/DTD/svg11.dtd">
<!-- Generated by graphviz version 2.50.0 (0)
 -->
<!-- Title: potential_transfer Pages: 1 -->
<svg width="824pt" height="142pt"
 viewBox="0.00 0.00 824.00 142.00" xmlns="http://www.w3.org/2000/svg" xmlns:xlink="http://www.w3.org/1999/xlink">
<g id="graph0" class="graph" transform="scale(1 1) rotate(0) translate(4 138)">
<title>potential_transfer</title>
<polygon fill="white" stroke="transparent" points="-4,4 -4,-138 820,-138 820,4 -4,4"/>
<!-- Node1 -->
<g id="node1" class="node">
<title>Node1</title>
<g id="a_node1"><a xlink:title=" ">
<polygon fill="#bfbfbf" stroke="black" points="0,-38.5 0,-57.5 104,-57.5 104,-38.5 0,-38.5"/>
<text text-anchor="middle" x="52" y="-45.5" font-family="Helvetica,sans-Serif" font-size="10.00">potential_transfer</text>
</a>
</g>
</g>
<!-- Node2 -->
<g id="node2" class="node">
<title>Node2</title>
<g id="a_node2"><a xlink:href="omega__nu__single_8c.html#afcee6621dd25537fe0fef1428ed87cb0" target="_top" xlink:title=" ">
<polygon fill="white" stroke="black" points="152,-76.5 152,-95.5 277,-95.5 277,-76.5 152,-76.5"/>
<text text-anchor="middle" x="214.5" y="-83.5" font-family="Helvetica,sans-Serif" font-size="10.00">get_omega_nu_nopart</text>
</a>
</g>
</g>
<!-- Node1&#45;&gt;Node2 -->
<g id="edge1" class="edge">
<title>Node1&#45;&gt;Node2</title>
<path fill="none" stroke="midnightblue" d="M93.5,-57.59C114.68,-62.6 140.8,-68.79 163.26,-74.11"/>
<polygon fill="midnightblue" stroke="midnightblue" points="162.75,-77.58 173.29,-76.48 164.37,-70.77 162.75,-77.58"/>
</g>
<!-- Node9 -->
<g id="node9" class="node">
<title>Node9</title>
<g id="a_node9"><a xlink:href="gravpm_8c.html#a570c397f64cd8713308e2fd07a11d571" target="_top" xlink:title=" ">
<polygon fill="white" stroke="black" points="140,-38.5 140,-57.5 289,-57.5 289,-38.5 140,-38.5"/>
<text text-anchor="middle" x="214.5" y="-45.5" font-family="Helvetica,sans-Serif" font-size="10.00">powerspectrum_add_mode</text>
</a>
</g>
</g>
<!-- Node1&#45;&gt;Node9 -->
<g id="edge9" class="edge">
<title>Node1&#45;&gt;Node9</title>
<path fill="none" stroke="midnightblue" d="M104.22,-48C112.4,-48 121.04,-48 129.74,-48"/>
<polygon fill="midnightblue" stroke="midnightblue" points="129.95,-51.5 139.95,-48 129.95,-44.5 129.95,-51.5"/>
</g>
<!-- Node10 -->
<g id="node10" class="node">
<title>Node10</title>
<g id="a_node10"><a xlink:href="gravpm_8c.html#ac20611558677871c5f246078bb101878" target="_top" xlink:title=" ">
<polygon fill="white" stroke="black" points="169,-0.5 169,-19.5 260,-19.5 260,-0.5 169,-0.5"/>
<text text-anchor="middle" x="214.5" y="-7.5" font-family="Helvetica,sans-Serif" font-size="10.00">sinc_unnormed</text>
</a>
</g>
</g>
<!-- Node1&#45;&gt;Node10 -->
<g id="edge10" class="edge">
<title>Node1&#45;&gt;Node10</title>
<path fill="none" stroke="midnightblue" d="M93.5,-38.41C114.68,-33.4 140.8,-27.21 163.26,-21.89"/>
<polygon fill="midnightblue" stroke="midnightblue" points="164.37,-25.23 173.29,-19.52 162.75,-18.42 164.37,-25.23"/>
</g>
<!-- Node3 -->
<g id="node3" class="node">
<title>Node3</title>
<g id="a_node3"><a xlink:href="omega__nu__single_8c.html#aca4b20af5bd369bcd096c670c27c6e36" target="_top" xlink:title=" ">
<polygon fill="white" stroke="black" points="337,-95.5 337,-114.5 426,-114.5 426,-95.5 337,-95.5"/>
<text text-anchor="middle" x="381.5" y="-102.5" font-family="Helvetica,sans-Serif" font-size="10.00">get_omega_nu</text>
</a>
</g>
</g>
<!-- Node2&#45;&gt;Node3 -->
<g id="edge2" class="edge">
<title>Node2&#45;&gt;Node3</title>
<path fill="none" stroke="midnightblue" d="M277.41,-93.13C293.61,-94.99 310.95,-96.99 326.69,-98.8"/>
<polygon fill="midnightblue" stroke="midnightblue" points="326.44,-102.3 336.78,-99.97 327.24,-95.34 326.44,-102.3"/>
</g>
<!-- Node8 -->
<g id="node8" class="node">
<title>Node8</title>
<g id="a_node8"><a xlink:href="omega__nu__single_8c.html#ac3ad918c3d248c97c58f37ecf9d00e62" target="_top" xlink:title=" ">
<polygon fill="white" stroke="black" points="325,-57.5 325,-76.5 438,-76.5 438,-57.5 325,-57.5"/>
<text text-anchor="middle" x="381.5" y="-64.5" font-family="Helvetica,sans-Serif" font-size="10.00">particle_nu_fraction</text>
</a>
</g>
</g>
<!-- Node2&#45;&gt;Node8 -->
<g id="edge8" class="edge">
<title>Node2&#45;&gt;Node8</title>
<path fill="none" stroke="midnightblue" d="M277.41,-78.87C289.55,-77.47 302.34,-76 314.6,-74.59"/>
<polygon fill="midnightblue" stroke="midnightblue" points="315.23,-78.04 324.77,-73.42 314.43,-71.08 315.23,-78.04"/>
</g>
<!-- Node4 -->
<g id="node4" class="node">
<title>Node4</title>
<g id="a_node4"><a xlink:href="omega__nu__single_8c.html#a5d81e97a54be82580201631d495bd694" target="_top" xlink:title=" ">
<polygon fill="white" stroke="black" points="474,-95.5 474,-114.5 524,-114.5 524,-95.5 474,-95.5"/>
<text text-anchor="middle" x="499" y="-102.5" font-family="Helvetica,sans-Serif" font-size="10.00">rho_nu</text>
</a>
</g>
</g>
<!-- Node3&#45;&gt;Node4 -->
<g id="edge3" class="edge">
<title>Node3&#45;&gt;Node4</title>
<path fill="none" stroke="midnightblue" d="M426.17,-105C438.49,-105 451.73,-105 463.44,-105"/>
<polygon fill="midnightblue" stroke="midnightblue" points="463.7,-108.5 473.7,-105 463.69,-101.5 463.7,-108.5"/>
</g>
<!-- Node5 -->
<g id="node5" class="node">
<title>Node5</title>
<g id="a_node5"><a xlink:href="omega__nu__single_8c.html#a5d053cc2c3fa75a3c357bbb99af5de62" target="_top" xlink:title=" ">
<polygon fill="white" stroke="black" points="560,-114.5 560,-133.5 651,-133.5 651,-114.5 560,-114.5"/>
<text text-anchor="middle" x="605.5" y="-121.5" font-family="Helvetica,sans-Serif" font-size="10.00">non_rel_rho_nu</text>
</a>
</g>
</g>
<!-- Node4&#45;&gt;Node5 -->
<g id="edge4" class="edge">
<title>Node4&#45;&gt;Node5</title>
<path fill="none" stroke="midnightblue" d="M524.24,-109.41C531.95,-110.81 540.81,-112.42 549.78,-114.05"/>
<polygon fill="midnightblue" stroke="midnightblue" points="549.41,-117.54 559.88,-115.89 550.67,-110.65 549.41,-117.54"/>
</g>
<!-- Node7 -->
<g id="node7" class="node">
<title>Node7</title>
<g id="a_node7"><a xlink:href="omega__nu__single_8c.html#ac447b6c2f0363d19b68b2ce9f29009c4" target="_top" xlink:title=" ">
<polygon fill="white" stroke="black" points="571.5,-76.5 571.5,-95.5 639.5,-95.5 639.5,-76.5 571.5,-76.5"/>
<text text-anchor="middle" x="605.5" y="-83.5" font-family="Helvetica,sans-Serif" font-size="10.00">rel_rho_nu</text>
</a>
</g>
</g>
<!-- Node4&#45;&gt;Node7 -->
<g id="edge6" class="edge">
<title>Node4&#45;&gt;Node7</title>
<path fill="none" stroke="midnightblue" d="M524.24,-100.59C535.27,-98.59 548.68,-96.15 561.35,-93.85"/>
<polygon fill="midnightblue" stroke="midnightblue" points="562.08,-97.27 571.29,-92.04 560.83,-90.38 562.08,-97.27"/>
</g>
<!-- Node6 -->
<g id="node6" class="node">
<title>Node6</title>
<g id="a_node6"><a xlink:href="omega__nu__single_8c.html#acf81fc868c0deb61c3541958dd6114be" target="_top" xlink:title=" ">
<polygon fill="white" stroke="black" points="687,-95.5 687,-114.5 816,-114.5 816,-95.5 687,-95.5"/>
<text text-anchor="middle" x="751.5" y="-102.5" font-family="Helvetica,sans-Serif" font-size="10.00">get_rho_nu_conversion</text>
</a>
</g>
</g>
<!-- Node5&#45;&gt;Node6 -->
<g id="edge5" class="edge">
<title>Node5&#45;&gt;Node6</title>
<path fill="none" stroke="midnightblue" d="M651.27,-118.09C659.49,-117.01 668.26,-115.85 677.07,-114.69"/>
<polygon fill="midnightblue" stroke="midnightblue" points="677.53,-118.16 686.99,-113.38 676.62,-111.22 677.53,-118.16"/>
</g>
<!-- Node7&#45;&gt;Node6 -->
<g id="edge7" class="edge">
<title>Node7&#45;&gt;Node6</title>
<path fill="none" stroke="midnightblue" d="M639.54,-90.36C650.72,-91.83 663.7,-93.55 676.75,-95.27"/>
<polygon fill="midnightblue" stroke="midnightblue" points="676.35,-98.75 686.72,-96.58 677.26,-91.81 676.35,-98.75"/>
</g>
</g>
</svg>
