<?xml version="1.0" encoding="UTF-8" standalone="no"?>
<!DOCTYPE svg PUBLIC "-//W3C//DTD SVG 1.1//EN"
 "http://www.w3.org/Graphics/SVG/1.1/DTD/svg11.dtd">
<!-- Generated by graphviz version 2.50.0 (0)
 -->
<!-- Title: grav_short_postprocess Pages: 1 -->
<svg width="753pt" height="180pt"
 viewBox="0.00 0.00 753.00 180.00" xmlns="http://www.w3.org/2000/svg" xmlns:xlink="http://www.w3.org/1999/xlink">
<g id="graph0" class="graph" transform="scale(1 1) rotate(0) translate(4 176)">
<title>grav_short_postprocess</title>
<polygon fill="white" stroke="transparent" points="-4,4 -4,-176 749,-176 749,4 -4,4"/>
<!-- Node1 -->
<g id="node1" class="node">
<title>Node1</title>
<g id="a_node1"><a xlink:title=" ">
<polygon fill="#bfbfbf" stroke="black" points="613,-133.5 613,-152.5 745,-152.5 745,-133.5 613,-133.5"/>
<text text-anchor="middle" x="679" y="-140.5" font-family="Helvetica,sans-Serif" font-size="10.00">grav_short_postprocess</text>
</a>
</g>
</g>
<!-- Node2 -->
<g id="node2" class="node">
<title>Node2</title>
<g id="a_node2"><a xlink:href="gravity_8h.html#a6e195525506b0c8f2638fda43cb8fa1f" target="_top" xlink:title=" ">
<polygon fill="white" stroke="black" points="484.5,-152.5 484.5,-171.5 576.5,-171.5 576.5,-152.5 484.5,-152.5"/>
<text text-anchor="middle" x="530.5" y="-159.5" font-family="Helvetica,sans-Serif" font-size="10.00">grav_short_pair</text>
</a>
</g>
</g>
<!-- Node1&#45;&gt;Node2 -->
<g id="edge1" class="edge">
<title>Node1&#45;&gt;Node2</title>
<path fill="none" stroke="midnightblue" d="M602.82,-152.75C593.89,-153.91 585,-155.06 576.68,-156.14"/>
<polygon fill="midnightblue" stroke="midnightblue" points="603.42,-156.2 612.89,-151.44 602.52,-149.26 603.42,-156.2"/>
</g>
<!-- Node7 -->
<g id="node7" class="node">
<title>Node7</title>
<g id="a_node7"><a xlink:href="gravity_8h.html#af372a315ec289670ceaf43db26a36b43" target="_top" xlink:title=" ">
<polygon fill="white" stroke="black" points="484,-114.5 484,-133.5 577,-133.5 577,-114.5 484,-114.5"/>
<text text-anchor="middle" x="530.5" y="-121.5" font-family="Helvetica,sans-Serif" font-size="10.00">grav_short_tree</text>
</a>
</g>
</g>
<!-- Node1&#45;&gt;Node7 -->
<g id="edge7" class="edge">
<title>Node1&#45;&gt;Node7</title>
<path fill="none" stroke="midnightblue" d="M602.95,-133.27C594.13,-132.12 585.34,-130.98 577.11,-129.91"/>
<polygon fill="midnightblue" stroke="midnightblue" points="602.52,-136.74 612.89,-134.56 603.42,-129.8 602.52,-136.74"/>
</g>
<!-- Node3 -->
<g id="node3" class="node">
<title>Node3</title>
<g id="a_node3"><a xlink:href="run_8c.html#a89690448ef43a8d624b963382b7503ed" target="_top" xlink:title=" ">
<polygon fill="white" stroke="black" points="384,-152.5 384,-171.5 416,-171.5 416,-152.5 384,-152.5"/>
<text text-anchor="middle" x="400" y="-159.5" font-family="Helvetica,sans-Serif" font-size="10.00">run</text>
</a>
</g>
</g>
<!-- Node2&#45;&gt;Node3 -->
<g id="edge2" class="edge">
<title>Node2&#45;&gt;Node3</title>
<path fill="none" stroke="midnightblue" d="M473.95,-162C452.79,-162 430.34,-162 416.02,-162"/>
<polygon fill="midnightblue" stroke="midnightblue" points="474.2,-165.5 484.2,-162 474.2,-158.5 474.2,-165.5"/>
</g>
<!-- Node5 -->
<g id="node5" class="node">
<title>Node5</title>
<g id="a_node5"><a xlink:href="run_8h.html#aa438e424237818b7728b98cd764e45d1" target="_top" xlink:title=" ">
<polygon fill="white" stroke="black" points="352,-114.5 352,-133.5 448,-133.5 448,-114.5 352,-114.5"/>
<text text-anchor="middle" x="400" y="-121.5" font-family="Helvetica,sans-Serif" font-size="10.00">run_gravity_test</text>
</a>
</g>
</g>
<!-- Node2&#45;&gt;Node5 -->
<g id="edge4" class="edge">
<title>Node2&#45;&gt;Node5</title>
<path fill="none" stroke="midnightblue" d="M487.11,-149.46C469.63,-144.3 449.7,-138.4 433.42,-133.59"/>
<polygon fill="midnightblue" stroke="midnightblue" points="486.49,-152.93 497.07,-152.41 488.48,-146.22 486.49,-152.93"/>
</g>
<!-- Node4 -->
<g id="node4" class="node">
<title>Node4</title>
<g id="a_node4"><a xlink:href="gadget_2main_8c.html#a3c04138a5bfe5d72780bb7e82a18e627" target="_top" xlink:title=" ">
<polygon fill="white" stroke="black" points="110.5,-133.5 110.5,-152.5 151.5,-152.5 151.5,-133.5 110.5,-133.5"/>
<text text-anchor="middle" x="131" y="-140.5" font-family="Helvetica,sans-Serif" font-size="10.00">main</text>
</a>
</g>
</g>
<!-- Node3&#45;&gt;Node4 -->
<g id="edge3" class="edge">
<title>Node3&#45;&gt;Node4</title>
<path fill="none" stroke="midnightblue" d="M373.69,-160.2C320.82,-156.44 199.63,-147.81 151.87,-144.41"/>
<polygon fill="midnightblue" stroke="midnightblue" points="373.66,-163.71 383.88,-160.92 374.15,-156.72 373.66,-163.71"/>
</g>
<!-- Node6 -->
<g id="node6" class="node">
<title>Node6</title>
<g id="a_node6"><a xlink:href="run_8c.html#ab1d8bf99f794003fa95002043fe3b47c" target="_top" xlink:title=" ">
<polygon fill="white" stroke="black" points="240.5,-114.5 240.5,-133.5 296.5,-133.5 296.5,-114.5 240.5,-114.5"/>
<text text-anchor="middle" x="268.5" y="-121.5" font-family="Helvetica,sans-Serif" font-size="10.00">runtests</text>
</a>
</g>
</g>
<!-- Node5&#45;&gt;Node6 -->
<g id="edge5" class="edge">
<title>Node5&#45;&gt;Node6</title>
<path fill="none" stroke="midnightblue" d="M341.74,-124C326.12,-124 309.9,-124 296.81,-124"/>
<polygon fill="midnightblue" stroke="midnightblue" points="341.88,-127.5 351.88,-124 341.88,-120.5 341.88,-127.5"/>
</g>
<!-- Node6&#45;&gt;Node4 -->
<g id="edge6" class="edge">
<title>Node6&#45;&gt;Node4</title>
<path fill="none" stroke="midnightblue" d="M230.35,-129.21C204.89,-132.78 172.13,-137.37 151.59,-140.25"/>
<polygon fill="midnightblue" stroke="midnightblue" points="230.99,-132.65 240.41,-127.8 230.02,-125.72 230.99,-132.65"/>
</g>
<!-- Node7&#45;&gt;Node3 -->
<g id="edge16" class="edge">
<title>Node7&#45;&gt;Node3</title>
<path fill="none" stroke="midnightblue" d="M487.31,-136.48C462.93,-143.69 433.71,-152.33 416.29,-157.48"/>
<polygon fill="midnightblue" stroke="midnightblue" points="488.48,-139.78 497.07,-133.59 486.49,-133.07 488.48,-139.78"/>
</g>
<!-- Node7&#45;&gt;Node5 -->
<g id="edge17" class="edge">
<title>Node7&#45;&gt;Node5</title>
<path fill="none" stroke="midnightblue" d="M473.65,-124C465.18,-124 456.52,-124 448.26,-124"/>
<polygon fill="midnightblue" stroke="midnightblue" points="473.83,-127.5 483.83,-124 473.83,-120.5 473.83,-127.5"/>
</g>
<!-- Node8 -->
<g id="node8" class="node">
<title>Node8</title>
<g id="a_node8"><a xlink:href="test__gravity_8c.html#aa6bdcef3f6cb327efb3f2f993f64b7ce" target="_top" xlink:title=" ">
<polygon fill="white" stroke="black" points="358.5,-57.5 358.5,-76.5 441.5,-76.5 441.5,-57.5 358.5,-57.5"/>
<text text-anchor="middle" x="400" y="-64.5" font-family="Helvetica,sans-Serif" font-size="10.00">do_force_test</text>
</a>
</g>
</g>
<!-- Node7&#45;&gt;Node8 -->
<g id="edge8" class="edge">
<title>Node7&#45;&gt;Node8</title>
<path fill="none" stroke="midnightblue" d="M498.8,-110.38C475.29,-99.95 443.45,-85.83 422.58,-76.57"/>
<polygon fill="midnightblue" stroke="midnightblue" points="497.43,-113.6 507.99,-114.46 500.27,-107.21 497.43,-113.6"/>
</g>
<!-- Node9 -->
<g id="node9" class="node">
<title>Node9</title>
<g id="a_node9"><a xlink:href="test__gravity_8c.html#a31e06bbad4eac810c349a6bc44a0aa08" target="_top" xlink:title=" ">
<polygon fill="white" stroke="black" points="221,-76.5 221,-95.5 316,-95.5 316,-76.5 221,-76.5"/>
<text text-anchor="middle" x="268.5" y="-83.5" font-family="Helvetica,sans-Serif" font-size="10.00">do_random_test</text>
</a>
</g>
</g>
<!-- Node8&#45;&gt;Node9 -->
<g id="edge9" class="edge">
<title>Node8&#45;&gt;Node9</title>
<path fill="none" stroke="midnightblue" d="M348.44,-74.42C337.86,-75.97 326.74,-77.6 316.31,-79.13"/>
<polygon fill="midnightblue" stroke="midnightblue" points="348.99,-77.87 358.38,-72.96 347.98,-70.95 348.99,-77.87"/>
</g>
<!-- Node12 -->
<g id="node12" class="node">
<title>Node12</title>
<g id="a_node12"><a xlink:href="test__gravity_8c.html#ac3391a3ee98d428389e50b886e988c63" target="_top" xlink:title=" ">
<polygon fill="white" stroke="black" points="83,-38.5 83,-57.5 179,-57.5 179,-38.5 83,-38.5"/>
<text text-anchor="middle" x="131" y="-45.5" font-family="Helvetica,sans-Serif" font-size="10.00">test_force_close</text>
</a>
</g>
</g>
<!-- Node8&#45;&gt;Node12 -->
<g id="edge12" class="edge">
<title>Node8&#45;&gt;Node12</title>
<path fill="none" stroke="midnightblue" d="M348.45,-63.4C299.79,-59.94 226.77,-54.74 179.25,-51.36"/>
<polygon fill="midnightblue" stroke="midnightblue" points="348.23,-66.9 358.45,-64.11 348.72,-59.91 348.23,-66.9"/>
</g>
<!-- Node13 -->
<g id="node13" class="node">
<title>Node13</title>
<g id="a_node13"><a xlink:href="test__gravity_8c.html#a87bcba11fc8f8f2ad649784bb1b8a48d" target="_top" xlink:title=" ">
<polygon fill="white" stroke="black" points="225.5,-0.5 225.5,-19.5 311.5,-19.5 311.5,-0.5 225.5,-0.5"/>
<text text-anchor="middle" x="268.5" y="-7.5" font-family="Helvetica,sans-Serif" font-size="10.00">test_force_flat</text>
</a>
</g>
</g>
<!-- Node8&#45;&gt;Node13 -->
<g id="edge14" class="edge">
<title>Node8&#45;&gt;Node13</title>
<path fill="none" stroke="midnightblue" d="M368.06,-53.38C344.37,-42.95 312.28,-28.83 291.25,-19.57"/>
<polygon fill="midnightblue" stroke="midnightblue" points="366.76,-56.63 377.32,-57.46 369.58,-50.23 366.76,-56.63"/>
</g>
<!-- Node10 -->
<g id="node10" class="node">
<title>Node10</title>
<g id="a_node10"><a xlink:href="test__gravity_8c.html#a17492d7388898745e66a636173c8ce1d" target="_top" xlink:title=" ">
<polygon fill="white" stroke="black" points="77,-76.5 77,-95.5 185,-95.5 185,-76.5 77,-76.5"/>
<text text-anchor="middle" x="131" y="-83.5" font-family="Helvetica,sans-Serif" font-size="10.00">test_force_random</text>
</a>
</g>
</g>
<!-- Node9&#45;&gt;Node10 -->
<g id="edge10" class="edge">
<title>Node9&#45;&gt;Node10</title>
<path fill="none" stroke="midnightblue" d="M210.72,-86C202.28,-86 193.6,-86 185.23,-86"/>
<polygon fill="midnightblue" stroke="midnightblue" points="210.87,-89.5 220.87,-86 210.87,-82.5 210.87,-89.5"/>
</g>
<!-- Node11 -->
<g id="node11" class="node">
<title>Node11</title>
<g id="a_node11"><a xlink:href="test__gravity_8c.html#a840291bc02cba5474a4cb46a9b9566fe" target="_top" xlink:title=" ">
<polygon fill="white" stroke="black" points="0,-38.5 0,-57.5 41,-57.5 41,-38.5 0,-38.5"/>
<text text-anchor="middle" x="20.5" y="-45.5" font-family="Helvetica,sans-Serif" font-size="10.00">main</text>
</a>
</g>
</g>
<!-- Node10&#45;&gt;Node11 -->
<g id="edge11" class="edge">
<title>Node10&#45;&gt;Node11</title>
<path fill="none" stroke="midnightblue" d="M92.81,-72.97C75.54,-66.93 55.7,-59.98 41.34,-54.95"/>
<polygon fill="midnightblue" stroke="midnightblue" points="92.03,-76.41 102.62,-76.41 94.34,-69.8 92.03,-76.41"/>
</g>
<!-- Node12&#45;&gt;Node11 -->
<g id="edge13" class="edge">
<title>Node12&#45;&gt;Node11</title>
<path fill="none" stroke="midnightblue" d="M72.39,-48C61.13,-48 50.07,-48 41.15,-48"/>
<polygon fill="midnightblue" stroke="midnightblue" points="72.73,-51.5 82.73,-48 72.73,-44.5 72.73,-51.5"/>
</g>
<!-- Node13&#45;&gt;Node11 -->
<g id="edge15" class="edge">
<title>Node13&#45;&gt;Node11</title>
<path fill="none" stroke="midnightblue" d="M214.99,-11.98C176.44,-14.22 123.01,-18.97 77,-29 64.86,-31.65 51.69,-36.09 41.22,-40.01"/>
<polygon fill="midnightblue" stroke="midnightblue" points="215.65,-15.45 225.45,-11.42 215.27,-8.46 215.65,-15.45"/>
</g>
</g>
</svg>
