<?xml version="1.0" encoding="UTF-8" standalone="no"?>
<!DOCTYPE svg PUBLIC "-//W3C//DTD SVG 1.1//EN"
 "http://www.w3.org/Graphics/SVG/1.1/DTD/svg11.dtd">
<!-- Generated by graphviz version 2.38.0 (20140413.2041)
 -->
<!-- Title: force_x_transfer Pages: 1 -->
<svg width="95pt" height="172pt"
 viewBox="0.00 0.00 95.00 172.00" xmlns="http://www.w3.org/2000/svg" xmlns:xlink="http://www.w3.org/1999/xlink">
<g id="graph0" class="graph" transform="scale(1 1) rotate(0) translate(4 168)">
<title>force_x_transfer</title>
<polygon fill="white" stroke="none" points="-4,4 -4,-168 91,-168 91,4 -4,4"/>
<!-- Node47 -->
<g id="node1" class="node"><title>Node47</title>
<polygon fill="#bfbfbf" stroke="black" points="0,-0.5 0,-19.5 87,-19.5 87,-0.5 0,-0.5"/>
<text text-anchor="middle" x="43.5" y="-7.5" font-family="Helvetica,sans-Serif" font-size="10.00">force_x_transfer</text>
</g>
<!-- Node48 -->
<g id="node2" class="node"><title>Node48</title>
<g id="a_node2"><a xlink:href="gravpm_8c.html#a204128a928835d46e5ad9b1a7f5ee572" target="_top" xlink:title="force_transfer">
<polygon fill="white" stroke="black" points="5,-72.5 5,-91.5 82,-91.5 82,-72.5 5,-72.5"/>
<text text-anchor="middle" x="43.5" y="-79.5" font-family="Helvetica,sans-Serif" font-size="10.00">force_transfer</text>
</a>
</g>
</g>
<!-- Node47&#45;&gt;Node48 -->
<g id="edge1" class="edge"><title>Node47&#45;&gt;Node48</title>
<path fill="none" stroke="midnightblue" d="M43.5,-19.7102C43.5,-30.6139 43.5,-48.5923 43.5,-62.4388"/>
<polygon fill="midnightblue" stroke="midnightblue" points="40.0001,-62.4436 43.5,-72.4436 47.0001,-62.4436 40.0001,-62.4436"/>
</g>
<!-- Node49 -->
<g id="node3" class="node"><title>Node49</title>
<g id="a_node3"><a xlink:href="gravpm_8c.html#a0901828a11f1b20b1b418247706baee7" target="_top" xlink:title="diff_kernel">
<polygon fill="white" stroke="black" points="12.5,-144.5 12.5,-163.5 74.5,-163.5 74.5,-144.5 12.5,-144.5"/>
<text text-anchor="middle" x="43.5" y="-151.5" font-family="Helvetica,sans-Serif" font-size="10.00">diff_kernel</text>
</a>
</g>
</g>
<!-- Node48&#45;&gt;Node49 -->
<g id="edge2" class="edge"><title>Node48&#45;&gt;Node49</title>
<path fill="none" stroke="midnightblue" d="M43.5,-91.7102C43.5,-102.614 43.5,-120.592 43.5,-134.439"/>
<polygon fill="midnightblue" stroke="midnightblue" points="39.9999,-134.444 43.5,-144.444 46.9999,-134.444 39.9999,-134.444"/>
</g>
</g>
</svg>
