<?xml version="1.0" encoding="UTF-8" standalone="no"?>
<!DOCTYPE svg PUBLIC "-//W3C//DTD SVG 1.1//EN"
 "http://www.w3.org/Graphics/SVG/1.1/DTD/svg11.dtd">
<!-- Generated by graphviz version 2.38.0 (20140413.2041)
 -->
<!-- Title: gravshort.h Pages: 1 -->
<!--zoomable 456 -->
<svg id="main" version="1.1" xmlns="http://www.w3.org/2000/svg" xmlns:xlink="http://www.w3.org/1999/xlink" xml:space="preserve" onload="init(evt)">
<style type="text/css"><![CDATA[
.edge:hover path { stroke: red; }
.edge:hover polygon { stroke: red; fill: red; }
]]></style>
<script type="text/javascript"><![CDATA[
var edges = document.getElementsByTagName('g');
if (edges && edges.length) {
  for (var i=0;i<edges.length;i++) {
    if (edges[i].id.substr(0,4)=='edge') {
      edges[i].setAttribute('class','edge');
    }
  }
}
]]></script>
        <defs>
                <circle id="rim" cx="0" cy="0" r="7"/>
                <circle id="rim2" cx="0" cy="0" r="3.5"/>
                <g id="zoomPlus">
                        <use xlink:href="#rim" fill="#404040">
                                <set attributeName="fill" to="#808080" begin="zoomplus.mouseover" end="zoomplus.mouseout"/>
                        </use>
                        <path d="M-4,0h8M0,-4v8" fill="none" stroke="white" stroke-width="1.5" pointer-events="none"/>
                </g>
                <g id="zoomMin">
                        <use xlink:href="#rim" fill="#404040">
                                <set attributeName="fill" to="#808080" begin="zoomminus.mouseover" end="zoomminus.mouseout"/>
                        </use>
                        <path d="M-4,0h8" fill="none" stroke="white" stroke-width="1.5" pointer-events="none"/>
                </g>
                <g id="dirArrow">
                        <path fill="none" stroke="white" stroke-width="1.5" d="M0,-3.0v7 M-2.5,-0.5L0,-3.0L2.5,-0.5"/>
                </g>
               <g id="resetDef">
                       <use xlink:href="#rim2" fill="#404040">
                               <set attributeName="fill" to="#808080" begin="reset.mouseover" end="reset.mouseout"/>
                       </use>
               </g>
        </defs>

<script type="text/javascript">
var viewWidth = 593;
var viewHeight = 456;
var sectionId = 'dynsection-0';
</script>
<script xlink:href="svgpan.js"/>
<svg id="graph" class="graph">
<g id="viewport">
<title>gravshort.h</title>
<polygon fill="white" stroke="none" points="-4,4 -4,-451.603 589.25,-451.603 589.25,4 -4,4"/>
<!-- Node0 -->
<g id="node1" class="node"><title>Node0</title>
<polygon fill="#bfbfbf" stroke="black" points="455.167,-173.732 455.167,-192.732 520.167,-192.732 520.167,-173.732 455.167,-173.732"/>
<text text-anchor="middle" x="487.667" y="-180.732" font-family="Helvetica,sans-Serif" font-size="10.00">gravshort.h</text>
</g>
<!-- Node1 -->
<g id="node2" class="node"><title>Node1</title>
<g id="a_node2"><a xlink:href="partmanager_8h.html" target="_top" xlink:title="partmanager.h">
<polygon fill="white" stroke="black" points="448.167,-254.871 448.167,-273.871 527.167,-273.871 527.167,-254.871 448.167,-254.871"/>
<text text-anchor="middle" x="487.667" y="-261.871" font-family="Helvetica,sans-Serif" font-size="10.00">partmanager.h</text>
</a>
</g>
</g>
<!-- Node0&#45;&gt;Node1 -->
<g id="edge1" class="edge"><title>Node0&#45;&gt;Node1</title>
<path fill="none" stroke="midnightblue" d="M487.667,-192.858C487.667,-205.546 487.667,-228.176 487.667,-244.587"/>
<polygon fill="midnightblue" stroke="midnightblue" points="484.167,-244.757 487.667,-254.757 491.167,-244.757 484.167,-244.757"/>
</g>
<!-- Node7 -->
<g id="node8" class="node"><title>Node7</title>
<g id="a_node8"><a xlink:href="treewalk_8h.html" target="_top" xlink:title="treewalk.h">
<polygon fill="white" stroke="black" points="387.583,-194.017 387.583,-213.017 449.583,-213.017 449.583,-194.017 387.583,-194.017"/>
<text text-anchor="middle" x="418.583" y="-201.017" font-family="Helvetica,sans-Serif" font-size="10.00">treewalk.h</text>
</a>
</g>
</g>
<!-- Node0&#45;&gt;Node7 -->
<g id="edge8" class="edge"><title>Node0&#45;&gt;Node7</title>
<path fill="none" stroke="midnightblue" d="M455.148,-192.78C455.034,-192.814 454.921,-192.847 454.807,-192.881"/>
<polygon fill="midnightblue" stroke="midnightblue" points="458.295,-188.208 449.686,-194.384 460.268,-194.925 458.295,-188.208"/>
</g>
<!-- Node2 -->
<g id="node3" class="node"><title>Node2</title>
<polygon fill="white" stroke="#bfbfbf" points="528.25,-275.156 528.25,-294.156 585.25,-294.156 585.25,-275.156 528.25,-275.156"/>
<text text-anchor="middle" x="556.75" y="-282.156" font-family="Helvetica,sans-Serif" font-size="10.00">pthread.h</text>
</g>
<!-- Node1&#45;&gt;Node2 -->
<g id="edge2" class="edge"><title>Node1&#45;&gt;Node2</title>
<path fill="none" stroke="midnightblue" d="M520.186,-273.919C520.352,-273.968 520.518,-274.017 520.685,-274.066"/>
<polygon fill="midnightblue" stroke="midnightblue" points="517.569,-276.799 528.15,-276.258 519.541,-270.082 517.569,-276.799"/>
</g>
<!-- Node3 -->
<g id="node4" class="node"><title>Node3</title>
<g id="a_node4"><a xlink:href="types_8h.html" target="_top" xlink:title="types.h">
<polygon fill="white" stroke="black" points="264.43,-253.228 264.43,-272.228 313.43,-272.228 313.43,-253.228 264.43,-253.228"/>
<text text-anchor="middle" x="288.93" y="-260.228" font-family="Helvetica,sans-Serif" font-size="10.00">types.h</text>
</a>
</g>
</g>
<!-- Node1&#45;&gt;Node3 -->
<g id="edge3" class="edge"><title>Node1&#45;&gt;Node3</title>
<path fill="none" stroke="midnightblue" d="M447.927,-264.042C411.587,-263.742 358.363,-263.302 323.682,-263.015"/>
<polygon fill="midnightblue" stroke="midnightblue" points="323.581,-259.514 313.553,-262.931 323.523,-266.514 323.581,-259.514"/>
</g>
<!-- Node5 -->
<g id="node6" class="node"><title>Node5</title>
<g id="a_node6"><a xlink:href="peano_8h.html" target="_top" xlink:title="peano.h">
<polygon fill="white" stroke="black" points="371.15,-159.887 371.15,-178.887 422.15,-178.887 422.15,-159.887 371.15,-159.887"/>
<text text-anchor="middle" x="396.65" y="-166.887" font-family="Helvetica,sans-Serif" font-size="10.00">peano.h</text>
</a>
</g>
</g>
<!-- Node1&#45;&gt;Node5 -->
<g id="edge5" class="edge"><title>Node1&#45;&gt;Node5</title>
<path fill="none" stroke="midnightblue" d="M478.269,-254.564C462.861,-238.483 432.036,-206.316 412.991,-186.441"/>
<polygon fill="midnightblue" stroke="midnightblue" points="415.307,-183.798 405.861,-179 410.253,-188.642 415.307,-183.798"/>
</g>
<!-- Node4 -->
<g id="node5" class="node"><title>Node4</title>
<polygon fill="white" stroke="#bfbfbf" points="325,-214.301 325,-233.301 374,-233.301 374,-214.301 325,-214.301"/>
<text text-anchor="middle" x="349.5" y="-221.301" font-family="Helvetica,sans-Serif" font-size="10.00">stdint.h</text>
</g>
<!-- Node3&#45;&gt;Node4 -->
<g id="edge4" class="edge"><title>Node3&#45;&gt;Node4</title>
<path fill="none" stroke="midnightblue" d="M303.902,-253.105C310.65,-248.769 318.775,-243.547 326.285,-238.721"/>
<polygon fill="midnightblue" stroke="midnightblue" points="328.18,-241.664 334.7,-233.313 324.395,-235.775 328.18,-241.664"/>
</g>
<!-- Node5&#45;&gt;Node4 -->
<g id="edge7" class="edge"><title>Node5&#45;&gt;Node4</title>
<path fill="none" stroke="midnightblue" d="M388.221,-179.116C381.65,-186.699 372.357,-197.423 364.522,-206.465"/>
<polygon fill="midnightblue" stroke="midnightblue" points="361.76,-204.308 357.856,-214.158 367.05,-208.892 361.76,-204.308"/>
</g>
<!-- Node6 -->
<g id="node7" class="node"><title>Node6</title>
<polygon fill="white" stroke="#bfbfbf" points="417.8,-105.473 417.8,-124.473 469.8,-124.473 469.8,-105.473 417.8,-105.473"/>
<text text-anchor="middle" x="443.8" y="-112.473" font-family="Helvetica,sans-Serif" font-size="10.00">stddef.h</text>
</g>
<!-- Node5&#45;&gt;Node6 -->
<g id="edge6" class="edge"><title>Node5&#45;&gt;Node6</title>
<path fill="none" stroke="midnightblue" d="M405.079,-159.659C411.65,-152.076 420.943,-141.352 428.778,-132.31"/>
<polygon fill="midnightblue" stroke="midnightblue" points="431.54,-134.467 435.443,-124.617 426.25,-129.883 431.54,-134.467"/>
</g>
<!-- Node7&#45;&gt;Node4 -->
<g id="edge9" class="edge"><title>Node7&#45;&gt;Node4</title>
<path fill="none" stroke="midnightblue" d="M387.276,-212.709C386.169,-213.034 385.058,-213.361 383.947,-213.687"/>
<polygon fill="midnightblue" stroke="midnightblue" points="382.684,-210.41 374.075,-216.586 384.656,-217.126 382.684,-210.41"/>
</g>
<!-- Node8 -->
<g id="node9" class="node"><title>Node8</title>
<g id="a_node9"><a xlink:href="allvars_8h.html" target="_top" xlink:title="declares global variables. ">
<polygon fill="white" stroke="black" points="184.833,-254.871 184.833,-273.871 237.833,-273.871 237.833,-254.871 184.833,-254.871"/>
<text text-anchor="middle" x="211.333" y="-261.871" font-family="Helvetica,sans-Serif" font-size="10.00">allvars.h</text>
</a>
</g>
</g>
<!-- Node7&#45;&gt;Node8 -->
<g id="edge10" class="edge"><title>Node7&#45;&gt;Node8</title>
<path fill="none" stroke="midnightblue" d="M387.556,-212.627C350.159,-223.608 287.413,-242.032 247.756,-253.676"/>
<polygon fill="midnightblue" stroke="midnightblue" points="246.566,-250.378 237.957,-256.553 248.538,-257.094 246.566,-250.378"/>
</g>
<!-- Node8&#45;&gt;Node3 -->
<g id="edge21" class="edge"><title>Node8&#45;&gt;Node3</title>
<path fill="none" stroke="midnightblue" d="M238.037,-263.805C243.22,-263.696 248.723,-263.579 254.121,-263.465"/>
<polygon fill="midnightblue" stroke="midnightblue" points="254.339,-266.961 264.263,-263.25 254.191,-259.963 254.339,-266.961"/>
</g>
<!-- Node9 -->
<g id="node10" class="node"><title>Node9</title>
<polygon fill="white" stroke="#bfbfbf" points="470.45,-377.543 470.45,-396.543 511.45,-396.543 511.45,-377.543 470.45,-377.543"/>
<text text-anchor="middle" x="490.95" y="-384.543" font-family="Helvetica,sans-Serif" font-size="10.00">mpi.h</text>
</g>
<!-- Node8&#45;&gt;Node9 -->
<g id="edge11" class="edge"><title>Node8&#45;&gt;Node9</title>
<path fill="none" stroke="midnightblue" d="M233.274,-273.997C282.948,-295.79 404.086,-348.935 460.77,-373.803"/>
<polygon fill="midnightblue" stroke="midnightblue" points="459.691,-377.151 470.254,-377.964 462.503,-370.741 459.691,-377.151"/>
</g>
<!-- Node10 -->
<g id="node11" class="node"><title>Node10</title>
<polygon fill="white" stroke="#bfbfbf" points="357.24,-428.103 357.24,-447.103 403.24,-447.103 403.24,-428.103 357.24,-428.103"/>
<text text-anchor="middle" x="380.24" y="-435.103" font-family="Helvetica,sans-Serif" font-size="10.00">stdio.h</text>
</g>
<!-- Node8&#45;&gt;Node10 -->
<g id="edge12" class="edge"><title>Node8&#45;&gt;Node10</title>
<path fill="none" stroke="midnightblue" d="M220.655,-273.931C248.045,-302.023 328.548,-384.588 363.607,-420.544"/>
<polygon fill="midnightblue" stroke="midnightblue" points="361.252,-423.142 370.739,-427.858 366.264,-418.255 361.252,-423.142"/>
</g>
<!-- Node11 -->
<g id="node12" class="node"><title>Node11</title>
<polygon fill="white" stroke="#bfbfbf" points="223.77,-410.782 223.77,-429.782 295.77,-429.782 295.77,-410.782 223.77,-410.782"/>
<text text-anchor="middle" x="259.77" y="-417.782" font-family="Helvetica,sans-Serif" font-size="10.00">gsl/gsl_rng.h</text>
</g>
<!-- Node8&#45;&gt;Node11 -->
<g id="edge13" class="edge"><title>Node8&#45;&gt;Node11</title>
<path fill="none" stroke="midnightblue" d="M214.363,-274.124C222.212,-299.389 243.32,-367.332 253.758,-400.929"/>
<polygon fill="midnightblue" stroke="midnightblue" points="250.432,-402.021 256.742,-410.533 257.117,-399.945 250.432,-402.021"/>
</g>
<!-- Node12 -->
<g id="node13" class="node"><title>Node12</title>
<polygon fill="white" stroke="#bfbfbf" points="142.789,-331.08 142.789,-350.08 192.789,-350.08 192.789,-331.08 142.789,-331.08"/>
<text text-anchor="middle" x="167.789" y="-338.08" font-family="Helvetica,sans-Serif" font-size="10.00">signal.h</text>
</g>
<!-- Node8&#45;&gt;Node12 -->
<g id="edge14" class="edge"><title>Node8&#45;&gt;Node12</title>
<path fill="none" stroke="midnightblue" d="M205.818,-274.023C198.985,-285.982 187.188,-306.629 178.541,-321.763"/>
<polygon fill="midnightblue" stroke="midnightblue" points="175.319,-320.347 173.397,-330.766 181.397,-323.819 175.319,-320.347"/>
</g>
<!-- Node13 -->
<g id="node14" class="node"><title>Node13</title>
<g id="a_node14"><a xlink:href="cosmology_8h.html" target="_top" xlink:title="cosmology.h">
<polygon fill="white" stroke="black" points="97.5,-214.301 97.5,-233.301 169.5,-233.301 169.5,-214.301 97.5,-214.301"/>
<text text-anchor="middle" x="133.5" y="-221.301" font-family="Helvetica,sans-Serif" font-size="10.00">cosmology.h</text>
</a>
</g>
</g>
<!-- Node8&#45;&gt;Node13 -->
<g id="edge15" class="edge"><title>Node8&#45;&gt;Node13</title>
<path fill="none" stroke="midnightblue" d="M192.888,-254.757C183.291,-249.755 171.374,-243.543 160.738,-237.999"/>
<polygon fill="midnightblue" stroke="midnightblue" points="162.298,-234.865 151.813,-233.347 159.063,-241.073 162.298,-234.865"/>
</g>
<!-- Node15 -->
<g id="node16" class="node"><title>Node15</title>
<g id="a_node16"><a xlink:href="walltime_8h.html" target="_top" xlink:title="walltime.h">
<polygon fill="white" stroke="black" points="137.289,-97.523 137.289,-116.523 198.289,-116.523 198.289,-97.523 137.289,-97.523"/>
<text text-anchor="middle" x="167.789" y="-104.523" font-family="Helvetica,sans-Serif" font-size="10.00">walltime.h</text>
</a>
</g>
</g>
<!-- Node8&#45;&gt;Node15 -->
<g id="edge18" class="edge"><title>Node8&#45;&gt;Node15</title>
<path fill="none" stroke="midnightblue" d="M208.609,-254.528C201.553,-229.03 182.577,-160.461 173.194,-126.554"/>
<polygon fill="midnightblue" stroke="midnightblue" points="176.552,-125.566 170.512,-116.862 169.806,-127.433 176.552,-125.566"/>
</g>
<!-- Node16 -->
<g id="node17" class="node"><title>Node16</title>
<polygon fill="white" stroke="#bfbfbf" points="233.77,-17.8209 233.77,-36.8209 285.77,-36.8209 285.77,-17.8209 233.77,-17.8209"/>
<text text-anchor="middle" x="259.77" y="-24.8209" font-family="Helvetica,sans-Serif" font-size="10.00">assert.h</text>
</g>
<!-- Node8&#45;&gt;Node16 -->
<g id="edge19" class="edge"><title>Node8&#45;&gt;Node16</title>
<path fill="none" stroke="midnightblue" d="M213.292,-254.785C220.533,-219.347 245.88,-95.301 255.773,-46.886"/>
<polygon fill="midnightblue" stroke="midnightblue" points="259.214,-47.5247 257.787,-37.0264 252.356,-46.1233 259.214,-47.5247"/>
</g>
<!-- Node17 -->
<g id="node18" class="node"><title>Node17</title>
<g id="a_node18"><a xlink:href="physconst_8h.html" target="_top" xlink:title="physconst.h">
<polygon fill="white" stroke="black" points="345.24,-0.5 345.24,-19.5 415.24,-19.5 415.24,-0.5 345.24,-0.5"/>
<text text-anchor="middle" x="380.24" y="-7.5" font-family="Helvetica,sans-Serif" font-size="10.00">physconst.h</text>
</a>
</g>
</g>
<!-- Node8&#45;&gt;Node17 -->
<g id="edge20" class="edge"><title>Node8&#45;&gt;Node17</title>
<path fill="none" stroke="midnightblue" d="M217.748,-254.71C242.883,-216.857 334.911,-78.2645 368.157,-28.1972"/>
<polygon fill="midnightblue" stroke="midnightblue" points="371.202,-29.9375 373.819,-19.6707 365.371,-26.0652 371.202,-29.9375"/>
</g>
<!-- Node13&#45;&gt;Node6 -->
<g id="edge16" class="edge"><title>Node13&#45;&gt;Node6</title>
<path fill="none" stroke="midnightblue" d="M160.765,-214.239C216.917,-194.546 345.438,-149.471 408.114,-127.489"/>
<polygon fill="midnightblue" stroke="midnightblue" points="409.308,-130.779 417.586,-124.167 406.992,-124.174 409.308,-130.779"/>
</g>
<!-- Node14 -->
<g id="node15" class="node"><title>Node14</title>
<polygon fill="white" stroke="#bfbfbf" points="-4.26326e-14,-208.801 -4.26326e-14,-238.801 123,-238.801 123,-208.801 -4.26326e-14,-208.801"/>
<text text-anchor="start" x="8" y="-226.801" font-family="Helvetica,sans-Serif" font-size="10.00">kspace&#45;neutrinos/omega</text>
<text text-anchor="middle" x="61.5" y="-215.801" font-family="Helvetica,sans-Serif" font-size="10.00">_nu_single.h</text>
</g>
<!-- Node13&#45;&gt;Node14 -->
<g id="edge17" class="edge"><title>Node13&#45;&gt;Node14</title>
<path fill="none" stroke="midnightblue" d="M97.0781,-223.801C97.0084,-223.801 96.9386,-223.801 96.8689,-223.801"/>
<polygon fill="midnightblue" stroke="midnightblue" points="106.661,-220.306 96.6596,-223.801 106.658,-227.306 106.661,-220.306"/>
</g>
</g>
</svg>
        <g id="navigator" transform="translate(0 0)" fill="#404254">
                <rect fill="#f2f5e9" fill-opacity="0.5" stroke="#606060" stroke-width=".5" x="0" y="0" width="60" height="60"/>
                <use id="zoomplus" xlink:href="#zoomPlus" x="17" y="9" onmousedown="handleZoom(evt,'in')"/>
                <use id="zoomminus" xlink:href="#zoomMin" x="42" y="9" onmousedown="handleZoom(evt,'out')"/>
                <use id="reset" xlink:href="#resetDef" x="30" y="36" onmousedown="handleReset()"/>
                <g id="arrowUp" xlink:href="#dirArrow" transform="translate(30 24)" onmousedown="handlePan(0,-1)">
                  <use xlink:href="#rim" fill="#404040">
                        <set attributeName="fill" to="#808080" begin="arrowUp.mouseover" end="arrowUp.mouseout"/>
                  </use>
                  <path fill="none" stroke="white" stroke-width="1.5" d="M0,-3.0v7 M-2.5,-0.5L0,-3.0L2.5,-0.5"/>
                </g>
                <g id="arrowRight" xlink:href="#dirArrow" transform="rotate(90) translate(36 -43)" onmousedown="handlePan(1,0)">
                  <use xlink:href="#rim" fill="#404040">
                        <set attributeName="fill" to="#808080" begin="arrowRight.mouseover" end="arrowRight.mouseout"/>
                  </use>
                  <path fill="none" stroke="white" stroke-width="1.5" d="M0,-3.0v7 M-2.5,-0.5L0,-3.0L2.5,-0.5"/>
                </g>
                <g id="arrowDown" xlink:href="#dirArrow" transform="rotate(180) translate(-30 -48)" onmousedown="handlePan(0,1)">
                  <use xlink:href="#rim" fill="#404040">
                        <set attributeName="fill" to="#808080" begin="arrowDown.mouseover" end="arrowDown.mouseout"/>
                  </use>
                  <path fill="none" stroke="white" stroke-width="1.5" d="M0,-3.0v7 M-2.5,-0.5L0,-3.0L2.5,-0.5"/>
                </g>
                <g id="arrowLeft" xlink:href="#dirArrow" transform="rotate(270) translate(-36 17)" onmousedown="handlePan(-1,0)">
                  <use xlink:href="#rim" fill="#404040">
                        <set attributeName="fill" to="#808080" begin="arrowLeft.mouseover" end="arrowLeft.mouseout"/>
                  </use>
                  <path fill="none" stroke="white" stroke-width="1.5" d="M0,-3.0v7 M-2.5,-0.5L0,-3.0L2.5,-0.5"/>
                </g>
        </g>
        <svg viewBox="0 0 15 15" width="100%" height="30px" preserveAspectRatio="xMaxYMin meet">
         <g id="arrow_out" transform="scale(0.3 0.3)">
          <a xlink:href="gravshort_8h__incl_org.svg" target="_base">
           <rect id="button" ry="5" rx="5" y="6" x="6" height="38" width="38"
                fill="#f2f5e9" fill-opacity="0.5" stroke="#606060" stroke-width="1.0"/>
           <path id="arrow"
             d="M 11.500037,31.436501 C 11.940474,20.09759 22.043105,11.32322 32.158766,21.979434 L 37.068811,17.246167 C 37.068811,17.246167 37.088388,32 37.088388,32 L 22.160133,31.978069 C 22.160133,31.978069 26.997745,27.140456 26.997745,27.140456 C 18.528582,18.264221 13.291696,25.230495 11.500037,31.436501 z"
             style="fill:#404040;"/>
          </a>
         </g>
        </svg>
</svg>
