<?xml version="1.0" encoding="UTF-8" standalone="no"?>
<!DOCTYPE svg PUBLIC "-//W3C//DTD SVG 1.1//EN"
 "http://www.w3.org/Graphics/SVG/1.1/DTD/svg11.dtd">
<!-- Generated by graphviz version 2.38.0 (20140413.2041)
 -->
<!-- Title: _prepare Pages: 1 -->
<svg width="487pt" height="385pt"
 viewBox="0.00 0.00 487.44 385.06" xmlns="http://www.w3.org/2000/svg" xmlns:xlink="http://www.w3.org/1999/xlink">
<g id="graph0" class="graph" transform="scale(1 1) rotate(0) translate(4 381.061)">
<title>_prepare</title>
<polygon fill="white" stroke="none" points="-4,4 -4,-381.061 483.439,-381.061 483.439,4 -4,4"/>
<!-- Node0 -->
<g id="node1" class="node"><title>Node0</title>
<polygon fill="#bfbfbf" stroke="black" points="151.466,-150.865 151.466,-169.865 205.466,-169.865 205.466,-150.865 151.466,-150.865"/>
<text text-anchor="middle" x="178.466" y="-157.865" font-family="Helvetica,sans-Serif" font-size="10.00">_prepare</text>
</g>
<!-- Node1 -->
<g id="node2" class="node"><title>Node1</title>
<g id="a_node2"><a xlink:href="gravpm_8c.html#accd212b17812e0df943ec2585bd11f53" target="_top" xlink:title="convert_node_to_region">
<polygon fill="white" stroke="black" points="44.1552,-305.78 44.1552,-324.78 164.155,-324.78 164.155,-305.78 44.1552,-305.78"/>
<text text-anchor="middle" x="104.155" y="-312.78" font-family="Helvetica,sans-Serif" font-size="10.00">convert_node_to_region</text>
</a>
</g>
</g>
<!-- Node0&#45;&gt;Node1 -->
<g id="edge1" class="edge"><title>Node0&#45;&gt;Node1</title>
<path fill="none" stroke="midnightblue" d="M173.817,-170.055C161.723,-195.268 129.112,-263.253 113.172,-296.482"/>
<polygon fill="midnightblue" stroke="midnightblue" points="109.971,-295.063 108.802,-305.593 116.283,-298.09 109.971,-295.063"/>
</g>
<!-- Node3 -->
<g id="node4" class="node"><title>Node3</title>
<g id="a_node4"><a xlink:href="endrun_8c.html#ad963d7efdb9f10f7a2298c8ccd222ab0" target="_top" xlink:title="endrun">
<polygon fill="white" stroke="black" points="191.466,-213.218 191.466,-232.218 237.466,-232.218 237.466,-213.218 191.466,-213.218"/>
<text text-anchor="middle" x="214.466" y="-220.218" font-family="Helvetica,sans-Serif" font-size="10.00">endrun</text>
</a>
</g>
</g>
<!-- Node0&#45;&gt;Node3 -->
<g id="edge3" class="edge"><title>Node0&#45;&gt;Node3</title>
<path fill="none" stroke="midnightblue" d="M184.091,-170.107C189.291,-179.115 197.162,-192.748 203.589,-203.879"/>
<polygon fill="midnightblue" stroke="midnightblue" points="200.73,-205.928 208.761,-212.838 206.792,-202.428 200.73,-205.928"/>
</g>
<!-- Node7 -->
<g id="node8" class="node"><title>Node7</title>
<g id="a_node8"><a xlink:href="forcetree_8c.html#aa1174e5cc4c75944aa98706941a70db9" target="_top" xlink:title="force_tree_allocated">
<polygon fill="white" stroke="black" points="18.4656,-213.218 18.4656,-232.218 122.466,-232.218 122.466,-213.218 18.4656,-213.218"/>
<text text-anchor="middle" x="70.4656" y="-220.218" font-family="Helvetica,sans-Serif" font-size="10.00">force_tree_allocated</text>
</a>
</g>
</g>
<!-- Node0&#45;&gt;Node7 -->
<g id="edge7" class="edge"><title>Node0&#45;&gt;Node7</title>
<path fill="none" stroke="midnightblue" d="M161.591,-170.107C143.996,-180.266 116.209,-196.308 95.9415,-208.01"/>
<polygon fill="midnightblue" stroke="midnightblue" points="94.1324,-205.013 87.2221,-213.044 97.6324,-211.075 94.1324,-205.013"/>
</g>
<!-- Node8 -->
<g id="node9" class="node"><title>Node8</title>
<g id="a_node9"><a xlink:href="forcetree_8c.html#a2ae933e7b7e909142281bae26f95cd00" target="_top" xlink:title="force_tree_free">
<polygon fill="white" stroke="black" points="101.466,-88.5108 101.466,-107.511 183.466,-107.511 183.466,-88.5108 101.466,-88.5108"/>
<text text-anchor="middle" x="142.466" y="-95.5108" font-family="Helvetica,sans-Serif" font-size="10.00">force_tree_free</text>
</a>
</g>
</g>
<!-- Node0&#45;&gt;Node8 -->
<g id="edge8" class="edge"><title>Node0&#45;&gt;Node8</title>
<path fill="none" stroke="midnightblue" d="M172.841,-150.622C167.64,-141.615 159.769,-127.981 153.342,-116.85"/>
<polygon fill="midnightblue" stroke="midnightblue" points="156.201,-114.801 148.17,-107.891 150.139,-118.301 156.201,-114.801"/>
</g>
<!-- Node11 -->
<g id="node12" class="node"><title>Node11</title>
<g id="a_node12"><a xlink:href="endrun_8c.html#a6567cd867c5549fb6586e19ccd819764" target="_top" xlink:title="message">
<polygon fill="white" stroke="black" points="161.46,-355.031 161.46,-374.031 217.46,-374.031 217.46,-355.031 161.46,-355.031"/>
<text text-anchor="middle" x="189.46" y="-362.031" font-family="Helvetica,sans-Serif" font-size="10.00">message</text>
</a>
</g>
</g>
<!-- Node0&#45;&gt;Node11 -->
<g id="edge11" class="edge"><title>Node0&#45;&gt;Node11</title>
<path fill="none" stroke="midnightblue" d="M178.981,-169.938C180.673,-201.347 186.077,-301.697 188.391,-344.681"/>
<polygon fill="midnightblue" stroke="midnightblue" points="184.9,-344.943 188.933,-354.74 191.89,-344.567 184.9,-344.943"/>
</g>
<!-- Node12 -->
<g id="node13" class="node"><title>Node12</title>
<g id="a_node13"><a xlink:href="gravpm_8c.html#a1158181959da09953817a6c44e213e89" target="_top" xlink:title="pm_mark_region_for_node">
<polygon fill="white" stroke="black" points="259.276,-120.657 259.276,-139.657 390.276,-139.657 390.276,-120.657 259.276,-120.657"/>
<text text-anchor="middle" x="324.776" y="-127.657" font-family="Helvetica,sans-Serif" font-size="10.00">pm_mark_region_for_node</text>
</a>
</g>
</g>
<!-- Node0&#45;&gt;Node12 -->
<g id="edge13" class="edge"><title>Node0&#45;&gt;Node12</title>
<path fill="none" stroke="midnightblue" d="M205.643,-154.754C223.264,-151.115 246.871,-146.242 268.422,-141.792"/>
<polygon fill="midnightblue" stroke="midnightblue" points="269.388,-145.166 278.474,-139.717 267.973,-138.311 269.388,-145.166"/>
</g>
<!-- Node2 -->
<g id="node3" class="node"><title>Node2</title>
<g id="a_node3"><a xlink:href="petapm_8c.html#aab9d79e0558c1678eac096c336bca66e" target="_top" xlink:title="petapm_region_init\l_strides">
<polygon fill="white" stroke="black" points="-1.42109e-14,-346.561 -1.42109e-14,-376.561 98,-376.561 98,-346.561 -1.42109e-14,-346.561"/>
<text text-anchor="start" x="8" y="-364.561" font-family="Helvetica,sans-Serif" font-size="10.00">petapm_region_init</text>
<text text-anchor="middle" x="49" y="-353.561" font-family="Helvetica,sans-Serif" font-size="10.00">_strides</text>
</a>
</g>
</g>
<!-- Node1&#45;&gt;Node2 -->
<g id="edge2" class="edge"><title>Node1&#45;&gt;Node2</title>
<path fill="none" stroke="midnightblue" d="M92.727,-324.869C87.4911,-329.263 81.0561,-334.662 74.7491,-339.955"/>
<polygon fill="midnightblue" stroke="midnightblue" points="72.3394,-337.408 66.9287,-346.517 76.839,-342.77 72.3394,-337.408"/>
</g>
<!-- Node4 -->
<g id="node5" class="node"><title>Node4</title>
<g id="a_node5"><a xlink:href="endrun_8c.html#a7267113a7c0a094743bb565eabc695d1" target="_top" xlink:title="messagev">
<polygon fill="white" stroke="black" points="219.466,-275.572 219.466,-294.572 281.466,-294.572 281.466,-275.572 219.466,-275.572"/>
<text text-anchor="middle" x="250.466" y="-282.572" font-family="Helvetica,sans-Serif" font-size="10.00">messagev</text>
</a>
</g>
</g>
<!-- Node3&#45;&gt;Node4 -->
<g id="edge4" class="edge"><title>Node3&#45;&gt;Node4</title>
<path fill="none" stroke="midnightblue" d="M220.091,-232.461C225.291,-241.468 233.162,-255.102 239.589,-266.233"/>
<polygon fill="midnightblue" stroke="midnightblue" points="236.73,-268.282 244.761,-275.192 242.792,-264.782 236.73,-268.282"/>
</g>
<!-- Node5 -->
<g id="node6" class="node"><title>Node5</title>
<g id="a_node6"><a xlink:href="endrun_8c.html#a87108946670b4c3afbe846c6726675ff" target="_top" xlink:title="putline">
<polygon fill="white" stroke="black" points="327.281,-262.469 327.281,-281.469 372.281,-281.469 372.281,-262.469 327.281,-262.469"/>
<text text-anchor="middle" x="349.781" y="-269.469" font-family="Helvetica,sans-Serif" font-size="10.00">putline</text>
</a>
</g>
</g>
<!-- Node4&#45;&gt;Node5 -->
<g id="edge5" class="edge"><title>Node4&#45;&gt;Node5</title>
<path fill="none" stroke="midnightblue" d="M281.617,-280.962C292.941,-279.468 305.764,-277.777 317.207,-276.267"/>
<polygon fill="midnightblue" stroke="midnightblue" points="317.791,-279.72 327.247,-274.942 316.875,-272.781 317.791,-279.72"/>
</g>
<!-- Node6 -->
<g id="node7" class="node"><title>Node6</title>
<g id="a_node7"><a xlink:href="endrun_8c.html#a1200f02a595ab7cbe17c9e36ff32af0f" target="_top" xlink:title="show_backtrace">
<polygon fill="white" stroke="black" points="242.466,-337.926 242.466,-356.926 330.466,-356.926 330.466,-337.926 242.466,-337.926"/>
<text text-anchor="middle" x="286.466" y="-344.926" font-family="Helvetica,sans-Serif" font-size="10.00">show_backtrace</text>
</a>
</g>
</g>
<!-- Node4&#45;&gt;Node6 -->
<g id="edge6" class="edge"><title>Node4&#45;&gt;Node6</title>
<path fill="none" stroke="midnightblue" d="M256.091,-294.815C261.291,-303.822 269.162,-317.456 275.589,-328.587"/>
<polygon fill="midnightblue" stroke="midnightblue" points="272.73,-330.636 280.761,-337.546 278.792,-327.136 272.73,-330.636"/>
</g>
<!-- Node9 -->
<g id="node10" class="node"><title>Node9</title>
<g id="a_node10"><a xlink:href="event_8c.html#a4b5347d345f55b1b454c1eeb02916ca8" target="_top" xlink:title="event_unlisten">
<polygon fill="white" stroke="black" points="9,-74.3764 9,-93.3764 89,-93.3764 89,-74.3764 9,-74.3764"/>
<text text-anchor="middle" x="49" y="-81.3764" font-family="Helvetica,sans-Serif" font-size="10.00">event_unlisten</text>
</a>
</g>
</g>
<!-- Node8&#45;&gt;Node9 -->
<g id="edge9" class="edge"><title>Node8&#45;&gt;Node9</title>
<path fill="none" stroke="midnightblue" d="M101.198,-91.7701C100.572,-91.6753 99.9437,-91.5804 99.3149,-91.4853"/>
<polygon fill="midnightblue" stroke="midnightblue" points="99.5361,-87.979 89.1251,-89.9443 98.4893,-94.9003 99.5361,-87.979"/>
</g>
<!-- Node10 -->
<g id="node11" class="node"><title>Node10</title>
<g id="a_node11"><a xlink:href="forcetree_8c.html#a6c833489d009e4b5e850dc5997214775" target="_top" xlink:title="force_tree_eh_slots_fork">
<polygon fill="white" stroke="black" points="114.958,-0.5 114.958,-19.5 238.958,-19.5 238.958,-0.5 114.958,-0.5"/>
<text text-anchor="middle" x="176.958" y="-7.5" font-family="Helvetica,sans-Serif" font-size="10.00">force_tree_eh_slots_fork</text>
</a>
</g>
</g>
<!-- Node8&#45;&gt;Node10 -->
<g id="edge10" class="edge"><title>Node8&#45;&gt;Node10</title>
<path fill="none" stroke="midnightblue" d="M146.289,-88.2558C151.886,-73.9726 162.421,-47.0908 169.564,-28.8657"/>
<polygon fill="midnightblue" stroke="midnightblue" points="172.832,-30.1188 173.222,-19.5311 166.315,-27.5645 172.832,-30.1188"/>
</g>
<!-- Node11&#45;&gt;Node4 -->
<g id="edge12" class="edge"><title>Node11&#45;&gt;Node4</title>
<path fill="none" stroke="midnightblue" d="M196.941,-354.788C206.82,-341.92 224.402,-319.02 236.711,-302.988"/>
<polygon fill="midnightblue" stroke="midnightblue" points="239.61,-304.958 242.924,-294.895 234.058,-300.696 239.61,-304.958"/>
</g>
<!-- Node12&#45;&gt;Node11 -->
<g id="edge15" class="edge"><title>Node12&#45;&gt;Node11</title>
<path fill="none" stroke="midnightblue" d="M319.134,-139.929C298.541,-175.598 227.216,-299.135 200.066,-346.161"/>
<polygon fill="midnightblue" stroke="midnightblue" points="196.946,-344.565 194.977,-354.976 203.008,-348.065 196.946,-344.565"/>
</g>
<!-- Node13 -->
<g id="node14" class="node"><title>Node13</title>
<g id="a_node14"><a xlink:href="forcetree_8h.html#ab0b97330acbcb19fd8b847d05c842842" target="_top" xlink:title="node_is_particle">
<polygon fill="white" stroke="black" points="278.966,-26.157 278.966,-45.157 365.966,-45.157 365.966,-26.157 278.966,-26.157"/>
<text text-anchor="middle" x="322.466" y="-33.157" font-family="Helvetica,sans-Serif" font-size="10.00">node_is_particle</text>
</a>
</g>
</g>
<!-- Node12&#45;&gt;Node13 -->
<g id="edge14" class="edge"><title>Node12&#45;&gt;Node13</title>
<path fill="none" stroke="midnightblue" d="M324.537,-120.4C324.164,-105.112 323.433,-75.2107 322.947,-55.33"/>
<polygon fill="midnightblue" stroke="midnightblue" points="326.443,-55.1318 322.699,-45.2204 319.445,-55.303 326.443,-55.1318"/>
</g>
<!-- Node14 -->
<g id="node15" class="node"><title>Node14</title>
<g id="a_node15"><a xlink:href="forcetree_8h.html#ae302446c148c0f0ca0353a192249368f" target="_top" xlink:title="node_is_pseudo_particle">
<polygon fill="white" stroke="black" points="355.439,-139.342 355.439,-158.342 479.439,-158.342 479.439,-139.342 355.439,-139.342"/>
<text text-anchor="middle" x="417.439" y="-146.342" font-family="Helvetica,sans-Serif" font-size="10.00">node_is_pseudo_particle</text>
</a>
</g>
</g>
<!-- Node12&#45;&gt;Node14 -->
<g id="edge16" class="edge"><title>Node12&#45;&gt;Node14</title>
<path fill="none" stroke="midnightblue" d="M371.922,-139.664C371.967,-139.673 372.011,-139.682 372.056,-139.691"/>
<polygon fill="midnightblue" stroke="midnightblue" points="361.694,-141.166 372.19,-139.718 363.081,-134.304 361.694,-141.166"/>
</g>
</g>
</svg>
