<?xml version="1.0" encoding="UTF-8" standalone="no"?>
<!DOCTYPE svg PUBLIC "-//W3C//DTD SVG 1.1//EN"
 "http://www.w3.org/Graphics/SVG/1.1/DTD/svg11.dtd">
<!-- Generated by graphviz version 2.38.0 (20140413.2041)
 -->
<!-- Title: gravpm_force Pages: 1 -->
<!--zoomable 460 -->
<svg id="main" version="1.1" xmlns="http://www.w3.org/2000/svg" xmlns:xlink="http://www.w3.org/1999/xlink" xml:space="preserve" onload="init(evt)">
<style type="text/css"><![CDATA[
.edge:hover path { stroke: red; }
.edge:hover polygon { stroke: red; fill: red; }
]]></style>
<script type="text/javascript"><![CDATA[
var edges = document.getElementsByTagName('g');
if (edges && edges.length) {
  for (var i=0;i<edges.length;i++) {
    if (edges[i].id.substr(0,4)=='edge') {
      edges[i].setAttribute('class','edge');
    }
  }
}
]]></script>
        <defs>
                <circle id="rim" cx="0" cy="0" r="7"/>
                <circle id="rim2" cx="0" cy="0" r="3.5"/>
                <g id="zoomPlus">
                        <use xlink:href="#rim" fill="#404040">
                                <set attributeName="fill" to="#808080" begin="zoomplus.mouseover" end="zoomplus.mouseout"/>
                        </use>
                        <path d="M-4,0h8M0,-4v8" fill="none" stroke="white" stroke-width="1.5" pointer-events="none"/>
                </g>
                <g id="zoomMin">
                        <use xlink:href="#rim" fill="#404040">
                                <set attributeName="fill" to="#808080" begin="zoomminus.mouseover" end="zoomminus.mouseout"/>
                        </use>
                        <path d="M-4,0h8" fill="none" stroke="white" stroke-width="1.5" pointer-events="none"/>
                </g>
                <g id="dirArrow">
                        <path fill="none" stroke="white" stroke-width="1.5" d="M0,-3.0v7 M-2.5,-0.5L0,-3.0L2.5,-0.5"/>
                </g>
               <g id="resetDef">
                       <use xlink:href="#rim2" fill="#404040">
                               <set attributeName="fill" to="#808080" begin="reset.mouseover" end="reset.mouseout"/>
                       </use>
               </g>
        </defs>

<script type="text/javascript">
var viewWidth = 125;
var viewHeight = 460;
var sectionId = 'dynsection-13';
</script>
<script xlink:href="svgpan.js"/>
<svg id="graph" class="graph">
<g id="viewport">
<title>gravpm_force</title>
<polygon fill="white" stroke="none" points="-4,4 -4,-456 121,-456 121,4 -4,4"/>
<!-- Node142 -->
<g id="node1" class="node"><title>Node142</title>
<polygon fill="#bfbfbf" stroke="black" points="20.5,-216.5 20.5,-235.5 96.5,-235.5 96.5,-216.5 20.5,-216.5"/>
<text text-anchor="middle" x="58.5" y="-223.5" font-family="Helvetica,sans-Serif" font-size="10.00">gravpm_force</text>
</g>
<!-- Node143 -->
<g id="node2" class="node"><title>Node143</title>
<g id="a_node2"><a xlink:href="run_8c.html#abb80d08f4d52f4a7bdf28d1cecfead5b" target="_top" xlink:title="compute_accelerations">
<polygon fill="white" stroke="black" points="0,-288.5 0,-307.5 117,-307.5 117,-288.5 0,-288.5"/>
<text text-anchor="middle" x="58.5" y="-295.5" font-family="Helvetica,sans-Serif" font-size="10.00">compute_accelerations</text>
</a>
</g>
</g>
<!-- Node142&#45;&gt;Node143 -->
<g id="edge1" class="edge"><title>Node142&#45;&gt;Node143</title>
<path fill="none" stroke="midnightblue" d="M58.5,-245.757C58.5,-259.643 58.5,-277.607 58.5,-288.444"/>
<polygon fill="midnightblue" stroke="midnightblue" points="62.0001,-245.71 58.5,-235.71 55.0001,-245.71 62.0001,-245.71"/>
</g>
<!-- Node148 -->
<g id="node7" class="node"><title>Node148</title>
<g id="a_node7"><a xlink:href="runtests_8c.html#a549024555ca61e3f05a7100307e44f69" target="_top" xlink:title="runtests">
<polygon fill="white" stroke="black" points="32.5,-144.5 32.5,-163.5 84.5,-163.5 84.5,-144.5 32.5,-144.5"/>
<text text-anchor="middle" x="58.5" y="-151.5" font-family="Helvetica,sans-Serif" font-size="10.00">runtests</text>
</a>
</g>
</g>
<!-- Node142&#45;&gt;Node148 -->
<g id="edge7" class="edge"><title>Node142&#45;&gt;Node148</title>
<path fill="none" stroke="midnightblue" d="M58.5,-206.243C58.5,-192.357 58.5,-174.393 58.5,-163.556"/>
<polygon fill="midnightblue" stroke="midnightblue" points="54.9999,-206.29 58.5,-216.29 61.9999,-206.29 54.9999,-206.29"/>
</g>
<!-- Node144 -->
<g id="node3" class="node"><title>Node144</title>
<g id="a_node3"><a xlink:href="run_8c.html#a05e0ffe612d44e6d7f3a9ae5b9df56a2" target="_top" xlink:title="run">
<polygon fill="white" stroke="black" points="43.5,-360.5 43.5,-379.5 73.5,-379.5 73.5,-360.5 43.5,-360.5"/>
<text text-anchor="middle" x="58.5" y="-367.5" font-family="Helvetica,sans-Serif" font-size="10.00">run</text>
</a>
</g>
</g>
<!-- Node143&#45;&gt;Node144 -->
<g id="edge2" class="edge"><title>Node143&#45;&gt;Node144</title>
<path fill="none" stroke="midnightblue" d="M58.5,-317.757C58.5,-331.643 58.5,-349.607 58.5,-360.444"/>
<polygon fill="midnightblue" stroke="midnightblue" points="62.0001,-317.71 58.5,-307.71 55.0001,-317.71 62.0001,-317.71"/>
</g>
<!-- Node145 -->
<g id="node4" class="node"><title>Node145</title>
<g id="a_node4"><a xlink:href="main_8c.html#a3c04138a5bfe5d72780bb7e82a18e627" target="_top" xlink:title="main">
<polygon fill="white" stroke="black" points="39.5,-72.5 39.5,-91.5 77.5,-91.5 77.5,-72.5 39.5,-72.5"/>
<text text-anchor="middle" x="58.5" y="-79.5" font-family="Helvetica,sans-Serif" font-size="10.00">main</text>
</a>
</g>
</g>
<!-- Node144&#45;&gt;Node145 -->
<g id="edge3" class="edge"><title>Node144&#45;&gt;Node145</title>
<path fill="none" stroke="midnightblue" d="M58.5,-350.307C58.5,-293.822 58.5,-132.687 58.5,-91.6183"/>
<polygon fill="midnightblue" stroke="midnightblue" points="55.0001,-350.418 58.5,-360.418 62.0001,-350.418 55.0001,-350.418"/>
</g>
<!-- Node146 -->
<g id="node5" class="node"><title>Node146</title>
<g id="a_node5"><a xlink:href="walltime_8h.html#a76d2135b612766d4d665748454b879d6" target="_top" xlink:title="walltime_report">
<polygon fill="white" stroke="black" points="17,-0.5 17,-19.5 100,-19.5 100,-0.5 17,-0.5"/>
<text text-anchor="middle" x="58.5" y="-7.5" font-family="Helvetica,sans-Serif" font-size="10.00">walltime_report</text>
</a>
</g>
</g>
<!-- Node145&#45;&gt;Node146 -->
<g id="edge4" class="edge"><title>Node145&#45;&gt;Node146</title>
<path fill="none" stroke="midnightblue" d="M58.5,-62.2426C58.5,-48.3573 58.5,-30.393 58.5,-19.5564"/>
<polygon fill="midnightblue" stroke="midnightblue" points="55.0001,-62.2897 58.5,-72.2898 62.0001,-62.2898 55.0001,-62.2897"/>
</g>
<!-- Node147 -->
<g id="node6" class="node"><title>Node147</title>
<g id="a_node6"><a xlink:href="run_8c.html#adc59e9ee1517e4e690694a64ab6a59d2" target="_top" xlink:title="write_cpu_log">
<polygon fill="white" stroke="black" points="20,-432.5 20,-451.5 97,-451.5 97,-432.5 20,-432.5"/>
<text text-anchor="middle" x="58.5" y="-439.5" font-family="Helvetica,sans-Serif" font-size="10.00">write_cpu_log</text>
</a>
</g>
</g>
<!-- Node146&#45;&gt;Node147 -->
<g id="edge5" class="edge"><title>Node146&#45;&gt;Node147</title>
<path fill="none" stroke="midnightblue" d="M58.5,-29.9881C58.5,-106.296 58.5,-377.71 58.5,-432.368"/>
<polygon fill="midnightblue" stroke="midnightblue" points="62.0001,-29.8346 58.5,-19.8346 55.0001,-29.8346 62.0001,-29.8346"/>
</g>
<!-- Node147&#45;&gt;Node144 -->
<g id="edge6" class="edge"><title>Node147&#45;&gt;Node144</title>
<path fill="none" stroke="midnightblue" d="M58.5,-422.243C58.5,-408.357 58.5,-390.393 58.5,-379.556"/>
<polygon fill="midnightblue" stroke="midnightblue" points="55.0001,-422.29 58.5,-432.29 62.0001,-422.29 55.0001,-422.29"/>
</g>
<!-- Node148&#45;&gt;Node145 -->
<g id="edge8" class="edge"><title>Node148&#45;&gt;Node145</title>
<path fill="none" stroke="midnightblue" d="M58.5,-134.243C58.5,-120.357 58.5,-102.393 58.5,-91.5564"/>
<polygon fill="midnightblue" stroke="midnightblue" points="55.0001,-134.29 58.5,-144.29 62.0001,-134.29 55.0001,-134.29"/>
</g>
</g>
</svg>
        <g id="navigator" transform="translate(0 0)" fill="#404254">
                <rect fill="#f2f5e9" fill-opacity="0.5" stroke="#606060" stroke-width=".5" x="0" y="0" width="60" height="60"/>
                <use id="zoomplus" xlink:href="#zoomPlus" x="17" y="9" onmousedown="handleZoom(evt,'in')"/>
                <use id="zoomminus" xlink:href="#zoomMin" x="42" y="9" onmousedown="handleZoom(evt,'out')"/>
                <use id="reset" xlink:href="#resetDef" x="30" y="36" onmousedown="handleReset()"/>
                <g id="arrowUp" xlink:href="#dirArrow" transform="translate(30 24)" onmousedown="handlePan(0,-1)">
                  <use xlink:href="#rim" fill="#404040">
                        <set attributeName="fill" to="#808080" begin="arrowUp.mouseover" end="arrowUp.mouseout"/>
                  </use>
                  <path fill="none" stroke="white" stroke-width="1.5" d="M0,-3.0v7 M-2.5,-0.5L0,-3.0L2.5,-0.5"/>
                </g>
                <g id="arrowRight" xlink:href="#dirArrow" transform="rotate(90) translate(36 -43)" onmousedown="handlePan(1,0)">
                  <use xlink:href="#rim" fill="#404040">
                        <set attributeName="fill" to="#808080" begin="arrowRight.mouseover" end="arrowRight.mouseout"/>
                  </use>
                  <path fill="none" stroke="white" stroke-width="1.5" d="M0,-3.0v7 M-2.5,-0.5L0,-3.0L2.5,-0.5"/>
                </g>
                <g id="arrowDown" xlink:href="#dirArrow" transform="rotate(180) translate(-30 -48)" onmousedown="handlePan(0,1)">
                  <use xlink:href="#rim" fill="#404040">
                        <set attributeName="fill" to="#808080" begin="arrowDown.mouseover" end="arrowDown.mouseout"/>
                  </use>
                  <path fill="none" stroke="white" stroke-width="1.5" d="M0,-3.0v7 M-2.5,-0.5L0,-3.0L2.5,-0.5"/>
                </g>
                <g id="arrowLeft" xlink:href="#dirArrow" transform="rotate(270) translate(-36 17)" onmousedown="handlePan(-1,0)">
                  <use xlink:href="#rim" fill="#404040">
                        <set attributeName="fill" to="#808080" begin="arrowLeft.mouseover" end="arrowLeft.mouseout"/>
                  </use>
                  <path fill="none" stroke="white" stroke-width="1.5" d="M0,-3.0v7 M-2.5,-0.5L0,-3.0L2.5,-0.5"/>
                </g>
        </g>
        <svg viewBox="0 0 15 15" width="100%" height="30px" preserveAspectRatio="xMaxYMin meet">
         <g id="arrow_out" transform="scale(0.3 0.3)">
          <a xlink:href="gravpm_8c_a6a55456b331c8b01d7ae1352809b82f2_icgraph_org.svg" target="_base">
           <rect id="button" ry="5" rx="5" y="6" x="6" height="38" width="38"
                fill="#f2f5e9" fill-opacity="0.5" stroke="#606060" stroke-width="1.0"/>
           <path id="arrow"
             d="M 11.500037,31.436501 C 11.940474,20.09759 22.043105,11.32322 32.158766,21.979434 L 37.068811,17.246167 C 37.068811,17.246167 37.088388,32 37.088388,32 L 22.160133,31.978069 C 22.160133,31.978069 26.997745,27.140456 26.997745,27.140456 C 18.528582,18.264221 13.291696,25.230495 11.500037,31.436501 z"
             style="fill:#404040;"/>
          </a>
         </g>
        </svg>
</svg>
