<?xml version="1.0" encoding="UTF-8" standalone="no"?>
<!DOCTYPE svg PUBLIC "-//W3C//DTD SVG 1.1//EN"
 "http://www.w3.org/Graphics/SVG/1.1/DTD/svg11.dtd">
<!-- Generated by graphviz version 2.38.0 (20140413.2041)
 -->
<!-- Title: force_treeevaluate_shortrange Pages: 1 -->
<svg width="110pt" height="172pt"
 viewBox="0.00 0.00 110.00 172.00" xmlns="http://www.w3.org/2000/svg" xmlns:xlink="http://www.w3.org/1999/xlink">
<g id="graph0" class="graph" transform="scale(1 1) rotate(0) translate(4 168)">
<title>force_treeevaluate_shortrange</title>
<polygon fill="white" stroke="none" points="-4,4 -4,-168 106,-168 106,4 -4,4"/>
<!-- Node47 -->
<g id="node1" class="node"><title>Node47</title>
<polygon fill="#bfbfbf" stroke="black" points="2.5,-67 2.5,-97 99.5,-97 99.5,-67 2.5,-67"/>
<text text-anchor="start" x="10.5" y="-85" font-family="Helvetica,sans-Serif" font-size="10.00">force_treeevaluate</text>
<text text-anchor="middle" x="51" y="-74" font-family="Helvetica,sans-Serif" font-size="10.00">_shortrange</text>
</g>
<!-- Node48 -->
<g id="node2" class="node"><title>Node48</title>
<g id="a_node2"><a xlink:href="gravshort-tree-old_8c.html#a35575b446cf8d239ac5417132ca5d4c9" target="_top" xlink:title="fill_ntab">
<polygon fill="white" stroke="black" points="26,-144.5 26,-163.5 76,-163.5 76,-144.5 26,-144.5"/>
<text text-anchor="middle" x="51" y="-151.5" font-family="Helvetica,sans-Serif" font-size="10.00">fill_ntab</text>
</a>
</g>
</g>
<!-- Node47&#45;&gt;Node48 -->
<g id="edge1" class="edge"><title>Node47&#45;&gt;Node48</title>
<path fill="none" stroke="midnightblue" d="M51,-107.366C51,-120.124 51,-134.838 51,-144.271"/>
<polygon fill="midnightblue" stroke="midnightblue" points="54.5001,-107.269 51,-97.2693 47.5001,-107.269 54.5001,-107.269"/>
</g>
<!-- Node49 -->
<g id="node3" class="node"><title>Node49</title>
<g id="a_node3"><a xlink:href="gravshort-tree-old_8c.html#af703f51f005d6f005c4cfd250fdd5eb9" target="_top" xlink:title="grav_short_tree_old">
<polygon fill="white" stroke="black" points="-1.42109e-14,-0.5 -1.42109e-14,-19.5 102,-19.5 102,-0.5 -1.42109e-14,-0.5"/>
<text text-anchor="middle" x="51" y="-7.5" font-family="Helvetica,sans-Serif" font-size="10.00">grav_short_tree_old</text>
</a>
</g>
</g>
<!-- Node47&#45;&gt;Node49 -->
<g id="edge3" class="edge"><title>Node47&#45;&gt;Node49</title>
<path fill="none" stroke="midnightblue" d="M51,-56.6337C51,-43.8763 51,-29.1616 51,-19.729"/>
<polygon fill="midnightblue" stroke="midnightblue" points="47.5001,-56.7306 51,-66.7307 54.5001,-56.7307 47.5001,-56.7306"/>
</g>
<!-- Node48&#45;&gt;Node49 -->
<g id="edge2" class="edge"><title>Node48&#45;&gt;Node49</title>
<path fill="none" stroke="midnightblue" d="M51,-133.913C51,-102.467 51,-42.8094 51,-19.5877"/>
<polygon fill="midnightblue" stroke="midnightblue" points="47.5001,-134.102 51,-144.102 54.5001,-134.102 47.5001,-134.102"/>
</g>
</g>
</svg>
