<?xml version="1.0" encoding="UTF-8" standalone="no"?>
<!DOCTYPE svg PUBLIC "-//W3C//DTD SVG 1.1//EN"
 "http://www.w3.org/Graphics/SVG/1.1/DTD/svg11.dtd">
<!-- Generated by graphviz version 2.50.0 (0)
 -->
<!-- Title: hci_override_now Pages: 1 -->
<svg width="369pt" height="256pt"
 viewBox="0.00 0.00 369.00 256.00" xmlns="http://www.w3.org/2000/svg" xmlns:xlink="http://www.w3.org/1999/xlink">
<g id="graph0" class="graph" transform="scale(1 1) rotate(0) translate(4 252)">
<title>hci_override_now</title>
<polygon fill="white" stroke="transparent" points="-4,4 -4,-252 365,-252 365,4 -4,4"/>
<!-- Node1 -->
<g id="node1" class="node">
<title>Node1</title>
<g id="a_node1"><a xlink:title=" ">
<polygon fill="#bfbfbf" stroke="black" points="259,-114.5 259,-133.5 361,-133.5 361,-114.5 259,-114.5"/>
<text text-anchor="middle" x="310" y="-121.5" font-family="Helvetica,sans-Serif" font-size="10.00">hci_override_now</text>
</a>
</g>
</g>
<!-- Node2 -->
<g id="node2" class="node">
<title>Node2</title>
<g id="a_node2"><a xlink:href="test__hci_8c.html#a22d6f8b447edbf772b9a48eb82bc8a98" target="_top" xlink:title=" ">
<polygon fill="white" stroke="black" points="80,-228.5 80,-247.5 220,-247.5 220,-228.5 80,-228.5"/>
<text text-anchor="middle" x="150" y="-235.5" font-family="Helvetica,sans-Serif" font-size="10.00">test_hci_auto_checkpoint</text>
</a>
</g>
</g>
<!-- Node1&#45;&gt;Node2 -->
<g id="edge1" class="edge">
<title>Node1&#45;&gt;Node2</title>
<path fill="none" stroke="midnightblue" d="M297.31,-142.36C282.59,-163.96 255.28,-199.36 223,-219 216.59,-222.9 209.4,-226 202.09,-228.48"/>
<polygon fill="midnightblue" stroke="midnightblue" points="300.39,-144.04 302.99,-133.77 294.55,-140.18 300.39,-144.04"/>
</g>
<!-- Node4 -->
<g id="node4" class="node">
<title>Node4</title>
<g id="a_node4"><a xlink:href="test__hci_8c.html#a49ad292cc9de46d5314653d7c3c5f693" target="_top" xlink:title=" ">
<polygon fill="white" stroke="black" points="77,-190.5 77,-209.5 223,-209.5 223,-190.5 77,-190.5"/>
<text text-anchor="middle" x="150" y="-197.5" font-family="Helvetica,sans-Serif" font-size="10.00">test_hci_auto_checkpoint2</text>
</a>
</g>
</g>
<!-- Node1&#45;&gt;Node4 -->
<g id="edge3" class="edge">
<title>Node1&#45;&gt;Node4</title>
<path fill="none" stroke="midnightblue" d="M289.26,-139.82C272.5,-152.55 247.36,-170.07 223,-181 214.63,-184.76 205.36,-187.89 196.34,-190.46"/>
<polygon fill="midnightblue" stroke="midnightblue" points="291.45,-142.55 297.21,-133.66 287.16,-137.02 291.45,-142.55"/>
</g>
<!-- Node5 -->
<g id="node5" class="node">
<title>Node5</title>
<g id="a_node5"><a xlink:href="test__hci_8c.html#ae58839266a4eb7c73fbd1460039196d3" target="_top" xlink:title=" ">
<polygon fill="white" stroke="black" points="93.5,-152.5 93.5,-171.5 206.5,-171.5 206.5,-152.5 93.5,-152.5"/>
<text text-anchor="middle" x="150" y="-159.5" font-family="Helvetica,sans-Serif" font-size="10.00">test_hci_checkpoint</text>
</a>
</g>
</g>
<!-- Node1&#45;&gt;Node5 -->
<g id="edge5" class="edge">
<title>Node1&#45;&gt;Node5</title>
<path fill="none" stroke="midnightblue" d="M259.24,-135.97C237.1,-141.29 211.39,-147.48 190.58,-152.48"/>
<polygon fill="midnightblue" stroke="midnightblue" points="260.23,-139.33 269.13,-133.59 258.59,-132.52 260.23,-139.33"/>
</g>
<!-- Node6 -->
<g id="node6" class="node">
<title>Node6</title>
<g id="a_node6"><a xlink:href="test__hci_8c.html#ae5da90ded4a73862260b3da912f473a9" target="_top" xlink:title=" ">
<polygon fill="white" stroke="black" points="96.5,-114.5 96.5,-133.5 203.5,-133.5 203.5,-114.5 96.5,-114.5"/>
<text text-anchor="middle" x="150" y="-121.5" font-family="Helvetica,sans-Serif" font-size="10.00">test_hci_no_action</text>
</a>
</g>
</g>
<!-- Node1&#45;&gt;Node6 -->
<g id="edge7" class="edge">
<title>Node1&#45;&gt;Node6</title>
<path fill="none" stroke="midnightblue" d="M248.52,-124C233.74,-124 218.05,-124 203.67,-124"/>
<polygon fill="midnightblue" stroke="midnightblue" points="248.57,-127.5 258.57,-124 248.57,-120.5 248.57,-127.5"/>
</g>
<!-- Node7 -->
<g id="node7" class="node">
<title>Node7</title>
<g id="a_node7"><a xlink:href="test__hci_8c.html#a995e4ee2bc35b2b300885cc4cd1010b9" target="_top" xlink:title=" ">
<polygon fill="white" stroke="black" points="109.5,-76.5 109.5,-95.5 190.5,-95.5 190.5,-76.5 109.5,-76.5"/>
<text text-anchor="middle" x="150" y="-83.5" font-family="Helvetica,sans-Serif" font-size="10.00">test_hci_stop</text>
</a>
</g>
</g>
<!-- Node1&#45;&gt;Node7 -->
<g id="edge9" class="edge">
<title>Node1&#45;&gt;Node7</title>
<path fill="none" stroke="midnightblue" d="M259.24,-112.03C237.1,-106.71 211.39,-100.52 190.58,-95.52"/>
<polygon fill="midnightblue" stroke="midnightblue" points="258.59,-115.48 269.13,-114.41 260.23,-108.67 258.59,-115.48"/>
</g>
<!-- Node8 -->
<g id="node8" class="node">
<title>Node8</title>
<g id="a_node8"><a xlink:href="test__hci_8c.html#a79c3d1222a5b56c16b777aa76f47c301" target="_top" xlink:title=" ">
<polygon fill="white" stroke="black" points="96,-38.5 96,-57.5 204,-57.5 204,-38.5 96,-38.5"/>
<text text-anchor="middle" x="150" y="-45.5" font-family="Helvetica,sans-Serif" font-size="10.00">test_hci_terminate</text>
</a>
</g>
</g>
<!-- Node1&#45;&gt;Node8 -->
<g id="edge11" class="edge">
<title>Node1&#45;&gt;Node8</title>
<path fill="none" stroke="midnightblue" d="M289.26,-108.18C272.5,-95.45 247.36,-77.93 223,-67 214.63,-63.24 205.36,-60.11 196.34,-57.54"/>
<polygon fill="midnightblue" stroke="midnightblue" points="287.16,-110.98 297.21,-114.34 291.45,-105.45 287.16,-110.98"/>
</g>
<!-- Node9 -->
<g id="node9" class="node">
<title>Node9</title>
<g id="a_node9"><a xlink:href="test__hci_8c.html#a9f233c902aeab3b9113aa7c3a50ce965" target="_top" xlink:title=" ">
<polygon fill="white" stroke="black" points="101,-0.5 101,-19.5 199,-19.5 199,-0.5 101,-0.5"/>
<text text-anchor="middle" x="150" y="-7.5" font-family="Helvetica,sans-Serif" font-size="10.00">test_hci_timeout</text>
</a>
</g>
</g>
<!-- Node1&#45;&gt;Node9 -->
<g id="edge13" class="edge">
<title>Node1&#45;&gt;Node9</title>
<path fill="none" stroke="midnightblue" d="M297.31,-105.64C282.59,-84.04 255.28,-48.64 223,-29 215.71,-24.57 207.39,-21.15 199.06,-18.53"/>
<polygon fill="midnightblue" stroke="midnightblue" points="294.55,-107.82 302.99,-114.23 300.39,-103.96 294.55,-107.82"/>
</g>
<!-- Node3 -->
<g id="node3" class="node">
<title>Node3</title>
<g id="a_node3"><a xlink:href="test__hci_8c.html#a840291bc02cba5474a4cb46a9b9566fe" target="_top" xlink:title=" ">
<polygon fill="white" stroke="black" points="0,-114.5 0,-133.5 41,-133.5 41,-114.5 0,-114.5"/>
<text text-anchor="middle" x="20.5" y="-121.5" font-family="Helvetica,sans-Serif" font-size="10.00">main</text>
</a>
</g>
</g>
<!-- Node2&#45;&gt;Node3 -->
<g id="edge2" class="edge">
<title>Node2&#45;&gt;Node3</title>
<path fill="none" stroke="midnightblue" d="M84.94,-224.14C82.16,-222.6 79.49,-220.89 77,-219 47.35,-196.46 30.67,-153.14 24.4,-133.77"/>
<polygon fill="midnightblue" stroke="midnightblue" points="83.63,-227.39 94.16,-228.49 86.61,-221.06 83.63,-227.39"/>
</g>
<!-- Node4&#45;&gt;Node3 -->
<g id="edge4" class="edge">
<title>Node4&#45;&gt;Node3</title>
<path fill="none" stroke="midnightblue" d="M88.74,-186.79C84.66,-185.08 80.71,-183.16 77,-181 56.01,-168.75 37.65,-146.4 28.22,-133.63"/>
<polygon fill="midnightblue" stroke="midnightblue" points="87.82,-190.18 98.41,-190.39 90.26,-183.62 87.82,-190.18"/>
</g>
<!-- Node5&#45;&gt;Node3 -->
<g id="edge6" class="edge">
<title>Node5&#45;&gt;Node3</title>
<path fill="none" stroke="midnightblue" d="M101.06,-149.86C93,-147.68 84.74,-145.34 77,-143 65.01,-139.37 51.73,-134.84 41.17,-131.12"/>
<polygon fill="midnightblue" stroke="midnightblue" points="100.18,-153.25 110.74,-152.45 101.98,-146.49 100.18,-153.25"/>
</g>
<!-- Node6&#45;&gt;Node3 -->
<g id="edge8" class="edge">
<title>Node6&#45;&gt;Node3</title>
<path fill="none" stroke="midnightblue" d="M86.27,-124C69.92,-124 53.47,-124 41.24,-124"/>
<polygon fill="midnightblue" stroke="midnightblue" points="86.4,-127.5 96.4,-124 86.4,-120.5 86.4,-127.5"/>
</g>
<!-- Node7&#45;&gt;Node3 -->
<g id="edge10" class="edge">
<title>Node7&#45;&gt;Node3</title>
<path fill="none" stroke="midnightblue" d="M101.06,-98.14C93,-100.32 84.74,-102.66 77,-105 65.01,-108.63 51.73,-113.16 41.17,-116.88"/>
<polygon fill="midnightblue" stroke="midnightblue" points="101.98,-101.51 110.74,-95.55 100.18,-94.75 101.98,-101.51"/>
</g>
<!-- Node8&#45;&gt;Node3 -->
<g id="edge12" class="edge">
<title>Node8&#45;&gt;Node3</title>
<path fill="none" stroke="midnightblue" d="M88.74,-61.21C84.66,-62.92 80.71,-64.84 77,-67 56.01,-79.25 37.65,-101.6 28.22,-114.37"/>
<polygon fill="midnightblue" stroke="midnightblue" points="90.26,-64.38 98.41,-57.61 87.82,-57.82 90.26,-64.38"/>
</g>
<!-- Node9&#45;&gt;Node3 -->
<g id="edge14" class="edge">
<title>Node9&#45;&gt;Node3</title>
<path fill="none" stroke="midnightblue" d="M91.42,-20.66C86.28,-22.93 81.37,-25.67 77,-29 47.35,-51.54 30.67,-94.86 24.4,-114.23"/>
<polygon fill="midnightblue" stroke="midnightblue" points="92.76,-23.9 100.86,-17.08 90.27,-17.36 92.76,-23.9"/>
</g>
</g>
</svg>
