<?xml version="1.0" encoding="UTF-8" standalone="no"?>
<!DOCTYPE svg PUBLIC "-//W3C//DTD SVG 1.1//EN"
 "http://www.w3.org/Graphics/SVG/1.1/DTD/svg11.dtd">
<!-- Generated by graphviz version 2.38.0 (20140413.2041)
 -->
<!-- Title: hci_init Pages: 1 -->
<svg width="509pt" height="47pt"
 viewBox="0.00 0.00 509.00 47.00" xmlns="http://www.w3.org/2000/svg" xmlns:xlink="http://www.w3.org/1999/xlink">
<g id="graph0" class="graph" transform="scale(1 1) rotate(0) translate(4 43)">
<title>hci_init</title>
<polygon fill="white" stroke="none" points="-4,4 -4,-43 505,-43 505,4 -4,4"/>
<!-- Node19 -->
<g id="node1" class="node"><title>Node19</title>
<polygon fill="#bfbfbf" stroke="black" points="0,-0.5 0,-19.5 47,-19.5 47,-0.5 0,-0.5"/>
<text text-anchor="middle" x="23.5" y="-7.5" font-family="Helvetica,sans-Serif" font-size="10.00">hci_init</text>
</g>
<!-- Node20 -->
<g id="node2" class="node"><title>Node20</title>
<g id="a_node2"><a xlink:href="proto_8h.html#a74dc0e5e9eefe11fc8434b62de573146" target="_top" xlink:title="begrun">
<polygon fill="white" stroke="black" points="83,-0.5 83,-19.5 129,-19.5 129,-0.5 83,-0.5"/>
<text text-anchor="middle" x="106" y="-7.5" font-family="Helvetica,sans-Serif" font-size="10.00">begrun</text>
</a>
</g>
</g>
<!-- Node19&#45;&gt;Node20 -->
<g id="edge1" class="edge"><title>Node19&#45;&gt;Node20</title>
<path fill="none" stroke="midnightblue" d="M57.4713,-10C66.0414,-10 75.0669,-10 82.9232,-10"/>
<polygon fill="midnightblue" stroke="midnightblue" points="57.3528,-6.5001 47.3527,-10 57.3527,-13.5001 57.3528,-6.5001"/>
</g>
<!-- Node21 -->
<g id="node3" class="node"><title>Node21</title>
<g id="a_node3"><a xlink:href="main_8c.html#a3c04138a5bfe5d72780bb7e82a18e627" target="_top" xlink:title="main">
<polygon fill="white" stroke="black" points="165,-0.5 165,-19.5 203,-19.5 203,-0.5 165,-0.5"/>
<text text-anchor="middle" x="184" y="-7.5" font-family="Helvetica,sans-Serif" font-size="10.00">main</text>
</a>
</g>
</g>
<!-- Node20&#45;&gt;Node21 -->
<g id="edge2" class="edge"><title>Node20&#45;&gt;Node21</title>
<path fill="none" stroke="midnightblue" d="M139.541,-10C148.114,-10 157.067,-10 164.603,-10"/>
<polygon fill="midnightblue" stroke="midnightblue" points="139.391,-6.5001 129.391,-10 139.391,-13.5001 139.391,-6.5001"/>
</g>
<!-- Node22 -->
<g id="node4" class="node"><title>Node22</title>
<g id="a_node4"><a xlink:href="walltime_8h.html#a76d2135b612766d4d665748454b879d6" target="_top" xlink:title="walltime_report">
<polygon fill="white" stroke="black" points="239,-19.5 239,-38.5 322,-38.5 322,-19.5 239,-19.5"/>
<text text-anchor="middle" x="280.5" y="-26.5" font-family="Helvetica,sans-Serif" font-size="10.00">walltime_report</text>
</a>
</g>
</g>
<!-- Node21&#45;&gt;Node22 -->
<g id="edge3" class="edge"><title>Node21&#45;&gt;Node22</title>
<path fill="none" stroke="midnightblue" d="M213.141,-15.658C221.148,-17.2678 230.035,-19.0547 238.635,-20.7837"/>
<polygon fill="midnightblue" stroke="midnightblue" points="213.714,-12.2033 203.221,-13.6634 212.334,-19.0659 213.714,-12.2033"/>
</g>
<!-- Node23 -->
<g id="node5" class="node"><title>Node23</title>
<g id="a_node5"><a xlink:href="run_8c.html#adc59e9ee1517e4e690694a64ab6a59d2" target="_top" xlink:title="write_cpu_log">
<polygon fill="white" stroke="black" points="358,-19.5 358,-38.5 435,-38.5 435,-19.5 358,-19.5"/>
<text text-anchor="middle" x="396.5" y="-26.5" font-family="Helvetica,sans-Serif" font-size="10.00">write_cpu_log</text>
</a>
</g>
</g>
<!-- Node22&#45;&gt;Node23 -->
<g id="edge4" class="edge"><title>Node22&#45;&gt;Node23</title>
<path fill="none" stroke="midnightblue" d="M332.031,-29C340.684,-29 349.54,-29 357.785,-29"/>
<polygon fill="midnightblue" stroke="midnightblue" points="332.013,-25.5001 322.013,-29 332.013,-32.5001 332.013,-25.5001"/>
</g>
<!-- Node24 -->
<g id="node6" class="node"><title>Node24</title>
<g id="a_node6"><a xlink:href="run_8c.html#a05e0ffe612d44e6d7f3a9ae5b9df56a2" target="_top" xlink:title="run">
<polygon fill="white" stroke="black" points="471,-0.5 471,-19.5 501,-19.5 501,-0.5 471,-0.5"/>
<text text-anchor="middle" x="486" y="-7.5" font-family="Helvetica,sans-Serif" font-size="10.00">run</text>
</a>
</g>
</g>
<!-- Node23&#45;&gt;Node24 -->
<g id="edge5" class="edge"><title>Node23&#45;&gt;Node24</title>
<path fill="none" stroke="midnightblue" d="M444.925,-18.7021C454.329,-16.6601 463.505,-14.6676 470.698,-13.1056"/>
<polygon fill="midnightblue" stroke="midnightblue" points="444.145,-15.2897 435.116,-20.832 445.631,-22.1303 444.145,-15.2897"/>
</g>
<!-- Node24&#45;&gt;Node21 -->
<g id="edge6" class="edge"><title>Node24&#45;&gt;Node21</title>
<path fill="none" stroke="midnightblue" d="M460.758,-10C402.391,-10 255.064,-10 203.315,-10"/>
<polygon fill="midnightblue" stroke="midnightblue" points="460.885,-13.5001 470.885,-10 460.885,-6.5001 460.885,-13.5001"/>
</g>
</g>
</svg>
