<?xml version="1.0" encoding="UTF-8" standalone="no"?>
<!DOCTYPE svg PUBLIC "-//W3C//DTD SVG 1.1//EN"
 "http://www.w3.org/Graphics/SVG/1.1/DTD/svg11.dtd">
<!-- Generated by graphviz version 2.38.0 (20140413.2041)
 -->
<!-- Title: hci_query_filesystem Pages: 1 -->
<svg width="503pt" height="66pt"
 viewBox="0.00 0.00 503.00 66.00" xmlns="http://www.w3.org/2000/svg" xmlns:xlink="http://www.w3.org/1999/xlink">
<g id="graph0" class="graph" transform="scale(1 1) rotate(0) translate(4 62)">
<title>hci_query_filesystem</title>
<polygon fill="white" stroke="none" points="-4,4 -4,-62 499,-62 499,4 -4,4"/>
<!-- Node70 -->
<g id="node1" class="node"><title>Node70</title>
<polygon fill="#bfbfbf" stroke="black" points="0,-19.5 0,-38.5 109,-38.5 109,-19.5 0,-19.5"/>
<text text-anchor="middle" x="54.5" y="-26.5" font-family="Helvetica,sans-Serif" font-size="10.00">hci_query_filesystem</text>
</g>
<!-- Node71 -->
<g id="node2" class="node"><title>Node71</title>
<g id="a_node2"><a xlink:href="utils-string_8c.html#a72e20a8840db3abb4c684e57f6602b1b" target="_top" xlink:title="fastpm_file_get_content">
<polygon fill="white" stroke="black" points="145,-38.5 145,-57.5 266,-57.5 266,-38.5 145,-38.5"/>
<text text-anchor="middle" x="205.5" y="-45.5" font-family="Helvetica,sans-Serif" font-size="10.00">fastpm_file_get_content</text>
</a>
</g>
</g>
<!-- Node70&#45;&gt;Node71 -->
<g id="edge1" class="edge"><title>Node70&#45;&gt;Node71</title>
<path fill="none" stroke="midnightblue" d="M109.292,-35.8594C117.62,-36.9214 126.323,-38.0312 134.938,-39.1297"/>
<polygon fill="midnightblue" stroke="midnightblue" points="134.62,-42.6174 144.982,-40.4105 135.505,-35.6736 134.62,-42.6174"/>
</g>
<!-- Node72 -->
<g id="node3" class="node"><title>Node72</title>
<g id="a_node3"><a xlink:href="utils-string_8c.html#a787c3b0717214d830c69b7e8785a3e33" target="_top" xlink:title="fastpm_strdup_printf">
<polygon fill="white" stroke="black" points="152.5,-0.5 152.5,-19.5 258.5,-19.5 258.5,-0.5 152.5,-0.5"/>
<text text-anchor="middle" x="205.5" y="-7.5" font-family="Helvetica,sans-Serif" font-size="10.00">fastpm_strdup_printf</text>
</a>
</g>
</g>
<!-- Node70&#45;&gt;Node72 -->
<g id="edge2" class="edge"><title>Node70&#45;&gt;Node72</title>
<path fill="none" stroke="midnightblue" d="M109.292,-22.1406C120.014,-20.7733 131.358,-19.3269 142.334,-17.9272"/>
<polygon fill="midnightblue" stroke="midnightblue" points="142.805,-21.3955 152.282,-16.6586 141.92,-14.4517 142.805,-21.3955"/>
</g>
<!-- Node73 -->
<g id="node4" class="node"><title>Node73</title>
<g id="a_node4"><a xlink:href="utils-string_8c.html#ae1f141218851350d5d41e00bc16cc705" target="_top" xlink:title="fastpm_strdup_vprintf">
<polygon fill="white" stroke="black" points="302,-0.5 302,-19.5 413,-19.5 413,-0.5 302,-0.5"/>
<text text-anchor="middle" x="357.5" y="-7.5" font-family="Helvetica,sans-Serif" font-size="10.00">fastpm_strdup_vprintf</text>
</a>
</g>
</g>
<!-- Node72&#45;&gt;Node73 -->
<g id="edge3" class="edge"><title>Node72&#45;&gt;Node73</title>
<path fill="none" stroke="midnightblue" d="M258.542,-10C269.231,-10 280.609,-10 291.685,-10"/>
<polygon fill="midnightblue" stroke="midnightblue" points="291.744,-13.5001 301.744,-10 291.744,-6.5001 291.744,-13.5001"/>
</g>
<!-- Node74 -->
<g id="node5" class="node"><title>Node74</title>
<g id="a_node5"><a xlink:href="utils-string_8c.html#a0b3b094cb274f3b23292ecfc061734f8" target="_top" xlink:title="_mkdir">
<polygon fill="white" stroke="black" points="449,-0.5 449,-19.5 495,-19.5 495,-0.5 449,-0.5"/>
<text text-anchor="middle" x="472" y="-7.5" font-family="Helvetica,sans-Serif" font-size="10.00">_mkdir</text>
</a>
</g>
</g>
<!-- Node73&#45;&gt;Node74 -->
<g id="edge4" class="edge"><title>Node73&#45;&gt;Node74</title>
<path fill="none" stroke="midnightblue" d="M413.102,-10C421.899,-10 430.751,-10 438.794,-10"/>
<polygon fill="midnightblue" stroke="midnightblue" points="438.829,-13.5001 448.829,-10 438.829,-6.5001 438.829,-13.5001"/>
</g>
</g>
</svg>
