<?xml version="1.0" encoding="UTF-8" standalone="no"?>
<!DOCTYPE svg PUBLIC "-//W3C//DTD SVG 1.1//EN"
 "http://www.w3.org/Graphics/SVG/1.1/DTD/svg11.dtd">
<!-- Generated by graphviz version 2.38.0 (20140413.2041)
 -->
<!-- Title: hci_query Pages: 1 -->
<svg width="624pt" height="565pt"
 viewBox="0.00 0.00 623.65 564.88" xmlns="http://www.w3.org/2000/svg" xmlns:xlink="http://www.w3.org/1999/xlink">
<g id="graph0" class="graph" transform="scale(1 1) rotate(0) translate(4 560.882)">
<title>hci_query</title>
<polygon fill="white" stroke="none" points="-4,4 -4,-560.882 619.655,-560.882 619.655,4 -4,4"/>
<!-- Node17 -->
<g id="node1" class="node"><title>Node17</title>
<polygon fill="#bfbfbf" stroke="black" points="291.99,-271.305 291.99,-290.305 350.99,-290.305 350.99,-271.305 291.99,-271.305"/>
<text text-anchor="middle" x="321.49" y="-278.305" font-family="Helvetica,sans-Serif" font-size="10.00">hci_query</text>
</g>
<!-- Node18 -->
<g id="node2" class="node"><title>Node18</title>
<g id="a_node2"><a xlink:href="hci_8c.html#adf575054e41280d79cdcad95d436b33d" target="_top" xlink:title="hci_action_init">
<polygon fill="white" stroke="black" points="536.655,-220.926 536.655,-239.926 615.655,-239.926 615.655,-220.926 536.655,-220.926"/>
<text text-anchor="middle" x="576.155" y="-227.926" font-family="Helvetica,sans-Serif" font-size="10.00">hci_action_init</text>
</a>
</g>
</g>
<!-- Node17&#45;&gt;Node18 -->
<g id="edge1" class="edge"><title>Node17&#45;&gt;Node18</title>
<path fill="none" stroke="midnightblue" d="M351.202,-274.927C394.254,-266.41 474.516,-250.532 526.612,-240.226"/>
<polygon fill="midnightblue" stroke="midnightblue" points="527.506,-243.618 536.636,-238.243 526.147,-236.751 527.506,-243.618"/>
</g>
<!-- Node19 -->
<g id="node3" class="node"><title>Node19</title>
<g id="a_node3"><a xlink:href="hci_8c.html#a14888ce340e106fb67ea1cc613bf1334" target="_top" xlink:title="hci_now">
<polygon fill="white" stroke="black" points="299.185,-189.178 299.185,-208.178 352.185,-208.178 352.185,-189.178 299.185,-189.178"/>
<text text-anchor="middle" x="325.685" y="-196.178" font-family="Helvetica,sans-Serif" font-size="10.00">hci_now</text>
</a>
</g>
</g>
<!-- Node17&#45;&gt;Node19 -->
<g id="edge2" class="edge"><title>Node17&#45;&gt;Node19</title>
<path fill="none" stroke="midnightblue" d="M321.988,-271.061C322.644,-258.219 323.814,-235.314 324.662,-218.702"/>
<polygon fill="midnightblue" stroke="midnightblue" points="328.173,-218.574 325.188,-208.409 321.182,-218.217 328.173,-218.574"/>
</g>
<!-- Node20 -->
<g id="node4" class="node"><title>Node20</title>
<g id="a_node4"><a xlink:href="hci_8c.html#acc6f82bedec50d4ab1953895c1abd49f" target="_top" xlink:title="hci_query_auto_checkpoint">
<polygon fill="white" stroke="black" points="336.65,-71.7467 336.65,-90.7467 471.65,-90.7467 471.65,-71.7467 336.65,-71.7467"/>
<text text-anchor="middle" x="404.15" y="-78.7467" font-family="Helvetica,sans-Serif" font-size="10.00">hci_query_auto_checkpoint</text>
</a>
</g>
</g>
<!-- Node17&#45;&gt;Node20 -->
<g id="edge3" class="edge"><title>Node17&#45;&gt;Node20</title>
<path fill="none" stroke="midnightblue" d="M325.477,-271.18C338.38,-240.03 379.158,-141.583 396.367,-100.036"/>
<polygon fill="midnightblue" stroke="midnightblue" points="399.61,-101.353 400.203,-90.7752 393.143,-98.6746 399.61,-101.353"/>
</g>
<!-- Node22 -->
<g id="node6" class="node"><title>Node22</title>
<g id="a_node6"><a xlink:href="hci_8c.html#a7e1bef538a45fcfed3d5c5e6d3e3dc88" target="_top" xlink:title="hci_query_filesystem">
<polygon fill="white" stroke="black" points="322.097,-354.266 322.097,-373.266 431.097,-373.266 431.097,-354.266 322.097,-354.266"/>
<text text-anchor="middle" x="376.597" y="-361.266" font-family="Helvetica,sans-Serif" font-size="10.00">hci_query_filesystem</text>
</a>
</g>
</g>
<!-- Node17&#45;&gt;Node22 -->
<g id="edge6" class="edge"><title>Node17&#45;&gt;Node22</title>
<path fill="none" stroke="midnightblue" d="M327.812,-290.321C336.733,-303.752 353.189,-328.526 364.503,-345.56"/>
<polygon fill="midnightblue" stroke="midnightblue" points="361.731,-347.712 370.179,-354.105 367.562,-343.838 361.731,-347.712"/>
</g>
<!-- Node27 -->
<g id="node11" class="node"><title>Node27</title>
<g id="a_node11"><a xlink:href="hci_8c.html#a45765de3ce60382338140dc7d6532a65" target="_top" xlink:title="hci_query_timeout">
<polygon fill="white" stroke="black" points="395.116,-110.713 395.116,-129.713 491.116,-129.713 491.116,-110.713 395.116,-110.713"/>
<text text-anchor="middle" x="443.116" y="-117.713" font-family="Helvetica,sans-Serif" font-size="10.00">hci_query_timeout</text>
</a>
</g>
</g>
<!-- Node17&#45;&gt;Node27 -->
<g id="edge11" class="edge"><title>Node17&#45;&gt;Node27</title>
<path fill="none" stroke="midnightblue" d="M328.734,-271.24C348.545,-245.082 403.856,-172.051 429.607,-138.049"/>
<polygon fill="midnightblue" stroke="midnightblue" points="432.509,-140.015 435.756,-129.931 426.928,-135.789 432.509,-140.015"/>
</g>
<!-- Node28 -->
<g id="node12" class="node"><title>Node28</title>
<g id="a_node12"><a xlink:href="hci_8c.html#a04f5b8b9042727d86768bd9acd2810a7" target="_top" xlink:title="hci_update_query_timer">
<polygon fill="white" stroke="black" points="261.49,-5.22738 261.49,-24.2274 381.49,-24.2274 381.49,-5.22738 261.49,-5.22738"/>
<text text-anchor="middle" x="321.49" y="-12.2274" font-family="Helvetica,sans-Serif" font-size="10.00">hci_update_query_timer</text>
</a>
</g>
</g>
<!-- Node17&#45;&gt;Node28 -->
<g id="edge13" class="edge"><title>Node17&#45;&gt;Node28</title>
<path fill="none" stroke="midnightblue" d="M321.49,-271.019C321.49,-232.062 321.49,-87.5402 321.49,-34.4525"/>
<polygon fill="midnightblue" stroke="midnightblue" points="324.99,-34.3211 321.49,-24.3212 317.99,-34.3212 324.99,-34.3211"/>
</g>
<!-- Node29 -->
<g id="node13" class="node"><title>Node29</title>
<g id="a_node13"><a xlink:href="endrun_8c.html#a6567cd867c5549fb6586e19ccd819764" target="_top" xlink:title="message">
<polygon fill="white" stroke="black" points="132.597,-138.266 132.597,-157.266 188.597,-157.266 188.597,-138.266 132.597,-138.266"/>
<text text-anchor="middle" x="160.597" y="-145.266" font-family="Helvetica,sans-Serif" font-size="10.00">message</text>
</a>
</g>
</g>
<!-- Node17&#45;&gt;Node29 -->
<g id="edge15" class="edge"><title>Node17&#45;&gt;Node29</title>
<path fill="none" stroke="midnightblue" d="M309.919,-271.237C282.685,-248.718 214.284,-192.159 180.339,-164.09"/>
<polygon fill="midnightblue" stroke="midnightblue" points="182.434,-161.281 172.497,-157.606 177.973,-166.676 182.434,-161.281"/>
</g>
<!-- Node21 -->
<g id="node5" class="node"><title>Node21</title>
<g id="a_node5"><a xlink:href="hci_8c.html#a378b079f9673cd4da7f712d22ca4d5e9" target="_top" xlink:title="hci_get_elapsed_time">
<polygon fill="white" stroke="black" points="321.097,-138.266 321.097,-157.266 432.097,-157.266 432.097,-138.266 321.097,-138.266"/>
<text text-anchor="middle" x="376.597" y="-145.266" font-family="Helvetica,sans-Serif" font-size="10.00">hci_get_elapsed_time</text>
</a>
</g>
</g>
<!-- Node20&#45;&gt;Node21 -->
<g id="edge4" class="edge"><title>Node20&#45;&gt;Node21</title>
<path fill="none" stroke="midnightblue" d="M400.202,-90.7773C396.11,-100.656 389.604,-116.364 384.457,-128.788"/>
<polygon fill="midnightblue" stroke="midnightblue" points="381.13,-127.675 380.537,-138.253 387.597,-130.354 381.13,-127.675"/>
</g>
<!-- Node21&#45;&gt;Node19 -->
<g id="edge5" class="edge"><title>Node21&#45;&gt;Node19</title>
<path fill="none" stroke="midnightblue" d="M366.78,-157.582C360.019,-164.344 350.854,-173.509 342.895,-181.468"/>
<polygon fill="midnightblue" stroke="midnightblue" points="340.067,-179.346 335.471,-188.892 345.017,-184.295 340.067,-179.346"/>
</g>
<!-- Node23 -->
<g id="node7" class="node"><title>Node23</title>
<g id="a_node7"><a xlink:href="utils-string_8c.html#a72e20a8840db3abb4c684e57f6602b1b" target="_top" xlink:title="fastpm_file_get_content">
<polygon fill="white" stroke="black" points="426.309,-404.343 426.309,-423.343 547.309,-423.343 547.309,-404.343 426.309,-404.343"/>
<text text-anchor="middle" x="486.809" y="-411.343" font-family="Helvetica,sans-Serif" font-size="10.00">fastpm_file_get_content</text>
</a>
</g>
</g>
<!-- Node22&#45;&gt;Node23 -->
<g id="edge7" class="edge"><title>Node22&#45;&gt;Node23</title>
<path fill="none" stroke="midnightblue" d="M397.586,-373.303C414.286,-380.891 437.878,-391.61 456.609,-400.121"/>
<polygon fill="midnightblue" stroke="midnightblue" points="455.346,-403.392 465.898,-404.342 458.242,-397.019 455.346,-403.392"/>
</g>
<!-- Node24 -->
<g id="node8" class="node"><title>Node24</title>
<g id="a_node8"><a xlink:href="utils-string_8c.html#a787c3b0717214d830c69b7e8785a3e33" target="_top" xlink:title="fastpm_strdup_printf">
<polygon fill="white" stroke="black" points="213.384,-404.343 213.384,-423.343 319.384,-423.343 319.384,-404.343 213.384,-404.343"/>
<text text-anchor="middle" x="266.384" y="-411.343" font-family="Helvetica,sans-Serif" font-size="10.00">fastpm_strdup_printf</text>
</a>
</g>
</g>
<!-- Node22&#45;&gt;Node24 -->
<g id="edge8" class="edge"><title>Node22&#45;&gt;Node24</title>
<path fill="none" stroke="midnightblue" d="M355.607,-373.303C338.907,-380.891 315.315,-391.61 296.585,-400.121"/>
<polygon fill="midnightblue" stroke="midnightblue" points="294.952,-397.019 287.295,-404.342 297.847,-403.392 294.952,-397.019"/>
</g>
<!-- Node25 -->
<g id="node9" class="node"><title>Node25</title>
<g id="a_node9"><a xlink:href="utils-string_8c.html#ae1f141218851350d5d41e00bc16cc705" target="_top" xlink:title="fastpm_strdup_vprintf">
<polygon fill="white" stroke="black" points="183.331,-470.863 183.331,-489.863 294.331,-489.863 294.331,-470.863 183.331,-470.863"/>
<text text-anchor="middle" x="238.831" y="-477.863" font-family="Helvetica,sans-Serif" font-size="10.00">fastpm_strdup_vprintf</text>
</a>
</g>
</g>
<!-- Node24&#45;&gt;Node25 -->
<g id="edge9" class="edge"><title>Node24&#45;&gt;Node25</title>
<path fill="none" stroke="midnightblue" d="M262.436,-423.374C258.344,-433.253 251.838,-448.96 246.691,-461.385"/>
<polygon fill="midnightblue" stroke="midnightblue" points="243.364,-460.272 242.771,-470.85 249.831,-462.95 243.364,-460.272"/>
</g>
<!-- Node26 -->
<g id="node10" class="node"><title>Node26</title>
<g id="a_node10"><a xlink:href="utils-string_8c.html#a0b3b094cb274f3b23292ecfc061734f8" target="_top" xlink:title="_mkdir">
<polygon fill="white" stroke="black" points="188.277,-537.382 188.277,-556.382 234.277,-556.382 234.277,-537.382 188.277,-537.382"/>
<text text-anchor="middle" x="211.277" y="-544.382" font-family="Helvetica,sans-Serif" font-size="10.00">_mkdir</text>
</a>
</g>
</g>
<!-- Node25&#45;&gt;Node26 -->
<g id="edge10" class="edge"><title>Node25&#45;&gt;Node26</title>
<path fill="none" stroke="midnightblue" d="M234.883,-489.893C230.791,-499.772 224.285,-515.48 219.138,-527.904"/>
<polygon fill="midnightblue" stroke="midnightblue" points="215.811,-526.791 215.218,-537.369 222.278,-529.47 215.811,-526.791"/>
</g>
<!-- Node27&#45;&gt;Node21 -->
<g id="edge12" class="edge"><title>Node27&#45;&gt;Node21</title>
<path fill="none" stroke="midnightblue" d="M419.851,-129.85C416.427,-131.268 412.848,-132.75 409.278,-134.229"/>
<polygon fill="midnightblue" stroke="midnightblue" points="407.861,-131.028 399.961,-138.088 410.539,-137.495 407.861,-131.028"/>
</g>
<!-- Node28&#45;&gt;Node19 -->
<g id="edge14" class="edge"><title>Node28&#45;&gt;Node19</title>
<path fill="none" stroke="midnightblue" d="M321.71,-24.3584C322.37,-53.2898 324.343,-139.845 325.237,-179.025"/>
<polygon fill="midnightblue" stroke="midnightblue" points="321.74,-179.225 325.467,-189.142 328.739,-179.065 321.74,-179.225"/>
</g>
<!-- Node30 -->
<g id="node14" class="node"><title>Node30</title>
<g id="a_node14"><a xlink:href="endrun_8c.html#a7267113a7c0a094743bb565eabc695d1" target="_top" xlink:title="messagev">
<polygon fill="white" stroke="black" points="57.5966,-138.266 57.5966,-157.266 119.597,-157.266 119.597,-138.266 57.5966,-138.266"/>
<text text-anchor="middle" x="88.5966" y="-145.266" font-family="Helvetica,sans-Serif" font-size="10.00">messagev</text>
</a>
</g>
</g>
<!-- Node29&#45;&gt;Node30 -->
<g id="edge16" class="edge"><title>Node29&#45;&gt;Node30</title>
<path fill="none" stroke="midnightblue" d="M132.553,-147.766C131.783,-147.766 131.008,-147.766 130.23,-147.766"/>
<polygon fill="midnightblue" stroke="midnightblue" points="130.026,-144.266 120.026,-147.766 130.026,-151.266 130.026,-144.266"/>
</g>
<!-- Node31 -->
<g id="node15" class="node"><title>Node31</title>
<g id="a_node15"><a xlink:href="endrun_8c.html#a87108946670b4c3afbe846c6726675ff" target="_top" xlink:title="putline">
<polygon fill="white" stroke="black" points="21.5,-276.032 21.5,-295.032 66.5,-295.032 66.5,-276.032 21.5,-276.032"/>
<text text-anchor="middle" x="44" y="-283.032" font-family="Helvetica,sans-Serif" font-size="10.00">putline</text>
</a>
</g>
</g>
<!-- Node30&#45;&gt;Node31 -->
<g id="edge17" class="edge"><title>Node30&#45;&gt;Node31</title>
<path fill="none" stroke="midnightblue" d="M85.3894,-157.674C78.0609,-180.313 59.9782,-236.173 50.3199,-266.009"/>
<polygon fill="midnightblue" stroke="midnightblue" points="46.9282,-265.122 47.1782,-275.714 53.5879,-267.278 46.9282,-265.122"/>
</g>
<!-- Node32 -->
<g id="node16" class="node"><title>Node32</title>
<g id="a_node16"><a xlink:href="endrun_8c.html#a1200f02a595ab7cbe17c9e36ff32af0f" target="_top" xlink:title="show_backtrace">
<polygon fill="white" stroke="black" points="3.55271e-14,-0.5 3.55271e-14,-19.5 88,-19.5 88,-0.5 3.55271e-14,-0.5"/>
<text text-anchor="middle" x="44" y="-7.5" font-family="Helvetica,sans-Serif" font-size="10.00">show_backtrace</text>
</a>
</g>
</g>
<!-- Node30&#45;&gt;Node32 -->
<g id="edge18" class="edge"><title>Node30&#45;&gt;Node32</title>
<path fill="none" stroke="midnightblue" d="M85.3894,-137.858C78.0609,-115.22 59.9782,-59.3591 50.3199,-29.5231"/>
<polygon fill="midnightblue" stroke="midnightblue" points="53.5879,-28.254 47.1782,-19.818 46.9282,-30.4099 53.5879,-28.254"/>
</g>
</g>
</svg>
