<?xml version="1.0" encoding="UTF-8" standalone="no"?>
<!DOCTYPE svg PUBLIC "-//W3C//DTD SVG 1.1//EN"
 "http://www.w3.org/Graphics/SVG/1.1/DTD/svg11.dtd">
<!-- Generated by graphviz version 2.38.0 (20140413.2041)
 -->
<!-- Title: hci_update_query_timer Pages: 1 -->
<svg width="595pt" height="47pt"
 viewBox="0.00 0.00 595.00 47.00" xmlns="http://www.w3.org/2000/svg" xmlns:xlink="http://www.w3.org/1999/xlink">
<g id="graph0" class="graph" transform="scale(1 1) rotate(0) translate(4 43)">
<title>hci_update_query_timer</title>
<polygon fill="white" stroke="none" points="-4,4 -4,-43 591,-43 591,4 -4,4"/>
<!-- Node92 -->
<g id="node1" class="node"><title>Node92</title>
<polygon fill="#bfbfbf" stroke="black" points="0,-0.5 0,-19.5 120,-19.5 120,-0.5 0,-0.5"/>
<text text-anchor="middle" x="60" y="-7.5" font-family="Helvetica,sans-Serif" font-size="10.00">hci_update_query_timer</text>
</g>
<!-- Node93 -->
<g id="node2" class="node"><title>Node93</title>
<g id="a_node2"><a xlink:href="hci_8h.html#ab140bce619153b809e0fea49a2e1d081" target="_top" xlink:title="hci_query">
<polygon fill="white" stroke="black" points="156,-0.5 156,-19.5 215,-19.5 215,-0.5 156,-0.5"/>
<text text-anchor="middle" x="185.5" y="-7.5" font-family="Helvetica,sans-Serif" font-size="10.00">hci_query</text>
</a>
</g>
</g>
<!-- Node92&#45;&gt;Node93 -->
<g id="edge1" class="edge"><title>Node92&#45;&gt;Node93</title>
<path fill="none" stroke="midnightblue" d="M130.364,-10C139.305,-10 148.03,-10 155.774,-10"/>
<polygon fill="midnightblue" stroke="midnightblue" points="130.218,-6.5001 120.218,-10 130.218,-13.5001 130.218,-6.5001"/>
</g>
<!-- Node94 -->
<g id="node3" class="node"><title>Node94</title>
<g id="a_node3"><a xlink:href="run_8c.html#a05e0ffe612d44e6d7f3a9ae5b9df56a2" target="_top" xlink:title="run">
<polygon fill="white" stroke="black" points="251,-0.5 251,-19.5 281,-19.5 281,-0.5 251,-0.5"/>
<text text-anchor="middle" x="266" y="-7.5" font-family="Helvetica,sans-Serif" font-size="10.00">run</text>
</a>
</g>
</g>
<!-- Node93&#45;&gt;Node94 -->
<g id="edge2" class="edge"><title>Node93&#45;&gt;Node94</title>
<path fill="none" stroke="midnightblue" d="M225.408,-10C234.476,-10 243.567,-10 250.747,-10"/>
<polygon fill="midnightblue" stroke="midnightblue" points="225.285,-6.5001 215.285,-10 225.285,-13.5001 225.285,-6.5001"/>
</g>
<!-- Node95 -->
<g id="node4" class="node"><title>Node95</title>
<g id="a_node4"><a xlink:href="main_8c.html#a3c04138a5bfe5d72780bb7e82a18e627" target="_top" xlink:title="main">
<polygon fill="white" stroke="black" points="317,-19.5 317,-38.5 355,-38.5 355,-19.5 317,-19.5"/>
<text text-anchor="middle" x="336" y="-26.5" font-family="Helvetica,sans-Serif" font-size="10.00">main</text>
</a>
</g>
</g>
<!-- Node94&#45;&gt;Node95 -->
<g id="edge3" class="edge"><title>Node94&#45;&gt;Node95</title>
<path fill="none" stroke="midnightblue" d="M290.853,-16.6647C299.37,-19.0447 308.823,-21.686 316.79,-23.9119"/>
<polygon fill="midnightblue" stroke="midnightblue" points="291.663,-13.257 281.09,-13.9368 289.779,-19.9988 291.663,-13.257"/>
</g>
<!-- Node96 -->
<g id="node5" class="node"><title>Node96</title>
<g id="a_node5"><a xlink:href="walltime_8h.html#a76d2135b612766d4d665748454b879d6" target="_top" xlink:title="walltime_report">
<polygon fill="white" stroke="black" points="391,-19.5 391,-38.5 474,-38.5 474,-19.5 391,-19.5"/>
<text text-anchor="middle" x="432.5" y="-26.5" font-family="Helvetica,sans-Serif" font-size="10.00">walltime_report</text>
</a>
</g>
</g>
<!-- Node95&#45;&gt;Node96 -->
<g id="edge4" class="edge"><title>Node95&#45;&gt;Node96</title>
<path fill="none" stroke="midnightblue" d="M365.411,-29C373.347,-29 382.132,-29 390.635,-29"/>
<polygon fill="midnightblue" stroke="midnightblue" points="365.221,-25.5001 355.221,-29 365.221,-32.5001 365.221,-25.5001"/>
</g>
<!-- Node97 -->
<g id="node6" class="node"><title>Node97</title>
<g id="a_node6"><a xlink:href="run_8c.html#adc59e9ee1517e4e690694a64ab6a59d2" target="_top" xlink:title="write_cpu_log">
<polygon fill="white" stroke="black" points="510,-0.5 510,-19.5 587,-19.5 587,-0.5 510,-0.5"/>
<text text-anchor="middle" x="548.5" y="-7.5" font-family="Helvetica,sans-Serif" font-size="10.00">write_cpu_log</text>
</a>
</g>
</g>
<!-- Node96&#45;&gt;Node97 -->
<g id="edge5" class="edge"><title>Node96&#45;&gt;Node97</title>
<path fill="none" stroke="midnightblue" d="M484.031,-20.5782C492.684,-19.1359 501.54,-17.6601 509.785,-16.2859"/>
<polygon fill="midnightblue" stroke="midnightblue" points="483.302,-17.1514 474.013,-22.2478 484.452,-24.0561 483.302,-17.1514"/>
</g>
<!-- Node97&#45;&gt;Node94 -->
<g id="edge6" class="edge"><title>Node97&#45;&gt;Node94</title>
<path fill="none" stroke="midnightblue" d="M499.727,-10C434.488,-10 321.088,-10 281.296,-10"/>
<polygon fill="midnightblue" stroke="midnightblue" points="499.765,-13.5001 509.765,-10 499.765,-6.5001 499.765,-13.5001"/>
</g>
</g>
</svg>
