<?xml version="1.0" encoding="UTF-8" standalone="no"?>
<!DOCTYPE svg PUBLIC "-//W3C//DTD SVG 1.1//EN"
 "http://www.w3.org/Graphics/SVG/1.1/DTD/svg11.dtd">
<!-- Generated by graphviz version 2.38.0 (20140413.2041)
 -->
<!-- Title: hci_get_elapsed_time Pages: 1 -->
<svg width="556pt" height="402pt"
 viewBox="0.00 0.00 556.00 402.12" xmlns="http://www.w3.org/2000/svg" xmlns:xlink="http://www.w3.org/1999/xlink">
<g id="graph0" class="graph" transform="scale(1 1) rotate(0) translate(4 398.123)">
<title>hci_get_elapsed_time</title>
<polygon fill="white" stroke="none" points="-4,4 -4,-398.123 552,-398.123 552,4 -4,4"/>
<!-- Node9 -->
<g id="node1" class="node"><title>Node9</title>
<polygon fill="#bfbfbf" stroke="black" points="271,-62.8538 271,-81.8538 382,-81.8538 382,-62.8538 271,-62.8538"/>
<text text-anchor="middle" x="326.5" y="-69.8538" font-family="Helvetica,sans-Serif" font-size="10.00">hci_get_elapsed_time</text>
</g>
<!-- Node10 -->
<g id="node2" class="node"><title>Node10</title>
<g id="a_node2"><a xlink:href="hci_8c.html#acc6f82bedec50d4ab1953895c1abd49f" target="_top" xlink:title="hci_query_auto_checkpoint">
<polygon fill="white" stroke="black" points="223,-125.208 223,-144.208 358,-144.208 358,-125.208 223,-125.208"/>
<text text-anchor="middle" x="290.5" y="-132.208" font-family="Helvetica,sans-Serif" font-size="10.00">hci_query_auto_checkpoint</text>
</a>
</g>
</g>
<!-- Node9&#45;&gt;Node10 -->
<g id="edge1" class="edge"><title>Node9&#45;&gt;Node10</title>
<path fill="none" stroke="midnightblue" d="M315.721,-91.0238C309.309,-102.13 301.432,-115.774 296.204,-124.828"/>
<polygon fill="midnightblue" stroke="midnightblue" points="318.906,-92.5069 320.875,-82.0966 312.844,-89.0069 318.906,-92.5069"/>
</g>
<!-- Node16 -->
<g id="node8" class="node"><title>Node16</title>
<g id="a_node8"><a xlink:href="hci_8c.html#a45765de3ce60382338140dc7d6532a65" target="_top" xlink:title="hci_query_timeout">
<polygon fill="white" stroke="black" points="314.5,-0.5 314.5,-19.5 410.5,-19.5 410.5,-0.5 314.5,-0.5"/>
<text text-anchor="middle" x="362.5" y="-7.5" font-family="Helvetica,sans-Serif" font-size="10.00">hci_query_timeout</text>
</a>
</g>
</g>
<!-- Node9&#45;&gt;Node16 -->
<g id="edge8" class="edge"><title>Node9&#45;&gt;Node16</title>
<path fill="none" stroke="midnightblue" d="M337.279,-53.6839C343.691,-42.5781 351.568,-28.9341 356.796,-19.8801"/>
<polygon fill="midnightblue" stroke="midnightblue" points="334.094,-52.2008 332.125,-62.611 340.156,-55.7008 334.094,-52.2008"/>
</g>
<!-- Node11 -->
<g id="node3" class="node"><title>Node11</title>
<g id="a_node3"><a xlink:href="hci_8h.html#ab140bce619153b809e0fea49a2e1d081" target="_top" xlink:title="hci_query">
<polygon fill="white" stroke="black" points="225,-187.561 225,-206.561 284,-206.561 284,-187.561 225,-187.561"/>
<text text-anchor="middle" x="254.5" y="-194.561" font-family="Helvetica,sans-Serif" font-size="10.00">hci_query</text>
</a>
</g>
</g>
<!-- Node10&#45;&gt;Node11 -->
<g id="edge2" class="edge"><title>Node10&#45;&gt;Node11</title>
<path fill="none" stroke="midnightblue" d="M279.721,-153.378C273.309,-164.483 265.432,-178.127 260.204,-187.181"/>
<polygon fill="midnightblue" stroke="midnightblue" points="282.906,-154.861 284.875,-144.45 276.844,-151.361 282.906,-154.861"/>
</g>
<!-- Node12 -->
<g id="node4" class="node"><title>Node12</title>
<g id="a_node4"><a xlink:href="run_8c.html#a05e0ffe612d44e6d7f3a9ae5b9df56a2" target="_top" xlink:title="run">
<polygon fill="white" stroke="black" points="203.5,-249.915 203.5,-268.915 233.5,-268.915 233.5,-249.915 203.5,-249.915"/>
<text text-anchor="middle" x="218.5" y="-256.915" font-family="Helvetica,sans-Serif" font-size="10.00">run</text>
</a>
</g>
</g>
<!-- Node11&#45;&gt;Node12 -->
<g id="edge3" class="edge"><title>Node11&#45;&gt;Node12</title>
<path fill="none" stroke="midnightblue" d="M243.721,-215.731C237.309,-226.837 229.432,-240.481 224.204,-249.535"/>
<polygon fill="midnightblue" stroke="midnightblue" points="246.906,-217.215 248.875,-206.804 240.844,-213.715 246.906,-217.215"/>
</g>
<!-- Node13 -->
<g id="node5" class="node"><title>Node13</title>
<g id="a_node5"><a xlink:href="main_8c.html#a3c04138a5bfe5d72780bb7e82a18e627" target="_top" xlink:title="main">
<polygon fill="white" stroke="black" points="451.5,-312.269 451.5,-331.269 489.5,-331.269 489.5,-312.269 451.5,-312.269"/>
<text text-anchor="middle" x="470.5" y="-319.269" font-family="Helvetica,sans-Serif" font-size="10.00">main</text>
</a>
</g>
</g>
<!-- Node12&#45;&gt;Node13 -->
<g id="edge4" class="edge"><title>Node12&#45;&gt;Node13</title>
<path fill="none" stroke="midnightblue" d="M243.522,-265.607C293.795,-278.046 406.099,-305.834 451.203,-316.994"/>
<polygon fill="midnightblue" stroke="midnightblue" points="244.057,-262.134 233.509,-263.129 242.376,-268.929 244.057,-262.134"/>
</g>
<!-- Node14 -->
<g id="node6" class="node"><title>Node14</title>
<g id="a_node6"><a xlink:href="walltime_8h.html#a76d2135b612766d4d665748454b879d6" target="_top" xlink:title="walltime_report">
<polygon fill="white" stroke="black" points="465,-374.623 465,-393.623 548,-393.623 548,-374.623 465,-374.623"/>
<text text-anchor="middle" x="506.5" y="-381.623" font-family="Helvetica,sans-Serif" font-size="10.00">walltime_report</text>
</a>
</g>
</g>
<!-- Node13&#45;&gt;Node14 -->
<g id="edge5" class="edge"><title>Node13&#45;&gt;Node14</title>
<path fill="none" stroke="midnightblue" d="M481.279,-340.439C487.691,-351.545 495.568,-365.189 500.796,-374.243"/>
<polygon fill="midnightblue" stroke="midnightblue" points="484.156,-338.422 476.125,-331.512 478.094,-341.922 484.156,-338.422"/>
</g>
<!-- Node15 -->
<g id="node7" class="node"><title>Node15</title>
<g id="a_node7"><a xlink:href="run_8c.html#adc59e9ee1517e4e690694a64ab6a59d2" target="_top" xlink:title="write_cpu_log">
<polygon fill="white" stroke="black" points="7.10543e-15,-62.8538 7.10543e-15,-81.8538 77,-81.8538 77,-62.8538 7.10543e-15,-62.8538"/>
<text text-anchor="middle" x="38.5" y="-69.8538" font-family="Helvetica,sans-Serif" font-size="10.00">write_cpu_log</text>
</a>
</g>
</g>
<!-- Node14&#45;&gt;Node15 -->
<g id="edge6" class="edge"><title>Node14&#45;&gt;Node15</title>
<path fill="none" stroke="midnightblue" d="M483.848,-369.033C401.574,-314.224 119.874,-126.563 52.8803,-81.9336"/>
<polygon fill="midnightblue" stroke="midnightblue" points="481.975,-371.991 492.238,-374.622 485.856,-366.165 481.975,-371.991"/>
</g>
<!-- Node15&#45;&gt;Node12 -->
<g id="edge7" class="edge"><title>Node15&#45;&gt;Node12</title>
<path fill="none" stroke="midnightblue" d="M54.6801,-89.1687C91.3994,-127.329 180.096,-219.505 209.129,-249.677"/>
<polygon fill="midnightblue" stroke="midnightblue" points="57.1295,-86.6664 47.6737,-81.8874 52.0854,-91.52 57.1295,-86.6664"/>
</g>
<!-- Node16&#45;&gt;Node11 -->
<g id="edge9" class="edge"><title>Node16&#45;&gt;Node11</title>
<path fill="none" stroke="midnightblue" d="M351.948,-28.2771C329.43,-67.279 277.323,-157.53 260.123,-187.323"/>
<polygon fill="midnightblue" stroke="midnightblue" points="355.027,-29.9439 356.996,-19.5336 348.965,-26.4438 355.027,-29.9439"/>
</g>
</g>
</svg>
