<?xml version="1.0" encoding="UTF-8" standalone="no"?>
<!DOCTYPE svg PUBLIC "-//W3C//DTD SVG 1.1//EN"
 "http://www.w3.org/Graphics/SVG/1.1/DTD/svg11.dtd">
<!-- Generated by graphviz version 2.50.0 (0)
 -->
<!-- Title: hci_query_auto_checkpoint Pages: 1 -->
<svg width="516pt" height="294pt"
 viewBox="0.00 0.00 516.00 294.00" xmlns="http://www.w3.org/2000/svg" xmlns:xlink="http://www.w3.org/1999/xlink">
<g id="graph0" class="graph" transform="scale(1 1) rotate(0) translate(4 290)">
<title>hci_query_auto_checkpoint</title>
<polygon fill="white" stroke="transparent" points="-4,4 -4,-290 512,-290 512,4 -4,4"/>
<!-- Node1 -->
<g id="node1" class="node">
<title>Node1</title>
<g id="a_node1"><a xlink:title=" ">
<polygon fill="#bfbfbf" stroke="black" points="359,-133.5 359,-152.5 508,-152.5 508,-133.5 359,-133.5"/>
<text text-anchor="middle" x="433.5" y="-140.5" font-family="Helvetica,sans-Serif" font-size="10.00">hci_query_auto_checkpoint</text>
</a>
</g>
</g>
<!-- Node2 -->
<g id="node2" class="node">
<title>Node2</title>
<g id="a_node2"><a xlink:href="hci_8c.html#ab140bce619153b809e0fea49a2e1d081" target="_top" xlink:title=" ">
<polygon fill="white" stroke="black" points="259,-133.5 259,-152.5 323,-152.5 323,-133.5 259,-133.5"/>
<text text-anchor="middle" x="291" y="-140.5" font-family="Helvetica,sans-Serif" font-size="10.00">hci_query</text>
</a>
</g>
</g>
<!-- Node1&#45;&gt;Node2 -->
<g id="edge1" class="edge">
<title>Node1&#45;&gt;Node2</title>
<path fill="none" stroke="midnightblue" d="M348.68,-143C339.65,-143 330.94,-143 323.17,-143"/>
<polygon fill="midnightblue" stroke="midnightblue" points="348.96,-146.5 358.96,-143 348.96,-139.5 348.96,-146.5"/>
</g>
<!-- Node3 -->
<g id="node3" class="node">
<title>Node3</title>
<g id="a_node3"><a xlink:href="run_8c.html#a89690448ef43a8d624b963382b7503ed" target="_top" xlink:title=" ">
<polygon fill="white" stroke="black" points="134,-266.5 134,-285.5 166,-285.5 166,-266.5 134,-266.5"/>
<text text-anchor="middle" x="150" y="-273.5" font-family="Helvetica,sans-Serif" font-size="10.00">run</text>
</a>
</g>
</g>
<!-- Node2&#45;&gt;Node3 -->
<g id="edge2" class="edge">
<title>Node2&#45;&gt;Node3</title>
<path fill="none" stroke="midnightblue" d="M283.87,-162.34C274.76,-187.92 255.17,-232.61 223,-257 206.31,-269.65 181.91,-273.9 166.24,-275.31"/>
<polygon fill="midnightblue" stroke="midnightblue" points="287.26,-163.26 287.14,-152.66 280.63,-161.02 287.26,-163.26"/>
</g>
<!-- Node5 -->
<g id="node5" class="node">
<title>Node5</title>
<g id="a_node5"><a xlink:href="test__hci_8c.html#a22d6f8b447edbf772b9a48eb82bc8a98" target="_top" xlink:title=" ">
<polygon fill="white" stroke="black" points="80,-228.5 80,-247.5 220,-247.5 220,-228.5 80,-228.5"/>
<text text-anchor="middle" x="150" y="-235.5" font-family="Helvetica,sans-Serif" font-size="10.00">test_hci_auto_checkpoint</text>
</a>
</g>
</g>
<!-- Node2&#45;&gt;Node5 -->
<g id="edge4" class="edge">
<title>Node2&#45;&gt;Node5</title>
<path fill="none" stroke="midnightblue" d="M278.6,-161.26C266.78,-178.67 246.74,-204.34 223,-219 216.73,-222.87 209.68,-225.96 202.51,-228.42"/>
<polygon fill="midnightblue" stroke="midnightblue" points="281.74,-162.85 284.29,-152.56 275.88,-159.02 281.74,-162.85"/>
</g>
<!-- Node7 -->
<g id="node7" class="node">
<title>Node7</title>
<g id="a_node7"><a xlink:href="test__hci_8c.html#a49ad292cc9de46d5314653d7c3c5f693" target="_top" xlink:title=" ">
<polygon fill="white" stroke="black" points="77,-190.5 77,-209.5 223,-209.5 223,-190.5 77,-190.5"/>
<text text-anchor="middle" x="150" y="-197.5" font-family="Helvetica,sans-Serif" font-size="10.00">test_hci_auto_checkpoint2</text>
</a>
</g>
</g>
<!-- Node2&#45;&gt;Node7 -->
<g id="edge6" class="edge">
<title>Node2&#45;&gt;Node7</title>
<path fill="none" stroke="midnightblue" d="M267.15,-157.91C254.53,-165.64 238.35,-174.75 223,-181 214.02,-184.66 204.12,-187.8 194.62,-190.42"/>
<polygon fill="midnightblue" stroke="midnightblue" points="269.03,-160.87 275.65,-152.59 265.32,-154.93 269.03,-160.87"/>
</g>
<!-- Node8 -->
<g id="node8" class="node">
<title>Node8</title>
<g id="a_node8"><a xlink:href="test__hci_8c.html#ae58839266a4eb7c73fbd1460039196d3" target="_top" xlink:title=" ">
<polygon fill="white" stroke="black" points="93.5,-152.5 93.5,-171.5 206.5,-171.5 206.5,-152.5 93.5,-152.5"/>
<text text-anchor="middle" x="150" y="-159.5" font-family="Helvetica,sans-Serif" font-size="10.00">test_hci_checkpoint</text>
</a>
</g>
</g>
<!-- Node2&#45;&gt;Node8 -->
<g id="edge8" class="edge">
<title>Node2&#45;&gt;Node8</title>
<path fill="none" stroke="midnightblue" d="M248.64,-148.65C235.48,-150.45 220.69,-152.47 206.69,-154.39"/>
<polygon fill="midnightblue" stroke="midnightblue" points="249.37,-152.09 258.81,-147.26 248.42,-145.15 249.37,-152.09"/>
</g>
<!-- Node9 -->
<g id="node9" class="node">
<title>Node9</title>
<g id="a_node9"><a xlink:href="test__hci_8c.html#ae5da90ded4a73862260b3da912f473a9" target="_top" xlink:title=" ">
<polygon fill="white" stroke="black" points="96.5,-114.5 96.5,-133.5 203.5,-133.5 203.5,-114.5 96.5,-114.5"/>
<text text-anchor="middle" x="150" y="-121.5" font-family="Helvetica,sans-Serif" font-size="10.00">test_hci_no_action</text>
</a>
</g>
</g>
<!-- Node2&#45;&gt;Node9 -->
<g id="edge10" class="edge">
<title>Node2&#45;&gt;Node9</title>
<path fill="none" stroke="midnightblue" d="M248.86,-137.38C234.69,-135.44 218.61,-133.24 203.65,-131.2"/>
<polygon fill="midnightblue" stroke="midnightblue" points="248.42,-140.85 258.81,-138.74 249.37,-133.91 248.42,-140.85"/>
</g>
<!-- Node10 -->
<g id="node10" class="node">
<title>Node10</title>
<g id="a_node10"><a xlink:href="test__hci_8c.html#a995e4ee2bc35b2b300885cc4cd1010b9" target="_top" xlink:title=" ">
<polygon fill="white" stroke="black" points="109.5,-76.5 109.5,-95.5 190.5,-95.5 190.5,-76.5 109.5,-76.5"/>
<text text-anchor="middle" x="150" y="-83.5" font-family="Helvetica,sans-Serif" font-size="10.00">test_hci_stop</text>
</a>
</g>
</g>
<!-- Node2&#45;&gt;Node10 -->
<g id="edge12" class="edge">
<title>Node2&#45;&gt;Node10</title>
<path fill="none" stroke="midnightblue" d="M267.15,-128.09C254.53,-120.36 238.35,-111.25 223,-105 212.82,-100.85 201.47,-97.37 190.84,-94.56"/>
<polygon fill="midnightblue" stroke="midnightblue" points="265.32,-131.07 275.65,-133.41 269.03,-125.13 265.32,-131.07"/>
</g>
<!-- Node11 -->
<g id="node11" class="node">
<title>Node11</title>
<g id="a_node11"><a xlink:href="test__hci_8c.html#a79c3d1222a5b56c16b777aa76f47c301" target="_top" xlink:title=" ">
<polygon fill="white" stroke="black" points="96,-38.5 96,-57.5 204,-57.5 204,-38.5 96,-38.5"/>
<text text-anchor="middle" x="150" y="-45.5" font-family="Helvetica,sans-Serif" font-size="10.00">test_hci_terminate</text>
</a>
</g>
</g>
<!-- Node2&#45;&gt;Node11 -->
<g id="edge14" class="edge">
<title>Node2&#45;&gt;Node11</title>
<path fill="none" stroke="midnightblue" d="M278.6,-124.74C266.78,-107.33 246.74,-81.66 223,-67 216.73,-63.13 209.68,-60.04 202.51,-57.58"/>
<polygon fill="midnightblue" stroke="midnightblue" points="275.88,-126.98 284.29,-133.44 281.74,-123.15 275.88,-126.98"/>
</g>
<!-- Node12 -->
<g id="node12" class="node">
<title>Node12</title>
<g id="a_node12"><a xlink:href="test__hci_8c.html#a9f233c902aeab3b9113aa7c3a50ce965" target="_top" xlink:title=" ">
<polygon fill="white" stroke="black" points="101,-0.5 101,-19.5 199,-19.5 199,-0.5 101,-0.5"/>
<text text-anchor="middle" x="150" y="-7.5" font-family="Helvetica,sans-Serif" font-size="10.00">test_hci_timeout</text>
</a>
</g>
</g>
<!-- Node2&#45;&gt;Node12 -->
<g id="edge16" class="edge">
<title>Node2&#45;&gt;Node12</title>
<path fill="none" stroke="midnightblue" d="M283.87,-123.66C274.76,-98.08 255.17,-53.39 223,-29 215.99,-23.69 207.63,-19.86 199.12,-17.1"/>
<polygon fill="midnightblue" stroke="midnightblue" points="280.63,-124.98 287.14,-133.34 287.26,-122.74 280.63,-124.98"/>
</g>
<!-- Node4 -->
<g id="node4" class="node">
<title>Node4</title>
<g id="a_node4"><a xlink:href="gadget_2main_8c.html#a3c04138a5bfe5d72780bb7e82a18e627" target="_top" xlink:title=" ">
<polygon fill="white" stroke="black" points="0,-266.5 0,-285.5 41,-285.5 41,-266.5 0,-266.5"/>
<text text-anchor="middle" x="20.5" y="-273.5" font-family="Helvetica,sans-Serif" font-size="10.00">main</text>
</a>
</g>
</g>
<!-- Node3&#45;&gt;Node4 -->
<g id="edge3" class="edge">
<title>Node3&#45;&gt;Node4</title>
<path fill="none" stroke="midnightblue" d="M123.66,-276C99.42,-276 63.36,-276 41.2,-276"/>
<polygon fill="midnightblue" stroke="midnightblue" points="123.87,-279.5 133.87,-276 123.87,-272.5 123.87,-279.5"/>
</g>
<!-- Node6 -->
<g id="node6" class="node">
<title>Node6</title>
<g id="a_node6"><a xlink:href="test__hci_8c.html#a840291bc02cba5474a4cb46a9b9566fe" target="_top" xlink:title=" ">
<polygon fill="white" stroke="black" points="0,-114.5 0,-133.5 41,-133.5 41,-114.5 0,-114.5"/>
<text text-anchor="middle" x="20.5" y="-121.5" font-family="Helvetica,sans-Serif" font-size="10.00">main</text>
</a>
</g>
</g>
<!-- Node5&#45;&gt;Node6 -->
<g id="edge5" class="edge">
<title>Node5&#45;&gt;Node6</title>
<path fill="none" stroke="midnightblue" d="M84.94,-224.14C82.16,-222.6 79.49,-220.89 77,-219 47.35,-196.46 30.67,-153.14 24.4,-133.77"/>
<polygon fill="midnightblue" stroke="midnightblue" points="83.63,-227.39 94.16,-228.49 86.61,-221.06 83.63,-227.39"/>
</g>
<!-- Node7&#45;&gt;Node6 -->
<g id="edge7" class="edge">
<title>Node7&#45;&gt;Node6</title>
<path fill="none" stroke="midnightblue" d="M88.74,-186.79C84.66,-185.08 80.71,-183.16 77,-181 56.01,-168.75 37.65,-146.4 28.22,-133.63"/>
<polygon fill="midnightblue" stroke="midnightblue" points="87.82,-190.18 98.41,-190.39 90.26,-183.62 87.82,-190.18"/>
</g>
<!-- Node8&#45;&gt;Node6 -->
<g id="edge9" class="edge">
<title>Node8&#45;&gt;Node6</title>
<path fill="none" stroke="midnightblue" d="M101.06,-149.86C93,-147.68 84.74,-145.34 77,-143 65.01,-139.37 51.73,-134.84 41.17,-131.12"/>
<polygon fill="midnightblue" stroke="midnightblue" points="100.18,-153.25 110.74,-152.45 101.98,-146.49 100.18,-153.25"/>
</g>
<!-- Node9&#45;&gt;Node6 -->
<g id="edge11" class="edge">
<title>Node9&#45;&gt;Node6</title>
<path fill="none" stroke="midnightblue" d="M86.27,-124C69.92,-124 53.47,-124 41.24,-124"/>
<polygon fill="midnightblue" stroke="midnightblue" points="86.4,-127.5 96.4,-124 86.4,-120.5 86.4,-127.5"/>
</g>
<!-- Node10&#45;&gt;Node6 -->
<g id="edge13" class="edge">
<title>Node10&#45;&gt;Node6</title>
<path fill="none" stroke="midnightblue" d="M101.06,-98.14C93,-100.32 84.74,-102.66 77,-105 65.01,-108.63 51.73,-113.16 41.17,-116.88"/>
<polygon fill="midnightblue" stroke="midnightblue" points="101.98,-101.51 110.74,-95.55 100.18,-94.75 101.98,-101.51"/>
</g>
<!-- Node11&#45;&gt;Node6 -->
<g id="edge15" class="edge">
<title>Node11&#45;&gt;Node6</title>
<path fill="none" stroke="midnightblue" d="M88.74,-61.21C84.66,-62.92 80.71,-64.84 77,-67 56.01,-79.25 37.65,-101.6 28.22,-114.37"/>
<polygon fill="midnightblue" stroke="midnightblue" points="90.26,-64.38 98.41,-57.61 87.82,-57.82 90.26,-64.38"/>
</g>
<!-- Node12&#45;&gt;Node6 -->
<g id="edge17" class="edge">
<title>Node12&#45;&gt;Node6</title>
<path fill="none" stroke="midnightblue" d="M91.42,-20.66C86.28,-22.93 81.37,-25.67 77,-29 47.35,-51.54 30.67,-94.86 24.4,-114.23"/>
<polygon fill="midnightblue" stroke="midnightblue" points="92.76,-23.9 100.86,-17.08 90.27,-17.36 92.76,-23.9"/>
</g>
</g>
</svg>
