<?xml version="1.0" encoding="UTF-8" standalone="no"?>
<!DOCTYPE svg PUBLIC "-//W3C//DTD SVG 1.1//EN"
 "http://www.w3.org/Graphics/SVG/1.1/DTD/svg11.dtd">
<!-- Generated by graphviz version 2.38.0 (20140413.2041)
 -->
<!-- Title: hci_now Pages: 1 -->
<svg width="855pt" height="167pt"
 viewBox="0.00 0.00 855.00 167.36" xmlns="http://www.w3.org/2000/svg" xmlns:xlink="http://www.w3.org/1999/xlink">
<g id="graph0" class="graph" transform="scale(1 1) rotate(0) translate(4 163.355)">
<title>hci_now</title>
<polygon fill="white" stroke="none" points="-4,4 -4,-163.355 851,-163.355 851,4 -4,4"/>
<!-- Node26 -->
<g id="node1" class="node"><title>Node26</title>
<polygon fill="#bfbfbf" stroke="black" points="0,-57.5 0,-76.5 53,-76.5 53,-57.5 0,-57.5"/>
<text text-anchor="middle" x="26.5" y="-64.5" font-family="Helvetica,sans-Serif" font-size="10.00">hci_now</text>
</g>
<!-- Node27 -->
<g id="node2" class="node"><title>Node27</title>
<g id="a_node2"><a xlink:href="hci_8c.html#a378b079f9673cd4da7f712d22ca4d5e9" target="_top" xlink:title="hci_get_elapsed_time">
<polygon fill="white" stroke="black" points="93.5,-76.5 93.5,-95.5 204.5,-95.5 204.5,-76.5 93.5,-76.5"/>
<text text-anchor="middle" x="149" y="-83.5" font-family="Helvetica,sans-Serif" font-size="10.00">hci_get_elapsed_time</text>
</a>
</g>
</g>
<!-- Node26&#45;&gt;Node27 -->
<g id="edge1" class="edge"><title>Node26&#45;&gt;Node27</title>
<path fill="none" stroke="midnightblue" d="M63.2249,-72.633C72.6516,-74.1193 83.0441,-75.758 93.2262,-77.3635"/>
<polygon fill="midnightblue" stroke="midnightblue" points="63.4781,-69.1297 53.055,-71.0294 62.3878,-76.0443 63.4781,-69.1297"/>
</g>
<!-- Node29 -->
<g id="node4" class="node"><title>Node29</title>
<g id="a_node4"><a xlink:href="hci_8h.html#ab140bce619153b809e0fea49a2e1d081" target="_top" xlink:title="hci_query">
<polygon fill="white" stroke="black" points="416,-76.5 416,-95.5 475,-95.5 475,-76.5 416,-76.5"/>
<text text-anchor="middle" x="445.5" y="-83.5" font-family="Helvetica,sans-Serif" font-size="10.00">hci_query</text>
</a>
</g>
</g>
<!-- Node26&#45;&gt;Node29 -->
<g id="edge14" class="edge"><title>Node26&#45;&gt;Node29</title>
<path fill="none" stroke="midnightblue" d="M63.3121,-63.6449C127.284,-58.3956 265.246,-50.4498 380,-67 392.941,-68.8663 406.904,-72.7363 418.518,-76.4996"/>
<polygon fill="midnightblue" stroke="midnightblue" points="63.001,-60.1587 53.3329,-64.4919 63.593,-67.1336 63.001,-60.1587"/>
</g>
<!-- Node35 -->
<g id="node10" class="node"><title>Node35</title>
<g id="a_node10"><a xlink:href="hci_8h.html#a840a318f8e654822aa7e5edc233ee2c9" target="_top" xlink:title="hci_init">
<polygon fill="white" stroke="black" points="289,-0.5 289,-19.5 336,-19.5 336,-0.5 289,-0.5"/>
<text text-anchor="middle" x="312.5" y="-7.5" font-family="Helvetica,sans-Serif" font-size="10.00">hci_init</text>
</a>
</g>
</g>
<!-- Node26&#45;&gt;Node35 -->
<g id="edge11" class="edge"><title>Node26&#45;&gt;Node35</title>
<path fill="none" stroke="midnightblue" d="M50.1713,-52.1153C61.4013,-45.4654 75.4344,-38.1959 89,-34 159.523,-12.187 247.926,-9.53247 288.821,-9.61356"/>
<polygon fill="midnightblue" stroke="midnightblue" points="48.1488,-49.2503 41.4693,-57.4744 51.8195,-55.2107 48.1488,-49.2503"/>
</g>
<!-- Node37 -->
<g id="node12" class="node"><title>Node37</title>
<g id="a_node12"><a xlink:href="hci_8c.html#a04f5b8b9042727d86768bd9acd2810a7" target="_top" xlink:title="hci_update_query_timer">
<polygon fill="white" stroke="black" points="89,-133.5 89,-152.5 209,-152.5 209,-133.5 89,-133.5"/>
<text text-anchor="middle" x="149" y="-140.5" font-family="Helvetica,sans-Serif" font-size="10.00">hci_update_query_timer</text>
</a>
</g>
</g>
<!-- Node26&#45;&gt;Node37 -->
<g id="edge15" class="edge"><title>Node26&#45;&gt;Node37</title>
<path fill="none" stroke="midnightblue" d="M51.373,-82.0568C75.6017,-97.338 112.375,-120.531 132.863,-133.453"/>
<polygon fill="midnightblue" stroke="midnightblue" points="53.0868,-78.9998 42.7614,-76.6255 49.3525,-84.9205 53.0868,-78.9998"/>
</g>
<!-- Node28 -->
<g id="node3" class="node"><title>Node28</title>
<g id="a_node3"><a xlink:href="hci_8c.html#acc6f82bedec50d4ab1953895c1abd49f" target="_top" xlink:title="hci_query_auto_checkpoint">
<polygon fill="white" stroke="black" points="245,-76.5 245,-95.5 380,-95.5 380,-76.5 245,-76.5"/>
<text text-anchor="middle" x="312.5" y="-83.5" font-family="Helvetica,sans-Serif" font-size="10.00">hci_query_auto_checkpoint</text>
</a>
</g>
</g>
<!-- Node27&#45;&gt;Node28 -->
<g id="edge2" class="edge"><title>Node27&#45;&gt;Node28</title>
<path fill="none" stroke="midnightblue" d="M214.828,-86C224.71,-86 234.923,-86 244.843,-86"/>
<polygon fill="midnightblue" stroke="midnightblue" points="214.677,-82.5001 204.677,-86 214.676,-89.5001 214.677,-82.5001"/>
</g>
<!-- Node34 -->
<g id="node9" class="node"><title>Node34</title>
<g id="a_node9"><a xlink:href="hci_8c.html#a45765de3ce60382338140dc7d6532a65" target="_top" xlink:title="hci_query_timeout">
<polygon fill="white" stroke="black" points="264.5,-114.5 264.5,-133.5 360.5,-133.5 360.5,-114.5 264.5,-114.5"/>
<text text-anchor="middle" x="312.5" y="-121.5" font-family="Helvetica,sans-Serif" font-size="10.00">hci_query_timeout</text>
</a>
</g>
</g>
<!-- Node27&#45;&gt;Node34 -->
<g id="edge9" class="edge"><title>Node27&#45;&gt;Node34</title>
<path fill="none" stroke="midnightblue" d="M200.558,-97.8961C223.259,-103.237 249.678,-109.454 271.04,-114.48"/>
<polygon fill="midnightblue" stroke="midnightblue" points="201.289,-94.4725 190.753,-95.589 199.686,-101.286 201.289,-94.4725"/>
</g>
<!-- Node28&#45;&gt;Node29 -->
<g id="edge3" class="edge"><title>Node28&#45;&gt;Node29</title>
<path fill="none" stroke="midnightblue" d="M390.367,-86C399.339,-86 408.017,-86 415.7,-86"/>
<polygon fill="midnightblue" stroke="midnightblue" points="390.151,-82.5001 380.151,-86 390.151,-89.5001 390.151,-82.5001"/>
</g>
<!-- Node30 -->
<g id="node5" class="node"><title>Node30</title>
<g id="a_node5"><a xlink:href="run_8c.html#a05e0ffe612d44e6d7f3a9ae5b9df56a2" target="_top" xlink:title="run">
<polygon fill="white" stroke="black" points="511,-57.5 511,-76.5 541,-76.5 541,-57.5 511,-57.5"/>
<text text-anchor="middle" x="526" y="-64.5" font-family="Helvetica,sans-Serif" font-size="10.00">run</text>
</a>
</g>
</g>
<!-- Node29&#45;&gt;Node30 -->
<g id="edge4" class="edge"><title>Node29&#45;&gt;Node30</title>
<path fill="none" stroke="midnightblue" d="M485.116,-76.6535C494.28,-74.4354 503.49,-72.2062 510.747,-70.4497"/>
<polygon fill="midnightblue" stroke="midnightblue" points="484.181,-73.2787 475.285,-79.033 485.828,-80.0822 484.181,-73.2787"/>
</g>
<!-- Node31 -->
<g id="node6" class="node"><title>Node31</title>
<g id="a_node6"><a xlink:href="main_8c.html#a3c04138a5bfe5d72780bb7e82a18e627" target="_top" xlink:title="main">
<polygon fill="white" stroke="black" points="577,-19.5 577,-38.5 615,-38.5 615,-19.5 577,-19.5"/>
<text text-anchor="middle" x="596" y="-26.5" font-family="Helvetica,sans-Serif" font-size="10.00">main</text>
</a>
</g>
</g>
<!-- Node30&#45;&gt;Node31 -->
<g id="edge5" class="edge"><title>Node30&#45;&gt;Node31</title>
<path fill="none" stroke="midnightblue" d="M549.942,-54.1794C558.96,-49.14 569.143,-43.4497 577.544,-38.7551"/>
<polygon fill="midnightblue" stroke="midnightblue" points="548.112,-51.1928 541.09,-59.1264 551.526,-57.3034 548.112,-51.1928"/>
</g>
<!-- Node32 -->
<g id="node7" class="node"><title>Node32</title>
<g id="a_node7"><a xlink:href="walltime_8h.html#a76d2135b612766d4d665748454b879d6" target="_top" xlink:title="walltime_report">
<polygon fill="white" stroke="black" points="651,-19.5 651,-38.5 734,-38.5 734,-19.5 651,-19.5"/>
<text text-anchor="middle" x="692.5" y="-26.5" font-family="Helvetica,sans-Serif" font-size="10.00">walltime_report</text>
</a>
</g>
</g>
<!-- Node31&#45;&gt;Node32 -->
<g id="edge6" class="edge"><title>Node31&#45;&gt;Node32</title>
<path fill="none" stroke="midnightblue" d="M625.411,-29C633.347,-29 642.132,-29 650.635,-29"/>
<polygon fill="midnightblue" stroke="midnightblue" points="625.221,-25.5001 615.221,-29 625.221,-32.5001 625.221,-25.5001"/>
</g>
<!-- Node33 -->
<g id="node8" class="node"><title>Node33</title>
<g id="a_node8"><a xlink:href="run_8c.html#adc59e9ee1517e4e690694a64ab6a59d2" target="_top" xlink:title="write_cpu_log">
<polygon fill="white" stroke="black" points="770,-38.5 770,-57.5 847,-57.5 847,-38.5 770,-38.5"/>
<text text-anchor="middle" x="808.5" y="-45.5" font-family="Helvetica,sans-Serif" font-size="10.00">write_cpu_log</text>
</a>
</g>
</g>
<!-- Node32&#45;&gt;Node33 -->
<g id="edge7" class="edge"><title>Node32&#45;&gt;Node33</title>
<path fill="none" stroke="midnightblue" d="M744.031,-37.4218C752.684,-38.8641 761.54,-40.3399 769.785,-41.7141"/>
<polygon fill="midnightblue" stroke="midnightblue" points="744.452,-33.9439 734.013,-35.7522 743.302,-40.8486 744.452,-33.9439"/>
</g>
<!-- Node33&#45;&gt;Node30 -->
<g id="edge8" class="edge"><title>Node33&#45;&gt;Node30</title>
<path fill="none" stroke="midnightblue" d="M759.727,-51.236C694.488,-55.655 581.088,-63.3363 541.296,-66.0317"/>
<polygon fill="midnightblue" stroke="midnightblue" points="760.024,-54.7239 769.765,-50.556 759.551,-47.7399 760.024,-54.7239"/>
</g>
<!-- Node34&#45;&gt;Node29 -->
<g id="edge10" class="edge"><title>Node34&#45;&gt;Node29</title>
<path fill="none" stroke="midnightblue" d="M356.659,-111.724C364.432,-109.498 372.459,-107.188 380,-105 391.772,-101.585 404.738,-97.7745 415.938,-94.4681"/>
<polygon fill="midnightblue" stroke="midnightblue" points="355.657,-108.371 347.004,-114.485 357.581,-115.101 355.657,-108.371"/>
</g>
<!-- Node36 -->
<g id="node11" class="node"><title>Node36</title>
<g id="a_node11"><a xlink:href="proto_8h.html#a74dc0e5e9eefe11fc8434b62de573146" target="_top" xlink:title="begrun">
<polygon fill="white" stroke="black" points="422.5,-5.5 422.5,-24.5 468.5,-24.5 468.5,-5.5 422.5,-5.5"/>
<text text-anchor="middle" x="445.5" y="-12.5" font-family="Helvetica,sans-Serif" font-size="10.00">begrun</text>
</a>
</g>
</g>
<!-- Node35&#45;&gt;Node36 -->
<g id="edge12" class="edge"><title>Node35&#45;&gt;Node36</title>
<path fill="none" stroke="midnightblue" d="M346.311,-11.2523C370.029,-12.1576 401.438,-13.3564 422.274,-14.1517"/>
<polygon fill="midnightblue" stroke="midnightblue" points="346.146,-7.74357 336.02,-10.8595 345.879,-14.7385 346.146,-7.74357"/>
</g>
<!-- Node36&#45;&gt;Node31 -->
<g id="edge13" class="edge"><title>Node36&#45;&gt;Node31</title>
<path fill="none" stroke="midnightblue" d="M478.729,-18.0384C508.756,-20.8693 552.453,-24.9888 576.83,-27.287"/>
<polygon fill="midnightblue" stroke="midnightblue" points="479.016,-14.5501 468.732,-17.0959 478.359,-21.5192 479.016,-14.5501"/>
</g>
<!-- Node37&#45;&gt;Node29 -->
<g id="edge16" class="edge"><title>Node37&#45;&gt;Node29</title>
<path fill="none" stroke="midnightblue" d="M207.731,-154.031C255.513,-160.605 324.333,-164.072 380,-143 405.157,-133.477 426.825,-109.166 437.473,-95.5703"/>
<polygon fill="midnightblue" stroke="midnightblue" points="207.968,-150.528 197.566,-152.542 206.953,-157.454 207.968,-150.528"/>
</g>
</g>
</svg>
