<?xml version="1.0" encoding="UTF-8" standalone="no"?>
<!DOCTYPE svg PUBLIC "-//W3C//DTD SVG 1.1//EN"
 "http://www.w3.org/Graphics/SVG/1.1/DTD/svg11.dtd">
<!-- Generated by graphviz version 2.38.0 (20140413.2041)
 -->
<!-- Title: hydra.c Pages: 1 -->
<svg width="490pt" height="575pt"
 viewBox="0.00 0.00 489.99 574.56" xmlns="http://www.w3.org/2000/svg" xmlns:xlink="http://www.w3.org/1999/xlink">
<g id="graph0" class="graph" transform="scale(1 1) rotate(0) translate(4 570.564)">
<title>hydra.c</title>
<polygon fill="white" stroke="none" points="-4,4 -4,-570.564 485.987,-570.564 485.987,4 -4,4"/>
<!-- Node0 -->
<g id="node1" class="node"><title>Node0</title>
<polygon fill="#bfbfbf" stroke="black" points="239.867,-114.883 239.867,-133.883 288.867,-133.883 288.867,-114.883 239.867,-114.883"/>
<text text-anchor="middle" x="264.367" y="-121.883" font-family="Helvetica,sans-Serif" font-size="10.00">hydra.c</text>
</g>
<!-- Node1 -->
<g id="node2" class="node"><title>Node1</title>
<polygon fill="white" stroke="#bfbfbf" points="434.681,-290.9 434.681,-309.9 475.681,-309.9 475.681,-290.9 434.681,-290.9"/>
<text text-anchor="middle" x="455.181" y="-297.9" font-family="Helvetica,sans-Serif" font-size="10.00">mpi.h</text>
</g>
<!-- Node0&#45;&gt;Node1 -->
<g id="edge1" class="edge"><title>Node0&#45;&gt;Node1</title>
<path fill="none" stroke="midnightblue" d="M274.898,-134.097C305.971,-162.76 397.551,-247.238 436.887,-283.524"/>
<polygon fill="midnightblue" stroke="midnightblue" points="434.724,-286.291 444.448,-290.499 439.471,-281.146 434.724,-286.291"/>
</g>
<!-- Node2 -->
<g id="node3" class="node"><title>Node2</title>
<polygon fill="white" stroke="#bfbfbf" points="411.298,-355.172 411.298,-374.172 457.298,-374.172 457.298,-355.172 411.298,-355.172"/>
<text text-anchor="middle" x="434.298" y="-362.172" font-family="Helvetica,sans-Serif" font-size="10.00">stdio.h</text>
</g>
<!-- Node0&#45;&gt;Node2 -->
<g id="edge2" class="edge"><title>Node0&#45;&gt;Node2</title>
<path fill="none" stroke="midnightblue" d="M271.239,-134.1C296.969,-170.483 387.856,-299.001 421.58,-346.688"/>
<polygon fill="midnightblue" stroke="midnightblue" points="418.895,-348.953 427.527,-355.097 424.61,-344.911 418.895,-348.953"/>
</g>
<!-- Node3 -->
<g id="node4" class="node"><title>Node3</title>
<polygon fill="white" stroke="#bfbfbf" points="25.3833,-159.048 25.3833,-178.048 73.3833,-178.048 73.3833,-159.048 25.3833,-159.048"/>
<text text-anchor="middle" x="49.3833" y="-166.048" font-family="Helvetica,sans-Serif" font-size="10.00">stdlib.h</text>
</g>
<!-- Node0&#45;&gt;Node3 -->
<g id="edge3" class="edge"><title>Node0&#45;&gt;Node3</title>
<path fill="none" stroke="midnightblue" d="M239.706,-129.449C201.212,-137.357 126.759,-152.652 83.2592,-161.589"/>
<polygon fill="midnightblue" stroke="midnightblue" points="82.5197,-158.167 73.4286,-163.608 83.9284,-165.024 82.5197,-158.167"/>
</g>
<!-- Node4 -->
<g id="node5" class="node"><title>Node4</title>
<polygon fill="white" stroke="#bfbfbf" points="64.6056,-104.375 64.6056,-123.375 113.606,-123.375 113.606,-104.375 64.6056,-104.375"/>
<text text-anchor="middle" x="89.1056" y="-111.375" font-family="Helvetica,sans-Serif" font-size="10.00">string.h</text>
</g>
<!-- Node0&#45;&gt;Node4 -->
<g id="edge4" class="edge"><title>Node0&#45;&gt;Node4</title>
<path fill="none" stroke="midnightblue" d="M239.628,-122.9C209.357,-121.085 157.924,-118.001 123.734,-115.951"/>
<polygon fill="midnightblue" stroke="midnightblue" points="123.91,-112.455 113.719,-115.351 123.491,-119.443 123.91,-112.455"/>
</g>
<!-- Node5 -->
<g id="node6" class="node"><title>Node5</title>
<polygon fill="white" stroke="#bfbfbf" points="120.279,-64.6525 120.279,-83.6525 167.279,-83.6525 167.279,-64.6525 120.279,-64.6525"/>
<text text-anchor="middle" x="143.779" y="-71.6525" font-family="Helvetica,sans-Serif" font-size="10.00">math.h</text>
</g>
<!-- Node0&#45;&gt;Node5 -->
<g id="edge5" class="edge"><title>Node0&#45;&gt;Node5</title>
<path fill="none" stroke="midnightblue" d="M241.402,-114.817C222.878,-107.101 196.605,-96.1567 175.98,-87.5656"/>
<polygon fill="midnightblue" stroke="midnightblue" points="177.236,-84.2973 166.659,-83.683 174.544,-90.7592 177.236,-84.2973"/>
</g>
<!-- Node6 -->
<g id="node7" class="node"><title>Node6</title>
<polygon fill="white" stroke="#bfbfbf" points="168.051,-43.7692 168.051,-62.7692 248.051,-62.7692 248.051,-43.7692 168.051,-43.7692"/>
<text text-anchor="middle" x="208.051" y="-50.7692" font-family="Helvetica,sans-Serif" font-size="10.00">gsl/gsl_math.h</text>
</g>
<!-- Node0&#45;&gt;Node6 -->
<g id="edge6" class="edge"><title>Node0&#45;&gt;Node6</title>
<path fill="none" stroke="midnightblue" d="M256.772,-114.792C247.921,-103.615 233.109,-84.9116 222.136,-71.055"/>
<polygon fill="midnightblue" stroke="midnightblue" points="224.839,-68.8308 215.887,-63.1642 219.351,-73.1767 224.839,-68.8308"/>
</g>
<!-- Node7 -->
<g id="node8" class="node"><title>Node7</title>
<g id="a_node8"><a xlink:href="allvars_8h.html" target="_top" xlink:title="declares global variables. ">
<polygon fill="white" stroke="black" points="259.839,-394.062 259.839,-413.062 312.839,-413.062 312.839,-394.062 259.839,-394.062"/>
<text text-anchor="middle" x="286.339" y="-401.062" font-family="Helvetica,sans-Serif" font-size="10.00">allvars.h</text>
</a>
</g>
</g>
<!-- Node0&#45;&gt;Node7 -->
<g id="edge7" class="edge"><title>Node0&#45;&gt;Node7</title>
<path fill="none" stroke="midnightblue" d="M265.124,-133.993C268.28,-174.095 280.437,-328.567 284.783,-383.791"/>
<polygon fill="midnightblue" stroke="midnightblue" points="281.312,-384.298 285.586,-393.992 288.291,-383.749 281.312,-384.298"/>
</g>
<!-- Node18 -->
<g id="node19" class="node"><title>Node18</title>
<g id="a_node19"><a xlink:href="slotsmanager_8h.html" target="_top" xlink:title="slotsmanager.h">
<polygon fill="white" stroke="black" points="72.0357,-322.485 72.0357,-341.485 155.036,-341.485 155.036,-322.485 72.0357,-322.485"/>
<text text-anchor="middle" x="113.536" y="-329.485" font-family="Helvetica,sans-Serif" font-size="10.00">slotsmanager.h</text>
</a>
</g>
</g>
<!-- Node0&#45;&gt;Node18 -->
<g id="edge20" class="edge"><title>Node0&#45;&gt;Node18</title>
<path fill="none" stroke="midnightblue" d="M257.295,-134.117C233.745,-166.53 157.736,-271.148 126.81,-313.715"/>
<polygon fill="midnightblue" stroke="midnightblue" points="123.815,-311.882 120.769,-322.029 129.478,-315.996 123.815,-311.882"/>
</g>
<!-- Node23 -->
<g id="node24" class="node"><title>Node23</title>
<g id="a_node24"><a xlink:href="treewalk_8h.html" target="_top" xlink:title="treewalk.h">
<polygon fill="white" stroke="black" points="222.104,-185.996 222.104,-204.996 284.104,-204.996 284.104,-185.996 222.104,-185.996"/>
<text text-anchor="middle" x="253.104" y="-192.996" font-family="Helvetica,sans-Serif" font-size="10.00">treewalk.h</text>
</a>
</g>
</g>
<!-- Node0&#45;&gt;Node23 -->
<g id="edge30" class="edge"><title>Node0&#45;&gt;Node23</title>
<path fill="none" stroke="midnightblue" d="M262.848,-133.973C261.161,-144.623 258.392,-162.106 256.236,-175.719"/>
<polygon fill="midnightblue" stroke="midnightblue" points="252.779,-175.177 254.671,-185.601 259.693,-176.272 252.779,-175.177"/>
</g>
<!-- Node24 -->
<g id="node25" class="node"><title>Node24</title>
<g id="a_node25"><a xlink:href="densitykernel_8h.html" target="_top" xlink:title="densitykernel.h">
<polygon fill="white" stroke="black" points="234.131,-43.7692 234.131,-62.7692 317.131,-62.7692 317.131,-43.7692 234.131,-43.7692"/>
<text text-anchor="middle" x="275.631" y="-50.7692" font-family="Helvetica,sans-Serif" font-size="10.00">densitykernel.h</text>
</a>
</g>
</g>
<!-- Node0&#45;&gt;Node24 -->
<g id="edge33" class="edge"><title>Node0&#45;&gt;Node24</title>
<path fill="none" stroke="midnightblue" d="M265.886,-114.792C267.573,-104.142 270.342,-86.6594 272.498,-73.0469"/>
<polygon fill="midnightblue" stroke="midnightblue" points="275.956,-73.5887 274.063,-63.1642 269.042,-72.4936 275.956,-73.5887"/>
</g>
<!-- Node25 -->
<g id="node26" class="node"><title>Node25</title>
<g id="a_node26"><a xlink:href="mymalloc_8h.html" target="_top" xlink:title="mymalloc.h">
<polygon fill="white" stroke="black" points="306.403,-64.6525 306.403,-83.6525 373.403,-83.6525 373.403,-64.6525 306.403,-64.6525"/>
<text text-anchor="middle" x="339.903" y="-71.6525" font-family="Helvetica,sans-Serif" font-size="10.00">mymalloc.h</text>
</a>
</g>
</g>
<!-- Node0&#45;&gt;Node25 -->
<g id="edge34" class="edge"><title>Node0&#45;&gt;Node25</title>
<path fill="none" stroke="midnightblue" d="M278.931,-114.698C289.694,-107.54 304.563,-97.6533 316.922,-89.4345"/>
<polygon fill="midnightblue" stroke="midnightblue" points="318.994,-92.2595 325.383,-83.8076 315.118,-86.4306 318.994,-92.2595"/>
</g>
<!-- Node27 -->
<g id="node28" class="node"><title>Node27</title>
<g id="a_node28"><a xlink:href="timestep_8h.html" target="_top" xlink:title="timestep.h">
<polygon fill="white" stroke="black" points="363.576,-104.375 363.576,-123.375 425.576,-123.375 425.576,-104.375 363.576,-104.375"/>
<text text-anchor="middle" x="394.576" y="-111.375" font-family="Helvetica,sans-Serif" font-size="10.00">timestep.h</text>
</a>
</g>
</g>
<!-- Node0&#45;&gt;Node27 -->
<g id="edge36" class="edge"><title>Node0&#45;&gt;Node27</title>
<path fill="none" stroke="midnightblue" d="M289.165,-122.382C307.3,-120.918 332.315,-118.899 353.425,-117.196"/>
<polygon fill="midnightblue" stroke="midnightblue" points="353.742,-120.682 363.428,-116.388 353.178,-113.704 353.742,-120.682"/>
</g>
<!-- Node29 -->
<g id="node30" class="node"><title>Node29</title>
<g id="a_node30"><a xlink:href="endrun_8h.html" target="_top" xlink:title="endrun.h">
<polygon fill="white" stroke="black" points="407.298,-159.048 407.298,-178.048 461.298,-178.048 461.298,-159.048 407.298,-159.048"/>
<text text-anchor="middle" x="434.298" y="-166.048" font-family="Helvetica,sans-Serif" font-size="10.00">endrun.h</text>
</a>
</g>
</g>
<!-- Node0&#45;&gt;Node29 -->
<g id="edge38" class="edge"><title>Node0&#45;&gt;Node29</title>
<path fill="none" stroke="midnightblue" d="M289.077,-130.805C317.523,-138.198 364.535,-150.417 397.338,-158.942"/>
<polygon fill="midnightblue" stroke="midnightblue" points="396.467,-162.332 407.026,-161.46 398.228,-155.557 396.467,-162.332"/>
</g>
<!-- Node30 -->
<g id="node31" class="node"><title>Node30</title>
<g id="a_node31"><a xlink:href="hydra_8h.html" target="_top" xlink:title="hydra.h">
<polygon fill="white" stroke="black" points="430.681,-223.32 430.681,-242.32 479.681,-242.32 479.681,-223.32 430.681,-223.32"/>
<text text-anchor="middle" x="455.181" y="-230.32" font-family="Helvetica,sans-Serif" font-size="10.00">hydra.h</text>
</a>
</g>
</g>
<!-- Node0&#45;&gt;Node30 -->
<g id="edge39" class="edge"><title>Node0&#45;&gt;Node30</title>
<path fill="none" stroke="midnightblue" d="M281.301,-134.006C314.823,-153.056 389.818,-195.675 429.47,-218.209"/>
<polygon fill="midnightblue" stroke="midnightblue" points="427.862,-221.321 438.286,-223.219 431.321,-215.235 427.862,-221.321"/>
</g>
<!-- Node7&#45;&gt;Node1 -->
<g id="edge8" class="edge"><title>Node7&#45;&gt;Node1</title>
<path fill="none" stroke="midnightblue" d="M301.921,-394.042C331.297,-376.093 395.085,-337.118 430.403,-315.539"/>
<polygon fill="midnightblue" stroke="midnightblue" points="432.436,-318.398 439.145,-310.198 428.787,-312.425 432.436,-318.398"/>
</g>
<!-- Node7&#45;&gt;Node2 -->
<g id="edge9" class="edge"><title>Node7&#45;&gt;Node2</title>
<path fill="none" stroke="midnightblue" d="M313.133,-396.519C337.835,-390.027 374.583,-380.368 401.129,-373.39"/>
<polygon fill="midnightblue" stroke="midnightblue" points="402.327,-376.694 411.108,-370.767 400.547,-369.924 402.327,-376.694"/>
</g>
<!-- Node8 -->
<g id="node9" class="node"><title>Node8</title>
<polygon fill="white" stroke="#bfbfbf" points="358.576,-409.845 358.576,-428.845 430.576,-428.845 430.576,-409.845 358.576,-409.845"/>
<text text-anchor="middle" x="394.576" y="-416.845" font-family="Helvetica,sans-Serif" font-size="10.00">gsl/gsl_rng.h</text>
</g>
<!-- Node7&#45;&gt;Node8 -->
<g id="edge10" class="edge"><title>Node7&#45;&gt;Node8</title>
<path fill="none" stroke="midnightblue" d="M313.094,-407.463C323.756,-409.018 336.341,-410.853 348.389,-412.61"/>
<polygon fill="midnightblue" stroke="midnightblue" points="347.93,-416.08 358.33,-414.06 348.94,-409.153 347.93,-416.08"/>
</g>
<!-- Node9 -->
<g id="node10" class="node"><title>Node9</title>
<polygon fill="white" stroke="#bfbfbf" points="314.903,-449.567 314.903,-468.567 364.903,-468.567 364.903,-449.567 314.903,-449.567"/>
<text text-anchor="middle" x="339.903" y="-456.567" font-family="Helvetica,sans-Serif" font-size="10.00">signal.h</text>
</g>
<!-- Node7&#45;&gt;Node9 -->
<g id="edge11" class="edge"><title>Node7&#45;&gt;Node9</title>
<path fill="none" stroke="midnightblue" d="M295.669,-413.23C303.35,-421.189 314.422,-432.663 323.568,-442.14"/>
<polygon fill="midnightblue" stroke="midnightblue" points="321.217,-444.744 330.679,-449.51 326.254,-439.884 321.217,-444.744"/>
</g>
<!-- Node10 -->
<g id="node11" class="node"><title>Node10</title>
<g id="a_node11"><a xlink:href="cosmology_8h.html" target="_top" xlink:title="cosmology.h">
<polygon fill="white" stroke="black" points="239.631,-470.451 239.631,-489.451 311.631,-489.451 311.631,-470.451 239.631,-470.451"/>
<text text-anchor="middle" x="275.631" y="-477.451" font-family="Helvetica,sans-Serif" font-size="10.00">cosmology.h</text>
</a>
</g>
</g>
<!-- Node7&#45;&gt;Node10 -->
<g id="edge12" class="edge"><title>Node7&#45;&gt;Node10</title>
<path fill="none" stroke="midnightblue" d="M284.983,-413.237C283.35,-424.882 280.566,-444.744 278.459,-459.776"/>
<polygon fill="midnightblue" stroke="midnightblue" points="274.932,-459.724 277.01,-470.113 281.864,-460.696 274.932,-459.724"/>
</g>
<!-- Node13 -->
<g id="node14" class="node"><title>Node13</title>
<g id="a_node14"><a xlink:href="walltime_8h.html" target="_top" xlink:title="walltime.h">
<polygon fill="white" stroke="black" points="177.551,-470.451 177.551,-489.451 238.551,-489.451 238.551,-470.451 177.551,-470.451"/>
<text text-anchor="middle" x="208.051" y="-477.451" font-family="Helvetica,sans-Serif" font-size="10.00">walltime.h</text>
</a>
</g>
</g>
<!-- Node7&#45;&gt;Node13 -->
<g id="edge15" class="edge"><title>Node7&#45;&gt;Node13</title>
<path fill="none" stroke="midnightblue" d="M276.424,-413.237C263.6,-425.749 241.053,-447.749 225.372,-463.05"/>
<polygon fill="midnightblue" stroke="midnightblue" points="222.599,-460.866 217.886,-470.354 227.487,-465.876 222.599,-460.866"/>
</g>
<!-- Node14 -->
<g id="node15" class="node"><title>Node14</title>
<polygon fill="white" stroke="#bfbfbf" points="117.779,-449.567 117.779,-468.567 169.779,-468.567 169.779,-449.567 117.779,-449.567"/>
<text text-anchor="middle" x="143.779" y="-456.567" font-family="Helvetica,sans-Serif" font-size="10.00">assert.h</text>
</g>
<!-- Node7&#45;&gt;Node14 -->
<g id="edge16" class="edge"><title>Node7&#45;&gt;Node14</title>
<path fill="none" stroke="midnightblue" d="M261.832,-413.104C238.678,-422.119 203.735,-435.723 177.869,-445.794"/>
<polygon fill="midnightblue" stroke="midnightblue" points="176.492,-442.575 168.443,-449.464 179.032,-449.098 176.492,-442.575"/>
</g>
<!-- Node15 -->
<g id="node16" class="node"><title>Node15</title>
<g id="a_node16"><a xlink:href="physconst_8h.html" target="_top" xlink:title="physconst.h">
<polygon fill="white" stroke="black" points="54.1056,-409.845 54.1056,-428.845 124.106,-428.845 124.106,-409.845 54.1056,-409.845"/>
<text text-anchor="middle" x="89.1056" y="-416.845" font-family="Helvetica,sans-Serif" font-size="10.00">physconst.h</text>
</a>
</g>
</g>
<!-- Node7&#45;&gt;Node15 -->
<g id="edge17" class="edge"><title>Node7&#45;&gt;Node15</title>
<path fill="none" stroke="midnightblue" d="M259.739,-405.691C227.597,-408.263 173.012,-412.631 134.24,-415.733"/>
<polygon fill="midnightblue" stroke="midnightblue" points="133.94,-412.246 124.252,-416.533 134.499,-419.224 133.94,-412.246"/>
</g>
<!-- Node16 -->
<g id="node17" class="node"><title>Node16</title>
<g id="a_node17"><a xlink:href="types_8h.html" target="_top" xlink:title="types.h">
<polygon fill="white" stroke="black" points="217.341,-329.11 217.341,-348.11 266.341,-348.11 266.341,-329.11 217.341,-329.11"/>
<text text-anchor="middle" x="241.841" y="-336.11" font-family="Helvetica,sans-Serif" font-size="10.00">types.h</text>
</a>
</g>
</g>
<!-- Node7&#45;&gt;Node16 -->
<g id="edge18" class="edge"><title>Node7&#45;&gt;Node16</title>
<path fill="none" stroke="midnightblue" d="M279.773,-393.978C273.069,-384.192 262.499,-368.764 254.218,-356.677"/>
<polygon fill="midnightblue" stroke="midnightblue" points="256.973,-354.505 248.434,-348.233 251.198,-358.461 256.973,-354.505"/>
</g>
<!-- Node11 -->
<g id="node12" class="node"><title>Node11</title>
<polygon fill="white" stroke="#bfbfbf" points="73.6136,-234.583 73.6136,-253.583 125.614,-253.583 125.614,-234.583 73.6136,-234.583"/>
<text text-anchor="middle" x="99.6136" y="-241.583" font-family="Helvetica,sans-Serif" font-size="10.00">stddef.h</text>
</g>
<!-- Node10&#45;&gt;Node11 -->
<g id="edge13" class="edge"><title>Node10&#45;&gt;Node11</title>
<path fill="none" stroke="midnightblue" d="M268.512,-470.412C241.866,-434.706 147.753,-308.592 112.806,-261.762"/>
<polygon fill="midnightblue" stroke="midnightblue" points="115.606,-259.662 106.82,-253.74 109.996,-263.848 115.606,-259.662"/>
</g>
<!-- Node12 -->
<g id="node13" class="node"><title>Node12</title>
<polygon fill="white" stroke="#bfbfbf" points="225.394,-536.064 225.394,-566.064 348.394,-566.064 348.394,-536.064 225.394,-536.064"/>
<text text-anchor="start" x="233.394" y="-554.064" font-family="Helvetica,sans-Serif" font-size="10.00">kspace&#45;neutrinos/omega</text>
<text text-anchor="middle" x="286.894" y="-543.064" font-family="Helvetica,sans-Serif" font-size="10.00">_nu_single.h</text>
</g>
<!-- Node10&#45;&gt;Node12 -->
<g id="edge14" class="edge"><title>Node10&#45;&gt;Node12</title>
<path fill="none" stroke="midnightblue" d="M277.15,-489.541C278.623,-498.842 280.921,-513.353 282.916,-525.947"/>
<polygon fill="midnightblue" stroke="midnightblue" points="279.474,-526.59 284.495,-535.919 286.388,-525.494 279.474,-526.59"/>
</g>
<!-- Node17 -->
<g id="node18" class="node"><title>Node17</title>
<polygon fill="white" stroke="#bfbfbf" points="217.341,-257.11 217.341,-276.11 266.341,-276.11 266.341,-257.11 217.341,-257.11"/>
<text text-anchor="middle" x="241.841" y="-264.11" font-family="Helvetica,sans-Serif" font-size="10.00">stdint.h</text>
</g>
<!-- Node16&#45;&gt;Node17 -->
<g id="edge19" class="edge"><title>Node16&#45;&gt;Node17</title>
<path fill="none" stroke="midnightblue" d="M241.841,-328.9C241.841,-317.996 241.841,-300.018 241.841,-286.171"/>
<polygon fill="midnightblue" stroke="midnightblue" points="245.341,-286.166 241.841,-276.166 238.341,-286.166 245.341,-286.166"/>
</g>
<!-- Node18&#45;&gt;Node1 -->
<g id="edge21" class="edge"><title>Node18&#45;&gt;Node1</title>
<path fill="none" stroke="midnightblue" d="M155.087,-328.143C224.538,-321.722 362.647,-308.954 424.26,-303.258"/>
<polygon fill="midnightblue" stroke="midnightblue" points="424.863,-306.718 434.499,-302.312 424.219,-299.747 424.863,-306.718"/>
</g>
<!-- Node18&#45;&gt;Node16 -->
<g id="edge23" class="edge"><title>Node18&#45;&gt;Node16</title>
<path fill="none" stroke="midnightblue" d="M155.193,-334.136C171.999,-335.003 191.165,-335.993 207.19,-336.821"/>
<polygon fill="midnightblue" stroke="midnightblue" points="207.044,-340.318 217.211,-337.338 207.405,-333.327 207.044,-340.318"/>
</g>
<!-- Node19 -->
<g id="node20" class="node"><title>Node19</title>
<g id="a_node20"><a xlink:href="event_8h.html" target="_top" xlink:title="event.h">
<polygon fill="white" stroke="black" points="24.8833,-355.172 24.8833,-374.172 73.8833,-374.172 73.8833,-355.172 24.8833,-355.172"/>
<text text-anchor="middle" x="49.3833" y="-362.172" font-family="Helvetica,sans-Serif" font-size="10.00">event.h</text>
</a>
</g>
</g>
<!-- Node18&#45;&gt;Node19 -->
<g id="edge22" class="edge"><title>Node18&#45;&gt;Node19</title>
<path fill="none" stroke="midnightblue" d="M94.6349,-341.615C89.2018,-344.383 83.1583,-347.463 77.3028,-350.446"/>
<polygon fill="midnightblue" stroke="midnightblue" points="75.6918,-347.339 68.3707,-354.997 78.8698,-353.576 75.6918,-347.339"/>
</g>
<!-- Node20 -->
<g id="node21" class="node"><title>Node20</title>
<g id="a_node21"><a xlink:href="partmanager_8h.html" target="_top" xlink:title="partmanager.h">
<polygon fill="white" stroke="black" points="60.1136,-279.636 60.1136,-298.636 139.114,-298.636 139.114,-279.636 60.1136,-279.636"/>
<text text-anchor="middle" x="99.6136" y="-286.636" font-family="Helvetica,sans-Serif" font-size="10.00">partmanager.h</text>
</a>
</g>
</g>
<!-- Node18&#45;&gt;Node20 -->
<g id="edge24" class="edge"><title>Node18&#45;&gt;Node20</title>
<path fill="none" stroke="midnightblue" d="M110.446,-322.475C109.131,-318.427 107.545,-313.547 105.998,-308.785"/>
<polygon fill="midnightblue" stroke="midnightblue" points="109.21,-307.345 102.791,-298.916 102.553,-309.508 109.21,-307.345"/>
</g>
<!-- Node20&#45;&gt;Node16 -->
<g id="edge26" class="edge"><title>Node20&#45;&gt;Node16</title>
<path fill="none" stroke="midnightblue" d="M127.036,-298.675C149.881,-306.622 182.548,-317.985 207.198,-326.559"/>
<polygon fill="midnightblue" stroke="midnightblue" points="206.289,-329.949 216.883,-329.929 208.588,-323.337 206.289,-329.949"/>
</g>
<!-- Node21 -->
<g id="node22" class="node"><title>Node21</title>
<polygon fill="white" stroke="#bfbfbf" points="-2.13163e-14,-290.9 -2.13163e-14,-309.9 57,-309.9 57,-290.9 -2.13163e-14,-290.9"/>
<text text-anchor="middle" x="28.5" y="-297.9" font-family="Helvetica,sans-Serif" font-size="10.00">pthread.h</text>
</g>
<!-- Node20&#45;&gt;Node21 -->
<g id="edge25" class="edge"><title>Node20&#45;&gt;Node21</title>
<path fill="none" stroke="midnightblue" d="M59.8984,-295.427C59.7871,-295.444 59.6758,-295.462 59.5646,-295.48"/>
<polygon fill="midnightblue" stroke="midnightblue" points="66.5681,-290.826 57.2388,-295.848 67.6634,-297.74 66.5681,-290.826"/>
</g>
<!-- Node22 -->
<g id="node23" class="node"><title>Node22</title>
<g id="a_node23"><a xlink:href="peano_8h.html" target="_top" xlink:title="peano.h">
<polygon fill="white" stroke="black" points="145.227,-245.847 145.227,-264.847 196.227,-264.847 196.227,-245.847 145.227,-245.847"/>
<text text-anchor="middle" x="170.727" y="-252.847" font-family="Helvetica,sans-Serif" font-size="10.00">peano.h</text>
</a>
</g>
</g>
<!-- Node20&#45;&gt;Node22 -->
<g id="edge27" class="edge"><title>Node20&#45;&gt;Node22</title>
<path fill="none" stroke="midnightblue" d="M119.802,-279.544C126.351,-276.432 133.762,-272.911 140.862,-269.537"/>
<polygon fill="midnightblue" stroke="midnightblue" points="142.711,-272.533 150.242,-265.08 139.707,-266.211 142.711,-272.533"/>
</g>
<!-- Node22&#45;&gt;Node11 -->
<g id="edge28" class="edge"><title>Node22&#45;&gt;Node11</title>
<path fill="none" stroke="midnightblue" d="M145.053,-251.28C142.144,-250.82 139.139,-250.344 136.125,-249.866"/>
<polygon fill="midnightblue" stroke="midnightblue" points="136.392,-246.365 125.967,-248.257 135.297,-253.279 136.392,-246.365"/>
</g>
<!-- Node22&#45;&gt;Node17 -->
<g id="edge29" class="edge"><title>Node22&#45;&gt;Node17</title>
<path fill="none" stroke="midnightblue" d="M196.401,-259.413C199.847,-259.959 203.428,-260.526 206.999,-261.092"/>
<polygon fill="midnightblue" stroke="midnightblue" points="206.494,-264.555 216.919,-262.663 207.589,-257.641 206.494,-264.555"/>
</g>
<!-- Node23&#45;&gt;Node7 -->
<g id="edge32" class="edge"><title>Node23&#45;&gt;Node7</title>
<path fill="none" stroke="midnightblue" d="M254.662,-205.253C259.786,-237.329 276.18,-339.963 283.152,-383.612"/>
<polygon fill="midnightblue" stroke="midnightblue" points="279.712,-384.262 284.745,-393.585 286.624,-383.158 279.712,-384.262"/>
</g>
<!-- Node23&#45;&gt;Node17 -->
<g id="edge31" class="edge"><title>Node23&#45;&gt;Node17</title>
<path fill="none" stroke="midnightblue" d="M251.585,-205.087C249.898,-215.737 247.129,-233.22 244.973,-246.832"/>
<polygon fill="midnightblue" stroke="midnightblue" points="241.515,-246.29 243.408,-256.715 248.429,-247.385 241.515,-246.29"/>
</g>
<!-- Node26 -->
<g id="node27" class="node"><title>Node26</title>
<g id="a_node27"><a xlink:href="memory_8h.html" target="_top" xlink:title="memory.h">
<polygon fill="white" stroke="black" points="342.59,-0.5 342.59,-19.5 402.59,-19.5 402.59,-0.5 342.59,-0.5"/>
<text text-anchor="middle" x="372.59" y="-7.5" font-family="Helvetica,sans-Serif" font-size="10.00">memory.h</text>
</a>
</g>
</g>
<!-- Node25&#45;&gt;Node26 -->
<g id="edge35" class="edge"><title>Node25&#45;&gt;Node26</title>
<path fill="none" stroke="midnightblue" d="M344.867,-64.4091C349.667,-54.989 357.066,-40.4672 363.013,-28.795"/>
<polygon fill="midnightblue" stroke="midnightblue" points="366.157,-30.3341 367.579,-19.8351 359.92,-27.1562 366.157,-30.3341"/>
</g>
<!-- Node28 -->
<g id="node29" class="node"><title>Node28</title>
<g id="a_node29"><a xlink:href="timebinmgr_8h.html" target="_top" xlink:title="timebinmgr.h">
<polygon fill="white" stroke="black" points="408.987,-53.4631 408.987,-72.4631 481.987,-72.4631 481.987,-53.4631 408.987,-53.4631"/>
<text text-anchor="middle" x="445.487" y="-60.4631" font-family="Helvetica,sans-Serif" font-size="10.00">timebinmgr.h</text>
</a>
</g>
</g>
<!-- Node27&#45;&gt;Node28 -->
<g id="edge37" class="edge"><title>Node27&#45;&gt;Node28</title>
<path fill="none" stroke="midnightblue" d="M404.392,-104.059C411.154,-97.2971 420.318,-88.1321 428.278,-80.1729"/>
<polygon fill="midnightblue" stroke="midnightblue" points="431.105,-82.2953 435.701,-72.7493 426.155,-77.3455 431.105,-82.2953"/>
</g>
</g>
</svg>
