<?xml version="1.0" encoding="UTF-8" standalone="no"?>
<!DOCTYPE svg PUBLIC "-//W3C//DTD SVG 1.1//EN"
 "http://www.w3.org/Graphics/SVG/1.1/DTD/svg11.dtd">
<!-- Generated by graphviz version 2.50.0 (0)
 -->
<!-- Title: DensityIndependentSphOn Pages: 1 -->
<svg width="1335pt" height="704pt"
 viewBox="0.00 0.00 1335.00 704.46" xmlns="http://www.w3.org/2000/svg" xmlns:xlink="http://www.w3.org/1999/xlink">
<g id="graph0" class="graph" transform="scale(1 1) rotate(0) translate(4 700.46)">
<title>DensityIndependentSphOn</title>
<polygon fill="white" stroke="transparent" points="-4,4 -4,-700.46 1331,-700.46 1331,4 -4,4"/>
<!-- Node1 -->
<g id="node1" class="node">
<title>Node1</title>
<g id="a_node1"><a xlink:title=" ">
<polygon fill="#bfbfbf" stroke="black" points="1181,-507.96 1181,-526.96 1327,-526.96 1327,-507.96 1181,-507.96"/>
<text text-anchor="middle" x="1254" y="-514.96" font-family="Helvetica,sans-Serif" font-size="10.00">DensityIndependentSphOn</text>
</a>
</g>
</g>
<!-- Node2 -->
<g id="node2" class="node">
<title>Node2</title>
<g id="a_node2"><a xlink:href="petaio_8c.html#a6d0888c0dbd0c70b0de352d0352c9906" target="_top" xlink:title=" ">
<polygon fill="white" stroke="black" points="1034,-393.96 1034,-412.96 1139,-412.96 1139,-393.96 1034,-393.96"/>
<text text-anchor="middle" x="1086.5" y="-400.96" font-family="Helvetica,sans-Serif" font-size="10.00">register_io_blocks</text>
</a>
</g>
</g>
<!-- Node1&#45;&gt;Node2 -->
<g id="edge1" class="edge">
<title>Node1&#45;&gt;Node2</title>
<path fill="none" stroke="midnightblue" d="M1230.69,-502.09C1196.07,-478.25 1130.43,-433.03 1101.64,-413.2"/>
<polygon fill="midnightblue" stroke="midnightblue" points="1228.95,-505.15 1239.17,-507.94 1232.92,-499.38 1228.95,-505.15"/>
</g>
<!-- Node17 -->
<g id="node17" class="node">
<title>Node17</title>
<g id="a_node17"><a xlink:href="run_8c.html#a89690448ef43a8d624b963382b7503ed" target="_top" xlink:title=" ">
<polygon fill="white" stroke="black" points="120.5,-144.96 120.5,-163.96 152.5,-163.96 152.5,-144.96 120.5,-144.96"/>
<text text-anchor="middle" x="136.5" y="-151.96" font-family="Helvetica,sans-Serif" font-size="10.00">run</text>
</a>
</g>
</g>
<!-- Node1&#45;&gt;Node17 -->
<g id="edge52" class="edge">
<title>Node1&#45;&gt;Node17</title>
<path fill="none" stroke="midnightblue" d="M1250.56,-497.68C1237.7,-403.19 1169.12,-2.46 931,-2.46 931,-2.46 931,-2.46 453.5,-2.46 353.83,-2.46 318.29,12.41 232,-37.46 186.11,-63.98 153.58,-122.01 142.07,-144.9"/>
<polygon fill="midnightblue" stroke="midnightblue" points="1247.09,-498.17 1251.86,-507.63 1254.03,-497.26 1247.09,-498.17"/>
</g>
<!-- Node23 -->
<g id="node23" class="node">
<title>Node23</title>
<g id="a_node23"><a xlink:href="init_8c.html#a713a74e1e0ca55699bc6581763bae177" target="_top" xlink:title=" ">
<polygon fill="white" stroke="black" points="386,-562.96 386,-581.96 523,-581.96 523,-562.96 386,-562.96"/>
<text text-anchor="middle" x="454.5" y="-569.96" font-family="Helvetica,sans-Serif" font-size="10.00">setup_smoothinglengths</text>
</a>
</g>
</g>
<!-- Node1&#45;&gt;Node23 -->
<g id="edge55" class="edge">
<title>Node1&#45;&gt;Node23</title>
<path fill="none" stroke="midnightblue" d="M1170.61,-524.21C1105.59,-528.95 1012.57,-534.46 931,-534.46 931,-534.46 931,-534.46 781,-534.46 683,-534.46 569.52,-551.66 505.75,-562.92"/>
<polygon fill="midnightblue" stroke="midnightblue" points="1171.09,-527.68 1180.8,-523.45 1170.57,-520.7 1171.09,-527.68"/>
</g>
<!-- Node37 -->
<g id="node37" class="node">
<title>Node37</title>
<g id="a_node37"><a xlink:href="init_8c.html#af35b2ff44ee11141241741fa051ad2ac" target="_top" xlink:title=" ">
<polygon fill="white" stroke="black" points="1028,-563.46 1028,-593.46 1145,-593.46 1145,-563.46 1028,-563.46"/>
<text text-anchor="start" x="1036" y="-581.46" font-family="Helvetica,sans-Serif" font-size="10.00">setup_density_indep</text>
<text text-anchor="middle" x="1086.5" y="-570.46" font-family="Helvetica,sans-Serif" font-size="10.00">_entropy</text>
</a>
</g>
</g>
<!-- Node1&#45;&gt;Node37 -->
<g id="edge53" class="edge">
<title>Node1&#45;&gt;Node37</title>
<path fill="none" stroke="midnightblue" d="M1217.61,-530.5C1191.42,-540.16 1155.69,-553.32 1128.3,-563.42"/>
<polygon fill="midnightblue" stroke="midnightblue" points="1218.97,-533.73 1227.14,-526.99 1216.55,-527.17 1218.97,-533.73"/>
</g>
<!-- Node3 -->
<g id="node3" class="node">
<title>Node3</title>
<g id="a_node3"><a xlink:href="checkpoint_8c.html#a9b7b2e06591ff6f1fb5735a65f1efd78" target="_top" xlink:title=" ">
<polygon fill="white" stroke="black" points="883,-234.96 883,-253.96 977,-253.96 977,-234.96 883,-234.96"/>
<text text-anchor="middle" x="930" y="-241.96" font-family="Helvetica,sans-Serif" font-size="10.00">dump_snapshot</text>
</a>
</g>
</g>
<!-- Node2&#45;&gt;Node3 -->
<g id="edge2" class="edge">
<title>Node2&#45;&gt;Node3</title>
<path fill="none" stroke="midnightblue" d="M1068.8,-386.28C1036.33,-352.85 965.61,-280.08 940.27,-254"/>
<polygon fill="midnightblue" stroke="midnightblue" points="1066.36,-388.78 1075.84,-393.51 1071.38,-383.9 1066.36,-388.78"/>
</g>
<!-- Node19 -->
<g id="node19" class="node">
<title>Node19</title>
<g id="a_node19"><a xlink:href="run_8h.html#aa438e424237818b7728b98cd764e45d1" target="_top" xlink:title=" ">
<polygon fill="white" stroke="black" points="406.5,-448.96 406.5,-467.96 502.5,-467.96 502.5,-448.96 406.5,-448.96"/>
<text text-anchor="middle" x="454.5" y="-455.96" font-family="Helvetica,sans-Serif" font-size="10.00">run_gravity_test</text>
</a>
</g>
</g>
<!-- Node2&#45;&gt;Node19 -->
<g id="edge49" class="edge">
<title>Node2&#45;&gt;Node19</title>
<path fill="none" stroke="midnightblue" d="M1023.72,-408.85C897.99,-419.83 614.76,-444.56 502.56,-454.35"/>
<polygon fill="midnightblue" stroke="midnightblue" points="1024.29,-412.32 1033.94,-407.96 1023.68,-405.34 1024.29,-412.32"/>
</g>
<!-- Node32 -->
<g id="node32" class="node">
<title>Node32</title>
<g id="a_node32"><a xlink:href="fof_8h.html#aaa985d617a622b54361bd8c756076b11" target="_top" xlink:title=" ">
<polygon fill="white" stroke="black" points="877,-336.96 877,-355.96 983,-355.96 983,-336.96 877,-336.96"/>
<text text-anchor="middle" x="930" y="-343.96" font-family="Helvetica,sans-Serif" font-size="10.00">fof_save_particles</text>
</a>
</g>
</g>
<!-- Node2&#45;&gt;Node32 -->
<g id="edge42" class="edge">
<title>Node2&#45;&gt;Node32</title>
<path fill="none" stroke="midnightblue" d="M1050.09,-390.39C1021.69,-379.92 982.49,-365.45 956.94,-356.03"/>
<polygon fill="midnightblue" stroke="midnightblue" points="1049.05,-393.74 1059.64,-393.92 1051.47,-387.17 1049.05,-393.74"/>
</g>
<!-- Node34 -->
<g id="node34" class="node">
<title>Node34</title>
<g id="a_node34"><a xlink:href="petaio_8c.html#a18ce9fa2faeaab142a978b2293493b5d" target="_top" xlink:title=" ">
<polygon fill="white" stroke="black" points="868,-486.96 868,-505.96 992,-505.96 992,-486.96 868,-486.96"/>
<text text-anchor="middle" x="930" y="-493.96" font-family="Helvetica,sans-Serif" font-size="10.00">petaio_read_snapshot</text>
</a>
</g>
</g>
<!-- Node2&#45;&gt;Node34 -->
<g id="edge46" class="edge">
<title>Node2&#45;&gt;Node34</title>
<path fill="none" stroke="midnightblue" d="M1060.8,-418.33C1028.87,-437.55 974.14,-470.49 947.1,-486.77"/>
<polygon fill="midnightblue" stroke="midnightblue" points="1062.79,-421.22 1069.55,-413.06 1059.18,-415.22 1062.79,-421.22"/>
</g>
<!-- Node36 -->
<g id="node36" class="node">
<title>Node36</title>
<g id="a_node36"><a xlink:href="checkpoint_8c.html#a233c8fd1567fc34773a92294a6d8de7b" target="_top" xlink:title=" ">
<polygon fill="white" stroke="black" points="732,-30.96 732,-49.96 832,-49.96 832,-30.96 732,-30.96"/>
<text text-anchor="middle" x="782" y="-37.96" font-family="Helvetica,sans-Serif" font-size="10.00">write_checkpoint</text>
</a>
</g>
</g>
<!-- Node2&#45;&gt;Node36 -->
<g id="edge50" class="edge">
<title>Node2&#45;&gt;Node36</title>
<path fill="none" stroke="midnightblue" d="M1077.57,-383.97C1063.25,-350.01 1030.94,-278.54 992,-225.46 932.32,-144.12 913.99,-123.24 832,-64.46 824.3,-58.94 815.14,-54.07 806.83,-50.19"/>
<polygon fill="midnightblue" stroke="midnightblue" points="1074.5,-385.72 1081.57,-393.61 1080.96,-383.03 1074.5,-385.72"/>
</g>
<!-- Node4 -->
<g id="node4" class="node">
<title>Node4</title>
<g id="a_node4"><a xlink:href="forcetree_8c.html#a0de0fec1cfeb5e2aad5f33a843de25e7" target="_top" xlink:title=" ">
<polygon fill="white" stroke="black" points="734.5,-234.96 734.5,-253.96 829.5,-253.96 829.5,-234.96 734.5,-234.96"/>
<text text-anchor="middle" x="782" y="-241.96" font-family="Helvetica,sans-Serif" font-size="10.00">force_tree_build</text>
</a>
</g>
</g>
<!-- Node3&#45;&gt;Node4 -->
<g id="edge3" class="edge">
<title>Node3&#45;&gt;Node4</title>
<path fill="none" stroke="midnightblue" d="M872.64,-244.46C858.43,-244.46 843.33,-244.46 829.65,-244.46"/>
<polygon fill="midnightblue" stroke="midnightblue" points="872.8,-247.96 882.8,-244.46 872.8,-240.96 872.8,-247.96"/>
</g>
<!-- Node3&#45;&gt;Node17 -->
<g id="edge41" class="edge">
<title>Node3&#45;&gt;Node17</title>
<path fill="none" stroke="midnightblue" d="M912.4,-227.2C869.65,-184.7 750.56,-78.46 628.5,-78.46 628.5,-78.46 628.5,-78.46 453.5,-78.46 354.69,-78.46 325.97,-66.93 232,-97.46 199.56,-108 166.55,-131.44 149.44,-144.74"/>
<polygon fill="midnightblue" stroke="midnightblue" points="910.17,-229.92 919.69,-234.57 915.15,-225 910.17,-229.92"/>
</g>
<!-- Node5 -->
<g id="node5" class="node">
<title>Node5</title>
<g id="a_node5"><a xlink:href="forcetree_8c.html#a5156dae3aae56140d6e9ae0ab58867cc" target="_top" xlink:title=" ">
<polygon fill="white" stroke="black" points="575,-381.96 575,-400.96 680,-400.96 680,-381.96 575,-381.96"/>
<text text-anchor="middle" x="627.5" y="-388.96" font-family="Helvetica,sans-Serif" font-size="10.00">force_tree_rebuild</text>
</a>
</g>
</g>
<!-- Node4&#45;&gt;Node5 -->
<g id="edge4" class="edge">
<title>Node4&#45;&gt;Node5</title>
<path fill="none" stroke="midnightblue" d="M763.68,-261.16C731.72,-291.96 664.41,-356.84 638.74,-381.59"/>
<polygon fill="midnightblue" stroke="midnightblue" points="766.22,-263.57 770.99,-254.11 761.37,-258.53 766.22,-263.57"/>
</g>
<!-- Node25 -->
<g id="node25" class="node">
<title>Node25</title>
<g id="a_node25"><a xlink:href="forcetree_8c.html#aa01061828cef34bc4c55ef9eaa7c03f5" target="_top" xlink:title=" ">
<polygon fill="white" stroke="black" points="559,-177.96 559,-196.96 696,-196.96 696,-177.96 559,-177.96"/>
<text text-anchor="middle" x="627.5" y="-184.96" font-family="Helvetica,sans-Serif" font-size="10.00">force_tree_rebuild_mask</text>
</a>
</g>
</g>
<!-- Node4&#45;&gt;Node25 -->
<g id="edge30" class="edge">
<title>Node4&#45;&gt;Node25</title>
<path fill="none" stroke="midnightblue" d="M746.04,-231.39C718.01,-220.92 679.32,-206.45 654.11,-197.03"/>
<polygon fill="midnightblue" stroke="midnightblue" points="744.88,-234.7 755.47,-234.92 747.33,-228.14 744.88,-234.7"/>
</g>
<!-- Node6 -->
<g id="node6" class="node">
<title>Node6</title>
<g id="a_node6"><a xlink:href="test__density_8c.html#a1f2c8c2a35e14ec19a93d42363f0fe55" target="_top" xlink:title=" ">
<polygon fill="white" stroke="black" points="407.5,-410.96 407.5,-429.96 501.5,-429.96 501.5,-410.96 407.5,-410.96"/>
<text text-anchor="middle" x="454.5" y="-417.96" font-family="Helvetica,sans-Serif" font-size="10.00">do_density_test</text>
</a>
</g>
</g>
<!-- Node5&#45;&gt;Node6 -->
<g id="edge5" class="edge">
<title>Node5&#45;&gt;Node6</title>
<path fill="none" stroke="midnightblue" d="M564.69,-401.94C543.85,-405.48 520.98,-409.35 501.58,-412.65"/>
<polygon fill="midnightblue" stroke="midnightblue" points="565.46,-405.36 574.73,-400.24 564.29,-398.46 565.46,-405.36"/>
</g>
<!-- Node11 -->
<g id="node11" class="node">
<title>Node11</title>
<g id="a_node11"><a xlink:href="test__gravity_8c.html#aa6bdcef3f6cb327efb3f2f993f64b7ce" target="_top" xlink:title=" ">
<polygon fill="white" stroke="black" points="413,-619.96 413,-638.96 496,-638.96 496,-619.96 413,-619.96"/>
<text text-anchor="middle" x="454.5" y="-626.96" font-family="Helvetica,sans-Serif" font-size="10.00">do_force_test</text>
</a>
</g>
</g>
<!-- Node5&#45;&gt;Node11 -->
<g id="edge10" class="edge">
<title>Node5&#45;&gt;Node11</title>
<path fill="none" stroke="midnightblue" d="M620.65,-410.91C608.21,-449.48 575.89,-536.68 523,-591.46 510.95,-603.94 493.91,-613.49 479.96,-619.9"/>
<polygon fill="midnightblue" stroke="midnightblue" points="624.11,-411.57 623.75,-400.98 617.42,-409.48 624.11,-411.57"/>
</g>
<!-- Node5&#45;&gt;Node17 -->
<g id="edge18" class="edge">
<title>Node5&#45;&gt;Node17</title>
<path fill="none" stroke="midnightblue" d="M619.9,-372.17C607.07,-337.74 575.32,-266.03 523,-230.46 491.41,-208.98 219.95,-166.9 152.58,-156.72"/>
<polygon fill="midnightblue" stroke="midnightblue" points="616.73,-373.71 623.41,-381.94 623.32,-371.34 616.73,-373.71"/>
</g>
<!-- Node5&#45;&gt;Node19 -->
<g id="edge20" class="edge">
<title>Node5&#45;&gt;Node19</title>
<path fill="none" stroke="midnightblue" d="M599.09,-405.64C578.52,-415.92 549.46,-429.67 523,-439.46 513.52,-442.97 503.1,-446.2 493.33,-448.96"/>
<polygon fill="midnightblue" stroke="midnightblue" points="600.83,-408.68 608.18,-401.05 597.68,-402.43 600.83,-408.68"/>
</g>
<!-- Node21 -->
<g id="node21" class="node">
<title>Node21</title>
<g id="a_node21"><a xlink:href="run_8c.html#a02ef4c629cc0fea15dce527f09ea672f" target="_top" xlink:title=" ">
<polygon fill="white" stroke="black" points="268,-334.96 268,-353.96 314,-353.96 314,-334.96 268,-334.96"/>
<text text-anchor="middle" x="291" y="-341.96" font-family="Helvetica,sans-Serif" font-size="10.00">runfof</text>
</a>
</g>
</g>
<!-- Node5&#45;&gt;Node21 -->
<g id="edge23" class="edge">
<title>Node5&#45;&gt;Node21</title>
<path fill="none" stroke="midnightblue" d="M578.44,-379.57C561.06,-375.59 541.23,-371.42 523,-368.46 446.79,-356.07 355.33,-348.79 314.09,-345.9"/>
<polygon fill="midnightblue" stroke="midnightblue" points="577.83,-383.02 588.36,-381.88 579.42,-376.21 577.83,-383.02"/>
</g>
<!-- Node22 -->
<g id="node22" class="node">
<title>Node22</title>
<g id="a_node22"><a xlink:href="run_8c.html#afc20ced36c74991ca5c2004510c6c628" target="_top" xlink:title=" ">
<polygon fill="white" stroke="black" points="105.5,-372.96 105.5,-391.96 167.5,-391.96 167.5,-372.96 105.5,-372.96"/>
<text text-anchor="middle" x="136.5" y="-379.96" font-family="Helvetica,sans-Serif" font-size="10.00">runpower</text>
</a>
</g>
</g>
<!-- Node5&#45;&gt;Node22 -->
<g id="edge25" class="edge">
<title>Node5&#45;&gt;Node22</title>
<path fill="none" stroke="midnightblue" d="M564.4,-390.32C458.35,-388.37 246.18,-384.46 167.64,-383.01"/>
<polygon fill="midnightblue" stroke="midnightblue" points="564.57,-393.82 574.63,-390.51 564.7,-386.82 564.57,-393.82"/>
</g>
<!-- Node5&#45;&gt;Node23 -->
<g id="edge27" class="edge">
<title>Node5&#45;&gt;Node23</title>
<path fill="none" stroke="midnightblue" d="M610.15,-408.77C574.83,-446.15 492.4,-533.4 464.74,-562.68"/>
<polygon fill="midnightblue" stroke="midnightblue" points="612.98,-410.86 617.31,-401.19 607.89,-406.06 612.98,-410.86"/>
</g>
<!-- Node7 -->
<g id="node7" class="node">
<title>Node7</title>
<g id="a_node7"><a xlink:href="test__density_8c.html#ab398a273f1cc5a1816af9ef286a460f3" target="_top" xlink:title=" ">
<polygon fill="white" stroke="black" points="243.5,-486.96 243.5,-505.96 338.5,-505.96 338.5,-486.96 243.5,-486.96"/>
<text text-anchor="middle" x="291" y="-493.96" font-family="Helvetica,sans-Serif" font-size="10.00">do_random_test</text>
</a>
</g>
</g>
<!-- Node6&#45;&gt;Node7 -->
<g id="edge6" class="edge">
<title>Node6&#45;&gt;Node7</title>
<path fill="none" stroke="midnightblue" d="M398.09,-433.36C393.88,-435.14 389.8,-437.17 386,-439.46 366.09,-451.49 369.66,-465.01 350,-477.46 344,-481.26 337.17,-484.37 330.35,-486.89"/>
<polygon fill="midnightblue" stroke="midnightblue" points="399.33,-436.63 407.45,-429.81 396.85,-430.08 399.33,-436.63"/>
</g>
<!-- Node9 -->
<g id="node9" class="node">
<title>Node9</title>
<g id="a_node9"><a xlink:href="test__density_8c.html#a0b98ad62e33169daca9a098f23b22730" target="_top" xlink:title=" ">
<polygon fill="white" stroke="black" points="237.5,-448.96 237.5,-467.96 344.5,-467.96 344.5,-448.96 237.5,-448.96"/>
<text text-anchor="middle" x="291" y="-455.96" font-family="Helvetica,sans-Serif" font-size="10.00">test_density_close</text>
</a>
</g>
</g>
<!-- Node6&#45;&gt;Node9 -->
<g id="edge8" class="edge">
<title>Node6&#45;&gt;Node9</title>
<path fill="none" stroke="midnightblue" d="M402.94,-432.36C380.24,-437.7 353.82,-443.91 332.46,-448.94"/>
<polygon fill="midnightblue" stroke="midnightblue" points="403.81,-435.75 412.75,-430.05 402.21,-428.93 403.81,-435.75"/>
</g>
<!-- Node10 -->
<g id="node10" class="node">
<title>Node10</title>
<g id="a_node10"><a xlink:href="test__density_8c.html#af90097e65c497dae6bed7b2d03702f89" target="_top" xlink:title=" ">
<polygon fill="white" stroke="black" points="242,-410.96 242,-429.96 340,-429.96 340,-410.96 242,-410.96"/>
<text text-anchor="middle" x="291" y="-417.96" font-family="Helvetica,sans-Serif" font-size="10.00">test_density_flat</text>
</a>
</g>
</g>
<!-- Node6&#45;&gt;Node10 -->
<g id="edge9" class="edge">
<title>Node6&#45;&gt;Node10</title>
<path fill="none" stroke="midnightblue" d="M397.14,-420.46C378.59,-420.46 358.14,-420.46 340.25,-420.46"/>
<polygon fill="midnightblue" stroke="midnightblue" points="397.22,-423.96 407.22,-420.46 397.22,-416.96 397.22,-423.96"/>
</g>
<!-- Node8 -->
<g id="node8" class="node">
<title>Node8</title>
<g id="a_node8"><a xlink:href="test__density_8c.html#a79c97c1ac28bcad8abc150104d7cb7c0" target="_top" xlink:title=" ">
<polygon fill="white" stroke="black" points="77,-486.96 77,-505.96 196,-505.96 196,-486.96 77,-486.96"/>
<text text-anchor="middle" x="136.5" y="-493.96" font-family="Helvetica,sans-Serif" font-size="10.00">test_density_random</text>
</a>
</g>
</g>
<!-- Node7&#45;&gt;Node8 -->
<g id="edge7" class="edge">
<title>Node7&#45;&gt;Node8</title>
<path fill="none" stroke="midnightblue" d="M233.05,-496.46C221.02,-496.46 208.3,-496.46 196.21,-496.46"/>
<polygon fill="midnightblue" stroke="midnightblue" points="233.42,-499.96 243.42,-496.46 233.42,-492.96 233.42,-499.96"/>
</g>
<!-- Node12 -->
<g id="node12" class="node">
<title>Node12</title>
<g id="a_node12"><a xlink:href="test__gravity_8c.html#a31e06bbad4eac810c349a6bc44a0aa08" target="_top" xlink:title=" ">
<polygon fill="white" stroke="black" points="243.5,-638.96 243.5,-657.96 338.5,-657.96 338.5,-638.96 243.5,-638.96"/>
<text text-anchor="middle" x="291" y="-645.96" font-family="Helvetica,sans-Serif" font-size="10.00">do_random_test</text>
</a>
</g>
</g>
<!-- Node11&#45;&gt;Node12 -->
<g id="edge11" class="edge">
<title>Node11&#45;&gt;Node12</title>
<path fill="none" stroke="midnightblue" d="M402.67,-635.44C382.21,-637.85 358.77,-640.6 338.75,-642.96"/>
<polygon fill="midnightblue" stroke="midnightblue" points="403.22,-638.9 412.75,-634.25 402.41,-631.95 403.22,-638.9"/>
</g>
<!-- Node15 -->
<g id="node15" class="node">
<title>Node15</title>
<g id="a_node15"><a xlink:href="test__gravity_8c.html#ac3391a3ee98d428389e50b886e988c63" target="_top" xlink:title=" ">
<polygon fill="white" stroke="black" points="88.5,-600.96 88.5,-619.96 184.5,-619.96 184.5,-600.96 88.5,-600.96"/>
<text text-anchor="middle" x="136.5" y="-607.96" font-family="Helvetica,sans-Serif" font-size="10.00">test_force_close</text>
</a>
</g>
</g>
<!-- Node11&#45;&gt;Node15 -->
<g id="edge14" class="edge">
<title>Node11&#45;&gt;Node15</title>
<path fill="none" stroke="midnightblue" d="M402.81,-626.41C342.68,-622.8 243.25,-616.82 184.7,-613.3"/>
<polygon fill="midnightblue" stroke="midnightblue" points="402.64,-629.91 412.84,-627.01 403.06,-622.92 402.64,-629.91"/>
</g>
<!-- Node16 -->
<g id="node16" class="node">
<title>Node16</title>
<g id="a_node16"><a xlink:href="test__gravity_8c.html#a87bcba11fc8f8f2ad649784bb1b8a48d" target="_top" xlink:title=" ">
<polygon fill="white" stroke="black" points="93.5,-676.96 93.5,-695.96 179.5,-695.96 179.5,-676.96 93.5,-676.96"/>
<text text-anchor="middle" x="136.5" y="-683.96" font-family="Helvetica,sans-Serif" font-size="10.00">test_force_flat</text>
</a>
</g>
</g>
<!-- Node11&#45;&gt;Node16 -->
<g id="edge16" class="edge">
<title>Node11&#45;&gt;Node16</title>
<path fill="none" stroke="midnightblue" d="M423.24,-642.97C402.94,-651.43 375.36,-661.77 350,-667.46 291.81,-680.5 222.76,-684.66 179.53,-685.94"/>
<polygon fill="midnightblue" stroke="midnightblue" points="424.75,-646.13 432.58,-638.99 422.01,-639.69 424.75,-646.13"/>
</g>
<!-- Node13 -->
<g id="node13" class="node">
<title>Node13</title>
<g id="a_node13"><a xlink:href="test__gravity_8c.html#a17492d7388898745e66a636173c8ce1d" target="_top" xlink:title=" ">
<polygon fill="white" stroke="black" points="82.5,-638.96 82.5,-657.96 190.5,-657.96 190.5,-638.96 82.5,-638.96"/>
<text text-anchor="middle" x="136.5" y="-645.96" font-family="Helvetica,sans-Serif" font-size="10.00">test_force_random</text>
</a>
</g>
</g>
<!-- Node12&#45;&gt;Node13 -->
<g id="edge12" class="edge">
<title>Node12&#45;&gt;Node13</title>
<path fill="none" stroke="midnightblue" d="M233.03,-648.46C219.18,-648.46 204.41,-648.46 190.74,-648.46"/>
<polygon fill="midnightblue" stroke="midnightblue" points="233.42,-651.96 243.42,-648.46 233.42,-644.96 233.42,-651.96"/>
</g>
<!-- Node14 -->
<g id="node14" class="node">
<title>Node14</title>
<g id="a_node14"><a xlink:href="test__gravity_8c.html#a840291bc02cba5474a4cb46a9b9566fe" target="_top" xlink:title=" ">
<polygon fill="white" stroke="black" points="0,-638.96 0,-657.96 41,-657.96 41,-638.96 0,-638.96"/>
<text text-anchor="middle" x="20.5" y="-645.96" font-family="Helvetica,sans-Serif" font-size="10.00">main</text>
</a>
</g>
</g>
<!-- Node13&#45;&gt;Node14 -->
<g id="edge13" class="edge">
<title>Node13&#45;&gt;Node14</title>
<path fill="none" stroke="midnightblue" d="M71.9,-648.46C60.77,-648.46 49.97,-648.46 41.25,-648.46"/>
<polygon fill="midnightblue" stroke="midnightblue" points="72.17,-651.96 82.17,-648.46 72.17,-644.96 72.17,-651.96"/>
</g>
<!-- Node15&#45;&gt;Node14 -->
<g id="edge15" class="edge">
<title>Node15&#45;&gt;Node14</title>
<path fill="none" stroke="midnightblue" d="M95.94,-623.21C89.6,-625.29 83.12,-627.42 77,-629.46 65.12,-633.42 51.84,-637.96 41.25,-641.61"/>
<polygon fill="midnightblue" stroke="midnightblue" points="97.28,-626.46 105.71,-620.03 95.12,-619.8 97.28,-626.46"/>
</g>
<!-- Node16&#45;&gt;Node14 -->
<g id="edge17" class="edge">
<title>Node16&#45;&gt;Node14</title>
<path fill="none" stroke="midnightblue" d="M95.94,-673.71C89.6,-671.63 83.12,-669.5 77,-667.46 65.12,-663.5 51.84,-658.96 41.25,-655.31"/>
<polygon fill="midnightblue" stroke="midnightblue" points="95.12,-677.12 105.71,-676.88 97.28,-670.46 95.12,-677.12"/>
</g>
<!-- Node18 -->
<g id="node18" class="node">
<title>Node18</title>
<g id="a_node18"><a xlink:href="gadget_2main_8c.html#a3c04138a5bfe5d72780bb7e82a18e627" target="_top" xlink:title=" ">
<polygon fill="white" stroke="black" points="0,-372.96 0,-391.96 41,-391.96 41,-372.96 0,-372.96"/>
<text text-anchor="middle" x="20.5" y="-379.96" font-family="Helvetica,sans-Serif" font-size="10.00">main</text>
</a>
</g>
</g>
<!-- Node17&#45;&gt;Node18 -->
<g id="edge19" class="edge">
<title>Node17&#45;&gt;Node18</title>
<path fill="none" stroke="midnightblue" d="M123.15,-172.59C110.65,-191.35 91.21,-221.74 77,-249.46 54.06,-294.21 32.93,-350.68 24.91,-372.88"/>
<polygon fill="midnightblue" stroke="midnightblue" points="126.15,-174.4 128.83,-164.15 120.34,-170.49 126.15,-174.4"/>
</g>
<!-- Node20 -->
<g id="node20" class="node">
<title>Node20</title>
<g id="a_node20"><a xlink:href="run_8c.html#ab1d8bf99f794003fa95002043fe3b47c" target="_top" xlink:title=" ">
<polygon fill="white" stroke="black" points="108.5,-524.96 108.5,-543.96 164.5,-543.96 164.5,-524.96 108.5,-524.96"/>
<text text-anchor="middle" x="136.5" y="-531.96" font-family="Helvetica,sans-Serif" font-size="10.00">runtests</text>
</a>
</g>
</g>
<!-- Node19&#45;&gt;Node20 -->
<g id="edge21" class="edge">
<title>Node19&#45;&gt;Node20</title>
<path fill="none" stroke="midnightblue" d="M408.81,-471.49C400.95,-474.57 393.05,-478.22 386,-482.46 367.4,-493.65 369.86,-506.7 350,-515.46 288.16,-542.75 206.49,-540.79 164.7,-537.41"/>
<polygon fill="midnightblue" stroke="midnightblue" points="410.12,-474.73 418.31,-468 407.71,-468.16 410.12,-474.73"/>
</g>
<!-- Node20&#45;&gt;Node18 -->
<g id="edge22" class="edge">
<title>Node20&#45;&gt;Node18</title>
<path fill="none" stroke="midnightblue" d="M98.45,-527.72C90.67,-524.94 83.02,-521.01 77,-515.46 39.29,-480.7 26.38,-416.32 22.74,-392.05"/>
<polygon fill="midnightblue" stroke="midnightblue" points="97.67,-531.14 108.25,-530.66 99.68,-524.43 97.67,-531.14"/>
</g>
<!-- Node21&#45;&gt;Node18 -->
<g id="edge24" class="edge">
<title>Node21&#45;&gt;Node18</title>
<path fill="none" stroke="midnightblue" d="M257.79,-344.93C215.76,-346.09 140.14,-350.04 77,-363.46 64.85,-366.04 51.67,-370.48 41.21,-374.42"/>
<polygon fill="midnightblue" stroke="midnightblue" points="258.06,-348.42 267.97,-344.69 257.89,-341.43 258.06,-348.42"/>
</g>
<!-- Node22&#45;&gt;Node18 -->
<g id="edge26" class="edge">
<title>Node22&#45;&gt;Node18</title>
<path fill="none" stroke="midnightblue" d="M95.1,-382.46C76.77,-382.46 55.93,-382.46 41.12,-382.46"/>
<polygon fill="midnightblue" stroke="midnightblue" points="95.25,-385.96 105.25,-382.46 95.25,-378.96 95.25,-385.96"/>
</g>
<!-- Node24 -->
<g id="node24" class="node">
<title>Node24</title>
<g id="a_node24"><a xlink:href="run_8c.html#aee4609880c9e92e1c421c4bd238589fd" target="_top" xlink:title=" ">
<polygon fill="white" stroke="black" points="266,-562.96 266,-581.96 316,-581.96 316,-562.96 266,-562.96"/>
<text text-anchor="middle" x="291" y="-569.96" font-family="Helvetica,sans-Serif" font-size="10.00">begrun</text>
</a>
</g>
</g>
<!-- Node23&#45;&gt;Node24 -->
<g id="edge28" class="edge">
<title>Node23&#45;&gt;Node24</title>
<path fill="none" stroke="midnightblue" d="M375.74,-572.46C354.15,-572.46 332.28,-572.46 316.3,-572.46"/>
<polygon fill="midnightblue" stroke="midnightblue" points="375.95,-575.96 385.95,-572.46 375.95,-568.96 375.95,-575.96"/>
</g>
<!-- Node24&#45;&gt;Node18 -->
<g id="edge29" class="edge">
<title>Node24&#45;&gt;Node18</title>
<path fill="none" stroke="midnightblue" d="M255.78,-579.95C209.86,-587.88 128.17,-594.25 77,-553.46 25.26,-512.22 21.15,-422.01 21.27,-392.22"/>
<polygon fill="midnightblue" stroke="midnightblue" points="256.63,-583.35 265.83,-578.09 255.36,-576.47 256.63,-583.35"/>
</g>
<!-- Node26 -->
<g id="node26" class="node">
<title>Node26</title>
<g id="a_node26"><a xlink:href="fof_8c.html#aef0df27f65ad2e5a95f66ae4e970da23" target="_top" xlink:title=" ">
<polygon fill="white" stroke="black" points="430,-239.96 430,-258.96 479,-258.96 479,-239.96 430,-239.96"/>
<text text-anchor="middle" x="454.5" y="-246.96" font-family="Helvetica,sans-Serif" font-size="10.00">fof_fof</text>
</a>
</g>
</g>
<!-- Node25&#45;&gt;Node26 -->
<g id="edge31" class="edge">
<title>Node25&#45;&gt;Node26</title>
<path fill="none" stroke="midnightblue" d="M590.72,-200.43C557.18,-212.59 508,-230.42 479.12,-240.9"/>
<polygon fill="midnightblue" stroke="midnightblue" points="591.95,-203.71 600.16,-197.01 589.56,-197.13 591.95,-203.71"/>
</g>
<!-- Node29 -->
<g id="node29" class="node">
<title>Node29</title>
<g id="a_node29"><a xlink:href="metal__return_8c.html#a7c817252ab7c0f679fea71bde6dea852" target="_top" xlink:title=" ">
<polygon fill="white" stroke="black" points="414.5,-144.96 414.5,-163.96 494.5,-163.96 494.5,-144.96 414.5,-144.96"/>
<text text-anchor="middle" x="454.5" y="-151.96" font-family="Helvetica,sans-Serif" font-size="10.00">metal_return</text>
</a>
</g>
</g>
<!-- Node25&#45;&gt;Node29 -->
<g id="edge36" class="edge">
<title>Node25&#45;&gt;Node29</title>
<path fill="none" stroke="midnightblue" d="M566.97,-175.97C542.97,-171.34 515.96,-166.13 494.54,-161.99"/>
<polygon fill="midnightblue" stroke="midnightblue" points="566.56,-179.46 577.04,-177.91 567.88,-172.58 566.56,-179.46"/>
</g>
<!-- Node30 -->
<g id="node30" class="node">
<title>Node30</title>
<g id="a_node30"><a xlink:href="cooling__qso__lightup_8c.html#a047bd5886141415004b83a046b49d5cc" target="_top" xlink:title=" ">
<polygon fill="white" stroke="black" points="406,-106.96 406,-125.96 503,-125.96 503,-106.96 406,-106.96"/>
<text text-anchor="middle" x="454.5" y="-113.96" font-family="Helvetica,sans-Serif" font-size="10.00">turn_on_quasars</text>
</a>
</g>
</g>
<!-- Node25&#45;&gt;Node30 -->
<g id="edge38" class="edge">
<title>Node25&#45;&gt;Node30</title>
<path fill="none" stroke="midnightblue" d="M600.99,-172.92C580.41,-161.61 550.48,-146.12 523,-135.46 513.92,-131.94 503.92,-128.76 494.47,-126.06"/>
<polygon fill="midnightblue" stroke="midnightblue" points="599.3,-175.98 609.74,-177.78 602.7,-169.86 599.3,-175.98"/>
</g>
<!-- Node26&#45;&gt;Node17 -->
<g id="edge32" class="edge">
<title>Node26&#45;&gt;Node17</title>
<path fill="none" stroke="midnightblue" d="M419.72,-246.21C375.51,-241.21 296.14,-229.68 232,-206.46 201.72,-195.49 169.47,-175.79 151.56,-164.04"/>
<polygon fill="midnightblue" stroke="midnightblue" points="419.58,-249.71 429.9,-247.31 420.34,-242.75 419.58,-249.71"/>
</g>
<!-- Node26&#45;&gt;Node21 -->
<g id="edge33" class="edge">
<title>Node26&#45;&gt;Node21</title>
<path fill="none" stroke="midnightblue" d="M427.21,-264C414.68,-271 399.51,-279.56 386,-287.46 358.15,-303.74 326.11,-323.36 307.54,-334.82"/>
<polygon fill="midnightblue" stroke="midnightblue" points="429.18,-266.91 436.21,-258.99 425.77,-260.8 429.18,-266.91"/>
</g>
<!-- Node27 -->
<g id="node27" class="node">
<title>Node27</title>
<g id="a_node27"><a xlink:href="test__fof_8c.html#a2b2edcaa960047ba6c815956c46d82a6" target="_top" xlink:title=" ">
<polygon fill="white" stroke="black" points="264,-258.96 264,-277.96 318,-277.96 318,-258.96 264,-258.96"/>
<text text-anchor="middle" x="291" y="-265.96" font-family="Helvetica,sans-Serif" font-size="10.00">test_fof</text>
</a>
</g>
</g>
<!-- Node26&#45;&gt;Node27 -->
<g id="edge34" class="edge">
<title>Node26&#45;&gt;Node27</title>
<path fill="none" stroke="midnightblue" d="M419.58,-253.45C389.32,-257.01 345.66,-262.15 318.07,-265.39"/>
<polygon fill="midnightblue" stroke="midnightblue" points="420.15,-256.91 429.67,-252.26 419.33,-249.96 420.15,-256.91"/>
</g>
<!-- Node28 -->
<g id="node28" class="node">
<title>Node28</title>
<g id="a_node28"><a xlink:href="test__fof_8c.html#a840291bc02cba5474a4cb46a9b9566fe" target="_top" xlink:title=" ">
<polygon fill="white" stroke="black" points="116,-258.96 116,-277.96 157,-277.96 157,-258.96 116,-258.96"/>
<text text-anchor="middle" x="136.5" y="-265.96" font-family="Helvetica,sans-Serif" font-size="10.00">main</text>
</a>
</g>
</g>
<!-- Node27&#45;&gt;Node28 -->
<g id="edge35" class="edge">
<title>Node27&#45;&gt;Node28</title>
<path fill="none" stroke="midnightblue" d="M253.61,-268.46C223.33,-268.46 181.39,-268.46 157.08,-268.46"/>
<polygon fill="midnightblue" stroke="midnightblue" points="253.78,-271.96 263.78,-268.46 253.78,-264.96 253.78,-271.96"/>
</g>
<!-- Node29&#45;&gt;Node17 -->
<g id="edge37" class="edge">
<title>Node29&#45;&gt;Node17</title>
<path fill="none" stroke="midnightblue" d="M404.09,-154.46C330.92,-154.46 197.56,-154.46 152.69,-154.46"/>
<polygon fill="midnightblue" stroke="midnightblue" points="404.44,-157.96 414.44,-154.46 404.44,-150.96 404.44,-157.96"/>
</g>
<!-- Node31 -->
<g id="node31" class="node">
<title>Node31</title>
<g id="a_node31"><a xlink:href="cooling__qso__lightup_8c.html#a42cfb86673e895125f77c946b7db8ced" target="_top" xlink:title=" ">
<polygon fill="white" stroke="black" points="232,-106.96 232,-125.96 350,-125.96 350,-106.96 232,-106.96"/>
<text text-anchor="middle" x="291" y="-113.96" font-family="Helvetica,sans-Serif" font-size="10.00">do_heiii_reionization</text>
</a>
</g>
</g>
<!-- Node30&#45;&gt;Node31 -->
<g id="edge39" class="edge">
<title>Node30&#45;&gt;Node31</title>
<path fill="none" stroke="midnightblue" d="M395.84,-116.46C380.98,-116.46 364.99,-116.46 350.11,-116.46"/>
<polygon fill="midnightblue" stroke="midnightblue" points="395.92,-119.96 405.92,-116.46 395.92,-112.96 395.92,-119.96"/>
</g>
<!-- Node31&#45;&gt;Node17 -->
<g id="edge40" class="edge">
<title>Node31&#45;&gt;Node17</title>
<path fill="none" stroke="midnightblue" d="M241.8,-128.47C210.99,-136.15 173.09,-145.59 152.52,-150.72"/>
<polygon fill="midnightblue" stroke="midnightblue" points="242.66,-131.86 251.52,-126.05 240.97,-125.07 242.66,-131.86"/>
</g>
<!-- Node33 -->
<g id="node33" class="node">
<title>Node33</title>
<g id="a_node33"><a xlink:href="fof_8c.html#a38d0e2572ef5e373fe12edd44a94ce92" target="_top" xlink:title=" ">
<polygon fill="white" stroke="black" points="406,-296.96 406,-315.96 503,-315.96 503,-296.96 406,-296.96"/>
<text text-anchor="middle" x="454.5" y="-303.96" font-family="Helvetica,sans-Serif" font-size="10.00">fof_save_groups</text>
</a>
</g>
</g>
<!-- Node32&#45;&gt;Node33 -->
<g id="edge43" class="edge">
<title>Node32&#45;&gt;Node33</title>
<path fill="none" stroke="midnightblue" d="M866.85,-341.21C770.98,-333.11 589.14,-317.75 503.01,-310.47"/>
<polygon fill="midnightblue" stroke="midnightblue" points="866.71,-344.71 876.97,-342.06 867.3,-337.74 866.71,-344.71"/>
</g>
<!-- Node33&#45;&gt;Node17 -->
<g id="edge44" class="edge">
<title>Node33&#45;&gt;Node17</title>
<path fill="none" stroke="midnightblue" d="M395.54,-314.26C348.41,-317.74 281.79,-315.92 232,-287.46 206.06,-272.63 158.68,-191.89 142.83,-163.97"/>
<polygon fill="midnightblue" stroke="midnightblue" points="395.92,-317.74 405.59,-313.42 395.33,-310.77 395.92,-317.74"/>
</g>
<!-- Node33&#45;&gt;Node21 -->
<g id="edge45" class="edge">
<title>Node33&#45;&gt;Node21</title>
<path fill="none" stroke="midnightblue" d="M402.94,-318.36C373.2,-325.35 337.09,-333.85 314.32,-339.21"/>
<polygon fill="midnightblue" stroke="midnightblue" points="403.81,-321.75 412.75,-316.05 402.21,-314.93 403.81,-321.75"/>
</g>
<!-- Node35 -->
<g id="node35" class="node">
<title>Node35</title>
<g id="a_node35"><a xlink:href="init_8c.html#ac2e8594acf366f237632083d743efb0a" target="_top" xlink:title=" ">
<polygon fill="white" stroke="black" points="766,-486.96 766,-505.96 798,-505.96 798,-486.96 766,-486.96"/>
<text text-anchor="middle" x="782" y="-493.96" font-family="Helvetica,sans-Serif" font-size="10.00">init</text>
</a>
</g>
</g>
<!-- Node34&#45;&gt;Node35 -->
<g id="edge47" class="edge">
<title>Node34&#45;&gt;Node35</title>
<path fill="none" stroke="midnightblue" d="M857.64,-496.46C835.15,-496.46 812.45,-496.46 798.09,-496.46"/>
<polygon fill="midnightblue" stroke="midnightblue" points="857.93,-499.96 867.93,-496.46 857.93,-492.96 857.93,-499.96"/>
</g>
<!-- Node35&#45;&gt;Node24 -->
<g id="edge48" class="edge">
<title>Node35&#45;&gt;Node24</title>
<path fill="none" stroke="midnightblue" d="M755.9,-498.51C714.67,-502.02 630.1,-509.85 559,-520.46 481.58,-532.01 462.81,-538.37 386,-553.46 362.31,-558.11 335.3,-563.59 316.33,-567.47"/>
<polygon fill="midnightblue" stroke="midnightblue" points="756.2,-502 765.87,-497.67 755.61,-495.02 756.2,-502"/>
</g>
<!-- Node36&#45;&gt;Node17 -->
<g id="edge51" class="edge">
<title>Node36&#45;&gt;Node17</title>
<path fill="none" stroke="midnightblue" d="M721.58,-37.86C598.23,-33.31 318.67,-27.58 232,-64.46 191.14,-81.85 157.45,-125.37 143.91,-144.81"/>
<polygon fill="midnightblue" stroke="midnightblue" points="721.48,-41.36 731.61,-38.24 721.75,-34.37 721.48,-41.36"/>
</g>
<!-- Node37&#45;&gt;Node23 -->
<g id="edge54" class="edge">
<title>Node37&#45;&gt;Node23</title>
<path fill="none" stroke="midnightblue" d="M1017.66,-577.81C896.46,-576.66 644.09,-574.26 523.07,-573.1"/>
<polygon fill="midnightblue" stroke="midnightblue" points="1017.89,-581.32 1027.92,-577.91 1017.96,-574.32 1017.89,-581.32"/>
</g>
</g>
</svg>
