<?xml version="1.0" encoding="UTF-8" standalone="no"?>
<!DOCTYPE svg PUBLIC "-//W3C//DTD SVG 1.1//EN"
 "http://www.w3.org/Graphics/SVG/1.1/DTD/svg11.dtd">
<!-- Generated by graphviz version 2.38.0 (20140413.2041)
 -->
<!-- Title: PressurePred Pages: 1 -->
<svg width="848pt" height="104pt"
 viewBox="0.00 0.00 848.00 104.00" xmlns="http://www.w3.org/2000/svg" xmlns:xlink="http://www.w3.org/1999/xlink">
<g id="graph0" class="graph" transform="scale(1 1) rotate(0) translate(4 100)">
<title>PressurePred</title>
<polygon fill="white" stroke="none" points="-4,4 -4,-100 844,-100 844,4 -4,4"/>
<!-- Node76 -->
<g id="node1" class="node"><title>Node76</title>
<polygon fill="#bfbfbf" stroke="black" points="0,-38.5 0,-57.5 76,-57.5 76,-38.5 0,-38.5"/>
<text text-anchor="middle" x="38" y="-45.5" font-family="Helvetica,sans-Serif" font-size="10.00">PressurePred</text>
</g>
<!-- Node77 -->
<g id="node2" class="node"><title>Node77</title>
<g id="a_node2"><a xlink:href="hydra_8c.html#a3ed2ec2d3c467907bca87e2a310966cb" target="_top" xlink:title="hydro_copy">
<polygon fill="white" stroke="black" points="128,-76.5 128,-95.5 195,-95.5 195,-76.5 128,-76.5"/>
<text text-anchor="middle" x="161.5" y="-83.5" font-family="Helvetica,sans-Serif" font-size="10.00">hydro_copy</text>
</a>
</g>
</g>
<!-- Node76&#45;&gt;Node77 -->
<g id="edge1" class="edge"><title>Node76&#45;&gt;Node77</title>
<path fill="none" stroke="midnightblue" d="M79.544,-60.6804C95.9606,-65.8148 114.599,-71.6441 129.85,-76.4141"/>
<polygon fill="midnightblue" stroke="midnightblue" points="80.2485,-57.2336 69.6596,-57.589 78.1589,-63.9145 80.2485,-57.2336"/>
</g>
<!-- Node84 -->
<g id="node9" class="node"><title>Node84</title>
<g id="a_node9"><a xlink:href="hydra_8c.html#a573da066bd5ea955c89ec5250d472bbb" target="_top" xlink:title="hydro_ngbiter">
<polygon fill="white" stroke="black" points="124,-38.5 124,-57.5 199,-57.5 199,-38.5 124,-38.5"/>
<text text-anchor="middle" x="161.5" y="-45.5" font-family="Helvetica,sans-Serif" font-size="10.00">hydro_ngbiter</text>
</a>
</g>
</g>
<!-- Node76&#45;&gt;Node84 -->
<g id="edge9" class="edge"><title>Node76&#45;&gt;Node84</title>
<path fill="none" stroke="midnightblue" d="M86.2883,-48C98.6782,-48 111.855,-48 123.613,-48"/>
<polygon fill="midnightblue" stroke="midnightblue" points="86.1142,-44.5001 76.1142,-48 86.1142,-51.5001 86.1142,-44.5001"/>
</g>
<!-- Node85 -->
<g id="node10" class="node"><title>Node85</title>
<g id="a_node10"><a xlink:href="hydra_8c.html#a5b505203368093cd9f708c6af9ceb0b5" target="_top" xlink:title="hydro_postprocess">
<polygon fill="white" stroke="black" points="112,-0.5 112,-19.5 211,-19.5 211,-0.5 112,-0.5"/>
<text text-anchor="middle" x="161.5" y="-7.5" font-family="Helvetica,sans-Serif" font-size="10.00">hydro_postprocess</text>
</a>
</g>
</g>
<!-- Node76&#45;&gt;Node85 -->
<g id="edge11" class="edge"><title>Node76&#45;&gt;Node85</title>
<path fill="none" stroke="midnightblue" d="M79.544,-35.3196C95.9606,-30.1852 114.599,-24.3559 129.85,-19.5859"/>
<polygon fill="midnightblue" stroke="midnightblue" points="78.1589,-32.0855 69.6596,-38.411 80.2485,-38.7664 78.1589,-32.0855"/>
</g>
<!-- Node78 -->
<g id="node3" class="node"><title>Node78</title>
<g id="a_node3"><a xlink:href="hydra_8h.html#a6789381bce7d1c316df8ecf04b47a607" target="_top" xlink:title="hydro_force">
<polygon fill="white" stroke="black" points="247,-38.5 247,-57.5 315,-57.5 315,-38.5 247,-38.5"/>
<text text-anchor="middle" x="281" y="-45.5" font-family="Helvetica,sans-Serif" font-size="10.00">hydro_force</text>
</a>
</g>
</g>
<!-- Node77&#45;&gt;Node78 -->
<g id="edge2" class="edge"><title>Node77&#45;&gt;Node78</title>
<path fill="none" stroke="midnightblue" d="M201.709,-73.3196C217.585,-68.1852 235.61,-62.3559 250.359,-57.5859"/>
<polygon fill="midnightblue" stroke="midnightblue" points="200.588,-70.0036 192.15,-76.411 202.742,-76.664 200.588,-70.0036"/>
</g>
<!-- Node79 -->
<g id="node4" class="node"><title>Node79</title>
<g id="a_node4"><a xlink:href="run_8c.html#abb80d08f4d52f4a7bdf28d1cecfead5b" target="_top" xlink:title="compute_accelerations">
<polygon fill="white" stroke="black" points="351,-38.5 351,-57.5 468,-57.5 468,-38.5 351,-38.5"/>
<text text-anchor="middle" x="409.5" y="-45.5" font-family="Helvetica,sans-Serif" font-size="10.00">compute_accelerations</text>
</a>
</g>
</g>
<!-- Node78&#45;&gt;Node79 -->
<g id="edge3" class="edge"><title>Node78&#45;&gt;Node79</title>
<path fill="none" stroke="midnightblue" d="M325.243,-48C333.388,-48 342.027,-48 350.537,-48"/>
<polygon fill="midnightblue" stroke="midnightblue" points="325.236,-44.5001 315.236,-48 325.236,-51.5001 325.236,-44.5001"/>
</g>
<!-- Node80 -->
<g id="node5" class="node"><title>Node80</title>
<g id="a_node5"><a xlink:href="run_8c.html#a05e0ffe612d44e6d7f3a9ae5b9df56a2" target="_top" xlink:title="run">
<polygon fill="white" stroke="black" points="504,-38.5 504,-57.5 534,-57.5 534,-38.5 504,-38.5"/>
<text text-anchor="middle" x="519" y="-45.5" font-family="Helvetica,sans-Serif" font-size="10.00">run</text>
</a>
</g>
</g>
<!-- Node79&#45;&gt;Node80 -->
<g id="edge4" class="edge"><title>Node79&#45;&gt;Node80</title>
<path fill="none" stroke="midnightblue" d="M478.254,-48C487.899,-48 496.897,-48 503.884,-48"/>
<polygon fill="midnightblue" stroke="midnightblue" points="478.027,-44.5001 468.027,-48 478.026,-51.5001 478.027,-44.5001"/>
</g>
<!-- Node81 -->
<g id="node6" class="node"><title>Node81</title>
<g id="a_node6"><a xlink:href="main_8c.html#a3c04138a5bfe5d72780bb7e82a18e627" target="_top" xlink:title="main">
<polygon fill="white" stroke="black" points="570,-57.5 570,-76.5 608,-76.5 608,-57.5 570,-57.5"/>
<text text-anchor="middle" x="589" y="-64.5" font-family="Helvetica,sans-Serif" font-size="10.00">main</text>
</a>
</g>
</g>
<!-- Node80&#45;&gt;Node81 -->
<g id="edge5" class="edge"><title>Node80&#45;&gt;Node81</title>
<path fill="none" stroke="midnightblue" d="M543.853,-54.6647C552.37,-57.0447 561.823,-59.686 569.79,-61.9119"/>
<polygon fill="midnightblue" stroke="midnightblue" points="544.663,-51.257 534.09,-51.9368 542.779,-57.9988 544.663,-51.257"/>
</g>
<!-- Node82 -->
<g id="node7" class="node"><title>Node82</title>
<g id="a_node7"><a xlink:href="walltime_8h.html#a76d2135b612766d4d665748454b879d6" target="_top" xlink:title="walltime_report">
<polygon fill="white" stroke="black" points="644,-57.5 644,-76.5 727,-76.5 727,-57.5 644,-57.5"/>
<text text-anchor="middle" x="685.5" y="-64.5" font-family="Helvetica,sans-Serif" font-size="10.00">walltime_report</text>
</a>
</g>
</g>
<!-- Node81&#45;&gt;Node82 -->
<g id="edge6" class="edge"><title>Node81&#45;&gt;Node82</title>
<path fill="none" stroke="midnightblue" d="M618.411,-67C626.347,-67 635.132,-67 643.635,-67"/>
<polygon fill="midnightblue" stroke="midnightblue" points="618.221,-63.5001 608.221,-67 618.221,-70.5001 618.221,-63.5001"/>
</g>
<!-- Node83 -->
<g id="node8" class="node"><title>Node83</title>
<g id="a_node8"><a xlink:href="run_8c.html#adc59e9ee1517e4e690694a64ab6a59d2" target="_top" xlink:title="write_cpu_log">
<polygon fill="white" stroke="black" points="763,-38.5 763,-57.5 840,-57.5 840,-38.5 763,-38.5"/>
<text text-anchor="middle" x="801.5" y="-45.5" font-family="Helvetica,sans-Serif" font-size="10.00">write_cpu_log</text>
</a>
</g>
</g>
<!-- Node82&#45;&gt;Node83 -->
<g id="edge7" class="edge"><title>Node82&#45;&gt;Node83</title>
<path fill="none" stroke="midnightblue" d="M737.031,-58.5782C745.684,-57.1359 754.54,-55.6601 762.785,-54.2859"/>
<polygon fill="midnightblue" stroke="midnightblue" points="736.302,-55.1514 727.013,-60.2478 737.452,-62.0561 736.302,-55.1514"/>
</g>
<!-- Node83&#45;&gt;Node80 -->
<g id="edge8" class="edge"><title>Node83&#45;&gt;Node80</title>
<path fill="none" stroke="midnightblue" d="M752.727,-48C687.488,-48 574.088,-48 534.296,-48"/>
<polygon fill="midnightblue" stroke="midnightblue" points="752.765,-51.5001 762.765,-48 752.765,-44.5001 752.765,-51.5001"/>
</g>
<!-- Node84&#45;&gt;Node78 -->
<g id="edge10" class="edge"><title>Node84&#45;&gt;Node78</title>
<path fill="none" stroke="midnightblue" d="M209.308,-48C221.812,-48 235.071,-48 246.685,-48"/>
<polygon fill="midnightblue" stroke="midnightblue" points="209.034,-44.5001 199.034,-48 209.034,-51.5001 209.034,-44.5001"/>
</g>
<!-- Node85&#45;&gt;Node78 -->
<g id="edge12" class="edge"><title>Node85&#45;&gt;Node78</title>
<path fill="none" stroke="midnightblue" d="M201.709,-22.6804C217.585,-27.8148 235.61,-33.6441 250.359,-38.4141"/>
<polygon fill="midnightblue" stroke="midnightblue" points="202.742,-19.336 192.15,-19.589 200.588,-25.9964 202.742,-19.336"/>
</g>
</g>
</svg>
