<?xml version="1.0" encoding="UTF-8" standalone="no"?>
<!DOCTYPE svg PUBLIC "-//W3C//DTD SVG 1.1//EN"
 "http://www.w3.org/Graphics/SVG/1.1/DTD/svg11.dtd">
<!-- Generated by graphviz version 2.50.0 (0)
 -->
<!-- Title: libgadget/hydra.c Pages: 1 -->
<svg width="2050pt" height="588pt"
 viewBox="0.00 0.00 2050.00 588.00" xmlns="http://www.w3.org/2000/svg" xmlns:xlink="http://www.w3.org/1999/xlink">
<g id="graph0" class="graph" transform="scale(1 1) rotate(0) translate(4 584)">
<title>libgadget/hydra.c</title>
<polygon fill="white" stroke="transparent" points="-4,4 -4,-584 2046,-584 2046,4 -4,4"/>
<!-- Node1 -->
<g id="node1" class="node">
<title>Node1</title>
<g id="a_node1"><a xlink:title="Computation of SPH forces and rate of entropy generation.">
<polygon fill="#bfbfbf" stroke="black" points="1497.5,-560.5 1497.5,-579.5 1598.5,-579.5 1598.5,-560.5 1497.5,-560.5"/>
<text text-anchor="middle" x="1548" y="-567.5" font-family="Helvetica,sans-Serif" font-size="10.00">libgadget/hydra.c</text>
</a>
</g>
</g>
<!-- Node2 -->
<g id="node2" class="node">
<title>Node2</title>
<g id="a_node2"><a xlink:title=" ">
<polygon fill="white" stroke="#bfbfbf" points="54,-56.5 54,-75.5 98,-75.5 98,-56.5 54,-56.5"/>
<text text-anchor="middle" x="76" y="-63.5" font-family="Helvetica,sans-Serif" font-size="10.00">mpi.h</text>
</a>
</g>
</g>
<!-- Node1&#45;&gt;Node2 -->
<g id="edge1" class="edge">
<title>Node1&#45;&gt;Node2</title>
<path fill="none" stroke="midnightblue" d="M1497.24,-568.45C1292.61,-566.03 527.87,-555.08 288,-524 157.87,-507.14 0,-590.22 0,-459 0,-459 0,-459 0,-177 0,-137.28 33.96,-101.5 56.48,-82.15"/>
<polygon fill="midnightblue" stroke="midnightblue" points="58.98,-84.63 64.46,-75.57 54.52,-79.24 58.98,-84.63"/>
</g>
<!-- Node3 -->
<g id="node3" class="node">
<title>Node3</title>
<g id="a_node3"><a xlink:title=" ">
<polygon fill="white" stroke="#bfbfbf" points="1493,-56.5 1493,-75.5 1543,-75.5 1543,-56.5 1493,-56.5"/>
<text text-anchor="middle" x="1518" y="-63.5" font-family="Helvetica,sans-Serif" font-size="10.00">stdio.h</text>
</a>
</g>
</g>
<!-- Node1&#45;&gt;Node3 -->
<g id="edge2" class="edge">
<title>Node1&#45;&gt;Node3</title>
<path fill="none" stroke="midnightblue" d="M1557.7,-560.25C1572.04,-547.44 1599.92,-523.05 1625,-504 1702.83,-444.88 1779,-444.74 1779,-347 1779,-347 1779,-347 1779,-177 1779,-80.18 1624.61,-67.22 1553.32,-66.4"/>
<polygon fill="midnightblue" stroke="midnightblue" points="1553.04,-62.9 1543.03,-66.36 1553.01,-69.9 1553.04,-62.9"/>
</g>
<!-- Node4 -->
<g id="node4" class="node">
<title>Node4</title>
<g id="a_node4"><a xlink:title=" ">
<polygon fill="white" stroke="#bfbfbf" points="1633.5,-504.5 1633.5,-523.5 1686.5,-523.5 1686.5,-504.5 1633.5,-504.5"/>
<text text-anchor="middle" x="1660" y="-511.5" font-family="Helvetica,sans-Serif" font-size="10.00">stdlib.h</text>
</a>
</g>
</g>
<!-- Node1&#45;&gt;Node4 -->
<g id="edge3" class="edge">
<title>Node1&#45;&gt;Node4</title>
<path fill="none" stroke="midnightblue" d="M1565.99,-560.32C1584.04,-551.62 1612.05,-538.12 1632.8,-528.11"/>
<polygon fill="midnightblue" stroke="midnightblue" points="1634.56,-531.15 1642.05,-523.65 1631.52,-524.84 1634.56,-531.15"/>
</g>
<!-- Node5 -->
<g id="node5" class="node">
<title>Node5</title>
<g id="a_node5"><a xlink:href="string_8h.html" target="_top" xlink:title=" ">
<polygon fill="white" stroke="black" points="104.5,-112.5 104.5,-131.5 157.5,-131.5 157.5,-112.5 104.5,-112.5"/>
<text text-anchor="middle" x="131" y="-119.5" font-family="Helvetica,sans-Serif" font-size="10.00">string.h</text>
</a>
</g>
</g>
<!-- Node1&#45;&gt;Node5 -->
<g id="edge4" class="edge">
<title>Node1&#45;&gt;Node5</title>
<path fill="none" stroke="midnightblue" d="M1497.38,-567.82C1242.75,-561.58 114,-529.89 114,-459 114,-459 114,-459 114,-233 114,-200.58 121.3,-163.42 126.33,-141.64"/>
<polygon fill="midnightblue" stroke="midnightblue" points="129.77,-142.31 128.71,-131.77 122.97,-140.67 129.77,-142.31"/>
</g>
<!-- Node7 -->
<g id="node7" class="node">
<title>Node7</title>
<g id="a_node7"><a xlink:title=" ">
<polygon fill="white" stroke="#bfbfbf" points="1704.5,-504.5 1704.5,-523.5 1755.5,-523.5 1755.5,-504.5 1704.5,-504.5"/>
<text text-anchor="middle" x="1730" y="-511.5" font-family="Helvetica,sans-Serif" font-size="10.00">math.h</text>
</a>
</g>
</g>
<!-- Node1&#45;&gt;Node7 -->
<g id="edge6" class="edge">
<title>Node1&#45;&gt;Node7</title>
<path fill="none" stroke="midnightblue" d="M1576.84,-560.44C1608.77,-550.97 1660.26,-535.69 1694.6,-525.5"/>
<polygon fill="midnightblue" stroke="midnightblue" points="1695.65,-528.84 1704.24,-522.64 1693.66,-522.13 1695.65,-528.84"/>
</g>
<!-- Node8 -->
<g id="node8" class="node">
<title>Node8</title>
<g id="a_node8"><a xlink:title=" ">
<polygon fill="white" stroke="#bfbfbf" points="1774,-504.5 1774,-523.5 1862,-523.5 1862,-504.5 1774,-504.5"/>
<text text-anchor="middle" x="1818" y="-511.5" font-family="Helvetica,sans-Serif" font-size="10.00">gsl/gsl_math.h</text>
</a>
</g>
</g>
<!-- Node1&#45;&gt;Node8 -->
<g id="edge7" class="edge">
<title>Node1&#45;&gt;Node8</title>
<path fill="none" stroke="midnightblue" d="M1590.78,-560.44C1638.18,-550.96 1714.63,-535.67 1765.58,-525.48"/>
<polygon fill="midnightblue" stroke="midnightblue" points="1766.3,-528.91 1775.42,-523.52 1764.93,-522.05 1766.3,-528.91"/>
</g>
<!-- Node9 -->
<g id="node9" class="node">
<title>Node9</title>
<g id="a_node9"><a xlink:href="physconst_8h.html" target="_top" xlink:title=" ">
<polygon fill="white" stroke="black" points="1880.5,-504.5 1880.5,-523.5 1955.5,-523.5 1955.5,-504.5 1880.5,-504.5"/>
<text text-anchor="middle" x="1918" y="-511.5" font-family="Helvetica,sans-Serif" font-size="10.00">physconst.h</text>
</a>
</g>
</g>
<!-- Node1&#45;&gt;Node9 -->
<g id="edge8" class="edge">
<title>Node1&#45;&gt;Node9</title>
<path fill="none" stroke="midnightblue" d="M1598.75,-562.74C1660.48,-554.94 1768.07,-540.78 1870.43,-524.02"/>
<polygon fill="midnightblue" stroke="midnightblue" points="1871.02,-527.47 1880.32,-522.39 1869.88,-520.56 1871.02,-527.47"/>
</g>
<!-- Node10 -->
<g id="node10" class="node">
<title>Node10</title>
<g id="a_node10"><a xlink:href="walltime_8h.html" target="_top" xlink:title=" ">
<polygon fill="white" stroke="black" points="1974,-504.5 1974,-523.5 2042,-523.5 2042,-504.5 1974,-504.5"/>
<text text-anchor="middle" x="2008" y="-511.5" font-family="Helvetica,sans-Serif" font-size="10.00">walltime.h</text>
</a>
</g>
</g>
<!-- Node1&#45;&gt;Node10 -->
<g id="edge9" class="edge">
<title>Node1&#45;&gt;Node10</title>
<path fill="none" stroke="midnightblue" d="M1598.6,-565.16C1675.43,-558.98 1826.28,-545.45 1963.9,-524.03"/>
<polygon fill="midnightblue" stroke="midnightblue" points="1964.45,-527.49 1973.79,-522.48 1963.37,-520.58 1964.45,-527.49"/>
</g>
<!-- Node11 -->
<g id="node11" class="node">
<title>Node11</title>
<g id="a_node11"><a xlink:href="slotsmanager_8h.html" target="_top" xlink:title=" ">
<polygon fill="white" stroke="black" points="897,-224.5 897,-243.5 989,-243.5 989,-224.5 897,-224.5"/>
<text text-anchor="middle" x="943" y="-231.5" font-family="Helvetica,sans-Serif" font-size="10.00">slotsmanager.h</text>
</a>
</g>
</g>
<!-- Node1&#45;&gt;Node11 -->
<g id="edge10" class="edge">
<title>Node1&#45;&gt;Node11</title>
<path fill="none" stroke="midnightblue" d="M1497.3,-566.57C1333.79,-558.09 831,-526.49 831,-459 831,-459 831,-459 831,-345 831,-298.61 880.51,-265.28 913.69,-248.15"/>
<polygon fill="midnightblue" stroke="midnightblue" points="915.57,-251.13 922.98,-243.56 912.46,-244.86 915.57,-251.13"/>
</g>
<!-- Node12 -->
<g id="node12" class="node">
<title>Node12</title>
<g id="a_node12"><a xlink:href="utils_8h.html" target="_top" xlink:title=" ">
<polygon fill="white" stroke="black" points="729.5,-168.5 729.5,-187.5 776.5,-187.5 776.5,-168.5 729.5,-168.5"/>
<text text-anchor="middle" x="753" y="-175.5" font-family="Helvetica,sans-Serif" font-size="10.00">utils.h</text>
</a>
</g>
</g>
<!-- Node1&#45;&gt;Node12 -->
<g id="edge83" class="edge">
<title>Node1&#45;&gt;Node12</title>
<path fill="none" stroke="midnightblue" d="M1497.1,-567.72C1367,-564.08 1024.81,-552.05 915,-524 847.75,-506.82 773,-528.41 773,-459 773,-459 773,-459 773,-289 773,-256.44 764.41,-219.32 758.49,-197.59"/>
<polygon fill="midnightblue" stroke="midnightblue" points="761.79,-196.41 755.7,-187.74 755.06,-198.32 761.79,-196.41"/>
</g>
<!-- Node27 -->
<g id="node27" class="node">
<title>Node27</title>
<g id="a_node27"><a xlink:href="treewalk_8h.html" target="_top" xlink:title=" ">
<polygon fill="white" stroke="black" points="1219,-448.5 1219,-467.5 1287,-467.5 1287,-448.5 1219,-448.5"/>
<text text-anchor="middle" x="1253" y="-455.5" font-family="Helvetica,sans-Serif" font-size="10.00">treewalk.h</text>
</a>
</g>
</g>
<!-- Node1&#45;&gt;Node27 -->
<g id="edge43" class="edge">
<title>Node1&#45;&gt;Node27</title>
<path fill="none" stroke="midnightblue" d="M1522.89,-560.45C1497.02,-551.57 1455.56,-537.17 1420,-524 1372.27,-506.33 1317.36,-484.7 1283.92,-471.39"/>
<polygon fill="midnightblue" stroke="midnightblue" points="1284.85,-467.99 1274.27,-467.54 1282.26,-474.49 1284.85,-467.99"/>
</g>
<!-- Node35 -->
<g id="node35" class="node">
<title>Node35</title>
<g id="a_node35"><a xlink:href="density_8h.html" target="_top" xlink:title=" ">
<polygon fill="white" stroke="black" points="1588,-448.5 1588,-467.5 1648,-467.5 1648,-448.5 1588,-448.5"/>
<text text-anchor="middle" x="1618" y="-455.5" font-family="Helvetica,sans-Serif" font-size="10.00">density.h</text>
</a>
</g>
</g>
<!-- Node1&#45;&gt;Node35 -->
<g id="edge61" class="edge">
<title>Node1&#45;&gt;Node35</title>
<path fill="none" stroke="midnightblue" d="M1553.49,-560.37C1564.99,-542.3 1591.8,-500.18 1606.99,-476.31"/>
<polygon fill="midnightblue" stroke="midnightblue" points="1610.12,-477.91 1612.53,-467.59 1604.21,-474.15 1610.12,-477.91"/>
</g>
<!-- Node40 -->
<g id="node40" class="node">
<title>Node40</title>
<g id="a_node40"><a xlink:href="hydra_8h.html" target="_top" xlink:title=" ">
<polygon fill="white" stroke="black" points="1428.5,-504.5 1428.5,-523.5 1481.5,-523.5 1481.5,-504.5 1428.5,-504.5"/>
<text text-anchor="middle" x="1455" y="-511.5" font-family="Helvetica,sans-Serif" font-size="10.00">hydra.h</text>
</a>
</g>
</g>
<!-- Node1&#45;&gt;Node40 -->
<g id="edge74" class="edge">
<title>Node1&#45;&gt;Node40</title>
<path fill="none" stroke="midnightblue" d="M1533.06,-560.32C1518.41,-551.82 1495.87,-538.73 1478.76,-528.8"/>
<polygon fill="midnightblue" stroke="midnightblue" points="1480.31,-525.65 1469.9,-523.65 1476.8,-531.7 1480.31,-525.65"/>
</g>
<!-- Node41 -->
<g id="node41" class="node">
<title>Node41</title>
<g id="a_node41"><a xlink:href="winds_8h.html" target="_top" xlink:title=" ">
<polygon fill="white" stroke="black" points="1516,-448.5 1516,-467.5 1570,-467.5 1570,-448.5 1516,-448.5"/>
<text text-anchor="middle" x="1543" y="-455.5" font-family="Helvetica,sans-Serif" font-size="10.00">winds.h</text>
</a>
</g>
</g>
<!-- Node1&#45;&gt;Node41 -->
<g id="edge80" class="edge">
<title>Node1&#45;&gt;Node41</title>
<path fill="none" stroke="midnightblue" d="M1547.61,-560.37C1546.8,-542.62 1544.94,-501.67 1543.85,-477.6"/>
<polygon fill="midnightblue" stroke="midnightblue" points="1547.34,-477.42 1543.39,-467.59 1540.35,-477.74 1547.34,-477.42"/>
</g>
<!-- Node6 -->
<g id="node6" class="node">
<title>Node6</title>
<g id="a_node6"><a xlink:title=" ">
<polygon fill="white" stroke="#bfbfbf" points="151,-56.5 151,-75.5 207,-75.5 207,-56.5 151,-56.5"/>
<text text-anchor="middle" x="179" y="-63.5" font-family="Helvetica,sans-Serif" font-size="10.00">stdarg.h</text>
</a>
</g>
</g>
<!-- Node5&#45;&gt;Node6 -->
<g id="edge5" class="edge">
<title>Node5&#45;&gt;Node6</title>
<path fill="none" stroke="midnightblue" d="M138.93,-112.08C145.85,-104.3 156.07,-92.8 164.45,-83.37"/>
<polygon fill="midnightblue" stroke="midnightblue" points="167.19,-85.55 171.22,-75.75 161.96,-80.9 167.19,-85.55"/>
</g>
<!-- Node11&#45;&gt;Node2 -->
<g id="edge11" class="edge">
<title>Node11&#45;&gt;Node2</title>
<path fill="none" stroke="midnightblue" d="M896.86,-230.45C728.9,-220.78 156.71,-184.24 95,-132 81.7,-120.74 77.43,-100.73 76.2,-85.88"/>
<polygon fill="midnightblue" stroke="midnightblue" points="79.69,-85.59 75.74,-75.75 72.69,-85.9 79.69,-85.59"/>
</g>
<!-- Node11&#45;&gt;Node12 -->
<g id="edge12" class="edge">
<title>Node11&#45;&gt;Node12</title>
<path fill="none" stroke="midnightblue" d="M912.89,-224.44C878.51,-214.67 822.41,-198.73 786.63,-188.56"/>
<polygon fill="midnightblue" stroke="midnightblue" points="787.24,-185.09 776.66,-185.73 785.32,-191.83 787.24,-185.09"/>
</g>
<!-- Node25 -->
<g id="node25" class="node">
<title>Node25</title>
<g id="a_node25"><a xlink:href="types_8h.html" target="_top" xlink:title=" ">
<polygon fill="white" stroke="black" points="1108.5,-112.5 1108.5,-131.5 1161.5,-131.5 1161.5,-112.5 1108.5,-112.5"/>
<text text-anchor="middle" x="1135" y="-119.5" font-family="Helvetica,sans-Serif" font-size="10.00">types.h</text>
</a>
</g>
</g>
<!-- Node11&#45;&gt;Node25 -->
<g id="edge38" class="edge">
<title>Node11&#45;&gt;Node25</title>
<path fill="none" stroke="midnightblue" d="M958.07,-224.37C991.29,-205.33 1071.09,-159.62 1111.17,-136.65"/>
<polygon fill="midnightblue" stroke="midnightblue" points="1113.07,-139.6 1120,-131.59 1109.59,-133.53 1113.07,-139.6"/>
</g>
<!-- Node26 -->
<g id="node26" class="node">
<title>Node26</title>
<g id="a_node26"><a xlink:href="partmanager_8h.html" target="_top" xlink:title=" ">
<polygon fill="white" stroke="black" points="901,-168.5 901,-187.5 989,-187.5 989,-168.5 901,-168.5"/>
<text text-anchor="middle" x="945" y="-175.5" font-family="Helvetica,sans-Serif" font-size="10.00">partmanager.h</text>
</a>
</g>
</g>
<!-- Node11&#45;&gt;Node26 -->
<g id="edge40" class="edge">
<title>Node11&#45;&gt;Node26</title>
<path fill="none" stroke="midnightblue" d="M943.33,-224.08C943.59,-217.01 943.97,-206.86 944.3,-197.99"/>
<polygon fill="midnightblue" stroke="midnightblue" points="947.8,-197.87 944.68,-187.75 940.81,-197.61 947.8,-197.87"/>
</g>
<!-- Node12&#45;&gt;Node2 -->
<g id="edge16" class="edge">
<title>Node12&#45;&gt;Node2</title>
<path fill="none" stroke="midnightblue" d="M729.22,-176.28C637.36,-173.31 305.86,-160.77 205,-132 186.27,-126.66 183.38,-120.8 166,-112 144.7,-101.21 120.49,-89.12 102.54,-80.18"/>
<polygon fill="midnightblue" stroke="midnightblue" points="103.79,-76.9 93.28,-75.57 100.67,-83.16 103.79,-76.9"/>
</g>
<!-- Node12&#45;&gt;Node3 -->
<g id="edge13" class="edge">
<title>Node12&#45;&gt;Node3</title>
<path fill="none" stroke="midnightblue" d="M776.64,-169.36C820.41,-155.55 917.23,-126.51 1001,-112 1094.15,-95.86 1381.99,-75.94 1482.74,-69.29"/>
<polygon fill="midnightblue" stroke="midnightblue" points="1483.24,-72.76 1492.99,-68.61 1482.78,-65.78 1483.24,-72.76"/>
</g>
<!-- Node12&#45;&gt;Node5 -->
<g id="edge33" class="edge">
<title>Node12&#45;&gt;Node5</title>
<path fill="none" stroke="midnightblue" d="M729.35,-176.34C650.11,-173.9 386.93,-163.76 172,-132 170.7,-131.81 169.38,-131.6 168.06,-131.38"/>
<polygon fill="midnightblue" stroke="midnightblue" points="168.28,-127.86 157.81,-129.44 166.99,-134.74 168.28,-127.86"/>
</g>
<!-- Node13 -->
<g id="node13" class="node">
<title>Node13</title>
<g id="a_node13"><a xlink:title=" ">
<polygon fill="white" stroke="#bfbfbf" points="941.5,-56.5 941.5,-75.5 994.5,-75.5 994.5,-56.5 941.5,-56.5"/>
<text text-anchor="middle" x="968" y="-63.5" font-family="Helvetica,sans-Serif" font-size="10.00">stdint.h</text>
</a>
</g>
</g>
<!-- Node12&#45;&gt;Node13 -->
<g id="edge14" class="edge">
<title>Node12&#45;&gt;Node13</title>
<path fill="none" stroke="midnightblue" d="M772.29,-168.38C791.8,-159.56 822.73,-145.32 849,-132 882.55,-114.99 920.58,-93.89 944.43,-80.44"/>
<polygon fill="midnightblue" stroke="midnightblue" points="946.15,-83.48 953.13,-75.51 942.7,-77.39 946.15,-83.48"/>
</g>
<!-- Node14 -->
<g id="node14" class="node">
<title>Node14</title>
<g id="a_node14"><a xlink:title=" ">
<polygon fill="white" stroke="#bfbfbf" points="782,-0.5 782,-19.5 838,-19.5 838,-0.5 782,-0.5"/>
<text text-anchor="middle" x="810" y="-7.5" font-family="Helvetica,sans-Serif" font-size="10.00">stddef.h</text>
</a>
</g>
</g>
<!-- Node12&#45;&gt;Node14 -->
<g id="edge15" class="edge">
<title>Node12&#45;&gt;Node14</title>
<path fill="none" stroke="midnightblue" d="M729.4,-176.81C641.58,-175.68 340.95,-167.74 385,-112 433.21,-50.99 676.88,-22.92 771.94,-14.16"/>
<polygon fill="midnightblue" stroke="midnightblue" points="772.34,-17.64 781.99,-13.25 771.72,-10.66 772.34,-17.64"/>
</g>
<!-- Node15 -->
<g id="node15" class="node">
<title>Node15</title>
<g id="a_node15"><a xlink:href="peano_8h.html" target="_top" xlink:title=" ">
<polygon fill="white" stroke="black" points="1010,-112.5 1010,-131.5 1090,-131.5 1090,-112.5 1010,-112.5"/>
<text text-anchor="middle" x="1050" y="-119.5" font-family="Helvetica,sans-Serif" font-size="10.00">utils/peano.h</text>
</a>
</g>
</g>
<!-- Node12&#45;&gt;Node15 -->
<g id="edge17" class="edge">
<title>Node12&#45;&gt;Node15</title>
<path fill="none" stroke="midnightblue" d="M776.55,-172.72C824.61,-163.98 934.89,-143.93 999.76,-132.13"/>
<polygon fill="midnightblue" stroke="midnightblue" points="1000.56,-135.55 1009.77,-130.31 999.31,-128.66 1000.56,-135.55"/>
</g>
<!-- Node16 -->
<g id="node16" class="node">
<title>Node16</title>
<g id="a_node16"><a xlink:href="memory_8h.html" target="_top" xlink:title=" ">
<polygon fill="white" stroke="black" points="707.5,-56.5 707.5,-75.5 796.5,-75.5 796.5,-56.5 707.5,-56.5"/>
<text text-anchor="middle" x="752" y="-63.5" font-family="Helvetica,sans-Serif" font-size="10.00">utils/memory.h</text>
</a>
</g>
</g>
<!-- Node12&#45;&gt;Node16 -->
<g id="edge20" class="edge">
<title>Node12&#45;&gt;Node16</title>
<path fill="none" stroke="midnightblue" d="M771,-168.33C792.04,-156.89 822.61,-135.45 811,-112 804.4,-98.66 791.74,-88.19 779.83,-80.73"/>
<polygon fill="midnightblue" stroke="midnightblue" points="781.39,-77.59 770.98,-75.6 777.88,-83.64 781.39,-77.59"/>
</g>
<!-- Node17 -->
<g id="node17" class="node">
<title>Node17</title>
<g id="a_node17"><a xlink:href="mymalloc_8h.html" target="_top" xlink:title=" ">
<polygon fill="white" stroke="black" points="704,-112.5 704,-131.5 802,-131.5 802,-112.5 704,-112.5"/>
<text text-anchor="middle" x="753" y="-119.5" font-family="Helvetica,sans-Serif" font-size="10.00">utils/mymalloc.h</text>
</a>
</g>
</g>
<!-- Node12&#45;&gt;Node17 -->
<g id="edge22" class="edge">
<title>Node12&#45;&gt;Node17</title>
<path fill="none" stroke="midnightblue" d="M753,-168.08C753,-161.01 753,-150.86 753,-141.99"/>
<polygon fill="midnightblue" stroke="midnightblue" points="756.5,-141.75 753,-131.75 749.5,-141.75 756.5,-141.75"/>
</g>
<!-- Node18 -->
<g id="node18" class="node">
<title>Node18</title>
<g id="a_node18"><a xlink:href="paramset_8h.html" target="_top" xlink:title=" ">
<polygon fill="white" stroke="black" points="1470,-112.5 1470,-131.5 1566,-131.5 1566,-112.5 1470,-112.5"/>
<text text-anchor="middle" x="1518" y="-119.5" font-family="Helvetica,sans-Serif" font-size="10.00">utils/paramset.h</text>
</a>
</g>
</g>
<!-- Node12&#45;&gt;Node18 -->
<g id="edge24" class="edge">
<title>Node12&#45;&gt;Node18</title>
<path fill="none" stroke="midnightblue" d="M776.61,-175.46C804.26,-173.66 851.46,-170.6 892,-168 1141.54,-152.03 1207.41,-159.58 1459.63,-132.05"/>
<polygon fill="midnightblue" stroke="midnightblue" points="1460.28,-135.5 1469.84,-130.93 1459.52,-128.54 1460.28,-135.5"/>
</g>
<!-- Node19 -->
<g id="node19" class="node">
<title>Node19</title>
<g id="a_node19"><a xlink:href="event_8h.html" target="_top" xlink:title=" ">
<polygon fill="white" stroke="black" points="394.5,-112.5 394.5,-131.5 471.5,-131.5 471.5,-112.5 394.5,-112.5"/>
<text text-anchor="middle" x="433" y="-119.5" font-family="Helvetica,sans-Serif" font-size="10.00">utils/event.h</text>
</a>
</g>
</g>
<!-- Node12&#45;&gt;Node19 -->
<g id="edge26" class="edge">
<title>Node12&#45;&gt;Node19</title>
<path fill="none" stroke="midnightblue" d="M729.23,-173.29C683.36,-166.1 579.2,-149.53 481.73,-132.28"/>
<polygon fill="midnightblue" stroke="midnightblue" points="482.17,-128.8 471.71,-130.5 480.95,-135.69 482.17,-128.8"/>
</g>
<!-- Node20 -->
<g id="node20" class="node">
<title>Node20</title>
<g id="a_node20"><a xlink:href="openmpsort_8h.html" target="_top" xlink:title=" ">
<polygon fill="white" stroke="black" points="815,-56.5 815,-75.5 923,-75.5 923,-56.5 815,-56.5"/>
<text text-anchor="middle" x="869" y="-63.5" font-family="Helvetica,sans-Serif" font-size="10.00">utils/openmpsort.h</text>
</a>
</g>
</g>
<!-- Node12&#45;&gt;Node20 -->
<g id="edge27" class="edge">
<title>Node12&#45;&gt;Node20</title>
<path fill="none" stroke="midnightblue" d="M771.92,-168.49C787.91,-160.64 810.73,-147.83 827,-132 841.1,-118.28 852.81,-98.98 860.26,-84.98"/>
<polygon fill="midnightblue" stroke="midnightblue" points="863.47,-86.38 864.89,-75.88 857.24,-83.2 863.47,-86.38"/>
</g>
<!-- Node21 -->
<g id="node21" class="node">
<title>Node21</title>
<g id="a_node21"><a xlink:href="system_8h.html" target="_top" xlink:title=" ">
<polygon fill="white" stroke="black" points="214,-112.5 214,-131.5 300,-131.5 300,-112.5 214,-112.5"/>
<text text-anchor="middle" x="257" y="-119.5" font-family="Helvetica,sans-Serif" font-size="10.00">utils/system.h</text>
</a>
</g>
</g>
<!-- Node12&#45;&gt;Node21 -->
<g id="edge29" class="edge">
<title>Node12&#45;&gt;Node21</title>
<path fill="none" stroke="midnightblue" d="M729.15,-175.02C663.07,-169.42 472.03,-152.56 314,-132 312.74,-131.84 311.47,-131.67 310.19,-131.49"/>
<polygon fill="midnightblue" stroke="midnightblue" points="310.62,-128.02 300.22,-130.08 309.63,-134.95 310.62,-128.02"/>
</g>
<!-- Node22 -->
<g id="node22" class="node">
<title>Node22</title>
<g id="a_node22"><a xlink:href="endrun_8h.html" target="_top" xlink:title=" ">
<polygon fill="white" stroke="black" points="489.5,-112.5 489.5,-131.5 572.5,-131.5 572.5,-112.5 489.5,-112.5"/>
<text text-anchor="middle" x="531" y="-119.5" font-family="Helvetica,sans-Serif" font-size="10.00">utils/endrun.h</text>
</a>
</g>
</g>
<!-- Node12&#45;&gt;Node22 -->
<g id="edge34" class="edge">
<title>Node12&#45;&gt;Node22</title>
<path fill="none" stroke="midnightblue" d="M729.24,-171.22C692.77,-162.35 622.35,-145.22 576.01,-133.95"/>
<polygon fill="midnightblue" stroke="midnightblue" points="576.77,-130.53 566.22,-131.57 575.11,-137.33 576.77,-130.53"/>
</g>
<!-- Node23 -->
<g id="node23" class="node">
<title>Node23</title>
<g id="a_node23"><a xlink:href="interp_8h.html" target="_top" xlink:title=" ">
<polygon fill="white" stroke="black" points="260,-56.5 260,-75.5 338,-75.5 338,-56.5 260,-56.5"/>
<text text-anchor="middle" x="299" y="-63.5" font-family="Helvetica,sans-Serif" font-size="10.00">utils/interp.h</text>
</a>
</g>
</g>
<!-- Node12&#45;&gt;Node23 -->
<g id="edge35" class="edge">
<title>Node12&#45;&gt;Node23</title>
<path fill="none" stroke="midnightblue" d="M729.48,-176.66C653.81,-175.22 417.81,-167.89 352,-132 332.29,-121.25 317.09,-99.86 308.12,-84.56"/>
<polygon fill="midnightblue" stroke="midnightblue" points="311.05,-82.61 303.14,-75.55 304.92,-85.99 311.05,-82.61"/>
</g>
<!-- Node24 -->
<g id="node24" class="node">
<title>Node24</title>
<g id="a_node24"><a xlink:href="spinlocks_8h.html" target="_top" xlink:title=" ">
<polygon fill="white" stroke="black" points="590.5,-112.5 590.5,-131.5 685.5,-131.5 685.5,-112.5 590.5,-112.5"/>
<text text-anchor="middle" x="638" y="-119.5" font-family="Helvetica,sans-Serif" font-size="10.00">utils/spinlocks.h</text>
</a>
</g>
</g>
<!-- Node12&#45;&gt;Node24 -->
<g id="edge37" class="edge">
<title>Node12&#45;&gt;Node24</title>
<path fill="none" stroke="midnightblue" d="M734.78,-168.44C716.1,-159.68 686.84,-145.94 665.38,-135.86"/>
<polygon fill="midnightblue" stroke="midnightblue" points="666.68,-132.6 656.14,-131.52 663.7,-138.93 666.68,-132.6"/>
</g>
<!-- Node15&#45;&gt;Node13 -->
<g id="edge19" class="edge">
<title>Node15&#45;&gt;Node13</title>
<path fill="none" stroke="midnightblue" d="M1036.83,-112.32C1024.15,-103.98 1004.77,-91.21 989.79,-81.35"/>
<polygon fill="midnightblue" stroke="midnightblue" points="991.42,-78.23 981.14,-75.65 987.57,-84.08 991.42,-78.23"/>
</g>
<!-- Node15&#45;&gt;Node14 -->
<g id="edge18" class="edge">
<title>Node15&#45;&gt;Node14</title>
<path fill="none" stroke="midnightblue" d="M1046.35,-112.29C1039.96,-98.15 1025.35,-70.34 1004,-56 956.64,-24.19 889.73,-14.69 848.15,-11.96"/>
<polygon fill="midnightblue" stroke="midnightblue" points="848.33,-8.46 838.15,-11.4 847.94,-15.45 848.33,-8.46"/>
</g>
<!-- Node16&#45;&gt;Node14 -->
<g id="edge21" class="edge">
<title>Node16&#45;&gt;Node14</title>
<path fill="none" stroke="midnightblue" d="M761.32,-56.32C769.89,-48.34 782.81,-36.31 793.19,-26.65"/>
<polygon fill="midnightblue" stroke="midnightblue" points="795.58,-29.21 800.51,-19.83 790.81,-24.09 795.58,-29.21"/>
</g>
<!-- Node17&#45;&gt;Node16 -->
<g id="edge23" class="edge">
<title>Node17&#45;&gt;Node16</title>
<path fill="none" stroke="midnightblue" d="M752.83,-112.08C752.7,-105.01 752.52,-94.86 752.35,-85.99"/>
<polygon fill="midnightblue" stroke="midnightblue" points="755.85,-85.68 752.16,-75.75 748.85,-85.81 755.85,-85.68"/>
</g>
<!-- Node18&#45;&gt;Node3 -->
<g id="edge25" class="edge">
<title>Node18&#45;&gt;Node3</title>
<path fill="none" stroke="midnightblue" d="M1518,-112.08C1518,-105.01 1518,-94.86 1518,-85.99"/>
<polygon fill="midnightblue" stroke="midnightblue" points="1521.5,-85.75 1518,-75.75 1514.5,-85.75 1521.5,-85.75"/>
</g>
<!-- Node20&#45;&gt;Node14 -->
<g id="edge28" class="edge">
<title>Node20&#45;&gt;Node14</title>
<path fill="none" stroke="midnightblue" d="M859.52,-56.32C850.8,-48.34 837.66,-36.31 827.1,-26.65"/>
<polygon fill="midnightblue" stroke="midnightblue" points="829.39,-24 819.65,-19.83 824.67,-29.17 829.39,-24"/>
</g>
<!-- Node21&#45;&gt;Node2 -->
<g id="edge31" class="edge">
<title>Node21&#45;&gt;Node2</title>
<path fill="none" stroke="midnightblue" d="M228.32,-112.44C195.62,-102.69 142.29,-86.78 108.19,-76.6"/>
<polygon fill="midnightblue" stroke="midnightblue" points="108.85,-73.15 98.27,-73.64 106.85,-79.86 108.85,-73.15"/>
</g>
<!-- Node21&#45;&gt;Node6 -->
<g id="edge32" class="edge">
<title>Node21&#45;&gt;Node6</title>
<path fill="none" stroke="midnightblue" d="M244.47,-112.32C232.41,-103.98 213.97,-91.21 199.73,-81.35"/>
<polygon fill="midnightblue" stroke="midnightblue" points="201.72,-78.47 191.5,-75.65 197.73,-84.22 201.72,-78.47"/>
</g>
<!-- Node21&#45;&gt;Node13 -->
<g id="edge30" class="edge">
<title>Node21&#45;&gt;Node13</title>
<path fill="none" stroke="midnightblue" d="M300.25,-117.91C325.05,-116.15 356.77,-113.92 385,-112 624.75,-95.68 689.53,-113.2 931.22,-75.81"/>
<polygon fill="midnightblue" stroke="midnightblue" points="932.03,-79.22 941.37,-74.22 930.95,-72.31 932.03,-79.22"/>
</g>
<!-- Node23&#45;&gt;Node14 -->
<g id="edge36" class="edge">
<title>Node23&#45;&gt;Node14</title>
<path fill="none" stroke="midnightblue" d="M338.03,-58.05C342.73,-57.31 347.47,-56.61 352,-56 506.86,-35.27 692.38,-19.95 771.35,-13.87"/>
<polygon fill="midnightblue" stroke="midnightblue" points="772.07,-17.33 781.78,-13.08 771.54,-10.35 772.07,-17.33"/>
</g>
<!-- Node25&#45;&gt;Node13 -->
<g id="edge39" class="edge">
<title>Node25&#45;&gt;Node13</title>
<path fill="none" stroke="midnightblue" d="M1108.54,-112.44C1080.32,-103.32 1035.46,-88.81 1004.03,-78.65"/>
<polygon fill="midnightblue" stroke="midnightblue" points="1004.93,-75.26 994.34,-75.52 1002.78,-81.92 1004.93,-75.26"/>
</g>
<!-- Node26&#45;&gt;Node15 -->
<g id="edge42" class="edge">
<title>Node26&#45;&gt;Node15</title>
<path fill="none" stroke="midnightblue" d="M961.87,-168.32C978.71,-159.66 1004.81,-146.24 1024.24,-136.25"/>
<polygon fill="midnightblue" stroke="midnightblue" points="1025.88,-139.34 1033.17,-131.65 1022.68,-133.12 1025.88,-139.34"/>
</g>
<!-- Node26&#45;&gt;Node25 -->
<g id="edge41" class="edge">
<title>Node26&#45;&gt;Node25</title>
<path fill="none" stroke="midnightblue" d="M975.11,-168.44C1008.53,-158.94 1062.5,-143.61 1098.35,-133.41"/>
<polygon fill="midnightblue" stroke="midnightblue" points="1099.74,-136.66 1108.41,-130.56 1097.83,-129.93 1099.74,-136.66"/>
</g>
<!-- Node27&#45;&gt;Node13 -->
<g id="edge44" class="edge">
<title>Node27&#45;&gt;Node13</title>
<path fill="none" stroke="midnightblue" d="M1218.92,-454.57C1124.94,-446.93 869,-419.47 869,-347 869,-347 869,-347 869,-289 869,-234.26 869.86,-218.06 892,-168 906.85,-134.43 934.73,-101.62 952.28,-82.9"/>
<polygon fill="midnightblue" stroke="midnightblue" points="954.93,-85.2 959.32,-75.56 949.87,-80.35 954.93,-85.2"/>
</g>
<!-- Node27&#45;&gt;Node18 -->
<g id="edge45" class="edge">
<title>Node27&#45;&gt;Node18</title>
<path fill="none" stroke="midnightblue" d="M1262.57,-448.45C1277.34,-435.47 1306.8,-410.36 1334,-392 1403.27,-345.24 1451.78,-369.63 1498,-300 1530.73,-250.7 1525.7,-176.2 1521.08,-141.72"/>
<polygon fill="midnightblue" stroke="midnightblue" points="1524.51,-141.03 1519.58,-131.66 1517.59,-142.07 1524.51,-141.03"/>
</g>
<!-- Node28 -->
<g id="node28" class="node">
<title>Node28</title>
<g id="a_node28"><a xlink:href="forcetree_8h.html" target="_top" xlink:title=" ">
<polygon fill="white" stroke="black" points="1343,-392.5 1343,-411.5 1413,-411.5 1413,-392.5 1343,-392.5"/>
<text text-anchor="middle" x="1378" y="-399.5" font-family="Helvetica,sans-Serif" font-size="10.00">forcetree.h</text>
</a>
</g>
</g>
<!-- Node27&#45;&gt;Node28 -->
<g id="edge46" class="edge">
<title>Node27&#45;&gt;Node28</title>
<path fill="none" stroke="midnightblue" d="M1272.81,-448.44C1293.29,-439.6 1325.48,-425.69 1348.86,-415.59"/>
<polygon fill="midnightblue" stroke="midnightblue" points="1350.49,-418.7 1358.29,-411.52 1347.72,-412.27 1350.49,-418.7"/>
</g>
<!-- Node28&#45;&gt;Node25 -->
<g id="edge47" class="edge">
<title>Node28&#45;&gt;Node25</title>
<path fill="none" stroke="midnightblue" d="M1370.46,-392.38C1336.16,-353.14 1194.56,-191.14 1149.11,-139.15"/>
<polygon fill="midnightblue" stroke="midnightblue" points="1151.67,-136.75 1142.45,-131.52 1146.4,-141.36 1151.67,-136.75"/>
</g>
<!-- Node29 -->
<g id="node29" class="node">
<title>Node29</title>
<g id="a_node29"><a xlink:href="domain_8h.html" target="_top" xlink:title=" ">
<polygon fill="white" stroke="black" points="1139,-336.5 1139,-355.5 1201,-355.5 1201,-336.5 1139,-336.5"/>
<text text-anchor="middle" x="1170" y="-343.5" font-family="Helvetica,sans-Serif" font-size="10.00">domain.h</text>
</a>
</g>
</g>
<!-- Node28&#45;&gt;Node29 -->
<g id="edge48" class="edge">
<title>Node28&#45;&gt;Node29</title>
<path fill="none" stroke="midnightblue" d="M1345.04,-392.44C1308.69,-383.01 1250.14,-367.81 1210.89,-357.62"/>
<polygon fill="midnightblue" stroke="midnightblue" points="1211.66,-354.2 1201.11,-355.08 1209.91,-360.98 1211.66,-354.2"/>
</g>
<!-- Node29&#45;&gt;Node2 -->
<g id="edge49" class="edge">
<title>Node29&#45;&gt;Node2</title>
<path fill="none" stroke="midnightblue" d="M1138.72,-342.29C1018.22,-331.32 573.15,-286.09 220,-188 155.03,-169.95 118.15,-186.9 79,-132 69.48,-118.65 69.79,-99.53 71.85,-85.49"/>
<polygon fill="midnightblue" stroke="midnightblue" points="75.31,-85.99 73.71,-75.52 68.43,-84.7 75.31,-85.99"/>
</g>
<!-- Node29&#45;&gt;Node15 -->
<g id="edge50" class="edge">
<title>Node29&#45;&gt;Node15</title>
<path fill="none" stroke="midnightblue" d="M1165.3,-336.3C1147.49,-303.36 1084,-185.9 1059.62,-140.81"/>
<polygon fill="midnightblue" stroke="midnightblue" points="1062.64,-139.02 1054.8,-131.88 1056.48,-142.35 1062.64,-139.02"/>
</g>
<!-- Node29&#45;&gt;Node18 -->
<g id="edge51" class="edge">
<title>Node29&#45;&gt;Node18</title>
<path fill="none" stroke="midnightblue" d="M1186.42,-336.33C1218.05,-319.46 1289.41,-280.69 1347,-244 1403.39,-208.08 1466.98,-161.34 1498.35,-137.86"/>
<polygon fill="midnightblue" stroke="midnightblue" points="1500.76,-140.42 1506.65,-131.61 1496.56,-134.82 1500.76,-140.42"/>
</g>
<!-- Node30 -->
<g id="node30" class="node">
<title>Node30</title>
<g id="a_node30"><a xlink:href="drift_8h.html" target="_top" xlink:title=" ">
<polygon fill="white" stroke="black" points="1155.5,-280.5 1155.5,-299.5 1200.5,-299.5 1200.5,-280.5 1155.5,-280.5"/>
<text text-anchor="middle" x="1178" y="-287.5" font-family="Helvetica,sans-Serif" font-size="10.00">drift.h</text>
</a>
</g>
</g>
<!-- Node29&#45;&gt;Node30 -->
<g id="edge52" class="edge">
<title>Node29&#45;&gt;Node30</title>
<path fill="none" stroke="midnightblue" d="M1171.32,-336.08C1172.38,-328.93 1173.91,-318.64 1175.23,-309.69"/>
<polygon fill="midnightblue" stroke="midnightblue" points="1178.7,-310.16 1176.7,-299.75 1171.78,-309.13 1178.7,-310.16"/>
</g>
<!-- Node30&#45;&gt;Node11 -->
<g id="edge60" class="edge">
<title>Node30&#45;&gt;Node11</title>
<path fill="none" stroke="midnightblue" d="M1155.47,-283.82C1117.53,-275.1 1040.14,-257.32 989.97,-245.79"/>
<polygon fill="midnightblue" stroke="midnightblue" points="990.54,-242.33 980.01,-243.5 988.97,-249.16 990.54,-242.33"/>
</g>
<!-- Node30&#45;&gt;Node25 -->
<g id="edge58" class="edge">
<title>Node30&#45;&gt;Node25</title>
<path fill="none" stroke="midnightblue" d="M1175.69,-280.08C1168.92,-253.95 1149.04,-177.21 1139.81,-141.58"/>
<polygon fill="midnightblue" stroke="midnightblue" points="1143.12,-140.37 1137.22,-131.57 1136.34,-142.13 1143.12,-140.37"/>
</g>
<!-- Node30&#45;&gt;Node26 -->
<g id="edge59" class="edge">
<title>Node30&#45;&gt;Node26</title>
<path fill="none" stroke="midnightblue" d="M1159.72,-280.37C1118.97,-261.13 1020.51,-214.65 972.39,-191.93"/>
<polygon fill="midnightblue" stroke="midnightblue" points="973.74,-188.7 963.2,-187.59 970.75,-195.03 973.74,-188.7"/>
</g>
<!-- Node31 -->
<g id="node31" class="node">
<title>Node31</title>
<g id="a_node31"><a xlink:href="cosmology_8h.html" target="_top" xlink:title=" ">
<polygon fill="white" stroke="black" points="1235.5,-168.5 1235.5,-187.5 1312.5,-187.5 1312.5,-168.5 1235.5,-168.5"/>
<text text-anchor="middle" x="1274" y="-175.5" font-family="Helvetica,sans-Serif" font-size="10.00">cosmology.h</text>
</a>
</g>
</g>
<!-- Node30&#45;&gt;Node31 -->
<g id="edge53" class="edge">
<title>Node30&#45;&gt;Node31</title>
<path fill="none" stroke="midnightblue" d="M1185.53,-280.37C1201.52,-262.05 1239.05,-219.05 1259.72,-195.36"/>
<polygon fill="midnightblue" stroke="midnightblue" points="1262.56,-197.43 1266.5,-187.59 1257.29,-192.82 1262.56,-197.43"/>
</g>
<!-- Node31&#45;&gt;Node14 -->
<g id="edge54" class="edge">
<title>Node31&#45;&gt;Node14</title>
<path fill="none" stroke="midnightblue" d="M1262.07,-168.42C1243.33,-155.17 1205.53,-129.46 1171,-112 1110.09,-81.2 1093.44,-75.41 1028,-56 966.09,-37.63 892.12,-24.07 848.21,-16.87"/>
<polygon fill="midnightblue" stroke="midnightblue" points="848.68,-13.4 838.25,-15.26 847.56,-20.31 848.68,-13.4"/>
</g>
<!-- Node32 -->
<g id="node32" class="node">
<title>Node32</title>
<g id="a_node32"><a xlink:href="omega__nu__single_8h.html" target="_top" xlink:title=" ">
<polygon fill="white" stroke="black" points="1218.5,-112.5 1218.5,-131.5 1329.5,-131.5 1329.5,-112.5 1218.5,-112.5"/>
<text text-anchor="middle" x="1274" y="-119.5" font-family="Helvetica,sans-Serif" font-size="10.00">omega_nu_single.h</text>
</a>
</g>
</g>
<!-- Node31&#45;&gt;Node32 -->
<g id="edge55" class="edge">
<title>Node31&#45;&gt;Node32</title>
<path fill="none" stroke="midnightblue" d="M1274,-168.08C1274,-161.01 1274,-150.86 1274,-141.99"/>
<polygon fill="midnightblue" stroke="midnightblue" points="1277.5,-141.75 1274,-131.75 1270.5,-141.75 1277.5,-141.75"/>
</g>
<!-- Node34 -->
<g id="node34" class="node">
<title>Node34</title>
<g id="a_node34"><a xlink:href="unitsystem_8h.html" target="_top" xlink:title=" ">
<polygon fill="white" stroke="black" points="1348,-112.5 1348,-131.5 1452,-131.5 1452,-112.5 1348,-112.5"/>
<text text-anchor="middle" x="1400" y="-119.5" font-family="Helvetica,sans-Serif" font-size="10.00">utils/unitsystem.h</text>
</a>
</g>
</g>
<!-- Node31&#45;&gt;Node34 -->
<g id="edge57" class="edge">
<title>Node31&#45;&gt;Node34</title>
<path fill="none" stroke="midnightblue" d="M1293.97,-168.44C1314.61,-159.6 1347.06,-145.69 1370.63,-135.59"/>
<polygon fill="midnightblue" stroke="midnightblue" points="1372.32,-138.67 1380.13,-131.52 1369.56,-132.24 1372.32,-138.67"/>
</g>
<!-- Node33 -->
<g id="node33" class="node">
<title>Node33</title>
<g id="a_node33"><a xlink:title=" ">
<polygon fill="white" stroke="#bfbfbf" points="1228.5,-56.5 1228.5,-75.5 1319.5,-75.5 1319.5,-56.5 1228.5,-56.5"/>
<text text-anchor="middle" x="1274" y="-63.5" font-family="Helvetica,sans-Serif" font-size="10.00">gsl/gsl_interp.h</text>
</a>
</g>
</g>
<!-- Node32&#45;&gt;Node33 -->
<g id="edge56" class="edge">
<title>Node32&#45;&gt;Node33</title>
<path fill="none" stroke="midnightblue" d="M1274,-112.08C1274,-105.01 1274,-94.86 1274,-85.99"/>
<polygon fill="midnightblue" stroke="midnightblue" points="1277.5,-85.75 1274,-75.75 1270.5,-85.75 1277.5,-85.75"/>
</g>
<!-- Node35&#45;&gt;Node18 -->
<g id="edge73" class="edge">
<title>Node35&#45;&gt;Node18</title>
<path fill="none" stroke="midnightblue" d="M1619.7,-448.48C1623.22,-430.06 1631,-385.08 1631,-347 1631,-347 1631,-347 1631,-233 1631,-186.4 1581.05,-153.14 1547.57,-136.08"/>
<polygon fill="midnightblue" stroke="midnightblue" points="1548.72,-132.75 1538.2,-131.51 1545.65,-139.04 1548.72,-132.75"/>
</g>
<!-- Node35&#45;&gt;Node28 -->
<g id="edge62" class="edge">
<title>Node35&#45;&gt;Node28</title>
<path fill="none" stroke="midnightblue" d="M1587.77,-450C1584.81,-449.32 1581.85,-448.65 1579,-448 1525.48,-435.83 1463.88,-422.08 1423.13,-413.01"/>
<polygon fill="midnightblue" stroke="midnightblue" points="1423.76,-409.57 1413.24,-410.82 1422.24,-416.4 1423.76,-409.57"/>
</g>
<!-- Node36 -->
<g id="node36" class="node">
<title>Node36</title>
<g id="a_node36"><a xlink:href="timestep_8h.html" target="_top" xlink:title=" ">
<polygon fill="white" stroke="black" points="1419.5,-280.5 1419.5,-299.5 1488.5,-299.5 1488.5,-280.5 1419.5,-280.5"/>
<text text-anchor="middle" x="1454" y="-287.5" font-family="Helvetica,sans-Serif" font-size="10.00">timestep.h</text>
</a>
</g>
</g>
<!-- Node35&#45;&gt;Node36 -->
<g id="edge63" class="edge">
<title>Node35&#45;&gt;Node36</title>
<path fill="none" stroke="midnightblue" d="M1609.18,-448.08C1582.7,-421.27 1503.59,-341.19 1469.69,-306.89"/>
<polygon fill="midnightblue" stroke="midnightblue" points="1471.98,-304.22 1462.46,-299.57 1467,-309.14 1471.98,-304.22"/>
</g>
<!-- Node39 -->
<g id="node39" class="node">
<title>Node39</title>
<g id="a_node39"><a xlink:href="densitykernel_8h.html" target="_top" xlink:title=" ">
<polygon fill="white" stroke="black" points="1659,-392.5 1659,-411.5 1751,-411.5 1751,-392.5 1659,-392.5"/>
<text text-anchor="middle" x="1705" y="-399.5" font-family="Helvetica,sans-Serif" font-size="10.00">densitykernel.h</text>
</a>
</g>
</g>
<!-- Node35&#45;&gt;Node39 -->
<g id="edge72" class="edge">
<title>Node35&#45;&gt;Node39</title>
<path fill="none" stroke="midnightblue" d="M1631.98,-448.32C1645.55,-439.9 1666.38,-426.97 1682.32,-417.07"/>
<polygon fill="midnightblue" stroke="midnightblue" points="1684.41,-419.9 1691.06,-411.65 1680.71,-413.95 1684.41,-419.9"/>
</g>
<!-- Node36&#45;&gt;Node18 -->
<g id="edge64" class="edge">
<title>Node36&#45;&gt;Node18</title>
<path fill="none" stroke="midnightblue" d="M1457.44,-280.08C1467.56,-253.83 1497.36,-176.55 1511.02,-141.12"/>
<polygon fill="midnightblue" stroke="midnightblue" points="1514.36,-142.16 1514.7,-131.57 1507.83,-139.64 1514.36,-142.16"/>
</g>
<!-- Node37 -->
<g id="node37" class="node">
<title>Node37</title>
<g id="a_node37"><a xlink:href="timebinmgr_8h.html" target="_top" xlink:title=" ">
<polygon fill="white" stroke="black" points="1331,-168.5 1331,-187.5 1413,-187.5 1413,-168.5 1331,-168.5"/>
<text text-anchor="middle" x="1372" y="-175.5" font-family="Helvetica,sans-Serif" font-size="10.00">timebinmgr.h</text>
</a>
</g>
</g>
<!-- Node36&#45;&gt;Node37 -->
<g id="edge65" class="edge">
<title>Node36&#45;&gt;Node37</title>
<path fill="none" stroke="midnightblue" d="M1447.57,-280.37C1433.97,-262.14 1402.14,-219.43 1384.43,-195.68"/>
<polygon fill="midnightblue" stroke="midnightblue" points="1387.19,-193.52 1378.4,-187.59 1381.58,-197.7 1387.19,-193.52"/>
</g>
<!-- Node38 -->
<g id="node38" class="node">
<title>Node38</title>
<g id="a_node38"><a xlink:href="timefac_8h.html" target="_top" xlink:title=" ">
<polygon fill="white" stroke="black" points="1274.5,-224.5 1274.5,-243.5 1337.5,-243.5 1337.5,-224.5 1274.5,-224.5"/>
<text text-anchor="middle" x="1306" y="-231.5" font-family="Helvetica,sans-Serif" font-size="10.00">timefac.h</text>
</a>
</g>
</g>
<!-- Node36&#45;&gt;Node38 -->
<g id="edge68" class="edge">
<title>Node36&#45;&gt;Node38</title>
<path fill="none" stroke="midnightblue" d="M1430.55,-280.44C1405.87,-271.44 1366.81,-257.19 1339.02,-247.05"/>
<polygon fill="midnightblue" stroke="midnightblue" points="1339.94,-243.66 1329.34,-243.52 1337.54,-250.23 1339.94,-243.66"/>
</g>
<!-- Node37&#45;&gt;Node18 -->
<g id="edge67" class="edge">
<title>Node37&#45;&gt;Node18</title>
<path fill="none" stroke="midnightblue" d="M1395.13,-168.44C1419.48,-159.44 1458.01,-145.19 1485.42,-135.05"/>
<polygon fill="midnightblue" stroke="midnightblue" points="1486.81,-138.27 1494.97,-131.52 1484.38,-131.7 1486.81,-138.27"/>
</g>
<!-- Node37&#45;&gt;Node25 -->
<g id="edge66" class="edge">
<title>Node37&#45;&gt;Node25</title>
<path fill="none" stroke="midnightblue" d="M1334.45,-168.44C1289.76,-158.26 1215.67,-141.38 1171.47,-131.31"/>
<polygon fill="midnightblue" stroke="midnightblue" points="1172.24,-127.9 1161.71,-129.09 1170.69,-134.72 1172.24,-127.9"/>
</g>
<!-- Node38&#45;&gt;Node25 -->
<g id="edge69" class="edge">
<title>Node38&#45;&gt;Node25</title>
<path fill="none" stroke="midnightblue" d="M1289.99,-224.48C1273.84,-215.74 1248.31,-201.55 1227,-188 1201.33,-171.68 1172.89,-151.19 1154.52,-137.63"/>
<polygon fill="midnightblue" stroke="midnightblue" points="1156.49,-134.73 1146.37,-131.58 1152.31,-140.35 1156.49,-134.73"/>
</g>
<!-- Node38&#45;&gt;Node31 -->
<g id="edge70" class="edge">
<title>Node38&#45;&gt;Node31</title>
<path fill="none" stroke="midnightblue" d="M1300.72,-224.08C1296.29,-216.61 1289.84,-205.72 1284.38,-196.52"/>
<polygon fill="midnightblue" stroke="midnightblue" points="1287.29,-194.57 1279.19,-187.75 1281.27,-198.14 1287.29,-194.57"/>
</g>
<!-- Node38&#45;&gt;Node37 -->
<g id="edge71" class="edge">
<title>Node38&#45;&gt;Node37</title>
<path fill="none" stroke="midnightblue" d="M1316.6,-224.32C1326.46,-216.26 1341.35,-204.08 1353.22,-194.37"/>
<polygon fill="midnightblue" stroke="midnightblue" points="1355.68,-196.88 1361.2,-187.83 1351.25,-191.46 1355.68,-196.88"/>
</g>
<!-- Node40&#45;&gt;Node18 -->
<g id="edge79" class="edge">
<title>Node40&#45;&gt;Node18</title>
<path fill="none" stroke="midnightblue" d="M1458.39,-504.36C1471.2,-471.25 1516.81,-349.14 1535,-244 1540.76,-210.69 1545.02,-201.07 1538,-168 1536,-158.59 1531.9,-148.76 1527.93,-140.7"/>
<polygon fill="midnightblue" stroke="midnightblue" points="1530.89,-138.81 1523.13,-131.59 1524.69,-142.07 1530.89,-138.81"/>
</g>
<!-- Node40&#45;&gt;Node25 -->
<g id="edge76" class="edge">
<title>Node40&#45;&gt;Node25</title>
<path fill="none" stroke="midnightblue" d="M1434.04,-504.4C1364.97,-475.88 1147.9,-384.53 1130,-356 1086.87,-287.27 1114.38,-183.24 1128.33,-141.39"/>
<polygon fill="midnightblue" stroke="midnightblue" points="1131.63,-142.53 1131.6,-131.94 1125.02,-140.24 1131.63,-142.53"/>
</g>
<!-- Node40&#45;&gt;Node28 -->
<g id="edge75" class="edge">
<title>Node40&#45;&gt;Node28</title>
<path fill="none" stroke="midnightblue" d="M1448.96,-504.37C1436.25,-486.22 1406.56,-443.8 1389.89,-419.99"/>
<polygon fill="midnightblue" stroke="midnightblue" points="1392.62,-417.78 1384.01,-411.59 1386.88,-421.79 1392.62,-417.78"/>
</g>
<!-- Node40&#45;&gt;Node35 -->
<g id="edge78" class="edge">
<title>Node40&#45;&gt;Node35</title>
<path fill="none" stroke="midnightblue" d="M1480.83,-504.44C1508.25,-495.36 1551.78,-480.94 1582.43,-470.78"/>
<polygon fill="midnightblue" stroke="midnightblue" points="1583.9,-473.98 1592.29,-467.52 1581.7,-467.34 1583.9,-473.98"/>
</g>
<!-- Node40&#45;&gt;Node36 -->
<g id="edge77" class="edge">
<title>Node40&#45;&gt;Node36</title>
<path fill="none" stroke="midnightblue" d="M1454.96,-504.3C1454.81,-471.63 1454.29,-355.87 1454.09,-309.96"/>
<polygon fill="midnightblue" stroke="midnightblue" points="1457.59,-309.87 1454.04,-299.88 1450.59,-309.9 1457.59,-309.87"/>
</g>
<!-- Node41&#45;&gt;Node18 -->
<g id="edge82" class="edge">
<title>Node41&#45;&gt;Node18</title>
<path fill="none" stroke="midnightblue" d="M1546.69,-448.46C1561.67,-412.41 1615,-269.94 1569,-168 1563.38,-155.56 1552.44,-145.17 1542.12,-137.53"/>
<polygon fill="midnightblue" stroke="midnightblue" points="1543.96,-134.54 1533.73,-131.76 1539.99,-140.31 1543.96,-134.54"/>
</g>
<!-- Node41&#45;&gt;Node28 -->
<g id="edge81" class="edge">
<title>Node41&#45;&gt;Node28</title>
<path fill="none" stroke="midnightblue" d="M1516.86,-448.44C1488.98,-439.32 1444.65,-424.81 1413.6,-414.65"/>
<polygon fill="midnightblue" stroke="midnightblue" points="1414.62,-411.3 1404.02,-411.52 1412.44,-417.95 1414.62,-411.3"/>
</g>
</g>
</svg>
