<?xml version="1.0" encoding="UTF-8" standalone="no"?>
<!DOCTYPE svg PUBLIC "-//W3C//DTD SVG 1.1//EN"
 "http://www.w3.org/Graphics/SVG/1.1/DTD/svg11.dtd">
<!-- Generated by graphviz version 2.38.0 (20140413.2041)
 -->
<!-- Title: hydro_haswork Pages: 1 -->
<svg width="720pt" height="47pt"
 viewBox="0.00 0.00 720.00 47.00" xmlns="http://www.w3.org/2000/svg" xmlns:xlink="http://www.w3.org/1999/xlink">
<g id="graph0" class="graph" transform="scale(1 1) rotate(0) translate(4 43)">
<title>hydro_haswork</title>
<polygon fill="white" stroke="none" points="-4,4 -4,-43 716,-43 716,4 -4,4"/>
<!-- Node95 -->
<g id="node1" class="node"><title>Node95</title>
<polygon fill="#bfbfbf" stroke="black" points="0,-0.5 0,-19.5 83,-19.5 83,-0.5 0,-0.5"/>
<text text-anchor="middle" x="41.5" y="-7.5" font-family="Helvetica,sans-Serif" font-size="10.00">hydro_haswork</text>
</g>
<!-- Node96 -->
<g id="node2" class="node"><title>Node96</title>
<g id="a_node2"><a xlink:href="hydra_8h.html#a6789381bce7d1c316df8ecf04b47a607" target="_top" xlink:title="hydro_force">
<polygon fill="white" stroke="black" points="119,-0.5 119,-19.5 187,-19.5 187,-0.5 119,-0.5"/>
<text text-anchor="middle" x="153" y="-7.5" font-family="Helvetica,sans-Serif" font-size="10.00">hydro_force</text>
</a>
</g>
</g>
<!-- Node95&#45;&gt;Node96 -->
<g id="edge1" class="edge"><title>Node95&#45;&gt;Node96</title>
<path fill="none" stroke="midnightblue" d="M93.2882,-10C101.915,-10 110.673,-10 118.7,-10"/>
<polygon fill="midnightblue" stroke="midnightblue" points="93.2738,-6.5001 83.2738,-10 93.2737,-13.5001 93.2738,-6.5001"/>
</g>
<!-- Node97 -->
<g id="node3" class="node"><title>Node97</title>
<g id="a_node3"><a xlink:href="run_8c.html#abb80d08f4d52f4a7bdf28d1cecfead5b" target="_top" xlink:title="compute_accelerations">
<polygon fill="white" stroke="black" points="223,-0.5 223,-19.5 340,-19.5 340,-0.5 223,-0.5"/>
<text text-anchor="middle" x="281.5" y="-7.5" font-family="Helvetica,sans-Serif" font-size="10.00">compute_accelerations</text>
</a>
</g>
</g>
<!-- Node96&#45;&gt;Node97 -->
<g id="edge2" class="edge"><title>Node96&#45;&gt;Node97</title>
<path fill="none" stroke="midnightblue" d="M197.243,-10C205.388,-10 214.027,-10 222.537,-10"/>
<polygon fill="midnightblue" stroke="midnightblue" points="197.236,-6.5001 187.236,-10 197.236,-13.5001 197.236,-6.5001"/>
</g>
<!-- Node98 -->
<g id="node4" class="node"><title>Node98</title>
<g id="a_node4"><a xlink:href="run_8c.html#a05e0ffe612d44e6d7f3a9ae5b9df56a2" target="_top" xlink:title="run">
<polygon fill="white" stroke="black" points="376,-0.5 376,-19.5 406,-19.5 406,-0.5 376,-0.5"/>
<text text-anchor="middle" x="391" y="-7.5" font-family="Helvetica,sans-Serif" font-size="10.00">run</text>
</a>
</g>
</g>
<!-- Node97&#45;&gt;Node98 -->
<g id="edge3" class="edge"><title>Node97&#45;&gt;Node98</title>
<path fill="none" stroke="midnightblue" d="M350.254,-10C359.899,-10 368.897,-10 375.884,-10"/>
<polygon fill="midnightblue" stroke="midnightblue" points="350.027,-6.5001 340.027,-10 350.026,-13.5001 350.027,-6.5001"/>
</g>
<!-- Node99 -->
<g id="node5" class="node"><title>Node99</title>
<g id="a_node5"><a xlink:href="main_8c.html#a3c04138a5bfe5d72780bb7e82a18e627" target="_top" xlink:title="main">
<polygon fill="white" stroke="black" points="442,-19.5 442,-38.5 480,-38.5 480,-19.5 442,-19.5"/>
<text text-anchor="middle" x="461" y="-26.5" font-family="Helvetica,sans-Serif" font-size="10.00">main</text>
</a>
</g>
</g>
<!-- Node98&#45;&gt;Node99 -->
<g id="edge4" class="edge"><title>Node98&#45;&gt;Node99</title>
<path fill="none" stroke="midnightblue" d="M415.853,-16.6647C424.37,-19.0447 433.823,-21.686 441.79,-23.9119"/>
<polygon fill="midnightblue" stroke="midnightblue" points="416.663,-13.257 406.09,-13.9368 414.779,-19.9988 416.663,-13.257"/>
</g>
<!-- Node100 -->
<g id="node6" class="node"><title>Node100</title>
<g id="a_node6"><a xlink:href="walltime_8h.html#a76d2135b612766d4d665748454b879d6" target="_top" xlink:title="walltime_report">
<polygon fill="white" stroke="black" points="516,-19.5 516,-38.5 599,-38.5 599,-19.5 516,-19.5"/>
<text text-anchor="middle" x="557.5" y="-26.5" font-family="Helvetica,sans-Serif" font-size="10.00">walltime_report</text>
</a>
</g>
</g>
<!-- Node99&#45;&gt;Node100 -->
<g id="edge5" class="edge"><title>Node99&#45;&gt;Node100</title>
<path fill="none" stroke="midnightblue" d="M490.411,-29C498.347,-29 507.132,-29 515.635,-29"/>
<polygon fill="midnightblue" stroke="midnightblue" points="490.221,-25.5001 480.221,-29 490.221,-32.5001 490.221,-25.5001"/>
</g>
<!-- Node101 -->
<g id="node7" class="node"><title>Node101</title>
<g id="a_node7"><a xlink:href="run_8c.html#adc59e9ee1517e4e690694a64ab6a59d2" target="_top" xlink:title="write_cpu_log">
<polygon fill="white" stroke="black" points="635,-0.5 635,-19.5 712,-19.5 712,-0.5 635,-0.5"/>
<text text-anchor="middle" x="673.5" y="-7.5" font-family="Helvetica,sans-Serif" font-size="10.00">write_cpu_log</text>
</a>
</g>
</g>
<!-- Node100&#45;&gt;Node101 -->
<g id="edge6" class="edge"><title>Node100&#45;&gt;Node101</title>
<path fill="none" stroke="midnightblue" d="M609.031,-20.5782C617.684,-19.1359 626.54,-17.6601 634.785,-16.2859"/>
<polygon fill="midnightblue" stroke="midnightblue" points="608.302,-17.1514 599.013,-22.2478 609.452,-24.0561 608.302,-17.1514"/>
</g>
<!-- Node101&#45;&gt;Node98 -->
<g id="edge7" class="edge"><title>Node101&#45;&gt;Node98</title>
<path fill="none" stroke="midnightblue" d="M624.727,-10C559.488,-10 446.088,-10 406.296,-10"/>
<polygon fill="midnightblue" stroke="midnightblue" points="624.765,-13.5001 634.765,-10 624.765,-6.5001 624.765,-13.5001"/>
</g>
</g>
</svg>
