<?xml version="1.0" encoding="UTF-8" standalone="no"?>
<!DOCTYPE svg PUBLIC "-//W3C//DTD SVG 1.1//EN"
 "http://www.w3.org/Graphics/SVG/1.1/DTD/svg11.dtd">
<!-- Generated by graphviz version 2.38.0 (20140413.2041)
 -->
<!-- Title: hydro_ngbiter Pages: 1 -->
<svg width="712pt" height="47pt"
 viewBox="0.00 0.00 712.00 47.00" xmlns="http://www.w3.org/2000/svg" xmlns:xlink="http://www.w3.org/1999/xlink">
<g id="graph0" class="graph" transform="scale(1 1) rotate(0) translate(4 43)">
<title>hydro_ngbiter</title>
<polygon fill="white" stroke="none" points="-4,4 -4,-43 708,-43 708,4 -4,4"/>
<!-- Node121 -->
<g id="node1" class="node"><title>Node121</title>
<polygon fill="#bfbfbf" stroke="black" points="0,-0.5 0,-19.5 75,-19.5 75,-0.5 0,-0.5"/>
<text text-anchor="middle" x="37.5" y="-7.5" font-family="Helvetica,sans-Serif" font-size="10.00">hydro_ngbiter</text>
</g>
<!-- Node122 -->
<g id="node2" class="node"><title>Node122</title>
<g id="a_node2"><a xlink:href="hydra_8h.html#a6789381bce7d1c316df8ecf04b47a607" target="_top" xlink:title="hydro_force">
<polygon fill="white" stroke="black" points="111,-0.5 111,-19.5 179,-19.5 179,-0.5 111,-0.5"/>
<text text-anchor="middle" x="145" y="-7.5" font-family="Helvetica,sans-Serif" font-size="10.00">hydro_force</text>
</a>
</g>
</g>
<!-- Node121&#45;&gt;Node122 -->
<g id="edge1" class="edge"><title>Node121&#45;&gt;Node122</title>
<path fill="none" stroke="midnightblue" d="M85.1635,-10C93.8709,-10 102.802,-10 110.992,-10"/>
<polygon fill="midnightblue" stroke="midnightblue" points="85.1027,-6.5001 75.1027,-10 85.1027,-13.5001 85.1027,-6.5001"/>
</g>
<!-- Node123 -->
<g id="node3" class="node"><title>Node123</title>
<g id="a_node3"><a xlink:href="run_8c.html#abb80d08f4d52f4a7bdf28d1cecfead5b" target="_top" xlink:title="compute_accelerations">
<polygon fill="white" stroke="black" points="215,-0.5 215,-19.5 332,-19.5 332,-0.5 215,-0.5"/>
<text text-anchor="middle" x="273.5" y="-7.5" font-family="Helvetica,sans-Serif" font-size="10.00">compute_accelerations</text>
</a>
</g>
</g>
<!-- Node122&#45;&gt;Node123 -->
<g id="edge2" class="edge"><title>Node122&#45;&gt;Node123</title>
<path fill="none" stroke="midnightblue" d="M189.243,-10C197.388,-10 206.027,-10 214.537,-10"/>
<polygon fill="midnightblue" stroke="midnightblue" points="189.236,-6.5001 179.236,-10 189.236,-13.5001 189.236,-6.5001"/>
</g>
<!-- Node124 -->
<g id="node4" class="node"><title>Node124</title>
<g id="a_node4"><a xlink:href="run_8c.html#a05e0ffe612d44e6d7f3a9ae5b9df56a2" target="_top" xlink:title="run">
<polygon fill="white" stroke="black" points="368,-0.5 368,-19.5 398,-19.5 398,-0.5 368,-0.5"/>
<text text-anchor="middle" x="383" y="-7.5" font-family="Helvetica,sans-Serif" font-size="10.00">run</text>
</a>
</g>
</g>
<!-- Node123&#45;&gt;Node124 -->
<g id="edge3" class="edge"><title>Node123&#45;&gt;Node124</title>
<path fill="none" stroke="midnightblue" d="M342.254,-10C351.899,-10 360.897,-10 367.884,-10"/>
<polygon fill="midnightblue" stroke="midnightblue" points="342.027,-6.5001 332.027,-10 342.026,-13.5001 342.027,-6.5001"/>
</g>
<!-- Node125 -->
<g id="node5" class="node"><title>Node125</title>
<g id="a_node5"><a xlink:href="main_8c.html#a3c04138a5bfe5d72780bb7e82a18e627" target="_top" xlink:title="main">
<polygon fill="white" stroke="black" points="434,-19.5 434,-38.5 472,-38.5 472,-19.5 434,-19.5"/>
<text text-anchor="middle" x="453" y="-26.5" font-family="Helvetica,sans-Serif" font-size="10.00">main</text>
</a>
</g>
</g>
<!-- Node124&#45;&gt;Node125 -->
<g id="edge4" class="edge"><title>Node124&#45;&gt;Node125</title>
<path fill="none" stroke="midnightblue" d="M407.853,-16.6647C416.37,-19.0447 425.823,-21.686 433.79,-23.9119"/>
<polygon fill="midnightblue" stroke="midnightblue" points="408.663,-13.257 398.09,-13.9368 406.779,-19.9988 408.663,-13.257"/>
</g>
<!-- Node126 -->
<g id="node6" class="node"><title>Node126</title>
<g id="a_node6"><a xlink:href="walltime_8h.html#a76d2135b612766d4d665748454b879d6" target="_top" xlink:title="walltime_report">
<polygon fill="white" stroke="black" points="508,-19.5 508,-38.5 591,-38.5 591,-19.5 508,-19.5"/>
<text text-anchor="middle" x="549.5" y="-26.5" font-family="Helvetica,sans-Serif" font-size="10.00">walltime_report</text>
</a>
</g>
</g>
<!-- Node125&#45;&gt;Node126 -->
<g id="edge5" class="edge"><title>Node125&#45;&gt;Node126</title>
<path fill="none" stroke="midnightblue" d="M482.411,-29C490.347,-29 499.132,-29 507.635,-29"/>
<polygon fill="midnightblue" stroke="midnightblue" points="482.221,-25.5001 472.221,-29 482.221,-32.5001 482.221,-25.5001"/>
</g>
<!-- Node127 -->
<g id="node7" class="node"><title>Node127</title>
<g id="a_node7"><a xlink:href="run_8c.html#adc59e9ee1517e4e690694a64ab6a59d2" target="_top" xlink:title="write_cpu_log">
<polygon fill="white" stroke="black" points="627,-0.5 627,-19.5 704,-19.5 704,-0.5 627,-0.5"/>
<text text-anchor="middle" x="665.5" y="-7.5" font-family="Helvetica,sans-Serif" font-size="10.00">write_cpu_log</text>
</a>
</g>
</g>
<!-- Node126&#45;&gt;Node127 -->
<g id="edge6" class="edge"><title>Node126&#45;&gt;Node127</title>
<path fill="none" stroke="midnightblue" d="M601.031,-20.5782C609.684,-19.1359 618.54,-17.6601 626.785,-16.2859"/>
<polygon fill="midnightblue" stroke="midnightblue" points="600.302,-17.1514 591.013,-22.2478 601.452,-24.0561 600.302,-17.1514"/>
</g>
<!-- Node127&#45;&gt;Node124 -->
<g id="edge7" class="edge"><title>Node127&#45;&gt;Node124</title>
<path fill="none" stroke="midnightblue" d="M616.727,-10C551.488,-10 438.088,-10 398.296,-10"/>
<polygon fill="midnightblue" stroke="midnightblue" points="616.765,-13.5001 626.765,-10 616.765,-6.5001 616.765,-13.5001"/>
</g>
</g>
</svg>
