<?xml version="1.0" encoding="UTF-8" standalone="no"?>
<!DOCTYPE svg PUBLIC "-//W3C//DTD SVG 1.1//EN"
 "http://www.w3.org/Graphics/SVG/1.1/DTD/svg11.dtd">
<!-- Generated by graphviz version 2.38.0 (20140413.2041)
 -->
<!-- Title: check_positions Pages: 1 -->
<svg width="614pt" height="47pt"
 viewBox="0.00 0.00 614.00 47.00" xmlns="http://www.w3.org/2000/svg" xmlns:xlink="http://www.w3.org/1999/xlink">
<g id="graph0" class="graph" transform="scale(1 1) rotate(0) translate(4 43)">
<title>check_positions</title>
<polygon fill="white" stroke="none" points="-4,4 -4,-43 610,-43 610,4 -4,4"/>
<!-- Node17 -->
<g id="node1" class="node"><title>Node17</title>
<polygon fill="#bfbfbf" stroke="black" points="0,-0.5 0,-19.5 87,-19.5 87,-0.5 0,-0.5"/>
<text text-anchor="middle" x="43.5" y="-7.5" font-family="Helvetica,sans-Serif" font-size="10.00">check_positions</text>
</g>
<!-- Node18 -->
<g id="node2" class="node"><title>Node18</title>
<g id="a_node2"><a xlink:href="proto_8h.html#ab080cb20bac2a1a6153a84e8cfd15374" target="_top" xlink:title="init">
<polygon fill="white" stroke="black" points="123,-0.5 123,-19.5 152,-19.5 152,-0.5 123,-0.5"/>
<text text-anchor="middle" x="137.5" y="-7.5" font-family="Helvetica,sans-Serif" font-size="10.00">init</text>
</a>
</g>
</g>
<!-- Node17&#45;&gt;Node18 -->
<g id="edge1" class="edge"><title>Node17&#45;&gt;Node18</title>
<path fill="none" stroke="midnightblue" d="M97.4353,-10C106.733,-10 115.645,-10 122.602,-10"/>
<polygon fill="midnightblue" stroke="midnightblue" points="97.268,-6.5001 87.268,-10 97.268,-13.5001 97.268,-6.5001"/>
</g>
<!-- Node19 -->
<g id="node3" class="node"><title>Node19</title>
<g id="a_node3"><a xlink:href="proto_8h.html#a74dc0e5e9eefe11fc8434b62de573146" target="_top" xlink:title="begrun">
<polygon fill="white" stroke="black" points="188,-0.5 188,-19.5 234,-19.5 234,-0.5 188,-0.5"/>
<text text-anchor="middle" x="211" y="-7.5" font-family="Helvetica,sans-Serif" font-size="10.00">begrun</text>
</a>
</g>
</g>
<!-- Node18&#45;&gt;Node19 -->
<g id="edge2" class="edge"><title>Node18&#45;&gt;Node19</title>
<path fill="none" stroke="midnightblue" d="M162.37,-10C170.585,-10 179.743,-10 187.818,-10"/>
<polygon fill="midnightblue" stroke="midnightblue" points="162.286,-6.5001 152.286,-10 162.286,-13.5001 162.286,-6.5001"/>
</g>
<!-- Node20 -->
<g id="node4" class="node"><title>Node20</title>
<g id="a_node4"><a xlink:href="main_8c.html#a3c04138a5bfe5d72780bb7e82a18e627" target="_top" xlink:title="main">
<polygon fill="white" stroke="black" points="270,-0.5 270,-19.5 308,-19.5 308,-0.5 270,-0.5"/>
<text text-anchor="middle" x="289" y="-7.5" font-family="Helvetica,sans-Serif" font-size="10.00">main</text>
</a>
</g>
</g>
<!-- Node19&#45;&gt;Node20 -->
<g id="edge3" class="edge"><title>Node19&#45;&gt;Node20</title>
<path fill="none" stroke="midnightblue" d="M244.541,-10C253.114,-10 262.067,-10 269.603,-10"/>
<polygon fill="midnightblue" stroke="midnightblue" points="244.391,-6.5001 234.391,-10 244.391,-13.5001 244.391,-6.5001"/>
</g>
<!-- Node21 -->
<g id="node5" class="node"><title>Node21</title>
<g id="a_node5"><a xlink:href="walltime_8h.html#a76d2135b612766d4d665748454b879d6" target="_top" xlink:title="walltime_report">
<polygon fill="white" stroke="black" points="344,-19.5 344,-38.5 427,-38.5 427,-19.5 344,-19.5"/>
<text text-anchor="middle" x="385.5" y="-26.5" font-family="Helvetica,sans-Serif" font-size="10.00">walltime_report</text>
</a>
</g>
</g>
<!-- Node20&#45;&gt;Node21 -->
<g id="edge4" class="edge"><title>Node20&#45;&gt;Node21</title>
<path fill="none" stroke="midnightblue" d="M318.141,-15.658C326.148,-17.2678 335.035,-19.0547 343.635,-20.7837"/>
<polygon fill="midnightblue" stroke="midnightblue" points="318.714,-12.2033 308.221,-13.6634 317.334,-19.0659 318.714,-12.2033"/>
</g>
<!-- Node22 -->
<g id="node6" class="node"><title>Node22</title>
<g id="a_node6"><a xlink:href="run_8c.html#adc59e9ee1517e4e690694a64ab6a59d2" target="_top" xlink:title="write_cpu_log">
<polygon fill="white" stroke="black" points="463,-19.5 463,-38.5 540,-38.5 540,-19.5 463,-19.5"/>
<text text-anchor="middle" x="501.5" y="-26.5" font-family="Helvetica,sans-Serif" font-size="10.00">write_cpu_log</text>
</a>
</g>
</g>
<!-- Node21&#45;&gt;Node22 -->
<g id="edge5" class="edge"><title>Node21&#45;&gt;Node22</title>
<path fill="none" stroke="midnightblue" d="M437.031,-29C445.684,-29 454.54,-29 462.785,-29"/>
<polygon fill="midnightblue" stroke="midnightblue" points="437.013,-25.5001 427.013,-29 437.013,-32.5001 437.013,-25.5001"/>
</g>
<!-- Node23 -->
<g id="node7" class="node"><title>Node23</title>
<g id="a_node7"><a xlink:href="run_8c.html#a05e0ffe612d44e6d7f3a9ae5b9df56a2" target="_top" xlink:title="run">
<polygon fill="white" stroke="black" points="576,-0.5 576,-19.5 606,-19.5 606,-0.5 576,-0.5"/>
<text text-anchor="middle" x="591" y="-7.5" font-family="Helvetica,sans-Serif" font-size="10.00">run</text>
</a>
</g>
</g>
<!-- Node22&#45;&gt;Node23 -->
<g id="edge6" class="edge"><title>Node22&#45;&gt;Node23</title>
<path fill="none" stroke="midnightblue" d="M549.925,-18.7021C559.329,-16.6601 568.505,-14.6676 575.698,-13.1056"/>
<polygon fill="midnightblue" stroke="midnightblue" points="549.145,-15.2897 540.116,-20.832 550.631,-22.1303 549.145,-15.2897"/>
</g>
<!-- Node23&#45;&gt;Node20 -->
<g id="edge7" class="edge"><title>Node23&#45;&gt;Node20</title>
<path fill="none" stroke="midnightblue" d="M565.758,-10C507.391,-10 360.064,-10 308.315,-10"/>
<polygon fill="midnightblue" stroke="midnightblue" points="565.885,-13.5001 575.885,-10 565.885,-6.5001 565.885,-13.5001"/>
</g>
</g>
</svg>
