<?xml version="1.0" encoding="UTF-8" standalone="no"?>
<!DOCTYPE svg PUBLIC "-//W3C//DTD SVG 1.1//EN"
 "http://www.w3.org/Graphics/SVG/1.1/DTD/svg11.dtd">
<!-- Generated by graphviz version 2.50.0 (0)
 -->
<!-- Title: setup_density_indep_entropy Pages: 1 -->
<svg width="461pt" height="39pt"
 viewBox="0.00 0.00 461.00 39.00" xmlns="http://www.w3.org/2000/svg" xmlns:xlink="http://www.w3.org/1999/xlink">
<g id="graph0" class="graph" transform="scale(1 1) rotate(0) translate(4 35)">
<title>setup_density_indep_entropy</title>
<polygon fill="white" stroke="transparent" points="-4,4 -4,-35 457,-35 457,4 -4,4"/>
<!-- Node1 -->
<g id="node1" class="node">
<title>Node1</title>
<g id="a_node1"><a xlink:title=" ">
<polygon fill="#bfbfbf" stroke="black" points="336,-0.5 336,-30.5 453,-30.5 453,-0.5 336,-0.5"/>
<text text-anchor="start" x="344" y="-18.5" font-family="Helvetica,sans-Serif" font-size="10.00">setup_density_indep</text>
<text text-anchor="middle" x="394.5" y="-7.5" font-family="Helvetica,sans-Serif" font-size="10.00">_entropy</text>
</a>
</g>
</g>
<!-- Node2 -->
<g id="node2" class="node">
<title>Node2</title>
<g id="a_node2"><a xlink:href="init_8c.html#a713a74e1e0ca55699bc6581763bae177" target="_top" xlink:title=" ">
<polygon fill="white" stroke="black" points="163,-6 163,-25 300,-25 300,-6 163,-6"/>
<text text-anchor="middle" x="231.5" y="-13" font-family="Helvetica,sans-Serif" font-size="10.00">setup_smoothinglengths</text>
</a>
</g>
</g>
<!-- Node1&#45;&gt;Node2 -->
<g id="edge1" class="edge">
<title>Node1&#45;&gt;Node2</title>
<path fill="none" stroke="midnightblue" d="M325.67,-15.5C317.24,-15.5 308.62,-15.5 300.2,-15.5"/>
<polygon fill="midnightblue" stroke="midnightblue" points="325.83,-19 335.83,-15.5 325.83,-12 325.83,-19"/>
</g>
<!-- Node3 -->
<g id="node3" class="node">
<title>Node3</title>
<g id="a_node3"><a xlink:href="run_8c.html#aee4609880c9e92e1c421c4bd238589fd" target="_top" xlink:title=" ">
<polygon fill="white" stroke="black" points="77,-6 77,-25 127,-25 127,-6 77,-6"/>
<text text-anchor="middle" x="102" y="-13" font-family="Helvetica,sans-Serif" font-size="10.00">begrun</text>
</a>
</g>
</g>
<!-- Node2&#45;&gt;Node3 -->
<g id="edge2" class="edge">
<title>Node2&#45;&gt;Node3</title>
<path fill="none" stroke="midnightblue" d="M152.59,-15.5C143.43,-15.5 134.69,-15.5 127.16,-15.5"/>
<polygon fill="midnightblue" stroke="midnightblue" points="152.64,-19 162.64,-15.5 152.64,-12 152.64,-19"/>
</g>
<!-- Node4 -->
<g id="node4" class="node">
<title>Node4</title>
<g id="a_node4"><a xlink:href="gadget_2main_8c.html#a3c04138a5bfe5d72780bb7e82a18e627" target="_top" xlink:title=" ">
<polygon fill="white" stroke="black" points="0,-6 0,-25 41,-25 41,-6 0,-6"/>
<text text-anchor="middle" x="20.5" y="-13" font-family="Helvetica,sans-Serif" font-size="10.00">main</text>
</a>
</g>
</g>
<!-- Node3&#45;&gt;Node4 -->
<g id="edge3" class="edge">
<title>Node3&#45;&gt;Node4</title>
<path fill="none" stroke="midnightblue" d="M66.71,-15.5C57.96,-15.5 48.84,-15.5 41.11,-15.5"/>
<polygon fill="midnightblue" stroke="midnightblue" points="66.72,-19 76.72,-15.5 66.72,-12 66.72,-19"/>
</g>
</g>
</svg>
