<?xml version="1.0" encoding="UTF-8" standalone="no"?>
<!DOCTYPE svg PUBLIC "-//W3C//DTD SVG 1.1//EN"
 "http://www.w3.org/Graphics/SVG/1.1/DTD/svg11.dtd">
<!-- Generated by graphviz version 2.50.0 (0)
 -->
<!-- Title: libgadget/init.h Pages: 1 -->
<svg width="1522pt" height="420pt"
 viewBox="0.00 0.00 1522.00 420.00" xmlns="http://www.w3.org/2000/svg" xmlns:xlink="http://www.w3.org/1999/xlink">
<g id="graph0" class="graph" transform="scale(1 1) rotate(0) translate(4 416)">
<title>libgadget/init.h</title>
<polygon fill="white" stroke="transparent" points="-4,4 -4,-416 1518,-416 1518,4 -4,4"/>
<!-- Node1 -->
<g id="node1" class="node">
<title>Node1</title>
<g id="a_node1"><a xlink:title=" ">
<polygon fill="#bfbfbf" stroke="black" points="1289,-392.5 1289,-411.5 1379,-411.5 1379,-392.5 1289,-392.5"/>
<text text-anchor="middle" x="1334" y="-399.5" font-family="Helvetica,sans-Serif" font-size="10.00">libgadget/init.h</text>
</a>
</g>
</g>
<!-- Node2 -->
<g id="node2" class="node">
<title>Node2</title>
<g id="a_node2"><a xlink:href="domain_8h.html" target="_top" xlink:title=" ">
<polygon fill="white" stroke="black" points="969,-336.5 969,-355.5 1031,-355.5 1031,-336.5 969,-336.5"/>
<text text-anchor="middle" x="1000" y="-343.5" font-family="Helvetica,sans-Serif" font-size="10.00">domain.h</text>
</a>
</g>
</g>
<!-- Node1&#45;&gt;Node2 -->
<g id="edge1" class="edge">
<title>Node1&#45;&gt;Node2</title>
<path fill="none" stroke="midnightblue" d="M1288.96,-393.72C1223.85,-383.19 1104.36,-363.87 1041.37,-353.69"/>
<polygon fill="midnightblue" stroke="midnightblue" points="1041.83,-350.22 1031.4,-352.08 1040.71,-357.13 1041.83,-350.22"/>
</g>
<!-- Node7 -->
<g id="node7" class="node">
<title>Node7</title>
<g id="a_node7"><a xlink:href="paramset_8h.html" target="_top" xlink:title=" ">
<polygon fill="white" stroke="black" points="1418,-112.5 1418,-131.5 1514,-131.5 1514,-112.5 1418,-112.5"/>
<text text-anchor="middle" x="1466" y="-119.5" font-family="Helvetica,sans-Serif" font-size="10.00">utils/paramset.h</text>
</a>
</g>
</g>
<!-- Node1&#45;&gt;Node7 -->
<g id="edge47" class="edge">
<title>Node1&#45;&gt;Node7</title>
<path fill="none" stroke="midnightblue" d="M1370.34,-392.39C1416.15,-379.12 1489,-348.91 1489,-291 1489,-291 1489,-291 1489,-233 1489,-200.12 1479.03,-162.86 1472.22,-141.24"/>
<polygon fill="midnightblue" stroke="midnightblue" points="1475.54,-140.12 1469.1,-131.71 1468.89,-142.3 1475.54,-140.12"/>
</g>
<!-- Node28 -->
<g id="node28" class="node">
<title>Node28</title>
<g id="a_node28"><a xlink:href="timebinmgr_8h.html" target="_top" xlink:title=" ">
<polygon fill="white" stroke="black" points="1341,-168.5 1341,-187.5 1423,-187.5 1423,-168.5 1341,-168.5"/>
<text text-anchor="middle" x="1382" y="-175.5" font-family="Helvetica,sans-Serif" font-size="10.00">timebinmgr.h</text>
</a>
</g>
</g>
<!-- Node1&#45;&gt;Node28 -->
<g id="edge48" class="edge">
<title>Node1&#45;&gt;Node28</title>
<path fill="none" stroke="midnightblue" d="M1335.88,-392.3C1342.96,-359.56 1368.08,-243.38 1377.96,-197.67"/>
<polygon fill="midnightblue" stroke="midnightblue" points="1381.39,-198.4 1380.08,-187.88 1374.54,-196.92 1381.39,-198.4"/>
</g>
<!-- Node29 -->
<g id="node29" class="node">
<title>Node29</title>
<g id="a_node29"><a xlink:href="petaio_8h.html" target="_top" xlink:title=" ">
<polygon fill="white" stroke="black" points="1072,-280.5 1072,-299.5 1128,-299.5 1128,-280.5 1072,-280.5"/>
<text text-anchor="middle" x="1100" y="-287.5" font-family="Helvetica,sans-Serif" font-size="10.00">petaio.h</text>
</a>
</g>
</g>
<!-- Node1&#45;&gt;Node29 -->
<g id="edge51" class="edge">
<title>Node1&#45;&gt;Node29</title>
<path fill="none" stroke="midnightblue" d="M1315.64,-392.37C1274.71,-373.13 1175.83,-326.65 1127.51,-303.93"/>
<polygon fill="midnightblue" stroke="midnightblue" points="1128.82,-300.68 1118.28,-299.59 1125.84,-307.01 1128.82,-300.68"/>
</g>
<!-- Node3 -->
<g id="node3" class="node">
<title>Node3</title>
<g id="a_node3"><a xlink:title=" ">
<polygon fill="white" stroke="#bfbfbf" points="306,-56.5 306,-75.5 350,-75.5 350,-56.5 306,-56.5"/>
<text text-anchor="middle" x="328" y="-63.5" font-family="Helvetica,sans-Serif" font-size="10.00">mpi.h</text>
</a>
</g>
</g>
<!-- Node2&#45;&gt;Node3 -->
<g id="edge2" class="edge">
<title>Node2&#45;&gt;Node3</title>
<path fill="none" stroke="midnightblue" d="M968.98,-344.92C800.19,-344.11 0,-334.99 0,-235 0,-235 0,-235 0,-177 0,-145.37 3.82,-131.15 29,-112 50.01,-96.02 222.53,-77.38 295.55,-70.12"/>
<polygon fill="midnightblue" stroke="midnightblue" points="295.97,-73.59 305.57,-69.13 295.28,-66.63 295.97,-73.59"/>
</g>
<!-- Node4 -->
<g id="node4" class="node">
<title>Node4</title>
<g id="a_node4"><a xlink:href="peano_8h.html" target="_top" xlink:title=" ">
<polygon fill="white" stroke="black" points="944,-112.5 944,-131.5 1024,-131.5 1024,-112.5 944,-112.5"/>
<text text-anchor="middle" x="984" y="-119.5" font-family="Helvetica,sans-Serif" font-size="10.00">utils/peano.h</text>
</a>
</g>
</g>
<!-- Node2&#45;&gt;Node4 -->
<g id="edge3" class="edge">
<title>Node2&#45;&gt;Node4</title>
<path fill="none" stroke="midnightblue" d="M988.32,-336.41C967.62,-320.55 924.57,-284.57 902,-244 889.53,-221.58 891.13,-213.46 888,-188 886.91,-179.18 883.23,-175.5 888,-168 898.33,-151.75 916.25,-141.26 933.83,-134.55"/>
<polygon fill="midnightblue" stroke="midnightblue" points="935.21,-137.77 943.52,-131.19 932.92,-131.16 935.21,-137.77"/>
</g>
<!-- Node2&#45;&gt;Node7 -->
<g id="edge6" class="edge">
<title>Node2&#45;&gt;Node7</title>
<path fill="none" stroke="midnightblue" d="M1031.16,-342.25C1109.08,-333.78 1314.58,-301.32 1432,-188 1445.44,-175.03 1454.63,-155.6 1460.04,-141.36"/>
<polygon fill="midnightblue" stroke="midnightblue" points="1463.43,-142.27 1463.45,-131.67 1456.83,-139.94 1463.43,-142.27"/>
</g>
<!-- Node9 -->
<g id="node9" class="node">
<title>Node9</title>
<g id="a_node9"><a xlink:href="drift_8h.html" target="_top" xlink:title=" ">
<polygon fill="white" stroke="black" points="977.5,-280.5 977.5,-299.5 1022.5,-299.5 1022.5,-280.5 977.5,-280.5"/>
<text text-anchor="middle" x="1000" y="-287.5" font-family="Helvetica,sans-Serif" font-size="10.00">drift.h</text>
</a>
</g>
</g>
<!-- Node2&#45;&gt;Node9 -->
<g id="edge8" class="edge">
<title>Node2&#45;&gt;Node9</title>
<path fill="none" stroke="midnightblue" d="M1000,-336.08C1000,-329.01 1000,-318.86 1000,-309.99"/>
<polygon fill="midnightblue" stroke="midnightblue" points="1003.5,-309.75 1000,-299.75 996.5,-309.75 1003.5,-309.75"/>
</g>
<!-- Node5 -->
<g id="node5" class="node">
<title>Node5</title>
<g id="a_node5"><a xlink:title=" ">
<polygon fill="white" stroke="#bfbfbf" points="997,-0.5 997,-19.5 1053,-19.5 1053,-0.5 997,-0.5"/>
<text text-anchor="middle" x="1025" y="-7.5" font-family="Helvetica,sans-Serif" font-size="10.00">stddef.h</text>
</a>
</g>
</g>
<!-- Node4&#45;&gt;Node5 -->
<g id="edge4" class="edge">
<title>Node4&#45;&gt;Node5</title>
<path fill="none" stroke="midnightblue" d="M977.95,-112.2C969.92,-99.33 957.76,-74.86 967,-56 973.52,-42.68 986.1,-32.18 997.87,-24.68"/>
<polygon fill="midnightblue" stroke="midnightblue" points="999.77,-27.62 1006.61,-19.53 996.22,-21.59 999.77,-27.62"/>
</g>
<!-- Node6 -->
<g id="node6" class="node">
<title>Node6</title>
<g id="a_node6"><a xlink:title=" ">
<polygon fill="white" stroke="#bfbfbf" points="976.5,-56.5 976.5,-75.5 1029.5,-75.5 1029.5,-56.5 976.5,-56.5"/>
<text text-anchor="middle" x="1003" y="-63.5" font-family="Helvetica,sans-Serif" font-size="10.00">stdint.h</text>
</a>
</g>
</g>
<!-- Node4&#45;&gt;Node6 -->
<g id="edge5" class="edge">
<title>Node4&#45;&gt;Node6</title>
<path fill="none" stroke="midnightblue" d="M987.14,-112.08C989.68,-104.85 993.36,-94.41 996.53,-85.4"/>
<polygon fill="midnightblue" stroke="midnightblue" points="999.9,-86.35 999.92,-75.75 993.3,-84.02 999.9,-86.35"/>
</g>
<!-- Node8 -->
<g id="node8" class="node">
<title>Node8</title>
<g id="a_node8"><a xlink:title=" ">
<polygon fill="white" stroke="#bfbfbf" points="1374,-56.5 1374,-75.5 1424,-75.5 1424,-56.5 1374,-56.5"/>
<text text-anchor="middle" x="1399" y="-63.5" font-family="Helvetica,sans-Serif" font-size="10.00">stdio.h</text>
</a>
</g>
</g>
<!-- Node7&#45;&gt;Node8 -->
<g id="edge7" class="edge">
<title>Node7&#45;&gt;Node8</title>
<path fill="none" stroke="midnightblue" d="M1455.24,-112.32C1445.23,-104.26 1430.11,-92.08 1418.07,-82.37"/>
<polygon fill="midnightblue" stroke="midnightblue" points="1419.94,-79.38 1409.96,-75.83 1415.55,-84.83 1419.94,-79.38"/>
</g>
<!-- Node10 -->
<g id="node10" class="node">
<title>Node10</title>
<g id="a_node10"><a xlink:href="cosmology_8h.html" target="_top" xlink:title=" ">
<polygon fill="white" stroke="black" points="171.5,-224.5 171.5,-243.5 248.5,-243.5 248.5,-224.5 171.5,-224.5"/>
<text text-anchor="middle" x="210" y="-231.5" font-family="Helvetica,sans-Serif" font-size="10.00">cosmology.h</text>
</a>
</g>
</g>
<!-- Node9&#45;&gt;Node10 -->
<g id="edge9" class="edge">
<title>Node9&#45;&gt;Node10</title>
<path fill="none" stroke="midnightblue" d="M977.43,-288.2C888.24,-284.92 551.71,-271.33 276,-244 270.46,-243.45 264.67,-242.79 258.92,-242.08"/>
<polygon fill="midnightblue" stroke="midnightblue" points="259.05,-238.57 248.68,-240.76 258.15,-245.51 259.05,-238.57"/>
</g>
<!-- Node14 -->
<g id="node14" class="node">
<title>Node14</title>
<g id="a_node14"><a xlink:href="types_8h.html" target="_top" xlink:title=" ">
<polygon fill="white" stroke="black" points="1346.5,-112.5 1346.5,-131.5 1399.5,-131.5 1399.5,-112.5 1346.5,-112.5"/>
<text text-anchor="middle" x="1373" y="-119.5" font-family="Helvetica,sans-Serif" font-size="10.00">types.h</text>
</a>
</g>
</g>
<!-- Node9&#45;&gt;Node14 -->
<g id="edge14" class="edge">
<title>Node9&#45;&gt;Node14</title>
<path fill="none" stroke="midnightblue" d="M1015.69,-280.34C1039.31,-267.43 1085.55,-242.66 1126,-224 1201.8,-189.03 1293.26,-153.25 1340.78,-135.13"/>
<polygon fill="midnightblue" stroke="midnightblue" points="1342.13,-138.36 1350.24,-131.53 1339.65,-131.82 1342.13,-138.36"/>
</g>
<!-- Node15 -->
<g id="node15" class="node">
<title>Node15</title>
<g id="a_node15"><a xlink:href="partmanager_8h.html" target="_top" xlink:title=" ">
<polygon fill="white" stroke="black" points="1001,-168.5 1001,-187.5 1089,-187.5 1089,-168.5 1001,-168.5"/>
<text text-anchor="middle" x="1045" y="-175.5" font-family="Helvetica,sans-Serif" font-size="10.00">partmanager.h</text>
</a>
</g>
</g>
<!-- Node9&#45;&gt;Node15 -->
<g id="edge16" class="edge">
<title>Node9&#45;&gt;Node15</title>
<path fill="none" stroke="midnightblue" d="M1003.53,-280.37C1010.86,-262.46 1027.85,-220.92 1037.66,-196.95"/>
<polygon fill="midnightblue" stroke="midnightblue" points="1040.94,-198.17 1041.49,-187.59 1034.46,-195.52 1040.94,-198.17"/>
</g>
<!-- Node16 -->
<g id="node16" class="node">
<title>Node16</title>
<g id="a_node16"><a xlink:href="slotsmanager_8h.html" target="_top" xlink:title=" ">
<polygon fill="white" stroke="black" points="911,-224.5 911,-243.5 1003,-243.5 1003,-224.5 911,-224.5"/>
<text text-anchor="middle" x="957" y="-231.5" font-family="Helvetica,sans-Serif" font-size="10.00">slotsmanager.h</text>
</a>
</g>
</g>
<!-- Node9&#45;&gt;Node16 -->
<g id="edge19" class="edge">
<title>Node9&#45;&gt;Node16</title>
<path fill="none" stroke="midnightblue" d="M992.9,-280.08C986.76,-272.38 977.73,-261.03 970.26,-251.65"/>
<polygon fill="midnightblue" stroke="midnightblue" points="972.94,-249.39 963.97,-243.75 967.46,-253.75 972.94,-249.39"/>
</g>
<!-- Node10&#45;&gt;Node5 -->
<g id="edge10" class="edge">
<title>Node10&#45;&gt;Node5</title>
<path fill="none" stroke="midnightblue" d="M171.15,-229.45C120.91,-223.96 37.61,-211.5 19,-188 6.78,-172.57 9.14,-132.45 29,-112 96.97,-42.01 812,-17.09 986.67,-12.03"/>
<polygon fill="midnightblue" stroke="midnightblue" points="987.02,-15.52 996.92,-11.74 986.83,-8.52 987.02,-15.52"/>
</g>
<!-- Node11 -->
<g id="node11" class="node">
<title>Node11</title>
<g id="a_node11"><a xlink:href="omega__nu__single_8h.html" target="_top" xlink:title=" ">
<polygon fill="white" stroke="black" points="28.5,-168.5 28.5,-187.5 139.5,-187.5 139.5,-168.5 28.5,-168.5"/>
<text text-anchor="middle" x="84" y="-175.5" font-family="Helvetica,sans-Serif" font-size="10.00">omega_nu_single.h</text>
</a>
</g>
</g>
<!-- Node10&#45;&gt;Node11 -->
<g id="edge11" class="edge">
<title>Node10&#45;&gt;Node11</title>
<path fill="none" stroke="midnightblue" d="M190.03,-224.44C169.39,-215.6 136.94,-201.69 113.37,-191.59"/>
<polygon fill="midnightblue" stroke="midnightblue" points="114.44,-188.24 103.87,-187.52 111.68,-194.67 114.44,-188.24"/>
</g>
<!-- Node13 -->
<g id="node13" class="node">
<title>Node13</title>
<g id="a_node13"><a xlink:href="unitsystem_8h.html" target="_top" xlink:title=" ">
<polygon fill="white" stroke="black" points="158,-168.5 158,-187.5 262,-187.5 262,-168.5 158,-168.5"/>
<text text-anchor="middle" x="210" y="-175.5" font-family="Helvetica,sans-Serif" font-size="10.00">utils/unitsystem.h</text>
</a>
</g>
</g>
<!-- Node10&#45;&gt;Node13 -->
<g id="edge13" class="edge">
<title>Node10&#45;&gt;Node13</title>
<path fill="none" stroke="midnightblue" d="M210,-224.08C210,-217.01 210,-206.86 210,-197.99"/>
<polygon fill="midnightblue" stroke="midnightblue" points="213.5,-197.75 210,-187.75 206.5,-197.75 213.5,-197.75"/>
</g>
<!-- Node12 -->
<g id="node12" class="node">
<title>Node12</title>
<g id="a_node12"><a xlink:title=" ">
<polygon fill="white" stroke="#bfbfbf" points="38.5,-112.5 38.5,-131.5 129.5,-131.5 129.5,-112.5 38.5,-112.5"/>
<text text-anchor="middle" x="84" y="-119.5" font-family="Helvetica,sans-Serif" font-size="10.00">gsl/gsl_interp.h</text>
</a>
</g>
</g>
<!-- Node11&#45;&gt;Node12 -->
<g id="edge12" class="edge">
<title>Node11&#45;&gt;Node12</title>
<path fill="none" stroke="midnightblue" d="M84,-168.08C84,-161.01 84,-150.86 84,-141.99"/>
<polygon fill="midnightblue" stroke="midnightblue" points="87.5,-141.75 84,-131.75 80.5,-141.75 87.5,-141.75"/>
</g>
<!-- Node14&#45;&gt;Node6 -->
<g id="edge15" class="edge">
<title>Node14&#45;&gt;Node6</title>
<path fill="none" stroke="midnightblue" d="M1346.43,-118.43C1291.21,-112.89 1159.93,-98.57 1039.77,-75.94"/>
<polygon fill="midnightblue" stroke="midnightblue" points="1040.14,-72.45 1029.66,-74.02 1038.83,-79.33 1040.14,-72.45"/>
</g>
<!-- Node15&#45;&gt;Node4 -->
<g id="edge18" class="edge">
<title>Node15&#45;&gt;Node4</title>
<path fill="none" stroke="midnightblue" d="M1035.2,-168.32C1026.18,-160.34 1012.59,-148.31 1001.68,-138.65"/>
<polygon fill="midnightblue" stroke="midnightblue" points="1003.79,-135.84 993.98,-131.83 999.15,-141.08 1003.79,-135.84"/>
</g>
<!-- Node15&#45;&gt;Node14 -->
<g id="edge17" class="edge">
<title>Node15&#45;&gt;Node14</title>
<path fill="none" stroke="midnightblue" d="M1089.13,-170.15C1166.63,-158.12 1320.18,-134.22 1332,-132 1333.29,-131.76 1334.6,-131.5 1335.92,-131.24"/>
<polygon fill="midnightblue" stroke="midnightblue" points="1337.05,-134.59 1346.14,-129.14 1335.64,-127.73 1337.05,-134.59"/>
</g>
<!-- Node16&#45;&gt;Node3 -->
<g id="edge20" class="edge">
<title>Node16&#45;&gt;Node3</title>
<path fill="none" stroke="midnightblue" d="M910.67,-230.84C785.22,-224.15 442.57,-199.92 356,-132 341.67,-120.76 334.55,-100.74 331.09,-85.89"/>
<polygon fill="midnightblue" stroke="midnightblue" points="334.46,-84.9 329.1,-75.76 327.59,-86.24 334.46,-84.9"/>
</g>
<!-- Node16&#45;&gt;Node14 -->
<g id="edge45" class="edge">
<title>Node16&#45;&gt;Node14</title>
<path fill="none" stroke="midnightblue" d="M958.98,-224.06C962.7,-209.58 972.21,-181.29 992,-168 1055.08,-125.65 1257,-144.16 1332,-132 1333.29,-131.79 1334.61,-131.57 1335.94,-131.33"/>
<polygon fill="midnightblue" stroke="midnightblue" points="1337.03,-134.68 1346.18,-129.33 1335.69,-127.81 1337.03,-134.68"/>
</g>
<!-- Node16&#45;&gt;Node15 -->
<g id="edge46" class="edge">
<title>Node16&#45;&gt;Node15</title>
<path fill="none" stroke="midnightblue" d="M971.14,-224.32C984.87,-215.9 1005.94,-202.97 1022.06,-193.07"/>
<polygon fill="midnightblue" stroke="midnightblue" points="1024.2,-195.87 1030.9,-187.65 1020.54,-189.9 1024.2,-195.87"/>
</g>
<!-- Node17 -->
<g id="node17" class="node">
<title>Node17</title>
<g id="a_node17"><a xlink:href="utils_8h.html" target="_top" xlink:title=" ">
<polygon fill="white" stroke="black" points="897.5,-168.5 897.5,-187.5 944.5,-187.5 944.5,-168.5 897.5,-168.5"/>
<text text-anchor="middle" x="921" y="-175.5" font-family="Helvetica,sans-Serif" font-size="10.00">utils.h</text>
</a>
</g>
</g>
<!-- Node16&#45;&gt;Node17 -->
<g id="edge21" class="edge">
<title>Node16&#45;&gt;Node17</title>
<path fill="none" stroke="midnightblue" d="M951.06,-224.08C946.02,-216.53 938.66,-205.49 932.49,-196.23"/>
<polygon fill="midnightblue" stroke="midnightblue" points="935.29,-194.13 926.83,-187.75 929.47,-198.01 935.29,-194.13"/>
</g>
<!-- Node17&#45;&gt;Node3 -->
<g id="edge25" class="edge">
<title>Node17&#45;&gt;Node3</title>
<path fill="none" stroke="midnightblue" d="M897.31,-177.33C805.89,-178.25 476.6,-178.22 385,-132 364.14,-121.47 347.57,-99.71 337.79,-84.27"/>
<polygon fill="midnightblue" stroke="midnightblue" points="340.75,-82.4 332.6,-75.63 334.75,-86.01 340.75,-82.4"/>
</g>
<!-- Node17&#45;&gt;Node4 -->
<g id="edge26" class="edge">
<title>Node17&#45;&gt;Node4</title>
<path fill="none" stroke="midnightblue" d="M931.12,-168.32C940.53,-160.26 954.74,-148.08 966.07,-138.37"/>
<polygon fill="midnightblue" stroke="midnightblue" points="968.38,-141 973.69,-131.83 963.82,-135.68 968.38,-141"/>
</g>
<!-- Node17&#45;&gt;Node5 -->
<g id="edge24" class="edge">
<title>Node17&#45;&gt;Node5</title>
<path fill="none" stroke="midnightblue" d="M944.62,-172.52C952.94,-171.01 962.37,-169.35 971,-168 1030.58,-158.66 1192.82,-169.57 1240,-132 1260.79,-115.44 1256.26,-102.15 1261,-76 1262.59,-67.25 1266.67,-62.85 1261,-56 1236.36,-26.21 1123.66,-15.97 1063.35,-12.58"/>
<polygon fill="midnightblue" stroke="midnightblue" points="1063.26,-9.07 1053.09,-12.05 1062.89,-16.06 1063.26,-9.07"/>
</g>
<!-- Node17&#45;&gt;Node6 -->
<g id="edge23" class="edge">
<title>Node17&#45;&gt;Node6</title>
<path fill="none" stroke="midnightblue" d="M944.71,-170.83C974.44,-162.55 1022.76,-147.15 1033,-132 1043.37,-116.65 1031.5,-97.14 1019.76,-83.52"/>
<polygon fill="midnightblue" stroke="midnightblue" points="1022.04,-80.83 1012.67,-75.88 1016.92,-85.59 1022.04,-80.83"/>
</g>
<!-- Node17&#45;&gt;Node7 -->
<g id="edge31" class="edge">
<title>Node17&#45;&gt;Node7</title>
<path fill="none" stroke="midnightblue" d="M944.64,-173.76C958.44,-171.93 976.19,-169.68 992,-168 1173.73,-148.65 1222.64,-154.31 1407.76,-132.07"/>
<polygon fill="midnightblue" stroke="midnightblue" points="1408.33,-135.53 1417.83,-130.85 1407.48,-128.58 1408.33,-135.53"/>
</g>
<!-- Node17&#45;&gt;Node8 -->
<g id="edge22" class="edge">
<title>Node17&#45;&gt;Node8</title>
<path fill="none" stroke="midnightblue" d="M944.6,-172.42C952.92,-170.89 962.36,-169.26 971,-168 1113.94,-147.19 1157.47,-179.17 1294,-132 1327.19,-120.53 1360.88,-97.14 1380.85,-81.77"/>
<polygon fill="midnightblue" stroke="midnightblue" points="1383.08,-84.47 1388.77,-75.54 1378.75,-78.97 1383.08,-84.47"/>
</g>
<!-- Node18 -->
<g id="node18" class="node">
<title>Node18</title>
<g id="a_node18"><a xlink:href="memory_8h.html" target="_top" xlink:title=" ">
<polygon fill="white" stroke="black" points="830.5,-56.5 830.5,-75.5 919.5,-75.5 919.5,-56.5 830.5,-56.5"/>
<text text-anchor="middle" x="875" y="-63.5" font-family="Helvetica,sans-Serif" font-size="10.00">utils/memory.h</text>
</a>
</g>
</g>
<!-- Node17&#45;&gt;Node18 -->
<g id="edge27" class="edge">
<title>Node17&#45;&gt;Node18</title>
<path fill="none" stroke="midnightblue" d="M918.16,-168.48C913.92,-155.96 905.52,-131.91 897,-112 893.06,-102.79 888.21,-92.76 884.07,-84.51"/>
<polygon fill="midnightblue" stroke="midnightblue" points="887.14,-82.82 879.48,-75.51 880.91,-86.01 887.14,-82.82"/>
</g>
<!-- Node19 -->
<g id="node19" class="node">
<title>Node19</title>
<g id="a_node19"><a xlink:href="mymalloc_8h.html" target="_top" xlink:title=" ">
<polygon fill="white" stroke="black" points="790,-112.5 790,-131.5 888,-131.5 888,-112.5 790,-112.5"/>
<text text-anchor="middle" x="839" y="-119.5" font-family="Helvetica,sans-Serif" font-size="10.00">utils/mymalloc.h</text>
</a>
</g>
</g>
<!-- Node17&#45;&gt;Node19 -->
<g id="edge29" class="edge">
<title>Node17&#45;&gt;Node19</title>
<path fill="none" stroke="midnightblue" d="M907.83,-168.32C895.15,-159.98 875.77,-147.21 860.79,-137.35"/>
<polygon fill="midnightblue" stroke="midnightblue" points="862.42,-134.23 852.14,-131.65 858.57,-140.08 862.42,-134.23"/>
</g>
<!-- Node20 -->
<g id="node20" class="node">
<title>Node20</title>
<g id="a_node20"><a xlink:href="event_8h.html" target="_top" xlink:title=" ">
<polygon fill="white" stroke="black" points="394.5,-112.5 394.5,-131.5 471.5,-131.5 471.5,-112.5 394.5,-112.5"/>
<text text-anchor="middle" x="433" y="-119.5" font-family="Helvetica,sans-Serif" font-size="10.00">utils/event.h</text>
</a>
</g>
</g>
<!-- Node17&#45;&gt;Node20 -->
<g id="edge32" class="edge">
<title>Node17&#45;&gt;Node20</title>
<path fill="none" stroke="midnightblue" d="M897.48,-175.33C832.8,-170.58 646.62,-155.88 481.99,-132.19"/>
<polygon fill="midnightblue" stroke="midnightblue" points="482.08,-128.66 471.68,-130.69 481.08,-135.59 482.08,-128.66"/>
</g>
<!-- Node21 -->
<g id="node21" class="node">
<title>Node21</title>
<g id="a_node21"><a xlink:href="openmpsort_8h.html" target="_top" xlink:title=" ">
<polygon fill="white" stroke="black" points="1048,-56.5 1048,-75.5 1156,-75.5 1156,-56.5 1048,-56.5"/>
<text text-anchor="middle" x="1102" y="-63.5" font-family="Helvetica,sans-Serif" font-size="10.00">utils/openmpsort.h</text>
</a>
</g>
</g>
<!-- Node17&#45;&gt;Node21 -->
<g id="edge33" class="edge">
<title>Node17&#45;&gt;Node21</title>
<path fill="none" stroke="midnightblue" d="M944.7,-170.25C976.5,-160.92 1030.97,-143.88 1048,-132 1066.16,-119.33 1081.68,-99.01 1091.36,-84.46"/>
<polygon fill="midnightblue" stroke="midnightblue" points="1094.41,-86.18 1096.84,-75.87 1088.51,-82.41 1094.41,-86.18"/>
</g>
<!-- Node22 -->
<g id="node22" class="node">
<title>Node22</title>
<g id="a_node22"><a xlink:href="system_8h.html" target="_top" xlink:title=" ">
<polygon fill="white" stroke="black" points="686,-112.5 686,-131.5 772,-131.5 772,-112.5 686,-112.5"/>
<text text-anchor="middle" x="729" y="-119.5" font-family="Helvetica,sans-Serif" font-size="10.00">utils/system.h</text>
</a>
</g>
</g>
<!-- Node17&#45;&gt;Node22 -->
<g id="edge35" class="edge">
<title>Node17&#45;&gt;Node22</title>
<path fill="none" stroke="midnightblue" d="M897.46,-170.38C865.56,-161.41 808.15,-145.26 769.32,-134.34"/>
<polygon fill="midnightblue" stroke="midnightblue" points="769.96,-130.88 759.38,-131.55 768.06,-137.62 769.96,-130.88"/>
</g>
<!-- Node24 -->
<g id="node24" class="node">
<title>Node24</title>
<g id="a_node24"><a xlink:href="string_8h.html" target="_top" xlink:title=" ">
<polygon fill="white" stroke="black" points="489.5,-112.5 489.5,-131.5 566.5,-131.5 566.5,-112.5 489.5,-112.5"/>
<text text-anchor="middle" x="528" y="-119.5" font-family="Helvetica,sans-Serif" font-size="10.00">utils/string.h</text>
</a>
</g>
</g>
<!-- Node17&#45;&gt;Node24 -->
<g id="edge39" class="edge">
<title>Node17&#45;&gt;Node24</title>
<path fill="none" stroke="midnightblue" d="M897.44,-174.43C842.87,-168.37 703.43,-152.28 576.94,-132.24"/>
<polygon fill="midnightblue" stroke="midnightblue" points="577.12,-128.72 566.7,-130.6 576.02,-135.63 577.12,-128.72"/>
</g>
<!-- Node25 -->
<g id="node25" class="node">
<title>Node25</title>
<g id="a_node25"><a xlink:href="endrun_8h.html" target="_top" xlink:title=" ">
<polygon fill="white" stroke="black" points="584.5,-112.5 584.5,-131.5 667.5,-131.5 667.5,-112.5 584.5,-112.5"/>
<text text-anchor="middle" x="626" y="-119.5" font-family="Helvetica,sans-Serif" font-size="10.00">utils/endrun.h</text>
</a>
</g>
</g>
<!-- Node17&#45;&gt;Node25 -->
<g id="edge41" class="edge">
<title>Node17&#45;&gt;Node25</title>
<path fill="none" stroke="midnightblue" d="M897.36,-172.67C849.92,-163.99 742.18,-144.27 677.63,-132.45"/>
<polygon fill="midnightblue" stroke="midnightblue" points="678.13,-128.98 667.66,-130.63 676.87,-135.87 678.13,-128.98"/>
</g>
<!-- Node26 -->
<g id="node26" class="node">
<title>Node26</title>
<g id="a_node26"><a xlink:href="interp_8h.html" target="_top" xlink:title=" ">
<polygon fill="white" stroke="black" points="1174,-56.5 1174,-75.5 1252,-75.5 1252,-56.5 1174,-56.5"/>
<text text-anchor="middle" x="1213" y="-63.5" font-family="Helvetica,sans-Serif" font-size="10.00">utils/interp.h</text>
</a>
</g>
</g>
<!-- Node17&#45;&gt;Node26 -->
<g id="edge42" class="edge">
<title>Node17&#45;&gt;Node26</title>
<path fill="none" stroke="midnightblue" d="M944.64,-171.03C949.38,-169.93 954.33,-168.87 959,-168 1017.21,-157.16 1184.06,-176.61 1223,-132 1234.12,-119.26 1229.03,-99.52 1222.76,-85.13"/>
<polygon fill="midnightblue" stroke="midnightblue" points="1225.73,-83.23 1218.21,-75.78 1219.44,-86.3 1225.73,-83.23"/>
</g>
<!-- Node27 -->
<g id="node27" class="node">
<title>Node27</title>
<g id="a_node27"><a xlink:href="spinlocks_8h.html" target="_top" xlink:title=" ">
<polygon fill="white" stroke="black" points="1118.5,-112.5 1118.5,-131.5 1213.5,-131.5 1213.5,-112.5 1118.5,-112.5"/>
<text text-anchor="middle" x="1166" y="-119.5" font-family="Helvetica,sans-Serif" font-size="10.00">utils/spinlocks.h</text>
</a>
</g>
</g>
<!-- Node17&#45;&gt;Node27 -->
<g id="edge44" class="edge">
<title>Node17&#45;&gt;Node27</title>
<path fill="none" stroke="midnightblue" d="M944.7,-171.32C949.43,-170.2 954.37,-169.05 959,-168 1012.34,-155.89 1073.58,-142.66 1115.53,-133.7"/>
<polygon fill="midnightblue" stroke="midnightblue" points="1116.44,-137.08 1125.49,-131.57 1114.98,-130.24 1116.44,-137.08"/>
</g>
<!-- Node18&#45;&gt;Node5 -->
<g id="edge28" class="edge">
<title>Node18&#45;&gt;Node5</title>
<path fill="none" stroke="midnightblue" d="M898.77,-56.44C923.89,-47.4 963.71,-33.06 991.9,-22.92"/>
<polygon fill="midnightblue" stroke="midnightblue" points="993.12,-26.2 1001.34,-19.52 990.75,-19.61 993.12,-26.2"/>
</g>
<!-- Node19&#45;&gt;Node18 -->
<g id="edge30" class="edge">
<title>Node19&#45;&gt;Node18</title>
<path fill="none" stroke="midnightblue" d="M844.94,-112.08C849.98,-104.53 857.34,-93.49 863.51,-84.23"/>
<polygon fill="midnightblue" stroke="midnightblue" points="866.53,-86.01 869.17,-75.75 860.71,-82.13 866.53,-86.01"/>
</g>
<!-- Node21&#45;&gt;Node5 -->
<g id="edge34" class="edge">
<title>Node21&#45;&gt;Node5</title>
<path fill="none" stroke="midnightblue" d="M1089.63,-56.32C1077.84,-48.06 1059.87,-35.45 1045.86,-25.63"/>
<polygon fill="midnightblue" stroke="midnightblue" points="1047.54,-22.53 1037.34,-19.65 1043.52,-28.26 1047.54,-22.53"/>
</g>
<!-- Node22&#45;&gt;Node3 -->
<g id="edge37" class="edge">
<title>Node22&#45;&gt;Node3</title>
<path fill="none" stroke="midnightblue" d="M685.92,-113.54C682.57,-113 679.23,-112.48 676,-112 560.05,-94.67 421.77,-77.96 360.26,-70.74"/>
<polygon fill="midnightblue" stroke="midnightblue" points="360.37,-67.23 350.03,-69.54 359.55,-74.18 360.37,-67.23"/>
</g>
<!-- Node22&#45;&gt;Node6 -->
<g id="edge36" class="edge">
<title>Node22&#45;&gt;Node6</title>
<path fill="none" stroke="midnightblue" d="M772.11,-112.5C825.58,-101.97 915.8,-84.18 966.18,-74.26"/>
<polygon fill="midnightblue" stroke="midnightblue" points="967.16,-77.63 976.29,-72.26 965.81,-70.76 967.16,-77.63"/>
</g>
<!-- Node23 -->
<g id="node23" class="node">
<title>Node23</title>
<g id="a_node23"><a xlink:title=" ">
<polygon fill="white" stroke="#bfbfbf" points="601,-56.5 601,-75.5 657,-75.5 657,-56.5 601,-56.5"/>
<text text-anchor="middle" x="629" y="-63.5" font-family="Helvetica,sans-Serif" font-size="10.00">stdarg.h</text>
</a>
</g>
</g>
<!-- Node22&#45;&gt;Node23 -->
<g id="edge38" class="edge">
<title>Node22&#45;&gt;Node23</title>
<path fill="none" stroke="midnightblue" d="M712.93,-112.32C697.04,-103.74 672.49,-90.49 654.04,-80.52"/>
<polygon fill="midnightblue" stroke="midnightblue" points="655.49,-77.33 645.03,-75.65 652.16,-83.49 655.49,-77.33"/>
</g>
<!-- Node24&#45;&gt;Node23 -->
<g id="edge40" class="edge">
<title>Node24&#45;&gt;Node23</title>
<path fill="none" stroke="midnightblue" d="M544.23,-112.32C560.35,-103.7 585.3,-90.36 603.96,-80.39"/>
<polygon fill="midnightblue" stroke="midnightblue" points="605.64,-83.46 612.81,-75.65 602.34,-77.28 605.64,-83.46"/>
</g>
<!-- Node26&#45;&gt;Node5 -->
<g id="edge43" class="edge">
<title>Node26&#45;&gt;Node5</title>
<path fill="none" stroke="midnightblue" d="M1183.21,-56.44C1150.7,-47.11 1098.56,-32.13 1063.09,-21.94"/>
<polygon fill="midnightblue" stroke="midnightblue" points="1063.69,-18.47 1053.11,-19.08 1061.76,-25.2 1063.69,-18.47"/>
</g>
<!-- Node28&#45;&gt;Node7 -->
<g id="edge50" class="edge">
<title>Node28&#45;&gt;Node7</title>
<path fill="none" stroke="midnightblue" d="M1395.5,-168.32C1408.6,-159.9 1428.71,-146.97 1444.11,-137.07"/>
<polygon fill="midnightblue" stroke="midnightblue" points="1446.02,-140.01 1452.54,-131.65 1442.23,-134.12 1446.02,-140.01"/>
</g>
<!-- Node28&#45;&gt;Node14 -->
<g id="edge49" class="edge">
<title>Node28&#45;&gt;Node14</title>
<path fill="none" stroke="midnightblue" d="M1380.51,-168.08C1379.32,-160.93 1377.61,-150.64 1376.12,-141.69"/>
<polygon fill="midnightblue" stroke="midnightblue" points="1379.55,-141.04 1374.46,-131.75 1372.65,-142.19 1379.55,-141.04"/>
</g>
<!-- Node29&#45;&gt;Node3 -->
<g id="edge52" class="edge">
<title>Node29&#45;&gt;Node3</title>
<path fill="none" stroke="midnightblue" d="M1071.73,-284.98C949.08,-267.51 467.73,-198.55 437,-188 388.82,-171.45 365.72,-174.07 337,-132 327.87,-118.62 326.1,-100.05 326.34,-86.19"/>
<polygon fill="midnightblue" stroke="midnightblue" points="329.85,-86.03 326.89,-75.86 322.86,-85.66 329.85,-86.03"/>
</g>
<!-- Node29&#45;&gt;Node7 -->
<g id="edge54" class="edge">
<title>Node29&#45;&gt;Node7</title>
<path fill="none" stroke="midnightblue" d="M1128.22,-289.64C1169.07,-289.12 1245.12,-282.53 1294,-244 1323.66,-220.62 1303.5,-192.78 1332,-168 1345.55,-156.22 1387.41,-143.2 1420.77,-134.21"/>
<polygon fill="midnightblue" stroke="midnightblue" points="1422.04,-137.49 1430.82,-131.55 1420.25,-130.73 1422.04,-137.49"/>
</g>
<!-- Node29&#45;&gt;Node10 -->
<g id="edge57" class="edge">
<title>Node29&#45;&gt;Node10</title>
<path fill="none" stroke="midnightblue" d="M1071.94,-284.75C1059.7,-283.03 1045.17,-281.18 1032,-280 696.97,-249.91 610.97,-274.75 276,-244 270.46,-243.49 264.67,-242.86 258.92,-242.16"/>
<polygon fill="midnightblue" stroke="midnightblue" points="259.04,-238.65 248.67,-240.85 258.15,-245.59 259.04,-238.65"/>
</g>
<!-- Node29&#45;&gt;Node15 -->
<g id="edge55" class="edge">
<title>Node29&#45;&gt;Node15</title>
<path fill="none" stroke="midnightblue" d="M1095.68,-280.37C1086.69,-262.38 1065.78,-220.55 1053.81,-196.63"/>
<polygon fill="midnightblue" stroke="midnightblue" points="1056.9,-194.97 1049.3,-187.59 1050.64,-198.1 1056.9,-194.97"/>
</g>
<!-- Node29&#45;&gt;Node16 -->
<g id="edge56" class="edge">
<title>Node29&#45;&gt;Node16</title>
<path fill="none" stroke="midnightblue" d="M1077.34,-280.44C1053.6,-271.48 1016.09,-257.31 989.26,-247.18"/>
<polygon fill="midnightblue" stroke="midnightblue" points="990.14,-243.77 979.55,-243.52 987.67,-250.32 990.14,-243.77"/>
</g>
<!-- Node30 -->
<g id="node30" class="node">
<title>Node30</title>
<g id="a_node30"><a xlink:title=" ">
<polygon fill="white" stroke="#bfbfbf" points="1135,-224.5 1135,-243.5 1191,-243.5 1191,-224.5 1135,-224.5"/>
<text text-anchor="middle" x="1163" y="-231.5" font-family="Helvetica,sans-Serif" font-size="10.00">bigfile.h</text>
</a>
</g>
</g>
<!-- Node29&#45;&gt;Node30 -->
<g id="edge53" class="edge">
<title>Node29&#45;&gt;Node30</title>
<path fill="none" stroke="midnightblue" d="M1110.12,-280.32C1119.53,-272.26 1133.74,-260.08 1145.07,-250.37"/>
<polygon fill="midnightblue" stroke="midnightblue" points="1147.38,-253 1152.69,-243.83 1142.82,-247.68 1147.38,-253"/>
</g>
<!-- Node31 -->
<g id="node31" class="node">
<title>Node31</title>
<g id="a_node31"><a xlink:href="physconst_8h.html" target="_top" xlink:title=" ">
<polygon fill="white" stroke="black" points="1209.5,-224.5 1209.5,-243.5 1284.5,-243.5 1284.5,-224.5 1209.5,-224.5"/>
<text text-anchor="middle" x="1247" y="-231.5" font-family="Helvetica,sans-Serif" font-size="10.00">physconst.h</text>
</a>
</g>
</g>
<!-- Node29&#45;&gt;Node31 -->
<g id="edge58" class="edge">
<title>Node29&#45;&gt;Node31</title>
<path fill="none" stroke="midnightblue" d="M1123.29,-280.44C1147.81,-271.44 1186.6,-257.19 1214.2,-247.05"/>
<polygon fill="midnightblue" stroke="midnightblue" points="1215.64,-250.25 1223.82,-243.52 1213.22,-243.68 1215.64,-250.25"/>
</g>
</g>
</svg>
