<?xml version="1.0" encoding="UTF-8" standalone="no"?>
<!DOCTYPE svg PUBLIC "-//W3C//DTD SVG 1.1//EN"
 "http://www.w3.org/Graphics/SVG/1.1/DTD/svg11.dtd">
<!-- Generated by graphviz version 2.38.0 (20140413.2041)
 -->
<!-- Title: dump_snapshot Pages: 1 -->
<!--zoomable 532 -->
<svg id="main" version="1.1" xmlns="http://www.w3.org/2000/svg" xmlns:xlink="http://www.w3.org/1999/xlink" xml:space="preserve" onload="init(evt)">
<style type="text/css"><![CDATA[
.edge:hover path { stroke: red; }
.edge:hover polygon { stroke: red; fill: red; }
]]></style>
<script type="text/javascript"><![CDATA[
var edges = document.getElementsByTagName('g');
if (edges && edges.length) {
  for (var i=0;i<edges.length;i++) {
    if (edges[i].id.substr(0,4)=='edge') {
      edges[i].setAttribute('class','edge');
    }
  }
}
]]></script>
        <defs>
                <circle id="rim" cx="0" cy="0" r="7"/>
                <circle id="rim2" cx="0" cy="0" r="3.5"/>
                <g id="zoomPlus">
                        <use xlink:href="#rim" fill="#404040">
                                <set attributeName="fill" to="#808080" begin="zoomplus.mouseover" end="zoomplus.mouseout"/>
                        </use>
                        <path d="M-4,0h8M0,-4v8" fill="none" stroke="white" stroke-width="1.5" pointer-events="none"/>
                </g>
                <g id="zoomMin">
                        <use xlink:href="#rim" fill="#404040">
                                <set attributeName="fill" to="#808080" begin="zoomminus.mouseover" end="zoomminus.mouseout"/>
                        </use>
                        <path d="M-4,0h8" fill="none" stroke="white" stroke-width="1.5" pointer-events="none"/>
                </g>
                <g id="dirArrow">
                        <path fill="none" stroke="white" stroke-width="1.5" d="M0,-3.0v7 M-2.5,-0.5L0,-3.0L2.5,-0.5"/>
                </g>
               <g id="resetDef">
                       <use xlink:href="#rim2" fill="#404040">
                               <set attributeName="fill" to="#808080" begin="reset.mouseover" end="reset.mouseout"/>
                       </use>
               </g>
        </defs>

<script type="text/javascript">
var viewWidth = 612;
var viewHeight = 532;
var sectionId = 'dynsection-2';
</script>
<script xlink:href="svgpan.js"/>
<svg id="graph" class="graph">
<g id="viewport">
<title>dump_snapshot</title>
<polygon fill="white" stroke="none" points="-4,4 -4,-528 607.809,-528 607.809,4 -4,4"/>
<!-- Node17 -->
<g id="node1" class="node"><title>Node17</title>
<polygon fill="#bfbfbf" stroke="black" points="245.404,-216.5 245.404,-235.5 331.404,-235.5 331.404,-216.5 245.404,-216.5"/>
<text text-anchor="middle" x="288.404" y="-223.5" font-family="Helvetica,sans-Serif" font-size="10.00">dump_snapshot</text>
</g>
<!-- Node18 -->
<g id="node2" class="node"><title>Node18</title>
<g id="a_node2"><a xlink:href="timestep_8h.html#ac4c17d0cf055339694fdd96baadd83c0" target="_top" xlink:title="find_timesteps">
<polygon fill="white" stroke="black" points="190.155,-258.821 190.155,-277.821 270.155,-277.821 270.155,-258.821 190.155,-258.821"/>
<text text-anchor="middle" x="230.155" y="-265.821" font-family="Helvetica,sans-Serif" font-size="10.00">find_timesteps</text>
</a>
</g>
</g>
<!-- Node17&#45;&gt;Node18 -->
<g id="edge1" class="edge"><title>Node17&#45;&gt;Node18</title>
<path fill="none" stroke="midnightblue" d="M267.019,-241.537C259.079,-247.306 250.312,-253.675 243.32,-258.755"/>
<polygon fill="midnightblue" stroke="midnightblue" points="269.154,-244.313 275.187,-235.603 265.039,-238.65 269.154,-244.313"/>
</g>
<!-- Node23 -->
<g id="node7" class="node"><title>Node23</title>
<g id="a_node7"><a xlink:href="forcetree_8c.html#a69350a797a01322b05ec26913d2fa62d" target="_top" xlink:title="force_tree_build">
<polygon fill="white" stroke="black" points="303.654,-174.179 303.654,-193.179 389.654,-193.179 389.654,-174.179 303.654,-174.179"/>
<text text-anchor="middle" x="346.654" y="-181.179" font-family="Helvetica,sans-Serif" font-size="10.00">force_tree_build</text>
</a>
</g>
</g>
<!-- Node17&#45;&gt;Node23 -->
<g id="edge7" class="edge"><title>Node17&#45;&gt;Node23</title>
<path fill="none" stroke="midnightblue" d="M309.789,-210.463C317.729,-204.694 326.496,-198.325 333.488,-193.245"/>
<polygon fill="midnightblue" stroke="midnightblue" points="307.655,-207.687 301.622,-216.397 311.769,-213.35 307.655,-207.687"/>
</g>
<!-- Node19 -->
<g id="node3" class="node"><title>Node19</title>
<g id="a_node3"><a xlink:href="run_8c.html#a05e0ffe612d44e6d7f3a9ae5b9df56a2" target="_top" xlink:title="run">
<polygon fill="white" stroke="black" points="156.906,-301.141 156.906,-320.141 186.906,-320.141 186.906,-301.141 156.906,-301.141"/>
<text text-anchor="middle" x="171.906" y="-308.141" font-family="Helvetica,sans-Serif" font-size="10.00">run</text>
</a>
</g>
</g>
<!-- Node18&#45;&gt;Node19 -->
<g id="edge2" class="edge"><title>Node18&#45;&gt;Node19</title>
<path fill="none" stroke="midnightblue" d="M208.77,-283.858C200.83,-289.626 192.063,-295.996 185.071,-301.076"/>
<polygon fill="midnightblue" stroke="midnightblue" points="210.904,-286.633 216.937,-277.924 206.79,-280.97 210.904,-286.633"/>
</g>
<!-- Node20 -->
<g id="node4" class="node"><title>Node20</title>
<g id="a_node4"><a xlink:href="main_8c.html#a3c04138a5bfe5d72780bb7e82a18e627" target="_top" xlink:title="main">
<polygon fill="white" stroke="black" points="396.366,-391.248 396.366,-410.248 434.366,-410.248 434.366,-391.248 396.366,-391.248"/>
<text text-anchor="middle" x="415.366" y="-398.248" font-family="Helvetica,sans-Serif" font-size="10.00">main</text>
</a>
</g>
</g>
<!-- Node19&#45;&gt;Node20 -->
<g id="edge3" class="edge"><title>Node19&#45;&gt;Node20</title>
<path fill="none" stroke="midnightblue" d="M196.575,-319.771C245.186,-337.763 352.432,-377.455 396.198,-393.654"/>
<polygon fill="midnightblue" stroke="midnightblue" points="197.729,-316.466 187.135,-316.278 195.299,-323.031 197.729,-316.466"/>
</g>
<!-- Node21 -->
<g id="node5" class="node"><title>Node21</title>
<g id="a_node5"><a xlink:href="walltime_8h.html#a76d2135b612766d4d665748454b879d6" target="_top" xlink:title="walltime_report">
<polygon fill="white" stroke="black" points="520.809,-305.497 520.809,-324.497 603.809,-324.497 603.809,-305.497 520.809,-305.497"/>
<text text-anchor="middle" x="562.309" y="-312.497" font-family="Helvetica,sans-Serif" font-size="10.00">walltime_report</text>
</a>
</g>
</g>
<!-- Node20&#45;&gt;Node21 -->
<g id="edge4" class="edge"><title>Node20&#45;&gt;Node21</title>
<path fill="none" stroke="midnightblue" d="M440.326,-386.182C470.468,-368.592 520.305,-339.509 545.949,-324.544"/>
<polygon fill="midnightblue" stroke="midnightblue" points="438.526,-383.18 431.653,-391.243 442.054,-389.226 438.526,-383.18"/>
</g>
<!-- Node22 -->
<g id="node6" class="node"><title>Node22</title>
<g id="a_node6"><a xlink:href="run_8c.html#adc59e9ee1517e4e690694a64ab6a59d2" target="_top" xlink:title="write_cpu_log">
<polygon fill="white" stroke="black" points="122.943,-391.248 122.943,-410.248 199.943,-410.248 199.943,-391.248 122.943,-391.248"/>
<text text-anchor="middle" x="161.443" y="-398.248" font-family="Helvetica,sans-Serif" font-size="10.00">write_cpu_log</text>
</a>
</g>
</g>
<!-- Node21&#45;&gt;Node22 -->
<g id="edge5" class="edge"><title>Node21&#45;&gt;Node22</title>
<path fill="none" stroke="midnightblue" d="M510.509,-326.077C429.01,-343.511 272.673,-376.954 200.153,-392.467"/>
<polygon fill="midnightblue" stroke="midnightblue" points="511.497,-329.446 520.543,-323.931 510.032,-322.6 511.497,-329.446"/>
</g>
<!-- Node22&#45;&gt;Node19 -->
<g id="edge6" class="edge"><title>Node22&#45;&gt;Node19</title>
<path fill="none" stroke="midnightblue" d="M163.742,-380.944C165.928,-362.117 169.123,-334.603 170.794,-320.215"/>
<polygon fill="midnightblue" stroke="midnightblue" points="160.239,-380.768 162.562,-391.105 167.193,-381.575 160.239,-380.768"/>
</g>
<!-- Node24 -->
<g id="node8" class="node"><title>Node24</title>
<g id="a_node8"><a xlink:href="forcetree_8h.html#a45a1a710bd7d997dbe7cf22a7600b731" target="_top" xlink:title="force_tree_rebuild">
<polygon fill="white" stroke="black" points="357.903,-131.859 357.903,-150.859 451.903,-150.859 451.903,-131.859 357.903,-131.859"/>
<text text-anchor="middle" x="404.903" y="-138.859" font-family="Helvetica,sans-Serif" font-size="10.00">force_tree_rebuild</text>
</a>
</g>
</g>
<!-- Node23&#45;&gt;Node24 -->
<g id="edge8" class="edge"><title>Node23&#45;&gt;Node24</title>
<path fill="none" stroke="midnightblue" d="M368.039,-168.142C375.978,-162.374 384.746,-156.004 391.737,-150.924"/>
<polygon fill="midnightblue" stroke="midnightblue" points="365.904,-165.367 359.871,-174.076 370.019,-171.03 365.904,-165.367"/>
</g>
<!-- Node24&#45;&gt;Node19 -->
<g id="edge26" class="edge"><title>Node24&#45;&gt;Node19</title>
<path fill="none" stroke="midnightblue" d="M383.395,-156.985C336.031,-191.397 223.865,-272.891 185.244,-300.95"/>
<polygon fill="midnightblue" stroke="midnightblue" points="385.675,-159.655 391.708,-150.945 381.561,-153.992 385.675,-159.655"/>
</g>
<!-- Node25 -->
<g id="node9" class="node"><title>Node25</title>
<g id="a_node9"><a xlink:href="domain_8h.html#a168c36ec12faca23e23395b6a13d2037" target="_top" xlink:title="domain_decompose_full">
<polygon fill="white" stroke="black" points="21.9761,-283.248 21.9761,-302.248 143.976,-302.248 143.976,-283.248 21.9761,-283.248"/>
<text text-anchor="middle" x="82.9761" y="-290.248" font-family="Helvetica,sans-Serif" font-size="10.00">domain_decompose_full</text>
</a>
</g>
</g>
<!-- Node24&#45;&gt;Node25 -->
<g id="edge9" class="edge"><title>Node24&#45;&gt;Node25</title>
<path fill="none" stroke="midnightblue" d="M375.02,-155.412C310.293,-185.85 158.539,-257.214 103.432,-283.128"/>
<polygon fill="midnightblue" stroke="midnightblue" points="376.715,-158.482 384.275,-151.059 373.736,-152.148 376.715,-158.482"/>
</g>
<!-- Node26 -->
<g id="node10" class="node"><title>Node26</title>
<g id="a_node10"><a xlink:href="domain_8h.html#acf7b74bdcb6563a4603538914fc16157" target="_top" xlink:title="domain_maintain">
<polygon fill="white" stroke="black" points="37.9761,-149.752 37.9761,-168.752 127.976,-168.752 127.976,-149.752 37.9761,-149.752"/>
<text text-anchor="middle" x="82.9761" y="-156.752" font-family="Helvetica,sans-Serif" font-size="10.00">domain_maintain</text>
</a>
</g>
</g>
<!-- Node24&#45;&gt;Node26 -->
<g id="edge18" class="edge"><title>Node24&#45;&gt;Node26</title>
<path fill="none" stroke="midnightblue" d="M347.627,-144.542C284.915,-148.028 185.646,-153.546 128.178,-156.74"/>
<polygon fill="midnightblue" stroke="midnightblue" points="347.957,-148.03 357.747,-143.98 347.568,-141.04 347.957,-148.03"/>
</g>
<!-- Node30 -->
<g id="node14" class="node"><title>Node30</title>
<g id="a_node14"><a xlink:href="fof_8h.html#ad08d3c5fd1cf1f78c75a17330a8e0348" target="_top" xlink:title="fof_save_groups">
<polygon fill="white" stroke="black" points="370.866,-41.7523 370.866,-60.7523 459.866,-60.7523 459.866,-41.7523 370.866,-41.7523"/>
<text text-anchor="middle" x="415.366" y="-48.7523" font-family="Helvetica,sans-Serif" font-size="10.00">fof_save_groups</text>
</a>
</g>
</g>
<!-- Node24&#45;&gt;Node30 -->
<g id="edge19" class="edge"><title>Node24&#45;&gt;Node30</title>
<path fill="none" stroke="midnightblue" d="M407.202,-121.556C409.388,-102.729 412.583,-75.2138 414.254,-60.826"/>
<polygon fill="midnightblue" stroke="midnightblue" points="403.699,-121.379 406.022,-131.716 410.653,-122.186 403.699,-121.379"/>
</g>
<!-- Node32 -->
<g id="node16" class="node"><title>Node32</title>
<g id="a_node16"><a xlink:href="proto_8h.html#a6a55456b331c8b01d7ae1352809b82f2" target="_top" xlink:title="gravpm_force">
<polygon fill="white" stroke="black" points="455.832,-149.752 455.832,-168.752 531.832,-168.752 531.832,-149.752 455.832,-149.752"/>
<text text-anchor="middle" x="493.832" y="-156.752" font-family="Helvetica,sans-Serif" font-size="10.00">gravpm_force</text>
</a>
</g>
</g>
<!-- Node24&#45;&gt;Node32 -->
<g id="edge22" class="edge"><title>Node24&#45;&gt;Node32</title>
<path fill="none" stroke="midnightblue" d="M455.026,-151.444C455.171,-151.473 455.316,-151.503 455.461,-151.532"/>
<polygon fill="midnightblue" stroke="midnightblue" points="462.466,-149.371 451.972,-150.83 461.085,-156.234 462.466,-149.371"/>
</g>
<!-- Node25&#45;&gt;Node19 -->
<g id="edge15" class="edge"><title>Node25&#45;&gt;Node19</title>
<path fill="none" stroke="midnightblue" d="M140.527,-304.327C146.459,-305.521 152.05,-306.646 156.823,-307.606"/>
<polygon fill="midnightblue" stroke="midnightblue" points="140.799,-300.812 130.305,-302.271 139.418,-307.675 140.799,-300.812"/>
</g>
<!-- Node25&#45;&gt;Node26 -->
<g id="edge10" class="edge"><title>Node25&#45;&gt;Node26</title>
<path fill="none" stroke="midnightblue" d="M82.9761,-272.946C82.9761,-243.79 82.9761,-190.426 82.9761,-168.766"/>
<polygon fill="midnightblue" stroke="midnightblue" points="79.4762,-273.147 82.9761,-283.147 86.4762,-273.147 79.4762,-273.147"/>
</g>
<!-- Node27 -->
<g id="node11" class="node"><title>Node27</title>
<g id="a_node11"><a xlink:href="proto_8h.html#ab080cb20bac2a1a6153a84e8cfd15374" target="_top" xlink:title="init">
<polygon fill="white" stroke="black" points="-6.75016e-14,-305.497 -6.75016e-14,-324.497 29,-324.497 29,-305.497 -6.75016e-14,-305.497"/>
<text text-anchor="middle" x="14.5" y="-312.497" font-family="Helvetica,sans-Serif" font-size="10.00">init</text>
</a>
</g>
</g>
<!-- Node25&#45;&gt;Node27 -->
<g id="edge12" class="edge"><title>Node25&#45;&gt;Node27</title>
<path fill="none" stroke="midnightblue" d="M44.0213,-305.405C38.7636,-307.113 33.6572,-308.772 29.2109,-310.217"/>
<polygon fill="midnightblue" stroke="midnightblue" points="45.1097,-308.731 53.5387,-302.312 42.9465,-302.074 45.1097,-308.731"/>
</g>
<!-- Node29 -->
<g id="node13" class="node"><title>Node29</title>
<g id="a_node13"><a xlink:href="runtests_8c.html#a549024555ca61e3f05a7100307e44f69" target="_top" xlink:title="runtests">
<polygon fill="white" stroke="black" points="262.404,-504.5 262.404,-523.5 314.404,-523.5 314.404,-504.5 262.404,-504.5"/>
<text text-anchor="middle" x="288.404" y="-511.5" font-family="Helvetica,sans-Serif" font-size="10.00">runtests</text>
</a>
</g>
</g>
<!-- Node25&#45;&gt;Node29 -->
<g id="edge16" class="edge"><title>Node25&#45;&gt;Node29</title>
<path fill="none" stroke="midnightblue" d="M98.8241,-309.816C139.652,-353.789 247.461,-469.903 279.379,-504.279"/>
<polygon fill="midnightblue" stroke="midnightblue" points="101.172,-307.201 91.8031,-302.255 96.0423,-311.964 101.172,-307.201"/>
</g>
<!-- Node26&#45;&gt;Node19 -->
<g id="edge11" class="edge"><title>Node26&#45;&gt;Node19</title>
<path fill="none" stroke="midnightblue" d="M94.0708,-178.139C113.175,-210.662 151.63,-276.124 166.165,-300.868"/>
<polygon fill="midnightblue" stroke="midnightblue" points="96.8939,-176.035 88.811,-169.185 90.8582,-179.581 96.8939,-176.035"/>
</g>
<!-- Node28 -->
<g id="node12" class="node"><title>Node28</title>
<g id="a_node12"><a xlink:href="proto_8h.html#a74dc0e5e9eefe11fc8434b62de573146" target="_top" xlink:title="begrun">
<polygon fill="white" stroke="black" points="434.686,-449.497 434.686,-468.497 480.686,-468.497 480.686,-449.497 434.686,-449.497"/>
<text text-anchor="middle" x="457.686" y="-456.497" font-family="Helvetica,sans-Serif" font-size="10.00">begrun</text>
</a>
</g>
</g>
<!-- Node27&#45;&gt;Node28 -->
<g id="edge13" class="edge"><title>Node27&#45;&gt;Node28</title>
<path fill="none" stroke="midnightblue" d="M39.1521,-323.007C117.282,-348.393 358.708,-426.837 434.604,-451.497"/>
<polygon fill="midnightblue" stroke="midnightblue" points="39.8378,-319.55 29.2456,-319.788 37.6746,-326.207 39.8378,-319.55"/>
</g>
<!-- Node28&#45;&gt;Node20 -->
<g id="edge14" class="edge"><title>Node28&#45;&gt;Node20</title>
<path fill="none" stroke="midnightblue" d="M444.779,-441.231C437.461,-431.159 428.582,-418.938 422.506,-410.575"/>
<polygon fill="midnightblue" stroke="midnightblue" points="441.989,-443.345 450.698,-449.378 447.652,-439.231 441.989,-443.345"/>
</g>
<!-- Node29&#45;&gt;Node20 -->
<g id="edge17" class="edge"><title>Node29&#45;&gt;Node20</title>
<path fill="none" stroke="midnightblue" d="M306.801,-497.59C333.683,-473.611 382.854,-429.749 404.569,-410.379"/>
<polygon fill="midnightblue" stroke="midnightblue" points="304.362,-495.076 299.229,-504.344 309.021,-500.299 304.362,-495.076"/>
</g>
<!-- Node31 -->
<g id="node15" class="node"><title>Node31</title>
<g id="a_node15"><a xlink:href="proto_8h.html#a312b6a02f7cde171412989ea5f9be48f" target="_top" xlink:title="write_checkpoint">
<polygon fill="white" stroke="black" points="116.443,-41.7523 116.443,-60.7523 206.443,-60.7523 206.443,-41.7523 116.443,-41.7523"/>
<text text-anchor="middle" x="161.443" y="-48.7523" font-family="Helvetica,sans-Serif" font-size="10.00">write_checkpoint</text>
</a>
</g>
</g>
<!-- Node30&#45;&gt;Node31 -->
<g id="edge20" class="edge"><title>Node30&#45;&gt;Node31</title>
<path fill="none" stroke="midnightblue" d="M360.763,-51.2523C314.815,-51.2523 249.886,-51.2523 206.768,-51.2523"/>
<polygon fill="midnightblue" stroke="midnightblue" points="360.845,-54.7524 370.845,-51.2523 360.845,-47.7524 360.845,-54.7524"/>
</g>
<!-- Node31&#45;&gt;Node19 -->
<g id="edge21" class="edge"><title>Node31&#45;&gt;Node19</title>
<path fill="none" stroke="midnightblue" d="M162.241,-71.0399C164.345,-123.201 169.986,-263.046 171.518,-301.015"/>
<polygon fill="midnightblue" stroke="midnightblue" points="165.728,-70.6425 161.827,-60.7917 158.733,-70.9247 165.728,-70.6425"/>
</g>
<!-- Node32&#45;&gt;Node29 -->
<g id="edge25" class="edge"><title>Node32&#45;&gt;Node29</title>
<path fill="none" stroke="midnightblue" d="M483.063,-177.849C445.611,-242.524 321.812,-456.31 293.989,-504.356"/>
<polygon fill="midnightblue" stroke="midnightblue" points="486.141,-179.518 488.124,-169.111 480.084,-176.01 486.141,-179.518"/>
</g>
<!-- Node33 -->
<g id="node17" class="node"><title>Node33</title>
<g id="a_node17"><a xlink:href="run_8c.html#abb80d08f4d52f4a7bdf28d1cecfead5b" target="_top" xlink:title="compute_accelerations">
<polygon fill="white" stroke="black" points="229.904,-0.5 229.904,-19.5 346.904,-19.5 346.904,-0.5 229.904,-0.5"/>
<text text-anchor="middle" x="288.404" y="-7.5" font-family="Helvetica,sans-Serif" font-size="10.00">compute_accelerations</text>
</a>
</g>
</g>
<!-- Node32&#45;&gt;Node33 -->
<g id="edge23" class="edge"><title>Node32&#45;&gt;Node33</title>
<path fill="none" stroke="midnightblue" d="M472.439,-143.709C430.043,-112.906 336.459,-44.9135 301.723,-19.677"/>
<polygon fill="midnightblue" stroke="midnightblue" points="470.522,-146.643 480.67,-149.689 474.637,-140.979 470.522,-146.643"/>
</g>
<!-- Node33&#45;&gt;Node19 -->
<g id="edge24" class="edge"><title>Node33&#45;&gt;Node19</title>
<path fill="none" stroke="midnightblue" d="M281.022,-29.0504C258.677,-86.7165 192.283,-258.055 175.695,-300.864"/>
<polygon fill="midnightblue" stroke="midnightblue" points="284.31,-30.2514 284.66,-19.6624 277.783,-27.7221 284.31,-30.2514"/>
</g>
</g>
</svg>
        <g id="navigator" transform="translate(0 0)" fill="#404254">
                <rect fill="#f2f5e9" fill-opacity="0.5" stroke="#606060" stroke-width=".5" x="0" y="0" width="60" height="60"/>
                <use id="zoomplus" xlink:href="#zoomPlus" x="17" y="9" onmousedown="handleZoom(evt,'in')"/>
                <use id="zoomminus" xlink:href="#zoomMin" x="42" y="9" onmousedown="handleZoom(evt,'out')"/>
                <use id="reset" xlink:href="#resetDef" x="30" y="36" onmousedown="handleReset()"/>
                <g id="arrowUp" xlink:href="#dirArrow" transform="translate(30 24)" onmousedown="handlePan(0,-1)">
                  <use xlink:href="#rim" fill="#404040">
                        <set attributeName="fill" to="#808080" begin="arrowUp.mouseover" end="arrowUp.mouseout"/>
                  </use>
                  <path fill="none" stroke="white" stroke-width="1.5" d="M0,-3.0v7 M-2.5,-0.5L0,-3.0L2.5,-0.5"/>
                </g>
                <g id="arrowRight" xlink:href="#dirArrow" transform="rotate(90) translate(36 -43)" onmousedown="handlePan(1,0)">
                  <use xlink:href="#rim" fill="#404040">
                        <set attributeName="fill" to="#808080" begin="arrowRight.mouseover" end="arrowRight.mouseout"/>
                  </use>
                  <path fill="none" stroke="white" stroke-width="1.5" d="M0,-3.0v7 M-2.5,-0.5L0,-3.0L2.5,-0.5"/>
                </g>
                <g id="arrowDown" xlink:href="#dirArrow" transform="rotate(180) translate(-30 -48)" onmousedown="handlePan(0,1)">
                  <use xlink:href="#rim" fill="#404040">
                        <set attributeName="fill" to="#808080" begin="arrowDown.mouseover" end="arrowDown.mouseout"/>
                  </use>
                  <path fill="none" stroke="white" stroke-width="1.5" d="M0,-3.0v7 M-2.5,-0.5L0,-3.0L2.5,-0.5"/>
                </g>
                <g id="arrowLeft" xlink:href="#dirArrow" transform="rotate(270) translate(-36 17)" onmousedown="handlePan(-1,0)">
                  <use xlink:href="#rim" fill="#404040">
                        <set attributeName="fill" to="#808080" begin="arrowLeft.mouseover" end="arrowLeft.mouseout"/>
                  </use>
                  <path fill="none" stroke="white" stroke-width="1.5" d="M0,-3.0v7 M-2.5,-0.5L0,-3.0L2.5,-0.5"/>
                </g>
        </g>
        <svg viewBox="0 0 15 15" width="100%" height="30px" preserveAspectRatio="xMaxYMin meet">
         <g id="arrow_out" transform="scale(0.3 0.3)">
          <a xlink:href="io_8c_ab2f2e3ccf056f3f09f214d41d60987b0_icgraph_org.svg" target="_base">
           <rect id="button" ry="5" rx="5" y="6" x="6" height="38" width="38"
                fill="#f2f5e9" fill-opacity="0.5" stroke="#606060" stroke-width="1.0"/>
           <path id="arrow"
             d="M 11.500037,31.436501 C 11.940474,20.09759 22.043105,11.32322 32.158766,21.979434 L 37.068811,17.246167 C 37.068811,17.246167 37.088388,32 37.088388,32 L 22.160133,31.978069 C 22.160133,31.978069 26.997745,27.140456 26.997745,27.140456 C 18.528582,18.264221 13.291696,25.230495 11.500037,31.436501 z"
             style="fill:#404040;"/>
          </a>
         </g>
        </svg>
</svg>
