<?xml version="1.0" encoding="UTF-8" standalone="no"?>
<!DOCTYPE svg PUBLIC "-//W3C//DTD SVG 1.1//EN"
 "http://www.w3.org/Graphics/SVG/1.1/DTD/svg11.dtd">
<!-- Generated by graphviz version 2.38.0 (20140413.2041)
 -->
<!-- Title: write_snapshot Pages: 1 -->
<svg width="996pt" height="290pt"
 viewBox="0.00 0.00 996.00 289.54" xmlns="http://www.w3.org/2000/svg" xmlns:xlink="http://www.w3.org/1999/xlink">
<g id="graph0" class="graph" transform="scale(1 1) rotate(0) translate(4 285.536)">
<title>write_snapshot</title>
<polygon fill="white" stroke="none" points="-4,4 -4,-285.536 992,-285.536 992,4 -4,4"/>
<!-- Node210 -->
<g id="node1" class="node"><title>Node210</title>
<polygon fill="#bfbfbf" stroke="black" points="0,-51.2969 0,-70.2969 83,-70.2969 83,-51.2969 0,-51.2969"/>
<text text-anchor="middle" x="41.5" y="-58.2969" font-family="Helvetica,sans-Serif" font-size="10.00">write_snapshot</text>
</g>
<!-- Node211 -->
<g id="node2" class="node"><title>Node211</title>
<g id="a_node2"><a xlink:href="petaio_8c.html#a91ff9324adbdc5b2652db62e161042b8" target="_top" xlink:title="petaio_save_snapshot">
<polygon fill="white" stroke="black" points="119,-51.2969 119,-70.2969 233,-70.2969 233,-51.2969 119,-51.2969"/>
<text text-anchor="middle" x="176" y="-58.2969" font-family="Helvetica,sans-Serif" font-size="10.00">petaio_save_snapshot</text>
</a>
</g>
</g>
<!-- Node210&#45;&gt;Node211 -->
<g id="edge1" class="edge"><title>Node210&#45;&gt;Node211</title>
<path fill="none" stroke="midnightblue" d="M83.3355,-60.7969C91.4241,-60.7969 100.108,-60.7969 108.792,-60.7969"/>
<polygon fill="midnightblue" stroke="midnightblue" points="108.949,-64.297 118.949,-60.7969 108.949,-57.297 108.949,-64.297"/>
</g>
<!-- Node212 -->
<g id="node3" class="node"><title>Node212</title>
<g id="a_node3"><a xlink:href="endrun_8c.html#a6567cd867c5549fb6586e19ccd819764" target="_top" xlink:title="message">
<polygon fill="white" stroke="black" points="705.5,-51.2969 705.5,-70.2969 761.5,-70.2969 761.5,-51.2969 705.5,-51.2969"/>
<text text-anchor="middle" x="733.5" y="-58.2969" font-family="Helvetica,sans-Serif" font-size="10.00">message</text>
</a>
</g>
</g>
<!-- Node211&#45;&gt;Node212 -->
<g id="edge2" class="edge"><title>Node211&#45;&gt;Node212</title>
<path fill="none" stroke="midnightblue" d="M203.117,-51.1563C260.95,-30.9894 404.262,12.4849 525,-3.79691 586.737,-12.1223 656.086,-33.786 696.936,-47.8794"/>
<polygon fill="midnightblue" stroke="midnightblue" points="695.844,-51.2054 706.439,-51.1994 698.153,-44.597 695.844,-51.2054"/>
</g>
<!-- Node216 -->
<g id="node7" class="node"><title>Node216</title>
<g id="a_node7"><a xlink:href="petaio_8c.html#a9b867bd3e997c113f67500b40a7aa593" target="_top" xlink:title="petaio_save_internal">
<polygon fill="white" stroke="black" points="269,-127.297 269,-146.297 375,-146.297 375,-127.297 269,-127.297"/>
<text text-anchor="middle" x="322" y="-134.297" font-family="Helvetica,sans-Serif" font-size="10.00">petaio_save_internal</text>
</a>
</g>
</g>
<!-- Node211&#45;&gt;Node216 -->
<g id="edge6" class="edge"><title>Node211&#45;&gt;Node216</title>
<path fill="none" stroke="midnightblue" d="M195.238,-70.4224C220.124,-83.5566 264.918,-107.198 293.784,-122.433"/>
<polygon fill="midnightblue" stroke="midnightblue" points="292.433,-125.677 302.91,-127.25 295.7,-119.487 292.433,-125.677"/>
</g>
<!-- Node213 -->
<g id="node4" class="node"><title>Node213</title>
<g id="a_node4"><a xlink:href="endrun_8c.html#a7267113a7c0a094743bb565eabc695d1" target="_top" xlink:title="messagev">
<polygon fill="white" stroke="black" points="802,-89.2969 802,-108.297 864,-108.297 864,-89.2969 802,-89.2969"/>
<text text-anchor="middle" x="833" y="-96.2969" font-family="Helvetica,sans-Serif" font-size="10.00">messagev</text>
</a>
</g>
</g>
<!-- Node212&#45;&gt;Node213 -->
<g id="edge3" class="edge"><title>Node212&#45;&gt;Node213</title>
<path fill="none" stroke="midnightblue" d="M759.103,-70.3859C770.881,-74.9763 785.175,-80.5472 797.974,-85.5357"/>
<polygon fill="midnightblue" stroke="midnightblue" points="796.816,-88.8406 807.405,-89.211 799.358,-82.3185 796.816,-88.8406"/>
</g>
<!-- Node214 -->
<g id="node5" class="node"><title>Node214</title>
<g id="a_node5"><a xlink:href="endrun_8c.html#a87108946670b4c3afbe846c6726675ff" target="_top" xlink:title="putline">
<polygon fill="white" stroke="black" points="921.5,-108.297 921.5,-127.297 966.5,-127.297 966.5,-108.297 921.5,-108.297"/>
<text text-anchor="middle" x="944" y="-115.297" font-family="Helvetica,sans-Serif" font-size="10.00">putline</text>
</a>
</g>
</g>
<!-- Node213&#45;&gt;Node214 -->
<g id="edge4" class="edge"><title>Node213&#45;&gt;Node214</title>
<path fill="none" stroke="midnightblue" d="M864.073,-104.039C878.677,-106.585 896.231,-109.644 911.072,-112.231"/>
<polygon fill="midnightblue" stroke="midnightblue" points="910.866,-115.748 921.318,-114.018 912.068,-108.852 910.866,-115.748"/>
</g>
<!-- Node215 -->
<g id="node6" class="node"><title>Node215</title>
<g id="a_node6"><a xlink:href="endrun_8c.html#a1200f02a595ab7cbe17c9e36ff32af0f" target="_top" xlink:title="show_backtrace">
<polygon fill="white" stroke="black" points="900,-70.2969 900,-89.2969 988,-89.2969 988,-70.2969 900,-70.2969"/>
<text text-anchor="middle" x="944" y="-77.2969" font-family="Helvetica,sans-Serif" font-size="10.00">show_backtrace</text>
</a>
</g>
</g>
<!-- Node213&#45;&gt;Node215 -->
<g id="edge5" class="edge"><title>Node213&#45;&gt;Node215</title>
<path fill="none" stroke="midnightblue" d="M864.073,-93.5548C872.131,-92.1502 881.087,-90.589 889.991,-89.0371"/>
<polygon fill="midnightblue" stroke="midnightblue" points="890.719,-92.463 899.969,-87.2977 889.517,-85.567 890.719,-92.463"/>
</g>
<!-- Node217 -->
<g id="node8" class="node"><title>Node217</title>
<g id="a_node8"><a xlink:href="endrun_8c.html#ad963d7efdb9f10f7a2298c8ccd222ab0" target="_top" xlink:title="endrun">
<polygon fill="white" stroke="black" points="710.5,-127.297 710.5,-146.297 756.5,-146.297 756.5,-127.297 710.5,-127.297"/>
<text text-anchor="middle" x="733.5" y="-134.297" font-family="Helvetica,sans-Serif" font-size="10.00">endrun</text>
</a>
</g>
</g>
<!-- Node216&#45;&gt;Node217 -->
<g id="edge7" class="edge"><title>Node216&#45;&gt;Node217</title>
<path fill="none" stroke="midnightblue" d="M326.696,-146.539C336.341,-170.435 364.778,-231.887 411,-257.797 469.339,-290.499 494.174,-267.128 561,-269.797 607.185,-271.641 625.608,-293.979 665,-269.797 705.683,-244.822 722.777,-186.842 729.158,-156.347"/>
<polygon fill="midnightblue" stroke="midnightblue" points="732.607,-156.947 731.048,-146.467 725.732,-155.632 732.607,-156.947"/>
</g>
<!-- Node218 -->
<g id="node9" class="node"><title>Node218</title>
<g id="a_node9"><a xlink:href="petaio_8c.html#ad13d20d78ff834f5005e68ad11d228e3" target="_top" xlink:title="petaio_build_selection">
<polygon fill="white" stroke="black" points="411.5,-165.297 411.5,-184.297 524.5,-184.297 524.5,-165.297 411.5,-165.297"/>
<text text-anchor="middle" x="468" y="-172.297" font-family="Helvetica,sans-Serif" font-size="10.00">petaio_build_selection</text>
</a>
</g>
</g>
<!-- Node216&#45;&gt;Node218 -->
<g id="edge9" class="edge"><title>Node216&#45;&gt;Node218</title>
<path fill="none" stroke="midnightblue" d="M359.337,-146.386C378.083,-151.333 401.143,-157.418 421.107,-162.686"/>
<polygon fill="midnightblue" stroke="midnightblue" points="420.362,-166.109 430.924,-165.277 422.148,-159.341 420.362,-166.109"/>
</g>
<!-- Node219 -->
<g id="node10" class="node"><title>Node219</title>
<g id="a_node10"><a xlink:href="system_8c.html#a866c4b0425665030c89933c11752b1fe" target="_top" xlink:title="sumup_large_ints">
<polygon fill="white" stroke="black" points="421.5,-127.297 421.5,-146.297 514.5,-146.297 514.5,-127.297 421.5,-127.297"/>
<text text-anchor="middle" x="468" y="-134.297" font-family="Helvetica,sans-Serif" font-size="10.00">sumup_large_ints</text>
</a>
</g>
</g>
<!-- Node216&#45;&gt;Node219 -->
<g id="edge10" class="edge"><title>Node216&#45;&gt;Node219</title>
<path fill="none" stroke="midnightblue" d="M375.395,-136.797C386.963,-136.797 399.263,-136.797 410.969,-136.797"/>
<polygon fill="midnightblue" stroke="midnightblue" points="411.071,-140.297 421.071,-136.797 411.071,-133.297 411.071,-140.297"/>
</g>
<!-- Node220 -->
<g id="node11" class="node"><title>Node220</title>
<g id="a_node11"><a xlink:href="petaio_8c.html#abd41baa0f76d18fe2abbadb99ba1ffe9" target="_top" xlink:title="petaio_write_header">
<polygon fill="white" stroke="black" points="561,-241.297 561,-260.297 665,-260.297 665,-241.297 561,-241.297"/>
<text text-anchor="middle" x="613" y="-248.297" font-family="Helvetica,sans-Serif" font-size="10.00">petaio_write_header</text>
</a>
</g>
</g>
<!-- Node216&#45;&gt;Node220 -->
<g id="edge11" class="edge"><title>Node216&#45;&gt;Node220</title>
<path fill="none" stroke="midnightblue" d="M328.541,-146.483C340.586,-166.496 371.294,-212.177 411,-231.797 454.309,-253.197 509.243,-257.062 550.732,-256.07"/>
<polygon fill="midnightblue" stroke="midnightblue" points="551.1,-259.56 560.975,-255.721 550.862,-252.564 551.1,-259.56"/>
</g>
<!-- Node221 -->
<g id="node12" class="node"><title>Node221</title>
<g id="a_node12"><a xlink:href="petaio_8c.html#a5423c5b1a1f1616ef293b2aaa5eb43ea" target="_top" xlink:title="petaio_build_buffer">
<polygon fill="white" stroke="black" points="419,-203.297 419,-222.297 517,-222.297 517,-203.297 419,-203.297"/>
<text text-anchor="middle" x="468" y="-210.297" font-family="Helvetica,sans-Serif" font-size="10.00">petaio_build_buffer</text>
</a>
</g>
</g>
<!-- Node216&#45;&gt;Node221 -->
<g id="edge13" class="edge"><title>Node216&#45;&gt;Node221</title>
<path fill="none" stroke="midnightblue" d="M335.528,-146.346C352.084,-158.622 382.493,-179.994 411,-193.797 415.389,-195.922 420.077,-197.913 424.803,-199.746"/>
<polygon fill="midnightblue" stroke="midnightblue" points="423.876,-203.134 434.47,-203.279 426.279,-196.559 423.876,-203.134"/>
</g>
<!-- Node223 -->
<g id="node14" class="node"><title>Node223</title>
<g id="a_node14"><a xlink:href="petaio_8c.html#a8d4abd78b70e4a1dfbed5db05cd89073" target="_top" xlink:title="petaio_save_block">
<polygon fill="white" stroke="black" points="564,-89.2969 564,-108.297 662,-108.297 662,-89.2969 564,-89.2969"/>
<text text-anchor="middle" x="613" y="-96.2969" font-family="Helvetica,sans-Serif" font-size="10.00">petaio_save_block</text>
</a>
</g>
</g>
<!-- Node216&#45;&gt;Node223 -->
<g id="edge16" class="edge"><title>Node216&#45;&gt;Node223</title>
<path fill="none" stroke="midnightblue" d="M333.355,-127.164C348.838,-113.491 379.579,-89.0841 411,-79.7969 465.538,-63.677 531.685,-75.6224 572.817,-86.5333"/>
<polygon fill="midnightblue" stroke="midnightblue" points="572.143,-89.978 582.713,-89.2673 574.007,-83.2307 572.143,-89.978"/>
</g>
<!-- Node225 -->
<g id="node16" class="node"><title>Node225</title>
<g id="a_node16"><a xlink:href="petaio_8c.html#a00bc8b1ba2ab1de94d983b08b14580c7" target="_top" xlink:title="petaio_destroy_buffer">
<polygon fill="white" stroke="black" points="413,-13.2969 413,-32.2969 523,-32.2969 523,-13.2969 413,-13.2969"/>
<text text-anchor="middle" x="468" y="-20.2969" font-family="Helvetica,sans-Serif" font-size="10.00">petaio_destroy_buffer</text>
</a>
</g>
</g>
<!-- Node216&#45;&gt;Node225 -->
<g id="edge20" class="edge"><title>Node216&#45;&gt;Node225</title>
<path fill="none" stroke="midnightblue" d="M330.26,-127.181C344.194,-109.281 376.389,-70.5144 411,-46.7969 416.687,-42.9002 423.107,-39.4321 429.519,-36.4269"/>
<polygon fill="midnightblue" stroke="midnightblue" points="431.062,-39.5725 438.822,-32.3591 428.257,-33.1589 431.062,-39.5725"/>
</g>
<!-- Node226 -->
<g id="node17" class="node"><title>Node226</title>
<g id="a_node17"><a xlink:href="petaio_8c.html#a37682bda41c11127b2cdfb6ec3d21022" target="_top" xlink:title="petaio_save_neutrinos">
<polygon fill="white" stroke="black" points="411,-89.2969 411,-108.297 525,-108.297 525,-89.2969 411,-89.2969"/>
<text text-anchor="middle" x="468" y="-96.2969" font-family="Helvetica,sans-Serif" font-size="10.00">petaio_save_neutrinos</text>
</a>
</g>
</g>
<!-- Node216&#45;&gt;Node226 -->
<g id="edge21" class="edge"><title>Node216&#45;&gt;Node226</title>
<path fill="none" stroke="midnightblue" d="M359.337,-127.208C378.083,-122.261 401.143,-116.176 421.107,-110.908"/>
<polygon fill="midnightblue" stroke="midnightblue" points="422.148,-114.253 430.924,-108.317 420.362,-107.484 422.148,-114.253"/>
</g>
<!-- Node217&#45;&gt;Node213 -->
<g id="edge8" class="edge"><title>Node217&#45;&gt;Node213</title>
<path fill="none" stroke="midnightblue" d="M756.624,-128.174C768.831,-123.417 784.251,-117.407 797.959,-112.064"/>
<polygon fill="midnightblue" stroke="midnightblue" points="799.521,-115.212 807.568,-108.319 796.979,-108.69 799.521,-115.212"/>
</g>
<!-- Node220&#45;&gt;Node217 -->
<g id="edge12" class="edge"><title>Node220&#45;&gt;Node217</title>
<path fill="none" stroke="midnightblue" d="M640.59,-241.226C648.911,-237.487 657.792,-232.668 665,-226.797 689.986,-206.444 710.804,-174.939 722.448,-155.113"/>
<polygon fill="midnightblue" stroke="midnightblue" points="725.492,-156.84 727.405,-146.419 719.411,-153.373 725.492,-156.84"/>
</g>
<!-- Node221&#45;&gt;Node217 -->
<g id="edge14" class="edge"><title>Node221&#45;&gt;Node217</title>
<path fill="none" stroke="midnightblue" d="M517.27,-215.959C558.182,-216.837 617.589,-213.783 665,-193.797 685.834,-185.014 705.055,-167.447 717.613,-154.124"/>
<polygon fill="midnightblue" stroke="midnightblue" points="720.406,-156.254 724.526,-146.493 715.218,-151.555 720.406,-156.254"/>
</g>
<!-- Node222 -->
<g id="node13" class="node"><title>Node222</title>
<g id="a_node13"><a xlink:href="petaio_8c.html#aafe1fe998e7ca93a780ad69be4d061dc" target="_top" xlink:title="petaio_alloc_buffer">
<polygon fill="white" stroke="black" points="564,-165.297 564,-184.297 662,-184.297 662,-165.297 564,-165.297"/>
<text text-anchor="middle" x="613" y="-172.297" font-family="Helvetica,sans-Serif" font-size="10.00">petaio_alloc_buffer</text>
</a>
</g>
</g>
<!-- Node221&#45;&gt;Node222 -->
<g id="edge15" class="edge"><title>Node221&#45;&gt;Node222</title>
<path fill="none" stroke="midnightblue" d="M505.085,-203.208C523.63,-198.28 546.426,-192.222 566.199,-186.968"/>
<polygon fill="midnightblue" stroke="midnightblue" points="567.161,-190.334 575.927,-184.383 565.363,-183.569 567.161,-190.334"/>
</g>
<!-- Node223&#45;&gt;Node212 -->
<g id="edge18" class="edge"><title>Node223&#45;&gt;Node212</title>
<path fill="none" stroke="midnightblue" d="M643.903,-89.2079C659.574,-84.1826 678.909,-77.9821 695.515,-72.6572"/>
<polygon fill="midnightblue" stroke="midnightblue" points="696.99,-75.8597 705.444,-69.4732 694.853,-69.194 696.99,-75.8597"/>
</g>
<!-- Node223&#45;&gt;Node217 -->
<g id="edge19" class="edge"><title>Node223&#45;&gt;Node217</title>
<path fill="none" stroke="midnightblue" d="M643.903,-108.386C661.212,-113.937 682.991,-120.921 700.625,-126.575"/>
<polygon fill="midnightblue" stroke="midnightblue" points="699.872,-130.009 710.463,-129.73 702.009,-123.344 699.872,-130.009"/>
</g>
<!-- Node224 -->
<g id="node15" class="node"><title>Node224</title>
<g id="a_node15"><a xlink:href="system_8c.html#a1d471d98379273269e8045d2998eca73" target="_top" xlink:title="count_sum">
<polygon fill="white" stroke="black" points="701,-89.2969 701,-108.297 766,-108.297 766,-89.2969 701,-89.2969"/>
<text text-anchor="middle" x="733.5" y="-96.2969" font-family="Helvetica,sans-Serif" font-size="10.00">count_sum</text>
</a>
</g>
</g>
<!-- Node223&#45;&gt;Node224 -->
<g id="edge17" class="edge"><title>Node223&#45;&gt;Node224</title>
<path fill="none" stroke="midnightblue" d="M662.198,-98.7969C671.696,-98.7969 681.586,-98.7969 690.846,-98.7969"/>
<polygon fill="midnightblue" stroke="midnightblue" points="690.978,-102.297 700.978,-98.7969 690.978,-95.297 690.978,-102.297"/>
</g>
<!-- Node226&#45;&gt;Node217 -->
<g id="edge22" class="edge"><title>Node226&#45;&gt;Node217</title>
<path fill="none" stroke="midnightblue" d="M510.985,-108.328C526.626,-111.651 544.569,-115.196 561,-117.797 609.4,-125.459 665.969,-131.087 700.506,-134.152"/>
<polygon fill="midnightblue" stroke="midnightblue" points="700.218,-137.64 710.484,-135.02 700.825,-130.666 700.218,-137.64"/>
</g>
<!-- Node226&#45;&gt;Node223 -->
<g id="edge23" class="edge"><title>Node226&#45;&gt;Node223</title>
<path fill="none" stroke="midnightblue" d="M525.107,-98.7969C534.531,-98.7969 544.329,-98.7969 553.804,-98.7969"/>
<polygon fill="midnightblue" stroke="midnightblue" points="553.926,-102.297 563.926,-98.7969 553.926,-95.297 553.926,-102.297"/>
</g>
</g>
</svg>
