<?xml version="1.0" encoding="UTF-8" standalone="no"?>
<!DOCTYPE svg PUBLIC "-//W3C//DTD SVG 1.1//EN"
 "http://www.w3.org/Graphics/SVG/1.1/DTD/svg11.dtd">
<!-- Generated by graphviz version 2.50.0 (0)
 -->
<!-- Title: lightcone_init_entry Pages: 1 -->
<svg width="838pt" height="85pt"
 viewBox="0.00 0.00 838.00 85.00" xmlns="http://www.w3.org/2000/svg" xmlns:xlink="http://www.w3.org/1999/xlink">
<g id="graph0" class="graph" transform="scale(1 1) rotate(0) translate(4 81)">
<title>lightcone_init_entry</title>
<polygon fill="white" stroke="transparent" points="-4,4 -4,-81 834,-81 834,4 -4,4"/>
<!-- Node1 -->
<g id="node1" class="node">
<title>Node1</title>
<g id="a_node1"><a xlink:title=" ">
<polygon fill="#bfbfbf" stroke="black" points="0,-19.5 0,-38.5 113,-38.5 113,-19.5 0,-19.5"/>
<text text-anchor="middle" x="56.5" y="-26.5" font-family="Helvetica,sans-Serif" font-size="10.00">lightcone_init_entry</text>
</a>
</g>
</g>
<!-- Node2 -->
<g id="node2" class="node">
<title>Node2</title>
<g id="a_node2"><a xlink:href="lightcone_8c.html#a53356309f04e9e22e9631e0be5a97b36" target="_top" xlink:title=" ">
<polygon fill="white" stroke="black" points="149,-19.5 149,-38.5 196,-38.5 196,-19.5 149,-19.5"/>
<text text-anchor="middle" x="172.5" y="-26.5" font-family="Helvetica,sans-Serif" font-size="10.00">kernel</text>
</a>
</g>
</g>
<!-- Node1&#45;&gt;Node2 -->
<g id="edge1" class="edge">
<title>Node1&#45;&gt;Node2</title>
<path fill="none" stroke="midnightblue" d="M113.16,-29C121.97,-29 130.81,-29 138.86,-29"/>
<polygon fill="midnightblue" stroke="midnightblue" points="138.91,-32.5 148.91,-29 138.91,-25.5 138.91,-32.5"/>
</g>
<!-- Node3 -->
<g id="node3" class="node">
<title>Node3</title>
<g id="a_node3"><a xlink:href="cosmology_8c.html#ab425f16e6fe06110e2fb4944065b81bb" target="_top" xlink:title=" ">
<polygon fill="white" stroke="black" points="232,-19.5 232,-38.5 327,-38.5 327,-19.5 232,-19.5"/>
<text text-anchor="middle" x="279.5" y="-26.5" font-family="Helvetica,sans-Serif" font-size="10.00">hubble_function</text>
</a>
</g>
</g>
<!-- Node2&#45;&gt;Node3 -->
<g id="edge2" class="edge">
<title>Node2&#45;&gt;Node3</title>
<path fill="none" stroke="midnightblue" d="M196.03,-29C203.64,-29 212.53,-29 221.59,-29"/>
<polygon fill="midnightblue" stroke="midnightblue" points="221.84,-32.5 231.84,-29 221.84,-25.5 221.84,-32.5"/>
</g>
<!-- Node4 -->
<g id="node4" class="node">
<title>Node4</title>
<g id="a_node4"><a xlink:href="omega__nu__single_8c.html#aca4b20af5bd369bcd096c670c27c6e36" target="_top" xlink:title=" ">
<polygon fill="white" stroke="black" points="363,-38.5 363,-57.5 452,-57.5 452,-38.5 363,-38.5"/>
<text text-anchor="middle" x="407.5" y="-45.5" font-family="Helvetica,sans-Serif" font-size="10.00">get_omega_nu</text>
</a>
</g>
</g>
<!-- Node3&#45;&gt;Node4 -->
<g id="edge3" class="edge">
<title>Node3&#45;&gt;Node4</title>
<path fill="none" stroke="midnightblue" d="M327.06,-36.02C335.42,-37.28 344.2,-38.61 352.75,-39.9"/>
<polygon fill="midnightblue" stroke="midnightblue" points="352.23,-43.36 362.64,-41.39 353.27,-36.43 352.23,-43.36"/>
</g>
<!-- Node9 -->
<g id="node9" class="node">
<title>Node9</title>
<g id="a_node9"><a xlink:href="cosmology_8c.html#a187e0106f302118344b027cf942347e0" target="_top" xlink:title=" ">
<polygon fill="white" stroke="black" points="372,-0.5 372,-19.5 443,-19.5 443,-0.5 372,-0.5"/>
<text text-anchor="middle" x="407.5" y="-7.5" font-family="Helvetica,sans-Serif" font-size="10.00">OmegaFLD</text>
</a>
</g>
</g>
<!-- Node3&#45;&gt;Node9 -->
<g id="edge9" class="edge">
<title>Node3&#45;&gt;Node9</title>
<path fill="none" stroke="midnightblue" d="M327.06,-21.98C338.44,-20.26 350.59,-18.43 361.87,-16.73"/>
<polygon fill="midnightblue" stroke="midnightblue" points="362.58,-20.16 371.95,-15.21 361.54,-13.24 362.58,-20.16"/>
</g>
<!-- Node5 -->
<g id="node5" class="node">
<title>Node5</title>
<g id="a_node5"><a xlink:href="omega__nu__single_8c.html#a5d81e97a54be82580201631d495bd694" target="_top" xlink:title=" ">
<polygon fill="white" stroke="black" points="488,-38.5 488,-57.5 538,-57.5 538,-38.5 488,-38.5"/>
<text text-anchor="middle" x="513" y="-45.5" font-family="Helvetica,sans-Serif" font-size="10.00">rho_nu</text>
</a>
</g>
</g>
<!-- Node4&#45;&gt;Node5 -->
<g id="edge4" class="edge">
<title>Node4&#45;&gt;Node5</title>
<path fill="none" stroke="midnightblue" d="M452.09,-48C460.72,-48 469.65,-48 477.9,-48"/>
<polygon fill="midnightblue" stroke="midnightblue" points="477.92,-51.5 487.92,-48 477.92,-44.5 477.92,-51.5"/>
</g>
<!-- Node6 -->
<g id="node6" class="node">
<title>Node6</title>
<g id="a_node6"><a xlink:href="omega__nu__single_8c.html#a5d053cc2c3fa75a3c357bbb99af5de62" target="_top" xlink:title=" ">
<polygon fill="white" stroke="black" points="574,-57.5 574,-76.5 665,-76.5 665,-57.5 574,-57.5"/>
<text text-anchor="middle" x="619.5" y="-64.5" font-family="Helvetica,sans-Serif" font-size="10.00">non_rel_rho_nu</text>
</a>
</g>
</g>
<!-- Node5&#45;&gt;Node6 -->
<g id="edge5" class="edge">
<title>Node5&#45;&gt;Node6</title>
<path fill="none" stroke="midnightblue" d="M538.24,-52.41C545.95,-53.81 554.81,-55.42 563.78,-57.05"/>
<polygon fill="midnightblue" stroke="midnightblue" points="563.41,-60.54 573.88,-58.89 564.67,-53.65 563.41,-60.54"/>
</g>
<!-- Node8 -->
<g id="node8" class="node">
<title>Node8</title>
<g id="a_node8"><a xlink:href="omega__nu__single_8c.html#ac447b6c2f0363d19b68b2ce9f29009c4" target="_top" xlink:title=" ">
<polygon fill="white" stroke="black" points="585.5,-19.5 585.5,-38.5 653.5,-38.5 653.5,-19.5 585.5,-19.5"/>
<text text-anchor="middle" x="619.5" y="-26.5" font-family="Helvetica,sans-Serif" font-size="10.00">rel_rho_nu</text>
</a>
</g>
</g>
<!-- Node5&#45;&gt;Node8 -->
<g id="edge7" class="edge">
<title>Node5&#45;&gt;Node8</title>
<path fill="none" stroke="midnightblue" d="M538.24,-43.59C549.27,-41.59 562.68,-39.15 575.35,-36.85"/>
<polygon fill="midnightblue" stroke="midnightblue" points="576.08,-40.27 585.29,-35.04 574.83,-33.38 576.08,-40.27"/>
</g>
<!-- Node7 -->
<g id="node7" class="node">
<title>Node7</title>
<g id="a_node7"><a xlink:href="omega__nu__single_8c.html#acf81fc868c0deb61c3541958dd6114be" target="_top" xlink:title=" ">
<polygon fill="white" stroke="black" points="701,-38.5 701,-57.5 830,-57.5 830,-38.5 701,-38.5"/>
<text text-anchor="middle" x="765.5" y="-45.5" font-family="Helvetica,sans-Serif" font-size="10.00">get_rho_nu_conversion</text>
</a>
</g>
</g>
<!-- Node6&#45;&gt;Node7 -->
<g id="edge6" class="edge">
<title>Node6&#45;&gt;Node7</title>
<path fill="none" stroke="midnightblue" d="M665.27,-61.09C673.49,-60.01 682.26,-58.85 691.07,-57.69"/>
<polygon fill="midnightblue" stroke="midnightblue" points="691.53,-61.16 700.99,-56.38 690.62,-54.22 691.53,-61.16"/>
</g>
<!-- Node8&#45;&gt;Node7 -->
<g id="edge8" class="edge">
<title>Node8&#45;&gt;Node7</title>
<path fill="none" stroke="midnightblue" d="M653.54,-33.36C664.72,-34.83 677.7,-36.55 690.75,-38.27"/>
<polygon fill="midnightblue" stroke="midnightblue" points="690.35,-41.75 700.72,-39.58 691.26,-34.81 690.35,-41.75"/>
</g>
</g>
</svg>
