<?xml version="1.0" encoding="UTF-8" standalone="no"?>
<!DOCTYPE svg PUBLIC "-//W3C//DTD SVG 1.1//EN"
 "http://www.w3.org/Graphics/SVG/1.1/DTD/svg11.dtd">
<!-- Generated by graphviz version 2.38.0 (20140413.2041)
 -->
<!-- Title: kernel Pages: 1 -->
<svg width="1193pt" height="128pt"
 viewBox="0.00 0.00 1193.00 127.99" xmlns="http://www.w3.org/2000/svg" xmlns:xlink="http://www.w3.org/1999/xlink">
<g id="graph0" class="graph" transform="scale(1 1) rotate(0) translate(4 123.989)">
<title>kernel</title>
<polygon fill="white" stroke="none" points="-4,4 -4,-123.989 1189,-123.989 1189,4 -4,4"/>
<!-- Node9 -->
<g id="node1" class="node"><title>Node9</title>
<polygon fill="#bfbfbf" stroke="black" points="0,-43.4887 0,-62.4887 43,-62.4887 43,-43.4887 0,-43.4887"/>
<text text-anchor="middle" x="21.5" y="-50.4887" font-family="Helvetica,sans-Serif" font-size="10.00">kernel</text>
</g>
<!-- Node10 -->
<g id="node2" class="node"><title>Node10</title>
<g id="a_node2"><a xlink:href="density_8c.html#a146d61fe2d2f53ea9b7fabf2ea5e90b7" target="_top" xlink:title="density_ngbiter">
<polygon fill="white" stroke="black" points="88,-43.4887 88,-62.4887 171,-62.4887 171,-43.4887 88,-43.4887"/>
<text text-anchor="middle" x="129.5" y="-50.4887" font-family="Helvetica,sans-Serif" font-size="10.00">density_ngbiter</text>
</a>
</g>
</g>
<!-- Node9&#45;&gt;Node10 -->
<g id="edge1" class="edge"><title>Node9&#45;&gt;Node10</title>
<path fill="none" stroke="midnightblue" d="M53.3396,-52.9887C64.0661,-52.9887 76.2697,-52.9887 87.6775,-52.9887"/>
<polygon fill="midnightblue" stroke="midnightblue" points="53.1895,-49.4888 43.1895,-52.9887 53.1895,-56.4888 53.1895,-49.4888"/>
</g>
<!-- Node22 -->
<g id="node14" class="node"><title>Node22</title>
<g id="a_node14"><a xlink:href="lightcone_8c.html#a7fdea7b197fee74242ceb6a86a63bae3" target="_top" xlink:title="lightcone_init_entry">
<polygon fill="white" stroke="black" points="79,-5.4887 79,-24.4887 180,-24.4887 180,-5.4887 79,-5.4887"/>
<text text-anchor="middle" x="129.5" y="-12.4887" font-family="Helvetica,sans-Serif" font-size="10.00">lightcone_init_entry</text>
</a>
</g>
</g>
<!-- Node9&#45;&gt;Node22 -->
<g id="edge16" class="edge"><title>Node9&#45;&gt;Node22</title>
<path fill="none" stroke="midnightblue" d="M52.8204,-42.1191C68.2815,-36.5765 86.9162,-29.8961 101.826,-24.5513"/>
<polygon fill="midnightblue" stroke="midnightblue" points="51.4218,-38.9023 43.1895,-45.5717 53.784,-45.4917 51.4218,-38.9023"/>
</g>
<!-- Node24 -->
<g id="node16" class="node"><title>Node24</title>
<g id="a_node16"><a xlink:href="param_8h.html#a952eae1977b498c4fdfabed1742a3ba2" target="_top" xlink:title="read_parameter_file">
<polygon fill="white" stroke="black" points="466,-100.489 466,-119.489 568,-119.489 568,-100.489 466,-100.489"/>
<text text-anchor="middle" x="517" y="-107.489" font-family="Helvetica,sans-Serif" font-size="10.00">read_parameter_file</text>
</a>
</g>
</g>
<!-- Node9&#45;&gt;Node24 -->
<g id="edge19" class="edge"><title>Node9&#45;&gt;Node24</title>
<path fill="none" stroke="midnightblue" d="M52.5557,-64.5685C60.9987,-67.4157 70.2621,-70.1667 79,-71.9887 217.106,-100.786 384.168,-107.804 465.961,-109.484"/>
<polygon fill="midnightblue" stroke="midnightblue" points="53.6966,-61.2597 43.1018,-61.2319 51.3668,-67.8606 53.6966,-61.2597"/>
</g>
<!-- Node11 -->
<g id="node3" class="node"><title>Node11</title>
<g id="a_node3"><a xlink:href="density_8c.html#a69886540d0642590a0022fc14ce61f06" target="_top" xlink:title="density_internal">
<polygon fill="white" stroke="black" points="216,-43.4887 216,-62.4887 301,-62.4887 301,-43.4887 216,-43.4887"/>
<text text-anchor="middle" x="258.5" y="-50.4887" font-family="Helvetica,sans-Serif" font-size="10.00">density_internal</text>
</a>
</g>
</g>
<!-- Node10&#45;&gt;Node11 -->
<g id="edge2" class="edge"><title>Node10&#45;&gt;Node11</title>
<path fill="none" stroke="midnightblue" d="M181.286,-52.9887C192.672,-52.9887 204.627,-52.9887 215.605,-52.9887"/>
<polygon fill="midnightblue" stroke="midnightblue" points="181.033,-49.4888 171.033,-52.9887 181.033,-56.4888 181.033,-49.4888"/>
</g>
<!-- Node12 -->
<g id="node4" class="node"><title>Node12</title>
<g id="a_node4"><a xlink:href="proto_8h.html#a8ce8ad3893801ac7d380efd9b7ef26d3" target="_top" xlink:title="density">
<polygon fill="white" stroke="black" points="354.5,-62.4887 354.5,-81.4887 402.5,-81.4887 402.5,-62.4887 354.5,-62.4887"/>
<text text-anchor="middle" x="378.5" y="-69.4887" font-family="Helvetica,sans-Serif" font-size="10.00">density</text>
</a>
</g>
</g>
<!-- Node11&#45;&gt;Node12 -->
<g id="edge3" class="edge"><title>Node11&#45;&gt;Node12</title>
<path fill="none" stroke="midnightblue" d="M311.379,-61.342C326.438,-63.7668 342.125,-66.2927 354.439,-68.2754"/>
<polygon fill="midnightblue" stroke="midnightblue" points="311.532,-57.8217 301.102,-59.6874 310.419,-64.7327 311.532,-57.8217"/>
</g>
<!-- Node21 -->
<g id="node13" class="node"><title>Node21</title>
<g id="a_node13"><a xlink:href="proto_8h.html#a137ca78a0bd40fa7a75438e90e4f66a8" target="_top" xlink:title="density_update">
<polygon fill="white" stroke="black" points="337,-24.4887 337,-43.4887 420,-43.4887 420,-24.4887 337,-24.4887"/>
<text text-anchor="middle" x="378.5" y="-31.4887" font-family="Helvetica,sans-Serif" font-size="10.00">density_update</text>
</a>
</g>
</g>
<!-- Node11&#45;&gt;Node21 -->
<g id="edge14" class="edge"><title>Node11&#45;&gt;Node21</title>
<path fill="none" stroke="midnightblue" d="M311.031,-44.6913C319.611,-43.3099 328.404,-41.894 336.67,-40.563"/>
<polygon fill="midnightblue" stroke="midnightblue" points="310.419,-41.2447 301.102,-46.29 311.532,-48.1557 310.419,-41.2447"/>
</g>
<!-- Node13 -->
<g id="node5" class="node"><title>Node13</title>
<g id="a_node5"><a xlink:href="init_8c.html#a643ef34b585446f8ccbbf3239df2db71" target="_top" xlink:title="setup_smoothinglengths">
<polygon fill="white" stroke="black" points="456,-24.4887 456,-43.4887 578,-43.4887 578,-24.4887 456,-24.4887"/>
<text text-anchor="middle" x="517" y="-31.4887" font-family="Helvetica,sans-Serif" font-size="10.00">setup_smoothinglengths</text>
</a>
</g>
</g>
<!-- Node12&#45;&gt;Node13 -->
<g id="edge4" class="edge"><title>Node12&#45;&gt;Node13</title>
<path fill="none" stroke="midnightblue" d="M412.4,-62.8298C433.363,-56.994 460.471,-49.4473 481.7,-43.5375"/>
<polygon fill="midnightblue" stroke="midnightblue" points="411.35,-59.4888 402.655,-65.5425 413.228,-66.2323 411.35,-59.4888"/>
</g>
<!-- Node20 -->
<g id="node12" class="node"><title>Node20</title>
<g id="a_node12"><a xlink:href="run_8c.html#abb80d08f4d52f4a7bdf28d1cecfead5b" target="_top" xlink:title="compute_accelerations">
<polygon fill="white" stroke="black" points="614,-62.4887 614,-81.4887 731,-81.4887 731,-62.4887 614,-62.4887"/>
<text text-anchor="middle" x="672.5" y="-69.4887" font-family="Helvetica,sans-Serif" font-size="10.00">compute_accelerations</text>
</a>
</g>
</g>
<!-- Node12&#45;&gt;Node20 -->
<g id="edge12" class="edge"><title>Node12&#45;&gt;Node20</title>
<path fill="none" stroke="midnightblue" d="M412.966,-71.9887C461.974,-71.9887 553.94,-71.9887 613.936,-71.9887"/>
<polygon fill="midnightblue" stroke="midnightblue" points="412.902,-68.4888 402.902,-71.9887 412.902,-75.4888 412.902,-68.4888"/>
</g>
<!-- Node14 -->
<g id="node6" class="node"><title>Node14</title>
<g id="a_node6"><a xlink:href="proto_8h.html#ab080cb20bac2a1a6153a84e8cfd15374" target="_top" xlink:title="init">
<polygon fill="white" stroke="black" points="658,-24.4887 658,-43.4887 687,-43.4887 687,-24.4887 658,-24.4887"/>
<text text-anchor="middle" x="672.5" y="-31.4887" font-family="Helvetica,sans-Serif" font-size="10.00">init</text>
</a>
</g>
</g>
<!-- Node13&#45;&gt;Node14 -->
<g id="edge5" class="edge"><title>Node13&#45;&gt;Node14</title>
<path fill="none" stroke="midnightblue" d="M588.263,-33.9887C614.65,-33.9887 642.067,-33.9887 657.918,-33.9887"/>
<polygon fill="midnightblue" stroke="midnightblue" points="588.227,-30.4888 578.227,-33.9887 588.227,-37.4888 588.227,-30.4888"/>
</g>
<!-- Node15 -->
<g id="node7" class="node"><title>Node15</title>
<g id="a_node7"><a xlink:href="proto_8h.html#a74dc0e5e9eefe11fc8434b62de573146" target="_top" xlink:title="begrun">
<polygon fill="white" stroke="black" points="767,-24.4887 767,-43.4887 813,-43.4887 813,-24.4887 767,-24.4887"/>
<text text-anchor="middle" x="790" y="-31.4887" font-family="Helvetica,sans-Serif" font-size="10.00">begrun</text>
</a>
</g>
</g>
<!-- Node14&#45;&gt;Node15 -->
<g id="edge6" class="edge"><title>Node14&#45;&gt;Node15</title>
<path fill="none" stroke="midnightblue" d="M697.217,-33.9887C717.557,-33.9887 746.653,-33.9887 766.602,-33.9887"/>
<polygon fill="midnightblue" stroke="midnightblue" points="697.203,-30.4888 687.203,-33.9887 697.203,-37.4888 697.203,-30.4888"/>
</g>
<!-- Node16 -->
<g id="node8" class="node"><title>Node16</title>
<g id="a_node8"><a xlink:href="main_8c.html#a3c04138a5bfe5d72780bb7e82a18e627" target="_top" xlink:title="main">
<polygon fill="white" stroke="black" points="849,-24.4887 849,-43.4887 887,-43.4887 887,-24.4887 849,-24.4887"/>
<text text-anchor="middle" x="868" y="-31.4887" font-family="Helvetica,sans-Serif" font-size="10.00">main</text>
</a>
</g>
</g>
<!-- Node15&#45;&gt;Node16 -->
<g id="edge7" class="edge"><title>Node15&#45;&gt;Node16</title>
<path fill="none" stroke="midnightblue" d="M823.541,-33.9887C832.114,-33.9887 841.067,-33.9887 848.603,-33.9887"/>
<polygon fill="midnightblue" stroke="midnightblue" points="823.391,-30.4888 813.391,-33.9887 823.391,-37.4888 823.391,-30.4888"/>
</g>
<!-- Node17 -->
<g id="node9" class="node"><title>Node17</title>
<g id="a_node9"><a xlink:href="walltime_8h.html#a76d2135b612766d4d665748454b879d6" target="_top" xlink:title="walltime_report">
<polygon fill="white" stroke="black" points="923,-24.4887 923,-43.4887 1006,-43.4887 1006,-24.4887 923,-24.4887"/>
<text text-anchor="middle" x="964.5" y="-31.4887" font-family="Helvetica,sans-Serif" font-size="10.00">walltime_report</text>
</a>
</g>
</g>
<!-- Node16&#45;&gt;Node17 -->
<g id="edge8" class="edge"><title>Node16&#45;&gt;Node17</title>
<path fill="none" stroke="midnightblue" d="M897.411,-33.9887C905.347,-33.9887 914.132,-33.9887 922.635,-33.9887"/>
<polygon fill="midnightblue" stroke="midnightblue" points="897.221,-30.4888 887.221,-33.9887 897.221,-37.4888 897.221,-30.4888"/>
</g>
<!-- Node18 -->
<g id="node10" class="node"><title>Node18</title>
<g id="a_node10"><a xlink:href="run_8c.html#adc59e9ee1517e4e690694a64ab6a59d2" target="_top" xlink:title="write_cpu_log">
<polygon fill="white" stroke="black" points="1042,-24.4887 1042,-43.4887 1119,-43.4887 1119,-24.4887 1042,-24.4887"/>
<text text-anchor="middle" x="1080.5" y="-31.4887" font-family="Helvetica,sans-Serif" font-size="10.00">write_cpu_log</text>
</a>
</g>
</g>
<!-- Node17&#45;&gt;Node18 -->
<g id="edge9" class="edge"><title>Node17&#45;&gt;Node18</title>
<path fill="none" stroke="midnightblue" d="M1016.03,-33.9887C1024.68,-33.9887 1033.54,-33.9887 1041.78,-33.9887"/>
<polygon fill="midnightblue" stroke="midnightblue" points="1016.01,-30.4888 1006.01,-33.9887 1016.01,-37.4888 1016.01,-30.4888"/>
</g>
<!-- Node19 -->
<g id="node11" class="node"><title>Node19</title>
<g id="a_node11"><a xlink:href="run_8c.html#a05e0ffe612d44e6d7f3a9ae5b9df56a2" target="_top" xlink:title="run">
<polygon fill="white" stroke="black" points="1155,-24.4887 1155,-43.4887 1185,-43.4887 1185,-24.4887 1155,-24.4887"/>
<text text-anchor="middle" x="1170" y="-31.4887" font-family="Helvetica,sans-Serif" font-size="10.00">run</text>
</a>
</g>
</g>
<!-- Node18&#45;&gt;Node19 -->
<g id="edge10" class="edge"><title>Node18&#45;&gt;Node19</title>
<path fill="none" stroke="midnightblue" d="M1129.22,-33.9887C1138.52,-33.9887 1147.58,-33.9887 1154.7,-33.9887"/>
<polygon fill="midnightblue" stroke="midnightblue" points="1129.12,-30.4888 1119.12,-33.9887 1129.12,-37.4888 1129.12,-30.4888"/>
</g>
<!-- Node19&#45;&gt;Node16 -->
<g id="edge11" class="edge"><title>Node19&#45;&gt;Node16</title>
<path fill="none" stroke="midnightblue" d="M1145.63,-23.0989C1137.4,-19.8086 1127.96,-16.6339 1119,-14.9887 1033.32,0.741605 1008.87,-0.323002 923,-14.9887 910.656,-17.0969 897.382,-21.7326 887.083,-25.897"/>
<polygon fill="midnightblue" stroke="midnightblue" points="1144.39,-26.3741 1154.96,-27.0747 1147.13,-19.9344 1144.39,-26.3741"/>
</g>
<!-- Node20&#45;&gt;Node19 -->
<g id="edge13" class="edge"><title>Node20&#45;&gt;Node19</title>
<path fill="none" stroke="midnightblue" d="M741.278,-71.9887C778.408,-71.9887 825.239,-71.9887 867,-71.9887 867,-71.9887 867,-71.9887 965.5,-71.9887 1034.24,-71.9887 1052.28,-69.5393 1119,-52.9887 1131.44,-49.9034 1145,-44.6232 1154.85,-40.4111"/>
<polygon fill="midnightblue" stroke="midnightblue" points="741.075,-68.4888 731.075,-71.9887 741.075,-75.4888 741.075,-68.4888"/>
</g>
<!-- Node21&#45;&gt;Node13 -->
<g id="edge15" class="edge"><title>Node21&#45;&gt;Node13</title>
<path fill="none" stroke="midnightblue" d="M430.095,-33.9887C438.487,-33.9887 447.262,-33.9887 455.863,-33.9887"/>
<polygon fill="midnightblue" stroke="midnightblue" points="430.085,-30.4888 420.085,-33.9887 430.085,-37.4888 430.085,-30.4888"/>
</g>
<!-- Node23 -->
<g id="node15" class="node"><title>Node23</title>
<g id="a_node15"><a xlink:href="lightcone_8c.html#a3efc2e9b2e1cb0b9abf7e86d27e3e900" target="_top" xlink:title="lightcone_init">
<polygon fill="white" stroke="black" points="221.5,-5.4887 221.5,-24.4887 295.5,-24.4887 295.5,-5.4887 221.5,-5.4887"/>
<text text-anchor="middle" x="258.5" y="-12.4887" font-family="Helvetica,sans-Serif" font-size="10.00">lightcone_init</text>
</a>
</g>
</g>
<!-- Node22&#45;&gt;Node23 -->
<g id="edge17" class="edge"><title>Node22&#45;&gt;Node23</title>
<path fill="none" stroke="midnightblue" d="M190.342,-14.9887C200.869,-14.9887 211.53,-14.9887 221.163,-14.9887"/>
<polygon fill="midnightblue" stroke="midnightblue" points="190.329,-11.4888 180.329,-14.9887 190.329,-18.4888 190.329,-11.4888"/>
</g>
<!-- Node23&#45;&gt;Node15 -->
<g id="edge18" class="edge"><title>Node23&#45;&gt;Node15</title>
<path fill="none" stroke="midnightblue" d="M305.671,-10.1971C390.539,-2.44767 576.774,9.62879 731,-14.9887 743.138,-16.9261 756.184,-21.0089 766.824,-24.895"/>
<polygon fill="midnightblue" stroke="midnightblue" points="305.22,-6.72385 295.59,-11.1412 305.873,-13.6934 305.22,-6.72385"/>
</g>
<!-- Node24&#45;&gt;Node16 -->
<g id="edge20" class="edge"><title>Node24&#45;&gt;Node16</title>
<path fill="none" stroke="midnightblue" d="M578.256,-109.53C621.361,-108.018 680.457,-103.514 731,-90.9887 775.232,-80.0273 823.704,-56.7519 849.136,-43.5861"/>
<polygon fill="midnightblue" stroke="midnightblue" points="578.097,-106.033 568.209,-109.839 578.312,-113.03 578.097,-106.033"/>
</g>
</g>
</svg>
