<?xml version="1.0" encoding="UTF-8" standalone="no"?>
<!DOCTYPE svg PUBLIC "-//W3C//DTD SVG 1.1//EN"
 "http://www.w3.org/Graphics/SVG/1.1/DTD/svg11.dtd">
<!-- Generated by graphviz version 2.38.0 (20140413.2041)
 -->
<!-- Title: lightcone_set_time Pages: 1 -->
<!--zoomable 486 -->
<svg id="main" version="1.1" xmlns="http://www.w3.org/2000/svg" xmlns:xlink="http://www.w3.org/1999/xlink" xml:space="preserve" onload="init(evt)">
<style type="text/css"><![CDATA[
.edge:hover path { stroke: red; }
.edge:hover polygon { stroke: red; fill: red; }
]]></style>
<script type="text/javascript"><![CDATA[
var edges = document.getElementsByTagName('g');
if (edges && edges.length) {
  for (var i=0;i<edges.length;i++) {
    if (edges[i].id.substr(0,4)=='edge') {
      edges[i].setAttribute('class','edge');
    }
  }
}
]]></script>
        <defs>
                <circle id="rim" cx="0" cy="0" r="7"/>
                <circle id="rim2" cx="0" cy="0" r="3.5"/>
                <g id="zoomPlus">
                        <use xlink:href="#rim" fill="#404040">
                                <set attributeName="fill" to="#808080" begin="zoomplus.mouseover" end="zoomplus.mouseout"/>
                        </use>
                        <path d="M-4,0h8M0,-4v8" fill="none" stroke="white" stroke-width="1.5" pointer-events="none"/>
                </g>
                <g id="zoomMin">
                        <use xlink:href="#rim" fill="#404040">
                                <set attributeName="fill" to="#808080" begin="zoomminus.mouseover" end="zoomminus.mouseout"/>
                        </use>
                        <path d="M-4,0h8" fill="none" stroke="white" stroke-width="1.5" pointer-events="none"/>
                </g>
                <g id="dirArrow">
                        <path fill="none" stroke="white" stroke-width="1.5" d="M0,-3.0v7 M-2.5,-0.5L0,-3.0L2.5,-0.5"/>
                </g>
               <g id="resetDef">
                       <use xlink:href="#rim2" fill="#404040">
                               <set attributeName="fill" to="#808080" begin="reset.mouseover" end="reset.mouseout"/>
                       </use>
               </g>
        </defs>

<script type="text/javascript">
var viewWidth = 562;
var viewHeight = 486;
var sectionId = 'dynsection-11';
</script>
<script xlink:href="svgpan.js"/>
<svg id="graph" class="graph">
<g id="viewport">
<title>lightcone_set_time</title>
<polygon fill="white" stroke="none" points="-4,4 -4,-482.205 557.705,-482.205 557.705,4 -4,4"/>
<!-- Node117 -->
<g id="node1" class="node"><title>Node117</title>
<polygon fill="#bfbfbf" stroke="black" points="-1.42109e-14,-407.794 -1.42109e-14,-426.794 98,-426.794 98,-407.794 -1.42109e-14,-407.794"/>
<text text-anchor="middle" x="49" y="-414.794" font-family="Helvetica,sans-Serif" font-size="10.00">lightcone_set_time</text>
</g>
<!-- Node118 -->
<g id="node2" class="node"><title>Node118</title>
<g id="a_node2"><a xlink:href="timestep_8h.html#aaebcb31d8cb374d360e1e165df6fe26d" target="_top" xlink:title="set_global_time">
<polygon fill="white" stroke="black" points="210.147,-420.147 210.147,-439.147 295.147,-439.147 295.147,-420.147 210.147,-420.147"/>
<text text-anchor="middle" x="252.647" y="-427.147" font-family="Helvetica,sans-Serif" font-size="10.00">set_global_time</text>
</a>
</g>
</g>
<!-- Node117&#45;&gt;Node118 -->
<g id="edge1" class="edge"><title>Node117&#45;&gt;Node118</title>
<path fill="none" stroke="midnightblue" d="M108.328,-420.892C140.853,-422.865 180.427,-425.266 209.902,-427.054"/>
<polygon fill="midnightblue" stroke="midnightblue" points="108.231,-417.38 98.0376,-420.268 107.807,-424.367 108.231,-417.38"/>
</g>
<!-- Node119 -->
<g id="node3" class="node"><title>Node119</title>
<g id="a_node3"><a xlink:href="proto_8h.html#ab080cb20bac2a1a6153a84e8cfd15374" target="_top" xlink:title="init">
<polygon fill="white" stroke="black" points="390.882,-51.4117 390.882,-70.4117 419.882,-70.4117 419.882,-51.4117 390.882,-51.4117"/>
<text text-anchor="middle" x="405.382" y="-58.4117" font-family="Helvetica,sans-Serif" font-size="10.00">init</text>
</a>
</g>
</g>
<!-- Node118&#45;&gt;Node119 -->
<g id="edge2" class="edge"><title>Node118&#45;&gt;Node119</title>
<path fill="none" stroke="midnightblue" d="M260.631,-410.372C288.505,-343.077 380.912,-119.987 401.355,-70.6336"/>
<polygon fill="midnightblue" stroke="midnightblue" points="257.325,-409.206 256.732,-419.784 263.793,-411.885 257.325,-409.206"/>
</g>
<!-- Node124 -->
<g id="node8" class="node"><title>Node124</title>
<g id="a_node8"><a xlink:href="run_8c.html#a05e0ffe612d44e6d7f3a9ae5b9df56a2" target="_top" xlink:title="run">
<polygon fill="white" stroke="black" points="135.823,-305.97 135.823,-324.97 165.823,-324.97 165.823,-305.97 135.823,-305.97"/>
<text text-anchor="middle" x="150.823" y="-312.97" font-family="Helvetica,sans-Serif" font-size="10.00">run</text>
</a>
</g>
</g>
<!-- Node118&#45;&gt;Node124 -->
<g id="edge9" class="edge"><title>Node118&#45;&gt;Node124</title>
<path fill="none" stroke="midnightblue" d="M237.047,-412.155C215.317,-387.788 176.673,-344.456 159.483,-325.18"/>
<polygon fill="midnightblue" stroke="midnightblue" points="234.697,-414.778 243.965,-419.912 239.922,-410.119 234.697,-414.778"/>
</g>
<!-- Node125 -->
<g id="node9" class="node"><title>Node125</title>
<g id="a_node9"><a xlink:href="sfr__eff_8c.html#a2d96bcfa1a035956535e5840d306744b" target="_top" xlink:title="cooling_direct">
<polygon fill="white" stroke="black" points="417.794,-407.794 417.794,-426.794 494.794,-426.794 494.794,-407.794 417.794,-407.794"/>
<text text-anchor="middle" x="456.294" y="-414.794" font-family="Helvetica,sans-Serif" font-size="10.00">cooling_direct</text>
</a>
</g>
</g>
<!-- Node118&#45;&gt;Node125 -->
<g id="edge10" class="edge"><title>Node118&#45;&gt;Node125</title>
<path fill="none" stroke="midnightblue" d="M305.429,-426.445C340.593,-424.312 386.009,-421.557 417.785,-419.629"/>
<polygon fill="midnightblue" stroke="midnightblue" points="305.107,-422.958 295.338,-427.057 305.531,-429.945 305.107,-422.958"/>
</g>
<!-- Node120 -->
<g id="node4" class="node"><title>Node120</title>
<g id="a_node4"><a xlink:href="proto_8h.html#a74dc0e5e9eefe11fc8434b62de573146" target="_top" xlink:title="begrun">
<polygon fill="white" stroke="black" points="331.47,-102.323 331.47,-121.323 377.47,-121.323 377.47,-102.323 331.47,-102.323"/>
<text text-anchor="middle" x="354.47" y="-109.323" font-family="Helvetica,sans-Serif" font-size="10.00">begrun</text>
</a>
</g>
</g>
<!-- Node119&#45;&gt;Node120 -->
<g id="edge3" class="edge"><title>Node119&#45;&gt;Node120</title>
<path fill="none" stroke="midnightblue" d="M388.137,-78.1569C380.174,-86.1197 371.011,-95.2829 364.256,-102.037"/>
<polygon fill="midnightblue" stroke="midnightblue" points="390.969,-80.274 395.566,-70.728 386.02,-75.3242 390.969,-80.274"/>
</g>
<!-- Node121 -->
<g id="node5" class="node"><title>Node121</title>
<g id="a_node5"><a xlink:href="main_8c.html#a3c04138a5bfe5d72780bb7e82a18e627" target="_top" xlink:title="main">
<polygon fill="white" stroke="black" points="284.558,-153.235 284.558,-172.235 322.558,-172.235 322.558,-153.235 284.558,-153.235"/>
<text text-anchor="middle" x="303.558" y="-160.235" font-family="Helvetica,sans-Serif" font-size="10.00">main</text>
</a>
</g>
</g>
<!-- Node120&#45;&gt;Node121 -->
<g id="edge4" class="edge"><title>Node120&#45;&gt;Node121</title>
<path fill="none" stroke="midnightblue" d="M337.225,-129.069C329.262,-137.031 320.099,-146.195 313.345,-152.949"/>
<polygon fill="midnightblue" stroke="midnightblue" points="340.058,-131.186 344.654,-121.64 335.108,-126.236 340.058,-131.186"/>
</g>
<!-- Node122 -->
<g id="node6" class="node"><title>Node122</title>
<g id="a_node6"><a xlink:href="walltime_8h.html#a76d2135b612766d4d665748454b879d6" target="_top" xlink:title="walltime_report">
<polygon fill="white" stroke="black" points="211.147,-204.147 211.147,-223.147 294.147,-223.147 294.147,-204.147 211.147,-204.147"/>
<text text-anchor="middle" x="252.647" y="-211.147" font-family="Helvetica,sans-Serif" font-size="10.00">walltime_report</text>
</a>
</g>
</g>
<!-- Node121&#45;&gt;Node122 -->
<g id="edge5" class="edge"><title>Node121&#45;&gt;Node122</title>
<path fill="none" stroke="midnightblue" d="M286.313,-179.98C278.35,-187.943 269.187,-197.106 262.433,-203.861"/>
<polygon fill="midnightblue" stroke="midnightblue" points="289.146,-182.097 293.742,-172.551 284.196,-177.148 289.146,-182.097"/>
</g>
<!-- Node123 -->
<g id="node7" class="node"><title>Node123</title>
<g id="a_node7"><a xlink:href="run_8c.html#adc59e9ee1517e4e690694a64ab6a59d2" target="_top" xlink:title="write_cpu_log">
<polygon fill="white" stroke="black" points="163.235,-255.058 163.235,-274.058 240.235,-274.058 240.235,-255.058 163.235,-255.058"/>
<text text-anchor="middle" x="201.735" y="-262.058" font-family="Helvetica,sans-Serif" font-size="10.00">write_cpu_log</text>
</a>
</g>
</g>
<!-- Node122&#45;&gt;Node123 -->
<g id="edge6" class="edge"><title>Node122&#45;&gt;Node123</title>
<path fill="none" stroke="midnightblue" d="M235.402,-230.892C227.439,-238.855 218.276,-248.018 211.521,-254.772"/>
<polygon fill="midnightblue" stroke="midnightblue" points="238.234,-233.009 242.83,-223.463 233.284,-228.059 238.234,-233.009"/>
</g>
<!-- Node123&#45;&gt;Node124 -->
<g id="edge7" class="edge"><title>Node123&#45;&gt;Node124</title>
<path fill="none" stroke="midnightblue" d="M184.49,-281.804C176.527,-289.766 167.364,-298.93 160.61,-305.684"/>
<polygon fill="midnightblue" stroke="midnightblue" points="187.323,-283.921 191.919,-274.375 182.373,-278.971 187.323,-283.921"/>
</g>
<!-- Node124&#45;&gt;Node121 -->
<g id="edge8" class="edge"><title>Node124&#45;&gt;Node121</title>
<path fill="none" stroke="midnightblue" d="M167.698,-298.596C199.802,-266.491 268.726,-197.568 294.008,-172.286"/>
<polygon fill="midnightblue" stroke="midnightblue" points="164.974,-296.37 160.378,-305.916 169.924,-301.32 164.974,-296.37"/>
</g>
<!-- Node126 -->
<g id="node10" class="node"><title>Node126</title>
<g id="a_node10"><a xlink:href="sfr__eff_8c.html#aec2d4b18a02ca0bbca8111e41fae0248" target="_top" xlink:title="cool_postprocess">
<polygon fill="white" stroke="black" points="460.705,-458.705 460.705,-477.705 553.705,-477.705 553.705,-458.705 460.705,-458.705"/>
<text text-anchor="middle" x="507.205" y="-465.705" font-family="Helvetica,sans-Serif" font-size="10.00">cool_postprocess</text>
</a>
</g>
</g>
<!-- Node125&#45;&gt;Node126 -->
<g id="edge11" class="edge"><title>Node125&#45;&gt;Node126</title>
<path fill="none" stroke="midnightblue" d="M473.539,-434.539C481.502,-442.502 490.665,-451.665 497.419,-458.419"/>
<polygon fill="midnightblue" stroke="midnightblue" points="475.656,-431.706 466.11,-427.11 470.706,-436.656 475.656,-431.706"/>
</g>
<!-- Node127 -->
<g id="node11" class="node"><title>Node127</title>
<g id="a_node11"><a xlink:href="sfr__eff_8h.html#aaa7b178a168a5d23b2cfe478ebc58ee1" target="_top" xlink:title="cooling_only">
<polygon fill="white" stroke="black" points="13.5,-0.5 13.5,-19.5 84.5,-19.5 84.5,-0.5 13.5,-0.5"/>
<text text-anchor="middle" x="49" y="-7.5" font-family="Helvetica,sans-Serif" font-size="10.00">cooling_only</text>
</a>
</g>
</g>
<!-- Node126&#45;&gt;Node127 -->
<g id="edge12" class="edge"><title>Node126&#45;&gt;Node127</title>
<path fill="none" stroke="midnightblue" d="M490.403,-451.403C415.825,-376.825 115.904,-76.9041 58.5176,-19.5176"/>
<polygon fill="midnightblue" stroke="midnightblue" points="488.089,-454.039 497.635,-458.635 493.039,-449.089 488.089,-454.039"/>
</g>
<!-- Node128 -->
<g id="node12" class="node"><title>Node128</title>
<g id="a_node12"><a xlink:href="run_8c.html#abb80d08f4d52f4a7bdf28d1cecfead5b" target="_top" xlink:title="compute_accelerations">
<polygon fill="white" stroke="black" points="41.4117,-51.4117 41.4117,-70.4117 158.412,-70.4117 158.412,-51.4117 41.4117,-51.4117"/>
<text text-anchor="middle" x="99.9117" y="-58.4117" font-family="Helvetica,sans-Serif" font-size="10.00">compute_accelerations</text>
</a>
</g>
</g>
<!-- Node127&#45;&gt;Node128 -->
<g id="edge13" class="edge"><title>Node127&#45;&gt;Node128</title>
<path fill="none" stroke="midnightblue" d="M66.2453,-27.2453C74.208,-35.208 83.3712,-44.3712 90.1255,-51.1255"/>
<polygon fill="midnightblue" stroke="midnightblue" points="68.3623,-24.4125 58.8163,-19.8163 63.4125,-29.3623 68.3623,-24.4125"/>
</g>
<!-- Node128&#45;&gt;Node124 -->
<g id="edge14" class="edge"><title>Node128&#45;&gt;Node124</title>
<path fill="none" stroke="midnightblue" d="M103.869,-80.7001C114.144,-132.071 141.387,-268.288 148.888,-305.792"/>
<polygon fill="midnightblue" stroke="midnightblue" points="107.239,-79.6992 101.845,-70.5798 100.375,-81.0721 107.239,-79.6992"/>
</g>
</g>
</svg>
        <g id="navigator" transform="translate(0 0)" fill="#404254">
                <rect fill="#f2f5e9" fill-opacity="0.5" stroke="#606060" stroke-width=".5" x="0" y="0" width="60" height="60"/>
                <use id="zoomplus" xlink:href="#zoomPlus" x="17" y="9" onmousedown="handleZoom(evt,'in')"/>
                <use id="zoomminus" xlink:href="#zoomMin" x="42" y="9" onmousedown="handleZoom(evt,'out')"/>
                <use id="reset" xlink:href="#resetDef" x="30" y="36" onmousedown="handleReset()"/>
                <g id="arrowUp" xlink:href="#dirArrow" transform="translate(30 24)" onmousedown="handlePan(0,-1)">
                  <use xlink:href="#rim" fill="#404040">
                        <set attributeName="fill" to="#808080" begin="arrowUp.mouseover" end="arrowUp.mouseout"/>
                  </use>
                  <path fill="none" stroke="white" stroke-width="1.5" d="M0,-3.0v7 M-2.5,-0.5L0,-3.0L2.5,-0.5"/>
                </g>
                <g id="arrowRight" xlink:href="#dirArrow" transform="rotate(90) translate(36 -43)" onmousedown="handlePan(1,0)">
                  <use xlink:href="#rim" fill="#404040">
                        <set attributeName="fill" to="#808080" begin="arrowRight.mouseover" end="arrowRight.mouseout"/>
                  </use>
                  <path fill="none" stroke="white" stroke-width="1.5" d="M0,-3.0v7 M-2.5,-0.5L0,-3.0L2.5,-0.5"/>
                </g>
                <g id="arrowDown" xlink:href="#dirArrow" transform="rotate(180) translate(-30 -48)" onmousedown="handlePan(0,1)">
                  <use xlink:href="#rim" fill="#404040">
                        <set attributeName="fill" to="#808080" begin="arrowDown.mouseover" end="arrowDown.mouseout"/>
                  </use>
                  <path fill="none" stroke="white" stroke-width="1.5" d="M0,-3.0v7 M-2.5,-0.5L0,-3.0L2.5,-0.5"/>
                </g>
                <g id="arrowLeft" xlink:href="#dirArrow" transform="rotate(270) translate(-36 17)" onmousedown="handlePan(-1,0)">
                  <use xlink:href="#rim" fill="#404040">
                        <set attributeName="fill" to="#808080" begin="arrowLeft.mouseover" end="arrowLeft.mouseout"/>
                  </use>
                  <path fill="none" stroke="white" stroke-width="1.5" d="M0,-3.0v7 M-2.5,-0.5L0,-3.0L2.5,-0.5"/>
                </g>
        </g>
        <svg viewBox="0 0 15 15" width="100%" height="30px" preserveAspectRatio="xMaxYMin meet">
         <g id="arrow_out" transform="scale(0.3 0.3)">
          <a xlink:href="lightcone_8c_a727344301f1298461d8181d33d54b3e9_icgraph_org.svg" target="_base">
           <rect id="button" ry="5" rx="5" y="6" x="6" height="38" width="38"
                fill="#f2f5e9" fill-opacity="0.5" stroke="#606060" stroke-width="1.0"/>
           <path id="arrow"
             d="M 11.500037,31.436501 C 11.940474,20.09759 22.043105,11.32322 32.158766,21.979434 L 37.068811,17.246167 C 37.068811,17.246167 37.088388,32 37.088388,32 L 22.160133,31.978069 C 22.160133,31.978069 26.997745,27.140456 26.997745,27.140456 C 18.528582,18.264221 13.291696,25.230495 11.500037,31.436501 z"
             style="fill:#404040;"/>
          </a>
         </g>
        </svg>
</svg>
