<?xml version="1.0" encoding="UTF-8" standalone="no"?>
<!DOCTYPE svg PUBLIC "-//W3C//DTD SVG 1.1//EN"
 "http://www.w3.org/Graphics/SVG/1.1/DTD/svg11.dtd">
<!-- Generated by graphviz version 2.50.0 (0)
 -->
<!-- Title: lightcone_compute Pages: 1 -->
<svg width="1077pt" height="256pt"
 viewBox="0.00 0.00 1077.00 256.00" xmlns="http://www.w3.org/2000/svg" xmlns:xlink="http://www.w3.org/1999/xlink">
<g id="graph0" class="graph" transform="scale(1 1) rotate(0) translate(4 252)">
<title>lightcone_compute</title>
<polygon fill="white" stroke="transparent" points="-4,4 -4,-252 1073,-252 1073,4 -4,4"/>
<!-- Node1 -->
<g id="node1" class="node">
<title>Node1</title>
<g id="a_node1"><a xlink:title=" ">
<polygon fill="#bfbfbf" stroke="black" points="0,-114.5 0,-133.5 110,-133.5 110,-114.5 0,-114.5"/>
<text text-anchor="middle" x="55" y="-121.5" font-family="Helvetica,sans-Serif" font-size="10.00">lightcone_compute</text>
</a>
</g>
</g>
<!-- Node2 -->
<g id="node2" class="node">
<title>Node2</title>
<g id="a_node2"><a xlink:href="timefac_8c.html#a4a608a436edf9737ebb7d4c06a142542" target="_top" xlink:title=" ">
<polygon fill="white" stroke="black" points="146,-152.5 146,-171.5 269,-171.5 269,-152.5 146,-152.5"/>
<text text-anchor="middle" x="207.5" y="-159.5" font-family="Helvetica,sans-Serif" font-size="10.00">get_exact_drift_factor</text>
</a>
</g>
</g>
<!-- Node1&#45;&gt;Node2 -->
<g id="edge1" class="edge">
<title>Node1&#45;&gt;Node2</title>
<path fill="none" stroke="midnightblue" d="M93.98,-133.59C113.66,-138.56 137.89,-144.68 158.82,-149.96"/>
<polygon fill="midnightblue" stroke="midnightblue" points="158.24,-153.43 168.8,-152.48 159.96,-146.64 158.24,-153.43"/>
</g>
<!-- Node13 -->
<g id="node13" class="node">
<title>Node13</title>
<g id="a_node13"><a xlink:href="lightcone_8c.html#ae2e64199d8d57bad0be6c24f9a235e4b" target="_top" xlink:title=" ">
<polygon fill="white" stroke="black" points="161.5,-114.5 161.5,-133.5 253.5,-133.5 253.5,-114.5 161.5,-114.5"/>
<text text-anchor="middle" x="207.5" y="-121.5" font-family="Helvetica,sans-Serif" font-size="10.00">lightcone_cross</text>
</a>
</g>
</g>
<!-- Node1&#45;&gt;Node13 -->
<g id="edge13" class="edge">
<title>Node1&#45;&gt;Node13</title>
<path fill="none" stroke="midnightblue" d="M110.33,-124C123.49,-124 137.57,-124 150.79,-124"/>
<polygon fill="midnightblue" stroke="midnightblue" points="151.17,-127.5 161.17,-124 151.17,-120.5 151.17,-127.5"/>
</g>
<!-- Node15 -->
<g id="node15" class="node">
<title>Node15</title>
<g id="a_node15"><a xlink:href="lightcone_8c.html#a8efe6aa2daa4a20489d90fc1c996add2" target="_top" xlink:title=" ">
<polygon fill="white" stroke="black" points="152.5,-57.5 152.5,-76.5 262.5,-76.5 262.5,-57.5 152.5,-57.5"/>
<text text-anchor="middle" x="207.5" y="-64.5" font-family="Helvetica,sans-Serif" font-size="10.00">lightcone_set_time</text>
</a>
</g>
</g>
<!-- Node1&#45;&gt;Node15 -->
<g id="edge15" class="edge">
<title>Node1&#45;&gt;Node15</title>
<path fill="none" stroke="midnightblue" d="M81.19,-114.46C105.93,-105.09 143.89,-90.71 171.55,-80.24"/>
<polygon fill="midnightblue" stroke="midnightblue" points="173.12,-83.39 181.23,-76.57 170.64,-76.84 173.12,-83.39"/>
</g>
<!-- Node3 -->
<g id="node3" class="node">
<title>Node3</title>
<g id="a_node3"><a xlink:href="timefac_8c.html#a032ad4e64bea7e928dc97ae1c1e361d5" target="_top" xlink:title=" ">
<polygon fill="white" stroke="black" points="334,-190.5 334,-209.5 400,-209.5 400,-190.5 334,-190.5"/>
<text text-anchor="middle" x="367" y="-197.5" font-family="Helvetica,sans-Serif" font-size="10.00">drift_integ</text>
</a>
</g>
</g>
<!-- Node2&#45;&gt;Node3 -->
<g id="edge2" class="edge">
<title>Node2&#45;&gt;Node3</title>
<path fill="none" stroke="midnightblue" d="M248.24,-171.59C271.34,-177.16 300.43,-184.18 323.92,-189.85"/>
<polygon fill="midnightblue" stroke="midnightblue" points="323.4,-193.32 333.94,-192.27 325.04,-186.52 323.4,-193.32"/>
</g>
<!-- Node11 -->
<g id="node11" class="node">
<title>Node11</title>
<g id="a_node11"><a xlink:href="timefac_8c.html#af1450d3415f072175cac148407f31705" target="_top" xlink:title=" ">
<polygon fill="white" stroke="black" points="318,-152.5 318,-171.5 416,-171.5 416,-152.5 318,-152.5"/>
<text text-anchor="middle" x="367" y="-159.5" font-family="Helvetica,sans-Serif" font-size="10.00">get_exact_factor</text>
</a>
</g>
</g>
<!-- Node2&#45;&gt;Node11 -->
<g id="edge11" class="edge">
<title>Node2&#45;&gt;Node11</title>
<path fill="none" stroke="midnightblue" d="M269.39,-162C281.97,-162 295.19,-162 307.68,-162"/>
<polygon fill="midnightblue" stroke="midnightblue" points="307.96,-165.5 317.96,-162 307.96,-158.5 307.96,-165.5"/>
</g>
<!-- Node4 -->
<g id="node4" class="node">
<title>Node4</title>
<g id="a_node4"><a xlink:href="cosmology_8c.html#ab425f16e6fe06110e2fb4944065b81bb" target="_top" xlink:title=" ">
<polygon fill="white" stroke="black" points="465,-190.5 465,-209.5 560,-209.5 560,-190.5 465,-190.5"/>
<text text-anchor="middle" x="512.5" y="-197.5" font-family="Helvetica,sans-Serif" font-size="10.00">hubble_function</text>
</a>
</g>
</g>
<!-- Node3&#45;&gt;Node4 -->
<g id="edge3" class="edge">
<title>Node3&#45;&gt;Node4</title>
<path fill="none" stroke="midnightblue" d="M400.2,-200C416.31,-200 436.28,-200 454.84,-200"/>
<polygon fill="midnightblue" stroke="midnightblue" points="454.98,-203.5 464.98,-200 454.98,-196.5 454.98,-203.5"/>
</g>
<!-- Node5 -->
<g id="node5" class="node">
<title>Node5</title>
<g id="a_node5"><a xlink:href="omega__nu__single_8c.html#aca4b20af5bd369bcd096c670c27c6e36" target="_top" xlink:title=" ">
<polygon fill="white" stroke="black" points="599,-209.5 599,-228.5 688,-228.5 688,-209.5 599,-209.5"/>
<text text-anchor="middle" x="643.5" y="-216.5" font-family="Helvetica,sans-Serif" font-size="10.00">get_omega_nu</text>
</a>
</g>
</g>
<!-- Node4&#45;&gt;Node5 -->
<g id="edge4" class="edge">
<title>Node4&#45;&gt;Node5</title>
<path fill="none" stroke="midnightblue" d="M560.07,-206.86C569.29,-208.22 579.05,-209.65 588.49,-211.05"/>
<polygon fill="midnightblue" stroke="midnightblue" points="588.18,-214.54 598.58,-212.53 589.2,-207.61 588.18,-214.54"/>
</g>
<!-- Node10 -->
<g id="node10" class="node">
<title>Node10</title>
<g id="a_node10"><a xlink:href="cosmology_8c.html#a187e0106f302118344b027cf942347e0" target="_top" xlink:title=" ">
<polygon fill="white" stroke="black" points="608,-171.5 608,-190.5 679,-190.5 679,-171.5 608,-171.5"/>
<text text-anchor="middle" x="643.5" y="-178.5" font-family="Helvetica,sans-Serif" font-size="10.00">OmegaFLD</text>
</a>
</g>
</g>
<!-- Node4&#45;&gt;Node10 -->
<g id="edge10" class="edge">
<title>Node4&#45;&gt;Node10</title>
<path fill="none" stroke="midnightblue" d="M560.07,-193.14C572.36,-191.33 585.6,-189.38 597.79,-187.59"/>
<polygon fill="midnightblue" stroke="midnightblue" points="598.36,-191.04 607.74,-186.12 597.34,-184.11 598.36,-191.04"/>
</g>
<!-- Node6 -->
<g id="node6" class="node">
<title>Node6</title>
<g id="a_node6"><a xlink:href="omega__nu__single_8c.html#a5d81e97a54be82580201631d495bd694" target="_top" xlink:title=" ">
<polygon fill="white" stroke="black" points="727,-209.5 727,-228.5 777,-228.5 777,-209.5 727,-209.5"/>
<text text-anchor="middle" x="752" y="-216.5" font-family="Helvetica,sans-Serif" font-size="10.00">rho_nu</text>
</a>
</g>
</g>
<!-- Node5&#45;&gt;Node6 -->
<g id="edge5" class="edge">
<title>Node5&#45;&gt;Node6</title>
<path fill="none" stroke="midnightblue" d="M688.12,-219C697.62,-219 707.54,-219 716.62,-219"/>
<polygon fill="midnightblue" stroke="midnightblue" points="716.81,-222.5 726.81,-219 716.81,-215.5 716.81,-222.5"/>
</g>
<!-- Node7 -->
<g id="node7" class="node">
<title>Node7</title>
<g id="a_node7"><a xlink:href="omega__nu__single_8c.html#a5d053cc2c3fa75a3c357bbb99af5de62" target="_top" xlink:title=" ">
<polygon fill="white" stroke="black" points="813,-228.5 813,-247.5 904,-247.5 904,-228.5 813,-228.5"/>
<text text-anchor="middle" x="858.5" y="-235.5" font-family="Helvetica,sans-Serif" font-size="10.00">non_rel_rho_nu</text>
</a>
</g>
</g>
<!-- Node6&#45;&gt;Node7 -->
<g id="edge6" class="edge">
<title>Node6&#45;&gt;Node7</title>
<path fill="none" stroke="midnightblue" d="M777.24,-223.41C784.95,-224.81 793.81,-226.42 802.78,-228.05"/>
<polygon fill="midnightblue" stroke="midnightblue" points="802.41,-231.54 812.88,-229.89 803.67,-224.65 802.41,-231.54"/>
</g>
<!-- Node9 -->
<g id="node9" class="node">
<title>Node9</title>
<g id="a_node9"><a xlink:href="omega__nu__single_8c.html#ac447b6c2f0363d19b68b2ce9f29009c4" target="_top" xlink:title=" ">
<polygon fill="white" stroke="black" points="824.5,-190.5 824.5,-209.5 892.5,-209.5 892.5,-190.5 824.5,-190.5"/>
<text text-anchor="middle" x="858.5" y="-197.5" font-family="Helvetica,sans-Serif" font-size="10.00">rel_rho_nu</text>
</a>
</g>
</g>
<!-- Node6&#45;&gt;Node9 -->
<g id="edge8" class="edge">
<title>Node6&#45;&gt;Node9</title>
<path fill="none" stroke="midnightblue" d="M777.24,-214.59C788.27,-212.59 801.68,-210.15 814.35,-207.85"/>
<polygon fill="midnightblue" stroke="midnightblue" points="815.08,-211.27 824.29,-206.04 813.83,-204.38 815.08,-211.27"/>
</g>
<!-- Node8 -->
<g id="node8" class="node">
<title>Node8</title>
<g id="a_node8"><a xlink:href="omega__nu__single_8c.html#acf81fc868c0deb61c3541958dd6114be" target="_top" xlink:title=" ">
<polygon fill="white" stroke="black" points="940,-209.5 940,-228.5 1069,-228.5 1069,-209.5 940,-209.5"/>
<text text-anchor="middle" x="1004.5" y="-216.5" font-family="Helvetica,sans-Serif" font-size="10.00">get_rho_nu_conversion</text>
</a>
</g>
</g>
<!-- Node7&#45;&gt;Node8 -->
<g id="edge7" class="edge">
<title>Node7&#45;&gt;Node8</title>
<path fill="none" stroke="midnightblue" d="M904.27,-232.09C912.49,-231.01 921.26,-229.85 930.07,-228.69"/>
<polygon fill="midnightblue" stroke="midnightblue" points="930.53,-232.16 939.99,-227.38 929.62,-225.22 930.53,-232.16"/>
</g>
<!-- Node9&#45;&gt;Node8 -->
<g id="edge9" class="edge">
<title>Node9&#45;&gt;Node8</title>
<path fill="none" stroke="midnightblue" d="M892.54,-204.36C903.72,-205.83 916.7,-207.55 929.75,-209.27"/>
<polygon fill="midnightblue" stroke="midnightblue" points="929.35,-212.75 939.72,-210.58 930.26,-205.81 929.35,-212.75"/>
</g>
<!-- Node12 -->
<g id="node12" class="node">
<title>Node12</title>
<g id="a_node12"><a xlink:href="test__timefac_8c.html#a5b77523ed91eb413cb28b12d8c2ceb46" target="_top" xlink:title=" ">
<polygon fill="white" stroke="black" points="473.5,-152.5 473.5,-171.5 551.5,-171.5 551.5,-152.5 473.5,-152.5"/>
<text text-anchor="middle" x="512.5" y="-159.5" font-family="Helvetica,sans-Serif" font-size="10.00">loga_from_ti</text>
</a>
</g>
</g>
<!-- Node11&#45;&gt;Node12 -->
<g id="edge12" class="edge">
<title>Node11&#45;&gt;Node12</title>
<path fill="none" stroke="midnightblue" d="M416.18,-162C431.27,-162 447.91,-162 463.02,-162"/>
<polygon fill="midnightblue" stroke="midnightblue" points="463.19,-165.5 473.19,-162 463.19,-158.5 463.19,-165.5"/>
</g>
<!-- Node14 -->
<g id="node14" class="node">
<title>Node14</title>
<g id="a_node14"><a xlink:href="system_8c.html#a14a8799b5e9e58e14107bad2fadc7e06" target="_top" xlink:title=" ">
<polygon fill="white" stroke="black" points="308,-114.5 308,-133.5 426,-133.5 426,-114.5 308,-114.5"/>
<text text-anchor="middle" x="367" y="-121.5" font-family="Helvetica,sans-Serif" font-size="10.00">get_random_number</text>
</a>
</g>
</g>
<!-- Node13&#45;&gt;Node14 -->
<g id="edge14" class="edge">
<title>Node13&#45;&gt;Node14</title>
<path fill="none" stroke="midnightblue" d="M253.63,-124C267.37,-124 282.79,-124 297.7,-124"/>
<polygon fill="midnightblue" stroke="midnightblue" points="297.91,-127.5 307.91,-124 297.91,-120.5 297.91,-127.5"/>
</g>
<!-- Node16 -->
<g id="node16" class="node">
<title>Node16</title>
<g id="a_node16"><a xlink:href="lightcone_8c.html#af4ba33dc441cada8609ec092268db8eb" target="_top" xlink:title=" ">
<polygon fill="white" stroke="black" points="305,-76.5 305,-95.5 429,-95.5 429,-76.5 305,-76.5"/>
<text text-anchor="middle" x="367" y="-83.5" font-family="Helvetica,sans-Serif" font-size="10.00">lightcone_get_horizon</text>
</a>
</g>
</g>
<!-- Node15&#45;&gt;Node16 -->
<g id="edge16" class="edge">
<title>Node15&#45;&gt;Node16</title>
<path fill="none" stroke="midnightblue" d="M262.7,-73.54C273.02,-74.78 283.96,-76.1 294.72,-77.4"/>
<polygon fill="midnightblue" stroke="midnightblue" points="294.6,-80.91 304.94,-78.63 295.43,-73.96 294.6,-80.91"/>
</g>
<!-- Node17 -->
<g id="node17" class="node">
<title>Node17</title>
<g id="a_node17"><a xlink:href="endrun_8c.html#a6567cd867c5549fb6586e19ccd819764" target="_top" xlink:title=" ">
<polygon fill="white" stroke="black" points="482,-38.5 482,-57.5 543,-57.5 543,-38.5 482,-38.5"/>
<text text-anchor="middle" x="512.5" y="-45.5" font-family="Helvetica,sans-Serif" font-size="10.00">message</text>
</a>
</g>
</g>
<!-- Node15&#45;&gt;Node17 -->
<g id="edge17" class="edge">
<title>Node15&#45;&gt;Node17</title>
<path fill="none" stroke="midnightblue" d="M262.67,-63.6C322.67,-59.84 418,-53.86 471.57,-50.5"/>
<polygon fill="midnightblue" stroke="midnightblue" points="471.94,-53.99 481.7,-49.87 471.51,-47 471.94,-53.99"/>
</g>
<!-- Node20 -->
<g id="node20" class="node">
<title>Node20</title>
<g id="a_node20"><a xlink:href="lightcone_8c.html#acc3acefa2d6655326264b5ab93b78768" target="_top" xlink:title=" ">
<polygon fill="white" stroke="black" points="320,-0.5 320,-19.5 414,-19.5 414,-0.5 320,-0.5"/>
<text text-anchor="middle" x="367" y="-7.5" font-family="Helvetica,sans-Serif" font-size="10.00">update_replicas</text>
</a>
</g>
</g>
<!-- Node15&#45;&gt;Node20 -->
<g id="edge20" class="edge">
<title>Node15&#45;&gt;Node20</title>
<path fill="none" stroke="midnightblue" d="M234.86,-57.46C260.87,-48.05 300.83,-33.59 329.8,-23.1"/>
<polygon fill="midnightblue" stroke="midnightblue" points="331.34,-26.27 339.55,-19.57 328.96,-19.68 331.34,-26.27"/>
</g>
<!-- Node18 -->
<g id="node18" class="node">
<title>Node18</title>
<g id="a_node18"><a xlink:href="system_8c.html#a341c8d27bd6c7dde856566810b412b1f" target="_top" xlink:title=" ">
<polygon fill="white" stroke="black" points="604,-38.5 604,-57.5 683,-57.5 683,-38.5 604,-38.5"/>
<text text-anchor="middle" x="643.5" y="-45.5" font-family="Helvetica,sans-Serif" font-size="10.00">MPIU_Tracev</text>
</a>
</g>
</g>
<!-- Node17&#45;&gt;Node18 -->
<g id="edge18" class="edge">
<title>Node17&#45;&gt;Node18</title>
<path fill="none" stroke="midnightblue" d="M543.1,-48C558,-48 576.47,-48 593.43,-48"/>
<polygon fill="midnightblue" stroke="midnightblue" points="593.74,-51.5 603.74,-48 593.74,-44.5 593.74,-51.5"/>
</g>
<!-- Node19 -->
<g id="node19" class="node">
<title>Node19</title>
<g id="a_node19"><a xlink:href="system_8c.html#a87108946670b4c3afbe846c6726675ff" target="_top" xlink:title=" ">
<polygon fill="white" stroke="black" points="727,-38.5 727,-57.5 777,-57.5 777,-38.5 727,-38.5"/>
<text text-anchor="middle" x="752" y="-45.5" font-family="Helvetica,sans-Serif" font-size="10.00">putline</text>
</a>
</g>
</g>
<!-- Node18&#45;&gt;Node19 -->
<g id="edge19" class="edge">
<title>Node18&#45;&gt;Node19</title>
<path fill="none" stroke="midnightblue" d="M683.25,-48C694.22,-48 706.09,-48 716.77,-48"/>
<polygon fill="midnightblue" stroke="midnightblue" points="716.99,-51.5 726.99,-48 716.99,-44.5 716.99,-51.5"/>
</g>
<!-- Node21 -->
<g id="node21" class="node">
<title>Node21</title>
<g id="a_node21"><a xlink:href="endrun_8c.html#ad963d7efdb9f10f7a2298c8ccd222ab0" target="_top" xlink:title=" ">
<polygon fill="white" stroke="black" points="487.5,-0.5 487.5,-19.5 537.5,-19.5 537.5,-0.5 487.5,-0.5"/>
<text text-anchor="middle" x="512.5" y="-7.5" font-family="Helvetica,sans-Serif" font-size="10.00">endrun</text>
</a>
</g>
</g>
<!-- Node20&#45;&gt;Node21 -->
<g id="edge21" class="edge">
<title>Node20&#45;&gt;Node21</title>
<path fill="none" stroke="midnightblue" d="M414.19,-10C434.56,-10 458.09,-10 476.91,-10"/>
<polygon fill="midnightblue" stroke="midnightblue" points="477.11,-13.5 487.11,-10 477.11,-6.5 477.11,-13.5"/>
</g>
<!-- Node21&#45;&gt;Node18 -->
<g id="edge22" class="edge">
<title>Node21&#45;&gt;Node18</title>
<path fill="none" stroke="midnightblue" d="M537.76,-17.15C555.33,-22.32 579.51,-29.45 600.22,-35.55"/>
<polygon fill="midnightblue" stroke="midnightblue" points="599.48,-38.98 610.06,-38.44 601.46,-32.26 599.48,-38.98"/>
</g>
<!-- Node22 -->
<g id="node22" class="node">
<title>Node22</title>
<g id="a_node22"><a xlink:href="endrun_8c.html#a1200f02a595ab7cbe17c9e36ff32af0f" target="_top" xlink:title=" ">
<polygon fill="white" stroke="black" points="596,-0.5 596,-19.5 691,-19.5 691,-0.5 596,-0.5"/>
<text text-anchor="middle" x="643.5" y="-7.5" font-family="Helvetica,sans-Serif" font-size="10.00">show_backtrace</text>
</a>
</g>
</g>
<!-- Node21&#45;&gt;Node22 -->
<g id="edge23" class="edge">
<title>Node21&#45;&gt;Node22</title>
<path fill="none" stroke="midnightblue" d="M537.76,-10C551.3,-10 568.78,-10 585.56,-10"/>
<polygon fill="midnightblue" stroke="midnightblue" points="585.88,-13.5 595.88,-10 585.88,-6.5 585.88,-13.5"/>
</g>
</g>
</svg>
