<?xml version="1.0" encoding="UTF-8" standalone="no"?>
<!DOCTYPE svg PUBLIC "-//W3C//DTD SVG 1.1//EN"
 "http://www.w3.org/Graphics/SVG/1.1/DTD/svg11.dtd">
<!-- Generated by graphviz version 2.38.0 (20140413.2041)
 -->
<!-- Title: main Pages: 1 -->
<svg width="344pt" height="47pt"
 viewBox="0.00 0.00 344.00 47.00" xmlns="http://www.w3.org/2000/svg" xmlns:xlink="http://www.w3.org/1999/xlink">
<g id="graph0" class="graph" transform="scale(1 1) rotate(0) translate(4 43)">
<title>main</title>
<polygon fill="white" stroke="none" points="-4,4 -4,-43 340,-43 340,4 -4,4"/>
<!-- Node459 -->
<g id="node1" class="node"><title>Node459</title>
<polygon fill="#bfbfbf" stroke="black" points="0,-0.5 0,-19.5 38,-19.5 38,-0.5 0,-0.5"/>
<text text-anchor="middle" x="19" y="-7.5" font-family="Helvetica,sans-Serif" font-size="10.00">main</text>
</g>
<!-- Node460 -->
<g id="node2" class="node"><title>Node460</title>
<g id="a_node2"><a xlink:href="walltime_8h.html#a76d2135b612766d4d665748454b879d6" target="_top" xlink:title="walltime_report">
<polygon fill="white" stroke="black" points="74,-19.5 74,-38.5 157,-38.5 157,-19.5 74,-19.5"/>
<text text-anchor="middle" x="115.5" y="-26.5" font-family="Helvetica,sans-Serif" font-size="10.00">walltime_report</text>
</a>
</g>
</g>
<!-- Node459&#45;&gt;Node460 -->
<g id="edge1" class="edge"><title>Node459&#45;&gt;Node460</title>
<path fill="none" stroke="midnightblue" d="M48.1409,-15.658C56.1478,-17.2678 65.0351,-19.0547 73.6349,-20.7837"/>
<polygon fill="midnightblue" stroke="midnightblue" points="48.7143,-12.2033 38.2206,-13.6634 47.3344,-19.0659 48.7143,-12.2033"/>
</g>
<!-- Node461 -->
<g id="node3" class="node"><title>Node461</title>
<g id="a_node3"><a xlink:href="run_8c.html#adc59e9ee1517e4e690694a64ab6a59d2" target="_top" xlink:title="write_cpu_log">
<polygon fill="white" stroke="black" points="193,-19.5 193,-38.5 270,-38.5 270,-19.5 193,-19.5"/>
<text text-anchor="middle" x="231.5" y="-26.5" font-family="Helvetica,sans-Serif" font-size="10.00">write_cpu_log</text>
</a>
</g>
</g>
<!-- Node460&#45;&gt;Node461 -->
<g id="edge2" class="edge"><title>Node460&#45;&gt;Node461</title>
<path fill="none" stroke="midnightblue" d="M167.031,-29C175.684,-29 184.54,-29 192.785,-29"/>
<polygon fill="midnightblue" stroke="midnightblue" points="167.013,-25.5001 157.013,-29 167.013,-32.5001 167.013,-25.5001"/>
</g>
<!-- Node462 -->
<g id="node4" class="node"><title>Node462</title>
<g id="a_node4"><a xlink:href="run_8c.html#a05e0ffe612d44e6d7f3a9ae5b9df56a2" target="_top" xlink:title="run">
<polygon fill="white" stroke="black" points="306,-0.5 306,-19.5 336,-19.5 336,-0.5 306,-0.5"/>
<text text-anchor="middle" x="321" y="-7.5" font-family="Helvetica,sans-Serif" font-size="10.00">run</text>
</a>
</g>
</g>
<!-- Node461&#45;&gt;Node462 -->
<g id="edge3" class="edge"><title>Node461&#45;&gt;Node462</title>
<path fill="none" stroke="midnightblue" d="M279.925,-18.7021C289.329,-16.6601 298.505,-14.6676 305.698,-13.1056"/>
<polygon fill="midnightblue" stroke="midnightblue" points="279.145,-15.2897 270.116,-20.832 280.631,-22.1303 279.145,-15.2897"/>
</g>
<!-- Node462&#45;&gt;Node459 -->
<g id="edge4" class="edge"><title>Node462&#45;&gt;Node459</title>
<path fill="none" stroke="midnightblue" d="M295.758,-10C237.391,-10 90.0639,-10 38.3147,-10"/>
<polygon fill="midnightblue" stroke="midnightblue" points="295.885,-13.5001 305.885,-10 295.885,-6.5001 295.885,-13.5001"/>
</g>
</g>
</svg>
