<?xml version="1.0" encoding="UTF-8" standalone="no"?>
<!DOCTYPE svg PUBLIC "-//W3C//DTD SVG 1.1//EN"
 "http://www.w3.org/Graphics/SVG/1.1/DTD/svg11.dtd">
<!-- Generated by graphviz version 2.38.0 (20140413.2041)
 -->
<!-- Title: convert_u_to_temp Pages: 1 -->
<svg width="186pt" height="39pt"
 viewBox="0.00 0.00 185.50 39.00" xmlns="http://www.w3.org/2000/svg" xmlns:xlink="http://www.w3.org/1999/xlink">
<g id="graph0" class="graph" transform="scale(1 1) rotate(0) translate(4 35)">
<title>convert_u_to_temp</title>
<polygon fill="white" stroke="none" points="-4,4 -4,-35 181.5,-35 181.5,4 -4,4"/>
<!-- Node0 -->
<g id="node1" class="node"><title>Node0</title>
<polygon fill="#bfbfbf" stroke="black" points="77.5,-6 77.5,-25 177.5,-25 177.5,-6 77.5,-6"/>
<text text-anchor="middle" x="127.5" y="-13" font-family="Helvetica,sans-Serif" font-size="10.00">convert_u_to_temp</text>
</g>
<!-- Node1 -->
<g id="node2" class="node"><title>Node1</title>
<g id="a_node2"><a xlink:href="MakePrimordialCoolingTable_8c.html#a66885b8b83735ea16f7318ab57445e44" target="_top" xlink:title="find_abundances_and\l_rates">
<polygon fill="white" stroke="black" points="-7.10543e-15,-0.5 -7.10543e-15,-30.5 111,-30.5 111,-0.5 -7.10543e-15,-0.5"/>
<text text-anchor="start" x="8" y="-18.5" font-family="Helvetica,sans-Serif" font-size="10.00">find_abundances_and</text>
<text text-anchor="middle" x="55.5" y="-7.5" font-family="Helvetica,sans-Serif" font-size="10.00">_rates</text>
</a>
</g>
</g>
<!-- Node0&#45;&gt;Node1 -->
<g id="edge1" class="edge"><title>Node0&#45;&gt;Node1</title>
<path fill="none" stroke="midnightblue" d="M77.4936,-15.5C77.4456,-15.5 77.3977,-15.5 77.3497,-15.5"/>
<polygon fill="midnightblue" stroke="midnightblue" points="87.2086,-12.007 77.2061,-15.5 87.2037,-19.007 87.2086,-12.007"/>
</g>
</g>
</svg>
