<?xml version="1.0" encoding="UTF-8" standalone="no"?>
<!DOCTYPE svg PUBLIC "-//W3C//DTD SVG 1.1//EN"
 "http://www.w3.org/Graphics/SVG/1.1/DTD/svg11.dtd">
<!-- Generated by graphviz version 2.38.0 (20140413.2041)
 -->
<!-- Title: InitCoolMemory Pages: 1 -->
<svg width="142pt" height="28pt"
 viewBox="0.00 0.00 142.00 28.00" xmlns="http://www.w3.org/2000/svg" xmlns:xlink="http://www.w3.org/1999/xlink">
<g id="graph0" class="graph" transform="scale(1 1) rotate(0) translate(4 24)">
<title>InitCoolMemory</title>
<polygon fill="white" stroke="none" points="-4,4 -4,-24 138,-24 138,4 -4,4"/>
<!-- Node14 -->
<g id="node1" class="node"><title>Node14</title>
<polygon fill="#bfbfbf" stroke="black" points="48,-0.5 48,-19.5 134,-19.5 134,-0.5 48,-0.5"/>
<text text-anchor="middle" x="91" y="-7.5" font-family="Helvetica,sans-Serif" font-size="10.00">InitCoolMemory</text>
</g>
<!-- Node15 -->
<g id="node2" class="node"><title>Node15</title>
<g id="a_node2"><a xlink:href="MakePrimordialCoolingTable_8c.html#a0ddf1224851353fc92bfbff6f499fa97" target="_top" xlink:title="main">
<polygon fill="white" stroke="black" points="-3.55271e-15,-0.5 -3.55271e-15,-19.5 38,-19.5 38,-0.5 -3.55271e-15,-0.5"/>
<text text-anchor="middle" x="19" y="-7.5" font-family="Helvetica,sans-Serif" font-size="10.00">main</text>
</a>
</g>
</g>
<!-- Node14&#45;&gt;Node15 -->
<g id="edge1" class="edge"><title>Node14&#45;&gt;Node15</title>
<path fill="none" stroke="midnightblue" d="M38.4757,-10C38.3797,-10 38.2839,-10 38.1883,-10"/>
<polygon fill="midnightblue" stroke="midnightblue" points="37.8703,-13.5001 47.8703,-10 37.8703,-6.50011 37.8703,-13.5001"/>
</g>
</g>
</svg>
