<?xml version="1.0" encoding="UTF-8" standalone="no"?>
<!DOCTYPE svg PUBLIC "-//W3C//DTD SVG 1.1//EN"
 "http://www.w3.org/Graphics/SVG/1.1/DTD/svg11.dtd">
<!-- Generated by graphviz version 2.38.0 (20140413.2041)
 -->
<!-- Title: MakeCoolingTable Pages: 1 -->
<svg width="148pt" height="28pt"
 viewBox="0.00 0.00 148.00 28.00" xmlns="http://www.w3.org/2000/svg" xmlns:xlink="http://www.w3.org/1999/xlink">
<g id="graph0" class="graph" transform="scale(1 1) rotate(0) translate(4 24)">
<title>MakeCoolingTable</title>
<polygon fill="white" stroke="none" points="-4,4 -4,-24 144,-24 144,4 -4,4"/>
<!-- Node38 -->
<g id="node1" class="node"><title>Node38</title>
<polygon fill="#bfbfbf" stroke="black" points="42,-0.5 42,-19.5 140,-19.5 140,-0.5 42,-0.5"/>
<text text-anchor="middle" x="91" y="-7.5" font-family="Helvetica,sans-Serif" font-size="10.00">MakeCoolingTable</text>
</g>
<!-- Node39 -->
<g id="node2" class="node"><title>Node39</title>
<g id="a_node2"><a xlink:href="MakePrimordialCoolingTable_8c.html#a0ddf1224851353fc92bfbff6f499fa97" target="_top" xlink:title="main">
<polygon fill="white" stroke="black" points="-3.55271e-15,-0.5 -3.55271e-15,-19.5 38,-19.5 38,-0.5 -3.55271e-15,-0.5"/>
<text text-anchor="middle" x="19" y="-7.5" font-family="Helvetica,sans-Serif" font-size="10.00">main</text>
</a>
</g>
</g>
<!-- Node38&#45;&gt;Node39 -->
<g id="edge1" class="edge"><title>Node38&#45;&gt;Node39</title>
<path fill="none" stroke="midnightblue" d="M38.4724,-10C38.3182,-10 38.1645,-10 38.0113,-10"/>
<polygon fill="midnightblue" stroke="midnightblue" points="31.7814,-13.5003 41.7812,-10 31.7811,-6.5003 31.7814,-13.5003"/>
</g>
</g>
</svg>
