<?xml version="1.0" encoding="UTF-8" standalone="no"?>
<!DOCTYPE svg PUBLIC "-//W3C//DTD SVG 1.1//EN"
 "http://www.w3.org/Graphics/SVG/1.1/DTD/svg11.dtd">
<!-- Generated by graphviz version 2.50.0 (0)
 -->
<!-- Title: allocator_init Pages: 1 -->
<svg width="1259pt" height="294pt"
 viewBox="0.00 0.00 1259.00 294.36" xmlns="http://www.w3.org/2000/svg" xmlns:xlink="http://www.w3.org/1999/xlink">
<g id="graph0" class="graph" transform="scale(1 1) rotate(0) translate(4 290.36)">
<title>allocator_init</title>
<polygon fill="white" stroke="transparent" points="-4,4 -4,-290.36 1255,-290.36 1255,4 -4,4"/>
<!-- Node1 -->
<g id="node1" class="node">
<title>Node1</title>
<g id="a_node1"><a xlink:title=" ">
<polygon fill="#bfbfbf" stroke="black" points="0,-119.86 0,-138.86 80,-138.86 80,-119.86 0,-119.86"/>
<text text-anchor="middle" x="40" y="-126.86" font-family="Helvetica,sans-Serif" font-size="10.00">allocator_init</text>
</a>
</g>
</g>
<!-- Node2 -->
<g id="node2" class="node">
<title>Node2</title>
<g id="a_node2"><a xlink:href="memory_8c.html#a06d7190226b2e40bdf2eaceceba20f2f" target="_top" xlink:title=" ">
<polygon fill="white" stroke="black" points="116,-127.86 116,-146.86 204,-146.86 204,-127.86 116,-127.86"/>
<text text-anchor="middle" x="160" y="-134.86" font-family="Helvetica,sans-Serif" font-size="10.00">allocator_alloc</text>
</a>
</g>
</g>
<!-- Node1&#45;&gt;Node2 -->
<g id="edge1" class="edge">
<title>Node1&#45;&gt;Node2</title>
<path fill="none" stroke="midnightblue" d="M80.29,-132.03C88.4,-132.58 97.06,-133.17 105.57,-133.74"/>
<polygon fill="midnightblue" stroke="midnightblue" points="105.6,-137.25 115.82,-134.44 106.08,-130.27 105.6,-137.25"/>
</g>
<!-- Node16 -->
<g id="node16" class="node">
<title>Node16</title>
<g id="a_node16"><a xlink:href="memory_8c.html#a645e6ff1388809bd634f6d29e97db28c" target="_top" xlink:title=" ">
<polygon fill="white" stroke="black" points="526.5,-48.86 526.5,-67.86 615.5,-67.86 615.5,-48.86 526.5,-48.86"/>
<text text-anchor="middle" x="571" y="-55.86" font-family="Helvetica,sans-Serif" font-size="10.00">allocator_reset</text>
</a>
</g>
</g>
<!-- Node1&#45;&gt;Node16 -->
<g id="edge21" class="edge">
<title>Node1&#45;&gt;Node16</title>
<path fill="none" stroke="midnightblue" d="M80.3,-123.49C91.8,-121.8 104.4,-119.98 116,-118.36 260.71,-98.19 431.63,-76.06 516.54,-65.18"/>
<polygon fill="midnightblue" stroke="midnightblue" points="516.99,-68.65 526.46,-63.91 516.1,-61.71 516.99,-68.65"/>
</g>
<!-- Node3 -->
<g id="node3" class="node">
<title>Node3</title>
<g id="a_node3"><a xlink:href="memory_8c.html#a9101bc2df32496c54603c12301372ea8" target="_top" xlink:title=" ">
<polygon fill="white" stroke="black" points="240,-155.86 240,-174.86 345,-174.86 345,-155.86 240,-155.86"/>
<text text-anchor="middle" x="292.5" y="-162.86" font-family="Helvetica,sans-Serif" font-size="10.00">allocator_alloc_va</text>
</a>
</g>
</g>
<!-- Node2&#45;&gt;Node3 -->
<g id="edge2" class="edge">
<title>Node2&#45;&gt;Node3</title>
<path fill="none" stroke="midnightblue" d="M204.09,-146.61C214.66,-148.88 226.12,-151.34 237.14,-153.7"/>
<polygon fill="midnightblue" stroke="midnightblue" points="236.6,-157.17 247.11,-155.84 238.07,-150.32 236.6,-157.17"/>
</g>
<!-- Node4 -->
<g id="node4" class="node">
<title>Node4</title>
<g id="a_node4"><a xlink:href="memory_8c.html#ac6472b7ca5b76ef02be3795ca8863fae" target="_top" xlink:title=" ">
<polygon fill="white" stroke="black" points="381,-155.86 381,-174.86 468,-174.86 468,-155.86 381,-155.86"/>
<text text-anchor="middle" x="424.5" y="-162.86" font-family="Helvetica,sans-Serif" font-size="10.00">allocator_print</text>
</a>
</g>
</g>
<!-- Node3&#45;&gt;Node4 -->
<g id="edge3" class="edge">
<title>Node3&#45;&gt;Node4</title>
<path fill="none" stroke="midnightblue" d="M345.25,-165.36C353.61,-165.36 362.27,-165.36 370.65,-165.36"/>
<polygon fill="midnightblue" stroke="midnightblue" points="370.7,-168.86 380.7,-165.36 370.7,-161.86 370.7,-168.86"/>
</g>
<!-- Node9 -->
<g id="node9" class="node">
<title>Node9</title>
<g id="a_node9"><a xlink:href="endrun_8c.html#ad963d7efdb9f10f7a2298c8ccd222ab0" target="_top" xlink:title=" ">
<polygon fill="white" stroke="black" points="977,-210.86 977,-229.86 1027,-229.86 1027,-210.86 977,-210.86"/>
<text text-anchor="middle" x="1002" y="-217.86" font-family="Helvetica,sans-Serif" font-size="10.00">endrun</text>
</a>
</g>
</g>
<!-- Node3&#45;&gt;Node9 -->
<g id="edge20" class="edge">
<title>Node3&#45;&gt;Node9</title>
<path fill="none" stroke="midnightblue" d="M305.61,-175.06C342.74,-203.78 459.18,-286.36 570,-286.36 570,-286.36 570,-286.36 733,-286.36 820.19,-286.36 918.84,-253.02 968.6,-233.73"/>
<polygon fill="midnightblue" stroke="midnightblue" points="970.15,-236.88 978.17,-229.96 967.58,-230.37 970.15,-236.88"/>
</g>
<!-- Node5 -->
<g id="node5" class="node">
<title>Node5</title>
<g id="a_node5"><a xlink:href="memory_8c.html#a7d147e0f7a869dd7c832a77fa7374772" target="_top" xlink:title=" ">
<polygon fill="white" stroke="black" points="506,-86.86 506,-105.86 636,-105.86 636,-86.86 506,-86.86"/>
<text text-anchor="middle" x="571" y="-93.86" font-family="Helvetica,sans-Serif" font-size="10.00">allocator_get_free_size</text>
</a>
</g>
</g>
<!-- Node4&#45;&gt;Node5 -->
<g id="edge4" class="edge">
<title>Node4&#45;&gt;Node5</title>
<path fill="none" stroke="midnightblue" d="M440.43,-155.77C455.93,-146.07 481.06,-131.01 504,-120.36 512.53,-116.41 521.91,-112.65 530.85,-109.34"/>
<polygon fill="midnightblue" stroke="midnightblue" points="532.1,-112.62 540.32,-105.94 529.73,-106.03 532.1,-112.62"/>
</g>
<!-- Node6 -->
<g id="node6" class="node">
<title>Node6</title>
<g id="a_node6"><a xlink:href="memory_8c.html#ae8ed0c76854687599e00d825e3d1ec4b" target="_top" xlink:title=" ">
<polygon fill="white" stroke="black" points="504,-162.86 504,-181.86 638,-181.86 638,-162.86 504,-162.86"/>
<text text-anchor="middle" x="571" y="-169.86" font-family="Helvetica,sans-Serif" font-size="10.00">allocator_get_used_size</text>
</a>
</g>
</g>
<!-- Node4&#45;&gt;Node6 -->
<g id="edge5" class="edge">
<title>Node4&#45;&gt;Node6</title>
<path fill="none" stroke="midnightblue" d="M468.07,-167.43C476.24,-167.82 485.02,-168.25 493.87,-168.68"/>
<polygon fill="midnightblue" stroke="midnightblue" points="493.72,-172.17 503.88,-169.16 494.06,-165.18 493.72,-172.17"/>
</g>
<!-- Node7 -->
<g id="node7" class="node">
<title>Node7</title>
<g id="a_node7"><a xlink:href="memory_8c.html#af219c7066531e1f24d914b86e51406e8" target="_top" xlink:title=" ">
<polygon fill="white" stroke="black" points="674,-124.86 674,-143.86 790,-143.86 790,-124.86 674,-124.86"/>
<text text-anchor="middle" x="732" y="-131.86" font-family="Helvetica,sans-Serif" font-size="10.00">allocator_iter_ended</text>
</a>
</g>
</g>
<!-- Node4&#45;&gt;Node7 -->
<g id="edge15" class="edge">
<title>Node4&#45;&gt;Node7</title>
<path fill="none" stroke="midnightblue" d="M468.21,-158.3C479.8,-156.52 492.36,-154.74 504,-153.36 557.67,-147.02 618.73,-142.04 664,-138.77"/>
<polygon fill="midnightblue" stroke="midnightblue" points="664.26,-142.26 673.99,-138.06 663.76,-135.28 664.26,-142.26"/>
</g>
<!-- Node8 -->
<g id="node8" class="node">
<title>Node8</title>
<g id="a_node8"><a xlink:href="memory_8c.html#a1071a12fb6ee5a98c249cbcd497bfdd0" target="_top" xlink:title=" ">
<polygon fill="white" stroke="black" points="826,-191.86 826,-210.86 934,-210.86 934,-191.86 826,-191.86"/>
<text text-anchor="middle" x="880" y="-198.86" font-family="Helvetica,sans-Serif" font-size="10.00">allocator_iter_next</text>
</a>
</g>
</g>
<!-- Node4&#45;&gt;Node8 -->
<g id="edge16" class="edge">
<title>Node4&#45;&gt;Node8</title>
<path fill="none" stroke="midnightblue" d="M437.71,-175.04C452.47,-186.15 478.51,-203.93 504,-212.36 624.89,-252.37 664.14,-248.7 790,-229.36 808.83,-226.47 829.14,-220.33 845.59,-214.53"/>
<polygon fill="midnightblue" stroke="midnightblue" points="847.1,-217.71 855.3,-211 844.7,-211.13 847.1,-217.71"/>
</g>
<!-- Node14 -->
<g id="node14" class="node">
<title>Node14</title>
<g id="a_node14"><a xlink:href="memory_8c.html#ad4519ad28c6b5c244e6d82f37f1698f6" target="_top" xlink:title=" ">
<polygon fill="white" stroke="black" points="677.5,-200.86 677.5,-219.86 786.5,-219.86 786.5,-200.86 677.5,-200.86"/>
<text text-anchor="middle" x="732" y="-207.86" font-family="Helvetica,sans-Serif" font-size="10.00">allocator_iter_start</text>
</a>
</g>
</g>
<!-- Node4&#45;&gt;Node14 -->
<g id="edge17" class="edge">
<title>Node4&#45;&gt;Node14</title>
<path fill="none" stroke="midnightblue" d="M449.5,-174.95C464.84,-180.67 485.29,-187.54 504,-191.36 558.39,-202.49 621.39,-207.12 667.2,-209.04"/>
<polygon fill="midnightblue" stroke="midnightblue" points="667.16,-212.54 677.29,-209.43 667.43,-205.55 667.16,-212.54"/>
</g>
<!-- Node15 -->
<g id="node15" class="node">
<title>Node15</title>
<g id="a_node15"><a xlink:href="endrun_8c.html#a6567cd867c5549fb6586e19ccd819764" target="_top" xlink:title=" ">
<polygon fill="white" stroke="black" points="849.5,-20.86 849.5,-39.86 910.5,-39.86 910.5,-20.86 849.5,-20.86"/>
<text text-anchor="middle" x="880" y="-27.86" font-family="Helvetica,sans-Serif" font-size="10.00">message</text>
</a>
</g>
</g>
<!-- Node4&#45;&gt;Node15 -->
<g id="edge18" class="edge">
<title>Node4&#45;&gt;Node15</title>
<path fill="none" stroke="midnightblue" d="M428.04,-155.84C435.16,-131.24 457.89,-65.69 504,-39.36 611.8,22.19 766.99,-2.94 839.22,-19.78"/>
<polygon fill="midnightblue" stroke="midnightblue" points="838.71,-23.26 849.25,-22.2 840.35,-16.46 838.71,-23.26"/>
</g>
<!-- Node6&#45;&gt;Node7 -->
<g id="edge6" class="edge">
<title>Node6&#45;&gt;Node7</title>
<path fill="none" stroke="midnightblue" d="M612.12,-162.78C633.1,-157.76 658.98,-151.58 681.23,-146.26"/>
<polygon fill="midnightblue" stroke="midnightblue" points="682.25,-149.61 691.17,-143.88 680.63,-142.81 682.25,-149.61"/>
</g>
<!-- Node6&#45;&gt;Node8 -->
<g id="edge7" class="edge">
<title>Node6&#45;&gt;Node8</title>
<path fill="none" stroke="midnightblue" d="M638.35,-177.71C681.56,-181.31 739.15,-186.29 790,-191.36 798.34,-192.2 807.11,-193.12 815.77,-194.06"/>
<polygon fill="midnightblue" stroke="midnightblue" points="815.52,-197.56 825.84,-195.17 816.29,-190.6 815.52,-197.56"/>
</g>
<!-- Node6&#45;&gt;Node14 -->
<g id="edge13" class="edge">
<title>Node6&#45;&gt;Node14</title>
<path fill="none" stroke="midnightblue" d="M612.12,-181.95C633.1,-186.97 658.98,-193.15 681.23,-198.47"/>
<polygon fill="midnightblue" stroke="midnightblue" points="680.63,-201.92 691.17,-200.84 682.25,-195.12 680.63,-201.92"/>
</g>
<!-- Node8&#45;&gt;Node9 -->
<g id="edge8" class="edge">
<title>Node8&#45;&gt;Node9</title>
<path fill="none" stroke="midnightblue" d="M934.33,-209.81C945.39,-211.56 956.75,-213.36 966.89,-214.96"/>
<polygon fill="midnightblue" stroke="midnightblue" points="966.53,-218.45 976.96,-216.56 967.63,-211.54 966.53,-218.45"/>
</g>
<!-- Node13 -->
<g id="node13" class="node">
<title>Node13</title>
<g id="a_node13"><a xlink:href="memory_8c.html#a027cc6371b4b530bd0ab24021475ac98" target="_top" xlink:title=" ">
<polygon fill="white" stroke="black" points="970,-172.86 970,-191.86 1034,-191.86 1034,-172.86 970,-172.86"/>
<text text-anchor="middle" x="1002" y="-179.86" font-family="Helvetica,sans-Serif" font-size="10.00">is_header</text>
</a>
</g>
</g>
<!-- Node8&#45;&gt;Node13 -->
<g id="edge12" class="edge">
<title>Node8&#45;&gt;Node13</title>
<path fill="none" stroke="midnightblue" d="M934.33,-192.92C942.87,-191.57 951.59,-190.19 959.79,-188.89"/>
<polygon fill="midnightblue" stroke="midnightblue" points="960.52,-192.32 969.85,-187.3 959.42,-185.4 960.52,-192.32"/>
</g>
<!-- Node10 -->
<g id="node10" class="node">
<title>Node10</title>
<g id="a_node10"><a xlink:href="system_8c.html#a341c8d27bd6c7dde856566810b412b1f" target="_top" xlink:title=" ">
<polygon fill="white" stroke="black" points="1078,-153.86 1078,-172.86 1157,-172.86 1157,-153.86 1078,-153.86"/>
<text text-anchor="middle" x="1117.5" y="-160.86" font-family="Helvetica,sans-Serif" font-size="10.00">MPIU_Tracev</text>
</a>
</g>
</g>
<!-- Node9&#45;&gt;Node10 -->
<g id="edge9" class="edge">
<title>Node9&#45;&gt;Node10</title>
<path fill="none" stroke="midnightblue" d="M1022,-210.82C1040.17,-201.7 1067.78,-187.83 1088.48,-177.44"/>
<polygon fill="midnightblue" stroke="midnightblue" points="1090.08,-180.55 1097.44,-172.94 1086.93,-174.3 1090.08,-180.55"/>
</g>
<!-- Node12 -->
<g id="node12" class="node">
<title>Node12</title>
<g id="a_node12"><a xlink:href="endrun_8c.html#a1200f02a595ab7cbe17c9e36ff32af0f" target="_top" xlink:title=" ">
<polygon fill="white" stroke="black" points="1070,-210.86 1070,-229.86 1165,-229.86 1165,-210.86 1070,-210.86"/>
<text text-anchor="middle" x="1117.5" y="-217.86" font-family="Helvetica,sans-Serif" font-size="10.00">show_backtrace</text>
</a>
</g>
</g>
<!-- Node9&#45;&gt;Node12 -->
<g id="edge11" class="edge">
<title>Node9&#45;&gt;Node12</title>
<path fill="none" stroke="midnightblue" d="M1027.07,-220.36C1036.63,-220.36 1048.07,-220.36 1059.53,-220.36"/>
<polygon fill="midnightblue" stroke="midnightblue" points="1059.55,-223.86 1069.55,-220.36 1059.55,-216.86 1059.55,-223.86"/>
</g>
<!-- Node11 -->
<g id="node11" class="node">
<title>Node11</title>
<g id="a_node11"><a xlink:href="system_8c.html#a87108946670b4c3afbe846c6726675ff" target="_top" xlink:title=" ">
<polygon fill="white" stroke="black" points="1201,-153.86 1201,-172.86 1251,-172.86 1251,-153.86 1201,-153.86"/>
<text text-anchor="middle" x="1226" y="-160.86" font-family="Helvetica,sans-Serif" font-size="10.00">putline</text>
</a>
</g>
</g>
<!-- Node10&#45;&gt;Node11 -->
<g id="edge10" class="edge">
<title>Node10&#45;&gt;Node11</title>
<path fill="none" stroke="midnightblue" d="M1157.25,-163.36C1168.22,-163.36 1180.09,-163.36 1190.77,-163.36"/>
<polygon fill="midnightblue" stroke="midnightblue" points="1190.99,-166.86 1200.99,-163.36 1190.99,-159.86 1190.99,-166.86"/>
</g>
<!-- Node14&#45;&gt;Node8 -->
<g id="edge14" class="edge">
<title>Node14&#45;&gt;Node8</title>
<path fill="none" stroke="midnightblue" d="M786.54,-207.06C796.08,-206.48 806.1,-205.86 815.88,-205.26"/>
<polygon fill="midnightblue" stroke="midnightblue" points="816.19,-208.74 825.96,-204.63 815.76,-201.76 816.19,-208.74"/>
</g>
<!-- Node15&#45;&gt;Node10 -->
<g id="edge19" class="edge">
<title>Node15&#45;&gt;Node10</title>
<path fill="none" stroke="midnightblue" d="M897.94,-39.93C938.57,-62.88 1041.83,-121.19 1090.44,-148.65"/>
<polygon fill="midnightblue" stroke="midnightblue" points="1088.97,-151.84 1099.4,-153.71 1092.41,-145.74 1088.97,-151.84"/>
</g>
<!-- Node16&#45;&gt;Node7 -->
<g id="edge22" class="edge">
<title>Node16&#45;&gt;Node7</title>
<path fill="none" stroke="midnightblue" d="M611.7,-67.92C620.52,-70.55 629.71,-73.71 638,-77.36 663.91,-88.78 691.28,-106.31 709.57,-118.91"/>
<polygon fill="midnightblue" stroke="midnightblue" points="707.57,-121.79 717.77,-124.66 711.59,-116.05 707.57,-121.79"/>
</g>
<!-- Node16&#45;&gt;Node8 -->
<g id="edge23" class="edge">
<title>Node16&#45;&gt;Node8</title>
<path fill="none" stroke="midnightblue" d="M615.82,-63.16C661.68,-69.65 734.58,-84.22 790,-115.36 821.33,-132.97 849.71,-164.28 865.62,-183.87"/>
<polygon fill="midnightblue" stroke="midnightblue" points="862.88,-186.05 871.84,-191.72 868.37,-181.7 862.88,-186.05"/>
</g>
<!-- Node16&#45;&gt;Node14 -->
<g id="edge24" class="edge">
<title>Node16&#45;&gt;Node14</title>
<path fill="none" stroke="midnightblue" d="M615.82,-65.32C623.82,-68.09 631.64,-71.96 638,-77.36 666.48,-101.57 652.47,-122.81 674,-153.36 684.74,-168.61 699.74,-183.43 711.66,-194.13"/>
<polygon fill="midnightblue" stroke="midnightblue" points="709.5,-196.89 719.33,-200.84 714.11,-191.62 709.5,-196.89"/>
</g>
</g>
</svg>
