<?xml version="1.0" encoding="UTF-8" standalone="no"?>
<!DOCTYPE svg PUBLIC "-//W3C//DTD SVG 1.1//EN"
 "http://www.w3.org/Graphics/SVG/1.1/DTD/svg11.dtd">
<!-- Generated by graphviz version 2.50.0 (0)
 -->
<!-- Title: allocator_print Pages: 1 -->
<svg width="878pt" height="218pt"
 viewBox="0.00 0.00 878.00 218.00" xmlns="http://www.w3.org/2000/svg" xmlns:xlink="http://www.w3.org/1999/xlink">
<g id="graph0" class="graph" transform="scale(1 1) rotate(0) translate(4 214)">
<title>allocator_print</title>
<polygon fill="white" stroke="transparent" points="-4,4 -4,-214 874,-214 874,4 -4,4"/>
<!-- Node1 -->
<g id="node1" class="node">
<title>Node1</title>
<g id="a_node1"><a xlink:title=" ">
<polygon fill="#bfbfbf" stroke="black" points="0,-95.5 0,-114.5 87,-114.5 87,-95.5 0,-95.5"/>
<text text-anchor="middle" x="43.5" y="-102.5" font-family="Helvetica,sans-Serif" font-size="10.00">allocator_print</text>
</a>
</g>
</g>
<!-- Node2 -->
<g id="node2" class="node">
<title>Node2</title>
<g id="a_node2"><a xlink:href="memory_8c.html#a7d147e0f7a869dd7c832a77fa7374772" target="_top" xlink:title=" ">
<polygon fill="white" stroke="black" points="125,-190.5 125,-209.5 255,-209.5 255,-190.5 125,-190.5"/>
<text text-anchor="middle" x="190" y="-197.5" font-family="Helvetica,sans-Serif" font-size="10.00">allocator_get_free_size</text>
</a>
</g>
</g>
<!-- Node1&#45;&gt;Node2 -->
<g id="edge1" class="edge">
<title>Node1&#45;&gt;Node2</title>
<path fill="none" stroke="midnightblue" d="M52.76,-114.55C66.15,-129.51 94.03,-158.56 123,-176 129.98,-180.2 137.81,-183.85 145.58,-186.94"/>
<polygon fill="midnightblue" stroke="midnightblue" points="144.36,-190.22 154.96,-190.43 146.81,-183.66 144.36,-190.22"/>
</g>
<!-- Node3 -->
<g id="node3" class="node">
<title>Node3</title>
<g id="a_node3"><a xlink:href="memory_8c.html#ae8ed0c76854687599e00d825e3d1ec4b" target="_top" xlink:title=" ">
<polygon fill="white" stroke="black" points="123,-114.5 123,-133.5 257,-133.5 257,-114.5 123,-114.5"/>
<text text-anchor="middle" x="190" y="-121.5" font-family="Helvetica,sans-Serif" font-size="10.00">allocator_get_used_size</text>
</a>
</g>
</g>
<!-- Node1&#45;&gt;Node3 -->
<g id="edge2" class="edge">
<title>Node1&#45;&gt;Node3</title>
<path fill="none" stroke="midnightblue" d="M87.07,-110.6C95.24,-111.67 104.02,-112.83 112.87,-113.99"/>
<polygon fill="midnightblue" stroke="midnightblue" points="112.5,-117.47 122.88,-115.31 113.42,-110.53 112.5,-117.47"/>
</g>
<!-- Node4 -->
<g id="node4" class="node">
<title>Node4</title>
<g id="a_node4"><a xlink:href="memory_8c.html#af219c7066531e1f24d914b86e51406e8" target="_top" xlink:title=" ">
<polygon fill="white" stroke="black" points="293,-152.5 293,-171.5 409,-171.5 409,-152.5 293,-152.5"/>
<text text-anchor="middle" x="351" y="-159.5" font-family="Helvetica,sans-Serif" font-size="10.00">allocator_iter_ended</text>
</a>
</g>
</g>
<!-- Node1&#45;&gt;Node4 -->
<g id="edge12" class="edge">
<title>Node1&#45;&gt;Node4</title>
<path fill="none" stroke="midnightblue" d="M60.06,-114.67C75.43,-123.69 99.93,-136.68 123,-143 175.31,-157.32 236.71,-161.75 282.46,-162.78"/>
<polygon fill="midnightblue" stroke="midnightblue" points="282.5,-166.28 292.56,-162.95 282.62,-159.28 282.5,-166.28"/>
</g>
<!-- Node5 -->
<g id="node5" class="node">
<title>Node5</title>
<g id="a_node5"><a xlink:href="memory_8c.html#a1071a12fb6ee5a98c249cbcd497bfdd0" target="_top" xlink:title=" ">
<polygon fill="white" stroke="black" points="445,-76.5 445,-95.5 553,-95.5 553,-76.5 445,-76.5"/>
<text text-anchor="middle" x="499" y="-83.5" font-family="Helvetica,sans-Serif" font-size="10.00">allocator_iter_next</text>
</a>
</g>
</g>
<!-- Node1&#45;&gt;Node5 -->
<g id="edge13" class="edge">
<title>Node1&#45;&gt;Node5</title>
<path fill="none" stroke="midnightblue" d="M83.88,-95.48C150.73,-80.54 290.68,-54.51 409,-67 423.02,-68.48 438.09,-71.24 451.76,-74.2"/>
<polygon fill="midnightblue" stroke="midnightblue" points="451.38,-77.7 461.9,-76.49 452.92,-70.88 451.38,-77.7"/>
</g>
<!-- Node11 -->
<g id="node11" class="node">
<title>Node11</title>
<g id="a_node11"><a xlink:href="memory_8c.html#ad4519ad28c6b5c244e6d82f37f1698f6" target="_top" xlink:title=" ">
<polygon fill="white" stroke="black" points="296.5,-76.5 296.5,-95.5 405.5,-95.5 405.5,-76.5 296.5,-76.5"/>
<text text-anchor="middle" x="351" y="-83.5" font-family="Helvetica,sans-Serif" font-size="10.00">allocator_iter_start</text>
</a>
</g>
</g>
<!-- Node1&#45;&gt;Node11 -->
<g id="edge14" class="edge">
<title>Node1&#45;&gt;Node11</title>
<path fill="none" stroke="midnightblue" d="M87.3,-102.34C139.07,-99.12 226.69,-93.67 286.38,-89.96"/>
<polygon fill="midnightblue" stroke="midnightblue" points="286.68,-93.44 296.44,-89.33 286.25,-86.46 286.68,-93.44"/>
</g>
<!-- Node12 -->
<g id="node12" class="node">
<title>Node12</title>
<g id="a_node12"><a xlink:href="endrun_8c.html#a6567cd867c5549fb6586e19ccd819764" target="_top" xlink:title=" ">
<polygon fill="white" stroke="black" points="468.5,-0.5 468.5,-19.5 529.5,-19.5 529.5,-0.5 468.5,-0.5"/>
<text text-anchor="middle" x="499" y="-7.5" font-family="Helvetica,sans-Serif" font-size="10.00">message</text>
</a>
</g>
</g>
<!-- Node1&#45;&gt;Node12 -->
<g id="edge15" class="edge">
<title>Node1&#45;&gt;Node12</title>
<path fill="none" stroke="midnightblue" d="M59.18,-95.39C74.47,-85.86 99.44,-71.6 123,-64 240.89,-25.95 388.28,-14.66 457.96,-11.35"/>
<polygon fill="midnightblue" stroke="midnightblue" points="458.23,-14.84 468.06,-10.9 457.92,-7.85 458.23,-14.84"/>
</g>
<!-- Node3&#45;&gt;Node4 -->
<g id="edge3" class="edge">
<title>Node3&#45;&gt;Node4</title>
<path fill="none" stroke="midnightblue" d="M231.12,-133.59C252.1,-138.6 277.98,-144.79 300.23,-150.11"/>
<polygon fill="midnightblue" stroke="midnightblue" points="299.63,-153.56 310.17,-152.48 301.25,-146.75 299.63,-153.56"/>
</g>
<!-- Node3&#45;&gt;Node5 -->
<g id="edge4" class="edge">
<title>Node3&#45;&gt;Node5</title>
<path fill="none" stroke="midnightblue" d="M257.07,-120.37C300.43,-117.46 358.28,-112.59 409,-105 421.82,-103.08 435.57,-100.44 448.33,-97.74"/>
<polygon fill="midnightblue" stroke="midnightblue" points="449.29,-101.11 458.32,-95.57 447.8,-94.27 449.29,-101.11"/>
</g>
<!-- Node3&#45;&gt;Node11 -->
<g id="edge10" class="edge">
<title>Node3&#45;&gt;Node11</title>
<path fill="none" stroke="midnightblue" d="M231.12,-114.41C252.1,-109.4 277.98,-103.21 300.23,-97.89"/>
<polygon fill="midnightblue" stroke="midnightblue" points="301.25,-101.25 310.17,-95.52 299.63,-94.44 301.25,-101.25"/>
</g>
<!-- Node6 -->
<g id="node6" class="node">
<title>Node6</title>
<g id="a_node6"><a xlink:href="endrun_8c.html#ad963d7efdb9f10f7a2298c8ccd222ab0" target="_top" xlink:title=" ">
<polygon fill="white" stroke="black" points="596,-76.5 596,-95.5 646,-95.5 646,-76.5 596,-76.5"/>
<text text-anchor="middle" x="621" y="-83.5" font-family="Helvetica,sans-Serif" font-size="10.00">endrun</text>
</a>
</g>
</g>
<!-- Node5&#45;&gt;Node6 -->
<g id="edge5" class="edge">
<title>Node5&#45;&gt;Node6</title>
<path fill="none" stroke="midnightblue" d="M553.33,-86C564.39,-86 575.75,-86 585.89,-86"/>
<polygon fill="midnightblue" stroke="midnightblue" points="585.96,-89.5 595.96,-86 585.96,-82.5 585.96,-89.5"/>
</g>
<!-- Node10 -->
<g id="node10" class="node">
<title>Node10</title>
<g id="a_node10"><a xlink:href="memory_8c.html#a027cc6371b4b530bd0ab24021475ac98" target="_top" xlink:title=" ">
<polygon fill="white" stroke="black" points="589,-38.5 589,-57.5 653,-57.5 653,-38.5 589,-38.5"/>
<text text-anchor="middle" x="621" y="-45.5" font-family="Helvetica,sans-Serif" font-size="10.00">is_header</text>
</a>
</g>
</g>
<!-- Node5&#45;&gt;Node10 -->
<g id="edge9" class="edge">
<title>Node5&#45;&gt;Node10</title>
<path fill="none" stroke="midnightblue" d="M530.28,-76.41C545.35,-71.64 563.75,-65.81 579.97,-60.68"/>
<polygon fill="midnightblue" stroke="midnightblue" points="581.25,-63.94 589.73,-57.59 579.14,-57.27 581.25,-63.94"/>
</g>
<!-- Node7 -->
<g id="node7" class="node">
<title>Node7</title>
<g id="a_node7"><a xlink:href="system_8c.html#a341c8d27bd6c7dde856566810b412b1f" target="_top" xlink:title=" ">
<polygon fill="white" stroke="black" points="697,-19.5 697,-38.5 776,-38.5 776,-19.5 697,-19.5"/>
<text text-anchor="middle" x="736.5" y="-26.5" font-family="Helvetica,sans-Serif" font-size="10.00">MPIU_Tracev</text>
</a>
</g>
</g>
<!-- Node6&#45;&gt;Node7 -->
<g id="edge6" class="edge">
<title>Node6&#45;&gt;Node7</title>
<path fill="none" stroke="midnightblue" d="M641,-76.46C659.17,-67.34 686.78,-53.47 707.48,-43.07"/>
<polygon fill="midnightblue" stroke="midnightblue" points="709.08,-46.19 716.44,-38.57 705.93,-39.93 709.08,-46.19"/>
</g>
<!-- Node9 -->
<g id="node9" class="node">
<title>Node9</title>
<g id="a_node9"><a xlink:href="endrun_8c.html#a1200f02a595ab7cbe17c9e36ff32af0f" target="_top" xlink:title=" ">
<polygon fill="white" stroke="black" points="689,-76.5 689,-95.5 784,-95.5 784,-76.5 689,-76.5"/>
<text text-anchor="middle" x="736.5" y="-83.5" font-family="Helvetica,sans-Serif" font-size="10.00">show_backtrace</text>
</a>
</g>
</g>
<!-- Node6&#45;&gt;Node9 -->
<g id="edge8" class="edge">
<title>Node6&#45;&gt;Node9</title>
<path fill="none" stroke="midnightblue" d="M646.07,-86C655.63,-86 667.07,-86 678.53,-86"/>
<polygon fill="midnightblue" stroke="midnightblue" points="678.55,-89.5 688.55,-86 678.55,-82.5 678.55,-89.5"/>
</g>
<!-- Node8 -->
<g id="node8" class="node">
<title>Node8</title>
<g id="a_node8"><a xlink:href="system_8c.html#a87108946670b4c3afbe846c6726675ff" target="_top" xlink:title=" ">
<polygon fill="white" stroke="black" points="820,-19.5 820,-38.5 870,-38.5 870,-19.5 820,-19.5"/>
<text text-anchor="middle" x="845" y="-26.5" font-family="Helvetica,sans-Serif" font-size="10.00">putline</text>
</a>
</g>
</g>
<!-- Node7&#45;&gt;Node8 -->
<g id="edge7" class="edge">
<title>Node7&#45;&gt;Node8</title>
<path fill="none" stroke="midnightblue" d="M776.25,-29C787.22,-29 799.09,-29 809.77,-29"/>
<polygon fill="midnightblue" stroke="midnightblue" points="809.99,-32.5 819.99,-29 809.99,-25.5 809.99,-32.5"/>
</g>
<!-- Node11&#45;&gt;Node5 -->
<g id="edge11" class="edge">
<title>Node11&#45;&gt;Node5</title>
<path fill="none" stroke="midnightblue" d="M405.54,-86C415.08,-86 425.1,-86 434.88,-86"/>
<polygon fill="midnightblue" stroke="midnightblue" points="434.96,-89.5 444.96,-86 434.96,-82.5 434.96,-89.5"/>
</g>
<!-- Node12&#45;&gt;Node7 -->
<g id="edge16" class="edge">
<title>Node12&#45;&gt;Node7</title>
<path fill="none" stroke="midnightblue" d="M529.83,-12.41C569.38,-15.6 639.68,-21.27 686.93,-25.08"/>
<polygon fill="midnightblue" stroke="midnightblue" points="686.69,-28.57 696.94,-25.89 687.26,-21.6 686.69,-28.57"/>
</g>
</g>
</svg>
