<?xml version="1.0" encoding="UTF-8" standalone="no"?>
<!DOCTYPE svg PUBLIC "-//W3C//DTD SVG 1.1//EN"
 "http://www.w3.org/Graphics/SVG/1.1/DTD/svg11.dtd">
<!-- Generated by graphviz version 2.38.0 (20140413.2041)
 -->
<!-- Title: allocator_malloc_init Pages: 1 -->
<svg width="887pt" height="251pt"
 viewBox="0.00 0.00 887.00 251.00" xmlns="http://www.w3.org/2000/svg" xmlns:xlink="http://www.w3.org/1999/xlink">
<g id="graph0" class="graph" transform="scale(1 1) rotate(0) translate(4 247)">
<title>allocator_malloc_init</title>
<polygon fill="white" stroke="none" points="-4,4 -4,-247 883,-247 883,4 -4,4"/>
<!-- Node164 -->
<g id="node1" class="node"><title>Node164</title>
<polygon fill="#bfbfbf" stroke="black" points="0,-52.5 0,-71.5 105,-71.5 105,-52.5 0,-52.5"/>
<text text-anchor="middle" x="52.5" y="-59.5" font-family="Helvetica,sans-Serif" font-size="10.00">allocator_malloc_init</text>
</g>
<!-- Node165 -->
<g id="node2" class="node"><title>Node165</title>
<g id="a_node2"><a xlink:href="memory_8c.html#a781f982d26f3b8ef0d7d283c8e92203f" target="_top" xlink:title="allocator_alloc">
<polygon fill="white" stroke="black" points="141.5,-71.5 141.5,-90.5 220.5,-90.5 220.5,-71.5 141.5,-71.5"/>
<text text-anchor="middle" x="181" y="-78.5" font-family="Helvetica,sans-Serif" font-size="10.00">allocator_alloc</text>
</a>
</g>
</g>
<!-- Node164&#45;&gt;Node165 -->
<g id="edge1" class="edge"><title>Node164&#45;&gt;Node165</title>
<path fill="none" stroke="midnightblue" d="M105.317,-69.7828C113.855,-71.0652 122.68,-72.3907 131.142,-73.6616"/>
<polygon fill="midnightblue" stroke="midnightblue" points="130.831,-77.1541 141.24,-75.1783 131.871,-70.2318 130.831,-77.1541"/>
</g>
<!-- Node179 -->
<g id="node16" class="node"><title>Node179</title>
<g id="a_node16"><a xlink:href="memory_8c.html#a645e6ff1388809bd634f6d29e97db28c" target="_top" xlink:title="allocator_reset">
<polygon fill="white" stroke="black" points="141,-33.5 141,-52.5 221,-52.5 221,-33.5 141,-33.5"/>
<text text-anchor="middle" x="181" y="-40.5" font-family="Helvetica,sans-Serif" font-size="10.00">allocator_reset</text>
</a>
</g>
</g>
<!-- Node164&#45;&gt;Node179 -->
<g id="edge17" class="edge"><title>Node164&#45;&gt;Node179</title>
<path fill="none" stroke="midnightblue" d="M105.317,-54.2172C113.758,-52.9494 122.479,-51.6395 130.853,-50.3817"/>
<polygon fill="midnightblue" stroke="midnightblue" points="131.484,-53.8264 140.853,-48.8798 130.444,-46.904 131.484,-53.8264"/>
</g>
<!-- Node166 -->
<g id="node3" class="node"><title>Node166</title>
<g id="a_node3"><a xlink:href="memory_8c.html#a80b268139c845d6fff8127fdc3fe4a33" target="_top" xlink:title="allocator_alloc_va">
<polygon fill="white" stroke="black" points="257,-71.5 257,-90.5 352,-90.5 352,-71.5 257,-71.5"/>
<text text-anchor="middle" x="304.5" y="-78.5" font-family="Helvetica,sans-Serif" font-size="10.00">allocator_alloc_va</text>
</a>
</g>
</g>
<!-- Node165&#45;&gt;Node166 -->
<g id="edge2" class="edge"><title>Node165&#45;&gt;Node166</title>
<path fill="none" stroke="midnightblue" d="M220.777,-81C228.964,-81 237.765,-81 246.465,-81"/>
<polygon fill="midnightblue" stroke="midnightblue" points="246.587,-84.5001 256.587,-81 246.587,-77.5001 246.587,-84.5001"/>
</g>
<!-- Node167 -->
<g id="node4" class="node"><title>Node167</title>
<g id="a_node4"><a xlink:href="memory_8c.html#ac6472b7ca5b76ef02be3795ca8863fae" target="_top" xlink:title="allocator_print">
<polygon fill="white" stroke="black" points="388,-109.5 388,-128.5 465,-128.5 465,-109.5 388,-109.5"/>
<text text-anchor="middle" x="426.5" y="-116.5" font-family="Helvetica,sans-Serif" font-size="10.00">allocator_print</text>
</a>
</g>
</g>
<!-- Node166&#45;&gt;Node167 -->
<g id="edge3" class="edge"><title>Node166&#45;&gt;Node167</title>
<path fill="none" stroke="midnightblue" d="M335.781,-90.589C350.846,-95.3594 369.254,-101.189 385.467,-106.323"/>
<polygon fill="midnightblue" stroke="midnightblue" points="384.639,-109.732 395.229,-109.414 386.752,-103.058 384.639,-109.732"/>
</g>
<!-- Node178 -->
<g id="node15" class="node"><title>Node178</title>
<g id="a_node15"><a xlink:href="endrun_8c.html#ad963d7efdb9f10f7a2298c8ccd222ab0" target="_top" xlink:title="endrun">
<polygon fill="white" stroke="black" points="403.5,-33.5 403.5,-52.5 449.5,-52.5 449.5,-33.5 403.5,-33.5"/>
<text text-anchor="middle" x="426.5" y="-40.5" font-family="Helvetica,sans-Serif" font-size="10.00">endrun</text>
</a>
</g>
</g>
<!-- Node166&#45;&gt;Node178 -->
<g id="edge15" class="edge"><title>Node166&#45;&gt;Node178</title>
<path fill="none" stroke="midnightblue" d="M335.781,-71.411C353.391,-65.8344 375.571,-58.8109 393.471,-53.1424"/>
<polygon fill="midnightblue" stroke="midnightblue" points="394.707,-56.4225 403.184,-50.0668 392.594,-49.7491 394.707,-56.4225"/>
</g>
<!-- Node168 -->
<g id="node5" class="node"><title>Node168</title>
<g id="a_node5"><a xlink:href="memory_8c.html#a7d147e0f7a869dd7c832a77fa7374772" target="_top" xlink:title="allocator_get_free_size">
<polygon fill="white" stroke="black" points="503.5,-223.5 503.5,-242.5 620.5,-242.5 620.5,-223.5 503.5,-223.5"/>
<text text-anchor="middle" x="562" y="-230.5" font-family="Helvetica,sans-Serif" font-size="10.00">allocator_get_free_size</text>
</a>
</g>
</g>
<!-- Node167&#45;&gt;Node168 -->
<g id="edge4" class="edge"><title>Node167&#45;&gt;Node168</title>
<path fill="none" stroke="midnightblue" d="M432.352,-128.646C442.465,-147.786 467.658,-190.722 501,-214 503.864,-216 506.949,-217.796 510.154,-219.409"/>
<polygon fill="midnightblue" stroke="midnightblue" points="508.86,-222.664 519.423,-223.485 511.678,-216.256 508.86,-222.664"/>
</g>
<!-- Node169 -->
<g id="node6" class="node"><title>Node169</title>
<g id="a_node6"><a xlink:href="memory_8c.html#ae8ed0c76854687599e00d825e3d1ec4b" target="_top" xlink:title="allocator_get_used_size">
<polygon fill="white" stroke="black" points="501,-185.5 501,-204.5 623,-204.5 623,-185.5 501,-185.5"/>
<text text-anchor="middle" x="562" y="-192.5" font-family="Helvetica,sans-Serif" font-size="10.00">allocator_get_used_size</text>
</a>
</g>
</g>
<!-- Node167&#45;&gt;Node169 -->
<g id="edge5" class="edge"><title>Node167&#45;&gt;Node169</title>
<path fill="none" stroke="midnightblue" d="M437.634,-128.78C451.105,-141.305 476.119,-162.947 501,-176 505.194,-178.2 509.688,-180.2 514.259,-182.004"/>
<polygon fill="midnightblue" stroke="midnightblue" points="513.088,-185.303 523.682,-185.434 515.483,-178.725 513.088,-185.303"/>
</g>
<!-- Node170 -->
<g id="node7" class="node"><title>Node170</title>
<g id="a_node7"><a xlink:href="memory_8c.html#af219c7066531e1f24d914b86e51406e8" target="_top" xlink:title="allocator_iter_ended">
<polygon fill="white" stroke="black" points="510,-147.5 510,-166.5 614,-166.5 614,-147.5 510,-147.5"/>
<text text-anchor="middle" x="562" y="-154.5" font-family="Helvetica,sans-Serif" font-size="10.00">allocator_iter_ended</text>
</a>
</g>
</g>
<!-- Node167&#45;&gt;Node170 -->
<g id="edge6" class="edge"><title>Node167&#45;&gt;Node170</title>
<path fill="none" stroke="midnightblue" d="M461.188,-128.589C478.263,-133.449 499.2,-139.409 517.482,-144.613"/>
<polygon fill="midnightblue" stroke="midnightblue" points="516.747,-148.043 527.323,-147.414 518.663,-141.31 516.747,-148.043"/>
</g>
<!-- Node171 -->
<g id="node8" class="node"><title>Node171</title>
<g id="a_node8"><a xlink:href="memory_8c.html#a1071a12fb6ee5a98c249cbcd497bfdd0" target="_top" xlink:title="allocator_iter_next">
<polygon fill="white" stroke="black" points="659,-90.5 659,-109.5 755,-109.5 755,-90.5 659,-90.5"/>
<text text-anchor="middle" x="707" y="-97.5" font-family="Helvetica,sans-Serif" font-size="10.00">allocator_iter_next</text>
</a>
</g>
</g>
<!-- Node167&#45;&gt;Node171 -->
<g id="edge7" class="edge"><title>Node167&#45;&gt;Node171</title>
<path fill="none" stroke="midnightblue" d="M465.06,-116.438C512.205,-113.221 593.546,-107.672 648.533,-103.921"/>
<polygon fill="midnightblue" stroke="midnightblue" points="649.082,-107.391 658.82,-103.219 648.605,-100.408 649.082,-107.391"/>
</g>
<!-- Node173 -->
<g id="node10" class="node"><title>Node173</title>
<g id="a_node10"><a xlink:href="memory_8c.html#ad4519ad28c6b5c244e6d82f37f1698f6" target="_top" xlink:title="allocator_iter_start">
<polygon fill="white" stroke="black" points="513.5,-71.5 513.5,-90.5 610.5,-90.5 610.5,-71.5 513.5,-71.5"/>
<text text-anchor="middle" x="562" y="-78.5" font-family="Helvetica,sans-Serif" font-size="10.00">allocator_iter_start</text>
</a>
</g>
</g>
<!-- Node167&#45;&gt;Node173 -->
<g id="edge9" class="edge"><title>Node167&#45;&gt;Node173</title>
<path fill="none" stroke="midnightblue" d="M461.188,-109.411C478.263,-104.551 499.2,-98.5909 517.482,-93.3873"/>
<polygon fill="midnightblue" stroke="midnightblue" points="518.663,-96.69 527.323,-90.5859 516.747,-89.9574 518.663,-96.69"/>
</g>
<!-- Node174 -->
<g id="node11" class="node"><title>Node174</title>
<g id="a_node11"><a xlink:href="endrun_8c.html#a6567cd867c5549fb6586e19ccd819764" target="_top" xlink:title="message">
<polygon fill="white" stroke="black" points="534,-33.5 534,-52.5 590,-52.5 590,-33.5 534,-33.5"/>
<text text-anchor="middle" x="562" y="-40.5" font-family="Helvetica,sans-Serif" font-size="10.00">message</text>
</a>
</g>
</g>
<!-- Node167&#45;&gt;Node174 -->
<g id="edge11" class="edge"><title>Node167&#45;&gt;Node174</title>
<path fill="none" stroke="midnightblue" d="M437.634,-109.22C451.105,-96.6949 476.119,-75.0533 501,-62 508.211,-58.2167 516.31,-55.0258 524.167,-52.4032"/>
<polygon fill="midnightblue" stroke="midnightblue" points="525.391,-55.6881 533.905,-49.3831 523.317,-49.0022 525.391,-55.6881"/>
</g>
<!-- Node172 -->
<g id="node9" class="node"><title>Node172</title>
<g id="a_node9"><a xlink:href="memory_8c.html#a027cc6371b4b530bd0ab24021475ac98" target="_top" xlink:title="is_header">
<polygon fill="white" stroke="black" points="805.5,-90.5 805.5,-109.5 864.5,-109.5 864.5,-90.5 805.5,-90.5"/>
<text text-anchor="middle" x="835" y="-97.5" font-family="Helvetica,sans-Serif" font-size="10.00">is_header</text>
</a>
</g>
</g>
<!-- Node171&#45;&gt;Node172 -->
<g id="edge8" class="edge"><title>Node171&#45;&gt;Node172</title>
<path fill="none" stroke="midnightblue" d="M755.276,-100C768.369,-100 782.43,-100 794.995,-100"/>
<polygon fill="midnightblue" stroke="midnightblue" points="795.142,-103.5 805.142,-100 795.142,-96.5001 795.142,-103.5"/>
</g>
<!-- Node173&#45;&gt;Node171 -->
<g id="edge10" class="edge"><title>Node173&#45;&gt;Node171</title>
<path fill="none" stroke="midnightblue" d="M610.617,-87.3267C622.798,-88.9452 636.023,-90.7024 648.637,-92.3784"/>
<polygon fill="midnightblue" stroke="midnightblue" points="648.217,-95.8532 658.591,-93.7009 649.139,-88.9142 648.217,-95.8532"/>
</g>
<!-- Node175 -->
<g id="node12" class="node"><title>Node175</title>
<g id="a_node12"><a xlink:href="endrun_8c.html#a7267113a7c0a094743bb565eabc695d1" target="_top" xlink:title="messagev">
<polygon fill="white" stroke="black" points="676,-9.5 676,-28.5 738,-28.5 738,-9.5 676,-9.5"/>
<text text-anchor="middle" x="707" y="-16.5" font-family="Helvetica,sans-Serif" font-size="10.00">messagev</text>
</a>
</g>
</g>
<!-- Node174&#45;&gt;Node175 -->
<g id="edge12" class="edge"><title>Node174&#45;&gt;Node175</title>
<path fill="none" stroke="midnightblue" d="M590.234,-38.4293C611.647,-34.8354 641.794,-29.7758 665.956,-25.7207"/>
<polygon fill="midnightblue" stroke="midnightblue" points="666.619,-29.1585 675.901,-24.0515 665.46,-22.2551 666.619,-29.1585"/>
</g>
<!-- Node176 -->
<g id="node13" class="node"><title>Node176</title>
<g id="a_node13"><a xlink:href="endrun_8c.html#a87108946670b4c3afbe846c6726675ff" target="_top" xlink:title="putline">
<polygon fill="white" stroke="black" points="812.5,-38.5 812.5,-57.5 857.5,-57.5 857.5,-38.5 812.5,-38.5"/>
<text text-anchor="middle" x="835" y="-45.5" font-family="Helvetica,sans-Serif" font-size="10.00">putline</text>
</a>
</g>
</g>
<!-- Node175&#45;&gt;Node176 -->
<g id="edge13" class="edge"><title>Node175&#45;&gt;Node176</title>
<path fill="none" stroke="midnightblue" d="M738.18,-25.9462C757.558,-30.4062 782.684,-36.1891 802.344,-40.7141"/>
<polygon fill="midnightblue" stroke="midnightblue" points="801.82,-44.1848 812.35,-43.017 803.39,-37.3632 801.82,-44.1848"/>
</g>
<!-- Node177 -->
<g id="node14" class="node"><title>Node177</title>
<g id="a_node14"><a xlink:href="endrun_8c.html#a1200f02a595ab7cbe17c9e36ff32af0f" target="_top" xlink:title="show_backtrace">
<polygon fill="white" stroke="black" points="791,-0.5 791,-19.5 879,-19.5 879,-0.5 791,-0.5"/>
<text text-anchor="middle" x="835" y="-7.5" font-family="Helvetica,sans-Serif" font-size="10.00">show_backtrace</text>
</a>
</g>
</g>
<!-- Node175&#45;&gt;Node177 -->
<g id="edge14" class="edge"><title>Node175&#45;&gt;Node177</title>
<path fill="none" stroke="midnightblue" d="M738.18,-16.8443C750.834,-15.9404 765.94,-14.8614 780.374,-13.8304"/>
<polygon fill="midnightblue" stroke="midnightblue" points="780.995,-17.2951 790.721,-13.0914 780.497,-10.3128 780.995,-17.2951"/>
</g>
<!-- Node178&#45;&gt;Node175 -->
<g id="edge16" class="edge"><title>Node178&#45;&gt;Node175</title>
<path fill="none" stroke="midnightblue" d="M449.75,-35.8308C464.19,-31.5326 483.509,-26.4413 501,-24 557.762,-16.0776 624.203,-16.142 665.702,-17.2811"/>
<polygon fill="midnightblue" stroke="midnightblue" points="665.846,-20.7871 675.95,-17.5984 666.063,-13.7905 665.846,-20.7871"/>
</g>
</g>
</svg>
