<?xml version="1.0" encoding="UTF-8" standalone="no"?>
<!DOCTYPE svg PUBLIC "-//W3C//DTD SVG 1.1//EN"
 "http://www.w3.org/Graphics/SVG/1.1/DTD/svg11.dtd">
<!-- Generated by graphviz version 2.50.0 (0)
 -->
<!-- Title: libgadget/utils/memory.h Pages: 1 -->
<svg width="4429pt" height="285pt"
 viewBox="0.00 0.00 4429.00 285.00" xmlns="http://www.w3.org/2000/svg" xmlns:xlink="http://www.w3.org/1999/xlink">
<g id="graph0" class="graph" transform="scale(1 1) rotate(0) translate(4 281)">
<title>libgadget/utils/memory.h</title>
<polygon fill="white" stroke="transparent" points="-4,4 -4,-281 4425,-281 4425,4 -4,4"/>
<!-- Node1 -->
<g id="node1" class="node">
<title>Node1</title>
<g id="a_node1"><a xlink:title=" ">
<polygon fill="#bfbfbf" stroke="black" points="1273,-257.5 1273,-276.5 1411,-276.5 1411,-257.5 1273,-257.5"/>
<text text-anchor="middle" x="1342" y="-264.5" font-family="Helvetica,sans-Serif" font-size="10.00">libgadget/utils/memory.h</text>
</a>
</g>
</g>
<!-- Node2 -->
<g id="node2" class="node">
<title>Node2</title>
<g id="a_node2"><a xlink:href="memory_8c.html" target="_top" xlink:title=" ">
<polygon fill="white" stroke="black" points="1125.5,-201.5 1125.5,-220.5 1262.5,-220.5 1262.5,-201.5 1125.5,-201.5"/>
<text text-anchor="middle" x="1194" y="-208.5" font-family="Helvetica,sans-Serif" font-size="10.00">libgadget/utils/memory.c</text>
</a>
</g>
</g>
<!-- Node1&#45;&gt;Node2 -->
<g id="edge1" class="edge">
<title>Node1&#45;&gt;Node2</title>
<path fill="none" stroke="midnightblue" d="M1308.85,-253.91C1281.03,-243.75 1241.98,-229.51 1217.34,-220.52"/>
<polygon fill="midnightblue" stroke="midnightblue" points="1307.96,-257.3 1318.55,-257.44 1310.35,-250.73 1307.96,-257.3"/>
</g>
<!-- Node3 -->
<g id="node3" class="node">
<title>Node3</title>
<g id="a_node3"><a xlink:href="mymalloc_8c.html" target="_top" xlink:title=" ">
<polygon fill="white" stroke="black" points="0,-140 0,-159 146,-159 146,-140 0,-140"/>
<text text-anchor="middle" x="73" y="-147" font-family="Helvetica,sans-Serif" font-size="10.00">libgadget/utils/mymalloc.c</text>
</a>
</g>
</g>
<!-- Node1&#45;&gt;Node3 -->
<g id="edge2" class="edge">
<title>Node1&#45;&gt;Node3</title>
<path fill="none" stroke="midnightblue" d="M1329.65,-249.28C1316.94,-233.56 1295.55,-211 1271,-201 1156.1,-154.2 278.4,-177.83 155,-165 141.77,-163.62 127.46,-161.36 114.55,-159.03"/>
<polygon fill="midnightblue" stroke="midnightblue" points="1326.89,-251.43 1335.79,-257.19 1332.42,-247.14 1326.89,-251.43"/>
</g>
<!-- Node4 -->
<g id="node4" class="node">
<title>Node4</title>
<g id="a_node4"><a xlink:href="mymalloc_8h.html" target="_top" xlink:title=" ">
<polygon fill="white" stroke="black" points="1319.5,-201.5 1319.5,-220.5 1466.5,-220.5 1466.5,-201.5 1319.5,-201.5"/>
<text text-anchor="middle" x="1393" y="-208.5" font-family="Helvetica,sans-Serif" font-size="10.00">libgadget/utils/mymalloc.h</text>
</a>
</g>
</g>
<!-- Node1&#45;&gt;Node4 -->
<g id="edge3" class="edge">
<title>Node1&#45;&gt;Node4</title>
<path fill="none" stroke="midnightblue" d="M1357.38,-249.72C1366.37,-240.2 1377.36,-228.56 1384.74,-220.75"/>
<polygon fill="midnightblue" stroke="midnightblue" points="1354.74,-247.41 1350.42,-257.08 1359.83,-252.22 1354.74,-247.41"/>
</g>
<!-- Node22 -->
<g id="node22" class="node">
<title>Node22</title>
<g id="a_node22"><a xlink:href="utils_8h.html" target="_top" xlink:title=" ">
<polygon fill="white" stroke="red" points="3108.5,-140 3108.5,-159 3203.5,-159 3203.5,-140 3108.5,-140"/>
<text text-anchor="middle" x="3156" y="-147" font-family="Helvetica,sans-Serif" font-size="10.00">libgadget/utils.h</text>
</a>
</g>
</g>
<!-- Node1&#45;&gt;Node22 -->
<g id="edge66" class="edge">
<title>Node1&#45;&gt;Node22</title>
<path fill="none" stroke="midnightblue" d="M1421.44,-260.94C1732.33,-241.15 2861.38,-169.26 3108.14,-153.55"/>
<polygon fill="midnightblue" stroke="midnightblue" points="1420.93,-257.47 1411.17,-261.6 1421.37,-264.45 1420.93,-257.47"/>
</g>
<!-- Node4&#45;&gt;Node3 -->
<g id="edge16" class="edge">
<title>Node4&#45;&gt;Node3</title>
<path fill="none" stroke="midnightblue" d="M1308.91,-201.27C1307.6,-201.18 1306.29,-201.09 1305,-201 794.77,-166.97 663.64,-217.66 155,-165 141.77,-163.63 127.46,-161.37 114.55,-159.04"/>
<polygon fill="midnightblue" stroke="midnightblue" points="1308.85,-204.78 1319.09,-202.06 1309.39,-197.8 1308.85,-204.78"/>
</g>
<!-- Node5 -->
<g id="node5" class="node">
<title>Node5</title>
<g id="a_node5"><a xlink:href="cooling_8c.html" target="_top" xlink:title=" ">
<polygon fill="white" stroke="black" points="1702.5,-140 1702.5,-159 1811.5,-159 1811.5,-140 1702.5,-140"/>
<text text-anchor="middle" x="1757" y="-147" font-family="Helvetica,sans-Serif" font-size="10.00">libgadget/cooling.c</text>
</a>
</g>
</g>
<!-- Node4&#45;&gt;Node5 -->
<g id="edge4" class="edge">
<title>Node4&#45;&gt;Node5</title>
<path fill="none" stroke="midnightblue" d="M1469.65,-200.09C1530.42,-191.86 1617.41,-179.21 1693,-165 1702.29,-163.25 1712.29,-161.11 1721.55,-159.02"/>
<polygon fill="midnightblue" stroke="midnightblue" points="1468.81,-196.67 1459.37,-201.48 1469.75,-203.61 1468.81,-196.67"/>
</g>
<!-- Node6 -->
<g id="node6" class="node">
<title>Node6</title>
<g id="a_node6"><a xlink:href="cooling__qso__lightup_8c.html" target="_top" xlink:title=" ">
<polygon fill="white" stroke="black" points="2092.5,-0.5 2092.5,-30.5 2215.5,-30.5 2215.5,-0.5 2092.5,-0.5"/>
<text text-anchor="start" x="2100.5" y="-18.5" font-family="Helvetica,sans-Serif" font-size="10.00">libgadget/cooling_qso</text>
<text text-anchor="middle" x="2154" y="-7.5" font-family="Helvetica,sans-Serif" font-size="10.00">_lightup.c</text>
</a>
</g>
</g>
<!-- Node4&#45;&gt;Node6 -->
<g id="edge5" class="edge">
<title>Node4&#45;&gt;Node6</title>
<path fill="none" stroke="midnightblue" d="M1476.95,-206.39C1594.08,-200.56 1795.06,-187.43 1820,-165 1853.12,-135.22 1808.71,-97.68 1841,-67 1876.21,-33.54 2011.65,-22.21 2092.38,-18.41"/>
<polygon fill="midnightblue" stroke="midnightblue" points="1476.75,-202.89 1466.93,-206.88 1477.09,-209.88 1476.75,-202.89"/>
</g>
<!-- Node7 -->
<g id="node7" class="node">
<title>Node7</title>
<g id="a_node7"><a xlink:href="cooling__rates_8c.html" target="_top" xlink:title=" ">
<polygon fill="white" stroke="black" points="1906.5,-140 1906.5,-159 2045.5,-159 2045.5,-140 1906.5,-140"/>
<text text-anchor="middle" x="1976" y="-147" font-family="Helvetica,sans-Serif" font-size="10.00">libgadget/cooling_rates.c</text>
</a>
</g>
</g>
<!-- Node4&#45;&gt;Node7 -->
<g id="edge6" class="edge">
<title>Node4&#45;&gt;Node7</title>
<path fill="none" stroke="midnightblue" d="M1476.74,-204.53C1576.06,-197.56 1746.5,-184.09 1892,-165 1904.62,-163.34 1918.24,-161.17 1930.76,-159"/>
<polygon fill="midnightblue" stroke="midnightblue" points="1476.5,-201.04 1466.76,-205.22 1476.98,-208.02 1476.5,-201.04"/>
</g>
<!-- Node8 -->
<g id="node8" class="node">
<title>Node8</title>
<g id="a_node8"><a xlink:href="cooling__uvfluc_8c.html" target="_top" xlink:title=" ">
<polygon fill="white" stroke="black" points="2063.5,-140 2063.5,-159 2206.5,-159 2206.5,-140 2063.5,-140"/>
<text text-anchor="middle" x="2135" y="-147" font-family="Helvetica,sans-Serif" font-size="10.00">libgadget/cooling_uvfluc.c</text>
</a>
</g>
</g>
<!-- Node4&#45;&gt;Node8 -->
<g id="edge7" class="edge">
<title>Node4&#45;&gt;Node8</title>
<path fill="none" stroke="midnightblue" d="M1476.93,-207.22C1602.73,-202.4 1847.47,-190.44 2054,-165 2066.48,-163.46 2079.95,-161.27 2092.25,-159.05"/>
<polygon fill="midnightblue" stroke="midnightblue" points="1476.47,-203.74 1466.61,-207.61 1476.73,-210.73 1476.47,-203.74"/>
</g>
<!-- Node9 -->
<g id="node9" class="node">
<title>Node9</title>
<g id="a_node9"><a xlink:href="neutrinos__lra_8c.html" target="_top" xlink:title=" ">
<polygon fill="white" stroke="black" points="2224.5,-134.5 2224.5,-164.5 2335.5,-164.5 2335.5,-134.5 2224.5,-134.5"/>
<text text-anchor="start" x="2232.5" y="-152.5" font-family="Helvetica,sans-Serif" font-size="10.00">libgadget/neutrinos</text>
<text text-anchor="middle" x="2280" y="-141.5" font-family="Helvetica,sans-Serif" font-size="10.00">_lra.c</text>
</a>
</g>
</g>
<!-- Node4&#45;&gt;Node9 -->
<g id="edge8" class="edge">
<title>Node4&#45;&gt;Node9</title>
<path fill="none" stroke="midnightblue" d="M1476.96,-209.96C1626.19,-208.87 1947.12,-201.96 2215,-165 2218.09,-164.57 2221.26,-164.08 2224.44,-163.53"/>
<polygon fill="midnightblue" stroke="midnightblue" points="1476.49,-206.46 1466.51,-210.02 1476.54,-213.46 1476.49,-206.46"/>
</g>
<!-- Node10 -->
<g id="node10" class="node">
<title>Node10</title>
<g id="a_node10"><a xlink:href="omega__nu__single_8c.html" target="_top" xlink:title=" ">
<polygon fill="white" stroke="black" points="2354,-134.5 2354,-164.5 2470,-164.5 2470,-134.5 2354,-134.5"/>
<text text-anchor="start" x="2362" y="-152.5" font-family="Helvetica,sans-Serif" font-size="10.00">libgadget/omega_nu</text>
<text text-anchor="middle" x="2412" y="-141.5" font-family="Helvetica,sans-Serif" font-size="10.00">_single.c</text>
</a>
</g>
</g>
<!-- Node4&#45;&gt;Node10 -->
<g id="edge9" class="edge">
<title>Node4&#45;&gt;Node10</title>
<path fill="none" stroke="midnightblue" d="M1476.89,-210.6C1643.1,-210.78 2025.69,-206.19 2344,-165 2347.23,-164.58 2350.54,-164.09 2353.87,-163.55"/>
<polygon fill="midnightblue" stroke="midnightblue" points="1476.74,-207.1 1466.74,-210.58 1476.73,-214.1 1476.74,-207.1"/>
</g>
<!-- Node11 -->
<g id="node11" class="node">
<title>Node11</title>
<g id="a_node11"><a xlink:href="partmanager_8c.html" target="_top" xlink:title=" ">
<polygon fill="white" stroke="black" points="164,-140 164,-159 300,-159 300,-140 164,-140"/>
<text text-anchor="middle" x="232" y="-147" font-family="Helvetica,sans-Serif" font-size="10.00">libgadget/partmanager.c</text>
</a>
</g>
</g>
<!-- Node4&#45;&gt;Node11 -->
<g id="edge10" class="edge">
<title>Node4&#45;&gt;Node11</title>
<path fill="none" stroke="midnightblue" d="M1308.91,-201.28C1307.6,-201.18 1306.29,-201.09 1305,-201 865.32,-170.56 752.28,-211.48 314,-165 300.77,-163.6 286.46,-161.33 273.56,-159"/>
<polygon fill="midnightblue" stroke="midnightblue" points="1308.84,-204.79 1319.09,-202.09 1309.4,-197.81 1308.84,-204.79"/>
</g>
<!-- Node12 -->
<g id="node12" class="node">
<title>Node12</title>
<g id="a_node12"><a xlink:href="test__density_8c.html" target="_top" xlink:title=" ">
<polygon fill="white" stroke="black" points="974.5,-0.5 974.5,-30.5 1085.5,-30.5 1085.5,-0.5 974.5,-0.5"/>
<text text-anchor="start" x="982.5" y="-18.5" font-family="Helvetica,sans-Serif" font-size="10.00">libgadget/tests/test</text>
<text text-anchor="middle" x="1030" y="-7.5" font-family="Helvetica,sans-Serif" font-size="10.00">_density.c</text>
</a>
</g>
</g>
<!-- Node4&#45;&gt;Node12 -->
<g id="edge11" class="edge">
<title>Node4&#45;&gt;Node12</title>
<path fill="none" stroke="midnightblue" d="M1309.17,-201.59C1306.41,-201.38 1303.68,-201.18 1301,-201 1248.08,-197.42 383.79,-203.2 347,-165 256.83,-71.36 795.98,-30.45 974.23,-19.59"/>
<polygon fill="midnightblue" stroke="midnightblue" points="1308.97,-205.08 1319.22,-202.39 1309.53,-198.1 1308.97,-205.08"/>
</g>
<!-- Node13 -->
<g id="node13" class="node">
<title>Node13</title>
<g id="a_node13"><a xlink:href="test__gravity_8c.html" target="_top" xlink:title=" ">
<polygon fill="white" stroke="black" points="356.5,-134.5 356.5,-164.5 467.5,-164.5 467.5,-134.5 356.5,-134.5"/>
<text text-anchor="start" x="364.5" y="-152.5" font-family="Helvetica,sans-Serif" font-size="10.00">libgadget/tests/test</text>
<text text-anchor="middle" x="412" y="-141.5" font-family="Helvetica,sans-Serif" font-size="10.00">_gravity.c</text>
</a>
</g>
</g>
<!-- Node4&#45;&gt;Node13 -->
<g id="edge12" class="edge">
<title>Node4&#45;&gt;Node13</title>
<path fill="none" stroke="midnightblue" d="M1308.91,-201.29C1307.6,-201.19 1306.29,-201.09 1305,-201 937.18,-174.23 841.53,-213.94 476,-165 473.29,-164.64 470.53,-164.21 467.74,-163.75"/>
<polygon fill="midnightblue" stroke="midnightblue" points="1308.83,-204.8 1319.09,-202.12 1309.4,-197.82 1308.83,-204.8"/>
</g>
<!-- Node14 -->
<g id="node14" class="node">
<title>Node14</title>
<g id="a_node14"><a xlink:href="test__mpsort_8c.html" target="_top" xlink:title=" ">
<polygon fill="white" stroke="black" points="485.5,-134.5 485.5,-164.5 596.5,-164.5 596.5,-134.5 485.5,-134.5"/>
<text text-anchor="start" x="493.5" y="-152.5" font-family="Helvetica,sans-Serif" font-size="10.00">libgadget/tests/test</text>
<text text-anchor="middle" x="541" y="-141.5" font-family="Helvetica,sans-Serif" font-size="10.00">_mpsort.c</text>
</a>
</g>
</g>
<!-- Node4&#45;&gt;Node14 -->
<g id="edge13" class="edge">
<title>Node4&#45;&gt;Node14</title>
<path fill="none" stroke="midnightblue" d="M1308.91,-201.31C1307.59,-201.2 1306.29,-201.1 1305,-201 994.84,-177.17 914.23,-207.01 606,-165 602.91,-164.58 599.74,-164.08 596.56,-163.54"/>
<polygon fill="midnightblue" stroke="midnightblue" points="1308.82,-204.81 1319.08,-202.17 1309.41,-197.84 1308.82,-204.81"/>
</g>
<!-- Node15 -->
<g id="node15" class="node">
<title>Node15</title>
<g id="a_node15"><a xlink:href="interp_8c.html" target="_top" xlink:title=" ">
<polygon fill="white" stroke="black" points="615,-140 615,-159 741,-159 741,-140 615,-140"/>
<text text-anchor="middle" x="678" y="-147" font-family="Helvetica,sans-Serif" font-size="10.00">libgadget/utils/interp.c</text>
</a>
</g>
</g>
<!-- Node4&#45;&gt;Node15 -->
<g id="edge14" class="edge">
<title>Node4&#45;&gt;Node15</title>
<path fill="none" stroke="midnightblue" d="M1308.9,-201.33C1307.59,-201.22 1306.29,-201.11 1305,-201 1058.67,-180.42 995.04,-197.47 750,-165 738.75,-163.51 726.62,-161.3 715.58,-159.06"/>
<polygon fill="midnightblue" stroke="midnightblue" points="1308.81,-204.84 1319.08,-202.24 1309.43,-197.86 1308.81,-204.84"/>
</g>
<!-- Node16 -->
<g id="node16" class="node">
<title>Node16</title>
<g id="a_node16"><a xlink:href="mpsort_8c.html" target="_top" xlink:title=" ">
<polygon fill="white" stroke="black" points="759,-140 759,-159 891,-159 891,-140 759,-140"/>
<text text-anchor="middle" x="825" y="-147" font-family="Helvetica,sans-Serif" font-size="10.00">libgadget/utils/mpsort.c</text>
</a>
</g>
</g>
<!-- Node4&#45;&gt;Node16 -->
<g id="edge15" class="edge">
<title>Node4&#45;&gt;Node16</title>
<path fill="none" stroke="midnightblue" d="M1308.9,-201.37C1307.59,-201.25 1306.29,-201.12 1305,-201 1125.11,-183.81 1078.95,-190.18 900,-165 888.57,-163.39 876.25,-161.2 864.96,-159.01"/>
<polygon fill="midnightblue" stroke="midnightblue" points="1308.77,-204.88 1319.07,-202.37 1309.45,-197.91 1308.77,-204.88"/>
</g>
<!-- Node17 -->
<g id="node17" class="node">
<title>Node17</title>
<g id="a_node17"><a xlink:href="openmpsort_8c.html" target="_top" xlink:title=" ">
<polygon fill="white" stroke="black" points="909,-140 909,-159 1065,-159 1065,-140 909,-140"/>
<text text-anchor="middle" x="987" y="-147" font-family="Helvetica,sans-Serif" font-size="10.00">libgadget/utils/openmpsort.c</text>
</a>
</g>
</g>
<!-- Node4&#45;&gt;Node17 -->
<g id="edge17" class="edge">
<title>Node4&#45;&gt;Node17</title>
<path fill="none" stroke="midnightblue" d="M1318.97,-200.09C1254.27,-191.3 1157.83,-177.9 1074,-165 1062.04,-163.16 1049.18,-161.08 1037.11,-159.07"/>
<polygon fill="midnightblue" stroke="midnightblue" points="1318.7,-203.59 1329.08,-201.46 1319.64,-196.65 1318.7,-203.59"/>
</g>
<!-- Node18 -->
<g id="node18" class="node">
<title>Node18</title>
<g id="a_node18"><a xlink:href="paramset_8c.html" target="_top" xlink:title=" ">
<polygon fill="white" stroke="black" points="1083,-140 1083,-159 1227,-159 1227,-140 1083,-140"/>
<text text-anchor="middle" x="1155" y="-147" font-family="Helvetica,sans-Serif" font-size="10.00">libgadget/utils/paramset.c</text>
</a>
</g>
</g>
<!-- Node4&#45;&gt;Node18 -->
<g id="edge18" class="edge">
<title>Node4&#45;&gt;Node18</title>
<path fill="none" stroke="midnightblue" d="M1349.16,-199.04C1302.96,-187.49 1231.16,-169.54 1189.04,-159.01"/>
<polygon fill="midnightblue" stroke="midnightblue" points="1348.35,-202.45 1358.9,-201.48 1350.05,-195.65 1348.35,-202.45"/>
</g>
<!-- Node19 -->
<g id="node19" class="node">
<title>Node19</title>
<g id="a_node19"><a xlink:href="spinlocks_8c.html" target="_top" xlink:title=" ">
<polygon fill="white" stroke="black" points="1245.5,-140 1245.5,-159 1388.5,-159 1388.5,-140 1245.5,-140"/>
<text text-anchor="middle" x="1317" y="-147" font-family="Helvetica,sans-Serif" font-size="10.00">libgadget/utils/spinlocks.c</text>
</a>
</g>
</g>
<!-- Node4&#45;&gt;Node19 -->
<g id="edge19" class="edge">
<title>Node4&#45;&gt;Node19</title>
<path fill="none" stroke="midnightblue" d="M1374.22,-195.29C1359.64,-183.88 1339.94,-168.46 1327.87,-159.01"/>
<polygon fill="midnightblue" stroke="midnightblue" points="1372.08,-198.07 1382.11,-201.48 1376.39,-192.55 1372.08,-198.07"/>
</g>
<!-- Node20 -->
<g id="node20" class="node">
<title>Node20</title>
<g id="a_node20"><a xlink:href="string_8c.html" target="_top" xlink:title=" ">
<polygon fill="white" stroke="black" points="1406.5,-140 1406.5,-159 1531.5,-159 1531.5,-140 1406.5,-140"/>
<text text-anchor="middle" x="1469" y="-147" font-family="Helvetica,sans-Serif" font-size="10.00">libgadget/utils/string.c</text>
</a>
</g>
</g>
<!-- Node4&#45;&gt;Node20 -->
<g id="edge20" class="edge">
<title>Node4&#45;&gt;Node20</title>
<path fill="none" stroke="midnightblue" d="M1411.78,-195.29C1426.36,-183.88 1446.06,-168.46 1458.13,-159.01"/>
<polygon fill="midnightblue" stroke="midnightblue" points="1409.61,-192.55 1403.89,-201.48 1413.92,-198.07 1409.61,-192.55"/>
</g>
<!-- Node21 -->
<g id="node21" class="node">
<title>Node21</title>
<g id="a_node21"><a xlink:href="system_8c.html" target="_top" xlink:title=" ">
<polygon fill="white" stroke="black" points="1550,-140 1550,-159 1684,-159 1684,-140 1550,-140"/>
<text text-anchor="middle" x="1617" y="-147" font-family="Helvetica,sans-Serif" font-size="10.00">libgadget/utils/system.c</text>
</a>
</g>
</g>
<!-- Node4&#45;&gt;Node21 -->
<g id="edge21" class="edge">
<title>Node4&#45;&gt;Node21</title>
<path fill="none" stroke="midnightblue" d="M1434.8,-198.9C1478.31,-187.34 1545.49,-169.5 1584.97,-159.01"/>
<polygon fill="midnightblue" stroke="midnightblue" points="1433.86,-195.53 1425.09,-201.48 1435.66,-202.29 1433.86,-195.53"/>
</g>
<!-- Node4&#45;&gt;Node22 -->
<g id="edge22" class="edge">
<title>Node4&#45;&gt;Node22</title>
<path fill="none" stroke="midnightblue" d="M1476.8,-207.17C1787.52,-196.69 2868.3,-160.21 3108.47,-152.1"/>
<polygon fill="midnightblue" stroke="midnightblue" points="1476.39,-203.68 1466.51,-207.52 1476.62,-210.68 1476.39,-203.68"/>
</g>
<!-- Node87 -->
<g id="node50" class="node">
<title>Node87</title>
<g id="a_node50"><a xlink:href="save_8c.html" target="_top" xlink:title=" ">
<polygon fill="white" stroke="black" points="1850.5,-73 1850.5,-92 1939.5,-92 1939.5,-73 1850.5,-73"/>
<text text-anchor="middle" x="1895" y="-80" font-family="Helvetica,sans-Serif" font-size="10.00">libgenic/save.c</text>
</a>
</g>
</g>
<!-- Node4&#45;&gt;Node87 -->
<g id="edge65" class="edge">
<title>Node4&#45;&gt;Node87</title>
<path fill="none" stroke="midnightblue" d="M1476.96,-206.17C1601.47,-199.84 1823.68,-185.79 1854,-165 1879.47,-147.54 1889.93,-109.39 1893.46,-92.2"/>
<polygon fill="midnightblue" stroke="midnightblue" points="1476.51,-202.69 1466.7,-206.69 1476.86,-209.68 1476.51,-202.69"/>
</g>
<!-- Node23 -->
<g id="node23" class="node">
<title>Node23</title>
<g id="a_node23"><a xlink:href="checkpoint_8c.html" target="_top" xlink:title=" ">
<polygon fill="white" stroke="black" points="3714.5,-73 3714.5,-92 3841.5,-92 3841.5,-73 3714.5,-73"/>
<text text-anchor="middle" x="3778" y="-80" font-family="Helvetica,sans-Serif" font-size="10.00">libgadget/checkpoint.c</text>
</a>
</g>
</g>
<!-- Node22&#45;&gt;Node23 -->
<g id="edge23" class="edge">
<title>Node22&#45;&gt;Node23</title>
<path fill="none" stroke="midnightblue" d="M3213.9,-145.23C3314.41,-139.1 3527.54,-124.09 3706,-98 3716.98,-96.4 3728.81,-94.21 3739.65,-92.02"/>
<polygon fill="midnightblue" stroke="midnightblue" points="3213.43,-141.75 3203.65,-145.85 3213.85,-148.74 3213.43,-141.75"/>
</g>
<!-- Node24 -->
<g id="node24" class="node">
<title>Node24</title>
<g id="a_node24"><a xlink:href="cosmology_8c.html" target="_top" xlink:title=" ">
<polygon fill="white" stroke="black" points="3859.5,-73 3859.5,-92 3984.5,-92 3984.5,-73 3859.5,-73"/>
<text text-anchor="middle" x="3922" y="-80" font-family="Helvetica,sans-Serif" font-size="10.00">libgadget/cosmology.c</text>
</a>
</g>
</g>
<!-- Node22&#45;&gt;Node24 -->
<g id="edge24" class="edge">
<title>Node22&#45;&gt;Node24</title>
<path fill="none" stroke="midnightblue" d="M3213.86,-146.82C3333.39,-142.79 3616.06,-130.39 3851,-98 3862.09,-96.47 3874.05,-94.25 3884.94,-92.01"/>
<polygon fill="midnightblue" stroke="midnightblue" points="3213.71,-143.32 3203.83,-147.15 3213.94,-150.32 3213.71,-143.32"/>
</g>
<!-- Node25 -->
<g id="node25" class="node">
<title>Node25</title>
<g id="a_node25"><a xlink:href="density_8c.html" target="_top" xlink:title="SPH density computation and smoothing length determination.">
<polygon fill="white" stroke="black" points="3620,-6 3620,-25 3728,-25 3728,-6 3620,-6"/>
<text text-anchor="middle" x="3674" y="-13" font-family="Helvetica,sans-Serif" font-size="10.00">libgadget/density.c</text>
</a>
</g>
</g>
<!-- Node22&#45;&gt;Node25 -->
<g id="edge25" class="edge">
<title>Node22&#45;&gt;Node25</title>
<path fill="none" stroke="midnightblue" d="M3213.59,-147.17C3398.58,-142.63 3967.25,-126.41 3994,-98 4003.44,-87.97 4002.95,-77.47 3994,-67 3989.7,-61.96 3818.23,-36.96 3728.11,-24.13"/>
<polygon fill="midnightblue" stroke="midnightblue" points="3213.43,-143.68 3203.51,-147.42 3213.6,-150.67 3213.43,-143.68"/>
</g>
<!-- Node26 -->
<g id="node26" class="node">
<title>Node26</title>
<g id="a_node26"><a xlink:href="domain_8c.html" target="_top" xlink:title="code for domain decomposition">
<polygon fill="white" stroke="black" points="3797,-6 3797,-25 3907,-25 3907,-6 3797,-6"/>
<text text-anchor="middle" x="3852" y="-13" font-family="Helvetica,sans-Serif" font-size="10.00">libgadget/domain.c</text>
</a>
</g>
</g>
<!-- Node22&#45;&gt;Node26 -->
<g id="edge26" class="edge">
<title>Node22&#45;&gt;Node26</title>
<path fill="none" stroke="midnightblue" d="M3213.79,-147.24C3401.5,-142.87 3983.64,-127.02 4011,-98 4047.07,-59.74 3965.67,-36.42 3906.54,-25.02"/>
<polygon fill="midnightblue" stroke="midnightblue" points="3213.49,-143.75 3203.57,-147.48 3213.65,-150.74 3213.49,-143.75"/>
</g>
<!-- Node27 -->
<g id="node27" class="node">
<title>Node27</title>
<g id="a_node27"><a xlink:href="drift_8c.html" target="_top" xlink:title=" ">
<polygon fill="white" stroke="black" points="4079.5,-73 4079.5,-92 4172.5,-92 4172.5,-73 4079.5,-73"/>
<text text-anchor="middle" x="4126" y="-80" font-family="Helvetica,sans-Serif" font-size="10.00">libgadget/drift.c</text>
</a>
</g>
</g>
<!-- Node22&#45;&gt;Node27 -->
<g id="edge27" class="edge">
<title>Node22&#45;&gt;Node27</title>
<path fill="none" stroke="midnightblue" d="M3214,-148.84C3358.54,-148.92 3746.08,-144.39 4065,-98 4074.8,-96.57 4085.34,-94.33 4094.86,-92.03"/>
<polygon fill="midnightblue" stroke="midnightblue" points="3213.62,-145.34 3203.61,-148.83 3213.61,-152.34 3213.62,-145.34"/>
</g>
<!-- Node28 -->
<g id="node28" class="node">
<title>Node28</title>
<g id="a_node28"><a xlink:href="exchange_8c.html" target="_top" xlink:title=" ">
<polygon fill="white" stroke="black" points="3951.5,-6 3951.5,-25 4072.5,-25 4072.5,-6 3951.5,-6"/>
<text text-anchor="middle" x="4012" y="-13" font-family="Helvetica,sans-Serif" font-size="10.00">libgadget/exchange.c</text>
</a>
</g>
</g>
<!-- Node22&#45;&gt;Node28 -->
<g id="edge28" class="edge">
<title>Node22&#45;&gt;Node28</title>
<path fill="none" stroke="midnightblue" d="M3213.97,-147.83C3425.96,-145.1 4148.44,-133.25 4182,-98 4191.5,-88.02 4190.24,-78.04 4182,-67 4167.78,-47.94 4108.8,-33.49 4064.27,-25.03"/>
<polygon fill="midnightblue" stroke="midnightblue" points="3213.64,-144.33 3203.68,-147.96 3213.72,-151.33 3213.64,-144.33"/>
</g>
<!-- Node29 -->
<g id="node29" class="node">
<title>Node29</title>
<g id="a_node29"><a xlink:href="fof_8c.html" target="_top" xlink:title="parallel FoF group finder">
<polygon fill="white" stroke="black" points="4104,-6 4104,-25 4190,-25 4190,-6 4104,-6"/>
<text text-anchor="middle" x="4147" y="-13" font-family="Helvetica,sans-Serif" font-size="10.00">libgadget/fof.c</text>
</a>
</g>
</g>
<!-- Node22&#45;&gt;Node29 -->
<g id="edge29" class="edge">
<title>Node22&#45;&gt;Node29</title>
<path fill="none" stroke="midnightblue" d="M3213.89,-147.88C3428.04,-145.31 4164.82,-133.88 4199,-98 4221.11,-74.79 4181.28,-40.85 4159.63,-25.11"/>
<polygon fill="midnightblue" stroke="midnightblue" points="3213.75,-144.38 3203.79,-148 3213.83,-151.38 3213.75,-144.38"/>
</g>
<!-- Node30 -->
<g id="node30" class="node">
<title>Node30</title>
<g id="a_node30"><a xlink:href="fofpetaio_8c.html" target="_top" xlink:title=" ">
<polygon fill="white" stroke="black" points="4214,-6 4214,-25 4332,-25 4332,-6 4214,-6"/>
<text text-anchor="middle" x="4273" y="-13" font-family="Helvetica,sans-Serif" font-size="10.00">libgadget/fofpetaio.c</text>
</a>
</g>
</g>
<!-- Node22&#45;&gt;Node30 -->
<g id="edge30" class="edge">
<title>Node22&#45;&gt;Node30</title>
<path fill="none" stroke="midnightblue" d="M3213.83,-148.7C3422.38,-149.01 4128.15,-146.46 4216,-98 4245.63,-81.66 4263.3,-42.56 4269.96,-25.14"/>
<polygon fill="midnightblue" stroke="midnightblue" points="3213.7,-145.2 3203.7,-148.68 3213.69,-152.2 3213.7,-145.2"/>
</g>
<!-- Node31 -->
<g id="node31" class="node">
<title>Node31</title>
<g id="a_node31"><a xlink:href="gdbtools_8c.html" target="_top" xlink:title=" ">
<polygon fill="white" stroke="black" points="4305,-73 4305,-92 4421,-92 4421,-73 4305,-73"/>
<text text-anchor="middle" x="4363" y="-80" font-family="Helvetica,sans-Serif" font-size="10.00">libgadget/gdbtools.c</text>
</a>
</g>
</g>
<!-- Node22&#45;&gt;Node31 -->
<g id="edge31" class="edge">
<title>Node22&#45;&gt;Node31</title>
<path fill="none" stroke="midnightblue" d="M3213.58,-149.06C3380.75,-150.03 3880.37,-148.18 4291,-98 4302.52,-96.59 4314.94,-94.35 4326.18,-92.05"/>
<polygon fill="midnightblue" stroke="midnightblue" points="3213.54,-145.56 3203.52,-149 3213.5,-152.56 3213.54,-145.56"/>
</g>
<!-- Node32 -->
<g id="node32" class="node">
<title>Node32</title>
<g id="a_node32"><a xlink:href="gravity_8c.html" target="_top" xlink:title=" ">
<polygon fill="white" stroke="black" points="1957.5,-73 1957.5,-92 2064.5,-92 2064.5,-73 1957.5,-73"/>
<text text-anchor="middle" x="2011" y="-80" font-family="Helvetica,sans-Serif" font-size="10.00">libgadget/gravity.c</text>
</a>
</g>
</g>
<!-- Node22&#45;&gt;Node32 -->
<g id="edge32" class="edge">
<title>Node22&#45;&gt;Node32</title>
<path fill="none" stroke="midnightblue" d="M3098.39,-147.21C2904.11,-142.63 2273.9,-125.94 2073,-98 2062.93,-96.6 2052.09,-94.33 2042.33,-92"/>
<polygon fill="midnightblue" stroke="midnightblue" points="3098.32,-150.71 3108.4,-147.44 3098.48,-143.71 3098.32,-150.71"/>
</g>
<!-- Node33 -->
<g id="node33" class="node">
<title>Node33</title>
<g id="a_node33"><a xlink:href="gravpm_8c.html" target="_top" xlink:title=" ">
<polygon fill="white" stroke="black" points="2082.5,-73 2082.5,-92 2193.5,-92 2193.5,-73 2082.5,-73"/>
<text text-anchor="middle" x="2138" y="-80" font-family="Helvetica,sans-Serif" font-size="10.00">libgadget/gravpm.c</text>
</a>
</g>
</g>
<!-- Node22&#45;&gt;Node33 -->
<g id="edge33" class="edge">
<title>Node22&#45;&gt;Node33</title>
<path fill="none" stroke="midnightblue" d="M3097.84,-148.78C2948.5,-148.76 2539.63,-144.14 2203,-98 2192.58,-96.57 2181.35,-94.33 2171.21,-92.03"/>
<polygon fill="midnightblue" stroke="midnightblue" points="3098.14,-152.28 3108.14,-148.77 3098.14,-145.28 3098.14,-152.28"/>
</g>
<!-- Node34 -->
<g id="node34" class="node">
<title>Node34</title>
<g id="a_node34"><a xlink:href="gravshort-pair_8c.html" target="_top" xlink:title=" ">
<polygon fill="white" stroke="black" points="2212,-67.5 2212,-97.5 2324,-97.5 2324,-67.5 2212,-67.5"/>
<text text-anchor="start" x="2220" y="-85.5" font-family="Helvetica,sans-Serif" font-size="10.00">libgadget/gravshort</text>
<text text-anchor="middle" x="2268" y="-74.5" font-family="Helvetica,sans-Serif" font-size="10.00">&#45;pair.c</text>
</a>
</g>
</g>
<!-- Node22&#45;&gt;Node34 -->
<g id="edge34" class="edge">
<title>Node22&#45;&gt;Node34</title>
<path fill="none" stroke="midnightblue" d="M3098.33,-148.09C2963.66,-146.45 2618.27,-138.31 2333,-98 2330.14,-97.6 2327.21,-97.13 2324.27,-96.62"/>
<polygon fill="midnightblue" stroke="midnightblue" points="3098.38,-151.59 3108.42,-148.21 3098.46,-144.59 3098.38,-151.59"/>
</g>
<!-- Node35 -->
<g id="node35" class="node">
<title>Node35</title>
<g id="a_node35"><a xlink:href="gravshort-tree_8c.html" target="_top" xlink:title=" ">
<polygon fill="white" stroke="black" points="2342,-67.5 2342,-97.5 2454,-97.5 2454,-67.5 2342,-67.5"/>
<text text-anchor="start" x="2350" y="-85.5" font-family="Helvetica,sans-Serif" font-size="10.00">libgadget/gravshort</text>
<text text-anchor="middle" x="2398" y="-74.5" font-family="Helvetica,sans-Serif" font-size="10.00">&#45;tree.c</text>
</a>
</g>
</g>
<!-- Node22&#45;&gt;Node35 -->
<g id="edge35" class="edge">
<title>Node22&#45;&gt;Node35</title>
<path fill="none" stroke="midnightblue" d="M3098.26,-147.15C2978.98,-143.74 2696.96,-132.43 2463,-98 2460.14,-97.58 2457.22,-97.1 2454.28,-96.58"/>
<polygon fill="midnightblue" stroke="midnightblue" points="3098.17,-150.65 3108.27,-147.43 3098.37,-143.65 3098.17,-150.65"/>
</g>
<!-- Node36 -->
<g id="node36" class="node">
<title>Node36</title>
<g id="a_node36"><a xlink:href="hci_8c.html" target="_top" xlink:title=" ">
<polygon fill="white" stroke="black" points="2472,-73 2472,-92 2560,-92 2560,-73 2472,-73"/>
<text text-anchor="middle" x="2516" y="-80" font-family="Helvetica,sans-Serif" font-size="10.00">libgadget/hci.c</text>
</a>
</g>
</g>
<!-- Node22&#45;&gt;Node36 -->
<g id="edge36" class="edge">
<title>Node22&#45;&gt;Node36</title>
<path fill="none" stroke="midnightblue" d="M3098.07,-146.51C2992.99,-142.23 2764.23,-129.83 2574,-98 2564.89,-96.48 2555.1,-94.26 2546.21,-92.01"/>
<polygon fill="midnightblue" stroke="midnightblue" points="3098.02,-150.01 3108.15,-146.91 3098.3,-143.02 3098.02,-150.01"/>
</g>
<!-- Node37 -->
<g id="node37" class="node">
<title>Node37</title>
<g id="a_node37"><a xlink:href="hydra_8c.html" target="_top" xlink:title="Computation of SPH forces and rate of entropy generation.">
<polygon fill="white" stroke="black" points="2551.5,-6 2551.5,-25 2652.5,-25 2652.5,-6 2551.5,-6"/>
<text text-anchor="middle" x="2602" y="-13" font-family="Helvetica,sans-Serif" font-size="10.00">libgadget/hydra.c</text>
</a>
</g>
</g>
<!-- Node22&#45;&gt;Node37 -->
<g id="edge37" class="edge">
<title>Node22&#45;&gt;Node37</title>
<path fill="none" stroke="midnightblue" d="M3098.43,-146.26C2970.62,-140.8 2671.51,-125.26 2635,-98 2611.15,-80.19 2604.49,-42.23 2602.67,-25.14"/>
<polygon fill="midnightblue" stroke="midnightblue" points="3098.29,-149.75 3108.43,-146.68 3098.59,-142.76 3098.29,-149.75"/>
</g>
<!-- Node38 -->
<g id="node38" class="node">
<title>Node38</title>
<g id="a_node38"><a xlink:href="init_8c.html" target="_top" xlink:title="code for initialisation of a simulation from initial conditions">
<polygon fill="white" stroke="black" points="2687.5,-6 2687.5,-25 2776.5,-25 2776.5,-6 2687.5,-6"/>
<text text-anchor="middle" x="2732" y="-13" font-family="Helvetica,sans-Serif" font-size="10.00">libgadget/init.c</text>
</a>
</g>
</g>
<!-- Node22&#45;&gt;Node38 -->
<g id="edge38" class="edge">
<title>Node22&#45;&gt;Node38</title>
<path fill="none" stroke="midnightblue" d="M3097.99,-147.05C2970.71,-143.26 2675.89,-130.99 2646,-98 2620.31,-69.64 2677.35,-39.47 2710.46,-25.09"/>
<polygon fill="midnightblue" stroke="midnightblue" points="3098.22,-150.56 3108.32,-147.35 3098.42,-143.56 3098.22,-150.56"/>
</g>
<!-- Node39 -->
<g id="node39" class="node">
<title>Node39</title>
<g id="a_node39"><a xlink:href="lightcone_8c.html" target="_top" xlink:title=" ">
<polygon fill="white" stroke="black" points="2654.5,-73 2654.5,-92 2773.5,-92 2773.5,-73 2654.5,-73"/>
<text text-anchor="middle" x="2714" y="-80" font-family="Helvetica,sans-Serif" font-size="10.00">libgadget/lightcone.c</text>
</a>
</g>
</g>
<!-- Node22&#45;&gt;Node39 -->
<g id="edge39" class="edge">
<title>Node22&#45;&gt;Node39</title>
<path fill="none" stroke="midnightblue" d="M3097.92,-141.57C3025.27,-132.66 2897.14,-116.17 2788,-98 2777.41,-96.24 2766.01,-94.12 2755.41,-92.05"/>
<polygon fill="midnightblue" stroke="midnightblue" points="3097.88,-145.09 3108.23,-142.83 3098.73,-138.14 3097.88,-145.09"/>
</g>
<!-- Node40 -->
<g id="node40" class="node">
<title>Node40</title>
<g id="a_node40"><a xlink:href="petaio_8c.html" target="_top" xlink:title=" ">
<polygon fill="white" stroke="black" points="2850,-6 2850,-25 2954,-25 2954,-6 2850,-6"/>
<text text-anchor="middle" x="2902" y="-13" font-family="Helvetica,sans-Serif" font-size="10.00">libgadget/petaio.c</text>
</a>
</g>
</g>
<!-- Node22&#45;&gt;Node40 -->
<g id="edge40" class="edge">
<title>Node22&#45;&gt;Node40</title>
<path fill="none" stroke="midnightblue" d="M3098.29,-148.44C3012.32,-146.99 2856.96,-138.64 2822,-98 2797.95,-70.04 2851.08,-39.69 2881.93,-25.18"/>
<polygon fill="midnightblue" stroke="midnightblue" points="3098.37,-151.94 3108.42,-148.59 3098.47,-144.94 3098.37,-151.94"/>
</g>
<!-- Node41 -->
<g id="node41" class="node">
<title>Node41</title>
<g id="a_node41"><a xlink:href="petapm_8c.html" target="_top" xlink:title=" ">
<polygon fill="white" stroke="black" points="2830.5,-73 2830.5,-92 2941.5,-92 2941.5,-73 2830.5,-73"/>
<text text-anchor="middle" x="2886" y="-80" font-family="Helvetica,sans-Serif" font-size="10.00">libgadget/petapm.c</text>
</a>
</g>
</g>
<!-- Node22&#45;&gt;Node41 -->
<g id="edge41" class="edge">
<title>Node22&#45;&gt;Node41</title>
<path fill="none" stroke="midnightblue" d="M3110.57,-137.56C3057.35,-124.75 2970.26,-103.78 2921.65,-92.08"/>
<polygon fill="midnightblue" stroke="midnightblue" points="3109.88,-141 3120.42,-139.94 3111.52,-134.19 3109.88,-141"/>
</g>
<!-- Node42 -->
<g id="node42" class="node">
<title>Node42</title>
<g id="a_node42"><a xlink:href="powerspectrum_8c.html" target="_top" xlink:title=" ">
<polygon fill="white" stroke="black" points="2959.5,-73 2959.5,-92 3108.5,-92 3108.5,-73 2959.5,-73"/>
<text text-anchor="middle" x="3034" y="-80" font-family="Helvetica,sans-Serif" font-size="10.00">libgadget/powerspectrum.c</text>
</a>
</g>
</g>
<!-- Node22&#45;&gt;Node42 -->
<g id="edge42" class="edge">
<title>Node22&#45;&gt;Node42</title>
<path fill="none" stroke="midnightblue" d="M3130.86,-135.1C3106.69,-122.23 3070.9,-103.16 3050.27,-92.17"/>
<polygon fill="midnightblue" stroke="midnightblue" points="3129.33,-138.26 3139.8,-139.87 3132.62,-132.08 3129.33,-138.26"/>
</g>
<!-- Node43 -->
<g id="node43" class="node">
<title>Node43</title>
<g id="a_node43"><a xlink:href="run_8c.html" target="_top" xlink:title="iterates over timesteps, main loop">
<polygon fill="white" stroke="black" points="3000.5,-6 3000.5,-25 3089.5,-25 3089.5,-6 3000.5,-6"/>
<text text-anchor="middle" x="3045" y="-13" font-family="Helvetica,sans-Serif" font-size="10.00">libgadget/run.c</text>
</a>
</g>
</g>
<!-- Node22&#45;&gt;Node43 -->
<g id="edge43" class="edge">
<title>Node22&#45;&gt;Node43</title>
<path fill="none" stroke="midnightblue" d="M3150.57,-130.16C3144.68,-112.54 3133.93,-85.87 3118,-67 3102.4,-48.51 3078.47,-33.71 3062.31,-25.02"/>
<polygon fill="midnightblue" stroke="midnightblue" points="3147.27,-131.33 3153.61,-139.81 3153.95,-129.22 3147.27,-131.33"/>
</g>
<!-- Node44 -->
<g id="node44" class="node">
<title>Node44</title>
<g id="a_node44"><a xlink:href="slotsmanager_8c.html" target="_top" xlink:title=" ">
<polygon fill="white" stroke="black" points="3108,-6 3108,-25 3248,-25 3248,-6 3108,-6"/>
<text text-anchor="middle" x="3178" y="-13" font-family="Helvetica,sans-Serif" font-size="10.00">libgadget/slotsmanager.c</text>
</a>
</g>
</g>
<!-- Node22&#45;&gt;Node44 -->
<g id="edge44" class="edge">
<title>Node22&#45;&gt;Node44</title>
<path fill="none" stroke="midnightblue" d="M3159.12,-129.78C3163.96,-100.75 3173.08,-46.04 3176.58,-25.02"/>
<polygon fill="midnightblue" stroke="midnightblue" points="3155.64,-129.4 3157.44,-139.84 3162.54,-130.55 3155.64,-129.4"/>
</g>
<!-- Node45 -->
<g id="node45" class="node">
<title>Node45</title>
<g id="a_node45"><a xlink:href="slotsmanager_8h.html" target="_top" xlink:title=" ">
<polygon fill="white" stroke="red" points="3203,-73 3203,-92 3343,-92 3343,-73 3203,-73"/>
<text text-anchor="middle" x="3273" y="-80" font-family="Helvetica,sans-Serif" font-size="10.00">libgadget/slotsmanager.h</text>
</a>
</g>
</g>
<!-- Node22&#45;&gt;Node45 -->
<g id="edge45" class="edge">
<title>Node22&#45;&gt;Node45</title>
<path fill="none" stroke="midnightblue" d="M3180.68,-134.79C3203.87,-121.9 3237.86,-103.02 3257.47,-92.13"/>
<polygon fill="midnightblue" stroke="midnightblue" points="3178.82,-131.82 3171.78,-139.73 3182.22,-137.94 3178.82,-131.82"/>
</g>
<!-- Node54 -->
<g id="node46" class="node">
<title>Node54</title>
<g id="a_node46"><a xlink:href="stats_8c.html" target="_top" xlink:title=" ">
<polygon fill="white" stroke="black" points="3266,-6 3266,-25 3364,-25 3364,-6 3266,-6"/>
<text text-anchor="middle" x="3315" y="-13" font-family="Helvetica,sans-Serif" font-size="10.00">libgadget/stats.c</text>
</a>
</g>
</g>
<!-- Node22&#45;&gt;Node54 -->
<g id="edge60" class="edge">
<title>Node22&#45;&gt;Node54</title>
<path fill="none" stroke="midnightblue" d="M3213.65,-141.47C3265.18,-133.86 3335.1,-119.81 3352,-98 3370.18,-74.54 3340.64,-40.72 3324.46,-25.06"/>
<polygon fill="midnightblue" stroke="midnightblue" points="3213.02,-138.03 3203.61,-142.91 3214.01,-144.96 3213.02,-138.03"/>
</g>
<!-- Node58 -->
<g id="node47" class="node">
<title>Node58</title>
<g id="a_node47"><a xlink:href="timestep_8c.html" target="_top" xlink:title="routines for &#39;kicking&#39; particles in momentum space and assigning new timesteps">
<polygon fill="white" stroke="black" points="3382.5,-6 3382.5,-25 3499.5,-25 3499.5,-6 3382.5,-6"/>
<text text-anchor="middle" x="3441" y="-13" font-family="Helvetica,sans-Serif" font-size="10.00">libgadget/timestep.c</text>
</a>
</g>
</g>
<!-- Node22&#45;&gt;Node58 -->
<g id="edge63" class="edge">
<title>Node22&#45;&gt;Node58</title>
<path fill="none" stroke="midnightblue" d="M3213.82,-144.16C3258.55,-138.66 3320.65,-126.2 3368,-98 3399.66,-79.15 3425.26,-42.06 3435.8,-25.21"/>
<polygon fill="midnightblue" stroke="midnightblue" points="3213.23,-140.7 3203.69,-145.32 3214.03,-147.66 3213.23,-140.7"/>
</g>
<!-- Node81 -->
<g id="node48" class="node">
<title>Node81</title>
<g id="a_node48"><a xlink:href="timebinmgr_8c.html" target="_top" xlink:title=" ">
<polygon fill="white" stroke="black" points="3437,-73 3437,-92 3567,-92 3567,-73 3437,-73"/>
<text text-anchor="middle" x="3502" y="-80" font-family="Helvetica,sans-Serif" font-size="10.00">libgadget/timebinmgr.c</text>
</a>
</g>
</g>
<!-- Node22&#45;&gt;Node81 -->
<g id="edge61" class="edge">
<title>Node22&#45;&gt;Node81</title>
<path fill="none" stroke="midnightblue" d="M3211.69,-138.04C3279.75,-125.25 3393.58,-103.87 3456.58,-92.03"/>
<polygon fill="midnightblue" stroke="midnightblue" points="3210.77,-134.65 3201.59,-139.94 3212.06,-141.53 3210.77,-134.65"/>
</g>
<!-- Node82 -->
<g id="node49" class="node">
<title>Node82</title>
<g id="a_node49"><a xlink:href="timefac_8c.html" target="_top" xlink:title=" ">
<polygon fill="white" stroke="black" points="3585.5,-73 3585.5,-92 3696.5,-92 3696.5,-73 3585.5,-73"/>
<text text-anchor="middle" x="3641" y="-80" font-family="Helvetica,sans-Serif" font-size="10.00">libgadget/timefac.c</text>
</a>
</g>
</g>
<!-- Node22&#45;&gt;Node82 -->
<g id="edge62" class="edge">
<title>Node22&#45;&gt;Node82</title>
<path fill="none" stroke="midnightblue" d="M3213.8,-143.39C3295.03,-135.8 3447.4,-120.02 3576,-98 3585.69,-96.34 3596.11,-94.19 3605.71,-92.05"/>
<polygon fill="midnightblue" stroke="midnightblue" points="3213.41,-139.91 3203.78,-144.32 3214.06,-146.88 3213.41,-139.91"/>
</g>
<!-- Node22&#45;&gt;Node87 -->
<g id="edge64" class="edge">
<title>Node22&#45;&gt;Node87</title>
<path fill="none" stroke="midnightblue" d="M3098.13,-147.81C2889.13,-145.03 2173.76,-133.14 1948,-98 1939.33,-96.65 1930.04,-94.4 1921.71,-92.07"/>
<polygon fill="midnightblue" stroke="midnightblue" points="3098.24,-151.31 3108.28,-147.94 3098.33,-144.31 3098.24,-151.31"/>
</g>
<!-- Node45&#45;&gt;Node6 -->
<g id="edge46" class="edge">
<title>Node45&#45;&gt;Node6</title>
<path fill="none" stroke="midnightblue" d="M3192.7,-73.36C3168.69,-71.09 3142.29,-68.77 3118,-67 2777.44,-42.16 2368.33,-24.87 2215.52,-18.85"/>
<polygon fill="midnightblue" stroke="midnightblue" points="3192.55,-76.86 3202.84,-74.32 3193.21,-69.89 3192.55,-76.86"/>
</g>
<!-- Node45&#45;&gt;Node12 -->
<g id="edge58" class="edge">
<title>Node45&#45;&gt;Node12</title>
<path fill="none" stroke="midnightblue" d="M3192.73,-72.93C3168.72,-70.65 3142.32,-68.43 3118,-67 2705.79,-42.76 1374.43,-21.68 1085.61,-17.32"/>
<polygon fill="midnightblue" stroke="midnightblue" points="3192.57,-76.43 3202.86,-73.9 3193.25,-69.46 3192.57,-76.43"/>
</g>
<!-- Node45&#45;&gt;Node25 -->
<g id="edge47" class="edge">
<title>Node45&#45;&gt;Node25</title>
<path fill="none" stroke="midnightblue" d="M3336.1,-71.27C3414.79,-58.52 3547.9,-36.94 3621.37,-25.03"/>
<polygon fill="midnightblue" stroke="midnightblue" points="3335.15,-67.88 3325.84,-72.94 3336.27,-74.79 3335.15,-67.88"/>
</g>
<!-- Node45&#45;&gt;Node26 -->
<g id="edge48" class="edge">
<title>Node45&#45;&gt;Node26</title>
<path fill="none" stroke="midnightblue" d="M3353.13,-73.2C3445.66,-63.51 3602.42,-46.81 3737,-31 3756.49,-28.71 3777.81,-26.06 3796.75,-23.66"/>
<polygon fill="midnightblue" stroke="midnightblue" points="3352.59,-69.74 3343,-74.26 3353.31,-76.7 3352.59,-69.74"/>
</g>
<!-- Node45&#45;&gt;Node28 -->
<g id="edge49" class="edge">
<title>Node45&#45;&gt;Node28</title>
<path fill="none" stroke="midnightblue" d="M3353.32,-73.68C3377.33,-71.43 3403.73,-69.03 3428,-67 3644.72,-48.87 3699.88,-55.26 3916,-31 3930.41,-29.38 3945.97,-27.22 3960.28,-25.05"/>
<polygon fill="midnightblue" stroke="midnightblue" points="3352.82,-70.22 3343.19,-74.64 3353.47,-77.18 3352.82,-70.22"/>
</g>
<!-- Node45&#45;&gt;Node29 -->
<g id="edge50" class="edge">
<title>Node45&#45;&gt;Node29</title>
<path fill="none" stroke="midnightblue" d="M3353.3,-73.4C3377.31,-71.14 3403.71,-68.8 3428,-67 3718.31,-45.44 3793.63,-70.83 4082,-31 4092.42,-29.56 4103.65,-27.31 4113.79,-25.01"/>
<polygon fill="midnightblue" stroke="midnightblue" points="3352.79,-69.93 3343.17,-74.36 3353.45,-76.9 3352.79,-69.93"/>
</g>
<!-- Node45&#45;&gt;Node30 -->
<g id="edge51" class="edge">
<title>Node45&#45;&gt;Node30</title>
<path fill="none" stroke="midnightblue" d="M3353.29,-73.27C3377.3,-71 3403.7,-68.7 3428,-67 3770.2,-43.02 3858.43,-72.09 4199,-31 4210.83,-29.57 4223.6,-27.33 4235.14,-25.03"/>
<polygon fill="midnightblue" stroke="midnightblue" points="3352.78,-69.8 3343.16,-74.24 3353.45,-76.77 3352.78,-69.8"/>
</g>
<!-- Node45&#45;&gt;Node37 -->
<g id="edge52" class="edge">
<title>Node45&#45;&gt;Node37</title>
<path fill="none" stroke="midnightblue" d="M3192.67,-73.81C3168.66,-71.56 3142.26,-69.13 3118,-67 2922.98,-49.88 2873.01,-57.15 2679,-31 2667.27,-29.42 2654.62,-27.24 2643.03,-25.05"/>
<polygon fill="midnightblue" stroke="midnightblue" points="3192.52,-77.31 3202.8,-74.76 3193.17,-70.34 3192.52,-77.31"/>
</g>
<!-- Node45&#45;&gt;Node38 -->
<g id="edge53" class="edge">
<title>Node45&#45;&gt;Node38</title>
<path fill="none" stroke="midnightblue" d="M3192.96,-72.53C3106.21,-62.71 2963.71,-46.33 2841,-31 2819.78,-28.35 2796.27,-25.24 2776.53,-22.59"/>
<polygon fill="midnightblue" stroke="midnightblue" points="3192.67,-76.02 3203,-73.66 3193.46,-69.06 3192.67,-76.02"/>
</g>
<!-- Node45&#45;&gt;Node40 -->
<g id="edge54" class="edge">
<title>Node45&#45;&gt;Node40</title>
<path fill="none" stroke="midnightblue" d="M3214.18,-71.19C3141.32,-58.43 3018.53,-36.92 2950.7,-25.03"/>
<polygon fill="midnightblue" stroke="midnightblue" points="3213.66,-74.66 3224.12,-72.94 3214.87,-67.76 3213.66,-74.66"/>
</g>
<!-- Node45&#45;&gt;Node43 -->
<g id="edge55" class="edge">
<title>Node45&#45;&gt;Node43</title>
<path fill="none" stroke="midnightblue" d="M3232.98,-70.09C3187.88,-57.23 3115.57,-36.62 3075.04,-25.06"/>
<polygon fill="midnightblue" stroke="midnightblue" points="3232.15,-73.49 3242.72,-72.87 3234.07,-66.76 3232.15,-73.49"/>
</g>
<!-- Node45&#45;&gt;Node44 -->
<g id="edge56" class="edge">
<title>Node45&#45;&gt;Node44</title>
<path fill="none" stroke="midnightblue" d="M3251.69,-66.92C3232.91,-54.07 3206.18,-35.78 3190.61,-25.13"/>
<polygon fill="midnightblue" stroke="midnightblue" points="3249.96,-69.98 3260.19,-72.73 3253.91,-64.2 3249.96,-69.98"/>
</g>
<!-- Node45&#45;&gt;Node54 -->
<g id="edge57" class="edge">
<title>Node45&#45;&gt;Node54</title>
<path fill="none" stroke="midnightblue" d="M3284.29,-64.03C3292.42,-51.45 3303.04,-35.01 3309.43,-25.13"/>
<polygon fill="midnightblue" stroke="midnightblue" points="3281.15,-62.44 3278.66,-72.73 3287.03,-66.23 3281.15,-62.44"/>
</g>
<!-- Node45&#45;&gt;Node58 -->
<g id="edge59" class="edge">
<title>Node45&#45;&gt;Node58</title>
<path fill="none" stroke="midnightblue" d="M3305.04,-69.1C3338.39,-56.2 3389.75,-36.33 3418.87,-25.06"/>
<polygon fill="midnightblue" stroke="midnightblue" points="3303.37,-66 3295.31,-72.87 3305.9,-72.52 3303.37,-66"/>
</g>
</g>
</svg>
