<?xml version="1.0" encoding="UTF-8" standalone="no"?>
<!DOCTYPE svg PUBLIC "-//W3C//DTD SVG 1.1//EN"
 "http://www.w3.org/Graphics/SVG/1.1/DTD/svg11.dtd">
<!-- Generated by graphviz version 2.50.0 (0)
 -->
<!-- Title: allocator_alloc Pages: 1 -->
<svg width="1143pt" height="241pt"
 viewBox="0.00 0.00 1143.00 241.44" xmlns="http://www.w3.org/2000/svg" xmlns:xlink="http://www.w3.org/1999/xlink">
<g id="graph0" class="graph" transform="scale(1 1) rotate(0) translate(4 237.44)">
<title>allocator_alloc</title>
<polygon fill="white" stroke="transparent" points="-4,4 -4,-237.44 1139,-237.44 1139,4 -4,4"/>
<!-- Node1 -->
<g id="node1" class="node">
<title>Node1</title>
<g id="a_node1"><a xlink:title=" ">
<polygon fill="#bfbfbf" stroke="black" points="0,-47.5 0,-66.5 88,-66.5 88,-47.5 0,-47.5"/>
<text text-anchor="middle" x="44" y="-54.5" font-family="Helvetica,sans-Serif" font-size="10.00">allocator_alloc</text>
</a>
</g>
</g>
<!-- Node2 -->
<g id="node2" class="node">
<title>Node2</title>
<g id="a_node2"><a xlink:href="memory_8c.html#a9101bc2df32496c54603c12301372ea8" target="_top" xlink:title=" ">
<polygon fill="white" stroke="black" points="124,-47.5 124,-66.5 229,-66.5 229,-47.5 124,-47.5"/>
<text text-anchor="middle" x="176.5" y="-54.5" font-family="Helvetica,sans-Serif" font-size="10.00">allocator_alloc_va</text>
</a>
</g>
</g>
<!-- Node1&#45;&gt;Node2 -->
<g id="edge1" class="edge">
<title>Node1&#45;&gt;Node2</title>
<path fill="none" stroke="midnightblue" d="M88.09,-57C96.31,-57 105.06,-57 113.73,-57"/>
<polygon fill="midnightblue" stroke="midnightblue" points="113.83,-60.5 123.83,-57 113.83,-53.5 113.83,-60.5"/>
</g>
<!-- Node3 -->
<g id="node3" class="node">
<title>Node3</title>
<g id="a_node3"><a xlink:href="memory_8c.html#ac6472b7ca5b76ef02be3795ca8863fae" target="_top" xlink:title=" ">
<polygon fill="white" stroke="black" points="265,-104.5 265,-123.5 352,-123.5 352,-104.5 265,-104.5"/>
<text text-anchor="middle" x="308.5" y="-111.5" font-family="Helvetica,sans-Serif" font-size="10.00">allocator_print</text>
</a>
</g>
</g>
<!-- Node2&#45;&gt;Node3 -->
<g id="edge2" class="edge">
<title>Node2&#45;&gt;Node3</title>
<path fill="none" stroke="midnightblue" d="M199.26,-66.54C220.35,-75.79 252.56,-89.91 276.36,-100.35"/>
<polygon fill="midnightblue" stroke="midnightblue" points="275.11,-103.62 285.67,-104.43 277.92,-97.21 275.11,-103.62"/>
</g>
<!-- Node8 -->
<g id="node8" class="node">
<title>Node8</title>
<g id="a_node8"><a xlink:href="endrun_8c.html#ad963d7efdb9f10f7a2298c8ccd222ab0" target="_top" xlink:title=" ">
<polygon fill="white" stroke="black" points="861,-28.5 861,-47.5 911,-47.5 911,-28.5 861,-28.5"/>
<text text-anchor="middle" x="886" y="-35.5" font-family="Helvetica,sans-Serif" font-size="10.00">endrun</text>
</a>
</g>
</g>
<!-- Node2&#45;&gt;Node8 -->
<g id="edge19" class="edge">
<title>Node2&#45;&gt;Node8</title>
<path fill="none" stroke="midnightblue" d="M204.98,-47.46C254.24,-31.23 361.12,0 454,0 454,0 454,0 617,0 701.85,0 800.33,-18.9 851,-30.05"/>
<polygon fill="midnightblue" stroke="midnightblue" points="850.25,-33.46 860.77,-32.23 851.78,-26.63 850.25,-33.46"/>
</g>
<!-- Node4 -->
<g id="node4" class="node">
<title>Node4</title>
<g id="a_node4"><a xlink:href="memory_8c.html#a7d147e0f7a869dd7c832a77fa7374772" target="_top" xlink:title=" ">
<polygon fill="white" stroke="black" points="390,-180.5 390,-199.5 520,-199.5 520,-180.5 390,-180.5"/>
<text text-anchor="middle" x="455" y="-187.5" font-family="Helvetica,sans-Serif" font-size="10.00">allocator_get_free_size</text>
</a>
</g>
</g>
<!-- Node3&#45;&gt;Node4 -->
<g id="edge3" class="edge">
<title>Node3&#45;&gt;Node4</title>
<path fill="none" stroke="midnightblue" d="M321.99,-123.63C337.02,-134.89 363.33,-153.56 388,-166 396.07,-170.07 405,-173.79 413.61,-177.03"/>
<polygon fill="midnightblue" stroke="midnightblue" points="412.55,-180.37 423.14,-180.47 414.92,-173.78 412.55,-180.37"/>
</g>
<!-- Node5 -->
<g id="node5" class="node">
<title>Node5</title>
<g id="a_node5"><a xlink:href="memory_8c.html#ae8ed0c76854687599e00d825e3d1ec4b" target="_top" xlink:title=" ">
<polygon fill="white" stroke="black" points="388,-104.5 388,-123.5 522,-123.5 522,-104.5 388,-104.5"/>
<text text-anchor="middle" x="455" y="-111.5" font-family="Helvetica,sans-Serif" font-size="10.00">allocator_get_used_size</text>
</a>
</g>
</g>
<!-- Node3&#45;&gt;Node5 -->
<g id="edge4" class="edge">
<title>Node3&#45;&gt;Node5</title>
<path fill="none" stroke="midnightblue" d="M352.07,-114C360.24,-114 369.02,-114 377.87,-114"/>
<polygon fill="midnightblue" stroke="midnightblue" points="377.88,-117.5 387.88,-114 377.88,-110.5 377.88,-117.5"/>
</g>
<!-- Node6 -->
<g id="node6" class="node">
<title>Node6</title>
<g id="a_node6"><a xlink:href="memory_8c.html#af219c7066531e1f24d914b86e51406e8" target="_top" xlink:title=" ">
<polygon fill="white" stroke="black" points="558,-142.5 558,-161.5 674,-161.5 674,-142.5 558,-142.5"/>
<text text-anchor="middle" x="616" y="-149.5" font-family="Helvetica,sans-Serif" font-size="10.00">allocator_iter_ended</text>
</a>
</g>
</g>
<!-- Node3&#45;&gt;Node6 -->
<g id="edge14" class="edge">
<title>Node3&#45;&gt;Node6</title>
<path fill="none" stroke="midnightblue" d="M344.05,-123.58C357.65,-127.03 373.47,-130.65 388,-133 441.35,-141.64 502.43,-146.47 547.79,-149.09"/>
<polygon fill="midnightblue" stroke="midnightblue" points="547.62,-152.59 557.8,-149.65 548.01,-145.6 547.62,-152.59"/>
</g>
<!-- Node7 -->
<g id="node7" class="node">
<title>Node7</title>
<g id="a_node7"><a xlink:href="memory_8c.html#a1071a12fb6ee5a98c249cbcd497bfdd0" target="_top" xlink:title=" ">
<polygon fill="white" stroke="black" points="710,-66.5 710,-85.5 818,-85.5 818,-66.5 710,-66.5"/>
<text text-anchor="middle" x="764" y="-73.5" font-family="Helvetica,sans-Serif" font-size="10.00">allocator_iter_next</text>
</a>
</g>
</g>
<!-- Node3&#45;&gt;Node7 -->
<g id="edge15" class="edge">
<title>Node3&#45;&gt;Node7</title>
<path fill="none" stroke="midnightblue" d="M325.1,-104.47C340.5,-95.56 365.02,-82.64 388,-76 510.39,-40.66 547.31,-43.63 674,-57 688.02,-58.48 703.09,-61.24 716.76,-64.2"/>
<polygon fill="midnightblue" stroke="midnightblue" points="716.38,-67.7 726.9,-66.49 717.92,-60.88 716.38,-67.7"/>
</g>
<!-- Node13 -->
<g id="node13" class="node">
<title>Node13</title>
<g id="a_node13"><a xlink:href="memory_8c.html#ad4519ad28c6b5c244e6d82f37f1698f6" target="_top" xlink:title=" ">
<polygon fill="white" stroke="black" points="561.5,-66.5 561.5,-85.5 670.5,-85.5 670.5,-66.5 561.5,-66.5"/>
<text text-anchor="middle" x="616" y="-73.5" font-family="Helvetica,sans-Serif" font-size="10.00">allocator_iter_start</text>
</a>
</g>
</g>
<!-- Node3&#45;&gt;Node13 -->
<g id="edge16" class="edge">
<title>Node3&#45;&gt;Node13</title>
<path fill="none" stroke="midnightblue" d="M344.05,-104.42C357.65,-100.97 373.47,-97.35 388,-95 442.62,-86.16 505.35,-81.31 551,-78.72"/>
<polygon fill="midnightblue" stroke="midnightblue" points="551.26,-82.21 561.05,-78.17 550.88,-75.22 551.26,-82.21"/>
</g>
<!-- Node14 -->
<g id="node14" class="node">
<title>Node14</title>
<g id="a_node14"><a xlink:href="endrun_8c.html#a6567cd867c5549fb6586e19ccd819764" target="_top" xlink:title=" ">
<polygon fill="white" stroke="black" points="733.5,-161.5 733.5,-180.5 794.5,-180.5 794.5,-161.5 733.5,-161.5"/>
<text text-anchor="middle" x="764" y="-168.5" font-family="Helvetica,sans-Serif" font-size="10.00">message</text>
</a>
</g>
</g>
<!-- Node3&#45;&gt;Node14 -->
<g id="edge17" class="edge">
<title>Node3&#45;&gt;Node14</title>
<path fill="none" stroke="midnightblue" d="M313.86,-123.64C323.67,-143.99 349.67,-190.95 388,-209 505.13,-264.16 665.19,-211.36 731.87,-184.53"/>
<polygon fill="midnightblue" stroke="midnightblue" points="733.46,-187.66 741.38,-180.62 730.8,-181.19 733.46,-187.66"/>
</g>
<!-- Node5&#45;&gt;Node6 -->
<g id="edge5" class="edge">
<title>Node5&#45;&gt;Node6</title>
<path fill="none" stroke="midnightblue" d="M496.12,-123.59C517.1,-128.6 542.98,-134.79 565.23,-140.11"/>
<polygon fill="midnightblue" stroke="midnightblue" points="564.63,-143.56 575.17,-142.48 566.25,-136.75 564.63,-143.56"/>
</g>
<!-- Node5&#45;&gt;Node7 -->
<g id="edge6" class="edge">
<title>Node5&#45;&gt;Node7</title>
<path fill="none" stroke="midnightblue" d="M522.07,-110.37C565.43,-107.46 623.28,-102.59 674,-95 686.82,-93.08 700.57,-90.44 713.33,-87.74"/>
<polygon fill="midnightblue" stroke="midnightblue" points="714.29,-91.11 723.32,-85.57 712.8,-84.27 714.29,-91.11"/>
</g>
<!-- Node5&#45;&gt;Node13 -->
<g id="edge12" class="edge">
<title>Node5&#45;&gt;Node13</title>
<path fill="none" stroke="midnightblue" d="M496.12,-104.41C517.1,-99.4 542.98,-93.21 565.23,-87.89"/>
<polygon fill="midnightblue" stroke="midnightblue" points="566.25,-91.25 575.17,-85.52 564.63,-84.44 566.25,-91.25"/>
</g>
<!-- Node7&#45;&gt;Node8 -->
<g id="edge7" class="edge">
<title>Node7&#45;&gt;Node8</title>
<path fill="none" stroke="midnightblue" d="M795.28,-66.41C812.23,-61.04 833.41,-54.34 850.93,-48.79"/>
<polygon fill="midnightblue" stroke="midnightblue" points="852.29,-52.03 860.77,-45.67 850.18,-45.35 852.29,-52.03"/>
</g>
<!-- Node12 -->
<g id="node12" class="node">
<title>Node12</title>
<g id="a_node12"><a xlink:href="memory_8c.html#a027cc6371b4b530bd0ab24021475ac98" target="_top" xlink:title=" ">
<polygon fill="white" stroke="black" points="854,-66.5 854,-85.5 918,-85.5 918,-66.5 854,-66.5"/>
<text text-anchor="middle" x="886" y="-73.5" font-family="Helvetica,sans-Serif" font-size="10.00">is_header</text>
</a>
</g>
</g>
<!-- Node7&#45;&gt;Node12 -->
<g id="edge11" class="edge">
<title>Node7&#45;&gt;Node12</title>
<path fill="none" stroke="midnightblue" d="M818.33,-76C826.87,-76 835.59,-76 843.79,-76"/>
<polygon fill="midnightblue" stroke="midnightblue" points="843.85,-79.5 853.85,-76 843.85,-72.5 843.85,-79.5"/>
</g>
<!-- Node9 -->
<g id="node9" class="node">
<title>Node9</title>
<g id="a_node9"><a xlink:href="system_8c.html#a341c8d27bd6c7dde856566810b412b1f" target="_top" xlink:title=" ">
<polygon fill="white" stroke="black" points="962,-85.5 962,-104.5 1041,-104.5 1041,-85.5 962,-85.5"/>
<text text-anchor="middle" x="1001.5" y="-92.5" font-family="Helvetica,sans-Serif" font-size="10.00">MPIU_Tracev</text>
</a>
</g>
</g>
<!-- Node8&#45;&gt;Node9 -->
<g id="edge8" class="edge">
<title>Node8&#45;&gt;Node9</title>
<path fill="none" stroke="midnightblue" d="M906,-47.54C924.17,-56.66 951.78,-70.53 972.48,-80.93"/>
<polygon fill="midnightblue" stroke="midnightblue" points="970.93,-84.07 981.44,-85.43 974.08,-77.81 970.93,-84.07"/>
</g>
<!-- Node11 -->
<g id="node11" class="node">
<title>Node11</title>
<g id="a_node11"><a xlink:href="endrun_8c.html#a1200f02a595ab7cbe17c9e36ff32af0f" target="_top" xlink:title=" ">
<polygon fill="white" stroke="black" points="954,-28.5 954,-47.5 1049,-47.5 1049,-28.5 954,-28.5"/>
<text text-anchor="middle" x="1001.5" y="-35.5" font-family="Helvetica,sans-Serif" font-size="10.00">show_backtrace</text>
</a>
</g>
</g>
<!-- Node8&#45;&gt;Node11 -->
<g id="edge10" class="edge">
<title>Node8&#45;&gt;Node11</title>
<path fill="none" stroke="midnightblue" d="M911.07,-38C920.63,-38 932.07,-38 943.53,-38"/>
<polygon fill="midnightblue" stroke="midnightblue" points="943.55,-41.5 953.55,-38 943.55,-34.5 943.55,-41.5"/>
</g>
<!-- Node10 -->
<g id="node10" class="node">
<title>Node10</title>
<g id="a_node10"><a xlink:href="system_8c.html#a87108946670b4c3afbe846c6726675ff" target="_top" xlink:title=" ">
<polygon fill="white" stroke="black" points="1085,-85.5 1085,-104.5 1135,-104.5 1135,-85.5 1085,-85.5"/>
<text text-anchor="middle" x="1110" y="-92.5" font-family="Helvetica,sans-Serif" font-size="10.00">putline</text>
</a>
</g>
</g>
<!-- Node9&#45;&gt;Node10 -->
<g id="edge9" class="edge">
<title>Node9&#45;&gt;Node10</title>
<path fill="none" stroke="midnightblue" d="M1041.25,-95C1052.22,-95 1064.09,-95 1074.77,-95"/>
<polygon fill="midnightblue" stroke="midnightblue" points="1074.99,-98.5 1084.99,-95 1074.99,-91.5 1074.99,-98.5"/>
</g>
<!-- Node13&#45;&gt;Node7 -->
<g id="edge13" class="edge">
<title>Node13&#45;&gt;Node7</title>
<path fill="none" stroke="midnightblue" d="M670.54,-76C680.08,-76 690.1,-76 699.88,-76"/>
<polygon fill="midnightblue" stroke="midnightblue" points="699.96,-79.5 709.96,-76 699.96,-72.5 699.96,-79.5"/>
</g>
<!-- Node14&#45;&gt;Node9 -->
<g id="edge18" class="edge">
<title>Node14&#45;&gt;Node9</title>
<path fill="none" stroke="midnightblue" d="M794.83,-161.37C837.03,-147.75 914.24,-122.84 961.11,-107.71"/>
<polygon fill="midnightblue" stroke="midnightblue" points="962.47,-110.95 970.92,-104.55 960.32,-104.29 962.47,-110.95"/>
</g>
</g>
</svg>
