<?xml version="1.0" encoding="UTF-8" standalone="no"?>
<!DOCTYPE svg PUBLIC "-//W3C//DTD SVG 1.1//EN"
 "http://www.w3.org/Graphics/SVG/1.1/DTD/svg11.dtd">
<!-- Generated by graphviz version 2.50.0 (0)
 -->
<!-- Title: allocator_destroy Pages: 1 -->
<svg width="1015pt" height="265pt"
 viewBox="0.00 0.00 1015.00 265.00" xmlns="http://www.w3.org/2000/svg" xmlns:xlink="http://www.w3.org/1999/xlink">
<g id="graph0" class="graph" transform="scale(1 1) rotate(0) translate(4 261)">
<title>allocator_destroy</title>
<polygon fill="white" stroke="transparent" points="-4,4 -4,-261 1011,-261 1011,4 -4,4"/>
<!-- Node1 -->
<g id="node1" class="node">
<title>Node1</title>
<g id="a_node1"><a xlink:title=" ">
<polygon fill="#bfbfbf" stroke="black" points="0,-123.5 0,-142.5 101,-142.5 101,-123.5 0,-123.5"/>
<text text-anchor="middle" x="50.5" y="-130.5" font-family="Helvetica,sans-Serif" font-size="10.00">allocator_destroy</text>
</a>
</g>
</g>
<!-- Node2 -->
<g id="node2" class="node">
<title>Node2</title>
<g id="a_node2"><a xlink:href="memory_8c.html#aa75f488734921a7ff453d200583ed8a7" target="_top" xlink:title=" ">
<polygon fill="white" stroke="black" points="586,-237.5 586,-256.5 686,-256.5 686,-237.5 586,-237.5"/>
<text text-anchor="middle" x="636" y="-244.5" font-family="Helvetica,sans-Serif" font-size="10.00">allocator_dealloc</text>
</a>
</g>
</g>
<!-- Node1&#45;&gt;Node2 -->
<g id="edge1" class="edge">
<title>Node1&#45;&gt;Node2</title>
<path fill="none" stroke="midnightblue" d="M68.97,-142.59C103.99,-161.3 185.78,-202.34 260,-220 369.32,-246.01 501.19,-249.25 575.85,-248.58"/>
<polygon fill="midnightblue" stroke="midnightblue" points="576.04,-252.08 585.99,-248.46 575.95,-245.08 576.04,-252.08"/>
</g>
<!-- Node4 -->
<g id="node4" class="node">
<title>Node4</title>
<g id="a_node4"><a xlink:href="memory_8c.html#ac6472b7ca5b76ef02be3795ca8863fae" target="_top" xlink:title=" ">
<polygon fill="white" stroke="black" points="137,-123.5 137,-142.5 224,-142.5 224,-123.5 137,-123.5"/>
<text text-anchor="middle" x="180.5" y="-130.5" font-family="Helvetica,sans-Serif" font-size="10.00">allocator_print</text>
</a>
</g>
</g>
<!-- Node1&#45;&gt;Node4 -->
<g id="edge3" class="edge">
<title>Node1&#45;&gt;Node4</title>
<path fill="none" stroke="midnightblue" d="M101.35,-133C109.64,-133 118.26,-133 126.61,-133"/>
<polygon fill="midnightblue" stroke="midnightblue" points="126.64,-136.5 136.64,-133 126.64,-129.5 126.64,-136.5"/>
</g>
<!-- Node9 -->
<g id="node9" class="node">
<title>Node9</title>
<g id="a_node9"><a xlink:href="endrun_8c.html#ad963d7efdb9f10f7a2298c8ccd222ab0" target="_top" xlink:title=" ">
<polygon fill="white" stroke="black" points="733,-66.5 733,-85.5 783,-85.5 783,-66.5 733,-66.5"/>
<text text-anchor="middle" x="758" y="-73.5" font-family="Helvetica,sans-Serif" font-size="10.00">endrun</text>
</a>
</g>
</g>
<!-- Node1&#45;&gt;Node9 -->
<g id="edge20" class="edge">
<title>Node1&#45;&gt;Node9</title>
<path fill="none" stroke="midnightblue" d="M62.09,-123.43C97,-92.94 212.68,0 326,0 326,0 326,0 489,0 579.04,0 679.86,-40.19 728.16,-62.12"/>
<polygon fill="midnightblue" stroke="midnightblue" points="726.83,-65.36 737.37,-66.37 729.76,-59.01 726.83,-65.36"/>
</g>
<!-- Node3 -->
<g id="node3" class="node">
<title>Node3</title>
<g id="a_node3"><a xlink:href="memory_8c.html#a027cc6371b4b530bd0ab24021475ac98" target="_top" xlink:title=" ">
<polygon fill="white" stroke="black" points="726,-199.5 726,-218.5 790,-218.5 790,-199.5 726,-199.5"/>
<text text-anchor="middle" x="758" y="-206.5" font-family="Helvetica,sans-Serif" font-size="10.00">is_header</text>
</a>
</g>
</g>
<!-- Node2&#45;&gt;Node3 -->
<g id="edge2" class="edge">
<title>Node2&#45;&gt;Node3</title>
<path fill="none" stroke="midnightblue" d="M667.28,-237.41C682.35,-232.64 700.75,-226.81 716.97,-221.68"/>
<polygon fill="midnightblue" stroke="midnightblue" points="718.25,-224.94 726.73,-218.59 716.14,-218.27 718.25,-224.94"/>
</g>
<!-- Node5 -->
<g id="node5" class="node">
<title>Node5</title>
<g id="a_node5"><a xlink:href="memory_8c.html#a7d147e0f7a869dd7c832a77fa7374772" target="_top" xlink:title=" ">
<polygon fill="white" stroke="black" points="262,-66.5 262,-85.5 392,-85.5 392,-66.5 262,-66.5"/>
<text text-anchor="middle" x="327" y="-73.5" font-family="Helvetica,sans-Serif" font-size="10.00">allocator_get_free_size</text>
</a>
</g>
</g>
<!-- Node4&#45;&gt;Node5 -->
<g id="edge4" class="edge">
<title>Node4&#45;&gt;Node5</title>
<path fill="none" stroke="midnightblue" d="M203.38,-123.46C219.06,-116.71 240.73,-107.55 260,-100 269.44,-96.3 279.7,-92.48 289.27,-88.99"/>
<polygon fill="midnightblue" stroke="midnightblue" points="290.7,-92.2 298.91,-85.51 288.32,-85.62 290.7,-92.2"/>
</g>
<!-- Node6 -->
<g id="node6" class="node">
<title>Node6</title>
<g id="a_node6"><a xlink:href="memory_8c.html#ae8ed0c76854687599e00d825e3d1ec4b" target="_top" xlink:title=" ">
<polygon fill="white" stroke="black" points="260,-142.5 260,-161.5 394,-161.5 394,-142.5 260,-142.5"/>
<text text-anchor="middle" x="327" y="-149.5" font-family="Helvetica,sans-Serif" font-size="10.00">allocator_get_used_size</text>
</a>
</g>
</g>
<!-- Node4&#45;&gt;Node6 -->
<g id="edge5" class="edge">
<title>Node4&#45;&gt;Node6</title>
<path fill="none" stroke="midnightblue" d="M224.07,-138.6C232.24,-139.67 241.02,-140.83 249.87,-141.99"/>
<polygon fill="midnightblue" stroke="midnightblue" points="249.5,-145.47 259.88,-143.31 250.42,-138.53 249.5,-145.47"/>
</g>
<!-- Node7 -->
<g id="node7" class="node">
<title>Node7</title>
<g id="a_node7"><a xlink:href="memory_8c.html#af219c7066531e1f24d914b86e51406e8" target="_top" xlink:title=" ">
<polygon fill="white" stroke="black" points="430,-104.5 430,-123.5 546,-123.5 546,-104.5 430,-104.5"/>
<text text-anchor="middle" x="488" y="-111.5" font-family="Helvetica,sans-Serif" font-size="10.00">allocator_iter_ended</text>
</a>
</g>
</g>
<!-- Node4&#45;&gt;Node7 -->
<g id="edge15" class="edge">
<title>Node4&#45;&gt;Node7</title>
<path fill="none" stroke="midnightblue" d="M224.3,-130.34C275.06,-127.18 360.29,-121.88 419.86,-118.18"/>
<polygon fill="midnightblue" stroke="midnightblue" points="420.16,-121.66 429.92,-117.55 419.73,-114.68 420.16,-121.66"/>
</g>
<!-- Node8 -->
<g id="node8" class="node">
<title>Node8</title>
<g id="a_node8"><a xlink:href="memory_8c.html#a1071a12fb6ee5a98c249cbcd497bfdd0" target="_top" xlink:title=" ">
<polygon fill="white" stroke="black" points="582,-180.5 582,-199.5 690,-199.5 690,-180.5 582,-180.5"/>
<text text-anchor="middle" x="636" y="-187.5" font-family="Helvetica,sans-Serif" font-size="10.00">allocator_iter_next</text>
</a>
</g>
</g>
<!-- Node4&#45;&gt;Node8 -->
<g id="edge16" class="edge">
<title>Node4&#45;&gt;Node8</title>
<path fill="none" stroke="midnightblue" d="M190.5,-142.93C204.02,-157.1 231.08,-182.64 260,-194 370.26,-237.31 513.21,-217.04 586.69,-201.68"/>
<polygon fill="midnightblue" stroke="midnightblue" points="587.55,-205.08 596.59,-199.56 586.08,-198.24 587.55,-205.08"/>
</g>
<!-- Node13 -->
<g id="node13" class="node">
<title>Node13</title>
<g id="a_node13"><a xlink:href="memory_8c.html#ad4519ad28c6b5c244e6d82f37f1698f6" target="_top" xlink:title=" ">
<polygon fill="white" stroke="black" points="433.5,-180.5 433.5,-199.5 542.5,-199.5 542.5,-180.5 433.5,-180.5"/>
<text text-anchor="middle" x="488" y="-187.5" font-family="Helvetica,sans-Serif" font-size="10.00">allocator_iter_start</text>
</a>
</g>
</g>
<!-- Node4&#45;&gt;Node13 -->
<g id="edge17" class="edge">
<title>Node4&#45;&gt;Node13</title>
<path fill="none" stroke="midnightblue" d="M197.06,-142.67C212.43,-151.69 236.93,-164.68 260,-171 313.73,-185.71 377.05,-189.98 423.14,-190.85"/>
<polygon fill="midnightblue" stroke="midnightblue" points="423.25,-194.35 433.29,-190.99 423.34,-187.35 423.25,-194.35"/>
</g>
<!-- Node14 -->
<g id="node14" class="node">
<title>Node14</title>
<g id="a_node14"><a xlink:href="endrun_8c.html#a6567cd867c5549fb6586e19ccd819764" target="_top" xlink:title=" ">
<polygon fill="white" stroke="black" points="457.5,-28.5 457.5,-47.5 518.5,-47.5 518.5,-28.5 457.5,-28.5"/>
<text text-anchor="middle" x="488" y="-35.5" font-family="Helvetica,sans-Serif" font-size="10.00">message</text>
</a>
</g>
</g>
<!-- Node4&#45;&gt;Node14 -->
<g id="edge18" class="edge">
<title>Node4&#45;&gt;Node14</title>
<path fill="none" stroke="midnightblue" d="M187.92,-123.42C199.84,-106.55 227.19,-71.91 260,-57 320.93,-29.33 400.48,-29.93 447.42,-33.53"/>
<polygon fill="midnightblue" stroke="midnightblue" points="447.23,-37.02 457.49,-34.38 447.82,-30.05 447.23,-37.02"/>
</g>
<!-- Node6&#45;&gt;Node7 -->
<g id="edge6" class="edge">
<title>Node6&#45;&gt;Node7</title>
<path fill="none" stroke="midnightblue" d="M368.12,-142.41C389.1,-137.4 414.98,-131.21 437.23,-125.89"/>
<polygon fill="midnightblue" stroke="midnightblue" points="438.25,-129.25 447.17,-123.52 436.63,-122.44 438.25,-129.25"/>
</g>
<!-- Node6&#45;&gt;Node8 -->
<g id="edge7" class="edge">
<title>Node6&#45;&gt;Node8</title>
<path fill="none" stroke="midnightblue" d="M394.07,-155.63C437.43,-158.54 495.28,-163.41 546,-171 558.82,-172.92 572.57,-175.56 585.33,-178.26"/>
<polygon fill="midnightblue" stroke="midnightblue" points="584.8,-181.73 595.32,-180.43 586.29,-174.89 584.8,-181.73"/>
</g>
<!-- Node6&#45;&gt;Node13 -->
<g id="edge13" class="edge">
<title>Node6&#45;&gt;Node13</title>
<path fill="none" stroke="midnightblue" d="M368.12,-161.59C389.1,-166.6 414.98,-172.79 437.23,-178.11"/>
<polygon fill="midnightblue" stroke="midnightblue" points="436.63,-181.56 447.17,-180.48 438.25,-174.75 436.63,-181.56"/>
</g>
<!-- Node8&#45;&gt;Node3 -->
<g id="edge12" class="edge">
<title>Node8&#45;&gt;Node3</title>
<path fill="none" stroke="midnightblue" d="M690.33,-198.44C698.87,-199.8 707.59,-201.18 715.79,-202.48"/>
<polygon fill="midnightblue" stroke="midnightblue" points="715.42,-205.96 725.85,-204.07 716.52,-199.05 715.42,-205.96"/>
</g>
<!-- Node8&#45;&gt;Node9 -->
<g id="edge8" class="edge">
<title>Node8&#45;&gt;Node9</title>
<path fill="none" stroke="midnightblue" d="M647.23,-180.28C667.69,-160.85 713.85,-116.99 739.31,-92.8"/>
<polygon fill="midnightblue" stroke="midnightblue" points="741.96,-95.12 746.79,-85.69 737.13,-90.04 741.96,-95.12"/>
</g>
<!-- Node10 -->
<g id="node10" class="node">
<title>Node10</title>
<g id="a_node10"><a xlink:href="system_8c.html#a341c8d27bd6c7dde856566810b412b1f" target="_top" xlink:title=" ">
<polygon fill="white" stroke="black" points="834,-28.5 834,-47.5 913,-47.5 913,-28.5 834,-28.5"/>
<text text-anchor="middle" x="873.5" y="-35.5" font-family="Helvetica,sans-Serif" font-size="10.00">MPIU_Tracev</text>
</a>
</g>
</g>
<!-- Node9&#45;&gt;Node10 -->
<g id="edge9" class="edge">
<title>Node9&#45;&gt;Node10</title>
<path fill="none" stroke="midnightblue" d="M783.07,-67.94C797.97,-62.95 817.44,-56.43 834.41,-50.75"/>
<polygon fill="midnightblue" stroke="midnightblue" points="835.68,-54.02 844.05,-47.52 833.46,-47.38 835.68,-54.02"/>
</g>
<!-- Node12 -->
<g id="node12" class="node">
<title>Node12</title>
<g id="a_node12"><a xlink:href="endrun_8c.html#a1200f02a595ab7cbe17c9e36ff32af0f" target="_top" xlink:title=" ">
<polygon fill="white" stroke="black" points="826,-66.5 826,-85.5 921,-85.5 921,-66.5 826,-66.5"/>
<text text-anchor="middle" x="873.5" y="-73.5" font-family="Helvetica,sans-Serif" font-size="10.00">show_backtrace</text>
</a>
</g>
</g>
<!-- Node9&#45;&gt;Node12 -->
<g id="edge11" class="edge">
<title>Node9&#45;&gt;Node12</title>
<path fill="none" stroke="midnightblue" d="M783.07,-76C792.63,-76 804.07,-76 815.53,-76"/>
<polygon fill="midnightblue" stroke="midnightblue" points="815.55,-79.5 825.55,-76 815.55,-72.5 815.55,-79.5"/>
</g>
<!-- Node11 -->
<g id="node11" class="node">
<title>Node11</title>
<g id="a_node11"><a xlink:href="system_8c.html#a87108946670b4c3afbe846c6726675ff" target="_top" xlink:title=" ">
<polygon fill="white" stroke="black" points="957,-28.5 957,-47.5 1007,-47.5 1007,-28.5 957,-28.5"/>
<text text-anchor="middle" x="982" y="-35.5" font-family="Helvetica,sans-Serif" font-size="10.00">putline</text>
</a>
</g>
</g>
<!-- Node10&#45;&gt;Node11 -->
<g id="edge10" class="edge">
<title>Node10&#45;&gt;Node11</title>
<path fill="none" stroke="midnightblue" d="M913.25,-38C924.22,-38 936.09,-38 946.77,-38"/>
<polygon fill="midnightblue" stroke="midnightblue" points="946.99,-41.5 956.99,-38 946.99,-34.5 946.99,-41.5"/>
</g>
<!-- Node13&#45;&gt;Node8 -->
<g id="edge14" class="edge">
<title>Node13&#45;&gt;Node8</title>
<path fill="none" stroke="midnightblue" d="M542.54,-190C552.08,-190 562.1,-190 571.88,-190"/>
<polygon fill="midnightblue" stroke="midnightblue" points="571.96,-193.5 581.96,-190 571.96,-186.5 571.96,-193.5"/>
</g>
<!-- Node14&#45;&gt;Node10 -->
<g id="edge19" class="edge">
<title>Node14&#45;&gt;Node10</title>
<path fill="none" stroke="midnightblue" d="M518.77,-38C584.54,-38 742.76,-38 823.42,-38"/>
<polygon fill="midnightblue" stroke="midnightblue" points="823.81,-41.5 833.81,-38 823.81,-34.5 823.81,-41.5"/>
</g>
</g>
</svg>
