<?xml version="1.0" encoding="UTF-8" standalone="no"?>
<!DOCTYPE svg PUBLIC "-//W3C//DTD SVG 1.1//EN"
 "http://www.w3.org/Graphics/SVG/1.1/DTD/svg11.dtd">
<!-- Generated by graphviz version 2.38.0 (20140413.2041)
 -->
<!-- Title: allocator_print Pages: 1 -->
<svg width="499pt" height="237pt"
 viewBox="0.00 0.00 499.00 237.00" xmlns="http://www.w3.org/2000/svg" xmlns:xlink="http://www.w3.org/1999/xlink">
<g id="graph0" class="graph" transform="scale(1 1) rotate(0) translate(4 233)">
<title>allocator_print</title>
<polygon fill="white" stroke="none" points="-4,4 -4,-233 495,-233 495,4 -4,4"/>
<!-- Node181 -->
<g id="node1" class="node"><title>Node181</title>
<polygon fill="#bfbfbf" stroke="black" points="0,-114.5 0,-133.5 77,-133.5 77,-114.5 0,-114.5"/>
<text text-anchor="middle" x="38.5" y="-121.5" font-family="Helvetica,sans-Serif" font-size="10.00">allocator_print</text>
</g>
<!-- Node182 -->
<g id="node2" class="node"><title>Node182</title>
<g id="a_node2"><a xlink:href="memory_8c.html#a7d147e0f7a869dd7c832a77fa7374772" target="_top" xlink:title="allocator_get_free_size">
<polygon fill="white" stroke="black" points="115.5,-209.5 115.5,-228.5 232.5,-228.5 232.5,-209.5 115.5,-209.5"/>
<text text-anchor="middle" x="174" y="-216.5" font-family="Helvetica,sans-Serif" font-size="10.00">allocator_get_free_size</text>
</a>
</g>
</g>
<!-- Node181&#45;&gt;Node182 -->
<g id="edge1" class="edge"><title>Node181&#45;&gt;Node182</title>
<path fill="none" stroke="midnightblue" d="M46.2801,-133.649C58.0498,-149.707 83.8166,-181.93 113,-200 116.353,-202.076 119.953,-203.945 123.664,-205.622"/>
<polygon fill="midnightblue" stroke="midnightblue" points="122.457,-208.909 133.04,-209.411 125.08,-202.419 122.457,-208.909"/>
</g>
<!-- Node183 -->
<g id="node3" class="node"><title>Node183</title>
<g id="a_node3"><a xlink:href="memory_8c.html#ae8ed0c76854687599e00d825e3d1ec4b" target="_top" xlink:title="allocator_get_used_size">
<polygon fill="white" stroke="black" points="113,-171.5 113,-190.5 235,-190.5 235,-171.5 113,-171.5"/>
<text text-anchor="middle" x="174" y="-178.5" font-family="Helvetica,sans-Serif" font-size="10.00">allocator_get_used_size</text>
</a>
</g>
</g>
<!-- Node181&#45;&gt;Node183 -->
<g id="edge2" class="edge"><title>Node181&#45;&gt;Node183</title>
<path fill="none" stroke="midnightblue" d="M56.0441,-133.59C70.6928,-141.827 92.8208,-153.66 113,-162 118.369,-164.219 124.097,-166.336 129.802,-168.298"/>
<polygon fill="midnightblue" stroke="midnightblue" points="128.721,-171.627 139.314,-171.442 130.918,-164.98 128.721,-171.627"/>
</g>
<!-- Node184 -->
<g id="node4" class="node"><title>Node184</title>
<g id="a_node4"><a xlink:href="memory_8c.html#af219c7066531e1f24d914b86e51406e8" target="_top" xlink:title="allocator_iter_ended">
<polygon fill="white" stroke="black" points="122,-133.5 122,-152.5 226,-152.5 226,-133.5 122,-133.5"/>
<text text-anchor="middle" x="174" y="-140.5" font-family="Helvetica,sans-Serif" font-size="10.00">allocator_iter_ended</text>
</a>
</g>
</g>
<!-- Node181&#45;&gt;Node184 -->
<g id="edge3" class="edge"><title>Node181&#45;&gt;Node184</title>
<path fill="none" stroke="midnightblue" d="M77.0425,-129.343C87.7792,-130.871 99.7717,-132.578 111.543,-134.253"/>
<polygon fill="midnightblue" stroke="midnightblue" points="111.401,-137.768 121.794,-135.712 112.387,-130.838 111.401,-137.768"/>
</g>
<!-- Node185 -->
<g id="node5" class="node"><title>Node185</title>
<g id="a_node5"><a xlink:href="memory_8c.html#a1071a12fb6ee5a98c249cbcd497bfdd0" target="_top" xlink:title="allocator_iter_next">
<polygon fill="white" stroke="black" points="271,-85.5 271,-104.5 367,-104.5 367,-85.5 271,-85.5"/>
<text text-anchor="middle" x="319" y="-92.5" font-family="Helvetica,sans-Serif" font-size="10.00">allocator_iter_next</text>
</a>
</g>
</g>
<!-- Node181&#45;&gt;Node185 -->
<g id="edge4" class="edge"><title>Node181&#45;&gt;Node185</title>
<path fill="none" stroke="midnightblue" d="M77.0597,-120.089C124.205,-115.18 205.546,-106.71 260.533,-100.984"/>
<polygon fill="midnightblue" stroke="midnightblue" points="261.237,-104.43 270.82,-99.9128 260.512,-97.4674 261.237,-104.43"/>
</g>
<!-- Node187 -->
<g id="node7" class="node"><title>Node187</title>
<g id="a_node7"><a xlink:href="memory_8c.html#ad4519ad28c6b5c244e6d82f37f1698f6" target="_top" xlink:title="allocator_iter_start">
<polygon fill="white" stroke="black" points="125.5,-57.5 125.5,-76.5 222.5,-76.5 222.5,-57.5 125.5,-57.5"/>
<text text-anchor="middle" x="174" y="-64.5" font-family="Helvetica,sans-Serif" font-size="10.00">allocator_iter_start</text>
</a>
</g>
</g>
<!-- Node181&#45;&gt;Node187 -->
<g id="edge6" class="edge"><title>Node181&#45;&gt;Node187</title>
<path fill="none" stroke="midnightblue" d="M60.3086,-114.38C74.9708,-107.67 95.1016,-98.5938 113,-91 121.404,-87.4342 130.528,-83.7104 139.065,-80.2892"/>
<polygon fill="midnightblue" stroke="midnightblue" points="140.388,-83.5299 148.384,-76.5798 137.799,-77.0262 140.388,-83.5299"/>
</g>
<!-- Node188 -->
<g id="node8" class="node"><title>Node188</title>
<g id="a_node8"><a xlink:href="endrun_8c.html#a6567cd867c5549fb6586e19ccd819764" target="_top" xlink:title="message">
<polygon fill="white" stroke="black" points="146,-19.5 146,-38.5 202,-38.5 202,-19.5 146,-19.5"/>
<text text-anchor="middle" x="174" y="-26.5" font-family="Helvetica,sans-Serif" font-size="10.00">message</text>
</a>
</g>
</g>
<!-- Node181&#45;&gt;Node188 -->
<g id="edge8" class="edge"><title>Node181&#45;&gt;Node188</title>
<path fill="none" stroke="midnightblue" d="M46.2801,-114.351C58.0498,-98.2931 83.8166,-66.0696 113,-48 120.067,-43.6244 128.232,-40.1716 136.218,-37.4794"/>
<polygon fill="midnightblue" stroke="midnightblue" points="137.241,-40.8267 145.785,-34.562 135.199,-34.1311 137.241,-40.8267"/>
</g>
<!-- Node186 -->
<g id="node6" class="node"><title>Node186</title>
<g id="a_node6"><a xlink:href="memory_8c.html#a027cc6371b4b530bd0ab24021475ac98" target="_top" xlink:title="is_header">
<polygon fill="white" stroke="black" points="417.5,-85.5 417.5,-104.5 476.5,-104.5 476.5,-85.5 417.5,-85.5"/>
<text text-anchor="middle" x="447" y="-92.5" font-family="Helvetica,sans-Serif" font-size="10.00">is_header</text>
</a>
</g>
</g>
<!-- Node185&#45;&gt;Node186 -->
<g id="edge5" class="edge"><title>Node185&#45;&gt;Node186</title>
<path fill="none" stroke="midnightblue" d="M367.276,-95C380.369,-95 394.43,-95 406.995,-95"/>
<polygon fill="midnightblue" stroke="midnightblue" points="407.142,-98.5001 417.142,-95 407.142,-91.5001 407.142,-98.5001"/>
</g>
<!-- Node187&#45;&gt;Node185 -->
<g id="edge7" class="edge"><title>Node187&#45;&gt;Node185</title>
<path fill="none" stroke="midnightblue" d="M222.617,-76.3236C234.798,-78.7086 248.023,-81.2983 260.637,-83.7682"/>
<polygon fill="midnightblue" stroke="midnightblue" points="260.105,-87.2303 270.591,-85.7171 261.45,-80.3607 260.105,-87.2303"/>
</g>
<!-- Node189 -->
<g id="node9" class="node"><title>Node189</title>
<g id="a_node9"><a xlink:href="endrun_8c.html#a7267113a7c0a094743bb565eabc695d1" target="_top" xlink:title="messagev">
<polygon fill="white" stroke="black" points="288,-19.5 288,-38.5 350,-38.5 350,-19.5 288,-19.5"/>
<text text-anchor="middle" x="319" y="-26.5" font-family="Helvetica,sans-Serif" font-size="10.00">messagev</text>
</a>
</g>
</g>
<!-- Node188&#45;&gt;Node189 -->
<g id="edge9" class="edge"><title>Node188&#45;&gt;Node189</title>
<path fill="none" stroke="midnightblue" d="M202.234,-29C223.552,-29 253.525,-29 277.632,-29"/>
<polygon fill="midnightblue" stroke="midnightblue" points="277.901,-32.5001 287.901,-29 277.901,-25.5001 277.901,-32.5001"/>
</g>
<!-- Node190 -->
<g id="node10" class="node"><title>Node190</title>
<g id="a_node10"><a xlink:href="endrun_8c.html#a87108946670b4c3afbe846c6726675ff" target="_top" xlink:title="putline">
<polygon fill="white" stroke="black" points="424.5,-38.5 424.5,-57.5 469.5,-57.5 469.5,-38.5 424.5,-38.5"/>
<text text-anchor="middle" x="447" y="-45.5" font-family="Helvetica,sans-Serif" font-size="10.00">putline</text>
</a>
</g>
</g>
<!-- Node189&#45;&gt;Node190 -->
<g id="edge10" class="edge"><title>Node189&#45;&gt;Node190</title>
<path fill="none" stroke="midnightblue" d="M350.18,-33.551C369.558,-36.4731 394.684,-40.2618 414.344,-43.2265"/>
<polygon fill="midnightblue" stroke="midnightblue" points="413.94,-46.705 424.35,-44.7353 414.984,-39.7833 413.94,-46.705"/>
</g>
<!-- Node191 -->
<g id="node11" class="node"><title>Node191</title>
<g id="a_node11"><a xlink:href="endrun_8c.html#a1200f02a595ab7cbe17c9e36ff32af0f" target="_top" xlink:title="show_backtrace">
<polygon fill="white" stroke="black" points="403,-0.5 403,-19.5 491,-19.5 491,-0.5 403,-0.5"/>
<text text-anchor="middle" x="447" y="-7.5" font-family="Helvetica,sans-Serif" font-size="10.00">show_backtrace</text>
</a>
</g>
</g>
<!-- Node189&#45;&gt;Node191 -->
<g id="edge11" class="edge"><title>Node189&#45;&gt;Node191</title>
<path fill="none" stroke="midnightblue" d="M350.18,-24.449C362.957,-22.5223 378.233,-20.2188 392.794,-18.0231"/>
<polygon fill="midnightblue" stroke="midnightblue" points="393.354,-21.4783 402.721,-16.5263 392.31,-14.5565 393.354,-21.4783"/>
</g>
</g>
</svg>
