<?xml version="1.0" encoding="UTF-8" standalone="no"?>
<!DOCTYPE svg PUBLIC "-//W3C//DTD SVG 1.1//EN"
 "http://www.w3.org/Graphics/SVG/1.1/DTD/svg11.dtd">
<!-- Generated by graphviz version 2.38.0 (20140413.2041)
 -->
<!-- Title: allocator_init Pages: 1 -->
<svg width="853pt" height="231pt"
 viewBox="0.00 0.00 853.00 230.65" xmlns="http://www.w3.org/2000/svg" xmlns:xlink="http://www.w3.org/1999/xlink">
<g id="graph0" class="graph" transform="scale(1 1) rotate(0) translate(4 226.649)">
<title>allocator_init</title>
<polygon fill="white" stroke="none" points="-4,4 -4,-226.649 849,-226.649 849,4 -4,4"/>
<!-- Node113 -->
<g id="node1" class="node"><title>Node113</title>
<polygon fill="#bfbfbf" stroke="black" points="0,-122.617 0,-141.617 71,-141.617 71,-122.617 0,-122.617"/>
<text text-anchor="middle" x="35.5" y="-129.617" font-family="Helvetica,sans-Serif" font-size="10.00">allocator_init</text>
</g>
<!-- Node114 -->
<g id="node2" class="node"><title>Node114</title>
<g id="a_node2"><a xlink:href="memory_8c.html#a781f982d26f3b8ef0d7d283c8e92203f" target="_top" xlink:title="allocator_alloc">
<polygon fill="white" stroke="black" points="107.5,-141.617 107.5,-160.617 186.5,-160.617 186.5,-141.617 107.5,-141.617"/>
<text text-anchor="middle" x="147" y="-148.617" font-family="Helvetica,sans-Serif" font-size="10.00">allocator_alloc</text>
</a>
</g>
</g>
<!-- Node113&#45;&gt;Node114 -->
<g id="edge1" class="edge"><title>Node113&#45;&gt;Node114</title>
<path fill="none" stroke="midnightblue" d="M71.1465,-138.129C79.5229,-139.582 88.6283,-141.162 97.511,-142.703"/>
<polygon fill="midnightblue" stroke="midnightblue" points="96.9432,-146.157 107.394,-144.418 98.14,-139.26 96.9432,-146.157"/>
</g>
<!-- Node128 -->
<g id="node16" class="node"><title>Node128</title>
<g id="a_node16"><a xlink:href="memory_8c.html#a645e6ff1388809bd634f6d29e97db28c" target="_top" xlink:title="allocator_reset">
<polygon fill="white" stroke="black" points="107,-103.617 107,-122.617 187,-122.617 187,-103.617 107,-103.617"/>
<text text-anchor="middle" x="147" y="-110.617" font-family="Helvetica,sans-Serif" font-size="10.00">allocator_reset</text>
</a>
</g>
</g>
<!-- Node113&#45;&gt;Node128 -->
<g id="edge17" class="edge"><title>Node113&#45;&gt;Node128</title>
<path fill="none" stroke="midnightblue" d="M71.1465,-126.105C79.2527,-124.699 88.0416,-123.174 96.6507,-121.68"/>
<polygon fill="midnightblue" stroke="midnightblue" points="97.3683,-125.108 106.623,-119.949 96.1715,-118.211 97.3683,-125.108"/>
</g>
<!-- Node115 -->
<g id="node3" class="node"><title>Node115</title>
<g id="a_node3"><a xlink:href="memory_8c.html#a80b268139c845d6fff8127fdc3fe4a33" target="_top" xlink:title="allocator_alloc_va">
<polygon fill="white" stroke="black" points="223,-141.617 223,-160.617 318,-160.617 318,-141.617 223,-141.617"/>
<text text-anchor="middle" x="270.5" y="-148.617" font-family="Helvetica,sans-Serif" font-size="10.00">allocator_alloc_va</text>
</a>
</g>
</g>
<!-- Node114&#45;&gt;Node115 -->
<g id="edge2" class="edge"><title>Node114&#45;&gt;Node115</title>
<path fill="none" stroke="midnightblue" d="M186.777,-151.117C194.964,-151.117 203.765,-151.117 212.465,-151.117"/>
<polygon fill="midnightblue" stroke="midnightblue" points="212.587,-154.617 222.587,-151.117 212.587,-147.617 212.587,-154.617"/>
</g>
<!-- Node116 -->
<g id="node4" class="node"><title>Node116</title>
<g id="a_node4"><a xlink:href="memory_8c.html#ac6472b7ca5b76ef02be3795ca8863fae" target="_top" xlink:title="allocator_print">
<polygon fill="white" stroke="black" points="354,-103.617 354,-122.617 431,-122.617 431,-103.617 354,-103.617"/>
<text text-anchor="middle" x="392.5" y="-110.617" font-family="Helvetica,sans-Serif" font-size="10.00">allocator_print</text>
</a>
</g>
</g>
<!-- Node115&#45;&gt;Node116 -->
<g id="edge3" class="edge"><title>Node115&#45;&gt;Node116</title>
<path fill="none" stroke="midnightblue" d="M301.781,-141.528C316.846,-136.757 335.254,-130.928 351.467,-125.794"/>
<polygon fill="midnightblue" stroke="midnightblue" points="352.752,-129.058 361.229,-122.703 350.639,-122.385 352.752,-129.058"/>
</g>
<!-- Node127 -->
<g id="node15" class="node"><title>Node127</title>
<g id="a_node15"><a xlink:href="endrun_8c.html#ad963d7efdb9f10f7a2298c8ccd222ab0" target="_top" xlink:title="endrun">
<polygon fill="white" stroke="black" points="369.5,-179.617 369.5,-198.617 415.5,-198.617 415.5,-179.617 369.5,-179.617"/>
<text text-anchor="middle" x="392.5" y="-186.617" font-family="Helvetica,sans-Serif" font-size="10.00">endrun</text>
</a>
</g>
</g>
<!-- Node115&#45;&gt;Node127 -->
<g id="edge15" class="edge"><title>Node115&#45;&gt;Node127</title>
<path fill="none" stroke="midnightblue" d="M301.781,-160.706C319.391,-166.282 341.571,-173.306 359.471,-178.974"/>
<polygon fill="midnightblue" stroke="midnightblue" points="358.594,-182.368 369.184,-182.05 360.707,-175.694 358.594,-182.368"/>
</g>
<!-- Node117 -->
<g id="node5" class="node"><title>Node117</title>
<g id="a_node5"><a xlink:href="endrun_8c.html#a6567cd867c5549fb6586e19ccd819764" target="_top" xlink:title="message">
<polygon fill="white" stroke="black" points="500,-65.6169 500,-84.6169 556,-84.6169 556,-65.6169 500,-65.6169"/>
<text text-anchor="middle" x="528" y="-72.6169" font-family="Helvetica,sans-Serif" font-size="10.00">message</text>
</a>
</g>
</g>
<!-- Node116&#45;&gt;Node117 -->
<g id="edge4" class="edge"><title>Node116&#45;&gt;Node117</title>
<path fill="none" stroke="midnightblue" d="M427.188,-103.528C446.263,-98.0982 470.158,-91.2967 489.785,-85.7099"/>
<polygon fill="midnightblue" stroke="midnightblue" points="490.952,-89.0168 499.612,-82.9128 489.036,-82.2843 490.952,-89.0168"/>
</g>
<!-- Node121 -->
<g id="node9" class="node"><title>Node121</title>
<g id="a_node9"><a xlink:href="memory_8c.html#a7d147e0f7a869dd7c832a77fa7374772" target="_top" xlink:title="allocator_get_free_size">
<polygon fill="white" stroke="black" points="469.5,-141.617 469.5,-160.617 586.5,-160.617 586.5,-141.617 469.5,-141.617"/>
<text text-anchor="middle" x="528" y="-148.617" font-family="Helvetica,sans-Serif" font-size="10.00">allocator_get_free_size</text>
</a>
</g>
</g>
<!-- Node116&#45;&gt;Node121 -->
<g id="edge8" class="edge"><title>Node116&#45;&gt;Node121</title>
<path fill="none" stroke="midnightblue" d="M427.188,-122.706C444.263,-127.566 465.2,-133.526 483.482,-138.73"/>
<polygon fill="midnightblue" stroke="midnightblue" points="482.747,-142.159 493.323,-141.531 484.663,-135.427 482.747,-142.159"/>
</g>
<!-- Node122 -->
<g id="node10" class="node"><title>Node122</title>
<g id="a_node10"><a xlink:href="memory_8c.html#ae8ed0c76854687599e00d825e3d1ec4b" target="_top" xlink:title="allocator_get_used_size">
<polygon fill="white" stroke="black" points="467,-103.617 467,-122.617 589,-122.617 589,-103.617 467,-103.617"/>
<text text-anchor="middle" x="528" y="-110.617" font-family="Helvetica,sans-Serif" font-size="10.00">allocator_get_used_size</text>
</a>
</g>
</g>
<!-- Node116&#45;&gt;Node122 -->
<g id="edge9" class="edge"><title>Node116&#45;&gt;Node122</title>
<path fill="none" stroke="midnightblue" d="M431.042,-113.117C439.111,-113.117 447.889,-113.117 456.75,-113.117"/>
<polygon fill="midnightblue" stroke="midnightblue" points="456.755,-116.617 466.755,-113.117 456.755,-109.617 456.755,-116.617"/>
</g>
<!-- Node123 -->
<g id="node11" class="node"><title>Node123</title>
<g id="a_node11"><a xlink:href="memory_8c.html#ad4519ad28c6b5c244e6d82f37f1698f6" target="_top" xlink:title="allocator_iter_start">
<polygon fill="white" stroke="black" points="479.5,-27.6169 479.5,-46.6169 576.5,-46.6169 576.5,-27.6169 479.5,-27.6169"/>
<text text-anchor="middle" x="528" y="-34.6169" font-family="Helvetica,sans-Serif" font-size="10.00">allocator_iter_start</text>
</a>
</g>
</g>
<!-- Node116&#45;&gt;Node123 -->
<g id="edge10" class="edge"><title>Node116&#45;&gt;Node123</title>
<path fill="none" stroke="midnightblue" d="M403.634,-103.337C417.105,-90.8117 442.119,-69.1702 467,-56.1169 471.194,-53.9167 475.688,-51.9169 480.259,-50.1126"/>
<polygon fill="midnightblue" stroke="midnightblue" points="481.483,-53.3921 489.682,-46.6824 479.088,-46.8143 481.483,-53.3921"/>
</g>
<!-- Node124 -->
<g id="node12" class="node"><title>Node124</title>
<g id="a_node12"><a xlink:href="memory_8c.html#a1071a12fb6ee5a98c249cbcd497bfdd0" target="_top" xlink:title="allocator_iter_next">
<polygon fill="white" stroke="black" points="625,-8.61687 625,-27.6169 721,-27.6169 721,-8.61687 625,-8.61687"/>
<text text-anchor="middle" x="673" y="-15.6169" font-family="Helvetica,sans-Serif" font-size="10.00">allocator_iter_next</text>
</a>
</g>
</g>
<!-- Node116&#45;&gt;Node124 -->
<g id="edge14" class="edge"><title>Node116&#45;&gt;Node124</title>
<path fill="none" stroke="midnightblue" d="M397.401,-103.498C406.236,-83.1877 429.933,-36.3046 467,-18.1169 516.251,6.04881 580.514,1.11324 623.856,-6.63994"/>
<polygon fill="midnightblue" stroke="midnightblue" points="623.379,-10.1121 633.858,-8.54541 624.689,-3.23574 623.379,-10.1121"/>
</g>
<!-- Node126 -->
<g id="node14" class="node"><title>Node126</title>
<g id="a_node14"><a xlink:href="memory_8c.html#af219c7066531e1f24d914b86e51406e8" target="_top" xlink:title="allocator_iter_ended">
<polygon fill="white" stroke="black" points="476,-179.617 476,-198.617 580,-198.617 580,-179.617 476,-179.617"/>
<text text-anchor="middle" x="528" y="-186.617" font-family="Helvetica,sans-Serif" font-size="10.00">allocator_iter_ended</text>
</a>
</g>
</g>
<!-- Node116&#45;&gt;Node126 -->
<g id="edge13" class="edge"><title>Node116&#45;&gt;Node126</title>
<path fill="none" stroke="midnightblue" d="M403.634,-122.897C417.105,-135.422 442.119,-157.064 467,-170.117 471.194,-172.317 475.688,-174.317 480.259,-176.121"/>
<polygon fill="midnightblue" stroke="midnightblue" points="479.088,-179.419 489.682,-179.551 481.483,-172.842 479.088,-179.419"/>
</g>
<!-- Node118 -->
<g id="node6" class="node"><title>Node118</title>
<g id="a_node6"><a xlink:href="endrun_8c.html#a7267113a7c0a094743bb565eabc695d1" target="_top" xlink:title="messagev">
<polygon fill="white" stroke="black" points="642,-74.6169 642,-93.6169 704,-93.6169 704,-74.6169 642,-74.6169"/>
<text text-anchor="middle" x="673" y="-81.6169" font-family="Helvetica,sans-Serif" font-size="10.00">messagev</text>
</a>
</g>
</g>
<!-- Node117&#45;&gt;Node118 -->
<g id="edge5" class="edge"><title>Node117&#45;&gt;Node118</title>
<path fill="none" stroke="midnightblue" d="M556.234,-76.8309C577.552,-78.1726 607.525,-80.059 631.632,-81.5762"/>
<polygon fill="midnightblue" stroke="midnightblue" points="631.701,-85.0874 641.901,-82.2225 632.141,-78.1012 631.701,-85.0874"/>
</g>
<!-- Node119 -->
<g id="node7" class="node"><title>Node119</title>
<g id="a_node7"><a xlink:href="endrun_8c.html#a87108946670b4c3afbe846c6726675ff" target="_top" xlink:title="putline">
<polygon fill="white" stroke="black" points="778.5,-60.6169 778.5,-79.6169 823.5,-79.6169 823.5,-60.6169 778.5,-60.6169"/>
<text text-anchor="middle" x="801" y="-67.6169" font-family="Helvetica,sans-Serif" font-size="10.00">putline</text>
</a>
</g>
</g>
<!-- Node118&#45;&gt;Node119 -->
<g id="edge6" class="edge"><title>Node118&#45;&gt;Node119</title>
<path fill="none" stroke="midnightblue" d="M704.18,-80.7635C723.558,-78.6104 748.684,-75.8187 768.344,-73.6342"/>
<polygon fill="midnightblue" stroke="midnightblue" points="768.798,-77.1054 778.35,-72.5224 768.025,-70.1482 768.798,-77.1054"/>
</g>
<!-- Node120 -->
<g id="node8" class="node"><title>Node120</title>
<g id="a_node8"><a xlink:href="endrun_8c.html#a1200f02a595ab7cbe17c9e36ff32af0f" target="_top" xlink:title="show_backtrace">
<polygon fill="white" stroke="black" points="757,-98.6169 757,-117.617 845,-117.617 845,-98.6169 757,-98.6169"/>
<text text-anchor="middle" x="801" y="-105.617" font-family="Helvetica,sans-Serif" font-size="10.00">show_backtrace</text>
</a>
</g>
</g>
<!-- Node118&#45;&gt;Node120 -->
<g id="edge7" class="edge"><title>Node118&#45;&gt;Node120</title>
<path fill="none" stroke="midnightblue" d="M704.18,-89.8655C716.957,-92.2992 732.233,-95.2089 746.794,-97.9824"/>
<polygon fill="midnightblue" stroke="midnightblue" points="746.242,-101.44 756.721,-99.8732 747.552,-94.5638 746.242,-101.44"/>
</g>
<!-- Node123&#45;&gt;Node124 -->
<g id="edge11" class="edge"><title>Node123&#45;&gt;Node124</title>
<path fill="none" stroke="midnightblue" d="M576.617,-30.7901C588.798,-29.1717 602.023,-27.4145 614.637,-25.7385"/>
<polygon fill="midnightblue" stroke="midnightblue" points="615.139,-29.2027 624.591,-24.416 614.217,-22.2636 615.139,-29.2027"/>
</g>
<!-- Node125 -->
<g id="node13" class="node"><title>Node125</title>
<g id="a_node13"><a xlink:href="memory_8c.html#a027cc6371b4b530bd0ab24021475ac98" target="_top" xlink:title="is_header">
<polygon fill="white" stroke="black" points="771.5,-8.61687 771.5,-27.6169 830.5,-27.6169 830.5,-8.61687 771.5,-8.61687"/>
<text text-anchor="middle" x="801" y="-15.6169" font-family="Helvetica,sans-Serif" font-size="10.00">is_header</text>
</a>
</g>
</g>
<!-- Node124&#45;&gt;Node125 -->
<g id="edge12" class="edge"><title>Node124&#45;&gt;Node125</title>
<path fill="none" stroke="midnightblue" d="M721.276,-18.1169C734.369,-18.1169 748.43,-18.1169 760.995,-18.1169"/>
<polygon fill="midnightblue" stroke="midnightblue" points="761.142,-21.617 771.142,-18.1169 761.142,-14.617 761.142,-21.617"/>
</g>
<!-- Node127&#45;&gt;Node118 -->
<g id="edge16" class="edge"><title>Node127&#45;&gt;Node118</title>
<path fill="none" stroke="midnightblue" d="M415.281,-198.698C453.102,-213.783 532.298,-238.395 589,-208.117 630.539,-185.936 654.935,-132.734 665.59,-103.75"/>
<polygon fill="midnightblue" stroke="midnightblue" points="669.022,-104.536 669.008,-93.9416 662.412,-102.233 669.022,-104.536"/>
</g>
</g>
</svg>
