<?xml version="1.0" encoding="UTF-8" standalone="no"?>
<!DOCTYPE svg PUBLIC "-//W3C//DTD SVG 1.1//EN"
 "http://www.w3.org/Graphics/SVG/1.1/DTD/svg11.dtd">
<!-- Generated by graphviz version 2.50.0 (0)
 -->
<!-- Title: allocator_get_used_size Pages: 1 -->
<svg width="755pt" height="104pt"
 viewBox="0.00 0.00 755.00 104.00" xmlns="http://www.w3.org/2000/svg" xmlns:xlink="http://www.w3.org/1999/xlink">
<g id="graph0" class="graph" transform="scale(1 1) rotate(0) translate(4 100)">
<title>allocator_get_used_size</title>
<polygon fill="white" stroke="transparent" points="-4,4 -4,-100 751,-100 751,4 -4,4"/>
<!-- Node1 -->
<g id="node1" class="node">
<title>Node1</title>
<g id="a_node1"><a xlink:title=" ">
<polygon fill="#bfbfbf" stroke="black" points="0,-38.5 0,-57.5 134,-57.5 134,-38.5 0,-38.5"/>
<text text-anchor="middle" x="67" y="-45.5" font-family="Helvetica,sans-Serif" font-size="10.00">allocator_get_used_size</text>
</a>
</g>
</g>
<!-- Node2 -->
<g id="node2" class="node">
<title>Node2</title>
<g id="a_node2"><a xlink:href="memory_8c.html#af219c7066531e1f24d914b86e51406e8" target="_top" xlink:title=" ">
<polygon fill="white" stroke="black" points="170,-76.5 170,-95.5 286,-95.5 286,-76.5 170,-76.5"/>
<text text-anchor="middle" x="228" y="-83.5" font-family="Helvetica,sans-Serif" font-size="10.00">allocator_iter_ended</text>
</a>
</g>
</g>
<!-- Node1&#45;&gt;Node2 -->
<g id="edge1" class="edge">
<title>Node1&#45;&gt;Node2</title>
<path fill="none" stroke="midnightblue" d="M108.12,-57.59C129.1,-62.6 154.98,-68.79 177.23,-74.11"/>
<polygon fill="midnightblue" stroke="midnightblue" points="176.63,-77.56 187.17,-76.48 178.25,-70.75 176.63,-77.56"/>
</g>
<!-- Node3 -->
<g id="node3" class="node">
<title>Node3</title>
<g id="a_node3"><a xlink:href="memory_8c.html#a1071a12fb6ee5a98c249cbcd497bfdd0" target="_top" xlink:title=" ">
<polygon fill="white" stroke="black" points="322,-19.5 322,-38.5 430,-38.5 430,-19.5 322,-19.5"/>
<text text-anchor="middle" x="376" y="-26.5" font-family="Helvetica,sans-Serif" font-size="10.00">allocator_iter_next</text>
</a>
</g>
</g>
<!-- Node1&#45;&gt;Node3 -->
<g id="edge2" class="edge">
<title>Node1&#45;&gt;Node3</title>
<path fill="none" stroke="midnightblue" d="M134.24,-43.9C186.79,-40.65 259.77,-36.13 311.57,-32.93"/>
<polygon fill="midnightblue" stroke="midnightblue" points="311.87,-36.41 321.64,-32.3 311.44,-29.43 311.87,-36.41"/>
</g>
<!-- Node9 -->
<g id="node9" class="node">
<title>Node9</title>
<g id="a_node9"><a xlink:href="memory_8c.html#ad4519ad28c6b5c244e6d82f37f1698f6" target="_top" xlink:title=" ">
<polygon fill="white" stroke="black" points="173.5,-0.5 173.5,-19.5 282.5,-19.5 282.5,-0.5 173.5,-0.5"/>
<text text-anchor="middle" x="228" y="-7.5" font-family="Helvetica,sans-Serif" font-size="10.00">allocator_iter_start</text>
</a>
</g>
</g>
<!-- Node1&#45;&gt;Node9 -->
<g id="edge8" class="edge">
<title>Node1&#45;&gt;Node9</title>
<path fill="none" stroke="midnightblue" d="M108.12,-38.41C129.1,-33.4 154.98,-27.21 177.23,-21.89"/>
<polygon fill="midnightblue" stroke="midnightblue" points="178.25,-25.25 187.17,-19.52 176.63,-18.44 178.25,-25.25"/>
</g>
<!-- Node4 -->
<g id="node4" class="node">
<title>Node4</title>
<g id="a_node4"><a xlink:href="endrun_8c.html#ad963d7efdb9f10f7a2298c8ccd222ab0" target="_top" xlink:title=" ">
<polygon fill="white" stroke="black" points="473,-38.5 473,-57.5 523,-57.5 523,-38.5 473,-38.5"/>
<text text-anchor="middle" x="498" y="-45.5" font-family="Helvetica,sans-Serif" font-size="10.00">endrun</text>
</a>
</g>
</g>
<!-- Node3&#45;&gt;Node4 -->
<g id="edge3" class="edge">
<title>Node3&#45;&gt;Node4</title>
<path fill="none" stroke="midnightblue" d="M430.33,-37.44C441.39,-39.2 452.75,-40.99 462.89,-42.6"/>
<polygon fill="midnightblue" stroke="midnightblue" points="462.53,-46.09 472.96,-44.19 463.63,-39.17 462.53,-46.09"/>
</g>
<!-- Node8 -->
<g id="node8" class="node">
<title>Node8</title>
<g id="a_node8"><a xlink:href="memory_8c.html#a027cc6371b4b530bd0ab24021475ac98" target="_top" xlink:title=" ">
<polygon fill="white" stroke="black" points="466,-0.5 466,-19.5 530,-19.5 530,-0.5 466,-0.5"/>
<text text-anchor="middle" x="498" y="-7.5" font-family="Helvetica,sans-Serif" font-size="10.00">is_header</text>
</a>
</g>
</g>
<!-- Node3&#45;&gt;Node8 -->
<g id="edge7" class="edge">
<title>Node3&#45;&gt;Node8</title>
<path fill="none" stroke="midnightblue" d="M430.33,-20.56C438.87,-19.2 447.59,-17.82 455.79,-16.52"/>
<polygon fill="midnightblue" stroke="midnightblue" points="456.52,-19.95 465.85,-14.93 455.42,-13.04 456.52,-19.95"/>
</g>
<!-- Node5 -->
<g id="node5" class="node">
<title>Node5</title>
<g id="a_node5"><a xlink:href="system_8c.html#a341c8d27bd6c7dde856566810b412b1f" target="_top" xlink:title=" ">
<polygon fill="white" stroke="black" points="574,-57.5 574,-76.5 653,-76.5 653,-57.5 574,-57.5"/>
<text text-anchor="middle" x="613.5" y="-64.5" font-family="Helvetica,sans-Serif" font-size="10.00">MPIU_Tracev</text>
</a>
</g>
</g>
<!-- Node4&#45;&gt;Node5 -->
<g id="edge4" class="edge">
<title>Node4&#45;&gt;Node5</title>
<path fill="none" stroke="midnightblue" d="M523.07,-52.03C534.9,-54.01 549.61,-56.47 563.66,-58.82"/>
<polygon fill="midnightblue" stroke="midnightblue" points="563.29,-62.31 573.73,-60.51 564.44,-55.41 563.29,-62.31"/>
</g>
<!-- Node7 -->
<g id="node7" class="node">
<title>Node7</title>
<g id="a_node7"><a xlink:href="endrun_8c.html#a1200f02a595ab7cbe17c9e36ff32af0f" target="_top" xlink:title=" ">
<polygon fill="white" stroke="black" points="566,-19.5 566,-38.5 661,-38.5 661,-19.5 566,-19.5"/>
<text text-anchor="middle" x="613.5" y="-26.5" font-family="Helvetica,sans-Serif" font-size="10.00">show_backtrace</text>
</a>
</g>
</g>
<!-- Node4&#45;&gt;Node7 -->
<g id="edge6" class="edge">
<title>Node4&#45;&gt;Node7</title>
<path fill="none" stroke="midnightblue" d="M523.07,-43.97C532.63,-42.37 544.07,-40.45 555.53,-38.54"/>
<polygon fill="midnightblue" stroke="midnightblue" points="556.26,-41.96 565.55,-36.86 555.11,-35.06 556.26,-41.96"/>
</g>
<!-- Node6 -->
<g id="node6" class="node">
<title>Node6</title>
<g id="a_node6"><a xlink:href="system_8c.html#a87108946670b4c3afbe846c6726675ff" target="_top" xlink:title=" ">
<polygon fill="white" stroke="black" points="697,-57.5 697,-76.5 747,-76.5 747,-57.5 697,-57.5"/>
<text text-anchor="middle" x="722" y="-64.5" font-family="Helvetica,sans-Serif" font-size="10.00">putline</text>
</a>
</g>
</g>
<!-- Node5&#45;&gt;Node6 -->
<g id="edge5" class="edge">
<title>Node5&#45;&gt;Node6</title>
<path fill="none" stroke="midnightblue" d="M653.25,-67C664.22,-67 676.09,-67 686.77,-67"/>
<polygon fill="midnightblue" stroke="midnightblue" points="686.99,-70.5 696.99,-67 686.99,-63.5 686.99,-70.5"/>
</g>
<!-- Node9&#45;&gt;Node3 -->
<g id="edge9" class="edge">
<title>Node9&#45;&gt;Node3</title>
<path fill="none" stroke="midnightblue" d="M282.54,-16.97C292.08,-18.21 302.1,-19.51 311.88,-20.79"/>
<polygon fill="midnightblue" stroke="midnightblue" points="311.59,-24.28 321.96,-22.1 312.49,-17.34 311.59,-24.28"/>
</g>
</g>
</svg>
