<?xml version="1.0" encoding="UTF-8" standalone="no"?>
<!DOCTYPE svg PUBLIC "-//W3C//DTD SVG 1.1//EN"
 "http://www.w3.org/Graphics/SVG/1.1/DTD/svg11.dtd">
<!-- Generated by graphviz version 2.38.0 (20140413.2041)
 -->
<!-- Title: allocator_iter_ended Pages: 1 -->
<svg width="1147pt" height="230pt"
 viewBox="0.00 0.00 1147.00 229.50" xmlns="http://www.w3.org/2000/svg" xmlns:xlink="http://www.w3.org/1999/xlink">
<g id="graph0" class="graph" transform="scale(1 1) rotate(0) translate(4 225.5)">
<title>allocator_iter_ended</title>
<polygon fill="white" stroke="none" points="-4,4 -4,-225.5 1143,-225.5 1143,4 -4,4"/>
<!-- Node113 -->
<g id="node1" class="node"><title>Node113</title>
<polygon fill="#bfbfbf" stroke="black" points="0,-88 0,-107 104,-107 104,-88 0,-88"/>
<text text-anchor="middle" x="52" y="-95" font-family="Helvetica,sans-Serif" font-size="10.00">allocator_iter_ended</text>
</g>
<!-- Node114 -->
<g id="node2" class="node"><title>Node114</title>
<g id="a_node2"><a xlink:href="memory_8h.html#ac6472b7ca5b76ef02be3795ca8863fae" target="_top" xlink:title="allocator_print">
<polygon fill="white" stroke="black" points="140,-88 140,-107 217,-107 217,-88 140,-88"/>
<text text-anchor="middle" x="178.5" y="-95" font-family="Helvetica,sans-Serif" font-size="10.00">allocator_print</text>
</a>
</g>
</g>
<!-- Node113&#45;&gt;Node114 -->
<g id="edge1" class="edge"><title>Node113&#45;&gt;Node114</title>
<path fill="none" stroke="midnightblue" d="M114.508,-97.5C123.196,-97.5 131.904,-97.5 139.953,-97.5"/>
<polygon fill="midnightblue" stroke="midnightblue" points="114.358,-94.0001 104.358,-97.5 114.358,-101 114.358,-94.0001"/>
</g>
<!-- Node115 -->
<g id="node3" class="node"><title>Node115</title>
<g id="a_node3"><a xlink:href="memory_8c.html#a80b268139c845d6fff8127fdc3fe4a33" target="_top" xlink:title="allocator_alloc_va">
<polygon fill="white" stroke="black" points="266,-164 266,-183 361,-183 361,-164 266,-164"/>
<text text-anchor="middle" x="313.5" y="-171" font-family="Helvetica,sans-Serif" font-size="10.00">allocator_alloc_va</text>
</a>
</g>
</g>
<!-- Node114&#45;&gt;Node115 -->
<g id="edge2" class="edge"><title>Node114&#45;&gt;Node115</title>
<path fill="none" stroke="midnightblue" d="M199.535,-113.605C213.862,-124.63 233.911,-139.082 253,-149.5 263.071,-154.996 274.669,-159.954 284.936,-163.918"/>
<polygon fill="midnightblue" stroke="midnightblue" points="201.445,-110.656 191.413,-107.25 197.132,-116.169 201.445,-110.656"/>
</g>
<!-- Node124 -->
<g id="node12" class="node"><title>Node124</title>
<g id="a_node12"><a xlink:href="memory_8h.html#a9291945c35ab7d144431531867a5c28c" target="_top" xlink:title="allocator_realloc_int">
<polygon fill="white" stroke="black" points="410,-126 410,-145 513,-145 513,-126 410,-126"/>
<text text-anchor="middle" x="461.5" y="-133" font-family="Helvetica,sans-Serif" font-size="10.00">allocator_realloc_int</text>
</a>
</g>
</g>
<!-- Node114&#45;&gt;Node124 -->
<g id="edge14" class="edge"><title>Node114&#45;&gt;Node124</title>
<path fill="none" stroke="midnightblue" d="M221.707,-109.655C231.885,-112.24 242.774,-114.722 253,-116.5 306.104,-125.733 367.685,-130.654 409.885,-133.156"/>
<polygon fill="midnightblue" stroke="midnightblue" points="222.379,-106.213 211.818,-107.059 220.601,-112.984 222.379,-106.213"/>
</g>
<!-- Node125 -->
<g id="node13" class="node"><title>Node125</title>
<g id="a_node13"><a xlink:href="memory_8h.html#ad5c874c536ebf1120a9c656644851c3b" target="_top" xlink:title="allocator_destroy">
<polygon fill="white" stroke="black" points="268,-88 268,-107 359,-107 359,-88 268,-88"/>
<text text-anchor="middle" x="313.5" y="-95" font-family="Helvetica,sans-Serif" font-size="10.00">allocator_destroy</text>
</a>
</g>
</g>
<!-- Node114&#45;&gt;Node125 -->
<g id="edge13" class="edge"><title>Node114&#45;&gt;Node125</title>
<path fill="none" stroke="midnightblue" d="M227.48,-97.5C240.558,-97.5 254.675,-97.5 267.577,-97.5"/>
<polygon fill="midnightblue" stroke="midnightblue" points="227.257,-94.0001 217.257,-97.5 227.257,-101 227.257,-94.0001"/>
</g>
<!-- Node126 -->
<g id="node14" class="node"><title>Node126</title>
<g id="a_node14"><a xlink:href="memory_8h.html#a447d6f87d997bf8d2de6fd9a450715b2" target="_top" xlink:title="allocator_free">
<polygon fill="white" stroke="black" points="276,-50 276,-69 351,-69 351,-50 276,-50"/>
<text text-anchor="middle" x="313.5" y="-57" font-family="Helvetica,sans-Serif" font-size="10.00">allocator_free</text>
</a>
</g>
</g>
<!-- Node114&#45;&gt;Node126 -->
<g id="edge15" class="edge"><title>Node114&#45;&gt;Node126</title>
<path fill="none" stroke="midnightblue" d="M222.867,-85.1094C241.081,-79.9055 261.939,-73.9459 278.949,-69.0859"/>
<polygon fill="midnightblue" stroke="midnightblue" points="221.715,-81.7984 213.062,-87.911 223.638,-88.529 221.715,-81.7984"/>
</g>
<!-- Node127 -->
<g id="node15" class="node"><title>Node127</title>
<g id="a_node15"><a xlink:href="mymalloc_8h.html#a56edf8e035c1a7079a6710db087b2772" target="_top" xlink:title="report_detailed_memory\l_usage">
<polygon fill="white" stroke="black" points="253,-0.5 253,-30.5 374,-30.5 374,-0.5 253,-0.5"/>
<text text-anchor="start" x="261" y="-18.5" font-family="Helvetica,sans-Serif" font-size="10.00">report_detailed_memory</text>
<text text-anchor="middle" x="313.5" y="-7.5" font-family="Helvetica,sans-Serif" font-size="10.00">_usage</text>
</a>
</g>
</g>
<!-- Node114&#45;&gt;Node127 -->
<g id="edge16" class="edge"><title>Node114&#45;&gt;Node127</title>
<path fill="none" stroke="midnightblue" d="M197.931,-80.9951C212.239,-68.7478 232.952,-52.2113 253,-40.5 259.095,-36.9394 265.794,-33.6172 272.43,-30.6318"/>
<polygon fill="midnightblue" stroke="midnightblue" points="195.543,-78.4342 190.301,-87.6416 200.14,-83.7125 195.543,-78.4342"/>
</g>
<!-- Node116 -->
<g id="node4" class="node"><title>Node116</title>
<g id="a_node4"><a xlink:href="memory_8h.html#ab4fb4d508218a19f8846d863af8aeaa7" target="_top" xlink:title="allocator_alloc">
<polygon fill="white" stroke="black" points="422,-164 422,-183 501,-183 501,-164 422,-164"/>
<text text-anchor="middle" x="461.5" y="-171" font-family="Helvetica,sans-Serif" font-size="10.00">allocator_alloc</text>
</a>
</g>
</g>
<!-- Node115&#45;&gt;Node116 -->
<g id="edge3" class="edge"><title>Node115&#45;&gt;Node116</title>
<path fill="none" stroke="midnightblue" d="M371.39,-173.5C388.226,-173.5 406.265,-173.5 421.679,-173.5"/>
<polygon fill="midnightblue" stroke="midnightblue" points="371.097,-170 361.097,-173.5 371.097,-177 371.097,-170"/>
</g>
<!-- Node115&#45;&gt;Node124 -->
<g id="edge12" class="edge"><title>Node115&#45;&gt;Node124</title>
<path fill="none" stroke="midnightblue" d="M361.036,-161.388C381.37,-156.096 404.871,-149.979 423.923,-145.02"/>
<polygon fill="midnightblue" stroke="midnightblue" points="360.138,-158.005 351.342,-163.911 361.901,-164.779 360.138,-158.005"/>
</g>
<!-- Node117 -->
<g id="node5" class="node"><title>Node117</title>
<g id="a_node5"><a xlink:href="memory_8h.html#a98cd4fbdff3bc5f3c2a1f2e0e35821ae" target="_top" xlink:title="allocator_init">
<polygon fill="white" stroke="black" points="566,-183 566,-202 637,-202 637,-183 566,-183"/>
<text text-anchor="middle" x="601.5" y="-190" font-family="Helvetica,sans-Serif" font-size="10.00">allocator_init</text>
</a>
</g>
</g>
<!-- Node116&#45;&gt;Node117 -->
<g id="edge4" class="edge"><title>Node116&#45;&gt;Node117</title>
<path fill="none" stroke="midnightblue" d="M511.331,-180.223C529.3,-182.697 549.27,-185.447 565.748,-187.715"/>
<polygon fill="midnightblue" stroke="midnightblue" points="511.692,-176.74 501.308,-178.843 510.737,-183.674 511.692,-176.74"/>
</g>
<!-- Node123 -->
<g id="node11" class="node"><title>Node123</title>
<g id="a_node11"><a xlink:href="memory_8h.html#a1acd87e450e9db22eb1e2982c5beab6b" target="_top" xlink:title="allocator_malloc_init">
<polygon fill="white" stroke="black" points="549,-145 549,-164 654,-164 654,-145 549,-145"/>
<text text-anchor="middle" x="601.5" y="-152" font-family="Helvetica,sans-Serif" font-size="10.00">allocator_malloc_init</text>
</a>
</g>
</g>
<!-- Node116&#45;&gt;Node123 -->
<g id="edge11" class="edge"><title>Node116&#45;&gt;Node123</title>
<path fill="none" stroke="midnightblue" d="M511.278,-166.784C523.45,-165.108 536.542,-163.306 548.848,-161.612"/>
<polygon fill="midnightblue" stroke="midnightblue" points="510.737,-163.326 501.308,-168.157 511.692,-170.26 510.737,-163.326"/>
</g>
<!-- Node118 -->
<g id="node6" class="node"><title>Node118</title>
<g id="a_node6"><a xlink:href="mymalloc_8h.html#a51e63c63b3d3d87a081c13c792f4bca9" target="_top" xlink:title="mymalloc_init">
<polygon fill="white" stroke="black" points="690,-183 690,-202 767,-202 767,-183 690,-183"/>
<text text-anchor="middle" x="728.5" y="-190" font-family="Helvetica,sans-Serif" font-size="10.00">mymalloc_init</text>
</a>
</g>
</g>
<!-- Node117&#45;&gt;Node118 -->
<g id="edge5" class="edge"><title>Node117&#45;&gt;Node118</title>
<path fill="none" stroke="midnightblue" d="M647.609,-192.5C661.445,-192.5 676.516,-192.5 689.803,-192.5"/>
<polygon fill="midnightblue" stroke="midnightblue" points="647.32,-189 637.319,-192.5 647.319,-196 647.32,-189"/>
</g>
<!-- Node119 -->
<g id="node7" class="node"><title>Node119</title>
<g id="a_node7"><a xlink:href="main_8c.html#a3c04138a5bfe5d72780bb7e82a18e627" target="_top" xlink:title="main">
<polygon fill="white" stroke="black" points="803,-183 803,-202 841,-202 841,-183 803,-183"/>
<text text-anchor="middle" x="822" y="-190" font-family="Helvetica,sans-Serif" font-size="10.00">main</text>
</a>
</g>
</g>
<!-- Node118&#45;&gt;Node119 -->
<g id="edge6" class="edge"><title>Node118&#45;&gt;Node119</title>
<path fill="none" stroke="midnightblue" d="M777.362,-192.5C786.347,-192.5 795.223,-192.5 802.601,-192.5"/>
<polygon fill="midnightblue" stroke="midnightblue" points="777.245,-189 767.245,-192.5 777.245,-196 777.245,-189"/>
</g>
<!-- Node120 -->
<g id="node8" class="node"><title>Node120</title>
<g id="a_node8"><a xlink:href="walltime_8h.html#a76d2135b612766d4d665748454b879d6" target="_top" xlink:title="walltime_report">
<polygon fill="white" stroke="black" points="877,-202 877,-221 960,-221 960,-202 877,-202"/>
<text text-anchor="middle" x="918.5" y="-209" font-family="Helvetica,sans-Serif" font-size="10.00">walltime_report</text>
</a>
</g>
</g>
<!-- Node119&#45;&gt;Node120 -->
<g id="edge7" class="edge"><title>Node119&#45;&gt;Node120</title>
<path fill="none" stroke="midnightblue" d="M851.141,-198.158C859.148,-199.768 868.035,-201.555 876.635,-203.284"/>
<polygon fill="midnightblue" stroke="midnightblue" points="851.714,-194.703 841.221,-196.163 850.334,-201.566 851.714,-194.703"/>
</g>
<!-- Node121 -->
<g id="node9" class="node"><title>Node121</title>
<g id="a_node9"><a xlink:href="run_8c.html#adc59e9ee1517e4e690694a64ab6a59d2" target="_top" xlink:title="write_cpu_log">
<polygon fill="white" stroke="black" points="996,-202 996,-221 1073,-221 1073,-202 996,-202"/>
<text text-anchor="middle" x="1034.5" y="-209" font-family="Helvetica,sans-Serif" font-size="10.00">write_cpu_log</text>
</a>
</g>
</g>
<!-- Node120&#45;&gt;Node121 -->
<g id="edge8" class="edge"><title>Node120&#45;&gt;Node121</title>
<path fill="none" stroke="midnightblue" d="M970.031,-211.5C978.684,-211.5 987.54,-211.5 995.785,-211.5"/>
<polygon fill="midnightblue" stroke="midnightblue" points="970.013,-208 960.013,-211.5 970.013,-215 970.013,-208"/>
</g>
<!-- Node122 -->
<g id="node10" class="node"><title>Node122</title>
<g id="a_node10"><a xlink:href="run_8c.html#a05e0ffe612d44e6d7f3a9ae5b9df56a2" target="_top" xlink:title="run">
<polygon fill="white" stroke="black" points="1109,-183 1109,-202 1139,-202 1139,-183 1109,-183"/>
<text text-anchor="middle" x="1124" y="-190" font-family="Helvetica,sans-Serif" font-size="10.00">run</text>
</a>
</g>
</g>
<!-- Node121&#45;&gt;Node122 -->
<g id="edge9" class="edge"><title>Node121&#45;&gt;Node122</title>
<path fill="none" stroke="midnightblue" d="M1082.92,-201.202C1092.33,-199.16 1101.5,-197.168 1108.7,-195.606"/>
<polygon fill="midnightblue" stroke="midnightblue" points="1082.15,-197.79 1073.12,-203.332 1083.63,-204.63 1082.15,-197.79"/>
</g>
<!-- Node122&#45;&gt;Node119 -->
<g id="edge10" class="edge"><title>Node122&#45;&gt;Node119</title>
<path fill="none" stroke="midnightblue" d="M1098.76,-192.5C1040.39,-192.5 893.064,-192.5 841.315,-192.5"/>
<polygon fill="midnightblue" stroke="midnightblue" points="1098.89,-196 1108.89,-192.5 1098.89,-189 1098.89,-196"/>
</g>
</g>
</svg>
