<?xml version="1.0" encoding="UTF-8" standalone="no"?>
<!DOCTYPE svg PUBLIC "-//W3C//DTD SVG 1.1//EN"
 "http://www.w3.org/Graphics/SVG/1.1/DTD/svg11.dtd">
<!-- Generated by graphviz version 2.50.0 (0)
 -->
<!-- Title: allocator_alloc_va Pages: 1 -->
<svg width="1019pt" height="241pt"
 viewBox="0.00 0.00 1019.00 241.44" xmlns="http://www.w3.org/2000/svg" xmlns:xlink="http://www.w3.org/1999/xlink">
<g id="graph0" class="graph" transform="scale(1 1) rotate(0) translate(4 237.44)">
<title>allocator_alloc_va</title>
<polygon fill="white" stroke="transparent" points="-4,4 -4,-237.44 1015,-237.44 1015,4 -4,4"/>
<!-- Node1 -->
<g id="node1" class="node">
<title>Node1</title>
<g id="a_node1"><a xlink:title=" ">
<polygon fill="#bfbfbf" stroke="black" points="0,-47.5 0,-66.5 105,-66.5 105,-47.5 0,-47.5"/>
<text text-anchor="middle" x="52.5" y="-54.5" font-family="Helvetica,sans-Serif" font-size="10.00">allocator_alloc_va</text>
</a>
</g>
</g>
<!-- Node2 -->
<g id="node2" class="node">
<title>Node2</title>
<g id="a_node2"><a xlink:href="memory_8c.html#ac6472b7ca5b76ef02be3795ca8863fae" target="_top" xlink:title=" ">
<polygon fill="white" stroke="black" points="141,-104.5 141,-123.5 228,-123.5 228,-104.5 141,-104.5"/>
<text text-anchor="middle" x="184.5" y="-111.5" font-family="Helvetica,sans-Serif" font-size="10.00">allocator_print</text>
</a>
</g>
</g>
<!-- Node1&#45;&gt;Node2 -->
<g id="edge1" class="edge">
<title>Node1&#45;&gt;Node2</title>
<path fill="none" stroke="midnightblue" d="M75.26,-66.54C96.35,-75.79 128.56,-89.91 152.36,-100.35"/>
<polygon fill="midnightblue" stroke="midnightblue" points="151.11,-103.62 161.67,-104.43 153.92,-97.21 151.11,-103.62"/>
</g>
<!-- Node7 -->
<g id="node7" class="node">
<title>Node7</title>
<g id="a_node7"><a xlink:href="endrun_8c.html#ad963d7efdb9f10f7a2298c8ccd222ab0" target="_top" xlink:title=" ">
<polygon fill="white" stroke="black" points="737,-28.5 737,-47.5 787,-47.5 787,-28.5 737,-28.5"/>
<text text-anchor="middle" x="762" y="-35.5" font-family="Helvetica,sans-Serif" font-size="10.00">endrun</text>
</a>
</g>
</g>
<!-- Node1&#45;&gt;Node7 -->
<g id="edge18" class="edge">
<title>Node1&#45;&gt;Node7</title>
<path fill="none" stroke="midnightblue" d="M80.98,-47.46C130.24,-31.23 237.12,0 330,0 330,0 330,0 493,0 577.85,0 676.33,-18.9 727,-30.05"/>
<polygon fill="midnightblue" stroke="midnightblue" points="726.25,-33.46 736.77,-32.23 727.78,-26.63 726.25,-33.46"/>
</g>
<!-- Node3 -->
<g id="node3" class="node">
<title>Node3</title>
<g id="a_node3"><a xlink:href="memory_8c.html#a7d147e0f7a869dd7c832a77fa7374772" target="_top" xlink:title=" ">
<polygon fill="white" stroke="black" points="266,-180.5 266,-199.5 396,-199.5 396,-180.5 266,-180.5"/>
<text text-anchor="middle" x="331" y="-187.5" font-family="Helvetica,sans-Serif" font-size="10.00">allocator_get_free_size</text>
</a>
</g>
</g>
<!-- Node2&#45;&gt;Node3 -->
<g id="edge2" class="edge">
<title>Node2&#45;&gt;Node3</title>
<path fill="none" stroke="midnightblue" d="M197.99,-123.63C213.02,-134.89 239.33,-153.56 264,-166 272.07,-170.07 281,-173.79 289.61,-177.03"/>
<polygon fill="midnightblue" stroke="midnightblue" points="288.55,-180.37 299.14,-180.47 290.92,-173.78 288.55,-180.37"/>
</g>
<!-- Node4 -->
<g id="node4" class="node">
<title>Node4</title>
<g id="a_node4"><a xlink:href="memory_8c.html#ae8ed0c76854687599e00d825e3d1ec4b" target="_top" xlink:title=" ">
<polygon fill="white" stroke="black" points="264,-104.5 264,-123.5 398,-123.5 398,-104.5 264,-104.5"/>
<text text-anchor="middle" x="331" y="-111.5" font-family="Helvetica,sans-Serif" font-size="10.00">allocator_get_used_size</text>
</a>
</g>
</g>
<!-- Node2&#45;&gt;Node4 -->
<g id="edge3" class="edge">
<title>Node2&#45;&gt;Node4</title>
<path fill="none" stroke="midnightblue" d="M228.07,-114C236.24,-114 245.02,-114 253.87,-114"/>
<polygon fill="midnightblue" stroke="midnightblue" points="253.88,-117.5 263.88,-114 253.88,-110.5 253.88,-117.5"/>
</g>
<!-- Node5 -->
<g id="node5" class="node">
<title>Node5</title>
<g id="a_node5"><a xlink:href="memory_8c.html#af219c7066531e1f24d914b86e51406e8" target="_top" xlink:title=" ">
<polygon fill="white" stroke="black" points="434,-142.5 434,-161.5 550,-161.5 550,-142.5 434,-142.5"/>
<text text-anchor="middle" x="492" y="-149.5" font-family="Helvetica,sans-Serif" font-size="10.00">allocator_iter_ended</text>
</a>
</g>
</g>
<!-- Node2&#45;&gt;Node5 -->
<g id="edge13" class="edge">
<title>Node2&#45;&gt;Node5</title>
<path fill="none" stroke="midnightblue" d="M220.05,-123.58C233.65,-127.03 249.47,-130.65 264,-133 317.35,-141.64 378.43,-146.47 423.79,-149.09"/>
<polygon fill="midnightblue" stroke="midnightblue" points="423.62,-152.59 433.8,-149.65 424.01,-145.6 423.62,-152.59"/>
</g>
<!-- Node6 -->
<g id="node6" class="node">
<title>Node6</title>
<g id="a_node6"><a xlink:href="memory_8c.html#a1071a12fb6ee5a98c249cbcd497bfdd0" target="_top" xlink:title=" ">
<polygon fill="white" stroke="black" points="586,-66.5 586,-85.5 694,-85.5 694,-66.5 586,-66.5"/>
<text text-anchor="middle" x="640" y="-73.5" font-family="Helvetica,sans-Serif" font-size="10.00">allocator_iter_next</text>
</a>
</g>
</g>
<!-- Node2&#45;&gt;Node6 -->
<g id="edge14" class="edge">
<title>Node2&#45;&gt;Node6</title>
<path fill="none" stroke="midnightblue" d="M201.1,-104.47C216.5,-95.56 241.02,-82.64 264,-76 386.39,-40.66 423.31,-43.63 550,-57 564.02,-58.48 579.09,-61.24 592.76,-64.2"/>
<polygon fill="midnightblue" stroke="midnightblue" points="592.38,-67.7 602.9,-66.49 593.92,-60.88 592.38,-67.7"/>
</g>
<!-- Node12 -->
<g id="node12" class="node">
<title>Node12</title>
<g id="a_node12"><a xlink:href="memory_8c.html#ad4519ad28c6b5c244e6d82f37f1698f6" target="_top" xlink:title=" ">
<polygon fill="white" stroke="black" points="437.5,-66.5 437.5,-85.5 546.5,-85.5 546.5,-66.5 437.5,-66.5"/>
<text text-anchor="middle" x="492" y="-73.5" font-family="Helvetica,sans-Serif" font-size="10.00">allocator_iter_start</text>
</a>
</g>
</g>
<!-- Node2&#45;&gt;Node12 -->
<g id="edge15" class="edge">
<title>Node2&#45;&gt;Node12</title>
<path fill="none" stroke="midnightblue" d="M220.05,-104.42C233.65,-100.97 249.47,-97.35 264,-95 318.62,-86.16 381.35,-81.31 427,-78.72"/>
<polygon fill="midnightblue" stroke="midnightblue" points="427.26,-82.21 437.05,-78.17 426.88,-75.22 427.26,-82.21"/>
</g>
<!-- Node13 -->
<g id="node13" class="node">
<title>Node13</title>
<g id="a_node13"><a xlink:href="endrun_8c.html#a6567cd867c5549fb6586e19ccd819764" target="_top" xlink:title=" ">
<polygon fill="white" stroke="black" points="609.5,-161.5 609.5,-180.5 670.5,-180.5 670.5,-161.5 609.5,-161.5"/>
<text text-anchor="middle" x="640" y="-168.5" font-family="Helvetica,sans-Serif" font-size="10.00">message</text>
</a>
</g>
</g>
<!-- Node2&#45;&gt;Node13 -->
<g id="edge16" class="edge">
<title>Node2&#45;&gt;Node13</title>
<path fill="none" stroke="midnightblue" d="M189.86,-123.64C199.67,-143.99 225.67,-190.95 264,-209 381.13,-264.16 541.19,-211.36 607.87,-184.53"/>
<polygon fill="midnightblue" stroke="midnightblue" points="609.46,-187.66 617.38,-180.62 606.8,-181.19 609.46,-187.66"/>
</g>
<!-- Node4&#45;&gt;Node5 -->
<g id="edge4" class="edge">
<title>Node4&#45;&gt;Node5</title>
<path fill="none" stroke="midnightblue" d="M372.12,-123.59C393.1,-128.6 418.98,-134.79 441.23,-140.11"/>
<polygon fill="midnightblue" stroke="midnightblue" points="440.63,-143.56 451.17,-142.48 442.25,-136.75 440.63,-143.56"/>
</g>
<!-- Node4&#45;&gt;Node6 -->
<g id="edge5" class="edge">
<title>Node4&#45;&gt;Node6</title>
<path fill="none" stroke="midnightblue" d="M398.07,-110.37C441.43,-107.46 499.28,-102.59 550,-95 562.82,-93.08 576.57,-90.44 589.33,-87.74"/>
<polygon fill="midnightblue" stroke="midnightblue" points="590.29,-91.11 599.32,-85.57 588.8,-84.27 590.29,-91.11"/>
</g>
<!-- Node4&#45;&gt;Node12 -->
<g id="edge11" class="edge">
<title>Node4&#45;&gt;Node12</title>
<path fill="none" stroke="midnightblue" d="M372.12,-104.41C393.1,-99.4 418.98,-93.21 441.23,-87.89"/>
<polygon fill="midnightblue" stroke="midnightblue" points="442.25,-91.25 451.17,-85.52 440.63,-84.44 442.25,-91.25"/>
</g>
<!-- Node6&#45;&gt;Node7 -->
<g id="edge6" class="edge">
<title>Node6&#45;&gt;Node7</title>
<path fill="none" stroke="midnightblue" d="M671.28,-66.41C688.23,-61.04 709.41,-54.34 726.93,-48.79"/>
<polygon fill="midnightblue" stroke="midnightblue" points="728.29,-52.03 736.77,-45.67 726.18,-45.35 728.29,-52.03"/>
</g>
<!-- Node11 -->
<g id="node11" class="node">
<title>Node11</title>
<g id="a_node11"><a xlink:href="memory_8c.html#a027cc6371b4b530bd0ab24021475ac98" target="_top" xlink:title=" ">
<polygon fill="white" stroke="black" points="730,-66.5 730,-85.5 794,-85.5 794,-66.5 730,-66.5"/>
<text text-anchor="middle" x="762" y="-73.5" font-family="Helvetica,sans-Serif" font-size="10.00">is_header</text>
</a>
</g>
</g>
<!-- Node6&#45;&gt;Node11 -->
<g id="edge10" class="edge">
<title>Node6&#45;&gt;Node11</title>
<path fill="none" stroke="midnightblue" d="M694.33,-76C702.87,-76 711.59,-76 719.79,-76"/>
<polygon fill="midnightblue" stroke="midnightblue" points="719.85,-79.5 729.85,-76 719.85,-72.5 719.85,-79.5"/>
</g>
<!-- Node8 -->
<g id="node8" class="node">
<title>Node8</title>
<g id="a_node8"><a xlink:href="system_8c.html#a341c8d27bd6c7dde856566810b412b1f" target="_top" xlink:title=" ">
<polygon fill="white" stroke="black" points="838,-85.5 838,-104.5 917,-104.5 917,-85.5 838,-85.5"/>
<text text-anchor="middle" x="877.5" y="-92.5" font-family="Helvetica,sans-Serif" font-size="10.00">MPIU_Tracev</text>
</a>
</g>
</g>
<!-- Node7&#45;&gt;Node8 -->
<g id="edge7" class="edge">
<title>Node7&#45;&gt;Node8</title>
<path fill="none" stroke="midnightblue" d="M782,-47.54C800.17,-56.66 827.78,-70.53 848.48,-80.93"/>
<polygon fill="midnightblue" stroke="midnightblue" points="846.93,-84.07 857.44,-85.43 850.08,-77.81 846.93,-84.07"/>
</g>
<!-- Node10 -->
<g id="node10" class="node">
<title>Node10</title>
<g id="a_node10"><a xlink:href="endrun_8c.html#a1200f02a595ab7cbe17c9e36ff32af0f" target="_top" xlink:title=" ">
<polygon fill="white" stroke="black" points="830,-28.5 830,-47.5 925,-47.5 925,-28.5 830,-28.5"/>
<text text-anchor="middle" x="877.5" y="-35.5" font-family="Helvetica,sans-Serif" font-size="10.00">show_backtrace</text>
</a>
</g>
</g>
<!-- Node7&#45;&gt;Node10 -->
<g id="edge9" class="edge">
<title>Node7&#45;&gt;Node10</title>
<path fill="none" stroke="midnightblue" d="M787.07,-38C796.63,-38 808.07,-38 819.53,-38"/>
<polygon fill="midnightblue" stroke="midnightblue" points="819.55,-41.5 829.55,-38 819.55,-34.5 819.55,-41.5"/>
</g>
<!-- Node9 -->
<g id="node9" class="node">
<title>Node9</title>
<g id="a_node9"><a xlink:href="system_8c.html#a87108946670b4c3afbe846c6726675ff" target="_top" xlink:title=" ">
<polygon fill="white" stroke="black" points="961,-85.5 961,-104.5 1011,-104.5 1011,-85.5 961,-85.5"/>
<text text-anchor="middle" x="986" y="-92.5" font-family="Helvetica,sans-Serif" font-size="10.00">putline</text>
</a>
</g>
</g>
<!-- Node8&#45;&gt;Node9 -->
<g id="edge8" class="edge">
<title>Node8&#45;&gt;Node9</title>
<path fill="none" stroke="midnightblue" d="M917.25,-95C928.22,-95 940.09,-95 950.77,-95"/>
<polygon fill="midnightblue" stroke="midnightblue" points="950.99,-98.5 960.99,-95 950.99,-91.5 950.99,-98.5"/>
</g>
<!-- Node12&#45;&gt;Node6 -->
<g id="edge12" class="edge">
<title>Node12&#45;&gt;Node6</title>
<path fill="none" stroke="midnightblue" d="M546.54,-76C556.08,-76 566.1,-76 575.88,-76"/>
<polygon fill="midnightblue" stroke="midnightblue" points="575.96,-79.5 585.96,-76 575.96,-72.5 575.96,-79.5"/>
</g>
<!-- Node13&#45;&gt;Node8 -->
<g id="edge17" class="edge">
<title>Node13&#45;&gt;Node8</title>
<path fill="none" stroke="midnightblue" d="M670.83,-161.37C713.03,-147.75 790.24,-122.84 837.11,-107.71"/>
<polygon fill="midnightblue" stroke="midnightblue" points="838.47,-110.95 846.92,-104.55 836.32,-104.29 838.47,-110.95"/>
</g>
</g>
</svg>
