<?xml version="1.0" encoding="UTF-8" standalone="no"?>
<!DOCTYPE svg PUBLIC "-//W3C//DTD SVG 1.1//EN"
 "http://www.w3.org/Graphics/SVG/1.1/DTD/svg11.dtd">
<!-- Generated by graphviz version 2.38.0 (20140413.2041)
 -->
<!-- Title: allocator_iter_next Pages: 1 -->
<!--zoomable 1092 -->
<svg id="main" version="1.1" xmlns="http://www.w3.org/2000/svg" xmlns:xlink="http://www.w3.org/1999/xlink" xml:space="preserve" onload="init(evt)">
<style type="text/css"><![CDATA[
.edge:hover path { stroke: red; }
.edge:hover polygon { stroke: red; fill: red; }
]]></style>
<script type="text/javascript"><![CDATA[
var edges = document.getElementsByTagName('g');
if (edges && edges.length) {
  for (var i=0;i<edges.length;i++) {
    if (edges[i].id.substr(0,4)=='edge') {
      edges[i].setAttribute('class','edge');
    }
  }
}
]]></script>
        <defs>
                <circle id="rim" cx="0" cy="0" r="7"/>
                <circle id="rim2" cx="0" cy="0" r="3.5"/>
                <g id="zoomPlus">
                        <use xlink:href="#rim" fill="#404040">
                                <set attributeName="fill" to="#808080" begin="zoomplus.mouseover" end="zoomplus.mouseout"/>
                        </use>
                        <path d="M-4,0h8M0,-4v8" fill="none" stroke="white" stroke-width="1.5" pointer-events="none"/>
                </g>
                <g id="zoomMin">
                        <use xlink:href="#rim" fill="#404040">
                                <set attributeName="fill" to="#808080" begin="zoomminus.mouseover" end="zoomminus.mouseout"/>
                        </use>
                        <path d="M-4,0h8" fill="none" stroke="white" stroke-width="1.5" pointer-events="none"/>
                </g>
                <g id="dirArrow">
                        <path fill="none" stroke="white" stroke-width="1.5" d="M0,-3.0v7 M-2.5,-0.5L0,-3.0L2.5,-0.5"/>
                </g>
               <g id="resetDef">
                       <use xlink:href="#rim2" fill="#404040">
                               <set attributeName="fill" to="#808080" begin="reset.mouseover" end="reset.mouseout"/>
                       </use>
               </g>
        </defs>

<script type="text/javascript">
var viewWidth = 1052;
var viewHeight = 1092;
var sectionId = 'dynsection-15';
</script>
<script xlink:href="svgpan.js"/>
<svg id="graph" class="graph">
<g id="viewport">
<title>allocator_iter_next</title>
<polygon fill="white" stroke="none" points="-4,4 -4,-1088.31 1048.27,-1088.31 1048.27,4 -4,4"/>
<!-- Node153 -->
<g id="node1" class="node"><title>Node153</title>
<polygon fill="#bfbfbf" stroke="black" points="324.229,-0.5 324.229,-19.5 420.229,-19.5 420.229,-0.5 324.229,-0.5"/>
<text text-anchor="middle" x="372.229" y="-7.5" font-family="Helvetica,sans-Serif" font-size="10.00">allocator_iter_next</text>
</g>
<!-- Node154 -->
<g id="node2" class="node"><title>Node154</title>
<g id="a_node2"><a xlink:href="memory_8h.html#ad4519ad28c6b5c244e6d82f37f1698f6" target="_top" xlink:title="allocator_iter_start">
<polygon fill="white" stroke="black" points="764.58,-0.5 764.58,-19.5 861.58,-19.5 861.58,-0.5 764.58,-0.5"/>
<text text-anchor="middle" x="813.08" y="-7.5" font-family="Helvetica,sans-Serif" font-size="10.00">allocator_iter_start</text>
</a>
</g>
</g>
<!-- Node153&#45;&gt;Node154 -->
<g id="edge1" class="edge"><title>Node153&#45;&gt;Node154</title>
<path fill="none" stroke="midnightblue" d="M430.293,-10C517.996,-10 682.678,-10 764.45,-10"/>
<polygon fill="midnightblue" stroke="midnightblue" points="430.247,-6.5001 420.247,-10 430.247,-13.5001 430.247,-6.5001"/>
</g>
<!-- Node155 -->
<g id="node3" class="node"><title>Node155</title>
<g id="a_node3"><a xlink:href="memory_8h.html#ac6472b7ca5b76ef02be3795ca8863fae" target="_top" xlink:title="allocator_print">
<polygon fill="white" stroke="black" points="88.5193,-339.782 88.5193,-358.782 165.519,-358.782 165.519,-339.782 88.5193,-339.782"/>
<text text-anchor="middle" x="127.019" y="-346.782" font-family="Helvetica,sans-Serif" font-size="10.00">allocator_print</text>
</a>
</g>
</g>
<!-- Node153&#45;&gt;Node155 -->
<g id="edge18" class="edge"><title>Node153&#45;&gt;Node155</title>
<path fill="none" stroke="midnightblue" d="M359.059,-28.2223C314.071,-90.4702 167.414,-293.39 133.888,-339.778"/>
<polygon fill="midnightblue" stroke="midnightblue" points="362.134,-29.9432 365.155,-19.7882 356.46,-25.8428 362.134,-29.9432"/>
</g>
<!-- Node154&#45;&gt;Node155 -->
<g id="edge2" class="edge"><title>Node154&#45;&gt;Node155</title>
<path fill="none" stroke="midnightblue" d="M784.397,-24.185C669.265,-81.1218 242.297,-292.273 146.277,-339.758"/>
<polygon fill="midnightblue" stroke="midnightblue" points="786.241,-27.1778 793.653,-19.6075 783.138,-20.9032 786.241,-27.1778"/>
</g>
<!-- Node156 -->
<g id="node4" class="node"><title>Node156</title>
<g id="a_node4"><a xlink:href="memory_8c.html#a80b268139c845d6fff8127fdc3fe4a33" target="_top" xlink:title="allocator_alloc_va">
<polygon fill="white" stroke="black" points="113.155,-532.655 113.155,-551.655 208.155,-551.655 208.155,-532.655 113.155,-532.655"/>
<text text-anchor="middle" x="160.655" y="-539.655" font-family="Helvetica,sans-Serif" font-size="10.00">allocator_alloc_va</text>
</a>
</g>
</g>
<!-- Node155&#45;&gt;Node156 -->
<g id="edge3" class="edge"><title>Node155&#45;&gt;Node156</title>
<path fill="none" stroke="midnightblue" d="M130.437,-368.881C137.552,-409.679 153.728,-502.437 158.977,-532.532"/>
<polygon fill="midnightblue" stroke="midnightblue" points="133.853,-368.097 128.687,-358.847 126.957,-369.299 133.853,-368.097"/>
</g>
<!-- Node165 -->
<g id="node13" class="node"><title>Node165</title>
<g id="a_node13"><a xlink:href="memory_8h.html#a9291945c35ab7d144431531867a5c28c" target="_top" xlink:title="allocator_realloc_int">
<polygon fill="white" stroke="black" points="734.027,-998.29 734.027,-1017.29 837.027,-1017.29 837.027,-998.29 734.027,-998.29"/>
<text text-anchor="middle" x="785.527" y="-1005.29" font-family="Helvetica,sans-Serif" font-size="10.00">allocator_realloc_int</text>
</a>
</g>
</g>
<!-- Node155&#45;&gt;Node165 -->
<g id="edge15" class="edge"><title>Node155&#45;&gt;Node165</title>
<path fill="none" stroke="midnightblue" d="M143.902,-366.164C238.574,-460.837 701.904,-924.166 775.63,-997.893"/>
<polygon fill="midnightblue" stroke="midnightblue" points="146.128,-363.441 136.582,-358.845 141.178,-368.391 146.128,-363.441"/>
</g>
<!-- Node166 -->
<g id="node14" class="node"><title>Node166</title>
<g id="a_node14"><a xlink:href="memory_8h.html#ad5c874c536ebf1120a9c656644851c3b" target="_top" xlink:title="allocator_destroy">
<polygon fill="white" stroke="black" points="326.729,-1064.81 326.729,-1083.81 417.729,-1083.81 417.729,-1064.81 326.729,-1064.81"/>
<text text-anchor="middle" x="372.229" y="-1071.81" font-family="Helvetica,sans-Serif" font-size="10.00">allocator_destroy</text>
</a>
</g>
</g>
<!-- Node155&#45;&gt;Node166 -->
<g id="edge14" class="edge"><title>Node155&#45;&gt;Node166</title>
<path fill="none" stroke="midnightblue" d="M133.606,-368.757C169.713,-475.519 342.958,-987.763 368.96,-1064.64"/>
<polygon fill="midnightblue" stroke="midnightblue" points="136.82,-367.335 130.3,-358.983 130.189,-369.577 136.82,-367.335"/>
</g>
<!-- Node167 -->
<g id="node15" class="node"><title>Node167</title>
<g id="a_node15"><a xlink:href="memory_8h.html#a447d6f87d997bf8d2de6fd9a450715b2" target="_top" xlink:title="allocator_free">
<polygon fill="white" stroke="black" points="23,-753.08 23,-772.08 98,-772.08 98,-753.08 23,-753.08"/>
<text text-anchor="middle" x="60.5" y="-760.08" font-family="Helvetica,sans-Serif" font-size="10.00">allocator_free</text>
</a>
</g>
</g>
<!-- Node155&#45;&gt;Node167 -->
<g id="edge16" class="edge"><title>Node155&#45;&gt;Node167</title>
<path fill="none" stroke="midnightblue" d="M123.787,-369.362C111.855,-443.499 70.5316,-700.252 62.0347,-753.045"/>
<polygon fill="midnightblue" stroke="midnightblue" points="127.307,-369.52 125.441,-359.091 120.396,-368.408 127.307,-369.52"/>
</g>
<!-- Node168 -->
<g id="node16" class="node"><title>Node168</title>
<g id="a_node16"><a xlink:href="mymalloc_8h.html#a56edf8e035c1a7079a6710db087b2772" target="_top" xlink:title="report_detailed_memory\l_usage">
<polygon fill="white" stroke="black" points="-7.10543e-15,-306.729 -7.10543e-15,-336.729 121,-336.729 121,-306.729 -7.10543e-15,-306.729"/>
<text text-anchor="start" x="8" y="-324.729" font-family="Helvetica,sans-Serif" font-size="10.00">report_detailed_memory</text>
<text text-anchor="middle" x="60.5" y="-313.729" font-family="Helvetica,sans-Serif" font-size="10.00">_usage</text>
</a>
</g>
</g>
<!-- Node155&#45;&gt;Node168 -->
<g id="edge17" class="edge"><title>Node155&#45;&gt;Node168</title>
<path fill="none" stroke="midnightblue" d="M97.2932,-336.969C97.1474,-336.909 97.0015,-336.848 96.8555,-336.788"/>
<polygon fill="midnightblue" stroke="midnightblue" points="93.1759,-339.052 103.754,-339.645 95.8547,-332.585 93.1759,-339.052"/>
</g>
<!-- Node157 -->
<g id="node5" class="node"><title>Node157</title>
<g id="a_node5"><a xlink:href="memory_8h.html#ab4fb4d508218a19f8846d863af8aeaa7" target="_top" xlink:title="allocator_alloc">
<polygon fill="white" stroke="black" points="220.558,-670.421 220.558,-689.421 299.558,-689.421 299.558,-670.421 220.558,-670.421"/>
<text text-anchor="middle" x="260.058" y="-677.421" font-family="Helvetica,sans-Serif" font-size="10.00">allocator_alloc</text>
</a>
</g>
</g>
<!-- Node156&#45;&gt;Node157 -->
<g id="edge4" class="edge"><title>Node156&#45;&gt;Node157</title>
<path fill="none" stroke="midnightblue" d="M173.709,-560.247C194.983,-589.731 236.417,-647.156 252.974,-670.103"/>
<polygon fill="midnightblue" stroke="midnightblue" points="176.493,-558.124 167.803,-552.062 170.816,-562.22 176.493,-558.124"/>
</g>
<!-- Node156&#45;&gt;Node165 -->
<g id="edge13" class="edge"><title>Node156&#45;&gt;Node165</title>
<path fill="none" stroke="midnightblue" d="M181.698,-557.836C280.137,-631.189 693.704,-939.366 772.521,-998.098"/>
<polygon fill="midnightblue" stroke="midnightblue" points="183.53,-554.836 173.42,-551.667 179.347,-560.449 183.53,-554.836"/>
</g>
<!-- Node158 -->
<g id="node6" class="node"><title>Node158</title>
<g id="a_node6"><a xlink:href="memory_8h.html#a98cd4fbdff3bc5f3c2a1f2e0e35821ae" target="_top" xlink:title="allocator_init">
<polygon fill="white" stroke="black" points="291.077,-642.867 291.077,-661.867 362.077,-661.867 362.077,-642.867 291.077,-642.867"/>
<text text-anchor="middle" x="326.577" y="-649.867" font-family="Helvetica,sans-Serif" font-size="10.00">allocator_init</text>
</a>
</g>
</g>
<!-- Node157&#45;&gt;Node158 -->
<g id="edge5" class="edge"><title>Node157&#45;&gt;Node158</title>
<path fill="none" stroke="midnightblue" d="M292.636,-666.426C296.206,-664.948 299.786,-663.465 303.213,-662.045"/>
<polygon fill="midnightblue" stroke="midnightblue" points="291.223,-663.223 283.323,-670.284 293.901,-669.691 291.223,-663.223"/>
</g>
<!-- Node164 -->
<g id="node12" class="node"><title>Node164</title>
<g id="a_node12"><a xlink:href="memory_8h.html#a1acd87e450e9db22eb1e2982c5beab6b" target="_top" xlink:title="allocator_malloc_init">
<polygon fill="white" stroke="black" points="939.271,-697.974 939.271,-716.974 1044.27,-716.974 1044.27,-697.974 939.271,-697.974"/>
<text text-anchor="middle" x="991.771" y="-704.974" font-family="Helvetica,sans-Serif" font-size="10.00">allocator_malloc_init</text>
</a>
</g>
</g>
<!-- Node157&#45;&gt;Node164 -->
<g id="edge12" class="edge"><title>Node157&#45;&gt;Node164</title>
<path fill="none" stroke="midnightblue" d="M309.927,-681.799C442.621,-686.795 803.463,-700.383 939.199,-705.494"/>
<polygon fill="midnightblue" stroke="midnightblue" points="309.782,-678.291 299.657,-681.412 309.519,-685.286 309.782,-678.291"/>
</g>
<!-- Node159 -->
<g id="node7" class="node"><title>Node159</title>
<g id="a_node7"><a xlink:href="mymalloc_8h.html#a51e63c63b3d3d87a081c13c792f4bca9" target="_top" xlink:title="mymalloc_init">
<polygon fill="white" stroke="black" points="354.597,-615.314 354.597,-634.314 431.597,-634.314 431.597,-615.314 354.597,-615.314"/>
<text text-anchor="middle" x="393.097" y="-622.314" font-family="Helvetica,sans-Serif" font-size="10.00">mymalloc_init</text>
</a>
</g>
</g>
<!-- Node158&#45;&gt;Node159 -->
<g id="edge6" class="edge"><title>Node158&#45;&gt;Node159</title>
<path fill="none" stroke="midnightblue" d="M359.155,-638.873C362.725,-637.395 366.306,-635.911 369.732,-634.492"/>
<polygon fill="midnightblue" stroke="midnightblue" points="357.742,-635.67 349.843,-642.731 360.421,-642.137 357.742,-635.67"/>
</g>
<!-- Node160 -->
<g id="node8" class="node"><title>Node160</title>
<g id="a_node8"><a xlink:href="main_8c.html#a3c04138a5bfe5d72780bb7e82a18e627" target="_top" xlink:title="main">
<polygon fill="white" stroke="black" points="440.616,-587.761 440.616,-606.761 478.616,-606.761 478.616,-587.761 440.616,-587.761"/>
<text text-anchor="middle" x="459.616" y="-594.761" font-family="Helvetica,sans-Serif" font-size="10.00">main</text>
</a>
</g>
</g>
<!-- Node159&#45;&gt;Node160 -->
<g id="edge7" class="edge"><title>Node159&#45;&gt;Node160</title>
<path fill="none" stroke="midnightblue" d="M425.748,-611.29C430.7,-609.238 435.67,-607.18 440.219,-605.295"/>
<polygon fill="midnightblue" stroke="midnightblue" points="424.261,-608.117 416.362,-615.177 426.94,-614.584 424.261,-608.117"/>
</g>
<!-- Node161 -->
<g id="node9" class="node"><title>Node161</title>
<g id="a_node9"><a xlink:href="walltime_8h.html#a76d2135b612766d4d665748454b879d6" target="_top" xlink:title="walltime_report">
<polygon fill="white" stroke="black" points="617.674,-505.101 617.674,-524.101 700.674,-524.101 700.674,-505.101 617.674,-505.101"/>
<text text-anchor="middle" x="659.174" y="-512.101" font-family="Helvetica,sans-Serif" font-size="10.00">walltime_report</text>
</a>
</g>
</g>
<!-- Node160&#45;&gt;Node161 -->
<g id="edge8" class="edge"><title>Node160&#45;&gt;Node161</title>
<path fill="none" stroke="midnightblue" d="M488.156,-585.439C527.996,-568.937 599.499,-539.319 636.145,-524.14"/>
<polygon fill="midnightblue" stroke="midnightblue" points="486.65,-582.275 478.75,-589.335 489.329,-588.742 486.65,-582.275"/>
</g>
<!-- Node162 -->
<g id="node10" class="node"><title>Node162</title>
<g id="a_node10"><a xlink:href="run_8c.html#adc59e9ee1517e4e690694a64ab6a59d2" target="_top" xlink:title="write_cpu_log">
<polygon fill="white" stroke="black" points="554.155,-532.655 554.155,-551.655 631.155,-551.655 631.155,-532.655 554.155,-532.655"/>
<text text-anchor="middle" x="592.655" y="-539.655" font-family="Helvetica,sans-Serif" font-size="10.00">write_cpu_log</text>
</a>
</g>
</g>
<!-- Node161&#45;&gt;Node162 -->
<g id="edge9" class="edge"><title>Node161&#45;&gt;Node162</title>
<path fill="none" stroke="midnightblue" d="M626.596,-528.096C623.026,-529.574 619.446,-531.057 616.019,-532.477"/>
<polygon fill="midnightblue" stroke="midnightblue" points="628.009,-531.299 635.909,-524.238 625.33,-524.831 628.009,-531.299"/>
</g>
<!-- Node163 -->
<g id="node11" class="node"><title>Node163</title>
<g id="a_node11"><a xlink:href="run_8c.html#a05e0ffe612d44e6d7f3a9ae5b9df56a2" target="_top" xlink:title="run">
<polygon fill="white" stroke="black" points="511.135,-560.208 511.135,-579.208 541.135,-579.208 541.135,-560.208 511.135,-560.208"/>
<text text-anchor="middle" x="526.135" y="-567.208" font-family="Helvetica,sans-Serif" font-size="10.00">run</text>
</a>
</g>
</g>
<!-- Node162&#45;&gt;Node163 -->
<g id="edge10" class="edge"><title>Node162&#45;&gt;Node163</title>
<path fill="none" stroke="midnightblue" d="M559.989,-555.685C553.478,-558.382 546.938,-561.091 541.365,-563.4"/>
<polygon fill="midnightblue" stroke="midnightblue" points="561.49,-558.852 569.389,-551.791 558.811,-552.385 561.49,-558.852"/>
</g>
<!-- Node163&#45;&gt;Node160 -->
<g id="edge11" class="edge"><title>Node163&#45;&gt;Node160</title>
<path fill="none" stroke="midnightblue" d="M501.698,-579.83C494.2,-582.936 486.058,-586.308 478.951,-589.252"/>
<polygon fill="midnightblue" stroke="midnightblue" points="503.142,-583.021 511.041,-575.96 500.463,-576.553 503.142,-583.021"/>
</g>
</g>
</svg>
        <g id="navigator" transform="translate(0 0)" fill="#404254">
                <rect fill="#f2f5e9" fill-opacity="0.5" stroke="#606060" stroke-width=".5" x="0" y="0" width="60" height="60"/>
                <use id="zoomplus" xlink:href="#zoomPlus" x="17" y="9" onmousedown="handleZoom(evt,'in')"/>
                <use id="zoomminus" xlink:href="#zoomMin" x="42" y="9" onmousedown="handleZoom(evt,'out')"/>
                <use id="reset" xlink:href="#resetDef" x="30" y="36" onmousedown="handleReset()"/>
                <g id="arrowUp" xlink:href="#dirArrow" transform="translate(30 24)" onmousedown="handlePan(0,-1)">
                  <use xlink:href="#rim" fill="#404040">
                        <set attributeName="fill" to="#808080" begin="arrowUp.mouseover" end="arrowUp.mouseout"/>
                  </use>
                  <path fill="none" stroke="white" stroke-width="1.5" d="M0,-3.0v7 M-2.5,-0.5L0,-3.0L2.5,-0.5"/>
                </g>
                <g id="arrowRight" xlink:href="#dirArrow" transform="rotate(90) translate(36 -43)" onmousedown="handlePan(1,0)">
                  <use xlink:href="#rim" fill="#404040">
                        <set attributeName="fill" to="#808080" begin="arrowRight.mouseover" end="arrowRight.mouseout"/>
                  </use>
                  <path fill="none" stroke="white" stroke-width="1.5" d="M0,-3.0v7 M-2.5,-0.5L0,-3.0L2.5,-0.5"/>
                </g>
                <g id="arrowDown" xlink:href="#dirArrow" transform="rotate(180) translate(-30 -48)" onmousedown="handlePan(0,1)">
                  <use xlink:href="#rim" fill="#404040">
                        <set attributeName="fill" to="#808080" begin="arrowDown.mouseover" end="arrowDown.mouseout"/>
                  </use>
                  <path fill="none" stroke="white" stroke-width="1.5" d="M0,-3.0v7 M-2.5,-0.5L0,-3.0L2.5,-0.5"/>
                </g>
                <g id="arrowLeft" xlink:href="#dirArrow" transform="rotate(270) translate(-36 17)" onmousedown="handlePan(-1,0)">
                  <use xlink:href="#rim" fill="#404040">
                        <set attributeName="fill" to="#808080" begin="arrowLeft.mouseover" end="arrowLeft.mouseout"/>
                  </use>
                  <path fill="none" stroke="white" stroke-width="1.5" d="M0,-3.0v7 M-2.5,-0.5L0,-3.0L2.5,-0.5"/>
                </g>
        </g>
        <svg viewBox="0 0 15 15" width="100%" height="30px" preserveAspectRatio="xMaxYMin meet">
         <g id="arrow_out" transform="scale(0.3 0.3)">
          <a xlink:href="memory_8c_a1071a12fb6ee5a98c249cbcd497bfdd0_icgraph_org.svg" target="_base">
           <rect id="button" ry="5" rx="5" y="6" x="6" height="38" width="38"
                fill="#f2f5e9" fill-opacity="0.5" stroke="#606060" stroke-width="1.0"/>
           <path id="arrow"
             d="M 11.500037,31.436501 C 11.940474,20.09759 22.043105,11.32322 32.158766,21.979434 L 37.068811,17.246167 C 37.068811,17.246167 37.088388,32 37.088388,32 L 22.160133,31.978069 C 22.160133,31.978069 26.997745,27.140456 26.997745,27.140456 C 18.528582,18.264221 13.291696,25.230495 11.500037,31.436501 z"
             style="fill:#404040;"/>
          </a>
         </g>
        </svg>
</svg>
