<?xml version="1.0" encoding="UTF-8" standalone="no"?>
<!DOCTYPE svg PUBLIC "-//W3C//DTD SVG 1.1//EN"
 "http://www.w3.org/Graphics/SVG/1.1/DTD/svg11.dtd">
<!-- Generated by graphviz version 2.38.0 (20140413.2041)
 -->
<!-- Title: allocator_iter_start Pages: 1 -->
<svg width="332pt" height="28pt"
 viewBox="0.00 0.00 332.00 28.00" xmlns="http://www.w3.org/2000/svg" xmlns:xlink="http://www.w3.org/1999/xlink">
<g id="graph0" class="graph" transform="scale(1 1) rotate(0) translate(4 24)">
<title>allocator_iter_start</title>
<polygon fill="white" stroke="none" points="-4,4 -4,-24 328,-24 328,4 -4,4"/>
<!-- Node146 -->
<g id="node1" class="node"><title>Node146</title>
<polygon fill="#bfbfbf" stroke="black" points="0,-0.5 0,-19.5 97,-19.5 97,-0.5 0,-0.5"/>
<text text-anchor="middle" x="48.5" y="-7.5" font-family="Helvetica,sans-Serif" font-size="10.00">allocator_iter_start</text>
</g>
<!-- Node147 -->
<g id="node2" class="node"><title>Node147</title>
<g id="a_node2"><a xlink:href="memory_8c.html#a1071a12fb6ee5a98c249cbcd497bfdd0" target="_top" xlink:title="allocator_iter_next">
<polygon fill="white" stroke="black" points="133,-0.5 133,-19.5 229,-19.5 229,-0.5 133,-0.5"/>
<text text-anchor="middle" x="181" y="-7.5" font-family="Helvetica,sans-Serif" font-size="10.00">allocator_iter_next</text>
</a>
</g>
</g>
<!-- Node146&#45;&gt;Node147 -->
<g id="edge1" class="edge"><title>Node146&#45;&gt;Node147</title>
<path fill="none" stroke="midnightblue" d="M97.3524,-10C105.524,-10 114.087,-10 122.478,-10"/>
<polygon fill="midnightblue" stroke="midnightblue" points="122.59,-13.5001 132.589,-10 122.589,-6.5001 122.59,-13.5001"/>
</g>
<!-- Node148 -->
<g id="node3" class="node"><title>Node148</title>
<g id="a_node3"><a xlink:href="memory_8c.html#a027cc6371b4b530bd0ab24021475ac98" target="_top" xlink:title="is_header">
<polygon fill="white" stroke="black" points="265,-0.5 265,-19.5 324,-19.5 324,-0.5 265,-0.5"/>
<text text-anchor="middle" x="294.5" y="-7.5" font-family="Helvetica,sans-Serif" font-size="10.00">is_header</text>
</a>
</g>
</g>
<!-- Node147&#45;&gt;Node148 -->
<g id="edge2" class="edge"><title>Node147&#45;&gt;Node148</title>
<path fill="none" stroke="midnightblue" d="M229.286,-10C237.8,-10 246.583,-10 254.816,-10"/>
<polygon fill="midnightblue" stroke="midnightblue" points="254.89,-13.5001 264.89,-10 254.89,-6.5001 254.89,-13.5001"/>
</g>
</g>
</svg>
