<?xml version="1.0" encoding="UTF-8" standalone="no"?>
<!DOCTYPE svg PUBLIC "-//W3C//DTD SVG 1.1//EN"
 "http://www.w3.org/Graphics/SVG/1.1/DTD/svg11.dtd">
<!-- Generated by graphviz version 2.50.0 (0)
 -->
<!-- Title: find_mass_bin_limits Pages: 1 -->
<svg width="362pt" height="47pt"
 viewBox="0.00 0.00 362.00 47.00" xmlns="http://www.w3.org/2000/svg" xmlns:xlink="http://www.w3.org/1999/xlink">
<g id="graph0" class="graph" transform="scale(1 1) rotate(0) translate(4 43)">
<title>find_mass_bin_limits</title>
<polygon fill="white" stroke="transparent" points="-4,4 -4,-43 358,-43 358,4 -4,4"/>
<!-- Node1 -->
<g id="node1" class="node">
<title>Node1</title>
<g id="a_node1"><a xlink:title=" ">
<polygon fill="#bfbfbf" stroke="black" points="0,-0.5 0,-19.5 119,-19.5 119,-0.5 0,-0.5"/>
<text text-anchor="middle" x="59.5" y="-7.5" font-family="Helvetica,sans-Serif" font-size="10.00">find_mass_bin_limits</text>
</a>
</g>
</g>
<!-- Node2 -->
<g id="node2" class="node">
<title>Node2</title>
<g id="a_node2"><a xlink:href="metal__return_8c.html#a4aea3dd136365503eba1b3189dc8a453" target="_top" xlink:title=" ">
<polygon fill="white" stroke="black" points="155,-19.5 155,-38.5 241,-38.5 241,-19.5 155,-19.5"/>
<text text-anchor="middle" x="198" y="-26.5" font-family="Helvetica,sans-Serif" font-size="10.00">do_rootfinding</text>
</a>
</g>
</g>
<!-- Node1&#45;&gt;Node2 -->
<g id="edge1" class="edge">
<title>Node1&#45;&gt;Node2</title>
<path fill="none" stroke="midnightblue" d="M119.18,-18.17C127.71,-19.35 136.44,-20.57 144.83,-21.74"/>
<polygon fill="midnightblue" stroke="midnightblue" points="144.46,-25.22 154.85,-23.13 145.43,-18.29 144.46,-25.22"/>
</g>
<!-- Node3 -->
<g id="node3" class="node">
<title>Node3</title>
<g id="a_node3"><a xlink:href="metal__return_8c.html#a63f7c8d874ef7fd16f7fed060127acef" target="_top" xlink:title=" ">
<polygon fill="white" stroke="black" points="277,-0.5 277,-19.5 354,-19.5 354,-0.5 277,-0.5"/>
<text text-anchor="middle" x="315.5" y="-7.5" font-family="Helvetica,sans-Serif" font-size="10.00">massendlife</text>
</a>
</g>
</g>
<!-- Node1&#45;&gt;Node3 -->
<g id="edge3" class="edge">
<title>Node1&#45;&gt;Node3</title>
<path fill="none" stroke="midnightblue" d="M119.09,-10C163.8,-10 224.62,-10 266.48,-10"/>
<polygon fill="midnightblue" stroke="midnightblue" points="266.69,-13.5 276.69,-10 266.69,-6.5 266.69,-13.5"/>
</g>
<!-- Node2&#45;&gt;Node3 -->
<g id="edge2" class="edge">
<title>Node2&#45;&gt;Node3</title>
<path fill="none" stroke="midnightblue" d="M241.02,-22.09C249.46,-20.7 258.38,-19.23 266.99,-17.81"/>
<polygon fill="midnightblue" stroke="midnightblue" points="267.61,-21.26 276.91,-16.18 266.47,-14.35 267.61,-21.26"/>
</g>
</g>
</svg>
