<?xml version="1.0" encoding="UTF-8" standalone="no"?>
<!DOCTYPE svg PUBLIC "-//W3C//DTD SVG 1.1//EN"
 "http://www.w3.org/Graphics/SVG/1.1/DTD/svg11.dtd">
<!-- Generated by graphviz version 2.50.0 (0)
 -->
<!-- Title: compute_snii_yield Pages: 1 -->
<svg width="634pt" height="104pt"
 viewBox="0.00 0.00 634.00 104.00" xmlns="http://www.w3.org/2000/svg" xmlns:xlink="http://www.w3.org/1999/xlink">
<g id="graph0" class="graph" transform="scale(1 1) rotate(0) translate(4 100)">
<title>compute_snii_yield</title>
<polygon fill="white" stroke="transparent" points="-4,4 -4,-100 630,-100 630,4 -4,4"/>
<!-- Node1 -->
<g id="node1" class="node">
<title>Node1</title>
<g id="a_node1"><a xlink:title=" ">
<polygon fill="#bfbfbf" stroke="black" points="515,-38.5 515,-57.5 626,-57.5 626,-38.5 515,-38.5"/>
<text text-anchor="middle" x="570.5" y="-45.5" font-family="Helvetica,sans-Serif" font-size="10.00">compute_snii_yield</text>
</a>
</g>
</g>
<!-- Node2 -->
<g id="node2" class="node">
<title>Node2</title>
<g id="a_node2"><a xlink:href="metal__return_8c.html#a11ab16103547beec8342415acd5add34" target="_top" xlink:title=" ">
<polygon fill="white" stroke="black" points="406,-76.5 406,-95.5 478,-95.5 478,-76.5 406,-76.5"/>
<text text-anchor="middle" x="442" y="-83.5" font-family="Helvetica,sans-Serif" font-size="10.00">mass_yield</text>
</a>
</g>
</g>
<!-- Node1&#45;&gt;Node2 -->
<g id="edge1" class="edge">
<title>Node1&#45;&gt;Node2</title>
<path fill="none" stroke="midnightblue" d="M527.77,-60.54C510.56,-65.7 490.94,-71.6 474.91,-76.41"/>
<polygon fill="midnightblue" stroke="midnightblue" points="529.01,-63.82 537.58,-57.59 526.99,-57.11 529.01,-63.82"/>
</g>
<!-- Node7 -->
<g id="node7" class="node">
<title>Node7</title>
<g id="a_node7"><a xlink:href="metal__return_8c.html#aee9d9017b5438971ffe6af27a81fa272" target="_top" xlink:title=" ">
<polygon fill="white" stroke="black" points="405,-38.5 405,-57.5 479,-57.5 479,-38.5 405,-38.5"/>
<text text-anchor="middle" x="442" y="-45.5" font-family="Helvetica,sans-Serif" font-size="10.00">metal_yield</text>
</a>
</g>
</g>
<!-- Node1&#45;&gt;Node7 -->
<g id="edge6" class="edge">
<title>Node1&#45;&gt;Node7</title>
<path fill="none" stroke="midnightblue" d="M504.55,-48C495.84,-48 487.18,-48 479.22,-48"/>
<polygon fill="midnightblue" stroke="midnightblue" points="504.75,-51.5 514.75,-48 504.75,-44.5 504.75,-51.5"/>
</g>
<!-- Node9 -->
<g id="node9" class="node">
<title>Node9</title>
<g id="a_node9"><a xlink:href="test__metal__return_8c.html#a07e0ed8d142a57dd0f71abd0d6361225" target="_top" xlink:title=" ">
<polygon fill="white" stroke="black" points="407,-0.5 407,-19.5 477,-19.5 477,-0.5 407,-0.5"/>
<text text-anchor="middle" x="442" y="-7.5" font-family="Helvetica,sans-Serif" font-size="10.00">test_yields</text>
</a>
</g>
</g>
<!-- Node1&#45;&gt;Node9 -->
<g id="edge9" class="edge">
<title>Node1&#45;&gt;Node9</title>
<path fill="none" stroke="midnightblue" d="M527.77,-35.46C510.56,-30.3 490.94,-24.4 474.91,-19.59"/>
<polygon fill="midnightblue" stroke="midnightblue" points="526.99,-38.89 537.58,-38.41 529.01,-32.18 526.99,-38.89"/>
</g>
<!-- Node3 -->
<g id="node3" class="node">
<title>Node3</title>
<g id="a_node3"><a xlink:href="metal__return_8c.html#a2bc8aad8a4cd6b54c88ccd4321c6cfda" target="_top" xlink:title=" ">
<polygon fill="white" stroke="black" points="264.5,-76.5 264.5,-95.5 365.5,-95.5 365.5,-76.5 264.5,-76.5"/>
<text text-anchor="middle" x="315" y="-83.5" font-family="Helvetica,sans-Serif" font-size="10.00">metal_return_init</text>
</a>
</g>
</g>
<!-- Node2&#45;&gt;Node3 -->
<g id="edge2" class="edge">
<title>Node2&#45;&gt;Node3</title>
<path fill="none" stroke="midnightblue" d="M395.62,-86C385.93,-86 375.65,-86 365.81,-86"/>
<polygon fill="midnightblue" stroke="midnightblue" points="395.85,-89.5 405.85,-86 395.85,-82.5 395.85,-89.5"/>
</g>
<!-- Node4 -->
<g id="node4" class="node">
<title>Node4</title>
<g id="a_node4"><a xlink:href="metal__return_8c.html#a7c817252ab7c0f679fea71bde6dea852" target="_top" xlink:title=" ">
<polygon fill="white" stroke="black" points="145,-57.5 145,-76.5 225,-76.5 225,-57.5 145,-57.5"/>
<text text-anchor="middle" x="185" y="-64.5" font-family="Helvetica,sans-Serif" font-size="10.00">metal_return</text>
</a>
</g>
</g>
<!-- Node3&#45;&gt;Node4 -->
<g id="edge3" class="edge">
<title>Node3&#45;&gt;Node4</title>
<path fill="none" stroke="midnightblue" d="M254.03,-77.1C244.25,-75.65 234.34,-74.18 225.22,-72.82"/>
<polygon fill="midnightblue" stroke="midnightblue" points="253.74,-80.59 264.15,-78.6 254.77,-73.67 253.74,-80.59"/>
</g>
<!-- Node5 -->
<g id="node5" class="node">
<title>Node5</title>
<g id="a_node5"><a xlink:href="run_8c.html#a89690448ef43a8d624b963382b7503ed" target="_top" xlink:title=" ">
<polygon fill="white" stroke="black" points="77,-57.5 77,-76.5 109,-76.5 109,-57.5 77,-57.5"/>
<text text-anchor="middle" x="93" y="-64.5" font-family="Helvetica,sans-Serif" font-size="10.00">run</text>
</a>
</g>
</g>
<!-- Node4&#45;&gt;Node5 -->
<g id="edge4" class="edge">
<title>Node4&#45;&gt;Node5</title>
<path fill="none" stroke="midnightblue" d="M134.77,-67C125.55,-67 116.57,-67 109.4,-67"/>
<polygon fill="midnightblue" stroke="midnightblue" points="134.79,-70.5 144.79,-67 134.79,-63.5 134.79,-70.5"/>
</g>
<!-- Node6 -->
<g id="node6" class="node">
<title>Node6</title>
<g id="a_node6"><a xlink:href="gadget_2main_8c.html#a3c04138a5bfe5d72780bb7e82a18e627" target="_top" xlink:title=" ">
<polygon fill="white" stroke="black" points="0,-57.5 0,-76.5 41,-76.5 41,-57.5 0,-57.5"/>
<text text-anchor="middle" x="20.5" y="-64.5" font-family="Helvetica,sans-Serif" font-size="10.00">main</text>
</a>
</g>
</g>
<!-- Node5&#45;&gt;Node6 -->
<g id="edge5" class="edge">
<title>Node5&#45;&gt;Node6</title>
<path fill="none" stroke="midnightblue" d="M66.64,-67C58.22,-67 48.98,-67 41.06,-67"/>
<polygon fill="midnightblue" stroke="midnightblue" points="66.7,-70.5 76.7,-67 66.7,-63.5 66.7,-70.5"/>
</g>
<!-- Node8 -->
<g id="node8" class="node">
<title>Node8</title>
<g id="a_node8"><a xlink:href="metal__return_8c.html#ac75463a2439d1e5657e6b759b79cf717" target="_top" xlink:title=" ">
<polygon fill="white" stroke="black" points="261,-38.5 261,-57.5 369,-57.5 369,-38.5 261,-38.5"/>
<text text-anchor="middle" x="315" y="-45.5" font-family="Helvetica,sans-Serif" font-size="10.00">metal_return_copy</text>
</a>
</g>
</g>
<!-- Node7&#45;&gt;Node8 -->
<g id="edge7" class="edge">
<title>Node7&#45;&gt;Node8</title>
<path fill="none" stroke="midnightblue" d="M394.64,-48C386.38,-48 377.72,-48 369.28,-48"/>
<polygon fill="midnightblue" stroke="midnightblue" points="394.84,-51.5 404.84,-48 394.84,-44.5 394.84,-51.5"/>
</g>
<!-- Node8&#45;&gt;Node4 -->
<g id="edge8" class="edge">
<title>Node8&#45;&gt;Node4</title>
<path fill="none" stroke="midnightblue" d="M250.66,-57.4C241.96,-58.69 233.24,-59.99 225.15,-61.19"/>
<polygon fill="midnightblue" stroke="midnightblue" points="251.45,-60.82 260.83,-55.89 250.42,-53.9 251.45,-60.82"/>
</g>
<!-- Node10 -->
<g id="node10" class="node">
<title>Node10</title>
<g id="a_node10"><a xlink:href="test__metal__return_8c.html#a840291bc02cba5474a4cb46a9b9566fe" target="_top" xlink:title=" ">
<polygon fill="white" stroke="black" points="294.5,-0.5 294.5,-19.5 335.5,-19.5 335.5,-0.5 294.5,-0.5"/>
<text text-anchor="middle" x="315" y="-7.5" font-family="Helvetica,sans-Serif" font-size="10.00">main</text>
</a>
</g>
</g>
<!-- Node9&#45;&gt;Node10 -->
<g id="edge10" class="edge">
<title>Node9&#45;&gt;Node10</title>
<path fill="none" stroke="midnightblue" d="M396.59,-10C375.76,-10 352,-10 335.7,-10"/>
<polygon fill="midnightblue" stroke="midnightblue" points="396.84,-13.5 406.84,-10 396.84,-6.5 396.84,-13.5"/>
</g>
</g>
</svg>
