<?xml version="1.0" encoding="UTF-8" standalone="no"?>
<!DOCTYPE svg PUBLIC "-//W3C//DTD SVG 1.1//EN"
 "http://www.w3.org/Graphics/SVG/1.1/DTD/svg11.dtd">
<!-- Generated by graphviz version 2.50.0 (0)
 -->
<!-- Title: metal_return_copy Pages: 1 -->
<svg width="632pt" height="104pt"
 viewBox="0.00 0.00 632.00 104.00" xmlns="http://www.w3.org/2000/svg" xmlns:xlink="http://www.w3.org/1999/xlink">
<g id="graph0" class="graph" transform="scale(1 1) rotate(0) translate(4 100)">
<title>metal_return_copy</title>
<polygon fill="white" stroke="transparent" points="-4,4 -4,-100 628,-100 628,4 -4,4"/>
<!-- Node1 -->
<g id="node1" class="node">
<title>Node1</title>
<g id="a_node1"><a xlink:title=" ">
<polygon fill="#bfbfbf" stroke="black" points="0,-38.5 0,-57.5 108,-57.5 108,-38.5 0,-38.5"/>
<text text-anchor="middle" x="54" y="-45.5" font-family="Helvetica,sans-Serif" font-size="10.00">metal_return_copy</text>
</a>
</g>
</g>
<!-- Node2 -->
<g id="node2" class="node">
<title>Node2</title>
<g id="a_node2"><a xlink:href="metal__return_8c.html#aee9d9017b5438971ffe6af27a81fa272" target="_top" xlink:title=" ">
<polygon fill="white" stroke="black" points="144,-38.5 144,-57.5 218,-57.5 218,-38.5 144,-38.5"/>
<text text-anchor="middle" x="181" y="-45.5" font-family="Helvetica,sans-Serif" font-size="10.00">metal_yield</text>
</a>
</g>
</g>
<!-- Node1&#45;&gt;Node2 -->
<g id="edge1" class="edge">
<title>Node1&#45;&gt;Node2</title>
<path fill="none" stroke="midnightblue" d="M108.01,-48C116.62,-48 125.48,-48 133.9,-48"/>
<polygon fill="midnightblue" stroke="midnightblue" points="133.93,-51.5 143.93,-48 133.93,-44.5 133.93,-51.5"/>
</g>
<!-- Node3 -->
<g id="node3" class="node">
<title>Node3</title>
<g id="a_node3"><a xlink:href="metal__return_8c.html#ad1b2ebe4fbb8bd696bfaf675438fe550" target="_top" xlink:title=" ">
<polygon fill="white" stroke="black" points="254,-76.5 254,-95.5 366,-95.5 366,-76.5 254,-76.5"/>
<text text-anchor="middle" x="310" y="-83.5" font-family="Helvetica,sans-Serif" font-size="10.00">compute_agb_yield</text>
</a>
</g>
</g>
<!-- Node2&#45;&gt;Node3 -->
<g id="edge2" class="edge">
<title>Node2&#45;&gt;Node3</title>
<path fill="none" stroke="midnightblue" d="M214.05,-57.59C230.14,-62.4 249.84,-68.3 267.12,-73.47"/>
<polygon fill="midnightblue" stroke="midnightblue" points="266.38,-76.9 276.96,-76.41 268.39,-70.19 266.38,-76.9"/>
</g>
<!-- Node6 -->
<g id="node6" class="node">
<title>Node6</title>
<g id="a_node6"><a xlink:href="metal__return_8c.html#aa295d967ecdb8d2eb11cb8cf02386b41" target="_top" xlink:title=" ">
<polygon fill="white" stroke="black" points="254.5,-38.5 254.5,-57.5 365.5,-57.5 365.5,-38.5 254.5,-38.5"/>
<text text-anchor="middle" x="310" y="-45.5" font-family="Helvetica,sans-Serif" font-size="10.00">compute_snii_yield</text>
</a>
</g>
</g>
<!-- Node2&#45;&gt;Node6 -->
<g id="edge5" class="edge">
<title>Node2&#45;&gt;Node6</title>
<path fill="none" stroke="midnightblue" d="M218.05,-48C226.26,-48 235.22,-48 244.22,-48"/>
<polygon fill="midnightblue" stroke="midnightblue" points="244.35,-51.5 254.35,-48 244.35,-44.5 244.35,-51.5"/>
</g>
<!-- Node7 -->
<g id="node7" class="node">
<title>Node7</title>
<g id="a_node7"><a xlink:href="metal__return_8c.html#a76a8adf795460ecc25eb530e3c6e35cb" target="_top" xlink:title=" ">
<polygon fill="white" stroke="black" points="268.5,-0.5 268.5,-19.5 351.5,-19.5 351.5,-0.5 268.5,-0.5"/>
<text text-anchor="middle" x="310" y="-7.5" font-family="Helvetica,sans-Serif" font-size="10.00">sn1a_number</text>
</a>
</g>
</g>
<!-- Node2&#45;&gt;Node7 -->
<g id="edge7" class="edge">
<title>Node2&#45;&gt;Node7</title>
<path fill="none" stroke="midnightblue" d="M214.05,-38.41C230.14,-33.6 249.84,-27.7 267.12,-22.53"/>
<polygon fill="midnightblue" stroke="midnightblue" points="268.39,-25.81 276.96,-19.59 266.38,-19.1 268.39,-25.81"/>
</g>
<!-- Node4 -->
<g id="node4" class="node">
<title>Node4</title>
<g id="a_node4"><a xlink:href="metal__return_8c.html#ab7106eacb849b554febe06ca0b7e920f" target="_top" xlink:title=" ">
<polygon fill="white" stroke="black" points="402,-57.5 402,-76.5 510,-76.5 510,-57.5 402,-57.5"/>
<text text-anchor="middle" x="456" y="-64.5" font-family="Helvetica,sans-Serif" font-size="10.00">chabrier_imf_integ</text>
</a>
</g>
</g>
<!-- Node3&#45;&gt;Node4 -->
<g id="edge3" class="edge">
<title>Node3&#45;&gt;Node4</title>
<path fill="none" stroke="midnightblue" d="M366.26,-78.71C374.49,-77.62 383.04,-76.5 391.42,-75.39"/>
<polygon fill="midnightblue" stroke="midnightblue" points="392.09,-78.83 401.55,-74.05 391.17,-71.89 392.09,-78.83"/>
</g>
<!-- Node5 -->
<g id="node5" class="node">
<title>Node5</title>
<g id="a_node5"><a xlink:href="metal__return_8c.html#ad39fbdf9929fece660e9555909b2de10" target="_top" xlink:title=" ">
<polygon fill="white" stroke="black" points="546,-57.5 546,-76.5 624,-76.5 624,-57.5 546,-57.5"/>
<text text-anchor="middle" x="585" y="-64.5" font-family="Helvetica,sans-Serif" font-size="10.00">chabrier_imf</text>
</a>
</g>
</g>
<!-- Node4&#45;&gt;Node5 -->
<g id="edge4" class="edge">
<title>Node4&#45;&gt;Node5</title>
<path fill="none" stroke="midnightblue" d="M510.12,-67C518.54,-67 527.2,-67 535.49,-67"/>
<polygon fill="midnightblue" stroke="midnightblue" points="535.77,-70.5 545.77,-67 535.77,-63.5 535.77,-70.5"/>
</g>
<!-- Node6&#45;&gt;Node4 -->
<g id="edge6" class="edge">
<title>Node6&#45;&gt;Node4</title>
<path fill="none" stroke="midnightblue" d="M365.85,-55.24C374.31,-56.35 383.1,-57.51 391.72,-58.65"/>
<polygon fill="midnightblue" stroke="midnightblue" points="391.36,-62.13 401.73,-59.97 392.27,-55.19 391.36,-62.13"/>
</g>
</g>
</svg>
