<?xml version="1.0" encoding="UTF-8" standalone="no"?>
<!DOCTYPE svg PUBLIC "-//W3C//DTD SVG 1.1//EN"
 "http://www.w3.org/Graphics/SVG/1.1/DTD/svg11.dtd">
<!-- Generated by graphviz version 2.50.0 (0)
 -->
<!-- Title: effhsml Pages: 1 -->
<svg width="605pt" height="78pt"
 viewBox="0.00 0.00 605.00 77.50" xmlns="http://www.w3.org/2000/svg" xmlns:xlink="http://www.w3.org/1999/xlink">
<g id="graph0" class="graph" transform="scale(1 1) rotate(0) translate(4 73.5)">
<title>effhsml</title>
<polygon fill="white" stroke="transparent" points="-4,4 -4,-73.5 601,-73.5 601,4 -4,4"/>
<!-- Node1 -->
<g id="node1" class="node">
<title>Node1</title>
<g id="a_node1"><a xlink:title=" ">
<polygon fill="#bfbfbf" stroke="black" points="544,-22.5 544,-41.5 597,-41.5 597,-22.5 544,-22.5"/>
<text text-anchor="middle" x="570.5" y="-29.5" font-family="Helvetica,sans-Serif" font-size="10.00">effhsml</text>
</a>
</g>
</g>
<!-- Node2 -->
<g id="node2" class="node">
<title>Node2</title>
<g id="a_node2"><a xlink:href="metal__return_8c.html#a17b72849def018c74b52c243280021be" target="_top" xlink:title=" ">
<polygon fill="white" stroke="black" points="386,-39 386,-69 508,-69 508,-39 386,-39"/>
<text text-anchor="start" x="394" y="-57" font-family="Helvetica,sans-Serif" font-size="10.00">stellar_density_check</text>
<text text-anchor="middle" x="447" y="-46" font-family="Helvetica,sans-Serif" font-size="10.00">_neighbours</text>
</a>
</g>
</g>
<!-- Node1&#45;&gt;Node2 -->
<g id="edge1" class="edge">
<title>Node1&#45;&gt;Node2</title>
<path fill="none" stroke="midnightblue" d="M533.66,-38.49C525.64,-39.94 516.93,-41.52 508.23,-43.09"/>
<polygon fill="midnightblue" stroke="midnightblue" points="534.52,-41.89 543.73,-36.67 533.27,-35 534.52,-41.89"/>
</g>
<!-- Node7 -->
<g id="node7" class="node">
<title>Node7</title>
<g id="a_node7"><a xlink:href="metal__return_8c.html#a9af02ff3c8c0ce8dade6b5710fcc9dee" target="_top" xlink:title=" ">
<polygon fill="white" stroke="black" points="388.5,-0.5 388.5,-19.5 505.5,-19.5 505.5,-0.5 388.5,-0.5"/>
<text text-anchor="middle" x="447" y="-7.5" font-family="Helvetica,sans-Serif" font-size="10.00">stellar_density_copy</text>
</a>
</g>
</g>
<!-- Node1&#45;&gt;Node7 -->
<g id="edge6" class="edge">
<title>Node1&#45;&gt;Node7</title>
<path fill="none" stroke="midnightblue" d="M533.82,-25.54C523.46,-23.66 511.91,-21.57 500.74,-19.55"/>
<polygon fill="midnightblue" stroke="midnightblue" points="533.27,-29 543.73,-27.33 534.52,-22.11 533.27,-29"/>
</g>
<!-- Node3 -->
<g id="node3" class="node">
<title>Node3</title>
<g id="a_node3"><a xlink:href="metal__return_8c.html#ac6208618c0ad5ad55e84bcfb213e7dcb" target="_top" xlink:title=" ">
<polygon fill="white" stroke="black" points="261,-22.5 261,-41.5 350,-41.5 350,-22.5 261,-22.5"/>
<text text-anchor="middle" x="305.5" y="-29.5" font-family="Helvetica,sans-Serif" font-size="10.00">stellar_density</text>
</a>
</g>
</g>
<!-- Node2&#45;&gt;Node3 -->
<g id="edge2" class="edge">
<title>Node2&#45;&gt;Node3</title>
<path fill="none" stroke="midnightblue" d="M375.5,-42.88C366.86,-41.52 358.23,-40.16 350.15,-38.88"/>
<polygon fill="midnightblue" stroke="midnightblue" points="375.2,-46.38 385.62,-44.48 376.29,-39.46 375.2,-46.38"/>
</g>
<!-- Node4 -->
<g id="node4" class="node">
<title>Node4</title>
<g id="a_node4"><a xlink:href="metal__return_8c.html#a7c817252ab7c0f679fea71bde6dea852" target="_top" xlink:title=" ">
<polygon fill="white" stroke="black" points="145,-22.5 145,-41.5 225,-41.5 225,-22.5 145,-22.5"/>
<text text-anchor="middle" x="185" y="-29.5" font-family="Helvetica,sans-Serif" font-size="10.00">metal_return</text>
</a>
</g>
</g>
<!-- Node3&#45;&gt;Node4 -->
<g id="edge3" class="edge">
<title>Node3&#45;&gt;Node4</title>
<path fill="none" stroke="midnightblue" d="M250.48,-32C242,-32 233.37,-32 225.3,-32"/>
<polygon fill="midnightblue" stroke="midnightblue" points="250.71,-35.5 260.71,-32 250.71,-28.5 250.71,-35.5"/>
</g>
<!-- Node5 -->
<g id="node5" class="node">
<title>Node5</title>
<g id="a_node5"><a xlink:href="run_8c.html#a89690448ef43a8d624b963382b7503ed" target="_top" xlink:title=" ">
<polygon fill="white" stroke="black" points="77,-22.5 77,-41.5 109,-41.5 109,-22.5 77,-22.5"/>
<text text-anchor="middle" x="93" y="-29.5" font-family="Helvetica,sans-Serif" font-size="10.00">run</text>
</a>
</g>
</g>
<!-- Node4&#45;&gt;Node5 -->
<g id="edge4" class="edge">
<title>Node4&#45;&gt;Node5</title>
<path fill="none" stroke="midnightblue" d="M134.77,-32C125.55,-32 116.57,-32 109.4,-32"/>
<polygon fill="midnightblue" stroke="midnightblue" points="134.79,-35.5 144.79,-32 134.79,-28.5 134.79,-35.5"/>
</g>
<!-- Node6 -->
<g id="node6" class="node">
<title>Node6</title>
<g id="a_node6"><a xlink:href="gadget_2main_8c.html#a3c04138a5bfe5d72780bb7e82a18e627" target="_top" xlink:title=" ">
<polygon fill="white" stroke="black" points="0,-22.5 0,-41.5 41,-41.5 41,-22.5 0,-22.5"/>
<text text-anchor="middle" x="20.5" y="-29.5" font-family="Helvetica,sans-Serif" font-size="10.00">main</text>
</a>
</g>
</g>
<!-- Node5&#45;&gt;Node6 -->
<g id="edge5" class="edge">
<title>Node5&#45;&gt;Node6</title>
<path fill="none" stroke="midnightblue" d="M66.64,-32C58.22,-32 48.98,-32 41.06,-32"/>
<polygon fill="midnightblue" stroke="midnightblue" points="66.7,-35.5 76.7,-32 66.7,-28.5 66.7,-35.5"/>
</g>
<!-- Node7&#45;&gt;Node3 -->
<g id="edge7" class="edge">
<title>Node7&#45;&gt;Node3</title>
<path fill="none" stroke="midnightblue" d="M378.5,-20.64C368.91,-22.16 359.25,-23.68 350.27,-25.1"/>
<polygon fill="midnightblue" stroke="midnightblue" points="379.12,-24.09 388.45,-19.08 378.03,-17.18 379.12,-24.09"/>
</g>
</g>
</svg>
