<?xml version="1.0" encoding="UTF-8" standalone="no"?>
<!DOCTYPE svg PUBLIC "-//W3C//DTD SVG 1.1//EN"
 "http://www.w3.org/Graphics/SVG/1.1/DTD/svg11.dtd">
<!-- Generated by graphviz version 2.50.0 (0)
 -->
<!-- Title: _setup_radix_sort Pages: 1 -->
<svg width="729pt" height="47pt"
 viewBox="0.00 0.00 729.00 47.00" xmlns="http://www.w3.org/2000/svg" xmlns:xlink="http://www.w3.org/1999/xlink">
<g id="graph0" class="graph" transform="scale(1 1) rotate(0) translate(4 43)">
<title>_setup_radix_sort</title>
<polygon fill="white" stroke="transparent" points="-4,4 -4,-43 725,-43 725,4 -4,4"/>
<!-- Node1 -->
<g id="node1" class="node">
<title>Node1</title>
<g id="a_node1"><a xlink:title=" ">
<polygon fill="#bfbfbf" stroke="black" points="618,-19.5 618,-38.5 721,-38.5 721,-19.5 618,-19.5"/>
<text text-anchor="middle" x="669.5" y="-26.5" font-family="Helvetica,sans-Serif" font-size="10.00">_setup_radix_sort</text>
</a>
</g>
</g>
<!-- Node2 -->
<g id="node2" class="node">
<title>Node2</title>
<g id="a_node2"><a xlink:href="mpsort_8c.html#af5ac154cce675c9b1087fc05a13ee853" target="_top" xlink:title=" ">
<polygon fill="white" stroke="black" points="138,-19.5 138,-38.5 291,-38.5 291,-19.5 138,-19.5"/>
<text text-anchor="middle" x="214.5" y="-26.5" font-family="Helvetica,sans-Serif" font-size="10.00">mpsort_mpi_newarray_impl</text>
</a>
</g>
</g>
<!-- Node1&#45;&gt;Node2 -->
<g id="edge1" class="edge">
<title>Node1&#45;&gt;Node2</title>
<path fill="none" stroke="midnightblue" d="M607.71,-29C525.88,-29 380.3,-29 291.38,-29"/>
<polygon fill="midnightblue" stroke="midnightblue" points="607.85,-32.5 617.85,-29 607.85,-25.5 607.85,-32.5"/>
</g>
<!-- Node4 -->
<g id="node4" class="node">
<title>Node4</title>
<g id="a_node4"><a xlink:href="mpsort_8c.html#a3b1f445b7875cc43677232a7e1d14fec" target="_top" xlink:title=" ">
<polygon fill="white" stroke="black" points="517,-0.5 517,-19.5 582,-19.5 582,-0.5 517,-0.5"/>
<text text-anchor="middle" x="549.5" y="-7.5" font-family="Helvetica,sans-Serif" font-size="10.00">radix_sort</text>
</a>
</g>
</g>
<!-- Node1&#45;&gt;Node4 -->
<g id="edge3" class="edge">
<title>Node1&#45;&gt;Node4</title>
<path fill="none" stroke="midnightblue" d="M607.77,-19.22C598.89,-17.79 590.06,-16.37 582.09,-15.09"/>
<polygon fill="midnightblue" stroke="midnightblue" points="607.34,-22.7 617.77,-20.83 608.46,-15.79 607.34,-22.7"/>
</g>
<!-- Node3 -->
<g id="node3" class="node">
<title>Node3</title>
<g id="a_node3"><a xlink:href="mpsort_8c.html#a2868e9295e8b1db79d18be27c9d3f805" target="_top" xlink:title=" ">
<polygon fill="white" stroke="black" points="0,-19.5 0,-38.5 102,-38.5 102,-19.5 0,-19.5"/>
<text text-anchor="middle" x="51" y="-26.5" font-family="Helvetica,sans-Serif" font-size="10.00">mpsort_mpi_impl</text>
</a>
</g>
</g>
<!-- Node2&#45;&gt;Node3 -->
<g id="edge2" class="edge">
<title>Node2&#45;&gt;Node3</title>
<path fill="none" stroke="midnightblue" d="M127.69,-29C118.95,-29 110.3,-29 102.13,-29"/>
<polygon fill="midnightblue" stroke="midnightblue" points="127.95,-32.5 137.95,-29 127.95,-25.5 127.95,-32.5"/>
</g>
<!-- Node5 -->
<g id="node5" class="node">
<title>Node5</title>
<g id="a_node5"><a xlink:href="mpsort_8c.html#abf7986608d0f4c887b87f0f747dc7449" target="_top" xlink:title=" ">
<polygon fill="white" stroke="black" points="327,-0.5 327,-19.5 481,-19.5 481,-0.5 327,-0.5"/>
<text text-anchor="middle" x="404" y="-7.5" font-family="Helvetica,sans-Serif" font-size="10.00">mpsort_mpi_histogram_sort</text>
</a>
</g>
</g>
<!-- Node4&#45;&gt;Node5 -->
<g id="edge4" class="edge">
<title>Node4&#45;&gt;Node5</title>
<path fill="none" stroke="midnightblue" d="M506.48,-10C498.45,-10 489.81,-10 481.08,-10"/>
<polygon fill="midnightblue" stroke="midnightblue" points="506.65,-13.5 516.65,-10 506.65,-6.5 506.65,-13.5"/>
</g>
<!-- Node5&#45;&gt;Node2 -->
<g id="edge5" class="edge">
<title>Node5&#45;&gt;Node2</title>
<path fill="none" stroke="midnightblue" d="M316.74,-18.74C308.18,-19.61 299.53,-20.48 291.09,-21.34"/>
<polygon fill="midnightblue" stroke="midnightblue" points="317.14,-22.22 326.74,-17.73 316.43,-15.25 317.14,-22.22"/>
</g>
</g>
</svg>
