<?xml version="1.0" encoding="UTF-8" standalone="no"?>
<!DOCTYPE svg PUBLIC "-//W3C//DTD SVG 1.1//EN"
 "http://www.w3.org/Graphics/SVG/1.1/DTD/svg11.dtd">
<!-- Generated by graphviz version 2.50.0 (0)
 -->
<!-- Title: _mpsort_mpi_parse_env Pages: 1 -->
<svg width="317pt" height="28pt"
 viewBox="0.00 0.00 317.00 28.00" xmlns="http://www.w3.org/2000/svg" xmlns:xlink="http://www.w3.org/1999/xlink">
<g id="graph0" class="graph" transform="scale(1 1) rotate(0) translate(4 24)">
<title>_mpsort_mpi_parse_env</title>
<polygon fill="white" stroke="transparent" points="-4,4 -4,-24 313,-24 313,4 -4,4"/>
<!-- Node1 -->
<g id="node1" class="node">
<title>Node1</title>
<g id="a_node1"><a xlink:title=" ">
<polygon fill="#bfbfbf" stroke="black" points="0,-0.5 0,-19.5 136,-19.5 136,-0.5 0,-0.5"/>
<text text-anchor="middle" x="68" y="-7.5" font-family="Helvetica,sans-Serif" font-size="10.00">_mpsort_mpi_parse_env</text>
</a>
</g>
</g>
<!-- Node2 -->
<g id="node2" class="node">
<title>Node2</title>
<g id="a_node2"><a xlink:href="mpsort_8c.html#a96e6b1f50a1ee8f0838a530edd467747" target="_top" xlink:title=" ">
<polygon fill="white" stroke="black" points="172,-0.5 172,-19.5 309,-19.5 309,-0.5 172,-0.5"/>
<text text-anchor="middle" x="240.5" y="-7.5" font-family="Helvetica,sans-Serif" font-size="10.00">mpsort_mpi_set_options</text>
</a>
</g>
</g>
<!-- Node1&#45;&gt;Node2 -->
<g id="edge1" class="edge">
<title>Node1&#45;&gt;Node2</title>
<path fill="none" stroke="midnightblue" d="M136.39,-3.38C144.66,-3.26 153.16,-3.22 161.58,-3.27"/>
<polygon fill="midnightblue" stroke="midnightblue" points="161.73,-6.77 171.77,-3.38 161.8,0.23 161.73,-6.77"/>
</g>
<!-- Node2&#45;&gt;Node1 -->
<g id="edge2" class="edge">
<title>Node2&#45;&gt;Node1</title>
<path fill="none" stroke="midnightblue" d="M171.77,-16.62C163.49,-16.74 154.98,-16.78 146.57,-16.73"/>
<polygon fill="midnightblue" stroke="midnightblue" points="146.42,-13.22 136.39,-16.62 146.35,-20.22 146.42,-13.22"/>
</g>
</g>
</svg>
