<?xml version="1.0" encoding="UTF-8" standalone="no"?>
<!DOCTYPE svg PUBLIC "-//W3C//DTD SVG 1.1//EN"
 "http://www.w3.org/Graphics/SVG/1.1/DTD/svg11.dtd">
<!-- Generated by graphviz version 2.50.0 (0)
 -->
<!-- Title: _histogram Pages: 1 -->
<svg width="213pt" height="66pt"
 viewBox="0.00 0.00 213.00 66.00" xmlns="http://www.w3.org/2000/svg" xmlns:xlink="http://www.w3.org/1999/xlink">
<g id="graph0" class="graph" transform="scale(1 1) rotate(0) translate(4 62)">
<title>_histogram</title>
<polygon fill="white" stroke="transparent" points="-4,4 -4,-62 209,-62 209,4 -4,4"/>
<!-- Node1 -->
<g id="node1" class="node">
<title>Node1</title>
<g id="a_node1"><a xlink:title=" ">
<polygon fill="#bfbfbf" stroke="black" points="0,-19.5 0,-38.5 71,-38.5 71,-19.5 0,-19.5"/>
<text text-anchor="middle" x="35.5" y="-26.5" font-family="Helvetica,sans-Serif" font-size="10.00">_histogram</text>
</a>
</g>
</g>
<!-- Node2 -->
<g id="node2" class="node">
<title>Node2</title>
<g id="a_node2"><a xlink:href="mpsort_8c.html#a445c7a308e96e7b2294aea2f065cdaee" target="_top" xlink:title=" ">
<polygon fill="white" stroke="black" points="107,-38.5 107,-57.5 205,-57.5 205,-38.5 107,-38.5"/>
<text text-anchor="middle" x="156" y="-45.5" font-family="Helvetica,sans-Serif" font-size="10.00">_bsearch_last_le</text>
</a>
</g>
</g>
<!-- Node1&#45;&gt;Node2 -->
<g id="edge1" class="edge">
<title>Node1&#45;&gt;Node2</title>
<path fill="none" stroke="midnightblue" d="M71.09,-34.55C79.23,-35.85 88.13,-37.28 96.99,-38.7"/>
<polygon fill="midnightblue" stroke="midnightblue" points="96.5,-42.17 106.93,-40.29 97.61,-35.25 96.5,-42.17"/>
</g>
<!-- Node3 -->
<g id="node3" class="node">
<title>Node3</title>
<g id="a_node3"><a xlink:href="mpsort_8c.html#adbef8a66fa086066791a9596e3ce2aa3" target="_top" xlink:title=" ">
<polygon fill="white" stroke="black" points="108.5,-0.5 108.5,-19.5 203.5,-19.5 203.5,-0.5 108.5,-0.5"/>
<text text-anchor="middle" x="156" y="-7.5" font-family="Helvetica,sans-Serif" font-size="10.00">_bsearch_last_lt</text>
</a>
</g>
</g>
<!-- Node1&#45;&gt;Node3 -->
<g id="edge2" class="edge">
<title>Node1&#45;&gt;Node3</title>
<path fill="none" stroke="midnightblue" d="M71.09,-23.45C79.62,-22.09 88.98,-20.59 98.26,-19.1"/>
<polygon fill="midnightblue" stroke="midnightblue" points="98.93,-22.54 108.25,-17.5 97.82,-15.62 98.93,-22.54"/>
</g>
</g>
</svg>
