<?xml version="1.0" encoding="UTF-8" standalone="no"?>
<!DOCTYPE svg PUBLIC "-//W3C//DTD SVG 1.1//EN"
 "http://www.w3.org/Graphics/SVG/1.1/DTD/svg11.dtd">
<!-- Generated by graphviz version 2.50.0 (0)
 -->
<!-- Title: mpsort_mpi_newarray_impl Pages: 1 -->
<svg width="914pt" height="797pt"
 viewBox="0.00 0.00 914.00 797.00" xmlns="http://www.w3.org/2000/svg" xmlns:xlink="http://www.w3.org/1999/xlink">
<g id="graph0" class="graph" transform="scale(1 1) rotate(0) translate(4 793)">
<title>mpsort_mpi_newarray_impl</title>
<polygon fill="white" stroke="transparent" points="-4,4 -4,-793 910,-793 910,4 -4,4"/>
<!-- Node1 -->
<g id="node1" class="node">
<title>Node1</title>
<g id="a_node1"><a xlink:title=" ">
<polygon fill="#bfbfbf" stroke="black" points="0,-541.5 0,-560.5 153,-560.5 153,-541.5 0,-541.5"/>
<text text-anchor="middle" x="76.5" y="-548.5" font-family="Helvetica,sans-Serif" font-size="10.00">mpsort_mpi_newarray_impl</text>
</a>
</g>
</g>
<!-- Node2 -->
<g id="node2" class="node">
<title>Node2</title>
<g id="a_node2"><a xlink:href="mpsort_8c.html#a17b23a66fd59501d2c4c27c267c69d1f" target="_top" xlink:title=" ">
<polygon fill="white" stroke="black" points="224,-769.5 224,-788.5 308,-788.5 308,-769.5 224,-769.5"/>
<text text-anchor="middle" x="266" y="-776.5" font-family="Helvetica,sans-Serif" font-size="10.00">_collect_sizes</text>
</a>
</g>
</g>
<!-- Node1&#45;&gt;Node2 -->
<g id="edge1" class="edge">
<title>Node1&#45;&gt;Node2</title>
<path fill="none" stroke="midnightblue" d="M79.69,-560.71C87.74,-594.13 118.98,-705.34 189,-760 196.32,-765.72 205.15,-769.73 214.15,-772.55"/>
<polygon fill="midnightblue" stroke="midnightblue" points="213.36,-775.97 223.93,-775.17 215.17,-769.2 213.36,-775.97"/>
</g>
<!-- Node3 -->
<g id="node3" class="node">
<title>Node3</title>
<g id="a_node3"><a xlink:href="mpsort_8c.html#a48d8639c62e88831ffa6d2ca3124faed" target="_top" xlink:title=" ">
<polygon fill="white" stroke="black" points="199,-731.5 199,-750.5 333,-750.5 333,-731.5 199,-731.5"/>
<text text-anchor="middle" x="266" y="-738.5" font-family="Helvetica,sans-Serif" font-size="10.00">_create_segment_group</text>
</a>
</g>
</g>
<!-- Node1&#45;&gt;Node3 -->
<g id="edge2" class="edge">
<title>Node1&#45;&gt;Node3</title>
<path fill="none" stroke="midnightblue" d="M80.83,-560.55C91.5,-589.74 127.8,-678.41 189,-722 191.71,-723.93 194.6,-725.67 197.61,-727.23"/>
<polygon fill="midnightblue" stroke="midnightblue" points="196.38,-730.51 206.93,-731.41 199.24,-724.12 196.38,-730.51"/>
</g>
<!-- Node6 -->
<g id="node6" class="node">
<title>Node6</title>
<g id="a_node6"><a xlink:href="mpsort_8c.html#ac6cd0a62f8988af958a8acfa96dd244a" target="_top" xlink:title=" ">
<polygon fill="white" stroke="black" points="205,-693.5 205,-712.5 327,-712.5 327,-693.5 205,-693.5"/>
<text text-anchor="middle" x="266" y="-700.5" font-family="Helvetica,sans-Serif" font-size="10.00">_destroy_mpsort_mpi</text>
</a>
</g>
</g>
<!-- Node1&#45;&gt;Node6 -->
<g id="edge5" class="edge">
<title>Node1&#45;&gt;Node6</title>
<path fill="none" stroke="midnightblue" d="M82.78,-560.83C96.64,-585.66 136.63,-651.24 189,-684 192.4,-686.13 196.04,-688.02 199.79,-689.7"/>
<polygon fill="midnightblue" stroke="midnightblue" points="198.76,-693.06 209.35,-693.46 201.32,-686.54 198.76,-693.06"/>
</g>
<!-- Node7 -->
<g id="node7" class="node">
<title>Node7</title>
<g id="a_node7"><a xlink:href="mpsort_8c.html#a624003808bbc1a894e160d40503b1ee2" target="_top" xlink:title=" ">
<polygon fill="white" stroke="black" points="196,-655.5 196,-674.5 336,-674.5 336,-655.5 196,-655.5"/>
<text text-anchor="middle" x="266" y="-662.5" font-family="Helvetica,sans-Serif" font-size="10.00">_destroy_segment_group</text>
</a>
</g>
</g>
<!-- Node1&#45;&gt;Node7 -->
<g id="edge6" class="edge">
<title>Node1&#45;&gt;Node7</title>
<path fill="none" stroke="midnightblue" d="M86.75,-560.54C104.8,-578.67 146.69,-618.3 189,-641 197.24,-645.42 206.42,-649.18 215.48,-652.32"/>
<polygon fill="midnightblue" stroke="midnightblue" points="214.61,-655.72 225.2,-655.48 216.78,-649.06 214.61,-655.72"/>
</g>
<!-- Node8 -->
<g id="node8" class="node">
<title>Node8</title>
<g id="a_node8"><a xlink:href="mpsort_8c.html#aa299453e6deb4926a6f6648d8669d74a" target="_top" xlink:title=" ">
<polygon fill="white" stroke="black" points="209.5,-579.5 209.5,-598.5 322.5,-598.5 322.5,-579.5 209.5,-579.5"/>
<text text-anchor="middle" x="266" y="-586.5" font-family="Helvetica,sans-Serif" font-size="10.00">_setup_mpsort_mpi</text>
</a>
</g>
</g>
<!-- Node1&#45;&gt;Node8 -->
<g id="edge7" class="edge">
<title>Node1&#45;&gt;Node8</title>
<path fill="none" stroke="midnightblue" d="M124.81,-560.59C150.11,-565.72 181.45,-572.07 208.07,-577.46"/>
<polygon fill="midnightblue" stroke="midnightblue" points="207.53,-580.92 218.03,-579.48 208.92,-574.06 207.53,-580.92"/>
</g>
<!-- Node9 -->
<g id="node9" class="node">
<title>Node9</title>
<g id="a_node9"><a xlink:href="endrun_8c.html#ad963d7efdb9f10f7a2298c8ccd222ab0" target="_top" xlink:title=" ">
<polygon fill="white" stroke="black" points="595.5,-541.5 595.5,-560.5 645.5,-560.5 645.5,-541.5 595.5,-541.5"/>
<text text-anchor="middle" x="620.5" y="-548.5" font-family="Helvetica,sans-Serif" font-size="10.00">endrun</text>
</a>
</g>
</g>
<!-- Node1&#45;&gt;Node9 -->
<g id="edge14" class="edge">
<title>Node1&#45;&gt;Node9</title>
<path fill="none" stroke="midnightblue" d="M153.15,-551C272.35,-551 499.18,-551 585.24,-551"/>
<polygon fill="midnightblue" stroke="midnightblue" points="585.49,-554.5 595.49,-551 585.49,-547.5 585.49,-554.5"/>
</g>
<!-- Node13 -->
<g id="node13" class="node">
<title>Node13</title>
<g id="a_node13"><a xlink:href="mpsort_8c.html#ae40c58f83917dc700982125ff9533fd5" target="_top" xlink:title=" ">
<polygon fill="white" stroke="black" points="569,-38.5 569,-57.5 672,-57.5 672,-38.5 569,-38.5"/>
<text text-anchor="middle" x="620.5" y="-45.5" font-family="Helvetica,sans-Serif" font-size="10.00">_setup_radix_sort</text>
</a>
</g>
</g>
<!-- Node1&#45;&gt;Node13 -->
<g id="edge12" class="edge">
<title>Node1&#45;&gt;Node13</title>
<path fill="none" stroke="midnightblue" d="M79.63,-541.41C93.27,-482.73 174.32,-171.47 379,-73 435.62,-45.76 508.26,-41.83 558.82,-43.26"/>
<polygon fill="midnightblue" stroke="midnightblue" points="558.82,-46.76 568.94,-43.63 559.07,-39.77 558.82,-46.76"/>
</g>
<!-- Node14 -->
<g id="node14" class="node">
<title>Node14</title>
<g id="a_node14"><a xlink:href="mpsort_8c.html#a121612cc585827851299fed84c76827c" target="_top" xlink:title=" ">
<polygon fill="white" stroke="black" points="233,-503.5 233,-522.5 299,-522.5 299,-503.5 233,-503.5"/>
<text text-anchor="middle" x="266" y="-510.5" font-family="Helvetica,sans-Serif" font-size="10.00">checksum</text>
</a>
</g>
</g>
<!-- Node1&#45;&gt;Node14 -->
<g id="edge13" class="edge">
<title>Node1&#45;&gt;Node14</title>
<path fill="none" stroke="midnightblue" d="M124.81,-541.41C155,-535.29 193.77,-527.44 222.88,-521.54"/>
<polygon fill="midnightblue" stroke="midnightblue" points="223.64,-524.95 232.75,-519.54 222.25,-518.09 223.64,-524.95"/>
</g>
<!-- Node15 -->
<g id="node15" class="node">
<title>Node15</title>
<g id="a_node15"><a xlink:href="endrun_8c.html#a6567cd867c5549fb6586e19ccd819764" target="_top" xlink:title=" ">
<polygon fill="white" stroke="black" points="590,-598.5 590,-617.5 651,-617.5 651,-598.5 590,-598.5"/>
<text text-anchor="middle" x="620.5" y="-605.5" font-family="Helvetica,sans-Serif" font-size="10.00">message</text>
</a>
</g>
</g>
<!-- Node1&#45;&gt;Node15 -->
<g id="edge15" class="edge">
<title>Node1&#45;&gt;Node15</title>
<path fill="none" stroke="midnightblue" d="M91.09,-560.67C111.29,-574.38 150.95,-598.84 189,-608 329.36,-641.8 503.01,-624.59 579.79,-614.11"/>
<polygon fill="midnightblue" stroke="midnightblue" points="580.55,-617.54 589.97,-612.68 579.58,-610.6 580.55,-617.54"/>
</g>
<!-- Node16 -->
<g id="node16" class="node">
<title>Node16</title>
<g id="a_node16"><a xlink:href="mpsort_8c.html#a27d681460d0767ee8c7635a906069cb5" target="_top" xlink:title=" ">
<polygon fill="white" stroke="black" points="226,-313.5 226,-332.5 306,-332.5 306,-313.5 226,-313.5"/>
<text text-anchor="middle" x="266" y="-320.5" font-family="Helvetica,sans-Serif" font-size="10.00">MPIU_Gather</text>
</a>
</g>
</g>
<!-- Node1&#45;&gt;Node16 -->
<g id="edge17" class="edge">
<title>Node1&#45;&gt;Node16</title>
<path fill="none" stroke="midnightblue" d="M79.69,-541.29C87.74,-507.87 118.98,-396.66 189,-342 196.8,-335.91 206.3,-331.75 215.91,-328.91"/>
<polygon fill="midnightblue" stroke="midnightblue" points="217.04,-332.23 225.89,-326.41 215.34,-325.45 217.04,-332.23"/>
</g>
<!-- Node17 -->
<g id="node17" class="node">
<title>Node17</title>
<g id="a_node17"><a xlink:href="mpsort_8c.html#ad6a3d88d47ff7102a2d07f3f03b9711f" target="_top" xlink:title=" ">
<polygon fill="white" stroke="black" points="225,-275.5 225,-294.5 307,-294.5 307,-275.5 225,-275.5"/>
<text text-anchor="middle" x="266" y="-282.5" font-family="Helvetica,sans-Serif" font-size="10.00">MPIU_Scatter</text>
</a>
</g>
</g>
<!-- Node1&#45;&gt;Node17 -->
<g id="edge18" class="edge">
<title>Node1&#45;&gt;Node17</title>
<path fill="none" stroke="midnightblue" d="M78.82,-541.41C84.43,-504.47 109.74,-370.2 189,-304 196.44,-297.79 205.62,-293.56 215,-290.7"/>
<polygon fill="midnightblue" stroke="midnightblue" points="215.98,-294.06 224.79,-288.18 214.23,-287.28 215.98,-294.06"/>
</g>
<!-- Node18 -->
<g id="node18" class="node">
<title>Node18</title>
<g id="a_node18"><a xlink:href="mpsort_8c.html#a10ff859ec4b053e48eb0a10bc855b3cb" target="_top" xlink:title=" ">
<polygon fill="white" stroke="black" points="196.5,-3.5 196.5,-22.5 335.5,-22.5 335.5,-3.5 196.5,-3.5"/>
<text text-anchor="middle" x="266" y="-10.5" font-family="Helvetica,sans-Serif" font-size="10.00">mpsort_mpi_has_options</text>
</a>
</g>
</g>
<!-- Node1&#45;&gt;Node18 -->
<g id="edge19" class="edge">
<title>Node1&#45;&gt;Node18</title>
<path fill="none" stroke="midnightblue" d="M78.33,-541.26C83.97,-477.35 118.5,-118.13 189,-39 193.32,-34.15 198.59,-30.2 204.31,-26.99"/>
<polygon fill="midnightblue" stroke="midnightblue" points="206.11,-30.01 213.61,-22.53 203.08,-23.7 206.11,-30.01"/>
</g>
<!-- Node21 -->
<g id="node21" class="node">
<title>Node21</title>
<g id="a_node21"><a xlink:href="mpsort_8c.html#abf7986608d0f4c887b87f0f747dc7449" target="_top" xlink:title=" ">
<polygon fill="white" stroke="black" points="189,-351.5 189,-370.5 343,-370.5 343,-351.5 189,-351.5"/>
<text text-anchor="middle" x="266" y="-358.5" font-family="Helvetica,sans-Serif" font-size="10.00">mpsort_mpi_histogram_sort</text>
</a>
</g>
</g>
<!-- Node1&#45;&gt;Node21 -->
<g id="edge23" class="edge">
<title>Node1&#45;&gt;Node21</title>
<path fill="none" stroke="midnightblue" d="M87.06,-541.32C117.01,-510.96 209.39,-417.35 247.88,-378.34"/>
<polygon fill="midnightblue" stroke="midnightblue" points="250.71,-380.47 255.24,-370.89 245.72,-375.55 250.71,-380.47"/>
</g>
<!-- Node4 -->
<g id="node4" class="node">
<title>Node4</title>
<g id="a_node4"><a xlink:href="mpsort_8c.html#adbd7f89249e8a0d8bcda768eb4987b46" target="_top" xlink:title=" ">
<polygon fill="white" stroke="black" points="403.5,-712.5 403.5,-731.5 491.5,-731.5 491.5,-712.5 403.5,-712.5"/>
<text text-anchor="middle" x="447.5" y="-719.5" font-family="Helvetica,sans-Serif" font-size="10.00">_assign_colors</text>
</a>
</g>
</g>
<!-- Node3&#45;&gt;Node4 -->
<g id="edge3" class="edge">
<title>Node3&#45;&gt;Node4</title>
<path fill="none" stroke="midnightblue" d="M333.07,-734.01C352.9,-731.91 374.38,-729.63 393.26,-727.64"/>
<polygon fill="midnightblue" stroke="midnightblue" points="393.88,-731.09 403.45,-726.56 393.14,-724.13 393.88,-731.09"/>
</g>
<!-- Node5 -->
<g id="node5" class="node">
<title>Node5</title>
<g id="a_node5"><a xlink:href="mpsort_8c.html#a07127f2627af67d8eee75310c66d9d72" target="_top" xlink:title=" ">
<polygon fill="white" stroke="black" points="407,-750.5 407,-769.5 488,-769.5 488,-750.5 407,-750.5"/>
<text text-anchor="middle" x="447.5" y="-757.5" font-family="Helvetica,sans-Serif" font-size="10.00">MPIU_GetLoc</text>
</a>
</g>
</g>
<!-- Node3&#45;&gt;Node5 -->
<g id="edge4" class="edge">
<title>Node3&#45;&gt;Node5</title>
<path fill="none" stroke="midnightblue" d="M333.07,-747.99C354.19,-750.23 377.18,-752.66 396.91,-754.75"/>
<polygon fill="midnightblue" stroke="midnightblue" points="396.59,-758.24 406.9,-755.81 397.33,-751.28 396.59,-758.24"/>
</g>
<!-- Node8&#45;&gt;Node9 -->
<g id="edge8" class="edge">
<title>Node8&#45;&gt;Node9</title>
<path fill="none" stroke="midnightblue" d="M322.94,-584.23C373.45,-579.77 449.78,-572.67 516,-565 539.16,-562.32 565.17,-558.8 585.32,-555.96"/>
<polygon fill="midnightblue" stroke="midnightblue" points="585.87,-559.42 595.27,-554.54 584.88,-552.49 585.87,-559.42"/>
</g>
<!-- Node10 -->
<g id="node10" class="node">
<title>Node10</title>
<g id="a_node10"><a xlink:href="system_8c.html#a341c8d27bd6c7dde856566810b412b1f" target="_top" xlink:title=" ">
<polygon fill="white" stroke="black" points="733,-588.5 733,-607.5 812,-607.5 812,-588.5 733,-588.5"/>
<text text-anchor="middle" x="772.5" y="-595.5" font-family="Helvetica,sans-Serif" font-size="10.00">MPIU_Tracev</text>
</a>
</g>
</g>
<!-- Node9&#45;&gt;Node10 -->
<g id="edge9" class="edge">
<title>Node9&#45;&gt;Node10</title>
<path fill="none" stroke="midnightblue" d="M645.6,-558.55C668.69,-565.79 703.96,-576.84 731.3,-585.4"/>
<polygon fill="midnightblue" stroke="midnightblue" points="730.39,-588.79 740.97,-588.44 732.48,-582.11 730.39,-588.79"/>
</g>
<!-- Node12 -->
<g id="node12" class="node">
<title>Node12</title>
<g id="a_node12"><a xlink:href="endrun_8c.html#a1200f02a595ab7cbe17c9e36ff32af0f" target="_top" xlink:title=" ">
<polygon fill="white" stroke="black" points="725,-541.5 725,-560.5 820,-560.5 820,-541.5 725,-541.5"/>
<text text-anchor="middle" x="772.5" y="-548.5" font-family="Helvetica,sans-Serif" font-size="10.00">show_backtrace</text>
</a>
</g>
</g>
<!-- Node9&#45;&gt;Node12 -->
<g id="edge11" class="edge">
<title>Node9&#45;&gt;Node12</title>
<path fill="none" stroke="midnightblue" d="M645.6,-551C664.22,-551 690.77,-551 714.7,-551"/>
<polygon fill="midnightblue" stroke="midnightblue" points="714.76,-554.5 724.76,-551 714.76,-547.5 714.76,-554.5"/>
</g>
<!-- Node11 -->
<g id="node11" class="node">
<title>Node11</title>
<g id="a_node11"><a xlink:href="system_8c.html#a87108946670b4c3afbe846c6726675ff" target="_top" xlink:title=" ">
<polygon fill="white" stroke="black" points="856,-588.5 856,-607.5 906,-607.5 906,-588.5 856,-588.5"/>
<text text-anchor="middle" x="881" y="-595.5" font-family="Helvetica,sans-Serif" font-size="10.00">putline</text>
</a>
</g>
</g>
<!-- Node10&#45;&gt;Node11 -->
<g id="edge10" class="edge">
<title>Node10&#45;&gt;Node11</title>
<path fill="none" stroke="midnightblue" d="M812.25,-598C823.22,-598 835.09,-598 845.77,-598"/>
<polygon fill="midnightblue" stroke="midnightblue" points="845.99,-601.5 855.99,-598 845.99,-594.5 845.99,-601.5"/>
</g>
<!-- Node15&#45;&gt;Node10 -->
<g id="edge16" class="edge">
<title>Node15&#45;&gt;Node10</title>
<path fill="none" stroke="midnightblue" d="M651.14,-606.02C671.51,-604.67 699.05,-602.83 722.64,-601.26"/>
<polygon fill="midnightblue" stroke="midnightblue" points="723.07,-604.74 732.82,-600.58 722.61,-597.75 723.07,-604.74"/>
</g>
<!-- Node19 -->
<g id="node19" class="node">
<title>Node19</title>
<g id="a_node19"><a xlink:href="mpsort_8c.html#a1a8e018f314b372820222a2839803251" target="_top" xlink:title=" ">
<polygon fill="white" stroke="black" points="379.5,-0.5 379.5,-19.5 515.5,-19.5 515.5,-0.5 379.5,-0.5"/>
<text text-anchor="middle" x="447.5" y="-7.5" font-family="Helvetica,sans-Serif" font-size="10.00">_mpsort_mpi_parse_env</text>
</a>
</g>
</g>
<!-- Node18&#45;&gt;Node19 -->
<g id="edge20" class="edge">
<title>Node18&#45;&gt;Node19</title>
<path fill="none" stroke="midnightblue" d="M335.63,-11.85C346.62,-11.67 358.05,-11.48 369.22,-11.29"/>
<polygon fill="midnightblue" stroke="midnightblue" points="369.45,-14.79 379.39,-11.12 369.33,-7.79 369.45,-14.79"/>
</g>
<!-- Node20 -->
<g id="node20" class="node">
<title>Node20</title>
<g id="a_node20"><a xlink:href="mpsort_8c.html#a96e6b1f50a1ee8f0838a530edd467747" target="_top" xlink:title=" ">
<polygon fill="white" stroke="black" points="552,-0.5 552,-19.5 689,-19.5 689,-0.5 552,-0.5"/>
<text text-anchor="middle" x="620.5" y="-7.5" font-family="Helvetica,sans-Serif" font-size="10.00">mpsort_mpi_set_options</text>
</a>
</g>
</g>
<!-- Node19&#45;&gt;Node20 -->
<g id="edge21" class="edge">
<title>Node19&#45;&gt;Node20</title>
<path fill="none" stroke="midnightblue" d="M515.59,-3.39C524.13,-3.26 532.93,-3.22 541.62,-3.27"/>
<polygon fill="midnightblue" stroke="midnightblue" points="541.72,-6.78 551.76,-3.38 541.8,0.22 541.72,-6.78"/>
</g>
<!-- Node20&#45;&gt;Node19 -->
<g id="edge22" class="edge">
<title>Node20&#45;&gt;Node19</title>
<path fill="none" stroke="midnightblue" d="M551.76,-16.62C543.2,-16.75 534.4,-16.78 525.72,-16.72"/>
<polygon fill="midnightblue" stroke="midnightblue" points="525.63,-13.22 515.59,-16.61 525.55,-20.22 525.63,-13.22"/>
</g>
<!-- Node21&#45;&gt;Node9 -->
<g id="edge30" class="edge">
<title>Node21&#45;&gt;Node9</title>
<path fill="none" stroke="midnightblue" d="M275.56,-370.65C293.08,-389.79 335.06,-432.73 379,-456 434.84,-485.57 457.48,-470.15 516,-494 544.66,-505.68 575.5,-523.39 595.98,-535.97"/>
<polygon fill="midnightblue" stroke="midnightblue" points="594.28,-539.04 604.62,-541.35 597.98,-533.09 594.28,-539.04"/>
</g>
<!-- Node22 -->
<g id="node22" class="node">
<title>Node22</title>
<g id="a_node22"><a xlink:href="mpsort_8c.html#a500fb0214182a2691d4fdf4680157015" target="_top" xlink:title=" ">
<polygon fill="white" stroke="black" points="390,-199.5 390,-218.5 505,-218.5 505,-199.5 390,-199.5"/>
<text text-anchor="middle" x="447.5" y="-206.5" font-family="Helvetica,sans-Serif" font-size="10.00">_find_Pmax_Pmin_C</text>
</a>
</g>
</g>
<!-- Node21&#45;&gt;Node22 -->
<g id="edge24" class="edge">
<title>Node21&#45;&gt;Node22</title>
<path fill="none" stroke="midnightblue" d="M329.18,-351.39C334.23,-348.91 338.94,-345.82 343,-342 381.7,-305.59 340.84,-264.97 379,-228 380.63,-226.42 382.39,-224.96 384.24,-223.63"/>
<polygon fill="midnightblue" stroke="midnightblue" points="386.05,-226.62 392.87,-218.51 382.49,-220.6 386.05,-226.62"/>
</g>
<!-- Node23 -->
<g id="node23" class="node">
<title>Node23</title>
<g id="a_node23"><a xlink:href="mpsort_8c.html#ab4e63075c93d64510897e41bcf928eff" target="_top" xlink:title=" ">
<polygon fill="white" stroke="black" points="412,-161.5 412,-180.5 483,-180.5 483,-161.5 412,-161.5"/>
<text text-anchor="middle" x="447.5" y="-168.5" font-family="Helvetica,sans-Serif" font-size="10.00">_histogram</text>
</a>
</g>
</g>
<!-- Node21&#45;&gt;Node23 -->
<g id="edge25" class="edge">
<title>Node21&#45;&gt;Node23</title>
<path fill="none" stroke="midnightblue" d="M330.21,-351.32C334.92,-348.84 339.27,-345.77 343,-342 391.78,-292.61 330.95,-240.11 379,-190 385.24,-183.49 393.53,-179.15 402.15,-176.28"/>
<polygon fill="midnightblue" stroke="midnightblue" points="403.21,-179.62 411.94,-173.62 401.37,-172.87 403.21,-179.62"/>
</g>
<!-- Node26 -->
<g id="node26" class="node">
<title>Node26</title>
<g id="a_node26"><a xlink:href="mpsort_8c.html#a529cae9b31fc0b9fbcf7509a616b114f" target="_top" xlink:title=" ">
<polygon fill="white" stroke="black" points="384,-503.5 384,-522.5 511,-522.5 511,-503.5 384,-503.5"/>
<text text-anchor="middle" x="447.5" y="-510.5" font-family="Helvetica,sans-Serif" font-size="10.00">_solve_for_layout_mpi</text>
</a>
</g>
</g>
<!-- Node21&#45;&gt;Node26 -->
<g id="edge28" class="edge">
<title>Node21&#45;&gt;Node26</title>
<path fill="none" stroke="midnightblue" d="M272.82,-370.51C287.64,-393.97 329.17,-455.15 379,-489 385.15,-493.18 392.12,-496.72 399.17,-499.68"/>
<polygon fill="midnightblue" stroke="midnightblue" points="398.2,-503.06 408.79,-503.38 400.71,-496.53 398.2,-503.06"/>
</g>
<!-- Node27 -->
<g id="node27" class="node">
<title>Node27</title>
<g id="a_node27"><a xlink:href="system_8c.html#a3ceeaa7b959adb85bf1cfc731bc5c7ec" target="_top" xlink:title=" ">
<polygon fill="white" stroke="black" points="390.5,-123.5 390.5,-142.5 504.5,-142.5 504.5,-123.5 390.5,-123.5"/>
<text text-anchor="middle" x="447.5" y="-130.5" font-family="Helvetica,sans-Serif" font-size="10.00">MPI_Alltoallv_smart</text>
</a>
</g>
</g>
<!-- Node21&#45;&gt;Node27 -->
<g id="edge31" class="edge">
<title>Node21&#45;&gt;Node27</title>
<path fill="none" stroke="midnightblue" d="M330.76,-351.31C335.28,-348.82 339.45,-345.76 343,-342 401.99,-279.5 320.93,-215.36 379,-152 380.22,-150.67 381.52,-149.44 382.89,-148.28"/>
<polygon fill="midnightblue" stroke="midnightblue" points="385.07,-151.04 391.42,-142.56 381.17,-145.22 385.07,-151.04"/>
</g>
<!-- Node29 -->
<g id="node29" class="node">
<title>Node29</title>
<g id="a_node29"><a xlink:href="mpsort_8c.html#ad05f4430d39240d5852c75387ed6ff9d" target="_top" xlink:title=" ">
<polygon fill="white" stroke="black" points="379,-427.5 379,-446.5 516,-446.5 516,-427.5 379,-427.5"/>
<text text-anchor="middle" x="447.5" y="-434.5" font-family="Helvetica,sans-Serif" font-size="10.00">mpsort_increment_timer</text>
</a>
</g>
</g>
<!-- Node21&#45;&gt;Node29 -->
<g id="edge33" class="edge">
<title>Node21&#45;&gt;Node29</title>
<path fill="none" stroke="midnightblue" d="M283.23,-370.54C304.61,-382.81 343.64,-404.18 379,-418 384.95,-420.33 391.3,-422.5 397.64,-424.48"/>
<polygon fill="midnightblue" stroke="midnightblue" points="396.93,-427.92 407.52,-427.43 398.94,-421.22 396.93,-427.92"/>
</g>
<!-- Node30 -->
<g id="node30" class="node">
<title>Node30</title>
<g id="a_node30"><a xlink:href="mpsort_8c.html#a1673758d9c9c2a5a8492154f9f47c4dd" target="_top" xlink:title=" ">
<polygon fill="white" stroke="black" points="409,-389.5 409,-408.5 486,-408.5 486,-389.5 409,-389.5"/>
<text text-anchor="middle" x="447.5" y="-396.5" font-family="Helvetica,sans-Serif" font-size="10.00">piter_accept</text>
</a>
</g>
</g>
<!-- Node21&#45;&gt;Node30 -->
<g id="edge34" class="edge">
<title>Node21&#45;&gt;Node30</title>
<path fill="none" stroke="midnightblue" d="M312.3,-370.59C338.73,-376.18 372.04,-383.24 398.86,-388.91"/>
<polygon fill="midnightblue" stroke="midnightblue" points="398.29,-392.37 408.8,-391.02 399.74,-385.52 398.29,-392.37"/>
</g>
<!-- Node31 -->
<g id="node31" class="node">
<title>Node31</title>
<g id="a_node31"><a xlink:href="mpsort_8c.html#af47cf1d8fb1c0e1fb17384a41fea053b" target="_top" xlink:title=" ">
<polygon fill="white" stroke="black" points="404.5,-351.5 404.5,-370.5 490.5,-370.5 490.5,-351.5 404.5,-351.5"/>
<text text-anchor="middle" x="447.5" y="-358.5" font-family="Helvetica,sans-Serif" font-size="10.00">piter_all_done</text>
</a>
</g>
</g>
<!-- Node21&#45;&gt;Node31 -->
<g id="edge35" class="edge">
<title>Node21&#45;&gt;Node31</title>
<path fill="none" stroke="midnightblue" d="M343.12,-361C360.37,-361 378.3,-361 394.29,-361"/>
<polygon fill="midnightblue" stroke="midnightblue" points="394.49,-364.5 404.49,-361 394.49,-357.5 394.49,-364.5"/>
</g>
<!-- Node32 -->
<g id="node32" class="node">
<title>Node32</title>
<g id="a_node32"><a xlink:href="mpsort_8c.html#ae3769c1226b1f43a5d4dde6a3d8c0a03" target="_top" xlink:title=" ">
<polygon fill="white" stroke="black" points="410.5,-313.5 410.5,-332.5 484.5,-332.5 484.5,-313.5 410.5,-313.5"/>
<text text-anchor="middle" x="447.5" y="-320.5" font-family="Helvetica,sans-Serif" font-size="10.00">piter_bisect</text>
</a>
</g>
</g>
<!-- Node21&#45;&gt;Node32 -->
<g id="edge36" class="edge">
<title>Node21&#45;&gt;Node32</title>
<path fill="none" stroke="midnightblue" d="M312.3,-351.41C339.19,-345.72 373.2,-338.52 400.26,-332.79"/>
<polygon fill="midnightblue" stroke="midnightblue" points="401.2,-336.17 410.26,-330.67 399.75,-329.32 401.2,-336.17"/>
</g>
<!-- Node33 -->
<g id="node33" class="node">
<title>Node33</title>
<g id="a_node33"><a xlink:href="mpsort_8c.html#a9dac334cbb0f43269b4bf7dd392e080f" target="_top" xlink:title=" ">
<polygon fill="white" stroke="black" points="407,-275.5 407,-294.5 488,-294.5 488,-275.5 407,-275.5"/>
<text text-anchor="middle" x="447.5" y="-282.5" font-family="Helvetica,sans-Serif" font-size="10.00">piter_destroy</text>
</a>
</g>
</g>
<!-- Node21&#45;&gt;Node33 -->
<g id="edge37" class="edge">
<title>Node21&#45;&gt;Node33</title>
<path fill="none" stroke="midnightblue" d="M321.24,-351.49C328.83,-349.02 336.31,-345.91 343,-342 363.09,-330.27 359.09,-316.03 379,-304 384.54,-300.65 390.69,-297.88 396.96,-295.58"/>
<polygon fill="midnightblue" stroke="midnightblue" points="398.41,-298.79 406.83,-292.35 396.24,-292.13 398.41,-298.79"/>
</g>
<!-- Node34 -->
<g id="node34" class="node">
<title>Node34</title>
<g id="a_node34"><a xlink:href="mpsort_8c.html#a803c83a4b162dfe74dc5e91d60e10b0e" target="_top" xlink:title=" ">
<polygon fill="white" stroke="black" points="417.5,-237.5 417.5,-256.5 477.5,-256.5 477.5,-237.5 417.5,-237.5"/>
<text text-anchor="middle" x="447.5" y="-244.5" font-family="Helvetica,sans-Serif" font-size="10.00">piter_init</text>
</a>
</g>
</g>
<!-- Node21&#45;&gt;Node34 -->
<g id="edge38" class="edge">
<title>Node21&#45;&gt;Node34</title>
<path fill="none" stroke="midnightblue" d="M327.13,-351.46C332.85,-348.98 338.27,-345.88 343,-342 371.9,-318.3 350.45,-290.12 379,-266 387.02,-259.22 397.3,-254.86 407.4,-252.05"/>
<polygon fill="midnightblue" stroke="midnightblue" points="408.42,-255.4 417.36,-249.72 406.83,-248.59 408.42,-255.4"/>
</g>
<!-- Node35 -->
<g id="node35" class="node">
<title>Node35</title>
<g id="a_node35"><a xlink:href="mpsort_8c.html#a3b1f445b7875cc43677232a7e1d14fec" target="_top" xlink:title=" ">
<polygon fill="white" stroke="black" points="415,-82.5 415,-101.5 480,-101.5 480,-82.5 415,-82.5"/>
<text text-anchor="middle" x="447.5" y="-89.5" font-family="Helvetica,sans-Serif" font-size="10.00">radix_sort</text>
</a>
</g>
</g>
<!-- Node21&#45;&gt;Node35 -->
<g id="edge39" class="edge">
<title>Node21&#45;&gt;Node35</title>
<path fill="none" stroke="midnightblue" d="M330.88,-351.43C335.38,-348.91 339.51,-345.81 343,-342 412.27,-266.33 312.43,-192.06 379,-114 385.72,-106.12 395.3,-101.05 405.13,-97.78"/>
<polygon fill="midnightblue" stroke="midnightblue" points="406.24,-101.11 414.96,-95.08 404.39,-94.36 406.24,-101.11"/>
</g>
<!-- Node24 -->
<g id="node24" class="node">
<title>Node24</title>
<g id="a_node24"><a xlink:href="mpsort_8c.html#a445c7a308e96e7b2294aea2f065cdaee" target="_top" xlink:title=" ">
<polygon fill="white" stroke="black" points="571.5,-164.5 571.5,-183.5 669.5,-183.5 669.5,-164.5 571.5,-164.5"/>
<text text-anchor="middle" x="620.5" y="-171.5" font-family="Helvetica,sans-Serif" font-size="10.00">_bsearch_last_le</text>
</a>
</g>
</g>
<!-- Node23&#45;&gt;Node24 -->
<g id="edge26" class="edge">
<title>Node23&#45;&gt;Node24</title>
<path fill="none" stroke="midnightblue" d="M483.1,-171.61C505.5,-172 535.23,-172.52 561.22,-172.98"/>
<polygon fill="midnightblue" stroke="midnightblue" points="561.28,-176.48 571.34,-173.16 561.4,-169.48 561.28,-176.48"/>
</g>
<!-- Node25 -->
<g id="node25" class="node">
<title>Node25</title>
<g id="a_node25"><a xlink:href="mpsort_8c.html#adbef8a66fa086066791a9596e3ce2aa3" target="_top" xlink:title=" ">
<polygon fill="white" stroke="black" points="573,-202.5 573,-221.5 668,-221.5 668,-202.5 573,-202.5"/>
<text text-anchor="middle" x="620.5" y="-209.5" font-family="Helvetica,sans-Serif" font-size="10.00">_bsearch_last_lt</text>
</a>
</g>
</g>
<!-- Node23&#45;&gt;Node25 -->
<g id="edge27" class="edge">
<title>Node23&#45;&gt;Node25</title>
<path fill="none" stroke="midnightblue" d="M483.1,-179.3C508.05,-185.28 542.08,-193.44 569.91,-200.11"/>
<polygon fill="midnightblue" stroke="midnightblue" points="569.32,-203.57 579.86,-202.49 570.95,-196.76 569.32,-203.57"/>
</g>
<!-- Node26&#45;&gt;Node9 -->
<g id="edge29" class="edge">
<title>Node26&#45;&gt;Node9</title>
<path fill="none" stroke="midnightblue" d="M491.65,-522.59C520.65,-529.03 558.34,-537.41 585.27,-543.39"/>
<polygon fill="midnightblue" stroke="midnightblue" points="584.86,-546.89 595.39,-545.64 586.38,-540.06 584.86,-546.89"/>
</g>
<!-- Node28 -->
<g id="node28" class="node">
<title>Node28</title>
<g id="a_node28"><a xlink:href="system_8c.html#a0233ee60e9c4f0a8dbe43e1c662231c6" target="_top" xlink:title=" ">
<polygon fill="white" stroke="black" points="561.5,-126.5 561.5,-145.5 679.5,-145.5 679.5,-126.5 561.5,-126.5"/>
<text text-anchor="middle" x="620.5" y="-133.5" font-family="Helvetica,sans-Serif" font-size="10.00">MPI_Alltoallv_sparse</text>
</a>
</g>
</g>
<!-- Node27&#45;&gt;Node28 -->
<g id="edge32" class="edge">
<title>Node27&#45;&gt;Node28</title>
<path fill="none" stroke="midnightblue" d="M504.97,-133.99C519.67,-134.25 535.67,-134.53 550.92,-134.8"/>
<polygon fill="midnightblue" stroke="midnightblue" points="551.28,-138.3 561.34,-134.98 551.4,-131.3 551.28,-138.3"/>
</g>
<!-- Node35&#45;&gt;Node13 -->
<g id="edge41" class="edge">
<title>Node35&#45;&gt;Node13</title>
<path fill="none" stroke="midnightblue" d="M480.26,-83.83C506.18,-77.16 543.18,-67.64 572.53,-60.09"/>
<polygon fill="midnightblue" stroke="midnightblue" points="573.74,-63.39 582.56,-57.51 572,-56.61 573.74,-63.39"/>
</g>
<!-- Node36 -->
<g id="node36" class="node">
<title>Node36</title>
<g id="a_node36"><a xlink:href="mpsort_8c.html#aebc941a39f829b84de4e1627bbd07939" target="_top" xlink:title=" ">
<polygon fill="white" stroke="black" points="555.5,-77 555.5,-107 685.5,-107 685.5,-77 555.5,-77"/>
<text text-anchor="start" x="563.5" y="-95" font-family="Helvetica,sans-Serif" font-size="10.00">_compute_and_compar</text>
<text text-anchor="middle" x="620.5" y="-84" font-family="Helvetica,sans-Serif" font-size="10.00">_radix</text>
</a>
</g>
</g>
<!-- Node35&#45;&gt;Node36 -->
<g id="edge40" class="edge">
<title>Node35&#45;&gt;Node36</title>
<path fill="none" stroke="midnightblue" d="M480.26,-92C498.6,-92 522.49,-92 545.29,-92"/>
<polygon fill="midnightblue" stroke="midnightblue" points="545.32,-95.5 555.32,-92 545.32,-88.5 545.32,-95.5"/>
</g>
</g>
</svg>
