<?xml version="1.0" encoding="UTF-8" standalone="no"?>
<!DOCTYPE svg PUBLIC "-//W3C//DTD SVG 1.1//EN"
 "http://www.w3.org/Graphics/SVG/1.1/DTD/svg11.dtd">
<!-- Generated by graphviz version 2.38.0 (20140413.2041)
 -->
<!-- Title: mymalloc_init Pages: 1 -->
<svg width="539pt" height="552pt"
 viewBox="0.00 0.00 538.53 551.95" xmlns="http://www.w3.org/2000/svg" xmlns:xlink="http://www.w3.org/1999/xlink">
<g id="graph0" class="graph" transform="scale(1 1) rotate(0) translate(4 547.948)">
<title>mymalloc_init</title>
<polygon fill="white" stroke="none" points="-4,4 -4,-547.948 534.531,-547.948 534.531,4 -4,4"/>
<!-- Node0 -->
<g id="node1" class="node"><title>Node0</title>
<polygon fill="#bfbfbf" stroke="black" points="347.422,-184.622 347.422,-203.622 424.422,-203.622 424.422,-184.622 347.422,-184.622"/>
<text text-anchor="middle" x="385.922" y="-191.622" font-family="Helvetica,sans-Serif" font-size="10.00">mymalloc_init</text>
</g>
<!-- Node1 -->
<g id="node2" class="node"><title>Node1</title>
<g id="a_node2"><a xlink:href="memory_8c.html#ae9dbe59bb9b57ef02f0dacca0f54b6ad" target="_top" xlink:title="allocator_init">
<polygon fill="white" stroke="black" points="276.431,-208.06 276.431,-227.06 347.431,-227.06 347.431,-208.06 276.431,-208.06"/>
<text text-anchor="middle" x="311.931" y="-215.06" font-family="Helvetica,sans-Serif" font-size="10.00">allocator_init</text>
</a>
</g>
</g>
<!-- Node0&#45;&gt;Node1 -->
<g id="edge1" class="edge"><title>Node0&#45;&gt;Node1</title>
<path fill="none" stroke="midnightblue" d="M355.827,-203.655C354.566,-204.054 353.295,-204.457 352.019,-204.861"/>
<polygon fill="midnightblue" stroke="midnightblue" points="350.715,-201.603 342.239,-207.959 352.829,-208.276 350.715,-201.603"/>
</g>
<!-- Node11 -->
<g id="node12" class="node"><title>Node11</title>
<g id="a_node12"><a xlink:href="endrun_8c.html#a6567cd867c5549fb6586e19ccd819764" target="_top" xlink:title="message">
<polygon fill="white" stroke="black" points="20.781,-262.474 20.781,-281.474 76.781,-281.474 76.781,-262.474 20.781,-262.474"/>
<text text-anchor="middle" x="48.781" y="-269.474" font-family="Helvetica,sans-Serif" font-size="10.00">message</text>
</a>
</g>
</g>
<!-- Node0&#45;&gt;Node11 -->
<g id="edge22" class="edge"><title>Node0&#45;&gt;Node11</title>
<path fill="none" stroke="midnightblue" d="M347.247,-203.052C282.069,-218.103 151.15,-248.335 86.5715,-263.247"/>
<polygon fill="midnightblue" stroke="midnightblue" points="85.7529,-259.844 76.7969,-265.505 87.328,-266.665 85.7529,-259.844"/>
</g>
<!-- Node15 -->
<g id="node16" class="node"><title>Node15</title>
<g id="a_node16"><a xlink:href="endrun_8c.html#ad963d7efdb9f10f7a2298c8ccd222ab0" target="_top" xlink:title="endrun">
<polygon fill="white" stroke="black" points="147.481,-153.646 147.481,-172.646 193.481,-172.646 193.481,-153.646 147.481,-153.646"/>
<text text-anchor="middle" x="170.481" y="-160.646" font-family="Helvetica,sans-Serif" font-size="10.00">endrun</text>
</a>
</g>
</g>
<!-- Node0&#45;&gt;Node15 -->
<g id="edge21" class="edge"><title>Node0&#45;&gt;Node15</title>
<path fill="none" stroke="midnightblue" d="M347.405,-188.584C306.582,-182.714 242.764,-173.539 203.964,-167.96"/>
<polygon fill="midnightblue" stroke="midnightblue" points="204.12,-164.447 193.724,-166.488 203.124,-171.376 204.12,-164.447"/>
</g>
<!-- Node17 -->
<g id="node18" class="node"><title>Node17</title>
<g id="a_node18"><a xlink:href="system_8c.html#a4365a9ce4f8cba8dc72678150344c37b" target="_top" xlink:title="cluster_get_num_hosts">
<polygon fill="white" stroke="black" points="347.231,-99.2321 347.231,-118.232 465.231,-118.232 465.231,-99.2321 347.231,-99.2321"/>
<text text-anchor="middle" x="406.231" y="-106.232" font-family="Helvetica,sans-Serif" font-size="10.00">cluster_get_num_hosts</text>
</a>
</g>
</g>
<!-- Node0&#45;&gt;Node17 -->
<g id="edge19" class="edge"><title>Node0&#45;&gt;Node17</title>
<path fill="none" stroke="midnightblue" d="M388.251,-184.326C391.496,-170.686 397.444,-145.678 401.607,-128.174"/>
<polygon fill="midnightblue" stroke="midnightblue" points="405.019,-128.952 403.928,-118.413 398.209,-127.332 405.019,-128.952"/>
</g>
<!-- Node19 -->
<g id="node20" class="node"><title>Node19</title>
<g id="a_node20"><a xlink:href="system_8c.html#ade2741449d03e719e2e91a6e511e07a4" target="_top" xlink:title="MPIU_Any">
<polygon fill="white" stroke="black" points="439.531,-201.62 439.531,-220.62 504.531,-220.62 504.531,-201.62 439.531,-201.62"/>
<text text-anchor="middle" x="472.031" y="-208.62" font-family="Helvetica,sans-Serif" font-size="10.00">MPIU_Any</text>
</a>
</g>
</g>
<!-- Node0&#45;&gt;Node19 -->
<g id="edge23" class="edge"><title>Node0&#45;&gt;Node19</title>
<path fill="none" stroke="midnightblue" d="M424.443,-201.726C426.167,-202.066 427.901,-202.408 429.633,-202.75"/>
<polygon fill="midnightblue" stroke="midnightblue" points="428.973,-206.188 439.462,-204.691 430.329,-199.32 428.973,-206.188"/>
</g>
<!-- Node2 -->
<g id="node3" class="node"><title>Node2</title>
<g id="a_node3"><a xlink:href="memory_8c.html#a781f982d26f3b8ef0d7d283c8e92203f" target="_top" xlink:title="allocator_alloc">
<polygon fill="white" stroke="black" points="225.281,-262.474 225.281,-281.474 304.281,-281.474 304.281,-262.474 225.281,-262.474"/>
<text text-anchor="middle" x="264.781" y="-269.474" font-family="Helvetica,sans-Serif" font-size="10.00">allocator_alloc</text>
</a>
</g>
</g>
<!-- Node1&#45;&gt;Node2 -->
<g id="edge2" class="edge"><title>Node1&#45;&gt;Node2</title>
<path fill="none" stroke="midnightblue" d="M303.502,-227.288C296.931,-234.871 287.638,-245.596 279.803,-254.638"/>
<polygon fill="midnightblue" stroke="midnightblue" points="277.041,-252.481 273.138,-262.33 282.331,-257.065 277.041,-252.481"/>
</g>
<!-- Node16 -->
<g id="node17" class="node"><title>Node16</title>
<g id="a_node17"><a xlink:href="memory_8c.html#a645e6ff1388809bd634f6d29e97db28c" target="_top" xlink:title="allocator_reset">
<polygon fill="white" stroke="black" points="245.274,-119.94 245.274,-138.94 325.274,-138.94 325.274,-119.94 245.274,-119.94"/>
<text text-anchor="middle" x="285.274" y="-126.94" font-family="Helvetica,sans-Serif" font-size="10.00">allocator_reset</text>
</a>
</g>
</g>
<!-- Node1&#45;&gt;Node16 -->
<g id="edge18" class="edge"><title>Node1&#45;&gt;Node16</title>
<path fill="none" stroke="midnightblue" d="M308.976,-207.793C304.67,-193.558 296.584,-166.827 291.066,-148.584"/>
<polygon fill="midnightblue" stroke="midnightblue" points="294.407,-147.541 288.161,-138.983 287.707,-149.568 294.407,-147.541"/>
</g>
<!-- Node3 -->
<g id="node4" class="node"><title>Node3</title>
<g id="a_node4"><a xlink:href="memory_8c.html#a80b268139c845d6fff8127fdc3fe4a33" target="_top" xlink:title="allocator_alloc_va">
<polygon fill="white" stroke="black" points="170.131,-316.888 170.131,-335.888 265.131,-335.888 265.131,-316.888 170.131,-316.888"/>
<text text-anchor="middle" x="217.631" y="-323.888" font-family="Helvetica,sans-Serif" font-size="10.00">allocator_alloc_va</text>
</a>
</g>
</g>
<!-- Node2&#45;&gt;Node3 -->
<g id="edge3" class="edge"><title>Node2&#45;&gt;Node3</title>
<path fill="none" stroke="midnightblue" d="M256.352,-281.702C249.781,-289.285 240.488,-300.01 232.653,-309.052"/>
<polygon fill="midnightblue" stroke="midnightblue" points="229.891,-306.895 225.988,-316.744 235.181,-311.479 229.891,-306.895"/>
</g>
<!-- Node4 -->
<g id="node5" class="node"><title>Node4</title>
<g id="a_node5"><a xlink:href="memory_8c.html#ac6472b7ca5b76ef02be3795ca8863fae" target="_top" xlink:title="allocator_print">
<polygon fill="white" stroke="black" points="205.788,-405.008 205.788,-424.008 282.788,-424.008 282.788,-405.008 205.788,-405.008"/>
<text text-anchor="middle" x="244.288" y="-412.008" font-family="Helvetica,sans-Serif" font-size="10.00">allocator_print</text>
</a>
</g>
</g>
<!-- Node3&#45;&gt;Node4 -->
<g id="edge4" class="edge"><title>Node3&#45;&gt;Node4</title>
<path fill="none" stroke="midnightblue" d="M220.586,-336.155C224.892,-350.39 232.978,-377.121 238.496,-395.364"/>
<polygon fill="midnightblue" stroke="midnightblue" points="235.155,-396.407 241.401,-404.965 241.855,-394.38 235.155,-396.407"/>
</g>
<!-- Node3&#45;&gt;Node15 -->
<g id="edge16" class="edge"><title>Node3&#45;&gt;Node15</title>
<path fill="none" stroke="midnightblue" d="M214.823,-316.665C207.274,-290.528 186.427,-218.353 176.238,-183.076"/>
<polygon fill="midnightblue" stroke="midnightblue" points="179.472,-181.66 173.334,-173.024 172.747,-183.603 179.472,-181.66"/>
</g>
<!-- Node5 -->
<g id="node6" class="node"><title>Node5</title>
<g id="a_node6"><a xlink:href="memory_8c.html#a7d147e0f7a869dd7c832a77fa7374772" target="_top" xlink:title="allocator_get_free_size">
<polygon fill="white" stroke="black" points="413.531,-323.328 413.531,-342.328 530.531,-342.328 530.531,-323.328 413.531,-323.328"/>
<text text-anchor="middle" x="472.031" y="-330.328" font-family="Helvetica,sans-Serif" font-size="10.00">allocator_get_free_size</text>
</a>
</g>
</g>
<!-- Node4&#45;&gt;Node5 -->
<g id="edge5" class="edge"><title>Node4&#45;&gt;Node5</title>
<path fill="none" stroke="midnightblue" d="M270.859,-404.979C311.633,-390.355 389.73,-362.346 435.704,-345.857"/>
<polygon fill="midnightblue" stroke="midnightblue" points="437.047,-349.094 445.278,-342.423 434.683,-342.505 437.047,-349.094"/>
</g>
<!-- Node6 -->
<g id="node7" class="node"><title>Node6</title>
<g id="a_node7"><a xlink:href="memory_8c.html#ae8ed0c76854687599e00d825e3d1ec4b" target="_top" xlink:title="allocator_get_used_size">
<polygon fill="white" stroke="black" points="345.231,-425.716 345.231,-444.716 467.231,-444.716 467.231,-425.716 345.231,-425.716"/>
<text text-anchor="middle" x="406.231" y="-432.716" font-family="Helvetica,sans-Serif" font-size="10.00">allocator_get_used_size</text>
</a>
</g>
</g>
<!-- Node4&#45;&gt;Node6 -->
<g id="edge6" class="edge"><title>Node4&#45;&gt;Node6</title>
<path fill="none" stroke="midnightblue" d="M283.077,-419.468C298.565,-421.449 316.909,-423.794 334.645,-426.062"/>
<polygon fill="midnightblue" stroke="midnightblue" points="334.628,-429.588 344.991,-427.385 335.516,-422.645 334.628,-429.588"/>
</g>
<!-- Node7 -->
<g id="node8" class="node"><title>Node7</title>
<g id="a_node8"><a xlink:href="memory_8c.html#af219c7066531e1f24d914b86e51406e8" target="_top" xlink:title="allocator_iter_ended">
<polygon fill="white" stroke="black" points="243.521,-476.275 243.521,-495.275 347.521,-495.275 347.521,-476.275 243.521,-476.275"/>
<text text-anchor="middle" x="295.521" y="-483.275" font-family="Helvetica,sans-Serif" font-size="10.00">allocator_iter_ended</text>
</a>
</g>
</g>
<!-- Node4&#45;&gt;Node7 -->
<g id="edge7" class="edge"><title>Node4&#45;&gt;Node7</title>
<path fill="none" stroke="midnightblue" d="M251.197,-424.12C259.174,-435.215 272.471,-453.712 282.424,-467.557"/>
<polygon fill="midnightblue" stroke="midnightblue" points="279.713,-469.782 288.392,-475.859 285.397,-465.696 279.713,-469.782"/>
</g>
<!-- Node8 -->
<g id="node9" class="node"><title>Node8</title>
<g id="a_node9"><a xlink:href="memory_8c.html#a1071a12fb6ee5a98c249cbcd497bfdd0" target="_top" xlink:title="allocator_iter_next">
<polygon fill="white" stroke="black" points="127.051,-458.955 127.051,-477.955 223.051,-477.955 223.051,-458.955 127.051,-458.955"/>
<text text-anchor="middle" x="175.051" y="-465.955" font-family="Helvetica,sans-Serif" font-size="10.00">allocator_iter_next</text>
</a>
</g>
</g>
<!-- Node4&#45;&gt;Node8 -->
<g id="edge8" class="edge"><title>Node4&#45;&gt;Node8</title>
<path fill="none" stroke="midnightblue" d="M231.91,-424.153C221.769,-432.054 207.212,-443.396 195.367,-452.626"/>
<polygon fill="midnightblue" stroke="midnightblue" points="193.059,-449.986 187.322,-458.894 197.362,-455.508 193.059,-449.986"/>
</g>
<!-- Node10 -->
<g id="node11" class="node"><title>Node10</title>
<g id="a_node11"><a xlink:href="memory_8c.html#ad4519ad28c6b5c244e6d82f37f1698f6" target="_top" xlink:title="allocator_iter_start">
<polygon fill="white" stroke="black" points="34.5703,-379.252 34.5703,-398.252 131.57,-398.252 131.57,-379.252 34.5703,-379.252"/>
<text text-anchor="middle" x="83.0703" y="-386.252" font-family="Helvetica,sans-Serif" font-size="10.00">allocator_iter_start</text>
</a>
</g>
</g>
<!-- Node4&#45;&gt;Node10 -->
<g id="edge10" class="edge"><title>Node4&#45;&gt;Node10</title>
<path fill="none" stroke="midnightblue" d="M205.672,-408.339C186.533,-405.281 163.011,-401.524 141.706,-398.12"/>
<polygon fill="midnightblue" stroke="midnightblue" points="142.204,-394.655 131.777,-396.534 141.1,-401.568 142.204,-394.655"/>
</g>
<!-- Node4&#45;&gt;Node11 -->
<g id="edge12" class="edge"><title>Node4&#45;&gt;Node11</title>
<path fill="none" stroke="midnightblue" d="M231.156,-404.935C197.975,-380.744 110.529,-316.991 69.9829,-287.431"/>
<polygon fill="midnightblue" stroke="midnightblue" points="71.9976,-284.569 61.8552,-281.506 67.8738,-290.225 71.9976,-284.569"/>
</g>
<!-- Node9 -->
<g id="node10" class="node"><title>Node9</title>
<g id="a_node10"><a xlink:href="memory_8c.html#a027cc6371b4b530bd0ab24021475ac98" target="_top" xlink:title="is_header">
<polygon fill="white" stroke="black" points="115.641,-524.448 115.641,-543.448 174.641,-543.448 174.641,-524.448 115.641,-524.448"/>
<text text-anchor="middle" x="145.141" y="-531.448" font-family="Helvetica,sans-Serif" font-size="10.00">is_header</text>
</a>
</g>
</g>
<!-- Node8&#45;&gt;Node9 -->
<g id="edge9" class="edge"><title>Node8&#45;&gt;Node9</title>
<path fill="none" stroke="midnightblue" d="M170.638,-478.118C166.22,-487.792 159.305,-502.934 153.79,-515.01"/>
<polygon fill="midnightblue" stroke="midnightblue" points="150.543,-513.694 149.573,-524.245 156.911,-516.602 150.543,-513.694"/>
</g>
<!-- Node10&#45;&gt;Node8 -->
<g id="edge11" class="edge"><title>Node10&#45;&gt;Node8</title>
<path fill="none" stroke="midnightblue" d="M94.3489,-398.525C109.811,-411.923 137.786,-436.164 156.393,-452.287"/>
<polygon fill="midnightblue" stroke="midnightblue" points="154.118,-454.947 163.968,-458.851 158.702,-449.657 154.118,-454.947"/>
</g>
<!-- Node12 -->
<g id="node13" class="node"><title>Node12</title>
<g id="a_node13"><a xlink:href="endrun_8c.html#a7267113a7c0a094743bb565eabc695d1" target="_top" xlink:title="messagev">
<polygon fill="white" stroke="black" points="92.3311,-99.2321 92.3311,-118.232 154.331,-118.232 154.331,-99.2321 92.3311,-99.2321"/>
<text text-anchor="middle" x="123.331" y="-106.232" font-family="Helvetica,sans-Serif" font-size="10.00">messagev</text>
</a>
</g>
</g>
<!-- Node11&#45;&gt;Node12 -->
<g id="edge13" class="edge"><title>Node11&#45;&gt;Node12</title>
<path fill="none" stroke="midnightblue" d="M53.2212,-262.251C65.2608,-235.888 98.6914,-162.685 114.644,-127.754"/>
<polygon fill="midnightblue" stroke="midnightblue" points="117.849,-129.161 118.82,-118.61 111.482,-126.253 117.849,-129.161"/>
</g>
<!-- Node13 -->
<g id="node14" class="node"><title>Node13</title>
<g id="a_node14"><a xlink:href="endrun_8c.html#a87108946670b4c3afbe846c6726675ff" target="_top" xlink:title="putline">
<polygon fill="white" stroke="black" points="0,-106.769 0,-125.769 45,-125.769 45,-106.769 0,-106.769"/>
<text text-anchor="middle" x="22.5" y="-113.769" font-family="Helvetica,sans-Serif" font-size="10.00">putline</text>
</a>
</g>
</g>
<!-- Node12&#45;&gt;Node13 -->
<g id="edge14" class="edge"><title>Node12&#45;&gt;Node13</title>
<path fill="none" stroke="midnightblue" d="M92.2557,-111.055C80.53,-111.932 67.1592,-112.931 55.2822,-113.819"/>
<polygon fill="midnightblue" stroke="midnightblue" points="55.0195,-110.329 45.3083,-114.564 55.5414,-117.309 55.0195,-110.329"/>
</g>
<!-- Node14 -->
<g id="node15" class="node"><title>Node14</title>
<g id="a_node15"><a xlink:href="endrun_8c.html#a1200f02a595ab7cbe17c9e36ff32af0f" target="_top" xlink:title="show_backtrace">
<polygon fill="white" stroke="black" points="101.141,-0.5 101.141,-19.5 189.141,-19.5 189.141,-0.5 101.141,-0.5"/>
<text text-anchor="middle" x="145.141" y="-7.5" font-family="Helvetica,sans-Serif" font-size="10.00">show_backtrace</text>
</a>
</g>
</g>
<!-- Node12&#45;&gt;Node14 -->
<g id="edge15" class="edge"><title>Node12&#45;&gt;Node14</title>
<path fill="none" stroke="midnightblue" d="M125.502,-98.9043C129.046,-82.8625 136.141,-50.7453 140.762,-29.8246"/>
<polygon fill="midnightblue" stroke="midnightblue" points="144.24,-30.3076 142.979,-19.788 137.405,-28.7976 144.24,-30.3076"/>
</g>
<!-- Node15&#45;&gt;Node12 -->
<g id="edge17" class="edge"><title>Node15&#45;&gt;Node12</title>
<path fill="none" stroke="midnightblue" d="M162.052,-153.418C155.481,-145.835 146.188,-135.11 138.353,-126.068"/>
<polygon fill="midnightblue" stroke="midnightblue" points="140.881,-123.642 131.688,-118.376 135.591,-128.226 140.881,-123.642"/>
</g>
<!-- Node18 -->
<g id="node19" class="node"><title>Node18</title>
<g id="a_node19"><a xlink:href="system_8c.html#a22d20b794f158a0b07087247de05d631" target="_top" xlink:title="cluster_get_hostid">
<polygon fill="white" stroke="black" points="405.381,-44.8181 405.381,-63.8181 501.381,-63.8181 501.381,-44.8181 405.381,-44.8181"/>
<text text-anchor="middle" x="453.381" y="-51.8181" font-family="Helvetica,sans-Serif" font-size="10.00">cluster_get_hostid</text>
</a>
</g>
</g>
<!-- Node17&#45;&gt;Node18 -->
<g id="edge20" class="edge"><title>Node17&#45;&gt;Node18</title>
<path fill="none" stroke="midnightblue" d="M414.66,-99.004C421.231,-91.4209 430.524,-80.6964 438.359,-71.6544"/>
<polygon fill="midnightblue" stroke="midnightblue" points="441.121,-73.8116 445.024,-63.962 435.831,-69.2275 441.121,-73.8116"/>
</g>
</g>
</svg>
