<?xml version="1.0" encoding="UTF-8" standalone="no"?>
<!DOCTYPE svg PUBLIC "-//W3C//DTD SVG 1.1//EN"
 "http://www.w3.org/Graphics/SVG/1.1/DTD/svg11.dtd">
<!-- Generated by graphviz version 2.50.0 (0)
 -->
<!-- Title: Jfrac_high Pages: 1 -->
<svg width="322pt" height="66pt"
 viewBox="0.00 0.00 322.00 66.00" xmlns="http://www.w3.org/2000/svg" xmlns:xlink="http://www.w3.org/1999/xlink">
<g id="graph0" class="graph" transform="scale(1 1) rotate(0) translate(4 62)">
<title>Jfrac_high</title>
<polygon fill="white" stroke="transparent" points="-4,4 -4,-62 318,-62 318,4 -4,4"/>
<!-- Node1 -->
<g id="node1" class="node">
<title>Node1</title>
<g id="a_node1"><a xlink:title=" ">
<polygon fill="#bfbfbf" stroke="black" points="0,-19.5 0,-38.5 65,-38.5 65,-19.5 0,-19.5"/>
<text text-anchor="middle" x="32.5" y="-26.5" font-family="Helvetica,sans-Serif" font-size="10.00">Jfrac_high</text>
</a>
</g>
</g>
<!-- Node2 -->
<g id="node2" class="node">
<title>Node2</title>
<g id="a_node2"><a xlink:href="neutrinos__lra_8c.html#a71cf99871c689e6e873699ea4ba33001" target="_top" xlink:title=" ">
<polygon fill="white" stroke="black" points="121.5,-38.5 121.5,-57.5 150.5,-57.5 150.5,-38.5 121.5,-38.5"/>
<text text-anchor="middle" x="136" y="-45.5" font-family="Helvetica,sans-Serif" font-size="10.00">II</text>
</a>
</g>
</g>
<!-- Node1&#45;&gt;Node2 -->
<g id="edge1" class="edge">
<title>Node1&#45;&gt;Node2</title>
<path fill="none" stroke="midnightblue" d="M65.06,-34.91C79.94,-37.69 97.39,-40.96 111.15,-43.53"/>
<polygon fill="midnightblue" stroke="midnightblue" points="110.79,-47.03 121.26,-45.43 112.08,-40.15 110.79,-47.03"/>
</g>
<!-- Node3 -->
<g id="node3" class="node">
<title>Node3</title>
<g id="a_node3"><a xlink:href="omega__nu__single_8c.html#ac9ec0ac3a0e6b3ea5099340b84a9a0a1" target="_top" xlink:title=" ">
<polygon fill="white" stroke="black" points="101,-0.5 101,-19.5 171,-19.5 171,-0.5 101,-0.5"/>
<text text-anchor="middle" x="136" y="-7.5" font-family="Helvetica,sans-Serif" font-size="10.00">nufrac_low</text>
</a>
</g>
</g>
<!-- Node1&#45;&gt;Node3 -->
<g id="edge2" class="edge">
<title>Node1&#45;&gt;Node3</title>
<path fill="none" stroke="midnightblue" d="M65.06,-23.09C73.26,-21.56 82.24,-19.88 90.95,-18.25"/>
<polygon fill="midnightblue" stroke="midnightblue" points="91.81,-21.65 100.99,-16.37 90.52,-14.77 91.81,-21.65"/>
</g>
<!-- Node4 -->
<g id="node4" class="node">
<title>Node4</title>
<g id="a_node4"><a xlink:href="omega__nu__single_8c.html#acaec75d525000fc8a15826ba7818fa6c" target="_top" xlink:title=" ">
<polygon fill="white" stroke="black" points="207,-0.5 207,-19.5 314,-19.5 314,-0.5 207,-0.5"/>
<text text-anchor="middle" x="260.5" y="-7.5" font-family="Helvetica,sans-Serif" font-size="10.00">fermi_dirac_kernel</text>
</a>
</g>
</g>
<!-- Node3&#45;&gt;Node4 -->
<g id="edge3" class="edge">
<title>Node3&#45;&gt;Node4</title>
<path fill="none" stroke="midnightblue" d="M171.12,-10C179.06,-10 187.76,-10 196.51,-10"/>
<polygon fill="midnightblue" stroke="midnightblue" points="196.75,-13.5 206.75,-10 196.75,-6.5 196.75,-13.5"/>
</g>
</g>
</svg>
