<?xml version="1.0" encoding="UTF-8" standalone="no"?>
<!DOCTYPE svg PUBLIC "-//W3C//DTD SVG 1.1//EN"
 "http://www.w3.org/Graphics/SVG/1.1/DTD/svg11.dtd">
<!-- Generated by graphviz version 2.50.0 (0)
 -->
<!-- Title: get_delta_nu_int Pages: 1 -->
<svg width="740pt" height="104pt"
 viewBox="0.00 0.00 740.00 104.00" xmlns="http://www.w3.org/2000/svg" xmlns:xlink="http://www.w3.org/1999/xlink">
<g id="graph0" class="graph" transform="scale(1 1) rotate(0) translate(4 100)">
<title>get_delta_nu_int</title>
<polygon fill="white" stroke="transparent" points="-4,4 -4,-100 736,-100 736,4 -4,4"/>
<!-- Node1 -->
<g id="node1" class="node">
<title>Node1</title>
<g id="a_node1"><a xlink:title=" ">
<polygon fill="#bfbfbf" stroke="black" points="0,-19.5 0,-38.5 98,-38.5 98,-19.5 0,-19.5"/>
<text text-anchor="middle" x="49" y="-26.5" font-family="Helvetica,sans-Serif" font-size="10.00">get_delta_nu_int</text>
</a>
</g>
</g>
<!-- Node2 -->
<g id="node2" class="node">
<title>Node2</title>
<g id="a_node2"><a xlink:href="cosmology_8c.html#ab425f16e6fe06110e2fb4944065b81bb" target="_top" xlink:title=" ">
<polygon fill="white" stroke="black" points="134,-38.5 134,-57.5 229,-57.5 229,-38.5 134,-38.5"/>
<text text-anchor="middle" x="181.5" y="-45.5" font-family="Helvetica,sans-Serif" font-size="10.00">hubble_function</text>
</a>
</g>
</g>
<!-- Node1&#45;&gt;Node2 -->
<g id="edge1" class="edge">
<title>Node1&#45;&gt;Node2</title>
<path fill="none" stroke="midnightblue" d="M98.22,-36.02C106.57,-37.24 115.32,-38.51 123.87,-39.76"/>
<polygon fill="midnightblue" stroke="midnightblue" points="123.38,-43.22 133.78,-41.2 124.39,-36.29 123.38,-43.22"/>
</g>
<!-- Node9 -->
<g id="node9" class="node">
<title>Node9</title>
<g id="a_node9"><a xlink:href="neutrinos__lra_8c.html#ae332c4543049d20acadb9d6748809adc" target="_top" xlink:title=" ">
<polygon fill="white" stroke="black" points="154.5,-0.5 154.5,-19.5 208.5,-19.5 208.5,-0.5 154.5,-0.5"/>
<text text-anchor="middle" x="181.5" y="-7.5" font-family="Helvetica,sans-Serif" font-size="10.00">specialJ</text>
</a>
</g>
</g>
<!-- Node1&#45;&gt;Node9 -->
<g id="edge9" class="edge">
<title>Node1&#45;&gt;Node9</title>
<path fill="none" stroke="midnightblue" d="M98.22,-21.98C113.53,-19.75 130.18,-17.33 144.48,-15.24"/>
<polygon fill="midnightblue" stroke="midnightblue" points="145.02,-18.7 154.41,-13.8 144.01,-11.78 145.02,-18.7"/>
</g>
<!-- Node3 -->
<g id="node3" class="node">
<title>Node3</title>
<g id="a_node3"><a xlink:href="omega__nu__single_8c.html#aca4b20af5bd369bcd096c670c27c6e36" target="_top" xlink:title=" ">
<polygon fill="white" stroke="black" points="265,-57.5 265,-76.5 354,-76.5 354,-57.5 265,-57.5"/>
<text text-anchor="middle" x="309.5" y="-64.5" font-family="Helvetica,sans-Serif" font-size="10.00">get_omega_nu</text>
</a>
</g>
</g>
<!-- Node2&#45;&gt;Node3 -->
<g id="edge2" class="edge">
<title>Node2&#45;&gt;Node3</title>
<path fill="none" stroke="midnightblue" d="M229.06,-55.02C237.42,-56.28 246.2,-57.61 254.75,-58.9"/>
<polygon fill="midnightblue" stroke="midnightblue" points="254.23,-62.36 264.64,-60.39 255.27,-55.43 254.23,-62.36"/>
</g>
<!-- Node8 -->
<g id="node8" class="node">
<title>Node8</title>
<g id="a_node8"><a xlink:href="cosmology_8c.html#a187e0106f302118344b027cf942347e0" target="_top" xlink:title=" ">
<polygon fill="white" stroke="black" points="274,-19.5 274,-38.5 345,-38.5 345,-19.5 274,-19.5"/>
<text text-anchor="middle" x="309.5" y="-26.5" font-family="Helvetica,sans-Serif" font-size="10.00">OmegaFLD</text>
</a>
</g>
</g>
<!-- Node2&#45;&gt;Node8 -->
<g id="edge8" class="edge">
<title>Node2&#45;&gt;Node8</title>
<path fill="none" stroke="midnightblue" d="M229.06,-40.98C240.44,-39.26 252.59,-37.43 263.87,-35.73"/>
<polygon fill="midnightblue" stroke="midnightblue" points="264.58,-39.16 273.95,-34.21 263.54,-32.24 264.58,-39.16"/>
</g>
<!-- Node4 -->
<g id="node4" class="node">
<title>Node4</title>
<g id="a_node4"><a xlink:href="omega__nu__single_8c.html#a5d81e97a54be82580201631d495bd694" target="_top" xlink:title=" ">
<polygon fill="white" stroke="black" points="390,-57.5 390,-76.5 440,-76.5 440,-57.5 390,-57.5"/>
<text text-anchor="middle" x="415" y="-64.5" font-family="Helvetica,sans-Serif" font-size="10.00">rho_nu</text>
</a>
</g>
</g>
<!-- Node3&#45;&gt;Node4 -->
<g id="edge3" class="edge">
<title>Node3&#45;&gt;Node4</title>
<path fill="none" stroke="midnightblue" d="M354.09,-67C362.72,-67 371.65,-67 379.9,-67"/>
<polygon fill="midnightblue" stroke="midnightblue" points="379.92,-70.5 389.92,-67 379.92,-63.5 379.92,-70.5"/>
</g>
<!-- Node5 -->
<g id="node5" class="node">
<title>Node5</title>
<g id="a_node5"><a xlink:href="omega__nu__single_8c.html#a5d053cc2c3fa75a3c357bbb99af5de62" target="_top" xlink:title=" ">
<polygon fill="white" stroke="black" points="476,-76.5 476,-95.5 567,-95.5 567,-76.5 476,-76.5"/>
<text text-anchor="middle" x="521.5" y="-83.5" font-family="Helvetica,sans-Serif" font-size="10.00">non_rel_rho_nu</text>
</a>
</g>
</g>
<!-- Node4&#45;&gt;Node5 -->
<g id="edge4" class="edge">
<title>Node4&#45;&gt;Node5</title>
<path fill="none" stroke="midnightblue" d="M440.24,-71.41C447.95,-72.81 456.81,-74.42 465.78,-76.05"/>
<polygon fill="midnightblue" stroke="midnightblue" points="465.41,-79.54 475.88,-77.89 466.67,-72.65 465.41,-79.54"/>
</g>
<!-- Node7 -->
<g id="node7" class="node">
<title>Node7</title>
<g id="a_node7"><a xlink:href="omega__nu__single_8c.html#ac447b6c2f0363d19b68b2ce9f29009c4" target="_top" xlink:title=" ">
<polygon fill="white" stroke="black" points="487.5,-38.5 487.5,-57.5 555.5,-57.5 555.5,-38.5 487.5,-38.5"/>
<text text-anchor="middle" x="521.5" y="-45.5" font-family="Helvetica,sans-Serif" font-size="10.00">rel_rho_nu</text>
</a>
</g>
</g>
<!-- Node4&#45;&gt;Node7 -->
<g id="edge6" class="edge">
<title>Node4&#45;&gt;Node7</title>
<path fill="none" stroke="midnightblue" d="M440.24,-62.59C451.27,-60.59 464.68,-58.15 477.35,-55.85"/>
<polygon fill="midnightblue" stroke="midnightblue" points="478.08,-59.27 487.29,-54.04 476.83,-52.38 478.08,-59.27"/>
</g>
<!-- Node6 -->
<g id="node6" class="node">
<title>Node6</title>
<g id="a_node6"><a xlink:href="omega__nu__single_8c.html#acf81fc868c0deb61c3541958dd6114be" target="_top" xlink:title=" ">
<polygon fill="white" stroke="black" points="603,-57.5 603,-76.5 732,-76.5 732,-57.5 603,-57.5"/>
<text text-anchor="middle" x="667.5" y="-64.5" font-family="Helvetica,sans-Serif" font-size="10.00">get_rho_nu_conversion</text>
</a>
</g>
</g>
<!-- Node5&#45;&gt;Node6 -->
<g id="edge5" class="edge">
<title>Node5&#45;&gt;Node6</title>
<path fill="none" stroke="midnightblue" d="M567.27,-80.09C575.49,-79.01 584.26,-77.85 593.07,-76.69"/>
<polygon fill="midnightblue" stroke="midnightblue" points="593.53,-80.16 602.99,-75.38 592.62,-73.22 593.53,-80.16"/>
</g>
<!-- Node7&#45;&gt;Node6 -->
<g id="edge7" class="edge">
<title>Node7&#45;&gt;Node6</title>
<path fill="none" stroke="midnightblue" d="M555.54,-52.36C566.72,-53.83 579.7,-55.55 592.75,-57.27"/>
<polygon fill="midnightblue" stroke="midnightblue" points="592.35,-60.75 602.72,-58.58 593.26,-53.81 592.35,-60.75"/>
</g>
</g>
</svg>
