<?xml version="1.0" encoding="UTF-8" standalone="no"?>
<!DOCTYPE svg PUBLIC "-//W3C//DTD SVG 1.1//EN"
 "http://www.w3.org/Graphics/SVG/1.1/DTD/svg11.dtd">
<!-- Generated by graphviz version 2.50.0 (0)
 -->
<!-- Title: petaio_save_neutrinos Pages: 1 -->
<svg width="601pt" height="104pt"
 viewBox="0.00 0.00 601.00 104.00" xmlns="http://www.w3.org/2000/svg" xmlns:xlink="http://www.w3.org/1999/xlink">
<g id="graph0" class="graph" transform="scale(1 1) rotate(0) translate(4 100)">
<title>petaio_save_neutrinos</title>
<polygon fill="white" stroke="transparent" points="-4,4 -4,-100 597,-100 597,4 -4,4"/>
<!-- Node1 -->
<g id="node1" class="node">
<title>Node1</title>
<g id="a_node1"><a xlink:title=" ">
<polygon fill="#bfbfbf" stroke="black" points="0,-57.5 0,-76.5 127,-76.5 127,-57.5 0,-57.5"/>
<text text-anchor="middle" x="63.5" y="-64.5" font-family="Helvetica,sans-Serif" font-size="10.00">petaio_save_neutrinos</text>
</a>
</g>
</g>
<!-- Node2 -->
<g id="node2" class="node">
<title>Node2</title>
<g id="a_node2"><a xlink:href="endrun_8c.html#ad963d7efdb9f10f7a2298c8ccd222ab0" target="_top" xlink:title=" ">
<polygon fill="white" stroke="black" points="316,-76.5 316,-95.5 366,-95.5 366,-76.5 316,-76.5"/>
<text text-anchor="middle" x="341" y="-83.5" font-family="Helvetica,sans-Serif" font-size="10.00">endrun</text>
</a>
</g>
</g>
<!-- Node1&#45;&gt;Node2 -->
<g id="edge1" class="edge">
<title>Node1&#45;&gt;Node2</title>
<path fill="none" stroke="midnightblue" d="M127.02,-71.31C182.42,-75.13 261.26,-80.57 305.84,-83.64"/>
<polygon fill="midnightblue" stroke="midnightblue" points="305.65,-87.14 315.87,-84.34 306.13,-80.16 305.65,-87.14"/>
</g>
<!-- Node6 -->
<g id="node6" class="node">
<title>Node6</title>
<g id="a_node6"><a xlink:href="petaio_8c.html#af6f495a272ad8ddce896b809aa18ad16" target="_top" xlink:title=" ">
<polygon fill="white" stroke="black" points="163,-38.5 163,-57.5 270,-57.5 270,-38.5 163,-38.5"/>
<text text-anchor="middle" x="216.5" y="-45.5" font-family="Helvetica,sans-Serif" font-size="10.00">petaio_save_block</text>
</a>
</g>
</g>
<!-- Node1&#45;&gt;Node6 -->
<g id="edge5" class="edge">
<title>Node1&#45;&gt;Node6</title>
<path fill="none" stroke="midnightblue" d="M127.23,-59.11C135.64,-58.05 144.26,-56.96 152.68,-55.9"/>
<polygon fill="midnightblue" stroke="midnightblue" points="153.32,-59.35 162.8,-54.63 152.44,-52.41 153.32,-59.35"/>
</g>
<!-- Node3 -->
<g id="node3" class="node">
<title>Node3</title>
<g id="a_node3"><a xlink:href="system_8c.html#a341c8d27bd6c7dde856566810b412b1f" target="_top" xlink:title=" ">
<polygon fill="white" stroke="black" points="420,-19.5 420,-38.5 499,-38.5 499,-19.5 420,-19.5"/>
<text text-anchor="middle" x="459.5" y="-26.5" font-family="Helvetica,sans-Serif" font-size="10.00">MPIU_Tracev</text>
</a>
</g>
</g>
<!-- Node2&#45;&gt;Node3 -->
<g id="edge2" class="edge">
<title>Node2&#45;&gt;Node3</title>
<path fill="none" stroke="midnightblue" d="M361.5,-76.46C380.15,-67.34 408.5,-53.47 429.74,-43.07"/>
<polygon fill="midnightblue" stroke="midnightblue" points="431.49,-46.11 438.94,-38.57 428.42,-39.82 431.49,-46.11"/>
</g>
<!-- Node5 -->
<g id="node5" class="node">
<title>Node5</title>
<g id="a_node5"><a xlink:href="endrun_8c.html#a1200f02a595ab7cbe17c9e36ff32af0f" target="_top" xlink:title=" ">
<polygon fill="white" stroke="black" points="412,-76.5 412,-95.5 507,-95.5 507,-76.5 412,-76.5"/>
<text text-anchor="middle" x="459.5" y="-83.5" font-family="Helvetica,sans-Serif" font-size="10.00">show_backtrace</text>
</a>
</g>
</g>
<!-- Node2&#45;&gt;Node5 -->
<g id="edge4" class="edge">
<title>Node2&#45;&gt;Node5</title>
<path fill="none" stroke="midnightblue" d="M366.14,-86C376.55,-86 389.21,-86 401.77,-86"/>
<polygon fill="midnightblue" stroke="midnightblue" points="401.78,-89.5 411.78,-86 401.78,-82.5 401.78,-89.5"/>
</g>
<!-- Node4 -->
<g id="node4" class="node">
<title>Node4</title>
<g id="a_node4"><a xlink:href="system_8c.html#a87108946670b4c3afbe846c6726675ff" target="_top" xlink:title=" ">
<polygon fill="white" stroke="black" points="543,-19.5 543,-38.5 593,-38.5 593,-19.5 543,-19.5"/>
<text text-anchor="middle" x="568" y="-26.5" font-family="Helvetica,sans-Serif" font-size="10.00">putline</text>
</a>
</g>
</g>
<!-- Node3&#45;&gt;Node4 -->
<g id="edge3" class="edge">
<title>Node3&#45;&gt;Node4</title>
<path fill="none" stroke="midnightblue" d="M499.25,-29C510.22,-29 522.09,-29 532.77,-29"/>
<polygon fill="midnightblue" stroke="midnightblue" points="532.99,-32.5 542.99,-29 532.99,-25.5 532.99,-32.5"/>
</g>
<!-- Node6&#45;&gt;Node2 -->
<g id="edge7" class="edge">
<title>Node6&#45;&gt;Node2</title>
<path fill="none" stroke="midnightblue" d="M248.41,-57.59C265.99,-63.04 288.04,-69.88 306.09,-75.48"/>
<polygon fill="midnightblue" stroke="midnightblue" points="305.07,-78.83 315.66,-78.45 307.15,-72.14 305.07,-78.83"/>
</g>
<!-- Node7 -->
<g id="node7" class="node">
<title>Node7</title>
<g id="a_node7"><a xlink:href="system_8c.html#a1d471d98379273269e8045d2998eca73" target="_top" xlink:title=" ">
<polygon fill="white" stroke="black" points="306,-38.5 306,-57.5 376,-57.5 376,-38.5 306,-38.5"/>
<text text-anchor="middle" x="341" y="-45.5" font-family="Helvetica,sans-Serif" font-size="10.00">count_sum</text>
</a>
</g>
</g>
<!-- Node6&#45;&gt;Node7 -->
<g id="edge6" class="edge">
<title>Node6&#45;&gt;Node7</title>
<path fill="none" stroke="midnightblue" d="M270.16,-48C278.64,-48 287.35,-48 295.61,-48"/>
<polygon fill="midnightblue" stroke="midnightblue" points="295.79,-51.5 305.79,-48 295.79,-44.5 295.79,-51.5"/>
</g>
<!-- Node8 -->
<g id="node8" class="node">
<title>Node8</title>
<g id="a_node8"><a xlink:href="endrun_8c.html#a6567cd867c5549fb6586e19ccd819764" target="_top" xlink:title=" ">
<polygon fill="white" stroke="black" points="310.5,-0.5 310.5,-19.5 371.5,-19.5 371.5,-0.5 310.5,-0.5"/>
<text text-anchor="middle" x="341" y="-7.5" font-family="Helvetica,sans-Serif" font-size="10.00">message</text>
</a>
</g>
</g>
<!-- Node6&#45;&gt;Node8 -->
<g id="edge8" class="edge">
<title>Node6&#45;&gt;Node8</title>
<path fill="none" stroke="midnightblue" d="M248.41,-38.41C264.29,-33.49 283.81,-27.43 300.74,-22.18"/>
<polygon fill="midnightblue" stroke="midnightblue" points="301.85,-25.5 310.37,-19.19 299.78,-18.81 301.85,-25.5"/>
</g>
<!-- Node8&#45;&gt;Node3 -->
<g id="edge9" class="edge">
<title>Node8&#45;&gt;Node3</title>
<path fill="none" stroke="midnightblue" d="M371.7,-14.84C383.19,-16.72 396.65,-18.91 409.49,-21.01"/>
<polygon fill="midnightblue" stroke="midnightblue" points="409.18,-24.5 419.61,-22.66 410.3,-17.59 409.18,-24.5"/>
</g>
</g>
</svg>
