<?xml version="1.0" encoding="UTF-8" standalone="no"?>
<!DOCTYPE svg PUBLIC "-//W3C//DTD SVG 1.1//EN"
 "http://www.w3.org/Graphics/SVG/1.1/DTD/svg11.dtd">
<!-- Generated by graphviz version 2.50.0 (0)
 -->
<!-- Title: particle_nu_fraction Pages: 1 -->
<svg width="1449pt" height="545pt"
 viewBox="0.00 0.00 1449.00 544.55" xmlns="http://www.w3.org/2000/svg" xmlns:xlink="http://www.w3.org/1999/xlink">
<g id="graph0" class="graph" transform="scale(1 1) rotate(0) translate(4 540.55)">
<title>particle_nu_fraction</title>
<polygon fill="white" stroke="transparent" points="-4,4 -4,-540.55 1445,-540.55 1445,4 -4,4"/>
<!-- Node1 -->
<g id="node1" class="node">
<title>Node1</title>
<g id="a_node1"><a xlink:title=" ">
<polygon fill="#bfbfbf" stroke="black" points="1328,-373.5 1328,-392.5 1441,-392.5 1441,-373.5 1328,-373.5"/>
<text text-anchor="middle" x="1384.5" y="-380.5" font-family="Helvetica,sans-Serif" font-size="10.00">particle_nu_fraction</text>
</a>
</g>
</g>
<!-- Node2 -->
<g id="node2" class="node">
<title>Node2</title>
<g id="a_node2"><a xlink:href="neutrinos__lra_8c.html#ab578612d4bc9d5b9d19e90963f0cf1d4" target="_top" xlink:title=" ">
<polygon fill="white" stroke="black" points="840,-409.5 840,-428.5 962,-428.5 962,-409.5 840,-409.5"/>
<text text-anchor="middle" x="901" y="-416.5" font-family="Helvetica,sans-Serif" font-size="10.00">delta_nu_from_power</text>
</a>
</g>
</g>
<!-- Node1&#45;&gt;Node2 -->
<g id="edge1" class="edge">
<title>Node1&#45;&gt;Node2</title>
<path fill="none" stroke="midnightblue" d="M1369.89,-400.41C1353.66,-419.72 1324.6,-450 1292,-464 1171.8,-515.62 1123.88,-513.59 998,-478 963.74,-468.31 929.67,-442.58 912.84,-428.51"/>
<polygon fill="midnightblue" stroke="midnightblue" points="1372.61,-402.6 1376.22,-392.64 1367.19,-398.18 1372.61,-402.6"/>
</g>
<!-- Node4 -->
<g id="node4" class="node">
<title>Node4</title>
<g id="a_node4"><a xlink:href="gravity_8h.html#ad95fd36f6f2e0ca8664796f845d5326c" target="_top" xlink:title=" ">
<polygon fill="white" stroke="black" points="514,-401.5 514,-420.5 598,-420.5 598,-401.5 514,-401.5"/>
<text text-anchor="middle" x="556" y="-408.5" font-family="Helvetica,sans-Serif" font-size="10.00">gravpm_force</text>
</a>
</g>
</g>
<!-- Node1&#45;&gt;Node4 -->
<g id="edge41" class="edge">
<title>Node1&#45;&gt;Node4</title>
<path fill="none" stroke="midnightblue" d="M1374.07,-401.61C1359.96,-427.35 1330.83,-473.23 1292,-496 1203.88,-547.67 1167.65,-535 1065.5,-535 1065.5,-535 1065.5,-535 900,-535 765.44,-535 617.93,-449.56 571.69,-420.52"/>
<polygon fill="midnightblue" stroke="midnightblue" points="1377.29,-403 1378.88,-392.52 1371.1,-399.72 1377.29,-403"/>
</g>
<!-- Node16 -->
<g id="node16" class="node">
<title>Node16</title>
<g id="a_node16"><a xlink:href="neutrinos__lra_8c.html#a7e32637f89940d8c7604935f57a099d6" target="_top" xlink:title=" ">
<polygon fill="white" stroke="black" points="1012,-449.5 1012,-468.5 1117,-468.5 1117,-449.5 1012,-449.5"/>
<text text-anchor="middle" x="1064.5" y="-456.5" font-family="Helvetica,sans-Serif" font-size="10.00">delta_tot_first_init</text>
</a>
</g>
</g>
<!-- Node1&#45;&gt;Node16 -->
<g id="edge19" class="edge">
<title>Node1&#45;&gt;Node16</title>
<path fill="none" stroke="midnightblue" d="M1363.98,-399.03C1346.35,-412.52 1319.08,-431.01 1292,-440 1234.32,-459.14 1164.07,-462.13 1117.25,-461.47"/>
<polygon fill="midnightblue" stroke="midnightblue" points="1366.58,-401.44 1372.28,-392.5 1362.25,-395.94 1366.58,-401.44"/>
</g>
<!-- Node17 -->
<g id="node17" class="node">
<title>Node17</title>
<g id="a_node17"><a xlink:href="neutrinos__lra_8c.html#ab66f5fa116c1ea49d140554d3e6bc18c" target="_top" xlink:title=" ">
<polygon fill="white" stroke="black" points="1189.5,-335.5 1189.5,-354.5 1269.5,-354.5 1269.5,-335.5 1189.5,-335.5"/>
<text text-anchor="middle" x="1229.5" y="-342.5" font-family="Helvetica,sans-Serif" font-size="10.00">get_delta_nu</text>
</a>
</g>
</g>
<!-- Node1&#45;&gt;Node17 -->
<g id="edge21" class="edge">
<title>Node1&#45;&gt;Node17</title>
<path fill="none" stroke="midnightblue" d="M1335.02,-370.96C1313.65,-365.65 1288.89,-359.5 1268.83,-354.52"/>
<polygon fill="midnightblue" stroke="midnightblue" points="1334.34,-374.4 1344.89,-373.41 1336.03,-367.6 1334.34,-374.4"/>
</g>
<!-- Node19 -->
<g id="node19" class="node">
<title>Node19</title>
<g id="a_node19"><a xlink:href="neutrinos__lra_8c.html#a24e50a98637b3acf7aa1f24cf73f9af5" target="_top" xlink:title=" ">
<polygon fill="white" stroke="black" points="1189,-411.5 1189,-430.5 1270,-430.5 1270,-411.5 1189,-411.5"/>
<text text-anchor="middle" x="1229.5" y="-418.5" font-family="Helvetica,sans-Serif" font-size="10.00">get_delta_tot</text>
</a>
</g>
</g>
<!-- Node1&#45;&gt;Node19 -->
<g id="edge24" class="edge">
<title>Node1&#45;&gt;Node19</title>
<path fill="none" stroke="midnightblue" d="M1335.02,-395.04C1313.65,-400.35 1288.89,-406.5 1268.83,-411.48"/>
<polygon fill="midnightblue" stroke="midnightblue" points="1336.03,-398.4 1344.89,-392.59 1334.34,-391.6 1336.03,-398.4"/>
</g>
<!-- Node20 -->
<g id="node20" class="node">
<title>Node20</title>
<g id="a_node20"><a xlink:href="neutrinos__lra_8c.html#aca03dec36d3e668958dfbc222e0b6285" target="_top" xlink:title=" ">
<polygon fill="white" stroke="black" points="1015,-411.5 1015,-430.5 1114,-430.5 1114,-411.5 1015,-411.5"/>
<text text-anchor="middle" x="1064.5" y="-418.5" font-family="Helvetica,sans-Serif" font-size="10.00">update_delta_tot</text>
</a>
</g>
</g>
<!-- Node1&#45;&gt;Node20 -->
<g id="edge59" class="edge">
<title>Node1&#45;&gt;Node20</title>
<path fill="none" stroke="midnightblue" d="M1317.66,-387.1C1274.66,-390.2 1217.35,-395.09 1167,-402 1148.62,-404.52 1128.51,-408.11 1111.07,-411.49"/>
<polygon fill="midnightblue" stroke="midnightblue" points="1317.98,-390.59 1327.71,-386.39 1317.49,-383.61 1317.98,-390.59"/>
</g>
<!-- Node21 -->
<g id="node21" class="node">
<title>Node21</title>
<g id="a_node21"><a xlink:href="omega__nu__single_8c.html#afcee6621dd25537fe0fef1428ed87cb0" target="_top" xlink:title=" ">
<polygon fill="white" stroke="black" points="1167,-297.5 1167,-316.5 1292,-316.5 1292,-297.5 1167,-297.5"/>
<text text-anchor="middle" x="1229.5" y="-304.5" font-family="Helvetica,sans-Serif" font-size="10.00">get_omega_nu_nopart</text>
</a>
</g>
</g>
<!-- Node1&#45;&gt;Node21 -->
<g id="edge28" class="edge">
<title>Node1&#45;&gt;Node21</title>
<path fill="none" stroke="midnightblue" d="M1361.9,-367.31C1343.9,-354.8 1317.23,-337.52 1292,-326 1284.07,-322.38 1275.26,-319.2 1266.85,-316.53"/>
<polygon fill="midnightblue" stroke="midnightblue" points="1360.28,-370.45 1370.47,-373.37 1364.32,-364.74 1360.28,-370.45"/>
</g>
<!-- Node26 -->
<g id="node26" class="node">
<title>Node26</title>
<g id="a_node26"><a xlink:href="test__omega__nu__single_8c.html#aeffeb4253a80ce0dfd176c118a6e9a5e" target="_top" xlink:title=" ">
<polygon fill="white" stroke="black" points="1003.5,-221.5 1003.5,-240.5 1125.5,-240.5 1125.5,-221.5 1003.5,-221.5"/>
<text text-anchor="middle" x="1064.5" y="-228.5" font-family="Helvetica,sans-Serif" font-size="10.00">test_hybrid_neutrinos</text>
</a>
</g>
</g>
<!-- Node1&#45;&gt;Node26 -->
<g id="edge58" class="edge">
<title>Node1&#45;&gt;Node26</title>
<path fill="none" stroke="midnightblue" d="M1371.04,-364.89C1355.19,-343.27 1325.8,-307.59 1292,-288 1240.43,-258.11 1173.4,-243.75 1125.67,-236.94"/>
<polygon fill="midnightblue" stroke="midnightblue" points="1368.31,-367.1 1376.97,-373.2 1374.01,-363.03 1368.31,-367.1"/>
</g>
<!-- Node28 -->
<g id="node28" class="node">
<title>Node28</title>
<g id="a_node28"><a xlink:href="omega__nu__single_8c.html#aa754ddb4b9c849cc933e50cd80a59f17" target="_top" xlink:title=" ">
<polygon fill="white" stroke="black" points="1178.5,-183.5 1178.5,-202.5 1280.5,-202.5 1280.5,-183.5 1178.5,-183.5"/>
<text text-anchor="middle" x="1229.5" y="-190.5" font-family="Helvetica,sans-Serif" font-size="10.00">omega_nu_single</text>
</a>
</g>
</g>
<!-- Node1&#45;&gt;Node28 -->
<g id="edge42" class="edge">
<title>Node1&#45;&gt;Node28</title>
<path fill="none" stroke="midnightblue" d="M1374.74,-363.88C1360.47,-334.13 1329.92,-276.01 1292,-236 1279,-222.29 1261,-210.32 1247.83,-202.51"/>
<polygon fill="midnightblue" stroke="midnightblue" points="1371.68,-365.59 1379.1,-373.15 1378.01,-362.61 1371.68,-365.59"/>
</g>
<!-- Node3 -->
<g id="node3" class="node">
<title>Node3</title>
<g id="a_node3"><a xlink:href="gravpm_8c.html#a1b0e80c3bc0ccf78c30b6d045f42435f" target="_top" xlink:title=" ">
<polygon fill="white" stroke="black" points="664,-406.5 664,-425.5 804,-425.5 804,-406.5 664,-406.5"/>
<text text-anchor="middle" x="734" y="-413.5" font-family="Helvetica,sans-Serif" font-size="10.00">compute_neutrino_power</text>
</a>
</g>
</g>
<!-- Node2&#45;&gt;Node3 -->
<g id="edge2" class="edge">
<title>Node2&#45;&gt;Node3</title>
<path fill="none" stroke="midnightblue" d="M829.76,-417.72C821.3,-417.57 812.67,-417.41 804.23,-417.26"/>
<polygon fill="midnightblue" stroke="midnightblue" points="829.9,-421.23 839.96,-417.91 830.03,-414.23 829.9,-421.23"/>
</g>
<!-- Node3&#45;&gt;Node4 -->
<g id="edge3" class="edge">
<title>Node3&#45;&gt;Node4</title>
<path fill="none" stroke="midnightblue" d="M653.95,-413.75C634.69,-413.21 614.85,-412.64 598.18,-412.17"/>
<polygon fill="midnightblue" stroke="midnightblue" points="653.85,-417.25 663.95,-414.04 654.05,-410.26 653.85,-417.25"/>
</g>
<!-- Node5 -->
<g id="node5" class="node">
<title>Node5</title>
<g id="a_node5"><a xlink:href="test__gravity_8c.html#aa6bdcef3f6cb327efb3f2f993f64b7ce" target="_top" xlink:title=" ">
<polygon fill="white" stroke="black" points="358.5,-458.5 358.5,-477.5 441.5,-477.5 441.5,-458.5 358.5,-458.5"/>
<text text-anchor="middle" x="400" y="-465.5" font-family="Helvetica,sans-Serif" font-size="10.00">do_force_test</text>
</a>
</g>
</g>
<!-- Node4&#45;&gt;Node5 -->
<g id="edge4" class="edge">
<title>Node4&#45;&gt;Node5</title>
<path fill="none" stroke="midnightblue" d="M519.7,-424.07C491.39,-434.54 452.32,-449.01 426.86,-458.43"/>
<polygon fill="midnightblue" stroke="midnightblue" points="521.06,-427.29 529.22,-420.54 518.63,-420.73 521.06,-427.29"/>
</g>
<!-- Node11 -->
<g id="node11" class="node">
<title>Node11</title>
<g id="a_node11"><a xlink:href="run_8c.html#a89690448ef43a8d624b963382b7503ed" target="_top" xlink:title=" ">
<polygon fill="white" stroke="black" points="384,-401.5 384,-420.5 416,-420.5 416,-401.5 384,-401.5"/>
<text text-anchor="middle" x="400" y="-408.5" font-family="Helvetica,sans-Serif" font-size="10.00">run</text>
</a>
</g>
</g>
<!-- Node4&#45;&gt;Node11 -->
<g id="edge12" class="edge">
<title>Node4&#45;&gt;Node11</title>
<path fill="none" stroke="midnightblue" d="M503.6,-411C472.96,-411 436.2,-411 416.05,-411"/>
<polygon fill="midnightblue" stroke="midnightblue" points="503.73,-414.5 513.73,-411 503.73,-407.5 503.73,-414.5"/>
</g>
<!-- Node13 -->
<g id="node13" class="node">
<title>Node13</title>
<g id="a_node13"><a xlink:href="run_8h.html#aa438e424237818b7728b98cd764e45d1" target="_top" xlink:title=" ">
<polygon fill="white" stroke="black" points="352,-363.5 352,-382.5 448,-382.5 448,-363.5 352,-363.5"/>
<text text-anchor="middle" x="400" y="-370.5" font-family="Helvetica,sans-Serif" font-size="10.00">run_gravity_test</text>
</a>
</g>
</g>
<!-- Node4&#45;&gt;Node13 -->
<g id="edge14" class="edge">
<title>Node4&#45;&gt;Node13</title>
<path fill="none" stroke="midnightblue" d="M506.21,-398.96C484.69,-393.65 459.77,-387.5 439.58,-382.52"/>
<polygon fill="midnightblue" stroke="midnightblue" points="505.59,-402.41 516.14,-401.41 507.27,-395.62 505.59,-402.41"/>
</g>
<!-- Node15 -->
<g id="node15" class="node">
<title>Node15</title>
<g id="a_node15"><a xlink:href="run_8c.html#afc20ced36c74991ca5c2004510c6c628" target="_top" xlink:title=" ">
<polygon fill="white" stroke="black" points="369,-325.5 369,-344.5 431,-344.5 431,-325.5 369,-325.5"/>
<text text-anchor="middle" x="400" y="-332.5" font-family="Helvetica,sans-Serif" font-size="10.00">runpower</text>
</a>
</g>
</g>
<!-- Node4&#45;&gt;Node15 -->
<g id="edge17" class="edge">
<title>Node4&#45;&gt;Node15</title>
<path fill="none" stroke="midnightblue" d="M529.42,-396.39C507.98,-384.39 476.41,-367.26 448,-354 440.98,-350.72 433.24,-347.45 426.09,-344.57"/>
<polygon fill="midnightblue" stroke="midnightblue" points="527.8,-399.5 538.23,-401.36 531.24,-393.4 527.8,-399.5"/>
</g>
<!-- Node6 -->
<g id="node6" class="node">
<title>Node6</title>
<g id="a_node6"><a xlink:href="test__gravity_8c.html#a31e06bbad4eac810c349a6bc44a0aa08" target="_top" xlink:title=" ">
<polygon fill="white" stroke="black" points="221,-515.5 221,-534.5 316,-534.5 316,-515.5 221,-515.5"/>
<text text-anchor="middle" x="268.5" y="-522.5" font-family="Helvetica,sans-Serif" font-size="10.00">do_random_test</text>
</a>
</g>
</g>
<!-- Node5&#45;&gt;Node6 -->
<g id="edge5" class="edge">
<title>Node5&#45;&gt;Node6</title>
<path fill="none" stroke="midnightblue" d="M368.06,-481.62C344.37,-492.05 312.28,-506.17 291.25,-515.43"/>
<polygon fill="midnightblue" stroke="midnightblue" points="369.58,-484.77 377.32,-477.54 366.76,-478.37 369.58,-484.77"/>
</g>
<!-- Node9 -->
<g id="node9" class="node">
<title>Node9</title>
<g id="a_node9"><a xlink:href="test__gravity_8c.html#ac3391a3ee98d428389e50b886e988c63" target="_top" xlink:title=" ">
<polygon fill="white" stroke="black" points="83,-477.5 83,-496.5 179,-496.5 179,-477.5 83,-477.5"/>
<text text-anchor="middle" x="131" y="-484.5" font-family="Helvetica,sans-Serif" font-size="10.00">test_force_close</text>
</a>
</g>
</g>
<!-- Node5&#45;&gt;Node9 -->
<g id="edge8" class="edge">
<title>Node5&#45;&gt;Node9</title>
<path fill="none" stroke="midnightblue" d="M348.45,-471.6C299.79,-475.06 226.77,-480.26 179.25,-483.64"/>
<polygon fill="midnightblue" stroke="midnightblue" points="348.72,-475.09 358.45,-470.89 348.23,-468.1 348.72,-475.09"/>
</g>
<!-- Node10 -->
<g id="node10" class="node">
<title>Node10</title>
<g id="a_node10"><a xlink:href="test__gravity_8c.html#a87bcba11fc8f8f2ad649784bb1b8a48d" target="_top" xlink:title=" ">
<polygon fill="white" stroke="black" points="225.5,-439.5 225.5,-458.5 311.5,-458.5 311.5,-439.5 225.5,-439.5"/>
<text text-anchor="middle" x="268.5" y="-446.5" font-family="Helvetica,sans-Serif" font-size="10.00">test_force_flat</text>
</a>
</g>
</g>
<!-- Node5&#45;&gt;Node10 -->
<g id="edge10" class="edge">
<title>Node5&#45;&gt;Node10</title>
<path fill="none" stroke="midnightblue" d="M348.4,-460.58C336.28,-458.8 323.46,-456.92 311.76,-455.2"/>
<polygon fill="midnightblue" stroke="midnightblue" points="347.98,-464.05 358.38,-462.04 348.99,-457.13 347.98,-464.05"/>
</g>
<!-- Node7 -->
<g id="node7" class="node">
<title>Node7</title>
<g id="a_node7"><a xlink:href="test__gravity_8c.html#a17492d7388898745e66a636173c8ce1d" target="_top" xlink:title=" ">
<polygon fill="white" stroke="black" points="77,-515.5 77,-534.5 185,-534.5 185,-515.5 77,-515.5"/>
<text text-anchor="middle" x="131" y="-522.5" font-family="Helvetica,sans-Serif" font-size="10.00">test_force_random</text>
</a>
</g>
</g>
<!-- Node6&#45;&gt;Node7 -->
<g id="edge6" class="edge">
<title>Node6&#45;&gt;Node7</title>
<path fill="none" stroke="midnightblue" d="M210.72,-525C202.28,-525 193.6,-525 185.23,-525"/>
<polygon fill="midnightblue" stroke="midnightblue" points="210.87,-528.5 220.87,-525 210.87,-521.5 210.87,-528.5"/>
</g>
<!-- Node8 -->
<g id="node8" class="node">
<title>Node8</title>
<g id="a_node8"><a xlink:href="test__gravity_8c.html#a840291bc02cba5474a4cb46a9b9566fe" target="_top" xlink:title=" ">
<polygon fill="white" stroke="black" points="0,-477.5 0,-496.5 41,-496.5 41,-477.5 0,-477.5"/>
<text text-anchor="middle" x="20.5" y="-484.5" font-family="Helvetica,sans-Serif" font-size="10.00">main</text>
</a>
</g>
</g>
<!-- Node7&#45;&gt;Node8 -->
<g id="edge7" class="edge">
<title>Node7&#45;&gt;Node8</title>
<path fill="none" stroke="midnightblue" d="M92.81,-511.97C75.54,-505.93 55.7,-498.98 41.34,-493.95"/>
<polygon fill="midnightblue" stroke="midnightblue" points="92.03,-515.41 102.62,-515.41 94.34,-508.8 92.03,-515.41"/>
</g>
<!-- Node9&#45;&gt;Node8 -->
<g id="edge9" class="edge">
<title>Node9&#45;&gt;Node8</title>
<path fill="none" stroke="midnightblue" d="M72.39,-487C61.13,-487 50.07,-487 41.15,-487"/>
<polygon fill="midnightblue" stroke="midnightblue" points="72.73,-490.5 82.73,-487 72.73,-483.5 72.73,-490.5"/>
</g>
<!-- Node10&#45;&gt;Node8 -->
<g id="edge11" class="edge">
<title>Node10&#45;&gt;Node8</title>
<path fill="none" stroke="midnightblue" d="M214.99,-450.98C176.44,-453.22 123.01,-457.97 77,-468 64.86,-470.65 51.69,-475.09 41.22,-479.01"/>
<polygon fill="midnightblue" stroke="midnightblue" points="215.65,-454.45 225.45,-450.42 215.27,-447.46 215.65,-454.45"/>
</g>
<!-- Node12 -->
<g id="node12" class="node">
<title>Node12</title>
<g id="a_node12"><a xlink:href="gadget_2main_8c.html#a3c04138a5bfe5d72780bb7e82a18e627" target="_top" xlink:title=" ">
<polygon fill="white" stroke="black" points="110.5,-344.5 110.5,-363.5 151.5,-363.5 151.5,-344.5 110.5,-344.5"/>
<text text-anchor="middle" x="131" y="-351.5" font-family="Helvetica,sans-Serif" font-size="10.00">main</text>
</a>
</g>
</g>
<!-- Node11&#45;&gt;Node12 -->
<g id="edge13" class="edge">
<title>Node11&#45;&gt;Node12</title>
<path fill="none" stroke="midnightblue" d="M373.73,-410.65C338.84,-409.64 274.19,-405.86 221,-392 195.48,-385.35 167.78,-372.56 150.18,-363.67"/>
<polygon fill="midnightblue" stroke="midnightblue" points="373.88,-414.15 383.96,-410.89 374.05,-407.16 373.88,-414.15"/>
</g>
<!-- Node14 -->
<g id="node14" class="node">
<title>Node14</title>
<g id="a_node14"><a xlink:href="run_8c.html#ab1d8bf99f794003fa95002043fe3b47c" target="_top" xlink:title=" ">
<polygon fill="white" stroke="black" points="240.5,-363.5 240.5,-382.5 296.5,-382.5 296.5,-363.5 240.5,-363.5"/>
<text text-anchor="middle" x="268.5" y="-370.5" font-family="Helvetica,sans-Serif" font-size="10.00">runtests</text>
</a>
</g>
</g>
<!-- Node13&#45;&gt;Node14 -->
<g id="edge15" class="edge">
<title>Node13&#45;&gt;Node14</title>
<path fill="none" stroke="midnightblue" d="M341.74,-373C326.12,-373 309.9,-373 296.81,-373"/>
<polygon fill="midnightblue" stroke="midnightblue" points="341.88,-376.5 351.88,-373 341.88,-369.5 341.88,-376.5"/>
</g>
<!-- Node14&#45;&gt;Node12 -->
<g id="edge16" class="edge">
<title>Node14&#45;&gt;Node12</title>
<path fill="none" stroke="midnightblue" d="M230.35,-367.79C204.89,-364.22 172.13,-359.63 151.59,-356.75"/>
<polygon fill="midnightblue" stroke="midnightblue" points="230.02,-371.28 240.41,-369.2 230.99,-364.35 230.02,-371.28"/>
</g>
<!-- Node15&#45;&gt;Node12 -->
<g id="edge18" class="edge">
<title>Node15&#45;&gt;Node12</title>
<path fill="none" stroke="midnightblue" d="M358.61,-337.87C300.48,-342.01 195.44,-349.49 151.82,-352.59"/>
<polygon fill="midnightblue" stroke="midnightblue" points="359.16,-341.34 368.89,-337.14 358.67,-334.36 359.16,-341.34"/>
</g>
<!-- Node16&#45;&gt;Node2 -->
<g id="edge20" class="edge">
<title>Node16&#45;&gt;Node2</title>
<path fill="none" stroke="midnightblue" d="M1014.89,-446.96C991.03,-441.05 962.68,-434.03 940.37,-428.5"/>
<polygon fill="midnightblue" stroke="midnightblue" points="1014.27,-450.41 1024.82,-449.42 1015.95,-443.62 1014.27,-450.41"/>
</g>
<!-- Node18 -->
<g id="node18" class="node">
<title>Node18</title>
<g id="a_node18"><a xlink:href="neutrinos__lra_8c.html#ab15c5ce0204cee71010286b955a2320e" target="_top" xlink:title=" ">
<polygon fill="white" stroke="black" points="998,-373.5 998,-392.5 1131,-392.5 1131,-373.5 998,-373.5"/>
<text text-anchor="middle" x="1064.5" y="-380.5" font-family="Helvetica,sans-Serif" font-size="10.00">get_delta_nu_combined</text>
</a>
</g>
</g>
<!-- Node17&#45;&gt;Node18 -->
<g id="edge22" class="edge">
<title>Node17&#45;&gt;Node18</title>
<path fill="none" stroke="midnightblue" d="M1179.43,-356.44C1156.15,-361.87 1128.65,-368.28 1106.5,-373.44"/>
<polygon fill="midnightblue" stroke="midnightblue" points="1180.51,-359.78 1189.46,-354.1 1178.92,-352.96 1180.51,-359.78"/>
</g>
<!-- Node18&#45;&gt;Node2 -->
<g id="edge23" class="edge">
<title>Node18&#45;&gt;Node2</title>
<path fill="none" stroke="midnightblue" d="M1010.74,-394.76C989.37,-399.52 965.01,-404.95 944.77,-409.47"/>
<polygon fill="midnightblue" stroke="midnightblue" points="1011.65,-398.14 1020.64,-392.55 1010.12,-391.31 1011.65,-398.14"/>
</g>
<!-- Node19&#45;&gt;Node16 -->
<g id="edge25" class="edge">
<title>Node19&#45;&gt;Node16</title>
<path fill="none" stroke="midnightblue" d="M1178.64,-432.62C1155.49,-438.02 1128.3,-444.36 1106.38,-449.47"/>
<polygon fill="midnightblue" stroke="midnightblue" points="1179.68,-435.97 1188.63,-430.3 1178.09,-429.16 1179.68,-435.97"/>
</g>
<!-- Node19&#45;&gt;Node20 -->
<g id="edge26" class="edge">
<title>Node19&#45;&gt;Node20</title>
<path fill="none" stroke="midnightblue" d="M1178.57,-421C1158.14,-421 1134.58,-421 1114.27,-421"/>
<polygon fill="midnightblue" stroke="midnightblue" points="1178.63,-424.5 1188.63,-421 1178.63,-417.5 1178.63,-424.5"/>
</g>
<!-- Node20&#45;&gt;Node2 -->
<g id="edge27" class="edge">
<title>Node20&#45;&gt;Node2</title>
<path fill="none" stroke="midnightblue" d="M1004.3,-420.27C990.56,-420.1 975.92,-419.92 962.14,-419.74"/>
<polygon fill="midnightblue" stroke="midnightblue" points="1004.56,-423.77 1014.61,-420.39 1004.65,-416.77 1004.56,-423.77"/>
</g>
<!-- Node21&#45;&gt;Node2 -->
<g id="edge33" class="edge">
<title>Node21&#45;&gt;Node2</title>
<path fill="none" stroke="midnightblue" d="M1161.21,-318.51C1114.4,-327.74 1051.11,-342.7 998,-364 967.16,-376.37 934.16,-397.14 916,-409.3"/>
<polygon fill="midnightblue" stroke="midnightblue" points="1162.08,-321.9 1171.24,-316.57 1160.75,-315.03 1162.08,-321.9"/>
</g>
<!-- Node21&#45;&gt;Node16 -->
<g id="edge34" class="edge">
<title>Node21&#45;&gt;Node16</title>
<path fill="none" stroke="midnightblue" d="M1171.67,-321.98C1170.02,-323.22 1168.46,-324.55 1167,-326 1129.31,-363.45 1169.01,-402.87 1131,-440 1127.02,-443.89 1122.29,-446.99 1117.23,-449.46"/>
<polygon fill="midnightblue" stroke="midnightblue" points="1173.78,-324.79 1180.52,-316.61 1170.15,-318.81 1173.78,-324.79"/>
</g>
<!-- Node21&#45;&gt;Node18 -->
<g id="edge35" class="edge">
<title>Node21&#45;&gt;Node18</title>
<path fill="none" stroke="midnightblue" d="M1178.76,-320.24C1174.68,-321.96 1170.71,-323.87 1167,-326 1148.17,-336.8 1149.54,-347.72 1131,-359 1121.27,-364.92 1109.86,-369.72 1099.31,-373.44"/>
<polygon fill="midnightblue" stroke="midnightblue" points="1180.28,-323.4 1188.38,-316.57 1177.79,-316.86 1180.28,-323.4"/>
</g>
<!-- Node21&#45;&gt;Node20 -->
<g id="edge40" class="edge">
<title>Node21&#45;&gt;Node20</title>
<path fill="none" stroke="midnightblue" d="M1173.28,-321.35C1171.07,-322.76 1168.96,-324.3 1167,-326 1138.75,-350.48 1159.46,-377.77 1131,-402 1126.04,-406.22 1120.19,-409.51 1114.06,-412.06"/>
<polygon fill="midnightblue" stroke="midnightblue" points="1175.07,-324.36 1182.26,-316.58 1171.79,-318.18 1175.07,-324.36"/>
</g>
<!-- Node22 -->
<g id="node22" class="node">
<title>Node22</title>
<g id="a_node22"><a xlink:href="init_8c.html#a3f7061bcc4ad1561e16bf521d3930bc7" target="_top" xlink:title=" ">
<polygon fill="white" stroke="black" points="1022.5,-259.5 1022.5,-278.5 1106.5,-278.5 1106.5,-259.5 1022.5,-259.5"/>
<text text-anchor="middle" x="1064.5" y="-266.5" font-family="Helvetica,sans-Serif" font-size="10.00">check_omega</text>
</a>
</g>
</g>
<!-- Node21&#45;&gt;Node22 -->
<g id="edge29" class="edge">
<title>Node21&#45;&gt;Node22</title>
<path fill="none" stroke="midnightblue" d="M1177.47,-295.1C1154.56,-289.76 1127.9,-283.55 1106.34,-278.52"/>
<polygon fill="midnightblue" stroke="midnightblue" points="1176.83,-298.55 1187.37,-297.41 1178.42,-291.73 1176.83,-298.55"/>
</g>
<!-- Node25 -->
<g id="node25" class="node">
<title>Node25</title>
<g id="a_node25"><a xlink:href="gravpm_8c.html#ac449fa44d767c097aa009dae70e11d7d" target="_top" xlink:title=" ">
<polygon fill="white" stroke="black" points="682,-332.5 682,-351.5 786,-351.5 786,-332.5 682,-332.5"/>
<text text-anchor="middle" x="734" y="-339.5" font-family="Helvetica,sans-Serif" font-size="10.00">potential_transfer</text>
</a>
</g>
</g>
<!-- Node21&#45;&gt;Node25 -->
<g id="edge36" class="edge">
<title>Node21&#45;&gt;Node25</title>
<path fill="none" stroke="midnightblue" d="M1156.79,-311.46C1111.29,-314.35 1051.18,-318.25 998,-322 924.46,-327.19 839.4,-333.76 786.39,-337.93"/>
<polygon fill="midnightblue" stroke="midnightblue" points="1157.09,-314.95 1166.85,-310.83 1156.65,-307.97 1157.09,-314.95"/>
</g>
<!-- Node21&#45;&gt;Node26 -->
<g id="edge38" class="edge">
<title>Node21&#45;&gt;Node26</title>
<path fill="none" stroke="midnightblue" d="M1206.18,-291.8C1186.93,-279.23 1158.06,-261.62 1131,-250 1122.62,-246.4 1113.36,-243.25 1104.5,-240.6"/>
<polygon fill="midnightblue" stroke="midnightblue" points="1204.28,-294.74 1214.55,-297.35 1208.14,-288.9 1204.28,-294.74"/>
</g>
<!-- Node23 -->
<g id="node23" class="node">
<title>Node23</title>
<g id="a_node23"><a xlink:href="init_8c.html#ac2e8594acf366f237632083d743efb0a" target="_top" xlink:title=" ">
<polygon fill="white" stroke="black" points="885,-259.5 885,-278.5 917,-278.5 917,-259.5 885,-259.5"/>
<text text-anchor="middle" x="901" y="-266.5" font-family="Helvetica,sans-Serif" font-size="10.00">init</text>
</a>
</g>
</g>
<!-- Node22&#45;&gt;Node23 -->
<g id="edge30" class="edge">
<title>Node22&#45;&gt;Node23</title>
<path fill="none" stroke="midnightblue" d="M1011.92,-269C978.96,-269 938.5,-269 917.04,-269"/>
<polygon fill="midnightblue" stroke="midnightblue" points="1012.33,-272.5 1022.33,-269 1012.33,-265.5 1012.33,-272.5"/>
</g>
<!-- Node24 -->
<g id="node24" class="node">
<title>Node24</title>
<g id="a_node24"><a xlink:href="run_8c.html#aee4609880c9e92e1c421c4bd238589fd" target="_top" xlink:title=" ">
<polygon fill="white" stroke="black" points="709,-259.5 709,-278.5 759,-278.5 759,-259.5 709,-259.5"/>
<text text-anchor="middle" x="734" y="-266.5" font-family="Helvetica,sans-Serif" font-size="10.00">begrun</text>
</a>
</g>
</g>
<!-- Node23&#45;&gt;Node24 -->
<g id="edge31" class="edge">
<title>Node23&#45;&gt;Node24</title>
<path fill="none" stroke="midnightblue" d="M874.63,-269C843.2,-269 790.04,-269 759.17,-269"/>
<polygon fill="midnightblue" stroke="midnightblue" points="874.77,-272.5 884.77,-269 874.77,-265.5 874.77,-272.5"/>
</g>
<!-- Node24&#45;&gt;Node12 -->
<g id="edge32" class="edge">
<title>Node24&#45;&gt;Node12</title>
<path fill="none" stroke="midnightblue" d="M698.93,-272.7C632.21,-280.05 479.71,-297.41 352,-316 293.58,-324.5 279.17,-327.89 221,-338 197.18,-342.14 169.81,-347.09 151.78,-350.38"/>
<polygon fill="midnightblue" stroke="midnightblue" points="699.32,-276.18 708.88,-271.61 698.56,-269.22 699.32,-276.18"/>
</g>
<!-- Node25&#45;&gt;Node4 -->
<g id="edge37" class="edge">
<title>Node25&#45;&gt;Node4</title>
<path fill="none" stroke="midnightblue" d="M698.86,-355.38C664.31,-368.93 611.77,-389.53 581.26,-401.49"/>
<polygon fill="midnightblue" stroke="midnightblue" points="700.5,-358.5 708.53,-351.59 697.94,-351.99 700.5,-358.5"/>
</g>
<!-- Node27 -->
<g id="node27" class="node">
<title>Node27</title>
<g id="a_node27"><a xlink:href="test__omega__nu__single_8c.html#a840291bc02cba5474a4cb46a9b9566fe" target="_top" xlink:title=" ">
<polygon fill="white" stroke="black" points="880.5,-164.5 880.5,-183.5 921.5,-183.5 921.5,-164.5 880.5,-164.5"/>
<text text-anchor="middle" x="901" y="-171.5" font-family="Helvetica,sans-Serif" font-size="10.00">main</text>
</a>
</g>
</g>
<!-- Node26&#45;&gt;Node27 -->
<g id="edge39" class="edge">
<title>Node26&#45;&gt;Node27</title>
<path fill="none" stroke="midnightblue" d="M1018.38,-218.52C1011.52,-216.45 1004.55,-214.24 998,-212 971.2,-202.83 940.92,-190.51 921.65,-182.41"/>
<polygon fill="midnightblue" stroke="midnightblue" points="1017.71,-221.97 1028.3,-221.45 1019.7,-215.26 1017.71,-221.97"/>
</g>
<!-- Node28&#45;&gt;Node18 -->
<g id="edge43" class="edge">
<title>Node28&#45;&gt;Node18</title>
<path fill="none" stroke="midnightblue" d="M1213.43,-210.57C1179.93,-249.62 1100.17,-342.59 1073.99,-373.11"/>
<polygon fill="midnightblue" stroke="midnightblue" points="1216.34,-212.55 1220.19,-202.68 1211.03,-207.99 1216.34,-212.55"/>
</g>
<!-- Node28&#45;&gt;Node26 -->
<g id="edge53" class="edge">
<title>Node28&#45;&gt;Node26</title>
<path fill="none" stroke="midnightblue" d="M1177.47,-204.9C1154.56,-210.24 1127.9,-216.45 1106.34,-221.48"/>
<polygon fill="midnightblue" stroke="midnightblue" points="1178.42,-208.27 1187.37,-202.59 1176.83,-201.45 1178.42,-208.27"/>
</g>
<!-- Node29 -->
<g id="node29" class="node">
<title>Node29</title>
<g id="a_node29"><a xlink:href="power_8c.html#aba39307233a4dba5355ab92250df6e86" target="_top" xlink:title=" ">
<polygon fill="white" stroke="black" points="1021,-57.5 1021,-76.5 1108,-76.5 1108,-57.5 1021,-57.5"/>
<text text-anchor="middle" x="1064.5" y="-64.5" font-family="Helvetica,sans-Serif" font-size="10.00">parse_transfer</text>
</a>
</g>
</g>
<!-- Node28&#45;&gt;Node29 -->
<g id="edge44" class="edge">
<title>Node28&#45;&gt;Node29</title>
<path fill="none" stroke="midnightblue" d="M1216.8,-174.9C1200.43,-151.04 1168.48,-109.34 1131,-86 1124.07,-81.68 1116.11,-78.31 1108.19,-75.69"/>
<polygon fill="midnightblue" stroke="midnightblue" points="1214,-177.01 1222.47,-183.38 1219.82,-173.12 1214,-177.01"/>
</g>
<!-- Node36 -->
<g id="node36" class="node">
<title>Node36</title>
<g id="a_node36"><a xlink:href="test__omega__nu__single_8c.html#a49c8298b7925def8df2823e1bf17640f" target="_top" xlink:title=" ">
<polygon fill="white" stroke="black" points="1008,-183.5 1008,-202.5 1121,-202.5 1121,-183.5 1008,-183.5"/>
<text text-anchor="middle" x="1064.5" y="-190.5" font-family="Helvetica,sans-Serif" font-size="10.00">test_get_omega_nu</text>
</a>
</g>
</g>
<!-- Node28&#45;&gt;Node36 -->
<g id="edge51" class="edge">
<title>Node28&#45;&gt;Node36</title>
<path fill="none" stroke="midnightblue" d="M1167.88,-193C1152.61,-193 1136.28,-193 1121.25,-193"/>
<polygon fill="midnightblue" stroke="midnightblue" points="1168.26,-196.5 1178.26,-193 1168.26,-189.5 1168.26,-196.5"/>
</g>
<!-- Node37 -->
<g id="node37" class="node">
<title>Node37</title>
<g id="a_node37"><a xlink:href="test__omega__nu__single_8c.html#a3a7f75fe2d618370407bb65716998143" target="_top" xlink:title=" ">
<polygon fill="white" stroke="black" points="1001.5,-145.5 1001.5,-164.5 1127.5,-164.5 1127.5,-145.5 1001.5,-145.5"/>
<text text-anchor="middle" x="1064.5" y="-152.5" font-family="Helvetica,sans-Serif" font-size="10.00">test_omega_nu_single</text>
</a>
</g>
</g>
<!-- Node28&#45;&gt;Node37 -->
<g id="edge54" class="edge">
<title>Node28&#45;&gt;Node37</title>
<path fill="none" stroke="midnightblue" d="M1177.47,-181.1C1154.56,-175.76 1127.9,-169.55 1106.34,-164.52"/>
<polygon fill="midnightblue" stroke="midnightblue" points="1176.83,-184.55 1187.37,-183.41 1178.42,-177.73 1176.83,-184.55"/>
</g>
<!-- Node38 -->
<g id="node38" class="node">
<title>Node38</title>
<g id="a_node38"><a xlink:href="test__omega__nu__single_8c.html#a29133983ff58a35aa7a4aa218369da23" target="_top" xlink:title=" ">
<polygon fill="white" stroke="black" points="1001.5,-96 1001.5,-126 1127.5,-126 1127.5,-96 1001.5,-96"/>
<text text-anchor="start" x="1009.5" y="-114" font-family="Helvetica,sans-Serif" font-size="10.00">test_omega_nu_single</text>
<text text-anchor="middle" x="1064.5" y="-103" font-family="Helvetica,sans-Serif" font-size="10.00">_exact</text>
</a>
</g>
</g>
<!-- Node28&#45;&gt;Node38 -->
<g id="edge56" class="edge">
<title>Node28&#45;&gt;Node38</title>
<path fill="none" stroke="midnightblue" d="M1205.25,-177.94C1185.85,-165.74 1157.26,-148.58 1131,-136 1123.76,-132.53 1115.89,-129.19 1108.21,-126.14"/>
<polygon fill="midnightblue" stroke="midnightblue" points="1203.4,-180.92 1213.72,-183.32 1207.16,-175.01 1203.4,-180.92"/>
</g>
<!-- Node30 -->
<g id="node30" class="node">
<title>Node30</title>
<g id="a_node30"><a xlink:href="power_8c.html#a47fa18db30c0960530413211c586a1cb" target="_top" xlink:title=" ">
<polygon fill="white" stroke="black" points="848,-57.5 848,-76.5 954,-76.5 954,-57.5 848,-57.5"/>
<text text-anchor="middle" x="901" y="-64.5" font-family="Helvetica,sans-Serif" font-size="10.00">init_transfer_table</text>
</a>
</g>
</g>
<!-- Node29&#45;&gt;Node30 -->
<g id="edge45" class="edge">
<title>Node29&#45;&gt;Node30</title>
<path fill="none" stroke="midnightblue" d="M1010.57,-67C992.49,-67 972.3,-67 954.28,-67"/>
<polygon fill="midnightblue" stroke="midnightblue" points="1010.65,-70.5 1020.64,-67 1010.64,-63.5 1010.65,-70.5"/>
</g>
<!-- Node31 -->
<g id="node31" class="node">
<title>Node31</title>
<g id="a_node31"><a xlink:href="power_8c.html#a33ad41576e432fb761fe995b0af64323" target="_top" xlink:title=" ">
<polygon fill="white" stroke="black" points="677.5,-57.5 677.5,-76.5 790.5,-76.5 790.5,-57.5 677.5,-57.5"/>
<text text-anchor="middle" x="734" y="-64.5" font-family="Helvetica,sans-Serif" font-size="10.00">init_powerspectrum</text>
</a>
</g>
</g>
<!-- Node30&#45;&gt;Node31 -->
<g id="edge46" class="edge">
<title>Node30&#45;&gt;Node31</title>
<path fill="none" stroke="midnightblue" d="M837.77,-67C822.27,-67 805.74,-67 790.57,-67"/>
<polygon fill="midnightblue" stroke="midnightblue" points="837.79,-70.5 847.79,-67 837.79,-63.5 837.79,-70.5"/>
</g>
<!-- Node32 -->
<g id="node32" class="node">
<title>Node32</title>
<g id="a_node32"><a xlink:href="genic_2main_8c.html#a3c04138a5bfe5d72780bb7e82a18e627" target="_top" xlink:title=" ">
<polygon fill="white" stroke="black" points="535.5,-114.5 535.5,-133.5 576.5,-133.5 576.5,-114.5 535.5,-114.5"/>
<text text-anchor="middle" x="556" y="-121.5" font-family="Helvetica,sans-Serif" font-size="10.00">main</text>
</a>
</g>
</g>
<!-- Node31&#45;&gt;Node32 -->
<g id="edge47" class="edge">
<title>Node31&#45;&gt;Node32</title>
<path fill="none" stroke="midnightblue" d="M699.09,-80.11C678.65,-87.8 652,-97.46 628,-105 610.84,-110.39 591.04,-115.61 576.72,-119.21"/>
<polygon fill="midnightblue" stroke="midnightblue" points="700.48,-83.32 708.59,-76.51 698,-76.78 700.48,-83.32"/>
</g>
<!-- Node33 -->
<g id="node33" class="node">
<title>Node33</title>
<g id="a_node33"><a xlink:href="test__power_8c.html#a3cfce0c3d63b7d85db90db15a5978a7c" target="_top" xlink:title=" ">
<polygon fill="white" stroke="black" points="492,-76.5 492,-95.5 620,-95.5 620,-76.5 492,-76.5"/>
<text text-anchor="middle" x="556" y="-83.5" font-family="Helvetica,sans-Serif" font-size="10.00">test_growth_numerical</text>
</a>
</g>
</g>
<!-- Node31&#45;&gt;Node33 -->
<g id="edge48" class="edge">
<title>Node31&#45;&gt;Node33</title>
<path fill="none" stroke="midnightblue" d="M667.36,-74.09C651.96,-75.75 635.58,-77.52 620.29,-79.17"/>
<polygon fill="midnightblue" stroke="midnightblue" points="667.75,-77.56 677.31,-73.01 666.99,-70.61 667.75,-77.56"/>
</g>
<!-- Node34 -->
<g id="node34" class="node">
<title>Node34</title>
<g id="a_node34"><a xlink:href="test__power_8c.html#ac01356b5ee706295a845184e64a0fa64" target="_top" xlink:title=" ">
<polygon fill="white" stroke="black" points="496,-38.5 496,-57.5 616,-57.5 616,-38.5 496,-38.5"/>
<text text-anchor="middle" x="556" y="-45.5" font-family="Helvetica,sans-Serif" font-size="10.00">test_read_no_rescale</text>
</a>
</g>
</g>
<!-- Node31&#45;&gt;Node34 -->
<g id="edge49" class="edge">
<title>Node31&#45;&gt;Node34</title>
<path fill="none" stroke="midnightblue" d="M667.1,-59.89C650.42,-58.08 632.61,-56.16 616.28,-54.4"/>
<polygon fill="midnightblue" stroke="midnightblue" points="666.99,-63.39 677.31,-60.99 667.75,-56.44 666.99,-63.39"/>
</g>
<!-- Node35 -->
<g id="node35" class="node">
<title>Node35</title>
<g id="a_node35"><a xlink:href="test__power_8c.html#a40a6c59dd09475ea7684ec8f4a2204d3" target="_top" xlink:title=" ">
<polygon fill="white" stroke="black" points="484,-0.5 484,-19.5 628,-19.5 628,-0.5 484,-0.5"/>
<text text-anchor="middle" x="556" y="-7.5" font-family="Helvetica,sans-Serif" font-size="10.00">test_read_rescale_sigma8</text>
</a>
</g>
</g>
<!-- Node31&#45;&gt;Node35 -->
<g id="edge50" class="edge">
<title>Node31&#45;&gt;Node35</title>
<path fill="none" stroke="midnightblue" d="M699.09,-53.89C678.65,-46.2 652,-36.54 628,-29 617.41,-25.67 605.82,-22.41 595.13,-19.56"/>
<polygon fill="midnightblue" stroke="midnightblue" points="698,-57.22 708.59,-57.49 700.48,-50.68 698,-57.22"/>
</g>
<!-- Node36&#45;&gt;Node27 -->
<g id="edge52" class="edge">
<title>Node36&#45;&gt;Node27</title>
<path fill="none" stroke="midnightblue" d="M997.94,-185.29C970.49,-182.06 940.61,-178.54 921.61,-176.31"/>
<polygon fill="midnightblue" stroke="midnightblue" points="997.58,-188.77 1007.92,-186.46 998.4,-181.82 997.58,-188.77"/>
</g>
<!-- Node37&#45;&gt;Node27 -->
<g id="edge55" class="edge">
<title>Node37&#45;&gt;Node27</title>
<path fill="none" stroke="midnightblue" d="M991.03,-163.53C965.64,-166.51 939.14,-169.63 921.73,-171.68"/>
<polygon fill="midnightblue" stroke="midnightblue" points="991.54,-166.99 1001.06,-162.35 990.72,-160.04 991.54,-166.99"/>
</g>
<!-- Node38&#45;&gt;Node27 -->
<g id="edge57" class="edge">
<title>Node38&#45;&gt;Node27</title>
<path fill="none" stroke="midnightblue" d="M1013.99,-129.82C1008.59,-131.9 1003.18,-133.99 998,-136 971.6,-146.26 941.22,-158.33 921.83,-166.07"/>
<polygon fill="midnightblue" stroke="midnightblue" points="1015.55,-132.97 1023.64,-126.13 1013.05,-126.44 1015.55,-132.97"/>
</g>
</g>
</svg>
