<?xml version="1.0" encoding="UTF-8" standalone="no"?>
<!DOCTYPE svg PUBLIC "-//W3C//DTD SVG 1.1//EN"
 "http://www.w3.org/Graphics/SVG/1.1/DTD/svg11.dtd">
<!-- Generated by graphviz version 2.50.0 (0)
 -->
<!-- Title: rho_nu_init Pages: 1 -->
<svg width="885pt" height="631pt"
 viewBox="0.00 0.00 885.00 631.20" xmlns="http://www.w3.org/2000/svg" xmlns:xlink="http://www.w3.org/1999/xlink">
<g id="graph0" class="graph" transform="scale(1 1) rotate(0) translate(4 627.2)">
<title>rho_nu_init</title>
<polygon fill="white" stroke="transparent" points="-4,4 -4,-627.2 881,-627.2 881,4 -4,4"/>
<!-- Node1 -->
<g id="node1" class="node">
<title>Node1</title>
<g id="a_node1"><a xlink:title=" ">
<polygon fill="#bfbfbf" stroke="black" points="806,-102.7 806,-121.7 877,-121.7 877,-102.7 806,-102.7"/>
<text text-anchor="middle" x="841.5" y="-109.7" font-family="Helvetica,sans-Serif" font-size="10.00">rho_nu_init</text>
</a>
</g>
</g>
<!-- Node2 -->
<g id="node2" class="node">
<title>Node2</title>
<g id="a_node2"><a xlink:href="omega__nu__single_8c.html#a3e5501e68039d5375fab49054c2a3315" target="_top" xlink:title=" ">
<polygon fill="white" stroke="black" points="678,-192.7 678,-211.7 767,-211.7 767,-192.7 678,-192.7"/>
<text text-anchor="middle" x="722.5" y="-199.7" font-family="Helvetica,sans-Serif" font-size="10.00">init_omega_nu</text>
</a>
</g>
</g>
<!-- Node1&#45;&gt;Node2 -->
<g id="edge1" class="edge">
<title>Node1&#45;&gt;Node2</title>
<path fill="none" stroke="midnightblue" d="M819.77,-128.15C795.46,-146.85 755.93,-177.26 735.93,-192.64"/>
<polygon fill="midnightblue" stroke="midnightblue" points="822.19,-130.7 827.98,-121.83 817.92,-125.16 822.19,-130.7"/>
</g>
<!-- Node32 -->
<g id="node32" class="node">
<title>Node32</title>
<g id="a_node32"><a xlink:href="test__omega__nu__single_8c.html#a430bfa9aca14881c81d79a440f022b9a" target="_top" xlink:title=" ">
<polygon fill="white" stroke="black" points="675,-83.7 675,-102.7 770,-102.7 770,-83.7 675,-83.7"/>
<text text-anchor="middle" x="722.5" y="-90.7" font-family="Helvetica,sans-Serif" font-size="10.00">test_rho_nu_init</text>
</a>
</g>
</g>
<!-- Node1&#45;&gt;Node32 -->
<g id="edge39" class="edge">
<title>Node1&#45;&gt;Node32</title>
<path fill="none" stroke="midnightblue" d="M795.72,-104.93C787.32,-103.57 778.52,-102.14 770.07,-100.76"/>
<polygon fill="midnightblue" stroke="midnightblue" points="795.28,-108.4 805.71,-106.55 796.4,-101.49 795.28,-108.4"/>
</g>
<!-- Node3 -->
<g id="node3" class="node">
<title>Node3</title>
<g id="a_node3"><a xlink:href="cosmology_8c.html#ad74d8dc147725a08ba7044a64d81fba0" target="_top" xlink:title=" ">
<polygon fill="white" stroke="black" points="530.5,-413.7 530.5,-432.7 621.5,-432.7 621.5,-413.7 530.5,-413.7"/>
<text text-anchor="middle" x="576" y="-420.7" font-family="Helvetica,sans-Serif" font-size="10.00">init_cosmology</text>
</a>
</g>
</g>
<!-- Node2&#45;&gt;Node3 -->
<g id="edge2" class="edge">
<title>Node2&#45;&gt;Node3</title>
<path fill="none" stroke="midnightblue" d="M714.77,-221.68C702.88,-254.36 675.89,-321.33 639,-369.2 625.15,-387.18 604.58,-403.66 590.99,-413.56"/>
<polygon fill="midnightblue" stroke="midnightblue" points="718.16,-222.59 718.22,-211.99 711.57,-220.24 718.16,-222.59"/>
</g>
<!-- Node22 -->
<g id="node22" class="node">
<title>Node22</title>
<g id="a_node22"><a xlink:href="test__neutrinos__lra_8c.html#af4d597a1e6932eb94160c7d5bd4d8694" target="_top" xlink:title=" ">
<polygon fill="white" stroke="black" points="521,-329.2 521,-359.2 631,-359.2 631,-329.2 521,-329.2"/>
<text text-anchor="start" x="529" y="-347.2" font-family="Helvetica,sans-Serif" font-size="10.00">test_allocate_delta</text>
<text text-anchor="middle" x="576" y="-336.2" font-family="Helvetica,sans-Serif" font-size="10.00">_tot_table</text>
</a>
</g>
</g>
<!-- Node2&#45;&gt;Node22 -->
<g id="edge23" class="edge">
<title>Node2&#45;&gt;Node22</title>
<path fill="none" stroke="midnightblue" d="M712.56,-221.09C699.62,-246.58 673.42,-291.94 639,-319.2 634.18,-323.02 628.7,-326.33 623.03,-329.18"/>
<polygon fill="midnightblue" stroke="midnightblue" points="715.86,-222.3 717.13,-211.79 709.58,-219.21 715.86,-222.3"/>
</g>
<!-- Node24 -->
<g id="node24" class="node">
<title>Node24</title>
<g id="a_node24"><a xlink:href="test__omega__nu__single_8c.html#a49c8298b7925def8df2823e1bf17640f" target="_top" xlink:title=" ">
<polygon fill="white" stroke="black" points="519.5,-290.7 519.5,-309.7 632.5,-309.7 632.5,-290.7 519.5,-290.7"/>
<text text-anchor="middle" x="576" y="-297.7" font-family="Helvetica,sans-Serif" font-size="10.00">test_get_omega_nu</text>
</a>
</g>
</g>
<!-- Node2&#45;&gt;Node24 -->
<g id="edge25" class="edge">
<title>Node2&#45;&gt;Node24</title>
<path fill="none" stroke="midnightblue" d="M707.62,-219.62C692.52,-237.49 666.78,-264.9 639,-281.2 632.49,-285.02 625.15,-288.14 617.84,-290.67"/>
<polygon fill="midnightblue" stroke="midnightblue" points="710.49,-221.65 714.15,-211.71 705.09,-217.2 710.49,-221.65"/>
</g>
<!-- Node26 -->
<g id="node26" class="node">
<title>Node26</title>
<g id="a_node26"><a xlink:href="test__omega__nu__single_8c.html#ada1efff8475df0d882b6b8d89fac481a" target="_top" xlink:title=" ">
<polygon fill="white" stroke="black" points="525.5,-252.7 525.5,-271.7 626.5,-271.7 626.5,-252.7 525.5,-252.7"/>
<text text-anchor="middle" x="576" y="-259.7" font-family="Helvetica,sans-Serif" font-size="10.00">test_get_omegag</text>
</a>
</g>
</g>
<!-- Node2&#45;&gt;Node26 -->
<g id="edge27" class="edge">
<title>Node2&#45;&gt;Node26</title>
<path fill="none" stroke="midnightblue" d="M694.95,-216.78C679.03,-225.18 658.19,-235.55 639,-243.2 630.32,-246.66 620.75,-249.87 611.78,-252.64"/>
<polygon fill="midnightblue" stroke="midnightblue" points="697.01,-219.65 704.18,-211.85 693.71,-213.48 697.01,-219.65"/>
</g>
<!-- Node27 -->
<g id="node27" class="node">
<title>Node27</title>
<g id="a_node27"><a xlink:href="test__omega__nu__single_8c.html#aeffeb4253a80ce0dfd176c118a6e9a5e" target="_top" xlink:title=" ">
<polygon fill="white" stroke="black" points="515,-214.7 515,-233.7 637,-233.7 637,-214.7 515,-214.7"/>
<text text-anchor="middle" x="576" y="-221.7" font-family="Helvetica,sans-Serif" font-size="10.00">test_hybrid_neutrinos</text>
</a>
</g>
</g>
<!-- Node2&#45;&gt;Node27 -->
<g id="edge29" class="edge">
<title>Node2&#45;&gt;Node27</title>
<path fill="none" stroke="midnightblue" d="M667.61,-210.41C657.67,-211.92 647.24,-213.51 637.13,-215.05"/>
<polygon fill="midnightblue" stroke="midnightblue" points="668.39,-213.83 677.75,-208.86 667.34,-206.91 668.39,-213.83"/>
</g>
<!-- Node28 -->
<g id="node28" class="node">
<title>Node28</title>
<g id="a_node28"><a xlink:href="test__omega__nu__single_8c.html#a6d1af7aafc3cc19901ccbb16f2170886" target="_top" xlink:title=" ">
<polygon fill="white" stroke="black" points="519.5,-165.2 519.5,-195.2 632.5,-195.2 632.5,-165.2 519.5,-165.2"/>
<text text-anchor="start" x="527.5" y="-183.2" font-family="Helvetica,sans-Serif" font-size="10.00">test_omega_nu_init</text>
<text text-anchor="middle" x="576" y="-172.2" font-family="Helvetica,sans-Serif" font-size="10.00">_degenerate</text>
</a>
</g>
</g>
<!-- Node2&#45;&gt;Node28 -->
<g id="edge31" class="edge">
<title>Node2&#45;&gt;Node28</title>
<path fill="none" stroke="midnightblue" d="M667.86,-194.03C656.37,-192.29 644.21,-190.43 632.64,-188.67"/>
<polygon fill="midnightblue" stroke="midnightblue" points="667.34,-197.5 677.75,-195.54 668.39,-190.58 667.34,-197.5"/>
</g>
<!-- Node29 -->
<g id="node29" class="node">
<title>Node29</title>
<g id="a_node29"><a xlink:href="test__omega__nu__single_8c.html#a2edfeaec911061f55266a2d1b4b8d70a" target="_top" xlink:title=" ">
<polygon fill="white" stroke="black" points="519.5,-116.2 519.5,-146.2 632.5,-146.2 632.5,-116.2 519.5,-116.2"/>
<text text-anchor="start" x="527.5" y="-134.2" font-family="Helvetica,sans-Serif" font-size="10.00">test_omega_nu_init</text>
<text text-anchor="middle" x="576" y="-123.2" font-family="Helvetica,sans-Serif" font-size="10.00">_nondeg</text>
</a>
</g>
</g>
<!-- Node2&#45;&gt;Node29 -->
<g id="edge33" class="edge">
<title>Node2&#45;&gt;Node29</title>
<path fill="none" stroke="midnightblue" d="M696.87,-187.4C680.69,-177.94 658.91,-165.72 639,-156.2 631.78,-152.75 623.94,-149.34 616.35,-146.2"/>
<polygon fill="midnightblue" stroke="midnightblue" points="695.3,-190.54 705.69,-192.6 698.86,-184.51 695.3,-190.54"/>
</g>
<!-- Node30 -->
<g id="node30" class="node">
<title>Node30</title>
<g id="a_node30"><a xlink:href="test__omega__nu__single_8c.html#a3a7f75fe2d618370407bb65716998143" target="_top" xlink:title=" ">
<polygon fill="white" stroke="black" points="513,-77.7 513,-96.7 639,-96.7 639,-77.7 513,-77.7"/>
<text text-anchor="middle" x="576" y="-84.7" font-family="Helvetica,sans-Serif" font-size="10.00">test_omega_nu_single</text>
</a>
</g>
</g>
<!-- Node2&#45;&gt;Node30 -->
<g id="edge35" class="edge">
<title>Node2&#45;&gt;Node30</title>
<path fill="none" stroke="midnightblue" d="M710.28,-184.12C696.16,-162.79 669.96,-127.66 639,-107.2 632.49,-102.9 624.98,-99.46 617.49,-96.74"/>
<polygon fill="midnightblue" stroke="midnightblue" points="707.38,-186.08 715.73,-192.59 713.26,-182.29 707.38,-186.08"/>
</g>
<!-- Node31 -->
<g id="node31" class="node">
<title>Node31</title>
<g id="a_node31"><a xlink:href="test__omega__nu__single_8c.html#a29133983ff58a35aa7a4aa218369da23" target="_top" xlink:title=" ">
<polygon fill="white" stroke="black" points="513,-28.2 513,-58.2 639,-58.2 639,-28.2 513,-28.2"/>
<text text-anchor="start" x="521" y="-46.2" font-family="Helvetica,sans-Serif" font-size="10.00">test_omega_nu_single</text>
<text text-anchor="middle" x="576" y="-35.2" font-family="Helvetica,sans-Serif" font-size="10.00">_exact</text>
</a>
</g>
</g>
<!-- Node2&#45;&gt;Node31 -->
<g id="edge37" class="edge">
<title>Node2&#45;&gt;Node31</title>
<path fill="none" stroke="midnightblue" d="M711.92,-183.57C694.79,-150.86 658.86,-84.97 639,-68.2 634.48,-64.38 629.3,-61.09 623.9,-58.27"/>
<polygon fill="midnightblue" stroke="midnightblue" points="708.87,-185.31 716.59,-192.57 715.08,-182.08 708.87,-185.31"/>
</g>
<!-- Node4 -->
<g id="node4" class="node">
<title>Node4</title>
<g id="a_node4"><a xlink:href="run_8c.html#aee4609880c9e92e1c421c4bd238589fd" target="_top" xlink:title=" ">
<polygon fill="white" stroke="black" points="401,-565.7 401,-584.7 451,-584.7 451,-565.7 401,-565.7"/>
<text text-anchor="middle" x="426" y="-572.7" font-family="Helvetica,sans-Serif" font-size="10.00">begrun</text>
</a>
</g>
</g>
<!-- Node3&#45;&gt;Node4 -->
<g id="edge3" class="edge">
<title>Node3&#45;&gt;Node4</title>
<path fill="none" stroke="midnightblue" d="M561.67,-440.94C543.72,-464.27 510.19,-505.95 477,-537.2 465.73,-547.81 451.58,-558.35 441.21,-565.62"/>
<polygon fill="midnightblue" stroke="midnightblue" points="564.47,-443.03 567.75,-432.96 558.9,-438.79 564.47,-443.03"/>
</g>
<!-- Node6 -->
<g id="node6" class="node">
<title>Node6</title>
<g id="a_node6"><a xlink:href="test__density_8c.html#a1f2c8c2a35e14ec19a93d42363f0fe55" target="_top" xlink:title=" ">
<polygon fill="white" stroke="black" points="379,-508.7 379,-527.7 473,-527.7 473,-508.7 379,-508.7"/>
<text text-anchor="middle" x="426" y="-515.7" font-family="Helvetica,sans-Serif" font-size="10.00">do_density_test</text>
</a>
</g>
</g>
<!-- Node3&#45;&gt;Node6 -->
<g id="edge5" class="edge">
<title>Node3&#45;&gt;Node6</title>
<path fill="none" stroke="midnightblue" d="M551.21,-438.47C520.44,-458.22 467.78,-492.02 442.05,-508.54"/>
<polygon fill="midnightblue" stroke="midnightblue" points="553.47,-441.18 559.99,-432.83 549.69,-435.29 553.47,-441.18"/>
</g>
<!-- Node11 -->
<g id="node11" class="node">
<title>Node11</title>
<g id="a_node11"><a xlink:href="test__gravity_8c.html#aa6bdcef3f6cb327efb3f2f993f64b7ce" target="_top" xlink:title=" ">
<polygon fill="white" stroke="black" points="384.5,-451.7 384.5,-470.7 467.5,-470.7 467.5,-451.7 384.5,-451.7"/>
<text text-anchor="middle" x="426" y="-458.7" font-family="Helvetica,sans-Serif" font-size="10.00">do_force_test</text>
</a>
</g>
</g>
<!-- Node3&#45;&gt;Node11 -->
<g id="edge10" class="edge">
<title>Node3&#45;&gt;Node11</title>
<path fill="none" stroke="midnightblue" d="M527.83,-435.31C507.21,-440.61 483.39,-446.72 464.08,-451.68"/>
<polygon fill="midnightblue" stroke="midnightblue" points="528.84,-438.67 537.65,-432.79 527.1,-431.89 528.84,-438.67"/>
</g>
<!-- Node17 -->
<g id="node17" class="node">
<title>Node17</title>
<g id="a_node17"><a xlink:href="genic_2main_8c.html#a3c04138a5bfe5d72780bb7e82a18e627" target="_top" xlink:title=" ">
<polygon fill="white" stroke="black" points="405.5,-413.7 405.5,-432.7 446.5,-432.7 446.5,-413.7 405.5,-413.7"/>
<text text-anchor="middle" x="426" y="-420.7" font-family="Helvetica,sans-Serif" font-size="10.00">main</text>
</a>
</g>
</g>
<!-- Node3&#45;&gt;Node17 -->
<g id="edge18" class="edge">
<title>Node3&#45;&gt;Node17</title>
<path fill="none" stroke="midnightblue" d="M520.14,-423.2C494.38,-423.2 465.3,-423.2 446.59,-423.2"/>
<polygon fill="midnightblue" stroke="midnightblue" points="520.19,-426.7 530.19,-423.2 520.19,-419.7 520.19,-426.7"/>
</g>
<!-- Node18 -->
<g id="node18" class="node">
<title>Node18</title>
<g id="a_node18"><a xlink:href="test__power_8c.html#ab3743688c369a6a63ebea4512080e9fe" target="_top" xlink:title=" ">
<polygon fill="white" stroke="black" points="404,-375.7 404,-394.7 448,-394.7 448,-375.7 404,-375.7"/>
<text text-anchor="middle" x="426" y="-382.7" font-family="Helvetica,sans-Serif" font-size="10.00">setup</text>
</a>
</g>
</g>
<!-- Node3&#45;&gt;Node18 -->
<g id="edge19" class="edge">
<title>Node3&#45;&gt;Node18</title>
<path fill="none" stroke="midnightblue" d="M527.72,-411.06C501.02,-404.21 468.96,-395.97 448.29,-390.67"/>
<polygon fill="midnightblue" stroke="midnightblue" points="527.1,-414.52 537.65,-413.61 528.84,-407.74 527.1,-414.52"/>
</g>
<!-- Node19 -->
<g id="node19" class="node">
<title>Node19</title>
<g id="a_node19"><a xlink:href="test__cosmology_8c.html#af56daaa3f74187231513f913d0a3b770" target="_top" xlink:title=" ">
<polygon fill="white" stroke="black" points="375,-337.7 375,-356.7 477,-356.7 477,-337.7 375,-337.7"/>
<text text-anchor="middle" x="426" y="-344.7" font-family="Helvetica,sans-Serif" font-size="10.00">setup_cosmology</text>
</a>
</g>
</g>
<!-- Node3&#45;&gt;Node19 -->
<g id="edge20" class="edge">
<title>Node3&#45;&gt;Node19</title>
<path fill="none" stroke="midnightblue" d="M551.62,-408.14C532.13,-395.94 503.38,-378.78 477,-366.2 469.88,-362.8 461.97,-359.57 454.59,-356.76"/>
<polygon fill="midnightblue" stroke="midnightblue" points="549.82,-411.14 560.14,-413.52 553.56,-405.22 549.82,-411.14"/>
</g>
<!-- Node5 -->
<g id="node5" class="node">
<title>Node5</title>
<g id="a_node5"><a xlink:href="gadget_2main_8c.html#a3c04138a5bfe5d72780bb7e82a18e627" target="_top" xlink:title=" ">
<polygon fill="white" stroke="black" points="265,-603.7 265,-622.7 306,-622.7 306,-603.7 265,-603.7"/>
<text text-anchor="middle" x="285.5" y="-610.7" font-family="Helvetica,sans-Serif" font-size="10.00">main</text>
</a>
</g>
</g>
<!-- Node4&#45;&gt;Node5 -->
<g id="edge4" class="edge">
<title>Node4&#45;&gt;Node5</title>
<path fill="none" stroke="midnightblue" d="M391.2,-584.48C364.59,-591.78 328.43,-601.7 306.32,-607.76"/>
<polygon fill="midnightblue" stroke="midnightblue" points="392.16,-587.84 400.88,-581.82 390.31,-581.09 392.16,-587.84"/>
</g>
<!-- Node7 -->
<g id="node7" class="node">
<title>Node7</title>
<g id="a_node7"><a xlink:href="test__density_8c.html#ab398a273f1cc5a1816af9ef286a460f3" target="_top" xlink:title=" ">
<polygon fill="white" stroke="black" points="238,-565.7 238,-584.7 333,-584.7 333,-565.7 238,-565.7"/>
<text text-anchor="middle" x="285.5" y="-572.7" font-family="Helvetica,sans-Serif" font-size="10.00">do_random_test</text>
</a>
</g>
</g>
<!-- Node6&#45;&gt;Node7 -->
<g id="edge6" class="edge">
<title>Node6&#45;&gt;Node7</title>
<path fill="none" stroke="midnightblue" d="M395.19,-531.98C378.73,-539.43 357.87,-548.63 339,-556.2 330.9,-559.45 322.01,-562.76 313.88,-565.69"/>
<polygon fill="midnightblue" stroke="midnightblue" points="396.67,-535.15 404.32,-527.82 393.77,-528.78 396.67,-535.15"/>
</g>
<!-- Node9 -->
<g id="node9" class="node">
<title>Node9</title>
<g id="a_node9"><a xlink:href="test__density_8c.html#a0b98ad62e33169daca9a098f23b22730" target="_top" xlink:title=" ">
<polygon fill="white" stroke="black" points="232,-527.7 232,-546.7 339,-546.7 339,-527.7 232,-527.7"/>
<text text-anchor="middle" x="285.5" y="-534.7" font-family="Helvetica,sans-Serif" font-size="10.00">test_density_close</text>
</a>
</g>
</g>
<!-- Node6&#45;&gt;Node9 -->
<g id="edge8" class="edge">
<title>Node6&#45;&gt;Node9</title>
<path fill="none" stroke="midnightblue" d="M368.82,-525.91C359.01,-527.25 348.83,-528.65 339.12,-529.98"/>
<polygon fill="midnightblue" stroke="midnightblue" points="369.45,-529.35 378.88,-524.53 368.5,-522.42 369.45,-529.35"/>
</g>
<!-- Node10 -->
<g id="node10" class="node">
<title>Node10</title>
<g id="a_node10"><a xlink:href="test__density_8c.html#af90097e65c497dae6bed7b2d03702f89" target="_top" xlink:title=" ">
<polygon fill="white" stroke="black" points="236.5,-489.7 236.5,-508.7 334.5,-508.7 334.5,-489.7 236.5,-489.7"/>
<text text-anchor="middle" x="285.5" y="-496.7" font-family="Helvetica,sans-Serif" font-size="10.00">test_density_flat</text>
</a>
</g>
</g>
<!-- Node6&#45;&gt;Node10 -->
<g id="edge9" class="edge">
<title>Node6&#45;&gt;Node10</title>
<path fill="none" stroke="midnightblue" d="M368.72,-510.48C357.47,-508.94 345.74,-507.33 334.79,-505.83"/>
<polygon fill="midnightblue" stroke="midnightblue" points="368.5,-513.98 378.88,-511.87 369.45,-507.05 368.5,-513.98"/>
</g>
<!-- Node8 -->
<g id="node8" class="node">
<title>Node8</title>
<g id="a_node8"><a xlink:href="test__density_8c.html#a79c97c1ac28bcad8abc150104d7cb7c0" target="_top" xlink:title=" ">
<polygon fill="white" stroke="black" points="77,-565.7 77,-584.7 196,-584.7 196,-565.7 77,-565.7"/>
<text text-anchor="middle" x="136.5" y="-572.7" font-family="Helvetica,sans-Serif" font-size="10.00">test_density_random</text>
</a>
</g>
</g>
<!-- Node7&#45;&gt;Node8 -->
<g id="edge7" class="edge">
<title>Node7&#45;&gt;Node8</title>
<path fill="none" stroke="midnightblue" d="M227.8,-575.2C217.42,-575.2 206.56,-575.2 196.13,-575.2"/>
<polygon fill="midnightblue" stroke="midnightblue" points="227.99,-578.7 237.99,-575.2 227.99,-571.7 227.99,-578.7"/>
</g>
<!-- Node12 -->
<g id="node12" class="node">
<title>Node12</title>
<g id="a_node12"><a xlink:href="test__gravity_8c.html#a31e06bbad4eac810c349a6bc44a0aa08" target="_top" xlink:title=" ">
<polygon fill="white" stroke="black" points="238,-451.7 238,-470.7 333,-470.7 333,-451.7 238,-451.7"/>
<text text-anchor="middle" x="285.5" y="-458.7" font-family="Helvetica,sans-Serif" font-size="10.00">do_random_test</text>
</a>
</g>
</g>
<!-- Node11&#45;&gt;Node12 -->
<g id="edge11" class="edge">
<title>Node11&#45;&gt;Node12</title>
<path fill="none" stroke="midnightblue" d="M373.81,-461.2C360.56,-461.2 346.36,-461.2 333.34,-461.2"/>
<polygon fill="midnightblue" stroke="midnightblue" points="374.19,-464.7 384.19,-461.2 374.19,-457.7 374.19,-464.7"/>
</g>
<!-- Node15 -->
<g id="node15" class="node">
<title>Node15</title>
<g id="a_node15"><a xlink:href="test__gravity_8c.html#ac3391a3ee98d428389e50b886e988c63" target="_top" xlink:title=" ">
<polygon fill="white" stroke="black" points="88.5,-413.7 88.5,-432.7 184.5,-432.7 184.5,-413.7 88.5,-413.7"/>
<text text-anchor="middle" x="136.5" y="-420.7" font-family="Helvetica,sans-Serif" font-size="10.00">test_force_close</text>
</a>
</g>
</g>
<!-- Node11&#45;&gt;Node15 -->
<g id="edge14" class="edge">
<title>Node11&#45;&gt;Node15</title>
<path fill="none" stroke="midnightblue" d="M376.65,-449.42C364.42,-446.75 351.27,-444.13 339,-442.2 286.41,-433.94 225.5,-428.81 184.53,-425.99"/>
<polygon fill="midnightblue" stroke="midnightblue" points="376.14,-452.89 386.66,-451.67 377.67,-446.06 376.14,-452.89"/>
</g>
<!-- Node16 -->
<g id="node16" class="node">
<title>Node16</title>
<g id="a_node16"><a xlink:href="test__gravity_8c.html#a87bcba11fc8f8f2ad649784bb1b8a48d" target="_top" xlink:title=" ">
<polygon fill="white" stroke="black" points="93.5,-375.7 93.5,-394.7 179.5,-394.7 179.5,-375.7 93.5,-375.7"/>
<text text-anchor="middle" x="136.5" y="-382.7" font-family="Helvetica,sans-Serif" font-size="10.00">test_force_flat</text>
</a>
</g>
</g>
<!-- Node11&#45;&gt;Node16 -->
<g id="edge16" class="edge">
<title>Node11&#45;&gt;Node16</title>
<path fill="none" stroke="midnightblue" d="M389.04,-447.92C384.3,-446.06 379.52,-444.12 375,-442.2 358.72,-435.28 355.8,-430.74 339,-425.2 285.31,-407.5 220.87,-396.38 179.56,-390.48"/>
<polygon fill="midnightblue" stroke="midnightblue" points="388.05,-451.29 398.64,-451.62 390.57,-444.76 388.05,-451.29"/>
</g>
<!-- Node13 -->
<g id="node13" class="node">
<title>Node13</title>
<g id="a_node13"><a xlink:href="test__gravity_8c.html#a17492d7388898745e66a636173c8ce1d" target="_top" xlink:title=" ">
<polygon fill="white" stroke="black" points="82.5,-451.7 82.5,-470.7 190.5,-470.7 190.5,-451.7 82.5,-451.7"/>
<text text-anchor="middle" x="136.5" y="-458.7" font-family="Helvetica,sans-Serif" font-size="10.00">test_force_random</text>
</a>
</g>
</g>
<!-- Node12&#45;&gt;Node13 -->
<g id="edge12" class="edge">
<title>Node12&#45;&gt;Node13</title>
<path fill="none" stroke="midnightblue" d="M227.89,-461.2C215.64,-461.2 202.73,-461.2 190.62,-461.2"/>
<polygon fill="midnightblue" stroke="midnightblue" points="227.99,-464.7 237.99,-461.2 227.99,-457.7 227.99,-464.7"/>
</g>
<!-- Node14 -->
<g id="node14" class="node">
<title>Node14</title>
<g id="a_node14"><a xlink:href="test__gravity_8c.html#a840291bc02cba5474a4cb46a9b9566fe" target="_top" xlink:title=" ">
<polygon fill="white" stroke="black" points="0,-413.7 0,-432.7 41,-432.7 41,-413.7 0,-413.7"/>
<text text-anchor="middle" x="20.5" y="-420.7" font-family="Helvetica,sans-Serif" font-size="10.00">main</text>
</a>
</g>
</g>
<!-- Node13&#45;&gt;Node14 -->
<g id="edge13" class="edge">
<title>Node13&#45;&gt;Node14</title>
<path fill="none" stroke="midnightblue" d="M95.94,-448.45C89.6,-446.38 83.12,-444.24 77,-442.2 65.12,-438.24 51.84,-433.7 41.25,-430.05"/>
<polygon fill="midnightblue" stroke="midnightblue" points="95.12,-451.86 105.71,-451.63 97.28,-445.2 95.12,-451.86"/>
</g>
<!-- Node15&#45;&gt;Node14 -->
<g id="edge15" class="edge">
<title>Node15&#45;&gt;Node14</title>
<path fill="none" stroke="midnightblue" d="M78.29,-423.2C64.91,-423.2 51.54,-423.2 41.14,-423.2"/>
<polygon fill="midnightblue" stroke="midnightblue" points="78.47,-426.7 88.47,-423.2 78.47,-419.7 78.47,-426.7"/>
</g>
<!-- Node16&#45;&gt;Node14 -->
<g id="edge17" class="edge">
<title>Node16&#45;&gt;Node14</title>
<path fill="none" stroke="midnightblue" d="M95.94,-397.96C89.6,-400.03 83.12,-402.16 77,-404.2 65.12,-408.16 51.84,-412.71 41.25,-416.35"/>
<polygon fill="midnightblue" stroke="midnightblue" points="97.28,-401.2 105.71,-394.78 95.12,-394.54 97.28,-401.2"/>
</g>
<!-- Node20 -->
<g id="node20" class="node">
<title>Node20</title>
<g id="a_node20"><a xlink:href="test__cosmology_8c.html#a827aa5bd8e2e3f1cc0a15cbcf4655f35" target="_top" xlink:title=" ">
<polygon fill="white" stroke="black" points="238.5,-337.7 238.5,-356.7 332.5,-356.7 332.5,-337.7 238.5,-337.7"/>
<text text-anchor="middle" x="285.5" y="-344.7" font-family="Helvetica,sans-Serif" font-size="10.00">test_cosmology</text>
</a>
</g>
</g>
<!-- Node19&#45;&gt;Node20 -->
<g id="edge21" class="edge">
<title>Node19&#45;&gt;Node20</title>
<path fill="none" stroke="midnightblue" d="M364.82,-347.2C354.07,-347.2 343.02,-347.2 332.74,-347.2"/>
<polygon fill="midnightblue" stroke="midnightblue" points="365,-350.7 375,-347.2 365,-343.7 365,-350.7"/>
</g>
<!-- Node21 -->
<g id="node21" class="node">
<title>Node21</title>
<g id="a_node21"><a xlink:href="test__cosmology_8c.html#a840291bc02cba5474a4cb46a9b9566fe" target="_top" xlink:title=" ">
<polygon fill="white" stroke="black" points="116,-337.7 116,-356.7 157,-356.7 157,-337.7 116,-337.7"/>
<text text-anchor="middle" x="136.5" y="-344.7" font-family="Helvetica,sans-Serif" font-size="10.00">main</text>
</a>
</g>
</g>
<!-- Node20&#45;&gt;Node21 -->
<g id="edge22" class="edge">
<title>Node20&#45;&gt;Node21</title>
<path fill="none" stroke="midnightblue" d="M228.26,-347.2C203.26,-347.2 175.45,-347.2 157.28,-347.2"/>
<polygon fill="midnightblue" stroke="midnightblue" points="228.39,-350.7 238.39,-347.2 228.39,-343.7 228.39,-350.7"/>
</g>
<!-- Node23 -->
<g id="node23" class="node">
<title>Node23</title>
<g id="a_node23"><a xlink:href="test__neutrinos__lra_8c.html#a840291bc02cba5474a4cb46a9b9566fe" target="_top" xlink:title=" ">
<polygon fill="white" stroke="black" points="405.5,-299.7 405.5,-318.7 446.5,-318.7 446.5,-299.7 405.5,-299.7"/>
<text text-anchor="middle" x="426" y="-306.7" font-family="Helvetica,sans-Serif" font-size="10.00">main</text>
</a>
</g>
</g>
<!-- Node22&#45;&gt;Node23 -->
<g id="edge24" class="edge">
<title>Node22&#45;&gt;Node23</title>
<path fill="none" stroke="midnightblue" d="M510.88,-329.04C487.64,-323.54 463.09,-317.73 446.59,-313.83"/>
<polygon fill="midnightblue" stroke="midnightblue" points="510.19,-332.47 520.73,-331.37 511.8,-325.66 510.19,-332.47"/>
</g>
<!-- Node25 -->
<g id="node25" class="node">
<title>Node25</title>
<g id="a_node25"><a xlink:href="test__omega__nu__single_8c.html#a840291bc02cba5474a4cb46a9b9566fe" target="_top" xlink:title=" ">
<polygon fill="white" stroke="black" points="405.5,-146.7 405.5,-165.7 446.5,-165.7 446.5,-146.7 405.5,-146.7"/>
<text text-anchor="middle" x="426" y="-153.7" font-family="Helvetica,sans-Serif" font-size="10.00">main</text>
</a>
</g>
</g>
<!-- Node24&#45;&gt;Node25 -->
<g id="edge26" class="edge">
<title>Node24&#45;&gt;Node25</title>
<path fill="none" stroke="midnightblue" d="M521.42,-286.43C518.46,-284.87 515.63,-283.13 513,-281.2 469.88,-249.58 441.07,-189.51 430.99,-165.99"/>
<polygon fill="midnightblue" stroke="midnightblue" points="520.01,-289.63 530.55,-290.62 522.92,-283.27 520.01,-289.63"/>
</g>
<!-- Node26&#45;&gt;Node25 -->
<g id="edge28" class="edge">
<title>Node26&#45;&gt;Node25</title>
<path fill="none" stroke="midnightblue" d="M524.37,-249.03C520.42,-247.3 516.58,-245.37 513,-243.2 478.11,-222.09 447.18,-183.71 433.9,-165.84"/>
<polygon fill="midnightblue" stroke="midnightblue" points="523.15,-252.31 533.74,-252.7 525.71,-245.79 523.15,-252.31"/>
</g>
<!-- Node27&#45;&gt;Node25 -->
<g id="edge30" class="edge">
<title>Node27&#45;&gt;Node25</title>
<path fill="none" stroke="midnightblue" d="M529.21,-211.43C523.68,-209.52 518.17,-207.43 513,-205.2 486.65,-193.82 458.08,-176.44 441.4,-165.73"/>
<polygon fill="midnightblue" stroke="midnightblue" points="528.51,-214.88 539.1,-214.67 530.69,-208.23 528.51,-214.88"/>
</g>
<!-- Node28&#45;&gt;Node25 -->
<g id="edge32" class="edge">
<title>Node28&#45;&gt;Node25</title>
<path fill="none" stroke="midnightblue" d="M509.44,-169.57C486.64,-165.87 462.75,-162 446.59,-159.38"/>
<polygon fill="midnightblue" stroke="midnightblue" points="509.04,-173.05 519.47,-171.2 510.16,-166.14 509.04,-173.05"/>
</g>
<!-- Node29&#45;&gt;Node25 -->
<g id="edge34" class="edge">
<title>Node29&#45;&gt;Node25</title>
<path fill="none" stroke="midnightblue" d="M509.44,-142.27C486.64,-146.13 462.75,-150.16 446.59,-152.89"/>
<polygon fill="midnightblue" stroke="midnightblue" points="510.19,-145.7 519.47,-140.58 509.03,-138.8 510.19,-145.7"/>
</g>
<!-- Node30&#45;&gt;Node25 -->
<g id="edge36" class="edge">
<title>Node30&#45;&gt;Node25</title>
<path fill="none" stroke="midnightblue" d="M531.36,-100.02C525.12,-102.22 518.84,-104.63 513,-107.2 486.9,-118.7 458.48,-135.89 441.73,-146.56"/>
<polygon fill="midnightblue" stroke="midnightblue" points="532.7,-103.26 541.07,-96.76 530.47,-96.63 532.7,-103.26"/>
</g>
<!-- Node31&#45;&gt;Node25 -->
<g id="edge38" class="edge">
<title>Node31&#45;&gt;Node25</title>
<path fill="none" stroke="midnightblue" d="M522.09,-62.74C518.94,-64.45 515.88,-66.27 513,-68.2 479.1,-90.9 447.91,-128.72 434.26,-146.45"/>
<polygon fill="midnightblue" stroke="midnightblue" points="523.76,-65.81 531.14,-58.21 520.63,-59.55 523.76,-65.81"/>
</g>
<!-- Node32&#45;&gt;Node25 -->
<g id="edge40" class="edge">
<title>Node32&#45;&gt;Node25</title>
<path fill="none" stroke="midnightblue" d="M708.47,-75.3C693.92,-56.97 668.48,-29.6 639,-18.2 586.77,1.99 561.96,8.98 513,-18.2 461.66,-46.7 436.97,-119.99 429.52,-146.47"/>
<polygon fill="midnightblue" stroke="midnightblue" points="705.86,-77.64 714.72,-83.46 711.42,-73.39 705.86,-77.64"/>
</g>
</g>
</svg>
