<?xml version="1.0" encoding="UTF-8" standalone="no"?>
<!DOCTYPE svg PUBLIC "-//W3C//DTD SVG 1.1//EN"
 "http://www.w3.org/Graphics/SVG/1.1/DTD/svg11.dtd">
<!-- Generated by graphviz version 2.38.0 (20140413.2041)
 -->
<!-- Title: openmpsort.h Pages: 1 -->
<svg width="204pt" height="172pt"
 viewBox="0.00 0.00 203.95 172.00" xmlns="http://www.w3.org/2000/svg" xmlns:xlink="http://www.w3.org/1999/xlink">
<g id="graph0" class="graph" transform="scale(1 1) rotate(0) translate(4 168)">
<title>openmpsort.h</title>
<polygon fill="white" stroke="none" points="-4,4 -4,-168 199.952,-168 199.952,4 -4,4"/>
<!-- Node1 -->
<g id="node1" class="node"><title>Node1</title>
<polygon fill="#bfbfbf" stroke="black" points="58.9761,-72.5 58.9761,-91.5 134.976,-91.5 134.976,-72.5 58.9761,-72.5"/>
<text text-anchor="middle" x="96.9761" y="-79.5" font-family="Helvetica,sans-Serif" font-size="10.00">openmpsort.h</text>
</g>
<!-- Node2 -->
<g id="node2" class="node"><title>Node2</title>
<g id="a_node2"><a xlink:href="domain_8c.html" target="_top" xlink:title="code for domain decomposition ">
<polygon fill="white" stroke="black" points="137.452,-94.7492 137.452,-113.749 193.452,-113.749 193.452,-94.7492 137.452,-94.7492"/>
<text text-anchor="middle" x="165.452" y="-101.749" font-family="Helvetica,sans-Serif" font-size="10.00">domain.c</text>
</a>
</g>
</g>
<!-- Node1&#45;&gt;Node2 -->
<g id="edge1" class="edge"><title>Node1&#45;&gt;Node2</title>
<path fill="none" stroke="midnightblue" d="M135.985,-94.6748C136.438,-94.8221 136.89,-94.9689 137.341,-95.1153"/>
<polygon fill="midnightblue" stroke="midnightblue" points="137.006,-91.3263 126.413,-91.5648 134.842,-97.9837 137.006,-91.3263"/>
</g>
<!-- Node3 -->
<g id="node3" class="node"><title>Node3</title>
<g id="a_node3"><a xlink:href="fof_8c.html" target="_top" xlink:title="parallel FoF group finder ">
<polygon fill="white" stroke="black" points="121.297,-130.749 121.297,-149.749 157.297,-149.749 157.297,-130.749 121.297,-130.749"/>
<text text-anchor="middle" x="139.297" y="-137.749" font-family="Helvetica,sans-Serif" font-size="10.00">fof.c</text>
</a>
</g>
</g>
<!-- Node1&#45;&gt;Node3 -->
<g id="edge2" class="edge"><title>Node1&#45;&gt;Node3</title>
<path fill="none" stroke="midnightblue" d="M109.884,-99.7657C117.201,-109.838 126.081,-122.059 132.156,-130.422"/>
<polygon fill="midnightblue" stroke="midnightblue" points="112.674,-97.6516 103.964,-91.6187 107.011,-101.766 112.674,-97.6516"/>
</g>
<!-- Node4 -->
<g id="node4" class="node"><title>Node4</title>
<g id="a_node4"><a xlink:href="fofpetaio_8c.html" target="_top" xlink:title="fofpetaio.c">
<polygon fill="white" stroke="black" points="65.9761,-144.5 65.9761,-163.5 127.976,-163.5 127.976,-144.5 65.9761,-144.5"/>
<text text-anchor="middle" x="96.9761" y="-151.5" font-family="Helvetica,sans-Serif" font-size="10.00">fofpetaio.c</text>
</a>
</g>
</g>
<!-- Node1&#45;&gt;Node4 -->
<g id="edge3" class="edge"><title>Node1&#45;&gt;Node4</title>
<path fill="none" stroke="midnightblue" d="M96.9761,-101.757C96.9761,-115.643 96.9761,-133.607 96.9761,-144.444"/>
<polygon fill="midnightblue" stroke="midnightblue" points="100.476,-101.71 96.9761,-91.7102 93.4762,-101.71 100.476,-101.71"/>
</g>
<!-- Node5 -->
<g id="node5" class="node"><title>Node5</title>
<g id="a_node5"><a xlink:href="forcetree_8c.html" target="_top" xlink:title="gravitational tree and code for Ewald correction ">
<polygon fill="white" stroke="black" points="23.1555,-130.749 23.1555,-149.749 86.1555,-149.749 86.1555,-130.749 23.1555,-130.749"/>
<text text-anchor="middle" x="54.6555" y="-137.749" font-family="Helvetica,sans-Serif" font-size="10.00">forcetree.c</text>
</a>
</g>
</g>
<!-- Node1&#45;&gt;Node5 -->
<g id="edge4" class="edge"><title>Node1&#45;&gt;Node5</title>
<path fill="none" stroke="midnightblue" d="M84.0686,-99.7657C76.7507,-109.838 67.8714,-122.059 61.7957,-130.422"/>
<polygon fill="midnightblue" stroke="midnightblue" points="86.9414,-101.766 89.9877,-91.6187 81.2782,-97.6516 86.9414,-101.766"/>
</g>
<!-- Node6 -->
<g id="node6" class="node"><title>Node6</title>
<g id="a_node6"><a xlink:href="petaio_8c.html" target="_top" xlink:title="petaio.c">
<polygon fill="white" stroke="black" points="3,-94.7492 3,-113.749 54,-113.749 54,-94.7492 3,-94.7492"/>
<text text-anchor="middle" x="28.5" y="-101.749" font-family="Helvetica,sans-Serif" font-size="10.00">petaio.c</text>
</a>
</g>
</g>
<!-- Node1&#45;&gt;Node6 -->
<g id="edge5" class="edge"><title>Node1&#45;&gt;Node6</title>
<path fill="none" stroke="midnightblue" d="M57.7903,-94.7322C56.5268,-95.1428 55.2725,-95.5503 54.0345,-95.9526"/>
<polygon fill="midnightblue" stroke="midnightblue" points="59.1097,-97.9837 67.5387,-91.5648 56.9465,-91.3263 59.1097,-97.9837"/>
</g>
<!-- Node7 -->
<g id="node7" class="node"><title>Node7</title>
<g id="a_node7"><a xlink:href="petapm_8c.html" target="_top" xlink:title="petapm.c">
<polygon fill="white" stroke="black" points="-7.10543e-15,-50.2508 -7.10543e-15,-69.2508 57,-69.2508 57,-50.2508 -7.10543e-15,-50.2508"/>
<text text-anchor="middle" x="28.5" y="-57.2508" font-family="Helvetica,sans-Serif" font-size="10.00">petapm.c</text>
</a>
</g>
</g>
<!-- Node1&#45;&gt;Node7 -->
<g id="edge6" class="edge"><title>Node1&#45;&gt;Node7</title>
<path fill="none" stroke="midnightblue" d="M58.0213,-69.3428C57.695,-69.2368 57.3692,-69.131 57.0442,-69.0253"/>
<polygon fill="midnightblue" stroke="midnightblue" points="56.9465,-72.6737 67.5387,-72.4352 59.1097,-66.0163 56.9465,-72.6737"/>
</g>
<!-- Node8 -->
<g id="node8" class="node"><title>Node8</title>
<g id="a_node8"><a xlink:href="slotsmanager_8c.html" target="_top" xlink:title="slotsmanager.c">
<polygon fill="white" stroke="black" points="13.1555,-14.2508 13.1555,-33.2508 96.1555,-33.2508 96.1555,-14.2508 13.1555,-14.2508"/>
<text text-anchor="middle" x="54.6555" y="-21.2508" font-family="Helvetica,sans-Serif" font-size="10.00">slotsmanager.c</text>
</a>
</g>
</g>
<!-- Node1&#45;&gt;Node8 -->
<g id="edge7" class="edge"><title>Node1&#45;&gt;Node8</title>
<path fill="none" stroke="midnightblue" d="M84.0686,-64.2343C76.7507,-54.1622 67.8714,-41.9408 61.7957,-33.5784"/>
<polygon fill="midnightblue" stroke="midnightblue" points="81.2782,-66.3484 89.9877,-72.3813 86.9414,-62.2339 81.2782,-66.3484"/>
</g>
<!-- Node9 -->
<g id="node9" class="node"><title>Node9</title>
<g id="a_node9"><a xlink:href="timestep_8c.html" target="_top" xlink:title="routines for &#39;kicking&#39; particles in momentum space and assigning new timesteps ">
<polygon fill="white" stroke="black" points="65.9761,-0.5 65.9761,-19.5 127.976,-19.5 127.976,-0.5 65.9761,-0.5"/>
<text text-anchor="middle" x="96.9761" y="-7.5" font-family="Helvetica,sans-Serif" font-size="10.00">timestep.c</text>
</a>
</g>
</g>
<!-- Node1&#45;&gt;Node9 -->
<g id="edge8" class="edge"><title>Node1&#45;&gt;Node9</title>
<path fill="none" stroke="midnightblue" d="M96.9761,-62.2426C96.9761,-48.3573 96.9761,-30.393 96.9761,-19.5564"/>
<polygon fill="midnightblue" stroke="midnightblue" points="93.4762,-62.2897 96.9761,-72.2898 100.476,-62.2898 93.4762,-62.2897"/>
</g>
<!-- Node10 -->
<g id="node10" class="node"><title>Node10</title>
<g id="a_node10"><a xlink:href="treewalk_8c.html" target="_top" xlink:title="treewalk.c">
<polygon fill="white" stroke="black" points="108.297,-14.2508 108.297,-33.2508 170.297,-33.2508 170.297,-14.2508 108.297,-14.2508"/>
<text text-anchor="middle" x="139.297" y="-21.2508" font-family="Helvetica,sans-Serif" font-size="10.00">treewalk.c</text>
</a>
</g>
</g>
<!-- Node1&#45;&gt;Node10 -->
<g id="edge9" class="edge"><title>Node1&#45;&gt;Node10</title>
<path fill="none" stroke="midnightblue" d="M109.884,-64.2343C117.201,-54.1622 126.081,-41.9408 132.156,-33.5784"/>
<polygon fill="midnightblue" stroke="midnightblue" points="107.011,-62.2339 103.964,-72.3813 112.674,-66.3484 107.011,-62.2339"/>
</g>
<!-- Node11 -->
<g id="node11" class="node"><title>Node11</title>
<g id="a_node11"><a xlink:href="walltime_8c.html" target="_top" xlink:title="walltime.c">
<polygon fill="white" stroke="black" points="134.952,-50.2508 134.952,-69.2508 195.952,-69.2508 195.952,-50.2508 134.952,-50.2508"/>
<text text-anchor="middle" x="165.452" y="-57.2508" font-family="Helvetica,sans-Serif" font-size="10.00">walltime.c</text>
</a>
</g>
</g>
<!-- Node1&#45;&gt;Node11 -->
<g id="edge10" class="edge"><title>Node1&#45;&gt;Node11</title>
<path fill="none" stroke="midnightblue" d="M135.74,-69.4047C135.84,-69.3723 135.94,-69.3399 136.04,-69.3075"/>
<polygon fill="midnightblue" stroke="midnightblue" points="134.842,-66.0163 126.413,-72.4352 137.006,-72.6737 134.842,-66.0163"/>
</g>
</g>
</svg>
