<?xml version="1.0" encoding="UTF-8" standalone="no"?>
<!DOCTYPE svg PUBLIC "-//W3C//DTD SVG 1.1//EN"
 "http://www.w3.org/Graphics/SVG/1.1/DTD/svg11.dtd">
<!-- Generated by graphviz version 2.38.0 (20140413.2041)
 -->
<!-- Title: param_get_double Pages: 1 -->
<svg width="614pt" height="47pt"
 viewBox="0.00 0.00 614.00 47.00" xmlns="http://www.w3.org/2000/svg" xmlns:xlink="http://www.w3.org/1999/xlink">
<g id="graph0" class="graph" transform="scale(1 1) rotate(0) translate(4 43)">
<title>param_get_double</title>
<polygon fill="white" stroke="none" points="-4,4 -4,-43 610,-43 610,4 -4,4"/>
<!-- Node101 -->
<g id="node1" class="node"><title>Node101</title>
<polygon fill="#bfbfbf" stroke="black" points="0,-0.5 0,-19.5 96,-19.5 96,-0.5 0,-0.5"/>
<text text-anchor="middle" x="48" y="-7.5" font-family="Helvetica,sans-Serif" font-size="10.00">param_get_double</text>
</g>
<!-- Node102 -->
<g id="node2" class="node"><title>Node102</title>
<g id="a_node2"><a xlink:href="param_8h.html#a952eae1977b498c4fdfabed1742a3ba2" target="_top" xlink:title="read_parameter_file">
<polygon fill="white" stroke="black" points="132,-0.5 132,-19.5 234,-19.5 234,-0.5 132,-0.5"/>
<text text-anchor="middle" x="183" y="-7.5" font-family="Helvetica,sans-Serif" font-size="10.00">read_parameter_file</text>
</a>
</g>
</g>
<!-- Node101&#45;&gt;Node102 -->
<g id="edge1" class="edge"><title>Node101&#45;&gt;Node102</title>
<path fill="none" stroke="midnightblue" d="M106.41,-10C114.837,-10 123.464,-10 131.733,-10"/>
<polygon fill="midnightblue" stroke="midnightblue" points="106.265,-6.5001 96.2653,-10 106.265,-13.5001 106.265,-6.5001"/>
</g>
<!-- Node103 -->
<g id="node3" class="node"><title>Node103</title>
<g id="a_node3"><a xlink:href="main_8c.html#a3c04138a5bfe5d72780bb7e82a18e627" target="_top" xlink:title="main">
<polygon fill="white" stroke="black" points="270,-0.5 270,-19.5 308,-19.5 308,-0.5 270,-0.5"/>
<text text-anchor="middle" x="289" y="-7.5" font-family="Helvetica,sans-Serif" font-size="10.00">main</text>
</a>
</g>
</g>
<!-- Node102&#45;&gt;Node103 -->
<g id="edge2" class="edge"><title>Node102&#45;&gt;Node103</title>
<path fill="none" stroke="midnightblue" d="M244.246,-10C253.454,-10 262.308,-10 269.613,-10"/>
<polygon fill="midnightblue" stroke="midnightblue" points="244.172,-6.5001 234.172,-10 244.172,-13.5001 244.172,-6.5001"/>
</g>
<!-- Node104 -->
<g id="node4" class="node"><title>Node104</title>
<g id="a_node4"><a xlink:href="walltime_8h.html#a76d2135b612766d4d665748454b879d6" target="_top" xlink:title="walltime_report">
<polygon fill="white" stroke="black" points="344,-19.5 344,-38.5 427,-38.5 427,-19.5 344,-19.5"/>
<text text-anchor="middle" x="385.5" y="-26.5" font-family="Helvetica,sans-Serif" font-size="10.00">walltime_report</text>
</a>
</g>
</g>
<!-- Node103&#45;&gt;Node104 -->
<g id="edge3" class="edge"><title>Node103&#45;&gt;Node104</title>
<path fill="none" stroke="midnightblue" d="M318.141,-15.658C326.148,-17.2678 335.035,-19.0547 343.635,-20.7837"/>
<polygon fill="midnightblue" stroke="midnightblue" points="318.714,-12.2033 308.221,-13.6634 317.334,-19.0659 318.714,-12.2033"/>
</g>
<!-- Node105 -->
<g id="node5" class="node"><title>Node105</title>
<g id="a_node5"><a xlink:href="run_8c.html#adc59e9ee1517e4e690694a64ab6a59d2" target="_top" xlink:title="write_cpu_log">
<polygon fill="white" stroke="black" points="463,-19.5 463,-38.5 540,-38.5 540,-19.5 463,-19.5"/>
<text text-anchor="middle" x="501.5" y="-26.5" font-family="Helvetica,sans-Serif" font-size="10.00">write_cpu_log</text>
</a>
</g>
</g>
<!-- Node104&#45;&gt;Node105 -->
<g id="edge4" class="edge"><title>Node104&#45;&gt;Node105</title>
<path fill="none" stroke="midnightblue" d="M437.031,-29C445.684,-29 454.54,-29 462.785,-29"/>
<polygon fill="midnightblue" stroke="midnightblue" points="437.013,-25.5001 427.013,-29 437.013,-32.5001 437.013,-25.5001"/>
</g>
<!-- Node106 -->
<g id="node6" class="node"><title>Node106</title>
<g id="a_node6"><a xlink:href="run_8c.html#a05e0ffe612d44e6d7f3a9ae5b9df56a2" target="_top" xlink:title="run">
<polygon fill="white" stroke="black" points="576,-0.5 576,-19.5 606,-19.5 606,-0.5 576,-0.5"/>
<text text-anchor="middle" x="591" y="-7.5" font-family="Helvetica,sans-Serif" font-size="10.00">run</text>
</a>
</g>
</g>
<!-- Node105&#45;&gt;Node106 -->
<g id="edge5" class="edge"><title>Node105&#45;&gt;Node106</title>
<path fill="none" stroke="midnightblue" d="M549.925,-18.7021C559.329,-16.6601 568.505,-14.6676 575.698,-13.1056"/>
<polygon fill="midnightblue" stroke="midnightblue" points="549.145,-15.2897 540.116,-20.832 550.631,-22.1303 549.145,-15.2897"/>
</g>
<!-- Node106&#45;&gt;Node103 -->
<g id="edge6" class="edge"><title>Node106&#45;&gt;Node103</title>
<path fill="none" stroke="midnightblue" d="M565.758,-10C507.391,-10 360.064,-10 308.315,-10"/>
<polygon fill="midnightblue" stroke="midnightblue" points="565.885,-13.5001 575.885,-10 565.885,-6.5001 565.885,-13.5001"/>
</g>
</g>
</svg>
