<?xml version="1.0" encoding="UTF-8" standalone="no"?>
<!DOCTYPE svg PUBLIC "-//W3C//DTD SVG 1.1//EN"
 "http://www.w3.org/Graphics/SVG/1.1/DTD/svg11.dtd">
<!-- Generated by graphviz version 2.38.0 (20140413.2041)
 -->
<!-- Title: param.h Pages: 1 -->
<svg width="150pt" height="66pt"
 viewBox="0.00 0.00 150.00 66.00" xmlns="http://www.w3.org/2000/svg" xmlns:xlink="http://www.w3.org/1999/xlink">
<g id="graph0" class="graph" transform="scale(1 1) rotate(0) translate(4 62)">
<title>param.h</title>
<polygon fill="white" stroke="none" points="-4,4 -4,-62 146,-62 146,4 -4,4"/>
<!-- Node1 -->
<g id="node1" class="node"><title>Node1</title>
<polygon fill="#bfbfbf" stroke="black" points="0,-19.5 0,-38.5 52,-38.5 52,-19.5 0,-19.5"/>
<text text-anchor="middle" x="26" y="-26.5" font-family="Helvetica,sans-Serif" font-size="10.00">param.h</text>
</g>
<!-- Node2 -->
<g id="node2" class="node"><title>Node2</title>
<g id="a_node2"><a xlink:href="begrun_8c.html" target="_top" xlink:title="initial set&#45;up of a simulation run ">
<polygon fill="white" stroke="black" points="88,-38.5 88,-57.5 142,-57.5 142,-38.5 88,-38.5"/>
<text text-anchor="middle" x="115" y="-45.5" font-family="Helvetica,sans-Serif" font-size="10.00">begrun.c</text>
</a>
</g>
</g>
<!-- Node1&#45;&gt;Node2 -->
<g id="edge1" class="edge"><title>Node1&#45;&gt;Node2</title>
<path fill="none" stroke="midnightblue" d="M62.0366,-36.6517C70.7029,-38.5443 79.8354,-40.5388 87.9855,-42.3187"/>
<polygon fill="midnightblue" stroke="midnightblue" points="62.6805,-33.2099 52.164,-34.4956 61.1869,-40.0487 62.6805,-33.2099"/>
</g>
<!-- Node3 -->
<g id="node3" class="node"><title>Node3</title>
<g id="a_node3"><a xlink:href="main_8c.html" target="_top" xlink:title="start of the program ">
<polygon fill="white" stroke="black" points="92,-0.5 92,-19.5 138,-19.5 138,-0.5 92,-0.5"/>
<text text-anchor="middle" x="115" y="-7.5" font-family="Helvetica,sans-Serif" font-size="10.00">main.c</text>
</a>
</g>
</g>
<!-- Node1&#45;&gt;Node3 -->
<g id="edge2" class="edge"><title>Node1&#45;&gt;Node3</title>
<path fill="none" stroke="midnightblue" d="M61.9559,-21.366C72.0452,-19.1625 82.773,-16.8197 91.8511,-14.8371"/>
<polygon fill="midnightblue" stroke="midnightblue" points="61.1869,-17.9513 52.164,-23.5044 62.6805,-24.7901 61.1869,-17.9513"/>
</g>
</g>
</svg>
