<?xml version="1.0" encoding="UTF-8" standalone="no"?>
<!DOCTYPE svg PUBLIC "-//W3C//DTD SVG 1.1//EN"
 "http://www.w3.org/Graphics/SVG/1.1/DTD/svg11.dtd">
<!-- Generated by graphviz version 2.38.0 (20140413.2041)
 -->
<!-- Title: param_get_enum Pages: 1 -->
<svg width="992pt" height="47pt"
 viewBox="0.00 0.00 992.00 47.00" xmlns="http://www.w3.org/2000/svg" xmlns:xlink="http://www.w3.org/1999/xlink">
<g id="graph0" class="graph" transform="scale(1 1) rotate(0) translate(4 43)">
<title>param_get_enum</title>
<polygon fill="white" stroke="none" points="-4,4 -4,-43 988,-43 988,4 -4,4"/>
<!-- Node109 -->
<g id="node1" class="node"><title>Node109</title>
<polygon fill="#bfbfbf" stroke="black" points="0,-0.5 0,-19.5 92,-19.5 92,-0.5 0,-0.5"/>
<text text-anchor="middle" x="46" y="-7.5" font-family="Helvetica,sans-Serif" font-size="10.00">param_get_enum</text>
</g>
<!-- Node110 -->
<g id="node2" class="node"><title>Node110</title>
<g id="a_node2"><a xlink:href="param_8c.html#ac6ec3f94dd097b2bbf9ace392666f78c" target="_top" xlink:title="BlackHoleFeedbackMethodAction">
<polygon fill="white" stroke="black" points="128,-19.5 128,-38.5 292,-38.5 292,-19.5 128,-19.5"/>
<text text-anchor="middle" x="210" y="-26.5" font-family="Helvetica,sans-Serif" font-size="10.00">BlackHoleFeedbackMethodAction</text>
</a>
</g>
</g>
<!-- Node109&#45;&gt;Node110 -->
<g id="edge1" class="edge"><title>Node109&#45;&gt;Node110</title>
<path fill="none" stroke="midnightblue" d="M102.319,-16.488C110.556,-17.4541 119.189,-18.4666 127.824,-19.4793"/>
<polygon fill="midnightblue" stroke="midnightblue" points="102.466,-12.9813 92.126,-15.2926 101.65,-19.9337 102.466,-12.9813"/>
</g>
<!-- Node112 -->
<g id="node4" class="node"><title>Node112</title>
<g id="a_node4"><a xlink:href="param_8h.html#a952eae1977b498c4fdfabed1742a3ba2" target="_top" xlink:title="read_parameter_file">
<polygon fill="white" stroke="black" points="510,-0.5 510,-19.5 612,-19.5 612,-0.5 510,-0.5"/>
<text text-anchor="middle" x="561" y="-7.5" font-family="Helvetica,sans-Serif" font-size="10.00">read_parameter_file</text>
</a>
</g>
</g>
<!-- Node109&#45;&gt;Node112 -->
<g id="edge9" class="edge"><title>Node109&#45;&gt;Node112</title>
<path fill="none" stroke="midnightblue" d="M102.313,-10C202.738,-10 413.563,-10 509.968,-10"/>
<polygon fill="midnightblue" stroke="midnightblue" points="102.076,-6.5001 92.0757,-10 102.076,-13.5001 102.076,-6.5001"/>
</g>
<!-- Node111 -->
<g id="node3" class="node"><title>Node111</title>
<g id="a_node3"><a xlink:href="param_8c.html#ada22ec1be9f6bea2e2fbb3e41ae796c0" target="_top" xlink:title="create_gadget_parameter_set">
<polygon fill="white" stroke="black" points="328,-19.5 328,-38.5 474,-38.5 474,-19.5 328,-19.5"/>
<text text-anchor="middle" x="401" y="-26.5" font-family="Helvetica,sans-Serif" font-size="10.00">create_gadget_parameter_set</text>
</a>
</g>
</g>
<!-- Node110&#45;&gt;Node111 -->
<g id="edge2" class="edge"><title>Node110&#45;&gt;Node111</title>
<path fill="none" stroke="midnightblue" d="M302.261,-29C310.817,-29 319.409,-29 327.755,-29"/>
<polygon fill="midnightblue" stroke="midnightblue" points="302.25,-25.5001 292.25,-29 302.25,-32.5001 302.25,-25.5001"/>
</g>
<!-- Node111&#45;&gt;Node112 -->
<g id="edge3" class="edge"><title>Node111&#45;&gt;Node112</title>
<path fill="none" stroke="midnightblue" d="M484.254,-19.1087C492.935,-18.0648 501.564,-17.0272 509.719,-16.0464"/>
<polygon fill="midnightblue" stroke="midnightblue" points="483.575,-15.665 474.065,-20.334 484.411,-22.615 483.575,-15.665"/>
</g>
<!-- Node113 -->
<g id="node5" class="node"><title>Node113</title>
<g id="a_node5"><a xlink:href="main_8c.html#a3c04138a5bfe5d72780bb7e82a18e627" target="_top" xlink:title="main">
<polygon fill="white" stroke="black" points="648,-0.5 648,-19.5 686,-19.5 686,-0.5 648,-0.5"/>
<text text-anchor="middle" x="667" y="-7.5" font-family="Helvetica,sans-Serif" font-size="10.00">main</text>
</a>
</g>
</g>
<!-- Node112&#45;&gt;Node113 -->
<g id="edge4" class="edge"><title>Node112&#45;&gt;Node113</title>
<path fill="none" stroke="midnightblue" d="M622.246,-10C631.454,-10 640.308,-10 647.613,-10"/>
<polygon fill="midnightblue" stroke="midnightblue" points="622.172,-6.5001 612.172,-10 622.172,-13.5001 622.172,-6.5001"/>
</g>
<!-- Node114 -->
<g id="node6" class="node"><title>Node114</title>
<g id="a_node6"><a xlink:href="walltime_8h.html#a76d2135b612766d4d665748454b879d6" target="_top" xlink:title="walltime_report">
<polygon fill="white" stroke="black" points="722,-19.5 722,-38.5 805,-38.5 805,-19.5 722,-19.5"/>
<text text-anchor="middle" x="763.5" y="-26.5" font-family="Helvetica,sans-Serif" font-size="10.00">walltime_report</text>
</a>
</g>
</g>
<!-- Node113&#45;&gt;Node114 -->
<g id="edge5" class="edge"><title>Node113&#45;&gt;Node114</title>
<path fill="none" stroke="midnightblue" d="M696.141,-15.658C704.148,-17.2678 713.035,-19.0547 721.635,-20.7837"/>
<polygon fill="midnightblue" stroke="midnightblue" points="696.714,-12.2033 686.221,-13.6634 695.334,-19.0659 696.714,-12.2033"/>
</g>
<!-- Node115 -->
<g id="node7" class="node"><title>Node115</title>
<g id="a_node7"><a xlink:href="run_8c.html#adc59e9ee1517e4e690694a64ab6a59d2" target="_top" xlink:title="write_cpu_log">
<polygon fill="white" stroke="black" points="841,-19.5 841,-38.5 918,-38.5 918,-19.5 841,-19.5"/>
<text text-anchor="middle" x="879.5" y="-26.5" font-family="Helvetica,sans-Serif" font-size="10.00">write_cpu_log</text>
</a>
</g>
</g>
<!-- Node114&#45;&gt;Node115 -->
<g id="edge6" class="edge"><title>Node114&#45;&gt;Node115</title>
<path fill="none" stroke="midnightblue" d="M815.031,-29C823.684,-29 832.54,-29 840.785,-29"/>
<polygon fill="midnightblue" stroke="midnightblue" points="815.013,-25.5001 805.013,-29 815.013,-32.5001 815.013,-25.5001"/>
</g>
<!-- Node116 -->
<g id="node8" class="node"><title>Node116</title>
<g id="a_node8"><a xlink:href="run_8c.html#a05e0ffe612d44e6d7f3a9ae5b9df56a2" target="_top" xlink:title="run">
<polygon fill="white" stroke="black" points="954,-0.5 954,-19.5 984,-19.5 984,-0.5 954,-0.5"/>
<text text-anchor="middle" x="969" y="-7.5" font-family="Helvetica,sans-Serif" font-size="10.00">run</text>
</a>
</g>
</g>
<!-- Node115&#45;&gt;Node116 -->
<g id="edge7" class="edge"><title>Node115&#45;&gt;Node116</title>
<path fill="none" stroke="midnightblue" d="M927.925,-18.7021C937.329,-16.6601 946.505,-14.6676 953.698,-13.1056"/>
<polygon fill="midnightblue" stroke="midnightblue" points="927.145,-15.2897 918.116,-20.832 928.631,-22.1303 927.145,-15.2897"/>
</g>
<!-- Node116&#45;&gt;Node113 -->
<g id="edge8" class="edge"><title>Node116&#45;&gt;Node113</title>
<path fill="none" stroke="midnightblue" d="M943.758,-10C885.391,-10 738.064,-10 686.315,-10"/>
<polygon fill="midnightblue" stroke="midnightblue" points="943.885,-13.5001 953.885,-10 943.885,-6.5001 943.885,-13.5001"/>
</g>
</g>
</svg>
