<?xml version="1.0" encoding="UTF-8" standalone="no"?>
<!DOCTYPE svg PUBLIC "-//W3C//DTD SVG 1.1//EN"
 "http://www.w3.org/Graphics/SVG/1.1/DTD/svg11.dtd">
<!-- Generated by graphviz version 2.38.0 (20140413.2041)
 -->
<!-- Title: param_get_schema Pages: 1 -->
<svg width="1287pt" height="400pt"
 viewBox="0.00 0.00 1287.00 400.07" xmlns="http://www.w3.org/2000/svg" xmlns:xlink="http://www.w3.org/1999/xlink">
<g id="graph0" class="graph" transform="scale(1 1) rotate(0) translate(4 396.071)">
<title>param_get_schema</title>
<polygon fill="white" stroke="none" points="-4,4 -4,-396.071 1283,-396.071 1283,4 -4,4"/>
<!-- Node126 -->
<g id="node1" class="node"><title>Node126</title>
<polygon fill="#bfbfbf" stroke="black" points="0,-171.5 0,-190.5 102,-190.5 102,-171.5 0,-171.5"/>
<text text-anchor="middle" x="51" y="-178.5" font-family="Helvetica,sans-Serif" font-size="10.00">param_get_schema</text>
</g>
<!-- Node127 -->
<g id="node2" class="node"><title>Node127</title>
<g id="a_node2"><a xlink:href="paramset_8c.html#a26be73c84ce0ed3dadb03e1fa2c0cedd" target="_top" xlink:title="param_emit">
<polygon fill="white" stroke="black" points="338,-342.5 338,-361.5 406,-361.5 406,-342.5 338,-342.5"/>
<text text-anchor="middle" x="372" y="-349.5" font-family="Helvetica,sans-Serif" font-size="10.00">param_emit</text>
</a>
</g>
</g>
<!-- Node126&#45;&gt;Node127 -->
<g id="edge1" class="edge"><title>Node126&#45;&gt;Node127</title>
<path fill="none" stroke="midnightblue" d="M54.0863,-200.756C59.5338,-241.108 78.2038,-332.429 138,-371 205.018,-414.229 306.431,-379.9 349.952,-361.608"/>
<polygon fill="midnightblue" stroke="midnightblue" points="57.5587,-200.317 52.8772,-190.812 50.6099,-201.162 57.5587,-200.317"/>
</g>
<!-- Node135 -->
<g id="node10" class="node"><title>Node135</title>
<g id="a_node10"><a xlink:href="paramset_8h.html#abc796ca69c38a8a09f96a5b3bf6c9e9e" target="_top" xlink:title="param_format_value">
<polygon fill="white" stroke="black" points="510.5,-304.5 510.5,-323.5 615.5,-323.5 615.5,-304.5 510.5,-304.5"/>
<text text-anchor="middle" x="563" y="-311.5" font-family="Helvetica,sans-Serif" font-size="10.00">param_format_value</text>
</a>
</g>
</g>
<!-- Node126&#45;&gt;Node135 -->
<g id="edge10" class="edge"><title>Node126&#45;&gt;Node135</title>
<path fill="none" stroke="midnightblue" d="M60.415,-199.535C73.1289,-225.071 99.866,-270.163 138,-290 201.364,-322.962 411.683,-319.778 510.221,-316.28"/>
<polygon fill="midnightblue" stroke="midnightblue" points="63.5691,-198.018 56.0993,-190.504 57.2533,-201.036 63.5691,-198.018"/>
</g>
<!-- Node137 -->
<g id="node12" class="node"><title>Node137</title>
<g id="a_node12"><a xlink:href="paramset_8h.html#ac1d42958f4bcbdd0333c831732ac7fef" target="_top" xlink:title="param_get_double">
<polygon fill="white" stroke="black" points="672.5,-266.5 672.5,-285.5 768.5,-285.5 768.5,-266.5 672.5,-266.5"/>
<text text-anchor="middle" x="720.5" y="-273.5" font-family="Helvetica,sans-Serif" font-size="10.00">param_get_double</text>
</a>
</g>
</g>
<!-- Node126&#45;&gt;Node137 -->
<g id="edge13" class="edge"><title>Node126&#45;&gt;Node137</title>
<path fill="none" stroke="midnightblue" d="M78.6702,-195.156C95.2926,-203.374 117.373,-213.215 138,-219 330.654,-273.034 571.651,-277.641 672.119,-276.909"/>
<polygon fill="midnightblue" stroke="midnightblue" points="80.069,-191.942 69.5661,-190.548 76.9078,-198.187 80.069,-191.942"/>
</g>
<!-- Node138 -->
<g id="node13" class="node"><title>Node138</title>
<g id="a_node13"><a xlink:href="paramset_8h.html#af00b50b651fe6d520a4f56591a90e703" target="_top" xlink:title="param_get_enum">
<polygon fill="white" stroke="black" points="150,-190.5 150,-209.5 242,-209.5 242,-190.5 150,-190.5"/>
<text text-anchor="middle" x="196" y="-197.5" font-family="Helvetica,sans-Serif" font-size="10.00">param_get_enum</text>
</a>
</g>
</g>
<!-- Node126&#45;&gt;Node138 -->
<g id="edge15" class="edge"><title>Node126&#45;&gt;Node138</title>
<path fill="none" stroke="midnightblue" d="M111.967,-188.968C124.545,-190.639 137.613,-192.375 149.557,-193.962"/>
<polygon fill="midnightblue" stroke="midnightblue" points="112.388,-185.493 102.014,-187.645 111.466,-192.432 112.388,-185.493"/>
</g>
<!-- Node141 -->
<g id="node16" class="node"><title>Node141</title>
<g id="a_node16"><a xlink:href="paramset_8h.html#ae07b9afa3e77c71426b5da053660575c" target="_top" xlink:title="param_get_int">
<polygon fill="white" stroke="black" points="524,-90.5 524,-109.5 602,-109.5 602,-90.5 524,-90.5"/>
<text text-anchor="middle" x="563" y="-97.5" font-family="Helvetica,sans-Serif" font-size="10.00">param_get_int</text>
</a>
</g>
</g>
<!-- Node126&#45;&gt;Node141 -->
<g id="edge20" class="edge"><title>Node126&#45;&gt;Node141</title>
<path fill="none" stroke="midnightblue" d="M69.8635,-164.802C86.2954,-150.921 111.99,-131.682 138,-122 272.533,-71.923 447.757,-85.3053 523.903,-94.5756"/>
<polygon fill="midnightblue" stroke="midnightblue" points="67.4154,-162.293 62.1624,-171.494 72.0066,-167.577 67.4154,-162.293"/>
</g>
<!-- Node142 -->
<g id="node17" class="node"><title>Node142</title>
<g id="a_node17"><a xlink:href="paramset_8h.html#a3ceb20041ba117cf0d79143d275c86ab" target="_top" xlink:title="param_get_string">
<polygon fill="white" stroke="black" points="150,-152.5 150,-171.5 242,-171.5 242,-152.5 150,-152.5"/>
<text text-anchor="middle" x="196" y="-159.5" font-family="Helvetica,sans-Serif" font-size="10.00">param_get_string</text>
</a>
</g>
</g>
<!-- Node126&#45;&gt;Node142 -->
<g id="edge22" class="edge"><title>Node126&#45;&gt;Node142</title>
<path fill="none" stroke="midnightblue" d="M111.967,-173.032C124.545,-171.361 137.613,-169.625 149.557,-168.038"/>
<polygon fill="midnightblue" stroke="midnightblue" points="111.466,-169.568 102.014,-174.355 112.388,-176.507 111.466,-169.568"/>
</g>
<!-- Node144 -->
<g id="node19" class="node"><title>Node144</title>
<g id="a_node19"><a xlink:href="paramset_8h.html#a7f4bbf8dd3aa075e633286fb96a5f7e7" target="_top" xlink:title="param_get_string2">
<polygon fill="white" stroke="black" points="672,-53.5 672,-72.5 769,-72.5 769,-53.5 672,-53.5"/>
<text text-anchor="middle" x="720.5" y="-60.5" font-family="Helvetica,sans-Serif" font-size="10.00">param_get_string2</text>
</a>
</g>
</g>
<!-- Node126&#45;&gt;Node144 -->
<g id="edge25" class="edge"><title>Node126&#45;&gt;Node144</title>
<path fill="none" stroke="midnightblue" d="M63.072,-162.66C77.3418,-140.926 104.365,-105.687 138,-90 319.582,-5.31424 568.66,-35.5998 671.797,-53.5734"/>
<polygon fill="midnightblue" stroke="midnightblue" points="59.9852,-160.993 57.5948,-171.314 65.9001,-164.736 59.9852,-160.993"/>
</g>
<!-- Node145 -->
<g id="node20" class="node"><title>Node145</title>
<g id="a_node20"><a xlink:href="paramset_8h.html#abeab9b33f6623305b8c87f9c1bfe43e5" target="_top" xlink:title="param_is_nil">
<polygon fill="white" stroke="black" points="160.5,-0.5 160.5,-19.5 231.5,-19.5 231.5,-0.5 160.5,-0.5"/>
<text text-anchor="middle" x="196" y="-7.5" font-family="Helvetica,sans-Serif" font-size="10.00">param_is_nil</text>
</a>
</g>
</g>
<!-- Node126&#45;&gt;Node145 -->
<g id="edge27" class="edge"><title>Node126&#45;&gt;Node145</title>
<path fill="none" stroke="midnightblue" d="M58.6547,-161.757C70.2288,-130.885 96.8386,-70.1005 138,-34 145.023,-27.8405 153.856,-23.0957 162.457,-19.5154"/>
<polygon fill="midnightblue" stroke="midnightblue" points="55.2985,-160.746 55.1886,-171.341 61.8812,-163.127 55.2985,-160.746"/>
</g>
<!-- Node146 -->
<g id="node21" class="node"><title>Node146</title>
<g id="a_node21"><a xlink:href="paramset_8h.html#a9597933d9a24d98898eae7ad01714bb1" target="_top" xlink:title="param_set_action">
<polygon fill="white" stroke="black" points="325,-114.5 325,-133.5 419,-133.5 419,-114.5 325,-114.5"/>
<text text-anchor="middle" x="372" y="-121.5" font-family="Helvetica,sans-Serif" font-size="10.00">param_set_action</text>
</a>
</g>
</g>
<!-- Node126&#45;&gt;Node146 -->
<g id="edge28" class="edge"><title>Node126&#45;&gt;Node146</title>
<path fill="none" stroke="midnightblue" d="M78.2565,-166.638C94.878,-158.253 117.104,-148.307 138,-143 201.332,-126.915 277.161,-123.547 324.719,-123.262"/>
<polygon fill="midnightblue" stroke="midnightblue" points="76.4374,-163.639 69.17,-171.348 79.6589,-169.854 76.4374,-163.639"/>
</g>
<!-- Node147 -->
<g id="node22" class="node"><title>Node147</title>
<g id="a_node22"><a xlink:href="paramset_8h.html#a2d8ecfdbf0c46786b719d8c4d59b9125" target="_top" xlink:title="param_set_from_string">
<polygon fill="white" stroke="black" points="138,-342.5 138,-361.5 254,-361.5 254,-342.5 138,-342.5"/>
<text text-anchor="middle" x="196" y="-349.5" font-family="Helvetica,sans-Serif" font-size="10.00">param_set_from_string</text>
</a>
</g>
</g>
<!-- Node126&#45;&gt;Node147 -->
<g id="edge30" class="edge"><title>Node126&#45;&gt;Node147</title>
<path fill="none" stroke="midnightblue" d="M58.6547,-200.243C70.2288,-231.115 96.8386,-291.9 138,-328 145.023,-334.16 153.856,-338.904 162.457,-342.485"/>
<polygon fill="midnightblue" stroke="midnightblue" points="61.8812,-198.873 55.1886,-190.659 55.2985,-201.254 61.8812,-198.873"/>
</g>
<!-- Node128 -->
<g id="node3" class="node"><title>Node128</title>
<g id="a_node3"><a xlink:href="paramset_8h.html#aaa7f4609208e32b39f261a8b19b1677f" target="_top" xlink:title="param_parse">
<polygon fill="white" stroke="black" points="526.5,-342.5 526.5,-361.5 599.5,-361.5 599.5,-342.5 526.5,-342.5"/>
<text text-anchor="middle" x="563" y="-349.5" font-family="Helvetica,sans-Serif" font-size="10.00">param_parse</text>
</a>
</g>
</g>
<!-- Node127&#45;&gt;Node128 -->
<g id="edge2" class="edge"><title>Node127&#45;&gt;Node128</title>
<path fill="none" stroke="midnightblue" d="M416.714,-352C450.021,-352 495.301,-352 526.411,-352"/>
<polygon fill="midnightblue" stroke="midnightblue" points="416.354,-348.5 406.354,-352 416.354,-355.5 416.354,-348.5"/>
</g>
<!-- Node129 -->
<g id="node4" class="node"><title>Node129</title>
<g id="a_node4"><a xlink:href="paramset_8h.html#a4aa79dc8ecf8ca7f0e0ea8aad5088377" target="_top" xlink:title="param_parse_file">
<polygon fill="white" stroke="black" points="675,-342.5 675,-361.5 766,-361.5 766,-342.5 675,-342.5"/>
<text text-anchor="middle" x="720.5" y="-349.5" font-family="Helvetica,sans-Serif" font-size="10.00">param_parse_file</text>
</a>
</g>
</g>
<!-- Node128&#45;&gt;Node129 -->
<g id="edge3" class="edge"><title>Node128&#45;&gt;Node129</title>
<path fill="none" stroke="midnightblue" d="M609.735,-352C630.264,-352 654.4,-352 674.804,-352"/>
<polygon fill="midnightblue" stroke="midnightblue" points="609.675,-348.5 599.675,-352 609.675,-355.5 609.675,-348.5"/>
</g>
<!-- Node130 -->
<g id="node5" class="node"><title>Node130</title>
<g id="a_node5"><a xlink:href="param_8h.html#a952eae1977b498c4fdfabed1742a3ba2" target="_top" xlink:title="read_parameter_file">
<polygon fill="white" stroke="black" points="805,-228.5 805,-247.5 907,-247.5 907,-228.5 805,-228.5"/>
<text text-anchor="middle" x="856" y="-235.5" font-family="Helvetica,sans-Serif" font-size="10.00">read_parameter_file</text>
</a>
</g>
</g>
<!-- Node129&#45;&gt;Node130 -->
<g id="edge4" class="edge"><title>Node129&#45;&gt;Node130</title>
<path fill="none" stroke="midnightblue" d="M760.904,-337.921C763.726,-336.408 766.457,-334.769 769,-333 804.43,-308.353 835.55,-266.505 848.545,-247.681"/>
<polygon fill="midnightblue" stroke="midnightblue" points="759.215,-334.849 751.706,-342.323 762.237,-341.163 759.215,-334.849"/>
</g>
<!-- Node131 -->
<g id="node6" class="node"><title>Node131</title>
<g id="a_node6"><a xlink:href="main_8c.html#a3c04138a5bfe5d72780bb7e82a18e627" target="_top" xlink:title="main">
<polygon fill="white" stroke="black" points="943,-228.5 943,-247.5 981,-247.5 981,-228.5 943,-228.5"/>
<text text-anchor="middle" x="962" y="-235.5" font-family="Helvetica,sans-Serif" font-size="10.00">main</text>
</a>
</g>
</g>
<!-- Node130&#45;&gt;Node131 -->
<g id="edge5" class="edge"><title>Node130&#45;&gt;Node131</title>
<path fill="none" stroke="midnightblue" d="M917.246,-238C926.454,-238 935.308,-238 942.613,-238"/>
<polygon fill="midnightblue" stroke="midnightblue" points="917.172,-234.5 907.172,-238 917.172,-241.5 917.172,-234.5"/>
</g>
<!-- Node132 -->
<g id="node7" class="node"><title>Node132</title>
<g id="a_node7"><a xlink:href="walltime_8h.html#a76d2135b612766d4d665748454b879d6" target="_top" xlink:title="walltime_report">
<polygon fill="white" stroke="black" points="1017,-247.5 1017,-266.5 1100,-266.5 1100,-247.5 1017,-247.5"/>
<text text-anchor="middle" x="1058.5" y="-254.5" font-family="Helvetica,sans-Serif" font-size="10.00">walltime_report</text>
</a>
</g>
</g>
<!-- Node131&#45;&gt;Node132 -->
<g id="edge6" class="edge"><title>Node131&#45;&gt;Node132</title>
<path fill="none" stroke="midnightblue" d="M991.141,-243.658C999.148,-245.268 1008.04,-247.055 1016.63,-248.784"/>
<polygon fill="midnightblue" stroke="midnightblue" points="991.714,-240.203 981.221,-241.663 990.334,-247.066 991.714,-240.203"/>
</g>
<!-- Node133 -->
<g id="node8" class="node"><title>Node133</title>
<g id="a_node8"><a xlink:href="run_8c.html#adc59e9ee1517e4e690694a64ab6a59d2" target="_top" xlink:title="write_cpu_log">
<polygon fill="white" stroke="black" points="1136,-247.5 1136,-266.5 1213,-266.5 1213,-247.5 1136,-247.5"/>
<text text-anchor="middle" x="1174.5" y="-254.5" font-family="Helvetica,sans-Serif" font-size="10.00">write_cpu_log</text>
</a>
</g>
</g>
<!-- Node132&#45;&gt;Node133 -->
<g id="edge7" class="edge"><title>Node132&#45;&gt;Node133</title>
<path fill="none" stroke="midnightblue" d="M1110.03,-257C1118.68,-257 1127.54,-257 1135.78,-257"/>
<polygon fill="midnightblue" stroke="midnightblue" points="1110.01,-253.5 1100.01,-257 1110.01,-260.5 1110.01,-253.5"/>
</g>
<!-- Node134 -->
<g id="node9" class="node"><title>Node134</title>
<g id="a_node9"><a xlink:href="run_8c.html#a05e0ffe612d44e6d7f3a9ae5b9df56a2" target="_top" xlink:title="run">
<polygon fill="white" stroke="black" points="1249,-228.5 1249,-247.5 1279,-247.5 1279,-228.5 1249,-228.5"/>
<text text-anchor="middle" x="1264" y="-235.5" font-family="Helvetica,sans-Serif" font-size="10.00">run</text>
</a>
</g>
</g>
<!-- Node133&#45;&gt;Node134 -->
<g id="edge8" class="edge"><title>Node133&#45;&gt;Node134</title>
<path fill="none" stroke="midnightblue" d="M1222.92,-246.702C1232.33,-244.66 1241.5,-242.668 1248.7,-241.106"/>
<polygon fill="midnightblue" stroke="midnightblue" points="1222.15,-243.29 1213.12,-248.832 1223.63,-250.13 1222.15,-243.29"/>
</g>
<!-- Node134&#45;&gt;Node131 -->
<g id="edge9" class="edge"><title>Node134&#45;&gt;Node131</title>
<path fill="none" stroke="midnightblue" d="M1238.76,-238C1180.39,-238 1033.06,-238 981.315,-238"/>
<polygon fill="midnightblue" stroke="midnightblue" points="1238.89,-241.5 1248.89,-238 1238.89,-234.5 1238.89,-241.5"/>
</g>
<!-- Node136 -->
<g id="node11" class="node"><title>Node136</title>
<g id="a_node11"><a xlink:href="paramset_8h.html#aa1f578a3e3e37557107b29de34eae640" target="_top" xlink:title="param_dump">
<polygon fill="white" stroke="black" points="684,-304.5 684,-323.5 757,-323.5 757,-304.5 684,-304.5"/>
<text text-anchor="middle" x="720.5" y="-311.5" font-family="Helvetica,sans-Serif" font-size="10.00">param_dump</text>
</a>
</g>
</g>
<!-- Node135&#45;&gt;Node136 -->
<g id="edge11" class="edge"><title>Node135&#45;&gt;Node136</title>
<path fill="none" stroke="midnightblue" d="M625.878,-314C645.488,-314 666.506,-314 683.648,-314"/>
<polygon fill="midnightblue" stroke="midnightblue" points="625.779,-310.5 615.779,-314 625.779,-317.5 625.779,-310.5"/>
</g>
<!-- Node136&#45;&gt;Node130 -->
<g id="edge12" class="edge"><title>Node136&#45;&gt;Node130</title>
<path fill="none" stroke="midnightblue" d="M757.329,-300.59C761.32,-298.825 765.283,-296.949 769,-295 796.445,-280.61 826.071,-259.638 842.396,-247.552"/>
<polygon fill="midnightblue" stroke="midnightblue" points="755.926,-297.383 748.065,-304.486 758.64,-303.835 755.926,-297.383"/>
</g>
<!-- Node137&#45;&gt;Node130 -->
<g id="edge14" class="edge"><title>Node137&#45;&gt;Node130</title>
<path fill="none" stroke="midnightblue" d="M765.03,-263.609C783.312,-258.406 804.249,-252.446 821.323,-247.586"/>
<polygon fill="midnightblue" stroke="midnightblue" points="763.847,-260.307 755.188,-266.411 765.764,-267.04 763.847,-260.307"/>
</g>
<!-- Node138&#45;&gt;Node130 -->
<g id="edge19" class="edge"><title>Node138&#45;&gt;Node130</title>
<path fill="none" stroke="midnightblue" d="M246.12,-211.639C260.21,-214.54 275.646,-217.305 290,-219 479.088,-241.334 706.058,-240.73 804.905,-239.127"/>
<polygon fill="midnightblue" stroke="midnightblue" points="246.641,-208.172 236.132,-209.515 245.185,-215.019 246.641,-208.172"/>
</g>
<!-- Node139 -->
<g id="node14" class="node"><title>Node139</title>
<g id="a_node14"><a xlink:href="param_8c.html#ac6ec3f94dd097b2bbf9ace392666f78c" target="_top" xlink:title="BlackHoleFeedbackMethodAction">
<polygon fill="white" stroke="black" points="290,-190.5 290,-209.5 454,-209.5 454,-190.5 290,-190.5"/>
<text text-anchor="middle" x="372" y="-197.5" font-family="Helvetica,sans-Serif" font-size="10.00">BlackHoleFeedbackMethodAction</text>
</a>
</g>
</g>
<!-- Node138&#45;&gt;Node139 -->
<g id="edge16" class="edge"><title>Node138&#45;&gt;Node139</title>
<path fill="none" stroke="midnightblue" d="M252.475,-200C264.396,-200 277.229,-200 289.895,-200"/>
<polygon fill="midnightblue" stroke="midnightblue" points="252.262,-196.5 242.262,-200 252.262,-203.5 252.262,-196.5"/>
</g>
<!-- Node140 -->
<g id="node15" class="node"><title>Node140</title>
<g id="a_node15"><a xlink:href="param_8c.html#ada22ec1be9f6bea2e2fbb3e41ae796c0" target="_top" xlink:title="create_gadget_parameter_set">
<polygon fill="white" stroke="black" points="490,-161.5 490,-180.5 636,-180.5 636,-161.5 490,-161.5"/>
<text text-anchor="middle" x="563" y="-168.5" font-family="Helvetica,sans-Serif" font-size="10.00">create_gadget_parameter_set</text>
</a>
</g>
</g>
<!-- Node139&#45;&gt;Node140 -->
<g id="edge17" class="edge"><title>Node139&#45;&gt;Node140</title>
<path fill="none" stroke="midnightblue" d="M445.037,-188.947C463.084,-186.178 482.292,-183.23 499.815,-180.542"/>
<polygon fill="midnightblue" stroke="midnightblue" points="444.501,-185.488 435.147,-190.464 445.563,-192.407 444.501,-185.488"/>
</g>
<!-- Node140&#45;&gt;Node130 -->
<g id="edge18" class="edge"><title>Node140&#45;&gt;Node130</title>
<path fill="none" stroke="midnightblue" d="M615.159,-182.779C671.502,-195.751 761.026,-216.363 813.287,-228.396"/>
<polygon fill="midnightblue" stroke="midnightblue" points="615.915,-179.361 605.384,-180.528 614.344,-186.183 615.915,-179.361"/>
</g>
<!-- Node141&#45;&gt;Node130 -->
<g id="edge21" class="edge"><title>Node141&#45;&gt;Node130</title>
<path fill="none" stroke="midnightblue" d="M596.069,-113.573C636.691,-130.953 708.671,-162.372 769,-192 793.317,-203.942 820.832,-218.925 838.048,-228.483"/>
<polygon fill="midnightblue" stroke="midnightblue" points="597.256,-110.274 586.685,-109.569 594.509,-116.713 597.256,-110.274"/>
</g>
<!-- Node143 -->
<g id="node18" class="node"><title>Node143</title>
<g id="a_node18"><a xlink:href="param_8c.html#a6626fadc43f7f0a85b43fb16d896b1e7" target="_top" xlink:title="OutputListAction">
<polygon fill="white" stroke="black" points="327.5,-152.5 327.5,-171.5 416.5,-171.5 416.5,-152.5 327.5,-152.5"/>
<text text-anchor="middle" x="372" y="-159.5" font-family="Helvetica,sans-Serif" font-size="10.00">OutputListAction</text>
</a>
</g>
</g>
<!-- Node142&#45;&gt;Node143 -->
<g id="edge23" class="edge"><title>Node142&#45;&gt;Node143</title>
<path fill="none" stroke="midnightblue" d="M252.403,-162C276.67,-162 304.732,-162 327.465,-162"/>
<polygon fill="midnightblue" stroke="midnightblue" points="252.262,-158.5 242.262,-162 252.262,-165.5 252.262,-158.5"/>
</g>
<!-- Node143&#45;&gt;Node140 -->
<g id="edge24" class="edge"><title>Node143&#45;&gt;Node140</title>
<path fill="none" stroke="midnightblue" d="M427.08,-164.575C446.64,-165.507 469.046,-166.574 489.907,-167.567"/>
<polygon fill="midnightblue" stroke="midnightblue" points="426.991,-161.067 416.835,-164.087 426.658,-168.059 426.991,-161.067"/>
</g>
<!-- Node144&#45;&gt;Node130 -->
<g id="edge26" class="edge"><title>Node144&#45;&gt;Node130</title>
<path fill="none" stroke="midnightblue" d="M744.142,-78.6294C752.496,-85.009 761.696,-92.8107 769,-101 806.945,-143.545 838.788,-204.762 850.347,-228.286"/>
<polygon fill="midnightblue" stroke="midnightblue" points="745.988,-75.6425 735.858,-72.5393 741.842,-81.2825 745.988,-75.6425"/>
</g>
<!-- Node146&#45;&gt;Node140 -->
<g id="edge29" class="edge"><title>Node146&#45;&gt;Node140</title>
<path fill="none" stroke="midnightblue" d="M424.662,-135.929C434.417,-138.235 444.529,-140.662 454,-143 478.071,-148.943 505.071,-155.943 526.053,-161.457"/>
<polygon fill="midnightblue" stroke="midnightblue" points="425.204,-132.461 414.668,-133.578 423.601,-139.275 425.204,-132.461"/>
</g>
<!-- Node147&#45;&gt;Node127 -->
<g id="edge31" class="edge"><title>Node147&#45;&gt;Node127</title>
<path fill="none" stroke="midnightblue" d="M264.702,-352C289.858,-352 317.28,-352 337.971,-352"/>
<polygon fill="midnightblue" stroke="midnightblue" points="264.456,-348.5 254.456,-352 264.456,-355.5 264.456,-348.5"/>
</g>
</g>
</svg>
