<?xml version="1.0" encoding="UTF-8" standalone="no"?>
<!DOCTYPE svg PUBLIC "-//W3C//DTD SVG 1.1//EN"
 "http://www.w3.org/Graphics/SVG/1.1/DTD/svg11.dtd">
<!-- Generated by graphviz version 2.38.0 (20140413.2041)
 -->
<!-- Title: param_dump Pages: 1 -->
<svg width="475pt" height="85pt"
 viewBox="0.00 0.00 475.00 85.00" xmlns="http://www.w3.org/2000/svg" xmlns:xlink="http://www.w3.org/1999/xlink">
<g id="graph0" class="graph" transform="scale(1 1) rotate(0) translate(4 81)">
<title>param_dump</title>
<polygon fill="white" stroke="none" points="-4,4 -4,-81 471,-81 471,4 -4,4"/>
<!-- Node41 -->
<g id="node1" class="node"><title>Node41</title>
<polygon fill="#bfbfbf" stroke="black" points="0,-38.5 0,-57.5 73,-57.5 73,-38.5 0,-38.5"/>
<text text-anchor="middle" x="36.5" y="-45.5" font-family="Helvetica,sans-Serif" font-size="10.00">param_dump</text>
</g>
<!-- Node42 -->
<g id="node2" class="node"><title>Node42</title>
<g id="a_node2"><a xlink:href="paramset_8c.html#abc796ca69c38a8a09f96a5b3bf6c9e9e" target="_top" xlink:title="param_format_value">
<polygon fill="white" stroke="black" points="109,-38.5 109,-57.5 214,-57.5 214,-38.5 109,-38.5"/>
<text text-anchor="middle" x="161.5" y="-45.5" font-family="Helvetica,sans-Serif" font-size="10.00">param_format_value</text>
</a>
</g>
</g>
<!-- Node41&#45;&gt;Node42 -->
<g id="edge1" class="edge"><title>Node41&#45;&gt;Node42</title>
<path fill="none" stroke="midnightblue" d="M73.0767,-48C81.134,-48 89.9179,-48 98.7098,-48"/>
<polygon fill="midnightblue" stroke="midnightblue" points="98.9912,-51.5001 108.991,-48 98.9912,-44.5001 98.9912,-51.5001"/>
</g>
<!-- Node43 -->
<g id="node3" class="node"><title>Node43</title>
<g id="a_node3"><a xlink:href="utils-string_8c.html#a83b37e4b34b4b0d478581e0c73a77ae7" target="_top" xlink:title="fastpm_strdup">
<polygon fill="white" stroke="black" points="388,-57.5 388,-76.5 467,-76.5 467,-57.5 388,-57.5"/>
<text text-anchor="middle" x="427.5" y="-64.5" font-family="Helvetica,sans-Serif" font-size="10.00">fastpm_strdup</text>
</a>
</g>
</g>
<!-- Node42&#45;&gt;Node43 -->
<g id="edge2" class="edge"><title>Node42&#45;&gt;Node43</title>
<path fill="none" stroke="midnightblue" d="M197.978,-57.5085C213.777,-61.2732 232.689,-65.1422 250,-67 292.982,-71.6128 342.191,-71.1417 377.711,-69.789"/>
<polygon fill="midnightblue" stroke="midnightblue" points="377.966,-73.2815 387.811,-69.3667 377.673,-66.2876 377.966,-73.2815"/>
</g>
<!-- Node44 -->
<g id="node4" class="node"><title>Node44</title>
<g id="a_node4"><a xlink:href="paramset_8c.html#a7606ca3878dd3f5fd34c3ff2c501fb71" target="_top" xlink:title="format_enum">
<polygon fill="white" stroke="black" points="264,-38.5 264,-57.5 338,-57.5 338,-38.5 264,-38.5"/>
<text text-anchor="middle" x="301" y="-45.5" font-family="Helvetica,sans-Serif" font-size="10.00">format_enum</text>
</a>
</g>
</g>
<!-- Node42&#45;&gt;Node44 -->
<g id="edge3" class="edge"><title>Node42&#45;&gt;Node44</title>
<path fill="none" stroke="midnightblue" d="M214.091,-48C227.07,-48 240.919,-48 253.625,-48"/>
<polygon fill="midnightblue" stroke="midnightblue" points="253.984,-51.5001 263.984,-48 253.984,-44.5001 253.984,-51.5001"/>
</g>
<!-- Node45 -->
<g id="node5" class="node"><title>Node45</title>
<g id="a_node5"><a xlink:href="paramset_8c.html#ab4475499a5183014dda09702caed4c08" target="_top" xlink:title="param_get_schema">
<polygon fill="white" stroke="black" points="250,-0.5 250,-19.5 352,-19.5 352,-0.5 250,-0.5"/>
<text text-anchor="middle" x="301" y="-7.5" font-family="Helvetica,sans-Serif" font-size="10.00">param_get_schema</text>
</a>
</g>
</g>
<!-- Node42&#45;&gt;Node45 -->
<g id="edge5" class="edge"><title>Node42&#45;&gt;Node45</title>
<path fill="none" stroke="midnightblue" d="M197.197,-38.411C214.866,-33.5281 236.549,-27.5357 255.439,-22.315"/>
<polygon fill="midnightblue" stroke="midnightblue" points="256.608,-25.6233 265.314,-19.5859 254.743,-18.8762 256.608,-25.6233"/>
</g>
<!-- Node44&#45;&gt;Node43 -->
<g id="edge4" class="edge"><title>Node44&#45;&gt;Node43</title>
<path fill="none" stroke="midnightblue" d="M338.011,-53.4956C350.486,-55.3995 364.683,-57.5661 377.997,-59.5979"/>
<polygon fill="midnightblue" stroke="midnightblue" points="377.549,-63.07 387.963,-61.1188 378.605,-56.1501 377.549,-63.07"/>
</g>
</g>
</svg>
