<?xml version="1.0" encoding="UTF-8" standalone="no"?>
<!DOCTYPE svg PUBLIC "-//W3C//DTD SVG 1.1//EN"
 "http://www.w3.org/Graphics/SVG/1.1/DTD/svg11.dtd">
<!-- Generated by graphviz version 2.38.0 (20140413.2041)
 -->
<!-- Title: cmp_double Pages: 1 -->
<svg width="894pt" height="47pt"
 viewBox="0.00 0.00 894.00 47.00" xmlns="http://www.w3.org/2000/svg" xmlns:xlink="http://www.w3.org/1999/xlink">
<g id="graph0" class="graph" transform="scale(1 1) rotate(0) translate(4 43)">
<title>cmp_double</title>
<polygon fill="white" stroke="none" points="-4,4 -4,-43 890,-43 890,4 -4,4"/>
<!-- Node15 -->
<g id="node1" class="node"><title>Node15</title>
<polygon fill="#bfbfbf" stroke="black" points="0,-0.5 0,-19.5 69,-19.5 69,-0.5 0,-0.5"/>
<text text-anchor="middle" x="34.5" y="-7.5" font-family="Helvetica,sans-Serif" font-size="10.00">cmp_double</text>
</g>
<!-- Node16 -->
<g id="node2" class="node"><title>Node16</title>
<g id="a_node2"><a xlink:href="param_8c.html#a6626fadc43f7f0a85b43fb16d896b1e7" target="_top" xlink:title="OutputListAction">
<polygon fill="white" stroke="black" points="105,-0.5 105,-19.5 194,-19.5 194,-0.5 105,-0.5"/>
<text text-anchor="middle" x="149.5" y="-7.5" font-family="Helvetica,sans-Serif" font-size="10.00">OutputListAction</text>
</a>
</g>
</g>
<!-- Node15&#45;&gt;Node16 -->
<g id="edge1" class="edge"><title>Node15&#45;&gt;Node16</title>
<path fill="none" stroke="midnightblue" d="M79.1092,-10C87.5248,-10 96.3435,-10 104.763,-10"/>
<polygon fill="midnightblue" stroke="midnightblue" points="79.0978,-6.5001 69.0978,-10 79.0977,-13.5001 79.0978,-6.5001"/>
</g>
<!-- Node17 -->
<g id="node3" class="node"><title>Node17</title>
<g id="a_node3"><a xlink:href="param_8c.html#ada22ec1be9f6bea2e2fbb3e41ae796c0" target="_top" xlink:title="create_gadget_parameter_set">
<polygon fill="white" stroke="black" points="230,-0.5 230,-19.5 376,-19.5 376,-0.5 230,-0.5"/>
<text text-anchor="middle" x="303" y="-7.5" font-family="Helvetica,sans-Serif" font-size="10.00">create_gadget_parameter_set</text>
</a>
</g>
</g>
<!-- Node16&#45;&gt;Node17 -->
<g id="edge2" class="edge"><title>Node16&#45;&gt;Node17</title>
<path fill="none" stroke="midnightblue" d="M204.468,-10C212.663,-10 221.228,-10 229.736,-10"/>
<polygon fill="midnightblue" stroke="midnightblue" points="204.32,-6.5001 194.32,-10 204.32,-13.5001 204.32,-6.5001"/>
</g>
<!-- Node18 -->
<g id="node4" class="node"><title>Node18</title>
<g id="a_node4"><a xlink:href="param_8h.html#a952eae1977b498c4fdfabed1742a3ba2" target="_top" xlink:title="read_parameter_file">
<polygon fill="white" stroke="black" points="412,-0.5 412,-19.5 514,-19.5 514,-0.5 412,-0.5"/>
<text text-anchor="middle" x="463" y="-7.5" font-family="Helvetica,sans-Serif" font-size="10.00">read_parameter_file</text>
</a>
</g>
</g>
<!-- Node17&#45;&gt;Node18 -->
<g id="edge3" class="edge"><title>Node17&#45;&gt;Node18</title>
<path fill="none" stroke="midnightblue" d="M386.254,-10C394.935,-10 403.564,-10 411.719,-10"/>
<polygon fill="midnightblue" stroke="midnightblue" points="386.065,-6.5001 376.065,-10 386.065,-13.5001 386.065,-6.5001"/>
</g>
<!-- Node19 -->
<g id="node5" class="node"><title>Node19</title>
<g id="a_node5"><a xlink:href="main_8c.html#a3c04138a5bfe5d72780bb7e82a18e627" target="_top" xlink:title="main">
<polygon fill="white" stroke="black" points="550,-0.5 550,-19.5 588,-19.5 588,-0.5 550,-0.5"/>
<text text-anchor="middle" x="569" y="-7.5" font-family="Helvetica,sans-Serif" font-size="10.00">main</text>
</a>
</g>
</g>
<!-- Node18&#45;&gt;Node19 -->
<g id="edge4" class="edge"><title>Node18&#45;&gt;Node19</title>
<path fill="none" stroke="midnightblue" d="M524.246,-10C533.454,-10 542.308,-10 549.613,-10"/>
<polygon fill="midnightblue" stroke="midnightblue" points="524.172,-6.5001 514.172,-10 524.172,-13.5001 524.172,-6.5001"/>
</g>
<!-- Node20 -->
<g id="node6" class="node"><title>Node20</title>
<g id="a_node6"><a xlink:href="walltime_8h.html#a76d2135b612766d4d665748454b879d6" target="_top" xlink:title="walltime_report">
<polygon fill="white" stroke="black" points="624,-19.5 624,-38.5 707,-38.5 707,-19.5 624,-19.5"/>
<text text-anchor="middle" x="665.5" y="-26.5" font-family="Helvetica,sans-Serif" font-size="10.00">walltime_report</text>
</a>
</g>
</g>
<!-- Node19&#45;&gt;Node20 -->
<g id="edge5" class="edge"><title>Node19&#45;&gt;Node20</title>
<path fill="none" stroke="midnightblue" d="M598.141,-15.658C606.148,-17.2678 615.035,-19.0547 623.635,-20.7837"/>
<polygon fill="midnightblue" stroke="midnightblue" points="598.714,-12.2033 588.221,-13.6634 597.334,-19.0659 598.714,-12.2033"/>
</g>
<!-- Node21 -->
<g id="node7" class="node"><title>Node21</title>
<g id="a_node7"><a xlink:href="run_8c.html#adc59e9ee1517e4e690694a64ab6a59d2" target="_top" xlink:title="write_cpu_log">
<polygon fill="white" stroke="black" points="743,-19.5 743,-38.5 820,-38.5 820,-19.5 743,-19.5"/>
<text text-anchor="middle" x="781.5" y="-26.5" font-family="Helvetica,sans-Serif" font-size="10.00">write_cpu_log</text>
</a>
</g>
</g>
<!-- Node20&#45;&gt;Node21 -->
<g id="edge6" class="edge"><title>Node20&#45;&gt;Node21</title>
<path fill="none" stroke="midnightblue" d="M717.031,-29C725.684,-29 734.54,-29 742.785,-29"/>
<polygon fill="midnightblue" stroke="midnightblue" points="717.013,-25.5001 707.013,-29 717.013,-32.5001 717.013,-25.5001"/>
</g>
<!-- Node22 -->
<g id="node8" class="node"><title>Node22</title>
<g id="a_node8"><a xlink:href="run_8c.html#a05e0ffe612d44e6d7f3a9ae5b9df56a2" target="_top" xlink:title="run">
<polygon fill="white" stroke="black" points="856,-0.5 856,-19.5 886,-19.5 886,-0.5 856,-0.5"/>
<text text-anchor="middle" x="871" y="-7.5" font-family="Helvetica,sans-Serif" font-size="10.00">run</text>
</a>
</g>
</g>
<!-- Node21&#45;&gt;Node22 -->
<g id="edge7" class="edge"><title>Node21&#45;&gt;Node22</title>
<path fill="none" stroke="midnightblue" d="M829.925,-18.7021C839.329,-16.6601 848.505,-14.6676 855.698,-13.1056"/>
<polygon fill="midnightblue" stroke="midnightblue" points="829.145,-15.2897 820.116,-20.832 830.631,-22.1303 829.145,-15.2897"/>
</g>
<!-- Node22&#45;&gt;Node19 -->
<g id="edge8" class="edge"><title>Node22&#45;&gt;Node19</title>
<path fill="none" stroke="midnightblue" d="M845.758,-10C787.391,-10 640.064,-10 588.315,-10"/>
<polygon fill="midnightblue" stroke="midnightblue" points="845.885,-13.5001 855.885,-10 845.885,-6.5001 845.885,-13.5001"/>
</g>
</g>
</svg>
