<?xml version="1.0" encoding="UTF-8" standalone="no"?>
<!DOCTYPE svg PUBLIC "-//W3C//DTD SVG 1.1//EN"
 "http://www.w3.org/Graphics/SVG/1.1/DTD/svg11.dtd">
<!-- Generated by graphviz version 2.50.0 (0)
 -->
<!-- Title: param_get_int Pages: 1 -->
<svg width="445pt" height="104pt"
 viewBox="0.00 0.00 445.00 104.00" xmlns="http://www.w3.org/2000/svg" xmlns:xlink="http://www.w3.org/1999/xlink">
<g id="graph0" class="graph" transform="scale(1 1) rotate(0) translate(4 100)">
<title>param_get_int</title>
<polygon fill="white" stroke="transparent" points="-4,4 -4,-100 441,-100 441,4 -4,4"/>
<!-- Node1 -->
<g id="node1" class="node">
<title>Node1</title>
<g id="a_node1"><a xlink:title=" ">
<polygon fill="#bfbfbf" stroke="black" points="0,-38.5 0,-57.5 87,-57.5 87,-38.5 0,-38.5"/>
<text text-anchor="middle" x="43.5" y="-45.5" font-family="Helvetica,sans-Serif" font-size="10.00">param_get_int</text>
</a>
</g>
</g>
<!-- Node2 -->
<g id="node2" class="node">
<title>Node2</title>
<g id="a_node2"><a xlink:href="endrun_8c.html#a6567cd867c5549fb6586e19ccd819764" target="_top" xlink:title=" ">
<polygon fill="white" stroke="black" points="132,-76.5 132,-95.5 193,-95.5 193,-76.5 132,-76.5"/>
<text text-anchor="middle" x="162.5" y="-83.5" font-family="Helvetica,sans-Serif" font-size="10.00">message</text>
</a>
</g>
</g>
<!-- Node1&#45;&gt;Node2 -->
<g id="edge1" class="edge">
<title>Node1&#45;&gt;Node2</title>
<path fill="none" stroke="midnightblue" d="M74.02,-57.59C88.71,-62.36 106.66,-68.19 122.47,-73.32"/>
<polygon fill="midnightblue" stroke="midnightblue" points="121.39,-76.65 131.99,-76.41 123.56,-70 121.39,-76.65"/>
</g>
<!-- Node5 -->
<g id="node5" class="node">
<title>Node5</title>
<g id="a_node5"><a xlink:href="paramset_8c.html#ac667f29553d5fbee896b206b8b895e8d" target="_top" xlink:title=" ">
<polygon fill="white" stroke="black" points="238,-19.5 238,-38.5 351,-38.5 351,-19.5 238,-19.5"/>
<text text-anchor="middle" x="294.5" y="-26.5" font-family="Helvetica,sans-Serif" font-size="10.00">param_get_schema</text>
</a>
</g>
</g>
<!-- Node1&#45;&gt;Node5 -->
<g id="edge4" class="edge">
<title>Node1&#45;&gt;Node5</title>
<path fill="none" stroke="midnightblue" d="M87.02,-44.76C125.55,-41.82 182.94,-37.44 227.44,-34.04"/>
<polygon fill="midnightblue" stroke="midnightblue" points="227.89,-37.52 237.59,-33.27 227.35,-30.54 227.89,-37.52"/>
</g>
<!-- Node6 -->
<g id="node6" class="node">
<title>Node6</title>
<g id="a_node6"><a xlink:href="paramset_8c.html#aa81754da7c81ed1980d04f83be9233a5" target="_top" xlink:title=" ">
<polygon fill="white" stroke="black" points="123,-0.5 123,-19.5 202,-19.5 202,-0.5 123,-0.5"/>
<text text-anchor="middle" x="162.5" y="-7.5" font-family="Helvetica,sans-Serif" font-size="10.00">param_is_nil</text>
</a>
</g>
</g>
<!-- Node1&#45;&gt;Node6 -->
<g id="edge5" class="edge">
<title>Node1&#45;&gt;Node6</title>
<path fill="none" stroke="midnightblue" d="M74.02,-38.41C88.71,-33.64 106.66,-27.81 122.47,-22.68"/>
<polygon fill="midnightblue" stroke="midnightblue" points="123.56,-26 131.99,-19.59 121.39,-19.35 123.56,-26"/>
</g>
<!-- Node3 -->
<g id="node3" class="node">
<title>Node3</title>
<g id="a_node3"><a xlink:href="system_8c.html#a341c8d27bd6c7dde856566810b412b1f" target="_top" xlink:title=" ">
<polygon fill="white" stroke="black" points="255,-76.5 255,-95.5 334,-95.5 334,-76.5 255,-76.5"/>
<text text-anchor="middle" x="294.5" y="-83.5" font-family="Helvetica,sans-Serif" font-size="10.00">MPIU_Tracev</text>
</a>
</g>
</g>
<!-- Node2&#45;&gt;Node3 -->
<g id="edge2" class="edge">
<title>Node2&#45;&gt;Node3</title>
<path fill="none" stroke="midnightblue" d="M193.32,-86C208.47,-86 227.27,-86 244.47,-86"/>
<polygon fill="midnightblue" stroke="midnightblue" points="244.93,-89.5 254.93,-86 244.93,-82.5 244.93,-89.5"/>
</g>
<!-- Node4 -->
<g id="node4" class="node">
<title>Node4</title>
<g id="a_node4"><a xlink:href="system_8c.html#a87108946670b4c3afbe846c6726675ff" target="_top" xlink:title=" ">
<polygon fill="white" stroke="black" points="387,-76.5 387,-95.5 437,-95.5 437,-76.5 387,-76.5"/>
<text text-anchor="middle" x="412" y="-83.5" font-family="Helvetica,sans-Serif" font-size="10.00">putline</text>
</a>
</g>
</g>
<!-- Node3&#45;&gt;Node4 -->
<g id="edge3" class="edge">
<title>Node3&#45;&gt;Node4</title>
<path fill="none" stroke="midnightblue" d="M334.28,-86C348.04,-86 363.41,-86 376.76,-86"/>
<polygon fill="midnightblue" stroke="midnightblue" points="376.96,-89.5 386.96,-86 376.96,-82.5 376.96,-89.5"/>
</g>
<!-- Node6&#45;&gt;Node5 -->
<g id="edge6" class="edge">
<title>Node6&#45;&gt;Node5</title>
<path fill="none" stroke="midnightblue" d="M202.15,-15.65C210.31,-16.84 219.13,-18.13 227.97,-19.42"/>
<polygon fill="midnightblue" stroke="midnightblue" points="227.51,-22.89 237.92,-20.88 228.53,-15.97 227.51,-22.89"/>
</g>
</g>
</svg>
