<?xml version="1.0" encoding="UTF-8" standalone="no"?>
<!DOCTYPE svg PUBLIC "-//W3C//DTD SVG 1.1//EN"
 "http://www.w3.org/Graphics/SVG/1.1/DTD/svg11.dtd">
<!-- Generated by graphviz version 2.50.0 (0)
 -->
<!-- Title: param_get_string Pages: 1 -->
<svg width="460pt" height="104pt"
 viewBox="0.00 0.00 460.00 104.00" xmlns="http://www.w3.org/2000/svg" xmlns:xlink="http://www.w3.org/1999/xlink">
<g id="graph0" class="graph" transform="scale(1 1) rotate(0) translate(4 100)">
<title>param_get_string</title>
<polygon fill="white" stroke="transparent" points="-4,4 -4,-100 456,-100 456,4 -4,4"/>
<!-- Node1 -->
<g id="node1" class="node">
<title>Node1</title>
<g id="a_node1"><a xlink:title=" ">
<polygon fill="#bfbfbf" stroke="black" points="0,-38.5 0,-57.5 102,-57.5 102,-38.5 0,-38.5"/>
<text text-anchor="middle" x="51" y="-45.5" font-family="Helvetica,sans-Serif" font-size="10.00">param_get_string</text>
</a>
</g>
</g>
<!-- Node2 -->
<g id="node2" class="node">
<title>Node2</title>
<g id="a_node2"><a xlink:href="endrun_8c.html#a6567cd867c5549fb6586e19ccd819764" target="_top" xlink:title=" ">
<polygon fill="white" stroke="black" points="147,-76.5 147,-95.5 208,-95.5 208,-76.5 147,-76.5"/>
<text text-anchor="middle" x="177.5" y="-83.5" font-family="Helvetica,sans-Serif" font-size="10.00">message</text>
</a>
</g>
</g>
<!-- Node1&#45;&gt;Node2 -->
<g id="edge1" class="edge">
<title>Node1&#45;&gt;Node2</title>
<path fill="none" stroke="midnightblue" d="M83.42,-57.59C99.68,-62.55 119.69,-68.66 136.99,-73.94"/>
<polygon fill="midnightblue" stroke="midnightblue" points="136.22,-77.37 146.81,-76.94 138.27,-70.67 136.22,-77.37"/>
</g>
<!-- Node5 -->
<g id="node5" class="node">
<title>Node5</title>
<g id="a_node5"><a xlink:href="paramset_8c.html#ac667f29553d5fbee896b206b8b895e8d" target="_top" xlink:title=" ">
<polygon fill="white" stroke="black" points="253,-19.5 253,-38.5 366,-38.5 366,-19.5 253,-19.5"/>
<text text-anchor="middle" x="309.5" y="-26.5" font-family="Helvetica,sans-Serif" font-size="10.00">param_get_schema</text>
</a>
</g>
</g>
<!-- Node1&#45;&gt;Node5 -->
<g id="edge4" class="edge">
<title>Node1&#45;&gt;Node5</title>
<path fill="none" stroke="midnightblue" d="M102.06,-44.29C142.24,-41.32 198.96,-37.11 242.78,-33.87"/>
<polygon fill="midnightblue" stroke="midnightblue" points="243.06,-37.36 252.77,-33.13 242.54,-30.38 243.06,-37.36"/>
</g>
<!-- Node6 -->
<g id="node6" class="node">
<title>Node6</title>
<g id="a_node6"><a xlink:href="paramset_8c.html#aa81754da7c81ed1980d04f83be9233a5" target="_top" xlink:title=" ">
<polygon fill="white" stroke="black" points="138,-0.5 138,-19.5 217,-19.5 217,-0.5 138,-0.5"/>
<text text-anchor="middle" x="177.5" y="-7.5" font-family="Helvetica,sans-Serif" font-size="10.00">param_is_nil</text>
</a>
</g>
</g>
<!-- Node1&#45;&gt;Node6 -->
<g id="edge5" class="edge">
<title>Node1&#45;&gt;Node6</title>
<path fill="none" stroke="midnightblue" d="M83.42,-38.41C99.19,-33.6 118.51,-27.7 135.44,-22.53"/>
<polygon fill="midnightblue" stroke="midnightblue" points="136.55,-25.85 145.09,-19.59 134.51,-19.16 136.55,-25.85"/>
</g>
<!-- Node3 -->
<g id="node3" class="node">
<title>Node3</title>
<g id="a_node3"><a xlink:href="system_8c.html#a341c8d27bd6c7dde856566810b412b1f" target="_top" xlink:title=" ">
<polygon fill="white" stroke="black" points="270,-76.5 270,-95.5 349,-95.5 349,-76.5 270,-76.5"/>
<text text-anchor="middle" x="309.5" y="-83.5" font-family="Helvetica,sans-Serif" font-size="10.00">MPIU_Tracev</text>
</a>
</g>
</g>
<!-- Node2&#45;&gt;Node3 -->
<g id="edge2" class="edge">
<title>Node2&#45;&gt;Node3</title>
<path fill="none" stroke="midnightblue" d="M208.32,-86C223.47,-86 242.27,-86 259.47,-86"/>
<polygon fill="midnightblue" stroke="midnightblue" points="259.93,-89.5 269.93,-86 259.93,-82.5 259.93,-89.5"/>
</g>
<!-- Node4 -->
<g id="node4" class="node">
<title>Node4</title>
<g id="a_node4"><a xlink:href="system_8c.html#a87108946670b4c3afbe846c6726675ff" target="_top" xlink:title=" ">
<polygon fill="white" stroke="black" points="402,-76.5 402,-95.5 452,-95.5 452,-76.5 402,-76.5"/>
<text text-anchor="middle" x="427" y="-83.5" font-family="Helvetica,sans-Serif" font-size="10.00">putline</text>
</a>
</g>
</g>
<!-- Node3&#45;&gt;Node4 -->
<g id="edge3" class="edge">
<title>Node3&#45;&gt;Node4</title>
<path fill="none" stroke="midnightblue" d="M349.28,-86C363.04,-86 378.41,-86 391.76,-86"/>
<polygon fill="midnightblue" stroke="midnightblue" points="391.96,-89.5 401.96,-86 391.96,-82.5 391.96,-89.5"/>
</g>
<!-- Node6&#45;&gt;Node5 -->
<g id="edge6" class="edge">
<title>Node6&#45;&gt;Node5</title>
<path fill="none" stroke="midnightblue" d="M217.15,-15.65C225.31,-16.84 234.13,-18.13 242.97,-19.42"/>
<polygon fill="midnightblue" stroke="midnightblue" points="242.51,-22.89 252.92,-20.88 243.53,-15.97 242.51,-22.89"/>
</g>
</g>
</svg>
