<?xml version="1.0" encoding="UTF-8" standalone="no"?>
<!DOCTYPE svg PUBLIC "-//W3C//DTD SVG 1.1//EN"
 "http://www.w3.org/Graphics/SVG/1.1/DTD/svg11.dtd">
<!-- Generated by graphviz version 2.38.0 (20140413.2041)
 -->
<!-- Title: parameter_set_free Pages: 1 -->
<svg width="619pt" height="47pt"
 viewBox="0.00 0.00 619.00 47.00" xmlns="http://www.w3.org/2000/svg" xmlns:xlink="http://www.w3.org/1999/xlink">
<g id="graph0" class="graph" transform="scale(1 1) rotate(0) translate(4 43)">
<title>parameter_set_free</title>
<polygon fill="white" stroke="none" points="-4,4 -4,-43 615,-43 615,4 -4,4"/>
<!-- Node167 -->
<g id="node1" class="node"><title>Node167</title>
<polygon fill="#bfbfbf" stroke="black" points="0,-0.5 0,-19.5 101,-19.5 101,-0.5 0,-0.5"/>
<text text-anchor="middle" x="50.5" y="-7.5" font-family="Helvetica,sans-Serif" font-size="10.00">parameter_set_free</text>
</g>
<!-- Node168 -->
<g id="node2" class="node"><title>Node168</title>
<g id="a_node2"><a xlink:href="param_8h.html#a952eae1977b498c4fdfabed1742a3ba2" target="_top" xlink:title="read_parameter_file">
<polygon fill="white" stroke="black" points="137,-0.5 137,-19.5 239,-19.5 239,-0.5 137,-0.5"/>
<text text-anchor="middle" x="188" y="-7.5" font-family="Helvetica,sans-Serif" font-size="10.00">read_parameter_file</text>
</a>
</g>
</g>
<!-- Node167&#45;&gt;Node168 -->
<g id="edge1" class="edge"><title>Node167&#45;&gt;Node168</title>
<path fill="none" stroke="midnightblue" d="M111.428,-10C119.923,-10 128.583,-10 136.867,-10"/>
<polygon fill="midnightblue" stroke="midnightblue" points="111.186,-6.5001 101.186,-10 111.186,-13.5001 111.186,-6.5001"/>
</g>
<!-- Node169 -->
<g id="node3" class="node"><title>Node169</title>
<g id="a_node3"><a xlink:href="main_8c.html#a3c04138a5bfe5d72780bb7e82a18e627" target="_top" xlink:title="main">
<polygon fill="white" stroke="black" points="275,-0.5 275,-19.5 313,-19.5 313,-0.5 275,-0.5"/>
<text text-anchor="middle" x="294" y="-7.5" font-family="Helvetica,sans-Serif" font-size="10.00">main</text>
</a>
</g>
</g>
<!-- Node168&#45;&gt;Node169 -->
<g id="edge2" class="edge"><title>Node168&#45;&gt;Node169</title>
<path fill="none" stroke="midnightblue" d="M249.246,-10C258.454,-10 267.308,-10 274.613,-10"/>
<polygon fill="midnightblue" stroke="midnightblue" points="249.172,-6.5001 239.172,-10 249.172,-13.5001 249.172,-6.5001"/>
</g>
<!-- Node170 -->
<g id="node4" class="node"><title>Node170</title>
<g id="a_node4"><a xlink:href="walltime_8h.html#a76d2135b612766d4d665748454b879d6" target="_top" xlink:title="walltime_report">
<polygon fill="white" stroke="black" points="349,-19.5 349,-38.5 432,-38.5 432,-19.5 349,-19.5"/>
<text text-anchor="middle" x="390.5" y="-26.5" font-family="Helvetica,sans-Serif" font-size="10.00">walltime_report</text>
</a>
</g>
</g>
<!-- Node169&#45;&gt;Node170 -->
<g id="edge3" class="edge"><title>Node169&#45;&gt;Node170</title>
<path fill="none" stroke="midnightblue" d="M323.141,-15.658C331.148,-17.2678 340.035,-19.0547 348.635,-20.7837"/>
<polygon fill="midnightblue" stroke="midnightblue" points="323.714,-12.2033 313.221,-13.6634 322.334,-19.0659 323.714,-12.2033"/>
</g>
<!-- Node171 -->
<g id="node5" class="node"><title>Node171</title>
<g id="a_node5"><a xlink:href="run_8c.html#adc59e9ee1517e4e690694a64ab6a59d2" target="_top" xlink:title="write_cpu_log">
<polygon fill="white" stroke="black" points="468,-19.5 468,-38.5 545,-38.5 545,-19.5 468,-19.5"/>
<text text-anchor="middle" x="506.5" y="-26.5" font-family="Helvetica,sans-Serif" font-size="10.00">write_cpu_log</text>
</a>
</g>
</g>
<!-- Node170&#45;&gt;Node171 -->
<g id="edge4" class="edge"><title>Node170&#45;&gt;Node171</title>
<path fill="none" stroke="midnightblue" d="M442.031,-29C450.684,-29 459.54,-29 467.785,-29"/>
<polygon fill="midnightblue" stroke="midnightblue" points="442.013,-25.5001 432.013,-29 442.013,-32.5001 442.013,-25.5001"/>
</g>
<!-- Node172 -->
<g id="node6" class="node"><title>Node172</title>
<g id="a_node6"><a xlink:href="run_8c.html#a05e0ffe612d44e6d7f3a9ae5b9df56a2" target="_top" xlink:title="run">
<polygon fill="white" stroke="black" points="581,-0.5 581,-19.5 611,-19.5 611,-0.5 581,-0.5"/>
<text text-anchor="middle" x="596" y="-7.5" font-family="Helvetica,sans-Serif" font-size="10.00">run</text>
</a>
</g>
</g>
<!-- Node171&#45;&gt;Node172 -->
<g id="edge5" class="edge"><title>Node171&#45;&gt;Node172</title>
<path fill="none" stroke="midnightblue" d="M554.925,-18.7021C564.329,-16.6601 573.505,-14.6676 580.698,-13.1056"/>
<polygon fill="midnightblue" stroke="midnightblue" points="554.145,-15.2897 545.116,-20.832 555.631,-22.1303 554.145,-15.2897"/>
</g>
<!-- Node172&#45;&gt;Node169 -->
<g id="edge6" class="edge"><title>Node172&#45;&gt;Node169</title>
<path fill="none" stroke="midnightblue" d="M570.758,-10C512.391,-10 365.064,-10 313.315,-10"/>
<polygon fill="midnightblue" stroke="midnightblue" points="570.885,-13.5001 580.885,-10 570.885,-6.5001 570.885,-13.5001"/>
</g>
</g>
</svg>
