<?xml version="1.0" encoding="UTF-8" standalone="no"?>
<!DOCTYPE svg PUBLIC "-//W3C//DTD SVG 1.1//EN"
 "http://www.w3.org/Graphics/SVG/1.1/DTD/svg11.dtd">
<!-- Generated by graphviz version 2.38.0 (20140413.2041)
 -->
<!-- Title: param_declare_string Pages: 1 -->
<svg width="118pt" height="172pt"
 viewBox="0.00 0.00 118.00 172.00" xmlns="http://www.w3.org/2000/svg" xmlns:xlink="http://www.w3.org/1999/xlink">
<g id="graph0" class="graph" transform="scale(1 1) rotate(0) translate(4 168)">
<title>param_declare_string</title>
<polygon fill="white" stroke="none" points="-4,4 -4,-168 114,-168 114,4 -4,4"/>
<!-- Node31 -->
<g id="node1" class="node"><title>Node31</title>
<polygon fill="#bfbfbf" stroke="black" points="0,-72.5 0,-91.5 110,-91.5 110,-72.5 0,-72.5"/>
<text text-anchor="middle" x="55" y="-79.5" font-family="Helvetica,sans-Serif" font-size="10.00">param_declare_string</text>
</g>
<!-- Node32 -->
<g id="node2" class="node"><title>Node32</title>
<g id="a_node2"><a xlink:href="utils-string_8c.html#a83b37e4b34b4b0d478581e0c73a77ae7" target="_top" xlink:title="fastpm_strdup">
<polygon fill="white" stroke="black" points="15.5,-144.5 15.5,-163.5 94.5,-163.5 94.5,-144.5 15.5,-144.5"/>
<text text-anchor="middle" x="55" y="-151.5" font-family="Helvetica,sans-Serif" font-size="10.00">fastpm_strdup</text>
</a>
</g>
</g>
<!-- Node31&#45;&gt;Node32 -->
<g id="edge1" class="edge"><title>Node31&#45;&gt;Node32</title>
<path fill="none" stroke="midnightblue" d="M55,-91.7102C55,-102.614 55,-120.592 55,-134.439"/>
<polygon fill="midnightblue" stroke="midnightblue" points="51.5001,-134.444 55,-144.444 58.5001,-134.444 51.5001,-134.444"/>
</g>
<!-- Node33 -->
<g id="node3" class="node"><title>Node33</title>
<g id="a_node3"><a xlink:href="paramset_8c.html#ad6ead2b0049cbf31a2f62036ae42b2dd" target="_top" xlink:title="param_declare">
<polygon fill="white" stroke="black" points="15,-0.5 15,-19.5 95,-19.5 95,-0.5 15,-0.5"/>
<text text-anchor="middle" x="55" y="-7.5" font-family="Helvetica,sans-Serif" font-size="10.00">param_declare</text>
</a>
</g>
</g>
<!-- Node31&#45;&gt;Node33 -->
<g id="edge2" class="edge"><title>Node31&#45;&gt;Node33</title>
<path fill="none" stroke="midnightblue" d="M55,-72.2898C55,-61.3861 55,-43.4077 55,-29.5612"/>
<polygon fill="midnightblue" stroke="midnightblue" points="58.5001,-29.5564 55,-19.5564 51.5001,-29.5564 58.5001,-29.5564"/>
</g>
<!-- Node33&#45;&gt;Node32 -->
<g id="edge3" class="edge"><title>Node33&#45;&gt;Node32</title>
<path fill="none" stroke="midnightblue" d="M55,-19.8977C55,-43.4402 55,-103.132 55,-134.328"/>
<polygon fill="midnightblue" stroke="midnightblue" points="51.5001,-134.412 55,-144.412 58.5001,-134.412 51.5001,-134.412"/>
</g>
</g>
</svg>
