<?xml version="1.0" encoding="UTF-8" standalone="no"?>
<!DOCTYPE svg PUBLIC "-//W3C//DTD SVG 1.1//EN"
 "http://www.w3.org/Graphics/SVG/1.1/DTD/svg11.dtd">
<!-- Generated by graphviz version 2.50.0 (0)
 -->
<!-- Title: format_enum Pages: 1 -->
<svg width="591pt" height="66pt"
 viewBox="0.00 0.00 591.00 66.00" xmlns="http://www.w3.org/2000/svg" xmlns:xlink="http://www.w3.org/1999/xlink">
<g id="graph0" class="graph" transform="scale(1 1) rotate(0) translate(4 62)">
<title>format_enum</title>
<polygon fill="white" stroke="transparent" points="-4,4 -4,-62 587,-62 587,4 -4,4"/>
<!-- Node1 -->
<g id="node1" class="node">
<title>Node1</title>
<g id="a_node1"><a xlink:title=" ">
<polygon fill="#bfbfbf" stroke="black" points="500,-19.5 500,-38.5 583,-38.5 583,-19.5 500,-19.5"/>
<text text-anchor="middle" x="541.5" y="-26.5" font-family="Helvetica,sans-Serif" font-size="10.00">format_enum</text>
</a>
</g>
</g>
<!-- Node2 -->
<g id="node2" class="node">
<title>Node2</title>
<g id="a_node2"><a xlink:href="paramset_8c.html#abbeec1610b217bbcd1ed54b6fbfeed06" target="_top" xlink:title=" ">
<polygon fill="white" stroke="black" points="345,-19.5 345,-38.5 464,-38.5 464,-19.5 345,-19.5"/>
<text text-anchor="middle" x="404.5" y="-26.5" font-family="Helvetica,sans-Serif" font-size="10.00">param_format_value</text>
</a>
</g>
</g>
<!-- Node1&#45;&gt;Node2 -->
<g id="edge1" class="edge">
<title>Node1&#45;&gt;Node2</title>
<path fill="none" stroke="midnightblue" d="M489.76,-29C481.5,-29 472.88,-29 464.44,-29"/>
<polygon fill="midnightblue" stroke="midnightblue" points="490,-32.5 500,-29 490,-25.5 490,-32.5"/>
</g>
<!-- Node3 -->
<g id="node3" class="node">
<title>Node3</title>
<g id="a_node3"><a xlink:href="paramset_8c.html#aa1f578a3e3e37557107b29de34eae640" target="_top" xlink:title=" ">
<polygon fill="white" stroke="black" points="228,-19.5 228,-38.5 309,-38.5 309,-19.5 228,-19.5"/>
<text text-anchor="middle" x="268.5" y="-26.5" font-family="Helvetica,sans-Serif" font-size="10.00">param_dump</text>
</a>
</g>
</g>
<!-- Node2&#45;&gt;Node3 -->
<g id="edge2" class="edge">
<title>Node2&#45;&gt;Node3</title>
<path fill="none" stroke="midnightblue" d="M334.59,-29C325.94,-29 317.34,-29 309.35,-29"/>
<polygon fill="midnightblue" stroke="midnightblue" points="334.73,-32.5 344.73,-29 334.73,-25.5 334.73,-32.5"/>
</g>
<!-- Node4 -->
<g id="node4" class="node">
<title>Node4</title>
<g id="a_node4"><a xlink:href="gadget_2params_8c.html#a3cf0e1de21ae17f2e1d0418c5e35b72f" target="_top" xlink:title=" ">
<polygon fill="white" stroke="black" points="77,-38.5 77,-57.5 192,-57.5 192,-38.5 77,-38.5"/>
<text text-anchor="middle" x="134.5" y="-45.5" font-family="Helvetica,sans-Serif" font-size="10.00">read_parameter_file</text>
</a>
</g>
</g>
<!-- Node3&#45;&gt;Node4 -->
<g id="edge3" class="edge">
<title>Node3&#45;&gt;Node4</title>
<path fill="none" stroke="midnightblue" d="M217.88,-36.14C209.49,-37.35 200.71,-38.61 192.16,-39.84"/>
<polygon fill="midnightblue" stroke="midnightblue" points="218.5,-39.59 227.9,-34.7 217.5,-32.66 218.5,-39.59"/>
</g>
<!-- Node6 -->
<g id="node6" class="node">
<title>Node6</title>
<g id="a_node6"><a xlink:href="proto_8h.html#ad7785c44cd2bc491aa94c43517b439fb" target="_top" xlink:title=" ">
<polygon fill="white" stroke="black" points="79.5,-0.5 79.5,-19.5 189.5,-19.5 189.5,-0.5 79.5,-0.5"/>
<text text-anchor="middle" x="134.5" y="-7.5" font-family="Helvetica,sans-Serif" font-size="10.00">read_parameterfile</text>
</a>
</g>
</g>
<!-- Node3&#45;&gt;Node6 -->
<g id="edge5" class="edge">
<title>Node3&#45;&gt;Node6</title>
<path fill="none" stroke="midnightblue" d="M217.78,-21.84C208.62,-20.52 199.01,-19.14 189.72,-17.8"/>
<polygon fill="midnightblue" stroke="midnightblue" points="217.5,-25.34 227.9,-23.3 218.5,-18.41 217.5,-25.34"/>
</g>
<!-- Node5 -->
<g id="node5" class="node">
<title>Node5</title>
<g id="a_node5"><a xlink:href="gadget_2main_8c.html#a3c04138a5bfe5d72780bb7e82a18e627" target="_top" xlink:title=" ">
<polygon fill="white" stroke="black" points="0,-38.5 0,-57.5 41,-57.5 41,-38.5 0,-38.5"/>
<text text-anchor="middle" x="20.5" y="-45.5" font-family="Helvetica,sans-Serif" font-size="10.00">main</text>
</a>
</g>
</g>
<!-- Node4&#45;&gt;Node5 -->
<g id="edge4" class="edge">
<title>Node4&#45;&gt;Node5</title>
<path fill="none" stroke="midnightblue" d="M66.7,-48C57.45,-48 48.61,-48 41.25,-48"/>
<polygon fill="midnightblue" stroke="midnightblue" points="66.84,-51.5 76.84,-48 66.84,-44.5 66.84,-51.5"/>
</g>
<!-- Node7 -->
<g id="node7" class="node">
<title>Node7</title>
<g id="a_node7"><a xlink:href="genic_2main_8c.html#a3c04138a5bfe5d72780bb7e82a18e627" target="_top" xlink:title=" ">
<polygon fill="white" stroke="black" points="0,-0.5 0,-19.5 41,-19.5 41,-0.5 0,-0.5"/>
<text text-anchor="middle" x="20.5" y="-7.5" font-family="Helvetica,sans-Serif" font-size="10.00">main</text>
</a>
</g>
</g>
<!-- Node6&#45;&gt;Node7 -->
<g id="edge6" class="edge">
<title>Node6&#45;&gt;Node7</title>
<path fill="none" stroke="midnightblue" d="M69.17,-10C58.95,-10 49.1,-10 41.04,-10"/>
<polygon fill="midnightblue" stroke="midnightblue" points="69.47,-13.5 79.47,-10 69.47,-6.5 69.47,-13.5"/>
</g>
</g>
</svg>
