<?xml version="1.0" encoding="UTF-8" standalone="no"?>
<!DOCTYPE svg PUBLIC "-//W3C//DTD SVG 1.1//EN"
 "http://www.w3.org/Graphics/SVG/1.1/DTD/svg11.dtd">
<!-- Generated by graphviz version 2.38.0 (20140413.2041)
 -->
<!-- Title: param_get_string2 Pages: 1 -->
<svg width="180pt" height="28pt"
 viewBox="0.00 0.00 179.50 28.00" xmlns="http://www.w3.org/2000/svg" xmlns:xlink="http://www.w3.org/1999/xlink">
<g id="graph0" class="graph" transform="scale(1 1) rotate(0) translate(4 24)">
<title>param_get_string2</title>
<polygon fill="white" stroke="none" points="-4,4 -4,-24 175.5,-24 175.5,4 -4,4"/>
<!-- Node158 -->
<g id="node1" class="node"><title>Node158</title>
<polygon fill="#bfbfbf" stroke="black" points="74.5,-0.5 74.5,-19.5 171.5,-19.5 171.5,-0.5 74.5,-0.5"/>
<text text-anchor="middle" x="123" y="-7.5" font-family="Helvetica,sans-Serif" font-size="10.00">param_get_string2</text>
</g>
<!-- Node159 -->
<g id="node2" class="node"><title>Node159</title>
<g id="a_node2"><a xlink:href="paramset_8c.html#ab4475499a5183014dda09702caed4c08" target="_top" xlink:title="param_get_schema">
<polygon fill="white" stroke="black" points="-7.10543e-15,-0.5 -7.10543e-15,-19.5 102,-19.5 102,-0.5 -7.10543e-15,-0.5"/>
<text text-anchor="middle" x="51" y="-7.5" font-family="Helvetica,sans-Serif" font-size="10.00">param_get_schema</text>
</a>
</g>
</g>
<!-- Node158&#45;&gt;Node159 -->
<g id="edge1" class="edge"><title>Node158&#45;&gt;Node159</title>
<path fill="none" stroke="midnightblue" d="M74.1776,-10C74.1274,-10 74.0773,-10 74.0272,-10"/>
<polygon fill="midnightblue" stroke="midnightblue" points="83.8794,-6.50666 73.8771,-10 83.8748,-13.5067 83.8794,-6.50666"/>
</g>
</g>
</svg>
