<?xml version="1.0" encoding="UTF-8" standalone="no"?>
<!DOCTYPE svg PUBLIC "-//W3C//DTD SVG 1.1//EN"
 "http://www.w3.org/Graphics/SVG/1.1/DTD/svg11.dtd">
<!-- Generated by graphviz version 2.38.0 (20140413.2041)
 -->
<!-- Title: param_is_nil Pages: 1 -->
<svg width="167pt" height="28pt"
 viewBox="0.00 0.00 166.50 28.00" xmlns="http://www.w3.org/2000/svg" xmlns:xlink="http://www.w3.org/1999/xlink">
<g id="graph0" class="graph" transform="scale(1 1) rotate(0) translate(4 24)">
<title>param_is_nil</title>
<polygon fill="white" stroke="none" points="-4,4 -4,-24 162.5,-24 162.5,4 -4,4"/>
<!-- Node107 -->
<g id="node1" class="node"><title>Node107</title>
<polygon fill="#bfbfbf" stroke="black" points="87.5,-0.5 87.5,-19.5 158.5,-19.5 158.5,-0.5 87.5,-0.5"/>
<text text-anchor="middle" x="123" y="-7.5" font-family="Helvetica,sans-Serif" font-size="10.00">param_is_nil</text>
</g>
<!-- Node108 -->
<g id="node2" class="node"><title>Node108</title>
<g id="a_node2"><a xlink:href="paramset_8c.html#ab4475499a5183014dda09702caed4c08" target="_top" xlink:title="param_get_schema">
<polygon fill="white" stroke="black" points="-7.10543e-15,-0.5 -7.10543e-15,-19.5 102,-19.5 102,-0.5 -7.10543e-15,-0.5"/>
<text text-anchor="middle" x="51" y="-7.5" font-family="Helvetica,sans-Serif" font-size="10.00">param_get_schema</text>
</a>
</g>
</g>
<!-- Node107&#45;&gt;Node108 -->
<g id="edge1" class="edge"><title>Node107&#45;&gt;Node108</title>
<path fill="none" stroke="midnightblue" d="M87.4219,-10C87.351,-10 87.2801,-10 87.2093,-10"/>
<polygon fill="midnightblue" stroke="midnightblue" points="96.9983,-6.5047 86.9967,-10 96.9951,-13.5047 96.9983,-6.5047"/>
</g>
</g>
</svg>
