<?xml version="1.0" encoding="UTF-8" standalone="no"?>
<!DOCTYPE svg PUBLIC "-//W3C//DTD SVG 1.1//EN"
 "http://www.w3.org/Graphics/SVG/1.1/DTD/svg11.dtd">
<!-- Generated by graphviz version 2.38.0 (20140413.2041)
 -->
<!-- Title: param_dump Pages: 1 -->
<svg width="591pt" height="47pt"
 viewBox="0.00 0.00 591.00 47.00" xmlns="http://www.w3.org/2000/svg" xmlns:xlink="http://www.w3.org/1999/xlink">
<g id="graph0" class="graph" transform="scale(1 1) rotate(0) translate(4 43)">
<title>param_dump</title>
<polygon fill="white" stroke="none" points="-4,4 -4,-43 587,-43 587,4 -4,4"/>
<!-- Node69 -->
<g id="node1" class="node"><title>Node69</title>
<polygon fill="#bfbfbf" stroke="black" points="0,-0.5 0,-19.5 73,-19.5 73,-0.5 0,-0.5"/>
<text text-anchor="middle" x="36.5" y="-7.5" font-family="Helvetica,sans-Serif" font-size="10.00">param_dump</text>
</g>
<!-- Node70 -->
<g id="node2" class="node"><title>Node70</title>
<g id="a_node2"><a xlink:href="param_8h.html#a952eae1977b498c4fdfabed1742a3ba2" target="_top" xlink:title="read_parameter_file">
<polygon fill="white" stroke="black" points="109,-0.5 109,-19.5 211,-19.5 211,-0.5 109,-0.5"/>
<text text-anchor="middle" x="160" y="-7.5" font-family="Helvetica,sans-Serif" font-size="10.00">read_parameter_file</text>
</a>
</g>
</g>
<!-- Node69&#45;&gt;Node70 -->
<g id="edge1" class="edge"><title>Node69&#45;&gt;Node70</title>
<path fill="none" stroke="midnightblue" d="M83.451,-10C91.6687,-10 100.271,-10 108.605,-10"/>
<polygon fill="midnightblue" stroke="midnightblue" points="83.2969,-6.5001 73.2969,-10 83.2968,-13.5001 83.2969,-6.5001"/>
</g>
<!-- Node71 -->
<g id="node3" class="node"><title>Node71</title>
<g id="a_node3"><a xlink:href="main_8c.html#a3c04138a5bfe5d72780bb7e82a18e627" target="_top" xlink:title="main">
<polygon fill="white" stroke="black" points="247,-0.5 247,-19.5 285,-19.5 285,-0.5 247,-0.5"/>
<text text-anchor="middle" x="266" y="-7.5" font-family="Helvetica,sans-Serif" font-size="10.00">main</text>
</a>
</g>
</g>
<!-- Node70&#45;&gt;Node71 -->
<g id="edge2" class="edge"><title>Node70&#45;&gt;Node71</title>
<path fill="none" stroke="midnightblue" d="M221.246,-10C230.454,-10 239.308,-10 246.613,-10"/>
<polygon fill="midnightblue" stroke="midnightblue" points="221.172,-6.5001 211.172,-10 221.172,-13.5001 221.172,-6.5001"/>
</g>
<!-- Node72 -->
<g id="node4" class="node"><title>Node72</title>
<g id="a_node4"><a xlink:href="walltime_8h.html#a76d2135b612766d4d665748454b879d6" target="_top" xlink:title="walltime_report">
<polygon fill="white" stroke="black" points="321,-19.5 321,-38.5 404,-38.5 404,-19.5 321,-19.5"/>
<text text-anchor="middle" x="362.5" y="-26.5" font-family="Helvetica,sans-Serif" font-size="10.00">walltime_report</text>
</a>
</g>
</g>
<!-- Node71&#45;&gt;Node72 -->
<g id="edge3" class="edge"><title>Node71&#45;&gt;Node72</title>
<path fill="none" stroke="midnightblue" d="M295.141,-15.658C303.148,-17.2678 312.035,-19.0547 320.635,-20.7837"/>
<polygon fill="midnightblue" stroke="midnightblue" points="295.714,-12.2033 285.221,-13.6634 294.334,-19.0659 295.714,-12.2033"/>
</g>
<!-- Node73 -->
<g id="node5" class="node"><title>Node73</title>
<g id="a_node5"><a xlink:href="run_8c.html#adc59e9ee1517e4e690694a64ab6a59d2" target="_top" xlink:title="write_cpu_log">
<polygon fill="white" stroke="black" points="440,-19.5 440,-38.5 517,-38.5 517,-19.5 440,-19.5"/>
<text text-anchor="middle" x="478.5" y="-26.5" font-family="Helvetica,sans-Serif" font-size="10.00">write_cpu_log</text>
</a>
</g>
</g>
<!-- Node72&#45;&gt;Node73 -->
<g id="edge4" class="edge"><title>Node72&#45;&gt;Node73</title>
<path fill="none" stroke="midnightblue" d="M414.031,-29C422.684,-29 431.54,-29 439.785,-29"/>
<polygon fill="midnightblue" stroke="midnightblue" points="414.013,-25.5001 404.013,-29 414.013,-32.5001 414.013,-25.5001"/>
</g>
<!-- Node74 -->
<g id="node6" class="node"><title>Node74</title>
<g id="a_node6"><a xlink:href="run_8c.html#a05e0ffe612d44e6d7f3a9ae5b9df56a2" target="_top" xlink:title="run">
<polygon fill="white" stroke="black" points="553,-0.5 553,-19.5 583,-19.5 583,-0.5 553,-0.5"/>
<text text-anchor="middle" x="568" y="-7.5" font-family="Helvetica,sans-Serif" font-size="10.00">run</text>
</a>
</g>
</g>
<!-- Node73&#45;&gt;Node74 -->
<g id="edge5" class="edge"><title>Node73&#45;&gt;Node74</title>
<path fill="none" stroke="midnightblue" d="M526.925,-18.7021C536.329,-16.6601 545.505,-14.6676 552.698,-13.1056"/>
<polygon fill="midnightblue" stroke="midnightblue" points="526.145,-15.2897 517.116,-20.832 527.631,-22.1303 526.145,-15.2897"/>
</g>
<!-- Node74&#45;&gt;Node71 -->
<g id="edge6" class="edge"><title>Node74&#45;&gt;Node71</title>
<path fill="none" stroke="midnightblue" d="M542.758,-10C484.391,-10 337.064,-10 285.315,-10"/>
<polygon fill="midnightblue" stroke="midnightblue" points="542.885,-13.5001 552.885,-10 542.885,-6.5001 542.885,-13.5001"/>
</g>
</g>
</svg>
