<?xml version="1.0" encoding="UTF-8" standalone="no"?>
<!DOCTYPE svg PUBLIC "-//W3C//DTD SVG 1.1//EN"
 "http://www.w3.org/Graphics/SVG/1.1/DTD/svg11.dtd">
<!-- Generated by graphviz version 2.38.0 (20140413.2041)
 -->
<!-- Title: param_parse Pages: 1 -->
<svg width="110pt" height="460pt"
 viewBox="0.00 0.00 110.00 460.00" xmlns="http://www.w3.org/2000/svg" xmlns:xlink="http://www.w3.org/1999/xlink">
<g id="graph0" class="graph" transform="scale(1 1) rotate(0) translate(4 456)">
<title>param_parse</title>
<polygon fill="white" stroke="none" points="-4,4 -4,-456 106,-456 106,4 -4,4"/>
<!-- Node116 -->
<g id="node1" class="node"><title>Node116</title>
<polygon fill="#bfbfbf" stroke="black" points="14.5,-432.5 14.5,-451.5 87.5,-451.5 87.5,-432.5 14.5,-432.5"/>
<text text-anchor="middle" x="51" y="-439.5" font-family="Helvetica,sans-Serif" font-size="10.00">param_parse</text>
</g>
<!-- Node117 -->
<g id="node2" class="node"><title>Node117</title>
<g id="a_node2"><a xlink:href="paramset_8h.html#a4aa79dc8ecf8ca7f0e0ea8aad5088377" target="_top" xlink:title="param_parse_file">
<polygon fill="white" stroke="black" points="5.5,-360.5 5.5,-379.5 96.5,-379.5 96.5,-360.5 5.5,-360.5"/>
<text text-anchor="middle" x="51" y="-367.5" font-family="Helvetica,sans-Serif" font-size="10.00">param_parse_file</text>
</a>
</g>
</g>
<!-- Node116&#45;&gt;Node117 -->
<g id="edge1" class="edge"><title>Node116&#45;&gt;Node117</title>
<path fill="none" stroke="midnightblue" d="M51,-422.243C51,-408.357 51,-390.393 51,-379.556"/>
<polygon fill="midnightblue" stroke="midnightblue" points="47.5001,-422.29 51,-432.29 54.5001,-422.29 47.5001,-422.29"/>
</g>
<!-- Node118 -->
<g id="node3" class="node"><title>Node118</title>
<g id="a_node3"><a xlink:href="param_8h.html#a952eae1977b498c4fdfabed1742a3ba2" target="_top" xlink:title="read_parameter_file">
<polygon fill="white" stroke="black" points="-7.10543e-15,-288.5 -7.10543e-15,-307.5 102,-307.5 102,-288.5 -7.10543e-15,-288.5"/>
<text text-anchor="middle" x="51" y="-295.5" font-family="Helvetica,sans-Serif" font-size="10.00">read_parameter_file</text>
</a>
</g>
</g>
<!-- Node117&#45;&gt;Node118 -->
<g id="edge2" class="edge"><title>Node117&#45;&gt;Node118</title>
<path fill="none" stroke="midnightblue" d="M51,-350.243C51,-336.357 51,-318.393 51,-307.556"/>
<polygon fill="midnightblue" stroke="midnightblue" points="47.5001,-350.29 51,-360.29 54.5001,-350.29 47.5001,-350.29"/>
</g>
<!-- Node119 -->
<g id="node4" class="node"><title>Node119</title>
<g id="a_node4"><a xlink:href="main_8c.html#a3c04138a5bfe5d72780bb7e82a18e627" target="_top" xlink:title="main">
<polygon fill="white" stroke="black" points="32,-216.5 32,-235.5 70,-235.5 70,-216.5 32,-216.5"/>
<text text-anchor="middle" x="51" y="-223.5" font-family="Helvetica,sans-Serif" font-size="10.00">main</text>
</a>
</g>
</g>
<!-- Node118&#45;&gt;Node119 -->
<g id="edge3" class="edge"><title>Node118&#45;&gt;Node119</title>
<path fill="none" stroke="midnightblue" d="M51,-278.243C51,-264.357 51,-246.393 51,-235.556"/>
<polygon fill="midnightblue" stroke="midnightblue" points="47.4999,-278.29 51,-288.29 54.4999,-278.29 47.4999,-278.29"/>
</g>
<!-- Node120 -->
<g id="node5" class="node"><title>Node120</title>
<g id="a_node5"><a xlink:href="walltime_8h.html#a76d2135b612766d4d665748454b879d6" target="_top" xlink:title="walltime_report">
<polygon fill="white" stroke="black" points="9.5,-0.5 9.5,-19.5 92.5,-19.5 92.5,-0.5 9.5,-0.5"/>
<text text-anchor="middle" x="51" y="-7.5" font-family="Helvetica,sans-Serif" font-size="10.00">walltime_report</text>
</a>
</g>
</g>
<!-- Node119&#45;&gt;Node120 -->
<g id="edge4" class="edge"><title>Node119&#45;&gt;Node120</title>
<path fill="none" stroke="midnightblue" d="M51,-206.266C51,-161.443 51,-53.2692 51,-19.9425"/>
<polygon fill="midnightblue" stroke="midnightblue" points="47.5001,-206.44 51,-216.44 54.5001,-206.44 47.5001,-206.44"/>
</g>
<!-- Node121 -->
<g id="node6" class="node"><title>Node121</title>
<g id="a_node6"><a xlink:href="run_8c.html#adc59e9ee1517e4e690694a64ab6a59d2" target="_top" xlink:title="write_cpu_log">
<polygon fill="white" stroke="black" points="12.5,-72.5 12.5,-91.5 89.5,-91.5 89.5,-72.5 12.5,-72.5"/>
<text text-anchor="middle" x="51" y="-79.5" font-family="Helvetica,sans-Serif" font-size="10.00">write_cpu_log</text>
</a>
</g>
</g>
<!-- Node120&#45;&gt;Node121 -->
<g id="edge5" class="edge"><title>Node120&#45;&gt;Node121</title>
<path fill="none" stroke="midnightblue" d="M51,-29.7574C51,-43.6427 51,-61.607 51,-72.4436"/>
<polygon fill="midnightblue" stroke="midnightblue" points="54.5001,-29.7102 51,-19.7102 47.5001,-29.7103 54.5001,-29.7102"/>
</g>
<!-- Node122 -->
<g id="node7" class="node"><title>Node122</title>
<g id="a_node7"><a xlink:href="run_8c.html#a05e0ffe612d44e6d7f3a9ae5b9df56a2" target="_top" xlink:title="run">
<polygon fill="white" stroke="black" points="36,-144.5 36,-163.5 66,-163.5 66,-144.5 36,-144.5"/>
<text text-anchor="middle" x="51" y="-151.5" font-family="Helvetica,sans-Serif" font-size="10.00">run</text>
</a>
</g>
</g>
<!-- Node121&#45;&gt;Node122 -->
<g id="edge6" class="edge"><title>Node121&#45;&gt;Node122</title>
<path fill="none" stroke="midnightblue" d="M51,-101.757C51,-115.643 51,-133.607 51,-144.444"/>
<polygon fill="midnightblue" stroke="midnightblue" points="54.5001,-101.71 51,-91.7102 47.5001,-101.71 54.5001,-101.71"/>
</g>
<!-- Node122&#45;&gt;Node119 -->
<g id="edge7" class="edge"><title>Node122&#45;&gt;Node119</title>
<path fill="none" stroke="midnightblue" d="M51,-173.757C51,-187.643 51,-205.607 51,-216.444"/>
<polygon fill="midnightblue" stroke="midnightblue" points="54.5001,-173.71 51,-163.71 47.5001,-173.71 54.5001,-173.71"/>
</g>
</g>
</svg>
