<?xml version="1.0" encoding="UTF-8" standalone="no"?>
<!DOCTYPE svg PUBLIC "-//W3C//DTD SVG 1.1//EN"
 "http://www.w3.org/Graphics/SVG/1.1/DTD/svg11.dtd">
<!-- Generated by graphviz version 2.38.0 (20140413.2041)
 -->
<!-- Title: param_set_from_string Pages: 1 -->
<svg width="207pt" height="153pt"
 viewBox="0.00 0.00 206.50 152.71" xmlns="http://www.w3.org/2000/svg" xmlns:xlink="http://www.w3.org/1999/xlink">
<g id="graph0" class="graph" transform="scale(1 1) rotate(0) translate(4 148.708)">
<title>param_set_from_string</title>
<polygon fill="white" stroke="none" points="-4,4 -4,-148.708 202.5,-148.708 202.5,4 -4,4"/>
<!-- Node146 -->
<g id="node1" class="node"><title>Node146</title>
<polygon fill="#bfbfbf" stroke="black" points="65,-62.8538 65,-81.8538 181,-81.8538 181,-62.8538 65,-62.8538"/>
<text text-anchor="middle" x="123" y="-69.8538" font-family="Helvetica,sans-Serif" font-size="10.00">param_set_from_string</text>
</g>
<!-- Node147 -->
<g id="node2" class="node"><title>Node147</title>
<g id="a_node2"><a xlink:href="utils-string_8c.html#a83b37e4b34b4b0d478581e0c73a77ae7" target="_top" xlink:title="fastpm_strdup">
<polygon fill="white" stroke="black" points="119.5,-125.208 119.5,-144.208 198.5,-144.208 198.5,-125.208 119.5,-125.208"/>
<text text-anchor="middle" x="159" y="-132.208" font-family="Helvetica,sans-Serif" font-size="10.00">fastpm_strdup</text>
</a>
</g>
</g>
<!-- Node146&#45;&gt;Node147 -->
<g id="edge1" class="edge"><title>Node146&#45;&gt;Node147</title>
<path fill="none" stroke="midnightblue" d="M128.625,-82.0966C133.825,-91.1038 141.697,-104.737 148.123,-115.869"/>
<polygon fill="midnightblue" stroke="midnightblue" points="145.265,-117.917 153.296,-124.828 151.327,-114.417 145.265,-117.917"/>
</g>
<!-- Node148 -->
<g id="node3" class="node"><title>Node148</title>
<g id="a_node3"><a xlink:href="paramset_8c.html#ab4475499a5183014dda09702caed4c08" target="_top" xlink:title="param_get_schema">
<polygon fill="white" stroke="black" points="-7.10543e-15,-62.8538 -7.10543e-15,-81.8538 102,-81.8538 102,-62.8538 -7.10543e-15,-62.8538"/>
<text text-anchor="middle" x="51" y="-69.8538" font-family="Helvetica,sans-Serif" font-size="10.00">param_get_schema</text>
</a>
</g>
</g>
<!-- Node146&#45;&gt;Node148 -->
<g id="edge2" class="edge"><title>Node146&#45;&gt;Node148</title>
<path fill="none" stroke="midnightblue" d="M64.8823,-72.3538C64.8184,-72.3538 64.7546,-72.3538 64.6909,-72.3538"/>
<polygon fill="midnightblue" stroke="midnightblue" points="74.5022,-68.8591 64.5004,-72.3538 74.4986,-75.8591 74.5022,-68.8591"/>
</g>
<!-- Node149 -->
<g id="node4" class="node"><title>Node149</title>
<g id="a_node4"><a xlink:href="paramset_8c.html#a13ff5860c00c863543a9441fc583359f" target="_top" xlink:title="parse_enum">
<polygon fill="white" stroke="black" points="124,-0.5 124,-19.5 194,-19.5 194,-0.5 124,-0.5"/>
<text text-anchor="middle" x="159" y="-7.5" font-family="Helvetica,sans-Serif" font-size="10.00">parse_enum</text>
</a>
</g>
</g>
<!-- Node146&#45;&gt;Node149 -->
<g id="edge3" class="edge"><title>Node146&#45;&gt;Node149</title>
<path fill="none" stroke="midnightblue" d="M128.625,-62.611C133.825,-53.6038 141.697,-39.9704 148.123,-28.839"/>
<polygon fill="midnightblue" stroke="midnightblue" points="151.327,-30.2904 153.296,-19.8801 145.265,-26.7904 151.327,-30.2904"/>
</g>
</g>
</svg>
