<?xml version="1.0" encoding="UTF-8" standalone="no"?>
<!DOCTYPE svg PUBLIC "-//W3C//DTD SVG 1.1//EN"
 "http://www.w3.org/Graphics/SVG/1.1/DTD/svg11.dtd">
<!-- Generated by graphviz version 2.38.0 (20140413.2041)
 -->
<!-- Title: param_parse Pages: 1 -->
<svg width="718pt" height="47pt"
 viewBox="0.00 0.00 718.00 47.00" xmlns="http://www.w3.org/2000/svg" xmlns:xlink="http://www.w3.org/1999/xlink">
<g id="graph0" class="graph" transform="scale(1 1) rotate(0) translate(4 43)">
<title>param_parse</title>
<polygon fill="white" stroke="none" points="-4,4 -4,-43 714,-43 714,4 -4,4"/>
<!-- Node116 -->
<g id="node1" class="node"><title>Node116</title>
<polygon fill="#bfbfbf" stroke="black" points="0,-0.5 0,-19.5 73,-19.5 73,-0.5 0,-0.5"/>
<text text-anchor="middle" x="36.5" y="-7.5" font-family="Helvetica,sans-Serif" font-size="10.00">param_parse</text>
</g>
<!-- Node117 -->
<g id="node2" class="node"><title>Node117</title>
<g id="a_node2"><a xlink:href="paramset_8h.html#a4aa79dc8ecf8ca7f0e0ea8aad5088377" target="_top" xlink:title="param_parse_file">
<polygon fill="white" stroke="black" points="109,-0.5 109,-19.5 200,-19.5 200,-0.5 109,-0.5"/>
<text text-anchor="middle" x="154.5" y="-7.5" font-family="Helvetica,sans-Serif" font-size="10.00">param_parse_file</text>
</a>
</g>
</g>
<!-- Node116&#45;&gt;Node117 -->
<g id="edge1" class="edge"><title>Node116&#45;&gt;Node117</title>
<path fill="none" stroke="midnightblue" d="M83.5009,-10C91.78,-10 100.4,-10 108.646,-10"/>
<polygon fill="midnightblue" stroke="midnightblue" points="83.2504,-6.5001 73.2503,-10 83.2503,-13.5001 83.2504,-6.5001"/>
</g>
<!-- Node118 -->
<g id="node3" class="node"><title>Node118</title>
<g id="a_node3"><a xlink:href="param_8h.html#a952eae1977b498c4fdfabed1742a3ba2" target="_top" xlink:title="read_parameter_file">
<polygon fill="white" stroke="black" points="236,-0.5 236,-19.5 338,-19.5 338,-0.5 236,-0.5"/>
<text text-anchor="middle" x="287" y="-7.5" font-family="Helvetica,sans-Serif" font-size="10.00">read_parameter_file</text>
</a>
</g>
</g>
<!-- Node117&#45;&gt;Node118 -->
<g id="edge2" class="edge"><title>Node117&#45;&gt;Node118</title>
<path fill="none" stroke="midnightblue" d="M210.235,-10C218.721,-10 227.45,-10 235.828,-10"/>
<polygon fill="midnightblue" stroke="midnightblue" points="210.046,-6.5001 200.046,-10 210.046,-13.5001 210.046,-6.5001"/>
</g>
<!-- Node119 -->
<g id="node4" class="node"><title>Node119</title>
<g id="a_node4"><a xlink:href="main_8c.html#a3c04138a5bfe5d72780bb7e82a18e627" target="_top" xlink:title="main">
<polygon fill="white" stroke="black" points="374,-0.5 374,-19.5 412,-19.5 412,-0.5 374,-0.5"/>
<text text-anchor="middle" x="393" y="-7.5" font-family="Helvetica,sans-Serif" font-size="10.00">main</text>
</a>
</g>
</g>
<!-- Node118&#45;&gt;Node119 -->
<g id="edge3" class="edge"><title>Node118&#45;&gt;Node119</title>
<path fill="none" stroke="midnightblue" d="M348.246,-10C357.454,-10 366.308,-10 373.613,-10"/>
<polygon fill="midnightblue" stroke="midnightblue" points="348.172,-6.5001 338.172,-10 348.172,-13.5001 348.172,-6.5001"/>
</g>
<!-- Node120 -->
<g id="node5" class="node"><title>Node120</title>
<g id="a_node5"><a xlink:href="walltime_8h.html#a76d2135b612766d4d665748454b879d6" target="_top" xlink:title="walltime_report">
<polygon fill="white" stroke="black" points="448,-19.5 448,-38.5 531,-38.5 531,-19.5 448,-19.5"/>
<text text-anchor="middle" x="489.5" y="-26.5" font-family="Helvetica,sans-Serif" font-size="10.00">walltime_report</text>
</a>
</g>
</g>
<!-- Node119&#45;&gt;Node120 -->
<g id="edge4" class="edge"><title>Node119&#45;&gt;Node120</title>
<path fill="none" stroke="midnightblue" d="M422.141,-15.658C430.148,-17.2678 439.035,-19.0547 447.635,-20.7837"/>
<polygon fill="midnightblue" stroke="midnightblue" points="422.714,-12.2033 412.221,-13.6634 421.334,-19.0659 422.714,-12.2033"/>
</g>
<!-- Node121 -->
<g id="node6" class="node"><title>Node121</title>
<g id="a_node6"><a xlink:href="run_8c.html#adc59e9ee1517e4e690694a64ab6a59d2" target="_top" xlink:title="write_cpu_log">
<polygon fill="white" stroke="black" points="567,-19.5 567,-38.5 644,-38.5 644,-19.5 567,-19.5"/>
<text text-anchor="middle" x="605.5" y="-26.5" font-family="Helvetica,sans-Serif" font-size="10.00">write_cpu_log</text>
</a>
</g>
</g>
<!-- Node120&#45;&gt;Node121 -->
<g id="edge5" class="edge"><title>Node120&#45;&gt;Node121</title>
<path fill="none" stroke="midnightblue" d="M541.031,-29C549.684,-29 558.54,-29 566.785,-29"/>
<polygon fill="midnightblue" stroke="midnightblue" points="541.013,-25.5001 531.013,-29 541.013,-32.5001 541.013,-25.5001"/>
</g>
<!-- Node122 -->
<g id="node7" class="node"><title>Node122</title>
<g id="a_node7"><a xlink:href="run_8c.html#a05e0ffe612d44e6d7f3a9ae5b9df56a2" target="_top" xlink:title="run">
<polygon fill="white" stroke="black" points="680,-0.5 680,-19.5 710,-19.5 710,-0.5 680,-0.5"/>
<text text-anchor="middle" x="695" y="-7.5" font-family="Helvetica,sans-Serif" font-size="10.00">run</text>
</a>
</g>
</g>
<!-- Node121&#45;&gt;Node122 -->
<g id="edge6" class="edge"><title>Node121&#45;&gt;Node122</title>
<path fill="none" stroke="midnightblue" d="M653.925,-18.7021C663.329,-16.6601 672.505,-14.6676 679.698,-13.1056"/>
<polygon fill="midnightblue" stroke="midnightblue" points="653.145,-15.2897 644.116,-20.832 654.631,-22.1303 653.145,-15.2897"/>
</g>
<!-- Node122&#45;&gt;Node119 -->
<g id="edge7" class="edge"><title>Node122&#45;&gt;Node119</title>
<path fill="none" stroke="midnightblue" d="M669.758,-10C611.391,-10 464.064,-10 412.315,-10"/>
<polygon fill="midnightblue" stroke="midnightblue" points="669.885,-13.5001 679.885,-10 669.885,-6.5001 669.885,-13.5001"/>
</g>
</g>
</svg>
