<?xml version="1.0" encoding="UTF-8" standalone="no"?>
<!DOCTYPE svg PUBLIC "-//W3C//DTD SVG 1.1//EN"
 "http://www.w3.org/Graphics/SVG/1.1/DTD/svg11.dtd">
<!-- Generated by graphviz version 2.50.0 (0)
 -->
<!-- Title: param_get_string2 Pages: 1 -->
<svg width="506pt" height="180pt"
 viewBox="0.00 0.00 506.00 180.00" xmlns="http://www.w3.org/2000/svg" xmlns:xlink="http://www.w3.org/1999/xlink">
<g id="graph0" class="graph" transform="scale(1 1) rotate(0) translate(4 176)">
<title>param_get_string2</title>
<polygon fill="white" stroke="transparent" points="-4,4 -4,-176 502,-176 502,4 -4,4"/>
<!-- Node1 -->
<g id="node1" class="node">
<title>Node1</title>
<g id="a_node1"><a xlink:title=" ">
<polygon fill="#bfbfbf" stroke="black" points="390,-76.5 390,-95.5 498,-95.5 498,-76.5 390,-76.5"/>
<text text-anchor="middle" x="444" y="-83.5" font-family="Helvetica,sans-Serif" font-size="10.00">param_get_string2</text>
</a>
</g>
</g>
<!-- Node2 -->
<g id="node2" class="node">
<title>Node2</title>
<g id="a_node2"><a xlink:href="proto_8h.html#ad7785c44cd2bc491aa94c43517b439fb" target="_top" xlink:title=" ">
<polygon fill="white" stroke="black" points="236,-152.5 236,-171.5 346,-171.5 346,-152.5 236,-152.5"/>
<text text-anchor="middle" x="291" y="-159.5" font-family="Helvetica,sans-Serif" font-size="10.00">read_parameterfile</text>
</a>
</g>
</g>
<!-- Node1&#45;&gt;Node2 -->
<g id="edge1" class="edge">
<title>Node1&#45;&gt;Node2</title>
<path fill="none" stroke="midnightblue" d="M422.06,-101.74C404.6,-114.28 378.67,-131.58 354,-143 346.13,-146.64 337.39,-149.81 329.01,-152.46"/>
<polygon fill="midnightblue" stroke="midnightblue" points="424.36,-104.4 430.37,-95.67 420.23,-98.74 424.36,-104.4"/>
</g>
<!-- Node4 -->
<g id="node4" class="node">
<title>Node4</title>
<g id="a_node4"><a xlink:href="run_8c.html#a5cf63750ffcbf4a841f300b3887a3727" target="_top" xlink:title=" ">
<polygon fill="white" stroke="black" points="228,-114.5 228,-133.5 354,-133.5 354,-114.5 228,-114.5"/>
<text text-anchor="middle" x="291" y="-121.5" font-family="Helvetica,sans-Serif" font-size="10.00">set_all_global_params</text>
</a>
</g>
</g>
<!-- Node1&#45;&gt;Node4 -->
<g id="edge3" class="edge">
<title>Node1&#45;&gt;Node4</title>
<path fill="none" stroke="midnightblue" d="M395.16,-98.04C374.06,-103.35 349.62,-109.5 329.83,-114.48"/>
<polygon fill="midnightblue" stroke="midnightblue" points="396.05,-101.42 404.9,-95.59 394.34,-94.64 396.05,-101.42"/>
</g>
<!-- Node7 -->
<g id="node7" class="node">
<title>Node7</title>
<g id="a_node7"><a xlink:href="petaio_8c.html#abe120edc74b93ec164168b08c4a4710c" target="_top" xlink:title=" ">
<polygon fill="white" stroke="black" points="236,-76.5 236,-95.5 346,-95.5 346,-76.5 236,-76.5"/>
<text text-anchor="middle" x="291" y="-83.5" font-family="Helvetica,sans-Serif" font-size="10.00">set_petaio_params</text>
</a>
</g>
</g>
<!-- Node1&#45;&gt;Node7 -->
<g id="edge6" class="edge">
<title>Node1&#45;&gt;Node7</title>
<path fill="none" stroke="midnightblue" d="M379.63,-86C368.46,-86 356.92,-86 346.03,-86"/>
<polygon fill="midnightblue" stroke="midnightblue" points="379.76,-89.5 389.76,-86 379.76,-82.5 379.76,-89.5"/>
</g>
<!-- Node8 -->
<g id="node8" class="node">
<title>Node8</title>
<g id="a_node8"><a xlink:href="sfr__eff_8c.html#af9a0036f2b590b6343d359f638d0218f" target="_top" xlink:title=" ">
<polygon fill="white" stroke="black" points="245,-38.5 245,-57.5 337,-57.5 337,-38.5 245,-38.5"/>
<text text-anchor="middle" x="291" y="-45.5" font-family="Helvetica,sans-Serif" font-size="10.00">set_sfr_params</text>
</a>
</g>
</g>
<!-- Node1&#45;&gt;Node8 -->
<g id="edge8" class="edge">
<title>Node1&#45;&gt;Node8</title>
<path fill="none" stroke="midnightblue" d="M395.16,-73.96C374.06,-68.65 349.62,-62.5 329.83,-57.52"/>
<polygon fill="midnightblue" stroke="midnightblue" points="394.34,-77.36 404.9,-76.41 396.05,-70.58 394.34,-77.36"/>
</g>
<!-- Node9 -->
<g id="node9" class="node">
<title>Node9</title>
<g id="a_node9"><a xlink:href="stats_8c.html#afbdaea6d223e7f502638f00aa3faa379" target="_top" xlink:title=" ">
<polygon fill="white" stroke="black" points="239.5,-0.5 239.5,-19.5 342.5,-19.5 342.5,-0.5 239.5,-0.5"/>
<text text-anchor="middle" x="291" y="-7.5" font-family="Helvetica,sans-Serif" font-size="10.00">set_stats_params</text>
</a>
</g>
</g>
<!-- Node1&#45;&gt;Node9 -->
<g id="edge10" class="edge">
<title>Node1&#45;&gt;Node9</title>
<path fill="none" stroke="midnightblue" d="M422.06,-70.26C404.6,-57.72 378.67,-40.42 354,-29 346.13,-25.36 337.39,-22.19 329.01,-19.54"/>
<polygon fill="midnightblue" stroke="midnightblue" points="420.23,-73.26 430.37,-76.33 424.36,-67.6 420.23,-73.26"/>
</g>
<!-- Node3 -->
<g id="node3" class="node">
<title>Node3</title>
<g id="a_node3"><a xlink:href="genic_2main_8c.html#a3c04138a5bfe5d72780bb7e82a18e627" target="_top" xlink:title=" ">
<polygon fill="white" stroke="black" points="114,-152.5 114,-171.5 155,-171.5 155,-152.5 114,-152.5"/>
<text text-anchor="middle" x="134.5" y="-159.5" font-family="Helvetica,sans-Serif" font-size="10.00">main</text>
</a>
</g>
</g>
<!-- Node2&#45;&gt;Node3 -->
<g id="edge2" class="edge">
<title>Node2&#45;&gt;Node3</title>
<path fill="none" stroke="midnightblue" d="M225.95,-162C200.49,-162 173.06,-162 155.16,-162"/>
<polygon fill="midnightblue" stroke="midnightblue" points="225.96,-165.5 235.96,-162 225.96,-158.5 225.96,-165.5"/>
</g>
<!-- Node5 -->
<g id="node5" class="node">
<title>Node5</title>
<g id="a_node5"><a xlink:href="gadget_2params_8c.html#a3cf0e1de21ae17f2e1d0418c5e35b72f" target="_top" xlink:title=" ">
<polygon fill="white" stroke="black" points="77,-57.5 77,-76.5 192,-76.5 192,-57.5 77,-57.5"/>
<text text-anchor="middle" x="134.5" y="-64.5" font-family="Helvetica,sans-Serif" font-size="10.00">read_parameter_file</text>
</a>
</g>
</g>
<!-- Node4&#45;&gt;Node5 -->
<g id="edge4" class="edge">
<title>Node4&#45;&gt;Node5</title>
<path fill="none" stroke="midnightblue" d="M246.84,-111.33C240.49,-109.31 234.05,-107.17 228,-105 203.48,-96.23 175.94,-84.69 157.33,-76.64"/>
<polygon fill="midnightblue" stroke="midnightblue" points="246.08,-114.77 256.67,-114.41 248.17,-108.08 246.08,-114.77"/>
</g>
<!-- Node6 -->
<g id="node6" class="node">
<title>Node6</title>
<g id="a_node6"><a xlink:href="gadget_2main_8c.html#a3c04138a5bfe5d72780bb7e82a18e627" target="_top" xlink:title=" ">
<polygon fill="white" stroke="black" points="0,-57.5 0,-76.5 41,-76.5 41,-57.5 0,-57.5"/>
<text text-anchor="middle" x="20.5" y="-64.5" font-family="Helvetica,sans-Serif" font-size="10.00">main</text>
</a>
</g>
</g>
<!-- Node5&#45;&gt;Node6 -->
<g id="edge5" class="edge">
<title>Node5&#45;&gt;Node6</title>
<path fill="none" stroke="midnightblue" d="M66.7,-67C57.45,-67 48.61,-67 41.25,-67"/>
<polygon fill="midnightblue" stroke="midnightblue" points="66.84,-70.5 76.84,-67 66.84,-63.5 66.84,-70.5"/>
</g>
<!-- Node7&#45;&gt;Node5 -->
<g id="edge7" class="edge">
<title>Node7&#45;&gt;Node5</title>
<path fill="none" stroke="midnightblue" d="M225.83,-78.11C214.65,-76.73 203.09,-75.31 192.13,-73.96"/>
<polygon fill="midnightblue" stroke="midnightblue" points="225.61,-81.61 235.96,-79.35 226.47,-74.66 225.61,-81.61"/>
</g>
<!-- Node8&#45;&gt;Node5 -->
<g id="edge9" class="edge">
<title>Node8&#45;&gt;Node5</title>
<path fill="none" stroke="midnightblue" d="M234.59,-54.81C220.82,-56.51 206.04,-58.33 192.21,-60.03"/>
<polygon fill="midnightblue" stroke="midnightblue" points="235.4,-58.24 244.9,-53.55 234.54,-51.29 235.4,-58.24"/>
</g>
<!-- Node9&#45;&gt;Node5 -->
<g id="edge11" class="edge">
<title>Node9&#45;&gt;Node5</title>
<path fill="none" stroke="midnightblue" d="M246.84,-22.67C240.49,-24.69 234.05,-26.83 228,-29 203.48,-37.77 175.94,-49.31 157.33,-57.36"/>
<polygon fill="midnightblue" stroke="midnightblue" points="248.17,-25.92 256.67,-19.59 246.08,-19.23 248.17,-25.92"/>
</g>
</g>
</svg>
