<?xml version="1.0" encoding="UTF-8" standalone="no"?>
<!DOCTYPE svg PUBLIC "-//W3C//DTD SVG 1.1//EN"
 "http://www.w3.org/Graphics/SVG/1.1/DTD/svg11.dtd">
<!-- Generated by graphviz version 2.38.0 (20140413.2041)
 -->
<!-- Title: param_declare Pages: 1 -->
<svg width="160pt" height="28pt"
 viewBox="0.00 0.00 159.50 28.00" xmlns="http://www.w3.org/2000/svg" xmlns:xlink="http://www.w3.org/1999/xlink">
<g id="graph0" class="graph" transform="scale(1 1) rotate(0) translate(4 24)">
<title>param_declare</title>
<polygon fill="white" stroke="none" points="-4,4 -4,-24 155.5,-24 155.5,4 -4,4"/>
<!-- Node10 -->
<g id="node1" class="node"><title>Node10</title>
<polygon fill="#bfbfbf" stroke="black" points="71.5,-0.5 71.5,-19.5 151.5,-19.5 151.5,-0.5 71.5,-0.5"/>
<text text-anchor="middle" x="111.5" y="-7.5" font-family="Helvetica,sans-Serif" font-size="10.00">param_declare</text>
</g>
<!-- Node11 -->
<g id="node2" class="node"><title>Node11</title>
<g id="a_node2"><a xlink:href="utils-string_8c.html#a83b37e4b34b4b0d478581e0c73a77ae7" target="_top" xlink:title="fastpm_strdup">
<polygon fill="white" stroke="black" points="-1.42109e-14,-0.5 -1.42109e-14,-19.5 79,-19.5 79,-0.5 -1.42109e-14,-0.5"/>
<text text-anchor="middle" x="39.5" y="-7.5" font-family="Helvetica,sans-Serif" font-size="10.00">fastpm_strdup</text>
</a>
</g>
</g>
<!-- Node10&#45;&gt;Node11 -->
<g id="edge1" class="edge"><title>Node10&#45;&gt;Node11</title>
<path fill="none" stroke="midnightblue" d="M71.2898,-10C71.2254,-10 71.161,-10 71.0966,-10"/>
<polygon fill="midnightblue" stroke="midnightblue" points="80.9053,-6.50518 70.9035,-10 80.9017,-13.5052 80.9053,-6.50518"/>
</g>
</g>
</svg>
