<?xml version="1.0" encoding="UTF-8" standalone="no"?>
<!DOCTYPE svg PUBLIC "-//W3C//DTD SVG 1.1//EN"
 "http://www.w3.org/Graphics/SVG/1.1/DTD/svg11.dtd">
<!-- Generated by graphviz version 2.38.0 (20140413.2041)
 -->
<!-- Title: particle_alloc_memory Pages: 1 -->
<svg width="122pt" height="604pt"
 viewBox="0.00 0.00 122.00 604.00" xmlns="http://www.w3.org/2000/svg" xmlns:xlink="http://www.w3.org/1999/xlink">
<g id="graph0" class="graph" transform="scale(1 1) rotate(0) translate(4 600)">
<title>particle_alloc_memory</title>
<polygon fill="white" stroke="none" points="-4,4 -4,-600 118,-600 118,4 -4,4"/>
<!-- Node38 -->
<g id="node1" class="node"><title>Node38</title>
<polygon fill="#bfbfbf" stroke="black" points="0,-576.5 0,-595.5 114,-595.5 114,-576.5 0,-576.5"/>
<text text-anchor="middle" x="57" y="-583.5" font-family="Helvetica,sans-Serif" font-size="10.00">particle_alloc_memory</text>
</g>
<!-- Node39 -->
<g id="node2" class="node"><title>Node39</title>
<g id="a_node2"><a xlink:href="petaio_8c.html#aaa9eefdbfea91c08aa366767aac96a69" target="_top" xlink:title="petaio_read_internal">
<polygon fill="white" stroke="black" points="5,-504.5 5,-523.5 109,-523.5 109,-504.5 5,-504.5"/>
<text text-anchor="middle" x="57" y="-511.5" font-family="Helvetica,sans-Serif" font-size="10.00">petaio_read_internal</text>
</a>
</g>
</g>
<!-- Node38&#45;&gt;Node39 -->
<g id="edge1" class="edge"><title>Node38&#45;&gt;Node39</title>
<path fill="none" stroke="midnightblue" d="M57,-566.243C57,-552.357 57,-534.393 57,-523.556"/>
<polygon fill="midnightblue" stroke="midnightblue" points="53.5001,-566.29 57,-576.29 60.5001,-566.29 53.5001,-566.29"/>
</g>
<!-- Node40 -->
<g id="node3" class="node"><title>Node40</title>
<g id="a_node3"><a xlink:href="petaio_8h.html#a3dd52bd7a320fa9ef1c7963d060ae4ec" target="_top" xlink:title="petaio_read_snapshot">
<polygon fill="white" stroke="black" points="1,-432.5 1,-451.5 113,-451.5 113,-432.5 1,-432.5"/>
<text text-anchor="middle" x="57" y="-439.5" font-family="Helvetica,sans-Serif" font-size="10.00">petaio_read_snapshot</text>
</a>
</g>
</g>
<!-- Node39&#45;&gt;Node40 -->
<g id="edge2" class="edge"><title>Node39&#45;&gt;Node40</title>
<path fill="none" stroke="midnightblue" d="M57,-494.243C57,-480.357 57,-462.393 57,-451.556"/>
<polygon fill="midnightblue" stroke="midnightblue" points="53.5001,-494.29 57,-504.29 60.5001,-494.29 53.5001,-494.29"/>
</g>
<!-- Node41 -->
<g id="node4" class="node"><title>Node41</title>
<g id="a_node4"><a xlink:href="proto_8h.html#ab080cb20bac2a1a6153a84e8cfd15374" target="_top" xlink:title="init">
<polygon fill="white" stroke="black" points="42.5,-360.5 42.5,-379.5 71.5,-379.5 71.5,-360.5 42.5,-360.5"/>
<text text-anchor="middle" x="57" y="-367.5" font-family="Helvetica,sans-Serif" font-size="10.00">init</text>
</a>
</g>
</g>
<!-- Node40&#45;&gt;Node41 -->
<g id="edge3" class="edge"><title>Node40&#45;&gt;Node41</title>
<path fill="none" stroke="midnightblue" d="M57,-422.243C57,-408.357 57,-390.393 57,-379.556"/>
<polygon fill="midnightblue" stroke="midnightblue" points="53.4999,-422.29 57,-432.29 60.4999,-422.29 53.4999,-422.29"/>
</g>
<!-- Node42 -->
<g id="node5" class="node"><title>Node42</title>
<g id="a_node5"><a xlink:href="proto_8h.html#a74dc0e5e9eefe11fc8434b62de573146" target="_top" xlink:title="begrun">
<polygon fill="white" stroke="black" points="34,-288.5 34,-307.5 80,-307.5 80,-288.5 34,-288.5"/>
<text text-anchor="middle" x="57" y="-295.5" font-family="Helvetica,sans-Serif" font-size="10.00">begrun</text>
</a>
</g>
</g>
<!-- Node41&#45;&gt;Node42 -->
<g id="edge4" class="edge"><title>Node41&#45;&gt;Node42</title>
<path fill="none" stroke="midnightblue" d="M57,-350.243C57,-336.357 57,-318.393 57,-307.556"/>
<polygon fill="midnightblue" stroke="midnightblue" points="53.5001,-350.29 57,-360.29 60.5001,-350.29 53.5001,-350.29"/>
</g>
<!-- Node43 -->
<g id="node6" class="node"><title>Node43</title>
<g id="a_node6"><a xlink:href="main_8c.html#a3c04138a5bfe5d72780bb7e82a18e627" target="_top" xlink:title="main">
<polygon fill="white" stroke="black" points="38,-216.5 38,-235.5 76,-235.5 76,-216.5 38,-216.5"/>
<text text-anchor="middle" x="57" y="-223.5" font-family="Helvetica,sans-Serif" font-size="10.00">main</text>
</a>
</g>
</g>
<!-- Node42&#45;&gt;Node43 -->
<g id="edge5" class="edge"><title>Node42&#45;&gt;Node43</title>
<path fill="none" stroke="midnightblue" d="M57,-278.243C57,-264.357 57,-246.393 57,-235.556"/>
<polygon fill="midnightblue" stroke="midnightblue" points="53.5001,-278.29 57,-288.29 60.5001,-278.29 53.5001,-278.29"/>
</g>
<!-- Node44 -->
<g id="node7" class="node"><title>Node44</title>
<g id="a_node7"><a xlink:href="walltime_8h.html#a76d2135b612766d4d665748454b879d6" target="_top" xlink:title="walltime_report">
<polygon fill="white" stroke="black" points="15.5,-0.5 15.5,-19.5 98.5,-19.5 98.5,-0.5 15.5,-0.5"/>
<text text-anchor="middle" x="57" y="-7.5" font-family="Helvetica,sans-Serif" font-size="10.00">walltime_report</text>
</a>
</g>
</g>
<!-- Node43&#45;&gt;Node44 -->
<g id="edge6" class="edge"><title>Node43&#45;&gt;Node44</title>
<path fill="none" stroke="midnightblue" d="M57,-206.266C57,-161.443 57,-53.2692 57,-19.9425"/>
<polygon fill="midnightblue" stroke="midnightblue" points="53.5001,-206.44 57,-216.44 60.5001,-206.44 53.5001,-206.44"/>
</g>
<!-- Node45 -->
<g id="node8" class="node"><title>Node45</title>
<g id="a_node8"><a xlink:href="run_8c.html#adc59e9ee1517e4e690694a64ab6a59d2" target="_top" xlink:title="write_cpu_log">
<polygon fill="white" stroke="black" points="18.5,-72.5 18.5,-91.5 95.5,-91.5 95.5,-72.5 18.5,-72.5"/>
<text text-anchor="middle" x="57" y="-79.5" font-family="Helvetica,sans-Serif" font-size="10.00">write_cpu_log</text>
</a>
</g>
</g>
<!-- Node44&#45;&gt;Node45 -->
<g id="edge7" class="edge"><title>Node44&#45;&gt;Node45</title>
<path fill="none" stroke="midnightblue" d="M57,-29.7574C57,-43.6427 57,-61.607 57,-72.4436"/>
<polygon fill="midnightblue" stroke="midnightblue" points="60.5001,-29.7102 57,-19.7102 53.5001,-29.7103 60.5001,-29.7102"/>
</g>
<!-- Node46 -->
<g id="node9" class="node"><title>Node46</title>
<g id="a_node9"><a xlink:href="run_8c.html#a05e0ffe612d44e6d7f3a9ae5b9df56a2" target="_top" xlink:title="run">
<polygon fill="white" stroke="black" points="42,-144.5 42,-163.5 72,-163.5 72,-144.5 42,-144.5"/>
<text text-anchor="middle" x="57" y="-151.5" font-family="Helvetica,sans-Serif" font-size="10.00">run</text>
</a>
</g>
</g>
<!-- Node45&#45;&gt;Node46 -->
<g id="edge8" class="edge"><title>Node45&#45;&gt;Node46</title>
<path fill="none" stroke="midnightblue" d="M57,-101.757C57,-115.643 57,-133.607 57,-144.444"/>
<polygon fill="midnightblue" stroke="midnightblue" points="60.5001,-101.71 57,-91.7102 53.5001,-101.71 60.5001,-101.71"/>
</g>
<!-- Node46&#45;&gt;Node43 -->
<g id="edge9" class="edge"><title>Node46&#45;&gt;Node43</title>
<path fill="none" stroke="midnightblue" d="M57,-173.757C57,-187.643 57,-205.607 57,-216.444"/>
<polygon fill="midnightblue" stroke="midnightblue" points="60.5001,-173.71 57,-163.71 53.5001,-173.71 60.5001,-173.71"/>
</g>
</g>
</svg>
