<?xml version="1.0" encoding="UTF-8" standalone="no"?>
<!DOCTYPE svg PUBLIC "-//W3C//DTD SVG 1.1//EN"
 "http://www.w3.org/Graphics/SVG/1.1/DTD/svg11.dtd">
<!-- Generated by graphviz version 2.50.0 (0)
 -->
<!-- Title: PEANO Pages: 1 -->
<svg width="1548pt" height="583pt"
 viewBox="0.00 0.00 1548.00 583.00" xmlns="http://www.w3.org/2000/svg" xmlns:xlink="http://www.w3.org/1999/xlink">
<g id="graph0" class="graph" transform="scale(1 1) rotate(0) translate(4 579)">
<title>PEANO</title>
<polygon fill="white" stroke="transparent" points="-4,4 -4,-579 1544,-579 1544,4 -4,4"/>
<!-- Node1 -->
<g id="node1" class="node">
<title>Node1</title>
<g id="a_node1"><a xlink:title=" ">
<polygon fill="#bfbfbf" stroke="black" points="1490,-327.5 1490,-346.5 1540,-346.5 1540,-327.5 1490,-327.5"/>
<text text-anchor="middle" x="1515" y="-334.5" font-family="Helvetica,sans-Serif" font-size="10.00">PEANO</text>
</a>
</g>
</g>
<!-- Node2 -->
<g id="node2" class="node">
<title>Node2</title>
<g id="a_node2"><a xlink:href="test__density_8c.html#a1f2c8c2a35e14ec19a93d42363f0fe55" target="_top" xlink:title=" ">
<polygon fill="white" stroke="black" points="1356,-498.5 1356,-517.5 1450,-517.5 1450,-498.5 1356,-498.5"/>
<text text-anchor="middle" x="1403" y="-505.5" font-family="Helvetica,sans-Serif" font-size="10.00">do_density_test</text>
</a>
</g>
</g>
<!-- Node1&#45;&gt;Node2 -->
<g id="edge1" class="edge">
<title>Node1&#45;&gt;Node2</title>
<path fill="none" stroke="midnightblue" d="M1507.84,-356.31C1498.82,-382.64 1480.22,-430.47 1454,-465 1443.89,-478.31 1429.05,-490.43 1418.16,-498.38"/>
<polygon fill="midnightblue" stroke="midnightblue" points="1511.19,-357.34 1511.01,-346.75 1504.54,-355.13 1511.19,-357.34"/>
</g>
<!-- Node7 -->
<g id="node7" class="node">
<title>Node7</title>
<g id="a_node7"><a xlink:href="test__gravity_8c.html#aa6bdcef3f6cb327efb3f2f993f64b7ce" target="_top" xlink:title=" ">
<polygon fill="white" stroke="black" points="361.5,-422.5 361.5,-441.5 444.5,-441.5 444.5,-422.5 361.5,-422.5"/>
<text text-anchor="middle" x="403" y="-429.5" font-family="Helvetica,sans-Serif" font-size="10.00">do_force_test</text>
</a>
</g>
</g>
<!-- Node1&#45;&gt;Node7 -->
<g id="edge6" class="edge">
<title>Node1&#45;&gt;Node7</title>
<path fill="none" stroke="midnightblue" d="M1493.13,-352.41C1448.84,-383.54 1341.12,-451 1239.5,-451 1239.5,-451 1239.5,-451 725.5,-451 624.3,-451 505.49,-441.5 444.56,-435.94"/>
<polygon fill="midnightblue" stroke="midnightblue" points="1495.26,-355.19 1501.36,-346.52 1491.19,-349.49 1495.26,-355.19"/>
</g>
<!-- Node13 -->
<g id="node13" class="node">
<title>Node13</title>
<g id="a_node13"><a xlink:href="test__forcetree_8c.html#a911d624a8dd049768dae7eeea246e40d" target="_top" xlink:title=" ">
<polygon fill="white" stroke="black" points="1364.5,-346.5 1364.5,-365.5 1441.5,-365.5 1441.5,-346.5 1364.5,-346.5"/>
<text text-anchor="middle" x="1403" y="-353.5" font-family="Helvetica,sans-Serif" font-size="10.00">do_tree_test</text>
</a>
</g>
</g>
<!-- Node1&#45;&gt;Node13 -->
<g id="edge14" class="edge">
<title>Node1&#45;&gt;Node13</title>
<path fill="none" stroke="midnightblue" d="M1479.78,-342.91C1467.77,-344.99 1454.21,-347.33 1441.92,-349.45"/>
<polygon fill="midnightblue" stroke="midnightblue" points="1480.6,-346.32 1489.86,-341.17 1479.41,-339.42 1480.6,-346.32"/>
</g>
<!-- Node19 -->
<g id="node19" class="node">
<title>Node19</title>
<g id="a_node19"><a xlink:href="init_8c.html#ac2e8594acf366f237632083d743efb0a" target="_top" xlink:title=" ">
<polygon fill="white" stroke="black" points="710.5,-38.5 710.5,-57.5 742.5,-57.5 742.5,-38.5 710.5,-38.5"/>
<text text-anchor="middle" x="726.5" y="-45.5" font-family="Helvetica,sans-Serif" font-size="10.00">init</text>
</a>
</g>
</g>
<!-- Node1&#45;&gt;Node19 -->
<g id="edge22" class="edge">
<title>Node1&#45;&gt;Node19</title>
<path fill="none" stroke="midnightblue" d="M1506.93,-318.02C1481.61,-253.7 1388.95,-48 1239.5,-48 1239.5,-48 1239.5,-48 1064.5,-48 940.17,-48 790.05,-48 742.61,-48"/>
<polygon fill="midnightblue" stroke="midnightblue" points="1503.67,-319.31 1510.53,-327.38 1510.21,-316.79 1503.67,-319.31"/>
</g>
<!-- Node22 -->
<g id="node22" class="node">
<title>Node22</title>
<g id="a_node22"><a xlink:href="drift_8c.html#afcd5522c5be796dbcb33e4e6d689ab3b" target="_top" xlink:title=" ">
<polygon fill="white" stroke="black" points="1352,-289.5 1352,-308.5 1454,-308.5 1454,-289.5 1352,-289.5"/>
<text text-anchor="middle" x="1403" y="-296.5" font-family="Helvetica,sans-Serif" font-size="10.00">real_drift_particle</text>
</a>
</g>
</g>
<!-- Node1&#45;&gt;Node22 -->
<g id="edge25" class="edge">
<title>Node1&#45;&gt;Node22</title>
<path fill="none" stroke="midnightblue" d="M1480.08,-325.28C1464.5,-319.9 1446.28,-313.61 1431.57,-308.52"/>
<polygon fill="midnightblue" stroke="midnightblue" points="1479.27,-328.7 1489.86,-328.66 1481.55,-322.09 1479.27,-328.7"/>
</g>
<!-- Node44 -->
<g id="node44" class="node">
<title>Node44</title>
<g id="a_node44"><a xlink:href="test__fof_8c.html#a59c5777880c41589d3400f5be50b3507" target="_top" xlink:title=" ">
<polygon fill="white" stroke="black" points="512.5,-0.5 512.5,-19.5 603.5,-19.5 603.5,-0.5 512.5,-0.5"/>
<text text-anchor="middle" x="558" y="-7.5" font-family="Helvetica,sans-Serif" font-size="10.00">setup_particles</text>
</a>
</g>
</g>
<!-- Node1&#45;&gt;Node44 -->
<g id="edge61" class="edge">
<title>Node1&#45;&gt;Node44</title>
<path fill="none" stroke="midnightblue" d="M1511.73,-317.3C1505.25,-264.35 1485.12,-120.61 1454,-86 1386.37,-10.8 1340.64,-10 1239.5,-10 1239.5,-10 1239.5,-10 897.5,-10 792.16,-10 668.38,-10 603.63,-10"/>
<polygon fill="midnightblue" stroke="midnightblue" points="1508.27,-317.9 1512.93,-327.41 1515.22,-317.07 1508.27,-317.9"/>
</g>
<!-- Node3 -->
<g id="node3" class="node">
<title>Node3</title>
<g id="a_node3"><a xlink:href="test__density_8c.html#ab398a273f1cc5a1816af9ef286a460f3" target="_top" xlink:title=" ">
<polygon fill="white" stroke="black" points="1191,-555.5 1191,-574.5 1286,-574.5 1286,-555.5 1191,-555.5"/>
<text text-anchor="middle" x="1238.5" y="-562.5" font-family="Helvetica,sans-Serif" font-size="10.00">do_random_test</text>
</a>
</g>
</g>
<!-- Node2&#45;&gt;Node3 -->
<g id="edge2" class="edge">
<title>Node2&#45;&gt;Node3</title>
<path fill="none" stroke="midnightblue" d="M1373.79,-521.94C1357.23,-529.75 1335.75,-539.24 1316,-546 1305.64,-549.54 1294.29,-552.73 1283.57,-555.43"/>
<polygon fill="midnightblue" stroke="midnightblue" points="1375.4,-525.05 1382.91,-517.58 1372.38,-518.74 1375.4,-525.05"/>
</g>
<!-- Node5 -->
<g id="node5" class="node">
<title>Node5</title>
<g id="a_node5"><a xlink:href="test__density_8c.html#a0b98ad62e33169daca9a098f23b22730" target="_top" xlink:title=" ">
<polygon fill="white" stroke="black" points="1185,-517.5 1185,-536.5 1292,-536.5 1292,-517.5 1185,-517.5"/>
<text text-anchor="middle" x="1238.5" y="-524.5" font-family="Helvetica,sans-Serif" font-size="10.00">test_density_close</text>
</a>
</g>
</g>
<!-- Node2&#45;&gt;Node5 -->
<g id="edge4" class="edge">
<title>Node2&#45;&gt;Node5</title>
<path fill="none" stroke="midnightblue" d="M1345.82,-514.57C1328.38,-516.61 1309.23,-518.85 1292.05,-520.86"/>
<polygon fill="midnightblue" stroke="midnightblue" points="1346.34,-518.03 1355.87,-513.39 1345.53,-511.08 1346.34,-518.03"/>
</g>
<!-- Node6 -->
<g id="node6" class="node">
<title>Node6</title>
<g id="a_node6"><a xlink:href="test__density_8c.html#af90097e65c497dae6bed7b2d03702f89" target="_top" xlink:title=" ">
<polygon fill="white" stroke="black" points="1189.5,-479.5 1189.5,-498.5 1287.5,-498.5 1287.5,-479.5 1189.5,-479.5"/>
<text text-anchor="middle" x="1238.5" y="-486.5" font-family="Helvetica,sans-Serif" font-size="10.00">test_density_flat</text>
</a>
</g>
</g>
<!-- Node2&#45;&gt;Node6 -->
<g id="edge5" class="edge">
<title>Node2&#45;&gt;Node6</title>
<path fill="none" stroke="midnightblue" d="M1345.88,-501.44C1326.95,-499.23 1306,-496.78 1287.73,-494.64"/>
<polygon fill="midnightblue" stroke="midnightblue" points="1345.53,-504.92 1355.87,-502.61 1346.34,-497.97 1345.53,-504.92"/>
</g>
<!-- Node4 -->
<g id="node4" class="node">
<title>Node4</title>
<g id="a_node4"><a xlink:href="test__density_8c.html#a79c97c1ac28bcad8abc150104d7cb7c0" target="_top" xlink:title=" ">
<polygon fill="white" stroke="black" points="1006,-555.5 1006,-574.5 1125,-574.5 1125,-555.5 1006,-555.5"/>
<text text-anchor="middle" x="1065.5" y="-562.5" font-family="Helvetica,sans-Serif" font-size="10.00">test_density_random</text>
</a>
</g>
</g>
<!-- Node3&#45;&gt;Node4 -->
<g id="edge3" class="edge">
<title>Node3&#45;&gt;Node4</title>
<path fill="none" stroke="midnightblue" d="M1180.53,-565C1162.71,-565 1143.02,-565 1125.09,-565"/>
<polygon fill="midnightblue" stroke="midnightblue" points="1180.77,-568.5 1190.77,-565 1180.77,-561.5 1180.77,-568.5"/>
</g>
<!-- Node8 -->
<g id="node8" class="node">
<title>Node8</title>
<g id="a_node8"><a xlink:href="test__gravity_8c.html#a31e06bbad4eac810c349a6bc44a0aa08" target="_top" xlink:title=" ">
<polygon fill="white" stroke="black" points="221,-460.5 221,-479.5 316,-479.5 316,-460.5 221,-460.5"/>
<text text-anchor="middle" x="268.5" y="-467.5" font-family="Helvetica,sans-Serif" font-size="10.00">do_random_test</text>
</a>
</g>
</g>
<!-- Node7&#45;&gt;Node8 -->
<g id="edge7" class="edge">
<title>Node7&#45;&gt;Node8</title>
<path fill="none" stroke="midnightblue" d="M358.8,-444.39C340.65,-449.59 319.87,-455.55 302.92,-460.41"/>
<polygon fill="midnightblue" stroke="midnightblue" points="359.92,-447.71 368.56,-441.59 357.99,-440.98 359.92,-447.71"/>
</g>
<!-- Node11 -->
<g id="node11" class="node">
<title>Node11</title>
<g id="a_node11"><a xlink:href="test__gravity_8c.html#ac3391a3ee98d428389e50b886e988c63" target="_top" xlink:title=" ">
<polygon fill="white" stroke="black" points="83,-422.5 83,-441.5 179,-441.5 179,-422.5 83,-422.5"/>
<text text-anchor="middle" x="131" y="-429.5" font-family="Helvetica,sans-Serif" font-size="10.00">test_force_close</text>
</a>
</g>
</g>
<!-- Node7&#45;&gt;Node11 -->
<g id="edge10" class="edge">
<title>Node7&#45;&gt;Node11</title>
<path fill="none" stroke="midnightblue" d="M351.16,-432C301.83,-432 227.56,-432 179.42,-432"/>
<polygon fill="midnightblue" stroke="midnightblue" points="351.29,-435.5 361.29,-432 351.29,-428.5 351.29,-435.5"/>
</g>
<!-- Node12 -->
<g id="node12" class="node">
<title>Node12</title>
<g id="a_node12"><a xlink:href="test__gravity_8c.html#a87bcba11fc8f8f2ad649784bb1b8a48d" target="_top" xlink:title=" ">
<polygon fill="white" stroke="black" points="88,-384.5 88,-403.5 174,-403.5 174,-384.5 88,-384.5"/>
<text text-anchor="middle" x="131" y="-391.5" font-family="Helvetica,sans-Serif" font-size="10.00">test_force_flat</text>
</a>
</g>
</g>
<!-- Node7&#45;&gt;Node12 -->
<g id="edge12" class="edge">
<title>Node7&#45;&gt;Node12</title>
<path fill="none" stroke="midnightblue" d="M351.13,-424.84C300.04,-417.65 222.23,-406.7 174.38,-399.97"/>
<polygon fill="midnightblue" stroke="midnightblue" points="350.9,-428.34 361.29,-426.27 351.87,-421.41 350.9,-428.34"/>
</g>
<!-- Node9 -->
<g id="node9" class="node">
<title>Node9</title>
<g id="a_node9"><a xlink:href="test__gravity_8c.html#a17492d7388898745e66a636173c8ce1d" target="_top" xlink:title=" ">
<polygon fill="white" stroke="black" points="77,-460.5 77,-479.5 185,-479.5 185,-460.5 77,-460.5"/>
<text text-anchor="middle" x="131" y="-467.5" font-family="Helvetica,sans-Serif" font-size="10.00">test_force_random</text>
</a>
</g>
</g>
<!-- Node8&#45;&gt;Node9 -->
<g id="edge8" class="edge">
<title>Node8&#45;&gt;Node9</title>
<path fill="none" stroke="midnightblue" d="M210.72,-470C202.28,-470 193.6,-470 185.23,-470"/>
<polygon fill="midnightblue" stroke="midnightblue" points="210.87,-473.5 220.87,-470 210.87,-466.5 210.87,-473.5"/>
</g>
<!-- Node10 -->
<g id="node10" class="node">
<title>Node10</title>
<g id="a_node10"><a xlink:href="test__gravity_8c.html#a840291bc02cba5474a4cb46a9b9566fe" target="_top" xlink:title=" ">
<polygon fill="white" stroke="black" points="0,-422.5 0,-441.5 41,-441.5 41,-422.5 0,-422.5"/>
<text text-anchor="middle" x="20.5" y="-429.5" font-family="Helvetica,sans-Serif" font-size="10.00">main</text>
</a>
</g>
</g>
<!-- Node9&#45;&gt;Node10 -->
<g id="edge9" class="edge">
<title>Node9&#45;&gt;Node10</title>
<path fill="none" stroke="midnightblue" d="M92.81,-456.97C75.54,-450.93 55.7,-443.98 41.34,-438.95"/>
<polygon fill="midnightblue" stroke="midnightblue" points="92.03,-460.41 102.62,-460.41 94.34,-453.8 92.03,-460.41"/>
</g>
<!-- Node11&#45;&gt;Node10 -->
<g id="edge11" class="edge">
<title>Node11&#45;&gt;Node10</title>
<path fill="none" stroke="midnightblue" d="M72.39,-432C61.13,-432 50.07,-432 41.15,-432"/>
<polygon fill="midnightblue" stroke="midnightblue" points="72.73,-435.5 82.73,-432 72.73,-428.5 72.73,-435.5"/>
</g>
<!-- Node12&#45;&gt;Node10 -->
<g id="edge13" class="edge">
<title>Node12&#45;&gt;Node10</title>
<path fill="none" stroke="midnightblue" d="M92.81,-407.03C75.54,-413.07 55.7,-420.02 41.34,-425.05"/>
<polygon fill="midnightblue" stroke="midnightblue" points="94.34,-410.2 102.62,-403.59 92.03,-403.59 94.34,-410.2"/>
</g>
<!-- Node14 -->
<g id="node14" class="node">
<title>Node14</title>
<g id="a_node14"><a xlink:href="test__forcetree_8c.html#aed3b73edb24afea6557f88ec09fd00e4" target="_top" xlink:title=" ">
<polygon fill="white" stroke="black" points="1191,-403.5 1191,-422.5 1286,-422.5 1286,-403.5 1191,-403.5"/>
<text text-anchor="middle" x="1238.5" y="-410.5" font-family="Helvetica,sans-Serif" font-size="10.00">do_random_test</text>
</a>
</g>
</g>
<!-- Node13&#45;&gt;Node14 -->
<g id="edge15" class="edge">
<title>Node13&#45;&gt;Node14</title>
<path fill="none" stroke="midnightblue" d="M1369,-369.22C1353.07,-375.45 1333.63,-382.86 1316,-389 1301.54,-394.04 1285.38,-399.18 1271.66,-403.4"/>
<polygon fill="midnightblue" stroke="midnightblue" points="1370.4,-372.43 1378.42,-365.5 1367.83,-365.91 1370.4,-372.43"/>
</g>
<!-- Node17 -->
<g id="node17" class="node">
<title>Node17</title>
<g id="a_node17"><a xlink:href="test__forcetree_8c.html#a5e0c9730fb489959495ce5b37dd34676" target="_top" xlink:title=" ">
<polygon fill="white" stroke="black" points="1013,-365.5 1013,-384.5 1118,-384.5 1118,-365.5 1013,-365.5"/>
<text text-anchor="middle" x="1065.5" y="-372.5" font-family="Helvetica,sans-Serif" font-size="10.00">test_rebuild_close</text>
</a>
</g>
</g>
<!-- Node13&#45;&gt;Node17 -->
<g id="edge18" class="edge">
<title>Node13&#45;&gt;Node17</title>
<path fill="none" stroke="midnightblue" d="M1354.13,-358.71C1291.63,-362.25 1182.64,-368.42 1118.27,-372.07"/>
<polygon fill="midnightblue" stroke="midnightblue" points="1354.7,-362.18 1364.49,-358.12 1354.31,-355.2 1354.7,-362.18"/>
</g>
<!-- Node18 -->
<g id="node18" class="node">
<title>Node18</title>
<g id="a_node18"><a xlink:href="test__forcetree_8c.html#a080b6db3c2228926f1fd3ec9e5f66eb2" target="_top" xlink:title=" ">
<polygon fill="white" stroke="black" points="1018,-327.5 1018,-346.5 1113,-346.5 1113,-327.5 1018,-327.5"/>
<text text-anchor="middle" x="1065.5" y="-334.5" font-family="Helvetica,sans-Serif" font-size="10.00">test_rebuild_flat</text>
</a>
</g>
</g>
<!-- Node13&#45;&gt;Node18 -->
<g id="edge20" class="edge">
<title>Node13&#45;&gt;Node18</title>
<path fill="none" stroke="midnightblue" d="M1354.25,-353.3C1290.08,-349.66 1176.74,-343.24 1113.14,-339.64"/>
<polygon fill="midnightblue" stroke="midnightblue" points="1354.31,-356.8 1364.49,-353.88 1354.7,-349.82 1354.31,-356.8"/>
</g>
<!-- Node15 -->
<g id="node15" class="node">
<title>Node15</title>
<g id="a_node15"><a xlink:href="test__forcetree_8c.html#afc70bf685cb49e5182a1a8d50564373a" target="_top" xlink:title=" ">
<polygon fill="white" stroke="black" points="1007,-403.5 1007,-422.5 1124,-422.5 1124,-403.5 1007,-403.5"/>
<text text-anchor="middle" x="1065.5" y="-410.5" font-family="Helvetica,sans-Serif" font-size="10.00">test_rebuild_random</text>
</a>
</g>
</g>
<!-- Node14&#45;&gt;Node15 -->
<g id="edge16" class="edge">
<title>Node14&#45;&gt;Node15</title>
<path fill="none" stroke="midnightblue" d="M1180.63,-413C1162.47,-413 1142.37,-413 1124.15,-413"/>
<polygon fill="midnightblue" stroke="midnightblue" points="1180.77,-416.5 1190.77,-413 1180.77,-409.5 1180.77,-416.5"/>
</g>
<!-- Node16 -->
<g id="node16" class="node">
<title>Node16</title>
<g id="a_node16"><a xlink:href="test__forcetree_8c.html#a840291bc02cba5474a4cb46a9b9566fe" target="_top" xlink:title=" ">
<polygon fill="white" stroke="black" points="878,-403.5 878,-422.5 919,-422.5 919,-403.5 878,-403.5"/>
<text text-anchor="middle" x="898.5" y="-410.5" font-family="Helvetica,sans-Serif" font-size="10.00">main</text>
</a>
</g>
</g>
<!-- Node15&#45;&gt;Node16 -->
<g id="edge17" class="edge">
<title>Node15&#45;&gt;Node16</title>
<path fill="none" stroke="midnightblue" d="M996.64,-413C968.72,-413 938.49,-413 919.3,-413"/>
<polygon fill="midnightblue" stroke="midnightblue" points="996.79,-416.5 1006.79,-413 996.79,-409.5 996.79,-416.5"/>
</g>
<!-- Node17&#45;&gt;Node16 -->
<g id="edge19" class="edge">
<title>Node17&#45;&gt;Node16</title>
<path fill="none" stroke="midnightblue" d="M1012.82,-386.9C981.03,-394.22 942.1,-403.19 919.14,-408.48"/>
<polygon fill="midnightblue" stroke="midnightblue" points="1013.9,-390.24 1022.86,-384.59 1012.33,-383.42 1013.9,-390.24"/>
</g>
<!-- Node18&#45;&gt;Node16 -->
<g id="edge21" class="edge">
<title>Node18&#45;&gt;Node16</title>
<path fill="none" stroke="midnightblue" d="M1017.53,-350.24C1013.53,-351.97 1009.63,-353.88 1006,-356 987.25,-366.94 988.67,-377.93 970,-389 954.09,-398.43 933.96,-404.81 919.29,-408.61"/>
<polygon fill="midnightblue" stroke="midnightblue" points="1018.92,-353.45 1026.96,-346.55 1016.37,-346.94 1018.92,-353.45"/>
</g>
<!-- Node20 -->
<g id="node20" class="node">
<title>Node20</title>
<g id="a_node20"><a xlink:href="run_8c.html#aee4609880c9e92e1c421c4bd238589fd" target="_top" xlink:title=" ">
<polygon fill="white" stroke="black" points="378,-38.5 378,-57.5 428,-57.5 428,-38.5 378,-38.5"/>
<text text-anchor="middle" x="403" y="-45.5" font-family="Helvetica,sans-Serif" font-size="10.00">begrun</text>
</a>
</g>
</g>
<!-- Node19&#45;&gt;Node20 -->
<g id="edge23" class="edge">
<title>Node19&#45;&gt;Node20</title>
<path fill="none" stroke="midnightblue" d="M700.25,-48C639.83,-48 487.52,-48 428.19,-48"/>
<polygon fill="midnightblue" stroke="midnightblue" points="700.42,-51.5 710.42,-48 700.42,-44.5 700.42,-51.5"/>
</g>
<!-- Node21 -->
<g id="node21" class="node">
<title>Node21</title>
<g id="a_node21"><a xlink:href="gadget_2main_8c.html#a3c04138a5bfe5d72780bb7e82a18e627" target="_top" xlink:title=" ">
<polygon fill="white" stroke="black" points="110.5,-114.5 110.5,-133.5 151.5,-133.5 151.5,-114.5 110.5,-114.5"/>
<text text-anchor="middle" x="131" y="-121.5" font-family="Helvetica,sans-Serif" font-size="10.00">main</text>
</a>
</g>
</g>
<!-- Node20&#45;&gt;Node21 -->
<g id="edge24" class="edge">
<title>Node20&#45;&gt;Node21</title>
<path fill="none" stroke="midnightblue" d="M367.5,-46.96C330.3,-46.89 269.85,-49.88 221,-67 190.18,-77.8 159.19,-101.14 143.17,-114.36"/>
<polygon fill="midnightblue" stroke="midnightblue" points="367.77,-50.46 377.81,-47.06 367.84,-43.46 367.77,-50.46"/>
</g>
<!-- Node23 -->
<g id="node23" class="node">
<title>Node23</title>
<g id="a_node23"><a xlink:href="exchange_8c.html#a53d0a94330418e30dfb76f468cfc1483" target="_top" xlink:title=" ">
<polygon fill="white" stroke="black" points="1161,-232.5 1161,-251.5 1316,-251.5 1316,-232.5 1161,-232.5"/>
<text text-anchor="middle" x="1238.5" y="-239.5" font-family="Helvetica,sans-Serif" font-size="10.00">domain_build_exchange_list</text>
</a>
</g>
</g>
<!-- Node22&#45;&gt;Node23 -->
<g id="edge26" class="edge">
<title>Node22&#45;&gt;Node23</title>
<path fill="none" stroke="midnightblue" d="M1365.14,-286.07C1335.24,-275.58 1293.77,-261.04 1266.79,-251.57"/>
<polygon fill="midnightblue" stroke="midnightblue" points="1364.21,-289.45 1374.8,-289.46 1366.52,-282.85 1364.21,-289.45"/>
</g>
<!-- Node43 -->
<g id="node43" class="node">
<title>Node43</title>
<g id="a_node43"><a xlink:href="drift_8c.html#a5dc18d2303c140777f7f219b21d0f00b" target="_top" xlink:title=" ">
<polygon fill="white" stroke="black" points="1015,-289.5 1015,-308.5 1116,-308.5 1116,-289.5 1015,-289.5"/>
<text text-anchor="middle" x="1065.5" y="-296.5" font-family="Helvetica,sans-Serif" font-size="10.00">drift_all_particles</text>
</a>
</g>
</g>
<!-- Node22&#45;&gt;Node43 -->
<g id="edge59" class="edge">
<title>Node22&#45;&gt;Node43</title>
<path fill="none" stroke="midnightblue" d="M1341.76,-299C1277.33,-299 1176.33,-299 1116.25,-299"/>
<polygon fill="midnightblue" stroke="midnightblue" points="1341.77,-302.5 1351.77,-299 1341.77,-295.5 1341.77,-302.5"/>
</g>
<!-- Node24 -->
<g id="node24" class="node">
<title>Node24</title>
<g id="a_node24"><a xlink:href="exchange_8c.html#af794ce127bda2ca9ae13900960db03b0" target="_top" xlink:title=" ">
<polygon fill="white" stroke="black" points="1012.5,-212.5 1012.5,-231.5 1118.5,-231.5 1118.5,-212.5 1012.5,-212.5"/>
<text text-anchor="middle" x="1065.5" y="-219.5" font-family="Helvetica,sans-Serif" font-size="10.00">domain_exchange</text>
</a>
</g>
</g>
<!-- Node23&#45;&gt;Node24 -->
<g id="edge27" class="edge">
<title>Node23&#45;&gt;Node24</title>
<path fill="none" stroke="midnightblue" d="M1150.5,-231.82C1139.59,-230.55 1128.72,-229.28 1118.59,-228.09"/>
<polygon fill="midnightblue" stroke="midnightblue" points="1150.17,-235.31 1160.5,-232.99 1150.98,-228.36 1150.17,-235.31"/>
</g>
<!-- Node25 -->
<g id="node25" class="node">
<title>Node25</title>
<g id="a_node25"><a xlink:href="domain_8c.html#a60c51b92b4bd66165bb14fab993da4f0" target="_top" xlink:title=" ">
<polygon fill="white" stroke="black" points="490,-114.5 490,-133.5 626,-133.5 626,-114.5 490,-114.5"/>
<text text-anchor="middle" x="558" y="-121.5" font-family="Helvetica,sans-Serif" font-size="10.00">domain_decompose_full</text>
</a>
</g>
</g>
<!-- Node24&#45;&gt;Node25 -->
<g id="edge28" class="edge">
<title>Node24&#45;&gt;Node25</title>
<path fill="none" stroke="midnightblue" d="M1055.88,-202.95C1042.19,-175.36 1012.62,-125.36 970,-105 838.03,-41.95 654.25,-91.91 585.95,-114.44"/>
<polygon fill="midnightblue" stroke="midnightblue" points="1052.88,-204.8 1060.34,-212.32 1059.2,-201.79 1052.88,-204.8"/>
</g>
<!-- Node26 -->
<g id="node26" class="node">
<title>Node26</title>
<g id="a_node26"><a xlink:href="domain_8c.html#ab9d61207bd4c34d7cae1fd42a2c3a4c0" target="_top" xlink:title=" ">
<polygon fill="white" stroke="black" points="352,-266.5 352,-285.5 454,-285.5 454,-266.5 352,-266.5"/>
<text text-anchor="middle" x="403" y="-273.5" font-family="Helvetica,sans-Serif" font-size="10.00">domain_maintain</text>
</a>
</g>
</g>
<!-- Node24&#45;&gt;Node26 -->
<g id="edge44" class="edge">
<title>Node24&#45;&gt;Node26</title>
<path fill="none" stroke="midnightblue" d="M1047.14,-239.05C1035.46,-250.56 1019.74,-266.13 1006,-280 989.85,-296.3 991.14,-308.07 970,-317 775.77,-399.02 510.75,-315.26 429.02,-285.57"/>
<polygon fill="midnightblue" stroke="midnightblue" points="1049.84,-241.31 1054.51,-231.8 1044.93,-236.32 1049.84,-241.31"/>
</g>
<!-- Node34 -->
<g id="node34" class="node">
<title>Node34</title>
<g id="a_node34"><a xlink:href="fofpetaio_8c.html#acabb6e5f5905a3e5fea38a30142fa243" target="_top" xlink:title=" ">
<polygon fill="white" stroke="black" points="827,-114.5 827,-133.5 970,-133.5 970,-114.5 827,-114.5"/>
<text text-anchor="middle" x="898.5" y="-121.5" font-family="Helvetica,sans-Serif" font-size="10.00">fof_try_particle_exchange</text>
</a>
</g>
</g>
<!-- Node24&#45;&gt;Node34 -->
<g id="edge45" class="edge">
<title>Node24&#45;&gt;Node34</title>
<path fill="none" stroke="midnightblue" d="M1048.68,-204.96C1031.11,-187.02 1001.09,-159.18 970,-143 962.69,-139.2 954.55,-136.1 946.47,-133.6"/>
<polygon fill="midnightblue" stroke="midnightblue" points="1046.39,-207.63 1055.84,-212.43 1051.44,-202.79 1046.39,-207.63"/>
</g>
<!-- Node38 -->
<g id="node38" class="node">
<title>Node38</title>
<g id="a_node38"><a xlink:href="test__exchange_8c.html#aa548e32f4f20f4c89a239183d56a4ab6" target="_top" xlink:title=" ">
<polygon fill="white" stroke="black" points="854.5,-190.5 854.5,-209.5 942.5,-209.5 942.5,-190.5 854.5,-190.5"/>
<text text-anchor="middle" x="898.5" y="-197.5" font-family="Helvetica,sans-Serif" font-size="10.00">test_exchange</text>
</a>
</g>
</g>
<!-- Node24&#45;&gt;Node38 -->
<g id="edge51" class="edge">
<title>Node24&#45;&gt;Node38</title>
<path fill="none" stroke="midnightblue" d="M1002.36,-213.71C982.42,-211.06 960.79,-208.17 942.53,-205.74"/>
<polygon fill="midnightblue" stroke="midnightblue" points="1001.92,-217.19 1012.29,-215.04 1002.84,-210.25 1001.92,-217.19"/>
</g>
<!-- Node40 -->
<g id="node40" class="node">
<title>Node40</title>
<g id="a_node40"><a xlink:href="test__exchange_8c.html#a221a6d329379702a0dcb30a7cbf3f747" target="_top" xlink:title=" ">
<polygon fill="white" stroke="black" points="834,-152.5 834,-171.5 963,-171.5 963,-152.5 834,-152.5"/>
<text text-anchor="middle" x="898.5" y="-159.5" font-family="Helvetica,sans-Serif" font-size="10.00">test_exchange_uneven</text>
</a>
</g>
</g>
<!-- Node24&#45;&gt;Node40 -->
<g id="edge53" class="edge">
<title>Node24&#45;&gt;Node40</title>
<path fill="none" stroke="midnightblue" d="M1035.25,-207.99C1016.8,-199.49 992.32,-188.8 970,-181 960.07,-177.53 949.17,-174.31 938.97,-171.55"/>
<polygon fill="midnightblue" stroke="midnightblue" points="1034.02,-211.28 1044.56,-212.33 1036.98,-204.93 1034.02,-211.28"/>
</g>
<!-- Node41 -->
<g id="node41" class="node">
<title>Node41</title>
<g id="a_node41"><a xlink:href="test__exchange_8c.html#a594543f6c1cc69b9d561ea361393e543" target="_top" xlink:title=" ">
<polygon fill="white" stroke="black" points="841.5,-278 841.5,-308 955.5,-308 955.5,-278 841.5,-278"/>
<text text-anchor="start" x="849.5" y="-296" font-family="Helvetica,sans-Serif" font-size="10.00">test_exchange_with</text>
<text text-anchor="middle" x="898.5" y="-285" font-family="Helvetica,sans-Serif" font-size="10.00">_garbage</text>
</a>
</g>
</g>
<!-- Node24&#45;&gt;Node41 -->
<g id="edge55" class="edge">
<title>Node24&#45;&gt;Node41</title>
<path fill="none" stroke="midnightblue" d="M1037.21,-236.29C1018.54,-245.82 993.07,-258.33 970,-268 961.86,-271.41 953.06,-274.78 944.54,-277.88"/>
<polygon fill="midnightblue" stroke="midnightblue" points="1039.02,-239.3 1046.31,-231.61 1035.82,-233.07 1039.02,-239.3"/>
</g>
<!-- Node42 -->
<g id="node42" class="node">
<title>Node42</title>
<g id="a_node42"><a xlink:href="test__exchange_8c.html#aa6c198b4deff62a79f30e1b7a1d19025" target="_top" xlink:title=" ">
<polygon fill="white" stroke="black" points="841.5,-229 841.5,-259 955.5,-259 955.5,-229 841.5,-229"/>
<text text-anchor="start" x="849.5" y="-247" font-family="Helvetica,sans-Serif" font-size="10.00">test_exchange_zero</text>
<text text-anchor="middle" x="898.5" y="-236" font-family="Helvetica,sans-Serif" font-size="10.00">_slots</text>
</a>
</g>
</g>
<!-- Node24&#45;&gt;Node42 -->
<g id="edge57" class="edge">
<title>Node24&#45;&gt;Node42</title>
<path fill="none" stroke="midnightblue" d="M1002.38,-230.28C987.04,-232.33 970.69,-234.51 955.65,-236.51"/>
<polygon fill="midnightblue" stroke="midnightblue" points="1002.84,-233.75 1012.29,-228.96 1001.92,-226.81 1002.84,-233.75"/>
</g>
<!-- Node25&#45;&gt;Node7 -->
<g id="edge30" class="edge">
<title>Node25&#45;&gt;Node7</title>
<path fill="none" stroke="midnightblue" d="M532.81,-139.42C518.52,-149.65 501.12,-164.24 490,-181 460.62,-225.27 471.11,-244.7 454,-295 437.61,-343.18 416.13,-400.16 407.66,-422.42"/>
<polygon fill="midnightblue" stroke="midnightblue" points="534.96,-142.19 541.21,-133.63 530.99,-136.42 534.96,-142.19"/>
</g>
<!-- Node25&#45;&gt;Node20 -->
<g id="edge29" class="edge">
<title>Node25&#45;&gt;Node20</title>
<path fill="none" stroke="midnightblue" d="M532.6,-109.2C512.05,-97.06 481.65,-79.83 454,-67 445.74,-63.17 436.48,-59.49 428.19,-56.4"/>
<polygon fill="midnightblue" stroke="midnightblue" points="530.93,-112.28 541.31,-114.39 534.51,-106.27 530.93,-112.28"/>
</g>
<!-- Node25&#45;&gt;Node26 -->
<g id="edge31" class="edge">
<title>Node25&#45;&gt;Node26</title>
<path fill="none" stroke="midnightblue" d="M534.13,-139.59C520.05,-150.05 502.39,-164.84 490,-181 467.26,-210.66 481.45,-231.64 454,-257 449.84,-260.84 444.82,-263.93 439.59,-266.41"/>
<polygon fill="midnightblue" stroke="midnightblue" points="536.28,-142.35 542.35,-133.66 532.19,-136.67 536.28,-142.35"/>
</g>
<!-- Node27 -->
<g id="node27" class="node">
<title>Node27</title>
<g id="a_node27"><a xlink:href="run_8c.html#a89690448ef43a8d624b963382b7503ed" target="_top" xlink:title=" ">
<polygon fill="white" stroke="black" points="252.5,-228.5 252.5,-247.5 284.5,-247.5 284.5,-228.5 252.5,-228.5"/>
<text text-anchor="middle" x="268.5" y="-235.5" font-family="Helvetica,sans-Serif" font-size="10.00">run</text>
</a>
</g>
</g>
<!-- Node25&#45;&gt;Node27 -->
<g id="edge34" class="edge">
<title>Node25&#45;&gt;Node27</title>
<path fill="none" stroke="midnightblue" d="M523.6,-137.24C461.28,-161.95 329.55,-214.19 284.77,-231.95"/>
<polygon fill="midnightblue" stroke="midnightblue" points="524.98,-140.46 532.98,-133.52 522.4,-133.96 524.98,-140.46"/>
</g>
<!-- Node28 -->
<g id="node28" class="node">
<title>Node28</title>
<g id="a_node28"><a xlink:href="run_8h.html#aa438e424237818b7728b98cd764e45d1" target="_top" xlink:title=" ">
<polygon fill="white" stroke="black" points="355,-76.5 355,-95.5 451,-95.5 451,-76.5 355,-76.5"/>
<text text-anchor="middle" x="403" y="-83.5" font-family="Helvetica,sans-Serif" font-size="10.00">run_gravity_test</text>
</a>
</g>
</g>
<!-- Node25&#45;&gt;Node28 -->
<g id="edge35" class="edge">
<title>Node25&#45;&gt;Node28</title>
<path fill="none" stroke="midnightblue" d="M508.52,-111.96C487.15,-106.65 462.39,-100.5 442.33,-95.52"/>
<polygon fill="midnightblue" stroke="midnightblue" points="507.84,-115.4 518.39,-114.41 509.53,-108.6 507.84,-115.4"/>
</g>
<!-- Node30 -->
<g id="node30" class="node">
<title>Node30</title>
<g id="a_node30"><a xlink:href="run_8c.html#a02ef4c629cc0fea15dce527f09ea672f" target="_top" xlink:title=" ">
<polygon fill="white" stroke="black" points="245.5,-152.5 245.5,-171.5 291.5,-171.5 291.5,-152.5 245.5,-152.5"/>
<text text-anchor="middle" x="268.5" y="-159.5" font-family="Helvetica,sans-Serif" font-size="10.00">runfof</text>
</a>
</g>
</g>
<!-- Node25&#45;&gt;Node30 -->
<g id="edge38" class="edge">
<title>Node25&#45;&gt;Node30</title>
<path fill="none" stroke="midnightblue" d="M499.64,-135.42C484.81,-138.14 468.84,-140.87 454,-143 395.67,-151.37 326.45,-157.48 291.72,-160.29"/>
<polygon fill="midnightblue" stroke="midnightblue" points="500.51,-138.82 509.7,-133.54 499.23,-131.94 500.51,-138.82"/>
</g>
<!-- Node31 -->
<g id="node31" class="node">
<title>Node31</title>
<g id="a_node31"><a xlink:href="run_8c.html#afc20ced36c74991ca5c2004510c6c628" target="_top" xlink:title=" ">
<polygon fill="white" stroke="black" points="372,-114.5 372,-133.5 434,-133.5 434,-114.5 372,-114.5"/>
<text text-anchor="middle" x="403" y="-121.5" font-family="Helvetica,sans-Serif" font-size="10.00">runpower</text>
</a>
</g>
</g>
<!-- Node25&#45;&gt;Node31 -->
<g id="edge40" class="edge">
<title>Node25&#45;&gt;Node31</title>
<path fill="none" stroke="midnightblue" d="M479.83,-124C463.63,-124 447.47,-124 434.26,-124"/>
<polygon fill="midnightblue" stroke="midnightblue" points="479.89,-127.5 489.89,-124 479.89,-120.5 479.89,-127.5"/>
</g>
<!-- Node32 -->
<g id="node32" class="node">
<title>Node32</title>
<g id="a_node32"><a xlink:href="test__fof_8c.html#a2b2edcaa960047ba6c815956c46d82a6" target="_top" xlink:title=" ">
<polygon fill="white" stroke="black" points="376,-0.5 376,-19.5 430,-19.5 430,-0.5 376,-0.5"/>
<text text-anchor="middle" x="403" y="-7.5" font-family="Helvetica,sans-Serif" font-size="10.00">test_fof</text>
</a>
</g>
</g>
<!-- Node25&#45;&gt;Node32 -->
<g id="edge42" class="edge">
<title>Node25&#45;&gt;Node32</title>
<path fill="none" stroke="midnightblue" d="M542.01,-106.59C523.25,-85.72 489.27,-50.82 454,-29 446.66,-24.46 438.05,-20.71 430.07,-17.77"/>
<polygon fill="midnightblue" stroke="midnightblue" points="539.62,-109.17 548.86,-114.35 544.87,-104.54 539.62,-109.17"/>
</g>
<!-- Node26&#45;&gt;Node27 -->
<g id="edge32" class="edge">
<title>Node26&#45;&gt;Node27</title>
<path fill="none" stroke="midnightblue" d="M358.72,-263.59C333.2,-256.27 302.5,-247.46 284.57,-242.32"/>
<polygon fill="midnightblue" stroke="midnightblue" points="357.99,-267.02 368.56,-266.41 359.92,-260.29 357.99,-267.02"/>
</g>
<!-- Node27&#45;&gt;Node21 -->
<g id="edge33" class="edge">
<title>Node27&#45;&gt;Node21</title>
<path fill="none" stroke="midnightblue" d="M248.24,-221.79C219.63,-197.73 166.8,-153.28 143.52,-133.69"/>
<polygon fill="midnightblue" stroke="midnightblue" points="246.04,-224.52 255.95,-228.28 250.55,-219.16 246.04,-224.52"/>
</g>
<!-- Node29 -->
<g id="node29" class="node">
<title>Node29</title>
<g id="a_node29"><a xlink:href="run_8c.html#ab1d8bf99f794003fa95002043fe3b47c" target="_top" xlink:title=" ">
<polygon fill="white" stroke="black" points="240.5,-76.5 240.5,-95.5 296.5,-95.5 296.5,-76.5 240.5,-76.5"/>
<text text-anchor="middle" x="268.5" y="-83.5" font-family="Helvetica,sans-Serif" font-size="10.00">runtests</text>
</a>
</g>
</g>
<!-- Node28&#45;&gt;Node29 -->
<g id="edge36" class="edge">
<title>Node28&#45;&gt;Node29</title>
<path fill="none" stroke="midnightblue" d="M344.69,-86C328.05,-86 310.64,-86 296.77,-86"/>
<polygon fill="midnightblue" stroke="midnightblue" points="344.91,-89.5 354.91,-86 344.91,-82.5 344.91,-89.5"/>
</g>
<!-- Node29&#45;&gt;Node21 -->
<g id="edge37" class="edge">
<title>Node29&#45;&gt;Node21</title>
<path fill="none" stroke="midnightblue" d="M230.69,-96.32C205.18,-103.48 172.22,-112.72 151.59,-118.51"/>
<polygon fill="midnightblue" stroke="midnightblue" points="231.72,-99.67 240.41,-93.6 229.83,-92.93 231.72,-99.67"/>
</g>
<!-- Node30&#45;&gt;Node21 -->
<g id="edge39" class="edge">
<title>Node30&#45;&gt;Node21</title>
<path fill="none" stroke="midnightblue" d="M235.67,-153.07C209.72,-145.8 173.88,-135.74 151.86,-129.57"/>
<polygon fill="midnightblue" stroke="midnightblue" points="234.85,-156.48 245.43,-155.81 236.74,-149.74 234.85,-156.48"/>
</g>
<!-- Node31&#45;&gt;Node21 -->
<g id="edge41" class="edge">
<title>Node31&#45;&gt;Node21</title>
<path fill="none" stroke="midnightblue" d="M361.77,-124C302.99,-124 195.82,-124 151.74,-124"/>
<polygon fill="midnightblue" stroke="midnightblue" points="361.81,-127.5 371.81,-124 361.81,-120.5 361.81,-127.5"/>
</g>
<!-- Node33 -->
<g id="node33" class="node">
<title>Node33</title>
<g id="a_node33"><a xlink:href="test__fof_8c.html#a840291bc02cba5474a4cb46a9b9566fe" target="_top" xlink:title=" ">
<polygon fill="white" stroke="black" points="248,-0.5 248,-19.5 289,-19.5 289,-0.5 248,-0.5"/>
<text text-anchor="middle" x="268.5" y="-7.5" font-family="Helvetica,sans-Serif" font-size="10.00">main</text>
</a>
</g>
</g>
<!-- Node32&#45;&gt;Node33 -->
<g id="edge43" class="edge">
<title>Node32&#45;&gt;Node33</title>
<path fill="none" stroke="midnightblue" d="M365.72,-10C341.03,-10 309.29,-10 289.16,-10"/>
<polygon fill="midnightblue" stroke="midnightblue" points="365.82,-13.5 375.82,-10 365.82,-6.5 365.82,-13.5"/>
</g>
<!-- Node35 -->
<g id="node35" class="node">
<title>Node35</title>
<g id="a_node35"><a xlink:href="fofpetaio_8c.html#a1acbf084a8ae3acf80bc22e10715a5de" target="_top" xlink:title=" ">
<polygon fill="white" stroke="black" points="662,-155.5 662,-174.5 791,-174.5 791,-155.5 662,-155.5"/>
<text text-anchor="middle" x="726.5" y="-162.5" font-family="Helvetica,sans-Serif" font-size="10.00">fof_distribute_particles</text>
</a>
</g>
</g>
<!-- Node34&#45;&gt;Node35 -->
<g id="edge46" class="edge">
<title>Node34&#45;&gt;Node35</title>
<path fill="none" stroke="midnightblue" d="M848.11,-135.91C822.32,-142.13 791.18,-149.64 767.01,-155.47"/>
<polygon fill="midnightblue" stroke="midnightblue" points="849.17,-139.26 858.07,-133.51 847.53,-132.45 849.17,-139.26"/>
</g>
<!-- Node36 -->
<g id="node36" class="node">
<title>Node36</title>
<g id="a_node36"><a xlink:href="fof_8h.html#aaa985d617a622b54361bd8c756076b11" target="_top" xlink:title=" ">
<polygon fill="white" stroke="black" points="505,-190.5 505,-209.5 611,-209.5 611,-190.5 505,-190.5"/>
<text text-anchor="middle" x="558" y="-197.5" font-family="Helvetica,sans-Serif" font-size="10.00">fof_save_particles</text>
</a>
</g>
</g>
<!-- Node35&#45;&gt;Node36 -->
<g id="edge47" class="edge">
<title>Node35&#45;&gt;Node36</title>
<path fill="none" stroke="midnightblue" d="M670.11,-176.64C648.79,-181.13 624.72,-186.19 604.44,-190.45"/>
<polygon fill="midnightblue" stroke="midnightblue" points="670.94,-180.05 680,-174.56 669.5,-173.2 670.94,-180.05"/>
</g>
<!-- Node37 -->
<g id="node37" class="node">
<title>Node37</title>
<g id="a_node37"><a xlink:href="fof_8c.html#a38d0e2572ef5e373fe12edd44a94ce92" target="_top" xlink:title=" ">
<polygon fill="white" stroke="black" points="354.5,-228.5 354.5,-247.5 451.5,-247.5 451.5,-228.5 354.5,-228.5"/>
<text text-anchor="middle" x="403" y="-235.5" font-family="Helvetica,sans-Serif" font-size="10.00">fof_save_groups</text>
</a>
</g>
</g>
<!-- Node36&#45;&gt;Node37 -->
<g id="edge48" class="edge">
<title>Node36&#45;&gt;Node37</title>
<path fill="none" stroke="midnightblue" d="M508.52,-212.04C487.15,-217.35 462.39,-223.5 442.33,-228.48"/>
<polygon fill="midnightblue" stroke="midnightblue" points="509.53,-215.4 518.39,-209.59 507.84,-208.6 509.53,-215.4"/>
</g>
<!-- Node37&#45;&gt;Node27 -->
<g id="edge49" class="edge">
<title>Node37&#45;&gt;Node27</title>
<path fill="none" stroke="midnightblue" d="M343.97,-238C322.23,-238 299.29,-238 284.72,-238"/>
<polygon fill="midnightblue" stroke="midnightblue" points="344.16,-241.5 354.16,-238 344.16,-234.5 344.16,-241.5"/>
</g>
<!-- Node37&#45;&gt;Node30 -->
<g id="edge50" class="edge">
<title>Node37&#45;&gt;Node30</title>
<path fill="none" stroke="midnightblue" d="M376.45,-223.35C349.82,-208.07 308.87,-184.58 286.14,-171.55"/>
<polygon fill="midnightblue" stroke="midnightblue" points="374.8,-226.44 385.22,-228.37 378.29,-220.36 374.8,-226.44"/>
</g>
<!-- Node39 -->
<g id="node39" class="node">
<title>Node39</title>
<g id="a_node39"><a xlink:href="test__exchange_8c.html#a840291bc02cba5474a4cb46a9b9566fe" target="_top" xlink:title=" ">
<polygon fill="white" stroke="black" points="706,-212.5 706,-231.5 747,-231.5 747,-212.5 706,-212.5"/>
<text text-anchor="middle" x="726.5" y="-219.5" font-family="Helvetica,sans-Serif" font-size="10.00">main</text>
</a>
</g>
</g>
<!-- Node38&#45;&gt;Node39 -->
<g id="edge52" class="edge">
<title>Node38&#45;&gt;Node39</title>
<path fill="none" stroke="midnightblue" d="M844.19,-206.9C811.18,-211.17 770.75,-216.4 747.18,-219.45"/>
<polygon fill="midnightblue" stroke="midnightblue" points="844.69,-210.36 854.16,-205.61 843.8,-203.42 844.69,-210.36"/>
</g>
<!-- Node40&#45;&gt;Node39 -->
<g id="edge54" class="edge">
<title>Node40&#45;&gt;Node39</title>
<path fill="none" stroke="midnightblue" d="M848.62,-174.3C841.32,-176.39 833.93,-178.65 827,-181 798.69,-190.6 766.9,-204.22 747.04,-213.08"/>
<polygon fill="midnightblue" stroke="midnightblue" points="849.75,-177.62 858.45,-171.57 847.87,-170.88 849.75,-177.62"/>
</g>
<!-- Node41&#45;&gt;Node39 -->
<g id="edge56" class="edge">
<title>Node41&#45;&gt;Node39</title>
<path fill="none" stroke="midnightblue" d="M843.5,-274.43C837.9,-272.33 832.32,-270.17 827,-268 798.62,-256.44 766.59,-241.23 746.71,-231.53"/>
<polygon fill="midnightblue" stroke="midnightblue" points="842.29,-277.71 852.89,-277.88 844.71,-271.14 842.29,-277.71"/>
</g>
<!-- Node42&#45;&gt;Node39 -->
<g id="edge58" class="edge">
<title>Node42&#45;&gt;Node39</title>
<path fill="none" stroke="midnightblue" d="M831.29,-235.43C801.14,-231.53 767.66,-227.2 747.09,-224.54"/>
<polygon fill="midnightblue" stroke="midnightblue" points="831,-238.92 841.36,-236.74 831.9,-231.98 831,-238.92"/>
</g>
<!-- Node43&#45;&gt;Node27 -->
<g id="edge60" class="edge">
<title>Node43&#45;&gt;Node27</title>
<path fill="none" stroke="midnightblue" d="M1018.32,-312.14C1014.06,-313.9 1009.89,-315.85 1006,-318 987.77,-328.07 989.16,-339.84 970,-348 870.24,-390.51 835.94,-375 727.5,-375 727.5,-375 727.5,-375 557,-375 438.4,-375 316.71,-278.82 280.37,-247.63"/>
<polygon fill="midnightblue" stroke="midnightblue" points="1019.6,-315.4 1027.71,-308.58 1017.12,-308.85 1019.6,-315.4"/>
</g>
<!-- Node44&#45;&gt;Node32 -->
<g id="edge62" class="edge">
<title>Node44&#45;&gt;Node32</title>
<path fill="none" stroke="midnightblue" d="M502.08,-10C477.63,-10 449.98,-10 430.28,-10"/>
<polygon fill="midnightblue" stroke="midnightblue" points="502.33,-13.5 512.33,-10 502.33,-6.5 502.33,-13.5"/>
</g>
</g>
</svg>
