<?xml version="1.0" encoding="UTF-8" standalone="no"?>
<!DOCTYPE svg PUBLIC "-//W3C//DTD SVG 1.1//EN"
 "http://www.w3.org/Graphics/SVG/1.1/DTD/svg11.dtd">
<!-- Generated by graphviz version 2.38.0 (20140413.2041)
 -->
<!-- Title: peano.c Pages: 1 -->
<svg width="257pt" height="228pt"
 viewBox="0.00 0.00 256.56 227.56" xmlns="http://www.w3.org/2000/svg" xmlns:xlink="http://www.w3.org/1999/xlink">
<g id="graph0" class="graph" transform="scale(1 1) rotate(0) translate(4 223.558)">
<title>peano.c</title>
<polygon fill="white" stroke="none" points="-4,4 -4,-223.558 252.558,-223.558 252.558,4 -4,4"/>
<!-- Node0 -->
<g id="node1" class="node"><title>Node0</title>
<polygon fill="#bfbfbf" stroke="black" points="65.5193,-133.539 65.5193,-152.539 116.519,-152.539 116.519,-133.539 65.5193,-133.539"/>
<text text-anchor="middle" x="91.0193" y="-140.539" font-family="Helvetica,sans-Serif" font-size="10.00">peano.c</text>
</g>
<!-- Node1 -->
<g id="node2" class="node"><title>Node1</title>
<polygon fill="white" stroke="#bfbfbf" points="137.039,-161.092 137.039,-180.092 178.039,-180.092 178.039,-161.092 137.039,-161.092"/>
<text text-anchor="middle" x="157.539" y="-168.092" font-family="Helvetica,sans-Serif" font-size="10.00">mpi.h</text>
</g>
<!-- Node0&#45;&gt;Node1 -->
<g id="edge1" class="edge"><title>Node0&#45;&gt;Node1</title>
<path fill="none" stroke="midnightblue" d="M114.285,-152.675C118.53,-154.434 123.015,-156.292 127.425,-158.118"/>
<polygon fill="midnightblue" stroke="midnightblue" points="126.261,-161.425 136.839,-162.018 128.94,-154.957 126.261,-161.425"/>
</g>
<!-- Node2 -->
<g id="node3" class="node"><title>Node2</title>
<polygon fill="white" stroke="#bfbfbf" points="95.5725,-200.058 95.5725,-219.058 141.573,-219.058 141.573,-200.058 95.5725,-200.058"/>
<text text-anchor="middle" x="118.573" y="-207.058" font-family="Helvetica,sans-Serif" font-size="10.00">stdio.h</text>
</g>
<!-- Node0&#45;&gt;Node2 -->
<g id="edge2" class="edge"><title>Node0&#45;&gt;Node2</title>
<path fill="none" stroke="midnightblue" d="M94.967,-152.569C99.0591,-162.448 105.565,-178.156 110.712,-190.58"/>
<polygon fill="midnightblue" stroke="midnightblue" points="107.572,-192.146 114.632,-200.045 114.039,-189.467 107.572,-192.146"/>
</g>
<!-- Node3 -->
<g id="node4" class="node"><title>Node3</title>
<polygon fill="white" stroke="#bfbfbf" points="39.4661,-200.058 39.4661,-219.058 87.4661,-219.058 87.4661,-200.058 39.4661,-200.058"/>
<text text-anchor="middle" x="63.4661" y="-207.058" font-family="Helvetica,sans-Serif" font-size="10.00">stdlib.h</text>
</g>
<!-- Node0&#45;&gt;Node3 -->
<g id="edge3" class="edge"><title>Node0&#45;&gt;Node3</title>
<path fill="none" stroke="midnightblue" d="M87.0716,-152.569C82.9795,-162.448 76.4734,-178.156 71.3269,-190.58"/>
<polygon fill="midnightblue" stroke="midnightblue" points="67.9998,-189.467 67.4065,-200.045 74.467,-192.146 67.9998,-189.467"/>
</g>
<!-- Node4 -->
<g id="node5" class="node"><title>Node4</title>
<polygon fill="white" stroke="#bfbfbf" points="-7.10543e-15,-161.092 -7.10543e-15,-180.092 49,-180.092 49,-161.092 -7.10543e-15,-161.092"/>
<text text-anchor="middle" x="24.5" y="-168.092" font-family="Helvetica,sans-Serif" font-size="10.00">string.h</text>
</g>
<!-- Node0&#45;&gt;Node4 -->
<g id="edge4" class="edge"><title>Node0&#45;&gt;Node4</title>
<path fill="none" stroke="midnightblue" d="M67.7541,-152.675C64.3307,-154.093 60.7516,-155.576 57.1813,-157.055"/>
<polygon fill="midnightblue" stroke="midnightblue" points="55.7639,-153.853 47.8645,-160.914 58.4428,-160.321 55.7639,-153.853"/>
</g>
<!-- Node5 -->
<g id="node6" class="node"><title>Node5</title>
<polygon fill="white" stroke="#bfbfbf" points="1,-105.985 1,-124.985 48,-124.985 48,-105.985 1,-105.985"/>
<text text-anchor="middle" x="24.5" y="-112.985" font-family="Helvetica,sans-Serif" font-size="10.00">math.h</text>
</g>
<!-- Node0&#45;&gt;Node5 -->
<g id="edge5" class="edge"><title>Node0&#45;&gt;Node5</title>
<path fill="none" stroke="midnightblue" d="M67.7541,-133.402C64.3307,-131.984 60.7516,-130.501 57.1813,-129.022"/>
<polygon fill="midnightblue" stroke="midnightblue" points="58.4428,-125.757 47.8645,-125.163 55.7639,-132.224 58.4428,-125.757"/>
</g>
<!-- Node6 -->
<g id="node7" class="node"><title>Node6</title>
<polygon fill="white" stroke="#bfbfbf" points="15.4661,-67.0193 15.4661,-86.0193 111.466,-86.0193 111.466,-67.0193 15.4661,-67.0193"/>
<text text-anchor="middle" x="63.4661" y="-74.0193" font-family="Helvetica,sans-Serif" font-size="10.00">gsl/gsl_heapsort.h</text>
</g>
<!-- Node0&#45;&gt;Node6 -->
<g id="edge6" class="edge"><title>Node0&#45;&gt;Node6</title>
<path fill="none" stroke="midnightblue" d="M87.0716,-133.508C82.9795,-123.629 76.4734,-107.922 71.3269,-95.4969"/>
<polygon fill="midnightblue" stroke="midnightblue" points="74.467,-93.9316 67.4065,-86.0322 67.9998,-96.6105 74.467,-93.9316"/>
</g>
<!-- Node7 -->
<g id="node8" class="node"><title>Node7</title>
<g id="a_node8"><a xlink:href="peano_8h.html" target="_top" xlink:title="peano.h">
<polygon fill="white" stroke="black" points="116.431,-82.627 116.431,-101.627 167.431,-101.627 167.431,-82.627 116.431,-82.627"/>
<text text-anchor="middle" x="141.931" y="-89.627" font-family="Helvetica,sans-Serif" font-size="10.00">peano.h</text>
</a>
</g>
</g>
<!-- Node0&#45;&gt;Node7 -->
<g id="edge7" class="edge"><title>Node0&#45;&gt;Node7</title>
<path fill="none" stroke="midnightblue" d="M100.836,-133.222C107.597,-126.461 116.762,-117.296 124.721,-109.337"/>
<polygon fill="midnightblue" stroke="midnightblue" points="127.549,-111.459 132.145,-101.913 122.599,-106.509 127.549,-111.459"/>
</g>
<!-- Node8 -->
<g id="node9" class="node"><title>Node8</title>
<polygon fill="white" stroke="#bfbfbf" points="120.126,-0.5 120.126,-19.5 172.126,-19.5 172.126,-0.5 120.126,-0.5"/>
<text text-anchor="middle" x="146.126" y="-7.5" font-family="Helvetica,sans-Serif" font-size="10.00">stddef.h</text>
</g>
<!-- Node7&#45;&gt;Node8 -->
<g id="edge8" class="edge"><title>Node7&#45;&gt;Node8</title>
<path fill="none" stroke="midnightblue" d="M142.429,-82.3834C143.085,-69.541 144.255,-46.6361 145.103,-30.0247"/>
<polygon fill="midnightblue" stroke="midnightblue" points="148.614,-29.8964 145.629,-19.7309 141.623,-29.5393 148.614,-29.8964"/>
</g>
<!-- Node9 -->
<g id="node10" class="node"><title>Node9</title>
<polygon fill="white" stroke="#bfbfbf" points="199.558,-78.4322 199.558,-97.4322 248.558,-97.4322 248.558,-78.4322 199.558,-78.4322"/>
<text text-anchor="middle" x="224.058" y="-85.4322" font-family="Helvetica,sans-Serif" font-size="10.00">stdint.h</text>
</g>
<!-- Node7&#45;&gt;Node9 -->
<g id="edge9" class="edge"><title>Node7&#45;&gt;Node9</title>
<path fill="none" stroke="midnightblue" d="M167.466,-90.8227C174.379,-90.4696 181.981,-90.0814 189.308,-89.7072"/>
<polygon fill="midnightblue" stroke="midnightblue" points="189.574,-93.1982 199.382,-89.1926 189.217,-86.2073 189.574,-93.1982"/>
</g>
</g>
</svg>
