<?xml version="1.0" encoding="UTF-8" standalone="no"?>
<!DOCTYPE svg PUBLIC "-//W3C//DTD SVG 1.1//EN"
 "http://www.w3.org/Graphics/SVG/1.1/DTD/svg11.dtd">
<!-- Generated by graphviz version 2.50.0 (0)
 -->
<!-- Title: libgadget/utils/peano.h Pages: 1 -->
<svg width="3515pt" height="475pt"
 viewBox="0.00 0.00 3515.50 475.00" xmlns="http://www.w3.org/2000/svg" xmlns:xlink="http://www.w3.org/1999/xlink">
<g id="graph0" class="graph" transform="scale(1 1) rotate(0) translate(4 471)">
<title>libgadget/utils/peano.h</title>
<polygon fill="white" stroke="transparent" points="-4,4 -4,-471 3511.5,-471 3511.5,4 -4,4"/>
<!-- Node1 -->
<g id="node1" class="node">
<title>Node1</title>
<g id="a_node1"><a xlink:title=" ">
<polygon fill="#bfbfbf" stroke="black" points="1488,-447.5 1488,-466.5 1616,-466.5 1616,-447.5 1488,-447.5"/>
<text text-anchor="middle" x="1552" y="-454.5" font-family="Helvetica,sans-Serif" font-size="10.00">libgadget/utils/peano.h</text>
</a>
</g>
</g>
<!-- Node2 -->
<g id="node2" class="node">
<title>Node2</title>
<g id="a_node2"><a xlink:href="domain_8c.html" target="_top" xlink:title="code for domain decomposition">
<polygon fill="white" stroke="black" points="1369,-129 1369,-148 1479,-148 1479,-129 1369,-129"/>
<text text-anchor="middle" x="1424" y="-136" font-family="Helvetica,sans-Serif" font-size="10.00">libgadget/domain.c</text>
</a>
</g>
</g>
<!-- Node1&#45;&gt;Node2 -->
<g id="edge1" class="edge">
<title>Node1&#45;&gt;Node2</title>
<path fill="none" stroke="midnightblue" d="M1477.45,-448.38C1358.49,-431.6 1130.34,-379.33 1044,-221 997.82,-136.31 1103.71,-197.5 1360,-154 1369.66,-152.36 1380.05,-150.19 1389.59,-148.02"/>
<polygon fill="midnightblue" stroke="midnightblue" points="1477.19,-451.88 1487.57,-449.76 1478.13,-444.94 1477.19,-451.88"/>
</g>
<!-- Node3 -->
<g id="node3" class="node">
<title>Node3</title>
<g id="a_node3"><a xlink:href="domain_8h.html" target="_top" xlink:title=" ">
<polygon fill="white" stroke="black" points="542.5,-196 542.5,-215 653.5,-215 653.5,-196 542.5,-196"/>
<text text-anchor="middle" x="598" y="-203" font-family="Helvetica,sans-Serif" font-size="10.00">libgadget/domain.h</text>
</a>
</g>
</g>
<!-- Node1&#45;&gt;Node3 -->
<g id="edge2" class="edge">
<title>Node1&#45;&gt;Node3</title>
<path fill="none" stroke="midnightblue" d="M1477.48,-454.38C1253.64,-448.73 598.92,-426.22 538,-355 524.87,-339.64 539.59,-277.57 550,-257 558.74,-239.73 575.31,-224.32 586.5,-215.19"/>
<polygon fill="midnightblue" stroke="midnightblue" points="1477.72,-457.89 1487.8,-454.64 1477.89,-450.89 1477.72,-457.89"/>
</g>
<!-- Node51 -->
<g id="node24" class="node">
<title>Node51</title>
<g id="a_node24"><a xlink:href="partmanager_8h.html" target="_top" xlink:title=" ">
<polygon fill="white" stroke="black" points="903.5,-391.5 903.5,-410.5 1040.5,-410.5 1040.5,-391.5 903.5,-391.5"/>
<text text-anchor="middle" x="972" y="-398.5" font-family="Helvetica,sans-Serif" font-size="10.00">libgadget/partmanager.h</text>
</a>
</g>
</g>
<!-- Node1&#45;&gt;Node51 -->
<g id="edge42" class="edge">
<title>Node1&#45;&gt;Node51</title>
<path fill="none" stroke="midnightblue" d="M1478.03,-449.11C1364.92,-438.58 1150.56,-418.62 1040.69,-408.4"/>
<polygon fill="midnightblue" stroke="midnightblue" points="1477.71,-452.6 1487.99,-450.04 1478.36,-445.63 1477.71,-452.6"/>
</g>
<!-- Node64 -->
<g id="node43" class="node">
<title>Node64</title>
<g id="a_node43"><a xlink:href="test__cooling_8c.html" target="_top" xlink:title=" ">
<polygon fill="white" stroke="black" points="1848.5,-324.5 1848.5,-354.5 1959.5,-354.5 1959.5,-324.5 1848.5,-324.5"/>
<text text-anchor="start" x="1856.5" y="-342.5" font-family="Helvetica,sans-Serif" font-size="10.00">libgadget/tests/test</text>
<text text-anchor="middle" x="1904" y="-331.5" font-family="Helvetica,sans-Serif" font-size="10.00">_cooling.c</text>
</a>
</g>
</g>
<!-- Node1&#45;&gt;Node64 -->
<g id="edge115" class="edge">
<title>Node1&#45;&gt;Node64</title>
<path fill="none" stroke="midnightblue" d="M1588.01,-444.18C1653.32,-422.75 1791.04,-377.57 1861.1,-354.58"/>
<polygon fill="midnightblue" stroke="midnightblue" points="1586.58,-440.97 1578.17,-447.41 1588.76,-447.62 1586.58,-440.97"/>
</g>
<!-- Node66 -->
<g id="node45" class="node">
<title>Node66</title>
<g id="a_node45"><a xlink:href="peano_8c.html" target="_top" xlink:title=" ">
<polygon fill="white" stroke="black" points="2707,-391.5 2707,-410.5 2835,-410.5 2835,-391.5 2707,-391.5"/>
<text text-anchor="middle" x="2771" y="-398.5" font-family="Helvetica,sans-Serif" font-size="10.00">libgadget/utils/peano.c</text>
</a>
</g>
</g>
<!-- Node1&#45;&gt;Node66 -->
<g id="edge116" class="edge">
<title>Node1&#45;&gt;Node66</title>
<path fill="none" stroke="midnightblue" d="M1626.12,-455.23C1808.65,-452.87 2294.32,-443.75 2698,-411 2700.93,-410.76 2703.92,-410.5 2706.94,-410.2"/>
<polygon fill="midnightblue" stroke="midnightblue" points="1626.05,-451.73 1616.1,-455.36 1626.14,-458.73 1626.05,-451.73"/>
</g>
<!-- Node67 -->
<g id="node46" class="node">
<title>Node67</title>
<g id="a_node46"><a xlink:href="utils_8h.html" target="_top" xlink:title=" ">
<polygon fill="white" stroke="red" points="2593.5,-391.5 2593.5,-410.5 2688.5,-410.5 2688.5,-391.5 2593.5,-391.5"/>
<text text-anchor="middle" x="2641" y="-398.5" font-family="Helvetica,sans-Serif" font-size="10.00">libgadget/utils.h</text>
</a>
</g>
</g>
<!-- Node1&#45;&gt;Node67 -->
<g id="edge117" class="edge">
<title>Node1&#45;&gt;Node67</title>
<path fill="none" stroke="midnightblue" d="M1626.29,-452.32C1834.89,-441.97 2421.9,-412.86 2593.39,-404.36"/>
<polygon fill="midnightblue" stroke="midnightblue" points="1625.87,-448.83 1616.06,-452.82 1626.22,-455.82 1625.87,-448.83"/>
</g>
<!-- Node3&#45;&gt;Node2 -->
<g id="edge3" class="edge">
<title>Node3&#45;&gt;Node2</title>
<path fill="none" stroke="midnightblue" d="M663.79,-201.47C823.13,-193.91 1226.4,-173.44 1360,-154 1370.15,-152.52 1381.07,-150.29 1390.97,-148.02"/>
<polygon fill="midnightblue" stroke="midnightblue" points="663.48,-197.98 653.66,-201.95 663.81,-204.97 663.48,-197.98"/>
</g>
<!-- Node4 -->
<g id="node4" class="node">
<title>Node4</title>
<g id="a_node4"><a xlink:href="fof_8c.html" target="_top" xlink:title="parallel FoF group finder">
<polygon fill="white" stroke="black" points="985,-0.5 985,-19.5 1071,-19.5 1071,-0.5 985,-0.5"/>
<text text-anchor="middle" x="1028" y="-7.5" font-family="Helvetica,sans-Serif" font-size="10.00">libgadget/fof.c</text>
</a>
</g>
</g>
<!-- Node3&#45;&gt;Node4 -->
<g id="edge4" class="edge">
<title>Node3&#45;&gt;Node4</title>
<path fill="none" stroke="midnightblue" d="M532.22,-204.99C446.94,-203.78 294.6,-195.26 172,-154 108.68,-132.69 11.86,-104.33 58,-56 90.41,-22.05 800.81,-13.11 984.8,-11.36"/>
<polygon fill="midnightblue" stroke="midnightblue" points="532.25,-208.49 542.29,-205.11 532.33,-201.49 532.25,-208.49"/>
</g>
<!-- Node5 -->
<g id="node5" class="node">
<title>Node5</title>
<g id="a_node5"><a xlink:href="forcetree_8c.html" target="_top" xlink:title="gravitational tree">
<polygon fill="white" stroke="black" points="630,-62 630,-81 748,-81 748,-62 630,-62"/>
<text text-anchor="middle" x="689" y="-69" font-family="Helvetica,sans-Serif" font-size="10.00">libgadget/forcetree.c</text>
</a>
</g>
</g>
<!-- Node3&#45;&gt;Node5 -->
<g id="edge5" class="edge">
<title>Node3&#45;&gt;Node5</title>
<path fill="none" stroke="midnightblue" d="M557.22,-192.89C516.31,-179.18 462.62,-154.23 487,-123 492.06,-116.52 592.02,-93.73 649.39,-81.09"/>
<polygon fill="midnightblue" stroke="midnightblue" points="556.18,-196.23 566.77,-195.97 558.32,-189.57 556.18,-196.23"/>
</g>
<!-- Node6 -->
<g id="node6" class="node">
<title>Node6</title>
<g id="a_node6"><a xlink:href="forcetree_8h.html" target="_top" xlink:title=" ">
<polygon fill="white" stroke="red" points="495.5,-129 495.5,-148 614.5,-148 614.5,-129 495.5,-129"/>
<text text-anchor="middle" x="555" y="-136" font-family="Helvetica,sans-Serif" font-size="10.00">libgadget/forcetree.h</text>
</a>
</g>
</g>
<!-- Node3&#45;&gt;Node6 -->
<g id="edge6" class="edge">
<title>Node3&#45;&gt;Node6</title>
<path fill="none" stroke="midnightblue" d="M586.45,-187.03C578.12,-174.45 567.24,-158.01 560.71,-148.13"/>
<polygon fill="midnightblue" stroke="midnightblue" points="583.76,-189.32 592.2,-195.73 589.6,-185.46 583.76,-189.32"/>
</g>
<!-- Node34 -->
<g id="node7" class="node">
<title>Node34</title>
<g id="a_node7"><a xlink:href="gravpm_8c.html" target="_top" xlink:title=" ">
<polygon fill="white" stroke="black" points="1215.5,-62 1215.5,-81 1326.5,-81 1326.5,-62 1215.5,-62"/>
<text text-anchor="middle" x="1271" y="-69" font-family="Helvetica,sans-Serif" font-size="10.00">libgadget/gravpm.c</text>
</a>
</g>
</g>
<!-- Node3&#45;&gt;Node34 -->
<g id="edge26" class="edge">
<title>Node3&#45;&gt;Node34</title>
<path fill="none" stroke="midnightblue" d="M663.8,-194.67C706.38,-186.89 762.35,-173.95 809,-154 832.35,-144.01 833.05,-131.44 857,-123 1001.98,-71.9 1049.1,-110.62 1201,-87 1211.55,-85.36 1222.91,-83.19 1233.34,-81.02"/>
<polygon fill="midnightblue" stroke="midnightblue" points="663.07,-191.25 653.83,-196.44 664.29,-198.14 663.07,-191.25"/>
</g>
<!-- Node21 -->
<g id="node9" class="node">
<title>Node21</title>
<g id="a_node9"><a xlink:href="init_8c.html" target="_top" xlink:title="code for initialisation of a simulation from initial conditions">
<polygon fill="white" stroke="black" points="1680.5,-0.5 1680.5,-19.5 1769.5,-19.5 1769.5,-0.5 1680.5,-0.5"/>
<text text-anchor="middle" x="1725" y="-7.5" font-family="Helvetica,sans-Serif" font-size="10.00">libgadget/init.c</text>
</a>
</g>
</g>
<!-- Node3&#45;&gt;Node21 -->
<g id="edge27" class="edge">
<title>Node3&#45;&gt;Node21</title>
<path fill="none" stroke="midnightblue" d="M631.75,-192.35C659.35,-182.33 699.33,-167.6 734,-154 767.58,-140.83 774.02,-131.78 809,-123 964.53,-83.96 1019.43,-147.34 1168,-87 1188.51,-78.67 1186.43,-64.2 1207,-56 1292.54,-21.92 1570.68,-13.58 1680.15,-11.6"/>
<polygon fill="midnightblue" stroke="midnightblue" points="630.39,-189.13 622.18,-195.82 632.77,-195.71 630.39,-189.13"/>
</g>
<!-- Node10 -->
<g id="node10" class="node">
<title>Node10</title>
<g id="a_node10"><a xlink:href="run_8c.html" target="_top" xlink:title="iterates over timesteps, main loop">
<polygon fill="white" stroke="black" points="1863.5,-0.5 1863.5,-19.5 1952.5,-19.5 1952.5,-0.5 1863.5,-0.5"/>
<text text-anchor="middle" x="1908" y="-7.5" font-family="Helvetica,sans-Serif" font-size="10.00">libgadget/run.c</text>
</a>
</g>
</g>
<!-- Node3&#45;&gt;Node10 -->
<g id="edge31" class="edge">
<title>Node3&#45;&gt;Node10</title>
<path fill="none" stroke="midnightblue" d="M654.13,-193.99C704.71,-184.32 781.05,-169.19 847,-154 900.68,-141.63 912.57,-131.45 967,-123 1254.23,-78.43 1332.89,-132.32 1620,-87 1718.84,-71.4 1832.8,-35.96 1882.56,-19.59"/>
<polygon fill="midnightblue" stroke="midnightblue" points="653.22,-190.6 644.05,-195.91 654.53,-197.48 653.22,-190.6"/>
</g>
<!-- Node38 -->
<g id="node11" class="node">
<title>Node38</title>
<g id="a_node11"><a xlink:href="runtests_8c.html" target="_top" xlink:title=" ">
<polygon fill="white" stroke="black" points="498.5,-62 498.5,-81 611.5,-81 611.5,-62 498.5,-62"/>
<text text-anchor="middle" x="555" y="-69" font-family="Helvetica,sans-Serif" font-size="10.00">libgadget/runtests.c</text>
</a>
</g>
</g>
<!-- Node3&#45;&gt;Node38 -->
<g id="edge32" class="edge">
<title>Node3&#45;&gt;Node38</title>
<path fill="none" stroke="midnightblue" d="M531.96,-198.45C502.76,-192.1 471.03,-179.37 453,-154 445.02,-142.77 445.73,-134.71 453,-123 466.7,-100.92 493.24,-88.2 515.81,-81.05"/>
<polygon fill="midnightblue" stroke="midnightblue" points="531.67,-201.95 542.15,-200.43 533.01,-195.08 531.67,-201.95"/>
</g>
<!-- Node23 -->
<g id="node12" class="node">
<title>Node23</title>
<g id="a_node12"><a xlink:href="sfr__eff_8c.html" target="_top" xlink:title=" ">
<polygon fill="white" stroke="black" points="1257,-0.5 1257,-19.5 1361,-19.5 1361,-0.5 1257,-0.5"/>
<text text-anchor="middle" x="1309" y="-7.5" font-family="Helvetica,sans-Serif" font-size="10.00">libgadget/sfr_eff.c</text>
</a>
</g>
</g>
<!-- Node3&#45;&gt;Node23 -->
<g id="edge33" class="edge">
<title>Node3&#45;&gt;Node23</title>
<path fill="none" stroke="midnightblue" d="M532.07,-200.17C401.68,-189.39 131.32,-154.69 226,-56 228.26,-53.64 1041.03,-21.53 1256.88,-13.05"/>
<polygon fill="midnightblue" stroke="midnightblue" points="532.1,-203.69 542.35,-201 532.66,-196.71 532.1,-203.69"/>
</g>
<!-- Node27 -->
<g id="node15" class="node">
<title>Node27</title>
<g id="a_node15"><a xlink:href="test__density_8c.html" target="_top" xlink:title=" ">
<polygon fill="white" stroke="black" points="234.5,-56.5 234.5,-86.5 345.5,-86.5 345.5,-56.5 234.5,-56.5"/>
<text text-anchor="start" x="242.5" y="-74.5" font-family="Helvetica,sans-Serif" font-size="10.00">libgadget/tests/test</text>
<text text-anchor="middle" x="290" y="-63.5" font-family="Helvetica,sans-Serif" font-size="10.00">_density.c</text>
</a>
</g>
</g>
<!-- Node3&#45;&gt;Node27 -->
<g id="edge34" class="edge">
<title>Node3&#45;&gt;Node27</title>
<path fill="none" stroke="midnightblue" d="M546.8,-193.57C511.21,-185.06 463.16,-171.71 423,-154 380.13,-135.1 334.47,-104.52 309.36,-86.68"/>
<polygon fill="midnightblue" stroke="midnightblue" points="546.42,-197.08 556.95,-195.95 548.01,-190.26 546.42,-197.08"/>
</g>
<!-- Node31 -->
<g id="node16" class="node">
<title>Node31</title>
<g id="a_node16"><a xlink:href="test__fof_8c.html" target="_top" xlink:title=" ">
<polygon fill="white" stroke="black" points="918.5,-56.5 918.5,-86.5 1029.5,-86.5 1029.5,-56.5 918.5,-56.5"/>
<text text-anchor="start" x="926.5" y="-74.5" font-family="Helvetica,sans-Serif" font-size="10.00">libgadget/tests/test</text>
<text text-anchor="middle" x="974" y="-63.5" font-family="Helvetica,sans-Serif" font-size="10.00">_fof.c</text>
</a>
</g>
</g>
<!-- Node3&#45;&gt;Node31 -->
<g id="edge36" class="edge">
<title>Node3&#45;&gt;Node31</title>
<path fill="none" stroke="midnightblue" d="M615.74,-189.35C640.84,-168.2 685.8,-131.46 705,-123 787.25,-86.77 815.76,-104.12 904,-87 908.63,-86.1 913.43,-85.15 918.24,-84.18"/>
<polygon fill="midnightblue" stroke="midnightblue" points="613.42,-186.72 608.05,-195.86 617.94,-192.06 613.42,-186.72"/>
</g>
<!-- Node44 -->
<g id="node17" class="node">
<title>Node44</title>
<g id="a_node17"><a xlink:href="test__forcetree_8c.html" target="_top" xlink:title=" ">
<polygon fill="white" stroke="black" points="1047.5,-56.5 1047.5,-86.5 1158.5,-86.5 1158.5,-56.5 1047.5,-56.5"/>
<text text-anchor="start" x="1055.5" y="-74.5" font-family="Helvetica,sans-Serif" font-size="10.00">libgadget/tests/test</text>
<text text-anchor="middle" x="1103" y="-63.5" font-family="Helvetica,sans-Serif" font-size="10.00">_forcetree.c</text>
</a>
</g>
</g>
<!-- Node3&#45;&gt;Node44 -->
<g id="edge37" class="edge">
<title>Node3&#45;&gt;Node44</title>
<path fill="none" stroke="midnightblue" d="M625.82,-191.43C645.93,-181.71 673.57,-167.8 697,-154 718.24,-141.49 719.9,-131.62 743,-123 867.17,-76.69 908.43,-109.67 1039,-87 1041.69,-86.53 1044.45,-86.02 1047.22,-85.49"/>
<polygon fill="midnightblue" stroke="midnightblue" points="624.11,-188.37 616.6,-195.84 627.14,-194.68 624.11,-188.37"/>
</g>
<!-- Node39 -->
<g id="node18" class="node">
<title>Node39</title>
<g id="a_node18"><a xlink:href="test__gravity_8c.html" target="_top" xlink:title=" ">
<polygon fill="white" stroke="black" points="66.5,-56.5 66.5,-86.5 177.5,-86.5 177.5,-56.5 66.5,-56.5"/>
<text text-anchor="start" x="74.5" y="-74.5" font-family="Helvetica,sans-Serif" font-size="10.00">libgadget/tests/test</text>
<text text-anchor="middle" x="122" y="-63.5" font-family="Helvetica,sans-Serif" font-size="10.00">_gravity.c</text>
</a>
</g>
</g>
<!-- Node3&#45;&gt;Node39 -->
<g id="edge38" class="edge">
<title>Node3&#45;&gt;Node39</title>
<path fill="none" stroke="midnightblue" d="M532.47,-199.82C440.68,-192.55 278.98,-176.95 225,-154 188.07,-138.3 153.23,-105.66 135.07,-86.8"/>
<polygon fill="midnightblue" stroke="midnightblue" points="532.25,-203.31 542.49,-200.6 532.8,-196.33 532.25,-203.31"/>
</g>
<!-- Node45 -->
<g id="node19" class="node">
<title>Node45</title>
<g id="a_node19"><a xlink:href="treewalk_8c.html" target="_top" xlink:title=" ">
<polygon fill="white" stroke="black" points="364,-62 364,-81 480,-81 480,-62 364,-62"/>
<text text-anchor="middle" x="422" y="-69" font-family="Helvetica,sans-Serif" font-size="10.00">libgadget/treewalk.c</text>
</a>
</g>
</g>
<!-- Node3&#45;&gt;Node45 -->
<g id="edge41" class="edge">
<title>Node3&#45;&gt;Node45</title>
<path fill="none" stroke="midnightblue" d="M532.23,-197.7C501.23,-191.21 466.08,-178.57 443,-154 423.8,-133.55 421.59,-97.93 421.68,-81.4"/>
<polygon fill="midnightblue" stroke="midnightblue" points="531.65,-201.15 542.13,-199.6 532.97,-194.28 531.65,-201.15"/>
</g>
<!-- Node48 -->
<g id="node20" class="node">
<title>Node48</title>
<g id="a_node20"><a xlink:href="init_8h.html" target="_top" xlink:title=" ">
<polygon fill="white" stroke="red" points="1827,-129 1827,-148 1917,-148 1917,-129 1827,-129"/>
<text text-anchor="middle" x="1872" y="-136" font-family="Helvetica,sans-Serif" font-size="10.00">libgadget/init.h</text>
</a>
</g>
</g>
<!-- Node3&#45;&gt;Node48 -->
<g id="edge28" class="edge">
<title>Node3&#45;&gt;Node48</title>
<path fill="none" stroke="midnightblue" d="M663.74,-201.92C831.06,-195.23 1286.66,-176.32 1666,-154 1721.3,-150.75 1784.88,-146.14 1826.61,-143"/>
<polygon fill="midnightblue" stroke="midnightblue" points="663.47,-198.43 653.62,-202.32 663.75,-205.42 663.47,-198.43"/>
</g>
<!-- Node49 -->
<g id="node21" class="node">
<title>Node49</title>
<g id="a_node21"><a xlink:href="test__exchange_8c.html" target="_top" xlink:title=" ">
<polygon fill="white" stroke="black" points="1104.5,-123.5 1104.5,-153.5 1215.5,-153.5 1215.5,-123.5 1104.5,-123.5"/>
<text text-anchor="start" x="1112.5" y="-141.5" font-family="Helvetica,sans-Serif" font-size="10.00">libgadget/tests/test</text>
<text text-anchor="middle" x="1160" y="-130.5" font-family="Helvetica,sans-Serif" font-size="10.00">_exchange.c</text>
</a>
</g>
</g>
<!-- Node3&#45;&gt;Node49 -->
<g id="edge35" class="edge">
<title>Node3&#45;&gt;Node49</title>
<path fill="none" stroke="midnightblue" d="M663.65,-200.4C759.23,-193.85 942.09,-179.14 1096,-154 1098.7,-153.56 1101.45,-153.07 1104.23,-152.56"/>
<polygon fill="midnightblue" stroke="midnightblue" points="663.3,-196.92 653.56,-201.08 663.77,-203.9 663.3,-196.92"/>
</g>
<!-- Node50 -->
<g id="node22" class="node">
<title>Node50</title>
<g id="a_node22"><a xlink:href="test__slotsmanager_8c.html" target="_top" xlink:title=" ">
<polygon fill="white" stroke="black" points="975.5,-123.5 975.5,-153.5 1086.5,-153.5 1086.5,-123.5 975.5,-123.5"/>
<text text-anchor="start" x="983.5" y="-141.5" font-family="Helvetica,sans-Serif" font-size="10.00">libgadget/tests/test</text>
<text text-anchor="middle" x="1031" y="-130.5" font-family="Helvetica,sans-Serif" font-size="10.00">_slotsmanager.c</text>
</a>
</g>
</g>
<!-- Node3&#45;&gt;Node50 -->
<g id="edge39" class="edge">
<title>Node3&#45;&gt;Node50</title>
<path fill="none" stroke="midnightblue" d="M663.48,-196.71C736.32,-187.74 857.41,-171.92 961,-154 965.65,-153.2 970.46,-152.31 975.28,-151.39"/>
<polygon fill="midnightblue" stroke="midnightblue" points="663.03,-193.24 653.53,-197.93 663.88,-200.19 663.03,-193.24"/>
</g>
<!-- Node24 -->
<g id="node23" class="node">
<title>Node24</title>
<g id="a_node23"><a xlink:href="timestep_8c.html" target="_top" xlink:title="routines for &#39;kicking&#39; particles in momentum space and assigning new timesteps">
<polygon fill="white" stroke="black" points="1233.5,-129 1233.5,-148 1350.5,-148 1350.5,-129 1233.5,-129"/>
<text text-anchor="middle" x="1292" y="-136" font-family="Helvetica,sans-Serif" font-size="10.00">libgadget/timestep.c</text>
</a>
</g>
</g>
<!-- Node3&#45;&gt;Node24 -->
<g id="edge40" class="edge">
<title>Node3&#45;&gt;Node24</title>
<path fill="none" stroke="midnightblue" d="M663.92,-200.31C802.1,-191.33 1118.16,-169.79 1225,-154 1235.36,-152.47 1246.52,-150.28 1256.69,-148.06"/>
<polygon fill="midnightblue" stroke="midnightblue" points="663.64,-196.82 653.88,-200.96 664.09,-203.8 663.64,-196.82"/>
</g>
<!-- Node6&#45;&gt;Node4 -->
<g id="edge7" class="edge">
<title>Node6&#45;&gt;Node4</title>
<path fill="none" stroke="midnightblue" d="M606.67,-126.91C657.29,-116.12 730.57,-99.28 757,-87 778.37,-77.08 778.39,-65.39 800,-56 860.88,-29.56 937.66,-18.52 984.77,-14"/>
<polygon fill="midnightblue" stroke="midnightblue" points="605.93,-123.49 596.87,-128.99 607.37,-130.34 605.93,-123.49"/>
</g>
<!-- Node6&#45;&gt;Node5 -->
<g id="edge8" class="edge">
<title>Node6&#45;&gt;Node5</title>
<path fill="none" stroke="midnightblue" d="M581.92,-124.44C608.46,-111.57 648.27,-92.26 671.13,-81.17"/>
<polygon fill="midnightblue" stroke="midnightblue" points="580.26,-121.35 572.79,-128.87 583.32,-127.65 580.26,-121.35"/>
</g>
<!-- Node6&#45;&gt;Node34 -->
<g id="edge9" class="edge">
<title>Node6&#45;&gt;Node34</title>
<path fill="none" stroke="midnightblue" d="M624.7,-133.07C738.56,-125.54 971.49,-108.91 1168,-87 1183.43,-85.28 1200.12,-83.08 1215.48,-80.91"/>
<polygon fill="midnightblue" stroke="midnightblue" points="624.46,-129.58 614.72,-133.73 624.92,-136.56 624.46,-129.58"/>
</g>
<!-- Node37 -->
<g id="node8" class="node">
<title>Node37</title>
<g id="a_node8"><a xlink:href="gravshort-tree_8c.html" target="_top" xlink:title=" ">
<polygon fill="white" stroke="black" points="2642,-56.5 2642,-86.5 2754,-86.5 2754,-56.5 2642,-56.5"/>
<text text-anchor="start" x="2650" y="-74.5" font-family="Helvetica,sans-Serif" font-size="10.00">libgadget/gravshort</text>
<text text-anchor="middle" x="2698" y="-63.5" font-family="Helvetica,sans-Serif" font-size="10.00">&#45;tree.c</text>
</a>
</g>
</g>
<!-- Node6&#45;&gt;Node37 -->
<g id="edge10" class="edge">
<title>Node6&#45;&gt;Node37</title>
<path fill="none" stroke="midnightblue" d="M624.89,-134.91C706.84,-131.91 846.78,-126.87 967,-123 1625.83,-101.8 2425.84,-79.87 2641.96,-74.01"/>
<polygon fill="midnightblue" stroke="midnightblue" points="624.56,-131.42 614.7,-135.29 624.82,-138.42 624.56,-131.42"/>
</g>
<!-- Node6&#45;&gt;Node21 -->
<g id="edge11" class="edge">
<title>Node6&#45;&gt;Node21</title>
<path fill="none" stroke="midnightblue" d="M608.17,-126.98C615.17,-125.62 622.26,-124.27 629,-123 717.76,-106.32 745.15,-120.55 829,-87 852.23,-77.7 852.23,-63.82 876,-56 952.54,-30.8 1516.28,-15.85 1680.33,-12"/>
<polygon fill="midnightblue" stroke="midnightblue" points="607.17,-123.61 598.02,-128.95 608.51,-130.48 607.17,-123.61"/>
</g>
<!-- Node6&#45;&gt;Node10 -->
<g id="edge12" class="edge">
<title>Node6&#45;&gt;Node10</title>
<path fill="none" stroke="midnightblue" d="M606.83,-127.05C614.26,-125.64 621.82,-124.25 629,-123 733.97,-104.75 767.15,-126.74 866,-87 888.2,-78.08 887.35,-63.7 910,-56 1001.5,-24.91 1682.51,-25.36 1779,-20 1807.02,-18.44 1838.43,-16.26 1863.24,-14.43"/>
<polygon fill="midnightblue" stroke="midnightblue" points="605.97,-123.65 596.82,-128.98 607.3,-130.53 605.97,-123.65"/>
</g>
<!-- Node6&#45;&gt;Node38 -->
<g id="edge13" class="edge">
<title>Node6&#45;&gt;Node38</title>
<path fill="none" stroke="midnightblue" d="M555,-118.54C555,-106.17 555,-90.62 555,-81.13"/>
<polygon fill="midnightblue" stroke="midnightblue" points="551.5,-118.73 555,-128.73 558.5,-118.73 551.5,-118.73"/>
</g>
<!-- Node6&#45;&gt;Node23 -->
<g id="edge14" class="edge">
<title>Node6&#45;&gt;Node23</title>
<path fill="none" stroke="midnightblue" d="M606.97,-126.95C674.11,-113.24 783.46,-90.63 792,-87 814.69,-77.37 814.79,-64.32 838,-56 913.97,-28.77 1150.82,-16.83 1256.81,-12.75"/>
<polygon fill="midnightblue" stroke="midnightblue" points="606.08,-123.56 596.98,-128.99 607.48,-130.42 606.08,-123.56"/>
</g>
<!-- Node43 -->
<g id="node13" class="node">
<title>Node43</title>
<g id="a_node13"><a xlink:href="sfr__eff_8h.html" target="_top" xlink:title=" ">
<polygon fill="white" stroke="red" points="1505.5,-62 1505.5,-81 1610.5,-81 1610.5,-62 1505.5,-62"/>
<text text-anchor="middle" x="1558" y="-69" font-family="Helvetica,sans-Serif" font-size="10.00">libgadget/sfr_eff.h</text>
</a>
</g>
</g>
<!-- Node6&#45;&gt;Node43 -->
<g id="edge15" class="edge">
<title>Node6&#45;&gt;Node43</title>
<path fill="none" stroke="midnightblue" d="M625.09,-132.98C761.82,-124.17 1073.69,-104.05 1336,-87 1393.81,-83.24 1460.09,-78.91 1505.07,-75.97"/>
<polygon fill="midnightblue" stroke="midnightblue" points="624.52,-129.51 614.77,-133.65 624.97,-136.5 624.52,-129.51"/>
</g>
<!-- Node6&#45;&gt;Node27 -->
<g id="edge21" class="edge">
<title>Node6&#45;&gt;Node27</title>
<path fill="none" stroke="midnightblue" d="M510.25,-126.52C464.93,-115.41 394.74,-98.19 345.81,-86.19"/>
<polygon fill="midnightblue" stroke="midnightblue" points="509.54,-129.95 520.08,-128.94 511.21,-123.15 509.54,-129.95"/>
</g>
<!-- Node6&#45;&gt;Node31 -->
<g id="edge22" class="edge">
<title>Node6&#45;&gt;Node31</title>
<path fill="none" stroke="midnightblue" d="M605.99,-127.07C613.69,-125.62 621.54,-124.22 629,-123 750.65,-103.14 782.45,-107.52 904,-87 908.65,-86.22 913.46,-85.34 918.29,-84.43"/>
<polygon fill="midnightblue" stroke="midnightblue" points="605.18,-123.66 596.02,-128.98 606.5,-130.54 605.18,-123.66"/>
</g>
<!-- Node6&#45;&gt;Node44 -->
<g id="edge23" class="edge">
<title>Node6&#45;&gt;Node44</title>
<path fill="none" stroke="midnightblue" d="M624.82,-130.68C749.03,-118.48 999.17,-93.57 1039,-87 1041.7,-86.56 1044.45,-86.07 1047.23,-85.55"/>
<polygon fill="midnightblue" stroke="midnightblue" points="624.26,-127.22 614.65,-131.68 624.94,-134.18 624.26,-127.22"/>
</g>
<!-- Node6&#45;&gt;Node39 -->
<g id="edge24" class="edge">
<title>Node6&#45;&gt;Node39</title>
<path fill="none" stroke="midnightblue" d="M487.86,-127.42C402.65,-114.63 257.23,-92.8 177.81,-80.88"/>
<polygon fill="midnightblue" stroke="midnightblue" points="487.54,-130.91 497.95,-128.94 488.58,-123.99 487.54,-130.91"/>
</g>
<!-- Node6&#45;&gt;Node45 -->
<g id="edge25" class="edge">
<title>Node6&#45;&gt;Node45</title>
<path fill="none" stroke="midnightblue" d="M528.28,-124.44C501.94,-111.57 462.43,-92.26 439.73,-81.17"/>
<polygon fill="midnightblue" stroke="midnightblue" points="526.82,-127.62 537.34,-128.87 529.89,-121.33 526.82,-127.62"/>
</g>
<!-- Node43&#45;&gt;Node4 -->
<g id="edge16" class="edge">
<title>Node43&#45;&gt;Node4</title>
<path fill="none" stroke="midnightblue" d="M1495.43,-61.53C1481.48,-59.62 1466.74,-57.68 1453,-56 1313.61,-39 1148.05,-22.54 1071.19,-15.12"/>
<polygon fill="midnightblue" stroke="midnightblue" points="1495.05,-65.01 1505.43,-62.91 1496.01,-58.07 1495.05,-65.01"/>
</g>
<!-- Node43&#45;&gt;Node21 -->
<g id="edge17" class="edge">
<title>Node43&#45;&gt;Node21</title>
<path fill="none" stroke="midnightblue" d="M1591.45,-58.58C1623.91,-47.02 1672.37,-29.75 1701.12,-19.51"/>
<polygon fill="midnightblue" stroke="midnightblue" points="1590.17,-55.32 1581.93,-61.98 1592.52,-61.92 1590.17,-55.32"/>
</g>
<!-- Node43&#45;&gt;Node10 -->
<g id="edge19" class="edge">
<title>Node43&#45;&gt;Node10</title>
<path fill="none" stroke="midnightblue" d="M1605.82,-59.81C1612.26,-58.47 1618.78,-57.17 1625,-56 1708.86,-40.27 1807.37,-25.42 1863.26,-17.33"/>
<polygon fill="midnightblue" stroke="midnightblue" points="1604.9,-56.43 1595.84,-61.93 1606.35,-63.28 1604.9,-56.43"/>
</g>
<!-- Node43&#45;&gt;Node23 -->
<g id="edge20" class="edge">
<title>Node43&#45;&gt;Node23</title>
<path fill="none" stroke="midnightblue" d="M1512.44,-59.61C1464.11,-48.07 1388.77,-30.06 1344.61,-19.51"/>
<polygon fill="midnightblue" stroke="midnightblue" points="1511.78,-63.06 1522.32,-61.98 1513.41,-56.25 1511.78,-63.06"/>
</g>
<!-- Node22 -->
<g id="node14" class="node">
<title>Node22</title>
<g id="a_node14"><a xlink:href="petaio_8c.html" target="_top" xlink:title=" ">
<polygon fill="white" stroke="black" points="2555,-0.5 2555,-19.5 2659,-19.5 2659,-0.5 2555,-0.5"/>
<text text-anchor="middle" x="2607" y="-7.5" font-family="Helvetica,sans-Serif" font-size="10.00">libgadget/petaio.c</text>
</a>
</g>
</g>
<!-- Node43&#45;&gt;Node22 -->
<g id="edge18" class="edge">
<title>Node43&#45;&gt;Node22</title>
<path fill="none" stroke="midnightblue" d="M1620.86,-66.93C1811.26,-56.14 2379.31,-23.91 2554.78,-13.96"/>
<polygon fill="midnightblue" stroke="midnightblue" points="1620.52,-63.45 1610.74,-67.51 1620.92,-70.44 1620.52,-63.45"/>
</g>
<!-- Node48&#45;&gt;Node21 -->
<g id="edge29" class="edge">
<title>Node48&#45;&gt;Node21</title>
<path fill="none" stroke="midnightblue" d="M1854.01,-122.02C1822.85,-95.2 1759.8,-40.94 1735.17,-19.76"/>
<polygon fill="midnightblue" stroke="midnightblue" points="1852.03,-124.94 1861.9,-128.81 1856.6,-119.63 1852.03,-124.94"/>
</g>
<!-- Node48&#45;&gt;Node10 -->
<g id="edge30" class="edge">
<title>Node48&#45;&gt;Node10</title>
<path fill="none" stroke="midnightblue" d="M1877.22,-119.17C1885.08,-91.53 1899.68,-40.22 1905.51,-19.76"/>
<polygon fill="midnightblue" stroke="midnightblue" points="1873.85,-118.23 1874.47,-128.81 1880.58,-120.15 1873.85,-118.23"/>
</g>
<!-- Node51&#45;&gt;Node2 -->
<g id="edge44" class="edge">
<title>Node51&#45;&gt;Node2</title>
<path fill="none" stroke="midnightblue" d="M972.75,-381.16C973.01,-365.68 972.57,-343.24 969,-324 957.77,-263.48 892.35,-235.32 934,-190 966.14,-155.03 1313.06,-161.27 1360,-154 1369.91,-152.47 1380.57,-150.27 1390.29,-148.06"/>
<polygon fill="midnightblue" stroke="midnightblue" points="969.24,-381.38 972.46,-391.48 976.24,-381.58 969.24,-381.38"/>
</g>
<!-- Node51&#45;&gt;Node4 -->
<g id="edge59" class="edge">
<title>Node51&#45;&gt;Node4</title>
<path fill="none" stroke="midnightblue" d="M893.04,-400.36C713.84,-400.42 281.14,-396.16 142,-355 72.22,-334.36 0,-346.27 0,-273.5 0,-273.5 0,-273.5 0,-137.5 0,-96.95 6.98,-78.06 41,-56 81.1,-30.01 799.48,-15.17 984.71,-11.76"/>
<polygon fill="midnightblue" stroke="midnightblue" points="893.19,-403.86 903.19,-400.35 893.19,-396.86 893.19,-403.86"/>
</g>
<!-- Node51&#45;&gt;Node5 -->
<g id="edge61" class="edge">
<title>Node51&#45;&gt;Node5</title>
<path fill="none" stroke="midnightblue" d="M893.2,-399.37C800.44,-397.02 642.38,-387.94 511,-355 419.49,-332.05 315,-367.84 315,-273.5 315,-273.5 315,-273.5 315,-204.5 315,-124.3 400.68,-150.55 476,-123 492.33,-117.03 594.16,-93.79 650.9,-81.02"/>
<polygon fill="midnightblue" stroke="midnightblue" points="893.28,-402.87 903.36,-399.61 893.44,-395.87 893.28,-402.87"/>
</g>
<!-- Node51&#45;&gt;Node34 -->
<g id="edge63" class="edge">
<title>Node51&#45;&gt;Node34</title>
<path fill="none" stroke="midnightblue" d="M893.3,-400.68C806.23,-399.55 673.96,-391.61 642,-355 632.94,-344.62 639.12,-337.47 642,-324 648.82,-292.09 653.01,-283.53 672,-257 697.44,-221.45 706.57,-212.58 744,-190 785.52,-164.95 803.44,-175.3 847,-154 869.81,-142.84 871.1,-131.6 895,-123 1023.86,-76.65 1065.83,-108.91 1201,-87 1211.41,-85.31 1222.63,-83.15 1232.97,-81.01"/>
<polygon fill="midnightblue" stroke="midnightblue" points="893.38,-404.18 903.42,-400.78 893.45,-397.18 893.38,-404.18"/>
</g>
<!-- Node51&#45;&gt;Node38 -->
<g id="edge78" class="edge">
<title>Node51&#45;&gt;Node38</title>
<path fill="none" stroke="midnightblue" d="M893.23,-396.35C727.07,-388.39 353.9,-369.07 330,-355 292.77,-333.08 277,-316.71 277,-273.5 277,-273.5 277,-273.5 277,-204.5 277,-159.78 298.73,-147.71 336,-123 339.79,-120.49 454.29,-94.83 516.18,-81.09"/>
<polygon fill="midnightblue" stroke="midnightblue" points="893.24,-399.85 903.39,-396.83 893.57,-392.86 893.24,-399.85"/>
</g>
<!-- Node51&#45;&gt;Node43 -->
<g id="edge79" class="edge">
<title>Node51&#45;&gt;Node43</title>
<path fill="none" stroke="midnightblue" d="M960.37,-382.96C949.32,-367.16 931.93,-343.26 915,-324 899.85,-306.77 887.24,-309 878,-288 860.46,-248.12 856.35,-228.88 876,-190 898.66,-145.18 919.99,-140.69 967,-123 992.01,-113.59 1365.2,-86.22 1505.35,-76.22"/>
<polygon fill="midnightblue" stroke="midnightblue" points="957.52,-384.99 966.09,-391.23 963.28,-381.01 957.52,-384.99"/>
</g>
<!-- Node51&#45;&gt;Node22 -->
<g id="edge69" class="edge">
<title>Node51&#45;&gt;Node22</title>
<path fill="none" stroke="midnightblue" d="M1050.68,-400.69C1200.29,-401.01 1519.84,-396.59 1621,-355 1640.53,-346.97 1637.67,-332.49 1657,-324 1783.2,-268.6 1828.65,-308.1 1965,-288 2042.71,-276.55 2061.46,-269.58 2139,-257 2248.07,-239.31 2281.99,-260.97 2385,-221 2493.81,-178.78 2579.56,-54.03 2601.52,-19.79"/>
<polygon fill="midnightblue" stroke="midnightblue" points="1050.66,-397.19 1040.65,-400.66 1050.64,-404.19 1050.66,-397.19"/>
</g>
<!-- Node51&#45;&gt;Node27 -->
<g id="edge105" class="edge">
<title>Node51&#45;&gt;Node27</title>
<path fill="none" stroke="midnightblue" d="M893.43,-397.14C706.57,-390.08 249.02,-371.24 220,-355 181.43,-333.42 163,-317.7 163,-273.5 163,-273.5 163,-273.5 163,-204.5 163,-148.37 223.37,-106.89 260.86,-86.54"/>
<polygon fill="midnightblue" stroke="midnightblue" points="893.34,-400.64 903.47,-397.51 893.61,-393.64 893.34,-400.64"/>
</g>
<!-- Node51&#45;&gt;Node31 -->
<g id="edge107" class="edge">
<title>Node51&#45;&gt;Node31</title>
<path fill="none" stroke="midnightblue" d="M893.27,-397.35C774.73,-392.56 561.67,-380.48 538,-355 488.07,-301.26 492.88,-250.74 534,-190 558.15,-154.33 587.67,-177.15 624,-154 640.97,-143.19 638.88,-131.75 657,-123 756.1,-75.13 793.57,-105.87 902,-87 907.28,-86.08 912.76,-85.07 918.24,-84.03"/>
<polygon fill="midnightblue" stroke="midnightblue" points="893.25,-400.86 903.38,-397.75 893.53,-393.86 893.25,-400.86"/>
</g>
<!-- Node51&#45;&gt;Node44 -->
<g id="edge108" class="edge">
<title>Node51&#45;&gt;Node44</title>
<path fill="none" stroke="midnightblue" d="M893.29,-396.59C783.85,-391.02 596.72,-378.21 576,-355 566.82,-344.72 571.19,-336.91 576,-324 589.76,-287.09 606.65,-285.35 634,-257 664.35,-225.54 669.52,-214.08 706,-190 767.27,-149.55 787,-145.15 857,-123 935.61,-98.13 958.34,-104.11 1039,-87 1041.67,-86.43 1044.41,-85.84 1047.17,-85.24"/>
<polygon fill="midnightblue" stroke="midnightblue" points="893.14,-400.08 903.31,-397.09 893.49,-393.09 893.14,-400.08"/>
</g>
<!-- Node51&#45;&gt;Node39 -->
<g id="edge109" class="edge">
<title>Node51&#45;&gt;Node39</title>
<path fill="none" stroke="midnightblue" d="M893.18,-396.8C694.44,-388.58 187.6,-366.54 174,-355 92.23,-285.65 111.13,-133.53 119.28,-86.58"/>
<polygon fill="midnightblue" stroke="midnightblue" points="893.13,-400.3 903.27,-397.22 893.42,-393.31 893.13,-400.3"/>
</g>
<!-- Node51&#45;&gt;Node45 -->
<g id="edge112" class="edge">
<title>Node51&#45;&gt;Node45</title>
<path fill="none" stroke="midnightblue" d="M893.25,-396.26C719.07,-387.79 314.37,-366.96 287,-355 238.75,-333.91 201,-326.16 201,-273.5 201,-273.5 201,-273.5 201,-204.5 201,-150.54 245.05,-151.29 291,-123 322.65,-103.51 363.08,-89.32 390.6,-81.03"/>
<polygon fill="midnightblue" stroke="midnightblue" points="893.22,-399.76 903.38,-396.75 893.56,-392.77 893.22,-399.76"/>
</g>
<!-- Node51&#45;&gt;Node49 -->
<g id="edge106" class="edge">
<title>Node51&#45;&gt;Node49</title>
<path fill="none" stroke="midnightblue" d="M893.22,-400.27C808.76,-398.68 682.64,-390.25 652,-355 642.96,-344.6 645.43,-336.11 652,-324 752.75,-138.26 888.36,-193.17 1096,-154 1098.69,-153.49 1101.43,-152.95 1104.2,-152.39"/>
<polygon fill="midnightblue" stroke="midnightblue" points="893.25,-403.77 903.3,-400.43 893.36,-396.77 893.25,-403.77"/>
</g>
<!-- Node51&#45;&gt;Node50 -->
<g id="edge110" class="edge">
<title>Node51&#45;&gt;Node50</title>
<path fill="none" stroke="midnightblue" d="M969.56,-381.18C966.67,-364.78 960.55,-341.01 948,-324 931.31,-301.38 909.05,-312.9 896,-288 875.79,-249.42 871.18,-225.79 896,-190 913.9,-164.19 946.69,-151.55 975.48,-145.37"/>
<polygon fill="midnightblue" stroke="midnightblue" points="966.12,-381.84 971.09,-391.19 973.04,-380.78 966.12,-381.84"/>
</g>
<!-- Node51&#45;&gt;Node24 -->
<g id="edge111" class="edge">
<title>Node51&#45;&gt;Node24</title>
<path fill="none" stroke="midnightblue" d="M893.28,-395.77C831.69,-390.62 753.2,-379.36 733,-355 724.21,-344.39 727.11,-336.46 733,-324 773.06,-239.21 809.57,-226.39 896,-190 1031.57,-132.92 1079.81,-177.59 1225,-154 1235.1,-152.36 1245.98,-150.18 1255.97,-148.02"/>
<polygon fill="midnightblue" stroke="midnightblue" points="893.16,-399.27 903.4,-396.58 893.71,-392.29 893.16,-399.27"/>
</g>
<!-- Node14 -->
<g id="node25" class="node">
<title>Node14</title>
<g id="a_node25"><a xlink:href="cooling__qso__lightup_8c.html" target="_top" xlink:title=" ">
<polygon fill="white" stroke="black" points="1052.5,-190.5 1052.5,-220.5 1175.5,-220.5 1175.5,-190.5 1052.5,-190.5"/>
<text text-anchor="start" x="1060.5" y="-208.5" font-family="Helvetica,sans-Serif" font-size="10.00">libgadget/cooling_qso</text>
<text text-anchor="middle" x="1114" y="-197.5" font-family="Helvetica,sans-Serif" font-size="10.00">_lightup.c</text>
</a>
</g>
</g>
<!-- Node51&#45;&gt;Node14 -->
<g id="edge43" class="edge">
<title>Node51&#45;&gt;Node14</title>
<path fill="none" stroke="midnightblue" d="M893.02,-399.01C812.71,-395 705.43,-379.54 746,-324 764.84,-298.21 959.42,-245.74 1057.76,-220.57"/>
<polygon fill="midnightblue" stroke="midnightblue" points="893.02,-402.51 903.16,-399.46 893.33,-395.52 893.02,-402.51"/>
</g>
<!-- Node52 -->
<g id="node26" class="node">
<title>Node52</title>
<g id="a_node26"><a xlink:href="drift_8h.html" target="_top" xlink:title=" ">
<polygon fill="white" stroke="black" points="1308,-263 1308,-282 1402,-282 1402,-263 1308,-263"/>
<text text-anchor="middle" x="1355" y="-270" font-family="Helvetica,sans-Serif" font-size="10.00">libgadget/drift.h</text>
</a>
</g>
</g>
<!-- Node51&#45;&gt;Node52 -->
<g id="edge45" class="edge">
<title>Node51&#45;&gt;Node52</title>
<path fill="none" stroke="midnightblue" d="M1017.23,-388.97C1050.8,-380.49 1097.57,-368.04 1138,-355 1211.15,-331.41 1295.94,-297.65 1334.28,-282.03"/>
<polygon fill="midnightblue" stroke="midnightblue" points="1016.11,-385.64 1007.26,-391.47 1017.81,-392.43 1016.11,-385.64"/>
</g>
<!-- Node53 -->
<g id="node28" class="node">
<title>Node53</title>
<g id="a_node28"><a xlink:href="exchange_8c.html" target="_top" xlink:title=" ">
<polygon fill="white" stroke="black" points="1535.5,-129 1535.5,-148 1656.5,-148 1656.5,-129 1535.5,-129"/>
<text text-anchor="middle" x="1596" y="-136" font-family="Helvetica,sans-Serif" font-size="10.00">libgadget/exchange.c</text>
</a>
</g>
</g>
<!-- Node51&#45;&gt;Node53 -->
<g id="edge57" class="edge">
<title>Node51&#45;&gt;Node53</title>
<path fill="none" stroke="midnightblue" d="M977.38,-381.58C979.62,-373.47 982.14,-363.81 984,-355 999.36,-282.37 955.42,-240.32 1010,-190 1049.16,-153.9 1435.03,-159.55 1488,-154 1503.99,-152.33 1521.27,-150.16 1537.22,-148.02"/>
<polygon fill="midnightblue" stroke="midnightblue" points="973.94,-380.86 974.57,-391.44 980.67,-382.78 973.94,-380.86"/>
</g>
<!-- Node54 -->
<g id="node29" class="node">
<title>Node54</title>
<g id="a_node29"><a xlink:href="exchange_8h.html" target="_top" xlink:title=" ">
<polygon fill="white" stroke="black" points="1308,-196 1308,-215 1430,-215 1430,-196 1308,-196"/>
<text text-anchor="middle" x="1369" y="-203" font-family="Helvetica,sans-Serif" font-size="10.00">libgadget/exchange.h</text>
</a>
</g>
</g>
<!-- Node51&#45;&gt;Node54 -->
<g id="edge58" class="edge">
<title>Node51&#45;&gt;Node54</title>
<path fill="none" stroke="midnightblue" d="M1016.01,-388.64C1041.48,-381.08 1073.61,-369.8 1100,-355 1119.01,-344.34 1119.74,-335.9 1138,-324 1211.7,-275.98 1307.55,-232.78 1348.74,-215.04"/>
<polygon fill="midnightblue" stroke="midnightblue" points="1014.89,-385.32 1006.25,-391.46 1016.83,-392.05 1014.89,-385.32"/>
</g>
<!-- Node30 -->
<g id="node30" class="node">
<title>Node30</title>
<g id="a_node30"><a xlink:href="fofpetaio_8c.html" target="_top" xlink:title=" ">
<polygon fill="white" stroke="black" points="1973,-129 1973,-148 2091,-148 2091,-129 1973,-129"/>
<text text-anchor="middle" x="2032" y="-136" font-family="Helvetica,sans-Serif" font-size="10.00">libgadget/fofpetaio.c</text>
</a>
</g>
</g>
<!-- Node51&#45;&gt;Node30 -->
<g id="edge60" class="edge">
<title>Node51&#45;&gt;Node30</title>
<path fill="none" stroke="midnightblue" d="M983.81,-382.85C989.02,-374.7 994.89,-364.64 999,-355 1028.83,-285.09 984.55,-237.36 1044,-190 1082.36,-159.44 1877.15,-158.33 1926,-154 1942.65,-152.52 1960.7,-150.29 1977.1,-148.02"/>
<polygon fill="midnightblue" stroke="midnightblue" points="980.74,-381.15 978.13,-391.42 986.57,-385.02 980.74,-381.15"/>
</g>
<!-- Node55 -->
<g id="node31" class="node">
<title>Node55</title>
<g id="a_node31"><a xlink:href="gdbtools_8c.html" target="_top" xlink:title=" ">
<polygon fill="white" stroke="black" points="2212,-330 2212,-349 2328,-349 2328,-330 2212,-330"/>
<text text-anchor="middle" x="2270" y="-337" font-family="Helvetica,sans-Serif" font-size="10.00">libgadget/gdbtools.c</text>
</a>
</g>
</g>
<!-- Node51&#45;&gt;Node55 -->
<g id="edge62" class="edge">
<title>Node51&#45;&gt;Node55</title>
<path fill="none" stroke="midnightblue" d="M1050.79,-398.94C1285.69,-395.49 1978.76,-383.14 2203,-355 2213.86,-353.64 2225.57,-351.38 2236.12,-349.05"/>
<polygon fill="midnightblue" stroke="midnightblue" points="1050.57,-395.44 1040.62,-399.09 1050.67,-402.44 1050.57,-395.44"/>
</g>
<!-- Node35 -->
<g id="node32" class="node">
<title>Node35</title>
<g id="a_node32"><a xlink:href="gravshort_8h.html" target="_top" xlink:title=" ">
<polygon fill="white" stroke="black" points="1709.5,-330 1709.5,-349 1830.5,-349 1830.5,-330 1709.5,-330"/>
<text text-anchor="middle" x="1770" y="-337" font-family="Helvetica,sans-Serif" font-size="10.00">libgadget/gravshort.h</text>
</a>
</g>
</g>
<!-- Node51&#45;&gt;Node35 -->
<g id="edge64" class="edge">
<title>Node51&#45;&gt;Node35</title>
<path fill="none" stroke="midnightblue" d="M1050.67,-398.42C1183.81,-395 1461.85,-384.67 1695,-355 1706.71,-353.51 1719.34,-351.3 1730.84,-349.06"/>
<polygon fill="midnightblue" stroke="midnightblue" points="1050.47,-394.92 1040.56,-398.67 1050.64,-401.92 1050.47,-394.92"/>
</g>
<!-- Node56 -->
<g id="node34" class="node">
<title>Node56</title>
<g id="a_node34"><a xlink:href="lightcone_8c.html" target="_top" xlink:title=" ">
<polygon fill="white" stroke="black" points="1977.5,-330 1977.5,-349 2096.5,-349 2096.5,-330 1977.5,-330"/>
<text text-anchor="middle" x="2037" y="-337" font-family="Helvetica,sans-Serif" font-size="10.00">libgadget/lightcone.c</text>
</a>
</g>
</g>
<!-- Node51&#45;&gt;Node56 -->
<g id="edge67" class="edge">
<title>Node51&#45;&gt;Node56</title>
<path fill="none" stroke="midnightblue" d="M1050.68,-400.84C1219.6,-401.69 1629.22,-398.59 1969,-355 1979.9,-353.6 1991.64,-351.37 2002.25,-349.06"/>
<polygon fill="midnightblue" stroke="midnightblue" points="1050.65,-397.34 1040.63,-400.79 1050.61,-404.34 1050.65,-397.34"/>
</g>
<!-- Node57 -->
<g id="node35" class="node">
<title>Node57</title>
<g id="a_node35"><a xlink:href="partmanager_8c.html" target="_top" xlink:title=" ">
<polygon fill="white" stroke="black" points="770,-330 770,-349 906,-349 906,-330 770,-330"/>
<text text-anchor="middle" x="838" y="-337" font-family="Helvetica,sans-Serif" font-size="10.00">libgadget/partmanager.c</text>
</a>
</g>
</g>
<!-- Node51&#45;&gt;Node57 -->
<g id="edge68" class="edge">
<title>Node51&#45;&gt;Node57</title>
<path fill="none" stroke="midnightblue" d="M943.46,-387.33C917.45,-375.78 879.74,-359.03 857.16,-349.01"/>
<polygon fill="midnightblue" stroke="midnightblue" points="942.24,-390.62 952.8,-391.48 945.08,-384.22 942.24,-390.62"/>
</g>
<!-- Node58 -->
<g id="node36" class="node">
<title>Node58</title>
<g id="a_node36"><a xlink:href="petaio_8h.html" target="_top" xlink:title=" ">
<polygon fill="white" stroke="red" points="2061.5,-196 2061.5,-215 2166.5,-215 2166.5,-196 2061.5,-196"/>
<text text-anchor="middle" x="2114" y="-203" font-family="Helvetica,sans-Serif" font-size="10.00">libgadget/petaio.h</text>
</a>
</g>
</g>
<!-- Node51&#45;&gt;Node58 -->
<g id="edge70" class="edge">
<title>Node51&#45;&gt;Node58</title>
<path fill="none" stroke="midnightblue" d="M1050.64,-399.54C1193.49,-397.82 1489.75,-390.01 1586,-355 1608.14,-346.95 1607.09,-332.67 1629,-324 1744.43,-278.3 1785.75,-318.88 1906,-288 1979.07,-269.24 2061.17,-231.94 2096.41,-215.1"/>
<polygon fill="midnightblue" stroke="midnightblue" points="1050.58,-396.04 1040.62,-399.65 1050.66,-403.04 1050.58,-396.04"/>
</g>
<!-- Node62 -->
<g id="node38" class="node">
<title>Node62</title>
<g id="a_node38"><a xlink:href="slotsmanager_8c.html" target="_top" xlink:title=" ">
<polygon fill="white" stroke="black" points="1458,-263 1458,-282 1598,-282 1598,-263 1458,-263"/>
<text text-anchor="middle" x="1528" y="-270" font-family="Helvetica,sans-Serif" font-size="10.00">libgadget/slotsmanager.c</text>
</a>
</g>
</g>
<!-- Node51&#45;&gt;Node62 -->
<g id="edge80" class="edge">
<title>Node51&#45;&gt;Node62</title>
<path fill="none" stroke="midnightblue" d="M893.01,-395.6C816.21,-388.56 717.08,-370.42 761,-324 810.71,-271.46 1338.96,-294.45 1411,-288 1428.74,-286.41 1447.93,-284.23 1465.54,-282.04"/>
<polygon fill="midnightblue" stroke="midnightblue" points="892.94,-399.1 903.21,-396.48 893.55,-392.13 892.94,-399.1"/>
</g>
<!-- Node63 -->
<g id="node39" class="node">
<title>Node63</title>
<g id="a_node39"><a xlink:href="slotsmanager_8h.html" target="_top" xlink:title=" ">
<polygon fill="white" stroke="red" points="1437,-330 1437,-349 1577,-349 1577,-330 1437,-330"/>
<text text-anchor="middle" x="1507" y="-337" font-family="Helvetica,sans-Serif" font-size="10.00">libgadget/slotsmanager.h</text>
</a>
</g>
</g>
<!-- Node51&#45;&gt;Node63 -->
<g id="edge81" class="edge">
<title>Node51&#45;&gt;Node63</title>
<path fill="none" stroke="midnightblue" d="M1050.71,-391.25C1154.86,-379.66 1336.87,-359.42 1436.64,-348.33"/>
<polygon fill="midnightblue" stroke="midnightblue" points="1050.13,-387.79 1040.57,-392.37 1050.9,-394.75 1050.13,-387.79"/>
</g>
<!-- Node61 -->
<g id="node42" class="node">
<title>Node61</title>
<g id="a_node42"><a xlink:href="gadget_2main_8c.html" target="_top" xlink:title="start of the program">
<polygon fill="white" stroke="black" points="2148,-263 2148,-282 2234,-282 2234,-263 2148,-263"/>
<text text-anchor="middle" x="2191" y="-270" font-family="Helvetica,sans-Serif" font-size="10.00">gadget/main.c</text>
</a>
</g>
</g>
<!-- Node51&#45;&gt;Node61 -->
<g id="edge113" class="edge">
<title>Node51&#45;&gt;Node61</title>
<path fill="none" stroke="midnightblue" d="M1051.14,-400.15C1206.85,-399.57 1547.36,-393.74 1657,-355 1679.55,-347.03 1678.52,-332.17 1701,-324 1882.51,-258.08 1943.55,-319.91 2134,-288 2142.96,-286.5 2152.58,-284.29 2161.32,-282.04"/>
<polygon fill="midnightblue" stroke="midnightblue" points="1050.7,-396.65 1040.71,-400.18 1050.72,-403.65 1050.7,-396.65"/>
</g>
<!-- Node51&#45;&gt;Node64 -->
<g id="edge104" class="edge">
<title>Node51&#45;&gt;Node64</title>
<path fill="none" stroke="midnightblue" d="M1050.97,-400.41C1203.99,-400.21 1551.23,-394.9 1840,-355 1842.71,-354.63 1845.47,-354.19 1848.26,-353.72"/>
<polygon fill="midnightblue" stroke="midnightblue" points="1050.73,-396.91 1040.74,-400.41 1050.74,-403.91 1050.73,-396.91"/>
</g>
<!-- Node65 -->
<g id="node44" class="node">
<title>Node65</title>
<g id="a_node44"><a xlink:href="genic_2main_8c.html" target="_top" xlink:title=" ">
<polygon fill="white" stroke="black" points="2114.5,-330 2114.5,-349 2193.5,-349 2193.5,-330 2114.5,-330"/>
<text text-anchor="middle" x="2154" y="-337" font-family="Helvetica,sans-Serif" font-size="10.00">genic/main.c</text>
</a>
</g>
</g>
<!-- Node51&#45;&gt;Node65 -->
<g id="edge114" class="edge">
<title>Node51&#45;&gt;Node65</title>
<path fill="none" stroke="midnightblue" d="M1051.13,-399.47C1273.79,-397.55 1902.66,-389.18 2106,-355 2113.9,-353.67 2122.32,-351.43 2129.87,-349.09"/>
<polygon fill="midnightblue" stroke="midnightblue" points="1050.81,-395.97 1040.84,-399.55 1050.87,-402.97 1050.81,-395.97"/>
</g>
<!-- Node52&#45;&gt;Node3 -->
<g id="edge47" class="edge">
<title>Node52&#45;&gt;Node3</title>
<path fill="none" stroke="midnightblue" d="M1297.76,-266.59C1156.6,-254.46 793.22,-223.26 653.7,-211.28"/>
<polygon fill="midnightblue" stroke="midnightblue" points="1297.67,-270.09 1307.93,-267.46 1298.27,-263.12 1297.67,-270.09"/>
</g>
<!-- Node52&#45;&gt;Node10 -->
<g id="edge56" class="edge">
<title>Node52&#45;&gt;Node10</title>
<path fill="none" stroke="midnightblue" d="M1388.93,-259.61C1416.21,-249.84 1455.39,-235.32 1489,-221 1518.45,-208.46 1523.16,-198.56 1554,-190 1634.03,-167.79 1870.17,-215.49 1926,-154 1961.15,-115.28 1926.91,-44.47 1913.15,-19.77"/>
<polygon fill="midnightblue" stroke="midnightblue" points="1387.7,-256.34 1379.45,-262.99 1390.05,-262.93 1387.7,-256.34"/>
</g>
<!-- Node52&#45;&gt;Node14 -->
<g id="edge46" class="edge">
<title>Node52&#45;&gt;Node14</title>
<path fill="none" stroke="midnightblue" d="M1313.1,-260.2C1272.24,-249.18 1210.01,-232.39 1166.01,-220.53"/>
<polygon fill="midnightblue" stroke="midnightblue" points="1312.43,-263.64 1323,-262.87 1314.25,-256.89 1312.43,-263.64"/>
</g>
<!-- Node9 -->
<g id="node27" class="node">
<title>Node9</title>
<g id="a_node27"><a xlink:href="drift_8c.html" target="_top" xlink:title=" ">
<polygon fill="white" stroke="black" points="1562.5,-196 1562.5,-215 1655.5,-215 1655.5,-196 1562.5,-196"/>
<text text-anchor="middle" x="1609" y="-203" font-family="Helvetica,sans-Serif" font-size="10.00">libgadget/drift.c</text>
</a>
</g>
</g>
<!-- Node52&#45;&gt;Node9 -->
<g id="edge48" class="edge">
<title>Node52&#45;&gt;Node9</title>
<path fill="none" stroke="midnightblue" d="M1398.36,-260.4C1448.49,-247.58 1529.92,-226.74 1575.46,-215.08"/>
<polygon fill="midnightblue" stroke="midnightblue" points="1397.29,-257.07 1388.47,-262.94 1399.02,-263.85 1397.29,-257.07"/>
</g>
<!-- Node52&#45;&gt;Node53 -->
<g id="edge49" class="edge">
<title>Node52&#45;&gt;Node53</title>
<path fill="none" stroke="midnightblue" d="M1379.59,-258.03C1429.12,-230.9 1539.61,-170.39 1580.44,-148.02"/>
<polygon fill="midnightblue" stroke="midnightblue" points="1377.9,-254.97 1370.81,-262.84 1381.26,-261.1 1377.9,-254.97"/>
</g>
<!-- Node52&#45;&gt;Node54 -->
<g id="edge50" class="edge">
<title>Node52&#45;&gt;Node54</title>
<path fill="none" stroke="midnightblue" d="M1359,-252.91C1361.68,-240.49 1365.08,-224.72 1367.14,-215.13"/>
<polygon fill="midnightblue" stroke="midnightblue" points="1355.57,-252.22 1356.89,-262.73 1362.42,-253.69 1355.57,-252.22"/>
</g>
<!-- Node54&#45;&gt;Node2 -->
<g id="edge51" class="edge">
<title>Node54&#45;&gt;Node2</title>
<path fill="none" stroke="midnightblue" d="M1383.16,-187.77C1393.88,-175.1 1408.18,-158.2 1416.7,-148.13"/>
<polygon fill="midnightblue" stroke="midnightblue" points="1380.21,-185.84 1376.42,-195.73 1385.55,-190.36 1380.21,-185.84"/>
</g>
<!-- Node54&#45;&gt;Node21 -->
<g id="edge54" class="edge">
<title>Node54&#45;&gt;Node21</title>
<path fill="none" stroke="midnightblue" d="M1404.12,-192.46C1428.47,-183.44 1461.21,-169.93 1488,-154 1507.03,-142.68 1507.79,-134.01 1527,-123 1565.45,-100.96 1581.06,-108.17 1620,-87 1657.37,-66.69 1696.79,-34.94 1714.87,-19.72"/>
<polygon fill="midnightblue" stroke="midnightblue" points="1402.77,-189.23 1394.57,-195.93 1405.16,-195.81 1402.77,-189.23"/>
</g>
<!-- Node54&#45;&gt;Node49 -->
<g id="edge55" class="edge">
<title>Node54&#45;&gt;Node49</title>
<path fill="none" stroke="midnightblue" d="M1331.3,-192.77C1295.86,-181.75 1242.78,-165.24 1205.11,-153.53"/>
<polygon fill="midnightblue" stroke="midnightblue" points="1330.66,-196.24 1341.25,-195.87 1332.74,-189.56 1330.66,-196.24"/>
</g>
<!-- Node54&#45;&gt;Node53 -->
<g id="edge52" class="edge">
<title>Node54&#45;&gt;Node53</title>
<path fill="none" stroke="midnightblue" d="M1408.84,-193.09C1453.75,-180.23 1525.74,-159.62 1566.09,-148.06"/>
<polygon fill="midnightblue" stroke="midnightblue" points="1407.79,-189.75 1399.14,-195.87 1409.72,-196.48 1407.79,-189.75"/>
</g>
<!-- Node54&#45;&gt;Node30 -->
<g id="edge53" class="edge">
<title>Node54&#45;&gt;Node30</title>
<path fill="none" stroke="midnightblue" d="M1440.34,-199.08C1546.4,-190.78 1751.87,-173.79 1926,-154 1941.32,-152.26 1957.85,-150.12 1973.19,-148.03"/>
<polygon fill="midnightblue" stroke="midnightblue" points="1439.78,-195.61 1430.08,-199.88 1440.33,-202.59 1439.78,-195.61"/>
</g>
<!-- Node35&#45;&gt;Node37 -->
<g id="edge66" class="edge">
<title>Node35&#45;&gt;Node37</title>
<path fill="none" stroke="midnightblue" d="M1816.04,-327.95C1824,-326.42 1832.21,-325.02 1840,-324 1983.23,-305.3 2351.15,-331.14 2489,-288 2543.27,-271.02 2556.96,-260.37 2598,-221 2641.74,-179.04 2676.87,-114.84 2691.12,-86.63"/>
<polygon fill="midnightblue" stroke="midnightblue" points="1815.27,-324.53 1806.16,-329.94 1816.65,-331.4 1815.27,-324.53"/>
</g>
<!-- Node36 -->
<g id="node33" class="node">
<title>Node36</title>
<g id="a_node33"><a xlink:href="gravshort-pair_8c.html" target="_top" xlink:title=" ">
<polygon fill="white" stroke="black" points="2802,-257.5 2802,-287.5 2914,-287.5 2914,-257.5 2802,-257.5"/>
<text text-anchor="start" x="2810" y="-275.5" font-family="Helvetica,sans-Serif" font-size="10.00">libgadget/gravshort</text>
<text text-anchor="middle" x="2858" y="-264.5" font-family="Helvetica,sans-Serif" font-size="10.00">&#45;pair.c</text>
</a>
</g>
</g>
<!-- Node35&#45;&gt;Node36 -->
<g id="edge65" class="edge">
<title>Node35&#45;&gt;Node36</title>
<path fill="none" stroke="midnightblue" d="M1815.23,-328.01C1823.43,-326.43 1831.94,-324.99 1840,-324 2224.97,-276.5 2325.07,-315.18 2712,-288 2741.73,-285.91 2774.78,-282.7 2801.91,-279.84"/>
<polygon fill="midnightblue" stroke="midnightblue" points="1814.53,-324.58 1805.42,-329.99 1815.92,-331.44 1814.53,-324.58"/>
</g>
<!-- Node58&#45;&gt;Node21 -->
<g id="edge73" class="edge">
<title>Node58&#45;&gt;Node21</title>
<path fill="none" stroke="midnightblue" d="M2121.94,-186.53C2128.51,-168.6 2134.75,-141.18 2121,-123 2078.28,-66.52 1864.24,-30.35 1769.84,-16.9"/>
<polygon fill="midnightblue" stroke="midnightblue" points="2118.67,-185.26 2118.18,-195.84 2125.16,-187.88 2118.67,-185.26"/>
</g>
<!-- Node58&#45;&gt;Node10 -->
<g id="edge76" class="edge">
<title>Node58&#45;&gt;Node10</title>
<path fill="none" stroke="midnightblue" d="M2136.41,-189.96C2158.46,-173.78 2186.72,-146.78 2171,-123 2122.22,-49.2 2013.86,-23.88 1952.54,-15.3"/>
<polygon fill="midnightblue" stroke="midnightblue" points="2134.25,-187.2 2128.07,-195.8 2138.27,-192.93 2134.25,-187.2"/>
</g>
<!-- Node58&#45;&gt;Node38 -->
<g id="edge77" class="edge">
<title>Node58&#45;&gt;Node38</title>
<path fill="none" stroke="midnightblue" d="M2116.83,-185.84C2118.53,-166.89 2117.63,-138.23 2100,-123 2037.8,-69.27 702.6,-96.86 621,-87 610.17,-85.69 598.5,-83.42 588.02,-81.06"/>
<polygon fill="midnightblue" stroke="midnightblue" points="2113.34,-185.59 2115.6,-195.94 2120.29,-186.44 2113.34,-185.59"/>
</g>
<!-- Node58&#45;&gt;Node22 -->
<g id="edge75" class="edge">
<title>Node58&#45;&gt;Node22</title>
<path fill="none" stroke="midnightblue" d="M2140.7,-191.28C2175.06,-174.49 2236.8,-145.03 2291,-123 2396.42,-80.15 2525.11,-37.43 2580.06,-19.63"/>
<polygon fill="midnightblue" stroke="midnightblue" points="2138.79,-188.32 2131.35,-195.87 2141.87,-194.6 2138.79,-188.32"/>
</g>
<!-- Node58&#45;&gt;Node48 -->
<g id="edge74" class="edge">
<title>Node58&#45;&gt;Node48</title>
<path fill="none" stroke="midnightblue" d="M2072.39,-193.32C2024.6,-180.49 1947.25,-159.71 1903.96,-148.08"/>
<polygon fill="midnightblue" stroke="midnightblue" points="2071.55,-196.72 2082.11,-195.94 2073.36,-189.96 2071.55,-196.72"/>
</g>
<!-- Node58&#45;&gt;Node30 -->
<g id="edge72" class="edge">
<title>Node58&#45;&gt;Node30</title>
<path fill="none" stroke="midnightblue" d="M2094.72,-189.21C2078.56,-176.41 2056.08,-158.59 2042.88,-148.13"/>
<polygon fill="midnightblue" stroke="midnightblue" points="2092.93,-192.26 2102.94,-195.73 2097.28,-186.78 2092.93,-192.26"/>
</g>
<!-- Node29 -->
<g id="node37" class="node">
<title>Node29</title>
<g id="a_node37"><a xlink:href="checkpoint_8c.html" target="_top" xlink:title=" ">
<polygon fill="white" stroke="black" points="2299.5,-129 2299.5,-148 2426.5,-148 2426.5,-129 2299.5,-129"/>
<text text-anchor="middle" x="2363" y="-136" font-family="Helvetica,sans-Serif" font-size="10.00">libgadget/checkpoint.c</text>
</a>
</g>
</g>
<!-- Node58&#45;&gt;Node29 -->
<g id="edge71" class="edge">
<title>Node58&#45;&gt;Node29</title>
<path fill="none" stroke="midnightblue" d="M2156.51,-193.4C2205.65,-180.58 2285.48,-159.74 2330.12,-148.08"/>
<polygon fill="midnightblue" stroke="midnightblue" points="2155.6,-190.02 2146.81,-195.94 2157.37,-196.8 2155.6,-190.02"/>
</g>
<!-- Node63&#45;&gt;Node2 -->
<g id="edge84" class="edge">
<title>Node63&#45;&gt;Node2</title>
<path fill="none" stroke="midnightblue" d="M1539.18,-326.08C1559.75,-317.25 1586.35,-304.11 1607,-288 1646.91,-256.87 1696.91,-229.29 1665,-190 1653.29,-175.59 1546.46,-157.48 1479.02,-147.33"/>
<polygon fill="midnightblue" stroke="midnightblue" points="1537.79,-322.87 1529.9,-329.95 1540.48,-329.33 1537.79,-322.87"/>
</g>
<!-- Node63&#45;&gt;Node4 -->
<g id="edge88" class="edge">
<title>Node63&#45;&gt;Node4</title>
<path fill="none" stroke="midnightblue" d="M1560.63,-327.96C1631.27,-313.99 1747.09,-290.78 1751,-288 1789.33,-260.73 1807.24,-234.15 1791,-190 1777.5,-153.31 1768.37,-141.63 1734,-123 1623.3,-63.01 1576.57,-111.18 1453,-87 1400.21,-76.67 1388.7,-66.79 1336,-56 1242.29,-36.81 1130.93,-22.64 1071.12,-15.73"/>
<polygon fill="midnightblue" stroke="midnightblue" points="1559.69,-324.57 1550.56,-329.95 1561.04,-331.44 1559.69,-324.57"/>
</g>
<!-- Node63&#45;&gt;Node5 -->
<g id="edge90" class="edge">
<title>Node63&#45;&gt;Node5</title>
<path fill="none" stroke="midnightblue" d="M1558.48,-327.78C1615.9,-315.55 1702.54,-296.2 1716,-288 1759.22,-261.67 1794.68,-236.2 1774,-190 1764.87,-169.6 1719.69,-131.44 1699,-123 1617.74,-89.85 997.62,-91.87 910,-87 855.1,-83.95 792.58,-79.78 748.08,-76.7"/>
<polygon fill="midnightblue" stroke="midnightblue" points="1557.53,-324.4 1548.48,-329.9 1558.99,-331.25 1557.53,-324.4"/>
</g>
<!-- Node63&#45;&gt;Node21 -->
<g id="edge92" class="edge">
<title>Node63&#45;&gt;Node21</title>
<path fill="none" stroke="midnightblue" d="M1587.34,-328.9C1601.23,-327.25 1615.53,-325.57 1629,-324 1768.96,-307.68 1811.33,-335.47 1944,-288 1967.91,-279.44 1968.37,-266.3 1992,-257 2076.86,-223.61 2105.07,-241.19 2194,-221 2302.83,-196.29 2368.43,-242.82 2436,-154 2511.64,-54.57 2754.37,-168.65 2033,-56 1939.43,-41.39 1829.63,-25.69 1769.67,-17.25"/>
<polygon fill="midnightblue" stroke="midnightblue" points="1586.83,-325.43 1577.31,-330.09 1587.66,-332.39 1586.83,-325.43"/>
</g>
<!-- Node63&#45;&gt;Node10 -->
<g id="edge95" class="edge">
<title>Node63&#45;&gt;Node10</title>
<path fill="none" stroke="midnightblue" d="M1587.06,-328.79C1601.03,-327.15 1615.44,-325.5 1629,-324 1785.75,-306.69 1833.2,-340.23 1982,-288 2005.96,-279.59 2006.15,-265.72 2030,-257 2147.83,-213.9 2188.89,-253.8 2310,-221 2383.62,-201.06 2425.89,-217.6 2468,-154 2527.34,-64.38 2095.12,-24.61 1952.56,-14.02"/>
<polygon fill="midnightblue" stroke="midnightblue" points="1586.5,-325.33 1576.98,-329.98 1587.32,-332.29 1586.5,-325.33"/>
</g>
<!-- Node63&#45;&gt;Node23 -->
<g id="edge96" class="edge">
<title>Node63&#45;&gt;Node23</title>
<path fill="none" stroke="midnightblue" d="M1560.11,-328.09C1567.46,-326.69 1574.91,-325.29 1582,-324 1675.16,-307.01 1705.81,-327.22 1792,-288 1811.84,-278.97 1812.26,-269.66 1830,-257 1854.69,-239.37 1873.25,-247.51 1888,-221 1894.7,-208.96 1895.18,-201.76 1888,-190 1869.78,-160.14 1847.83,-172.28 1818,-154 1797.91,-141.69 1796.91,-131.67 1775,-123 1659.15,-77.17 1613.1,-132.2 1497,-87 1474.71,-78.32 1474.45,-66.58 1453,-56 1418.94,-39.2 1377.27,-26.99 1347.53,-19.57"/>
<polygon fill="midnightblue" stroke="midnightblue" points="1559.36,-324.67 1550.2,-329.99 1560.68,-331.54 1559.36,-324.67"/>
</g>
<!-- Node63&#45;&gt;Node43 -->
<g id="edge97" class="edge">
<title>Node63&#45;&gt;Node43</title>
<path fill="none" stroke="midnightblue" d="M1587.23,-328.8C1701.59,-314.9 1898.57,-290.71 1906,-288 1929.86,-279.3 1930.3,-266.11 1954,-257 2047.3,-221.12 2111.22,-297.13 2176,-221 2210.99,-179.88 2136.77,-131.34 2121,-123 2033.38,-76.66 1733.5,-72.01 1610.89,-72.11"/>
<polygon fill="midnightblue" stroke="midnightblue" points="1586.62,-325.35 1577.11,-330.03 1587.46,-332.3 1586.62,-325.35"/>
</g>
<!-- Node63&#45;&gt;Node22 -->
<g id="edge93" class="edge">
<title>Node63&#45;&gt;Node22</title>
<path fill="none" stroke="midnightblue" d="M1587.19,-330.52C1608.58,-328.39 1631.66,-326.11 1653,-324 1816.1,-307.9 1858.65,-316.75 2020,-288 2073.81,-278.41 2085.44,-267.86 2139,-257 2247.29,-235.04 2277.75,-247.59 2385,-221 2558.01,-178.11 2660.15,-232.58 2763,-87 2792.29,-45.54 2715.44,-25.73 2659.48,-17.04"/>
<polygon fill="midnightblue" stroke="midnightblue" points="1586.78,-327.04 1577.18,-331.51 1587.47,-334.01 1586.78,-327.04"/>
</g>
<!-- Node63&#45;&gt;Node27 -->
<g id="edge99" class="edge">
<title>Node63&#45;&gt;Node27</title>
<path fill="none" stroke="midnightblue" d="M1556.08,-327.66C1596.95,-317.83 1651.08,-302.68 1668,-288 1723.4,-239.94 1727.97,-162.22 1666,-123 1604.44,-84.03 427.31,-95.97 355,-87 351.9,-86.62 348.73,-86.15 345.55,-85.63"/>
<polygon fill="midnightblue" stroke="midnightblue" points="1555.2,-324.28 1546.27,-329.98 1556.81,-331.09 1555.2,-324.28"/>
</g>
<!-- Node63&#45;&gt;Node49 -->
<g id="edge100" class="edge">
<title>Node63&#45;&gt;Node49</title>
<path fill="none" stroke="midnightblue" d="M1426.64,-335.94C1379.9,-330.95 1321.93,-318.39 1279,-288 1237.13,-258.36 1251.27,-229.05 1218,-190 1206.4,-176.38 1191.05,-163.18 1179.06,-153.7"/>
<polygon fill="midnightblue" stroke="midnightblue" points="1426.45,-339.44 1436.74,-336.92 1427.13,-332.47 1426.45,-339.44"/>
</g>
<!-- Node63&#45;&gt;Node50 -->
<g id="edge101" class="edge">
<title>Node63&#45;&gt;Node50</title>
<path fill="none" stroke="midnightblue" d="M1426.65,-329.93C1361.43,-321.71 1275.74,-307.63 1247,-288 1204.44,-258.93 1225.66,-221.67 1185,-190 1169.35,-177.81 1124.22,-163.73 1086.84,-153.54"/>
<polygon fill="midnightblue" stroke="midnightblue" points="1426.57,-333.45 1436.93,-331.2 1427.43,-326.5 1426.57,-333.45"/>
</g>
<!-- Node63&#45;&gt;Node24 -->
<g id="edge102" class="edge">
<title>Node63&#45;&gt;Node24</title>
<path fill="none" stroke="midnightblue" d="M1426.66,-328.98C1375.33,-321.09 1315.43,-307.92 1299,-288 1264.51,-246.19 1281.89,-173.05 1289.26,-148.11"/>
<polygon fill="midnightblue" stroke="midnightblue" points="1426.38,-332.48 1436.79,-330.48 1427.41,-325.55 1426.38,-332.48"/>
</g>
<!-- Node63&#45;&gt;Node14 -->
<g id="edge82" class="edge">
<title>Node63&#45;&gt;Node14</title>
<path fill="none" stroke="midnightblue" d="M1426.74,-331.7C1346.65,-323.85 1229.92,-309.25 1190,-288 1159.94,-272 1135.29,-239.48 1122.82,-220.72"/>
<polygon fill="midnightblue" stroke="midnightblue" points="1426.52,-335.19 1436.81,-332.67 1427.19,-328.22 1426.52,-335.19"/>
</g>
<!-- Node63&#45;&gt;Node52 -->
<g id="edge85" class="edge">
<title>Node63&#45;&gt;Node52</title>
<path fill="none" stroke="midnightblue" d="M1477.26,-325.78C1447.16,-312.91 1401.43,-293.35 1375.27,-282.17"/>
<polygon fill="midnightblue" stroke="midnightblue" points="1476.24,-329.15 1486.82,-329.87 1479,-322.72 1476.24,-329.15"/>
</g>
<!-- Node63&#45;&gt;Node53 -->
<g id="edge86" class="edge">
<title>Node63&#45;&gt;Node53</title>
<path fill="none" stroke="midnightblue" d="M1558.05,-327.22C1584.55,-319.47 1616.26,-307.05 1640,-288 1667.78,-265.7 1673.79,-255.13 1684,-221 1687.95,-207.8 1690.9,-201.92 1684,-190 1671.64,-168.66 1646.48,-155.56 1626.22,-148.06"/>
<polygon fill="midnightblue" stroke="midnightblue" points="1556.87,-323.91 1548.17,-329.96 1558.74,-330.66 1556.87,-323.91"/>
</g>
<!-- Node63&#45;&gt;Node54 -->
<g id="edge87" class="edge">
<title>Node63&#45;&gt;Node54</title>
<path fill="none" stroke="midnightblue" d="M1488.8,-323.29C1477.21,-313.45 1461.98,-300.23 1449,-288 1421.87,-262.44 1391.44,-230.47 1377.19,-215.29"/>
<polygon fill="midnightblue" stroke="midnightblue" points="1486.62,-326.03 1496.52,-329.8 1491.13,-320.68 1486.62,-326.03"/>
</g>
<!-- Node63&#45;&gt;Node30 -->
<g id="edge89" class="edge">
<title>Node63&#45;&gt;Node30</title>
<path fill="none" stroke="midnightblue" d="M1565.36,-328.26C1573.96,-326.8 1582.7,-325.34 1591,-324 1697.04,-306.86 1731.78,-331.5 1830,-288 1849.93,-279.17 1850.26,-269.66 1868,-257 1892.69,-239.37 1901.05,-238.27 1926,-221 1962.07,-196.03 2002.66,-163.51 2021.43,-148.19"/>
<polygon fill="midnightblue" stroke="midnightblue" points="1564.65,-324.83 1555.39,-329.97 1565.83,-331.73 1564.65,-324.83"/>
</g>
<!-- Node63&#45;&gt;Node58 -->
<g id="edge94" class="edge">
<title>Node63&#45;&gt;Node58</title>
<path fill="none" stroke="midnightblue" d="M1564.4,-328.26C1573.3,-326.77 1582.39,-325.3 1591,-324 1713.75,-305.44 1751.44,-330.73 1868,-288 1891.84,-279.26 1892.73,-267.16 1916,-257 1963.31,-236.35 2020.8,-222.86 2061.62,-215.06"/>
<polygon fill="midnightblue" stroke="midnightblue" points="1563.75,-324.82 1554.48,-329.95 1564.92,-331.73 1563.75,-324.82"/>
</g>
<!-- Node63&#45;&gt;Node62 -->
<g id="edge98" class="edge">
<title>Node63&#45;&gt;Node62</title>
<path fill="none" stroke="midnightblue" d="M1513,-319.91C1517.02,-307.49 1522.11,-291.72 1525.21,-282.13"/>
<polygon fill="midnightblue" stroke="midnightblue" points="1509.58,-319.14 1509.83,-329.73 1516.24,-321.29 1509.58,-319.14"/>
</g>
<!-- Node18 -->
<g id="node40" class="node">
<title>Node18</title>
<g id="a_node40"><a xlink:href="density_8c.html" target="_top" xlink:title="SPH density computation and smoothing length determination.">
<polygon fill="white" stroke="black" points="2252,-263 2252,-282 2360,-282 2360,-263 2252,-263"/>
<text text-anchor="middle" x="2306" y="-270" font-family="Helvetica,sans-Serif" font-size="10.00">libgadget/density.c</text>
</a>
</g>
</g>
<!-- Node63&#45;&gt;Node18 -->
<g id="edge83" class="edge">
<title>Node63&#45;&gt;Node18</title>
<path fill="none" stroke="midnightblue" d="M1587.18,-332.36C1622.13,-329.72 1663.59,-326.64 1701,-324 1941.82,-307 2004.16,-323.19 2243,-288 2252.99,-286.53 2263.75,-284.3 2273.49,-282.03"/>
<polygon fill="midnightblue" stroke="midnightblue" points="1586.74,-328.88 1577.03,-333.13 1587.27,-335.86 1586.74,-328.88"/>
</g>
<!-- Node19 -->
<g id="node41" class="node">
<title>Node19</title>
<g id="a_node41"><a xlink:href="hydra_8c.html" target="_top" xlink:title="Computation of SPH forces and rate of entropy generation.">
<polygon fill="white" stroke="black" points="2378.5,-263 2378.5,-282 2479.5,-282 2479.5,-263 2378.5,-263"/>
<text text-anchor="middle" x="2429" y="-270" font-family="Helvetica,sans-Serif" font-size="10.00">libgadget/hydra.c</text>
</a>
</g>
</g>
<!-- Node63&#45;&gt;Node19 -->
<g id="edge91" class="edge">
<title>Node63&#45;&gt;Node19</title>
<path fill="none" stroke="midnightblue" d="M1587.17,-332.13C1622.12,-329.45 1663.57,-326.41 1701,-324 1997.71,-304.92 2074.82,-331.1 2369,-288 2378.65,-286.59 2389.02,-284.35 2398.38,-282.04"/>
<polygon fill="midnightblue" stroke="midnightblue" points="1586.72,-328.66 1577.02,-332.91 1587.26,-335.64 1586.72,-328.66"/>
</g>
<!-- Node63&#45;&gt;Node61 -->
<g id="edge103" class="edge">
<title>Node63&#45;&gt;Node61</title>
<path fill="none" stroke="midnightblue" d="M1587.58,-331.19C1729.28,-318.33 2012.45,-292.57 2058,-288 2088.04,-284.99 2121.87,-281.29 2147.89,-278.39"/>
<polygon fill="midnightblue" stroke="midnightblue" points="1586.86,-327.74 1577.21,-332.13 1587.49,-334.71 1586.86,-327.74"/>
</g>
<!-- Node67&#45;&gt;Node2 -->
<g id="edge121" class="edge">
<title>Node67&#45;&gt;Node2</title>
<path fill="none" stroke="midnightblue" d="M2635.02,-381.34C2623.67,-349.37 2595.67,-284.85 2547,-257 2478.06,-217.54 1911.79,-231.12 1833,-221 1765.91,-212.38 1750.31,-203.34 1684,-190 1608.72,-174.86 1521.01,-157.98 1469.13,-148.08"/>
<polygon fill="midnightblue" stroke="midnightblue" points="2631.83,-382.83 2638.35,-391.18 2638.46,-380.59 2631.83,-382.83"/>
</g>
<!-- Node67&#45;&gt;Node4 -->
<g id="edge124" class="edge">
<title>Node67&#45;&gt;Node4</title>
<path fill="none" stroke="midnightblue" d="M2690.63,-388.99C2719.84,-381.5 2757.02,-370.17 2788,-355 2809.48,-344.48 2810.65,-334.79 2832,-324 2877.16,-301.19 2910.42,-329.05 2940,-288 3016.27,-182.18 3176.82,-248.94 2763,-56 2686.7,-20.42 1332.15,-22.72 1248,-20 1186.68,-18.02 1115.77,-14.98 1071.4,-13"/>
<polygon fill="midnightblue" stroke="midnightblue" points="2689.51,-385.66 2680.66,-391.48 2691.21,-392.45 2689.51,-385.66"/>
</g>
<!-- Node67&#45;&gt;Node34 -->
<g id="edge128" class="edge">
<title>Node67&#45;&gt;Node34</title>
<path fill="none" stroke="midnightblue" d="M2674.91,-387.83C2696.8,-379.53 2725.62,-367.77 2750,-355 2772.5,-343.22 2774.88,-334.52 2798,-324 2850.62,-300.06 2888.23,-334.19 2923,-288 2931.29,-276.99 2931.25,-268.04 2923,-257 2797.04,-88.49 2676.63,-156.94 2469,-123 2255.68,-88.13 1712.87,-97.92 1497,-87 1438.89,-84.06 1372.43,-79.67 1326.7,-76.49"/>
<polygon fill="midnightblue" stroke="midnightblue" points="2673.53,-384.61 2665.39,-391.39 2675.98,-391.17 2673.53,-384.61"/>
</g>
<!-- Node67&#45;&gt;Node37 -->
<g id="edge130" class="edge">
<title>Node67&#45;&gt;Node37</title>
<path fill="none" stroke="midnightblue" d="M2698.81,-391.31C2807.32,-384.94 3304.66,-406.07 3353,-355 3536.99,-160.62 2943.47,-93.1 2754.12,-76.78"/>
<polygon fill="midnightblue" stroke="midnightblue" points="2698.23,-387.85 2688.54,-392.12 2698.78,-394.83 2698.23,-387.85"/>
</g>
<!-- Node67&#45;&gt;Node21 -->
<g id="edge133" class="edge">
<title>Node67&#45;&gt;Node21</title>
<path fill="none" stroke="midnightblue" d="M2698.78,-391.25C2809.55,-383.7 3314.71,-391.53 3378,-355 3415.42,-333.4 3431,-316.71 3431,-273.5 3431,-273.5 3431,-273.5 3431,-137.5 3431,-22.07 3032.9,-67.03 2918,-56 2447.45,-10.83 2327.09,-44.33 1855,-20 1826.53,-18.53 1794.6,-16.33 1769.5,-14.47"/>
<polygon fill="midnightblue" stroke="midnightblue" points="2698.21,-387.79 2688.54,-392.12 2698.8,-394.76 2698.21,-387.79"/>
</g>
<!-- Node67&#45;&gt;Node10 -->
<g id="edge137" class="edge">
<title>Node67&#45;&gt;Node10</title>
<path fill="none" stroke="midnightblue" d="M2698.63,-391.29C2817.58,-383.92 3381.72,-404.75 3445,-355 3474.68,-331.66 3469,-311.26 3469,-273.5 3469,-273.5 3469,-273.5 3469,-137.5 3469,-99.74 3474.9,-79.06 3445,-56 3414.66,-32.61 2202.14,-14.97 1952.62,-11.59"/>
<polygon fill="midnightblue" stroke="midnightblue" points="2698.23,-387.82 2688.54,-392.1 2698.78,-394.79 2698.23,-387.82"/>
</g>
<!-- Node67&#45;&gt;Node22 -->
<g id="edge135" class="edge">
<title>Node67&#45;&gt;Node22</title>
<path fill="none" stroke="midnightblue" d="M2698.72,-391.29C2822.46,-383.72 3416.38,-407.25 3483,-355 3512.71,-331.7 3507,-311.26 3507,-273.5 3507,-273.5 3507,-273.5 3507,-137.5 3507,-99.74 3512.65,-79.39 3483,-56 3450.55,-30.4 2842.99,-15.86 2659.22,-12.03"/>
<polygon fill="midnightblue" stroke="midnightblue" points="2698.23,-387.82 2688.53,-392.09 2698.78,-394.79 2698.23,-387.82"/>
</g>
<!-- Node67&#45;&gt;Node45 -->
<g id="edge141" class="edge">
<title>Node67&#45;&gt;Node45</title>
<path fill="none" stroke="midnightblue" d="M2665.5,-385.53C2676,-377.9 2687.17,-367.51 2693,-355 2711.4,-315.52 2715.98,-294.6 2694,-257 2638.5,-162.05 2563.29,-210.62 2469,-154 2451.75,-143.64 2454.64,-130.58 2436,-123 2335.84,-82.26 597.42,-99.33 490,-87 478.73,-85.71 466.56,-83.41 455.69,-81.02"/>
<polygon fill="midnightblue" stroke="midnightblue" points="2663.31,-382.79 2656.97,-391.28 2667.22,-388.59 2663.31,-382.79"/>
</g>
<!-- Node67&#45;&gt;Node24 -->
<g id="edge140" class="edge">
<title>Node67&#45;&gt;Node24</title>
<path fill="none" stroke="midnightblue" d="M2604.6,-387.77C2586.41,-380.36 2564.94,-369.5 2549,-355 2511.22,-320.63 2533.07,-282.82 2489,-257 2399.3,-204.45 1656.47,-238.59 1554,-221 1506.82,-212.9 1372.21,-167.28 1316.55,-148.05"/>
<polygon fill="midnightblue" stroke="midnightblue" points="2603.45,-391.08 2614.04,-391.44 2605.99,-384.56 2603.45,-391.08"/>
</g>
<!-- Node67&#45;&gt;Node9 -->
<g id="edge122" class="edge">
<title>Node67&#45;&gt;Node9</title>
<path fill="none" stroke="midnightblue" d="M2612.85,-386.86C2598.63,-379.14 2581.9,-368.28 2570,-355 2537.63,-318.88 2562.51,-283.66 2522,-257 2453.42,-211.87 1865.92,-226.39 1784,-221 1740.5,-218.14 1690.99,-213.95 1655.76,-210.81"/>
<polygon fill="midnightblue" stroke="midnightblue" points="2611.27,-389.99 2621.76,-391.47 2614.49,-383.77 2611.27,-389.99"/>
</g>
<!-- Node67&#45;&gt;Node53 -->
<g id="edge123" class="edge">
<title>Node67&#45;&gt;Node53</title>
<path fill="none" stroke="midnightblue" d="M2641.59,-381.05C2641.42,-349.62 2635.99,-287.16 2598,-257 2548.56,-217.75 2093.64,-228.83 2031,-221 1882.33,-202.42 1707.75,-164.86 1633,-148.01"/>
<polygon fill="midnightblue" stroke="midnightblue" points="2638.08,-381.41 2641.45,-391.45 2645.08,-381.5 2638.08,-381.41"/>
</g>
<!-- Node67&#45;&gt;Node30 -->
<g id="edge125" class="edge">
<title>Node67&#45;&gt;Node30</title>
<path fill="none" stroke="midnightblue" d="M2647.16,-381.7C2656.13,-351.26 2668.41,-290.29 2636,-257 2545.45,-164 2153.1,-303.64 2053,-221 2031.03,-202.86 2030.34,-165.07 2031.27,-148.09"/>
<polygon fill="midnightblue" stroke="midnightblue" points="2643.77,-380.84 2644.1,-391.43 2650.44,-382.94 2643.77,-380.84"/>
</g>
<!-- Node67&#45;&gt;Node55 -->
<g id="edge126" class="edge">
<title>Node67&#45;&gt;Node55</title>
<path fill="none" stroke="midnightblue" d="M2583.41,-392.19C2523.1,-383.82 2425.7,-369.72 2342,-355 2331.83,-353.21 2320.88,-351.1 2310.68,-349.06"/>
<polygon fill="midnightblue" stroke="midnightblue" points="2583.11,-395.68 2593.5,-393.59 2584.07,-388.75 2583.11,-395.68"/>
</g>
<!-- Node67&#45;&gt;Node36 -->
<g id="edge129" class="edge">
<title>Node67&#45;&gt;Node36</title>
<path fill="none" stroke="midnightblue" d="M2698.57,-391.33C2804.48,-384.99 3288.94,-404.79 3336,-355 3345.46,-344.99 3345.22,-334.24 3336,-324 3308.23,-293.14 3034.8,-279.74 2914.41,-275.31"/>
<polygon fill="midnightblue" stroke="midnightblue" points="2698.23,-387.84 2688.54,-392.13 2698.79,-394.82 2698.23,-387.84"/>
</g>
<!-- Node67&#45;&gt;Node56 -->
<g id="edge134" class="edge">
<title>Node67&#45;&gt;Node56</title>
<path fill="none" stroke="midnightblue" d="M2583.14,-397.47C2484.72,-392.65 2278.58,-380.29 2106,-355 2095.34,-353.44 2083.86,-351.24 2073.38,-349.02"/>
<polygon fill="midnightblue" stroke="midnightblue" points="2583.02,-400.97 2593.18,-397.96 2583.36,-393.98 2583.02,-400.97"/>
</g>
<!-- Node67&#45;&gt;Node29 -->
<g id="edge118" class="edge">
<title>Node67&#45;&gt;Node29</title>
<path fill="none" stroke="midnightblue" d="M2656.71,-383.88C2663.43,-375.88 2670.51,-365.66 2674,-355 2687.55,-313.61 2698.76,-292.83 2674,-257 2657.02,-232.43 2464.16,-170.77 2390.95,-148.07"/>
<polygon fill="midnightblue" stroke="midnightblue" points="2654.1,-381.56 2650.02,-391.34 2659.3,-386.24 2654.1,-381.56"/>
</g>
<!-- Node67&#45;&gt;Node62 -->
<g id="edge138" class="edge">
<title>Node67&#45;&gt;Node62</title>
<path fill="none" stroke="midnightblue" d="M2583.14,-400C2526.16,-397.85 2438.01,-388.64 2370,-355 2351.96,-346.08 2355.47,-331.99 2337,-324 2270.16,-295.09 1782.47,-279.91 1598.22,-275.16"/>
<polygon fill="midnightblue" stroke="midnightblue" points="2583.3,-403.51 2593.41,-400.32 2583.52,-396.51 2583.3,-403.51"/>
</g>
<!-- Node67&#45;&gt;Node63 -->
<g id="edge139" class="edge">
<title>Node67&#45;&gt;Node63</title>
<path fill="none" stroke="midnightblue" d="M2582.86,-397.76C2435.37,-391.95 2034.64,-375.45 1701,-355 1659.87,-352.48 1613.88,-349.07 1577.01,-346.19"/>
<polygon fill="midnightblue" stroke="midnightblue" points="2582.91,-401.26 2593.04,-398.16 2583.19,-394.27 2582.91,-401.26"/>
</g>
<!-- Node67&#45;&gt;Node18 -->
<g id="edge120" class="edge">
<title>Node67&#45;&gt;Node18</title>
<path fill="none" stroke="midnightblue" d="M2583.38,-390.41C2546.86,-383.2 2499.1,-371.69 2459,-355 2434.51,-344.81 2431.24,-336.79 2408,-324 2379.43,-308.28 2345.32,-291.85 2324.67,-282.15"/>
<polygon fill="midnightblue" stroke="midnightblue" points="2582.89,-393.88 2593.37,-392.33 2584.21,-387 2582.89,-393.88"/>
</g>
<!-- Node67&#45;&gt;Node19 -->
<g id="edge132" class="edge">
<title>Node67&#45;&gt;Node19</title>
<path fill="none" stroke="midnightblue" d="M2583.58,-390.77C2554.87,-384.17 2520.65,-373.13 2494,-355 2464.97,-335.25 2442.61,-298.63 2433.48,-282.05"/>
<polygon fill="midnightblue" stroke="midnightblue" points="2582.98,-394.22 2593.49,-392.93 2584.46,-387.38 2582.98,-394.22"/>
</g>
<!-- Node67&#45;&gt;Node61 -->
<g id="edge142" class="edge">
<title>Node67&#45;&gt;Node61</title>
<path fill="none" stroke="midnightblue" d="M2583.33,-396.74C2534.64,-392.18 2464.09,-381.24 2408,-355 2388.26,-345.76 2389.34,-334.06 2370,-324 2368.32,-323.12 2272.57,-296.3 2221.82,-282.11"/>
<polygon fill="midnightblue" stroke="midnightblue" points="2583.11,-400.23 2593.38,-397.62 2583.72,-393.26 2583.11,-400.23"/>
</g>
<!-- Node67&#45;&gt;Node65 -->
<g id="edge143" class="edge">
<title>Node67&#45;&gt;Node65</title>
<path fill="none" stroke="midnightblue" d="M2583.12,-397.47C2498.81,-393.02 2337.62,-381.6 2203,-355 2195.25,-353.47 2186.97,-351.25 2179.46,-349.01"/>
<polygon fill="midnightblue" stroke="midnightblue" points="2583.09,-400.97 2593.26,-397.99 2583.45,-393.98 2583.09,-400.97"/>
</g>
<!-- Node68 -->
<g id="node47" class="node">
<title>Node68</title>
<g id="a_node47"><a xlink:href="cosmology_8c.html" target="_top" xlink:title=" ">
<polygon fill="white" stroke="black" points="2840.5,-330 2840.5,-349 2965.5,-349 2965.5,-330 2840.5,-330"/>
<text text-anchor="middle" x="2903" y="-337" font-family="Helvetica,sans-Serif" font-size="10.00">libgadget/cosmology.c</text>
</a>
</g>
</g>
<!-- Node67&#45;&gt;Node68 -->
<g id="edge119" class="edge">
<title>Node67&#45;&gt;Node68</title>
<path fill="none" stroke="midnightblue" d="M2688.3,-389.26C2739.12,-377.72 2818.87,-359.61 2865.53,-349.01"/>
<polygon fill="midnightblue" stroke="midnightblue" points="2687.51,-385.85 2678.54,-391.48 2689.07,-392.67 2687.51,-385.85"/>
</g>
<!-- Node33 -->
<g id="node48" class="node">
<title>Node33</title>
<g id="a_node48"><a xlink:href="gravity_8c.html" target="_top" xlink:title=" ">
<polygon fill="white" stroke="black" points="2983.5,-330 2983.5,-349 3090.5,-349 3090.5,-330 2983.5,-330"/>
<text text-anchor="middle" x="3037" y="-337" font-family="Helvetica,sans-Serif" font-size="10.00">libgadget/gravity.c</text>
</a>
</g>
</g>
<!-- Node67&#45;&gt;Node33 -->
<g id="edge127" class="edge">
<title>Node67&#45;&gt;Node33</title>
<path fill="none" stroke="midnightblue" d="M2698.83,-390.93C2822.63,-373.5 2856.07,-376.58 2975,-355 2984.25,-353.32 2994.19,-351.16 3003.34,-349.02"/>
<polygon fill="midnightblue" stroke="midnightblue" points="2697.98,-387.51 2688.57,-392.39 2698.96,-394.44 2697.98,-387.51"/>
</g>
<!-- Node69 -->
<g id="node49" class="node">
<title>Node69</title>
<g id="a_node49"><a xlink:href="hci_8c.html" target="_top" xlink:title=" ">
<polygon fill="white" stroke="black" points="3109,-330 3109,-349 3197,-349 3197,-330 3109,-330"/>
<text text-anchor="middle" x="3153" y="-337" font-family="Helvetica,sans-Serif" font-size="10.00">libgadget/hci.c</text>
</a>
</g>
</g>
<!-- Node67&#45;&gt;Node69 -->
<g id="edge131" class="edge">
<title>Node67&#45;&gt;Node69</title>
<path fill="none" stroke="midnightblue" d="M2698.58,-391.03C2877.78,-369.63 2926.65,-386.22 3100,-355 3108.36,-353.5 3117.31,-351.28 3125.43,-349.04"/>
<polygon fill="midnightblue" stroke="midnightblue" points="2698.06,-387.56 2688.55,-392.25 2698.9,-394.51 2698.06,-387.56"/>
</g>
<!-- Node70 -->
<g id="node50" class="node">
<title>Node70</title>
<g id="a_node50"><a xlink:href="petapm_8c.html" target="_top" xlink:title=" ">
<polygon fill="white" stroke="black" points="3215.5,-330 3215.5,-349 3326.5,-349 3326.5,-330 3215.5,-330"/>
<text text-anchor="middle" x="3271" y="-337" font-family="Helvetica,sans-Serif" font-size="10.00">libgadget/petapm.c</text>
</a>
</g>
</g>
<!-- Node67&#45;&gt;Node70 -->
<g id="edge136" class="edge">
<title>Node67&#45;&gt;Node70</title>
<path fill="none" stroke="midnightblue" d="M2698.73,-391.03C2924.65,-365.97 2985.32,-387.25 3206,-355 3216.18,-353.51 3227.14,-351.31 3237.11,-349.06"/>
<polygon fill="midnightblue" stroke="midnightblue" points="2698.09,-387.58 2688.54,-392.18 2698.87,-394.54 2698.09,-387.58"/>
</g>
</g>
</svg>
