<?xml version="1.0" encoding="UTF-8" standalone="no"?>
<!DOCTYPE svg PUBLIC "-//W3C//DTD SVG 1.1//EN"
 "http://www.w3.org/Graphics/SVG/1.1/DTD/svg11.dtd">
<!-- Generated by graphviz version 2.38.0 (20140413.2041)
 -->
<!-- Title: petapm_force_r2c Pages: 1 -->
<svg width="874pt" height="66pt"
 viewBox="0.00 0.00 874.00 66.00" xmlns="http://www.w3.org/2000/svg" xmlns:xlink="http://www.w3.org/1999/xlink">
<g id="graph0" class="graph" transform="scale(1 1) rotate(0) translate(4 62)">
<title>petapm_force_r2c</title>
<polygon fill="white" stroke="none" points="-4,4 -4,-62 870,-62 870,4 -4,4"/>
<!-- Node241 -->
<g id="node1" class="node"><title>Node241</title>
<polygon fill="#bfbfbf" stroke="black" points="0,-19.5 0,-38.5 95,-38.5 95,-19.5 0,-19.5"/>
<text text-anchor="middle" x="47.5" y="-26.5" font-family="Helvetica,sans-Serif" font-size="10.00">petapm_force_r2c</text>
</g>
<!-- Node242 -->
<g id="node2" class="node"><title>Node242</title>
<g id="a_node2"><a xlink:href="petapm_8h.html#a0dd847d1caccabe743e6c3fb81220225" target="_top" xlink:title="petapm_force">
<polygon fill="white" stroke="black" points="131,-19.5 131,-38.5 207,-38.5 207,-19.5 131,-19.5"/>
<text text-anchor="middle" x="169" y="-26.5" font-family="Helvetica,sans-Serif" font-size="10.00">petapm_force</text>
</a>
</g>
</g>
<!-- Node241&#45;&gt;Node242 -->
<g id="edge1" class="edge"><title>Node241&#45;&gt;Node242</title>
<path fill="none" stroke="midnightblue" d="M105.125,-29C113.784,-29 122.531,-29 130.635,-29"/>
<polygon fill="midnightblue" stroke="midnightblue" points="105.044,-25.5001 95.044,-29 105.044,-32.5001 105.044,-25.5001"/>
</g>
<!-- Node243 -->
<g id="node3" class="node"><title>Node243</title>
<g id="a_node3"><a xlink:href="proto_8h.html#a6a55456b331c8b01d7ae1352809b82f2" target="_top" xlink:title="gravpm_force">
<polygon fill="white" stroke="black" points="243,-19.5 243,-38.5 319,-38.5 319,-19.5 243,-19.5"/>
<text text-anchor="middle" x="281" y="-26.5" font-family="Helvetica,sans-Serif" font-size="10.00">gravpm_force</text>
</a>
</g>
</g>
<!-- Node242&#45;&gt;Node243 -->
<g id="edge2" class="edge"><title>Node242&#45;&gt;Node243</title>
<path fill="none" stroke="midnightblue" d="M217.42,-29C225.91,-29 234.646,-29 242.797,-29"/>
<polygon fill="midnightblue" stroke="midnightblue" points="217.241,-25.5001 207.241,-29 217.241,-32.5001 217.241,-25.5001"/>
</g>
<!-- Node244 -->
<g id="node4" class="node"><title>Node244</title>
<g id="a_node4"><a xlink:href="run_8c.html#abb80d08f4d52f4a7bdf28d1cecfead5b" target="_top" xlink:title="compute_accelerations">
<polygon fill="white" stroke="black" points="355,-38.5 355,-57.5 472,-57.5 472,-38.5 355,-38.5"/>
<text text-anchor="middle" x="413.5" y="-45.5" font-family="Helvetica,sans-Serif" font-size="10.00">compute_accelerations</text>
</a>
</g>
</g>
<!-- Node243&#45;&gt;Node244 -->
<g id="edge3" class="edge"><title>Node243&#45;&gt;Node244</title>
<path fill="none" stroke="midnightblue" d="M329.018,-35.8455C337.404,-37.0665 346.227,-38.351 354.869,-39.6093"/>
<polygon fill="midnightblue" stroke="midnightblue" points="329.447,-32.3712 319.047,-34.3938 328.438,-39.2981 329.447,-32.3712"/>
</g>
<!-- Node249 -->
<g id="node9" class="node"><title>Node249</title>
<g id="a_node9"><a xlink:href="runtests_8c.html#a549024555ca61e3f05a7100307e44f69" target="_top" xlink:title="runtests">
<polygon fill="white" stroke="black" points="508,-0.5 508,-19.5 560,-19.5 560,-0.5 508,-0.5"/>
<text text-anchor="middle" x="534" y="-7.5" font-family="Helvetica,sans-Serif" font-size="10.00">runtests</text>
</a>
</g>
</g>
<!-- Node243&#45;&gt;Node249 -->
<g id="edge9" class="edge"><title>Node243&#45;&gt;Node249</title>
<path fill="none" stroke="midnightblue" d="M329.182,-25.4284C382.083,-21.424 465.91,-15.0785 507.65,-11.919"/>
<polygon fill="midnightblue" stroke="midnightblue" points="328.743,-21.9516 319.036,-26.1965 329.272,-28.9316 328.743,-21.9516"/>
</g>
<!-- Node245 -->
<g id="node5" class="node"><title>Node245</title>
<g id="a_node5"><a xlink:href="run_8c.html#a05e0ffe612d44e6d7f3a9ae5b9df56a2" target="_top" xlink:title="run">
<polygon fill="white" stroke="black" points="519,-38.5 519,-57.5 549,-57.5 549,-38.5 519,-38.5"/>
<text text-anchor="middle" x="534" y="-45.5" font-family="Helvetica,sans-Serif" font-size="10.00">run</text>
</a>
</g>
</g>
<!-- Node244&#45;&gt;Node245 -->
<g id="edge4" class="edge"><title>Node244&#45;&gt;Node245</title>
<path fill="none" stroke="midnightblue" d="M482.22,-48C496.142,-48 509.428,-48 518.916,-48"/>
<polygon fill="midnightblue" stroke="midnightblue" points="482.014,-44.5001 472.014,-48 482.014,-51.5001 482.014,-44.5001"/>
</g>
<!-- Node246 -->
<g id="node6" class="node"><title>Node246</title>
<g id="a_node6"><a xlink:href="main_8c.html#a3c04138a5bfe5d72780bb7e82a18e627" target="_top" xlink:title="main">
<polygon fill="white" stroke="black" points="596,-0.5 596,-19.5 634,-19.5 634,-0.5 596,-0.5"/>
<text text-anchor="middle" x="615" y="-7.5" font-family="Helvetica,sans-Serif" font-size="10.00">main</text>
</a>
</g>
</g>
<!-- Node245&#45;&gt;Node246 -->
<g id="edge5" class="edge"><title>Node245&#45;&gt;Node246</title>
<path fill="none" stroke="midnightblue" d="M558.484,-36.7039C570.432,-30.9569 584.733,-24.0778 595.828,-18.7411"/>
<polygon fill="midnightblue" stroke="midnightblue" points="556.618,-33.7175 549.124,-41.2064 559.652,-40.0257 556.618,-33.7175"/>
</g>
<!-- Node247 -->
<g id="node7" class="node"><title>Node247</title>
<g id="a_node7"><a xlink:href="walltime_8h.html#a76d2135b612766d4d665748454b879d6" target="_top" xlink:title="walltime_report">
<polygon fill="white" stroke="black" points="670,-0.5 670,-19.5 753,-19.5 753,-0.5 670,-0.5"/>
<text text-anchor="middle" x="711.5" y="-7.5" font-family="Helvetica,sans-Serif" font-size="10.00">walltime_report</text>
</a>
</g>
</g>
<!-- Node246&#45;&gt;Node247 -->
<g id="edge6" class="edge"><title>Node246&#45;&gt;Node247</title>
<path fill="none" stroke="midnightblue" d="M644.411,-10C652.347,-10 661.132,-10 669.635,-10"/>
<polygon fill="midnightblue" stroke="midnightblue" points="644.221,-6.5001 634.221,-10 644.221,-13.5001 644.221,-6.5001"/>
</g>
<!-- Node248 -->
<g id="node8" class="node"><title>Node248</title>
<g id="a_node8"><a xlink:href="run_8c.html#adc59e9ee1517e4e690694a64ab6a59d2" target="_top" xlink:title="write_cpu_log">
<polygon fill="white" stroke="black" points="789,-19.5 789,-38.5 866,-38.5 866,-19.5 789,-19.5"/>
<text text-anchor="middle" x="827.5" y="-26.5" font-family="Helvetica,sans-Serif" font-size="10.00">write_cpu_log</text>
</a>
</g>
</g>
<!-- Node247&#45;&gt;Node248 -->
<g id="edge7" class="edge"><title>Node247&#45;&gt;Node248</title>
<path fill="none" stroke="midnightblue" d="M763.031,-18.4218C771.684,-19.8641 780.54,-21.3399 788.785,-22.7141"/>
<polygon fill="midnightblue" stroke="midnightblue" points="763.452,-14.9439 753.013,-16.7522 762.302,-21.8486 763.452,-14.9439"/>
</g>
<!-- Node248&#45;&gt;Node245 -->
<g id="edge8" class="edge"><title>Node248&#45;&gt;Node245</title>
<path fill="none" stroke="midnightblue" d="M778.767,-32.1113C710.862,-36.5373 590.058,-44.4113 549.06,-47.0836"/>
<polygon fill="midnightblue" stroke="midnightblue" points="779.037,-35.6012 788.788,-31.4581 778.582,-28.616 779.037,-35.6012"/>
</g>
<!-- Node249&#45;&gt;Node246 -->
<g id="edge10" class="edge"><title>Node249&#45;&gt;Node246</title>
<path fill="none" stroke="midnightblue" d="M570.506,-10C579.283,-10 588.325,-10 595.876,-10"/>
<polygon fill="midnightblue" stroke="midnightblue" points="570.431,-6.5001 560.431,-10 570.431,-13.5001 570.431,-6.5001"/>
</g>
</g>
</svg>
