<?xml version="1.0" encoding="UTF-8" standalone="no"?>
<!DOCTYPE svg PUBLIC "-//W3C//DTD SVG 1.1//EN"
 "http://www.w3.org/Graphics/SVG/1.1/DTD/svg11.dtd">
<!-- Generated by graphviz version 2.50.0 (0)
 -->
<!-- Title: layout_build_and_exchange_cells_to_local Pages: 1 -->
<svg width="1054pt" height="322pt"
 viewBox="0.00 0.00 1054.00 322.00" xmlns="http://www.w3.org/2000/svg" xmlns:xlink="http://www.w3.org/1999/xlink">
<g id="graph0" class="graph" transform="scale(1 1) rotate(0) translate(4 318)">
<title>layout_build_and_exchange_cells_to_local</title>
<polygon fill="white" stroke="transparent" points="-4,4 -4,-318 1050,-318 1050,4 -4,4"/>
<!-- Node1 -->
<g id="node1" class="node">
<title>Node1</title>
<g id="a_node1"><a xlink:title=" ">
<polygon fill="#bfbfbf" stroke="black" points="894,-251 894,-281 1046,-281 1046,-251 894,-251"/>
<text text-anchor="start" x="902" y="-269" font-family="Helvetica,sans-Serif" font-size="10.00">layout_build_and_exchange</text>
<text text-anchor="middle" x="970" y="-258" font-family="Helvetica,sans-Serif" font-size="10.00">_cells_to_local</text>
</a>
</g>
</g>
<!-- Node2 -->
<g id="node2" class="node">
<title>Node2</title>
<g id="a_node2"><a xlink:href="petapm_8c.html#ac35489f5024cfcba2e1714872e4e3d75" target="_top" xlink:title=" ">
<polygon fill="white" stroke="black" points="754,-256.5 754,-275.5 858,-275.5 858,-256.5 754,-256.5"/>
<text text-anchor="middle" x="806" y="-263.5" font-family="Helvetica,sans-Serif" font-size="10.00">petapm_force_c2r</text>
</a>
</g>
</g>
<!-- Node1&#45;&gt;Node2 -->
<g id="edge1" class="edge">
<title>Node1&#45;&gt;Node2</title>
<path fill="none" stroke="midnightblue" d="M883.5,-266C874.82,-266 866.21,-266 858.07,-266"/>
<polygon fill="midnightblue" stroke="midnightblue" points="883.69,-269.5 893.69,-266 883.69,-262.5 883.69,-269.5"/>
</g>
<!-- Node3 -->
<g id="node3" class="node">
<title>Node3</title>
<g id="a_node3"><a xlink:href="proto_8h.html#ac092ee14b0ff9a79f0cbff51dad5ff8b" target="_top" xlink:title=" ">
<polygon fill="white" stroke="black" points="604,-294.5 604,-313.5 718,-313.5 718,-294.5 604,-294.5"/>
<text text-anchor="middle" x="661" y="-301.5" font-family="Helvetica,sans-Serif" font-size="10.00">displacement_fields</text>
</a>
</g>
</g>
<!-- Node2&#45;&gt;Node3 -->
<g id="edge2" class="edge">
<title>Node2&#45;&gt;Node3</title>
<path fill="none" stroke="midnightblue" d="M759.19,-278.17C739.41,-283.43 716.62,-289.49 698.07,-294.41"/>
<polygon fill="midnightblue" stroke="midnightblue" points="760.15,-281.54 768.92,-275.59 758.35,-274.77 760.15,-281.54"/>
</g>
<!-- Node5 -->
<g id="node5" class="node">
<title>Node5</title>
<g id="a_node5"><a xlink:href="petapm_8c.html#adbee898702dea4f70211d263d1a597fa" target="_top" xlink:title=" ">
<polygon fill="white" stroke="black" points="619,-237.5 619,-256.5 703,-256.5 703,-237.5 619,-237.5"/>
<text text-anchor="middle" x="661" y="-244.5" font-family="Helvetica,sans-Serif" font-size="10.00">petapm_force</text>
</a>
</g>
</g>
<!-- Node2&#45;&gt;Node5 -->
<g id="edge4" class="edge">
<title>Node2&#45;&gt;Node5</title>
<path fill="none" stroke="midnightblue" d="M743.86,-257.88C730.06,-256.04 715.75,-254.14 703.01,-252.45"/>
<polygon fill="midnightblue" stroke="midnightblue" points="743.4,-261.35 753.78,-259.19 744.33,-254.41 743.4,-261.35"/>
</g>
<!-- Node4 -->
<g id="node4" class="node">
<title>Node4</title>
<g id="a_node4"><a xlink:href="genic_2main_8c.html#a3c04138a5bfe5d72780bb7e82a18e627" target="_top" xlink:title=" ">
<polygon fill="white" stroke="black" points="110.5,-266.5 110.5,-285.5 151.5,-285.5 151.5,-266.5 110.5,-266.5"/>
<text text-anchor="middle" x="131" y="-273.5" font-family="Helvetica,sans-Serif" font-size="10.00">main</text>
</a>
</g>
</g>
<!-- Node3&#45;&gt;Node4 -->
<g id="edge3" class="edge">
<title>Node3&#45;&gt;Node4</title>
<path fill="none" stroke="midnightblue" d="M593.79,-300.49C473.17,-294.09 223.48,-280.85 151.7,-277.04"/>
<polygon fill="midnightblue" stroke="midnightblue" points="593.82,-304 603.99,-301.03 594.19,-297.01 593.82,-304"/>
</g>
<!-- Node6 -->
<g id="node6" class="node">
<title>Node6</title>
<g id="a_node6"><a xlink:href="glass_8c.html#aff9d18f179aec42029b6ce1c04b40394" target="_top" xlink:title=" ">
<polygon fill="white" stroke="black" points="490,-237.5 490,-256.5 562,-256.5 562,-237.5 490,-237.5"/>
<text text-anchor="middle" x="526" y="-244.5" font-family="Helvetica,sans-Serif" font-size="10.00">glass_force</text>
</a>
</g>
</g>
<!-- Node5&#45;&gt;Node6 -->
<g id="edge5" class="edge">
<title>Node5&#45;&gt;Node6</title>
<path fill="none" stroke="midnightblue" d="M608.62,-247C593.04,-247 576.3,-247 562.06,-247"/>
<polygon fill="midnightblue" stroke="midnightblue" points="608.65,-250.5 618.65,-247 608.65,-243.5 608.65,-250.5"/>
</g>
<!-- Node9 -->
<g id="node9" class="node">
<title>Node9</title>
<g id="a_node9"><a xlink:href="gravity_8h.html#ad95fd36f6f2e0ca8664796f845d5326c" target="_top" xlink:title=" ">
<polygon fill="white" stroke="black" points="484,-76.5 484,-95.5 568,-95.5 568,-76.5 484,-76.5"/>
<text text-anchor="middle" x="526" y="-83.5" font-family="Helvetica,sans-Serif" font-size="10.00">gravpm_force</text>
</a>
</g>
</g>
<!-- Node5&#45;&gt;Node9 -->
<g id="edge10" class="edge">
<title>Node5&#45;&gt;Node9</title>
<path fill="none" stroke="midnightblue" d="M645.39,-229.32C617.36,-195.38 556.86,-122.15 535.05,-95.74"/>
<polygon fill="midnightblue" stroke="midnightblue" points="643.01,-231.93 652.08,-237.41 648.41,-227.47 643.01,-231.93"/>
</g>
<!-- Node7 -->
<g id="node7" class="node">
<title>Node7</title>
<g id="a_node7"><a xlink:href="glass_8c.html#a1d1eb3d928cf1ed0d387a2627f12ba74" target="_top" xlink:title=" ">
<polygon fill="white" stroke="black" points="360,-237.5 360,-256.5 440,-256.5 440,-237.5 360,-237.5"/>
<text text-anchor="middle" x="400" y="-244.5" font-family="Helvetica,sans-Serif" font-size="10.00">glass_evolve</text>
</a>
</g>
</g>
<!-- Node6&#45;&gt;Node7 -->
<g id="edge6" class="edge">
<title>Node6&#45;&gt;Node7</title>
<path fill="none" stroke="midnightblue" d="M479.69,-247C466.75,-247 452.76,-247 440.21,-247"/>
<polygon fill="midnightblue" stroke="midnightblue" points="479.8,-250.5 489.8,-247 479.8,-243.5 479.8,-250.5"/>
</g>
<!-- Node7&#45;&gt;Node4 -->
<g id="edge7" class="edge">
<title>Node7&#45;&gt;Node4</title>
<path fill="none" stroke="midnightblue" d="M349.77,-253.07C338.67,-254.4 326.93,-255.78 316,-257 256.16,-263.69 185.27,-270.77 151.62,-274.08"/>
<polygon fill="midnightblue" stroke="midnightblue" points="350.24,-256.54 359.75,-251.87 349.4,-249.59 350.24,-256.54"/>
</g>
<!-- Node8 -->
<g id="node8" class="node">
<title>Node8</title>
<g id="a_node8"><a xlink:href="glass_8c.html#a0367c64a7f21802f27f837d7a8ad6951" target="_top" xlink:title=" ">
<polygon fill="white" stroke="black" points="231.5,-228.5 231.5,-247.5 305.5,-247.5 305.5,-228.5 231.5,-228.5"/>
<text text-anchor="middle" x="268.5" y="-235.5" font-family="Helvetica,sans-Serif" font-size="10.00">setup_glass</text>
</a>
</g>
</g>
<!-- Node7&#45;&gt;Node8 -->
<g id="edge8" class="edge">
<title>Node7&#45;&gt;Node8</title>
<path fill="none" stroke="midnightblue" d="M349.48,-243.56C335,-242.55 319.43,-241.47 305.92,-240.53"/>
<polygon fill="midnightblue" stroke="midnightblue" points="349.58,-247.07 359.79,-244.28 350.06,-240.09 349.58,-247.07"/>
</g>
<!-- Node8&#45;&gt;Node4 -->
<g id="edge9" class="edge">
<title>Node8&#45;&gt;Node4</title>
<path fill="none" stroke="midnightblue" d="M223.62,-250.3C199.47,-257.08 170.66,-265.16 151.88,-270.42"/>
<polygon fill="midnightblue" stroke="midnightblue" points="224.62,-253.66 233.31,-247.59 222.73,-246.92 224.62,-253.66"/>
</g>
<!-- Node10 -->
<g id="node10" class="node">
<title>Node10</title>
<g id="a_node10"><a xlink:href="test__gravity_8c.html#aa6bdcef3f6cb327efb3f2f993f64b7ce" target="_top" xlink:title=" ">
<polygon fill="white" stroke="black" points="358.5,-133.5 358.5,-152.5 441.5,-152.5 441.5,-133.5 358.5,-133.5"/>
<text text-anchor="middle" x="400" y="-140.5" font-family="Helvetica,sans-Serif" font-size="10.00">do_force_test</text>
</a>
</g>
</g>
<!-- Node9&#45;&gt;Node10 -->
<g id="edge11" class="edge">
<title>Node9&#45;&gt;Node10</title>
<path fill="none" stroke="midnightblue" d="M495.07,-99.76C472.42,-110.17 441.87,-124.21 421.82,-133.43"/>
<polygon fill="midnightblue" stroke="midnightblue" points="496.62,-102.9 504.25,-95.54 493.7,-96.54 496.62,-102.9"/>
</g>
<!-- Node16 -->
<g id="node16" class="node">
<title>Node16</title>
<g id="a_node16"><a xlink:href="run_8c.html#a89690448ef43a8d624b963382b7503ed" target="_top" xlink:title=" ">
<polygon fill="white" stroke="black" points="384,-76.5 384,-95.5 416,-95.5 416,-76.5 384,-76.5"/>
<text text-anchor="middle" x="400" y="-83.5" font-family="Helvetica,sans-Serif" font-size="10.00">run</text>
</a>
</g>
</g>
<!-- Node9&#45;&gt;Node16 -->
<g id="edge19" class="edge">
<title>Node9&#45;&gt;Node16</title>
<path fill="none" stroke="midnightblue" d="M473.68,-86C452.9,-86 430.47,-86 416.11,-86"/>
<polygon fill="midnightblue" stroke="midnightblue" points="473.71,-89.5 483.71,-86 473.71,-82.5 473.71,-89.5"/>
</g>
<!-- Node18 -->
<g id="node18" class="node">
<title>Node18</title>
<g id="a_node18"><a xlink:href="run_8h.html#aa438e424237818b7728b98cd764e45d1" target="_top" xlink:title=" ">
<polygon fill="white" stroke="black" points="352,-38.5 352,-57.5 448,-57.5 448,-38.5 352,-38.5"/>
<text text-anchor="middle" x="400" y="-45.5" font-family="Helvetica,sans-Serif" font-size="10.00">run_gravity_test</text>
</a>
</g>
</g>
<!-- Node9&#45;&gt;Node18 -->
<g id="edge21" class="edge">
<title>Node9&#45;&gt;Node18</title>
<path fill="none" stroke="midnightblue" d="M484.1,-73.46C467.23,-68.3 447.99,-62.4 432.28,-57.59"/>
<polygon fill="midnightblue" stroke="midnightblue" points="483.12,-76.83 493.71,-76.41 485.17,-70.13 483.12,-76.83"/>
</g>
<!-- Node20 -->
<g id="node20" class="node">
<title>Node20</title>
<g id="a_node20"><a xlink:href="run_8c.html#afc20ced36c74991ca5c2004510c6c628" target="_top" xlink:title=" ">
<polygon fill="white" stroke="black" points="369,-0.5 369,-19.5 431,-19.5 431,-0.5 369,-0.5"/>
<text text-anchor="middle" x="400" y="-7.5" font-family="Helvetica,sans-Serif" font-size="10.00">runpower</text>
</a>
</g>
</g>
<!-- Node9&#45;&gt;Node20 -->
<g id="edge24" class="edge">
<title>Node9&#45;&gt;Node20</title>
<path fill="none" stroke="midnightblue" d="M505.87,-69.7C490.83,-57.42 468.98,-40.76 448,-29 441.7,-25.47 434.62,-22.26 427.9,-19.51"/>
<polygon fill="midnightblue" stroke="midnightblue" points="503.95,-72.65 513.88,-76.35 508.42,-67.26 503.95,-72.65"/>
</g>
<!-- Node11 -->
<g id="node11" class="node">
<title>Node11</title>
<g id="a_node11"><a xlink:href="test__gravity_8c.html#a31e06bbad4eac810c349a6bc44a0aa08" target="_top" xlink:title=" ">
<polygon fill="white" stroke="black" points="221,-190.5 221,-209.5 316,-209.5 316,-190.5 221,-190.5"/>
<text text-anchor="middle" x="268.5" y="-197.5" font-family="Helvetica,sans-Serif" font-size="10.00">do_random_test</text>
</a>
</g>
</g>
<!-- Node10&#45;&gt;Node11 -->
<g id="edge12" class="edge">
<title>Node10&#45;&gt;Node11</title>
<path fill="none" stroke="midnightblue" d="M368.06,-156.62C344.37,-167.05 312.28,-181.17 291.25,-190.43"/>
<polygon fill="midnightblue" stroke="midnightblue" points="369.58,-159.77 377.32,-152.54 366.76,-153.37 369.58,-159.77"/>
</g>
<!-- Node14 -->
<g id="node14" class="node">
<title>Node14</title>
<g id="a_node14"><a xlink:href="test__gravity_8c.html#ac3391a3ee98d428389e50b886e988c63" target="_top" xlink:title=" ">
<polygon fill="white" stroke="black" points="83,-152.5 83,-171.5 179,-171.5 179,-152.5 83,-152.5"/>
<text text-anchor="middle" x="131" y="-159.5" font-family="Helvetica,sans-Serif" font-size="10.00">test_force_close</text>
</a>
</g>
</g>
<!-- Node10&#45;&gt;Node14 -->
<g id="edge15" class="edge">
<title>Node10&#45;&gt;Node14</title>
<path fill="none" stroke="midnightblue" d="M348.45,-146.6C299.79,-150.06 226.77,-155.26 179.25,-158.64"/>
<polygon fill="midnightblue" stroke="midnightblue" points="348.72,-150.09 358.45,-145.89 348.23,-143.1 348.72,-150.09"/>
</g>
<!-- Node15 -->
<g id="node15" class="node">
<title>Node15</title>
<g id="a_node15"><a xlink:href="test__gravity_8c.html#a87bcba11fc8f8f2ad649784bb1b8a48d" target="_top" xlink:title=" ">
<polygon fill="white" stroke="black" points="225.5,-114.5 225.5,-133.5 311.5,-133.5 311.5,-114.5 225.5,-114.5"/>
<text text-anchor="middle" x="268.5" y="-121.5" font-family="Helvetica,sans-Serif" font-size="10.00">test_force_flat</text>
</a>
</g>
</g>
<!-- Node10&#45;&gt;Node15 -->
<g id="edge17" class="edge">
<title>Node10&#45;&gt;Node15</title>
<path fill="none" stroke="midnightblue" d="M348.4,-135.58C336.28,-133.8 323.46,-131.92 311.76,-130.2"/>
<polygon fill="midnightblue" stroke="midnightblue" points="347.98,-139.05 358.38,-137.04 348.99,-132.13 347.98,-139.05"/>
</g>
<!-- Node12 -->
<g id="node12" class="node">
<title>Node12</title>
<g id="a_node12"><a xlink:href="test__gravity_8c.html#a17492d7388898745e66a636173c8ce1d" target="_top" xlink:title=" ">
<polygon fill="white" stroke="black" points="77,-190.5 77,-209.5 185,-209.5 185,-190.5 77,-190.5"/>
<text text-anchor="middle" x="131" y="-197.5" font-family="Helvetica,sans-Serif" font-size="10.00">test_force_random</text>
</a>
</g>
</g>
<!-- Node11&#45;&gt;Node12 -->
<g id="edge13" class="edge">
<title>Node11&#45;&gt;Node12</title>
<path fill="none" stroke="midnightblue" d="M210.72,-200C202.28,-200 193.6,-200 185.23,-200"/>
<polygon fill="midnightblue" stroke="midnightblue" points="210.87,-203.5 220.87,-200 210.87,-196.5 210.87,-203.5"/>
</g>
<!-- Node13 -->
<g id="node13" class="node">
<title>Node13</title>
<g id="a_node13"><a xlink:href="test__gravity_8c.html#a840291bc02cba5474a4cb46a9b9566fe" target="_top" xlink:title=" ">
<polygon fill="white" stroke="black" points="0,-152.5 0,-171.5 41,-171.5 41,-152.5 0,-152.5"/>
<text text-anchor="middle" x="20.5" y="-159.5" font-family="Helvetica,sans-Serif" font-size="10.00">main</text>
</a>
</g>
</g>
<!-- Node12&#45;&gt;Node13 -->
<g id="edge14" class="edge">
<title>Node12&#45;&gt;Node13</title>
<path fill="none" stroke="midnightblue" d="M92.81,-186.97C75.54,-180.93 55.7,-173.98 41.34,-168.95"/>
<polygon fill="midnightblue" stroke="midnightblue" points="92.03,-190.41 102.62,-190.41 94.34,-183.8 92.03,-190.41"/>
</g>
<!-- Node14&#45;&gt;Node13 -->
<g id="edge16" class="edge">
<title>Node14&#45;&gt;Node13</title>
<path fill="none" stroke="midnightblue" d="M72.39,-162C61.13,-162 50.07,-162 41.15,-162"/>
<polygon fill="midnightblue" stroke="midnightblue" points="72.73,-165.5 82.73,-162 72.73,-158.5 72.73,-165.5"/>
</g>
<!-- Node15&#45;&gt;Node13 -->
<g id="edge18" class="edge">
<title>Node15&#45;&gt;Node13</title>
<path fill="none" stroke="midnightblue" d="M214.99,-125.98C176.44,-128.22 123.01,-132.97 77,-143 64.86,-145.65 51.69,-150.09 41.22,-154.01"/>
<polygon fill="midnightblue" stroke="midnightblue" points="215.65,-129.45 225.45,-125.42 215.27,-122.46 215.65,-129.45"/>
</g>
<!-- Node17 -->
<g id="node17" class="node">
<title>Node17</title>
<g id="a_node17"><a xlink:href="gadget_2main_8c.html#a3c04138a5bfe5d72780bb7e82a18e627" target="_top" xlink:title=" ">
<polygon fill="white" stroke="black" points="110.5,-38.5 110.5,-57.5 151.5,-57.5 151.5,-38.5 110.5,-38.5"/>
<text text-anchor="middle" x="131" y="-45.5" font-family="Helvetica,sans-Serif" font-size="10.00">main</text>
</a>
</g>
</g>
<!-- Node16&#45;&gt;Node17 -->
<g id="edge20" class="edge">
<title>Node16&#45;&gt;Node17</title>
<path fill="none" stroke="midnightblue" d="M373.51,-84.12C338.86,-81.37 275,-75.62 221,-67 196.97,-63.16 169.65,-57.07 151.68,-52.82"/>
<polygon fill="midnightblue" stroke="midnightblue" points="373.45,-87.62 383.69,-84.91 373.99,-80.64 373.45,-87.62"/>
</g>
<!-- Node19 -->
<g id="node19" class="node">
<title>Node19</title>
<g id="a_node19"><a xlink:href="run_8c.html#ab1d8bf99f794003fa95002043fe3b47c" target="_top" xlink:title=" ">
<polygon fill="white" stroke="black" points="240.5,-38.5 240.5,-57.5 296.5,-57.5 296.5,-38.5 240.5,-38.5"/>
<text text-anchor="middle" x="268.5" y="-45.5" font-family="Helvetica,sans-Serif" font-size="10.00">runtests</text>
</a>
</g>
</g>
<!-- Node18&#45;&gt;Node19 -->
<g id="edge22" class="edge">
<title>Node18&#45;&gt;Node19</title>
<path fill="none" stroke="midnightblue" d="M341.74,-48C326.12,-48 309.9,-48 296.81,-48"/>
<polygon fill="midnightblue" stroke="midnightblue" points="341.88,-51.5 351.88,-48 341.88,-44.5 341.88,-51.5"/>
</g>
<!-- Node19&#45;&gt;Node17 -->
<g id="edge23" class="edge">
<title>Node19&#45;&gt;Node17</title>
<path fill="none" stroke="midnightblue" d="M230.35,-48C204.89,-48 172.13,-48 151.59,-48"/>
<polygon fill="midnightblue" stroke="midnightblue" points="230.41,-51.5 240.41,-48 230.41,-44.5 230.41,-51.5"/>
</g>
<!-- Node20&#45;&gt;Node17 -->
<g id="edge25" class="edge">
<title>Node20&#45;&gt;Node17</title>
<path fill="none" stroke="midnightblue" d="M358.8,-13.09C322.62,-16.16 268.07,-21.49 221,-29 196.97,-32.84 169.65,-38.93 151.68,-43.18"/>
<polygon fill="midnightblue" stroke="midnightblue" points="359.28,-16.56 368.95,-12.25 358.7,-9.59 359.28,-16.56"/>
</g>
</g>
</svg>
