<?xml version="1.0" encoding="UTF-8" standalone="no"?>
<!DOCTYPE svg PUBLIC "-//W3C//DTD SVG 1.1//EN"
 "http://www.w3.org/Graphics/SVG/1.1/DTD/svg11.dtd">
<!-- Generated by graphviz version 2.38.0 (20140413.2041)
 -->
<!-- Title: layout_exchange_pencils Pages: 1 -->
<svg width="628pt" height="464pt"
 viewBox="0.00 0.00 628.00 464.48" xmlns="http://www.w3.org/2000/svg" xmlns:xlink="http://www.w3.org/1999/xlink">
<g id="graph0" class="graph" transform="scale(1 1) rotate(0) translate(4 460.477)">
<title>layout_exchange_pencils</title>
<polygon fill="white" stroke="none" points="-4,4 -4,-460.477 624,-460.477 624,4 -4,4"/>
<!-- Node49 -->
<g id="node1" class="node"><title>Node49</title>
<polygon fill="#bfbfbf" stroke="black" points="335.5,-312.269 335.5,-331.269 461.5,-331.269 461.5,-312.269 335.5,-312.269"/>
<text text-anchor="middle" x="398.5" y="-319.269" font-family="Helvetica,sans-Serif" font-size="10.00">layout_exchange_pencils</text>
</g>
<!-- Node50 -->
<g id="node2" class="node"><title>Node50</title>
<g id="a_node2"><a xlink:href="petapm_8c.html#acac4764b3825227b6bab00cffd96373c" target="_top" xlink:title="layout_prepare">
<polygon fill="white" stroke="black" points="394.5,-374.623 394.5,-393.623 474.5,-393.623 474.5,-374.623 394.5,-374.623"/>
<text text-anchor="middle" x="434.5" y="-381.623" font-family="Helvetica,sans-Serif" font-size="10.00">layout_prepare</text>
</a>
</g>
</g>
<!-- Node49&#45;&gt;Node50 -->
<g id="edge1" class="edge"><title>Node49&#45;&gt;Node50</title>
<path fill="none" stroke="midnightblue" d="M409.279,-340.439C415.691,-351.545 423.568,-365.189 428.796,-374.243"/>
<polygon fill="midnightblue" stroke="midnightblue" points="412.156,-338.422 404.125,-331.512 406.094,-341.922 412.156,-338.422"/>
</g>
<!-- Node52 -->
<g id="node4" class="node"><title>Node52</title>
<g id="a_node4"><a xlink:href="petapm_8h.html#a0dd847d1caccabe743e6c3fb81220225" target="_top" xlink:title="petapm_force">
<polygon fill="white" stroke="black" points="324.5,-249.915 324.5,-268.915 400.5,-268.915 400.5,-249.915 324.5,-249.915"/>
<text text-anchor="middle" x="362.5" y="-256.915" font-family="Helvetica,sans-Serif" font-size="10.00">petapm_force</text>
</a>
</g>
</g>
<!-- Node49&#45;&gt;Node52 -->
<g id="edge13" class="edge"><title>Node49&#45;&gt;Node52</title>
<path fill="none" stroke="midnightblue" d="M387.721,-303.099C381.309,-291.993 373.432,-278.349 368.204,-269.295"/>
<polygon fill="midnightblue" stroke="midnightblue" points="384.844,-305.116 392.875,-312.026 390.906,-301.616 384.844,-305.116"/>
</g>
<!-- Node51 -->
<g id="node3" class="node"><title>Node51</title>
<g id="a_node3"><a xlink:href="petapm_8h.html#a314a76588d1b30f2fc6dee4f6a9f7250" target="_top" xlink:title="petapm_force_init">
<polygon fill="white" stroke="black" points="423.5,-436.977 423.5,-455.977 517.5,-455.977 517.5,-436.977 423.5,-436.977"/>
<text text-anchor="middle" x="470.5" y="-443.977" font-family="Helvetica,sans-Serif" font-size="10.00">petapm_force_init</text>
</a>
</g>
</g>
<!-- Node50&#45;&gt;Node51 -->
<g id="edge2" class="edge"><title>Node50&#45;&gt;Node51</title>
<path fill="none" stroke="midnightblue" d="M445.279,-402.793C451.691,-413.899 459.568,-427.543 464.796,-436.597"/>
<polygon fill="midnightblue" stroke="midnightblue" points="448.156,-400.776 440.125,-393.866 442.094,-404.276 448.156,-400.776"/>
</g>
<!-- Node51&#45;&gt;Node52 -->
<g id="edge3" class="edge"><title>Node51&#45;&gt;Node52</title>
<path fill="none" stroke="midnightblue" d="M459.948,-428.2C437.43,-389.198 385.323,-298.947 368.123,-269.154"/>
<polygon fill="midnightblue" stroke="midnightblue" points="456.965,-430.033 464.996,-436.943 463.027,-426.533 456.965,-430.033"/>
</g>
<!-- Node53 -->
<g id="node5" class="node"><title>Node53</title>
<g id="a_node5"><a xlink:href="proto_8h.html#a6a55456b331c8b01d7ae1352809b82f2" target="_top" xlink:title="gravpm_force">
<polygon fill="white" stroke="black" points="288.5,-187.561 288.5,-206.561 364.5,-206.561 364.5,-187.561 288.5,-187.561"/>
<text text-anchor="middle" x="326.5" y="-194.561" font-family="Helvetica,sans-Serif" font-size="10.00">gravpm_force</text>
</a>
</g>
</g>
<!-- Node52&#45;&gt;Node53 -->
<g id="edge4" class="edge"><title>Node52&#45;&gt;Node53</title>
<path fill="none" stroke="midnightblue" d="M351.721,-240.745C345.309,-229.64 337.432,-215.996 332.204,-206.942"/>
<polygon fill="midnightblue" stroke="midnightblue" points="348.844,-242.762 356.875,-249.673 354.906,-239.262 348.844,-242.762"/>
</g>
<!-- Node54 -->
<g id="node6" class="node"><title>Node54</title>
<g id="a_node6"><a xlink:href="run_8c.html#abb80d08f4d52f4a7bdf28d1cecfead5b" target="_top" xlink:title="compute_accelerations">
<polygon fill="white" stroke="black" points="124,-312.269 124,-331.269 241,-331.269 241,-312.269 124,-312.269"/>
<text text-anchor="middle" x="182.5" y="-319.269" font-family="Helvetica,sans-Serif" font-size="10.00">compute_accelerations</text>
</a>
</g>
</g>
<!-- Node53&#45;&gt;Node54 -->
<g id="edge5" class="edge"><title>Node53&#45;&gt;Node54</title>
<path fill="none" stroke="midnightblue" d="M307.409,-213.594C276.953,-239.971 218.304,-290.762 193.747,-312.029"/>
<polygon fill="midnightblue" stroke="midnightblue" points="309.933,-216.039 315.201,-206.847 305.35,-210.748 309.933,-216.039"/>
</g>
<!-- Node59 -->
<g id="node11" class="node"><title>Node59</title>
<g id="a_node11"><a xlink:href="runtests_8c.html#a549024555ca61e3f05a7100307e44f69" target="_top" xlink:title="runtests">
<polygon fill="white" stroke="black" points="480.5,-125.208 480.5,-144.208 532.5,-144.208 532.5,-125.208 480.5,-125.208"/>
<text text-anchor="middle" x="506.5" y="-132.208" font-family="Helvetica,sans-Serif" font-size="10.00">runtests</text>
</a>
</g>
</g>
<!-- Node53&#45;&gt;Node59 -->
<g id="edge11" class="edge"><title>Node53&#45;&gt;Node59</title>
<path fill="none" stroke="midnightblue" d="M364.049,-184.054C398.915,-171.976 449.913,-154.31 480.492,-143.717"/>
<polygon fill="midnightblue" stroke="midnightblue" points="362.534,-180.875 354.231,-187.455 364.825,-187.489 362.534,-180.875"/>
</g>
<!-- Node55 -->
<g id="node7" class="node"><title>Node55</title>
<g id="a_node7"><a xlink:href="run_8c.html#a05e0ffe612d44e6d7f3a9ae5b9df56a2" target="_top" xlink:title="run">
<polygon fill="white" stroke="black" points="95.5,-312.269 95.5,-331.269 125.5,-331.269 125.5,-312.269 95.5,-312.269"/>
<text text-anchor="middle" x="110.5" y="-319.269" font-family="Helvetica,sans-Serif" font-size="10.00">run</text>
</a>
</g>
</g>
<!-- Node54&#45;&gt;Node55 -->
<g id="edge6" class="edge"><title>Node54&#45;&gt;Node55</title>
<path fill="none" stroke="midnightblue" d="M123.523,-321.769C123.462,-321.769 123.402,-321.769 123.341,-321.769"/>
<polygon fill="midnightblue" stroke="midnightblue" points="113.708,-325.275 123.706,-321.769 113.704,-318.275 113.708,-325.275"/>
</g>
<!-- Node56 -->
<g id="node8" class="node"><title>Node56</title>
<g id="a_node8"><a xlink:href="main_8c.html#a3c04138a5bfe5d72780bb7e82a18e627" target="_top" xlink:title="main">
<polygon fill="white" stroke="black" points="523.5,-62.8538 523.5,-81.8538 561.5,-81.8538 561.5,-62.8538 523.5,-62.8538"/>
<text text-anchor="middle" x="542.5" y="-69.8538" font-family="Helvetica,sans-Serif" font-size="10.00">main</text>
</a>
</g>
</g>
<!-- Node55&#45;&gt;Node56 -->
<g id="edge7" class="edge"><title>Node55&#45;&gt;Node56</title>
<path fill="none" stroke="midnightblue" d="M134.755,-307.765C213.321,-262.405 459.57,-120.234 525.902,-81.9368"/>
<polygon fill="midnightblue" stroke="midnightblue" points="132.532,-305.007 125.622,-313.039 136.032,-311.07 132.532,-305.007"/>
</g>
<!-- Node57 -->
<g id="node9" class="node"><title>Node57</title>
<g id="a_node9"><a xlink:href="walltime_8h.html#a76d2135b612766d4d665748454b879d6" target="_top" xlink:title="walltime_report">
<polygon fill="white" stroke="black" points="537,-0.5 537,-19.5 620,-19.5 620,-0.5 537,-0.5"/>
<text text-anchor="middle" x="578.5" y="-7.5" font-family="Helvetica,sans-Serif" font-size="10.00">walltime_report</text>
</a>
</g>
</g>
<!-- Node56&#45;&gt;Node57 -->
<g id="edge8" class="edge"><title>Node56&#45;&gt;Node57</title>
<path fill="none" stroke="midnightblue" d="M553.279,-53.6839C559.691,-42.5781 567.568,-28.9341 572.796,-19.8801"/>
<polygon fill="midnightblue" stroke="midnightblue" points="550.094,-52.2008 548.125,-62.611 556.156,-55.7008 550.094,-52.2008"/>
</g>
<!-- Node58 -->
<g id="node10" class="node"><title>Node58</title>
<g id="a_node10"><a xlink:href="run_8c.html#adc59e9ee1517e4e690694a64ab6a59d2" target="_top" xlink:title="write_cpu_log">
<polygon fill="white" stroke="black" points="7.10543e-15,-312.269 7.10543e-15,-331.269 77,-331.269 77,-312.269 7.10543e-15,-312.269"/>
<text text-anchor="middle" x="38.5" y="-319.269" font-family="Helvetica,sans-Serif" font-size="10.00">write_cpu_log</text>
</a>
</g>
</g>
<!-- Node57&#45;&gt;Node58 -->
<g id="edge9" class="edge"><title>Node57&#45;&gt;Node58</title>
<path fill="none" stroke="midnightblue" d="M553.222,-24.594C459.41,-78.7565 132.628,-267.424 55.0927,-312.189"/>
<polygon fill="midnightblue" stroke="midnightblue" points="555.134,-27.532 562.044,-19.5009 551.634,-21.4698 555.134,-27.532"/>
</g>
<!-- Node58&#45;&gt;Node55 -->
<g id="edge10" class="edge"><title>Node58&#45;&gt;Node55</title>
<path fill="none" stroke="midnightblue" d="M87.2474,-321.769C90.1476,-321.769 92.921,-321.769 95.4777,-321.769"/>
<polygon fill="midnightblue" stroke="midnightblue" points="87.0294,-318.269 77.0294,-321.769 87.0294,-325.269 87.0294,-318.269"/>
</g>
<!-- Node59&#45;&gt;Node56 -->
<g id="edge12" class="edge"><title>Node59&#45;&gt;Node56</title>
<path fill="none" stroke="midnightblue" d="M517.279,-116.038C523.691,-104.932 531.568,-91.2879 536.796,-82.234"/>
<polygon fill="midnightblue" stroke="midnightblue" points="514.094,-114.555 512.125,-124.965 520.156,-118.055 514.094,-114.555"/>
</g>
</g>
</svg>
