<?xml version="1.0" encoding="UTF-8" standalone="no"?>
<!DOCTYPE svg PUBLIC "-//W3C//DTD SVG 1.1//EN"
 "http://www.w3.org/Graphics/SVG/1.1/DTD/svg11.dtd">
<!-- Generated by graphviz version 2.50.0 (0)
 -->
<!-- Title: petaio_readout_buffer Pages: 1 -->
<svg width="523pt" height="28pt"
 viewBox="0.00 0.00 523.00 28.00" xmlns="http://www.w3.org/2000/svg" xmlns:xlink="http://www.w3.org/1999/xlink">
<g id="graph0" class="graph" transform="scale(1 1) rotate(0) translate(4 24)">
<title>petaio_readout_buffer</title>
<polygon fill="white" stroke="transparent" points="-4,4 -4,-24 519,-24 519,4 -4,4"/>
<!-- Node1 -->
<g id="node1" class="node">
<title>Node1</title>
<g id="a_node1"><a xlink:title=" ">
<polygon fill="#bfbfbf" stroke="black" points="391,-0.5 391,-19.5 515,-19.5 515,-0.5 391,-0.5"/>
<text text-anchor="middle" x="453" y="-7.5" font-family="Helvetica,sans-Serif" font-size="10.00">petaio_readout_buffer</text>
</a>
</g>
</g>
<!-- Node2 -->
<g id="node2" class="node">
<title>Node2</title>
<g id="a_node2"><a xlink:href="petaio_8c.html#a18ce9fa2faeaab142a978b2293493b5d" target="_top" xlink:title=" ">
<polygon fill="white" stroke="black" points="231,-0.5 231,-19.5 355,-19.5 355,-0.5 231,-0.5"/>
<text text-anchor="middle" x="293" y="-7.5" font-family="Helvetica,sans-Serif" font-size="10.00">petaio_read_snapshot</text>
</a>
</g>
</g>
<!-- Node1&#45;&gt;Node2 -->
<g id="edge1" class="edge">
<title>Node1&#45;&gt;Node2</title>
<path fill="none" stroke="midnightblue" d="M380.63,-10C372.14,-10 363.52,-10 355.18,-10"/>
<polygon fill="midnightblue" stroke="midnightblue" points="380.91,-13.5 390.91,-10 380.91,-6.5 380.91,-13.5"/>
</g>
<!-- Node3 -->
<g id="node3" class="node">
<title>Node3</title>
<g id="a_node3"><a xlink:href="init_8c.html#ac2e8594acf366f237632083d743efb0a" target="_top" xlink:title=" ">
<polygon fill="white" stroke="black" points="163,-0.5 163,-19.5 195,-19.5 195,-0.5 163,-0.5"/>
<text text-anchor="middle" x="179" y="-7.5" font-family="Helvetica,sans-Serif" font-size="10.00">init</text>
</a>
</g>
</g>
<!-- Node2&#45;&gt;Node3 -->
<g id="edge2" class="edge">
<title>Node2&#45;&gt;Node3</title>
<path fill="none" stroke="midnightblue" d="M220.62,-10C211.06,-10 202.16,-10 195.13,-10"/>
<polygon fill="midnightblue" stroke="midnightblue" points="220.76,-13.5 230.76,-10 220.76,-6.5 220.76,-13.5"/>
</g>
<!-- Node4 -->
<g id="node4" class="node">
<title>Node4</title>
<g id="a_node4"><a xlink:href="run_8c.html#aee4609880c9e92e1c421c4bd238589fd" target="_top" xlink:title=" ">
<polygon fill="white" stroke="black" points="77,-0.5 77,-19.5 127,-19.5 127,-0.5 77,-0.5"/>
<text text-anchor="middle" x="102" y="-7.5" font-family="Helvetica,sans-Serif" font-size="10.00">begrun</text>
</a>
</g>
</g>
<!-- Node3&#45;&gt;Node4 -->
<g id="edge3" class="edge">
<title>Node3&#45;&gt;Node4</title>
<path fill="none" stroke="midnightblue" d="M152.61,-10C144.34,-10 135.18,-10 127.01,-10"/>
<polygon fill="midnightblue" stroke="midnightblue" points="152.82,-13.5 162.82,-10 152.82,-6.5 152.82,-13.5"/>
</g>
<!-- Node5 -->
<g id="node5" class="node">
<title>Node5</title>
<g id="a_node5"><a xlink:href="gadget_2main_8c.html#a3c04138a5bfe5d72780bb7e82a18e627" target="_top" xlink:title=" ">
<polygon fill="white" stroke="black" points="0,-0.5 0,-19.5 41,-19.5 41,-0.5 0,-0.5"/>
<text text-anchor="middle" x="20.5" y="-7.5" font-family="Helvetica,sans-Serif" font-size="10.00">main</text>
</a>
</g>
</g>
<!-- Node4&#45;&gt;Node5 -->
<g id="edge4" class="edge">
<title>Node4&#45;&gt;Node5</title>
<path fill="none" stroke="midnightblue" d="M66.71,-10C57.96,-10 48.84,-10 41.11,-10"/>
<polygon fill="midnightblue" stroke="midnightblue" points="66.72,-13.5 76.72,-10 66.72,-6.5 66.72,-13.5"/>
</g>
</g>
</svg>
