<?xml version="1.0" encoding="UTF-8" standalone="no"?>
<!DOCTYPE svg PUBLIC "-//W3C//DTD SVG 1.1//EN"
 "http://www.w3.org/Graphics/SVG/1.1/DTD/svg11.dtd">
<!-- Generated by graphviz version 2.50.0 (0)
 -->
<!-- Title: libgadget/petaio.h Pages: 1 -->
<svg width="892pt" height="151pt"
 viewBox="0.00 0.00 891.50 151.00" xmlns="http://www.w3.org/2000/svg" xmlns:xlink="http://www.w3.org/1999/xlink">
<g id="graph0" class="graph" transform="scale(1 1) rotate(0) translate(4 147)">
<title>libgadget/petaio.h</title>
<polygon fill="white" stroke="transparent" points="-4,4 -4,-147 887.5,-147 887.5,4 -4,4"/>
<!-- Node1 -->
<g id="node1" class="node">
<title>Node1</title>
<g id="a_node1"><a xlink:title=" ">
<polygon fill="#bfbfbf" stroke="black" points="404,-123.5 404,-142.5 509,-142.5 509,-123.5 404,-123.5"/>
<text text-anchor="middle" x="456.5" y="-130.5" font-family="Helvetica,sans-Serif" font-size="10.00">libgadget/petaio.h</text>
</a>
</g>
</g>
<!-- Node2 -->
<g id="node2" class="node">
<title>Node2</title>
<g id="a_node2"><a xlink:href="checkpoint_8c.html" target="_top" xlink:title=" ">
<polygon fill="white" stroke="black" points="0,-62 0,-81 127,-81 127,-62 0,-62"/>
<text text-anchor="middle" x="63.5" y="-69" font-family="Helvetica,sans-Serif" font-size="10.00">libgadget/checkpoint.c</text>
</a>
</g>
</g>
<!-- Node1&#45;&gt;Node2 -->
<g id="edge1" class="edge">
<title>Node1&#45;&gt;Node2</title>
<path fill="none" stroke="midnightblue" d="M393.95,-124.26C329.33,-116.02 225.63,-102.11 136.5,-87 126.05,-85.23 114.81,-83.11 104.35,-81.04"/>
<polygon fill="midnightblue" stroke="midnightblue" points="393.62,-127.75 403.98,-125.54 394.5,-120.81 393.62,-127.75"/>
</g>
<!-- Node3 -->
<g id="node3" class="node">
<title>Node3</title>
<g id="a_node3"><a xlink:href="fofpetaio_8c.html" target="_top" xlink:title=" ">
<polygon fill="white" stroke="black" points="145.5,-62 145.5,-81 263.5,-81 263.5,-62 145.5,-62"/>
<text text-anchor="middle" x="204.5" y="-69" font-family="Helvetica,sans-Serif" font-size="10.00">libgadget/fofpetaio.c</text>
</a>
</g>
</g>
<!-- Node1&#45;&gt;Node3 -->
<g id="edge2" class="edge">
<title>Node1&#45;&gt;Node3</title>
<path fill="none" stroke="midnightblue" d="M410.39,-121.11C361.48,-109.57 285.23,-91.56 240.54,-81.01"/>
<polygon fill="midnightblue" stroke="midnightblue" points="409.86,-124.58 420.39,-123.48 411.47,-117.77 409.86,-124.58"/>
</g>
<!-- Node4 -->
<g id="node4" class="node">
<title>Node4</title>
<g id="a_node4"><a xlink:href="init_8c.html" target="_top" xlink:title="code for initialisation of a simulation from initial conditions">
<polygon fill="white" stroke="black" points="213,-0.5 213,-19.5 302,-19.5 302,-0.5 213,-0.5"/>
<text text-anchor="middle" x="257.5" y="-7.5" font-family="Helvetica,sans-Serif" font-size="10.00">libgadget/init.c</text>
</a>
</g>
</g>
<!-- Node1&#45;&gt;Node4 -->
<g id="edge3" class="edge">
<title>Node1&#45;&gt;Node4</title>
<path fill="none" stroke="midnightblue" d="M393.79,-122.2C366.3,-115.61 334.83,-104.75 310.5,-87 285.68,-68.89 268.39,-35.5 261.22,-19.71"/>
<polygon fill="midnightblue" stroke="midnightblue" points="393.2,-125.65 403.72,-124.44 394.74,-118.82 393.2,-125.65"/>
</g>
<!-- Node5 -->
<g id="node5" class="node">
<title>Node5</title>
<g id="a_node5"><a xlink:href="init_8h.html" target="_top" xlink:title=" ">
<polygon fill="white" stroke="black" points="319.5,-62 319.5,-81 409.5,-81 409.5,-62 319.5,-62"/>
<text text-anchor="middle" x="364.5" y="-69" font-family="Helvetica,sans-Serif" font-size="10.00">libgadget/init.h</text>
</a>
</g>
</g>
<!-- Node1&#45;&gt;Node5 -->
<g id="edge4" class="edge">
<title>Node1&#45;&gt;Node5</title>
<path fill="none" stroke="midnightblue" d="M434.74,-117.93C417.01,-106.46 392.54,-90.63 377.66,-81.01"/>
<polygon fill="midnightblue" stroke="midnightblue" points="433.02,-120.98 443.32,-123.48 436.82,-115.11 433.02,-120.98"/>
</g>
<!-- Node6 -->
<g id="node6" class="node">
<title>Node6</title>
<g id="a_node6"><a xlink:href="run_8c.html" target="_top" xlink:title="iterates over timesteps, main loop">
<polygon fill="white" stroke="black" points="320,-0.5 320,-19.5 409,-19.5 409,-0.5 320,-0.5"/>
<text text-anchor="middle" x="364.5" y="-7.5" font-family="Helvetica,sans-Serif" font-size="10.00">libgadget/run.c</text>
</a>
</g>
</g>
<!-- Node1&#45;&gt;Node6 -->
<g id="edge10" class="edge">
<title>Node1&#45;&gt;Node6</title>
<path fill="none" stroke="midnightblue" d="M449.95,-113.97C443.52,-97.76 432.62,-73.83 418.5,-56 406.83,-41.27 389.66,-27.98 377.83,-19.72"/>
<polygon fill="midnightblue" stroke="midnightblue" points="446.7,-115.26 453.53,-123.36 453.24,-112.77 446.7,-115.26"/>
</g>
<!-- Node7 -->
<g id="node7" class="node">
<title>Node7</title>
<g id="a_node7"><a xlink:href="gadget_2params_8c.html" target="_top" xlink:title=" ">
<polygon fill="white" stroke="black" points="427.5,-0.5 427.5,-19.5 525.5,-19.5 525.5,-0.5 427.5,-0.5"/>
<text text-anchor="middle" x="476.5" y="-7.5" font-family="Helvetica,sans-Serif" font-size="10.00">gadget/params.c</text>
</a>
</g>
</g>
<!-- Node1&#45;&gt;Node7 -->
<g id="edge17" class="edge">
<title>Node1&#45;&gt;Node7</title>
<path fill="none" stroke="midnightblue" d="M459.58,-113.35C463.98,-86.77 471.86,-39.08 475.07,-19.62"/>
<polygon fill="midnightblue" stroke="midnightblue" points="456.12,-112.86 457.94,-123.3 463.02,-114 456.12,-112.86"/>
</g>
<!-- Node8 -->
<g id="node8" class="node">
<title>Node8</title>
<g id="a_node8"><a xlink:href="neutrinos__lra_8c.html" target="_top" xlink:title=" ">
<polygon fill="white" stroke="black" points="650,-56.5 650,-86.5 761,-86.5 761,-56.5 650,-56.5"/>
<text text-anchor="start" x="658" y="-74.5" font-family="Helvetica,sans-Serif" font-size="10.00">libgadget/neutrinos</text>
<text text-anchor="middle" x="705.5" y="-63.5" font-family="Helvetica,sans-Serif" font-size="10.00">_lra.c</text>
</a>
</g>
</g>
<!-- Node1&#45;&gt;Node8 -->
<g id="edge8" class="edge">
<title>Node1&#45;&gt;Node8</title>
<path fill="none" stroke="midnightblue" d="M502.03,-121.12C543.59,-111.19 605.16,-96.48 649.67,-85.84"/>
<polygon fill="midnightblue" stroke="midnightblue" points="501.09,-117.75 492.18,-123.48 502.72,-124.56 501.09,-117.75"/>
</g>
<!-- Node9 -->
<g id="node9" class="node">
<title>Node9</title>
<g id="a_node9"><a xlink:href="petaio_8c.html" target="_top" xlink:title=" ">
<polygon fill="white" stroke="black" points="779.5,-62 779.5,-81 883.5,-81 883.5,-62 779.5,-62"/>
<text text-anchor="middle" x="831.5" y="-69" font-family="Helvetica,sans-Serif" font-size="10.00">libgadget/petaio.c</text>
</a>
</g>
</g>
<!-- Node1&#45;&gt;Node9 -->
<g id="edge9" class="edge">
<title>Node1&#45;&gt;Node9</title>
<path fill="none" stroke="midnightblue" d="M519.51,-124.68C583.11,-116.89 684.02,-103.44 770.5,-87 779.48,-85.29 789.14,-83.14 798.06,-81.03"/>
<polygon fill="midnightblue" stroke="midnightblue" points="518.75,-121.25 509.24,-125.93 519.59,-128.2 518.75,-121.25"/>
</g>
<!-- Node10 -->
<g id="node10" class="node">
<title>Node10</title>
<g id="a_node10"><a xlink:href="run_8h.html" target="_top" xlink:title=" ">
<polygon fill="white" stroke="black" points="503.5,-62 503.5,-81 593.5,-81 593.5,-62 503.5,-62"/>
<text text-anchor="middle" x="548.5" y="-69" font-family="Helvetica,sans-Serif" font-size="10.00">libgadget/run.h</text>
</a>
</g>
</g>
<!-- Node1&#45;&gt;Node10 -->
<g id="edge11" class="edge">
<title>Node1&#45;&gt;Node10</title>
<path fill="none" stroke="midnightblue" d="M478.26,-117.93C495.99,-106.46 520.46,-90.63 535.34,-81.01"/>
<polygon fill="midnightblue" stroke="midnightblue" points="476.18,-115.11 469.68,-123.48 479.98,-120.98 476.18,-115.11"/>
</g>
<!-- Node11 -->
<g id="node11" class="node">
<title>Node11</title>
<g id="a_node11"><a xlink:href="runtests_8c.html" target="_top" xlink:title=" ">
<polygon fill="white" stroke="black" points="648,-0.5 648,-19.5 761,-19.5 761,-0.5 648,-0.5"/>
<text text-anchor="middle" x="704.5" y="-7.5" font-family="Helvetica,sans-Serif" font-size="10.00">libgadget/runtests.c</text>
</a>
</g>
</g>
<!-- Node1&#45;&gt;Node11 -->
<g id="edge16" class="edge">
<title>Node1&#45;&gt;Node11</title>
<path fill="none" stroke="midnightblue" d="M508.25,-121.06C537.04,-113.76 572.91,-102.61 602.5,-87 622.09,-76.67 623.82,-69.33 641.5,-56 658.67,-43.05 678.99,-28.71 691.81,-19.78"/>
<polygon fill="midnightblue" stroke="midnightblue" points="507.27,-117.69 498.39,-123.48 508.94,-124.49 507.27,-117.69"/>
</g>
<!-- Node5&#45;&gt;Node4 -->
<g id="edge5" class="edge">
<title>Node5&#45;&gt;Node4</title>
<path fill="none" stroke="midnightblue" d="M340.32,-57.06C319.62,-45.54 290.43,-29.31 272.8,-19.51"/>
<polygon fill="midnightblue" stroke="midnightblue" points="338.73,-60.17 349.17,-61.98 342.13,-54.06 338.73,-60.17"/>
</g>
<!-- Node5&#45;&gt;Node6 -->
<g id="edge6" class="edge">
<title>Node5&#45;&gt;Node6</title>
<path fill="none" stroke="midnightblue" d="M364.5,-51.82C364.5,-41 364.5,-27.9 364.5,-19.51"/>
<polygon fill="midnightblue" stroke="midnightblue" points="361,-51.98 364.5,-61.98 368,-51.98 361,-51.98"/>
</g>
<!-- Node5&#45;&gt;Node7 -->
<g id="edge7" class="edge">
<title>Node5&#45;&gt;Node7</title>
<path fill="none" stroke="midnightblue" d="M389.51,-57.21C411.2,-45.69 441.95,-29.36 460.48,-19.51"/>
<polygon fill="midnightblue" stroke="midnightblue" points="387.74,-54.19 380.55,-61.98 391.02,-60.37 387.74,-54.19"/>
</g>
<!-- Node10&#45;&gt;Node6 -->
<g id="edge12" class="edge">
<title>Node10&#45;&gt;Node6</title>
<path fill="none" stroke="midnightblue" d="M512.57,-58.88C476.8,-47.32 422.76,-29.84 390.81,-19.51"/>
<polygon fill="midnightblue" stroke="midnightblue" points="511.55,-62.23 522.14,-61.98 513.7,-55.57 511.55,-62.23"/>
</g>
<!-- Node10&#45;&gt;Node7 -->
<g id="edge15" class="edge">
<title>Node10&#45;&gt;Node7</title>
<path fill="none" stroke="midnightblue" d="M530.32,-55.47C516.54,-44.09 498.12,-28.87 486.8,-19.51"/>
<polygon fill="midnightblue" stroke="midnightblue" points="528.25,-58.3 538.18,-61.98 532.71,-52.91 528.25,-58.3"/>
</g>
<!-- Node10&#45;&gt;Node11 -->
<g id="edge13" class="edge">
<title>Node10&#45;&gt;Node11</title>
<path fill="none" stroke="midnightblue" d="M580.53,-58.28C610.85,-46.72 655.57,-29.66 682.19,-19.51"/>
<polygon fill="midnightblue" stroke="midnightblue" points="578.95,-55.14 570.85,-61.98 581.44,-61.68 578.95,-55.14"/>
</g>
<!-- Node12 -->
<g id="node12" class="node">
<title>Node12</title>
<g id="a_node12"><a xlink:href="gadget_2main_8c.html" target="_top" xlink:title="start of the program">
<polygon fill="white" stroke="black" points="543.5,-0.5 543.5,-19.5 629.5,-19.5 629.5,-0.5 543.5,-0.5"/>
<text text-anchor="middle" x="586.5" y="-7.5" font-family="Helvetica,sans-Serif" font-size="10.00">gadget/main.c</text>
</a>
</g>
</g>
<!-- Node10&#45;&gt;Node12 -->
<g id="edge14" class="edge">
<title>Node10&#45;&gt;Node12</title>
<path fill="none" stroke="midnightblue" d="M559.35,-53.51C566.45,-42.39 575.43,-28.34 581.07,-19.51"/>
<polygon fill="midnightblue" stroke="midnightblue" points="556.38,-51.66 553.94,-61.98 562.28,-55.43 556.38,-51.66"/>
</g>
</g>
</svg>
