<?xml version="1.0" encoding="UTF-8" standalone="no"?>
<!DOCTYPE svg PUBLIC "-//W3C//DTD SVG 1.1//EN"
 "http://www.w3.org/Graphics/SVG/1.1/DTD/svg11.dtd">
<!-- Generated by graphviz version 2.38.0 (20140413.2041)
 -->
<!-- Title: pm_iterate_one Pages: 1 -->
<svg width="1091pt" height="66pt"
 viewBox="0.00 0.00 1091.00 66.00" xmlns="http://www.w3.org/2000/svg" xmlns:xlink="http://www.w3.org/1999/xlink">
<g id="graph0" class="graph" transform="scale(1 1) rotate(0) translate(4 62)">
<title>pm_iterate_one</title>
<polygon fill="white" stroke="none" points="-4,4 -4,-62 1087,-62 1087,4 -4,4"/>
<!-- Node375 -->
<g id="node1" class="node"><title>Node375</title>
<polygon fill="#bfbfbf" stroke="black" points="0,-19.5 0,-38.5 83,-38.5 83,-19.5 0,-19.5"/>
<text text-anchor="middle" x="41.5" y="-26.5" font-family="Helvetica,sans-Serif" font-size="10.00">pm_iterate_one</text>
</g>
<!-- Node376 -->
<g id="node2" class="node"><title>Node376</title>
<g id="a_node2"><a xlink:href="petapm_8c.html#aced125d1c3c73e86e1d6de677c53a4b1" target="_top" xlink:title="pm_iterate">
<polygon fill="white" stroke="black" points="119,-19.5 119,-38.5 181,-38.5 181,-19.5 119,-19.5"/>
<text text-anchor="middle" x="150" y="-26.5" font-family="Helvetica,sans-Serif" font-size="10.00">pm_iterate</text>
</a>
</g>
</g>
<!-- Node375&#45;&gt;Node376 -->
<g id="edge1" class="edge"><title>Node375&#45;&gt;Node376</title>
<path fill="none" stroke="midnightblue" d="M93.2409,-29C101.991,-29 110.833,-29 118.816,-29"/>
<polygon fill="midnightblue" stroke="midnightblue" points="93.0669,-25.5001 83.0669,-29 93.0669,-32.5001 93.0669,-25.5001"/>
</g>
<!-- Node377 -->
<g id="node3" class="node"><title>Node377</title>
<g id="a_node3"><a xlink:href="petapm_8h.html#ae4398321596a33165eb70c35170006e2" target="_top" xlink:title="petapm_force_c2r">
<polygon fill="white" stroke="black" points="217,-38.5 217,-57.5 312,-57.5 312,-38.5 217,-38.5"/>
<text text-anchor="middle" x="264.5" y="-45.5" font-family="Helvetica,sans-Serif" font-size="10.00">petapm_force_c2r</text>
</a>
</g>
</g>
<!-- Node376&#45;&gt;Node377 -->
<g id="edge2" class="edge"><title>Node376&#45;&gt;Node377</title>
<path fill="none" stroke="midnightblue" d="M191.274,-35.8018C199.526,-37.1955 208.279,-38.6737 216.737,-40.1022"/>
<polygon fill="midnightblue" stroke="midnightblue" points="191.591,-32.3059 181.148,-34.0917 190.425,-39.2082 191.591,-32.3059"/>
</g>
<!-- Node386 -->
<g id="node12" class="node"><title>Node386</title>
<g id="a_node12"><a xlink:href="petapm_8h.html#a314a76588d1b30f2fc6dee4f6a9f7250" target="_top" xlink:title="petapm_force_init">
<polygon fill="white" stroke="black" points="217.5,-0.5 217.5,-19.5 311.5,-19.5 311.5,-0.5 217.5,-0.5"/>
<text text-anchor="middle" x="264.5" y="-7.5" font-family="Helvetica,sans-Serif" font-size="10.00">petapm_force_init</text>
</a>
</g>
</g>
<!-- Node376&#45;&gt;Node386 -->
<g id="edge13" class="edge"><title>Node376&#45;&gt;Node386</title>
<path fill="none" stroke="midnightblue" d="M191.12,-22.2242C199.557,-20.7993 208.523,-19.2851 217.166,-17.8253"/>
<polygon fill="midnightblue" stroke="midnightblue" points="190.425,-18.7918 181.148,-23.9083 191.591,-25.6941 190.425,-18.7918"/>
</g>
<!-- Node378 -->
<g id="node4" class="node"><title>Node378</title>
<g id="a_node4"><a xlink:href="petapm_8h.html#a0dd847d1caccabe743e6c3fb81220225" target="_top" xlink:title="petapm_force">
<polygon fill="white" stroke="black" points="348,-19.5 348,-38.5 424,-38.5 424,-19.5 348,-19.5"/>
<text text-anchor="middle" x="386" y="-26.5" font-family="Helvetica,sans-Serif" font-size="10.00">petapm_force</text>
</a>
</g>
</g>
<!-- Node377&#45;&gt;Node378 -->
<g id="edge3" class="edge"><title>Node377&#45;&gt;Node378</title>
<path fill="none" stroke="midnightblue" d="M322.125,-38.9969C330.784,-37.6201 339.531,-36.2295 347.635,-34.9409"/>
<polygon fill="midnightblue" stroke="midnightblue" points="321.37,-35.5728 312.044,-40.5997 322.47,-42.486 321.37,-35.5728"/>
</g>
<!-- Node379 -->
<g id="node5" class="node"><title>Node379</title>
<g id="a_node5"><a xlink:href="proto_8h.html#a6a55456b331c8b01d7ae1352809b82f2" target="_top" xlink:title="gravpm_force">
<polygon fill="white" stroke="black" points="460,-19.5 460,-38.5 536,-38.5 536,-19.5 460,-19.5"/>
<text text-anchor="middle" x="498" y="-26.5" font-family="Helvetica,sans-Serif" font-size="10.00">gravpm_force</text>
</a>
</g>
</g>
<!-- Node378&#45;&gt;Node379 -->
<g id="edge4" class="edge"><title>Node378&#45;&gt;Node379</title>
<path fill="none" stroke="midnightblue" d="M434.42,-29C442.91,-29 451.646,-29 459.797,-29"/>
<polygon fill="midnightblue" stroke="midnightblue" points="434.241,-25.5001 424.241,-29 434.241,-32.5001 434.241,-25.5001"/>
</g>
<!-- Node380 -->
<g id="node6" class="node"><title>Node380</title>
<g id="a_node6"><a xlink:href="run_8c.html#abb80d08f4d52f4a7bdf28d1cecfead5b" target="_top" xlink:title="compute_accelerations">
<polygon fill="white" stroke="black" points="572,-38.5 572,-57.5 689,-57.5 689,-38.5 572,-38.5"/>
<text text-anchor="middle" x="630.5" y="-45.5" font-family="Helvetica,sans-Serif" font-size="10.00">compute_accelerations</text>
</a>
</g>
</g>
<!-- Node379&#45;&gt;Node380 -->
<g id="edge5" class="edge"><title>Node379&#45;&gt;Node380</title>
<path fill="none" stroke="midnightblue" d="M546.018,-35.8455C554.404,-37.0665 563.227,-38.351 571.869,-39.6093"/>
<polygon fill="midnightblue" stroke="midnightblue" points="546.447,-32.3712 536.047,-34.3938 545.438,-39.2981 546.447,-32.3712"/>
</g>
<!-- Node385 -->
<g id="node11" class="node"><title>Node385</title>
<g id="a_node11"><a xlink:href="runtests_8c.html#a549024555ca61e3f05a7100307e44f69" target="_top" xlink:title="runtests">
<polygon fill="white" stroke="black" points="725,-0.5 725,-19.5 777,-19.5 777,-0.5 725,-0.5"/>
<text text-anchor="middle" x="751" y="-7.5" font-family="Helvetica,sans-Serif" font-size="10.00">runtests</text>
</a>
</g>
</g>
<!-- Node379&#45;&gt;Node385 -->
<g id="edge11" class="edge"><title>Node379&#45;&gt;Node385</title>
<path fill="none" stroke="midnightblue" d="M546.182,-25.4284C599.083,-21.424 682.91,-15.0785 724.65,-11.919"/>
<polygon fill="midnightblue" stroke="midnightblue" points="545.743,-21.9516 536.036,-26.1965 546.272,-28.9316 545.743,-21.9516"/>
</g>
<!-- Node381 -->
<g id="node7" class="node"><title>Node381</title>
<g id="a_node7"><a xlink:href="run_8c.html#a05e0ffe612d44e6d7f3a9ae5b9df56a2" target="_top" xlink:title="run">
<polygon fill="white" stroke="black" points="736,-38.5 736,-57.5 766,-57.5 766,-38.5 736,-38.5"/>
<text text-anchor="middle" x="751" y="-45.5" font-family="Helvetica,sans-Serif" font-size="10.00">run</text>
</a>
</g>
</g>
<!-- Node380&#45;&gt;Node381 -->
<g id="edge6" class="edge"><title>Node380&#45;&gt;Node381</title>
<path fill="none" stroke="midnightblue" d="M699.22,-48C713.142,-48 726.428,-48 735.916,-48"/>
<polygon fill="midnightblue" stroke="midnightblue" points="699.014,-44.5001 689.014,-48 699.014,-51.5001 699.014,-44.5001"/>
</g>
<!-- Node382 -->
<g id="node8" class="node"><title>Node382</title>
<g id="a_node8"><a xlink:href="main_8c.html#a3c04138a5bfe5d72780bb7e82a18e627" target="_top" xlink:title="main">
<polygon fill="white" stroke="black" points="813,-0.5 813,-19.5 851,-19.5 851,-0.5 813,-0.5"/>
<text text-anchor="middle" x="832" y="-7.5" font-family="Helvetica,sans-Serif" font-size="10.00">main</text>
</a>
</g>
</g>
<!-- Node381&#45;&gt;Node382 -->
<g id="edge7" class="edge"><title>Node381&#45;&gt;Node382</title>
<path fill="none" stroke="midnightblue" d="M775.484,-36.7039C787.432,-30.9569 801.733,-24.0778 812.828,-18.7411"/>
<polygon fill="midnightblue" stroke="midnightblue" points="773.618,-33.7175 766.124,-41.2064 776.652,-40.0257 773.618,-33.7175"/>
</g>
<!-- Node383 -->
<g id="node9" class="node"><title>Node383</title>
<g id="a_node9"><a xlink:href="walltime_8h.html#a76d2135b612766d4d665748454b879d6" target="_top" xlink:title="walltime_report">
<polygon fill="white" stroke="black" points="887,-0.5 887,-19.5 970,-19.5 970,-0.5 887,-0.5"/>
<text text-anchor="middle" x="928.5" y="-7.5" font-family="Helvetica,sans-Serif" font-size="10.00">walltime_report</text>
</a>
</g>
</g>
<!-- Node382&#45;&gt;Node383 -->
<g id="edge8" class="edge"><title>Node382&#45;&gt;Node383</title>
<path fill="none" stroke="midnightblue" d="M861.411,-10C869.347,-10 878.132,-10 886.635,-10"/>
<polygon fill="midnightblue" stroke="midnightblue" points="861.221,-6.5001 851.221,-10 861.221,-13.5001 861.221,-6.5001"/>
</g>
<!-- Node384 -->
<g id="node10" class="node"><title>Node384</title>
<g id="a_node10"><a xlink:href="run_8c.html#adc59e9ee1517e4e690694a64ab6a59d2" target="_top" xlink:title="write_cpu_log">
<polygon fill="white" stroke="black" points="1006,-19.5 1006,-38.5 1083,-38.5 1083,-19.5 1006,-19.5"/>
<text text-anchor="middle" x="1044.5" y="-26.5" font-family="Helvetica,sans-Serif" font-size="10.00">write_cpu_log</text>
</a>
</g>
</g>
<!-- Node383&#45;&gt;Node384 -->
<g id="edge9" class="edge"><title>Node383&#45;&gt;Node384</title>
<path fill="none" stroke="midnightblue" d="M980.031,-18.4218C988.684,-19.8641 997.54,-21.3399 1005.78,-22.7141"/>
<polygon fill="midnightblue" stroke="midnightblue" points="980.452,-14.9439 970.013,-16.7522 979.302,-21.8486 980.452,-14.9439"/>
</g>
<!-- Node384&#45;&gt;Node381 -->
<g id="edge10" class="edge"><title>Node384&#45;&gt;Node381</title>
<path fill="none" stroke="midnightblue" d="M995.767,-32.1113C927.862,-36.5373 807.058,-44.4113 766.06,-47.0836"/>
<polygon fill="midnightblue" stroke="midnightblue" points="996.037,-35.6012 1005.79,-31.4581 995.582,-28.616 996.037,-35.6012"/>
</g>
<!-- Node385&#45;&gt;Node382 -->
<g id="edge12" class="edge"><title>Node385&#45;&gt;Node382</title>
<path fill="none" stroke="midnightblue" d="M787.506,-10C796.283,-10 805.325,-10 812.876,-10"/>
<polygon fill="midnightblue" stroke="midnightblue" points="787.431,-6.5001 777.431,-10 787.431,-13.5001 787.431,-6.5001"/>
</g>
<!-- Node386&#45;&gt;Node378 -->
<g id="edge14" class="edge"><title>Node386&#45;&gt;Node378</title>
<path fill="none" stroke="midnightblue" d="M321.637,-18.9255C330.514,-20.3369 339.497,-21.7652 347.8,-23.0853"/>
<polygon fill="midnightblue" stroke="midnightblue" points="322.127,-15.4596 311.702,-17.3459 321.028,-22.3728 322.127,-15.4596"/>
</g>
</g>
</svg>
