<?xml version="1.0" encoding="UTF-8" standalone="no"?>
<!DOCTYPE svg PUBLIC "-//W3C//DTD SVG 1.1//EN"
 "http://www.w3.org/Graphics/SVG/1.1/DTD/svg11.dtd">
<!-- Generated by graphviz version 2.38.0 (20140413.2041)
 -->
<!-- Title: petaio_save_block Pages: 1 -->
<svg width="429pt" height="104pt"
 viewBox="0.00 0.00 429.00 104.00" xmlns="http://www.w3.org/2000/svg" xmlns:xlink="http://www.w3.org/1999/xlink">
<g id="graph0" class="graph" transform="scale(1 1) rotate(0) translate(4 100)">
<title>petaio_save_block</title>
<polygon fill="white" stroke="none" points="-4,4 -4,-100 425,-100 425,4 -4,4"/>
<!-- Node245 -->
<g id="node1" class="node"><title>Node245</title>
<polygon fill="#bfbfbf" stroke="black" points="0,-38.5 0,-57.5 98,-57.5 98,-38.5 0,-38.5"/>
<text text-anchor="middle" x="49" y="-45.5" font-family="Helvetica,sans-Serif" font-size="10.00">petaio_save_block</text>
</g>
<!-- Node246 -->
<g id="node2" class="node"><title>Node246</title>
<g id="a_node2"><a xlink:href="system_8c.html#a1d471d98379273269e8045d2998eca73" target="_top" xlink:title="count_sum">
<polygon fill="white" stroke="black" points="134,-76.5 134,-95.5 199,-95.5 199,-76.5 134,-76.5"/>
<text text-anchor="middle" x="166.5" y="-83.5" font-family="Helvetica,sans-Serif" font-size="10.00">count_sum</text>
</a>
</g>
</g>
<!-- Node245&#45;&gt;Node246 -->
<g id="edge1" class="edge"><title>Node245&#45;&gt;Node246</title>
<path fill="none" stroke="midnightblue" d="M79.1455,-57.589C93.5083,-62.3144 111.029,-68.0789 126.526,-73.1774"/>
<polygon fill="midnightblue" stroke="midnightblue" points="125.771,-76.6134 136.364,-76.4141 127.959,-69.9641 125.771,-76.6134"/>
</g>
<!-- Node247 -->
<g id="node3" class="node"><title>Node247</title>
<g id="a_node3"><a xlink:href="endrun_8c.html#ad963d7efdb9f10f7a2298c8ccd222ab0" target="_top" xlink:title="endrun">
<polygon fill="white" stroke="black" points="143.5,-38.5 143.5,-57.5 189.5,-57.5 189.5,-38.5 143.5,-38.5"/>
<text text-anchor="middle" x="166.5" y="-45.5" font-family="Helvetica,sans-Serif" font-size="10.00">endrun</text>
</a>
</g>
</g>
<!-- Node245&#45;&gt;Node247 -->
<g id="edge2" class="edge"><title>Node245&#45;&gt;Node247</title>
<path fill="none" stroke="midnightblue" d="M98.3132,-48C110.089,-48 122.403,-48 133.225,-48"/>
<polygon fill="midnightblue" stroke="midnightblue" points="133.474,-51.5001 143.474,-48 133.474,-44.5001 133.474,-51.5001"/>
</g>
<!-- Node251 -->
<g id="node7" class="node"><title>Node251</title>
<g id="a_node7"><a xlink:href="endrun_8c.html#a6567cd867c5549fb6586e19ccd819764" target="_top" xlink:title="message">
<polygon fill="white" stroke="black" points="138.5,-0.5 138.5,-19.5 194.5,-19.5 194.5,-0.5 138.5,-0.5"/>
<text text-anchor="middle" x="166.5" y="-7.5" font-family="Helvetica,sans-Serif" font-size="10.00">message</text>
</a>
</g>
</g>
<!-- Node245&#45;&gt;Node251 -->
<g id="edge6" class="edge"><title>Node245&#45;&gt;Node251</title>
<path fill="none" stroke="midnightblue" d="M79.1455,-38.411C94.1985,-33.4585 112.72,-27.3647 128.746,-22.0924"/>
<polygon fill="midnightblue" stroke="midnightblue" points="129.942,-25.3833 138.347,-18.9333 127.754,-18.7339 129.942,-25.3833"/>
</g>
<!-- Node248 -->
<g id="node4" class="node"><title>Node248</title>
<g id="a_node4"><a xlink:href="endrun_8c.html#a7267113a7c0a094743bb565eabc695d1" target="_top" xlink:title="messagev">
<polygon fill="white" stroke="black" points="235,-19.5 235,-38.5 297,-38.5 297,-19.5 235,-19.5"/>
<text text-anchor="middle" x="266" y="-26.5" font-family="Helvetica,sans-Serif" font-size="10.00">messagev</text>
</a>
</g>
</g>
<!-- Node247&#45;&gt;Node248 -->
<g id="edge3" class="edge"><title>Node247&#45;&gt;Node248</title>
<path fill="none" stroke="midnightblue" d="M189.624,-43.6886C200.071,-41.6528 212.871,-39.1584 224.937,-36.8071"/>
<polygon fill="midnightblue" stroke="midnightblue" points="225.687,-40.227 234.833,-34.8788 224.348,-33.3562 225.687,-40.227"/>
</g>
<!-- Node249 -->
<g id="node5" class="node"><title>Node249</title>
<g id="a_node5"><a xlink:href="endrun_8c.html#a87108946670b4c3afbe846c6726675ff" target="_top" xlink:title="putline">
<polygon fill="white" stroke="black" points="354.5,-38.5 354.5,-57.5 399.5,-57.5 399.5,-38.5 354.5,-38.5"/>
<text text-anchor="middle" x="377" y="-45.5" font-family="Helvetica,sans-Serif" font-size="10.00">putline</text>
</a>
</g>
</g>
<!-- Node248&#45;&gt;Node249 -->
<g id="edge4" class="edge"><title>Node248&#45;&gt;Node249</title>
<path fill="none" stroke="midnightblue" d="M297.073,-34.2421C311.677,-36.7877 329.231,-39.8476 344.072,-42.4346"/>
<polygon fill="midnightblue" stroke="midnightblue" points="343.866,-45.9514 354.318,-44.2207 345.068,-39.0553 343.866,-45.9514"/>
</g>
<!-- Node250 -->
<g id="node6" class="node"><title>Node250</title>
<g id="a_node6"><a xlink:href="endrun_8c.html#a1200f02a595ab7cbe17c9e36ff32af0f" target="_top" xlink:title="show_backtrace">
<polygon fill="white" stroke="black" points="333,-0.5 333,-19.5 421,-19.5 421,-0.5 333,-0.5"/>
<text text-anchor="middle" x="377" y="-7.5" font-family="Helvetica,sans-Serif" font-size="10.00">show_backtrace</text>
</a>
</g>
</g>
<!-- Node248&#45;&gt;Node250 -->
<g id="edge5" class="edge"><title>Node248&#45;&gt;Node250</title>
<path fill="none" stroke="midnightblue" d="M297.073,-23.7579C305.131,-22.3533 314.087,-20.7921 322.991,-19.2402"/>
<polygon fill="midnightblue" stroke="midnightblue" points="323.719,-22.6661 332.969,-17.5008 322.517,-15.7701 323.719,-22.6661"/>
</g>
<!-- Node251&#45;&gt;Node248 -->
<g id="edge7" class="edge"><title>Node251&#45;&gt;Node248</title>
<path fill="none" stroke="midnightblue" d="M194.659,-15.2926C204.041,-17.1208 214.76,-19.2095 224.953,-21.196"/>
<polygon fill="midnightblue" stroke="midnightblue" points="224.419,-24.6576 234.903,-23.135 225.758,-17.7868 224.419,-24.6576"/>
</g>
</g>
</svg>
