<?xml version="1.0" encoding="UTF-8" standalone="no"?>
<!DOCTYPE svg PUBLIC "-//W3C//DTD SVG 1.1//EN"
 "http://www.w3.org/Graphics/SVG/1.1/DTD/svg11.dtd">
<!-- Generated by graphviz version 2.38.0 (20140413.2041)
 -->
<!-- Title: pm_alloc Pages: 1 -->
<svg width="1001pt" height="104pt"
 viewBox="0.00 0.00 1001.00 104.00" xmlns="http://www.w3.org/2000/svg" xmlns:xlink="http://www.w3.org/1999/xlink">
<g id="graph0" class="graph" transform="scale(1 1) rotate(0) translate(4 100)">
<title>pm_alloc</title>
<polygon fill="white" stroke="none" points="-4,4 -4,-100 997,-100 997,4 -4,4"/>
<!-- Node303 -->
<g id="node1" class="node"><title>Node303</title>
<polygon fill="#bfbfbf" stroke="black" points="0,-19.5 0,-38.5 56,-38.5 56,-19.5 0,-19.5"/>
<text text-anchor="middle" x="28" y="-26.5" font-family="Helvetica,sans-Serif" font-size="10.00">pm_alloc</text>
</g>
<!-- Node304 -->
<g id="node2" class="node"><title>Node304</title>
<g id="a_node2"><a xlink:href="petapm_8h.html#a314a76588d1b30f2fc6dee4f6a9f7250" target="_top" xlink:title="petapm_force_init">
<polygon fill="white" stroke="black" points="92,-38.5 92,-57.5 186,-57.5 186,-38.5 92,-38.5"/>
<text text-anchor="middle" x="139" y="-45.5" font-family="Helvetica,sans-Serif" font-size="10.00">petapm_force_init</text>
</a>
</g>
</g>
<!-- Node303&#45;&gt;Node304 -->
<g id="edge1" class="edge"><title>Node303&#45;&gt;Node304</title>
<path fill="none" stroke="midnightblue" d="M66.209,-35.486C74.3868,-36.9115 83.1441,-38.438 91.6322,-39.9175"/>
<polygon fill="midnightblue" stroke="midnightblue" points="66.6766,-32.0148 56.2241,-33.7455 65.4745,-38.9108 66.6766,-32.0148"/>
</g>
<!-- Node313 -->
<g id="node11" class="node"><title>Node313</title>
<g id="a_node11"><a xlink:href="petapm_8h.html#ac149f307c9a7b3d37eb8f94c0799b7a7" target="_top" xlink:title="petapm_init">
<polygon fill="white" stroke="black" points="105.5,-0.5 105.5,-19.5 172.5,-19.5 172.5,-0.5 105.5,-0.5"/>
<text text-anchor="middle" x="139" y="-7.5" font-family="Helvetica,sans-Serif" font-size="10.00">petapm_init</text>
</a>
</g>
</g>
<!-- Node303&#45;&gt;Node313 -->
<g id="edge12" class="edge"><title>Node303&#45;&gt;Node313</title>
<path fill="none" stroke="midnightblue" d="M66.4464,-22.4726C79.0778,-20.2708 93.0683,-17.8321 105.303,-15.6994"/>
<polygon fill="midnightblue" stroke="midnightblue" points="65.4745,-19.0892 56.2241,-24.2545 66.6766,-25.9852 65.4745,-19.0892"/>
</g>
<!-- Node305 -->
<g id="node3" class="node"><title>Node305</title>
<g id="a_node3"><a xlink:href="petapm_8h.html#a0dd847d1caccabe743e6c3fb81220225" target="_top" xlink:title="petapm_force">
<polygon fill="white" stroke="black" points="237,-38.5 237,-57.5 313,-57.5 313,-38.5 237,-38.5"/>
<text text-anchor="middle" x="275" y="-45.5" font-family="Helvetica,sans-Serif" font-size="10.00">petapm_force</text>
</a>
</g>
</g>
<!-- Node304&#45;&gt;Node305 -->
<g id="edge2" class="edge"><title>Node304&#45;&gt;Node305</title>
<path fill="none" stroke="midnightblue" d="M196.366,-48C209.975,-48 224.184,-48 236.671,-48"/>
<polygon fill="midnightblue" stroke="midnightblue" points="196.115,-44.5001 186.115,-48 196.115,-51.5001 196.115,-44.5001"/>
</g>
<!-- Node306 -->
<g id="node4" class="node"><title>Node306</title>
<g id="a_node4"><a xlink:href="proto_8h.html#a6a55456b331c8b01d7ae1352809b82f2" target="_top" xlink:title="gravpm_force">
<polygon fill="white" stroke="black" points="367,-38.5 367,-57.5 443,-57.5 443,-38.5 367,-38.5"/>
<text text-anchor="middle" x="405" y="-45.5" font-family="Helvetica,sans-Serif" font-size="10.00">gravpm_force</text>
</a>
</g>
</g>
<!-- Node305&#45;&gt;Node306 -->
<g id="edge3" class="edge"><title>Node305&#45;&gt;Node306</title>
<path fill="none" stroke="midnightblue" d="M323.19,-48C337.509,-48 353.036,-48 366.617,-48"/>
<polygon fill="midnightblue" stroke="midnightblue" points="323.023,-44.5001 313.023,-48 323.023,-51.5001 323.023,-44.5001"/>
</g>
<!-- Node307 -->
<g id="node5" class="node"><title>Node307</title>
<g id="a_node5"><a xlink:href="run_8c.html#abb80d08f4d52f4a7bdf28d1cecfead5b" target="_top" xlink:title="compute_accelerations">
<polygon fill="white" stroke="black" points="482,-76.5 482,-95.5 599,-95.5 599,-76.5 482,-76.5"/>
<text text-anchor="middle" x="540.5" y="-83.5" font-family="Helvetica,sans-Serif" font-size="10.00">compute_accelerations</text>
</a>
</g>
</g>
<!-- Node306&#45;&gt;Node307 -->
<g id="edge4" class="edge"><title>Node306&#45;&gt;Node307</title>
<path fill="none" stroke="midnightblue" d="M449.53,-60.3906C467.812,-65.5945 488.749,-71.5541 505.823,-76.4141"/>
<polygon fill="midnightblue" stroke="midnightblue" points="450.264,-56.9605 439.688,-57.589 448.347,-63.6931 450.264,-56.9605"/>
</g>
<!-- Node312 -->
<g id="node10" class="node"><title>Node312</title>
<g id="a_node10"><a xlink:href="runtests_8c.html#a549024555ca61e3f05a7100307e44f69" target="_top" xlink:title="runtests">
<polygon fill="white" stroke="black" points="635,-38.5 635,-57.5 687,-57.5 687,-38.5 635,-38.5"/>
<text text-anchor="middle" x="661" y="-45.5" font-family="Helvetica,sans-Serif" font-size="10.00">runtests</text>
</a>
</g>
</g>
<!-- Node306&#45;&gt;Node312 -->
<g id="edge10" class="edge"><title>Node306&#45;&gt;Node312</title>
<path fill="none" stroke="midnightblue" d="M453.518,-48C507.314,-48 592.924,-48 634.996,-48"/>
<polygon fill="midnightblue" stroke="midnightblue" points="453.206,-44.5001 443.206,-48 453.206,-51.5001 453.206,-44.5001"/>
</g>
<!-- Node308 -->
<g id="node6" class="node"><title>Node308</title>
<g id="a_node6"><a xlink:href="run_8c.html#a05e0ffe612d44e6d7f3a9ae5b9df56a2" target="_top" xlink:title="run">
<polygon fill="white" stroke="black" points="646,-76.5 646,-95.5 676,-95.5 676,-76.5 646,-76.5"/>
<text text-anchor="middle" x="661" y="-83.5" font-family="Helvetica,sans-Serif" font-size="10.00">run</text>
</a>
</g>
</g>
<!-- Node307&#45;&gt;Node308 -->
<g id="edge5" class="edge"><title>Node307&#45;&gt;Node308</title>
<path fill="none" stroke="midnightblue" d="M609.22,-86C623.142,-86 636.428,-86 645.916,-86"/>
<polygon fill="midnightblue" stroke="midnightblue" points="609.014,-82.5001 599.014,-86 609.014,-89.5001 609.014,-82.5001"/>
</g>
<!-- Node309 -->
<g id="node7" class="node"><title>Node309</title>
<g id="a_node7"><a xlink:href="main_8c.html#a3c04138a5bfe5d72780bb7e82a18e627" target="_top" xlink:title="main">
<polygon fill="white" stroke="black" points="723,-38.5 723,-57.5 761,-57.5 761,-38.5 723,-38.5"/>
<text text-anchor="middle" x="742" y="-45.5" font-family="Helvetica,sans-Serif" font-size="10.00">main</text>
</a>
</g>
</g>
<!-- Node308&#45;&gt;Node309 -->
<g id="edge6" class="edge"><title>Node308&#45;&gt;Node309</title>
<path fill="none" stroke="midnightblue" d="M685.484,-74.7039C697.432,-68.9569 711.733,-62.0778 722.828,-56.7411"/>
<polygon fill="midnightblue" stroke="midnightblue" points="683.618,-71.7175 676.124,-79.2064 686.652,-78.0257 683.618,-71.7175"/>
</g>
<!-- Node310 -->
<g id="node8" class="node"><title>Node310</title>
<g id="a_node8"><a xlink:href="walltime_8h.html#a76d2135b612766d4d665748454b879d6" target="_top" xlink:title="walltime_report">
<polygon fill="white" stroke="black" points="797,-38.5 797,-57.5 880,-57.5 880,-38.5 797,-38.5"/>
<text text-anchor="middle" x="838.5" y="-45.5" font-family="Helvetica,sans-Serif" font-size="10.00">walltime_report</text>
</a>
</g>
</g>
<!-- Node309&#45;&gt;Node310 -->
<g id="edge7" class="edge"><title>Node309&#45;&gt;Node310</title>
<path fill="none" stroke="midnightblue" d="M771.411,-48C779.347,-48 788.132,-48 796.635,-48"/>
<polygon fill="midnightblue" stroke="midnightblue" points="771.221,-44.5001 761.221,-48 771.221,-51.5001 771.221,-44.5001"/>
</g>
<!-- Node311 -->
<g id="node9" class="node"><title>Node311</title>
<g id="a_node9"><a xlink:href="run_8c.html#adc59e9ee1517e4e690694a64ab6a59d2" target="_top" xlink:title="write_cpu_log">
<polygon fill="white" stroke="black" points="916,-57.5 916,-76.5 993,-76.5 993,-57.5 916,-57.5"/>
<text text-anchor="middle" x="954.5" y="-64.5" font-family="Helvetica,sans-Serif" font-size="10.00">write_cpu_log</text>
</a>
</g>
</g>
<!-- Node310&#45;&gt;Node311 -->
<g id="edge8" class="edge"><title>Node310&#45;&gt;Node311</title>
<path fill="none" stroke="midnightblue" d="M890.031,-56.4218C898.684,-57.8641 907.54,-59.3399 915.785,-60.7141"/>
<polygon fill="midnightblue" stroke="midnightblue" points="890.452,-52.9439 880.013,-54.7522 889.302,-59.8486 890.452,-52.9439"/>
</g>
<!-- Node311&#45;&gt;Node308 -->
<g id="edge9" class="edge"><title>Node311&#45;&gt;Node308</title>
<path fill="none" stroke="midnightblue" d="M905.767,-70.1113C837.862,-74.5373 717.058,-82.4113 676.06,-85.0836"/>
<polygon fill="midnightblue" stroke="midnightblue" points="906.037,-73.6012 915.788,-69.4581 905.582,-66.616 906.037,-73.6012"/>
</g>
<!-- Node312&#45;&gt;Node309 -->
<g id="edge11" class="edge"><title>Node312&#45;&gt;Node309</title>
<path fill="none" stroke="midnightblue" d="M697.506,-48C706.283,-48 715.325,-48 722.876,-48"/>
<polygon fill="midnightblue" stroke="midnightblue" points="697.431,-44.5001 687.431,-48 697.431,-51.5001 697.431,-44.5001"/>
</g>
<!-- Node314 -->
<g id="node12" class="node"><title>Node314</title>
<g id="a_node12"><a xlink:href="longrange_8c.html#a6f198a51b7488e6d984ff7537d47fd13" target="_top" xlink:title="gravpm_init_periodic">
<polygon fill="white" stroke="black" points="222,-0.5 222,-19.5 328,-19.5 328,-0.5 222,-0.5"/>
<text text-anchor="middle" x="275" y="-7.5" font-family="Helvetica,sans-Serif" font-size="10.00">gravpm_init_periodic</text>
</a>
</g>
</g>
<!-- Node313&#45;&gt;Node314 -->
<g id="edge13" class="edge"><title>Node313&#45;&gt;Node314</title>
<path fill="none" stroke="midnightblue" d="M182.884,-10C195.324,-10 209.045,-10 221.98,-10"/>
<polygon fill="midnightblue" stroke="midnightblue" points="182.78,-6.5001 172.78,-10 182.78,-13.5001 182.78,-6.5001"/>
</g>
<!-- Node315 -->
<g id="node13" class="node"><title>Node315</title>
<g id="a_node13"><a xlink:href="proto_8h.html#af52079f2c63002aca9463ba0b13727df" target="_top" xlink:title="long_range_init">
<polygon fill="white" stroke="black" points="364,-0.5 364,-19.5 446,-19.5 446,-0.5 364,-0.5"/>
<text text-anchor="middle" x="405" y="-7.5" font-family="Helvetica,sans-Serif" font-size="10.00">long_range_init</text>
</a>
</g>
</g>
<!-- Node314&#45;&gt;Node315 -->
<g id="edge14" class="edge"><title>Node314&#45;&gt;Node315</title>
<path fill="none" stroke="midnightblue" d="M338.204,-10C346.894,-10 355.627,-10 363.763,-10"/>
<polygon fill="midnightblue" stroke="midnightblue" points="338.063,-6.5001 328.062,-10 338.062,-13.5001 338.063,-6.5001"/>
</g>
<!-- Node316 -->
<g id="node14" class="node"><title>Node316</title>
<g id="a_node14"><a xlink:href="proto_8h.html#a74dc0e5e9eefe11fc8434b62de573146" target="_top" xlink:title="begrun">
<polygon fill="white" stroke="black" points="517.5,-0.5 517.5,-19.5 563.5,-19.5 563.5,-0.5 517.5,-0.5"/>
<text text-anchor="middle" x="540.5" y="-7.5" font-family="Helvetica,sans-Serif" font-size="10.00">begrun</text>
</a>
</g>
</g>
<!-- Node315&#45;&gt;Node316 -->
<g id="edge15" class="edge"><title>Node315&#45;&gt;Node316</title>
<path fill="none" stroke="midnightblue" d="M456.174,-10C477.254,-10 500.69,-10 517.324,-10"/>
<polygon fill="midnightblue" stroke="midnightblue" points="456.054,-6.5001 446.054,-10 456.054,-13.5001 456.054,-6.5001"/>
</g>
<!-- Node316&#45;&gt;Node309 -->
<g id="edge16" class="edge"><title>Node316&#45;&gt;Node309</title>
<path fill="none" stroke="midnightblue" d="M574.169,-12.3075C603.891,-14.8678 648.819,-19.8955 687,-29 699.181,-31.9046 712.453,-36.5527 722.791,-40.5244"/>
<polygon fill="midnightblue" stroke="midnightblue" points="574.199,-8.79838 563.947,-11.4729 573.629,-15.7752 574.199,-8.79838"/>
</g>
</g>
</svg>
