<?xml version="1.0" encoding="UTF-8" standalone="no"?>
<!DOCTYPE svg PUBLIC "-//W3C//DTD SVG 1.1//EN"
 "http://www.w3.org/Graphics/SVG/1.1/DTD/svg11.dtd">
<!-- Generated by graphviz version 2.50.0 (0)
 -->
<!-- Title: register_io_blocks Pages: 1 -->
<svg width="1271pt" height="657pt"
 viewBox="0.00 0.00 1271.00 657.02" xmlns="http://www.w3.org/2000/svg" xmlns:xlink="http://www.w3.org/1999/xlink">
<g id="graph0" class="graph" transform="scale(1 1) rotate(0) translate(4 653.02)">
<title>register_io_blocks</title>
<polygon fill="white" stroke="transparent" points="-4,4 -4,-653.02 1267,-653.02 1267,4 -4,4"/>
<!-- Node1 -->
<g id="node1" class="node">
<title>Node1</title>
<g id="a_node1"><a xlink:title=" ">
<polygon fill="#bfbfbf" stroke="black" points="1158,-280.52 1158,-299.52 1263,-299.52 1263,-280.52 1158,-280.52"/>
<text text-anchor="middle" x="1210.5" y="-287.52" font-family="Helvetica,sans-Serif" font-size="10.00">register_io_blocks</text>
</a>
</g>
</g>
<!-- Node2 -->
<g id="node2" class="node">
<title>Node2</title>
<g id="a_node2"><a xlink:href="checkpoint_8c.html#a9b7b2e06591ff6f1fb5735a65f1efd78" target="_top" xlink:title=" ">
<polygon fill="white" stroke="black" points="1013,-221.52 1013,-240.52 1107,-240.52 1107,-221.52 1013,-221.52"/>
<text text-anchor="middle" x="1060" y="-228.52" font-family="Helvetica,sans-Serif" font-size="10.00">dump_snapshot</text>
</a>
</g>
</g>
<!-- Node1&#45;&gt;Node2 -->
<g id="edge1" class="edge">
<title>Node1&#45;&gt;Node2</title>
<path fill="none" stroke="midnightblue" d="M1175.67,-276.58C1148.08,-265.62 1109.77,-250.4 1085.18,-240.63"/>
<polygon fill="midnightblue" stroke="midnightblue" points="1174.72,-279.97 1185.31,-280.41 1177.31,-273.47 1174.72,-279.97"/>
</g>
<!-- Node18 -->
<g id="node18" class="node">
<title>Node18</title>
<g id="a_node18"><a xlink:href="run_8h.html#aa438e424237818b7728b98cd764e45d1" target="_top" xlink:title=" ">
<polygon fill="white" stroke="black" points="395.5,-439.52 395.5,-458.52 491.5,-458.52 491.5,-439.52 395.5,-439.52"/>
<text text-anchor="middle" x="443.5" y="-446.52" font-family="Helvetica,sans-Serif" font-size="10.00">run_gravity_test</text>
</a>
</g>
</g>
<!-- Node1&#45;&gt;Node18 -->
<g id="edge48" class="edge">
<title>Node1&#45;&gt;Node18</title>
<path fill="none" stroke="midnightblue" d="M1190.09,-306.02C1144.68,-341.76 1026.71,-425.02 913,-425.02 913,-425.02 913,-425.02 756.5,-425.02 662.38,-425.02 552.76,-436.01 491.72,-443.12"/>
<polygon fill="midnightblue" stroke="midnightblue" points="1192.33,-308.71 1197.95,-299.73 1187.96,-303.25 1192.33,-308.71"/>
</g>
<!-- Node31 -->
<g id="node31" class="node">
<title>Node31</title>
<g id="a_node31"><a xlink:href="fof_8h.html#aaa985d617a622b54361bd8c756076b11" target="_top" xlink:title=" ">
<polygon fill="white" stroke="black" points="1007,-280.52 1007,-299.52 1113,-299.52 1113,-280.52 1007,-280.52"/>
<text text-anchor="middle" x="1060" y="-287.52" font-family="Helvetica,sans-Serif" font-size="10.00">fof_save_particles</text>
</a>
</g>
</g>
<!-- Node1&#45;&gt;Node31 -->
<g id="edge41" class="edge">
<title>Node1&#45;&gt;Node31</title>
<path fill="none" stroke="midnightblue" d="M1147.96,-290.02C1136.4,-290.02 1124.42,-290.02 1113.19,-290.02"/>
<polygon fill="midnightblue" stroke="midnightblue" points="1147.98,-293.52 1157.98,-290.02 1147.98,-286.52 1147.98,-293.52"/>
</g>
<!-- Node33 -->
<g id="node33" class="node">
<title>Node33</title>
<g id="a_node33"><a xlink:href="petaio_8c.html#a18ce9fa2faeaab142a978b2293493b5d" target="_top" xlink:title=" ">
<polygon fill="white" stroke="black" points="998,-455.52 998,-474.52 1122,-474.52 1122,-455.52 998,-455.52"/>
<text text-anchor="middle" x="1060" y="-462.52" font-family="Helvetica,sans-Serif" font-size="10.00">petaio_read_snapshot</text>
</a>
</g>
</g>
<!-- Node1&#45;&gt;Node33 -->
<g id="edge45" class="edge">
<title>Node1&#45;&gt;Node33</title>
<path fill="none" stroke="midnightblue" d="M1202.69,-309.51C1190.86,-340.77 1163.71,-402.34 1122,-439.02 1113.96,-446.09 1103.71,-451.46 1093.92,-455.42"/>
<polygon fill="midnightblue" stroke="midnightblue" points="1206.09,-310.4 1206.24,-299.8 1199.52,-307.99 1206.09,-310.4"/>
</g>
<!-- Node35 -->
<g id="node35" class="node">
<title>Node35</title>
<g id="a_node35"><a xlink:href="checkpoint_8c.html#a233c8fd1567fc34773a92294a6d8de7b" target="_top" xlink:title=" ">
<polygon fill="white" stroke="black" points="862,-21.52 862,-40.52 962,-40.52 962,-21.52 862,-21.52"/>
<text text-anchor="middle" x="912" y="-28.52" font-family="Helvetica,sans-Serif" font-size="10.00">write_checkpoint</text>
</a>
</g>
</g>
<!-- Node1&#45;&gt;Node35 -->
<g id="edge49" class="edge">
<title>Node1&#45;&gt;Node35</title>
<path fill="none" stroke="midnightblue" d="M1194.77,-272.81C1158.54,-231.23 1060.77,-123.68 962,-55.02 954.07,-49.51 944.68,-44.58 936.25,-40.64"/>
<polygon fill="midnightblue" stroke="midnightblue" points="1192.18,-275.16 1201.37,-280.43 1197.47,-270.58 1192.18,-275.16"/>
</g>
<!-- Node3 -->
<g id="node3" class="node">
<title>Node3</title>
<g id="a_node3"><a xlink:href="forcetree_8c.html#a0de0fec1cfeb5e2aad5f33a843de25e7" target="_top" xlink:title=" ">
<polygon fill="white" stroke="black" points="864.5,-221.52 864.5,-240.52 959.5,-240.52 959.5,-221.52 864.5,-221.52"/>
<text text-anchor="middle" x="912" y="-228.52" font-family="Helvetica,sans-Serif" font-size="10.00">force_tree_build</text>
</a>
</g>
</g>
<!-- Node2&#45;&gt;Node3 -->
<g id="edge2" class="edge">
<title>Node2&#45;&gt;Node3</title>
<path fill="none" stroke="midnightblue" d="M1002.64,-231.02C988.43,-231.02 973.33,-231.02 959.65,-231.02"/>
<polygon fill="midnightblue" stroke="midnightblue" points="1002.8,-234.52 1012.8,-231.02 1002.8,-227.52 1002.8,-234.52"/>
</g>
<!-- Node16 -->
<g id="node16" class="node">
<title>Node16</title>
<g id="a_node16"><a xlink:href="run_8c.html#a89690448ef43a8d624b963382b7503ed" target="_top" xlink:title=" ">
<polygon fill="white" stroke="black" points="269.5,-154.52 269.5,-173.52 301.5,-173.52 301.5,-154.52 269.5,-154.52"/>
<text text-anchor="middle" x="285.5" y="-161.52" font-family="Helvetica,sans-Serif" font-size="10.00">run</text>
</a>
</g>
</g>
<!-- Node2&#45;&gt;Node16 -->
<g id="edge40" class="edge">
<title>Node2&#45;&gt;Node16</title>
<path fill="none" stroke="midnightblue" d="M1042.31,-214.17C999.37,-172.7 879.88,-69.02 758.5,-69.02 758.5,-69.02 758.5,-69.02 599.5,-69.02 499.37,-69.02 467.35,-49.31 375,-88.02 339.51,-102.9 307.95,-137.56 294.04,-154.44"/>
<polygon fill="midnightblue" stroke="midnightblue" points="1040.06,-216.86 1049.64,-221.37 1044.96,-211.87 1040.06,-216.86"/>
</g>
<!-- Node4 -->
<g id="node4" class="node">
<title>Node4</title>
<g id="a_node4"><a xlink:href="forcetree_8c.html#a5156dae3aae56140d6e9ae0ab58867cc" target="_top" xlink:title=" ">
<polygon fill="white" stroke="black" points="548,-372.52 548,-391.52 653,-391.52 653,-372.52 548,-372.52"/>
<text text-anchor="middle" x="600.5" y="-379.52" font-family="Helvetica,sans-Serif" font-size="10.00">force_tree_rebuild</text>
</a>
</g>
</g>
<!-- Node3&#45;&gt;Node4 -->
<g id="edge3" class="edge">
<title>Node3&#45;&gt;Node4</title>
<path fill="none" stroke="midnightblue" d="M881.89,-245.23C819.44,-275.69 674.04,-346.63 621.17,-372.43"/>
<polygon fill="midnightblue" stroke="midnightblue" points="883.72,-248.23 891.17,-240.7 880.65,-241.94 883.72,-248.23"/>
</g>
<!-- Node24 -->
<g id="node24" class="node">
<title>Node24</title>
<g id="a_node24"><a xlink:href="forcetree_8c.html#aa01061828cef34bc4c55ef9eaa7c03f5" target="_top" xlink:title=" ">
<polygon fill="white" stroke="black" points="689,-198.52 689,-217.52 826,-217.52 826,-198.52 689,-198.52"/>
<text text-anchor="middle" x="757.5" y="-205.52" font-family="Helvetica,sans-Serif" font-size="10.00">force_tree_rebuild_mask</text>
</a>
</g>
</g>
<!-- Node3&#45;&gt;Node24 -->
<g id="edge29" class="edge">
<title>Node3&#45;&gt;Node24</title>
<path fill="none" stroke="midnightblue" d="M854.39,-222.48C843.72,-220.88 832.5,-219.18 821.65,-217.55"/>
<polygon fill="midnightblue" stroke="midnightblue" points="854.01,-225.97 864.42,-224 855.05,-219.04 854.01,-225.97"/>
</g>
<!-- Node5 -->
<g id="node5" class="node">
<title>Node5</title>
<g id="a_node5"><a xlink:href="test__density_8c.html#a1f2c8c2a35e14ec19a93d42363f0fe55" target="_top" xlink:title=" ">
<polygon fill="white" stroke="black" points="396.5,-401.52 396.5,-420.52 490.5,-420.52 490.5,-401.52 396.5,-401.52"/>
<text text-anchor="middle" x="443.5" y="-408.52" font-family="Helvetica,sans-Serif" font-size="10.00">do_density_test</text>
</a>
</g>
</g>
<!-- Node4&#45;&gt;Node5 -->
<g id="edge4" class="edge">
<title>Node4&#45;&gt;Node5</title>
<path fill="none" stroke="midnightblue" d="M538.09,-393.51C522.29,-396.47 505.55,-399.6 490.66,-402.39"/>
<polygon fill="midnightblue" stroke="midnightblue" points="539.13,-396.88 548.32,-391.6 537.84,-390 539.13,-396.88"/>
</g>
<!-- Node10 -->
<g id="node10" class="node">
<title>Node10</title>
<g id="a_node10"><a xlink:href="test__gravity_8c.html#aa6bdcef3f6cb327efb3f2f993f64b7ce" target="_top" xlink:title=" ">
<polygon fill="white" stroke="black" points="402,-572.52 402,-591.52 485,-591.52 485,-572.52 402,-572.52"/>
<text text-anchor="middle" x="443.5" y="-579.52" font-family="Helvetica,sans-Serif" font-size="10.00">do_force_test</text>
</a>
</g>
</g>
<!-- Node4&#45;&gt;Node10 -->
<g id="edge9" class="edge">
<title>Node4&#45;&gt;Node10</title>
<path fill="none" stroke="midnightblue" d="M587.56,-400.27C571.25,-424.87 540.76,-469.75 512,-506.02 492.27,-530.91 466.91,-558.37 453.6,-572.49"/>
<polygon fill="midnightblue" stroke="midnightblue" points="590.68,-401.89 593.26,-391.62 584.84,-398.04 590.68,-401.89"/>
</g>
<!-- Node4&#45;&gt;Node16 -->
<g id="edge17" class="edge">
<title>Node4&#45;&gt;Node16</title>
<path fill="none" stroke="midnightblue" d="M560.83,-369.29C545.65,-364.38 528.05,-358.81 512,-354.02 451.45,-335.95 423.35,-356.7 375,-316.02 346.4,-291.96 357.68,-272.39 339,-240.02 324.57,-215.02 304.48,-187.6 293.82,-173.53"/>
<polygon fill="midnightblue" stroke="midnightblue" points="559.83,-372.64 570.42,-372.4 561.99,-365.99 559.83,-372.64"/>
</g>
<!-- Node4&#45;&gt;Node18 -->
<g id="edge19" class="edge">
<title>Node4&#45;&gt;Node18</title>
<path fill="none" stroke="midnightblue" d="M573.64,-396.59C550.19,-409.75 518.34,-427.43 512,-430.02 503.21,-433.62 493.51,-436.78 484.27,-439.45"/>
<polygon fill="midnightblue" stroke="midnightblue" points="575.46,-399.59 582.46,-391.64 572.03,-393.49 575.46,-399.59"/>
</g>
<!-- Node20 -->
<g id="node20" class="node">
<title>Node20</title>
<g id="a_node20"><a xlink:href="run_8c.html#a02ef4c629cc0fea15dce527f09ea672f" target="_top" xlink:title=" ">
<polygon fill="white" stroke="black" points="420.5,-287.52 420.5,-306.52 466.5,-306.52 466.5,-287.52 420.5,-287.52"/>
<text text-anchor="middle" x="443.5" y="-294.52" font-family="Helvetica,sans-Serif" font-size="10.00">runfof</text>
</a>
</g>
</g>
<!-- Node4&#45;&gt;Node20 -->
<g id="edge22" class="edge">
<title>Node4&#45;&gt;Node20</title>
<path fill="none" stroke="midnightblue" d="M579.87,-366.04C562.74,-352.67 536.82,-333.79 512,-321.02 497.51,-313.57 480.18,-307.46 466.7,-303.27"/>
<polygon fill="midnightblue" stroke="midnightblue" points="577.96,-368.99 587.97,-372.46 582.31,-363.51 577.96,-368.99"/>
</g>
<!-- Node21 -->
<g id="node21" class="node">
<title>Node21</title>
<g id="a_node21"><a xlink:href="run_8c.html#afc20ced36c74991ca5c2004510c6c628" target="_top" xlink:title=" ">
<polygon fill="white" stroke="black" points="412.5,-363.52 412.5,-382.52 474.5,-382.52 474.5,-363.52 412.5,-363.52"/>
<text text-anchor="middle" x="443.5" y="-370.52" font-family="Helvetica,sans-Serif" font-size="10.00">runpower</text>
</a>
</g>
</g>
<!-- Node4&#45;&gt;Node21 -->
<g id="edge24" class="edge">
<title>Node4&#45;&gt;Node21</title>
<path fill="none" stroke="midnightblue" d="M537.73,-378.44C516.02,-377.18 492.6,-375.81 474.66,-374.77"/>
<polygon fill="midnightblue" stroke="midnightblue" points="537.7,-381.94 547.89,-379.03 538.11,-374.95 537.7,-381.94"/>
</g>
<!-- Node22 -->
<g id="node22" class="node">
<title>Node22</title>
<g id="a_node22"><a xlink:href="init_8c.html#a713a74e1e0ca55699bc6581763bae177" target="_top" xlink:title=" ">
<polygon fill="white" stroke="black" points="375,-477.52 375,-496.52 512,-496.52 512,-477.52 375,-477.52"/>
<text text-anchor="middle" x="443.5" y="-484.52" font-family="Helvetica,sans-Serif" font-size="10.00">setup_smoothinglengths</text>
</a>
</g>
</g>
<!-- Node4&#45;&gt;Node22 -->
<g id="edge26" class="edge">
<title>Node4&#45;&gt;Node22</title>
<path fill="none" stroke="midnightblue" d="M586.14,-399.68C570.46,-419.2 542.68,-450.23 512,-468.02 505.37,-471.87 497.91,-474.97 490.44,-477.47"/>
<polygon fill="midnightblue" stroke="midnightblue" points="589.05,-401.64 592.46,-391.61 583.54,-397.33 589.05,-401.64"/>
</g>
<!-- Node6 -->
<g id="node6" class="node">
<title>Node6</title>
<g id="a_node6"><a xlink:href="test__density_8c.html#ab398a273f1cc5a1816af9ef286a460f3" target="_top" xlink:title=" ">
<polygon fill="white" stroke="black" points="238,-477.52 238,-496.52 333,-496.52 333,-477.52 238,-477.52"/>
<text text-anchor="middle" x="285.5" y="-484.52" font-family="Helvetica,sans-Serif" font-size="10.00">do_random_test</text>
</a>
</g>
</g>
<!-- Node5&#45;&gt;Node6 -->
<g id="edge5" class="edge">
<title>Node5&#45;&gt;Node6</title>
<path fill="none" stroke="midnightblue" d="M387.09,-423.92C382.88,-425.7 378.8,-427.73 375,-430.02 355.09,-442.05 358.46,-455.28 339,-468.02 333.24,-471.79 326.64,-474.93 320.11,-477.5"/>
<polygon fill="midnightblue" stroke="midnightblue" points="388.33,-427.19 396.45,-420.37 385.85,-420.64 388.33,-427.19"/>
</g>
<!-- Node8 -->
<g id="node8" class="node">
<title>Node8</title>
<g id="a_node8"><a xlink:href="test__density_8c.html#a0b98ad62e33169daca9a098f23b22730" target="_top" xlink:title=" ">
<polygon fill="white" stroke="black" points="232,-363.52 232,-382.52 339,-382.52 339,-363.52 232,-363.52"/>
<text text-anchor="middle" x="285.5" y="-370.52" font-family="Helvetica,sans-Serif" font-size="10.00">test_density_close</text>
</a>
</g>
</g>
<!-- Node5&#45;&gt;Node8 -->
<g id="edge7" class="edge">
<title>Node5&#45;&gt;Node8</title>
<path fill="none" stroke="midnightblue" d="M393.37,-399.05C371.51,-393.73 346.12,-387.55 325.58,-382.54"/>
<polygon fill="midnightblue" stroke="midnightblue" points="392.59,-402.47 403.13,-401.43 394.25,-395.67 392.59,-402.47"/>
</g>
<!-- Node9 -->
<g id="node9" class="node">
<title>Node9</title>
<g id="a_node9"><a xlink:href="test__density_8c.html#af90097e65c497dae6bed7b2d03702f89" target="_top" xlink:title=" ">
<polygon fill="white" stroke="black" points="236.5,-401.52 236.5,-420.52 334.5,-420.52 334.5,-401.52 236.5,-401.52"/>
<text text-anchor="middle" x="285.5" y="-408.52" font-family="Helvetica,sans-Serif" font-size="10.00">test_density_flat</text>
</a>
</g>
</g>
<!-- Node5&#45;&gt;Node9 -->
<g id="edge8" class="edge">
<title>Node5&#45;&gt;Node9</title>
<path fill="none" stroke="midnightblue" d="M385.87,-411.02C369.06,-411.02 350.81,-411.02 334.6,-411.02"/>
<polygon fill="midnightblue" stroke="midnightblue" points="386.12,-414.52 396.12,-411.02 386.12,-407.52 386.12,-414.52"/>
</g>
<!-- Node7 -->
<g id="node7" class="node">
<title>Node7</title>
<g id="a_node7"><a xlink:href="test__density_8c.html#a79c97c1ac28bcad8abc150104d7cb7c0" target="_top" xlink:title=" ">
<polygon fill="white" stroke="black" points="77,-477.52 77,-496.52 196,-496.52 196,-477.52 77,-477.52"/>
<text text-anchor="middle" x="136.5" y="-484.52" font-family="Helvetica,sans-Serif" font-size="10.00">test_density_random</text>
</a>
</g>
</g>
<!-- Node6&#45;&gt;Node7 -->
<g id="edge6" class="edge">
<title>Node6&#45;&gt;Node7</title>
<path fill="none" stroke="midnightblue" d="M227.8,-487.02C217.42,-487.02 206.56,-487.02 196.13,-487.02"/>
<polygon fill="midnightblue" stroke="midnightblue" points="227.99,-490.52 237.99,-487.02 227.99,-483.52 227.99,-490.52"/>
</g>
<!-- Node11 -->
<g id="node11" class="node">
<title>Node11</title>
<g id="a_node11"><a xlink:href="test__gravity_8c.html#a31e06bbad4eac810c349a6bc44a0aa08" target="_top" xlink:title=" ">
<polygon fill="white" stroke="black" points="238,-629.52 238,-648.52 333,-648.52 333,-629.52 238,-629.52"/>
<text text-anchor="middle" x="285.5" y="-636.52" font-family="Helvetica,sans-Serif" font-size="10.00">do_random_test</text>
</a>
</g>
</g>
<!-- Node10&#45;&gt;Node11 -->
<g id="edge10" class="edge">
<title>Node10&#45;&gt;Node11</title>
<path fill="none" stroke="midnightblue" d="M406.74,-595.09C378.07,-605.56 338.49,-620.03 312.7,-629.45"/>
<polygon fill="midnightblue" stroke="midnightblue" points="408.2,-598.28 416.39,-591.56 405.8,-591.71 408.2,-598.28"/>
</g>
<!-- Node14 -->
<g id="node14" class="node">
<title>Node14</title>
<g id="a_node14"><a xlink:href="test__gravity_8c.html#ac3391a3ee98d428389e50b886e988c63" target="_top" xlink:title=" ">
<polygon fill="white" stroke="black" points="88.5,-591.52 88.5,-610.52 184.5,-610.52 184.5,-591.52 88.5,-591.52"/>
<text text-anchor="middle" x="136.5" y="-598.52" font-family="Helvetica,sans-Serif" font-size="10.00">test_force_close</text>
</a>
</g>
</g>
<!-- Node10&#45;&gt;Node14 -->
<g id="edge13" class="edge">
<title>Node10&#45;&gt;Node14</title>
<path fill="none" stroke="midnightblue" d="M391.67,-585.19C334.02,-588.78 240.78,-594.59 184.68,-598.08"/>
<polygon fill="midnightblue" stroke="midnightblue" points="392.24,-588.66 402,-584.55 391.8,-581.67 392.24,-588.66"/>
</g>
<!-- Node15 -->
<g id="node15" class="node">
<title>Node15</title>
<g id="a_node15"><a xlink:href="test__gravity_8c.html#a87bcba11fc8f8f2ad649784bb1b8a48d" target="_top" xlink:title=" ">
<polygon fill="white" stroke="black" points="93.5,-553.52 93.5,-572.52 179.5,-572.52 179.5,-553.52 93.5,-553.52"/>
<text text-anchor="middle" x="136.5" y="-560.52" font-family="Helvetica,sans-Serif" font-size="10.00">test_force_flat</text>
</a>
</g>
</g>
<!-- Node10&#45;&gt;Node15 -->
<g id="edge15" class="edge">
<title>Node10&#45;&gt;Node15</title>
<path fill="none" stroke="midnightblue" d="M391.72,-578.86C332.32,-575.16 235.05,-569.1 179.64,-565.65"/>
<polygon fill="midnightblue" stroke="midnightblue" points="391.8,-582.37 402,-579.5 392.24,-575.38 391.8,-582.37"/>
</g>
<!-- Node12 -->
<g id="node12" class="node">
<title>Node12</title>
<g id="a_node12"><a xlink:href="test__gravity_8c.html#a17492d7388898745e66a636173c8ce1d" target="_top" xlink:title=" ">
<polygon fill="white" stroke="black" points="82.5,-629.52 82.5,-648.52 190.5,-648.52 190.5,-629.52 82.5,-629.52"/>
<text text-anchor="middle" x="136.5" y="-636.52" font-family="Helvetica,sans-Serif" font-size="10.00">test_force_random</text>
</a>
</g>
</g>
<!-- Node11&#45;&gt;Node12 -->
<g id="edge11" class="edge">
<title>Node11&#45;&gt;Node12</title>
<path fill="none" stroke="midnightblue" d="M227.89,-639.02C215.64,-639.02 202.73,-639.02 190.62,-639.02"/>
<polygon fill="midnightblue" stroke="midnightblue" points="227.99,-642.52 237.99,-639.02 227.99,-635.52 227.99,-642.52"/>
</g>
<!-- Node13 -->
<g id="node13" class="node">
<title>Node13</title>
<g id="a_node13"><a xlink:href="test__gravity_8c.html#a840291bc02cba5474a4cb46a9b9566fe" target="_top" xlink:title=" ">
<polygon fill="white" stroke="black" points="0,-591.52 0,-610.52 41,-610.52 41,-591.52 0,-591.52"/>
<text text-anchor="middle" x="20.5" y="-598.52" font-family="Helvetica,sans-Serif" font-size="10.00">main</text>
</a>
</g>
</g>
<!-- Node12&#45;&gt;Node13 -->
<g id="edge12" class="edge">
<title>Node12&#45;&gt;Node13</title>
<path fill="none" stroke="midnightblue" d="M95.94,-626.27C89.6,-624.2 83.12,-622.06 77,-620.02 65.12,-616.06 51.84,-611.52 41.25,-607.87"/>
<polygon fill="midnightblue" stroke="midnightblue" points="95.12,-629.68 105.71,-629.45 97.28,-623.02 95.12,-629.68"/>
</g>
<!-- Node14&#45;&gt;Node13 -->
<g id="edge14" class="edge">
<title>Node14&#45;&gt;Node13</title>
<path fill="none" stroke="midnightblue" d="M78.29,-601.02C64.91,-601.02 51.54,-601.02 41.14,-601.02"/>
<polygon fill="midnightblue" stroke="midnightblue" points="78.47,-604.52 88.47,-601.02 78.47,-597.52 78.47,-604.52"/>
</g>
<!-- Node15&#45;&gt;Node13 -->
<g id="edge16" class="edge">
<title>Node15&#45;&gt;Node13</title>
<path fill="none" stroke="midnightblue" d="M95.94,-575.78C89.6,-577.85 83.12,-579.98 77,-582.02 65.12,-585.99 51.84,-590.53 41.25,-594.18"/>
<polygon fill="midnightblue" stroke="midnightblue" points="97.28,-579.02 105.71,-572.6 95.12,-572.36 97.28,-579.02"/>
</g>
<!-- Node17 -->
<g id="node17" class="node">
<title>Node17</title>
<g id="a_node17"><a xlink:href="gadget_2main_8c.html#a3c04138a5bfe5d72780bb7e82a18e627" target="_top" xlink:title=" ">
<polygon fill="white" stroke="black" points="116,-325.52 116,-344.52 157,-344.52 157,-325.52 116,-325.52"/>
<text text-anchor="middle" x="136.5" y="-332.52" font-family="Helvetica,sans-Serif" font-size="10.00">main</text>
</a>
</g>
</g>
<!-- Node16&#45;&gt;Node17 -->
<g id="edge18" class="edge">
<title>Node16&#45;&gt;Node17</title>
<path fill="none" stroke="midnightblue" d="M269.58,-181.37C238.89,-217.07 169.57,-297.72 145.73,-325.44"/>
<polygon fill="midnightblue" stroke="midnightblue" points="272.31,-183.57 276.18,-173.71 267,-179.01 272.31,-183.57"/>
</g>
<!-- Node19 -->
<g id="node19" class="node">
<title>Node19</title>
<g id="a_node19"><a xlink:href="run_8c.html#ab1d8bf99f794003fa95002043fe3b47c" target="_top" xlink:title=" ">
<polygon fill="white" stroke="black" points="257.5,-439.52 257.5,-458.52 313.5,-458.52 313.5,-439.52 257.5,-439.52"/>
<text text-anchor="middle" x="285.5" y="-446.52" font-family="Helvetica,sans-Serif" font-size="10.00">runtests</text>
</a>
</g>
</g>
<!-- Node18&#45;&gt;Node19 -->
<g id="edge20" class="edge">
<title>Node18&#45;&gt;Node19</title>
<path fill="none" stroke="midnightblue" d="M385.01,-449.02C360.59,-449.02 333.28,-449.02 313.62,-449.02"/>
<polygon fill="midnightblue" stroke="midnightblue" points="385.27,-452.52 395.27,-449.02 385.27,-445.52 385.27,-452.52"/>
</g>
<!-- Node19&#45;&gt;Node17 -->
<g id="edge21" class="edge">
<title>Node19&#45;&gt;Node17</title>
<path fill="none" stroke="midnightblue" d="M247.58,-438.02C242.16,-435.74 236.8,-433.08 232,-430.02 193.95,-405.76 159.3,-363.71 144.75,-344.77"/>
<polygon fill="midnightblue" stroke="midnightblue" points="246.68,-441.42 257.27,-441.71 249.17,-434.88 246.68,-441.42"/>
</g>
<!-- Node20&#45;&gt;Node17 -->
<g id="edge23" class="edge">
<title>Node20&#45;&gt;Node17</title>
<path fill="none" stroke="midnightblue" d="M410.32,-300.35C369,-304.71 295.07,-312.76 232,-321.02 206.02,-324.43 176.11,-328.96 157.02,-331.93"/>
<polygon fill="midnightblue" stroke="midnightblue" points="410.77,-303.82 420.35,-299.3 410.04,-296.86 410.77,-303.82"/>
</g>
<!-- Node21&#45;&gt;Node17 -->
<g id="edge25" class="edge">
<title>Node21&#45;&gt;Node17</title>
<path fill="none" stroke="midnightblue" d="M402.39,-364.81C383.26,-361.12 360.01,-356.94 339,-354.02 272.52,-344.8 193.08,-338.76 157.02,-336.29"/>
<polygon fill="midnightblue" stroke="midnightblue" points="401.78,-368.26 412.27,-366.75 403.13,-361.39 401.78,-368.26"/>
</g>
<!-- Node23 -->
<g id="node23" class="node">
<title>Node23</title>
<g id="a_node23"><a xlink:href="run_8c.html#aee4609880c9e92e1c421c4bd238589fd" target="_top" xlink:title=" ">
<polygon fill="white" stroke="black" points="260.5,-515.52 260.5,-534.52 310.5,-534.52 310.5,-515.52 260.5,-515.52"/>
<text text-anchor="middle" x="285.5" y="-522.52" font-family="Helvetica,sans-Serif" font-size="10.00">begrun</text>
</a>
</g>
</g>
<!-- Node22&#45;&gt;Node23 -->
<g id="edge27" class="edge">
<title>Node22&#45;&gt;Node23</title>
<path fill="none" stroke="midnightblue" d="M393.29,-499.01C365.79,-505.71 332.73,-513.76 310.76,-519.11"/>
<polygon fill="midnightblue" stroke="midnightblue" points="394.25,-502.38 403.13,-496.61 392.59,-495.58 394.25,-502.38"/>
</g>
<!-- Node23&#45;&gt;Node17 -->
<g id="edge28" class="edge">
<title>Node23&#45;&gt;Node17</title>
<path fill="none" stroke="midnightblue" d="M250.69,-516.84C244.01,-514.16 237.4,-510.63 232,-506.02 177.57,-459.56 148.67,-373.52 140.19,-344.71"/>
<polygon fill="midnightblue" stroke="midnightblue" points="249.8,-520.24 260.4,-520.21 252.09,-513.63 249.8,-520.24"/>
</g>
<!-- Node25 -->
<g id="node25" class="node">
<title>Node25</title>
<g id="a_node25"><a xlink:href="fof_8c.html#aef0df27f65ad2e5a95f66ae4e970da23" target="_top" xlink:title=" ">
<polygon fill="white" stroke="black" points="576,-217.52 576,-236.52 625,-236.52 625,-217.52 576,-217.52"/>
<text text-anchor="middle" x="600.5" y="-224.52" font-family="Helvetica,sans-Serif" font-size="10.00">fof_fof</text>
</a>
</g>
</g>
<!-- Node24&#45;&gt;Node25 -->
<g id="edge30" class="edge">
<title>Node24&#45;&gt;Node25</title>
<path fill="none" stroke="midnightblue" d="M679.01,-217.52C659.33,-219.93 639.64,-222.35 625.03,-224.14"/>
<polygon fill="midnightblue" stroke="midnightblue" points="679.47,-220.99 688.97,-216.3 678.61,-214.04 679.47,-220.99"/>
</g>
<!-- Node28 -->
<g id="node28" class="node">
<title>Node28</title>
<g id="a_node28"><a xlink:href="metal__return_8c.html#a7c817252ab7c0f679fea71bde6dea852" target="_top" xlink:title=" ">
<polygon fill="white" stroke="black" points="560.5,-165.52 560.5,-184.52 640.5,-184.52 640.5,-165.52 560.5,-165.52"/>
<text text-anchor="middle" x="600.5" y="-172.52" font-family="Helvetica,sans-Serif" font-size="10.00">metal_return</text>
</a>
</g>
</g>
<!-- Node24&#45;&gt;Node28 -->
<g id="edge35" class="edge">
<title>Node24&#45;&gt;Node28</title>
<path fill="none" stroke="midnightblue" d="M701.69,-196.35C681.56,-192.07 659.19,-187.3 640.7,-183.37"/>
<polygon fill="midnightblue" stroke="midnightblue" points="701.16,-199.82 711.67,-198.48 702.62,-192.97 701.16,-199.82"/>
</g>
<!-- Node29 -->
<g id="node29" class="node">
<title>Node29</title>
<g id="a_node29"><a xlink:href="cooling__qso__lightup_8c.html#a047bd5886141415004b83a046b49d5cc" target="_top" xlink:title=" ">
<polygon fill="white" stroke="black" points="552,-99.52 552,-118.52 649,-118.52 649,-99.52 552,-99.52"/>
<text text-anchor="middle" x="600.5" y="-106.52" font-family="Helvetica,sans-Serif" font-size="10.00">turn_on_quasars</text>
</a>
</g>
</g>
<!-- Node24&#45;&gt;Node29 -->
<g id="edge37" class="edge">
<title>Node24&#45;&gt;Node29</title>
<path fill="none" stroke="midnightblue" d="M732.53,-192.71C700.15,-172.03 643.39,-135.78 616.48,-118.59"/>
<polygon fill="midnightblue" stroke="midnightblue" points="731.04,-195.92 741.36,-198.35 734.81,-190.02 731.04,-195.92"/>
</g>
<!-- Node25&#45;&gt;Node16 -->
<g id="edge31" class="edge">
<title>Node25&#45;&gt;Node16</title>
<path fill="none" stroke="midnightblue" d="M565.69,-218.99C549.48,-215.22 529.77,-210.75 512,-207.02 433.01,-190.47 337.89,-173.2 301.58,-166.7"/>
<polygon fill="midnightblue" stroke="midnightblue" points="565.25,-222.48 575.78,-221.36 566.84,-215.67 565.25,-222.48"/>
</g>
<!-- Node25&#45;&gt;Node20 -->
<g id="edge32" class="edge">
<title>Node25&#45;&gt;Node20</title>
<path fill="none" stroke="midnightblue" d="M576.79,-242.42C559.6,-253.53 535.08,-268.23 512,-278.02 497.32,-284.25 479.99,-289.08 466.56,-292.31"/>
<polygon fill="midnightblue" stroke="midnightblue" points="579.1,-245.09 585.53,-236.67 575.25,-239.24 579.1,-245.09"/>
</g>
<!-- Node26 -->
<g id="node26" class="node">
<title>Node26</title>
<g id="a_node26"><a xlink:href="test__fof_8c.html#a2b2edcaa960047ba6c815956c46d82a6" target="_top" xlink:title=" ">
<polygon fill="white" stroke="black" points="416.5,-249.52 416.5,-268.52 470.5,-268.52 470.5,-249.52 416.5,-249.52"/>
<text text-anchor="middle" x="443.5" y="-256.52" font-family="Helvetica,sans-Serif" font-size="10.00">test_fof</text>
</a>
</g>
</g>
<!-- Node25&#45;&gt;Node26 -->
<g id="edge33" class="edge">
<title>Node25&#45;&gt;Node26</title>
<path fill="none" stroke="midnightblue" d="M566.01,-233.94C537.41,-239.84 496.84,-248.22 470.6,-253.63"/>
<polygon fill="midnightblue" stroke="midnightblue" points="566.87,-237.33 575.96,-231.88 565.46,-230.48 566.87,-237.33"/>
</g>
<!-- Node27 -->
<g id="node27" class="node">
<title>Node27</title>
<g id="a_node27"><a xlink:href="test__fof_8c.html#a840291bc02cba5474a4cb46a9b9566fe" target="_top" xlink:title=" ">
<polygon fill="white" stroke="black" points="265,-249.52 265,-268.52 306,-268.52 306,-249.52 265,-249.52"/>
<text text-anchor="middle" x="285.5" y="-256.52" font-family="Helvetica,sans-Serif" font-size="10.00">main</text>
</a>
</g>
</g>
<!-- Node26&#45;&gt;Node27 -->
<g id="edge34" class="edge">
<title>Node26&#45;&gt;Node27</title>
<path fill="none" stroke="midnightblue" d="M406.35,-259.02C375.19,-259.02 331.37,-259.02 306.26,-259.02"/>
<polygon fill="midnightblue" stroke="midnightblue" points="406.39,-262.52 416.39,-259.02 406.39,-255.52 406.39,-262.52"/>
</g>
<!-- Node28&#45;&gt;Node16 -->
<g id="edge36" class="edge">
<title>Node28&#45;&gt;Node16</title>
<path fill="none" stroke="midnightblue" d="M550.12,-171.24C537.69,-170.39 524.36,-169.58 512,-169.02 432.78,-165.43 337.79,-164.39 301.55,-164.12"/>
<polygon fill="midnightblue" stroke="midnightblue" points="550.1,-174.74 560.32,-171.95 550.59,-167.76 550.1,-174.74"/>
</g>
<!-- Node30 -->
<g id="node30" class="node">
<title>Node30</title>
<g id="a_node30"><a xlink:href="cooling__qso__lightup_8c.html#a42cfb86673e895125f77c946b7db8ced" target="_top" xlink:title=" ">
<polygon fill="white" stroke="black" points="384.5,-97.52 384.5,-116.52 502.5,-116.52 502.5,-97.52 384.5,-97.52"/>
<text text-anchor="middle" x="443.5" y="-104.52" font-family="Helvetica,sans-Serif" font-size="10.00">do_heiii_reionization</text>
</a>
</g>
</g>
<!-- Node29&#45;&gt;Node30 -->
<g id="edge38" class="edge">
<title>Node29&#45;&gt;Node30</title>
<path fill="none" stroke="midnightblue" d="M541.72,-108.28C528.99,-108.11 515.5,-107.94 502.76,-107.77"/>
<polygon fill="midnightblue" stroke="midnightblue" points="541.69,-111.78 551.73,-108.41 541.78,-104.78 541.69,-111.78"/>
</g>
<!-- Node30&#45;&gt;Node16 -->
<g id="edge39" class="edge">
<title>Node30&#45;&gt;Node16</title>
<path fill="none" stroke="midnightblue" d="M405.59,-120.03C395.65,-123.57 384.9,-127.42 375,-131.02 349.11,-140.45 319.09,-151.72 301.51,-158.35"/>
<polygon fill="midnightblue" stroke="midnightblue" points="406.95,-123.26 415.21,-116.62 404.61,-116.66 406.95,-123.26"/>
</g>
<!-- Node32 -->
<g id="node32" class="node">
<title>Node32</title>
<g id="a_node32"><a xlink:href="fof_8c.html#a38d0e2572ef5e373fe12edd44a94ce92" target="_top" xlink:title=" ">
<polygon fill="white" stroke="black" points="552,-280.52 552,-299.52 649,-299.52 649,-280.52 552,-280.52"/>
<text text-anchor="middle" x="600.5" y="-287.52" font-family="Helvetica,sans-Serif" font-size="10.00">fof_save_groups</text>
</a>
</g>
</g>
<!-- Node31&#45;&gt;Node32 -->
<g id="edge42" class="edge">
<title>Node31&#45;&gt;Node32</title>
<path fill="none" stroke="midnightblue" d="M996.9,-290.02C904.35,-290.02 732.23,-290.02 649,-290.02"/>
<polygon fill="midnightblue" stroke="midnightblue" points="996.96,-293.52 1006.96,-290.02 996.96,-286.52 996.96,-293.52"/>
</g>
<!-- Node32&#45;&gt;Node16 -->
<g id="edge43" class="edge">
<title>Node32&#45;&gt;Node16</title>
<path fill="none" stroke="midnightblue" d="M576.85,-274.7C559.69,-263.69 535.19,-249.22 512,-240.02 453.79,-216.92 433.95,-228.16 375,-207.02 348.31,-197.45 319.02,-182.21 301.73,-172.68"/>
<polygon fill="midnightblue" stroke="midnightblue" points="575.29,-277.86 585.57,-280.4 579.12,-272 575.29,-277.86"/>
</g>
<!-- Node32&#45;&gt;Node20 -->
<g id="edge44" class="edge">
<title>Node32&#45;&gt;Node20</title>
<path fill="none" stroke="midnightblue" d="M541.56,-292.64C515.53,-293.81 486.34,-295.13 466.84,-296.01"/>
<polygon fill="midnightblue" stroke="midnightblue" points="541.9,-296.13 551.73,-292.18 541.58,-289.13 541.9,-296.13"/>
</g>
<!-- Node34 -->
<g id="node34" class="node">
<title>Node34</title>
<g id="a_node34"><a xlink:href="init_8c.html#ac2e8594acf366f237632083d743efb0a" target="_top" xlink:title=" ">
<polygon fill="white" stroke="black" points="741.5,-512.52 741.5,-531.52 773.5,-531.52 773.5,-512.52 741.5,-512.52"/>
<text text-anchor="middle" x="757.5" y="-519.52" font-family="Helvetica,sans-Serif" font-size="10.00">init</text>
</a>
</g>
</g>
<!-- Node33&#45;&gt;Node34 -->
<g id="edge46" class="edge">
<title>Node33&#45;&gt;Node34</title>
<path fill="none" stroke="midnightblue" d="M998.55,-476.49C927.55,-489.96 814.29,-511.44 773.64,-519.15"/>
<polygon fill="midnightblue" stroke="midnightblue" points="999.53,-479.87 1008.7,-474.56 998.23,-472.99 999.53,-479.87"/>
</g>
<!-- Node34&#45;&gt;Node23 -->
<g id="edge47" class="edge">
<title>Node34&#45;&gt;Node23</title>
<path fill="none" stroke="midnightblue" d="M731.24,-522.18C649.27,-522.71 391.35,-524.35 310.79,-524.87"/>
<polygon fill="midnightblue" stroke="midnightblue" points="731.42,-525.68 741.39,-522.12 731.37,-518.68 731.42,-525.68"/>
</g>
<!-- Node35&#45;&gt;Node16 -->
<g id="edge50" class="edge">
<title>Node35&#45;&gt;Node16</title>
<path fill="none" stroke="midnightblue" d="M857.05,-19.66C756.15,-1.26 534.64,25.42 375,-55.02 331.03,-77.18 301.35,-132.24 290.78,-154.48"/>
<polygon fill="midnightblue" stroke="midnightblue" points="856.54,-23.12 867.02,-21.52 857.83,-16.24 856.54,-23.12"/>
</g>
</g>
</svg>
