<?xml version="1.0" encoding="UTF-8" standalone="no"?>
<!DOCTYPE svg PUBLIC "-//W3C//DTD SVG 1.1//EN"
 "http://www.w3.org/Graphics/SVG/1.1/DTD/svg11.dtd">
<!-- Generated by graphviz version 2.50.0 (0)
 -->
<!-- Title: set_petaio_params Pages: 1 -->
<svg width="612pt" height="154pt"
 viewBox="0.00 0.00 612.00 153.74" xmlns="http://www.w3.org/2000/svg" xmlns:xlink="http://www.w3.org/1999/xlink">
<g id="graph0" class="graph" transform="scale(1 1) rotate(0) translate(4 149.74)">
<title>set_petaio_params</title>
<polygon fill="white" stroke="transparent" points="-4,4 -4,-149.74 608,-149.74 608,4 -4,4"/>
<!-- Node1 -->
<g id="node1" class="node">
<title>Node1</title>
<g id="a_node1"><a xlink:title=" ">
<polygon fill="#bfbfbf" stroke="black" points="0,-95.5 0,-114.5 110,-114.5 110,-95.5 0,-95.5"/>
<text text-anchor="middle" x="55" y="-102.5" font-family="Helvetica,sans-Serif" font-size="10.00">set_petaio_params</text>
</a>
</g>
</g>
<!-- Node2 -->
<g id="node2" class="node">
<title>Node2</title>
<g id="a_node2"><a xlink:href="paramset_8c.html#a6228c17649c46aef53e74cd7ccb93fb0" target="_top" xlink:title=" ">
<polygon fill="white" stroke="black" points="156.5,-114.5 156.5,-133.5 243.5,-133.5 243.5,-114.5 156.5,-114.5"/>
<text text-anchor="middle" x="200" y="-121.5" font-family="Helvetica,sans-Serif" font-size="10.00">param_get_int</text>
</a>
</g>
</g>
<!-- Node1&#45;&gt;Node2 -->
<g id="edge1" class="edge">
<title>Node1&#45;&gt;Node2</title>
<path fill="none" stroke="midnightblue" d="M110.06,-112.18C121.93,-113.76 134.48,-115.43 146.29,-117"/>
<polygon fill="midnightblue" stroke="midnightblue" points="146.08,-120.5 156.45,-118.35 147,-113.56 146.08,-120.5"/>
</g>
<!-- Node8 -->
<g id="node8" class="node">
<title>Node8</title>
<g id="a_node8"><a xlink:href="paramset_8c.html#a1f6042209e35f2497db00411eb03a495" target="_top" xlink:title=" ">
<polygon fill="white" stroke="black" points="146,-76.5 146,-95.5 254,-95.5 254,-76.5 146,-76.5"/>
<text text-anchor="middle" x="200" y="-83.5" font-family="Helvetica,sans-Serif" font-size="10.00">param_get_string2</text>
</a>
</g>
</g>
<!-- Node1&#45;&gt;Node8 -->
<g id="edge8" class="edge">
<title>Node1&#45;&gt;Node8</title>
<path fill="none" stroke="midnightblue" d="M110.06,-97.82C118.48,-96.7 127.23,-95.54 135.83,-94.39"/>
<polygon fill="midnightblue" stroke="midnightblue" points="136.36,-97.85 145.81,-93.07 135.44,-90.91 136.36,-97.85"/>
</g>
<!-- Node3 -->
<g id="node3" class="node">
<title>Node3</title>
<g id="a_node3"><a xlink:href="endrun_8c.html#a6567cd867c5549fb6586e19ccd819764" target="_top" xlink:title=" ">
<polygon fill="white" stroke="black" points="299,-76.5 299,-95.5 360,-95.5 360,-76.5 299,-76.5"/>
<text text-anchor="middle" x="329.5" y="-83.5" font-family="Helvetica,sans-Serif" font-size="10.00">message</text>
</a>
</g>
</g>
<!-- Node2&#45;&gt;Node3 -->
<g id="edge2" class="edge">
<title>Node2&#45;&gt;Node3</title>
<path fill="none" stroke="midnightblue" d="M233.17,-114.41C250.23,-109.33 271.32,-103.04 289.32,-97.68"/>
<polygon fill="midnightblue" stroke="midnightblue" points="290.37,-101.02 298.96,-94.8 288.38,-94.31 290.37,-101.02"/>
</g>
<!-- Node6 -->
<g id="node6" class="node">
<title>Node6</title>
<g id="a_node6"><a xlink:href="paramset_8c.html#ac667f29553d5fbee896b206b8b895e8d" target="_top" xlink:title=" ">
<polygon fill="white" stroke="black" points="405,-114.5 405,-133.5 518,-133.5 518,-114.5 405,-114.5"/>
<text text-anchor="middle" x="461.5" y="-121.5" font-family="Helvetica,sans-Serif" font-size="10.00">param_get_schema</text>
</a>
</g>
</g>
<!-- Node2&#45;&gt;Node6 -->
<g id="edge5" class="edge">
<title>Node2&#45;&gt;Node6</title>
<path fill="none" stroke="midnightblue" d="M237.1,-133.51C253.17,-137.27 272.4,-141.14 290,-143 324.92,-146.69 334.07,-146.59 369,-143 383.55,-141.51 399.19,-138.71 413.36,-135.71"/>
<polygon fill="midnightblue" stroke="midnightblue" points="414.36,-139.07 423.37,-133.51 412.86,-132.24 414.36,-139.07"/>
</g>
<!-- Node7 -->
<g id="node7" class="node">
<title>Node7</title>
<g id="a_node7"><a xlink:href="paramset_8c.html#aa81754da7c81ed1980d04f83be9233a5" target="_top" xlink:title=" ">
<polygon fill="white" stroke="black" points="290,-114.5 290,-133.5 369,-133.5 369,-114.5 290,-114.5"/>
<text text-anchor="middle" x="329.5" y="-121.5" font-family="Helvetica,sans-Serif" font-size="10.00">param_is_nil</text>
</a>
</g>
</g>
<!-- Node2&#45;&gt;Node7 -->
<g id="edge6" class="edge">
<title>Node2&#45;&gt;Node7</title>
<path fill="none" stroke="midnightblue" d="M243.81,-124C255.34,-124 267.89,-124 279.72,-124"/>
<polygon fill="midnightblue" stroke="midnightblue" points="279.88,-127.5 289.88,-124 279.88,-120.5 279.88,-127.5"/>
</g>
<!-- Node4 -->
<g id="node4" class="node">
<title>Node4</title>
<g id="a_node4"><a xlink:href="system_8c.html#a341c8d27bd6c7dde856566810b412b1f" target="_top" xlink:title=" ">
<polygon fill="white" stroke="black" points="422,-57.5 422,-76.5 501,-76.5 501,-57.5 422,-57.5"/>
<text text-anchor="middle" x="461.5" y="-64.5" font-family="Helvetica,sans-Serif" font-size="10.00">MPIU_Tracev</text>
</a>
</g>
</g>
<!-- Node3&#45;&gt;Node4 -->
<g id="edge3" class="edge">
<title>Node3&#45;&gt;Node4</title>
<path fill="none" stroke="midnightblue" d="M360.32,-81.64C375.61,-79.41 394.62,-76.63 411.95,-74.1"/>
<polygon fill="midnightblue" stroke="midnightblue" points="412.54,-77.55 421.93,-72.64 411.53,-70.62 412.54,-77.55"/>
</g>
<!-- Node5 -->
<g id="node5" class="node">
<title>Node5</title>
<g id="a_node5"><a xlink:href="system_8c.html#a87108946670b4c3afbe846c6726675ff" target="_top" xlink:title=" ">
<polygon fill="white" stroke="black" points="554,-57.5 554,-76.5 604,-76.5 604,-57.5 554,-57.5"/>
<text text-anchor="middle" x="579" y="-64.5" font-family="Helvetica,sans-Serif" font-size="10.00">putline</text>
</a>
</g>
</g>
<!-- Node4&#45;&gt;Node5 -->
<g id="edge4" class="edge">
<title>Node4&#45;&gt;Node5</title>
<path fill="none" stroke="midnightblue" d="M501.28,-67C515.04,-67 530.41,-67 543.76,-67"/>
<polygon fill="midnightblue" stroke="midnightblue" points="543.96,-70.5 553.96,-67 543.96,-63.5 543.96,-70.5"/>
</g>
<!-- Node7&#45;&gt;Node6 -->
<g id="edge7" class="edge">
<title>Node7&#45;&gt;Node6</title>
<path fill="none" stroke="midnightblue" d="M369.15,-124C377.22,-124 385.94,-124 394.68,-124"/>
<polygon fill="midnightblue" stroke="midnightblue" points="394.92,-127.5 404.92,-124 394.92,-120.5 394.92,-127.5"/>
</g>
<!-- Node8&#45;&gt;Node3 -->
<g id="edge12" class="edge">
<title>Node8&#45;&gt;Node3</title>
<path fill="none" stroke="midnightblue" d="M254.33,-86C265.81,-86 277.76,-86 288.62,-86"/>
<polygon fill="midnightblue" stroke="midnightblue" points="288.65,-89.5 298.65,-86 288.65,-82.5 288.65,-89.5"/>
</g>
<!-- Node8&#45;&gt;Node6 -->
<g id="edge13" class="edge">
<title>Node8&#45;&gt;Node6</title>
<path fill="none" stroke="midnightblue" d="M228.6,-76.45C262.34,-66.24 320.88,-53.24 369,-67 383.63,-71.18 416.59,-93.05 438.69,-108.44"/>
<polygon fill="midnightblue" stroke="midnightblue" points="436.94,-111.49 447.13,-114.38 440.96,-105.76 436.94,-111.49"/>
</g>
<!-- Node8&#45;&gt;Node7 -->
<g id="edge14" class="edge">
<title>Node8&#45;&gt;Node7</title>
<path fill="none" stroke="midnightblue" d="M233.17,-95.59C249.33,-100.4 269.11,-106.3 286.45,-111.47"/>
<polygon fill="midnightblue" stroke="midnightblue" points="285.75,-114.91 296.34,-114.41 287.75,-108.2 285.75,-114.91"/>
</g>
<!-- Node9 -->
<g id="node9" class="node">
<title>Node9</title>
<g id="a_node9"><a xlink:href="endrun_8c.html#ad963d7efdb9f10f7a2298c8ccd222ab0" target="_top" xlink:title=" ">
<polygon fill="white" stroke="black" points="304.5,-0.5 304.5,-19.5 354.5,-19.5 354.5,-0.5 304.5,-0.5"/>
<text text-anchor="middle" x="329.5" y="-7.5" font-family="Helvetica,sans-Serif" font-size="10.00">endrun</text>
</a>
</g>
</g>
<!-- Node8&#45;&gt;Node9 -->
<g id="edge9" class="edge">
<title>Node8&#45;&gt;Node9</title>
<path fill="none" stroke="midnightblue" d="M217.15,-76.37C238.99,-63.35 278.16,-40.01 303.73,-24.76"/>
<polygon fill="midnightblue" stroke="midnightblue" points="305.69,-27.67 312.48,-19.55 302.1,-21.66 305.69,-27.67"/>
</g>
<!-- Node9&#45;&gt;Node4 -->
<g id="edge10" class="edge">
<title>Node9&#45;&gt;Node4</title>
<path fill="none" stroke="midnightblue" d="M352.26,-19.54C373.35,-28.79 405.56,-42.91 429.36,-53.35"/>
<polygon fill="midnightblue" stroke="midnightblue" points="428.11,-56.62 438.67,-57.43 430.92,-50.21 428.11,-56.62"/>
</g>
<!-- Node10 -->
<g id="node10" class="node">
<title>Node10</title>
<g id="a_node10"><a xlink:href="endrun_8c.html#a1200f02a595ab7cbe17c9e36ff32af0f" target="_top" xlink:title=" ">
<polygon fill="white" stroke="black" points="414,-0.5 414,-19.5 509,-19.5 509,-0.5 414,-0.5"/>
<text text-anchor="middle" x="461.5" y="-7.5" font-family="Helvetica,sans-Serif" font-size="10.00">show_backtrace</text>
</a>
</g>
</g>
<!-- Node9&#45;&gt;Node10 -->
<g id="edge11" class="edge">
<title>Node9&#45;&gt;Node10</title>
<path fill="none" stroke="midnightblue" d="M354.65,-10C368.52,-10 386.57,-10 403.82,-10"/>
<polygon fill="midnightblue" stroke="midnightblue" points="403.85,-13.5 413.85,-10 403.85,-6.5 403.85,-13.5"/>
</g>
</g>
</svg>
