<?xml version="1.0" encoding="UTF-8" standalone="no"?>
<!DOCTYPE svg PUBLIC "-//W3C//DTD SVG 1.1//EN"
 "http://www.w3.org/Graphics/SVG/1.1/DTD/svg11.dtd">
<!-- Generated by graphviz version 2.38.0 (20140413.2041)
 -->
<!-- Title: order_by_type Pages: 1 -->
<svg width="768pt" height="47pt"
 viewBox="0.00 0.00 768.00 47.00" xmlns="http://www.w3.org/2000/svg" xmlns:xlink="http://www.w3.org/1999/xlink">
<g id="graph0" class="graph" transform="scale(1 1) rotate(0) translate(4 43)">
<title>order_by_type</title>
<polygon fill="white" stroke="none" points="-4,4 -4,-43 764,-43 764,4 -4,4"/>
<!-- Node54 -->
<g id="node1" class="node"><title>Node54</title>
<polygon fill="#bfbfbf" stroke="black" points="0,-0.5 0,-19.5 78,-19.5 78,-0.5 0,-0.5"/>
<text text-anchor="middle" x="39" y="-7.5" font-family="Helvetica,sans-Serif" font-size="10.00">order_by_type</text>
</g>
<!-- Node55 -->
<g id="node2" class="node"><title>Node55</title>
<g id="a_node2"><a xlink:href="petaio_8c.html#afdc43604464800f6a96d72801667d046" target="_top" xlink:title="register_io_blocks">
<polygon fill="white" stroke="black" points="114,-0.5 114,-19.5 209,-19.5 209,-0.5 114,-0.5"/>
<text text-anchor="middle" x="161.5" y="-7.5" font-family="Helvetica,sans-Serif" font-size="10.00">register_io_blocks</text>
</a>
</g>
</g>
<!-- Node54&#45;&gt;Node55 -->
<g id="edge1" class="edge"><title>Node54&#45;&gt;Node55</title>
<path fill="none" stroke="midnightblue" d="M88.189,-10C96.6096,-10 105.358,-10 113.739,-10"/>
<polygon fill="midnightblue" stroke="midnightblue" points="88.127,-6.5001 78.127,-10 88.1269,-13.5001 88.127,-6.5001"/>
</g>
<!-- Node56 -->
<g id="node3" class="node"><title>Node56</title>
<g id="a_node3"><a xlink:href="petaio_8h.html#a2398ab5c3e8c8475d7c625fcac182c5b" target="_top" xlink:title="petaio_init">
<polygon fill="white" stroke="black" points="245,-0.5 245,-19.5 306,-19.5 306,-0.5 245,-0.5"/>
<text text-anchor="middle" x="275.5" y="-7.5" font-family="Helvetica,sans-Serif" font-size="10.00">petaio_init</text>
</a>
</g>
</g>
<!-- Node55&#45;&gt;Node56 -->
<g id="edge2" class="edge"><title>Node55&#45;&gt;Node56</title>
<path fill="none" stroke="midnightblue" d="M219.073,-10C228.008,-10 236.923,-10 244.91,-10"/>
<polygon fill="midnightblue" stroke="midnightblue" points="219.025,-6.5001 209.025,-10 219.025,-13.5001 219.025,-6.5001"/>
</g>
<!-- Node57 -->
<g id="node4" class="node"><title>Node57</title>
<g id="a_node4"><a xlink:href="proto_8h.html#a74dc0e5e9eefe11fc8434b62de573146" target="_top" xlink:title="begrun">
<polygon fill="white" stroke="black" points="342,-0.5 342,-19.5 388,-19.5 388,-0.5 342,-0.5"/>
<text text-anchor="middle" x="365" y="-7.5" font-family="Helvetica,sans-Serif" font-size="10.00">begrun</text>
</a>
</g>
</g>
<!-- Node56&#45;&gt;Node57 -->
<g id="edge3" class="edge"><title>Node56&#45;&gt;Node57</title>
<path fill="none" stroke="midnightblue" d="M316.268,-10C325.068,-10 334.084,-10 341.878,-10"/>
<polygon fill="midnightblue" stroke="midnightblue" points="316.124,-6.5001 306.124,-10 316.123,-13.5001 316.124,-6.5001"/>
</g>
<!-- Node58 -->
<g id="node5" class="node"><title>Node58</title>
<g id="a_node5"><a xlink:href="main_8c.html#a3c04138a5bfe5d72780bb7e82a18e627" target="_top" xlink:title="main">
<polygon fill="white" stroke="black" points="424,-0.5 424,-19.5 462,-19.5 462,-0.5 424,-0.5"/>
<text text-anchor="middle" x="443" y="-7.5" font-family="Helvetica,sans-Serif" font-size="10.00">main</text>
</a>
</g>
</g>
<!-- Node57&#45;&gt;Node58 -->
<g id="edge4" class="edge"><title>Node57&#45;&gt;Node58</title>
<path fill="none" stroke="midnightblue" d="M398.541,-10C407.114,-10 416.067,-10 423.603,-10"/>
<polygon fill="midnightblue" stroke="midnightblue" points="398.391,-6.5001 388.391,-10 398.391,-13.5001 398.391,-6.5001"/>
</g>
<!-- Node59 -->
<g id="node6" class="node"><title>Node59</title>
<g id="a_node6"><a xlink:href="walltime_8h.html#a76d2135b612766d4d665748454b879d6" target="_top" xlink:title="walltime_report">
<polygon fill="white" stroke="black" points="498,-19.5 498,-38.5 581,-38.5 581,-19.5 498,-19.5"/>
<text text-anchor="middle" x="539.5" y="-26.5" font-family="Helvetica,sans-Serif" font-size="10.00">walltime_report</text>
</a>
</g>
</g>
<!-- Node58&#45;&gt;Node59 -->
<g id="edge5" class="edge"><title>Node58&#45;&gt;Node59</title>
<path fill="none" stroke="midnightblue" d="M472.141,-15.658C480.148,-17.2678 489.035,-19.0547 497.635,-20.7837"/>
<polygon fill="midnightblue" stroke="midnightblue" points="472.714,-12.2033 462.221,-13.6634 471.334,-19.0659 472.714,-12.2033"/>
</g>
<!-- Node60 -->
<g id="node7" class="node"><title>Node60</title>
<g id="a_node7"><a xlink:href="run_8c.html#adc59e9ee1517e4e690694a64ab6a59d2" target="_top" xlink:title="write_cpu_log">
<polygon fill="white" stroke="black" points="617,-19.5 617,-38.5 694,-38.5 694,-19.5 617,-19.5"/>
<text text-anchor="middle" x="655.5" y="-26.5" font-family="Helvetica,sans-Serif" font-size="10.00">write_cpu_log</text>
</a>
</g>
</g>
<!-- Node59&#45;&gt;Node60 -->
<g id="edge6" class="edge"><title>Node59&#45;&gt;Node60</title>
<path fill="none" stroke="midnightblue" d="M591.031,-29C599.684,-29 608.54,-29 616.785,-29"/>
<polygon fill="midnightblue" stroke="midnightblue" points="591.013,-25.5001 581.013,-29 591.013,-32.5001 591.013,-25.5001"/>
</g>
<!-- Node61 -->
<g id="node8" class="node"><title>Node61</title>
<g id="a_node8"><a xlink:href="run_8c.html#a05e0ffe612d44e6d7f3a9ae5b9df56a2" target="_top" xlink:title="run">
<polygon fill="white" stroke="black" points="730,-0.5 730,-19.5 760,-19.5 760,-0.5 730,-0.5"/>
<text text-anchor="middle" x="745" y="-7.5" font-family="Helvetica,sans-Serif" font-size="10.00">run</text>
</a>
</g>
</g>
<!-- Node60&#45;&gt;Node61 -->
<g id="edge7" class="edge"><title>Node60&#45;&gt;Node61</title>
<path fill="none" stroke="midnightblue" d="M703.925,-18.7021C713.329,-16.6601 722.505,-14.6676 729.698,-13.1056"/>
<polygon fill="midnightblue" stroke="midnightblue" points="703.145,-15.2897 694.116,-20.832 704.631,-22.1303 703.145,-15.2897"/>
</g>
<!-- Node61&#45;&gt;Node58 -->
<g id="edge8" class="edge"><title>Node61&#45;&gt;Node58</title>
<path fill="none" stroke="midnightblue" d="M719.758,-10C661.391,-10 514.064,-10 462.315,-10"/>
<polygon fill="midnightblue" stroke="midnightblue" points="719.885,-13.5001 729.885,-10 719.885,-6.5001 719.885,-13.5001"/>
</g>
</g>
</svg>
