<?xml version="1.0" encoding="UTF-8" standalone="no"?>
<!DOCTYPE svg PUBLIC "-//W3C//DTD SVG 1.1//EN"
 "http://www.w3.org/Graphics/SVG/1.1/DTD/svg11.dtd">
<!-- Generated by graphviz version 2.38.0 (20140413.2041)
 -->
<!-- Title: petapm_force Pages: 1 -->
<svg width="125pt" height="532pt"
 viewBox="0.00 0.00 125.00 532.00" xmlns="http://www.w3.org/2000/svg" xmlns:xlink="http://www.w3.org/1999/xlink">
<g id="graph0" class="graph" transform="scale(1 1) rotate(0) translate(4 528)">
<title>petapm_force</title>
<polygon fill="white" stroke="none" points="-4,4 -4,-528 121,-528 121,4 -4,4"/>
<!-- Node32 -->
<g id="node1" class="node"><title>Node32</title>
<polygon fill="#bfbfbf" stroke="black" points="20.5,-0.5 20.5,-19.5 96.5,-19.5 96.5,-0.5 20.5,-0.5"/>
<text text-anchor="middle" x="58.5" y="-7.5" font-family="Helvetica,sans-Serif" font-size="10.00">petapm_force</text>
</g>
<!-- Node33 -->
<g id="node2" class="node"><title>Node33</title>
<g id="a_node2"><a xlink:href="proto_8h.html#a6a55456b331c8b01d7ae1352809b82f2" target="_top" xlink:title="gravpm_force">
<polygon fill="white" stroke="black" points="20.5,-72.5 20.5,-91.5 96.5,-91.5 96.5,-72.5 20.5,-72.5"/>
<text text-anchor="middle" x="58.5" y="-79.5" font-family="Helvetica,sans-Serif" font-size="10.00">gravpm_force</text>
</a>
</g>
</g>
<!-- Node32&#45;&gt;Node33 -->
<g id="edge1" class="edge"><title>Node32&#45;&gt;Node33</title>
<path fill="none" stroke="midnightblue" d="M58.5,-29.7574C58.5,-43.6427 58.5,-61.607 58.5,-72.4436"/>
<polygon fill="midnightblue" stroke="midnightblue" points="62.0001,-29.7102 58.5,-19.7102 55.0001,-29.7103 62.0001,-29.7102"/>
</g>
<!-- Node34 -->
<g id="node3" class="node"><title>Node34</title>
<g id="a_node3"><a xlink:href="run_8c.html#abb80d08f4d52f4a7bdf28d1cecfead5b" target="_top" xlink:title="compute_accelerations">
<polygon fill="white" stroke="black" points="0,-504.5 0,-523.5 117,-523.5 117,-504.5 0,-504.5"/>
<text text-anchor="middle" x="58.5" y="-511.5" font-family="Helvetica,sans-Serif" font-size="10.00">compute_accelerations</text>
</a>
</g>
</g>
<!-- Node33&#45;&gt;Node34 -->
<g id="edge2" class="edge"><title>Node33&#45;&gt;Node34</title>
<path fill="none" stroke="midnightblue" d="M58.5,-101.988C58.5,-178.296 58.5,-449.71 58.5,-504.368"/>
<polygon fill="midnightblue" stroke="midnightblue" points="62.0001,-101.835 58.5,-91.8346 55.0001,-101.835 62.0001,-101.835"/>
</g>
<!-- Node39 -->
<g id="node8" class="node"><title>Node39</title>
<g id="a_node8"><a xlink:href="runtests_8c.html#a549024555ca61e3f05a7100307e44f69" target="_top" xlink:title="runtests">
<polygon fill="white" stroke="black" points="32.5,-144.5 32.5,-163.5 84.5,-163.5 84.5,-144.5 32.5,-144.5"/>
<text text-anchor="middle" x="58.5" y="-151.5" font-family="Helvetica,sans-Serif" font-size="10.00">runtests</text>
</a>
</g>
</g>
<!-- Node33&#45;&gt;Node39 -->
<g id="edge8" class="edge"><title>Node33&#45;&gt;Node39</title>
<path fill="none" stroke="midnightblue" d="M58.5,-101.757C58.5,-115.643 58.5,-133.607 58.5,-144.444"/>
<polygon fill="midnightblue" stroke="midnightblue" points="62.0001,-101.71 58.5,-91.7102 55.0001,-101.71 62.0001,-101.71"/>
</g>
<!-- Node35 -->
<g id="node4" class="node"><title>Node35</title>
<g id="a_node4"><a xlink:href="run_8c.html#a05e0ffe612d44e6d7f3a9ae5b9df56a2" target="_top" xlink:title="run">
<polygon fill="white" stroke="black" points="43.5,-432.5 43.5,-451.5 73.5,-451.5 73.5,-432.5 43.5,-432.5"/>
<text text-anchor="middle" x="58.5" y="-439.5" font-family="Helvetica,sans-Serif" font-size="10.00">run</text>
</a>
</g>
</g>
<!-- Node34&#45;&gt;Node35 -->
<g id="edge3" class="edge"><title>Node34&#45;&gt;Node35</title>
<path fill="none" stroke="midnightblue" d="M58.5,-494.243C58.5,-480.357 58.5,-462.393 58.5,-451.556"/>
<polygon fill="midnightblue" stroke="midnightblue" points="55.0001,-494.29 58.5,-504.29 62.0001,-494.29 55.0001,-494.29"/>
</g>
<!-- Node36 -->
<g id="node5" class="node"><title>Node36</title>
<g id="a_node5"><a xlink:href="main_8c.html#a3c04138a5bfe5d72780bb7e82a18e627" target="_top" xlink:title="main">
<polygon fill="white" stroke="black" points="39.5,-216.5 39.5,-235.5 77.5,-235.5 77.5,-216.5 39.5,-216.5"/>
<text text-anchor="middle" x="58.5" y="-223.5" font-family="Helvetica,sans-Serif" font-size="10.00">main</text>
</a>
</g>
</g>
<!-- Node35&#45;&gt;Node36 -->
<g id="edge4" class="edge"><title>Node35&#45;&gt;Node36</title>
<path fill="none" stroke="midnightblue" d="M58.5,-422.266C58.5,-377.443 58.5,-269.269 58.5,-235.943"/>
<polygon fill="midnightblue" stroke="midnightblue" points="55.0001,-422.44 58.5,-432.44 62.0001,-422.44 55.0001,-422.44"/>
</g>
<!-- Node37 -->
<g id="node6" class="node"><title>Node37</title>
<g id="a_node6"><a xlink:href="walltime_8h.html#a76d2135b612766d4d665748454b879d6" target="_top" xlink:title="walltime_report">
<polygon fill="white" stroke="black" points="17,-288.5 17,-307.5 100,-307.5 100,-288.5 17,-288.5"/>
<text text-anchor="middle" x="58.5" y="-295.5" font-family="Helvetica,sans-Serif" font-size="10.00">walltime_report</text>
</a>
</g>
</g>
<!-- Node36&#45;&gt;Node37 -->
<g id="edge5" class="edge"><title>Node36&#45;&gt;Node37</title>
<path fill="none" stroke="midnightblue" d="M58.5,-245.757C58.5,-259.643 58.5,-277.607 58.5,-288.444"/>
<polygon fill="midnightblue" stroke="midnightblue" points="62.0001,-245.71 58.5,-235.71 55.0001,-245.71 62.0001,-245.71"/>
</g>
<!-- Node38 -->
<g id="node7" class="node"><title>Node38</title>
<g id="a_node7"><a xlink:href="run_8c.html#adc59e9ee1517e4e690694a64ab6a59d2" target="_top" xlink:title="write_cpu_log">
<polygon fill="white" stroke="black" points="20,-360.5 20,-379.5 97,-379.5 97,-360.5 20,-360.5"/>
<text text-anchor="middle" x="58.5" y="-367.5" font-family="Helvetica,sans-Serif" font-size="10.00">write_cpu_log</text>
</a>
</g>
</g>
<!-- Node37&#45;&gt;Node38 -->
<g id="edge6" class="edge"><title>Node37&#45;&gt;Node38</title>
<path fill="none" stroke="midnightblue" d="M58.5,-317.757C58.5,-331.643 58.5,-349.607 58.5,-360.444"/>
<polygon fill="midnightblue" stroke="midnightblue" points="62.0001,-317.71 58.5,-307.71 55.0001,-317.71 62.0001,-317.71"/>
</g>
<!-- Node38&#45;&gt;Node35 -->
<g id="edge7" class="edge"><title>Node38&#45;&gt;Node35</title>
<path fill="none" stroke="midnightblue" d="M58.5,-389.757C58.5,-403.643 58.5,-421.607 58.5,-432.444"/>
<polygon fill="midnightblue" stroke="midnightblue" points="62.0001,-389.71 58.5,-379.71 55.0001,-389.71 62.0001,-389.71"/>
</g>
<!-- Node39&#45;&gt;Node36 -->
<g id="edge9" class="edge"><title>Node39&#45;&gt;Node36</title>
<path fill="none" stroke="midnightblue" d="M58.5,-173.757C58.5,-187.643 58.5,-205.607 58.5,-216.444"/>
<polygon fill="midnightblue" stroke="midnightblue" points="62.0001,-173.71 58.5,-163.71 55.0001,-173.71 62.0001,-173.71"/>
</g>
</g>
</svg>
