<?xml version="1.0" encoding="UTF-8" standalone="no"?>
<!DOCTYPE svg PUBLIC "-//W3C//DTD SVG 1.1//EN"
 "http://www.w3.org/Graphics/SVG/1.1/DTD/svg11.dtd">
<!-- Generated by graphviz version 2.38.0 (20140413.2041)
 -->
<!-- Title: petaio_read_snapshot Pages: 1 -->
<svg width="1390pt" height="832pt"
 viewBox="0.00 0.00 1390.00 832.00" xmlns="http://www.w3.org/2000/svg" xmlns:xlink="http://www.w3.org/1999/xlink">
<g id="graph0" class="graph" transform="scale(1 1) rotate(0) translate(4 828)">
<title>petaio_read_snapshot</title>
<polygon fill="white" stroke="none" points="-4,4 -4,-828 1386,-828 1386,4 -4,4"/>
<!-- Node322 -->
<g id="node1" class="node"><title>Node322</title>
<polygon fill="#bfbfbf" stroke="black" points="0,-381.5 0,-400.5 112,-400.5 112,-381.5 0,-381.5"/>
<text text-anchor="middle" x="56" y="-388.5" font-family="Helvetica,sans-Serif" font-size="10.00">petaio_read_snapshot</text>
</g>
<!-- Node323 -->
<g id="node2" class="node"><title>Node323</title>
<g id="a_node2"><a xlink:href="utils-string_8c.html#a787c3b0717214d830c69b7e8785a3e33" target="_top" xlink:title="fastpm_strdup_printf">
<polygon fill="white" stroke="black" points="148,-535.5 148,-554.5 254,-554.5 254,-535.5 148,-535.5"/>
<text text-anchor="middle" x="201" y="-542.5" font-family="Helvetica,sans-Serif" font-size="10.00">fastpm_strdup_printf</text>
</a>
</g>
</g>
<!-- Node322&#45;&gt;Node323 -->
<g id="edge1" class="edge"><title>Node322&#45;&gt;Node323</title>
<path fill="none" stroke="midnightblue" d="M65.9453,-400.633C89.6198,-426.129 154.151,-495.624 184.206,-527.991"/>
<polygon fill="midnightblue" stroke="midnightblue" points="181.689,-530.424 191.058,-535.37 186.818,-525.661 181.689,-530.424"/>
</g>
<!-- Node326 -->
<g id="node5" class="node"><title>Node326</title>
<g id="a_node5"><a xlink:href="petaio_8c.html#aaa9eefdbfea91c08aa366767aac96a69" target="_top" xlink:title="petaio_read_internal">
<polygon fill="white" stroke="black" points="149,-228.5 149,-247.5 253,-247.5 253,-228.5 149,-228.5"/>
<text text-anchor="middle" x="201" y="-235.5" font-family="Helvetica,sans-Serif" font-size="10.00">petaio_read_internal</text>
</a>
</g>
</g>
<!-- Node322&#45;&gt;Node326 -->
<g id="edge4" class="edge"><title>Node322&#45;&gt;Node326</title>
<path fill="none" stroke="midnightblue" d="M65.9453,-381.429C89.6198,-356.099 154.151,-287.056 184.206,-254.899"/>
<polygon fill="midnightblue" stroke="midnightblue" points="186.787,-257.263 191.058,-247.567 181.673,-252.483 186.787,-257.263"/>
</g>
<!-- Node324 -->
<g id="node3" class="node"><title>Node324</title>
<g id="a_node3"><a xlink:href="utils-string_8c.html#ae1f141218851350d5d41e00bc16cc705" target="_top" xlink:title="fastpm_strdup_vprintf">
<polygon fill="white" stroke="black" points="301.5,-804.5 301.5,-823.5 412.5,-823.5 412.5,-804.5 301.5,-804.5"/>
<text text-anchor="middle" x="357" y="-811.5" font-family="Helvetica,sans-Serif" font-size="10.00">fastpm_strdup_vprintf</text>
</a>
</g>
</g>
<!-- Node323&#45;&gt;Node324 -->
<g id="edge2" class="edge"><title>Node323&#45;&gt;Node324</title>
<path fill="none" stroke="midnightblue" d="M202.376,-554.57C204.356,-591.443 216.537,-725.69 290,-795 291.656,-796.562 293.432,-797.997 295.301,-799.315"/>
<polygon fill="midnightblue" stroke="midnightblue" points="293.603,-802.377 304.008,-804.376 297.121,-796.325 293.603,-802.377"/>
</g>
<!-- Node325 -->
<g id="node4" class="node"><title>Node325</title>
<g id="a_node4"><a xlink:href="utils-string_8c.html#a0b3b094cb274f3b23292ecfc061734f8" target="_top" xlink:title="_mkdir">
<polygon fill="white" stroke="black" points="505,-804.5 505,-823.5 551,-823.5 551,-804.5 505,-804.5"/>
<text text-anchor="middle" x="528" y="-811.5" font-family="Helvetica,sans-Serif" font-size="10.00">_mkdir</text>
</a>
</g>
</g>
<!-- Node324&#45;&gt;Node325 -->
<g id="edge3" class="edge"><title>Node324&#45;&gt;Node325</title>
<path fill="none" stroke="midnightblue" d="M412.869,-814C439.827,-814 471.392,-814 494.485,-814"/>
<polygon fill="midnightblue" stroke="midnightblue" points="494.768,-817.5 504.768,-814 494.768,-810.5 494.768,-817.5"/>
</g>
<!-- Node327 -->
<g id="node6" class="node"><title>Node327</title>
<g id="a_node6"><a xlink:href="endrun_8c.html#ad963d7efdb9f10f7a2298c8ccd222ab0" target="_top" xlink:title="endrun">
<polygon fill="white" stroke="black" points="1092.5,-576.5 1092.5,-595.5 1138.5,-595.5 1138.5,-576.5 1092.5,-576.5"/>
<text text-anchor="middle" x="1115.5" y="-583.5" font-family="Helvetica,sans-Serif" font-size="10.00">endrun</text>
</a>
</g>
</g>
<!-- Node326&#45;&gt;Node327 -->
<g id="edge5" class="edge"><title>Node326&#45;&gt;Node327</title>
<path fill="none" stroke="midnightblue" d="M203.788,-247.875C216.088,-315.775 287.749,-710.918 290,-713 367.762,-784.915 421.082,-738 527,-738 527,-738 527,-738 862,-738 940.818,-738 969.494,-742.833 1035,-699 1070.22,-675.434 1094.69,-630.581 1106.47,-605.043"/>
<polygon fill="midnightblue" stroke="midnightblue" points="1109.76,-606.254 1110.62,-595.693 1103.37,-603.418 1109.76,-606.254"/>
</g>
<!-- Node331 -->
<g id="node10" class="node"><title>Node331</title>
<g id="a_node10"><a xlink:href="endrun_8c.html#a6567cd867c5549fb6586e19ccd819764" target="_top" xlink:title="message">
<polygon fill="white" stroke="black" points="833,-147.5 833,-166.5 889,-166.5 889,-147.5 833,-147.5"/>
<text text-anchor="middle" x="861" y="-154.5" font-family="Helvetica,sans-Serif" font-size="10.00">message</text>
</a>
</g>
</g>
<!-- Node326&#45;&gt;Node331 -->
<g id="edge9" class="edge"><title>Node326&#45;&gt;Node331</title>
<path fill="none" stroke="midnightblue" d="M253.026,-238.98C299.125,-238.264 368.109,-233.152 424,-212 442.219,-205.105 442.417,-195.384 460,-187 531.858,-152.736 553.186,-148.223 632,-137 691.401,-128.541 707.336,-130.657 767,-137 785.632,-138.981 806.015,-143.134 822.938,-147.145"/>
<polygon fill="midnightblue" stroke="midnightblue" points="822.435,-150.625 832.981,-149.603 824.1,-143.826 822.435,-150.625"/>
</g>
<!-- Node332 -->
<g id="node11" class="node"><title>Node332</title>
<g id="a_node11"><a xlink:href="partmanager_8c.html#a7d7c32365264f550b4bbeeac5b98f42f" target="_top" xlink:title="particle_alloc_memory">
<polygon fill="white" stroke="black" points="471,-70.5 471,-89.5 585,-89.5 585,-70.5 471,-70.5"/>
<text text-anchor="middle" x="528" y="-77.5" font-family="Helvetica,sans-Serif" font-size="10.00">particle_alloc_memory</text>
</a>
</g>
</g>
<!-- Node326&#45;&gt;Node332 -->
<g id="edge11" class="edge"><title>Node326&#45;&gt;Node332</title>
<path fill="none" stroke="midnightblue" d="M250.389,-228.408C306.843,-216.547 396.03,-195.53 424,-176 446.451,-160.323 440.422,-145.145 460,-126 472.295,-113.977 488.068,-102.976 501.222,-94.749"/>
<polygon fill="midnightblue" stroke="midnightblue" points="503.105,-97.7006 509.835,-89.5179 499.471,-91.7177 503.105,-97.7006"/>
</g>
<!-- Node333 -->
<g id="node12" class="node"><title>Node333</title>
<g id="a_node12"><a xlink:href="petaio_8c.html#aafe1fe998e7ca93a780ad69be4d061dc" target="_top" xlink:title="petaio_alloc_buffer">
<polygon fill="white" stroke="black" points="308,-114.5 308,-133.5 406,-133.5 406,-114.5 308,-114.5"/>
<text text-anchor="middle" x="357" y="-121.5" font-family="Helvetica,sans-Serif" font-size="10.00">petaio_alloc_buffer</text>
</a>
</g>
</g>
<!-- Node326&#45;&gt;Node333 -->
<g id="edge13" class="edge"><title>Node326&#45;&gt;Node333</title>
<path fill="none" stroke="midnightblue" d="M208.925,-228.483C222.537,-210.403 254.553,-170.855 290,-148 296.411,-143.866 303.63,-140.32 310.879,-137.32"/>
<polygon fill="midnightblue" stroke="midnightblue" points="312.618,-140.403 320.711,-133.565 310.12,-133.864 312.618,-140.403"/>
</g>
<!-- Node334 -->
<g id="node13" class="node"><title>Node334</title>
<g id="a_node13"><a xlink:href="petaio_8c.html#a00bc8b1ba2ab1de94d983b08b14580c7" target="_top" xlink:title="petaio_destroy_buffer">
<polygon fill="white" stroke="black" points="302,-76.5 302,-95.5 412,-95.5 412,-76.5 302,-76.5"/>
<text text-anchor="middle" x="357" y="-83.5" font-family="Helvetica,sans-Serif" font-size="10.00">petaio_destroy_buffer</text>
</a>
</g>
</g>
<!-- Node326&#45;&gt;Node334 -->
<g id="edge14" class="edge"><title>Node326&#45;&gt;Node334</title>
<path fill="none" stroke="midnightblue" d="M205.639,-228.267C215.341,-203.67 244.248,-138.589 290,-105 292.643,-103.059 295.48,-101.317 298.439,-99.7514"/>
<polygon fill="midnightblue" stroke="midnightblue" points="299.962,-102.903 307.607,-95.5682 297.056,-96.535 299.962,-102.903"/>
</g>
<!-- Node335 -->
<g id="node14" class="node"><title>Node335</title>
<g id="a_node14"><a xlink:href="petaio_8c.html#a375e118ac0a9723ee7a157edc2d1e1ed" target="_top" xlink:title="petaio_read_block">
<polygon fill="white" stroke="black" points="480.5,-690.5 480.5,-709.5 575.5,-709.5 575.5,-690.5 480.5,-690.5"/>
<text text-anchor="middle" x="528" y="-697.5" font-family="Helvetica,sans-Serif" font-size="10.00">petaio_read_block</text>
</a>
</g>
</g>
<!-- Node326&#45;&gt;Node335 -->
<g id="edge15" class="edge"><title>Node326&#45;&gt;Node335</title>
<path fill="none" stroke="midnightblue" d="M203.797,-247.901C215.57,-312.661 281.471,-673.408 290,-681 341.268,-726.637 425.927,-721.004 478.968,-711.45"/>
<polygon fill="midnightblue" stroke="midnightblue" points="479.648,-714.884 488.812,-709.567 478.332,-708.008 479.648,-714.884"/>
</g>
<!-- Node336 -->
<g id="node15" class="node"><title>Node336</title>
<g id="a_node15"><a xlink:href="petaio_8c.html#a1a8e570c528088eb5b86d7b06eb34329" target="_top" xlink:title="petaio_read_neutrinos">
<polygon fill="white" stroke="black" points="301,-652.5 301,-671.5 413,-671.5 413,-652.5 301,-652.5"/>
<text text-anchor="middle" x="357" y="-659.5" font-family="Helvetica,sans-Serif" font-size="10.00">petaio_read_neutrinos</text>
</a>
</g>
</g>
<!-- Node326&#45;&gt;Node336 -->
<g id="edge17" class="edge"><title>Node326&#45;&gt;Node336</title>
<path fill="none" stroke="midnightblue" d="M205.506,-247.652C225.178,-301.815 321.922,-568.174 348.965,-642.632"/>
<polygon fill="midnightblue" stroke="midnightblue" points="345.729,-643.973 352.432,-652.177 352.308,-641.583 345.729,-643.973"/>
</g>
<!-- Node337 -->
<g id="node16" class="node"><title>Node337</title>
<g id="a_node16"><a xlink:href="petaio_8c.html#acfbe2137aa21a8042aadf9c8621212f9" target="_top" xlink:title="petaio_readout_buffer">
<polygon fill="white" stroke="black" points="302,-38.5 302,-57.5 412,-57.5 412,-38.5 302,-38.5"/>
<text text-anchor="middle" x="357" y="-45.5" font-family="Helvetica,sans-Serif" font-size="10.00">petaio_readout_buffer</text>
</a>
</g>
</g>
<!-- Node326&#45;&gt;Node337 -->
<g id="edge20" class="edge"><title>Node326&#45;&gt;Node337</title>
<path fill="none" stroke="midnightblue" d="M204.156,-228.153C211.084,-198.892 235.573,-111.73 290,-67 292.055,-65.3108 294.254,-63.7717 296.555,-62.3694"/>
<polygon fill="midnightblue" stroke="midnightblue" points="298.545,-65.2825 305.853,-57.6106 295.356,-59.0513 298.545,-65.2825"/>
</g>
<!-- Node338 -->
<g id="node17" class="node"><title>Node338</title>
<g id="a_node17"><a xlink:href="slotsmanager_8c.html#ad4fe30b4e00aecd907012d34766a5c24" target="_top" xlink:title="slots_reserve">
<polygon fill="white" stroke="black" points="490.5,-32.5 490.5,-51.5 565.5,-51.5 565.5,-32.5 490.5,-32.5"/>
<text text-anchor="middle" x="528" y="-39.5" font-family="Helvetica,sans-Serif" font-size="10.00">slots_reserve</text>
</a>
</g>
</g>
<!-- Node326&#45;&gt;Node338 -->
<g id="edge21" class="edge"><title>Node326&#45;&gt;Node338</title>
<path fill="none" stroke="midnightblue" d="M212.833,-228.312C228.664,-214.658 259.559,-189.873 290,-176 345.812,-150.564 377.06,-182.48 424,-143 454.461,-117.381 429.991,-87.1464 460,-61 465.961,-55.8064 473.248,-52.0263 480.795,-49.2765"/>
<polygon fill="midnightblue" stroke="midnightblue" points="481.886,-52.603 490.413,-46.3157 479.826,-45.9128 481.886,-52.603"/>
</g>
<!-- Node339 -->
<g id="node18" class="node"><title>Node339</title>
<g id="a_node18"><a xlink:href="slotsmanager_8c.html#a84d2fff04dc5487a2eb86f980c9abafd" target="_top" xlink:title="slots_setup_id">
<polygon fill="white" stroke="black" points="317,-0.5 317,-19.5 397,-19.5 397,-0.5 317,-0.5"/>
<text text-anchor="middle" x="357" y="-7.5" font-family="Helvetica,sans-Serif" font-size="10.00">slots_setup_id</text>
</a>
</g>
</g>
<!-- Node326&#45;&gt;Node339 -->
<g id="edge23" class="edge"><title>Node326&#45;&gt;Node339</title>
<path fill="none" stroke="midnightblue" d="M203.117,-228.423C207.483,-195.438 226.421,-85.4743 290,-29 294.914,-24.6349 300.772,-21.2687 306.94,-18.6737"/>
<polygon fill="midnightblue" stroke="midnightblue" points="308.529,-21.8246 316.796,-15.1977 306.201,-15.2231 308.529,-21.8246"/>
</g>
<!-- Node340 -->
<g id="node19" class="node"><title>Node340</title>
<g id="a_node19"><a xlink:href="slotsmanager_8c.html#a977aa19b4c7d9ba1d1cc61eca8354678" target="_top" xlink:title="slots_setup_topology">
<polygon fill="white" stroke="black" points="302.5,-766.5 302.5,-785.5 411.5,-785.5 411.5,-766.5 302.5,-766.5"/>
<text text-anchor="middle" x="357" y="-773.5" font-family="Helvetica,sans-Serif" font-size="10.00">slots_setup_topology</text>
</a>
</g>
</g>
<!-- Node326&#45;&gt;Node340 -->
<g id="edge24" class="edge"><title>Node326&#45;&gt;Node340</title>
<path fill="none" stroke="midnightblue" d="M203.823,-247.683C210.671,-284.13 235.404,-416.552 254,-526 262.519,-576.137 257.629,-712.778 290,-752 293.087,-755.741 296.809,-758.899 300.893,-761.564"/>
<polygon fill="midnightblue" stroke="midnightblue" points="299.245,-764.652 309.699,-766.373 302.6,-758.508 299.245,-764.652"/>
</g>
<!-- Node341 -->
<g id="node20" class="node"><title>Node341</title>
<g id="a_node20"><a xlink:href="timestep_8c.html#ac4649213db370055ed2ce25277ba7844" target="_top" xlink:title="timestep_allocate_memory">
<polygon fill="white" stroke="black" points="290,-386.5 290,-405.5 424,-405.5 424,-386.5 290,-386.5"/>
<text text-anchor="middle" x="357" y="-393.5" font-family="Helvetica,sans-Serif" font-size="10.00">timestep_allocate_memory</text>
</a>
</g>
</g>
<!-- Node326&#45;&gt;Node341 -->
<g id="edge25" class="edge"><title>Node326&#45;&gt;Node341</title>
<path fill="none" stroke="midnightblue" d="M211.633,-247.884C237.129,-274.041 306.624,-345.341 338.991,-378.549"/>
<polygon fill="midnightblue" stroke="midnightblue" points="336.884,-381.402 346.37,-386.12 341.897,-376.516 336.884,-381.402"/>
</g>
<!-- Node328 -->
<g id="node7" class="node"><title>Node328</title>
<g id="a_node7"><a xlink:href="endrun_8c.html#a7267113a7c0a094743bb565eabc695d1" target="_top" xlink:title="messagev">
<polygon fill="white" stroke="black" points="1196,-364.5 1196,-383.5 1258,-383.5 1258,-364.5 1196,-364.5"/>
<text text-anchor="middle" x="1227" y="-371.5" font-family="Helvetica,sans-Serif" font-size="10.00">messagev</text>
</a>
</g>
</g>
<!-- Node327&#45;&gt;Node328 -->
<g id="edge6" class="edge"><title>Node327&#45;&gt;Node328</title>
<path fill="none" stroke="midnightblue" d="M1124.99,-576.44C1134.4,-565.524 1149.6,-546.858 1160,-529 1186.87,-482.851 1208.98,-423.688 1219.46,-393.548"/>
<polygon fill="midnightblue" stroke="midnightblue" points="1222.85,-394.429 1222.78,-383.834 1216.23,-392.165 1222.85,-394.429"/>
</g>
<!-- Node329 -->
<g id="node8" class="node"><title>Node329</title>
<g id="a_node8"><a xlink:href="endrun_8c.html#a87108946670b4c3afbe846c6726675ff" target="_top" xlink:title="putline">
<polygon fill="white" stroke="black" points="1315.5,-383.5 1315.5,-402.5 1360.5,-402.5 1360.5,-383.5 1315.5,-383.5"/>
<text text-anchor="middle" x="1338" y="-390.5" font-family="Helvetica,sans-Serif" font-size="10.00">putline</text>
</a>
</g>
</g>
<!-- Node328&#45;&gt;Node329 -->
<g id="edge7" class="edge"><title>Node328&#45;&gt;Node329</title>
<path fill="none" stroke="midnightblue" d="M1258.07,-379.242C1272.68,-381.788 1290.23,-384.848 1305.07,-387.435"/>
<polygon fill="midnightblue" stroke="midnightblue" points="1304.87,-390.951 1315.32,-389.221 1306.07,-384.055 1304.87,-390.951"/>
</g>
<!-- Node330 -->
<g id="node9" class="node"><title>Node330</title>
<g id="a_node9"><a xlink:href="endrun_8c.html#a1200f02a595ab7cbe17c9e36ff32af0f" target="_top" xlink:title="show_backtrace">
<polygon fill="white" stroke="black" points="1294,-345.5 1294,-364.5 1382,-364.5 1382,-345.5 1294,-345.5"/>
<text text-anchor="middle" x="1338" y="-352.5" font-family="Helvetica,sans-Serif" font-size="10.00">show_backtrace</text>
</a>
</g>
</g>
<!-- Node328&#45;&gt;Node330 -->
<g id="edge8" class="edge"><title>Node328&#45;&gt;Node330</title>
<path fill="none" stroke="midnightblue" d="M1258.07,-368.758C1266.13,-367.353 1275.09,-365.792 1283.99,-364.24"/>
<polygon fill="midnightblue" stroke="midnightblue" points="1284.72,-367.666 1293.97,-362.501 1283.52,-360.77 1284.72,-367.666"/>
</g>
<!-- Node331&#45;&gt;Node328 -->
<g id="edge10" class="edge"><title>Node331&#45;&gt;Node328</title>
<path fill="none" stroke="midnightblue" d="M889.152,-166.231C898.76,-169.822 909.529,-174.223 919,-179 1032.05,-236.015 1156.35,-323.35 1204.92,-358.527"/>
<polygon fill="midnightblue" stroke="midnightblue" points="1202.94,-361.417 1213.09,-364.469 1207.06,-355.756 1202.94,-361.417"/>
</g>
<!-- Node332&#45;&gt;Node331 -->
<g id="edge12" class="edge"><title>Node332&#45;&gt;Node331</title>
<path fill="none" stroke="midnightblue" d="M585.152,-79.1528C634.24,-79.9301 706.87,-84.7889 767,-104 793.38,-112.428 820.562,-129.004 838.673,-141.385"/>
<polygon fill="midnightblue" stroke="midnightblue" points="837.068,-144.535 847.264,-147.412 841.088,-138.804 837.068,-144.535"/>
</g>
<!-- Node335&#45;&gt;Node327 -->
<g id="edge16" class="edge"><title>Node335&#45;&gt;Node327</title>
<path fill="none" stroke="midnightblue" d="M575.542,-702.34C684.837,-707.116 954.716,-714.517 1035,-676 1066.95,-660.672 1091.52,-626.024 1104.42,-604.468"/>
<polygon fill="midnightblue" stroke="midnightblue" points="1107.57,-606.016 1109.52,-595.601 1101.5,-602.529 1107.57,-606.016"/>
</g>
<!-- Node336&#45;&gt;Node327 -->
<g id="edge18" class="edge"><title>Node336&#45;&gt;Node327</title>
<path fill="none" stroke="midnightblue" d="M413.142,-662C480.482,-662 597.857,-662 698.5,-662 698.5,-662 698.5,-662 862,-662 946.874,-662 1041.24,-622.14 1086.84,-600.154"/>
<polygon fill="midnightblue" stroke="midnightblue" points="1088.63,-603.173 1096.07,-595.625 1085.55,-596.889 1088.63,-603.173"/>
</g>
<!-- Node336&#45;&gt;Node335 -->
<g id="edge19" class="edge"><title>Node336&#45;&gt;Node335</title>
<path fill="none" stroke="midnightblue" d="M400.646,-671.589C423.148,-676.649 450.948,-682.9 474.738,-688.249"/>
<polygon fill="midnightblue" stroke="midnightblue" points="474.137,-691.701 484.661,-690.48 475.672,-684.871 474.137,-691.701"/>
</g>
<!-- Node338&#45;&gt;Node331 -->
<g id="edge22" class="edge"><title>Node338&#45;&gt;Node331</title>
<path fill="none" stroke="midnightblue" d="M565.826,-41.4372C614.158,-42.0376 700.63,-47.7896 767,-78 798.769,-92.4606 828.168,-121.032 845.088,-139.56"/>
<polygon fill="midnightblue" stroke="midnightblue" points="842.689,-142.13 851.948,-147.28 847.922,-137.48 842.689,-142.13"/>
</g>
<!-- Node342 -->
<g id="node21" class="node"><title>Node342</title>
<g id="a_node21"><a xlink:href="timestep_8c.html#a905529218519d867edf0a20aab1d8fdc" target="_top" xlink:title="reverse_and_apply_gravity">
<polygon fill="white" stroke="black" points="633,-146.5 633,-165.5 766,-165.5 766,-146.5 633,-146.5"/>
<text text-anchor="middle" x="699.5" y="-153.5" font-family="Helvetica,sans-Serif" font-size="10.00">reverse_and_apply_gravity</text>
</a>
</g>
</g>
<!-- Node341&#45;&gt;Node342 -->
<g id="edge26" class="edge"><title>Node341&#45;&gt;Node342</title>
<path fill="none" stroke="midnightblue" d="M365.156,-386.331C380.803,-365.597 419.879,-315.991 460,-282 529.052,-223.498 548.911,-208.873 632,-173 635.65,-171.424 639.477,-169.971 643.375,-168.634"/>
<polygon fill="midnightblue" stroke="midnightblue" points="644.662,-171.898 653.144,-165.549 642.554,-165.223 644.662,-171.898"/>
</g>
<!-- Node344 -->
<g id="node23" class="node"><title>Node344</title>
<g id="a_node23"><a xlink:href="timestep_8c.html#af02cf913a1503e86149164697803c375" target="_top" xlink:title="get_timestep_ti">
<polygon fill="white" stroke="black" points="486.5,-386.5 486.5,-405.5 569.5,-405.5 569.5,-386.5 486.5,-386.5"/>
<text text-anchor="middle" x="528" y="-393.5" font-family="Helvetica,sans-Serif" font-size="10.00">get_timestep_ti</text>
</a>
</g>
</g>
<!-- Node341&#45;&gt;Node344 -->
<g id="edge29" class="edge"><title>Node341&#45;&gt;Node344</title>
<path fill="none" stroke="midnightblue" d="M424.308,-396C441.452,-396 459.644,-396 475.878,-396"/>
<polygon fill="midnightblue" stroke="midnightblue" points="476.233,-399.5 486.233,-396 476.233,-392.5 476.233,-399.5"/>
</g>
<!-- Node352 -->
<g id="node31" class="node"><title>Node352</title>
<g id="a_node31"><a xlink:href="timestep_8c.html#acd31a672ca9dfbbf3c03f14f1e3baec6" target="_top" xlink:title="get_timestep_bin">
<polygon fill="white" stroke="black" points="482.5,-576.5 482.5,-595.5 573.5,-595.5 573.5,-576.5 482.5,-576.5"/>
<text text-anchor="middle" x="528" y="-583.5" font-family="Helvetica,sans-Serif" font-size="10.00">get_timestep_bin</text>
</a>
</g>
</g>
<!-- Node341&#45;&gt;Node352 -->
<g id="edge40" class="edge"><title>Node341&#45;&gt;Node352</title>
<path fill="none" stroke="midnightblue" d="M360.984,-405.877C370.367,-435.22 402.141,-522.59 460,-567 463.872,-569.972 468.19,-572.48 472.716,-574.595"/>
<polygon fill="midnightblue" stroke="midnightblue" points="471.638,-577.934 482.222,-578.409 474.245,-571.437 471.638,-577.934"/>
</g>
<!-- Node353 -->
<g id="node32" class="node"><title>Node353</title>
<g id="a_node32"><a xlink:href="timestep_8c.html#a49d9c1eaea24e348e66971102030905d" target="_top" xlink:title="do_the_short_range_kick">
<polygon fill="white" stroke="black" points="465.5,-500.5 465.5,-519.5 590.5,-519.5 590.5,-500.5 465.5,-500.5"/>
<text text-anchor="middle" x="528" y="-507.5" font-family="Helvetica,sans-Serif" font-size="10.00">do_the_short_range_kick</text>
</a>
</g>
</g>
<!-- Node341&#45;&gt;Node353 -->
<g id="edge41" class="edge"><title>Node341&#45;&gt;Node353</title>
<path fill="none" stroke="midnightblue" d="M372.118,-405.523C401.247,-425.173 468.255,-470.373 503.829,-494.37"/>
<polygon fill="midnightblue" stroke="midnightblue" points="502.316,-497.571 512.564,-500.262 506.231,-491.768 502.316,-497.571"/>
</g>
<!-- Node358 -->
<g id="node37" class="node"><title>Node358</title>
<g id="a_node37"><a xlink:href="timestep_8c.html#a79ed08f7ec7bc7f0edcbf580dfeaafef" target="_top" xlink:title="do_the_long_range_kick">
<polygon fill="white" stroke="black" points="467,-538.5 467,-557.5 589,-557.5 589,-538.5 467,-538.5"/>
<text text-anchor="middle" x="528" y="-545.5" font-family="Helvetica,sans-Serif" font-size="10.00">do_the_long_range_kick</text>
</a>
</g>
</g>
<!-- Node341&#45;&gt;Node358 -->
<g id="edge52" class="edge"><title>Node341&#45;&gt;Node358</title>
<path fill="none" stroke="midnightblue" d="M362.655,-405.743C374.928,-430.363 410.647,-495.493 460,-529 462.94,-530.996 466.088,-532.784 469.357,-534.386"/>
<polygon fill="midnightblue" stroke="midnightblue" points="468.25,-537.719 478.822,-538.424 470.997,-531.28 468.25,-537.719"/>
</g>
<!-- Node359 -->
<g id="node38" class="node"><title>Node359</title>
<g id="a_node38"><a xlink:href="timestep_8c.html#a698aa21800cfd13febdd63096191022c" target="_top" xlink:title="get_long_range_timestep_ti">
<polygon fill="white" stroke="black" points="460,-291.5 460,-310.5 596,-310.5 596,-291.5 460,-291.5"/>
<text text-anchor="middle" x="528" y="-298.5" font-family="Helvetica,sans-Serif" font-size="10.00">get_long_range_timestep_ti</text>
</a>
</g>
</g>
<!-- Node341&#45;&gt;Node359 -->
<g id="edge54" class="edge"><title>Node341&#45;&gt;Node359</title>
<path fill="none" stroke="midnightblue" d="M375.135,-386.368C404.819,-369.682 465.978,-335.302 500.95,-315.644"/>
<polygon fill="midnightblue" stroke="midnightblue" points="503.069,-318.467 510.071,-310.516 499.639,-312.365 503.069,-318.467"/>
</g>
<!-- Node342&#45;&gt;Node331 -->
<g id="edge28" class="edge"><title>Node342&#45;&gt;Node331</title>
<path fill="none" stroke="midnightblue" d="M766.296,-156.413C785.443,-156.533 805.697,-156.66 822.458,-156.765"/>
<polygon fill="midnightblue" stroke="midnightblue" points="822.899,-160.267 832.92,-156.83 822.943,-153.268 822.899,-160.267"/>
</g>
<!-- Node343 -->
<g id="node22" class="node"><title>Node343</title>
<g id="a_node22"><a xlink:href="allvars_8h.html#a310e6c512e36e9b5f852ada300400412" target="_top" xlink:title="DMIN">
<polygon fill="white" stroke="black" points="839.5,-188.5 839.5,-207.5 882.5,-207.5 882.5,-188.5 839.5,-188.5"/>
<text text-anchor="middle" x="861" y="-195.5" font-family="Helvetica,sans-Serif" font-size="10.00">DMIN</text>
</a>
</g>
</g>
<!-- Node342&#45;&gt;Node343 -->
<g id="edge27" class="edge"><title>Node342&#45;&gt;Node343</title>
<path fill="none" stroke="midnightblue" d="M736.693,-165.53C764.606,-172.88 802.787,-182.935 829.236,-189.899"/>
<polygon fill="midnightblue" stroke="midnightblue" points="828.535,-193.334 839.097,-192.496 830.318,-186.565 828.535,-193.334"/>
</g>
<!-- Node344&#45;&gt;Node331 -->
<g id="edge39" class="edge"><title>Node344&#45;&gt;Node331</title>
<path fill="none" stroke="midnightblue" d="M569.653,-390.77C622.598,-381.811 714.561,-358.548 767,-301 805.077,-259.213 764.685,-220.569 803,-179 808.51,-173.022 815.829,-168.652 823.381,-165.463"/>
<polygon fill="midnightblue" stroke="midnightblue" points="824.726,-168.698 832.952,-162.022 822.358,-162.111 824.726,-168.698"/>
</g>
<!-- Node345 -->
<g id="node24" class="node"><title>Node345</title>
<g id="a_node24"><a xlink:href="timestep_8c.html#a8239ad577eb50bbaf5330f0fe96f71e0" target="_top" xlink:title="get_timestep_dloga">
<polygon fill="white" stroke="black" points="649,-424.5 649,-443.5 750,-443.5 750,-424.5 649,-424.5"/>
<text text-anchor="middle" x="699.5" y="-431.5" font-family="Helvetica,sans-Serif" font-size="10.00">get_timestep_dloga</text>
</a>
</g>
</g>
<!-- Node344&#45;&gt;Node345 -->
<g id="edge30" class="edge"><title>Node344&#45;&gt;Node345</title>
<path fill="none" stroke="midnightblue" d="M569.599,-405.102C592.497,-410.235 621.359,-416.706 645.965,-422.222"/>
<polygon fill="midnightblue" stroke="midnightblue" points="645.343,-425.67 655.866,-424.442 646.874,-418.839 645.343,-425.67"/>
</g>
<!-- Node349 -->
<g id="node28" class="node"><title>Node349</title>
<g id="a_node28"><a xlink:href="timebinmgr_8c.html#a4d5d8a782b55fd059777c50cc6784f4d" target="_top" xlink:title="dti_from_dloga">
<polygon fill="white" stroke="black" points="659.5,-386.5 659.5,-405.5 739.5,-405.5 739.5,-386.5 659.5,-386.5"/>
<text text-anchor="middle" x="699.5" y="-393.5" font-family="Helvetica,sans-Serif" font-size="10.00">dti_from_dloga</text>
</a>
</g>
</g>
<!-- Node344&#45;&gt;Node349 -->
<g id="edge34" class="edge"><title>Node344&#45;&gt;Node349</title>
<path fill="none" stroke="midnightblue" d="M569.599,-396C593.53,-396 623.975,-396 649.268,-396"/>
<polygon fill="midnightblue" stroke="midnightblue" points="649.399,-399.5 659.399,-396 649.399,-392.5 649.399,-399.5"/>
</g>
<!-- Node346 -->
<g id="node25" class="node"><title>Node346</title>
<g id="a_node25"><a xlink:href="partmanager_8h.html#a75af6ed4098fb6fbcc96a532b6e1bd11" target="_top" xlink:title="FORCE_SOFTENING">
<polygon fill="white" stroke="black" points="803,-424.5 803,-443.5 919,-443.5 919,-424.5 803,-424.5"/>
<text text-anchor="middle" x="861" y="-431.5" font-family="Helvetica,sans-Serif" font-size="10.00">FORCE_SOFTENING</text>
</a>
</g>
</g>
<!-- Node345&#45;&gt;Node346 -->
<g id="edge31" class="edge"><title>Node345&#45;&gt;Node346</title>
<path fill="none" stroke="midnightblue" d="M750.092,-434C763.559,-434 778.371,-434 792.64,-434"/>
<polygon fill="midnightblue" stroke="midnightblue" points="792.908,-437.5 802.908,-434 792.908,-430.5 792.908,-437.5"/>
</g>
<!-- Node347 -->
<g id="node26" class="node"><title>Node347</title>
<g id="a_node26"><a xlink:href="timebinmgr_8c.html#a72fa098187974a52cb5010bbddc7704d" target="_top" xlink:title="get_dloga_for_bin">
<polygon fill="white" stroke="black" points="814.5,-462.5 814.5,-481.5 907.5,-481.5 907.5,-462.5 814.5,-462.5"/>
<text text-anchor="middle" x="861" y="-469.5" font-family="Helvetica,sans-Serif" font-size="10.00">get_dloga_for_bin</text>
</a>
</g>
</g>
<!-- Node345&#45;&gt;Node347 -->
<g id="edge32" class="edge"><title>Node345&#45;&gt;Node347</title>
<path fill="none" stroke="midnightblue" d="M740.749,-443.589C761.796,-448.604 787.755,-454.788 810.073,-460.105"/>
<polygon fill="midnightblue" stroke="midnightblue" points="809.502,-463.567 820.041,-462.48 811.124,-456.758 809.502,-463.567"/>
</g>
<!-- Node348 -->
<g id="node27" class="node"><title>Node348</title>
<g id="a_node27"><a xlink:href="timebinmgr_8c.html#a1aaa55e4aa15066a753c96e8646e62be" target="_top" xlink:title="Dloga_interval_ti">
<polygon fill="white" stroke="black" points="1071,-500.5 1071,-519.5 1160,-519.5 1160,-500.5 1071,-500.5"/>
<text text-anchor="middle" x="1115.5" y="-507.5" font-family="Helvetica,sans-Serif" font-size="10.00">Dloga_interval_ti</text>
</a>
</g>
</g>
<!-- Node347&#45;&gt;Node348 -->
<g id="edge33" class="edge"><title>Node347&#45;&gt;Node348</title>
<path fill="none" stroke="midnightblue" d="M907.75,-475.452C942.752,-478.473 992.132,-483.554 1035,-491 1046.03,-492.915 1057.8,-495.453 1068.82,-498.049"/>
<polygon fill="midnightblue" stroke="midnightblue" points="1068.14,-501.486 1078.68,-500.433 1069.79,-494.681 1068.14,-501.486"/>
</g>
<!-- Node350 -->
<g id="node29" class="node"><title>Node350</title>
<g id="a_node29"><a xlink:href="timebinmgr_8c.html#a2e2b7b549c7ebcd90457efb5330c1955" target="_top" xlink:title="ti_from_loga">
<polygon fill="white" stroke="black" points="826,-348.5 826,-367.5 896,-367.5 896,-348.5 826,-348.5"/>
<text text-anchor="middle" x="861" y="-355.5" font-family="Helvetica,sans-Serif" font-size="10.00">ti_from_loga</text>
</a>
</g>
</g>
<!-- Node349&#45;&gt;Node350 -->
<g id="edge35" class="edge"><title>Node349&#45;&gt;Node350</title>
<path fill="none" stroke="midnightblue" d="M739.518,-386.704C762.678,-381.186 792.104,-374.176 816.077,-368.465"/>
<polygon fill="midnightblue" stroke="midnightblue" points="817.066,-371.827 825.983,-366.104 815.444,-365.017 817.066,-371.827"/>
</g>
<!-- Node351 -->
<g id="node30" class="node"><title>Node351</title>
<g id="a_node30"><a xlink:href="timebinmgr_8c.html#a90eb3a2bdca47035148249e68fc244be" target="_top" xlink:title="loga_from_ti">
<polygon fill="white" stroke="black" points="960,-538.5 960,-557.5 1030,-557.5 1030,-538.5 960,-538.5"/>
<text text-anchor="middle" x="995" y="-545.5" font-family="Helvetica,sans-Serif" font-size="10.00">loga_from_ti</text>
</a>
</g>
</g>
<!-- Node349&#45;&gt;Node351 -->
<g id="edge36" class="edge"><title>Node349&#45;&gt;Node351</title>
<path fill="none" stroke="midnightblue" d="M739.549,-387.492C787.304,-379.506 868.052,-374.151 919,-415 960.454,-448.237 920.299,-488.764 955,-529 956.015,-530.176 957.119,-531.286 958.292,-532.333"/>
<polygon fill="midnightblue" stroke="midnightblue" points="956.62,-535.438 966.805,-538.358 960.664,-529.724 956.62,-535.438"/>
</g>
<!-- Node351&#45;&gt;Node327 -->
<g id="edge37" class="edge"><title>Node351&#45;&gt;Node327</title>
<path fill="none" stroke="midnightblue" d="M1025.9,-557.589C1043.21,-563.14 1064.99,-570.124 1082.62,-575.778"/>
<polygon fill="midnightblue" stroke="midnightblue" points="1081.87,-579.212 1092.46,-578.933 1084.01,-572.547 1081.87,-579.212"/>
</g>
<!-- Node351&#45;&gt;Node348 -->
<g id="edge38" class="edge"><title>Node351&#45;&gt;Node348</title>
<path fill="none" stroke="midnightblue" d="M1025.9,-538.411C1040.78,-533.641 1058.96,-527.811 1074.97,-522.677"/>
<polygon fill="midnightblue" stroke="midnightblue" points="1076.15,-525.972 1084.61,-519.586 1074.02,-519.307 1076.15,-525.972"/>
</g>
<!-- Node353&#45;&gt;Node327 -->
<g id="edge45" class="edge"><title>Node353&#45;&gt;Node327</title>
<path fill="none" stroke="midnightblue" d="M575.066,-519.508C582.351,-522.002 589.587,-525.118 596,-529 615.902,-541.048 610.814,-557.389 632,-567 787.99,-637.766 1002.35,-607.672 1082.53,-592.64"/>
<polygon fill="midnightblue" stroke="midnightblue" points="1083.34,-596.047 1092.5,-590.717 1082.02,-589.174 1083.34,-596.047"/>
</g>
<!-- Node353&#45;&gt;Node347 -->
<g id="edge51" class="edge"><title>Node353&#45;&gt;Node347</title>
<path fill="none" stroke="midnightblue" d="M590.506,-501.33C604.158,-499.493 618.563,-497.62 632,-496 690.596,-488.935 757.808,-482.003 803.994,-477.419"/>
<polygon fill="midnightblue" stroke="midnightblue" points="804.493,-480.887 814.1,-476.42 803.804,-473.921 804.493,-480.887"/>
</g>
<!-- Node354 -->
<g id="node33" class="node"><title>Node354</title>
<g id="a_node33"><a xlink:href="timefac_8c.html#a04f496d2bb899efbf6bcd34c606906bd" target="_top" xlink:title="get_gravkick_factor">
<polygon fill="white" stroke="black" points="648.5,-614.5 648.5,-633.5 750.5,-633.5 750.5,-614.5 648.5,-614.5"/>
<text text-anchor="middle" x="699.5" y="-621.5" font-family="Helvetica,sans-Serif" font-size="10.00">get_gravkick_factor</text>
</a>
</g>
</g>
<!-- Node353&#45;&gt;Node354 -->
<g id="edge42" class="edge"><title>Node353&#45;&gt;Node354</title>
<path fill="none" stroke="midnightblue" d="M580.266,-519.643C585.934,-522.09 591.333,-525.157 596,-529 623.311,-551.492 605.493,-576.566 632,-600 636.536,-604.01 641.793,-607.366 647.325,-610.171"/>
<polygon fill="midnightblue" stroke="midnightblue" points="646.255,-613.526 656.815,-614.389 649.099,-607.129 646.255,-613.526"/>
</g>
<!-- Node356 -->
<g id="node35" class="node"><title>Node356</title>
<g id="a_node35"><a xlink:href="timefac_8c.html#a9d78f344a7de7062087825becb1f403a" target="_top" xlink:title="get_hydrokick_factor">
<polygon fill="white" stroke="black" points="646,-538.5 646,-557.5 753,-557.5 753,-538.5 646,-538.5"/>
<text text-anchor="middle" x="699.5" y="-545.5" font-family="Helvetica,sans-Serif" font-size="10.00">get_hydrokick_factor</text>
</a>
</g>
</g>
<!-- Node353&#45;&gt;Node356 -->
<g id="edge46" class="edge"><title>Node353&#45;&gt;Node356</title>
<path fill="none" stroke="midnightblue" d="M571.772,-519.589C594.341,-524.649 622.223,-530.9 646.083,-536.249"/>
<polygon fill="midnightblue" stroke="midnightblue" points="645.512,-539.708 656.036,-538.48 647.043,-532.877 645.512,-539.708"/>
</g>
<!-- Node357 -->
<g id="node36" class="node"><title>Node357</title>
<g id="a_node36"><a xlink:href="timebinmgr_8c.html#a37f0feff42f32e30d011f964a40e921e" target="_top" xlink:title="dloga_from_dti">
<polygon fill="white" stroke="black" points="955,-500.5 955,-519.5 1035,-519.5 1035,-500.5 955,-500.5"/>
<text text-anchor="middle" x="995" y="-507.5" font-family="Helvetica,sans-Serif" font-size="10.00">dloga_from_dti</text>
</a>
</g>
</g>
<!-- Node353&#45;&gt;Node357 -->
<g id="edge48" class="edge"><title>Node353&#45;&gt;Node357</title>
<path fill="none" stroke="midnightblue" d="M590.748,-510C684.07,-510 859.189,-510 944.61,-510"/>
<polygon fill="midnightblue" stroke="midnightblue" points="944.818,-513.5 954.818,-510 944.818,-506.5 944.818,-513.5"/>
</g>
<!-- Node355 -->
<g id="node34" class="node"><title>Node355</title>
<g id="a_node34"><a xlink:href="timefac_8c.html#a6821c579370313dd41f0f81e8c0b7304" target="_top" xlink:title="find_bin_number">
<polygon fill="white" stroke="black" points="817,-538.5 817,-557.5 905,-557.5 905,-538.5 817,-538.5"/>
<text text-anchor="middle" x="861" y="-545.5" font-family="Helvetica,sans-Serif" font-size="10.00">find_bin_number</text>
</a>
</g>
</g>
<!-- Node354&#45;&gt;Node355 -->
<g id="edge43" class="edge"><title>Node354&#45;&gt;Node355</title>
<path fill="none" stroke="midnightblue" d="M720.701,-614.375C748.505,-601.126 798.746,-577.187 830.684,-561.969"/>
<polygon fill="midnightblue" stroke="midnightblue" points="832.441,-565.009 839.963,-557.547 829.43,-558.689 832.441,-565.009"/>
</g>
<!-- Node355&#45;&gt;Node351 -->
<g id="edge44" class="edge"><title>Node355&#45;&gt;Node351</title>
<path fill="none" stroke="midnightblue" d="M905.222,-548C919.501,-548 935.401,-548 949.755,-548"/>
<polygon fill="midnightblue" stroke="midnightblue" points="949.889,-551.5 959.889,-548 949.889,-544.5 949.889,-551.5"/>
</g>
<!-- Node356&#45;&gt;Node355 -->
<g id="edge47" class="edge"><title>Node356&#45;&gt;Node355</title>
<path fill="none" stroke="midnightblue" d="M753.168,-548C770.301,-548 789.326,-548 806.518,-548"/>
<polygon fill="midnightblue" stroke="midnightblue" points="806.952,-551.5 816.952,-548 806.952,-544.5 806.952,-551.5"/>
</g>
<!-- Node357&#45;&gt;Node327 -->
<g id="edge50" class="edge"><title>Node357&#45;&gt;Node327</title>
<path fill="none" stroke="midnightblue" d="M1017.39,-519.619C1023.21,-522.45 1029.44,-525.683 1035,-529 1056.17,-541.623 1078.89,-558.252 1094.59,-570.289"/>
<polygon fill="midnightblue" stroke="midnightblue" points="1092.49,-573.091 1102.54,-576.449 1096.78,-567.557 1092.49,-573.091"/>
</g>
<!-- Node357&#45;&gt;Node348 -->
<g id="edge49" class="edge"><title>Node357&#45;&gt;Node348</title>
<path fill="none" stroke="midnightblue" d="M1035.13,-510C1043.37,-510 1052.19,-510 1060.86,-510"/>
<polygon fill="midnightblue" stroke="midnightblue" points="1060.91,-513.5 1070.91,-510 1060.91,-506.5 1060.91,-513.5"/>
</g>
<!-- Node358&#45;&gt;Node354 -->
<g id="edge53" class="edge"><title>Node358&#45;&gt;Node354</title>
<path fill="none" stroke="midnightblue" d="M573.776,-557.55C581.441,-560.059 589.138,-563.169 596,-567 614.952,-577.58 613.43,-588.763 632,-600 638.867,-604.155 646.564,-607.753 654.22,-610.808"/>
<polygon fill="midnightblue" stroke="midnightblue" points="653.237,-614.177 663.83,-614.388 655.681,-607.617 653.237,-614.177"/>
</g>
<!-- Node359&#45;&gt;Node331 -->
<g id="edge62" class="edge"><title>Node359&#45;&gt;Node331</title>
<path fill="none" stroke="midnightblue" d="M537.305,-291.399C553.578,-273.214 591.61,-233.717 632,-213 665.134,-196.004 767.125,-174.741 822.797,-163.96"/>
<polygon fill="midnightblue" stroke="midnightblue" points="823.793,-167.333 832.953,-162.011 822.473,-160.459 823.793,-167.333"/>
</g>
<!-- Node359&#45;&gt;Node349 -->
<g id="edge60" class="edge"><title>Node359&#45;&gt;Node349</title>
<path fill="none" stroke="midnightblue" d="M546.185,-310.632C575.958,-327.318 637.297,-361.698 672.373,-381.356"/>
<polygon fill="midnightblue" stroke="midnightblue" points="671.087,-384.648 681.521,-386.484 674.509,-378.541 671.087,-384.648"/>
</g>
<!-- Node359&#45;&gt;Node357 -->
<g id="edge63" class="edge"><title>Node359&#45;&gt;Node357</title>
<path fill="none" stroke="midnightblue" d="M596.054,-303.866C700.68,-308.88 893.492,-320.507 919,-339 969.425,-375.557 986.405,-453.556 991.74,-490.203"/>
<polygon fill="midnightblue" stroke="midnightblue" points="988.275,-490.697 993.046,-500.157 995.215,-489.787 988.275,-490.697"/>
</g>
<!-- Node360 -->
<g id="node39" class="node"><title>Node360</title>
<g id="a_node39"><a xlink:href="timestep_8c.html#add69b35359fbf9ee39f114387f777231" target="_top" xlink:title="get_long_range_timestep\l_dloga">
<polygon fill="white" stroke="black" points="637,-223 637,-253 762,-253 762,-223 637,-223"/>
<text text-anchor="start" x="645" y="-241" font-family="Helvetica,sans-Serif" font-size="10.00">get_long_range_timestep</text>
<text text-anchor="middle" x="699.5" y="-230" font-family="Helvetica,sans-Serif" font-size="10.00">_dloga</text>
</a>
</g>
</g>
<!-- Node359&#45;&gt;Node360 -->
<g id="edge55" class="edge"><title>Node359&#45;&gt;Node360</title>
<path fill="none" stroke="midnightblue" d="M554.743,-291.432C579.479,-282.238 617.529,-268.095 648.27,-256.67"/>
<polygon fill="midnightblue" stroke="midnightblue" points="649.814,-259.83 657.968,-253.065 647.375,-253.268 649.814,-259.83"/>
</g>
<!-- Node363 -->
<g id="node42" class="node"><title>Node363</title>
<g id="a_node42"><a xlink:href="timebinmgr_8c.html#a670638d37437095012fe1effdc9c1098" target="_top" xlink:title="round_down_power_of_two">
<polygon fill="white" stroke="black" points="632,-272.5 632,-291.5 767,-291.5 767,-272.5 632,-272.5"/>
<text text-anchor="middle" x="699.5" y="-279.5" font-family="Helvetica,sans-Serif" font-size="10.00">round_down_power_of_two</text>
</a>
</g>
</g>
<!-- Node359&#45;&gt;Node363 -->
<g id="edge61" class="edge"><title>Node359&#45;&gt;Node363</title>
<path fill="none" stroke="midnightblue" d="M596.478,-293.436C604.748,-292.509 613.247,-291.556 621.642,-290.615"/>
<polygon fill="midnightblue" stroke="midnightblue" points="622.26,-294.068 631.808,-289.476 621.48,-287.112 622.26,-294.068"/>
</g>
<!-- Node360&#45;&gt;Node331 -->
<g id="edge59" class="edge"><title>Node360&#45;&gt;Node331</title>
<path fill="none" stroke="midnightblue" d="M738.291,-222.955C747.904,-218.592 758.043,-213.503 767,-208 784.505,-197.244 785.203,-189.266 803,-179 809.38,-175.32 816.493,-172.017 823.471,-169.158"/>
<polygon fill="midnightblue" stroke="midnightblue" points="824.758,-172.413 832.822,-165.541 822.233,-165.885 824.758,-172.413"/>
</g>
<!-- Node360&#45;&gt;Node343 -->
<g id="edge58" class="edge"><title>Node360&#45;&gt;Node343</title>
<path fill="none" stroke="midnightblue" d="M760.346,-222.992C783.874,-217.091 809.871,-210.572 829.411,-205.671"/>
<polygon fill="midnightblue" stroke="midnightblue" points="830.421,-209.026 839.27,-203.199 828.719,-202.237 830.421,-209.026"/>
</g>
<!-- Node361 -->
<g id="node40" class="node"><title>Node361</title>
<g id="a_node40"><a xlink:href="system_8c.html#a1d471d98379273269e8045d2998eca73" target="_top" xlink:title="count_sum">
<polygon fill="white" stroke="black" points="828.5,-227.5 828.5,-246.5 893.5,-246.5 893.5,-227.5 828.5,-227.5"/>
<text text-anchor="middle" x="861" y="-234.5" font-family="Helvetica,sans-Serif" font-size="10.00">count_sum</text>
</a>
</g>
</g>
<!-- Node360&#45;&gt;Node361 -->
<g id="edge56" class="edge"><title>Node360&#45;&gt;Node361</title>
<path fill="none" stroke="midnightblue" d="M762.167,-237.613C780.897,-237.496 801.031,-237.37 818.136,-237.262"/>
<polygon fill="midnightblue" stroke="midnightblue" points="818.378,-240.761 828.355,-237.198 818.334,-233.761 818.378,-240.761"/>
</g>
<!-- Node362 -->
<g id="node41" class="node"><title>Node362</title>
<g id="a_node41"><a xlink:href="system_8c.html#a866c4b0425665030c89933c11752b1fe" target="_top" xlink:title="sumup_large_ints">
<polygon fill="white" stroke="black" points="814.5,-265.5 814.5,-284.5 907.5,-284.5 907.5,-265.5 814.5,-265.5"/>
<text text-anchor="middle" x="861" y="-272.5" font-family="Helvetica,sans-Serif" font-size="10.00">sumup_large_ints</text>
</a>
</g>
</g>
<!-- Node360&#45;&gt;Node362 -->
<g id="edge57" class="edge"><title>Node360&#45;&gt;Node362</title>
<path fill="none" stroke="midnightblue" d="M762.167,-252.305C777.552,-255.874 793.884,-259.663 808.707,-263.101"/>
<polygon fill="midnightblue" stroke="midnightblue" points="808.166,-266.569 818.698,-265.419 809.747,-259.75 808.166,-266.569"/>
</g>
</g>
</svg>
