<?xml version="1.0" encoding="UTF-8" standalone="no"?>
<!DOCTYPE svg PUBLIC "-//W3C//DTD SVG 1.1//EN"
 "http://www.w3.org/Graphics/SVG/1.1/DTD/svg11.dtd">
<!-- Generated by graphviz version 2.38.0 (20140413.2041)
 -->
<!-- Title: petapm_force_c2r Pages: 1 -->
<svg width="530pt" height="507pt"
 viewBox="0.00 0.00 530.00 507.33" xmlns="http://www.w3.org/2000/svg" xmlns:xlink="http://www.w3.org/1999/xlink">
<g id="graph0" class="graph" transform="scale(1 1) rotate(0) translate(4 503.332)">
<title>petapm_force_c2r</title>
<polygon fill="white" stroke="none" points="-4,4 -4,-503.332 525.997,-503.332 525.997,4 -4,4"/>
<!-- Node166 -->
<g id="node1" class="node"><title>Node166</title>
<polygon fill="#bfbfbf" stroke="black" points="241.249,-137.452 241.249,-156.452 336.249,-156.452 336.249,-137.452 241.249,-137.452"/>
<text text-anchor="middle" x="288.749" y="-144.452" font-family="Helvetica,sans-Serif" font-size="10.00">petapm_force_c2r</text>
</g>
<!-- Node167 -->
<g id="node2" class="node"><title>Node167</title>
<g id="a_node2"><a xlink:href="petapm_8c.html#a5a2c9ed8c72538ce898b58466147f953" target="_top" xlink:title="layout_build_and_exchange\l_cells_to_local">
<polygon fill="white" stroke="black" points="153.502,-63.4761 153.502,-93.4761 290.502,-93.4761 290.502,-63.4761 153.502,-63.4761"/>
<text text-anchor="start" x="161.502" y="-81.4761" font-family="Helvetica,sans-Serif" font-size="10.00">layout_build_and_exchange</text>
<text text-anchor="middle" x="222.002" y="-70.4761" font-family="Helvetica,sans-Serif" font-size="10.00">_cells_to_local</text>
</a>
</g>
</g>
<!-- Node166&#45;&gt;Node167 -->
<g id="edge1" class="edge"><title>Node166&#45;&gt;Node167</title>
<path fill="none" stroke="midnightblue" d="M279.468,-137.431C270.332,-128.058 256.037,-113.392 243.99,-101.034"/>
<polygon fill="midnightblue" stroke="midnightblue" points="246.333,-98.4229 236.846,-93.705 241.32,-103.309 246.333,-98.4229"/>
</g>
<!-- Node174 -->
<g id="node9" class="node"><title>Node174</title>
<g id="a_node9"><a xlink:href="petapm_8c.html#afd3e62b9da0a77676b5a5b03d00d950d" target="_top" xlink:title="pm_apply_transfer_function">
<polygon fill="white" stroke="black" points="314.498,-121.287 314.498,-140.287 451.498,-140.287 451.498,-121.287 314.498,-121.287"/>
<text text-anchor="middle" x="382.998" y="-128.287" font-family="Helvetica,sans-Serif" font-size="10.00">pm_apply_transfer_function</text>
</a>
</g>
</g>
<!-- Node166&#45;&gt;Node174 -->
<g id="edge8" class="edge"><title>Node166&#45;&gt;Node174</title>
<path fill="none" stroke="midnightblue" d="M336.426,-138.775C336.472,-138.767 336.517,-138.759 336.563,-138.751"/>
<polygon fill="midnightblue" stroke="midnightblue" points="327.438,-143.874 336.7,-138.728 326.25,-136.975 327.438,-143.874"/>
</g>
<!-- Node176 -->
<g id="node11" class="node"><title>Node176</title>
<g id="a_node11"><a xlink:href="petapm_8c.html#aced125d1c3c73e86e1d6de677c53a4b1" target="_top" xlink:title="pm_iterate">
<polygon fill="white" stroke="black" points="235.5,-205.928 235.5,-224.928 297.5,-224.928 297.5,-205.928 235.5,-205.928"/>
<text text-anchor="middle" x="266.5" y="-212.928" font-family="Helvetica,sans-Serif" font-size="10.00">pm_iterate</text>
</a>
</g>
</g>
<!-- Node166&#45;&gt;Node176 -->
<g id="edge11" class="edge"><title>Node166&#45;&gt;Node176</title>
<path fill="none" stroke="midnightblue" d="M285.656,-156.473C282.372,-166.579 277.09,-182.837 272.903,-195.723"/>
<polygon fill="midnightblue" stroke="midnightblue" points="269.473,-194.952 269.711,-205.544 276.13,-197.115 269.473,-194.952"/>
</g>
<!-- Node168 -->
<g id="node3" class="node"><title>Node168</title>
<g id="a_node3"><a xlink:href="petapm_8c.html#a9ce8af9d0fdccca80037a33edd8a6bc2" target="_top" xlink:title="layout_iterate_cells">
<polygon fill="white" stroke="black" points="0,-205.928 0,-224.928 101,-224.928 101,-205.928 0,-205.928"/>
<text text-anchor="middle" x="50.5" y="-212.928" font-family="Helvetica,sans-Serif" font-size="10.00">layout_iterate_cells</text>
</a>
</g>
</g>
<!-- Node167&#45;&gt;Node168 -->
<g id="edge2" class="edge"><title>Node167&#45;&gt;Node168</title>
<path fill="none" stroke="midnightblue" d="M202.993,-93.6556C170.329,-119.739 103.854,-172.823 70.5119,-199.448"/>
<polygon fill="midnightblue" stroke="midnightblue" points="68.0452,-196.938 62.415,-205.914 72.4133,-202.408 68.0452,-196.938"/>
</g>
<!-- Node173 -->
<g id="node8" class="node"><title>Node173</title>
<g id="a_node8"><a xlink:href="petapm_8c.html#a94abf0029b30574763583b8912391399" target="_top" xlink:title="to_region">
<polygon fill="white" stroke="black" points="171.752,-0.5 171.752,-19.5 227.752,-19.5 227.752,-0.5 171.752,-0.5"/>
<text text-anchor="middle" x="199.752" y="-7.5" font-family="Helvetica,sans-Serif" font-size="10.00">to_region</text>
</a>
</g>
</g>
<!-- Node167&#45;&gt;Node173 -->
<g id="edge7" class="edge"><title>Node167&#45;&gt;Node173</title>
<path fill="none" stroke="midnightblue" d="M217.064,-63.279C213.838,-53.3498 209.593,-40.2879 206.115,-29.5824"/>
<polygon fill="midnightblue" stroke="midnightblue" points="209.377,-28.2946 202.958,-19.8656 202.719,-30.4578 209.377,-28.2946"/>
</g>
<!-- Node169 -->
<g id="node4" class="node"><title>Node169</title>
<g id="a_node4"><a xlink:href="endrun_8c.html#ad963d7efdb9f10f7a2298c8ccd222ab0" target="_top" xlink:title="endrun">
<polygon fill="white" stroke="black" points="199.002,-342.88 199.002,-361.88 245.002,-361.88 245.002,-342.88 199.002,-342.88"/>
<text text-anchor="middle" x="222.002" y="-349.88" font-family="Helvetica,sans-Serif" font-size="10.00">endrun</text>
</a>
</g>
</g>
<!-- Node168&#45;&gt;Node169 -->
<g id="edge3" class="edge"><title>Node168&#45;&gt;Node169</title>
<path fill="none" stroke="midnightblue" d="M62.5597,-225.058C91.6411,-248.281 165.879,-307.564 201.854,-336.292"/>
<polygon fill="midnightblue" stroke="midnightblue" points="199.727,-339.072 209.726,-342.577 204.095,-333.602 199.727,-339.072"/>
</g>
<!-- Node170 -->
<g id="node5" class="node"><title>Node170</title>
<g id="a_node5"><a xlink:href="endrun_8c.html#a7267113a7c0a094743bb565eabc695d1" target="_top" xlink:title="messagev">
<polygon fill="white" stroke="black" points="302.248,-411.356 302.248,-430.356 364.248,-430.356 364.248,-411.356 302.248,-411.356"/>
<text text-anchor="middle" x="333.248" y="-418.356" font-family="Helvetica,sans-Serif" font-size="10.00">messagev</text>
</a>
</g>
</g>
<!-- Node169&#45;&gt;Node170 -->
<g id="edge4" class="edge"><title>Node169&#45;&gt;Node170</title>
<path fill="none" stroke="midnightblue" d="M237.47,-361.902C255.963,-373.285 287.135,-392.472 308.876,-405.855"/>
<polygon fill="midnightblue" stroke="midnightblue" points="307.201,-408.934 317.552,-411.195 310.871,-402.973 307.201,-408.934"/>
</g>
<!-- Node171 -->
<g id="node6" class="node"><title>Node171</title>
<g id="a_node6"><a xlink:href="endrun_8c.html#a87108946670b4c3afbe846c6726675ff" target="_top" xlink:title="putline">
<polygon fill="white" stroke="black" points="476.997,-375.21 476.997,-394.21 521.997,-394.21 521.997,-375.21 476.997,-375.21"/>
<text text-anchor="middle" x="499.497" y="-382.21" font-family="Helvetica,sans-Serif" font-size="10.00">putline</text>
</a>
</g>
</g>
<!-- Node170&#45;&gt;Node171 -->
<g id="edge5" class="edge"><title>Node170&#45;&gt;Node171</title>
<path fill="none" stroke="midnightblue" d="M364.518,-414.058C393.798,-407.691 437.371,-398.218 467.032,-391.769"/>
<polygon fill="midnightblue" stroke="midnightblue" points="467.869,-395.169 476.897,-389.624 466.382,-388.329 467.869,-395.169"/>
</g>
<!-- Node172 -->
<g id="node7" class="node"><title>Node172</title>
<g id="a_node7"><a xlink:href="endrun_8c.html#a1200f02a595ab7cbe17c9e36ff32af0f" target="_top" xlink:title="show_backtrace">
<polygon fill="white" stroke="black" points="133.503,-479.832 133.503,-498.832 221.503,-498.832 221.503,-479.832 133.503,-479.832"/>
<text text-anchor="middle" x="177.503" y="-486.832" font-family="Helvetica,sans-Serif" font-size="10.00">show_backtrace</text>
</a>
</g>
</g>
<!-- Node170&#45;&gt;Node172 -->
<g id="edge6" class="edge"><title>Node170&#45;&gt;Node172</title>
<path fill="none" stroke="midnightblue" d="M311.592,-430.378C284.818,-442.15 239.059,-462.268 208.551,-475.682"/>
<polygon fill="midnightblue" stroke="midnightblue" points="206.971,-472.553 199.225,-479.782 209.788,-478.961 206.971,-472.553"/>
</g>
<!-- Node174&#45;&gt;Node169 -->
<g id="edge9" class="edge"><title>Node174&#45;&gt;Node169</title>
<path fill="none" stroke="midnightblue" d="M376.081,-140.309C351.418,-174.254 267.54,-289.703 235.027,-334.452"/>
<polygon fill="midnightblue" stroke="midnightblue" points="232.121,-332.497 229.075,-342.645 237.784,-336.612 232.121,-332.497"/>
</g>
<!-- Node175 -->
<g id="node10" class="node"><title>Node175</title>
<g id="a_node10"><a xlink:href="petapm_8c.html#a58ddc307031e0c1a52372f8bd2cc2726" target="_top" xlink:title="petapm_mesh_to_k">
<polygon fill="white" stroke="black" points="390.248,-78.9666 390.248,-97.9666 492.248,-97.9666 492.248,-78.9666 390.248,-78.9666"/>
<text text-anchor="middle" x="441.248" y="-85.9666" font-family="Helvetica,sans-Serif" font-size="10.00">petapm_mesh_to_k</text>
</a>
</g>
</g>
<!-- Node174&#45;&gt;Node175 -->
<g id="edge10" class="edge"><title>Node174&#45;&gt;Node175</title>
<path fill="none" stroke="midnightblue" d="M396.216,-121.184C403.217,-116.098 411.986,-109.726 419.922,-103.961"/>
<polygon fill="midnightblue" stroke="midnightblue" points="422.049,-106.741 428.082,-98.0318 417.935,-101.078 422.049,-106.741"/>
</g>
<!-- Node177 -->
<g id="node12" class="node"><title>Node177</title>
<g id="a_node12"><a xlink:href="petapm_8c.html#acdf7c0fc2f5ddfa9ce5e24cb9c8350fe" target="_top" xlink:title="pm_iterate_one">
<polygon fill="white" stroke="black" points="202.751,-274.404 202.751,-293.404 285.751,-293.404 285.751,-274.404 202.751,-274.404"/>
<text text-anchor="middle" x="244.251" y="-281.404" font-family="Helvetica,sans-Serif" font-size="10.00">pm_iterate_one</text>
</a>
</g>
</g>
<!-- Node176&#45;&gt;Node177 -->
<g id="edge12" class="edge"><title>Node176&#45;&gt;Node177</title>
<path fill="none" stroke="midnightblue" d="M263.406,-224.95C260.123,-235.055 254.84,-251.313 250.654,-264.199"/>
<polygon fill="midnightblue" stroke="midnightblue" points="247.224,-263.428 247.462,-274.02 253.881,-265.591 247.224,-263.428"/>
</g>
<!-- Node177&#45;&gt;Node169 -->
<g id="edge13" class="edge"><title>Node177&#45;&gt;Node169</title>
<path fill="none" stroke="midnightblue" d="M241.157,-293.426C237.874,-303.531 232.591,-319.789 228.404,-332.675"/>
<polygon fill="midnightblue" stroke="midnightblue" points="224.975,-331.904 225.213,-342.496 231.632,-334.067 224.975,-331.904"/>
</g>
</g>
</svg>
