<?xml version="1.0" encoding="UTF-8" standalone="no"?>
<!DOCTYPE svg PUBLIC "-//W3C//DTD SVG 1.1//EN"
 "http://www.w3.org/Graphics/SVG/1.1/DTD/svg11.dtd">
<!-- Generated by graphviz version 2.38.0 (20140413.2041)
 -->
<!-- Title: petapm_region_init_strides Pages: 1 -->
<svg width="128pt" height="748pt"
 viewBox="0.00 0.00 128.00 748.00" xmlns="http://www.w3.org/2000/svg" xmlns:xlink="http://www.w3.org/1999/xlink">
<g id="graph0" class="graph" transform="scale(1 1) rotate(0) translate(4 744)">
<title>petapm_region_init_strides</title>
<polygon fill="white" stroke="none" points="-4,4 -4,-744 124,-744 124,4 -4,4"/>
<!-- Node291 -->
<g id="node1" class="node"><title>Node291</title>
<polygon fill="#bfbfbf" stroke="black" points="11,-571 11,-601 109,-601 109,-571 11,-571"/>
<text text-anchor="start" x="19" y="-589" font-family="Helvetica,sans-Serif" font-size="10.00">petapm_region_init</text>
<text text-anchor="middle" x="60" y="-578" font-family="Helvetica,sans-Serif" font-size="10.00">_strides</text>
</g>
<!-- Node292 -->
<g id="node2" class="node"><title>Node292</title>
<g id="a_node2"><a xlink:href="gravpm_8c.html#accd212b17812e0df943ec2585bd11f53" target="_top" xlink:title="convert_node_to_region">
<polygon fill="white" stroke="black" points="-1.42109e-14,-648.5 -1.42109e-14,-667.5 120,-667.5 120,-648.5 -1.42109e-14,-648.5"/>
<text text-anchor="middle" x="60" y="-655.5" font-family="Helvetica,sans-Serif" font-size="10.00">convert_node_to_region</text>
</a>
</g>
</g>
<!-- Node291&#45;&gt;Node292 -->
<g id="edge1" class="edge"><title>Node291&#45;&gt;Node292</title>
<path fill="none" stroke="midnightblue" d="M60,-611.366C60,-624.124 60,-638.838 60,-648.271"/>
<polygon fill="midnightblue" stroke="midnightblue" points="63.5001,-611.269 60,-601.269 56.5001,-611.269 63.5001,-611.269"/>
</g>
<!-- Node294 -->
<g id="node4" class="node"><title>Node294</title>
<g id="a_node4"><a xlink:href="petapm_8h.html#ac149f307c9a7b3d37eb8f94c0799b7a7" target="_top" xlink:title="petapm_init">
<polygon fill="white" stroke="black" points="26.5,-504.5 26.5,-523.5 93.5,-523.5 93.5,-504.5 26.5,-504.5"/>
<text text-anchor="middle" x="60" y="-511.5" font-family="Helvetica,sans-Serif" font-size="10.00">petapm_init</text>
</a>
</g>
</g>
<!-- Node291&#45;&gt;Node294 -->
<g id="edge3" class="edge"><title>Node291&#45;&gt;Node294</title>
<path fill="none" stroke="midnightblue" d="M60,-560.634C60,-547.876 60,-533.162 60,-523.729"/>
<polygon fill="midnightblue" stroke="midnightblue" points="56.4999,-560.731 60,-570.731 63.4999,-560.731 56.4999,-560.731"/>
</g>
<!-- Node293 -->
<g id="node3" class="node"><title>Node293</title>
<g id="a_node3"><a xlink:href="gravpm_8c.html#a2b4e24652d5dabae5adc014170031ac8" target="_top" xlink:title="_prepare">
<polygon fill="white" stroke="black" points="33,-720.5 33,-739.5 87,-739.5 87,-720.5 33,-720.5"/>
<text text-anchor="middle" x="60" y="-727.5" font-family="Helvetica,sans-Serif" font-size="10.00">_prepare</text>
</a>
</g>
</g>
<!-- Node292&#45;&gt;Node293 -->
<g id="edge2" class="edge"><title>Node292&#45;&gt;Node293</title>
<path fill="none" stroke="midnightblue" d="M60,-677.757C60,-691.643 60,-709.607 60,-720.444"/>
<polygon fill="midnightblue" stroke="midnightblue" points="63.5001,-677.71 60,-667.71 56.5001,-677.71 63.5001,-677.71"/>
</g>
<!-- Node295 -->
<g id="node5" class="node"><title>Node295</title>
<g id="a_node5"><a xlink:href="longrange_8c.html#a6f198a51b7488e6d984ff7537d47fd13" target="_top" xlink:title="gravpm_init_periodic">
<polygon fill="white" stroke="black" points="7,-432.5 7,-451.5 113,-451.5 113,-432.5 7,-432.5"/>
<text text-anchor="middle" x="60" y="-439.5" font-family="Helvetica,sans-Serif" font-size="10.00">gravpm_init_periodic</text>
</a>
</g>
</g>
<!-- Node294&#45;&gt;Node295 -->
<g id="edge4" class="edge"><title>Node294&#45;&gt;Node295</title>
<path fill="none" stroke="midnightblue" d="M60,-494.243C60,-480.357 60,-462.393 60,-451.556"/>
<polygon fill="midnightblue" stroke="midnightblue" points="56.5001,-494.29 60,-504.29 63.5001,-494.29 56.5001,-494.29"/>
</g>
<!-- Node296 -->
<g id="node6" class="node"><title>Node296</title>
<g id="a_node6"><a xlink:href="proto_8h.html#af52079f2c63002aca9463ba0b13727df" target="_top" xlink:title="long_range_init">
<polygon fill="white" stroke="black" points="19,-360.5 19,-379.5 101,-379.5 101,-360.5 19,-360.5"/>
<text text-anchor="middle" x="60" y="-367.5" font-family="Helvetica,sans-Serif" font-size="10.00">long_range_init</text>
</a>
</g>
</g>
<!-- Node295&#45;&gt;Node296 -->
<g id="edge5" class="edge"><title>Node295&#45;&gt;Node296</title>
<path fill="none" stroke="midnightblue" d="M60,-422.243C60,-408.357 60,-390.393 60,-379.556"/>
<polygon fill="midnightblue" stroke="midnightblue" points="56.5001,-422.29 60,-432.29 63.5001,-422.29 56.5001,-422.29"/>
</g>
<!-- Node297 -->
<g id="node7" class="node"><title>Node297</title>
<g id="a_node7"><a xlink:href="proto_8h.html#a74dc0e5e9eefe11fc8434b62de573146" target="_top" xlink:title="begrun">
<polygon fill="white" stroke="black" points="37,-288.5 37,-307.5 83,-307.5 83,-288.5 37,-288.5"/>
<text text-anchor="middle" x="60" y="-295.5" font-family="Helvetica,sans-Serif" font-size="10.00">begrun</text>
</a>
</g>
</g>
<!-- Node296&#45;&gt;Node297 -->
<g id="edge6" class="edge"><title>Node296&#45;&gt;Node297</title>
<path fill="none" stroke="midnightblue" d="M60,-350.243C60,-336.357 60,-318.393 60,-307.556"/>
<polygon fill="midnightblue" stroke="midnightblue" points="56.5001,-350.29 60,-360.29 63.5001,-350.29 56.5001,-350.29"/>
</g>
<!-- Node298 -->
<g id="node8" class="node"><title>Node298</title>
<g id="a_node8"><a xlink:href="main_8c.html#a3c04138a5bfe5d72780bb7e82a18e627" target="_top" xlink:title="main">
<polygon fill="white" stroke="black" points="41,-216.5 41,-235.5 79,-235.5 79,-216.5 41,-216.5"/>
<text text-anchor="middle" x="60" y="-223.5" font-family="Helvetica,sans-Serif" font-size="10.00">main</text>
</a>
</g>
</g>
<!-- Node297&#45;&gt;Node298 -->
<g id="edge7" class="edge"><title>Node297&#45;&gt;Node298</title>
<path fill="none" stroke="midnightblue" d="M60,-278.243C60,-264.357 60,-246.393 60,-235.556"/>
<polygon fill="midnightblue" stroke="midnightblue" points="56.5001,-278.29 60,-288.29 63.5001,-278.29 56.5001,-278.29"/>
</g>
<!-- Node299 -->
<g id="node9" class="node"><title>Node299</title>
<g id="a_node9"><a xlink:href="walltime_8h.html#a76d2135b612766d4d665748454b879d6" target="_top" xlink:title="walltime_report">
<polygon fill="white" stroke="black" points="18.5,-0.5 18.5,-19.5 101.5,-19.5 101.5,-0.5 18.5,-0.5"/>
<text text-anchor="middle" x="60" y="-7.5" font-family="Helvetica,sans-Serif" font-size="10.00">walltime_report</text>
</a>
</g>
</g>
<!-- Node298&#45;&gt;Node299 -->
<g id="edge8" class="edge"><title>Node298&#45;&gt;Node299</title>
<path fill="none" stroke="midnightblue" d="M60,-206.266C60,-161.443 60,-53.2692 60,-19.9425"/>
<polygon fill="midnightblue" stroke="midnightblue" points="56.4999,-206.44 60,-216.44 63.4999,-206.44 56.4999,-206.44"/>
</g>
<!-- Node300 -->
<g id="node10" class="node"><title>Node300</title>
<g id="a_node10"><a xlink:href="run_8c.html#adc59e9ee1517e4e690694a64ab6a59d2" target="_top" xlink:title="write_cpu_log">
<polygon fill="white" stroke="black" points="21.5,-72.5 21.5,-91.5 98.5,-91.5 98.5,-72.5 21.5,-72.5"/>
<text text-anchor="middle" x="60" y="-79.5" font-family="Helvetica,sans-Serif" font-size="10.00">write_cpu_log</text>
</a>
</g>
</g>
<!-- Node299&#45;&gt;Node300 -->
<g id="edge9" class="edge"><title>Node299&#45;&gt;Node300</title>
<path fill="none" stroke="midnightblue" d="M60,-29.7574C60,-43.6427 60,-61.607 60,-72.4436"/>
<polygon fill="midnightblue" stroke="midnightblue" points="63.5001,-29.7102 60,-19.7102 56.5001,-29.7103 63.5001,-29.7102"/>
</g>
<!-- Node301 -->
<g id="node11" class="node"><title>Node301</title>
<g id="a_node11"><a xlink:href="run_8c.html#a05e0ffe612d44e6d7f3a9ae5b9df56a2" target="_top" xlink:title="run">
<polygon fill="white" stroke="black" points="45,-144.5 45,-163.5 75,-163.5 75,-144.5 45,-144.5"/>
<text text-anchor="middle" x="60" y="-151.5" font-family="Helvetica,sans-Serif" font-size="10.00">run</text>
</a>
</g>
</g>
<!-- Node300&#45;&gt;Node301 -->
<g id="edge10" class="edge"><title>Node300&#45;&gt;Node301</title>
<path fill="none" stroke="midnightblue" d="M60,-101.757C60,-115.643 60,-133.607 60,-144.444"/>
<polygon fill="midnightblue" stroke="midnightblue" points="63.5001,-101.71 60,-91.7102 56.5001,-101.71 63.5001,-101.71"/>
</g>
<!-- Node301&#45;&gt;Node298 -->
<g id="edge11" class="edge"><title>Node301&#45;&gt;Node298</title>
<path fill="none" stroke="midnightblue" d="M60,-173.757C60,-187.643 60,-205.607 60,-216.444"/>
<polygon fill="midnightblue" stroke="midnightblue" points="63.5001,-173.71 60,-163.71 56.5001,-173.71 63.5001,-173.71"/>
</g>
</g>
</svg>
