<?xml version="1.0" encoding="UTF-8" standalone="no"?>
<!DOCTYPE svg PUBLIC "-//W3C//DTD SVG 1.1//EN"
 "http://www.w3.org/Graphics/SVG/1.1/DTD/svg11.dtd">
<!-- Generated by graphviz version 2.50.0 (0)
 -->
<!-- Title: libgadget/petapm.h Pages: 1 -->
<svg width="255pt" height="140pt"
 viewBox="0.00 0.00 254.50 140.00" xmlns="http://www.w3.org/2000/svg" xmlns:xlink="http://www.w3.org/1999/xlink">
<g id="graph0" class="graph" transform="scale(1 1) rotate(0) translate(4 136)">
<title>libgadget/petapm.h</title>
<polygon fill="white" stroke="transparent" points="-4,4 -4,-136 250.5,-136 250.5,4 -4,4"/>
<!-- Node1 -->
<g id="node1" class="node">
<title>Node1</title>
<g id="a_node1"><a xlink:title=" ">
<polygon fill="#bfbfbf" stroke="black" points="10,-112.5 10,-131.5 122,-131.5 122,-112.5 10,-112.5"/>
<text text-anchor="middle" x="66" y="-119.5" font-family="Helvetica,sans-Serif" font-size="10.00">libgadget/petapm.h</text>
</a>
</g>
</g>
<!-- Node2 -->
<g id="node2" class="node">
<title>Node2</title>
<g id="a_node2"><a xlink:title=" ">
<polygon fill="white" stroke="#bfbfbf" points="0,-56.5 0,-75.5 42,-75.5 42,-56.5 0,-56.5"/>
<text text-anchor="middle" x="21" y="-63.5" font-family="Helvetica,sans-Serif" font-size="10.00">pfft.h</text>
</a>
</g>
</g>
<!-- Node1&#45;&gt;Node2 -->
<g id="edge1" class="edge">
<title>Node1&#45;&gt;Node2</title>
<path fill="none" stroke="midnightblue" d="M58.57,-112.08C52.15,-104.38 42.69,-93.03 34.88,-83.65"/>
<polygon fill="midnightblue" stroke="midnightblue" points="37.38,-81.19 28.29,-75.75 32.01,-85.67 37.38,-81.19"/>
</g>
<!-- Node3 -->
<g id="node3" class="node">
<title>Node3</title>
<g id="a_node3"><a xlink:href="powerspectrum_8h.html" target="_top" xlink:title=" ">
<polygon fill="white" stroke="black" points="60.5,-56.5 60.5,-75.5 161.5,-75.5 161.5,-56.5 60.5,-56.5"/>
<text text-anchor="middle" x="111" y="-63.5" font-family="Helvetica,sans-Serif" font-size="10.00">powerspectrum.h</text>
</a>
</g>
</g>
<!-- Node1&#45;&gt;Node3 -->
<g id="edge2" class="edge">
<title>Node1&#45;&gt;Node3</title>
<path fill="none" stroke="midnightblue" d="M73.43,-112.08C79.85,-104.38 89.31,-93.03 97.12,-83.65"/>
<polygon fill="midnightblue" stroke="midnightblue" points="99.99,-85.67 103.71,-75.75 94.62,-81.19 99.99,-85.67"/>
</g>
<!-- Node4 -->
<g id="node4" class="node">
<title>Node4</title>
<g id="a_node4"><a xlink:title=" ">
<polygon fill="white" stroke="#bfbfbf" points="10,-0.5 10,-19.5 66,-19.5 66,-0.5 10,-0.5"/>
<text text-anchor="middle" x="38" y="-7.5" font-family="Helvetica,sans-Serif" font-size="10.00">stddef.h</text>
</a>
</g>
</g>
<!-- Node3&#45;&gt;Node4 -->
<g id="edge3" class="edge">
<title>Node3&#45;&gt;Node4</title>
<path fill="none" stroke="midnightblue" d="M99.27,-56.32C88.16,-48.11 71.26,-35.6 58.02,-25.81"/>
<polygon fill="midnightblue" stroke="midnightblue" points="60.06,-22.97 49.94,-19.83 55.9,-28.59 60.06,-22.97"/>
</g>
<!-- Node5 -->
<g id="node5" class="node">
<title>Node5</title>
<g id="a_node5"><a xlink:title=" ">
<polygon fill="white" stroke="#bfbfbf" points="84.5,-0.5 84.5,-19.5 137.5,-19.5 137.5,-0.5 84.5,-0.5"/>
<text text-anchor="middle" x="111" y="-7.5" font-family="Helvetica,sans-Serif" font-size="10.00">stdint.h</text>
</a>
</g>
</g>
<!-- Node3&#45;&gt;Node5 -->
<g id="edge4" class="edge">
<title>Node3&#45;&gt;Node5</title>
<path fill="none" stroke="midnightblue" d="M111,-56.08C111,-49.01 111,-38.86 111,-29.99"/>
<polygon fill="midnightblue" stroke="midnightblue" points="114.5,-29.75 111,-19.75 107.5,-29.75 114.5,-29.75"/>
</g>
<!-- Node6 -->
<g id="node6" class="node">
<title>Node6</title>
<g id="a_node6"><a xlink:title=" ">
<polygon fill="white" stroke="#bfbfbf" points="155.5,-0.5 155.5,-19.5 246.5,-19.5 246.5,-0.5 155.5,-0.5"/>
<text text-anchor="middle" x="201" y="-7.5" font-family="Helvetica,sans-Serif" font-size="10.00">gsl/gsl_interp.h</text>
</a>
</g>
</g>
<!-- Node3&#45;&gt;Node6 -->
<g id="edge5" class="edge">
<title>Node3&#45;&gt;Node6</title>
<path fill="none" stroke="midnightblue" d="M125.46,-56.32C139.5,-47.9 161.05,-34.97 177.54,-25.07"/>
<polygon fill="midnightblue" stroke="midnightblue" points="179.8,-27.8 186.58,-19.65 176.2,-21.8 179.8,-27.8"/>
</g>
</g>
</svg>
