<?xml version="1.0" encoding="UTF-8" standalone="no"?>
<!DOCTYPE svg PUBLIC "-//W3C//DTD SVG 1.1//EN"
 "http://www.w3.org/Graphics/SVG/1.1/DTD/svg11.dtd">
<!-- Generated by graphviz version 2.38.0 (20140413.2041)
 -->
<!-- Title: pm_iterate_one Pages: 1 -->
<svg width="395pt" height="66pt"
 viewBox="0.00 0.00 395.00 66.00" xmlns="http://www.w3.org/2000/svg" xmlns:xlink="http://www.w3.org/1999/xlink">
<g id="graph0" class="graph" transform="scale(1 1) rotate(0) translate(4 62)">
<title>pm_iterate_one</title>
<polygon fill="white" stroke="none" points="-4,4 -4,-62 391,-62 391,4 -4,4"/>
<!-- Node370 -->
<g id="node1" class="node"><title>Node370</title>
<polygon fill="#bfbfbf" stroke="black" points="0,-19.5 0,-38.5 83,-38.5 83,-19.5 0,-19.5"/>
<text text-anchor="middle" x="41.5" y="-26.5" font-family="Helvetica,sans-Serif" font-size="10.00">pm_iterate_one</text>
</g>
<!-- Node371 -->
<g id="node2" class="node"><title>Node371</title>
<g id="a_node2"><a xlink:href="endrun_8c.html#ad963d7efdb9f10f7a2298c8ccd222ab0" target="_top" xlink:title="endrun">
<polygon fill="white" stroke="black" points="119,-19.5 119,-38.5 165,-38.5 165,-19.5 119,-19.5"/>
<text text-anchor="middle" x="142" y="-26.5" font-family="Helvetica,sans-Serif" font-size="10.00">endrun</text>
</a>
</g>
</g>
<!-- Node370&#45;&gt;Node371 -->
<g id="edge1" class="edge"><title>Node370&#45;&gt;Node371</title>
<path fill="none" stroke="midnightblue" d="M83.1324,-29C91.6073,-29 100.434,-29 108.565,-29"/>
<polygon fill="midnightblue" stroke="midnightblue" points="108.766,-32.5001 118.766,-29 108.766,-25.5001 108.766,-32.5001"/>
</g>
<!-- Node372 -->
<g id="node3" class="node"><title>Node372</title>
<g id="a_node3"><a xlink:href="endrun_8c.html#a7267113a7c0a094743bb565eabc695d1" target="_top" xlink:title="messagev">
<polygon fill="white" stroke="black" points="201,-19.5 201,-38.5 263,-38.5 263,-19.5 201,-19.5"/>
<text text-anchor="middle" x="232" y="-26.5" font-family="Helvetica,sans-Serif" font-size="10.00">messagev</text>
</a>
</g>
</g>
<!-- Node371&#45;&gt;Node372 -->
<g id="edge2" class="edge"><title>Node371&#45;&gt;Node372</title>
<path fill="none" stroke="midnightblue" d="M165.206,-29C172.965,-29 181.932,-29 190.703,-29"/>
<polygon fill="midnightblue" stroke="midnightblue" points="190.823,-32.5001 200.823,-29 190.823,-25.5001 190.823,-32.5001"/>
</g>
<!-- Node373 -->
<g id="node4" class="node"><title>Node373</title>
<g id="a_node4"><a xlink:href="endrun_8c.html#a87108946670b4c3afbe846c6726675ff" target="_top" xlink:title="putline">
<polygon fill="white" stroke="black" points="320.5,-38.5 320.5,-57.5 365.5,-57.5 365.5,-38.5 320.5,-38.5"/>
<text text-anchor="middle" x="343" y="-45.5" font-family="Helvetica,sans-Serif" font-size="10.00">putline</text>
</a>
</g>
</g>
<!-- Node372&#45;&gt;Node373 -->
<g id="edge3" class="edge"><title>Node372&#45;&gt;Node373</title>
<path fill="none" stroke="midnightblue" d="M263.073,-34.2421C277.677,-36.7877 295.231,-39.8476 310.072,-42.4346"/>
<polygon fill="midnightblue" stroke="midnightblue" points="309.866,-45.9514 320.318,-44.2207 311.068,-39.0553 309.866,-45.9514"/>
</g>
<!-- Node374 -->
<g id="node5" class="node"><title>Node374</title>
<g id="a_node5"><a xlink:href="endrun_8c.html#a1200f02a595ab7cbe17c9e36ff32af0f" target="_top" xlink:title="show_backtrace">
<polygon fill="white" stroke="black" points="299,-0.5 299,-19.5 387,-19.5 387,-0.5 299,-0.5"/>
<text text-anchor="middle" x="343" y="-7.5" font-family="Helvetica,sans-Serif" font-size="10.00">show_backtrace</text>
</a>
</g>
</g>
<!-- Node372&#45;&gt;Node374 -->
<g id="edge4" class="edge"><title>Node372&#45;&gt;Node374</title>
<path fill="none" stroke="midnightblue" d="M263.073,-23.7579C271.131,-22.3533 280.087,-20.7921 288.991,-19.2402"/>
<polygon fill="midnightblue" stroke="midnightblue" points="289.719,-22.6661 298.969,-17.5008 288.517,-15.7701 289.719,-22.6661"/>
</g>
</g>
</svg>
