<?xml version="1.0" encoding="UTF-8" standalone="no"?>
<!DOCTYPE svg PUBLIC "-//W3C//DTD SVG 1.1//EN"
 "http://www.w3.org/Graphics/SVG/1.1/DTD/svg11.dtd">
<!-- Generated by graphviz version 2.38.0 (20140413.2041)
 -->
<!-- Title: petaio_init Pages: 1 -->
<svg width="501pt" height="417pt"
 viewBox="0.00 0.00 500.67 417.22" xmlns="http://www.w3.org/2000/svg" xmlns:xlink="http://www.w3.org/1999/xlink">
<g id="graph0" class="graph" transform="scale(1 1) rotate(0) translate(4 413.219)">
<title>petaio_init</title>
<polygon fill="white" stroke="none" points="-4,4 -4,-413.219 496.669,-413.219 496.669,4 -4,4"/>
<!-- Node185 -->
<g id="node1" class="node"><title>Node185</title>
<polygon fill="#bfbfbf" stroke="black" points="229.084,-195.109 229.084,-214.109 290.084,-214.109 290.084,-195.109 229.084,-195.109"/>
<text text-anchor="middle" x="259.584" y="-202.109" font-family="Helvetica,sans-Serif" font-size="10.00">petaio_init</text>
</g>
<!-- Node186 -->
<g id="node2" class="node"><title>Node186</title>
<g id="a_node2"><a xlink:href="endrun_8c.html#a6567cd867c5549fb6586e19ccd819764" target="_top" xlink:title="message">
<polygon fill="white" stroke="black" points="287.876,-240.001 287.876,-259.001 343.876,-259.001 343.876,-240.001 287.876,-240.001"/>
<text text-anchor="middle" x="315.876" y="-247.001" font-family="Helvetica,sans-Serif" font-size="10.00">message</text>
</a>
</g>
</g>
<!-- Node185&#45;&gt;Node186 -->
<g id="edge1" class="edge"><title>Node185&#45;&gt;Node186</title>
<path fill="none" stroke="midnightblue" d="M271.522,-214.13C278.613,-219.784 287.784,-227.098 295.946,-233.606"/>
<polygon fill="midnightblue" stroke="midnightblue" points="293.955,-236.495 303.955,-239.994 298.319,-231.023 293.955,-236.495"/>
</g>
<!-- Node190 -->
<g id="node6" class="node"><title>Node190</title>
<g id="a_node6"><a xlink:href="petaio_8c.html#a9b867bd3e997c113f67500b40a7aa593" target="_top" xlink:title="petaio_save_internal">
<polygon fill="white" stroke="black" points="136.39,-211.131 136.39,-230.131 242.39,-230.131 242.39,-211.131 136.39,-211.131"/>
<text text-anchor="middle" x="189.39" y="-218.131" font-family="Helvetica,sans-Serif" font-size="10.00">petaio_save_internal</text>
</a>
</g>
</g>
<!-- Node185&#45;&gt;Node190 -->
<g id="edge5" class="edge"><title>Node185&#45;&gt;Node190</title>
<path fill="none" stroke="midnightblue" d="M229,-211.59C228.926,-211.607 228.852,-211.624 228.778,-211.641"/>
<polygon fill="midnightblue" stroke="midnightblue" points="237.526,-206.05 228.557,-211.691 239.086,-212.875 237.526,-206.05"/>
</g>
<!-- Node201 -->
<g id="node17" class="node"><title>Node201</title>
<g id="a_node17"><a xlink:href="petaio_8c.html#afdc43604464800f6a96d72801667d046" target="_top" xlink:title="register_io_blocks">
<polygon fill="white" stroke="black" points="256.976,-138.817 256.976,-157.817 351.976,-157.817 351.976,-138.817 256.976,-138.817"/>
<text text-anchor="middle" x="304.476" y="-145.817" font-family="Helvetica,sans-Serif" font-size="10.00">register_io_blocks</text>
</a>
</g>
</g>
<!-- Node185&#45;&gt;Node201 -->
<g id="edge23" class="edge"><title>Node185&#45;&gt;Node201</title>
<path fill="none" stroke="midnightblue" d="M267.2,-195.06C273.546,-187.103 282.754,-175.555 290.431,-165.929"/>
<polygon fill="midnightblue" stroke="midnightblue" points="293.174,-168.103 296.672,-158.103 287.701,-163.739 293.174,-168.103"/>
</g>
<!-- Node187 -->
<g id="node3" class="node"><title>Node187</title>
<g id="a_node3"><a xlink:href="endrun_8c.html#a7267113a7c0a094743bb565eabc695d1" target="_top" xlink:title="messagev">
<polygon fill="white" stroke="black" points="358.324,-257.589 358.324,-276.589 420.324,-276.589 420.324,-257.589 358.324,-257.589"/>
<text text-anchor="middle" x="389.324" y="-264.589" font-family="Helvetica,sans-Serif" font-size="10.00">messagev</text>
</a>
</g>
</g>
<!-- Node186&#45;&gt;Node187 -->
<g id="edge2" class="edge"><title>Node186&#45;&gt;Node187</title>
<path fill="none" stroke="midnightblue" d="M344.063,-256.25C345.337,-256.555 346.626,-256.864 347.923,-257.175"/>
<polygon fill="midnightblue" stroke="midnightblue" points="347.369,-260.641 357.909,-259.566 348.999,-253.833 347.369,-260.641"/>
</g>
<!-- Node188 -->
<g id="node4" class="node"><title>Node188</title>
<g id="a_node4"><a xlink:href="endrun_8c.html#a87108946670b4c3afbe846c6726675ff" target="_top" xlink:title="putline">
<polygon fill="white" stroke="black" points="447.669,-243.174 447.669,-262.174 492.669,-262.174 492.669,-243.174 447.669,-243.174"/>
<text text-anchor="middle" x="470.169" y="-250.174" font-family="Helvetica,sans-Serif" font-size="10.00">putline</text>
</a>
</g>
</g>
<!-- Node187&#45;&gt;Node188 -->
<g id="edge3" class="edge"><title>Node187&#45;&gt;Node188</title>
<path fill="none" stroke="midnightblue" d="M420.349,-261.557C426.027,-260.544 431.966,-259.485 437.685,-258.466"/>
<polygon fill="midnightblue" stroke="midnightblue" points="438.405,-261.893 447.636,-256.691 437.176,-255.001 438.405,-261.893"/>
</g>
<!-- Node189 -->
<g id="node5" class="node"><title>Node189</title>
<g id="a_node5"><a xlink:href="endrun_8c.html#a1200f02a595ab7cbe17c9e36ff32af0f" target="_top" xlink:title="show_backtrace">
<polygon fill="white" stroke="black" points="384.46,-329.783 384.46,-348.783 472.46,-348.783 472.46,-329.783 384.46,-329.783"/>
<text text-anchor="middle" x="428.46" y="-336.783" font-family="Helvetica,sans-Serif" font-size="10.00">show_backtrace</text>
</a>
</g>
</g>
<!-- Node187&#45;&gt;Node189 -->
<g id="edge4" class="edge"><title>Node187&#45;&gt;Node189</title>
<path fill="none" stroke="midnightblue" d="M394.602,-276.825C400.705,-288.083 410.885,-306.862 418.492,-320.895"/>
<polygon fill="midnightblue" stroke="midnightblue" points="415.423,-322.578 423.266,-329.701 421.577,-319.241 415.423,-322.578"/>
</g>
<!-- Node191 -->
<g id="node7" class="node"><title>Node191</title>
<g id="a_node7"><a xlink:href="endrun_8c.html#ad963d7efdb9f10f7a2298c8ccd222ab0" target="_top" xlink:title="endrun">
<polygon fill="white" stroke="black" points="236.584,-339.109 236.584,-358.109 282.584,-358.109 282.584,-339.109 236.584,-339.109"/>
<text text-anchor="middle" x="259.584" y="-346.109" font-family="Helvetica,sans-Serif" font-size="10.00">endrun</text>
</a>
</g>
</g>
<!-- Node190&#45;&gt;Node191 -->
<g id="edge6" class="edge"><title>Node190&#45;&gt;Node191</title>
<path fill="none" stroke="midnightblue" d="M194.666,-230.25C206.251,-251.373 234.091,-302.131 249.278,-329.819"/>
<polygon fill="midnightblue" stroke="midnightblue" points="246.369,-331.794 254.247,-338.878 252.507,-328.428 246.369,-331.794"/>
</g>
<!-- Node192 -->
<g id="node8" class="node"><title>Node192</title>
<g id="a_node8"><a xlink:href="petaio_8c.html#ad13d20d78ff834f5005e68ad11d228e3" target="_top" xlink:title="petaio_build_selection">
<polygon fill="white" stroke="black" points="140.605,-324.849 140.605,-343.849 253.605,-343.849 253.605,-324.849 140.605,-324.849"/>
<text text-anchor="middle" x="197.105" y="-331.849" font-family="Helvetica,sans-Serif" font-size="10.00">petaio_build_selection</text>
</a>
</g>
</g>
<!-- Node190&#45;&gt;Node192 -->
<g id="edge8" class="edge"><title>Node190&#45;&gt;Node192</title>
<path fill="none" stroke="midnightblue" d="M190.047,-230.326C191.312,-248.957 194.102,-290.089 195.771,-314.682"/>
<polygon fill="midnightblue" stroke="midnightblue" points="192.28,-314.938 196.449,-324.678 199.264,-314.464 192.28,-314.938"/>
</g>
<!-- Node193 -->
<g id="node9" class="node"><title>Node193</title>
<g id="a_node9"><a xlink:href="system_8c.html#a866c4b0425665030c89933c11752b1fe" target="_top" xlink:title="sumup_large_ints">
<polygon fill="white" stroke="black" points="100.501,-284.892 100.501,-303.892 193.501,-303.892 193.501,-284.892 100.501,-284.892"/>
<text text-anchor="middle" x="147.001" y="-291.892" font-family="Helvetica,sans-Serif" font-size="10.00">sumup_large_ints</text>
</a>
</g>
</g>
<!-- Node190&#45;&gt;Node193 -->
<g id="edge9" class="edge"><title>Node190&#45;&gt;Node193</title>
<path fill="none" stroke="midnightblue" d="M183.848,-230.274C177.284,-241.696 166.194,-260.994 157.892,-275.441"/>
<polygon fill="midnightblue" stroke="midnightblue" points="154.627,-274.097 152.679,-284.511 160.696,-277.585 154.627,-274.097"/>
</g>
<!-- Node194 -->
<g id="node10" class="node"><title>Node194</title>
<g id="a_node10"><a xlink:href="petaio_8c.html#abd41baa0f76d18fe2abbadb99ba1ffe9" target="_top" xlink:title="petaio_write_header">
<polygon fill="white" stroke="black" points="67.1948,-227.152 67.1948,-246.152 171.195,-246.152 171.195,-227.152 67.1948,-227.152"/>
<text text-anchor="middle" x="119.195" y="-234.152" font-family="Helvetica,sans-Serif" font-size="10.00">petaio_write_header</text>
</a>
</g>
</g>
<!-- Node190&#45;&gt;Node194 -->
<g id="edge10" class="edge"><title>Node190&#45;&gt;Node194</title>
<path fill="none" stroke="midnightblue" d="M147.746,-230.136C147.687,-230.149 147.628,-230.163 147.569,-230.176"/>
<polygon fill="midnightblue" stroke="midnightblue" points="156.361,-224.575 147.392,-230.217 157.922,-231.399 156.361,-224.575"/>
</g>
<!-- Node195 -->
<g id="node11" class="node"><title>Node195</title>
<g id="a_node11"><a xlink:href="petaio_8c.html#a5423c5b1a1f1616ef293b2aaa5eb43ea" target="_top" xlink:title="petaio_build_buffer">
<polygon fill="white" stroke="black" points="70.1948,-163.066 70.1948,-182.066 168.195,-182.066 168.195,-163.066 70.1948,-163.066"/>
<text text-anchor="middle" x="119.195" y="-170.066" font-family="Helvetica,sans-Serif" font-size="10.00">petaio_build_buffer</text>
</a>
</g>
</g>
<!-- Node190&#45;&gt;Node195 -->
<g id="edge12" class="edge"><title>Node190&#45;&gt;Node195</title>
<path fill="none" stroke="midnightblue" d="M175.185,-210.904C165.575,-204.324 152.68,-195.495 141.688,-187.968"/>
<polygon fill="midnightblue" stroke="midnightblue" points="143.607,-185.04 133.379,-182.278 139.652,-190.816 143.607,-185.04"/>
</g>
<!-- Node197 -->
<g id="node13" class="node"><title>Node197</title>
<g id="a_node13"><a xlink:href="petaio_8c.html#a8d4abd78b70e4a1dfbed5db05cd89073" target="_top" xlink:title="petaio_save_block">
<polygon fill="white" stroke="black" points="273.064,-324.849 273.064,-343.849 371.064,-343.849 371.064,-324.849 273.064,-324.849"/>
<text text-anchor="middle" x="322.064" y="-331.849" font-family="Helvetica,sans-Serif" font-size="10.00">petaio_save_block</text>
</a>
</g>
</g>
<!-- Node190&#45;&gt;Node197 -->
<g id="edge15" class="edge"><title>Node190&#45;&gt;Node197</title>
<path fill="none" stroke="midnightblue" d="M200.701,-230.326C223.417,-249.797 274.803,-293.841 302.875,-317.901"/>
<polygon fill="midnightblue" stroke="midnightblue" points="300.91,-320.827 310.781,-324.678 305.466,-315.513 300.91,-320.827"/>
</g>
<!-- Node199 -->
<g id="node15" class="node"><title>Node199</title>
<g id="a_node15"><a xlink:href="petaio_8c.html#a00bc8b1ba2ab1de94d983b08b14580c7" target="_top" xlink:title="petaio_destroy_buffer">
<polygon fill="white" stroke="black" points="92.0007,-105.327 92.0007,-124.327 202.001,-124.327 202.001,-105.327 92.0007,-105.327"/>
<text text-anchor="middle" x="147.001" y="-112.327" font-family="Helvetica,sans-Serif" font-size="10.00">petaio_destroy_buffer</text>
</a>
</g>
</g>
<!-- Node190&#45;&gt;Node199 -->
<g id="edge19" class="edge"><title>Node190&#45;&gt;Node199</title>
<path fill="none" stroke="midnightblue" d="M185.478,-210.867C178.507,-193.466 163.817,-156.8 154.74,-134.145"/>
<polygon fill="midnightblue" stroke="midnightblue" points="157.871,-132.548 150.903,-124.567 151.373,-135.152 157.871,-132.548"/>
</g>
<!-- Node200 -->
<g id="node16" class="node"><title>Node200</title>
<g id="a_node16"><a xlink:href="petaio_8c.html#a37682bda41c11127b2cdfb6ec3d21022" target="_top" xlink:title="petaio_save_neutrinos">
<polygon fill="white" stroke="black" points="140.105,-65.3698 140.105,-84.3698 254.105,-84.3698 254.105,-65.3698 140.105,-65.3698"/>
<text text-anchor="middle" x="197.105" y="-72.3698" font-family="Helvetica,sans-Serif" font-size="10.00">petaio_save_neutrinos</text>
</a>
</g>
</g>
<!-- Node190&#45;&gt;Node200 -->
<g id="edge20" class="edge"><title>Node190&#45;&gt;Node200</title>
<path fill="none" stroke="midnightblue" d="M189.896,-211.067C191.138,-187.601 194.358,-126.778 196.042,-94.9508"/>
<polygon fill="midnightblue" stroke="midnightblue" points="199.553,-94.8309 196.587,-84.6599 192.563,-94.4609 199.553,-94.8309"/>
</g>
<!-- Node191&#45;&gt;Node187 -->
<g id="edge7" class="edge"><title>Node191&#45;&gt;Node187</title>
<path fill="none" stroke="midnightblue" d="M274.721,-339.098C296.964,-325.122 338.704,-298.895 365.202,-282.246"/>
<polygon fill="midnightblue" stroke="midnightblue" points="367.276,-285.076 373.882,-276.792 363.552,-279.148 367.276,-285.076"/>
</g>
<!-- Node194&#45;&gt;Node191 -->
<g id="edge11" class="edge"><title>Node194&#45;&gt;Node191</title>
<path fill="none" stroke="midnightblue" d="M131.164,-246.198C155.305,-265.449 210.045,-309.103 239.662,-332.722"/>
<polygon fill="midnightblue" stroke="midnightblue" points="237.645,-335.59 247.645,-339.088 242.009,-330.117 237.645,-335.59"/>
</g>
<!-- Node195&#45;&gt;Node191 -->
<g id="edge13" class="edge"><title>Node195&#45;&gt;Node191</title>
<path fill="none" stroke="midnightblue" d="M126.943,-182.282C149.613,-210.709 216.059,-294.03 245.39,-330.81"/>
<polygon fill="midnightblue" stroke="midnightblue" points="242.716,-333.071 251.687,-338.707 248.189,-328.706 242.716,-333.071"/>
</g>
<!-- Node196 -->
<g id="node12" class="node"><title>Node196</title>
<g id="a_node12"><a xlink:href="petaio_8c.html#aafe1fe998e7ca93a780ad69be4d061dc" target="_top" xlink:title="petaio_alloc_buffer">
<polygon fill="white" stroke="black" points="-4.26326e-14,-147.045 -4.26326e-14,-166.045 98,-166.045 98,-147.045 -4.26326e-14,-147.045"/>
<text text-anchor="middle" x="49" y="-154.045" font-family="Helvetica,sans-Serif" font-size="10.00">petaio_alloc_buffer</text>
</a>
</g>
</g>
<!-- Node195&#45;&gt;Node196 -->
<g id="edge14" class="edge"><title>Node195&#45;&gt;Node196</title>
<path fill="none" stroke="midnightblue" d="M77.5509,-163.061C77.4919,-163.048 77.4329,-163.034 77.3739,-163.021"/>
<polygon fill="midnightblue" stroke="midnightblue" points="87.7267,-161.798 77.197,-162.981 86.1661,-168.622 87.7267,-161.798"/>
</g>
<!-- Node197&#45;&gt;Node186 -->
<g id="edge17" class="edge"><title>Node197&#45;&gt;Node186</title>
<path fill="none" stroke="midnightblue" d="M321.354,-324.616C320.375,-311.19 318.588,-286.68 317.321,-269.313"/>
<polygon fill="midnightblue" stroke="midnightblue" points="320.796,-268.839 316.578,-259.12 313.814,-269.348 320.796,-268.839"/>
</g>
<!-- Node197&#45;&gt;Node191 -->
<g id="edge18" class="edge"><title>Node197&#45;&gt;Node191</title>
<path fill="none" stroke="midnightblue" d="M280.389,-343.861C280.344,-343.871 280.3,-343.881 280.255,-343.891"/>
<polygon fill="midnightblue" stroke="midnightblue" points="289.09,-338.279 280.121,-343.922 290.651,-345.103 289.09,-338.279"/>
</g>
<!-- Node198 -->
<g id="node14" class="node"><title>Node198</title>
<g id="a_node14"><a xlink:href="system_8c.html#a1d471d98379273269e8045d2998eca73" target="_top" xlink:title="count_sum">
<polygon fill="white" stroke="black" points="320.803,-389.719 320.803,-408.719 385.803,-408.719 385.803,-389.719 320.803,-389.719"/>
<text text-anchor="middle" x="353.303" y="-396.719" font-family="Helvetica,sans-Serif" font-size="10.00">count_sum</text>
</a>
</g>
</g>
<!-- Node197&#45;&gt;Node198 -->
<g id="edge16" class="edge"><title>Node197&#45;&gt;Node198</title>
<path fill="none" stroke="midnightblue" d="M326.673,-343.921C331.288,-353.502 338.51,-368.5 344.27,-380.461"/>
<polygon fill="midnightblue" stroke="midnightblue" points="341.183,-382.116 348.675,-389.608 347.489,-379.079 341.183,-382.116"/>
</g>
<!-- Node200&#45;&gt;Node191 -->
<g id="edge21" class="edge"><title>Node200&#45;&gt;Node191</title>
<path fill="none" stroke="midnightblue" d="M199.329,-84.6123C208.401,-124.358 242.714,-274.697 255.095,-328.941"/>
<polygon fill="midnightblue" stroke="midnightblue" points="251.75,-330.013 257.387,-338.983 258.574,-328.455 251.75,-330.013"/>
</g>
<!-- Node200&#45;&gt;Node197 -->
<g id="edge22" class="edge"><title>Node200&#45;&gt;Node197</title>
<path fill="none" stroke="midnightblue" d="M201.701,-84.4125C220.032,-122.478 288.132,-263.889 312.945,-315.413"/>
<polygon fill="midnightblue" stroke="midnightblue" points="309.934,-317.228 317.426,-324.719 316.241,-314.191 309.934,-317.228"/>
</g>
<!-- Node202 -->
<g id="node18" class="node"><title>Node202</title>
<g id="a_node18"><a xlink:href="petaio_8c.html#a2ec97a65a32d373effb748e9f1bbd713" target="_top" xlink:title="fof_register_io_blocks">
<polygon fill="white" stroke="black" points="203.584,-51.1093 203.584,-70.1093 315.584,-70.1093 315.584,-51.1093 203.584,-51.1093"/>
<text text-anchor="middle" x="259.584" y="-58.1093" font-family="Helvetica,sans-Serif" font-size="10.00">fof_register_io_blocks</text>
</a>
</g>
</g>
<!-- Node201&#45;&gt;Node202 -->
<g id="edge24" class="edge"><title>Node201&#45;&gt;Node202</title>
<path fill="none" stroke="midnightblue" d="M299.5,-138.596C292.219,-124.371 278.521,-97.6066 269.225,-79.4448"/>
<polygon fill="midnightblue" stroke="midnightblue" points="272.254,-77.6813 264.582,-70.3742 266.023,-80.8707 272.254,-77.6813"/>
</g>
<!-- Node203 -->
<g id="node19" class="node"><title>Node203</title>
<g id="a_node19"><a xlink:href="openmpsort_8c.html#a8938b38d71dd3b45bfc7cc745c096248" target="_top" xlink:title="qsort_openmp">
<polygon fill="white" stroke="black" points="310.367,-82.5255 310.367,-101.526 388.367,-101.526 388.367,-82.5255 310.367,-82.5255"/>
<text text-anchor="middle" x="349.367" y="-89.5255" font-family="Helvetica,sans-Serif" font-size="10.00">qsort_openmp</text>
</a>
</g>
</g>
<!-- Node201&#45;&gt;Node203 -->
<g id="edge25" class="edge"><title>Node201&#45;&gt;Node203</title>
<path fill="none" stroke="midnightblue" d="M312.091,-138.768C318.437,-130.811 327.646,-119.263 335.322,-109.637"/>
<polygon fill="midnightblue" stroke="midnightblue" points="338.065,-111.811 341.564,-101.811 332.592,-107.447 338.065,-111.811"/>
</g>
<!-- Node206 -->
<g id="node22" class="node"><title>Node206</title>
<g id="a_node22"><a xlink:href="petaio_8c.html#a54ed522ccc2f848abe664cfa255a6305" target="_top" xlink:title="order_by_type">
<polygon fill="white" stroke="black" points="360.974,-163.066 360.974,-182.066 438.974,-182.066 438.974,-163.066 360.974,-163.066"/>
<text text-anchor="middle" x="399.974" y="-170.066" font-family="Helvetica,sans-Serif" font-size="10.00">order_by_type</text>
</a>
</g>
</g>
<!-- Node201&#45;&gt;Node206 -->
<g id="edge28" class="edge"><title>Node201&#45;&gt;Node206</title>
<path fill="none" stroke="midnightblue" d="M341.945,-157.832C345.394,-158.707 348.918,-159.602 352.44,-160.497"/>
<polygon fill="midnightblue" stroke="midnightblue" points="351.745,-163.931 362.299,-163 353.468,-157.146 351.745,-163.931"/>
</g>
<!-- Node204 -->
<g id="node20" class="node"><title>Node204</title>
<g id="a_node20"><a xlink:href="openmpsort_8c.html#af794f526e2627202b5e7d35506fa3434" target="_top" xlink:title="merge">
<polygon fill="white" stroke="black" points="331.303,-0.5 331.303,-19.5 375.303,-19.5 375.303,-0.5 331.303,-0.5"/>
<text text-anchor="middle" x="353.303" y="-7.5" font-family="Helvetica,sans-Serif" font-size="10.00">merge</text>
</a>
</g>
</g>
<!-- Node203&#45;&gt;Node204 -->
<g id="edge26" class="edge"><title>Node203&#45;&gt;Node204</title>
<path fill="none" stroke="midnightblue" d="M349.834,-82.294C350.45,-69.4675 351.547,-46.5909 352.344,-29.9999"/>
<polygon fill="midnightblue" stroke="midnightblue" points="355.853,-29.8752 352.837,-19.7189 348.862,-29.5396 355.853,-29.8752"/>
</g>
<!-- Node205 -->
<g id="node21" class="node"><title>Node205</title>
<g id="a_node21"><a xlink:href="openmpsort_8c.html#a9af28c641be3cee5fdee6ec137e84c9d" target="_top" xlink:title="msort_with_tmp">
<polygon fill="white" stroke="black" points="385.46,-60.4355 385.46,-79.4355 471.46,-79.4355 471.46,-60.4355 385.46,-60.4355"/>
<text text-anchor="middle" x="428.46" y="-67.4355" font-family="Helvetica,sans-Serif" font-size="10.00">msort_with_tmp</text>
</a>
</g>
</g>
<!-- Node203&#45;&gt;Node205 -->
<g id="edge27" class="edge"><title>Node203&#45;&gt;Node205</title>
<path fill="none" stroke="midnightblue" d="M383.828,-82.4008C384.047,-82.3397 384.266,-82.2786 384.485,-82.2175"/>
<polygon fill="midnightblue" stroke="midnightblue" points="385.679,-85.518 394.369,-79.4569 383.796,-78.776 385.679,-85.518"/>
</g>
</g>
</svg>
