<?xml version="1.0" encoding="UTF-8" standalone="no"?>
<!DOCTYPE svg PUBLIC "-//W3C//DTD SVG 1.1//EN"
 "http://www.w3.org/Graphics/SVG/1.1/DTD/svg11.dtd">
<!-- Generated by graphviz version 2.38.0 (20140413.2041)
 -->
<!-- Title: register_io_blocks Pages: 1 -->
<!--zoomable 460 -->
<svg id="main" version="1.1" xmlns="http://www.w3.org/2000/svg" xmlns:xlink="http://www.w3.org/1999/xlink" xml:space="preserve" onload="init(evt)">
<style type="text/css"><![CDATA[
.edge:hover path { stroke: red; }
.edge:hover polygon { stroke: red; fill: red; }
]]></style>
<script type="text/javascript"><![CDATA[
var edges = document.getElementsByTagName('g');
if (edges && edges.length) {
  for (var i=0;i<edges.length;i++) {
    if (edges[i].id.substr(0,4)=='edge') {
      edges[i].setAttribute('class','edge');
    }
  }
}
]]></script>
        <defs>
                <circle id="rim" cx="0" cy="0" r="7"/>
                <circle id="rim2" cx="0" cy="0" r="3.5"/>
                <g id="zoomPlus">
                        <use xlink:href="#rim" fill="#404040">
                                <set attributeName="fill" to="#808080" begin="zoomplus.mouseover" end="zoomplus.mouseout"/>
                        </use>
                        <path d="M-4,0h8M0,-4v8" fill="none" stroke="white" stroke-width="1.5" pointer-events="none"/>
                </g>
                <g id="zoomMin">
                        <use xlink:href="#rim" fill="#404040">
                                <set attributeName="fill" to="#808080" begin="zoomminus.mouseover" end="zoomminus.mouseout"/>
                        </use>
                        <path d="M-4,0h8" fill="none" stroke="white" stroke-width="1.5" pointer-events="none"/>
                </g>
                <g id="dirArrow">
                        <path fill="none" stroke="white" stroke-width="1.5" d="M0,-3.0v7 M-2.5,-0.5L0,-3.0L2.5,-0.5"/>
                </g>
               <g id="resetDef">
                       <use xlink:href="#rim2" fill="#404040">
                               <set attributeName="fill" to="#808080" begin="reset.mouseover" end="reset.mouseout"/>
                       </use>
               </g>
        </defs>

<script type="text/javascript">
var viewWidth = 103;
var viewHeight = 460;
var sectionId = 'dynsection-39';
</script>
<script xlink:href="svgpan.js"/>
<svg id="graph" class="graph">
<g id="viewport">
<title>register_io_blocks</title>
<polygon fill="white" stroke="none" points="-4,4 -4,-456 99,-456 99,4 -4,4"/>
<!-- Node550 -->
<g id="node1" class="node"><title>Node550</title>
<polygon fill="#bfbfbf" stroke="black" points="0,-432.5 0,-451.5 95,-451.5 95,-432.5 0,-432.5"/>
<text text-anchor="middle" x="47.5" y="-439.5" font-family="Helvetica,sans-Serif" font-size="10.00">register_io_blocks</text>
</g>
<!-- Node551 -->
<g id="node2" class="node"><title>Node551</title>
<g id="a_node2"><a xlink:href="petaio_8h.html#a2398ab5c3e8c8475d7c625fcac182c5b" target="_top" xlink:title="petaio_init">
<polygon fill="white" stroke="black" points="17,-360.5 17,-379.5 78,-379.5 78,-360.5 17,-360.5"/>
<text text-anchor="middle" x="47.5" y="-367.5" font-family="Helvetica,sans-Serif" font-size="10.00">petaio_init</text>
</a>
</g>
</g>
<!-- Node550&#45;&gt;Node551 -->
<g id="edge1" class="edge"><title>Node550&#45;&gt;Node551</title>
<path fill="none" stroke="midnightblue" d="M47.5,-422.243C47.5,-408.357 47.5,-390.393 47.5,-379.556"/>
<polygon fill="midnightblue" stroke="midnightblue" points="44.0001,-422.29 47.5,-432.29 51.0001,-422.29 44.0001,-422.29"/>
</g>
<!-- Node552 -->
<g id="node3" class="node"><title>Node552</title>
<g id="a_node3"><a xlink:href="proto_8h.html#a74dc0e5e9eefe11fc8434b62de573146" target="_top" xlink:title="begrun">
<polygon fill="white" stroke="black" points="24.5,-288.5 24.5,-307.5 70.5,-307.5 70.5,-288.5 24.5,-288.5"/>
<text text-anchor="middle" x="47.5" y="-295.5" font-family="Helvetica,sans-Serif" font-size="10.00">begrun</text>
</a>
</g>
</g>
<!-- Node551&#45;&gt;Node552 -->
<g id="edge2" class="edge"><title>Node551&#45;&gt;Node552</title>
<path fill="none" stroke="midnightblue" d="M47.5,-350.243C47.5,-336.357 47.5,-318.393 47.5,-307.556"/>
<polygon fill="midnightblue" stroke="midnightblue" points="44.0001,-350.29 47.5,-360.29 51.0001,-350.29 44.0001,-350.29"/>
</g>
<!-- Node553 -->
<g id="node4" class="node"><title>Node553</title>
<g id="a_node4"><a xlink:href="main_8c.html#a3c04138a5bfe5d72780bb7e82a18e627" target="_top" xlink:title="main">
<polygon fill="white" stroke="black" points="28.5,-216.5 28.5,-235.5 66.5,-235.5 66.5,-216.5 28.5,-216.5"/>
<text text-anchor="middle" x="47.5" y="-223.5" font-family="Helvetica,sans-Serif" font-size="10.00">main</text>
</a>
</g>
</g>
<!-- Node552&#45;&gt;Node553 -->
<g id="edge3" class="edge"><title>Node552&#45;&gt;Node553</title>
<path fill="none" stroke="midnightblue" d="M47.5,-278.243C47.5,-264.357 47.5,-246.393 47.5,-235.556"/>
<polygon fill="midnightblue" stroke="midnightblue" points="43.9999,-278.29 47.5,-288.29 50.9999,-278.29 43.9999,-278.29"/>
</g>
<!-- Node554 -->
<g id="node5" class="node"><title>Node554</title>
<g id="a_node5"><a xlink:href="walltime_8h.html#a76d2135b612766d4d665748454b879d6" target="_top" xlink:title="walltime_report">
<polygon fill="white" stroke="black" points="6,-0.5 6,-19.5 89,-19.5 89,-0.5 6,-0.5"/>
<text text-anchor="middle" x="47.5" y="-7.5" font-family="Helvetica,sans-Serif" font-size="10.00">walltime_report</text>
</a>
</g>
</g>
<!-- Node553&#45;&gt;Node554 -->
<g id="edge4" class="edge"><title>Node553&#45;&gt;Node554</title>
<path fill="none" stroke="midnightblue" d="M47.5,-206.266C47.5,-161.443 47.5,-53.2692 47.5,-19.9425"/>
<polygon fill="midnightblue" stroke="midnightblue" points="44.0001,-206.44 47.5,-216.44 51.0001,-206.44 44.0001,-206.44"/>
</g>
<!-- Node555 -->
<g id="node6" class="node"><title>Node555</title>
<g id="a_node6"><a xlink:href="run_8c.html#adc59e9ee1517e4e690694a64ab6a59d2" target="_top" xlink:title="write_cpu_log">
<polygon fill="white" stroke="black" points="9,-72.5 9,-91.5 86,-91.5 86,-72.5 9,-72.5"/>
<text text-anchor="middle" x="47.5" y="-79.5" font-family="Helvetica,sans-Serif" font-size="10.00">write_cpu_log</text>
</a>
</g>
</g>
<!-- Node554&#45;&gt;Node555 -->
<g id="edge5" class="edge"><title>Node554&#45;&gt;Node555</title>
<path fill="none" stroke="midnightblue" d="M47.5,-29.7574C47.5,-43.6427 47.5,-61.607 47.5,-72.4436"/>
<polygon fill="midnightblue" stroke="midnightblue" points="51.0001,-29.7102 47.5,-19.7102 44.0001,-29.7103 51.0001,-29.7102"/>
</g>
<!-- Node556 -->
<g id="node7" class="node"><title>Node556</title>
<g id="a_node7"><a xlink:href="run_8c.html#a05e0ffe612d44e6d7f3a9ae5b9df56a2" target="_top" xlink:title="run">
<polygon fill="white" stroke="black" points="32.5,-144.5 32.5,-163.5 62.5,-163.5 62.5,-144.5 32.5,-144.5"/>
<text text-anchor="middle" x="47.5" y="-151.5" font-family="Helvetica,sans-Serif" font-size="10.00">run</text>
</a>
</g>
</g>
<!-- Node555&#45;&gt;Node556 -->
<g id="edge6" class="edge"><title>Node555&#45;&gt;Node556</title>
<path fill="none" stroke="midnightblue" d="M47.5,-101.757C47.5,-115.643 47.5,-133.607 47.5,-144.444"/>
<polygon fill="midnightblue" stroke="midnightblue" points="51.0001,-101.71 47.5,-91.7102 44.0001,-101.71 51.0001,-101.71"/>
</g>
<!-- Node556&#45;&gt;Node553 -->
<g id="edge7" class="edge"><title>Node556&#45;&gt;Node553</title>
<path fill="none" stroke="midnightblue" d="M47.5,-173.757C47.5,-187.643 47.5,-205.607 47.5,-216.444"/>
<polygon fill="midnightblue" stroke="midnightblue" points="51.0001,-173.71 47.5,-163.71 44.0001,-173.71 51.0001,-173.71"/>
</g>
</g>
</svg>
        <g id="navigator" transform="translate(0 0)" fill="#404254">
                <rect fill="#f2f5e9" fill-opacity="0.5" stroke="#606060" stroke-width=".5" x="0" y="0" width="60" height="60"/>
                <use id="zoomplus" xlink:href="#zoomPlus" x="17" y="9" onmousedown="handleZoom(evt,'in')"/>
                <use id="zoomminus" xlink:href="#zoomMin" x="42" y="9" onmousedown="handleZoom(evt,'out')"/>
                <use id="reset" xlink:href="#resetDef" x="30" y="36" onmousedown="handleReset()"/>
                <g id="arrowUp" xlink:href="#dirArrow" transform="translate(30 24)" onmousedown="handlePan(0,-1)">
                  <use xlink:href="#rim" fill="#404040">
                        <set attributeName="fill" to="#808080" begin="arrowUp.mouseover" end="arrowUp.mouseout"/>
                  </use>
                  <path fill="none" stroke="white" stroke-width="1.5" d="M0,-3.0v7 M-2.5,-0.5L0,-3.0L2.5,-0.5"/>
                </g>
                <g id="arrowRight" xlink:href="#dirArrow" transform="rotate(90) translate(36 -43)" onmousedown="handlePan(1,0)">
                  <use xlink:href="#rim" fill="#404040">
                        <set attributeName="fill" to="#808080" begin="arrowRight.mouseover" end="arrowRight.mouseout"/>
                  </use>
                  <path fill="none" stroke="white" stroke-width="1.5" d="M0,-3.0v7 M-2.5,-0.5L0,-3.0L2.5,-0.5"/>
                </g>
                <g id="arrowDown" xlink:href="#dirArrow" transform="rotate(180) translate(-30 -48)" onmousedown="handlePan(0,1)">
                  <use xlink:href="#rim" fill="#404040">
                        <set attributeName="fill" to="#808080" begin="arrowDown.mouseover" end="arrowDown.mouseout"/>
                  </use>
                  <path fill="none" stroke="white" stroke-width="1.5" d="M0,-3.0v7 M-2.5,-0.5L0,-3.0L2.5,-0.5"/>
                </g>
                <g id="arrowLeft" xlink:href="#dirArrow" transform="rotate(270) translate(-36 17)" onmousedown="handlePan(-1,0)">
                  <use xlink:href="#rim" fill="#404040">
                        <set attributeName="fill" to="#808080" begin="arrowLeft.mouseover" end="arrowLeft.mouseout"/>
                  </use>
                  <path fill="none" stroke="white" stroke-width="1.5" d="M0,-3.0v7 M-2.5,-0.5L0,-3.0L2.5,-0.5"/>
                </g>
        </g>
        <svg viewBox="0 0 15 15" width="100%" height="30px" preserveAspectRatio="xMaxYMin meet">
         <g id="arrow_out" transform="scale(0.3 0.3)">
          <a xlink:href="petaio_8c_afdc43604464800f6a96d72801667d046_icgraph_org.svg" target="_base">
           <rect id="button" ry="5" rx="5" y="6" x="6" height="38" width="38"
                fill="#f2f5e9" fill-opacity="0.5" stroke="#606060" stroke-width="1.0"/>
           <path id="arrow"
             d="M 11.500037,31.436501 C 11.940474,20.09759 22.043105,11.32322 32.158766,21.979434 L 37.068811,17.246167 C 37.068811,17.246167 37.088388,32 37.088388,32 L 22.160133,31.978069 C 22.160133,31.978069 26.997745,27.140456 26.997745,27.140456 C 18.528582,18.264221 13.291696,25.230495 11.500037,31.436501 z"
             style="fill:#404040;"/>
          </a>
         </g>
        </svg>
</svg>
