<?xml version="1.0" encoding="UTF-8" standalone="no"?>
<!DOCTYPE svg PUBLIC "-//W3C//DTD SVG 1.1//EN"
 "http://www.w3.org/Graphics/SVG/1.1/DTD/svg11.dtd">
<!-- Generated by graphviz version 2.38.0 (20140413.2041)
 -->
<!-- Title: petaio_read_neutrinos Pages: 1 -->
<svg width="927pt" height="47pt"
 viewBox="0.00 0.00 927.00 47.00" xmlns="http://www.w3.org/2000/svg" xmlns:xlink="http://www.w3.org/1999/xlink">
<g id="graph0" class="graph" transform="scale(1 1) rotate(0) translate(4 43)">
<title>petaio_read_neutrinos</title>
<polygon fill="white" stroke="none" points="-4,4 -4,-43 923,-43 923,4 -4,4"/>
<!-- Node313 -->
<g id="node1" class="node"><title>Node313</title>
<polygon fill="#bfbfbf" stroke="black" points="0,-0.5 0,-19.5 112,-19.5 112,-0.5 0,-0.5"/>
<text text-anchor="middle" x="56" y="-7.5" font-family="Helvetica,sans-Serif" font-size="10.00">petaio_read_neutrinos</text>
</g>
<!-- Node314 -->
<g id="node2" class="node"><title>Node314</title>
<g id="a_node2"><a xlink:href="petaio_8c.html#aaa9eefdbfea91c08aa366767aac96a69" target="_top" xlink:title="petaio_read_internal">
<polygon fill="white" stroke="black" points="148,-0.5 148,-19.5 252,-19.5 252,-0.5 148,-0.5"/>
<text text-anchor="middle" x="200" y="-7.5" font-family="Helvetica,sans-Serif" font-size="10.00">petaio_read_internal</text>
</a>
</g>
</g>
<!-- Node313&#45;&gt;Node314 -->
<g id="edge1" class="edge"><title>Node313&#45;&gt;Node314</title>
<path fill="none" stroke="midnightblue" d="M122.554,-10C131.023,-10 139.597,-10 147.788,-10"/>
<polygon fill="midnightblue" stroke="midnightblue" points="122.308,-6.5001 112.308,-10 122.307,-13.5001 122.308,-6.5001"/>
</g>
<!-- Node315 -->
<g id="node3" class="node"><title>Node315</title>
<g id="a_node3"><a xlink:href="petaio_8h.html#a3dd52bd7a320fa9ef1c7963d060ae4ec" target="_top" xlink:title="petaio_read_snapshot">
<polygon fill="white" stroke="black" points="288,-0.5 288,-19.5 400,-19.5 400,-0.5 288,-0.5"/>
<text text-anchor="middle" x="344" y="-7.5" font-family="Helvetica,sans-Serif" font-size="10.00">petaio_read_snapshot</text>
</a>
</g>
</g>
<!-- Node314&#45;&gt;Node315 -->
<g id="edge2" class="edge"><title>Node314&#45;&gt;Node315</title>
<path fill="none" stroke="midnightblue" d="M262.481,-10C270.959,-10 279.621,-10 287.972,-10"/>
<polygon fill="midnightblue" stroke="midnightblue" points="262.265,-6.5001 252.265,-10 262.265,-13.5001 262.265,-6.5001"/>
</g>
<!-- Node316 -->
<g id="node4" class="node"><title>Node316</title>
<g id="a_node4"><a xlink:href="proto_8h.html#ab080cb20bac2a1a6153a84e8cfd15374" target="_top" xlink:title="init">
<polygon fill="white" stroke="black" points="436,-0.5 436,-19.5 465,-19.5 465,-0.5 436,-0.5"/>
<text text-anchor="middle" x="450.5" y="-7.5" font-family="Helvetica,sans-Serif" font-size="10.00">init</text>
</a>
</g>
</g>
<!-- Node315&#45;&gt;Node316 -->
<g id="edge3" class="edge"><title>Node315&#45;&gt;Node316</title>
<path fill="none" stroke="midnightblue" d="M410.24,-10C419.901,-10 428.928,-10 435.885,-10"/>
<polygon fill="midnightblue" stroke="midnightblue" points="410.004,-6.5001 400.004,-10 410.004,-13.5001 410.004,-6.5001"/>
</g>
<!-- Node317 -->
<g id="node5" class="node"><title>Node317</title>
<g id="a_node5"><a xlink:href="proto_8h.html#a74dc0e5e9eefe11fc8434b62de573146" target="_top" xlink:title="begrun">
<polygon fill="white" stroke="black" points="501,-0.5 501,-19.5 547,-19.5 547,-0.5 501,-0.5"/>
<text text-anchor="middle" x="524" y="-7.5" font-family="Helvetica,sans-Serif" font-size="10.00">begrun</text>
</a>
</g>
</g>
<!-- Node316&#45;&gt;Node317 -->
<g id="edge4" class="edge"><title>Node316&#45;&gt;Node317</title>
<path fill="none" stroke="midnightblue" d="M475.37,-10C483.585,-10 492.743,-10 500.818,-10"/>
<polygon fill="midnightblue" stroke="midnightblue" points="475.286,-6.5001 465.286,-10 475.286,-13.5001 475.286,-6.5001"/>
</g>
<!-- Node318 -->
<g id="node6" class="node"><title>Node318</title>
<g id="a_node6"><a xlink:href="main_8c.html#a3c04138a5bfe5d72780bb7e82a18e627" target="_top" xlink:title="main">
<polygon fill="white" stroke="black" points="583,-0.5 583,-19.5 621,-19.5 621,-0.5 583,-0.5"/>
<text text-anchor="middle" x="602" y="-7.5" font-family="Helvetica,sans-Serif" font-size="10.00">main</text>
</a>
</g>
</g>
<!-- Node317&#45;&gt;Node318 -->
<g id="edge5" class="edge"><title>Node317&#45;&gt;Node318</title>
<path fill="none" stroke="midnightblue" d="M557.541,-10C566.114,-10 575.067,-10 582.603,-10"/>
<polygon fill="midnightblue" stroke="midnightblue" points="557.391,-6.5001 547.391,-10 557.391,-13.5001 557.391,-6.5001"/>
</g>
<!-- Node319 -->
<g id="node7" class="node"><title>Node319</title>
<g id="a_node7"><a xlink:href="walltime_8h.html#a76d2135b612766d4d665748454b879d6" target="_top" xlink:title="walltime_report">
<polygon fill="white" stroke="black" points="657,-19.5 657,-38.5 740,-38.5 740,-19.5 657,-19.5"/>
<text text-anchor="middle" x="698.5" y="-26.5" font-family="Helvetica,sans-Serif" font-size="10.00">walltime_report</text>
</a>
</g>
</g>
<!-- Node318&#45;&gt;Node319 -->
<g id="edge6" class="edge"><title>Node318&#45;&gt;Node319</title>
<path fill="none" stroke="midnightblue" d="M631.141,-15.658C639.148,-17.2678 648.035,-19.0547 656.635,-20.7837"/>
<polygon fill="midnightblue" stroke="midnightblue" points="631.714,-12.2033 621.221,-13.6634 630.334,-19.0659 631.714,-12.2033"/>
</g>
<!-- Node320 -->
<g id="node8" class="node"><title>Node320</title>
<g id="a_node8"><a xlink:href="run_8c.html#adc59e9ee1517e4e690694a64ab6a59d2" target="_top" xlink:title="write_cpu_log">
<polygon fill="white" stroke="black" points="776,-19.5 776,-38.5 853,-38.5 853,-19.5 776,-19.5"/>
<text text-anchor="middle" x="814.5" y="-26.5" font-family="Helvetica,sans-Serif" font-size="10.00">write_cpu_log</text>
</a>
</g>
</g>
<!-- Node319&#45;&gt;Node320 -->
<g id="edge7" class="edge"><title>Node319&#45;&gt;Node320</title>
<path fill="none" stroke="midnightblue" d="M750.031,-29C758.684,-29 767.54,-29 775.785,-29"/>
<polygon fill="midnightblue" stroke="midnightblue" points="750.013,-25.5001 740.013,-29 750.013,-32.5001 750.013,-25.5001"/>
</g>
<!-- Node321 -->
<g id="node9" class="node"><title>Node321</title>
<g id="a_node9"><a xlink:href="run_8c.html#a05e0ffe612d44e6d7f3a9ae5b9df56a2" target="_top" xlink:title="run">
<polygon fill="white" stroke="black" points="889,-0.5 889,-19.5 919,-19.5 919,-0.5 889,-0.5"/>
<text text-anchor="middle" x="904" y="-7.5" font-family="Helvetica,sans-Serif" font-size="10.00">run</text>
</a>
</g>
</g>
<!-- Node320&#45;&gt;Node321 -->
<g id="edge8" class="edge"><title>Node320&#45;&gt;Node321</title>
<path fill="none" stroke="midnightblue" d="M862.925,-18.7021C872.329,-16.6601 881.505,-14.6676 888.698,-13.1056"/>
<polygon fill="midnightblue" stroke="midnightblue" points="862.145,-15.2897 853.116,-20.832 863.631,-22.1303 862.145,-15.2897"/>
</g>
<!-- Node321&#45;&gt;Node318 -->
<g id="edge9" class="edge"><title>Node321&#45;&gt;Node318</title>
<path fill="none" stroke="midnightblue" d="M878.758,-10C820.391,-10 673.064,-10 621.315,-10"/>
<polygon fill="midnightblue" stroke="midnightblue" points="878.885,-13.5001 888.885,-10 878.885,-6.5001 878.885,-13.5001"/>
</g>
</g>
</svg>
