<?xml version="1.0" encoding="UTF-8" standalone="no"?>
<!DOCTYPE svg PUBLIC "-//W3C//DTD SVG 1.1//EN"
 "http://www.w3.org/Graphics/SVG/1.1/DTD/svg11.dtd">
<!-- Generated by graphviz version 2.50.0 (0)
 -->
<!-- Title: libgenic/pmesh.h Pages: 1 -->
<svg width="1260pt" height="252pt"
 viewBox="0.00 0.00 1260.17 252.00" xmlns="http://www.w3.org/2000/svg" xmlns:xlink="http://www.w3.org/1999/xlink">
<g id="graph0" class="graph" transform="scale(1 1) rotate(0) translate(4 248)">
<title>libgenic/pmesh.h</title>
<polygon fill="white" stroke="transparent" points="-4,4 -4,-248 1256.17,-248 1256.17,4 -4,4"/>
<!-- Node1 -->
<g id="node1" class="node">
<title>Node1</title>
<g id="a_node1"><a xlink:title=" ">
<polygon fill="#bfbfbf" stroke="black" points="102,-224.5 102,-243.5 202,-243.5 202,-224.5 102,-224.5"/>
<text text-anchor="middle" x="152" y="-231.5" font-family="Helvetica,sans-Serif" font-size="10.00">libgenic/pmesh.h</text>
</a>
</g>
</g>
<!-- Node2 -->
<g id="node2" class="node">
<title>Node2</title>
<g id="a_node2"><a xlink:title=" ">
<polygon fill="white" stroke="#bfbfbf" points="0,-168.5 0,-187.5 78,-187.5 78,-168.5 0,-168.5"/>
<text text-anchor="middle" x="39" y="-175.5" font-family="Helvetica,sans-Serif" font-size="10.00">gsl/gsl_rng.h</text>
</a>
</g>
</g>
<!-- Node1&#45;&gt;Node2 -->
<g id="edge1" class="edge">
<title>Node1&#45;&gt;Node2</title>
<path fill="none" stroke="midnightblue" d="M134.09,-224.44C115.75,-215.68 86.99,-201.94 65.91,-191.86"/>
<polygon fill="midnightblue" stroke="midnightblue" points="67.35,-188.67 56.82,-187.52 64.33,-194.99 67.35,-188.67"/>
</g>
<!-- Node3 -->
<g id="node3" class="node">
<title>Node3</title>
<g id="a_node3"><a xlink:href="petapm_8h.html" target="_top" xlink:title=" ">
<polygon fill="white" stroke="black" points="96,-168.5 96,-187.5 208,-187.5 208,-168.5 96,-168.5"/>
<text text-anchor="middle" x="152" y="-175.5" font-family="Helvetica,sans-Serif" font-size="10.00">libgadget/petapm.h</text>
</a>
</g>
</g>
<!-- Node1&#45;&gt;Node3 -->
<g id="edge2" class="edge">
<title>Node1&#45;&gt;Node3</title>
<path fill="none" stroke="midnightblue" d="M152,-224.08C152,-217.01 152,-206.86 152,-197.99"/>
<polygon fill="midnightblue" stroke="midnightblue" points="155.5,-197.75 152,-187.75 148.5,-197.75 155.5,-197.75"/>
</g>
<!-- Node9 -->
<g id="node9" class="node">
<title>Node9</title>
<g id="a_node9"><a xlink:href="utils_8h.html" target="_top" xlink:title=" ">
<polygon fill="white" stroke="black" points="717.5,-168.5 717.5,-187.5 812.5,-187.5 812.5,-168.5 717.5,-168.5"/>
<text text-anchor="middle" x="765" y="-175.5" font-family="Helvetica,sans-Serif" font-size="10.00">libgadget/utils.h</text>
</a>
</g>
</g>
<!-- Node1&#45;&gt;Node9 -->
<g id="edge8" class="edge">
<title>Node1&#45;&gt;Node9</title>
<path fill="none" stroke="midnightblue" d="M202.16,-228.58C314.83,-218.66 587.42,-194.64 707.06,-184.1"/>
<polygon fill="midnightblue" stroke="midnightblue" points="707.47,-187.58 717.12,-183.22 706.86,-180.61 707.47,-187.58"/>
</g>
<!-- Node4 -->
<g id="node4" class="node">
<title>Node4</title>
<g id="a_node4"><a xlink:title=" ">
<polygon fill="white" stroke="#bfbfbf" points="131,-112.5 131,-131.5 173,-131.5 173,-112.5 131,-112.5"/>
<text text-anchor="middle" x="152" y="-119.5" font-family="Helvetica,sans-Serif" font-size="10.00">pfft.h</text>
</a>
</g>
</g>
<!-- Node3&#45;&gt;Node4 -->
<g id="edge3" class="edge">
<title>Node3&#45;&gt;Node4</title>
<path fill="none" stroke="midnightblue" d="M152,-168.08C152,-161.01 152,-150.86 152,-141.99"/>
<polygon fill="midnightblue" stroke="midnightblue" points="155.5,-141.75 152,-131.75 148.5,-141.75 155.5,-141.75"/>
</g>
<!-- Node5 -->
<g id="node5" class="node">
<title>Node5</title>
<g id="a_node5"><a xlink:href="powerspectrum_8h.html" target="_top" xlink:title=" ">
<polygon fill="white" stroke="black" points="11.5,-112.5 11.5,-131.5 112.5,-131.5 112.5,-112.5 11.5,-112.5"/>
<text text-anchor="middle" x="62" y="-119.5" font-family="Helvetica,sans-Serif" font-size="10.00">powerspectrum.h</text>
</a>
</g>
</g>
<!-- Node3&#45;&gt;Node5 -->
<g id="edge4" class="edge">
<title>Node3&#45;&gt;Node5</title>
<path fill="none" stroke="midnightblue" d="M137.54,-168.32C123.5,-159.9 101.95,-146.97 85.46,-137.07"/>
<polygon fill="midnightblue" stroke="midnightblue" points="86.8,-133.8 76.42,-131.65 83.2,-139.8 86.8,-133.8"/>
</g>
<!-- Node6 -->
<g id="node6" class="node">
<title>Node6</title>
<g id="a_node6"><a xlink:title=" ">
<polygon fill="white" stroke="#bfbfbf" points="961,-0.5 961,-19.5 1017,-19.5 1017,-0.5 961,-0.5"/>
<text text-anchor="middle" x="989" y="-7.5" font-family="Helvetica,sans-Serif" font-size="10.00">stddef.h</text>
</a>
</g>
</g>
<!-- Node5&#45;&gt;Node6 -->
<g id="edge5" class="edge">
<title>Node5&#45;&gt;Node6</title>
<path fill="none" stroke="midnightblue" d="M61.63,-112.12C61.58,-97.72 63.83,-69.54 81,-56 115.61,-28.69 781.62,-14.77 950.39,-11.67"/>
<polygon fill="midnightblue" stroke="midnightblue" points="950.62,-15.17 960.55,-11.49 950.49,-8.17 950.62,-15.17"/>
</g>
<!-- Node7 -->
<g id="node7" class="node">
<title>Node7</title>
<g id="a_node7"><a xlink:title=" ">
<polygon fill="white" stroke="#bfbfbf" points="221.5,-56.5 221.5,-75.5 274.5,-75.5 274.5,-56.5 221.5,-56.5"/>
<text text-anchor="middle" x="248" y="-63.5" font-family="Helvetica,sans-Serif" font-size="10.00">stdint.h</text>
</a>
</g>
</g>
<!-- Node5&#45;&gt;Node7 -->
<g id="edge6" class="edge">
<title>Node5&#45;&gt;Node7</title>
<path fill="none" stroke="midnightblue" d="M91.47,-112.44C124.01,-103 176.42,-87.78 211.52,-77.59"/>
<polygon fill="midnightblue" stroke="midnightblue" points="212.75,-80.88 221.38,-74.73 210.8,-74.16 212.75,-80.88"/>
</g>
<!-- Node8 -->
<g id="node8" class="node">
<title>Node8</title>
<g id="a_node8"><a xlink:title=" ">
<polygon fill="white" stroke="#bfbfbf" points="90.5,-56.5 90.5,-75.5 181.5,-75.5 181.5,-56.5 90.5,-56.5"/>
<text text-anchor="middle" x="136" y="-63.5" font-family="Helvetica,sans-Serif" font-size="10.00">gsl/gsl_interp.h</text>
</a>
</g>
</g>
<!-- Node5&#45;&gt;Node8 -->
<g id="edge7" class="edge">
<title>Node5&#45;&gt;Node8</title>
<path fill="none" stroke="midnightblue" d="M73.89,-112.32C85.15,-104.11 102.29,-91.6 115.71,-81.81"/>
<polygon fill="midnightblue" stroke="midnightblue" points="117.88,-84.56 123.89,-75.83 113.75,-78.9 117.88,-84.56"/>
</g>
<!-- Node9&#45;&gt;Node6 -->
<g id="edge11" class="edge">
<title>Node9&#45;&gt;Node6</title>
<path fill="none" stroke="midnightblue" d="M812.73,-177.6C869.07,-176.45 964.16,-168.54 1036,-132 1067.65,-115.9 1079.26,-108.75 1093,-76 1106.23,-44.46 1061.9,-26.91 1027.05,-18.21"/>
<polygon fill="midnightblue" stroke="midnightblue" points="1027.6,-14.74 1017.06,-15.89 1026.01,-21.56 1027.6,-14.74"/>
</g>
<!-- Node9&#45;&gt;Node7 -->
<g id="edge10" class="edge">
<title>Node9&#45;&gt;Node7</title>
<path fill="none" stroke="midnightblue" d="M717.32,-176.67C590.7,-175.29 253.36,-168.23 220,-132 207.2,-118.1 219.89,-97.44 232.06,-83.16"/>
<polygon fill="midnightblue" stroke="midnightblue" points="234.81,-85.33 238.97,-75.59 229.64,-80.61 234.81,-85.33"/>
</g>
<!-- Node10 -->
<g id="node10" class="node">
<title>Node10</title>
<g id="a_node10"><a xlink:title=" ">
<polygon fill="white" stroke="#bfbfbf" points="812,-56.5 812,-75.5 862,-75.5 862,-56.5 812,-56.5"/>
<text text-anchor="middle" x="837" y="-63.5" font-family="Helvetica,sans-Serif" font-size="10.00">stdio.h</text>
</a>
</g>
</g>
<!-- Node9&#45;&gt;Node10 -->
<g id="edge9" class="edge">
<title>Node9&#45;&gt;Node10</title>
<path fill="none" stroke="midnightblue" d="M812.85,-173.79C869.41,-168.88 958.48,-157.28 979,-132 984.6,-125.1 984.25,-119.17 979,-112 975.72,-107.52 912.87,-88.78 871.89,-76.94"/>
<polygon fill="midnightblue" stroke="midnightblue" points="872.83,-73.57 862.25,-74.17 870.89,-80.29 872.83,-73.57"/>
</g>
<!-- Node11 -->
<g id="node11" class="node">
<title>Node11</title>
<g id="a_node11"><a xlink:title=" ">
<polygon fill="white" stroke="#bfbfbf" points="378,-56.5 378,-75.5 422,-75.5 422,-56.5 378,-56.5"/>
<text text-anchor="middle" x="400" y="-63.5" font-family="Helvetica,sans-Serif" font-size="10.00">mpi.h</text>
</a>
</g>
</g>
<!-- Node9&#45;&gt;Node11 -->
<g id="edge12" class="edge">
<title>Node9&#45;&gt;Node11</title>
<path fill="none" stroke="midnightblue" d="M717.11,-175.25C614.29,-171.01 379.75,-158.5 356,-132 341.78,-116.13 361.36,-95.39 378.75,-81.65"/>
<polygon fill="midnightblue" stroke="midnightblue" points="381.03,-84.31 386.95,-75.52 376.84,-78.7 381.03,-84.31"/>
</g>
<!-- Node12 -->
<g id="node12" class="node">
<title>Node12</title>
<g id="a_node12"><a xlink:href="peano_8h.html" target="_top" xlink:title=" ">
<polygon fill="white" stroke="black" points="229,-112.5 229,-131.5 309,-131.5 309,-112.5 229,-112.5"/>
<text text-anchor="middle" x="269" y="-119.5" font-family="Helvetica,sans-Serif" font-size="10.00">utils/peano.h</text>
</a>
</g>
</g>
<!-- Node9&#45;&gt;Node12 -->
<g id="edge13" class="edge">
<title>Node9&#45;&gt;Node12</title>
<path fill="none" stroke="midnightblue" d="M717.46,-173.16C636.36,-166.39 466.15,-151.2 323,-132 321.73,-131.83 320.44,-131.65 319.14,-131.47"/>
<polygon fill="midnightblue" stroke="midnightblue" points="319.47,-127.98 309.06,-129.97 318.44,-134.9 319.47,-127.98"/>
</g>
<!-- Node13 -->
<g id="node13" class="node">
<title>Node13</title>
<g id="a_node13"><a xlink:href="memory_8h.html" target="_top" xlink:title=" ">
<polygon fill="white" stroke="black" points="1144.5,-56.5 1144.5,-75.5 1233.5,-75.5 1233.5,-56.5 1144.5,-56.5"/>
<text text-anchor="middle" x="1189" y="-63.5" font-family="Helvetica,sans-Serif" font-size="10.00">utils/memory.h</text>
</a>
</g>
</g>
<!-- Node9&#45;&gt;Node13 -->
<g id="edge16" class="edge">
<title>Node9&#45;&gt;Node13</title>
<path fill="none" stroke="midnightblue" d="M812.58,-176.12C928.49,-173.47 1218.1,-163.72 1247,-132 1263.02,-114.41 1237.45,-93.89 1215.35,-80.69"/>
<polygon fill="midnightblue" stroke="midnightblue" points="1216.96,-77.57 1206.53,-75.67 1213.5,-83.66 1216.96,-77.57"/>
</g>
<!-- Node14 -->
<g id="node14" class="node">
<title>Node14</title>
<g id="a_node14"><a xlink:href="mymalloc_8h.html" target="_top" xlink:title=" ">
<polygon fill="white" stroke="black" points="1140,-112.5 1140,-131.5 1238,-131.5 1238,-112.5 1140,-112.5"/>
<text text-anchor="middle" x="1189" y="-119.5" font-family="Helvetica,sans-Serif" font-size="10.00">utils/mymalloc.h</text>
</a>
</g>
</g>
<!-- Node9&#45;&gt;Node14 -->
<g id="edge18" class="edge">
<title>Node9&#45;&gt;Node14</title>
<path fill="none" stroke="midnightblue" d="M812.63,-171.34C881.73,-163.06 1013.79,-147.01 1126,-132 1127.26,-131.83 1128.54,-131.66 1129.83,-131.48"/>
<polygon fill="midnightblue" stroke="midnightblue" points="1130.4,-134.94 1139.83,-130.11 1129.45,-128 1130.4,-134.94"/>
</g>
<!-- Node15 -->
<g id="node15" class="node">
<title>Node15</title>
<g id="a_node15"><a xlink:href="paramset_8h.html" target="_top" xlink:title=" ">
<polygon fill="white" stroke="black" points="874,-112.5 874,-131.5 970,-131.5 970,-112.5 874,-112.5"/>
<text text-anchor="middle" x="922" y="-119.5" font-family="Helvetica,sans-Serif" font-size="10.00">utils/paramset.h</text>
</a>
</g>
</g>
<!-- Node9&#45;&gt;Node15 -->
<g id="edge20" class="edge">
<title>Node9&#45;&gt;Node15</title>
<path fill="none" stroke="midnightblue" d="M789.88,-168.44C816.29,-159.36 858.22,-144.94 887.74,-134.78"/>
<polygon fill="midnightblue" stroke="midnightblue" points="888.92,-138.08 897.24,-131.52 886.64,-131.46 888.92,-138.08"/>
</g>
<!-- Node16 -->
<g id="node16" class="node">
<title>Node16</title>
<g id="a_node16"><a xlink:href="event_8h.html" target="_top" xlink:title=" ">
<polygon fill="white" stroke="black" points="469.5,-112.5 469.5,-131.5 546.5,-131.5 546.5,-112.5 469.5,-112.5"/>
<text text-anchor="middle" x="508" y="-119.5" font-family="Helvetica,sans-Serif" font-size="10.00">utils/event.h</text>
</a>
</g>
</g>
<!-- Node9&#45;&gt;Node16 -->
<g id="edge22" class="edge">
<title>Node9&#45;&gt;Node16</title>
<path fill="none" stroke="midnightblue" d="M724.28,-168.44C678.82,-158.89 605.3,-143.44 556.8,-133.25"/>
<polygon fill="midnightblue" stroke="midnightblue" points="557.36,-129.79 546.85,-131.16 555.92,-136.64 557.36,-129.79"/>
</g>
<!-- Node17 -->
<g id="node17" class="node">
<title>Node17</title>
<g id="a_node17"><a xlink:href="openmpsort_8h.html" target="_top" xlink:title=" ">
<polygon fill="white" stroke="black" points="880,-56.5 880,-75.5 988,-75.5 988,-56.5 880,-56.5"/>
<text text-anchor="middle" x="934" y="-63.5" font-family="Helvetica,sans-Serif" font-size="10.00">utils/openmpsort.h</text>
</a>
</g>
</g>
<!-- Node9&#45;&gt;Node17 -->
<g id="edge23" class="edge">
<title>Node9&#45;&gt;Node17</title>
<path fill="none" stroke="midnightblue" d="M812.66,-174.64C873.38,-170.52 973.23,-159.63 996,-132 1011.5,-113.19 984.98,-93.13 961.96,-80.35"/>
<polygon fill="midnightblue" stroke="midnightblue" points="963.56,-77.24 953.08,-75.66 960.29,-83.43 963.56,-77.24"/>
</g>
<!-- Node18 -->
<g id="node18" class="node">
<title>Node18</title>
<g id="a_node18"><a xlink:href="system_8h.html" target="_top" xlink:title=" ">
<polygon fill="white" stroke="black" points="365,-112.5 365,-131.5 451,-131.5 451,-112.5 365,-112.5"/>
<text text-anchor="middle" x="408" y="-119.5" font-family="Helvetica,sans-Serif" font-size="10.00">utils/system.h</text>
</a>
</g>
</g>
<!-- Node9&#45;&gt;Node18 -->
<g id="edge25" class="edge">
<title>Node9&#45;&gt;Node18</title>
<path fill="none" stroke="midnightblue" d="M717.4,-170.35C659.33,-162.16 557.92,-147.58 461.08,-132.14"/>
<polygon fill="midnightblue" stroke="midnightblue" points="461.54,-128.67 451.12,-130.55 460.44,-135.58 461.54,-128.67"/>
</g>
<!-- Node20 -->
<g id="node20" class="node">
<title>Node20</title>
<g id="a_node20"><a xlink:href="string_8h.html" target="_top" xlink:title=" ">
<polygon fill="white" stroke="black" points="778.5,-112.5 778.5,-131.5 855.5,-131.5 855.5,-112.5 778.5,-112.5"/>
<text text-anchor="middle" x="817" y="-119.5" font-family="Helvetica,sans-Serif" font-size="10.00">utils/string.h</text>
</a>
</g>
</g>
<!-- Node9&#45;&gt;Node20 -->
<g id="edge29" class="edge">
<title>Node9&#45;&gt;Node20</title>
<path fill="none" stroke="midnightblue" d="M773.59,-168.08C781.16,-160.22 792.38,-148.57 801.51,-139.08"/>
<polygon fill="midnightblue" stroke="midnightblue" points="804.16,-141.38 808.57,-131.75 799.12,-136.53 804.16,-141.38"/>
</g>
<!-- Node21 -->
<g id="node21" class="node">
<title>Node21</title>
<g id="a_node21"><a xlink:href="endrun_8h.html" target="_top" xlink:title=" ">
<polygon fill="white" stroke="black" points="564.5,-112.5 564.5,-131.5 647.5,-131.5 647.5,-112.5 564.5,-112.5"/>
<text text-anchor="middle" x="606" y="-119.5" font-family="Helvetica,sans-Serif" font-size="10.00">utils/endrun.h</text>
</a>
</g>
</g>
<!-- Node9&#45;&gt;Node21 -->
<g id="edge31" class="edge">
<title>Node9&#45;&gt;Node21</title>
<path fill="none" stroke="midnightblue" d="M739.81,-168.44C713.06,-159.36 670.6,-144.94 640.69,-134.78"/>
<polygon fill="midnightblue" stroke="midnightblue" points="641.67,-131.42 631.08,-131.52 639.42,-138.05 641.67,-131.42"/>
</g>
<!-- Node22 -->
<g id="node22" class="node">
<title>Node22</title>
<g id="a_node22"><a xlink:href="interp_8h.html" target="_top" xlink:title=" ">
<polygon fill="white" stroke="black" points="1006,-56.5 1006,-75.5 1084,-75.5 1084,-56.5 1006,-56.5"/>
<text text-anchor="middle" x="1045" y="-63.5" font-family="Helvetica,sans-Serif" font-size="10.00">utils/interp.h</text>
</a>
</g>
</g>
<!-- Node9&#45;&gt;Node22 -->
<g id="edge32" class="edge">
<title>Node9&#45;&gt;Node22</title>
<path fill="none" stroke="midnightblue" d="M812.71,-173.43C875.67,-167.87 982.13,-155.29 1013,-132 1028.03,-120.66 1036.42,-100.36 1040.8,-85.46"/>
<polygon fill="midnightblue" stroke="midnightblue" points="1044.19,-86.32 1043.32,-75.76 1037.42,-84.56 1044.19,-86.32"/>
</g>
<!-- Node23 -->
<g id="node23" class="node">
<title>Node23</title>
<g id="a_node23"><a xlink:href="spinlocks_8h.html" target="_top" xlink:title=" ">
<polygon fill="white" stroke="black" points="665.5,-112.5 665.5,-131.5 760.5,-131.5 760.5,-112.5 665.5,-112.5"/>
<text text-anchor="middle" x="713" y="-119.5" font-family="Helvetica,sans-Serif" font-size="10.00">utils/spinlocks.h</text>
</a>
</g>
</g>
<!-- Node9&#45;&gt;Node23 -->
<g id="edge34" class="edge">
<title>Node9&#45;&gt;Node23</title>
<path fill="none" stroke="midnightblue" d="M756.41,-168.08C748.84,-160.22 737.62,-148.57 728.49,-139.08"/>
<polygon fill="midnightblue" stroke="midnightblue" points="730.88,-136.53 721.43,-131.75 725.84,-141.38 730.88,-136.53"/>
</g>
<!-- Node12&#45;&gt;Node6 -->
<g id="edge14" class="edge">
<title>Node12&#45;&gt;Node6</title>
<path fill="none" stroke="midnightblue" d="M278.61,-112.3C295.47,-97.65 332.1,-68.41 369,-56 477.62,-19.47 832.7,-12.58 950.58,-11.29"/>
<polygon fill="midnightblue" stroke="midnightblue" points="950.95,-14.79 960.91,-11.19 950.87,-7.79 950.95,-14.79"/>
</g>
<!-- Node12&#45;&gt;Node7 -->
<g id="edge15" class="edge">
<title>Node12&#45;&gt;Node7</title>
<path fill="none" stroke="midnightblue" d="M265.53,-112.08C262.69,-104.77 258.57,-94.18 255.04,-85.1"/>
<polygon fill="midnightblue" stroke="midnightblue" points="258.29,-83.8 251.4,-75.75 251.77,-86.34 258.29,-83.8"/>
</g>
<!-- Node13&#45;&gt;Node6 -->
<g id="edge17" class="edge">
<title>Node13&#45;&gt;Node6</title>
<path fill="none" stroke="midnightblue" d="M1157.31,-56.44C1122.07,-46.93 1065.16,-31.56 1027.41,-21.37"/>
<polygon fill="midnightblue" stroke="midnightblue" points="1027.88,-17.87 1017.31,-18.64 1026.05,-24.63 1027.88,-17.87"/>
</g>
<!-- Node14&#45;&gt;Node13 -->
<g id="edge19" class="edge">
<title>Node14&#45;&gt;Node13</title>
<path fill="none" stroke="midnightblue" d="M1189,-112.08C1189,-105.01 1189,-94.86 1189,-85.99"/>
<polygon fill="midnightblue" stroke="midnightblue" points="1192.5,-85.75 1189,-75.75 1185.5,-85.75 1192.5,-85.75"/>
</g>
<!-- Node15&#45;&gt;Node10 -->
<g id="edge21" class="edge">
<title>Node15&#45;&gt;Node10</title>
<path fill="none" stroke="midnightblue" d="M908.34,-112.32C895.08,-103.9 874.73,-90.97 859.15,-81.07"/>
<polygon fill="midnightblue" stroke="midnightblue" points="860.94,-78.06 850.62,-75.65 857.19,-83.97 860.94,-78.06"/>
</g>
<!-- Node17&#45;&gt;Node6 -->
<g id="edge24" class="edge">
<title>Node17&#45;&gt;Node6</title>
<path fill="none" stroke="midnightblue" d="M943.08,-56.08C951.17,-48.14 963.2,-36.34 972.91,-26.8"/>
<polygon fill="midnightblue" stroke="midnightblue" points="975.4,-29.25 980.09,-19.75 970.5,-24.26 975.4,-29.25"/>
</g>
<!-- Node18&#45;&gt;Node7 -->
<g id="edge26" class="edge">
<title>Node18&#45;&gt;Node7</title>
<path fill="none" stroke="midnightblue" d="M382.65,-112.44C355.73,-103.36 313,-88.94 282.91,-78.78"/>
<polygon fill="midnightblue" stroke="midnightblue" points="283.83,-75.4 273.23,-75.52 281.59,-82.03 283.83,-75.4"/>
</g>
<!-- Node18&#45;&gt;Node11 -->
<g id="edge27" class="edge">
<title>Node18&#45;&gt;Node11</title>
<path fill="none" stroke="midnightblue" d="M406.68,-112.08C405.62,-104.93 404.09,-94.64 402.77,-85.69"/>
<polygon fill="midnightblue" stroke="midnightblue" points="406.22,-85.13 401.3,-75.75 399.3,-86.16 406.22,-85.13"/>
</g>
<!-- Node19 -->
<g id="node19" class="node">
<title>Node19</title>
<g id="a_node19"><a xlink:title=" ">
<polygon fill="white" stroke="#bfbfbf" points="589,-56.5 589,-75.5 645,-75.5 645,-56.5 589,-56.5"/>
<text text-anchor="middle" x="617" y="-63.5" font-family="Helvetica,sans-Serif" font-size="10.00">stdarg.h</text>
</a>
</g>
</g>
<!-- Node18&#45;&gt;Node19 -->
<g id="edge28" class="edge">
<title>Node18&#45;&gt;Node19</title>
<path fill="none" stroke="midnightblue" d="M441.12,-112.44C478.6,-102.76 539.55,-87.01 578.96,-76.83"/>
<polygon fill="midnightblue" stroke="midnightblue" points="579.92,-80.19 588.73,-74.3 578.17,-73.42 579.92,-80.19"/>
</g>
<!-- Node20&#45;&gt;Node19 -->
<g id="edge30" class="edge">
<title>Node20&#45;&gt;Node19</title>
<path fill="none" stroke="midnightblue" d="M785.31,-112.44C750.07,-102.93 693.16,-87.56 655.41,-77.37"/>
<polygon fill="midnightblue" stroke="midnightblue" points="655.88,-73.87 645.31,-74.64 654.05,-80.63 655.88,-73.87"/>
</g>
<!-- Node22&#45;&gt;Node6 -->
<g id="edge33" class="edge">
<title>Node22&#45;&gt;Node6</title>
<path fill="none" stroke="midnightblue" d="M1036,-56.32C1027.81,-48.42 1015.49,-36.55 1005.53,-26.94"/>
<polygon fill="midnightblue" stroke="midnightblue" points="1007.79,-24.26 998.16,-19.83 1002.93,-29.29 1007.79,-24.26"/>
</g>
</g>
</svg>
