<?xml version="1.0" encoding="UTF-8" standalone="no"?>
<!DOCTYPE svg PUBLIC "-//W3C//DTD SVG 1.1//EN"
 "http://www.w3.org/Graphics/SVG/1.1/DTD/svg11.dtd">
<!-- Generated by graphviz version 2.38.0 (20140413.2041)
 -->
<!-- Title: powerspectrum.h Pages: 1 -->
<svg width="228pt" height="66pt"
 viewBox="0.00 0.00 228.00 66.00" xmlns="http://www.w3.org/2000/svg" xmlns:xlink="http://www.w3.org/1999/xlink">
<g id="graph0" class="graph" transform="scale(1 1) rotate(0) translate(4 62)">
<title>powerspectrum.h</title>
<polygon fill="white" stroke="none" points="-4,4 -4,-62 224,-62 224,4 -4,4"/>
<!-- Node2 -->
<g id="node1" class="node"><title>Node2</title>
<polygon fill="#bfbfbf" stroke="black" points="0,-19.5 0,-38.5 92,-38.5 92,-19.5 0,-19.5"/>
<text text-anchor="middle" x="46" y="-26.5" font-family="Helvetica,sans-Serif" font-size="10.00">powerspectrum.h</text>
</g>
<!-- Node3 -->
<g id="node2" class="node"><title>Node3</title>
<g id="a_node2"><a xlink:href="gravpm_8c.html" target="_top" xlink:title="gravpm.c">
<polygon fill="white" stroke="black" points="145.5,-38.5 145.5,-57.5 202.5,-57.5 202.5,-38.5 145.5,-38.5"/>
<text text-anchor="middle" x="174" y="-45.5" font-family="Helvetica,sans-Serif" font-size="10.00">gravpm.c</text>
</a>
</g>
</g>
<!-- Node2&#45;&gt;Node3 -->
<g id="edge1" class="edge"><title>Node2&#45;&gt;Node3</title>
<path fill="none" stroke="midnightblue" d="M102.319,-37.3418C117.228,-39.5899 132.719,-41.9258 145.385,-43.8359"/>
<polygon fill="midnightblue" stroke="midnightblue" points="102.543,-33.8361 92.133,-35.8058 101.499,-40.7578 102.543,-33.8361"/>
</g>
<!-- Node4 -->
<g id="node3" class="node"><title>Node4</title>
<g id="a_node3"><a xlink:href="powerspectrum_8c.html" target="_top" xlink:title="powerspectrum.c">
<polygon fill="white" stroke="black" points="128,-0.5 128,-19.5 220,-19.5 220,-0.5 128,-0.5"/>
<text text-anchor="middle" x="174" y="-7.5" font-family="Helvetica,sans-Serif" font-size="10.00">powerspectrum.c</text>
</a>
</g>
</g>
<!-- Node2&#45;&gt;Node4 -->
<g id="edge2" class="edge"><title>Node2&#45;&gt;Node4</title>
<path fill="none" stroke="midnightblue" d="M102.074,-20.6952C110.653,-19.4016 119.431,-18.0779 127.759,-16.8221"/>
<polygon fill="midnightblue" stroke="midnightblue" points="101.499,-17.2422 92.133,-22.1942 102.543,-24.1639 101.499,-17.2422"/>
</g>
</g>
</svg>
