<?xml version="1.0" encoding="UTF-8" standalone="no"?>
<!DOCTYPE svg PUBLIC "-//W3C//DTD SVG 1.1//EN"
 "http://www.w3.org/Graphics/SVG/1.1/DTD/svg11.dtd">
<!-- Generated by graphviz version 2.50.0 (0)
 -->
<!-- Title: save_all_transfer_tables Pages: 1 -->
<svg width="720pt" height="75pt"
 viewBox="0.00 0.00 720.00 74.50" xmlns="http://www.w3.org/2000/svg" xmlns:xlink="http://www.w3.org/1999/xlink">
<g id="graph0" class="graph" transform="scale(1 1) rotate(0) translate(4 70.5)">
<title>save_all_transfer_tables</title>
<polygon fill="white" stroke="transparent" points="-4,4 -4,-70.5 716,-70.5 716,4 -4,4"/>
<!-- Node1 -->
<g id="node1" class="node">
<title>Node1</title>
<g id="a_node1"><a xlink:title=" ">
<polygon fill="#bfbfbf" stroke="black" points="0,-19.5 0,-38.5 136,-38.5 136,-19.5 0,-19.5"/>
<text text-anchor="middle" x="68" y="-26.5" font-family="Helvetica,sans-Serif" font-size="10.00">save_all_transfer_tables</text>
</a>
</g>
</g>
<!-- Node2 -->
<g id="node2" class="node">
<title>Node2</title>
<g id="a_node2"><a xlink:href="power_8c.html#ad7c90b4987cfdab1621044e85460b47d" target="_top" xlink:title=" ">
<polygon fill="white" stroke="black" points="172,-19.5 172,-38.5 255,-38.5 255,-19.5 172,-19.5"/>
<text text-anchor="middle" x="213.5" y="-26.5" font-family="Helvetica,sans-Serif" font-size="10.00">save_transfer</text>
</a>
</g>
</g>
<!-- Node1&#45;&gt;Node2 -->
<g id="edge1" class="edge">
<title>Node1&#45;&gt;Node2</title>
<path fill="none" stroke="midnightblue" d="M136.13,-29C144.74,-29 153.45,-29 161.75,-29"/>
<polygon fill="midnightblue" stroke="midnightblue" points="162,-32.5 172,-29 162,-25.5 162,-32.5"/>
</g>
<!-- Node3 -->
<g id="node3" class="node">
<title>Node3</title>
<g id="a_node3"><a xlink:href="proto_8h.html#a4c3daf725f954b7bdbcd0e8cc89de14b" target="_top" xlink:title=" ">
<polygon fill="white" stroke="black" points="291,-36 291,-66 409,-66 409,-36 291,-36"/>
<text text-anchor="start" x="299" y="-54" font-family="Helvetica,sans-Serif" font-size="10.00">_bigfile_utils_create</text>
<text text-anchor="middle" x="350" y="-43" font-family="Helvetica,sans-Serif" font-size="10.00">_block_from_c_array</text>
</a>
</g>
</g>
<!-- Node2&#45;&gt;Node3 -->
<g id="edge2" class="edge">
<title>Node2&#45;&gt;Node3</title>
<path fill="none" stroke="midnightblue" d="M255.22,-35.66C263.22,-36.97 271.82,-38.38 280.45,-39.79"/>
<polygon fill="midnightblue" stroke="midnightblue" points="280.12,-43.28 290.56,-41.44 281.25,-36.37 280.12,-43.28"/>
</g>
<!-- Node4 -->
<g id="node4" class="node">
<title>Node4</title>
<g id="a_node4"><a xlink:href="endrun_8c.html#ad963d7efdb9f10f7a2298c8ccd222ab0" target="_top" xlink:title=" ">
<polygon fill="white" stroke="black" points="445,-19.5 445,-38.5 495,-38.5 495,-19.5 445,-19.5"/>
<text text-anchor="middle" x="470" y="-26.5" font-family="Helvetica,sans-Serif" font-size="10.00">endrun</text>
</a>
</g>
</g>
<!-- Node2&#45;&gt;Node4 -->
<g id="edge7" class="edge">
<title>Node2&#45;&gt;Node4</title>
<path fill="none" stroke="midnightblue" d="M255.38,-27.1C266.9,-26.65 279.44,-26.23 291,-26 343.43,-24.97 356.57,-24.69 409,-26 417.28,-26.21 426.21,-26.57 434.57,-26.98"/>
<polygon fill="midnightblue" stroke="midnightblue" points="434.61,-30.49 444.78,-27.51 434.97,-23.5 434.61,-30.49"/>
</g>
<!-- Node3&#45;&gt;Node4 -->
<g id="edge3" class="edge">
<title>Node3&#45;&gt;Node4</title>
<path fill="none" stroke="midnightblue" d="M409.31,-40.13C418.03,-38.5 426.77,-36.87 434.77,-35.38"/>
<polygon fill="midnightblue" stroke="midnightblue" points="435.6,-38.79 444.79,-33.51 434.32,-31.91 435.6,-38.79"/>
</g>
<!-- Node5 -->
<g id="node5" class="node">
<title>Node5</title>
<g id="a_node5"><a xlink:href="system_8c.html#a341c8d27bd6c7dde856566810b412b1f" target="_top" xlink:title=" ">
<polygon fill="white" stroke="black" points="539,-38.5 539,-57.5 618,-57.5 618,-38.5 539,-38.5"/>
<text text-anchor="middle" x="578.5" y="-45.5" font-family="Helvetica,sans-Serif" font-size="10.00">MPIU_Tracev</text>
</a>
</g>
</g>
<!-- Node4&#45;&gt;Node5 -->
<g id="edge4" class="edge">
<title>Node4&#45;&gt;Node5</title>
<path fill="none" stroke="midnightblue" d="M495.17,-33.31C505.13,-35.09 517.06,-37.22 528.71,-39.3"/>
<polygon fill="midnightblue" stroke="midnightblue" points="528.35,-42.79 538.81,-41.1 529.58,-35.9 528.35,-42.79"/>
</g>
<!-- Node7 -->
<g id="node7" class="node">
<title>Node7</title>
<g id="a_node7"><a xlink:href="endrun_8c.html#a1200f02a595ab7cbe17c9e36ff32af0f" target="_top" xlink:title=" ">
<polygon fill="white" stroke="black" points="531,-0.5 531,-19.5 626,-19.5 626,-0.5 531,-0.5"/>
<text text-anchor="middle" x="578.5" y="-7.5" font-family="Helvetica,sans-Serif" font-size="10.00">show_backtrace</text>
</a>
</g>
</g>
<!-- Node4&#45;&gt;Node7 -->
<g id="edge6" class="edge">
<title>Node4&#45;&gt;Node7</title>
<path fill="none" stroke="midnightblue" d="M495.17,-24.69C502.84,-23.32 511.67,-21.74 520.63,-20.15"/>
<polygon fill="midnightblue" stroke="midnightblue" points="521.53,-23.54 530.76,-18.34 520.3,-16.65 521.53,-23.54"/>
</g>
<!-- Node6 -->
<g id="node6" class="node">
<title>Node6</title>
<g id="a_node6"><a xlink:href="system_8c.html#a87108946670b4c3afbe846c6726675ff" target="_top" xlink:title=" ">
<polygon fill="white" stroke="black" points="662,-38.5 662,-57.5 712,-57.5 712,-38.5 662,-38.5"/>
<text text-anchor="middle" x="687" y="-45.5" font-family="Helvetica,sans-Serif" font-size="10.00">putline</text>
</a>
</g>
</g>
<!-- Node5&#45;&gt;Node6 -->
<g id="edge5" class="edge">
<title>Node5&#45;&gt;Node6</title>
<path fill="none" stroke="midnightblue" d="M618.25,-48C629.22,-48 641.09,-48 651.77,-48"/>
<polygon fill="midnightblue" stroke="midnightblue" points="651.99,-51.5 661.99,-48 651.99,-44.5 651.99,-51.5"/>
</g>
</g>
</svg>
