<?xml version="1.0" encoding="UTF-8" standalone="no"?>
<!DOCTYPE svg PUBLIC "-//W3C//DTD SVG 1.1//EN"
 "http://www.w3.org/Graphics/SVG/1.1/DTD/svg11.dtd">
<!-- Generated by graphviz version 2.38.0 (20140413.2041)
 -->
<!-- Title: dump_snapshot Pages: 1 -->
<svg width="999pt" height="322pt"
 viewBox="0.00 0.00 999.00 322.00" xmlns="http://www.w3.org/2000/svg" xmlns:xlink="http://www.w3.org/1999/xlink">
<g id="graph0" class="graph" transform="scale(1 1) rotate(0) translate(4 318)">
<title>dump_snapshot</title>
<polygon fill="white" stroke="none" points="-4,4 -4,-318 995,-318 995,4 -4,4"/>
<!-- Node443 -->
<g id="node1" class="node"><title>Node443</title>
<polygon fill="#bfbfbf" stroke="black" points="0,-228.5 0,-247.5 86,-247.5 86,-228.5 0,-228.5"/>
<text text-anchor="middle" x="43" y="-235.5" font-family="Helvetica,sans-Serif" font-size="10.00">dump_snapshot</text>
</g>
<!-- Node444 -->
<g id="node2" class="node"><title>Node444</title>
<g id="a_node2"><a xlink:href="petaio_8c.html#a91ff9324adbdc5b2652db62e161042b8" target="_top" xlink:title="petaio_save_snapshot">
<polygon fill="white" stroke="black" points="122,-228.5 122,-247.5 236,-247.5 236,-228.5 122,-228.5"/>
<text text-anchor="middle" x="179" y="-235.5" font-family="Helvetica,sans-Serif" font-size="10.00">petaio_save_snapshot</text>
</a>
</g>
</g>
<!-- Node443&#45;&gt;Node444 -->
<g id="edge1" class="edge"><title>Node443&#45;&gt;Node444</title>
<path fill="none" stroke="midnightblue" d="M86.0308,-238C94.1954,-238 102.937,-238 111.664,-238"/>
<polygon fill="midnightblue" stroke="midnightblue" points="111.867,-241.5 121.867,-238 111.866,-234.5 111.867,-241.5"/>
</g>
<!-- Node445 -->
<g id="node3" class="node"><title>Node445</title>
<g id="a_node3"><a xlink:href="endrun_8c.html#a6567cd867c5549fb6586e19ccd819764" target="_top" xlink:title="message">
<polygon fill="white" stroke="black" points="708.5,-294.5 708.5,-313.5 764.5,-313.5 764.5,-294.5 708.5,-294.5"/>
<text text-anchor="middle" x="736.5" y="-301.5" font-family="Helvetica,sans-Serif" font-size="10.00">message</text>
</a>
</g>
</g>
<!-- Node444&#45;&gt;Node445 -->
<g id="edge2" class="edge"><title>Node444&#45;&gt;Node445</title>
<path fill="none" stroke="midnightblue" d="M222.042,-247.536C268.704,-257.779 346.361,-273.819 414,-283 480.272,-291.995 497.267,-290.58 564,-295 610.238,-298.062 663.546,-300.723 698.296,-302.342"/>
<polygon fill="midnightblue" stroke="midnightblue" points="698.306,-305.846 708.456,-302.81 698.628,-298.853 698.306,-305.846"/>
</g>
<!-- Node449 -->
<g id="node7" class="node"><title>Node449</title>
<g id="a_node7"><a xlink:href="petaio_8c.html#a9b867bd3e997c113f67500b40a7aa593" target="_top" xlink:title="petaio_save_internal">
<polygon fill="white" stroke="black" points="272,-152.5 272,-171.5 378,-171.5 378,-152.5 272,-152.5"/>
<text text-anchor="middle" x="325" y="-159.5" font-family="Helvetica,sans-Serif" font-size="10.00">petaio_save_internal</text>
</a>
</g>
</g>
<!-- Node444&#45;&gt;Node449 -->
<g id="edge6" class="edge"><title>Node444&#45;&gt;Node449</title>
<path fill="none" stroke="midnightblue" d="M198.238,-228.375C223.124,-215.24 267.918,-191.599 296.784,-176.364"/>
<polygon fill="midnightblue" stroke="midnightblue" points="298.7,-179.31 305.91,-171.547 295.433,-173.12 298.7,-179.31"/>
</g>
<!-- Node446 -->
<g id="node4" class="node"><title>Node446</title>
<g id="a_node4"><a xlink:href="endrun_8c.html#a7267113a7c0a094743bb565eabc695d1" target="_top" xlink:title="messagev">
<polygon fill="white" stroke="black" points="805,-246.5 805,-265.5 867,-265.5 867,-246.5 805,-246.5"/>
<text text-anchor="middle" x="836" y="-253.5" font-family="Helvetica,sans-Serif" font-size="10.00">messagev</text>
</a>
</g>
</g>
<!-- Node445&#45;&gt;Node446 -->
<g id="edge3" class="edge"><title>Node445&#45;&gt;Node446</title>
<path fill="none" stroke="midnightblue" d="M757.231,-294.286C771.331,-287.345 790.524,-277.896 806.315,-270.122"/>
<polygon fill="midnightblue" stroke="midnightblue" points="808.206,-273.092 815.632,-265.535 805.114,-266.812 808.206,-273.092"/>
</g>
<!-- Node447 -->
<g id="node5" class="node"><title>Node447</title>
<g id="a_node5"><a xlink:href="endrun_8c.html#a87108946670b4c3afbe846c6726675ff" target="_top" xlink:title="putline">
<polygon fill="white" stroke="black" points="924.5,-265.5 924.5,-284.5 969.5,-284.5 969.5,-265.5 924.5,-265.5"/>
<text text-anchor="middle" x="947" y="-272.5" font-family="Helvetica,sans-Serif" font-size="10.00">putline</text>
</a>
</g>
</g>
<!-- Node446&#45;&gt;Node447 -->
<g id="edge4" class="edge"><title>Node446&#45;&gt;Node447</title>
<path fill="none" stroke="midnightblue" d="M867.073,-261.242C881.677,-263.788 899.231,-266.848 914.072,-269.435"/>
<polygon fill="midnightblue" stroke="midnightblue" points="913.866,-272.951 924.318,-271.221 915.068,-266.055 913.866,-272.951"/>
</g>
<!-- Node448 -->
<g id="node6" class="node"><title>Node448</title>
<g id="a_node6"><a xlink:href="endrun_8c.html#a1200f02a595ab7cbe17c9e36ff32af0f" target="_top" xlink:title="show_backtrace">
<polygon fill="white" stroke="black" points="903,-227.5 903,-246.5 991,-246.5 991,-227.5 903,-227.5"/>
<text text-anchor="middle" x="947" y="-234.5" font-family="Helvetica,sans-Serif" font-size="10.00">show_backtrace</text>
</a>
</g>
</g>
<!-- Node446&#45;&gt;Node448 -->
<g id="edge5" class="edge"><title>Node446&#45;&gt;Node448</title>
<path fill="none" stroke="midnightblue" d="M867.073,-250.758C875.131,-249.353 884.087,-247.792 892.991,-246.24"/>
<polygon fill="midnightblue" stroke="midnightblue" points="893.719,-249.666 902.969,-244.501 892.517,-242.77 893.719,-249.666"/>
</g>
<!-- Node450 -->
<g id="node8" class="node"><title>Node450</title>
<g id="a_node8"><a xlink:href="endrun_8c.html#ad963d7efdb9f10f7a2298c8ccd222ab0" target="_top" xlink:title="endrun">
<polygon fill="white" stroke="black" points="713.5,-199.5 713.5,-218.5 759.5,-218.5 759.5,-199.5 713.5,-199.5"/>
<text text-anchor="middle" x="736.5" y="-206.5" font-family="Helvetica,sans-Serif" font-size="10.00">endrun</text>
</a>
</g>
</g>
<!-- Node449&#45;&gt;Node450 -->
<g id="edge7" class="edge"><title>Node449&#45;&gt;Node450</title>
<path fill="none" stroke="midnightblue" d="M365.231,-171.576C380.39,-174.984 397.927,-178.575 414,-181 519.09,-196.857 644.964,-204.588 703.118,-207.529"/>
<polygon fill="midnightblue" stroke="midnightblue" points="703.009,-211.028 713.169,-208.023 703.353,-204.036 703.009,-211.028"/>
</g>
<!-- Node451 -->
<g id="node9" class="node"><title>Node451</title>
<g id="a_node9"><a xlink:href="petaio_8c.html#a5423c5b1a1f1616ef293b2aaa5eb43ea" target="_top" xlink:title="petaio_build_buffer">
<polygon fill="white" stroke="black" points="422,-152.5 422,-171.5 520,-171.5 520,-152.5 422,-152.5"/>
<text text-anchor="middle" x="471" y="-159.5" font-family="Helvetica,sans-Serif" font-size="10.00">petaio_build_buffer</text>
</a>
</g>
</g>
<!-- Node449&#45;&gt;Node451 -->
<g id="edge9" class="edge"><title>Node449&#45;&gt;Node451</title>
<path fill="none" stroke="midnightblue" d="M378.395,-162C389.12,-162 400.474,-162 411.401,-162"/>
<polygon fill="midnightblue" stroke="midnightblue" points="411.712,-165.5 421.712,-162 411.712,-158.5 411.712,-165.5"/>
</g>
<!-- Node453 -->
<g id="node11" class="node"><title>Node453</title>
<g id="a_node11"><a xlink:href="petaio_8c.html#ad13d20d78ff834f5005e68ad11d228e3" target="_top" xlink:title="petaio_build_selection">
<polygon fill="white" stroke="black" points="414.5,-76.5 414.5,-95.5 527.5,-95.5 527.5,-76.5 414.5,-76.5"/>
<text text-anchor="middle" x="471" y="-83.5" font-family="Helvetica,sans-Serif" font-size="10.00">petaio_build_selection</text>
</a>
</g>
</g>
<!-- Node449&#45;&gt;Node453 -->
<g id="edge12" class="edge"><title>Node449&#45;&gt;Node453</title>
<path fill="none" stroke="midnightblue" d="M340.929,-152.375C358.173,-141.448 387.569,-123.403 414,-110 421.164,-106.367 429.005,-102.778 436.492,-99.526"/>
<polygon fill="midnightblue" stroke="midnightblue" points="437.873,-102.742 445.707,-95.6092 435.135,-96.2998 437.873,-102.742"/>
</g>
<!-- Node454 -->
<g id="node12" class="node"><title>Node454</title>
<g id="a_node12"><a xlink:href="petaio_8c.html#a00bc8b1ba2ab1de94d983b08b14580c7" target="_top" xlink:title="petaio_destroy_buffer">
<polygon fill="white" stroke="black" points="416,-38.5 416,-57.5 526,-57.5 526,-38.5 416,-38.5"/>
<text text-anchor="middle" x="471" y="-45.5" font-family="Helvetica,sans-Serif" font-size="10.00">petaio_destroy_buffer</text>
</a>
</g>
</g>
<!-- Node449&#45;&gt;Node454 -->
<g id="edge13" class="edge"><title>Node449&#45;&gt;Node454</title>
<path fill="none" stroke="midnightblue" d="M332.343,-152.452C345.413,-133.489 377.219,-90.8549 414,-67 417.112,-64.9819 420.46,-63.155 423.917,-61.5055"/>
<polygon fill="midnightblue" stroke="midnightblue" points="425.398,-64.6789 433.231,-57.5443 422.659,-58.2373 425.398,-64.6789"/>
</g>
<!-- Node455 -->
<g id="node13" class="node"><title>Node455</title>
<g id="a_node13"><a xlink:href="petaio_8c.html#a8d4abd78b70e4a1dfbed5db05cd89073" target="_top" xlink:title="petaio_save_block">
<polygon fill="white" stroke="black" points="567,-266.5 567,-285.5 665,-285.5 665,-266.5 567,-266.5"/>
<text text-anchor="middle" x="616" y="-273.5" font-family="Helvetica,sans-Serif" font-size="10.00">petaio_save_block</text>
</a>
</g>
</g>
<!-- Node449&#45;&gt;Node455 -->
<g id="edge14" class="edge"><title>Node449&#45;&gt;Node455</title>
<path fill="none" stroke="midnightblue" d="M331.541,-171.686C343.586,-191.699 374.294,-237.38 414,-257 458.417,-278.948 515.061,-282.451 556.889,-281.188"/>
<polygon fill="midnightblue" stroke="midnightblue" points="557.067,-284.683 566.918,-280.785 556.786,-277.689 557.067,-284.683"/>
</g>
<!-- Node457 -->
<g id="node15" class="node"><title>Node457</title>
<g id="a_node15"><a xlink:href="petaio_8c.html#a37682bda41c11127b2cdfb6ec3d21022" target="_top" xlink:title="petaio_save_neutrinos">
<polygon fill="white" stroke="black" points="414,-228.5 414,-247.5 528,-247.5 528,-228.5 414,-228.5"/>
<text text-anchor="middle" x="471" y="-235.5" font-family="Helvetica,sans-Serif" font-size="10.00">petaio_save_neutrinos</text>
</a>
</g>
</g>
<!-- Node449&#45;&gt;Node457 -->
<g id="edge18" class="edge"><title>Node449&#45;&gt;Node457</title>
<path fill="none" stroke="midnightblue" d="M340.929,-171.625C358.173,-182.552 387.569,-200.597 414,-214 421.164,-217.633 429.005,-221.222 436.492,-224.474"/>
<polygon fill="midnightblue" stroke="midnightblue" points="435.135,-227.7 445.707,-228.391 437.873,-221.258 435.135,-227.7"/>
</g>
<!-- Node458 -->
<g id="node16" class="node"><title>Node458</title>
<g id="a_node16"><a xlink:href="petaio_8c.html#abd41baa0f76d18fe2abbadb99ba1ffe9" target="_top" xlink:title="petaio_write_header">
<polygon fill="white" stroke="black" points="564,-76.5 564,-95.5 668,-95.5 668,-76.5 564,-76.5"/>
<text text-anchor="middle" x="616" y="-83.5" font-family="Helvetica,sans-Serif" font-size="10.00">petaio_write_header</text>
</a>
</g>
</g>
<!-- Node449&#45;&gt;Node458 -->
<g id="edge21" class="edge"><title>Node449&#45;&gt;Node458</title>
<path fill="none" stroke="midnightblue" d="M362.309,-152.452C414.652,-138.687 511.312,-113.267 568.715,-98.1719"/>
<polygon fill="midnightblue" stroke="midnightblue" points="569.831,-101.497 578.612,-95.5692 568.05,-94.7277 569.831,-101.497"/>
</g>
<!-- Node459 -->
<g id="node17" class="node"><title>Node459</title>
<g id="a_node17"><a xlink:href="system_8c.html#a866c4b0425665030c89933c11752b1fe" target="_top" xlink:title="sumup_large_ints">
<polygon fill="white" stroke="black" points="424.5,-0.5 424.5,-19.5 517.5,-19.5 517.5,-0.5 424.5,-0.5"/>
<text text-anchor="middle" x="471" y="-7.5" font-family="Helvetica,sans-Serif" font-size="10.00">sumup_large_ints</text>
</a>
</g>
</g>
<!-- Node449&#45;&gt;Node459 -->
<g id="edge23" class="edge"><title>Node449&#45;&gt;Node459</title>
<path fill="none" stroke="midnightblue" d="M329.734,-152.393C339.659,-128.092 369.046,-63.6507 414,-29 416.442,-27.1177 419.082,-25.4156 421.839,-23.8773"/>
<polygon fill="midnightblue" stroke="midnightblue" points="423.45,-26.9864 430.949,-19.5016 420.419,-20.6765 423.45,-26.9864"/>
</g>
<!-- Node450&#45;&gt;Node446 -->
<g id="edge8" class="edge"><title>Node450&#45;&gt;Node446</title>
<path fill="none" stroke="midnightblue" d="M757.231,-218.511C771.147,-225.219 790.023,-234.319 805.694,-241.873"/>
<polygon fill="midnightblue" stroke="midnightblue" points="804.436,-245.152 814.964,-246.342 807.476,-238.846 804.436,-245.152"/>
</g>
<!-- Node451&#45;&gt;Node450 -->
<g id="edge10" class="edge"><title>Node451&#45;&gt;Node450</title>
<path fill="none" stroke="midnightblue" d="M520.004,-165.097C559.981,-168.338 618.209,-174.598 668,-186 679.827,-188.708 692.49,-192.714 703.617,-196.626"/>
<polygon fill="midnightblue" stroke="midnightblue" points="702.741,-200.031 713.335,-200.153 705.129,-193.451 702.741,-200.031"/>
</g>
<!-- Node452 -->
<g id="node10" class="node"><title>Node452</title>
<g id="a_node10"><a xlink:href="petaio_8c.html#aafe1fe998e7ca93a780ad69be4d061dc" target="_top" xlink:title="petaio_alloc_buffer">
<polygon fill="white" stroke="black" points="567,-114.5 567,-133.5 665,-133.5 665,-114.5 567,-114.5"/>
<text text-anchor="middle" x="616" y="-121.5" font-family="Helvetica,sans-Serif" font-size="10.00">petaio_alloc_buffer</text>
</a>
</g>
</g>
<!-- Node451&#45;&gt;Node452 -->
<g id="edge11" class="edge"><title>Node451&#45;&gt;Node452</title>
<path fill="none" stroke="midnightblue" d="M508.085,-152.411C526.63,-147.483 549.426,-141.425 569.199,-136.171"/>
<polygon fill="midnightblue" stroke="midnightblue" points="570.161,-139.537 578.927,-133.586 568.363,-132.772 570.161,-139.537"/>
</g>
<!-- Node455&#45;&gt;Node445 -->
<g id="edge17" class="edge"><title>Node455&#45;&gt;Node445</title>
<path fill="none" stroke="midnightblue" d="M657.45,-285.558C670.676,-288.683 685.296,-292.138 698.274,-295.204"/>
<polygon fill="midnightblue" stroke="midnightblue" points="697.734,-298.673 708.271,-297.566 699.344,-291.86 697.734,-298.673"/>
</g>
<!-- Node455&#45;&gt;Node450 -->
<g id="edge16" class="edge"><title>Node455&#45;&gt;Node450</title>
<path fill="none" stroke="midnightblue" d="M638.895,-266.439C648.025,-262.262 658.658,-257.147 668,-252 683.375,-243.53 700.014,-232.948 712.925,-224.4"/>
<polygon fill="midnightblue" stroke="midnightblue" points="715.233,-227.067 721.596,-218.596 711.339,-221.25 715.233,-227.067"/>
</g>
<!-- Node456 -->
<g id="node14" class="node"><title>Node456</title>
<g id="a_node14"><a xlink:href="system_8c.html#a1d471d98379273269e8045d2998eca73" target="_top" xlink:title="count_sum">
<polygon fill="white" stroke="black" points="704,-256.5 704,-275.5 769,-275.5 769,-256.5 704,-256.5"/>
<text text-anchor="middle" x="736.5" y="-263.5" font-family="Helvetica,sans-Serif" font-size="10.00">count_sum</text>
</a>
</g>
</g>
<!-- Node455&#45;&gt;Node456 -->
<g id="edge15" class="edge"><title>Node455&#45;&gt;Node456</title>
<path fill="none" stroke="midnightblue" d="M665.198,-271.933C674.696,-271.131 684.586,-270.297 693.846,-269.515"/>
<polygon fill="midnightblue" stroke="midnightblue" points="694.307,-272.989 703.978,-268.66 693.719,-266.013 694.307,-272.989"/>
</g>
<!-- Node457&#45;&gt;Node450 -->
<g id="edge19" class="edge"><title>Node457&#45;&gt;Node450</title>
<path fill="none" stroke="midnightblue" d="M528.204,-231.814C581.544,-225.944 659.836,-217.327 703.343,-212.539"/>
<polygon fill="midnightblue" stroke="midnightblue" points="703.804,-216.01 713.361,-211.437 703.038,-209.052 703.804,-216.01"/>
</g>
<!-- Node457&#45;&gt;Node455 -->
<g id="edge20" class="edge"><title>Node457&#45;&gt;Node455</title>
<path fill="none" stroke="midnightblue" d="M508.085,-247.589C526.63,-252.517 549.426,-258.575 569.199,-263.829"/>
<polygon fill="midnightblue" stroke="midnightblue" points="568.363,-267.228 578.927,-266.414 570.161,-260.463 568.363,-267.228"/>
</g>
<!-- Node458&#45;&gt;Node450 -->
<g id="edge22" class="edge"><title>Node458&#45;&gt;Node450</title>
<path fill="none" stroke="midnightblue" d="M651.804,-95.5313C657.562,-98.0421 663.208,-101.158 668,-105 696.689,-128.004 717.148,-166.619 727.585,-189.766"/>
<polygon fill="midnightblue" stroke="midnightblue" points="724.484,-191.414 731.668,-199.201 730.908,-188.634 724.484,-191.414"/>
</g>
</g>
</svg>
