<?xml version="1.0" encoding="UTF-8" standalone="no"?>
<!DOCTYPE svg PUBLIC "-//W3C//DTD SVG 1.1//EN"
 "http://www.w3.org/Graphics/SVG/1.1/DTD/svg11.dtd">
<!-- Generated by graphviz version 2.38.0 (20140413.2041)
 -->
<!-- Title: proto.h Pages: 1 -->
<svg width="192pt" height="408pt"
 viewBox="0.00 0.00 192.00 408.00" xmlns="http://www.w3.org/2000/svg" xmlns:xlink="http://www.w3.org/1999/xlink">
<g id="graph0" class="graph" transform="scale(1 1) rotate(0) translate(4 404)">
<title>proto.h</title>
<polygon fill="white" stroke="none" points="-4,4 -4,-404 188,-404 188,4 -4,4"/>
<!-- Node1 -->
<g id="node1" class="node"><title>Node1</title>
<polygon fill="#bfbfbf" stroke="black" points="0,-190.5 0,-209.5 47,-209.5 47,-190.5 0,-190.5"/>
<text text-anchor="middle" x="23.5" y="-197.5" font-family="Helvetica,sans-Serif" font-size="10.00">proto.h</text>
</g>
<!-- Node2 -->
<g id="node2" class="node"><title>Node2</title>
<g id="a_node2"><a xlink:href="begrun_8c.html" target="_top" xlink:title="initial set&#45;up of a simulation run ">
<polygon fill="white" stroke="black" points="106.5,-380.5 106.5,-399.5 160.5,-399.5 160.5,-380.5 106.5,-380.5"/>
<text text-anchor="middle" x="133.5" y="-387.5" font-family="Helvetica,sans-Serif" font-size="10.00">begrun.c</text>
</a>
</g>
</g>
<!-- Node1&#45;&gt;Node2 -->
<g id="edge1" class="edge"><title>Node1&#45;&gt;Node2</title>
<path fill="none" stroke="midnightblue" d="M25.9349,-219.916C29.4994,-255.005 41.7232,-328.172 83,-371 89.2601,-377.495 97.9813,-381.802 106.362,-384.644"/>
<polygon fill="midnightblue" stroke="midnightblue" points="29.3883,-219.231 25.0285,-209.575 22.4151,-219.842 29.3883,-219.231"/>
</g>
<!-- Node3 -->
<g id="node3" class="node"><title>Node3</title>
<g id="a_node3"><a xlink:href="forcetree_8c.html" target="_top" xlink:title="gravitational tree and code for Ewald correction ">
<polygon fill="white" stroke="black" points="102,-342.5 102,-361.5 165,-361.5 165,-342.5 102,-342.5"/>
<text text-anchor="middle" x="133.5" y="-349.5" font-family="Helvetica,sans-Serif" font-size="10.00">forcetree.c</text>
</a>
</g>
</g>
<!-- Node1&#45;&gt;Node3 -->
<g id="edge2" class="edge"><title>Node1&#45;&gt;Node3</title>
<path fill="none" stroke="midnightblue" d="M28.2066,-219.878C34.5482,-248.59 50.117,-301.655 83,-333 88.2637,-338.018 94.9926,-341.748 101.781,-344.507"/>
<polygon fill="midnightblue" stroke="midnightblue" points="31.5857,-218.933 26.15,-209.838 24.7281,-220.337 31.5857,-218.933"/>
</g>
<!-- Node4 -->
<g id="node4" class="node"><title>Node4</title>
<g id="a_node4"><a xlink:href="gravshort-tree-old_8c.html" target="_top" xlink:title="gravshort&#45;tree&#45;old.c">
<polygon fill="white" stroke="black" points="83,-304.5 83,-323.5 184,-323.5 184,-304.5 83,-304.5"/>
<text text-anchor="middle" x="133.5" y="-311.5" font-family="Helvetica,sans-Serif" font-size="10.00">gravshort&#45;tree&#45;old.c</text>
</a>
</g>
</g>
<!-- Node1&#45;&gt;Node4 -->
<g id="edge3" class="edge"><title>Node1&#45;&gt;Node4</title>
<path fill="none" stroke="midnightblue" d="M31.7995,-219.043C40.8354,-240.285 58.1352,-274.366 83,-295 87.6044,-298.821 93.0618,-301.926 98.6422,-304.433"/>
<polygon fill="midnightblue" stroke="midnightblue" points="34.9323,-217.454 27.9307,-209.503 28.4454,-220.085 34.9323,-217.454"/>
</g>
<!-- Node5 -->
<g id="node5" class="node"><title>Node5</title>
<g id="a_node5"><a xlink:href="init_8c.html" target="_top" xlink:title="code for initialisation of a simulation from initial conditions ">
<polygon fill="white" stroke="black" points="114.5,-266.5 114.5,-285.5 152.5,-285.5 152.5,-266.5 114.5,-266.5"/>
<text text-anchor="middle" x="133.5" y="-273.5" font-family="Helvetica,sans-Serif" font-size="10.00">init.c</text>
</a>
</g>
</g>
<!-- Node1&#45;&gt;Node5 -->
<g id="edge4" class="edge"><title>Node1&#45;&gt;Node5</title>
<path fill="none" stroke="midnightblue" d="M39.0274,-217.548C50.0395,-229.937 66.1163,-246.191 83,-257 92.6131,-263.154 104.527,-267.804 114.258,-270.964"/>
<polygon fill="midnightblue" stroke="midnightblue" points="41.4453,-214.993 32.2652,-209.703 36.1433,-219.563 41.4453,-214.993"/>
</g>
<!-- Node6 -->
<g id="node6" class="node"><title>Node6</title>
<g id="a_node6"><a xlink:href="integraltable_8c.html" target="_top" xlink:title="integraltable.c">
<polygon fill="white" stroke="black" points="95,-228.5 95,-247.5 172,-247.5 172,-228.5 95,-228.5"/>
<text text-anchor="middle" x="133.5" y="-235.5" font-family="Helvetica,sans-Serif" font-size="10.00">integraltable.c</text>
</a>
</g>
</g>
<!-- Node1&#45;&gt;Node6 -->
<g id="edge5" class="edge"><title>Node1&#45;&gt;Node6</title>
<path fill="none" stroke="midnightblue" d="M56.8199,-211.372C72.2744,-216.809 90.5697,-223.247 105.3,-228.43"/>
<polygon fill="midnightblue" stroke="midnightblue" points="57.7352,-207.984 47.1403,-207.966 55.4118,-214.587 57.7352,-207.984"/>
</g>
<!-- Node7 -->
<g id="node7" class="node"><title>Node7</title>
<g id="a_node7"><a xlink:href="lightcone_8c.html" target="_top" xlink:title="lightcone.c">
<polygon fill="white" stroke="black" points="101.5,-190.5 101.5,-209.5 165.5,-209.5 165.5,-190.5 101.5,-190.5"/>
<text text-anchor="middle" x="133.5" y="-197.5" font-family="Helvetica,sans-Serif" font-size="10.00">lightcone.c</text>
</a>
</g>
</g>
<!-- Node1&#45;&gt;Node7 -->
<g id="edge6" class="edge"><title>Node1&#45;&gt;Node7</title>
<path fill="none" stroke="midnightblue" d="M57.3075,-200C71.2777,-200 87.497,-200 101.288,-200"/>
<polygon fill="midnightblue" stroke="midnightblue" points="57.1404,-196.5 47.1403,-200 57.1403,-203.5 57.1404,-196.5"/>
</g>
<!-- Node8 -->
<g id="node8" class="node"><title>Node8</title>
<g id="a_node8"><a xlink:href="main_8c.html" target="_top" xlink:title="start of the program ">
<polygon fill="white" stroke="black" points="110.5,-152.5 110.5,-171.5 156.5,-171.5 156.5,-152.5 110.5,-152.5"/>
<text text-anchor="middle" x="133.5" y="-159.5" font-family="Helvetica,sans-Serif" font-size="10.00">main.c</text>
</a>
</g>
</g>
<!-- Node1&#45;&gt;Node8 -->
<g id="edge7" class="edge"><title>Node1&#45;&gt;Node8</title>
<path fill="none" stroke="midnightblue" d="M56.8167,-188.629C74.0595,-182.562 94.8394,-175.251 110.259,-169.825"/>
<polygon fill="midnightblue" stroke="midnightblue" points="55.4118,-185.413 47.1403,-192.034 57.7352,-192.016 55.4118,-185.413"/>
</g>
<!-- Node9 -->
<g id="node9" class="node"><title>Node9</title>
<g id="a_node9"><a xlink:href="petaio_8c.html" target="_top" xlink:title="petaio.c">
<polygon fill="white" stroke="black" points="108,-114.5 108,-133.5 159,-133.5 159,-114.5 108,-114.5"/>
<text text-anchor="middle" x="133.5" y="-121.5" font-family="Helvetica,sans-Serif" font-size="10.00">petaio.c</text>
</a>
</g>
</g>
<!-- Node1&#45;&gt;Node9 -->
<g id="edge8" class="edge"><title>Node1&#45;&gt;Node9</title>
<path fill="none" stroke="midnightblue" d="M39.0274,-182.452C50.0395,-170.063 66.1163,-153.809 83,-143 90.5974,-138.136 99.6321,-134.212 107.89,-131.22"/>
<polygon fill="midnightblue" stroke="midnightblue" points="36.1433,-180.437 32.2652,-190.297 41.4453,-185.007 36.1433,-180.437"/>
</g>
<!-- Node10 -->
<g id="node10" class="node"><title>Node10</title>
<g id="a_node10"><a xlink:href="run_8c.html" target="_top" xlink:title="iterates over timesteps, main loop ">
<polygon fill="white" stroke="black" points="114.5,-76.5 114.5,-95.5 152.5,-95.5 152.5,-76.5 114.5,-76.5"/>
<text text-anchor="middle" x="133.5" y="-83.5" font-family="Helvetica,sans-Serif" font-size="10.00">run.c</text>
</a>
</g>
</g>
<!-- Node1&#45;&gt;Node10 -->
<g id="edge9" class="edge"><title>Node1&#45;&gt;Node10</title>
<path fill="none" stroke="midnightblue" d="M31.7995,-180.957C40.8354,-159.715 58.1352,-125.634 83,-105 91.9255,-97.5933 104.056,-92.8749 114.075,-89.9927"/>
<polygon fill="midnightblue" stroke="midnightblue" points="28.4454,-179.915 27.9307,-190.497 34.9323,-182.546 28.4454,-179.915"/>
</g>
<!-- Node11 -->
<g id="node11" class="node"><title>Node11</title>
<g id="a_node11"><a xlink:href="runtests_8c.html" target="_top" xlink:title="runtests.c">
<polygon fill="white" stroke="black" points="103.5,-38.5 103.5,-57.5 163.5,-57.5 163.5,-38.5 103.5,-38.5"/>
<text text-anchor="middle" x="133.5" y="-45.5" font-family="Helvetica,sans-Serif" font-size="10.00">runtests.c</text>
</a>
</g>
</g>
<!-- Node1&#45;&gt;Node11 -->
<g id="edge10" class="edge"><title>Node1&#45;&gt;Node11</title>
<path fill="none" stroke="midnightblue" d="M28.2066,-180.122C34.5482,-151.41 50.117,-98.3449 83,-67 88.6635,-61.6014 96.0232,-57.6932 103.328,-54.8808"/>
<polygon fill="midnightblue" stroke="midnightblue" points="24.7281,-179.663 26.15,-190.162 31.5857,-181.067 24.7281,-179.663"/>
</g>
<!-- Node12 -->
<g id="node12" class="node"><title>Node12</title>
<g id="a_node12"><a xlink:href="timestep_8c.html" target="_top" xlink:title="routines for &#39;kicking&#39; particles in momentum space and assigning new timesteps ">
<polygon fill="white" stroke="black" points="102.5,-0.5 102.5,-19.5 164.5,-19.5 164.5,-0.5 102.5,-0.5"/>
<text text-anchor="middle" x="133.5" y="-7.5" font-family="Helvetica,sans-Serif" font-size="10.00">timestep.c</text>
</a>
</g>
</g>
<!-- Node1&#45;&gt;Node12 -->
<g id="edge11" class="edge"><title>Node1&#45;&gt;Node12</title>
<path fill="none" stroke="midnightblue" d="M25.9349,-180.084C29.4994,-144.995 41.7232,-71.8276 83,-29 88.3019,-23.4989 95.3692,-19.5677 102.5,-16.7666"/>
<polygon fill="midnightblue" stroke="midnightblue" points="22.4151,-180.158 25.0285,-190.425 29.3883,-180.769 22.4151,-180.158"/>
</g>
</g>
</svg>
