<?xml version="1.0" encoding="UTF-8" standalone="no"?>
<!DOCTYPE svg PUBLIC "-//W3C//DTD SVG 1.1//EN"
 "http://www.w3.org/Graphics/SVG/1.1/DTD/svg11.dtd">
<!-- Generated by graphviz version 2.50.0 (0)
 -->
<!-- Title: libgadget/run.h Pages: 1 -->
<svg width="449pt" height="84pt"
 viewBox="0.00 0.00 448.50 84.00" xmlns="http://www.w3.org/2000/svg" xmlns:xlink="http://www.w3.org/1999/xlink">
<g id="graph0" class="graph" transform="scale(1 1) rotate(0) translate(4 80)">
<title>libgadget/run.h</title>
<polygon fill="white" stroke="transparent" points="-4,4 -4,-80 444.5,-80 444.5,4 -4,4"/>
<!-- Node1 -->
<g id="node1" class="node">
<title>Node1</title>
<g id="a_node1"><a xlink:title=" ">
<polygon fill="#bfbfbf" stroke="black" points="177.5,-56.5 177.5,-75.5 267.5,-75.5 267.5,-56.5 177.5,-56.5"/>
<text text-anchor="middle" x="222.5" y="-63.5" font-family="Helvetica,sans-Serif" font-size="10.00">libgadget/run.h</text>
</a>
</g>
</g>
<!-- Node2 -->
<g id="node2" class="node">
<title>Node2</title>
<g id="a_node2"><a xlink:href="run_8c.html" target="_top" xlink:title="iterates over timesteps, main loop">
<polygon fill="white" stroke="black" points="0,-0.5 0,-19.5 89,-19.5 89,-0.5 0,-0.5"/>
<text text-anchor="middle" x="44.5" y="-7.5" font-family="Helvetica,sans-Serif" font-size="10.00">libgadget/run.c</text>
</a>
</g>
</g>
<!-- Node1&#45;&gt;Node2 -->
<g id="edge1" class="edge">
<title>Node1&#45;&gt;Node2</title>
<path fill="none" stroke="midnightblue" d="M184.38,-53.44C150.82,-43.26 102.73,-28.66 72.57,-19.52"/>
<polygon fill="midnightblue" stroke="midnightblue" points="183.71,-56.89 194.3,-56.44 185.74,-50.19 183.71,-56.89"/>
</g>
<!-- Node3 -->
<g id="node3" class="node">
<title>Node3</title>
<g id="a_node3"><a xlink:href="runtests_8c.html" target="_top" xlink:title=" ">
<polygon fill="white" stroke="black" points="107,-0.5 107,-19.5 220,-19.5 220,-0.5 107,-0.5"/>
<text text-anchor="middle" x="163.5" y="-7.5" font-family="Helvetica,sans-Serif" font-size="10.00">libgadget/runtests.c</text>
</a>
</g>
</g>
<!-- Node1&#45;&gt;Node3 -->
<g id="edge2" class="edge">
<title>Node1&#45;&gt;Node3</title>
<path fill="none" stroke="midnightblue" d="M205.61,-49.54C195.09,-39.91 181.93,-27.87 173.15,-19.83"/>
<polygon fill="midnightblue" stroke="midnightblue" points="203.28,-52.15 213.02,-56.32 208.01,-46.99 203.28,-52.15"/>
</g>
<!-- Node4 -->
<g id="node4" class="node">
<title>Node4</title>
<g id="a_node4"><a xlink:href="gadget_2main_8c.html" target="_top" xlink:title="start of the program">
<polygon fill="white" stroke="black" points="238.5,-0.5 238.5,-19.5 324.5,-19.5 324.5,-0.5 238.5,-0.5"/>
<text text-anchor="middle" x="281.5" y="-7.5" font-family="Helvetica,sans-Serif" font-size="10.00">gadget/main.c</text>
</a>
</g>
</g>
<!-- Node1&#45;&gt;Node4 -->
<g id="edge3" class="edge">
<title>Node1&#45;&gt;Node4</title>
<path fill="none" stroke="midnightblue" d="M239.39,-49.54C249.91,-39.91 263.07,-27.87 271.85,-19.83"/>
<polygon fill="midnightblue" stroke="midnightblue" points="236.99,-46.99 231.98,-56.32 241.72,-52.15 236.99,-46.99"/>
</g>
<!-- Node5 -->
<g id="node5" class="node">
<title>Node5</title>
<g id="a_node5"><a xlink:href="gadget_2params_8c.html" target="_top" xlink:title=" ">
<polygon fill="white" stroke="black" points="342.5,-0.5 342.5,-19.5 440.5,-19.5 440.5,-0.5 342.5,-0.5"/>
<text text-anchor="middle" x="391.5" y="-7.5" font-family="Helvetica,sans-Serif" font-size="10.00">gadget/params.c</text>
</a>
</g>
</g>
<!-- Node1&#45;&gt;Node5 -->
<g id="edge4" class="edge">
<title>Node1&#45;&gt;Node5</title>
<path fill="none" stroke="midnightblue" d="M259.1,-53.3C290.95,-43.13 336.34,-28.62 364.85,-19.52"/>
<polygon fill="midnightblue" stroke="midnightblue" points="257.74,-50.07 249.28,-56.44 259.87,-56.73 257.74,-50.07"/>
</g>
</g>
</svg>
