<?xml version="1.0" encoding="UTF-8" standalone="no"?>
<!DOCTYPE svg PUBLIC "-//W3C//DTD SVG 1.1//EN"
 "http://www.w3.org/Graphics/SVG/1.1/DTD/svg11.dtd">
<!-- Generated by graphviz version 2.38.0 (20140413.2041)
 -->
<!-- Title: cool_postprocess Pages: 1 -->
<svg width="1296pt" height="798pt"
 viewBox="0.00 0.00 1296.00 798.00" xmlns="http://www.w3.org/2000/svg" xmlns:xlink="http://www.w3.org/1999/xlink">
<g id="graph0" class="graph" transform="scale(1 1) rotate(0) translate(4 794)">
<title>cool_postprocess</title>
<polygon fill="white" stroke="none" points="-4,4 -4,-794 1292,-794 1292,4 -4,4"/>
<!-- Node0 -->
<g id="node1" class="node"><title>Node0</title>
<polygon fill="#bfbfbf" stroke="black" points="0,-304.5 0,-323.5 93,-323.5 93,-304.5 0,-304.5"/>
<text text-anchor="middle" x="46.5" y="-311.5" font-family="Helvetica,sans-Serif" font-size="10.00">cool_postprocess</text>
</g>
<!-- Node1 -->
<g id="node2" class="node"><title>Node1</title>
<g id="a_node2"><a xlink:href="sfr__eff_8c.html#a2d96bcfa1a035956535e5840d306744b" target="_top" xlink:title="cooling_direct">
<polygon fill="white" stroke="black" points="129,-304.5 129,-323.5 206,-323.5 206,-304.5 129,-304.5"/>
<text text-anchor="middle" x="167.5" y="-311.5" font-family="Helvetica,sans-Serif" font-size="10.00">cooling_direct</text>
</a>
</g>
</g>
<!-- Node0&#45;&gt;Node1 -->
<g id="edge1" class="edge"><title>Node0&#45;&gt;Node1</title>
<path fill="none" stroke="midnightblue" d="M93.1682,-314C101.556,-314 110.332,-314 118.778,-314"/>
<polygon fill="midnightblue" stroke="midnightblue" points="118.868,-317.5 128.868,-314 118.868,-310.5 118.868,-317.5"/>
</g>
<!-- Node2 -->
<g id="node3" class="node"><title>Node2</title>
<g id="a_node3"><a xlink:href="timebinmgr_8c.html#a72fa098187974a52cb5010bbddc7704d" target="_top" xlink:title="get_dloga_for_bin">
<polygon fill="white" stroke="black" points="252.5,-770.5 252.5,-789.5 345.5,-789.5 345.5,-770.5 252.5,-770.5"/>
<text text-anchor="middle" x="299" y="-777.5" font-family="Helvetica,sans-Serif" font-size="10.00">get_dloga_for_bin</text>
</a>
</g>
</g>
<!-- Node1&#45;&gt;Node2 -->
<g id="edge2" class="edge"><title>Node1&#45;&gt;Node2</title>
<path fill="none" stroke="midnightblue" d="M168.879,-323.8C171.321,-382.308 186.535,-685.317 242,-756 244.869,-759.656 248.403,-762.764 252.289,-765.405"/>
<polygon fill="midnightblue" stroke="midnightblue" points="250.81,-768.589 261.237,-770.47 254.258,-762.498 250.81,-768.589"/>
</g>
<!-- Node4 -->
<g id="node5" class="node"><title>Node4</title>
<g id="a_node5"><a xlink:href="allvars_8h.html#a320153e129e2fe4833e5b43935499d3e" target="_top" xlink:title="DMAX">
<polygon fill="white" stroke="black" points="737.5,-618.5 737.5,-637.5 783.5,-637.5 783.5,-618.5 737.5,-618.5"/>
<text text-anchor="middle" x="760.5" y="-625.5" font-family="Helvetica,sans-Serif" font-size="10.00">DMAX</text>
</a>
</g>
</g>
<!-- Node1&#45;&gt;Node4 -->
<g id="edge4" class="edge"><title>Node1&#45;&gt;Node4</title>
<path fill="none" stroke="midnightblue" d="M169.757,-323.833C174.025,-353.054 190.676,-440.115 242,-485 387.992,-612.675 638.531,-627.274 727.226,-628.265"/>
<polygon fill="midnightblue" stroke="midnightblue" points="727.44,-631.767 737.46,-628.326 727.481,-624.767 727.44,-631.767"/>
</g>
<!-- Node5 -->
<g id="node6" class="node"><title>Node5</title>
<g id="a_node6"><a xlink:href="endrun_8c.html#ad963d7efdb9f10f7a2298c8ccd222ab0" target="_top" xlink:title="endrun">
<polygon fill="white" stroke="black" points="1009.5,-323.5 1009.5,-342.5 1055.5,-342.5 1055.5,-323.5 1009.5,-323.5"/>
<text text-anchor="middle" x="1032.5" y="-330.5" font-family="Helvetica,sans-Serif" font-size="10.00">endrun</text>
</a>
</g>
</g>
<!-- Node1&#45;&gt;Node5 -->
<g id="edge5" class="edge"><title>Node1&#45;&gt;Node5</title>
<path fill="none" stroke="midnightblue" d="M172.672,-304.334C181.869,-284.356 205.974,-238.741 242,-219 324.185,-173.966 358.285,-200 452,-200 452,-200 452,-200 761.5,-200 856.161,-200 881.842,-220.276 963,-269 983.996,-281.605 1003.98,-301.503 1016.88,-315.765"/>
<polygon fill="midnightblue" stroke="midnightblue" points="1014.38,-318.222 1023.61,-323.414 1019.63,-313.596 1014.38,-318.222"/>
</g>
<!-- Node9 -->
<g id="node10" class="node"><title>Node9</title>
<g id="a_node10"><a xlink:href="cooling_8c.html#a4cf5ab4a8b1673187df48522efba4ea7" target="_top" xlink:title="GetParticleUVBG">
<polygon fill="white" stroke="black" points="406,-732.5 406,-751.5 500,-751.5 500,-732.5 406,-732.5"/>
<text text-anchor="middle" x="453" y="-739.5" font-family="Helvetica,sans-Serif" font-size="10.00">GetParticleUVBG</text>
</a>
</g>
</g>
<!-- Node1&#45;&gt;Node9 -->
<g id="edge9" class="edge"><title>Node1&#45;&gt;Node9</title>
<path fill="none" stroke="midnightblue" d="M168.757,-323.556C170.463,-379.291 182.013,-661.856 242,-718 282.561,-755.962 348.59,-757.418 395.78,-752.269"/>
<polygon fill="midnightblue" stroke="midnightblue" points="396.344,-755.726 405.846,-751.041 395.496,-748.778 396.344,-755.726"/>
</g>
<!-- Node12 -->
<g id="node13" class="node"><title>Node12</title>
<g id="a_node13"><a xlink:href="cooling_8c.html#a89d3440e3ecc1e262536d6c47a301c3e" target="_top" xlink:title="DoCooling">
<polygon fill="white" stroke="black" points="268,-456.5 268,-475.5 330,-475.5 330,-456.5 268,-456.5"/>
<text text-anchor="middle" x="299" y="-463.5" font-family="Helvetica,sans-Serif" font-size="10.00">DoCooling</text>
</a>
</g>
</g>
<!-- Node1&#45;&gt;Node12 -->
<g id="edge12" class="edge"><title>Node1&#45;&gt;Node12</title>
<path fill="none" stroke="midnightblue" d="M171.15,-323.601C178.339,-347.889 200.514,-412.304 242,-447 246.858,-451.063 252.627,-454.271 258.585,-456.801"/>
<polygon fill="midnightblue" stroke="midnightblue" points="257.406,-460.096 267.999,-460.242 259.809,-453.522 257.406,-460.096"/>
</g>
<!-- Node16 -->
<g id="node17" class="node"><title>Node16</title>
<g id="a_node17"><a xlink:href="endrun_8c.html#a6567cd867c5549fb6586e19ccd819764" target="_top" xlink:title="message">
<polygon fill="white" stroke="black" points="879.5,-580.5 879.5,-599.5 935.5,-599.5 935.5,-580.5 879.5,-580.5"/>
<text text-anchor="middle" x="907.5" y="-587.5" font-family="Helvetica,sans-Serif" font-size="10.00">message</text>
</a>
</g>
</g>
<!-- Node1&#45;&gt;Node16 -->
<g id="edge66" class="edge"><title>Node1&#45;&gt;Node16</title>
<path fill="none" stroke="midnightblue" d="M170.387,-323.641C182.752,-383.697 257.799,-704 452,-704 452,-704 452,-704 610.5,-704 703.382,-704 739.883,-719.228 816,-666 841.798,-647.96 826.998,-624.129 852,-605 857.166,-601.047 863.31,-598.136 869.58,-595.992"/>
<polygon fill="midnightblue" stroke="midnightblue" points="870.741,-599.301 879.413,-593.214 868.838,-592.564 870.741,-599.301"/>
</g>
<!-- Node25 -->
<g id="node26" class="node"><title>Node25</title>
<g id="a_node26"><a xlink:href="drift_8c.html#ac5441bdb6b99a097017f1ebe9e30fc76" target="_top" xlink:title="lock_particle">
<polygon fill="white" stroke="black" points="263.5,-380.5 263.5,-399.5 334.5,-399.5 334.5,-380.5 263.5,-380.5"/>
<text text-anchor="middle" x="299" y="-387.5" font-family="Helvetica,sans-Serif" font-size="10.00">lock_particle</text>
</a>
</g>
</g>
<!-- Node1&#45;&gt;Node25 -->
<g id="edge38" class="edge"><title>Node1&#45;&gt;Node25</title>
<path fill="none" stroke="midnightblue" d="M178.675,-323.702C192.192,-336.143 217.253,-357.693 242,-371 245.921,-373.108 250.12,-375.047 254.39,-376.814"/>
<polygon fill="midnightblue" stroke="midnightblue" points="253.183,-380.1 263.774,-380.406 255.685,-373.562 253.183,-380.1"/>
</g>
<!-- Node26 -->
<g id="node27" class="node"><title>Node26</title>
<g id="a_node27"><a xlink:href="system_8c.html#a14a8799b5e9e58e14107bad2fadc7e06" target="_top" xlink:title="get_random_number">
<polygon fill="white" stroke="black" points="246.5,-342.5 246.5,-361.5 351.5,-361.5 351.5,-342.5 246.5,-342.5"/>
<text text-anchor="middle" x="299" y="-349.5" font-family="Helvetica,sans-Serif" font-size="10.00">get_random_number</text>
</a>
</g>
</g>
<!-- Node1&#45;&gt;Node26 -->
<g id="edge39" class="edge"><title>Node1&#45;&gt;Node26</title>
<path fill="none" stroke="midnightblue" d="M201.178,-323.589C217.589,-328.404 237.676,-334.299 255.292,-339.468"/>
<polygon fill="midnightblue" stroke="midnightblue" points="254.751,-342.957 265.332,-342.414 256.722,-336.24 254.751,-342.957"/>
</g>
<!-- Node27 -->
<g id="node28" class="node"><title>Node27</title>
<g id="a_node28"><a xlink:href="drift_8c.html#a5ef02b723d506ab7cb7a6ea7c9930ca1" target="_top" xlink:title="unlock_particle">
<polygon fill="white" stroke="black" points="258,-304.5 258,-323.5 340,-323.5 340,-304.5 258,-304.5"/>
<text text-anchor="middle" x="299" y="-311.5" font-family="Helvetica,sans-Serif" font-size="10.00">unlock_particle</text>
</a>
</g>
</g>
<!-- Node1&#45;&gt;Node27 -->
<g id="edge40" class="edge"><title>Node1&#45;&gt;Node27</title>
<path fill="none" stroke="midnightblue" d="M206.305,-314C219.155,-314 233.728,-314 247.414,-314"/>
<polygon fill="midnightblue" stroke="midnightblue" points="247.663,-317.5 257.663,-314 247.663,-310.5 247.663,-317.5"/>
</g>
<!-- Node28 -->
<g id="node29" class="node"><title>Node28</title>
<g id="a_node29"><a xlink:href="slotsmanager_8c.html#a554f07998fba0271d6cf8902d24324d3" target="_top" xlink:title="slots_fork">
<polygon fill="white" stroke="black" points="269.5,-266.5 269.5,-285.5 328.5,-285.5 328.5,-266.5 269.5,-266.5"/>
<text text-anchor="middle" x="299" y="-273.5" font-family="Helvetica,sans-Serif" font-size="10.00">slots_fork</text>
</a>
</g>
</g>
<!-- Node1&#45;&gt;Node28 -->
<g id="edge41" class="edge"><title>Node1&#45;&gt;Node28</title>
<path fill="none" stroke="midnightblue" d="M201.178,-304.411C218.962,-299.193 241.064,-292.707 259.659,-287.251"/>
<polygon fill="midnightblue" stroke="midnightblue" points="260.69,-290.596 269.3,-284.422 258.719,-283.879 260.69,-290.596"/>
</g>
<!-- Node32 -->
<g id="node33" class="node"><title>Node32</title>
<g id="a_node33"><a xlink:href="slotsmanager_8c.html#a34f8f2e68309940930c215916575f463" target="_top" xlink:title="slots_mark_garbage">
<polygon fill="white" stroke="black" points="247,-228.5 247,-247.5 351,-247.5 351,-228.5 247,-228.5"/>
<text text-anchor="middle" x="299" y="-235.5" font-family="Helvetica,sans-Serif" font-size="10.00">slots_mark_garbage</text>
</a>
</g>
</g>
<!-- Node1&#45;&gt;Node32 -->
<g id="edge46" class="edge"><title>Node1&#45;&gt;Node32</title>
<path fill="none" stroke="midnightblue" d="M178.675,-304.298C192.192,-291.857 217.253,-270.307 242,-257 245.921,-254.892 250.12,-252.953 254.39,-251.186"/>
<polygon fill="midnightblue" stroke="midnightblue" points="255.685,-254.438 263.774,-247.594 253.183,-247.9 255.685,-254.438"/>
</g>
<!-- Node33 -->
<g id="node34" class="node"><title>Node33</title>
<g id="a_node34"><a xlink:href="cooling_8c.html#a8559afa70c9a321c2f2e376fa6bdf45e" target="_top" xlink:title="GetCoolingTime">
<polygon fill="white" stroke="black" points="255.5,-418.5 255.5,-437.5 342.5,-437.5 342.5,-418.5 255.5,-418.5"/>
<text text-anchor="middle" x="299" y="-425.5" font-family="Helvetica,sans-Serif" font-size="10.00">GetCoolingTime</text>
</a>
</g>
</g>
<!-- Node1&#45;&gt;Node33 -->
<g id="edge47" class="edge"><title>Node1&#45;&gt;Node33</title>
<path fill="none" stroke="midnightblue" d="M173.392,-323.588C183.579,-342.625 208.898,-385.383 242,-409 244.674,-410.908 247.555,-412.636 250.549,-414.199"/>
<polygon fill="midnightblue" stroke="midnightblue" points="249.225,-417.442 259.776,-418.409 252.131,-411.074 249.225,-417.442"/>
</g>
<!-- Node34 -->
<g id="node35" class="node"><title>Node34</title>
<g id="a_node35"><a xlink:href="sfr__eff_8h.html#a846d2d2221e0e06e3bb464f7596ccd68" target="_top" xlink:title="get_starformation_rate">
<polygon fill="white" stroke="black" points="242,-152.5 242,-171.5 356,-171.5 356,-152.5 242,-152.5"/>
<text text-anchor="middle" x="299" y="-159.5" font-family="Helvetica,sans-Serif" font-size="10.00">get_starformation_rate</text>
</a>
</g>
</g>
<!-- Node1&#45;&gt;Node34 -->
<g id="edge49" class="edge"><title>Node1&#45;&gt;Node34</title>
<path fill="none" stroke="midnightblue" d="M171.65,-304.259C179.693,-280.806 203.14,-220.582 242,-186 246.404,-182.081 251.545,-178.731 256.892,-175.887"/>
<polygon fill="midnightblue" stroke="midnightblue" points="258.459,-179.018 265.995,-171.57 255.46,-172.693 258.459,-179.018"/>
</g>
<!-- Node35 -->
<g id="node36" class="node"><title>Node35</title>
<g id="a_node36"><a xlink:href="sfr__eff_8h.html#a171a2ed903417d32792636eb5dc2ddd5" target="_top" xlink:title="init_clouds">
<polygon fill="white" stroke="black" points="267.5,-114.5 267.5,-133.5 330.5,-133.5 330.5,-114.5 267.5,-114.5"/>
<text text-anchor="middle" x="299" y="-121.5" font-family="Helvetica,sans-Serif" font-size="10.00">init_clouds</text>
</a>
</g>
</g>
<!-- Node1&#45;&gt;Node35 -->
<g id="edge50" class="edge"><title>Node1&#45;&gt;Node35</title>
<path fill="none" stroke="midnightblue" d="M169.873,-304.296C174.464,-275.435 191.925,-189.274 242,-143 246.492,-138.849 251.927,-135.601 257.621,-133.06"/>
<polygon fill="midnightblue" stroke="midnightblue" points="259.197,-136.207 267.33,-129.418 256.738,-129.653 259.197,-136.207"/>
</g>
<!-- Node36 -->
<g id="node37" class="node"><title>Node36</title>
<g id="a_node37"><a xlink:href="timestep_8c.html#aaebcb31d8cb374d360e1e165df6fe26d" target="_top" xlink:title="set_global_time">
<polygon fill="white" stroke="black" points="567,-76.5 567,-95.5 652,-95.5 652,-76.5 567,-76.5"/>
<text text-anchor="middle" x="609.5" y="-83.5" font-family="Helvetica,sans-Serif" font-size="10.00">set_global_time</text>
</a>
</g>
</g>
<!-- Node1&#45;&gt;Node36 -->
<g id="edge51" class="edge"><title>Node1&#45;&gt;Node36</title>
<path fill="none" stroke="midnightblue" d="M168.444,-304.407C168.824,-270.403 175.164,-154.993 242,-105 290.28,-68.8873 467.482,-75.7854 556.599,-81.837"/>
<polygon fill="midnightblue" stroke="midnightblue" points="556.536,-85.3411 566.757,-82.5491 557.026,-78.3582 556.536,-85.3411"/>
</g>
<!-- Node45 -->
<g id="node46" class="node"><title>Node45</title>
<g id="a_node46"><a xlink:href="cooling_8c.html#abefc1c85cf79275e3b91437938ca4f23" target="_top" xlink:title="SetZeroIonization">
<polygon fill="white" stroke="black" points="252.5,-38.5 252.5,-57.5 345.5,-57.5 345.5,-38.5 252.5,-38.5"/>
<text text-anchor="middle" x="299" y="-45.5" font-family="Helvetica,sans-Serif" font-size="10.00">SetZeroIonization</text>
</a>
</g>
</g>
<!-- Node1&#45;&gt;Node45 -->
<g id="edge64" class="edge"><title>Node1&#45;&gt;Node45</title>
<path fill="none" stroke="midnightblue" d="M168.656,-304.3C169.742,-268.657 178.139,-143.305 242,-72 245.31,-68.3041 249.287,-65.1568 253.576,-62.4813"/>
<polygon fill="midnightblue" stroke="midnightblue" points="255.517,-65.4131 262.702,-57.627 252.23,-59.2329 255.517,-65.4131"/>
</g>
<!-- Node46 -->
<g id="node47" class="node"><title>Node46</title>
<g id="a_node47"><a xlink:href="cooling_8c.html#a6f2e0f965565260a360b287bbb3253fc" target="_top" xlink:title="GetGlobalUVBG">
<polygon fill="white" stroke="black" points="254.5,-0.5 254.5,-19.5 343.5,-19.5 343.5,-0.5 254.5,-0.5"/>
<text text-anchor="middle" x="299" y="-7.5" font-family="Helvetica,sans-Serif" font-size="10.00">GetGlobalUVBG</text>
</a>
</g>
</g>
<!-- Node1&#45;&gt;Node46 -->
<g id="edge65" class="edge"><title>Node1&#45;&gt;Node46</title>
<path fill="none" stroke="midnightblue" d="M169.752,-304.328C175.753,-259.361 202.898,-71.1379 242,-29 243.362,-27.5325 244.841,-26.1783 246.412,-24.9287"/>
<polygon fill="midnightblue" stroke="midnightblue" points="248.359,-27.8381 254.911,-19.5117 244.597,-21.9351 248.359,-27.8381"/>
</g>
<!-- Node3 -->
<g id="node4" class="node"><title>Node3</title>
<g id="a_node4"><a xlink:href="timebinmgr_8c.html#a1aaa55e4aa15066a753c96e8646e62be" target="_top" xlink:title="Dloga_interval_ti">
<polygon fill="white" stroke="black" points="408.5,-770.5 408.5,-789.5 497.5,-789.5 497.5,-770.5 408.5,-770.5"/>
<text text-anchor="middle" x="453" y="-777.5" font-family="Helvetica,sans-Serif" font-size="10.00">Dloga_interval_ti</text>
</a>
</g>
</g>
<!-- Node2&#45;&gt;Node3 -->
<g id="edge3" class="edge"><title>Node2&#45;&gt;Node3</title>
<path fill="none" stroke="midnightblue" d="M345.605,-780C362.044,-780 380.754,-780 397.851,-780"/>
<polygon fill="midnightblue" stroke="midnightblue" points="398.254,-783.5 408.254,-780 398.254,-776.5 398.254,-783.5"/>
</g>
<!-- Node6 -->
<g id="node7" class="node"><title>Node6</title>
<g id="a_node7"><a xlink:href="endrun_8c.html#a7267113a7c0a094743bb565eabc695d1" target="_top" xlink:title="messagev">
<polygon fill="white" stroke="black" points="1102,-464.5 1102,-483.5 1164,-483.5 1164,-464.5 1102,-464.5"/>
<text text-anchor="middle" x="1133" y="-471.5" font-family="Helvetica,sans-Serif" font-size="10.00">messagev</text>
</a>
</g>
</g>
<!-- Node5&#45;&gt;Node6 -->
<g id="edge6" class="edge"><title>Node5&#45;&gt;Node6</title>
<path fill="none" stroke="midnightblue" d="M1040.27,-342.692C1056.58,-366.035 1098.24,-425.677 1119.34,-455.884"/>
<polygon fill="midnightblue" stroke="midnightblue" points="1116.59,-458.047 1125.18,-464.241 1122.32,-454.038 1116.59,-458.047"/>
</g>
<!-- Node7 -->
<g id="node8" class="node"><title>Node7</title>
<g id="a_node8"><a xlink:href="endrun_8c.html#a87108946670b4c3afbe846c6726675ff" target="_top" xlink:title="putline">
<polygon fill="white" stroke="black" points="1221.5,-483.5 1221.5,-502.5 1266.5,-502.5 1266.5,-483.5 1221.5,-483.5"/>
<text text-anchor="middle" x="1244" y="-490.5" font-family="Helvetica,sans-Serif" font-size="10.00">putline</text>
</a>
</g>
</g>
<!-- Node6&#45;&gt;Node7 -->
<g id="edge7" class="edge"><title>Node6&#45;&gt;Node7</title>
<path fill="none" stroke="midnightblue" d="M1164.07,-479.242C1178.68,-481.788 1196.23,-484.848 1211.07,-487.435"/>
<polygon fill="midnightblue" stroke="midnightblue" points="1210.87,-490.951 1221.32,-489.221 1212.07,-484.055 1210.87,-490.951"/>
</g>
<!-- Node8 -->
<g id="node9" class="node"><title>Node8</title>
<g id="a_node9"><a xlink:href="endrun_8c.html#a1200f02a595ab7cbe17c9e36ff32af0f" target="_top" xlink:title="show_backtrace">
<polygon fill="white" stroke="black" points="1200,-445.5 1200,-464.5 1288,-464.5 1288,-445.5 1200,-445.5"/>
<text text-anchor="middle" x="1244" y="-452.5" font-family="Helvetica,sans-Serif" font-size="10.00">show_backtrace</text>
</a>
</g>
</g>
<!-- Node6&#45;&gt;Node8 -->
<g id="edge8" class="edge"><title>Node6&#45;&gt;Node8</title>
<path fill="none" stroke="midnightblue" d="M1164.07,-468.758C1172.13,-467.353 1181.09,-465.792 1189.99,-464.24"/>
<polygon fill="midnightblue" stroke="midnightblue" points="1190.72,-467.666 1199.97,-462.501 1189.52,-460.77 1190.72,-467.666"/>
</g>
<!-- Node10 -->
<g id="node11" class="node"><title>Node10</title>
<g id="a_node11"><a xlink:href="interp_8c.html#ad881f6a6ac10a8675cce2b5b7d33017f" target="_top" xlink:title="interp_eval_periodic">
<polygon fill="white" stroke="black" points="558,-732.5 558,-751.5 661,-751.5 661,-732.5 558,-732.5"/>
<text text-anchor="middle" x="609.5" y="-739.5" font-family="Helvetica,sans-Serif" font-size="10.00">interp_eval_periodic</text>
</a>
</g>
</g>
<!-- Node9&#45;&gt;Node10 -->
<g id="edge10" class="edge"><title>Node9&#45;&gt;Node10</title>
<path fill="none" stroke="midnightblue" d="M500.355,-742C515.229,-742 531.933,-742 547.682,-742"/>
<polygon fill="midnightblue" stroke="midnightblue" points="547.864,-745.5 557.864,-742 547.864,-738.5 547.864,-745.5"/>
</g>
<!-- Node11 -->
<g id="node12" class="node"><title>Node11</title>
<g id="a_node12"><a xlink:href="interp_8c.html#a6aed1ca33077431a63a03015b419ccf8" target="_top" xlink:title="linearindex">
<polygon fill="white" stroke="black" points="1001,-449.5 1001,-468.5 1064,-468.5 1064,-449.5 1001,-449.5"/>
<text text-anchor="middle" x="1032.5" y="-456.5" font-family="Helvetica,sans-Serif" font-size="10.00">linearindex</text>
</a>
</g>
</g>
<!-- Node10&#45;&gt;Node11 -->
<g id="edge11" class="edge"><title>Node10&#45;&gt;Node11</title>
<path fill="none" stroke="midnightblue" d="M661.256,-743.269C703.964,-742.672 765.907,-737.842 816,-718 891.618,-688.047 911.821,-672.214 963,-609 996.05,-568.177 1016.91,-508.824 1026.08,-478.469"/>
<polygon fill="midnightblue" stroke="midnightblue" points="1029.49,-479.265 1028.93,-468.685 1022.77,-477.308 1029.49,-479.265"/>
</g>
<!-- Node12&#45;&gt;Node5 -->
<g id="edge36" class="edge"><title>Node12&#45;&gt;Node5</title>
<path fill="none" stroke="midnightblue" d="M330.293,-466.822C452.851,-469.921 908.019,-479.155 963,-447 998.561,-426.203 1017.83,-379.021 1026.24,-352.334"/>
<polygon fill="midnightblue" stroke="midnightblue" points="1029.64,-353.175 1029.11,-342.593 1022.92,-351.194 1029.64,-353.175"/>
</g>
<!-- Node13 -->
<g id="node14" class="node"><title>Node13</title>
<g id="a_node14"><a xlink:href="cooling_8c.html#a67e75a1a9b6f82de5fc274f6351acd85" target="_top" xlink:title="CoolingRateFromU">
<polygon fill="white" stroke="black" points="402.5,-416.5 402.5,-435.5 503.5,-435.5 503.5,-416.5 402.5,-416.5"/>
<text text-anchor="middle" x="453" y="-423.5" font-family="Helvetica,sans-Serif" font-size="10.00">CoolingRateFromU</text>
</a>
</g>
</g>
<!-- Node12&#45;&gt;Node13 -->
<g id="edge13" class="edge"><title>Node12&#45;&gt;Node13</title>
<path fill="none" stroke="midnightblue" d="M330.03,-458.097C351.702,-452.394 381.362,-444.589 406.007,-438.103"/>
<polygon fill="midnightblue" stroke="midnightblue" points="407.094,-441.437 415.874,-435.507 405.313,-434.667 407.094,-441.437"/>
</g>
<!-- Node12&#45;&gt;Node16 -->
<g id="edge37" class="edge"><title>Node12&#45;&gt;Node16</title>
<path fill="none" stroke="midnightblue" d="M315.015,-475.558C366.65,-507.785 542.684,-612.379 705,-647 753.248,-657.291 771.18,-667.614 816,-647 838.336,-636.727 831.24,-618.171 852,-605 857.384,-601.584 863.545,-598.936 869.742,-596.886"/>
<polygon fill="midnightblue" stroke="midnightblue" points="870.747,-600.239 879.404,-594.132 868.828,-593.507 870.747,-600.239"/>
</g>
<!-- Node14 -->
<g id="node15" class="node"><title>Node14</title>
<g id="a_node15"><a xlink:href="cooling_8c.html#a03df5c3fb852b03dbbddf38c2cd3e895" target="_top" xlink:title="PrimordialCoolingRate">
<polygon fill="white" stroke="black" points="552.5,-378.5 552.5,-397.5 666.5,-397.5 666.5,-378.5 552.5,-378.5"/>
<text text-anchor="middle" x="609.5" y="-385.5" font-family="Helvetica,sans-Serif" font-size="10.00">PrimordialCoolingRate</text>
</a>
</g>
</g>
<!-- Node13&#45;&gt;Node14 -->
<g id="edge14" class="edge"><title>Node13&#45;&gt;Node14</title>
<path fill="none" stroke="midnightblue" d="M492.987,-416.411C513.283,-411.419 538.293,-405.268 559.846,-399.967"/>
<polygon fill="midnightblue" stroke="midnightblue" points="560.919,-403.307 569.793,-397.52 559.247,-396.51 560.919,-403.307"/>
</g>
<!-- Node23 -->
<g id="node24" class="node"><title>Node23</title>
<g id="a_node24"><a xlink:href="cooling_8c.html#ab11b943f8d84fd82d32d840e76bacbdc" target="_top" xlink:title="solve_equilibrium_temp">
<polygon fill="white" stroke="black" points="550,-542.5 550,-561.5 669,-561.5 669,-542.5 550,-542.5"/>
<text text-anchor="middle" x="609.5" y="-549.5" font-family="Helvetica,sans-Serif" font-size="10.00">solve_equilibrium_temp</text>
</a>
</g>
</g>
<!-- Node13&#45;&gt;Node23 -->
<g id="edge29" class="edge"><title>Node13&#45;&gt;Node23</title>
<path fill="none" stroke="midnightblue" d="M465.867,-435.678C492.331,-457.26 556.401,-509.512 588.898,-536.014"/>
<polygon fill="midnightblue" stroke="midnightblue" points="586.843,-538.854 596.804,-542.462 591.267,-533.429 586.843,-538.854"/>
</g>
<!-- Node24 -->
<g id="node25" class="node"><title>Node24</title>
<g id="a_node25"><a xlink:href="cooling_8c.html#a42839be7d31e531f4481672b6bdf0e80" target="_top" xlink:title="TableMetalCoolingRate">
<polygon fill="white" stroke="black" points="550,-416.5 550,-435.5 669,-435.5 669,-416.5 550,-416.5"/>
<text text-anchor="middle" x="609.5" y="-423.5" font-family="Helvetica,sans-Serif" font-size="10.00">TableMetalCoolingRate</text>
</a>
</g>
</g>
<!-- Node13&#45;&gt;Node24 -->
<g id="edge34" class="edge"><title>Node13&#45;&gt;Node24</title>
<path fill="none" stroke="midnightblue" d="M503.735,-426C515.244,-426 527.691,-426 539.849,-426"/>
<polygon fill="midnightblue" stroke="midnightblue" points="539.968,-429.5 549.968,-426 539.968,-422.5 539.968,-429.5"/>
</g>
<!-- Node15 -->
<g id="node16" class="node"><title>Node15</title>
<g id="a_node16"><a xlink:href="cooling_8c.html#afbf748e353386bc7c718b8f000ea5dbf" target="_top" xlink:title="find_abundances_and\l_rates">
<polygon fill="white" stroke="black" points="705,-493 705,-523 816,-523 816,-493 705,-493"/>
<text text-anchor="start" x="713" y="-511" font-family="Helvetica,sans-Serif" font-size="10.00">find_abundances_and</text>
<text text-anchor="middle" x="760.5" y="-500" font-family="Helvetica,sans-Serif" font-size="10.00">_rates</text>
</a>
</g>
</g>
<!-- Node14&#45;&gt;Node15 -->
<g id="edge15" class="edge"><title>Node14&#45;&gt;Node15</title>
<path fill="none" stroke="midnightblue" d="M649.579,-397.508C656.344,-400.029 663.094,-403.155 669,-407 700.354,-427.413 727.653,-461.399 743.851,-484.244"/>
<polygon fill="midnightblue" stroke="midnightblue" points="741.13,-486.462 749.698,-492.694 746.886,-482.479 741.13,-486.462"/>
</g>
<!-- Node17 -->
<g id="node18" class="node"><title>Node17</title>
<g id="a_node18"><a xlink:href="cooling_8c.html#a9f80a0acc810f34877d2253785959d2f" target="_top" xlink:title="he_reion_factor">
<polygon fill="white" stroke="black" points="719,-378.5 719,-397.5 802,-397.5 802,-378.5 719,-378.5"/>
<text text-anchor="middle" x="760.5" y="-385.5" font-family="Helvetica,sans-Serif" font-size="10.00">he_reion_factor</text>
</a>
</g>
</g>
<!-- Node14&#45;&gt;Node17 -->
<g id="edge19" class="edge"><title>Node14&#45;&gt;Node17</title>
<path fill="none" stroke="midnightblue" d="M666.831,-388C680.621,-388 695.297,-388 708.806,-388"/>
<polygon fill="midnightblue" stroke="midnightblue" points="708.874,-391.5 718.874,-388 708.874,-384.5 708.874,-391.5"/>
</g>
<!-- Node18 -->
<g id="node19" class="node"><title>Node18</title>
<g id="a_node19"><a xlink:href="cooling_8c.html#a2376b91ae81e2c073e274e60258037aa" target="_top" xlink:title="InitUVF">
<polygon fill="white" stroke="black" points="735.5,-340.5 735.5,-359.5 785.5,-359.5 785.5,-340.5 735.5,-340.5"/>
<text text-anchor="middle" x="760.5" y="-347.5" font-family="Helvetica,sans-Serif" font-size="10.00">InitUVF</text>
</a>
</g>
</g>
<!-- Node14&#45;&gt;Node18 -->
<g id="edge20" class="edge"><title>Node14&#45;&gt;Node18</title>
<path fill="none" stroke="midnightblue" d="M648.099,-378.411C671.98,-372.321 702.629,-364.504 725.732,-358.612"/>
<polygon fill="midnightblue" stroke="midnightblue" points="726.622,-361.997 735.447,-356.134 724.892,-355.214 726.622,-361.997"/>
</g>
<!-- Node15&#45;&gt;Node5 -->
<g id="edge16" class="edge"><title>Node15&#45;&gt;Node5</title>
<path fill="none" stroke="midnightblue" d="M816.383,-513.841C860.183,-515.57 920.961,-511.065 963,-480 1005.33,-448.716 1022.37,-384.725 1028.48,-352.483"/>
<polygon fill="midnightblue" stroke="midnightblue" points="1031.95,-352.96 1030.21,-342.509 1025.05,-351.764 1031.95,-352.96"/>
</g>
<!-- Node15&#45;&gt;Node16 -->
<g id="edge17" class="edge"><title>Node15&#45;&gt;Node16</title>
<path fill="none" stroke="midnightblue" d="M788.095,-523.04C814.455,-537.947 854.567,-560.631 880.66,-575.387"/>
<polygon fill="midnightblue" stroke="midnightblue" points="879.16,-578.56 889.587,-580.436 882.606,-572.466 879.16,-578.56"/>
</g>
<!-- Node16&#45;&gt;Node6 -->
<g id="edge18" class="edge"><title>Node16&#45;&gt;Node6</title>
<path fill="none" stroke="midnightblue" d="M931.234,-580.494C941.086,-576.245 952.7,-571.06 963,-566 1014.85,-540.526 1073.77,-507.487 1106.54,-488.728"/>
<polygon fill="midnightblue" stroke="midnightblue" points="1108.52,-491.626 1115.45,-483.611 1105.04,-485.556 1108.52,-491.626"/>
</g>
<!-- Node18&#45;&gt;Node5 -->
<g id="edge21" class="edge"><title>Node18&#45;&gt;Node5</title>
<path fill="none" stroke="midnightblue" d="M772.536,-340.475C788.69,-327.229 820.309,-303.875 852,-295 899.506,-281.697 915.24,-282.64 963,-295 979.951,-299.387 997.178,-308.973 1010.12,-317.419"/>
<polygon fill="midnightblue" stroke="midnightblue" points="1008.48,-320.538 1018.71,-323.276 1012.42,-314.753 1008.48,-320.538"/>
</g>
<!-- Node18&#45;&gt;Node16 -->
<g id="edge28" class="edge"><title>Node18&#45;&gt;Node16</title>
<path fill="none" stroke="midnightblue" d="M785.551,-353.798C795.996,-356.513 807.711,-361.14 816,-369 823.846,-376.439 879.009,-518.529 899.156,-570.861"/>
<polygon fill="midnightblue" stroke="midnightblue" points="895.939,-572.248 902.794,-580.326 902.473,-569.736 895.939,-572.248"/>
</g>
<!-- Node19 -->
<g id="node20" class="node"><title>Node19</title>
<g id="a_node20"><a xlink:href="cooling_8c.html#a699118238135c50feda6b32348cf3106" target="_top" xlink:title="h5readdouble">
<polygon fill="white" stroke="black" points="870.5,-380.5 870.5,-399.5 944.5,-399.5 944.5,-380.5 870.5,-380.5"/>
<text text-anchor="middle" x="907.5" y="-387.5" font-family="Helvetica,sans-Serif" font-size="10.00">h5readdouble</text>
</a>
</g>
</g>
<!-- Node18&#45;&gt;Node19 -->
<g id="edge22" class="edge"><title>Node18&#45;&gt;Node19</title>
<path fill="none" stroke="midnightblue" d="M785.77,-356.695C806.552,-362.428 837.012,-370.831 862.136,-377.762"/>
<polygon fill="midnightblue" stroke="midnightblue" points="861.253,-381.149 871.824,-380.434 863.114,-374.401 861.253,-381.149"/>
</g>
<!-- Node20 -->
<g id="node21" class="node"><title>Node20</title>
<g id="a_node21"><a xlink:href="interp_8c.html#a122801a20f7bc02d225659574ce6ed1f" target="_top" xlink:title="interp_eval">
<polygon fill="white" stroke="black" points="875.5,-418.5 875.5,-437.5 939.5,-437.5 939.5,-418.5 875.5,-418.5"/>
<text text-anchor="middle" x="907.5" y="-425.5" font-family="Helvetica,sans-Serif" font-size="10.00">interp_eval</text>
</a>
</g>
</g>
<!-- Node18&#45;&gt;Node20 -->
<g id="edge24" class="edge"><title>Node18&#45;&gt;Node20</title>
<path fill="none" stroke="midnightblue" d="M785.504,-355.536C795.468,-358.532 806.821,-362.898 816,-369 835.918,-382.241 832.082,-395.759 852,-409 856.271,-411.84 861.014,-414.303 865.867,-416.428"/>
<polygon fill="midnightblue" stroke="midnightblue" points="864.658,-419.713 875.245,-420.105 867.213,-413.196 864.658,-419.713"/>
</g>
<!-- Node21 -->
<g id="node22" class="node"><title>Node21</title>
<g id="a_node22"><a xlink:href="interp_8c.html#a3d1d9b0250b6e9ea65e2c45da82ecd56" target="_top" xlink:title="interp_init">
<polygon fill="white" stroke="black" points="878,-342.5 878,-361.5 937,-361.5 937,-342.5 878,-342.5"/>
<text text-anchor="middle" x="907.5" y="-349.5" font-family="Helvetica,sans-Serif" font-size="10.00">interp_init</text>
</a>
</g>
</g>
<!-- Node18&#45;&gt;Node21 -->
<g id="edge26" class="edge"><title>Node18&#45;&gt;Node21</title>
<path fill="none" stroke="midnightblue" d="M785.77,-350.335C808.09,-350.643 841.572,-351.104 867.619,-351.464"/>
<polygon fill="midnightblue" stroke="midnightblue" points="867.866,-354.967 877.913,-351.606 867.962,-347.968 867.866,-354.967"/>
</g>
<!-- Node22 -->
<g id="node23" class="node"><title>Node22</title>
<g id="a_node23"><a xlink:href="interp_8c.html#ac22328bc7b7411b4a29d1644dfac2a62" target="_top" xlink:title="interp_init_dim">
<polygon fill="white" stroke="black" points="867.5,-304.5 867.5,-323.5 947.5,-323.5 947.5,-304.5 867.5,-304.5"/>
<text text-anchor="middle" x="907.5" y="-311.5" font-family="Helvetica,sans-Serif" font-size="10.00">interp_init_dim</text>
</a>
</g>
</g>
<!-- Node18&#45;&gt;Node22 -->
<g id="edge27" class="edge"><title>Node18&#45;&gt;Node22</title>
<path fill="none" stroke="midnightblue" d="M785.77,-343.974C805.539,-339.066 834.065,-331.984 858.425,-325.936"/>
<polygon fill="midnightblue" stroke="midnightblue" points="859.361,-329.31 868.223,-323.503 857.674,-322.516 859.361,-329.31"/>
</g>
<!-- Node19&#45;&gt;Node5 -->
<g id="edge23" class="edge"><title>Node19&#45;&gt;Node5</title>
<path fill="none" stroke="midnightblue" d="M938.844,-380.453C946.809,-377.668 955.318,-374.44 963,-371 978.182,-364.203 994.493,-355.226 1007.39,-347.704"/>
<polygon fill="midnightblue" stroke="midnightblue" points="1009.29,-350.645 1016.11,-342.537 1005.72,-344.623 1009.29,-350.645"/>
</g>
<!-- Node20&#45;&gt;Node11 -->
<g id="edge25" class="edge"><title>Node20&#45;&gt;Node11</title>
<path fill="none" stroke="midnightblue" d="M939.538,-435.823C955.097,-439.744 974.136,-444.542 990.846,-448.754"/>
<polygon fill="midnightblue" stroke="midnightblue" points="990.346,-452.237 1000.9,-451.287 992.057,-445.449 990.346,-452.237"/>
</g>
<!-- Node23&#45;&gt;Node4 -->
<g id="edge30" class="edge"><title>Node23&#45;&gt;Node4</title>
<path fill="none" stroke="midnightblue" d="M626.994,-561.656C645.67,-572.453 677.131,-590.23 705,-604 712.364,-607.639 720.407,-611.331 727.998,-614.692"/>
<polygon fill="midnightblue" stroke="midnightblue" points="726.721,-617.954 737.286,-618.745 729.52,-611.538 726.721,-617.954"/>
</g>
<!-- Node23&#45;&gt;Node5 -->
<g id="edge31" class="edge"><title>Node23&#45;&gt;Node5</title>
<path fill="none" stroke="midnightblue" d="M669.07,-552.337C757.391,-551.661 919.033,-545.436 963,-510 975.89,-499.611 1010.76,-396.452 1025.15,-352.581"/>
<polygon fill="midnightblue" stroke="midnightblue" points="1028.57,-353.39 1028.34,-342.797 1021.91,-351.218 1028.57,-353.39"/>
</g>
<!-- Node23&#45;&gt;Node15 -->
<g id="edge32" class="edge"><title>Node23&#45;&gt;Node15</title>
<path fill="none" stroke="midnightblue" d="M642.831,-542.453C659.232,-537.609 679.699,-531.565 698.891,-525.898"/>
<polygon fill="midnightblue" stroke="midnightblue" points="699.884,-529.254 708.483,-523.065 697.901,-522.541 699.884,-529.254"/>
</g>
<!-- Node23&#45;&gt;Node16 -->
<g id="edge33" class="edge"><title>Node23&#45;&gt;Node16</title>
<path fill="none" stroke="midnightblue" d="M669.191,-560.961C681.037,-562.694 693.41,-564.452 705,-566 762.34,-573.661 829.025,-581.368 869.474,-585.911"/>
<polygon fill="midnightblue" stroke="midnightblue" points="869.091,-589.389 879.418,-587.023 869.869,-582.433 869.091,-589.389"/>
</g>
<!-- Node24&#45;&gt;Node20 -->
<g id="edge35" class="edge"><title>Node24&#45;&gt;Node20</title>
<path fill="none" stroke="midnightblue" d="M669.334,-426.398C727.258,-426.789 814.234,-427.377 865.192,-427.721"/>
<polygon fill="midnightblue" stroke="midnightblue" points="865.472,-431.223 875.495,-427.791 865.519,-424.223 865.472,-431.223"/>
</g>
<!-- Node28&#45;&gt;Node5 -->
<g id="edge42" class="edge"><title>Node28&#45;&gt;Node5</title>
<path fill="none" stroke="midnightblue" d="M328.556,-282.758C337.751,-285.682 347.701,-289.683 356,-295 375.589,-307.55 370.629,-323.808 392,-333 466.973,-365.248 684.405,-293.817 852,-281 901.19,-277.238 916.244,-265.263 963,-281 983.625,-287.942 1002.97,-303.834 1015.8,-316.236"/>
<polygon fill="midnightblue" stroke="midnightblue" points="1013.38,-318.762 1022.91,-323.395 1018.35,-313.832 1013.38,-318.762"/>
</g>
<!-- Node29 -->
<g id="node30" class="node"><title>Node29</title>
<g id="a_node30"><a xlink:href="system_8h.html#a00eeba7aebd7952f4c0ecebb60fbeca2" target="_top" xlink:title="atomic_fetch_and_add">
<polygon fill="white" stroke="black" points="395.5,-304.5 395.5,-323.5 510.5,-323.5 510.5,-304.5 395.5,-304.5"/>
<text text-anchor="middle" x="453" y="-311.5" font-family="Helvetica,sans-Serif" font-size="10.00">atomic_fetch_and_add</text>
</a>
</g>
</g>
<!-- Node28&#45;&gt;Node29 -->
<g id="edge43" class="edge"><title>Node28&#45;&gt;Node29</title>
<path fill="none" stroke="midnightblue" d="M328.59,-283.148C349.753,-288.438 379.083,-295.771 403.84,-301.96"/>
<polygon fill="midnightblue" stroke="midnightblue" points="403.229,-305.415 413.779,-304.445 404.926,-298.624 403.229,-305.415"/>
</g>
<!-- Node30 -->
<g id="node31" class="node"><title>Node30</title>
<g id="a_node31"><a xlink:href="slotsmanager_8c.html#a13270ba7f36db217af9cf41d7ac204d2" target="_top" xlink:title="slots_connect_new_slot">
<polygon fill="white" stroke="black" points="392,-266.5 392,-285.5 514,-285.5 514,-266.5 392,-266.5"/>
<text text-anchor="middle" x="453" y="-273.5" font-family="Helvetica,sans-Serif" font-size="10.00">slots_connect_new_slot</text>
</a>
</g>
</g>
<!-- Node28&#45;&gt;Node30 -->
<g id="edge44" class="edge"><title>Node28&#45;&gt;Node30</title>
<path fill="none" stroke="midnightblue" d="M328.59,-276C343.68,-276 362.921,-276 381.696,-276"/>
<polygon fill="midnightblue" stroke="midnightblue" points="381.747,-279.5 391.746,-276 381.746,-272.5 381.747,-279.5"/>
</g>
<!-- Node31 -->
<g id="node32" class="node"><title>Node31</title>
<g id="a_node32"><a xlink:href="event_8c.html#a322553a9a0609ecf1d35b7971c9cedef" target="_top" xlink:title="event_emit">
<polygon fill="white" stroke="black" points="420.5,-228.5 420.5,-247.5 485.5,-247.5 485.5,-228.5 420.5,-228.5"/>
<text text-anchor="middle" x="453" y="-235.5" font-family="Helvetica,sans-Serif" font-size="10.00">event_emit</text>
</a>
</g>
</g>
<!-- Node28&#45;&gt;Node31 -->
<g id="edge45" class="edge"><title>Node28&#45;&gt;Node31</title>
<path fill="none" stroke="midnightblue" d="M328.59,-268.852C351.67,-263.083 384.461,-254.885 410.442,-248.389"/>
<polygon fill="midnightblue" stroke="midnightblue" points="411.538,-251.723 420.39,-245.902 409.84,-244.932 411.538,-251.723"/>
</g>
<!-- Node33&#45;&gt;Node13 -->
<g id="edge48" class="edge"><title>Node33&#45;&gt;Node13</title>
<path fill="none" stroke="midnightblue" d="M342.745,-427.438C358.088,-427.236 375.684,-427.004 392.207,-426.787"/>
<polygon fill="midnightblue" stroke="midnightblue" points="392.374,-430.285 402.327,-426.654 392.282,-423.286 392.374,-430.285"/>
</g>
<!-- Node37 -->
<g id="node38" class="node"><title>Node37</title>
<g id="a_node38"><a xlink:href="cosmology_8c.html#ac1d39b759a1cfef3faaaa8b46d75bc0a" target="_top" xlink:title="hubble_function">
<polygon fill="white" stroke="black" points="718,-38.5 718,-57.5 803,-57.5 803,-38.5 718,-38.5"/>
<text text-anchor="middle" x="760.5" y="-45.5" font-family="Helvetica,sans-Serif" font-size="10.00">hubble_function</text>
</a>
</g>
</g>
<!-- Node36&#45;&gt;Node37 -->
<g id="edge52" class="edge"><title>Node36&#45;&gt;Node37</title>
<path fill="none" stroke="midnightblue" d="M648.099,-76.411C667.584,-71.4417 691.575,-65.3233 712.296,-60.0387"/>
<polygon fill="midnightblue" stroke="midnightblue" points="713.346,-63.3828 722.171,-57.5201 711.617,-56.5999 713.346,-63.3828"/>
</g>
<!-- Node41 -->
<g id="node42" class="node"><title>Node41</title>
<g id="a_node42"><a xlink:href="lightcone_8c.html#a727344301f1298461d8181d33d54b3e9" target="_top" xlink:title="lightcone_set_time">
<polygon fill="white" stroke="black" points="711.5,-114.5 711.5,-133.5 809.5,-133.5 809.5,-114.5 711.5,-114.5"/>
<text text-anchor="middle" x="760.5" y="-121.5" font-family="Helvetica,sans-Serif" font-size="10.00">lightcone_set_time</text>
</a>
</g>
</g>
<!-- Node36&#45;&gt;Node41 -->
<g id="edge59" class="edge"><title>Node36&#45;&gt;Node41</title>
<path fill="none" stroke="midnightblue" d="M648.099,-95.589C667.584,-100.558 691.575,-106.677 712.296,-111.961"/>
<polygon fill="midnightblue" stroke="midnightblue" points="711.617,-115.4 722.171,-114.48 713.346,-108.617 711.617,-115.4"/>
</g>
<!-- Node44 -->
<g id="node45" class="node"><title>Node44</title>
<g id="a_node45"><a xlink:href="cooling_8c.html#a3726675e0d696430fe9d252ade9c46dd" target="_top" xlink:title="IonizeParams">
<polygon fill="white" stroke="black" points="722,-76.5 722,-95.5 799,-95.5 799,-76.5 722,-76.5"/>
<text text-anchor="middle" x="760.5" y="-83.5" font-family="Helvetica,sans-Serif" font-size="10.00">IonizeParams</text>
</a>
</g>
</g>
<!-- Node36&#45;&gt;Node44 -->
<g id="edge63" class="edge"><title>Node36&#45;&gt;Node44</title>
<path fill="none" stroke="midnightblue" d="M652.005,-86C670.545,-86 692.501,-86 711.721,-86"/>
<polygon fill="midnightblue" stroke="midnightblue" points="711.784,-89.5001 721.784,-86 711.784,-82.5001 711.784,-89.5001"/>
</g>
<!-- Node38 -->
<g id="node39" class="node"><title>Node38</title>
<g id="a_node39"><a xlink:href="cosmology_8c.html#ace7ed7b8c64e751bc0210cc9bb0280b3" target="_top" xlink:title="growth">
<polygon fill="white" stroke="black" points="884.5,-38.5 884.5,-57.5 930.5,-57.5 930.5,-38.5 884.5,-38.5"/>
<text text-anchor="middle" x="907.5" y="-45.5" font-family="Helvetica,sans-Serif" font-size="10.00">growth</text>
</a>
</g>
</g>
<!-- Node37&#45;&gt;Node38 -->
<g id="edge53" class="edge"><title>Node37&#45;&gt;Node38</title>
<path fill="none" stroke="midnightblue" d="M803.051,-41.8294C825.674,-40.9294 853.246,-41.0779 874.234,-42.2751"/>
<polygon fill="midnightblue" stroke="midnightblue" points="874.034,-45.7695 884.253,-42.9717 874.52,-38.7864 874.034,-45.7695"/>
</g>
<!-- Node40 -->
<g id="node41" class="node"><title>Node40</title>
<g id="a_node41"><a xlink:href="cosmology_8c.html#a54b21ed58c2038abf1c78cda8b5d4bf0" target="_top" xlink:title="OmegaFLD">
<polygon fill="white" stroke="black" points="874,-76.5 874,-95.5 941,-95.5 941,-76.5 874,-76.5"/>
<text text-anchor="middle" x="907.5" y="-83.5" font-family="Helvetica,sans-Serif" font-size="10.00">OmegaFLD</text>
</a>
</g>
</g>
<!-- Node37&#45;&gt;Node40 -->
<g id="edge58" class="edge"><title>Node37&#45;&gt;Node40</title>
<path fill="none" stroke="midnightblue" d="M798.09,-57.589C818.133,-62.8418 843.075,-69.3784 863.981,-74.8571"/>
<polygon fill="midnightblue" stroke="midnightblue" points="863.319,-78.3019 873.88,-77.4513 865.094,-71.5305 863.319,-78.3019"/>
</g>
<!-- Node38&#45;&gt;Node5 -->
<g id="edge54" class="edge"><title>Node38&#45;&gt;Node5</title>
<path fill="none" stroke="midnightblue" d="M930.589,-50.7114C941.749,-53.1887 954.656,-57.9292 963,-67 1028.76,-138.482 1033.24,-264.592 1032.33,-313.161"/>
<polygon fill="midnightblue" stroke="midnightblue" points="1028.82,-313.182 1032.03,-323.279 1035.82,-313.386 1028.82,-313.182"/>
</g>
<!-- Node38&#45;&gt;Node37 -->
<g id="edge57" class="edge"><title>Node38&#45;&gt;Node37</title>
<path fill="none" stroke="midnightblue" d="M884.253,-53.0283C865.397,-54.6152 837.616,-55.1051 813.249,-54.498"/>
<polygon fill="midnightblue" stroke="midnightblue" points="813.158,-50.9934 803.051,-54.1706 812.934,-57.9898 813.158,-50.9934"/>
</g>
<!-- Node39 -->
<g id="node40" class="node"><title>Node39</title>
<g id="a_node40"><a xlink:href="cosmology_8c.html#af1fe52807a376f35b61e9db09f4135ae" target="_top" xlink:title="growth_ode">
<polygon fill="white" stroke="black" points="999,-19.5 999,-38.5 1066,-38.5 1066,-19.5 999,-19.5"/>
<text text-anchor="middle" x="1032.5" y="-26.5" font-family="Helvetica,sans-Serif" font-size="10.00">growth_ode</text>
</a>
</g>
</g>
<!-- Node38&#45;&gt;Node39 -->
<g id="edge55" class="edge"><title>Node38&#45;&gt;Node39</title>
<path fill="none" stroke="midnightblue" d="M930.774,-44.5592C946.927,-42.0641 969.277,-38.6117 988.82,-35.5929"/>
<polygon fill="midnightblue" stroke="midnightblue" points="989.388,-39.0467 998.736,-34.061 988.319,-32.1288 989.388,-39.0467"/>
</g>
<!-- Node39&#45;&gt;Node37 -->
<g id="edge56" class="edge"><title>Node39&#45;&gt;Node37</title>
<path fill="none" stroke="midnightblue" d="M998.969,-26.9868C962.928,-25.2243 903.144,-23.6892 852,-29 837.608,-30.4944 822.133,-33.2915 808.122,-36.2888"/>
<polygon fill="midnightblue" stroke="midnightblue" points="807.216,-32.9045 798.214,-38.4909 808.735,-39.7378 807.216,-32.9045"/>
</g>
<!-- Node42 -->
<g id="node43" class="node"><title>Node42</title>
<g id="a_node43"><a xlink:href="lightcone_8c.html#af4ba33dc441cada8609ec092268db8eb" target="_top" xlink:title="lightcone_get_horizon">
<polygon fill="white" stroke="black" points="852,-114.5 852,-133.5 963,-133.5 963,-114.5 852,-114.5"/>
<text text-anchor="middle" x="907.5" y="-121.5" font-family="Helvetica,sans-Serif" font-size="10.00">lightcone_get_horizon</text>
</a>
</g>
</g>
<!-- Node41&#45;&gt;Node42 -->
<g id="edge60" class="edge"><title>Node41&#45;&gt;Node42</title>
<path fill="none" stroke="midnightblue" d="M809.783,-124C820.022,-124 830.988,-124 841.727,-124"/>
<polygon fill="midnightblue" stroke="midnightblue" points="841.921,-127.5 851.921,-124 841.921,-120.5 841.921,-127.5"/>
</g>
<!-- Node43 -->
<g id="node44" class="node"><title>Node43</title>
<g id="a_node44"><a xlink:href="lightcone_8c.html#a398ad4c2de6a81703c91e6b1866eda99" target="_top" xlink:title="update_replicas">
<polygon fill="white" stroke="black" points="865,-152.5 865,-171.5 950,-171.5 950,-152.5 865,-152.5"/>
<text text-anchor="middle" x="907.5" y="-159.5" font-family="Helvetica,sans-Serif" font-size="10.00">update_replicas</text>
</a>
</g>
</g>
<!-- Node41&#45;&gt;Node43 -->
<g id="edge61" class="edge"><title>Node41&#45;&gt;Node43</title>
<path fill="none" stroke="midnightblue" d="M798.09,-133.589C816.965,-138.536 840.186,-144.621 860.288,-149.889"/>
<polygon fill="midnightblue" stroke="midnightblue" points="859.613,-153.33 870.173,-152.48 861.387,-146.559 859.613,-153.33"/>
</g>
<!-- Node43&#45;&gt;Node5 -->
<g id="edge62" class="edge"><title>Node43&#45;&gt;Node5</title>
<path fill="none" stroke="midnightblue" d="M940.559,-171.591C948.602,-175.141 956.72,-179.852 963,-186 1000.09,-222.312 1019.29,-282.561 1027.12,-313.438"/>
<polygon fill="midnightblue" stroke="midnightblue" points="1023.77,-314.478 1029.51,-323.386 1030.58,-312.846 1023.77,-314.478"/>
</g>
</g>
</svg>
