<?xml version="1.0" encoding="UTF-8" standalone="no"?>
<!DOCTYPE svg PUBLIC "-//W3C//DTD SVG 1.1//EN"
 "http://www.w3.org/Graphics/SVG/1.1/DTD/svg11.dtd">
<!-- Generated by graphviz version 2.50.0 (0)
 -->
<!-- Title: libgadget/sfr_eff.h Pages: 1 -->
<svg width="1479pt" height="476pt"
 viewBox="0.00 0.00 1478.50 476.00" xmlns="http://www.w3.org/2000/svg" xmlns:xlink="http://www.w3.org/1999/xlink">
<g id="graph0" class="graph" transform="scale(1 1) rotate(0) translate(4 472)">
<title>libgadget/sfr_eff.h</title>
<polygon fill="white" stroke="transparent" points="-4,4 -4,-472 1474.5,-472 1474.5,4 -4,4"/>
<!-- Node1 -->
<g id="node1" class="node">
<title>Node1</title>
<g id="a_node1"><a xlink:title=" ">
<polygon fill="#bfbfbf" stroke="black" points="865.5,-448.5 865.5,-467.5 970.5,-467.5 970.5,-448.5 865.5,-448.5"/>
<text text-anchor="middle" x="918" y="-455.5" font-family="Helvetica,sans-Serif" font-size="10.00">libgadget/sfr_eff.h</text>
</a>
</g>
</g>
<!-- Node2 -->
<g id="node2" class="node">
<title>Node2</title>
<g id="a_node2"><a xlink:href="forcetree_8h.html" target="_top" xlink:title=" ">
<polygon fill="white" stroke="black" points="636,-392.5 636,-411.5 706,-411.5 706,-392.5 636,-392.5"/>
<text text-anchor="middle" x="671" y="-399.5" font-family="Helvetica,sans-Serif" font-size="10.00">forcetree.h</text>
</a>
</g>
</g>
<!-- Node1&#45;&gt;Node2 -->
<g id="edge1" class="edge">
<title>Node1&#45;&gt;Node2</title>
<path fill="none" stroke="midnightblue" d="M878.86,-448.44C834.63,-438.77 762.75,-423.06 716.18,-412.88"/>
<polygon fill="midnightblue" stroke="midnightblue" points="716.87,-409.45 706.35,-410.73 715.37,-416.28 716.87,-409.45"/>
</g>
<!-- Node9 -->
<g id="node9" class="node">
<title>Node9</title>
<g id="a_node9"><a xlink:href="paramset_8h.html" target="_top" xlink:title=" ">
<polygon fill="white" stroke="black" points="1085,-112.5 1085,-131.5 1181,-131.5 1181,-112.5 1085,-112.5"/>
<text text-anchor="middle" x="1133" y="-119.5" font-family="Helvetica,sans-Serif" font-size="10.00">utils/paramset.h</text>
</a>
</g>
</g>
<!-- Node1&#45;&gt;Node9 -->
<g id="edge49" class="edge">
<title>Node1&#45;&gt;Node9</title>
<path fill="none" stroke="midnightblue" d="M969.36,-448.46C1052.9,-433.11 1209,-397.63 1209,-347 1209,-347 1209,-347 1209,-233 1209,-193.28 1175.04,-157.5 1152.52,-138.15"/>
<polygon fill="midnightblue" stroke="midnightblue" points="1154.48,-135.24 1144.54,-131.57 1150.02,-140.63 1154.48,-135.24"/>
</g>
<!-- Node16 -->
<g id="node16" class="node">
<title>Node16</title>
<g id="a_node16"><a xlink:href="partmanager_8h.html" target="_top" xlink:title=" ">
<polygon fill="white" stroke="black" points="821,-168.5 821,-187.5 909,-187.5 909,-168.5 821,-168.5"/>
<text text-anchor="middle" x="865" y="-175.5" font-family="Helvetica,sans-Serif" font-size="10.00">partmanager.h</text>
</a>
</g>
</g>
<!-- Node1&#45;&gt;Node16 -->
<g id="edge59" class="edge">
<title>Node1&#45;&gt;Node16</title>
<path fill="none" stroke="midnightblue" d="M915.44,-448.25C910.25,-429.74 899,-385.18 899,-347 899,-347 899,-347 899,-289 899,-255.16 884.13,-217.97 874.06,-196.66"/>
<polygon fill="midnightblue" stroke="midnightblue" points="877.14,-194.99 869.59,-187.56 870.86,-198.08 877.14,-194.99"/>
</g>
<!-- Node17 -->
<g id="node17" class="node">
<title>Node17</title>
<g id="a_node17"><a xlink:href="slotsmanager_8h.html" target="_top" xlink:title=" ">
<polygon fill="white" stroke="black" points="741,-224.5 741,-243.5 833,-243.5 833,-224.5 741,-224.5"/>
<text text-anchor="middle" x="787" y="-231.5" font-family="Helvetica,sans-Serif" font-size="10.00">slotsmanager.h</text>
</a>
</g>
</g>
<!-- Node1&#45;&gt;Node17 -->
<g id="edge60" class="edge">
<title>Node1&#45;&gt;Node17</title>
<path fill="none" stroke="midnightblue" d="M888.89,-448.46C850.67,-435.5 785.11,-406.82 757,-356 738.32,-322.23 760.22,-276.79 775.23,-252.33"/>
<polygon fill="midnightblue" stroke="midnightblue" points="778.27,-254.08 780.73,-243.77 772.38,-250.29 778.27,-254.08"/>
</g>
<!-- Node29 -->
<g id="node29" class="node">
<title>Node29</title>
<g id="a_node29"><a xlink:href="timestep_8h.html" target="_top" xlink:title=" ">
<polygon fill="white" stroke="black" points="970.5,-280.5 970.5,-299.5 1039.5,-299.5 1039.5,-280.5 970.5,-280.5"/>
<text text-anchor="middle" x="1005" y="-287.5" font-family="Helvetica,sans-Serif" font-size="10.00">timestep.h</text>
</a>
</g>
</g>
<!-- Node1&#45;&gt;Node29 -->
<g id="edge50" class="edge">
<title>Node1&#45;&gt;Node29</title>
<path fill="none" stroke="midnightblue" d="M922.68,-448.08C936.49,-421.72 977.29,-343.88 995.74,-308.66"/>
<polygon fill="midnightblue" stroke="midnightblue" points="998.97,-310.05 1000.51,-299.57 992.77,-306.8 998.97,-310.05"/>
</g>
<!-- Node32 -->
<g id="node32" class="node">
<title>Node32</title>
<g id="a_node32"><a xlink:href="physconst_8h.html" target="_top" xlink:title=" ">
<polygon fill="white" stroke="black" points="1237.5,-392.5 1237.5,-411.5 1312.5,-411.5 1312.5,-392.5 1237.5,-392.5"/>
<text text-anchor="middle" x="1275" y="-399.5" font-family="Helvetica,sans-Serif" font-size="10.00">physconst.h</text>
</a>
</g>
</g>
<!-- Node1&#45;&gt;Node32 -->
<g id="edge61" class="edge">
<title>Node1&#45;&gt;Node32</title>
<path fill="none" stroke="midnightblue" d="M970.68,-449.63C1031.53,-441.03 1134.61,-426.17 1223,-412 1224.3,-411.79 1225.61,-411.58 1226.94,-411.36"/>
<polygon fill="midnightblue" stroke="midnightblue" points="1227.95,-414.74 1237.24,-409.65 1226.81,-407.84 1227.95,-414.74"/>
</g>
<!-- Node3 -->
<g id="node3" class="node">
<title>Node3</title>
<g id="a_node3"><a xlink:href="types_8h.html" target="_top" xlink:title=" ">
<polygon fill="white" stroke="black" points="1013.5,-112.5 1013.5,-131.5 1066.5,-131.5 1066.5,-112.5 1013.5,-112.5"/>
<text text-anchor="middle" x="1040" y="-119.5" font-family="Helvetica,sans-Serif" font-size="10.00">types.h</text>
</a>
</g>
</g>
<!-- Node2&#45;&gt;Node3 -->
<g id="edge2" class="edge">
<title>Node2&#45;&gt;Node3</title>
<path fill="none" stroke="midnightblue" d="M672.07,-392.14C677.11,-355.14 702.11,-212.88 793,-168 875.55,-127.24 906.6,-149.43 997,-132 999.05,-131.61 1001.15,-131.19 1003.27,-130.77"/>
<polygon fill="midnightblue" stroke="midnightblue" points="1004.09,-134.17 1013.19,-128.75 1002.69,-127.31 1004.09,-134.17"/>
</g>
<!-- Node5 -->
<g id="node5" class="node">
<title>Node5</title>
<g id="a_node5"><a xlink:href="domain_8h.html" target="_top" xlink:title=" ">
<polygon fill="white" stroke="black" points="766,-336.5 766,-355.5 828,-355.5 828,-336.5 766,-336.5"/>
<text text-anchor="middle" x="797" y="-343.5" font-family="Helvetica,sans-Serif" font-size="10.00">domain.h</text>
</a>
</g>
</g>
<!-- Node2&#45;&gt;Node5 -->
<g id="edge4" class="edge">
<title>Node2&#45;&gt;Node5</title>
<path fill="none" stroke="midnightblue" d="M690.97,-392.44C711.61,-383.6 744.06,-369.69 767.63,-359.59"/>
<polygon fill="midnightblue" stroke="midnightblue" points="769.32,-362.67 777.13,-355.52 766.56,-356.24 769.32,-362.67"/>
</g>
<!-- Node4 -->
<g id="node4" class="node">
<title>Node4</title>
<g id="a_node4"><a xlink:title=" ">
<polygon fill="white" stroke="#bfbfbf" points="826.5,-56.5 826.5,-75.5 879.5,-75.5 879.5,-56.5 826.5,-56.5"/>
<text text-anchor="middle" x="853" y="-63.5" font-family="Helvetica,sans-Serif" font-size="10.00">stdint.h</text>
</a>
</g>
</g>
<!-- Node3&#45;&gt;Node4 -->
<g id="edge3" class="edge">
<title>Node3&#45;&gt;Node4</title>
<path fill="none" stroke="midnightblue" d="M1013.21,-113.26C980.71,-103.88 925.79,-88.02 889.46,-77.53"/>
<polygon fill="midnightblue" stroke="midnightblue" points="890.32,-74.13 879.74,-74.72 888.38,-80.86 890.32,-74.13"/>
</g>
<!-- Node6 -->
<g id="node6" class="node">
<title>Node6</title>
<g id="a_node6"><a xlink:title=" ">
<polygon fill="white" stroke="#bfbfbf" points="0,-56.5 0,-75.5 44,-75.5 44,-56.5 0,-56.5"/>
<text text-anchor="middle" x="22" y="-63.5" font-family="Helvetica,sans-Serif" font-size="10.00">mpi.h</text>
</a>
</g>
</g>
<!-- Node5&#45;&gt;Node6 -->
<g id="edge5" class="edge">
<title>Node5&#45;&gt;Node6</title>
<path fill="none" stroke="midnightblue" d="M765.69,-342.32C664.83,-332.81 340.92,-295.27 98,-188 58.3,-170.47 38.04,-170.5 18,-132 10.5,-117.6 12.67,-98.9 16.03,-85.26"/>
<polygon fill="midnightblue" stroke="midnightblue" points="19.41,-86.16 18.81,-75.58 12.68,-84.22 19.41,-86.16"/>
</g>
<!-- Node7 -->
<g id="node7" class="node">
<title>Node7</title>
<g id="a_node7"><a xlink:href="peano_8h.html" target="_top" xlink:title=" ">
<polygon fill="white" stroke="black" points="877,-112.5 877,-131.5 957,-131.5 957,-112.5 877,-112.5"/>
<text text-anchor="middle" x="917" y="-119.5" font-family="Helvetica,sans-Serif" font-size="10.00">utils/peano.h</text>
</a>
</g>
</g>
<!-- Node5&#45;&gt;Node7 -->
<g id="edge6" class="edge">
<title>Node5&#45;&gt;Node7</title>
<path fill="none" stroke="midnightblue" d="M795.25,-336.37C792.3,-323.29 785.4,-298.05 773,-280 759.27,-260.01 742,-266.09 732,-244 728.33,-235.9 728.42,-232.14 732,-224 755.32,-170.94 820.59,-144.88 866.98,-132.71"/>
<polygon fill="midnightblue" stroke="midnightblue" points="868.01,-136.07 876.87,-130.26 866.32,-129.27 868.01,-136.07"/>
</g>
<!-- Node5&#45;&gt;Node9 -->
<g id="edge9" class="edge">
<title>Node5&#45;&gt;Node9</title>
<path fill="none" stroke="midnightblue" d="M828.33,-345.96C878.35,-346.11 977.82,-340.7 1049,-300 1101.88,-269.76 1110.51,-246.35 1128,-188 1132.52,-172.91 1133.61,-155.01 1133.65,-141.82"/>
<polygon fill="midnightblue" stroke="midnightblue" points="1137.15,-141.57 1133.49,-131.62 1130.15,-141.68 1137.15,-141.57"/>
</g>
<!-- Node11 -->
<g id="node11" class="node">
<title>Node11</title>
<g id="a_node11"><a xlink:href="drift_8h.html" target="_top" xlink:title=" ">
<polygon fill="white" stroke="black" points="825.5,-280.5 825.5,-299.5 870.5,-299.5 870.5,-280.5 825.5,-280.5"/>
<text text-anchor="middle" x="848" y="-287.5" font-family="Helvetica,sans-Serif" font-size="10.00">drift.h</text>
</a>
</g>
</g>
<!-- Node5&#45;&gt;Node11 -->
<g id="edge11" class="edge">
<title>Node5&#45;&gt;Node11</title>
<path fill="none" stroke="midnightblue" d="M805.42,-336.08C812.85,-328.22 823.85,-316.57 832.81,-307.08"/>
<polygon fill="midnightblue" stroke="midnightblue" points="835.41,-309.42 839.74,-299.75 830.32,-304.62 835.41,-309.42"/>
</g>
<!-- Node7&#45;&gt;Node4 -->
<g id="edge8" class="edge">
<title>Node7&#45;&gt;Node4</title>
<path fill="none" stroke="midnightblue" d="M906.72,-112.32C897.16,-104.26 882.72,-92.08 871.22,-82.37"/>
<polygon fill="midnightblue" stroke="midnightblue" points="873.37,-79.61 863.47,-75.83 868.86,-84.96 873.37,-79.61"/>
</g>
<!-- Node8 -->
<g id="node8" class="node">
<title>Node8</title>
<g id="a_node8"><a xlink:title=" ">
<polygon fill="white" stroke="#bfbfbf" points="667,-0.5 667,-19.5 723,-19.5 723,-0.5 667,-0.5"/>
<text text-anchor="middle" x="695" y="-7.5" font-family="Helvetica,sans-Serif" font-size="10.00">stddef.h</text>
</a>
</g>
</g>
<!-- Node7&#45;&gt;Node8 -->
<g id="edge7" class="edge">
<title>Node7&#45;&gt;Node8</title>
<path fill="none" stroke="midnightblue" d="M915.8,-112.36C913.37,-98.33 906.54,-70.65 889,-56 865.65,-36.49 782.73,-22.54 733.17,-15.72"/>
<polygon fill="midnightblue" stroke="midnightblue" points="733.51,-12.24 723.13,-14.38 732.58,-19.18 733.51,-12.24"/>
</g>
<!-- Node10 -->
<g id="node10" class="node">
<title>Node10</title>
<g id="a_node10"><a xlink:title=" ">
<polygon fill="white" stroke="#bfbfbf" points="1034,-56.5 1034,-75.5 1084,-75.5 1084,-56.5 1034,-56.5"/>
<text text-anchor="middle" x="1059" y="-63.5" font-family="Helvetica,sans-Serif" font-size="10.00">stdio.h</text>
</a>
</g>
</g>
<!-- Node9&#45;&gt;Node10 -->
<g id="edge10" class="edge">
<title>Node9&#45;&gt;Node10</title>
<path fill="none" stroke="midnightblue" d="M1121.11,-112.32C1109.85,-104.11 1092.71,-91.6 1079.29,-81.81"/>
<polygon fill="midnightblue" stroke="midnightblue" points="1081.25,-78.9 1071.11,-75.83 1077.12,-84.56 1081.25,-78.9"/>
</g>
<!-- Node11&#45;&gt;Node3 -->
<g id="edge17" class="edge">
<title>Node11&#45;&gt;Node3</title>
<path fill="none" stroke="midnightblue" d="M855.09,-280.36C872.5,-259.44 919.39,-205.09 966,-168 981.06,-156.02 999.55,-144.77 1014.28,-136.52"/>
<polygon fill="midnightblue" stroke="midnightblue" points="1016.26,-139.42 1023.35,-131.55 1012.9,-133.29 1016.26,-139.42"/>
</g>
<!-- Node12 -->
<g id="node12" class="node">
<title>Node12</title>
<g id="a_node12"><a xlink:href="cosmology_8h.html" target="_top" xlink:title=" ">
<polygon fill="white" stroke="black" points="1237.5,-168.5 1237.5,-187.5 1314.5,-187.5 1314.5,-168.5 1237.5,-168.5"/>
<text text-anchor="middle" x="1276" y="-175.5" font-family="Helvetica,sans-Serif" font-size="10.00">cosmology.h</text>
</a>
</g>
</g>
<!-- Node11&#45;&gt;Node12 -->
<g id="edge12" class="edge">
<title>Node11&#45;&gt;Node12</title>
<path fill="none" stroke="midnightblue" d="M870.53,-285.47C911.68,-278.82 1001.62,-263.35 1076,-244 1135.81,-228.44 1203.96,-205.04 1243.28,-190.97"/>
<polygon fill="midnightblue" stroke="midnightblue" points="1244.64,-194.2 1252.87,-187.52 1242.27,-187.61 1244.64,-194.2"/>
</g>
<!-- Node11&#45;&gt;Node16 -->
<g id="edge18" class="edge">
<title>Node11&#45;&gt;Node16</title>
<path fill="none" stroke="midnightblue" d="M849.33,-280.37C852.08,-262.62 858.41,-221.67 862.13,-197.6"/>
<polygon fill="midnightblue" stroke="midnightblue" points="865.6,-198.01 863.67,-187.59 858.69,-196.94 865.6,-198.01"/>
</g>
<!-- Node11&#45;&gt;Node17 -->
<g id="edge21" class="edge">
<title>Node11&#45;&gt;Node17</title>
<path fill="none" stroke="midnightblue" d="M838.2,-280.32C829.18,-272.34 815.59,-260.31 804.68,-250.65"/>
<polygon fill="midnightblue" stroke="midnightblue" points="806.79,-247.84 796.98,-243.83 802.15,-253.08 806.79,-247.84"/>
</g>
<!-- Node12&#45;&gt;Node8 -->
<g id="edge13" class="edge">
<title>Node12&#45;&gt;Node8</title>
<path fill="none" stroke="midnightblue" d="M1286.89,-168.49C1302.13,-155.57 1326.4,-130.54 1312,-112 1240.69,-20.16 856.56,-11.3 733.18,-10.85"/>
<polygon fill="midnightblue" stroke="midnightblue" points="733.08,-7.35 723.07,-10.84 733.06,-14.35 733.08,-7.35"/>
</g>
<!-- Node13 -->
<g id="node13" class="node">
<title>Node13</title>
<g id="a_node13"><a xlink:href="omega__nu__single_8h.html" target="_top" xlink:title=" ">
<polygon fill="white" stroke="black" points="1359.5,-112.5 1359.5,-131.5 1470.5,-131.5 1470.5,-112.5 1359.5,-112.5"/>
<text text-anchor="middle" x="1415" y="-119.5" font-family="Helvetica,sans-Serif" font-size="10.00">omega_nu_single.h</text>
</a>
</g>
</g>
<!-- Node12&#45;&gt;Node13 -->
<g id="edge14" class="edge">
<title>Node12&#45;&gt;Node13</title>
<path fill="none" stroke="midnightblue" d="M1298.02,-168.44C1321.1,-159.48 1357.56,-145.31 1383.64,-135.18"/>
<polygon fill="midnightblue" stroke="midnightblue" points="1385.02,-138.4 1393.08,-131.52 1382.49,-131.88 1385.02,-138.4"/>
</g>
<!-- Node15 -->
<g id="node15" class="node">
<title>Node15</title>
<g id="a_node15"><a xlink:href="unitsystem_8h.html" target="_top" xlink:title=" ">
<polygon fill="white" stroke="black" points="1199,-112.5 1199,-131.5 1303,-131.5 1303,-112.5 1199,-112.5"/>
<text text-anchor="middle" x="1251" y="-119.5" font-family="Helvetica,sans-Serif" font-size="10.00">utils/unitsystem.h</text>
</a>
</g>
</g>
<!-- Node12&#45;&gt;Node15 -->
<g id="edge16" class="edge">
<title>Node12&#45;&gt;Node15</title>
<path fill="none" stroke="midnightblue" d="M1271.87,-168.08C1268.49,-160.77 1263.58,-150.18 1259.38,-141.1"/>
<polygon fill="midnightblue" stroke="midnightblue" points="1262.43,-139.36 1255.05,-131.75 1256.08,-142.3 1262.43,-139.36"/>
</g>
<!-- Node14 -->
<g id="node14" class="node">
<title>Node14</title>
<g id="a_node14"><a xlink:title=" ">
<polygon fill="white" stroke="#bfbfbf" points="1369.5,-56.5 1369.5,-75.5 1460.5,-75.5 1460.5,-56.5 1369.5,-56.5"/>
<text text-anchor="middle" x="1415" y="-63.5" font-family="Helvetica,sans-Serif" font-size="10.00">gsl/gsl_interp.h</text>
</a>
</g>
</g>
<!-- Node13&#45;&gt;Node14 -->
<g id="edge15" class="edge">
<title>Node13&#45;&gt;Node14</title>
<path fill="none" stroke="midnightblue" d="M1415,-112.08C1415,-105.01 1415,-94.86 1415,-85.99"/>
<polygon fill="midnightblue" stroke="midnightblue" points="1418.5,-85.75 1415,-75.75 1411.5,-85.75 1418.5,-85.75"/>
</g>
<!-- Node16&#45;&gt;Node3 -->
<g id="edge19" class="edge">
<title>Node16&#45;&gt;Node3</title>
<path fill="none" stroke="midnightblue" d="M892.73,-168.44C922.69,-159.2 970.55,-144.43 1003.54,-134.25"/>
<polygon fill="midnightblue" stroke="midnightblue" points="1004.74,-137.54 1013.26,-131.25 1002.67,-130.85 1004.74,-137.54"/>
</g>
<!-- Node16&#45;&gt;Node7 -->
<g id="edge20" class="edge">
<title>Node16&#45;&gt;Node7</title>
<path fill="none" stroke="midnightblue" d="M873.59,-168.08C881.16,-160.22 892.38,-148.57 901.51,-139.08"/>
<polygon fill="midnightblue" stroke="midnightblue" points="904.16,-141.38 908.57,-131.75 899.12,-136.53 904.16,-141.38"/>
</g>
<!-- Node17&#45;&gt;Node3 -->
<g id="edge47" class="edge">
<title>Node17&#45;&gt;Node3</title>
<path fill="none" stroke="midnightblue" d="M787.72,-224.32C789.37,-210.21 794.76,-182.43 812,-168 876.9,-113.68 916.1,-149.07 999,-132 1000.28,-131.74 1001.59,-131.46 1002.91,-131.19"/>
<polygon fill="midnightblue" stroke="midnightblue" points="1004.07,-134.52 1013.11,-129.01 1002.6,-127.67 1004.07,-134.52"/>
</g>
<!-- Node17&#45;&gt;Node6 -->
<g id="edge22" class="edge">
<title>Node17&#45;&gt;Node6</title>
<path fill="none" stroke="midnightblue" d="M740.86,-233.74C592.74,-235.08 133.04,-231.07 32,-132 19.92,-120.15 18.47,-100.23 19.4,-85.56"/>
<polygon fill="midnightblue" stroke="midnightblue" points="22.88,-85.89 20.43,-75.59 15.92,-85.17 22.88,-85.89"/>
</g>
<!-- Node17&#45;&gt;Node16 -->
<g id="edge48" class="edge">
<title>Node17&#45;&gt;Node16</title>
<path fill="none" stroke="midnightblue" d="M799.53,-224.32C811.59,-215.98 830.03,-203.21 844.27,-193.35"/>
<polygon fill="midnightblue" stroke="midnightblue" points="846.27,-196.22 852.5,-187.65 842.28,-190.47 846.27,-196.22"/>
</g>
<!-- Node18 -->
<g id="node18" class="node">
<title>Node18</title>
<g id="a_node18"><a xlink:href="utils_8h.html" target="_top" xlink:title=" ">
<polygon fill="white" stroke="black" points="597.5,-168.5 597.5,-187.5 644.5,-187.5 644.5,-168.5 597.5,-168.5"/>
<text text-anchor="middle" x="621" y="-175.5" font-family="Helvetica,sans-Serif" font-size="10.00">utils.h</text>
</a>
</g>
</g>
<!-- Node17&#45;&gt;Node18 -->
<g id="edge23" class="edge">
<title>Node17&#45;&gt;Node18</title>
<path fill="none" stroke="midnightblue" d="M760.7,-224.44C731.91,-215.08 685.68,-200.04 654.36,-189.85"/>
<polygon fill="midnightblue" stroke="midnightblue" points="655.35,-186.49 644.76,-186.73 653.19,-193.15 655.35,-186.49"/>
</g>
<!-- Node18&#45;&gt;Node4 -->
<g id="edge25" class="edge">
<title>Node18&#45;&gt;Node4</title>
<path fill="none" stroke="midnightblue" d="M644.55,-171.56C694.03,-160.11 804.58,-134.34 808,-132 825.11,-120.28 837.7,-99.74 845.15,-84.89"/>
<polygon fill="midnightblue" stroke="midnightblue" points="848.38,-86.22 849.47,-75.69 842.05,-83.25 848.38,-86.22"/>
</g>
<!-- Node18&#45;&gt;Node6 -->
<g id="edge27" class="edge">
<title>Node18&#45;&gt;Node6</title>
<path fill="none" stroke="midnightblue" d="M597.28,-176.54C495.17,-174.38 96.2,-163.93 51,-132 35.89,-121.33 28.54,-100.92 25.03,-85.8"/>
<polygon fill="midnightblue" stroke="midnightblue" points="28.46,-85.09 23.11,-75.95 21.59,-86.43 28.46,-85.09"/>
</g>
<!-- Node18&#45;&gt;Node7 -->
<g id="edge28" class="edge">
<title>Node18&#45;&gt;Node7</title>
<path fill="none" stroke="midnightblue" d="M644.65,-171.48C650.02,-170.29 655.7,-169.06 661,-168 699.46,-160.3 803.71,-142.31 866.69,-131.55"/>
<polygon fill="midnightblue" stroke="midnightblue" points="867.53,-134.96 876.8,-129.83 866.35,-128.06 867.53,-134.96"/>
</g>
<!-- Node18&#45;&gt;Node8 -->
<g id="edge26" class="edge">
<title>Node18&#45;&gt;Node8</title>
<path fill="none" stroke="midnightblue" d="M624.98,-168.08C636.68,-141.83 671.13,-64.55 686.92,-29.12"/>
<polygon fill="midnightblue" stroke="midnightblue" points="690.31,-30.13 691.18,-19.57 683.91,-27.28 690.31,-30.13"/>
</g>
<!-- Node18&#45;&gt;Node9 -->
<g id="edge33" class="edge">
<title>Node18&#45;&gt;Node9</title>
<path fill="none" stroke="midnightblue" d="M644.74,-175.14C711.03,-169.85 903.91,-153.74 1074.89,-132.08"/>
<polygon fill="midnightblue" stroke="midnightblue" points="1075.35,-135.55 1084.83,-130.81 1074.46,-128.6 1075.35,-135.55"/>
</g>
<!-- Node18&#45;&gt;Node10 -->
<g id="edge24" class="edge">
<title>Node18&#45;&gt;Node10</title>
<path fill="none" stroke="midnightblue" d="M644.6,-174.24C719.97,-165.36 950.93,-137.84 966,-132 995.52,-120.56 1024.62,-97.87 1042.2,-82.56"/>
<polygon fill="midnightblue" stroke="midnightblue" points="1044.73,-84.99 1049.86,-75.72 1040.07,-79.77 1044.73,-84.99"/>
</g>
<!-- Node19 -->
<g id="node19" class="node">
<title>Node19</title>
<g id="a_node19"><a xlink:href="memory_8h.html" target="_top" xlink:title=" ">
<polygon fill="white" stroke="black" points="689.5,-56.5 689.5,-75.5 778.5,-75.5 778.5,-56.5 689.5,-56.5"/>
<text text-anchor="middle" x="734" y="-63.5" font-family="Helvetica,sans-Serif" font-size="10.00">utils/memory.h</text>
</a>
</g>
</g>
<!-- Node18&#45;&gt;Node19 -->
<g id="edge29" class="edge">
<title>Node18&#45;&gt;Node19</title>
<path fill="none" stroke="midnightblue" d="M644.72,-171.56C690.61,-160.93 787.43,-137.93 792,-132 806.3,-113.45 782.07,-93.55 760.7,-80.73"/>
<polygon fill="midnightblue" stroke="midnightblue" points="762.25,-77.59 751.83,-75.69 758.8,-83.68 762.25,-77.59"/>
</g>
<!-- Node20 -->
<g id="node20" class="node">
<title>Node20</title>
<g id="a_node20"><a xlink:href="mymalloc_8h.html" target="_top" xlink:title=" ">
<polygon fill="white" stroke="black" points="685,-112.5 685,-131.5 783,-131.5 783,-112.5 685,-112.5"/>
<text text-anchor="middle" x="734" y="-119.5" font-family="Helvetica,sans-Serif" font-size="10.00">utils/mymalloc.h</text>
</a>
</g>
</g>
<!-- Node18&#45;&gt;Node20 -->
<g id="edge31" class="edge">
<title>Node18&#45;&gt;Node20</title>
<path fill="none" stroke="midnightblue" d="M638.91,-168.44C657.25,-159.68 686.01,-145.94 707.09,-135.86"/>
<polygon fill="midnightblue" stroke="midnightblue" points="708.67,-138.99 716.18,-131.52 705.65,-132.67 708.67,-138.99"/>
</g>
<!-- Node21 -->
<g id="node21" class="node">
<title>Node21</title>
<g id="a_node21"><a xlink:href="event_8h.html" target="_top" xlink:title=" ">
<polygon fill="white" stroke="black" points="260.5,-112.5 260.5,-131.5 337.5,-131.5 337.5,-112.5 260.5,-112.5"/>
<text text-anchor="middle" x="299" y="-119.5" font-family="Helvetica,sans-Serif" font-size="10.00">utils/event.h</text>
</a>
</g>
</g>
<!-- Node18&#45;&gt;Node21 -->
<g id="edge34" class="edge">
<title>Node18&#45;&gt;Node21</title>
<path fill="none" stroke="midnightblue" d="M597.25,-173.05C550.36,-165.24 442.58,-147.27 352,-132 350.71,-131.78 349.39,-131.56 348.07,-131.34"/>
<polygon fill="midnightblue" stroke="midnightblue" points="348.23,-127.81 337.79,-129.6 347.06,-134.72 348.23,-127.81"/>
</g>
<!-- Node22 -->
<g id="node22" class="node">
<title>Node22</title>
<g id="a_node22"><a xlink:href="openmpsort_8h.html" target="_top" xlink:title=" ">
<polygon fill="white" stroke="black" points="369,-56.5 369,-75.5 477,-75.5 477,-56.5 369,-56.5"/>
<text text-anchor="middle" x="423" y="-63.5" font-family="Helvetica,sans-Serif" font-size="10.00">utils/openmpsort.h</text>
</a>
</g>
</g>
<!-- Node18&#45;&gt;Node22 -->
<g id="edge35" class="edge">
<title>Node18&#45;&gt;Node22</title>
<path fill="none" stroke="midnightblue" d="M597.11,-176.15C542.62,-173.67 411.79,-164.38 385,-132 372.09,-116.39 388.74,-95.86 403.89,-82.08"/>
<polygon fill="midnightblue" stroke="midnightblue" points="406.19,-84.72 411.51,-75.56 401.64,-79.4 406.19,-84.72"/>
</g>
<!-- Node23 -->
<g id="node23" class="node">
<title>Node23</title>
<g id="a_node23"><a xlink:href="system_8h.html" target="_top" xlink:title=" ">
<polygon fill="white" stroke="black" points="156,-112.5 156,-131.5 242,-131.5 242,-112.5 156,-112.5"/>
<text text-anchor="middle" x="199" y="-119.5" font-family="Helvetica,sans-Serif" font-size="10.00">utils/system.h</text>
</a>
</g>
</g>
<!-- Node18&#45;&gt;Node23 -->
<g id="edge37" class="edge">
<title>Node18&#45;&gt;Node23</title>
<path fill="none" stroke="midnightblue" d="M597.14,-174.52C539.68,-168.46 388.88,-152.01 252.33,-132.13"/>
<polygon fill="midnightblue" stroke="midnightblue" points="252.51,-128.62 242.1,-130.63 251.49,-135.55 252.51,-128.62"/>
</g>
<!-- Node25 -->
<g id="node25" class="node">
<title>Node25</title>
<g id="a_node25"><a xlink:href="string_8h.html" target="_top" xlink:title=" ">
<polygon fill="white" stroke="black" points="60.5,-112.5 60.5,-131.5 137.5,-131.5 137.5,-112.5 60.5,-112.5"/>
<text text-anchor="middle" x="99" y="-119.5" font-family="Helvetica,sans-Serif" font-size="10.00">utils/string.h</text>
</a>
</g>
</g>
<!-- Node18&#45;&gt;Node25 -->
<g id="edge41" class="edge">
<title>Node18&#45;&gt;Node25</title>
<path fill="none" stroke="midnightblue" d="M597.24,-175.51C529.02,-171.07 326.59,-156.77 147.83,-131.99"/>
<polygon fill="midnightblue" stroke="midnightblue" points="148.11,-128.49 137.72,-130.57 147.14,-135.43 148.11,-128.49"/>
</g>
<!-- Node26 -->
<g id="node26" class="node">
<title>Node26</title>
<g id="a_node26"><a xlink:href="endrun_8h.html" target="_top" xlink:title=" ">
<polygon fill="white" stroke="black" points="394.5,-112.5 394.5,-131.5 477.5,-131.5 477.5,-112.5 394.5,-112.5"/>
<text text-anchor="middle" x="436" y="-119.5" font-family="Helvetica,sans-Serif" font-size="10.00">utils/endrun.h</text>
</a>
</g>
</g>
<!-- Node18&#45;&gt;Node26 -->
<g id="edge43" class="edge">
<title>Node18&#45;&gt;Node26</title>
<path fill="none" stroke="midnightblue" d="M597.19,-170.05C566.33,-161.04 512.09,-145.21 475.13,-134.42"/>
<polygon fill="midnightblue" stroke="midnightblue" points="475.78,-130.96 465.2,-131.52 473.82,-137.68 475.78,-130.96"/>
</g>
<!-- Node27 -->
<g id="node27" class="node">
<title>Node27</title>
<g id="a_node27"><a xlink:href="interp_8h.html" target="_top" xlink:title=" ">
<polygon fill="white" stroke="black" points="551,-56.5 551,-75.5 629,-75.5 629,-56.5 551,-56.5"/>
<text text-anchor="middle" x="590" y="-63.5" font-family="Helvetica,sans-Serif" font-size="10.00">utils/interp.h</text>
</a>
</g>
</g>
<!-- Node18&#45;&gt;Node27 -->
<g id="edge44" class="edge">
<title>Node18&#45;&gt;Node27</title>
<path fill="none" stroke="midnightblue" d="M618.57,-168.37C613.54,-150.54 601.92,-109.3 595.15,-85.27"/>
<polygon fill="midnightblue" stroke="midnightblue" points="598.5,-84.27 592.42,-75.59 591.77,-86.17 598.5,-84.27"/>
</g>
<!-- Node28 -->
<g id="node28" class="node">
<title>Node28</title>
<g id="a_node28"><a xlink:href="spinlocks_8h.html" target="_top" xlink:title=" ">
<polygon fill="white" stroke="black" points="495.5,-112.5 495.5,-131.5 590.5,-131.5 590.5,-112.5 495.5,-112.5"/>
<text text-anchor="middle" x="543" y="-119.5" font-family="Helvetica,sans-Serif" font-size="10.00">utils/spinlocks.h</text>
</a>
</g>
</g>
<!-- Node18&#45;&gt;Node28 -->
<g id="edge46" class="edge">
<title>Node18&#45;&gt;Node28</title>
<path fill="none" stroke="midnightblue" d="M608.47,-168.32C596.41,-159.98 577.97,-147.21 563.73,-137.35"/>
<polygon fill="midnightblue" stroke="midnightblue" points="565.72,-134.47 555.5,-131.65 561.73,-140.22 565.72,-134.47"/>
</g>
<!-- Node19&#45;&gt;Node8 -->
<g id="edge30" class="edge">
<title>Node19&#45;&gt;Node8</title>
<path fill="none" stroke="midnightblue" d="M727.56,-56.08C722.05,-48.46 713.97,-37.26 707.24,-27.94"/>
<polygon fill="midnightblue" stroke="midnightblue" points="710.01,-25.81 701.32,-19.75 704.34,-29.91 710.01,-25.81"/>
</g>
<!-- Node20&#45;&gt;Node19 -->
<g id="edge32" class="edge">
<title>Node20&#45;&gt;Node19</title>
<path fill="none" stroke="midnightblue" d="M734,-112.08C734,-105.01 734,-94.86 734,-85.99"/>
<polygon fill="midnightblue" stroke="midnightblue" points="737.5,-85.75 734,-75.75 730.5,-85.75 737.5,-85.75"/>
</g>
<!-- Node22&#45;&gt;Node8 -->
<g id="edge36" class="edge">
<title>Node22&#45;&gt;Node8</title>
<path fill="none" stroke="midnightblue" d="M466.1,-56.44C518.65,-46.01 606.66,-28.54 656.86,-18.57"/>
<polygon fill="midnightblue" stroke="midnightblue" points="657.54,-22 666.67,-16.62 656.18,-15.14 657.54,-22"/>
</g>
<!-- Node23&#45;&gt;Node4 -->
<g id="edge38" class="edge">
<title>Node23&#45;&gt;Node4</title>
<path fill="none" stroke="midnightblue" d="M242.08,-113.19C245.09,-112.75 248.09,-112.35 251,-112 488.51,-83.56 550.05,-100.42 788,-76 797.22,-75.05 807.15,-73.8 816.4,-72.53"/>
<polygon fill="midnightblue" stroke="midnightblue" points="817.07,-75.97 826.49,-71.1 816.09,-69.04 817.07,-75.97"/>
</g>
<!-- Node23&#45;&gt;Node6 -->
<g id="edge39" class="edge">
<title>Node23&#45;&gt;Node6</title>
<path fill="none" stroke="midnightblue" d="M170.95,-112.44C139.06,-102.71 87.11,-86.86 53.76,-76.69"/>
<polygon fill="midnightblue" stroke="midnightblue" points="54.63,-73.3 44.04,-73.73 52.59,-79.99 54.63,-73.3"/>
</g>
<!-- Node24 -->
<g id="node24" class="node">
<title>Node24</title>
<g id="a_node24"><a xlink:title=" ">
<polygon fill="white" stroke="#bfbfbf" points="80,-56.5 80,-75.5 136,-75.5 136,-56.5 80,-56.5"/>
<text text-anchor="middle" x="108" y="-63.5" font-family="Helvetica,sans-Serif" font-size="10.00">stdarg.h</text>
</a>
</g>
</g>
<!-- Node23&#45;&gt;Node24 -->
<g id="edge40" class="edge">
<title>Node23&#45;&gt;Node24</title>
<path fill="none" stroke="midnightblue" d="M184.38,-112.32C170.05,-103.82 147.99,-90.73 131.25,-80.8"/>
<polygon fill="midnightblue" stroke="midnightblue" points="132.97,-77.75 122.58,-75.65 129.4,-83.77 132.97,-77.75"/>
</g>
<!-- Node25&#45;&gt;Node24 -->
<g id="edge42" class="edge">
<title>Node25&#45;&gt;Node24</title>
<path fill="none" stroke="midnightblue" d="M100.49,-112.08C101.68,-104.93 103.39,-94.64 104.88,-85.69"/>
<polygon fill="midnightblue" stroke="midnightblue" points="108.35,-86.19 106.54,-75.75 101.45,-85.04 108.35,-86.19"/>
</g>
<!-- Node27&#45;&gt;Node8 -->
<g id="edge45" class="edge">
<title>Node27&#45;&gt;Node8</title>
<path fill="none" stroke="midnightblue" d="M606.87,-56.32C623.71,-47.66 649.81,-34.24 669.24,-24.25"/>
<polygon fill="midnightblue" stroke="midnightblue" points="670.88,-27.34 678.17,-19.65 667.68,-21.12 670.88,-27.34"/>
</g>
<!-- Node29&#45;&gt;Node9 -->
<g id="edge51" class="edge">
<title>Node29&#45;&gt;Node9</title>
<path fill="none" stroke="midnightblue" d="M1024.62,-280.38C1040.21,-272.7 1061.71,-260.19 1076,-244 1103.3,-213.06 1120.17,-166.77 1127.93,-141.35"/>
<polygon fill="midnightblue" stroke="midnightblue" points="1131.35,-142.13 1130.78,-131.55 1124.62,-140.18 1131.35,-142.13"/>
</g>
<!-- Node30 -->
<g id="node30" class="node">
<title>Node30</title>
<g id="a_node30"><a xlink:href="timebinmgr_8h.html" target="_top" xlink:title=" ">
<polygon fill="white" stroke="black" points="975,-168.5 975,-187.5 1057,-187.5 1057,-168.5 975,-168.5"/>
<text text-anchor="middle" x="1016" y="-175.5" font-family="Helvetica,sans-Serif" font-size="10.00">timebinmgr.h</text>
</a>
</g>
</g>
<!-- Node29&#45;&gt;Node30 -->
<g id="edge52" class="edge">
<title>Node29&#45;&gt;Node30</title>
<path fill="none" stroke="midnightblue" d="M1001.55,-280.1C997.15,-267.52 990.6,-243.84 995,-224 997.12,-214.43 1001.51,-204.48 1005.72,-196.37"/>
<polygon fill="midnightblue" stroke="midnightblue" points="1008.82,-198 1010.62,-187.56 1002.7,-194.6 1008.82,-198"/>
</g>
<!-- Node31 -->
<g id="node31" class="node">
<title>Node31</title>
<g id="a_node31"><a xlink:href="timefac_8h.html" target="_top" xlink:title=" ">
<polygon fill="white" stroke="black" points="1003.5,-224.5 1003.5,-243.5 1066.5,-243.5 1066.5,-224.5 1003.5,-224.5"/>
<text text-anchor="middle" x="1035" y="-231.5" font-family="Helvetica,sans-Serif" font-size="10.00">timefac.h</text>
</a>
</g>
</g>
<!-- Node29&#45;&gt;Node31 -->
<g id="edge55" class="edge">
<title>Node29&#45;&gt;Node31</title>
<path fill="none" stroke="midnightblue" d="M1009.95,-280.08C1014.1,-272.61 1020.15,-261.72 1025.27,-252.52"/>
<polygon fill="midnightblue" stroke="midnightblue" points="1028.34,-254.19 1030.14,-243.75 1022.22,-250.79 1028.34,-254.19"/>
</g>
<!-- Node30&#45;&gt;Node3 -->
<g id="edge53" class="edge">
<title>Node30&#45;&gt;Node3</title>
<path fill="none" stroke="midnightblue" d="M1019.96,-168.08C1023.21,-160.77 1027.92,-150.18 1031.95,-141.1"/>
<polygon fill="midnightblue" stroke="midnightblue" points="1035.25,-142.31 1036.11,-131.75 1028.85,-139.47 1035.25,-142.31"/>
</g>
<!-- Node30&#45;&gt;Node9 -->
<g id="edge54" class="edge">
<title>Node30&#45;&gt;Node9</title>
<path fill="none" stroke="midnightblue" d="M1034.54,-168.44C1053.62,-159.64 1083.57,-145.81 1105.44,-135.72"/>
<polygon fill="midnightblue" stroke="midnightblue" points="1106.93,-138.88 1114.55,-131.52 1104,-132.53 1106.93,-138.88"/>
</g>
<!-- Node31&#45;&gt;Node3 -->
<g id="edge56" class="edge">
<title>Node31&#45;&gt;Node3</title>
<path fill="none" stroke="midnightblue" d="M1043.48,-224.23C1051.05,-215.75 1061.6,-202.13 1066,-188 1071.17,-171.38 1062.42,-153.01 1053.7,-140.05"/>
<polygon fill="midnightblue" stroke="midnightblue" points="1056.29,-137.67 1047.56,-131.67 1050.65,-141.81 1056.29,-137.67"/>
</g>
<!-- Node31&#45;&gt;Node12 -->
<g id="edge57" class="edge">
<title>Node31&#45;&gt;Node12</title>
<path fill="none" stroke="midnightblue" d="M1066.51,-225.94C1107.6,-216.73 1179.9,-200.53 1227.88,-189.78"/>
<polygon fill="midnightblue" stroke="midnightblue" points="1228.73,-193.18 1237.73,-187.58 1227.2,-186.35 1228.73,-193.18"/>
</g>
<!-- Node31&#45;&gt;Node30 -->
<g id="edge58" class="edge">
<title>Node31&#45;&gt;Node30</title>
<path fill="none" stroke="midnightblue" d="M1031.86,-224.08C1029.32,-216.85 1025.64,-206.41 1022.47,-197.4"/>
<polygon fill="midnightblue" stroke="midnightblue" points="1025.7,-196.02 1019.08,-187.75 1019.1,-198.35 1025.7,-196.02"/>
</g>
</g>
</svg>
