<?xml version="1.0" encoding="UTF-8" standalone="no"?>
<!DOCTYPE svg PUBLIC "-//W3C//DTD SVG 1.1//EN"
 "http://www.w3.org/Graphics/SVG/1.1/DTD/svg11.dtd">
<!-- Generated by graphviz version 2.38.0 (20140413.2041)
 -->
<!-- Title: slots_connect_new_slot Pages: 1 -->
<svg width="1099pt" height="47pt"
 viewBox="0.00 0.00 1099.00 47.00" xmlns="http://www.w3.org/2000/svg" xmlns:xlink="http://www.w3.org/1999/xlink">
<g id="graph0" class="graph" transform="scale(1 1) rotate(0) translate(4 43)">
<title>slots_connect_new_slot</title>
<polygon fill="white" stroke="none" points="-4,4 -4,-43 1095,-43 1095,4 -4,4"/>
<!-- Node56 -->
<g id="node1" class="node"><title>Node56</title>
<polygon fill="#bfbfbf" stroke="black" points="0,-0.5 0,-19.5 122,-19.5 122,-0.5 0,-0.5"/>
<text text-anchor="middle" x="61" y="-7.5" font-family="Helvetica,sans-Serif" font-size="10.00">slots_connect_new_slot</text>
</g>
<!-- Node57 -->
<g id="node2" class="node"><title>Node57</title>
<g id="a_node2"><a xlink:href="slotsmanager_8h.html#a554f07998fba0271d6cf8902d24324d3" target="_top" xlink:title="slots_fork">
<polygon fill="white" stroke="black" points="158,-0.5 158,-19.5 217,-19.5 217,-0.5 158,-0.5"/>
<text text-anchor="middle" x="187.5" y="-7.5" font-family="Helvetica,sans-Serif" font-size="10.00">slots_fork</text>
</a>
</g>
</g>
<!-- Node56&#45;&gt;Node57 -->
<g id="edge1" class="edge"><title>Node56&#45;&gt;Node57</title>
<path fill="none" stroke="midnightblue" d="M132.249,-10C141.223,-10 149.972,-10 157.732,-10"/>
<polygon fill="midnightblue" stroke="midnightblue" points="132.062,-6.5001 122.062,-10 132.062,-13.5001 132.062,-6.5001"/>
</g>
<!-- Node58 -->
<g id="node3" class="node"><title>Node58</title>
<g id="a_node3"><a xlink:href="sfr__eff_8c.html#a2d96bcfa1a035956535e5840d306744b" target="_top" xlink:title="cooling_direct">
<polygon fill="white" stroke="black" points="253,-0.5 253,-19.5 330,-19.5 330,-0.5 253,-0.5"/>
<text text-anchor="middle" x="291.5" y="-7.5" font-family="Helvetica,sans-Serif" font-size="10.00">cooling_direct</text>
</a>
</g>
</g>
<!-- Node57&#45;&gt;Node58 -->
<g id="edge2" class="edge"><title>Node57&#45;&gt;Node58</title>
<path fill="none" stroke="midnightblue" d="M227.44,-10C235.787,-10 244.592,-10 252.888,-10"/>
<polygon fill="midnightblue" stroke="midnightblue" points="227.184,-6.5001 217.184,-10 227.184,-13.5001 227.184,-6.5001"/>
</g>
<!-- Node59 -->
<g id="node4" class="node"><title>Node59</title>
<g id="a_node4"><a xlink:href="sfr__eff_8c.html#aec2d4b18a02ca0bbca8111e41fae0248" target="_top" xlink:title="cool_postprocess">
<polygon fill="white" stroke="black" points="366,-0.5 366,-19.5 459,-19.5 459,-0.5 366,-0.5"/>
<text text-anchor="middle" x="412.5" y="-7.5" font-family="Helvetica,sans-Serif" font-size="10.00">cool_postprocess</text>
</a>
</g>
</g>
<!-- Node58&#45;&gt;Node59 -->
<g id="edge3" class="edge"><title>Node58&#45;&gt;Node59</title>
<path fill="none" stroke="midnightblue" d="M340.213,-10C348.633,-10 357.382,-10 365.747,-10"/>
<polygon fill="midnightblue" stroke="midnightblue" points="340.152,-6.5001 330.152,-10 340.152,-13.5001 340.152,-6.5001"/>
</g>
<!-- Node60 -->
<g id="node5" class="node"><title>Node60</title>
<g id="a_node5"><a xlink:href="sfr__eff_8h.html#aaa7b178a168a5d23b2cfe478ebc58ee1" target="_top" xlink:title="cooling_only">
<polygon fill="white" stroke="black" points="495,-0.5 495,-19.5 566,-19.5 566,-0.5 495,-0.5"/>
<text text-anchor="middle" x="530.5" y="-7.5" font-family="Helvetica,sans-Serif" font-size="10.00">cooling_only</text>
</a>
</g>
</g>
<!-- Node59&#45;&gt;Node60 -->
<g id="edge4" class="edge"><title>Node59&#45;&gt;Node60</title>
<path fill="none" stroke="midnightblue" d="M469.209,-10C477.963,-10 486.787,-10 494.88,-10"/>
<polygon fill="midnightblue" stroke="midnightblue" points="469.013,-6.5001 459.013,-10 469.013,-13.5001 469.013,-6.5001"/>
</g>
<!-- Node61 -->
<g id="node6" class="node"><title>Node61</title>
<g id="a_node6"><a xlink:href="run_8c.html#abb80d08f4d52f4a7bdf28d1cecfead5b" target="_top" xlink:title="compute_accelerations">
<polygon fill="white" stroke="black" points="602,-0.5 602,-19.5 719,-19.5 719,-0.5 602,-0.5"/>
<text text-anchor="middle" x="660.5" y="-7.5" font-family="Helvetica,sans-Serif" font-size="10.00">compute_accelerations</text>
</a>
</g>
</g>
<!-- Node60&#45;&gt;Node61 -->
<g id="edge5" class="edge"><title>Node60&#45;&gt;Node61</title>
<path fill="none" stroke="midnightblue" d="M576.239,-10C584.447,-10 593.12,-10 601.647,-10"/>
<polygon fill="midnightblue" stroke="midnightblue" points="576.139,-6.5001 566.139,-10 576.139,-13.5001 576.139,-6.5001"/>
</g>
<!-- Node62 -->
<g id="node7" class="node"><title>Node62</title>
<g id="a_node7"><a xlink:href="run_8c.html#a05e0ffe612d44e6d7f3a9ae5b9df56a2" target="_top" xlink:title="run">
<polygon fill="white" stroke="black" points="755,-0.5 755,-19.5 785,-19.5 785,-0.5 755,-0.5"/>
<text text-anchor="middle" x="770" y="-7.5" font-family="Helvetica,sans-Serif" font-size="10.00">run</text>
</a>
</g>
</g>
<!-- Node61&#45;&gt;Node62 -->
<g id="edge6" class="edge"><title>Node61&#45;&gt;Node62</title>
<path fill="none" stroke="midnightblue" d="M729.254,-10C738.899,-10 747.897,-10 754.884,-10"/>
<polygon fill="midnightblue" stroke="midnightblue" points="729.027,-6.5001 719.027,-10 729.026,-13.5001 729.027,-6.5001"/>
</g>
<!-- Node63 -->
<g id="node8" class="node"><title>Node63</title>
<g id="a_node8"><a xlink:href="main_8c.html#a3c04138a5bfe5d72780bb7e82a18e627" target="_top" xlink:title="main">
<polygon fill="white" stroke="black" points="821,-19.5 821,-38.5 859,-38.5 859,-19.5 821,-19.5"/>
<text text-anchor="middle" x="840" y="-26.5" font-family="Helvetica,sans-Serif" font-size="10.00">main</text>
</a>
</g>
</g>
<!-- Node62&#45;&gt;Node63 -->
<g id="edge7" class="edge"><title>Node62&#45;&gt;Node63</title>
<path fill="none" stroke="midnightblue" d="M794.853,-16.6647C803.37,-19.0447 812.823,-21.686 820.79,-23.9119"/>
<polygon fill="midnightblue" stroke="midnightblue" points="795.663,-13.257 785.09,-13.9368 793.779,-19.9988 795.663,-13.257"/>
</g>
<!-- Node64 -->
<g id="node9" class="node"><title>Node64</title>
<g id="a_node9"><a xlink:href="walltime_8h.html#a76d2135b612766d4d665748454b879d6" target="_top" xlink:title="walltime_report">
<polygon fill="white" stroke="black" points="895,-19.5 895,-38.5 978,-38.5 978,-19.5 895,-19.5"/>
<text text-anchor="middle" x="936.5" y="-26.5" font-family="Helvetica,sans-Serif" font-size="10.00">walltime_report</text>
</a>
</g>
</g>
<!-- Node63&#45;&gt;Node64 -->
<g id="edge8" class="edge"><title>Node63&#45;&gt;Node64</title>
<path fill="none" stroke="midnightblue" d="M869.411,-29C877.347,-29 886.132,-29 894.635,-29"/>
<polygon fill="midnightblue" stroke="midnightblue" points="869.221,-25.5001 859.221,-29 869.221,-32.5001 869.221,-25.5001"/>
</g>
<!-- Node65 -->
<g id="node10" class="node"><title>Node65</title>
<g id="a_node10"><a xlink:href="run_8c.html#adc59e9ee1517e4e690694a64ab6a59d2" target="_top" xlink:title="write_cpu_log">
<polygon fill="white" stroke="black" points="1014,-0.5 1014,-19.5 1091,-19.5 1091,-0.5 1014,-0.5"/>
<text text-anchor="middle" x="1052.5" y="-7.5" font-family="Helvetica,sans-Serif" font-size="10.00">write_cpu_log</text>
</a>
</g>
</g>
<!-- Node64&#45;&gt;Node65 -->
<g id="edge9" class="edge"><title>Node64&#45;&gt;Node65</title>
<path fill="none" stroke="midnightblue" d="M988.031,-20.5782C996.684,-19.1359 1005.54,-17.6601 1013.78,-16.2859"/>
<polygon fill="midnightblue" stroke="midnightblue" points="987.302,-17.1514 978.013,-22.2478 988.452,-24.0561 987.302,-17.1514"/>
</g>
<!-- Node65&#45;&gt;Node62 -->
<g id="edge10" class="edge"><title>Node65&#45;&gt;Node62</title>
<path fill="none" stroke="midnightblue" d="M1003.73,-10C938.488,-10 825.088,-10 785.296,-10"/>
<polygon fill="midnightblue" stroke="midnightblue" points="1003.77,-13.5001 1013.76,-10 1003.76,-6.5001 1003.77,-13.5001"/>
</g>
</g>
</svg>
