<?xml version="1.0" encoding="UTF-8" standalone="no"?>
<!DOCTYPE svg PUBLIC "-//W3C//DTD SVG 1.1//EN"
 "http://www.w3.org/Graphics/SVG/1.1/DTD/svg11.dtd">
<!-- Generated by graphviz version 2.38.0 (20140413.2041)
 -->
<!-- Title: slots_fork Pages: 1 -->
<svg width="447pt" height="142pt"
 viewBox="0.00 0.00 447.00 142.00" xmlns="http://www.w3.org/2000/svg" xmlns:xlink="http://www.w3.org/1999/xlink">
<g id="graph0" class="graph" transform="scale(1 1) rotate(0) translate(4 138)">
<title>slots_fork</title>
<polygon fill="white" stroke="none" points="-4,4 -4,-138 443,-138 443,4 -4,4"/>
<!-- Node66 -->
<g id="node1" class="node"><title>Node66</title>
<polygon fill="#bfbfbf" stroke="black" points="0,-57.5 0,-76.5 59,-76.5 59,-57.5 0,-57.5"/>
<text text-anchor="middle" x="29.5" y="-64.5" font-family="Helvetica,sans-Serif" font-size="10.00">slots_fork</text>
</g>
<!-- Node67 -->
<g id="node2" class="node"><title>Node67</title>
<g id="a_node2"><a xlink:href="system_8h.html#a00eeba7aebd7952f4c0ecebb60fbeca2" target="_top" xlink:title="atomic_fetch_and_add">
<polygon fill="white" stroke="black" points="98.5,-114.5 98.5,-133.5 213.5,-133.5 213.5,-114.5 98.5,-114.5"/>
<text text-anchor="middle" x="156" y="-121.5" font-family="Helvetica,sans-Serif" font-size="10.00">atomic_fetch_and_add</text>
</a>
</g>
</g>
<!-- Node66&#45;&gt;Node67 -->
<g id="edge1" class="edge"><title>Node66&#45;&gt;Node67</title>
<path fill="none" stroke="midnightblue" d="M44.8531,-76.7346C57.6022,-85.0653 76.9581,-96.953 95,-105 99.9894,-107.225 105.319,-109.306 110.665,-111.214"/>
<polygon fill="midnightblue" stroke="midnightblue" points="109.642,-114.563 120.236,-114.456 111.887,-107.933 109.642,-114.563"/>
</g>
<!-- Node68 -->
<g id="node3" class="node"><title>Node68</title>
<g id="a_node3"><a xlink:href="endrun_8c.html#ad963d7efdb9f10f7a2298c8ccd222ab0" target="_top" xlink:title="endrun">
<polygon fill="white" stroke="black" points="133,-76.5 133,-95.5 179,-95.5 179,-76.5 133,-76.5"/>
<text text-anchor="middle" x="156" y="-83.5" font-family="Helvetica,sans-Serif" font-size="10.00">endrun</text>
</a>
</g>
</g>
<!-- Node66&#45;&gt;Node68 -->
<g id="edge2" class="edge"><title>Node66&#45;&gt;Node68</title>
<path fill="none" stroke="midnightblue" d="M59.0628,-71.359C78.0491,-74.2565 103.018,-78.0671 122.724,-81.0743"/>
<polygon fill="midnightblue" stroke="midnightblue" points="122.36,-84.5592 132.773,-82.608 123.416,-77.6393 122.36,-84.5592"/>
</g>
<!-- Node72 -->
<g id="node7" class="node"><title>Node72</title>
<g id="a_node7"><a xlink:href="event_8c.html#a322553a9a0609ecf1d35b7971c9cedef" target="_top" xlink:title="event_emit">
<polygon fill="white" stroke="black" points="123.5,-38.5 123.5,-57.5 188.5,-57.5 188.5,-38.5 123.5,-38.5"/>
<text text-anchor="middle" x="156" y="-45.5" font-family="Helvetica,sans-Serif" font-size="10.00">event_emit</text>
</a>
</g>
</g>
<!-- Node66&#45;&gt;Node72 -->
<g id="edge6" class="edge"><title>Node66&#45;&gt;Node72</title>
<path fill="none" stroke="midnightblue" d="M59.0628,-62.641C75.0261,-60.2049 95.2188,-57.1232 112.956,-54.4163"/>
<polygon fill="midnightblue" stroke="midnightblue" points="113.708,-57.8422 123.066,-52.8735 112.652,-50.9223 113.708,-57.8422"/>
</g>
<!-- Node73 -->
<g id="node8" class="node"><title>Node73</title>
<g id="a_node8"><a xlink:href="slotsmanager_8c.html#a13270ba7f36db217af9cf41d7ac204d2" target="_top" xlink:title="slots_connect_new_slot">
<polygon fill="white" stroke="black" points="95,-0.5 95,-19.5 217,-19.5 217,-0.5 95,-0.5"/>
<text text-anchor="middle" x="156" y="-7.5" font-family="Helvetica,sans-Serif" font-size="10.00">slots_connect_new_slot</text>
</a>
</g>
</g>
<!-- Node66&#45;&gt;Node73 -->
<g id="edge7" class="edge"><title>Node66&#45;&gt;Node73</title>
<path fill="none" stroke="midnightblue" d="M44.8531,-57.2654C57.6022,-48.9347 76.9581,-37.047 95,-29 99.9894,-26.7746 105.319,-24.6937 110.665,-22.7858"/>
<polygon fill="midnightblue" stroke="midnightblue" points="111.887,-26.0672 120.236,-19.5444 109.642,-19.4371 111.887,-26.0672"/>
</g>
<!-- Node69 -->
<g id="node4" class="node"><title>Node69</title>
<g id="a_node4"><a xlink:href="endrun_8c.html#a7267113a7c0a094743bb565eabc695d1" target="_top" xlink:title="messagev">
<polygon fill="white" stroke="black" points="253,-76.5 253,-95.5 315,-95.5 315,-76.5 253,-76.5"/>
<text text-anchor="middle" x="284" y="-83.5" font-family="Helvetica,sans-Serif" font-size="10.00">messagev</text>
</a>
</g>
</g>
<!-- Node68&#45;&gt;Node69 -->
<g id="edge3" class="edge"><title>Node68&#45;&gt;Node69</title>
<path fill="none" stroke="midnightblue" d="M179.236,-86C196.763,-86 221.667,-86 242.684,-86"/>
<polygon fill="midnightblue" stroke="midnightblue" points="242.949,-89.5001 252.949,-86 242.949,-82.5001 242.949,-89.5001"/>
</g>
<!-- Node70 -->
<g id="node5" class="node"><title>Node70</title>
<g id="a_node5"><a xlink:href="endrun_8c.html#a87108946670b4c3afbe846c6726675ff" target="_top" xlink:title="putline">
<polygon fill="white" stroke="black" points="372.5,-95.5 372.5,-114.5 417.5,-114.5 417.5,-95.5 372.5,-95.5"/>
<text text-anchor="middle" x="395" y="-102.5" font-family="Helvetica,sans-Serif" font-size="10.00">putline</text>
</a>
</g>
</g>
<!-- Node69&#45;&gt;Node70 -->
<g id="edge4" class="edge"><title>Node69&#45;&gt;Node70</title>
<path fill="none" stroke="midnightblue" d="M315.073,-91.2421C329.677,-93.7877 347.231,-96.8476 362.072,-99.4346"/>
<polygon fill="midnightblue" stroke="midnightblue" points="361.866,-102.951 372.318,-101.221 363.068,-96.0553 361.866,-102.951"/>
</g>
<!-- Node71 -->
<g id="node6" class="node"><title>Node71</title>
<g id="a_node6"><a xlink:href="endrun_8c.html#a1200f02a595ab7cbe17c9e36ff32af0f" target="_top" xlink:title="show_backtrace">
<polygon fill="white" stroke="black" points="351,-57.5 351,-76.5 439,-76.5 439,-57.5 351,-57.5"/>
<text text-anchor="middle" x="395" y="-64.5" font-family="Helvetica,sans-Serif" font-size="10.00">show_backtrace</text>
</a>
</g>
</g>
<!-- Node69&#45;&gt;Node71 -->
<g id="edge5" class="edge"><title>Node69&#45;&gt;Node71</title>
<path fill="none" stroke="midnightblue" d="M315.073,-80.7579C323.131,-79.3533 332.087,-77.7921 340.991,-76.2402"/>
<polygon fill="midnightblue" stroke="midnightblue" points="341.719,-79.6661 350.969,-74.5008 340.517,-72.7701 341.719,-79.6661"/>
</g>
</g>
</svg>
