<?xml version="1.0" encoding="UTF-8" standalone="no"?>
<!DOCTYPE svg PUBLIC "-//W3C//DTD SVG 1.1//EN"
 "http://www.w3.org/Graphics/SVG/1.1/DTD/svg11.dtd">
<!-- Generated by graphviz version 2.38.0 (20140413.2041)
 -->
<!-- Title: slots_check_id_consistency Pages: 1 -->
<svg width="499pt" height="104pt"
 viewBox="0.00 0.00 499.00 104.00" xmlns="http://www.w3.org/2000/svg" xmlns:xlink="http://www.w3.org/1999/xlink">
<g id="graph0" class="graph" transform="scale(1 1) rotate(0) translate(4 100)">
<title>slots_check_id_consistency</title>
<polygon fill="white" stroke="none" points="-4,4 -4,-100 495,-100 495,4 -4,4"/>
<!-- Node24 -->
<g id="node1" class="node"><title>Node24</title>
<polygon fill="#bfbfbf" stroke="black" points="0,-38.5 0,-57.5 140,-57.5 140,-38.5 0,-38.5"/>
<text text-anchor="middle" x="70" y="-45.5" font-family="Helvetica,sans-Serif" font-size="10.00">slots_check_id_consistency</text>
</g>
<!-- Node25 -->
<g id="node2" class="node"><title>Node25</title>
<g id="a_node2"><a xlink:href="endrun_8c.html#ad963d7efdb9f10f7a2298c8ccd222ab0" target="_top" xlink:title="endrun">
<polygon fill="white" stroke="black" points="199.5,-76.5 199.5,-95.5 245.5,-95.5 245.5,-76.5 199.5,-76.5"/>
<text text-anchor="middle" x="222.5" y="-83.5" font-family="Helvetica,sans-Serif" font-size="10.00">endrun</text>
</a>
</g>
</g>
<!-- Node24&#45;&gt;Node25 -->
<g id="edge1" class="edge"><title>Node24&#45;&gt;Node25</title>
<path fill="none" stroke="midnightblue" d="M108.978,-57.589C133.858,-63.871 166.01,-71.9893 189.571,-77.9381"/>
<polygon fill="midnightblue" stroke="midnightblue" points="188.862,-81.3689 199.414,-80.4236 190.576,-74.5819 188.862,-81.3689"/>
</g>
<!-- Node29 -->
<g id="node6" class="node"><title>Node29</title>
<g id="a_node6"><a xlink:href="endrun_8c.html#a6567cd867c5549fb6586e19ccd819764" target="_top" xlink:title="message">
<polygon fill="white" stroke="black" points="194.5,-38.5 194.5,-57.5 250.5,-57.5 250.5,-38.5 194.5,-38.5"/>
<text text-anchor="middle" x="222.5" y="-45.5" font-family="Helvetica,sans-Serif" font-size="10.00">message</text>
</a>
</g>
</g>
<!-- Node24&#45;&gt;Node29 -->
<g id="edge5" class="edge"><title>Node24&#45;&gt;Node29</title>
<path fill="none" stroke="midnightblue" d="M140.083,-48C155.205,-48 170.66,-48 183.986,-48"/>
<polygon fill="midnightblue" stroke="midnightblue" points="184.169,-51.5001 194.169,-48 184.169,-44.5001 184.169,-51.5001"/>
</g>
<!-- Node30 -->
<g id="node7" class="node"><title>Node30</title>
<g id="a_node7"><a xlink:href="system_8c.html#a866c4b0425665030c89933c11752b1fe" target="_top" xlink:title="sumup_large_ints">
<polygon fill="white" stroke="black" points="176,-0.5 176,-19.5 269,-19.5 269,-0.5 176,-0.5"/>
<text text-anchor="middle" x="222.5" y="-7.5" font-family="Helvetica,sans-Serif" font-size="10.00">sumup_large_ints</text>
</a>
</g>
</g>
<!-- Node24&#45;&gt;Node30 -->
<g id="edge7" class="edge"><title>Node24&#45;&gt;Node30</title>
<path fill="none" stroke="midnightblue" d="M108.978,-38.411C128.659,-33.4417 152.891,-27.3233 173.821,-22.0387"/>
<polygon fill="midnightblue" stroke="midnightblue" points="174.957,-25.3617 183.796,-19.5201 173.243,-18.5747 174.957,-25.3617"/>
</g>
<!-- Node26 -->
<g id="node3" class="node"><title>Node26</title>
<g id="a_node3"><a xlink:href="endrun_8c.html#a7267113a7c0a094743bb565eabc695d1" target="_top" xlink:title="messagev">
<polygon fill="white" stroke="black" points="305,-57.5 305,-76.5 367,-76.5 367,-57.5 305,-57.5"/>
<text text-anchor="middle" x="336" y="-64.5" font-family="Helvetica,sans-Serif" font-size="10.00">messagev</text>
</a>
</g>
</g>
<!-- Node25&#45;&gt;Node26 -->
<g id="edge2" class="edge"><title>Node25&#45;&gt;Node26</title>
<path fill="none" stroke="midnightblue" d="M245.529,-82.2462C259.614,-79.846 278.3,-76.6619 294.951,-73.8245"/>
<polygon fill="midnightblue" stroke="midnightblue" points="295.726,-77.2429 304.996,-72.1127 294.55,-70.3424 295.726,-77.2429"/>
</g>
<!-- Node27 -->
<g id="node4" class="node"><title>Node27</title>
<g id="a_node4"><a xlink:href="endrun_8c.html#a87108946670b4c3afbe846c6726675ff" target="_top" xlink:title="putline">
<polygon fill="white" stroke="black" points="424.5,-76.5 424.5,-95.5 469.5,-95.5 469.5,-76.5 424.5,-76.5"/>
<text text-anchor="middle" x="447" y="-83.5" font-family="Helvetica,sans-Serif" font-size="10.00">putline</text>
</a>
</g>
</g>
<!-- Node26&#45;&gt;Node27 -->
<g id="edge3" class="edge"><title>Node26&#45;&gt;Node27</title>
<path fill="none" stroke="midnightblue" d="M367.073,-72.2421C381.677,-74.7877 399.231,-77.8476 414.072,-80.4346"/>
<polygon fill="midnightblue" stroke="midnightblue" points="413.866,-83.9514 424.318,-82.2207 415.068,-77.0553 413.866,-83.9514"/>
</g>
<!-- Node28 -->
<g id="node5" class="node"><title>Node28</title>
<g id="a_node5"><a xlink:href="endrun_8c.html#a1200f02a595ab7cbe17c9e36ff32af0f" target="_top" xlink:title="show_backtrace">
<polygon fill="white" stroke="black" points="403,-38.5 403,-57.5 491,-57.5 491,-38.5 403,-38.5"/>
<text text-anchor="middle" x="447" y="-45.5" font-family="Helvetica,sans-Serif" font-size="10.00">show_backtrace</text>
</a>
</g>
</g>
<!-- Node26&#45;&gt;Node28 -->
<g id="edge4" class="edge"><title>Node26&#45;&gt;Node28</title>
<path fill="none" stroke="midnightblue" d="M367.073,-61.7579C375.131,-60.3533 384.087,-58.7921 392.991,-57.2402"/>
<polygon fill="midnightblue" stroke="midnightblue" points="393.719,-60.6661 402.969,-55.5008 392.517,-53.7701 393.719,-60.6661"/>
</g>
<!-- Node29&#45;&gt;Node26 -->
<g id="edge6" class="edge"><title>Node29&#45;&gt;Node26</title>
<path fill="none" stroke="midnightblue" d="M250.776,-52.6479C263.953,-54.8934 280.032,-57.6332 294.595,-60.1149"/>
<polygon fill="midnightblue" stroke="midnightblue" points="294.423,-63.6359 304.869,-61.8656 295.599,-56.7354 294.423,-63.6359"/>
</g>
</g>
</svg>
