<?xml version="1.0" encoding="UTF-8" standalone="no"?>
<!DOCTYPE svg PUBLIC "-//W3C//DTD SVG 1.1//EN"
 "http://www.w3.org/Graphics/SVG/1.1/DTD/svg11.dtd">
<!-- Generated by graphviz version 2.50.0 (0)
 -->
<!-- Title: slots_init Pages: 1 -->
<svg width="438pt" height="203pt"
 viewBox="0.00 0.00 438.00 202.50" xmlns="http://www.w3.org/2000/svg" xmlns:xlink="http://www.w3.org/1999/xlink">
<g id="graph0" class="graph" transform="scale(1 1) rotate(0) translate(4 198.5)">
<title>slots_init</title>
<polygon fill="white" stroke="transparent" points="-4,4 -4,-198.5 434,-198.5 434,4 -4,4"/>
<!-- Node1 -->
<g id="node1" class="node">
<title>Node1</title>
<g id="a_node1"><a xlink:title=" ">
<polygon fill="#bfbfbf" stroke="black" points="369,-137 369,-156 430,-156 430,-137 369,-137"/>
<text text-anchor="middle" x="399.5" y="-144" font-family="Helvetica,sans-Serif" font-size="10.00">slots_init</text>
</a>
</g>
</g>
<!-- Node2 -->
<g id="node2" class="node">
<title>Node2</title>
<g id="a_node2"><a xlink:href="run_8c.html#aee4609880c9e92e1c421c4bd238589fd" target="_top" xlink:title=" ">
<polygon fill="white" stroke="black" points="262.5,-175 262.5,-194 312.5,-194 312.5,-175 262.5,-175"/>
<text text-anchor="middle" x="287.5" y="-182" font-family="Helvetica,sans-Serif" font-size="10.00">begrun</text>
</a>
</g>
</g>
<!-- Node1&#45;&gt;Node2 -->
<g id="edge1" class="edge">
<title>Node1&#45;&gt;Node2</title>
<path fill="none" stroke="midnightblue" d="M361.09,-159.42C345.02,-164.97 326.72,-171.3 312.51,-176.2"/>
<polygon fill="midnightblue" stroke="midnightblue" points="362.43,-162.66 370.74,-156.09 360.15,-156.05 362.43,-162.66"/>
</g>
<!-- Node4 -->
<g id="node4" class="node">
<title>Node4</title>
<g id="a_node4"><a xlink:href="test__density_8c.html#a854959c3967fdf6643d85ab516ec775f" target="_top" xlink:title=" ">
<polygon fill="white" stroke="black" points="245,-137 245,-156 330,-156 330,-137 245,-137"/>
<text text-anchor="middle" x="287.5" y="-144" font-family="Helvetica,sans-Serif" font-size="10.00">setup_density</text>
</a>
</g>
</g>
<!-- Node1&#45;&gt;Node4 -->
<g id="edge3" class="edge">
<title>Node1&#45;&gt;Node4</title>
<path fill="none" stroke="midnightblue" d="M358.64,-146.5C349.41,-146.5 339.57,-146.5 330.27,-146.5"/>
<polygon fill="midnightblue" stroke="midnightblue" points="358.73,-150 368.73,-146.5 358.73,-143 358.73,-150"/>
</g>
<!-- Node5 -->
<g id="node5" class="node">
<title>Node5</title>
<g id="a_node5"><a xlink:href="test__exchange_8c.html#a6b56cf572ce4deb92a1b299742f25ddc" target="_top" xlink:title=" ">
<polygon fill="white" stroke="black" points="242,-99 242,-118 333,-118 333,-99 242,-99"/>
<text text-anchor="middle" x="287.5" y="-106" font-family="Helvetica,sans-Serif" font-size="10.00">setup_particles</text>
</a>
</g>
</g>
<!-- Node1&#45;&gt;Node5 -->
<g id="edge4" class="edge">
<title>Node1&#45;&gt;Node5</title>
<path fill="none" stroke="midnightblue" d="M360.95,-133.53C346.3,-128.47 329.8,-122.77 316.25,-118.09"/>
<polygon fill="midnightblue" stroke="midnightblue" points="360.15,-136.95 370.74,-136.91 362.43,-130.34 360.15,-136.95"/>
</g>
<!-- Node3 -->
<g id="node3" class="node">
<title>Node3</title>
<g id="a_node3"><a xlink:href="gadget_2main_8c.html#a3c04138a5bfe5d72780bb7e82a18e627" target="_top" xlink:title=" ">
<polygon fill="white" stroke="black" points="121,-175 121,-194 162,-194 162,-175 121,-175"/>
<text text-anchor="middle" x="141.5" y="-182" font-family="Helvetica,sans-Serif" font-size="10.00">main</text>
</a>
</g>
</g>
<!-- Node2&#45;&gt;Node3 -->
<g id="edge2" class="edge">
<title>Node2&#45;&gt;Node3</title>
<path fill="none" stroke="midnightblue" d="M252.19,-184.5C224.03,-184.5 185.16,-184.5 162.05,-184.5"/>
<polygon fill="midnightblue" stroke="midnightblue" points="252.4,-188 262.4,-184.5 252.4,-181 252.4,-188"/>
</g>
<!-- Node6 -->
<g id="node6" class="node">
<title>Node6</title>
<g id="a_node6"><a xlink:href="test__exchange_8c.html#aa548e32f4f20f4c89a239183d56a4ab6" target="_top" xlink:title=" ">
<polygon fill="white" stroke="black" points="97.5,-137 97.5,-156 185.5,-156 185.5,-137 97.5,-137"/>
<text text-anchor="middle" x="141.5" y="-144" font-family="Helvetica,sans-Serif" font-size="10.00">test_exchange</text>
</a>
</g>
</g>
<!-- Node5&#45;&gt;Node6 -->
<g id="edge5" class="edge">
<title>Node5&#45;&gt;Node6</title>
<path fill="none" stroke="midnightblue" d="M240.33,-120.68C220.34,-125.96 197.28,-132.04 178.58,-136.98"/>
<polygon fill="midnightblue" stroke="midnightblue" points="241.39,-124.02 250.16,-118.09 239.6,-117.26 241.39,-124.02"/>
</g>
<!-- Node8 -->
<g id="node8" class="node">
<title>Node8</title>
<g id="a_node8"><a xlink:href="test__exchange_8c.html#a221a6d329379702a0dcb30a7cbf3f747" target="_top" xlink:title=" ">
<polygon fill="white" stroke="black" points="77,-99 77,-118 206,-118 206,-99 77,-99"/>
<text text-anchor="middle" x="141.5" y="-106" font-family="Helvetica,sans-Serif" font-size="10.00">test_exchange_uneven</text>
</a>
</g>
</g>
<!-- Node5&#45;&gt;Node8 -->
<g id="edge7" class="edge">
<title>Node5&#45;&gt;Node8</title>
<path fill="none" stroke="midnightblue" d="M231.69,-108.5C223.3,-108.5 214.57,-108.5 206.01,-108.5"/>
<polygon fill="midnightblue" stroke="midnightblue" points="231.73,-112 241.73,-108.5 231.73,-105 231.73,-112"/>
</g>
<!-- Node9 -->
<g id="node9" class="node">
<title>Node9</title>
<g id="a_node9"><a xlink:href="test__exchange_8c.html#a594543f6c1cc69b9d561ea361393e543" target="_top" xlink:title=" ">
<polygon fill="white" stroke="black" points="84.5,-49.5 84.5,-79.5 198.5,-79.5 198.5,-49.5 84.5,-49.5"/>
<text text-anchor="start" x="92.5" y="-67.5" font-family="Helvetica,sans-Serif" font-size="10.00">test_exchange_with</text>
<text text-anchor="middle" x="141.5" y="-56.5" font-family="Helvetica,sans-Serif" font-size="10.00">_garbage</text>
</a>
</g>
</g>
<!-- Node5&#45;&gt;Node9 -->
<g id="edge9" class="edge">
<title>Node5&#45;&gt;Node9</title>
<path fill="none" stroke="midnightblue" d="M245.27,-95.9C228.6,-90.81 209.21,-84.88 191.8,-79.57"/>
<polygon fill="midnightblue" stroke="midnightblue" points="244.67,-99.38 255.25,-98.95 246.71,-92.68 244.67,-99.38"/>
</g>
<!-- Node10 -->
<g id="node10" class="node">
<title>Node10</title>
<g id="a_node10"><a xlink:href="test__exchange_8c.html#aa6c198b4deff62a79f30e1b7a1d19025" target="_top" xlink:title=" ">
<polygon fill="white" stroke="black" points="84.5,-0.5 84.5,-30.5 198.5,-30.5 198.5,-0.5 84.5,-0.5"/>
<text text-anchor="start" x="92.5" y="-18.5" font-family="Helvetica,sans-Serif" font-size="10.00">test_exchange_zero</text>
<text text-anchor="middle" x="141.5" y="-7.5" font-family="Helvetica,sans-Serif" font-size="10.00">_slots</text>
</a>
</g>
</g>
<!-- Node5&#45;&gt;Node10 -->
<g id="edge11" class="edge">
<title>Node5&#45;&gt;Node10</title>
<path fill="none" stroke="midnightblue" d="M270.25,-91.54C254.87,-76.27 230.54,-54.04 206,-39.5 200.42,-36.2 194.31,-33.2 188.15,-30.54"/>
<polygon fill="midnightblue" stroke="midnightblue" points="267.92,-94.16 277.43,-98.82 272.9,-89.24 267.92,-94.16"/>
</g>
<!-- Node7 -->
<g id="node7" class="node">
<title>Node7</title>
<g id="a_node7"><a xlink:href="test__exchange_8c.html#a840291bc02cba5474a4cb46a9b9566fe" target="_top" xlink:title=" ">
<polygon fill="white" stroke="black" points="0,-77 0,-96 41,-96 41,-77 0,-77"/>
<text text-anchor="middle" x="20.5" y="-84" font-family="Helvetica,sans-Serif" font-size="10.00">main</text>
</a>
</g>
</g>
<!-- Node6&#45;&gt;Node7 -->
<g id="edge6" class="edge">
<title>Node6&#45;&gt;Node7</title>
<path fill="none" stroke="midnightblue" d="M91.26,-133.63C86.35,-131.8 81.52,-129.76 77,-127.5 60.07,-119.04 42.9,-105.4 32.23,-96.2"/>
<polygon fill="midnightblue" stroke="midnightblue" points="90.13,-136.95 100.73,-136.9 92.42,-130.33 90.13,-136.95"/>
</g>
<!-- Node8&#45;&gt;Node7 -->
<g id="edge8" class="edge">
<title>Node8&#45;&gt;Node7</title>
<path fill="none" stroke="midnightblue" d="M79,-97.13C65.25,-94.59 51.64,-92.07 41.12,-90.13"/>
<polygon fill="midnightblue" stroke="midnightblue" points="78.53,-100.6 89,-98.98 79.8,-93.72 78.53,-100.6"/>
</g>
<!-- Node9&#45;&gt;Node7 -->
<g id="edge10" class="edge">
<title>Node9&#45;&gt;Node7</title>
<path fill="none" stroke="midnightblue" d="M74.64,-76.68C62.41,-78.94 50.55,-81.13 41.14,-82.87"/>
<polygon fill="midnightblue" stroke="midnightblue" points="75.29,-80.12 84.48,-74.86 74.01,-73.23 75.29,-80.12"/>
</g>
<!-- Node10&#45;&gt;Node7 -->
<g id="edge12" class="edge">
<title>Node10&#45;&gt;Node7</title>
<path fill="none" stroke="midnightblue" d="M85.72,-34.8C82.72,-36.29 79.79,-37.86 77,-39.5 59.15,-50 41.4,-66.34 30.94,-76.72"/>
<polygon fill="midnightblue" stroke="midnightblue" points="87.26,-37.94 94.86,-30.57 84.32,-31.59 87.26,-37.94"/>
</g>
</g>
</svg>
