<?xml version="1.0" encoding="UTF-8" standalone="no"?>
<!DOCTYPE svg PUBLIC "-//W3C//DTD SVG 1.1//EN"
 "http://www.w3.org/Graphics/SVG/1.1/DTD/svg11.dtd">
<!-- Generated by graphviz version 2.38.0 (20140413.2041)
 -->
<!-- Title: slotsmanager.h Pages: 1 -->
<svg width="210pt" height="636pt"
 viewBox="0.00 0.00 210.00 636.00" xmlns="http://www.w3.org/2000/svg" xmlns:xlink="http://www.w3.org/1999/xlink">
<g id="graph0" class="graph" transform="scale(1 1) rotate(0) translate(4 632)">
<title>slotsmanager.h</title>
<polygon fill="white" stroke="none" points="-4,4 -4,-632 206,-632 206,4 -4,4"/>
<!-- Node9 -->
<g id="node1" class="node"><title>Node9</title>
<polygon fill="#bfbfbf" stroke="black" points="0,-304.5 0,-323.5 83,-323.5 83,-304.5 0,-304.5"/>
<text text-anchor="middle" x="41.5" y="-311.5" font-family="Helvetica,sans-Serif" font-size="10.00">slotsmanager.h</text>
</g>
<!-- Node10 -->
<g id="node2" class="node"><title>Node10</title>
<g id="a_node2"><a xlink:href="begrun_8c.html" target="_top" xlink:title="initial set&#45;up of a simulation run ">
<polygon fill="white" stroke="black" points="133.5,-608.5 133.5,-627.5 187.5,-627.5 187.5,-608.5 133.5,-608.5"/>
<text text-anchor="middle" x="160.5" y="-615.5" font-family="Helvetica,sans-Serif" font-size="10.00">begrun.c</text>
</a>
</g>
</g>
<!-- Node9&#45;&gt;Node10 -->
<g id="edge1" class="edge"><title>Node9&#45;&gt;Node10</title>
<path fill="none" stroke="midnightblue" d="M42.3697,-333.818C43.0746,-384.125 51.5587,-518.473 119,-599 122.79,-603.525 127.899,-607.038 133.21,-609.741"/>
<polygon fill="midnightblue" stroke="midnightblue" points="45.869,-333.641 42.3224,-323.658 38.8691,-333.674 45.869,-333.641"/>
</g>
<!-- Node11 -->
<g id="node3" class="node"><title>Node11</title>
<g id="a_node3"><a xlink:href="blackhole_8c.html" target="_top" xlink:title="routines for gas accretion onto black holes, and black hole mergers ">
<polygon fill="white" stroke="black" points="127.5,-570.5 127.5,-589.5 193.5,-589.5 193.5,-570.5 127.5,-570.5"/>
<text text-anchor="middle" x="160.5" y="-577.5" font-family="Helvetica,sans-Serif" font-size="10.00">blackhole.c</text>
</a>
</g>
</g>
<!-- Node9&#45;&gt;Node11 -->
<g id="edge2" class="edge"><title>Node9&#45;&gt;Node11</title>
<path fill="none" stroke="midnightblue" d="M43.3739,-333.901C46.3884,-379.523 59.7667,-492.951 119,-561 122.263,-564.749 126.426,-567.811 130.835,-570.296"/>
<polygon fill="midnightblue" stroke="midnightblue" points="46.8637,-333.62 42.8091,-323.832 39.8747,-334.012 46.8637,-333.62"/>
</g>
<!-- Node12 -->
<g id="node4" class="node"><title>Node12</title>
<g id="a_node4"><a xlink:href="density_8c.html" target="_top" xlink:title="SPH density computation and smoothing length determination. ">
<polygon fill="white" stroke="black" points="132.5,-532.5 132.5,-551.5 188.5,-551.5 188.5,-532.5 132.5,-532.5"/>
<text text-anchor="middle" x="160.5" y="-539.5" font-family="Helvetica,sans-Serif" font-size="10.00">density.c</text>
</a>
</g>
</g>
<!-- Node9&#45;&gt;Node12 -->
<g id="edge3" class="edge"><title>Node9&#45;&gt;Node12</title>
<path fill="none" stroke="midnightblue" d="M44.6991,-333.793C50.1619,-374.211 67.823,-467.122 119,-523 122.672,-527.009 127.364,-530.246 132.243,-532.834"/>
<polygon fill="midnightblue" stroke="midnightblue" points="48.1455,-333.144 43.4406,-323.651 41.1988,-334.006 48.1455,-333.144"/>
</g>
<!-- Node13 -->
<g id="node5" class="node"><title>Node13</title>
<g id="a_node5"><a xlink:href="domain_8c.html" target="_top" xlink:title="code for domain decomposition ">
<polygon fill="white" stroke="black" points="132.5,-494.5 132.5,-513.5 188.5,-513.5 188.5,-494.5 132.5,-494.5"/>
<text text-anchor="middle" x="160.5" y="-501.5" font-family="Helvetica,sans-Serif" font-size="10.00">domain.c</text>
</a>
</g>
</g>
<!-- Node9&#45;&gt;Node13 -->
<g id="edge4" class="edge"><title>Node9&#45;&gt;Node13</title>
<path fill="none" stroke="midnightblue" d="M46.5631,-333.725C54.6474,-368.463 75.8159,-441.032 119,-485 122.81,-488.879 127.564,-492.057 132.461,-494.627"/>
<polygon fill="midnightblue" stroke="midnightblue" points="49.9589,-332.871 44.3867,-323.86 43.1232,-334.379 49.9589,-332.871"/>
</g>
<!-- Node14 -->
<g id="node6" class="node"><title>Node14</title>
<g id="a_node6"><a xlink:href="drift_8c.html" target="_top" xlink:title="drift.c">
<polygon fill="white" stroke="black" points="140,-456.5 140,-475.5 181,-475.5 181,-456.5 140,-456.5"/>
<text text-anchor="middle" x="160.5" y="-463.5" font-family="Helvetica,sans-Serif" font-size="10.00">drift.c</text>
</a>
</g>
</g>
<!-- Node9&#45;&gt;Node14 -->
<g id="edge5" class="edge"><title>Node9&#45;&gt;Node14</title>
<path fill="none" stroke="midnightblue" d="M49.2339,-333.204C59.996,-361.452 83.5388,-414.377 119,-447 124.944,-452.469 132.743,-456.63 139.908,-459.643"/>
<polygon fill="midnightblue" stroke="midnightblue" points="52.4691,-331.86 45.7367,-323.679 45.8981,-334.273 52.4691,-331.86"/>
</g>
<!-- Node15 -->
<g id="node7" class="node"><title>Node15</title>
<g id="a_node7"><a xlink:href="exchange_8c.html" target="_top" xlink:title="exchange.c">
<polygon fill="white" stroke="black" points="127,-418.5 127,-437.5 194,-437.5 194,-418.5 127,-418.5"/>
<text text-anchor="middle" x="160.5" y="-425.5" font-family="Helvetica,sans-Serif" font-size="10.00">exchange.c</text>
</a>
</g>
</g>
<!-- Node9&#45;&gt;Node15 -->
<g id="edge6" class="edge"><title>Node9&#45;&gt;Node15</title>
<path fill="none" stroke="midnightblue" d="M53.4302,-332.083C66.7516,-352.885 90.9827,-386.996 119,-409 123.642,-412.646 129.097,-415.801 134.474,-418.437"/>
<polygon fill="midnightblue" stroke="midnightblue" points="56.3686,-330.18 48.1027,-323.553 50.4314,-333.888 56.3686,-330.18"/>
</g>
<!-- Node16 -->
<g id="node8" class="node"><title>Node16</title>
<g id="a_node8"><a xlink:href="fof_8c.html" target="_top" xlink:title="parallel FoF group finder ">
<polygon fill="white" stroke="black" points="142.5,-380.5 142.5,-399.5 178.5,-399.5 178.5,-380.5 142.5,-380.5"/>
<text text-anchor="middle" x="160.5" y="-387.5" font-family="Helvetica,sans-Serif" font-size="10.00">fof.c</text>
</a>
</g>
</g>
<!-- Node9&#45;&gt;Node16 -->
<g id="edge7" class="edge"><title>Node9&#45;&gt;Node16</title>
<path fill="none" stroke="midnightblue" d="M61.934,-330.204C76.956,-342.294 98.5686,-358.767 119,-371 126.33,-375.389 134.838,-379.514 142.159,-382.792"/>
<polygon fill="midnightblue" stroke="midnightblue" points="63.8705,-327.267 53.9097,-323.657 59.4452,-332.69 63.8705,-327.267"/>
</g>
<!-- Node17 -->
<g id="node9" class="node"><title>Node17</title>
<g id="a_node9"><a xlink:href="forcetree_8c.html" target="_top" xlink:title="gravitational tree and code for Ewald correction ">
<polygon fill="white" stroke="black" points="129,-342.5 129,-361.5 192,-361.5 192,-342.5 129,-342.5"/>
<text text-anchor="middle" x="160.5" y="-349.5" font-family="Helvetica,sans-Serif" font-size="10.00">forcetree.c</text>
</a>
</g>
</g>
<!-- Node9&#45;&gt;Node17 -->
<g id="edge8" class="edge"><title>Node9&#45;&gt;Node17</title>
<path fill="none" stroke="midnightblue" d="M81.5424,-326.68C97.3509,-331.815 115.299,-337.644 129.985,-342.414"/>
<polygon fill="midnightblue" stroke="midnightblue" points="82.6162,-323.349 72.024,-323.589 80.4538,-330.007 82.6162,-323.349"/>
</g>
<!-- Node18 -->
<g id="node10" class="node"><title>Node18</title>
<g id="a_node10"><a xlink:href="global_8c.html" target="_top" xlink:title="global.c">
<polygon fill="white" stroke="black" points="135.5,-304.5 135.5,-323.5 185.5,-323.5 185.5,-304.5 135.5,-304.5"/>
<text text-anchor="middle" x="160.5" y="-311.5" font-family="Helvetica,sans-Serif" font-size="10.00">global.c</text>
</a>
</g>
</g>
<!-- Node9&#45;&gt;Node18 -->
<g id="edge9" class="edge"><title>Node9&#45;&gt;Node18</title>
<path fill="none" stroke="midnightblue" d="M93.0946,-314C107.765,-314 123.111,-314 135.351,-314"/>
<polygon fill="midnightblue" stroke="midnightblue" points="93.0926,-310.5 83.0926,-314 93.0925,-317.5 93.0926,-310.5"/>
</g>
<!-- Node19 -->
<g id="node11" class="node"><title>Node19</title>
<g id="a_node11"><a xlink:href="hydra_8c.html" target="_top" xlink:title="Computation of SPH forces and rate of entropy generation. ">
<polygon fill="white" stroke="black" points="136,-266.5 136,-285.5 185,-285.5 185,-266.5 136,-266.5"/>
<text text-anchor="middle" x="160.5" y="-273.5" font-family="Helvetica,sans-Serif" font-size="10.00">hydra.c</text>
</a>
</g>
</g>
<!-- Node9&#45;&gt;Node19 -->
<g id="edge10" class="edge"><title>Node9&#45;&gt;Node19</title>
<path fill="none" stroke="midnightblue" d="M81.6722,-301.277C99.6366,-295.443 120.341,-288.718 135.876,-283.673"/>
<polygon fill="midnightblue" stroke="midnightblue" points="80.4538,-297.993 72.024,-304.411 82.6162,-304.651 80.4538,-297.993"/>
</g>
<!-- Node20 -->
<g id="node12" class="node"><title>Node20</title>
<g id="a_node12"><a xlink:href="init_8c.html" target="_top" xlink:title="code for initialisation of a simulation from initial conditions ">
<polygon fill="white" stroke="black" points="141.5,-228.5 141.5,-247.5 179.5,-247.5 179.5,-228.5 141.5,-228.5"/>
<text text-anchor="middle" x="160.5" y="-235.5" font-family="Helvetica,sans-Serif" font-size="10.00">init.c</text>
</a>
</g>
</g>
<!-- Node9&#45;&gt;Node20 -->
<g id="edge11" class="edge"><title>Node9&#45;&gt;Node20</title>
<path fill="none" stroke="midnightblue" d="M61.934,-297.796C76.956,-285.706 98.5686,-269.233 119,-257 126.063,-252.771 134.221,-248.786 141.356,-245.569"/>
<polygon fill="midnightblue" stroke="midnightblue" points="59.4452,-295.31 53.9097,-304.343 63.8705,-300.733 59.4452,-295.31"/>
</g>
<!-- Node21 -->
<g id="node13" class="node"><title>Node21</title>
<g id="a_node13"><a xlink:href="main_8c.html" target="_top" xlink:title="start of the program ">
<polygon fill="white" stroke="black" points="137.5,-190.5 137.5,-209.5 183.5,-209.5 183.5,-190.5 137.5,-190.5"/>
<text text-anchor="middle" x="160.5" y="-197.5" font-family="Helvetica,sans-Serif" font-size="10.00">main.c</text>
</a>
</g>
</g>
<!-- Node9&#45;&gt;Node21 -->
<g id="edge12" class="edge"><title>Node9&#45;&gt;Node21</title>
<path fill="none" stroke="midnightblue" d="M53.4302,-295.917C66.7516,-275.115 90.9827,-241.004 119,-219 124.497,-214.683 131.135,-211.053 137.432,-208.16"/>
<polygon fill="midnightblue" stroke="midnightblue" points="50.4314,-294.112 48.1027,-304.447 56.3686,-297.82 50.4314,-294.112"/>
</g>
<!-- Node22 -->
<g id="node14" class="node"><title>Node22</title>
<g id="a_node14"><a xlink:href="petaio_8c.html" target="_top" xlink:title="petaio.c">
<polygon fill="white" stroke="black" points="135,-152.5 135,-171.5 186,-171.5 186,-152.5 135,-152.5"/>
<text text-anchor="middle" x="160.5" y="-159.5" font-family="Helvetica,sans-Serif" font-size="10.00">petaio.c</text>
</a>
</g>
</g>
<!-- Node9&#45;&gt;Node22 -->
<g id="edge13" class="edge"><title>Node9&#45;&gt;Node22</title>
<path fill="none" stroke="midnightblue" d="M49.2339,-294.796C59.996,-266.548 83.5388,-213.623 119,-181 123.573,-176.793 129.242,-173.36 134.877,-170.628"/>
<polygon fill="midnightblue" stroke="midnightblue" points="45.8981,-293.727 45.7367,-304.321 52.4691,-296.14 45.8981,-293.727"/>
</g>
<!-- Node23 -->
<g id="node15" class="node"><title>Node23</title>
<g id="a_node15"><a xlink:href="run_8c.html" target="_top" xlink:title="iterates over timesteps, main loop ">
<polygon fill="white" stroke="black" points="141.5,-114.5 141.5,-133.5 179.5,-133.5 179.5,-114.5 141.5,-114.5"/>
<text text-anchor="middle" x="160.5" y="-121.5" font-family="Helvetica,sans-Serif" font-size="10.00">run.c</text>
</a>
</g>
</g>
<!-- Node9&#45;&gt;Node23 -->
<g id="edge14" class="edge"><title>Node9&#45;&gt;Node23</title>
<path fill="none" stroke="midnightblue" d="M46.5631,-294.275C54.6474,-259.537 75.8159,-186.968 119,-143 125.095,-136.794 133.609,-132.382 141.259,-129.381"/>
<polygon fill="midnightblue" stroke="midnightblue" points="43.1232,-293.621 44.3867,-304.14 49.9589,-295.129 43.1232,-293.621"/>
</g>
<!-- Node24 -->
<g id="node16" class="node"><title>Node24</title>
<g id="a_node16"><a xlink:href="sfr__eff_8c.html" target="_top" xlink:title="sfr_eff.c">
<polygon fill="white" stroke="black" points="134,-76.5 134,-95.5 187,-95.5 187,-76.5 134,-76.5"/>
<text text-anchor="middle" x="160.5" y="-83.5" font-family="Helvetica,sans-Serif" font-size="10.00">sfr_eff.c</text>
</a>
</g>
</g>
<!-- Node9&#45;&gt;Node24 -->
<g id="edge15" class="edge"><title>Node9&#45;&gt;Node24</title>
<path fill="none" stroke="midnightblue" d="M44.6991,-294.207C50.1619,-253.789 67.823,-160.878 119,-105 123.092,-100.533 128.45,-97.0237 133.923,-94.3039"/>
<polygon fill="midnightblue" stroke="midnightblue" points="41.1988,-293.994 43.4406,-304.349 48.1455,-294.856 41.1988,-293.994"/>
</g>
<!-- Node25 -->
<g id="node17" class="node"><title>Node25</title>
<g id="a_node17"><a xlink:href="slotsmanager_8c.html" target="_top" xlink:title="slotsmanager.c">
<polygon fill="white" stroke="black" points="119,-38.5 119,-57.5 202,-57.5 202,-38.5 119,-38.5"/>
<text text-anchor="middle" x="160.5" y="-45.5" font-family="Helvetica,sans-Serif" font-size="10.00">slotsmanager.c</text>
</a>
</g>
</g>
<!-- Node9&#45;&gt;Node25 -->
<g id="edge16" class="edge"><title>Node9&#45;&gt;Node25</title>
<path fill="none" stroke="midnightblue" d="M43.3739,-294.099C46.3884,-248.477 59.7667,-135.049 119,-67 122.263,-63.2508 126.426,-60.1887 130.835,-57.7045"/>
<polygon fill="midnightblue" stroke="midnightblue" points="39.8747,-293.988 42.8091,-304.168 46.8637,-294.38 39.8747,-293.988"/>
</g>
<!-- Node26 -->
<g id="node18" class="node"><title>Node26</title>
<g id="a_node18"><a xlink:href="timestep_8c.html" target="_top" xlink:title="routines for &#39;kicking&#39; particles in momentum space and assigning new timesteps ">
<polygon fill="white" stroke="black" points="129.5,-0.5 129.5,-19.5 191.5,-19.5 191.5,-0.5 129.5,-0.5"/>
<text text-anchor="middle" x="160.5" y="-7.5" font-family="Helvetica,sans-Serif" font-size="10.00">timestep.c</text>
</a>
</g>
</g>
<!-- Node9&#45;&gt;Node26 -->
<g id="edge17" class="edge"><title>Node9&#45;&gt;Node26</title>
<path fill="none" stroke="midnightblue" d="M42.3697,-294.182C43.0746,-243.875 51.5587,-109.527 119,-29 122.191,-25.1893 126.318,-22.0965 130.714,-19.6007"/>
<polygon fill="midnightblue" stroke="midnightblue" points="38.8691,-294.326 42.3224,-304.342 45.869,-294.359 38.8691,-294.326"/>
</g>
</g>
</svg>
