<?xml version="1.0" encoding="UTF-8" standalone="no"?>
<!DOCTYPE svg PUBLIC "-//W3C//DTD SVG 1.1//EN"
 "http://www.w3.org/Graphics/SVG/1.1/DTD/svg11.dtd">
<!-- Generated by graphviz version 2.38.0 (20140413.2041)
 -->
<!-- Title: slots_mark_garbage Pages: 1 -->
<svg width="1811pt" height="271pt"
 viewBox="0.00 0.00 1811.00 270.84" xmlns="http://www.w3.org/2000/svg" xmlns:xlink="http://www.w3.org/1999/xlink">
<g id="graph0" class="graph" transform="scale(1 1) rotate(0) translate(4 266.838)">
<title>slots_mark_garbage</title>
<polygon fill="white" stroke="none" points="-4,4 -4,-266.838 1807,-266.838 1807,4 -4,4"/>
<!-- Node118 -->
<g id="node1" class="node"><title>Node118</title>
<polygon fill="#bfbfbf" stroke="black" points="0,-48.3385 0,-67.3385 104,-67.3385 104,-48.3385 0,-48.3385"/>
<text text-anchor="middle" x="52" y="-55.3385" font-family="Helvetica,sans-Serif" font-size="10.00">slots_mark_garbage</text>
</g>
<!-- Node119 -->
<g id="node2" class="node"><title>Node119</title>
<g id="a_node2"><a xlink:href="sfr__eff_8c.html#a2d96bcfa1a035956535e5840d306744b" target="_top" xlink:title="cooling_direct">
<polygon fill="white" stroke="black" points="162.5,-25.3385 162.5,-44.3385 239.5,-44.3385 239.5,-25.3385 162.5,-25.3385"/>
<text text-anchor="middle" x="201" y="-32.3385" font-family="Helvetica,sans-Serif" font-size="10.00">cooling_direct</text>
</a>
</g>
</g>
<!-- Node118&#45;&gt;Node119 -->
<g id="edge1" class="edge"><title>Node118&#45;&gt;Node119</title>
<path fill="none" stroke="midnightblue" d="M114.004,-48.2937C130.292,-45.7452 147.423,-43.0648 162.071,-40.773"/>
<polygon fill="midnightblue" stroke="midnightblue" points="113.34,-44.8549 104.001,-49.8587 114.422,-51.7708 113.34,-44.8549"/>
</g>
<!-- Node127 -->
<g id="node10" class="node"><title>Node127</title>
<g id="a_node10"><a xlink:href="exchange_8c.html#a6ded41cc7c201a9d3e2d3cf47b207a29" target="_top" xlink:title="domain_exchange_once">
<polygon fill="white" stroke="black" points="140,-72.3385 140,-91.3385 262,-91.3385 262,-72.3385 140,-72.3385"/>
<text text-anchor="middle" x="201" y="-79.3385" font-family="Helvetica,sans-Serif" font-size="10.00">domain_exchange_once</text>
</a>
</g>
</g>
<!-- Node118&#45;&gt;Node127 -->
<g id="edge10" class="edge"><title>Node118&#45;&gt;Node127</title>
<path fill="none" stroke="midnightblue" d="M113.879,-67.778C123.109,-69.2848 132.611,-70.8362 141.782,-72.3335"/>
<polygon fill="midnightblue" stroke="midnightblue" points="114.434,-64.3223 104.001,-66.1651 113.306,-71.2308 114.434,-64.3223"/>
</g>
<!-- Node120 -->
<g id="node3" class="node"><title>Node120</title>
<g id="a_node3"><a xlink:href="sfr__eff_8c.html#aec2d4b18a02ca0bbca8111e41fae0248" target="_top" xlink:title="cool_postprocess">
<polygon fill="white" stroke="black" points="299,-20.3385 299,-39.3385 392,-39.3385 392,-20.3385 299,-20.3385"/>
<text text-anchor="middle" x="345.5" y="-27.3385" font-family="Helvetica,sans-Serif" font-size="10.00">cool_postprocess</text>
</a>
</g>
</g>
<!-- Node119&#45;&gt;Node120 -->
<g id="edge2" class="edge"><title>Node119&#45;&gt;Node120</title>
<path fill="none" stroke="midnightblue" d="M249.916,-33.1572C265.725,-32.6025 283.257,-31.9874 298.889,-31.4389"/>
<polygon fill="midnightblue" stroke="midnightblue" points="249.684,-29.6631 239.813,-33.5117 249.93,-36.6588 249.684,-29.6631"/>
</g>
<!-- Node121 -->
<g id="node4" class="node"><title>Node121</title>
<g id="a_node4"><a xlink:href="sfr__eff_8h.html#aaa7b178a168a5d23b2cfe478ebc58ee1" target="_top" xlink:title="cooling_only">
<polygon fill="white" stroke="black" points="451,-15.3385 451,-34.3385 522,-34.3385 522,-15.3385 451,-15.3385"/>
<text text-anchor="middle" x="486.5" y="-22.3385" font-family="Helvetica,sans-Serif" font-size="10.00">cooling_only</text>
</a>
</g>
</g>
<!-- Node120&#45;&gt;Node121 -->
<g id="edge3" class="edge"><title>Node120&#45;&gt;Node121</title>
<path fill="none" stroke="midnightblue" d="M402.104,-27.8383C418.592,-27.2452 436.168,-26.613 450.912,-26.0827"/>
<polygon fill="midnightblue" stroke="midnightblue" points="401.881,-24.344 392.014,-28.2013 402.133,-31.3394 401.881,-24.344"/>
</g>
<!-- Node122 -->
<g id="node5" class="node"><title>Node122</title>
<g id="a_node5"><a xlink:href="run_8c.html#abb80d08f4d52f4a7bdf28d1cecfead5b" target="_top" xlink:title="compute_accelerations">
<polygon fill="white" stroke="black" points="849.5,-15.3385 849.5,-34.3385 966.5,-34.3385 966.5,-15.3385 849.5,-15.3385"/>
<text text-anchor="middle" x="908" y="-22.3385" font-family="Helvetica,sans-Serif" font-size="10.00">compute_accelerations</text>
</a>
</g>
</g>
<!-- Node121&#45;&gt;Node122 -->
<g id="edge4" class="edge"><title>Node121&#45;&gt;Node122</title>
<path fill="none" stroke="midnightblue" d="M532.451,-24.8385C609.029,-24.8385 764.685,-24.8385 849.225,-24.8385"/>
<polygon fill="midnightblue" stroke="midnightblue" points="532.186,-21.3386 522.186,-24.8385 532.186,-28.3386 532.186,-21.3386"/>
</g>
<!-- Node123 -->
<g id="node6" class="node"><title>Node123</title>
<g id="a_node6"><a xlink:href="run_8c.html#a05e0ffe612d44e6d7f3a9ae5b9df56a2" target="_top" xlink:title="run">
<polygon fill="white" stroke="black" points="1456,-91.3385 1456,-110.338 1486,-110.338 1486,-91.3385 1456,-91.3385"/>
<text text-anchor="middle" x="1471" y="-98.3385" font-family="Helvetica,sans-Serif" font-size="10.00">run</text>
</a>
</g>
</g>
<!-- Node122&#45;&gt;Node123 -->
<g id="edge5" class="edge"><title>Node122&#45;&gt;Node123</title>
<path fill="none" stroke="midnightblue" d="M971.178,-13.7982C1068.75,0.644709 1261.85,17.4659 1409,-43.8385 1432.82,-53.7604 1453,-77.4418 1463.09,-90.9516"/>
<polygon fill="midnightblue" stroke="midnightblue" points="970.544,-10.3543 961.185,-15.3191 971.598,-17.2746 970.544,-10.3543"/>
</g>
<!-- Node124 -->
<g id="node7" class="node"><title>Node124</title>
<g id="a_node7"><a xlink:href="main_8c.html#a3c04138a5bfe5d72780bb7e82a18e627" target="_top" xlink:title="main">
<polygon fill="white" stroke="black" points="1533,-129.338 1533,-148.338 1571,-148.338 1571,-129.338 1533,-129.338"/>
<text text-anchor="middle" x="1552" y="-136.338" font-family="Helvetica,sans-Serif" font-size="10.00">main</text>
</a>
</g>
</g>
<!-- Node123&#45;&gt;Node124 -->
<g id="edge6" class="edge"><title>Node123&#45;&gt;Node124</title>
<path fill="none" stroke="midnightblue" d="M1495.48,-112.135C1507.43,-117.882 1521.73,-124.761 1532.83,-130.097"/>
<polygon fill="midnightblue" stroke="midnightblue" points="1496.65,-108.813 1486.12,-107.632 1493.62,-115.121 1496.65,-108.813"/>
</g>
<!-- Node125 -->
<g id="node8" class="node"><title>Node125</title>
<g id="a_node8"><a xlink:href="walltime_8h.html#a76d2135b612766d4d665748454b879d6" target="_top" xlink:title="walltime_report">
<polygon fill="white" stroke="black" points="1607,-129.338 1607,-148.338 1690,-148.338 1690,-129.338 1607,-129.338"/>
<text text-anchor="middle" x="1648.5" y="-136.338" font-family="Helvetica,sans-Serif" font-size="10.00">walltime_report</text>
</a>
</g>
</g>
<!-- Node124&#45;&gt;Node125 -->
<g id="edge7" class="edge"><title>Node124&#45;&gt;Node125</title>
<path fill="none" stroke="midnightblue" d="M1581.41,-138.838C1589.35,-138.838 1598.13,-138.838 1606.63,-138.838"/>
<polygon fill="midnightblue" stroke="midnightblue" points="1581.22,-135.339 1571.22,-138.838 1581.22,-142.339 1581.22,-135.339"/>
</g>
<!-- Node126 -->
<g id="node9" class="node"><title>Node126</title>
<g id="a_node9"><a xlink:href="run_8c.html#adc59e9ee1517e4e690694a64ab6a59d2" target="_top" xlink:title="write_cpu_log">
<polygon fill="white" stroke="black" points="1726,-110.338 1726,-129.338 1803,-129.338 1803,-110.338 1726,-110.338"/>
<text text-anchor="middle" x="1764.5" y="-117.338" font-family="Helvetica,sans-Serif" font-size="10.00">write_cpu_log</text>
</a>
</g>
</g>
<!-- Node125&#45;&gt;Node126 -->
<g id="edge8" class="edge"><title>Node125&#45;&gt;Node126</title>
<path fill="none" stroke="midnightblue" d="M1700.03,-130.417C1708.68,-128.974 1717.54,-127.499 1725.78,-126.124"/>
<polygon fill="midnightblue" stroke="midnightblue" points="1699.3,-126.99 1690.01,-132.086 1700.45,-133.895 1699.3,-126.99"/>
</g>
<!-- Node126&#45;&gt;Node123 -->
<g id="edge9" class="edge"><title>Node126&#45;&gt;Node123</title>
<path fill="none" stroke="midnightblue" d="M1715.77,-116.727C1647.86,-112.301 1527.06,-104.427 1486.06,-101.755"/>
<polygon fill="midnightblue" stroke="midnightblue" points="1715.58,-120.222 1725.79,-117.38 1716.04,-113.237 1715.58,-120.222"/>
</g>
<!-- Node128 -->
<g id="node11" class="node"><title>Node128</title>
<g id="a_node11"><a xlink:href="exchange_8h.html#a299bb3cc6ca0e0353d2aa66bcc8d91ca" target="_top" xlink:title="domain_exchange">
<polygon fill="white" stroke="black" points="298,-91.3385 298,-110.338 393,-110.338 393,-91.3385 298,-91.3385"/>
<text text-anchor="middle" x="345.5" y="-98.3385" font-family="Helvetica,sans-Serif" font-size="10.00">domain_exchange</text>
</a>
</g>
</g>
<!-- Node127&#45;&gt;Node128 -->
<g id="edge11" class="edge"><title>Node127&#45;&gt;Node128</title>
<path fill="none" stroke="midnightblue" d="M271.947,-91.1648C280.776,-92.342 289.632,-93.5227 297.971,-94.6346"/>
<polygon fill="midnightblue" stroke="midnightblue" points="272.395,-87.6935 262.02,-89.8411 271.469,-94.6321 272.395,-87.6935"/>
</g>
<!-- Node129 -->
<g id="node12" class="node"><title>Node129</title>
<g id="a_node12"><a xlink:href="domain_8h.html#a168c36ec12faca23e23395b6a13d2037" target="_top" xlink:title="domain_decompose_full">
<polygon fill="white" stroke="black" points="1161,-91.3385 1161,-110.338 1283,-110.338 1283,-91.3385 1161,-91.3385"/>
<text text-anchor="middle" x="1222" y="-98.3385" font-family="Helvetica,sans-Serif" font-size="10.00">domain_decompose_full</text>
</a>
</g>
</g>
<!-- Node128&#45;&gt;Node129 -->
<g id="edge12" class="edge"><title>Node128&#45;&gt;Node129</title>
<path fill="none" stroke="midnightblue" d="M403.342,-100.838C460.008,-100.838 549.523,-100.838 627,-100.838 627,-100.838 627,-100.838 909,-100.838 996.615,-100.838 1098.07,-100.838 1160.9,-100.838"/>
<polygon fill="midnightblue" stroke="midnightblue" points="403.154,-97.3386 393.154,-100.838 403.154,-104.339 403.154,-97.3386"/>
</g>
<!-- Node130 -->
<g id="node13" class="node"><title>Node130</title>
<g id="a_node13"><a xlink:href="domain_8h.html#acf7b74bdcb6563a4603538914fc16157" target="_top" xlink:title="domain_maintain">
<polygon fill="white" stroke="black" points="1319,-53.3385 1319,-72.3385 1409,-72.3385 1409,-53.3385 1319,-53.3385"/>
<text text-anchor="middle" x="1364" y="-60.3385" font-family="Helvetica,sans-Serif" font-size="10.00">domain_maintain</text>
</a>
</g>
</g>
<!-- Node128&#45;&gt;Node130 -->
<g id="edge21" class="edge"><title>Node128&#45;&gt;Node130</title>
<path fill="none" stroke="midnightblue" d="M400.064,-89.2146C456.297,-78.041 547.427,-62.8385 627,-62.8385 627,-62.8385 627,-62.8385 1069,-62.8385 1157.56,-62.8385 1261.12,-62.8385 1318.67,-62.8385"/>
<polygon fill="midnightblue" stroke="midnightblue" points="399.09,-85.8403 389.98,-91.2495 400.475,-92.702 399.09,-85.8403"/>
</g>
<!-- Node134 -->
<g id="node17" class="node"><title>Node134</title>
<g id="a_node17"><a xlink:href="fofpetaio_8c.html#adeaedcc6bf73d7750d9b5c8871c682d9" target="_top" xlink:title="fof_distribute_particles">
<polygon fill="white" stroke="black" points="429,-167.338 429,-186.338 544,-186.338 544,-167.338 429,-167.338"/>
<text text-anchor="middle" x="486.5" y="-174.338" font-family="Helvetica,sans-Serif" font-size="10.00">fof_distribute_particles</text>
</a>
</g>
</g>
<!-- Node128&#45;&gt;Node134 -->
<g id="edge22" class="edge"><title>Node128&#45;&gt;Node134</title>
<path fill="none" stroke="midnightblue" d="M366.251,-116.852C382.375,-129.325 406.149,-146.389 429,-157.838 436.217,-161.455 444.281,-164.631 452.006,-167.3"/>
<polygon fill="midnightblue" stroke="midnightblue" points="368.157,-113.898 358.135,-110.46 363.825,-119.397 368.157,-113.898"/>
</g>
<!-- Node142 -->
<g id="node25" class="node"><title>Node142</title>
<g id="a_node25"><a xlink:href="fofpetaio_8c.html#a039a9030108427652142d7ee5701b098" target="_top" xlink:title="fof_return_particles">
<polygon fill="white" stroke="black" points="436.5,-129.338 436.5,-148.338 536.5,-148.338 536.5,-129.338 436.5,-129.338"/>
<text text-anchor="middle" x="486.5" y="-136.338" font-family="Helvetica,sans-Serif" font-size="10.00">fof_return_particles</text>
</a>
</g>
</g>
<!-- Node128&#45;&gt;Node142 -->
<g id="edge35" class="edge"><title>Node128&#45;&gt;Node142</title>
<path fill="none" stroke="midnightblue" d="M391.295,-113.085C410.455,-118.323 432.494,-124.348 450.436,-129.253"/>
<polygon fill="midnightblue" stroke="midnightblue" points="392.145,-109.688 381.576,-110.427 390.299,-116.441 392.145,-109.688"/>
</g>
<!-- Node129&#45;&gt;Node123 -->
<g id="edge18" class="edge"><title>Node129&#45;&gt;Node123</title>
<path fill="none" stroke="midnightblue" d="M1293.44,-100.838C1350.01,-100.838 1424.91,-100.838 1455.78,-100.838"/>
<polygon fill="midnightblue" stroke="midnightblue" points="1293.11,-97.3386 1283.11,-100.838 1293.11,-104.339 1293.11,-97.3386"/>
</g>
<!-- Node129&#45;&gt;Node130 -->
<g id="edge13" class="edge"><title>Node129&#45;&gt;Node130</title>
<path fill="none" stroke="midnightblue" d="M1268.12,-88.5923C1287.41,-83.3544 1309.61,-77.3294 1327.68,-72.4244"/>
<polygon fill="midnightblue" stroke="midnightblue" points="1267.06,-85.2521 1258.33,-91.2495 1268.9,-92.0077 1267.06,-85.2521"/>
</g>
<!-- Node131 -->
<g id="node14" class="node"><title>Node131</title>
<g id="a_node14"><a xlink:href="proto_8h.html#ab080cb20bac2a1a6153a84e8cfd15374" target="_top" xlink:title="init">
<polygon fill="white" stroke="black" points="1349.5,-129.338 1349.5,-148.338 1378.5,-148.338 1378.5,-129.338 1349.5,-129.338"/>
<text text-anchor="middle" x="1364" y="-136.338" font-family="Helvetica,sans-Serif" font-size="10.00">init</text>
</a>
</g>
</g>
<!-- Node129&#45;&gt;Node131 -->
<g id="edge15" class="edge"><title>Node129&#45;&gt;Node131</title>
<path fill="none" stroke="midnightblue" d="M1267.99,-113.049C1296.13,-120.688 1330.49,-130.013 1349.21,-135.095"/>
<polygon fill="midnightblue" stroke="midnightblue" points="1268.9,-109.669 1258.33,-110.427 1267.06,-116.425 1268.9,-109.669"/>
</g>
<!-- Node133 -->
<g id="node16" class="node"><title>Node133</title>
<g id="a_node16"><a xlink:href="runtests_8c.html#a549024555ca61e3f05a7100307e44f69" target="_top" xlink:title="runtests">
<polygon fill="white" stroke="black" points="1445,-167.338 1445,-186.338 1497,-186.338 1497,-167.338 1445,-167.338"/>
<text text-anchor="middle" x="1471" y="-174.338" font-family="Helvetica,sans-Serif" font-size="10.00">runtests</text>
</a>
</g>
</g>
<!-- Node129&#45;&gt;Node133 -->
<g id="edge19" class="edge"><title>Node129&#45;&gt;Node133</title>
<path fill="none" stroke="midnightblue" d="M1243.5,-116.43C1262.15,-129.742 1290.95,-148.217 1319,-157.838 1361.61,-172.457 1414.44,-176.031 1444.98,-176.788"/>
<polygon fill="midnightblue" stroke="midnightblue" points="1245.36,-113.447 1235.22,-110.37 1241.22,-119.098 1245.36,-113.447"/>
</g>
<!-- Node130&#45;&gt;Node123 -->
<g id="edge14" class="edge"><title>Node130&#45;&gt;Node123</title>
<path fill="none" stroke="midnightblue" d="M1400.99,-75.8638C1419.81,-82.6745 1441.78,-90.6255 1455.78,-95.6939"/>
<polygon fill="midnightblue" stroke="midnightblue" points="1402.09,-72.5395 1391.5,-72.4275 1399.71,-79.1217 1402.09,-72.5395"/>
</g>
<!-- Node132 -->
<g id="node15" class="node"><title>Node132</title>
<g id="a_node15"><a xlink:href="proto_8h.html#a74dc0e5e9eefe11fc8434b62de573146" target="_top" xlink:title="begrun">
<polygon fill="white" stroke="black" points="1448,-129.338 1448,-148.338 1494,-148.338 1494,-129.338 1448,-129.338"/>
<text text-anchor="middle" x="1471" y="-136.338" font-family="Helvetica,sans-Serif" font-size="10.00">begrun</text>
</a>
</g>
</g>
<!-- Node131&#45;&gt;Node132 -->
<g id="edge16" class="edge"><title>Node131&#45;&gt;Node132</title>
<path fill="none" stroke="midnightblue" d="M1388.83,-138.838C1406.54,-138.838 1430.53,-138.838 1447.84,-138.838"/>
<polygon fill="midnightblue" stroke="midnightblue" points="1388.73,-135.339 1378.73,-138.838 1388.73,-142.339 1388.73,-135.339"/>
</g>
<!-- Node132&#45;&gt;Node124 -->
<g id="edge17" class="edge"><title>Node132&#45;&gt;Node124</title>
<path fill="none" stroke="midnightblue" d="M1504.23,-138.838C1513.99,-138.838 1524.35,-138.838 1532.84,-138.838"/>
<polygon fill="midnightblue" stroke="midnightblue" points="1504.01,-135.339 1494.01,-138.838 1504.01,-142.339 1504.01,-135.339"/>
</g>
<!-- Node133&#45;&gt;Node124 -->
<g id="edge20" class="edge"><title>Node133&#45;&gt;Node124</title>
<path fill="none" stroke="midnightblue" d="M1500.97,-162.903C1511.68,-157.752 1523.5,-152.066 1532.96,-147.515"/>
<polygon fill="midnightblue" stroke="midnightblue" points="1499.43,-159.761 1491.94,-167.249 1502.46,-166.069 1499.43,-159.761"/>
</g>
<!-- Node135 -->
<g id="node18" class="node"><title>Node135</title>
<g id="a_node18"><a xlink:href="fofpetaio_8c.html#ae9bc2119aed92e2556b9ad427e646b45" target="_top" xlink:title="fof_save_particles">
<polygon fill="white" stroke="black" points="580,-167.338 580,-186.338 676,-186.338 676,-167.338 580,-167.338"/>
<text text-anchor="middle" x="628" y="-174.338" font-family="Helvetica,sans-Serif" font-size="10.00">fof_save_particles</text>
</a>
</g>
</g>
<!-- Node134&#45;&gt;Node135 -->
<g id="edge23" class="edge"><title>Node134&#45;&gt;Node135</title>
<path fill="none" stroke="midnightblue" d="M554.259,-176.838C562.844,-176.838 571.49,-176.838 579.674,-176.838"/>
<polygon fill="midnightblue" stroke="midnightblue" points="554.24,-173.339 544.24,-176.838 554.24,-180.339 554.24,-173.339"/>
</g>
<!-- Node136 -->
<g id="node19" class="node"><title>Node136</title>
<g id="a_node19"><a xlink:href="fof_8c.html#aa0d13cc94e97083dfd468ed33331eed7" target="_top" xlink:title="fof_periodic_wrap">
<polygon fill="white" stroke="black" points="712,-224.338 712,-243.338 805,-243.338 805,-224.338 712,-224.338"/>
<text text-anchor="middle" x="758.5" y="-231.338" font-family="Helvetica,sans-Serif" font-size="10.00">fof_periodic_wrap</text>
</a>
</g>
</g>
<!-- Node135&#45;&gt;Node136 -->
<g id="edge24" class="edge"><title>Node135&#45;&gt;Node136</title>
<path fill="none" stroke="midnightblue" d="M659.7,-190.457C683.21,-200.885 715.049,-215.008 735.922,-224.267"/>
<polygon fill="midnightblue" stroke="midnightblue" points="661.068,-187.234 650.508,-186.379 658.23,-193.633 661.068,-187.234"/>
</g>
<!-- Node141 -->
<g id="node24" class="node"><title>Node141</title>
<g id="a_node24"><a xlink:href="fof_8h.html#ad08d3c5fd1cf1f78c75a17330a8e0348" target="_top" xlink:title="fof_save_groups">
<polygon fill="white" stroke="black" points="1023.5,-176.338 1023.5,-195.338 1112.5,-195.338 1112.5,-176.338 1023.5,-176.338"/>
<text text-anchor="middle" x="1068" y="-183.338" font-family="Helvetica,sans-Serif" font-size="10.00">fof_save_groups</text>
</a>
</g>
</g>
<!-- Node135&#45;&gt;Node141 -->
<g id="edge33" class="edge"><title>Node135&#45;&gt;Node141</title>
<path fill="none" stroke="midnightblue" d="M686.455,-178.019C775.285,-179.844 943.996,-183.311 1023.49,-184.945"/>
<polygon fill="midnightblue" stroke="midnightblue" points="686.36,-174.516 676.29,-177.81 686.216,-181.515 686.36,-174.516"/>
</g>
<!-- Node137 -->
<g id="node20" class="node"><title>Node137</title>
<g id="a_node20"><a xlink:href="fof_8c.html#a36336d505e8a4fb8e8fdaf9a796e40d4" target="_top" xlink:title="fof_finish_group_properties">
<polygon fill="white" stroke="black" points="841,-243.338 841,-262.338 975,-262.338 975,-243.338 841,-243.338"/>
<text text-anchor="middle" x="908" y="-250.338" font-family="Helvetica,sans-Serif" font-size="10.00">fof_finish_group_properties</text>
</a>
</g>
</g>
<!-- Node136&#45;&gt;Node137 -->
<g id="edge25" class="edge"><title>Node136&#45;&gt;Node137</title>
<path fill="none" stroke="midnightblue" d="M815.361,-234.464C836.124,-236.714 858.901,-239.976 876.553,-243.331"/>
<polygon fill="midnightblue" stroke="midnightblue" points="815.665,-230.977 805.361,-233.445 814.955,-237.941 815.665,-230.977"/>
</g>
<!-- Node137&#45;&gt;Node136 -->
<g id="edge32" class="edge"><title>Node137&#45;&gt;Node136</title>
<path fill="none" stroke="midnightblue" d="M830.887,-249.781C816.413,-247.879 802.06,-245.645 790.062,-243.368"/>
<polygon fill="midnightblue" stroke="midnightblue" points="830.541,-253.265 840.9,-251.041 831.415,-246.32 830.541,-253.265"/>
</g>
<!-- Node138 -->
<g id="node21" class="node"><title>Node138</title>
<g id="a_node21"><a xlink:href="fof_8c.html#ae4b5e05b1f0225637629759a9e2ba72e" target="_top" xlink:title="fof_compile_catalogue">
<polygon fill="white" stroke="black" points="1011,-224.338 1011,-243.338 1125,-243.338 1125,-224.338 1011,-224.338"/>
<text text-anchor="middle" x="1068" y="-231.338" font-family="Helvetica,sans-Serif" font-size="10.00">fof_compile_catalogue</text>
</a>
</g>
</g>
<!-- Node137&#45;&gt;Node138 -->
<g id="edge26" class="edge"><title>Node137&#45;&gt;Node138</title>
<path fill="none" stroke="midnightblue" d="M985.15,-243.681C993.757,-242.646 1002.41,-241.606 1010.7,-240.609"/>
<polygon fill="midnightblue" stroke="midnightblue" points="984.601,-240.222 975.091,-244.891 985.437,-247.172 984.601,-240.222"/>
</g>
<!-- Node138&#45;&gt;Node136 -->
<g id="edge31" class="edge"><title>Node138&#45;&gt;Node136</title>
<path fill="none" stroke="midnightblue" d="M1000.52,-233.838C941.525,-233.838 856.893,-233.838 805.204,-233.838"/>
<polygon fill="midnightblue" stroke="midnightblue" points="1000.86,-237.339 1010.86,-233.838 1000.86,-230.339 1000.86,-237.339"/>
</g>
<!-- Node139 -->
<g id="node22" class="node"><title>Node139</title>
<g id="a_node22"><a xlink:href="fof_8h.html#a7f10d50a8e07ce0bb67ffdfaf904d7c8" target="_top" xlink:title="fof_fof">
<polygon fill="white" stroke="black" points="1200,-224.338 1200,-243.338 1244,-243.338 1244,-224.338 1200,-224.338"/>
<text text-anchor="middle" x="1222" y="-231.338" font-family="Helvetica,sans-Serif" font-size="10.00">fof_fof</text>
</a>
</g>
</g>
<!-- Node138&#45;&gt;Node139 -->
<g id="edge27" class="edge"><title>Node138&#45;&gt;Node139</title>
<path fill="none" stroke="midnightblue" d="M1135.38,-233.838C1158.62,-233.838 1183.09,-233.838 1199.89,-233.838"/>
<polygon fill="midnightblue" stroke="midnightblue" points="1135.17,-230.339 1125.17,-233.838 1135.17,-237.339 1135.17,-230.339"/>
</g>
<!-- Node139&#45;&gt;Node124 -->
<g id="edge28" class="edge"><title>Node139&#45;&gt;Node124</title>
<path fill="none" stroke="midnightblue" d="M1254.44,-237.677C1291.74,-241.353 1355.61,-244.874 1409,-233.838 1450.72,-225.216 1462.08,-220.245 1497,-195.838 1516.44,-182.25 1534.4,-160.801 1543.91,-148.454"/>
<polygon fill="midnightblue" stroke="midnightblue" points="1254.51,-234.165 1244.2,-236.597 1253.78,-241.127 1254.51,-234.165"/>
</g>
<!-- Node140 -->
<g id="node23" class="node"><title>Node140</title>
<g id="a_node23"><a xlink:href="proto_8h.html#a312b6a02f7cde171412989ea5f9be48f" target="_top" xlink:title="write_checkpoint">
<polygon fill="white" stroke="black" points="1319,-205.338 1319,-224.338 1409,-224.338 1409,-205.338 1319,-205.338"/>
<text text-anchor="middle" x="1364" y="-212.338" font-family="Helvetica,sans-Serif" font-size="10.00">write_checkpoint</text>
</a>
</g>
</g>
<!-- Node139&#45;&gt;Node140 -->
<g id="edge29" class="edge"><title>Node139&#45;&gt;Node140</title>
<path fill="none" stroke="midnightblue" d="M1254.21,-229.603C1273.25,-227.019 1297.89,-223.675 1318.9,-220.824"/>
<polygon fill="midnightblue" stroke="midnightblue" points="1253.7,-226.14 1244.26,-230.953 1254.64,-233.076 1253.7,-226.14"/>
</g>
<!-- Node140&#45;&gt;Node123 -->
<g id="edge30" class="edge"><title>Node140&#45;&gt;Node123</title>
<path fill="none" stroke="midnightblue" d="M1378.19,-196.884C1393.24,-176.984 1419.12,-144.453 1445,-119.838 1448.48,-116.532 1452.52,-113.254 1456.32,-110.375"/>
<polygon fill="midnightblue" stroke="midnightblue" points="1375.26,-194.959 1372.08,-205.065 1380.87,-199.149 1375.26,-194.959"/>
</g>
<!-- Node141&#45;&gt;Node140 -->
<g id="edge34" class="edge"><title>Node141&#45;&gt;Node140</title>
<path fill="none" stroke="midnightblue" d="M1122.82,-191.147C1179.02,-196.691 1266.16,-205.286 1318.58,-210.457"/>
<polygon fill="midnightblue" stroke="midnightblue" points="1122.99,-187.647 1112.7,-190.149 1122.31,-194.614 1122.99,-187.647"/>
</g>
<!-- Node142&#45;&gt;Node135 -->
<g id="edge36" class="edge"><title>Node142&#45;&gt;Node135</title>
<path fill="none" stroke="midnightblue" d="M532.456,-151.085C551.685,-156.323 573.803,-162.348 591.81,-167.253"/>
<polygon fill="midnightblue" stroke="midnightblue" points="533.27,-147.679 522.702,-148.427 531.43,-154.433 533.27,-147.679"/>
</g>
</g>
</svg>
