<?xml version="1.0" encoding="UTF-8" standalone="no"?>
<!DOCTYPE svg PUBLIC "-//W3C//DTD SVG 1.1//EN"
 "http://www.w3.org/Graphics/SVG/1.1/DTD/svg11.dtd">
<!-- Generated by graphviz version 2.38.0 (20140413.2041)
 -->
<!-- Title: slotsmanager.h Pages: 1 -->
<svg width="209pt" height="171pt"
 viewBox="0.00 0.00 209.35 171.39" xmlns="http://www.w3.org/2000/svg" xmlns:xlink="http://www.w3.org/1999/xlink">
<g id="graph0" class="graph" transform="scale(1 1) rotate(0) translate(4 167.386)">
<title>slotsmanager.h</title>
<polygon fill="white" stroke="none" points="-4,4 -4,-167.386 205.354,-167.386 205.354,4 -4,4"/>
<!-- Node9 -->
<g id="node1" class="node"><title>Node9</title>
<polygon fill="#bfbfbf" stroke="black" points="57.138,-72.1929 57.138,-91.1929 140.138,-91.1929 140.138,-72.1929 57.138,-72.1929"/>
<text text-anchor="middle" x="98.638" y="-79.1929" font-family="Helvetica,sans-Serif" font-size="10.00">slotsmanager.h</text>
</g>
<!-- Node10 -->
<g id="node2" class="node"><title>Node10</title>
<g id="a_node2"><a xlink:href="begrun_8c.html" target="_top" xlink:title="initial set&#45;up of a simulation run ">
<polygon fill="white" stroke="black" points="142.412,-85.4228 142.412,-104.423 196.412,-104.423 196.412,-85.4228 142.412,-85.4228"/>
<text text-anchor="middle" x="169.412" y="-92.4228" font-family="Helvetica,sans-Serif" font-size="10.00">begrun.c</text>
</a>
</g>
</g>
<!-- Node9&#45;&gt;Node10 -->
<g id="edge1" class="edge"><title>Node9&#45;&gt;Node10</title>
<path fill="none" stroke="midnightblue" d="M142.104,-89.818C142.193,-89.8347 142.282,-89.8514 142.371,-89.8681"/>
<polygon fill="midnightblue" stroke="midnightblue" points="150.69,-87.8628 140.217,-89.4653 149.403,-94.7436 150.69,-87.8628"/>
</g>
<!-- Node11 -->
<g id="node3" class="node"><title>Node11</title>
<g id="a_node3"><a xlink:href="blackhole_8c.html" target="_top" xlink:title="routines for gas accretion onto black holes, and black hole mergers ">
<polygon fill="white" stroke="black" points="126.854,-110.096 126.854,-129.096 192.854,-129.096 192.854,-110.096 126.854,-110.096"/>
<text text-anchor="middle" x="159.854" y="-117.096" font-family="Helvetica,sans-Serif" font-size="10.00">blackhole.c</text>
</a>
</g>
</g>
<!-- Node9&#45;&gt;Node11 -->
<g id="edge2" class="edge"><title>Node9&#45;&gt;Node11</title>
<path fill="none" stroke="midnightblue" d="M122.807,-96.658C130.004,-101.114 137.698,-105.878 144.198,-109.903"/>
<polygon fill="midnightblue" stroke="midnightblue" points="124.43,-93.546 114.085,-91.2574 120.745,-99.4976 124.43,-93.546"/>
</g>
<!-- Node12 -->
<g id="node4" class="node"><title>Node12</title>
<g id="a_node4"><a xlink:href="density_8c.html" target="_top" xlink:title="SPH density computation and smoothing length determination. ">
<polygon fill="white" stroke="black" points="114.028,-129.65 114.028,-148.65 170.028,-148.65 170.028,-129.65 114.028,-129.65"/>
<text text-anchor="middle" x="142.028" y="-136.65" font-family="Helvetica,sans-Serif" font-size="10.00">density.c</text>
</a>
</g>
</g>
<!-- Node9&#45;&gt;Node12 -->
<g id="edge3" class="edge"><title>Node9&#45;&gt;Node12</title>
<path fill="none" stroke="midnightblue" d="M112.073,-99.4843C119.565,-109.405 128.601,-121.37 134.776,-129.547"/>
<polygon fill="midnightblue" stroke="midnightblue" points="114.818,-97.3107 105.998,-91.4397 109.232,-101.529 114.818,-97.3107"/>
</g>
<!-- Node13 -->
<g id="node5" class="node"><title>Node13</title>
<g id="a_node5"><a xlink:href="domain_8c.html" target="_top" xlink:title="code for domain decomposition ">
<polygon fill="white" stroke="black" points="90.3417,-141.444 90.3417,-160.444 146.342,-160.444 146.342,-141.444 90.3417,-141.444"/>
<text text-anchor="middle" x="118.342" y="-148.444" font-family="Helvetica,sans-Serif" font-size="10.00">domain.c</text>
</a>
</g>
</g>
<!-- Node9&#45;&gt;Node13 -->
<g id="edge4" class="edge"><title>Node9&#45;&gt;Node13</title>
<path fill="none" stroke="midnightblue" d="M104.212,-101.283C107.944,-114.402 112.694,-131.094 115.625,-141.397"/>
<polygon fill="midnightblue" stroke="midnightblue" points="107.481,-99.9824 101.378,-91.322 100.748,-101.898 107.481,-99.9824"/>
</g>
<!-- Node14 -->
<g id="node6" class="node"><title>Node14</title>
<g id="a_node6"><a xlink:href="drift_8c.html" target="_top" xlink:title="drift.c">
<polygon fill="white" stroke="black" points="71.4947,-143.886 71.4947,-162.886 112.495,-162.886 112.495,-143.886 71.4947,-143.886"/>
<text text-anchor="middle" x="91.9947" y="-150.886" font-family="Helvetica,sans-Serif" font-size="10.00">drift.c</text>
</a>
</g>
</g>
<!-- Node9&#45;&gt;Node14 -->
<g id="edge5" class="edge"><title>Node9&#45;&gt;Node14</title>
<path fill="none" stroke="midnightblue" d="M96.815,-101.366C95.5338,-115.192 93.8763,-133.08 92.8764,-143.87"/>
<polygon fill="midnightblue" stroke="midnightblue" points="100.304,-101.642 97.7421,-91.3617 93.3342,-100.996 100.304,-101.642"/>
</g>
<!-- Node15 -->
<g id="node7" class="node"><title>Node15</title>
<g id="a_node7"><a xlink:href="exchange_8c.html" target="_top" xlink:title="exchange.c">
<polygon fill="white" stroke="black" points="33.0448,-136.645 33.0448,-155.645 100.045,-155.645 100.045,-136.645 33.0448,-136.645"/>
<text text-anchor="middle" x="66.5448" y="-143.645" font-family="Helvetica,sans-Serif" font-size="10.00">exchange.c</text>
</a>
</g>
</g>
<!-- Node9&#45;&gt;Node15 -->
<g id="edge6" class="edge"><title>Node9&#45;&gt;Node15</title>
<path fill="none" stroke="midnightblue" d="M89.3822,-100.281C83.4691,-112.156 76.0475,-127.061 71.2997,-136.596"/>
<polygon fill="midnightblue" stroke="midnightblue" points="92.5782,-101.715 93.9025,-91.2029 86.312,-98.5945 92.5782,-101.715"/>
</g>
<!-- Node16 -->
<g id="node8" class="node"><title>Node16</title>
<g id="a_node8"><a xlink:href="fof_8c.html" target="_top" xlink:title="parallel FoF group finder ">
<polygon fill="white" stroke="black" points="27.4294,-120.699 27.4294,-139.699 63.4294,-139.699 63.4294,-120.699 27.4294,-120.699"/>
<text text-anchor="middle" x="45.4294" y="-127.699" font-family="Helvetica,sans-Serif" font-size="10.00">fof.c</text>
</a>
</g>
</g>
<!-- Node9&#45;&gt;Node16 -->
<g id="edge7" class="edge"><title>Node9&#45;&gt;Node16</title>
<path fill="none" stroke="midnightblue" d="M80.7244,-98.0232C72.4796,-105.539 62.9839,-114.196 55.9198,-120.636"/>
<polygon fill="midnightblue" stroke="midnightblue" points="83.0935,-100.6 88.1257,-91.2761 78.3776,-95.4266 83.0935,-100.6"/>
</g>
<!-- Node17 -->
<g id="node9" class="node"><title>Node17</title>
<g id="a_node9"><a xlink:href="forcetree_8c.html" target="_top" xlink:title="gravitational tree and code for Ewald correction ">
<polygon fill="white" stroke="black" points="0,-98.2023 0,-117.202 63,-117.202 63,-98.2023 0,-98.2023"/>
<text text-anchor="middle" x="31.5" y="-105.202" font-family="Helvetica,sans-Serif" font-size="10.00">forcetree.c</text>
</a>
</g>
</g>
<!-- Node9&#45;&gt;Node17 -->
<g id="edge8" class="edge"><title>Node9&#45;&gt;Node17</title>
<path fill="none" stroke="midnightblue" d="M64.5019,-94.9173C61.6743,-96.0127 58.8521,-97.106 56.1155,-98.1662"/>
<polygon fill="midnightblue" stroke="midnightblue" points="65.9592,-98.1062 74.0195,-91.2301 63.4304,-91.5789 65.9592,-98.1062"/>
</g>
<!-- Node18 -->
<g id="node10" class="node"><title>Node18</title>
<g id="a_node10"><a xlink:href="global_8c.html" target="_top" xlink:title="global.c">
<polygon fill="white" stroke="black" points="1.638,-72.1929 1.638,-91.1929 51.638,-91.1929 51.638,-72.1929 1.638,-72.1929"/>
<text text-anchor="middle" x="26.638" y="-79.1929" font-family="Helvetica,sans-Serif" font-size="10.00">global.c</text>
</a>
</g>
</g>
<!-- Node9&#45;&gt;Node18 -->
<g id="edge9" class="edge"><title>Node9&#45;&gt;Node18</title>
<path fill="none" stroke="midnightblue" d="M52.2843,-81.6929C52.1864,-81.6929 52.0886,-81.6929 51.9909,-81.6929"/>
<polygon fill="midnightblue" stroke="midnightblue" points="46.7554,-85.1931 56.7553,-81.6929 46.7552,-78.1931 46.7554,-85.1931"/>
</g>
<!-- Node19 -->
<g id="node11" class="node"><title>Node19</title>
<g id="a_node11"><a xlink:href="hydra_8c.html" target="_top" xlink:title="Computation of SPH forces and rate of entropy generation. ">
<polygon fill="white" stroke="black" points="7,-46.1835 7,-65.1835 56,-65.1835 56,-46.1835 7,-46.1835"/>
<text text-anchor="middle" x="31.5" y="-53.1835" font-family="Helvetica,sans-Serif" font-size="10.00">hydra.c</text>
</a>
</g>
</g>
<!-- Node9&#45;&gt;Node19 -->
<g id="edge10" class="edge"><title>Node9&#45;&gt;Node19</title>
<path fill="none" stroke="midnightblue" d="M64.5019,-68.4685C61.6743,-67.3731 58.8521,-66.2797 56.1155,-65.2196"/>
<polygon fill="midnightblue" stroke="midnightblue" points="63.4304,-71.8068 74.0195,-72.1556 65.9592,-65.2795 63.4304,-71.8068"/>
</g>
<!-- Node20 -->
<g id="node12" class="node"><title>Node20</title>
<g id="a_node12"><a xlink:href="init_8c.html" target="_top" xlink:title="code for initialisation of a simulation from initial conditions ">
<polygon fill="white" stroke="black" points="26.4294,-23.6868 26.4294,-42.6868 64.4294,-42.6868 64.4294,-23.6868 26.4294,-23.6868"/>
<text text-anchor="middle" x="45.4294" y="-30.6868" font-family="Helvetica,sans-Serif" font-size="10.00">init.c</text>
</a>
</g>
</g>
<!-- Node9&#45;&gt;Node20 -->
<g id="edge11" class="edge"><title>Node9&#45;&gt;Node20</title>
<path fill="none" stroke="midnightblue" d="M80.7244,-65.3625C72.4796,-57.8464 62.9839,-49.1898 55.9198,-42.7501"/>
<polygon fill="midnightblue" stroke="midnightblue" points="78.3776,-67.9592 88.1257,-72.1096 83.0935,-62.7861 78.3776,-67.9592"/>
</g>
<!-- Node21 -->
<g id="node13" class="node"><title>Node21</title>
<g id="a_node13"><a xlink:href="main_8c.html" target="_top" xlink:title="start of the program ">
<polygon fill="white" stroke="black" points="43.5448,-7.7411 43.5448,-26.7411 89.5448,-26.7411 89.5448,-7.7411 43.5448,-7.7411"/>
<text text-anchor="middle" x="66.5448" y="-14.7411" font-family="Helvetica,sans-Serif" font-size="10.00">main.c</text>
</a>
</g>
</g>
<!-- Node9&#45;&gt;Node21 -->
<g id="edge12" class="edge"><title>Node9&#45;&gt;Node21</title>
<path fill="none" stroke="midnightblue" d="M89.3822,-63.1046C83.4691,-51.2295 76.0475,-36.3249 71.2997,-26.7902"/>
<polygon fill="midnightblue" stroke="midnightblue" points="86.312,-64.7912 93.9025,-72.1828 92.5782,-61.671 86.312,-64.7912"/>
</g>
<!-- Node22 -->
<g id="node14" class="node"><title>Node22</title>
<g id="a_node14"><a xlink:href="petaio_8c.html" target="_top" xlink:title="petaio.c">
<polygon fill="white" stroke="black" points="66.4947,-0.5 66.4947,-19.5 117.495,-19.5 117.495,-0.5 66.4947,-0.5"/>
<text text-anchor="middle" x="91.9947" y="-7.5" font-family="Helvetica,sans-Serif" font-size="10.00">petaio.c</text>
</a>
</g>
</g>
<!-- Node9&#45;&gt;Node22 -->
<g id="edge13" class="edge"><title>Node9&#45;&gt;Node22</title>
<path fill="none" stroke="midnightblue" d="M96.815,-62.0197C95.5338,-48.1937 93.8763,-30.306 92.8764,-19.5156"/>
<polygon fill="midnightblue" stroke="midnightblue" points="93.3342,-62.3897 97.7421,-72.024 100.304,-61.7437 93.3342,-62.3897"/>
</g>
<!-- Node23 -->
<g id="node15" class="node"><title>Node23</title>
<g id="a_node15"><a xlink:href="run_8c.html" target="_top" xlink:title="iterates over timesteps, main loop ">
<polygon fill="white" stroke="black" points="99.3417,-2.94141 99.3417,-21.9414 137.342,-21.9414 137.342,-2.94141 99.3417,-2.94141"/>
<text text-anchor="middle" x="118.342" y="-9.94141" font-family="Helvetica,sans-Serif" font-size="10.00">run.c</text>
</a>
</g>
</g>
<!-- Node9&#45;&gt;Node23 -->
<g id="edge14" class="edge"><title>Node9&#45;&gt;Node23</title>
<path fill="none" stroke="midnightblue" d="M104.212,-62.1031C107.944,-48.9842 112.694,-32.2915 115.625,-21.9888"/>
<polygon fill="midnightblue" stroke="midnightblue" points="100.748,-61.4876 101.378,-72.0637 107.481,-63.4033 100.748,-61.4876"/>
</g>
<!-- Node24 -->
<g id="node16" class="node"><title>Node24</title>
<g id="a_node16"><a xlink:href="sfr__eff_8c.html" target="_top" xlink:title="sfr_eff.c">
<polygon fill="white" stroke="black" points="115.528,-14.7356 115.528,-33.7356 168.528,-33.7356 168.528,-14.7356 115.528,-14.7356"/>
<text text-anchor="middle" x="142.028" y="-21.7356" font-family="Helvetica,sans-Serif" font-size="10.00">sfr_eff.c</text>
</a>
</g>
</g>
<!-- Node9&#45;&gt;Node24 -->
<g id="edge15" class="edge"><title>Node9&#45;&gt;Node24</title>
<path fill="none" stroke="midnightblue" d="M112.073,-63.9014C119.565,-53.9812 128.601,-42.0158 134.776,-33.8385"/>
<polygon fill="midnightblue" stroke="midnightblue" points="109.232,-61.8566 105.998,-71.946 114.818,-66.0751 109.232,-61.8566"/>
</g>
<!-- Node25 -->
<g id="node17" class="node"><title>Node25</title>
<g id="a_node17"><a xlink:href="slotsmanager_8c.html" target="_top" xlink:title="slotsmanager.c">
<polygon fill="white" stroke="black" points="118.354,-34.2897 118.354,-53.2897 201.354,-53.2897 201.354,-34.2897 118.354,-34.2897"/>
<text text-anchor="middle" x="159.854" y="-41.2897" font-family="Helvetica,sans-Serif" font-size="10.00">slotsmanager.c</text>
</a>
</g>
</g>
<!-- Node9&#45;&gt;Node25 -->
<g id="edge16" class="edge"><title>Node9&#45;&gt;Node25</title>
<path fill="none" stroke="midnightblue" d="M122.807,-66.7277C130.004,-62.2719 137.698,-57.5082 144.198,-53.4831"/>
<polygon fill="midnightblue" stroke="midnightblue" points="120.745,-63.8882 114.085,-72.1283 124.43,-69.8397 120.745,-63.8882"/>
</g>
<!-- Node26 -->
<g id="node18" class="node"><title>Node26</title>
<g id="a_node18"><a xlink:href="timestep_8c.html" target="_top" xlink:title="routines for &#39;kicking&#39; particles in momentum space and assigning new timesteps ">
<polygon fill="white" stroke="black" points="138.412,-58.9629 138.412,-77.9629 200.412,-77.9629 200.412,-58.9629 138.412,-58.9629"/>
<text text-anchor="middle" x="169.412" y="-65.9629" font-family="Helvetica,sans-Serif" font-size="10.00">timestep.c</text>
</a>
</g>
</g>
<!-- Node9&#45;&gt;Node26 -->
<g id="edge17" class="edge"><title>Node9&#45;&gt;Node26</title>
<path fill="none" stroke="midnightblue" d="M140.397,-73.8867C140.458,-73.8754 140.518,-73.8642 140.578,-73.853"/>
<polygon fill="midnightblue" stroke="midnightblue" points="149.402,-68.638 140.217,-73.9204 150.691,-75.5189 149.402,-68.638"/>
</g>
</g>
</svg>
