<?xml version="1.0" encoding="UTF-8" standalone="no"?>
<!DOCTYPE svg PUBLIC "-//W3C//DTD SVG 1.1//EN"
 "http://www.w3.org/Graphics/SVG/1.1/DTD/svg11.dtd">
<!-- Generated by graphviz version 2.38.0 (20140413.2041)
 -->
<!-- Title: slotsmanager.h Pages: 1 -->
<svg width="387pt" height="180pt"
 viewBox="0.00 0.00 387.00 180.00" xmlns="http://www.w3.org/2000/svg" xmlns:xlink="http://www.w3.org/1999/xlink">
<g id="graph0" class="graph" transform="scale(1 1) rotate(0) translate(4 176)">
<title>slotsmanager.h</title>
<polygon fill="white" stroke="none" points="-4,4 -4,-176 383,-176 383,4 -4,4"/>
<!-- Node0 -->
<g id="node1" class="node"><title>Node0</title>
<polygon fill="#bfbfbf" stroke="black" points="0,-95.5 0,-114.5 83,-114.5 83,-95.5 0,-95.5"/>
<text text-anchor="middle" x="41.5" y="-102.5" font-family="Helvetica,sans-Serif" font-size="10.00">slotsmanager.h</text>
</g>
<!-- Node1 -->
<g id="node2" class="node"><title>Node1</title>
<polygon fill="white" stroke="#bfbfbf" points="138,-152.5 138,-171.5 179,-171.5 179,-152.5 138,-152.5"/>
<text text-anchor="middle" x="158.5" y="-159.5" font-family="Helvetica,sans-Serif" font-size="10.00">mpi.h</text>
</g>
<!-- Node0&#45;&gt;Node1 -->
<g id="edge1" class="edge"><title>Node0&#45;&gt;Node1</title>
<path fill="none" stroke="midnightblue" d="M61.6709,-114.54C77.1398,-122.234 99.464,-133.327 119,-143 122.169,-144.569 125.485,-146.209 128.786,-147.839"/>
<polygon fill="midnightblue" stroke="midnightblue" points="127.393,-151.055 137.909,-152.344 130.492,-144.779 127.393,-151.055"/>
</g>
<!-- Node2 -->
<g id="node3" class="node"><title>Node2</title>
<g id="a_node3"><a xlink:href="event_8h.html" target="_top" xlink:title="event.h">
<polygon fill="white" stroke="black" points="134,-114.5 134,-133.5 183,-133.5 183,-114.5 134,-114.5"/>
<text text-anchor="middle" x="158.5" y="-121.5" font-family="Helvetica,sans-Serif" font-size="10.00">event.h</text>
</a>
</g>
</g>
<!-- Node0&#45;&gt;Node2 -->
<g id="edge2" class="edge"><title>Node0&#45;&gt;Node2</title>
<path fill="none" stroke="midnightblue" d="M83.0447,-111.699C96.2811,-113.886 110.834,-116.29 123.535,-118.388"/>
<polygon fill="midnightblue" stroke="midnightblue" points="123.262,-121.891 133.699,-120.068 124.403,-114.984 123.262,-121.891"/>
</g>
<!-- Node3 -->
<g id="node4" class="node"><title>Node3</title>
<g id="a_node4"><a xlink:href="types_8h.html" target="_top" xlink:title="types.h">
<polygon fill="white" stroke="black" points="238,-76.5 238,-95.5 287,-95.5 287,-76.5 238,-76.5"/>
<text text-anchor="middle" x="262.5" y="-83.5" font-family="Helvetica,sans-Serif" font-size="10.00">types.h</text>
</a>
</g>
</g>
<!-- Node0&#45;&gt;Node3 -->
<g id="edge3" class="edge"><title>Node0&#45;&gt;Node3</title>
<path fill="none" stroke="midnightblue" d="M83.179,-101.471C124.788,-97.8609 188.692,-92.3167 227.637,-88.9379"/>
<polygon fill="midnightblue" stroke="midnightblue" points="228.26,-92.3971 237.92,-88.0457 227.655,-85.4233 228.26,-92.3971"/>
</g>
<!-- Node5 -->
<g id="node6" class="node"><title>Node5</title>
<g id="a_node6"><a xlink:href="partmanager_8h.html" target="_top" xlink:title="partmanager.h">
<polygon fill="white" stroke="black" points="119,-38.5 119,-57.5 198,-57.5 198,-38.5 119,-38.5"/>
<text text-anchor="middle" x="158.5" y="-45.5" font-family="Helvetica,sans-Serif" font-size="10.00">partmanager.h</text>
</a>
</g>
</g>
<!-- Node0&#45;&gt;Node5 -->
<g id="edge5" class="edge"><title>Node0&#45;&gt;Node5</title>
<path fill="none" stroke="midnightblue" d="M61.7484,-95.4595C80.1574,-86.335 108.14,-72.4656 129.108,-62.0726"/>
<polygon fill="midnightblue" stroke="midnightblue" points="130.783,-65.1486 138.189,-57.5716 127.675,-58.8767 130.783,-65.1486"/>
</g>
<!-- Node4 -->
<g id="node5" class="node"><title>Node4</title>
<polygon fill="white" stroke="#bfbfbf" points="328.5,-57.5 328.5,-76.5 377.5,-76.5 377.5,-57.5 328.5,-57.5"/>
<text text-anchor="middle" x="353" y="-64.5" font-family="Helvetica,sans-Serif" font-size="10.00">stdint.h</text>
</g>
<!-- Node3&#45;&gt;Node4 -->
<g id="edge4" class="edge"><title>Node3&#45;&gt;Node4</title>
<path fill="none" stroke="midnightblue" d="M287.216,-80.9083C296.74,-78.8638 307.893,-76.4692 318.236,-74.2487"/>
<polygon fill="midnightblue" stroke="midnightblue" points="319.176,-77.6269 328.218,-72.1057 317.706,-70.7828 319.176,-77.6269"/>
</g>
<!-- Node5&#45;&gt;Node3 -->
<g id="edge7" class="edge"><title>Node5&#45;&gt;Node3</title>
<path fill="none" stroke="midnightblue" d="M185.239,-57.589C198.251,-62.4367 214.199,-68.3779 228.14,-73.5719"/>
<polygon fill="midnightblue" stroke="midnightblue" points="227.274,-76.9841 237.867,-77.1955 229.718,-70.4245 227.274,-76.9841"/>
</g>
<!-- Node6 -->
<g id="node7" class="node"><title>Node6</title>
<polygon fill="white" stroke="#bfbfbf" points="234,-38.5 234,-57.5 291,-57.5 291,-38.5 234,-38.5"/>
<text text-anchor="middle" x="262.5" y="-45.5" font-family="Helvetica,sans-Serif" font-size="10.00">pthread.h</text>
</g>
<!-- Node5&#45;&gt;Node6 -->
<g id="edge6" class="edge"><title>Node5&#45;&gt;Node6</title>
<path fill="none" stroke="midnightblue" d="M198.062,-48C206.392,-48 215.193,-48 223.502,-48"/>
<polygon fill="midnightblue" stroke="midnightblue" points="223.689,-51.5001 233.689,-48 223.689,-44.5001 223.689,-51.5001"/>
</g>
<!-- Node7 -->
<g id="node8" class="node"><title>Node7</title>
<g id="a_node8"><a xlink:href="peano_8h.html" target="_top" xlink:title="peano.h">
<polygon fill="white" stroke="black" points="237,-0.5 237,-19.5 288,-19.5 288,-0.5 237,-0.5"/>
<text text-anchor="middle" x="262.5" y="-7.5" font-family="Helvetica,sans-Serif" font-size="10.00">peano.h</text>
</a>
</g>
</g>
<!-- Node5&#45;&gt;Node7 -->
<g id="edge8" class="edge"><title>Node5&#45;&gt;Node7</title>
<path fill="none" stroke="midnightblue" d="M185.239,-38.411C197.966,-33.6694 213.502,-27.8817 227.222,-22.7704"/>
<polygon fill="midnightblue" stroke="midnightblue" points="228.676,-25.9636 236.825,-19.1927 226.232,-19.404 228.676,-25.9636"/>
</g>
<!-- Node7&#45;&gt;Node4 -->
<g id="edge10" class="edge"><title>Node7&#45;&gt;Node4</title>
<path fill="none" stroke="midnightblue" d="M278.513,-19.6693C292.199,-28.4843 312.64,-41.6497 328.492,-51.8592"/>
<polygon fill="midnightblue" stroke="midnightblue" points="326.907,-55.0012 337.209,-57.4735 330.697,-49.1162 326.907,-55.0012"/>
</g>
<!-- Node8 -->
<g id="node9" class="node"><title>Node8</title>
<polygon fill="white" stroke="#bfbfbf" points="327,-0.5 327,-19.5 379,-19.5 379,-0.5 327,-0.5"/>
<text text-anchor="middle" x="353" y="-7.5" font-family="Helvetica,sans-Serif" font-size="10.00">stddef.h</text>
</g>
<!-- Node7&#45;&gt;Node8 -->
<g id="edge9" class="edge"><title>Node7&#45;&gt;Node8</title>
<path fill="none" stroke="midnightblue" d="M288.152,-10C297.016,-10 307.195,-10 316.783,-10"/>
<polygon fill="midnightblue" stroke="midnightblue" points="316.865,-13.5001 326.865,-10 316.865,-6.5001 316.865,-13.5001"/>
</g>
</g>
</svg>
