<?xml version="1.0" encoding="UTF-8" standalone="no"?>
<!DOCTYPE svg PUBLIC "-//W3C//DTD SVG 1.1//EN"
 "http://www.w3.org/Graphics/SVG/1.1/DTD/svg11.dtd">
<!-- Generated by graphviz version 2.38.0 (20140413.2041)
 -->
<!-- Title: TreeWalkResultDensity Pages: 1 -->
<svg width="439pt" height="144pt"
 viewBox="0.00 0.00 439.00 144.00" xmlns="http://www.w3.org/2000/svg" xmlns:xlink="http://www.w3.org/1999/xlink">
<g id="graph0" class="graph" transform="scale(1 1) rotate(0) translate(4 140)">
<title>TreeWalkResultDensity</title>
<polygon fill="white" stroke="none" points="-4,4 -4,-140 435,-140 435,4 -4,4"/>
<!-- Node1 -->
<g id="node1" class="node"><title>Node1</title>
<polygon fill="#bfbfbf" stroke="black" points="310,-38.5 310,-57.5 431,-57.5 431,-38.5 310,-38.5"/>
<text text-anchor="middle" x="370.5" y="-45.5" font-family="Helvetica,sans-Serif" font-size="10.00">TreeWalkResultDensity</text>
</g>
<!-- Node2 -->
<g id="node2" class="node"><title>Node2</title>
<polygon fill="white" stroke="#bfbfbf" points="141.5,-116.5 141.5,-135.5 170.5,-135.5 170.5,-116.5 141.5,-116.5"/>
<text text-anchor="middle" x="156" y="-123.5" font-family="Helvetica,sans-Serif" font-size="10.00">int</text>
</g>
<!-- Node2&#45;&gt;Node1 -->
<g id="edge1" class="edge"><title>Node2&#45;&gt;Node1</title>
<path fill="none" stroke="#9a32cd" stroke-dasharray="5,2" d="M180.892,-125.409C208.602,-123.987 255.185,-119.29 292,-104 318.981,-92.7945 345.494,-70.5278 359.43,-57.7054"/>
<polygon fill="#9a32cd" stroke="#9a32cd" points="180.438,-121.925 170.589,-125.83 180.723,-128.919 180.438,-121.925"/>
<text text-anchor="middle" x="260.5" y="-123" font-family="Helvetica,sans-Serif" font-size="10.00"> Ninteractions</text>
</g>
<!-- Node3 -->
<g id="node3" class="node"><title>Node3</title>
<polygon fill="white" stroke="#bfbfbf" points="105.5,-38.5 105.5,-57.5 206.5,-57.5 206.5,-38.5 105.5,-38.5"/>
<text text-anchor="middle" x="156" y="-45.5" font-family="Helvetica,sans-Serif" font-size="10.00">LOW_PRECISION</text>
</g>
<!-- Node3&#45;&gt;Node1 -->
<g id="edge2" class="edge"><title>Node3&#45;&gt;Node1</title>
<path fill="none" stroke="#9a32cd" stroke-dasharray="5,2" d="M216.574,-48C245.643,-48 280.53,-48 309.638,-48"/>
<polygon fill="#9a32cd" stroke="#9a32cd" points="216.554,-44.5001 206.554,-48 216.554,-51.5001 216.554,-44.5001"/>
<text text-anchor="middle" x="260.5" y="-95" font-family="Helvetica,sans-Serif" font-size="10.00"> Rot</text>
<text text-anchor="middle" x="260.5" y="-84" font-family="Helvetica,sans-Serif" font-size="10.00">DhsmlDensity</text>
<text text-anchor="middle" x="260.5" y="-73" font-family="Helvetica,sans-Serif" font-size="10.00">Rho</text>
<text text-anchor="middle" x="260.5" y="-62" font-family="Helvetica,sans-Serif" font-size="10.00">Ngb</text>
<text text-anchor="middle" x="260.5" y="-51" font-family="Helvetica,sans-Serif" font-size="10.00">Div</text>
</g>
<!-- Node4 -->
<g id="node4" class="node"><title>Node4</title>
<g id="a_node4"><a xlink:href="structTreeWalkResultBase.html" target="_top" xlink:title="TreeWalkResultBase">
<polygon fill="white" stroke="black" points="101,-0.5 101,-19.5 211,-19.5 211,-0.5 101,-0.5"/>
<text text-anchor="middle" x="156" y="-7.5" font-family="Helvetica,sans-Serif" font-size="10.00">TreeWalkResultBase</text>
</a>
</g>
</g>
<!-- Node4&#45;&gt;Node1 -->
<g id="edge3" class="edge"><title>Node4&#45;&gt;Node1</title>
<path fill="none" stroke="#9a32cd" stroke-dasharray="5,2" d="M221.309,-20.6537C243.702,-24.4436 268.977,-28.8113 292,-33 301.438,-34.7172 311.509,-36.6168 321.162,-38.4707"/>
<polygon fill="#9a32cd" stroke="#9a32cd" points="221.685,-17.1678 211.242,-18.9558 220.521,-24.0703 221.685,-17.1678"/>
<text text-anchor="middle" x="260.5" y="-36" font-family="Helvetica,sans-Serif" font-size="10.00"> base</text>
</g>
<!-- Node5 -->
<g id="node5" class="node"><title>Node5</title>
<polygon fill="white" stroke="#bfbfbf" points="0,-0.5 0,-19.5 51,-19.5 51,-0.5 0,-0.5"/>
<text text-anchor="middle" x="25.5" y="-7.5" font-family="Helvetica,sans-Serif" font-size="10.00">uint64_t</text>
</g>
<!-- Node5&#45;&gt;Node4 -->
<g id="edge4" class="edge"><title>Node5&#45;&gt;Node4</title>
<path fill="none" stroke="#9a32cd" stroke-dasharray="5,2" d="M61.4192,-10C73.5492,-10 87.4551,-10 100.772,-10"/>
<polygon fill="#9a32cd" stroke="#9a32cd" points="61.2761,-6.5001 51.2761,-10 61.2761,-13.5001 61.2761,-6.5001"/>
<text text-anchor="middle" x="76" y="-13" font-family="Helvetica,sans-Serif" font-size="10.00"> ID</text>
</g>
</g>
</svg>
