<?xml version="1.0" encoding="UTF-8" standalone="no"?>
<!DOCTYPE svg PUBLIC "-//W3C//DTD SVG 1.1//EN"
 "http://www.w3.org/Graphics/SVG/1.1/DTD/svg11.dtd">
<!-- Generated by graphviz version 2.50.0 (0)
 -->
<!-- Title: slots_manager_type Pages: 1 -->
<svg width="321pt" height="173pt"
 viewBox="0.00 0.00 321.00 173.00" xmlns="http://www.w3.org/2000/svg" xmlns:xlink="http://www.w3.org/1999/xlink">
<g id="graph0" class="graph" transform="scale(1 1) rotate(0) translate(4 169)">
<title>slots_manager_type</title>
<polygon fill="white" stroke="transparent" points="-4,4 -4,-169 317,-169 317,4 -4,4"/>
<!-- Node1 -->
<g id="node1" class="node">
<title>Node1</title>
<g id="a_node1"><a xlink:title=" ">
<polygon fill="#bfbfbf" stroke="black" points="28,-0.5 28,-19.5 144,-19.5 144,-0.5 28,-0.5"/>
<text text-anchor="middle" x="86" y="-7.5" font-family="Helvetica,sans-Serif" font-size="10.00">slots_manager_type</text>
</a>
</g>
</g>
<!-- Node2 -->
<g id="node2" class="node">
<title>Node2</title>
<g id="a_node2"><a xlink:title=" ">
<polygon fill="white" stroke="#bfbfbf" points="0,-67.5 0,-86.5 50,-86.5 50,-67.5 0,-67.5"/>
<text text-anchor="middle" x="25" y="-74.5" font-family="Helvetica,sans-Serif" font-size="10.00">double</text>
</a>
</g>
</g>
<!-- Node2&#45;&gt;Node1 -->
<g id="edge1" class="edge">
<title>Node2&#45;&gt;Node1</title>
<path fill="none" stroke="#9a32cd" stroke-dasharray="5,2" d="M22.19,-57.19C22.14,-50.63 23.24,-43.53 27,-38 32.76,-29.52 41.88,-23.66 51.25,-19.63"/>
<polygon fill="#9a32cd" stroke="#9a32cd" points="18.72,-57.7 23.07,-67.35 25.69,-57.09 18.72,-57.7"/>
<text text-anchor="middle" x="49.5" y="-41" font-family="Helvetica,sans-Serif" font-size="10.00"> increase</text>
</g>
<!-- Node3 -->
<g id="node3" class="node">
<title>Node3</title>
<g id="a_node3"><a xlink:title=" ">
<polygon fill="white" stroke="#bfbfbf" points="73,-145.5 73,-164.5 111,-164.5 111,-145.5 73,-145.5"/>
<text text-anchor="middle" x="92" y="-152.5" font-family="Helvetica,sans-Serif" font-size="10.00">char</text>
</a>
</g>
</g>
<!-- Node3&#45;&gt;Node1 -->
<g id="edge2" class="edge">
<title>Node3&#45;&gt;Node1</title>
<path fill="none" stroke="#9a32cd" stroke-dasharray="5,2" d="M91.21,-135.1C89.89,-103.77 87.31,-42.31 86.36,-19.65"/>
<polygon fill="#9a32cd" stroke="#9a32cd" points="87.73,-135.64 91.64,-145.48 94.72,-135.34 87.73,-135.64"/>
<text text-anchor="middle" x="104" y="-74.5" font-family="Helvetica,sans-Serif" font-size="10.00"> Base</text>
</g>
<!-- Node4 -->
<g id="node4" class="node">
<title>Node4</title>
<g id="a_node4"><a xlink:href="structslot__info.html" target="_top" xlink:title=" ">
<polygon fill="white" stroke="black" points="132.5,-67.5 132.5,-86.5 191.5,-86.5 191.5,-67.5 132.5,-67.5"/>
<text text-anchor="middle" x="162" y="-74.5" font-family="Helvetica,sans-Serif" font-size="10.00">slot_info</text>
</a>
</g>
</g>
<!-- Node3&#45;&gt;Node4 -->
<g id="edge4" class="edge">
<title>Node3&#45;&gt;Node4</title>
<path fill="none" stroke="#9a32cd" stroke-dasharray="5,2" d="M106.85,-137.88C121.27,-122.22 142.62,-99.04 154.06,-86.62"/>
<polygon fill="#9a32cd" stroke="#9a32cd" points="104.23,-135.56 100.03,-145.28 109.38,-140.3 104.23,-135.56"/>
<text text-anchor="middle" x="144.5" y="-113.5" font-family="Helvetica,sans-Serif" font-size="10.00"> ptr</text>
</g>
<!-- Node4&#45;&gt;Node1 -->
<g id="edge3" class="edge">
<title>Node4&#45;&gt;Node1</title>
<path fill="none" stroke="#9a32cd" stroke-dasharray="5,2" d="M144.13,-60.71C129.15,-47.91 108.32,-30.09 96.09,-19.63"/>
<polygon fill="#9a32cd" stroke="#9a32cd" points="141.88,-63.39 151.75,-67.23 146.43,-58.07 141.88,-63.39"/>
<text text-anchor="middle" x="140" y="-41" font-family="Helvetica,sans-Serif" font-size="10.00"> info</text>
</g>
<!-- Node5 -->
<g id="node5" class="node">
<title>Node5</title>
<g id="a_node5"><a xlink:title=" ">
<polygon fill="white" stroke="#bfbfbf" points="134,-145.5 134,-164.5 184,-164.5 184,-145.5 134,-145.5"/>
<text text-anchor="middle" x="159" y="-152.5" font-family="Helvetica,sans-Serif" font-size="10.00">int64_t</text>
</a>
</g>
</g>
<!-- Node5&#45;&gt;Node4 -->
<g id="edge5" class="edge">
<title>Node5&#45;&gt;Node4</title>
<path fill="none" stroke="#9a32cd" stroke-dasharray="5,2" d="M159.15,-135.08C159.28,-125.98 159.53,-114.92 160,-105 160.29,-98.8 160.82,-91.82 161.25,-86.51"/>
<polygon fill="#9a32cd" stroke="#9a32cd" points="155.65,-135.28 159.04,-145.32 162.65,-135.36 155.65,-135.28"/>
<text text-anchor="middle" x="182.5" y="-119" font-family="Helvetica,sans-Serif" font-size="10.00"> maxsize</text>
<text text-anchor="middle" x="182.5" y="-108" font-family="Helvetica,sans-Serif" font-size="10.00">size</text>
</g>
<!-- Node6 -->
<g id="node6" class="node">
<title>Node6</title>
<g id="a_node6"><a xlink:title=" ">
<polygon fill="white" stroke="#bfbfbf" points="204.5,-145.5 204.5,-164.5 249.5,-164.5 249.5,-145.5 204.5,-145.5"/>
<text text-anchor="middle" x="227" y="-152.5" font-family="Helvetica,sans-Serif" font-size="10.00">size_t</text>
</a>
</g>
</g>
<!-- Node6&#45;&gt;Node4 -->
<g id="edge6" class="edge">
<title>Node6&#45;&gt;Node4</title>
<path fill="none" stroke="#9a32cd" stroke-dasharray="5,2" d="M221.61,-135.51C218.06,-125.65 212.64,-113.78 205,-105 198.4,-97.42 189.16,-91.24 180.92,-86.71"/>
<polygon fill="#9a32cd" stroke="#9a32cd" points="218.33,-136.74 224.74,-145.17 224.99,-134.58 218.33,-136.74"/>
<text text-anchor="middle" x="233" y="-113.5" font-family="Helvetica,sans-Serif" font-size="10.00"> elsize</text>
</g>
<!-- Node7 -->
<g id="node7" class="node">
<title>Node7</title>
<g id="a_node7"><a xlink:title=" ">
<polygon fill="white" stroke="#bfbfbf" points="267.5,-145.5 267.5,-164.5 296.5,-164.5 296.5,-145.5 267.5,-145.5"/>
<text text-anchor="middle" x="282" y="-152.5" font-family="Helvetica,sans-Serif" font-size="10.00">int</text>
</a>
</g>
</g>
<!-- Node7&#45;&gt;Node4 -->
<g id="edge7" class="edge">
<title>Node7&#45;&gt;Node4</title>
<path fill="none" stroke="#9a32cd" stroke-dasharray="5,2" d="M275.26,-135.94C270.51,-125.51 263.17,-112.93 253,-105 235.33,-91.22 210.75,-84.46 191.59,-81.15"/>
<polygon fill="#9a32cd" stroke="#9a32cd" points="272.11,-137.48 279.15,-145.39 278.58,-134.82 272.11,-137.48"/>
<text text-anchor="middle" x="291.5" y="-113.5" font-family="Helvetica,sans-Serif" font-size="10.00"> enabled</text>
</g>
</g>
</svg>
