<?xml version="1.0" encoding="UTF-8" standalone="no"?>
<!DOCTYPE svg PUBLIC "-//W3C//DTD SVG 1.1//EN"
 "http://www.w3.org/Graphics/SVG/1.1/DTD/svg11.dtd">
<!-- Generated by graphviz version 2.50.0 (0)
 -->
<!-- Title: BlackholeParams Pages: 1 -->
<svg width="489pt" height="205pt"
 viewBox="0.00 0.00 489.00 205.00" xmlns="http://www.w3.org/2000/svg" xmlns:xlink="http://www.w3.org/1999/xlink">
<g id="graph0" class="graph" transform="scale(1 1) rotate(0) translate(4 201)">
<title>BlackholeParams</title>
<polygon fill="white" stroke="transparent" points="-4,4 -4,-201 485,-201 485,4 -4,4"/>
<!-- Node1 -->
<g id="node1" class="node">
<title>Node1</title>
<g id="a_node1"><a xlink:title=" ">
<polygon fill="#bfbfbf" stroke="black" points="124.5,-0.5 124.5,-19.5 225.5,-19.5 225.5,-0.5 124.5,-0.5"/>
<text text-anchor="middle" x="175" y="-7.5" font-family="Helvetica,sans-Serif" font-size="10.00">BlackholeParams</text>
</a>
</g>
</g>
<!-- Node2 -->
<g id="node2" class="node">
<title>Node2</title>
<g id="a_node2"><a xlink:title=" ">
<polygon fill="white" stroke="#bfbfbf" points="0,-177.5 0,-196.5 50,-196.5 50,-177.5 0,-177.5"/>
<text text-anchor="middle" x="25" y="-184.5" font-family="Helvetica,sans-Serif" font-size="10.00">double</text>
</a>
</g>
</g>
<!-- Node2&#45;&gt;Node1 -->
<g id="edge1" class="edge">
<title>Node2&#45;&gt;Node1</title>
<path fill="none" stroke="#9a32cd" stroke-dasharray="5,2" d="M21.22,-167.3C16.11,-136.14 11.06,-73.53 44,-38 54.93,-26.21 92.38,-19.27 124.45,-15.39"/>
<polygon fill="#9a32cd" stroke="#9a32cd" points="17.8,-168.04 23.04,-177.25 24.68,-166.78 17.8,-168.04"/>
<text text-anchor="middle" x="107.5" y="-151" font-family="Helvetica,sans-Serif" font-size="10.00"> BHKE_EddingtonMFactor</text>
<text text-anchor="middle" x="107.5" y="-140" font-family="Helvetica,sans-Serif" font-size="10.00">BHKE_EddingtonMIndex</text>
<text text-anchor="middle" x="107.5" y="-129" font-family="Helvetica,sans-Serif" font-size="10.00">BHKE_EddingtonMPivot</text>
<text text-anchor="middle" x="107.5" y="-118" font-family="Helvetica,sans-Serif" font-size="10.00">BHKE_EddingtonThrFactor</text>
<text text-anchor="middle" x="107.5" y="-107" font-family="Helvetica,sans-Serif" font-size="10.00">BHKE_EffCap</text>
<text text-anchor="middle" x="107.5" y="-96" font-family="Helvetica,sans-Serif" font-size="10.00">BHKE_EffRhoFactor</text>
<text text-anchor="middle" x="107.5" y="-85" font-family="Helvetica,sans-Serif" font-size="10.00">BHKE_InjEnergyThr</text>
<text text-anchor="middle" x="107.5" y="-74" font-family="Helvetica,sans-Serif" font-size="10.00">BHKE_SfrCritOverDensity</text>
<text text-anchor="middle" x="107.5" y="-63" font-family="Helvetica,sans-Serif" font-size="10.00">BH_DFbmax</text>
<text text-anchor="middle" x="107.5" y="-52" font-family="Helvetica,sans-Serif" font-size="10.00">BlackHoleAccretionFactor</text>
<text text-anchor="middle" x="107.5" y="-41" font-family="Helvetica,sans-Serif" font-size="10.00">...</text>
</g>
<!-- Node3 -->
<g id="node3" class="node">
<title>Node3</title>
<g id="a_node3"><a xlink:title=" ">
<polygon fill="white" stroke="#bfbfbf" points="85,-177.5 85,-196.5 265,-196.5 265,-177.5 85,-177.5"/>
<text text-anchor="middle" x="175" y="-184.5" font-family="Helvetica,sans-Serif" font-size="10.00">enum BlackHoleFeedbackMethod</text>
</a>
</g>
</g>
<!-- Node3&#45;&gt;Node1 -->
<g id="edge2" class="edge">
<title>Node3&#45;&gt;Node1</title>
<path fill="none" stroke="#9a32cd" stroke-dasharray="5,2" d="M175,-166.95C175,-129.3 175,-46.65 175,-19.69"/>
<polygon fill="#9a32cd" stroke="#9a32cd" points="171.5,-167.08 175,-177.08 178.5,-167.08 171.5,-167.08"/>
<text text-anchor="middle" x="243" y="-96" font-family="Helvetica,sans-Serif" font-size="10.00"> BlackHoleFeedbackMethod</text>
</g>
<!-- Node4 -->
<g id="node4" class="node">
<title>Node4</title>
<g id="a_node4"><a xlink:title=" ">
<polygon fill="white" stroke="#bfbfbf" points="319.5,-177.5 319.5,-196.5 348.5,-196.5 348.5,-177.5 319.5,-177.5"/>
<text text-anchor="middle" x="334" y="-184.5" font-family="Helvetica,sans-Serif" font-size="10.00">int</text>
</a>
</g>
</g>
<!-- Node4&#45;&gt;Node1 -->
<g id="edge3" class="edge">
<title>Node4&#45;&gt;Node1</title>
<path fill="none" stroke="#9a32cd" stroke-dasharray="5,2" d="M337.37,-167.22C341.81,-135.94 345.54,-73.15 312,-38 300.16,-25.59 259.55,-18.65 225.6,-14.92"/>
<polygon fill="#9a32cd" stroke="#9a32cd" points="333.9,-166.78 335.77,-177.2 340.81,-167.88 333.9,-166.78"/>
<text text-anchor="middle" x="410.5" y="-123.5" font-family="Helvetica,sans-Serif" font-size="10.00"> BH_DFBoostFactor</text>
<text text-anchor="middle" x="410.5" y="-112.5" font-family="Helvetica,sans-Serif" font-size="10.00">BH_DRAG</text>
<text text-anchor="middle" x="410.5" y="-101.5" font-family="Helvetica,sans-Serif" font-size="10.00">BH_DynFrictionMethod</text>
<text text-anchor="middle" x="410.5" y="-90.5" font-family="Helvetica,sans-Serif" font-size="10.00">BlackHoleKineticOn</text>
<text text-anchor="middle" x="410.5" y="-79.5" font-family="Helvetica,sans-Serif" font-size="10.00">BlackHoleRepositionEnabled</text>
<text text-anchor="middle" x="410.5" y="-68.5" font-family="Helvetica,sans-Serif" font-size="10.00">MergeGravBound</text>
</g>
</g>
</svg>
