<?xml version="1.0" encoding="UTF-8" standalone="no"?>
<!DOCTYPE svg PUBLIC "-//W3C//DTD SVG 1.1//EN"
 "http://www.w3.org/Graphics/SVG/1.1/DTD/svg11.dtd">
<!-- Generated by graphviz version 2.50.0 (0)
 -->
<!-- Title: timestep_params Pages: 1 -->
<svg width="290pt" height="150pt"
 viewBox="0.00 0.00 290.00 150.00" xmlns="http://www.w3.org/2000/svg" xmlns:xlink="http://www.w3.org/1999/xlink">
<g id="graph0" class="graph" transform="scale(1 1) rotate(0) translate(4 146)">
<title>timestep_params</title>
<polygon fill="white" stroke="transparent" points="-4,4 -4,-146 286,-146 286,4 -4,4"/>
<!-- Node1 -->
<g id="node1" class="node">
<title>Node1</title>
<g id="a_node1"><a xlink:title=" ">
<polygon fill="#bfbfbf" stroke="black" points="49,-0.5 49,-19.5 151,-19.5 151,-0.5 49,-0.5"/>
<text text-anchor="middle" x="100" y="-7.5" font-family="Helvetica,sans-Serif" font-size="10.00">timestep_params</text>
</a>
</g>
</g>
<!-- Node2 -->
<g id="node2" class="node">
<title>Node2</title>
<g id="a_node2"><a xlink:title=" ">
<polygon fill="white" stroke="#bfbfbf" points="0,-122.5 0,-141.5 50,-141.5 50,-122.5 0,-122.5"/>
<text text-anchor="middle" x="25" y="-129.5" font-family="Helvetica,sans-Serif" font-size="10.00">double</text>
</a>
</g>
</g>
<!-- Node2&#45;&gt;Node1 -->
<g id="edge1" class="edge">
<title>Node2&#45;&gt;Node1</title>
<path fill="none" stroke="#9a32cd" stroke-dasharray="5,2" d="M19.49,-112.48C14.66,-92.24 10.58,-59.8 26,-38 32.08,-29.4 41.2,-23.54 50.98,-19.53"/>
<polygon fill="#9a32cd" stroke="#9a32cd" points="16.16,-113.57 22.13,-122.33 22.92,-111.76 16.16,-113.57"/>
<text text-anchor="middle" x="89.5" y="-96" font-family="Helvetica,sans-Serif" font-size="10.00"> CourantFac</text>
<text text-anchor="middle" x="89.5" y="-85" font-family="Helvetica,sans-Serif" font-size="10.00">ErrTolIntAccuracy</text>
<text text-anchor="middle" x="89.5" y="-74" font-family="Helvetica,sans-Serif" font-size="10.00">MaxGasVel</text>
<text text-anchor="middle" x="89.5" y="-63" font-family="Helvetica,sans-Serif" font-size="10.00">MaxRMSDisplacementFac</text>
<text text-anchor="middle" x="89.5" y="-52" font-family="Helvetica,sans-Serif" font-size="10.00">MaxSizeTimestep</text>
<text text-anchor="middle" x="89.5" y="-41" font-family="Helvetica,sans-Serif" font-size="10.00">MinSizeTimestep</text>
</g>
<!-- Node3 -->
<g id="node3" class="node">
<title>Node3</title>
<g id="a_node3"><a xlink:title=" ">
<polygon fill="white" stroke="#bfbfbf" points="160.5,-122.5 160.5,-141.5 189.5,-141.5 189.5,-122.5 160.5,-122.5"/>
<text text-anchor="middle" x="175" y="-129.5" font-family="Helvetica,sans-Serif" font-size="10.00">int</text>
</a>
</g>
</g>
<!-- Node3&#45;&gt;Node1 -->
<g id="edge2" class="edge">
<title>Node3&#45;&gt;Node1</title>
<path fill="none" stroke="#9a32cd" stroke-dasharray="5,2" d="M175.04,-112.12C174.14,-91.78 169.87,-59.48 153,-38 146.49,-29.72 136.76,-23.75 127.4,-19.57"/>
<polygon fill="#9a32cd" stroke="#9a32cd" points="171.55,-112.36 175.25,-122.28 178.54,-112.21 171.55,-112.36"/>
<text text-anchor="middle" x="228" y="-68.5" font-family="Helvetica,sans-Serif" font-size="10.00"> ForceEqualTimesteps</text>
</g>
</g>
</svg>
