<?xml version="1.0" encoding="UTF-8" standalone="no"?>
<!DOCTYPE svg PUBLIC "-//W3C//DTD SVG 1.1//EN"
 "http://www.w3.org/Graphics/SVG/1.1/DTD/svg11.dtd">
<!-- Generated by graphviz version 2.38.0 (20140413.2041)
 -->
<!-- Title: particle_data_ext Pages: 1 -->
<svg width="270pt" height="111pt"
 viewBox="0.00 0.00 270.00 111.00" xmlns="http://www.w3.org/2000/svg" xmlns:xlink="http://www.w3.org/1999/xlink">
<g id="graph0" class="graph" transform="scale(1 1) rotate(0) translate(4 107)">
<title>particle_data_ext</title>
<polygon fill="white" stroke="none" points="-4,4 -4,-107 266,-107 266,4 -4,4"/>
<!-- Node1 -->
<g id="node1" class="node"><title>Node1</title>
<polygon fill="#bfbfbf" stroke="black" points="171,-38.5 171,-57.5 262,-57.5 262,-38.5 171,-38.5"/>
<text text-anchor="middle" x="216.5" y="-45.5" font-family="Helvetica,sans-Serif" font-size="10.00">particle_data_ext</text>
</g>
<!-- Node2 -->
<g id="node2" class="node"><title>Node2</title>
<polygon fill="white" stroke="#bfbfbf" points="14.5,-83.5 14.5,-102.5 65.5,-102.5 65.5,-83.5 14.5,-83.5"/>
<text text-anchor="middle" x="40" y="-90.5" font-family="Helvetica,sans-Serif" font-size="10.00">uint64_t</text>
</g>
<!-- Node2&#45;&gt;Node1 -->
<g id="edge1" class="edge"><title>Node2&#45;&gt;Node1</title>
<path fill="none" stroke="#9a32cd" stroke-dasharray="5,2" d="M75.7406,-87.6396C98.0282,-83.8423 127.469,-78.1565 153,-71 166.248,-67.2865 180.685,-62.0555 192.342,-57.5203"/>
<polygon fill="#9a32cd" stroke="#9a32cd" points="75.0258,-84.2102 65.7336,-89.3 76.1716,-91.1158 75.0258,-84.2102"/>
<text text-anchor="middle" x="125.5" y="-86" font-family="Helvetica,sans-Serif" font-size="10.00"> ID</text>
</g>
<!-- Node3 -->
<g id="node3" class="node"><title>Node3</title>
<polygon fill="white" stroke="#bfbfbf" points="25.5,-38.5 25.5,-57.5 54.5,-57.5 54.5,-38.5 25.5,-38.5"/>
<text text-anchor="middle" x="40" y="-45.5" font-family="Helvetica,sans-Serif" font-size="10.00">int</text>
</g>
<!-- Node3&#45;&gt;Node1 -->
<g id="edge2" class="edge"><title>Node3&#45;&gt;Node1</title>
<path fill="none" stroke="#9a32cd" stroke-dasharray="5,2" d="M64.8196,-48C91.9582,-48 136.911,-48 170.668,-48"/>
<polygon fill="#9a32cd" stroke="#9a32cd" points="64.6928,-44.5001 54.6927,-48 64.6927,-51.5001 64.6928,-44.5001"/>
<text text-anchor="middle" x="125.5" y="-62" font-family="Helvetica,sans-Serif" font-size="10.00"> IsGarbage</text>
<text text-anchor="middle" x="125.5" y="-51" font-family="Helvetica,sans-Serif" font-size="10.00">ReverseLink</text>
</g>
<!-- Node4 -->
<g id="node4" class="node"><title>Node4</title>
<polygon fill="white" stroke="#bfbfbf" points="0,-0.5 0,-19.5 80,-19.5 80,-0.5 0,-0.5"/>
<text text-anchor="middle" x="40" y="-7.5" font-family="Helvetica,sans-Serif" font-size="10.00">anonymous:gc</text>
</g>
<!-- Node4&#45;&gt;Node1 -->
<g id="edge3" class="edge"><title>Node4&#45;&gt;Node1</title>
<path fill="none" stroke="#9a32cd" stroke-dasharray="5,2" d="M90.1305,-19.7243C109.721,-23.6969 132.458,-28.427 153,-33 160.625,-34.6973 168.752,-36.588 176.538,-38.4393"/>
<polygon fill="#9a32cd" stroke="#9a32cd" points="90.6958,-16.2679 80.2011,-17.7207 89.3112,-23.1296 90.6958,-16.2679"/>
<text text-anchor="middle" x="125.5" y="-36" font-family="Helvetica,sans-Serif" font-size="10.00"> gc</text>
</g>
</g>
</svg>
