<?xml version="1.0" encoding="UTF-8" standalone="no"?>
<!DOCTYPE svg PUBLIC "-//W3C//DTD SVG 1.1//EN"
 "http://www.w3.org/Graphics/SVG/1.1/DTD/svg11.dtd">
<!-- Generated by graphviz version 2.38.0 (20140413.2041)
 -->
<!-- Title: _powerspectrum Pages: 1 -->
<svg width="219pt" height="144pt"
 viewBox="0.00 0.00 219.00 144.00" xmlns="http://www.w3.org/2000/svg" xmlns:xlink="http://www.w3.org/1999/xlink">
<g id="graph0" class="graph" transform="scale(1 1) rotate(0) translate(4 140)">
<title>_powerspectrum</title>
<polygon fill="white" stroke="none" points="-4,4 -4,-140 215,-140 215,4 -4,4"/>
<!-- Node1 -->
<g id="node1" class="node"><title>Node1</title>
<polygon fill="#bfbfbf" stroke="black" points="122,-45.5 122,-64.5 211,-64.5 211,-45.5 122,-45.5"/>
<text text-anchor="middle" x="166.5" y="-52.5" font-family="Helvetica,sans-Serif" font-size="10.00">_powerspectrum</text>
</g>
<!-- Node2 -->
<g id="node2" class="node"><title>Node2</title>
<polygon fill="white" stroke="#bfbfbf" points="0.5,-83.5 0.5,-102.5 45.5,-102.5 45.5,-83.5 0.5,-83.5"/>
<text text-anchor="middle" x="23" y="-90.5" font-family="Helvetica,sans-Serif" font-size="10.00">double</text>
</g>
<!-- Node2&#45;&gt;Node1 -->
<g id="edge1" class="edge"><title>Node2&#45;&gt;Node1</title>
<path fill="none" stroke="#9a32cd" stroke-dasharray="5,2" d="M55.6535,-84.4994C77.6776,-78.5848 107.07,-70.6915 129.908,-64.5581"/>
<polygon fill="#9a32cd" stroke="#9a32cd" points="54.5493,-81.1719 45.7993,-87.1458 56.3649,-87.9323 54.5493,-81.1719"/>
<text text-anchor="middle" x="84" y="-128" font-family="Helvetica,sans-Serif" font-size="10.00"> kk</text>
<text text-anchor="middle" x="84" y="-117" font-family="Helvetica,sans-Serif" font-size="10.00">Norm</text>
<text text-anchor="middle" x="84" y="-106" font-family="Helvetica,sans-Serif" font-size="10.00">logknu</text>
<text text-anchor="middle" x="84" y="-95" font-family="Helvetica,sans-Serif" font-size="10.00">Pnuratio</text>
<text text-anchor="middle" x="84" y="-84" font-family="Helvetica,sans-Serif" font-size="10.00">Power</text>
</g>
<!-- Node3 -->
<g id="node3" class="node"><title>Node3</title>
<polygon fill="white" stroke="#bfbfbf" points="0,-45.5 0,-64.5 46,-64.5 46,-45.5 0,-45.5"/>
<text text-anchor="middle" x="23" y="-52.5" font-family="Helvetica,sans-Serif" font-size="10.00">int64_t</text>
</g>
<!-- Node3&#45;&gt;Node1 -->
<g id="edge2" class="edge"><title>Node3&#45;&gt;Node1</title>
<path fill="none" stroke="#9a32cd" stroke-dasharray="5,2" d="M56.2745,-55C75.7101,-55 100.713,-55 121.891,-55"/>
<polygon fill="#9a32cd" stroke="#9a32cd" points="56.1094,-51.5001 46.1094,-55 56.1093,-58.5001 56.1094,-51.5001"/>
<text text-anchor="middle" x="84" y="-58" font-family="Helvetica,sans-Serif" font-size="10.00"> Nmodes</text>
</g>
<!-- Node4 -->
<g id="node4" class="node"><title>Node4</title>
<polygon fill="white" stroke="#bfbfbf" points="1.5,-0.5 1.5,-19.5 44.5,-19.5 44.5,-0.5 1.5,-0.5"/>
<text text-anchor="middle" x="23" y="-7.5" font-family="Helvetica,sans-Serif" font-size="10.00">size_t</text>
</g>
<!-- Node4&#45;&gt;Node1 -->
<g id="edge3" class="edge"><title>Node4&#45;&gt;Node1</title>
<path fill="none" stroke="#9a32cd" stroke-dasharray="5,2" d="M54.4846,-15.9876C69.5513,-19.2624 87.9075,-23.7282 104,-29 118.1,-33.6192 133.475,-40.1192 145.325,-45.4644"/>
<polygon fill="#9a32cd" stroke="#9a32cd" points="55.1543,-12.5519 44.6476,-13.9154 53.7114,-19.4016 55.1543,-12.5519"/>
<text text-anchor="middle" x="84" y="-43" font-family="Helvetica,sans-Serif" font-size="10.00"> size</text>
<text text-anchor="middle" x="84" y="-32" font-family="Helvetica,sans-Serif" font-size="10.00">nalloc</text>
</g>
</g>
</svg>
