<?xml version="1.0" encoding="UTF-8" standalone="no"?>
<!DOCTYPE svg PUBLIC "-//W3C//DTD SVG 1.1//EN"
 "http://www.w3.org/Graphics/SVG/1.1/DTD/svg11.dtd">
<!-- Generated by graphviz version 2.38.0 (20140413.2041)
 -->
<!-- Title: Interp Pages: 1 -->
<svg width="157pt" height="130pt"
 viewBox="0.00 0.00 157.32 129.82" xmlns="http://www.w3.org/2000/svg" xmlns:xlink="http://www.w3.org/1999/xlink">
<g id="graph0" class="graph" transform="scale(1 1) rotate(0) translate(4 125.823)">
<title>Interp</title>
<polygon fill="white" stroke="none" points="-4,4 -4,-125.823 153.323,-125.823 153.323,4 -4,4"/>
<!-- Node1 -->
<g id="node1" class="node"><title>Node1</title>
<polygon fill="#bfbfbf" stroke="black" points="55.4117,-51.4117 55.4117,-70.4117 96.4117,-70.4117 96.4117,-51.4117 55.4117,-51.4117"/>
<text text-anchor="middle" x="75.9117" y="-58.4117" font-family="Helvetica,sans-Serif" font-size="10.00">Interp</text>
</g>
<!-- Node2 -->
<g id="node2" class="node"><title>Node2</title>
<polygon fill="white" stroke="#bfbfbf" points="104.323,-102.323 104.323,-121.323 149.323,-121.323 149.323,-102.323 104.323,-102.323"/>
<text text-anchor="middle" x="126.823" y="-109.323" font-family="Helvetica,sans-Serif" font-size="10.00">double</text>
</g>
<!-- Node2&#45;&gt;Node1 -->
<g id="edge1" class="edge"><title>Node2&#45;&gt;Node1</title>
<path fill="none" stroke="#9a32cd" stroke-dasharray="5,2" d="M109.578,-94.5781C101.615,-86.6153 92.4522,-77.4522 85.6978,-70.6978"/>
<polygon fill="#9a32cd" stroke="#9a32cd" points="107.461,-97.4109 117.007,-102.007 112.411,-92.4611 107.461,-97.4109"/>
<text text-anchor="middle" x="85.638" y="-107.638" font-family="Helvetica,sans-Serif" font-size="10.00"> Step</text>
<text text-anchor="middle" x="85.638" y="-96.638" font-family="Helvetica,sans-Serif" font-size="10.00">Min</text>
<text text-anchor="middle" x="85.638" y="-85.638" font-family="Helvetica,sans-Serif" font-size="10.00">Max</text>
</g>
<!-- Node3 -->
<g id="node3" class="node"><title>Node3</title>
<polygon fill="white" stroke="#bfbfbf" points="7.10543e-15,-102.323 7.10543e-15,-121.323 50,-121.323 50,-102.323 7.10543e-15,-102.323"/>
<text text-anchor="middle" x="25" y="-109.323" font-family="Helvetica,sans-Serif" font-size="10.00">ptrdiff_t</text>
</g>
<!-- Node3&#45;&gt;Node1 -->
<g id="edge2" class="edge"><title>Node3&#45;&gt;Node1</title>
<path fill="none" stroke="#9a32cd" stroke-dasharray="5,2" d="M42.2453,-94.5781C50.208,-86.6153 59.3712,-77.4522 66.1255,-70.6978"/>
<polygon fill="#9a32cd" stroke="#9a32cd" points="39.4125,-92.4611 34.8163,-102.007 44.3623,-97.4109 39.4125,-92.4611"/>
<text text-anchor="middle" x="37.6854" y="-85.638" font-family="Helvetica,sans-Serif" font-size="10.00"> strides</text>
</g>
<!-- Node4 -->
<g id="node4" class="node"><title>Node4</title>
<polygon fill="white" stroke="#bfbfbf" points="10.5,-0.5 10.5,-19.5 39.5,-19.5 39.5,-0.5 10.5,-0.5"/>
<text text-anchor="middle" x="25" y="-7.5" font-family="Helvetica,sans-Serif" font-size="10.00">int</text>
</g>
<!-- Node4&#45;&gt;Node1 -->
<g id="edge3" class="edge"><title>Node4&#45;&gt;Node1</title>
<path fill="none" stroke="#9a32cd" stroke-dasharray="5,2" d="M42.2453,-27.2453C50.208,-35.208 59.3712,-44.3712 66.1255,-51.1255"/>
<polygon fill="#9a32cd" stroke="#9a32cd" points="44.3623,-24.4125 34.8163,-19.8163 39.4125,-29.3623 44.3623,-24.4125"/>
<text text-anchor="middle" x="41.6854" y="-64.1854" font-family="Helvetica,sans-Serif" font-size="10.00"> fsize</text>
<text text-anchor="middle" x="41.6854" y="-53.1854" font-family="Helvetica,sans-Serif" font-size="10.00">Ndim</text>
<text text-anchor="middle" x="41.6854" y="-42.1854" font-family="Helvetica,sans-Serif" font-size="10.00">dims</text>
</g>
<!-- Node5 -->
<g id="node5" class="node"><title>Node5</title>
<polygon fill="white" stroke="#bfbfbf" points="106.323,-0.5 106.323,-19.5 147.323,-19.5 147.323,-0.5 106.323,-0.5"/>
<text text-anchor="middle" x="126.823" y="-7.5" font-family="Helvetica,sans-Serif" font-size="10.00">void *</text>
</g>
<!-- Node5&#45;&gt;Node1 -->
<g id="edge4" class="edge"><title>Node5&#45;&gt;Node1</title>
<path fill="none" stroke="#9a32cd" stroke-dasharray="5,2" d="M109.578,-27.2453C101.615,-35.208 92.4522,-44.3712 85.6978,-51.1255"/>
<polygon fill="#9a32cd" stroke="#9a32cd" points="112.411,-29.3623 117.007,-19.8163 107.461,-24.4125 112.411,-29.3623"/>
<text text-anchor="middle" x="86.638" y="-42.1854" font-family="Helvetica,sans-Serif" font-size="10.00"> data</text>
</g>
</g>
</svg>
