<?xml version="1.0" encoding="UTF-8" standalone="no"?>
<!DOCTYPE svg PUBLIC "-//W3C//DTD SVG 1.1//EN"
 "http://www.w3.org/Graphics/SVG/1.1/DTD/svg11.dtd">
<!-- Generated by graphviz version 2.50.0 (0)
 -->
<!-- Title: Cosmology Pages: 1 -->
<svg width="636pt" height="374pt"
 viewBox="0.00 0.00 636.13 374.00" xmlns="http://www.w3.org/2000/svg" xmlns:xlink="http://www.w3.org/1999/xlink">
<g id="graph0" class="graph" transform="scale(1 1) rotate(0) translate(4 370)">
<title>Cosmology</title>
<polygon fill="white" stroke="transparent" points="-4,4 -4,-370 632.13,-370 632.13,4 -4,4"/>
<!-- Node1 -->
<g id="node1" class="node">
<title>Node1</title>
<g id="a_node1"><a xlink:title=" ">
<polygon fill="#bfbfbf" stroke="black" points="257.13,-0.5 257.13,-19.5 328.13,-19.5 328.13,-0.5 257.13,-0.5"/>
<text text-anchor="middle" x="292.63" y="-7.5" font-family="Helvetica,sans-Serif" font-size="10.00">Cosmology</text>
</a>
</g>
</g>
<!-- Node2 -->
<g id="node2" class="node">
<title>Node2</title>
<g id="a_node2"><a xlink:title=" ">
<polygon fill="white" stroke="#bfbfbf" points="324.63,-346.5 324.63,-365.5 374.63,-365.5 374.63,-346.5 324.63,-346.5"/>
<text text-anchor="middle" x="349.63" y="-353.5" font-family="Helvetica,sans-Serif" font-size="10.00">double</text>
</a>
</g>
</g>
<!-- Node2&#45;&gt;Node1 -->
<g id="edge1" class="edge">
<title>Node2&#45;&gt;Node1</title>
<path fill="none" stroke="#9a32cd" stroke-dasharray="5,2" d="M354.54,-336.46C358.43,-320.76 363.54,-297.58 365.63,-277 373.37,-200.77 340.03,-73.98 337.63,-67 332.85,-53.08 330.69,-49.61 321.63,-38 316.3,-31.17 309.19,-24.52 303.35,-19.53"/>
<polygon fill="#9a32cd" stroke="#9a32cd" points="351.07,-335.88 351.98,-346.43 357.86,-337.61 351.07,-335.88"/>
<text text-anchor="middle" x="411.63" y="-218" font-family="Helvetica,sans-Serif" font-size="10.00"> CMBTemperature</text>
<text text-anchor="middle" x="411.63" y="-207" font-family="Helvetica,sans-Serif" font-size="10.00">GravInternal</text>
<text text-anchor="middle" x="411.63" y="-196" font-family="Helvetica,sans-Serif" font-size="10.00">Hubble</text>
<text text-anchor="middle" x="411.63" y="-185" font-family="Helvetica,sans-Serif" font-size="10.00">HubbleParam</text>
<text text-anchor="middle" x="411.63" y="-174" font-family="Helvetica,sans-Serif" font-size="10.00">HybridNuPartTime</text>
<text text-anchor="middle" x="411.63" y="-163" font-family="Helvetica,sans-Serif" font-size="10.00">HybridVcrit</text>
<text text-anchor="middle" x="411.63" y="-152" font-family="Helvetica,sans-Serif" font-size="10.00">MNu</text>
<text text-anchor="middle" x="411.63" y="-141" font-family="Helvetica,sans-Serif" font-size="10.00">Omega0</text>
<text text-anchor="middle" x="411.63" y="-130" font-family="Helvetica,sans-Serif" font-size="10.00">OmegaBaryon</text>
<text text-anchor="middle" x="411.63" y="-119" font-family="Helvetica,sans-Serif" font-size="10.00">OmegaCDM</text>
<text text-anchor="middle" x="411.63" y="-108" font-family="Helvetica,sans-Serif" font-size="10.00">...</text>
</g>
<!-- Node4 -->
<g id="node4" class="node">
<title>Node4</title>
<g id="a_node4"><a xlink:href="struct__omega__nu.html" target="_top" xlink:title=" ">
<polygon fill="white" stroke="black" points="256.13,-67.5 256.13,-86.5 329.13,-86.5 329.13,-67.5 256.13,-67.5"/>
<text text-anchor="middle" x="292.63" y="-74.5" font-family="Helvetica,sans-Serif" font-size="10.00">_omega_nu</text>
</a>
</g>
</g>
<!-- Node2&#45;&gt;Node4 -->
<g id="edge4" class="edge">
<title>Node2&#45;&gt;Node4</title>
<path fill="none" stroke="#9a32cd" stroke-dasharray="5,2" d="M345.58,-336.34C342.21,-320.57 337.37,-297.35 333.63,-277 319.62,-200.83 328.89,-178.88 305.63,-105 303.63,-98.65 300.38,-91.9 297.63,-86.74"/>
<polygon fill="#9a32cd" stroke="#9a32cd" points="342.21,-337.33 347.74,-346.37 349.05,-335.85 342.21,-337.33"/>
<text text-anchor="middle" x="349.63" y="-269" font-family="Helvetica,sans-Serif" font-size="10.00"> kBtnu</text>
<text text-anchor="middle" x="349.63" y="-258" font-family="Helvetica,sans-Serif" font-size="10.00">rhocrit</text>
<text text-anchor="middle" x="349.63" y="-247" font-family="Helvetica,sans-Serif" font-size="10.00">tcmb0</text>
</g>
<!-- Node5 -->
<g id="node5" class="node">
<title>Node5</title>
<g id="a_node5"><a xlink:href="struct__hybrid__nu.html" target="_top" xlink:title=" ">
<polygon fill="white" stroke="black" points="213.63,-251 213.63,-270 283.63,-270 283.63,-251 213.63,-251"/>
<text text-anchor="middle" x="248.63" y="-258" font-family="Helvetica,sans-Serif" font-size="10.00">_hybrid_nu</text>
</a>
</g>
</g>
<!-- Node2&#45;&gt;Node5 -->
<g id="edge6" class="edge">
<title>Node2&#45;&gt;Node5</title>
<path fill="none" stroke="#9a32cd" stroke-dasharray="5,2" d="M314.17,-350.85C286.24,-346.76 250.57,-339.45 241.63,-328 228.49,-311.16 237.85,-284.18 244.16,-270.33"/>
<polygon fill="#9a32cd" stroke="#9a32cd" points="314.04,-354.36 324.43,-352.26 315,-347.43 314.04,-354.36"/>
<text text-anchor="middle" x="273.63" y="-320" font-family="Helvetica,sans-Serif" font-size="10.00"> nu_crit_time</text>
<text text-anchor="middle" x="273.63" y="-309" font-family="Helvetica,sans-Serif" font-size="10.00">nufrac_low</text>
<text text-anchor="middle" x="273.63" y="-298" font-family="Helvetica,sans-Serif" font-size="10.00">vcrit</text>
</g>
<!-- Node6 -->
<g id="node6" class="node">
<title>Node6</title>
<g id="a_node6"><a xlink:href="struct__rho__nu__single.html" target="_top" xlink:title=" ">
<polygon fill="white" stroke="black" points="444.13,-251 444.13,-270 533.13,-270 533.13,-251 444.13,-251"/>
<text text-anchor="middle" x="488.63" y="-258" font-family="Helvetica,sans-Serif" font-size="10.00">_rho_nu_single</text>
</a>
</g>
</g>
<!-- Node2&#45;&gt;Node6 -->
<g id="edge10" class="edge">
<title>Node2&#45;&gt;Node6</title>
<path fill="none" stroke="#9a32cd" stroke-dasharray="5,2" d="M372.77,-341.16C379.55,-337.01 386.93,-332.39 393.63,-328 424.1,-308.01 458.97,-283.05 476.79,-270.13"/>
<polygon fill="#9a32cd" stroke="#9a32cd" points="370.77,-338.28 364.04,-346.46 374.4,-344.27 370.77,-338.28"/>
<text text-anchor="middle" x="455.63" y="-320" font-family="Helvetica,sans-Serif" font-size="10.00"> loga</text>
<text text-anchor="middle" x="455.63" y="-309" font-family="Helvetica,sans-Serif" font-size="10.00">mnu</text>
<text text-anchor="middle" x="455.63" y="-298" font-family="Helvetica,sans-Serif" font-size="10.00">rhonu</text>
</g>
<!-- Node3 -->
<g id="node3" class="node">
<title>Node3</title>
<g id="a_node3"><a xlink:title=" ">
<polygon fill="white" stroke="#bfbfbf" points="95.13,-346.5 95.13,-365.5 124.13,-365.5 124.13,-346.5 95.13,-346.5"/>
<text text-anchor="middle" x="109.63" y="-353.5" font-family="Helvetica,sans-Serif" font-size="10.00">int</text>
</a>
</g>
</g>
<!-- Node3&#45;&gt;Node1 -->
<g id="edge2" class="edge">
<title>Node3&#45;&gt;Node1</title>
<path fill="none" stroke="#9a32cd" stroke-dasharray="5,2" d="M94.27,-339.14C55.78,-297.43 -37.85,-182.59 17.63,-105 72.95,-27.63 195.9,-13.24 256.89,-11.02"/>
<polygon fill="#9a32cd" stroke="#9a32cd" points="91.77,-341.59 101.17,-346.47 96.87,-336.79 91.77,-341.59"/>
<text text-anchor="middle" x="70.63" y="-174" font-family="Helvetica,sans-Serif" font-size="10.00"> HybridNeutrinosOn</text>
<text text-anchor="middle" x="70.63" y="-163" font-family="Helvetica,sans-Serif" font-size="10.00">MassiveNuLinRespOn</text>
<text text-anchor="middle" x="70.63" y="-152" font-family="Helvetica,sans-Serif" font-size="10.00">RadiationOn</text>
</g>
<!-- Node3&#45;&gt;Node4 -->
<g id="edge12" class="edge">
<title>Node3&#45;&gt;Node4</title>
<path fill="none" stroke="#9a32cd" stroke-dasharray="5,2" d="M107.59,-336.48C105.85,-313.7 105.43,-274.33 118.63,-244 152.03,-167.27 180.35,-157.35 245.63,-105 254.59,-97.82 265.68,-91.35 274.84,-86.54"/>
<polygon fill="#9a32cd" stroke="#9a32cd" points="104.11,-336.85 108.52,-346.48 111.08,-336.2 104.11,-336.85"/>
<text text-anchor="middle" x="161.63" y="-258" font-family="Helvetica,sans-Serif" font-size="10.00"> nu_degeneracies</text>
</g>
<!-- Node3&#45;&gt;Node5 -->
<g id="edge7" class="edge">
<title>Node3&#45;&gt;Node5</title>
<path fill="none" stroke="#9a32cd" stroke-dasharray="5,2" d="M127.87,-339.98C143.55,-327.36 166.99,-309.16 188.63,-295 202.71,-285.79 219.48,-276.56 231.71,-270.13"/>
<polygon fill="#9a32cd" stroke="#9a32cd" points="125.57,-337.34 120.02,-346.36 129.99,-342.77 125.57,-337.34"/>
<text text-anchor="middle" x="210.13" y="-309" font-family="Helvetica,sans-Serif" font-size="10.00"> enabled</text>
</g>
<!-- Node4&#45;&gt;Node1 -->
<g id="edge3" class="edge">
<title>Node4&#45;&gt;Node1</title>
<path fill="none" stroke="#9a32cd" stroke-dasharray="5,2" d="M292.63,-57.04C292.63,-44.67 292.63,-29.12 292.63,-19.63"/>
<polygon fill="#9a32cd" stroke="#9a32cd" points="289.13,-57.23 292.63,-67.23 296.13,-57.23 289.13,-57.23"/>
<text text-anchor="middle" x="305.13" y="-41" font-family="Helvetica,sans-Serif" font-size="10.00"> ONu</text>
</g>
<!-- Node5&#45;&gt;Node4 -->
<g id="edge5" class="edge">
<title>Node5&#45;&gt;Node4</title>
<path fill="none" stroke="#9a32cd" stroke-dasharray="5,2" d="M248.41,-240.41C248.72,-210.38 252.04,-150.78 271.63,-105 274.53,-98.23 279.55,-91.68 283.95,-86.73"/>
<polygon fill="#9a32cd" stroke="#9a32cd" points="244.91,-240.71 248.41,-250.71 251.91,-240.71 244.91,-240.71"/>
<text text-anchor="middle" x="288.63" y="-163" font-family="Helvetica,sans-Serif" font-size="10.00"> hybnu</text>
</g>
<!-- Node6&#45;&gt;Node4 -->
<g id="edge8" class="edge">
<title>Node6&#45;&gt;Node4</title>
<path fill="none" stroke="#9a32cd" stroke-dasharray="5,2" d="M492.89,-240.7C499.02,-208.25 506.04,-141.66 470.63,-105 451.68,-85.39 375.86,-79.97 329.51,-78.5"/>
<polygon fill="#9a32cd" stroke="#9a32cd" points="489.43,-240.15 490.83,-250.66 496.28,-241.57 489.43,-240.15"/>
<text text-anchor="middle" x="524.63" y="-163" font-family="Helvetica,sans-Serif" font-size="10.00"> RhoNuTab</text>
</g>
<!-- Node7 -->
<g id="node7" class="node">
<title>Node7</title>
<g id="a_node7"><a xlink:title=" ">
<polygon fill="white" stroke="#bfbfbf" points="432.63,-346.5 432.63,-365.5 536.63,-365.5 536.63,-346.5 432.63,-346.5"/>
<text text-anchor="middle" x="484.63" y="-353.5" font-family="Helvetica,sans-Serif" font-size="10.00">gsl_interp_accel *</text>
</a>
</g>
</g>
<!-- Node7&#45;&gt;Node6 -->
<g id="edge9" class="edge">
<title>Node7&#45;&gt;Node6</title>
<path fill="none" stroke="#9a32cd" stroke-dasharray="5,2" d="M485.43,-336.24C486.29,-316.12 487.62,-285.05 488.26,-270.11"/>
<polygon fill="#9a32cd" stroke="#9a32cd" points="481.93,-336.23 485,-346.37 488.92,-336.53 481.93,-336.23"/>
<text text-anchor="middle" x="497.63" y="-309" font-family="Helvetica,sans-Serif" font-size="10.00"> acc</text>
</g>
<!-- Node8 -->
<g id="node8" class="node">
<title>Node8</title>
<g id="a_node8"><a xlink:title=" ">
<polygon fill="white" stroke="#bfbfbf" points="555.13,-346.5 555.13,-365.5 628.13,-365.5 628.13,-346.5 555.13,-346.5"/>
<text text-anchor="middle" x="591.63" y="-353.5" font-family="Helvetica,sans-Serif" font-size="10.00">gsl_interp *</text>
</a>
</g>
</g>
<!-- Node8&#45;&gt;Node6 -->
<g id="edge11" class="edge">
<title>Node8&#45;&gt;Node6</title>
<path fill="none" stroke="#9a32cd" stroke-dasharray="5,2" d="M574.56,-339.5C552.68,-319.64 515.5,-285.89 498.11,-270.11"/>
<polygon fill="#9a32cd" stroke="#9a32cd" points="572.37,-342.24 582.13,-346.37 577.07,-337.06 572.37,-342.24"/>
<text text-anchor="middle" x="577.63" y="-309" font-family="Helvetica,sans-Serif" font-size="10.00"> interp</text>
</g>
</g>
</svg>
