<?xml version="1.0" encoding="UTF-8" standalone="no"?>
<!DOCTYPE svg PUBLIC "-//W3C//DTD SVG 1.1//EN"
 "http://www.w3.org/Graphics/SVG/1.1/DTD/svg11.dtd">
<!-- Generated by graphviz version 2.38.0 (20140413.2041)
 -->
<!-- Title: SyncPoint Pages: 1 -->
<svg width="222pt" height="115pt"
 viewBox="0.00 0.00 222.00 115.00" xmlns="http://www.w3.org/2000/svg" xmlns:xlink="http://www.w3.org/1999/xlink">
<g id="graph0" class="graph" transform="scale(1 1) rotate(0) translate(4 111)">
<title>SyncPoint</title>
<polygon fill="white" stroke="none" points="-4,4 -4,-111 218,-111 218,4 -4,4"/>
<!-- Node1 -->
<g id="node1" class="node"><title>Node1</title>
<polygon fill="#bfbfbf" stroke="black" points="152,-45.5 152,-64.5 214,-64.5 214,-45.5 152,-45.5"/>
<text text-anchor="middle" x="183" y="-52.5" font-family="Helvetica,sans-Serif" font-size="10.00">SyncPoint</text>
</g>
<!-- Node2 -->
<g id="node2" class="node"><title>Node2</title>
<polygon fill="white" stroke="#bfbfbf" points="0.5,-83.5 0.5,-102.5 45.5,-102.5 45.5,-83.5 0.5,-83.5"/>
<text text-anchor="middle" x="23" y="-90.5" font-family="Helvetica,sans-Serif" font-size="10.00">double</text>
</g>
<!-- Node2&#45;&gt;Node1 -->
<g id="edge1" class="edge"><title>Node2&#45;&gt;Node1</title>
<path fill="none" stroke="#9a32cd" stroke-dasharray="5,2" d="M55.4868,-87.2561C77.5853,-83.0206 107.757,-76.8271 134,-70 140.168,-68.3954 146.722,-66.4862 152.939,-64.5766"/>
<polygon fill="#9a32cd" stroke="#9a32cd" points="54.8191,-83.8203 45.6427,-89.1159 56.1186,-90.6986 54.8191,-83.8203"/>
<text text-anchor="middle" x="99" y="-99" font-family="Helvetica,sans-Serif" font-size="10.00"> a</text>
<text text-anchor="middle" x="99" y="-88" font-family="Helvetica,sans-Serif" font-size="10.00">loga</text>
</g>
<!-- Node3 -->
<g id="node3" class="node"><title>Node3</title>
<polygon fill="white" stroke="#bfbfbf" points="0,-45.5 0,-64.5 46,-64.5 46,-45.5 0,-45.5"/>
<text text-anchor="middle" x="23" y="-52.5" font-family="Helvetica,sans-Serif" font-size="10.00">int32_t</text>
</g>
<!-- Node3&#45;&gt;Node1 -->
<g id="edge2" class="edge"><title>Node3&#45;&gt;Node1</title>
<path fill="none" stroke="#9a32cd" stroke-dasharray="5,2" d="M56.3991,-55C84.437,-55 124.663,-55 151.982,-55"/>
<polygon fill="#9a32cd" stroke="#9a32cd" points="56.3025,-51.5001 46.3024,-55 56.3024,-58.5001 56.3025,-51.5001"/>
<text text-anchor="middle" x="99" y="-58" font-family="Helvetica,sans-Serif" font-size="10.00"> ti</text>
</g>
<!-- Node4 -->
<g id="node4" class="node"><title>Node4</title>
<polygon fill="white" stroke="#bfbfbf" points="8.5,-0.5 8.5,-19.5 37.5,-19.5 37.5,-0.5 8.5,-0.5"/>
<text text-anchor="middle" x="23" y="-7.5" font-family="Helvetica,sans-Serif" font-size="10.00">int</text>
</g>
<!-- Node4&#45;&gt;Node1 -->
<g id="edge3" class="edge"><title>Node4&#45;&gt;Node1</title>
<path fill="none" stroke="#9a32cd" stroke-dasharray="5,2" d="M47.6156,-11.8434C70.2748,-14.1286 105.203,-19.0163 134,-29 145.82,-33.0979 158.212,-39.8825 167.444,-45.4935"/>
<polygon fill="#9a32cd" stroke="#9a32cd" points="47.8365,-8.34909 37.5583,-10.9198 47.1963,-15.3198 47.8365,-8.34909"/>
<text text-anchor="middle" x="99" y="-43" font-family="Helvetica,sans-Serif" font-size="10.00"> write_snapshot</text>
<text text-anchor="middle" x="99" y="-32" font-family="Helvetica,sans-Serif" font-size="10.00">write_fof</text>
</g>
</g>
</svg>
