<?xml version="1.0" encoding="UTF-8" standalone="no"?>
<!DOCTYPE svg PUBLIC "-//W3C//DTD SVG 1.1//EN"
 "http://www.w3.org/Graphics/SVG/1.1/DTD/svg11.dtd">
<!-- Generated by graphviz version 2.38.0 (20140413.2041)
 -->
<!-- Title: Group Pages: 1 -->
<svg width="343pt" height="270pt"
 viewBox="0.00 0.00 343.00 270.00" xmlns="http://www.w3.org/2000/svg" xmlns:xlink="http://www.w3.org/1999/xlink">
<g id="graph0" class="graph" transform="scale(1 1) rotate(0) translate(4 266)">
<title>Group</title>
<polygon fill="white" stroke="none" points="-4,4 -4,-266 339,-266 339,4 -4,4"/>
<!-- Node1 -->
<g id="node1" class="node"><title>Node1</title>
<polygon fill="#bfbfbf" stroke="black" points="292,-142.5 292,-161.5 335,-161.5 335,-142.5 292,-142.5"/>
<text text-anchor="middle" x="313.5" y="-149.5" font-family="Helvetica,sans-Serif" font-size="10.00">Group</text>
</g>
<!-- Node2 -->
<g id="node2" class="node"><title>Node2</title>
<polygon fill="white" stroke="#bfbfbf" points="155,-214.5 155,-233.5 200,-233.5 200,-214.5 155,-214.5"/>
<text text-anchor="middle" x="177.5" y="-221.5" font-family="Helvetica,sans-Serif" font-size="10.00">double</text>
</g>
<!-- Node2&#45;&gt;Node1 -->
<g id="edge1" class="edge"><title>Node2&#45;&gt;Node1</title>
<path fill="none" stroke="#9a32cd" stroke-dasharray="5,2" d="M205.416,-209.538C231.958,-195.277 271.77,-173.885 294.632,-161.601"/>
<polygon fill="#9a32cd" stroke="#9a32cd" points="203.446,-206.623 196.294,-214.439 206.76,-212.789 203.446,-206.623"/>
<text text-anchor="middle" x="251" y="-254" font-family="Helvetica,sans-Serif" font-size="10.00"> Imom</text>
<text text-anchor="middle" x="251" y="-243" font-family="Helvetica,sans-Serif" font-size="10.00">Mass</text>
<text text-anchor="middle" x="251" y="-232" font-family="Helvetica,sans-Serif" font-size="10.00">Vel</text>
<text text-anchor="middle" x="251" y="-221" font-family="Helvetica,sans-Serif" font-size="10.00">CM</text>
<text text-anchor="middle" x="251" y="-210" font-family="Helvetica,sans-Serif" font-size="10.00">Jmom</text>
<text text-anchor="middle" x="251" y="-199" font-family="Helvetica,sans-Serif" font-size="10.00">MassType</text>
</g>
<!-- Node3 -->
<g id="node3" class="node"><title>Node3</title>
<polygon fill="white" stroke="#bfbfbf" points="11,-109.5 11,-128.5 40,-128.5 40,-109.5 11,-109.5"/>
<text text-anchor="middle" x="25.5" y="-116.5" font-family="Helvetica,sans-Serif" font-size="10.00">int</text>
</g>
<!-- Node3&#45;&gt;Node1 -->
<g id="edge2" class="edge"><title>Node3&#45;&gt;Node1</title>
<path fill="none" stroke="#9a32cd" stroke-dasharray="5,2" d="M49.3425,-131.03C55.5605,-133.795 62.4038,-136.393 69,-138 149.637,-157.641 249.534,-155.413 291.931,-153.29"/>
<polygon fill="#9a32cd" stroke="#9a32cd" points="50.743,-127.82 40.2114,-126.664 47.7235,-134.135 50.743,-127.82"/>
<text text-anchor="middle" x="177.5" y="-190" font-family="Helvetica,sans-Serif" font-size="10.00"> LenType</text>
<text text-anchor="middle" x="177.5" y="-179" font-family="Helvetica,sans-Serif" font-size="10.00">seed_index</text>
<text text-anchor="middle" x="177.5" y="-168" font-family="Helvetica,sans-Serif" font-size="10.00">seed_task</text>
<text text-anchor="middle" x="177.5" y="-157" font-family="Helvetica,sans-Serif" font-size="10.00">Length</text>
</g>
<!-- Node4 -->
<g id="node4" class="node"><title>Node4</title>
<g id="a_node4"><a xlink:href="structBaseGroup.html" target="_top" xlink:title="BaseGroup">
<polygon fill="white" stroke="black" points="145,-55.5 145,-74.5 210,-74.5 210,-55.5 145,-55.5"/>
<text text-anchor="middle" x="177.5" y="-62.5" font-family="Helvetica,sans-Serif" font-size="10.00">BaseGroup</text>
</a>
</g>
</g>
<!-- Node3&#45;&gt;Node4 -->
<g id="edge6" class="edge"><title>Node3&#45;&gt;Node4</title>
<path fill="none" stroke="#9a32cd" stroke-dasharray="5,2" d="M42.171,-102.172C49.6298,-95.1638 59.0795,-87.602 69,-83 92.8607,-71.9313 122.503,-67.5759 144.614,-65.9067"/>
<polygon fill="#9a32cd" stroke="#9a32cd" points="39.5395,-99.8535 34.9308,-109.393 44.4828,-104.81 39.5395,-99.8535"/>
<text text-anchor="middle" x="98" y="-130" font-family="Helvetica,sans-Serif" font-size="10.00"> Length</text>
<text text-anchor="middle" x="98" y="-119" font-family="Helvetica,sans-Serif" font-size="10.00">OriginalIndex</text>
<text text-anchor="middle" x="98" y="-108" font-family="Helvetica,sans-Serif" font-size="10.00">GrNr</text>
<text text-anchor="middle" x="98" y="-97" font-family="Helvetica,sans-Serif" font-size="10.00">OriginalTask</text>
<text text-anchor="middle" x="98" y="-86" font-family="Helvetica,sans-Serif" font-size="10.00">MinIDTask</text>
</g>
<!-- Node4&#45;&gt;Node1 -->
<g id="edge3" class="edge"><title>Node4&#45;&gt;Node1</title>
<path fill="none" stroke="#9a32cd" stroke-dasharray="5,2" d="M201.977,-80.2424C229.531,-98.132 274.398,-127.262 297.581,-142.314"/>
<polygon fill="#9a32cd" stroke="#9a32cd" points="203.646,-77.1529 193.352,-74.6429 199.834,-83.024 203.646,-77.1529"/>
<text text-anchor="middle" x="251" y="-129" font-family="Helvetica,sans-Serif" font-size="10.00"> base</text>
</g>
<!-- Node5 -->
<g id="node5" class="node"><title>Node5</title>
<polygon fill="white" stroke="#bfbfbf" points="0,-38.5 0,-57.5 51,-57.5 51,-38.5 0,-38.5"/>
<text text-anchor="middle" x="25.5" y="-45.5" font-family="Helvetica,sans-Serif" font-size="10.00">uint64_t</text>
</g>
<!-- Node5&#45;&gt;Node4 -->
<g id="edge4" class="edge"><title>Node5&#45;&gt;Node4</title>
<path fill="none" stroke="#9a32cd" stroke-dasharray="5,2" d="M61.2705,-45.7762C80.725,-45.1732 105.348,-45.4772 127,-49 135.29,-50.3489 144.09,-52.8293 151.935,-55.4411"/>
<polygon fill="#9a32cd" stroke="#9a32cd" points="60.8962,-42.2884 51.0458,-46.1899 61.1792,-49.2827 60.8962,-42.2884"/>
<text text-anchor="middle" x="98" y="-52" font-family="Helvetica,sans-Serif" font-size="10.00"> MinID</text>
</g>
<!-- Node6 -->
<g id="node6" class="node"><title>Node6</title>
<polygon fill="white" stroke="#bfbfbf" points="8,-0.5 8,-19.5 43,-19.5 43,-0.5 8,-0.5"/>
<text text-anchor="middle" x="25.5" y="-7.5" font-family="Helvetica,sans-Serif" font-size="10.00">float</text>
</g>
<!-- Node6&#45;&gt;Node4 -->
<g id="edge5" class="edge"><title>Node6&#45;&gt;Node4</title>
<path fill="none" stroke="#9a32cd" stroke-dasharray="5,2" d="M53.1667,-12.2428C73.9586,-14.7072 103.2,-19.7702 127,-30 141.698,-36.3174 156.393,-47.4718 165.906,-55.4921"/>
<polygon fill="#9a32cd" stroke="#9a32cd" points="53.4515,-8.75346 43.1377,-11.1774 52.712,-15.7143 53.4515,-8.75346"/>
<text text-anchor="middle" x="98" y="-33" font-family="Helvetica,sans-Serif" font-size="10.00"> FirstPos</text>
</g>
</g>
</svg>
