<?xml version="1.0" encoding="UTF-8" standalone="no"?>
<!DOCTYPE svg PUBLIC "-//W3C//DTD SVG 1.1//EN"
 "http://www.w3.org/Graphics/SVG/1.1/DTD/svg11.dtd">
<!-- Generated by graphviz version 2.50.0 (0)
 -->
<!-- Title: particle_data Pages: 1 -->
<svg width="280pt" height="532pt"
 viewBox="0.00 0.00 280.00 532.00" xmlns="http://www.w3.org/2000/svg" xmlns:xlink="http://www.w3.org/1999/xlink">
<g id="graph0" class="graph" transform="scale(1 1) rotate(0) translate(4 528)">
<title>particle_data</title>
<polygon fill="white" stroke="transparent" points="-4,4 -4,-528 276,-528 276,4 -4,4"/>
<!-- Node1 -->
<g id="node1" class="node">
<title>Node1</title>
<g id="a_node1"><a xlink:title=" ">
<polygon fill="#bfbfbf" stroke="black" points="192,-297.5 192,-316.5 272,-316.5 272,-297.5 192,-297.5"/>
<text text-anchor="middle" x="232" y="-304.5" font-family="Helvetica,sans-Serif" font-size="10.00">particle_data</text>
</a>
</g>
</g>
<!-- Node2 -->
<g id="node2" class="node">
<title>Node2</title>
<g id="a_node2"><a xlink:title=" ">
<polygon fill="white" stroke="#bfbfbf" points="21,-495.5 21,-514.5 77,-514.5 77,-495.5 21,-495.5"/>
<text text-anchor="middle" x="49" y="-502.5" font-family="Helvetica,sans-Serif" font-size="10.00">uint64_t</text>
</a>
</g>
</g>
<!-- Node2&#45;&gt;Node1 -->
<g id="edge1" class="edge">
<title>Node2&#45;&gt;Node1</title>
<path fill="none" stroke="#9a32cd" stroke-dasharray="5,2" d="M87.44,-506.17C114.61,-505.01 150.56,-499.05 174,-478 223.13,-433.88 229.99,-346.32 230.89,-316.9"/>
<polygon fill="#9a32cd" stroke="#9a32cd" points="87.06,-502.67 77.14,-506.4 87.21,-509.67 87.06,-502.67"/>
<text text-anchor="middle" x="145" y="-516" font-family="Helvetica,sans-Serif" font-size="10.00"> ID</text>
<text text-anchor="middle" x="145" y="-505" font-family="Helvetica,sans-Serif" font-size="10.00">Key</text>
</g>
<!-- Node3 -->
<g id="node3" class="node">
<title>Node3</title>
<g id="a_node3"><a xlink:title=" ">
<polygon fill="white" stroke="#bfbfbf" points="24,-457.5 24,-476.5 74,-476.5 74,-457.5 24,-457.5"/>
<text text-anchor="middle" x="49" y="-464.5" font-family="Helvetica,sans-Serif" font-size="10.00">double</text>
</a>
</g>
</g>
<!-- Node3&#45;&gt;Node1 -->
<g id="edge2" class="edge">
<title>Node3&#45;&gt;Node1</title>
<path fill="none" stroke="#9a32cd" stroke-dasharray="5,2" d="M84.48,-467.37C111.64,-465.91 148.96,-459.78 174,-439 213.38,-406.32 226.24,-341.34 229.8,-316.74"/>
<polygon fill="#9a32cd" stroke="#9a32cd" points="84.13,-463.88 74.26,-467.73 84.37,-470.88 84.13,-463.88"/>
<text text-anchor="middle" x="145" y="-466" font-family="Helvetica,sans-Serif" font-size="10.00"> Pos</text>
</g>
<!-- Node4 -->
<g id="node4" class="node">
<title>Node4</title>
<g id="a_node4"><a xlink:title=" ">
<polygon fill="white" stroke="#bfbfbf" points="0,-419.5 0,-438.5 98,-438.5 98,-419.5 0,-419.5"/>
<text text-anchor="middle" x="49" y="-426.5" font-family="Helvetica,sans-Serif" font-size="10.00">anonymous:@11</text>
</a>
</g>
</g>
<!-- Node4&#45;&gt;Node1 -->
<g id="edge3" class="edge">
<title>Node4&#45;&gt;Node1</title>
<path fill="none" stroke="#9a32cd" stroke-dasharray="5,2" d="M108.14,-426.1C130.4,-422.61 154.98,-415.64 174,-402 204.63,-380.02 221.77,-336.01 228.12,-316.59"/>
<polygon fill="#9a32cd" stroke="#9a32cd" points="107.54,-422.65 98.1,-427.47 108.48,-429.58 107.54,-422.65"/>
<text text-anchor="middle" x="145" y="-427" font-family="Helvetica,sans-Serif" font-size="10.00"> @11</text>
</g>
<!-- Node5 -->
<g id="node5" class="node">
<title>Node5</title>
<g id="a_node5"><a xlink:title=" ">
<polygon fill="white" stroke="#bfbfbf" points="30,-371.5 30,-390.5 68,-390.5 68,-371.5 30,-371.5"/>
<text text-anchor="middle" x="49" y="-378.5" font-family="Helvetica,sans-Serif" font-size="10.00">char</text>
</a>
</g>
</g>
<!-- Node5&#45;&gt;Node1 -->
<g id="edge4" class="edge">
<title>Node5&#45;&gt;Node1</title>
<path fill="none" stroke="#9a32cd" stroke-dasharray="5,2" d="M78.12,-375.42C103.84,-369.72 142.56,-359.62 174,-345 190.61,-337.28 207.86,-325.09 218.97,-316.61"/>
<polygon fill="#9a32cd" stroke="#9a32cd" points="77.32,-372.01 68.28,-377.52 78.79,-378.85 77.32,-372.01"/>
<text text-anchor="middle" x="145" y="-390" font-family="Helvetica,sans-Serif" font-size="10.00"> Generation</text>
<text text-anchor="middle" x="145" y="-379" font-family="Helvetica,sans-Serif" font-size="10.00">HeIIIionized</text>
<text text-anchor="middle" x="145" y="-368" font-family="Helvetica,sans-Serif" font-size="10.00">TimeBin</text>
</g>
<!-- Node6 -->
<g id="node6" class="node">
<title>Node6</title>
<g id="a_node6"><a xlink:title=" ">
<polygon fill="white" stroke="#bfbfbf" points="30,-333.5 30,-352.5 68,-352.5 68,-333.5 30,-333.5"/>
<text text-anchor="middle" x="49" y="-340.5" font-family="Helvetica,sans-Serif" font-size="10.00">float</text>
</a>
</g>
</g>
<!-- Node6&#45;&gt;Node1 -->
<g id="edge5" class="edge">
<title>Node6&#45;&gt;Node1</title>
<path fill="none" stroke="#9a32cd" stroke-dasharray="5,2" d="M78.04,-337.71C103.18,-332.93 141.09,-325.65 174,-319 179.75,-317.84 185.82,-316.59 191.77,-315.35"/>
<polygon fill="#9a32cd" stroke="#9a32cd" points="77.26,-334.29 68.09,-339.59 78.57,-341.17 77.26,-334.29"/>
<text text-anchor="middle" x="145" y="-333" font-family="Helvetica,sans-Serif" font-size="10.00"> Mass</text>
</g>
<!-- Node7 -->
<g id="node7" class="node">
<title>Node7</title>
<g id="a_node7"><a xlink:title=" ">
<polygon fill="white" stroke="#bfbfbf" points="24,-295.5 24,-314.5 74,-314.5 74,-295.5 24,-295.5"/>
<text text-anchor="middle" x="49" y="-302.5" font-family="Helvetica,sans-Serif" font-size="10.00">int64_t</text>
</a>
</g>
</g>
<!-- Node7&#45;&gt;Node1 -->
<g id="edge6" class="edge">
<title>Node7&#45;&gt;Node1</title>
<path fill="none" stroke="#9a32cd" stroke-dasharray="5,2" d="M84.24,-305.38C114.92,-305.72 159.87,-306.21 191.94,-306.57"/>
<polygon fill="#9a32cd" stroke="#9a32cd" points="84.07,-301.88 74.04,-305.27 84,-308.88 84.07,-301.88"/>
<text text-anchor="middle" x="145" y="-309" font-family="Helvetica,sans-Serif" font-size="10.00"> GrNr</text>
</g>
<!-- Node8 -->
<g id="node8" class="node">
<title>Node8</title>
<g id="a_node8"><a xlink:title=" ">
<polygon fill="white" stroke="#bfbfbf" points="24,-257.5 24,-276.5 74,-276.5 74,-257.5 24,-257.5"/>
<text text-anchor="middle" x="49" y="-264.5" font-family="Helvetica,sans-Serif" font-size="10.00">int32_t</text>
</a>
</g>
</g>
<!-- Node8&#45;&gt;Node1 -->
<g id="edge7" class="edge">
<title>Node8&#45;&gt;Node1</title>
<path fill="none" stroke="#9a32cd" stroke-dasharray="5,2" d="M84.48,-272.38C109.48,-276.53 144.01,-282.77 174,-290 182.93,-292.15 192.55,-294.87 201.28,-297.49"/>
<polygon fill="#9a32cd" stroke="#9a32cd" points="84.83,-268.89 74.4,-270.74 83.7,-275.8 84.83,-268.89"/>
<text text-anchor="middle" x="145" y="-293" font-family="Helvetica,sans-Serif" font-size="10.00"> Ti_drift</text>
</g>
<!-- Node9 -->
<g id="node9" class="node">
<title>Node9</title>
<g id="a_node9"><a xlink:title=" ">
<polygon fill="white" stroke="#bfbfbf" points="34.5,-163.5 34.5,-182.5 63.5,-182.5 63.5,-163.5 34.5,-163.5"/>
<text text-anchor="middle" x="49" y="-170.5" font-family="Helvetica,sans-Serif" font-size="10.00">int</text>
</a>
</g>
</g>
<!-- Node9&#45;&gt;Node1 -->
<g id="edge8" class="edge">
<title>Node9&#45;&gt;Node1</title>
<path fill="none" stroke="#9a32cd" stroke-dasharray="5,2" d="M73.91,-171.49C100.84,-171.03 144.67,-174.17 174,-196 208.93,-222 224.15,-275.6 229.07,-297.43"/>
<polygon fill="#9a32cd" stroke="#9a32cd" points="73.69,-168 63.82,-171.84 73.94,-174.99 73.69,-168"/>
<text text-anchor="middle" x="145" y="-265" font-family="Helvetica,sans-Serif" font-size="10.00"> BHHeated</text>
<text text-anchor="middle" x="145" y="-254" font-family="Helvetica,sans-Serif" font-size="10.00">IsGarbage</text>
<text text-anchor="middle" x="145" y="-243" font-family="Helvetica,sans-Serif" font-size="10.00">PI</text>
<text text-anchor="middle" x="145" y="-232" font-family="Helvetica,sans-Serif" font-size="10.00">Swallowed</text>
<text text-anchor="middle" x="145" y="-221" font-family="Helvetica,sans-Serif" font-size="10.00">TargetTask</text>
<text text-anchor="middle" x="145" y="-210" font-family="Helvetica,sans-Serif" font-size="10.00">Type</text>
<text text-anchor="middle" x="145" y="-199" font-family="Helvetica,sans-Serif" font-size="10.00">spare_1</text>
</g>
<!-- Node10 -->
<g id="node10" class="node">
<title>Node10</title>
<g id="a_node10"><a xlink:title=" ">
<polygon fill="white" stroke="#bfbfbf" points="0.5,-76.5 0.5,-95.5 97.5,-95.5 97.5,-76.5 0.5,-76.5"/>
<text text-anchor="middle" x="49" y="-83.5" font-family="Helvetica,sans-Serif" font-size="10.00">LOW_PRECISION</text>
</a>
</g>
</g>
<!-- Node10&#45;&gt;Node1 -->
<g id="edge9" class="edge">
<title>Node10&#45;&gt;Node1</title>
<path fill="none" stroke="#9a32cd" stroke-dasharray="5,2" d="M107.6,-81.49C130.71,-82.69 156.06,-88.25 174,-104 204.19,-130.51 224.51,-260.8 229.7,-297.41"/>
<polygon fill="#9a32cd" stroke="#9a32cd" points="107.61,-77.99 97.52,-81.22 107.42,-84.98 107.61,-77.99"/>
<text text-anchor="middle" x="145" y="-162" font-family="Helvetica,sans-Serif" font-size="10.00"> DtHsml</text>
<text text-anchor="middle" x="145" y="-151" font-family="Helvetica,sans-Serif" font-size="10.00">GravAccel</text>
<text text-anchor="middle" x="145" y="-140" font-family="Helvetica,sans-Serif" font-size="10.00">GravPM</text>
<text text-anchor="middle" x="145" y="-129" font-family="Helvetica,sans-Serif" font-size="10.00">Hsml</text>
<text text-anchor="middle" x="145" y="-118" font-family="Helvetica,sans-Serif" font-size="10.00">Potential</text>
<text text-anchor="middle" x="145" y="-107" font-family="Helvetica,sans-Serif" font-size="10.00">Vel</text>
</g>
<!-- Node11 -->
<g id="node11" class="node">
<title>Node11</title>
<g id="a_node11"><a xlink:title=" ">
<polygon fill="white" stroke="#bfbfbf" points="0,-38.5 0,-57.5 98,-57.5 98,-38.5 0,-38.5"/>
<text text-anchor="middle" x="49" y="-45.5" font-family="Helvetica,sans-Serif" font-size="10.00">anonymous:@13</text>
</a>
</g>
</g>
<!-- Node11&#45;&gt;Node1 -->
<g id="edge10" class="edge">
<title>Node11&#45;&gt;Node1</title>
<path fill="none" stroke="#9a32cd" stroke-dasharray="5,2" d="M108.23,-43.67C131.33,-45.04 156.5,-50.86 174,-67 209.03,-99.3 226.23,-256.75 230.13,-297.41"/>
<polygon fill="#9a32cd" stroke="#9a32cd" points="108.26,-40.17 98.15,-43.33 108.03,-47.17 108.26,-40.17"/>
<text text-anchor="middle" x="145" y="-70" font-family="Helvetica,sans-Serif" font-size="10.00"> @13</text>
</g>
<!-- Node12 -->
<g id="node12" class="node">
<title>Node12</title>
<g id="a_node12"><a xlink:title=" ">
<polygon fill="white" stroke="#bfbfbf" points="0,-0.5 0,-19.5 98,-19.5 98,-0.5 0,-0.5"/>
<text text-anchor="middle" x="49" y="-7.5" font-family="Helvetica,sans-Serif" font-size="10.00">anonymous:@15</text>
</a>
</g>
</g>
<!-- Node12&#45;&gt;Node1 -->
<g id="edge11" class="edge">
<title>Node12&#45;&gt;Node1</title>
<path fill="none" stroke="#9a32cd" stroke-dasharray="5,2" d="M108.21,-5.39C131.42,-6.69 156.68,-12.53 174,-29 214.16,-67.2 227.76,-253 230.46,-297.44"/>
<polygon fill="#9a32cd" stroke="#9a32cd" points="108.17,-1.89 98.07,-5.09 107.96,-8.88 108.17,-1.89"/>
<text text-anchor="middle" x="145" y="-32" font-family="Helvetica,sans-Serif" font-size="10.00"> @15</text>
</g>
</g>
</svg>
