<?xml version="1.0" encoding="UTF-8" standalone="no"?>
<!DOCTYPE svg PUBLIC "-//W3C//DTD SVG 1.1//EN"
 "http://www.w3.org/Graphics/SVG/1.1/DTD/svg11.dtd">
<!-- Generated by graphviz version 2.50.0 (0)
 -->
<!-- Title: ForceTree Pages: 1 -->
<svg width="751pt" height="462pt"
 viewBox="0.00 0.00 750.50 462.00" xmlns="http://www.w3.org/2000/svg" xmlns:xlink="http://www.w3.org/1999/xlink">
<g id="graph0" class="graph" transform="scale(1 1) rotate(0) translate(4 458)">
<title>ForceTree</title>
<polygon fill="white" stroke="transparent" points="-4,4 -4,-458 746.5,-458 746.5,4 -4,4"/>
<!-- Node1 -->
<g id="node1" class="node">
<title>Node1</title>
<g id="a_node1"><a xlink:title=" ">
<polygon fill="#bfbfbf" stroke="black" points="95.5,-0.5 95.5,-19.5 158.5,-19.5 158.5,-0.5 95.5,-0.5"/>
<text text-anchor="middle" x="127" y="-7.5" font-family="Helvetica,sans-Serif" font-size="10.00">ForceTree</text>
</a>
</g>
</g>
<!-- Node2 -->
<g id="node2" class="node">
<title>Node2</title>
<g id="a_node2"><a xlink:title=" ">
<polygon fill="white" stroke="#bfbfbf" points="0,-78.5 0,-97.5 50,-97.5 50,-78.5 0,-78.5"/>
<text text-anchor="middle" x="25" y="-85.5" font-family="Helvetica,sans-Serif" font-size="10.00">double</text>
</a>
</g>
</g>
<!-- Node2&#45;&gt;Node1 -->
<g id="edge1" class="edge">
<title>Node2&#45;&gt;Node1</title>
<path fill="none" stroke="#9a32cd" stroke-dasharray="5,2" d="M21.72,-68.09C21.08,-58.09 22.2,-46.21 29,-38 44.87,-18.84 72.99,-12.59 95.05,-10.85"/>
<polygon fill="#9a32cd" stroke="#9a32cd" points="18.28,-68.79 22.98,-78.29 25.23,-67.93 18.28,-68.79"/>
<text text-anchor="middle" x="50.5" y="-46.5" font-family="Helvetica,sans-Serif" font-size="10.00"> BoxSize</text>
</g>
<!-- Node3 -->
<g id="node3" class="node">
<title>Node3</title>
<g id="a_node3"><a xlink:href="structNODE.html" target="_top" xlink:title=" ">
<polygon fill="white" stroke="black" points="384.5,-78.5 384.5,-97.5 429.5,-97.5 429.5,-78.5 384.5,-78.5"/>
<text text-anchor="middle" x="407" y="-85.5" font-family="Helvetica,sans-Serif" font-size="10.00">NODE</text>
</a>
</g>
</g>
<!-- Node3&#45;&gt;Node1 -->
<g id="edge2" class="edge">
<title>Node3&#45;&gt;Node1</title>
<path fill="none" stroke="#9a32cd" stroke-dasharray="5,2" d="M374.3,-78.12C320.06,-63.4 212.19,-34.12 158.66,-19.59"/>
<polygon fill="#9a32cd" stroke="#9a32cd" points="373.52,-81.54 384.09,-80.78 375.35,-74.78 373.52,-81.54"/>
<text text-anchor="middle" x="331" y="-52" font-family="Helvetica,sans-Serif" font-size="10.00"> Nodes</text>
<text text-anchor="middle" x="331" y="-41" font-family="Helvetica,sans-Serif" font-size="10.00">Nodes_base</text>
</g>
<!-- Node4 -->
<g id="node4" class="node">
<title>Node4</title>
<g id="a_node4"><a xlink:href="structNodeChild.html" target="_top" xlink:title=" ">
<polygon fill="white" stroke="black" points="675.5,-317 675.5,-336 742.5,-336 742.5,-317 675.5,-317"/>
<text text-anchor="middle" x="709" y="-324" font-family="Helvetica,sans-Serif" font-size="10.00">NodeChild</text>
</a>
</g>
</g>
<!-- Node4&#45;&gt;Node3 -->
<g id="edge3" class="edge">
<title>Node4&#45;&gt;Node3</title>
<path fill="none" stroke="#9a32cd" stroke-dasharray="5,2" d="M702.2,-307.56C685.52,-266.18 638.35,-163.95 563,-116 541.2,-102.13 467.29,-94.07 429.56,-90.77"/>
<polygon fill="#9a32cd" stroke="#9a32cd" points="698.96,-308.87 705.87,-316.9 705.48,-306.32 698.96,-308.87"/>
<text text-anchor="middle" x="689.5" y="-190.5" font-family="Helvetica,sans-Serif" font-size="10.00"> s</text>
</g>
<!-- Node5 -->
<g id="node5" class="node">
<title>Node5</title>
<g id="a_node5"><a xlink:title=" ">
<polygon fill="white" stroke="#bfbfbf" points="344.5,-434.5 344.5,-453.5 373.5,-453.5 373.5,-434.5 344.5,-434.5"/>
<text text-anchor="middle" x="359" y="-441.5" font-family="Helvetica,sans-Serif" font-size="10.00">int</text>
</a>
</g>
</g>
<!-- Node5&#45;&gt;Node1 -->
<g id="edge9" class="edge">
<title>Node5&#45;&gt;Node1</title>
<path fill="none" stroke="#9a32cd" stroke-dasharray="5,2" d="M334.4,-438.86C296.89,-431.21 225.78,-411.22 188,-365 151.08,-319.82 160.92,-103.67 155,-78 149.96,-56.13 138.39,-32.28 131.81,-19.78"/>
<polygon fill="#9a32cd" stroke="#9a32cd" points="333.98,-442.34 344.46,-440.78 335.29,-435.47 333.98,-442.34"/>
<text text-anchor="middle" x="214.5" y="-262" font-family="Helvetica,sans-Serif" font-size="10.00"> Father</text>
<text text-anchor="middle" x="214.5" y="-251" font-family="Helvetica,sans-Serif" font-size="10.00">NTopLeaves</text>
<text text-anchor="middle" x="214.5" y="-240" font-family="Helvetica,sans-Serif" font-size="10.00">firstnode</text>
<text text-anchor="start" x="164" y="-229" font-family="Helvetica,sans-Serif" font-size="10.00">hmax_computed</text>
<text text-anchor="middle" x="214.5" y="-218" font-family="Helvetica,sans-Serif" font-size="10.00">_flag</text>
<text text-anchor="middle" x="214.5" y="-207" font-family="Helvetica,sans-Serif" font-size="10.00">lastnode</text>
<text text-anchor="middle" x="214.5" y="-196" font-family="Helvetica,sans-Serif" font-size="10.00">mask</text>
<text text-anchor="start" x="164" y="-185" font-family="Helvetica,sans-Serif" font-size="10.00">moments_computed</text>
<text text-anchor="middle" x="214.5" y="-174" font-family="Helvetica,sans-Serif" font-size="10.00">_flag</text>
<text text-anchor="middle" x="214.5" y="-163" font-family="Helvetica,sans-Serif" font-size="10.00">nfather</text>
<text text-anchor="middle" x="214.5" y="-152" font-family="Helvetica,sans-Serif" font-size="10.00">numnodes</text>
<text text-anchor="start" x="164" y="-141" font-family="Helvetica,sans-Serif" font-size="10.00">tree_allocated</text>
<text text-anchor="middle" x="214.5" y="-130" font-family="Helvetica,sans-Serif" font-size="10.00">_flag</text>
<text text-anchor="middle" x="214.5" y="-119" font-family="Helvetica,sans-Serif" font-size="10.00">...</text>
</g>
<!-- Node5&#45;&gt;Node3 -->
<g id="edge5" class="edge">
<title>Node5&#45;&gt;Node3</title>
<path fill="none" stroke="#9a32cd" stroke-dasharray="5,2" d="M383.77,-439.43C421.3,-432.55 491.41,-413.56 522,-365 557.98,-307.9 501.01,-138.48 481,-116 467.9,-101.29 446.13,-94.59 429.58,-91.54"/>
<polygon fill="#9a32cd" stroke="#9a32cd" points="382.96,-436.02 373.68,-441.13 384.13,-442.92 382.96,-436.02"/>
<text text-anchor="middle" x="587" y="-357" font-family="Helvetica,sans-Serif" font-size="10.00"> ChildType</text>
<text text-anchor="middle" x="587" y="-346" font-family="Helvetica,sans-Serif" font-size="10.00">DependsOnLocalMass</text>
<text text-anchor="middle" x="587" y="-335" font-family="Helvetica,sans-Serif" font-size="10.00">InternalTopLevel</text>
<text text-anchor="middle" x="587" y="-324" font-family="Helvetica,sans-Serif" font-size="10.00">TopLevel</text>
<text text-anchor="middle" x="587" y="-313" font-family="Helvetica,sans-Serif" font-size="10.00">father</text>
<text text-anchor="middle" x="587" y="-302" font-family="Helvetica,sans-Serif" font-size="10.00">sibling</text>
<text text-anchor="middle" x="587" y="-291" font-family="Helvetica,sans-Serif" font-size="10.00">unused</text>
</g>
<!-- Node5&#45;&gt;Node4 -->
<g id="edge4" class="edge">
<title>Node5&#45;&gt;Node4</title>
<path fill="none" stroke="#9a32cd" stroke-dasharray="5,2" d="M383.88,-442.47C422.92,-441.04 500.54,-435.71 563,-416 609.82,-401.22 619.7,-391.56 661,-365 674.88,-356.08 689.66,-344.1 699.1,-336.11"/>
<polygon fill="#9a32cd" stroke="#9a32cd" points="383.61,-438.98 373.72,-442.79 383.82,-445.98 383.61,-438.98"/>
<text text-anchor="middle" x="657" y="-408" font-family="Helvetica,sans-Serif" font-size="10.00"> Types</text>
<text text-anchor="middle" x="657" y="-397" font-family="Helvetica,sans-Serif" font-size="10.00">noccupied</text>
<text text-anchor="middle" x="657" y="-386" font-family="Helvetica,sans-Serif" font-size="10.00">suns</text>
</g>
<!-- Node9 -->
<g id="node9" class="node">
<title>Node9</title>
<g id="a_node9"><a xlink:href="structtopleaf__data.html" target="_top" xlink:title=" ">
<polygon fill="white" stroke="black" points="47,-317 47,-336 125,-336 125,-317 47,-317"/>
<text text-anchor="middle" x="86" y="-324" font-family="Helvetica,sans-Serif" font-size="10.00">topleaf_data</text>
</a>
</g>
</g>
<!-- Node5&#45;&gt;Node9 -->
<g id="edge11" class="edge">
<title>Node5&#45;&gt;Node9</title>
<path fill="none" stroke="#9a32cd" stroke-dasharray="5,2" d="M334.26,-443.69C278.29,-444.72 144.25,-444.12 111,-416 86.98,-395.69 85.13,-354.23 85.54,-336.2"/>
<polygon fill="#9a32cd" stroke="#9a32cd" points="334.44,-447.18 344.36,-443.47 334.28,-440.19 334.44,-447.18"/>
<text text-anchor="middle" x="133" y="-408" font-family="Helvetica,sans-Serif" font-size="10.00"> Task</text>
<text text-anchor="middle" x="133" y="-397" font-family="Helvetica,sans-Serif" font-size="10.00">topnode</text>
<text text-anchor="middle" x="133" y="-386" font-family="Helvetica,sans-Serif" font-size="10.00">treenode</text>
</g>
<!-- Node6 -->
<g id="node6" class="node">
<title>Node6</title>
<g id="a_node6"><a xlink:title=" ">
<polygon fill="white" stroke="#bfbfbf" points="197.5,-317 197.5,-336 294.5,-336 294.5,-317 197.5,-317"/>
<text text-anchor="middle" x="246" y="-324" font-family="Helvetica,sans-Serif" font-size="10.00">LOW_PRECISION</text>
</a>
</g>
</g>
<!-- Node6&#45;&gt;Node3 -->
<g id="edge6" class="edge">
<title>Node6&#45;&gt;Node3</title>
<path fill="none" stroke="#9a32cd" stroke-dasharray="5,2" d="M254.38,-307.72C259.39,-296.9 265.78,-282.75 271,-270 298.67,-202.47 275.75,-166.95 328,-116 343.15,-101.23 366.72,-94.52 384.17,-91.49"/>
<polygon fill="#9a32cd" stroke="#9a32cd" points="251.14,-306.39 250.08,-316.93 257.49,-309.35 251.14,-306.39"/>
<text text-anchor="middle" x="345" y="-212.5" font-family="Helvetica,sans-Serif" font-size="10.00"> center</text>
<text text-anchor="middle" x="345" y="-201.5" font-family="Helvetica,sans-Serif" font-size="10.00">cofm</text>
<text text-anchor="middle" x="345" y="-190.5" font-family="Helvetica,sans-Serif" font-size="10.00">hmax</text>
<text text-anchor="middle" x="345" y="-179.5" font-family="Helvetica,sans-Serif" font-size="10.00">len</text>
<text text-anchor="middle" x="345" y="-168.5" font-family="Helvetica,sans-Serif" font-size="10.00">mass</text>
</g>
<!-- Node7 -->
<g id="node7" class="node">
<title>Node7</title>
<g id="a_node7"><a xlink:title=" ">
<polygon fill="white" stroke="#bfbfbf" points="313,-317 313,-336 393,-336 393,-317 313,-317"/>
<text text-anchor="middle" x="353" y="-324" font-family="Helvetica,sans-Serif" font-size="10.00">anonymous:f</text>
</a>
</g>
</g>
<!-- Node7&#45;&gt;Node3 -->
<g id="edge7" class="edge">
<title>Node7&#45;&gt;Node3</title>
<path fill="none" stroke="#9a32cd" stroke-dasharray="5,2" d="M357.26,-306.83C368.26,-258.67 397.27,-131.63 405.05,-97.53"/>
<polygon fill="#9a32cd" stroke="#9a32cd" points="353.8,-306.27 354.99,-316.8 360.62,-307.83 353.8,-306.27"/>
<text text-anchor="middle" x="403.5" y="-190.5" font-family="Helvetica,sans-Serif" font-size="10.00"> f</text>
</g>
<!-- Node8 -->
<g id="node8" class="node">
<title>Node8</title>
<g id="a_node8"><a xlink:title=" ">
<polygon fill="white" stroke="#bfbfbf" points="411,-317 411,-336 513,-336 513,-317 411,-317"/>
<text text-anchor="middle" x="462" y="-324" font-family="Helvetica,sans-Serif" font-size="10.00">anonymous:mom</text>
</a>
</g>
</g>
<!-- Node8&#45;&gt;Node3 -->
<g id="edge8" class="edge">
<title>Node8&#45;&gt;Node3</title>
<path fill="none" stroke="#9a32cd" stroke-dasharray="5,2" d="M457.66,-306.83C446.46,-258.67 416.91,-131.63 408.98,-97.53"/>
<polygon fill="#9a32cd" stroke="#9a32cd" points="454.3,-307.86 459.98,-316.8 461.12,-306.27 454.3,-307.86"/>
<text text-anchor="middle" x="462.5" y="-190.5" font-family="Helvetica,sans-Serif" font-size="10.00"> mom</text>
</g>
<!-- Node9&#45;&gt;Node1 -->
<g id="edge10" class="edge">
<title>Node9&#45;&gt;Node1</title>
<path fill="none" stroke="#9a32cd" stroke-dasharray="5,2" d="M85,-306.75C83.23,-265.05 81.3,-161.7 100,-78 104.87,-56.21 116.02,-32.33 122.36,-19.8"/>
<polygon fill="#9a32cd" stroke="#9a32cd" points="81.51,-306.99 85.48,-316.81 88.5,-306.66 81.51,-306.99"/>
<text text-anchor="middle" x="127.5" y="-85.5" font-family="Helvetica,sans-Serif" font-size="10.00"> TopLeaves</text>
</g>
<!-- Node10 -->
<g id="node10" class="node">
<title>Node10</title>
<g id="a_node10"><a xlink:title=" ">
<polygon fill="white" stroke="#bfbfbf" points="22,-434.5 22,-453.5 114,-453.5 114,-434.5 22,-434.5"/>
<text text-anchor="middle" x="68" y="-441.5" font-family="Helvetica,sans-Serif" font-size="10.00">anonymous:@5</text>
</a>
</g>
</g>
<!-- Node10&#45;&gt;Node9 -->
<g id="edge12" class="edge">
<title>Node10&#45;&gt;Node9</title>
<path fill="none" stroke="#9a32cd" stroke-dasharray="5,2" d="M66.97,-424.34C66.65,-412.43 66.83,-396.72 69,-383 71.68,-366.08 78.3,-347.16 82.44,-336.35"/>
<polygon fill="#9a32cd" stroke="#9a32cd" points="63.48,-424.54 67.39,-434.39 70.47,-424.25 63.48,-424.54"/>
<text text-anchor="middle" x="78.5" y="-397" font-family="Helvetica,sans-Serif" font-size="10.00"> @5</text>
</g>
</g>
</svg>
