<?xml version="1.0" encoding="UTF-8" standalone="no"?>
<!DOCTYPE svg PUBLIC "-//W3C//DTD SVG 1.1//EN"
 "http://www.w3.org/Graphics/SVG/1.1/DTD/svg11.dtd">
<!-- Generated by graphviz version 2.50.0 (0)
 -->
<!-- Title: QSOPriv Pages: 1 -->
<svg width="477pt" height="485pt"
 viewBox="0.00 0.00 477.00 485.00" xmlns="http://www.w3.org/2000/svg" xmlns:xlink="http://www.w3.org/1999/xlink">
<g id="graph0" class="graph" transform="scale(1 1) rotate(0) translate(4 481)">
<title>QSOPriv</title>
<polygon fill="white" stroke="transparent" points="-4,4 -4,-481 473,-481 473,4 -4,4"/>
<!-- Node1 -->
<g id="node1" class="node">
<title>Node1</title>
<g id="a_node1"><a xlink:title=" ">
<polygon fill="#bfbfbf" stroke="black" points="97,-0.5 97,-19.5 153,-19.5 153,-0.5 97,-0.5"/>
<text text-anchor="middle" x="125" y="-7.5" font-family="Helvetica,sans-Serif" font-size="10.00">QSOPriv</text>
</a>
</g>
</g>
<!-- Node2 -->
<g id="node2" class="node">
<title>Node2</title>
<g id="a_node2"><a xlink:title=" ">
<polygon fill="white" stroke="#bfbfbf" points="0,-334.5 0,-353.5 50,-353.5 50,-334.5 0,-334.5"/>
<text text-anchor="middle" x="25" y="-341.5" font-family="Helvetica,sans-Serif" font-size="10.00">double</text>
</a>
</g>
</g>
<!-- Node2&#45;&gt;Node1 -->
<g id="edge1" class="edge">
<title>Node2&#45;&gt;Node1</title>
<path fill="none" stroke="#9a32cd" stroke-dasharray="5,2" d="M21.3,-324.5C16,-294.25 8.28,-232.63 22,-183 41.3,-113.22 97.23,-43.29 117.53,-19.51"/>
<polygon fill="#9a32cd" stroke="#9a32cd" points="17.89,-325.28 23.17,-334.46 24.77,-323.99 17.89,-325.28"/>
<text text-anchor="middle" x="80.5" y="-119" font-family="Helvetica,sans-Serif" font-size="10.00"> a3inv</text>
<text text-anchor="middle" x="80.5" y="-108" font-family="Helvetica,sans-Serif" font-size="10.00">uu_in_cgs</text>
</g>
<!-- Node6 -->
<g id="node6" class="node">
<title>Node6</title>
<g id="a_node6"><a xlink:href="structGroup.html" target="_top" xlink:title=" ">
<polygon fill="white" stroke="black" points="216,-145.5 216,-164.5 262,-164.5 262,-145.5 216,-145.5"/>
<text text-anchor="middle" x="239" y="-152.5" font-family="Helvetica,sans-Serif" font-size="10.00">Group</text>
</a>
</g>
</g>
<!-- Node2&#45;&gt;Node6 -->
<g id="edge7" class="edge">
<title>Node2&#45;&gt;Node6</title>
<path fill="none" stroke="#9a32cd" stroke-dasharray="5,2" d="M24.22,-323.84C23.09,-285.78 22.95,-202.61 42,-183 62.79,-161.61 145.45,-169.08 175,-165 188.56,-163.13 203.73,-161 215.9,-159.28"/>
<polygon fill="#9a32cd" stroke="#9a32cd" points="20.73,-324.22 24.58,-334.09 27.72,-323.97 20.73,-324.22"/>
<text text-anchor="middle" x="78.5" y="-296" font-family="Helvetica,sans-Serif" font-size="10.00"> BH_Mass</text>
<text text-anchor="middle" x="78.5" y="-285" font-family="Helvetica,sans-Serif" font-size="10.00">BH_Mdot</text>
<text text-anchor="middle" x="78.5" y="-274" font-family="Helvetica,sans-Serif" font-size="10.00">CM</text>
<text text-anchor="middle" x="78.5" y="-263" font-family="Helvetica,sans-Serif" font-size="10.00">GasMetalMass</text>
<text text-anchor="middle" x="78.5" y="-252" font-family="Helvetica,sans-Serif" font-size="10.00">Imom</text>
<text text-anchor="middle" x="78.5" y="-241" font-family="Helvetica,sans-Serif" font-size="10.00">Jmom</text>
<text text-anchor="middle" x="78.5" y="-230" font-family="Helvetica,sans-Serif" font-size="10.00">Mass</text>
<text text-anchor="middle" x="78.5" y="-219" font-family="Helvetica,sans-Serif" font-size="10.00">MassType</text>
<text text-anchor="middle" x="78.5" y="-208" font-family="Helvetica,sans-Serif" font-size="10.00">MaxDens</text>
<text text-anchor="middle" x="78.5" y="-197" font-family="Helvetica,sans-Serif" font-size="10.00">Sfr</text>
<text text-anchor="middle" x="78.5" y="-186" font-family="Helvetica,sans-Serif" font-size="10.00">...</text>
</g>
<!-- Node3 -->
<g id="node3" class="node">
<title>Node3</title>
<g id="a_node3"><a xlink:title=" ">
<polygon fill="white" stroke="#bfbfbf" points="116,-145.5 116,-164.5 166,-164.5 166,-145.5 116,-145.5"/>
<text text-anchor="middle" x="141" y="-152.5" font-family="Helvetica,sans-Serif" font-size="10.00">int64_t</text>
</a>
</g>
</g>
<!-- Node3&#45;&gt;Node1 -->
<g id="edge2" class="edge">
<title>Node3&#45;&gt;Node1</title>
<path fill="none" stroke="#9a32cd" stroke-dasharray="5,2" d="M138.93,-135.51C135.44,-104.31 128.51,-42.41 125.97,-19.65"/>
<polygon fill="#9a32cd" stroke="#9a32cd" points="135.46,-135.93 140.05,-145.48 142.41,-135.16 135.46,-135.93"/>
<text text-anchor="middle" x="160" y="-74.5" font-family="Helvetica,sans-Serif" font-size="10.00"> N_ionized</text>
</g>
<!-- Node4 -->
<g id="node4" class="node">
<title>Node4</title>
<g id="a_node4"><a xlink:href="structFOFGroups.html" target="_top" xlink:title=" ">
<polygon fill="white" stroke="black" points="199.5,-67.5 199.5,-86.5 270.5,-86.5 270.5,-67.5 199.5,-67.5"/>
<text text-anchor="middle" x="235" y="-74.5" font-family="Helvetica,sans-Serif" font-size="10.00">FOFGroups</text>
</a>
</g>
</g>
<!-- Node3&#45;&gt;Node4 -->
<g id="edge4" class="edge">
<title>Node3&#45;&gt;Node4</title>
<path fill="none" stroke="#9a32cd" stroke-dasharray="5,2" d="M150.03,-136.41C156,-126.17 164.62,-113.63 175,-105 184.57,-97.04 196.87,-90.96 207.84,-86.61"/>
<polygon fill="#9a32cd" stroke="#9a32cd" points="146.89,-134.86 145.16,-145.31 153.03,-138.22 146.89,-134.86"/>
<text text-anchor="middle" x="204" y="-113.5" font-family="Helvetica,sans-Serif" font-size="10.00"> TotNgroups</text>
</g>
<!-- Node4&#45;&gt;Node1 -->
<g id="edge3" class="edge">
<title>Node4&#45;&gt;Node1</title>
<path fill="none" stroke="#9a32cd" stroke-dasharray="5,2" d="M211.5,-62.12C189.71,-49.24 157.96,-30.48 139.6,-19.63"/>
<polygon fill="#9a32cd" stroke="#9a32cd" points="209.78,-65.16 220.16,-67.23 213.34,-59.13 209.78,-65.16"/>
<text text-anchor="middle" x="195.5" y="-41" font-family="Helvetica,sans-Serif" font-size="10.00"> fof</text>
</g>
<!-- Node5 -->
<g id="node5" class="node">
<title>Node5</title>
<g id="a_node5"><a xlink:title=" ">
<polygon fill="white" stroke="#bfbfbf" points="353.5,-457.5 353.5,-476.5 382.5,-476.5 382.5,-457.5 353.5,-457.5"/>
<text text-anchor="middle" x="368" y="-464.5" font-family="Helvetica,sans-Serif" font-size="10.00">int</text>
</a>
</g>
</g>
<!-- Node5&#45;&gt;Node4 -->
<g id="edge5" class="edge">
<title>Node5&#45;&gt;Node4</title>
<path fill="none" stroke="#9a32cd" stroke-dasharray="5,2" d="M382.45,-449.66C397.94,-430.96 421.57,-398.68 431,-366 436.42,-347.21 436.05,-340.89 431,-322 400.34,-207.25 366.15,-181.16 275,-105 266.9,-98.23 257.08,-91.58 249.2,-86.58"/>
<polygon fill="#9a32cd" stroke="#9a32cd" points="379.62,-447.59 375.79,-457.47 384.94,-452.13 379.62,-447.59"/>
<text text-anchor="middle" x="447" y="-241" font-family="Helvetica,sans-Serif" font-size="10.00"> Ngroups</text>
</g>
<!-- Node5&#45;&gt;Node6 -->
<g id="edge9" class="edge">
<title>Node5&#45;&gt;Node6</title>
<path fill="none" stroke="#9a32cd" stroke-dasharray="5,2" d="M370.01,-447.11C374.22,-397.39 378.55,-261.37 311,-183 298.71,-168.74 278.12,-162 262.09,-158.82"/>
<polygon fill="#9a32cd" stroke="#9a32cd" points="366.5,-447.04 369.04,-457.32 373.47,-447.7 366.5,-447.04"/>
<text text-anchor="middle" x="399" y="-358" font-family="Helvetica,sans-Serif" font-size="10.00"> LenType</text>
<text text-anchor="middle" x="399" y="-347" font-family="Helvetica,sans-Serif" font-size="10.00">Length</text>
<text text-anchor="middle" x="399" y="-336" font-family="Helvetica,sans-Serif" font-size="10.00">seed_index</text>
<text text-anchor="middle" x="399" y="-325" font-family="Helvetica,sans-Serif" font-size="10.00">seed_task</text>
</g>
<!-- Node8 -->
<g id="node8" class="node">
<title>Node8</title>
<g id="a_node8"><a xlink:href="structBaseGroup.html" target="_top" xlink:title=" ">
<polygon fill="white" stroke="black" points="257,-334.5 257,-353.5 327,-353.5 327,-334.5 257,-334.5"/>
<text text-anchor="middle" x="292" y="-341.5" font-family="Helvetica,sans-Serif" font-size="10.00">BaseGroup</text>
</a>
</g>
</g>
<!-- Node5&#45;&gt;Node8 -->
<g id="edge13" class="edge">
<title>Node5&#45;&gt;Node8</title>
<path fill="none" stroke="#9a32cd" stroke-dasharray="5,2" d="M343.09,-464.93C324.56,-462.67 300.43,-456.32 288,-439 269.23,-412.86 281.72,-371.29 288.47,-353.51"/>
<polygon fill="#9a32cd" stroke="#9a32cd" points="342.94,-468.43 353.21,-465.84 343.57,-461.46 342.94,-468.43"/>
<text text-anchor="middle" x="321" y="-431" font-family="Helvetica,sans-Serif" font-size="10.00"> GrNr</text>
<text text-anchor="middle" x="321" y="-420" font-family="Helvetica,sans-Serif" font-size="10.00">Length</text>
<text text-anchor="middle" x="321" y="-409" font-family="Helvetica,sans-Serif" font-size="10.00">MinIDTask</text>
<text text-anchor="middle" x="321" y="-398" font-family="Helvetica,sans-Serif" font-size="10.00">OriginalIndex</text>
<text text-anchor="middle" x="321" y="-387" font-family="Helvetica,sans-Serif" font-size="10.00">OriginalTask</text>
</g>
<!-- Node6&#45;&gt;Node4 -->
<g id="edge6" class="edge">
<title>Node6&#45;&gt;Node4</title>
<path fill="none" stroke="#9a32cd" stroke-dasharray="5,2" d="M238.01,-135.22C237.19,-119.7 236.07,-98.36 235.45,-86.62"/>
<polygon fill="#9a32cd" stroke="#9a32cd" points="234.52,-135.48 238.54,-145.28 241.51,-135.11 234.52,-135.48"/>
<text text-anchor="middle" x="254.5" y="-113.5" font-family="Helvetica,sans-Serif" font-size="10.00"> Group</text>
</g>
<!-- Node7 -->
<g id="node7" class="node">
<title>Node7</title>
<g id="a_node7"><a xlink:title=" ">
<polygon fill="white" stroke="#bfbfbf" points="129,-457.5 129,-476.5 167,-476.5 167,-457.5 129,-457.5"/>
<text text-anchor="middle" x="148" y="-464.5" font-family="Helvetica,sans-Serif" font-size="10.00">float</text>
</a>
</g>
</g>
<!-- Node7&#45;&gt;Node6 -->
<g id="edge8" class="edge">
<title>Node7&#45;&gt;Node6</title>
<path fill="none" stroke="#9a32cd" stroke-dasharray="5,2" d="M142.78,-447.43C135.83,-419.61 125.75,-365.69 138,-322 156.85,-254.76 211.25,-187.73 231.39,-164.53"/>
<polygon fill="#9a32cd" stroke="#9a32cd" points="139.47,-448.58 145.41,-457.35 146.23,-446.79 139.47,-448.58"/>
<text text-anchor="middle" x="193" y="-352.5" font-family="Helvetica,sans-Serif" font-size="10.00"> GasMetalElemMass</text>
<text text-anchor="middle" x="193" y="-341.5" font-family="Helvetica,sans-Serif" font-size="10.00">MassHeIonized</text>
<text text-anchor="middle" x="193" y="-330.5" font-family="Helvetica,sans-Serif" font-size="10.00">StellarMetalElemMass</text>
</g>
<!-- Node7&#45;&gt;Node8 -->
<g id="edge12" class="edge">
<title>Node7&#45;&gt;Node8</title>
<path fill="none" stroke="#9a32cd" stroke-dasharray="5,2" d="M150.15,-447.49C153.29,-428.86 160.89,-400.6 179,-384 200.79,-364.04 215.14,-375.84 243,-366 253.3,-362.36 264.51,-357.62 273.61,-353.56"/>
<polygon fill="#9a32cd" stroke="#9a32cd" points="146.68,-447.02 148.74,-457.41 153.61,-448 146.68,-447.02"/>
<text text-anchor="middle" x="200" y="-409" font-family="Helvetica,sans-Serif" font-size="10.00"> FirstPos</text>
</g>
<!-- Node8&#45;&gt;Node6 -->
<g id="edge10" class="edge">
<title>Node8&#45;&gt;Node6</title>
<path fill="none" stroke="#9a32cd" stroke-dasharray="5,2" d="M286.86,-324.85C275.68,-285.41 249.52,-193.12 241.43,-164.57"/>
<polygon fill="#9a32cd" stroke="#9a32cd" points="283.49,-325.81 289.58,-334.48 290.23,-323.9 283.49,-325.81"/>
<text text-anchor="middle" x="293.5" y="-241" font-family="Helvetica,sans-Serif" font-size="10.00"> base</text>
</g>
<!-- Node9 -->
<g id="node9" class="node">
<title>Node9</title>
<g id="a_node9"><a xlink:title=" ">
<polygon fill="white" stroke="#bfbfbf" points="204,-457.5 204,-476.5 260,-476.5 260,-457.5 204,-457.5"/>
<text text-anchor="middle" x="232" y="-464.5" font-family="Helvetica,sans-Serif" font-size="10.00">uint64_t</text>
</a>
</g>
</g>
<!-- Node9&#45;&gt;Node8 -->
<g id="edge11" class="edge">
<title>Node9&#45;&gt;Node8</title>
<path fill="none" stroke="#9a32cd" stroke-dasharray="5,2" d="M227.51,-447.39C224.34,-429.91 222.32,-403.58 233,-384 240.76,-369.77 256.21,-359.85 269.35,-353.57"/>
<polygon fill="#9a32cd" stroke="#9a32cd" points="224.14,-448.39 229.64,-457.44 230.99,-446.93 224.14,-448.39"/>
<text text-anchor="middle" x="249" y="-409" font-family="Helvetica,sans-Serif" font-size="10.00"> MinID</text>
</g>
</g>
</svg>
