<?xml version="1.0" encoding="UTF-8" standalone="no"?>
<!DOCTYPE svg PUBLIC "-//W3C//DTD SVG 1.1//EN"
 "http://www.w3.org/Graphics/SVG/1.1/DTD/svg11.dtd">
<!-- Generated by graphviz version 2.50.0 (0)
 -->
<!-- Title: topleaf_data Pages: 1 -->
<svg width="148pt" height="117pt"
 viewBox="0.00 0.00 147.50 117.00" xmlns="http://www.w3.org/2000/svg" xmlns:xlink="http://www.w3.org/1999/xlink">
<g id="graph0" class="graph" transform="scale(1 1) rotate(0) translate(4 113)">
<title>topleaf_data</title>
<polygon fill="white" stroke="transparent" points="-4,4 -4,-113 143.5,-113 143.5,4 -4,4"/>
<!-- Node1 -->
<g id="node1" class="node">
<title>Node1</title>
<g id="a_node1"><a xlink:title=" ">
<polygon fill="#bfbfbf" stroke="black" points="14.5,-0.5 14.5,-19.5 92.5,-19.5 92.5,-0.5 14.5,-0.5"/>
<text text-anchor="middle" x="53.5" y="-7.5" font-family="Helvetica,sans-Serif" font-size="10.00">topleaf_data</text>
</a>
</g>
</g>
<!-- Node2 -->
<g id="node2" class="node">
<title>Node2</title>
<g id="a_node2"><a xlink:title=" ">
<polygon fill="white" stroke="#bfbfbf" points="0,-89.5 0,-108.5 29,-108.5 29,-89.5 0,-89.5"/>
<text text-anchor="middle" x="14.5" y="-96.5" font-family="Helvetica,sans-Serif" font-size="10.00">int</text>
</a>
</g>
</g>
<!-- Node2&#45;&gt;Node1 -->
<g id="edge1" class="edge">
<title>Node2&#45;&gt;Node1</title>
<path fill="none" stroke="#9a32cd" stroke-dasharray="5,2" d="M15.89,-79.32C17.42,-66.99 20.66,-50.82 27.5,-38 31.24,-30.99 37.32,-24.53 42.66,-19.69"/>
<polygon fill="#9a32cd" stroke="#9a32cd" points="12.39,-79.05 14.9,-89.35 19.36,-79.74 12.39,-79.05"/>
<text text-anchor="middle" x="49.5" y="-63" font-family="Helvetica,sans-Serif" font-size="10.00"> Task</text>
<text text-anchor="middle" x="49.5" y="-52" font-family="Helvetica,sans-Serif" font-size="10.00">topnode</text>
<text text-anchor="middle" x="49.5" y="-41" font-family="Helvetica,sans-Serif" font-size="10.00">treenode</text>
</g>
<!-- Node3 -->
<g id="node3" class="node">
<title>Node3</title>
<g id="a_node3"><a xlink:title=" ">
<polygon fill="white" stroke="#bfbfbf" points="47.5,-89.5 47.5,-108.5 139.5,-108.5 139.5,-89.5 47.5,-89.5"/>
<text text-anchor="middle" x="93.5" y="-96.5" font-family="Helvetica,sans-Serif" font-size="10.00">anonymous:@5</text>
</a>
</g>
</g>
<!-- Node3&#45;&gt;Node1 -->
<g id="edge2" class="edge">
<title>Node3&#45;&gt;Node1</title>
<path fill="none" stroke="#9a32cd" stroke-dasharray="5,2" d="M87.92,-79.34C84.01,-67.25 78.27,-51.33 71.5,-38 68.24,-31.57 63.74,-24.82 60.05,-19.68"/>
<polygon fill="#9a32cd" stroke="#9a32cd" points="84.67,-80.68 90.99,-89.19 91.36,-78.6 84.67,-80.68"/>
<text text-anchor="middle" x="94" y="-52" font-family="Helvetica,sans-Serif" font-size="10.00"> @5</text>
</g>
</g>
</svg>
