<?xml version="1.0" encoding="UTF-8" standalone="no"?>
<!DOCTYPE svg PUBLIC "-//W3C//DTD SVG 1.1//EN"
 "http://www.w3.org/Graphics/SVG/1.1/DTD/svg11.dtd">
<!-- Generated by graphviz version 2.50.0 (0)
 -->
<!-- Title: fac_params Pages: 1 -->
<svg width="627pt" height="441pt"
 viewBox="0.00 0.00 627.37 441.00" xmlns="http://www.w3.org/2000/svg" xmlns:xlink="http://www.w3.org/1999/xlink">
<g id="graph0" class="graph" transform="scale(1 1) rotate(0) translate(4 437)">
<title>fac_params</title>
<polygon fill="white" stroke="transparent" points="-4,4 -4,-437 623.37,-437 623.37,4 -4,4"/>
<!-- Node1 -->
<g id="node1" class="node">
<title>Node1</title>
<g id="a_node1"><a xlink:title=" ">
<polygon fill="#bfbfbf" stroke="black" points="499.37,-0.5 499.37,-19.5 573.37,-19.5 573.37,-0.5 499.37,-0.5"/>
<text text-anchor="middle" x="536.37" y="-7.5" font-family="Helvetica,sans-Serif" font-size="10.00">fac_params</text>
</a>
</g>
</g>
<!-- Node2 -->
<g id="node2" class="node">
<title>Node2</title>
<g id="a_node2"><a xlink:href="structCosmology.html" target="_top" xlink:title=" ">
<polygon fill="white" stroke="black" points="420.87,-67.5 420.87,-86.5 491.87,-86.5 491.87,-67.5 420.87,-67.5"/>
<text text-anchor="middle" x="456.37" y="-74.5" font-family="Helvetica,sans-Serif" font-size="10.00">Cosmology</text>
</a>
</g>
</g>
<!-- Node2&#45;&gt;Node1 -->
<g id="edge1" class="edge">
<title>Node2&#45;&gt;Node1</title>
<path fill="none" stroke="#9a32cd" stroke-dasharray="5,2" d="M475.18,-60.71C490.94,-47.91 512.87,-30.09 525.75,-19.63"/>
<polygon fill="#9a32cd" stroke="#9a32cd" points="472.71,-58.21 467.16,-67.23 477.12,-63.64 472.71,-58.21"/>
<text text-anchor="middle" x="508.37" y="-41" font-family="Helvetica,sans-Serif" font-size="10.00"> CP</text>
</g>
<!-- Node3 -->
<g id="node3" class="node">
<title>Node3</title>
<g id="a_node3"><a xlink:title=" ">
<polygon fill="white" stroke="#bfbfbf" points="92.37,-413.5 92.37,-432.5 142.37,-432.5 142.37,-413.5 92.37,-413.5"/>
<text text-anchor="middle" x="117.37" y="-420.5" font-family="Helvetica,sans-Serif" font-size="10.00">double</text>
</a>
</g>
</g>
<!-- Node3&#45;&gt;Node2 -->
<g id="edge2" class="edge">
<title>Node3&#45;&gt;Node2</title>
<path fill="none" stroke="#9a32cd" stroke-dasharray="5,2" d="M101.11,-406.08C59.91,-363.83 -41.18,-246.95 19.37,-172 69.96,-109.37 325.64,-86.51 420.7,-80.1"/>
<polygon fill="#9a32cd" stroke="#9a32cd" points="98.74,-408.66 108.27,-413.29 103.71,-403.73 98.74,-408.66"/>
<text text-anchor="middle" x="64.37" y="-285" font-family="Helvetica,sans-Serif" font-size="10.00"> CMBTemperature</text>
<text text-anchor="middle" x="64.37" y="-274" font-family="Helvetica,sans-Serif" font-size="10.00">GravInternal</text>
<text text-anchor="middle" x="64.37" y="-263" font-family="Helvetica,sans-Serif" font-size="10.00">Hubble</text>
<text text-anchor="middle" x="64.37" y="-252" font-family="Helvetica,sans-Serif" font-size="10.00">HubbleParam</text>
<text text-anchor="middle" x="64.37" y="-241" font-family="Helvetica,sans-Serif" font-size="10.00">HybridNuPartTime</text>
<text text-anchor="middle" x="64.37" y="-230" font-family="Helvetica,sans-Serif" font-size="10.00">HybridVcrit</text>
<text text-anchor="middle" x="64.37" y="-219" font-family="Helvetica,sans-Serif" font-size="10.00">MNu</text>
<text text-anchor="middle" x="64.37" y="-208" font-family="Helvetica,sans-Serif" font-size="10.00">Omega0</text>
<text text-anchor="middle" x="64.37" y="-197" font-family="Helvetica,sans-Serif" font-size="10.00">OmegaBaryon</text>
<text text-anchor="middle" x="64.37" y="-186" font-family="Helvetica,sans-Serif" font-size="10.00">OmegaCDM</text>
<text text-anchor="middle" x="64.37" y="-175" font-family="Helvetica,sans-Serif" font-size="10.00">...</text>
</g>
<!-- Node5 -->
<g id="node5" class="node">
<title>Node5</title>
<g id="a_node5"><a xlink:href="struct__omega__nu.html" target="_top" xlink:title=" ">
<polygon fill="white" stroke="black" points="244.87,-134.5 244.87,-153.5 317.87,-153.5 317.87,-134.5 244.87,-134.5"/>
<text text-anchor="middle" x="281.37" y="-141.5" font-family="Helvetica,sans-Serif" font-size="10.00">_omega_nu</text>
</a>
</g>
</g>
<!-- Node3&#45;&gt;Node5 -->
<g id="edge5" class="edge">
<title>Node3&#45;&gt;Node5</title>
<path fill="none" stroke="#9a32cd" stroke-dasharray="5,2" d="M111.89,-403.69C106.09,-381.41 98.86,-342.82 107.37,-311 125.77,-242.14 131.24,-215.93 187.37,-172 203.68,-159.23 225.79,-152.5 244.47,-148.95"/>
<polygon fill="#9a32cd" stroke="#9a32cd" points="108.56,-404.78 114.62,-413.47 115.3,-402.9 108.56,-404.78"/>
<text text-anchor="middle" x="123.37" y="-336" font-family="Helvetica,sans-Serif" font-size="10.00"> kBtnu</text>
<text text-anchor="middle" x="123.37" y="-325" font-family="Helvetica,sans-Serif" font-size="10.00">rhocrit</text>
<text text-anchor="middle" x="123.37" y="-314" font-family="Helvetica,sans-Serif" font-size="10.00">tcmb0</text>
</g>
<!-- Node6 -->
<g id="node6" class="node">
<title>Node6</title>
<g id="a_node6"><a xlink:href="struct__hybrid__nu.html" target="_top" xlink:title=" ">
<polygon fill="white" stroke="black" points="148.37,-318 148.37,-337 218.37,-337 218.37,-318 148.37,-318"/>
<text text-anchor="middle" x="183.37" y="-325" font-family="Helvetica,sans-Serif" font-size="10.00">_hybrid_nu</text>
</a>
</g>
</g>
<!-- Node3&#45;&gt;Node6 -->
<g id="edge7" class="edge">
<title>Node3&#45;&gt;Node6</title>
<path fill="none" stroke="#9a32cd" stroke-dasharray="5,2" d="M118.53,-403.16C120.11,-390.53 123.8,-374.07 132.37,-362 140.15,-351.03 152.77,-342.7 163.5,-337.09"/>
<polygon fill="#9a32cd" stroke="#9a32cd" points="115.01,-403.17 117.59,-413.44 121.98,-403.8 115.01,-403.17"/>
<text text-anchor="middle" x="164.37" y="-387" font-family="Helvetica,sans-Serif" font-size="10.00"> nu_crit_time</text>
<text text-anchor="middle" x="164.37" y="-376" font-family="Helvetica,sans-Serif" font-size="10.00">nufrac_low</text>
<text text-anchor="middle" x="164.37" y="-365" font-family="Helvetica,sans-Serif" font-size="10.00">vcrit</text>
</g>
<!-- Node7 -->
<g id="node7" class="node">
<title>Node7</title>
<g id="a_node7"><a xlink:href="struct__rho__nu__single.html" target="_top" xlink:title=" ">
<polygon fill="white" stroke="black" points="236.87,-318 236.87,-337 325.87,-337 325.87,-318 236.87,-318"/>
<text text-anchor="middle" x="281.37" y="-325" font-family="Helvetica,sans-Serif" font-size="10.00">_rho_nu_single</text>
</a>
</g>
</g>
<!-- Node3&#45;&gt;Node7 -->
<g id="edge11" class="edge">
<title>Node3&#45;&gt;Node7</title>
<path fill="none" stroke="#9a32cd" stroke-dasharray="5,2" d="M152.1,-412.74C169.9,-407.5 189.29,-400.83 196.37,-395 209.43,-384.24 203.09,-373.65 215.37,-362 227.11,-350.86 243.28,-342.57 256.68,-337.02"/>
<polygon fill="#9a32cd" stroke="#9a32cd" points="151.12,-409.38 142.47,-415.5 153.04,-416.11 151.12,-409.38"/>
<text text-anchor="middle" x="229.37" y="-387" font-family="Helvetica,sans-Serif" font-size="10.00"> loga</text>
<text text-anchor="middle" x="229.37" y="-376" font-family="Helvetica,sans-Serif" font-size="10.00">mnu</text>
<text text-anchor="middle" x="229.37" y="-365" font-family="Helvetica,sans-Serif" font-size="10.00">rhonu</text>
</g>
<!-- Node4 -->
<g id="node4" class="node">
<title>Node4</title>
<g id="a_node4"><a xlink:title=" ">
<polygon fill="white" stroke="#bfbfbf" points="435.87,-413.5 435.87,-432.5 464.87,-432.5 464.87,-413.5 435.87,-413.5"/>
<text text-anchor="middle" x="450.37" y="-420.5" font-family="Helvetica,sans-Serif" font-size="10.00">int</text>
</a>
</g>
</g>
<!-- Node4&#45;&gt;Node1 -->
<g id="edge14" class="edge">
<title>Node4&#45;&gt;Node1</title>
<path fill="none" stroke="#9a32cd" stroke-dasharray="5,2" d="M474.97,-417.95C516.81,-409.51 597.37,-385.82 597.37,-328.5 597.37,-328.5 597.37,-328.5 597.37,-76 597.37,-50 571.1,-30.13 553.03,-19.54"/>
<polygon fill="#9a32cd" stroke="#9a32cd" points="474.18,-414.54 465,-419.82 475.47,-421.42 474.18,-414.54"/>
<text text-anchor="middle" x="608.37" y="-141.5" font-family="Helvetica,sans-Serif" font-size="10.00"> exp</text>
</g>
<!-- Node4&#45;&gt;Node2 -->
<g id="edge3" class="edge">
<title>Node4&#45;&gt;Node2</title>
<path fill="none" stroke="#9a32cd" stroke-dasharray="5,2" d="M454.05,-403.39C456.97,-387.65 460.8,-364.45 462.37,-344 470.08,-243.13 460.21,-120.18 457.19,-86.74"/>
<polygon fill="#9a32cd" stroke="#9a32cd" points="450.58,-402.91 452.13,-413.39 457.45,-404.23 450.58,-402.91"/>
<text text-anchor="middle" x="517.37" y="-241" font-family="Helvetica,sans-Serif" font-size="10.00"> HybridNeutrinosOn</text>
<text text-anchor="middle" x="517.37" y="-230" font-family="Helvetica,sans-Serif" font-size="10.00">MassiveNuLinRespOn</text>
<text text-anchor="middle" x="517.37" y="-219" font-family="Helvetica,sans-Serif" font-size="10.00">RadiationOn</text>
</g>
<!-- Node4&#45;&gt;Node5 -->
<g id="edge13" class="edge">
<title>Node4&#45;&gt;Node5</title>
<path fill="none" stroke="#9a32cd" stroke-dasharray="5,2" d="M441.84,-403.95C435.03,-391 424.46,-373.83 411.37,-362 398.39,-350.27 387.08,-357.83 376.37,-344 328.35,-282.05 386.18,-233.33 337.37,-172 330.71,-163.64 320.83,-157.71 311.21,-153.58"/>
<polygon fill="#9a32cd" stroke="#9a32cd" points="438.89,-405.85 446.48,-413.24 445.15,-402.73 438.89,-405.85"/>
<text text-anchor="middle" x="419.37" y="-325" font-family="Helvetica,sans-Serif" font-size="10.00"> nu_degeneracies</text>
</g>
<!-- Node4&#45;&gt;Node6 -->
<g id="edge8" class="edge">
<title>Node4&#45;&gt;Node6</title>
<path fill="none" stroke="#9a32cd" stroke-dasharray="5,2" d="M425.77,-418.17C408.4,-414.51 385.29,-407.6 368.37,-395 354.03,-384.32 360.54,-371.45 345.37,-362 300.33,-333.97 278.83,-356.87 227.37,-344 219.98,-342.15 212.09,-339.57 205.05,-337.05"/>
<polygon fill="#9a32cd" stroke="#9a32cd" points="425.26,-421.64 435.74,-420.06 426.56,-414.76 425.26,-421.64"/>
<text text-anchor="middle" x="389.87" y="-376" font-family="Helvetica,sans-Serif" font-size="10.00"> enabled</text>
</g>
<!-- Node5&#45;&gt;Node2 -->
<g id="edge4" class="edge">
<title>Node5&#45;&gt;Node2</title>
<path fill="none" stroke="#9a32cd" stroke-dasharray="5,2" d="M314.29,-130.77C349.02,-117.87 402.85,-97.88 433.31,-86.56"/>
<polygon fill="#9a32cd" stroke="#9a32cd" points="312.76,-127.61 304.6,-134.37 315.2,-134.17 312.76,-127.61"/>
<text text-anchor="middle" x="390.87" y="-108" font-family="Helvetica,sans-Serif" font-size="10.00"> ONu</text>
</g>
<!-- Node6&#45;&gt;Node5 -->
<g id="edge6" class="edge">
<title>Node6&#45;&gt;Node5</title>
<path fill="none" stroke="#9a32cd" stroke-dasharray="5,2" d="M186.88,-308.15C193.52,-277.34 210.3,-214.46 243.37,-172 249.23,-164.47 257.77,-158.14 265.26,-153.51"/>
<polygon fill="#9a32cd" stroke="#9a32cd" points="183.45,-307.45 184.89,-317.95 190.31,-308.85 183.45,-307.45"/>
<text text-anchor="middle" x="260.37" y="-230" font-family="Helvetica,sans-Serif" font-size="10.00"> hybnu</text>
</g>
<!-- Node7&#45;&gt;Node5 -->
<g id="edge9" class="edge">
<title>Node7&#45;&gt;Node5</title>
<path fill="none" stroke="#9a32cd" stroke-dasharray="5,2" d="M281.37,-307.32C281.37,-268.38 281.37,-181.39 281.37,-153.67"/>
<polygon fill="#9a32cd" stroke="#9a32cd" points="277.87,-307.75 281.37,-317.75 284.87,-307.75 277.87,-307.75"/>
<text text-anchor="middle" x="307.37" y="-230" font-family="Helvetica,sans-Serif" font-size="10.00"> RhoNuTab</text>
</g>
<!-- Node8 -->
<g id="node8" class="node">
<title>Node8</title>
<g id="a_node8"><a xlink:title=" ">
<polygon fill="white" stroke="#bfbfbf" points="166.37,-413.5 166.37,-432.5 270.37,-432.5 270.37,-413.5 166.37,-413.5"/>
<text text-anchor="middle" x="218.37" y="-420.5" font-family="Helvetica,sans-Serif" font-size="10.00">gsl_interp_accel *</text>
</a>
</g>
</g>
<!-- Node8&#45;&gt;Node7 -->
<g id="edge10" class="edge">
<title>Node8&#45;&gt;Node7</title>
<path fill="none" stroke="#9a32cd" stroke-dasharray="5,2" d="M236.9,-406.57C240.62,-402.99 244.31,-399.04 247.37,-395 261.59,-376.17 272.77,-350.5 278.05,-337.24"/>
<polygon fill="#9a32cd" stroke="#9a32cd" points="234.53,-404 229.45,-413.3 239.21,-409.2 234.53,-404"/>
<text text-anchor="middle" x="276.37" y="-376" font-family="Helvetica,sans-Serif" font-size="10.00"> acc</text>
</g>
<!-- Node9 -->
<g id="node9" class="node">
<title>Node9</title>
<g id="a_node9"><a xlink:title=" ">
<polygon fill="white" stroke="#bfbfbf" points="288.87,-413.5 288.87,-432.5 361.87,-432.5 361.87,-413.5 288.87,-413.5"/>
<text text-anchor="middle" x="325.37" y="-420.5" font-family="Helvetica,sans-Serif" font-size="10.00">gsl_interp *</text>
</a>
</g>
</g>
<!-- Node9&#45;&gt;Node7 -->
<g id="edge12" class="edge">
<title>Node9&#45;&gt;Node7</title>
<path fill="none" stroke="#9a32cd" stroke-dasharray="5,2" d="M316.93,-404.08C307.48,-383.99 292.55,-352.26 285.42,-337.11"/>
<polygon fill="#9a32cd" stroke="#9a32cd" points="313.88,-405.81 321.31,-413.37 320.21,-402.83 313.88,-405.81"/>
<text text-anchor="middle" x="328.37" y="-376" font-family="Helvetica,sans-Serif" font-size="10.00"> interp</text>
</g>
</g>
</svg>
