<?xml version="1.0" encoding="UTF-8" standalone="no"?>
<!DOCTYPE svg PUBLIC "-//W3C//DTD SVG 1.1//EN"
 "http://www.w3.org/Graphics/SVG/1.1/DTD/svg11.dtd">
<!-- Generated by graphviz version 2.38.0 (20140413.2041)
 -->
<!-- Title: DensityKernel Pages: 1 -->
<svg width="156pt" height="173pt"
 viewBox="0.00 0.00 156.00 173.14" xmlns="http://www.w3.org/2000/svg" xmlns:xlink="http://www.w3.org/1999/xlink">
<g id="graph0" class="graph" transform="scale(1 1) rotate(0) translate(4 169.136)">
<title>DensityKernel</title>
<polygon fill="white" stroke="none" points="-4,4 -4,-169.136 152,-169.136 152,4 -4,4"/>
<!-- Node1 -->
<g id="node1" class="node"><title>Node1</title>
<polygon fill="#bfbfbf" stroke="black" points="50.5,-62.8538 50.5,-81.8538 128.5,-81.8538 128.5,-62.8538 50.5,-62.8538"/>
<text text-anchor="middle" x="89.5" y="-69.8538" font-family="Helvetica,sans-Serif" font-size="10.00">DensityKernel</text>
</g>
<!-- Node2 -->
<g id="node2" class="node"><title>Node2</title>
<polygon fill="white" stroke="#bfbfbf" points="103,-125.208 103,-144.208 148,-144.208 148,-125.208 103,-125.208"/>
<text text-anchor="middle" x="125.5" y="-132.208" font-family="Helvetica,sans-Serif" font-size="10.00">double</text>
</g>
<!-- Node2&#45;&gt;Node1 -->
<g id="edge1" class="edge"><title>Node2&#45;&gt;Node1</title>
<path fill="none" stroke="#9a32cd" stroke-dasharray="5,2" d="M114.721,-116.038C108.309,-104.932 100.432,-91.2879 95.2043,-82.234"/>
<polygon fill="#9a32cd" stroke="#9a32cd" points="111.844,-118.055 119.875,-124.965 117.906,-114.555 111.844,-118.055"/>
<text text-anchor="middle" x="83.4626" y="-157.136" font-family="Helvetica,sans-Serif" font-size="10.00"> HH</text>
<text text-anchor="middle" x="83.4626" y="-146.136" font-family="Helvetica,sans-Serif" font-size="10.00">H</text>
<text text-anchor="middle" x="83.4626" y="-135.136" font-family="Helvetica,sans-Serif" font-size="10.00">Hinv</text>
<text text-anchor="middle" x="83.4626" y="-124.136" font-family="Helvetica,sans-Serif" font-size="10.00">support</text>
<text text-anchor="middle" x="83.4626" y="-113.136" font-family="Helvetica,sans-Serif" font-size="10.00">dWknorm</text>
<text text-anchor="middle" x="83.4626" y="-102.136" font-family="Helvetica,sans-Serif" font-size="10.00">Wknorm</text>
</g>
<!-- Node3 -->
<g id="node3" class="node"><title>Node3</title>
<polygon fill="white" stroke="#bfbfbf" points="0,-62.8538 0,-81.8538 35,-81.8538 35,-62.8538 0,-62.8538"/>
<text text-anchor="middle" x="17.5" y="-69.8538" font-family="Helvetica,sans-Serif" font-size="10.00">char</text>
</g>
<!-- Node3&#45;&gt;Node1 -->
<g id="edge2" class="edge"><title>Node3&#45;&gt;Node1</title>
<path fill="none" stroke="#9a32cd" stroke-dasharray="5,2" d="M45.5505,-72.3538C47.177,-72.3538 48.8262,-72.3538 50.4841,-72.3538"/>
<polygon fill="#9a32cd" stroke="#9a32cd" points="45.2977,-68.8537 35.2978,-72.3538 45.2978,-75.8537 45.2977,-68.8537"/>
<text text-anchor="middle" x="34.0173" y="-75.3538" font-family="Helvetica,sans-Serif" font-size="10.00"> name</text>
</g>
<!-- Node4 -->
<g id="node4" class="node"><title>Node4</title>
<polygon fill="white" stroke="#bfbfbf" points="111,-0.5 111,-19.5 140,-19.5 140,-0.5 111,-0.5"/>
<text text-anchor="middle" x="125.5" y="-7.5" font-family="Helvetica,sans-Serif" font-size="10.00">int</text>
</g>
<!-- Node4&#45;&gt;Node1 -->
<g id="edge3" class="edge"><title>Node4&#45;&gt;Node1</title>
<path fill="none" stroke="#9a32cd" stroke-dasharray="5,2" d="M114.721,-28.6699C108.309,-39.7758 100.432,-53.4197 95.2043,-62.4737"/>
<polygon fill="#9a32cd" stroke="#9a32cd" points="117.906,-30.1531 119.875,-19.7428 111.844,-26.653 117.906,-30.1531"/>
<text text-anchor="middle" x="93.9626" y="-48.5718" font-family="Helvetica,sans-Serif" font-size="10.00"> type</text>
</g>
</g>
</svg>
