<?xml version="1.0" encoding="UTF-8" standalone="no"?>
<!DOCTYPE svg PUBLIC "-//W3C//DTD SVG 1.1//EN"
 "http://www.w3.org/Graphics/SVG/1.1/DTD/svg11.dtd">
<!-- Generated by graphviz version 2.38.0 (20140413.2041)
 -->
<!-- Title: ParameterEnum Pages: 1 -->
<svg width="95pt" height="172pt"
 viewBox="0.00 0.00 95.00 172.00" xmlns="http://www.w3.org/2000/svg" xmlns:xlink="http://www.w3.org/1999/xlink">
<g id="graph0" class="graph" transform="scale(1 1) rotate(0) translate(4 168)">
<title>ParameterEnum</title>
<polygon fill="white" stroke="none" points="-4,4 -4,-168 91,-168 91,4 -4,4"/>
<!-- Node1 -->
<g id="node1" class="node"><title>Node1</title>
<polygon fill="#bfbfbf" stroke="black" points="0,-72.5 0,-91.5 87,-91.5 87,-72.5 0,-72.5"/>
<text text-anchor="middle" x="43.5" y="-79.5" font-family="Helvetica,sans-Serif" font-size="10.00">ParameterEnum</text>
</g>
<!-- Node2 -->
<g id="node2" class="node"><title>Node2</title>
<polygon fill="white" stroke="#bfbfbf" points="26,-144.5 26,-163.5 61,-163.5 61,-144.5 26,-144.5"/>
<text text-anchor="middle" x="43.5" y="-151.5" font-family="Helvetica,sans-Serif" font-size="10.00">char</text>
</g>
<!-- Node2&#45;&gt;Node1 -->
<g id="edge1" class="edge"><title>Node2&#45;&gt;Node1</title>
<path fill="none" stroke="#9a32cd" stroke-dasharray="5,2" d="M43.5,-134.243C43.5,-120.357 43.5,-102.393 43.5,-91.5564"/>
<polygon fill="#9a32cd" stroke="#9a32cd" points="40.0001,-134.29 43.5,-144.29 47.0001,-134.29 40.0001,-134.29"/>
<text text-anchor="middle" x="29.5" y="-115.899" font-family="Helvetica,sans-Serif" font-size="10.00"> name</text>
</g>
<!-- Node3 -->
<g id="node3" class="node"><title>Node3</title>
<polygon fill="white" stroke="#bfbfbf" points="29,-0.5 29,-19.5 58,-19.5 58,-0.5 29,-0.5"/>
<text text-anchor="middle" x="43.5" y="-7.5" font-family="Helvetica,sans-Serif" font-size="10.00">int</text>
</g>
<!-- Node3&#45;&gt;Node1 -->
<g id="edge2" class="edge"><title>Node3&#45;&gt;Node1</title>
<path fill="none" stroke="#9a32cd" stroke-dasharray="5,2" d="M43.5,-29.7574C43.5,-43.6427 43.5,-61.607 43.5,-72.4436"/>
<polygon fill="#9a32cd" stroke="#9a32cd" points="47.0001,-29.7102 43.5,-19.7102 40.0001,-29.7103 47.0001,-29.7102"/>
<text text-anchor="middle" x="30" y="-54.1005" font-family="Helvetica,sans-Serif" font-size="10.00"> value</text>
</g>
</g>
</svg>
