<?xml version="1.0" encoding="UTF-8" standalone="no"?>
<!DOCTYPE svg PUBLIC "-//W3C//DTD SVG 1.1//EN"
 "http://www.w3.org/Graphics/SVG/1.1/DTD/svg11.dtd">
<!-- Generated by graphviz version 2.38.0 (20140413.2041)
 -->
<!-- Title: topleaf_data Pages: 1 -->
<svg width="238pt" height="81pt"
 viewBox="0.00 0.00 238.00 81.00" xmlns="http://www.w3.org/2000/svg" xmlns:xlink="http://www.w3.org/1999/xlink">
<g id="graph0" class="graph" transform="scale(1 1) rotate(0) translate(4 77)">
<title>topleaf_data</title>
<polygon fill="white" stroke="none" points="-4,4 -4,-77 234,-77 234,4 -4,4"/>
<!-- Node1 -->
<g id="node1" class="node"><title>Node1</title>
<polygon fill="#bfbfbf" stroke="black" points="160,-19.5 160,-38.5 230,-38.5 230,-19.5 160,-19.5"/>
<text text-anchor="middle" x="195" y="-26.5" font-family="Helvetica,sans-Serif" font-size="10.00">topleaf_data</text>
</g>
<!-- Node2 -->
<g id="node2" class="node"><title>Node2</title>
<polygon fill="white" stroke="#bfbfbf" points="28.5,-38.5 28.5,-57.5 57.5,-57.5 57.5,-38.5 28.5,-38.5"/>
<text text-anchor="middle" x="43" y="-45.5" font-family="Helvetica,sans-Serif" font-size="10.00">int</text>
</g>
<!-- Node2&#45;&gt;Node1 -->
<g id="edge1" class="edge"><title>Node2&#45;&gt;Node1</title>
<path fill="none" stroke="#9a32cd" stroke-dasharray="5,2" d="M67.5649,-45.0151C92.4009,-41.8692 131.756,-36.8843 159.961,-33.3116"/>
<polygon fill="#9a32cd" stroke="#9a32cd" points="67.0569,-41.5514 57.5761,-46.2804 67.9366,-48.4959 67.0569,-41.5514"/>
<text text-anchor="middle" x="123" y="-65" font-family="Helvetica,sans-Serif" font-size="10.00"> topnode</text>
<text text-anchor="middle" x="123" y="-54" font-family="Helvetica,sans-Serif" font-size="10.00">Task</text>
<text text-anchor="middle" x="123" y="-43" font-family="Helvetica,sans-Serif" font-size="10.00">treenode</text>
</g>
<!-- Node3 -->
<g id="node3" class="node"><title>Node3</title>
<polygon fill="white" stroke="#bfbfbf" points="0,-0.5 0,-19.5 86,-19.5 86,-0.5 0,-0.5"/>
<text text-anchor="middle" x="43" y="-7.5" font-family="Helvetica,sans-Serif" font-size="10.00">anonymous:@7</text>
</g>
<!-- Node3&#45;&gt;Node1 -->
<g id="edge2" class="edge"><title>Node3&#45;&gt;Node1</title>
<path fill="none" stroke="#9a32cd" stroke-dasharray="5,2" d="M96.0845,-14.6337C110.943,-16.1401 127.132,-17.9574 142,-20 147.809,-20.7981 153.964,-21.7597 159.928,-22.7531"/>
<polygon fill="#9a32cd" stroke="#9a32cd" points="96.339,-11.1419 86.0432,-13.6416 95.6506,-18.108 96.339,-11.1419"/>
<text text-anchor="middle" x="123" y="-23" font-family="Helvetica,sans-Serif" font-size="10.00"> @7</text>
</g>
</g>
</svg>
