<?xml version="1.0" encoding="UTF-8" standalone="no"?>
<!DOCTYPE svg PUBLIC "-//W3C//DTD SVG 1.1//EN"
 "http://www.w3.org/Graphics/SVG/1.1/DTD/svg11.dtd">
<!-- Generated by graphviz version 2.50.0 (0)
 -->
<!-- Title: SyncPoint Pages: 1 -->
<svg width="211pt" height="106pt"
 viewBox="0.00 0.00 211.00 106.00" xmlns="http://www.w3.org/2000/svg" xmlns:xlink="http://www.w3.org/1999/xlink">
<g id="graph0" class="graph" transform="scale(1 1) rotate(0) translate(4 102)">
<title>SyncPoint</title>
<polygon fill="white" stroke="transparent" points="-4,4 -4,-102 207,-102 207,4 -4,4"/>
<!-- Node1 -->
<g id="node1" class="node">
<title>Node1</title>
<g id="a_node1"><a xlink:title=" ">
<polygon fill="#bfbfbf" stroke="black" points="60.5,-0.5 60.5,-19.5 125.5,-19.5 125.5,-0.5 60.5,-0.5"/>
<text text-anchor="middle" x="93" y="-7.5" font-family="Helvetica,sans-Serif" font-size="10.00">SyncPoint</text>
</a>
</g>
</g>
<!-- Node2 -->
<g id="node2" class="node">
<title>Node2</title>
<g id="a_node2"><a xlink:title=" ">
<polygon fill="white" stroke="#bfbfbf" points="0,-78.5 0,-97.5 50,-97.5 50,-78.5 0,-78.5"/>
<text text-anchor="middle" x="25" y="-85.5" font-family="Helvetica,sans-Serif" font-size="10.00">double</text>
</a>
</g>
</g>
<!-- Node2&#45;&gt;Node1 -->
<g id="edge1" class="edge">
<title>Node2&#45;&gt;Node1</title>
<path fill="none" stroke="#9a32cd" stroke-dasharray="5,2" d="M38.94,-70.26C47,-60.69 57.42,-48.54 67,-38 72.6,-31.84 79.1,-25.09 84.2,-19.88"/>
<polygon fill="#9a32cd" stroke="#9a32cd" points="36.03,-68.28 32.29,-78.19 41.39,-72.78 36.03,-68.28"/>
<text text-anchor="middle" x="78" y="-52" font-family="Helvetica,sans-Serif" font-size="10.00"> a</text>
<text text-anchor="middle" x="78" y="-41" font-family="Helvetica,sans-Serif" font-size="10.00">loga</text>
</g>
<!-- Node3 -->
<g id="node3" class="node">
<title>Node3</title>
<g id="a_node3"><a xlink:title=" ">
<polygon fill="white" stroke="#bfbfbf" points="68,-78.5 68,-97.5 118,-97.5 118,-78.5 68,-78.5"/>
<text text-anchor="middle" x="93" y="-85.5" font-family="Helvetica,sans-Serif" font-size="10.00">int32_t</text>
</a>
</g>
</g>
<!-- Node3&#45;&gt;Node1 -->
<g id="edge2" class="edge">
<title>Node3&#45;&gt;Node1</title>
<path fill="none" stroke="#9a32cd" stroke-dasharray="5,2" d="M93,-68.22C93,-52.7 93,-31.36 93,-19.62"/>
<polygon fill="#9a32cd" stroke="#9a32cd" points="89.5,-68.28 93,-78.28 96.5,-68.28 89.5,-68.28"/>
<text text-anchor="middle" x="98" y="-46.5" font-family="Helvetica,sans-Serif" font-size="10.00"> ti</text>
</g>
<!-- Node4 -->
<g id="node4" class="node">
<title>Node4</title>
<g id="a_node4"><a xlink:title=" ">
<polygon fill="white" stroke="#bfbfbf" points="136.5,-78.5 136.5,-97.5 165.5,-97.5 165.5,-78.5 136.5,-78.5"/>
<text text-anchor="middle" x="151" y="-85.5" font-family="Helvetica,sans-Serif" font-size="10.00">int</text>
</a>
</g>
</g>
<!-- Node4&#45;&gt;Node1 -->
<g id="edge3" class="edge">
<title>Node4&#45;&gt;Node1</title>
<path fill="none" stroke="#9a32cd" stroke-dasharray="5,2" d="M138.03,-70.01C126.1,-54.37 108.88,-31.81 99.58,-19.62"/>
<polygon fill="#9a32cd" stroke="#9a32cd" points="135.5,-72.46 144.35,-78.28 141.06,-68.21 135.5,-72.46"/>
<text text-anchor="middle" x="165.5" y="-52" font-family="Helvetica,sans-Serif" font-size="10.00"> write_fof</text>
<text text-anchor="middle" x="165.5" y="-41" font-family="Helvetica,sans-Serif" font-size="10.00">write_snapshot</text>
</g>
</g>
</svg>
