<?xml version="1.0" encoding="UTF-8" standalone="no"?>
<!DOCTYPE svg PUBLIC "-//W3C//DTD SVG 1.1//EN"
 "http://www.w3.org/Graphics/SVG/1.1/DTD/svg11.dtd">
<!-- Generated by graphviz version 2.50.0 (0)
 -->
<!-- Title: TreeWalkResultDensity Pages: 1 -->
<svg width="240pt" height="172pt"
 viewBox="0.00 0.00 239.50 172.00" xmlns="http://www.w3.org/2000/svg" xmlns:xlink="http://www.w3.org/1999/xlink">
<g id="graph0" class="graph" transform="scale(1 1) rotate(0) translate(4 168)">
<title>TreeWalkResultDensity</title>
<polygon fill="white" stroke="transparent" points="-4,4 -4,-168 235.5,-168 235.5,4 -4,4"/>
<!-- Node1 -->
<g id="node1" class="node">
<title>Node1</title>
<g id="a_node1"><a xlink:title=" ">
<polygon fill="#bfbfbf" stroke="black" points="46,-0.5 46,-19.5 175,-19.5 175,-0.5 46,-0.5"/>
<text text-anchor="middle" x="110.5" y="-7.5" font-family="Helvetica,sans-Serif" font-size="10.00">TreeWalkResultDensity</text>
</a>
</g>
</g>
<!-- Node2 -->
<g id="node2" class="node">
<title>Node2</title>
<g id="a_node2"><a xlink:title=" ">
<polygon fill="white" stroke="#bfbfbf" points="0,-144.5 0,-163.5 97,-163.5 97,-144.5 0,-144.5"/>
<text text-anchor="middle" x="48.5" y="-151.5" font-family="Helvetica,sans-Serif" font-size="10.00">LOW_PRECISION</text>
</a>
</g>
</g>
<!-- Node2&#45;&gt;Node1 -->
<g id="edge1" class="edge">
<title>Node2&#45;&gt;Node1</title>
<path fill="none" stroke="#9a32cd" stroke-dasharray="5,2" d="M46.15,-134.29C44.09,-109.97 43.98,-67.18 63.5,-38 68.94,-29.87 77.72,-23.88 86.22,-19.65"/>
<polygon fill="#9a32cd" stroke="#9a32cd" points="42.68,-134.74 47.2,-144.32 49.64,-134.01 42.68,-134.74"/>
<text text-anchor="middle" x="107.5" y="-118" font-family="Helvetica,sans-Serif" font-size="10.00"> DhsmlDensity</text>
<text text-anchor="middle" x="107.5" y="-107" font-family="Helvetica,sans-Serif" font-size="10.00">DhsmlEgyDensity</text>
<text text-anchor="middle" x="107.5" y="-96" font-family="Helvetica,sans-Serif" font-size="10.00">Div</text>
<text text-anchor="middle" x="107.5" y="-85" font-family="Helvetica,sans-Serif" font-size="10.00">EgyRho</text>
<text text-anchor="middle" x="107.5" y="-74" font-family="Helvetica,sans-Serif" font-size="10.00">GradRho</text>
<text text-anchor="middle" x="107.5" y="-63" font-family="Helvetica,sans-Serif" font-size="10.00">Ngb</text>
<text text-anchor="middle" x="107.5" y="-52" font-family="Helvetica,sans-Serif" font-size="10.00">Rho</text>
<text text-anchor="middle" x="107.5" y="-41" font-family="Helvetica,sans-Serif" font-size="10.00">Rot</text>
</g>
<!-- Node3 -->
<g id="node3" class="node">
<title>Node3</title>
<g id="a_node3"><a xlink:href="structTreeWalkResultBase.html" target="_top" xlink:title=" ">
<polygon fill="white" stroke="black" points="115.5,-144.5 115.5,-163.5 231.5,-163.5 231.5,-144.5 115.5,-144.5"/>
<text text-anchor="middle" x="173.5" y="-151.5" font-family="Helvetica,sans-Serif" font-size="10.00">TreeWalkResultBase</text>
</a>
</g>
</g>
<!-- Node3&#45;&gt;Node1 -->
<g id="edge2" class="edge">
<title>Node3&#45;&gt;Node1</title>
<path fill="none" stroke="#9a32cd" stroke-dasharray="5,2" d="M174.22,-134.05C174.23,-109.77 171.1,-67.35 151.5,-38 146.29,-30.2 137.99,-24.12 130.22,-19.72"/>
<polygon fill="#9a32cd" stroke="#9a32cd" points="170.71,-134.3 174.02,-144.37 177.71,-134.44 170.71,-134.3"/>
<text text-anchor="middle" x="187" y="-79.5" font-family="Helvetica,sans-Serif" font-size="10.00"> base</text>
</g>
</g>
</svg>
