<?xml version="1.0" encoding="UTF-8" standalone="no"?>
<!DOCTYPE svg PUBLIC "-//W3C//DTD SVG 1.1//EN"
 "http://www.w3.org/Graphics/SVG/1.1/DTD/svg11.dtd">
<!-- Generated by graphviz version 2.50.0 (0)
 -->
<!-- Title: AllocatorIter Pages: 1 -->
<svg width="361pt" height="208pt"
 viewBox="0.00 0.00 360.98 208.00" xmlns="http://www.w3.org/2000/svg" xmlns:xlink="http://www.w3.org/1999/xlink">
<g id="graph0" class="graph" transform="scale(1 1) rotate(0) translate(4 204)">
<title>AllocatorIter</title>
<polygon fill="white" stroke="transparent" points="-4,4 -4,-204 356.98,-204 356.98,4 -4,4"/>
<!-- Node1 -->
<g id="node1" class="node">
<title>Node1</title>
<g id="a_node1"><a xlink:title=" ">
<polygon fill="#bfbfbf" stroke="black" points="155.48,-0.5 155.48,-19.5 232.48,-19.5 232.48,-0.5 155.48,-0.5"/>
<text text-anchor="middle" x="193.98" y="-7.5" font-family="Helvetica,sans-Serif" font-size="10.00">AllocatorIter</text>
</a>
</g>
</g>
<!-- Node2 -->
<g id="node2" class="node">
<title>Node2</title>
<g id="a_node2"><a xlink:title=" ">
<polygon fill="white" stroke="#bfbfbf" points="22.98,-180.5 22.98,-199.5 60.98,-199.5 60.98,-180.5 22.98,-180.5"/>
<text text-anchor="middle" x="41.98" y="-187.5" font-family="Helvetica,sans-Serif" font-size="10.00">char</text>
</a>
</g>
</g>
<!-- Node2&#45;&gt;Node1 -->
<g id="edge1" class="edge">
<title>Node2&#45;&gt;Node1</title>
<path fill="none" stroke="#9a32cd" stroke-dasharray="5,2" d="M29.46,-172.21C12.34,-147.01 -13.71,-98.97 9.98,-67 43.27,-22.06 111.77,-11.96 155.15,-10.34"/>
<polygon fill="#9a32cd" stroke="#9a32cd" points="26.62,-174.25 35.26,-180.39 32.33,-170.2 26.62,-174.25"/>
<text text-anchor="middle" x="37.98" y="-97.5" font-family="Helvetica,sans-Serif" font-size="10.00"> annotation</text>
<text text-anchor="middle" x="37.98" y="-86.5" font-family="Helvetica,sans-Serif" font-size="10.00">name</text>
<text text-anchor="middle" x="37.98" y="-75.5" font-family="Helvetica,sans-Serif" font-size="10.00">ptr</text>
</g>
<!-- Node5 -->
<g id="node5" class="node">
<title>Node5</title>
<g id="a_node5"><a xlink:href="structAllocator.html" target="_top" xlink:title=" ">
<polygon fill="white" stroke="black" points="74.98,-79.5 74.98,-98.5 134.98,-98.5 134.98,-79.5 74.98,-79.5"/>
<text text-anchor="middle" x="104.98" y="-86.5" font-family="Helvetica,sans-Serif" font-size="10.00">Allocator</text>
</a>
</g>
</g>
<!-- Node2&#45;&gt;Node5 -->
<g id="edge5" class="edge">
<title>Node2&#45;&gt;Node5</title>
<path fill="none" stroke="#9a32cd" stroke-dasharray="5,2" d="M46.76,-170.62C50.52,-158.21 56.53,-141.83 64.98,-129 72.87,-117.01 85,-105.85 93.84,-98.56"/>
<polygon fill="#9a32cd" stroke="#9a32cd" points="43.38,-169.73 44.04,-180.3 50.12,-171.62 43.38,-169.73"/>
<text text-anchor="middle" x="85.98" y="-154" font-family="Helvetica,sans-Serif" font-size="10.00"> base</text>
<text text-anchor="middle" x="85.98" y="-143" font-family="Helvetica,sans-Serif" font-size="10.00">name</text>
<text text-anchor="middle" x="85.98" y="-132" font-family="Helvetica,sans-Serif" font-size="10.00">rawbase</text>
</g>
<!-- Node3 -->
<g id="node3" class="node">
<title>Node3</title>
<g id="a_node3"><a xlink:title=" ">
<polygon fill="white" stroke="#bfbfbf" points="261.48,-180.5 261.48,-199.5 306.48,-199.5 306.48,-180.5 261.48,-180.5"/>
<text text-anchor="middle" x="283.98" y="-187.5" font-family="Helvetica,sans-Serif" font-size="10.00">size_t</text>
</a>
</g>
</g>
<!-- Node3&#45;&gt;Node1 -->
<g id="edge2" class="edge">
<title>Node3&#45;&gt;Node1</title>
<path fill="none" stroke="#9a32cd" stroke-dasharray="5,2" d="M293.82,-171.4C295.13,-168.35 296.26,-165.14 296.98,-162 300.24,-147.7 300.62,-143.21 296.98,-129 289.18,-98.56 283.11,-91.13 262.98,-67 246.57,-47.33 222.43,-29.63 207.48,-19.61"/>
<polygon fill="#9a32cd" stroke="#9a32cd" points="290.68,-169.86 289.36,-180.37 296.95,-172.97 290.68,-169.86"/>
<text text-anchor="middle" x="321.98" y="-103" font-family="Helvetica,sans-Serif" font-size="10.00"> _bottom</text>
<text text-anchor="middle" x="321.98" y="-92" font-family="Helvetica,sans-Serif" font-size="10.00">_top</text>
<text text-anchor="middle" x="321.98" y="-81" font-family="Helvetica,sans-Serif" font-size="10.00">request_size</text>
<text text-anchor="middle" x="321.98" y="-70" font-family="Helvetica,sans-Serif" font-size="10.00">size</text>
</g>
<!-- Node3&#45;&gt;Node5 -->
<g id="edge6" class="edge">
<title>Node3&#45;&gt;Node5</title>
<path fill="none" stroke="#9a32cd" stroke-dasharray="5,2" d="M268.34,-172.61C254.95,-159.35 234.61,-140.98 213.98,-129 189.12,-114.57 158.02,-104.09 135.41,-97.65"/>
<polygon fill="#9a32cd" stroke="#9a32cd" points="266.21,-175.43 275.72,-180.1 271.19,-170.52 266.21,-175.43"/>
<text text-anchor="middle" x="275.48" y="-154" font-family="Helvetica,sans-Serif" font-size="10.00"> bottom</text>
<text text-anchor="middle" x="275.48" y="-143" font-family="Helvetica,sans-Serif" font-size="10.00">size</text>
<text text-anchor="middle" x="275.48" y="-132" font-family="Helvetica,sans-Serif" font-size="10.00">top</text>
</g>
<!-- Node4 -->
<g id="node4" class="node">
<title>Node4</title>
<g id="a_node4"><a xlink:title=" ">
<polygon fill="white" stroke="#bfbfbf" points="161.48,-180.5 161.48,-199.5 190.48,-199.5 190.48,-180.5 161.48,-180.5"/>
<text text-anchor="middle" x="175.98" y="-187.5" font-family="Helvetica,sans-Serif" font-size="10.00">int</text>
</a>
</g>
</g>
<!-- Node4&#45;&gt;Node1 -->
<g id="edge3" class="edge">
<title>Node4&#45;&gt;Node1</title>
<path fill="none" stroke="#9a32cd" stroke-dasharray="5,2" d="M198.81,-175.6C203.32,-171.81 207.44,-167.26 209.98,-162 233.82,-112.62 208.35,-43.8 197.97,-19.73"/>
<polygon fill="#9a32cd" stroke="#9a32cd" points="196.59,-172.89 190.53,-181.58 200.69,-178.56 196.59,-172.89"/>
<text text-anchor="middle" x="239.48" y="-92" font-family="Helvetica,sans-Serif" font-size="10.00"> _ended</text>
<text text-anchor="middle" x="239.48" y="-81" font-family="Helvetica,sans-Serif" font-size="10.00">dir</text>
</g>
<!-- Node4&#45;&gt;Node5 -->
<g id="edge7" class="edge">
<title>Node4&#45;&gt;Node5</title>
<path fill="none" stroke="#9a32cd" stroke-dasharray="5,2" d="M162.02,-172.33C159.3,-168.95 156.51,-165.39 153.98,-162 137.35,-139.7 119.31,-112.26 110.48,-98.59"/>
<polygon fill="#9a32cd" stroke="#9a32cd" points="159.39,-174.65 168.44,-180.15 164.8,-170.2 159.39,-174.65"/>
<text text-anchor="middle" x="181.98" y="-148.5" font-family="Helvetica,sans-Serif" font-size="10.00"> refcount</text>
<text text-anchor="middle" x="181.98" y="-137.5" font-family="Helvetica,sans-Serif" font-size="10.00">use_malloc</text>
</g>
<!-- Node5&#45;&gt;Node1 -->
<g id="edge4" class="edge">
<title>Node5&#45;&gt;Node1</title>
<path fill="none" stroke="#9a32cd" stroke-dasharray="5,2" d="M122.52,-72.82C140.92,-56.9 169.2,-32.43 184.07,-19.57"/>
<polygon fill="#9a32cd" stroke="#9a32cd" points="120.11,-70.28 114.84,-79.47 124.69,-75.57 120.11,-70.28"/>
<text text-anchor="middle" x="176.48" y="-41" font-family="Helvetica,sans-Serif" font-size="10.00"> alloc</text>
</g>
<!-- Node5&#45;&gt;Node5 -->
<g id="edge8" class="edge">
<title>Node5&#45;&gt;Node5</title>
<path fill="none" stroke="#9a32cd" stroke-dasharray="5,2" d="M145.63,-95.93C150.1,-94.61 152.98,-92.3 152.98,-89 152.98,-83.59 145.22,-80.84 135.44,-80.75"/>
<polygon fill="#9a32cd" stroke="#9a32cd" points="144.91,-92.49 135.44,-97.25 145.81,-99.44 144.91,-92.49"/>
<text text-anchor="middle" x="170.48" y="-86.5" font-family="Helvetica,sans-Serif" font-size="10.00"> parent</text>
</g>
</g>
</svg>
