<?xml version="1.0" encoding="UTF-8" standalone="no"?>
<!DOCTYPE svg PUBLIC "-//W3C//DTD SVG 1.1//EN"
 "http://www.w3.org/Graphics/SVG/1.1/DTD/svg11.dtd">
<!-- Generated by graphviz version 2.50.0 (0)
 -->
<!-- Title: BlockHeader Pages: 1 -->
<svg width="363pt" height="219pt"
 viewBox="0.00 0.00 363.16 219.00" xmlns="http://www.w3.org/2000/svg" xmlns:xlink="http://www.w3.org/1999/xlink">
<g id="graph0" class="graph" transform="scale(1 1) rotate(0) translate(4 215)">
<title>BlockHeader</title>
<polygon fill="white" stroke="transparent" points="-4,4 -4,-215 359.16,-215 359.16,4 -4,4"/>
<!-- Node1 -->
<g id="node1" class="node">
<title>Node1</title>
<g id="a_node1"><a xlink:title=" ">
<polygon fill="#bfbfbf" stroke="black" points="155.66,-0.5 155.66,-19.5 234.66,-19.5 234.66,-0.5 155.66,-0.5"/>
<text text-anchor="middle" x="195.16" y="-7.5" font-family="Helvetica,sans-Serif" font-size="10.00">BlockHeader</text>
</a>
</g>
</g>
<!-- Node2 -->
<g id="node2" class="node">
<title>Node2</title>
<g id="a_node2"><a xlink:title=" ">
<polygon fill="white" stroke="#bfbfbf" points="24.16,-191.5 24.16,-210.5 62.16,-210.5 62.16,-191.5 24.16,-191.5"/>
<text text-anchor="middle" x="43.16" y="-198.5" font-family="Helvetica,sans-Serif" font-size="10.00">char</text>
</a>
</g>
</g>
<!-- Node2&#45;&gt;Node1 -->
<g id="edge1" class="edge">
<title>Node2&#45;&gt;Node1</title>
<path fill="none" stroke="#9a32cd" stroke-dasharray="5,2" d="M30.9,-182.81C13.14,-155.62 -14.89,-102.16 11.16,-67 44.26,-22.33 112.14,-12.08 155.56,-10.37"/>
<polygon fill="#9a32cd" stroke="#9a32cd" points="28.13,-184.96 36.64,-191.26 33.92,-181.02 28.13,-184.96"/>
<text text-anchor="middle" x="39.16" y="-114" font-family="Helvetica,sans-Serif" font-size="10.00"> annotation</text>
<text text-anchor="middle" x="39.16" y="-103" font-family="Helvetica,sans-Serif" font-size="10.00">magic</text>
<text text-anchor="middle" x="39.16" y="-92" font-family="Helvetica,sans-Serif" font-size="10.00">name</text>
<text text-anchor="middle" x="39.16" y="-81" font-family="Helvetica,sans-Serif" font-size="10.00">ptr</text>
<text text-anchor="middle" x="39.16" y="-70" font-family="Helvetica,sans-Serif" font-size="10.00">self</text>
</g>
<!-- Node5 -->
<g id="node5" class="node">
<title>Node5</title>
<g id="a_node5"><a xlink:href="structAllocator.html" target="_top" xlink:title=" ">
<polygon fill="white" stroke="black" points="76.16,-85 76.16,-104 136.16,-104 136.16,-85 76.16,-85"/>
<text text-anchor="middle" x="106.16" y="-92" font-family="Helvetica,sans-Serif" font-size="10.00">Allocator</text>
</a>
</g>
</g>
<!-- Node2&#45;&gt;Node5 -->
<g id="edge5" class="edge">
<title>Node2&#45;&gt;Node5</title>
<path fill="none" stroke="#9a32cd" stroke-dasharray="5,2" d="M48.22,-181.79C52.1,-169.46 58.15,-153.1 66.16,-140 74.62,-126.18 87.62,-112.68 96.49,-104.24"/>
<polygon fill="#9a32cd" stroke="#9a32cd" points="44.86,-180.82 45.38,-191.4 51.57,-182.81 44.86,-180.82"/>
<text text-anchor="middle" x="87.16" y="-165" font-family="Helvetica,sans-Serif" font-size="10.00"> base</text>
<text text-anchor="middle" x="87.16" y="-154" font-family="Helvetica,sans-Serif" font-size="10.00">name</text>
<text text-anchor="middle" x="87.16" y="-143" font-family="Helvetica,sans-Serif" font-size="10.00">rawbase</text>
</g>
<!-- Node3 -->
<g id="node3" class="node">
<title>Node3</title>
<g id="a_node3"><a xlink:title=" ">
<polygon fill="white" stroke="#bfbfbf" points="262.66,-191.5 262.66,-210.5 307.66,-210.5 307.66,-191.5 262.66,-191.5"/>
<text text-anchor="middle" x="285.16" y="-198.5" font-family="Helvetica,sans-Serif" font-size="10.00">size_t</text>
</a>
</g>
</g>
<!-- Node3&#45;&gt;Node1 -->
<g id="edge2" class="edge">
<title>Node3&#45;&gt;Node1</title>
<path fill="none" stroke="#9a32cd" stroke-dasharray="5,2" d="M295.01,-182.4C296.31,-179.35 297.45,-176.14 298.16,-173 301.43,-158.7 302.78,-153.92 298.16,-140 280.3,-86.14 228.45,-38.43 205.88,-19.57"/>
<polygon fill="#9a32cd" stroke="#9a32cd" points="291.87,-180.86 290.55,-191.37 298.14,-183.97 291.87,-180.86"/>
<text text-anchor="middle" x="322.66" y="-97.5" font-family="Helvetica,sans-Serif" font-size="10.00"> request_size</text>
<text text-anchor="middle" x="322.66" y="-86.5" font-family="Helvetica,sans-Serif" font-size="10.00">size</text>
</g>
<!-- Node3&#45;&gt;Node5 -->
<g id="edge6" class="edge">
<title>Node3&#45;&gt;Node5</title>
<path fill="none" stroke="#9a32cd" stroke-dasharray="5,2" d="M269.38,-183.85C255.91,-170.73 235.53,-152.43 215.16,-140 189.17,-124.13 156.51,-111.66 133.75,-104.01"/>
<polygon fill="#9a32cd" stroke="#9a32cd" points="267.26,-186.67 276.82,-191.25 272.2,-181.71 267.26,-186.67"/>
<text text-anchor="middle" x="276.66" y="-165" font-family="Helvetica,sans-Serif" font-size="10.00"> bottom</text>
<text text-anchor="middle" x="276.66" y="-154" font-family="Helvetica,sans-Serif" font-size="10.00">size</text>
<text text-anchor="middle" x="276.66" y="-143" font-family="Helvetica,sans-Serif" font-size="10.00">top</text>
</g>
<!-- Node4 -->
<g id="node4" class="node">
<title>Node4</title>
<g id="a_node4"><a xlink:title=" ">
<polygon fill="white" stroke="#bfbfbf" points="162.66,-191.5 162.66,-210.5 191.66,-210.5 191.66,-191.5 162.66,-191.5"/>
<text text-anchor="middle" x="177.16" y="-198.5" font-family="Helvetica,sans-Serif" font-size="10.00">int</text>
</a>
</g>
</g>
<!-- Node4&#45;&gt;Node1 -->
<g id="edge3" class="edge">
<title>Node4&#45;&gt;Node1</title>
<path fill="none" stroke="#9a32cd" stroke-dasharray="5,2" d="M200,-186.6C204.5,-182.81 208.62,-178.26 211.16,-173 236.97,-119.55 209.67,-44.78 199.03,-19.64"/>
<polygon fill="#9a32cd" stroke="#9a32cd" points="197.77,-183.89 191.72,-192.58 201.87,-189.56 197.77,-183.89"/>
<text text-anchor="middle" x="230.16" y="-92" font-family="Helvetica,sans-Serif" font-size="10.00"> dir</text>
</g>
<!-- Node4&#45;&gt;Node5 -->
<g id="edge7" class="edge">
<title>Node4&#45;&gt;Node5</title>
<path fill="none" stroke="#9a32cd" stroke-dasharray="5,2" d="M163.11,-183.39C160.4,-180.01 157.63,-176.44 155.16,-173 137.87,-148.97 119.84,-118.95 111.27,-104.32"/>
<polygon fill="#9a32cd" stroke="#9a32cd" points="160.49,-185.72 169.55,-191.21 165.9,-181.27 160.49,-185.72"/>
<text text-anchor="middle" x="183.16" y="-159.5" font-family="Helvetica,sans-Serif" font-size="10.00"> refcount</text>
<text text-anchor="middle" x="183.16" y="-148.5" font-family="Helvetica,sans-Serif" font-size="10.00">use_malloc</text>
</g>
<!-- Node5&#45;&gt;Node1 -->
<g id="edge4" class="edge">
<title>Node5&#45;&gt;Node1</title>
<path fill="none" stroke="#9a32cd" stroke-dasharray="5,2" d="M122.83,-78.05C141.46,-60.78 170.98,-33.42 185.89,-19.6"/>
<polygon fill="#9a32cd" stroke="#9a32cd" points="120.31,-75.62 115.35,-84.98 125.07,-80.75 120.31,-75.62"/>
<text text-anchor="middle" x="177.66" y="-41" font-family="Helvetica,sans-Serif" font-size="10.00"> alloc</text>
</g>
<!-- Node5&#45;&gt;Node5 -->
<g id="edge8" class="edge">
<title>Node5&#45;&gt;Node5</title>
<path fill="none" stroke="#9a32cd" stroke-dasharray="5,2" d="M146.82,-102.37C151.28,-100.87 154.16,-98.25 154.16,-94.5 154.16,-88.35 146.41,-85.22 136.63,-85.13"/>
<polygon fill="#9a32cd" stroke="#9a32cd" points="146.01,-98.95 136.63,-103.87 147.03,-105.88 146.01,-98.95"/>
<text text-anchor="middle" x="171.66" y="-92" font-family="Helvetica,sans-Serif" font-size="10.00"> parent</text>
</g>
</g>
</svg>
