<?xml version="1.0" encoding="UTF-8" standalone="no"?>
<!DOCTYPE svg PUBLIC "-//W3C//DTD SVG 1.1//EN"
 "http://www.w3.org/Graphics/SVG/1.1/DTD/svg11.dtd">
<!-- Generated by graphviz version 2.38.0 (20140413.2041)
 -->
<!-- Title: FunctionOfK Pages: 1 -->
<svg width="253pt" height="121pt"
 viewBox="0.00 0.00 253.00 121.00" xmlns="http://www.w3.org/2000/svg" xmlns:xlink="http://www.w3.org/1999/xlink">
<g id="graph0" class="graph" transform="scale(1 1) rotate(0) translate(4 117)">
<title>FunctionOfK</title>
<polygon fill="white" stroke="none" points="-4,4 -4,-117 249,-117 249,4 -4,4"/>
<!-- Node1 -->
<g id="node1" class="node"><title>Node1</title>
<polygon fill="#bfbfbf" stroke="black" points="174,-45.5 174,-64.5 245,-64.5 245,-45.5 174,-45.5"/>
<text text-anchor="middle" x="209.5" y="-52.5" font-family="Helvetica,sans-Serif" font-size="10.00">FunctionOfK</text>
</g>
<!-- Node2 -->
<g id="node2" class="node"><title>Node2</title>
<polygon fill="white" stroke="#bfbfbf" points="23,-83.5 23,-102.5 68,-102.5 68,-83.5 23,-83.5"/>
<text text-anchor="middle" x="45.5" y="-90.5" font-family="Helvetica,sans-Serif" font-size="10.00">double</text>
</g>
<!-- Node2&#45;&gt;Node1 -->
<g id="edge1" class="edge"><title>Node2&#45;&gt;Node1</title>
<path fill="none" stroke="#9a32cd" stroke-dasharray="5,2" d="M78.0901,-86.9844C100.037,-82.654 129.911,-76.4583 156,-70 162.625,-68.36 169.676,-66.4559 176.39,-64.5661"/>
<polygon fill="#9a32cd" stroke="#9a32cd" points="77.1483,-83.6021 68.0043,-88.9535 78.4896,-90.4724 77.1483,-83.6021"/>
<text text-anchor="middle" x="132.5" y="-105" font-family="Helvetica,sans-Serif" font-size="10.00"> k</text>
<text text-anchor="middle" x="132.5" y="-94" font-family="Helvetica,sans-Serif" font-size="10.00">normfactor</text>
<text text-anchor="middle" x="132.5" y="-83" font-family="Helvetica,sans-Serif" font-size="10.00">P</text>
</g>
<!-- Node3 -->
<g id="node3" class="node"><title>Node3</title>
<polygon fill="white" stroke="#bfbfbf" points="0,-45.5 0,-64.5 91,-64.5 91,-45.5 0,-45.5"/>
<text text-anchor="middle" x="45.5" y="-52.5" font-family="Helvetica,sans-Serif" font-size="10.00">anonymous:table</text>
</g>
<!-- Node3&#45;&gt;Node1 -->
<g id="edge2" class="edge"><title>Node3&#45;&gt;Node1</title>
<path fill="none" stroke="#9a32cd" stroke-dasharray="5,2" d="M101.264,-55C125.317,-55 152.83,-55 173.965,-55"/>
<polygon fill="#9a32cd" stroke="#9a32cd" points="101.196,-51.5001 91.196,-55 101.196,-58.5001 101.196,-51.5001"/>
<text text-anchor="middle" x="132.5" y="-58" font-family="Helvetica,sans-Serif" font-size="10.00"> table</text>
</g>
<!-- Node4 -->
<g id="node4" class="node"><title>Node4</title>
<polygon fill="white" stroke="#bfbfbf" points="24,-0.5 24,-19.5 67,-19.5 67,-0.5 24,-0.5"/>
<text text-anchor="middle" x="45.5" y="-7.5" font-family="Helvetica,sans-Serif" font-size="10.00">size_t</text>
</g>
<!-- Node4&#45;&gt;Node1 -->
<g id="edge3" class="edge"><title>Node4&#45;&gt;Node1</title>
<path fill="none" stroke="#9a32cd" stroke-dasharray="5,2" d="M77.3122,-12.9459C99.5759,-15.6489 130.152,-20.554 156,-29 168.568,-33.1068 181.91,-39.7473 191.999,-45.2893"/>
<polygon fill="#9a32cd" stroke="#9a32cd" points="77.4381,-9.43783 67.1076,-11.7899 76.6501,-16.3933 77.4381,-9.43783"/>
<text text-anchor="middle" x="132.5" y="-43" font-family="Helvetica,sans-Serif" font-size="10.00"> size</text>
<text text-anchor="middle" x="132.5" y="-32" font-family="Helvetica,sans-Serif" font-size="10.00">bytesize</text>
</g>
</g>
</svg>
