<?xml version="1.0" encoding="UTF-8" standalone="no"?>
<!DOCTYPE svg PUBLIC "-//W3C//DTD SVG 1.1//EN"
 "http://www.w3.org/Graphics/SVG/1.1/DTD/svg11.dtd">
<!-- Generated by graphviz version 2.38.0 (20140413.2041)
 -->
<!-- Title: ParameterValue Pages: 1 -->
<svg width="156pt" height="153pt"
 viewBox="0.00 0.00 156.00 152.71" xmlns="http://www.w3.org/2000/svg" xmlns:xlink="http://www.w3.org/1999/xlink">
<g id="graph0" class="graph" transform="scale(1 1) rotate(0) translate(4 148.708)">
<title>ParameterValue</title>
<polygon fill="white" stroke="none" points="-4,4 -4,-148.708 152,-148.708 152,4 -4,4"/>
<!-- Node1 -->
<g id="node1" class="node"><title>Node1</title>
<polygon fill="#bfbfbf" stroke="black" points="46.5,-62.8538 46.5,-81.8538 132.5,-81.8538 132.5,-62.8538 46.5,-62.8538"/>
<text text-anchor="middle" x="89.5" y="-69.8538" font-family="Helvetica,sans-Serif" font-size="10.00">ParameterValue</text>
</g>
<!-- Node2 -->
<g id="node2" class="node"><title>Node2</title>
<polygon fill="white" stroke="#bfbfbf" points="103,-125.208 103,-144.208 148,-144.208 148,-125.208 103,-125.208"/>
<text text-anchor="middle" x="125.5" y="-132.208" font-family="Helvetica,sans-Serif" font-size="10.00">double</text>
</g>
<!-- Node2&#45;&gt;Node1 -->
<g id="edge1" class="edge"><title>Node2&#45;&gt;Node1</title>
<path fill="none" stroke="#9a32cd" stroke-dasharray="5,2" d="M114.721,-116.038C108.309,-104.932 100.432,-91.2879 95.2043,-82.234"/>
<polygon fill="#9a32cd" stroke="#9a32cd" points="111.844,-118.055 119.875,-124.965 117.906,-114.555 111.844,-118.055"/>
<text text-anchor="middle" x="100.463" y="-102.136" font-family="Helvetica,sans-Serif" font-size="10.00"> d</text>
</g>
<!-- Node3 -->
<g id="node3" class="node"><title>Node3</title>
<polygon fill="white" stroke="#bfbfbf" points="0,-62.8538 0,-81.8538 35,-81.8538 35,-62.8538 0,-62.8538"/>
<text text-anchor="middle" x="17.5" y="-69.8538" font-family="Helvetica,sans-Serif" font-size="10.00">char</text>
</g>
<!-- Node3&#45;&gt;Node1 -->
<g id="edge2" class="edge"><title>Node3&#45;&gt;Node1</title>
<path fill="none" stroke="#9a32cd" stroke-dasharray="5,2" d="M45.5331,-72.3538C45.7712,-72.3538 46.0098,-72.3538 46.2489,-72.3538"/>
<polygon fill="#9a32cd" stroke="#9a32cd" points="45.2978,-68.8539 35.2978,-72.3538 45.2977,-75.8539 45.2978,-68.8539"/>
<text text-anchor="middle" x="41.391" y="-75.3538" font-family="Helvetica,sans-Serif" font-size="10.00"> s</text>
</g>
<!-- Node4 -->
<g id="node4" class="node"><title>Node4</title>
<polygon fill="white" stroke="#bfbfbf" points="111,-0.5 111,-19.5 140,-19.5 140,-0.5 111,-0.5"/>
<text text-anchor="middle" x="125.5" y="-7.5" font-family="Helvetica,sans-Serif" font-size="10.00">int</text>
</g>
<!-- Node4&#45;&gt;Node1 -->
<g id="edge3" class="edge"><title>Node4&#45;&gt;Node1</title>
<path fill="none" stroke="#9a32cd" stroke-dasharray="5,2" d="M114.721,-28.6699C108.309,-39.7758 100.432,-53.4197 95.2043,-62.4737"/>
<polygon fill="#9a32cd" stroke="#9a32cd" points="117.906,-30.1531 119.875,-19.7428 111.844,-26.653 117.906,-30.1531"/>
<text text-anchor="middle" x="99.9626" y="-37.5718" font-family="Helvetica,sans-Serif" font-size="10.00"> i</text>
<text text-anchor="middle" x="99.9626" y="-26.5718" font-family="Helvetica,sans-Serif" font-size="10.00">nil</text>
</g>
</g>
</svg>
