<?xml version="1.0" encoding="UTF-8" standalone="no"?>
<!DOCTYPE svg PUBLIC "-//W3C//DTD SVG 1.1//EN"
 "http://www.w3.org/Graphics/SVG/1.1/DTD/svg11.dtd">
<!-- Generated by graphviz version 2.50.0 (0)
 -->
<!-- Title: TreeWalkQueryQSOLightup Pages: 1 -->
<svg width="229pt" height="162pt"
 viewBox="0.00 0.00 228.50 162.00" xmlns="http://www.w3.org/2000/svg" xmlns:xlink="http://www.w3.org/1999/xlink">
<g id="graph0" class="graph" transform="scale(1 1) rotate(0) translate(4 158)">
<title>TreeWalkQueryQSOLightup</title>
<polygon fill="white" stroke="transparent" points="-4,4 -4,-158 224.5,-158 224.5,4 -4,4"/>
<!-- Node1 -->
<g id="node1" class="node">
<title>Node1</title>
<g id="a_node1"><a xlink:title=" ">
<polygon fill="#bfbfbf" stroke="black" points="0,-0.5 0,-19.5 147,-19.5 147,-0.5 0,-0.5"/>
<text text-anchor="middle" x="73.5" y="-7.5" font-family="Helvetica,sans-Serif" font-size="10.00">TreeWalkQueryQSOLightup</text>
</a>
</g>
</g>
<!-- Node2 -->
<g id="node2" class="node">
<title>Node2</title>
<g id="a_node2"><a xlink:title=" ">
<polygon fill="white" stroke="#bfbfbf" points="27.5,-67.5 27.5,-86.5 83.5,-86.5 83.5,-67.5 27.5,-67.5"/>
<text text-anchor="middle" x="55.5" y="-74.5" font-family="Helvetica,sans-Serif" font-size="10.00">uint64_t</text>
</a>
</g>
</g>
<!-- Node2&#45;&gt;Node1 -->
<g id="edge1" class="edge">
<title>Node2&#45;&gt;Node1</title>
<path fill="none" stroke="#9a32cd" stroke-dasharray="5,2" d="M60.65,-57.41C64.09,-44.99 68.46,-29.22 71.11,-19.63"/>
<polygon fill="#9a32cd" stroke="#9a32cd" points="57.22,-56.66 57.93,-67.23 63.97,-58.53 57.22,-56.66"/>
<text text-anchor="middle" x="73.5" y="-41" font-family="Helvetica,sans-Serif" font-size="10.00"> ID</text>
</g>
<!-- Node3 -->
<g id="node3" class="node">
<title>Node3</title>
<g id="a_node3"><a xlink:href="structTreeWalkQueryBase.html" target="_top" xlink:title=" ">
<polygon fill="white" stroke="black" points="101.5,-67.5 101.5,-86.5 215.5,-86.5 215.5,-67.5 101.5,-67.5"/>
<text text-anchor="middle" x="158.5" y="-74.5" font-family="Helvetica,sans-Serif" font-size="10.00">TreeWalkQueryBase</text>
</a>
</g>
</g>
<!-- Node3&#45;&gt;Node1 -->
<g id="edge2" class="edge">
<title>Node3&#45;&gt;Node1</title>
<path fill="none" stroke="#9a32cd" stroke-dasharray="5,2" d="M138.97,-61.07C122.2,-48.24 98.59,-30.19 84.78,-19.63"/>
<polygon fill="#9a32cd" stroke="#9a32cd" points="136.97,-63.94 147.04,-67.23 141.22,-58.38 136.97,-63.94"/>
<text text-anchor="middle" x="135" y="-41" font-family="Helvetica,sans-Serif" font-size="10.00"> base</text>
</g>
<!-- Node4 -->
<g id="node4" class="node">
<title>Node4</title>
<g id="a_node4"><a xlink:title=" ">
<polygon fill="white" stroke="#bfbfbf" points="104.5,-134.5 104.5,-153.5 154.5,-153.5 154.5,-134.5 104.5,-134.5"/>
<text text-anchor="middle" x="129.5" y="-141.5" font-family="Helvetica,sans-Serif" font-size="10.00">double</text>
</a>
</g>
</g>
<!-- Node4&#45;&gt;Node3 -->
<g id="edge3" class="edge">
<title>Node4&#45;&gt;Node3</title>
<path fill="none" stroke="#9a32cd" stroke-dasharray="5,2" d="M136.25,-124.8C138.71,-118.47 141.6,-111.37 144.5,-105 147.3,-98.85 150.8,-92.1 153.6,-86.89"/>
<polygon fill="#9a32cd" stroke="#9a32cd" points="132.86,-123.85 132.59,-134.44 139.41,-126.33 132.86,-123.85"/>
<text text-anchor="middle" x="155" y="-108" font-family="Helvetica,sans-Serif" font-size="10.00"> Pos</text>
</g>
<!-- Node5 -->
<g id="node5" class="node">
<title>Node5</title>
<g id="a_node5"><a xlink:title=" ">
<polygon fill="white" stroke="#bfbfbf" points="173,-134.5 173,-153.5 202,-153.5 202,-134.5 173,-134.5"/>
<text text-anchor="middle" x="187.5" y="-141.5" font-family="Helvetica,sans-Serif" font-size="10.00">int</text>
</a>
</g>
</g>
<!-- Node5&#45;&gt;Node3 -->
<g id="edge4" class="edge">
<title>Node5&#45;&gt;Node3</title>
<path fill="none" stroke="#9a32cd" stroke-dasharray="5,2" d="M179.38,-124.79C173.81,-112.31 166.67,-96.31 162.35,-86.63"/>
<polygon fill="#9a32cd" stroke="#9a32cd" points="176.32,-126.53 183.59,-134.23 182.71,-123.68 176.32,-126.53"/>
<text text-anchor="middle" x="197.5" y="-108" font-family="Helvetica,sans-Serif" font-size="10.00"> NodeList</text>
</g>
</g>
</svg>
