<?xml version="1.0" encoding="UTF-8" standalone="no"?>
<!DOCTYPE svg PUBLIC "-//W3C//DTD SVG 1.1//EN"
 "http://www.w3.org/Graphics/SVG/1.1/DTD/svg11.dtd">
<!-- Generated by graphviz version 2.50.0 (0)
 -->
<!-- Title: TreeWalkResultBHFeedback Pages: 1 -->
<svg width="309pt" height="128pt"
 viewBox="0.00 0.00 308.50 128.00" xmlns="http://www.w3.org/2000/svg" xmlns:xlink="http://www.w3.org/1999/xlink">
<g id="graph0" class="graph" transform="scale(1 1) rotate(0) translate(4 124)">
<title>TreeWalkResultBHFeedback</title>
<polygon fill="white" stroke="transparent" points="-4,4 -4,-124 304.5,-124 304.5,4 -4,4"/>
<!-- Node1 -->
<g id="node1" class="node">
<title>Node1</title>
<g id="a_node1"><a xlink:title=" ">
<polygon fill="#bfbfbf" stroke="black" points="40.5,-0.5 40.5,-19.5 192.5,-19.5 192.5,-0.5 40.5,-0.5"/>
<text text-anchor="middle" x="116.5" y="-7.5" font-family="Helvetica,sans-Serif" font-size="10.00">TreeWalkResultBHFeedback</text>
</a>
</g>
</g>
<!-- Node2 -->
<g id="node2" class="node">
<title>Node2</title>
<g id="a_node2"><a xlink:title=" ">
<polygon fill="white" stroke="#bfbfbf" points="0,-100.5 0,-119.5 29,-119.5 29,-100.5 0,-100.5"/>
<text text-anchor="middle" x="14.5" y="-107.5" font-family="Helvetica,sans-Serif" font-size="10.00">int</text>
</a>
</g>
</g>
<!-- Node2&#45;&gt;Node1 -->
<g id="edge1" class="edge">
<title>Node2&#45;&gt;Node1</title>
<path fill="none" stroke="#9a32cd" stroke-dasharray="5,2" d="M14.77,-90.11C16,-74.25 20.22,-52.01 33.5,-38 41.63,-29.42 52.52,-23.57 63.72,-19.57"/>
<polygon fill="#9a32cd" stroke="#9a32cd" points="11.26,-90.17 14.32,-100.32 18.26,-90.48 11.26,-90.17"/>
<text text-anchor="middle" x="73" y="-63" font-family="Helvetica,sans-Serif" font-size="10.00"> BH_CountProgs</text>
<text text-anchor="middle" x="73" y="-52" font-family="Helvetica,sans-Serif" font-size="10.00">alignment</text>
</g>
<!-- Node3 -->
<g id="node3" class="node">
<title>Node3</title>
<g id="a_node3"><a xlink:title=" ">
<polygon fill="white" stroke="#bfbfbf" points="68,-100.5 68,-119.5 165,-119.5 165,-100.5 68,-100.5"/>
<text text-anchor="middle" x="116.5" y="-107.5" font-family="Helvetica,sans-Serif" font-size="10.00">LOW_PRECISION</text>
</a>
</g>
</g>
<!-- Node3&#45;&gt;Node1 -->
<g id="edge2" class="edge">
<title>Node3&#45;&gt;Node1</title>
<path fill="none" stroke="#9a32cd" stroke-dasharray="5,2" d="M116.5,-90.22C116.5,-68.95 116.5,-35.22 116.5,-19.54"/>
<polygon fill="#9a32cd" stroke="#9a32cd" points="113,-90.3 116.5,-100.3 120,-90.3 113,-90.3"/>
<text text-anchor="middle" x="168" y="-74" font-family="Helvetica,sans-Serif" font-size="10.00"> AccretedMomentum</text>
<text text-anchor="middle" x="168" y="-63" font-family="Helvetica,sans-Serif" font-size="10.00">BH_Mass</text>
<text text-anchor="middle" x="168" y="-52" font-family="Helvetica,sans-Serif" font-size="10.00">Mass</text>
<text text-anchor="middle" x="168" y="-41" font-family="Helvetica,sans-Serif" font-size="10.00">acMtrack</text>
</g>
<!-- Node4 -->
<g id="node4" class="node">
<title>Node4</title>
<g id="a_node4"><a xlink:href="structTreeWalkResultBase.html" target="_top" xlink:title=" ">
<polygon fill="white" stroke="black" points="184.5,-100.5 184.5,-119.5 300.5,-119.5 300.5,-100.5 184.5,-100.5"/>
<text text-anchor="middle" x="242.5" y="-107.5" font-family="Helvetica,sans-Serif" font-size="10.00">TreeWalkResultBase</text>
</a>
</g>
</g>
<!-- Node4&#45;&gt;Node1 -->
<g id="edge3" class="edge">
<title>Node4&#45;&gt;Node1</title>
<path fill="none" stroke="#9a32cd" stroke-dasharray="5,2" d="M241.56,-89.85C239.74,-73.82 234.62,-51.48 220.5,-38 211.66,-29.56 200.54,-23.68 188.88,-19.59"/>
<polygon fill="#9a32cd" stroke="#9a32cd" points="238.1,-90.49 242.38,-100.18 245.07,-89.93 238.1,-90.49"/>
<text text-anchor="middle" x="253" y="-57.5" font-family="Helvetica,sans-Serif" font-size="10.00"> base</text>
</g>
</g>
</svg>
