<?xml version="1.0" encoding="UTF-8" standalone="no"?>
<!DOCTYPE svg PUBLIC "-//W3C//DTD SVG 1.1//EN"
 "http://www.w3.org/Graphics/SVG/1.1/DTD/svg11.dtd">
<!-- Generated by graphviz version 2.38.0 (20140413.2041)
 -->
<!-- Title: Clock Pages: 1 -->
<svg width="66pt" height="172pt"
 viewBox="0.00 0.00 65.50 172.00" xmlns="http://www.w3.org/2000/svg" xmlns:xlink="http://www.w3.org/1999/xlink">
<g id="graph0" class="graph" transform="scale(1 1) rotate(0) translate(4 168)">
<title>Clock</title>
<polygon fill="white" stroke="none" points="-4,4 -4,-168 61.5,-168 61.5,4 -4,4"/>
<!-- Node1 -->
<g id="node1" class="node"><title>Node1</title>
<polygon fill="#bfbfbf" stroke="black" points="14,-72.5 14,-91.5 56,-91.5 56,-72.5 14,-72.5"/>
<text text-anchor="middle" x="35" y="-79.5" font-family="Helvetica,sans-Serif" font-size="10.00">Clock</text>
</g>
<!-- Node2 -->
<g id="node2" class="node"><title>Node2</title>
<polygon fill="white" stroke="#bfbfbf" points="12.5,-144.5 12.5,-163.5 57.5,-163.5 57.5,-144.5 12.5,-144.5"/>
<text text-anchor="middle" x="35" y="-151.5" font-family="Helvetica,sans-Serif" font-size="10.00">double</text>
</g>
<!-- Node2&#45;&gt;Node1 -->
<g id="edge1" class="edge"><title>Node2&#45;&gt;Node1</title>
<path fill="none" stroke="#9a32cd" stroke-dasharray="5,2" d="M35,-134.243C35,-120.357 35,-102.393 35,-91.5564"/>
<polygon fill="#9a32cd" stroke="#9a32cd" points="31.5001,-134.29 35,-144.29 38.5001,-134.29 31.5001,-134.29"/>
<text text-anchor="middle" x="21" y="-148.899" font-family="Helvetica,sans-Serif" font-size="10.00"> mean</text>
<text text-anchor="middle" x="21" y="-137.899" font-family="Helvetica,sans-Serif" font-size="10.00">min</text>
<text text-anchor="middle" x="21" y="-126.899" font-family="Helvetica,sans-Serif" font-size="10.00">max</text>
<text text-anchor="middle" x="21" y="-115.899" font-family="Helvetica,sans-Serif" font-size="10.00">time</text>
</g>
<!-- Node3 -->
<g id="node3" class="node"><title>Node3</title>
<polygon fill="white" stroke="#bfbfbf" points="17.5,-0.5 17.5,-19.5 52.5,-19.5 52.5,-0.5 17.5,-0.5"/>
<text text-anchor="middle" x="35" y="-7.5" font-family="Helvetica,sans-Serif" font-size="10.00">char</text>
</g>
<!-- Node3&#45;&gt;Node1 -->
<g id="edge2" class="edge"><title>Node3&#45;&gt;Node1</title>
<path fill="none" stroke="#9a32cd" stroke-dasharray="5,2" d="M35,-29.7574C35,-43.6427 35,-61.607 35,-72.4436"/>
<polygon fill="#9a32cd" stroke="#9a32cd" points="38.5001,-29.7102 35,-19.7102 31.5001,-29.7103 38.5001,-29.7102"/>
<text text-anchor="middle" x="17.5" y="-43.1005" font-family="Helvetica,sans-Serif" font-size="10.00"> symbol</text>
<text text-anchor="middle" x="17.5" y="-32.1005" font-family="Helvetica,sans-Serif" font-size="10.00">name</text>
</g>
</g>
</svg>
