<?xml version="1.0" encoding="UTF-8" standalone="no"?>
<!DOCTYPE svg PUBLIC "-//W3C//DTD SVG 1.1//EN"
 "http://www.w3.org/Graphics/SVG/1.1/DTD/svg11.dtd">
<!-- Generated by graphviz version 2.50.0 (0)
 -->
<!-- Title: Group Pages: 1 -->
<svg width="404pt" height="340pt"
 viewBox="0.00 0.00 404.00 340.00" xmlns="http://www.w3.org/2000/svg" xmlns:xlink="http://www.w3.org/1999/xlink">
<g id="graph0" class="graph" transform="scale(1 1) rotate(0) translate(4 336)">
<title>Group</title>
<polygon fill="white" stroke="transparent" points="-4,4 -4,-336 400,-336 400,4 -4,4"/>
<!-- Node1 -->
<g id="node1" class="node">
<title>Node1</title>
<g id="a_node1"><a xlink:title=" ">
<polygon fill="#bfbfbf" stroke="black" points="139,-0.5 139,-19.5 185,-19.5 185,-0.5 139,-0.5"/>
<text text-anchor="middle" x="162" y="-7.5" font-family="Helvetica,sans-Serif" font-size="10.00">Group</text>
</a>
</g>
</g>
<!-- Node2 -->
<g id="node2" class="node">
<title>Node2</title>
<g id="a_node2"><a xlink:title=" ">
<polygon fill="white" stroke="#bfbfbf" points="0,-189.5 0,-208.5 50,-208.5 50,-189.5 0,-189.5"/>
<text text-anchor="middle" x="25" y="-196.5" font-family="Helvetica,sans-Serif" font-size="10.00">double</text>
</a>
</g>
</g>
<!-- Node2&#45;&gt;Node1 -->
<g id="edge1" class="edge">
<title>Node2&#45;&gt;Node1</title>
<path fill="none" stroke="#9a32cd" stroke-dasharray="5,2" d="M18.54,-179.93C8.19,-147.45 -7.7,-78.79 26,-38 40.07,-20.97 103.84,-14.48 138.84,-12.17"/>
<polygon fill="#9a32cd" stroke="#9a32cd" points="15.24,-181.11 21.75,-189.47 21.87,-178.87 15.24,-181.11"/>
<text text-anchor="middle" x="62.5" y="-151" font-family="Helvetica,sans-Serif" font-size="10.00"> BH_Mass</text>
<text text-anchor="middle" x="62.5" y="-140" font-family="Helvetica,sans-Serif" font-size="10.00">BH_Mdot</text>
<text text-anchor="middle" x="62.5" y="-129" font-family="Helvetica,sans-Serif" font-size="10.00">CM</text>
<text text-anchor="middle" x="62.5" y="-118" font-family="Helvetica,sans-Serif" font-size="10.00">GasMetalMass</text>
<text text-anchor="middle" x="62.5" y="-107" font-family="Helvetica,sans-Serif" font-size="10.00">Imom</text>
<text text-anchor="middle" x="62.5" y="-96" font-family="Helvetica,sans-Serif" font-size="10.00">Jmom</text>
<text text-anchor="middle" x="62.5" y="-85" font-family="Helvetica,sans-Serif" font-size="10.00">Mass</text>
<text text-anchor="middle" x="62.5" y="-74" font-family="Helvetica,sans-Serif" font-size="10.00">MassType</text>
<text text-anchor="middle" x="62.5" y="-63" font-family="Helvetica,sans-Serif" font-size="10.00">MaxDens</text>
<text text-anchor="middle" x="62.5" y="-52" font-family="Helvetica,sans-Serif" font-size="10.00">Sfr</text>
<text text-anchor="middle" x="62.5" y="-41" font-family="Helvetica,sans-Serif" font-size="10.00">...</text>
</g>
<!-- Node3 -->
<g id="node3" class="node">
<title>Node3</title>
<g id="a_node3"><a xlink:title=" ">
<polygon fill="white" stroke="#bfbfbf" points="113,-312.5 113,-331.5 151,-331.5 151,-312.5 113,-312.5"/>
<text text-anchor="middle" x="132" y="-319.5" font-family="Helvetica,sans-Serif" font-size="10.00">float</text>
</a>
</g>
</g>
<!-- Node3&#45;&gt;Node1 -->
<g id="edge2" class="edge">
<title>Node3&#45;&gt;Node1</title>
<path fill="none" stroke="#9a32cd" stroke-dasharray="5,2" d="M129.6,-302.53C127.12,-282.49 123.42,-249.54 122,-221 121.03,-201.47 119.69,-196.42 122,-177 129.31,-115.48 151.34,-43.77 159.19,-19.51"/>
<polygon fill="#9a32cd" stroke="#9a32cd" points="126.13,-302.98 130.86,-312.46 133.07,-302.1 126.13,-302.98"/>
<text text-anchor="middle" x="177" y="-207.5" font-family="Helvetica,sans-Serif" font-size="10.00"> GasMetalElemMass</text>
<text text-anchor="middle" x="177" y="-196.5" font-family="Helvetica,sans-Serif" font-size="10.00">MassHeIonized</text>
<text text-anchor="middle" x="177" y="-185.5" font-family="Helvetica,sans-Serif" font-size="10.00">StellarMetalElemMass</text>
</g>
<!-- Node5 -->
<g id="node5" class="node">
<title>Node5</title>
<g id="a_node5"><a xlink:href="structBaseGroup.html" target="_top" xlink:title=" ">
<polygon fill="white" stroke="black" points="241,-189.5 241,-208.5 311,-208.5 311,-189.5 241,-189.5"/>
<text text-anchor="middle" x="276" y="-196.5" font-family="Helvetica,sans-Serif" font-size="10.00">BaseGroup</text>
</a>
</g>
</g>
<!-- Node3&#45;&gt;Node5 -->
<g id="edge6" class="edge">
<title>Node3&#45;&gt;Node5</title>
<path fill="none" stroke="#9a32cd" stroke-dasharray="5,2" d="M136.88,-302.86C142.76,-284.34 154.37,-255.96 174,-239 192.83,-222.74 203.77,-229.91 227,-221 237.02,-217.16 248.03,-212.48 257.06,-208.52"/>
<polygon fill="#9a32cd" stroke="#9a32cd" points="133.52,-301.89 134.07,-312.47 140.23,-303.86 133.52,-301.89"/>
<text text-anchor="middle" x="195" y="-264" font-family="Helvetica,sans-Serif" font-size="10.00"> FirstPos</text>
</g>
<!-- Node4 -->
<g id="node4" class="node">
<title>Node4</title>
<g id="a_node4"><a xlink:title=" ">
<polygon fill="white" stroke="#bfbfbf" points="304.5,-312.5 304.5,-331.5 333.5,-331.5 333.5,-312.5 304.5,-312.5"/>
<text text-anchor="middle" x="319" y="-319.5" font-family="Helvetica,sans-Serif" font-size="10.00">int</text>
</a>
</g>
</g>
<!-- Node4&#45;&gt;Node1 -->
<g id="edge3" class="edge">
<title>Node4&#45;&gt;Node1</title>
<path fill="none" stroke="#9a32cd" stroke-dasharray="5,2" d="M336.52,-304.96C339.17,-301.62 341.51,-297.91 343,-294 351.69,-271.15 346.53,-263.19 343,-239 329.53,-146.75 351.21,-101.56 283,-38 269.02,-24.98 216.26,-17.03 185.21,-13.39"/>
<polygon fill="#9a32cd" stroke="#9a32cd" points="333.83,-302.71 329.61,-312.43 338.97,-307.47 333.83,-302.71"/>
<text text-anchor="middle" x="368" y="-213" font-family="Helvetica,sans-Serif" font-size="10.00"> LenType</text>
<text text-anchor="middle" x="368" y="-202" font-family="Helvetica,sans-Serif" font-size="10.00">Length</text>
<text text-anchor="middle" x="368" y="-191" font-family="Helvetica,sans-Serif" font-size="10.00">seed_index</text>
<text text-anchor="middle" x="368" y="-180" font-family="Helvetica,sans-Serif" font-size="10.00">seed_task</text>
</g>
<!-- Node4&#45;&gt;Node5 -->
<g id="edge7" class="edge">
<title>Node4&#45;&gt;Node5</title>
<path fill="none" stroke="#9a32cd" stroke-dasharray="5,2" d="M294.76,-310.93C287.78,-306.77 280.98,-301.2 277,-294 261.6,-266.15 269.08,-226.19 273.52,-208.72"/>
<polygon fill="#9a32cd" stroke="#9a32cd" points="293.65,-314.3 304.15,-315.75 296.85,-308.07 293.65,-314.3"/>
<text text-anchor="middle" x="310" y="-286" font-family="Helvetica,sans-Serif" font-size="10.00"> GrNr</text>
<text text-anchor="middle" x="310" y="-275" font-family="Helvetica,sans-Serif" font-size="10.00">Length</text>
<text text-anchor="middle" x="310" y="-264" font-family="Helvetica,sans-Serif" font-size="10.00">MinIDTask</text>
<text text-anchor="middle" x="310" y="-253" font-family="Helvetica,sans-Serif" font-size="10.00">OriginalIndex</text>
<text text-anchor="middle" x="310" y="-242" font-family="Helvetica,sans-Serif" font-size="10.00">OriginalTask</text>
</g>
<!-- Node5&#45;&gt;Node1 -->
<g id="edge4" class="edge">
<title>Node5&#45;&gt;Node1</title>
<path fill="none" stroke="#9a32cd" stroke-dasharray="5,2" d="M265.55,-180.85C241.86,-141.99 184.78,-48.36 167.23,-19.57"/>
<polygon fill="#9a32cd" stroke="#9a32cd" points="262.61,-182.76 270.81,-189.48 268.59,-179.12 262.61,-182.76"/>
<text text-anchor="middle" x="265.5" y="-96" font-family="Helvetica,sans-Serif" font-size="10.00"> base</text>
</g>
<!-- Node6 -->
<g id="node6" class="node">
<title>Node6</title>
<g id="a_node6"><a xlink:title=" ">
<polygon fill="white" stroke="#bfbfbf" points="193,-312.5 193,-331.5 249,-331.5 249,-312.5 193,-312.5"/>
<text text-anchor="middle" x="221" y="-319.5" font-family="Helvetica,sans-Serif" font-size="10.00">uint64_t</text>
</a>
</g>
</g>
<!-- Node6&#45;&gt;Node5 -->
<g id="edge5" class="edge">
<title>Node6&#45;&gt;Node5</title>
<path fill="none" stroke="#9a32cd" stroke-dasharray="5,2" d="M219.57,-302.23C219.08,-284.83 220.5,-258.73 231,-239 237.9,-226.04 250.99,-215.46 261.28,-208.6"/>
<polygon fill="#9a32cd" stroke="#9a32cd" points="216.08,-302.45 220.1,-312.26 223.07,-302.09 216.08,-302.45"/>
<text text-anchor="middle" x="247" y="-264" font-family="Helvetica,sans-Serif" font-size="10.00"> MinID</text>
</g>
</g>
</svg>
