<?xml version="1.0" encoding="UTF-8" standalone="no"?>
<!DOCTYPE svg PUBLIC "-//W3C//DTD SVG 1.1//EN"
 "http://www.w3.org/Graphics/SVG/1.1/DTD/svg11.dtd">
<!-- Generated by graphviz version 2.50.0 (0)
 -->
<!-- Title: table Pages: 1 -->
<svg width="211pt" height="106pt"
 viewBox="0.00 0.00 211.00 106.00" xmlns="http://www.w3.org/2000/svg" xmlns:xlink="http://www.w3.org/1999/xlink">
<g id="graph0" class="graph" transform="scale(1 1) rotate(0) translate(4 102)">
<title>table</title>
<polygon fill="white" stroke="transparent" points="-4,4 -4,-102 207,-102 207,4 -4,4"/>
<!-- Node1 -->
<g id="node1" class="node">
<title>Node1</title>
<g id="a_node1"><a xlink:title=" ">
<polygon fill="#bfbfbf" stroke="black" points="84.5,-0.5 84.5,-19.5 125.5,-19.5 125.5,-0.5 84.5,-0.5"/>
<text text-anchor="middle" x="105" y="-7.5" font-family="Helvetica,sans-Serif" font-size="10.00">table</text>
</a>
</g>
</g>
<!-- Node2 -->
<g id="node2" class="node">
<title>Node2</title>
<g id="a_node2"><a xlink:title=" ">
<polygon fill="white" stroke="#bfbfbf" points="0,-78.5 0,-97.5 50,-97.5 50,-78.5 0,-78.5"/>
<text text-anchor="middle" x="25" y="-85.5" font-family="Helvetica,sans-Serif" font-size="10.00">double</text>
</a>
</g>
</g>
<!-- Node2&#45;&gt;Node1 -->
<g id="edge1" class="edge">
<title>Node2&#45;&gt;Node1</title>
<path fill="none" stroke="#9a32cd" stroke-dasharray="5,2" d="M41.11,-70.87C50.83,-61.22 63.51,-48.79 75,-38 81.64,-31.76 89.27,-24.9 95.18,-19.65"/>
<polygon fill="#9a32cd" stroke="#9a32cd" points="38.36,-68.67 33.74,-78.21 43.3,-73.63 38.36,-68.67"/>
<text text-anchor="middle" x="88" y="-52" font-family="Helvetica,sans-Serif" font-size="10.00"> logD</text>
<text text-anchor="middle" x="88" y="-41" font-family="Helvetica,sans-Serif" font-size="10.00">logk</text>
</g>
<!-- Node3 -->
<g id="node3" class="node">
<title>Node3</title>
<g id="a_node3"><a xlink:title=" ">
<polygon fill="white" stroke="#bfbfbf" points="68.5,-78.5 68.5,-97.5 141.5,-97.5 141.5,-78.5 68.5,-78.5"/>
<text text-anchor="middle" x="105" y="-85.5" font-family="Helvetica,sans-Serif" font-size="10.00">gsl_interp *</text>
</a>
</g>
</g>
<!-- Node3&#45;&gt;Node1 -->
<g id="edge2" class="edge">
<title>Node3&#45;&gt;Node1</title>
<path fill="none" stroke="#9a32cd" stroke-dasharray="5,2" d="M105,-68.22C105,-52.7 105,-31.36 105,-19.62"/>
<polygon fill="#9a32cd" stroke="#9a32cd" points="101.5,-68.28 105,-78.28 108.5,-68.28 101.5,-68.28"/>
<text text-anchor="middle" x="128.5" y="-46.5" font-family="Helvetica,sans-Serif" font-size="10.00"> mat_intp</text>
</g>
<!-- Node4 -->
<g id="node4" class="node">
<title>Node4</title>
<g id="a_node4"><a xlink:title=" ">
<polygon fill="white" stroke="#bfbfbf" points="160.5,-78.5 160.5,-97.5 189.5,-97.5 189.5,-78.5 160.5,-78.5"/>
<text text-anchor="middle" x="175" y="-85.5" font-family="Helvetica,sans-Serif" font-size="10.00">int</text>
</a>
</g>
</g>
<!-- Node4&#45;&gt;Node1 -->
<g id="edge3" class="edge">
<title>Node4&#45;&gt;Node1</title>
<path fill="none" stroke="#9a32cd" stroke-dasharray="5,2" d="M169.9,-68.71C166.4,-58.74 160.94,-46.7 153,-38 145.52,-29.81 134.96,-23.5 125.65,-19.05"/>
<polygon fill="#9a32cd" stroke="#9a32cd" points="166.62,-69.96 172.94,-78.46 173.3,-67.87 166.62,-69.96"/>
<text text-anchor="middle" x="184.5" y="-46.5" font-family="Helvetica,sans-Serif" font-size="10.00"> Nentry</text>
</g>
</g>
</svg>
