<?xml version="1.0" encoding="UTF-8" standalone="no"?>
<!DOCTYPE svg PUBLIC "-//W3C//DTD SVG 1.1//EN"
 "http://www.w3.org/Graphics/SVG/1.1/DTD/svg11.dtd">
<!-- Generated by graphviz version 2.38.0 (20140413.2041)
 -->
<!-- Title: topleaf_extdata Pages: 1 -->
<svg width="216pt" height="111pt"
 viewBox="0.00 0.00 216.00 111.00" xmlns="http://www.w3.org/2000/svg" xmlns:xlink="http://www.w3.org/1999/xlink">
<g id="graph0" class="graph" transform="scale(1 1) rotate(0) translate(4 107)">
<title>topleaf_extdata</title>
<polygon fill="white" stroke="none" points="-4,4 -4,-107 212,-107 212,4 -4,4"/>
<!-- Node1 -->
<g id="node1" class="node"><title>Node1</title>
<polygon fill="#bfbfbf" stroke="black" points="125,-45.5 125,-64.5 208,-64.5 208,-45.5 125,-45.5"/>
<text text-anchor="middle" x="166.5" y="-52.5" font-family="Helvetica,sans-Serif" font-size="10.00">topleaf_extdata</text>
</g>
<!-- Node2 -->
<g id="node2" class="node"><title>Node2</title>
<polygon fill="white" stroke="#bfbfbf" points="0,-83.5 0,-102.5 51,-102.5 51,-83.5 0,-83.5"/>
<text text-anchor="middle" x="25.5" y="-90.5" font-family="Helvetica,sans-Serif" font-size="10.00">uint64_t</text>
</g>
<!-- Node2&#45;&gt;Node1 -->
<g id="edge1" class="edge"><title>Node2&#45;&gt;Node1</title>
<path fill="none" stroke="#9a32cd" stroke-dasharray="5,2" d="M60.9124,-83.5923C82.1132,-77.7964 109.219,-70.3862 130.523,-64.562"/>
<polygon fill="#9a32cd" stroke="#9a32cd" points="59.7535,-80.2806 51.0304,-86.2938 61.5995,-87.0328 59.7535,-80.2806"/>
<text text-anchor="middle" x="88" y="-83" font-family="Helvetica,sans-Serif" font-size="10.00"> Key</text>
</g>
<!-- Node3 -->
<g id="node3" class="node"><title>Node3</title>
<polygon fill="white" stroke="#bfbfbf" points="2.5,-45.5 2.5,-64.5 48.5,-64.5 48.5,-45.5 2.5,-45.5"/>
<text text-anchor="middle" x="25.5" y="-52.5" font-family="Helvetica,sans-Serif" font-size="10.00">int64_t</text>
</g>
<!-- Node3&#45;&gt;Node1 -->
<g id="edge2" class="edge"><title>Node3&#45;&gt;Node1</title>
<path fill="none" stroke="#9a32cd" stroke-dasharray="5,2" d="M58.5386,-55C78.2495,-55 103.694,-55 124.82,-55"/>
<polygon fill="#9a32cd" stroke="#9a32cd" points="58.525,-51.5001 48.525,-55 58.5249,-58.5001 58.525,-51.5001"/>
<text text-anchor="middle" x="88" y="-58" font-family="Helvetica,sans-Serif" font-size="10.00"> cost</text>
</g>
<!-- Node4 -->
<g id="node4" class="node"><title>Node4</title>
<polygon fill="white" stroke="#bfbfbf" points="11,-0.5 11,-19.5 40,-19.5 40,-0.5 11,-0.5"/>
<text text-anchor="middle" x="25.5" y="-7.5" font-family="Helvetica,sans-Serif" font-size="10.00">int</text>
</g>
<!-- Node4&#45;&gt;Node1 -->
<g id="edge3" class="edge"><title>Node4&#45;&gt;Node1</title>
<path fill="none" stroke="#9a32cd" stroke-dasharray="5,2" d="M50.3161,-14.4051C66.5141,-17.6957 88.3146,-22.7039 107,-29 120.481,-33.5426 135.106,-40.0426 146.361,-45.4069"/>
<polygon fill="#9a32cd" stroke="#9a32cd" points="50.5904,-10.8925 40.1043,-12.4068 49.246,-17.7622 50.5904,-10.8925"/>
<text text-anchor="middle" x="88" y="-43" font-family="Helvetica,sans-Serif" font-size="10.00"> topnode</text>
<text text-anchor="middle" x="88" y="-32" font-family="Helvetica,sans-Serif" font-size="10.00">Task</text>
</g>
</g>
</svg>
