<?xml version="1.0" encoding="UTF-8" standalone="no"?>
<!DOCTYPE svg PUBLIC "-//W3C//DTD SVG 1.1//EN"
 "http://www.w3.org/Graphics/SVG/1.1/DTD/svg11.dtd">
<!-- Generated by graphviz version 2.50.0 (0)
 -->
<!-- Title: UnitSystem Pages: 1 -->
<svg width="142pt" height="183pt"
 viewBox="0.00 0.00 142.00 183.00" xmlns="http://www.w3.org/2000/svg" xmlns:xlink="http://www.w3.org/1999/xlink">
<g id="graph0" class="graph" transform="scale(1 1) rotate(0) translate(4 179)">
<title>UnitSystem</title>
<polygon fill="white" stroke="transparent" points="-4,4 -4,-179 138,-179 138,4 -4,4"/>
<!-- Node1 -->
<g id="node1" class="node">
<title>Node1</title>
<g id="a_node1"><a xlink:title=" ">
<polygon fill="#bfbfbf" stroke="black" points="0,-0.5 0,-19.5 74,-19.5 74,-0.5 0,-0.5"/>
<text text-anchor="middle" x="37" y="-7.5" font-family="Helvetica,sans-Serif" font-size="10.00">UnitSystem</text>
</a>
</g>
</g>
<!-- Node2 -->
<g id="node2" class="node">
<title>Node2</title>
<g id="a_node2"><a xlink:title=" ">
<polygon fill="white" stroke="#bfbfbf" points="12,-155.5 12,-174.5 62,-174.5 62,-155.5 12,-155.5"/>
<text text-anchor="middle" x="37" y="-162.5" font-family="Helvetica,sans-Serif" font-size="10.00">double</text>
</a>
</g>
</g>
<!-- Node2&#45;&gt;Node1 -->
<g id="edge1" class="edge">
<title>Node2&#45;&gt;Node1</title>
<path fill="none" stroke="#9a32cd" stroke-dasharray="5,2" d="M37,-145.11C37,-111.72 37,-43.54 37,-19.57"/>
<polygon fill="#9a32cd" stroke="#9a32cd" points="33.5,-145.34 37,-155.34 40.5,-145.34 33.5,-145.34"/>
<text text-anchor="middle" x="85.5" y="-129" font-family="Helvetica,sans-Serif" font-size="10.00"> UnitDensity_in_cgs</text>
<text text-anchor="middle" x="85.5" y="-118" font-family="Helvetica,sans-Serif" font-size="10.00">UnitEnergy_in_cgs</text>
<text text-anchor="start" x="37" y="-107" font-family="Helvetica,sans-Serif" font-size="10.00">UnitInternalEnergy</text>
<text text-anchor="middle" x="85.5" y="-96" font-family="Helvetica,sans-Serif" font-size="10.00">_in_cgs</text>
<text text-anchor="middle" x="85.5" y="-85" font-family="Helvetica,sans-Serif" font-size="10.00">UnitLength_in_cm</text>
<text text-anchor="middle" x="85.5" y="-74" font-family="Helvetica,sans-Serif" font-size="10.00">UnitMass_in_g</text>
<text text-anchor="middle" x="85.5" y="-63" font-family="Helvetica,sans-Serif" font-size="10.00">UnitTime_in_s</text>
<text text-anchor="start" x="37" y="-52" font-family="Helvetica,sans-Serif" font-size="10.00">UnitVelocity_in_cm</text>
<text text-anchor="middle" x="85.5" y="-41" font-family="Helvetica,sans-Serif" font-size="10.00">_per_s</text>
</g>
</g>
</svg>
