<?xml version="1.0" encoding="UTF-8" standalone="no"?>
<!DOCTYPE svg PUBLIC "-//W3C//DTD SVG 1.1//EN"
 "http://www.w3.org/Graphics/SVG/1.1/DTD/svg11.dtd">
<!-- Generated by graphviz version 2.50.0 (0)
 -->
<!-- Title: IDGenerator Pages: 1 -->
<svg width="134pt" height="128pt"
 viewBox="0.00 0.00 134.00 128.00" xmlns="http://www.w3.org/2000/svg" xmlns:xlink="http://www.w3.org/1999/xlink">
<g id="graph0" class="graph" transform="scale(1 1) rotate(0) translate(4 124)">
<title>IDGenerator</title>
<polygon fill="white" stroke="transparent" points="-4,4 -4,-124 130,-124 130,4 -4,4"/>
<!-- Node1 -->
<g id="node1" class="node">
<title>Node1</title>
<g id="a_node1"><a xlink:title=" ">
<polygon fill="#bfbfbf" stroke="black" points="20,-0.5 20,-19.5 96,-19.5 96,-0.5 20,-0.5"/>
<text text-anchor="middle" x="58" y="-7.5" font-family="Helvetica,sans-Serif" font-size="10.00">IDGenerator</text>
</a>
</g>
</g>
<!-- Node2 -->
<g id="node2" class="node">
<title>Node2</title>
<g id="a_node2"><a xlink:title=" ">
<polygon fill="white" stroke="#bfbfbf" points="0,-100.5 0,-119.5 50,-119.5 50,-100.5 0,-100.5"/>
<text text-anchor="middle" x="25" y="-107.5" font-family="Helvetica,sans-Serif" font-size="10.00">double</text>
</a>
</g>
</g>
<!-- Node2&#45;&gt;Node1 -->
<g id="edge1" class="edge">
<title>Node2&#45;&gt;Node1</title>
<path fill="none" stroke="#9a32cd" stroke-dasharray="5,2" d="M21.16,-90.14C19.07,-75.25 18.27,-54.34 26,-38 29.61,-30.38 36.52,-24.12 42.99,-19.55"/>
<polygon fill="#9a32cd" stroke="#9a32cd" points="17.74,-90.92 22.89,-100.18 24.64,-89.73 17.74,-90.92"/>
<text text-anchor="middle" x="47.5" y="-57.5" font-family="Helvetica,sans-Serif" font-size="10.00"> BoxSize</text>
</g>
<!-- Node3 -->
<g id="node3" class="node">
<title>Node3</title>
<g id="a_node3"><a xlink:title=" ">
<polygon fill="white" stroke="#bfbfbf" points="76.5,-100.5 76.5,-119.5 105.5,-119.5 105.5,-100.5 76.5,-100.5"/>
<text text-anchor="middle" x="91" y="-107.5" font-family="Helvetica,sans-Serif" font-size="10.00">int</text>
</a>
</g>
</g>
<!-- Node3&#45;&gt;Node1 -->
<g id="edge2" class="edge">
<title>Node3&#45;&gt;Node1</title>
<path fill="none" stroke="#9a32cd" stroke-dasharray="5,2" d="M85.74,-90.48C81.53,-76.06 75.31,-55.62 69,-38 66.82,-31.9 64.07,-25.15 61.86,-19.93"/>
<polygon fill="#9a32cd" stroke="#9a32cd" points="82.4,-91.54 88.53,-100.18 89.13,-89.6 82.4,-91.54"/>
<text text-anchor="middle" x="104.5" y="-74" font-family="Helvetica,sans-Serif" font-size="10.00"> Ngrid</text>
<text text-anchor="middle" x="104.5" y="-63" font-family="Helvetica,sans-Serif" font-size="10.00">NumPart</text>
<text text-anchor="middle" x="104.5" y="-52" font-family="Helvetica,sans-Serif" font-size="10.00">offset</text>
<text text-anchor="middle" x="104.5" y="-41" font-family="Helvetica,sans-Serif" font-size="10.00">size</text>
</g>
</g>
</svg>
