<?xml version="1.0" encoding="UTF-8" standalone="no"?>
<!DOCTYPE svg PUBLIC "-//W3C//DTD SVG 1.1//EN"
 "http://www.w3.org/Graphics/SVG/1.1/DTD/svg11.dtd">
<!-- Generated by graphviz version 2.38.0 (20140413.2041)
 -->
<!-- Title: star_particle_data Pages: 1 -->
<svg width="277pt" height="232pt"
 viewBox="0.00 0.00 277.15 231.65" xmlns="http://www.w3.org/2000/svg" xmlns:xlink="http://www.w3.org/1999/xlink">
<g id="graph0" class="graph" transform="scale(1 1) rotate(0) translate(4 227.647)">
<title>star_particle_data</title>
<polygon fill="white" stroke="none" points="-4,4 -4,-227.647 273.147,-227.647 273.147,4 -4,4"/>
<!-- Node1 -->
<g id="node1" class="node"><title>Node1</title>
<polygon fill="#bfbfbf" stroke="black" points="94.8234,-102.323 94.8234,-121.323 188.823,-121.323 188.823,-102.323 94.8234,-102.323"/>
<text text-anchor="middle" x="141.823" y="-109.323" font-family="Helvetica,sans-Serif" font-size="10.00">star_particle_data</text>
</g>
<!-- Node2 -->
<g id="node2" class="node"><title>Node2</title>
<g id="a_node2"><a xlink:href="structparticle__data__ext.html" target="_top" xlink:title="particle_data_ext">
<polygon fill="white" stroke="black" points="45.4117,-153.235 45.4117,-172.235 136.412,-172.235 136.412,-153.235 45.4117,-153.235"/>
<text text-anchor="middle" x="90.9117" y="-160.235" font-family="Helvetica,sans-Serif" font-size="10.00">particle_data_ext</text>
</a>
</g>
</g>
<!-- Node2&#45;&gt;Node1 -->
<g id="edge1" class="edge"><title>Node2&#45;&gt;Node1</title>
<path fill="none" stroke="#9a32cd" stroke-dasharray="5,2" d="M108.157,-145.49C116.12,-137.527 125.283,-128.364 132.037,-121.61"/>
<polygon fill="#9a32cd" stroke="#9a32cd" points="105.324,-143.373 100.728,-152.919 110.274,-148.323 105.324,-143.373"/>
<text text-anchor="middle" x="107.597" y="-136.55" font-family="Helvetica,sans-Serif" font-size="10.00"> base</text>
</g>
<!-- Node3 -->
<g id="node3" class="node"><title>Node3</title>
<polygon fill="white" stroke="#bfbfbf" points="218.147,-204.147 218.147,-223.147 269.147,-223.147 269.147,-204.147 218.147,-204.147"/>
<text text-anchor="middle" x="243.647" y="-211.147" font-family="Helvetica,sans-Serif" font-size="10.00">uint64_t</text>
</g>
<!-- Node3&#45;&gt;Node2 -->
<g id="edge2" class="edge"><title>Node3&#45;&gt;Node2</title>
<path fill="none" stroke="#9a32cd" stroke-dasharray="5,2" d="M208.254,-201.849C181.254,-192.849 144.547,-180.613 119.42,-172.238"/>
<polygon fill="#9a32cd" stroke="#9a32cd" points="207.489,-205.283 218.082,-205.125 209.702,-198.643 207.489,-205.283"/>
<text text-anchor="middle" x="156.837" y="-190.043" font-family="Helvetica,sans-Serif" font-size="10.00"> ID</text>
</g>
<!-- Node4 -->
<g id="node4" class="node"><title>Node4</title>
<polygon fill="white" stroke="#bfbfbf" points="25.5,-204.147 25.5,-223.147 54.5,-223.147 54.5,-204.147 25.5,-204.147"/>
<text text-anchor="middle" x="40" y="-211.147" font-family="Helvetica,sans-Serif" font-size="10.00">int</text>
</g>
<!-- Node4&#45;&gt;Node2 -->
<g id="edge3" class="edge"><title>Node4&#45;&gt;Node2</title>
<path fill="none" stroke="#9a32cd" stroke-dasharray="5,2" d="M57.2453,-196.402C65.208,-188.439 74.3712,-179.276 81.1255,-172.521"/>
<polygon fill="#9a32cd" stroke="#9a32cd" points="54.4125,-194.284 49.8163,-203.83 59.3623,-199.234 54.4125,-194.284"/>
<text text-anchor="middle" x="96.6854" y="-198.461" font-family="Helvetica,sans-Serif" font-size="10.00"> IsGarbage</text>
<text text-anchor="middle" x="96.6854" y="-187.461" font-family="Helvetica,sans-Serif" font-size="10.00">ReverseLink</text>
</g>
<!-- Node5 -->
<g id="node5" class="node"><title>Node5</title>
<polygon fill="white" stroke="#bfbfbf" points="0,-0.5 0,-19.5 80,-19.5 80,-0.5 0,-0.5"/>
<text text-anchor="middle" x="40" y="-7.5" font-family="Helvetica,sans-Serif" font-size="10.00">anonymous:gc</text>
</g>
<!-- Node5&#45;&gt;Node2 -->
<g id="edge4" class="edge"><title>Node5&#45;&gt;Node2</title>
<path fill="none" stroke="#9a32cd" stroke-dasharray="5,2" d="M46.4643,-29.3929C57.4851,-62.4552 79.515,-128.545 87.7281,-153.184"/>
<polygon fill="#9a32cd" stroke="#9a32cd" points="49.6675,-27.9343 43.1848,-19.5543 43.0267,-30.1479 49.6675,-27.9343"/>
<text text-anchor="middle" x="60.0962" y="-94.2887" font-family="Helvetica,sans-Serif" font-size="10.00"> gc</text>
</g>
<!-- Node6 -->
<g id="node6" class="node"><title>Node6</title>
<polygon fill="white" stroke="#bfbfbf" points="142.235,-51.4117 142.235,-70.4117 243.235,-70.4117 243.235,-51.4117 142.235,-51.4117"/>
<text text-anchor="middle" x="192.735" y="-58.4117" font-family="Helvetica,sans-Serif" font-size="10.00">LOW_PRECISION</text>
</g>
<!-- Node6&#45;&gt;Node1 -->
<g id="edge5" class="edge"><title>Node6&#45;&gt;Node1</title>
<path fill="none" stroke="#9a32cd" stroke-dasharray="5,2" d="M175.49,-78.1569C167.527,-86.1197 158.364,-95.2829 151.61,-102.037"/>
<polygon fill="#9a32cd" stroke="#9a32cd" points="178.323,-80.274 182.919,-70.728 173.373,-75.3242 178.323,-80.274"/>
<text text-anchor="middle" x="129.05" y="-82.0971" font-family="Helvetica,sans-Serif" font-size="10.00"> FormationTime</text>
<text text-anchor="middle" x="129.05" y="-71.0971" font-family="Helvetica,sans-Serif" font-size="10.00">Metallicity</text>
<text text-anchor="middle" x="129.05" y="-60.0971" font-family="Helvetica,sans-Serif" font-size="10.00">BirthDensity</text>
</g>
</g>
</svg>
