<?xml version="1.0" encoding="UTF-8" standalone="no"?>
<!DOCTYPE svg PUBLIC "-//W3C//DTD SVG 1.1//EN"
 "http://www.w3.org/Graphics/SVG/1.1/DTD/svg11.dtd">
<!-- Generated by graphviz version 2.50.0 (0)
 -->
<!-- Title: TreeWalkResultMetals Pages: 1 -->
<svg width="240pt" height="95pt"
 viewBox="0.00 0.00 239.50 95.00" xmlns="http://www.w3.org/2000/svg" xmlns:xlink="http://www.w3.org/1999/xlink">
<g id="graph0" class="graph" transform="scale(1 1) rotate(0) translate(4 91)">
<title>TreeWalkResultMetals</title>
<polygon fill="white" stroke="transparent" points="-4,4 -4,-91 235.5,-91 235.5,4 -4,4"/>
<!-- Node1 -->
<g id="node1" class="node">
<title>Node1</title>
<g id="a_node1"><a xlink:title=" ">
<polygon fill="#bfbfbf" stroke="black" points="48,-0.5 48,-19.5 173,-19.5 173,-0.5 48,-0.5"/>
<text text-anchor="middle" x="110.5" y="-7.5" font-family="Helvetica,sans-Serif" font-size="10.00">TreeWalkResultMetals</text>
</a>
</g>
</g>
<!-- Node2 -->
<g id="node2" class="node">
<title>Node2</title>
<g id="a_node2"><a xlink:title=" ">
<polygon fill="white" stroke="#bfbfbf" points="0,-67.5 0,-86.5 97,-86.5 97,-67.5 0,-67.5"/>
<text text-anchor="middle" x="48.5" y="-74.5" font-family="Helvetica,sans-Serif" font-size="10.00">LOW_PRECISION</text>
</a>
</g>
</g>
<!-- Node2&#45;&gt;Node1 -->
<g id="edge1" class="edge">
<title>Node2&#45;&gt;Node1</title>
<path fill="none" stroke="#9a32cd" stroke-dasharray="5,2" d="M63.76,-60C75.92,-47.25 92.48,-29.89 102.27,-19.63"/>
<polygon fill="#9a32cd" stroke="#9a32cd" points="61.23,-57.58 56.86,-67.23 66.3,-62.41 61.23,-57.58"/>
<text text-anchor="middle" x="114" y="-41" font-family="Helvetica,sans-Serif" font-size="10.00"> MassReturn</text>
</g>
<!-- Node3 -->
<g id="node3" class="node">
<title>Node3</title>
<g id="a_node3"><a xlink:href="structTreeWalkResultBase.html" target="_top" xlink:title=" ">
<polygon fill="white" stroke="black" points="115.5,-67.5 115.5,-86.5 231.5,-86.5 231.5,-67.5 115.5,-67.5"/>
<text text-anchor="middle" x="173.5" y="-74.5" font-family="Helvetica,sans-Serif" font-size="10.00">TreeWalkResultBase</text>
</a>
</g>
</g>
<!-- Node3&#45;&gt;Node1 -->
<g id="edge2" class="edge">
<title>Node3&#45;&gt;Node1</title>
<path fill="none" stroke="#9a32cd" stroke-dasharray="5,2" d="M163.65,-58.13C159.48,-51.41 154.25,-43.96 148.5,-38 141.64,-30.89 132.69,-24.43 125.2,-19.61"/>
<polygon fill="#9a32cd" stroke="#9a32cd" points="160.88,-60.32 168.95,-67.19 166.93,-56.79 160.88,-60.32"/>
<text text-anchor="middle" x="170" y="-41" font-family="Helvetica,sans-Serif" font-size="10.00"> base</text>
</g>
</g>
</svg>
