<?xml version="1.0" encoding="UTF-8" standalone="no"?>
<!DOCTYPE svg PUBLIC "-//W3C//DTD SVG 1.1//EN"
 "http://www.w3.org/Graphics/SVG/1.1/DTD/svg11.dtd">
<!-- Generated by graphviz version 2.38.0 (20140413.2041)
 -->
<!-- Title: task_data Pages: 1 -->
<svg width="124pt" height="40pt"
 viewBox="0.00 0.00 124.00 40.00" xmlns="http://www.w3.org/2000/svg" xmlns:xlink="http://www.w3.org/1999/xlink">
<g id="graph0" class="graph" transform="scale(1 1) rotate(0) translate(4 36)">
<title>task_data</title>
<polygon fill="white" stroke="none" points="-4,4 -4,-36 120,-36 120,4 -4,4"/>
<!-- Node1 -->
<g id="node1" class="node"><title>Node1</title>
<polygon fill="#bfbfbf" stroke="black" points="57,-12.5 57,-31.5 116,-31.5 116,-12.5 57,-12.5"/>
<text text-anchor="middle" x="86.5" y="-19.5" font-family="Helvetica,sans-Serif" font-size="10.00">task_data</text>
</g>
<!-- Node2 -->
<g id="node2" class="node"><title>Node2</title>
<polygon fill="white" stroke="#bfbfbf" points="-3.55271e-15,-12.5 -3.55271e-15,-31.5 29,-31.5 29,-12.5 -3.55271e-15,-12.5"/>
<text text-anchor="middle" x="14.5" y="-19.5" font-family="Helvetica,sans-Serif" font-size="10.00">int</text>
</g>
<!-- Node2&#45;&gt;Node1 -->
<g id="edge1" class="edge"><title>Node2&#45;&gt;Node1</title>
<path fill="none" stroke="#9a32cd" stroke-dasharray="5,2" d="M39.2533,-22C44.8986,-22 50.9541,-22 56.7829,-22"/>
<polygon fill="#9a32cd" stroke="#9a32cd" points="39.0703,-18.5001 29.0703,-22 39.0702,-25.5001 39.0703,-18.5001"/>
<text text-anchor="middle" x="48.0181" y="-14" font-family="Helvetica,sans-Serif" font-size="10.00"> EndLeaf</text>
<text text-anchor="middle" x="48.0181" y="-3" font-family="Helvetica,sans-Serif" font-size="10.00">StartLeaf</text>
</g>
</g>
</svg>
