<?xml version="1.0" encoding="UTF-8" standalone="no"?>
<!DOCTYPE svg PUBLIC "-//W3C//DTD SVG 1.1//EN"
 "http://www.w3.org/Graphics/SVG/1.1/DTD/svg11.dtd">
<!-- Generated by graphviz version 2.50.0 (0)
 -->
<!-- Title: star_particle_data Pages: 1 -->
<svg width="298pt" height="206pt"
 viewBox="0.00 0.00 298.00 206.00" xmlns="http://www.w3.org/2000/svg" xmlns:xlink="http://www.w3.org/1999/xlink">
<g id="graph0" class="graph" transform="scale(1 1) rotate(0) translate(4 202)">
<title>star_particle_data</title>
<polygon fill="white" stroke="transparent" points="-4,4 -4,-202 294,-202 294,4 -4,4"/>
<!-- Node1 -->
<g id="node1" class="node">
<title>Node1</title>
<g id="a_node1"><a xlink:title=" ">
<polygon fill="#bfbfbf" stroke="black" points="55,-0.5 55,-19.5 159,-19.5 159,-0.5 55,-0.5"/>
<text text-anchor="middle" x="107" y="-7.5" font-family="Helvetica,sans-Serif" font-size="10.00">star_particle_data</text>
</a>
</g>
</g>
<!-- Node2 -->
<g id="node2" class="node">
<title>Node2</title>
<g id="a_node2"><a xlink:title=" ">
<polygon fill="white" stroke="#bfbfbf" points="0,-111.5 0,-130.5 38,-130.5 38,-111.5 0,-111.5"/>
<text text-anchor="middle" x="19" y="-118.5" font-family="Helvetica,sans-Serif" font-size="10.00">float</text>
</a>
</g>
</g>
<!-- Node2&#45;&gt;Node1 -->
<g id="edge1" class="edge">
<title>Node2&#45;&gt;Node1</title>
<path fill="none" stroke="#9a32cd" stroke-dasharray="5,2" d="M26.43,-101.79C34.33,-84.04 48.13,-57.01 66,-38 72.89,-30.67 82.14,-24.36 90.11,-19.69"/>
<polygon fill="#9a32cd" stroke="#9a32cd" points="23,-100.92 22.3,-111.49 29.44,-103.67 23,-100.92"/>
<text text-anchor="middle" x="84.5" y="-63" font-family="Helvetica,sans-Serif" font-size="10.00"> Metals</text>
</g>
<!-- Node3 -->
<g id="node3" class="node">
<title>Node3</title>
<g id="a_node3"><a xlink:href="structparticle__data__ext.html" target="_top" xlink:title=" ">
<polygon fill="white" stroke="black" points="56.5,-111.5 56.5,-130.5 157.5,-130.5 157.5,-111.5 56.5,-111.5"/>
<text text-anchor="middle" x="107" y="-118.5" font-family="Helvetica,sans-Serif" font-size="10.00">particle_data_ext</text>
</a>
</g>
</g>
<!-- Node3&#45;&gt;Node1 -->
<g id="edge2" class="edge">
<title>Node3&#45;&gt;Node1</title>
<path fill="none" stroke="#9a32cd" stroke-dasharray="5,2" d="M107,-101.19C107,-77.28 107,-36.99 107,-19.51"/>
<polygon fill="#9a32cd" stroke="#9a32cd" points="103.5,-101.45 107,-111.45 110.5,-101.45 103.5,-101.45"/>
<text text-anchor="middle" x="120.5" y="-63" font-family="Helvetica,sans-Serif" font-size="10.00"> base</text>
</g>
<!-- Node4 -->
<g id="node4" class="node">
<title>Node4</title>
<g id="a_node4"><a xlink:title=" ">
<polygon fill="white" stroke="#bfbfbf" points="48,-178.5 48,-197.5 104,-197.5 104,-178.5 48,-178.5"/>
<text text-anchor="middle" x="76" y="-185.5" font-family="Helvetica,sans-Serif" font-size="10.00">uint64_t</text>
</a>
</g>
</g>
<!-- Node4&#45;&gt;Node3 -->
<g id="edge3" class="edge">
<title>Node4&#45;&gt;Node3</title>
<path fill="none" stroke="#9a32cd" stroke-dasharray="5,2" d="M84.51,-169.16C90.49,-156.63 98.22,-140.41 102.89,-130.63"/>
<polygon fill="#9a32cd" stroke="#9a32cd" points="81.33,-167.7 80.18,-178.23 87.64,-170.71 81.33,-167.7"/>
<text text-anchor="middle" x="101" y="-152" font-family="Helvetica,sans-Serif" font-size="10.00"> ID</text>
</g>
<!-- Node5 -->
<g id="node5" class="node">
<title>Node5</title>
<g id="a_node5"><a xlink:title=" ">
<polygon fill="white" stroke="#bfbfbf" points="122.5,-178.5 122.5,-197.5 151.5,-197.5 151.5,-178.5 122.5,-178.5"/>
<text text-anchor="middle" x="137" y="-185.5" font-family="Helvetica,sans-Serif" font-size="10.00">int</text>
</a>
</g>
</g>
<!-- Node5&#45;&gt;Node3 -->
<g id="edge4" class="edge">
<title>Node5&#45;&gt;Node3</title>
<path fill="none" stroke="#9a32cd" stroke-dasharray="5,2" d="M128.6,-168.79C122.83,-156.31 115.45,-140.31 110.98,-130.63"/>
<polygon fill="#9a32cd" stroke="#9a32cd" points="125.59,-170.62 132.95,-178.23 131.94,-167.69 125.59,-170.62"/>
<text text-anchor="middle" x="155" y="-152" font-family="Helvetica,sans-Serif" font-size="10.00"> ReverseLink</text>
</g>
<!-- Node6 -->
<g id="node6" class="node">
<title>Node6</title>
<g id="a_node6"><a xlink:title=" ">
<polygon fill="white" stroke="#bfbfbf" points="175.5,-111.5 175.5,-130.5 272.5,-130.5 272.5,-111.5 175.5,-111.5"/>
<text text-anchor="middle" x="224" y="-118.5" font-family="Helvetica,sans-Serif" font-size="10.00">LOW_PRECISION</text>
</a>
</g>
</g>
<!-- Node6&#45;&gt;Node1 -->
<g id="edge5" class="edge">
<title>Node6&#45;&gt;Node1</title>
<path fill="none" stroke="#9a32cd" stroke-dasharray="5,2" d="M207.58,-103.92C190.43,-87.22 162.63,-60.45 138,-38 131.14,-31.75 123.26,-24.89 117.15,-19.64"/>
<polygon fill="#9a32cd" stroke="#9a32cd" points="205.49,-106.77 215.09,-111.25 210.38,-101.76 205.49,-106.77"/>
<text text-anchor="middle" x="242.5" y="-85" font-family="Helvetica,sans-Serif" font-size="10.00"> BirthDensity</text>
<text text-anchor="middle" x="242.5" y="-74" font-family="Helvetica,sans-Serif" font-size="10.00">FormationTime</text>
<text text-anchor="middle" x="242.5" y="-63" font-family="Helvetica,sans-Serif" font-size="10.00">LastEnrichmentMyr</text>
<text text-anchor="middle" x="242.5" y="-52" font-family="Helvetica,sans-Serif" font-size="10.00">Metallicity</text>
<text text-anchor="middle" x="242.5" y="-41" font-family="Helvetica,sans-Serif" font-size="10.00">TotalMassReturned</text>
</g>
</g>
</svg>
