<?xml version="1.0" encoding="UTF-8" standalone="no"?>
<!DOCTYPE svg PUBLIC "-//W3C//DTD SVG 1.1//EN"
 "http://www.w3.org/Graphics/SVG/1.1/DTD/svg11.dtd">
<!-- Generated by graphviz version 2.50.0 (0)
 -->
<!-- Title: TIMERS Pages: 1 -->
<svg width="132pt" height="173pt"
 viewBox="0.00 0.00 131.50 173.00" xmlns="http://www.w3.org/2000/svg" xmlns:xlink="http://www.w3.org/1999/xlink">
<g id="graph0" class="graph" transform="scale(1 1) rotate(0) translate(4 169)">
<title>TIMERS</title>
<polygon fill="white" stroke="transparent" points="-4,4 -4,-169 127.5,-169 127.5,4 -4,4"/>
<!-- Node1 -->
<g id="node1" class="node">
<title>Node1</title>
<g id="a_node1"><a xlink:title=" ">
<polygon fill="#bfbfbf" stroke="black" points="17,-0.5 17,-19.5 70,-19.5 70,-0.5 17,-0.5"/>
<text text-anchor="middle" x="43.5" y="-7.5" font-family="Helvetica,sans-Serif" font-size="10.00">TIMERS</text>
</a>
</g>
</g>
<!-- Node2 -->
<g id="node2" class="node">
<title>Node2</title>
<g id="a_node2"><a xlink:title=" ">
<polygon fill="white" stroke="#bfbfbf" points="0,-78.5 0,-97.5 29,-97.5 29,-78.5 0,-78.5"/>
<text text-anchor="middle" x="14.5" y="-85.5" font-family="Helvetica,sans-Serif" font-size="10.00">int</text>
</a>
</g>
</g>
<!-- Node2&#45;&gt;Node1 -->
<g id="edge1" class="edge">
<title>Node2&#45;&gt;Node1</title>
<path fill="none" stroke="#9a32cd" stroke-dasharray="5,2" d="M11.6,-68.3C10.93,-58.85 11.39,-47.41 15.5,-38 18.69,-30.7 24.89,-24.39 30.64,-19.71"/>
<polygon fill="#9a32cd" stroke="#9a32cd" points="8.12,-68.72 12.74,-78.25 15.08,-67.92 8.12,-68.72"/>
<text text-anchor="middle" x="33.5" y="-52" font-family="Helvetica,sans-Serif" font-size="10.00"> curtmr</text>
<text text-anchor="middle" x="33.5" y="-41" font-family="Helvetica,sans-Serif" font-size="10.00">ntimer</text>
</g>
<!-- Node3 -->
<g id="node3" class="node">
<title>Node3</title>
<g id="a_node3"><a xlink:href="structTIMER.html" target="_top" xlink:title=" ">
<polygon fill="white" stroke="black" points="50,-78.5 50,-97.5 97,-97.5 97,-78.5 50,-78.5"/>
<text text-anchor="middle" x="73.5" y="-85.5" font-family="Helvetica,sans-Serif" font-size="10.00">TIMER</text>
</a>
</g>
</g>
<!-- Node3&#45;&gt;Node1 -->
<g id="edge2" class="edge">
<title>Node3&#45;&gt;Node1</title>
<path fill="none" stroke="#9a32cd" stroke-dasharray="5,2" d="M66.27,-68.67C60.12,-53.11 51.58,-31.47 46.9,-19.62"/>
<polygon fill="#9a32cd" stroke="#9a32cd" points="63.13,-70.27 70.06,-78.28 69.64,-67.7 63.13,-70.27"/>
<text text-anchor="middle" x="72" y="-46.5" font-family="Helvetica,sans-Serif" font-size="10.00"> tmr</text>
</g>
<!-- Node4 -->
<g id="node4" class="node">
<title>Node4</title>
<g id="a_node4"><a xlink:title=" ">
<polygon fill="white" stroke="#bfbfbf" points="17.5,-145.5 17.5,-164.5 67.5,-164.5 67.5,-145.5 17.5,-145.5"/>
<text text-anchor="middle" x="42.5" y="-152.5" font-family="Helvetica,sans-Serif" font-size="10.00">double</text>
</a>
</g>
</g>
<!-- Node4&#45;&gt;Node3 -->
<g id="edge3" class="edge">
<title>Node4&#45;&gt;Node3</title>
<path fill="none" stroke="#9a32cd" stroke-dasharray="5,2" d="M48.39,-135.63C50.65,-129.29 53.44,-122.22 56.5,-116 59.63,-109.64 63.88,-102.89 67.35,-97.73"/>
<polygon fill="#9a32cd" stroke="#9a32cd" points="45,-134.74 45.12,-145.34 51.63,-136.98 45,-134.74"/>
<text text-anchor="middle" x="69.5" y="-119" font-family="Helvetica,sans-Serif" font-size="10.00"> time</text>
</g>
<!-- Node5 -->
<g id="node5" class="node">
<title>Node5</title>
<g id="a_node5"><a xlink:title=" ">
<polygon fill="white" stroke="#bfbfbf" points="85.5,-145.5 85.5,-164.5 123.5,-164.5 123.5,-145.5 85.5,-145.5"/>
<text text-anchor="middle" x="104.5" y="-152.5" font-family="Helvetica,sans-Serif" font-size="10.00">char</text>
</a>
</g>
</g>
<!-- Node5&#45;&gt;Node3 -->
<g id="edge4" class="edge">
<title>Node5&#45;&gt;Node3</title>
<path fill="none" stroke="#9a32cd" stroke-dasharray="5,2" d="M95.99,-136.16C90.01,-123.63 82.28,-107.41 77.61,-97.63"/>
<polygon fill="#9a32cd" stroke="#9a32cd" points="92.86,-137.71 100.32,-145.23 99.17,-134.7 92.86,-137.71"/>
<text text-anchor="middle" x="106" y="-119" font-family="Helvetica,sans-Serif" font-size="10.00"> name</text>
</g>
</g>
</svg>
