<?xml version="1.0" encoding="UTF-8" standalone="no"?>
<!DOCTYPE svg PUBLIC "-//W3C//DTD SVG 1.1//EN"
 "http://www.w3.org/Graphics/SVG/1.1/DTD/svg11.dtd">
<!-- Generated by graphviz version 2.50.0 (0)
 -->
<!-- Title: FOFParams Pages: 1 -->
<svg width="334pt" height="128pt"
 viewBox="0.00 0.00 334.00 128.00" xmlns="http://www.w3.org/2000/svg" xmlns:xlink="http://www.w3.org/1999/xlink">
<g id="graph0" class="graph" transform="scale(1 1) rotate(0) translate(4 124)">
<title>FOFParams</title>
<polygon fill="white" stroke="transparent" points="-4,4 -4,-124 330,-124 330,4 -4,4"/>
<!-- Node1 -->
<g id="node1" class="node">
<title>Node1</title>
<g id="a_node1"><a xlink:title=" ">
<polygon fill="#bfbfbf" stroke="black" points="82,-0.5 82,-19.5 154,-19.5 154,-0.5 82,-0.5"/>
<text text-anchor="middle" x="118" y="-7.5" font-family="Helvetica,sans-Serif" font-size="10.00">FOFParams</text>
</a>
</g>
</g>
<!-- Node2 -->
<g id="node2" class="node">
<title>Node2</title>
<g id="a_node2"><a xlink:title=" ">
<polygon fill="white" stroke="#bfbfbf" points="0,-100.5 0,-119.5 50,-119.5 50,-100.5 0,-100.5"/>
<text text-anchor="middle" x="25" y="-107.5" font-family="Helvetica,sans-Serif" font-size="10.00">double</text>
</a>
</g>
</g>
<!-- Node2&#45;&gt;Node1 -->
<g id="edge1" class="edge">
<title>Node2&#45;&gt;Node1</title>
<path fill="none" stroke="#9a32cd" stroke-dasharray="5,2" d="M19.6,-90.03C16.39,-74.47 14.84,-52.69 26,-38 38.89,-21.03 61.89,-14.28 81.67,-11.78"/>
<polygon fill="#9a32cd" stroke="#9a32cd" points="16.28,-91.2 22.07,-100.07 23.08,-89.53 16.28,-91.2"/>
<text text-anchor="middle" x="107.5" y="-74" font-family="Helvetica,sans-Serif" font-size="10.00"> FOFHaloComovingLinkingLength</text>
<text text-anchor="middle" x="107.5" y="-63" font-family="Helvetica,sans-Serif" font-size="10.00">FOFHaloLinkingLength</text>
<text text-anchor="middle" x="107.5" y="-52" font-family="Helvetica,sans-Serif" font-size="10.00">MinFoFMassForNewSeed</text>
<text text-anchor="middle" x="107.5" y="-41" font-family="Helvetica,sans-Serif" font-size="10.00">MinMStarForNewSeed</text>
</g>
<!-- Node3 -->
<g id="node3" class="node">
<title>Node3</title>
<g id="a_node3"><a xlink:title=" ">
<polygon fill="white" stroke="#bfbfbf" points="196.5,-100.5 196.5,-119.5 225.5,-119.5 225.5,-100.5 196.5,-100.5"/>
<text text-anchor="middle" x="211" y="-107.5" font-family="Helvetica,sans-Serif" font-size="10.00">int</text>
</a>
</g>
</g>
<!-- Node3&#45;&gt;Node1 -->
<g id="edge2" class="edge">
<title>Node3&#45;&gt;Node1</title>
<path fill="none" stroke="#9a32cd" stroke-dasharray="5,2" d="M209.68,-90.22C207.62,-74.44 202.36,-52.23 189,-38 179.79,-28.19 166.65,-21.92 154.17,-17.91"/>
<polygon fill="#9a32cd" stroke="#9a32cd" points="206.21,-90.77 210.68,-100.38 213.18,-90.08 206.21,-90.77"/>
<text text-anchor="middle" x="267" y="-74" font-family="Helvetica,sans-Serif" font-size="10.00"> FOFHaloMinLength</text>
<text text-anchor="middle" x="267" y="-63" font-family="Helvetica,sans-Serif" font-size="10.00">FOFPrimaryLinkTypes</text>
<text text-anchor="middle" x="267" y="-52" font-family="Helvetica,sans-Serif" font-size="10.00">FOFSaveParticles</text>
<text text-anchor="middle" x="267" y="-41" font-family="Helvetica,sans-Serif" font-size="10.00">FOFSecondaryLinkTypes</text>
</g>
</g>
</svg>
