<?xml version="1.0" encoding="UTF-8" standalone="no"?>
<!DOCTYPE svg PUBLIC "-//W3C//DTD SVG 1.1//EN"
 "http://www.w3.org/Graphics/SVG/1.1/DTD/svg11.dtd">
<!-- Generated by graphviz version 2.38.0 (20140413.2041)
 -->
<!-- Title: local_topnode_data Pages: 1 -->
<svg width="238pt" height="140pt"
 viewBox="0.00 0.00 238.00 140.00" xmlns="http://www.w3.org/2000/svg" xmlns:xlink="http://www.w3.org/1999/xlink">
<g id="graph0" class="graph" transform="scale(1 1) rotate(0) translate(4 136)">
<title>local_topnode_data</title>
<polygon fill="white" stroke="none" points="-4,4 -4,-136 234,-136 234,4 -4,4"/>
<!-- Node1 -->
<g id="node1" class="node"><title>Node1</title>
<polygon fill="#bfbfbf" stroke="black" points="129,-67.5 129,-86.5 230,-86.5 230,-67.5 129,-67.5"/>
<text text-anchor="middle" x="179.5" y="-74.5" font-family="Helvetica,sans-Serif" font-size="10.00">local_topnode_data</text>
</g>
<!-- Node2 -->
<g id="node2" class="node"><title>Node2</title>
<polygon fill="white" stroke="#bfbfbf" points="0,-112.5 0,-131.5 51,-131.5 51,-112.5 0,-112.5"/>
<text text-anchor="middle" x="25.5" y="-119.5" font-family="Helvetica,sans-Serif" font-size="10.00">uint64_t</text>
</g>
<!-- Node2&#45;&gt;Node1 -->
<g id="edge1" class="edge"><title>Node2&#45;&gt;Node1</title>
<path fill="none" stroke="#9a32cd" stroke-dasharray="5,2" d="M61.1433,-113.594C76.491,-109.712 94.7201,-104.886 111,-100 124.637,-95.9076 139.643,-90.8506 152.036,-86.5215"/>
<polygon fill="#9a32cd" stroke="#9a32cd" points="59.8906,-110.299 51.0376,-116.119 61.5879,-117.09 59.8906,-110.299"/>
<text text-anchor="middle" x="90" y="-114" font-family="Helvetica,sans-Serif" font-size="10.00"> StartKey</text>
</g>
<!-- Node3 -->
<g id="node3" class="node"><title>Node3</title>
<polygon fill="white" stroke="#bfbfbf" points="2.5,-67.5 2.5,-86.5 48.5,-86.5 48.5,-67.5 2.5,-67.5"/>
<text text-anchor="middle" x="25.5" y="-74.5" font-family="Helvetica,sans-Serif" font-size="10.00">int64_t</text>
</g>
<!-- Node3&#45;&gt;Node1 -->
<g id="edge2" class="edge"><title>Node3&#45;&gt;Node1</title>
<path fill="none" stroke="#9a32cd" stroke-dasharray="5,2" d="M58.6036,-77C78.9437,-77 105.667,-77 128.721,-77"/>
<polygon fill="#9a32cd" stroke="#9a32cd" points="58.6021,-73.5001 48.6021,-77 58.6021,-80.5001 58.6021,-73.5001"/>
<text text-anchor="middle" x="90" y="-91" font-family="Helvetica,sans-Serif" font-size="10.00"> Cost</text>
<text text-anchor="middle" x="90" y="-80" font-family="Helvetica,sans-Serif" font-size="10.00">Count</text>
</g>
<!-- Node4 -->
<g id="node4" class="node"><title>Node4</title>
<polygon fill="white" stroke="#bfbfbf" points="11,-0.5 11,-19.5 40,-19.5 40,-0.5 11,-0.5"/>
<text text-anchor="middle" x="25.5" y="-7.5" font-family="Helvetica,sans-Serif" font-size="10.00">int</text>
</g>
<!-- Node4&#45;&gt;Node1 -->
<g id="edge3" class="edge"><title>Node4&#45;&gt;Node1</title>
<path fill="none" stroke="#9a32cd" stroke-dasharray="5,2" d="M50.5796,-12.8228C67.9394,-15.4685 91.6255,-20.3558 111,-29 133.062,-38.8431 155.237,-56.439 167.876,-67.3731"/>
<polygon fill="#9a32cd" stroke="#9a32cd" points="50.5786,-9.28959 40.1942,-11.3908 49.6224,-16.224 50.5786,-9.28959"/>
<text text-anchor="middle" x="90" y="-65" font-family="Helvetica,sans-Serif" font-size="10.00"> PIndex</text>
<text text-anchor="middle" x="90" y="-54" font-family="Helvetica,sans-Serif" font-size="10.00">Daughter</text>
<text text-anchor="middle" x="90" y="-43" font-family="Helvetica,sans-Serif" font-size="10.00">Parent</text>
<text text-anchor="middle" x="90" y="-32" font-family="Helvetica,sans-Serif" font-size="10.00">Shift</text>
</g>
</g>
</svg>
