<?xml version="1.0" encoding="UTF-8" standalone="no"?>
<!DOCTYPE svg PUBLIC "-//W3C//DTD SVG 1.1//EN"
 "http://www.w3.org/Graphics/SVG/1.1/DTD/svg11.dtd">
<!-- Generated by graphviz version 2.38.0 (20140413.2041)
 -->
<!-- Title: EISlotsFork Pages: 1 -->
<svg width="286pt" height="74pt"
 viewBox="0.00 0.00 286.00 74.00" xmlns="http://www.w3.org/2000/svg" xmlns:xlink="http://www.w3.org/1999/xlink">
<g id="graph0" class="graph" transform="scale(1 1) rotate(0) translate(4 70)">
<title>EISlotsFork</title>
<polygon fill="white" stroke="none" points="-4,4 -4,-70 282,-70 282,4 -4,4"/>
<!-- Node1 -->
<g id="node1" class="node"><title>Node1</title>
<polygon fill="#bfbfbf" stroke="black" points="210,-33.5 210,-52.5 278,-52.5 278,-33.5 210,-33.5"/>
<text text-anchor="middle" x="244" y="-40.5" font-family="Helvetica,sans-Serif" font-size="10.00">EISlotsFork</text>
</g>
<!-- Node2 -->
<g id="node2" class="node"><title>Node2</title>
<g id="a_node2"><a xlink:href="structEIBase.html" target="_top" xlink:title="EIBase">
<polygon fill="white" stroke="black" points="100,-0.5 100,-19.5 149,-19.5 149,-0.5 100,-0.5"/>
<text text-anchor="middle" x="124.5" y="-7.5" font-family="Helvetica,sans-Serif" font-size="10.00">EIBase</text>
</a>
</g>
</g>
<!-- Node2&#45;&gt;Node1 -->
<g id="edge1" class="edge"><title>Node2&#45;&gt;Node1</title>
<path fill="none" stroke="#9a32cd" stroke-dasharray="5,2" d="M159.238,-19.4754C175.152,-23.9449 194.077,-29.2599 209.908,-33.7061"/>
<polygon fill="#9a32cd" stroke="#9a32cd" points="159.852,-16.0124 149.278,-16.678 157.959,-22.7516 159.852,-16.0124"/>
<text text-anchor="middle" x="179.5" y="-32" font-family="Helvetica,sans-Serif" font-size="10.00"> base</text>
</g>
<!-- Node3 -->
<g id="node3" class="node"><title>Node3</title>
<polygon fill="white" stroke="#bfbfbf" points="0,-28.5 0,-47.5 29,-47.5 29,-28.5 0,-28.5"/>
<text text-anchor="middle" x="14.5" y="-35.5" font-family="Helvetica,sans-Serif" font-size="10.00">int</text>
</g>
<!-- Node3&#45;&gt;Node1 -->
<g id="edge3" class="edge"><title>Node3&#45;&gt;Node1</title>
<path fill="none" stroke="#9a32cd" stroke-dasharray="5,2" d="M39.4256,-41.3457C41.9785,-41.6108 44.5401,-41.8381 47,-42 104.044,-45.7535 170.628,-45.0112 209.664,-44.0573"/>
<polygon fill="#9a32cd" stroke="#9a32cd" points="39.6133,-37.843 29.265,-40.1154 38.7717,-44.7922 39.6133,-37.843"/>
<text text-anchor="middle" x="124.5" y="-58" font-family="Helvetica,sans-Serif" font-size="10.00"> child</text>
<text text-anchor="middle" x="124.5" y="-47" font-family="Helvetica,sans-Serif" font-size="10.00">parent</text>
</g>
<!-- Node3&#45;&gt;Node2 -->
<g id="edge2" class="edge"><title>Node3&#45;&gt;Node2</title>
<path fill="none" stroke="#9a32cd" stroke-dasharray="5,2" d="M38.8786,-31.9389C56.8529,-27.2789 81.5883,-20.866 99.6736,-16.1772"/>
<polygon fill="#9a32cd" stroke="#9a32cd" points="37.9799,-28.5561 29.1783,-34.4538 39.7366,-35.3321 37.9799,-28.5561"/>
<text text-anchor="middle" x="64.5" y="-33" font-family="Helvetica,sans-Serif" font-size="10.00"> unused</text>
</g>
</g>
</svg>
