<?xml version="1.0" encoding="UTF-8" standalone="no"?>
<!DOCTYPE svg PUBLIC "-//W3C//DTD SVG 1.1//EN"
 "http://www.w3.org/Graphics/SVG/1.1/DTD/svg11.dtd">
<!-- Generated by graphviz version 2.50.0 (0)
 -->
<!-- Title: StellarDensityPriv Pages: 1 -->
<svg width="349pt" height="117pt"
 viewBox="0.00 0.00 349.00 117.00" xmlns="http://www.w3.org/2000/svg" xmlns:xlink="http://www.w3.org/1999/xlink">
<g id="graph0" class="graph" transform="scale(1 1) rotate(0) translate(4 113)">
<title>StellarDensityPriv</title>
<polygon fill="white" stroke="transparent" points="-4,4 -4,-113 345,-113 345,4 -4,4"/>
<!-- Node1 -->
<g id="node1" class="node">
<title>Node1</title>
<g id="a_node1"><a xlink:title=" ">
<polygon fill="#bfbfbf" stroke="black" points="103,-0.5 103,-19.5 207,-19.5 207,-0.5 103,-0.5"/>
<text text-anchor="middle" x="155" y="-7.5" font-family="Helvetica,sans-Serif" font-size="10.00">StellarDensityPriv</text>
</a>
</g>
</g>
<!-- Node2 -->
<g id="node2" class="node">
<title>Node2</title>
<g id="a_node2"><a xlink:title=" ">
<polygon fill="white" stroke="#bfbfbf" points="0,-89.5 0,-108.5 50,-108.5 50,-89.5 0,-89.5"/>
<text text-anchor="middle" x="25" y="-96.5" font-family="Helvetica,sans-Serif" font-size="10.00">double</text>
</a>
</g>
</g>
<!-- Node2&#45;&gt;Node1 -->
<g id="edge1" class="edge">
<title>Node2&#45;&gt;Node1</title>
<path fill="none" stroke="#9a32cd" stroke-dasharray="5,2" d="M23.41,-79.01C23.38,-65.83 25.68,-48.76 36,-38 45.42,-28.18 75.37,-21.41 102.86,-17.11"/>
<polygon fill="#9a32cd" stroke="#9a32cd" points="19.93,-79.52 23.88,-89.35 26.92,-79.2 19.93,-79.52"/>
<text text-anchor="middle" x="68.5" y="-52" font-family="Helvetica,sans-Serif" font-size="10.00"> DesNumNgb</text>
</g>
<!-- Node3 -->
<g id="node3" class="node">
<title>Node3</title>
<g id="a_node3"><a xlink:title=" ">
<polygon fill="white" stroke="#bfbfbf" points="93.5,-89.5 93.5,-108.5 122.5,-108.5 122.5,-89.5 93.5,-89.5"/>
<text text-anchor="middle" x="108" y="-96.5" font-family="Helvetica,sans-Serif" font-size="10.00">int</text>
</a>
</g>
</g>
<!-- Node3&#45;&gt;Node1 -->
<g id="edge2" class="edge">
<title>Node3&#45;&gt;Node1</title>
<path fill="none" stroke="#9a32cd" stroke-dasharray="5,2" d="M105.44,-78.92C104.72,-66.42 105.66,-50.21 113,-38 117.82,-29.98 126.05,-23.92 133.95,-19.59"/>
<polygon fill="#9a32cd" stroke="#9a32cd" points="101.98,-79.51 106.44,-89.13 108.95,-78.83 101.98,-79.51"/>
<text text-anchor="middle" x="141" y="-52" font-family="Helvetica,sans-Serif" font-size="10.00"> maxcmpte</text>
</g>
<!-- Node4 -->
<g id="node4" class="node">
<title>Node4</title>
<g id="a_node4"><a xlink:title=" ">
<polygon fill="white" stroke="#bfbfbf" points="141,-89.5 141,-108.5 253,-108.5 253,-89.5 141,-89.5"/>
<text text-anchor="middle" x="197" y="-96.5" font-family="Helvetica,sans-Serif" font-size="10.00">MyFloat(*)[NHSML]</text>
</a>
</g>
</g>
<!-- Node4&#45;&gt;Node1 -->
<g id="edge3" class="edge">
<title>Node4&#45;&gt;Node1</title>
<path fill="none" stroke="#9a32cd" stroke-dasharray="5,2" d="M190.82,-79.74C186.44,-67.62 180.11,-51.52 173,-38 169.64,-31.62 165.14,-24.87 161.48,-19.71"/>
<polygon fill="#9a32cd" stroke="#9a32cd" points="187.52,-80.92 194.13,-89.2 194.13,-78.61 187.52,-80.92"/>
<text text-anchor="middle" x="215.5" y="-57.5" font-family="Helvetica,sans-Serif" font-size="10.00"> NumNgb</text>
<text text-anchor="middle" x="215.5" y="-46.5" font-family="Helvetica,sans-Serif" font-size="10.00">VolumeSPH</text>
</g>
<!-- Node5 -->
<g id="node5" class="node">
<title>Node5</title>
<g id="a_node5"><a xlink:title=" ">
<polygon fill="white" stroke="#bfbfbf" points="271.5,-89.5 271.5,-108.5 336.5,-108.5 336.5,-89.5 271.5,-89.5"/>
<text text-anchor="middle" x="304" y="-96.5" font-family="Helvetica,sans-Serif" font-size="10.00">MyFloat *</text>
</a>
</g>
</g>
<!-- Node5&#45;&gt;Node1 -->
<g id="edge4" class="edge">
<title>Node5&#45;&gt;Node1</title>
<path fill="none" stroke="#9a32cd" stroke-dasharray="5,2" d="M292.08,-80.84C281.85,-67.34 265.95,-49.03 248,-38 234.25,-29.55 217.73,-23.64 202.46,-19.55"/>
<polygon fill="#9a32cd" stroke="#9a32cd" points="289.49,-83.24 298.21,-89.26 295.15,-79.12 289.49,-83.24"/>
<text text-anchor="middle" x="312" y="-63" font-family="Helvetica,sans-Serif" font-size="10.00"> Left</text>
<text text-anchor="middle" x="312" y="-52" font-family="Helvetica,sans-Serif" font-size="10.00">MassReturn</text>
<text text-anchor="middle" x="312" y="-41" font-family="Helvetica,sans-Serif" font-size="10.00">Right</text>
</g>
</g>
</svg>
