<?xml version="1.0" encoding="UTF-8" standalone="no"?>
<!DOCTYPE svg PUBLIC "-//W3C//DTD SVG 1.1//EN"
 "http://www.w3.org/Graphics/SVG/1.1/DTD/svg11.dtd">
<!-- Generated by graphviz version 2.38.0 (20140413.2041)
 -->
<!-- Title: cluster_get_num_hosts Pages: 1 -->
<svg width="126pt" height="388pt"
 viewBox="0.00 0.00 126.00 388.00" xmlns="http://www.w3.org/2000/svg" xmlns:xlink="http://www.w3.org/1999/xlink">
<g id="graph0" class="graph" transform="scale(1 1) rotate(0) translate(4 384)">
<title>cluster_get_num_hosts</title>
<polygon fill="white" stroke="none" points="-4,4 -4,-384 122,-384 122,4 -4,4"/>
<!-- Node62 -->
<g id="node1" class="node"><title>Node62</title>
<polygon fill="#bfbfbf" stroke="black" points="0,-360.5 0,-379.5 118,-379.5 118,-360.5 0,-360.5"/>
<text text-anchor="middle" x="59" y="-367.5" font-family="Helvetica,sans-Serif" font-size="10.00">cluster_get_num_hosts</text>
</g>
<!-- Node63 -->
<g id="node2" class="node"><title>Node63</title>
<g id="a_node2"><a xlink:href="mymalloc_8h.html#a51e63c63b3d3d87a081c13c792f4bca9" target="_top" xlink:title="mymalloc_init">
<polygon fill="white" stroke="black" points="20.5,-288.5 20.5,-307.5 97.5,-307.5 97.5,-288.5 20.5,-288.5"/>
<text text-anchor="middle" x="59" y="-295.5" font-family="Helvetica,sans-Serif" font-size="10.00">mymalloc_init</text>
</a>
</g>
</g>
<!-- Node62&#45;&gt;Node63 -->
<g id="edge1" class="edge"><title>Node62&#45;&gt;Node63</title>
<path fill="none" stroke="midnightblue" d="M59,-350.243C59,-336.357 59,-318.393 59,-307.556"/>
<polygon fill="midnightblue" stroke="midnightblue" points="55.5001,-350.29 59,-360.29 62.5001,-350.29 55.5001,-350.29"/>
</g>
<!-- Node64 -->
<g id="node3" class="node"><title>Node64</title>
<g id="a_node3"><a xlink:href="main_8c.html#a3c04138a5bfe5d72780bb7e82a18e627" target="_top" xlink:title="main">
<polygon fill="white" stroke="black" points="40,-216.5 40,-235.5 78,-235.5 78,-216.5 40,-216.5"/>
<text text-anchor="middle" x="59" y="-223.5" font-family="Helvetica,sans-Serif" font-size="10.00">main</text>
</a>
</g>
</g>
<!-- Node63&#45;&gt;Node64 -->
<g id="edge2" class="edge"><title>Node63&#45;&gt;Node64</title>
<path fill="none" stroke="midnightblue" d="M59,-278.243C59,-264.357 59,-246.393 59,-235.556"/>
<polygon fill="midnightblue" stroke="midnightblue" points="55.5001,-278.29 59,-288.29 62.5001,-278.29 55.5001,-278.29"/>
</g>
<!-- Node65 -->
<g id="node4" class="node"><title>Node65</title>
<g id="a_node4"><a xlink:href="walltime_8h.html#a76d2135b612766d4d665748454b879d6" target="_top" xlink:title="walltime_report">
<polygon fill="white" stroke="black" points="17.5,-0.5 17.5,-19.5 100.5,-19.5 100.5,-0.5 17.5,-0.5"/>
<text text-anchor="middle" x="59" y="-7.5" font-family="Helvetica,sans-Serif" font-size="10.00">walltime_report</text>
</a>
</g>
</g>
<!-- Node64&#45;&gt;Node65 -->
<g id="edge3" class="edge"><title>Node64&#45;&gt;Node65</title>
<path fill="none" stroke="midnightblue" d="M59,-206.266C59,-161.443 59,-53.2692 59,-19.9425"/>
<polygon fill="midnightblue" stroke="midnightblue" points="55.5001,-206.44 59,-216.44 62.5001,-206.44 55.5001,-206.44"/>
</g>
<!-- Node66 -->
<g id="node5" class="node"><title>Node66</title>
<g id="a_node5"><a xlink:href="run_8c.html#adc59e9ee1517e4e690694a64ab6a59d2" target="_top" xlink:title="write_cpu_log">
<polygon fill="white" stroke="black" points="20.5,-72.5 20.5,-91.5 97.5,-91.5 97.5,-72.5 20.5,-72.5"/>
<text text-anchor="middle" x="59" y="-79.5" font-family="Helvetica,sans-Serif" font-size="10.00">write_cpu_log</text>
</a>
</g>
</g>
<!-- Node65&#45;&gt;Node66 -->
<g id="edge4" class="edge"><title>Node65&#45;&gt;Node66</title>
<path fill="none" stroke="midnightblue" d="M59,-29.7574C59,-43.6427 59,-61.607 59,-72.4436"/>
<polygon fill="midnightblue" stroke="midnightblue" points="62.5001,-29.7102 59,-19.7102 55.5001,-29.7103 62.5001,-29.7102"/>
</g>
<!-- Node67 -->
<g id="node6" class="node"><title>Node67</title>
<g id="a_node6"><a xlink:href="run_8c.html#a05e0ffe612d44e6d7f3a9ae5b9df56a2" target="_top" xlink:title="run">
<polygon fill="white" stroke="black" points="44,-144.5 44,-163.5 74,-163.5 74,-144.5 44,-144.5"/>
<text text-anchor="middle" x="59" y="-151.5" font-family="Helvetica,sans-Serif" font-size="10.00">run</text>
</a>
</g>
</g>
<!-- Node66&#45;&gt;Node67 -->
<g id="edge5" class="edge"><title>Node66&#45;&gt;Node67</title>
<path fill="none" stroke="midnightblue" d="M59,-101.757C59,-115.643 59,-133.607 59,-144.444"/>
<polygon fill="midnightblue" stroke="midnightblue" points="62.5001,-101.71 59,-91.7102 55.5001,-101.71 62.5001,-101.71"/>
</g>
<!-- Node67&#45;&gt;Node64 -->
<g id="edge6" class="edge"><title>Node67&#45;&gt;Node64</title>
<path fill="none" stroke="midnightblue" d="M59,-173.757C59,-187.643 59,-205.607 59,-216.444"/>
<polygon fill="midnightblue" stroke="midnightblue" points="62.5001,-173.71 59,-163.71 55.5001,-173.71 62.5001,-173.71"/>
</g>
</g>
</svg>
