<?xml version="1.0" encoding="UTF-8" standalone="no"?>
<!DOCTYPE svg PUBLIC "-//W3C//DTD SVG 1.1//EN"
 "http://www.w3.org/Graphics/SVG/1.1/DTD/svg11.dtd">
<!-- Generated by graphviz version 2.50.0 (0)
 -->
<!-- Title: MPIU_write_pids Pages: 1 -->
<svg width="409pt" height="66pt"
 viewBox="0.00 0.00 409.00 66.00" xmlns="http://www.w3.org/2000/svg" xmlns:xlink="http://www.w3.org/1999/xlink">
<g id="graph0" class="graph" transform="scale(1 1) rotate(0) translate(4 62)">
<title>MPIU_write_pids</title>
<polygon fill="white" stroke="transparent" points="-4,4 -4,-62 405,-62 405,4 -4,4"/>
<!-- Node1 -->
<g id="node1" class="node">
<title>Node1</title>
<g id="a_node1"><a xlink:title=" ">
<polygon fill="#bfbfbf" stroke="black" points="0,-19.5 0,-38.5 98,-38.5 98,-19.5 0,-19.5"/>
<text text-anchor="middle" x="49" y="-26.5" font-family="Helvetica,sans-Serif" font-size="10.00">MPIU_write_pids</text>
</a>
</g>
</g>
<!-- Node2 -->
<g id="node2" class="node">
<title>Node2</title>
<g id="a_node2"><a xlink:href="endrun_8c.html#ad963d7efdb9f10f7a2298c8ccd222ab0" target="_top" xlink:title=" ">
<polygon fill="white" stroke="black" points="134,-19.5 134,-38.5 184,-38.5 184,-19.5 134,-19.5"/>
<text text-anchor="middle" x="159" y="-26.5" font-family="Helvetica,sans-Serif" font-size="10.00">endrun</text>
</a>
</g>
</g>
<!-- Node1&#45;&gt;Node2 -->
<g id="edge1" class="edge">
<title>Node1&#45;&gt;Node2</title>
<path fill="none" stroke="midnightblue" d="M98.31,-29C106.91,-29 115.69,-29 123.79,-29"/>
<polygon fill="midnightblue" stroke="midnightblue" points="123.96,-32.5 133.96,-29 123.96,-25.5 123.96,-32.5"/>
</g>
<!-- Node3 -->
<g id="node3" class="node">
<title>Node3</title>
<g id="a_node3"><a xlink:href="system_8c.html#a341c8d27bd6c7dde856566810b412b1f" target="_top" xlink:title=" ">
<polygon fill="white" stroke="black" points="228,-38.5 228,-57.5 307,-57.5 307,-38.5 228,-38.5"/>
<text text-anchor="middle" x="267.5" y="-45.5" font-family="Helvetica,sans-Serif" font-size="10.00">MPIU_Tracev</text>
</a>
</g>
</g>
<!-- Node2&#45;&gt;Node3 -->
<g id="edge2" class="edge">
<title>Node2&#45;&gt;Node3</title>
<path fill="none" stroke="midnightblue" d="M184.17,-33.31C194.13,-35.09 206.06,-37.22 217.71,-39.3"/>
<polygon fill="midnightblue" stroke="midnightblue" points="217.35,-42.79 227.81,-41.1 218.58,-35.9 217.35,-42.79"/>
</g>
<!-- Node5 -->
<g id="node5" class="node">
<title>Node5</title>
<g id="a_node5"><a xlink:href="endrun_8c.html#a1200f02a595ab7cbe17c9e36ff32af0f" target="_top" xlink:title=" ">
<polygon fill="white" stroke="black" points="220,-0.5 220,-19.5 315,-19.5 315,-0.5 220,-0.5"/>
<text text-anchor="middle" x="267.5" y="-7.5" font-family="Helvetica,sans-Serif" font-size="10.00">show_backtrace</text>
</a>
</g>
</g>
<!-- Node2&#45;&gt;Node5 -->
<g id="edge4" class="edge">
<title>Node2&#45;&gt;Node5</title>
<path fill="none" stroke="midnightblue" d="M184.17,-24.69C191.84,-23.32 200.67,-21.74 209.63,-20.15"/>
<polygon fill="midnightblue" stroke="midnightblue" points="210.53,-23.54 219.76,-18.34 209.3,-16.65 210.53,-23.54"/>
</g>
<!-- Node4 -->
<g id="node4" class="node">
<title>Node4</title>
<g id="a_node4"><a xlink:href="system_8c.html#a87108946670b4c3afbe846c6726675ff" target="_top" xlink:title=" ">
<polygon fill="white" stroke="black" points="351,-38.5 351,-57.5 401,-57.5 401,-38.5 351,-38.5"/>
<text text-anchor="middle" x="376" y="-45.5" font-family="Helvetica,sans-Serif" font-size="10.00">putline</text>
</a>
</g>
</g>
<!-- Node3&#45;&gt;Node4 -->
<g id="edge3" class="edge">
<title>Node3&#45;&gt;Node4</title>
<path fill="none" stroke="midnightblue" d="M307.25,-48C318.22,-48 330.09,-48 340.77,-48"/>
<polygon fill="midnightblue" stroke="midnightblue" points="340.99,-51.5 350.99,-48 340.99,-44.5 340.99,-51.5"/>
</g>
</g>
</svg>
