<?xml version="1.0" encoding="UTF-8" standalone="no"?>
<!DOCTYPE svg PUBLIC "-//W3C//DTD SVG 1.1//EN"
 "http://www.w3.org/Graphics/SVG/1.1/DTD/svg11.dtd">
<!-- Generated by graphviz version 2.50.0 (0)
 -->
<!-- Title: libgenic/thermal.c Pages: 1 -->
<svg width="1471pt" height="252pt"
 viewBox="0.00 0.00 1471.00 252.00" xmlns="http://www.w3.org/2000/svg" xmlns:xlink="http://www.w3.org/1999/xlink">
<g id="graph0" class="graph" transform="scale(1 1) rotate(0) translate(4 248)">
<title>libgenic/thermal.c</title>
<polygon fill="white" stroke="transparent" points="-4,4 -4,-248 1467,-248 1467,4 -4,4"/>
<!-- Node1 -->
<g id="node1" class="node">
<title>Node1</title>
<g id="a_node1"><a xlink:title=" ">
<polygon fill="#bfbfbf" stroke="black" points="230,-224.5 230,-243.5 334,-243.5 334,-224.5 230,-224.5"/>
<text text-anchor="middle" x="282" y="-231.5" font-family="Helvetica,sans-Serif" font-size="10.00">libgenic/thermal.c</text>
</a>
</g>
</g>
<!-- Node2 -->
<g id="node2" class="node">
<title>Node2</title>
<g id="a_node2"><a xlink:title=" ">
<polygon fill="white" stroke="#bfbfbf" points="0,-168.5 0,-187.5 116,-187.5 116,-168.5 0,-168.5"/>
<text text-anchor="middle" x="58" y="-175.5" font-family="Helvetica,sans-Serif" font-size="10.00">gsl/gsl_integration.h</text>
</a>
</g>
</g>
<!-- Node1&#45;&gt;Node2 -->
<g id="edge1" class="edge">
<title>Node1&#45;&gt;Node2</title>
<path fill="none" stroke="midnightblue" d="M246.51,-224.44C207.68,-215.08 145.34,-200.06 103.08,-189.87"/>
<polygon fill="midnightblue" stroke="midnightblue" points="103.87,-186.46 93.33,-187.52 102.23,-193.26 103.87,-186.46"/>
</g>
<!-- Node3 -->
<g id="node3" class="node">
<title>Node3</title>
<g id="a_node3"><a xlink:title=" ">
<polygon fill="white" stroke="#bfbfbf" points="98.5,-112.5 98.5,-131.5 189.5,-131.5 189.5,-112.5 98.5,-112.5"/>
<text text-anchor="middle" x="144" y="-119.5" font-family="Helvetica,sans-Serif" font-size="10.00">gsl/gsl_interp.h</text>
</a>
</g>
</g>
<!-- Node1&#45;&gt;Node3 -->
<g id="edge2" class="edge">
<title>Node1&#45;&gt;Node3</title>
<path fill="none" stroke="midnightblue" d="M230.68,-224.46C207.15,-218.09 180.63,-207.05 163,-188 151.4,-175.47 146.85,-156.25 145.08,-141.95"/>
<polygon fill="midnightblue" stroke="midnightblue" points="148.55,-141.42 144.18,-131.77 141.57,-142.04 148.55,-141.42"/>
</g>
<!-- Node4 -->
<g id="node4" class="node">
<title>Node4</title>
<g id="a_node4"><a xlink:title=" ">
<polygon fill="white" stroke="#bfbfbf" points="208,-112.5 208,-131.5 286,-131.5 286,-112.5 208,-112.5"/>
<text text-anchor="middle" x="247" y="-119.5" font-family="Helvetica,sans-Serif" font-size="10.00">gsl/gsl_rng.h</text>
</a>
</g>
</g>
<!-- Node1&#45;&gt;Node4 -->
<g id="edge3" class="edge">
<title>Node1&#45;&gt;Node4</title>
<path fill="none" stroke="midnightblue" d="M293.33,-224.2C307.94,-211.74 330.2,-188.22 319,-168 310.91,-153.41 295.9,-142.92 281.66,-135.76"/>
<polygon fill="midnightblue" stroke="midnightblue" points="283.05,-132.55 272.5,-131.53 280.11,-138.9 283.05,-132.55"/>
</g>
<!-- Node5 -->
<g id="node5" class="node">
<title>Node5</title>
<g id="a_node5"><a xlink:title=" ">
<polygon fill="white" stroke="#bfbfbf" points="254,-168.5 254,-187.5 310,-187.5 310,-168.5 254,-168.5"/>
<text text-anchor="middle" x="282" y="-175.5" font-family="Helvetica,sans-Serif" font-size="10.00">assert.h</text>
</a>
</g>
</g>
<!-- Node1&#45;&gt;Node5 -->
<g id="edge4" class="edge">
<title>Node1&#45;&gt;Node5</title>
<path fill="none" stroke="midnightblue" d="M282,-224.08C282,-217.01 282,-206.86 282,-197.99"/>
<polygon fill="midnightblue" stroke="midnightblue" points="285.5,-197.75 282,-187.75 278.5,-197.75 285.5,-197.75"/>
</g>
<!-- Node6 -->
<g id="node6" class="node">
<title>Node6</title>
<g id="a_node6"><a xlink:href="thermal_8h.html" target="_top" xlink:title=" ">
<polygon fill="white" stroke="black" points="172,-168.5 172,-187.5 236,-187.5 236,-168.5 172,-168.5"/>
<text text-anchor="middle" x="204" y="-175.5" font-family="Helvetica,sans-Serif" font-size="10.00">thermal.h</text>
</a>
</g>
</g>
<!-- Node1&#45;&gt;Node6 -->
<g id="edge5" class="edge">
<title>Node1&#45;&gt;Node6</title>
<path fill="none" stroke="midnightblue" d="M269.47,-224.32C257.41,-215.98 238.97,-203.21 224.73,-193.35"/>
<polygon fill="midnightblue" stroke="midnightblue" points="226.72,-190.47 216.5,-187.65 222.73,-196.22 226.72,-190.47"/>
</g>
<!-- Node7 -->
<g id="node7" class="node">
<title>Node7</title>
<g id="a_node7"><a xlink:href="physconst_8h.html" target="_top" xlink:title=" ">
<polygon fill="white" stroke="black" points="366,-168.5 366,-187.5 490,-187.5 490,-168.5 366,-168.5"/>
<text text-anchor="middle" x="428" y="-175.5" font-family="Helvetica,sans-Serif" font-size="10.00">libgadget/physconst.h</text>
</a>
</g>
</g>
<!-- Node1&#45;&gt;Node7 -->
<g id="edge8" class="edge">
<title>Node1&#45;&gt;Node7</title>
<path fill="none" stroke="midnightblue" d="M305.13,-224.44C329.48,-215.44 368.01,-201.19 395.42,-191.05"/>
<polygon fill="midnightblue" stroke="midnightblue" points="396.81,-194.27 404.97,-187.52 394.38,-187.7 396.81,-194.27"/>
</g>
<!-- Node8 -->
<g id="node8" class="node">
<title>Node8</title>
<g id="a_node8"><a xlink:href="utils_8h.html" target="_top" xlink:title=" ">
<polygon fill="white" stroke="black" points="740.5,-168.5 740.5,-187.5 835.5,-187.5 835.5,-168.5 740.5,-168.5"/>
<text text-anchor="middle" x="788" y="-175.5" font-family="Helvetica,sans-Serif" font-size="10.00">libgadget/utils.h</text>
</a>
</g>
</g>
<!-- Node1&#45;&gt;Node8 -->
<g id="edge9" class="edge">
<title>Node1&#45;&gt;Node8</title>
<path fill="none" stroke="midnightblue" d="M334.25,-227.42C429.6,-217.25 631.14,-195.74 730.35,-185.15"/>
<polygon fill="midnightblue" stroke="midnightblue" points="730.92,-188.61 740.49,-184.07 730.18,-181.65 730.92,-188.61"/>
</g>
<!-- Node6&#45;&gt;Node3 -->
<g id="edge6" class="edge">
<title>Node6&#45;&gt;Node3</title>
<path fill="none" stroke="midnightblue" d="M194.36,-168.32C185.49,-160.34 172.13,-148.31 161.39,-138.65"/>
<polygon fill="midnightblue" stroke="midnightblue" points="163.59,-135.92 153.82,-131.83 158.91,-141.13 163.59,-135.92"/>
</g>
<!-- Node6&#45;&gt;Node4 -->
<g id="edge7" class="edge">
<title>Node6&#45;&gt;Node4</title>
<path fill="none" stroke="midnightblue" d="M211.1,-168.08C217.24,-160.38 226.27,-149.03 233.74,-139.65"/>
<polygon fill="midnightblue" stroke="midnightblue" points="236.54,-141.75 240.03,-131.75 231.06,-137.39 236.54,-141.75"/>
</g>
<!-- Node9 -->
<g id="node9" class="node">
<title>Node9</title>
<g id="a_node9"><a xlink:title=" ">
<polygon fill="white" stroke="#bfbfbf" points="1191,-56.5 1191,-75.5 1241,-75.5 1241,-56.5 1191,-56.5"/>
<text text-anchor="middle" x="1216" y="-63.5" font-family="Helvetica,sans-Serif" font-size="10.00">stdio.h</text>
</a>
</g>
</g>
<!-- Node8&#45;&gt;Node9 -->
<g id="edge10" class="edge">
<title>Node8&#45;&gt;Node9</title>
<path fill="none" stroke="midnightblue" d="M835.51,-176.28C954.3,-173.99 1256.89,-164.95 1287,-132 1304.77,-112.55 1273.73,-92.41 1247.26,-79.8"/>
<polygon fill="midnightblue" stroke="midnightblue" points="1248.36,-76.46 1237.81,-75.51 1245.47,-82.83 1248.36,-76.46"/>
</g>
<!-- Node10 -->
<g id="node10" class="node">
<title>Node10</title>
<g id="a_node10"><a xlink:title=" ">
<polygon fill="white" stroke="#bfbfbf" points="659.5,-56.5 659.5,-75.5 712.5,-75.5 712.5,-56.5 659.5,-56.5"/>
<text text-anchor="middle" x="686" y="-63.5" font-family="Helvetica,sans-Serif" font-size="10.00">stdint.h</text>
</a>
</g>
</g>
<!-- Node8&#45;&gt;Node10 -->
<g id="edge11" class="edge">
<title>Node8&#45;&gt;Node10</title>
<path fill="none" stroke="midnightblue" d="M760.41,-168.35C742.22,-161.3 719.21,-149.6 705,-132 694.28,-118.72 689.61,-99.59 687.57,-85.53"/>
<polygon fill="midnightblue" stroke="midnightblue" points="691.04,-85.08 686.44,-75.54 684.09,-85.87 691.04,-85.08"/>
</g>
<!-- Node11 -->
<g id="node11" class="node">
<title>Node11</title>
<g id="a_node11"><a xlink:title=" ">
<polygon fill="white" stroke="#bfbfbf" points="929,-0.5 929,-19.5 985,-19.5 985,-0.5 929,-0.5"/>
<text text-anchor="middle" x="957" y="-7.5" font-family="Helvetica,sans-Serif" font-size="10.00">stddef.h</text>
</a>
</g>
</g>
<!-- Node8&#45;&gt;Node11 -->
<g id="edge12" class="edge">
<title>Node8&#45;&gt;Node11</title>
<path fill="none" stroke="midnightblue" d="M740.22,-175.29C634.39,-171.05 387.44,-158.4 361,-132 337.02,-108.06 331.95,-80.84 355,-56 393.32,-14.71 791.83,-11.03 918.54,-10.92"/>
<polygon fill="midnightblue" stroke="midnightblue" points="918.91,-14.42 928.91,-10.91 918.91,-7.42 918.91,-14.42"/>
</g>
<!-- Node12 -->
<g id="node12" class="node">
<title>Node12</title>
<g id="a_node12"><a xlink:title=" ">
<polygon fill="white" stroke="#bfbfbf" points="364,-56.5 364,-75.5 408,-75.5 408,-56.5 364,-56.5"/>
<text text-anchor="middle" x="386" y="-63.5" font-family="Helvetica,sans-Serif" font-size="10.00">mpi.h</text>
</a>
</g>
</g>
<!-- Node8&#45;&gt;Node12 -->
<g id="edge13" class="edge">
<title>Node8&#45;&gt;Node12</title>
<path fill="none" stroke="midnightblue" d="M740.47,-175.36C636.52,-171.29 396.26,-159.03 372,-132 360.47,-119.16 367.18,-99.15 374.76,-84.72"/>
<polygon fill="midnightblue" stroke="midnightblue" points="377.95,-86.19 379.93,-75.78 371.9,-82.68 377.95,-86.19"/>
</g>
<!-- Node13 -->
<g id="node13" class="node">
<title>Node13</title>
<g id="a_node13"><a xlink:href="peano_8h.html" target="_top" xlink:title=" ">
<polygon fill="white" stroke="black" points="714,-112.5 714,-131.5 794,-131.5 794,-112.5 714,-112.5"/>
<text text-anchor="middle" x="754" y="-119.5" font-family="Helvetica,sans-Serif" font-size="10.00">utils/peano.h</text>
</a>
</g>
</g>
<!-- Node8&#45;&gt;Node13 -->
<g id="edge14" class="edge">
<title>Node8&#45;&gt;Node13</title>
<path fill="none" stroke="midnightblue" d="M782.39,-168.08C777.63,-160.53 770.68,-149.49 764.85,-140.23"/>
<polygon fill="midnightblue" stroke="midnightblue" points="767.8,-138.35 759.51,-131.75 761.88,-142.08 767.8,-138.35"/>
</g>
<!-- Node14 -->
<g id="node14" class="node">
<title>Node14</title>
<g id="a_node14"><a xlink:href="memory_8h.html" target="_top" xlink:title=" ">
<polygon fill="white" stroke="black" points="912.5,-56.5 912.5,-75.5 1001.5,-75.5 1001.5,-56.5 912.5,-56.5"/>
<text text-anchor="middle" x="957" y="-63.5" font-family="Helvetica,sans-Serif" font-size="10.00">utils/memory.h</text>
</a>
</g>
</g>
<!-- Node8&#45;&gt;Node14 -->
<g id="edge17" class="edge">
<title>Node8&#45;&gt;Node14</title>
<path fill="none" stroke="midnightblue" d="M793.22,-168.22C801.79,-154.47 820.11,-127.8 842,-112 863.2,-96.7 890.3,-85.76 912.87,-78.51"/>
<polygon fill="midnightblue" stroke="midnightblue" points="914.02,-81.81 922.55,-75.52 911.97,-75.12 914.02,-81.81"/>
</g>
<!-- Node15 -->
<g id="node15" class="node">
<title>Node15</title>
<g id="a_node15"><a xlink:href="mymalloc_8h.html" target="_top" xlink:title=" ">
<polygon fill="white" stroke="black" points="952,-112.5 952,-131.5 1050,-131.5 1050,-112.5 952,-112.5"/>
<text text-anchor="middle" x="1001" y="-119.5" font-family="Helvetica,sans-Serif" font-size="10.00">utils/mymalloc.h</text>
</a>
</g>
</g>
<!-- Node8&#45;&gt;Node15 -->
<g id="edge19" class="edge">
<title>Node8&#45;&gt;Node15</title>
<path fill="none" stroke="midnightblue" d="M821.75,-168.44C858.52,-159.12 917.45,-144.18 957.62,-134"/>
<polygon fill="midnightblue" stroke="midnightblue" points="958.57,-137.37 967.41,-131.52 956.85,-130.58 958.57,-137.37"/>
</g>
<!-- Node16 -->
<g id="node16" class="node">
<title>Node16</title>
<g id="a_node16"><a xlink:href="paramset_8h.html" target="_top" xlink:title=" ">
<polygon fill="white" stroke="black" points="1182,-112.5 1182,-131.5 1278,-131.5 1278,-112.5 1182,-112.5"/>
<text text-anchor="middle" x="1230" y="-119.5" font-family="Helvetica,sans-Serif" font-size="10.00">utils/paramset.h</text>
</a>
</g>
</g>
<!-- Node8&#45;&gt;Node16 -->
<g id="edge21" class="edge">
<title>Node8&#45;&gt;Node16</title>
<path fill="none" stroke="midnightblue" d="M835.79,-172.04C906.8,-164.53 1044.6,-149.43 1171.89,-132.11"/>
<polygon fill="midnightblue" stroke="midnightblue" points="1172.39,-135.57 1181.82,-130.75 1171.44,-128.64 1172.39,-135.57"/>
</g>
<!-- Node17 -->
<g id="node17" class="node">
<title>Node17</title>
<g id="a_node17"><a xlink:href="event_8h.html" target="_top" xlink:title=" ">
<polygon fill="white" stroke="black" points="580.5,-112.5 580.5,-131.5 657.5,-131.5 657.5,-112.5 580.5,-112.5"/>
<text text-anchor="middle" x="619" y="-119.5" font-family="Helvetica,sans-Serif" font-size="10.00">utils/event.h</text>
</a>
</g>
</g>
<!-- Node8&#45;&gt;Node17 -->
<g id="edge23" class="edge">
<title>Node8&#45;&gt;Node17</title>
<path fill="none" stroke="midnightblue" d="M761.22,-168.44C732.67,-159.32 687.27,-144.81 655.46,-134.65"/>
<polygon fill="midnightblue" stroke="midnightblue" points="656.24,-131.23 645.65,-131.52 654.11,-137.89 656.24,-131.23"/>
</g>
<!-- Node18 -->
<g id="node18" class="node">
<title>Node18</title>
<g id="a_node18"><a xlink:href="openmpsort_8h.html" target="_top" xlink:title=" ">
<polygon fill="white" stroke="black" points="1259,-56.5 1259,-75.5 1367,-75.5 1367,-56.5 1259,-56.5"/>
<text text-anchor="middle" x="1313" y="-63.5" font-family="Helvetica,sans-Serif" font-size="10.00">utils/openmpsort.h</text>
</a>
</g>
</g>
<!-- Node8&#45;&gt;Node18 -->
<g id="edge24" class="edge">
<title>Node8&#45;&gt;Node18</title>
<path fill="none" stroke="midnightblue" d="M835.84,-176.13C957.11,-173.46 1269.3,-163.56 1303,-132 1315.35,-120.43 1316.75,-100.47 1315.74,-85.71"/>
<polygon fill="midnightblue" stroke="midnightblue" points="1319.21,-85.23 1314.64,-75.67 1312.25,-85.99 1319.21,-85.23"/>
</g>
<!-- Node19 -->
<g id="node19" class="node">
<title>Node19</title>
<g id="a_node19"><a xlink:href="system_8h.html" target="_top" xlink:title=" ">
<polygon fill="white" stroke="black" points="476,-112.5 476,-131.5 562,-131.5 562,-112.5 476,-112.5"/>
<text text-anchor="middle" x="519" y="-119.5" font-family="Helvetica,sans-Serif" font-size="10.00">utils/system.h</text>
</a>
</g>
</g>
<!-- Node8&#45;&gt;Node19 -->
<g id="edge26" class="edge">
<title>Node8&#45;&gt;Node19</title>
<path fill="none" stroke="midnightblue" d="M745.38,-168.44C698.25,-158.98 622.31,-143.74 571.54,-133.55"/>
<polygon fill="midnightblue" stroke="midnightblue" points="571.92,-130.05 561.42,-131.52 570.54,-136.92 571.92,-130.05"/>
</g>
<!-- Node21 -->
<g id="node21" class="node">
<title>Node21</title>
<g id="a_node21"><a xlink:href="string_8h.html" target="_top" xlink:title=" ">
<polygon fill="white" stroke="black" points="380.5,-112.5 380.5,-131.5 457.5,-131.5 457.5,-112.5 380.5,-112.5"/>
<text text-anchor="middle" x="419" y="-119.5" font-family="Helvetica,sans-Serif" font-size="10.00">utils/string.h</text>
</a>
</g>
</g>
<!-- Node8&#45;&gt;Node21 -->
<g id="edge30" class="edge">
<title>Node8&#45;&gt;Node21</title>
<path fill="none" stroke="midnightblue" d="M740.31,-171.01C679.49,-163.22 570.83,-148.78 467.71,-132.05"/>
<polygon fill="midnightblue" stroke="midnightblue" points="468.18,-128.58 457.75,-130.42 467.05,-135.49 468.18,-128.58"/>
</g>
<!-- Node22 -->
<g id="node22" class="node">
<title>Node22</title>
<g id="a_node22"><a xlink:href="endrun_8h.html" target="_top" xlink:title=" ">
<polygon fill="white" stroke="black" points="850.5,-112.5 850.5,-131.5 933.5,-131.5 933.5,-112.5 850.5,-112.5"/>
<text text-anchor="middle" x="892" y="-119.5" font-family="Helvetica,sans-Serif" font-size="10.00">utils/endrun.h</text>
</a>
</g>
</g>
<!-- Node8&#45;&gt;Node22 -->
<g id="edge32" class="edge">
<title>Node8&#45;&gt;Node22</title>
<path fill="none" stroke="midnightblue" d="M804.71,-168.32C821.31,-159.7 847,-146.36 866.22,-136.39"/>
<polygon fill="midnightblue" stroke="midnightblue" points="868.07,-139.37 875.33,-131.65 864.84,-133.16 868.07,-139.37"/>
</g>
<!-- Node23 -->
<g id="node23" class="node">
<title>Node23</title>
<g id="a_node23"><a xlink:href="interp_8h.html" target="_top" xlink:title=" ">
<polygon fill="white" stroke="black" points="1385,-56.5 1385,-75.5 1463,-75.5 1463,-56.5 1385,-56.5"/>
<text text-anchor="middle" x="1424" y="-63.5" font-family="Helvetica,sans-Serif" font-size="10.00">utils/interp.h</text>
</a>
</g>
</g>
<!-- Node8&#45;&gt;Node23 -->
<g id="edge33" class="edge">
<title>Node8&#45;&gt;Node23</title>
<path fill="none" stroke="midnightblue" d="M835.68,-175.9C949.18,-172.81 1232.53,-162.22 1322,-132 1354.43,-121.05 1386.93,-97.68 1406.25,-82.16"/>
<polygon fill="midnightblue" stroke="midnightblue" points="1408.66,-84.71 1414.15,-75.65 1404.21,-79.3 1408.66,-84.71"/>
</g>
<!-- Node24 -->
<g id="node24" class="node">
<title>Node24</title>
<g id="a_node24"><a xlink:href="spinlocks_8h.html" target="_top" xlink:title=" ">
<polygon fill="white" stroke="black" points="1068.5,-112.5 1068.5,-131.5 1163.5,-131.5 1163.5,-112.5 1068.5,-112.5"/>
<text text-anchor="middle" x="1116" y="-119.5" font-family="Helvetica,sans-Serif" font-size="10.00">utils/spinlocks.h</text>
</a>
</g>
</g>
<!-- Node8&#45;&gt;Node24 -->
<g id="edge35" class="edge">
<title>Node8&#45;&gt;Node24</title>
<path fill="none" stroke="midnightblue" d="M835.69,-169.15C894.6,-159.45 994.75,-142.96 1058.04,-132.54"/>
<polygon fill="midnightblue" stroke="midnightblue" points="1058.95,-135.94 1068.25,-130.86 1057.81,-129.03 1058.95,-135.94"/>
</g>
<!-- Node13&#45;&gt;Node10 -->
<g id="edge16" class="edge">
<title>Node13&#45;&gt;Node10</title>
<path fill="none" stroke="midnightblue" d="M743.07,-112.32C732.83,-104.18 717.28,-91.84 705,-82.09"/>
<polygon fill="midnightblue" stroke="midnightblue" points="707.13,-79.31 697.12,-75.83 702.78,-84.79 707.13,-79.31"/>
</g>
<!-- Node13&#45;&gt;Node11 -->
<g id="edge15" class="edge">
<title>Node13&#45;&gt;Node11</title>
<path fill="none" stroke="midnightblue" d="M769.93,-112.37C805.21,-93.25 890.14,-47.23 932.34,-24.36"/>
<polygon fill="midnightblue" stroke="midnightblue" points="934.02,-27.43 941.14,-19.59 930.69,-21.28 934.02,-27.43"/>
</g>
<!-- Node14&#45;&gt;Node11 -->
<g id="edge18" class="edge">
<title>Node14&#45;&gt;Node11</title>
<path fill="none" stroke="midnightblue" d="M957,-56.08C957,-49.01 957,-38.86 957,-29.99"/>
<polygon fill="midnightblue" stroke="midnightblue" points="960.5,-29.75 957,-19.75 953.5,-29.75 960.5,-29.75"/>
</g>
<!-- Node15&#45;&gt;Node14 -->
<g id="edge20" class="edge">
<title>Node15&#45;&gt;Node14</title>
<path fill="none" stroke="midnightblue" d="M993.73,-112.08C987.46,-104.38 978.21,-93.03 970.57,-83.65"/>
<polygon fill="midnightblue" stroke="midnightblue" points="973.16,-81.29 964.13,-75.75 967.73,-85.71 973.16,-81.29"/>
</g>
<!-- Node16&#45;&gt;Node9 -->
<g id="edge22" class="edge">
<title>Node16&#45;&gt;Node9</title>
<path fill="none" stroke="midnightblue" d="M1227.69,-112.08C1225.83,-104.93 1223.16,-94.64 1220.85,-85.69"/>
<polygon fill="midnightblue" stroke="midnightblue" points="1224.17,-84.55 1218.27,-75.75 1217.39,-86.31 1224.17,-84.55"/>
</g>
<!-- Node18&#45;&gt;Node11 -->
<g id="edge25" class="edge">
<title>Node18&#45;&gt;Node11</title>
<path fill="none" stroke="midnightblue" d="M1258.93,-56.8C1186.15,-45.76 1058.49,-26.4 995.04,-16.77"/>
<polygon fill="midnightblue" stroke="midnightblue" points="995.47,-13.3 985.06,-15.26 994.42,-20.22 995.47,-13.3"/>
</g>
<!-- Node19&#45;&gt;Node10 -->
<g id="edge27" class="edge">
<title>Node19&#45;&gt;Node10</title>
<path fill="none" stroke="midnightblue" d="M545.46,-112.44C573.68,-103.32 618.54,-88.81 649.97,-78.65"/>
<polygon fill="midnightblue" stroke="midnightblue" points="651.22,-81.92 659.66,-75.52 649.07,-75.26 651.22,-81.92"/>
</g>
<!-- Node19&#45;&gt;Node12 -->
<g id="edge28" class="edge">
<title>Node19&#45;&gt;Node12</title>
<path fill="none" stroke="midnightblue" d="M497.93,-112.44C475.94,-103.52 441.27,-89.44 416.34,-79.32"/>
<polygon fill="midnightblue" stroke="midnightblue" points="417.56,-76.04 406.98,-75.52 414.92,-82.52 417.56,-76.04"/>
</g>
<!-- Node20 -->
<g id="node20" class="node">
<title>Node20</title>
<g id="a_node20"><a xlink:title=" ">
<polygon fill="white" stroke="#bfbfbf" points="469,-56.5 469,-75.5 525,-75.5 525,-56.5 469,-56.5"/>
<text text-anchor="middle" x="497" y="-63.5" font-family="Helvetica,sans-Serif" font-size="10.00">stdarg.h</text>
</a>
</g>
</g>
<!-- Node19&#45;&gt;Node20 -->
<g id="edge29" class="edge">
<title>Node19&#45;&gt;Node20</title>
<path fill="none" stroke="midnightblue" d="M515.37,-112.08C512.39,-104.77 508.07,-94.18 504.38,-85.1"/>
<polygon fill="midnightblue" stroke="midnightblue" points="507.58,-83.69 500.57,-75.75 501.1,-86.33 507.58,-83.69"/>
</g>
<!-- Node21&#45;&gt;Node20 -->
<g id="edge31" class="edge">
<title>Node21&#45;&gt;Node20</title>
<path fill="none" stroke="midnightblue" d="M431.53,-112.32C443.59,-103.98 462.03,-91.21 476.27,-81.35"/>
<polygon fill="midnightblue" stroke="midnightblue" points="478.27,-84.22 484.5,-75.65 474.28,-78.47 478.27,-84.22"/>
</g>
<!-- Node23&#45;&gt;Node11 -->
<g id="edge34" class="edge">
<title>Node23&#45;&gt;Node11</title>
<path fill="none" stroke="midnightblue" d="M1384.75,-57.38C1381.79,-56.89 1378.85,-56.42 1376,-56 1236.3,-35.43 1069.08,-20.3 995.25,-14.1"/>
<polygon fill="midnightblue" stroke="midnightblue" points="995.3,-10.59 985.05,-13.25 994.72,-17.57 995.3,-10.59"/>
</g>
</g>
</svg>
