<?xml version="1.0" encoding="UTF-8" standalone="no"?>
<!DOCTYPE svg PUBLIC "-//W3C//DTD SVG 1.1//EN"
 "http://www.w3.org/Graphics/SVG/1.1/DTD/svg11.dtd">
<!-- Generated by graphviz version 2.38.0 (20140413.2041)
 -->
<!-- Title: timebinmgr.h Pages: 1 -->
<svg width="373pt" height="316pt"
 viewBox="0.00 0.00 373.12 316.00" xmlns="http://www.w3.org/2000/svg" xmlns:xlink="http://www.w3.org/1999/xlink">
<g id="graph0" class="graph" transform="scale(1 1) rotate(0) translate(4 312)">
<title>timebinmgr.h</title>
<polygon fill="white" stroke="none" points="-4,4 -4,-312 369.125,-312 369.125,4 -4,4"/>
<!-- Node1 -->
<g id="node1" class="node"><title>Node1</title>
<polygon fill="#bfbfbf" stroke="black" points="210.968,-190.781 210.968,-209.781 283.968,-209.781 283.968,-190.781 210.968,-190.781"/>
<text text-anchor="middle" x="247.468" y="-197.781" font-family="Helvetica,sans-Serif" font-size="10.00">timebinmgr.h</text>
</g>
<!-- Node2 -->
<g id="node2" class="node"><title>Node2</title>
<g id="a_node2"><a xlink:href="timestep_8h.html" target="_top" xlink:title="timestep.h">
<polygon fill="white" stroke="black" points="106.157,-98.2193 106.157,-117.219 168.157,-117.219 168.157,-98.2193 106.157,-98.2193"/>
<text text-anchor="middle" x="137.157" y="-105.219" font-family="Helvetica,sans-Serif" font-size="10.00">timestep.h</text>
</a>
</g>
</g>
<!-- Node1&#45;&gt;Node2 -->
<g id="edge1" class="edge"><title>Node1&#45;&gt;Node2</title>
<path fill="none" stroke="midnightblue" d="M228.345,-184.235C205.365,-164.953 167.545,-133.218 148.65,-117.363"/>
<polygon fill="midnightblue" stroke="midnightblue" points="226.168,-186.977 236.078,-190.724 230.667,-181.615 226.168,-186.977"/>
</g>
<!-- Node5 -->
<g id="node5" class="node"><title>Node5</title>
<g id="a_node5"><a xlink:href="domain_8c.html" target="_top" xlink:title="code for domain decomposition ">
<polygon fill="white" stroke="black" points="164.312,-144.5 164.312,-163.5 220.312,-163.5 220.312,-144.5 164.312,-144.5"/>
<text text-anchor="middle" x="192.312" y="-151.5" font-family="Helvetica,sans-Serif" font-size="10.00">domain.c</text>
</a>
</g>
</g>
<!-- Node1&#45;&gt;Node5 -->
<g id="edge18" class="edge"><title>Node1&#45;&gt;Node5</title>
<path fill="none" stroke="midnightblue" d="M228.327,-184.22C220.126,-177.338 210.822,-169.532 203.726,-163.577"/>
<polygon fill="midnightblue" stroke="midnightblue" points="226.129,-186.945 236.039,-190.691 230.629,-181.582 226.129,-186.945"/>
</g>
<!-- Node12 -->
<g id="node12" class="node"><title>Node12</title>
<g id="a_node12"><a xlink:href="init_8c.html" target="_top" xlink:title="code for initialisation of a simulation from initial conditions ">
<polygon fill="white" stroke="black" points="315.125,-169.505 315.125,-188.505 353.125,-188.505 353.125,-169.505 315.125,-169.505"/>
<text text-anchor="middle" x="334.125" y="-176.505" font-family="Helvetica,sans-Serif" font-size="10.00">init.c</text>
</a>
</g>
</g>
<!-- Node1&#45;&gt;Node12 -->
<g id="edge19" class="edge"><title>Node1&#45;&gt;Node12</title>
<path fill="none" stroke="midnightblue" d="M294.155,-188.818C301.442,-187.029 308.601,-185.272 314.802,-183.749"/>
<polygon fill="midnightblue" stroke="midnightblue" points="293.095,-185.475 284.218,-191.258 294.764,-192.273 293.095,-185.475"/>
</g>
<!-- Node19 -->
<g id="node19" class="node"><title>Node19</title>
<g id="a_node19"><a xlink:href="param_8c.html" target="_top" xlink:title="param.c">
<polygon fill="white" stroke="black" points="291.02,-216.5 291.02,-235.5 343.02,-235.5 343.02,-216.5 291.02,-216.5"/>
<text text-anchor="middle" x="317.02" y="-223.5" font-family="Helvetica,sans-Serif" font-size="10.00">param.c</text>
</a>
</g>
</g>
<!-- Node1&#45;&gt;Node19 -->
<g id="edge20" class="edge"><title>Node1&#45;&gt;Node19</title>
<path fill="none" stroke="midnightblue" d="M282.941,-213.398C285.61,-214.385 288.273,-215.37 290.868,-216.329"/>
<polygon fill="midnightblue" stroke="midnightblue" points="283.959,-210.043 273.366,-209.858 281.532,-216.609 283.959,-210.043"/>
</g>
<!-- Node20 -->
<g id="node20" class="node"><title>Node20</title>
<g id="a_node20"><a xlink:href="timebinmgr_8c.html" target="_top" xlink:title="timebinmgr.c">
<polygon fill="white" stroke="black" points="248.374,-254.81 248.374,-273.81 321.374,-273.81 321.374,-254.81 248.374,-254.81"/>
<text text-anchor="middle" x="284.874" y="-261.81" font-family="Helvetica,sans-Serif" font-size="10.00">timebinmgr.c</text>
</a>
</g>
</g>
<!-- Node1&#45;&gt;Node20 -->
<g id="edge21" class="edge"><title>Node1&#45;&gt;Node20</title>
<path fill="none" stroke="midnightblue" d="M258.36,-218.927C265.156,-230.558 273.627,-245.059 279.139,-254.494"/>
<polygon fill="midnightblue" stroke="midnightblue" points="261.215,-216.874 253.149,-210.005 255.171,-220.406 261.215,-216.874"/>
</g>
<!-- Node21 -->
<g id="node21" class="node"><title>Node21</title>
<g id="a_node21"><a xlink:href="timefac_8c.html" target="_top" xlink:title="timefac.c">
<polygon fill="white" stroke="black" points="213.063,-279.816 213.063,-298.816 270.063,-298.816 270.063,-279.816 213.063,-279.816"/>
<text text-anchor="middle" x="241.563" y="-286.816" font-family="Helvetica,sans-Serif" font-size="10.00">timefac.c</text>
</a>
</g>
</g>
<!-- Node1&#45;&gt;Node21 -->
<g id="edge22" class="edge"><title>Node1&#45;&gt;Node21</title>
<path fill="none" stroke="midnightblue" d="M246.174,-219.79C244.948,-238.277 243.157,-265.282 242.208,-279.586"/>
<polygon fill="midnightblue" stroke="midnightblue" points="249.666,-220.019 246.836,-209.809 242.682,-219.555 249.666,-220.019"/>
</g>
<!-- Node3 -->
<g id="node3" class="node"><title>Node3</title>
<g id="a_node3"><a xlink:href="blackhole_8c.html" target="_top" xlink:title="routines for gas accretion onto black holes, and black hole mergers ">
<polygon fill="white" stroke="black" points="159.312,-288.5 159.312,-307.5 225.312,-307.5 225.312,-288.5 159.312,-288.5"/>
<text text-anchor="middle" x="192.312" y="-295.5" font-family="Helvetica,sans-Serif" font-size="10.00">blackhole.c</text>
</a>
</g>
</g>
<!-- Node2&#45;&gt;Node3 -->
<g id="edge2" class="edge"><title>Node2&#45;&gt;Node3</title>
<path fill="none" stroke="midnightblue" d="M142.767,-127.074C154.383,-167.149 180.712,-257.981 189.441,-288.094"/>
<polygon fill="midnightblue" stroke="midnightblue" points="146.114,-126.047 139.968,-117.417 139.391,-127.996 146.114,-126.047"/>
</g>
<!-- Node4 -->
<g id="node4" class="node"><title>Node4</title>
<g id="a_node4"><a xlink:href="density_8c.html" target="_top" xlink:title="SPH density computation and smoothing length determination. ">
<polygon fill="white" stroke="black" points="115.061,-279.816 115.061,-298.816 171.061,-298.816 171.061,-279.816 115.061,-279.816"/>
<text text-anchor="middle" x="143.061" y="-286.816" font-family="Helvetica,sans-Serif" font-size="10.00">density.c</text>
</a>
</g>
</g>
<!-- Node2&#45;&gt;Node4 -->
<g id="edge3" class="edge"><title>Node2&#45;&gt;Node4</title>
<path fill="none" stroke="midnightblue" d="M137.801,-127.515C139.06,-166.24 141.807,-250.743 142.742,-279.504"/>
<polygon fill="midnightblue" stroke="midnightblue" points="141.298,-127.364 137.475,-117.483 134.301,-127.591 141.298,-127.364"/>
</g>
<!-- Node2&#45;&gt;Node5 -->
<g id="edge4" class="edge"><title>Node2&#45;&gt;Node5</title>
<path fill="none" stroke="midnightblue" d="M156.297,-123.78C164.499,-130.662 173.802,-138.468 180.899,-144.423"/>
<polygon fill="midnightblue" stroke="midnightblue" points="158.496,-121.055 148.585,-117.309 153.996,-126.418 158.496,-121.055"/>
</g>
<!-- Node6 -->
<g id="node6" class="node"><title>Node6</title>
<g id="a_node6"><a xlink:href="drift_8c.html" target="_top" xlink:title="drift.c">
<polygon fill="white" stroke="black" points="79.2509,-254.81 79.2509,-273.81 120.251,-273.81 120.251,-254.81 79.2509,-254.81"/>
<text text-anchor="middle" x="99.7509" y="-261.81" font-family="Helvetica,sans-Serif" font-size="10.00">drift.c</text>
</a>
</g>
</g>
<!-- Node2&#45;&gt;Node6 -->
<g id="edge5" class="edge"><title>Node2&#45;&gt;Node6</title>
<path fill="none" stroke="midnightblue" d="M132.408,-127.602C124.31,-161.499 108.124,-229.257 102.09,-254.519"/>
<polygon fill="midnightblue" stroke="midnightblue" points="135.898,-128.054 134.817,-117.515 129.089,-126.428 135.898,-128.054"/>
</g>
<!-- Node7 -->
<g id="node7" class="node"><title>Node7</title>
<g id="a_node7"><a xlink:href="global_8c.html" target="_top" xlink:title="global.c">
<polygon fill="white" stroke="black" points="42.6047,-216.5 42.6047,-235.5 92.6047,-235.5 92.6047,-216.5 42.6047,-216.5"/>
<text text-anchor="middle" x="67.6047" y="-223.5" font-family="Helvetica,sans-Serif" font-size="10.00">global.c</text>
</a>
</g>
</g>
<!-- Node2&#45;&gt;Node7 -->
<g id="edge6" class="edge"><title>Node2&#45;&gt;Node7</title>
<path fill="none" stroke="midnightblue" d="M126.361,-126.08C111.43,-151.47 85.007,-196.406 73.3751,-216.187"/>
<polygon fill="midnightblue" stroke="midnightblue" points="129.413,-127.793 131.465,-117.399 123.379,-124.245 129.413,-127.793"/>
</g>
<!-- Node8 -->
<g id="node8" class="node"><title>Node8</title>
<g id="a_node8"><a xlink:href="gravshort-pair_8c.html" target="_top" xlink:title="gravshort&#45;pair.c">
<polygon fill="white" stroke="black" points="8.5,-169.505 8.5,-188.505 92.5,-188.505 92.5,-169.505 8.5,-169.505"/>
<text text-anchor="middle" x="50.5" y="-176.505" font-family="Helvetica,sans-Serif" font-size="10.00">gravshort&#45;pair.c</text>
</a>
</g>
</g>
<!-- Node2&#45;&gt;Node8 -->
<g id="edge7" class="edge"><title>Node2&#45;&gt;Node8</title>
<path fill="none" stroke="midnightblue" d="M117.299,-124.055C100.303,-138.036 76.405,-157.695 62.2786,-169.316"/>
<polygon fill="midnightblue" stroke="midnightblue" points="119.971,-126.389 125.47,-117.333 115.524,-120.983 119.971,-126.389"/>
</g>
<!-- Node9 -->
<g id="node9" class="node"><title>Node9</title>
<g id="a_node9"><a xlink:href="gravshort-tree-old_8c.html" target="_top" xlink:title="gravshort&#45;tree&#45;old.c">
<polygon fill="white" stroke="black" points="-2.13163e-14,-119.495 -2.13163e-14,-138.495 101,-138.495 101,-119.495 -2.13163e-14,-119.495"/>
<text text-anchor="middle" x="50.5" y="-126.495" font-family="Helvetica,sans-Serif" font-size="10.00">gravshort&#45;tree&#45;old.c</text>
</a>
</g>
</g>
<!-- Node2&#45;&gt;Node9 -->
<g id="edge8" class="edge"><title>Node2&#45;&gt;Node9</title>
<path fill="none" stroke="midnightblue" d="M95.9097,-117.846C93.7529,-118.376 91.5892,-118.907 89.44,-119.434"/>
<polygon fill="midnightblue" stroke="midnightblue" points="96.9948,-121.184 105.872,-115.4 95.3258,-114.386 96.9948,-121.184"/>
</g>
<!-- Node10 -->
<g id="node10" class="node"><title>Node10</title>
<g id="a_node10"><a xlink:href="gravshort-tree_8c.html" target="_top" xlink:title="gravshort&#45;tree.c">
<polygon fill="white" stroke="black" points="25.1047,-72.5 25.1047,-91.5 110.105,-91.5 110.105,-72.5 25.1047,-72.5"/>
<text text-anchor="middle" x="67.6047" y="-79.5" font-family="Helvetica,sans-Serif" font-size="10.00">gravshort&#45;tree.c</text>
</a>
</g>
</g>
<!-- Node2&#45;&gt;Node10 -->
<g id="edge9" class="edge"><title>Node2&#45;&gt;Node10</title>
<path fill="none" stroke="midnightblue" d="M101.683,-94.6016C99.0147,-93.6149 96.3517,-92.6301 93.757,-91.6707"/>
<polygon fill="midnightblue" stroke="midnightblue" points="100.665,-97.9568 111.258,-98.1424 103.093,-91.3913 100.665,-97.9568"/>
</g>
<!-- Node11 -->
<g id="node11" class="node"><title>Node11</title>
<g id="a_node11"><a xlink:href="hydra_8c.html" target="_top" xlink:title="Computation of SPH forces and rate of entropy generation. ">
<polygon fill="white" stroke="black" points="75.2509,-34.1896 75.2509,-53.1896 124.251,-53.1896 124.251,-34.1896 75.2509,-34.1896"/>
<text text-anchor="middle" x="99.7509" y="-41.1896" font-family="Helvetica,sans-Serif" font-size="10.00">hydra.c</text>
</a>
</g>
</g>
<!-- Node2&#45;&gt;Node11 -->
<g id="edge10" class="edge"><title>Node2&#45;&gt;Node11</title>
<path fill="none" stroke="midnightblue" d="M126.264,-89.0734C119.469,-77.442 110.998,-62.9409 105.486,-53.5059"/>
<polygon fill="midnightblue" stroke="midnightblue" points="123.409,-91.1255 131.476,-97.9946 129.454,-87.5945 123.409,-91.1255"/>
</g>
<!-- Node2&#45;&gt;Node12 -->
<g id="edge11" class="edge"><title>Node2&#45;&gt;Node12</title>
<path fill="none" stroke="midnightblue" d="M173.253,-120.783C215.057,-135.913 282.356,-160.269 315.06,-172.105"/>
<polygon fill="midnightblue" stroke="midnightblue" points="174.315,-117.445 163.721,-117.333 171.933,-124.028 174.315,-117.445"/>
</g>
<!-- Node13 -->
<g id="node13" class="node"><title>Node13</title>
<g id="a_node13"><a xlink:href="petaio_8c.html" target="_top" xlink:title="petaio.c">
<polygon fill="white" stroke="black" points="117.561,-9.18426 117.561,-28.1843 168.561,-28.1843 168.561,-9.18426 117.561,-9.18426"/>
<text text-anchor="middle" x="143.061" y="-16.1843" font-family="Helvetica,sans-Serif" font-size="10.00">petaio.c</text>
</a>
</g>
</g>
<!-- Node2&#45;&gt;Node13 -->
<g id="edge12" class="edge"><title>Node2&#45;&gt;Node13</title>
<path fill="none" stroke="midnightblue" d="M138.451,-88.2103C139.677,-69.7229 141.468,-42.7178 142.416,-28.414"/>
<polygon fill="midnightblue" stroke="midnightblue" points="134.958,-87.9813 137.789,-98.191 141.943,-88.4445 134.958,-87.9813"/>
</g>
<!-- Node14 -->
<g id="node14" class="node"><title>Node14</title>
<g id="a_node14"><a xlink:href="run_8c.html" target="_top" xlink:title="iterates over timesteps, main loop ">
<polygon fill="white" stroke="black" points="173.312,-0.5 173.312,-19.5 211.312,-19.5 211.312,-0.5 173.312,-0.5"/>
<text text-anchor="middle" x="192.312" y="-7.5" font-family="Helvetica,sans-Serif" font-size="10.00">run.c</text>
</a>
</g>
</g>
<!-- Node2&#45;&gt;Node14 -->
<g id="edge13" class="edge"><title>Node2&#45;&gt;Node14</title>
<path fill="none" stroke="midnightblue" d="M147.62,-89.1813C159.294,-68.4995 177.733,-35.8308 186.844,-19.6876"/>
<polygon fill="midnightblue" stroke="midnightblue" points="144.515,-87.5634 142.647,-97.9923 150.611,-91.0041 144.515,-87.5634"/>
</g>
<!-- Node15 -->
<g id="node15" class="node"><title>Node15</title>
<g id="a_node15"><a xlink:href="runtests_8c.html" target="_top" xlink:title="runtests.c">
<polygon fill="white" stroke="black" points="211.563,-9.18426 211.563,-28.1843 271.563,-28.1843 271.563,-9.18426 211.563,-9.18426"/>
<text text-anchor="middle" x="241.563" y="-16.1843" font-family="Helvetica,sans-Serif" font-size="10.00">runtests.c</text>
</a>
</g>
</g>
<!-- Node2&#45;&gt;Node15 -->
<g id="edge14" class="edge"><title>Node2&#45;&gt;Node15</title>
<path fill="none" stroke="midnightblue" d="M156.182,-91.4954C177.792,-73.0666 212.357,-43.5908 230.154,-28.414"/>
<polygon fill="midnightblue" stroke="midnightblue" points="153.668,-89.0391 148.33,-98.191 158.21,-94.3654 153.668,-89.0391"/>
</g>
<!-- Node16 -->
<g id="node16" class="node"><title>Node16</title>
<g id="a_node16"><a xlink:href="sfr__eff_8c.html" target="_top" xlink:title="sfr_eff.c">
<polygon fill="white" stroke="black" points="258.374,-34.1896 258.374,-53.1896 311.374,-53.1896 311.374,-34.1896 258.374,-34.1896"/>
<text text-anchor="middle" x="284.874" y="-41.1896" font-family="Helvetica,sans-Serif" font-size="10.00">sfr_eff.c</text>
</a>
</g>
</g>
<!-- Node2&#45;&gt;Node16 -->
<g id="edge15" class="edge"><title>Node2&#45;&gt;Node16</title>
<path fill="none" stroke="midnightblue" d="M168.695,-94.0488C196.935,-81.8078 237.634,-64.1664 262.608,-53.341"/>
<polygon fill="midnightblue" stroke="midnightblue" points="167.055,-90.945 159.272,-98.1334 169.839,-97.3676 167.055,-90.945"/>
</g>
<!-- Node17 -->
<g id="node17" class="node"><title>Node17</title>
<g id="a_node17"><a xlink:href="timestep_8c.html" target="_top" xlink:title="routines for &#39;kicking&#39; particles in momentum space and assigning new timesteps ">
<polygon fill="white" stroke="black" points="286.02,-72.5 286.02,-91.5 348.02,-91.5 348.02,-72.5 286.02,-72.5"/>
<text text-anchor="middle" x="317.02" y="-79.5" font-family="Helvetica,sans-Serif" font-size="10.00">timestep.c</text>
</a>
</g>
</g>
<!-- Node2&#45;&gt;Node17 -->
<g id="edge16" class="edge"><title>Node2&#45;&gt;Node17</title>
<path fill="none" stroke="midnightblue" d="M178.625,-101.79C211.272,-97.1213 256.07,-90.7155 285.748,-86.4717"/>
<polygon fill="midnightblue" stroke="midnightblue" points="177.891,-98.359 168.487,-103.239 178.882,-105.288 177.891,-98.359"/>
</g>
<!-- Node18 -->
<g id="node18" class="node"><title>Node18</title>
<g id="a_node18"><a xlink:href="treewalk_8c.html" target="_top" xlink:title="treewalk.c">
<polygon fill="white" stroke="black" points="303.125,-119.495 303.125,-138.495 365.125,-138.495 365.125,-119.495 303.125,-119.495"/>
<text text-anchor="middle" x="334.125" y="-126.495" font-family="Helvetica,sans-Serif" font-size="10.00">treewalk.c</text>
</a>
</g>
</g>
<!-- Node2&#45;&gt;Node18 -->
<g id="edge17" class="edge"><title>Node2&#45;&gt;Node18</title>
<path fill="none" stroke="midnightblue" d="M178.379,-112.172C215.554,-116.187 269.407,-122.004 303.061,-125.639"/>
<polygon fill="midnightblue" stroke="midnightblue" points="178.685,-108.685 168.367,-111.09 177.933,-115.644 178.685,-108.685"/>
</g>
</g>
</svg>
