<?xml version="1.0" encoding="UTF-8" standalone="no"?>
<!DOCTYPE svg PUBLIC "-//W3C//DTD SVG 1.1//EN"
 "http://www.w3.org/Graphics/SVG/1.1/DTD/svg11.dtd">
<!-- Generated by graphviz version 2.38.0 (20140413.2041)
 -->
<!-- Title: get_long_range_timestep_dloga Pages: 1 -->
<svg width="484pt" height="142pt"
 viewBox="0.00 0.00 484.00 142.00" xmlns="http://www.w3.org/2000/svg" xmlns:xlink="http://www.w3.org/1999/xlink">
<g id="graph0" class="graph" transform="scale(1 1) rotate(0) translate(4 138)">
<title>get_long_range_timestep_dloga</title>
<polygon fill="white" stroke="none" points="-4,4 -4,-138 480,-138 480,4 -4,4"/>
<!-- Node143 -->
<g id="node1" class="node"><title>Node143</title>
<polygon fill="#bfbfbf" stroke="black" points="0,-52 0,-82 125,-82 125,-52 0,-52"/>
<text text-anchor="start" x="8" y="-70" font-family="Helvetica,sans-Serif" font-size="10.00">get_long_range_timestep</text>
<text text-anchor="middle" x="62.5" y="-59" font-family="Helvetica,sans-Serif" font-size="10.00">_dloga</text>
</g>
<!-- Node144 -->
<g id="node2" class="node"><title>Node144</title>
<g id="a_node2"><a xlink:href="system_8c.html#a1d471d98379273269e8045d2998eca73" target="_top" xlink:title="count_sum">
<polygon fill="white" stroke="black" points="175,-114.5 175,-133.5 240,-133.5 240,-114.5 175,-114.5"/>
<text text-anchor="middle" x="207.5" y="-121.5" font-family="Helvetica,sans-Serif" font-size="10.00">count_sum</text>
</a>
</g>
</g>
<!-- Node143&#45;&gt;Node144 -->
<g id="edge1" class="edge"><title>Node143&#45;&gt;Node144</title>
<path fill="none" stroke="midnightblue" d="M101.446,-82.1253C123.69,-90.9917 151.537,-102.091 172.971,-110.635"/>
<polygon fill="midnightblue" stroke="midnightblue" points="171.739,-113.912 182.324,-114.363 174.331,-107.409 171.739,-113.912"/>
</g>
<!-- Node145 -->
<g id="node3" class="node"><title>Node145</title>
<g id="a_node3"><a xlink:href="allvars_8h.html#a310e6c512e36e9b5f852ada300400412" target="_top" xlink:title="DMIN">
<polygon fill="white" stroke="black" points="186,-76.5 186,-95.5 229,-95.5 229,-76.5 186,-76.5"/>
<text text-anchor="middle" x="207.5" y="-83.5" font-family="Helvetica,sans-Serif" font-size="10.00">DMIN</text>
</a>
</g>
</g>
<!-- Node143&#45;&gt;Node145 -->
<g id="edge2" class="edge"><title>Node143&#45;&gt;Node145</title>
<path fill="none" stroke="midnightblue" d="M125.39,-75.2232C142.883,-77.5474 161.158,-79.9756 175.923,-81.9373"/>
<polygon fill="midnightblue" stroke="midnightblue" points="175.619,-85.4276 185.993,-83.2752 176.541,-78.4885 175.619,-85.4276"/>
</g>
<!-- Node146 -->
<g id="node4" class="node"><title>Node146</title>
<g id="a_node4"><a xlink:href="endrun_8c.html#a6567cd867c5549fb6586e19ccd819764" target="_top" xlink:title="message">
<polygon fill="white" stroke="black" points="179.5,-38.5 179.5,-57.5 235.5,-57.5 235.5,-38.5 179.5,-38.5"/>
<text text-anchor="middle" x="207.5" y="-45.5" font-family="Helvetica,sans-Serif" font-size="10.00">message</text>
</a>
</g>
</g>
<!-- Node143&#45;&gt;Node146 -->
<g id="edge3" class="edge"><title>Node143&#45;&gt;Node146</title>
<path fill="none" stroke="midnightblue" d="M125.39,-58.7768C140.28,-56.7984 155.737,-54.7447 169.113,-52.9675"/>
<polygon fill="midnightblue" stroke="midnightblue" points="169.892,-56.3948 179.344,-51.6082 168.97,-49.4558 169.892,-56.3948"/>
</g>
<!-- Node150 -->
<g id="node8" class="node"><title>Node150</title>
<g id="a_node8"><a xlink:href="system_8c.html#a866c4b0425665030c89933c11752b1fe" target="_top" xlink:title="sumup_large_ints">
<polygon fill="white" stroke="black" points="161,-0.5 161,-19.5 254,-19.5 254,-0.5 161,-0.5"/>
<text text-anchor="middle" x="207.5" y="-7.5" font-family="Helvetica,sans-Serif" font-size="10.00">sumup_large_ints</text>
</a>
</g>
</g>
<!-- Node143&#45;&gt;Node150 -->
<g id="edge7" class="edge"><title>Node143&#45;&gt;Node150</title>
<path fill="none" stroke="midnightblue" d="M101.446,-51.8747C123.69,-43.0083 151.537,-31.9085 172.971,-23.3649"/>
<polygon fill="midnightblue" stroke="midnightblue" points="174.331,-26.5905 182.324,-19.6365 171.739,-20.0881 174.331,-26.5905"/>
</g>
<!-- Node147 -->
<g id="node5" class="node"><title>Node147</title>
<g id="a_node5"><a xlink:href="endrun_8c.html#a7267113a7c0a094743bb565eabc695d1" target="_top" xlink:title="messagev">
<polygon fill="white" stroke="black" points="290,-38.5 290,-57.5 352,-57.5 352,-38.5 290,-38.5"/>
<text text-anchor="middle" x="321" y="-45.5" font-family="Helvetica,sans-Serif" font-size="10.00">messagev</text>
</a>
</g>
</g>
<!-- Node146&#45;&gt;Node147 -->
<g id="edge4" class="edge"><title>Node146&#45;&gt;Node147</title>
<path fill="none" stroke="midnightblue" d="M235.776,-48C248.953,-48 265.032,-48 279.595,-48"/>
<polygon fill="midnightblue" stroke="midnightblue" points="279.869,-51.5001 289.869,-48 279.869,-44.5001 279.869,-51.5001"/>
</g>
<!-- Node148 -->
<g id="node6" class="node"><title>Node148</title>
<g id="a_node6"><a xlink:href="endrun_8c.html#a87108946670b4c3afbe846c6726675ff" target="_top" xlink:title="putline">
<polygon fill="white" stroke="black" points="409.5,-57.5 409.5,-76.5 454.5,-76.5 454.5,-57.5 409.5,-57.5"/>
<text text-anchor="middle" x="432" y="-64.5" font-family="Helvetica,sans-Serif" font-size="10.00">putline</text>
</a>
</g>
</g>
<!-- Node147&#45;&gt;Node148 -->
<g id="edge5" class="edge"><title>Node147&#45;&gt;Node148</title>
<path fill="none" stroke="midnightblue" d="M352.073,-53.2421C366.677,-55.7877 384.231,-58.8476 399.072,-61.4346"/>
<polygon fill="midnightblue" stroke="midnightblue" points="398.866,-64.9514 409.318,-63.2207 400.068,-58.0553 398.866,-64.9514"/>
</g>
<!-- Node149 -->
<g id="node7" class="node"><title>Node149</title>
<g id="a_node7"><a xlink:href="endrun_8c.html#a1200f02a595ab7cbe17c9e36ff32af0f" target="_top" xlink:title="show_backtrace">
<polygon fill="white" stroke="black" points="388,-19.5 388,-38.5 476,-38.5 476,-19.5 388,-19.5"/>
<text text-anchor="middle" x="432" y="-26.5" font-family="Helvetica,sans-Serif" font-size="10.00">show_backtrace</text>
</a>
</g>
</g>
<!-- Node147&#45;&gt;Node149 -->
<g id="edge6" class="edge"><title>Node147&#45;&gt;Node149</title>
<path fill="none" stroke="midnightblue" d="M352.073,-42.7579C360.131,-41.3533 369.087,-39.7921 377.991,-38.2402"/>
<polygon fill="midnightblue" stroke="midnightblue" points="378.719,-41.6661 387.969,-36.5008 377.517,-34.7701 378.719,-41.6661"/>
</g>
</g>
</svg>
