<?xml version="1.0" encoding="UTF-8" standalone="no"?>
<!DOCTYPE svg PUBLIC "-//W3C//DTD SVG 1.1//EN"
 "http://www.w3.org/Graphics/SVG/1.1/DTD/svg11.dtd">
<!-- Generated by graphviz version 2.50.0 (0)
 -->
<!-- Title: init_driftkicktime Pages: 1 -->
<svg width="603pt" height="174pt"
 viewBox="0.00 0.00 603.00 173.73" xmlns="http://www.w3.org/2000/svg" xmlns:xlink="http://www.w3.org/1999/xlink">
<g id="graph0" class="graph" transform="scale(1 1) rotate(0) translate(4 169.73)">
<title>init_driftkicktime</title>
<polygon fill="white" stroke="transparent" points="-4,4 -4,-169.73 599,-169.73 599,4 -4,4"/>
<!-- Node1 -->
<g id="node1" class="node">
<title>Node1</title>
<g id="a_node1"><a xlink:title=" ">
<polygon fill="#bfbfbf" stroke="black" points="495,-70.23 495,-89.23 595,-89.23 595,-70.23 495,-70.23"/>
<text text-anchor="middle" x="545" y="-77.23" font-family="Helvetica,sans-Serif" font-size="10.00">init_driftkicktime</text>
</a>
</g>
</g>
<!-- Node2 -->
<g id="node2" class="node">
<title>Node2</title>
<g id="a_node2"><a xlink:href="run_8c.html#a89690448ef43a8d624b963382b7503ed" target="_top" xlink:title=" ">
<polygon fill="white" stroke="black" points="89,-146.23 89,-165.23 121,-165.23 121,-146.23 89,-146.23"/>
<text text-anchor="middle" x="105" y="-153.23" font-family="Helvetica,sans-Serif" font-size="10.00">run</text>
</a>
</g>
</g>
<!-- Node1&#45;&gt;Node2 -->
<g id="edge1" class="edge">
<title>Node1&#45;&gt;Node2</title>
<path fill="none" stroke="midnightblue" d="M526.13,-95.96C509.92,-109.59 484.69,-128.16 459,-136.73 334.42,-178.33 171.45,-163.66 121.33,-157.73"/>
<polygon fill="midnightblue" stroke="midnightblue" points="528.48,-98.56 533.74,-89.37 523.89,-93.27 528.48,-98.56"/>
</g>
<!-- Node4 -->
<g id="node4" class="node">
<title>Node4</title>
<g id="a_node4"><a xlink:href="run_8h.html#aa438e424237818b7728b98cd764e45d1" target="_top" xlink:title=" ">
<polygon fill="white" stroke="black" points="352.5,-108.23 352.5,-127.23 448.5,-127.23 448.5,-108.23 352.5,-108.23"/>
<text text-anchor="middle" x="400.5" y="-115.23" font-family="Helvetica,sans-Serif" font-size="10.00">run_gravity_test</text>
</a>
</g>
</g>
<!-- Node1&#45;&gt;Node4 -->
<g id="edge3" class="edge">
<title>Node1&#45;&gt;Node4</title>
<path fill="none" stroke="midnightblue" d="M498.35,-91.91C478.64,-97.16 455.93,-103.22 437.45,-108.15"/>
<polygon fill="midnightblue" stroke="midnightblue" points="499.28,-95.28 508.04,-89.32 497.48,-88.52 499.28,-95.28"/>
</g>
<!-- Node6 -->
<g id="node6" class="node">
<title>Node6</title>
<g id="a_node6"><a xlink:href="run_8c.html#a02ef4c629cc0fea15dce527f09ea672f" target="_top" xlink:title=" ">
<polygon fill="white" stroke="black" points="214.5,-70.23 214.5,-89.23 260.5,-89.23 260.5,-70.23 214.5,-70.23"/>
<text text-anchor="middle" x="237.5" y="-77.23" font-family="Helvetica,sans-Serif" font-size="10.00">runfof</text>
</a>
</g>
</g>
<!-- Node1&#45;&gt;Node6 -->
<g id="edge6" class="edge">
<title>Node1&#45;&gt;Node6</title>
<path fill="none" stroke="midnightblue" d="M484.71,-79.73C416.25,-79.73 307.1,-79.73 260.62,-79.73"/>
<polygon fill="midnightblue" stroke="midnightblue" points="484.92,-83.23 494.92,-79.73 484.92,-76.23 484.92,-83.23"/>
</g>
<!-- Node7 -->
<g id="node7" class="node">
<title>Node7</title>
<g id="a_node7"><a xlink:href="init_8c.html#af35b2ff44ee11141241741fa051ad2ac" target="_top" xlink:title=" ">
<polygon fill="white" stroke="black" points="342,-20.73 342,-50.73 459,-50.73 459,-20.73 342,-20.73"/>
<text text-anchor="start" x="350" y="-38.73" font-family="Helvetica,sans-Serif" font-size="10.00">setup_density_indep</text>
<text text-anchor="middle" x="400.5" y="-27.73" font-family="Helvetica,sans-Serif" font-size="10.00">_entropy</text>
</a>
</g>
</g>
<!-- Node1&#45;&gt;Node7 -->
<g id="edge8" class="edge">
<title>Node1&#45;&gt;Node7</title>
<path fill="none" stroke="midnightblue" d="M503.2,-67.14C486.7,-62.04 467.52,-56.12 450.29,-50.8"/>
<polygon fill="midnightblue" stroke="midnightblue" points="502.49,-70.58 513.08,-70.19 504.56,-63.89 502.49,-70.58"/>
</g>
<!-- Node8 -->
<g id="node8" class="node">
<title>Node8</title>
<g id="a_node8"><a xlink:href="init_8c.html#a713a74e1e0ca55699bc6581763bae177" target="_top" xlink:title=" ">
<polygon fill="white" stroke="black" points="169,-26.23 169,-45.23 306,-45.23 306,-26.23 169,-26.23"/>
<text text-anchor="middle" x="237.5" y="-33.23" font-family="Helvetica,sans-Serif" font-size="10.00">setup_smoothinglengths</text>
</a>
</g>
</g>
<!-- Node1&#45;&gt;Node8 -->
<g id="edge12" class="edge">
<title>Node1&#45;&gt;Node8</title>
<path fill="none" stroke="midnightblue" d="M529.4,-62.41C513.93,-45.53 487.79,-20.95 459,-10.73 390.92,13.42 304.28,-11.22 262.79,-26.13"/>
<polygon fill="midnightblue" stroke="midnightblue" points="526.86,-64.82 536.1,-69.99 532.1,-60.18 526.86,-64.82"/>
</g>
<!-- Node3 -->
<g id="node3" class="node">
<title>Node3</title>
<g id="a_node3"><a xlink:href="gadget_2main_8c.html#a3c04138a5bfe5d72780bb7e82a18e627" target="_top" xlink:title=" ">
<polygon fill="white" stroke="black" points="0,-89.23 0,-108.23 41,-108.23 41,-89.23 0,-89.23"/>
<text text-anchor="middle" x="20.5" y="-96.23" font-family="Helvetica,sans-Serif" font-size="10.00">main</text>
</a>
</g>
</g>
<!-- Node2&#45;&gt;Node3 -->
<g id="edge2" class="edge">
<title>Node2&#45;&gt;Node3</title>
<path fill="none" stroke="midnightblue" d="M81.43,-140.14C66.67,-129.94 47.86,-116.95 35.29,-108.26"/>
<polygon fill="midnightblue" stroke="midnightblue" points="79.79,-143.26 90,-146.07 83.77,-137.5 79.79,-143.26"/>
</g>
<!-- Node5 -->
<g id="node5" class="node">
<title>Node5</title>
<g id="a_node5"><a xlink:href="run_8c.html#ab1d8bf99f794003fa95002043fe3b47c" target="_top" xlink:title=" ">
<polygon fill="white" stroke="black" points="77,-108.23 77,-127.23 133,-127.23 133,-108.23 77,-108.23"/>
<text text-anchor="middle" x="105" y="-115.23" font-family="Helvetica,sans-Serif" font-size="10.00">runtests</text>
</a>
</g>
</g>
<!-- Node4&#45;&gt;Node5 -->
<g id="edge4" class="edge">
<title>Node4&#45;&gt;Node5</title>
<path fill="none" stroke="midnightblue" d="M342.17,-117.73C279.15,-117.73 180.59,-117.73 133.21,-117.73"/>
<polygon fill="midnightblue" stroke="midnightblue" points="342.34,-121.23 352.34,-117.73 342.34,-114.23 342.34,-121.23"/>
</g>
<!-- Node5&#45;&gt;Node3 -->
<g id="edge5" class="edge">
<title>Node5&#45;&gt;Node3</title>
<path fill="none" stroke="midnightblue" d="M67.13,-109.24C58.21,-107.19 49.02,-105.07 41.25,-103.28"/>
<polygon fill="midnightblue" stroke="midnightblue" points="66.46,-112.68 76.99,-111.51 68.03,-105.86 66.46,-112.68"/>
</g>
<!-- Node6&#45;&gt;Node3 -->
<g id="edge7" class="edge">
<title>Node6&#45;&gt;Node3</title>
<path fill="none" stroke="midnightblue" d="M204.15,-82.59C158.91,-86.59 78.14,-93.73 41.07,-97.01"/>
<polygon fill="midnightblue" stroke="midnightblue" points="204.65,-86.06 214.3,-81.7 204.03,-79.09 204.65,-86.06"/>
</g>
<!-- Node7&#45;&gt;Node8 -->
<g id="edge9" class="edge">
<title>Node7&#45;&gt;Node8</title>
<path fill="none" stroke="midnightblue" d="M331.67,-35.73C323.24,-35.73 314.62,-35.73 306.2,-35.73"/>
<polygon fill="midnightblue" stroke="midnightblue" points="331.83,-39.23 341.83,-35.73 331.83,-32.23 331.83,-39.23"/>
</g>
<!-- Node9 -->
<g id="node9" class="node">
<title>Node9</title>
<g id="a_node9"><a xlink:href="run_8c.html#aee4609880c9e92e1c421c4bd238589fd" target="_top" xlink:title=" ">
<polygon fill="white" stroke="black" points="80,-29.23 80,-48.23 130,-48.23 130,-29.23 80,-29.23"/>
<text text-anchor="middle" x="105" y="-36.23" font-family="Helvetica,sans-Serif" font-size="10.00">begrun</text>
</a>
</g>
</g>
<!-- Node8&#45;&gt;Node9 -->
<g id="edge10" class="edge">
<title>Node8&#45;&gt;Node9</title>
<path fill="none" stroke="midnightblue" d="M158.9,-37.52C148.5,-37.76 138.54,-37.99 130.13,-38.18"/>
<polygon fill="midnightblue" stroke="midnightblue" points="159.04,-41.02 168.96,-37.29 158.88,-34.02 159.04,-41.02"/>
</g>
<!-- Node9&#45;&gt;Node3 -->
<g id="edge11" class="edge">
<title>Node9&#45;&gt;Node3</title>
<path fill="none" stroke="midnightblue" d="M82.46,-54.4C67.33,-65.4 47.58,-79.77 34.72,-89.12"/>
<polygon fill="midnightblue" stroke="midnightblue" points="84.72,-57.09 90.74,-48.37 80.6,-51.43 84.72,-57.09"/>
</g>
</g>
</svg>
