<?xml version="1.0" encoding="UTF-8" standalone="no"?>
<!DOCTYPE svg PUBLIC "-//W3C//DTD SVG 1.1//EN"
 "http://www.w3.org/Graphics/SVG/1.1/DTD/svg11.dtd">
<!-- Generated by graphviz version 2.38.0 (20140413.2041)
 -->
<!-- Title: timestep_allocate_memory Pages: 1 -->
<svg width="142pt" height="604pt"
 viewBox="0.00 0.00 142.00 604.00" xmlns="http://www.w3.org/2000/svg" xmlns:xlink="http://www.w3.org/1999/xlink">
<g id="graph0" class="graph" transform="scale(1 1) rotate(0) translate(4 600)">
<title>timestep_allocate_memory</title>
<polygon fill="white" stroke="none" points="-4,4 -4,-600 138,-600 138,4 -4,4"/>
<!-- Node237 -->
<g id="node1" class="node"><title>Node237</title>
<polygon fill="#bfbfbf" stroke="black" points="0,-576.5 0,-595.5 134,-595.5 134,-576.5 0,-576.5"/>
<text text-anchor="middle" x="67" y="-583.5" font-family="Helvetica,sans-Serif" font-size="10.00">timestep_allocate_memory</text>
</g>
<!-- Node238 -->
<g id="node2" class="node"><title>Node238</title>
<g id="a_node2"><a xlink:href="petaio_8c.html#aaa9eefdbfea91c08aa366767aac96a69" target="_top" xlink:title="petaio_read_internal">
<polygon fill="white" stroke="black" points="15,-504.5 15,-523.5 119,-523.5 119,-504.5 15,-504.5"/>
<text text-anchor="middle" x="67" y="-511.5" font-family="Helvetica,sans-Serif" font-size="10.00">petaio_read_internal</text>
</a>
</g>
</g>
<!-- Node237&#45;&gt;Node238 -->
<g id="edge1" class="edge"><title>Node237&#45;&gt;Node238</title>
<path fill="none" stroke="midnightblue" d="M67,-566.243C67,-552.357 67,-534.393 67,-523.556"/>
<polygon fill="midnightblue" stroke="midnightblue" points="63.5001,-566.29 67,-576.29 70.5001,-566.29 63.5001,-566.29"/>
</g>
<!-- Node239 -->
<g id="node3" class="node"><title>Node239</title>
<g id="a_node3"><a xlink:href="petaio_8h.html#a3dd52bd7a320fa9ef1c7963d060ae4ec" target="_top" xlink:title="petaio_read_snapshot">
<polygon fill="white" stroke="black" points="11,-432.5 11,-451.5 123,-451.5 123,-432.5 11,-432.5"/>
<text text-anchor="middle" x="67" y="-439.5" font-family="Helvetica,sans-Serif" font-size="10.00">petaio_read_snapshot</text>
</a>
</g>
</g>
<!-- Node238&#45;&gt;Node239 -->
<g id="edge2" class="edge"><title>Node238&#45;&gt;Node239</title>
<path fill="none" stroke="midnightblue" d="M67,-494.243C67,-480.357 67,-462.393 67,-451.556"/>
<polygon fill="midnightblue" stroke="midnightblue" points="63.5001,-494.29 67,-504.29 70.5001,-494.29 63.5001,-494.29"/>
</g>
<!-- Node240 -->
<g id="node4" class="node"><title>Node240</title>
<g id="a_node4"><a xlink:href="proto_8h.html#ab080cb20bac2a1a6153a84e8cfd15374" target="_top" xlink:title="init">
<polygon fill="white" stroke="black" points="52.5,-360.5 52.5,-379.5 81.5,-379.5 81.5,-360.5 52.5,-360.5"/>
<text text-anchor="middle" x="67" y="-367.5" font-family="Helvetica,sans-Serif" font-size="10.00">init</text>
</a>
</g>
</g>
<!-- Node239&#45;&gt;Node240 -->
<g id="edge3" class="edge"><title>Node239&#45;&gt;Node240</title>
<path fill="none" stroke="midnightblue" d="M67,-422.243C67,-408.357 67,-390.393 67,-379.556"/>
<polygon fill="midnightblue" stroke="midnightblue" points="63.5001,-422.29 67,-432.29 70.5001,-422.29 63.5001,-422.29"/>
</g>
<!-- Node241 -->
<g id="node5" class="node"><title>Node241</title>
<g id="a_node5"><a xlink:href="proto_8h.html#a74dc0e5e9eefe11fc8434b62de573146" target="_top" xlink:title="begrun">
<polygon fill="white" stroke="black" points="44,-288.5 44,-307.5 90,-307.5 90,-288.5 44,-288.5"/>
<text text-anchor="middle" x="67" y="-295.5" font-family="Helvetica,sans-Serif" font-size="10.00">begrun</text>
</a>
</g>
</g>
<!-- Node240&#45;&gt;Node241 -->
<g id="edge4" class="edge"><title>Node240&#45;&gt;Node241</title>
<path fill="none" stroke="midnightblue" d="M67,-350.243C67,-336.357 67,-318.393 67,-307.556"/>
<polygon fill="midnightblue" stroke="midnightblue" points="63.5001,-350.29 67,-360.29 70.5001,-350.29 63.5001,-350.29"/>
</g>
<!-- Node242 -->
<g id="node6" class="node"><title>Node242</title>
<g id="a_node6"><a xlink:href="main_8c.html#a3c04138a5bfe5d72780bb7e82a18e627" target="_top" xlink:title="main">
<polygon fill="white" stroke="black" points="48,-216.5 48,-235.5 86,-235.5 86,-216.5 48,-216.5"/>
<text text-anchor="middle" x="67" y="-223.5" font-family="Helvetica,sans-Serif" font-size="10.00">main</text>
</a>
</g>
</g>
<!-- Node241&#45;&gt;Node242 -->
<g id="edge5" class="edge"><title>Node241&#45;&gt;Node242</title>
<path fill="none" stroke="midnightblue" d="M67,-278.243C67,-264.357 67,-246.393 67,-235.556"/>
<polygon fill="midnightblue" stroke="midnightblue" points="63.5001,-278.29 67,-288.29 70.5001,-278.29 63.5001,-278.29"/>
</g>
<!-- Node243 -->
<g id="node7" class="node"><title>Node243</title>
<g id="a_node7"><a xlink:href="walltime_8h.html#a76d2135b612766d4d665748454b879d6" target="_top" xlink:title="walltime_report">
<polygon fill="white" stroke="black" points="25.5,-0.5 25.5,-19.5 108.5,-19.5 108.5,-0.5 25.5,-0.5"/>
<text text-anchor="middle" x="67" y="-7.5" font-family="Helvetica,sans-Serif" font-size="10.00">walltime_report</text>
</a>
</g>
</g>
<!-- Node242&#45;&gt;Node243 -->
<g id="edge6" class="edge"><title>Node242&#45;&gt;Node243</title>
<path fill="none" stroke="midnightblue" d="M67,-206.266C67,-161.443 67,-53.2692 67,-19.9425"/>
<polygon fill="midnightblue" stroke="midnightblue" points="63.5001,-206.44 67,-216.44 70.5001,-206.44 63.5001,-206.44"/>
</g>
<!-- Node244 -->
<g id="node8" class="node"><title>Node244</title>
<g id="a_node8"><a xlink:href="run_8c.html#adc59e9ee1517e4e690694a64ab6a59d2" target="_top" xlink:title="write_cpu_log">
<polygon fill="white" stroke="black" points="28.5,-72.5 28.5,-91.5 105.5,-91.5 105.5,-72.5 28.5,-72.5"/>
<text text-anchor="middle" x="67" y="-79.5" font-family="Helvetica,sans-Serif" font-size="10.00">write_cpu_log</text>
</a>
</g>
</g>
<!-- Node243&#45;&gt;Node244 -->
<g id="edge7" class="edge"><title>Node243&#45;&gt;Node244</title>
<path fill="none" stroke="midnightblue" d="M67,-29.7574C67,-43.6427 67,-61.607 67,-72.4436"/>
<polygon fill="midnightblue" stroke="midnightblue" points="70.5001,-29.7102 67,-19.7102 63.5001,-29.7103 70.5001,-29.7102"/>
</g>
<!-- Node245 -->
<g id="node9" class="node"><title>Node245</title>
<g id="a_node9"><a xlink:href="run_8c.html#a05e0ffe612d44e6d7f3a9ae5b9df56a2" target="_top" xlink:title="run">
<polygon fill="white" stroke="black" points="52,-144.5 52,-163.5 82,-163.5 82,-144.5 52,-144.5"/>
<text text-anchor="middle" x="67" y="-151.5" font-family="Helvetica,sans-Serif" font-size="10.00">run</text>
</a>
</g>
</g>
<!-- Node244&#45;&gt;Node245 -->
<g id="edge8" class="edge"><title>Node244&#45;&gt;Node245</title>
<path fill="none" stroke="midnightblue" d="M67,-101.757C67,-115.643 67,-133.607 67,-144.444"/>
<polygon fill="midnightblue" stroke="midnightblue" points="70.5001,-101.71 67,-91.7102 63.5001,-101.71 70.5001,-101.71"/>
</g>
<!-- Node245&#45;&gt;Node242 -->
<g id="edge9" class="edge"><title>Node245&#45;&gt;Node242</title>
<path fill="none" stroke="midnightblue" d="M67,-173.757C67,-187.643 67,-205.607 67,-216.444"/>
<polygon fill="midnightblue" stroke="midnightblue" points="70.5001,-173.71 67,-163.71 63.5001,-173.71 70.5001,-173.71"/>
</g>
</g>
</svg>
