<?xml version="1.0" encoding="UTF-8" standalone="no"?>
<!DOCTYPE svg PUBLIC "-//W3C//DTD SVG 1.1//EN"
 "http://www.w3.org/Graphics/SVG/1.1/DTD/svg11.dtd">
<!-- Generated by graphviz version 2.38.0 (20140413.2041)
 -->
<!-- Title: apply_half_kick Pages: 1 -->
<svg width="464pt" height="47pt"
 viewBox="0.00 0.00 464.00 47.00" xmlns="http://www.w3.org/2000/svg" xmlns:xlink="http://www.w3.org/1999/xlink">
<g id="graph0" class="graph" transform="scale(1 1) rotate(0) translate(4 43)">
<title>apply_half_kick</title>
<polygon fill="white" stroke="none" points="-4,4 -4,-43 460,-43 460,4 -4,4"/>
<!-- Node14 -->
<g id="node1" class="node"><title>Node14</title>
<polygon fill="#bfbfbf" stroke="black" points="0,-0.5 0,-19.5 84,-19.5 84,-0.5 0,-0.5"/>
<text text-anchor="middle" x="42" y="-7.5" font-family="Helvetica,sans-Serif" font-size="10.00">apply_half_kick</text>
</g>
<!-- Node15 -->
<g id="node2" class="node"><title>Node15</title>
<g id="a_node2"><a xlink:href="run_8c.html#a05e0ffe612d44e6d7f3a9ae5b9df56a2" target="_top" xlink:title="run">
<polygon fill="white" stroke="black" points="120,-0.5 120,-19.5 150,-19.5 150,-0.5 120,-0.5"/>
<text text-anchor="middle" x="135" y="-7.5" font-family="Helvetica,sans-Serif" font-size="10.00">run</text>
</a>
</g>
</g>
<!-- Node14&#45;&gt;Node15 -->
<g id="edge1" class="edge"><title>Node14&#45;&gt;Node15</title>
<path fill="none" stroke="midnightblue" d="M94.4521,-10C103.81,-10 112.827,-10 119.881,-10"/>
<polygon fill="midnightblue" stroke="midnightblue" points="94.24,-6.5001 84.2399,-10 94.2399,-13.5001 94.24,-6.5001"/>
</g>
<!-- Node16 -->
<g id="node3" class="node"><title>Node16</title>
<g id="a_node3"><a xlink:href="main_8c.html#a3c04138a5bfe5d72780bb7e82a18e627" target="_top" xlink:title="main">
<polygon fill="white" stroke="black" points="186,-19.5 186,-38.5 224,-38.5 224,-19.5 186,-19.5"/>
<text text-anchor="middle" x="205" y="-26.5" font-family="Helvetica,sans-Serif" font-size="10.00">main</text>
</a>
</g>
</g>
<!-- Node15&#45;&gt;Node16 -->
<g id="edge2" class="edge"><title>Node15&#45;&gt;Node16</title>
<path fill="none" stroke="midnightblue" d="M159.853,-16.6647C168.37,-19.0447 177.823,-21.686 185.79,-23.9119"/>
<polygon fill="midnightblue" stroke="midnightblue" points="160.663,-13.257 150.09,-13.9368 158.779,-19.9988 160.663,-13.257"/>
</g>
<!-- Node17 -->
<g id="node4" class="node"><title>Node17</title>
<g id="a_node4"><a xlink:href="walltime_8h.html#a76d2135b612766d4d665748454b879d6" target="_top" xlink:title="walltime_report">
<polygon fill="white" stroke="black" points="260,-19.5 260,-38.5 343,-38.5 343,-19.5 260,-19.5"/>
<text text-anchor="middle" x="301.5" y="-26.5" font-family="Helvetica,sans-Serif" font-size="10.00">walltime_report</text>
</a>
</g>
</g>
<!-- Node16&#45;&gt;Node17 -->
<g id="edge3" class="edge"><title>Node16&#45;&gt;Node17</title>
<path fill="none" stroke="midnightblue" d="M234.411,-29C242.347,-29 251.132,-29 259.635,-29"/>
<polygon fill="midnightblue" stroke="midnightblue" points="234.221,-25.5001 224.221,-29 234.221,-32.5001 234.221,-25.5001"/>
</g>
<!-- Node18 -->
<g id="node5" class="node"><title>Node18</title>
<g id="a_node5"><a xlink:href="run_8c.html#adc59e9ee1517e4e690694a64ab6a59d2" target="_top" xlink:title="write_cpu_log">
<polygon fill="white" stroke="black" points="379,-0.5 379,-19.5 456,-19.5 456,-0.5 379,-0.5"/>
<text text-anchor="middle" x="417.5" y="-7.5" font-family="Helvetica,sans-Serif" font-size="10.00">write_cpu_log</text>
</a>
</g>
</g>
<!-- Node17&#45;&gt;Node18 -->
<g id="edge4" class="edge"><title>Node17&#45;&gt;Node18</title>
<path fill="none" stroke="midnightblue" d="M353.031,-20.5782C361.684,-19.1359 370.54,-17.6601 378.785,-16.2859"/>
<polygon fill="midnightblue" stroke="midnightblue" points="352.302,-17.1514 343.013,-22.2478 353.452,-24.0561 352.302,-17.1514"/>
</g>
<!-- Node18&#45;&gt;Node15 -->
<g id="edge5" class="edge"><title>Node18&#45;&gt;Node15</title>
<path fill="none" stroke="midnightblue" d="M368.727,-10C303.488,-10 190.088,-10 150.296,-10"/>
<polygon fill="midnightblue" stroke="midnightblue" points="368.765,-13.5001 378.765,-10 368.765,-6.5001 368.765,-13.5001"/>
</g>
</g>
</svg>
