<?xml version="1.0" encoding="UTF-8" standalone="no"?>
<!DOCTYPE svg PUBLIC "-//W3C//DTD SVG 1.1//EN"
 "http://www.w3.org/Graphics/SVG/1.1/DTD/svg11.dtd">
<!-- Generated by graphviz version 2.38.0 (20140413.2041)
 -->
<!-- Title: apply_half_kick Pages: 1 -->
<svg width="988pt" height="175pt"
 viewBox="0.00 0.00 988.00 175.05" xmlns="http://www.w3.org/2000/svg" xmlns:xlink="http://www.w3.org/1999/xlink">
<g id="graph0" class="graph" transform="scale(1 1) rotate(0) translate(4 171.053)">
<title>apply_half_kick</title>
<polygon fill="white" stroke="none" points="-4,4 -4,-171.053 984,-171.053 984,4 -4,4"/>
<!-- Node0 -->
<g id="node1" class="node"><title>Node0</title>
<polygon fill="#bfbfbf" stroke="black" points="0,-52.5528 0,-71.5528 84,-71.5528 84,-52.5528 0,-52.5528"/>
<text text-anchor="middle" x="42" y="-59.5528" font-family="Helvetica,sans-Serif" font-size="10.00">apply_half_kick</text>
</g>
<!-- Node1 -->
<g id="node2" class="node"><title>Node1</title>
<g id="a_node2"><a xlink:href="timestep_8c.html#a49d9c1eaea24e348e66971102030905d" target="_top" xlink:title="do_the_short_range_kick">
<polygon fill="white" stroke="black" points="120,-71.5528 120,-90.5528 245,-90.5528 245,-71.5528 120,-71.5528"/>
<text text-anchor="middle" x="182.5" y="-78.5528" font-family="Helvetica,sans-Serif" font-size="10.00">do_the_short_range_kick</text>
</a>
</g>
</g>
<!-- Node0&#45;&gt;Node1 -->
<g id="edge1" class="edge"><title>Node0&#45;&gt;Node1</title>
<path fill="none" stroke="midnightblue" d="M84.1796,-67.702C92.3484,-68.8227 101.145,-70.0293 109.99,-71.2428"/>
<polygon fill="midnightblue" stroke="midnightblue" points="109.584,-74.7198 119.967,-72.6114 110.535,-67.7847 109.584,-74.7198"/>
</g>
<!-- Node13 -->
<g id="node14" class="node"><title>Node13</title>
<g id="a_node14"><a xlink:href="timestep_8c.html#af676ea14ddc4ab85d634f5a18015038d" target="_top" xlink:title="dti_from_timebin">
<polygon fill="white" stroke="black" points="138,-33.5528 138,-52.5528 227,-52.5528 227,-33.5528 138,-33.5528"/>
<text text-anchor="middle" x="182.5" y="-40.5528" font-family="Helvetica,sans-Serif" font-size="10.00">dti_from_timebin</text>
</a>
</g>
</g>
<!-- Node0&#45;&gt;Node13 -->
<g id="edge18" class="edge"><title>Node0&#45;&gt;Node13</title>
<path fill="none" stroke="midnightblue" d="M84.1796,-56.4037C97.7824,-54.5376 113.125,-52.4328 127.537,-50.4557"/>
<polygon fill="midnightblue" stroke="midnightblue" points="128.398,-53.8705 137.829,-49.0438 127.446,-46.9354 128.398,-53.8705"/>
</g>
<!-- Node2 -->
<g id="node3" class="node"><title>Node2</title>
<g id="a_node3"><a xlink:href="timefac_8c.html#a04f496d2bb899efbf6bcd34c606906bd" target="_top" xlink:title="get_gravkick_factor">
<polygon fill="white" stroke="black" points="283.5,-33.5528 283.5,-52.5528 385.5,-52.5528 385.5,-33.5528 283.5,-33.5528"/>
<text text-anchor="middle" x="334.5" y="-40.5528" font-family="Helvetica,sans-Serif" font-size="10.00">get_gravkick_factor</text>
</a>
</g>
</g>
<!-- Node1&#45;&gt;Node2 -->
<g id="edge2" class="edge"><title>Node1&#45;&gt;Node2</title>
<path fill="none" stroke="midnightblue" d="M221.351,-71.4638C240.967,-66.4945 265.119,-60.3761 285.979,-55.0915"/>
<polygon fill="midnightblue" stroke="midnightblue" points="287.087,-58.4215 295.921,-52.5729 285.368,-51.6359 287.087,-58.4215"/>
</g>
<!-- Node6 -->
<g id="node7" class="node"><title>Node6</title>
<g id="a_node7"><a xlink:href="endrun_8c.html#ad963d7efdb9f10f7a2298c8ccd222ab0" target="_top" xlink:title="endrun">
<polygon fill="white" stroke="black" points="690.5,-71.5528 690.5,-90.5528 736.5,-90.5528 736.5,-71.5528 690.5,-71.5528"/>
<text text-anchor="middle" x="713.5" y="-78.5528" font-family="Helvetica,sans-Serif" font-size="10.00">endrun</text>
</a>
</g>
</g>
<!-- Node1&#45;&gt;Node6 -->
<g id="edge10" class="edge"><title>Node1&#45;&gt;Node6</title>
<path fill="none" stroke="midnightblue" d="M224.816,-71.5081C231.829,-68.9987 238.83,-65.8868 245,-62.0528 264.76,-49.7734 259.629,-33.2453 281,-24.0528 422.212,36.6869 611.476,-35.1018 683.251,-67.1459"/>
<polygon fill="midnightblue" stroke="midnightblue" points="682.03,-70.4352 692.582,-71.3857 684.926,-64.0623 682.03,-70.4352"/>
</g>
<!-- Node10 -->
<g id="node11" class="node"><title>Node10</title>
<g id="a_node11"><a xlink:href="timefac_8c.html#a9d78f344a7de7062087825becb1f403a" target="_top" xlink:title="get_hydrokick_factor">
<polygon fill="white" stroke="black" points="281,-71.5528 281,-90.5528 388,-90.5528 388,-71.5528 281,-71.5528"/>
<text text-anchor="middle" x="334.5" y="-78.5528" font-family="Helvetica,sans-Serif" font-size="10.00">get_hydrokick_factor</text>
</a>
</g>
</g>
<!-- Node1&#45;&gt;Node10 -->
<g id="edge11" class="edge"><title>Node1&#45;&gt;Node10</title>
<path fill="none" stroke="midnightblue" d="M245.377,-81.0528C253.753,-81.0528 262.355,-81.0528 270.747,-81.0528"/>
<polygon fill="midnightblue" stroke="midnightblue" points="270.85,-84.5529 280.85,-81.0528 270.85,-77.5529 270.85,-84.5529"/>
</g>
<!-- Node11 -->
<g id="node12" class="node"><title>Node11</title>
<g id="a_node12"><a xlink:href="timebinmgr_8c.html#a37f0feff42f32e30d011f964a40e921e" target="_top" xlink:title="dloga_from_dti">
<polygon fill="white" stroke="black" points="553,-109.553 553,-128.553 633,-128.553 633,-109.553 553,-109.553"/>
<text text-anchor="middle" x="593" y="-116.553" font-family="Helvetica,sans-Serif" font-size="10.00">dloga_from_dti</text>
</a>
</g>
</g>
<!-- Node1&#45;&gt;Node11 -->
<g id="edge13" class="edge"><title>Node1&#45;&gt;Node11</title>
<path fill="none" stroke="midnightblue" d="M226.018,-90.5981C243.034,-94.0876 262.866,-97.7422 281,-100.053 372.813,-111.752 480.824,-116.3 542.367,-118.03"/>
<polygon fill="midnightblue" stroke="midnightblue" points="542.479,-121.534 552.569,-118.303 542.667,-114.537 542.479,-121.534"/>
</g>
<!-- Node12 -->
<g id="node13" class="node"><title>Node12</title>
<g id="a_node13"><a xlink:href="timebinmgr_8c.html#a72fa098187974a52cb5010bbddc7704d" target="_top" xlink:title="get_dloga_for_bin">
<polygon fill="white" stroke="black" points="424,-147.553 424,-166.553 517,-166.553 517,-147.553 424,-147.553"/>
<text text-anchor="middle" x="470.5" y="-154.553" font-family="Helvetica,sans-Serif" font-size="10.00">get_dloga_for_bin</text>
</a>
</g>
</g>
<!-- Node1&#45;&gt;Node12 -->
<g id="edge16" class="edge"><title>Node1&#45;&gt;Node12</title>
<path fill="none" stroke="midnightblue" d="M197.629,-90.731C215.968,-102.775 249.376,-122.982 281,-133.053 324.243,-146.824 375.444,-152.725 413.562,-155.238"/>
<polygon fill="midnightblue" stroke="midnightblue" points="413.758,-158.756 423.949,-155.86 414.176,-151.768 413.758,-158.756"/>
</g>
<!-- Node3 -->
<g id="node4" class="node"><title>Node3</title>
<g id="a_node4"><a xlink:href="timefac_8c.html#a6821c579370313dd41f0f81e8c0b7304" target="_top" xlink:title="find_bin_number">
<polygon fill="white" stroke="black" points="426.5,-71.5528 426.5,-90.5528 514.5,-90.5528 514.5,-71.5528 426.5,-71.5528"/>
<text text-anchor="middle" x="470.5" y="-78.5528" font-family="Helvetica,sans-Serif" font-size="10.00">find_bin_number</text>
</a>
</g>
</g>
<!-- Node2&#45;&gt;Node3 -->
<g id="edge3" class="edge"><title>Node2&#45;&gt;Node3</title>
<path fill="none" stroke="midnightblue" d="M369.314,-52.6418C386.533,-57.5248 407.664,-63.5172 426.073,-68.7378"/>
<polygon fill="midnightblue" stroke="midnightblue" points="425.121,-72.1058 435.697,-71.4669 427.031,-65.3714 425.121,-72.1058"/>
</g>
<!-- Node4 -->
<g id="node5" class="node"><title>Node4</title>
<g id="a_node5"><a xlink:href="timebinmgr_8c.html#a90eb3a2bdca47035148249e68fc244be" target="_top" xlink:title="loga_from_ti">
<polygon fill="white" stroke="black" points="558,-71.5528 558,-90.5528 628,-90.5528 628,-71.5528 558,-71.5528"/>
<text text-anchor="middle" x="593" y="-78.5528" font-family="Helvetica,sans-Serif" font-size="10.00">loga_from_ti</text>
</a>
</g>
</g>
<!-- Node3&#45;&gt;Node4 -->
<g id="edge4" class="edge"><title>Node3&#45;&gt;Node4</title>
<path fill="none" stroke="midnightblue" d="M514.663,-81.0528C525.41,-81.0528 536.948,-81.0528 547.746,-81.0528"/>
<polygon fill="midnightblue" stroke="midnightblue" points="547.823,-84.5529 557.823,-81.0528 547.823,-77.5529 547.823,-84.5529"/>
</g>
<!-- Node5 -->
<g id="node6" class="node"><title>Node5</title>
<g id="a_node6"><a xlink:href="timebinmgr_8c.html#a1aaa55e4aa15066a753c96e8646e62be" target="_top" xlink:title="Dloga_interval_ti">
<polygon fill="white" stroke="black" points="669,-109.553 669,-128.553 758,-128.553 758,-109.553 669,-109.553"/>
<text text-anchor="middle" x="713.5" y="-116.553" font-family="Helvetica,sans-Serif" font-size="10.00">Dloga_interval_ti</text>
</a>
</g>
</g>
<!-- Node4&#45;&gt;Node5 -->
<g id="edge5" class="edge"><title>Node4&#45;&gt;Node5</title>
<path fill="none" stroke="midnightblue" d="M623.903,-90.6418C638.779,-95.4123 656.957,-101.242 672.967,-106.376"/>
<polygon fill="midnightblue" stroke="midnightblue" points="672.016,-109.746 682.607,-109.467 674.153,-103.08 672.016,-109.746"/>
</g>
<!-- Node4&#45;&gt;Node6 -->
<g id="edge6" class="edge"><title>Node4&#45;&gt;Node6</title>
<path fill="none" stroke="midnightblue" d="M628.275,-81.0528C644.648,-81.0528 664.136,-81.0528 680.24,-81.0528"/>
<polygon fill="midnightblue" stroke="midnightblue" points="680.268,-84.5529 690.268,-81.0528 680.268,-77.5529 680.268,-84.5529"/>
</g>
<!-- Node7 -->
<g id="node8" class="node"><title>Node7</title>
<g id="a_node8"><a xlink:href="endrun_8c.html#a7267113a7c0a094743bb565eabc695d1" target="_top" xlink:title="messagev">
<polygon fill="white" stroke="black" points="794,-71.5528 794,-90.5528 856,-90.5528 856,-71.5528 794,-71.5528"/>
<text text-anchor="middle" x="825" y="-78.5528" font-family="Helvetica,sans-Serif" font-size="10.00">messagev</text>
</a>
</g>
</g>
<!-- Node6&#45;&gt;Node7 -->
<g id="edge7" class="edge"><title>Node6&#45;&gt;Node7</title>
<path fill="none" stroke="midnightblue" d="M736.659,-81.0528C750.193,-81.0528 767.903,-81.0528 783.836,-81.0528"/>
<polygon fill="midnightblue" stroke="midnightblue" points="783.988,-84.5529 793.988,-81.0528 783.988,-77.5529 783.988,-84.5529"/>
</g>
<!-- Node8 -->
<g id="node9" class="node"><title>Node8</title>
<g id="a_node9"><a xlink:href="endrun_8c.html#a87108946670b4c3afbe846c6726675ff" target="_top" xlink:title="putline">
<polygon fill="white" stroke="black" points="913.5,-90.5528 913.5,-109.553 958.5,-109.553 958.5,-90.5528 913.5,-90.5528"/>
<text text-anchor="middle" x="936" y="-97.5528" font-family="Helvetica,sans-Serif" font-size="10.00">putline</text>
</a>
</g>
</g>
<!-- Node7&#45;&gt;Node8 -->
<g id="edge8" class="edge"><title>Node7&#45;&gt;Node8</title>
<path fill="none" stroke="midnightblue" d="M856.073,-86.295C870.677,-88.8405 888.231,-91.9004 903.072,-94.4874"/>
<polygon fill="midnightblue" stroke="midnightblue" points="902.866,-98.0042 913.318,-96.2735 904.068,-91.1082 902.866,-98.0042"/>
</g>
<!-- Node9 -->
<g id="node10" class="node"><title>Node9</title>
<g id="a_node10"><a xlink:href="endrun_8c.html#a1200f02a595ab7cbe17c9e36ff32af0f" target="_top" xlink:title="show_backtrace">
<polygon fill="white" stroke="black" points="892,-52.5528 892,-71.5528 980,-71.5528 980,-52.5528 892,-52.5528"/>
<text text-anchor="middle" x="936" y="-59.5528" font-family="Helvetica,sans-Serif" font-size="10.00">show_backtrace</text>
</a>
</g>
</g>
<!-- Node7&#45;&gt;Node9 -->
<g id="edge9" class="edge"><title>Node7&#45;&gt;Node9</title>
<path fill="none" stroke="midnightblue" d="M856.073,-75.8107C864.131,-74.4061 873.087,-72.8449 881.991,-71.293"/>
<polygon fill="midnightblue" stroke="midnightblue" points="882.719,-74.7189 891.969,-69.5536 881.517,-67.8229 882.719,-74.7189"/>
</g>
<!-- Node10&#45;&gt;Node3 -->
<g id="edge12" class="edge"><title>Node10&#45;&gt;Node3</title>
<path fill="none" stroke="midnightblue" d="M388.076,-81.0528C397.239,-81.0528 406.78,-81.0528 415.968,-81.0528"/>
<polygon fill="midnightblue" stroke="midnightblue" points="416.153,-84.5529 426.153,-81.0528 416.153,-77.5529 416.153,-84.5529"/>
</g>
<!-- Node11&#45;&gt;Node5 -->
<g id="edge14" class="edge"><title>Node11&#45;&gt;Node5</title>
<path fill="none" stroke="midnightblue" d="M633.13,-119.053C641.367,-119.053 650.193,-119.053 658.858,-119.053"/>
<polygon fill="midnightblue" stroke="midnightblue" points="658.91,-122.553 668.91,-119.053 658.91,-115.553 658.91,-122.553"/>
</g>
<!-- Node11&#45;&gt;Node6 -->
<g id="edge15" class="edge"><title>Node11&#45;&gt;Node6</title>
<path fill="none" stroke="midnightblue" d="M623.903,-109.464C641.212,-103.913 662.991,-96.929 680.625,-91.2744"/>
<polygon fill="midnightblue" stroke="midnightblue" points="682.009,-94.5061 690.463,-88.1196 679.872,-87.8404 682.009,-94.5061"/>
</g>
<!-- Node12&#45;&gt;Node5 -->
<g id="edge17" class="edge"><title>Node12&#45;&gt;Node5</title>
<path fill="none" stroke="midnightblue" d="M517.306,-153.11C549.752,-149.966 594.224,-144.943 633,-138.053 644.018,-136.095 655.792,-133.541 666.81,-130.943"/>
<polygon fill="midnightblue" stroke="midnightblue" points="667.775,-134.31 676.674,-128.561 666.132,-127.506 667.775,-134.31"/>
</g>
</g>
</svg>
