<?xml version="1.0" encoding="UTF-8" standalone="no"?>
<!DOCTYPE svg PUBLIC "-//W3C//DTD SVG 1.1//EN"
 "http://www.w3.org/Graphics/SVG/1.1/DTD/svg11.dtd">
<!-- Generated by graphviz version 2.38.0 (20140413.2041)
 -->
<!-- Title: get_timestep_bin Pages: 1 -->
<svg width="1010pt" height="66pt"
 viewBox="0.00 0.00 1010.00 66.00" xmlns="http://www.w3.org/2000/svg" xmlns:xlink="http://www.w3.org/1999/xlink">
<g id="graph0" class="graph" transform="scale(1 1) rotate(0) translate(4 62)">
<title>get_timestep_bin</title>
<polygon fill="white" stroke="none" points="-4,4 -4,-62 1006,-62 1006,4 -4,4"/>
<!-- Node191 -->
<g id="node1" class="node"><title>Node191</title>
<polygon fill="#bfbfbf" stroke="black" points="0,-19.5 0,-38.5 91,-38.5 91,-19.5 0,-19.5"/>
<text text-anchor="middle" x="45.5" y="-26.5" font-family="Helvetica,sans-Serif" font-size="10.00">get_timestep_bin</text>
</g>
<!-- Node192 -->
<g id="node2" class="node"><title>Node192</title>
<g id="a_node2"><a xlink:href="timestep_8h.html#ac4c17d0cf055339694fdd96baadd83c0" target="_top" xlink:title="find_timesteps">
<polygon fill="white" stroke="black" points="154,-38.5 154,-57.5 234,-57.5 234,-38.5 154,-38.5"/>
<text text-anchor="middle" x="194" y="-45.5" font-family="Helvetica,sans-Serif" font-size="10.00">find_timesteps</text>
</a>
</g>
</g>
<!-- Node191&#45;&gt;Node192 -->
<g id="edge1" class="edge"><title>Node191&#45;&gt;Node192</title>
<path fill="none" stroke="midnightblue" d="M101.347,-36.1132C118.844,-38.3825 137.839,-40.846 153.975,-42.9388"/>
<polygon fill="midnightblue" stroke="midnightblue" points="101.618,-32.6192 91.2509,-34.8039 100.718,-39.561 101.618,-32.6192"/>
</g>
<!-- Node197 -->
<g id="node7" class="node"><title>Node197</title>
<g id="a_node7"><a xlink:href="timestep_8h.html#ac4649213db370055ed2ce25277ba7844" target="_top" xlink:title="timestep_allocate_memory">
<polygon fill="white" stroke="black" points="127,-0.5 127,-19.5 261,-19.5 261,-0.5 127,-0.5"/>
<text text-anchor="middle" x="194" y="-7.5" font-family="Helvetica,sans-Serif" font-size="10.00">timestep_allocate_memory</text>
</a>
</g>
</g>
<!-- Node191&#45;&gt;Node197 -->
<g id="edge7" class="edge"><title>Node191&#45;&gt;Node197</title>
<path fill="none" stroke="midnightblue" d="M101.264,-21.8975C109.64,-20.8112 118.361,-19.6801 126.949,-18.5664"/>
<polygon fill="midnightblue" stroke="midnightblue" points="100.718,-18.439 91.2509,-23.1961 101.618,-25.3808 100.718,-18.439"/>
</g>
<!-- Node193 -->
<g id="node3" class="node"><title>Node193</title>
<g id="a_node3"><a xlink:href="run_8c.html#a05e0ffe612d44e6d7f3a9ae5b9df56a2" target="_top" xlink:title="run">
<polygon fill="white" stroke="black" points="658,-38.5 658,-57.5 688,-57.5 688,-38.5 658,-38.5"/>
<text text-anchor="middle" x="673" y="-45.5" font-family="Helvetica,sans-Serif" font-size="10.00">run</text>
</a>
</g>
</g>
<!-- Node192&#45;&gt;Node193 -->
<g id="edge2" class="edge"><title>Node192&#45;&gt;Node193</title>
<path fill="none" stroke="midnightblue" d="M244.161,-48C350.305,-48 596.321,-48 657.854,-48"/>
<polygon fill="midnightblue" stroke="midnightblue" points="244.035,-44.5001 234.035,-48 244.035,-51.5001 244.035,-44.5001"/>
</g>
<!-- Node194 -->
<g id="node4" class="node"><title>Node194</title>
<g id="a_node4"><a xlink:href="main_8c.html#a3c04138a5bfe5d72780bb7e82a18e627" target="_top" xlink:title="main">
<polygon fill="white" stroke="black" points="732,-0.5 732,-19.5 770,-19.5 770,-0.5 732,-0.5"/>
<text text-anchor="middle" x="751" y="-7.5" font-family="Helvetica,sans-Serif" font-size="10.00">main</text>
</a>
</g>
</g>
<!-- Node193&#45;&gt;Node194 -->
<g id="edge3" class="edge"><title>Node193&#45;&gt;Node194</title>
<path fill="none" stroke="midnightblue" d="M697.387,-36.3067C708.434,-30.7831 721.425,-24.2875 731.734,-19.1329"/>
<polygon fill="midnightblue" stroke="midnightblue" points="695.674,-33.2498 688.295,-40.8525 698.805,-39.5108 695.674,-33.2498"/>
</g>
<!-- Node195 -->
<g id="node5" class="node"><title>Node195</title>
<g id="a_node5"><a xlink:href="walltime_8h.html#a76d2135b612766d4d665748454b879d6" target="_top" xlink:title="walltime_report">
<polygon fill="white" stroke="black" points="806,-0.5 806,-19.5 889,-19.5 889,-0.5 806,-0.5"/>
<text text-anchor="middle" x="847.5" y="-7.5" font-family="Helvetica,sans-Serif" font-size="10.00">walltime_report</text>
</a>
</g>
</g>
<!-- Node194&#45;&gt;Node195 -->
<g id="edge4" class="edge"><title>Node194&#45;&gt;Node195</title>
<path fill="none" stroke="midnightblue" d="M780.411,-10C788.347,-10 797.132,-10 805.635,-10"/>
<polygon fill="midnightblue" stroke="midnightblue" points="780.221,-6.5001 770.221,-10 780.221,-13.5001 780.221,-6.5001"/>
</g>
<!-- Node196 -->
<g id="node6" class="node"><title>Node196</title>
<g id="a_node6"><a xlink:href="run_8c.html#adc59e9ee1517e4e690694a64ab6a59d2" target="_top" xlink:title="write_cpu_log">
<polygon fill="white" stroke="black" points="925,-19.5 925,-38.5 1002,-38.5 1002,-19.5 925,-19.5"/>
<text text-anchor="middle" x="963.5" y="-26.5" font-family="Helvetica,sans-Serif" font-size="10.00">write_cpu_log</text>
</a>
</g>
</g>
<!-- Node195&#45;&gt;Node196 -->
<g id="edge5" class="edge"><title>Node195&#45;&gt;Node196</title>
<path fill="none" stroke="midnightblue" d="M899.031,-18.4218C907.684,-19.8641 916.54,-21.3399 924.785,-22.7141"/>
<polygon fill="midnightblue" stroke="midnightblue" points="899.452,-14.9439 889.013,-16.7522 898.302,-21.8486 899.452,-14.9439"/>
</g>
<!-- Node196&#45;&gt;Node193 -->
<g id="edge6" class="edge"><title>Node196&#45;&gt;Node193</title>
<path fill="none" stroke="midnightblue" d="M914.504,-32.1609C847.378,-36.5817 729.102,-44.3711 688.307,-47.0578"/>
<polygon fill="midnightblue" stroke="midnightblue" points="915.07,-35.6313 924.818,-31.4816 914.61,-28.6464 915.07,-35.6313"/>
</g>
<!-- Node198 -->
<g id="node8" class="node"><title>Node198</title>
<g id="a_node8"><a xlink:href="petaio_8c.html#aaa9eefdbfea91c08aa366767aac96a69" target="_top" xlink:title="petaio_read_internal">
<polygon fill="white" stroke="black" points="297,-0.5 297,-19.5 401,-19.5 401,-0.5 297,-0.5"/>
<text text-anchor="middle" x="349" y="-7.5" font-family="Helvetica,sans-Serif" font-size="10.00">petaio_read_internal</text>
</a>
</g>
</g>
<!-- Node197&#45;&gt;Node198 -->
<g id="edge8" class="edge"><title>Node197&#45;&gt;Node198</title>
<path fill="none" stroke="midnightblue" d="M271.358,-10C280.019,-10 288.682,-10 296.904,-10"/>
<polygon fill="midnightblue" stroke="midnightblue" points="271.218,-6.5001 261.218,-10 271.218,-13.5001 271.218,-6.5001"/>
</g>
<!-- Node199 -->
<g id="node9" class="node"><title>Node199</title>
<g id="a_node9"><a xlink:href="petaio_8h.html#a3dd52bd7a320fa9ef1c7963d060ae4ec" target="_top" xlink:title="petaio_read_snapshot">
<polygon fill="white" stroke="black" points="437,-0.5 437,-19.5 549,-19.5 549,-0.5 437,-0.5"/>
<text text-anchor="middle" x="493" y="-7.5" font-family="Helvetica,sans-Serif" font-size="10.00">petaio_read_snapshot</text>
</a>
</g>
</g>
<!-- Node198&#45;&gt;Node199 -->
<g id="edge9" class="edge"><title>Node198&#45;&gt;Node199</title>
<path fill="none" stroke="midnightblue" d="M411.481,-10C419.959,-10 428.621,-10 436.972,-10"/>
<polygon fill="midnightblue" stroke="midnightblue" points="411.265,-6.5001 401.265,-10 411.265,-13.5001 411.265,-6.5001"/>
</g>
<!-- Node200 -->
<g id="node10" class="node"><title>Node200</title>
<g id="a_node10"><a xlink:href="proto_8h.html#ab080cb20bac2a1a6153a84e8cfd15374" target="_top" xlink:title="init">
<polygon fill="white" stroke="black" points="585,-0.5 585,-19.5 614,-19.5 614,-0.5 585,-0.5"/>
<text text-anchor="middle" x="599.5" y="-7.5" font-family="Helvetica,sans-Serif" font-size="10.00">init</text>
</a>
</g>
</g>
<!-- Node199&#45;&gt;Node200 -->
<g id="edge10" class="edge"><title>Node199&#45;&gt;Node200</title>
<path fill="none" stroke="midnightblue" d="M559.24,-10C568.901,-10 577.928,-10 584.885,-10"/>
<polygon fill="midnightblue" stroke="midnightblue" points="559.004,-6.5001 549.004,-10 559.004,-13.5001 559.004,-6.5001"/>
</g>
<!-- Node201 -->
<g id="node11" class="node"><title>Node201</title>
<g id="a_node11"><a xlink:href="proto_8h.html#a74dc0e5e9eefe11fc8434b62de573146" target="_top" xlink:title="begrun">
<polygon fill="white" stroke="black" points="650,-0.5 650,-19.5 696,-19.5 696,-0.5 650,-0.5"/>
<text text-anchor="middle" x="673" y="-7.5" font-family="Helvetica,sans-Serif" font-size="10.00">begrun</text>
</a>
</g>
</g>
<!-- Node200&#45;&gt;Node201 -->
<g id="edge11" class="edge"><title>Node200&#45;&gt;Node201</title>
<path fill="none" stroke="midnightblue" d="M624.37,-10C632.585,-10 641.743,-10 649.818,-10"/>
<polygon fill="midnightblue" stroke="midnightblue" points="624.286,-6.5001 614.286,-10 624.286,-13.5001 624.286,-6.5001"/>
</g>
<!-- Node201&#45;&gt;Node194 -->
<g id="edge12" class="edge"><title>Node201&#45;&gt;Node194</title>
<path fill="none" stroke="midnightblue" d="M706.541,-10C715.114,-10 724.067,-10 731.603,-10"/>
<polygon fill="midnightblue" stroke="midnightblue" points="706.391,-6.5001 696.391,-10 706.391,-13.5001 706.391,-6.5001"/>
</g>
</g>
</svg>
