<?xml version="1.0" encoding="UTF-8" standalone="no"?>
<!DOCTYPE svg PUBLIC "-//W3C//DTD SVG 1.1//EN"
 "http://www.w3.org/Graphics/SVG/1.1/DTD/svg11.dtd">
<!-- Generated by graphviz version 2.38.0 (20140413.2041)
 -->
<!-- Title: ti_from_loga Pages: 1 -->
<!--zoomable 604 -->
<svg id="main" version="1.1" xmlns="http://www.w3.org/2000/svg" xmlns:xlink="http://www.w3.org/1999/xlink" xml:space="preserve" onload="init(evt)">
<style type="text/css"><![CDATA[
.edge:hover path { stroke: red; }
.edge:hover polygon { stroke: red; fill: red; }
]]></style>
<script type="text/javascript"><![CDATA[
var edges = document.getElementsByTagName('g');
if (edges && edges.length) {
  for (var i=0;i<edges.length;i++) {
    if (edges[i].id.substr(0,4)=='edge') {
      edges[i].setAttribute('class','edge');
    }
  }
}
]]></script>
        <defs>
                <circle id="rim" cx="0" cy="0" r="7"/>
                <circle id="rim2" cx="0" cy="0" r="3.5"/>
                <g id="zoomPlus">
                        <use xlink:href="#rim" fill="#404040">
                                <set attributeName="fill" to="#808080" begin="zoomplus.mouseover" end="zoomplus.mouseout"/>
                        </use>
                        <path d="M-4,0h8M0,-4v8" fill="none" stroke="white" stroke-width="1.5" pointer-events="none"/>
                </g>
                <g id="zoomMin">
                        <use xlink:href="#rim" fill="#404040">
                                <set attributeName="fill" to="#808080" begin="zoomminus.mouseover" end="zoomminus.mouseout"/>
                        </use>
                        <path d="M-4,0h8" fill="none" stroke="white" stroke-width="1.5" pointer-events="none"/>
                </g>
                <g id="dirArrow">
                        <path fill="none" stroke="white" stroke-width="1.5" d="M0,-3.0v7 M-2.5,-0.5L0,-3.0L2.5,-0.5"/>
                </g>
               <g id="resetDef">
                       <use xlink:href="#rim2" fill="#404040">
                               <set attributeName="fill" to="#808080" begin="reset.mouseover" end="reset.mouseout"/>
                       </use>
               </g>
        </defs>

<script type="text/javascript">
var viewWidth = 553;
var viewHeight = 604;
var sectionId = 'dynsection-14';
</script>
<script xlink:href="svgpan.js"/>
<svg id="graph" class="graph">
<g id="viewport">
<title>ti_from_loga</title>
<polygon fill="white" stroke="none" points="-4,4 -4,-600 548.977,-600 548.977,4 -4,4"/>
<!-- Node247 -->
<g id="node1" class="node"><title>Node247</title>
<polygon fill="#bfbfbf" stroke="black" points="255.915,-216.5 255.915,-235.5 325.915,-235.5 325.915,-216.5 255.915,-216.5"/>
<text text-anchor="middle" x="290.915" y="-223.5" font-family="Helvetica,sans-Serif" font-size="10.00">ti_from_loga</text>
</g>
<!-- Node248 -->
<g id="node2" class="node"><title>Node248</title>
<g id="a_node2"><a xlink:href="timebinmgr_8h.html#a4d5d8a782b55fd059777c50cc6784f4d" target="_top" xlink:title="dti_from_dloga">
<polygon fill="white" stroke="black" points="250.915,-288.5 250.915,-307.5 330.915,-307.5 330.915,-288.5 250.915,-288.5"/>
<text text-anchor="middle" x="290.915" y="-295.5" font-family="Helvetica,sans-Serif" font-size="10.00">dti_from_dloga</text>
</a>
</g>
</g>
<!-- Node247&#45;&gt;Node248 -->
<g id="edge1" class="edge"><title>Node247&#45;&gt;Node248</title>
<path fill="none" stroke="midnightblue" d="M290.915,-245.757C290.915,-259.643 290.915,-277.607 290.915,-288.444"/>
<polygon fill="midnightblue" stroke="midnightblue" points="294.415,-245.71 290.915,-235.71 287.415,-245.71 294.415,-245.71"/>
</g>
<!-- Node253 -->
<g id="node7" class="node"><title>Node253</title>
<g id="a_node7"><a xlink:href="proto_8h.html#ab080cb20bac2a1a6153a84e8cfd15374" target="_top" xlink:title="init">
<polygon fill="white" stroke="black" points="240.415,-154.146 240.415,-173.146 269.415,-173.146 269.415,-154.146 240.415,-154.146"/>
<text text-anchor="middle" x="254.915" y="-161.146" font-family="Helvetica,sans-Serif" font-size="10.00">init</text>
</a>
</g>
</g>
<!-- Node247&#45;&gt;Node253 -->
<g id="edge18" class="edge"><title>Node247&#45;&gt;Node253</title>
<path fill="none" stroke="midnightblue" d="M280.136,-207.33C273.724,-196.224 265.847,-182.58 260.62,-173.526"/>
<polygon fill="midnightblue" stroke="midnightblue" points="277.259,-209.347 285.29,-216.257 283.321,-205.847 277.259,-209.347"/>
</g>
<!-- Node261 -->
<g id="node15" class="node"><title>Node261</title>
<g id="a_node15"><a xlink:href="timestep_8h.html#a56c5eecfbeb9072b689306aac4dcd6db" target="_top" xlink:title="init_timebins">
<polygon fill="white" stroke="black" points="317.769,-180.5 317.769,-199.5 388.769,-199.5 388.769,-180.5 317.769,-180.5"/>
<text text-anchor="middle" x="353.269" y="-187.5" font-family="Helvetica,sans-Serif" font-size="10.00">init_timebins</text>
</a>
</g>
</g>
<!-- Node247&#45;&gt;Node261 -->
<g id="edge19" class="edge"><title>Node247&#45;&gt;Node261</title>
<path fill="none" stroke="midnightblue" d="M316.486,-211.237C323.24,-207.337 330.358,-203.228 336.513,-199.674"/>
<polygon fill="midnightblue" stroke="midnightblue" points="314.535,-208.322 307.625,-216.353 318.035,-214.384 314.535,-208.322"/>
</g>
<!-- Node249 -->
<g id="node3" class="node"><title>Node249</title>
<g id="a_node3"><a xlink:href="timestep_8c.html#af02cf913a1503e86149164697803c375" target="_top" xlink:title="get_timestep_ti">
<polygon fill="white" stroke="black" points="321.415,-341.208 321.415,-360.208 404.415,-360.208 404.415,-341.208 321.415,-341.208"/>
<text text-anchor="middle" x="362.915" y="-348.208" font-family="Helvetica,sans-Serif" font-size="10.00">get_timestep_ti</text>
</a>
</g>
</g>
<!-- Node248&#45;&gt;Node249 -->
<g id="edge2" class="edge"><title>Node248&#45;&gt;Node249</title>
<path fill="none" stroke="midnightblue" d="M312.403,-313.73C324.557,-322.628 339.363,-333.466 349.793,-341.102"/>
<polygon fill="midnightblue" stroke="midnightblue" points="314.258,-310.75 304.121,-307.667 310.123,-316.398 314.258,-310.75"/>
</g>
<!-- Node260 -->
<g id="node14" class="node"><title>Node260</title>
<g id="a_node14"><a xlink:href="timestep_8c.html#a698aa21800cfd13febdd63096191022c" target="_top" xlink:title="get_long_range_timestep_ti">
<polygon fill="white" stroke="black" points="98.2077,-288.5 98.2077,-307.5 234.208,-307.5 234.208,-288.5 98.2077,-288.5"/>
<text text-anchor="middle" x="166.208" y="-295.5" font-family="Helvetica,sans-Serif" font-size="10.00">get_long_range_timestep_ti</text>
</a>
</g>
</g>
<!-- Node248&#45;&gt;Node260 -->
<g id="edge15" class="edge"><title>Node248&#45;&gt;Node260</title>
<path fill="none" stroke="midnightblue" d="M240.65,-298C238.586,-298 236.505,-298 234.414,-298"/>
<polygon fill="midnightblue" stroke="midnightblue" points="240.771,-301.5 250.771,-298 240.771,-294.5 240.771,-301.5"/>
</g>
<!-- Node250 -->
<g id="node4" class="node"><title>Node250</title>
<g id="a_node4"><a xlink:href="timestep_8h.html#ac4649213db370055ed2ce25277ba7844" target="_top" xlink:title="timestep_allocate_memory">
<polygon fill="white" stroke="black" points="410.977,-324.5 410.977,-343.5 544.977,-343.5 544.977,-324.5 410.977,-324.5"/>
<text text-anchor="middle" x="477.977" y="-331.5" font-family="Helvetica,sans-Serif" font-size="10.00">timestep_allocate_memory</text>
</a>
</g>
</g>
<!-- Node249&#45;&gt;Node250 -->
<g id="edge3" class="edge"><title>Node249&#45;&gt;Node250</title>
<path fill="none" stroke="midnightblue" d="M411.8,-343.609C411.965,-343.585 412.131,-343.561 412.296,-343.537"/>
<polygon fill="midnightblue" stroke="midnightblue" points="413.848,-339.775 404.455,-344.676 414.854,-346.702 413.848,-339.775"/>
</g>
<!-- Node259 -->
<g id="node13" class="node"><title>Node259</title>
<g id="a_node13"><a xlink:href="timestep_8h.html#ac4c17d0cf055339694fdd96baadd83c0" target="_top" xlink:title="find_timesteps">
<polygon fill="white" stroke="black" points="250.915,-432.5 250.915,-451.5 330.915,-451.5 330.915,-432.5 250.915,-432.5"/>
<text text-anchor="middle" x="290.915" y="-439.5" font-family="Helvetica,sans-Serif" font-size="10.00">find_timesteps</text>
</a>
</g>
</g>
<!-- Node249&#45;&gt;Node259 -->
<g id="edge13" class="edge"><title>Node249&#45;&gt;Node259</title>
<path fill="none" stroke="midnightblue" d="M348.96,-368.403C333.924,-387.467 310.548,-417.107 298.565,-432.3"/>
<polygon fill="midnightblue" stroke="midnightblue" points="351.766,-370.497 355.21,-360.478 346.269,-366.162 351.766,-370.497"/>
</g>
<!-- Node251 -->
<g id="node5" class="node"><title>Node251</title>
<g id="a_node5"><a xlink:href="petaio_8c.html#aaa9eefdbfea91c08aa366767aac96a69" target="_top" xlink:title="petaio_read_internal">
<polygon fill="white" stroke="black" points="238.915,-0.5 238.915,-19.5 342.915,-19.5 342.915,-0.5 238.915,-0.5"/>
<text text-anchor="middle" x="290.915" y="-7.5" font-family="Helvetica,sans-Serif" font-size="10.00">petaio_read_internal</text>
</a>
</g>
</g>
<!-- Node250&#45;&gt;Node251 -->
<g id="edge4" class="edge"><title>Node250&#45;&gt;Node251</title>
<path fill="none" stroke="midnightblue" d="M467.271,-315.456C432.353,-254.977 322.531,-64.7599 296.492,-19.6589"/>
<polygon fill="midnightblue" stroke="midnightblue" points="464.347,-317.393 472.378,-324.303 470.409,-313.893 464.347,-317.393"/>
</g>
<!-- Node252 -->
<g id="node6" class="node"><title>Node252</title>
<g id="a_node6"><a xlink:href="petaio_8h.html#a3dd52bd7a320fa9ef1c7963d060ae4ec" target="_top" xlink:title="petaio_read_snapshot">
<polygon fill="white" stroke="black" points="234.915,-72.5 234.915,-91.5 346.915,-91.5 346.915,-72.5 234.915,-72.5"/>
<text text-anchor="middle" x="290.915" y="-79.5" font-family="Helvetica,sans-Serif" font-size="10.00">petaio_read_snapshot</text>
</a>
</g>
</g>
<!-- Node251&#45;&gt;Node252 -->
<g id="edge5" class="edge"><title>Node251&#45;&gt;Node252</title>
<path fill="none" stroke="midnightblue" d="M290.915,-29.7574C290.915,-43.6427 290.915,-61.607 290.915,-72.4436"/>
<polygon fill="midnightblue" stroke="midnightblue" points="294.415,-29.7102 290.915,-19.7102 287.415,-29.7103 294.415,-29.7102"/>
</g>
<!-- Node252&#45;&gt;Node253 -->
<g id="edge6" class="edge"><title>Node252&#45;&gt;Node253</title>
<path fill="none" stroke="midnightblue" d="M282.547,-100.978C275.235,-117.563 264.916,-140.966 259.181,-153.972"/>
<polygon fill="midnightblue" stroke="midnightblue" points="285.812,-102.249 286.644,-91.6865 279.407,-99.4244 285.812,-102.249"/>
</g>
<!-- Node254 -->
<g id="node8" class="node"><title>Node254</title>
<g id="a_node8"><a xlink:href="proto_8h.html#a74dc0e5e9eefe11fc8434b62de573146" target="_top" xlink:title="begrun">
<polygon fill="white" stroke="black" points="143.208,-144.5 143.208,-163.5 189.208,-163.5 189.208,-144.5 143.208,-144.5"/>
<text text-anchor="middle" x="166.208" y="-151.5" font-family="Helvetica,sans-Serif" font-size="10.00">begrun</text>
</a>
</g>
</g>
<!-- Node253&#45;&gt;Node254 -->
<g id="edge7" class="edge"><title>Node253&#45;&gt;Node254</title>
<path fill="none" stroke="midnightblue" d="M230.256,-160.965C217.414,-159.568 201.807,-157.871 189.214,-156.502"/>
<polygon fill="midnightblue" stroke="midnightblue" points="229.947,-164.452 240.267,-162.053 230.704,-157.493 229.947,-164.452"/>
</g>
<!-- Node255 -->
<g id="node9" class="node"><title>Node255</title>
<g id="a_node9"><a xlink:href="main_8c.html#a3c04138a5bfe5d72780bb7e82a18e627" target="_top" xlink:title="main">
<polygon fill="white" stroke="black" points="84.8538,-108.5 84.8538,-127.5 122.854,-127.5 122.854,-108.5 84.8538,-108.5"/>
<text text-anchor="middle" x="103.854" y="-115.5" font-family="Helvetica,sans-Serif" font-size="10.00">main</text>
</a>
</g>
</g>
<!-- Node254&#45;&gt;Node255 -->
<g id="edge8" class="edge"><title>Node254&#45;&gt;Node255</title>
<path fill="none" stroke="midnightblue" d="M140.637,-139.237C133.882,-135.337 126.765,-131.228 120.61,-127.674"/>
<polygon fill="midnightblue" stroke="midnightblue" points="139.088,-142.384 149.498,-144.353 142.588,-136.322 139.088,-142.384"/>
</g>
<!-- Node256 -->
<g id="node10" class="node"><title>Node256</title>
<g id="a_node10"><a xlink:href="walltime_8h.html#a76d2135b612766d4d665748454b879d6" target="_top" xlink:title="walltime_report">
<polygon fill="white" stroke="black" points="2.84217e-14,-72.5 2.84217e-14,-91.5 83,-91.5 83,-72.5 2.84217e-14,-72.5"/>
<text text-anchor="middle" x="41.5" y="-79.5" font-family="Helvetica,sans-Serif" font-size="10.00">walltime_report</text>
</a>
</g>
</g>
<!-- Node255&#45;&gt;Node256 -->
<g id="edge9" class="edge"><title>Node255&#45;&gt;Node256</title>
<path fill="none" stroke="midnightblue" d="M78.283,-103.237C71.5287,-99.3371 64.4113,-95.2278 58.2558,-91.674"/>
<polygon fill="midnightblue" stroke="midnightblue" points="76.7339,-106.384 87.1441,-108.353 80.2339,-100.322 76.7339,-106.384"/>
</g>
<!-- Node257 -->
<g id="node11" class="node"><title>Node257</title>
<g id="a_node11"><a xlink:href="run_8c.html#adc59e9ee1517e4e690694a64ab6a59d2" target="_top" xlink:title="write_cpu_log">
<polygon fill="white" stroke="black" points="252.415,-576.5 252.415,-595.5 329.415,-595.5 329.415,-576.5 252.415,-576.5"/>
<text text-anchor="middle" x="290.915" y="-583.5" font-family="Helvetica,sans-Serif" font-size="10.00">write_cpu_log</text>
</a>
</g>
</g>
<!-- Node256&#45;&gt;Node257 -->
<g id="edge10" class="edge"><title>Node256&#45;&gt;Node257</title>
<path fill="none" stroke="midnightblue" d="M50.7107,-100.612C91.5781,-183.194 255.831,-515.103 286.106,-576.281"/>
<polygon fill="midnightblue" stroke="midnightblue" points="53.832,-99.0282 46.2597,-91.618 47.5582,-102.133 53.832,-99.0282"/>
</g>
<!-- Node258 -->
<g id="node12" class="node"><title>Node258</title>
<g id="a_node12"><a xlink:href="run_8c.html#a05e0ffe612d44e6d7f3a9ae5b9df56a2" target="_top" xlink:title="run">
<polygon fill="white" stroke="black" points="275.915,-504.5 275.915,-523.5 305.915,-523.5 305.915,-504.5 275.915,-504.5"/>
<text text-anchor="middle" x="290.915" y="-511.5" font-family="Helvetica,sans-Serif" font-size="10.00">run</text>
</a>
</g>
</g>
<!-- Node257&#45;&gt;Node258 -->
<g id="edge11" class="edge"><title>Node257&#45;&gt;Node258</title>
<path fill="none" stroke="midnightblue" d="M290.915,-566.243C290.915,-552.357 290.915,-534.393 290.915,-523.556"/>
<polygon fill="midnightblue" stroke="midnightblue" points="287.415,-566.29 290.915,-576.29 294.415,-566.29 287.415,-566.29"/>
</g>
<!-- Node258&#45;&gt;Node255 -->
<g id="edge12" class="edge"><title>Node258&#45;&gt;Node255</title>
<path fill="none" stroke="midnightblue" d="M282.019,-495.167C248.862,-424.974 133.112,-179.937 108.484,-127.801"/>
<polygon fill="midnightblue" stroke="midnightblue" points="278.855,-496.664 286.291,-504.211 285.185,-493.674 278.855,-496.664"/>
</g>
<!-- Node259&#45;&gt;Node258 -->
<g id="edge14" class="edge"><title>Node259&#45;&gt;Node258</title>
<path fill="none" stroke="midnightblue" d="M290.915,-461.757C290.915,-475.643 290.915,-493.607 290.915,-504.444"/>
<polygon fill="midnightblue" stroke="midnightblue" points="294.415,-461.71 290.915,-451.71 287.415,-461.71 294.415,-461.71"/>
</g>
<!-- Node260&#45;&gt;Node250 -->
<g id="edge16" class="edge"><title>Node260&#45;&gt;Node250</title>
<path fill="none" stroke="midnightblue" d="M244.289,-307.016C295.58,-312.939 361.985,-320.606 410.892,-326.254"/>
<polygon fill="midnightblue" stroke="midnightblue" points="244.577,-303.526 234.241,-305.856 243.774,-310.48 244.577,-303.526"/>
</g>
<!-- Node260&#45;&gt;Node259 -->
<g id="edge17" class="edge"><title>Node260&#45;&gt;Node259</title>
<path fill="none" stroke="midnightblue" d="M181.505,-315.664C208.096,-346.368 261.972,-408.579 282.612,-432.412"/>
<polygon fill="midnightblue" stroke="midnightblue" points="183.972,-313.166 174.779,-307.898 178.68,-317.748 183.972,-313.166"/>
</g>
<!-- Node261&#45;&gt;Node253 -->
<g id="edge20" class="edge"><title>Node261&#45;&gt;Node253</title>
<path fill="none" stroke="midnightblue" d="M307.829,-177.824C294.005,-174.12 279.786,-170.31 269.573,-167.574"/>
<polygon fill="midnightblue" stroke="midnightblue" points="307.196,-181.278 317.761,-180.486 309.008,-174.517 307.196,-181.278"/>
</g>
</g>
</svg>
        <g id="navigator" transform="translate(0 0)" fill="#404254">
                <rect fill="#f2f5e9" fill-opacity="0.5" stroke="#606060" stroke-width=".5" x="0" y="0" width="60" height="60"/>
                <use id="zoomplus" xlink:href="#zoomPlus" x="17" y="9" onmousedown="handleZoom(evt,'in')"/>
                <use id="zoomminus" xlink:href="#zoomMin" x="42" y="9" onmousedown="handleZoom(evt,'out')"/>
                <use id="reset" xlink:href="#resetDef" x="30" y="36" onmousedown="handleReset()"/>
                <g id="arrowUp" xlink:href="#dirArrow" transform="translate(30 24)" onmousedown="handlePan(0,-1)">
                  <use xlink:href="#rim" fill="#404040">
                        <set attributeName="fill" to="#808080" begin="arrowUp.mouseover" end="arrowUp.mouseout"/>
                  </use>
                  <path fill="none" stroke="white" stroke-width="1.5" d="M0,-3.0v7 M-2.5,-0.5L0,-3.0L2.5,-0.5"/>
                </g>
                <g id="arrowRight" xlink:href="#dirArrow" transform="rotate(90) translate(36 -43)" onmousedown="handlePan(1,0)">
                  <use xlink:href="#rim" fill="#404040">
                        <set attributeName="fill" to="#808080" begin="arrowRight.mouseover" end="arrowRight.mouseout"/>
                  </use>
                  <path fill="none" stroke="white" stroke-width="1.5" d="M0,-3.0v7 M-2.5,-0.5L0,-3.0L2.5,-0.5"/>
                </g>
                <g id="arrowDown" xlink:href="#dirArrow" transform="rotate(180) translate(-30 -48)" onmousedown="handlePan(0,1)">
                  <use xlink:href="#rim" fill="#404040">
                        <set attributeName="fill" to="#808080" begin="arrowDown.mouseover" end="arrowDown.mouseout"/>
                  </use>
                  <path fill="none" stroke="white" stroke-width="1.5" d="M0,-3.0v7 M-2.5,-0.5L0,-3.0L2.5,-0.5"/>
                </g>
                <g id="arrowLeft" xlink:href="#dirArrow" transform="rotate(270) translate(-36 17)" onmousedown="handlePan(-1,0)">
                  <use xlink:href="#rim" fill="#404040">
                        <set attributeName="fill" to="#808080" begin="arrowLeft.mouseover" end="arrowLeft.mouseout"/>
                  </use>
                  <path fill="none" stroke="white" stroke-width="1.5" d="M0,-3.0v7 M-2.5,-0.5L0,-3.0L2.5,-0.5"/>
                </g>
        </g>
        <svg viewBox="0 0 15 15" width="100%" height="30px" preserveAspectRatio="xMaxYMin meet">
         <g id="arrow_out" transform="scale(0.3 0.3)">
          <a xlink:href="timebinmgr_8c_a2e2b7b549c7ebcd90457efb5330c1955_icgraph_org.svg" target="_base">
           <rect id="button" ry="5" rx="5" y="6" x="6" height="38" width="38"
                fill="#f2f5e9" fill-opacity="0.5" stroke="#606060" stroke-width="1.0"/>
           <path id="arrow"
             d="M 11.500037,31.436501 C 11.940474,20.09759 22.043105,11.32322 32.158766,21.979434 L 37.068811,17.246167 C 37.068811,17.246167 37.088388,32 37.088388,32 L 22.160133,31.978069 C 22.160133,31.978069 26.997745,27.140456 26.997745,27.140456 C 18.528582,18.264221 13.291696,25.230495 11.500037,31.436501 z"
             style="fill:#404040;"/>
          </a>
         </g>
        </svg>
</svg>
