<?xml version="1.0" encoding="UTF-8" standalone="no"?>
<!DOCTYPE svg PUBLIC "-//W3C//DTD SVG 1.1//EN"
 "http://www.w3.org/Graphics/SVG/1.1/DTD/svg11.dtd">
<!-- Generated by graphviz version 2.38.0 (20140413.2041)
 -->
<!-- Title: apply_PM_half_kick Pages: 1 -->
<svg width="484pt" height="47pt"
 viewBox="0.00 0.00 484.00 47.00" xmlns="http://www.w3.org/2000/svg" xmlns:xlink="http://www.w3.org/1999/xlink">
<g id="graph0" class="graph" transform="scale(1 1) rotate(0) translate(4 43)">
<title>apply_PM_half_kick</title>
<polygon fill="white" stroke="none" points="-4,4 -4,-43 480,-43 480,4 -4,4"/>
<!-- Node29 -->
<g id="node1" class="node"><title>Node29</title>
<polygon fill="#bfbfbf" stroke="black" points="0,-0.5 0,-19.5 104,-19.5 104,-0.5 0,-0.5"/>
<text text-anchor="middle" x="52" y="-7.5" font-family="Helvetica,sans-Serif" font-size="10.00">apply_PM_half_kick</text>
</g>
<!-- Node30 -->
<g id="node2" class="node"><title>Node30</title>
<g id="a_node2"><a xlink:href="run_8c.html#a05e0ffe612d44e6d7f3a9ae5b9df56a2" target="_top" xlink:title="run">
<polygon fill="white" stroke="black" points="140,-0.5 140,-19.5 170,-19.5 170,-0.5 140,-0.5"/>
<text text-anchor="middle" x="155" y="-7.5" font-family="Helvetica,sans-Serif" font-size="10.00">run</text>
</a>
</g>
</g>
<!-- Node29&#45;&gt;Node30 -->
<g id="edge1" class="edge"><title>Node29&#45;&gt;Node30</title>
<path fill="none" stroke="midnightblue" d="M114.162,-10C123.7,-10 132.705,-10 139.733,-10"/>
<polygon fill="midnightblue" stroke="midnightblue" points="114.092,-6.5001 104.092,-10 114.092,-13.5001 114.092,-6.5001"/>
</g>
<!-- Node31 -->
<g id="node3" class="node"><title>Node31</title>
<g id="a_node3"><a xlink:href="main_8c.html#a3c04138a5bfe5d72780bb7e82a18e627" target="_top" xlink:title="main">
<polygon fill="white" stroke="black" points="206,-19.5 206,-38.5 244,-38.5 244,-19.5 206,-19.5"/>
<text text-anchor="middle" x="225" y="-26.5" font-family="Helvetica,sans-Serif" font-size="10.00">main</text>
</a>
</g>
</g>
<!-- Node30&#45;&gt;Node31 -->
<g id="edge2" class="edge"><title>Node30&#45;&gt;Node31</title>
<path fill="none" stroke="midnightblue" d="M179.853,-16.6647C188.37,-19.0447 197.823,-21.686 205.79,-23.9119"/>
<polygon fill="midnightblue" stroke="midnightblue" points="180.663,-13.257 170.09,-13.9368 178.779,-19.9988 180.663,-13.257"/>
</g>
<!-- Node32 -->
<g id="node4" class="node"><title>Node32</title>
<g id="a_node4"><a xlink:href="walltime_8h.html#a76d2135b612766d4d665748454b879d6" target="_top" xlink:title="walltime_report">
<polygon fill="white" stroke="black" points="280,-19.5 280,-38.5 363,-38.5 363,-19.5 280,-19.5"/>
<text text-anchor="middle" x="321.5" y="-26.5" font-family="Helvetica,sans-Serif" font-size="10.00">walltime_report</text>
</a>
</g>
</g>
<!-- Node31&#45;&gt;Node32 -->
<g id="edge3" class="edge"><title>Node31&#45;&gt;Node32</title>
<path fill="none" stroke="midnightblue" d="M254.411,-29C262.347,-29 271.132,-29 279.635,-29"/>
<polygon fill="midnightblue" stroke="midnightblue" points="254.221,-25.5001 244.221,-29 254.221,-32.5001 254.221,-25.5001"/>
</g>
<!-- Node33 -->
<g id="node5" class="node"><title>Node33</title>
<g id="a_node5"><a xlink:href="run_8c.html#adc59e9ee1517e4e690694a64ab6a59d2" target="_top" xlink:title="write_cpu_log">
<polygon fill="white" stroke="black" points="399,-0.5 399,-19.5 476,-19.5 476,-0.5 399,-0.5"/>
<text text-anchor="middle" x="437.5" y="-7.5" font-family="Helvetica,sans-Serif" font-size="10.00">write_cpu_log</text>
</a>
</g>
</g>
<!-- Node32&#45;&gt;Node33 -->
<g id="edge4" class="edge"><title>Node32&#45;&gt;Node33</title>
<path fill="none" stroke="midnightblue" d="M373.031,-20.5782C381.684,-19.1359 390.54,-17.6601 398.785,-16.2859"/>
<polygon fill="midnightblue" stroke="midnightblue" points="372.302,-17.1514 363.013,-22.2478 373.452,-24.0561 372.302,-17.1514"/>
</g>
<!-- Node33&#45;&gt;Node30 -->
<g id="edge5" class="edge"><title>Node33&#45;&gt;Node30</title>
<path fill="none" stroke="midnightblue" d="M388.727,-10C323.488,-10 210.088,-10 170.296,-10"/>
<polygon fill="midnightblue" stroke="midnightblue" points="388.765,-13.5001 398.765,-10 388.765,-6.5001 388.765,-13.5001"/>
</g>
</g>
</svg>
