<?xml version="1.0" encoding="UTF-8" standalone="no"?>
<!DOCTYPE svg PUBLIC "-//W3C//DTD SVG 1.1//EN"
 "http://www.w3.org/Graphics/SVG/1.1/DTD/svg11.dtd">
<!-- Generated by graphviz version 2.50.0 (0)
 -->
<!-- Title: get_exact_drift_factor Pages: 1 -->
<svg width="899pt" height="104pt"
 viewBox="0.00 0.00 899.00 104.00" xmlns="http://www.w3.org/2000/svg" xmlns:xlink="http://www.w3.org/1999/xlink">
<g id="graph0" class="graph" transform="scale(1 1) rotate(0) translate(4 100)">
<title>get_exact_drift_factor</title>
<polygon fill="white" stroke="transparent" points="-4,4 -4,-100 895,-100 895,4 -4,4"/>
<!-- Node1 -->
<g id="node1" class="node">
<title>Node1</title>
<g id="a_node1"><a xlink:title=" ">
<polygon fill="#bfbfbf" stroke="black" points="0,-19.5 0,-38.5 123,-38.5 123,-19.5 0,-19.5"/>
<text text-anchor="middle" x="61.5" y="-26.5" font-family="Helvetica,sans-Serif" font-size="10.00">get_exact_drift_factor</text>
</a>
</g>
</g>
<!-- Node2 -->
<g id="node2" class="node">
<title>Node2</title>
<g id="a_node2"><a xlink:href="timefac_8c.html#a032ad4e64bea7e928dc97ae1c1e361d5" target="_top" xlink:title=" ">
<polygon fill="white" stroke="black" points="175,-38.5 175,-57.5 241,-57.5 241,-38.5 175,-38.5"/>
<text text-anchor="middle" x="208" y="-45.5" font-family="Helvetica,sans-Serif" font-size="10.00">drift_integ</text>
</a>
</g>
</g>
<!-- Node1&#45;&gt;Node2 -->
<g id="edge1" class="edge">
<title>Node1&#45;&gt;Node2</title>
<path fill="none" stroke="midnightblue" d="M123.36,-37C137.36,-38.84 151.94,-40.76 164.94,-42.47"/>
<polygon fill="midnightblue" stroke="midnightblue" points="164.61,-45.96 174.98,-43.79 165.52,-39.02 164.61,-45.96"/>
</g>
<!-- Node10 -->
<g id="node10" class="node">
<title>Node10</title>
<g id="a_node10"><a xlink:href="timefac_8c.html#af1450d3415f072175cac148407f31705" target="_top" xlink:title=" ">
<polygon fill="white" stroke="black" points="159,-0.5 159,-19.5 257,-19.5 257,-0.5 159,-0.5"/>
<text text-anchor="middle" x="208" y="-7.5" font-family="Helvetica,sans-Serif" font-size="10.00">get_exact_factor</text>
</a>
</g>
</g>
<!-- Node1&#45;&gt;Node10 -->
<g id="edge10" class="edge">
<title>Node1&#45;&gt;Node10</title>
<path fill="none" stroke="midnightblue" d="M123.36,-21C131.81,-19.89 140.46,-18.75 148.86,-17.65"/>
<polygon fill="midnightblue" stroke="midnightblue" points="149.47,-21.09 158.93,-16.32 148.56,-14.15 149.47,-21.09"/>
</g>
<!-- Node3 -->
<g id="node3" class="node">
<title>Node3</title>
<g id="a_node3"><a xlink:href="cosmology_8c.html#ab425f16e6fe06110e2fb4944065b81bb" target="_top" xlink:title=" ">
<polygon fill="white" stroke="black" points="293,-38.5 293,-57.5 388,-57.5 388,-38.5 293,-38.5"/>
<text text-anchor="middle" x="340.5" y="-45.5" font-family="Helvetica,sans-Serif" font-size="10.00">hubble_function</text>
</a>
</g>
</g>
<!-- Node2&#45;&gt;Node3 -->
<g id="edge2" class="edge">
<title>Node2&#45;&gt;Node3</title>
<path fill="none" stroke="midnightblue" d="M241.26,-48C253.77,-48 268.48,-48 282.65,-48"/>
<polygon fill="midnightblue" stroke="midnightblue" points="282.83,-51.5 292.83,-48 282.83,-44.5 282.83,-51.5"/>
</g>
<!-- Node4 -->
<g id="node4" class="node">
<title>Node4</title>
<g id="a_node4"><a xlink:href="omega__nu__single_8c.html#aca4b20af5bd369bcd096c670c27c6e36" target="_top" xlink:title=" ">
<polygon fill="white" stroke="black" points="424,-57.5 424,-76.5 513,-76.5 513,-57.5 424,-57.5"/>
<text text-anchor="middle" x="468.5" y="-64.5" font-family="Helvetica,sans-Serif" font-size="10.00">get_omega_nu</text>
</a>
</g>
</g>
<!-- Node3&#45;&gt;Node4 -->
<g id="edge3" class="edge">
<title>Node3&#45;&gt;Node4</title>
<path fill="none" stroke="midnightblue" d="M388.06,-55.02C396.42,-56.28 405.2,-57.61 413.75,-58.9"/>
<polygon fill="midnightblue" stroke="midnightblue" points="413.23,-62.36 423.64,-60.39 414.27,-55.43 413.23,-62.36"/>
</g>
<!-- Node9 -->
<g id="node9" class="node">
<title>Node9</title>
<g id="a_node9"><a xlink:href="cosmology_8c.html#a187e0106f302118344b027cf942347e0" target="_top" xlink:title=" ">
<polygon fill="white" stroke="black" points="433,-19.5 433,-38.5 504,-38.5 504,-19.5 433,-19.5"/>
<text text-anchor="middle" x="468.5" y="-26.5" font-family="Helvetica,sans-Serif" font-size="10.00">OmegaFLD</text>
</a>
</g>
</g>
<!-- Node3&#45;&gt;Node9 -->
<g id="edge9" class="edge">
<title>Node3&#45;&gt;Node9</title>
<path fill="none" stroke="midnightblue" d="M388.06,-40.98C399.44,-39.26 411.59,-37.43 422.87,-35.73"/>
<polygon fill="midnightblue" stroke="midnightblue" points="423.58,-39.16 432.95,-34.21 422.54,-32.24 423.58,-39.16"/>
</g>
<!-- Node5 -->
<g id="node5" class="node">
<title>Node5</title>
<g id="a_node5"><a xlink:href="omega__nu__single_8c.html#a5d81e97a54be82580201631d495bd694" target="_top" xlink:title=" ">
<polygon fill="white" stroke="black" points="549,-57.5 549,-76.5 599,-76.5 599,-57.5 549,-57.5"/>
<text text-anchor="middle" x="574" y="-64.5" font-family="Helvetica,sans-Serif" font-size="10.00">rho_nu</text>
</a>
</g>
</g>
<!-- Node4&#45;&gt;Node5 -->
<g id="edge4" class="edge">
<title>Node4&#45;&gt;Node5</title>
<path fill="none" stroke="midnightblue" d="M513.09,-67C521.72,-67 530.65,-67 538.9,-67"/>
<polygon fill="midnightblue" stroke="midnightblue" points="538.92,-70.5 548.92,-67 538.92,-63.5 538.92,-70.5"/>
</g>
<!-- Node6 -->
<g id="node6" class="node">
<title>Node6</title>
<g id="a_node6"><a xlink:href="omega__nu__single_8c.html#a5d053cc2c3fa75a3c357bbb99af5de62" target="_top" xlink:title=" ">
<polygon fill="white" stroke="black" points="635,-76.5 635,-95.5 726,-95.5 726,-76.5 635,-76.5"/>
<text text-anchor="middle" x="680.5" y="-83.5" font-family="Helvetica,sans-Serif" font-size="10.00">non_rel_rho_nu</text>
</a>
</g>
</g>
<!-- Node5&#45;&gt;Node6 -->
<g id="edge5" class="edge">
<title>Node5&#45;&gt;Node6</title>
<path fill="none" stroke="midnightblue" d="M599.24,-71.41C606.95,-72.81 615.81,-74.42 624.78,-76.05"/>
<polygon fill="midnightblue" stroke="midnightblue" points="624.41,-79.54 634.88,-77.89 625.67,-72.65 624.41,-79.54"/>
</g>
<!-- Node8 -->
<g id="node8" class="node">
<title>Node8</title>
<g id="a_node8"><a xlink:href="omega__nu__single_8c.html#ac447b6c2f0363d19b68b2ce9f29009c4" target="_top" xlink:title=" ">
<polygon fill="white" stroke="black" points="646.5,-38.5 646.5,-57.5 714.5,-57.5 714.5,-38.5 646.5,-38.5"/>
<text text-anchor="middle" x="680.5" y="-45.5" font-family="Helvetica,sans-Serif" font-size="10.00">rel_rho_nu</text>
</a>
</g>
</g>
<!-- Node5&#45;&gt;Node8 -->
<g id="edge7" class="edge">
<title>Node5&#45;&gt;Node8</title>
<path fill="none" stroke="midnightblue" d="M599.24,-62.59C610.27,-60.59 623.68,-58.15 636.35,-55.85"/>
<polygon fill="midnightblue" stroke="midnightblue" points="637.08,-59.27 646.29,-54.04 635.83,-52.38 637.08,-59.27"/>
</g>
<!-- Node7 -->
<g id="node7" class="node">
<title>Node7</title>
<g id="a_node7"><a xlink:href="omega__nu__single_8c.html#acf81fc868c0deb61c3541958dd6114be" target="_top" xlink:title=" ">
<polygon fill="white" stroke="black" points="762,-57.5 762,-76.5 891,-76.5 891,-57.5 762,-57.5"/>
<text text-anchor="middle" x="826.5" y="-64.5" font-family="Helvetica,sans-Serif" font-size="10.00">get_rho_nu_conversion</text>
</a>
</g>
</g>
<!-- Node6&#45;&gt;Node7 -->
<g id="edge6" class="edge">
<title>Node6&#45;&gt;Node7</title>
<path fill="none" stroke="midnightblue" d="M726.27,-80.09C734.49,-79.01 743.26,-77.85 752.07,-76.69"/>
<polygon fill="midnightblue" stroke="midnightblue" points="752.53,-80.16 761.99,-75.38 751.62,-73.22 752.53,-80.16"/>
</g>
<!-- Node8&#45;&gt;Node7 -->
<g id="edge8" class="edge">
<title>Node8&#45;&gt;Node7</title>
<path fill="none" stroke="midnightblue" d="M714.54,-52.36C725.72,-53.83 738.7,-55.55 751.75,-57.27"/>
<polygon fill="midnightblue" stroke="midnightblue" points="751.35,-60.75 761.72,-58.58 752.26,-53.81 751.35,-60.75"/>
</g>
<!-- Node11 -->
<g id="node11" class="node">
<title>Node11</title>
<g id="a_node11"><a xlink:href="test__timefac_8c.html#a5b77523ed91eb413cb28b12d8c2ceb46" target="_top" xlink:title=" ">
<polygon fill="white" stroke="black" points="301.5,-0.5 301.5,-19.5 379.5,-19.5 379.5,-0.5 301.5,-0.5"/>
<text text-anchor="middle" x="340.5" y="-7.5" font-family="Helvetica,sans-Serif" font-size="10.00">loga_from_ti</text>
</a>
</g>
</g>
<!-- Node10&#45;&gt;Node11 -->
<g id="edge11" class="edge">
<title>Node10&#45;&gt;Node11</title>
<path fill="none" stroke="midnightblue" d="M257.22,-10C268.23,-10 279.93,-10 290.94,-10"/>
<polygon fill="midnightblue" stroke="midnightblue" points="291.25,-13.5 301.25,-10 291.25,-6.5 291.25,-13.5"/>
</g>
</g>
</svg>
