<?xml version="1.0" encoding="UTF-8" standalone="no"?>
<!DOCTYPE svg PUBLIC "-//W3C//DTD SVG 1.1//EN"
 "http://www.w3.org/Graphics/SVG/1.1/DTD/svg11.dtd">
<!-- Generated by graphviz version 2.38.0 (20140413.2041)
 -->
<!-- Title: get_long_range_timestep_dloga Pages: 1 -->
<svg width="1282pt" height="104pt"
 viewBox="0.00 0.00 1282.00 104.00" xmlns="http://www.w3.org/2000/svg" xmlns:xlink="http://www.w3.org/1999/xlink">
<g id="graph0" class="graph" transform="scale(1 1) rotate(0) translate(4 100)">
<title>get_long_range_timestep_dloga</title>
<polygon fill="white" stroke="none" points="-4,4 -4,-100 1278,-100 1278,4 -4,4"/>
<!-- Node151 -->
<g id="node1" class="node"><title>Node151</title>
<polygon fill="#bfbfbf" stroke="black" points="0,-14 0,-44 125,-44 125,-14 0,-14"/>
<text text-anchor="start" x="8" y="-32" font-family="Helvetica,sans-Serif" font-size="10.00">get_long_range_timestep</text>
<text text-anchor="middle" x="62.5" y="-21" font-family="Helvetica,sans-Serif" font-size="10.00">_dloga</text>
</g>
<!-- Node152 -->
<g id="node2" class="node"><title>Node152</title>
<g id="a_node2"><a xlink:href="timestep_8c.html#a698aa21800cfd13febdd63096191022c" target="_top" xlink:title="get_long_range_timestep_ti">
<polygon fill="white" stroke="black" points="161,-19.5 161,-38.5 297,-38.5 297,-19.5 161,-19.5"/>
<text text-anchor="middle" x="229" y="-26.5" font-family="Helvetica,sans-Serif" font-size="10.00">get_long_range_timestep_ti</text>
</a>
</g>
</g>
<!-- Node151&#45;&gt;Node152 -->
<g id="edge1" class="edge"><title>Node151&#45;&gt;Node152</title>
<path fill="none" stroke="midnightblue" d="M135.464,-29C143.942,-29 152.567,-29 160.973,-29"/>
<polygon fill="midnightblue" stroke="midnightblue" points="135.222,-25.5001 125.222,-29 135.222,-32.5001 135.222,-25.5001"/>
</g>
<!-- Node153 -->
<g id="node3" class="node"><title>Node153</title>
<g id="a_node3"><a xlink:href="timestep_8h.html#ac4649213db370055ed2ce25277ba7844" target="_top" xlink:title="timestep_allocate_memory">
<polygon fill="white" stroke="black" points="333,-38.5 333,-57.5 467,-57.5 467,-38.5 333,-38.5"/>
<text text-anchor="middle" x="400" y="-45.5" font-family="Helvetica,sans-Serif" font-size="10.00">timestep_allocate_memory</text>
</a>
</g>
</g>
<!-- Node152&#45;&gt;Node153 -->
<g id="edge2" class="edge"><title>Node152&#45;&gt;Node153</title>
<path fill="none" stroke="midnightblue" d="M307.23,-37.6827C315.764,-38.6422 324.398,-39.6128 332.78,-40.5551"/>
<polygon fill="midnightblue" stroke="midnightblue" points="307.607,-34.2031 297.279,-36.5639 306.825,-41.1593 307.607,-34.2031"/>
</g>
<!-- Node162 -->
<g id="node12" class="node"><title>Node162</title>
<g id="a_node12"><a xlink:href="timestep_8h.html#ac4c17d0cf055339694fdd96baadd83c0" target="_top" xlink:title="find_timesteps">
<polygon fill="white" stroke="black" points="515,-0.5 515,-19.5 595,-19.5 595,-0.5 515,-0.5"/>
<text text-anchor="middle" x="555" y="-7.5" font-family="Helvetica,sans-Serif" font-size="10.00">find_timesteps</text>
</a>
</g>
</g>
<!-- Node152&#45;&gt;Node162 -->
<g id="edge12" class="edge"><title>Node152&#45;&gt;Node162</title>
<path fill="none" stroke="midnightblue" d="M307.397,-24.4613C372.778,-20.6272 463.715,-15.2945 514.916,-12.292"/>
<polygon fill="midnightblue" stroke="midnightblue" points="306.911,-20.9837 297.133,-25.0632 307.321,-27.9717 306.911,-20.9837"/>
</g>
<!-- Node154 -->
<g id="node4" class="node"><title>Node154</title>
<g id="a_node4"><a xlink:href="petaio_8c.html#aaa9eefdbfea91c08aa366767aac96a69" target="_top" xlink:title="petaio_read_internal">
<polygon fill="white" stroke="black" points="503,-38.5 503,-57.5 607,-57.5 607,-38.5 503,-38.5"/>
<text text-anchor="middle" x="555" y="-45.5" font-family="Helvetica,sans-Serif" font-size="10.00">petaio_read_internal</text>
</a>
</g>
</g>
<!-- Node153&#45;&gt;Node154 -->
<g id="edge3" class="edge"><title>Node153&#45;&gt;Node154</title>
<path fill="none" stroke="midnightblue" d="M477.358,-48C486.019,-48 494.682,-48 502.904,-48"/>
<polygon fill="midnightblue" stroke="midnightblue" points="477.218,-44.5001 467.218,-48 477.218,-51.5001 477.218,-44.5001"/>
</g>
<!-- Node155 -->
<g id="node5" class="node"><title>Node155</title>
<g id="a_node5"><a xlink:href="petaio_8h.html#a3dd52bd7a320fa9ef1c7963d060ae4ec" target="_top" xlink:title="petaio_read_snapshot">
<polygon fill="white" stroke="black" points="643,-38.5 643,-57.5 755,-57.5 755,-38.5 643,-38.5"/>
<text text-anchor="middle" x="699" y="-45.5" font-family="Helvetica,sans-Serif" font-size="10.00">petaio_read_snapshot</text>
</a>
</g>
</g>
<!-- Node154&#45;&gt;Node155 -->
<g id="edge4" class="edge"><title>Node154&#45;&gt;Node155</title>
<path fill="none" stroke="midnightblue" d="M617.481,-48C625.959,-48 634.621,-48 642.972,-48"/>
<polygon fill="midnightblue" stroke="midnightblue" points="617.265,-44.5001 607.265,-48 617.265,-51.5001 617.265,-44.5001"/>
</g>
<!-- Node156 -->
<g id="node6" class="node"><title>Node156</title>
<g id="a_node6"><a xlink:href="proto_8h.html#ab080cb20bac2a1a6153a84e8cfd15374" target="_top" xlink:title="init">
<polygon fill="white" stroke="black" points="791,-38.5 791,-57.5 820,-57.5 820,-38.5 791,-38.5"/>
<text text-anchor="middle" x="805.5" y="-45.5" font-family="Helvetica,sans-Serif" font-size="10.00">init</text>
</a>
</g>
</g>
<!-- Node155&#45;&gt;Node156 -->
<g id="edge5" class="edge"><title>Node155&#45;&gt;Node156</title>
<path fill="none" stroke="midnightblue" d="M765.24,-48C774.901,-48 783.928,-48 790.885,-48"/>
<polygon fill="midnightblue" stroke="midnightblue" points="765.004,-44.5001 755.004,-48 765.004,-51.5001 765.004,-44.5001"/>
</g>
<!-- Node157 -->
<g id="node7" class="node"><title>Node157</title>
<g id="a_node7"><a xlink:href="proto_8h.html#a74dc0e5e9eefe11fc8434b62de573146" target="_top" xlink:title="begrun">
<polygon fill="white" stroke="black" points="856,-38.5 856,-57.5 902,-57.5 902,-38.5 856,-38.5"/>
<text text-anchor="middle" x="879" y="-45.5" font-family="Helvetica,sans-Serif" font-size="10.00">begrun</text>
</a>
</g>
</g>
<!-- Node156&#45;&gt;Node157 -->
<g id="edge6" class="edge"><title>Node156&#45;&gt;Node157</title>
<path fill="none" stroke="midnightblue" d="M830.37,-48C838.585,-48 847.743,-48 855.818,-48"/>
<polygon fill="midnightblue" stroke="midnightblue" points="830.286,-44.5001 820.286,-48 830.286,-51.5001 830.286,-44.5001"/>
</g>
<!-- Node158 -->
<g id="node8" class="node"><title>Node158</title>
<g id="a_node8"><a xlink:href="main_8c.html#a3c04138a5bfe5d72780bb7e82a18e627" target="_top" xlink:title="main">
<polygon fill="white" stroke="black" points="938,-38.5 938,-57.5 976,-57.5 976,-38.5 938,-38.5"/>
<text text-anchor="middle" x="957" y="-45.5" font-family="Helvetica,sans-Serif" font-size="10.00">main</text>
</a>
</g>
</g>
<!-- Node157&#45;&gt;Node158 -->
<g id="edge7" class="edge"><title>Node157&#45;&gt;Node158</title>
<path fill="none" stroke="midnightblue" d="M912.541,-48C921.114,-48 930.067,-48 937.603,-48"/>
<polygon fill="midnightblue" stroke="midnightblue" points="912.391,-44.5001 902.391,-48 912.391,-51.5001 912.391,-44.5001"/>
</g>
<!-- Node159 -->
<g id="node9" class="node"><title>Node159</title>
<g id="a_node9"><a xlink:href="walltime_8h.html#a76d2135b612766d4d665748454b879d6" target="_top" xlink:title="walltime_report">
<polygon fill="white" stroke="black" points="1012,-76.5 1012,-95.5 1095,-95.5 1095,-76.5 1012,-76.5"/>
<text text-anchor="middle" x="1053.5" y="-83.5" font-family="Helvetica,sans-Serif" font-size="10.00">walltime_report</text>
</a>
</g>
</g>
<!-- Node158&#45;&gt;Node159 -->
<g id="edge8" class="edge"><title>Node158&#45;&gt;Node159</title>
<path fill="none" stroke="midnightblue" d="M985.594,-59.096C999.226,-64.5778 1015.52,-71.1279 1028.61,-76.3926"/>
<polygon fill="midnightblue" stroke="midnightblue" points="986.804,-55.8104 976.221,-55.3268 984.193,-62.305 986.804,-55.8104"/>
</g>
<!-- Node160 -->
<g id="node10" class="node"><title>Node160</title>
<g id="a_node10"><a xlink:href="run_8c.html#adc59e9ee1517e4e690694a64ab6a59d2" target="_top" xlink:title="write_cpu_log">
<polygon fill="white" stroke="black" points="1131,-76.5 1131,-95.5 1208,-95.5 1208,-76.5 1131,-76.5"/>
<text text-anchor="middle" x="1169.5" y="-83.5" font-family="Helvetica,sans-Serif" font-size="10.00">write_cpu_log</text>
</a>
</g>
</g>
<!-- Node159&#45;&gt;Node160 -->
<g id="edge9" class="edge"><title>Node159&#45;&gt;Node160</title>
<path fill="none" stroke="midnightblue" d="M1105.03,-86C1113.68,-86 1122.54,-86 1130.78,-86"/>
<polygon fill="midnightblue" stroke="midnightblue" points="1105.01,-82.5001 1095.01,-86 1105.01,-89.5001 1105.01,-82.5001"/>
</g>
<!-- Node161 -->
<g id="node11" class="node"><title>Node161</title>
<g id="a_node11"><a xlink:href="run_8c.html#a05e0ffe612d44e6d7f3a9ae5b9df56a2" target="_top" xlink:title="run">
<polygon fill="white" stroke="black" points="1244,-38.5 1244,-57.5 1274,-57.5 1274,-38.5 1244,-38.5"/>
<text text-anchor="middle" x="1259" y="-45.5" font-family="Helvetica,sans-Serif" font-size="10.00">run</text>
</a>
</g>
</g>
<!-- Node160&#45;&gt;Node161 -->
<g id="edge10" class="edge"><title>Node160&#45;&gt;Node161</title>
<path fill="none" stroke="midnightblue" d="M1202.1,-72.2746C1216.42,-66.0585 1232.62,-59.0243 1243.87,-54.1344"/>
<polygon fill="midnightblue" stroke="midnightblue" points="1200.36,-69.2172 1192.58,-76.411 1203.15,-75.6378 1200.36,-69.2172"/>
</g>
<!-- Node161&#45;&gt;Node158 -->
<g id="edge11" class="edge"><title>Node161&#45;&gt;Node158</title>
<path fill="none" stroke="midnightblue" d="M1233.76,-48C1175.39,-48 1028.06,-48 976.315,-48"/>
<polygon fill="midnightblue" stroke="midnightblue" points="1233.89,-51.5001 1243.89,-48 1233.89,-44.5001 1233.89,-51.5001"/>
</g>
<!-- Node162&#45;&gt;Node161 -->
<g id="edge13" class="edge"><title>Node162&#45;&gt;Node161</title>
<path fill="none" stroke="midnightblue" d="M605.401,-10C655.548,-10 735.424,-10 804.5,-10 804.5,-10 804.5,-10 1054.5,-10 1126.74,-10 1210.99,-33.4259 1243.86,-43.4917"/>
<polygon fill="midnightblue" stroke="midnightblue" points="605.166,-6.5001 595.166,-10 605.166,-13.5001 605.166,-6.5001"/>
</g>
</g>
</svg>
