<?xml version="1.0" encoding="UTF-8" standalone="no"?>
<!DOCTYPE svg PUBLIC "-//W3C//DTD SVG 1.1//EN"
 "http://www.w3.org/Graphics/SVG/1.1/DTD/svg11.dtd">
<!-- Generated by graphviz version 2.38.0 (20140413.2041)
 -->
<!-- Title: dti_from_dloga Pages: 1 -->
<svg width="541pt" height="104pt"
 viewBox="0.00 0.00 541.00 104.00" xmlns="http://www.w3.org/2000/svg" xmlns:xlink="http://www.w3.org/1999/xlink">
<g id="graph0" class="graph" transform="scale(1 1) rotate(0) translate(4 100)">
<title>dti_from_dloga</title>
<polygon fill="white" stroke="none" points="-4,4 -4,-100 537,-100 537,4 -4,4"/>
<!-- Node108 -->
<g id="node1" class="node"><title>Node108</title>
<polygon fill="#bfbfbf" stroke="black" points="5.68434e-14,-19.5 5.68434e-14,-38.5 80,-38.5 80,-19.5 5.68434e-14,-19.5"/>
<text text-anchor="middle" x="40" y="-26.5" font-family="Helvetica,sans-Serif" font-size="10.00">dti_from_dloga</text>
</g>
<!-- Node109 -->
<g id="node2" class="node"><title>Node109</title>
<g id="a_node2"><a xlink:href="timebinmgr_8c.html#a90eb3a2bdca47035148249e68fc244be" target="_top" xlink:title="loga_from_ti">
<polygon fill="white" stroke="black" points="116,-38.5 116,-57.5 186,-57.5 186,-38.5 116,-38.5"/>
<text text-anchor="middle" x="151" y="-45.5" font-family="Helvetica,sans-Serif" font-size="10.00">loga_from_ti</text>
</a>
</g>
</g>
<!-- Node108&#45;&gt;Node109 -->
<g id="edge1" class="edge"><title>Node108&#45;&gt;Node109</title>
<path fill="none" stroke="midnightblue" d="M80.0436,-35.8058C88.4736,-37.2752 97.4414,-38.8384 106.045,-40.3381"/>
<polygon fill="midnightblue" stroke="midnightblue" points="105.47,-43.7906 115.923,-42.0599 106.672,-36.8946 105.47,-43.7906"/>
</g>
<!-- Node115 -->
<g id="node8" class="node"><title>Node115</title>
<g id="a_node8"><a xlink:href="timebinmgr_8c.html#a2e2b7b549c7ebcd90457efb5330c1955" target="_top" xlink:title="ti_from_loga">
<polygon fill="white" stroke="black" points="116,-0.5 116,-19.5 186,-19.5 186,-0.5 116,-0.5"/>
<text text-anchor="middle" x="151" y="-7.5" font-family="Helvetica,sans-Serif" font-size="10.00">ti_from_loga</text>
</a>
</g>
</g>
<!-- Node108&#45;&gt;Node115 -->
<g id="edge7" class="edge"><title>Node108&#45;&gt;Node115</title>
<path fill="none" stroke="midnightblue" d="M80.0436,-22.1942C88.4736,-20.7248 97.4414,-19.1616 106.045,-17.6619"/>
<polygon fill="midnightblue" stroke="midnightblue" points="106.672,-21.1054 115.923,-15.9401 105.47,-14.2094 106.672,-21.1054"/>
</g>
<!-- Node110 -->
<g id="node3" class="node"><title>Node110</title>
<g id="a_node3"><a xlink:href="endrun_8c.html#ad963d7efdb9f10f7a2298c8ccd222ab0" target="_top" xlink:title="endrun">
<polygon fill="white" stroke="black" points="243.5,-57.5 243.5,-76.5 289.5,-76.5 289.5,-57.5 243.5,-57.5"/>
<text text-anchor="middle" x="266.5" y="-64.5" font-family="Helvetica,sans-Serif" font-size="10.00">endrun</text>
</a>
</g>
</g>
<!-- Node109&#45;&gt;Node110 -->
<g id="edge2" class="edge"><title>Node109&#45;&gt;Node110</title>
<path fill="none" stroke="midnightblue" d="M186.054,-53.7006C200.976,-56.1987 218.405,-59.1163 233.13,-61.5813"/>
<polygon fill="midnightblue" stroke="midnightblue" points="232.86,-65.0846 243.3,-63.2837 234.015,-58.1806 232.86,-65.0846"/>
</g>
<!-- Node114 -->
<g id="node7" class="node"><title>Node114</title>
<g id="a_node7"><a xlink:href="timebinmgr_8c.html#a1aaa55e4aa15066a753c96e8646e62be" target="_top" xlink:title="Dloga_interval_ti">
<polygon fill="white" stroke="black" points="222,-19.5 222,-38.5 311,-38.5 311,-19.5 222,-19.5"/>
<text text-anchor="middle" x="266.5" y="-26.5" font-family="Helvetica,sans-Serif" font-size="10.00">Dloga_interval_ti</text>
</a>
</g>
</g>
<!-- Node109&#45;&gt;Node114 -->
<g id="edge6" class="edge"><title>Node109&#45;&gt;Node114</title>
<path fill="none" stroke="midnightblue" d="M186.054,-42.2994C194.126,-40.9481 202.932,-39.4739 211.647,-38.0151"/>
<polygon fill="midnightblue" stroke="midnightblue" points="212.5,-41.421 221.785,-36.3179 211.345,-34.517 212.5,-41.421"/>
</g>
<!-- Node111 -->
<g id="node4" class="node"><title>Node111</title>
<g id="a_node4"><a xlink:href="endrun_8c.html#a7267113a7c0a094743bb565eabc695d1" target="_top" xlink:title="messagev">
<polygon fill="white" stroke="black" points="347,-57.5 347,-76.5 409,-76.5 409,-57.5 347,-57.5"/>
<text text-anchor="middle" x="378" y="-64.5" font-family="Helvetica,sans-Serif" font-size="10.00">messagev</text>
</a>
</g>
</g>
<!-- Node110&#45;&gt;Node111 -->
<g id="edge3" class="edge"><title>Node110&#45;&gt;Node111</title>
<path fill="none" stroke="midnightblue" d="M289.659,-67C303.193,-67 320.903,-67 336.836,-67"/>
<polygon fill="midnightblue" stroke="midnightblue" points="336.988,-70.5001 346.988,-67 336.988,-63.5001 336.988,-70.5001"/>
</g>
<!-- Node112 -->
<g id="node5" class="node"><title>Node112</title>
<g id="a_node5"><a xlink:href="endrun_8c.html#a87108946670b4c3afbe846c6726675ff" target="_top" xlink:title="putline">
<polygon fill="white" stroke="black" points="466.5,-76.5 466.5,-95.5 511.5,-95.5 511.5,-76.5 466.5,-76.5"/>
<text text-anchor="middle" x="489" y="-83.5" font-family="Helvetica,sans-Serif" font-size="10.00">putline</text>
</a>
</g>
</g>
<!-- Node111&#45;&gt;Node112 -->
<g id="edge4" class="edge"><title>Node111&#45;&gt;Node112</title>
<path fill="none" stroke="midnightblue" d="M409.073,-72.2421C423.677,-74.7877 441.231,-77.8476 456.072,-80.4346"/>
<polygon fill="midnightblue" stroke="midnightblue" points="455.866,-83.9514 466.318,-82.2207 457.068,-77.0553 455.866,-83.9514"/>
</g>
<!-- Node113 -->
<g id="node6" class="node"><title>Node113</title>
<g id="a_node6"><a xlink:href="endrun_8c.html#a1200f02a595ab7cbe17c9e36ff32af0f" target="_top" xlink:title="show_backtrace">
<polygon fill="white" stroke="black" points="445,-38.5 445,-57.5 533,-57.5 533,-38.5 445,-38.5"/>
<text text-anchor="middle" x="489" y="-45.5" font-family="Helvetica,sans-Serif" font-size="10.00">show_backtrace</text>
</a>
</g>
</g>
<!-- Node111&#45;&gt;Node113 -->
<g id="edge5" class="edge"><title>Node111&#45;&gt;Node113</title>
<path fill="none" stroke="midnightblue" d="M409.073,-61.7579C417.131,-60.3533 426.087,-58.7921 434.991,-57.2402"/>
<polygon fill="midnightblue" stroke="midnightblue" points="435.719,-60.6661 444.969,-55.5008 434.517,-53.7701 435.719,-60.6661"/>
</g>
</g>
</svg>
