<?xml version="1.0" encoding="UTF-8" standalone="no"?>
<!DOCTYPE svg PUBLIC "-//W3C//DTD SVG 1.1//EN"
 "http://www.w3.org/Graphics/SVG/1.1/DTD/svg11.dtd">
<!-- Generated by graphviz version 2.50.0 (0)
 -->
<!-- Title: hydrokick_integ Pages: 1 -->
<svg width="1549pt" height="600pt"
 viewBox="0.00 0.00 1549.00 600.00" xmlns="http://www.w3.org/2000/svg" xmlns:xlink="http://www.w3.org/1999/xlink">
<g id="graph0" class="graph" transform="scale(1 1) rotate(0) translate(4 596)">
<title>hydrokick_integ</title>
<polygon fill="white" stroke="transparent" points="-4,4 -4,-596 1545,-596 1545,4 -4,4"/>
<!-- Node1 -->
<g id="node1" class="node">
<title>Node1</title>
<g id="a_node1"><a xlink:title=" ">
<polygon fill="#bfbfbf" stroke="black" points="1446,-304.5 1446,-323.5 1541,-323.5 1541,-304.5 1446,-304.5"/>
<text text-anchor="middle" x="1493.5" y="-311.5" font-family="Helvetica,sans-Serif" font-size="10.00">hydrokick_integ</text>
</a>
</g>
</g>
<!-- Node2 -->
<g id="node2" class="node">
<title>Node2</title>
<g id="a_node2"><a xlink:href="timefac_8c.html#a2bfd65177ba7cde60bbe22eb0a84f96b" target="_top" xlink:title=" ">
<polygon fill="white" stroke="black" points="1292,-299 1292,-329 1410,-329 1410,-299 1292,-299"/>
<text text-anchor="start" x="1300" y="-317" font-family="Helvetica,sans-Serif" font-size="10.00">get_exact_hydrokick</text>
<text text-anchor="middle" x="1351" y="-306" font-family="Helvetica,sans-Serif" font-size="10.00">_factor</text>
</a>
</g>
</g>
<!-- Node1&#45;&gt;Node2 -->
<g id="edge1" class="edge">
<title>Node1&#45;&gt;Node2</title>
<path fill="none" stroke="midnightblue" d="M1435.69,-314C1427.33,-314 1418.71,-314 1410.33,-314"/>
<polygon fill="midnightblue" stroke="midnightblue" points="1435.72,-317.5 1445.72,-314 1435.72,-310.5 1435.72,-317.5"/>
</g>
<!-- Node3 -->
<g id="node3" class="node">
<title>Node3</title>
<g id="a_node3"><a xlink:href="timestep_8c.html#a8cd9d7c91611cbf3493edfa7d5491be9" target="_top" xlink:title=" ">
<polygon fill="white" stroke="black" points="1162.5,-512.5 1162.5,-531.5 1255.5,-531.5 1255.5,-512.5 1162.5,-512.5"/>
<text text-anchor="middle" x="1209" y="-519.5" font-family="Helvetica,sans-Serif" font-size="10.00">apply_half_kick</text>
</a>
</g>
</g>
<!-- Node2&#45;&gt;Node3 -->
<g id="edge2" class="edge">
<title>Node2&#45;&gt;Node3</title>
<path fill="none" stroke="midnightblue" d="M1334.07,-337.66C1303.43,-383.19 1237.45,-481.22 1216.51,-512.32"/>
<polygon fill="midnightblue" stroke="midnightblue" points="1337.03,-339.54 1339.71,-329.29 1331.22,-335.64 1337.03,-339.54"/>
</g>
<!-- Node6 -->
<g id="node6" class="node">
<title>Node6</title>
<g id="a_node6"><a xlink:href="density_8c.html#ac49d34dfc3f4e37cac0953d5bc1417a4" target="_top" xlink:title=" ">
<polygon fill="white" stroke="black" points="1182.5,-285.5 1182.5,-304.5 1235.5,-304.5 1235.5,-285.5 1182.5,-285.5"/>
<text text-anchor="middle" x="1209" y="-292.5" font-family="Helvetica,sans-Serif" font-size="10.00">density</text>
</a>
</g>
</g>
<!-- Node2&#45;&gt;Node6 -->
<g id="edge5" class="edge">
<title>Node2&#45;&gt;Node6</title>
<path fill="none" stroke="midnightblue" d="M1281.69,-304.73C1265.31,-302.51 1248.8,-300.27 1235.77,-298.5"/>
<polygon fill="midnightblue" stroke="midnightblue" points="1281.46,-308.23 1291.84,-306.11 1282.41,-301.29 1281.46,-308.23"/>
</g>
<!-- Node52 -->
<g id="node48" class="node">
<title>Node52</title>
<g id="a_node48"><a xlink:href="hydra_8c.html#aab8e916e02126d7f36d2065cc5678dec" target="_top" xlink:title=" ">
<polygon fill="white" stroke="black" points="1172,-424.5 1172,-443.5 1246,-443.5 1246,-424.5 1172,-424.5"/>
<text text-anchor="middle" x="1209" y="-431.5" font-family="Helvetica,sans-Serif" font-size="10.00">hydro_force</text>
</a>
</g>
</g>
<!-- Node2&#45;&gt;Node52 -->
<g id="edge68" class="edge">
<title>Node2&#45;&gt;Node52</title>
<path fill="none" stroke="midnightblue" d="M1324.52,-335.84C1293.75,-362.21 1243.36,-405.41 1221.13,-424.46"/>
<polygon fill="midnightblue" stroke="midnightblue" points="1326.95,-338.36 1332.27,-329.2 1322.4,-333.05 1326.95,-338.36"/>
</g>
<!-- Node53 -->
<g id="node49" class="node">
<title>Node53</title>
<g id="a_node49"><a xlink:href="test__timefac_8c.html#a449a8fbcbdd350bbf27adfbae064ae1a" target="_top" xlink:title=" ">
<polygon fill="white" stroke="black" points="1162,-133.5 1162,-152.5 1256,-152.5 1256,-133.5 1162,-133.5"/>
<text text-anchor="middle" x="1209" y="-140.5" font-family="Helvetica,sans-Serif" font-size="10.00">test_drift_factor</text>
</a>
</g>
</g>
<!-- Node2&#45;&gt;Node53 -->
<g id="edge70" class="edge">
<title>Node2&#45;&gt;Node53</title>
<path fill="none" stroke="midnightblue" d="M1331.05,-290.86C1299.95,-252.86 1239.35,-178.85 1217.82,-152.55"/>
<polygon fill="midnightblue" stroke="midnightblue" points="1328.53,-293.3 1337.58,-298.82 1333.95,-288.87 1328.53,-293.3"/>
</g>
<!-- Node4 -->
<g id="node4" class="node">
<title>Node4</title>
<g id="a_node4"><a xlink:href="run_8c.html#a89690448ef43a8d624b963382b7503ed" target="_top" xlink:title=" ">
<polygon fill="white" stroke="black" points="1049.5,-544.5 1049.5,-563.5 1081.5,-563.5 1081.5,-544.5 1049.5,-544.5"/>
<text text-anchor="middle" x="1065.5" y="-551.5" font-family="Helvetica,sans-Serif" font-size="10.00">run</text>
</a>
</g>
</g>
<!-- Node3&#45;&gt;Node4 -->
<g id="edge3" class="edge">
<title>Node3&#45;&gt;Node4</title>
<path fill="none" stroke="midnightblue" d="M1156.04,-533.75C1129.68,-539.71 1099.57,-546.52 1081.84,-550.53"/>
<polygon fill="midnightblue" stroke="midnightblue" points="1156.95,-537.13 1165.93,-531.51 1155.4,-530.31 1156.95,-537.13"/>
</g>
<!-- Node5 -->
<g id="node5" class="node">
<title>Node5</title>
<g id="a_node5"><a xlink:href="gadget_2main_8c.html#a3c04138a5bfe5d72780bb7e82a18e627" target="_top" xlink:title=" ">
<polygon fill="white" stroke="black" points="55.5,-430.5 55.5,-449.5 96.5,-449.5 96.5,-430.5 55.5,-430.5"/>
<text text-anchor="middle" x="76" y="-437.5" font-family="Helvetica,sans-Serif" font-size="10.00">main</text>
</a>
</g>
</g>
<!-- Node4&#45;&gt;Node5 -->
<g id="edge4" class="edge">
<title>Node4&#45;&gt;Node5</title>
<path fill="none" stroke="midnightblue" d="M1039.62,-559.8C1020.42,-564.06 993.16,-569.67 969,-573 860.59,-587.93 832.94,-592 723.5,-592 723.5,-592 723.5,-592 398,-592 264.2,-592 126.59,-482.78 87.76,-449.51"/>
<polygon fill="midnightblue" stroke="midnightblue" points="1040.4,-563.21 1049.38,-557.59 1038.85,-556.38 1040.4,-563.21"/>
</g>
<!-- Node6&#45;&gt;Node4 -->
<g id="edge61" class="edge">
<title>Node6&#45;&gt;Node4</title>
<path fill="none" stroke="midnightblue" d="M1200.2,-314.03C1190.67,-337.56 1174.31,-378.93 1162,-415 1144.02,-467.7 1165.02,-495.28 1126,-535 1114.3,-546.91 1095.14,-551.37 1081.74,-553.03"/>
<polygon fill="midnightblue" stroke="midnightblue" points="1203.53,-315.14 1204.06,-304.55 1197.04,-312.5 1203.53,-315.14"/>
</g>
<!-- Node7 -->
<g id="node7" class="node">
<title>Node7</title>
<g id="a_node7"><a xlink:href="density_8c.html#ae39f5a18f937d210e258c8e8cb710044" target="_top" xlink:title=" ">
<polygon fill="white" stroke="black" points="1007.5,-38.5 1007.5,-57.5 1123.5,-57.5 1123.5,-38.5 1007.5,-38.5"/>
<text text-anchor="middle" x="1065.5" y="-45.5" font-family="Helvetica,sans-Serif" font-size="10.00">density_postprocess</text>
</a>
</g>
</g>
<!-- Node6&#45;&gt;Node7 -->
<g id="edge6" class="edge">
<title>Node6&#45;&gt;Node7</title>
<path fill="none" stroke="midnightblue" d="M1202.66,-275.67C1185.7,-221.08 1133.67,-70.91 1126,-63 1124.14,-61.08 1122.1,-59.31 1119.94,-57.69"/>
<polygon fill="midnightblue" stroke="midnightblue" points="1199.31,-276.69 1205.57,-285.24 1206.01,-274.66 1199.31,-276.69"/>
</g>
<!-- Node8 -->
<g id="node8" class="node">
<title>Node8</title>
<g id="a_node8"><a xlink:href="test__density_8c.html#a1f2c8c2a35e14ec19a93d42363f0fe55" target="_top" xlink:title=" ">
<polygon fill="white" stroke="black" points="1018.5,-506.5 1018.5,-525.5 1112.5,-525.5 1112.5,-506.5 1018.5,-506.5"/>
<text text-anchor="middle" x="1065.5" y="-513.5" font-family="Helvetica,sans-Serif" font-size="10.00">do_density_test</text>
</a>
</g>
</g>
<!-- Node6&#45;&gt;Node8 -->
<g id="edge8" class="edge">
<title>Node6&#45;&gt;Node8</title>
<path fill="none" stroke="midnightblue" d="M1200.75,-314.09C1182.06,-363.17 1133.16,-490.37 1126,-497 1121.78,-500.91 1116.76,-504.01 1111.45,-506.47"/>
<polygon fill="midnightblue" stroke="midnightblue" points="1204.07,-315.22 1204.35,-304.63 1197.53,-312.73 1204.07,-315.22"/>
</g>
<!-- Node13 -->
<g id="node13" class="node">
<title>Node13</title>
<g id="a_node13"><a xlink:href="cooling__rates_8c.html#a3bb9e77ab6f85db5eaded74d8532e817" target="_top" xlink:title=" ">
<polygon fill="white" stroke="black" points="1005,-468.5 1005,-487.5 1126,-487.5 1126,-468.5 1005,-468.5"/>
<text text-anchor="middle" x="1065.5" y="-475.5" font-family="Helvetica,sans-Serif" font-size="10.00">get_compton_cooling</text>
</a>
</g>
</g>
<!-- Node6&#45;&gt;Node13 -->
<g id="edge13" class="edge">
<title>Node6&#45;&gt;Node13</title>
<path fill="none" stroke="midnightblue" d="M1202.82,-314.49C1193.09,-347.52 1169.11,-414.72 1126,-454 1119.17,-460.23 1110.51,-464.94 1101.93,-468.46"/>
<polygon fill="midnightblue" stroke="midnightblue" points="1206.24,-315.26 1205.57,-304.69 1199.5,-313.37 1206.24,-315.26"/>
</g>
<!-- Node14 -->
<g id="node14" class="node">
<title>Node14</title>
<g id="a_node14"><a xlink:href="cooling__rates_8c.html#a49fe0aaef8ccce8a7757d95bd7e747bc" target="_top" xlink:title=" ">
<polygon fill="white" stroke="black" points="1021.5,-190.5 1021.5,-209.5 1109.5,-209.5 1109.5,-190.5 1021.5,-190.5"/>
<text text-anchor="middle" x="1065.5" y="-197.5" font-family="Helvetica,sans-Serif" font-size="10.00">get_equilib_ne</text>
</a>
</g>
</g>
<!-- Node6&#45;&gt;Node14 -->
<g id="edge14" class="edge">
<title>Node6&#45;&gt;Node14</title>
<path fill="none" stroke="midnightblue" d="M1191.41,-277.67C1175.71,-262.03 1150.9,-239.22 1126,-224 1116.59,-218.25 1105.56,-213.36 1095.57,-209.52"/>
<polygon fill="midnightblue" stroke="midnightblue" points="1189.23,-280.44 1198.74,-285.11 1194.21,-275.53 1189.23,-280.44"/>
</g>
<!-- Node15 -->
<g id="node15" class="node">
<title>Node15</title>
<g id="a_node15"><a xlink:href="cooling__rates_8c.html#a95acdc83b28994ee3d85976205493223" target="_top" xlink:title=" ">
<polygon fill="white" stroke="black" points="831,-190.5 831,-209.5 965,-209.5 965,-190.5 831,-190.5"/>
<text text-anchor="middle" x="898" y="-197.5" font-family="Helvetica,sans-Serif" font-size="10.00">get_heatingcooling_rate</text>
</a>
</g>
</g>
<!-- Node6&#45;&gt;Node15 -->
<g id="edge55" class="edge">
<title>Node6&#45;&gt;Node15</title>
<path fill="none" stroke="midnightblue" d="M1200.79,-275.76C1189.51,-248.82 1164.88,-200.93 1126,-181 1058.6,-146.46 965.01,-174.23 922.13,-190.41"/>
<polygon fill="midnightblue" stroke="midnightblue" points="1197.62,-277.27 1204.57,-285.27 1204.13,-274.68 1197.62,-277.27"/>
</g>
<!-- Node42 -->
<g id="node37" class="node">
<title>Node42</title>
<g id="a_node37"><a xlink:href="cooling__rates_8c.html#a7d2ed144da379e39dba0b89504f18b3f" target="_top" xlink:title=" ">
<polygon fill="white" stroke="black" points="827,-228.5 827,-247.5 969,-247.5 969,-228.5 827,-228.5"/>
<text text-anchor="middle" x="898" y="-235.5" font-family="Helvetica,sans-Serif" font-size="10.00">get_helium_ion_phys_cgs</text>
</a>
</g>
</g>
<!-- Node6&#45;&gt;Node42 -->
<g id="edge56" class="edge">
<title>Node6&#45;&gt;Node42</title>
<path fill="none" stroke="midnightblue" d="M1172.21,-287.34C1157.86,-284.33 1141.17,-280.91 1126,-278 1068.23,-266.92 1001.95,-255.38 955.99,-247.56"/>
<polygon fill="midnightblue" stroke="midnightblue" points="1171.68,-290.8 1182.19,-289.44 1173.13,-283.95 1171.68,-290.8"/>
</g>
<!-- Node44 -->
<g id="node39" class="node">
<title>Node44</title>
<g id="a_node39"><a xlink:href="cooling__rates_8c.html#af7b5f48ba3aba9d9bfd66f17d3b804dd" target="_top" xlink:title=" ">
<polygon fill="white" stroke="black" points="835,-304.5 835,-323.5 961,-323.5 961,-304.5 835,-304.5"/>
<text text-anchor="middle" x="898" y="-311.5" font-family="Helvetica,sans-Serif" font-size="10.00">get_individual_cooling</text>
</a>
</g>
</g>
<!-- Node6&#45;&gt;Node44 -->
<g id="edge57" class="edge">
<title>Node6&#45;&gt;Node44</title>
<path fill="none" stroke="midnightblue" d="M1172.45,-297.19C1120.87,-300.36 1024.51,-306.28 961.06,-310.18"/>
<polygon fill="midnightblue" stroke="midnightblue" points="1172.68,-300.68 1182.45,-296.57 1172.25,-293.69 1172.68,-300.68"/>
</g>
<!-- Node45 -->
<g id="node40" class="node">
<title>Node45</title>
<g id="a_node40"><a xlink:href="cooling__rates_8c.html#a39b57e3a443ae27897938bc736562c52" target="_top" xlink:title=" ">
<polygon fill="white" stroke="black" points="856,-266.5 856,-285.5 940,-285.5 940,-266.5 856,-266.5"/>
<text text-anchor="middle" x="898" y="-273.5" font-family="Helvetica,sans-Serif" font-size="10.00">get_ne_by_nh</text>
</a>
</g>
</g>
<!-- Node6&#45;&gt;Node45 -->
<g id="edge58" class="edge">
<title>Node6&#45;&gt;Node45</title>
<path fill="none" stroke="midnightblue" d="M1172.36,-292.81C1114.7,-289.26 1001.28,-282.29 940.23,-278.54"/>
<polygon fill="midnightblue" stroke="midnightblue" points="1172.25,-296.31 1182.45,-293.43 1172.68,-289.32 1172.25,-296.31"/>
</g>
<!-- Node46 -->
<g id="node41" class="node">
<title>Node46</title>
<g id="a_node41"><a xlink:href="cooling__rates_8c.html#ac2956701ee030f7151eb7aee494f0ed5" target="_top" xlink:title=" ">
<polygon fill="white" stroke="black" points="840.5,-65 840.5,-95 955.5,-95 955.5,-65 840.5,-65"/>
<text text-anchor="start" x="848.5" y="-83" font-family="Helvetica,sans-Serif" font-size="10.00">get_neutral_fraction</text>
<text text-anchor="middle" x="898" y="-72" font-family="Helvetica,sans-Serif" font-size="10.00">_phys_cgs</text>
</a>
</g>
</g>
<!-- Node6&#45;&gt;Node46 -->
<g id="edge59" class="edge">
<title>Node6&#45;&gt;Node46</title>
<path fill="none" stroke="midnightblue" d="M1201.64,-275.75C1187.55,-234.24 1152.82,-138.45 1126,-118 1077.22,-80.81 1005.33,-74.56 955.57,-75.51"/>
<polygon fill="midnightblue" stroke="midnightblue" points="1198.41,-277.11 1204.91,-285.48 1205.05,-274.89 1198.41,-277.11"/>
</g>
<!-- Node49 -->
<g id="node44" class="node">
<title>Node49</title>
<g id="a_node44"><a xlink:href="cooling_8h.html#a9d49b5c9b051327b017b311226aa4730" target="_top" xlink:title=" ">
<polygon fill="white" stroke="black" points="866.5,-114.5 866.5,-133.5 929.5,-133.5 929.5,-114.5 866.5,-114.5"/>
<text text-anchor="middle" x="898" y="-121.5" font-family="Helvetica,sans-Serif" font-size="10.00">get_temp</text>
</a>
</g>
</g>
<!-- Node6&#45;&gt;Node49 -->
<g id="edge60" class="edge">
<title>Node6&#45;&gt;Node49</title>
<path fill="none" stroke="midnightblue" d="M1202.04,-275.38C1191.79,-245.23 1167.77,-188.04 1126,-160 1065.7,-119.53 976.41,-118.41 929.82,-121.14"/>
<polygon fill="midnightblue" stroke="midnightblue" points="1198.8,-276.73 1205.21,-285.16 1205.46,-274.57 1198.8,-276.73"/>
</g>
<!-- Node20 -->
<g id="node45" class="node">
<title>Node20</title>
<g id="a_node45"><a xlink:href="run_8c.html#a02ef4c629cc0fea15dce527f09ea672f" target="_top" xlink:title=" ">
<polygon fill="white" stroke="black" points="533.5,-430.5 533.5,-449.5 579.5,-449.5 579.5,-430.5 533.5,-430.5"/>
<text text-anchor="middle" x="556.5" y="-437.5" font-family="Helvetica,sans-Serif" font-size="10.00">runfof</text>
</a>
</g>
</g>
<!-- Node6&#45;&gt;Node20 -->
<g id="edge62" class="edge">
<title>Node6&#45;&gt;Node20</title>
<path fill="none" stroke="midnightblue" d="M1201.89,-314.33C1191.54,-343.43 1167.52,-397.58 1126,-421 1030.42,-474.92 672.32,-449.54 579.55,-441.91"/>
<polygon fill="midnightblue" stroke="midnightblue" points="1205.32,-315.11 1205.2,-304.52 1198.69,-312.88 1205.32,-315.11"/>
</g>
<!-- Node50 -->
<g id="node46" class="node">
<title>Node50</title>
<g id="a_node46"><a xlink:href="init_8c.html#af35b2ff44ee11141241741fa051ad2ac" target="_top" xlink:title=" ">
<polygon fill="white" stroke="black" points="1007,-381 1007,-411 1124,-411 1124,-381 1007,-381"/>
<text text-anchor="start" x="1015" y="-399" font-family="Helvetica,sans-Serif" font-size="10.00">setup_density_indep</text>
<text text-anchor="middle" x="1065.5" y="-388" font-family="Helvetica,sans-Serif" font-size="10.00">_entropy</text>
</a>
</g>
</g>
<!-- Node6&#45;&gt;Node50 -->
<g id="edge64" class="edge">
<title>Node6&#45;&gt;Node50</title>
<path fill="none" stroke="midnightblue" d="M1191.1,-311.85C1175.19,-327.16 1150.25,-349.75 1126,-366 1117.93,-371.41 1108.75,-376.5 1100.05,-380.9"/>
<polygon fill="midnightblue" stroke="midnightblue" points="1193.83,-314.08 1198.54,-304.59 1188.94,-309.07 1193.83,-314.08"/>
</g>
<!-- Node51 -->
<g id="node47" class="node">
<title>Node51</title>
<g id="a_node47"><a xlink:href="init_8c.html#a713a74e1e0ca55699bc6581763bae177" target="_top" xlink:title=" ">
<polygon fill="white" stroke="black" points="829.5,-386.5 829.5,-405.5 966.5,-405.5 966.5,-386.5 829.5,-386.5"/>
<text text-anchor="middle" x="898" y="-393.5" font-family="Helvetica,sans-Serif" font-size="10.00">setup_smoothinglengths</text>
</a>
</g>
</g>
<!-- Node6&#45;&gt;Node51 -->
<g id="edge67" class="edge">
<title>Node6&#45;&gt;Node51</title>
<path fill="none" stroke="midnightblue" d="M1172.79,-306.51C1111.23,-326.63 985.16,-367.84 928.15,-386.47"/>
<polygon fill="midnightblue" stroke="midnightblue" points="1174.03,-309.78 1182.45,-303.35 1171.86,-303.13 1174.03,-309.78"/>
</g>
<!-- Node7&#45;&gt;Node6 -->
<g id="edge7" class="edge">
<title>Node7&#45;&gt;Node6</title>
<path fill="none" stroke="midnightblue" d="M1091.07,-61.04C1102.97,-65.5 1116.67,-71.38 1126,-81 1133.81,-89.05 1187.54,-244.39 1203.52,-285.41"/>
<polygon fill="midnightblue" stroke="midnightblue" points="1092.22,-57.73 1081.62,-57.57 1089.8,-64.3 1092.22,-57.73"/>
</g>
<!-- Node9 -->
<g id="node9" class="node">
<title>Node9</title>
<g id="a_node9"><a xlink:href="test__density_8c.html#ab398a273f1cc5a1816af9ef286a460f3" target="_top" xlink:title=" ">
<polygon fill="white" stroke="black" points="850.5,-544.5 850.5,-563.5 945.5,-563.5 945.5,-544.5 850.5,-544.5"/>
<text text-anchor="middle" x="898" y="-551.5" font-family="Helvetica,sans-Serif" font-size="10.00">do_random_test</text>
</a>
</g>
</g>
<!-- Node8&#45;&gt;Node9 -->
<g id="edge9" class="edge">
<title>Node8&#45;&gt;Node9</title>
<path fill="none" stroke="midnightblue" d="M1012.69,-527.9C989.43,-533.24 962.35,-539.45 940.46,-544.48"/>
<polygon fill="midnightblue" stroke="midnightblue" points="1013.77,-531.24 1022.74,-525.59 1012.21,-524.42 1013.77,-531.24"/>
</g>
<!-- Node11 -->
<g id="node11" class="node">
<title>Node11</title>
<g id="a_node11"><a xlink:href="test__density_8c.html#a0b98ad62e33169daca9a098f23b22730" target="_top" xlink:title=" ">
<polygon fill="white" stroke="black" points="844.5,-506.5 844.5,-525.5 951.5,-525.5 951.5,-506.5 844.5,-506.5"/>
<text text-anchor="middle" x="898" y="-513.5" font-family="Helvetica,sans-Serif" font-size="10.00">test_density_close</text>
</a>
</g>
</g>
<!-- Node8&#45;&gt;Node11 -->
<g id="edge11" class="edge">
<title>Node8&#45;&gt;Node11</title>
<path fill="none" stroke="midnightblue" d="M1008.16,-516C989.84,-516 969.6,-516 951.57,-516"/>
<polygon fill="midnightblue" stroke="midnightblue" points="1008.4,-519.5 1018.4,-516 1008.4,-512.5 1008.4,-519.5"/>
</g>
<!-- Node12 -->
<g id="node12" class="node">
<title>Node12</title>
<g id="a_node12"><a xlink:href="test__density_8c.html#af90097e65c497dae6bed7b2d03702f89" target="_top" xlink:title=" ">
<polygon fill="white" stroke="black" points="849,-468.5 849,-487.5 947,-487.5 947,-468.5 849,-468.5"/>
<text text-anchor="middle" x="898" y="-475.5" font-family="Helvetica,sans-Serif" font-size="10.00">test_density_flat</text>
</a>
</g>
</g>
<!-- Node8&#45;&gt;Node12 -->
<g id="edge12" class="edge">
<title>Node8&#45;&gt;Node12</title>
<path fill="none" stroke="midnightblue" d="M1012.69,-504.1C989.43,-498.76 962.35,-492.55 940.46,-487.52"/>
<polygon fill="midnightblue" stroke="midnightblue" points="1012.21,-507.58 1022.74,-506.41 1013.77,-500.76 1012.21,-507.58"/>
</g>
<!-- Node10 -->
<g id="node10" class="node">
<title>Node10</title>
<g id="a_node10"><a xlink:href="test__density_8c.html#a79c97c1ac28bcad8abc150104d7cb7c0" target="_top" xlink:title=" ">
<polygon fill="white" stroke="black" points="663,-544.5 663,-563.5 782,-563.5 782,-544.5 663,-544.5"/>
<text text-anchor="middle" x="722.5" y="-551.5" font-family="Helvetica,sans-Serif" font-size="10.00">test_density_random</text>
</a>
</g>
</g>
<!-- Node9&#45;&gt;Node10 -->
<g id="edge10" class="edge">
<title>Node9&#45;&gt;Node10</title>
<path fill="none" stroke="midnightblue" d="M840,-554C821.49,-554 800.92,-554 782.28,-554"/>
<polygon fill="midnightblue" stroke="midnightblue" points="840.05,-557.5 850.05,-554 840.05,-550.5 840.05,-557.5"/>
</g>
<!-- Node14&#45;&gt;Node15 -->
<g id="edge15" class="edge">
<title>Node14&#45;&gt;Node15</title>
<path fill="none" stroke="midnightblue" d="M1011.09,-200C996.49,-200 980.49,-200 965.26,-200"/>
<polygon fill="midnightblue" stroke="midnightblue" points="1011.45,-203.5 1021.45,-200 1011.45,-196.5 1011.45,-203.5"/>
</g>
<!-- Node14&#45;&gt;Node42 -->
<g id="edge42" class="edge">
<title>Node14&#45;&gt;Node42</title>
<path fill="none" stroke="midnightblue" d="M1012.69,-211.9C989.43,-217.24 962.35,-223.45 940.46,-228.48"/>
<polygon fill="midnightblue" stroke="midnightblue" points="1013.77,-215.24 1022.74,-209.59 1012.21,-208.42 1013.77,-215.24"/>
</g>
<!-- Node14&#45;&gt;Node44 -->
<g id="edge45" class="edge">
<title>Node14&#45;&gt;Node44</title>
<path fill="none" stroke="midnightblue" d="M1051.47,-217.7C1034.74,-239.17 1003.7,-274.95 969,-295 962.35,-298.84 954.89,-301.93 947.39,-304.41"/>
<polygon fill="midnightblue" stroke="midnightblue" points="1054.27,-219.8 1057.54,-209.73 1048.7,-215.56 1054.27,-219.8"/>
</g>
<!-- Node14&#45;&gt;Node45 -->
<g id="edge46" class="edge">
<title>Node14&#45;&gt;Node45</title>
<path fill="none" stroke="midnightblue" d="M1042.8,-215.3C1024.01,-227.96 995.73,-245.65 969,-257 959.96,-260.84 949.93,-264.1 940.35,-266.78"/>
<polygon fill="midnightblue" stroke="midnightblue" points="1044.94,-218.08 1051.21,-209.54 1040.98,-212.31 1044.94,-218.08"/>
</g>
<!-- Node14&#45;&gt;Node46 -->
<g id="edge47" class="edge">
<title>Node14&#45;&gt;Node46</title>
<path fill="none" stroke="midnightblue" d="M1050.72,-182.13C1033.61,-161.04 1002.57,-126.18 969,-105 963,-101.21 956.34,-97.9 949.59,-95.03"/>
<polygon fill="midnightblue" stroke="midnightblue" points="1048.2,-184.59 1057.16,-190.24 1053.68,-180.24 1048.2,-184.59"/>
</g>
<!-- Node48 -->
<g id="node43" class="node">
<title>Node48</title>
<g id="a_node43"><a xlink:href="test__cooling__rates_8c.html#ab44c08fa4b634165f11849064be29d98" target="_top" xlink:title=" ">
<polygon fill="white" stroke="black" points="670,-114.5 670,-133.5 775,-133.5 775,-114.5 670,-114.5"/>
<text text-anchor="middle" x="722.5" y="-121.5" font-family="Helvetica,sans-Serif" font-size="10.00">test_rate_network</text>
</a>
</g>
</g>
<!-- Node14&#45;&gt;Node48 -->
<g id="edge54" class="edge">
<title>Node14&#45;&gt;Node48</title>
<path fill="none" stroke="midnightblue" d="M1011.65,-188.22C944.08,-173.16 828.42,-147.39 766.17,-133.51"/>
<polygon fill="midnightblue" stroke="midnightblue" points="1011.14,-191.69 1021.66,-190.45 1012.66,-184.86 1011.14,-191.69"/>
</g>
<!-- Node14&#45;&gt;Node49 -->
<g id="edge52" class="edge">
<title>Node14&#45;&gt;Node49</title>
<path fill="none" stroke="midnightblue" d="M1039.83,-185.07C1020.88,-173.97 993.83,-158.93 969,-148 956.42,-142.46 942.12,-137.36 929.75,-133.3"/>
<polygon fill="midnightblue" stroke="midnightblue" points="1038.31,-188.23 1048.7,-190.32 1041.87,-182.21 1038.31,-188.23"/>
</g>
<!-- Node16 -->
<g id="node16" class="node">
<title>Node16</title>
<g id="a_node16"><a xlink:href="cooling_8c.html#a6b70cdd6a87b2bcaec1739ac40ad79e3" target="_top" xlink:title=" ">
<polygon fill="white" stroke="black" points="677.5,-190.5 677.5,-209.5 767.5,-209.5 767.5,-190.5 677.5,-190.5"/>
<text text-anchor="middle" x="722.5" y="-197.5" font-family="Helvetica,sans-Serif" font-size="10.00">get_lambdanet</text>
</a>
</g>
</g>
<!-- Node15&#45;&gt;Node16 -->
<g id="edge16" class="edge">
<title>Node15&#45;&gt;Node16</title>
<path fill="none" stroke="midnightblue" d="M820.88,-200C802.68,-200 783.84,-200 767.64,-200"/>
<polygon fill="midnightblue" stroke="midnightblue" points="820.91,-203.5 830.91,-200 820.91,-196.5 820.91,-203.5"/>
</g>
<!-- Node23 -->
<g id="node21" class="node">
<title>Node23</title>
<g id="a_node21"><a xlink:href="cooling_8c.html#a2cb008d71b53fcb66c3596042453bdb8" target="_top" xlink:title=" ">
<polygon fill="white" stroke="black" points="675,-228.5 675,-247.5 770,-247.5 770,-228.5 675,-228.5"/>
<text text-anchor="middle" x="722.5" y="-235.5" font-family="Helvetica,sans-Serif" font-size="10.00">GetCoolingTime</text>
</a>
</g>
</g>
<!-- Node15&#45;&gt;Node23 -->
<g id="edge21" class="edge">
<title>Node15&#45;&gt;Node23</title>
<path fill="none" stroke="midnightblue" d="M843.34,-211.75C818.81,-217.13 790.12,-223.41 766.97,-228.48"/>
<polygon fill="midnightblue" stroke="midnightblue" points="844.2,-215.15 853.22,-209.59 842.7,-208.31 844.2,-215.15"/>
</g>
<!-- Node40 -->
<g id="node35" class="node">
<title>Node40</title>
<g id="a_node35"><a xlink:href="test__cooling__rates_8c.html#a055d88ea6d38fc323deccde7fd0dca3f" target="_top" xlink:title=" ">
<polygon fill="white" stroke="black" points="654,-152.5 654,-171.5 791,-171.5 791,-152.5 654,-152.5"/>
<text text-anchor="middle" x="722.5" y="-159.5" font-family="Helvetica,sans-Serif" font-size="10.00">test_heatingcooling_rate</text>
</a>
</g>
</g>
<!-- Node15&#45;&gt;Node40 -->
<g id="edge40" class="edge">
<title>Node15&#45;&gt;Node40</title>
<path fill="none" stroke="midnightblue" d="M843.34,-188.25C818.81,-182.87 790.12,-176.59 766.97,-171.52"/>
<polygon fill="midnightblue" stroke="midnightblue" points="842.7,-191.69 853.22,-190.41 844.2,-184.85 842.7,-191.69"/>
</g>
<!-- Node17 -->
<g id="node17" class="node">
<title>Node17</title>
<g id="a_node17"><a xlink:href="cooling_8c.html#ad3b2ce3b26247df36f1de8c97ccccf05" target="_top" xlink:title=" ">
<polygon fill="white" stroke="black" points="523,-152.5 523,-171.5 590,-171.5 590,-152.5 523,-152.5"/>
<text text-anchor="middle" x="556.5" y="-159.5" font-family="Helvetica,sans-Serif" font-size="10.00">DoCooling</text>
</a>
</g>
</g>
<!-- Node16&#45;&gt;Node17 -->
<g id="edge17" class="edge">
<title>Node16&#45;&gt;Node17</title>
<path fill="none" stroke="midnightblue" d="M670.34,-188.15C644.13,-182.07 613,-174.86 590.08,-169.55"/>
<polygon fill="midnightblue" stroke="midnightblue" points="669.58,-191.56 680.12,-190.41 671.16,-184.74 669.58,-191.56"/>
</g>
<!-- Node18 -->
<g id="node18" class="node">
<title>Node18</title>
<g id="a_node18"><a xlink:href="sfr__eff_8c.html#adbc106c51df0aa2c0b5727eadbf2dd3c" target="_top" xlink:title=" ">
<polygon fill="white" stroke="red" points="356.5,-143.5 356.5,-162.5 441.5,-162.5 441.5,-143.5 356.5,-143.5"/>
<text text-anchor="middle" x="399" y="-150.5" font-family="Helvetica,sans-Serif" font-size="10.00">cooling_direct</text>
</a>
</g>
</g>
<!-- Node17&#45;&gt;Node18 -->
<g id="edge18" class="edge">
<title>Node17&#45;&gt;Node18</title>
<path fill="none" stroke="midnightblue" d="M512.78,-159.53C490.65,-158.25 463.72,-156.69 441.73,-155.42"/>
<polygon fill="midnightblue" stroke="midnightblue" points="512.72,-163.03 522.9,-160.11 513.12,-156.04 512.72,-163.03"/>
</g>
<!-- Node21 -->
<g id="node19" class="node">
<title>Node21</title>
<g id="a_node19"><a xlink:href="test__cooling_8c.html#a5fe9c1155a1baae832661fc31fea0654" target="_top" xlink:title=" ">
<polygon fill="white" stroke="black" points="353.5,-181.5 353.5,-200.5 444.5,-200.5 444.5,-181.5 353.5,-181.5"/>
<text text-anchor="middle" x="399" y="-188.5" font-family="Helvetica,sans-Serif" font-size="10.00">test_DoCooling</text>
</a>
</g>
</g>
<!-- Node17&#45;&gt;Node21 -->
<g id="edge19" class="edge">
<title>Node17&#45;&gt;Node21</title>
<path fill="none" stroke="midnightblue" d="M512.89,-169.95C491.7,-173.9 466.11,-178.67 444.65,-182.67"/>
<polygon fill="midnightblue" stroke="midnightblue" points="513.71,-173.35 522.9,-168.08 512.43,-166.47 513.71,-173.35"/>
</g>
<!-- Node22 -->
<g id="node20" class="node">
<title>Node22</title>
<g id="a_node20"><a xlink:href="test__cooling_8c.html#a840291bc02cba5474a4cb46a9b9566fe" target="_top" xlink:title=" ">
<polygon fill="white" stroke="black" points="225,-178.5 225,-197.5 266,-197.5 266,-178.5 225,-178.5"/>
<text text-anchor="middle" x="245.5" y="-185.5" font-family="Helvetica,sans-Serif" font-size="10.00">main</text>
</a>
</g>
</g>
<!-- Node21&#45;&gt;Node22 -->
<g id="edge20" class="edge">
<title>Node21&#45;&gt;Node22</title>
<path fill="none" stroke="midnightblue" d="M343.26,-189.92C316.34,-189.38 285.57,-188.77 266.09,-188.39"/>
<polygon fill="midnightblue" stroke="midnightblue" points="343.3,-193.42 353.36,-190.12 343.44,-186.42 343.3,-193.42"/>
</g>
<!-- Node23&#45;&gt;Node21 -->
<g id="edge39" class="edge">
<title>Node23&#45;&gt;Node21</title>
<path fill="none" stroke="midnightblue" d="M664.7,-227C649.55,-224.23 633.18,-221.37 618,-219 558.24,-209.68 488.91,-201.17 444.77,-196.04"/>
<polygon fill="midnightblue" stroke="midnightblue" points="664.49,-230.53 674.96,-228.91 665.77,-223.64 664.49,-230.53"/>
</g>
<!-- Node24 -->
<g id="node22" class="node">
<title>Node24</title>
<g id="a_node22"><a xlink:href="sfr__eff_8c.html#a64f07331e54d0eb86fd4f6466d58e0f2" target="_top" xlink:title=" ">
<polygon fill="white" stroke="black" points="510,-228.5 510,-247.5 603,-247.5 603,-228.5 510,-228.5"/>
<text text-anchor="middle" x="556.5" y="-235.5" font-family="Helvetica,sans-Serif" font-size="10.00">cooling_relaxed</text>
</a>
</g>
</g>
<!-- Node23&#45;&gt;Node24 -->
<g id="edge22" class="edge">
<title>Node23&#45;&gt;Node24</title>
<path fill="none" stroke="midnightblue" d="M664.92,-238C644.71,-238 622.21,-238 603.04,-238"/>
<polygon fill="midnightblue" stroke="midnightblue" points="664.94,-241.5 674.94,-238 664.94,-234.5 664.94,-241.5"/>
</g>
<!-- Node34 -->
<g id="node31" class="node">
<title>Node34</title>
<g id="a_node31"><a xlink:href="sfr__eff_8c.html#a054be999a15e37a4d4d9b8dde836f287" target="_top" xlink:title=" ">
<polygon fill="white" stroke="black" points="522.5,-266.5 522.5,-285.5 590.5,-285.5 590.5,-266.5 522.5,-266.5"/>
<text text-anchor="middle" x="556.5" y="-273.5" font-family="Helvetica,sans-Serif" font-size="10.00">get_egyeff</text>
</a>
</g>
</g>
<!-- Node23&#45;&gt;Node34 -->
<g id="edge31" class="edge">
<title>Node23&#45;&gt;Node34</title>
<path fill="none" stroke="midnightblue" d="M670.06,-249.92C644.11,-255.93 613.4,-263.05 590.61,-268.33"/>
<polygon fill="midnightblue" stroke="midnightblue" points="671.16,-253.26 680.12,-247.59 669.58,-246.44 671.16,-253.26"/>
</g>
<!-- Node35 -->
<g id="node32" class="node">
<title>Node35</title>
<g id="a_node32"><a xlink:href="sfr__eff_8c.html#a17ba6f2251e04bc57005d00cc09640c8" target="_top" xlink:title=" ">
<polygon fill="white" stroke="black" points="339,-299 339,-329 459,-329 459,-299 339,-299"/>
<text text-anchor="start" x="347" y="-317" font-family="Helvetica,sans-Serif" font-size="10.00">init_cooling_and_star</text>
<text text-anchor="middle" x="399" y="-306" font-family="Helvetica,sans-Serif" font-size="10.00">_formation</text>
</a>
</g>
</g>
<!-- Node23&#45;&gt;Node35 -->
<g id="edge38" class="edge">
<title>Node23&#45;&gt;Node35</title>
<path fill="none" stroke="midnightblue" d="M699.84,-253.46C679.69,-266.96 648.3,-285.79 618,-295 565.84,-310.86 503.66,-314.91 459.08,-315.41"/>
<polygon fill="midnightblue" stroke="midnightblue" points="701.99,-256.23 708.26,-247.69 698.03,-250.46 701.99,-256.23"/>
</g>
<!-- Node25 -->
<g id="node23" class="node">
<title>Node25</title>
<g id="a_node23"><a xlink:href="sfr__eff_8c.html#a4951e59bdceebd7b56b972942bc3a10d" target="_top" xlink:title=" ">
<polygon fill="white" stroke="black" points="356.5,-222.5 356.5,-241.5 441.5,-241.5 441.5,-222.5 356.5,-222.5"/>
<text text-anchor="middle" x="399" y="-229.5" font-family="Helvetica,sans-Serif" font-size="10.00">get_sfr_eeqos</text>
</a>
</g>
</g>
<!-- Node24&#45;&gt;Node25 -->
<g id="edge23" class="edge">
<title>Node24&#45;&gt;Node25</title>
<path fill="none" stroke="midnightblue" d="M499.57,-235.84C480.41,-235.1 459.33,-234.29 441.51,-233.6"/>
<polygon fill="midnightblue" stroke="midnightblue" points="499.56,-239.34 509.69,-236.23 499.83,-232.35 499.56,-239.34"/>
</g>
<!-- Node26 -->
<g id="node24" class="node">
<title>Node26</title>
<g id="a_node24"><a xlink:href="sfr__eff_8c.html#a18c2f2fb564de2ff8a5372d8bcbe0968" target="_top" xlink:title=" ">
<polygon fill="white" stroke="black" points="190,-282 190,-312 301,-312 301,-282 190,-282"/>
<text text-anchor="start" x="198" y="-300" font-family="Helvetica,sans-Serif" font-size="10.00">get_helium_neutral</text>
<text text-anchor="middle" x="245.5" y="-289" font-family="Helvetica,sans-Serif" font-size="10.00">_fraction_sfreff</text>
</a>
</g>
</g>
<!-- Node25&#45;&gt;Node26 -->
<g id="edge24" class="edge">
<title>Node25&#45;&gt;Node26</title>
<path fill="none" stroke="midnightblue" d="M355.35,-244.89C349.8,-246.82 344.23,-248.87 339,-251 316.74,-260.06 292.44,-272.24 274.33,-281.79"/>
<polygon fill="midnightblue" stroke="midnightblue" points="356.85,-248.08 365.23,-241.59 354.63,-241.44 356.85,-248.08"/>
</g>
<!-- Node30 -->
<g id="node28" class="node">
<title>Node30</title>
<g id="a_node28"><a xlink:href="sfr__eff_8c.html#a4e4a6b5d6976b26f1ababfba475c1f4c" target="_top" xlink:title=" ">
<polygon fill="white" stroke="black" points="188,-217 188,-247 303,-247 303,-217 188,-217"/>
<text text-anchor="start" x="196" y="-235" font-family="Helvetica,sans-Serif" font-size="10.00">get_neutral_fraction</text>
<text text-anchor="middle" x="245.5" y="-224" font-family="Helvetica,sans-Serif" font-size="10.00">_sfreff</text>
</a>
</g>
</g>
<!-- Node25&#45;&gt;Node30 -->
<g id="edge28" class="edge">
<title>Node25&#45;&gt;Node30</title>
<path fill="none" stroke="midnightblue" d="M345.92,-232C332.14,-232 317.2,-232 303.19,-232"/>
<polygon fill="midnightblue" stroke="midnightblue" points="346.2,-235.5 356.2,-232 346.2,-228.5 346.2,-235.5"/>
</g>
<!-- Node27 -->
<g id="node25" class="node">
<title>Node27</title>
<g id="a_node25"><a xlink:href="petaio_8c.html#a7c9ab26d8fa276570275e651ef60b626" target="_top" xlink:title=" ">
<polygon fill="white" stroke="black" points="22.5,-342.5 22.5,-361.5 129.5,-361.5 129.5,-342.5 22.5,-342.5"/>
<text text-anchor="middle" x="76" y="-349.5" font-family="Helvetica,sans-Serif" font-size="10.00">GTHeliumIFraction</text>
</a>
</g>
</g>
<!-- Node26&#45;&gt;Node27 -->
<g id="edge25" class="edge">
<title>Node26&#45;&gt;Node27</title>
<path fill="none" stroke="midnightblue" d="M199.34,-315.86C184.41,-321.75 167.62,-328 152,-333 141.25,-336.44 129.48,-339.67 118.52,-342.45"/>
<polygon fill="midnightblue" stroke="midnightblue" points="200.86,-319.02 208.85,-312.06 198.26,-312.52 200.86,-319.02"/>
</g>
<!-- Node28 -->
<g id="node26" class="node">
<title>Node28</title>
<g id="a_node26"><a xlink:href="petaio_8c.html#a07cf999493947ef5a5a1c09a6eb9a811" target="_top" xlink:title=" ">
<polygon fill="white" stroke="black" points="21,-304.5 21,-323.5 131,-323.5 131,-304.5 21,-304.5"/>
<text text-anchor="middle" x="76" y="-311.5" font-family="Helvetica,sans-Serif" font-size="10.00">GTHeliumIIFraction</text>
</a>
</g>
</g>
<!-- Node26&#45;&gt;Node28 -->
<g id="edge26" class="edge">
<title>Node26&#45;&gt;Node28</title>
<path fill="none" stroke="midnightblue" d="M179.33,-303.61C163.38,-305.23 146.48,-306.95 131.11,-308.51"/>
<polygon fill="midnightblue" stroke="midnightblue" points="180.06,-307.06 189.65,-302.57 179.35,-300.09 180.06,-307.06"/>
</g>
<!-- Node29 -->
<g id="node27" class="node">
<title>Node29</title>
<g id="a_node27"><a xlink:href="petaio_8c.html#ab79156c0afd70a6ac3953b8db5a718a3" target="_top" xlink:title=" ">
<polygon fill="white" stroke="black" points="19.5,-266.5 19.5,-285.5 132.5,-285.5 132.5,-266.5 19.5,-266.5"/>
<text text-anchor="middle" x="76" y="-273.5" font-family="Helvetica,sans-Serif" font-size="10.00">GTHeliumIIIFraction</text>
</a>
</g>
</g>
<!-- Node26&#45;&gt;Node29 -->
<g id="edge27" class="edge">
<title>Node26&#45;&gt;Node29</title>
<path fill="none" stroke="midnightblue" d="M179.6,-288.86C164.06,-286.92 147.61,-284.85 132.54,-282.96"/>
<polygon fill="midnightblue" stroke="midnightblue" points="179.3,-292.35 189.65,-290.12 180.17,-285.41 179.3,-292.35"/>
</g>
<!-- Node31 -->
<g id="node29" class="node">
<title>Node31</title>
<g id="a_node29"><a xlink:href="blackhole_8c.html#a8acb3cb152653ffaa7953e776e056382" target="_top" xlink:title=" ">
<polygon fill="white" stroke="red" points="19,-217 19,-247 133,-247 133,-217 19,-217"/>
<text text-anchor="start" x="27" y="-235" font-family="Helvetica,sans-Serif" font-size="10.00">blackhole_accretion</text>
<text text-anchor="middle" x="76" y="-224" font-family="Helvetica,sans-Serif" font-size="10.00">_ngbiter</text>
</a>
</g>
</g>
<!-- Node30&#45;&gt;Node31 -->
<g id="edge29" class="edge">
<title>Node30&#45;&gt;Node31</title>
<path fill="none" stroke="midnightblue" d="M177.7,-232C162.91,-232 147.39,-232 133.08,-232"/>
<polygon fill="midnightblue" stroke="midnightblue" points="177.79,-235.5 187.79,-232 177.79,-228.5 177.79,-235.5"/>
</g>
<!-- Node33 -->
<g id="node30" class="node">
<title>Node33</title>
<g id="a_node30"><a xlink:href="petaio_8c.html#a52bacc56b79300a30f2ac8ebc1c7fd07" target="_top" xlink:title=" ">
<polygon fill="white" stroke="black" points="0,-178.5 0,-197.5 152,-197.5 152,-178.5 0,-178.5"/>
<text text-anchor="middle" x="76" y="-185.5" font-family="Helvetica,sans-Serif" font-size="10.00">GTNeutralHydrogenFraction</text>
</a>
</g>
</g>
<!-- Node30&#45;&gt;Node33 -->
<g id="edge30" class="edge">
<title>Node30&#45;&gt;Node33</title>
<path fill="none" stroke="midnightblue" d="M177.84,-214.49C155.87,-208.72 132.26,-202.52 113.42,-197.57"/>
<polygon fill="midnightblue" stroke="midnightblue" points="177.23,-217.95 187.79,-217.1 179.01,-211.18 177.23,-217.95"/>
</g>
<!-- Node34&#45;&gt;Node35 -->
<g id="edge32" class="edge">
<title>Node34&#45;&gt;Node35</title>
<path fill="none" stroke="midnightblue" d="M512.26,-286.57C495.79,-290.59 476.72,-295.25 459.04,-299.57"/>
<polygon fill="midnightblue" stroke="midnightblue" points="513.26,-289.93 522.14,-284.15 511.6,-283.13 513.26,-289.93"/>
</g>
<!-- Node37 -->
<g id="node34" class="node">
<title>Node37</title>
<g id="a_node34"><a xlink:href="sfr__eff_8c.html#a4080dc1b2496c08090d1101544b48cc2" target="_top" xlink:title=" ">
<polygon fill="white" stroke="red" points="352,-260.5 352,-279.5 446,-279.5 446,-260.5 352,-260.5"/>
<text text-anchor="middle" x="399" y="-267.5" font-family="Helvetica,sans-Serif" font-size="10.00">sfreff_on_eeqos</text>
</a>
</g>
</g>
<!-- Node34&#45;&gt;Node37 -->
<g id="edge35" class="edge">
<title>Node34&#45;&gt;Node37</title>
<path fill="none" stroke="midnightblue" d="M512.13,-274.33C491.63,-273.54 467.14,-272.59 446.28,-271.79"/>
<polygon fill="midnightblue" stroke="midnightblue" points="512.01,-277.82 522.14,-274.71 512.28,-270.83 512.01,-277.82"/>
</g>
<!-- Node36 -->
<g id="node33" class="node">
<title>Node36</title>
<g id="a_node33"><a xlink:href="run_8c.html#aee4609880c9e92e1c421c4bd238589fd" target="_top" xlink:title=" ">
<polygon fill="white" stroke="black" points="220.5,-386.5 220.5,-405.5 270.5,-405.5 270.5,-386.5 220.5,-386.5"/>
<text text-anchor="middle" x="245.5" y="-393.5" font-family="Helvetica,sans-Serif" font-size="10.00">begrun</text>
</a>
</g>
</g>
<!-- Node35&#45;&gt;Node36 -->
<g id="edge33" class="edge">
<title>Node35&#45;&gt;Node36</title>
<path fill="none" stroke="midnightblue" d="M361.07,-333.99C330.3,-350.64 287.81,-373.64 264.17,-386.44"/>
<polygon fill="midnightblue" stroke="midnightblue" points="363.08,-336.88 370.21,-329.04 359.75,-330.72 363.08,-336.88"/>
</g>
<!-- Node36&#45;&gt;Node5 -->
<g id="edge34" class="edge">
<title>Node36&#45;&gt;Node5</title>
<path fill="none" stroke="midnightblue" d="M210.11,-405.03C175.88,-414.03 124.53,-427.51 96.68,-434.83"/>
<polygon fill="midnightblue" stroke="midnightblue" points="211.36,-408.32 220.14,-402.4 209.58,-401.55 211.36,-408.32"/>
</g>
<!-- Node37&#45;&gt;Node26 -->
<g id="edge36" class="edge">
<title>Node37&#45;&gt;Node26</title>
<path fill="none" stroke="midnightblue" d="M341.74,-280.03C328.42,-282.4 314.24,-284.93 301.01,-287.29"/>
<polygon fill="midnightblue" stroke="midnightblue" points="342.49,-283.45 351.72,-278.25 341.26,-276.56 342.49,-283.45"/>
</g>
<!-- Node37&#45;&gt;Node30 -->
<g id="edge37" class="edge">
<title>Node37&#45;&gt;Node30</title>
<path fill="none" stroke="midnightblue" d="M349.78,-257.9C334.91,-254.18 318.42,-250.04 303.05,-246.18"/>
<polygon fill="midnightblue" stroke="midnightblue" points="349.22,-261.37 359.77,-260.41 350.92,-254.58 349.22,-261.37"/>
</g>
<!-- Node41 -->
<g id="node36" class="node">
<title>Node41</title>
<g id="a_node36"><a xlink:href="test__cooling__rates_8c.html#a840291bc02cba5474a4cb46a9b9566fe" target="_top" xlink:title=" ">
<polygon fill="white" stroke="black" points="536,-114.5 536,-133.5 577,-133.5 577,-114.5 536,-114.5"/>
<text text-anchor="middle" x="556.5" y="-121.5" font-family="Helvetica,sans-Serif" font-size="10.00">main</text>
</a>
</g>
</g>
<!-- Node40&#45;&gt;Node41 -->
<g id="edge41" class="edge">
<title>Node40&#45;&gt;Node41</title>
<path fill="none" stroke="midnightblue" d="M670.13,-150.1C638.53,-142.78 599.85,-133.81 577.02,-128.52"/>
<polygon fill="midnightblue" stroke="midnightblue" points="669.58,-153.56 680.12,-152.41 671.16,-146.74 669.58,-153.56"/>
</g>
<!-- Node43 -->
<g id="node38" class="node">
<title>Node43</title>
<g id="a_node38"><a xlink:href="cooling_8c.html#ae342c4a687fc7f1ff741a45d010e0e4d" target="_top" xlink:title=" ">
<polygon fill="white" stroke="black" points="495,-345.5 495,-364.5 618,-364.5 618,-345.5 495,-345.5"/>
<text text-anchor="middle" x="556.5" y="-352.5" font-family="Helvetica,sans-Serif" font-size="10.00">GetHeliumIonFraction</text>
</a>
</g>
</g>
<!-- Node42&#45;&gt;Node43 -->
<g id="edge43" class="edge">
<title>Node42&#45;&gt;Node43</title>
<path fill="none" stroke="midnightblue" d="M849.58,-250.29C842,-252.42 834.26,-254.7 827,-257 735.4,-286.03 628.74,-326.99 581.79,-345.39"/>
<polygon fill="midnightblue" stroke="midnightblue" points="850.7,-253.61 859.41,-247.58 848.84,-246.87 850.7,-253.61"/>
</g>
<!-- Node43&#45;&gt;Node26 -->
<g id="edge44" class="edge">
<title>Node43&#45;&gt;Node26</title>
<path fill="none" stroke="midnightblue" d="M484.81,-356.01C442.01,-355.09 386.67,-351.17 339,-339 315.76,-333.07 291.11,-321.58 273.1,-312.12"/>
<polygon fill="midnightblue" stroke="midnightblue" points="484.8,-359.51 494.86,-356.17 484.92,-352.51 484.8,-359.51"/>
</g>
<!-- Node47 -->
<g id="node42" class="node">
<title>Node47</title>
<g id="a_node42"><a xlink:href="cooling_8c.html#afc517262b7b2a6b80ba9302b10d4721c" target="_top" xlink:title=" ">
<polygon fill="white" stroke="black" points="344.5,-89.5 344.5,-108.5 453.5,-108.5 453.5,-89.5 344.5,-89.5"/>
<text text-anchor="middle" x="399" y="-96.5" font-family="Helvetica,sans-Serif" font-size="10.00">GetNeutralFraction</text>
</a>
</g>
</g>
<!-- Node46&#45;&gt;Node47 -->
<g id="edge48" class="edge">
<title>Node46&#45;&gt;Node47</title>
<path fill="none" stroke="midnightblue" d="M830.23,-82.55C730.68,-86.36 545.27,-93.45 453.83,-96.94"/>
<polygon fill="midnightblue" stroke="midnightblue" points="830.61,-86.04 840.47,-82.16 830.35,-79.05 830.61,-86.04"/>
</g>
<!-- Node46&#45;&gt;Node48 -->
<g id="edge50" class="edge">
<title>Node46&#45;&gt;Node48</title>
<path fill="none" stroke="midnightblue" d="M830.27,-96.92C806.79,-102.88 781.23,-109.36 761.01,-114.49"/>
<polygon fill="midnightblue" stroke="midnightblue" points="831.36,-100.26 840.19,-94.41 829.64,-93.47 831.36,-100.26"/>
</g>
<!-- Node47&#45;&gt;Node30 -->
<g id="edge49" class="edge">
<title>Node47&#45;&gt;Node30</title>
<path fill="none" stroke="midnightblue" d="M366.38,-113.31C356.73,-118.78 346.66,-125.72 339,-134 314.43,-160.55 329.11,-181.96 303,-207 299.05,-210.79 294.44,-214.06 289.57,-216.87"/>
<polygon fill="midnightblue" stroke="midnightblue" points="368.21,-116.31 375.41,-108.53 364.93,-110.12 368.21,-116.31"/>
</g>
<!-- Node48&#45;&gt;Node41 -->
<g id="edge51" class="edge">
<title>Node48&#45;&gt;Node41</title>
<path fill="none" stroke="midnightblue" d="M659.49,-124C630.39,-124 597.71,-124 577.36,-124"/>
<polygon fill="midnightblue" stroke="midnightblue" points="659.61,-127.5 669.61,-124 659.61,-120.5 659.61,-127.5"/>
</g>
<!-- Node49&#45;&gt;Node48 -->
<g id="edge53" class="edge">
<title>Node49&#45;&gt;Node48</title>
<path fill="none" stroke="midnightblue" d="M856.12,-124C831.94,-124 801.09,-124 775.23,-124"/>
<polygon fill="midnightblue" stroke="midnightblue" points="856.38,-127.5 866.38,-124 856.38,-120.5 856.38,-127.5"/>
</g>
<!-- Node20&#45;&gt;Node5 -->
<g id="edge63" class="edge">
<title>Node20&#45;&gt;Node5</title>
<path fill="none" stroke="midnightblue" d="M523.3,-440C431.56,-440 170.66,-440 96.74,-440"/>
<polygon fill="midnightblue" stroke="midnightblue" points="523.38,-443.5 533.38,-440 523.38,-436.5 523.38,-443.5"/>
</g>
<!-- Node50&#45;&gt;Node51 -->
<g id="edge65" class="edge">
<title>Node50&#45;&gt;Node51</title>
<path fill="none" stroke="midnightblue" d="M996.51,-396C986.7,-396 976.6,-396 966.79,-396"/>
<polygon fill="midnightblue" stroke="midnightblue" points="996.62,-399.5 1006.62,-396 996.62,-392.5 996.62,-399.5"/>
</g>
<!-- Node51&#45;&gt;Node36 -->
<g id="edge66" class="edge">
<title>Node51&#45;&gt;Node36</title>
<path fill="none" stroke="midnightblue" d="M818.91,-396C671.59,-396 359.44,-396 270.57,-396"/>
<polygon fill="midnightblue" stroke="midnightblue" points="819.23,-399.5 829.23,-396 819.23,-392.5 819.23,-399.5"/>
</g>
<!-- Node52&#45;&gt;Node4 -->
<g id="edge69" class="edge">
<title>Node52&#45;&gt;Node4</title>
<path fill="none" stroke="midnightblue" d="M1197.76,-452.26C1184.19,-474.87 1158.16,-513.05 1126,-535 1112.57,-544.17 1094.45,-549.12 1081.75,-551.64"/>
<polygon fill="midnightblue" stroke="midnightblue" points="1200.78,-454.03 1202.8,-443.62 1194.74,-450.5 1200.78,-454.03"/>
</g>
<!-- Node54 -->
<g id="node50" class="node">
<title>Node54</title>
<g id="a_node50"><a xlink:href="test__timefac_8c.html#a840291bc02cba5474a4cb46a9b9566fe" target="_top" xlink:title=" ">
<polygon fill="white" stroke="black" points="1045,-0.5 1045,-19.5 1086,-19.5 1086,-0.5 1045,-0.5"/>
<text text-anchor="middle" x="1065.5" y="-7.5" font-family="Helvetica,sans-Serif" font-size="10.00">main</text>
</a>
</g>
</g>
<!-- Node53&#45;&gt;Node54 -->
<g id="edge71" class="edge">
<title>Node53&#45;&gt;Node54</title>
<path fill="none" stroke="midnightblue" d="M1199.29,-124.23C1186.65,-98.98 1160.85,-54.31 1126,-29 1114.24,-20.46 1098.49,-15.66 1086.15,-13.01"/>
<polygon fill="midnightblue" stroke="midnightblue" points="1196.26,-125.99 1203.76,-133.46 1202.56,-122.94 1196.26,-125.99"/>
</g>
</g>
</svg>
