<?xml version="1.0" encoding="UTF-8" standalone="no"?>
<!DOCTYPE svg PUBLIC "-//W3C//DTD SVG 1.1//EN"
 "http://www.w3.org/Graphics/SVG/1.1/DTD/svg11.dtd">
<!-- Generated by graphviz version 2.38.0 (20140413.2041)
 -->
<!-- Title: init_timebins Pages: 1 -->
<svg width="365pt" height="232pt"
 viewBox="0.00 0.00 364.56 231.65" xmlns="http://www.w3.org/2000/svg" xmlns:xlink="http://www.w3.org/1999/xlink">
<g id="graph0" class="graph" transform="scale(1 1) rotate(0) translate(4 227.647)">
<title>init_timebins</title>
<polygon fill="white" stroke="none" points="-4,4 -4,-227.647 360.558,-227.647 360.558,4 -4,4"/>
<!-- Node242 -->
<g id="node1" class="node"><title>Node242</title>
<polygon fill="#bfbfbf" stroke="black" points="161.735,-153.235 161.735,-172.235 232.735,-172.235 232.735,-153.235 161.735,-153.235"/>
<text text-anchor="middle" x="197.235" y="-160.235" font-family="Helvetica,sans-Serif" font-size="10.00">init_timebins</text>
</g>
<!-- Node243 -->
<g id="node2" class="node"><title>Node243</title>
<g id="a_node2"><a xlink:href="event_8c.html#a3f548c264e5e5b9fe2bb8b10c177482a" target="_top" xlink:title="event_listen">
<polygon fill="white" stroke="black" points="213.647,-204.147 213.647,-223.147 282.647,-223.147 282.647,-204.147 213.647,-204.147"/>
<text text-anchor="middle" x="248.147" y="-211.147" font-family="Helvetica,sans-Serif" font-size="10.00">event_listen</text>
</a>
</g>
</g>
<!-- Node242&#45;&gt;Node243 -->
<g id="edge1" class="edge"><title>Node242&#45;&gt;Node243</title>
<path fill="none" stroke="midnightblue" d="M207.051,-172.551C213.813,-179.313 222.978,-188.478 230.937,-196.437"/>
<polygon fill="midnightblue" stroke="midnightblue" points="228.815,-199.264 238.361,-203.861 233.764,-194.315 228.815,-199.264"/>
</g>
<!-- Node244 -->
<g id="node3" class="node"><title>Node244</title>
<g id="a_node3"><a xlink:href="timebinmgr_8c.html#a2e2b7b549c7ebcd90457efb5330c1955" target="_top" xlink:title="ti_from_loga">
<polygon fill="white" stroke="black" points="111.323,-204.147 111.323,-223.147 181.323,-223.147 181.323,-204.147 111.323,-204.147"/>
<text text-anchor="middle" x="146.323" y="-211.147" font-family="Helvetica,sans-Serif" font-size="10.00">ti_from_loga</text>
</a>
</g>
</g>
<!-- Node242&#45;&gt;Node244 -->
<g id="edge2" class="edge"><title>Node242&#45;&gt;Node244</title>
<path fill="none" stroke="midnightblue" d="M187.419,-172.551C180.657,-179.313 171.492,-188.478 163.533,-196.437"/>
<polygon fill="midnightblue" stroke="midnightblue" points="160.706,-194.315 156.11,-203.861 165.656,-199.264 160.706,-194.315"/>
</g>
<!-- Node245 -->
<g id="node4" class="node"><title>Node245</title>
<g id="a_node4"><a xlink:href="timestep_8c.html#a7f89b5c29a35ca695a22d09f18d2807a" target="_top" xlink:title="timestep_eh_slots_fork">
<polygon fill="white" stroke="black" points="138.235,-81.2351 138.235,-100.235 256.235,-100.235 256.235,-81.2351 138.235,-81.2351"/>
<text text-anchor="middle" x="197.235" y="-88.2351" font-family="Helvetica,sans-Serif" font-size="10.00">timestep_eh_slots_fork</text>
</a>
</g>
</g>
<!-- Node242&#45;&gt;Node245 -->
<g id="edge3" class="edge"><title>Node242&#45;&gt;Node245</title>
<path fill="none" stroke="midnightblue" d="M197.235,-153.025C197.235,-142.121 197.235,-124.143 197.235,-110.296"/>
<polygon fill="midnightblue" stroke="midnightblue" points="200.735,-110.291 197.235,-100.291 193.735,-110.291 200.735,-110.291"/>
</g>
<!-- Node246 -->
<g id="node5" class="node"><title>Node246</title>
<g id="a_node5"><a xlink:href="timestep_8c.html#a896d6e80e5dd9d14008709479a0f8a66" target="_top" xlink:title="is_timebin_active">
<polygon fill="white" stroke="black" points="49.4117,-51.4117 49.4117,-70.4117 141.412,-70.4117 141.412,-51.4117 49.4117,-51.4117"/>
<text text-anchor="middle" x="95.4117" y="-58.4117" font-family="Helvetica,sans-Serif" font-size="10.00">is_timebin_active</text>
</a>
</g>
</g>
<!-- Node245&#45;&gt;Node246 -->
<g id="edge4" class="edge"><title>Node245&#45;&gt;Node246</title>
<path fill="none" stroke="midnightblue" d="M164.738,-81.2168C156.104,-78.688 146.653,-75.92 137.584,-73.2637"/>
<polygon fill="midnightblue" stroke="midnightblue" points="138.53,-69.8939 127.95,-70.4419 136.563,-76.6117 138.53,-69.8939"/>
</g>
<!-- Node248 -->
<g id="node7" class="node"><title>Node248</title>
<g id="a_node7"><a xlink:href="system_8h.html#a00eeba7aebd7952f4c0ecebb60fbeca2" target="_top" xlink:title="atomic_fetch_and_add">
<polygon fill="white" stroke="black" points="241.558,-51.4117 241.558,-70.4117 356.558,-70.4117 356.558,-51.4117 241.558,-51.4117"/>
<text text-anchor="middle" x="299.058" y="-58.4117" font-family="Helvetica,sans-Serif" font-size="10.00">atomic_fetch_and_add</text>
</a>
</g>
</g>
<!-- Node245&#45;&gt;Node248 -->
<g id="edge6" class="edge"><title>Node245&#45;&gt;Node248</title>
<path fill="none" stroke="midnightblue" d="M229.733,-81.2168C238.366,-78.688 247.817,-75.92 256.886,-73.2637"/>
<polygon fill="midnightblue" stroke="midnightblue" points="257.907,-76.6117 266.52,-70.4419 255.94,-69.8939 257.907,-76.6117"/>
</g>
<!-- Node247 -->
<g id="node6" class="node"><title>Node247</title>
<g id="a_node6"><a xlink:href="timestep_8c.html#af676ea14ddc4ab85d634f5a18015038d" target="_top" xlink:title="dti_from_timebin">
<polygon fill="white" stroke="black" points="-1.42109e-14,-0.5 -1.42109e-14,-19.5 89,-19.5 89,-0.5 -1.42109e-14,-0.5"/>
<text text-anchor="middle" x="44.5" y="-7.5" font-family="Helvetica,sans-Serif" font-size="10.00">dti_from_timebin</text>
</a>
</g>
</g>
<!-- Node246&#45;&gt;Node247 -->
<g id="edge5" class="edge"><title>Node246&#45;&gt;Node247</title>
<path fill="none" stroke="midnightblue" d="M85.5954,-51.0954C78.8339,-44.3339 69.669,-35.169 61.7098,-27.2098"/>
<polygon fill="midnightblue" stroke="midnightblue" points="63.8321,-24.3824 54.2862,-19.7862 58.8824,-29.3321 63.8321,-24.3824"/>
</g>
</g>
</svg>
