<?xml version="1.0" encoding="UTF-8" standalone="no"?>
<!DOCTYPE svg PUBLIC "-//W3C//DTD SVG 1.1//EN"
 "http://www.w3.org/Graphics/SVG/1.1/DTD/svg11.dtd">
<!-- Generated by graphviz version 2.38.0 (20140413.2041)
 -->
<!-- Title: get_timestep_dloga Pages: 1 -->
<svg width="1205pt" height="104pt"
 viewBox="0.00 0.00 1205.00 104.00" xmlns="http://www.w3.org/2000/svg" xmlns:xlink="http://www.w3.org/1999/xlink">
<g id="graph0" class="graph" transform="scale(1 1) rotate(0) translate(4 100)">
<title>get_timestep_dloga</title>
<polygon fill="white" stroke="none" points="-4,4 -4,-100 1201,-100 1201,4 -4,4"/>
<!-- Node206 -->
<g id="node1" class="node"><title>Node206</title>
<polygon fill="#bfbfbf" stroke="black" points="0,-19.5 0,-38.5 101,-38.5 101,-19.5 0,-19.5"/>
<text text-anchor="middle" x="50.5" y="-26.5" font-family="Helvetica,sans-Serif" font-size="10.00">get_timestep_dloga</text>
</g>
<!-- Node207 -->
<g id="node2" class="node"><title>Node207</title>
<g id="a_node2"><a xlink:href="timestep_8c.html#af02cf913a1503e86149164697803c375" target="_top" xlink:title="get_timestep_ti">
<polygon fill="white" stroke="black" points="137,-19.5 137,-38.5 220,-38.5 220,-19.5 137,-19.5"/>
<text text-anchor="middle" x="178.5" y="-26.5" font-family="Helvetica,sans-Serif" font-size="10.00">get_timestep_ti</text>
</a>
</g>
</g>
<!-- Node206&#45;&gt;Node207 -->
<g id="edge1" class="edge"><title>Node206&#45;&gt;Node207</title>
<path fill="none" stroke="midnightblue" d="M111.396,-29C120.062,-29 128.807,-29 136.972,-29"/>
<polygon fill="midnightblue" stroke="midnightblue" points="111.299,-25.5001 101.299,-29 111.299,-32.5001 111.299,-25.5001"/>
</g>
<!-- Node208 -->
<g id="node3" class="node"><title>Node208</title>
<g id="a_node3"><a xlink:href="timestep_8h.html#ac4649213db370055ed2ce25277ba7844" target="_top" xlink:title="timestep_allocate_memory">
<polygon fill="white" stroke="black" points="256,-38.5 256,-57.5 390,-57.5 390,-38.5 256,-38.5"/>
<text text-anchor="middle" x="323" y="-45.5" font-family="Helvetica,sans-Serif" font-size="10.00">timestep_allocate_memory</text>
</a>
</g>
</g>
<!-- Node207&#45;&gt;Node208 -->
<g id="edge2" class="edge"><title>Node207&#45;&gt;Node208</title>
<path fill="none" stroke="midnightblue" d="M230.507,-35.8009C238.733,-36.8977 247.351,-38.0468 255.871,-39.1828"/>
<polygon fill="midnightblue" stroke="midnightblue" points="230.71,-32.2971 220.335,-34.4446 229.784,-39.2357 230.71,-32.2971"/>
</g>
<!-- Node217 -->
<g id="node12" class="node"><title>Node217</title>
<g id="a_node12"><a xlink:href="timestep_8h.html#ac4c17d0cf055339694fdd96baadd83c0" target="_top" xlink:title="find_timesteps">
<polygon fill="white" stroke="black" points="438,-0.5 438,-19.5 518,-19.5 518,-0.5 438,-0.5"/>
<text text-anchor="middle" x="478" y="-7.5" font-family="Helvetica,sans-Serif" font-size="10.00">find_timesteps</text>
</a>
</g>
</g>
<!-- Node207&#45;&gt;Node217 -->
<g id="edge12" class="edge"><title>Node207&#45;&gt;Node217</title>
<path fill="none" stroke="midnightblue" d="M230.406,-25.7488C289.123,-21.9989 384.395,-15.9143 437.696,-12.5102"/>
<polygon fill="midnightblue" stroke="midnightblue" points="229.999,-22.2676 220.242,-26.398 230.445,-29.2534 229.999,-22.2676"/>
</g>
<!-- Node209 -->
<g id="node4" class="node"><title>Node209</title>
<g id="a_node4"><a xlink:href="petaio_8c.html#aaa9eefdbfea91c08aa366767aac96a69" target="_top" xlink:title="petaio_read_internal">
<polygon fill="white" stroke="black" points="426,-38.5 426,-57.5 530,-57.5 530,-38.5 426,-38.5"/>
<text text-anchor="middle" x="478" y="-45.5" font-family="Helvetica,sans-Serif" font-size="10.00">petaio_read_internal</text>
</a>
</g>
</g>
<!-- Node208&#45;&gt;Node209 -->
<g id="edge3" class="edge"><title>Node208&#45;&gt;Node209</title>
<path fill="none" stroke="midnightblue" d="M400.358,-48C409.019,-48 417.682,-48 425.904,-48"/>
<polygon fill="midnightblue" stroke="midnightblue" points="400.218,-44.5001 390.218,-48 400.218,-51.5001 400.218,-44.5001"/>
</g>
<!-- Node210 -->
<g id="node5" class="node"><title>Node210</title>
<g id="a_node5"><a xlink:href="petaio_8h.html#a3dd52bd7a320fa9ef1c7963d060ae4ec" target="_top" xlink:title="petaio_read_snapshot">
<polygon fill="white" stroke="black" points="566,-38.5 566,-57.5 678,-57.5 678,-38.5 566,-38.5"/>
<text text-anchor="middle" x="622" y="-45.5" font-family="Helvetica,sans-Serif" font-size="10.00">petaio_read_snapshot</text>
</a>
</g>
</g>
<!-- Node209&#45;&gt;Node210 -->
<g id="edge4" class="edge"><title>Node209&#45;&gt;Node210</title>
<path fill="none" stroke="midnightblue" d="M540.481,-48C548.959,-48 557.621,-48 565.972,-48"/>
<polygon fill="midnightblue" stroke="midnightblue" points="540.265,-44.5001 530.265,-48 540.265,-51.5001 540.265,-44.5001"/>
</g>
<!-- Node211 -->
<g id="node6" class="node"><title>Node211</title>
<g id="a_node6"><a xlink:href="proto_8h.html#ab080cb20bac2a1a6153a84e8cfd15374" target="_top" xlink:title="init">
<polygon fill="white" stroke="black" points="714,-38.5 714,-57.5 743,-57.5 743,-38.5 714,-38.5"/>
<text text-anchor="middle" x="728.5" y="-45.5" font-family="Helvetica,sans-Serif" font-size="10.00">init</text>
</a>
</g>
</g>
<!-- Node210&#45;&gt;Node211 -->
<g id="edge5" class="edge"><title>Node210&#45;&gt;Node211</title>
<path fill="none" stroke="midnightblue" d="M688.24,-48C697.901,-48 706.928,-48 713.885,-48"/>
<polygon fill="midnightblue" stroke="midnightblue" points="688.004,-44.5001 678.004,-48 688.004,-51.5001 688.004,-44.5001"/>
</g>
<!-- Node212 -->
<g id="node7" class="node"><title>Node212</title>
<g id="a_node7"><a xlink:href="proto_8h.html#a74dc0e5e9eefe11fc8434b62de573146" target="_top" xlink:title="begrun">
<polygon fill="white" stroke="black" points="779,-38.5 779,-57.5 825,-57.5 825,-38.5 779,-38.5"/>
<text text-anchor="middle" x="802" y="-45.5" font-family="Helvetica,sans-Serif" font-size="10.00">begrun</text>
</a>
</g>
</g>
<!-- Node211&#45;&gt;Node212 -->
<g id="edge6" class="edge"><title>Node211&#45;&gt;Node212</title>
<path fill="none" stroke="midnightblue" d="M753.37,-48C761.585,-48 770.743,-48 778.818,-48"/>
<polygon fill="midnightblue" stroke="midnightblue" points="753.286,-44.5001 743.286,-48 753.286,-51.5001 753.286,-44.5001"/>
</g>
<!-- Node213 -->
<g id="node8" class="node"><title>Node213</title>
<g id="a_node8"><a xlink:href="main_8c.html#a3c04138a5bfe5d72780bb7e82a18e627" target="_top" xlink:title="main">
<polygon fill="white" stroke="black" points="861,-38.5 861,-57.5 899,-57.5 899,-38.5 861,-38.5"/>
<text text-anchor="middle" x="880" y="-45.5" font-family="Helvetica,sans-Serif" font-size="10.00">main</text>
</a>
</g>
</g>
<!-- Node212&#45;&gt;Node213 -->
<g id="edge7" class="edge"><title>Node212&#45;&gt;Node213</title>
<path fill="none" stroke="midnightblue" d="M835.541,-48C844.114,-48 853.067,-48 860.603,-48"/>
<polygon fill="midnightblue" stroke="midnightblue" points="835.391,-44.5001 825.391,-48 835.391,-51.5001 835.391,-44.5001"/>
</g>
<!-- Node214 -->
<g id="node9" class="node"><title>Node214</title>
<g id="a_node9"><a xlink:href="walltime_8h.html#a76d2135b612766d4d665748454b879d6" target="_top" xlink:title="walltime_report">
<polygon fill="white" stroke="black" points="935,-76.5 935,-95.5 1018,-95.5 1018,-76.5 935,-76.5"/>
<text text-anchor="middle" x="976.5" y="-83.5" font-family="Helvetica,sans-Serif" font-size="10.00">walltime_report</text>
</a>
</g>
</g>
<!-- Node213&#45;&gt;Node214 -->
<g id="edge8" class="edge"><title>Node213&#45;&gt;Node214</title>
<path fill="none" stroke="midnightblue" d="M908.594,-59.096C922.226,-64.5778 938.516,-71.1279 951.608,-76.3926"/>
<polygon fill="midnightblue" stroke="midnightblue" points="909.804,-55.8104 899.221,-55.3268 907.193,-62.305 909.804,-55.8104"/>
</g>
<!-- Node215 -->
<g id="node10" class="node"><title>Node215</title>
<g id="a_node10"><a xlink:href="run_8c.html#adc59e9ee1517e4e690694a64ab6a59d2" target="_top" xlink:title="write_cpu_log">
<polygon fill="white" stroke="black" points="1054,-76.5 1054,-95.5 1131,-95.5 1131,-76.5 1054,-76.5"/>
<text text-anchor="middle" x="1092.5" y="-83.5" font-family="Helvetica,sans-Serif" font-size="10.00">write_cpu_log</text>
</a>
</g>
</g>
<!-- Node214&#45;&gt;Node215 -->
<g id="edge9" class="edge"><title>Node214&#45;&gt;Node215</title>
<path fill="none" stroke="midnightblue" d="M1028.03,-86C1036.68,-86 1045.54,-86 1053.78,-86"/>
<polygon fill="midnightblue" stroke="midnightblue" points="1028.01,-82.5001 1018.01,-86 1028.01,-89.5001 1028.01,-82.5001"/>
</g>
<!-- Node216 -->
<g id="node11" class="node"><title>Node216</title>
<g id="a_node11"><a xlink:href="run_8c.html#a05e0ffe612d44e6d7f3a9ae5b9df56a2" target="_top" xlink:title="run">
<polygon fill="white" stroke="black" points="1167,-38.5 1167,-57.5 1197,-57.5 1197,-38.5 1167,-38.5"/>
<text text-anchor="middle" x="1182" y="-45.5" font-family="Helvetica,sans-Serif" font-size="10.00">run</text>
</a>
</g>
</g>
<!-- Node215&#45;&gt;Node216 -->
<g id="edge10" class="edge"><title>Node215&#45;&gt;Node216</title>
<path fill="none" stroke="midnightblue" d="M1125.1,-72.2746C1139.42,-66.0585 1155.62,-59.0243 1166.87,-54.1344"/>
<polygon fill="midnightblue" stroke="midnightblue" points="1123.36,-69.2172 1115.58,-76.411 1126.15,-75.6378 1123.36,-69.2172"/>
</g>
<!-- Node216&#45;&gt;Node213 -->
<g id="edge11" class="edge"><title>Node216&#45;&gt;Node213</title>
<path fill="none" stroke="midnightblue" d="M1156.76,-48C1098.39,-48 951.064,-48 899.315,-48"/>
<polygon fill="midnightblue" stroke="midnightblue" points="1156.89,-51.5001 1166.89,-48 1156.89,-44.5001 1156.89,-51.5001"/>
</g>
<!-- Node217&#45;&gt;Node216 -->
<g id="edge13" class="edge"><title>Node217&#45;&gt;Node216</title>
<path fill="none" stroke="midnightblue" d="M528.401,-10C578.548,-10 658.424,-10 727.5,-10 727.5,-10 727.5,-10 977.5,-10 1049.74,-10 1133.99,-33.4259 1166.86,-43.4917"/>
<polygon fill="midnightblue" stroke="midnightblue" points="528.166,-6.5001 518.166,-10 528.166,-13.5001 528.166,-6.5001"/>
</g>
</g>
</svg>
