<?xml version="1.0" encoding="UTF-8" standalone="no"?>
<!DOCTYPE svg PUBLIC "-//W3C//DTD SVG 1.1//EN"
 "http://www.w3.org/Graphics/SVG/1.1/DTD/svg11.dtd">
<!-- Generated by graphviz version 2.38.0 (20140413.2041)
 -->
<!-- Title: reverse_and_apply_gravity Pages: 1 -->
<svg width="455pt" height="85pt"
 viewBox="0.00 0.00 455.00 85.00" xmlns="http://www.w3.org/2000/svg" xmlns:xlink="http://www.w3.org/1999/xlink">
<g id="graph0" class="graph" transform="scale(1 1) rotate(0) translate(4 81)">
<title>reverse_and_apply_gravity</title>
<polygon fill="white" stroke="none" points="-4,4 -4,-81 451,-81 451,4 -4,4"/>
<!-- Node315 -->
<g id="node1" class="node"><title>Node315</title>
<polygon fill="#bfbfbf" stroke="black" points="0,-38.5 0,-57.5 133,-57.5 133,-38.5 0,-38.5"/>
<text text-anchor="middle" x="66.5" y="-45.5" font-family="Helvetica,sans-Serif" font-size="10.00">reverse_and_apply_gravity</text>
</g>
<!-- Node316 -->
<g id="node2" class="node"><title>Node316</title>
<g id="a_node2"><a xlink:href="allvars_8h.html#a310e6c512e36e9b5f852ada300400412" target="_top" xlink:title="DMIN">
<polygon fill="white" stroke="black" points="175.5,-57.5 175.5,-76.5 218.5,-76.5 218.5,-57.5 175.5,-57.5"/>
<text text-anchor="middle" x="197" y="-64.5" font-family="Helvetica,sans-Serif" font-size="10.00">DMIN</text>
</a>
</g>
</g>
<!-- Node315&#45;&gt;Node316 -->
<g id="edge1" class="edge"><title>Node315&#45;&gt;Node316</title>
<path fill="none" stroke="midnightblue" d="M132.126,-57.5557C143.816,-59.284 155.488,-61.0099 165.596,-62.5045"/>
<polygon fill="midnightblue" stroke="midnightblue" points="165.095,-65.9683 175.499,-63.9687 166.118,-59.0436 165.095,-65.9683"/>
</g>
<!-- Node317 -->
<g id="node3" class="node"><title>Node317</title>
<g id="a_node3"><a xlink:href="endrun_8c.html#a6567cd867c5549fb6586e19ccd819764" target="_top" xlink:title="message">
<polygon fill="white" stroke="black" points="169,-19.5 169,-38.5 225,-38.5 225,-19.5 169,-19.5"/>
<text text-anchor="middle" x="197" y="-26.5" font-family="Helvetica,sans-Serif" font-size="10.00">message</text>
</a>
</g>
</g>
<!-- Node315&#45;&gt;Node317 -->
<g id="edge2" class="edge"><title>Node315&#45;&gt;Node317</title>
<path fill="none" stroke="midnightblue" d="M132.126,-38.4443C141.267,-37.0928 150.397,-35.7429 158.777,-34.5038"/>
<polygon fill="midnightblue" stroke="midnightblue" points="159.554,-37.927 168.935,-33.0018 158.53,-31.0023 159.554,-37.927"/>
</g>
<!-- Node318 -->
<g id="node4" class="node"><title>Node318</title>
<g id="a_node4"><a xlink:href="endrun_8c.html#a7267113a7c0a094743bb565eabc695d1" target="_top" xlink:title="messagev">
<polygon fill="white" stroke="black" points="261,-19.5 261,-38.5 323,-38.5 323,-19.5 261,-19.5"/>
<text text-anchor="middle" x="292" y="-26.5" font-family="Helvetica,sans-Serif" font-size="10.00">messagev</text>
</a>
</g>
</g>
<!-- Node317&#45;&gt;Node318 -->
<g id="edge3" class="edge"><title>Node317&#45;&gt;Node318</title>
<path fill="none" stroke="midnightblue" d="M225.4,-29C233.323,-29 242.142,-29 250.677,-29"/>
<polygon fill="midnightblue" stroke="midnightblue" points="250.87,-32.5001 260.87,-29 250.87,-25.5001 250.87,-32.5001"/>
</g>
<!-- Node319 -->
<g id="node5" class="node"><title>Node319</title>
<g id="a_node5"><a xlink:href="endrun_8c.html#a87108946670b4c3afbe846c6726675ff" target="_top" xlink:title="putline">
<polygon fill="white" stroke="black" points="380.5,-38.5 380.5,-57.5 425.5,-57.5 425.5,-38.5 380.5,-38.5"/>
<text text-anchor="middle" x="403" y="-45.5" font-family="Helvetica,sans-Serif" font-size="10.00">putline</text>
</a>
</g>
</g>
<!-- Node318&#45;&gt;Node319 -->
<g id="edge4" class="edge"><title>Node318&#45;&gt;Node319</title>
<path fill="none" stroke="midnightblue" d="M323.073,-34.2421C337.677,-36.7877 355.231,-39.8476 370.072,-42.4346"/>
<polygon fill="midnightblue" stroke="midnightblue" points="369.866,-45.9514 380.318,-44.2207 371.068,-39.0553 369.866,-45.9514"/>
</g>
<!-- Node320 -->
<g id="node6" class="node"><title>Node320</title>
<g id="a_node6"><a xlink:href="endrun_8c.html#a1200f02a595ab7cbe17c9e36ff32af0f" target="_top" xlink:title="show_backtrace">
<polygon fill="white" stroke="black" points="359,-0.5 359,-19.5 447,-19.5 447,-0.5 359,-0.5"/>
<text text-anchor="middle" x="403" y="-7.5" font-family="Helvetica,sans-Serif" font-size="10.00">show_backtrace</text>
</a>
</g>
</g>
<!-- Node318&#45;&gt;Node320 -->
<g id="edge5" class="edge"><title>Node318&#45;&gt;Node320</title>
<path fill="none" stroke="midnightblue" d="M323.073,-23.7579C331.131,-22.3533 340.087,-20.7921 348.991,-19.2402"/>
<polygon fill="midnightblue" stroke="midnightblue" points="349.719,-22.6661 358.969,-17.5008 348.517,-15.7701 349.719,-22.6661"/>
</g>
</g>
</svg>
