<?xml version="1.0" encoding="UTF-8" standalone="no"?>
<!DOCTYPE svg PUBLIC "-//W3C//DTD SVG 1.1//EN"
 "http://www.w3.org/Graphics/SVG/1.1/DTD/svg11.dtd">
<!-- Generated by graphviz version 2.50.0 (0)
 -->
<!-- Title: drift_integ Pages: 1 -->
<svg width="708pt" height="85pt"
 viewBox="0.00 0.00 708.00 85.00" xmlns="http://www.w3.org/2000/svg" xmlns:xlink="http://www.w3.org/1999/xlink">
<g id="graph0" class="graph" transform="scale(1 1) rotate(0) translate(4 81)">
<title>drift_integ</title>
<polygon fill="white" stroke="transparent" points="-4,4 -4,-81 704,-81 704,4 -4,4"/>
<!-- Node1 -->
<g id="node1" class="node">
<title>Node1</title>
<g id="a_node1"><a xlink:title=" ">
<polygon fill="#bfbfbf" stroke="black" points="0,-19.5 0,-38.5 66,-38.5 66,-19.5 0,-19.5"/>
<text text-anchor="middle" x="33" y="-26.5" font-family="Helvetica,sans-Serif" font-size="10.00">drift_integ</text>
</a>
</g>
</g>
<!-- Node2 -->
<g id="node2" class="node">
<title>Node2</title>
<g id="a_node2"><a xlink:href="cosmology_8c.html#ab425f16e6fe06110e2fb4944065b81bb" target="_top" xlink:title=" ">
<polygon fill="white" stroke="black" points="102,-19.5 102,-38.5 197,-38.5 197,-19.5 102,-19.5"/>
<text text-anchor="middle" x="149.5" y="-26.5" font-family="Helvetica,sans-Serif" font-size="10.00">hubble_function</text>
</a>
</g>
</g>
<!-- Node1&#45;&gt;Node2 -->
<g id="edge1" class="edge">
<title>Node1&#45;&gt;Node2</title>
<path fill="none" stroke="midnightblue" d="M66.2,-29C74.09,-29 82.77,-29 91.45,-29"/>
<polygon fill="midnightblue" stroke="midnightblue" points="91.59,-32.5 101.59,-29 91.59,-25.5 91.59,-32.5"/>
</g>
<!-- Node3 -->
<g id="node3" class="node">
<title>Node3</title>
<g id="a_node3"><a xlink:href="omega__nu__single_8c.html#aca4b20af5bd369bcd096c670c27c6e36" target="_top" xlink:title=" ">
<polygon fill="white" stroke="black" points="233,-38.5 233,-57.5 322,-57.5 322,-38.5 233,-38.5"/>
<text text-anchor="middle" x="277.5" y="-45.5" font-family="Helvetica,sans-Serif" font-size="10.00">get_omega_nu</text>
</a>
</g>
</g>
<!-- Node2&#45;&gt;Node3 -->
<g id="edge2" class="edge">
<title>Node2&#45;&gt;Node3</title>
<path fill="none" stroke="midnightblue" d="M197.06,-36.02C205.42,-37.28 214.2,-38.61 222.75,-39.9"/>
<polygon fill="midnightblue" stroke="midnightblue" points="222.23,-43.36 232.64,-41.39 223.27,-36.43 222.23,-43.36"/>
</g>
<!-- Node8 -->
<g id="node8" class="node">
<title>Node8</title>
<g id="a_node8"><a xlink:href="cosmology_8c.html#a187e0106f302118344b027cf942347e0" target="_top" xlink:title=" ">
<polygon fill="white" stroke="black" points="242,-0.5 242,-19.5 313,-19.5 313,-0.5 242,-0.5"/>
<text text-anchor="middle" x="277.5" y="-7.5" font-family="Helvetica,sans-Serif" font-size="10.00">OmegaFLD</text>
</a>
</g>
</g>
<!-- Node2&#45;&gt;Node8 -->
<g id="edge8" class="edge">
<title>Node2&#45;&gt;Node8</title>
<path fill="none" stroke="midnightblue" d="M197.06,-21.98C208.44,-20.26 220.59,-18.43 231.87,-16.73"/>
<polygon fill="midnightblue" stroke="midnightblue" points="232.58,-20.16 241.95,-15.21 231.54,-13.24 232.58,-20.16"/>
</g>
<!-- Node4 -->
<g id="node4" class="node">
<title>Node4</title>
<g id="a_node4"><a xlink:href="omega__nu__single_8c.html#a5d81e97a54be82580201631d495bd694" target="_top" xlink:title=" ">
<polygon fill="white" stroke="black" points="358,-38.5 358,-57.5 408,-57.5 408,-38.5 358,-38.5"/>
<text text-anchor="middle" x="383" y="-45.5" font-family="Helvetica,sans-Serif" font-size="10.00">rho_nu</text>
</a>
</g>
</g>
<!-- Node3&#45;&gt;Node4 -->
<g id="edge3" class="edge">
<title>Node3&#45;&gt;Node4</title>
<path fill="none" stroke="midnightblue" d="M322.09,-48C330.72,-48 339.65,-48 347.9,-48"/>
<polygon fill="midnightblue" stroke="midnightblue" points="347.92,-51.5 357.92,-48 347.92,-44.5 347.92,-51.5"/>
</g>
<!-- Node5 -->
<g id="node5" class="node">
<title>Node5</title>
<g id="a_node5"><a xlink:href="omega__nu__single_8c.html#a5d053cc2c3fa75a3c357bbb99af5de62" target="_top" xlink:title=" ">
<polygon fill="white" stroke="black" points="444,-57.5 444,-76.5 535,-76.5 535,-57.5 444,-57.5"/>
<text text-anchor="middle" x="489.5" y="-64.5" font-family="Helvetica,sans-Serif" font-size="10.00">non_rel_rho_nu</text>
</a>
</g>
</g>
<!-- Node4&#45;&gt;Node5 -->
<g id="edge4" class="edge">
<title>Node4&#45;&gt;Node5</title>
<path fill="none" stroke="midnightblue" d="M408.24,-52.41C415.95,-53.81 424.81,-55.42 433.78,-57.05"/>
<polygon fill="midnightblue" stroke="midnightblue" points="433.41,-60.54 443.88,-58.89 434.67,-53.65 433.41,-60.54"/>
</g>
<!-- Node7 -->
<g id="node7" class="node">
<title>Node7</title>
<g id="a_node7"><a xlink:href="omega__nu__single_8c.html#ac447b6c2f0363d19b68b2ce9f29009c4" target="_top" xlink:title=" ">
<polygon fill="white" stroke="black" points="455.5,-19.5 455.5,-38.5 523.5,-38.5 523.5,-19.5 455.5,-19.5"/>
<text text-anchor="middle" x="489.5" y="-26.5" font-family="Helvetica,sans-Serif" font-size="10.00">rel_rho_nu</text>
</a>
</g>
</g>
<!-- Node4&#45;&gt;Node7 -->
<g id="edge6" class="edge">
<title>Node4&#45;&gt;Node7</title>
<path fill="none" stroke="midnightblue" d="M408.24,-43.59C419.27,-41.59 432.68,-39.15 445.35,-36.85"/>
<polygon fill="midnightblue" stroke="midnightblue" points="446.08,-40.27 455.29,-35.04 444.83,-33.38 446.08,-40.27"/>
</g>
<!-- Node6 -->
<g id="node6" class="node">
<title>Node6</title>
<g id="a_node6"><a xlink:href="omega__nu__single_8c.html#acf81fc868c0deb61c3541958dd6114be" target="_top" xlink:title=" ">
<polygon fill="white" stroke="black" points="571,-38.5 571,-57.5 700,-57.5 700,-38.5 571,-38.5"/>
<text text-anchor="middle" x="635.5" y="-45.5" font-family="Helvetica,sans-Serif" font-size="10.00">get_rho_nu_conversion</text>
</a>
</g>
</g>
<!-- Node5&#45;&gt;Node6 -->
<g id="edge5" class="edge">
<title>Node5&#45;&gt;Node6</title>
<path fill="none" stroke="midnightblue" d="M535.27,-61.09C543.49,-60.01 552.26,-58.85 561.07,-57.69"/>
<polygon fill="midnightblue" stroke="midnightblue" points="561.53,-61.16 570.99,-56.38 560.62,-54.22 561.53,-61.16"/>
</g>
<!-- Node7&#45;&gt;Node6 -->
<g id="edge7" class="edge">
<title>Node7&#45;&gt;Node6</title>
<path fill="none" stroke="midnightblue" d="M523.54,-33.36C534.72,-34.83 547.7,-36.55 560.75,-38.27"/>
<polygon fill="midnightblue" stroke="midnightblue" points="560.35,-41.75 570.72,-39.58 561.26,-34.81 560.35,-41.75"/>
</g>
</g>
</svg>
