<?xml version="1.0" encoding="UTF-8" standalone="no"?>
<!DOCTYPE svg PUBLIC "-//W3C//DTD SVG 1.1//EN"
 "http://www.w3.org/Graphics/SVG/1.1/DTD/svg11.dtd">
<!-- Generated by graphviz version 2.38.0 (20140413.2041)
 -->
<!-- Title: timestep_eh_slots_fork Pages: 1 -->
<svg width="126pt" height="244pt"
 viewBox="0.00 0.00 126.00 244.00" xmlns="http://www.w3.org/2000/svg" xmlns:xlink="http://www.w3.org/1999/xlink">
<g id="graph0" class="graph" transform="scale(1 1) rotate(0) translate(4 240)">
<title>timestep_eh_slots_fork</title>
<polygon fill="white" stroke="none" points="-4,4 -4,-240 122,-240 122,4 -4,4"/>
<!-- Node420 -->
<g id="node1" class="node"><title>Node420</title>
<polygon fill="#bfbfbf" stroke="black" points="0,-144.5 0,-163.5 118,-163.5 118,-144.5 0,-144.5"/>
<text text-anchor="middle" x="59" y="-151.5" font-family="Helvetica,sans-Serif" font-size="10.00">timestep_eh_slots_fork</text>
</g>
<!-- Node421 -->
<g id="node2" class="node"><title>Node421</title>
<g id="a_node2"><a xlink:href="system_8h.html#a00eeba7aebd7952f4c0ecebb60fbeca2" target="_top" xlink:title="atomic_fetch_and_add">
<polygon fill="white" stroke="black" points="1.5,-216.5 1.5,-235.5 116.5,-235.5 116.5,-216.5 1.5,-216.5"/>
<text text-anchor="middle" x="59" y="-223.5" font-family="Helvetica,sans-Serif" font-size="10.00">atomic_fetch_and_add</text>
</a>
</g>
</g>
<!-- Node420&#45;&gt;Node421 -->
<g id="edge1" class="edge"><title>Node420&#45;&gt;Node421</title>
<path fill="none" stroke="midnightblue" d="M59,-163.71C59,-174.614 59,-192.592 59,-206.439"/>
<polygon fill="midnightblue" stroke="midnightblue" points="55.5001,-206.444 59,-216.444 62.5001,-206.444 55.5001,-206.444"/>
</g>
<!-- Node422 -->
<g id="node3" class="node"><title>Node422</title>
<g id="a_node3"><a xlink:href="timestep_8c.html#a896d6e80e5dd9d14008709479a0f8a66" target="_top" xlink:title="is_timebin_active">
<polygon fill="white" stroke="black" points="13,-72.5 13,-91.5 105,-91.5 105,-72.5 13,-72.5"/>
<text text-anchor="middle" x="59" y="-79.5" font-family="Helvetica,sans-Serif" font-size="10.00">is_timebin_active</text>
</a>
</g>
</g>
<!-- Node420&#45;&gt;Node422 -->
<g id="edge2" class="edge"><title>Node420&#45;&gt;Node422</title>
<path fill="none" stroke="midnightblue" d="M59,-144.29C59,-133.386 59,-115.408 59,-101.561"/>
<polygon fill="midnightblue" stroke="midnightblue" points="62.5001,-101.556 59,-91.5564 55.5001,-101.556 62.5001,-101.556"/>
</g>
<!-- Node423 -->
<g id="node4" class="node"><title>Node423</title>
<g id="a_node4"><a xlink:href="timestep_8c.html#af676ea14ddc4ab85d634f5a18015038d" target="_top" xlink:title="dti_from_timebin">
<polygon fill="white" stroke="black" points="14.5,-0.5 14.5,-19.5 103.5,-19.5 103.5,-0.5 14.5,-0.5"/>
<text text-anchor="middle" x="59" y="-7.5" font-family="Helvetica,sans-Serif" font-size="10.00">dti_from_timebin</text>
</a>
</g>
</g>
<!-- Node422&#45;&gt;Node423 -->
<g id="edge3" class="edge"><title>Node422&#45;&gt;Node423</title>
<path fill="none" stroke="midnightblue" d="M59,-72.2898C59,-61.3861 59,-43.4077 59,-29.5612"/>
<polygon fill="midnightblue" stroke="midnightblue" points="62.5001,-29.5564 59,-19.5564 55.5001,-29.5564 62.5001,-29.5564"/>
</g>
</g>
</svg>
