<?xml version="1.0" encoding="UTF-8" standalone="no"?>
<!DOCTYPE svg PUBLIC "-//W3C//DTD SVG 1.1//EN"
 "http://www.w3.org/Graphics/SVG/1.1/DTD/svg11.dtd">
<!-- Generated by graphviz version 2.38.0 (20140413.2041)
 -->
<!-- Title: dti_from_timebin Pages: 1 -->
<svg width="962pt" height="218pt"
 viewBox="0.00 0.00 962.00 218.00" xmlns="http://www.w3.org/2000/svg" xmlns:xlink="http://www.w3.org/1999/xlink">
<g id="graph0" class="graph" transform="scale(1 1) rotate(0) translate(4 214)">
<title>dti_from_timebin</title>
<polygon fill="white" stroke="none" points="-4,4 -4,-214 958,-214 958,4 -4,4"/>
<!-- Node78 -->
<g id="node1" class="node"><title>Node78</title>
<polygon fill="#bfbfbf" stroke="black" points="0,-152.5 0,-171.5 89,-171.5 89,-152.5 0,-152.5"/>
<text text-anchor="middle" x="44.5" y="-159.5" font-family="Helvetica,sans-Serif" font-size="10.00">dti_from_timebin</text>
</g>
<!-- Node79 -->
<g id="node2" class="node"><title>Node79</title>
<g id="a_node2"><a xlink:href="timestep_8h.html#a369dd5aca226397988138db95a8496b0" target="_top" xlink:title="apply_half_kick">
<polygon fill="white" stroke="black" points="129,-190.5 129,-209.5 213,-209.5 213,-190.5 129,-190.5"/>
<text text-anchor="middle" x="171" y="-197.5" font-family="Helvetica,sans-Serif" font-size="10.00">apply_half_kick</text>
</a>
</g>
</g>
<!-- Node78&#45;&gt;Node79 -->
<g id="edge1" class="edge"><title>Node78&#45;&gt;Node79</title>
<path fill="none" stroke="midnightblue" d="M86.5696,-174.535C103.506,-179.705 122.818,-185.599 138.593,-190.414"/>
<polygon fill="midnightblue" stroke="midnightblue" points="87.5028,-171.161 76.9166,-171.589 85.4593,-177.856 87.5028,-171.161"/>
</g>
<!-- Node84 -->
<g id="node7" class="node"><title>Node84</title>
<g id="a_node7"><a xlink:href="timestep_8h.html#aa7119c29751fcd9275f395e6ea08965f" target="_top" xlink:title="find_next_kick">
<polygon fill="white" stroke="black" points="131,-152.5 131,-171.5 211,-171.5 211,-152.5 131,-152.5"/>
<text text-anchor="middle" x="171" y="-159.5" font-family="Helvetica,sans-Serif" font-size="10.00">find_next_kick</text>
</a>
</g>
</g>
<!-- Node78&#45;&gt;Node84 -->
<g id="edge7" class="edge"><title>Node78&#45;&gt;Node84</title>
<path fill="none" stroke="midnightblue" d="M99.1172,-162C109.777,-162 120.782,-162 130.848,-162"/>
<polygon fill="midnightblue" stroke="midnightblue" points="99.0441,-158.5 89.0441,-162 99.044,-165.5 99.0441,-158.5"/>
</g>
<!-- Node85 -->
<g id="node8" class="node"><title>Node85</title>
<g id="a_node8"><a xlink:href="timestep_8h.html#a896d6e80e5dd9d14008709479a0f8a66" target="_top" xlink:title="is_timebin_active">
<polygon fill="white" stroke="black" points="125,-76.5 125,-95.5 217,-95.5 217,-76.5 125,-76.5"/>
<text text-anchor="middle" x="171" y="-83.5" font-family="Helvetica,sans-Serif" font-size="10.00">is_timebin_active</text>
</a>
</g>
</g>
<!-- Node78&#45;&gt;Node85 -->
<g id="edge9" class="edge"><title>Node78&#45;&gt;Node85</title>
<path fill="none" stroke="midnightblue" d="M69.8354,-147.145C94.8634,-131.867 133.099,-108.526 154.36,-95.5473"/>
<polygon fill="midnightblue" stroke="midnightblue" points="67.9797,-144.177 61.268,-152.375 71.627,-150.152 67.9797,-144.177"/>
</g>
<!-- Node80 -->
<g id="node3" class="node"><title>Node80</title>
<g id="a_node3"><a xlink:href="run_8c.html#a05e0ffe612d44e6d7f3a9ae5b9df56a2" target="_top" xlink:title="run">
<polygon fill="white" stroke="black" points="427.5,-114.5 427.5,-133.5 457.5,-133.5 457.5,-114.5 427.5,-114.5"/>
<text text-anchor="middle" x="442.5" y="-121.5" font-family="Helvetica,sans-Serif" font-size="10.00">run</text>
</a>
</g>
</g>
<!-- Node79&#45;&gt;Node80 -->
<g id="edge2" class="edge"><title>Node79&#45;&gt;Node80</title>
<path fill="none" stroke="midnightblue" d="M223.084,-195.542C264.031,-190.843 322.462,-181.582 371,-164 392.037,-156.38 414.138,-142.795 427.866,-133.594"/>
<polygon fill="midnightblue" stroke="midnightblue" points="222.626,-192.071 213.068,-196.64 223.39,-199.029 222.626,-192.071"/>
</g>
<!-- Node81 -->
<g id="node4" class="node"><title>Node81</title>
<g id="a_node4"><a xlink:href="main_8c.html#a3c04138a5bfe5d72780bb7e82a18e627" target="_top" xlink:title="main">
<polygon fill="white" stroke="black" points="684,-85.5 684,-104.5 722,-104.5 722,-85.5 684,-85.5"/>
<text text-anchor="middle" x="703" y="-92.5" font-family="Helvetica,sans-Serif" font-size="10.00">main</text>
</a>
</g>
</g>
<!-- Node80&#45;&gt;Node81 -->
<g id="edge3" class="edge"><title>Node80&#45;&gt;Node81</title>
<path fill="none" stroke="midnightblue" d="M468.173,-122.431C506.689,-119.82 583.389,-113.965 648,-105 659.899,-103.349 673.167,-100.901 683.573,-98.8398"/>
<polygon fill="midnightblue" stroke="midnightblue" points="467.679,-118.956 457.932,-123.11 468.141,-125.941 467.679,-118.956"/>
</g>
<!-- Node82 -->
<g id="node5" class="node"><title>Node82</title>
<g id="a_node5"><a xlink:href="walltime_8h.html#a76d2135b612766d4d665748454b879d6" target="_top" xlink:title="walltime_report">
<polygon fill="white" stroke="black" points="758,-104.5 758,-123.5 841,-123.5 841,-104.5 758,-104.5"/>
<text text-anchor="middle" x="799.5" y="-111.5" font-family="Helvetica,sans-Serif" font-size="10.00">walltime_report</text>
</a>
</g>
</g>
<!-- Node81&#45;&gt;Node82 -->
<g id="edge4" class="edge"><title>Node81&#45;&gt;Node82</title>
<path fill="none" stroke="midnightblue" d="M732.141,-100.658C740.148,-102.268 749.035,-104.055 757.635,-105.784"/>
<polygon fill="midnightblue" stroke="midnightblue" points="732.714,-97.2033 722.221,-98.6634 731.334,-104.066 732.714,-97.2033"/>
</g>
<!-- Node83 -->
<g id="node6" class="node"><title>Node83</title>
<g id="a_node6"><a xlink:href="run_8c.html#adc59e9ee1517e4e690694a64ab6a59d2" target="_top" xlink:title="write_cpu_log">
<polygon fill="white" stroke="black" points="877,-132.5 877,-151.5 954,-151.5 954,-132.5 877,-132.5"/>
<text text-anchor="middle" x="915.5" y="-139.5" font-family="Helvetica,sans-Serif" font-size="10.00">write_cpu_log</text>
</a>
</g>
</g>
<!-- Node82&#45;&gt;Node83 -->
<g id="edge5" class="edge"><title>Node82&#45;&gt;Node83</title>
<path fill="none" stroke="midnightblue" d="M849.287,-125.983C858.537,-128.255 868.081,-130.599 876.918,-132.769"/>
<polygon fill="midnightblue" stroke="midnightblue" points="849.96,-122.544 839.413,-123.558 848.29,-129.342 849.96,-122.544"/>
</g>
<!-- Node83&#45;&gt;Node80 -->
<g id="edge6" class="edge"><title>Node83&#45;&gt;Node80</title>
<path fill="none" stroke="midnightblue" d="M866.88,-149.12C824.296,-154.866 760.127,-162 704,-162 624,-162 624,-162 624,-162 560.913,-162 488.033,-139.497 457.79,-129.125"/>
<polygon fill="midnightblue" stroke="midnightblue" points="867.529,-152.563 876.957,-147.731 866.573,-145.629 867.529,-152.563"/>
</g>
<!-- Node84&#45;&gt;Node80 -->
<g id="edge8" class="edge"><title>Node84&#45;&gt;Node80</title>
<path fill="none" stroke="midnightblue" d="M221.295,-159.603C261.759,-157.083 320.422,-152.163 371,-143 390.832,-139.407 413.225,-132.948 427.347,-128.569"/>
<polygon fill="midnightblue" stroke="midnightblue" points="220.933,-156.118 211.16,-160.207 221.35,-163.106 220.933,-156.118"/>
</g>
<!-- Node86 -->
<g id="node9" class="node"><title>Node86</title>
<g id="a_node9"><a xlink:href="timestep_8c.html#a7f89b5c29a35ca695a22d09f18d2807a" target="_top" xlink:title="timestep_eh_slots_fork">
<polygon fill="white" stroke="black" points="253,-0.5 253,-19.5 371,-19.5 371,-0.5 253,-0.5"/>
<text text-anchor="middle" x="312" y="-7.5" font-family="Helvetica,sans-Serif" font-size="10.00">timestep_eh_slots_fork</text>
</a>
</g>
</g>
<!-- Node85&#45;&gt;Node86 -->
<g id="edge10" class="edge"><title>Node85&#45;&gt;Node86</title>
<path fill="none" stroke="midnightblue" d="M191.321,-69.9145C207.111,-57.401 230.434,-40.3179 253,-29 260.293,-25.3422 268.446,-22.1658 276.282,-19.5123"/>
<polygon fill="midnightblue" stroke="midnightblue" points="188.957,-67.3248 183.376,-76.3307 193.355,-72.7706 188.957,-67.3248"/>
</g>
<!-- Node90 -->
<g id="node13" class="node"><title>Node90</title>
<g id="a_node13"><a xlink:href="timestep_8h.html#ac4c17d0cf055339694fdd96baadd83c0" target="_top" xlink:title="find_timesteps">
<polygon fill="white" stroke="black" points="272,-114.5 272,-133.5 352,-133.5 352,-114.5 272,-114.5"/>
<text text-anchor="middle" x="312" y="-121.5" font-family="Helvetica,sans-Serif" font-size="10.00">find_timesteps</text>
</a>
</g>
</g>
<!-- Node85&#45;&gt;Node90 -->
<g id="edge15" class="edge"><title>Node85&#45;&gt;Node90</title>
<path fill="none" stroke="midnightblue" d="M216.795,-98.2462C235.955,-103.484 257.994,-109.509 275.936,-114.414"/>
<polygon fill="midnightblue" stroke="midnightblue" points="217.645,-94.85 207.076,-95.589 215.799,-101.602 217.645,-94.85"/>
</g>
<!-- Node91 -->
<g id="node14" class="node"><title>Node91</title>
<g id="a_node14"><a xlink:href="timestep_8h.html#a53910d9a8aed88042cb11f422131cfb3" target="_top" xlink:title="rebuild_activelist">
<polygon fill="white" stroke="black" points="267.5,-38.5 267.5,-57.5 356.5,-57.5 356.5,-38.5 267.5,-38.5"/>
<text text-anchor="middle" x="312" y="-45.5" font-family="Helvetica,sans-Serif" font-size="10.00">rebuild_activelist</text>
</a>
</g>
</g>
<!-- Node85&#45;&gt;Node91 -->
<g id="edge17" class="edge"><title>Node85&#45;&gt;Node91</title>
<path fill="none" stroke="midnightblue" d="M216.795,-73.7538C235.955,-68.516 257.994,-62.4909 275.936,-57.5859"/>
<polygon fill="midnightblue" stroke="midnightblue" points="215.799,-70.3978 207.076,-76.411 217.645,-77.15 215.799,-70.3978"/>
</g>
<!-- Node93 -->
<g id="node16" class="node"><title>Node93</title>
<g id="a_node16"><a xlink:href="timestep_8h.html#a213824fd52a446328b5b432c1b4b5c48" target="_top" xlink:title="print_timebin_statistics">
<polygon fill="white" stroke="black" points="253.5,-76.5 253.5,-95.5 370.5,-95.5 370.5,-76.5 253.5,-76.5"/>
<text text-anchor="middle" x="312" y="-83.5" font-family="Helvetica,sans-Serif" font-size="10.00">print_timebin_statistics</text>
</a>
</g>
</g>
<!-- Node85&#45;&gt;Node93 -->
<g id="edge22" class="edge"><title>Node85&#45;&gt;Node93</title>
<path fill="none" stroke="midnightblue" d="M227.388,-86C235.949,-86 244.809,-86 253.418,-86"/>
<polygon fill="midnightblue" stroke="midnightblue" points="227.129,-82.5001 217.129,-86 227.129,-89.5001 227.129,-82.5001"/>
</g>
<!-- Node87 -->
<g id="node10" class="node"><title>Node87</title>
<g id="a_node10"><a xlink:href="timestep_8h.html#a56c5eecfbeb9072b689306aac4dcd6db" target="_top" xlink:title="init_timebins">
<polygon fill="white" stroke="black" points="407,-0.5 407,-19.5 478,-19.5 478,-0.5 407,-0.5"/>
<text text-anchor="middle" x="442.5" y="-7.5" font-family="Helvetica,sans-Serif" font-size="10.00">init_timebins</text>
</a>
</g>
</g>
<!-- Node86&#45;&gt;Node87 -->
<g id="edge11" class="edge"><title>Node86&#45;&gt;Node87</title>
<path fill="none" stroke="midnightblue" d="M381.287,-10C390.183,-10 398.976,-10 406.98,-10"/>
<polygon fill="midnightblue" stroke="midnightblue" points="381.234,-6.5001 371.234,-10 381.234,-13.5001 381.234,-6.5001"/>
</g>
<!-- Node88 -->
<g id="node11" class="node"><title>Node88</title>
<g id="a_node11"><a xlink:href="proto_8h.html#ab080cb20bac2a1a6153a84e8cfd15374" target="_top" xlink:title="init">
<polygon fill="white" stroke="black" points="525.5,-38.5 525.5,-57.5 554.5,-57.5 554.5,-38.5 525.5,-38.5"/>
<text text-anchor="middle" x="540" y="-45.5" font-family="Helvetica,sans-Serif" font-size="10.00">init</text>
</a>
</g>
</g>
<!-- Node87&#45;&gt;Node88 -->
<g id="edge12" class="edge"><title>Node87&#45;&gt;Node88</title>
<path fill="none" stroke="midnightblue" d="M477.002,-23.3307C493.585,-29.9289 512.691,-37.5314 525.26,-42.5328"/>
<polygon fill="midnightblue" stroke="midnightblue" points="478.184,-20.0342 467.599,-19.589 475.596,-26.5382 478.184,-20.0342"/>
</g>
<!-- Node89 -->
<g id="node12" class="node"><title>Node89</title>
<g id="a_node12"><a xlink:href="proto_8h.html#a74dc0e5e9eefe11fc8434b62de573146" target="_top" xlink:title="begrun">
<polygon fill="white" stroke="black" points="602,-38.5 602,-57.5 648,-57.5 648,-38.5 602,-38.5"/>
<text text-anchor="middle" x="625" y="-45.5" font-family="Helvetica,sans-Serif" font-size="10.00">begrun</text>
</a>
</g>
</g>
<!-- Node88&#45;&gt;Node89 -->
<g id="edge13" class="edge"><title>Node88&#45;&gt;Node89</title>
<path fill="none" stroke="midnightblue" d="M565,-48C576.614,-48 590.466,-48 601.829,-48"/>
<polygon fill="midnightblue" stroke="midnightblue" points="564.706,-44.5001 554.706,-48 564.706,-51.5001 564.706,-44.5001"/>
</g>
<!-- Node89&#45;&gt;Node81 -->
<g id="edge14" class="edge"><title>Node89&#45;&gt;Node81</title>
<path fill="none" stroke="midnightblue" d="M649.966,-62.821C661.861,-70.177 675.89,-78.8531 686.382,-85.3417"/>
<polygon fill="midnightblue" stroke="midnightblue" points="651.726,-59.7941 641.38,-57.5112 648.044,-65.7477 651.726,-59.7941"/>
</g>
<!-- Node90&#45;&gt;Node80 -->
<g id="edge16" class="edge"><title>Node90&#45;&gt;Node80</title>
<path fill="none" stroke="midnightblue" d="M362.396,-124C385.753,-124 411.88,-124 427.492,-124"/>
<polygon fill="midnightblue" stroke="midnightblue" points="362.252,-120.5 352.252,-124 362.252,-127.5 362.252,-120.5"/>
</g>
<!-- Node91&#45;&gt;Node80 -->
<g id="edge19" class="edge"><title>Node91&#45;&gt;Node80</title>
<path fill="none" stroke="midnightblue" d="M359.57,-61.2648C363.533,-62.9855 367.399,-64.8935 371,-67 389.735,-77.9588 390.053,-86.4387 407,-100 413.494,-105.197 421.046,-110.525 427.426,-114.836"/>
<polygon fill="midnightblue" stroke="midnightblue" points="360.81,-57.9915 350.223,-57.5844 358.245,-64.5048 360.81,-57.9915"/>
</g>
<!-- Node91&#45;&gt;Node88 -->
<g id="edge18" class="edge"><title>Node91&#45;&gt;Node88</title>
<path fill="none" stroke="midnightblue" d="M366.695,-48C418.975,-48 494.886,-48 525.477,-48"/>
<polygon fill="midnightblue" stroke="midnightblue" points="366.575,-44.5001 356.575,-48 366.575,-51.5001 366.575,-44.5001"/>
</g>
<!-- Node92 -->
<g id="node15" class="node"><title>Node92</title>
<g id="a_node15"><a xlink:href="runtests_8c.html#a549024555ca61e3f05a7100307e44f69" target="_top" xlink:title="runtests">
<polygon fill="white" stroke="black" points="514,-76.5 514,-95.5 566,-95.5 566,-76.5 514,-76.5"/>
<text text-anchor="middle" x="540" y="-83.5" font-family="Helvetica,sans-Serif" font-size="10.00">runtests</text>
</a>
</g>
</g>
<!-- Node91&#45;&gt;Node92 -->
<g id="edge20" class="edge"><title>Node91&#45;&gt;Node92</title>
<path fill="none" stroke="midnightblue" d="M366.493,-56.9943C413.016,-64.8169 478.37,-75.8055 513.787,-81.7607"/>
<polygon fill="midnightblue" stroke="midnightblue" points="367.017,-53.5335 356.575,-55.3268 365.856,-60.4366 367.017,-53.5335"/>
</g>
<!-- Node92&#45;&gt;Node81 -->
<g id="edge21" class="edge"><title>Node92&#45;&gt;Node81</title>
<path fill="none" stroke="midnightblue" d="M576.372,-87.9773C609.625,-89.8362 658.057,-92.5435 684,-93.9938"/>
<polygon fill="midnightblue" stroke="midnightblue" points="576.336,-84.4699 566.156,-87.4062 575.945,-91.459 576.336,-84.4699"/>
</g>
<!-- Node93&#45;&gt;Node80 -->
<g id="edge23" class="edge"><title>Node93&#45;&gt;Node80</title>
<path fill="none" stroke="midnightblue" d="M355.03,-98.4292C379.926,-105.791 409.897,-114.654 427.219,-119.777"/>
<polygon fill="midnightblue" stroke="midnightblue" points="356.008,-95.0686 345.426,-95.589 354.023,-101.781 356.008,-95.0686"/>
</g>
</g>
</svg>
