<?xml version="1.0" encoding="UTF-8" standalone="no"?>
<!DOCTYPE svg PUBLIC "-//W3C//DTD SVG 1.1//EN"
 "http://www.w3.org/Graphics/SVG/1.1/DTD/svg11.dtd">
<!-- Generated by graphviz version 2.38.0 (20140413.2041)
 -->
<!-- Title: ti_from_loga Pages: 1 -->
<svg width="1343pt" height="132pt"
 viewBox="0.00 0.00 1343.00 132.00" xmlns="http://www.w3.org/2000/svg" xmlns:xlink="http://www.w3.org/1999/xlink">
<g id="graph0" class="graph" transform="scale(1 1) rotate(0) translate(4 128)">
<title>ti_from_loga</title>
<polygon fill="white" stroke="none" points="-4,4 -4,-128 1339,-128 1339,4 -4,4"/>
<!-- Node247 -->
<g id="node1" class="node"><title>Node247</title>
<polygon fill="#bfbfbf" stroke="black" points="0,-76.5 0,-95.5 70,-95.5 70,-76.5 0,-76.5"/>
<text text-anchor="middle" x="35" y="-83.5" font-family="Helvetica,sans-Serif" font-size="10.00">ti_from_loga</text>
</g>
<!-- Node248 -->
<g id="node2" class="node"><title>Node248</title>
<g id="a_node2"><a xlink:href="timebinmgr_8h.html#a4d5d8a782b55fd059777c50cc6784f4d" target="_top" xlink:title="dti_from_dloga">
<polygon fill="white" stroke="black" points="106,-38.5 106,-57.5 186,-57.5 186,-38.5 106,-38.5"/>
<text text-anchor="middle" x="146" y="-45.5" font-family="Helvetica,sans-Serif" font-size="10.00">dti_from_dloga</text>
</a>
</g>
</g>
<!-- Node247&#45;&gt;Node248 -->
<g id="edge1" class="edge"><title>Node247&#45;&gt;Node248</title>
<path fill="none" stroke="midnightblue" d="M73.2085,-73.0282C87.7303,-67.9656 104.079,-62.2659 117.503,-57.5859"/>
<polygon fill="midnightblue" stroke="midnightblue" points="71.7957,-69.8141 63.5053,-76.411 74.1001,-76.4239 71.7957,-69.8141"/>
</g>
<!-- Node253 -->
<g id="node7" class="node"><title>Node253</title>
<g id="a_node7"><a xlink:href="proto_8h.html#ab080cb20bac2a1a6153a84e8cfd15374" target="_top" xlink:title="init">
<polygon fill="white" stroke="black" points="852,-76.5 852,-95.5 881,-95.5 881,-76.5 852,-76.5"/>
<text text-anchor="middle" x="866.5" y="-83.5" font-family="Helvetica,sans-Serif" font-size="10.00">init</text>
</a>
</g>
</g>
<!-- Node247&#45;&gt;Node253 -->
<g id="edge18" class="edge"><title>Node247&#45;&gt;Node253</title>
<path fill="none" stroke="midnightblue" d="M80.006,-96.6807C130.242,-107.92 215.035,-124 289,-124 289,-124 289,-124 617,-124 706.085,-124 728.652,-117.509 816,-100 828.259,-97.5426 841.914,-93.586 851.772,-90.5049"/>
<polygon fill="midnightblue" stroke="midnightblue" points="80.6575,-93.2396 70.1301,-94.4334 79.1043,-100.065 80.6575,-93.2396"/>
</g>
<!-- Node261 -->
<g id="node15" class="node"><title>Node261</title>
<g id="a_node15"><a xlink:href="timestep_8h.html#a56c5eecfbeb9072b689306aac4dcd6db" target="_top" xlink:title="init_timebins">
<polygon fill="white" stroke="black" points="580.5,-76.5 580.5,-95.5 651.5,-95.5 651.5,-76.5 580.5,-76.5"/>
<text text-anchor="middle" x="616" y="-83.5" font-family="Helvetica,sans-Serif" font-size="10.00">init_timebins</text>
</a>
</g>
</g>
<!-- Node247&#45;&gt;Node261 -->
<g id="edge19" class="edge"><title>Node247&#45;&gt;Node261</title>
<path fill="none" stroke="midnightblue" d="M80.2387,-86C191.307,-86 480.169,-86 580.255,-86"/>
<polygon fill="midnightblue" stroke="midnightblue" points="80.0575,-82.5001 70.0575,-86 80.0574,-89.5001 80.0575,-82.5001"/>
</g>
<!-- Node249 -->
<g id="node3" class="node"><title>Node249</title>
<g id="a_node3"><a xlink:href="timestep_8c.html#af02cf913a1503e86149164697803c375" target="_top" xlink:title="get_timestep_ti">
<polygon fill="white" stroke="black" points="248.5,-0.5 248.5,-19.5 331.5,-19.5 331.5,-0.5 248.5,-0.5"/>
<text text-anchor="middle" x="290" y="-7.5" font-family="Helvetica,sans-Serif" font-size="10.00">get_timestep_ti</text>
</a>
</g>
</g>
<!-- Node248&#45;&gt;Node249 -->
<g id="edge2" class="edge"><title>Node248&#45;&gt;Node249</title>
<path fill="none" stroke="midnightblue" d="M192.493,-35.8258C212.128,-30.5713 234.766,-24.5134 253.179,-19.5859"/>
<polygon fill="midnightblue" stroke="midnightblue" points="191.588,-32.4448 182.833,-38.411 193.397,-39.2069 191.588,-32.4448"/>
</g>
<!-- Node260 -->
<g id="node14" class="node"><title>Node260</title>
<g id="a_node14"><a xlink:href="timestep_8c.html#a698aa21800cfd13febdd63096191022c" target="_top" xlink:title="get_long_range_timestep_ti">
<polygon fill="white" stroke="black" points="222,-38.5 222,-57.5 358,-57.5 358,-38.5 222,-38.5"/>
<text text-anchor="middle" x="290" y="-45.5" font-family="Helvetica,sans-Serif" font-size="10.00">get_long_range_timestep_ti</text>
</a>
</g>
</g>
<!-- Node248&#45;&gt;Node260 -->
<g id="edge15" class="edge"><title>Node248&#45;&gt;Node260</title>
<path fill="none" stroke="midnightblue" d="M196.355,-48C204.601,-48 213.279,-48 221.88,-48"/>
<polygon fill="midnightblue" stroke="midnightblue" points="196.178,-44.5001 186.178,-48 196.178,-51.5001 196.178,-44.5001"/>
</g>
<!-- Node250 -->
<g id="node4" class="node"><title>Node250</title>
<g id="a_node4"><a xlink:href="timestep_8h.html#ac4649213db370055ed2ce25277ba7844" target="_top" xlink:title="timestep_allocate_memory">
<polygon fill="white" stroke="black" points="394,-38.5 394,-57.5 528,-57.5 528,-38.5 394,-38.5"/>
<text text-anchor="middle" x="461" y="-45.5" font-family="Helvetica,sans-Serif" font-size="10.00">timestep_allocate_memory</text>
</a>
</g>
</g>
<!-- Node249&#45;&gt;Node250 -->
<g id="edge3" class="edge"><title>Node249&#45;&gt;Node250</title>
<path fill="none" stroke="midnightblue" d="M341.98,-21.4631C366.17,-26.9022 394.734,-33.3248 417.702,-38.4891"/>
<polygon fill="midnightblue" stroke="midnightblue" points="342.434,-17.9778 331.91,-19.1987 340.899,-24.8073 342.434,-17.9778"/>
</g>
<!-- Node259 -->
<g id="node13" class="node"><title>Node259</title>
<g id="a_node13"><a xlink:href="timestep_8h.html#ac4c17d0cf055339694fdd96baadd83c0" target="_top" xlink:title="find_timesteps">
<polygon fill="white" stroke="black" points="421,-0.5 421,-19.5 501,-19.5 501,-0.5 421,-0.5"/>
<text text-anchor="middle" x="461" y="-7.5" font-family="Helvetica,sans-Serif" font-size="10.00">find_timesteps</text>
</a>
</g>
</g>
<!-- Node249&#45;&gt;Node259 -->
<g id="edge13" class="edge"><title>Node249&#45;&gt;Node259</title>
<path fill="none" stroke="midnightblue" d="M342.072,-10C367.386,-10 397.472,-10 420.92,-10"/>
<polygon fill="midnightblue" stroke="midnightblue" points="341.91,-6.5001 331.91,-10 341.91,-13.5001 341.91,-6.5001"/>
</g>
<!-- Node251 -->
<g id="node5" class="node"><title>Node251</title>
<g id="a_node5"><a xlink:href="petaio_8c.html#aaa9eefdbfea91c08aa366767aac96a69" target="_top" xlink:title="petaio_read_internal">
<polygon fill="white" stroke="black" points="564,-38.5 564,-57.5 668,-57.5 668,-38.5 564,-38.5"/>
<text text-anchor="middle" x="616" y="-45.5" font-family="Helvetica,sans-Serif" font-size="10.00">petaio_read_internal</text>
</a>
</g>
</g>
<!-- Node250&#45;&gt;Node251 -->
<g id="edge4" class="edge"><title>Node250&#45;&gt;Node251</title>
<path fill="none" stroke="midnightblue" d="M538.358,-48C547.019,-48 555.682,-48 563.904,-48"/>
<polygon fill="midnightblue" stroke="midnightblue" points="538.218,-44.5001 528.218,-48 538.218,-51.5001 538.218,-44.5001"/>
</g>
<!-- Node252 -->
<g id="node6" class="node"><title>Node252</title>
<g id="a_node6"><a xlink:href="petaio_8h.html#a3dd52bd7a320fa9ef1c7963d060ae4ec" target="_top" xlink:title="petaio_read_snapshot">
<polygon fill="white" stroke="black" points="704,-38.5 704,-57.5 816,-57.5 816,-38.5 704,-38.5"/>
<text text-anchor="middle" x="760" y="-45.5" font-family="Helvetica,sans-Serif" font-size="10.00">petaio_read_snapshot</text>
</a>
</g>
</g>
<!-- Node251&#45;&gt;Node252 -->
<g id="edge5" class="edge"><title>Node251&#45;&gt;Node252</title>
<path fill="none" stroke="midnightblue" d="M678.481,-48C686.959,-48 695.621,-48 703.972,-48"/>
<polygon fill="midnightblue" stroke="midnightblue" points="678.265,-44.5001 668.265,-48 678.265,-51.5001 678.265,-44.5001"/>
</g>
<!-- Node252&#45;&gt;Node253 -->
<g id="edge6" class="edge"><title>Node252&#45;&gt;Node253</title>
<path fill="none" stroke="midnightblue" d="M796.936,-61.0677C815.902,-67.9643 838.055,-76.0199 851.932,-81.0663"/>
<polygon fill="midnightblue" stroke="midnightblue" points="797.964,-57.7172 787.37,-57.589 795.572,-64.2958 797.964,-57.7172"/>
</g>
<!-- Node254 -->
<g id="node8" class="node"><title>Node254</title>
<g id="a_node8"><a xlink:href="proto_8h.html#a74dc0e5e9eefe11fc8434b62de573146" target="_top" xlink:title="begrun">
<polygon fill="white" stroke="black" points="917,-76.5 917,-95.5 963,-95.5 963,-76.5 917,-76.5"/>
<text text-anchor="middle" x="940" y="-83.5" font-family="Helvetica,sans-Serif" font-size="10.00">begrun</text>
</a>
</g>
</g>
<!-- Node253&#45;&gt;Node254 -->
<g id="edge7" class="edge"><title>Node253&#45;&gt;Node254</title>
<path fill="none" stroke="midnightblue" d="M891.37,-86C899.585,-86 908.743,-86 916.818,-86"/>
<polygon fill="midnightblue" stroke="midnightblue" points="891.286,-82.5001 881.286,-86 891.286,-89.5001 891.286,-82.5001"/>
</g>
<!-- Node255 -->
<g id="node9" class="node"><title>Node255</title>
<g id="a_node9"><a xlink:href="main_8c.html#a3c04138a5bfe5d72780bb7e82a18e627" target="_top" xlink:title="main">
<polygon fill="white" stroke="black" points="999,-76.5 999,-95.5 1037,-95.5 1037,-76.5 999,-76.5"/>
<text text-anchor="middle" x="1018" y="-83.5" font-family="Helvetica,sans-Serif" font-size="10.00">main</text>
</a>
</g>
</g>
<!-- Node254&#45;&gt;Node255 -->
<g id="edge8" class="edge"><title>Node254&#45;&gt;Node255</title>
<path fill="none" stroke="midnightblue" d="M973.541,-86C982.114,-86 991.067,-86 998.603,-86"/>
<polygon fill="midnightblue" stroke="midnightblue" points="973.391,-82.5001 963.391,-86 973.391,-89.5001 973.391,-82.5001"/>
</g>
<!-- Node256 -->
<g id="node10" class="node"><title>Node256</title>
<g id="a_node10"><a xlink:href="walltime_8h.html#a76d2135b612766d4d665748454b879d6" target="_top" xlink:title="walltime_report">
<polygon fill="white" stroke="black" points="1073,-38.5 1073,-57.5 1156,-57.5 1156,-38.5 1073,-38.5"/>
<text text-anchor="middle" x="1114.5" y="-45.5" font-family="Helvetica,sans-Serif" font-size="10.00">walltime_report</text>
</a>
</g>
</g>
<!-- Node255&#45;&gt;Node256 -->
<g id="edge9" class="edge"><title>Node255&#45;&gt;Node256</title>
<path fill="none" stroke="midnightblue" d="M1046.59,-74.904C1060.23,-69.4222 1076.52,-62.8721 1089.61,-57.6074"/>
<polygon fill="midnightblue" stroke="midnightblue" points="1045.19,-71.695 1037.22,-78.6732 1047.8,-78.1896 1045.19,-71.695"/>
</g>
<!-- Node257 -->
<g id="node11" class="node"><title>Node257</title>
<g id="a_node11"><a xlink:href="run_8c.html#adc59e9ee1517e4e690694a64ab6a59d2" target="_top" xlink:title="write_cpu_log">
<polygon fill="white" stroke="black" points="1192,-38.5 1192,-57.5 1269,-57.5 1269,-38.5 1192,-38.5"/>
<text text-anchor="middle" x="1230.5" y="-45.5" font-family="Helvetica,sans-Serif" font-size="10.00">write_cpu_log</text>
</a>
</g>
</g>
<!-- Node256&#45;&gt;Node257 -->
<g id="edge10" class="edge"><title>Node256&#45;&gt;Node257</title>
<path fill="none" stroke="midnightblue" d="M1166.03,-48C1174.68,-48 1183.54,-48 1191.78,-48"/>
<polygon fill="midnightblue" stroke="midnightblue" points="1166.01,-44.5001 1156.01,-48 1166.01,-51.5001 1166.01,-44.5001"/>
</g>
<!-- Node258 -->
<g id="node12" class="node"><title>Node258</title>
<g id="a_node12"><a xlink:href="run_8c.html#a05e0ffe612d44e6d7f3a9ae5b9df56a2" target="_top" xlink:title="run">
<polygon fill="white" stroke="black" points="1305,-38.5 1305,-57.5 1335,-57.5 1335,-38.5 1305,-38.5"/>
<text text-anchor="middle" x="1320" y="-45.5" font-family="Helvetica,sans-Serif" font-size="10.00">run</text>
</a>
</g>
</g>
<!-- Node257&#45;&gt;Node258 -->
<g id="edge11" class="edge"><title>Node257&#45;&gt;Node258</title>
<path fill="none" stroke="midnightblue" d="M1279.22,-48C1288.52,-48 1297.58,-48 1304.7,-48"/>
<polygon fill="midnightblue" stroke="midnightblue" points="1279.12,-44.5001 1269.12,-48 1279.12,-51.5001 1279.12,-44.5001"/>
</g>
<!-- Node258&#45;&gt;Node255 -->
<g id="edge12" class="edge"><title>Node258&#45;&gt;Node255</title>
<path fill="none" stroke="midnightblue" d="M1295.55,-58.5034C1287.31,-61.7624 1277.89,-65.0162 1269,-67 1183.82,-86.0031 1078.71,-86.8944 1037.15,-86.3876"/>
<polygon fill="midnightblue" stroke="midnightblue" points="1297.01,-61.6864 1304.9,-54.6104 1294.32,-55.2245 1297.01,-61.6864"/>
</g>
<!-- Node259&#45;&gt;Node258 -->
<g id="edge14" class="edge"><title>Node259&#45;&gt;Node258</title>
<path fill="none" stroke="midnightblue" d="M511.543,-10C570.504,-10 671.931,-10 759,-10 759,-10 759,-10 1115.5,-10 1184.24,-10 1202.28,-12.4494 1269,-29 1281.44,-32.0853 1295,-37.3655 1304.85,-41.5776"/>
<polygon fill="midnightblue" stroke="midnightblue" points="511.394,-6.5001 501.394,-10 511.394,-13.5001 511.394,-6.5001"/>
</g>
<!-- Node260&#45;&gt;Node250 -->
<g id="edge16" class="edge"><title>Node260&#45;&gt;Node250</title>
<path fill="none" stroke="midnightblue" d="M368.509,-48C376.952,-48 385.489,-48 393.78,-48"/>
<polygon fill="midnightblue" stroke="midnightblue" points="368.279,-44.5001 358.279,-48 368.279,-51.5001 368.279,-44.5001"/>
</g>
<!-- Node260&#45;&gt;Node259 -->
<g id="edge17" class="edge"><title>Node260&#45;&gt;Node259</title>
<path fill="none" stroke="midnightblue" d="M343.682,-36.1544C368.626,-30.5457 397.902,-23.9628 420.843,-18.8045"/>
<polygon fill="midnightblue" stroke="midnightblue" points="342.634,-32.8024 333.646,-38.411 344.17,-39.6319 342.634,-32.8024"/>
</g>
<!-- Node261&#45;&gt;Node253 -->
<g id="edge20" class="edge"><title>Node261&#45;&gt;Node253</title>
<path fill="none" stroke="midnightblue" d="M661.833,-86C719.46,-86 816.322,-86 851.88,-86"/>
<polygon fill="midnightblue" stroke="midnightblue" points="661.553,-82.5001 651.553,-86 661.553,-89.5001 661.553,-82.5001"/>
</g>
</g>
</svg>
