<?xml version="1.0" encoding="UTF-8" standalone="no"?>
<!DOCTYPE svg PUBLIC "-//W3C//DTD SVG 1.1//EN"
 "http://www.w3.org/Graphics/SVG/1.1/DTD/svg11.dtd">
<!-- Generated by graphviz version 2.38.0 (20140413.2041)
 -->
<!-- Title: get_drift_factor Pages: 1 -->
<svg width="1820pt" height="398pt"
 viewBox="0.00 0.00 1820.00 398.00" xmlns="http://www.w3.org/2000/svg" xmlns:xlink="http://www.w3.org/1999/xlink">
<g id="graph0" class="graph" transform="scale(1 1) rotate(0) translate(4 394)">
<title>get_drift_factor</title>
<polygon fill="white" stroke="none" points="-4,4 -4,-394 1816,-394 1816,4 -4,4"/>
<!-- Node80 -->
<g id="node1" class="node"><title>Node80</title>
<polygon fill="#bfbfbf" stroke="black" points="0,-171.5 0,-190.5 82,-190.5 82,-171.5 0,-171.5"/>
<text text-anchor="middle" x="41" y="-178.5" font-family="Helvetica,sans-Serif" font-size="10.00">get_drift_factor</text>
</g>
<!-- Node81 -->
<g id="node2" class="node"><title>Node81</title>
<g id="a_node2"><a xlink:href="drift_8c.html#a6686c80412f5ab3f2dd3a00cec58f4e3" target="_top" xlink:title="real_drift_particle">
<polygon fill="white" stroke="black" points="118,-171.5 118,-190.5 209,-190.5 209,-171.5 118,-171.5"/>
<text text-anchor="middle" x="163.5" y="-178.5" font-family="Helvetica,sans-Serif" font-size="10.00">real_drift_particle</text>
</a>
</g>
</g>
<!-- Node80&#45;&gt;Node81 -->
<g id="edge1" class="edge"><title>Node80&#45;&gt;Node81</title>
<path fill="none" stroke="midnightblue" d="M92.3288,-181C100.844,-181 109.63,-181 117.983,-181"/>
<polygon fill="midnightblue" stroke="midnightblue" points="92.1248,-177.5 82.1248,-181 92.1247,-184.5 92.1248,-177.5"/>
</g>
<!-- Node82 -->
<g id="node3" class="node"><title>Node82</title>
<g id="a_node3"><a xlink:href="drift_8h.html#af0d90fbc24e004a34430a691fb79b5d6" target="_top" xlink:title="drift_active_particles">
<polygon fill="white" stroke="black" points="245,-209.5 245,-228.5 352,-228.5 352,-209.5 245,-209.5"/>
<text text-anchor="middle" x="298.5" y="-216.5" font-family="Helvetica,sans-Serif" font-size="10.00">drift_active_particles</text>
</a>
</g>
</g>
<!-- Node81&#45;&gt;Node82 -->
<g id="edge2" class="edge"><title>Node81&#45;&gt;Node82</title>
<path fill="none" stroke="midnightblue" d="M207.867,-193.391C226.081,-198.594 246.939,-204.554 263.949,-209.414"/>
<polygon fill="midnightblue" stroke="midnightblue" points="208.638,-189.971 198.062,-190.589 206.715,-196.702 208.638,-189.971"/>
</g>
<!-- Node83 -->
<g id="node4" class="node"><title>Node83</title>
<g id="a_node4"><a xlink:href="drift_8h.html#af3e58fb1ffbcc5aed5ce57df71c580e2" target="_top" xlink:title="drift_all_particles">
<polygon fill="white" stroke="black" points="388,-133.5 388,-152.5 478,-152.5 478,-133.5 388,-133.5"/>
<text text-anchor="middle" x="433" y="-140.5" font-family="Helvetica,sans-Serif" font-size="10.00">drift_all_particles</text>
</a>
</g>
</g>
<!-- Node81&#45;&gt;Node83 -->
<g id="edge3" class="edge"><title>Node81&#45;&gt;Node83</title>
<path fill="none" stroke="midnightblue" d="M210.424,-169.07C221.675,-166.45 233.724,-163.895 245,-162 293.593,-153.833 349.922,-148.69 387.954,-145.845"/>
<polygon fill="midnightblue" stroke="midnightblue" points="209.273,-165.746 200.362,-171.477 210.902,-172.554 209.273,-165.746"/>
</g>
<!-- Node88 -->
<g id="node9" class="node"><title>Node88</title>
<g id="a_node9"><a xlink:href="drift_8c.html#a4feabe018e5729864dcfd97f0515ecce" target="_top" xlink:title="drift_particle_full">
<polygon fill="white" stroke="black" points="254.5,-171.5 254.5,-190.5 342.5,-190.5 342.5,-171.5 254.5,-171.5"/>
<text text-anchor="middle" x="298.5" y="-178.5" font-family="Helvetica,sans-Serif" font-size="10.00">drift_particle_full</text>
</a>
</g>
</g>
<!-- Node81&#45;&gt;Node88 -->
<g id="edge9" class="edge"><title>Node81&#45;&gt;Node88</title>
<path fill="none" stroke="midnightblue" d="M219.208,-181C230.832,-181 242.954,-181 254.089,-181"/>
<polygon fill="midnightblue" stroke="midnightblue" points="219.157,-177.5 209.157,-181 219.157,-184.5 219.157,-177.5"/>
</g>
<!-- Node84 -->
<g id="node5" class="node"><title>Node84</title>
<g id="a_node5"><a xlink:href="run_8c.html#a05e0ffe612d44e6d7f3a9ae5b9df56a2" target="_top" xlink:title="run">
<polygon fill="white" stroke="black" points="1476,-123.5 1476,-142.5 1506,-142.5 1506,-123.5 1476,-123.5"/>
<text text-anchor="middle" x="1491" y="-130.5" font-family="Helvetica,sans-Serif" font-size="10.00">run</text>
</a>
</g>
</g>
<!-- Node83&#45;&gt;Node84 -->
<g id="edge4" class="edge"><title>Node83&#45;&gt;Node84</title>
<path fill="none" stroke="midnightblue" d="M452.038,-126.614C495.322,-89.0622 609.903,-0 723,-0 723,-0 723,-0 1293,-0 1381.31,-0 1459.64,-92.9393 1482.96,-123.435"/>
<polygon fill="midnightblue" stroke="midnightblue" points="449.535,-124.154 444.353,-133.395 454.167,-129.403 449.535,-124.154"/>
</g>
<!-- Node85 -->
<g id="node6" class="node"><title>Node85</title>
<g id="a_node6"><a xlink:href="main_8c.html#a3c04138a5bfe5d72780bb7e82a18e627" target="_top" xlink:title="main">
<polygon fill="white" stroke="black" points="1542,-161.5 1542,-180.5 1580,-180.5 1580,-161.5 1542,-161.5"/>
<text text-anchor="middle" x="1561" y="-168.5" font-family="Helvetica,sans-Serif" font-size="10.00">main</text>
</a>
</g>
</g>
<!-- Node84&#45;&gt;Node85 -->
<g id="edge5" class="edge"><title>Node84&#45;&gt;Node85</title>
<path fill="none" stroke="midnightblue" d="M1514.94,-145.821C1523.96,-150.86 1534.14,-156.55 1542.54,-161.245"/>
<polygon fill="midnightblue" stroke="midnightblue" points="1516.53,-142.697 1506.09,-140.874 1513.11,-148.807 1516.53,-142.697"/>
</g>
<!-- Node86 -->
<g id="node7" class="node"><title>Node86</title>
<g id="a_node7"><a xlink:href="walltime_8h.html#a76d2135b612766d4d665748454b879d6" target="_top" xlink:title="walltime_report">
<polygon fill="white" stroke="black" points="1616,-161.5 1616,-180.5 1699,-180.5 1699,-161.5 1616,-161.5"/>
<text text-anchor="middle" x="1657.5" y="-168.5" font-family="Helvetica,sans-Serif" font-size="10.00">walltime_report</text>
</a>
</g>
</g>
<!-- Node85&#45;&gt;Node86 -->
<g id="edge6" class="edge"><title>Node85&#45;&gt;Node86</title>
<path fill="none" stroke="midnightblue" d="M1590.41,-171C1598.35,-171 1607.13,-171 1615.63,-171"/>
<polygon fill="midnightblue" stroke="midnightblue" points="1590.22,-167.5 1580.22,-171 1590.22,-174.5 1590.22,-167.5"/>
</g>
<!-- Node87 -->
<g id="node8" class="node"><title>Node87</title>
<g id="a_node8"><a xlink:href="run_8c.html#adc59e9ee1517e4e690694a64ab6a59d2" target="_top" xlink:title="write_cpu_log">
<polygon fill="white" stroke="black" points="1735,-142.5 1735,-161.5 1812,-161.5 1812,-142.5 1735,-142.5"/>
<text text-anchor="middle" x="1773.5" y="-149.5" font-family="Helvetica,sans-Serif" font-size="10.00">write_cpu_log</text>
</a>
</g>
</g>
<!-- Node86&#45;&gt;Node87 -->
<g id="edge7" class="edge"><title>Node86&#45;&gt;Node87</title>
<path fill="none" stroke="midnightblue" d="M1709.03,-162.578C1717.68,-161.136 1726.54,-159.66 1734.78,-158.286"/>
<polygon fill="midnightblue" stroke="midnightblue" points="1708.3,-159.151 1699.01,-164.248 1709.45,-166.056 1708.3,-159.151"/>
</g>
<!-- Node87&#45;&gt;Node84 -->
<g id="edge8" class="edge"><title>Node87&#45;&gt;Node84</title>
<path fill="none" stroke="midnightblue" d="M1724.73,-148.764C1659.49,-144.345 1546.09,-136.664 1506.3,-133.968"/>
<polygon fill="midnightblue" stroke="midnightblue" points="1724.55,-152.26 1734.76,-149.444 1725.02,-145.276 1724.55,-152.26"/>
</g>
<!-- Node89 -->
<g id="node10" class="node"><title>Node89</title>
<g id="a_node10"><a xlink:href="drift_8h.html#aef778a2d1f0e7e44a06517bb0b6cd8ea" target="_top" xlink:title="drift_particle">
<polygon fill="white" stroke="black" points="398,-247.5 398,-266.5 468,-266.5 468,-247.5 398,-247.5"/>
<text text-anchor="middle" x="433" y="-254.5" font-family="Helvetica,sans-Serif" font-size="10.00">drift_particle</text>
</a>
</g>
</g>
<!-- Node88&#45;&gt;Node89 -->
<g id="edge10" class="edge"><title>Node88&#45;&gt;Node89</title>
<path fill="none" stroke="midnightblue" d="M339.988,-194.381C344.114,-196.12 348.186,-197.999 352,-200 378.277,-213.786 405.792,-235.164 420.722,-247.445"/>
<polygon fill="midnightblue" stroke="midnightblue" points="340.949,-190.998 330.362,-190.587 338.382,-197.51 340.949,-190.998"/>
</g>
<!-- Node90 -->
<g id="node11" class="node"><title>Node90</title>
<g id="a_node11"><a xlink:href="gravshort-tree_8c.html#a3ffcbdc6a83731eeae868eb50429d837" target="_top" xlink:title="force_treeev_shortrange">
<polygon fill="white" stroke="black" points="514,-261.5 514,-280.5 636,-280.5 636,-261.5 514,-261.5"/>
<text text-anchor="middle" x="575" y="-268.5" font-family="Helvetica,sans-Serif" font-size="10.00">force_treeev_shortrange</text>
</a>
</g>
</g>
<!-- Node89&#45;&gt;Node90 -->
<g id="edge11" class="edge"><title>Node89&#45;&gt;Node90</title>
<path fill="none" stroke="midnightblue" d="M478.298,-261.43C489.605,-262.56 501.95,-263.795 513.902,-264.99"/>
<polygon fill="midnightblue" stroke="midnightblue" points="478.547,-257.937 468.248,-260.425 477.85,-264.903 478.547,-257.937"/>
</g>
<!-- Node94 -->
<g id="node15" class="node"><title>Node94</title>
<g id="a_node15"><a xlink:href="gravshort-tree-old_8c.html#a253236d87892b895c61ce50b15c03693" target="_top" xlink:title="force_treeevaluate\l_shortrange">
<polygon fill="white" stroke="black" points="526.5,-327 526.5,-357 623.5,-357 623.5,-327 526.5,-327"/>
<text text-anchor="start" x="534.5" y="-345" font-family="Helvetica,sans-Serif" font-size="10.00">force_treeevaluate</text>
<text text-anchor="middle" x="575" y="-334" font-family="Helvetica,sans-Serif" font-size="10.00">_shortrange</text>
</a>
</g>
</g>
<!-- Node89&#45;&gt;Node94 -->
<g id="edge17" class="edge"><title>Node89&#45;&gt;Node94</title>
<path fill="none" stroke="midnightblue" d="M458.464,-271.853C483.895,-287.293 523.492,-311.334 549.088,-326.875"/>
<polygon fill="midnightblue" stroke="midnightblue" points="460.152,-268.783 449.788,-266.585 456.519,-274.767 460.152,-268.783"/>
</g>
<!-- Node97 -->
<g id="node18" class="node"><title>Node97</title>
<g id="a_node18"><a xlink:href="treewalk_8h.html#a145aa9608fd3824bec8049ee97da1c6f" target="_top" xlink:title="treewalk_visit_ngbiter">
<polygon fill="white" stroke="black" points="519.5,-193.5 519.5,-212.5 630.5,-212.5 630.5,-193.5 519.5,-193.5"/>
<text text-anchor="middle" x="575" y="-200.5" font-family="Helvetica,sans-Serif" font-size="10.00">treewalk_visit_ngbiter</text>
</a>
</g>
</g>
<!-- Node89&#45;&gt;Node97 -->
<g id="edge21" class="edge"><title>Node89&#45;&gt;Node97</title>
<path fill="none" stroke="midnightblue" d="M468.179,-243.816C493.187,-234.171 526.544,-221.304 549.069,-212.616"/>
<polygon fill="midnightblue" stroke="midnightblue" points="466.777,-240.606 458.707,-247.47 469.297,-247.137 466.777,-240.606"/>
</g>
<!-- Node91 -->
<g id="node12" class="node"><title>Node91</title>
<g id="a_node12"><a xlink:href="proto_8h.html#a3890f7b7605d1abaf3cd23eeca5bcdd5" target="_top" xlink:title="grav_short_tree">
<polygon fill="white" stroke="black" points="682,-294.5 682,-313.5 766,-313.5 766,-294.5 682,-294.5"/>
<text text-anchor="middle" x="724" y="-301.5" font-family="Helvetica,sans-Serif" font-size="10.00">grav_short_tree</text>
</a>
</g>
</g>
<!-- Node90&#45;&gt;Node91 -->
<g id="edge12" class="edge"><title>Node90&#45;&gt;Node91</title>
<path fill="none" stroke="midnightblue" d="M628.593,-282.807C646.099,-286.737 665.331,-291.054 681.843,-294.761"/>
<polygon fill="midnightblue" stroke="midnightblue" points="629.042,-279.32 618.518,-280.545 627.509,-286.15 629.042,-279.32"/>
</g>
<!-- Node92 -->
<g id="node13" class="node"><title>Node92</title>
<g id="a_node13"><a xlink:href="run_8c.html#abb80d08f4d52f4a7bdf28d1cecfead5b" target="_top" xlink:title="compute_accelerations">
<polygon fill="white" stroke="black" points="958.5,-199.5 958.5,-218.5 1075.5,-218.5 1075.5,-199.5 958.5,-199.5"/>
<text text-anchor="middle" x="1017" y="-206.5" font-family="Helvetica,sans-Serif" font-size="10.00">compute_accelerations</text>
</a>
</g>
</g>
<!-- Node91&#45;&gt;Node92 -->
<g id="edge13" class="edge"><title>Node91&#45;&gt;Node92</title>
<path fill="none" stroke="midnightblue" d="M753.854,-317.657C793.629,-334.272 865.841,-356.251 914,-323 951.156,-297.346 916.792,-258.593 950,-228 954.209,-224.122 959.161,-221.03 964.427,-218.567"/>
<polygon fill="midnightblue" stroke="midnightblue" points="755.041,-314.357 744.474,-313.585 752.253,-320.778 755.041,-314.357"/>
</g>
<!-- Node93 -->
<g id="node14" class="node"><title>Node93</title>
<g id="a_node14"><a xlink:href="runtests_8c.html#a549024555ca61e3f05a7100307e44f69" target="_top" xlink:title="runtests">
<polygon fill="white" stroke="black" points="837,-294.5 837,-313.5 889,-313.5 889,-294.5 837,-294.5"/>
<text text-anchor="middle" x="863" y="-301.5" font-family="Helvetica,sans-Serif" font-size="10.00">runtests</text>
</a>
</g>
</g>
<!-- Node91&#45;&gt;Node93 -->
<g id="edge15" class="edge"><title>Node91&#45;&gt;Node93</title>
<path fill="none" stroke="midnightblue" d="M776.353,-304C797.029,-304 819.931,-304 836.847,-304"/>
<polygon fill="midnightblue" stroke="midnightblue" points="776.105,-300.5 766.105,-304 776.104,-307.5 776.105,-300.5"/>
</g>
<!-- Node92&#45;&gt;Node84 -->
<g id="edge14" class="edge"><title>Node92&#45;&gt;Node84</title>
<path fill="none" stroke="midnightblue" d="M1085.98,-204.626C1170.15,-198.116 1317.39,-183.138 1440,-152 1452.42,-148.846 1465.98,-143.571 1475.84,-139.378"/>
<polygon fill="midnightblue" stroke="midnightblue" points="1085.5,-201.152 1075.79,-205.397 1086.02,-208.133 1085.5,-201.152"/>
</g>
<!-- Node93&#45;&gt;Node85 -->
<g id="edge16" class="edge"><title>Node93&#45;&gt;Node85</title>
<path fill="none" stroke="midnightblue" d="M899.09,-300.467C956.792,-294.971 1075.36,-285 1176,-285 1176,-285 1176,-285 1396,-285 1468.82,-285 1532.53,-208.288 1553.07,-180.72"/>
<polygon fill="midnightblue" stroke="midnightblue" points="898.66,-296.992 889.042,-301.438 899.333,-303.96 898.66,-296.992"/>
</g>
<!-- Node95 -->
<g id="node16" class="node"><title>Node95</title>
<g id="a_node16"><a xlink:href="gravshort-tree-old_8c.html#a35575b446cf8d239ac5417132ca5d4c9" target="_top" xlink:title="fill_ntab">
<polygon fill="white" stroke="black" points="699,-370.5 699,-389.5 749,-389.5 749,-370.5 699,-370.5"/>
<text text-anchor="middle" x="724" y="-377.5" font-family="Helvetica,sans-Serif" font-size="10.00">fill_ntab</text>
</a>
</g>
</g>
<!-- Node94&#45;&gt;Node95 -->
<g id="edge18" class="edge"><title>Node94&#45;&gt;Node95</title>
<path fill="none" stroke="midnightblue" d="M633.652,-356.903C656.393,-362.782 681.258,-369.21 698.97,-373.788"/>
<polygon fill="midnightblue" stroke="midnightblue" points="634.284,-353.452 623.727,-354.338 632.532,-360.229 634.284,-353.452"/>
</g>
<!-- Node96 -->
<g id="node17" class="node"><title>Node96</title>
<g id="a_node17"><a xlink:href="gravshort-tree-old_8c.html#af703f51f005d6f005c4cfd250fdd5eb9" target="_top" xlink:title="grav_short_tree_old">
<polygon fill="white" stroke="black" points="812,-370.5 812,-389.5 914,-389.5 914,-370.5 812,-370.5"/>
<text text-anchor="middle" x="863" y="-377.5" font-family="Helvetica,sans-Serif" font-size="10.00">grav_short_tree_old</text>
</a>
</g>
</g>
<!-- Node94&#45;&gt;Node96 -->
<g id="edge20" class="edge"><title>Node94&#45;&gt;Node96</title>
<path fill="none" stroke="midnightblue" d="M634.009,-345.621C674.059,-348.582 728.457,-353.519 776,-361 791.709,-363.472 808.848,-367.071 823.662,-370.474"/>
<polygon fill="midnightblue" stroke="midnightblue" points="634.116,-342.12 623.89,-344.892 633.613,-349.101 634.116,-342.12"/>
</g>
<!-- Node95&#45;&gt;Node96 -->
<g id="edge19" class="edge"><title>Node95&#45;&gt;Node96</title>
<path fill="none" stroke="midnightblue" d="M759.584,-380C775.453,-380 794.57,-380 811.969,-380"/>
<polygon fill="midnightblue" stroke="midnightblue" points="759.178,-376.5 749.177,-380 759.177,-383.5 759.178,-376.5"/>
</g>
<!-- Node98 -->
<g id="node19" class="node"><title>Node98</title>
<g id="a_node19"><a xlink:href="density_8c.html#a69886540d0642590a0022fc14ce61f06" target="_top" xlink:title="density_internal">
<polygon fill="white" stroke="black" points="681.5,-218.5 681.5,-237.5 766.5,-237.5 766.5,-218.5 681.5,-218.5"/>
<text text-anchor="middle" x="724" y="-225.5" font-family="Helvetica,sans-Serif" font-size="10.00">density_internal</text>
</a>
</g>
</g>
<!-- Node97&#45;&gt;Node98 -->
<g id="edge22" class="edge"><title>Node97&#45;&gt;Node98</title>
<path fill="none" stroke="midnightblue" d="M640.624,-213.991C654.342,-216.324 668.479,-218.728 681.085,-220.872"/>
<polygon fill="midnightblue" stroke="midnightblue" points="641.183,-210.535 630.737,-212.309 640.009,-217.436 641.183,-210.535"/>
</g>
<!-- Node104 -->
<g id="node25" class="node"><title>Node104</title>
<g id="a_node25"><a xlink:href="fof_8c.html#a77c15fc071e72ec1ea91652d28740ce1" target="_top" xlink:title="fof_label_primary">
<polygon fill="white" stroke="black" points="678.5,-104.5 678.5,-123.5 769.5,-123.5 769.5,-104.5 678.5,-104.5"/>
<text text-anchor="middle" x="724" y="-111.5" font-family="Helvetica,sans-Serif" font-size="10.00">fof_label_primary</text>
</a>
</g>
</g>
<!-- Node97&#45;&gt;Node104 -->
<g id="edge31" class="edge"><title>Node97&#45;&gt;Node104</title>
<path fill="none" stroke="midnightblue" d="M594.875,-186.814C613.52,-171.431 643.327,-148.417 672,-133 678.658,-129.42 686.135,-126.223 693.269,-123.518"/>
<polygon fill="midnightblue" stroke="midnightblue" points="592.56,-184.188 587.139,-193.291 597.053,-189.556 592.56,-184.188"/>
</g>
<!-- Node110 -->
<g id="node31" class="node"><title>Node110</title>
<g id="a_node31"><a xlink:href="fof_8c.html#a9bbff144989b21ac4cbedc3aa2c6b1dc" target="_top" xlink:title="fof_label_secondary">
<polygon fill="white" stroke="black" points="672,-142.5 672,-161.5 776,-161.5 776,-142.5 672,-142.5"/>
<text text-anchor="middle" x="724" y="-149.5" font-family="Helvetica,sans-Serif" font-size="10.00">fof_label_secondary</text>
</a>
</g>
</g>
<!-- Node97&#45;&gt;Node110 -->
<g id="edge42" class="edge"><title>Node97&#45;&gt;Node110</title>
<path fill="none" stroke="midnightblue" d="M613.384,-190.03C638.963,-181.156 672.309,-169.587 695.474,-161.55"/>
<polygon fill="midnightblue" stroke="midnightblue" points="611.95,-186.823 603.65,-193.407 614.244,-193.436 611.95,-186.823"/>
</g>
<!-- Node111 -->
<g id="node32" class="node"><title>Node111</title>
<g id="a_node32"><a xlink:href="runtests_8c.html#a60eab909e50b5e048e572b833dcc2846" target="_top" xlink:title="grav_short_pair">
<polygon fill="white" stroke="black" points="682.5,-256.5 682.5,-275.5 765.5,-275.5 765.5,-256.5 682.5,-256.5"/>
<text text-anchor="middle" x="724" y="-263.5" font-family="Helvetica,sans-Serif" font-size="10.00">grav_short_pair</text>
</a>
</g>
</g>
<!-- Node97&#45;&gt;Node111 -->
<g id="edge45" class="edge"><title>Node97&#45;&gt;Node111</title>
<path fill="none" stroke="midnightblue" d="M604.935,-216.932C623.862,-225.878 649.215,-237.549 672,-247 679.768,-250.222 688.298,-253.5 696.123,-256.406"/>
<polygon fill="midnightblue" stroke="midnightblue" points="606.205,-213.66 595.671,-212.528 603.2,-219.982 606.205,-213.66"/>
</g>
<!-- Node112 -->
<g id="node33" class="node"><title>Node112</title>
<g id="a_node33"><a xlink:href="hydra_8h.html#a6789381bce7d1c316df8ecf04b47a607" target="_top" xlink:title="hydro_force">
<polygon fill="white" stroke="black" points="829,-180.5 829,-199.5 897,-199.5 897,-180.5 829,-180.5"/>
<text text-anchor="middle" x="863" y="-187.5" font-family="Helvetica,sans-Serif" font-size="10.00">hydro_force</text>
</a>
</g>
</g>
<!-- Node97&#45;&gt;Node112 -->
<g id="edge47" class="edge"><title>Node97&#45;&gt;Node112</title>
<path fill="none" stroke="midnightblue" d="M641.053,-200.043C699.522,-197.385 783.027,-193.59 828.813,-191.509"/>
<polygon fill="midnightblue" stroke="midnightblue" points="640.636,-196.558 630.805,-200.509 640.954,-203.551 640.636,-196.558"/>
</g>
<!-- Node99 -->
<g id="node20" class="node"><title>Node99</title>
<g id="a_node20"><a xlink:href="proto_8h.html#a8ce8ad3893801ac7d380efd9b7ef26d3" target="_top" xlink:title="density">
<polygon fill="white" stroke="black" points="839,-218.5 839,-237.5 887,-237.5 887,-218.5 839,-218.5"/>
<text text-anchor="middle" x="863" y="-225.5" font-family="Helvetica,sans-Serif" font-size="10.00">density</text>
</a>
</g>
</g>
<!-- Node98&#45;&gt;Node99 -->
<g id="edge23" class="edge"><title>Node98&#45;&gt;Node99</title>
<path fill="none" stroke="midnightblue" d="M777.066,-228C798.325,-228 821.829,-228 838.711,-228"/>
<polygon fill="midnightblue" stroke="midnightblue" points="776.849,-224.5 766.849,-228 776.849,-231.5 776.849,-224.5"/>
</g>
<!-- Node103 -->
<g id="node24" class="node"><title>Node103</title>
<g id="a_node24"><a xlink:href="proto_8h.html#a137ca78a0bd40fa7a75438e90e4f66a8" target="_top" xlink:title="density_update">
<polygon fill="white" stroke="black" points="821.5,-256.5 821.5,-275.5 904.5,-275.5 904.5,-256.5 821.5,-256.5"/>
<text text-anchor="middle" x="863" y="-263.5" font-family="Helvetica,sans-Serif" font-size="10.00">density_update</text>
</a>
</g>
</g>
<!-- Node98&#45;&gt;Node103 -->
<g id="edge29" class="edge"><title>Node98&#45;&gt;Node103</title>
<path fill="none" stroke="midnightblue" d="M769.411,-240.318C788.234,-245.539 809.838,-251.532 827.44,-256.414"/>
<polygon fill="midnightblue" stroke="midnightblue" points="770.143,-236.889 759.571,-237.589 768.272,-243.635 770.143,-236.889"/>
</g>
<!-- Node99&#45;&gt;Node92 -->
<g id="edge24" class="edge"><title>Node99&#45;&gt;Node92</title>
<path fill="none" stroke="midnightblue" d="M897.057,-223.868C915.013,-221.623 937.73,-218.784 958.488,-216.189"/>
<polygon fill="midnightblue" stroke="midnightblue" points="896.574,-220.401 887.086,-225.114 897.442,-227.347 896.574,-220.401"/>
</g>
<!-- Node100 -->
<g id="node21" class="node"><title>Node100</title>
<g id="a_node21"><a xlink:href="init_8c.html#a643ef34b585446f8ccbbf3239df2db71" target="_top" xlink:title="setup_smoothinglengths">
<polygon fill="white" stroke="black" points="956,-237.5 956,-256.5 1078,-256.5 1078,-237.5 956,-237.5"/>
<text text-anchor="middle" x="1017" y="-244.5" font-family="Helvetica,sans-Serif" font-size="10.00">setup_smoothinglengths</text>
</a>
</g>
</g>
<!-- Node99&#45;&gt;Node100 -->
<g id="edge25" class="edge"><title>Node99&#45;&gt;Node100</title>
<path fill="none" stroke="midnightblue" d="M897.172,-232.146C914.356,-234.294 935.876,-236.984 955.864,-239.483"/>
<polygon fill="midnightblue" stroke="midnightblue" points="897.442,-228.653 887.086,-230.886 896.574,-235.599 897.442,-228.653"/>
</g>
<!-- Node101 -->
<g id="node22" class="node"><title>Node101</title>
<g id="a_node22"><a xlink:href="proto_8h.html#ab080cb20bac2a1a6153a84e8cfd15374" target="_top" xlink:title="init">
<polygon fill="white" stroke="black" points="1162.5,-237.5 1162.5,-256.5 1191.5,-256.5 1191.5,-237.5 1162.5,-237.5"/>
<text text-anchor="middle" x="1177" y="-244.5" font-family="Helvetica,sans-Serif" font-size="10.00">init</text>
</a>
</g>
</g>
<!-- Node100&#45;&gt;Node101 -->
<g id="edge26" class="edge"><title>Node100&#45;&gt;Node101</title>
<path fill="none" stroke="midnightblue" d="M1088.37,-247C1116.28,-247 1145.65,-247 1162.31,-247"/>
<polygon fill="midnightblue" stroke="midnightblue" points="1088.18,-243.5 1078.18,-247 1088.18,-250.5 1088.18,-243.5"/>
</g>
<!-- Node102 -->
<g id="node23" class="node"><title>Node102</title>
<g id="a_node23"><a xlink:href="proto_8h.html#a74dc0e5e9eefe11fc8434b62de573146" target="_top" xlink:title="begrun">
<polygon fill="white" stroke="black" points="1372,-237.5 1372,-256.5 1418,-256.5 1418,-237.5 1372,-237.5"/>
<text text-anchor="middle" x="1395" y="-244.5" font-family="Helvetica,sans-Serif" font-size="10.00">begrun</text>
</a>
</g>
</g>
<!-- Node101&#45;&gt;Node102 -->
<g id="edge27" class="edge"><title>Node101&#45;&gt;Node102</title>
<path fill="none" stroke="midnightblue" d="M1201.63,-247C1243.67,-247 1330.84,-247 1371.81,-247"/>
<polygon fill="midnightblue" stroke="midnightblue" points="1201.51,-243.5 1191.51,-247 1201.51,-250.5 1201.51,-243.5"/>
</g>
<!-- Node102&#45;&gt;Node85 -->
<g id="edge28" class="edge"><title>Node102&#45;&gt;Node85</title>
<path fill="none" stroke="midnightblue" d="M1426.18,-233.014C1460.08,-217.306 1513.99,-192.322 1541.91,-179.383"/>
<polygon fill="midnightblue" stroke="midnightblue" points="1424.37,-229.994 1416.77,-237.375 1427.32,-236.345 1424.37,-229.994"/>
</g>
<!-- Node103&#45;&gt;Node100 -->
<g id="edge30" class="edge"><title>Node103&#45;&gt;Node100</title>
<path fill="none" stroke="midnightblue" d="M915.005,-259.624C928.158,-257.98 942.435,-256.196 955.999,-254.5"/>
<polygon fill="midnightblue" stroke="midnightblue" points="914.222,-256.195 904.733,-260.908 915.09,-263.141 914.222,-256.195"/>
</g>
<!-- Node105 -->
<g id="node26" class="node"><title>Node105</title>
<g id="a_node26"><a xlink:href="fof_8h.html#a7f10d50a8e07ce0bb67ffdfaf904d7c8" target="_top" xlink:title="fof_fof">
<polygon fill="white" stroke="black" points="1270,-123.5 1270,-142.5 1314,-142.5 1314,-123.5 1270,-123.5"/>
<text text-anchor="middle" x="1292" y="-130.5" font-family="Helvetica,sans-Serif" font-size="10.00">fof_fof</text>
</a>
</g>
</g>
<!-- Node104&#45;&gt;Node105 -->
<g id="edge32" class="edge"><title>Node104&#45;&gt;Node105</title>
<path fill="none" stroke="midnightblue" d="M772.428,-102.229C785.204,-99.4468 799.068,-96.7757 812,-95 997.812,-69.4854 1056,-35.8869 1234,-95 1251.83,-100.923 1269.37,-114.009 1280.18,-123.161"/>
<polygon fill="midnightblue" stroke="midnightblue" points="771.443,-98.8633 762.454,-104.47 772.978,-105.693 771.443,-98.8633"/>
</g>
<!-- Node107 -->
<g id="node28" class="node"><title>Node107</title>
<g id="a_node28"><a xlink:href="fof_8c.html#aa0d13cc94e97083dfd468ed33331eed7" target="_top" xlink:title="fof_periodic_wrap">
<polygon fill="white" stroke="black" points="816.5,-104.5 816.5,-123.5 909.5,-123.5 909.5,-104.5 816.5,-104.5"/>
<text text-anchor="middle" x="863" y="-111.5" font-family="Helvetica,sans-Serif" font-size="10.00">fof_periodic_wrap</text>
</a>
</g>
</g>
<!-- Node104&#45;&gt;Node107 -->
<g id="edge36" class="edge"><title>Node104&#45;&gt;Node107</title>
<path fill="none" stroke="midnightblue" d="M780.158,-114C792.085,-114 804.574,-114 816.101,-114"/>
<polygon fill="midnightblue" stroke="midnightblue" points="779.859,-110.5 769.859,-114 779.859,-117.5 779.859,-110.5"/>
</g>
<!-- Node105&#45;&gt;Node85 -->
<g id="edge33" class="edge"><title>Node105&#45;&gt;Node85</title>
<path fill="none" stroke="midnightblue" d="M1323.55,-144.627C1332.01,-147.449 1341.27,-150.175 1350,-152 1419.87,-166.601 1505.15,-169.982 1541.81,-170.765"/>
<polygon fill="midnightblue" stroke="midnightblue" points="1324.66,-141.307 1314.06,-141.319 1322.35,-147.917 1324.66,-141.307"/>
</g>
<!-- Node106 -->
<g id="node27" class="node"><title>Node106</title>
<g id="a_node27"><a xlink:href="proto_8h.html#a312b6a02f7cde171412989ea5f9be48f" target="_top" xlink:title="write_checkpoint">
<polygon fill="white" stroke="black" points="1350,-123.5 1350,-142.5 1440,-142.5 1440,-123.5 1350,-123.5"/>
<text text-anchor="middle" x="1395" y="-130.5" font-family="Helvetica,sans-Serif" font-size="10.00">write_checkpoint</text>
</a>
</g>
</g>
<!-- Node105&#45;&gt;Node106 -->
<g id="edge34" class="edge"><title>Node105&#45;&gt;Node106</title>
<path fill="none" stroke="midnightblue" d="M1324.44,-133C1332.46,-133 1341.22,-133 1349.75,-133"/>
<polygon fill="midnightblue" stroke="midnightblue" points="1324.42,-129.5 1314.42,-133 1324.42,-136.5 1324.42,-129.5"/>
</g>
<!-- Node106&#45;&gt;Node84 -->
<g id="edge35" class="edge"><title>Node106&#45;&gt;Node84</title>
<path fill="none" stroke="midnightblue" d="M1450.25,-133C1459.78,-133 1468.9,-133 1475.99,-133"/>
<polygon fill="midnightblue" stroke="midnightblue" points="1450.25,-129.5 1440.25,-133 1450.25,-136.5 1450.25,-129.5"/>
</g>
<!-- Node108 -->
<g id="node29" class="node"><title>Node108</title>
<g id="a_node29"><a xlink:href="fof_8c.html#a36336d505e8a4fb8e8fdaf9a796e40d4" target="_top" xlink:title="fof_finish_group_properties">
<polygon fill="white" stroke="black" points="950,-104.5 950,-123.5 1084,-123.5 1084,-104.5 950,-104.5"/>
<text text-anchor="middle" x="1017" y="-111.5" font-family="Helvetica,sans-Serif" font-size="10.00">fof_finish_group_properties</text>
</a>
</g>
</g>
<!-- Node107&#45;&gt;Node108 -->
<g id="edge37" class="edge"><title>Node107&#45;&gt;Node108</title>
<path fill="none" stroke="midnightblue" d="M919.651,-107.47C929.491,-107.252 939.822,-107.196 949.916,-107.301"/>
<polygon fill="midnightblue" stroke="midnightblue" points="919.502,-103.973 909.605,-107.755 919.7,-110.97 919.502,-103.973"/>
</g>
<!-- Node108&#45;&gt;Node107 -->
<g id="edge41" class="edge"><title>Node108&#45;&gt;Node107</title>
<path fill="none" stroke="midnightblue" d="M939.663,-120.75C929.385,-120.746 919.115,-120.578 909.605,-120.245"/>
<polygon fill="midnightblue" stroke="midnightblue" points="939.934,-124.249 949.916,-120.699 939.899,-117.249 939.934,-124.249"/>
</g>
<!-- Node109 -->
<g id="node30" class="node"><title>Node109</title>
<g id="a_node30"><a xlink:href="fof_8c.html#ae4b5e05b1f0225637629759a9e2ba72e" target="_top" xlink:title="fof_compile_catalogue">
<polygon fill="white" stroke="black" points="1120,-104.5 1120,-123.5 1234,-123.5 1234,-104.5 1120,-104.5"/>
<text text-anchor="middle" x="1177" y="-111.5" font-family="Helvetica,sans-Serif" font-size="10.00">fof_compile_catalogue</text>
</a>
</g>
</g>
<!-- Node108&#45;&gt;Node109 -->
<g id="edge38" class="edge"><title>Node108&#45;&gt;Node109</title>
<path fill="none" stroke="midnightblue" d="M1094.15,-114C1102.76,-114 1111.41,-114 1119.7,-114"/>
<polygon fill="midnightblue" stroke="midnightblue" points="1094.09,-110.5 1084.09,-114 1094.09,-117.5 1094.09,-110.5"/>
</g>
<!-- Node109&#45;&gt;Node105 -->
<g id="edge39" class="edge"><title>Node109&#45;&gt;Node105</title>
<path fill="none" stroke="midnightblue" d="M1244.28,-125.144C1253.51,-126.696 1262.38,-128.188 1269.86,-129.446"/>
<polygon fill="midnightblue" stroke="midnightblue" points="1244.61,-121.651 1234.17,-123.444 1243.45,-128.554 1244.61,-121.651"/>
</g>
<!-- Node109&#45;&gt;Node107 -->
<g id="edge40" class="edge"><title>Node109&#45;&gt;Node107</title>
<path fill="none" stroke="midnightblue" d="M1128.6,-102.288C1114.35,-99.2912 1098.62,-96.4942 1084,-95 1024.75,-88.946 1009.2,-88.5379 950,-95 932.976,-96.8582 914.387,-100.727 898.861,-104.492"/>
<polygon fill="midnightblue" stroke="midnightblue" points="1128.15,-105.774 1138.67,-104.491 1129.65,-98.9355 1128.15,-105.774"/>
</g>
<!-- Node110&#45;&gt;Node105 -->
<g id="edge43" class="edge"><title>Node110&#45;&gt;Node105</title>
<path fill="none" stroke="midnightblue" d="M786.408,-149.939C911.556,-145.738 1190.96,-136.358 1269.88,-133.709"/>
<polygon fill="midnightblue" stroke="midnightblue" points="786.104,-146.447 776.227,-150.28 786.339,-153.443 786.104,-146.447"/>
</g>
<!-- Node110&#45;&gt;Node107 -->
<g id="edge44" class="edge"><title>Node110&#45;&gt;Node107</title>
<path fill="none" stroke="midnightblue" d="M769.411,-139.682C788.234,-134.461 809.838,-128.468 827.44,-123.586"/>
<polygon fill="midnightblue" stroke="midnightblue" points="768.272,-136.365 759.571,-142.411 770.143,-143.111 768.272,-136.365"/>
</g>
<!-- Node111&#45;&gt;Node93 -->
<g id="edge46" class="edge"><title>Node111&#45;&gt;Node93</title>
<path fill="none" stroke="midnightblue" d="M769.226,-278.267C791.649,-284.486 818.056,-291.811 836.952,-297.052"/>
<polygon fill="midnightblue" stroke="midnightblue" points="770.143,-274.889 759.571,-275.589 768.272,-281.635 770.143,-274.889"/>
</g>
<!-- Node112&#45;&gt;Node92 -->
<g id="edge48" class="edge"><title>Node112&#45;&gt;Node92</title>
<path fill="none" stroke="midnightblue" d="M907.378,-195.422C923.194,-197.399 941.336,-199.667 958.207,-201.776"/>
<polygon fill="midnightblue" stroke="midnightblue" points="907.714,-191.937 897.357,-194.17 906.846,-198.883 907.714,-191.937"/>
</g>
</g>
</svg>
