<?xml version="1.0" encoding="UTF-8" standalone="no"?>
<!DOCTYPE svg PUBLIC "-//W3C//DTD SVG 1.1//EN"
 "http://www.w3.org/Graphics/SVG/1.1/DTD/svg11.dtd">
<!-- Generated by graphviz version 2.38.0 (20140413.2041)
 -->
<!-- Title: timestep.c Pages: 1 -->
<svg width="551pt" height="655pt"
 viewBox="0.00 0.00 551.00 655.00" xmlns="http://www.w3.org/2000/svg" xmlns:xlink="http://www.w3.org/1999/xlink">
<g id="graph0" class="graph" transform="scale(1 1) rotate(0) translate(4 651)">
<title>timestep.c</title>
<polygon fill="white" stroke="none" points="-4,4 -4,-651 547,-651 547,4 -4,4"/>
<!-- Node0 -->
<g id="node1" class="node"><title>Node0</title>
<polygon fill="#bfbfbf" stroke="black" points="0,-323.5 0,-342.5 62,-342.5 62,-323.5 0,-323.5"/>
<text text-anchor="middle" x="31" y="-330.5" font-family="Helvetica,sans-Serif" font-size="10.00">timestep.c</text>
</g>
<!-- Node1 -->
<g id="node2" class="node"><title>Node1</title>
<polygon fill="white" stroke="#bfbfbf" points="236,-266.5 236,-285.5 277,-285.5 277,-266.5 236,-266.5"/>
<text text-anchor="middle" x="256.5" y="-273.5" font-family="Helvetica,sans-Serif" font-size="10.00">mpi.h</text>
</g>
<!-- Node0&#45;&gt;Node1 -->
<g id="edge1" class="edge"><title>Node0&#45;&gt;Node1</title>
<path fill="none" stroke="midnightblue" d="M44.9538,-342.511C72.1089,-361.184 136.186,-398.523 181,-371 211.148,-352.484 193.109,-326.096 217,-300 220.075,-296.641 223.724,-293.576 227.532,-290.842"/>
<polygon fill="midnightblue" stroke="midnightblue" points="229.455,-293.766 235.959,-285.403 225.659,-287.885 229.455,-293.766"/>
</g>
<!-- Node2 -->
<g id="node3" class="node"><title>Node2</title>
<polygon fill="white" stroke="#bfbfbf" points="233.5,-627.5 233.5,-646.5 279.5,-646.5 279.5,-627.5 233.5,-627.5"/>
<text text-anchor="middle" x="256.5" y="-634.5" font-family="Helvetica,sans-Serif" font-size="10.00">stdio.h</text>
</g>
<!-- Node0&#45;&gt;Node2 -->
<g id="edge2" class="edge"><title>Node0&#45;&gt;Node2</title>
<path fill="none" stroke="midnightblue" d="M32.7518,-342.621C36.5188,-388.192 54.8959,-581.724 98,-620 132.012,-650.203 187.816,-648.476 223.057,-643.469"/>
<polygon fill="midnightblue" stroke="midnightblue" points="223.961,-646.87 233.287,-641.842 222.862,-639.957 223.961,-646.87"/>
</g>
<!-- Node3 -->
<g id="node4" class="node"><title>Node3</title>
<polygon fill="white" stroke="#bfbfbf" points="115.5,-570.5 115.5,-589.5 163.5,-589.5 163.5,-570.5 115.5,-570.5"/>
<text text-anchor="middle" x="139.5" y="-577.5" font-family="Helvetica,sans-Serif" font-size="10.00">stdlib.h</text>
</g>
<!-- Node0&#45;&gt;Node3 -->
<g id="edge3" class="edge"><title>Node0&#45;&gt;Node3</title>
<path fill="none" stroke="midnightblue" d="M32.0846,-342.528C32.8808,-376.461 39.9181,-493.009 98,-561 100.341,-563.74 103.164,-566.112 106.218,-568.157"/>
<polygon fill="midnightblue" stroke="midnightblue" points="104.773,-571.357 115.224,-573.098 108.14,-565.22 104.773,-571.357"/>
</g>
<!-- Node4 -->
<g id="node5" class="node"><title>Node4</title>
<polygon fill="white" stroke="#bfbfbf" points="115,-532.5 115,-551.5 164,-551.5 164,-532.5 115,-532.5"/>
<text text-anchor="middle" x="139.5" y="-539.5" font-family="Helvetica,sans-Serif" font-size="10.00">string.h</text>
</g>
<!-- Node0&#45;&gt;Node4 -->
<g id="edge4" class="edge"><title>Node0&#45;&gt;Node4</title>
<path fill="none" stroke="midnightblue" d="M32.7473,-342.603C35.5868,-372.902 48.22,-467.736 98,-523 100.359,-525.618 103.153,-527.906 106.156,-529.897"/>
<polygon fill="midnightblue" stroke="midnightblue" points="104.528,-532.996 114.977,-534.753 107.904,-526.864 104.528,-532.996"/>
</g>
<!-- Node5 -->
<g id="node6" class="node"><title>Node5</title>
<polygon fill="white" stroke="#bfbfbf" points="116,-494.5 116,-513.5 163,-513.5 163,-494.5 116,-494.5"/>
<text text-anchor="middle" x="139.5" y="-501.5" font-family="Helvetica,sans-Serif" font-size="10.00">math.h</text>
</g>
<!-- Node0&#45;&gt;Node5 -->
<g id="edge5" class="edge"><title>Node0&#45;&gt;Node5</title>
<path fill="none" stroke="midnightblue" d="M34.1769,-342.713C40.2696,-368.023 59.6154,-437.015 98,-480 101.021,-483.383 104.636,-486.428 108.445,-489.121"/>
<polygon fill="midnightblue" stroke="midnightblue" points="106.608,-492.1 116.939,-494.452 110.329,-486.172 106.608,-492.1"/>
</g>
<!-- Node6 -->
<g id="node7" class="node"><title>Node6</title>
<g id="a_node7"><a xlink:href="allvars_8h.html" target="_top" xlink:title="declares global variables. ">
<polygon fill="white" stroke="black" points="113,-418.5 113,-437.5 166,-437.5 166,-418.5 113,-418.5"/>
<text text-anchor="middle" x="139.5" y="-425.5" font-family="Helvetica,sans-Serif" font-size="10.00">allvars.h</text>
</a>
</g>
</g>
<!-- Node0&#45;&gt;Node6 -->
<g id="edge6" class="edge"><title>Node0&#45;&gt;Node6</title>
<path fill="none" stroke="midnightblue" d="M39.3782,-342.549C50.8547,-357.002 74.1527,-384.778 98,-404 101.929,-407.167 106.319,-410.203 110.72,-412.986"/>
<polygon fill="midnightblue" stroke="midnightblue" points="109.241,-416.18 119.621,-418.306 112.832,-410.172 109.241,-416.18"/>
</g>
<!-- Node9 -->
<g id="node10" class="node"><title>Node9</title>
<g id="a_node10"><a xlink:href="cosmology_8h.html" target="_top" xlink:title="cosmology.h">
<polygon fill="white" stroke="black" points="220.5,-570.5 220.5,-589.5 292.5,-589.5 292.5,-570.5 220.5,-570.5"/>
<text text-anchor="middle" x="256.5" y="-577.5" font-family="Helvetica,sans-Serif" font-size="10.00">cosmology.h</text>
</a>
</g>
</g>
<!-- Node0&#45;&gt;Node9 -->
<g id="edge26" class="edge"><title>Node0&#45;&gt;Node9</title>
<path fill="none" stroke="midnightblue" d="M32.8411,-342.596C36.8901,-386.336 55.9314,-566.094 98,-599 135.515,-628.344 194.215,-609.374 228.361,-593.973"/>
<polygon fill="midnightblue" stroke="midnightblue" points="230.157,-596.996 237.711,-589.566 227.173,-590.664 230.157,-596.996"/>
</g>
<!-- Node17 -->
<g id="node18" class="node"><title>Node17</title>
<g id="a_node18"><a xlink:href="domain_8h.html" target="_top" xlink:title="domain.h">
<polygon fill="white" stroke="black" points="228.5,-532.5 228.5,-551.5 284.5,-551.5 284.5,-532.5 228.5,-532.5"/>
<text text-anchor="middle" x="256.5" y="-539.5" font-family="Helvetica,sans-Serif" font-size="10.00">domain.h</text>
</a>
</g>
</g>
<!-- Node0&#45;&gt;Node17 -->
<g id="edge19" class="edge"><title>Node0&#45;&gt;Node17</title>
<path fill="none" stroke="midnightblue" d="M35.2338,-342.563C42.9082,-363.961 64.1519,-416.238 98,-447 128.024,-474.287 148.001,-461.398 181,-485 199.922,-498.534 198.276,-509.192 217,-523 219.1,-524.548 221.345,-526.029 223.656,-527.43"/>
<polygon fill="midnightblue" stroke="midnightblue" points="222.286,-530.671 232.734,-532.425 225.66,-524.538 222.286,-530.671"/>
</g>
<!-- Node19 -->
<g id="node20" class="node"><title>Node19</title>
<g id="a_node20"><a xlink:href="openmpsort_8h.html" target="_top" xlink:title="openmpsort.h">
<polygon fill="white" stroke="black" points="101.5,-342.5 101.5,-361.5 177.5,-361.5 177.5,-342.5 101.5,-342.5"/>
<text text-anchor="middle" x="139.5" y="-349.5" font-family="Helvetica,sans-Serif" font-size="10.00">openmpsort.h</text>
</a>
</g>
</g>
<!-- Node0&#45;&gt;Node19 -->
<g id="edge23" class="edge"><title>Node0&#45;&gt;Node19</title>
<path fill="none" stroke="midnightblue" d="M62.2338,-338.394C71.2708,-340.006 81.403,-341.814 91.2573,-343.572"/>
<polygon fill="midnightblue" stroke="midnightblue" points="90.909,-347.065 101.368,-345.376 92.1385,-340.174 90.909,-347.065"/>
</g>
<!-- Node20 -->
<g id="node21" class="node"><title>Node20</title>
<g id="a_node21"><a xlink:href="proto_8h.html" target="_top" xlink:title="proto.h">
<polygon fill="white" stroke="black" points="116,-304.5 116,-323.5 163,-323.5 163,-304.5 116,-304.5"/>
<text text-anchor="middle" x="139.5" y="-311.5" font-family="Helvetica,sans-Serif" font-size="10.00">proto.h</text>
</a>
</g>
</g>
<!-- Node0&#45;&gt;Node20 -->
<g id="edge24" class="edge"><title>Node0&#45;&gt;Node20</title>
<path fill="none" stroke="midnightblue" d="M62.2338,-327.606C75.8571,-325.176 91.9692,-322.301 105.866,-319.822"/>
<polygon fill="midnightblue" stroke="midnightblue" points="106.753,-323.219 115.983,-318.017 105.524,-316.328 106.753,-323.219"/>
</g>
<!-- Node21 -->
<g id="node22" class="node"><title>Node21</title>
<g id="a_node22"><a xlink:href="timefac_8h.html" target="_top" xlink:title="timefac.h">
<polygon fill="white" stroke="black" points="111,-266.5 111,-285.5 168,-285.5 168,-266.5 111,-266.5"/>
<text text-anchor="middle" x="139.5" y="-273.5" font-family="Helvetica,sans-Serif" font-size="10.00">timefac.h</text>
</a>
</g>
</g>
<!-- Node0&#45;&gt;Node21 -->
<g id="edge25" class="edge"><title>Node0&#45;&gt;Node21</title>
<path fill="none" stroke="midnightblue" d="M47.7961,-323.406C61.0384,-315.485 80.5305,-304.107 98,-295 101.293,-293.283 104.768,-291.545 108.244,-289.854"/>
<polygon fill="midnightblue" stroke="midnightblue" points="109.794,-292.992 117.316,-285.53 106.783,-286.673 109.794,-292.992"/>
</g>
<!-- Node22 -->
<g id="node23" class="node"><title>Node22</title>
<g id="a_node23"><a xlink:href="cooling_8h.html" target="_top" xlink:title="cooling.h">
<polygon fill="white" stroke="black" points="111.5,-228.5 111.5,-247.5 167.5,-247.5 167.5,-228.5 111.5,-228.5"/>
<text text-anchor="middle" x="139.5" y="-235.5" font-family="Helvetica,sans-Serif" font-size="10.00">cooling.h</text>
</a>
</g>
</g>
<!-- Node0&#45;&gt;Node22 -->
<g id="edge27" class="edge"><title>Node0&#45;&gt;Node22</title>
<path fill="none" stroke="midnightblue" d="M38.2889,-323.456C48.9778,-307.838 72.0686,-276.598 98,-257 100.06,-255.443 102.268,-253.97 104.552,-252.585"/>
<polygon fill="midnightblue" stroke="midnightblue" points="106.451,-255.536 113.573,-247.692 103.114,-249.383 106.451,-255.536"/>
</g>
<!-- Node23 -->
<g id="node24" class="node"><title>Node23</title>
<g id="a_node24"><a xlink:href="mymalloc_8h.html" target="_top" xlink:title="mymalloc.h">
<polygon fill="white" stroke="black" points="106,-76.5 106,-95.5 173,-95.5 173,-76.5 106,-76.5"/>
<text text-anchor="middle" x="139.5" y="-83.5" font-family="Helvetica,sans-Serif" font-size="10.00">mymalloc.h</text>
</a>
</g>
</g>
<!-- Node0&#45;&gt;Node23 -->
<g id="edge28" class="edge"><title>Node0&#45;&gt;Node23</title>
<path fill="none" stroke="midnightblue" d="M32.4051,-323.407C34.2656,-290.257 44.406,-178.8 98,-110 100.527,-106.756 103.625,-103.86 106.972,-101.301"/>
<polygon fill="midnightblue" stroke="midnightblue" points="109.181,-104.038 115.621,-95.6257 105.34,-98.1853 109.181,-104.038"/>
</g>
<!-- Node25 -->
<g id="node26" class="node"><title>Node25</title>
<g id="a_node26"><a xlink:href="endrun_8h.html" target="_top" xlink:title="endrun.h">
<polygon fill="white" stroke="black" points="112.5,-152.5 112.5,-171.5 166.5,-171.5 166.5,-152.5 112.5,-152.5"/>
<text text-anchor="middle" x="139.5" y="-159.5" font-family="Helvetica,sans-Serif" font-size="10.00">endrun.h</text>
</a>
</g>
</g>
<!-- Node0&#45;&gt;Node25 -->
<g id="edge30" class="edge"><title>Node0&#45;&gt;Node25</title>
<path fill="none" stroke="midnightblue" d="M33.6933,-323.5C38.794,-297.44 56.3049,-223.922 98,-181 99.6268,-179.325 101.43,-177.782 103.346,-176.362"/>
<polygon fill="midnightblue" stroke="midnightblue" points="105.564,-179.108 112.268,-170.904 101.911,-173.137 105.564,-179.108"/>
</g>
<!-- Node26 -->
<g id="node27" class="node"><title>Node26</title>
<g id="a_node27"><a xlink:href="slotsmanager_8h.html" target="_top" xlink:title="slotsmanager.h">
<polygon fill="white" stroke="black" points="98,-190.5 98,-209.5 181,-209.5 181,-190.5 98,-190.5"/>
<text text-anchor="middle" x="139.5" y="-197.5" font-family="Helvetica,sans-Serif" font-size="10.00">slotsmanager.h</text>
</a>
</g>
</g>
<!-- Node0&#45;&gt;Node26 -->
<g id="edge31" class="edge"><title>Node0&#45;&gt;Node26</title>
<path fill="none" stroke="midnightblue" d="M35.2544,-323.46C42.971,-302.107 64.2954,-249.919 98,-219 99.5023,-217.622 101.122,-216.326 102.82,-215.112"/>
<polygon fill="midnightblue" stroke="midnightblue" points="105.029,-217.866 111.773,-209.695 101.405,-211.877 105.029,-217.866"/>
</g>
<!-- Node28 -->
<g id="node29" class="node"><title>Node28</title>
<g id="a_node29"><a xlink:href="partmanager_8h.html" target="_top" xlink:title="partmanager.h">
<polygon fill="white" stroke="black" points="217,-152.5 217,-171.5 296,-171.5 296,-152.5 217,-152.5"/>
<text text-anchor="middle" x="256.5" y="-159.5" font-family="Helvetica,sans-Serif" font-size="10.00">partmanager.h</text>
</a>
</g>
</g>
<!-- Node0&#45;&gt;Node28 -->
<g id="edge39" class="edge"><title>Node0&#45;&gt;Node28</title>
<path fill="none" stroke="midnightblue" d="M31.8286,-323.289C31.8508,-290.952 36.8194,-186.514 98,-143 136.404,-115.685 193.833,-133.373 227.698,-148.107"/>
<polygon fill="midnightblue" stroke="midnightblue" points="226.445,-151.382 236.997,-152.338 229.344,-145.011 226.445,-151.382"/>
</g>
<!-- Node30 -->
<g id="node31" class="node"><title>Node30</title>
<g id="a_node31"><a xlink:href="system_8h.html" target="_top" xlink:title="system.h">
<polygon fill="white" stroke="black" points="111,-38.5 111,-57.5 168,-57.5 168,-38.5 111,-38.5"/>
<text text-anchor="middle" x="139.5" y="-45.5" font-family="Helvetica,sans-Serif" font-size="10.00">system.h</text>
</a>
</g>
</g>
<!-- Node0&#45;&gt;Node30 -->
<g id="edge40" class="edge"><title>Node0&#45;&gt;Node30</title>
<path fill="none" stroke="midnightblue" d="M31.6066,-323.497C30.5701,-286.197 31.5564,-147.887 98,-67 99.2941,-65.4246 100.749,-63.9726 102.317,-62.6351"/>
<polygon fill="midnightblue" stroke="midnightblue" points="104.552,-65.3497 110.893,-56.8621 100.643,-59.5427 104.552,-65.3497"/>
</g>
<!-- Node31 -->
<g id="node32" class="node"><title>Node31</title>
<g id="a_node32"><a xlink:href="timestep_8h.html" target="_top" xlink:title="timestep.h">
<polygon fill="white" stroke="black" points="108.5,-0.5 108.5,-19.5 170.5,-19.5 170.5,-0.5 108.5,-0.5"/>
<text text-anchor="middle" x="139.5" y="-7.5" font-family="Helvetica,sans-Serif" font-size="10.00">timestep.h</text>
</a>
</g>
</g>
<!-- Node0&#45;&gt;Node31 -->
<g id="edge41" class="edge"><title>Node0&#45;&gt;Node31</title>
<path fill="none" stroke="midnightblue" d="M32.9395,-323.42C37.6469,-277.11 59.9606,-76.7227 98,-29 98.9379,-27.8233 99.9659,-26.7159 101.065,-25.674"/>
<polygon fill="midnightblue" stroke="midnightblue" points="103.179,-28.4636 109.147,-19.7093 99.0224,-22.8314 103.179,-28.4636"/>
</g>
<!-- Node6&#45;&gt;Node1 -->
<g id="edge7" class="edge"><title>Node6&#45;&gt;Node1</title>
<path fill="none" stroke="midnightblue" d="M162.793,-418.481C169.391,-414.769 176.142,-409.952 181,-404 211.929,-366.107 186.499,-338.239 217,-300 219.896,-296.369 223.501,-293.137 227.334,-290.314"/>
<polygon fill="midnightblue" stroke="midnightblue" points="229.397,-293.148 235.904,-284.788 225.603,-287.265 229.397,-293.148"/>
</g>
<!-- Node6&#45;&gt;Node2 -->
<g id="edge8" class="edge"><title>Node6&#45;&gt;Node2</title>
<path fill="none" stroke="midnightblue" d="M148.995,-437.888C158.003,-448.797 172.129,-467.177 181,-485 204.675,-532.567 189.278,-553.673 217,-599 221.755,-606.774 228.436,-614.114 234.9,-620.232"/>
<polygon fill="midnightblue" stroke="midnightblue" points="233.013,-623.238 242.811,-627.269 237.666,-618.008 233.013,-623.238"/>
</g>
<!-- Node7 -->
<g id="node8" class="node"><title>Node7</title>
<polygon fill="white" stroke="#bfbfbf" points="220.5,-418.5 220.5,-437.5 292.5,-437.5 292.5,-418.5 220.5,-418.5"/>
<text text-anchor="middle" x="256.5" y="-425.5" font-family="Helvetica,sans-Serif" font-size="10.00">gsl/gsl_rng.h</text>
</g>
<!-- Node6&#45;&gt;Node7 -->
<g id="edge9" class="edge"><title>Node6&#45;&gt;Node7</title>
<path fill="none" stroke="midnightblue" d="M166.022,-428C179.033,-428 195.247,-428 210.285,-428"/>
<polygon fill="midnightblue" stroke="midnightblue" points="210.455,-431.5 220.454,-428 210.454,-424.5 210.455,-431.5"/>
</g>
<!-- Node8 -->
<g id="node9" class="node"><title>Node8</title>
<polygon fill="white" stroke="#bfbfbf" points="231.5,-380.5 231.5,-399.5 281.5,-399.5 281.5,-380.5 231.5,-380.5"/>
<text text-anchor="middle" x="256.5" y="-387.5" font-family="Helvetica,sans-Serif" font-size="10.00">signal.h</text>
</g>
<!-- Node6&#45;&gt;Node8 -->
<g id="edge10" class="edge"><title>Node6&#45;&gt;Node8</title>
<path fill="none" stroke="midnightblue" d="M166.022,-419.567C182.285,-414.193 203.552,-407.166 221.271,-401.31"/>
<polygon fill="midnightblue" stroke="midnightblue" points="222.833,-404.48 231.23,-398.02 220.637,-397.834 222.833,-404.48"/>
</g>
<!-- Node6&#45;&gt;Node9 -->
<g id="edge11" class="edge"><title>Node6&#45;&gt;Node9</title>
<path fill="none" stroke="midnightblue" d="M148.22,-437.735C156.807,-448.808 170.812,-467.614 181,-485 199.897,-517.247 190.785,-534.36 217,-561 218.372,-562.395 219.868,-563.703 221.447,-564.928"/>
<polygon fill="midnightblue" stroke="midnightblue" points="219.561,-567.876 229.857,-570.374 223.366,-562.001 219.561,-567.876"/>
</g>
<!-- Node12 -->
<g id="node13" class="node"><title>Node12</title>
<g id="a_node13"><a xlink:href="walltime_8h.html" target="_top" xlink:title="walltime.h">
<polygon fill="white" stroke="black" points="226,-342.5 226,-361.5 287,-361.5 287,-342.5 226,-342.5"/>
<text text-anchor="middle" x="256.5" y="-349.5" font-family="Helvetica,sans-Serif" font-size="10.00">walltime.h</text>
</a>
</g>
</g>
<!-- Node6&#45;&gt;Node12 -->
<g id="edge14" class="edge"><title>Node6&#45;&gt;Node12</title>
<path fill="none" stroke="midnightblue" d="M158.35,-418.485C165.596,-414.354 173.912,-409.26 181,-404 198.43,-391.065 199.088,-383.259 217,-371 219.364,-369.382 221.887,-367.821 224.466,-366.337"/>
<polygon fill="midnightblue" stroke="midnightblue" points="226.137,-369.413 233.31,-361.616 222.84,-363.238 226.137,-369.413"/>
</g>
<!-- Node13 -->
<g id="node14" class="node"><title>Node13</title>
<polygon fill="white" stroke="#bfbfbf" points="230.5,-494.5 230.5,-513.5 282.5,-513.5 282.5,-494.5 230.5,-494.5"/>
<text text-anchor="middle" x="256.5" y="-501.5" font-family="Helvetica,sans-Serif" font-size="10.00">assert.h</text>
</g>
<!-- Node6&#45;&gt;Node13 -->
<g id="edge15" class="edge"><title>Node6&#45;&gt;Node13</title>
<path fill="none" stroke="midnightblue" d="M158.35,-437.515C165.596,-441.646 173.912,-446.74 181,-452 198.43,-464.935 199.088,-472.741 217,-485 219.364,-486.618 221.887,-488.179 224.466,-489.663"/>
<polygon fill="midnightblue" stroke="midnightblue" points="222.84,-492.762 233.31,-494.384 226.137,-486.587 222.84,-492.762"/>
</g>
<!-- Node14 -->
<g id="node15" class="node"><title>Node14</title>
<g id="a_node15"><a xlink:href="physconst_8h.html" target="_top" xlink:title="physconst.h">
<polygon fill="white" stroke="black" points="221.5,-456.5 221.5,-475.5 291.5,-475.5 291.5,-456.5 221.5,-456.5"/>
<text text-anchor="middle" x="256.5" y="-463.5" font-family="Helvetica,sans-Serif" font-size="10.00">physconst.h</text>
</a>
</g>
</g>
<!-- Node6&#45;&gt;Node14 -->
<g id="edge16" class="edge"><title>Node6&#45;&gt;Node14</title>
<path fill="none" stroke="midnightblue" d="M166.022,-436.433C180.957,-441.369 200.113,-447.698 216.866,-453.234"/>
<polygon fill="midnightblue" stroke="midnightblue" points="215.808,-456.571 226.402,-456.385 218.005,-449.924 215.808,-456.571"/>
</g>
<!-- Node15 -->
<g id="node16" class="node"><title>Node15</title>
<g id="a_node16"><a xlink:href="types_8h.html" target="_top" xlink:title="types.h">
<polygon fill="white" stroke="black" points="369,-255.5 369,-274.5 418,-274.5 418,-255.5 369,-255.5"/>
<text text-anchor="middle" x="393.5" y="-262.5" font-family="Helvetica,sans-Serif" font-size="10.00">types.h</text>
</a>
</g>
</g>
<!-- Node6&#45;&gt;Node15 -->
<g id="edge17" class="edge"><title>Node6&#45;&gt;Node15</title>
<path fill="none" stroke="midnightblue" d="M152.255,-418.385C160.775,-411.094 172.282,-400.557 181,-390 200.079,-366.896 193.864,-352.039 217,-333 239.354,-314.604 314.846,-289.095 359.204,-275.134"/>
<polygon fill="midnightblue" stroke="midnightblue" points="360.459,-278.409 368.963,-272.09 358.375,-271.726 360.459,-278.409"/>
</g>
<!-- Node10 -->
<g id="node11" class="node"><title>Node10</title>
<polygon fill="white" stroke="#bfbfbf" points="491,-455.5 491,-474.5 543,-474.5 543,-455.5 491,-455.5"/>
<text text-anchor="middle" x="517" y="-462.5" font-family="Helvetica,sans-Serif" font-size="10.00">stddef.h</text>
</g>
<!-- Node9&#45;&gt;Node10 -->
<g id="edge12" class="edge"><title>Node9&#45;&gt;Node10</title>
<path fill="none" stroke="midnightblue" d="M292.862,-585.417C334.787,-589.964 405.234,-591.534 455,-561 483.624,-543.438 501.138,-506.842 509.67,-484.253"/>
<polygon fill="midnightblue" stroke="midnightblue" points="513.012,-485.3 513.057,-474.705 506.415,-482.96 513.012,-485.3"/>
</g>
<!-- Node11 -->
<g id="node12" class="node"><title>Node11</title>
<polygon fill="white" stroke="#bfbfbf" points="332,-521 332,-551 455,-551 455,-521 332,-521"/>
<text text-anchor="start" x="340" y="-539" font-family="Helvetica,sans-Serif" font-size="10.00">kspace&#45;neutrinos/omega</text>
<text text-anchor="middle" x="393.5" y="-528" font-family="Helvetica,sans-Serif" font-size="10.00">_nu_single.h</text>
</g>
<!-- Node9&#45;&gt;Node11 -->
<g id="edge13" class="edge"><title>Node9&#45;&gt;Node11</title>
<path fill="none" stroke="midnightblue" d="M286.793,-570.453C301.314,-565.72 319.352,-559.841 336.393,-554.287"/>
<polygon fill="midnightblue" stroke="midnightblue" points="337.854,-557.492 346.277,-551.065 335.684,-550.837 337.854,-557.492"/>
</g>
<!-- Node16 -->
<g id="node17" class="node"><title>Node16</title>
<polygon fill="white" stroke="#bfbfbf" points="492.5,-309.5 492.5,-328.5 541.5,-328.5 541.5,-309.5 492.5,-309.5"/>
<text text-anchor="middle" x="517" y="-316.5" font-family="Helvetica,sans-Serif" font-size="10.00">stdint.h</text>
</g>
<!-- Node15&#45;&gt;Node16 -->
<g id="edge18" class="edge"><title>Node15&#45;&gt;Node16</title>
<path fill="none" stroke="midnightblue" d="M415.942,-274.53C435.083,-283.037 463.348,-295.599 484.959,-305.204"/>
<polygon fill="midnightblue" stroke="midnightblue" points="483.804,-308.521 494.364,-309.384 486.647,-302.124 483.804,-308.521"/>
</g>
<!-- Node18 -->
<g id="node19" class="node"><title>Node18</title>
<g id="a_node19"><a xlink:href="peano_8h.html" target="_top" xlink:title="peano.h">
<polygon fill="white" stroke="black" points="368,-455.5 368,-474.5 419,-474.5 419,-455.5 368,-455.5"/>
<text text-anchor="middle" x="393.5" y="-462.5" font-family="Helvetica,sans-Serif" font-size="10.00">peano.h</text>
</a>
</g>
</g>
<!-- Node17&#45;&gt;Node18 -->
<g id="edge20" class="edge"><title>Node17&#45;&gt;Node18</title>
<path fill="none" stroke="midnightblue" d="M277.644,-532.449C283.606,-529.518 290.112,-526.215 296,-523 321.325,-509.171 349.531,-492.005 368.875,-479.948"/>
<polygon fill="midnightblue" stroke="midnightblue" points="370.735,-482.913 377.351,-474.638 367.019,-476.981 370.735,-482.913"/>
</g>
<!-- Node18&#45;&gt;Node10 -->
<g id="edge21" class="edge"><title>Node18&#45;&gt;Node10</title>
<path fill="none" stroke="midnightblue" d="M419.087,-465C436.721,-465 460.745,-465 480.462,-465"/>
<polygon fill="midnightblue" stroke="midnightblue" points="480.613,-468.5 490.613,-465 480.613,-461.5 480.613,-468.5"/>
</g>
<!-- Node18&#45;&gt;Node16 -->
<g id="edge22" class="edge"><title>Node18&#45;&gt;Node16</title>
<path fill="none" stroke="midnightblue" d="M402.472,-455.421C422.547,-431.298 475.422,-367.761 501.305,-336.659"/>
<polygon fill="midnightblue" stroke="midnightblue" points="504.133,-338.732 507.839,-328.806 498.752,-334.254 504.133,-338.732"/>
</g>
<!-- Node24 -->
<g id="node25" class="node"><title>Node24</title>
<g id="a_node25"><a xlink:href="memory_8h.html" target="_top" xlink:title="memory.h">
<polygon fill="white" stroke="black" points="226.5,-76.5 226.5,-95.5 286.5,-95.5 286.5,-76.5 226.5,-76.5"/>
<text text-anchor="middle" x="256.5" y="-83.5" font-family="Helvetica,sans-Serif" font-size="10.00">memory.h</text>
</a>
</g>
</g>
<!-- Node23&#45;&gt;Node24 -->
<g id="edge29" class="edge"><title>Node23&#45;&gt;Node24</title>
<path fill="none" stroke="midnightblue" d="M173.147,-86C186.482,-86 202.025,-86 215.993,-86"/>
<polygon fill="midnightblue" stroke="midnightblue" points="216.304,-89.5001 226.304,-86 216.304,-82.5001 216.304,-89.5001"/>
</g>
<!-- Node26&#45;&gt;Node1 -->
<g id="edge32" class="edge"><title>Node26&#45;&gt;Node1</title>
<path fill="none" stroke="midnightblue" d="M164.287,-209.689C169.947,-212.389 175.838,-215.542 181,-219 199.032,-231.081 199.717,-238.87 217,-252 221.022,-255.055 225.444,-258.086 229.815,-260.912"/>
<polygon fill="midnightblue" stroke="midnightblue" points="228.229,-264.049 238.567,-266.37 231.933,-258.109 228.229,-264.049"/>
</g>
<!-- Node26&#45;&gt;Node15 -->
<g id="edge34" class="edge"><title>Node26&#45;&gt;Node15</title>
<path fill="none" stroke="midnightblue" d="M177.413,-209.521C226.321,-222.136 311.893,-244.208 359.014,-256.363"/>
<polygon fill="midnightblue" stroke="midnightblue" points="358.178,-259.762 368.736,-258.87 359.927,-252.984 358.178,-259.762"/>
</g>
<!-- Node27 -->
<g id="node28" class="node"><title>Node27</title>
<g id="a_node28"><a xlink:href="event_8h.html" target="_top" xlink:title="event.h">
<polygon fill="white" stroke="black" points="232,-190.5 232,-209.5 281,-209.5 281,-190.5 232,-190.5"/>
<text text-anchor="middle" x="256.5" y="-197.5" font-family="Helvetica,sans-Serif" font-size="10.00">event.h</text>
</a>
</g>
</g>
<!-- Node26&#45;&gt;Node27 -->
<g id="edge33" class="edge"><title>Node26&#45;&gt;Node27</title>
<path fill="none" stroke="midnightblue" d="M181.045,-200C194.281,-200 208.834,-200 221.535,-200"/>
<polygon fill="midnightblue" stroke="midnightblue" points="221.699,-203.5 231.699,-200 221.699,-196.5 221.699,-203.5"/>
</g>
<!-- Node26&#45;&gt;Node28 -->
<g id="edge35" class="edge"><title>Node26&#45;&gt;Node28</title>
<path fill="none" stroke="midnightblue" d="M169.519,-190.411C183.82,-185.686 201.265,-179.921 216.695,-174.823"/>
<polygon fill="midnightblue" stroke="midnightblue" points="218.093,-178.047 226.49,-171.586 215.897,-171.4 218.093,-178.047"/>
</g>
<!-- Node28&#45;&gt;Node15 -->
<g id="edge37" class="edge"><title>Node28&#45;&gt;Node15</title>
<path fill="none" stroke="midnightblue" d="M279.227,-171.507C284.851,-174.292 290.788,-177.53 296,-181 326.279,-201.157 357.309,-229.9 375.738,-247.995"/>
<polygon fill="midnightblue" stroke="midnightblue" points="373.49,-250.696 383.049,-255.266 378.427,-245.733 373.49,-250.696"/>
</g>
<!-- Node28&#45;&gt;Node18 -->
<g id="edge38" class="edge"><title>Node28&#45;&gt;Node18</title>
<path fill="none" stroke="midnightblue" d="M283.887,-171.525C288.375,-174.062 292.658,-177.189 296,-181 298.308,-183.631 364.84,-382.267 386.062,-445.734"/>
<polygon fill="midnightblue" stroke="midnightblue" points="382.779,-446.953 389.269,-455.328 389.418,-444.734 382.779,-446.953"/>
</g>
<!-- Node29 -->
<g id="node30" class="node"><title>Node29</title>
<polygon fill="white" stroke="#bfbfbf" points="365,-152.5 365,-171.5 422,-171.5 422,-152.5 365,-152.5"/>
<text text-anchor="middle" x="393.5" y="-159.5" font-family="Helvetica,sans-Serif" font-size="10.00">pthread.h</text>
</g>
<!-- Node28&#45;&gt;Node29 -->
<g id="edge36" class="edge"><title>Node28&#45;&gt;Node29</title>
<path fill="none" stroke="midnightblue" d="M296.186,-162C314.639,-162 336.628,-162 354.935,-162"/>
<polygon fill="midnightblue" stroke="midnightblue" points="354.956,-165.5 364.956,-162 354.956,-158.5 354.956,-165.5"/>
</g>
<!-- Node32 -->
<g id="node33" class="node"><title>Node32</title>
<g id="a_node33"><a xlink:href="timebinmgr_8h.html" target="_top" xlink:title="timebinmgr.h">
<polygon fill="white" stroke="black" points="220,-0.5 220,-19.5 293,-19.5 293,-0.5 220,-0.5"/>
<text text-anchor="middle" x="256.5" y="-7.5" font-family="Helvetica,sans-Serif" font-size="10.00">timebinmgr.h</text>
</a>
</g>
</g>
<!-- Node31&#45;&gt;Node32 -->
<g id="edge42" class="edge"><title>Node31&#45;&gt;Node32</title>
<path fill="none" stroke="midnightblue" d="M170.715,-10C182.582,-10 196.468,-10 209.527,-10"/>
<polygon fill="midnightblue" stroke="midnightblue" points="209.768,-13.5001 219.768,-10 209.768,-6.5001 209.768,-13.5001"/>
</g>
</g>
</svg>
