<?xml version="1.0" encoding="UTF-8" standalone="no"?>
<!DOCTYPE svg PUBLIC "-//W3C//DTD SVG 1.1//EN"
 "http://www.w3.org/Graphics/SVG/1.1/DTD/svg11.dtd">
<!-- Generated by graphviz version 2.38.0 (20140413.2041)
 -->
<!-- Title: treewalk.h Pages: 1 -->
<svg width="569pt" height="460pt"
 viewBox="0.00 0.00 569.33 460.00" xmlns="http://www.w3.org/2000/svg" xmlns:xlink="http://www.w3.org/1999/xlink">
<g id="graph0" class="graph" transform="scale(1 1) rotate(0) translate(4 456)">
<title>treewalk.h</title>
<polygon fill="white" stroke="none" points="-4,4 -4,-456 565.332,-456 565.332,4 -4,4"/>
<!-- Node0 -->
<g id="node1" class="node"><title>Node0</title>
<polygon fill="#bfbfbf" stroke="black" points="235.928,-238.749 235.928,-257.749 297.928,-257.749 297.928,-238.749 235.928,-238.749"/>
<text text-anchor="middle" x="266.928" y="-245.749" font-family="Helvetica,sans-Serif" font-size="10.00">treewalk.h</text>
</g>
<!-- Node1 -->
<g id="node2" class="node"><title>Node1</title>
<polygon fill="white" stroke="#bfbfbf" points="310.904,-216.5 310.904,-235.5 359.904,-235.5 359.904,-216.5 310.904,-216.5"/>
<text text-anchor="middle" x="335.404" y="-223.5" font-family="Helvetica,sans-Serif" font-size="10.00">stdint.h</text>
</g>
<!-- Node0&#45;&gt;Node1 -->
<g id="edge1" class="edge"><title>Node0&#45;&gt;Node1</title>
<path fill="none" stroke="midnightblue" d="M296.366,-238.684C297.861,-238.199 299.369,-237.709 300.877,-237.219"/>
<polygon fill="midnightblue" stroke="midnightblue" points="302.29,-240.44 310.719,-234.021 300.127,-233.782 302.29,-240.44"/>
</g>
<!-- Node2 -->
<g id="node3" class="node"><title>Node2</title>
<g id="a_node3"><a xlink:href="allvars_8h.html" target="_top" xlink:title="declares global variables. ">
<polygon fill="white" stroke="black" points="171.952,-260.998 171.952,-279.998 224.952,-279.998 224.952,-260.998 171.952,-260.998"/>
<text text-anchor="middle" x="198.452" y="-267.998" font-family="Helvetica,sans-Serif" font-size="10.00">allvars.h</text>
</a>
</g>
</g>
<!-- Node0&#45;&gt;Node2 -->
<g id="edge2" class="edge"><title>Node0&#45;&gt;Node2</title>
<path fill="none" stroke="midnightblue" d="M237.491,-257.814C236.603,-258.103 235.71,-258.393 234.816,-258.683"/>
<polygon fill="midnightblue" stroke="midnightblue" points="233.699,-255.366 225.27,-261.785 235.862,-262.023 233.699,-255.366"/>
</g>
<!-- Node3 -->
<g id="node4" class="node"><title>Node3</title>
<polygon fill="white" stroke="#bfbfbf" points="520.332,-283.248 520.332,-302.248 561.332,-302.248 561.332,-283.248 520.332,-283.248"/>
<text text-anchor="middle" x="540.832" y="-290.248" font-family="Helvetica,sans-Serif" font-size="10.00">mpi.h</text>
</g>
<!-- Node2&#45;&gt;Node3 -->
<g id="edge3" class="edge"><title>Node2&#45;&gt;Node3</title>
<path fill="none" stroke="midnightblue" d="M225.033,-272.226C287.542,-276.288 443.589,-286.428 510.062,-290.748"/>
<polygon fill="midnightblue" stroke="midnightblue" points="510.094,-294.257 520.3,-291.413 510.548,-287.272 510.094,-294.257"/>
</g>
<!-- Node4 -->
<g id="node5" class="node"><title>Node4</title>
<polygon fill="white" stroke="#bfbfbf" points="439.366,-391.248 439.366,-410.248 485.366,-410.248 485.366,-391.248 439.366,-391.248"/>
<text text-anchor="middle" x="462.366" y="-398.248" font-family="Helvetica,sans-Serif" font-size="10.00">stdio.h</text>
</g>
<!-- Node2&#45;&gt;Node4 -->
<g id="edge4" class="edge"><title>Node2&#45;&gt;Node4</title>
<path fill="none" stroke="midnightblue" d="M217.858,-280.076C263.9,-302.799 379.912,-360.054 433.905,-386.701"/>
<polygon fill="midnightblue" stroke="midnightblue" points="432.415,-389.869 442.931,-391.156 435.513,-383.592 432.415,-389.869"/>
</g>
<!-- Node5 -->
<g id="node6" class="node"><title>Node5</title>
<polygon fill="white" stroke="#bfbfbf" points="299.404,-432.5 299.404,-451.5 371.404,-451.5 371.404,-432.5 299.404,-432.5"/>
<text text-anchor="middle" x="335.404" y="-439.5" font-family="Helvetica,sans-Serif" font-size="10.00">gsl/gsl_rng.h</text>
</g>
<!-- Node2&#45;&gt;Node5 -->
<g id="edge5" class="edge"><title>Node2&#45;&gt;Node5</title>
<path fill="none" stroke="midnightblue" d="M206.208,-280.211C228.43,-308.038 292.572,-388.363 321.253,-424.279"/>
<polygon fill="midnightblue" stroke="midnightblue" points="318.759,-426.764 327.734,-432.394 324.229,-422.396 318.759,-426.764"/>
</g>
<!-- Node6 -->
<g id="node7" class="node"><title>Node6</title>
<polygon fill="white" stroke="#bfbfbf" points="183.443,-391.248 183.443,-410.248 233.443,-410.248 233.443,-391.248 183.443,-391.248"/>
<text text-anchor="middle" x="208.443" y="-398.248" font-family="Helvetica,sans-Serif" font-size="10.00">signal.h</text>
</g>
<!-- Node2&#45;&gt;Node6 -->
<g id="edge6" class="edge"><title>Node2&#45;&gt;Node6</title>
<path fill="none" stroke="midnightblue" d="M199.203,-280.288C200.838,-301.607 204.749,-352.587 206.921,-380.916"/>
<polygon fill="midnightblue" stroke="midnightblue" points="203.456,-381.495 207.71,-391.198 210.435,-380.96 203.456,-381.495"/>
</g>
<!-- Node7 -->
<g id="node8" class="node"><title>Node7</title>
<g id="a_node8"><a xlink:href="cosmology_8h.html" target="_top" xlink:title="cosmology.h">
<polygon fill="white" stroke="black" points="83.4043,-216.5 83.4043,-235.5 155.404,-235.5 155.404,-216.5 83.4043,-216.5"/>
<text text-anchor="middle" x="119.404" y="-223.5" font-family="Helvetica,sans-Serif" font-size="10.00">cosmology.h</text>
</a>
</g>
</g>
<!-- Node2&#45;&gt;Node7 -->
<g id="edge7" class="edge"><title>Node2&#45;&gt;Node7</title>
<path fill="none" stroke="midnightblue" d="M181.3,-260.843C170.838,-254.953 157.257,-247.309 145.484,-240.681"/>
<polygon fill="midnightblue" stroke="midnightblue" points="146.954,-237.492 136.523,-235.637 143.52,-243.592 146.954,-237.492"/>
</g>
<!-- Node10 -->
<g id="node11" class="node"><title>Node10</title>
<g id="a_node11"><a xlink:href="walltime_8h.html" target="_top" xlink:title="walltime.h">
<polygon fill="white" stroke="black" points="177.943,-41.7523 177.943,-60.7523 238.943,-60.7523 238.943,-41.7523 177.943,-41.7523"/>
<text text-anchor="middle" x="208.443" y="-48.7523" font-family="Helvetica,sans-Serif" font-size="10.00">walltime.h</text>
</a>
</g>
</g>
<!-- Node2&#45;&gt;Node10 -->
<g id="edge10" class="edge"><title>Node2&#45;&gt;Node10</title>
<path fill="none" stroke="midnightblue" d="M198.894,-260.795C200.419,-227.332 205.477,-116.325 207.548,-70.8942"/>
<polygon fill="midnightblue" stroke="midnightblue" points="211.047,-70.9929 208.006,-60.8439 204.054,-70.6742 211.047,-70.9929"/>
</g>
<!-- Node11 -->
<g id="node12" class="node"><title>Node11</title>
<polygon fill="white" stroke="#bfbfbf" points="309.404,-0.5 309.404,-19.5 361.404,-19.5 361.404,-0.5 309.404,-0.5"/>
<text text-anchor="middle" x="335.404" y="-7.5" font-family="Helvetica,sans-Serif" font-size="10.00">assert.h</text>
</g>
<!-- Node2&#45;&gt;Node11 -->
<g id="edge11" class="edge"><title>Node2&#45;&gt;Node11</title>
<path fill="none" stroke="midnightblue" d="M203.489,-260.918C223.621,-222.624 298.528,-80.1432 325.58,-28.6871"/>
<polygon fill="midnightblue" stroke="midnightblue" points="328.766,-30.1474 330.322,-19.6673 322.57,-26.8899 328.766,-30.1474"/>
</g>
<!-- Node12 -->
<g id="node13" class="node"><title>Node12</title>
<g id="a_node13"><a xlink:href="physconst_8h.html" target="_top" xlink:title="physconst.h">
<polygon fill="white" stroke="black" points="427.366,-41.7523 427.366,-60.7523 497.366,-60.7523 497.366,-41.7523 427.366,-41.7523"/>
<text text-anchor="middle" x="462.366" y="-48.7523" font-family="Helvetica,sans-Serif" font-size="10.00">physconst.h</text>
</a>
</g>
</g>
<!-- Node2&#45;&gt;Node12 -->
<g id="edge12" class="edge"><title>Node2&#45;&gt;Node12</title>
<path fill="none" stroke="midnightblue" d="M210.133,-260.795C251.522,-226.411 391.467,-110.152 443.058,-67.2926"/>
<polygon fill="midnightblue" stroke="midnightblue" points="445.365,-69.9262 450.82,-60.8439 440.892,-64.5418 445.365,-69.9262"/>
</g>
<!-- Node13 -->
<g id="node14" class="node"><title>Node13</title>
<g id="a_node14"><a xlink:href="types_8h.html" target="_top" xlink:title="types.h">
<polygon fill="white" stroke="black" points="379.38,-194.251 379.38,-213.251 428.38,-213.251 428.38,-194.251 379.38,-194.251"/>
<text text-anchor="middle" x="403.88" y="-201.251" font-family="Helvetica,sans-Serif" font-size="10.00">types.h</text>
</a>
</g>
</g>
<!-- Node2&#45;&gt;Node13 -->
<g id="edge13" class="edge"><title>Node2&#45;&gt;Node13</title>
<path fill="none" stroke="midnightblue" d="M225.308,-261.772C262.304,-249.752 328.966,-228.092 369.543,-214.908"/>
<polygon fill="midnightblue" stroke="midnightblue" points="370.835,-218.168 379.264,-211.749 368.671,-211.511 370.835,-218.168"/>
</g>
<!-- Node8 -->
<g id="node9" class="node"><title>Node8</title>
<polygon fill="white" stroke="#bfbfbf" points="35.5,-305.497 35.5,-324.497 87.5,-324.497 87.5,-305.497 35.5,-305.497"/>
<text text-anchor="middle" x="61.5" y="-312.497" font-family="Helvetica,sans-Serif" font-size="10.00">stddef.h</text>
</g>
<!-- Node7&#45;&gt;Node8 -->
<g id="edge8" class="edge"><title>Node7&#45;&gt;Node8</title>
<path fill="none" stroke="midnightblue" d="M113.208,-235.524C103.723,-250.101 85.4381,-278.205 73.351,-296.782"/>
<polygon fill="midnightblue" stroke="midnightblue" points="70.3477,-294.981 67.8278,-305.271 76.2151,-298.798 70.3477,-294.981"/>
</g>
<!-- Node9 -->
<g id="node10" class="node"><title>Node9</title>
<polygon fill="white" stroke="#bfbfbf" points="-4.26326e-14,-122.003 -4.26326e-14,-152.003 123,-152.003 123,-122.003 -4.26326e-14,-122.003"/>
<text text-anchor="start" x="8" y="-140.003" font-family="Helvetica,sans-Serif" font-size="10.00">kspace&#45;neutrinos/omega</text>
<text text-anchor="middle" x="61.5" y="-129.003" font-family="Helvetica,sans-Serif" font-size="10.00">_nu_single.h</text>
</g>
<!-- Node7&#45;&gt;Node9 -->
<g id="edge9" class="edge"><title>Node7&#45;&gt;Node9</title>
<path fill="none" stroke="midnightblue" d="M113.208,-216.476C104.583,-203.22 88.6792,-178.777 76.7779,-160.485"/>
<polygon fill="midnightblue" stroke="midnightblue" points="79.6937,-158.548 71.3063,-152.075 73.8262,-162.366 79.6937,-158.548"/>
</g>
<!-- Node13&#45;&gt;Node1 -->
<g id="edge14" class="edge"><title>Node13&#45;&gt;Node1</title>
<path fill="none" stroke="midnightblue" d="M379.159,-211.783C376.19,-212.748 373.117,-213.746 370.04,-214.746"/>
<polygon fill="midnightblue" stroke="midnightblue" points="368.748,-211.486 360.319,-217.905 370.912,-218.143 368.748,-211.486"/>
</g>
</g>
</svg>
