<?xml version="1.0" encoding="UTF-8" standalone="no"?>
<!DOCTYPE svg PUBLIC "-//W3C//DTD SVG 1.1//EN"
 "http://www.w3.org/Graphics/SVG/1.1/DTD/svg11.dtd">
<!-- Generated by graphviz version 2.50.0 (0)
 -->
<!-- Title: treewalk_build_queue Pages: 1 -->
<svg width="519pt" height="146pt"
 viewBox="0.00 0.00 519.00 145.50" xmlns="http://www.w3.org/2000/svg" xmlns:xlink="http://www.w3.org/1999/xlink">
<g id="graph0" class="graph" transform="scale(1 1) rotate(0) translate(4 141.5)">
<title>treewalk_build_queue</title>
<polygon fill="white" stroke="transparent" points="-4,4 -4,-141.5 515,-141.5 515,4 -4,4"/>
<!-- Node1 -->
<g id="node1" class="node">
<title>Node1</title>
<g id="a_node1"><a xlink:title=" ">
<polygon fill="#bfbfbf" stroke="black" points="0,-55 0,-74 124,-74 124,-55 0,-55"/>
<text text-anchor="middle" x="62" y="-62" font-family="Helvetica,sans-Serif" font-size="10.00">treewalk_build_queue</text>
</a>
</g>
</g>
<!-- Node2 -->
<g id="node2" class="node">
<title>Node2</title>
<g id="a_node2"><a xlink:href="endrun_8c.html#ad963d7efdb9f10f7a2298c8ccd222ab0" target="_top" xlink:title=" ">
<polygon fill="white" stroke="black" points="202,-99 202,-118 252,-118 252,-99 202,-99"/>
<text text-anchor="middle" x="227" y="-106" font-family="Helvetica,sans-Serif" font-size="10.00">endrun</text>
</a>
</g>
</g>
<!-- Node1&#45;&gt;Node2 -->
<g id="edge1" class="edge">
<title>Node1&#45;&gt;Node2</title>
<path fill="none" stroke="midnightblue" d="M98.37,-74.05C126.1,-81.53 164.45,-91.89 191.86,-99.29"/>
<polygon fill="midnightblue" stroke="midnightblue" points="191.22,-102.74 201.79,-101.96 193.04,-95.98 191.22,-102.74"/>
</g>
<!-- Node6 -->
<g id="node6" class="node">
<title>Node6</title>
<g id="a_node6"><a xlink:href="system_8c.html#a98a657dc63957ee4d2d237c6411f32f7" target="_top" xlink:title=" ">
<polygon fill="white" stroke="black" points="160,-49.5 160,-79.5 294,-79.5 294,-49.5 160,-49.5"/>
<text text-anchor="start" x="168" y="-67.5" font-family="Helvetica,sans-Serif" font-size="10.00">gadget_compact_thread</text>
<text text-anchor="middle" x="227" y="-56.5" font-family="Helvetica,sans-Serif" font-size="10.00">_arrays</text>
</a>
</g>
</g>
<!-- Node1&#45;&gt;Node6 -->
<g id="edge5" class="edge">
<title>Node1&#45;&gt;Node6</title>
<path fill="none" stroke="midnightblue" d="M124.16,-64.5C132.53,-64.5 141.22,-64.5 149.82,-64.5"/>
<polygon fill="midnightblue" stroke="midnightblue" points="149.86,-68 159.86,-64.5 149.86,-61 149.86,-68"/>
</g>
<!-- Node7 -->
<g id="node7" class="node">
<title>Node7</title>
<g id="a_node7"><a xlink:href="system_8c.html#a0082531d4facaa6caabf05fb9fd547d4" target="_top" xlink:title=" ">
<polygon fill="white" stroke="black" points="167.5,-0.5 167.5,-30.5 286.5,-30.5 286.5,-0.5 167.5,-0.5"/>
<text text-anchor="start" x="175.5" y="-18.5" font-family="Helvetica,sans-Serif" font-size="10.00">gadget_setup_thread</text>
<text text-anchor="middle" x="227" y="-7.5" font-family="Helvetica,sans-Serif" font-size="10.00">_arrays</text>
</a>
</g>
</g>
<!-- Node1&#45;&gt;Node7 -->
<g id="edge6" class="edge">
<title>Node1&#45;&gt;Node7</title>
<path fill="none" stroke="midnightblue" d="M94.81,-54.94C115.09,-48.84 142,-40.75 166.17,-33.49"/>
<polygon fill="midnightblue" stroke="midnightblue" points="167.41,-36.77 175.98,-30.54 165.39,-30.06 167.41,-36.77"/>
</g>
<!-- Node3 -->
<g id="node3" class="node">
<title>Node3</title>
<g id="a_node3"><a xlink:href="system_8c.html#a341c8d27bd6c7dde856566810b412b1f" target="_top" xlink:title=" ">
<polygon fill="white" stroke="black" points="338,-118 338,-137 417,-137 417,-118 338,-118"/>
<text text-anchor="middle" x="377.5" y="-125" font-family="Helvetica,sans-Serif" font-size="10.00">MPIU_Tracev</text>
</a>
</g>
</g>
<!-- Node2&#45;&gt;Node3 -->
<g id="edge2" class="edge">
<title>Node2&#45;&gt;Node3</title>
<path fill="none" stroke="midnightblue" d="M252.19,-111.59C272.56,-114.2 302.34,-118.01 327.64,-121.25"/>
<polygon fill="midnightblue" stroke="midnightblue" points="327.45,-124.75 337.81,-122.55 328.34,-117.81 327.45,-124.75"/>
</g>
<!-- Node5 -->
<g id="node5" class="node">
<title>Node5</title>
<g id="a_node5"><a xlink:href="endrun_8c.html#a1200f02a595ab7cbe17c9e36ff32af0f" target="_top" xlink:title=" ">
<polygon fill="white" stroke="black" points="330,-80 330,-99 425,-99 425,-80 330,-80"/>
<text text-anchor="middle" x="377.5" y="-87" font-family="Helvetica,sans-Serif" font-size="10.00">show_backtrace</text>
</a>
</g>
</g>
<!-- Node2&#45;&gt;Node5 -->
<g id="edge4" class="edge">
<title>Node2&#45;&gt;Node5</title>
<path fill="none" stroke="midnightblue" d="M252.19,-105.41C270.45,-103.07 296.26,-99.77 319.64,-96.78"/>
<polygon fill="midnightblue" stroke="midnightblue" points="320.35,-100.21 329.82,-95.47 319.46,-93.27 320.35,-100.21"/>
</g>
<!-- Node4 -->
<g id="node4" class="node">
<title>Node4</title>
<g id="a_node4"><a xlink:href="system_8c.html#a87108946670b4c3afbe846c6726675ff" target="_top" xlink:title=" ">
<polygon fill="white" stroke="black" points="461,-118 461,-137 511,-137 511,-118 461,-118"/>
<text text-anchor="middle" x="486" y="-125" font-family="Helvetica,sans-Serif" font-size="10.00">putline</text>
</a>
</g>
</g>
<!-- Node3&#45;&gt;Node4 -->
<g id="edge3" class="edge">
<title>Node3&#45;&gt;Node4</title>
<path fill="none" stroke="midnightblue" d="M417.25,-127.5C428.22,-127.5 440.09,-127.5 450.77,-127.5"/>
<polygon fill="midnightblue" stroke="midnightblue" points="450.99,-131 460.99,-127.5 450.99,-124 450.99,-131"/>
</g>
</g>
</svg>
