<?xml version="1.0" encoding="UTF-8" standalone="no"?>
<!DOCTYPE svg PUBLIC "-//W3C//DTD SVG 1.1//EN"
 "http://www.w3.org/Graphics/SVG/1.1/DTD/svg11.dtd">
<!-- Generated by graphviz version 2.50.0 (0)
 -->
<!-- Title: ev_primary Pages: 1 -->
<svg width="719pt" height="256pt"
 viewBox="0.00 0.00 719.00 256.00" xmlns="http://www.w3.org/2000/svg" xmlns:xlink="http://www.w3.org/1999/xlink">
<g id="graph0" class="graph" transform="scale(1 1) rotate(0) translate(4 252)">
<title>ev_primary</title>
<polygon fill="white" stroke="transparent" points="-4,4 -4,-252 715,-252 715,4 -4,4"/>
<!-- Node1 -->
<g id="node1" class="node">
<title>Node1</title>
<g id="a_node1"><a xlink:title=" ">
<polygon fill="#bfbfbf" stroke="black" points="0,-114.5 0,-133.5 72,-133.5 72,-114.5 0,-114.5"/>
<text text-anchor="middle" x="36" y="-121.5" font-family="Helvetica,sans-Serif" font-size="10.00">ev_primary</text>
</a>
</g>
</g>
<!-- Node2 -->
<g id="node2" class="node">
<title>Node2</title>
<g id="a_node2"><a xlink:href="treewalk_8c.html#aff93c24242038a9c53a192886ab6fff4" target="_top" xlink:title=" ">
<polygon fill="white" stroke="black" points="108,-190.5 108,-209.5 230,-209.5 230,-190.5 108,-190.5"/>
<text text-anchor="middle" x="169" y="-197.5" font-family="Helvetica,sans-Serif" font-size="10.00">ev_alloc_threadlocals</text>
</a>
</g>
</g>
<!-- Node1&#45;&gt;Node2 -->
<g id="edge1" class="edge">
<title>Node1&#45;&gt;Node2</title>
<path fill="none" stroke="midnightblue" d="M46.72,-133.8C59.67,-146.35 83.75,-168.02 108,-181 112.01,-183.15 116.3,-185.1 120.68,-186.86"/>
<polygon fill="midnightblue" stroke="midnightblue" points="119.72,-190.24 130.32,-190.42 122.15,-183.67 119.72,-190.24"/>
</g>
<!-- Node3 -->
<g id="node3" class="node">
<title>Node3</title>
<g id="a_node3"><a xlink:href="treewalk_8c.html#a0db9e65f7d67e08e19fe008c214f0339" target="_top" xlink:title=" ">
<polygon fill="white" stroke="black" points="109.5,-152.5 109.5,-171.5 228.5,-171.5 228.5,-152.5 109.5,-152.5"/>
<text text-anchor="middle" x="169" y="-159.5" font-family="Helvetica,sans-Serif" font-size="10.00">ev_free_threadlocals</text>
</a>
</g>
</g>
<!-- Node1&#45;&gt;Node3 -->
<g id="edge2" class="edge">
<title>Node1&#45;&gt;Node3</title>
<path fill="none" stroke="midnightblue" d="M70.06,-133.59C86.81,-138.45 107.36,-144.41 125.3,-149.61"/>
<polygon fill="midnightblue" stroke="midnightblue" points="124.37,-152.99 134.95,-152.41 126.32,-146.27 124.37,-152.99"/>
</g>
<!-- Node4 -->
<g id="node4" class="node">
<title>Node4</title>
<g id="a_node4"><a xlink:href="treewalk_8c.html#a78ce813a0e69520884e026c6b7965217" target="_top" xlink:title=" ">
<polygon fill="white" stroke="black" points="142.5,-114.5 142.5,-133.5 195.5,-133.5 195.5,-114.5 142.5,-114.5"/>
<text text-anchor="middle" x="169" y="-121.5" font-family="Helvetica,sans-Serif" font-size="10.00">real_ev</text>
</a>
</g>
</g>
<!-- Node1&#45;&gt;Node4 -->
<g id="edge3" class="edge">
<title>Node1&#45;&gt;Node4</title>
<path fill="none" stroke="midnightblue" d="M72.11,-124C90.69,-124 113.47,-124 132.17,-124"/>
<polygon fill="midnightblue" stroke="midnightblue" points="132.36,-127.5 142.36,-124 132.36,-120.5 132.36,-127.5"/>
</g>
<!-- Node15 -->
<g id="node15" class="node">
<title>Node15</title>
<g id="a_node15"><a xlink:href="system_8c.html#ad24c35a2016ce428248988795c1d3174" target="_top" xlink:title=" ">
<polygon fill="white" stroke="black" points="143.5,-76.5 143.5,-95.5 194.5,-95.5 194.5,-76.5 143.5,-76.5"/>
<text text-anchor="middle" x="169" y="-83.5" font-family="Helvetica,sans-Serif" font-size="10.00">second</text>
</a>
</g>
</g>
<!-- Node1&#45;&gt;Node15 -->
<g id="edge16" class="edge">
<title>Node1&#45;&gt;Node15</title>
<path fill="none" stroke="midnightblue" d="M70.06,-114.41C89.42,-108.79 113.84,-101.71 133.46,-96.02"/>
<polygon fill="midnightblue" stroke="midnightblue" points="134.6,-99.33 143.23,-93.19 132.65,-92.61 134.6,-99.33"/>
</g>
<!-- Node16 -->
<g id="node16" class="node">
<title>Node16</title>
<g id="a_node16"><a xlink:href="system_8c.html#a890645bdc4536bd797ca53028072e30d" target="_top" xlink:title=" ">
<polygon fill="white" stroke="black" points="141.5,-38.5 141.5,-57.5 196.5,-57.5 196.5,-38.5 141.5,-38.5"/>
<text text-anchor="middle" x="169" y="-45.5" font-family="Helvetica,sans-Serif" font-size="10.00">timediff</text>
</a>
</g>
</g>
<!-- Node1&#45;&gt;Node16 -->
<g id="edge17" class="edge">
<title>Node1&#45;&gt;Node16</title>
<path fill="none" stroke="midnightblue" d="M46.72,-114.2C59.67,-101.65 83.75,-79.98 108,-67 115.4,-63.04 123.75,-59.75 131.83,-57.08"/>
<polygon fill="midnightblue" stroke="midnightblue" points="132.92,-60.4 141.46,-54.12 130.87,-53.71 132.92,-60.4"/>
</g>
<!-- Node5 -->
<g id="node5" class="node">
<title>Node5</title>
<g id="a_node5"><a xlink:href="system_8h.html#a00eeba7aebd7952f4c0ecebb60fbeca2" target="_top" xlink:title=" ">
<polygon fill="white" stroke="black" points="268,-228.5 268,-247.5 395,-247.5 395,-228.5 268,-228.5"/>
<text text-anchor="middle" x="331.5" y="-235.5" font-family="Helvetica,sans-Serif" font-size="10.00">atomic_fetch_and_add</text>
</a>
</g>
</g>
<!-- Node4&#45;&gt;Node5 -->
<g id="edge4" class="edge">
<title>Node4&#45;&gt;Node5</title>
<path fill="none" stroke="midnightblue" d="M195.54,-127.47C207.11,-130.12 220.34,-134.8 230,-143 256.97,-165.9 239.61,-190.44 266,-214 270.51,-218.03 275.76,-221.4 281.28,-224.22"/>
<polygon fill="midnightblue" stroke="midnightblue" points="280.18,-227.56 290.73,-228.46 283.04,-221.18 280.18,-227.56"/>
</g>
<!-- Node6 -->
<g id="node6" class="node">
<title>Node6</title>
<g id="a_node6"><a xlink:href="endrun_8c.html#ad963d7efdb9f10f7a2298c8ccd222ab0" target="_top" xlink:title=" ">
<polygon fill="white" stroke="black" points="438.5,-114.5 438.5,-133.5 488.5,-133.5 488.5,-114.5 438.5,-114.5"/>
<text text-anchor="middle" x="463.5" y="-121.5" font-family="Helvetica,sans-Serif" font-size="10.00">endrun</text>
</a>
</g>
</g>
<!-- Node4&#45;&gt;Node6 -->
<g id="edge5" class="edge">
<title>Node4&#45;&gt;Node6</title>
<path fill="none" stroke="midnightblue" d="M195.7,-124C248.33,-124 368.39,-124 427.84,-124"/>
<polygon fill="midnightblue" stroke="midnightblue" points="428.2,-127.5 438.2,-124 428.2,-120.5 428.2,-127.5"/>
</g>
<!-- Node10 -->
<g id="node10" class="node">
<title>Node10</title>
<g id="a_node10"><a xlink:href="treewalk_8c.html#a4238c59700ad7d440eb4d7890de08f2c" target="_top" xlink:title=" ">
<polygon fill="white" stroke="black" points="288.5,-152.5 288.5,-171.5 374.5,-171.5 374.5,-152.5 288.5,-152.5"/>
<text text-anchor="middle" x="331.5" y="-159.5" font-family="Helvetica,sans-Serif" font-size="10.00">ev_init_thread</text>
</a>
</g>
</g>
<!-- Node4&#45;&gt;Node10 -->
<g id="edge9" class="edge">
<title>Node4&#45;&gt;Node10</title>
<path fill="none" stroke="midnightblue" d="M195.79,-130.11C218.52,-135.49 252.28,-143.48 280.32,-150.12"/>
<polygon fill="midnightblue" stroke="midnightblue" points="279.82,-153.6 290.36,-152.5 281.44,-146.79 279.82,-153.6"/>
</g>
<!-- Node11 -->
<g id="node11" class="node">
<title>Node11</title>
<g id="a_node11"><a xlink:href="endrun_8c.html#a6567cd867c5549fb6586e19ccd819764" target="_top" xlink:title=" ">
<polygon fill="white" stroke="black" points="433,-180.5 433,-199.5 494,-199.5 494,-180.5 433,-180.5"/>
<text text-anchor="middle" x="463.5" y="-187.5" font-family="Helvetica,sans-Serif" font-size="10.00">message</text>
</a>
</g>
</g>
<!-- Node4&#45;&gt;Node11 -->
<g id="edge10" class="edge">
<title>Node4&#45;&gt;Node11</title>
<path fill="none" stroke="midnightblue" d="M195.75,-129.11C206.85,-132.06 219.63,-136.5 230,-143 249.72,-155.35 244.84,-171.32 266,-181 316.39,-204.05 381.84,-201.5 423.01,-196.54"/>
<polygon fill="midnightblue" stroke="midnightblue" points="423.48,-200.01 432.94,-195.24 422.57,-193.07 423.48,-200.01"/>
</g>
<!-- Node12 -->
<g id="node12" class="node">
<title>Node12</title>
<g id="a_node12"><a xlink:href="treewalk_8c.html#af8619681f7d063183bea07a7d80ac98e" target="_top" xlink:title=" ">
<polygon fill="white" stroke="black" points="275,-76.5 275,-95.5 388,-95.5 388,-76.5 275,-76.5"/>
<text text-anchor="middle" x="331.5" y="-83.5" font-family="Helvetica,sans-Serif" font-size="10.00">treewalk_init_query</text>
</a>
</g>
</g>
<!-- Node4&#45;&gt;Node12 -->
<g id="edge12" class="edge">
<title>Node4&#45;&gt;Node12</title>
<path fill="none" stroke="midnightblue" d="M195.79,-117.89C218.52,-112.51 252.28,-104.52 280.32,-97.88"/>
<polygon fill="midnightblue" stroke="midnightblue" points="281.44,-101.21 290.36,-95.5 279.82,-94.4 281.44,-101.21"/>
</g>
<!-- Node13 -->
<g id="node13" class="node">
<title>Node13</title>
<g id="a_node13"><a xlink:href="treewalk_8c.html#af7a85c8514602df4d3dd61f4ef3e0d48" target="_top" xlink:title=" ">
<polygon fill="white" stroke="black" points="275,-38.5 275,-57.5 388,-57.5 388,-38.5 275,-38.5"/>
<text text-anchor="middle" x="331.5" y="-45.5" font-family="Helvetica,sans-Serif" font-size="10.00">treewalk_init_result</text>
</a>
</g>
</g>
<!-- Node4&#45;&gt;Node13 -->
<g id="edge13" class="edge">
<title>Node4&#45;&gt;Node13</title>
<path fill="none" stroke="midnightblue" d="M195.75,-118.89C206.85,-115.94 219.63,-111.5 230,-105 249.72,-92.65 246.16,-79.15 266,-67 269.43,-64.9 273.1,-63.02 276.9,-61.34"/>
<polygon fill="midnightblue" stroke="midnightblue" points="278.47,-64.48 286.49,-57.57 275.9,-57.97 278.47,-64.48"/>
</g>
<!-- Node14 -->
<g id="node14" class="node">
<title>Node14</title>
<g id="a_node14"><a xlink:href="treewalk_8c.html#ac3d61be6b2bd96daed4c4a17521a0fda" target="_top" xlink:title=" ">
<polygon fill="white" stroke="black" points="266,-0.5 266,-19.5 397,-19.5 397,-0.5 266,-0.5"/>
<text text-anchor="middle" x="331.5" y="-7.5" font-family="Helvetica,sans-Serif" font-size="10.00">treewalk_reduce_result</text>
</a>
</g>
</g>
<!-- Node4&#45;&gt;Node14 -->
<g id="edge14" class="edge">
<title>Node4&#45;&gt;Node14</title>
<path fill="none" stroke="midnightblue" d="M195.64,-120.65C207.24,-118.02 220.45,-113.33 230,-105 258.16,-80.42 237.59,-53.29 266,-29 267.98,-27.31 270.1,-25.77 272.33,-24.36"/>
<polygon fill="midnightblue" stroke="midnightblue" points="274.15,-27.36 281.36,-19.59 270.89,-21.17 274.15,-27.36"/>
</g>
<!-- Node7 -->
<g id="node7" class="node">
<title>Node7</title>
<g id="a_node7"><a xlink:href="system_8c.html#a341c8d27bd6c7dde856566810b412b1f" target="_top" xlink:title=" ">
<polygon fill="white" stroke="black" points="538,-171.5 538,-190.5 617,-190.5 617,-171.5 538,-171.5"/>
<text text-anchor="middle" x="577.5" y="-178.5" font-family="Helvetica,sans-Serif" font-size="10.00">MPIU_Tracev</text>
</a>
</g>
</g>
<!-- Node6&#45;&gt;Node7 -->
<g id="edge6" class="edge">
<title>Node6&#45;&gt;Node7</title>
<path fill="none" stroke="midnightblue" d="M483.25,-133.54C501.09,-142.62 528.18,-156.41 548.57,-166.79"/>
<polygon fill="midnightblue" stroke="midnightblue" points="547.19,-170.01 557.69,-171.43 550.37,-163.77 547.19,-170.01"/>
</g>
<!-- Node9 -->
<g id="node9" class="node">
<title>Node9</title>
<g id="a_node9"><a xlink:href="endrun_8c.html#a1200f02a595ab7cbe17c9e36ff32af0f" target="_top" xlink:title=" ">
<polygon fill="white" stroke="black" points="530,-114.5 530,-133.5 625,-133.5 625,-114.5 530,-114.5"/>
<text text-anchor="middle" x="577.5" y="-121.5" font-family="Helvetica,sans-Serif" font-size="10.00">show_backtrace</text>
</a>
</g>
</g>
<!-- Node6&#45;&gt;Node9 -->
<g id="edge8" class="edge">
<title>Node6&#45;&gt;Node9</title>
<path fill="none" stroke="midnightblue" d="M488.53,-124C497.78,-124 508.78,-124 519.82,-124"/>
<polygon fill="midnightblue" stroke="midnightblue" points="519.92,-127.5 529.92,-124 519.92,-120.5 519.92,-127.5"/>
</g>
<!-- Node8 -->
<g id="node8" class="node">
<title>Node8</title>
<g id="a_node8"><a xlink:href="system_8c.html#a87108946670b4c3afbe846c6726675ff" target="_top" xlink:title=" ">
<polygon fill="white" stroke="black" points="661,-171.5 661,-190.5 711,-190.5 711,-171.5 661,-171.5"/>
<text text-anchor="middle" x="686" y="-178.5" font-family="Helvetica,sans-Serif" font-size="10.00">putline</text>
</a>
</g>
</g>
<!-- Node7&#45;&gt;Node8 -->
<g id="edge7" class="edge">
<title>Node7&#45;&gt;Node8</title>
<path fill="none" stroke="midnightblue" d="M617.25,-181C628.22,-181 640.09,-181 650.77,-181"/>
<polygon fill="midnightblue" stroke="midnightblue" points="650.99,-184.5 660.99,-181 650.99,-177.5 650.99,-184.5"/>
</g>
<!-- Node11&#45;&gt;Node7 -->
<g id="edge11" class="edge">
<title>Node11&#45;&gt;Node7</title>
<path fill="none" stroke="midnightblue" d="M494.22,-187.61C504.44,-186.79 516.17,-185.85 527.51,-184.94"/>
<polygon fill="midnightblue" stroke="midnightblue" points="528.08,-188.4 537.77,-184.11 527.52,-181.42 528.08,-188.4"/>
</g>
<!-- Node14&#45;&gt;Node6 -->
<g id="edge15" class="edge">
<title>Node14&#45;&gt;Node6</title>
<path fill="none" stroke="midnightblue" d="M379.06,-19.52C385.42,-21.99 391.61,-25.1 397,-29 424.31,-48.78 444.03,-83.63 454.33,-105.17"/>
<polygon fill="midnightblue" stroke="midnightblue" points="451.16,-106.66 458.5,-114.29 457.52,-103.74 451.16,-106.66"/>
</g>
</g>
</svg>
