<?xml version="1.0" encoding="UTF-8" standalone="no"?>
<!DOCTYPE svg PUBLIC "-//W3C//DTD SVG 1.1//EN"
 "http://www.w3.org/Graphics/SVG/1.1/DTD/svg11.dtd">
<!-- Generated by graphviz version 2.38.0 (20140413.2041)
 -->
<!-- Title: ev_ndone Pages: 1 -->
<svg width="152pt" height="66pt"
 viewBox="0.00 0.00 152.00 66.00" xmlns="http://www.w3.org/2000/svg" xmlns:xlink="http://www.w3.org/1999/xlink">
<g id="graph0" class="graph" transform="scale(1 1) rotate(0) translate(4 62)">
<title>ev_ndone</title>
<polygon fill="white" stroke="none" points="-4,4 -4,-62 148,-62 148,4 -4,4"/>
<!-- Node298 -->
<g id="node1" class="node"><title>Node298</title>
<polygon fill="#bfbfbf" stroke="black" points="0,-19.5 0,-38.5 59,-38.5 59,-19.5 0,-19.5"/>
<text text-anchor="middle" x="29.5" y="-26.5" font-family="Helvetica,sans-Serif" font-size="10.00">ev_ndone</text>
</g>
<!-- Node299 -->
<g id="node2" class="node"><title>Node299</title>
<g id="a_node2"><a xlink:href="system_8c.html#ad24c35a2016ce428248988795c1d3174" target="_top" xlink:title="second">
<polygon fill="white" stroke="black" points="95.5,-38.5 95.5,-57.5 143.5,-57.5 143.5,-38.5 95.5,-38.5"/>
<text text-anchor="middle" x="119.5" y="-45.5" font-family="Helvetica,sans-Serif" font-size="10.00">second</text>
</a>
</g>
</g>
<!-- Node298&#45;&gt;Node299 -->
<g id="edge1" class="edge"><title>Node298&#45;&gt;Node299</title>
<path fill="none" stroke="midnightblue" d="M59.3145,-35.2213C67.7451,-37.0415 77.0234,-39.0448 85.6828,-40.9145"/>
<polygon fill="midnightblue" stroke="midnightblue" points="84.9626,-44.3395 95.476,-43.0289 86.44,-37.4972 84.9626,-44.3395"/>
</g>
<!-- Node300 -->
<g id="node3" class="node"><title>Node300</title>
<g id="a_node3"><a xlink:href="system_8c.html#a890645bdc4536bd797ca53028072e30d" target="_top" xlink:title="timediff">
<polygon fill="white" stroke="black" points="95,-0.5 95,-19.5 144,-19.5 144,-0.5 95,-0.5"/>
<text text-anchor="middle" x="119.5" y="-7.5" font-family="Helvetica,sans-Serif" font-size="10.00">timediff</text>
</a>
</g>
</g>
<!-- Node298&#45;&gt;Node300 -->
<g id="edge2" class="edge"><title>Node298&#45;&gt;Node300</title>
<path fill="none" stroke="midnightblue" d="M59.3145,-22.7787C67.5109,-21.009 76.5086,-19.0663 84.9598,-17.2416"/>
<polygon fill="midnightblue" stroke="midnightblue" points="85.8707,-20.6257 94.9068,-15.094 84.3933,-13.7834 85.8707,-20.6257"/>
</g>
</g>
</svg>
