<?xml version="1.0" encoding="UTF-8" standalone="no"?>
<!DOCTYPE svg PUBLIC "-//W3C//DTD SVG 1.1//EN"
 "http://www.w3.org/Graphics/SVG/1.1/DTD/svg11.dtd">
<!-- Generated by graphviz version 2.50.0 (0)
 -->
<!-- Title: treewalk_reduce_result Pages: 1 -->
<svg width="1546pt" height="825pt"
 viewBox="0.00 0.00 1546.00 825.00" xmlns="http://www.w3.org/2000/svg" xmlns:xlink="http://www.w3.org/1999/xlink">
<g id="graph0" class="graph" transform="scale(1 1) rotate(0) translate(4 821)">
<title>treewalk_reduce_result</title>
<polygon fill="white" stroke="transparent" points="-4,4 -4,-821 1542,-821 1542,4 -4,4"/>
<!-- Node1 -->
<g id="node1" class="node">
<title>Node1</title>
<g id="a_node1"><a xlink:title=" ">
<polygon fill="#bfbfbf" stroke="black" points="1407,-512.5 1407,-531.5 1538,-531.5 1538,-512.5 1407,-512.5"/>
<text text-anchor="middle" x="1472.5" y="-519.5" font-family="Helvetica,sans-Serif" font-size="10.00">treewalk_reduce_result</text>
</a>
</g>
</g>
<!-- Node2 -->
<g id="node2" class="node">
<title>Node2</title>
<g id="a_node2"><a xlink:href="treewalk_8c.html#a188435b665f3ff35fdbe7beeff218f18" target="_top" xlink:title=" ">
<polygon fill="white" stroke="black" points="1182,-531.5 1182,-550.5 1282,-550.5 1282,-531.5 1182,-531.5"/>
<text text-anchor="middle" x="1232" y="-538.5" font-family="Helvetica,sans-Serif" font-size="10.00">ev_reduce_result</text>
</a>
</g>
</g>
<!-- Node1&#45;&gt;Node2 -->
<g id="edge1" class="edge">
<title>Node1&#45;&gt;Node2</title>
<path fill="none" stroke="midnightblue" d="M1396.61,-527.97C1359.24,-530.94 1315.09,-534.46 1282.08,-537.09"/>
<polygon fill="midnightblue" stroke="midnightblue" points="1397.27,-531.42 1406.96,-527.14 1396.71,-524.45 1397.27,-531.42"/>
</g>
<!-- Node77 -->
<g id="node49" class="node">
<title>Node77</title>
<g id="a_node49"><a xlink:href="treewalk_8c.html#a78ce813a0e69520884e026c6b7965217" target="_top" xlink:title=" ">
<polygon fill="white" stroke="black" points="1318,-493.5 1318,-512.5 1371,-512.5 1371,-493.5 1318,-493.5"/>
<text text-anchor="middle" x="1344.5" y="-500.5" font-family="Helvetica,sans-Serif" font-size="10.00">real_ev</text>
</a>
</g>
</g>
<!-- Node1&#45;&gt;Node77 -->
<g id="edge75" class="edge">
<title>Node1&#45;&gt;Node77</title>
<path fill="none" stroke="midnightblue" d="M1398.03,-510.92C1388.42,-509.47 1379.14,-508.07 1371.12,-506.86"/>
<polygon fill="midnightblue" stroke="midnightblue" points="1397.72,-514.41 1408.13,-512.44 1398.76,-507.49 1397.72,-514.41"/>
</g>
<!-- Node3 -->
<g id="node3" class="node">
<title>Node3</title>
<g id="a_node3"><a xlink:href="treewalk_8c.html#a1e336844d7f92d15cd9248c81ecfb453" target="_top" xlink:title=" ">
<polygon fill="white" stroke="black" points="1066,-512.5 1066,-531.5 1146,-531.5 1146,-512.5 1066,-512.5"/>
<text text-anchor="middle" x="1106" y="-519.5" font-family="Helvetica,sans-Serif" font-size="10.00">treewalk_run</text>
</a>
</g>
</g>
<!-- Node2&#45;&gt;Node3 -->
<g id="edge2" class="edge">
<title>Node2&#45;&gt;Node3</title>
<path fill="none" stroke="midnightblue" d="M1172.11,-531.98C1163.28,-530.62 1154.38,-529.26 1146.11,-527.99"/>
<polygon fill="midnightblue" stroke="midnightblue" points="1171.58,-535.44 1181.99,-533.49 1172.64,-528.52 1171.58,-535.44"/>
</g>
<!-- Node4 -->
<g id="node4" class="node">
<title>Node4</title>
<g id="a_node4"><a xlink:href="blackhole_8c.html#a19ebdf3d7cd6405d5936aabf3a3f230b" target="_top" xlink:title=" ">
<polygon fill="white" stroke="black" points="774,-569.5 774,-588.5 838,-588.5 838,-569.5 774,-569.5"/>
<text text-anchor="middle" x="806" y="-576.5" font-family="Helvetica,sans-Serif" font-size="10.00">blackhole</text>
</a>
</g>
</g>
<!-- Node3&#45;&gt;Node4 -->
<g id="edge3" class="edge">
<title>Node3&#45;&gt;Node4</title>
<path fill="none" stroke="midnightblue" d="M1081.51,-536.86C1067.19,-545.15 1048.2,-554.83 1030,-560 963.66,-578.86 882.11,-580.7 838.33,-580.06"/>
<polygon fill="midnightblue" stroke="midnightblue" points="1083.41,-539.8 1090.2,-531.67 1079.82,-533.8 1083.41,-539.8"/>
</g>
<!-- Node7 -->
<g id="node7" class="node">
<title>Node7</title>
<g id="a_node7"><a xlink:href="fof_8c.html#aced1373e68ad94bf601be61f535f4060" target="_top" xlink:title=" ">
<polygon fill="white" stroke="black" points="912.5,-493.5 912.5,-512.5 1015.5,-512.5 1015.5,-493.5 912.5,-493.5"/>
<text text-anchor="middle" x="964" y="-500.5" font-family="Helvetica,sans-Serif" font-size="10.00">fof_label_primary</text>
</a>
</g>
</g>
<!-- Node3&#45;&gt;Node7 -->
<g id="edge6" class="edge">
<title>Node3&#45;&gt;Node7</title>
<path fill="none" stroke="midnightblue" d="M1055.51,-515.28C1042.56,-513.53 1028.59,-511.63 1015.59,-509.87"/>
<polygon fill="midnightblue" stroke="midnightblue" points="1055.25,-518.78 1065.63,-516.66 1056.19,-511.84 1055.25,-518.78"/>
</g>
<!-- Node12 -->
<g id="node12" class="node">
<title>Node12</title>
<g id="a_node12"><a xlink:href="fof_8c.html#acdac83ed649364bfe1f14e9c572c7f2f" target="_top" xlink:title=" ">
<polygon fill="white" stroke="black" points="906.5,-455.5 906.5,-474.5 1021.5,-474.5 1021.5,-455.5 906.5,-455.5"/>
<text text-anchor="middle" x="964" y="-462.5" font-family="Helvetica,sans-Serif" font-size="10.00">fof_label_secondary</text>
</a>
</g>
</g>
<!-- Node3&#45;&gt;Node12 -->
<g id="edge13" class="edge">
<title>Node3&#45;&gt;Node12</title>
<path fill="none" stroke="midnightblue" d="M1079.27,-507.48C1065.04,-499.83 1046.87,-490.67 1030,-484 1021.14,-480.5 1011.39,-477.31 1002.18,-474.59"/>
<polygon fill="midnightblue" stroke="midnightblue" points="1077.98,-510.76 1088.43,-512.49 1081.34,-504.62 1077.98,-510.76"/>
</g>
<!-- Node13 -->
<g id="node13" class="node">
<title>Node13</title>
<g id="a_node13"><a xlink:href="gravity_8h.html#a6e195525506b0c8f2638fda43cb8fa1f" target="_top" xlink:title=" ">
<polygon fill="white" stroke="black" points="608.5,-645.5 608.5,-664.5 700.5,-664.5 700.5,-645.5 608.5,-645.5"/>
<text text-anchor="middle" x="654.5" y="-652.5" font-family="Helvetica,sans-Serif" font-size="10.00">grav_short_pair</text>
</a>
</g>
</g>
<!-- Node3&#45;&gt;Node13 -->
<g id="edge15" class="edge">
<title>Node3&#45;&gt;Node13</title>
<path fill="none" stroke="midnightblue" d="M1098.62,-541.28C1088.67,-567.9 1066.69,-615.01 1030,-636 923.63,-696.87 771.19,-678.49 697.96,-664.5"/>
<polygon fill="midnightblue" stroke="midnightblue" points="1102.02,-542.16 1102.05,-531.56 1095.42,-539.82 1102.02,-542.16"/>
</g>
<!-- Node16 -->
<g id="node16" class="node">
<title>Node16</title>
<g id="a_node16"><a xlink:href="gravity_8h.html#af372a315ec289670ceaf43db26a36b43" target="_top" xlink:title=" ">
<polygon fill="white" stroke="black" points="608,-711.5 608,-730.5 701,-730.5 701,-711.5 608,-711.5"/>
<text text-anchor="middle" x="654.5" y="-718.5" font-family="Helvetica,sans-Serif" font-size="10.00">grav_short_tree</text>
</a>
</g>
</g>
<!-- Node3&#45;&gt;Node16 -->
<g id="edge20" class="edge">
<title>Node3&#45;&gt;Node16</title>
<path fill="none" stroke="midnightblue" d="M1101.15,-541.67C1093.67,-574.22 1073.88,-638.77 1030,-670 930.3,-740.96 777.1,-735.6 701.27,-727.45"/>
<polygon fill="midnightblue" stroke="midnightblue" points="1104.64,-542.11 1103.3,-531.6 1097.79,-540.65 1104.64,-542.11"/>
</g>
<!-- Node23 -->
<g id="node23" class="node">
<title>Node23</title>
<g id="a_node23"><a xlink:href="hydra_8c.html#aab8e916e02126d7f36d2065cc5678dec" target="_top" xlink:title=" ">
<polygon fill="white" stroke="black" points="927,-531.5 927,-550.5 1001,-550.5 1001,-531.5 927,-531.5"/>
<text text-anchor="middle" x="964" y="-538.5" font-family="Helvetica,sans-Serif" font-size="10.00">hydro_force</text>
</a>
</g>
</g>
<!-- Node3&#45;&gt;Node23 -->
<g id="edge31" class="edge">
<title>Node3&#45;&gt;Node23</title>
<path fill="none" stroke="midnightblue" d="M1055.63,-528.7C1037.7,-531.13 1017.78,-533.84 1001.2,-536.09"/>
<polygon fill="midnightblue" stroke="midnightblue" points="1056.19,-532.16 1065.63,-527.34 1055.25,-525.22 1056.19,-532.16"/>
</g>
<!-- Node24 -->
<g id="node24" class="node">
<title>Node24</title>
<g id="a_node24"><a xlink:href="cooling__qso__lightup_8c.html#ad472e4014433bed14cf81e46a891cd8b" target="_top" xlink:title=" ">
<polygon fill="white" stroke="black" points="920,-607.5 920,-626.5 1008,-626.5 1008,-607.5 920,-607.5"/>
<text text-anchor="middle" x="964" y="-614.5" font-family="Helvetica,sans-Serif" font-size="10.00">ionize_all_part</text>
</a>
</g>
</g>
<!-- Node3&#45;&gt;Node24 -->
<g id="edge33" class="edge">
<title>Node3&#45;&gt;Node24</title>
<path fill="none" stroke="midnightblue" d="M1090.28,-539.51C1076.19,-555.33 1053.65,-578.31 1030,-593 1020.39,-598.97 1009.08,-603.79 998.61,-607.5"/>
<polygon fill="midnightblue" stroke="midnightblue" points="1093.27,-541.4 1097.19,-531.56 1087.99,-536.81 1093.27,-541.4"/>
</g>
<!-- Node27 -->
<g id="node27" class="node">
<title>Node27</title>
<g id="a_node27"><a xlink:href="metal__return_8c.html#a7c817252ab7c0f679fea71bde6dea852" target="_top" xlink:title=" ">
<polygon fill="white" stroke="black" points="614.5,-379.5 614.5,-398.5 694.5,-398.5 694.5,-379.5 614.5,-379.5"/>
<text text-anchor="middle" x="654.5" y="-386.5" font-family="Helvetica,sans-Serif" font-size="10.00">metal_return</text>
</a>
</g>
</g>
<!-- Node3&#45;&gt;Node27 -->
<g id="edge37" class="edge">
<title>Node3&#45;&gt;Node27</title>
<path fill="none" stroke="midnightblue" d="M1092.7,-503.86C1079.46,-485.94 1056.69,-459.34 1030,-446 917.66,-389.86 873.85,-428.83 750,-408 731.85,-404.95 711.85,-401.01 694.94,-397.51"/>
<polygon fill="midnightblue" stroke="midnightblue" points="1090.07,-506.21 1098.72,-512.33 1095.77,-502.15 1090.07,-506.21"/>
</g>
<!-- Node28 -->
<g id="node28" class="node">
<title>Node28</title>
<g id="a_node28"><a xlink:href="treewalk_8c.html#a72643adf5c7952933b8f5fbb27d45a97" target="_top" xlink:title=" ">
<polygon fill="white" stroke="black" points="898,-303.5 898,-322.5 1030,-322.5 1030,-303.5 898,-303.5"/>
<text text-anchor="middle" x="964" y="-310.5" font-family="Helvetica,sans-Serif" font-size="10.00">treewalk_do_hsml_loop</text>
</a>
</g>
</g>
<!-- Node3&#45;&gt;Node28 -->
<g id="edge39" class="edge">
<title>Node3&#45;&gt;Node28</title>
<path fill="none" stroke="midnightblue" d="M1102.34,-502.38C1096.28,-465.09 1078.04,-383.55 1030,-337 1023.52,-330.72 1015.26,-326.06 1006.82,-322.61"/>
<polygon fill="midnightblue" stroke="midnightblue" points="1098.9,-503.07 1103.85,-512.44 1105.83,-502.03 1098.9,-503.07"/>
</g>
<!-- Node75 -->
<g id="node46" class="node">
<title>Node75</title>
<g id="a_node46"><a xlink:href="winds_8c.html#addbf19ca865e66f66ff2402b7dde8de6" target="_top" xlink:title=" ">
<polygon fill="white" stroke="black" points="595,-341.5 595,-360.5 714,-360.5 714,-341.5 595,-341.5"/>
<text text-anchor="middle" x="654.5" y="-348.5" font-family="Helvetica,sans-Serif" font-size="10.00">winds_and_feedback</text>
</a>
</g>
</g>
<!-- Node3&#45;&gt;Node75 -->
<g id="edge74" class="edge">
<title>Node3&#45;&gt;Node75</title>
<path fill="none" stroke="midnightblue" d="M1097.49,-502.85C1086.56,-477.56 1063.8,-433.48 1030,-410 934.73,-343.81 793.13,-340.79 714.15,-345.34"/>
<polygon fill="midnightblue" stroke="midnightblue" points="1094.39,-504.53 1101.45,-512.43 1100.86,-501.85 1094.39,-504.53"/>
</g>
<!-- Node5 -->
<g id="node5" class="node">
<title>Node5</title>
<g id="a_node5"><a xlink:href="run_8c.html#a89690448ef43a8d624b963382b7503ed" target="_top" xlink:title=" ">
<polygon fill="white" stroke="black" points="299.5,-531.5 299.5,-550.5 331.5,-550.5 331.5,-531.5 299.5,-531.5"/>
<text text-anchor="middle" x="315.5" y="-538.5" font-family="Helvetica,sans-Serif" font-size="10.00">run</text>
</a>
</g>
</g>
<!-- Node4&#45;&gt;Node5 -->
<g id="edge4" class="edge">
<title>Node4&#45;&gt;Node5</title>
<path fill="none" stroke="midnightblue" d="M763.44,-577.62C691.62,-574.97 539.73,-568.24 412,-555 383.5,-552.05 350.46,-546.79 331.67,-543.63"/>
<polygon fill="midnightblue" stroke="midnightblue" points="763.73,-581.13 773.85,-577.99 763.98,-574.14 763.73,-581.13"/>
</g>
<!-- Node6 -->
<g id="node6" class="node">
<title>Node6</title>
<g id="a_node6"><a xlink:href="gadget_2main_8c.html#a3c04138a5bfe5d72780bb7e82a18e627" target="_top" xlink:title=" ">
<polygon fill="white" stroke="black" points="127.5,-531.5 127.5,-550.5 168.5,-550.5 168.5,-531.5 127.5,-531.5"/>
<text text-anchor="middle" x="148" y="-538.5" font-family="Helvetica,sans-Serif" font-size="10.00">main</text>
</a>
</g>
</g>
<!-- Node5&#45;&gt;Node6 -->
<g id="edge5" class="edge">
<title>Node5&#45;&gt;Node6</title>
<path fill="none" stroke="midnightblue" d="M288.96,-541C255.76,-541 198.48,-541 168.53,-541"/>
<polygon fill="midnightblue" stroke="midnightblue" points="289.23,-544.5 299.23,-541 289.23,-537.5 289.23,-544.5"/>
</g>
<!-- Node8 -->
<g id="node8" class="node">
<title>Node8</title>
<g id="a_node8"><a xlink:href="fof_8c.html#aef0df27f65ad2e5a95f66ae4e970da23" target="_top" xlink:title=" ">
<polygon fill="white" stroke="black" points="781.5,-455.5 781.5,-474.5 830.5,-474.5 830.5,-455.5 781.5,-455.5"/>
<text text-anchor="middle" x="806" y="-462.5" font-family="Helvetica,sans-Serif" font-size="10.00">fof_fof</text>
</a>
</g>
</g>
<!-- Node7&#45;&gt;Node8 -->
<g id="edge7" class="edge">
<title>Node7&#45;&gt;Node8</title>
<path fill="none" stroke="midnightblue" d="M913.72,-491C886.04,-484.25 852.76,-476.15 830.8,-470.8"/>
<polygon fill="midnightblue" stroke="midnightblue" points="913.09,-494.44 923.63,-493.41 914.75,-487.64 913.09,-494.44"/>
</g>
<!-- Node8&#45;&gt;Node5 -->
<g id="edge8" class="edge">
<title>Node8&#45;&gt;Node5</title>
<path fill="none" stroke="midnightblue" d="M771.07,-472.63C754,-476.32 732.96,-480.67 714,-484 580.46,-507.42 546.18,-507.61 412,-527 383.64,-531.1 350.56,-535.97 331.71,-538.75"/>
<polygon fill="midnightblue" stroke="midnightblue" points="772.11,-475.98 781.13,-470.42 770.61,-469.14 772.11,-475.98"/>
</g>
<!-- Node9 -->
<g id="node9" class="node">
<title>Node9</title>
<g id="a_node9"><a xlink:href="run_8c.html#a02ef4c629cc0fea15dce527f09ea672f" target="_top" xlink:title=" ">
<polygon fill="white" stroke="black" points="292.5,-467.5 292.5,-486.5 338.5,-486.5 338.5,-467.5 292.5,-467.5"/>
<text text-anchor="middle" x="315.5" y="-474.5" font-family="Helvetica,sans-Serif" font-size="10.00">runfof</text>
</a>
</g>
</g>
<!-- Node8&#45;&gt;Node9 -->
<g id="edge9" class="edge">
<title>Node8&#45;&gt;Node9</title>
<path fill="none" stroke="midnightblue" d="M771.23,-456.22C754.2,-452.24 733.14,-447.98 714,-446 580.49,-432.21 544.49,-424.5 412,-446 395.35,-448.7 392.03,-452.77 376,-458 363.63,-462.04 349.78,-466.46 338.56,-470.03"/>
<polygon fill="midnightblue" stroke="midnightblue" points="770.72,-459.7 781.26,-458.64 772.36,-452.89 770.72,-459.7"/>
</g>
<!-- Node10 -->
<g id="node10" class="node">
<title>Node10</title>
<g id="a_node10"><a xlink:href="test__fof_8c.html#a2b2edcaa960047ba6c815956c46d82a6" target="_top" xlink:title=" ">
<polygon fill="white" stroke="black" points="627.5,-455.5 627.5,-474.5 681.5,-474.5 681.5,-455.5 627.5,-455.5"/>
<text text-anchor="middle" x="654.5" y="-462.5" font-family="Helvetica,sans-Serif" font-size="10.00">test_fof</text>
</a>
</g>
</g>
<!-- Node8&#45;&gt;Node10 -->
<g id="edge11" class="edge">
<title>Node8&#45;&gt;Node10</title>
<path fill="none" stroke="midnightblue" d="M771.1,-465C743.96,-465 706.43,-465 681.59,-465"/>
<polygon fill="midnightblue" stroke="midnightblue" points="771.31,-468.5 781.31,-465 771.31,-461.5 771.31,-468.5"/>
</g>
<!-- Node9&#45;&gt;Node6 -->
<g id="edge10" class="edge">
<title>Node9&#45;&gt;Node6</title>
<path fill="none" stroke="midnightblue" d="M282.81,-489.26C249.2,-502.25 197.16,-522.38 168.9,-533.3"/>
<polygon fill="midnightblue" stroke="midnightblue" points="284.12,-492.5 292.18,-485.63 281.59,-485.97 284.12,-492.5"/>
</g>
<!-- Node11 -->
<g id="node11" class="node">
<title>Node11</title>
<g id="a_node11"><a xlink:href="test__fof_8c.html#a840291bc02cba5474a4cb46a9b9566fe" target="_top" xlink:title=" ">
<polygon fill="white" stroke="black" points="465,-455.5 465,-474.5 506,-474.5 506,-455.5 465,-455.5"/>
<text text-anchor="middle" x="485.5" y="-462.5" font-family="Helvetica,sans-Serif" font-size="10.00">main</text>
</a>
</g>
</g>
<!-- Node10&#45;&gt;Node11 -->
<g id="edge12" class="edge">
<title>Node10&#45;&gt;Node11</title>
<path fill="none" stroke="midnightblue" d="M617.37,-465C583.28,-465 533.43,-465 506.15,-465"/>
<polygon fill="midnightblue" stroke="midnightblue" points="617.41,-468.5 627.41,-465 617.41,-461.5 617.41,-468.5"/>
</g>
<!-- Node12&#45;&gt;Node8 -->
<g id="edge14" class="edge">
<title>Node12&#45;&gt;Node8</title>
<path fill="none" stroke="midnightblue" d="M895.99,-465C872.64,-465 847.94,-465 830.51,-465"/>
<polygon fill="midnightblue" stroke="midnightblue" points="896.24,-468.5 906.24,-465 896.24,-461.5 896.24,-468.5"/>
</g>
<!-- Node13&#45;&gt;Node5 -->
<g id="edge16" class="edge">
<title>Node13&#45;&gt;Node5</title>
<path fill="none" stroke="midnightblue" d="M598.35,-661.15C547.57,-664.44 471.35,-663.27 412,-636 370.14,-616.77 336.15,-570.88 322.71,-550.75"/>
<polygon fill="midnightblue" stroke="midnightblue" points="598.75,-664.63 608.46,-660.41 598.24,-657.65 598.75,-664.63"/>
</g>
<!-- Node14 -->
<g id="node14" class="node">
<title>Node14</title>
<g id="a_node14"><a xlink:href="run_8h.html#aa438e424237818b7728b98cd764e45d1" target="_top" xlink:title=" ">
<polygon fill="white" stroke="black" points="437.5,-721.5 437.5,-740.5 533.5,-740.5 533.5,-721.5 437.5,-721.5"/>
<text text-anchor="middle" x="485.5" y="-728.5" font-family="Helvetica,sans-Serif" font-size="10.00">run_gravity_test</text>
</a>
</g>
</g>
<!-- Node13&#45;&gt;Node14 -->
<g id="edge17" class="edge">
<title>Node13&#45;&gt;Node14</title>
<path fill="none" stroke="midnightblue" d="M623.04,-668.86C589.55,-684.1 536.62,-708.19 507.48,-721.45"/>
<polygon fill="midnightblue" stroke="midnightblue" points="624.7,-671.95 632.35,-664.63 621.8,-665.58 624.7,-671.95"/>
</g>
<!-- Node15 -->
<g id="node15" class="node">
<title>Node15</title>
<g id="a_node15"><a xlink:href="run_8c.html#ab1d8bf99f794003fa95002043fe3b47c" target="_top" xlink:title=" ">
<polygon fill="white" stroke="black" points="287.5,-626.5 287.5,-645.5 343.5,-645.5 343.5,-626.5 287.5,-626.5"/>
<text text-anchor="middle" x="315.5" y="-633.5" font-family="Helvetica,sans-Serif" font-size="10.00">runtests</text>
</a>
</g>
</g>
<!-- Node14&#45;&gt;Node15 -->
<g id="edge18" class="edge">
<title>Node14&#45;&gt;Node15</title>
<path fill="none" stroke="midnightblue" d="M438.53,-718.25C429.52,-715.07 420.29,-711.31 412,-707 378.27,-689.46 343.69,-660.46 326.91,-645.53"/>
<polygon fill="midnightblue" stroke="midnightblue" points="437.58,-721.62 448.17,-721.47 439.8,-714.98 437.58,-721.62"/>
</g>
<!-- Node15&#45;&gt;Node6 -->
<g id="edge19" class="edge">
<title>Node15&#45;&gt;Node6</title>
<path fill="none" stroke="midnightblue" d="M288.78,-621.23C254.51,-601.57 194.85,-567.32 165.82,-550.66"/>
<polygon fill="midnightblue" stroke="midnightblue" points="287.31,-624.43 297.72,-626.37 290.79,-618.35 287.31,-624.43"/>
</g>
<!-- Node16&#45;&gt;Node5 -->
<g id="edge29" class="edge">
<title>Node16&#45;&gt;Node5</title>
<path fill="none" stroke="midnightblue" d="M597.91,-712.33C536.51,-701.99 442.32,-683.62 412,-664 389.91,-649.7 392.11,-637.8 376,-617 357.53,-593.15 335.62,-565.27 324.24,-550.81"/>
<polygon fill="midnightblue" stroke="midnightblue" points="597.4,-715.8 607.84,-713.98 598.55,-708.89 597.4,-715.8"/>
</g>
<!-- Node16&#45;&gt;Node14 -->
<g id="edge30" class="edge">
<title>Node16&#45;&gt;Node14</title>
<path fill="none" stroke="midnightblue" d="M597.87,-724.33C577.01,-725.58 553.53,-726.99 533.53,-728.18"/>
<polygon fill="midnightblue" stroke="midnightblue" points="598.09,-727.82 607.87,-723.73 597.68,-720.84 598.09,-727.82"/>
</g>
<!-- Node17 -->
<g id="node17" class="node">
<title>Node17</title>
<g id="a_node17"><a xlink:href="test__gravity_8c.html#aa6bdcef3f6cb327efb3f2f993f64b7ce" target="_top" xlink:title=" ">
<polygon fill="white" stroke="black" points="444,-759.5 444,-778.5 527,-778.5 527,-759.5 444,-759.5"/>
<text text-anchor="middle" x="485.5" y="-766.5" font-family="Helvetica,sans-Serif" font-size="10.00">do_force_test</text>
</a>
</g>
</g>
<!-- Node16&#45;&gt;Node17 -->
<g id="edge21" class="edge">
<title>Node16&#45;&gt;Node17</title>
<path fill="none" stroke="midnightblue" d="M613.37,-733.72C596.61,-738.92 576.91,-744.91 559,-750 547.74,-753.2 535.43,-756.5 524.21,-759.43"/>
<polygon fill="midnightblue" stroke="midnightblue" points="614.88,-736.91 623.38,-730.59 612.79,-730.23 614.88,-736.91"/>
</g>
<!-- Node18 -->
<g id="node18" class="node">
<title>Node18</title>
<g id="a_node18"><a xlink:href="test__gravity_8c.html#a31e06bbad4eac810c349a6bc44a0aa08" target="_top" xlink:title=" ">
<polygon fill="white" stroke="black" points="268,-759.5 268,-778.5 363,-778.5 363,-759.5 268,-759.5"/>
<text text-anchor="middle" x="315.5" y="-766.5" font-family="Helvetica,sans-Serif" font-size="10.00">do_random_test</text>
</a>
</g>
</g>
<!-- Node17&#45;&gt;Node18 -->
<g id="edge22" class="edge">
<title>Node17&#45;&gt;Node18</title>
<path fill="none" stroke="midnightblue" d="M433.79,-769C411.3,-769 385.01,-769 363.03,-769"/>
<polygon fill="midnightblue" stroke="midnightblue" points="433.83,-772.5 443.83,-769 433.83,-765.5 433.83,-772.5"/>
</g>
<!-- Node21 -->
<g id="node21" class="node">
<title>Node21</title>
<g id="a_node21"><a xlink:href="test__gravity_8c.html#ac3391a3ee98d428389e50b886e988c63" target="_top" xlink:title=" ">
<polygon fill="white" stroke="black" points="267.5,-721.5 267.5,-740.5 363.5,-740.5 363.5,-721.5 267.5,-721.5"/>
<text text-anchor="middle" x="315.5" y="-728.5" font-family="Helvetica,sans-Serif" font-size="10.00">test_force_close</text>
</a>
</g>
</g>
<!-- Node17&#45;&gt;Node21 -->
<g id="edge25" class="edge">
<title>Node17&#45;&gt;Node21</title>
<path fill="none" stroke="midnightblue" d="M433.82,-757.54C409.77,-752.1 381.38,-745.68 358.55,-740.51"/>
<polygon fill="midnightblue" stroke="midnightblue" points="433.31,-761.01 443.83,-759.8 434.85,-754.18 433.31,-761.01"/>
</g>
<!-- Node22 -->
<g id="node22" class="node">
<title>Node22</title>
<g id="a_node22"><a xlink:href="test__gravity_8c.html#a87bcba11fc8f8f2ad649784bb1b8a48d" target="_top" xlink:title=" ">
<polygon fill="white" stroke="black" points="272.5,-797.5 272.5,-816.5 358.5,-816.5 358.5,-797.5 272.5,-797.5"/>
<text text-anchor="middle" x="315.5" y="-804.5" font-family="Helvetica,sans-Serif" font-size="10.00">test_force_flat</text>
</a>
</g>
</g>
<!-- Node17&#45;&gt;Node22 -->
<g id="edge27" class="edge">
<title>Node17&#45;&gt;Node22</title>
<path fill="none" stroke="midnightblue" d="M433.82,-780.46C409.77,-785.9 381.38,-792.32 358.55,-797.49"/>
<polygon fill="midnightblue" stroke="midnightblue" points="434.85,-783.82 443.83,-778.2 433.31,-776.99 434.85,-783.82"/>
</g>
<!-- Node19 -->
<g id="node19" class="node">
<title>Node19</title>
<g id="a_node19"><a xlink:href="test__gravity_8c.html#a17492d7388898745e66a636173c8ce1d" target="_top" xlink:title=" ">
<polygon fill="white" stroke="black" points="94,-759.5 94,-778.5 202,-778.5 202,-759.5 94,-759.5"/>
<text text-anchor="middle" x="148" y="-766.5" font-family="Helvetica,sans-Serif" font-size="10.00">test_force_random</text>
</a>
</g>
</g>
<!-- Node18&#45;&gt;Node19 -->
<g id="edge23" class="edge">
<title>Node18&#45;&gt;Node19</title>
<path fill="none" stroke="midnightblue" d="M257.87,-769C239.84,-769 219.97,-769 202.19,-769"/>
<polygon fill="midnightblue" stroke="midnightblue" points="257.96,-772.5 267.96,-769 257.96,-765.5 257.96,-772.5"/>
</g>
<!-- Node20 -->
<g id="node20" class="node">
<title>Node20</title>
<g id="a_node20"><a xlink:href="test__gravity_8c.html#a840291bc02cba5474a4cb46a9b9566fe" target="_top" xlink:title=" ">
<polygon fill="white" stroke="black" points="0,-759.5 0,-778.5 41,-778.5 41,-759.5 0,-759.5"/>
<text text-anchor="middle" x="20.5" y="-766.5" font-family="Helvetica,sans-Serif" font-size="10.00">main</text>
</a>
</g>
</g>
<!-- Node19&#45;&gt;Node20 -->
<g id="edge24" class="edge">
<title>Node19&#45;&gt;Node20</title>
<path fill="none" stroke="midnightblue" d="M83.62,-769C68.12,-769 52.66,-769 41.05,-769"/>
<polygon fill="midnightblue" stroke="midnightblue" points="83.78,-772.5 93.78,-769 83.78,-765.5 83.78,-772.5"/>
</g>
<!-- Node21&#45;&gt;Node20 -->
<g id="edge26" class="edge">
<title>Node21&#45;&gt;Node20</title>
<path fill="none" stroke="midnightblue" d="M256.85,-731.6C208.4,-733.05 137.56,-737.42 77,-750 64.83,-752.53 51.66,-756.96 41.2,-760.91"/>
<polygon fill="midnightblue" stroke="midnightblue" points="257.24,-735.09 267.14,-731.32 257.05,-728.09 257.24,-735.09"/>
</g>
<!-- Node22&#45;&gt;Node20 -->
<g id="edge28" class="edge">
<title>Node22&#45;&gt;Node20</title>
<path fill="none" stroke="midnightblue" d="M262.19,-806.55C213.71,-805.26 139.82,-801.05 77,-788 64.83,-785.47 51.66,-781.04 41.2,-777.09"/>
<polygon fill="midnightblue" stroke="midnightblue" points="262.36,-810.06 272.44,-806.79 262.52,-803.06 262.36,-810.06"/>
</g>
<!-- Node23&#45;&gt;Node5 -->
<g id="edge32" class="edge">
<title>Node23&#45;&gt;Node5</title>
<path fill="none" stroke="midnightblue" d="M916.68,-541C784.77,-541 411.46,-541 331.64,-541"/>
<polygon fill="midnightblue" stroke="midnightblue" points="916.86,-544.5 926.86,-541 916.86,-537.5 916.86,-544.5"/>
</g>
<!-- Node25 -->
<g id="node25" class="node">
<title>Node25</title>
<g id="a_node25"><a xlink:href="cooling__qso__lightup_8c.html#a047bd5886141415004b83a046b49d5cc" target="_top" xlink:title=" ">
<polygon fill="white" stroke="black" points="757.5,-607.5 757.5,-626.5 854.5,-626.5 854.5,-607.5 757.5,-607.5"/>
<text text-anchor="middle" x="806" y="-614.5" font-family="Helvetica,sans-Serif" font-size="10.00">turn_on_quasars</text>
</a>
</g>
</g>
<!-- Node24&#45;&gt;Node25 -->
<g id="edge34" class="edge">
<title>Node24&#45;&gt;Node25</title>
<path fill="none" stroke="midnightblue" d="M909.93,-617C891.98,-617 872.06,-617 854.56,-617"/>
<polygon fill="midnightblue" stroke="midnightblue" points="909.96,-620.5 919.96,-617 909.96,-613.5 909.96,-620.5"/>
</g>
<!-- Node26 -->
<g id="node26" class="node">
<title>Node26</title>
<g id="a_node26"><a xlink:href="cooling__qso__lightup_8c.html#a42cfb86673e895125f77c946b7db8ced" target="_top" xlink:title=" ">
<polygon fill="white" stroke="black" points="426.5,-607.5 426.5,-626.5 544.5,-626.5 544.5,-607.5 426.5,-607.5"/>
<text text-anchor="middle" x="485.5" y="-614.5" font-family="Helvetica,sans-Serif" font-size="10.00">do_heiii_reionization</text>
</a>
</g>
</g>
<!-- Node25&#45;&gt;Node26 -->
<g id="edge35" class="edge">
<title>Node25&#45;&gt;Node26</title>
<path fill="none" stroke="midnightblue" d="M747.31,-617C689.84,-617 602.1,-617 544.51,-617"/>
<polygon fill="midnightblue" stroke="midnightblue" points="747.32,-620.5 757.32,-617 747.32,-613.5 747.32,-620.5"/>
</g>
<!-- Node26&#45;&gt;Node5 -->
<g id="edge36" class="edge">
<title>Node26&#45;&gt;Node5</title>
<path fill="none" stroke="midnightblue" d="M441.85,-604.29C431.92,-600.95 421.49,-597.11 412,-593 382.56,-580.23 350.1,-561.49 331.62,-550.34"/>
<polygon fill="midnightblue" stroke="midnightblue" points="440.96,-607.68 451.55,-607.47 443.14,-601.03 440.96,-607.68"/>
</g>
<!-- Node27&#45;&gt;Node5 -->
<g id="edge38" class="edge">
<title>Node27&#45;&gt;Node5</title>
<path fill="none" stroke="midnightblue" d="M603.95,-390.67C552.1,-394.57 470.3,-407.03 412,-446 389.24,-461.22 395.13,-476.41 376,-496 362.43,-509.9 344.33,-522.96 331.67,-531.39"/>
<polygon fill="midnightblue" stroke="midnightblue" points="604.48,-394.14 614.22,-389.98 604.01,-387.15 604.48,-394.14"/>
</g>
<!-- Node29 -->
<g id="node29" class="node">
<title>Node29</title>
<g id="a_node29"><a xlink:href="density_8c.html#ac49d34dfc3f4e37cac0953d5bc1417a4" target="_top" xlink:title=" ">
<polygon fill="white" stroke="black" points="459,-265.5 459,-284.5 512,-284.5 512,-265.5 459,-265.5"/>
<text text-anchor="middle" x="485.5" y="-272.5" font-family="Helvetica,sans-Serif" font-size="10.00">density</text>
</a>
</g>
</g>
<!-- Node28&#45;&gt;Node29 -->
<g id="edge40" class="edge">
<title>Node28&#45;&gt;Node29</title>
<path fill="none" stroke="midnightblue" d="M909.62,-301.56C894.31,-298.66 877.55,-295.85 862,-294 731.07,-278.44 572.97,-275.61 512.1,-275.1"/>
<polygon fill="midnightblue" stroke="midnightblue" points="908.97,-305 919.45,-303.47 910.3,-298.13 908.97,-305"/>
</g>
<!-- Node73 -->
<g id="node44" class="node">
<title>Node73</title>
<g id="a_node44"><a xlink:href="metal__return_8c.html#ac6208618c0ad5ad55e84bcfb213e7dcb" target="_top" xlink:title=" ">
<polygon fill="white" stroke="black" points="761.5,-379.5 761.5,-398.5 850.5,-398.5 850.5,-379.5 761.5,-379.5"/>
<text text-anchor="middle" x="806" y="-386.5" font-family="Helvetica,sans-Serif" font-size="10.00">stellar_density</text>
</a>
</g>
</g>
<!-- Node28&#45;&gt;Node73 -->
<g id="edge65" class="edge">
<title>Node28&#45;&gt;Node73</title>
<path fill="none" stroke="midnightblue" d="M934.14,-327.06C902.83,-342.31 853.7,-366.25 826.6,-379.45"/>
<polygon fill="midnightblue" stroke="midnightblue" points="935.79,-330.15 943.24,-322.63 932.72,-323.86 935.79,-330.15"/>
</g>
<!-- Node74 -->
<g id="node45" class="node">
<title>Node74</title>
<g id="a_node45"><a xlink:href="winds_8c.html#ada438f91fe37bf38ff3b49a86ef5528e" target="_top" xlink:title=" ">
<polygon fill="white" stroke="black" points="750,-303.5 750,-322.5 862,-322.5 862,-303.5 750,-303.5"/>
<text text-anchor="middle" x="806" y="-310.5" font-family="Helvetica,sans-Serif" font-size="10.00">winds_find_weights</text>
</a>
</g>
</g>
<!-- Node28&#45;&gt;Node74 -->
<g id="edge67" class="edge">
<title>Node28&#45;&gt;Node74</title>
<path fill="none" stroke="midnightblue" d="M887.67,-313C879.05,-313 870.39,-313 862.1,-313"/>
<polygon fill="midnightblue" stroke="midnightblue" points="887.75,-316.5 897.75,-313 887.75,-309.5 887.75,-316.5"/>
</g>
<!-- Node29&#45;&gt;Node5 -->
<g id="edge60" class="edge">
<title>Node29&#45;&gt;Node5</title>
<path fill="none" stroke="midnightblue" d="M457.28,-289.93C441.7,-299.85 423.1,-314.31 412,-332 372.34,-395.21 416.25,-433.16 376,-496 365.1,-513.01 345.39,-526 331.66,-533.55"/>
<polygon fill="midnightblue" stroke="midnightblue" points="459.3,-292.8 466.03,-284.61 455.67,-286.81 459.3,-292.8"/>
</g>
<!-- Node29&#45;&gt;Node9 -->
<g id="edge61" class="edge">
<title>Node29&#45;&gt;Node9</title>
<path fill="none" stroke="midnightblue" d="M457.97,-289.99C442.47,-300.02 423.72,-314.56 412,-332 379.53,-380.35 416.54,-416.19 376,-458 366.26,-468.04 351.23,-472.79 338.71,-475.03"/>
<polygon fill="midnightblue" stroke="midnightblue" points="459.99,-292.86 466.65,-284.62 456.3,-286.91 459.99,-292.86"/>
</g>
<!-- Node30 -->
<g id="node30" class="node">
<title>Node30</title>
<g id="a_node30"><a xlink:href="density_8c.html#ae39f5a18f937d210e258c8e8cb710044" target="_top" xlink:title=" ">
<polygon fill="white" stroke="black" points="257.5,-429.5 257.5,-448.5 373.5,-448.5 373.5,-429.5 257.5,-429.5"/>
<text text-anchor="middle" x="315.5" y="-436.5" font-family="Helvetica,sans-Serif" font-size="10.00">density_postprocess</text>
</a>
</g>
</g>
<!-- Node29&#45;&gt;Node30 -->
<g id="edge41" class="edge">
<title>Node29&#45;&gt;Node30</title>
<path fill="none" stroke="midnightblue" d="M450.21,-288.21C436.97,-297.14 422.51,-309.37 412,-323 387.45,-354.84 404.8,-377.94 376,-406 363.56,-418.13 344.18,-424.39 330.95,-429.46"/>
<polygon fill="midnightblue" stroke="midnightblue" points="452.12,-291.14 458.69,-282.82 448.37,-285.23 452.12,-291.14"/>
</g>
<!-- Node31 -->
<g id="node31" class="node">
<title>Node31</title>
<g id="a_node31"><a xlink:href="test__density_8c.html#a1f2c8c2a35e14ec19a93d42363f0fe55" target="_top" xlink:title=" ">
<polygon fill="white" stroke="red" points="268.5,-265.5 268.5,-284.5 362.5,-284.5 362.5,-265.5 268.5,-265.5"/>
<text text-anchor="middle" x="315.5" y="-272.5" font-family="Helvetica,sans-Serif" font-size="10.00">do_density_test</text>
</a>
</g>
</g>
<!-- Node29&#45;&gt;Node31 -->
<g id="edge43" class="edge">
<title>Node29&#45;&gt;Node31</title>
<path fill="none" stroke="midnightblue" d="M448.79,-275C423.65,-275 389.77,-275 362.59,-275"/>
<polygon fill="midnightblue" stroke="midnightblue" points="448.98,-278.5 458.98,-275 448.98,-271.5 448.98,-278.5"/>
</g>
<!-- Node36 -->
<g id="node34" class="node">
<title>Node36</title>
<g id="a_node34"><a xlink:href="cooling__rates_8c.html#a3bb9e77ab6f85db5eaded74d8532e817" target="_top" xlink:title=" ">
<polygon fill="white" stroke="black" points="255,-353.5 255,-372.5 376,-372.5 376,-353.5 255,-353.5"/>
<text text-anchor="middle" x="315.5" y="-360.5" font-family="Helvetica,sans-Serif" font-size="10.00">get_compton_cooling</text>
</a>
</g>
</g>
<!-- Node29&#45;&gt;Node36 -->
<g id="edge46" class="edge">
<title>Node29&#45;&gt;Node36</title>
<path fill="none" stroke="midnightblue" d="M463.08,-290.55C441.8,-305.49 407.82,-327.94 376,-343 367.63,-346.96 358.26,-350.5 349.47,-353.45"/>
<polygon fill="midnightblue" stroke="midnightblue" points="465.26,-293.3 471.38,-284.66 461.2,-287.59 465.26,-293.3"/>
</g>
<!-- Node37 -->
<g id="node35" class="node">
<title>Node37</title>
<g id="a_node35"><a xlink:href="cooling__rates_8c.html#a49fe0aaef8ccce8a7757d95bd7e747bc" target="_top" xlink:title=" ">
<polygon fill="white" stroke="red" points="271.5,-113.5 271.5,-132.5 359.5,-132.5 359.5,-113.5 271.5,-113.5"/>
<text text-anchor="middle" x="315.5" y="-120.5" font-family="Helvetica,sans-Serif" font-size="10.00">get_equilib_ne</text>
</a>
</g>
</g>
<!-- Node29&#45;&gt;Node37 -->
<g id="edge47" class="edge">
<title>Node29&#45;&gt;Node37</title>
<path fill="none" stroke="midnightblue" d="M473.2,-256.69C455.52,-229.41 418.88,-177.97 376,-147 367.69,-141 357.67,-136.21 348.24,-132.54"/>
<polygon fill="midnightblue" stroke="midnightblue" points="470.32,-258.7 478.64,-265.27 476.23,-254.95 470.32,-258.7"/>
</g>
<!-- Node38 -->
<g id="node36" class="node">
<title>Node38</title>
<g id="a_node36"><a xlink:href="cooling__rates_8c.html#a95acdc83b28994ee3d85976205493223" target="_top" xlink:title=" ">
<polygon fill="white" stroke="red" points="81,-0.5 81,-19.5 215,-19.5 215,-0.5 81,-0.5"/>
<text text-anchor="middle" x="148" y="-7.5" font-family="Helvetica,sans-Serif" font-size="10.00">get_heatingcooling_rate</text>
</a>
</g>
</g>
<!-- Node29&#45;&gt;Node38 -->
<g id="edge54" class="edge">
<title>Node29&#45;&gt;Node38</title>
<path fill="none" stroke="midnightblue" d="M481.71,-255.36C474.08,-209.58 448.39,-95.62 376,-42 330.03,-7.95 264.11,-2.05 215.14,-3.42"/>
<polygon fill="midnightblue" stroke="midnightblue" points="478.28,-256.11 483.28,-265.45 485.2,-255.03 478.28,-256.11"/>
</g>
<!-- Node63 -->
<g id="node37" class="node">
<title>Node63</title>
<g id="a_node37"><a xlink:href="cooling__rates_8c.html#a7d2ed144da379e39dba0b89504f18b3f" target="_top" xlink:title=" ">
<polygon fill="white" stroke="red" points="77,-214.5 77,-233.5 219,-233.5 219,-214.5 77,-214.5"/>
<text text-anchor="middle" x="148" y="-221.5" font-family="Helvetica,sans-Serif" font-size="10.00">get_helium_ion_phys_cgs</text>
</a>
</g>
</g>
<!-- Node29&#45;&gt;Node63 -->
<g id="edge55" class="edge">
<title>Node29&#45;&gt;Node63</title>
<path fill="none" stroke="midnightblue" d="M448.83,-268.45C427.69,-264.64 400.35,-259.85 376,-256 323.52,-247.71 264.04,-239.36 219.14,-233.27"/>
<polygon fill="midnightblue" stroke="midnightblue" points="448.21,-271.89 458.67,-270.23 449.46,-265 448.21,-271.89"/>
</g>
<!-- Node65 -->
<g id="node38" class="node">
<title>Node65</title>
<g id="a_node38"><a xlink:href="cooling__rates_8c.html#af7b5f48ba3aba9d9bfd66f17d3b804dd" target="_top" xlink:title=" ">
<polygon fill="white" stroke="black" points="85,-176.5 85,-195.5 211,-195.5 211,-176.5 85,-176.5"/>
<text text-anchor="middle" x="148" y="-183.5" font-family="Helvetica,sans-Serif" font-size="10.00">get_individual_cooling</text>
</a>
</g>
</g>
<!-- Node29&#45;&gt;Node65 -->
<g id="edge56" class="edge">
<title>Node29&#45;&gt;Node65</title>
<path fill="none" stroke="midnightblue" d="M451.98,-261.65C430.64,-253.22 401.96,-242.55 376,-235 317.93,-218.12 249.97,-204.2 203.66,-195.56"/>
<polygon fill="midnightblue" stroke="midnightblue" points="450.95,-265 461.53,-265.46 453.54,-258.5 450.95,-265"/>
</g>
<!-- Node66 -->
<g id="node39" class="node">
<title>Node66</title>
<g id="a_node39"><a xlink:href="cooling__rates_8c.html#a39b57e3a443ae27897938bc736562c52" target="_top" xlink:title=" ">
<polygon fill="white" stroke="black" points="106,-137.5 106,-156.5 190,-156.5 190,-137.5 106,-137.5"/>
<text text-anchor="middle" x="148" y="-144.5" font-family="Helvetica,sans-Serif" font-size="10.00">get_ne_by_nh</text>
</a>
</g>
</g>
<!-- Node29&#45;&gt;Node66 -->
<g id="edge57" class="edge">
<title>Node29&#45;&gt;Node66</title>
<path fill="none" stroke="midnightblue" d="M464.87,-258.93C444.02,-242.61 409.51,-217.72 376,-203 314.12,-175.82 236.71,-160.31 190.15,-152.78"/>
<polygon fill="midnightblue" stroke="midnightblue" points="462.92,-261.85 472.93,-265.34 467.28,-256.37 462.92,-261.85"/>
</g>
<!-- Node67 -->
<g id="node40" class="node">
<title>Node67</title>
<g id="a_node40"><a xlink:href="cooling__rates_8c.html#ac2956701ee030f7151eb7aee494f0ed5" target="_top" xlink:title=" ">
<polygon fill="white" stroke="red" points="90.5,-86 90.5,-116 205.5,-116 205.5,-86 90.5,-86"/>
<text text-anchor="start" x="98.5" y="-104" font-family="Helvetica,sans-Serif" font-size="10.00">get_neutral_fraction</text>
<text text-anchor="middle" x="148" y="-93" font-family="Helvetica,sans-Serif" font-size="10.00">_phys_cgs</text>
</a>
</g>
</g>
<!-- Node29&#45;&gt;Node67 -->
<g id="edge58" class="edge">
<title>Node29&#45;&gt;Node67</title>
<path fill="none" stroke="midnightblue" d="M478.94,-255.54C467.11,-218.2 435.51,-137.23 376,-104 323.87,-74.89 253.94,-79.18 205.53,-87.54"/>
<polygon fill="midnightblue" stroke="midnightblue" points="475.63,-256.68 481.88,-265.24 482.33,-254.65 475.63,-256.68"/>
</g>
<!-- Node70 -->
<g id="node41" class="node">
<title>Node70</title>
<g id="a_node41"><a xlink:href="cooling_8h.html#a9d49b5c9b051327b017b311226aa4730" target="_top" xlink:title=" ">
<polygon fill="white" stroke="red" points="116.5,-44.5 116.5,-63.5 179.5,-63.5 179.5,-44.5 116.5,-44.5"/>
<text text-anchor="middle" x="148" y="-51.5" font-family="Helvetica,sans-Serif" font-size="10.00">get_temp</text>
</a>
</g>
</g>
<!-- Node29&#45;&gt;Node70 -->
<g id="edge59" class="edge">
<title>Node29&#45;&gt;Node70</title>
<path fill="none" stroke="midnightblue" d="M480.21,-255.75C470.04,-215.1 440.35,-120.75 376,-78 315.92,-38.09 226.53,-42.8 179.88,-48.85"/>
<polygon fill="midnightblue" stroke="midnightblue" points="476.81,-256.57 482.53,-265.49 483.62,-254.95 476.81,-256.57"/>
</g>
<!-- Node71 -->
<g id="node42" class="node">
<title>Node71</title>
<g id="a_node42"><a xlink:href="init_8c.html#af35b2ff44ee11141241741fa051ad2ac" target="_top" xlink:title=" ">
<polygon fill="white" stroke="black" points="257,-304 257,-334 374,-334 374,-304 257,-304"/>
<text text-anchor="start" x="265" y="-322" font-family="Helvetica,sans-Serif" font-size="10.00">setup_density_indep</text>
<text text-anchor="middle" x="315.5" y="-311" font-family="Helvetica,sans-Serif" font-size="10.00">_entropy</text>
</a>
</g>
</g>
<!-- Node29&#45;&gt;Node71 -->
<g id="edge62" class="edge">
<title>Node29&#45;&gt;Node71</title>
<path fill="none" stroke="midnightblue" d="M449.18,-284.25C427.4,-289.96 398.95,-297.41 373.98,-303.94"/>
<polygon fill="midnightblue" stroke="midnightblue" points="450.2,-287.6 458.98,-281.68 448.42,-280.83 450.2,-287.6"/>
</g>
<!-- Node72 -->
<g id="node43" class="node">
<title>Node72</title>
<g id="a_node43"><a xlink:href="init_8c.html#a713a74e1e0ca55699bc6581763bae177" target="_top" xlink:title=" ">
<polygon fill="white" stroke="red" points="79.5,-360.5 79.5,-379.5 216.5,-379.5 216.5,-360.5 79.5,-360.5"/>
<text text-anchor="middle" x="148" y="-367.5" font-family="Helvetica,sans-Serif" font-size="10.00">setup_smoothinglengths</text>
</a>
</g>
</g>
<!-- Node29&#45;&gt;Node72 -->
<g id="edge64" class="edge">
<title>Node29&#45;&gt;Node72</title>
<path fill="none" stroke="midnightblue" d="M461.66,-290.41C446.66,-301.12 427.1,-316.25 412,-332 393.05,-351.77 400.37,-369.52 376,-382 310.49,-415.56 219.95,-393.85 175.62,-379.59"/>
<polygon fill="midnightblue" stroke="midnightblue" points="463.71,-293.25 469.9,-284.64 459.7,-287.51 463.71,-293.25"/>
</g>
<!-- Node30&#45;&gt;Node29 -->
<g id="edge42" class="edge">
<title>Node30&#45;&gt;Node29</title>
<path fill="none" stroke="midnightblue" d="M376.56,-422.1C402.45,-392.46 389.27,-370.48 412,-341 430.77,-316.66 462.17,-296.77 476.69,-284.54"/>
<polygon fill="midnightblue" stroke="midnightblue" points="373.96,-419.75 369.54,-429.38 379,-424.61 373.96,-419.75"/>
</g>
<!-- Node32 -->
<g id="node32" class="node">
<title>Node32</title>
<g id="a_node32"><a xlink:href="test__density_8c.html#ab398a273f1cc5a1816af9ef286a460f3" target="_top" xlink:title=" ">
<polygon fill="white" stroke="red" points="100.5,-252.5 100.5,-271.5 195.5,-271.5 195.5,-252.5 100.5,-252.5"/>
<text text-anchor="middle" x="148" y="-259.5" font-family="Helvetica,sans-Serif" font-size="10.00">do_random_test</text>
</a>
</g>
</g>
<!-- Node31&#45;&gt;Node32 -->
<g id="edge44" class="edge">
<title>Node31&#45;&gt;Node32</title>
<path fill="none" stroke="midnightblue" d="M258.31,-270.59C237.94,-268.99 215.18,-267.2 195.72,-265.67"/>
<polygon fill="midnightblue" stroke="midnightblue" points="258.16,-274.08 268.4,-271.38 258.7,-267.11 258.16,-274.08"/>
</g>
<!-- Node34 -->
<g id="node33" class="node">
<title>Node34</title>
<g id="a_node33"><a xlink:href="test__density_8c.html#a0b98ad62e33169daca9a098f23b22730" target="_top" xlink:title=" ">
<polygon fill="white" stroke="black" points="94.5,-290.5 94.5,-309.5 201.5,-309.5 201.5,-290.5 94.5,-290.5"/>
<text text-anchor="middle" x="148" y="-297.5" font-family="Helvetica,sans-Serif" font-size="10.00">test_density_close</text>
</a>
</g>
</g>
<!-- Node31&#45;&gt;Node34 -->
<g id="edge45" class="edge">
<title>Node31&#45;&gt;Node34</title>
<path fill="none" stroke="midnightblue" d="M258.41,-283.47C240.03,-286.25 219.68,-289.32 201.57,-292.06"/>
<polygon fill="midnightblue" stroke="midnightblue" points="259.03,-286.92 268.4,-281.96 257.99,-280 259.03,-286.92"/>
</g>
<!-- Node37&#45;&gt;Node38 -->
<g id="edge48" class="edge">
<title>Node37&#45;&gt;Node38</title>
<path fill="none" stroke="midnightblue" d="M299.89,-105.9C282.41,-86.37 251.41,-54.6 219,-35 208.4,-28.59 195.9,-23.47 184.43,-19.58"/>
<polygon fill="midnightblue" stroke="midnightblue" points="297.3,-108.24 306.52,-113.45 302.55,-103.63 297.3,-108.24"/>
</g>
<!-- Node37&#45;&gt;Node63 -->
<g id="edge49" class="edge">
<title>Node37&#45;&gt;Node63</title>
<path fill="none" stroke="midnightblue" d="M299.12,-140.15C281.51,-158.75 250.96,-188.07 219,-205 211.77,-208.83 203.69,-211.94 195.68,-214.45"/>
<polygon fill="midnightblue" stroke="midnightblue" points="301.82,-142.38 306.05,-132.66 296.68,-137.62 301.82,-142.38"/>
</g>
<!-- Node37&#45;&gt;Node65 -->
<g id="edge50" class="edge">
<title>Node37&#45;&gt;Node65</title>
<path fill="none" stroke="midnightblue" d="M286.28,-137.01C267.5,-146 242.12,-157.54 219,-166 208.55,-169.82 197.02,-173.38 186.38,-176.4"/>
<polygon fill="midnightblue" stroke="midnightblue" points="287.98,-140.07 295.45,-132.56 284.93,-133.77 287.98,-140.07"/>
</g>
<!-- Node37&#45;&gt;Node66 -->
<g id="edge51" class="edge">
<title>Node37&#45;&gt;Node66</title>
<path fill="none" stroke="midnightblue" d="M261.45,-130.69C238.35,-134.04 211.69,-137.91 190.12,-141.04"/>
<polygon fill="midnightblue" stroke="midnightblue" points="262.05,-134.14 271.45,-129.24 261.05,-127.21 262.05,-134.14"/>
</g>
<!-- Node37&#45;&gt;Node67 -->
<g id="edge52" class="edge">
<title>Node37&#45;&gt;Node67</title>
<path fill="none" stroke="midnightblue" d="M261.25,-115.92C243.46,-113.56 223.58,-110.91 205.56,-108.52"/>
<polygon fill="midnightblue" stroke="midnightblue" points="261.07,-119.43 271.45,-117.28 262,-112.49 261.07,-119.43"/>
</g>
<!-- Node37&#45;&gt;Node70 -->
<g id="edge53" class="edge">
<title>Node37&#45;&gt;Node70</title>
<path fill="none" stroke="midnightblue" d="M288.01,-108.6C269.12,-98.67 242.92,-85.58 219,-76 206.35,-70.93 192.04,-66.26 179.68,-62.53"/>
<polygon fill="midnightblue" stroke="midnightblue" points="286.44,-111.73 296.92,-113.33 289.73,-105.55 286.44,-111.73"/>
</g>
<!-- Node71&#45;&gt;Node72 -->
<g id="edge63" class="edge">
<title>Node71&#45;&gt;Node72</title>
<path fill="none" stroke="midnightblue" d="M256.13,-336.99C230.56,-344.87 201.58,-353.8 180.21,-360.38"/>
<polygon fill="midnightblue" stroke="midnightblue" points="257.21,-340.32 265.74,-334.03 255.15,-333.63 257.21,-340.32"/>
</g>
<!-- Node73&#45;&gt;Node27 -->
<g id="edge66" class="edge">
<title>Node73&#45;&gt;Node27</title>
<path fill="none" stroke="midnightblue" d="M751.2,-389C732.5,-389 711.89,-389 694.61,-389"/>
<polygon fill="midnightblue" stroke="midnightblue" points="751.36,-392.5 761.36,-389 751.36,-385.5 751.36,-392.5"/>
</g>
<!-- Node74&#45;&gt;Node75 -->
<g id="edge68" class="edge">
<title>Node74&#45;&gt;Node75</title>
<path fill="none" stroke="midnightblue" d="M757.35,-325.11C736.53,-330.4 712.46,-336.52 692.95,-341.48"/>
<polygon fill="midnightblue" stroke="midnightblue" points="758.45,-328.44 767.27,-322.59 756.72,-321.66 758.45,-328.44"/>
</g>
<!-- Node76 -->
<g id="node48" class="node">
<title>Node76</title>
<g id="a_node48"><a xlink:href="winds_8c.html#a2cb5d8c3051470cd229593554b0fd1e8" target="_top" xlink:title=" ">
<polygon fill="white" stroke="black" points="611.5,-303.5 611.5,-322.5 697.5,-322.5 697.5,-303.5 611.5,-303.5"/>
<text text-anchor="middle" x="654.5" y="-310.5" font-family="Helvetica,sans-Serif" font-size="10.00">winds_subgrid</text>
</a>
</g>
</g>
<!-- Node74&#45;&gt;Node76 -->
<g id="edge72" class="edge">
<title>Node74&#45;&gt;Node76</title>
<path fill="none" stroke="midnightblue" d="M739.58,-313C725.45,-313 710.87,-313 697.9,-313"/>
<polygon fill="midnightblue" stroke="midnightblue" points="739.76,-316.5 749.76,-313 739.76,-309.5 739.76,-316.5"/>
</g>
<!-- Node42 -->
<g id="node47" class="node">
<title>Node42</title>
<g id="a_node47"><a xlink:href="sfr__eff_8c.html#abc5b151d356619b98a8ded72cc9426c7" target="_top" xlink:title=" ">
<polygon fill="white" stroke="black" points="412,-341.5 412,-360.5 559,-360.5 559,-341.5 412,-341.5"/>
<text text-anchor="middle" x="485.5" y="-348.5" font-family="Helvetica,sans-Serif" font-size="10.00">cooling_and_starformation</text>
</a>
</g>
</g>
<!-- Node75&#45;&gt;Node42 -->
<g id="edge69" class="edge">
<title>Node75&#45;&gt;Node42</title>
<path fill="none" stroke="midnightblue" d="M584.54,-351C576.17,-351 567.61,-351 559.19,-351"/>
<polygon fill="midnightblue" stroke="midnightblue" points="584.62,-354.5 594.62,-351 584.62,-347.5 584.62,-354.5"/>
</g>
<!-- Node42&#45;&gt;Node5 -->
<g id="edge70" class="edge">
<title>Node42&#45;&gt;Node5</title>
<path fill="none" stroke="midnightblue" d="M461.12,-366.68C445.57,-378.05 425.57,-394.63 412,-413 388.11,-445.34 400.85,-464.39 376,-496 363.75,-511.58 344.89,-524.61 331.7,-532.57"/>
<polygon fill="midnightblue" stroke="midnightblue" points="463.55,-369.24 469.69,-360.6 459.5,-363.53 463.55,-369.24"/>
</g>
<!-- Node42&#45;&gt;Node9 -->
<g id="edge71" class="edge">
<title>Node42&#45;&gt;Node9</title>
<path fill="none" stroke="midnightblue" d="M427.08,-364.74C421.61,-367.55 416.45,-370.93 412,-375 382.32,-402.13 405.82,-431.03 376,-458 365.71,-467.31 350.83,-472.06 338.53,-474.48"/>
<polygon fill="midnightblue" stroke="midnightblue" points="428.81,-367.8 436.52,-360.53 425.96,-361.41 428.81,-367.8"/>
</g>
<!-- Node76&#45;&gt;Node42 -->
<g id="edge73" class="edge">
<title>Node76&#45;&gt;Node42</title>
<path fill="none" stroke="midnightblue" d="M601.54,-324.82C577.99,-330.18 550.53,-336.43 528.34,-341.48"/>
<polygon fill="midnightblue" stroke="midnightblue" points="602.38,-328.22 611.36,-322.59 600.83,-321.4 602.38,-328.22"/>
</g>
<!-- Node78 -->
<g id="node50" class="node">
<title>Node78</title>
<g id="a_node50"><a xlink:href="treewalk_8c.html#a21252682de7e3a6bc5567a2353a59e72" target="_top" xlink:title=" ">
<polygon fill="white" stroke="black" points="1196,-493.5 1196,-512.5 1268,-512.5 1268,-493.5 1196,-493.5"/>
<text text-anchor="middle" x="1232" y="-500.5" font-family="Helvetica,sans-Serif" font-size="10.00">ev_primary</text>
</a>
</g>
</g>
<!-- Node77&#45;&gt;Node78 -->
<g id="edge76" class="edge">
<title>Node77&#45;&gt;Node78</title>
<path fill="none" stroke="midnightblue" d="M1307.66,-503C1294.98,-503 1280.73,-503 1268.11,-503"/>
<polygon fill="midnightblue" stroke="midnightblue" points="1307.87,-506.5 1317.87,-503 1307.87,-499.5 1307.87,-506.5"/>
</g>
<!-- Node78&#45;&gt;Node3 -->
<g id="edge77" class="edge">
<title>Node78&#45;&gt;Node3</title>
<path fill="none" stroke="midnightblue" d="M1185.69,-509.94C1172.75,-511.93 1158.76,-514.07 1146.21,-515.99"/>
<polygon fill="midnightblue" stroke="midnightblue" points="1186.44,-513.37 1195.8,-508.39 1185.38,-506.45 1186.44,-513.37"/>
</g>
</g>
</svg>
