<?xml version="1.0" encoding="UTF-8" standalone="no"?>
<!DOCTYPE svg PUBLIC "-//W3C//DTD SVG 1.1//EN"
 "http://www.w3.org/Graphics/SVG/1.1/DTD/svg11.dtd">
<!-- Generated by graphviz version 2.38.0 (20140413.2041)
 -->
<!-- Title: ev_init_thread Pages: 1 -->
<svg width="821pt" height="680pt"
 viewBox="0.00 0.00 821.06 679.80" xmlns="http://www.w3.org/2000/svg" xmlns:xlink="http://www.w3.org/1999/xlink">
<g id="graph0" class="graph" transform="scale(1 1) rotate(0) translate(4 675.803)">
<title>ev_init_thread</title>
<polygon fill="white" stroke="none" points="-4,4 -4,-675.803 817.056,-675.803 817.056,4 -4,4"/>
<!-- Node269 -->
<g id="node1" class="node"><title>Node269</title>
<polygon fill="#bfbfbf" stroke="black" points="7.10543e-15,-155.269 7.10543e-15,-174.269 77,-174.269 77,-155.269 7.10543e-15,-155.269"/>
<text text-anchor="middle" x="38.5" y="-162.269" font-family="Helvetica,sans-Serif" font-size="10.00">ev_init_thread</text>
</g>
<!-- Node270 -->
<g id="node2" class="node"><title>Node270</title>
<g id="a_node2"><a xlink:href="treewalk_8c.html#a6c043b95263071bc974da1c1cefc0a57" target="_top" xlink:title="ev_secondary">
<polygon fill="white" stroke="black" points="63.7528,-188.729 63.7528,-207.729 140.753,-207.729 140.753,-188.729 63.7528,-188.729"/>
<text text-anchor="middle" x="102.253" y="-195.729" font-family="Helvetica,sans-Serif" font-size="10.00">ev_secondary</text>
</a>
</g>
</g>
<!-- Node269&#45;&gt;Node270 -->
<g id="edge1" class="edge"><title>Node269&#45;&gt;Node270</title>
<path fill="none" stroke="midnightblue" d="M66.1665,-179.289C72.2283,-182.471 78.4969,-185.761 84.0745,-188.688"/>
<polygon fill="midnightblue" stroke="midnightblue" points="67.4211,-175.995 56.94,-174.447 64.168,-182.193 67.4211,-175.995"/>
</g>
<!-- Node296 -->
<g id="node28" class="node"><title>Node296</title>
<g id="a_node28"><a xlink:href="treewalk_8c.html#ac1f02f14261da08ead9e42a2fb09495e" target="_top" xlink:title="real_ev">
<polygon fill="white" stroke="black" points="151.613,-0.5 151.613,-19.5 199.613,-19.5 199.613,-0.5 151.613,-0.5"/>
<text text-anchor="middle" x="175.613" y="-7.5" font-family="Helvetica,sans-Serif" font-size="10.00">real_ev</text>
</a>
</g>
</g>
<!-- Node269&#45;&gt;Node296 -->
<g id="edge42" class="edge"><title>Node269&#45;&gt;Node296</title>
<path fill="none" stroke="midnightblue" d="M54.0164,-147.254C82.9928,-114.547 144.439,-45.188 167.039,-19.6778"/>
<polygon fill="midnightblue" stroke="midnightblue" points="51.0885,-145.281 47.077,-155.087 56.3281,-149.923 51.0885,-145.281"/>
</g>
<!-- Node271 -->
<g id="node3" class="node"><title>Node271</title>
<g id="a_node3"><a xlink:href="treewalk_8h.html#aa6772bdbc1552278ca7dae6a9adb031d" target="_top" xlink:title="treewalk_run">
<polygon fill="white" stroke="black" points="130.006,-222.189 130.006,-241.189 202.006,-241.189 202.006,-222.189 130.006,-222.189"/>
<text text-anchor="middle" x="166.006" y="-229.189" font-family="Helvetica,sans-Serif" font-size="10.00">treewalk_run</text>
</a>
</g>
</g>
<!-- Node270&#45;&gt;Node271 -->
<g id="edge2" class="edge"><title>Node270&#45;&gt;Node271</title>
<path fill="none" stroke="midnightblue" d="M129.919,-212.749C135.981,-215.931 142.25,-219.221 147.827,-222.148"/>
<polygon fill="midnightblue" stroke="midnightblue" points="131.174,-209.455 120.693,-207.907 127.921,-215.653 131.174,-209.455"/>
</g>
<!-- Node272 -->
<g id="node4" class="node"><title>Node272</title>
<g id="a_node4"><a xlink:href="density_8c.html#a69886540d0642590a0022fc14ce61f06" target="_top" xlink:title="density_internal">
<polygon fill="white" stroke="black" points="728.056,-442.183 728.056,-461.183 813.056,-461.183 813.056,-442.183 728.056,-442.183"/>
<text text-anchor="middle" x="770.556" y="-449.183" font-family="Helvetica,sans-Serif" font-size="10.00">density_internal</text>
</a>
</g>
</g>
<!-- Node271&#45;&gt;Node272 -->
<g id="edge3" class="edge"><title>Node271&#45;&gt;Node272</title>
<path fill="none" stroke="midnightblue" d="M201.77,-244.703C312.495,-284.996 647.99,-407.081 744.392,-442.162"/>
<polygon fill="midnightblue" stroke="midnightblue" points="202.965,-241.414 192.371,-241.283 200.571,-247.992 202.965,-241.414"/>
</g>
<!-- Node283 -->
<g id="node15" class="node"><title>Node283</title>
<g id="a_node15"><a xlink:href="fof_8c.html#a77c15fc071e72ec1ea91652d28740ce1" target="_top" xlink:title="fof_label_primary">
<polygon fill="white" stroke="black" points="165.794,-304.337 165.794,-323.337 256.794,-323.337 256.794,-304.337 165.794,-304.337"/>
<text text-anchor="middle" x="211.294" y="-311.337" font-family="Helvetica,sans-Serif" font-size="10.00">fof_label_primary</text>
</a>
</g>
</g>
<!-- Node271&#45;&gt;Node283 -->
<g id="edge17" class="edge"><title>Node271&#45;&gt;Node283</title>
<path fill="none" stroke="midnightblue" d="M176.273,-250.313C185.486,-267.025 198.645,-290.894 205.928,-304.103"/>
<polygon fill="midnightblue" stroke="midnightblue" points="179.272,-248.502 171.379,-241.435 173.141,-251.882 179.272,-248.502"/>
</g>
<!-- Node289 -->
<g id="node21" class="node"><title>Node289</title>
<g id="a_node21"><a xlink:href="fof_8c.html#a9bbff144989b21ac4cbedc3aa2c6b1dc" target="_top" xlink:title="fof_label_secondary">
<polygon fill="white" stroke="black" points="445.612,-154.066 445.612,-173.066 549.612,-173.066 549.612,-154.066 445.612,-154.066"/>
<text text-anchor="middle" x="497.612" y="-161.066" font-family="Helvetica,sans-Serif" font-size="10.00">fof_label_secondary</text>
</a>
</g>
</g>
<!-- Node271&#45;&gt;Node289 -->
<g id="edge28" class="edge"><title>Node271&#45;&gt;Node289</title>
<path fill="none" stroke="midnightblue" d="M212.192,-222.2C275.33,-209.23 387.948,-186.094 451.203,-173.1"/>
<polygon fill="midnightblue" stroke="midnightblue" points="211.216,-218.828 202.125,-224.269 212.624,-225.685 211.216,-218.828"/>
</g>
<!-- Node290 -->
<g id="node22" class="node"><title>Node290</title>
<g id="a_node22"><a xlink:href="runtests_8c.html#a60eab909e50b5e048e572b833dcc2846" target="_top" xlink:title="grav_short_pair">
<polygon fill="white" stroke="black" points="541.195,-212.795 541.195,-231.795 624.195,-231.795 624.195,-212.795 541.195,-212.795"/>
<text text-anchor="middle" x="582.695" y="-219.795" font-family="Helvetica,sans-Serif" font-size="10.00">grav_short_pair</text>
</a>
</g>
</g>
<!-- Node271&#45;&gt;Node290 -->
<g id="edge31" class="edge"><title>Node271&#45;&gt;Node290</title>
<path fill="none" stroke="midnightblue" d="M212.5,-230.641C294.318,-228.796 462.762,-224.998 541.027,-223.234"/>
<polygon fill="midnightblue" stroke="midnightblue" points="212.174,-227.147 202.255,-230.872 212.332,-234.145 212.174,-227.147"/>
</g>
<!-- Node292 -->
<g id="node24" class="node"><title>Node292</title>
<g id="a_node24"><a xlink:href="gravshort-tree-old_8c.html#af703f51f005d6f005c4cfd250fdd5eb9" target="_top" xlink:title="grav_short_tree_old">
<polygon fill="white" stroke="black" points="10.017,-356.029 10.017,-375.029 112.017,-375.029 112.017,-356.029 10.017,-356.029"/>
<text text-anchor="middle" x="61.017" y="-363.029" font-family="Helvetica,sans-Serif" font-size="10.00">grav_short_tree_old</text>
</a>
</g>
</g>
<!-- Node271&#45;&gt;Node292 -->
<g id="edge34" class="edge"><title>Node271&#45;&gt;Node292</title>
<path fill="none" stroke="midnightblue" d="M152.218,-249.265C129.748,-277.91 85.9859,-333.698 68.4991,-355.991"/>
<polygon fill="midnightblue" stroke="midnightblue" points="155.037,-251.343 158.455,-241.314 149.529,-247.022 155.037,-251.343"/>
</g>
<!-- Node293 -->
<g id="node25" class="node"><title>Node293</title>
<g id="a_node25"><a xlink:href="proto_8h.html#a3890f7b7605d1abaf3cd23eeca5bcdd5" target="_top" xlink:title="grav_short_tree">
<polygon fill="white" stroke="black" points="588.74,-304.337 588.74,-323.337 672.74,-323.337 672.74,-304.337 588.74,-304.337"/>
<text text-anchor="middle" x="630.74" y="-311.337" font-family="Helvetica,sans-Serif" font-size="10.00">grav_short_tree</text>
</a>
</g>
</g>
<!-- Node271&#45;&gt;Node293 -->
<g id="edge35" class="edge"><title>Node271&#45;&gt;Node293</title>
<path fill="none" stroke="midnightblue" d="M212.034,-239.825C302.39,-255.797 501.725,-291.032 588.735,-306.412"/>
<polygon fill="midnightblue" stroke="midnightblue" points="212.543,-236.361 202.086,-238.066 211.324,-243.254 212.543,-236.361"/>
</g>
<!-- Node294 -->
<g id="node26" class="node"><title>Node294</title>
<g id="a_node26"><a xlink:href="hydra_8h.html#a6789381bce7d1c316df8ecf04b47a607" target="_top" xlink:title="hydro_force">
<polygon fill="white" stroke="black" points="602.588,-547.008 602.588,-566.008 670.588,-566.008 670.588,-547.008 602.588,-547.008"/>
<text text-anchor="middle" x="636.588" y="-554.008" font-family="Helvetica,sans-Serif" font-size="10.00">hydro_force</text>
</a>
</g>
</g>
<!-- Node271&#45;&gt;Node294 -->
<g id="edge38" class="edge"><title>Node271&#45;&gt;Node294</title>
<path fill="none" stroke="midnightblue" d="M188.441,-247.175C270.892,-304.087 555.807,-500.749 622.53,-546.805"/>
<polygon fill="midnightblue" stroke="midnightblue" points="190.053,-244.034 179.834,-241.234 186.076,-249.795 190.053,-244.034"/>
</g>
<!-- Node295 -->
<g id="node27" class="node"><title>Node295</title>
<g id="a_node27"><a xlink:href="sfr__eff_8h.html#aaa7b178a168a5d23b2cfe478ebc58ee1" target="_top" xlink:title="cooling_only">
<polygon fill="white" stroke="black" points="487.643,-625.314 487.643,-644.314 558.643,-644.314 558.643,-625.314 487.643,-625.314"/>
<text text-anchor="middle" x="523.143" y="-632.314" font-family="Helvetica,sans-Serif" font-size="10.00">cooling_only</text>
</a>
</g>
</g>
<!-- Node271&#45;&gt;Node295 -->
<g id="edge40" class="edge"><title>Node271&#45;&gt;Node295</title>
<path fill="none" stroke="midnightblue" d="M181.413,-249.08C242.656,-318.209 467.789,-572.332 514.588,-625.157"/>
<polygon fill="midnightblue" stroke="midnightblue" points="183.733,-246.42 174.482,-241.256 178.493,-251.062 183.733,-246.42"/>
</g>
<!-- Node273 -->
<g id="node5" class="node"><title>Node273</title>
<g id="a_node5"><a xlink:href="proto_8h.html#a8ce8ad3893801ac7d380efd9b7ef26d3" target="_top" xlink:title="density">
<polygon fill="white" stroke="black" points="676.648,-424.952 676.648,-443.952 724.648,-443.952 724.648,-424.952 676.648,-424.952"/>
<text text-anchor="middle" x="700.648" y="-431.952" font-family="Helvetica,sans-Serif" font-size="10.00">density</text>
</a>
</g>
</g>
<!-- Node272&#45;&gt;Node273 -->
<g id="edge4" class="edge"><title>Node272&#45;&gt;Node273</title>
<path fill="none" stroke="midnightblue" d="M725.272,-440.521C725.127,-440.485 724.982,-440.45 724.838,-440.414"/>
<polygon fill="midnightblue" stroke="midnightblue" points="721.375,-443.165 731.922,-442.16 723.05,-436.369 721.375,-443.165"/>
</g>
<!-- Node282 -->
<g id="node14" class="node"><title>Node282</title>
<g id="a_node14"><a xlink:href="proto_8h.html#a137ca78a0bd40fa7a75438e90e4f66a8" target="_top" xlink:title="density_update">
<polygon fill="white" stroke="black" points="175.014,-652.303 175.014,-671.303 258.014,-671.303 258.014,-652.303 175.014,-652.303"/>
<text text-anchor="middle" x="216.514" y="-659.303" font-family="Helvetica,sans-Serif" font-size="10.00">density_update</text>
</a>
</g>
</g>
<!-- Node272&#45;&gt;Node282 -->
<g id="edge15" class="edge"><title>Node272&#45;&gt;Node282</title>
<path fill="none" stroke="midnightblue" d="M735.685,-464.907C632.569,-504.014 330.748,-618.48 241.59,-652.293"/>
<polygon fill="midnightblue" stroke="midnightblue" points="737.201,-468.076 745.31,-461.257 734.719,-461.531 737.201,-468.076"/>
</g>
<!-- Node274 -->
<g id="node6" class="node"><title>Node274</title>
<g id="a_node6"><a xlink:href="run_8c.html#abb80d08f4d52f4a7bdf28d1cecfead5b" target="_top" xlink:title="compute_accelerations">
<polygon fill="white" stroke="black" points="524.195,-499.264 524.195,-518.264 641.195,-518.264 641.195,-499.264 524.195,-499.264"/>
<text text-anchor="middle" x="582.695" y="-506.264" font-family="Helvetica,sans-Serif" font-size="10.00">compute_accelerations</text>
</a>
</g>
</g>
<!-- Node273&#45;&gt;Node274 -->
<g id="edge5" class="edge"><title>Node273&#45;&gt;Node274</title>
<path fill="none" stroke="midnightblue" d="M676.548,-449.635C653.068,-464.428 618.078,-486.472 598.119,-499.046"/>
<polygon fill="midnightblue" stroke="midnightblue" points="678.633,-452.459 685.228,-444.167 674.901,-446.536 678.633,-452.459"/>
</g>
<!-- Node279 -->
<g id="node11" class="node"><title>Node279</title>
<g id="a_node11"><a xlink:href="init_8c.html#a643ef34b585446f8ccbbf3239df2db71" target="_top" xlink:title="setup_smoothinglengths">
<polygon fill="white" stroke="black" points="196.414,-593.048 196.414,-612.048 318.414,-612.048 318.414,-593.048 196.414,-593.048"/>
<text text-anchor="middle" x="257.414" y="-600.048" font-family="Helvetica,sans-Serif" font-size="10.00">setup_smoothinglengths</text>
</a>
</g>
</g>
<!-- Node273&#45;&gt;Node279 -->
<g id="edge11" class="edge"><title>Node273&#45;&gt;Node279</title>
<path fill="none" stroke="midnightblue" d="M667.035,-447.2C581.698,-479.564 358.1,-564.363 282.676,-592.968"/>
<polygon fill="midnightblue" stroke="midnightblue" points="668.394,-450.428 676.503,-443.609 665.912,-443.882 668.394,-450.428"/>
</g>
<!-- Node275 -->
<g id="node7" class="node"><title>Node275</title>
<g id="a_node7"><a xlink:href="run_8c.html#a05e0ffe612d44e6d7f3a9ae5b9df56a2" target="_top" xlink:title="run">
<polygon fill="white" stroke="black" points="487.818,-474.539 487.818,-493.539 517.818,-493.539 517.818,-474.539 487.818,-474.539"/>
<text text-anchor="middle" x="502.818" y="-481.539" font-family="Helvetica,sans-Serif" font-size="10.00">run</text>
</a>
</g>
</g>
<!-- Node274&#45;&gt;Node275 -->
<g id="edge6" class="edge"><title>Node274&#45;&gt;Node275</title>
<path fill="none" stroke="midnightblue" d="M541.949,-496.151C533.359,-493.492 524.819,-490.849 517.919,-488.713"/>
<polygon fill="midnightblue" stroke="midnightblue" points="540.996,-499.52 551.584,-499.133 543.066,-492.833 540.996,-499.52"/>
</g>
<!-- Node276 -->
<g id="node8" class="node"><title>Node276</title>
<g id="a_node8"><a xlink:href="main_8c.html#a3c04138a5bfe5d72780bb7e82a18e627" target="_top" xlink:title="main">
<polygon fill="white" stroke="black" points="361.116,-296.774 361.116,-315.774 399.116,-315.774 399.116,-296.774 361.116,-296.774"/>
<text text-anchor="middle" x="380.116" y="-303.774" font-family="Helvetica,sans-Serif" font-size="10.00">main</text>
</a>
</g>
</g>
<!-- Node275&#45;&gt;Node276 -->
<g id="edge7" class="edge"><title>Node275&#45;&gt;Node276</title>
<path fill="none" stroke="midnightblue" d="M490.438,-466.103C464.753,-428.892 406.429,-344.395 386.746,-315.879"/>
<polygon fill="midnightblue" stroke="midnightblue" points="487.66,-468.24 496.221,-474.481 493.421,-464.263 487.66,-468.24"/>
</g>
<!-- Node277 -->
<g id="node9" class="node"><title>Node277</title>
<g id="a_node9"><a xlink:href="walltime_8h.html#a76d2135b612766d4d665748454b879d6" target="_top" xlink:title="walltime_report">
<polygon fill="white" stroke="black" points="379.517,-356.029 379.517,-375.029 462.517,-375.029 462.517,-356.029 379.517,-356.029"/>
<text text-anchor="middle" x="421.017" y="-363.029" font-family="Helvetica,sans-Serif" font-size="10.00">walltime_report</text>
</a>
</g>
</g>
<!-- Node276&#45;&gt;Node277 -->
<g id="edge8" class="edge"><title>Node276&#45;&gt;Node277</title>
<path fill="none" stroke="midnightblue" d="M392.476,-324.181C399.655,-334.58 408.419,-347.277 414.326,-355.835"/>
<polygon fill="midnightblue" stroke="midnightblue" points="395.249,-322.036 386.688,-315.795 389.488,-326.013 395.249,-322.036"/>
</g>
<!-- Node278 -->
<g id="node10" class="node"><title>Node278</title>
<g id="a_node10"><a xlink:href="run_8c.html#adc59e9ee1517e4e690694a64ab6a59d2" target="_top" xlink:title="write_cpu_log">
<polygon fill="white" stroke="black" points="423.418,-415.284 423.418,-434.284 500.418,-434.284 500.418,-415.284 423.418,-415.284"/>
<text text-anchor="middle" x="461.918" y="-422.284" font-family="Helvetica,sans-Serif" font-size="10.00">write_cpu_log</text>
</a>
</g>
</g>
<!-- Node277&#45;&gt;Node278 -->
<g id="edge9" class="edge"><title>Node277&#45;&gt;Node278</title>
<path fill="none" stroke="midnightblue" d="M433.377,-383.435C440.555,-393.835 449.319,-406.532 455.227,-415.09"/>
<polygon fill="midnightblue" stroke="midnightblue" points="436.15,-381.291 427.588,-375.049 430.389,-385.267 436.15,-381.291"/>
</g>
<!-- Node278&#45;&gt;Node275 -->
<g id="edge10" class="edge"><title>Node278&#45;&gt;Node275</title>
<path fill="none" stroke="midnightblue" d="M474.278,-442.69C481.456,-453.09 490.22,-465.787 496.127,-474.345"/>
<polygon fill="midnightblue" stroke="midnightblue" points="477.05,-440.546 468.489,-434.304 471.289,-444.522 477.05,-440.546"/>
</g>
<!-- Node280 -->
<g id="node12" class="node"><title>Node280</title>
<g id="a_node12"><a xlink:href="proto_8h.html#ab080cb20bac2a1a6153a84e8cfd15374" target="_top" xlink:title="init">
<polygon fill="white" stroke="black" points="283.815,-533.794 283.815,-552.794 312.815,-552.794 312.815,-533.794 283.815,-533.794"/>
<text text-anchor="middle" x="298.315" y="-540.794" font-family="Helvetica,sans-Serif" font-size="10.00">init</text>
</a>
</g>
</g>
<!-- Node279&#45;&gt;Node280 -->
<g id="edge12" class="edge"><title>Node279&#45;&gt;Node280</title>
<path fill="none" stroke="midnightblue" d="M269.774,-584.642C276.953,-574.242 285.717,-561.545 291.624,-552.987"/>
<polygon fill="midnightblue" stroke="midnightblue" points="266.786,-582.81 263.986,-593.028 272.547,-586.786 266.786,-582.81"/>
</g>
<!-- Node281 -->
<g id="node13" class="node"><title>Node281</title>
<g id="a_node13"><a xlink:href="proto_8h.html#a74dc0e5e9eefe11fc8434b62de573146" target="_top" xlink:title="begrun">
<polygon fill="white" stroke="black" points="316.216,-474.539 316.216,-493.539 362.216,-493.539 362.216,-474.539 316.216,-474.539"/>
<text text-anchor="middle" x="339.216" y="-481.539" font-family="Helvetica,sans-Serif" font-size="10.00">begrun</text>
</a>
</g>
</g>
<!-- Node280&#45;&gt;Node281 -->
<g id="edge13" class="edge"><title>Node280&#45;&gt;Node281</title>
<path fill="none" stroke="midnightblue" d="M310.675,-525.387C317.853,-514.987 326.617,-502.29 332.525,-493.732"/>
<polygon fill="midnightblue" stroke="midnightblue" points="307.687,-523.555 304.886,-533.773 313.448,-527.532 307.687,-523.555"/>
</g>
<!-- Node281&#45;&gt;Node276 -->
<g id="edge14" class="edge"><title>Node281&#45;&gt;Node276</title>
<path fill="none" stroke="midnightblue" d="M343.674,-464.661C352.396,-426.753 371.429,-344.033 377.906,-315.879"/>
<polygon fill="midnightblue" stroke="midnightblue" points="340.246,-463.951 341.415,-474.481 347.068,-465.521 340.246,-463.951"/>
</g>
<!-- Node282&#45;&gt;Node279 -->
<g id="edge16" class="edge"><title>Node282&#45;&gt;Node279</title>
<path fill="none" stroke="midnightblue" d="M228.874,-643.897C236.052,-633.497 244.816,-620.8 250.723,-612.242"/>
<polygon fill="midnightblue" stroke="midnightblue" points="225.885,-642.065 223.085,-652.283 231.646,-646.041 225.885,-642.065"/>
</g>
<!-- Node284 -->
<g id="node16" class="node"><title>Node284</title>
<g id="a_node16"><a xlink:href="fof_8h.html#a7f10d50a8e07ce0bb67ffdfaf904d7c8" target="_top" xlink:title="fof_fof">
<polygon fill="white" stroke="black" points="291.231,-260.539 291.231,-279.539 335.231,-279.539 335.231,-260.539 291.231,-260.539"/>
<text text-anchor="middle" x="313.231" y="-267.539" font-family="Helvetica,sans-Serif" font-size="10.00">fof_fof</text>
</a>
</g>
</g>
<!-- Node283&#45;&gt;Node284 -->
<g id="edge18" class="edge"><title>Node283&#45;&gt;Node284</title>
<path fill="none" stroke="midnightblue" d="M242.736,-300.328C258.418,-293.59 277.005,-285.604 291.156,-279.524"/>
<polygon fill="midnightblue" stroke="midnightblue" points="241.219,-297.17 233.413,-304.333 243.982,-303.602 241.219,-297.17"/>
</g>
<!-- Node286 -->
<g id="node18" class="node"><title>Node286</title>
<g id="a_node18"><a xlink:href="fof_8c.html#aa0d13cc94e97083dfd468ed33331eed7" target="_top" xlink:title="fof_periodic_wrap">
<polygon fill="white" stroke="black" points="119.506,-489.869 119.506,-508.869 212.506,-508.869 212.506,-489.869 119.506,-489.869"/>
<text text-anchor="middle" x="166.006" y="-496.869" font-family="Helvetica,sans-Serif" font-size="10.00">fof_periodic_wrap</text>
</a>
</g>
</g>
<!-- Node283&#45;&gt;Node286 -->
<g id="edge22" class="edge"><title>Node283&#45;&gt;Node286</title>
<path fill="none" stroke="midnightblue" d="M206.547,-333.282C196.935,-372.661 175.475,-460.575 168.353,-489.752"/>
<polygon fill="midnightblue" stroke="midnightblue" points="209.951,-334.095 208.922,-323.551 203.151,-332.435 209.951,-334.095"/>
</g>
<!-- Node284&#45;&gt;Node276 -->
<g id="edge19" class="edge"><title>Node284&#45;&gt;Node276</title>
<path fill="none" stroke="midnightblue" d="M339.738,-284.399C347.358,-288.527 355.481,-292.928 362.428,-296.692"/>
<polygon fill="midnightblue" stroke="midnightblue" points="341.265,-281.246 330.805,-279.56 337.93,-287.401 341.265,-281.246"/>
</g>
<!-- Node285 -->
<g id="node17" class="node"><title>Node285</title>
<g id="a_node17"><a xlink:href="proto_8h.html#a312b6a02f7cde171412989ea5f9be48f" target="_top" xlink:title="write_checkpoint">
<polygon fill="white" stroke="black" points="349.981,-570.454 349.981,-589.454 439.981,-589.454 439.981,-570.454 349.981,-570.454"/>
<text text-anchor="middle" x="394.981" y="-577.454" font-family="Helvetica,sans-Serif" font-size="10.00">write_checkpoint</text>
</a>
</g>
</g>
<!-- Node284&#45;&gt;Node285 -->
<g id="edge20" class="edge"><title>Node284&#45;&gt;Node285</title>
<path fill="none" stroke="midnightblue" d="M318.405,-289.652C334.148,-349.334 381.092,-527.3 392.474,-570.451"/>
<polygon fill="midnightblue" stroke="midnightblue" points="321.703,-288.431 315.768,-279.654 314.934,-290.216 321.703,-288.431"/>
</g>
<!-- Node285&#45;&gt;Node275 -->
<g id="edge21" class="edge"><title>Node285&#45;&gt;Node275</title>
<path fill="none" stroke="midnightblue" d="M413.311,-563.651C435.96,-543.506 473.749,-509.895 492.128,-493.547"/>
<polygon fill="midnightblue" stroke="midnightblue" points="410.861,-561.146 405.715,-570.407 415.513,-566.376 410.861,-561.146"/>
</g>
<!-- Node287 -->
<g id="node19" class="node"><title>Node287</title>
<g id="a_node19"><a xlink:href="fof_8c.html#a36336d505e8a4fb8e8fdaf9a796e40d4" target="_top" xlink:title="fof_finish_group_properties">
<polygon fill="white" stroke="black" points="319.302,-70.1289 319.302,-89.1289 453.302,-89.1289 453.302,-70.1289 319.302,-70.1289"/>
<text text-anchor="middle" x="386.302" y="-77.1289" font-family="Helvetica,sans-Serif" font-size="10.00">fof_finish_group_properties</text>
</a>
</g>
</g>
<!-- Node286&#45;&gt;Node287 -->
<g id="edge23" class="edge"><title>Node286&#45;&gt;Node287</title>
<path fill="none" stroke="midnightblue" d="M179.064,-481.099C222.995,-408.608 362.054,-142.952 383.676,-89.1413"/>
<polygon fill="midnightblue" stroke="midnightblue" points="176.05,-479.317 173.742,-489.658 181.995,-483.014 176.05,-479.317"/>
</g>
<!-- Node287&#45;&gt;Node286 -->
<g id="edge27" class="edge"><title>Node287&#45;&gt;Node286</title>
<path fill="none" stroke="midnightblue" d="M373.244,-97.8997C329.313,-170.39 190.254,-436.046 168.632,-489.857"/>
<polygon fill="midnightblue" stroke="midnightblue" points="376.258,-99.6807 378.566,-89.3404 370.313,-95.9841 376.258,-99.6807"/>
</g>
<!-- Node288 -->
<g id="node20" class="node"><title>Node288</title>
<g id="a_node20"><a xlink:href="fof_8c.html#ae4b5e05b1f0225637629759a9e2ba72e" target="_top" xlink:title="fof_compile_catalogue">
<polygon fill="white" stroke="black" points="337.981,-141.604 337.981,-160.604 451.981,-160.604 451.981,-141.604 337.981,-141.604"/>
<text text-anchor="middle" x="394.981" y="-148.604" font-family="Helvetica,sans-Serif" font-size="10.00">fof_compile_catalogue</text>
</a>
</g>
</g>
<!-- Node287&#45;&gt;Node288 -->
<g id="edge24" class="edge"><title>Node287&#45;&gt;Node288</title>
<path fill="none" stroke="midnightblue" d="M388.718,-99.5248C390.363,-113.074 392.471,-130.433 393.773,-141.159"/>
<polygon fill="midnightblue" stroke="midnightblue" points="392.153,-98.7735 387.473,-89.2683 385.204,-99.6173 392.153,-98.7735"/>
</g>
<!-- Node288&#45;&gt;Node284 -->
<g id="edge25" class="edge"><title>Node288&#45;&gt;Node284</title>
<path fill="none" stroke="midnightblue" d="M382.49,-169.276C364.88,-194.897 333.388,-240.715 319.785,-260.504"/>
<polygon fill="midnightblue" stroke="midnightblue" points="385.511,-171.06 388.291,-160.837 379.742,-167.095 385.511,-171.06"/>
</g>
<!-- Node288&#45;&gt;Node286 -->
<g id="edge26" class="edge"><title>Node288&#45;&gt;Node286</title>
<path fill="none" stroke="midnightblue" d="M382.992,-169.34C341.36,-232.661 203.882,-441.761 172.447,-489.573"/>
<polygon fill="midnightblue" stroke="midnightblue" points="386.049,-171.061 388.618,-160.782 380.2,-167.215 386.049,-171.061"/>
</g>
<!-- Node289&#45;&gt;Node284 -->
<g id="edge29" class="edge"><title>Node289&#45;&gt;Node284</title>
<path fill="none" stroke="midnightblue" d="M471.898,-178.414C433.427,-200.63 361.972,-241.893 329.749,-260.501"/>
<polygon fill="midnightblue" stroke="midnightblue" points="474.014,-181.234 480.924,-173.202 470.514,-175.172 474.014,-181.234"/>
</g>
<!-- Node289&#45;&gt;Node286 -->
<g id="edge30" class="edge"><title>Node289&#45;&gt;Node286</title>
<path fill="none" stroke="midnightblue" d="M480.928,-180.46C421.588,-240.552 221.837,-442.831 175.611,-489.642"/>
<polygon fill="midnightblue" stroke="midnightblue" points="483.509,-182.828 488.045,-173.253 478.528,-177.909 483.509,-182.828"/>
</g>
<!-- Node291 -->
<g id="node23" class="node"><title>Node291</title>
<g id="a_node23"><a xlink:href="runtests_8c.html#a549024555ca61e3f05a7100307e44f69" target="_top" xlink:title="runtests">
<polygon fill="white" stroke="black" points="522.523,-289.109 522.523,-308.109 574.523,-308.109 574.523,-289.109 522.523,-289.109"/>
<text text-anchor="middle" x="548.523" y="-296.109" font-family="Helvetica,sans-Serif" font-size="10.00">runtests</text>
</a>
</g>
</g>
<!-- Node290&#45;&gt;Node291 -->
<g id="edge32" class="edge"><title>Node290&#45;&gt;Node291</title>
<path fill="none" stroke="midnightblue" d="M574.156,-241.366C567.41,-256.431 558.27,-276.842 552.923,-288.781"/>
<polygon fill="midnightblue" stroke="midnightblue" points="577.475,-242.517 578.367,-231.96 571.086,-239.656 577.475,-242.517"/>
</g>
<!-- Node291&#45;&gt;Node276 -->
<g id="edge33" class="edge"><title>Node291&#45;&gt;Node276</title>
<path fill="none" stroke="midnightblue" d="M512.033,-300.27C477.444,-301.844 426.821,-304.148 399.435,-305.395"/>
<polygon fill="midnightblue" stroke="midnightblue" points="512.379,-303.758 522.209,-299.807 512.06,-296.765 512.379,-303.758"/>
</g>
<!-- Node293&#45;&gt;Node274 -->
<g id="edge36" class="edge"><title>Node293&#45;&gt;Node274</title>
<path fill="none" stroke="midnightblue" d="M625.923,-333.381C615.794,-374.476 592.605,-468.558 585.092,-499.039"/>
<polygon fill="midnightblue" stroke="midnightblue" points="629.363,-334.05 628.358,-323.503 622.566,-332.375 629.363,-334.05"/>
</g>
<!-- Node293&#45;&gt;Node291 -->
<g id="edge37" class="edge"><title>Node293&#45;&gt;Node291</title>
<path fill="none" stroke="midnightblue" d="M578.566,-304.173C577.276,-303.934 576.002,-303.698 574.749,-303.466"/>
<polygon fill="midnightblue" stroke="midnightblue" points="578.198,-307.665 588.668,-306.044 579.473,-300.782 578.198,-307.665"/>
</g>
<!-- Node294&#45;&gt;Node274 -->
<g id="edge39" class="edge"><title>Node294&#45;&gt;Node274</title>
<path fill="none" stroke="midnightblue" d="M618.037,-540.073C609.885,-532.851 600.594,-524.621 593.585,-518.411"/>
<polygon fill="midnightblue" stroke="midnightblue" points="615.876,-542.835 625.682,-546.846 620.518,-537.595 615.876,-542.835"/>
</g>
<!-- Node295&#45;&gt;Node274 -->
<g id="edge41" class="edge"><title>Node295&#45;&gt;Node274</title>
<path fill="none" stroke="midnightblue" d="M532.224,-615.594C545.173,-588.185 568.456,-538.904 578.207,-518.264"/>
<polygon fill="midnightblue" stroke="midnightblue" points="528.923,-614.386 527.816,-624.923 535.253,-617.376 528.923,-614.386"/>
</g>
<!-- Node297 -->
<g id="node29" class="node"><title>Node297</title>
<g id="a_node29"><a xlink:href="treewalk_8c.html#a5341d99d76201774516d5e551dc1c559" target="_top" xlink:title="ev_primary">
<polygon fill="white" stroke="black" points="184.014,-59.7548 184.014,-78.7548 249.014,-78.7548 249.014,-59.7548 184.014,-59.7548"/>
<text text-anchor="middle" x="216.514" y="-66.7548" font-family="Helvetica,sans-Serif" font-size="10.00">ev_primary</text>
</a>
</g>
</g>
<!-- Node296&#45;&gt;Node297 -->
<g id="edge43" class="edge"><title>Node296&#45;&gt;Node297</title>
<path fill="none" stroke="midnightblue" d="M187.973,-27.9064C195.151,-38.3063 203.916,-51.0032 209.823,-59.5613"/>
<polygon fill="midnightblue" stroke="midnightblue" points="190.746,-25.7619 182.184,-19.5203 184.985,-29.7384 190.746,-25.7619"/>
</g>
<!-- Node297&#45;&gt;Node271 -->
<g id="edge44" class="edge"><title>Node297&#45;&gt;Node271</title>
<path fill="none" stroke="midnightblue" d="M210.412,-88.8785C199.542,-123.835 177.205,-195.671 169.062,-221.86"/>
<polygon fill="midnightblue" stroke="midnightblue" points="213.878,-89.5176 213.505,-78.9294 207.194,-87.4391 213.878,-89.5176"/>
</g>
</g>
</svg>
