<?xml version="1.0" encoding="UTF-8" standalone="no"?>
<!DOCTYPE svg PUBLIC "-//W3C//DTD SVG 1.1//EN"
 "http://www.w3.org/Graphics/SVG/1.1/DTD/svg11.dtd">
<!-- Generated by graphviz version 2.38.0 (20140413.2041)
 -->
<!-- Title: treewalk_export_particle Pages: 1 -->
<svg width="503pt" height="85pt"
 viewBox="0.00 0.00 503.00 85.00" xmlns="http://www.w3.org/2000/svg" xmlns:xlink="http://www.w3.org/1999/xlink">
<g id="graph0" class="graph" transform="scale(1 1) rotate(0) translate(4 81)">
<title>treewalk_export_particle</title>
<polygon fill="white" stroke="none" points="-4,4 -4,-81 499,-81 499,4 -4,4"/>
<!-- Node0 -->
<g id="node1" class="node"><title>Node0</title>
<polygon fill="#bfbfbf" stroke="black" points="0,-38.5 0,-57.5 122,-57.5 122,-38.5 0,-38.5"/>
<text text-anchor="middle" x="61" y="-45.5" font-family="Helvetica,sans-Serif" font-size="10.00">treewalk_export_particle</text>
</g>
<!-- Node1 -->
<g id="node2" class="node"><title>Node1</title>
<g id="a_node2"><a xlink:href="system_8h.html#a00eeba7aebd7952f4c0ecebb60fbeca2" target="_top" xlink:title="atomic_fetch_and_add">
<polygon fill="white" stroke="black" points="158,-57.5 158,-76.5 273,-76.5 273,-57.5 158,-57.5"/>
<text text-anchor="middle" x="215.5" y="-64.5" font-family="Helvetica,sans-Serif" font-size="10.00">atomic_fetch_and_add</text>
</a>
</g>
</g>
<!-- Node0&#45;&gt;Node1 -->
<g id="edge1" class="edge"><title>Node0&#45;&gt;Node1</title>
<path fill="none" stroke="midnightblue" d="M122.272,-55.5093C130.558,-56.5417 139.109,-57.607 147.507,-58.6533"/>
<polygon fill="midnightblue" stroke="midnightblue" points="147.291,-62.1534 157.647,-59.9167 148.156,-55.2071 147.291,-62.1534"/>
</g>
<!-- Node2 -->
<g id="node3" class="node"><title>Node2</title>
<g id="a_node3"><a xlink:href="endrun_8c.html#ad963d7efdb9f10f7a2298c8ccd222ab0" target="_top" xlink:title="endrun">
<polygon fill="white" stroke="black" points="192.5,-19.5 192.5,-38.5 238.5,-38.5 238.5,-19.5 192.5,-19.5"/>
<text text-anchor="middle" x="215.5" y="-26.5" font-family="Helvetica,sans-Serif" font-size="10.00">endrun</text>
</a>
</g>
</g>
<!-- Node0&#45;&gt;Node2 -->
<g id="edge2" class="edge"><title>Node0&#45;&gt;Node2</title>
<path fill="none" stroke="midnightblue" d="M122.272,-40.4907C142.68,-37.9481 164.686,-35.2063 182.083,-33.0388"/>
<polygon fill="midnightblue" stroke="midnightblue" points="182.773,-36.48 192.264,-31.7704 181.908,-29.5337 182.773,-36.48"/>
</g>
<!-- Node3 -->
<g id="node4" class="node"><title>Node3</title>
<g id="a_node4"><a xlink:href="endrun_8c.html#a7267113a7c0a094743bb565eabc695d1" target="_top" xlink:title="messagev">
<polygon fill="white" stroke="black" points="309,-19.5 309,-38.5 371,-38.5 371,-19.5 309,-19.5"/>
<text text-anchor="middle" x="340" y="-26.5" font-family="Helvetica,sans-Serif" font-size="10.00">messagev</text>
</a>
</g>
</g>
<!-- Node2&#45;&gt;Node3 -->
<g id="edge3" class="edge"><title>Node2&#45;&gt;Node3</title>
<path fill="none" stroke="midnightblue" d="M238.684,-29C255.358,-29 278.663,-29 298.613,-29"/>
<polygon fill="midnightblue" stroke="midnightblue" points="298.687,-32.5001 308.687,-29 298.687,-25.5001 298.687,-32.5001"/>
</g>
<!-- Node4 -->
<g id="node5" class="node"><title>Node4</title>
<g id="a_node5"><a xlink:href="endrun_8c.html#a87108946670b4c3afbe846c6726675ff" target="_top" xlink:title="putline">
<polygon fill="white" stroke="black" points="428.5,-38.5 428.5,-57.5 473.5,-57.5 473.5,-38.5 428.5,-38.5"/>
<text text-anchor="middle" x="451" y="-45.5" font-family="Helvetica,sans-Serif" font-size="10.00">putline</text>
</a>
</g>
</g>
<!-- Node3&#45;&gt;Node4 -->
<g id="edge4" class="edge"><title>Node3&#45;&gt;Node4</title>
<path fill="none" stroke="midnightblue" d="M371.073,-34.2421C385.677,-36.7877 403.231,-39.8476 418.072,-42.4346"/>
<polygon fill="midnightblue" stroke="midnightblue" points="417.866,-45.9514 428.318,-44.2207 419.068,-39.0553 417.866,-45.9514"/>
</g>
<!-- Node5 -->
<g id="node6" class="node"><title>Node5</title>
<g id="a_node6"><a xlink:href="endrun_8c.html#a1200f02a595ab7cbe17c9e36ff32af0f" target="_top" xlink:title="show_backtrace">
<polygon fill="white" stroke="black" points="407,-0.5 407,-19.5 495,-19.5 495,-0.5 407,-0.5"/>
<text text-anchor="middle" x="451" y="-7.5" font-family="Helvetica,sans-Serif" font-size="10.00">show_backtrace</text>
</a>
</g>
</g>
<!-- Node3&#45;&gt;Node5 -->
<g id="edge5" class="edge"><title>Node3&#45;&gt;Node5</title>
<path fill="none" stroke="midnightblue" d="M371.073,-23.7579C379.131,-22.3533 388.087,-20.7921 396.991,-19.2402"/>
<polygon fill="midnightblue" stroke="midnightblue" points="397.719,-22.6661 406.969,-17.5008 396.517,-15.7701 397.719,-22.6661"/>
</g>
</g>
</svg>
