<?xml version="1.0" encoding="UTF-8" standalone="no"?>
<!DOCTYPE svg PUBLIC "-//W3C//DTD SVG 1.1//EN"
 "http://www.w3.org/Graphics/SVG/1.1/DTD/svg11.dtd">
<!-- Generated by graphviz version 2.38.0 (20140413.2041)
 -->
<!-- Title: treewalk_build_queue Pages: 1 -->
<svg width="515pt" height="142pt"
 viewBox="0.00 0.00 515.00 142.00" xmlns="http://www.w3.org/2000/svg" xmlns:xlink="http://www.w3.org/1999/xlink">
<g id="graph0" class="graph" transform="scale(1 1) rotate(0) translate(4 138)">
<title>treewalk_build_queue</title>
<polygon fill="white" stroke="none" points="-4,4 -4,-138 511,-138 511,4 -4,4"/>
<!-- Node534 -->
<g id="node1" class="node"><title>Node534</title>
<polygon fill="#bfbfbf" stroke="black" points="0,-76.5 0,-95.5 110,-95.5 110,-76.5 0,-76.5"/>
<text text-anchor="middle" x="55" y="-83.5" font-family="Helvetica,sans-Serif" font-size="10.00">treewalk_build_queue</text>
</g>
<!-- Node535 -->
<g id="node2" class="node"><title>Node535</title>
<g id="a_node2"><a xlink:href="system_8h.html#a00eeba7aebd7952f4c0ecebb60fbeca2" target="_top" xlink:title="atomic_fetch_and_add">
<polygon fill="white" stroke="black" points="146,-114.5 146,-133.5 261,-133.5 261,-114.5 146,-114.5"/>
<text text-anchor="middle" x="203.5" y="-121.5" font-family="Helvetica,sans-Serif" font-size="10.00">atomic_fetch_and_add</text>
</a>
</g>
</g>
<!-- Node534&#45;&gt;Node535 -->
<g id="edge1" class="edge"><title>Node534&#45;&gt;Node535</title>
<path fill="none" stroke="midnightblue" d="M92.9681,-95.589C112.126,-100.558 135.714,-106.677 156.088,-111.961"/>
<polygon fill="midnightblue" stroke="midnightblue" points="155.239,-115.357 165.798,-114.48 156.997,-108.581 155.239,-115.357"/>
</g>
<!-- Node536 -->
<g id="node3" class="node"><title>Node536</title>
<g id="a_node3"><a xlink:href="endrun_8c.html#ad963d7efdb9f10f7a2298c8ccd222ab0" target="_top" xlink:title="endrun">
<polygon fill="white" stroke="black" points="180.5,-76.5 180.5,-95.5 226.5,-95.5 226.5,-76.5 180.5,-76.5"/>
<text text-anchor="middle" x="203.5" y="-83.5" font-family="Helvetica,sans-Serif" font-size="10.00">endrun</text>
</a>
</g>
</g>
<!-- Node534&#45;&gt;Node536 -->
<g id="edge2" class="edge"><title>Node534&#45;&gt;Node536</title>
<path fill="none" stroke="midnightblue" d="M110.135,-86C130.25,-86 152.432,-86 170.016,-86"/>
<polygon fill="midnightblue" stroke="midnightblue" points="170.311,-89.5001 180.311,-86 170.311,-82.5001 170.311,-89.5001"/>
</g>
<!-- Node540 -->
<g id="node7" class="node"><title>Node540</title>
<g id="a_node7"><a xlink:href="openmpsort_8c.html#a8938b38d71dd3b45bfc7cc745c096248" target="_top" xlink:title="qsort_openmp">
<polygon fill="white" stroke="black" points="164.5,-38.5 164.5,-57.5 242.5,-57.5 242.5,-38.5 164.5,-38.5"/>
<text text-anchor="middle" x="203.5" y="-45.5" font-family="Helvetica,sans-Serif" font-size="10.00">qsort_openmp</text>
</a>
</g>
</g>
<!-- Node534&#45;&gt;Node540 -->
<g id="edge6" class="edge"><title>Node534&#45;&gt;Node540</title>
<path fill="none" stroke="midnightblue" d="M92.9681,-76.411C112.126,-71.4417 135.714,-65.3233 156.088,-60.0387"/>
<polygon fill="midnightblue" stroke="midnightblue" points="156.997,-63.4188 165.798,-57.5201 155.239,-56.643 156.997,-63.4188"/>
</g>
<!-- Node537 -->
<g id="node4" class="node"><title>Node537</title>
<g id="a_node4"><a xlink:href="endrun_8c.html#a7267113a7c0a094743bb565eabc695d1" target="_top" xlink:title="messagev">
<polygon fill="white" stroke="black" points="309,-76.5 309,-95.5 371,-95.5 371,-76.5 309,-76.5"/>
<text text-anchor="middle" x="340" y="-83.5" font-family="Helvetica,sans-Serif" font-size="10.00">messagev</text>
</a>
</g>
</g>
<!-- Node536&#45;&gt;Node537 -->
<g id="edge3" class="edge"><title>Node536&#45;&gt;Node537</title>
<path fill="none" stroke="midnightblue" d="M226.71,-86C246.208,-86 275.056,-86 298.629,-86"/>
<polygon fill="midnightblue" stroke="midnightblue" points="298.7,-89.5001 308.7,-86 298.7,-82.5001 298.7,-89.5001"/>
</g>
<!-- Node538 -->
<g id="node5" class="node"><title>Node538</title>
<g id="a_node5"><a xlink:href="endrun_8c.html#a87108946670b4c3afbe846c6726675ff" target="_top" xlink:title="putline">
<polygon fill="white" stroke="black" points="440.5,-95.5 440.5,-114.5 485.5,-114.5 485.5,-95.5 440.5,-95.5"/>
<text text-anchor="middle" x="463" y="-102.5" font-family="Helvetica,sans-Serif" font-size="10.00">putline</text>
</a>
</g>
</g>
<!-- Node537&#45;&gt;Node538 -->
<g id="edge4" class="edge"><title>Node537&#45;&gt;Node538</title>
<path fill="none" stroke="midnightblue" d="M371.221,-90.7455C389.21,-93.5702 412.012,-97.1506 430.262,-100.016"/>
<polygon fill="midnightblue" stroke="midnightblue" points="429.72,-103.474 440.141,-101.568 430.805,-96.5587 429.72,-103.474"/>
</g>
<!-- Node539 -->
<g id="node6" class="node"><title>Node539</title>
<g id="a_node6"><a xlink:href="endrun_8c.html#a1200f02a595ab7cbe17c9e36ff32af0f" target="_top" xlink:title="show_backtrace">
<polygon fill="white" stroke="black" points="419,-57.5 419,-76.5 507,-76.5 507,-57.5 419,-57.5"/>
<text text-anchor="middle" x="463" y="-64.5" font-family="Helvetica,sans-Serif" font-size="10.00">show_backtrace</text>
</a>
</g>
</g>
<!-- Node537&#45;&gt;Node539 -->
<g id="edge5" class="edge"><title>Node537&#45;&gt;Node539</title>
<path fill="none" stroke="midnightblue" d="M371.221,-81.2545C382.599,-79.4679 395.903,-77.3789 408.762,-75.3597"/>
<polygon fill="midnightblue" stroke="midnightblue" points="409.598,-78.7714 418.934,-73.7624 408.512,-71.8561 409.598,-78.7714"/>
</g>
<!-- Node541 -->
<g id="node8" class="node"><title>Node541</title>
<g id="a_node8"><a xlink:href="openmpsort_8c.html#af794f526e2627202b5e7d35506fa3434" target="_top" xlink:title="merge">
<polygon fill="white" stroke="black" points="318,-38.5 318,-57.5 362,-57.5 362,-38.5 318,-38.5"/>
<text text-anchor="middle" x="340" y="-45.5" font-family="Helvetica,sans-Serif" font-size="10.00">merge</text>
</a>
</g>
</g>
<!-- Node540&#45;&gt;Node541 -->
<g id="edge7" class="edge"><title>Node540&#45;&gt;Node541</title>
<path fill="none" stroke="midnightblue" d="M242.683,-48C263.259,-48 288.33,-48 307.736,-48"/>
<polygon fill="midnightblue" stroke="midnightblue" points="307.869,-51.5001 317.869,-48 307.869,-44.5001 307.869,-51.5001"/>
</g>
<!-- Node542 -->
<g id="node9" class="node"><title>Node542</title>
<g id="a_node9"><a xlink:href="openmpsort_8c.html#a9af28c641be3cee5fdee6ec137e84c9d" target="_top" xlink:title="msort_with_tmp">
<polygon fill="white" stroke="black" points="297,-0.5 297,-19.5 383,-19.5 383,-0.5 297,-0.5"/>
<text text-anchor="middle" x="340" y="-7.5" font-family="Helvetica,sans-Serif" font-size="10.00">msort_with_tmp</text>
</a>
</g>
</g>
<!-- Node540&#45;&gt;Node542 -->
<g id="edge8" class="edge"><title>Node540&#45;&gt;Node542</title>
<path fill="none" stroke="midnightblue" d="M238.44,-38.411C255.723,-33.5281 276.933,-27.5357 295.411,-22.315"/>
<polygon fill="midnightblue" stroke="midnightblue" points="296.399,-25.673 305.071,-19.5859 294.496,-18.9367 296.399,-25.673"/>
</g>
</g>
</svg>
