<?xml version="1.0" encoding="UTF-8" standalone="no"?>
<!DOCTYPE svg PUBLIC "-//W3C//DTD SVG 1.1//EN"
 "http://www.w3.org/Graphics/SVG/1.1/DTD/svg11.dtd">
<!-- Generated by graphviz version 2.38.0 (20140413.2041)
 -->
<!-- Title: ngb_treefind_threads Pages: 1 -->
<svg width="723pt" height="561pt"
 viewBox="0.00 0.00 723.29 561.04" xmlns="http://www.w3.org/2000/svg" xmlns:xlink="http://www.w3.org/1999/xlink">
<g id="graph0" class="graph" transform="scale(1 1) rotate(0) translate(4 557.04)">
<title>ngb_treefind_threads</title>
<polygon fill="white" stroke="none" points="-4,4 -4,-557.04 719.289,-557.04 719.289,4 -4,4"/>
<!-- Node479 -->
<g id="node1" class="node"><title>Node479</title>
<polygon fill="#bfbfbf" stroke="black" points="5.224,-52.7211 5.224,-71.7211 112.224,-71.7211 112.224,-52.7211 5.224,-52.7211"/>
<text text-anchor="middle" x="58.724" y="-59.7211" font-family="Helvetica,sans-Serif" font-size="10.00">ngb_treefind_threads</text>
</g>
<!-- Node480 -->
<g id="node2" class="node"><title>Node480</title>
<g id="a_node2"><a xlink:href="treewalk_8h.html#a145aa9608fd3824bec8049ee97da1c6f" target="_top" xlink:title="treewalk_visit_ngbiter">
<polygon fill="white" stroke="black" points="58.3792,-99.0018 58.3792,-118.002 169.379,-118.002 169.379,-99.0018 58.3792,-99.0018"/>
<text text-anchor="middle" x="113.879" y="-106.002" font-family="Helvetica,sans-Serif" font-size="10.00">treewalk_visit_ngbiter</text>
</a>
</g>
</g>
<!-- Node479&#45;&gt;Node480 -->
<g id="edge1" class="edge"><title>Node479&#45;&gt;Node480</title>
<path fill="none" stroke="midnightblue" d="M77.8641,-78.2815C86.0657,-85.1635 95.3692,-92.9701 102.466,-98.9247"/>
<polygon fill="midnightblue" stroke="midnightblue" points="80.0624,-75.5572 70.1522,-71.8105 75.5629,-80.9196 80.0624,-75.5572"/>
</g>
<!-- Node481 -->
<g id="node3" class="node"><title>Node481</title>
<g id="a_node3"><a xlink:href="density_8c.html#a69886540d0642590a0022fc14ce61f06" target="_top" xlink:title="density_internal">
<polygon fill="white" stroke="black" points="630.289,-407.252 630.289,-426.252 715.289,-426.252 715.289,-407.252 630.289,-407.252"/>
<text text-anchor="middle" x="672.789" y="-414.252" font-family="Helvetica,sans-Serif" font-size="10.00">density_internal</text>
</a>
</g>
</g>
<!-- Node480&#45;&gt;Node481 -->
<g id="edge2" class="edge"><title>Node480&#45;&gt;Node481</title>
<path fill="none" stroke="midnightblue" d="M140.099,-122.962C237.174,-176.501 574.709,-362.659 655.376,-407.148"/>
<polygon fill="midnightblue" stroke="midnightblue" points="141.666,-119.83 131.219,-118.065 138.285,-125.959 141.666,-119.83"/>
</g>
<!-- Node492 -->
<g id="node14" class="node"><title>Node492</title>
<g id="a_node14"><a xlink:href="fof_8c.html#a77c15fc071e72ec1ea91652d28740ce1" target="_top" xlink:title="fof_label_primary">
<polygon fill="white" stroke="black" points="86.0264,-210.248 86.0264,-229.248 177.026,-229.248 177.026,-210.248 86.0264,-210.248"/>
<text text-anchor="middle" x="131.526" y="-217.248" font-family="Helvetica,sans-Serif" font-size="10.00">fof_label_primary</text>
</a>
</g>
</g>
<!-- Node480&#45;&gt;Node492 -->
<g id="edge16" class="edge"><title>Node480&#45;&gt;Node492</title>
<path fill="none" stroke="midnightblue" d="M117.051,-128.499C120.866,-152.545 127.113,-191.927 129.989,-210.057"/>
<polygon fill="midnightblue" stroke="midnightblue" points="120.469,-127.702 115.445,-118.374 113.555,-128.799 120.469,-127.702"/>
</g>
<!-- Node498 -->
<g id="node20" class="node"><title>Node498</title>
<g id="a_node20"><a xlink:href="fof_8c.html#a9bbff144989b21ac4cbedc3aa2c6b1dc" target="_top" xlink:title="fof_label_secondary">
<polygon fill="white" stroke="black" points="390.5,-97.0631 390.5,-116.063 494.5,-116.063 494.5,-97.0631 390.5,-97.0631"/>
<text text-anchor="middle" x="442.5" y="-104.063" font-family="Helvetica,sans-Serif" font-size="10.00">fof_label_secondary</text>
</a>
</g>
</g>
<!-- Node480&#45;&gt;Node498 -->
<g id="edge27" class="edge"><title>Node480&#45;&gt;Node498</title>
<path fill="none" stroke="midnightblue" d="M179.686,-108.114C241.638,-107.748 333.206,-107.208 390.284,-106.871"/>
<polygon fill="midnightblue" stroke="midnightblue" points="179.604,-104.614 169.625,-108.173 179.646,-111.614 179.604,-104.614"/>
</g>
<!-- Node499 -->
<g id="node21" class="node"><title>Node499</title>
<g id="a_node21"><a xlink:href="runtests_8c.html#a60eab909e50b5e048e572b833dcc2846" target="_top" xlink:title="grav_short_pair">
<polygon fill="white" stroke="black" points="495.974,-210.248 495.974,-229.248 578.974,-229.248 578.974,-210.248 495.974,-210.248"/>
<text text-anchor="middle" x="537.474" y="-217.248" font-family="Helvetica,sans-Serif" font-size="10.00">grav_short_pair</text>
</a>
</g>
</g>
<!-- Node480&#45;&gt;Node499 -->
<g id="edge30" class="edge"><title>Node480&#45;&gt;Node499</title>
<path fill="none" stroke="midnightblue" d="M160.249,-120.68C245.266,-143.007 424.401,-190.052 501.23,-210.23"/>
<polygon fill="midnightblue" stroke="midnightblue" points="160.922,-117.238 150.361,-118.083 159.144,-124.008 160.922,-117.238"/>
</g>
<!-- Node501 -->
<g id="node23" class="node"><title>Node501</title>
<g id="a_node23"><a xlink:href="hydra_8h.html#a6789381bce7d1c316df8ecf04b47a607" target="_top" xlink:title="hydro_force">
<polygon fill="white" stroke="black" points="444.5,-533.54 444.5,-552.54 512.5,-552.54 512.5,-533.54 444.5,-533.54"/>
<text text-anchor="middle" x="478.5" y="-540.54" font-family="Helvetica,sans-Serif" font-size="10.00">hydro_force</text>
</a>
</g>
</g>
<!-- Node480&#45;&gt;Node501 -->
<g id="edge33" class="edge"><title>Node480&#45;&gt;Node501</title>
<path fill="none" stroke="midnightblue" d="M128.818,-126.306C190.432,-199.734 423.764,-477.808 470.37,-533.352"/>
<polygon fill="midnightblue" stroke="midnightblue" points="131.289,-123.805 122.18,-118.394 125.927,-128.304 131.289,-123.805"/>
</g>
<!-- Node482 -->
<g id="node4" class="node"><title>Node482</title>
<g id="a_node4"><a xlink:href="proto_8h.html#a8ce8ad3893801ac7d380efd9b7ef26d3" target="_top" xlink:title="density">
<polygon fill="white" stroke="black" points="581.131,-382.626 581.131,-401.626 629.131,-401.626 629.131,-382.626 581.131,-382.626"/>
<text text-anchor="middle" x="605.131" y="-389.626" font-family="Helvetica,sans-Serif" font-size="10.00">density</text>
</a>
</g>
</g>
<!-- Node481&#45;&gt;Node482 -->
<g id="edge3" class="edge"><title>Node481&#45;&gt;Node482</title>
<path fill="none" stroke="midnightblue" d="M637.032,-403.737C634.423,-402.788 631.829,-401.844 629.313,-400.928"/>
<polygon fill="midnightblue" stroke="midnightblue" points="635.843,-407.029 646.437,-407.161 638.237,-400.451 635.843,-407.029"/>
</g>
<!-- Node491 -->
<g id="node13" class="node"><title>Node491</title>
<g id="a_node13"><a xlink:href="proto_8h.html#a137ca78a0bd40fa7a75438e90e4f66a8" target="_top" xlink:title="density_update">
<polygon fill="white" stroke="black" points="17.224,-515.528 17.224,-534.528 100.224,-534.528 100.224,-515.528 17.224,-515.528"/>
<text text-anchor="middle" x="58.724" y="-522.528" font-family="Helvetica,sans-Serif" font-size="10.00">density_update</text>
</a>
</g>
</g>
<!-- Node481&#45;&gt;Node491 -->
<g id="edge14" class="edge"><title>Node481&#45;&gt;Node491</title>
<path fill="none" stroke="midnightblue" d="M620.053,-426.051C500.087,-447.204 208.783,-498.569 100.323,-517.693"/>
<polygon fill="midnightblue" stroke="midnightblue" points="620.857,-429.463 630.097,-424.28 619.641,-422.569 620.857,-429.463"/>
</g>
<!-- Node483 -->
<g id="node5" class="node"><title>Node483</title>
<g id="a_node5"><a xlink:href="run_8c.html#abb80d08f4d52f4a7bdf28d1cecfead5b" target="_top" xlink:title="compute_accelerations">
<polygon fill="white" stroke="black" points="441.466,-422.967 441.466,-441.967 558.466,-441.967 558.466,-422.967 441.466,-422.967"/>
<text text-anchor="middle" x="499.966" y="-429.967" font-family="Helvetica,sans-Serif" font-size="10.00">compute_accelerations</text>
</a>
</g>
</g>
<!-- Node482&#45;&gt;Node483 -->
<g id="edge4" class="edge"><title>Node482&#45;&gt;Node483</title>
<path fill="none" stroke="midnightblue" d="M571.511,-405.023C556.445,-410.802 538.981,-417.501 525.078,-422.834"/>
<polygon fill="midnightblue" stroke="midnightblue" points="572.921,-408.231 581.004,-401.381 570.414,-401.695 572.921,-408.231"/>
</g>
<!-- Node488 -->
<g id="node10" class="node"><title>Node488</title>
<g id="a_node10"><a xlink:href="init_8c.html#a643ef34b585446f8ccbbf3239df2db71" target="_top" xlink:title="setup_smoothinglengths">
<polygon fill="white" stroke="black" points="52.8792,-469.247 52.8792,-488.247 174.879,-488.247 174.879,-469.247 52.8792,-469.247"/>
<text text-anchor="middle" x="113.879" y="-476.247" font-family="Helvetica,sans-Serif" font-size="10.00">setup_smoothinglengths</text>
</a>
</g>
</g>
<!-- Node482&#45;&gt;Node488 -->
<g id="edge10" class="edge"><title>Node482&#45;&gt;Node488</title>
<path fill="none" stroke="midnightblue" d="M571.09,-398.129C487.177,-412.925 269.855,-451.245 168.025,-469.2"/>
<polygon fill="midnightblue" stroke="midnightblue" points="571.865,-401.546 581.105,-396.363 570.649,-394.653 571.865,-401.546"/>
</g>
<!-- Node484 -->
<g id="node6" class="node"><title>Node484</title>
<g id="a_node6"><a xlink:href="run_8c.html#a05e0ffe612d44e6d7f3a9ae5b9df56a2" target="_top" xlink:title="run">
<polygon fill="white" stroke="black" points="391.5,-408.832 391.5,-427.832 421.5,-427.832 421.5,-408.832 391.5,-408.832"/>
<text text-anchor="middle" x="406.5" y="-415.832" font-family="Helvetica,sans-Serif" font-size="10.00">run</text>
</a>
</g>
</g>
<!-- Node483&#45;&gt;Node484 -->
<g id="edge5" class="edge"><title>Node483&#45;&gt;Node484</title>
<path fill="none" stroke="midnightblue" d="M431.226,-422.071C427.811,-421.555 424.599,-421.069 421.692,-420.63"/>
<polygon fill="midnightblue" stroke="midnightblue" points="430.892,-425.561 441.303,-423.595 431.939,-418.639 430.892,-425.561"/>
</g>
<!-- Node485 -->
<g id="node7" class="node"><title>Node485</title>
<g id="a_node7"><a xlink:href="main_8c.html#a3c04138a5bfe5d72780bb7e82a18e627" target="_top" xlink:title="main">
<polygon fill="white" stroke="black" points="279.5,-221.771 279.5,-240.771 317.5,-240.771 317.5,-221.771 279.5,-221.771"/>
<text text-anchor="middle" x="298.5" y="-228.771" font-family="Helvetica,sans-Serif" font-size="10.00">main</text>
</a>
</g>
</g>
<!-- Node484&#45;&gt;Node485 -->
<g id="edge6" class="edge"><title>Node484&#45;&gt;Node485</title>
<path fill="none" stroke="midnightblue" d="M395.948,-400.055C373.43,-361.053 321.323,-270.802 304.123,-241.01"/>
<polygon fill="midnightblue" stroke="midnightblue" points="392.965,-401.888 400.996,-408.799 399.027,-398.388 392.965,-401.888"/>
</g>
<!-- Node486 -->
<g id="node8" class="node"><title>Node486</title>
<g id="a_node8"><a xlink:href="walltime_8h.html#a76d2135b612766d4d665748454b879d6" target="_top" xlink:title="walltime_report">
<polygon fill="white" stroke="black" points="293,-284.125 293,-303.125 376,-303.125 376,-284.125 293,-284.125"/>
<text text-anchor="middle" x="334.5" y="-291.125" font-family="Helvetica,sans-Serif" font-size="10.00">walltime_report</text>
</a>
</g>
</g>
<!-- Node485&#45;&gt;Node486 -->
<g id="edge7" class="edge"><title>Node485&#45;&gt;Node486</title>
<path fill="none" stroke="midnightblue" d="M309.279,-249.941C315.691,-261.047 323.568,-274.691 328.796,-283.744"/>
<polygon fill="midnightblue" stroke="midnightblue" points="312.156,-247.924 304.125,-241.014 306.094,-251.424 312.156,-247.924"/>
</g>
<!-- Node487 -->
<g id="node9" class="node"><title>Node487</title>
<g id="a_node9"><a xlink:href="run_8c.html#adc59e9ee1517e4e690694a64ab6a59d2" target="_top" xlink:title="write_cpu_log">
<polygon fill="white" stroke="black" points="332,-346.478 332,-365.478 409,-365.478 409,-346.478 332,-346.478"/>
<text text-anchor="middle" x="370.5" y="-353.478" font-family="Helvetica,sans-Serif" font-size="10.00">write_cpu_log</text>
</a>
</g>
</g>
<!-- Node486&#45;&gt;Node487 -->
<g id="edge8" class="edge"><title>Node486&#45;&gt;Node487</title>
<path fill="none" stroke="midnightblue" d="M345.279,-312.295C351.691,-323.4 359.568,-337.044 364.796,-346.098"/>
<polygon fill="midnightblue" stroke="midnightblue" points="348.156,-310.278 340.125,-303.367 342.094,-313.778 348.156,-310.278"/>
</g>
<!-- Node487&#45;&gt;Node484 -->
<g id="edge9" class="edge"><title>Node487&#45;&gt;Node484</title>
<path fill="none" stroke="midnightblue" d="M381.279,-374.648C387.691,-385.754 395.568,-399.398 400.796,-408.452"/>
<polygon fill="midnightblue" stroke="midnightblue" points="384.156,-372.631 376.125,-365.721 378.094,-376.132 384.156,-372.631"/>
</g>
<!-- Node489 -->
<g id="node11" class="node"><title>Node489</title>
<g id="a_node11"><a xlink:href="proto_8h.html#ab080cb20bac2a1a6153a84e8cfd15374" target="_top" xlink:title="init">
<polygon fill="white" stroke="black" points="154.534,-422.967 154.534,-441.967 183.534,-441.967 183.534,-422.967 154.534,-422.967"/>
<text text-anchor="middle" x="169.034" y="-429.967" font-family="Helvetica,sans-Serif" font-size="10.00">init</text>
</a>
</g>
</g>
<!-- Node488&#45;&gt;Node489 -->
<g id="edge11" class="edge"><title>Node488&#45;&gt;Node489</title>
<path fill="none" stroke="midnightblue" d="M133.019,-462.687C141.221,-455.805 150.524,-447.999 157.621,-442.044"/>
<polygon fill="midnightblue" stroke="midnightblue" points="130.718,-460.049 125.307,-469.158 135.218,-465.411 130.718,-460.049"/>
</g>
<!-- Node490 -->
<g id="node12" class="node"><title>Node490</title>
<g id="a_node12"><a xlink:href="proto_8h.html#a74dc0e5e9eefe11fc8434b62de573146" target="_top" xlink:title="begrun">
<polygon fill="white" stroke="black" points="201.19,-376.686 201.19,-395.686 247.19,-395.686 247.19,-376.686 201.19,-376.686"/>
<text text-anchor="middle" x="224.19" y="-383.686" font-family="Helvetica,sans-Serif" font-size="10.00">begrun</text>
</a>
</g>
</g>
<!-- Node489&#45;&gt;Node490 -->
<g id="edge12" class="edge"><title>Node489&#45;&gt;Node490</title>
<path fill="none" stroke="midnightblue" d="M188.174,-416.406C196.376,-409.524 205.68,-401.718 212.776,-395.763"/>
<polygon fill="midnightblue" stroke="midnightblue" points="185.873,-413.768 180.463,-422.877 190.373,-419.131 185.873,-413.768"/>
</g>
<!-- Node490&#45;&gt;Node485 -->
<g id="edge13" class="edge"><title>Node490&#45;&gt;Node485</title>
<path fill="none" stroke="midnightblue" d="M233.209,-367.383C249.15,-334.151 281.761,-266.166 293.853,-240.958"/>
<polygon fill="midnightblue" stroke="midnightblue" points="230.007,-365.965 228.838,-376.495 236.319,-368.993 230.007,-365.965"/>
</g>
<!-- Node491&#45;&gt;Node488 -->
<g id="edge15" class="edge"><title>Node491&#45;&gt;Node488</title>
<path fill="none" stroke="midnightblue" d="M77.8641,-508.968C86.0657,-502.086 95.3692,-494.279 102.466,-488.325"/>
<polygon fill="midnightblue" stroke="midnightblue" points="75.5629,-506.33 70.1522,-515.439 80.0624,-511.692 75.5629,-506.33"/>
</g>
<!-- Node493 -->
<g id="node15" class="node"><title>Node493</title>
<g id="a_node15"><a xlink:href="fof_8h.html#a7f10d50a8e07ce0bb67ffdfaf904d7c8" target="_top" xlink:title="fof_fof">
<polygon fill="white" stroke="black" points="240.5,-159.417 240.5,-178.417 284.5,-178.417 284.5,-159.417 240.5,-159.417"/>
<text text-anchor="middle" x="262.5" y="-166.417" font-family="Helvetica,sans-Serif" font-size="10.00">fof_fof</text>
</a>
</g>
</g>
<!-- Node492&#45;&gt;Node493 -->
<g id="edge17" class="edge"><title>Node492&#45;&gt;Node493</title>
<path fill="none" stroke="midnightblue" d="M165.749,-206.466C189.239,-197.35 219.741,-185.512 240.159,-177.588"/>
<polygon fill="midnightblue" stroke="midnightblue" points="164.218,-203.306 156.162,-210.187 166.75,-209.832 164.218,-203.306"/>
</g>
<!-- Node495 -->
<g id="node17" class="node"><title>Node495</title>
<g id="a_node17"><a xlink:href="fof_8c.html#aa0d13cc94e97083dfd468ed33331eed7" target="_top" xlink:title="fof_periodic_wrap">
<polygon fill="white" stroke="black" points="-2.13163e-14,-284.125 -2.13163e-14,-303.125 93,-303.125 93,-284.125 -2.13163e-14,-284.125"/>
<text text-anchor="middle" x="46.5" y="-291.125" font-family="Helvetica,sans-Serif" font-size="10.00">fof_periodic_wrap</text>
</a>
</g>
</g>
<!-- Node492&#45;&gt;Node495 -->
<g id="edge21" class="edge"><title>Node492&#45;&gt;Node495</title>
<path fill="none" stroke="midnightblue" d="M112.789,-236.029C95.8966,-250.706 71.6235,-271.796 57.6184,-283.964"/>
<polygon fill="midnightblue" stroke="midnightblue" points="115.158,-238.607 120.411,-229.406 110.566,-233.323 115.158,-238.607"/>
</g>
<!-- Node493&#45;&gt;Node485 -->
<g id="edge18" class="edge"><title>Node493&#45;&gt;Node485</title>
<path fill="none" stroke="midnightblue" d="M273.279,-187.587C279.691,-198.693 287.568,-212.337 292.796,-221.391"/>
<polygon fill="midnightblue" stroke="midnightblue" points="276.156,-185.57 268.125,-178.66 270.094,-189.07 276.156,-185.57"/>
</g>
<!-- Node494 -->
<g id="node16" class="node"><title>Node494</title>
<g id="a_node16"><a xlink:href="proto_8h.html#a312b6a02f7cde171412989ea5f9be48f" target="_top" xlink:title="write_checkpoint">
<polygon fill="white" stroke="black" points="251.992,-496.843 251.992,-515.843 341.992,-515.843 341.992,-496.843 251.992,-496.843"/>
<text text-anchor="middle" x="296.992" y="-503.843" font-family="Helvetica,sans-Serif" font-size="10.00">write_checkpoint</text>
</a>
</g>
</g>
<!-- Node493&#45;&gt;Node494 -->
<g id="edge19" class="edge"><title>Node493&#45;&gt;Node494</title>
<path fill="none" stroke="midnightblue" d="M264.549,-188.964C271.082,-252.871 291.263,-450.3 295.993,-496.569"/>
<polygon fill="midnightblue" stroke="midnightblue" points="267.994,-188.244 263.495,-178.652 261.03,-188.956 267.994,-188.244"/>
</g>
<!-- Node494&#45;&gt;Node484 -->
<g id="edge20" class="edge"><title>Node494&#45;&gt;Node484</title>
<path fill="none" stroke="midnightblue" d="M317.112,-490.173C339.833,-471.912 376.051,-442.804 394.641,-427.863"/>
<polygon fill="midnightblue" stroke="midnightblue" points="314.732,-487.595 309.13,-496.588 319.117,-493.052 314.732,-487.595"/>
</g>
<!-- Node496 -->
<g id="node18" class="node"><title>Node496</title>
<g id="a_node18"><a xlink:href="fof_8c.html#a36336d505e8a4fb8e8fdaf9a796e40d4" target="_top" xlink:title="fof_finish_group_properties">
<polygon fill="white" stroke="black" points="217.489,-0.5 217.489,-19.5 351.489,-19.5 351.489,-0.5 217.489,-0.5"/>
<text text-anchor="middle" x="284.489" y="-7.5" font-family="Helvetica,sans-Serif" font-size="10.00">fof_finish_group_properties</text>
</a>
</g>
</g>
<!-- Node495&#45;&gt;Node496 -->
<g id="edge22" class="edge"><title>Node495&#45;&gt;Node496</title>
<path fill="none" stroke="midnightblue" d="M65.4154,-276.701C115.985,-223.496 251.564,-61.3209 279.543,-19.7184"/>
<polygon fill="midnightblue" stroke="midnightblue" points="62.781,-274.39 58.3255,-284.002 67.803,-279.266 62.781,-274.39"/>
</g>
<!-- Node496&#45;&gt;Node495 -->
<g id="edge26" class="edge"><title>Node496&#45;&gt;Node495</title>
<path fill="none" stroke="midnightblue" d="M265.574,-26.9238C215.004,-80.1287 79.4254,-242.304 51.4465,-283.906"/>
<polygon fill="midnightblue" stroke="midnightblue" points="268.208,-29.235 272.664,-19.6226 263.186,-24.3585 268.208,-29.235"/>
</g>
<!-- Node497 -->
<g id="node19" class="node"><title>Node497</title>
<g id="a_node19"><a xlink:href="fof_8c.html#ae4b5e05b1f0225637629759a9e2ba72e" target="_top" xlink:title="fof_compile_catalogue">
<polygon fill="white" stroke="black" points="239.992,-71.4062 239.992,-90.4062 353.992,-90.4062 353.992,-71.4062 239.992,-71.4062"/>
<text text-anchor="middle" x="296.992" y="-78.4062" font-family="Helvetica,sans-Serif" font-size="10.00">fof_compile_catalogue</text>
</a>
</g>
</g>
<!-- Node496&#45;&gt;Node497 -->
<g id="edge23" class="edge"><title>Node496&#45;&gt;Node497</title>
<path fill="none" stroke="midnightblue" d="M287.97,-29.7376C290.34,-43.1793 293.376,-60.3996 295.252,-71.04"/>
<polygon fill="midnightblue" stroke="midnightblue" points="291.359,-28.803 286.175,-19.5627 284.465,-30.0186 291.359,-28.803"/>
</g>
<!-- Node497&#45;&gt;Node493 -->
<g id="edge24" class="edge"><title>Node497&#45;&gt;Node493</title>
<path fill="none" stroke="midnightblue" d="M289.486,-100.06C282.308,-118.375 271.781,-145.235 266.235,-159.386"/>
<polygon fill="midnightblue" stroke="midnightblue" points="292.779,-101.249 293.169,-90.6611 286.261,-98.6945 292.779,-101.249"/>
</g>
<!-- Node497&#45;&gt;Node495 -->
<g id="edge25" class="edge"><title>Node497&#45;&gt;Node495</title>
<path fill="none" stroke="midnightblue" d="M277.828,-97.1806C228.246,-139.285 96.8912,-250.832 57.6948,-284.118"/>
<polygon fill="midnightblue" stroke="midnightblue" points="280.221,-99.7398 285.578,-90.599 275.69,-94.4041 280.221,-99.7398"/>
</g>
<!-- Node498&#45;&gt;Node493 -->
<g id="edge28" class="edge"><title>Node498&#45;&gt;Node493</title>
<path fill="none" stroke="midnightblue" d="M405.004,-119.552C368.601,-132.163 314.575,-150.878 284.586,-161.266"/>
<polygon fill="midnightblue" stroke="midnightblue" points="406.466,-122.75 414.769,-116.169 404.175,-116.135 406.466,-122.75"/>
</g>
<!-- Node498&#45;&gt;Node495 -->
<g id="edge29" class="edge"><title>Node498&#45;&gt;Node495</title>
<path fill="none" stroke="midnightblue" d="M413.213,-120.397C336.606,-156.585 131.728,-253.365 66.6415,-284.11"/>
<polygon fill="midnightblue" stroke="midnightblue" points="414.771,-123.533 422.318,-116.097 411.781,-117.203 414.771,-123.533"/>
</g>
<!-- Node500 -->
<g id="node22" class="node"><title>Node500</title>
<g id="a_node22"><a xlink:href="runtests_8c.html#a549024555ca61e3f05a7100307e44f69" target="_top" xlink:title="runtests">
<polygon fill="white" stroke="black" points="443.816,-234.874 443.816,-253.874 495.816,-253.874 495.816,-234.874 443.816,-234.874"/>
<text text-anchor="middle" x="469.816" y="-241.874" font-family="Helvetica,sans-Serif" font-size="10.00">runtests</text>
</a>
</g>
</g>
<!-- Node499&#45;&gt;Node500 -->
<g id="edge31" class="edge"><title>Node499&#45;&gt;Node500</title>
<path fill="none" stroke="midnightblue" d="M501.319,-232.908C499.601,-233.533 497.891,-234.155 496.207,-234.768"/>
<polygon fill="midnightblue" stroke="midnightblue" points="502.922,-236.049 511.122,-229.34 500.528,-229.471 502.922,-236.049"/>
</g>
<!-- Node500&#45;&gt;Node485 -->
<g id="edge32" class="edge"><title>Node500&#45;&gt;Node485</title>
<path fill="none" stroke="midnightblue" d="M433.421,-241.59C398.088,-238.888 345.813,-234.89 317.837,-232.75"/>
<polygon fill="midnightblue" stroke="midnightblue" points="433.559,-245.111 443.797,-242.384 434.093,-238.131 433.559,-245.111"/>
</g>
<!-- Node501&#45;&gt;Node483 -->
<g id="edge34" class="edge"><title>Node501&#45;&gt;Node483</title>
<path fill="none" stroke="midnightblue" d="M482.359,-523.163C486.998,-499.263 494.597,-460.12 498.096,-442.1"/>
<polygon fill="midnightblue" stroke="midnightblue" points="478.875,-522.744 480.405,-533.227 485.747,-524.078 478.875,-522.744"/>
</g>
</g>
</svg>
