<?xml version="1.0" encoding="UTF-8" standalone="no"?>
<!DOCTYPE svg PUBLIC "-//W3C//DTD SVG 1.1//EN"
 "http://www.w3.org/Graphics/SVG/1.1/DTD/svg11.dtd">
<!-- Generated by graphviz version 2.38.0 (20140413.2041)
 -->
<!-- Title: treewalk_build_queue Pages: 1 -->
<svg width="427pt" height="370pt"
 viewBox="0.00 0.00 427.25 370.38" xmlns="http://www.w3.org/2000/svg" xmlns:xlink="http://www.w3.org/1999/xlink">
<g id="graph0" class="graph" transform="scale(1 1) rotate(0) translate(4 366.38)">
<title>treewalk_build_queue</title>
<polygon fill="white" stroke="none" points="-4,4 -4,-366.38 423.248,-366.38 423.248,4 -4,4"/>
<!-- Node534 -->
<g id="node1" class="node"><title>Node534</title>
<polygon fill="#bfbfbf" stroke="black" points="124.251,-137.452 124.251,-156.452 234.251,-156.452 234.251,-137.452 124.251,-137.452"/>
<text text-anchor="middle" x="179.251" y="-144.452" font-family="Helvetica,sans-Serif" font-size="10.00">treewalk_build_queue</text>
</g>
<!-- Node535 -->
<g id="node2" class="node"><title>Node535</title>
<g id="a_node2"><a xlink:href="system_8h.html#a00eeba7aebd7952f4c0ecebb60fbeca2" target="_top" xlink:title="atomic_fetch_and_add">
<polygon fill="white" stroke="black" points="0,-205.928 0,-224.928 115,-224.928 115,-205.928 0,-205.928"/>
<text text-anchor="middle" x="57.5" y="-212.928" font-family="Helvetica,sans-Serif" font-size="10.00">atomic_fetch_and_add</text>
</a>
</g>
</g>
<!-- Node534&#45;&gt;Node535 -->
<g id="edge1" class="edge"><title>Node534&#45;&gt;Node535</title>
<path fill="none" stroke="midnightblue" d="M162.322,-156.473C141.902,-167.958 107.357,-187.387 83.538,-200.784"/>
<polygon fill="midnightblue" stroke="midnightblue" points="81.6779,-197.814 74.6776,-205.767 85.1094,-203.915 81.6779,-197.814"/>
</g>
<!-- Node536 -->
<g id="node3" class="node"><title>Node536</title>
<g id="a_node3"><a xlink:href="endrun_8c.html#ad963d7efdb9f10f7a2298c8ccd222ab0" target="_top" xlink:title="endrun">
<polygon fill="white" stroke="black" points="178.5,-205.928 178.5,-224.928 224.5,-224.928 224.5,-205.928 178.5,-205.928"/>
<text text-anchor="middle" x="201.5" y="-212.928" font-family="Helvetica,sans-Serif" font-size="10.00">endrun</text>
</a>
</g>
</g>
<!-- Node534&#45;&gt;Node536 -->
<g id="edge2" class="edge"><title>Node534&#45;&gt;Node536</title>
<path fill="none" stroke="midnightblue" d="M182.344,-156.473C185.628,-166.579 190.91,-182.837 195.097,-195.723"/>
<polygon fill="midnightblue" stroke="midnightblue" points="191.87,-197.115 198.289,-205.544 198.527,-194.952 191.87,-197.115"/>
</g>
<!-- Node540 -->
<g id="node7" class="node"><title>Node540</title>
<g id="a_node7"><a xlink:href="openmpsort_8c.html#a8938b38d71dd3b45bfc7cc745c096248" target="_top" xlink:title="qsort_openmp">
<polygon fill="white" stroke="black" points="206.998,-68.9761 206.998,-87.9761 284.998,-87.9761 284.998,-68.9761 206.998,-68.9761"/>
<text text-anchor="middle" x="245.998" y="-75.9761" font-family="Helvetica,sans-Serif" font-size="10.00">qsort_openmp</text>
</a>
</g>
</g>
<!-- Node534&#45;&gt;Node540 -->
<g id="edge6" class="edge"><title>Node534&#45;&gt;Node540</title>
<path fill="none" stroke="midnightblue" d="M188.532,-137.431C199.072,-126.618 216.478,-108.761 229.376,-95.5286"/>
<polygon fill="midnightblue" stroke="midnightblue" points="231.89,-97.9639 236.364,-88.3599 226.878,-93.0778 231.89,-97.9639"/>
</g>
<!-- Node537 -->
<g id="node4" class="node"><title>Node537</title>
<g id="a_node4"><a xlink:href="endrun_8c.html#a7267113a7c0a094743bb565eabc695d1" target="_top" xlink:title="messagev">
<polygon fill="white" stroke="black" points="192.749,-274.404 192.749,-293.404 254.749,-293.404 254.749,-274.404 192.749,-274.404"/>
<text text-anchor="middle" x="223.749" y="-281.404" font-family="Helvetica,sans-Serif" font-size="10.00">messagev</text>
</a>
</g>
</g>
<!-- Node536&#45;&gt;Node537 -->
<g id="edge3" class="edge"><title>Node536&#45;&gt;Node537</title>
<path fill="none" stroke="midnightblue" d="M204.594,-224.95C207.877,-235.055 213.16,-251.313 217.346,-264.199"/>
<polygon fill="midnightblue" stroke="midnightblue" points="214.119,-265.591 220.538,-274.02 220.776,-263.428 214.119,-265.591"/>
</g>
<!-- Node538 -->
<g id="node5" class="node"><title>Node538</title>
<g id="a_node5"><a xlink:href="endrun_8c.html#a87108946670b4c3afbe846c6726675ff" target="_top" xlink:title="putline">
<polygon fill="white" stroke="black" points="295.498,-290.569 295.498,-309.569 340.498,-309.569 340.498,-290.569 295.498,-290.569"/>
<text text-anchor="middle" x="317.998" y="-297.569" font-family="Helvetica,sans-Serif" font-size="10.00">putline</text>
</a>
</g>
</g>
<!-- Node537&#45;&gt;Node538 -->
<g id="edge4" class="edge"><title>Node537&#45;&gt;Node538</title>
<path fill="none" stroke="midnightblue" d="M254.871,-289.242C264.661,-290.921 275.496,-292.78 285.386,-294.476"/>
<polygon fill="midnightblue" stroke="midnightblue" points="284.819,-297.93 295.267,-296.171 286.002,-291.03 284.819,-297.93"/>
</g>
<!-- Node539 -->
<g id="node6" class="node"><title>Node539</title>
<g id="a_node6"><a xlink:href="endrun_8c.html#a1200f02a595ab7cbe17c9e36ff32af0f" target="_top" xlink:title="show_backtrace">
<polygon fill="white" stroke="black" points="113.002,-342.88 113.002,-361.88 201.002,-361.88 201.002,-342.88 113.002,-342.88"/>
<text text-anchor="middle" x="157.002" y="-349.88" font-family="Helvetica,sans-Serif" font-size="10.00">show_backtrace</text>
</a>
</g>
</g>
<!-- Node537&#45;&gt;Node539 -->
<g id="edge5" class="edge"><title>Node537&#45;&gt;Node539</title>
<path fill="none" stroke="midnightblue" d="M214.468,-293.426C203.928,-304.239 186.522,-322.095 173.624,-335.328"/>
<polygon fill="midnightblue" stroke="midnightblue" points="171.11,-332.893 166.636,-342.496 176.122,-337.779 171.11,-332.893"/>
</g>
<!-- Node541 -->
<g id="node8" class="node"><title>Node541</title>
<g id="a_node8"><a xlink:href="openmpsort_8c.html#af794f526e2627202b5e7d35506fa3434" target="_top" xlink:title="merge">
<polygon fill="white" stroke="black" points="112.752,-0.5 112.752,-19.5 156.752,-19.5 156.752,-0.5 112.752,-0.5"/>
<text text-anchor="middle" x="134.752" y="-7.5" font-family="Helvetica,sans-Serif" font-size="10.00">merge</text>
</a>
</g>
</g>
<!-- Node540&#45;&gt;Node541 -->
<g id="edge7" class="edge"><title>Node540&#45;&gt;Node541</title>
<path fill="none" stroke="midnightblue" d="M230.53,-68.9548C212.037,-57.5718 180.865,-38.3843 159.124,-25.0016"/>
<polygon fill="midnightblue" stroke="midnightblue" points="160.799,-21.9225 150.448,-19.6612 157.129,-27.8838 160.799,-21.9225"/>
</g>
<!-- Node542 -->
<g id="node9" class="node"><title>Node542</title>
<g id="a_node9"><a xlink:href="openmpsort_8c.html#a9af28c641be3cee5fdee6ec137e84c9d" target="_top" xlink:title="msort_with_tmp">
<polygon fill="white" stroke="black" points="333.248,-78.9666 333.248,-97.9666 419.248,-97.9666 419.248,-78.9666 333.248,-78.9666"/>
<text text-anchor="middle" x="376.248" y="-85.9666" font-family="Helvetica,sans-Serif" font-size="10.00">msort_with_tmp</text>
</a>
</g>
</g>
<!-- Node540&#45;&gt;Node542 -->
<g id="edge8" class="edge"><title>Node540&#45;&gt;Node542</title>
<path fill="none" stroke="midnightblue" d="M285.078,-81.4736C297.021,-82.3897 310.364,-83.4131 323.078,-84.3883"/>
<polygon fill="midnightblue" stroke="midnightblue" points="322.861,-87.8819 333.1,-85.157 323.397,-80.9024 322.861,-87.8819"/>
</g>
</g>
</svg>
