<?xml version="1.0" encoding="UTF-8" standalone="no"?>
<!DOCTYPE svg PUBLIC "-//W3C//DTD SVG 1.1//EN"
 "http://www.w3.org/Graphics/SVG/1.1/DTD/svg11.dtd">
<!-- Generated by graphviz version 2.38.0 (20140413.2041)
 -->
<!-- Title: ev_communicate Pages: 1 -->
<svg width="828pt" height="621pt"
 viewBox="0.00 0.00 828.06 620.55" xmlns="http://www.w3.org/2000/svg" xmlns:xlink="http://www.w3.org/1999/xlink">
<g id="graph0" class="graph" transform="scale(1 1) rotate(0) translate(4 616.548)">
<title>ev_communicate</title>
<polygon fill="white" stroke="none" points="-4,4 -4,-616.548 824.056,-616.548 824.056,4 -4,4"/>
<!-- Node151 -->
<g id="node1" class="node"><title>Node151</title>
<polygon fill="#bfbfbf" stroke="black" points="1.42109e-14,-96.0138 1.42109e-14,-115.014 91,-115.014 91,-96.0138 1.42109e-14,-96.0138"/>
<text text-anchor="middle" x="45.5" y="-103.014" font-family="Helvetica,sans-Serif" font-size="10.00">ev_communicate</text>
</g>
<!-- Node152 -->
<g id="node2" class="node"><title>Node152</title>
<g id="a_node2"><a xlink:href="treewalk_8c.html#a587df5201e3b9d6608189f9c606c2633" target="_top" xlink:title="ev_get_remote">
<polygon fill="white" stroke="black" points="68.7528,-129.474 68.7528,-148.474 149.753,-148.474 149.753,-129.474 68.7528,-129.474"/>
<text text-anchor="middle" x="109.253" y="-136.474" font-family="Helvetica,sans-Serif" font-size="10.00">ev_get_remote</text>
</a>
</g>
</g>
<!-- Node151&#45;&gt;Node152 -->
<g id="edge1" class="edge"><title>Node151&#45;&gt;Node152</title>
<path fill="none" stroke="midnightblue" d="M73.1665,-120.034C79.2283,-123.216 85.4969,-126.506 91.0745,-129.433"/>
<polygon fill="midnightblue" stroke="midnightblue" points="74.4211,-116.74 63.94,-115.192 71.168,-122.938 74.4211,-116.74"/>
</g>
<!-- Node178 -->
<g id="node28" class="node"><title>Node178</title>
<g id="a_node28"><a xlink:href="treewalk_8c.html#afe78385cec6aabfdd65e6c619a307ef3" target="_top" xlink:title="ev_reduce_result">
<polygon fill="white" stroke="black" points="178.014,-0.5 178.014,-19.5 269.014,-19.5 269.014,-0.5 178.014,-0.5"/>
<text text-anchor="middle" x="223.514" y="-7.5" font-family="Helvetica,sans-Serif" font-size="10.00">ev_reduce_result</text>
</a>
</g>
</g>
<!-- Node151&#45;&gt;Node178 -->
<g id="edge42" class="edge"><title>Node151&#45;&gt;Node178</title>
<path fill="none" stroke="midnightblue" d="M72.3608,-91.1015C109.152,-71.3613 174.221,-36.4479 205.602,-19.6107"/>
<polygon fill="midnightblue" stroke="midnightblue" points="70.3764,-88.1942 63.2194,-96.0064 73.686,-94.3625 70.3764,-88.1942"/>
</g>
<!-- Node153 -->
<g id="node3" class="node"><title>Node153</title>
<g id="a_node3"><a xlink:href="treewalk_8h.html#aa6772bdbc1552278ca7dae6a9adb031d" target="_top" xlink:title="treewalk_run">
<polygon fill="white" stroke="black" points="137.006,-162.934 137.006,-181.934 209.006,-181.934 209.006,-162.934 137.006,-162.934"/>
<text text-anchor="middle" x="173.006" y="-169.934" font-family="Helvetica,sans-Serif" font-size="10.00">treewalk_run</text>
</a>
</g>
</g>
<!-- Node152&#45;&gt;Node153 -->
<g id="edge2" class="edge"><title>Node152&#45;&gt;Node153</title>
<path fill="none" stroke="midnightblue" d="M136.919,-153.494C142.981,-156.676 149.25,-159.966 154.827,-162.893"/>
<polygon fill="midnightblue" stroke="midnightblue" points="138.174,-150.2 127.693,-148.652 134.921,-156.398 138.174,-150.2"/>
</g>
<!-- Node154 -->
<g id="node4" class="node"><title>Node154</title>
<g id="a_node4"><a xlink:href="density_8c.html#a69886540d0642590a0022fc14ce61f06" target="_top" xlink:title="density_internal">
<polygon fill="white" stroke="black" points="735.056,-382.928 735.056,-401.928 820.056,-401.928 820.056,-382.928 735.056,-382.928"/>
<text text-anchor="middle" x="777.556" y="-389.928" font-family="Helvetica,sans-Serif" font-size="10.00">density_internal</text>
</a>
</g>
</g>
<!-- Node153&#45;&gt;Node154 -->
<g id="edge3" class="edge"><title>Node153&#45;&gt;Node154</title>
<path fill="none" stroke="midnightblue" d="M208.77,-185.448C319.495,-225.741 654.99,-347.827 751.392,-382.907"/>
<polygon fill="midnightblue" stroke="midnightblue" points="209.965,-182.159 199.371,-182.028 207.571,-188.737 209.965,-182.159"/>
</g>
<!-- Node165 -->
<g id="node15" class="node"><title>Node165</title>
<g id="a_node15"><a xlink:href="fof_8c.html#a77c15fc071e72ec1ea91652d28740ce1" target="_top" xlink:title="fof_label_primary">
<polygon fill="white" stroke="black" points="172.794,-245.082 172.794,-264.082 263.794,-264.082 263.794,-245.082 172.794,-245.082"/>
<text text-anchor="middle" x="218.294" y="-252.082" font-family="Helvetica,sans-Serif" font-size="10.00">fof_label_primary</text>
</a>
</g>
</g>
<!-- Node153&#45;&gt;Node165 -->
<g id="edge17" class="edge"><title>Node153&#45;&gt;Node165</title>
<path fill="none" stroke="midnightblue" d="M183.273,-191.058C192.486,-207.77 205.645,-231.639 212.928,-244.849"/>
<polygon fill="midnightblue" stroke="midnightblue" points="186.272,-189.248 178.379,-182.18 180.141,-192.627 186.272,-189.248"/>
</g>
<!-- Node171 -->
<g id="node21" class="node"><title>Node171</title>
<g id="a_node21"><a xlink:href="fof_8c.html#a9bbff144989b21ac4cbedc3aa2c6b1dc" target="_top" xlink:title="fof_label_secondary">
<polygon fill="white" stroke="black" points="452.612,-94.8107 452.612,-113.811 556.612,-113.811 556.612,-94.8107 452.612,-94.8107"/>
<text text-anchor="middle" x="504.612" y="-101.811" font-family="Helvetica,sans-Serif" font-size="10.00">fof_label_secondary</text>
</a>
</g>
</g>
<!-- Node153&#45;&gt;Node171 -->
<g id="edge28" class="edge"><title>Node153&#45;&gt;Node171</title>
<path fill="none" stroke="midnightblue" d="M219.192,-162.946C282.33,-149.975 394.948,-126.839 458.203,-113.845"/>
<polygon fill="midnightblue" stroke="midnightblue" points="218.216,-159.573 209.125,-165.014 219.624,-166.43 218.216,-159.573"/>
</g>
<!-- Node172 -->
<g id="node22" class="node"><title>Node172</title>
<g id="a_node22"><a xlink:href="runtests_8c.html#a60eab909e50b5e048e572b833dcc2846" target="_top" xlink:title="grav_short_pair">
<polygon fill="white" stroke="black" points="548.195,-153.54 548.195,-172.54 631.195,-172.54 631.195,-153.54 548.195,-153.54"/>
<text text-anchor="middle" x="589.695" y="-160.54" font-family="Helvetica,sans-Serif" font-size="10.00">grav_short_pair</text>
</a>
</g>
</g>
<!-- Node153&#45;&gt;Node172 -->
<g id="edge31" class="edge"><title>Node153&#45;&gt;Node172</title>
<path fill="none" stroke="midnightblue" d="M219.5,-171.386C301.318,-169.541 469.762,-165.744 548.027,-163.979"/>
<polygon fill="midnightblue" stroke="midnightblue" points="219.174,-167.892 209.255,-171.617 219.332,-174.89 219.174,-167.892"/>
</g>
<!-- Node174 -->
<g id="node24" class="node"><title>Node174</title>
<g id="a_node24"><a xlink:href="gravshort-tree-old_8c.html#af703f51f005d6f005c4cfd250fdd5eb9" target="_top" xlink:title="grav_short_tree_old">
<polygon fill="white" stroke="black" points="17.017,-296.774 17.017,-315.774 119.017,-315.774 119.017,-296.774 17.017,-296.774"/>
<text text-anchor="middle" x="68.017" y="-303.774" font-family="Helvetica,sans-Serif" font-size="10.00">grav_short_tree_old</text>
</a>
</g>
</g>
<!-- Node153&#45;&gt;Node174 -->
<g id="edge34" class="edge"><title>Node153&#45;&gt;Node174</title>
<path fill="none" stroke="midnightblue" d="M159.218,-190.01C136.748,-218.655 92.9859,-274.444 75.4991,-296.736"/>
<polygon fill="midnightblue" stroke="midnightblue" points="162.037,-192.088 165.455,-182.059 156.529,-187.767 162.037,-192.088"/>
</g>
<!-- Node175 -->
<g id="node25" class="node"><title>Node175</title>
<g id="a_node25"><a xlink:href="proto_8h.html#a3890f7b7605d1abaf3cd23eeca5bcdd5" target="_top" xlink:title="grav_short_tree">
<polygon fill="white" stroke="black" points="595.74,-245.082 595.74,-264.082 679.74,-264.082 679.74,-245.082 595.74,-245.082"/>
<text text-anchor="middle" x="637.74" y="-252.082" font-family="Helvetica,sans-Serif" font-size="10.00">grav_short_tree</text>
</a>
</g>
</g>
<!-- Node153&#45;&gt;Node175 -->
<g id="edge35" class="edge"><title>Node153&#45;&gt;Node175</title>
<path fill="none" stroke="midnightblue" d="M219.034,-180.57C309.39,-196.542 508.725,-231.777 595.735,-247.157"/>
<polygon fill="midnightblue" stroke="midnightblue" points="219.543,-177.106 209.086,-178.812 218.324,-183.999 219.543,-177.106"/>
</g>
<!-- Node176 -->
<g id="node26" class="node"><title>Node176</title>
<g id="a_node26"><a xlink:href="hydra_8h.html#a6789381bce7d1c316df8ecf04b47a607" target="_top" xlink:title="hydro_force">
<polygon fill="white" stroke="black" points="609.588,-487.754 609.588,-506.754 677.588,-506.754 677.588,-487.754 609.588,-487.754"/>
<text text-anchor="middle" x="643.588" y="-494.754" font-family="Helvetica,sans-Serif" font-size="10.00">hydro_force</text>
</a>
</g>
</g>
<!-- Node153&#45;&gt;Node176 -->
<g id="edge38" class="edge"><title>Node153&#45;&gt;Node176</title>
<path fill="none" stroke="midnightblue" d="M195.441,-187.92C277.892,-244.832 562.807,-441.495 629.53,-487.55"/>
<polygon fill="midnightblue" stroke="midnightblue" points="197.053,-184.779 186.834,-181.979 193.076,-190.54 197.053,-184.779"/>
</g>
<!-- Node177 -->
<g id="node27" class="node"><title>Node177</title>
<g id="a_node27"><a xlink:href="sfr__eff_8h.html#aaa7b178a168a5d23b2cfe478ebc58ee1" target="_top" xlink:title="cooling_only">
<polygon fill="white" stroke="black" points="494.643,-566.059 494.643,-585.059 565.643,-585.059 565.643,-566.059 494.643,-566.059"/>
<text text-anchor="middle" x="530.143" y="-573.059" font-family="Helvetica,sans-Serif" font-size="10.00">cooling_only</text>
</a>
</g>
</g>
<!-- Node153&#45;&gt;Node177 -->
<g id="edge40" class="edge"><title>Node153&#45;&gt;Node177</title>
<path fill="none" stroke="midnightblue" d="M188.413,-189.826C249.656,-258.954 474.789,-513.077 521.588,-565.902"/>
<polygon fill="midnightblue" stroke="midnightblue" points="190.733,-187.165 181.482,-182.001 185.493,-191.807 190.733,-187.165"/>
</g>
<!-- Node155 -->
<g id="node5" class="node"><title>Node155</title>
<g id="a_node5"><a xlink:href="proto_8h.html#a8ce8ad3893801ac7d380efd9b7ef26d3" target="_top" xlink:title="density">
<polygon fill="white" stroke="black" points="683.648,-365.697 683.648,-384.697 731.648,-384.697 731.648,-365.697 683.648,-365.697"/>
<text text-anchor="middle" x="707.648" y="-372.697" font-family="Helvetica,sans-Serif" font-size="10.00">density</text>
</a>
</g>
</g>
<!-- Node154&#45;&gt;Node155 -->
<g id="edge4" class="edge"><title>Node154&#45;&gt;Node155</title>
<path fill="none" stroke="midnightblue" d="M732.272,-381.266C732.127,-381.231 731.982,-381.195 731.838,-381.159"/>
<polygon fill="midnightblue" stroke="midnightblue" points="728.375,-383.91 738.922,-382.905 730.05,-377.114 728.375,-383.91"/>
</g>
<!-- Node164 -->
<g id="node14" class="node"><title>Node164</title>
<g id="a_node14"><a xlink:href="proto_8h.html#a137ca78a0bd40fa7a75438e90e4f66a8" target="_top" xlink:title="density_update">
<polygon fill="white" stroke="black" points="182.014,-593.048 182.014,-612.048 265.014,-612.048 265.014,-593.048 182.014,-593.048"/>
<text text-anchor="middle" x="223.514" y="-600.048" font-family="Helvetica,sans-Serif" font-size="10.00">density_update</text>
</a>
</g>
</g>
<!-- Node154&#45;&gt;Node164 -->
<g id="edge15" class="edge"><title>Node154&#45;&gt;Node164</title>
<path fill="none" stroke="midnightblue" d="M742.685,-405.653C639.569,-444.759 337.748,-559.225 248.59,-593.038"/>
<polygon fill="midnightblue" stroke="midnightblue" points="744.201,-408.821 752.31,-402.002 741.719,-402.276 744.201,-408.821"/>
</g>
<!-- Node156 -->
<g id="node6" class="node"><title>Node156</title>
<g id="a_node6"><a xlink:href="run_8c.html#abb80d08f4d52f4a7bdf28d1cecfead5b" target="_top" xlink:title="compute_accelerations">
<polygon fill="white" stroke="black" points="531.195,-440.009 531.195,-459.009 648.195,-459.009 648.195,-440.009 531.195,-440.009"/>
<text text-anchor="middle" x="589.695" y="-447.009" font-family="Helvetica,sans-Serif" font-size="10.00">compute_accelerations</text>
</a>
</g>
</g>
<!-- Node155&#45;&gt;Node156 -->
<g id="edge5" class="edge"><title>Node155&#45;&gt;Node156</title>
<path fill="none" stroke="midnightblue" d="M683.548,-390.38C660.068,-405.173 625.078,-427.217 605.119,-439.791"/>
<polygon fill="midnightblue" stroke="midnightblue" points="685.633,-393.204 692.228,-384.912 681.901,-387.281 685.633,-393.204"/>
</g>
<!-- Node161 -->
<g id="node11" class="node"><title>Node161</title>
<g id="a_node11"><a xlink:href="init_8c.html#a643ef34b585446f8ccbbf3239df2db71" target="_top" xlink:title="setup_smoothinglengths">
<polygon fill="white" stroke="black" points="203.414,-533.794 203.414,-552.794 325.414,-552.794 325.414,-533.794 203.414,-533.794"/>
<text text-anchor="middle" x="264.414" y="-540.794" font-family="Helvetica,sans-Serif" font-size="10.00">setup_smoothinglengths</text>
</a>
</g>
</g>
<!-- Node155&#45;&gt;Node161 -->
<g id="edge11" class="edge"><title>Node155&#45;&gt;Node161</title>
<path fill="none" stroke="midnightblue" d="M674.035,-387.945C588.698,-420.309 365.1,-505.109 289.676,-533.713"/>
<polygon fill="midnightblue" stroke="midnightblue" points="675.394,-391.173 683.503,-384.354 672.912,-384.628 675.394,-391.173"/>
</g>
<!-- Node157 -->
<g id="node7" class="node"><title>Node157</title>
<g id="a_node7"><a xlink:href="run_8c.html#a05e0ffe612d44e6d7f3a9ae5b9df56a2" target="_top" xlink:title="run">
<polygon fill="white" stroke="black" points="494.818,-415.284 494.818,-434.284 524.818,-434.284 524.818,-415.284 494.818,-415.284"/>
<text text-anchor="middle" x="509.818" y="-422.284" font-family="Helvetica,sans-Serif" font-size="10.00">run</text>
</a>
</g>
</g>
<!-- Node156&#45;&gt;Node157 -->
<g id="edge6" class="edge"><title>Node156&#45;&gt;Node157</title>
<path fill="none" stroke="midnightblue" d="M548.949,-436.896C540.359,-434.237 531.819,-431.594 524.919,-429.458"/>
<polygon fill="midnightblue" stroke="midnightblue" points="547.996,-440.265 558.584,-439.879 550.066,-433.578 547.996,-440.265"/>
</g>
<!-- Node158 -->
<g id="node8" class="node"><title>Node158</title>
<g id="a_node8"><a xlink:href="main_8c.html#a3c04138a5bfe5d72780bb7e82a18e627" target="_top" xlink:title="main">
<polygon fill="white" stroke="black" points="368.116,-237.519 368.116,-256.519 406.116,-256.519 406.116,-237.519 368.116,-237.519"/>
<text text-anchor="middle" x="387.116" y="-244.519" font-family="Helvetica,sans-Serif" font-size="10.00">main</text>
</a>
</g>
</g>
<!-- Node157&#45;&gt;Node158 -->
<g id="edge7" class="edge"><title>Node157&#45;&gt;Node158</title>
<path fill="none" stroke="midnightblue" d="M497.438,-406.848C471.753,-369.637 413.429,-285.14 393.746,-256.624"/>
<polygon fill="midnightblue" stroke="midnightblue" points="494.66,-408.985 503.221,-415.226 500.421,-405.008 494.66,-408.985"/>
</g>
<!-- Node159 -->
<g id="node9" class="node"><title>Node159</title>
<g id="a_node9"><a xlink:href="walltime_8h.html#a76d2135b612766d4d665748454b879d6" target="_top" xlink:title="walltime_report">
<polygon fill="white" stroke="black" points="386.517,-296.774 386.517,-315.774 469.517,-315.774 469.517,-296.774 386.517,-296.774"/>
<text text-anchor="middle" x="428.017" y="-303.774" font-family="Helvetica,sans-Serif" font-size="10.00">walltime_report</text>
</a>
</g>
</g>
<!-- Node158&#45;&gt;Node159 -->
<g id="edge8" class="edge"><title>Node158&#45;&gt;Node159</title>
<path fill="none" stroke="midnightblue" d="M399.476,-264.926C406.655,-275.326 415.419,-288.023 421.326,-296.581"/>
<polygon fill="midnightblue" stroke="midnightblue" points="402.249,-262.781 393.688,-256.54 396.488,-266.758 402.249,-262.781"/>
</g>
<!-- Node160 -->
<g id="node10" class="node"><title>Node160</title>
<g id="a_node10"><a xlink:href="run_8c.html#adc59e9ee1517e4e690694a64ab6a59d2" target="_top" xlink:title="write_cpu_log">
<polygon fill="white" stroke="black" points="430.418,-356.029 430.418,-375.029 507.418,-375.029 507.418,-356.029 430.418,-356.029"/>
<text text-anchor="middle" x="468.918" y="-363.029" font-family="Helvetica,sans-Serif" font-size="10.00">write_cpu_log</text>
</a>
</g>
</g>
<!-- Node159&#45;&gt;Node160 -->
<g id="edge9" class="edge"><title>Node159&#45;&gt;Node160</title>
<path fill="none" stroke="midnightblue" d="M440.377,-324.181C447.555,-334.58 456.319,-347.277 462.227,-355.835"/>
<polygon fill="midnightblue" stroke="midnightblue" points="443.15,-322.036 434.588,-315.795 437.389,-326.013 443.15,-322.036"/>
</g>
<!-- Node160&#45;&gt;Node157 -->
<g id="edge10" class="edge"><title>Node160&#45;&gt;Node157</title>
<path fill="none" stroke="midnightblue" d="M481.278,-383.435C488.456,-393.835 497.22,-406.532 503.127,-415.09"/>
<polygon fill="midnightblue" stroke="midnightblue" points="484.05,-381.291 475.489,-375.049 478.289,-385.267 484.05,-381.291"/>
</g>
<!-- Node162 -->
<g id="node12" class="node"><title>Node162</title>
<g id="a_node12"><a xlink:href="proto_8h.html#ab080cb20bac2a1a6153a84e8cfd15374" target="_top" xlink:title="init">
<polygon fill="white" stroke="black" points="290.815,-474.539 290.815,-493.539 319.815,-493.539 319.815,-474.539 290.815,-474.539"/>
<text text-anchor="middle" x="305.315" y="-481.539" font-family="Helvetica,sans-Serif" font-size="10.00">init</text>
</a>
</g>
</g>
<!-- Node161&#45;&gt;Node162 -->
<g id="edge12" class="edge"><title>Node161&#45;&gt;Node162</title>
<path fill="none" stroke="midnightblue" d="M276.774,-525.387C283.953,-514.987 292.717,-502.29 298.624,-493.732"/>
<polygon fill="midnightblue" stroke="midnightblue" points="273.786,-523.555 270.986,-533.773 279.547,-527.532 273.786,-523.555"/>
</g>
<!-- Node163 -->
<g id="node13" class="node"><title>Node163</title>
<g id="a_node13"><a xlink:href="proto_8h.html#a74dc0e5e9eefe11fc8434b62de573146" target="_top" xlink:title="begrun">
<polygon fill="white" stroke="black" points="323.216,-415.284 323.216,-434.284 369.216,-434.284 369.216,-415.284 323.216,-415.284"/>
<text text-anchor="middle" x="346.216" y="-422.284" font-family="Helvetica,sans-Serif" font-size="10.00">begrun</text>
</a>
</g>
</g>
<!-- Node162&#45;&gt;Node163 -->
<g id="edge13" class="edge"><title>Node162&#45;&gt;Node163</title>
<path fill="none" stroke="midnightblue" d="M317.675,-466.132C324.853,-455.732 333.617,-443.035 339.525,-434.477"/>
<polygon fill="midnightblue" stroke="midnightblue" points="314.687,-464.3 311.886,-474.518 320.448,-468.277 314.687,-464.3"/>
</g>
<!-- Node163&#45;&gt;Node158 -->
<g id="edge14" class="edge"><title>Node163&#45;&gt;Node158</title>
<path fill="none" stroke="midnightblue" d="M350.674,-405.406C359.396,-367.498 378.429,-284.778 384.906,-256.624"/>
<polygon fill="midnightblue" stroke="midnightblue" points="347.246,-404.696 348.415,-415.226 354.068,-406.266 347.246,-404.696"/>
</g>
<!-- Node164&#45;&gt;Node161 -->
<g id="edge16" class="edge"><title>Node164&#45;&gt;Node161</title>
<path fill="none" stroke="midnightblue" d="M235.874,-584.642C243.052,-574.242 251.816,-561.545 257.723,-552.987"/>
<polygon fill="midnightblue" stroke="midnightblue" points="232.885,-582.81 230.085,-593.028 238.646,-586.786 232.885,-582.81"/>
</g>
<!-- Node166 -->
<g id="node16" class="node"><title>Node166</title>
<g id="a_node16"><a xlink:href="fof_8h.html#a7f10d50a8e07ce0bb67ffdfaf904d7c8" target="_top" xlink:title="fof_fof">
<polygon fill="white" stroke="black" points="298.231,-201.285 298.231,-220.285 342.231,-220.285 342.231,-201.285 298.231,-201.285"/>
<text text-anchor="middle" x="320.231" y="-208.285" font-family="Helvetica,sans-Serif" font-size="10.00">fof_fof</text>
</a>
</g>
</g>
<!-- Node165&#45;&gt;Node166 -->
<g id="edge18" class="edge"><title>Node165&#45;&gt;Node166</title>
<path fill="none" stroke="midnightblue" d="M249.736,-241.073C265.418,-234.335 284.005,-226.349 298.156,-220.269"/>
<polygon fill="midnightblue" stroke="midnightblue" points="248.219,-237.915 240.413,-245.079 250.982,-244.347 248.219,-237.915"/>
</g>
<!-- Node168 -->
<g id="node18" class="node"><title>Node168</title>
<g id="a_node18"><a xlink:href="fof_8c.html#aa0d13cc94e97083dfd468ed33331eed7" target="_top" xlink:title="fof_periodic_wrap">
<polygon fill="white" stroke="black" points="126.506,-430.614 126.506,-449.614 219.506,-449.614 219.506,-430.614 126.506,-430.614"/>
<text text-anchor="middle" x="173.006" y="-437.614" font-family="Helvetica,sans-Serif" font-size="10.00">fof_periodic_wrap</text>
</a>
</g>
</g>
<!-- Node165&#45;&gt;Node168 -->
<g id="edge22" class="edge"><title>Node165&#45;&gt;Node168</title>
<path fill="none" stroke="midnightblue" d="M213.547,-274.027C203.935,-313.407 182.475,-401.32 175.353,-430.497"/>
<polygon fill="midnightblue" stroke="midnightblue" points="216.951,-274.841 215.922,-264.296 210.151,-273.181 216.951,-274.841"/>
</g>
<!-- Node166&#45;&gt;Node158 -->
<g id="edge19" class="edge"><title>Node166&#45;&gt;Node158</title>
<path fill="none" stroke="midnightblue" d="M346.738,-225.144C354.358,-229.273 362.481,-233.673 369.428,-237.437"/>
<polygon fill="midnightblue" stroke="midnightblue" points="348.265,-221.991 337.805,-220.305 344.93,-228.146 348.265,-221.991"/>
</g>
<!-- Node167 -->
<g id="node17" class="node"><title>Node167</title>
<g id="a_node17"><a xlink:href="proto_8h.html#a312b6a02f7cde171412989ea5f9be48f" target="_top" xlink:title="write_checkpoint">
<polygon fill="white" stroke="black" points="356.981,-511.199 356.981,-530.199 446.981,-530.199 446.981,-511.199 356.981,-511.199"/>
<text text-anchor="middle" x="401.981" y="-518.199" font-family="Helvetica,sans-Serif" font-size="10.00">write_checkpoint</text>
</a>
</g>
</g>
<!-- Node166&#45;&gt;Node167 -->
<g id="edge20" class="edge"><title>Node166&#45;&gt;Node167</title>
<path fill="none" stroke="midnightblue" d="M325.405,-230.397C341.148,-290.079 388.092,-468.045 399.474,-511.196"/>
<polygon fill="midnightblue" stroke="midnightblue" points="328.703,-229.176 322.768,-220.4 321.934,-230.961 328.703,-229.176"/>
</g>
<!-- Node167&#45;&gt;Node157 -->
<g id="edge21" class="edge"><title>Node167&#45;&gt;Node157</title>
<path fill="none" stroke="midnightblue" d="M420.311,-504.396C442.96,-484.251 480.749,-450.64 499.128,-434.293"/>
<polygon fill="midnightblue" stroke="midnightblue" points="417.861,-501.891 412.715,-511.152 422.513,-507.121 417.861,-501.891"/>
</g>
<!-- Node169 -->
<g id="node19" class="node"><title>Node169</title>
<g id="a_node19"><a xlink:href="fof_8c.html#a36336d505e8a4fb8e8fdaf9a796e40d4" target="_top" xlink:title="fof_finish_group_properties">
<polygon fill="white" stroke="black" points="326.302,-10.874 326.302,-29.874 460.302,-29.874 460.302,-10.874 326.302,-10.874"/>
<text text-anchor="middle" x="393.302" y="-17.874" font-family="Helvetica,sans-Serif" font-size="10.00">fof_finish_group_properties</text>
</a>
</g>
</g>
<!-- Node168&#45;&gt;Node169 -->
<g id="edge23" class="edge"><title>Node168&#45;&gt;Node169</title>
<path fill="none" stroke="midnightblue" d="M186.064,-421.844C229.995,-349.353 369.054,-83.697 390.676,-29.8865"/>
<polygon fill="midnightblue" stroke="midnightblue" points="183.05,-420.063 180.742,-430.403 188.995,-423.759 183.05,-420.063"/>
</g>
<!-- Node169&#45;&gt;Node168 -->
<g id="edge27" class="edge"><title>Node169&#45;&gt;Node168</title>
<path fill="none" stroke="midnightblue" d="M380.244,-38.6448C336.313,-111.136 197.254,-376.792 175.632,-430.602"/>
<polygon fill="midnightblue" stroke="midnightblue" points="383.258,-40.4258 385.566,-30.0856 377.313,-36.7292 383.258,-40.4258"/>
</g>
<!-- Node170 -->
<g id="node20" class="node"><title>Node170</title>
<g id="a_node20"><a xlink:href="fof_8c.html#ae4b5e05b1f0225637629759a9e2ba72e" target="_top" xlink:title="fof_compile_catalogue">
<polygon fill="white" stroke="black" points="344.981,-82.3491 344.981,-101.349 458.981,-101.349 458.981,-82.3491 344.981,-82.3491"/>
<text text-anchor="middle" x="401.981" y="-89.3491" font-family="Helvetica,sans-Serif" font-size="10.00">fof_compile_catalogue</text>
</a>
</g>
</g>
<!-- Node169&#45;&gt;Node170 -->
<g id="edge24" class="edge"><title>Node169&#45;&gt;Node170</title>
<path fill="none" stroke="midnightblue" d="M395.718,-40.27C397.363,-53.8195 399.471,-71.178 400.773,-81.9037"/>
<polygon fill="midnightblue" stroke="midnightblue" points="399.153,-39.5187 394.473,-30.0135 392.204,-40.3625 399.153,-39.5187"/>
</g>
<!-- Node170&#45;&gt;Node166 -->
<g id="edge25" class="edge"><title>Node170&#45;&gt;Node166</title>
<path fill="none" stroke="midnightblue" d="M389.49,-110.022C371.88,-135.642 340.388,-181.46 326.785,-201.249"/>
<polygon fill="midnightblue" stroke="midnightblue" points="392.511,-111.806 395.291,-101.582 386.742,-107.841 392.511,-111.806"/>
</g>
<!-- Node170&#45;&gt;Node168 -->
<g id="edge26" class="edge"><title>Node170&#45;&gt;Node168</title>
<path fill="none" stroke="midnightblue" d="M389.992,-110.085C348.36,-173.406 210.882,-382.506 179.447,-430.318"/>
<polygon fill="midnightblue" stroke="midnightblue" points="393.049,-111.806 395.618,-101.527 387.2,-107.96 393.049,-111.806"/>
</g>
<!-- Node171&#45;&gt;Node166 -->
<g id="edge29" class="edge"><title>Node171&#45;&gt;Node166</title>
<path fill="none" stroke="midnightblue" d="M478.898,-119.16C440.427,-141.375 368.972,-182.638 336.749,-201.246"/>
<polygon fill="midnightblue" stroke="midnightblue" points="481.014,-121.979 487.924,-113.947 477.514,-115.917 481.014,-121.979"/>
</g>
<!-- Node171&#45;&gt;Node168 -->
<g id="edge30" class="edge"><title>Node171&#45;&gt;Node168</title>
<path fill="none" stroke="midnightblue" d="M487.928,-121.206C428.588,-181.297 228.837,-383.577 182.611,-430.387"/>
<polygon fill="midnightblue" stroke="midnightblue" points="490.509,-123.573 495.045,-113.998 485.528,-118.655 490.509,-123.573"/>
</g>
<!-- Node173 -->
<g id="node23" class="node"><title>Node173</title>
<g id="a_node23"><a xlink:href="runtests_8c.html#a549024555ca61e3f05a7100307e44f69" target="_top" xlink:title="runtests">
<polygon fill="white" stroke="black" points="529.523,-229.854 529.523,-248.854 581.523,-248.854 581.523,-229.854 529.523,-229.854"/>
<text text-anchor="middle" x="555.523" y="-236.854" font-family="Helvetica,sans-Serif" font-size="10.00">runtests</text>
</a>
</g>
</g>
<!-- Node172&#45;&gt;Node173 -->
<g id="edge32" class="edge"><title>Node172&#45;&gt;Node173</title>
<path fill="none" stroke="midnightblue" d="M581.156,-182.111C574.41,-197.176 565.27,-217.587 559.923,-229.526"/>
<polygon fill="midnightblue" stroke="midnightblue" points="584.475,-183.262 585.367,-172.705 578.086,-180.401 584.475,-183.262"/>
</g>
<!-- Node173&#45;&gt;Node158 -->
<g id="edge33" class="edge"><title>Node173&#45;&gt;Node158</title>
<path fill="none" stroke="midnightblue" d="M519.033,-241.015C484.444,-242.589 433.821,-244.893 406.435,-246.14"/>
<polygon fill="midnightblue" stroke="midnightblue" points="519.379,-244.503 529.209,-240.552 519.06,-237.51 519.379,-244.503"/>
</g>
<!-- Node175&#45;&gt;Node156 -->
<g id="edge36" class="edge"><title>Node175&#45;&gt;Node156</title>
<path fill="none" stroke="midnightblue" d="M632.923,-274.126C622.794,-315.221 599.605,-409.303 592.092,-439.784"/>
<polygon fill="midnightblue" stroke="midnightblue" points="636.363,-274.796 635.358,-264.248 629.566,-273.12 636.363,-274.796"/>
</g>
<!-- Node175&#45;&gt;Node173 -->
<g id="edge37" class="edge"><title>Node175&#45;&gt;Node173</title>
<path fill="none" stroke="midnightblue" d="M585.566,-244.918C584.276,-244.68 583.002,-244.444 581.749,-244.212"/>
<polygon fill="midnightblue" stroke="midnightblue" points="585.198,-248.41 595.668,-246.79 586.473,-241.527 585.198,-248.41"/>
</g>
<!-- Node176&#45;&gt;Node156 -->
<g id="edge39" class="edge"><title>Node176&#45;&gt;Node156</title>
<path fill="none" stroke="midnightblue" d="M625.037,-480.818C616.885,-473.596 607.594,-465.366 600.585,-459.156"/>
<polygon fill="midnightblue" stroke="midnightblue" points="622.876,-483.58 632.682,-487.592 627.518,-478.341 622.876,-483.58"/>
</g>
<!-- Node177&#45;&gt;Node156 -->
<g id="edge41" class="edge"><title>Node177&#45;&gt;Node156</title>
<path fill="none" stroke="midnightblue" d="M539.224,-556.339C552.173,-528.93 575.456,-479.649 585.207,-459.009"/>
<polygon fill="midnightblue" stroke="midnightblue" points="535.923,-555.131 534.816,-565.668 542.253,-558.121 535.923,-555.131"/>
</g>
<!-- Node178&#45;&gt;Node153 -->
<g id="edge43" class="edge"><title>Node178&#45;&gt;Node153</title>
<path fill="none" stroke="midnightblue" d="M217.412,-29.6236C206.542,-64.5803 184.205,-136.417 176.062,-162.605"/>
<polygon fill="midnightblue" stroke="midnightblue" points="220.878,-30.2628 220.505,-19.6745 214.194,-28.1843 220.878,-30.2628"/>
</g>
</g>
</svg>
