<?xml version="1.0" encoding="UTF-8" standalone="no"?>
<!DOCTYPE svg PUBLIC "-//W3C//DTD SVG 1.1//EN"
 "http://www.w3.org/Graphics/SVG/1.1/DTD/svg11.dtd">
<!-- Generated by graphviz version 2.50.0 (0)
 -->
<!-- Title: libgadget/treewalk.h Pages: 1 -->
<svg width="1461pt" height="476pt"
 viewBox="0.00 0.00 1461.40 476.00" xmlns="http://www.w3.org/2000/svg" xmlns:xlink="http://www.w3.org/1999/xlink">
<g id="graph0" class="graph" transform="scale(1 1) rotate(0) translate(4 472)">
<title>libgadget/treewalk.h</title>
<polygon fill="white" stroke="transparent" points="-4,4 -4,-472 1457.4,-472 1457.4,4 -4,4"/>
<!-- Node1 -->
<g id="node1" class="node">
<title>Node1</title>
<g id="a_node1"><a xlink:title=" ">
<polygon fill="#bfbfbf" stroke="black" points="1206.26,-448.5 1206.26,-467.5 1323.26,-467.5 1323.26,-448.5 1206.26,-448.5"/>
<text text-anchor="middle" x="1264.76" y="-455.5" font-family="Helvetica,sans-Serif" font-size="10.00">libgadget/treewalk.h</text>
</a>
</g>
</g>
<!-- Node2 -->
<g id="node2" class="node">
<title>Node2</title>
<g id="a_node2"><a xlink:title=" ">
<polygon fill="white" stroke="#bfbfbf" points="1235.26,-56.5 1235.26,-75.5 1288.26,-75.5 1288.26,-56.5 1235.26,-56.5"/>
<text text-anchor="middle" x="1261.76" y="-63.5" font-family="Helvetica,sans-Serif" font-size="10.00">stdint.h</text>
</a>
</g>
</g>
<!-- Node1&#45;&gt;Node2 -->
<g id="edge1" class="edge">
<title>Node1&#45;&gt;Node2</title>
<path fill="none" stroke="midnightblue" d="M1320.91,-448.46C1376.31,-436.46 1452.76,-408.73 1452.76,-347 1452.76,-347 1452.76,-347 1452.76,-177 1452.76,-146.9 1455.34,-132.98 1433.76,-112 1397.54,-76.8 1337.36,-68.21 1298.64,-66.6"/>
<polygon fill="midnightblue" stroke="midnightblue" points="1298.42,-63.09 1288.33,-66.31 1298.23,-70.09 1298.42,-63.09"/>
</g>
<!-- Node3 -->
<g id="node3" class="node">
<title>Node3</title>
<g id="a_node3"><a xlink:href="paramset_8h.html" target="_top" xlink:title=" ">
<polygon fill="white" stroke="black" points="191.76,-112.5 191.76,-131.5 287.76,-131.5 287.76,-112.5 191.76,-112.5"/>
<text text-anchor="middle" x="239.76" y="-119.5" font-family="Helvetica,sans-Serif" font-size="10.00">utils/paramset.h</text>
</a>
</g>
</g>
<!-- Node1&#45;&gt;Node3 -->
<g id="edge2" class="edge">
<title>Node1&#45;&gt;Node3</title>
<path fill="none" stroke="midnightblue" d="M1205.97,-456.66C993.49,-454.66 277.76,-440.97 277.76,-347 277.76,-347 277.76,-347 277.76,-233 277.76,-198.81 261.16,-161.76 249.9,-140.57"/>
<polygon fill="midnightblue" stroke="midnightblue" points="252.94,-138.83 245.04,-131.77 246.81,-142.22 252.94,-138.83"/>
</g>
<!-- Node5 -->
<g id="node5" class="node">
<title>Node5</title>
<g id="a_node5"><a xlink:href="forcetree_8h.html" target="_top" xlink:title=" ">
<polygon fill="white" stroke="black" points="1229.76,-392.5 1229.76,-411.5 1299.76,-411.5 1299.76,-392.5 1229.76,-392.5"/>
<text text-anchor="middle" x="1264.76" y="-399.5" font-family="Helvetica,sans-Serif" font-size="10.00">forcetree.h</text>
</a>
</g>
</g>
<!-- Node1&#45;&gt;Node5 -->
<g id="edge4" class="edge">
<title>Node1&#45;&gt;Node5</title>
<path fill="none" stroke="midnightblue" d="M1264.76,-448.08C1264.76,-441.01 1264.76,-430.86 1264.76,-421.99"/>
<polygon fill="midnightblue" stroke="midnightblue" points="1268.26,-421.75 1264.76,-411.75 1261.26,-421.75 1268.26,-421.75"/>
</g>
<!-- Node4 -->
<g id="node4" class="node">
<title>Node4</title>
<g id="a_node4"><a xlink:title=" ">
<polygon fill="white" stroke="#bfbfbf" points="273.76,-56.5 273.76,-75.5 323.76,-75.5 323.76,-56.5 273.76,-56.5"/>
<text text-anchor="middle" x="298.76" y="-63.5" font-family="Helvetica,sans-Serif" font-size="10.00">stdio.h</text>
</a>
</g>
</g>
<!-- Node3&#45;&gt;Node4 -->
<g id="edge3" class="edge">
<title>Node3&#45;&gt;Node4</title>
<path fill="none" stroke="midnightblue" d="M249.24,-112.32C257.96,-104.34 271.1,-92.31 281.66,-82.65"/>
<polygon fill="midnightblue" stroke="midnightblue" points="284.09,-85.17 289.11,-75.83 279.37,-80 284.09,-85.17"/>
</g>
<!-- Node6 -->
<g id="node6" class="node">
<title>Node6</title>
<g id="a_node6"><a xlink:href="types_8h.html" target="_top" xlink:title=" ">
<polygon fill="white" stroke="black" points="1371.26,-112.5 1371.26,-131.5 1424.26,-131.5 1424.26,-112.5 1371.26,-112.5"/>
<text text-anchor="middle" x="1397.76" y="-119.5" font-family="Helvetica,sans-Serif" font-size="10.00">types.h</text>
</a>
</g>
</g>
<!-- Node5&#45;&gt;Node6 -->
<g id="edge5" class="edge">
<title>Node5&#45;&gt;Node6</title>
<path fill="none" stroke="midnightblue" d="M1291.67,-392.41C1330.54,-378.13 1397.76,-345.54 1397.76,-291 1397.76,-291 1397.76,-291 1397.76,-233 1397.76,-200.95 1397.76,-163.64 1397.76,-141.75"/>
<polygon fill="midnightblue" stroke="midnightblue" points="1401.26,-141.56 1397.76,-131.56 1394.26,-141.56 1401.26,-141.56"/>
</g>
<!-- Node7 -->
<g id="node7" class="node">
<title>Node7</title>
<g id="a_node7"><a xlink:href="domain_8h.html" target="_top" xlink:title=" ">
<polygon fill="white" stroke="black" points="1108.76,-336.5 1108.76,-355.5 1170.76,-355.5 1170.76,-336.5 1108.76,-336.5"/>
<text text-anchor="middle" x="1139.76" y="-343.5" font-family="Helvetica,sans-Serif" font-size="10.00">domain.h</text>
</a>
</g>
</g>
<!-- Node5&#45;&gt;Node7 -->
<g id="edge7" class="edge">
<title>Node5&#45;&gt;Node7</title>
<path fill="none" stroke="midnightblue" d="M1244.95,-392.44C1224.47,-383.6 1192.28,-369.69 1168.89,-359.59"/>
<polygon fill="midnightblue" stroke="midnightblue" points="1170.04,-356.27 1159.47,-355.52 1167.26,-362.7 1170.04,-356.27"/>
</g>
<!-- Node6&#45;&gt;Node2 -->
<g id="edge6" class="edge">
<title>Node6&#45;&gt;Node2</title>
<path fill="none" stroke="midnightblue" d="M1376.21,-112.44C1353.73,-103.52 1318.27,-89.44 1292.78,-79.32"/>
<polygon fill="midnightblue" stroke="midnightblue" points="1293.79,-75.95 1283.21,-75.52 1291.21,-82.46 1293.79,-75.95"/>
</g>
<!-- Node7&#45;&gt;Node3 -->
<g id="edge12" class="edge">
<title>Node7&#45;&gt;Node3</title>
<path fill="none" stroke="midnightblue" d="M1108.62,-337.49C1015.62,-315.05 731.78,-246.41 496.76,-188 421.39,-169.27 333.71,-146.99 282.7,-133.98"/>
<polygon fill="midnightblue" stroke="midnightblue" points="283.56,-130.58 273,-131.5 281.83,-137.37 283.56,-130.58"/>
</g>
<!-- Node8 -->
<g id="node8" class="node">
<title>Node8</title>
<g id="a_node8"><a xlink:title=" ">
<polygon fill="white" stroke="#bfbfbf" points="384.76,-56.5 384.76,-75.5 428.76,-75.5 428.76,-56.5 384.76,-56.5"/>
<text text-anchor="middle" x="406.76" y="-63.5" font-family="Helvetica,sans-Serif" font-size="10.00">mpi.h</text>
</a>
</g>
</g>
<!-- Node7&#45;&gt;Node8 -->
<g id="edge8" class="edge">
<title>Node7&#45;&gt;Node8</title>
<path fill="none" stroke="midnightblue" d="M1108.46,-344.18C957.95,-339.84 315.76,-316.54 315.76,-235 315.76,-235 315.76,-235 315.76,-177 315.76,-134.47 356.65,-99.53 383.61,-81.12"/>
<polygon fill="midnightblue" stroke="midnightblue" points="385.7,-83.93 392.14,-75.52 381.86,-78.08 385.7,-83.93"/>
</g>
<!-- Node9 -->
<g id="node9" class="node">
<title>Node9</title>
<g id="a_node9"><a xlink:href="peano_8h.html" target="_top" xlink:title=" ">
<polygon fill="white" stroke="black" points="1272.76,-112.5 1272.76,-131.5 1352.76,-131.5 1352.76,-112.5 1272.76,-112.5"/>
<text text-anchor="middle" x="1312.76" y="-119.5" font-family="Helvetica,sans-Serif" font-size="10.00">utils/peano.h</text>
</a>
</g>
</g>
<!-- Node7&#45;&gt;Node9 -->
<g id="edge9" class="edge">
<title>Node7&#45;&gt;Node9</title>
<path fill="none" stroke="midnightblue" d="M1139.27,-336.2C1138.5,-315.38 1138.79,-262.03 1158.76,-224 1182.91,-178.01 1238.44,-149.71 1275.79,-135.17"/>
<polygon fill="midnightblue" stroke="midnightblue" points="1277.19,-138.39 1285.33,-131.6 1274.74,-131.83 1277.19,-138.39"/>
</g>
<!-- Node11 -->
<g id="node11" class="node">
<title>Node11</title>
<g id="a_node11"><a xlink:href="drift_8h.html" target="_top" xlink:title=" ">
<polygon fill="white" stroke="black" points="1191.26,-280.5 1191.26,-299.5 1236.26,-299.5 1236.26,-280.5 1191.26,-280.5"/>
<text text-anchor="middle" x="1213.76" y="-287.5" font-family="Helvetica,sans-Serif" font-size="10.00">drift.h</text>
</a>
</g>
</g>
<!-- Node7&#45;&gt;Node11 -->
<g id="edge13" class="edge">
<title>Node7&#45;&gt;Node11</title>
<path fill="none" stroke="midnightblue" d="M1151.65,-336.32C1162.91,-328.11 1180.05,-315.6 1193.47,-305.81"/>
<polygon fill="midnightblue" stroke="midnightblue" points="1195.64,-308.56 1201.65,-299.83 1191.51,-302.9 1195.64,-308.56"/>
</g>
<!-- Node9&#45;&gt;Node2 -->
<g id="edge11" class="edge">
<title>Node9&#45;&gt;Node2</title>
<path fill="none" stroke="midnightblue" d="M1304.34,-112.08C1296.91,-104.22 1285.91,-92.57 1276.95,-83.08"/>
<polygon fill="midnightblue" stroke="midnightblue" points="1279.43,-80.62 1270.02,-75.75 1274.35,-85.42 1279.43,-80.62"/>
</g>
<!-- Node10 -->
<g id="node10" class="node">
<title>Node10</title>
<g id="a_node10"><a xlink:title=" ">
<polygon fill="white" stroke="#bfbfbf" points="650.76,-0.5 650.76,-19.5 706.76,-19.5 706.76,-0.5 650.76,-0.5"/>
<text text-anchor="middle" x="678.76" y="-7.5" font-family="Helvetica,sans-Serif" font-size="10.00">stddef.h</text>
</a>
</g>
</g>
<!-- Node9&#45;&gt;Node10 -->
<g id="edge10" class="edge">
<title>Node9&#45;&gt;Node10</title>
<path fill="none" stroke="midnightblue" d="M1313.68,-112.22C1314.62,-97.98 1314.12,-70.01 1297.76,-56 1253.68,-18.25 845.39,-12.17 717.13,-11.19"/>
<polygon fill="midnightblue" stroke="midnightblue" points="717.01,-7.69 706.99,-11.12 716.96,-14.69 717.01,-7.69"/>
</g>
<!-- Node11&#45;&gt;Node6 -->
<g id="edge19" class="edge">
<title>Node11&#45;&gt;Node6</title>
<path fill="none" stroke="midnightblue" d="M1230.19,-280.43C1245.52,-272.09 1268.67,-258.57 1286.76,-244 1326.9,-211.67 1365.71,-164.66 1385.04,-139.82"/>
<polygon fill="midnightblue" stroke="midnightblue" points="1387.93,-141.81 1391.25,-131.74 1382.38,-137.54 1387.93,-141.81"/>
</g>
<!-- Node12 -->
<g id="node12" class="node">
<title>Node12</title>
<g id="a_node12"><a xlink:href="cosmology_8h.html" target="_top" xlink:title=" ">
<polygon fill="white" stroke="black" points="96.26,-224.5 96.26,-243.5 173.26,-243.5 173.26,-224.5 96.26,-224.5"/>
<text text-anchor="middle" x="134.76" y="-231.5" font-family="Helvetica,sans-Serif" font-size="10.00">cosmology.h</text>
</a>
</g>
</g>
<!-- Node11&#45;&gt;Node12 -->
<g id="edge14" class="edge">
<title>Node11&#45;&gt;Node12</title>
<path fill="none" stroke="midnightblue" d="M1191.22,-287.87C1058.08,-281.21 373.76,-246.96 183.75,-237.45"/>
<polygon fill="midnightblue" stroke="midnightblue" points="183.67,-233.94 173.51,-236.94 183.32,-240.93 183.67,-233.94"/>
</g>
<!-- Node16 -->
<g id="node16" class="node">
<title>Node16</title>
<g id="a_node16"><a xlink:href="partmanager_8h.html" target="_top" xlink:title=" ">
<polygon fill="white" stroke="black" points="1243.76,-168.5 1243.76,-187.5 1331.76,-187.5 1331.76,-168.5 1243.76,-168.5"/>
<text text-anchor="middle" x="1287.76" y="-175.5" font-family="Helvetica,sans-Serif" font-size="10.00">partmanager.h</text>
</a>
</g>
</g>
<!-- Node11&#45;&gt;Node16 -->
<g id="edge20" class="edge">
<title>Node11&#45;&gt;Node16</title>
<path fill="none" stroke="midnightblue" d="M1228.49,-280.5C1240.96,-272.57 1258.41,-259.64 1268.76,-244 1277.99,-230.06 1282.82,-211.55 1285.3,-197.85"/>
<polygon fill="midnightblue" stroke="midnightblue" points="1288.81,-198.1 1286.87,-187.68 1281.89,-197.03 1288.81,-198.1"/>
</g>
<!-- Node17 -->
<g id="node17" class="node">
<title>Node17</title>
<g id="a_node17"><a xlink:href="slotsmanager_8h.html" target="_top" xlink:title=" ">
<polygon fill="white" stroke="black" points="1167.76,-224.5 1167.76,-243.5 1259.76,-243.5 1259.76,-224.5 1167.76,-224.5"/>
<text text-anchor="middle" x="1213.76" y="-231.5" font-family="Helvetica,sans-Serif" font-size="10.00">slotsmanager.h</text>
</a>
</g>
</g>
<!-- Node11&#45;&gt;Node17 -->
<g id="edge23" class="edge">
<title>Node11&#45;&gt;Node17</title>
<path fill="none" stroke="midnightblue" d="M1213.76,-280.08C1213.76,-273.01 1213.76,-262.86 1213.76,-253.99"/>
<polygon fill="midnightblue" stroke="midnightblue" points="1217.26,-253.75 1213.76,-243.75 1210.26,-253.75 1217.26,-253.75"/>
</g>
<!-- Node12&#45;&gt;Node10 -->
<g id="edge15" class="edge">
<title>Node12&#45;&gt;Node10</title>
<path fill="none" stroke="midnightblue" d="M96.09,-230.88C66.28,-226.97 26.84,-216.35 6.76,-188 -4.67,-171.86 -0.86,-130.44 16.76,-112 103.19,-21.56 512.11,-11.8 640.26,-10.99"/>
<polygon fill="midnightblue" stroke="midnightblue" points="640.41,-14.49 650.39,-10.94 640.37,-7.49 640.41,-14.49"/>
</g>
<!-- Node13 -->
<g id="node13" class="node">
<title>Node13</title>
<g id="a_node13"><a xlink:href="omega__nu__single_8h.html" target="_top" xlink:title=" ">
<polygon fill="white" stroke="black" points="16.26,-168.5 16.26,-187.5 127.26,-187.5 127.26,-168.5 16.26,-168.5"/>
<text text-anchor="middle" x="71.76" y="-175.5" font-family="Helvetica,sans-Serif" font-size="10.00">omega_nu_single.h</text>
</a>
</g>
</g>
<!-- Node12&#45;&gt;Node13 -->
<g id="edge16" class="edge">
<title>Node12&#45;&gt;Node13</title>
<path fill="none" stroke="midnightblue" d="M124.64,-224.32C115.23,-216.26 101.01,-204.08 89.69,-194.37"/>
<polygon fill="midnightblue" stroke="midnightblue" points="91.94,-191.68 82.06,-187.83 87.38,-197 91.94,-191.68"/>
</g>
<!-- Node15 -->
<g id="node15" class="node">
<title>Node15</title>
<g id="a_node15"><a xlink:href="unitsystem_8h.html" target="_top" xlink:title=" ">
<polygon fill="white" stroke="black" points="145.76,-168.5 145.76,-187.5 249.76,-187.5 249.76,-168.5 145.76,-168.5"/>
<text text-anchor="middle" x="197.76" y="-175.5" font-family="Helvetica,sans-Serif" font-size="10.00">utils/unitsystem.h</text>
</a>
</g>
</g>
<!-- Node12&#45;&gt;Node15 -->
<g id="edge18" class="edge">
<title>Node12&#45;&gt;Node15</title>
<path fill="none" stroke="midnightblue" d="M144.88,-224.32C154.29,-216.26 168.5,-204.08 179.83,-194.37"/>
<polygon fill="midnightblue" stroke="midnightblue" points="182.14,-197 187.45,-187.83 177.58,-191.68 182.14,-197"/>
</g>
<!-- Node14 -->
<g id="node14" class="node">
<title>Node14</title>
<g id="a_node14"><a xlink:title=" ">
<polygon fill="white" stroke="#bfbfbf" points="26.26,-112.5 26.26,-131.5 117.26,-131.5 117.26,-112.5 26.26,-112.5"/>
<text text-anchor="middle" x="71.76" y="-119.5" font-family="Helvetica,sans-Serif" font-size="10.00">gsl/gsl_interp.h</text>
</a>
</g>
</g>
<!-- Node13&#45;&gt;Node14 -->
<g id="edge17" class="edge">
<title>Node13&#45;&gt;Node14</title>
<path fill="none" stroke="midnightblue" d="M71.76,-168.08C71.76,-161.01 71.76,-150.86 71.76,-141.99"/>
<polygon fill="midnightblue" stroke="midnightblue" points="75.26,-141.75 71.76,-131.75 68.26,-141.75 75.26,-141.75"/>
</g>
<!-- Node16&#45;&gt;Node6 -->
<g id="edge21" class="edge">
<title>Node16&#45;&gt;Node6</title>
<path fill="none" stroke="midnightblue" d="M1305.43,-168.32C1323.15,-159.62 1350.66,-146.12 1371.05,-136.11"/>
<polygon fill="midnightblue" stroke="midnightblue" points="1372.69,-139.2 1380.13,-131.65 1369.61,-132.92 1372.69,-139.2"/>
</g>
<!-- Node16&#45;&gt;Node9 -->
<g id="edge22" class="edge">
<title>Node16&#45;&gt;Node9</title>
<path fill="none" stroke="midnightblue" d="M1291.89,-168.08C1295.27,-160.77 1300.17,-150.18 1304.38,-141.1"/>
<polygon fill="midnightblue" stroke="midnightblue" points="1307.68,-142.3 1308.71,-131.75 1301.33,-139.36 1307.68,-142.3"/>
</g>
<!-- Node17&#45;&gt;Node6 -->
<g id="edge49" class="edge">
<title>Node17&#45;&gt;Node6</title>
<path fill="none" stroke="midnightblue" d="M1214.07,-224.05C1215.05,-210.07 1219,-183.09 1234.76,-168 1239.43,-163.53 1314.79,-143.92 1361.38,-132.11"/>
<polygon fill="midnightblue" stroke="midnightblue" points="1362.3,-135.49 1371.14,-129.65 1360.58,-128.7 1362.3,-135.49"/>
</g>
<!-- Node17&#45;&gt;Node8 -->
<g id="edge24" class="edge">
<title>Node17&#45;&gt;Node8</title>
<path fill="none" stroke="midnightblue" d="M1167.56,-233.68C1015.81,-234.93 536.03,-230.86 425.76,-132 412.78,-120.37 408.46,-100.42 407.13,-85.68"/>
<polygon fill="midnightblue" stroke="midnightblue" points="410.62,-85.45 406.59,-75.65 403.63,-85.82 410.62,-85.45"/>
</g>
<!-- Node17&#45;&gt;Node16 -->
<g id="edge50" class="edge">
<title>Node17&#45;&gt;Node16</title>
<path fill="none" stroke="midnightblue" d="M1225.65,-224.32C1236.91,-216.11 1254.05,-203.6 1267.47,-193.81"/>
<polygon fill="midnightblue" stroke="midnightblue" points="1269.64,-196.56 1275.65,-187.83 1265.51,-190.9 1269.64,-196.56"/>
</g>
<!-- Node18 -->
<g id="node18" class="node">
<title>Node18</title>
<g id="a_node18"><a xlink:href="utils_8h.html" target="_top" xlink:title=" ">
<polygon fill="white" stroke="black" points="750.26,-168.5 750.26,-187.5 797.26,-187.5 797.26,-168.5 750.26,-168.5"/>
<text text-anchor="middle" x="773.76" y="-175.5" font-family="Helvetica,sans-Serif" font-size="10.00">utils.h</text>
</a>
</g>
</g>
<!-- Node17&#45;&gt;Node18 -->
<g id="edge25" class="edge">
<title>Node17&#45;&gt;Node18</title>
<path fill="none" stroke="midnightblue" d="M1167.5,-227.32C1078.57,-216.41 885.66,-192.73 807.58,-183.15"/>
<polygon fill="midnightblue" stroke="midnightblue" points="807.7,-179.64 797.35,-181.9 806.85,-186.59 807.7,-179.64"/>
</g>
<!-- Node18&#45;&gt;Node2 -->
<g id="edge27" class="edge">
<title>Node18&#45;&gt;Node2</title>
<path fill="none" stroke="midnightblue" d="M797.27,-177.29C878.9,-177.9 1148.96,-176.43 1220.76,-132 1238.09,-121.27 1249.33,-100.21 1255.59,-84.96"/>
<polygon fill="midnightblue" stroke="midnightblue" points="1258.89,-86.12 1259.13,-75.53 1252.34,-83.66 1258.89,-86.12"/>
</g>
<!-- Node18&#45;&gt;Node3 -->
<g id="edge35" class="edge">
<title>Node18&#45;&gt;Node3</title>
<path fill="none" stroke="midnightblue" d="M750.12,-174.61C671.07,-166.62 414.29,-140.65 297.97,-128.89"/>
<polygon fill="midnightblue" stroke="midnightblue" points="298.13,-125.39 287.83,-127.86 297.43,-132.35 298.13,-125.39"/>
</g>
<!-- Node18&#45;&gt;Node4 -->
<g id="edge26" class="edge">
<title>Node18&#45;&gt;Node4</title>
<path fill="none" stroke="midnightblue" d="M749.95,-176.71C692.75,-175.43 543.58,-168.55 425.76,-132 386.53,-119.83 344.84,-96.16 320.33,-80.99"/>
<polygon fill="midnightblue" stroke="midnightblue" points="322.15,-77.99 311.82,-75.63 318.42,-83.92 322.15,-77.99"/>
</g>
<!-- Node18&#45;&gt;Node8 -->
<g id="edge29" class="edge">
<title>Node18&#45;&gt;Node8</title>
<path fill="none" stroke="midnightblue" d="M749.99,-176.24C683.81,-173.74 498.96,-163.99 448.76,-132 431.64,-121.09 420.09,-100.41 413.51,-85.29"/>
<polygon fill="midnightblue" stroke="midnightblue" points="416.71,-83.88 409.74,-75.91 410.22,-86.49 416.71,-83.88"/>
</g>
<!-- Node18&#45;&gt;Node9 -->
<g id="edge30" class="edge">
<title>Node18&#45;&gt;Node9</title>
<path fill="none" stroke="midnightblue" d="M797.3,-175.43C867.58,-170.59 1082.02,-154.9 1258.76,-132 1260.03,-131.84 1261.32,-131.66 1262.62,-131.48"/>
<polygon fill="midnightblue" stroke="midnightblue" points="1263.31,-134.92 1272.7,-130.01 1262.3,-127.99 1263.31,-134.92"/>
</g>
<!-- Node18&#45;&gt;Node10 -->
<g id="edge28" class="edge">
<title>Node18&#45;&gt;Node10</title>
<path fill="none" stroke="midnightblue" d="M797.51,-177.33C892.15,-178.22 1235.05,-177.01 1187.76,-112 1132.18,-35.59 825.94,-16.59 717.13,-12.22"/>
<polygon fill="midnightblue" stroke="midnightblue" points="717.06,-8.71 706.93,-11.83 716.79,-15.71 717.06,-8.71"/>
</g>
<!-- Node19 -->
<g id="node19" class="node">
<title>Node19</title>
<g id="a_node19"><a xlink:href="memory_8h.html" target="_top" xlink:title=" ">
<polygon fill="white" stroke="black" points="462.26,-56.5 462.26,-75.5 551.26,-75.5 551.26,-56.5 462.26,-56.5"/>
<text text-anchor="middle" x="506.76" y="-63.5" font-family="Helvetica,sans-Serif" font-size="10.00">utils/memory.h</text>
</a>
</g>
</g>
<!-- Node18&#45;&gt;Node19 -->
<g id="edge31" class="edge">
<title>Node18&#45;&gt;Node19</title>
<path fill="none" stroke="midnightblue" d="M750.04,-169.12C724.73,-160.56 683.57,-146.2 648.76,-132 608.11,-115.42 562.08,-93.81 533.73,-80.17"/>
<polygon fill="midnightblue" stroke="midnightblue" points="535.01,-76.9 524.48,-75.69 531.96,-83.2 535.01,-76.9"/>
</g>
<!-- Node20 -->
<g id="node20" class="node">
<title>Node20</title>
<g id="a_node20"><a xlink:href="mymalloc_8h.html" target="_top" xlink:title=" ">
<polygon fill="white" stroke="black" points="457.76,-112.5 457.76,-131.5 555.76,-131.5 555.76,-112.5 457.76,-112.5"/>
<text text-anchor="middle" x="506.76" y="-119.5" font-family="Helvetica,sans-Serif" font-size="10.00">utils/mymalloc.h</text>
</a>
</g>
</g>
<!-- Node18&#45;&gt;Node20 -->
<g id="edge33" class="edge">
<title>Node18&#45;&gt;Node20</title>
<path fill="none" stroke="midnightblue" d="M750.06,-172.21C707.44,-163.59 616.91,-145.28 559.1,-133.59"/>
<polygon fill="midnightblue" stroke="midnightblue" points="559.56,-130.11 549.06,-131.56 558.17,-136.97 559.56,-130.11"/>
</g>
<!-- Node21 -->
<g id="node21" class="node">
<title>Node21</title>
<g id="a_node21"><a xlink:href="event_8h.html" target="_top" xlink:title=" ">
<polygon fill="white" stroke="black" points="783.26,-112.5 783.26,-131.5 860.26,-131.5 860.26,-112.5 783.26,-112.5"/>
<text text-anchor="middle" x="821.76" y="-119.5" font-family="Helvetica,sans-Serif" font-size="10.00">utils/event.h</text>
</a>
</g>
</g>
<!-- Node18&#45;&gt;Node21 -->
<g id="edge36" class="edge">
<title>Node18&#45;&gt;Node21</title>
<path fill="none" stroke="midnightblue" d="M781.68,-168.08C788.6,-160.3 798.82,-148.8 807.21,-139.37"/>
<polygon fill="midnightblue" stroke="midnightblue" points="809.95,-141.55 813.98,-131.75 804.72,-136.9 809.95,-141.55"/>
</g>
<!-- Node22 -->
<g id="node22" class="node">
<title>Node22</title>
<g id="a_node22"><a xlink:href="openmpsort_8h.html" target="_top" xlink:title=" ">
<polygon fill="white" stroke="black" points="569.76,-56.5 569.76,-75.5 677.76,-75.5 677.76,-56.5 569.76,-56.5"/>
<text text-anchor="middle" x="623.76" y="-63.5" font-family="Helvetica,sans-Serif" font-size="10.00">utils/openmpsort.h</text>
</a>
</g>
</g>
<!-- Node18&#45;&gt;Node22 -->
<g id="edge37" class="edge">
<title>Node18&#45;&gt;Node22</title>
<path fill="none" stroke="midnightblue" d="M750.02,-170.4C728.05,-163.45 695.33,-150.87 671.76,-132 655.39,-118.89 641.77,-98.93 633.27,-84.58"/>
<polygon fill="midnightblue" stroke="midnightblue" points="636.21,-82.68 628.23,-75.7 630.12,-86.13 636.21,-82.68"/>
</g>
<!-- Node23 -->
<g id="node23" class="node">
<title>Node23</title>
<g id="a_node23"><a xlink:href="system_8h.html" target="_top" xlink:title=" ">
<polygon fill="white" stroke="black" points="1092.76,-112.5 1092.76,-131.5 1178.76,-131.5 1178.76,-112.5 1092.76,-112.5"/>
<text text-anchor="middle" x="1135.76" y="-119.5" font-family="Helvetica,sans-Serif" font-size="10.00">utils/system.h</text>
</a>
</g>
</g>
<!-- Node18&#45;&gt;Node23 -->
<g id="edge39" class="edge">
<title>Node18&#45;&gt;Node23</title>
<path fill="none" stroke="midnightblue" d="M797.52,-173.78C847.96,-166.88 969.73,-149.99 1082.46,-132.17"/>
<polygon fill="midnightblue" stroke="midnightblue" points="1083.32,-135.58 1092.64,-130.56 1082.22,-128.67 1083.32,-135.58"/>
</g>
<!-- Node25 -->
<g id="node25" class="node">
<title>Node25</title>
<g id="a_node25"><a xlink:href="string_8h.html" target="_top" xlink:title=" ">
<polygon fill="white" stroke="black" points="688.26,-112.5 688.26,-131.5 765.26,-131.5 765.26,-112.5 688.26,-112.5"/>
<text text-anchor="middle" x="726.76" y="-119.5" font-family="Helvetica,sans-Serif" font-size="10.00">utils/string.h</text>
</a>
</g>
</g>
<!-- Node18&#45;&gt;Node25 -->
<g id="edge43" class="edge">
<title>Node18&#45;&gt;Node25</title>
<path fill="none" stroke="midnightblue" d="M766,-168.08C759.22,-160.3 749.22,-148.8 741,-139.37"/>
<polygon fill="midnightblue" stroke="midnightblue" points="743.58,-137 734.38,-131.75 738.3,-141.59 743.58,-137"/>
</g>
<!-- Node26 -->
<g id="node26" class="node">
<title>Node26</title>
<g id="a_node26"><a xlink:href="endrun_8h.html" target="_top" xlink:title=" ">
<polygon fill="white" stroke="black" points="878.26,-112.5 878.26,-131.5 961.26,-131.5 961.26,-112.5 878.26,-112.5"/>
<text text-anchor="middle" x="919.76" y="-119.5" font-family="Helvetica,sans-Serif" font-size="10.00">utils/endrun.h</text>
</a>
</g>
</g>
<!-- Node18&#45;&gt;Node26 -->
<g id="edge45" class="edge">
<title>Node18&#45;&gt;Node26</title>
<path fill="none" stroke="midnightblue" d="M796.89,-168.44C821.24,-159.44 859.77,-145.19 887.18,-135.05"/>
<polygon fill="midnightblue" stroke="midnightblue" points="888.57,-138.27 896.73,-131.52 886.14,-131.7 888.57,-138.27"/>
</g>
<!-- Node27 -->
<g id="node27" class="node">
<title>Node27</title>
<g id="a_node27"><a xlink:href="interp_8h.html" target="_top" xlink:title=" ">
<polygon fill="white" stroke="black" points="695.76,-56.5 695.76,-75.5 773.76,-75.5 773.76,-56.5 695.76,-56.5"/>
<text text-anchor="middle" x="734.76" y="-63.5" font-family="Helvetica,sans-Serif" font-size="10.00">utils/interp.h</text>
</a>
</g>
</g>
<!-- Node18&#45;&gt;Node27 -->
<g id="edge46" class="edge">
<title>Node18&#45;&gt;Node27</title>
<path fill="none" stroke="midnightblue" d="M750.1,-173C727.64,-167.8 695.09,-156.34 679.76,-132 667.73,-112.91 689.6,-93.48 709.21,-80.9"/>
<polygon fill="midnightblue" stroke="midnightblue" points="711.19,-83.79 717.94,-75.63 707.57,-77.8 711.19,-83.79"/>
</g>
<!-- Node28 -->
<g id="node28" class="node">
<title>Node28</title>
<g id="a_node28"><a xlink:href="spinlocks_8h.html" target="_top" xlink:title=" ">
<polygon fill="white" stroke="black" points="979.26,-112.5 979.26,-131.5 1074.26,-131.5 1074.26,-112.5 979.26,-112.5"/>
<text text-anchor="middle" x="1026.76" y="-119.5" font-family="Helvetica,sans-Serif" font-size="10.00">utils/spinlocks.h</text>
</a>
</g>
</g>
<!-- Node18&#45;&gt;Node28 -->
<g id="edge48" class="edge">
<title>Node18&#45;&gt;Node28</title>
<path fill="none" stroke="midnightblue" d="M797.56,-171.92C838.35,-163.21 922.46,-145.26 976.65,-133.69"/>
<polygon fill="midnightblue" stroke="midnightblue" points="977.69,-137.05 986.74,-131.54 976.23,-130.21 977.69,-137.05"/>
</g>
<!-- Node19&#45;&gt;Node10 -->
<g id="edge32" class="edge">
<title>Node19&#45;&gt;Node10</title>
<path fill="none" stroke="midnightblue" d="M534.01,-56.44C563.2,-47.28 609.68,-32.69 642.07,-22.52"/>
<polygon fill="midnightblue" stroke="midnightblue" points="643.14,-25.85 651.63,-19.52 641.04,-19.17 643.14,-25.85"/>
</g>
<!-- Node20&#45;&gt;Node19 -->
<g id="edge34" class="edge">
<title>Node20&#45;&gt;Node19</title>
<path fill="none" stroke="midnightblue" d="M506.76,-112.08C506.76,-105.01 506.76,-94.86 506.76,-85.99"/>
<polygon fill="midnightblue" stroke="midnightblue" points="510.26,-85.75 506.76,-75.75 503.26,-85.75 510.26,-85.75"/>
</g>
<!-- Node22&#45;&gt;Node10 -->
<g id="edge38" class="edge">
<title>Node22&#45;&gt;Node10</title>
<path fill="none" stroke="midnightblue" d="M632.84,-56.08C640.93,-48.14 652.95,-36.34 662.67,-26.8"/>
<polygon fill="midnightblue" stroke="midnightblue" points="665.16,-29.25 669.85,-19.75 660.26,-24.26 665.16,-29.25"/>
</g>
<!-- Node23&#45;&gt;Node2 -->
<g id="edge40" class="edge">
<title>Node23&#45;&gt;Node2</title>
<path fill="none" stroke="midnightblue" d="M1155.72,-112.44C1176.37,-103.6 1208.82,-89.69 1232.39,-79.59"/>
<polygon fill="midnightblue" stroke="midnightblue" points="1234.07,-82.67 1241.89,-75.52 1231.32,-76.24 1234.07,-82.67"/>
</g>
<!-- Node23&#45;&gt;Node8 -->
<g id="edge41" class="edge">
<title>Node23&#45;&gt;Node8</title>
<path fill="none" stroke="midnightblue" d="M1092.68,-113.15C1089.67,-112.73 1086.67,-112.33 1083.76,-112 804.69,-80 731.46,-111.05 452.76,-76 448.28,-75.44 443.58,-74.69 438.96,-73.88"/>
<polygon fill="midnightblue" stroke="midnightblue" points="439.6,-70.44 429.12,-72.01 438.29,-77.31 439.6,-70.44"/>
</g>
<!-- Node24 -->
<g id="node24" class="node">
<title>Node24</title>
<g id="a_node24"><a xlink:title=" ">
<polygon fill="white" stroke="#bfbfbf" points="949.76,-56.5 949.76,-75.5 1005.76,-75.5 1005.76,-56.5 949.76,-56.5"/>
<text text-anchor="middle" x="977.76" y="-63.5" font-family="Helvetica,sans-Serif" font-size="10.00">stdarg.h</text>
</a>
</g>
</g>
<!-- Node23&#45;&gt;Node24 -->
<g id="edge42" class="edge">
<title>Node23&#45;&gt;Node24</title>
<path fill="none" stroke="midnightblue" d="M1110.72,-112.44C1084.14,-103.36 1041.95,-88.94 1012.24,-78.78"/>
<polygon fill="midnightblue" stroke="midnightblue" points="1013.27,-75.44 1002.68,-75.52 1011.01,-82.06 1013.27,-75.44"/>
</g>
<!-- Node25&#45;&gt;Node24 -->
<g id="edge44" class="edge">
<title>Node25&#45;&gt;Node24</title>
<path fill="none" stroke="midnightblue" d="M765.43,-112.68C812.83,-102.48 892.65,-85.31 939.75,-75.18"/>
<polygon fill="midnightblue" stroke="midnightblue" points="940.52,-78.59 949.56,-73.07 939.05,-71.75 940.52,-78.59"/>
</g>
<!-- Node27&#45;&gt;Node10 -->
<g id="edge47" class="edge">
<title>Node27&#45;&gt;Node10</title>
<path fill="none" stroke="midnightblue" d="M725.76,-56.32C717.56,-48.42 705.25,-36.55 695.29,-26.94"/>
<polygon fill="midnightblue" stroke="midnightblue" points="697.55,-24.26 687.92,-19.83 692.69,-29.29 697.55,-24.26"/>
</g>
</g>
</svg>
