<?xml version="1.0" encoding="UTF-8" standalone="no"?>
<!DOCTYPE svg PUBLIC "-//W3C//DTD SVG 1.1//EN"
 "http://www.w3.org/Graphics/SVG/1.1/DTD/svg11.dtd">
<!-- Generated by graphviz version 2.50.0 (0)
 -->
<!-- Title: real_ev Pages: 1 -->
<svg width="542pt" height="256pt"
 viewBox="0.00 0.00 542.00 256.00" xmlns="http://www.w3.org/2000/svg" xmlns:xlink="http://www.w3.org/1999/xlink">
<g id="graph0" class="graph" transform="scale(1 1) rotate(0) translate(4 252)">
<title>real_ev</title>
<polygon fill="white" stroke="transparent" points="-4,4 -4,-252 538,-252 538,4 -4,4"/>
<!-- Node1 -->
<g id="node1" class="node">
<title>Node1</title>
<g id="a_node1"><a xlink:title=" ">
<polygon fill="#bfbfbf" stroke="black" points="0,-114.5 0,-133.5 53,-133.5 53,-114.5 0,-114.5"/>
<text text-anchor="middle" x="26.5" y="-121.5" font-family="Helvetica,sans-Serif" font-size="10.00">real_ev</text>
</a>
</g>
</g>
<!-- Node2 -->
<g id="node2" class="node">
<title>Node2</title>
<g id="a_node2"><a xlink:href="system_8h.html#a00eeba7aebd7952f4c0ecebb60fbeca2" target="_top" xlink:title=" ">
<polygon fill="white" stroke="black" points="91,-228.5 91,-247.5 218,-247.5 218,-228.5 91,-228.5"/>
<text text-anchor="middle" x="154.5" y="-235.5" font-family="Helvetica,sans-Serif" font-size="10.00">atomic_fetch_and_add</text>
</a>
</g>
</g>
<!-- Node1&#45;&gt;Node2 -->
<g id="edge1" class="edge">
<title>Node1&#45;&gt;Node2</title>
<path fill="none" stroke="midnightblue" d="M31.61,-133.58C39.89,-151.77 60.23,-191.5 89,-214 94.31,-218.15 100.42,-221.64 106.71,-224.56"/>
<polygon fill="midnightblue" stroke="midnightblue" points="105.41,-227.81 115.98,-228.43 108.1,-221.35 105.41,-227.81"/>
</g>
<!-- Node3 -->
<g id="node3" class="node">
<title>Node3</title>
<g id="a_node3"><a xlink:href="endrun_8c.html#ad963d7efdb9f10f7a2298c8ccd222ab0" target="_top" xlink:title=" ">
<polygon fill="white" stroke="black" points="261.5,-114.5 261.5,-133.5 311.5,-133.5 311.5,-114.5 261.5,-114.5"/>
<text text-anchor="middle" x="286.5" y="-121.5" font-family="Helvetica,sans-Serif" font-size="10.00">endrun</text>
</a>
</g>
</g>
<!-- Node1&#45;&gt;Node3 -->
<g id="edge2" class="edge">
<title>Node1&#45;&gt;Node3</title>
<path fill="none" stroke="midnightblue" d="M53.18,-124C99.92,-124 198.9,-124 251.3,-124"/>
<polygon fill="midnightblue" stroke="midnightblue" points="251.43,-127.5 261.43,-124 251.43,-120.5 251.43,-127.5"/>
</g>
<!-- Node7 -->
<g id="node7" class="node">
<title>Node7</title>
<g id="a_node7"><a xlink:href="treewalk_8c.html#a4238c59700ad7d440eb4d7890de08f2c" target="_top" xlink:title=" ">
<polygon fill="white" stroke="black" points="111.5,-152.5 111.5,-171.5 197.5,-171.5 197.5,-152.5 111.5,-152.5"/>
<text text-anchor="middle" x="154.5" y="-159.5" font-family="Helvetica,sans-Serif" font-size="10.00">ev_init_thread</text>
</a>
</g>
</g>
<!-- Node1&#45;&gt;Node7 -->
<g id="edge6" class="edge">
<title>Node1&#45;&gt;Node7</title>
<path fill="none" stroke="midnightblue" d="M53.3,-131.78C70.22,-136.88 92.72,-143.67 112.11,-149.52"/>
<polygon fill="midnightblue" stroke="midnightblue" points="111.34,-152.94 121.93,-152.48 113.36,-146.24 111.34,-152.94"/>
</g>
<!-- Node8 -->
<g id="node8" class="node">
<title>Node8</title>
<g id="a_node8"><a xlink:href="endrun_8c.html#a6567cd867c5549fb6586e19ccd819764" target="_top" xlink:title=" ">
<polygon fill="white" stroke="black" points="256,-180.5 256,-199.5 317,-199.5 317,-180.5 256,-180.5"/>
<text text-anchor="middle" x="286.5" y="-187.5" font-family="Helvetica,sans-Serif" font-size="10.00">message</text>
</a>
</g>
</g>
<!-- Node1&#45;&gt;Node8 -->
<g id="edge7" class="edge">
<title>Node1&#45;&gt;Node8</title>
<path fill="none" stroke="midnightblue" d="M34.49,-133.86C44.7,-147.34 65.1,-170.99 89,-181 139.85,-202.3 204.72,-200.31 245.7,-195.94"/>
<polygon fill="midnightblue" stroke="midnightblue" points="246.3,-199.39 255.83,-194.76 245.49,-192.44 246.3,-199.39"/>
</g>
<!-- Node9 -->
<g id="node9" class="node">
<title>Node9</title>
<g id="a_node9"><a xlink:href="treewalk_8c.html#af8619681f7d063183bea07a7d80ac98e" target="_top" xlink:title=" ">
<polygon fill="white" stroke="black" points="98,-76.5 98,-95.5 211,-95.5 211,-76.5 98,-76.5"/>
<text text-anchor="middle" x="154.5" y="-83.5" font-family="Helvetica,sans-Serif" font-size="10.00">treewalk_init_query</text>
</a>
</g>
</g>
<!-- Node1&#45;&gt;Node9 -->
<g id="edge9" class="edge">
<title>Node1&#45;&gt;Node9</title>
<path fill="none" stroke="midnightblue" d="M53.3,-116.22C70.22,-111.12 92.72,-104.33 112.11,-98.48"/>
<polygon fill="midnightblue" stroke="midnightblue" points="113.36,-101.76 121.93,-95.52 111.34,-95.06 113.36,-101.76"/>
</g>
<!-- Node10 -->
<g id="node10" class="node">
<title>Node10</title>
<g id="a_node10"><a xlink:href="treewalk_8c.html#af7a85c8514602df4d3dd61f4ef3e0d48" target="_top" xlink:title=" ">
<polygon fill="white" stroke="black" points="98,-38.5 98,-57.5 211,-57.5 211,-38.5 98,-38.5"/>
<text text-anchor="middle" x="154.5" y="-45.5" font-family="Helvetica,sans-Serif" font-size="10.00">treewalk_init_result</text>
</a>
</g>
</g>
<!-- Node1&#45;&gt;Node10 -->
<g id="edge10" class="edge">
<title>Node1&#45;&gt;Node10</title>
<path fill="none" stroke="midnightblue" d="M35.24,-114.49C46.01,-101.86 66.73,-79.66 89,-67 92.87,-64.8 97.02,-62.83 101.28,-61.08"/>
<polygon fill="midnightblue" stroke="midnightblue" points="102.57,-64.33 110.72,-57.57 100.13,-57.77 102.57,-64.33"/>
</g>
<!-- Node11 -->
<g id="node11" class="node">
<title>Node11</title>
<g id="a_node11"><a xlink:href="treewalk_8c.html#ac3d61be6b2bd96daed4c4a17521a0fda" target="_top" xlink:title=" ">
<polygon fill="white" stroke="black" points="89,-0.5 89,-19.5 220,-19.5 220,-0.5 89,-0.5"/>
<text text-anchor="middle" x="154.5" y="-7.5" font-family="Helvetica,sans-Serif" font-size="10.00">treewalk_reduce_result</text>
</a>
</g>
</g>
<!-- Node1&#45;&gt;Node11 -->
<g id="edge11" class="edge">
<title>Node1&#45;&gt;Node11</title>
<path fill="none" stroke="midnightblue" d="M31.08,-114.29C38.69,-95.04 58.3,-51.92 89,-29 91.62,-27.04 94.44,-25.29 97.38,-23.71"/>
<polygon fill="midnightblue" stroke="midnightblue" points="98.88,-26.87 106.5,-19.51 95.95,-20.52 98.88,-26.87"/>
</g>
<!-- Node4 -->
<g id="node4" class="node">
<title>Node4</title>
<g id="a_node4"><a xlink:href="system_8c.html#a341c8d27bd6c7dde856566810b412b1f" target="_top" xlink:title=" ">
<polygon fill="white" stroke="black" points="361,-171.5 361,-190.5 440,-190.5 440,-171.5 361,-171.5"/>
<text text-anchor="middle" x="400.5" y="-178.5" font-family="Helvetica,sans-Serif" font-size="10.00">MPIU_Tracev</text>
</a>
</g>
</g>
<!-- Node3&#45;&gt;Node4 -->
<g id="edge3" class="edge">
<title>Node3&#45;&gt;Node4</title>
<path fill="none" stroke="midnightblue" d="M306.25,-133.54C324.09,-142.62 351.18,-156.41 371.57,-166.79"/>
<polygon fill="midnightblue" stroke="midnightblue" points="370.19,-170.01 380.69,-171.43 373.37,-163.77 370.19,-170.01"/>
</g>
<!-- Node6 -->
<g id="node6" class="node">
<title>Node6</title>
<g id="a_node6"><a xlink:href="endrun_8c.html#a1200f02a595ab7cbe17c9e36ff32af0f" target="_top" xlink:title=" ">
<polygon fill="white" stroke="black" points="353,-114.5 353,-133.5 448,-133.5 448,-114.5 353,-114.5"/>
<text text-anchor="middle" x="400.5" y="-121.5" font-family="Helvetica,sans-Serif" font-size="10.00">show_backtrace</text>
</a>
</g>
</g>
<!-- Node3&#45;&gt;Node6 -->
<g id="edge5" class="edge">
<title>Node3&#45;&gt;Node6</title>
<path fill="none" stroke="midnightblue" d="M311.53,-124C320.78,-124 331.78,-124 342.82,-124"/>
<polygon fill="midnightblue" stroke="midnightblue" points="342.92,-127.5 352.92,-124 342.92,-120.5 342.92,-127.5"/>
</g>
<!-- Node5 -->
<g id="node5" class="node">
<title>Node5</title>
<g id="a_node5"><a xlink:href="system_8c.html#a87108946670b4c3afbe846c6726675ff" target="_top" xlink:title=" ">
<polygon fill="white" stroke="black" points="484,-171.5 484,-190.5 534,-190.5 534,-171.5 484,-171.5"/>
<text text-anchor="middle" x="509" y="-178.5" font-family="Helvetica,sans-Serif" font-size="10.00">putline</text>
</a>
</g>
</g>
<!-- Node4&#45;&gt;Node5 -->
<g id="edge4" class="edge">
<title>Node4&#45;&gt;Node5</title>
<path fill="none" stroke="midnightblue" d="M440.25,-181C451.22,-181 463.09,-181 473.77,-181"/>
<polygon fill="midnightblue" stroke="midnightblue" points="473.99,-184.5 483.99,-181 473.99,-177.5 473.99,-184.5"/>
</g>
<!-- Node8&#45;&gt;Node4 -->
<g id="edge8" class="edge">
<title>Node8&#45;&gt;Node4</title>
<path fill="none" stroke="midnightblue" d="M317.22,-187.61C327.44,-186.79 339.17,-185.85 350.51,-184.94"/>
<polygon fill="midnightblue" stroke="midnightblue" points="351.08,-188.4 360.77,-184.11 350.52,-181.42 351.08,-188.4"/>
</g>
<!-- Node11&#45;&gt;Node3 -->
<g id="edge12" class="edge">
<title>Node11&#45;&gt;Node3</title>
<path fill="none" stroke="midnightblue" d="M202.06,-19.52C208.42,-21.99 214.61,-25.1 220,-29 247.31,-48.78 267.03,-83.63 277.33,-105.17"/>
<polygon fill="midnightblue" stroke="midnightblue" points="274.16,-106.66 281.5,-114.29 280.52,-103.74 274.16,-106.66"/>
</g>
</g>
</svg>
