<?xml version="1.0" encoding="UTF-8" standalone="no"?>
<!DOCTYPE svg PUBLIC "-//W3C//DTD SVG 1.1//EN"
 "http://www.w3.org/Graphics/SVG/1.1/DTD/svg11.dtd">
<!-- Generated by graphviz version 2.38.0 (20140413.2041)
 -->
<!-- Title: ev_communicate Pages: 1 -->
<svg width="1501pt" height="339pt"
 viewBox="0.00 0.00 1501.00 338.86" xmlns="http://www.w3.org/2000/svg" xmlns:xlink="http://www.w3.org/1999/xlink">
<g id="graph0" class="graph" transform="scale(1 1) rotate(0) translate(4 334.859)">
<title>ev_communicate</title>
<polygon fill="white" stroke="none" points="-4,4 -4,-334.859 1497,-334.859 1497,4 -4,4"/>
<!-- Node151 -->
<g id="node1" class="node"><title>Node151</title>
<polygon fill="#bfbfbf" stroke="black" points="0,-140.359 0,-159.359 91,-159.359 91,-140.359 0,-140.359"/>
<text text-anchor="middle" x="45.5" y="-147.359" font-family="Helvetica,sans-Serif" font-size="10.00">ev_communicate</text>
</g>
<!-- Node152 -->
<g id="node2" class="node"><title>Node152</title>
<g id="a_node2"><a xlink:href="treewalk_8c.html#a587df5201e3b9d6608189f9c606c2633" target="_top" xlink:title="ev_get_remote">
<polygon fill="white" stroke="black" points="132,-159.359 132,-178.359 213,-178.359 213,-159.359 132,-159.359"/>
<text text-anchor="middle" x="172.5" y="-166.359" font-family="Helvetica,sans-Serif" font-size="10.00">ev_get_remote</text>
</a>
</g>
</g>
<!-- Node151&#45;&gt;Node152 -->
<g id="edge1" class="edge"><title>Node151&#45;&gt;Node152</title>
<path fill="none" stroke="midnightblue" d="M101.326,-158.193C111.51,-159.741 121.97,-161.33 131.603,-162.795"/>
<polygon fill="midnightblue" stroke="midnightblue" points="101.687,-154.707 91.2748,-156.665 100.635,-161.628 101.687,-154.707"/>
</g>
<!-- Node178 -->
<g id="node28" class="node"><title>Node178</title>
<g id="a_node28"><a xlink:href="treewalk_8c.html#afe78385cec6aabfdd65e6c619a307ef3" target="_top" xlink:title="ev_reduce_result">
<polygon fill="white" stroke="black" points="127,-121.359 127,-140.359 218,-140.359 218,-121.359 127,-121.359"/>
<text text-anchor="middle" x="172.5" y="-128.359" font-family="Helvetica,sans-Serif" font-size="10.00">ev_reduce_result</text>
</a>
</g>
</g>
<!-- Node151&#45;&gt;Node178 -->
<g id="edge42" class="edge"><title>Node151&#45;&gt;Node178</title>
<path fill="none" stroke="midnightblue" d="M101.414,-141.512C109.837,-140.232 118.446,-138.923 126.618,-137.681"/>
<polygon fill="midnightblue" stroke="midnightblue" points="100.635,-138.09 91.2748,-143.053 101.687,-145.011 100.635,-138.09"/>
</g>
<!-- Node153 -->
<g id="node3" class="node"><title>Node153</title>
<g id="a_node3"><a xlink:href="treewalk_8h.html#aa6772bdbc1552278ca7dae6a9adb031d" target="_top" xlink:title="treewalk_run">
<polygon fill="white" stroke="black" points="254,-140.359 254,-159.359 326,-159.359 326,-140.359 254,-140.359"/>
<text text-anchor="middle" x="290" y="-147.359" font-family="Helvetica,sans-Serif" font-size="10.00">treewalk_run</text>
</a>
</g>
</g>
<!-- Node152&#45;&gt;Node153 -->
<g id="edge2" class="edge"><title>Node152&#45;&gt;Node153</title>
<path fill="none" stroke="midnightblue" d="M223.346,-160.659C233.606,-158.971 244.205,-157.228 253.814,-155.647"/>
<polygon fill="midnightblue" stroke="midnightblue" points="222.548,-157.243 213.249,-162.32 223.684,-164.151 222.548,-157.243"/>
</g>
<!-- Node154 -->
<g id="node4" class="node"><title>Node154</title>
<g id="a_node4"><a xlink:href="density_8c.html#a69886540d0642590a0022fc14ce61f06" target="_top" xlink:title="density_internal">
<polygon fill="white" stroke="black" points="371.5,-273.359 371.5,-292.359 456.5,-292.359 456.5,-273.359 371.5,-273.359"/>
<text text-anchor="middle" x="414" y="-280.359" font-family="Helvetica,sans-Serif" font-size="10.00">density_internal</text>
</a>
</g>
</g>
<!-- Node153&#45;&gt;Node154 -->
<g id="edge3" class="edge"><title>Node153&#45;&gt;Node154</title>
<path fill="none" stroke="midnightblue" d="M298.337,-169.12C308.829,-194.247 330.406,-238.037 362,-263.859 366.682,-267.686 372.211,-270.787 377.87,-273.285"/>
<polygon fill="midnightblue" stroke="midnightblue" points="301.491,-167.582 294.523,-159.601 294.994,-170.186 301.491,-167.582"/>
</g>
<!-- Node165 -->
<g id="node15" class="node"><title>Node165</title>
<g id="a_node15"><a xlink:href="fof_8c.html#a77c15fc071e72ec1ea91652d28740ce1" target="_top" xlink:title="fof_label_primary">
<polygon fill="white" stroke="black" points="368.5,-83.359 368.5,-102.359 459.5,-102.359 459.5,-83.359 368.5,-83.359"/>
<text text-anchor="middle" x="414" y="-90.359" font-family="Helvetica,sans-Serif" font-size="10.00">fof_label_primary</text>
</a>
</g>
</g>
<!-- Node153&#45;&gt;Node165 -->
<g id="edge17" class="edge"><title>Node153&#45;&gt;Node165</title>
<path fill="none" stroke="midnightblue" d="M320.745,-135.962C343.004,-125.562 372.873,-111.607 392.513,-102.431"/>
<polygon fill="midnightblue" stroke="midnightblue" points="318.998,-132.914 311.42,-140.318 321.962,-139.256 318.998,-132.914"/>
</g>
<!-- Node171 -->
<g id="node21" class="node"><title>Node171</title>
<g id="a_node21"><a xlink:href="fof_8c.html#a9bbff144989b21ac4cbedc3aa2c6b1dc" target="_top" xlink:title="fof_label_secondary">
<polygon fill="white" stroke="black" points="362,-45.359 362,-64.359 466,-64.359 466,-45.359 362,-45.359"/>
<text text-anchor="middle" x="414" y="-52.359" font-family="Helvetica,sans-Serif" font-size="10.00">fof_label_secondary</text>
</a>
</g>
</g>
<!-- Node153&#45;&gt;Node171 -->
<g id="edge28" class="edge"><title>Node153&#45;&gt;Node171</title>
<path fill="none" stroke="midnightblue" d="M303.866,-131.86C316.84,-114.855 338.295,-89.6623 362,-73.859 367.582,-70.1377 373.99,-67.0191 380.338,-64.4551"/>
<polygon fill="midnightblue" stroke="midnightblue" points="300.714,-130.236 297.57,-140.354 306.337,-134.404 300.714,-130.236"/>
</g>
<!-- Node172 -->
<g id="node22" class="node"><title>Node172</title>
<g id="a_node22"><a xlink:href="runtests_8c.html#a60eab909e50b5e048e572b833dcc2846" target="_top" xlink:title="grav_short_pair">
<polygon fill="white" stroke="black" points="372.5,-159.359 372.5,-178.359 455.5,-178.359 455.5,-159.359 372.5,-159.359"/>
<text text-anchor="middle" x="414" y="-166.359" font-family="Helvetica,sans-Serif" font-size="10.00">grav_short_pair</text>
</a>
</g>
</g>
<!-- Node153&#45;&gt;Node172 -->
<g id="edge31" class="edge"><title>Node153&#45;&gt;Node172</title>
<path fill="none" stroke="midnightblue" d="M336.355,-156.922C348.11,-158.753 360.696,-160.713 372.201,-162.505"/>
<polygon fill="midnightblue" stroke="midnightblue" points="336.707,-153.435 326.287,-155.355 335.63,-160.352 336.707,-153.435"/>
</g>
<!-- Node174 -->
<g id="node24" class="node"><title>Node174</title>
<g id="a_node24"><a xlink:href="gravshort-tree-old_8c.html#af703f51f005d6f005c4cfd250fdd5eb9" target="_top" xlink:title="grav_short_tree_old">
<polygon fill="white" stroke="black" points="363,-7.35896 363,-26.359 465,-26.359 465,-7.35896 363,-7.35896"/>
<text text-anchor="middle" x="414" y="-14.359" font-family="Helvetica,sans-Serif" font-size="10.00">grav_short_tree_old</text>
</a>
</g>
</g>
<!-- Node153&#45;&gt;Node174 -->
<g id="edge34" class="edge"><title>Node153&#45;&gt;Node174</title>
<path fill="none" stroke="midnightblue" d="M298.337,-130.598C308.829,-105.471 330.406,-61.6805 362,-35.859 366.682,-32.0322 372.211,-28.9313 377.87,-26.4325"/>
<polygon fill="midnightblue" stroke="midnightblue" points="294.994,-129.532 294.523,-140.117 301.491,-132.136 294.994,-129.532"/>
</g>
<!-- Node175 -->
<g id="node25" class="node"><title>Node175</title>
<g id="a_node25"><a xlink:href="proto_8h.html#a3890f7b7605d1abaf3cd23eeca5bcdd5" target="_top" xlink:title="grav_short_tree">
<polygon fill="white" stroke="black" points="372,-235.359 372,-254.359 456,-254.359 456,-235.359 372,-235.359"/>
<text text-anchor="middle" x="414" y="-242.359" font-family="Helvetica,sans-Serif" font-size="10.00">grav_short_tree</text>
</a>
</g>
</g>
<!-- Node153&#45;&gt;Node175 -->
<g id="edge35" class="edge"><title>Node153&#45;&gt;Node175</title>
<path fill="none" stroke="midnightblue" d="M305.487,-167.472C318.925,-182.993 340.099,-205.466 362,-220.859 370.006,-226.486 379.539,-231.379 388.185,-235.253"/>
<polygon fill="midnightblue" stroke="midnightblue" points="307.997,-165.02 298.861,-159.654 302.656,-169.546 307.997,-165.02"/>
</g>
<!-- Node176 -->
<g id="node26" class="node"><title>Node176</title>
<g id="a_node26"><a xlink:href="hydra_8h.html#a6789381bce7d1c316df8ecf04b47a607" target="_top" xlink:title="hydro_force">
<polygon fill="white" stroke="black" points="514.5,-197.359 514.5,-216.359 582.5,-216.359 582.5,-197.359 514.5,-197.359"/>
<text text-anchor="middle" x="548.5" y="-204.359" font-family="Helvetica,sans-Serif" font-size="10.00">hydro_force</text>
</a>
</g>
</g>
<!-- Node153&#45;&gt;Node176 -->
<g id="edge38" class="edge"><title>Node153&#45;&gt;Node176</title>
<path fill="none" stroke="midnightblue" d="M313.547,-164.862C327.033,-173.07 344.837,-182.611 362,-187.859 413.546,-203.62 476.51,-206.917 514.235,-207.295"/>
<polygon fill="midnightblue" stroke="midnightblue" points="315.289,-161.824 304.961,-159.462 311.562,-167.749 315.289,-161.824"/>
</g>
<!-- Node177 -->
<g id="node27" class="node"><title>Node177</title>
<g id="a_node27"><a xlink:href="sfr__eff_8h.html#aaa7b178a168a5d23b2cfe478ebc58ee1" target="_top" xlink:title="cooling_only">
<polygon fill="white" stroke="black" points="513,-121.359 513,-140.359 584,-140.359 584,-121.359 513,-121.359"/>
<text text-anchor="middle" x="548.5" y="-128.359" font-family="Helvetica,sans-Serif" font-size="10.00">cooling_only</text>
</a>
</g>
</g>
<!-- Node153&#45;&gt;Node177 -->
<g id="edge40" class="edge"><title>Node153&#45;&gt;Node177</title>
<path fill="none" stroke="midnightblue" d="M336.413,-146.495C386.846,-142.759 467.153,-136.811 512.797,-133.43"/>
<polygon fill="midnightblue" stroke="midnightblue" points="335.842,-143.028 326.127,-147.257 336.359,-150.009 335.842,-143.028"/>
</g>
<!-- Node155 -->
<g id="node5" class="node"><title>Node155</title>
<g id="a_node5"><a xlink:href="proto_8h.html#a8ce8ad3893801ac7d380efd9b7ef26d3" target="_top" xlink:title="density">
<polygon fill="white" stroke="black" points="524.5,-273.359 524.5,-292.359 572.5,-292.359 572.5,-273.359 524.5,-273.359"/>
<text text-anchor="middle" x="548.5" y="-280.359" font-family="Helvetica,sans-Serif" font-size="10.00">density</text>
</a>
</g>
</g>
<!-- Node154&#45;&gt;Node155 -->
<g id="edge4" class="edge"><title>Node154&#45;&gt;Node155</title>
<path fill="none" stroke="midnightblue" d="M466.744,-282.859C486.615,-282.859 508.318,-282.859 524.215,-282.859"/>
<polygon fill="midnightblue" stroke="midnightblue" points="466.56,-279.359 456.56,-282.859 466.56,-286.359 466.56,-279.359"/>
</g>
<!-- Node164 -->
<g id="node14" class="node"><title>Node164</title>
<g id="a_node14"><a xlink:href="proto_8h.html#a137ca78a0bd40fa7a75438e90e4f66a8" target="_top" xlink:title="density_update">
<polygon fill="white" stroke="black" points="507,-311.359 507,-330.359 590,-330.359 590,-311.359 507,-311.359"/>
<text text-anchor="middle" x="548.5" y="-318.359" font-family="Helvetica,sans-Serif" font-size="10.00">density_update</text>
</a>
</g>
</g>
<!-- Node154&#45;&gt;Node164 -->
<g id="edge15" class="edge"><title>Node154&#45;&gt;Node164</title>
<path fill="none" stroke="midnightblue" d="M458.204,-295.25C476.349,-300.453 497.129,-306.413 514.075,-311.273"/>
<polygon fill="midnightblue" stroke="midnightblue" points="459.013,-291.84 448.435,-292.448 457.083,-298.569 459.013,-291.84"/>
</g>
<!-- Node156 -->
<g id="node6" class="node"><title>Node156</title>
<g id="a_node6"><a xlink:href="run_8c.html#abb80d08f4d52f4a7bdf28d1cecfead5b" target="_top" xlink:title="compute_accelerations">
<polygon fill="white" stroke="black" points="639.5,-197.359 639.5,-216.359 756.5,-216.359 756.5,-197.359 639.5,-197.359"/>
<text text-anchor="middle" x="698" y="-204.359" font-family="Helvetica,sans-Serif" font-size="10.00">compute_accelerations</text>
</a>
</g>
</g>
<!-- Node155&#45;&gt;Node156 -->
<g id="edge5" class="edge"><title>Node155&#45;&gt;Node156</title>
<path fill="none" stroke="midnightblue" d="M577.169,-268.602C606.787,-253.342 652.951,-229.556 678.471,-216.406"/>
<polygon fill="midnightblue" stroke="midnightblue" points="575.467,-265.542 568.181,-273.234 578.673,-271.764 575.467,-265.542"/>
</g>
<!-- Node161 -->
<g id="node11" class="node"><title>Node161</title>
<g id="a_node11"><a xlink:href="init_8c.html#a643ef34b585446f8ccbbf3239df2db71" target="_top" xlink:title="setup_smoothinglengths">
<polygon fill="white" stroke="black" points="637,-273.359 637,-292.359 759,-292.359 759,-273.359 637,-273.359"/>
<text text-anchor="middle" x="698" y="-280.359" font-family="Helvetica,sans-Serif" font-size="10.00">setup_smoothinglengths</text>
</a>
</g>
</g>
<!-- Node155&#45;&gt;Node161 -->
<g id="edge11" class="edge"><title>Node155&#45;&gt;Node161</title>
<path fill="none" stroke="midnightblue" d="M582.953,-282.859C598.907,-282.859 618.491,-282.859 636.9,-282.859"/>
<polygon fill="midnightblue" stroke="midnightblue" points="582.547,-279.359 572.547,-282.859 582.547,-286.359 582.547,-279.359"/>
</g>
<!-- Node157 -->
<g id="node7" class="node"><title>Node157</title>
<g id="a_node7"><a xlink:href="run_8c.html#a05e0ffe612d44e6d7f3a9ae5b9df56a2" target="_top" xlink:title="run">
<polygon fill="white" stroke="black" points="1157,-121.359 1157,-140.359 1187,-140.359 1187,-121.359 1157,-121.359"/>
<text text-anchor="middle" x="1172" y="-128.359" font-family="Helvetica,sans-Serif" font-size="10.00">run</text>
</a>
</g>
</g>
<!-- Node156&#45;&gt;Node157 -->
<g id="edge6" class="edge"><title>Node156&#45;&gt;Node157</title>
<path fill="none" stroke="midnightblue" d="M766.759,-203.006C850.996,-197.014 998.61,-182.548 1121,-149.859 1133.38,-146.552 1146.94,-141.289 1156.82,-137.14"/>
<polygon fill="midnightblue" stroke="midnightblue" points="766.29,-199.53 756.556,-203.713 766.774,-206.513 766.29,-199.53"/>
</g>
<!-- Node158 -->
<g id="node8" class="node"><title>Node158</title>
<g id="a_node8"><a xlink:href="main_8c.html#a3c04138a5bfe5d72780bb7e82a18e627" target="_top" xlink:title="main">
<polygon fill="white" stroke="black" points="1223,-159.359 1223,-178.359 1261,-178.359 1261,-159.359 1223,-159.359"/>
<text text-anchor="middle" x="1242" y="-166.359" font-family="Helvetica,sans-Serif" font-size="10.00">main</text>
</a>
</g>
</g>
<!-- Node157&#45;&gt;Node158 -->
<g id="edge7" class="edge"><title>Node157&#45;&gt;Node158</title>
<path fill="none" stroke="midnightblue" d="M1195.94,-143.68C1204.96,-148.719 1215.14,-154.409 1223.54,-159.104"/>
<polygon fill="midnightblue" stroke="midnightblue" points="1197.53,-140.556 1187.09,-138.733 1194.11,-146.666 1197.53,-140.556"/>
</g>
<!-- Node159 -->
<g id="node9" class="node"><title>Node159</title>
<g id="a_node9"><a xlink:href="walltime_8h.html#a76d2135b612766d4d665748454b879d6" target="_top" xlink:title="walltime_report">
<polygon fill="white" stroke="black" points="1297,-159.359 1297,-178.359 1380,-178.359 1380,-159.359 1297,-159.359"/>
<text text-anchor="middle" x="1338.5" y="-166.359" font-family="Helvetica,sans-Serif" font-size="10.00">walltime_report</text>
</a>
</g>
</g>
<!-- Node158&#45;&gt;Node159 -->
<g id="edge8" class="edge"><title>Node158&#45;&gt;Node159</title>
<path fill="none" stroke="midnightblue" d="M1271.41,-168.859C1279.35,-168.859 1288.13,-168.859 1296.63,-168.859"/>
<polygon fill="midnightblue" stroke="midnightblue" points="1271.22,-165.359 1261.22,-168.859 1271.22,-172.359 1271.22,-165.359"/>
</g>
<!-- Node160 -->
<g id="node10" class="node"><title>Node160</title>
<g id="a_node10"><a xlink:href="run_8c.html#adc59e9ee1517e4e690694a64ab6a59d2" target="_top" xlink:title="write_cpu_log">
<polygon fill="white" stroke="black" points="1416,-140.359 1416,-159.359 1493,-159.359 1493,-140.359 1416,-140.359"/>
<text text-anchor="middle" x="1454.5" y="-147.359" font-family="Helvetica,sans-Serif" font-size="10.00">write_cpu_log</text>
</a>
</g>
</g>
<!-- Node159&#45;&gt;Node160 -->
<g id="edge9" class="edge"><title>Node159&#45;&gt;Node160</title>
<path fill="none" stroke="midnightblue" d="M1390.03,-160.437C1398.68,-158.995 1407.54,-157.519 1415.78,-156.145"/>
<polygon fill="midnightblue" stroke="midnightblue" points="1389.3,-157.01 1380.01,-162.107 1390.45,-163.915 1389.3,-157.01"/>
</g>
<!-- Node160&#45;&gt;Node157 -->
<g id="edge10" class="edge"><title>Node160&#45;&gt;Node157</title>
<path fill="none" stroke="midnightblue" d="M1405.73,-146.623C1340.49,-142.204 1227.09,-134.523 1187.3,-131.827"/>
<polygon fill="midnightblue" stroke="midnightblue" points="1405.55,-150.119 1415.76,-147.303 1406.02,-143.135 1405.55,-150.119"/>
</g>
<!-- Node162 -->
<g id="node12" class="node"><title>Node162</title>
<g id="a_node12"><a xlink:href="proto_8h.html#ab080cb20bac2a1a6153a84e8cfd15374" target="_top" xlink:title="init">
<polygon fill="white" stroke="black" points="958.5,-244.359 958.5,-263.359 987.5,-263.359 987.5,-244.359 958.5,-244.359"/>
<text text-anchor="middle" x="973" y="-251.359" font-family="Helvetica,sans-Serif" font-size="10.00">init</text>
</a>
</g>
</g>
<!-- Node161&#45;&gt;Node162 -->
<g id="edge12" class="edge"><title>Node161&#45;&gt;Node162</title>
<path fill="none" stroke="midnightblue" d="M769.377,-275.383C833.957,-268.523 924.573,-258.897 958.487,-255.294"/>
<polygon fill="midnightblue" stroke="midnightblue" points="768.823,-271.922 759.249,-276.459 769.563,-278.883 768.823,-271.922"/>
</g>
<!-- Node163 -->
<g id="node13" class="node"><title>Node163</title>
<g id="a_node13"><a xlink:href="proto_8h.html#a74dc0e5e9eefe11fc8434b62de573146" target="_top" xlink:title="begrun">
<polygon fill="white" stroke="black" points="1053,-239.359 1053,-258.359 1099,-258.359 1099,-239.359 1053,-239.359"/>
<text text-anchor="middle" x="1076" y="-246.359" font-family="Helvetica,sans-Serif" font-size="10.00">begrun</text>
</a>
</g>
</g>
<!-- Node162&#45;&gt;Node163 -->
<g id="edge13" class="edge"><title>Node162&#45;&gt;Node163</title>
<path fill="none" stroke="midnightblue" d="M997.646,-252.688C1014.28,-251.865 1036.4,-250.77 1052.72,-249.962"/>
<polygon fill="midnightblue" stroke="midnightblue" points="997.436,-249.194 987.621,-253.185 997.782,-256.186 997.436,-249.194"/>
</g>
<!-- Node163&#45;&gt;Node158 -->
<g id="edge14" class="edge"><title>Node163&#45;&gt;Node158</title>
<path fill="none" stroke="midnightblue" d="M1106.11,-234.657C1139.84,-218.207 1194.37,-191.605 1222.66,-177.806"/>
<polygon fill="midnightblue" stroke="midnightblue" points="1104.24,-231.679 1096.78,-239.209 1107.3,-237.97 1104.24,-231.679"/>
</g>
<!-- Node164&#45;&gt;Node161 -->
<g id="edge16" class="edge"><title>Node164&#45;&gt;Node161</title>
<path fill="none" stroke="midnightblue" d="M596.514,-308.747C617.057,-303.455 640.8,-297.338 660.047,-292.379"/>
<polygon fill="midnightblue" stroke="midnightblue" points="595.531,-305.386 586.72,-311.27 597.277,-312.164 595.531,-305.386"/>
</g>
<!-- Node166 -->
<g id="node16" class="node"><title>Node166</title>
<g id="a_node16"><a xlink:href="fof_8h.html#a7f10d50a8e07ce0bb67ffdfaf904d7c8" target="_top" xlink:title="fof_fof">
<polygon fill="white" stroke="black" points="951,-83.359 951,-102.359 995,-102.359 995,-83.359 951,-83.359"/>
<text text-anchor="middle" x="973" y="-90.359" font-family="Helvetica,sans-Serif" font-size="10.00">fof_fof</text>
</a>
</g>
</g>
<!-- Node165&#45;&gt;Node166 -->
<g id="edge18" class="edge"><title>Node165&#45;&gt;Node166</title>
<path fill="none" stroke="midnightblue" d="M469.71,-92.859C589.703,-92.859 871.614,-92.859 950.914,-92.859"/>
<polygon fill="midnightblue" stroke="midnightblue" points="469.64,-89.3591 459.64,-92.859 469.64,-96.3591 469.64,-89.3591"/>
</g>
<!-- Node168 -->
<g id="node18" class="node"><title>Node168</title>
<g id="a_node18"><a xlink:href="fof_8c.html#aa0d13cc94e97083dfd468ed33331eed7" target="_top" xlink:title="fof_periodic_wrap">
<polygon fill="white" stroke="black" points="502,-45.359 502,-64.359 595,-64.359 595,-45.359 502,-45.359"/>
<text text-anchor="middle" x="548.5" y="-52.359" font-family="Helvetica,sans-Serif" font-size="10.00">fof_periodic_wrap</text>
</a>
</g>
</g>
<!-- Node165&#45;&gt;Node168 -->
<g id="edge22" class="edge"><title>Node165&#45;&gt;Node168</title>
<path fill="none" stroke="midnightblue" d="M458.204,-80.4684C476.349,-75.2645 497.129,-69.3049 514.075,-64.4449"/>
<polygon fill="midnightblue" stroke="midnightblue" points="457.083,-77.1487 448.435,-83.27 459.013,-83.8775 457.083,-77.1487"/>
</g>
<!-- Node166&#45;&gt;Node158 -->
<g id="edge19" class="edge"><title>Node166&#45;&gt;Node158</title>
<path fill="none" stroke="midnightblue" d="M1005.43,-88.9928C1048.67,-85.1099 1127.85,-83.2351 1187,-111.859 1208.84,-122.428 1226.42,-145.857 1235.1,-159.152"/>
<polygon fill="midnightblue" stroke="midnightblue" points="1004.85,-85.533 995.25,-90.0059 1005.55,-92.4987 1004.85,-85.533"/>
</g>
<!-- Node167 -->
<g id="node17" class="node"><title>Node167</title>
<g id="a_node17"><a xlink:href="proto_8h.html#a312b6a02f7cde171412989ea5f9be48f" target="_top" xlink:title="write_checkpoint">
<polygon fill="white" stroke="black" points="1031,-121.359 1031,-140.359 1121,-140.359 1121,-121.359 1031,-121.359"/>
<text text-anchor="middle" x="1076" y="-128.359" font-family="Helvetica,sans-Serif" font-size="10.00">write_checkpoint</text>
</a>
</g>
</g>
<!-- Node166&#45;&gt;Node167 -->
<g id="edge20" class="edge"><title>Node166&#45;&gt;Node167</title>
<path fill="none" stroke="midnightblue" d="M1004.89,-104.479C1019.24,-109.88 1036.1,-116.222 1049.68,-121.334"/>
<polygon fill="midnightblue" stroke="midnightblue" points="1006.01,-101.163 995.42,-100.918 1003.55,-107.715 1006.01,-101.163"/>
</g>
<!-- Node167&#45;&gt;Node157 -->
<g id="edge21" class="edge"><title>Node167&#45;&gt;Node157</title>
<path fill="none" stroke="midnightblue" d="M1131.25,-130.859C1140.78,-130.859 1149.9,-130.859 1156.99,-130.859"/>
<polygon fill="midnightblue" stroke="midnightblue" points="1131.25,-127.359 1121.25,-130.859 1131.25,-134.359 1131.25,-127.359"/>
</g>
<!-- Node169 -->
<g id="node19" class="node"><title>Node169</title>
<g id="a_node19"><a xlink:href="fof_8c.html#a36336d505e8a4fb8e8fdaf9a796e40d4" target="_top" xlink:title="fof_finish_group_properties">
<polygon fill="white" stroke="black" points="631,-45.359 631,-64.359 765,-64.359 765,-45.359 631,-45.359"/>
<text text-anchor="middle" x="698" y="-52.359" font-family="Helvetica,sans-Serif" font-size="10.00">fof_finish_group_properties</text>
</a>
</g>
</g>
<!-- Node168&#45;&gt;Node169 -->
<g id="edge23" class="edge"><title>Node168&#45;&gt;Node169</title>
<path fill="none" stroke="midnightblue" d="M605.613,-48.2835C613.866,-48.1173 622.431,-48.0698 630.863,-48.141"/>
<polygon fill="midnightblue" stroke="midnightblue" points="605.264,-44.7915 595.361,-48.5576 605.451,-51.789 605.264,-44.7915"/>
</g>
<!-- Node169&#45;&gt;Node168 -->
<g id="edge27" class="edge"><title>Node169&#45;&gt;Node168</title>
<path fill="none" stroke="midnightblue" d="M620.709,-61.6054C612.054,-61.5811 603.446,-61.4328 595.361,-61.1603"/>
<polygon fill="midnightblue" stroke="midnightblue" points="620.873,-65.1051 630.863,-61.5769 620.853,-58.1051 620.873,-65.1051"/>
</g>
<!-- Node170 -->
<g id="node20" class="node"><title>Node170</title>
<g id="a_node20"><a xlink:href="fof_8c.html#ae4b5e05b1f0225637629759a9e2ba72e" target="_top" xlink:title="fof_compile_catalogue">
<polygon fill="white" stroke="black" points="801,-45.359 801,-64.359 915,-64.359 915,-45.359 801,-45.359"/>
<text text-anchor="middle" x="858" y="-52.359" font-family="Helvetica,sans-Serif" font-size="10.00">fof_compile_catalogue</text>
</a>
</g>
</g>
<!-- Node169&#45;&gt;Node170 -->
<g id="edge24" class="edge"><title>Node169&#45;&gt;Node170</title>
<path fill="none" stroke="midnightblue" d="M775.15,-54.859C783.757,-54.859 792.409,-54.859 800.697,-54.859"/>
<polygon fill="midnightblue" stroke="midnightblue" points="775.091,-51.3591 765.091,-54.859 775.091,-58.3591 775.091,-51.3591"/>
</g>
<!-- Node170&#45;&gt;Node166 -->
<g id="edge25" class="edge"><title>Node170&#45;&gt;Node166</title>
<path fill="none" stroke="midnightblue" d="M897.163,-67.6927C915.142,-73.7386 935.899,-80.7189 950.986,-85.7922"/>
<polygon fill="midnightblue" stroke="midnightblue" points="898.109,-64.318 887.515,-64.448 895.877,-70.9529 898.109,-64.318"/>
</g>
<!-- Node170&#45;&gt;Node168 -->
<g id="edge26" class="edge"><title>Node170&#45;&gt;Node168</title>
<path fill="none" stroke="midnightblue" d="M809.596,-43.1474C795.352,-40.1501 779.623,-37.3531 765,-35.859 705.753,-29.8049 690.165,-29.0536 631,-35.859 614.834,-37.7184 597.214,-41.5875 582.506,-45.352"/>
<polygon fill="midnightblue" stroke="midnightblue" points="809.152,-46.6329 819.669,-45.3495 810.647,-39.7944 809.152,-46.6329"/>
</g>
<!-- Node171&#45;&gt;Node166 -->
<g id="edge29" class="edge"><title>Node171&#45;&gt;Node166</title>
<path fill="none" stroke="midnightblue" d="M453.428,-42.4047C540.232,-16.5478 756.255,34.9069 915,-35.859 937.752,-46.0016 956.422,-69.5968 965.686,-83.0336"/>
<polygon fill="midnightblue" stroke="midnightblue" points="452.289,-39.0927 443.737,-45.3464 454.322,-45.7909 452.289,-39.0927"/>
</g>
<!-- Node171&#45;&gt;Node168 -->
<g id="edge30" class="edge"><title>Node171&#45;&gt;Node168</title>
<path fill="none" stroke="midnightblue" d="M476.459,-54.859C484.92,-54.859 493.485,-54.859 501.599,-54.859"/>
<polygon fill="midnightblue" stroke="midnightblue" points="476.228,-51.3591 466.228,-54.859 476.228,-58.3591 476.228,-51.3591"/>
</g>
<!-- Node173 -->
<g id="node23" class="node"><title>Node173</title>
<g id="a_node23"><a xlink:href="runtests_8c.html#a549024555ca61e3f05a7100307e44f69" target="_top" xlink:title="runtests">
<polygon fill="white" stroke="black" points="522.5,-159.359 522.5,-178.359 574.5,-178.359 574.5,-159.359 522.5,-159.359"/>
<text text-anchor="middle" x="548.5" y="-166.359" font-family="Helvetica,sans-Serif" font-size="10.00">runtests</text>
</a>
</g>
</g>
<!-- Node172&#45;&gt;Node173 -->
<g id="edge32" class="edge"><title>Node172&#45;&gt;Node173</title>
<path fill="none" stroke="midnightblue" d="M466.033,-168.859C485.351,-168.859 506.494,-168.859 522.399,-168.859"/>
<polygon fill="midnightblue" stroke="midnightblue" points="465.836,-165.359 455.836,-168.859 465.835,-172.359 465.836,-165.359"/>
</g>
<!-- Node173&#45;&gt;Node158 -->
<g id="edge33" class="edge"><title>Node173&#45;&gt;Node158</title>
<path fill="none" stroke="midnightblue" d="M584.917,-168.859C642.132,-168.859 758.449,-168.859 857,-168.859 857,-168.859 857,-168.859 1077,-168.859 1129.96,-168.859 1192.54,-168.859 1222.8,-168.859"/>
<polygon fill="midnightblue" stroke="midnightblue" points="584.611,-165.359 574.611,-168.859 584.611,-172.359 584.611,-165.359"/>
</g>
<!-- Node175&#45;&gt;Node156 -->
<g id="edge36" class="edge"><title>Node175&#45;&gt;Node156</title>
<path fill="none" stroke="midnightblue" d="M466.499,-240.512C502.568,-237.201 551.84,-232.147 595,-225.859 613.092,-223.223 632.872,-219.691 650.158,-216.387"/>
<polygon fill="midnightblue" stroke="midnightblue" points="465.867,-237.055 456.222,-241.441 466.497,-244.026 465.867,-237.055"/>
</g>
<!-- Node175&#45;&gt;Node173 -->
<g id="edge37" class="edge"><title>Node175&#45;&gt;Node173</title>
<path fill="none" stroke="midnightblue" d="M436.32,-229.292C453.528,-217.125 478.636,-200.254 502,-187.859 508.352,-184.489 515.434,-181.285 522.084,-178.501"/>
<polygon fill="midnightblue" stroke="midnightblue" points="434.189,-226.513 428.092,-235.177 438.262,-232.206 434.189,-226.513"/>
</g>
<!-- Node176&#45;&gt;Node156 -->
<g id="edge39" class="edge"><title>Node176&#45;&gt;Node156</title>
<path fill="none" stroke="midnightblue" d="M592.829,-206.859C607.398,-206.859 623.887,-206.859 639.378,-206.859"/>
<polygon fill="midnightblue" stroke="midnightblue" points="592.602,-203.359 582.602,-206.859 592.602,-210.359 592.602,-203.359"/>
</g>
<!-- Node177&#45;&gt;Node156 -->
<g id="edge41" class="edge"><title>Node177&#45;&gt;Node156</title>
<path fill="none" stroke="midnightblue" d="M583.116,-144.386C587.151,-146.159 591.189,-148.006 595,-149.859 626.196,-165.028 661.227,-185.364 681.05,-197.197"/>
<polygon fill="midnightblue" stroke="midnightblue" points="584.385,-141.122 573.814,-140.411 581.635,-147.559 584.385,-141.122"/>
</g>
<!-- Node178&#45;&gt;Node153 -->
<g id="edge43" class="edge"><title>Node178&#45;&gt;Node153</title>
<path fill="none" stroke="midnightblue" d="M228.253,-139.866C236.931,-141.294 245.699,-142.736 253.771,-144.064"/>
<polygon fill="midnightblue" stroke="midnightblue" points="228.591,-136.375 218.155,-138.205 227.455,-143.282 228.591,-136.375"/>
</g>
</g>
</svg>
