<?xml version="1.0" encoding="UTF-8" standalone="no"?>
<!DOCTYPE svg PUBLIC "-//W3C//DTD SVG 1.1//EN"
 "http://www.w3.org/Graphics/SVG/1.1/DTD/svg11.dtd">
<!-- Generated by graphviz version 2.38.0 (20140413.2041)
 -->
<!-- Title: real_ev Pages: 1 -->
<svg width="1432pt" height="339pt"
 viewBox="0.00 0.00 1432.00 339.15" xmlns="http://www.w3.org/2000/svg" xmlns:xlink="http://www.w3.org/1999/xlink">
<g id="graph0" class="graph" transform="scale(1 1) rotate(0) translate(4 335.15)">
<title>real_ev</title>
<polygon fill="white" stroke="none" points="-4,4 -4,-335.15 1428,-335.15 1428,4 -4,4"/>
<!-- Node507 -->
<g id="node1" class="node"><title>Node507</title>
<polygon fill="#bfbfbf" stroke="black" points="0,-140.65 0,-159.65 48,-159.65 48,-140.65 0,-140.65"/>
<text text-anchor="middle" x="24" y="-147.65" font-family="Helvetica,sans-Serif" font-size="10.00">real_ev</text>
</g>
<!-- Node508 -->
<g id="node2" class="node"><title>Node508</title>
<g id="a_node2"><a xlink:href="treewalk_8c.html#a5341d99d76201774516d5e551dc1c559" target="_top" xlink:title="ev_primary">
<polygon fill="white" stroke="black" points="84,-140.65 84,-159.65 149,-159.65 149,-140.65 84,-140.65"/>
<text text-anchor="middle" x="116.5" y="-147.65" font-family="Helvetica,sans-Serif" font-size="10.00">ev_primary</text>
</a>
</g>
</g>
<!-- Node507&#45;&gt;Node508 -->
<g id="edge1" class="edge"><title>Node507&#45;&gt;Node508</title>
<path fill="none" stroke="midnightblue" d="M58.4033,-150.15C66.6881,-150.15 75.5428,-150.15 83.7462,-150.15"/>
<polygon fill="midnightblue" stroke="midnightblue" points="58.306,-146.65 48.306,-150.15 58.306,-153.65 58.306,-146.65"/>
</g>
<!-- Node509 -->
<g id="node3" class="node"><title>Node509</title>
<g id="a_node3"><a xlink:href="treewalk_8h.html#aa6772bdbc1552278ca7dae6a9adb031d" target="_top" xlink:title="treewalk_run">
<polygon fill="white" stroke="black" points="185,-140.65 185,-159.65 257,-159.65 257,-140.65 185,-140.65"/>
<text text-anchor="middle" x="221" y="-147.65" font-family="Helvetica,sans-Serif" font-size="10.00">treewalk_run</text>
</a>
</g>
</g>
<!-- Node508&#45;&gt;Node509 -->
<g id="edge2" class="edge"><title>Node508&#45;&gt;Node509</title>
<path fill="none" stroke="midnightblue" d="M159.194,-150.15C167.679,-150.15 176.527,-150.15 184.761,-150.15"/>
<polygon fill="midnightblue" stroke="midnightblue" points="159.09,-146.65 149.09,-150.15 159.09,-153.65 159.09,-146.65"/>
</g>
<!-- Node510 -->
<g id="node4" class="node"><title>Node510</title>
<g id="a_node4"><a xlink:href="density_8c.html#a69886540d0642590a0022fc14ce61f06" target="_top" xlink:title="density_internal">
<polygon fill="white" stroke="black" points="302.5,-273.65 302.5,-292.65 387.5,-292.65 387.5,-273.65 302.5,-273.65"/>
<text text-anchor="middle" x="345" y="-280.65" font-family="Helvetica,sans-Serif" font-size="10.00">density_internal</text>
</a>
</g>
</g>
<!-- Node509&#45;&gt;Node510 -->
<g id="edge3" class="edge"><title>Node509&#45;&gt;Node510</title>
<path fill="none" stroke="midnightblue" d="M229.337,-169.411C239.829,-194.537 261.406,-238.328 293,-264.15 297.682,-267.976 303.211,-271.077 308.87,-273.576"/>
<polygon fill="midnightblue" stroke="midnightblue" points="232.491,-167.872 225.523,-159.892 225.994,-170.476 232.491,-167.872"/>
</g>
<!-- Node521 -->
<g id="node15" class="node"><title>Node521</title>
<g id="a_node15"><a xlink:href="fof_8c.html#a77c15fc071e72ec1ea91652d28740ce1" target="_top" xlink:title="fof_label_primary">
<polygon fill="white" stroke="black" points="299.5,-83.6496 299.5,-102.65 390.5,-102.65 390.5,-83.6496 299.5,-83.6496"/>
<text text-anchor="middle" x="345" y="-90.6496" font-family="Helvetica,sans-Serif" font-size="10.00">fof_label_primary</text>
</a>
</g>
</g>
<!-- Node509&#45;&gt;Node521 -->
<g id="edge17" class="edge"><title>Node509&#45;&gt;Node521</title>
<path fill="none" stroke="midnightblue" d="M251.745,-136.253C274.004,-125.852 303.873,-111.898 323.513,-102.721"/>
<polygon fill="midnightblue" stroke="midnightblue" points="249.998,-133.205 242.42,-140.609 252.962,-139.547 249.998,-133.205"/>
</g>
<!-- Node527 -->
<g id="node21" class="node"><title>Node527</title>
<g id="a_node21"><a xlink:href="fof_8c.html#a9bbff144989b21ac4cbedc3aa2c6b1dc" target="_top" xlink:title="fof_label_secondary">
<polygon fill="white" stroke="black" points="293,-45.6496 293,-64.6496 397,-64.6496 397,-45.6496 293,-45.6496"/>
<text text-anchor="middle" x="345" y="-52.6496" font-family="Helvetica,sans-Serif" font-size="10.00">fof_label_secondary</text>
</a>
</g>
</g>
<!-- Node509&#45;&gt;Node527 -->
<g id="edge28" class="edge"><title>Node509&#45;&gt;Node527</title>
<path fill="none" stroke="midnightblue" d="M234.866,-132.151C247.84,-115.146 269.295,-89.953 293,-74.1496 298.582,-70.4284 304.99,-67.3098 311.338,-64.7458"/>
<polygon fill="midnightblue" stroke="midnightblue" points="231.714,-130.527 228.57,-140.644 237.337,-134.695 231.714,-130.527"/>
</g>
<!-- Node528 -->
<g id="node22" class="node"><title>Node528</title>
<g id="a_node22"><a xlink:href="runtests_8c.html#a60eab909e50b5e048e572b833dcc2846" target="_top" xlink:title="grav_short_pair">
<polygon fill="white" stroke="black" points="303.5,-159.65 303.5,-178.65 386.5,-178.65 386.5,-159.65 303.5,-159.65"/>
<text text-anchor="middle" x="345" y="-166.65" font-family="Helvetica,sans-Serif" font-size="10.00">grav_short_pair</text>
</a>
</g>
</g>
<!-- Node509&#45;&gt;Node528 -->
<g id="edge31" class="edge"><title>Node509&#45;&gt;Node528</title>
<path fill="none" stroke="midnightblue" d="M267.355,-157.213C279.11,-159.044 291.696,-161.004 303.201,-162.796"/>
<polygon fill="midnightblue" stroke="midnightblue" points="267.707,-153.726 257.287,-155.645 266.63,-160.642 267.707,-153.726"/>
</g>
<!-- Node530 -->
<g id="node24" class="node"><title>Node530</title>
<g id="a_node24"><a xlink:href="gravshort-tree-old_8c.html#af703f51f005d6f005c4cfd250fdd5eb9" target="_top" xlink:title="grav_short_tree_old">
<polygon fill="white" stroke="black" points="294,-7.64965 294,-26.6496 396,-26.6496 396,-7.64965 294,-7.64965"/>
<text text-anchor="middle" x="345" y="-14.6496" font-family="Helvetica,sans-Serif" font-size="10.00">grav_short_tree_old</text>
</a>
</g>
</g>
<!-- Node509&#45;&gt;Node530 -->
<g id="edge34" class="edge"><title>Node509&#45;&gt;Node530</title>
<path fill="none" stroke="midnightblue" d="M229.337,-130.888C239.829,-105.762 261.406,-61.9712 293,-36.1496 297.682,-32.3229 303.211,-29.222 308.87,-26.7232"/>
<polygon fill="midnightblue" stroke="midnightblue" points="225.994,-129.823 225.523,-140.407 232.491,-132.427 225.994,-129.823"/>
</g>
<!-- Node531 -->
<g id="node25" class="node"><title>Node531</title>
<g id="a_node25"><a xlink:href="proto_8h.html#a3890f7b7605d1abaf3cd23eeca5bcdd5" target="_top" xlink:title="grav_short_tree">
<polygon fill="white" stroke="black" points="303,-235.65 303,-254.65 387,-254.65 387,-235.65 303,-235.65"/>
<text text-anchor="middle" x="345" y="-242.65" font-family="Helvetica,sans-Serif" font-size="10.00">grav_short_tree</text>
</a>
</g>
</g>
<!-- Node509&#45;&gt;Node531 -->
<g id="edge35" class="edge"><title>Node509&#45;&gt;Node531</title>
<path fill="none" stroke="midnightblue" d="M236.487,-167.763C249.925,-183.283 271.099,-205.757 293,-221.15 301.006,-226.776 310.539,-231.669 319.185,-235.543"/>
<polygon fill="midnightblue" stroke="midnightblue" points="238.997,-165.311 229.861,-159.945 233.656,-169.836 238.997,-165.311"/>
</g>
<!-- Node532 -->
<g id="node26" class="node"><title>Node532</title>
<g id="a_node26"><a xlink:href="hydra_8h.html#a6789381bce7d1c316df8ecf04b47a607" target="_top" xlink:title="hydro_force">
<polygon fill="white" stroke="black" points="445.5,-197.65 445.5,-216.65 513.5,-216.65 513.5,-197.65 445.5,-197.65"/>
<text text-anchor="middle" x="479.5" y="-204.65" font-family="Helvetica,sans-Serif" font-size="10.00">hydro_force</text>
</a>
</g>
</g>
<!-- Node509&#45;&gt;Node532 -->
<g id="edge38" class="edge"><title>Node509&#45;&gt;Node532</title>
<path fill="none" stroke="midnightblue" d="M244.547,-165.153C258.033,-173.361 275.837,-182.902 293,-188.15 344.546,-203.911 407.51,-207.207 445.235,-207.586"/>
<polygon fill="midnightblue" stroke="midnightblue" points="246.289,-162.114 235.961,-159.753 242.562,-168.04 246.289,-162.114"/>
</g>
<!-- Node533 -->
<g id="node27" class="node"><title>Node533</title>
<g id="a_node27"><a xlink:href="sfr__eff_8h.html#aaa7b178a168a5d23b2cfe478ebc58ee1" target="_top" xlink:title="cooling_only">
<polygon fill="white" stroke="black" points="444,-121.65 444,-140.65 515,-140.65 515,-121.65 444,-121.65"/>
<text text-anchor="middle" x="479.5" y="-128.65" font-family="Helvetica,sans-Serif" font-size="10.00">cooling_only</text>
</a>
</g>
</g>
<!-- Node509&#45;&gt;Node533 -->
<g id="edge40" class="edge"><title>Node509&#45;&gt;Node533</title>
<path fill="none" stroke="midnightblue" d="M267.413,-146.786C317.846,-143.05 398.153,-137.101 443.797,-133.72"/>
<polygon fill="midnightblue" stroke="midnightblue" points="266.842,-143.318 257.127,-147.548 267.359,-150.299 266.842,-143.318"/>
</g>
<!-- Node511 -->
<g id="node5" class="node"><title>Node511</title>
<g id="a_node5"><a xlink:href="proto_8h.html#a8ce8ad3893801ac7d380efd9b7ef26d3" target="_top" xlink:title="density">
<polygon fill="white" stroke="black" points="455.5,-273.65 455.5,-292.65 503.5,-292.65 503.5,-273.65 455.5,-273.65"/>
<text text-anchor="middle" x="479.5" y="-280.65" font-family="Helvetica,sans-Serif" font-size="10.00">density</text>
</a>
</g>
</g>
<!-- Node510&#45;&gt;Node511 -->
<g id="edge4" class="edge"><title>Node510&#45;&gt;Node511</title>
<path fill="none" stroke="midnightblue" d="M397.744,-283.15C417.615,-283.15 439.318,-283.15 455.215,-283.15"/>
<polygon fill="midnightblue" stroke="midnightblue" points="397.56,-279.65 387.56,-283.15 397.56,-286.65 397.56,-279.65"/>
</g>
<!-- Node520 -->
<g id="node14" class="node"><title>Node520</title>
<g id="a_node14"><a xlink:href="proto_8h.html#a137ca78a0bd40fa7a75438e90e4f66a8" target="_top" xlink:title="density_update">
<polygon fill="white" stroke="black" points="438,-311.65 438,-330.65 521,-330.65 521,-311.65 438,-311.65"/>
<text text-anchor="middle" x="479.5" y="-318.65" font-family="Helvetica,sans-Serif" font-size="10.00">density_update</text>
</a>
</g>
</g>
<!-- Node510&#45;&gt;Node520 -->
<g id="edge15" class="edge"><title>Node510&#45;&gt;Node520</title>
<path fill="none" stroke="midnightblue" d="M389.204,-295.54C407.349,-300.744 428.129,-306.704 445.075,-311.564"/>
<polygon fill="midnightblue" stroke="midnightblue" points="390.013,-292.131 379.435,-292.739 388.083,-298.86 390.013,-292.131"/>
</g>
<!-- Node512 -->
<g id="node6" class="node"><title>Node512</title>
<g id="a_node6"><a xlink:href="run_8c.html#abb80d08f4d52f4a7bdf28d1cecfead5b" target="_top" xlink:title="compute_accelerations">
<polygon fill="white" stroke="black" points="570.5,-197.65 570.5,-216.65 687.5,-216.65 687.5,-197.65 570.5,-197.65"/>
<text text-anchor="middle" x="629" y="-204.65" font-family="Helvetica,sans-Serif" font-size="10.00">compute_accelerations</text>
</a>
</g>
</g>
<!-- Node511&#45;&gt;Node512 -->
<g id="edge5" class="edge"><title>Node511&#45;&gt;Node512</title>
<path fill="none" stroke="midnightblue" d="M508.169,-268.893C537.787,-253.632 583.951,-229.846 609.471,-216.697"/>
<polygon fill="midnightblue" stroke="midnightblue" points="506.467,-265.833 499.181,-273.524 509.673,-272.055 506.467,-265.833"/>
</g>
<!-- Node517 -->
<g id="node11" class="node"><title>Node517</title>
<g id="a_node11"><a xlink:href="init_8c.html#a643ef34b585446f8ccbbf3239df2db71" target="_top" xlink:title="setup_smoothinglengths">
<polygon fill="white" stroke="black" points="568,-273.65 568,-292.65 690,-292.65 690,-273.65 568,-273.65"/>
<text text-anchor="middle" x="629" y="-280.65" font-family="Helvetica,sans-Serif" font-size="10.00">setup_smoothinglengths</text>
</a>
</g>
</g>
<!-- Node511&#45;&gt;Node517 -->
<g id="edge11" class="edge"><title>Node511&#45;&gt;Node517</title>
<path fill="none" stroke="midnightblue" d="M513.953,-283.15C529.907,-283.15 549.491,-283.15 567.9,-283.15"/>
<polygon fill="midnightblue" stroke="midnightblue" points="513.547,-279.65 503.547,-283.15 513.547,-286.65 513.547,-279.65"/>
</g>
<!-- Node513 -->
<g id="node7" class="node"><title>Node513</title>
<g id="a_node7"><a xlink:href="run_8c.html#a05e0ffe612d44e6d7f3a9ae5b9df56a2" target="_top" xlink:title="run">
<polygon fill="white" stroke="black" points="1088,-121.65 1088,-140.65 1118,-140.65 1118,-121.65 1088,-121.65"/>
<text text-anchor="middle" x="1103" y="-128.65" font-family="Helvetica,sans-Serif" font-size="10.00">run</text>
</a>
</g>
</g>
<!-- Node512&#45;&gt;Node513 -->
<g id="edge6" class="edge"><title>Node512&#45;&gt;Node513</title>
<path fill="none" stroke="midnightblue" d="M697.759,-203.297C781.996,-197.304 929.61,-182.838 1052,-150.15 1064.38,-146.843 1077.94,-141.58 1087.82,-137.431"/>
<polygon fill="midnightblue" stroke="midnightblue" points="697.29,-199.821 687.556,-204.003 697.774,-206.804 697.29,-199.821"/>
</g>
<!-- Node514 -->
<g id="node8" class="node"><title>Node514</title>
<g id="a_node8"><a xlink:href="main_8c.html#a3c04138a5bfe5d72780bb7e82a18e627" target="_top" xlink:title="main">
<polygon fill="white" stroke="black" points="1154,-159.65 1154,-178.65 1192,-178.65 1192,-159.65 1154,-159.65"/>
<text text-anchor="middle" x="1173" y="-166.65" font-family="Helvetica,sans-Serif" font-size="10.00">main</text>
</a>
</g>
</g>
<!-- Node513&#45;&gt;Node514 -->
<g id="edge7" class="edge"><title>Node513&#45;&gt;Node514</title>
<path fill="none" stroke="midnightblue" d="M1126.94,-143.97C1135.96,-149.01 1146.14,-154.7 1154.54,-159.395"/>
<polygon fill="midnightblue" stroke="midnightblue" points="1128.53,-140.846 1118.09,-139.023 1125.11,-146.957 1128.53,-140.846"/>
</g>
<!-- Node515 -->
<g id="node9" class="node"><title>Node515</title>
<g id="a_node9"><a xlink:href="walltime_8h.html#a76d2135b612766d4d665748454b879d6" target="_top" xlink:title="walltime_report">
<polygon fill="white" stroke="black" points="1228,-159.65 1228,-178.65 1311,-178.65 1311,-159.65 1228,-159.65"/>
<text text-anchor="middle" x="1269.5" y="-166.65" font-family="Helvetica,sans-Serif" font-size="10.00">walltime_report</text>
</a>
</g>
</g>
<!-- Node514&#45;&gt;Node515 -->
<g id="edge8" class="edge"><title>Node514&#45;&gt;Node515</title>
<path fill="none" stroke="midnightblue" d="M1202.41,-169.15C1210.35,-169.15 1219.13,-169.15 1227.63,-169.15"/>
<polygon fill="midnightblue" stroke="midnightblue" points="1202.22,-165.65 1192.22,-169.15 1202.22,-172.65 1202.22,-165.65"/>
</g>
<!-- Node516 -->
<g id="node10" class="node"><title>Node516</title>
<g id="a_node10"><a xlink:href="run_8c.html#adc59e9ee1517e4e690694a64ab6a59d2" target="_top" xlink:title="write_cpu_log">
<polygon fill="white" stroke="black" points="1347,-140.65 1347,-159.65 1424,-159.65 1424,-140.65 1347,-140.65"/>
<text text-anchor="middle" x="1385.5" y="-147.65" font-family="Helvetica,sans-Serif" font-size="10.00">write_cpu_log</text>
</a>
</g>
</g>
<!-- Node515&#45;&gt;Node516 -->
<g id="edge9" class="edge"><title>Node515&#45;&gt;Node516</title>
<path fill="none" stroke="midnightblue" d="M1321.03,-160.728C1329.68,-159.286 1338.54,-157.81 1346.78,-156.436"/>
<polygon fill="midnightblue" stroke="midnightblue" points="1320.3,-157.301 1311.01,-162.397 1321.45,-164.206 1320.3,-157.301"/>
</g>
<!-- Node516&#45;&gt;Node513 -->
<g id="edge10" class="edge"><title>Node516&#45;&gt;Node513</title>
<path fill="none" stroke="midnightblue" d="M1336.73,-146.914C1271.49,-142.495 1158.09,-134.813 1118.3,-132.118"/>
<polygon fill="midnightblue" stroke="midnightblue" points="1336.55,-150.41 1346.76,-147.594 1337.02,-143.426 1336.55,-150.41"/>
</g>
<!-- Node518 -->
<g id="node12" class="node"><title>Node518</title>
<g id="a_node12"><a xlink:href="proto_8h.html#ab080cb20bac2a1a6153a84e8cfd15374" target="_top" xlink:title="init">
<polygon fill="white" stroke="black" points="889.5,-244.65 889.5,-263.65 918.5,-263.65 918.5,-244.65 889.5,-244.65"/>
<text text-anchor="middle" x="904" y="-251.65" font-family="Helvetica,sans-Serif" font-size="10.00">init</text>
</a>
</g>
</g>
<!-- Node517&#45;&gt;Node518 -->
<g id="edge12" class="edge"><title>Node517&#45;&gt;Node518</title>
<path fill="none" stroke="midnightblue" d="M700.377,-275.674C764.957,-268.814 855.573,-259.188 889.487,-255.585"/>
<polygon fill="midnightblue" stroke="midnightblue" points="699.823,-272.213 690.249,-276.75 700.563,-279.174 699.823,-272.213"/>
</g>
<!-- Node519 -->
<g id="node13" class="node"><title>Node519</title>
<g id="a_node13"><a xlink:href="proto_8h.html#a74dc0e5e9eefe11fc8434b62de573146" target="_top" xlink:title="begrun">
<polygon fill="white" stroke="black" points="984,-239.65 984,-258.65 1030,-258.65 1030,-239.65 984,-239.65"/>
<text text-anchor="middle" x="1007" y="-246.65" font-family="Helvetica,sans-Serif" font-size="10.00">begrun</text>
</a>
</g>
</g>
<!-- Node518&#45;&gt;Node519 -->
<g id="edge13" class="edge"><title>Node518&#45;&gt;Node519</title>
<path fill="none" stroke="midnightblue" d="M928.646,-252.979C945.281,-252.156 967.4,-251.061 983.724,-250.252"/>
<polygon fill="midnightblue" stroke="midnightblue" points="928.436,-249.485 918.621,-253.475 928.782,-256.477 928.436,-249.485"/>
</g>
<!-- Node519&#45;&gt;Node514 -->
<g id="edge14" class="edge"><title>Node519&#45;&gt;Node514</title>
<path fill="none" stroke="midnightblue" d="M1037.11,-234.947C1070.84,-218.498 1125.37,-191.896 1153.66,-178.096"/>
<polygon fill="midnightblue" stroke="midnightblue" points="1035.24,-231.97 1027.78,-239.5 1038.3,-238.261 1035.24,-231.97"/>
</g>
<!-- Node520&#45;&gt;Node517 -->
<g id="edge16" class="edge"><title>Node520&#45;&gt;Node517</title>
<path fill="none" stroke="midnightblue" d="M527.514,-309.038C548.057,-303.745 571.8,-297.628 591.047,-292.67"/>
<polygon fill="midnightblue" stroke="midnightblue" points="526.531,-305.676 517.72,-311.561 528.277,-312.455 526.531,-305.676"/>
</g>
<!-- Node522 -->
<g id="node16" class="node"><title>Node522</title>
<g id="a_node16"><a xlink:href="fof_8h.html#a7f10d50a8e07ce0bb67ffdfaf904d7c8" target="_top" xlink:title="fof_fof">
<polygon fill="white" stroke="black" points="882,-83.6496 882,-102.65 926,-102.65 926,-83.6496 882,-83.6496"/>
<text text-anchor="middle" x="904" y="-90.6496" font-family="Helvetica,sans-Serif" font-size="10.00">fof_fof</text>
</a>
</g>
</g>
<!-- Node521&#45;&gt;Node522 -->
<g id="edge18" class="edge"><title>Node521&#45;&gt;Node522</title>
<path fill="none" stroke="midnightblue" d="M400.71,-93.1496C520.703,-93.1496 802.614,-93.1496 881.914,-93.1496"/>
<polygon fill="midnightblue" stroke="midnightblue" points="400.64,-89.6497 390.64,-93.1496 400.64,-96.6497 400.64,-89.6497"/>
</g>
<!-- Node524 -->
<g id="node18" class="node"><title>Node524</title>
<g id="a_node18"><a xlink:href="fof_8c.html#aa0d13cc94e97083dfd468ed33331eed7" target="_top" xlink:title="fof_periodic_wrap">
<polygon fill="white" stroke="black" points="433,-45.6496 433,-64.6496 526,-64.6496 526,-45.6496 433,-45.6496"/>
<text text-anchor="middle" x="479.5" y="-52.6496" font-family="Helvetica,sans-Serif" font-size="10.00">fof_periodic_wrap</text>
</a>
</g>
</g>
<!-- Node521&#45;&gt;Node524 -->
<g id="edge22" class="edge"><title>Node521&#45;&gt;Node524</title>
<path fill="none" stroke="midnightblue" d="M389.204,-80.7591C407.349,-75.5552 428.129,-69.5956 445.075,-64.7356"/>
<polygon fill="midnightblue" stroke="midnightblue" points="388.083,-77.4394 379.435,-83.5606 390.013,-84.1682 388.083,-77.4394"/>
</g>
<!-- Node522&#45;&gt;Node514 -->
<g id="edge19" class="edge"><title>Node522&#45;&gt;Node514</title>
<path fill="none" stroke="midnightblue" d="M936.434,-89.2835C979.669,-85.4005 1058.85,-83.5258 1118,-112.15 1139.84,-122.719 1157.42,-146.147 1166.1,-159.443"/>
<polygon fill="midnightblue" stroke="midnightblue" points="935.855,-85.8237 926.25,-90.2966 936.548,-92.7894 935.855,-85.8237"/>
</g>
<!-- Node523 -->
<g id="node17" class="node"><title>Node523</title>
<g id="a_node17"><a xlink:href="proto_8h.html#a312b6a02f7cde171412989ea5f9be48f" target="_top" xlink:title="write_checkpoint">
<polygon fill="white" stroke="black" points="962,-121.65 962,-140.65 1052,-140.65 1052,-121.65 962,-121.65"/>
<text text-anchor="middle" x="1007" y="-128.65" font-family="Helvetica,sans-Serif" font-size="10.00">write_checkpoint</text>
</a>
</g>
</g>
<!-- Node522&#45;&gt;Node523 -->
<g id="edge20" class="edge"><title>Node522&#45;&gt;Node523</title>
<path fill="none" stroke="midnightblue" d="M935.886,-104.77C950.24,-110.171 967.097,-116.513 980.685,-121.625"/>
<polygon fill="midnightblue" stroke="midnightblue" points="937.011,-101.454 926.42,-101.208 934.546,-108.006 937.011,-101.454"/>
</g>
<!-- Node523&#45;&gt;Node513 -->
<g id="edge21" class="edge"><title>Node523&#45;&gt;Node513</title>
<path fill="none" stroke="midnightblue" d="M1062.25,-131.15C1071.78,-131.15 1080.9,-131.15 1087.99,-131.15"/>
<polygon fill="midnightblue" stroke="midnightblue" points="1062.25,-127.65 1052.25,-131.15 1062.25,-134.65 1062.25,-127.65"/>
</g>
<!-- Node525 -->
<g id="node19" class="node"><title>Node525</title>
<g id="a_node19"><a xlink:href="fof_8c.html#a36336d505e8a4fb8e8fdaf9a796e40d4" target="_top" xlink:title="fof_finish_group_properties">
<polygon fill="white" stroke="black" points="562,-45.6496 562,-64.6496 696,-64.6496 696,-45.6496 562,-45.6496"/>
<text text-anchor="middle" x="629" y="-52.6496" font-family="Helvetica,sans-Serif" font-size="10.00">fof_finish_group_properties</text>
</a>
</g>
</g>
<!-- Node524&#45;&gt;Node525 -->
<g id="edge23" class="edge"><title>Node524&#45;&gt;Node525</title>
<path fill="none" stroke="midnightblue" d="M536.613,-48.5742C544.866,-48.408 553.431,-48.3605 561.863,-48.4317"/>
<polygon fill="midnightblue" stroke="midnightblue" points="536.264,-45.0822 526.361,-48.8483 536.451,-52.0797 536.264,-45.0822"/>
</g>
<!-- Node525&#45;&gt;Node524 -->
<g id="edge27" class="edge"><title>Node525&#45;&gt;Node524</title>
<path fill="none" stroke="midnightblue" d="M551.709,-61.8961C543.054,-61.8718 534.446,-61.7234 526.361,-61.451"/>
<polygon fill="midnightblue" stroke="midnightblue" points="551.873,-65.3957 561.863,-61.8676 551.853,-58.3958 551.873,-65.3957"/>
</g>
<!-- Node526 -->
<g id="node20" class="node"><title>Node526</title>
<g id="a_node20"><a xlink:href="fof_8c.html#ae4b5e05b1f0225637629759a9e2ba72e" target="_top" xlink:title="fof_compile_catalogue">
<polygon fill="white" stroke="black" points="732,-45.6496 732,-64.6496 846,-64.6496 846,-45.6496 732,-45.6496"/>
<text text-anchor="middle" x="789" y="-52.6496" font-family="Helvetica,sans-Serif" font-size="10.00">fof_compile_catalogue</text>
</a>
</g>
</g>
<!-- Node525&#45;&gt;Node526 -->
<g id="edge24" class="edge"><title>Node525&#45;&gt;Node526</title>
<path fill="none" stroke="midnightblue" d="M706.15,-55.1496C714.757,-55.1496 723.409,-55.1496 731.697,-55.1496"/>
<polygon fill="midnightblue" stroke="midnightblue" points="706.091,-51.6497 696.091,-55.1496 706.091,-58.6497 706.091,-51.6497"/>
</g>
<!-- Node526&#45;&gt;Node522 -->
<g id="edge25" class="edge"><title>Node526&#45;&gt;Node522</title>
<path fill="none" stroke="midnightblue" d="M828.163,-67.9834C846.142,-74.0293 866.899,-81.0096 881.986,-86.0829"/>
<polygon fill="midnightblue" stroke="midnightblue" points="829.109,-64.6087 818.515,-64.7387 826.877,-71.2436 829.109,-64.6087"/>
</g>
<!-- Node526&#45;&gt;Node524 -->
<g id="edge26" class="edge"><title>Node526&#45;&gt;Node524</title>
<path fill="none" stroke="midnightblue" d="M740.596,-43.4381C726.352,-40.4408 710.623,-37.6438 696,-36.1496 636.753,-30.0956 621.165,-29.3443 562,-36.1496 545.834,-38.0091 528.214,-41.8782 513.506,-45.6427"/>
<polygon fill="midnightblue" stroke="midnightblue" points="740.152,-46.9236 750.669,-45.6402 741.647,-40.0851 740.152,-46.9236"/>
</g>
<!-- Node527&#45;&gt;Node522 -->
<g id="edge29" class="edge"><title>Node527&#45;&gt;Node522</title>
<path fill="none" stroke="midnightblue" d="M384.462,-42.6199C471.335,-16.6083 687.491,35.1433 846,-36.1496 868.719,-46.3678 887.401,-69.9335 896.677,-83.3453"/>
<polygon fill="midnightblue" stroke="midnightblue" points="383.306,-39.3133 374.763,-45.5793 385.349,-46.0086 383.306,-39.3133"/>
</g>
<!-- Node527&#45;&gt;Node524 -->
<g id="edge30" class="edge"><title>Node527&#45;&gt;Node524</title>
<path fill="none" stroke="midnightblue" d="M407.459,-55.1496C415.92,-55.1496 424.485,-55.1496 432.599,-55.1496"/>
<polygon fill="midnightblue" stroke="midnightblue" points="407.228,-51.6497 397.228,-55.1496 407.228,-58.6497 407.228,-51.6497"/>
</g>
<!-- Node529 -->
<g id="node23" class="node"><title>Node529</title>
<g id="a_node23"><a xlink:href="runtests_8c.html#a549024555ca61e3f05a7100307e44f69" target="_top" xlink:title="runtests">
<polygon fill="white" stroke="black" points="453.5,-159.65 453.5,-178.65 505.5,-178.65 505.5,-159.65 453.5,-159.65"/>
<text text-anchor="middle" x="479.5" y="-166.65" font-family="Helvetica,sans-Serif" font-size="10.00">runtests</text>
</a>
</g>
</g>
<!-- Node528&#45;&gt;Node529 -->
<g id="edge32" class="edge"><title>Node528&#45;&gt;Node529</title>
<path fill="none" stroke="midnightblue" d="M397.033,-169.15C416.351,-169.15 437.494,-169.15 453.399,-169.15"/>
<polygon fill="midnightblue" stroke="midnightblue" points="396.836,-165.65 386.836,-169.15 396.835,-172.65 396.836,-165.65"/>
</g>
<!-- Node529&#45;&gt;Node514 -->
<g id="edge33" class="edge"><title>Node529&#45;&gt;Node514</title>
<path fill="none" stroke="midnightblue" d="M515.917,-169.15C573.132,-169.15 689.449,-169.15 788,-169.15 788,-169.15 788,-169.15 1008,-169.15 1060.96,-169.15 1123.54,-169.15 1153.8,-169.15"/>
<polygon fill="midnightblue" stroke="midnightblue" points="515.611,-165.65 505.611,-169.15 515.611,-172.65 515.611,-165.65"/>
</g>
<!-- Node531&#45;&gt;Node512 -->
<g id="edge36" class="edge"><title>Node531&#45;&gt;Node512</title>
<path fill="none" stroke="midnightblue" d="M397.499,-240.803C433.568,-237.492 482.84,-232.437 526,-226.15 544.092,-223.514 563.872,-219.981 581.158,-216.678"/>
<polygon fill="midnightblue" stroke="midnightblue" points="396.867,-237.345 387.222,-241.732 397.497,-244.317 396.867,-237.345"/>
</g>
<!-- Node531&#45;&gt;Node529 -->
<g id="edge37" class="edge"><title>Node531&#45;&gt;Node529</title>
<path fill="none" stroke="midnightblue" d="M367.32,-229.583C384.528,-217.416 409.636,-200.545 433,-188.15 439.352,-184.78 446.434,-181.575 453.084,-178.791"/>
<polygon fill="midnightblue" stroke="midnightblue" points="365.189,-226.803 359.092,-235.468 369.262,-232.497 365.189,-226.803"/>
</g>
<!-- Node532&#45;&gt;Node512 -->
<g id="edge39" class="edge"><title>Node532&#45;&gt;Node512</title>
<path fill="none" stroke="midnightblue" d="M523.829,-207.15C538.398,-207.15 554.887,-207.15 570.378,-207.15"/>
<polygon fill="midnightblue" stroke="midnightblue" points="523.602,-203.65 513.602,-207.15 523.602,-210.65 523.602,-203.65"/>
</g>
<!-- Node533&#45;&gt;Node512 -->
<g id="edge41" class="edge"><title>Node533&#45;&gt;Node512</title>
<path fill="none" stroke="midnightblue" d="M514.116,-144.676C518.151,-146.45 522.189,-148.297 526,-150.15 557.196,-165.319 592.227,-185.655 612.05,-197.488"/>
<polygon fill="midnightblue" stroke="midnightblue" points="515.385,-141.413 504.814,-140.702 512.635,-147.85 515.385,-141.413"/>
</g>
</g>
</svg>
