<?xml version="1.0" encoding="UTF-8" standalone="no"?>
<!DOCTYPE svg PUBLIC "-//W3C//DTD SVG 1.1//EN"
 "http://www.w3.org/Graphics/SVG/1.1/DTD/svg11.dtd">
<!-- Generated by graphviz version 2.50.0 (0)
 -->
<!-- Title: get_unitsystem Pages: 1 -->
<svg width="613pt" height="294pt"
 viewBox="0.00 0.00 613.00 294.00" xmlns="http://www.w3.org/2000/svg" xmlns:xlink="http://www.w3.org/1999/xlink">
<g id="graph0" class="graph" transform="scale(1 1) rotate(0) translate(4 290)">
<title>get_unitsystem</title>
<polygon fill="white" stroke="transparent" points="-4,4 -4,-290 609,-290 609,4 -4,4"/>
<!-- Node1 -->
<g id="node1" class="node">
<title>Node1</title>
<g id="a_node1"><a xlink:title=" ">
<polygon fill="#bfbfbf" stroke="black" points="513,-114.5 513,-133.5 605,-133.5 605,-114.5 513,-114.5"/>
<text text-anchor="middle" x="559" y="-121.5" font-family="Helvetica,sans-Serif" font-size="10.00">get_unitsystem</text>
</a>
</g>
</g>
<!-- Node2 -->
<g id="node2" class="node">
<title>Node2</title>
<g id="a_node2"><a xlink:href="run_8c.html#aee4609880c9e92e1c421c4bd238589fd" target="_top" xlink:title=" ">
<polygon fill="white" stroke="black" points="401,-152.5 401,-171.5 451,-171.5 451,-152.5 401,-152.5"/>
<text text-anchor="middle" x="426" y="-159.5" font-family="Helvetica,sans-Serif" font-size="10.00">begrun</text>
</a>
</g>
</g>
<!-- Node1&#45;&gt;Node2 -->
<g id="edge1" class="edge">
<title>Node1&#45;&gt;Node2</title>
<path fill="none" stroke="midnightblue" d="M515.2,-136.42C494.03,-142.56 469.26,-149.74 451.36,-154.93"/>
<polygon fill="midnightblue" stroke="midnightblue" points="516.31,-139.74 524.94,-133.59 514.36,-133.01 516.31,-139.74"/>
</g>
<!-- Node4 -->
<g id="node4" class="node">
<title>Node4</title>
<g id="a_node4"><a xlink:href="test__density_8c.html#a1f2c8c2a35e14ec19a93d42363f0fe55" target="_top" xlink:title=" ">
<polygon fill="white" stroke="black" points="379,-228.5 379,-247.5 473,-247.5 473,-228.5 379,-228.5"/>
<text text-anchor="middle" x="426" y="-235.5" font-family="Helvetica,sans-Serif" font-size="10.00">do_density_test</text>
</a>
</g>
</g>
<!-- Node1&#45;&gt;Node4 -->
<g id="edge3" class="edge">
<title>Node1&#45;&gt;Node4</title>
<path fill="none" stroke="midnightblue" d="M546.48,-142.43C532.42,-163.57 506.8,-197.99 477,-219 471.69,-222.74 465.54,-225.86 459.41,-228.42"/>
<polygon fill="midnightblue" stroke="midnightblue" points="549.6,-144.05 552.1,-133.75 543.72,-140.25 549.6,-144.05"/>
</g>
<!-- Node9 -->
<g id="node9" class="node">
<title>Node9</title>
<g id="a_node9"><a xlink:href="test__gravity_8c.html#aa6bdcef3f6cb327efb3f2f993f64b7ce" target="_top" xlink:title=" ">
<polygon fill="white" stroke="black" points="384.5,-76.5 384.5,-95.5 467.5,-95.5 467.5,-76.5 384.5,-76.5"/>
<text text-anchor="middle" x="426" y="-83.5" font-family="Helvetica,sans-Serif" font-size="10.00">do_force_test</text>
</a>
</g>
</g>
<!-- Node1&#45;&gt;Node9 -->
<g id="edge8" class="edge">
<title>Node1&#45;&gt;Node9</title>
<path fill="none" stroke="midnightblue" d="M515.29,-111.61C497.35,-106.41 476.8,-100.45 460.05,-95.59"/>
<polygon fill="midnightblue" stroke="midnightblue" points="514.36,-114.99 524.94,-114.41 516.31,-108.26 514.36,-114.99"/>
</g>
<!-- Node15 -->
<g id="node15" class="node">
<title>Node15</title>
<g id="a_node15"><a xlink:href="genic_2main_8c.html#a3c04138a5bfe5d72780bb7e82a18e627" target="_top" xlink:title=" ">
<polygon fill="white" stroke="black" points="405.5,-114.5 405.5,-133.5 446.5,-133.5 446.5,-114.5 405.5,-114.5"/>
<text text-anchor="middle" x="426" y="-121.5" font-family="Helvetica,sans-Serif" font-size="10.00">main</text>
</a>
</g>
</g>
<!-- Node1&#45;&gt;Node15 -->
<g id="edge16" class="edge">
<title>Node1&#45;&gt;Node15</title>
<path fill="none" stroke="midnightblue" d="M502.91,-124C482.86,-124 461.48,-124 446.53,-124"/>
<polygon fill="midnightblue" stroke="midnightblue" points="502.92,-127.5 512.92,-124 502.92,-120.5 502.92,-127.5"/>
</g>
<!-- Node16 -->
<g id="node16" class="node">
<title>Node16</title>
<g id="a_node16"><a xlink:href="run_8c.html#a89690448ef43a8d624b963382b7503ed" target="_top" xlink:title=" ">
<polygon fill="white" stroke="black" points="410,-190.5 410,-209.5 442,-209.5 442,-190.5 410,-190.5"/>
<text text-anchor="middle" x="426" y="-197.5" font-family="Helvetica,sans-Serif" font-size="10.00">run</text>
</a>
</g>
</g>
<!-- Node1&#45;&gt;Node16 -->
<g id="edge17" class="edge">
<title>Node1&#45;&gt;Node16</title>
<path fill="none" stroke="midnightblue" d="M538.26,-140.01C522.39,-152.35 499.17,-169.23 477,-181 465.85,-186.92 452.43,-191.92 442.31,-195.29"/>
<polygon fill="midnightblue" stroke="midnightblue" points="540.59,-142.64 546.26,-133.69 536.25,-137.14 540.59,-142.64"/>
</g>
<!-- Node17 -->
<g id="node17" class="node">
<title>Node17</title>
<g id="a_node17"><a xlink:href="test__power_8c.html#ab3743688c369a6a63ebea4512080e9fe" target="_top" xlink:title=" ">
<polygon fill="white" stroke="black" points="404,-38.5 404,-57.5 448,-57.5 448,-38.5 404,-38.5"/>
<text text-anchor="middle" x="426" y="-45.5" font-family="Helvetica,sans-Serif" font-size="10.00">setup</text>
</a>
</g>
</g>
<!-- Node1&#45;&gt;Node17 -->
<g id="edge19" class="edge">
<title>Node1&#45;&gt;Node17</title>
<path fill="none" stroke="midnightblue" d="M538.26,-107.99C522.39,-95.65 499.17,-78.77 477,-67 467.98,-62.21 457.48,-58.03 448.44,-54.82"/>
<polygon fill="midnightblue" stroke="midnightblue" points="536.25,-110.86 546.26,-114.31 540.59,-105.36 536.25,-110.86"/>
</g>
<!-- Node18 -->
<g id="node18" class="node">
<title>Node18</title>
<g id="a_node18"><a xlink:href="test__cosmology_8c.html#af56daaa3f74187231513f913d0a3b770" target="_top" xlink:title=" ">
<polygon fill="white" stroke="black" points="375,-0.5 375,-19.5 477,-19.5 477,-0.5 375,-0.5"/>
<text text-anchor="middle" x="426" y="-7.5" font-family="Helvetica,sans-Serif" font-size="10.00">setup_cosmology</text>
</a>
</g>
</g>
<!-- Node1&#45;&gt;Node18 -->
<g id="edge20" class="edge">
<title>Node1&#45;&gt;Node18</title>
<path fill="none" stroke="midnightblue" d="M546.48,-105.57C532.42,-84.43 506.8,-50.01 477,-29 471.69,-25.26 465.54,-22.14 459.41,-19.58"/>
<polygon fill="midnightblue" stroke="midnightblue" points="543.72,-107.75 552.1,-114.25 549.6,-103.95 543.72,-107.75"/>
</g>
<!-- Node3 -->
<g id="node3" class="node">
<title>Node3</title>
<g id="a_node3"><a xlink:href="gadget_2main_8c.html#a3c04138a5bfe5d72780bb7e82a18e627" target="_top" xlink:title=" ">
<polygon fill="white" stroke="black" points="265,-152.5 265,-171.5 306,-171.5 306,-152.5 265,-152.5"/>
<text text-anchor="middle" x="285.5" y="-159.5" font-family="Helvetica,sans-Serif" font-size="10.00">main</text>
</a>
</g>
</g>
<!-- Node2&#45;&gt;Node3 -->
<g id="edge2" class="edge">
<title>Node2&#45;&gt;Node3</title>
<path fill="none" stroke="midnightblue" d="M390.84,-162C364.27,-162 328.33,-162 306.32,-162"/>
<polygon fill="midnightblue" stroke="midnightblue" points="390.88,-165.5 400.88,-162 390.88,-158.5 390.88,-165.5"/>
</g>
<!-- Node5 -->
<g id="node5" class="node">
<title>Node5</title>
<g id="a_node5"><a xlink:href="test__density_8c.html#ab398a273f1cc5a1816af9ef286a460f3" target="_top" xlink:title=" ">
<polygon fill="white" stroke="black" points="238,-190.5 238,-209.5 333,-209.5 333,-190.5 238,-190.5"/>
<text text-anchor="middle" x="285.5" y="-197.5" font-family="Helvetica,sans-Serif" font-size="10.00">do_random_test</text>
</a>
</g>
</g>
<!-- Node4&#45;&gt;Node5 -->
<g id="edge4" class="edge">
<title>Node4&#45;&gt;Node5</title>
<path fill="none" stroke="midnightblue" d="M380.37,-225.75C361.28,-220.52 339.32,-214.49 321.44,-209.59"/>
<polygon fill="midnightblue" stroke="midnightblue" points="379.48,-229.14 390.05,-228.41 381.33,-222.39 379.48,-229.14"/>
</g>
<!-- Node7 -->
<g id="node7" class="node">
<title>Node7</title>
<g id="a_node7"><a xlink:href="test__density_8c.html#a0b98ad62e33169daca9a098f23b22730" target="_top" xlink:title=" ">
<polygon fill="white" stroke="black" points="232,-266.5 232,-285.5 339,-285.5 339,-266.5 232,-266.5"/>
<text text-anchor="middle" x="285.5" y="-273.5" font-family="Helvetica,sans-Serif" font-size="10.00">test_density_close</text>
</a>
</g>
</g>
<!-- Node4&#45;&gt;Node7 -->
<g id="edge6" class="edge">
<title>Node4&#45;&gt;Node7</title>
<path fill="none" stroke="midnightblue" d="M380.37,-250.25C361.28,-255.48 339.32,-261.51 321.44,-266.41"/>
<polygon fill="midnightblue" stroke="midnightblue" points="381.33,-253.61 390.05,-247.59 379.48,-246.86 381.33,-253.61"/>
</g>
<!-- Node8 -->
<g id="node8" class="node">
<title>Node8</title>
<g id="a_node8"><a xlink:href="test__density_8c.html#af90097e65c497dae6bed7b2d03702f89" target="_top" xlink:title=" ">
<polygon fill="white" stroke="black" points="236.5,-228.5 236.5,-247.5 334.5,-247.5 334.5,-228.5 236.5,-228.5"/>
<text text-anchor="middle" x="285.5" y="-235.5" font-family="Helvetica,sans-Serif" font-size="10.00">test_density_flat</text>
</a>
</g>
</g>
<!-- Node4&#45;&gt;Node8 -->
<g id="edge7" class="edge">
<title>Node4&#45;&gt;Node8</title>
<path fill="none" stroke="midnightblue" d="M368.72,-238C357.47,-238 345.74,-238 334.79,-238"/>
<polygon fill="midnightblue" stroke="midnightblue" points="368.88,-241.5 378.88,-238 368.88,-234.5 368.88,-241.5"/>
</g>
<!-- Node6 -->
<g id="node6" class="node">
<title>Node6</title>
<g id="a_node6"><a xlink:href="test__density_8c.html#a79c97c1ac28bcad8abc150104d7cb7c0" target="_top" xlink:title=" ">
<polygon fill="white" stroke="black" points="77,-190.5 77,-209.5 196,-209.5 196,-190.5 77,-190.5"/>
<text text-anchor="middle" x="136.5" y="-197.5" font-family="Helvetica,sans-Serif" font-size="10.00">test_density_random</text>
</a>
</g>
</g>
<!-- Node5&#45;&gt;Node6 -->
<g id="edge5" class="edge">
<title>Node5&#45;&gt;Node6</title>
<path fill="none" stroke="midnightblue" d="M227.8,-200C217.42,-200 206.56,-200 196.13,-200"/>
<polygon fill="midnightblue" stroke="midnightblue" points="227.99,-203.5 237.99,-200 227.99,-196.5 227.99,-203.5"/>
</g>
<!-- Node10 -->
<g id="node10" class="node">
<title>Node10</title>
<g id="a_node10"><a xlink:href="test__gravity_8c.html#a31e06bbad4eac810c349a6bc44a0aa08" target="_top" xlink:title=" ">
<polygon fill="white" stroke="black" points="238,-114.5 238,-133.5 333,-133.5 333,-114.5 238,-114.5"/>
<text text-anchor="middle" x="285.5" y="-121.5" font-family="Helvetica,sans-Serif" font-size="10.00">do_random_test</text>
</a>
</g>
</g>
<!-- Node9&#45;&gt;Node10 -->
<g id="edge9" class="edge">
<title>Node9&#45;&gt;Node10</title>
<path fill="none" stroke="midnightblue" d="M380.37,-98.25C361.28,-103.48 339.32,-109.51 321.44,-114.41"/>
<polygon fill="midnightblue" stroke="midnightblue" points="381.33,-101.61 390.05,-95.59 379.48,-94.86 381.33,-101.61"/>
</g>
<!-- Node13 -->
<g id="node13" class="node">
<title>Node13</title>
<g id="a_node13"><a xlink:href="test__gravity_8c.html#ac3391a3ee98d428389e50b886e988c63" target="_top" xlink:title=" ">
<polygon fill="white" stroke="black" points="88.5,-76.5 88.5,-95.5 184.5,-95.5 184.5,-76.5 88.5,-76.5"/>
<text text-anchor="middle" x="136.5" y="-83.5" font-family="Helvetica,sans-Serif" font-size="10.00">test_force_close</text>
</a>
</g>
</g>
<!-- Node9&#45;&gt;Node13 -->
<g id="edge12" class="edge">
<title>Node9&#45;&gt;Node13</title>
<path fill="none" stroke="midnightblue" d="M374.11,-86C320.48,-86 236.7,-86 184.56,-86"/>
<polygon fill="midnightblue" stroke="midnightblue" points="374.42,-89.5 384.42,-86 374.42,-82.5 374.42,-89.5"/>
</g>
<!-- Node14 -->
<g id="node14" class="node">
<title>Node14</title>
<g id="a_node14"><a xlink:href="test__gravity_8c.html#a87bcba11fc8f8f2ad649784bb1b8a48d" target="_top" xlink:title=" ">
<polygon fill="white" stroke="black" points="93.5,-38.5 93.5,-57.5 179.5,-57.5 179.5,-38.5 93.5,-38.5"/>
<text text-anchor="middle" x="136.5" y="-45.5" font-family="Helvetica,sans-Serif" font-size="10.00">test_force_flat</text>
</a>
</g>
</g>
<!-- Node9&#45;&gt;Node14 -->
<g id="edge14" class="edge">
<title>Node9&#45;&gt;Node14</title>
<path fill="none" stroke="midnightblue" d="M374.49,-79.32C319.19,-72.01 231.53,-60.43 179.75,-53.58"/>
<polygon fill="midnightblue" stroke="midnightblue" points="374.05,-82.8 384.42,-80.64 374.96,-75.86 374.05,-82.8"/>
</g>
<!-- Node11 -->
<g id="node11" class="node">
<title>Node11</title>
<g id="a_node11"><a xlink:href="test__gravity_8c.html#a17492d7388898745e66a636173c8ce1d" target="_top" xlink:title=" ">
<polygon fill="white" stroke="black" points="82.5,-114.5 82.5,-133.5 190.5,-133.5 190.5,-114.5 82.5,-114.5"/>
<text text-anchor="middle" x="136.5" y="-121.5" font-family="Helvetica,sans-Serif" font-size="10.00">test_force_random</text>
</a>
</g>
</g>
<!-- Node10&#45;&gt;Node11 -->
<g id="edge10" class="edge">
<title>Node10&#45;&gt;Node11</title>
<path fill="none" stroke="midnightblue" d="M227.89,-124C215.64,-124 202.73,-124 190.62,-124"/>
<polygon fill="midnightblue" stroke="midnightblue" points="227.99,-127.5 237.99,-124 227.99,-120.5 227.99,-127.5"/>
</g>
<!-- Node12 -->
<g id="node12" class="node">
<title>Node12</title>
<g id="a_node12"><a xlink:href="test__gravity_8c.html#a840291bc02cba5474a4cb46a9b9566fe" target="_top" xlink:title=" ">
<polygon fill="white" stroke="black" points="0,-76.5 0,-95.5 41,-95.5 41,-76.5 0,-76.5"/>
<text text-anchor="middle" x="20.5" y="-83.5" font-family="Helvetica,sans-Serif" font-size="10.00">main</text>
</a>
</g>
</g>
<!-- Node11&#45;&gt;Node12 -->
<g id="edge11" class="edge">
<title>Node11&#45;&gt;Node12</title>
<path fill="none" stroke="midnightblue" d="M95.94,-111.25C89.6,-109.17 83.12,-107.04 77,-105 65.12,-101.04 51.84,-96.5 41.25,-92.85"/>
<polygon fill="midnightblue" stroke="midnightblue" points="95.12,-114.66 105.71,-114.42 97.28,-108 95.12,-114.66"/>
</g>
<!-- Node13&#45;&gt;Node12 -->
<g id="edge13" class="edge">
<title>Node13&#45;&gt;Node12</title>
<path fill="none" stroke="midnightblue" d="M78.29,-86C64.91,-86 51.54,-86 41.14,-86"/>
<polygon fill="midnightblue" stroke="midnightblue" points="78.47,-89.5 88.47,-86 78.47,-82.5 78.47,-89.5"/>
</g>
<!-- Node14&#45;&gt;Node12 -->
<g id="edge15" class="edge">
<title>Node14&#45;&gt;Node12</title>
<path fill="none" stroke="midnightblue" d="M95.94,-60.75C89.6,-62.83 83.12,-64.96 77,-67 65.12,-70.96 51.84,-75.5 41.25,-79.15"/>
<polygon fill="midnightblue" stroke="midnightblue" points="97.28,-64 105.71,-57.58 95.12,-57.34 97.28,-64"/>
</g>
<!-- Node16&#45;&gt;Node3 -->
<g id="edge18" class="edge">
<title>Node16&#45;&gt;Node3</title>
<path fill="none" stroke="midnightblue" d="M400.13,-193.18C373.32,-185.82 331.19,-174.26 306.47,-167.48"/>
<polygon fill="midnightblue" stroke="midnightblue" points="399.34,-196.59 409.91,-195.86 401.2,-189.84 399.34,-196.59"/>
</g>
<!-- Node19 -->
<g id="node19" class="node">
<title>Node19</title>
<g id="a_node19"><a xlink:href="test__cosmology_8c.html#a827aa5bd8e2e3f1cc0a15cbcf4655f35" target="_top" xlink:title=" ">
<polygon fill="white" stroke="black" points="238.5,-0.5 238.5,-19.5 332.5,-19.5 332.5,-0.5 238.5,-0.5"/>
<text text-anchor="middle" x="285.5" y="-7.5" font-family="Helvetica,sans-Serif" font-size="10.00">test_cosmology</text>
</a>
</g>
</g>
<!-- Node18&#45;&gt;Node19 -->
<g id="edge21" class="edge">
<title>Node18&#45;&gt;Node19</title>
<path fill="none" stroke="midnightblue" d="M364.82,-10C354.07,-10 343.02,-10 332.74,-10"/>
<polygon fill="midnightblue" stroke="midnightblue" points="365,-13.5 375,-10 365,-6.5 365,-13.5"/>
</g>
<!-- Node20 -->
<g id="node20" class="node">
<title>Node20</title>
<g id="a_node20"><a xlink:href="test__cosmology_8c.html#a840291bc02cba5474a4cb46a9b9566fe" target="_top" xlink:title=" ">
<polygon fill="white" stroke="black" points="116,-0.5 116,-19.5 157,-19.5 157,-0.5 116,-0.5"/>
<text text-anchor="middle" x="136.5" y="-7.5" font-family="Helvetica,sans-Serif" font-size="10.00">main</text>
</a>
</g>
</g>
<!-- Node19&#45;&gt;Node20 -->
<g id="edge22" class="edge">
<title>Node19&#45;&gt;Node20</title>
<path fill="none" stroke="midnightblue" d="M228.26,-10C203.26,-10 175.45,-10 157.28,-10"/>
<polygon fill="midnightblue" stroke="midnightblue" points="228.39,-13.5 238.39,-10 228.39,-6.5 228.39,-13.5"/>
</g>
</g>
</svg>
