<?xml version="1.0" encoding="UTF-8" standalone="no"?>
<!DOCTYPE svg PUBLIC "-//W3C//DTD SVG 1.1//EN"
 "http://www.w3.org/Graphics/SVG/1.1/DTD/svg11.dtd">
<!-- Generated by graphviz version 2.38.0 (20140413.2041)
 -->
<!-- Title: fastpm_strdup Pages: 1 -->
<!--zoomable 544 -->
<svg id="main" version="1.1" xmlns="http://www.w3.org/2000/svg" xmlns:xlink="http://www.w3.org/1999/xlink" xml:space="preserve" onload="init(evt)">
<style type="text/css"><![CDATA[
.edge:hover path { stroke: red; }
.edge:hover polygon { stroke: red; fill: red; }
]]></style>
<script type="text/javascript"><![CDATA[
var edges = document.getElementsByTagName('g');
if (edges && edges.length) {
  for (var i=0;i<edges.length;i++) {
    if (edges[i].id.substr(0,4)=='edge') {
      edges[i].setAttribute('class','edge');
    }
  }
}
]]></script>
        <defs>
                <circle id="rim" cx="0" cy="0" r="7"/>
                <circle id="rim2" cx="0" cy="0" r="3.5"/>
                <g id="zoomPlus">
                        <use xlink:href="#rim" fill="#404040">
                                <set attributeName="fill" to="#808080" begin="zoomplus.mouseover" end="zoomplus.mouseout"/>
                        </use>
                        <path d="M-4,0h8M0,-4v8" fill="none" stroke="white" stroke-width="1.5" pointer-events="none"/>
                </g>
                <g id="zoomMin">
                        <use xlink:href="#rim" fill="#404040">
                                <set attributeName="fill" to="#808080" begin="zoomminus.mouseover" end="zoomminus.mouseout"/>
                        </use>
                        <path d="M-4,0h8" fill="none" stroke="white" stroke-width="1.5" pointer-events="none"/>
                </g>
                <g id="dirArrow">
                        <path fill="none" stroke="white" stroke-width="1.5" d="M0,-3.0v7 M-2.5,-0.5L0,-3.0L2.5,-0.5"/>
                </g>
               <g id="resetDef">
                       <use xlink:href="#rim2" fill="#404040">
                               <set attributeName="fill" to="#808080" begin="reset.mouseover" end="reset.mouseout"/>
                       </use>
               </g>
        </defs>

<script type="text/javascript">
var viewWidth = 529;
var viewHeight = 544;
var sectionId = 'dynsection-5';
</script>
<script xlink:href="svgpan.js"/>
<svg id="graph" class="graph">
<g id="viewport">
<title>fastpm_strdup</title>
<polygon fill="white" stroke="none" points="-4,4 -4,-539.935 524.621,-539.935 524.621,4 -4,4"/>
<!-- Node19 -->
<g id="node1" class="node"><title>Node19</title>
<polygon fill="#bfbfbf" stroke="black" points="226.621,-142.312 226.621,-161.312 305.621,-161.312 305.621,-142.312 226.621,-142.312"/>
<text text-anchor="middle" x="266.121" y="-149.312" font-family="Helvetica,sans-Serif" font-size="10.00">fastpm_strdup</text>
</g>
<!-- Node20 -->
<g id="node2" class="node"><title>Node20</title>
<g id="a_node2"><a xlink:href="paramset_8c.html#a7606ca3878dd3f5fd34c3ff2c501fb71" target="_top" xlink:title="format_enum">
<polygon fill="white" stroke="black" points="296.779,-166.938 296.779,-185.938 370.779,-185.938 370.779,-166.938 296.779,-166.938"/>
<text text-anchor="middle" x="333.779" y="-173.938" font-family="Helvetica,sans-Serif" font-size="10.00">format_enum</text>
</a>
</g>
</g>
<!-- Node19&#45;&gt;Node20 -->
<g id="edge1" class="edge"><title>Node19&#45;&gt;Node20</title>
<path fill="none" stroke="midnightblue" d="M302.275,-164.972C303.993,-165.597 305.703,-166.219 307.387,-166.832"/>
<polygon fill="midnightblue" stroke="midnightblue" points="303.067,-161.535 292.473,-161.404 300.673,-168.113 303.067,-161.535"/>
</g>
<!-- Node21 -->
<g id="node3" class="node"><title>Node21</title>
<g id="a_node3"><a xlink:href="paramset_8h.html#abc796ca69c38a8a09f96a5b3bf6c9e9e" target="_top" xlink:title="param_format_value">
<polygon fill="white" stroke="black" points="201.118,-213.218 201.118,-232.218 306.118,-232.218 306.118,-213.218 201.118,-213.218"/>
<text text-anchor="middle" x="253.618" y="-220.218" font-family="Helvetica,sans-Serif" font-size="10.00">param_format_value</text>
</a>
</g>
</g>
<!-- Node19&#45;&gt;Node21 -->
<g id="edge21" class="edge"><title>Node19&#45;&gt;Node21</title>
<path fill="none" stroke="midnightblue" d="M262.641,-171.55C260.27,-184.992 257.234,-202.212 255.358,-212.852"/>
<polygon fill="midnightblue" stroke="midnightblue" points="266.145,-171.831 264.435,-161.375 259.251,-170.615 266.145,-171.831"/>
</g>
<!-- Node28 -->
<g id="node10" class="node"><title>Node28</title>
<g id="a_node10"><a xlink:href="paramset_8c.html#ad6ead2b0049cbf31a2f62036ae42b2dd" target="_top" xlink:title="param_declare">
<polygon fill="white" stroke="black" points="170.966,-96.0316 170.966,-115.032 250.966,-115.032 250.966,-96.0316 170.966,-96.0316"/>
<text text-anchor="middle" x="210.966" y="-103.032" font-family="Helvetica,sans-Serif" font-size="10.00">param_declare</text>
</a>
</g>
</g>
<!-- Node19&#45;&gt;Node28 -->
<g id="edge10" class="edge"><title>Node19&#45;&gt;Node28</title>
<path fill="none" stroke="midnightblue" d="M246.981,-135.752C238.779,-128.87 229.476,-121.063 222.379,-115.109"/>
<polygon fill="midnightblue" stroke="midnightblue" points="244.782,-138.476 254.693,-142.223 249.282,-133.114 244.782,-138.476"/>
</g>
<!-- Node33 -->
<g id="node15" class="node"><title>Node33</title>
<g id="a_node15"><a xlink:href="paramset_8h.html#a46c924e36c0c084b3306152de5bcaa2c" target="_top" xlink:title="param_declare_string">
<polygon fill="white" stroke="black" points="247.121,-79.9585 247.121,-98.9585 357.121,-98.9585 357.121,-79.9585 247.121,-79.9585"/>
<text text-anchor="middle" x="302.121" y="-86.9585" font-family="Helvetica,sans-Serif" font-size="10.00">param_declare_string</text>
</a>
</g>
</g>
<!-- Node19&#45;&gt;Node33 -->
<g id="edge20" class="edge"><title>Node19&#45;&gt;Node33</title>
<path fill="none" stroke="midnightblue" d="M276.9,-133.142C283.312,-122.037 291.189,-108.393 296.416,-99.3386"/>
<polygon fill="midnightblue" stroke="midnightblue" points="273.715,-131.659 271.746,-142.07 279.777,-135.159 273.715,-131.659"/>
</g>
<!-- Node34 -->
<g id="node16" class="node"><title>Node34</title>
<g id="a_node16"><a xlink:href="paramset_8h.html#a2d8ecfdbf0c46786b719d8c4d59b9125" target="_top" xlink:title="param_set_from_string">
<polygon fill="white" stroke="black" points="275.779,-117.687 275.779,-136.687 391.779,-136.687 391.779,-117.687 275.779,-117.687"/>
<text text-anchor="middle" x="333.779" y="-124.687" font-family="Helvetica,sans-Serif" font-size="10.00">param_set_from_string</text>
</a>
</g>
</g>
<!-- Node19&#45;&gt;Node34 -->
<g id="edge22" class="edge"><title>Node19&#45;&gt;Node34</title>
<path fill="none" stroke="midnightblue" d="M302.275,-138.653C303.993,-138.028 305.703,-137.405 307.387,-136.793"/>
<polygon fill="midnightblue" stroke="midnightblue" points="300.673,-135.512 292.473,-142.221 303.067,-142.09 300.673,-135.512"/>
</g>
<!-- Node20&#45;&gt;Node21 -->
<g id="edge2" class="edge"><title>Node20&#45;&gt;Node21</title>
<path fill="none" stroke="midnightblue" d="M308.176,-191.219C295.744,-198.397 281.165,-206.815 270.206,-213.141"/>
<polygon fill="midnightblue" stroke="midnightblue" points="310.259,-194.058 317.169,-186.027 306.759,-187.996 310.259,-194.058"/>
</g>
<!-- Node22 -->
<g id="node4" class="node"><title>Node22</title>
<g id="a_node4"><a xlink:href="paramset_8h.html#aa1f578a3e3e37557107b29de34eae640" target="_top" xlink:title="param_dump">
<polygon fill="white" stroke="black" points="204.615,-284.125 204.615,-303.125 277.615,-303.125 277.615,-284.125 204.615,-284.125"/>
<text text-anchor="middle" x="241.115" y="-291.125" font-family="Helvetica,sans-Serif" font-size="10.00">param_dump</text>
</a>
</g>
</g>
<!-- Node21&#45;&gt;Node22 -->
<g id="edge3" class="edge"><title>Node21&#45;&gt;Node22</title>
<path fill="none" stroke="midnightblue" d="M250.138,-242.456C247.768,-255.898 244.731,-273.118 242.855,-283.758"/>
<polygon fill="midnightblue" stroke="midnightblue" points="253.642,-242.737 251.932,-232.281 246.749,-241.521 253.642,-242.737"/>
</g>
<!-- Node23 -->
<g id="node5" class="node"><title>Node23</title>
<g id="a_node5"><a xlink:href="param_8h.html#a952eae1977b498c4fdfabed1742a3ba2" target="_top" xlink:title="read_parameter_file">
<polygon fill="white" stroke="black" points="177.613,-355.031 177.613,-374.031 279.613,-374.031 279.613,-355.031 177.613,-355.031"/>
<text text-anchor="middle" x="228.613" y="-362.031" font-family="Helvetica,sans-Serif" font-size="10.00">read_parameter_file</text>
</a>
</g>
</g>
<!-- Node22&#45;&gt;Node23 -->
<g id="edge4" class="edge"><title>Node22&#45;&gt;Node23</title>
<path fill="none" stroke="midnightblue" d="M237.635,-313.362C235.265,-326.804 232.229,-344.024 230.352,-354.665"/>
<polygon fill="midnightblue" stroke="midnightblue" points="241.14,-313.643 239.429,-303.187 234.246,-312.428 241.14,-313.643"/>
</g>
<!-- Node24 -->
<g id="node6" class="node"><title>Node24</title>
<g id="a_node6"><a xlink:href="main_8c.html#a3c04138a5bfe5d72780bb7e82a18e627" target="_top" xlink:title="main">
<polygon fill="white" stroke="black" points="297.131,-425.937 297.131,-444.937 335.131,-444.937 335.131,-425.937 297.131,-425.937"/>
<text text-anchor="middle" x="316.131" y="-432.937" font-family="Helvetica,sans-Serif" font-size="10.00">main</text>
</a>
</g>
</g>
<!-- Node23&#45;&gt;Node24 -->
<g id="edge5" class="edge"><title>Node23&#45;&gt;Node24</title>
<path fill="none" stroke="midnightblue" d="M248.197,-380.398C265.39,-394.327 289.838,-414.134 304.236,-425.799"/>
<polygon fill="midnightblue" stroke="midnightblue" points="250.389,-377.669 240.416,-374.094 245.983,-383.108 250.389,-377.669"/>
</g>
<!-- Node25 -->
<g id="node7" class="node"><title>Node25</title>
<g id="a_node7"><a xlink:href="walltime_8h.html#a76d2135b612766d4d665748454b879d6" target="_top" xlink:title="walltime_report">
<polygon fill="white" stroke="black" points="404.621,-454.081 404.621,-473.081 487.621,-473.081 487.621,-454.081 404.621,-454.081"/>
<text text-anchor="middle" x="446.121" y="-461.081" font-family="Helvetica,sans-Serif" font-size="10.00">walltime_report</text>
</a>
</g>
</g>
<!-- Node24&#45;&gt;Node25 -->
<g id="edge6" class="edge"><title>Node24&#45;&gt;Node25</title>
<path fill="none" stroke="midnightblue" d="M345.457,-441.786C362.898,-445.563 385.304,-450.414 404.547,-454.58"/>
<polygon fill="midnightblue" stroke="midnightblue" points="345.826,-438.285 335.312,-439.59 344.345,-445.127 345.826,-438.285"/>
</g>
<!-- Node26 -->
<g id="node8" class="node"><title>Node26</title>
<g id="a_node8"><a xlink:href="run_8c.html#adc59e9ee1517e4e690694a64ab6a59d2" target="_top" xlink:title="write_cpu_log">
<polygon fill="white" stroke="black" points="443.621,-516.435 443.621,-535.435 520.621,-535.435 520.621,-516.435 443.621,-516.435"/>
<text text-anchor="middle" x="482.121" y="-523.435" font-family="Helvetica,sans-Serif" font-size="10.00">write_cpu_log</text>
</a>
</g>
</g>
<!-- Node25&#45;&gt;Node26 -->
<g id="edge7" class="edge"><title>Node25&#45;&gt;Node26</title>
<path fill="none" stroke="midnightblue" d="M456.9,-482.251C463.312,-493.357 471.189,-507.001 476.416,-516.055"/>
<polygon fill="midnightblue" stroke="midnightblue" points="459.777,-480.234 451.746,-473.324 453.715,-483.735 459.777,-480.234"/>
</g>
<!-- Node27 -->
<g id="node9" class="node"><title>Node27</title>
<g id="a_node9"><a xlink:href="run_8c.html#a05e0ffe612d44e6d7f3a9ae5b9df56a2" target="_top" xlink:title="run">
<polygon fill="white" stroke="black" points="188.607,-496.843 188.607,-515.843 218.607,-515.843 218.607,-496.843 188.607,-496.843"/>
<text text-anchor="middle" x="203.607" y="-503.843" font-family="Helvetica,sans-Serif" font-size="10.00">run</text>
</a>
</g>
</g>
<!-- Node26&#45;&gt;Node27 -->
<g id="edge8" class="edge"><title>Node26&#45;&gt;Node27</title>
<path fill="none" stroke="midnightblue" d="M433.074,-522.485C368.64,-517.952 258.974,-510.238 218.872,-507.417"/>
<polygon fill="midnightblue" stroke="midnightblue" points="433.174,-526.001 443.395,-523.211 433.665,-519.018 433.174,-526.001"/>
</g>
<!-- Node27&#45;&gt;Node24 -->
<g id="edge9" class="edge"><title>Node27&#45;&gt;Node24</title>
<path fill="none" stroke="midnightblue" d="M227.295,-491.417C249.457,-477.452 281.905,-457.005 300.837,-445.075"/>
<polygon fill="midnightblue" stroke="midnightblue" points="225.377,-488.488 218.783,-496.78 229.109,-494.41 225.377,-488.488"/>
</g>
<!-- Node29 -->
<g id="node11" class="node"><title>Node29</title>
<g id="a_node11"><a xlink:href="paramset_8h.html#aca6dcc5e6a6ce033b01a2901a486618c" target="_top" xlink:title="param_declare_double">
<polygon fill="white" stroke="black" points="65.1208,-142.312 65.1208,-161.312 179.121,-161.312 179.121,-142.312 65.1208,-142.312"/>
<text text-anchor="middle" x="122.121" y="-149.312" font-family="Helvetica,sans-Serif" font-size="10.00">param_declare_double</text>
</a>
</g>
</g>
<!-- Node28&#45;&gt;Node29 -->
<g id="edge11" class="edge"><title>Node28&#45;&gt;Node29</title>
<path fill="none" stroke="midnightblue" d="M183.397,-119.892C169.446,-127.16 152.89,-135.784 140.506,-142.235"/>
<polygon fill="midnightblue" stroke="midnightblue" points="185.305,-122.845 192.557,-115.121 182.071,-116.637 185.305,-122.845"/>
</g>
<!-- Node31 -->
<g id="node13" class="node"><title>Node31</title>
<g id="a_node13"><a xlink:href="paramset_8h.html#a5c11550bc7b6a3a5d81aea0515776c9e" target="_top" xlink:title="param_declare_enum">
<polygon fill="white" stroke="black" points="100.81,-49.7509 100.81,-68.7509 210.81,-68.7509 210.81,-49.7509 100.81,-49.7509"/>
<text text-anchor="middle" x="155.81" y="-56.7509" font-family="Helvetica,sans-Serif" font-size="10.00">param_declare_enum</text>
</a>
</g>
</g>
<!-- Node28&#45;&gt;Node31 -->
<g id="edge14" class="edge"><title>Node28&#45;&gt;Node31</title>
<path fill="none" stroke="midnightblue" d="M191.826,-89.4712C183.624,-82.5892 174.32,-74.7826 167.224,-68.828"/>
<polygon fill="midnightblue" stroke="midnightblue" points="189.627,-92.1955 199.537,-95.9422 194.127,-86.8331 189.627,-92.1955"/>
</g>
<!-- Node32 -->
<g id="node14" class="node"><title>Node32</title>
<g id="a_node14"><a xlink:href="paramset_8h.html#aad8a30b325b7b71f8189074f463753d0" target="_top" xlink:title="param_declare_int">
<polygon fill="white" stroke="black" points="193.115,-0.5 193.115,-19.5 289.115,-19.5 289.115,-0.5 193.115,-0.5"/>
<text text-anchor="middle" x="241.115" y="-7.5" font-family="Helvetica,sans-Serif" font-size="10.00">param_declare_int</text>
</a>
</g>
</g>
<!-- Node28&#45;&gt;Node32 -->
<g id="edge16" class="edge"><title>Node28&#45;&gt;Node32</title>
<path fill="none" stroke="midnightblue" d="M217.018,-86.3557C223.372,-66.2197 233.112,-35.3589 238.037,-19.7552"/>
<polygon fill="midnightblue" stroke="midnightblue" points="213.639,-85.4327 213.967,-96.0224 220.314,-87.5395 213.639,-85.4327"/>
</g>
<!-- Node28&#45;&gt;Node33 -->
<g id="edge18" class="edge"><title>Node28&#45;&gt;Node33</title>
<path fill="none" stroke="midnightblue" d="M251.356,-98.4097C251.404,-98.4013 251.451,-98.3929 251.499,-98.3844"/>
<polygon fill="midnightblue" stroke="midnightblue" points="260.451,-93.2459 251.213,-98.4349 261.671,-100.14 260.451,-93.2459"/>
</g>
<!-- Node30 -->
<g id="node12" class="node"><title>Node30</title>
<g id="a_node12"><a xlink:href="param_8c.html#ada22ec1be9f6bea2e2fbb3e41ae796c0" target="_top" xlink:title="create_gadget_parameter_set">
<polygon fill="white" stroke="black" points="265.121,-17.6047 265.121,-36.6047 411.121,-36.6047 411.121,-17.6047 265.121,-17.6047"/>
<text text-anchor="middle" x="338.121" y="-24.6047" font-family="Helvetica,sans-Serif" font-size="10.00">create_gadget_parameter_set</text>
</a>
</g>
</g>
<!-- Node29&#45;&gt;Node30 -->
<g id="edge12" class="edge"><title>Node29&#45;&gt;Node30</title>
<path fill="none" stroke="midnightblue" d="M147.506,-137.156C192.23,-111.335 283.883,-58.4188 321.474,-36.7158"/>
<polygon fill="midnightblue" stroke="midnightblue" points="145.622,-134.203 138.711,-142.234 149.122,-140.265 145.622,-134.203"/>
</g>
<!-- Node30&#45;&gt;Node23 -->
<g id="edge13" class="edge"><title>Node30&#45;&gt;Node23</title>
<path fill="none" stroke="midnightblue" d="M331.871,-46.3631C311.407,-109.417 246.863,-308.296 231.785,-354.757"/>
<polygon fill="midnightblue" stroke="midnightblue" points="335.204,-47.4313 334.962,-36.8393 328.546,-45.2705 335.204,-47.4313"/>
</g>
<!-- Node31&#45;&gt;Node30 -->
<g id="edge15" class="edge"><title>Node31&#45;&gt;Node30</title>
<path fill="none" stroke="midnightblue" d="M220.101,-47.9148C241.028,-44.2248 264.029,-40.169 284.124,-36.6257"/>
<polygon fill="midnightblue" stroke="midnightblue" points="219.256,-44.5096 210.016,-49.693 220.472,-51.4033 219.256,-44.5096"/>
</g>
<!-- Node32&#45;&gt;Node30 -->
<g id="edge17" class="edge"><title>Node32&#45;&gt;Node30</title>
<path fill="none" stroke="midnightblue" d="M289.477,-18.5274C289.524,-18.5358 289.572,-18.5441 289.619,-18.5525"/>
<polygon fill="midnightblue" stroke="midnightblue" points="299.792,-16.7975 289.334,-18.5022 298.572,-23.6913 299.792,-16.7975"/>
</g>
<!-- Node33&#45;&gt;Node30 -->
<g id="edge19" class="edge"><title>Node33&#45;&gt;Node30</title>
<path fill="none" stroke="midnightblue" d="M312.9,-70.7886C319.312,-59.6827 327.189,-46.0387 332.416,-36.9848"/>
<polygon fill="midnightblue" stroke="midnightblue" points="309.715,-69.3054 307.746,-79.7157 315.777,-72.8055 309.715,-69.3054"/>
</g>
<!-- Node35 -->
<g id="node17" class="node"><title>Node35</title>
<g id="a_node17"><a xlink:href="paramset_8c.html#a26be73c84ce0ed3dadb03e1fa2c0cedd" target="_top" xlink:title="param_emit">
<polygon fill="white" stroke="black" points="367.437,-93.0614 367.437,-112.061 435.437,-112.061 435.437,-93.0614 367.437,-93.0614"/>
<text text-anchor="middle" x="401.437" y="-100.061" font-family="Helvetica,sans-Serif" font-size="10.00">param_emit</text>
</a>
</g>
</g>
<!-- Node34&#45;&gt;Node35 -->
<g id="edge23" class="edge"><title>Node34&#45;&gt;Node35</title>
<path fill="none" stroke="midnightblue" d="M369.933,-114.028C371.651,-113.402 373.361,-112.78 375.045,-112.167"/>
<polygon fill="midnightblue" stroke="midnightblue" points="368.331,-110.886 360.131,-117.596 370.725,-117.464 368.331,-110.886"/>
</g>
<!-- Node36 -->
<g id="node18" class="node"><title>Node36</title>
<g id="a_node18"><a xlink:href="paramset_8h.html#aaa7f4609208e32b39f261a8b19b1677f" target="_top" xlink:title="param_parse">
<polygon fill="white" stroke="black" points="432.594,-68.436 432.594,-87.436 505.594,-87.436 505.594,-68.436 432.594,-68.436"/>
<text text-anchor="middle" x="469.094" y="-75.436" font-family="Helvetica,sans-Serif" font-size="10.00">param_parse</text>
</a>
</g>
</g>
<!-- Node35&#45;&gt;Node36 -->
<g id="edge24" class="edge"><title>Node35&#45;&gt;Node36</title>
<path fill="none" stroke="midnightblue" d="M437.591,-89.4022C439.309,-88.7769 441.019,-88.1546 442.703,-87.5417"/>
<polygon fill="midnightblue" stroke="midnightblue" points="435.988,-86.2609 427.789,-92.9701 438.383,-92.8387 435.988,-86.2609"/>
</g>
<!-- Node37 -->
<g id="node19" class="node"><title>Node37</title>
<g id="a_node19"><a xlink:href="paramset_8h.html#a4aa79dc8ecf8ca7f0e0ea8aad5088377" target="_top" xlink:title="param_parse_file">
<polygon fill="white" stroke="black" points="1.42109e-14,-327.435 1.42109e-14,-346.435 91,-346.435 91,-327.435 1.42109e-14,-327.435"/>
<text text-anchor="middle" x="45.5" y="-334.435" font-family="Helvetica,sans-Serif" font-size="10.00">param_parse_file</text>
</a>
</g>
</g>
<!-- Node36&#45;&gt;Node37 -->
<g id="edge25" class="edge"><title>Node36&#45;&gt;Node37</title>
<path fill="none" stroke="midnightblue" d="M444.873,-92.7458C367.14,-140.274 125.309,-288.137 61.22,-327.323"/>
<polygon fill="midnightblue" stroke="midnightblue" points="446.81,-95.6637 453.516,-87.461 443.159,-89.6915 446.81,-95.6637"/>
</g>
<!-- Node37&#45;&gt;Node23 -->
<g id="edge26" class="edge"><title>Node37&#45;&gt;Node23</title>
<path fill="none" stroke="midnightblue" d="M101.337,-345.35C125.531,-348.996 153.672,-353.237 177.331,-356.802"/>
<polygon fill="midnightblue" stroke="midnightblue" points="101.645,-341.857 91.2347,-343.828 100.601,-348.779 101.645,-341.857"/>
</g>
</g>
</svg>
        <g id="navigator" transform="translate(0 0)" fill="#404254">
                <rect fill="#f2f5e9" fill-opacity="0.5" stroke="#606060" stroke-width=".5" x="0" y="0" width="60" height="60"/>
                <use id="zoomplus" xlink:href="#zoomPlus" x="17" y="9" onmousedown="handleZoom(evt,'in')"/>
                <use id="zoomminus" xlink:href="#zoomMin" x="42" y="9" onmousedown="handleZoom(evt,'out')"/>
                <use id="reset" xlink:href="#resetDef" x="30" y="36" onmousedown="handleReset()"/>
                <g id="arrowUp" xlink:href="#dirArrow" transform="translate(30 24)" onmousedown="handlePan(0,-1)">
                  <use xlink:href="#rim" fill="#404040">
                        <set attributeName="fill" to="#808080" begin="arrowUp.mouseover" end="arrowUp.mouseout"/>
                  </use>
                  <path fill="none" stroke="white" stroke-width="1.5" d="M0,-3.0v7 M-2.5,-0.5L0,-3.0L2.5,-0.5"/>
                </g>
                <g id="arrowRight" xlink:href="#dirArrow" transform="rotate(90) translate(36 -43)" onmousedown="handlePan(1,0)">
                  <use xlink:href="#rim" fill="#404040">
                        <set attributeName="fill" to="#808080" begin="arrowRight.mouseover" end="arrowRight.mouseout"/>
                  </use>
                  <path fill="none" stroke="white" stroke-width="1.5" d="M0,-3.0v7 M-2.5,-0.5L0,-3.0L2.5,-0.5"/>
                </g>
                <g id="arrowDown" xlink:href="#dirArrow" transform="rotate(180) translate(-30 -48)" onmousedown="handlePan(0,1)">
                  <use xlink:href="#rim" fill="#404040">
                        <set attributeName="fill" to="#808080" begin="arrowDown.mouseover" end="arrowDown.mouseout"/>
                  </use>
                  <path fill="none" stroke="white" stroke-width="1.5" d="M0,-3.0v7 M-2.5,-0.5L0,-3.0L2.5,-0.5"/>
                </g>
                <g id="arrowLeft" xlink:href="#dirArrow" transform="rotate(270) translate(-36 17)" onmousedown="handlePan(-1,0)">
                  <use xlink:href="#rim" fill="#404040">
                        <set attributeName="fill" to="#808080" begin="arrowLeft.mouseover" end="arrowLeft.mouseout"/>
                  </use>
                  <path fill="none" stroke="white" stroke-width="1.5" d="M0,-3.0v7 M-2.5,-0.5L0,-3.0L2.5,-0.5"/>
                </g>
        </g>
        <svg viewBox="0 0 15 15" width="100%" height="30px" preserveAspectRatio="xMaxYMin meet">
         <g id="arrow_out" transform="scale(0.3 0.3)">
          <a xlink:href="utils-string_8h_a83b37e4b34b4b0d478581e0c73a77ae7_icgraph_org.svg" target="_base">
           <rect id="button" ry="5" rx="5" y="6" x="6" height="38" width="38"
                fill="#f2f5e9" fill-opacity="0.5" stroke="#606060" stroke-width="1.0"/>
           <path id="arrow"
             d="M 11.500037,31.436501 C 11.940474,20.09759 22.043105,11.32322 32.158766,21.979434 L 37.068811,17.246167 C 37.068811,17.246167 37.088388,32 37.088388,32 L 22.160133,31.978069 C 22.160133,31.978069 26.997745,27.140456 26.997745,27.140456 C 18.528582,18.264221 13.291696,25.230495 11.500037,31.436501 z"
             style="fill:#404040;"/>
          </a>
         </g>
        </svg>
</svg>
