<?xml version="1.0" encoding="UTF-8" standalone="no"?>
<!DOCTYPE svg PUBLIC "-//W3C//DTD SVG 1.1//EN"
 "http://www.w3.org/Graphics/SVG/1.1/DTD/svg11.dtd">
<!-- Generated by graphviz version 2.38.0 (20140413.2041)
 -->
<!-- Title: fastpm_strdup_vprintf Pages: 1 -->
<svg width="676pt" height="604pt"
 viewBox="0.00 0.00 675.68 604.00" xmlns="http://www.w3.org/2000/svg" xmlns:xlink="http://www.w3.org/1999/xlink">
<g id="graph0" class="graph" transform="scale(1 1) rotate(0) translate(4 600)">
<title>fastpm_strdup_vprintf</title>
<polygon fill="white" stroke="none" points="-4,4 -4,-600 671.684,-600 671.684,4 -4,4"/>
<!-- Node71 -->
<g id="node1" class="node"><title>Node71</title>
<polygon fill="#bfbfbf" stroke="black" points="244.415,-576.5 244.415,-595.5 355.415,-595.5 355.415,-576.5 244.415,-576.5"/>
<text text-anchor="middle" x="299.915" y="-583.5" font-family="Helvetica,sans-Serif" font-size="10.00">fastpm_strdup_vprintf</text>
</g>
<!-- Node72 -->
<g id="node2" class="node"><title>Node72</title>
<g id="a_node2"><a xlink:href="utils-string_8h.html#a787c3b0717214d830c69b7e8785a3e33" target="_top" xlink:title="fastpm_strdup_printf">
<polygon fill="white" stroke="black" points="390.915,-465.915 390.915,-484.915 496.915,-484.915 496.915,-465.915 390.915,-465.915"/>
<text text-anchor="middle" x="443.915" y="-472.915" font-family="Helvetica,sans-Serif" font-size="10.00">fastpm_strdup_printf</text>
</a>
</g>
</g>
<!-- Node71&#45;&gt;Node72 -->
<g id="edge1" class="edge"><title>Node71&#45;&gt;Node72</title>
<path fill="none" stroke="midnightblue" d="M320.628,-570.094C350.938,-546.817 406.467,-504.174 431.315,-485.092"/>
<polygon fill="midnightblue" stroke="midnightblue" points="318.242,-567.513 312.442,-576.38 322.505,-573.065 318.242,-567.513"/>
</g>
<!-- Node73 -->
<g id="node3" class="node"><title>Node73</title>
<g id="a_node3"><a xlink:href="proto_8h.html#aa10a9f512f8d08ea8cf2927cf6dba0b7" target="_top" xlink:title="open_outputfiles">
<polygon fill="white" stroke="black" points="363.915,-403.561 363.915,-422.561 451.915,-422.561 451.915,-403.561 363.915,-403.561"/>
<text text-anchor="middle" x="407.915" y="-410.561" font-family="Helvetica,sans-Serif" font-size="10.00">open_outputfiles</text>
</a>
</g>
</g>
<!-- Node72&#45;&gt;Node73 -->
<g id="edge2" class="edge"><title>Node72&#45;&gt;Node73</title>
<path fill="none" stroke="midnightblue" d="M433.136,-456.745C426.724,-445.64 418.847,-431.996 413.62,-422.942"/>
<polygon fill="midnightblue" stroke="midnightblue" points="430.259,-458.762 438.29,-465.673 436.321,-455.262 430.259,-458.762"/>
</g>
<!-- Node78 -->
<g id="node8" class="node"><title>Node78</title>
<g id="a_node8"><a xlink:href="hci_8c.html#a7e1bef538a45fcfed3d5c5e6d3e3dc88" target="_top" xlink:title="hci_query_filesystem">
<polygon fill="white" stroke="black" points="245.415,-0.5 245.415,-19.5 354.415,-19.5 354.415,-0.5 245.415,-0.5"/>
<text text-anchor="middle" x="299.915" y="-7.5" font-family="Helvetica,sans-Serif" font-size="10.00">hci_query_filesystem</text>
</a>
</g>
</g>
<!-- Node72&#45;&gt;Node78 -->
<g id="edge8" class="edge"><title>Node72&#45;&gt;Node78</title>
<path fill="none" stroke="midnightblue" d="M437.902,-455.979C413.297,-376.456 320.759,-77.3669 302.906,-19.6674"/>
<polygon fill="midnightblue" stroke="midnightblue" points="434.608,-457.176 440.908,-465.694 441.295,-455.107 434.608,-457.176"/>
</g>
<!-- Node80 -->
<g id="node10" class="node"><title>Node80</title>
<g id="a_node10"><a xlink:href="petaio_8h.html#ac7b533afc766345881d11628147375db" target="_top" xlink:title="petaio_read_header">
<polygon fill="white" stroke="black" points="0,-360.5 0,-379.5 101,-379.5 101,-360.5 0,-360.5"/>
<text text-anchor="middle" x="50.5" y="-367.5" font-family="Helvetica,sans-Serif" font-size="10.00">petaio_read_header</text>
</a>
</g>
</g>
<!-- Node72&#45;&gt;Node80 -->
<g id="edge11" class="edge"><title>Node72&#45;&gt;Node80</title>
<path fill="none" stroke="midnightblue" d="M398.623,-463.279C319.496,-442.077 157.697,-398.723 86.0259,-379.519"/>
<polygon fill="midnightblue" stroke="midnightblue" points="397.743,-466.667 408.308,-465.874 399.555,-459.905 397.743,-466.667"/>
</g>
<!-- Node82 -->
<g id="node12" class="node"><title>Node82</title>
<g id="a_node12"><a xlink:href="petaio_8h.html#a3dd52bd7a320fa9ef1c7963d060ae4ec" target="_top" xlink:title="petaio_read_snapshot">
<polygon fill="white" stroke="black" points="555.684,-396.5 555.684,-415.5 667.684,-415.5 667.684,-396.5 555.684,-396.5"/>
<text text-anchor="middle" x="611.684" y="-403.5" font-family="Helvetica,sans-Serif" font-size="10.00">petaio_read_snapshot</text>
</a>
</g>
</g>
<!-- Node72&#45;&gt;Node82 -->
<g id="edge14" class="edge"><title>Node72&#45;&gt;Node82</title>
<path fill="none" stroke="midnightblue" d="M476.537,-461.918C509.532,-448.266 559.688,-427.514 588.718,-415.503"/>
<polygon fill="midnightblue" stroke="midnightblue" points="474.793,-458.852 466.891,-465.909 477.47,-465.32 474.793,-458.852"/>
</g>
<!-- Node74 -->
<g id="node4" class="node"><title>Node74</title>
<g id="a_node4"><a xlink:href="main_8c.html#a3c04138a5bfe5d72780bb7e82a18e627" target="_top" xlink:title="main">
<polygon fill="white" stroke="black" points="208.915,-341.208 208.915,-360.208 246.915,-360.208 246.915,-341.208 208.915,-341.208"/>
<text text-anchor="middle" x="227.915" y="-348.208" font-family="Helvetica,sans-Serif" font-size="10.00">main</text>
</a>
</g>
</g>
<!-- Node73&#45;&gt;Node74 -->
<g id="edge3" class="edge"><title>Node73&#45;&gt;Node74</title>
<path fill="none" stroke="midnightblue" d="M370.589,-400.131C332.979,-387.103 276.433,-367.515 247.1,-357.353"/>
<polygon fill="midnightblue" stroke="midnightblue" points="369.59,-403.489 380.185,-403.455 371.881,-396.875 369.59,-403.489"/>
</g>
<!-- Node75 -->
<g id="node5" class="node"><title>Node75</title>
<g id="a_node5"><a xlink:href="walltime_8h.html#a76d2135b612766d4d665748454b879d6" target="_top" xlink:title="walltime_report">
<polygon fill="white" stroke="black" points="320.769,-180.5 320.769,-199.5 403.769,-199.5 403.769,-180.5 320.769,-180.5"/>
<text text-anchor="middle" x="362.269" y="-187.5" font-family="Helvetica,sans-Serif" font-size="10.00">walltime_report</text>
</a>
</g>
</g>
<!-- Node74&#45;&gt;Node75 -->
<g id="edge4" class="edge"><title>Node74&#45;&gt;Node75</title>
<path fill="none" stroke="midnightblue" d="M242.672,-333.056C270.991,-299.182 332.103,-226.083 354.139,-199.725"/>
<polygon fill="midnightblue" stroke="midnightblue" points="239.646,-331.219 235.917,-341.136 245.017,-335.709 239.646,-331.219"/>
</g>
<!-- Node76 -->
<g id="node6" class="node"><title>Node76</title>
<g id="a_node6"><a xlink:href="run_8c.html#adc59e9ee1517e4e690694a64ab6a59d2" target="_top" xlink:title="write_cpu_log">
<polygon fill="white" stroke="black" points="261.415,-216.5 261.415,-235.5 338.415,-235.5 338.415,-216.5 261.415,-216.5"/>
<text text-anchor="middle" x="299.915" y="-223.5" font-family="Helvetica,sans-Serif" font-size="10.00">write_cpu_log</text>
</a>
</g>
</g>
<!-- Node75&#45;&gt;Node76 -->
<g id="edge5" class="edge"><title>Node75&#45;&gt;Node76</title>
<path fill="none" stroke="midnightblue" d="M336.698,-204.763C329.944,-208.663 322.827,-212.772 316.671,-216.326"/>
<polygon fill="midnightblue" stroke="midnightblue" points="338.649,-207.678 345.559,-199.647 335.149,-201.616 338.649,-207.678"/>
</g>
<!-- Node77 -->
<g id="node7" class="node"><title>Node77</title>
<g id="a_node7"><a xlink:href="run_8c.html#a05e0ffe612d44e6d7f3a9ae5b9df56a2" target="_top" xlink:title="run">
<polygon fill="white" stroke="black" points="222.561,-252.5 222.561,-271.5 252.561,-271.5 252.561,-252.5 222.561,-252.5"/>
<text text-anchor="middle" x="237.561" y="-259.5" font-family="Helvetica,sans-Serif" font-size="10.00">run</text>
</a>
</g>
</g>
<!-- Node76&#45;&gt;Node77 -->
<g id="edge6" class="edge"><title>Node76&#45;&gt;Node77</title>
<path fill="none" stroke="midnightblue" d="M274.241,-240.823C266.883,-245.071 259.103,-249.563 252.611,-253.311"/>
<polygon fill="midnightblue" stroke="midnightblue" points="276.295,-243.678 283.206,-235.647 272.795,-237.616 276.295,-243.678"/>
</g>
<!-- Node77&#45;&gt;Node74 -->
<g id="edge7" class="edge"><title>Node77&#45;&gt;Node74</title>
<path fill="none" stroke="midnightblue" d="M235.406,-281.822C233.4,-300.268 230.496,-326.971 228.96,-341.101"/>
<polygon fill="midnightblue" stroke="midnightblue" points="238.891,-282.152 236.492,-271.832 231.932,-281.395 238.891,-282.152"/>
</g>
<!-- Node79 -->
<g id="node9" class="node"><title>Node79</title>
<g id="a_node9"><a xlink:href="hci_8h.html#ab140bce619153b809e0fea49a2e1d081" target="_top" xlink:title="hci_query">
<polygon fill="white" stroke="black" points="270.415,-72.5 270.415,-91.5 329.415,-91.5 329.415,-72.5 270.415,-72.5"/>
<text text-anchor="middle" x="299.915" y="-79.5" font-family="Helvetica,sans-Serif" font-size="10.00">hci_query</text>
</a>
</g>
</g>
<!-- Node78&#45;&gt;Node79 -->
<g id="edge9" class="edge"><title>Node78&#45;&gt;Node79</title>
<path fill="none" stroke="midnightblue" d="M299.915,-29.7574C299.915,-43.6427 299.915,-61.607 299.915,-72.4436"/>
<polygon fill="midnightblue" stroke="midnightblue" points="303.415,-29.7102 299.915,-19.7102 296.415,-29.7103 303.415,-29.7102"/>
</g>
<!-- Node79&#45;&gt;Node77 -->
<g id="edge10" class="edge"><title>Node79&#45;&gt;Node77</title>
<path fill="none" stroke="midnightblue" d="M293.289,-101.13C280.071,-139.286 250.848,-223.644 240.93,-252.275"/>
<polygon fill="midnightblue" stroke="midnightblue" points="296.597,-102.272 296.563,-91.6776 289.982,-99.981 296.597,-102.272"/>
</g>
<!-- Node81 -->
<g id="node11" class="node"><title>Node81</title>
<g id="a_node11"><a xlink:href="proto_8h.html#a74dc0e5e9eefe11fc8434b62de573146" target="_top" xlink:title="begrun">
<polygon fill="white" stroke="black" points="60.9153,-216.5 60.9153,-235.5 106.915,-235.5 106.915,-216.5 60.9153,-216.5"/>
<text text-anchor="middle" x="83.9153" y="-223.5" font-family="Helvetica,sans-Serif" font-size="10.00">begrun</text>
</a>
</g>
</g>
<!-- Node80&#45;&gt;Node81 -->
<g id="edge12" class="edge"><title>Node80&#45;&gt;Node81</title>
<path fill="none" stroke="midnightblue" d="M55.0656,-350.325C62.3368,-318.991 76.2782,-258.911 81.6905,-235.588"/>
<polygon fill="midnightblue" stroke="midnightblue" points="51.6479,-349.57 52.7968,-360.102 58.4667,-351.152 51.6479,-349.57"/>
</g>
<!-- Node81&#45;&gt;Node74 -->
<g id="edge13" class="edge"><title>Node81&#45;&gt;Node74</title>
<path fill="none" stroke="midnightblue" d="M103.006,-242.533C133.463,-268.909 192.112,-319.701 216.668,-340.968"/>
<polygon fill="midnightblue" stroke="midnightblue" points="105.065,-239.686 95.2148,-235.786 100.483,-244.978 105.065,-239.686"/>
</g>
<!-- Node83 -->
<g id="node13" class="node"><title>Node83</title>
<g id="a_node13"><a xlink:href="proto_8h.html#ab080cb20bac2a1a6153a84e8cfd15374" target="_top" xlink:title="init">
<polygon fill="white" stroke="black" points="36,-72.5 36,-91.5 65,-91.5 65,-72.5 36,-72.5"/>
<text text-anchor="middle" x="50.5" y="-79.5" font-family="Helvetica,sans-Serif" font-size="10.00">init</text>
</a>
</g>
</g>
<!-- Node82&#45;&gt;Node83 -->
<g id="edge15" class="edge"><title>Node82&#45;&gt;Node83</title>
<path fill="none" stroke="midnightblue" d="M586.322,-391.357C488.975,-335.154 140.939,-134.215 65.1418,-90.4534"/>
<polygon fill="midnightblue" stroke="midnightblue" points="584.783,-394.51 595.193,-396.479 588.283,-388.448 584.783,-394.51"/>
</g>
<!-- Node83&#45;&gt;Node81 -->
<g id="edge16" class="edge"><title>Node83&#45;&gt;Node81</title>
<path fill="none" stroke="midnightblue" d="M55.0656,-101.675C62.3368,-133.009 76.2782,-193.089 81.6905,-216.412"/>
<polygon fill="midnightblue" stroke="midnightblue" points="58.4667,-100.848 52.7968,-91.8977 51.6479,-102.43 58.4667,-100.848"/>
</g>
</g>
</svg>
