<?xml version="1.0" encoding="UTF-8" standalone="no"?>
<!DOCTYPE svg PUBLIC "-//W3C//DTD SVG 1.1//EN"
 "http://www.w3.org/Graphics/SVG/1.1/DTD/svg11.dtd">
<!-- Generated by graphviz version 2.38.0 (20140413.2041)
 -->
<!-- Title: fastpm_strdup_printf Pages: 1 -->
<svg width="774pt" height="142pt"
 viewBox="0.00 0.00 774.00 142.00" xmlns="http://www.w3.org/2000/svg" xmlns:xlink="http://www.w3.org/1999/xlink">
<g id="graph0" class="graph" transform="scale(1 1) rotate(0) translate(4 138)">
<title>fastpm_strdup_printf</title>
<polygon fill="white" stroke="none" points="-4,4 -4,-138 770,-138 770,4 -4,4"/>
<!-- Node41 -->
<g id="node1" class="node"><title>Node41</title>
<polygon fill="#bfbfbf" stroke="black" points="0,-57.5 0,-76.5 106,-76.5 106,-57.5 0,-57.5"/>
<text text-anchor="middle" x="53" y="-64.5" font-family="Helvetica,sans-Serif" font-size="10.00">fastpm_strdup_printf</text>
</g>
<!-- Node42 -->
<g id="node2" class="node"><title>Node42</title>
<g id="a_node2"><a xlink:href="hci_8c.html#a7e1bef538a45fcfed3d5c5e6d3e3dc88" target="_top" xlink:title="hci_query_filesystem">
<polygon fill="white" stroke="black" points="143.5,-114.5 143.5,-133.5 252.5,-133.5 252.5,-114.5 143.5,-114.5"/>
<text text-anchor="middle" x="198" y="-121.5" font-family="Helvetica,sans-Serif" font-size="10.00">hci_query_filesystem</text>
</a>
</g>
</g>
<!-- Node41&#45;&gt;Node42 -->
<g id="edge1" class="edge"><title>Node41&#45;&gt;Node42</title>
<path fill="none" stroke="midnightblue" d="M87.4693,-80.3409C113.696,-90.795 149.553,-105.087 172.987,-114.428"/>
<polygon fill="midnightblue" stroke="midnightblue" points="88.5202,-76.992 77.935,-76.5405 85.9283,-83.4945 88.5202,-76.992"/>
</g>
<!-- Node48 -->
<g id="node8" class="node"><title>Node48</title>
<g id="a_node8"><a xlink:href="proto_8h.html#aa10a9f512f8d08ea8cf2927cf6dba0b7" target="_top" xlink:title="open_outputfiles">
<polygon fill="white" stroke="black" points="290,-76.5 290,-95.5 378,-95.5 378,-76.5 290,-76.5"/>
<text text-anchor="middle" x="334" y="-83.5" font-family="Helvetica,sans-Serif" font-size="10.00">open_outputfiles</text>
</a>
</g>
</g>
<!-- Node41&#45;&gt;Node48 -->
<g id="edge8" class="edge"><title>Node41&#45;&gt;Node48</title>
<path fill="none" stroke="midnightblue" d="M116.402,-71.2496C169.163,-74.8426 243.375,-79.8965 289.798,-83.058"/>
<polygon fill="midnightblue" stroke="midnightblue" points="116.365,-67.7391 106.15,-70.5515 115.89,-74.7229 116.365,-67.7391"/>
</g>
<!-- Node49 -->
<g id="node9" class="node"><title>Node49</title>
<g id="a_node9"><a xlink:href="petaio_8h.html#ac7b533afc766345881d11628147375db" target="_top" xlink:title="petaio_read_header">
<polygon fill="white" stroke="black" points="147.5,-38.5 147.5,-57.5 248.5,-57.5 248.5,-38.5 147.5,-38.5"/>
<text text-anchor="middle" x="198" y="-45.5" font-family="Helvetica,sans-Serif" font-size="10.00">petaio_read_header</text>
</a>
</g>
</g>
<!-- Node41&#45;&gt;Node49 -->
<g id="edge10" class="edge"><title>Node41&#45;&gt;Node49</title>
<path fill="none" stroke="midnightblue" d="M116.246,-58.7296C126.581,-57.3564 137.178,-55.9483 147.155,-54.6228"/>
<polygon fill="midnightblue" stroke="midnightblue" points="115.483,-55.3001 106.031,-60.0868 116.405,-62.2391 115.483,-55.3001"/>
</g>
<!-- Node51 -->
<g id="node11" class="node"><title>Node51</title>
<g id="a_node11"><a xlink:href="petaio_8h.html#a3dd52bd7a320fa9ef1c7963d060ae4ec" target="_top" xlink:title="petaio_read_snapshot">
<polygon fill="white" stroke="black" points="142,-0.5 142,-19.5 254,-19.5 254,-0.5 142,-0.5"/>
<text text-anchor="middle" x="198" y="-7.5" font-family="Helvetica,sans-Serif" font-size="10.00">petaio_read_snapshot</text>
</a>
</g>
</g>
<!-- Node41&#45;&gt;Node51 -->
<g id="edge13" class="edge"><title>Node41&#45;&gt;Node51</title>
<path fill="none" stroke="midnightblue" d="M84.1541,-53.3134C101.038,-45.8186 122.546,-36.5482 142,-29 150.382,-25.7476 159.584,-22.4603 168.022,-19.5553"/>
<polygon fill="midnightblue" stroke="midnightblue" points="82.5001,-50.2189 74.7984,-57.4945 85.3562,-56.6097 82.5001,-50.2189"/>
</g>
<!-- Node43 -->
<g id="node3" class="node"><title>Node43</title>
<g id="a_node3"><a xlink:href="hci_8h.html#ab140bce619153b809e0fea49a2e1d081" target="_top" xlink:title="hci_query">
<polygon fill="white" stroke="black" points="304.5,-114.5 304.5,-133.5 363.5,-133.5 363.5,-114.5 304.5,-114.5"/>
<text text-anchor="middle" x="334" y="-121.5" font-family="Helvetica,sans-Serif" font-size="10.00">hci_query</text>
</a>
</g>
</g>
<!-- Node42&#45;&gt;Node43 -->
<g id="edge2" class="edge"><title>Node42&#45;&gt;Node43</title>
<path fill="none" stroke="midnightblue" d="M262.743,-124C277.301,-124 292.065,-124 304.277,-124"/>
<polygon fill="midnightblue" stroke="midnightblue" points="262.731,-120.5 252.731,-124 262.731,-127.5 262.731,-120.5"/>
</g>
<!-- Node44 -->
<g id="node4" class="node"><title>Node44</title>
<g id="a_node4"><a xlink:href="run_8c.html#a05e0ffe612d44e6d7f3a9ae5b9df56a2" target="_top" xlink:title="run">
<polygon fill="white" stroke="black" points="422,-114.5 422,-133.5 452,-133.5 452,-114.5 422,-114.5"/>
<text text-anchor="middle" x="437" y="-121.5" font-family="Helvetica,sans-Serif" font-size="10.00">run</text>
</a>
</g>
</g>
<!-- Node43&#45;&gt;Node44 -->
<g id="edge3" class="edge"><title>Node43&#45;&gt;Node44</title>
<path fill="none" stroke="midnightblue" d="M373.856,-124C390.708,-124 409.39,-124 421.827,-124"/>
<polygon fill="midnightblue" stroke="midnightblue" points="373.672,-120.5 363.672,-124 373.672,-127.5 373.672,-120.5"/>
</g>
<!-- Node45 -->
<g id="node5" class="node"><title>Node45</title>
<g id="a_node5"><a xlink:href="main_8c.html#a3c04138a5bfe5d72780bb7e82a18e627" target="_top" xlink:title="main">
<polygon fill="white" stroke="black" points="496,-76.5 496,-95.5 534,-95.5 534,-76.5 496,-76.5"/>
<text text-anchor="middle" x="515" y="-83.5" font-family="Helvetica,sans-Serif" font-size="10.00">main</text>
</a>
</g>
</g>
<!-- Node44&#45;&gt;Node45 -->
<g id="edge4" class="edge"><title>Node44&#45;&gt;Node45</title>
<path fill="none" stroke="midnightblue" d="M461.387,-112.307C472.434,-106.783 485.425,-100.288 495.734,-95.1329"/>
<polygon fill="midnightblue" stroke="midnightblue" points="459.674,-109.25 452.295,-116.852 462.805,-115.511 459.674,-109.25"/>
</g>
<!-- Node46 -->
<g id="node6" class="node"><title>Node46</title>
<g id="a_node6"><a xlink:href="walltime_8h.html#a76d2135b612766d4d665748454b879d6" target="_top" xlink:title="walltime_report">
<polygon fill="white" stroke="black" points="570,-76.5 570,-95.5 653,-95.5 653,-76.5 570,-76.5"/>
<text text-anchor="middle" x="611.5" y="-83.5" font-family="Helvetica,sans-Serif" font-size="10.00">walltime_report</text>
</a>
</g>
</g>
<!-- Node45&#45;&gt;Node46 -->
<g id="edge5" class="edge"><title>Node45&#45;&gt;Node46</title>
<path fill="none" stroke="midnightblue" d="M544.411,-86C552.347,-86 561.132,-86 569.635,-86"/>
<polygon fill="midnightblue" stroke="midnightblue" points="544.221,-82.5001 534.221,-86 544.221,-89.5001 544.221,-82.5001"/>
</g>
<!-- Node47 -->
<g id="node7" class="node"><title>Node47</title>
<g id="a_node7"><a xlink:href="run_8c.html#adc59e9ee1517e4e690694a64ab6a59d2" target="_top" xlink:title="write_cpu_log">
<polygon fill="white" stroke="black" points="689,-95.5 689,-114.5 766,-114.5 766,-95.5 689,-95.5"/>
<text text-anchor="middle" x="727.5" y="-102.5" font-family="Helvetica,sans-Serif" font-size="10.00">write_cpu_log</text>
</a>
</g>
</g>
<!-- Node46&#45;&gt;Node47 -->
<g id="edge6" class="edge"><title>Node46&#45;&gt;Node47</title>
<path fill="none" stroke="midnightblue" d="M663.031,-94.4218C671.684,-95.8641 680.54,-97.3399 688.785,-98.7141"/>
<polygon fill="midnightblue" stroke="midnightblue" points="663.452,-90.9439 653.013,-92.7522 662.302,-97.8486 663.452,-90.9439"/>
</g>
<!-- Node47&#45;&gt;Node44 -->
<g id="edge7" class="edge"><title>Node47&#45;&gt;Node44</title>
<path fill="none" stroke="midnightblue" d="M678.504,-108.161C611.378,-112.582 493.102,-120.371 452.307,-123.058"/>
<polygon fill="midnightblue" stroke="midnightblue" points="679.07,-111.631 688.818,-107.482 678.61,-104.646 679.07,-111.631"/>
</g>
<!-- Node48&#45;&gt;Node45 -->
<g id="edge9" class="edge"><title>Node48&#45;&gt;Node45</title>
<path fill="none" stroke="midnightblue" d="M388.348,-86C424.861,-86 471.023,-86 495.986,-86"/>
<polygon fill="midnightblue" stroke="midnightblue" points="388.331,-82.5001 378.331,-86 388.331,-89.5001 388.331,-82.5001"/>
</g>
<!-- Node50 -->
<g id="node10" class="node"><title>Node50</title>
<g id="a_node10"><a xlink:href="proto_8h.html#a74dc0e5e9eefe11fc8434b62de573146" target="_top" xlink:title="begrun">
<polygon fill="white" stroke="black" points="414,-38.5 414,-57.5 460,-57.5 460,-38.5 414,-38.5"/>
<text text-anchor="middle" x="437" y="-45.5" font-family="Helvetica,sans-Serif" font-size="10.00">begrun</text>
</a>
</g>
</g>
<!-- Node49&#45;&gt;Node50 -->
<g id="edge11" class="edge"><title>Node49&#45;&gt;Node50</title>
<path fill="none" stroke="midnightblue" d="M258.831,-48C309.323,-48 378.822,-48 413.876,-48"/>
<polygon fill="midnightblue" stroke="midnightblue" points="258.683,-44.5001 248.683,-48 258.683,-51.5001 258.683,-44.5001"/>
</g>
<!-- Node50&#45;&gt;Node45 -->
<g id="edge12" class="edge"><title>Node50&#45;&gt;Node45</title>
<path fill="none" stroke="midnightblue" d="M466.285,-62.1427C476.186,-67.093 487.03,-72.5149 495.875,-76.9373"/>
<polygon fill="midnightblue" stroke="midnightblue" points="467.688,-58.9307 457.178,-57.589 464.557,-65.1917 467.688,-58.9307"/>
</g>
<!-- Node52 -->
<g id="node12" class="node"><title>Node52</title>
<g id="a_node12"><a xlink:href="proto_8h.html#ab080cb20bac2a1a6153a84e8cfd15374" target="_top" xlink:title="init">
<polygon fill="white" stroke="black" points="319.5,-0.5 319.5,-19.5 348.5,-19.5 348.5,-0.5 319.5,-0.5"/>
<text text-anchor="middle" x="334" y="-7.5" font-family="Helvetica,sans-Serif" font-size="10.00">init</text>
</a>
</g>
</g>
<!-- Node51&#45;&gt;Node52 -->
<g id="edge14" class="edge"><title>Node51&#45;&gt;Node52</title>
<path fill="none" stroke="midnightblue" d="M264.399,-10C285.124,-10 306.053,-10 319.248,-10"/>
<polygon fill="midnightblue" stroke="midnightblue" points="264.277,-6.5001 254.277,-10 264.277,-13.5001 264.277,-6.5001"/>
</g>
<!-- Node52&#45;&gt;Node50 -->
<g id="edge15" class="edge"><title>Node52&#45;&gt;Node50</title>
<path fill="none" stroke="midnightblue" d="M358.172,-18.7181C374.86,-24.9967 397.245,-33.4189 413.724,-39.6188"/>
<polygon fill="midnightblue" stroke="midnightblue" points="359.213,-15.3705 348.621,-15.1248 356.748,-21.9221 359.213,-15.3705"/>
</g>
</g>
</svg>
