<?xml version="1.0" encoding="UTF-8" standalone="no"?>
<!DOCTYPE svg PUBLIC "-//W3C//DTD SVG 1.1//EN"
 "http://www.w3.org/Graphics/SVG/1.1/DTD/svg11.dtd">
<!-- Generated by graphviz version 2.38.0 (20140413.2041)
 -->
<!-- Title: walltime_clock Pages: 1 -->
<svg width="397pt" height="340pt"
 viewBox="0.00 0.00 397.00 339.77" xmlns="http://www.w3.org/2000/svg" xmlns:xlink="http://www.w3.org/1999/xlink">
<g id="graph0" class="graph" transform="scale(1 1) rotate(0) translate(4 335.769)">
<title>walltime_clock</title>
<polygon fill="white" stroke="none" points="-4,4 -4,-335.769 393,-335.769 393,4 -4,4"/>
<!-- Node18 -->
<g id="node1" class="node"><title>Node18</title>
<polygon fill="#bfbfbf" stroke="black" points="197.5,-187.561 197.5,-206.561 278.5,-206.561 278.5,-187.561 197.5,-187.561"/>
<text text-anchor="middle" x="238" y="-194.561" font-family="Helvetica,sans-Serif" font-size="10.00">walltime_clock</text>
</g>
<!-- Node19 -->
<g id="node2" class="node"><title>Node19</title>
<g id="a_node2"><a xlink:href="walltime_8c.html#a7e97b1e5e48d21dd93fb962dbd031415" target="_top" xlink:title="clockcmp">
<polygon fill="white" stroke="black" points="244.5,-249.915 244.5,-268.915 303.5,-268.915 303.5,-249.915 244.5,-249.915"/>
<text text-anchor="middle" x="274" y="-256.915" font-family="Helvetica,sans-Serif" font-size="10.00">clockcmp</text>
</a>
</g>
</g>
<!-- Node18&#45;&gt;Node19 -->
<g id="edge1" class="edge"><title>Node18&#45;&gt;Node19</title>
<path fill="none" stroke="midnightblue" d="M243.625,-206.804C248.825,-215.811 256.697,-229.445 263.123,-240.576"/>
<polygon fill="midnightblue" stroke="midnightblue" points="260.265,-242.625 268.296,-249.535 266.327,-239.125 260.265,-242.625"/>
</g>
<!-- Node20 -->
<g id="node3" class="node"><title>Node20</title>
<g id="a_node3"><a xlink:href="walltime_8c.html#a771e7f4e5961eb4f5b9b1c5c75b66cf3" target="_top" xlink:title="walltime_clock_insert">
<polygon fill="white" stroke="black" points="147,-125.208 147,-144.208 257,-144.208 257,-125.208 147,-125.208"/>
<text text-anchor="middle" x="202" y="-132.208" font-family="Helvetica,sans-Serif" font-size="10.00">walltime_clock_insert</text>
</a>
</g>
</g>
<!-- Node18&#45;&gt;Node20 -->
<g id="edge2" class="edge"><title>Node18&#45;&gt;Node20</title>
<path fill="none" stroke="midnightblue" d="M232.375,-187.319C227.175,-178.312 219.303,-164.678 212.877,-153.547"/>
<polygon fill="midnightblue" stroke="midnightblue" points="215.735,-151.498 207.704,-144.588 209.673,-154.998 215.735,-151.498"/>
</g>
<!-- Node20&#45;&gt;Node19 -->
<g id="edge3" class="edge"><title>Node20&#45;&gt;Node19</title>
<path fill="none" stroke="midnightblue" d="M207.65,-144.493C219.637,-165.256 247.786,-214.012 263.29,-240.865"/>
<polygon fill="midnightblue" stroke="midnightblue" points="260.345,-242.765 268.377,-249.675 266.408,-239.265 260.345,-242.765"/>
</g>
<!-- Node21 -->
<g id="node4" class="node"><title>Node21</title>
<g id="a_node4"><a xlink:href="openmpsort_8c.html#a8938b38d71dd3b45bfc7cc745c096248" target="_top" xlink:title="qsort_openmp">
<polygon fill="white" stroke="black" points="127,-62.8538 127,-81.8538 205,-81.8538 205,-62.8538 127,-62.8538"/>
<text text-anchor="middle" x="166" y="-69.8538" font-family="Helvetica,sans-Serif" font-size="10.00">qsort_openmp</text>
</a>
</g>
</g>
<!-- Node20&#45;&gt;Node21 -->
<g id="edge4" class="edge"><title>Node20&#45;&gt;Node21</title>
<path fill="none" stroke="midnightblue" d="M196.375,-124.965C191.175,-115.958 183.303,-102.324 176.877,-91.1929"/>
<polygon fill="midnightblue" stroke="midnightblue" points="179.735,-89.1442 171.704,-82.234 173.673,-92.6443 179.735,-89.1442"/>
</g>
<!-- Node24 -->
<g id="node7" class="node"><title>Node24</title>
<g id="a_node7"><a xlink:href="walltime_8c.html#a4f4dd186dc5d9dbfc87eaaf30ffb3642" target="_top" xlink:title="walltime_clock">
<polygon fill="white" stroke="black" points="269.5,-312.269 269.5,-331.269 350.5,-331.269 350.5,-312.269 269.5,-312.269"/>
<text text-anchor="middle" x="310" y="-319.269" font-family="Helvetica,sans-Serif" font-size="10.00">walltime_clock</text>
</a>
</g>
</g>
<!-- Node20&#45;&gt;Node24 -->
<g id="edge7" class="edge"><title>Node20&#45;&gt;Node24</title>
<path fill="none" stroke="midnightblue" d="M204.083,-144.222C216.01,-173.936 267.895,-264.76 294.533,-303.754"/>
<polygon fill="midnightblue" stroke="midnightblue" points="291.786,-305.932 300.419,-312.074 297.501,-301.889 291.786,-305.932"/>
</g>
<!-- Node22 -->
<g id="node5" class="node"><title>Node22</title>
<g id="a_node5"><a xlink:href="openmpsort_8c.html#af794f526e2627202b5e7d35506fa3434" target="_top" xlink:title="merge">
<polygon fill="white" stroke="black" points="-1.42109e-14,-187.561 -1.42109e-14,-206.561 44,-206.561 44,-187.561 -1.42109e-14,-187.561"/>
<text text-anchor="middle" x="22" y="-194.561" font-family="Helvetica,sans-Serif" font-size="10.00">merge</text>
</a>
</g>
</g>
<!-- Node21&#45;&gt;Node22 -->
<g id="edge5" class="edge"><title>Node21&#45;&gt;Node22</title>
<path fill="none" stroke="midnightblue" d="M154.701,-82.1394C130.095,-103.448 71.4422,-154.243 41.0255,-180.585"/>
<polygon fill="midnightblue" stroke="midnightblue" points="38.515,-178.129 33.2469,-187.321 43.0976,-183.421 38.515,-178.129"/>
</g>
<!-- Node23 -->
<g id="node6" class="node"><title>Node23</title>
<g id="a_node6"><a xlink:href="openmpsort_8c.html#a9af28c641be3cee5fdee6ec137e84c9d" target="_top" xlink:title="msort_with_tmp">
<polygon fill="white" stroke="black" points="303,-0.5 303,-19.5 389,-19.5 389,-0.5 303,-0.5"/>
<text text-anchor="middle" x="346" y="-7.5" font-family="Helvetica,sans-Serif" font-size="10.00">msort_with_tmp</text>
</a>
</g>
</g>
<!-- Node21&#45;&gt;Node23 -->
<g id="edge6" class="edge"><title>Node21&#45;&gt;Node23</title>
<path fill="none" stroke="midnightblue" d="M193.731,-62.7477C224.607,-52.0519 274.661,-34.7125 308.892,-22.8544"/>
<polygon fill="midnightblue" stroke="midnightblue" points="310.23,-26.0953 318.533,-19.5147 307.939,-19.4809 310.23,-26.0953"/>
</g>
<!-- Node24&#45;&gt;Node19 -->
<g id="edge8" class="edge"><title>Node24&#45;&gt;Node19</title>
<path fill="none" stroke="midnightblue" d="M304.375,-312.026C299.175,-303.019 291.303,-289.386 284.877,-278.254"/>
<polygon fill="midnightblue" stroke="midnightblue" points="287.735,-276.206 279.704,-269.295 281.673,-279.706 287.735,-276.206"/>
</g>
<!-- Node24&#45;&gt;Node20 -->
<g id="edge9" class="edge"><title>Node24&#45;&gt;Node20</title>
<path fill="none" stroke="midnightblue" d="M307.917,-312.255C295.99,-282.541 244.105,-191.716 217.467,-152.723"/>
<polygon fill="midnightblue" stroke="midnightblue" points="220.214,-150.545 211.581,-144.403 214.499,-154.588 220.214,-150.545"/>
</g>
</g>
</svg>
