<?xml version="1.0" encoding="UTF-8" standalone="no"?>
<!DOCTYPE svg PUBLIC "-//W3C//DTD SVG 1.1//EN"
 "http://www.w3.org/Graphics/SVG/1.1/DTD/svg11.dtd">
<!-- Generated by graphviz version 2.50.0 (0)
 -->
<!-- Title: libgadget/walltime.h Pages: 1 -->
<svg width="3894pt" height="95pt"
 viewBox="0.00 0.00 3894.00 95.00" xmlns="http://www.w3.org/2000/svg" xmlns:xlink="http://www.w3.org/1999/xlink">
<g id="graph0" class="graph" transform="scale(1 1) rotate(0) translate(4 91)">
<title>libgadget/walltime.h</title>
<polygon fill="white" stroke="transparent" points="-4,4 -4,-91 3890,-91 3890,4 -4,4"/>
<!-- Node1 -->
<g id="node1" class="node">
<title>Node1</title>
<g id="a_node1"><a xlink:title=" ">
<polygon fill="#bfbfbf" stroke="black" points="1933,-67.5 1933,-86.5 2050,-86.5 2050,-67.5 1933,-67.5"/>
<text text-anchor="middle" x="1991.5" y="-74.5" font-family="Helvetica,sans-Serif" font-size="10.00">libgadget/walltime.h</text>
</a>
</g>
</g>
<!-- Node2 -->
<g id="node2" class="node">
<title>Node2</title>
<g id="a_node2"><a xlink:href="blackhole_8c.html" target="_top" xlink:title="routines for gas accretion onto black holes, and black hole mergers">
<polygon fill="white" stroke="black" points="0,-6 0,-25 121,-25 121,-6 0,-6"/>
<text text-anchor="middle" x="60.5" y="-13" font-family="Helvetica,sans-Serif" font-size="10.00">libgadget/blackhole.c</text>
</a>
</g>
</g>
<!-- Node1&#45;&gt;Node2 -->
<g id="edge1" class="edge">
<title>Node1&#45;&gt;Node2</title>
<path fill="none" stroke="midnightblue" d="M1922.49,-76.02C1629.45,-75.86 486.81,-72.51 129.5,-31 118.19,-29.69 105.99,-27.41 95.04,-25.05"/>
<polygon fill="midnightblue" stroke="midnightblue" points="1922.56,-79.52 1932.56,-76.03 1922.56,-72.52 1922.56,-79.52"/>
</g>
<!-- Node3 -->
<g id="node3" class="node">
<title>Node3</title>
<g id="a_node3"><a xlink:href="checkpoint_8c.html" target="_top" xlink:title=" ">
<polygon fill="white" stroke="black" points="139,-6 139,-25 266,-25 266,-6 139,-6"/>
<text text-anchor="middle" x="202.5" y="-13" font-family="Helvetica,sans-Serif" font-size="10.00">libgadget/checkpoint.c</text>
</a>
</g>
</g>
<!-- Node1&#45;&gt;Node3 -->
<g id="edge2" class="edge">
<title>Node1&#45;&gt;Node3</title>
<path fill="none" stroke="midnightblue" d="M1922.48,-75.78C1643.94,-74.65 601.97,-67.99 274.5,-31 262.72,-29.67 249.99,-27.39 238.57,-25.03"/>
<polygon fill="midnightblue" stroke="midnightblue" points="1922.83,-79.28 1932.84,-75.82 1922.85,-72.28 1922.83,-79.28"/>
</g>
<!-- Node4 -->
<g id="node4" class="node">
<title>Node4</title>
<g id="a_node4"><a xlink:href="cooling__qso__lightup_8c.html" target="_top" xlink:title=" ">
<polygon fill="white" stroke="black" points="284,-0.5 284,-30.5 407,-30.5 407,-0.5 284,-0.5"/>
<text text-anchor="start" x="292" y="-18.5" font-family="Helvetica,sans-Serif" font-size="10.00">libgadget/cooling_qso</text>
<text text-anchor="middle" x="345.5" y="-7.5" font-family="Helvetica,sans-Serif" font-size="10.00">_lightup.c</text>
</a>
</g>
</g>
<!-- Node1&#45;&gt;Node4 -->
<g id="edge3" class="edge">
<title>Node1&#45;&gt;Node4</title>
<path fill="none" stroke="midnightblue" d="M1922.56,-75.62C1658.95,-73.9 714.66,-65.44 416.5,-31 413.5,-30.65 410.44,-30.24 407.35,-29.79"/>
<polygon fill="midnightblue" stroke="midnightblue" points="1922.74,-79.12 1932.76,-75.68 1922.78,-72.12 1922.74,-79.12"/>
</g>
<!-- Node5 -->
<g id="node5" class="node">
<title>Node5</title>
<g id="a_node5"><a xlink:href="density_8c.html" target="_top" xlink:title="SPH density computation and smoothing length determination.">
<polygon fill="white" stroke="black" points="425.5,-6 425.5,-25 533.5,-25 533.5,-6 425.5,-6"/>
<text text-anchor="middle" x="479.5" y="-13" font-family="Helvetica,sans-Serif" font-size="10.00">libgadget/density.c</text>
</a>
</g>
</g>
<!-- Node1&#45;&gt;Node5 -->
<g id="edge4" class="edge">
<title>Node1&#45;&gt;Node5</title>
<path fill="none" stroke="midnightblue" d="M1922.68,-75.64C1672.88,-74.07 814.39,-66.17 542.5,-31 532.15,-29.66 521,-27.38 511.01,-25.02"/>
<polygon fill="midnightblue" stroke="midnightblue" points="1922.7,-79.14 1932.72,-75.7 1922.74,-72.14 1922.7,-79.14"/>
</g>
<!-- Node6 -->
<g id="node6" class="node">
<title>Node6</title>
<g id="a_node6"><a xlink:href="domain_8c.html" target="_top" xlink:title="code for domain decomposition">
<polygon fill="white" stroke="black" points="551.5,-6 551.5,-25 661.5,-25 661.5,-6 551.5,-6"/>
<text text-anchor="middle" x="606.5" y="-13" font-family="Helvetica,sans-Serif" font-size="10.00">libgadget/domain.c</text>
</a>
</g>
</g>
<!-- Node1&#45;&gt;Node6 -->
<g id="edge5" class="edge">
<title>Node1&#45;&gt;Node6</title>
<path fill="none" stroke="midnightblue" d="M1922.55,-75.37C1687.14,-72.95 916.19,-62.73 670.5,-31 660.11,-29.66 648.92,-27.41 638.85,-25.08"/>
<polygon fill="midnightblue" stroke="midnightblue" points="1922.66,-78.87 1932.69,-75.47 1922.73,-71.87 1922.66,-78.87"/>
</g>
<!-- Node7 -->
<g id="node7" class="node">
<title>Node7</title>
<g id="a_node7"><a xlink:href="drift_8c.html" target="_top" xlink:title=" ">
<polygon fill="white" stroke="black" points="680,-6 680,-25 773,-25 773,-6 680,-6"/>
<text text-anchor="middle" x="726.5" y="-13" font-family="Helvetica,sans-Serif" font-size="10.00">libgadget/drift.c</text>
</a>
</g>
</g>
<!-- Node1&#45;&gt;Node7 -->
<g id="edge6" class="edge">
<title>Node1&#45;&gt;Node7</title>
<path fill="none" stroke="midnightblue" d="M1922.76,-75.44C1700.7,-73.3 1004.09,-64.07 781.5,-31 772.42,-29.65 762.67,-27.37 753.95,-25.01"/>
<polygon fill="midnightblue" stroke="midnightblue" points="1922.94,-78.94 1932.97,-75.53 1923.01,-71.94 1922.94,-78.94"/>
</g>
<!-- Node8 -->
<g id="node8" class="node">
<title>Node8</title>
<g id="a_node8"><a xlink:href="exchange_8c.html" target="_top" xlink:title=" ">
<polygon fill="white" stroke="black" points="791,-6 791,-25 912,-25 912,-6 791,-6"/>
<text text-anchor="middle" x="851.5" y="-13" font-family="Helvetica,sans-Serif" font-size="10.00">libgadget/exchange.c</text>
</a>
</g>
</g>
<!-- Node1&#45;&gt;Node8 -->
<g id="edge7" class="edge">
<title>Node1&#45;&gt;Node8</title>
<path fill="none" stroke="midnightblue" d="M1922.88,-74.57C1718.58,-70.08 1116.45,-55.13 921.5,-31 910.17,-29.6 897.94,-27.33 886.93,-25"/>
<polygon fill="midnightblue" stroke="midnightblue" points="1922.81,-78.07 1932.88,-74.79 1922.96,-71.07 1922.81,-78.07"/>
</g>
<!-- Node9 -->
<g id="node9" class="node">
<title>Node9</title>
<g id="a_node9"><a xlink:href="fof_8c.html" target="_top" xlink:title="parallel FoF group finder">
<polygon fill="white" stroke="black" points="930.5,-6 930.5,-25 1016.5,-25 1016.5,-6 930.5,-6"/>
<text text-anchor="middle" x="973.5" y="-13" font-family="Helvetica,sans-Serif" font-size="10.00">libgadget/fof.c</text>
</a>
</g>
</g>
<!-- Node1&#45;&gt;Node9 -->
<g id="edge8" class="edge">
<title>Node1&#45;&gt;Node9</title>
<path fill="none" stroke="midnightblue" d="M1922.7,-74.81C1731.86,-71.18 1198.55,-58.79 1025.5,-31 1016.99,-29.63 1007.88,-27.38 999.7,-25.04"/>
<polygon fill="midnightblue" stroke="midnightblue" points="1922.82,-78.31 1932.88,-75 1922.95,-71.31 1922.82,-78.31"/>
</g>
<!-- Node10 -->
<g id="node10" class="node">
<title>Node10</title>
<g id="a_node10"><a xlink:href="fofpetaio_8c.html" target="_top" xlink:title=" ">
<polygon fill="white" stroke="black" points="1034.5,-6 1034.5,-25 1152.5,-25 1152.5,-6 1034.5,-6"/>
<text text-anchor="middle" x="1093.5" y="-13" font-family="Helvetica,sans-Serif" font-size="10.00">libgadget/fofpetaio.c</text>
</a>
</g>
</g>
<!-- Node1&#45;&gt;Node10 -->
<g id="edge9" class="edge">
<title>Node1&#45;&gt;Node10</title>
<path fill="none" stroke="midnightblue" d="M1922.5,-75.89C1779.78,-74.85 1442.01,-68.28 1161.5,-31 1150.61,-29.55 1138.87,-27.3 1128.26,-25"/>
<polygon fill="midnightblue" stroke="midnightblue" points="1922.82,-79.39 1932.84,-75.95 1922.87,-72.39 1922.82,-79.39"/>
</g>
<!-- Node11 -->
<g id="node11" class="node">
<title>Node11</title>
<g id="a_node11"><a xlink:href="forcetree_8c.html" target="_top" xlink:title="gravitational tree">
<polygon fill="white" stroke="black" points="1170.5,-6 1170.5,-25 1288.5,-25 1288.5,-6 1170.5,-6"/>
<text text-anchor="middle" x="1229.5" y="-13" font-family="Helvetica,sans-Serif" font-size="10.00">libgadget/forcetree.c</text>
</a>
</g>
</g>
<!-- Node1&#45;&gt;Node11 -->
<g id="edge10" class="edge">
<title>Node1&#45;&gt;Node11</title>
<path fill="none" stroke="midnightblue" d="M1922.52,-74.84C1797.4,-72.01 1524.93,-62.45 1297.5,-31 1286.74,-29.51 1275.14,-27.28 1264.62,-25.01"/>
<polygon fill="midnightblue" stroke="midnightblue" points="1922.64,-78.35 1932.72,-75.07 1922.79,-71.35 1922.64,-78.35"/>
</g>
<!-- Node12 -->
<g id="node12" class="node">
<title>Node12</title>
<g id="a_node12"><a xlink:href="gravpm_8c.html" target="_top" xlink:title=" ">
<polygon fill="white" stroke="black" points="1307,-6 1307,-25 1418,-25 1418,-6 1307,-6"/>
<text text-anchor="middle" x="1362.5" y="-13" font-family="Helvetica,sans-Serif" font-size="10.00">libgadget/gravpm.c</text>
</a>
</g>
</g>
<!-- Node1&#45;&gt;Node12 -->
<g id="edge11" class="edge">
<title>Node1&#45;&gt;Node12</title>
<path fill="none" stroke="midnightblue" d="M1922.43,-73.6C1815.75,-69.2 1604.69,-57.7 1427.5,-31 1417.32,-29.47 1406.37,-27.25 1396.4,-25"/>
<polygon fill="midnightblue" stroke="midnightblue" points="1922.6,-77.11 1932.73,-74.02 1922.88,-70.12 1922.6,-77.11"/>
</g>
<!-- Node13 -->
<g id="node13" class="node">
<title>Node13</title>
<g id="a_node13"><a xlink:href="gravshort-pair_8c.html" target="_top" xlink:title=" ">
<polygon fill="white" stroke="black" points="1436.5,-0.5 1436.5,-30.5 1548.5,-30.5 1548.5,-0.5 1436.5,-0.5"/>
<text text-anchor="start" x="1444.5" y="-18.5" font-family="Helvetica,sans-Serif" font-size="10.00">libgadget/gravshort</text>
<text text-anchor="middle" x="1492.5" y="-7.5" font-family="Helvetica,sans-Serif" font-size="10.00">&#45;pair.c</text>
</a>
</g>
</g>
<!-- Node1&#45;&gt;Node13 -->
<g id="edge12" class="edge">
<title>Node1&#45;&gt;Node13</title>
<path fill="none" stroke="midnightblue" d="M1922.81,-71.36C1836.97,-64.98 1685.75,-51.88 1557.5,-31 1554.65,-30.54 1551.73,-30.02 1548.79,-29.48"/>
<polygon fill="midnightblue" stroke="midnightblue" points="1922.72,-74.86 1932.95,-72.1 1923.23,-67.88 1922.72,-74.86"/>
</g>
<!-- Node14 -->
<g id="node14" class="node">
<title>Node14</title>
<g id="a_node14"><a xlink:href="gravshort-tree_8c.html" target="_top" xlink:title=" ">
<polygon fill="white" stroke="black" points="1566.5,-0.5 1566.5,-30.5 1678.5,-30.5 1678.5,-0.5 1566.5,-0.5"/>
<text text-anchor="start" x="1574.5" y="-18.5" font-family="Helvetica,sans-Serif" font-size="10.00">libgadget/gravshort</text>
<text text-anchor="middle" x="1622.5" y="-7.5" font-family="Helvetica,sans-Serif" font-size="10.00">&#45;tree.c</text>
</a>
</g>
</g>
<!-- Node1&#45;&gt;Node14 -->
<g id="edge13" class="edge">
<title>Node1&#45;&gt;Node14</title>
<path fill="none" stroke="midnightblue" d="M1922.71,-67.27C1860.94,-59.08 1767.88,-45.89 1687.5,-31 1684.66,-30.47 1681.75,-29.91 1678.82,-29.33"/>
<polygon fill="midnightblue" stroke="midnightblue" points="1922.36,-70.75 1932.73,-68.59 1923.27,-63.81 1922.36,-70.75"/>
</g>
<!-- Node15 -->
<g id="node15" class="node">
<title>Node15</title>
<g id="a_node15"><a xlink:href="hydra_8c.html" target="_top" xlink:title="Computation of SPH forces and rate of entropy generation.">
<polygon fill="white" stroke="black" points="1697,-6 1697,-25 1798,-25 1798,-6 1697,-6"/>
<text text-anchor="middle" x="1747.5" y="-13" font-family="Helvetica,sans-Serif" font-size="10.00">libgadget/hydra.c</text>
</a>
</g>
</g>
<!-- Node1&#45;&gt;Node15 -->
<g id="edge14" class="edge">
<title>Node1&#45;&gt;Node15</title>
<path fill="none" stroke="midnightblue" d="M1946.28,-65.03C1908.82,-55.94 1854.19,-42.66 1806.5,-31 1798.61,-29.07 1790.13,-26.99 1782.13,-25.02"/>
<polygon fill="midnightblue" stroke="midnightblue" points="1945.83,-68.52 1956.37,-67.48 1947.48,-61.72 1945.83,-68.52"/>
</g>
<!-- Node16 -->
<g id="node16" class="node">
<title>Node16</title>
<g id="a_node16"><a xlink:href="init_8c.html" target="_top" xlink:title="code for initialisation of a simulation from initial conditions">
<polygon fill="white" stroke="black" points="1816,-6 1816,-25 1905,-25 1905,-6 1816,-6"/>
<text text-anchor="middle" x="1860.5" y="-13" font-family="Helvetica,sans-Serif" font-size="10.00">libgadget/init.c</text>
</a>
</g>
</g>
<!-- Node1&#45;&gt;Node16 -->
<g id="edge15" class="edge">
<title>Node1&#45;&gt;Node16</title>
<path fill="none" stroke="midnightblue" d="M1963.6,-63.33C1938.17,-51.78 1901.3,-35.03 1879.23,-25.01"/>
<polygon fill="midnightblue" stroke="midnightblue" points="1962.18,-66.53 1972.73,-67.48 1965.07,-60.15 1962.18,-66.53"/>
</g>
<!-- Node17 -->
<g id="node17" class="node">
<title>Node17</title>
<g id="a_node17"><a xlink:href="metal__return_8c.html" target="_top" xlink:title="Compute the mass return rate of metals from stellar evolution.">
<polygon fill="white" stroke="black" points="1923,-6 1923,-25 2060,-25 2060,-6 1923,-6"/>
<text text-anchor="middle" x="1991.5" y="-13" font-family="Helvetica,sans-Serif" font-size="10.00">libgadget/metal_return.c</text>
</a>
</g>
</g>
<!-- Node1&#45;&gt;Node17 -->
<g id="edge16" class="edge">
<title>Node1&#45;&gt;Node17</title>
<path fill="none" stroke="midnightblue" d="M1991.5,-57.32C1991.5,-46.5 1991.5,-33.4 1991.5,-25.01"/>
<polygon fill="midnightblue" stroke="midnightblue" points="1988,-57.48 1991.5,-67.48 1995,-57.48 1988,-57.48"/>
</g>
<!-- Node18 -->
<g id="node18" class="node">
<title>Node18</title>
<g id="a_node18"><a xlink:href="petapm_8c.html" target="_top" xlink:title=" ">
<polygon fill="white" stroke="black" points="2078,-6 2078,-25 2189,-25 2189,-6 2078,-6"/>
<text text-anchor="middle" x="2133.5" y="-13" font-family="Helvetica,sans-Serif" font-size="10.00">libgadget/petapm.c</text>
</a>
</g>
</g>
<!-- Node1&#45;&gt;Node18 -->
<g id="edge17" class="edge">
<title>Node1&#45;&gt;Node18</title>
<path fill="none" stroke="midnightblue" d="M2021.38,-63.48C2048.96,-51.92 2089.17,-35.08 2113.19,-25.01"/>
<polygon fill="midnightblue" stroke="midnightblue" points="2019.72,-60.38 2011.85,-67.48 2022.42,-66.84 2019.72,-60.38"/>
</g>
<!-- Node19 -->
<g id="node19" class="node">
<title>Node19</title>
<g id="a_node19"><a xlink:href="run_8c.html" target="_top" xlink:title="iterates over timesteps, main loop">
<polygon fill="white" stroke="black" points="2207,-6 2207,-25 2296,-25 2296,-6 2207,-6"/>
<text text-anchor="middle" x="2251.5" y="-13" font-family="Helvetica,sans-Serif" font-size="10.00">libgadget/run.c</text>
</a>
</g>
</g>
<!-- Node1&#45;&gt;Node19 -->
<g id="edge18" class="edge">
<title>Node1&#45;&gt;Node19</title>
<path fill="none" stroke="midnightblue" d="M2044.06,-65.38C2086.01,-56.7 2146.2,-43.83 2198.5,-31 2205.91,-29.18 2213.87,-27.08 2221.3,-25.06"/>
<polygon fill="midnightblue" stroke="midnightblue" points="2043.16,-61.99 2034.07,-67.43 2044.57,-68.84 2043.16,-61.99"/>
</g>
<!-- Node20 -->
<g id="node20" class="node">
<title>Node20</title>
<g id="a_node20"><a xlink:href="sfr__eff_8c.html" target="_top" xlink:title=" ">
<polygon fill="white" stroke="black" points="2314.5,-6 2314.5,-25 2418.5,-25 2418.5,-6 2314.5,-6"/>
<text text-anchor="middle" x="2366.5" y="-13" font-family="Helvetica,sans-Serif" font-size="10.00">libgadget/sfr_eff.c</text>
</a>
</g>
</g>
<!-- Node1&#45;&gt;Node20 -->
<g id="edge19" class="edge">
<title>Node1&#45;&gt;Node20</title>
<path fill="none" stroke="midnightblue" d="M2060.16,-67.99C2123.97,-60.11 2221.54,-46.96 2305.5,-31 2314.48,-29.29 2324.14,-27.14 2333.06,-25.03"/>
<polygon fill="midnightblue" stroke="midnightblue" points="2059.71,-64.52 2050.21,-69.21 2060.57,-71.46 2059.71,-64.52"/>
</g>
<!-- Node21 -->
<g id="node21" class="node">
<title>Node21</title>
<g id="a_node21"><a xlink:href="stats_8c.html" target="_top" xlink:title=" ">
<polygon fill="white" stroke="black" points="2436.5,-6 2436.5,-25 2534.5,-25 2534.5,-6 2436.5,-6"/>
<text text-anchor="middle" x="2485.5" y="-13" font-family="Helvetica,sans-Serif" font-size="10.00">libgadget/stats.c</text>
</a>
</g>
</g>
<!-- Node1&#45;&gt;Node21 -->
<g id="edge20" class="edge">
<title>Node1&#45;&gt;Node21</title>
<path fill="none" stroke="midnightblue" d="M2060.23,-71.94C2146.5,-66.14 2298.76,-53.62 2427.5,-31 2436.39,-29.44 2445.94,-27.26 2454.67,-25.07"/>
<polygon fill="midnightblue" stroke="midnightblue" points="2059.79,-68.46 2050.05,-72.61 2060.26,-75.44 2059.79,-68.46"/>
</g>
<!-- Node22 -->
<g id="node22" class="node">
<title>Node22</title>
<g id="a_node22"><a xlink:href="test__density_8c.html" target="_top" xlink:title=" ">
<polygon fill="white" stroke="black" points="2553,-0.5 2553,-30.5 2664,-30.5 2664,-0.5 2553,-0.5"/>
<text text-anchor="start" x="2561" y="-18.5" font-family="Helvetica,sans-Serif" font-size="10.00">libgadget/tests/test</text>
<text text-anchor="middle" x="2608.5" y="-7.5" font-family="Helvetica,sans-Serif" font-size="10.00">_density.c</text>
</a>
</g>
</g>
<!-- Node1&#45;&gt;Node22 -->
<g id="edge21" class="edge">
<title>Node1&#45;&gt;Node22</title>
<path fill="none" stroke="midnightblue" d="M2060.35,-73.44C2165.15,-68.87 2370.77,-57.18 2543.5,-31 2546.59,-30.53 2549.75,-30 2552.93,-29.43"/>
<polygon fill="midnightblue" stroke="midnightblue" points="2060.07,-69.95 2050.22,-73.88 2060.37,-76.95 2060.07,-69.95"/>
</g>
<!-- Node23 -->
<g id="node23" class="node">
<title>Node23</title>
<g id="a_node23"><a xlink:href="test__exchange_8c.html" target="_top" xlink:title=" ">
<polygon fill="white" stroke="black" points="2682,-0.5 2682,-30.5 2793,-30.5 2793,-0.5 2682,-0.5"/>
<text text-anchor="start" x="2690" y="-18.5" font-family="Helvetica,sans-Serif" font-size="10.00">libgadget/tests/test</text>
<text text-anchor="middle" x="2737.5" y="-7.5" font-family="Helvetica,sans-Serif" font-size="10.00">_exchange.c</text>
</a>
</g>
</g>
<!-- Node1&#45;&gt;Node23 -->
<g id="edge22" class="edge">
<title>Node1&#45;&gt;Node23</title>
<path fill="none" stroke="midnightblue" d="M2060.28,-75.02C2183.72,-72.48 2450.78,-63.37 2673.5,-31 2676.21,-30.61 2678.97,-30.16 2681.75,-29.67"/>
<polygon fill="midnightblue" stroke="midnightblue" points="2060.14,-71.52 2050.21,-75.22 2060.28,-78.52 2060.14,-71.52"/>
</g>
<!-- Node24 -->
<g id="node24" class="node">
<title>Node24</title>
<g id="a_node24"><a xlink:href="test__fof_8c.html" target="_top" xlink:title=" ">
<polygon fill="white" stroke="black" points="2811,-0.5 2811,-30.5 2922,-30.5 2922,-0.5 2811,-0.5"/>
<text text-anchor="start" x="2819" y="-18.5" font-family="Helvetica,sans-Serif" font-size="10.00">libgadget/tests/test</text>
<text text-anchor="middle" x="2866.5" y="-7.5" font-family="Helvetica,sans-Serif" font-size="10.00">_fof.c</text>
</a>
</g>
</g>
<!-- Node1&#45;&gt;Node24 -->
<g id="edge23" class="edge">
<title>Node1&#45;&gt;Node24</title>
<path fill="none" stroke="midnightblue" d="M2060.27,-76.05C2200.54,-75.31 2529.5,-69.23 2802.5,-31 2805.21,-30.62 2807.97,-30.19 2810.75,-29.71"/>
<polygon fill="midnightblue" stroke="midnightblue" points="2060.08,-72.55 2050.09,-76.1 2060.11,-79.55 2060.08,-72.55"/>
</g>
<!-- Node25 -->
<g id="node25" class="node">
<title>Node25</title>
<g id="a_node25"><a xlink:href="test__gravity_8c.html" target="_top" xlink:title=" ">
<polygon fill="white" stroke="black" points="2940,-0.5 2940,-30.5 3051,-30.5 3051,-0.5 2940,-0.5"/>
<text text-anchor="start" x="2948" y="-18.5" font-family="Helvetica,sans-Serif" font-size="10.00">libgadget/tests/test</text>
<text text-anchor="middle" x="2995.5" y="-7.5" font-family="Helvetica,sans-Serif" font-size="10.00">_gravity.c</text>
</a>
</g>
</g>
<!-- Node1&#45;&gt;Node25 -->
<g id="edge24" class="edge">
<title>Node1&#45;&gt;Node25</title>
<path fill="none" stroke="midnightblue" d="M2060.5,-76.81C2216.48,-77.75 2607.88,-75.06 2931.5,-31 2934.21,-30.63 2936.97,-30.2 2939.76,-29.73"/>
<polygon fill="midnightblue" stroke="midnightblue" points="2060.15,-73.31 2050.13,-76.74 2060.1,-80.31 2060.15,-73.31"/>
</g>
<!-- Node26 -->
<g id="node26" class="node">
<title>Node26</title>
<g id="a_node26"><a xlink:href="timestep_8c.html" target="_top" xlink:title="routines for &#39;kicking&#39; particles in momentum space and assigning new timesteps">
<polygon fill="white" stroke="black" points="3069,-6 3069,-25 3186,-25 3186,-6 3069,-6"/>
<text text-anchor="middle" x="3127.5" y="-13" font-family="Helvetica,sans-Serif" font-size="10.00">libgadget/timestep.c</text>
</a>
</g>
</g>
<!-- Node1&#45;&gt;Node26 -->
<g id="edge25" class="edge">
<title>Node1&#45;&gt;Node26</title>
<path fill="none" stroke="midnightblue" d="M2060.37,-74.64C2264.8,-70.37 2865.94,-55.96 3060.5,-31 3071.36,-29.61 3083.07,-27.34 3093.61,-25.01"/>
<polygon fill="midnightblue" stroke="midnightblue" points="2060,-71.15 2050.07,-74.86 2060.14,-78.15 2060,-71.15"/>
</g>
<!-- Node27 -->
<g id="node27" class="node">
<title>Node27</title>
<g id="a_node27"><a xlink:href="walltime_8c.html" target="_top" xlink:title=" ">
<polygon fill="white" stroke="black" points="3204.5,-6 3204.5,-25 3320.5,-25 3320.5,-6 3204.5,-6"/>
<text text-anchor="middle" x="3262.5" y="-13" font-family="Helvetica,sans-Serif" font-size="10.00">libgadget/walltime.c</text>
</a>
</g>
</g>
<!-- Node1&#45;&gt;Node27 -->
<g id="edge26" class="edge">
<title>Node1&#45;&gt;Node27</title>
<path fill="none" stroke="midnightblue" d="M2060.22,-75.02C2281.43,-71.62 2973.46,-58.96 3195.5,-31 3206.36,-29.63 3218.07,-27.37 3228.61,-25.04"/>
<polygon fill="midnightblue" stroke="midnightblue" points="2060,-71.52 2050.05,-75.18 2060.1,-78.52 2060,-71.52"/>
</g>
<!-- Node28 -->
<g id="node28" class="node">
<title>Node28</title>
<g id="a_node28"><a xlink:href="winds_8c.html" target="_top" xlink:title=" ">
<polygon fill="white" stroke="black" points="3338.5,-6 3338.5,-25 3440.5,-25 3440.5,-6 3338.5,-6"/>
<text text-anchor="middle" x="3389.5" y="-13" font-family="Helvetica,sans-Serif" font-size="10.00">libgadget/winds.c</text>
</a>
</g>
</g>
<!-- Node1&#45;&gt;Node28 -->
<g id="edge27" class="edge">
<title>Node1&#45;&gt;Node28</title>
<path fill="none" stroke="midnightblue" d="M2060.54,-75.53C2298.06,-73.64 3080.59,-64.9 3329.5,-31 3339.38,-29.65 3349.99,-27.37 3359.51,-25.01"/>
<polygon fill="midnightblue" stroke="midnightblue" points="2060.28,-72.03 2050.31,-75.61 2060.34,-79.03 2060.28,-72.03"/>
</g>
<!-- Node29 -->
<g id="node29" class="node">
<title>Node29</title>
<g id="a_node29"><a xlink:href="glass_8c.html" target="_top" xlink:title=" ">
<polygon fill="white" stroke="black" points="3458.5,-6 3458.5,-25 3550.5,-25 3550.5,-6 3458.5,-6"/>
<text text-anchor="middle" x="3504.5" y="-13" font-family="Helvetica,sans-Serif" font-size="10.00">libgenic/glass.c</text>
</a>
</g>
</g>
<!-- Node1&#45;&gt;Node29 -->
<g id="edge28" class="edge">
<title>Node1&#45;&gt;Node29</title>
<path fill="none" stroke="midnightblue" d="M2060.36,-75.94C2311.29,-75.42 3176.36,-70.69 3449.5,-31 3458.59,-29.68 3468.33,-27.4 3477.06,-25.04"/>
<polygon fill="midnightblue" stroke="midnightblue" points="2060.27,-72.44 2050.28,-75.96 2060.28,-79.44 2060.27,-72.44"/>
</g>
<!-- Node30 -->
<g id="node30" class="node">
<title>Node30</title>
<g id="a_node30"><a xlink:href="save_8c.html" target="_top" xlink:title=" ">
<polygon fill="white" stroke="black" points="3569,-6 3569,-25 3658,-25 3658,-6 3569,-6"/>
<text text-anchor="middle" x="3613.5" y="-13" font-family="Helvetica,sans-Serif" font-size="10.00">libgenic/save.c</text>
</a>
</g>
</g>
<!-- Node1&#45;&gt;Node30 -->
<g id="edge29" class="edge">
<title>Node1&#45;&gt;Node30</title>
<path fill="none" stroke="midnightblue" d="M2060.2,-76.16C2322.91,-76.44 3263.85,-74.33 3559.5,-31 3568.43,-29.69 3578,-27.42 3586.57,-25.06"/>
<polygon fill="midnightblue" stroke="midnightblue" points="2060.05,-72.66 2050.04,-76.15 2060.04,-79.66 2060.05,-72.66"/>
</g>
<!-- Node31 -->
<g id="node31" class="node">
<title>Node31</title>
<g id="a_node31"><a xlink:href="zeldovich_8c.html" target="_top" xlink:title=" ">
<polygon fill="white" stroke="black" points="3676,-6 3676,-25 3789,-25 3789,-6 3676,-6"/>
<text text-anchor="middle" x="3732.5" y="-13" font-family="Helvetica,sans-Serif" font-size="10.00">libgenic/zeldovich.c</text>
</a>
</g>
</g>
<!-- Node1&#45;&gt;Node31 -->
<g id="edge30" class="edge">
<title>Node1&#45;&gt;Node31</title>
<path fill="none" stroke="midnightblue" d="M2060.27,-75.92C2334.28,-75.33 3348.78,-70.45 3667.5,-31 3678.17,-29.68 3689.67,-27.4 3699.98,-25.04"/>
<polygon fill="midnightblue" stroke="midnightblue" points="2060.06,-72.42 2050.07,-75.94 2060.08,-79.42 2060.06,-72.42"/>
</g>
<!-- Node32 -->
<g id="node32" class="node">
<title>Node32</title>
<g id="a_node32"><a xlink:href="genic_2main_8c.html" target="_top" xlink:title=" ">
<polygon fill="white" stroke="black" points="3807,-6 3807,-25 3886,-25 3886,-6 3807,-6"/>
<text text-anchor="middle" x="3846.5" y="-13" font-family="Helvetica,sans-Serif" font-size="10.00">genic/main.c</text>
</a>
</g>
</g>
<!-- Node1&#45;&gt;Node32 -->
<g id="edge31" class="edge">
<title>Node1&#45;&gt;Node32</title>
<path fill="none" stroke="midnightblue" d="M2060.17,-75.38C2369.36,-72.44 3624.83,-58.87 3798.5,-31 3806.58,-29.7 3815.2,-27.4 3822.87,-25.01"/>
<polygon fill="midnightblue" stroke="midnightblue" points="2059.97,-71.88 2050,-75.48 2060.03,-78.88 2059.97,-71.88"/>
</g>
</g>
</svg>
