<?xml version="1.0" encoding="UTF-8" standalone="no"?>
<!DOCTYPE svg PUBLIC "-//W3C//DTD SVG 1.1//EN"
 "http://www.w3.org/Graphics/SVG/1.1/DTD/svg11.dtd">
<!-- Generated by graphviz version 2.38.0 (20140413.2041)
 -->
<!-- Title: walltime_init Pages: 1 -->
<!--zoomable 507 -->
<svg id="main" version="1.1" xmlns="http://www.w3.org/2000/svg" xmlns:xlink="http://www.w3.org/1999/xlink" xml:space="preserve" onload="init(evt)">
<style type="text/css"><![CDATA[
.edge:hover path { stroke: red; }
.edge:hover polygon { stroke: red; fill: red; }
]]></style>
<script type="text/javascript"><![CDATA[
var edges = document.getElementsByTagName('g');
if (edges && edges.length) {
  for (var i=0;i<edges.length;i++) {
    if (edges[i].id.substr(0,4)=='edge') {
      edges[i].setAttribute('class','edge');
    }
  }
}
]]></script>
        <defs>
                <circle id="rim" cx="0" cy="0" r="7"/>
                <circle id="rim2" cx="0" cy="0" r="3.5"/>
                <g id="zoomPlus">
                        <use xlink:href="#rim" fill="#404040">
                                <set attributeName="fill" to="#808080" begin="zoomplus.mouseover" end="zoomplus.mouseout"/>
                        </use>
                        <path d="M-4,0h8M0,-4v8" fill="none" stroke="white" stroke-width="1.5" pointer-events="none"/>
                </g>
                <g id="zoomMin">
                        <use xlink:href="#rim" fill="#404040">
                                <set attributeName="fill" to="#808080" begin="zoomminus.mouseover" end="zoomminus.mouseout"/>
                        </use>
                        <path d="M-4,0h8" fill="none" stroke="white" stroke-width="1.5" pointer-events="none"/>
                </g>
                <g id="dirArrow">
                        <path fill="none" stroke="white" stroke-width="1.5" d="M0,-3.0v7 M-2.5,-0.5L0,-3.0L2.5,-0.5"/>
                </g>
               <g id="resetDef">
                       <use xlink:href="#rim2" fill="#404040">
                               <set attributeName="fill" to="#808080" begin="reset.mouseover" end="reset.mouseout"/>
                       </use>
               </g>
        </defs>

<script type="text/javascript">
var viewWidth = 543;
var viewHeight = 507;
var sectionId = 'dynsection-9';
</script>
<script xlink:href="svgpan.js"/>
<svg id="graph" class="graph">
<g id="viewport">
<title>walltime_init</title>
<polygon fill="white" stroke="none" points="-4,4 -4,-503.332 539.248,-503.332 539.248,4 -4,4"/>
<!-- Node64 -->
<g id="node1" class="node"><title>Node64</title>
<polygon fill="#bfbfbf" stroke="black" points="237.251,-248.249 237.251,-267.249 308.251,-267.249 308.251,-248.249 237.251,-248.249"/>
<text text-anchor="middle" x="272.751" y="-255.249" font-family="Helvetica,sans-Serif" font-size="10.00">walltime_init</text>
</g>
<!-- Node65 -->
<g id="node2" class="node"><title>Node65</title>
<g id="a_node2"><a xlink:href="walltime_8c.html#ab50d178845943619d31eb6fc20665db5" target="_top" xlink:title="seconds">
<polygon fill="white" stroke="black" points="304.5,-205.928 304.5,-224.928 357.5,-224.928 357.5,-205.928 304.5,-205.928"/>
<text text-anchor="middle" x="331" y="-212.928" font-family="Helvetica,sans-Serif" font-size="10.00">seconds</text>
</a>
</g>
</g>
<!-- Node64&#45;&gt;Node65 -->
<g id="edge1" class="edge"><title>Node64&#45;&gt;Node65</title>
<path fill="none" stroke="midnightblue" d="M285.968,-248.146C292.969,-243.059 301.739,-236.688 309.674,-230.922"/>
<polygon fill="midnightblue" stroke="midnightblue" points="311.802,-233.703 317.835,-224.993 307.687,-228.04 311.802,-233.703"/>
</g>
<!-- Node66 -->
<g id="node3" class="node"><title>Node66</title>
<g id="a_node3"><a xlink:href="walltime_8c.html#a771e7f4e5961eb4f5b9b1c5c75b66cf3" target="_top" xlink:title="walltime_clock_insert">
<polygon fill="white" stroke="black" points="159.502,-290.569 159.502,-309.569 269.502,-309.569 269.502,-290.569 159.502,-290.569"/>
<text text-anchor="middle" x="214.502" y="-297.569" font-family="Helvetica,sans-Serif" font-size="10.00">walltime_clock_insert</text>
</a>
</g>
</g>
<!-- Node64&#45;&gt;Node66 -->
<g id="edge2" class="edge"><title>Node64&#45;&gt;Node66</title>
<path fill="none" stroke="midnightblue" d="M259.533,-267.352C252.532,-272.438 243.763,-278.81 235.827,-284.575"/>
<polygon fill="midnightblue" stroke="midnightblue" points="233.7,-281.795 227.667,-290.504 237.814,-287.458 233.7,-281.795"/>
</g>
<!-- Node72 -->
<g id="node9" class="node"><title>Node72</title>
<g id="a_node9"><a xlink:href="walltime_8c.html#ad80362c5b1037e3ac0e91acd6fffc06c" target="_top" xlink:title="walltime_reset">
<polygon fill="white" stroke="black" points="349.249,-163.608 349.249,-182.608 429.249,-182.608 429.249,-163.608 349.249,-163.608"/>
<text text-anchor="middle" x="389.249" y="-170.608" font-family="Helvetica,sans-Serif" font-size="10.00">walltime_reset</text>
</a>
</g>
</g>
<!-- Node64&#45;&gt;Node72 -->
<g id="edge10" class="edge"><title>Node64&#45;&gt;Node72</title>
<path fill="none" stroke="midnightblue" d="M286.115,-248.039C306.129,-233.498 344.082,-205.924 367.946,-188.585"/>
<polygon fill="midnightblue" stroke="midnightblue" points="370.008,-191.413 376.041,-182.704 365.894,-185.75 370.008,-191.413"/>
</g>
<!-- Node67 -->
<g id="node4" class="node"><title>Node67</title>
<g id="a_node4"><a xlink:href="walltime_8c.html#a7e97b1e5e48d21dd93fb962dbd031415" target="_top" xlink:title="clockcmp">
<polygon fill="white" stroke="black" points="476.248,-332.89 476.248,-351.89 535.248,-351.89 535.248,-332.89 476.248,-332.89"/>
<text text-anchor="middle" x="505.748" y="-339.89" font-family="Helvetica,sans-Serif" font-size="10.00">clockcmp</text>
</a>
</g>
</g>
<!-- Node66&#45;&gt;Node67 -->
<g id="edge3" class="edge"><title>Node66&#45;&gt;Node67</title>
<path fill="none" stroke="midnightblue" d="M269.625,-308.079C327.019,-316.419 415.485,-329.274 466.264,-336.652"/>
<polygon fill="midnightblue" stroke="midnightblue" points="465.8,-340.122 476.2,-338.096 466.807,-333.195 465.8,-340.122"/>
</g>
<!-- Node68 -->
<g id="node5" class="node"><title>Node68</title>
<g id="a_node5"><a xlink:href="openmpsort_8c.html#a8938b38d71dd3b45bfc7cc745c096248" target="_top" xlink:title="qsort_openmp">
<polygon fill="white" stroke="black" points="117.252,-332.89 117.252,-351.89 195.252,-351.89 195.252,-332.89 117.252,-332.89"/>
<text text-anchor="middle" x="156.252" y="-339.89" font-family="Helvetica,sans-Serif" font-size="10.00">qsort_openmp</text>
</a>
</g>
</g>
<!-- Node66&#45;&gt;Node68 -->
<g id="edge4" class="edge"><title>Node66&#45;&gt;Node68</title>
<path fill="none" stroke="midnightblue" d="M201.284,-309.672C194.283,-314.759 185.514,-321.13 177.578,-326.896"/>
<polygon fill="midnightblue" stroke="midnightblue" points="175.451,-324.115 169.418,-332.825 179.565,-329.778 175.451,-324.115"/>
</g>
<!-- Node71 -->
<g id="node8" class="node"><title>Node71</title>
<g id="a_node8"><a xlink:href="walltime_8c.html#a4f4dd186dc5d9dbfc87eaaf30ffb3642" target="_top" xlink:title="walltime_clock">
<polygon fill="white" stroke="black" points="223.752,-0.5 223.752,-19.5 304.752,-19.5 304.752,-0.5 223.752,-0.5"/>
<text text-anchor="middle" x="264.252" y="-7.5" font-family="Helvetica,sans-Serif" font-size="10.00">walltime_clock</text>
</a>
</g>
</g>
<!-- Node66&#45;&gt;Node71 -->
<g id="edge7" class="edge"><title>Node66&#45;&gt;Node71</title>
<path fill="none" stroke="midnightblue" d="M218.847,-290.536C231.079,-249.46 259.224,-87.1757 264.46,-30.0321"/>
<polygon fill="midnightblue" stroke="midnightblue" points="267.97,-30.02 265.203,-19.7928 260.988,-29.5131 267.97,-30.02"/>
</g>
<!-- Node69 -->
<g id="node6" class="node"><title>Node69</title>
<g id="a_node6"><a xlink:href="openmpsort_8c.html#af794f526e2627202b5e7d35506fa3434" target="_top" xlink:title="merge">
<polygon fill="white" stroke="black" points="220.003,-479.832 220.003,-498.832 264.003,-498.832 264.003,-479.832 220.003,-479.832"/>
<text text-anchor="middle" x="242.003" y="-486.832" font-family="Helvetica,sans-Serif" font-size="10.00">merge</text>
</a>
</g>
</g>
<!-- Node68&#45;&gt;Node69 -->
<g id="edge5" class="edge"><title>Node68&#45;&gt;Node69</title>
<path fill="none" stroke="midnightblue" d="M161.879,-352.031C175.926,-376.102 212.728,-439.167 231.159,-470.75"/>
<polygon fill="midnightblue" stroke="midnightblue" points="228.18,-472.59 236.244,-479.463 234.226,-469.062 228.18,-472.59"/>
</g>
<!-- Node70 -->
<g id="node7" class="node"><title>Node70</title>
<g id="a_node7"><a xlink:href="openmpsort_8c.html#a9af28c641be3cee5fdee6ec137e84c9d" target="_top" xlink:title="msort_with_tmp">
<polygon fill="white" stroke="black" points="7.10543e-15,-205.928 7.10543e-15,-224.928 86,-224.928 86,-205.928 7.10543e-15,-205.928"/>
<text text-anchor="middle" x="43" y="-212.928" font-family="Helvetica,sans-Serif" font-size="10.00">msort_with_tmp</text>
</a>
</g>
</g>
<!-- Node68&#45;&gt;Node70 -->
<g id="edge6" class="edge"><title>Node68&#45;&gt;Node70</title>
<path fill="none" stroke="midnightblue" d="M147.74,-332.847C128.719,-311.524 82.5463,-259.762 58.3577,-232.645"/>
<polygon fill="midnightblue" stroke="midnightblue" points="60.8797,-230.214 51.6111,-225.082 55.6559,-234.874 60.8797,-230.214"/>
</g>
<!-- Node71&#45;&gt;Node66 -->
<g id="edge9" class="edge"><title>Node71&#45;&gt;Node66</title>
<path fill="none" stroke="midnightblue" d="M259.907,-19.5333C247.675,-60.609 219.53,-222.894 214.294,-280.037"/>
<polygon fill="midnightblue" stroke="midnightblue" points="210.784,-280.049 213.55,-290.277 217.765,-280.556 210.784,-280.049"/>
</g>
<!-- Node71&#45;&gt;Node67 -->
<g id="edge8" class="edge"><title>Node71&#45;&gt;Node67</title>
<path fill="none" stroke="midnightblue" d="M271.219,-19.5893C304.615,-65.5548 448.512,-263.611 492.755,-324.507"/>
<polygon fill="midnightblue" stroke="midnightblue" points="490.043,-326.729 498.752,-332.762 495.706,-322.614 490.043,-326.729"/>
</g>
<!-- Node72&#45;&gt;Node65 -->
<g id="edge11" class="edge"><title>Node72&#45;&gt;Node65</title>
<path fill="none" stroke="midnightblue" d="M376.032,-182.711C369.031,-187.797 360.261,-194.169 352.326,-199.934"/>
<polygon fill="midnightblue" stroke="midnightblue" points="350.198,-197.154 344.165,-205.863 354.313,-202.817 350.198,-197.154"/>
</g>
</g>
</svg>
        <g id="navigator" transform="translate(0 0)" fill="#404254">
                <rect fill="#f2f5e9" fill-opacity="0.5" stroke="#606060" stroke-width=".5" x="0" y="0" width="60" height="60"/>
                <use id="zoomplus" xlink:href="#zoomPlus" x="17" y="9" onmousedown="handleZoom(evt,'in')"/>
                <use id="zoomminus" xlink:href="#zoomMin" x="42" y="9" onmousedown="handleZoom(evt,'out')"/>
                <use id="reset" xlink:href="#resetDef" x="30" y="36" onmousedown="handleReset()"/>
                <g id="arrowUp" xlink:href="#dirArrow" transform="translate(30 24)" onmousedown="handlePan(0,-1)">
                  <use xlink:href="#rim" fill="#404040">
                        <set attributeName="fill" to="#808080" begin="arrowUp.mouseover" end="arrowUp.mouseout"/>
                  </use>
                  <path fill="none" stroke="white" stroke-width="1.5" d="M0,-3.0v7 M-2.5,-0.5L0,-3.0L2.5,-0.5"/>
                </g>
                <g id="arrowRight" xlink:href="#dirArrow" transform="rotate(90) translate(36 -43)" onmousedown="handlePan(1,0)">
                  <use xlink:href="#rim" fill="#404040">
                        <set attributeName="fill" to="#808080" begin="arrowRight.mouseover" end="arrowRight.mouseout"/>
                  </use>
                  <path fill="none" stroke="white" stroke-width="1.5" d="M0,-3.0v7 M-2.5,-0.5L0,-3.0L2.5,-0.5"/>
                </g>
                <g id="arrowDown" xlink:href="#dirArrow" transform="rotate(180) translate(-30 -48)" onmousedown="handlePan(0,1)">
                  <use xlink:href="#rim" fill="#404040">
                        <set attributeName="fill" to="#808080" begin="arrowDown.mouseover" end="arrowDown.mouseout"/>
                  </use>
                  <path fill="none" stroke="white" stroke-width="1.5" d="M0,-3.0v7 M-2.5,-0.5L0,-3.0L2.5,-0.5"/>
                </g>
                <g id="arrowLeft" xlink:href="#dirArrow" transform="rotate(270) translate(-36 17)" onmousedown="handlePan(-1,0)">
                  <use xlink:href="#rim" fill="#404040">
                        <set attributeName="fill" to="#808080" begin="arrowLeft.mouseover" end="arrowLeft.mouseout"/>
                  </use>
                  <path fill="none" stroke="white" stroke-width="1.5" d="M0,-3.0v7 M-2.5,-0.5L0,-3.0L2.5,-0.5"/>
                </g>
        </g>
        <svg viewBox="0 0 15 15" width="100%" height="30px" preserveAspectRatio="xMaxYMin meet">
         <g id="arrow_out" transform="scale(0.3 0.3)">
          <a xlink:href="walltime_8h_a499a9e129342c386109d22a4d233f52a_cgraph_org.svg" target="_base">
           <rect id="button" ry="5" rx="5" y="6" x="6" height="38" width="38"
                fill="#f2f5e9" fill-opacity="0.5" stroke="#606060" stroke-width="1.0"/>
           <path id="arrow"
             d="M 11.500037,31.436501 C 11.940474,20.09759 22.043105,11.32322 32.158766,21.979434 L 37.068811,17.246167 C 37.068811,17.246167 37.088388,32 37.088388,32 L 22.160133,31.978069 C 22.160133,31.978069 26.997745,27.140456 26.997745,27.140456 C 18.528582,18.264221 13.291696,25.230495 11.500037,31.436501 z"
             style="fill:#404040;"/>
          </a>
         </g>
        </svg>
</svg>
