<?xml version="1.0" encoding="UTF-8" standalone="no"?>
<!DOCTYPE svg PUBLIC "-//W3C//DTD SVG 1.1//EN"
 "http://www.w3.org/Graphics/SVG/1.1/DTD/svg11.dtd">
<!-- Generated by graphviz version 2.38.0 (20140413.2041)
 -->
<!-- Title: walltime_measure_internal Pages: 1 -->
<svg width="203pt" height="28pt"
 viewBox="0.00 0.00 202.50 28.00" xmlns="http://www.w3.org/2000/svg" xmlns:xlink="http://www.w3.org/1999/xlink">
<g id="graph0" class="graph" transform="scale(1 1) rotate(0) translate(4 24)">
<title>walltime_measure_internal</title>
<polygon fill="white" stroke="none" points="-4,4 -4,-24 198.5,-24 198.5,4 -4,4"/>
<!-- Node147 -->
<g id="node1" class="node"><title>Node147</title>
<polygon fill="#bfbfbf" stroke="black" points="62.5,-0.5 62.5,-19.5 194.5,-19.5 194.5,-0.5 62.5,-0.5"/>
<text text-anchor="middle" x="128.5" y="-7.5" font-family="Helvetica,sans-Serif" font-size="10.00">walltime_measure_internal</text>
</g>
<!-- Node148 -->
<g id="node2" class="node"><title>Node148</title>
<g id="a_node2"><a xlink:href="walltime_8h.html#a8cb8a56d90973bb67710a5e0de6f004e" target="_top" xlink:title="walltime_measure_full">
<polygon fill="white" stroke="black" points="-7.10543e-15,-0.5 -7.10543e-15,-19.5 113,-19.5 113,-0.5 -7.10543e-15,-0.5"/>
<text text-anchor="middle" x="56.5" y="-7.5" font-family="Helvetica,sans-Serif" font-size="10.00">walltime_measure_full</text>
</a>
</g>
</g>
<!-- Node147&#45;&gt;Node148 -->
<g id="edge1" class="edge"><title>Node147&#45;&gt;Node148</title>
<path fill="none" stroke="midnightblue" d="M61.9856,-10C61.9313,-10 61.8772,-10 61.8236,-10"/>
<polygon fill="midnightblue" stroke="midnightblue" points="52.1519,-13.5061 62.1497,-10 52.1476,-6.50609 52.1519,-13.5061"/>
</g>
</g>
</svg>
