<?xml version="1.0" encoding="UTF-8" standalone="no"?>
<!DOCTYPE svg PUBLIC "-//W3C//DTD SVG 1.1//EN"
 "http://www.w3.org/Graphics/SVG/1.1/DTD/svg11.dtd">
<!-- Generated by graphviz version 2.38.0 (20140413.2041)
 -->
<!-- Title: walltime_report Pages: 1 -->
<svg width="344pt" height="47pt"
 viewBox="0.00 0.00 344.00 47.00" xmlns="http://www.w3.org/2000/svg" xmlns:xlink="http://www.w3.org/1999/xlink">
<g id="graph0" class="graph" transform="scale(1 1) rotate(0) translate(4 43)">
<title>walltime_report</title>
<polygon fill="white" stroke="none" points="-4,4 -4,-43 340,-43 340,4 -4,4"/>
<!-- Node559 -->
<g id="node1" class="node"><title>Node559</title>
<polygon fill="#bfbfbf" stroke="black" points="0,-0.5 0,-19.5 83,-19.5 83,-0.5 0,-0.5"/>
<text text-anchor="middle" x="41.5" y="-7.5" font-family="Helvetica,sans-Serif" font-size="10.00">walltime_report</text>
</g>
<!-- Node560 -->
<g id="node2" class="node"><title>Node560</title>
<g id="a_node2"><a xlink:href="run_8c.html#adc59e9ee1517e4e690694a64ab6a59d2" target="_top" xlink:title="write_cpu_log">
<polygon fill="white" stroke="black" points="119,-19.5 119,-38.5 196,-38.5 196,-19.5 119,-19.5"/>
<text text-anchor="middle" x="157.5" y="-26.5" font-family="Helvetica,sans-Serif" font-size="10.00">write_cpu_log</text>
</a>
</g>
</g>
<!-- Node559&#45;&gt;Node560 -->
<g id="edge1" class="edge"><title>Node559&#45;&gt;Node560</title>
<path fill="none" stroke="midnightblue" d="M93.0306,-18.4218C101.684,-19.8641 110.54,-21.3399 118.785,-22.7141"/>
<polygon fill="midnightblue" stroke="midnightblue" points="93.4525,-14.9439 83.0131,-16.7522 92.3016,-21.8486 93.4525,-14.9439"/>
</g>
<!-- Node561 -->
<g id="node3" class="node"><title>Node561</title>
<g id="a_node3"><a xlink:href="run_8c.html#a05e0ffe612d44e6d7f3a9ae5b9df56a2" target="_top" xlink:title="run">
<polygon fill="white" stroke="black" points="232,-19.5 232,-38.5 262,-38.5 262,-19.5 232,-19.5"/>
<text text-anchor="middle" x="247" y="-26.5" font-family="Helvetica,sans-Serif" font-size="10.00">run</text>
</a>
</g>
</g>
<!-- Node560&#45;&gt;Node561 -->
<g id="edge2" class="edge"><title>Node560&#45;&gt;Node561</title>
<path fill="none" stroke="midnightblue" d="M206.222,-29C215.522,-29 224.58,-29 231.698,-29"/>
<polygon fill="midnightblue" stroke="midnightblue" points="206.116,-25.5001 196.116,-29 206.116,-32.5001 206.116,-25.5001"/>
</g>
<!-- Node562 -->
<g id="node4" class="node"><title>Node562</title>
<g id="a_node4"><a xlink:href="main_8c.html#a3c04138a5bfe5d72780bb7e82a18e627" target="_top" xlink:title="main">
<polygon fill="white" stroke="black" points="298,-0.5 298,-19.5 336,-19.5 336,-0.5 298,-0.5"/>
<text text-anchor="middle" x="317" y="-7.5" font-family="Helvetica,sans-Serif" font-size="10.00">main</text>
</a>
</g>
</g>
<!-- Node561&#45;&gt;Node562 -->
<g id="edge3" class="edge"><title>Node561&#45;&gt;Node562</title>
<path fill="none" stroke="midnightblue" d="M271.853,-22.3353C280.37,-19.9553 289.823,-17.314 297.79,-15.0881"/>
<polygon fill="midnightblue" stroke="midnightblue" points="270.779,-19.0012 262.09,-25.0632 272.663,-25.743 270.779,-19.0012"/>
</g>
<!-- Node562&#45;&gt;Node559 -->
<g id="edge4" class="edge"><title>Node562&#45;&gt;Node559</title>
<path fill="none" stroke="midnightblue" d="M287.848,-10C239.22,-10 139.318,-10 83.1504,-10"/>
<polygon fill="midnightblue" stroke="midnightblue" points="287.96,-13.5001 297.96,-10 287.96,-6.5001 287.96,-13.5001"/>
</g>
</g>
</svg>
