<?xml version="1.0" encoding="UTF-8" standalone="no"?>
<!DOCTYPE svg PUBLIC "-//W3C//DTD SVG 1.1//EN"
 "http://www.w3.org/Graphics/SVG/1.1/DTD/svg11.dtd">
<!-- Generated by graphviz version 2.38.0 (20140413.2041)
 -->
<!-- Title: walltime_clock_insert Pages: 1 -->
<svg width="357pt" height="113pt"
 viewBox="0.00 0.00 357.00 113.00" xmlns="http://www.w3.org/2000/svg" xmlns:xlink="http://www.w3.org/1999/xlink">
<g id="graph0" class="graph" transform="scale(1 1) rotate(0) translate(4 109)">
<title>walltime_clock_insert</title>
<polygon fill="white" stroke="none" points="-4,4 -4,-109 353,-109 353,4 -4,4"/>
<!-- Node69 -->
<g id="node1" class="node"><title>Node69</title>
<polygon fill="#bfbfbf" stroke="black" points="0,-57.5 0,-76.5 110,-76.5 110,-57.5 0,-57.5"/>
<text text-anchor="middle" x="55" y="-64.5" font-family="Helvetica,sans-Serif" font-size="10.00">walltime_clock_insert</text>
</g>
<!-- Node70 -->
<g id="node2" class="node"><title>Node70</title>
<g id="a_node2"><a xlink:href="walltime_8c.html#a7e97b1e5e48d21dd93fb962dbd031415" target="_top" xlink:title="clockcmp">
<polygon fill="white" stroke="black" points="276.5,-85.5 276.5,-104.5 335.5,-104.5 335.5,-85.5 276.5,-85.5"/>
<text text-anchor="middle" x="306" y="-92.5" font-family="Helvetica,sans-Serif" font-size="10.00">clockcmp</text>
</a>
</g>
</g>
<!-- Node69&#45;&gt;Node70 -->
<g id="edge1" class="edge"><title>Node69&#45;&gt;Node70</title>
<path fill="none" stroke="midnightblue" d="M94.7612,-76.5262C110.56,-80.0569 129.062,-83.7459 146,-86 186.751,-91.4231 233.804,-93.5827 266.09,-94.4403"/>
<polygon fill="midnightblue" stroke="midnightblue" points="266.363,-97.9476 276.443,-94.684 266.528,-90.9495 266.363,-97.9476"/>
</g>
<!-- Node71 -->
<g id="node3" class="node"><title>Node71</title>
<g id="a_node3"><a xlink:href="openmpsort_8c.html#a8938b38d71dd3b45bfc7cc745c096248" target="_top" xlink:title="qsort_openmp">
<polygon fill="white" stroke="black" points="147.5,-19.5 147.5,-38.5 225.5,-38.5 225.5,-19.5 147.5,-19.5"/>
<text text-anchor="middle" x="186.5" y="-26.5" font-family="Helvetica,sans-Serif" font-size="10.00">qsort_openmp</text>
</a>
</g>
</g>
<!-- Node69&#45;&gt;Node71 -->
<g id="edge2" class="edge"><title>Node69&#45;&gt;Node71</title>
<path fill="none" stroke="midnightblue" d="M88.6783,-57.411C105.089,-52.5956 125.176,-46.7012 142.792,-41.532"/>
<polygon fill="midnightblue" stroke="midnightblue" points="144.222,-44.7601 152.832,-38.5859 142.251,-38.0433 144.222,-44.7601"/>
</g>
<!-- Node74 -->
<g id="node6" class="node"><title>Node74</title>
<g id="a_node6"><a xlink:href="walltime_8c.html#a4f4dd186dc5d9dbfc87eaaf30ffb3642" target="_top" xlink:title="walltime_clock">
<polygon fill="white" stroke="black" points="146,-57.5 146,-76.5 227,-76.5 227,-57.5 146,-57.5"/>
<text text-anchor="middle" x="186.5" y="-64.5" font-family="Helvetica,sans-Serif" font-size="10.00">walltime_clock</text>
</a>
</g>
</g>
<!-- Node69&#45;&gt;Node74 -->
<g id="edge5" class="edge"><title>Node69&#45;&gt;Node74</title>
<path fill="none" stroke="midnightblue" d="M110.169,-60.3307C118.551,-60.2018 127.177,-60.2273 135.462,-60.4073"/>
<polygon fill="midnightblue" stroke="midnightblue" points="135.631,-63.9139 145.733,-60.718 135.843,-56.9171 135.631,-63.9139"/>
</g>
<!-- Node72 -->
<g id="node4" class="node"><title>Node72</title>
<g id="a_node4"><a xlink:href="openmpsort_8c.html#af794f526e2627202b5e7d35506fa3434" target="_top" xlink:title="merge">
<polygon fill="white" stroke="black" points="284,-38.5 284,-57.5 328,-57.5 328,-38.5 284,-38.5"/>
<text text-anchor="middle" x="306" y="-45.5" font-family="Helvetica,sans-Serif" font-size="10.00">merge</text>
</a>
</g>
</g>
<!-- Node71&#45;&gt;Node72 -->
<g id="edge3" class="edge"><title>Node71&#45;&gt;Node72</title>
<path fill="none" stroke="midnightblue" d="M225.649,-35.1688C241.179,-37.6799 258.907,-40.5467 273.662,-42.9326"/>
<polygon fill="midnightblue" stroke="midnightblue" points="273.376,-46.4317 283.807,-44.573 274.494,-39.5215 273.376,-46.4317"/>
</g>
<!-- Node73 -->
<g id="node5" class="node"><title>Node73</title>
<g id="a_node5"><a xlink:href="openmpsort_8c.html#a9af28c641be3cee5fdee6ec137e84c9d" target="_top" xlink:title="msort_with_tmp">
<polygon fill="white" stroke="black" points="263,-0.5 263,-19.5 349,-19.5 349,-0.5 263,-0.5"/>
<text text-anchor="middle" x="306" y="-7.5" font-family="Helvetica,sans-Serif" font-size="10.00">msort_with_tmp</text>
</a>
</g>
</g>
<!-- Node71&#45;&gt;Node73 -->
<g id="edge4" class="edge"><title>Node71&#45;&gt;Node73</title>
<path fill="none" stroke="midnightblue" d="M225.649,-22.8312C234.408,-21.4148 243.867,-19.8853 253.098,-18.3927"/>
<polygon fill="midnightblue" stroke="midnightblue" points="253.667,-21.8462 262.98,-16.7947 252.55,-14.9359 253.667,-21.8462"/>
</g>
<!-- Node74&#45;&gt;Node69 -->
<g id="edge7" class="edge"><title>Node74&#45;&gt;Node69</title>
<path fill="none" stroke="midnightblue" d="M145.733,-73.282C137.662,-73.5994 128.979,-73.7554 120.307,-73.7499"/>
<polygon fill="midnightblue" stroke="midnightblue" points="120.197,-70.249 110.169,-73.6693 120.141,-77.2487 120.197,-70.249"/>
</g>
<!-- Node74&#45;&gt;Node70 -->
<g id="edge6" class="edge"><title>Node74&#45;&gt;Node70</title>
<path fill="none" stroke="midnightblue" d="M227.28,-76.4795C239.993,-79.509 254.034,-82.8549 266.644,-85.8598"/>
<polygon fill="midnightblue" stroke="midnightblue" points="265.858,-89.2705 276.397,-88.184 267.481,-82.4612 265.858,-89.2705"/>
</g>
</g>
</svg>
