<?xml version="1.0" encoding="UTF-8" standalone="no"?>
<!DOCTYPE svg PUBLIC "-//W3C//DTD SVG 1.1//EN"
 "http://www.w3.org/Graphics/SVG/1.1/DTD/svg11.dtd">
<!-- Generated by graphviz version 2.38.0 (20140413.2041)
 -->
<!-- Title: walltime_reset Pages: 1 -->
<svg width="649pt" height="66pt"
 viewBox="0.00 0.00 649.00 66.00" xmlns="http://www.w3.org/2000/svg" xmlns:xlink="http://www.w3.org/1999/xlink">
<g id="graph0" class="graph" transform="scale(1 1) rotate(0) translate(4 62)">
<title>walltime_reset</title>
<polygon fill="white" stroke="none" points="-4,4 -4,-62 645,-62 645,4 -4,4"/>
<!-- Node615 -->
<g id="node1" class="node"><title>Node615</title>
<polygon fill="#bfbfbf" stroke="black" points="0,-19.5 0,-38.5 80,-38.5 80,-19.5 0,-19.5"/>
<text text-anchor="middle" x="40" y="-26.5" font-family="Helvetica,sans-Serif" font-size="10.00">walltime_reset</text>
</g>
<!-- Node616 -->
<g id="node2" class="node"><title>Node616</title>
<g id="a_node2"><a xlink:href="walltime_8h.html#a499a9e129342c386109d22a4d233f52a" target="_top" xlink:title="walltime_init">
<polygon fill="white" stroke="black" points="116,-19.5 116,-38.5 187,-38.5 187,-19.5 116,-19.5"/>
<text text-anchor="middle" x="151.5" y="-26.5" font-family="Helvetica,sans-Serif" font-size="10.00">walltime_init</text>
</a>
</g>
</g>
<!-- Node615&#45;&gt;Node616 -->
<g id="edge1" class="edge"><title>Node615&#45;&gt;Node616</title>
<path fill="none" stroke="midnightblue" d="M90.251,-29C98.911,-29 107.756,-29 115.909,-29"/>
<polygon fill="midnightblue" stroke="midnightblue" points="90.2228,-25.5001 80.2227,-29 90.2227,-32.5001 90.2228,-25.5001"/>
</g>
<!-- Node617 -->
<g id="node3" class="node"><title>Node617</title>
<g id="a_node3"><a xlink:href="proto_8h.html#a74dc0e5e9eefe11fc8434b62de573146" target="_top" xlink:title="begrun">
<polygon fill="white" stroke="black" points="223,-38.5 223,-57.5 269,-57.5 269,-38.5 223,-38.5"/>
<text text-anchor="middle" x="246" y="-45.5" font-family="Helvetica,sans-Serif" font-size="10.00">begrun</text>
</a>
</g>
</g>
<!-- Node616&#45;&gt;Node617 -->
<g id="edge2" class="edge"><title>Node616&#45;&gt;Node617</title>
<path fill="none" stroke="midnightblue" d="M197.223,-38.1864C206.188,-40.0278 215.229,-41.8848 222.997,-43.4805"/>
<polygon fill="midnightblue" stroke="midnightblue" points="197.706,-34.7127 187.207,-36.129 196.298,-41.5695 197.706,-34.7127"/>
</g>
<!-- Node619 -->
<g id="node5" class="node"><title>Node619</title>
<g id="a_node5"><a xlink:href="walltime_8h.html#a76d2135b612766d4d665748454b879d6" target="_top" xlink:title="walltime_report">
<polygon fill="white" stroke="black" points="379,-0.5 379,-19.5 462,-19.5 462,-0.5 379,-0.5"/>
<text text-anchor="middle" x="420.5" y="-7.5" font-family="Helvetica,sans-Serif" font-size="10.00">walltime_report</text>
</a>
</g>
</g>
<!-- Node616&#45;&gt;Node619 -->
<g id="edge8" class="edge"><title>Node616&#45;&gt;Node619</title>
<path fill="none" stroke="midnightblue" d="M197.142,-25.8233C247.831,-22.2162 329.828,-16.3812 378.815,-12.8952"/>
<polygon fill="midnightblue" stroke="midnightblue" points="196.858,-22.3345 187.132,-26.5356 197.355,-29.3168 196.858,-22.3345"/>
</g>
<!-- Node618 -->
<g id="node4" class="node"><title>Node618</title>
<g id="a_node4"><a xlink:href="main_8c.html#a3c04138a5bfe5d72780bb7e82a18e627" target="_top" xlink:title="main">
<polygon fill="white" stroke="black" points="305,-38.5 305,-57.5 343,-57.5 343,-38.5 305,-38.5"/>
<text text-anchor="middle" x="324" y="-45.5" font-family="Helvetica,sans-Serif" font-size="10.00">main</text>
</a>
</g>
</g>
<!-- Node617&#45;&gt;Node618 -->
<g id="edge3" class="edge"><title>Node617&#45;&gt;Node618</title>
<path fill="none" stroke="midnightblue" d="M279.541,-48C288.114,-48 297.067,-48 304.603,-48"/>
<polygon fill="midnightblue" stroke="midnightblue" points="279.391,-44.5001 269.391,-48 279.391,-51.5001 279.391,-44.5001"/>
</g>
<!-- Node618&#45;&gt;Node619 -->
<g id="edge4" class="edge"><title>Node618&#45;&gt;Node619</title>
<path fill="none" stroke="midnightblue" d="M352.594,-36.904C366.226,-31.4222 382.516,-24.8721 395.608,-19.6074"/>
<polygon fill="midnightblue" stroke="midnightblue" points="351.193,-33.695 343.221,-40.6732 353.804,-40.1896 351.193,-33.695"/>
</g>
<!-- Node620 -->
<g id="node6" class="node"><title>Node620</title>
<g id="a_node6"><a xlink:href="run_8c.html#adc59e9ee1517e4e690694a64ab6a59d2" target="_top" xlink:title="write_cpu_log">
<polygon fill="white" stroke="black" points="498,-0.5 498,-19.5 575,-19.5 575,-0.5 498,-0.5"/>
<text text-anchor="middle" x="536.5" y="-7.5" font-family="Helvetica,sans-Serif" font-size="10.00">write_cpu_log</text>
</a>
</g>
</g>
<!-- Node619&#45;&gt;Node620 -->
<g id="edge5" class="edge"><title>Node619&#45;&gt;Node620</title>
<path fill="none" stroke="midnightblue" d="M472.031,-10C480.684,-10 489.54,-10 497.785,-10"/>
<polygon fill="midnightblue" stroke="midnightblue" points="472.013,-6.5001 462.013,-10 472.013,-13.5001 472.013,-6.5001"/>
</g>
<!-- Node621 -->
<g id="node7" class="node"><title>Node621</title>
<g id="a_node7"><a xlink:href="run_8c.html#a05e0ffe612d44e6d7f3a9ae5b9df56a2" target="_top" xlink:title="run">
<polygon fill="white" stroke="black" points="611,-19.5 611,-38.5 641,-38.5 641,-19.5 611,-19.5"/>
<text text-anchor="middle" x="626" y="-26.5" font-family="Helvetica,sans-Serif" font-size="10.00">run</text>
</a>
</g>
</g>
<!-- Node620&#45;&gt;Node621 -->
<g id="edge6" class="edge"><title>Node620&#45;&gt;Node621</title>
<path fill="none" stroke="midnightblue" d="M584.925,-20.2979C594.329,-22.3399 603.505,-24.3324 610.698,-25.8944"/>
<polygon fill="midnightblue" stroke="midnightblue" points="585.631,-16.8697 575.116,-18.168 584.145,-23.7103 585.631,-16.8697"/>
</g>
<!-- Node621&#45;&gt;Node618 -->
<g id="edge7" class="edge"><title>Node621&#45;&gt;Node618</title>
<path fill="none" stroke="midnightblue" d="M600.758,-30.5353C542.391,-34.2319 395.064,-43.5626 343.315,-46.8401"/>
<polygon fill="midnightblue" stroke="midnightblue" points="601.126,-34.0191 610.885,-29.8939 600.684,-27.0331 601.126,-34.0191"/>
</g>
</g>
</svg>
