<?xml version="1.0" encoding="UTF-8" standalone="no"?>
<!DOCTYPE svg PUBLIC "-//W3C//DTD SVG 1.1//EN"
 "http://www.w3.org/Graphics/SVG/1.1/DTD/svg11.dtd">
<!-- Generated by graphviz version 2.50.0 (0)
 -->
<!-- Title: walltime_clock Pages: 1 -->
<svg width="817pt" height="281pt"
 viewBox="0.00 0.00 817.00 281.00" xmlns="http://www.w3.org/2000/svg" xmlns:xlink="http://www.w3.org/1999/xlink">
<g id="graph0" class="graph" transform="scale(1 1) rotate(0) translate(4 277)">
<title>walltime_clock</title>
<polygon fill="white" stroke="transparent" points="-4,4 -4,-277 813,-277 813,4 -4,4"/>
<!-- Node1 -->
<g id="node1" class="node">
<title>Node1</title>
<g id="a_node1"><a xlink:title=" ">
<polygon fill="#bfbfbf" stroke="black" points="719,-114.5 719,-133.5 809,-133.5 809,-114.5 719,-114.5"/>
<text text-anchor="middle" x="764" y="-121.5" font-family="Helvetica,sans-Serif" font-size="10.00">walltime_clock</text>
</a>
</g>
</g>
<!-- Node2 -->
<g id="node2" class="node">
<title>Node2</title>
<g id="a_node2"><a xlink:href="walltime_8c.html#ab102e8a8659ae3550c2ef097c5ad95e5" target="_top" xlink:title=" ">
<polygon fill="white" stroke="black" points="545.5,-190.5 545.5,-209.5 670.5,-209.5 670.5,-190.5 545.5,-190.5"/>
<text text-anchor="middle" x="608" y="-197.5" font-family="Helvetica,sans-Serif" font-size="10.00">walltime_add_internal</text>
</a>
</g>
</g>
<!-- Node1&#45;&gt;Node2 -->
<g id="edge1" class="edge">
<title>Node1&#45;&gt;Node2</title>
<path fill="none" stroke="midnightblue" d="M744.68,-140.06C729.21,-152.85 705.96,-170.32 683,-181 674.82,-184.8 665.77,-187.93 656.88,-190.46"/>
<polygon fill="midnightblue" stroke="midnightblue" points="747.04,-142.64 752.42,-133.51 742.52,-137.3 747.04,-142.64"/>
</g>
<!-- Node4 -->
<g id="node4" class="node">
<title>Node4</title>
<g id="a_node4"><a xlink:href="walltime_8c.html#a209b12a6bcb3b3dd09587b037a4911eb" target="_top" xlink:title=" ">
<polygon fill="white" stroke="black" points="546.5,-152.5 546.5,-171.5 669.5,-171.5 669.5,-152.5 546.5,-152.5"/>
<text text-anchor="middle" x="608" y="-159.5" font-family="Helvetica,sans-Serif" font-size="10.00">walltime_clock_insert</text>
</a>
</g>
</g>
<!-- Node1&#45;&gt;Node4 -->
<g id="edge3" class="edge">
<title>Node1&#45;&gt;Node4</title>
<path fill="none" stroke="midnightblue" d="M708.87,-130.88C681.11,-137.05 649,-145.57 628.84,-152.4"/>
<polygon fill="midnightblue" stroke="midnightblue" points="709.83,-134.25 718.87,-128.72 708.36,-127.41 709.83,-134.25"/>
</g>
<!-- Node20 -->
<g id="node20" class="node">
<title>Node20</title>
<g id="a_node20"><a xlink:href="walltime_8c.html#aa82bb37915e13824f40b4032c1294726" target="_top" xlink:title=" ">
<polygon fill="white" stroke="black" points="568,-114.5 568,-133.5 648,-133.5 648,-114.5 568,-114.5"/>
<text text-anchor="middle" x="608" y="-121.5" font-family="Helvetica,sans-Serif" font-size="10.00">walltime_get</text>
</a>
</g>
</g>
<!-- Node1&#45;&gt;Node20 -->
<g id="edge23" class="edge">
<title>Node1&#45;&gt;Node20</title>
<path fill="none" stroke="midnightblue" d="M708.67,-124C688.71,-124 666.52,-124 648.15,-124"/>
<polygon fill="midnightblue" stroke="midnightblue" points="708.87,-127.5 718.87,-124 708.87,-120.5 708.87,-127.5"/>
</g>
<!-- Node21 -->
<g id="node21" class="node">
<title>Node21</title>
<g id="a_node21"><a xlink:href="walltime_8c.html#ac4cba1b062910655c148f6410a6347d7" target="_top" xlink:title=" ">
<polygon fill="white" stroke="black" points="547,-76.5 547,-95.5 669,-95.5 669,-76.5 547,-76.5"/>
<text text-anchor="middle" x="608" y="-83.5" font-family="Helvetica,sans-Serif" font-size="10.00">walltime_get_symbol</text>
</a>
</g>
</g>
<!-- Node1&#45;&gt;Node21 -->
<g id="edge24" class="edge">
<title>Node1&#45;&gt;Node21</title>
<path fill="none" stroke="midnightblue" d="M714.21,-111.96C692.69,-106.65 667.77,-100.5 647.58,-95.52"/>
<polygon fill="midnightblue" stroke="midnightblue" points="713.59,-115.41 724.14,-114.41 715.27,-108.62 713.59,-115.41"/>
</g>
<!-- Node22 -->
<g id="node22" class="node">
<title>Node22</title>
<g id="a_node22"><a xlink:href="walltime_8c.html#a9fa1f9a8a9559ae6ced461702225f74a" target="_top" xlink:title=" ">
<polygon fill="white" stroke="black" points="554,-38.5 554,-57.5 662,-57.5 662,-38.5 554,-38.5"/>
<text text-anchor="middle" x="608" y="-45.5" font-family="Helvetica,sans-Serif" font-size="10.00">walltime_get_time</text>
</a>
</g>
</g>
<!-- Node1&#45;&gt;Node22 -->
<g id="edge25" class="edge">
<title>Node1&#45;&gt;Node22</title>
<path fill="none" stroke="midnightblue" d="M744.68,-107.94C729.21,-95.15 705.96,-77.68 683,-67 674.82,-63.2 665.77,-60.07 656.88,-57.54"/>
<polygon fill="midnightblue" stroke="midnightblue" points="742.52,-110.7 752.42,-114.49 747.04,-105.36 742.52,-110.7"/>
</g>
<!-- Node23 -->
<g id="node23" class="node">
<title>Node23</title>
<g id="a_node23"><a xlink:href="walltime_8c.html#a5bcf1b13d15fbf1a0d59b69892a1b532" target="_top" xlink:title=" ">
<polygon fill="white" stroke="black" points="533,-0.5 533,-19.5 683,-19.5 683,-0.5 533,-0.5"/>
<text text-anchor="middle" x="608" y="-7.5" font-family="Helvetica,sans-Serif" font-size="10.00">walltime_measure_internal</text>
</a>
</g>
</g>
<!-- Node1&#45;&gt;Node23 -->
<g id="edge26" class="edge">
<title>Node1&#45;&gt;Node23</title>
<path fill="none" stroke="midnightblue" d="M752.48,-105.63C739.12,-83.99 714.03,-48.5 683,-29 676.82,-25.12 669.89,-22.03 662.8,-19.57"/>
<polygon fill="midnightblue" stroke="midnightblue" points="749.64,-107.7 757.77,-114.5 755.65,-104.12 749.64,-107.7"/>
</g>
<!-- Node3 -->
<g id="node3" class="node">
<title>Node3</title>
<g id="a_node3"><a xlink:href="walltime_8c.html#a6104d2eb26a54547dd06d148e3ed4c1c" target="_top" xlink:title=" ">
<polygon fill="white" stroke="black" points="381,-190.5 381,-209.5 485,-209.5 485,-190.5 381,-190.5"/>
<text text-anchor="middle" x="433" y="-197.5" font-family="Helvetica,sans-Serif" font-size="10.00">walltime_add_full</text>
</a>
</g>
</g>
<!-- Node2&#45;&gt;Node3 -->
<g id="edge2" class="edge">
<title>Node2&#45;&gt;Node3</title>
<path fill="none" stroke="midnightblue" d="M534.74,-200C518.03,-200 500.59,-200 485,-200"/>
<polygon fill="midnightblue" stroke="midnightblue" points="535.03,-203.5 545.03,-200 535.03,-196.5 535.03,-203.5"/>
</g>
<!-- Node4&#45;&gt;Node1 -->
<g id="edge4" class="edge">
<title>Node4&#45;&gt;Node1</title>
<path fill="none" stroke="midnightblue" d="M679.52,-151.33C702.82,-145.73 726.9,-139.11 743.18,-133.59"/>
<polygon fill="midnightblue" stroke="midnightblue" points="678.55,-147.96 669.62,-153.66 680.15,-154.77 678.55,-147.96"/>
</g>
<!-- Node5 -->
<g id="node5" class="node">
<title>Node5</title>
<g id="a_node5"><a xlink:href="walltime_8c.html#a03a816f38593bc4adf06efed9fe49697" target="_top" xlink:title=" ">
<polygon fill="white" stroke="black" points="393,-152.5 393,-171.5 473,-171.5 473,-152.5 393,-152.5"/>
<text text-anchor="middle" x="433" y="-159.5" font-family="Helvetica,sans-Serif" font-size="10.00">walltime_init</text>
</a>
</g>
</g>
<!-- Node4&#45;&gt;Node5 -->
<g id="edge5" class="edge">
<title>Node4&#45;&gt;Node5</title>
<path fill="none" stroke="midnightblue" d="M536.35,-162C514.75,-162 491.78,-162 473.09,-162"/>
<polygon fill="midnightblue" stroke="midnightblue" points="536.49,-165.5 546.49,-162 536.49,-158.5 536.49,-165.5"/>
</g>
<!-- Node6 -->
<g id="node6" class="node">
<title>Node6</title>
<g id="a_node6"><a xlink:href="run_8c.html#aee4609880c9e92e1c421c4bd238589fd" target="_top" xlink:title=" ">
<polygon fill="white" stroke="black" points="262.5,-250.5 262.5,-269.5 312.5,-269.5 312.5,-250.5 262.5,-250.5"/>
<text text-anchor="middle" x="287.5" y="-257.5" font-family="Helvetica,sans-Serif" font-size="10.00">begrun</text>
</a>
</g>
</g>
<!-- Node5&#45;&gt;Node6 -->
<g id="edge6" class="edge">
<title>Node5&#45;&gt;Node6</title>
<path fill="none" stroke="midnightblue" d="M383.5,-172.65C378.33,-174.92 373.38,-177.67 369,-181 345.15,-199.14 355.26,-217.94 333,-238 327.11,-243.31 319.71,-247.64 312.64,-251.02"/>
<polygon fill="midnightblue" stroke="midnightblue" points="384.84,-175.89 392.94,-169.07 382.35,-169.35 384.84,-175.89"/>
</g>
<!-- Node8 -->
<g id="node8" class="node">
<title>Node8</title>
<g id="a_node8"><a xlink:href="genic_2main_8c.html#a3c04138a5bfe5d72780bb7e82a18e627" target="_top" xlink:title=" ">
<polygon fill="white" stroke="black" points="267,-209.5 267,-228.5 308,-228.5 308,-209.5 267,-209.5"/>
<text text-anchor="middle" x="287.5" y="-216.5" font-family="Helvetica,sans-Serif" font-size="10.00">main</text>
</a>
</g>
</g>
<!-- Node5&#45;&gt;Node8 -->
<g id="edge8" class="edge">
<title>Node5&#45;&gt;Node8</title>
<path fill="none" stroke="midnightblue" d="M386.18,-174.68C380.33,-176.63 374.48,-178.75 369,-181 352.26,-187.87 349.33,-192.22 333,-200 324.96,-203.83 315.95,-207.75 308.15,-211.02"/>
<polygon fill="midnightblue" stroke="midnightblue" points="387.47,-177.95 395.93,-171.57 385.34,-171.28 387.47,-177.95"/>
</g>
<!-- Node9 -->
<g id="node9" class="node">
<title>Node9</title>
<g id="a_node9"><a xlink:href="test__density_8c.html#a854959c3967fdf6643d85ab516ec775f" target="_top" xlink:title=" ">
<polygon fill="white" stroke="black" points="245,-171.5 245,-190.5 330,-190.5 330,-171.5 245,-171.5"/>
<text text-anchor="middle" x="287.5" y="-178.5" font-family="Helvetica,sans-Serif" font-size="10.00">setup_density</text>
</a>
</g>
</g>
<!-- Node5&#45;&gt;Node9 -->
<g id="edge9" class="edge">
<title>Node5&#45;&gt;Node9</title>
<path fill="none" stroke="midnightblue" d="M382.46,-168.56C365.42,-170.82 346.52,-173.32 330.17,-175.48"/>
<polygon fill="midnightblue" stroke="midnightblue" points="383.33,-171.97 392.79,-167.19 382.42,-165.03 383.33,-171.97"/>
</g>
<!-- Node10 -->
<g id="node10" class="node">
<title>Node10</title>
<g id="a_node10"><a xlink:href="test__exchange_8c.html#a6b56cf572ce4deb92a1b299742f25ddc" target="_top" xlink:title=" ">
<polygon fill="white" stroke="black" points="242,-133.5 242,-152.5 333,-152.5 333,-133.5 242,-133.5"/>
<text text-anchor="middle" x="287.5" y="-140.5" font-family="Helvetica,sans-Serif" font-size="10.00">setup_particles</text>
</a>
</g>
</g>
<!-- Node5&#45;&gt;Node10 -->
<g id="edge10" class="edge">
<title>Node5&#45;&gt;Node10</title>
<path fill="none" stroke="midnightblue" d="M382.54,-155.45C366.54,-153.33 348.89,-151 333.24,-148.92"/>
<polygon fill="midnightblue" stroke="midnightblue" points="382.42,-158.97 392.79,-156.81 383.33,-152.03 382.42,-158.97"/>
</g>
<!-- Node16 -->
<g id="node16" class="node">
<title>Node16</title>
<g id="a_node16"><a xlink:href="test__gravity_8c.html#aa1c74bce2067b4182648175e6fe83676" target="_top" xlink:title=" ">
<polygon fill="white" stroke="black" points="253.5,-81.5 253.5,-100.5 321.5,-100.5 321.5,-81.5 253.5,-81.5"/>
<text text-anchor="middle" x="287.5" y="-88.5" font-family="Helvetica,sans-Serif" font-size="10.00">setup_tree</text>
</a>
</g>
</g>
<!-- Node5&#45;&gt;Node16 -->
<g id="edge19" class="edge">
<title>Node5&#45;&gt;Node16</title>
<path fill="none" stroke="midnightblue" d="M403.66,-147.98C375.38,-133.98 332.69,-112.86 308,-100.65"/>
<polygon fill="midnightblue" stroke="midnightblue" points="402.13,-151.13 412.65,-152.42 405.24,-144.85 402.13,-151.13"/>
</g>
<!-- Node18 -->
<g id="node18" class="node">
<title>Node18</title>
<g id="a_node18"><a xlink:href="test__fof_8c.html#a2b2edcaa960047ba6c815956c46d82a6" target="_top" xlink:title=" ">
<polygon fill="white" stroke="black" points="260.5,-16.5 260.5,-35.5 314.5,-35.5 314.5,-16.5 260.5,-16.5"/>
<text text-anchor="middle" x="287.5" y="-23.5" font-family="Helvetica,sans-Serif" font-size="10.00">test_fof</text>
</a>
</g>
</g>
<!-- Node5&#45;&gt;Node18 -->
<g id="edge21" class="edge">
<title>Node5&#45;&gt;Node18</title>
<path fill="none" stroke="midnightblue" d="M414.33,-145.26C384,-116.5 322.94,-58.64 298.73,-35.69"/>
<polygon fill="midnightblue" stroke="midnightblue" points="412.01,-147.88 421.68,-152.22 416.83,-142.8 412.01,-147.88"/>
</g>
<!-- Node7 -->
<g id="node7" class="node">
<title>Node7</title>
<g id="a_node7"><a xlink:href="gadget_2main_8c.html#a3c04138a5bfe5d72780bb7e82a18e627" target="_top" xlink:title=" ">
<polygon fill="white" stroke="black" points="121,-253.5 121,-272.5 162,-272.5 162,-253.5 121,-253.5"/>
<text text-anchor="middle" x="141.5" y="-260.5" font-family="Helvetica,sans-Serif" font-size="10.00">main</text>
</a>
</g>
</g>
<!-- Node6&#45;&gt;Node7 -->
<g id="edge7" class="edge">
<title>Node6&#45;&gt;Node7</title>
<path fill="none" stroke="midnightblue" d="M252.19,-260.71C224.03,-261.3 185.16,-262.11 162.05,-262.59"/>
<polygon fill="midnightblue" stroke="midnightblue" points="252.47,-264.21 262.4,-260.5 252.33,-257.21 252.47,-264.21"/>
</g>
<!-- Node11 -->
<g id="node11" class="node">
<title>Node11</title>
<g id="a_node11"><a xlink:href="test__exchange_8c.html#aa548e32f4f20f4c89a239183d56a4ab6" target="_top" xlink:title=" ">
<polygon fill="white" stroke="black" points="97.5,-215.5 97.5,-234.5 185.5,-234.5 185.5,-215.5 97.5,-215.5"/>
<text text-anchor="middle" x="141.5" y="-222.5" font-family="Helvetica,sans-Serif" font-size="10.00">test_exchange</text>
</a>
</g>
</g>
<!-- Node10&#45;&gt;Node11 -->
<g id="edge11" class="edge">
<title>Node10&#45;&gt;Node11</title>
<path fill="none" stroke="midnightblue" d="M248.99,-157.39C246.55,-158.82 244.19,-160.35 242,-162 221.8,-177.18 227.02,-191.99 206,-206 199.87,-210.08 192.84,-213.31 185.74,-215.86"/>
<polygon fill="midnightblue" stroke="midnightblue" points="250.79,-160.4 258.07,-152.71 247.58,-154.18 250.79,-160.4"/>
</g>
<!-- Node13 -->
<g id="node13" class="node">
<title>Node13</title>
<g id="a_node13"><a xlink:href="test__exchange_8c.html#a221a6d329379702a0dcb30a7cbf3f747" target="_top" xlink:title=" ">
<polygon fill="white" stroke="black" points="77,-177.5 77,-196.5 206,-196.5 206,-177.5 77,-177.5"/>
<text text-anchor="middle" x="141.5" y="-184.5" font-family="Helvetica,sans-Serif" font-size="10.00">test_exchange_uneven</text>
</a>
</g>
</g>
<!-- Node10&#45;&gt;Node13 -->
<g id="edge13" class="edge">
<title>Node10&#45;&gt;Node13</title>
<path fill="none" stroke="midnightblue" d="M246.03,-155.66C233.24,-159.64 219.03,-164.03 206,-168 195.76,-171.12 184.58,-174.48 174.5,-177.5"/>
<polygon fill="midnightblue" stroke="midnightblue" points="247.44,-158.89 255.94,-152.57 245.35,-152.2 247.44,-158.89"/>
</g>
<!-- Node14 -->
<g id="node14" class="node">
<title>Node14</title>
<g id="a_node14"><a xlink:href="test__exchange_8c.html#a594543f6c1cc69b9d561ea361393e543" target="_top" xlink:title=" ">
<polygon fill="white" stroke="black" points="84.5,-128 84.5,-158 198.5,-158 198.5,-128 84.5,-128"/>
<text text-anchor="start" x="92.5" y="-146" font-family="Helvetica,sans-Serif" font-size="10.00">test_exchange_with</text>
<text text-anchor="middle" x="141.5" y="-135" font-family="Helvetica,sans-Serif" font-size="10.00">_garbage</text>
</a>
</g>
</g>
<!-- Node10&#45;&gt;Node14 -->
<g id="edge15" class="edge">
<title>Node10&#45;&gt;Node14</title>
<path fill="none" stroke="midnightblue" d="M231.59,-143C220.82,-143 209.5,-143 198.68,-143"/>
<polygon fill="midnightblue" stroke="midnightblue" points="231.73,-146.5 241.73,-143 231.73,-139.5 231.73,-146.5"/>
</g>
<!-- Node15 -->
<g id="node15" class="node">
<title>Node15</title>
<g id="a_node15"><a xlink:href="test__exchange_8c.html#aa6c198b4deff62a79f30e1b7a1d19025" target="_top" xlink:title=" ">
<polygon fill="white" stroke="black" points="84.5,-79 84.5,-109 198.5,-109 198.5,-79 84.5,-79"/>
<text text-anchor="start" x="92.5" y="-97" font-family="Helvetica,sans-Serif" font-size="10.00">test_exchange_zero</text>
<text text-anchor="middle" x="141.5" y="-86" font-family="Helvetica,sans-Serif" font-size="10.00">_slots</text>
</a>
</g>
</g>
<!-- Node10&#45;&gt;Node15 -->
<g id="edge17" class="edge">
<title>Node10&#45;&gt;Node15</title>
<path fill="none" stroke="midnightblue" d="M248.86,-130.19C229.81,-123.71 206.58,-115.8 186.69,-109.04"/>
<polygon fill="midnightblue" stroke="midnightblue" points="247.8,-133.53 258.39,-133.44 250.05,-126.9 247.8,-133.53"/>
</g>
<!-- Node12 -->
<g id="node12" class="node">
<title>Node12</title>
<g id="a_node12"><a xlink:href="test__exchange_8c.html#a840291bc02cba5474a4cb46a9b9566fe" target="_top" xlink:title=" ">
<polygon fill="white" stroke="black" points="0,-155.5 0,-174.5 41,-174.5 41,-155.5 0,-155.5"/>
<text text-anchor="middle" x="20.5" y="-162.5" font-family="Helvetica,sans-Serif" font-size="10.00">main</text>
</a>
</g>
</g>
<!-- Node11&#45;&gt;Node12 -->
<g id="edge12" class="edge">
<title>Node11&#45;&gt;Node12</title>
<path fill="none" stroke="midnightblue" d="M91.26,-212.13C86.35,-210.3 81.52,-208.26 77,-206 60.07,-197.54 42.9,-183.9 32.23,-174.7"/>
<polygon fill="midnightblue" stroke="midnightblue" points="90.13,-215.45 100.73,-215.4 92.42,-208.83 90.13,-215.45"/>
</g>
<!-- Node13&#45;&gt;Node12 -->
<g id="edge14" class="edge">
<title>Node13&#45;&gt;Node12</title>
<path fill="none" stroke="midnightblue" d="M79,-175.63C65.25,-173.09 51.64,-170.57 41.12,-168.63"/>
<polygon fill="midnightblue" stroke="midnightblue" points="78.53,-179.1 89,-177.48 79.8,-172.22 78.53,-179.1"/>
</g>
<!-- Node14&#45;&gt;Node12 -->
<g id="edge16" class="edge">
<title>Node14&#45;&gt;Node12</title>
<path fill="none" stroke="midnightblue" d="M74.64,-155.18C62.41,-157.44 50.55,-159.63 41.14,-161.37"/>
<polygon fill="midnightblue" stroke="midnightblue" points="75.29,-158.62 84.48,-153.36 74.01,-151.73 75.29,-158.62"/>
</g>
<!-- Node15&#45;&gt;Node12 -->
<g id="edge18" class="edge">
<title>Node15&#45;&gt;Node12</title>
<path fill="none" stroke="midnightblue" d="M85.72,-113.3C82.72,-114.79 79.79,-116.36 77,-118 59.15,-128.5 41.4,-144.84 30.94,-155.22"/>
<polygon fill="midnightblue" stroke="midnightblue" points="87.26,-116.44 94.86,-109.07 84.32,-110.09 87.26,-116.44"/>
</g>
<!-- Node17 -->
<g id="node17" class="node">
<title>Node17</title>
<g id="a_node17"><a xlink:href="test__gravity_8c.html#a840291bc02cba5474a4cb46a9b9566fe" target="_top" xlink:title=" ">
<polygon fill="white" stroke="black" points="121,-40.5 121,-59.5 162,-59.5 162,-40.5 121,-40.5"/>
<text text-anchor="middle" x="141.5" y="-47.5" font-family="Helvetica,sans-Serif" font-size="10.00">main</text>
</a>
</g>
</g>
<!-- Node16&#45;&gt;Node17 -->
<g id="edge20" class="edge">
<title>Node16&#45;&gt;Node17</title>
<path fill="none" stroke="midnightblue" d="M243.83,-78.85C216.75,-71.14 183,-61.53 162.1,-55.58"/>
<polygon fill="midnightblue" stroke="midnightblue" points="242.89,-82.22 253.46,-81.59 244.8,-75.49 242.89,-82.22"/>
</g>
<!-- Node19 -->
<g id="node19" class="node">
<title>Node19</title>
<g id="a_node19"><a xlink:href="test__fof_8c.html#a840291bc02cba5474a4cb46a9b9566fe" target="_top" xlink:title=" ">
<polygon fill="white" stroke="black" points="121,-2.5 121,-21.5 162,-21.5 162,-2.5 121,-2.5"/>
<text text-anchor="middle" x="141.5" y="-9.5" font-family="Helvetica,sans-Serif" font-size="10.00">main</text>
</a>
</g>
</g>
<!-- Node18&#45;&gt;Node19 -->
<g id="edge22" class="edge">
<title>Node18&#45;&gt;Node19</title>
<path fill="none" stroke="midnightblue" d="M250.27,-22.48C222.41,-19.77 184.99,-16.13 162.36,-13.93"/>
<polygon fill="midnightblue" stroke="midnightblue" points="250.13,-25.98 260.42,-23.46 250.81,-19.01 250.13,-25.98"/>
</g>
<!-- Node24 -->
<g id="node24" class="node">
<title>Node24</title>
<g id="a_node24"><a xlink:href="walltime_8c.html#a8c8048ecb0dcf9dbc86bb7bb933a3c89" target="_top" xlink:title=" ">
<polygon fill="white" stroke="black" points="369,-0.5 369,-19.5 497,-19.5 497,-0.5 369,-0.5"/>
<text text-anchor="middle" x="433" y="-7.5" font-family="Helvetica,sans-Serif" font-size="10.00">walltime_measure_full</text>
</a>
</g>
</g>
<!-- Node23&#45;&gt;Node24 -->
<g id="edge27" class="edge">
<title>Node23&#45;&gt;Node24</title>
<path fill="none" stroke="midnightblue" d="M522.76,-10C514.12,-10 505.44,-10 497.08,-10"/>
<polygon fill="midnightblue" stroke="midnightblue" points="522.88,-13.5 532.88,-10 522.88,-6.5 522.88,-13.5"/>
</g>
</g>
</svg>
