<?xml version="1.0" encoding="UTF-8" standalone="no"?>
<!DOCTYPE svg PUBLIC "-//W3C//DTD SVG 1.1//EN"
 "http://www.w3.org/Graphics/SVG/1.1/DTD/svg11.dtd">
<!-- Generated by graphviz version 2.38.0 (20140413.2041)
 -->
<!-- Title: walltime_clock Pages: 1 -->
<!--zoomable 843 -->
<svg id="main" version="1.1" xmlns="http://www.w3.org/2000/svg" xmlns:xlink="http://www.w3.org/1999/xlink" xml:space="preserve" onload="init(evt)">
<style type="text/css"><![CDATA[
.edge:hover path { stroke: red; }
.edge:hover polygon { stroke: red; fill: red; }
]]></style>
<script type="text/javascript"><![CDATA[
var edges = document.getElementsByTagName('g');
if (edges && edges.length) {
  for (var i=0;i<edges.length;i++) {
    if (edges[i].id.substr(0,4)=='edge') {
      edges[i].setAttribute('class','edge');
    }
  }
}
]]></script>
        <defs>
                <circle id="rim" cx="0" cy="0" r="7"/>
                <circle id="rim2" cx="0" cy="0" r="3.5"/>
                <g id="zoomPlus">
                        <use xlink:href="#rim" fill="#404040">
                                <set attributeName="fill" to="#808080" begin="zoomplus.mouseover" end="zoomplus.mouseout"/>
                        </use>
                        <path d="M-4,0h8M0,-4v8" fill="none" stroke="white" stroke-width="1.5" pointer-events="none"/>
                </g>
                <g id="zoomMin">
                        <use xlink:href="#rim" fill="#404040">
                                <set attributeName="fill" to="#808080" begin="zoomminus.mouseover" end="zoomminus.mouseout"/>
                        </use>
                        <path d="M-4,0h8" fill="none" stroke="white" stroke-width="1.5" pointer-events="none"/>
                </g>
                <g id="dirArrow">
                        <path fill="none" stroke="white" stroke-width="1.5" d="M0,-3.0v7 M-2.5,-0.5L0,-3.0L2.5,-0.5"/>
                </g>
               <g id="resetDef">
                       <use xlink:href="#rim2" fill="#404040">
                               <set attributeName="fill" to="#808080" begin="reset.mouseover" end="reset.mouseout"/>
                       </use>
               </g>
        </defs>

<script type="text/javascript">
var viewWidth = 988;
var viewHeight = 843;
var sectionId = 'dynsection-5';
</script>
<script xlink:href="svgpan.js"/>
<svg id="graph" class="graph">
<g id="viewport">
<title>walltime_clock</title>
<polygon fill="white" stroke="none" points="-4,4 -4,-839.212 983.588,-839.212 983.588,4 -4,4"/>
<!-- Node25 -->
<g id="node1" class="node"><title>Node25</title>
<polygon fill="#bfbfbf" stroke="black" points="214.544,-676.002 214.544,-695.002 295.544,-695.002 295.544,-676.002 214.544,-676.002"/>
<text text-anchor="middle" x="255.044" y="-683.002" font-family="Helvetica,sans-Serif" font-size="10.00">walltime_clock</text>
</g>
<!-- Node26 -->
<g id="node2" class="node"><title>Node26</title>
<g id="a_node2"><a xlink:href="walltime_8h.html#a57b7b32ec7a35ce3e7ddc6ed31a051ad" target="_top" xlink:title="walltime_add_internal">
<polygon fill="white" stroke="black" points="813.719,-581.981 813.719,-600.981 923.719,-600.981 923.719,-581.981 813.719,-581.981"/>
<text text-anchor="middle" x="868.719" y="-588.981" font-family="Helvetica,sans-Serif" font-size="10.00">walltime_add_internal</text>
</a>
</g>
</g>
<!-- Node25&#45;&gt;Node26 -->
<g id="edge1" class="edge"><title>Node25&#45;&gt;Node26</title>
<path fill="none" stroke="midnightblue" d="M305.987,-677.697C420.066,-660.219 695.286,-618.053 813.381,-599.959"/>
<polygon fill="midnightblue" stroke="midnightblue" points="305.138,-674.286 295.784,-679.261 306.199,-681.206 305.138,-674.286"/>
</g>
<!-- Node28 -->
<g id="node4" class="node"><title>Node28</title>
<g id="a_node4"><a xlink:href="walltime_8c.html#a771e7f4e5961eb4f5b9b1c5c75b66cf3" target="_top" xlink:title="walltime_clock_insert">
<polygon fill="white" stroke="black" points="244.935,-619.711 244.935,-638.711 354.935,-638.711 354.935,-619.711 244.935,-619.711"/>
<text text-anchor="middle" x="299.935" y="-626.711" font-family="Helvetica,sans-Serif" font-size="10.00">walltime_clock_insert</text>
</a>
</g>
</g>
<!-- Node25&#45;&gt;Node28 -->
<g id="edge3" class="edge"><title>Node25&#45;&gt;Node28</title>
<path fill="none" stroke="midnightblue" d="M277.156,-668.31C285.503,-658.702 293.893,-647.138 298.031,-639.004"/>
<polygon fill="midnightblue" stroke="midnightblue" points="274.453,-666.078 270.248,-675.803 279.6,-670.823 274.453,-666.078"/>
</g>
<!-- Node35 -->
<g id="node11" class="node"><title>Node35</title>
<g id="a_node11"><a xlink:href="walltime_8h.html#a6a3b3f3004b1534bab7b070e4343a8e5" target="_top" xlink:title="walltime_get">
<polygon fill="white" stroke="black" points="540.129,-815.712 540.129,-834.712 611.129,-834.712 611.129,-815.712 540.129,-815.712"/>
<text text-anchor="middle" x="575.629" y="-822.712" font-family="Helvetica,sans-Serif" font-size="10.00">walltime_get</text>
</a>
</g>
</g>
<!-- Node25&#45;&gt;Node35 -->
<g id="edge13" class="edge"><title>Node25&#45;&gt;Node35</title>
<path fill="none" stroke="midnightblue" d="M286.353,-699.147C350.938,-727.293 497.566,-791.192 553.44,-815.542"/>
<polygon fill="midnightblue" stroke="midnightblue" points="287.644,-695.892 277.079,-695.105 284.848,-702.309 287.644,-695.892"/>
</g>
<!-- Node36 -->
<g id="node12" class="node"><title>Node36</title>
<g id="a_node12"><a xlink:href="walltime_8h.html#ad1863c87c411e6ab454dd4fa05663390" target="_top" xlink:title="walltime_get_symbol">
<polygon fill="white" stroke="black" points="156.152,-732.294 156.152,-751.294 264.152,-751.294 264.152,-732.294 156.152,-732.294"/>
<text text-anchor="middle" x="210.152" y="-739.294" font-family="Helvetica,sans-Serif" font-size="10.00">walltime_get_symbol</text>
</a>
</g>
</g>
<!-- Node25&#45;&gt;Node36 -->
<g id="edge14" class="edge"><title>Node25&#45;&gt;Node36</title>
<path fill="none" stroke="midnightblue" d="M240.993,-703.121C233.393,-712.651 224.293,-724.062 217.956,-732.009"/>
<polygon fill="midnightblue" stroke="midnightblue" points="243.93,-705.052 247.428,-695.052 238.457,-700.688 243.93,-705.052"/>
</g>
<!-- Node37 -->
<g id="node13" class="node"><title>Node37</title>
<g id="a_node13"><a xlink:href="walltime_8h.html#afa0c81e86e0c6ddba66f257df0875031" target="_top" xlink:title="walltime_get_time">
<polygon fill="white" stroke="black" points="-5.68434e-14,-394.543 -5.68434e-14,-413.543 95,-413.543 95,-394.543 -5.68434e-14,-394.543"/>
<text text-anchor="middle" x="47.5" y="-401.543" font-family="Helvetica,sans-Serif" font-size="10.00">walltime_get_time</text>
</a>
</g>
</g>
<!-- Node25&#45;&gt;Node37 -->
<g id="edge15" class="edge"><title>Node25&#45;&gt;Node37</title>
<path fill="none" stroke="midnightblue" d="M241.817,-667.566C202.097,-613.699 84.7425,-454.549 54.6141,-413.691"/>
<polygon fill="midnightblue" stroke="midnightblue" points="239.148,-669.843 247.9,-675.814 244.782,-665.688 239.148,-669.843"/>
</g>
<!-- Node38 -->
<g id="node14" class="node"><title>Node38</title>
<g id="a_node14"><a xlink:href="walltime_8h.html#a090d5b87d55d3030babdc3f38dde1a2b" target="_top" xlink:title="walltime_measure_internal">
<polygon fill="white" stroke="black" points="144.152,-56.7919 144.152,-75.7919 276.152,-75.7919 276.152,-56.7919 144.152,-56.7919"/>
<text text-anchor="middle" x="210.152" y="-63.7919" font-family="Helvetica,sans-Serif" font-size="10.00">walltime_measure_internal</text>
</a>
</g>
</g>
<!-- Node25&#45;&gt;Node38 -->
<g id="edge16" class="edge"><title>Node25&#45;&gt;Node38</title>
<path fill="none" stroke="midnightblue" d="M253.599,-665.579C246.55,-568.351 215.899,-145.562 210.856,-75.9968"/>
<polygon fill="midnightblue" stroke="midnightblue" points="250.125,-666.055 254.339,-675.776 257.106,-665.549 250.125,-666.055"/>
</g>
<!-- Node27 -->
<g id="node3" class="node"><title>Node27</title>
<g id="a_node3"><a xlink:href="walltime_8h.html#a6e611b21f082c89bbb93efd434760d83" target="_top" xlink:title="walltime_add_full">
<polygon fill="white" stroke="black" points="887.588,-613.22 887.588,-632.22 979.588,-632.22 979.588,-613.22 887.588,-613.22"/>
<text text-anchor="middle" x="933.588" y="-620.22" font-family="Helvetica,sans-Serif" font-size="10.00">walltime_add_full</text>
</a>
</g>
</g>
<!-- Node26&#45;&gt;Node27 -->
<g id="edge2" class="edge"><title>Node26&#45;&gt;Node27</title>
<path fill="none" stroke="midnightblue" d="M897.797,-605.484C903.083,-608.03 908.489,-610.633 913.446,-613.021"/>
<polygon fill="midnightblue" stroke="midnightblue" points="899.062,-602.209 888.534,-601.024 896.025,-608.516 899.062,-602.209"/>
</g>
<!-- Node28&#45;&gt;Node25 -->
<g id="edge4" class="edge"><title>Node28&#45;&gt;Node25</title>
<path fill="none" stroke="midnightblue" d="M277.823,-646.403C269.476,-656.011 261.086,-667.575 256.948,-675.709"/>
<polygon fill="midnightblue" stroke="midnightblue" points="280.526,-648.635 284.731,-638.91 275.379,-643.89 280.526,-648.635"/>
</g>
<!-- Node29 -->
<g id="node5" class="node"><title>Node29</title>
<g id="a_node5"><a xlink:href="walltime_8h.html#a499a9e129342c386109d22a4d233f52a" target="_top" xlink:title="walltime_init">
<polygon fill="white" stroke="black" points="309.326,-563.419 309.326,-582.419 380.326,-582.419 380.326,-563.419 309.326,-563.419"/>
<text text-anchor="middle" x="344.826" y="-570.419" font-family="Helvetica,sans-Serif" font-size="10.00">walltime_init</text>
</a>
</g>
</g>
<!-- Node28&#45;&gt;Node29 -->
<g id="edge5" class="edge"><title>Node28&#45;&gt;Node29</title>
<path fill="none" stroke="midnightblue" d="M313.986,-611.592C321.585,-602.062 330.686,-590.651 337.023,-582.704"/>
<polygon fill="midnightblue" stroke="midnightblue" points="311.049,-609.661 307.55,-619.661 316.521,-614.025 311.049,-609.661"/>
</g>
<!-- Node30 -->
<g id="node6" class="node"><title>Node30</title>
<g id="a_node6"><a xlink:href="proto_8h.html#a74dc0e5e9eefe11fc8434b62de573146" target="_top" xlink:title="begrun">
<polygon fill="white" stroke="black" points="488.543,-254.153 488.543,-273.153 534.543,-273.153 534.543,-254.153 488.543,-254.153"/>
<text text-anchor="middle" x="511.543" y="-261.153" font-family="Helvetica,sans-Serif" font-size="10.00">begrun</text>
</a>
</g>
</g>
<!-- Node29&#45;&gt;Node30 -->
<g id="edge6" class="edge"><title>Node29&#45;&gt;Node30</title>
<path fill="none" stroke="midnightblue" d="M354.771,-554.47C386.187,-496.193 482.617,-317.311 506.266,-273.443"/>
<polygon fill="midnightblue" stroke="midnightblue" points="351.663,-552.861 349.999,-563.324 357.825,-556.182 351.663,-552.861"/>
</g>
<!-- Node32 -->
<g id="node8" class="node"><title>Node32</title>
<g id="a_node8"><a xlink:href="walltime_8h.html#a76d2135b612766d4d665748454b879d6" target="_top" xlink:title="walltime_report">
<polygon fill="white" stroke="black" points="348.217,-507.127 348.217,-526.127 431.217,-526.127 431.217,-507.127 348.217,-507.127"/>
<text text-anchor="middle" x="389.717" y="-514.127" font-family="Helvetica,sans-Serif" font-size="10.00">walltime_report</text>
</a>
</g>
</g>
<!-- Node29&#45;&gt;Node32 -->
<g id="edge12" class="edge"><title>Node29&#45;&gt;Node32</title>
<path fill="none" stroke="midnightblue" d="M358.877,-555.3C366.477,-545.77 375.577,-534.359 381.914,-526.412"/>
<polygon fill="midnightblue" stroke="midnightblue" points="355.94,-553.369 352.441,-563.37 361.413,-557.733 355.94,-553.369"/>
</g>
<!-- Node31 -->
<g id="node7" class="node"><title>Node31</title>
<g id="a_node7"><a xlink:href="main_8c.html#a3c04138a5bfe5d72780bb7e82a18e627" target="_top" xlink:title="main">
<polygon fill="white" stroke="black" points="395.63,-425.783 395.63,-444.783 433.63,-444.783 433.63,-425.783 395.63,-425.783"/>
<text text-anchor="middle" x="414.63" y="-432.783" font-family="Helvetica,sans-Serif" font-size="10.00">main</text>
</a>
</g>
</g>
<!-- Node30&#45;&gt;Node31 -->
<g id="edge7" class="edge"><title>Node30&#45;&gt;Node31</title>
<path fill="none" stroke="midnightblue" d="M500.928,-282.452C480.324,-318.941 435.575,-398.191 420.058,-425.67"/>
<polygon fill="midnightblue" stroke="midnightblue" points="504.186,-283.801 506.055,-273.373 498.09,-280.36 504.186,-283.801"/>
</g>
<!-- Node31&#45;&gt;Node32 -->
<g id="edge8" class="edge"><title>Node31&#45;&gt;Node32</title>
<path fill="none" stroke="midnightblue" d="M408.696,-454.66C403.645,-471.153 396.6,-494.153 392.669,-506.989"/>
<polygon fill="midnightblue" stroke="midnightblue" points="412.093,-455.52 411.675,-444.933 405.4,-453.47 412.093,-455.52"/>
</g>
<!-- Node33 -->
<g id="node9" class="node"><title>Node33</title>
<g id="a_node9"><a xlink:href="run_8c.html#adc59e9ee1517e4e690694a64ab6a59d2" target="_top" xlink:title="write_cpu_log">
<polygon fill="white" stroke="black" points="505.87,-363.303 505.87,-382.303 582.87,-382.303 582.87,-363.303 505.87,-363.303"/>
<text text-anchor="middle" x="544.37" y="-370.303" font-family="Helvetica,sans-Serif" font-size="10.00">write_cpu_log</text>
</a>
</g>
</g>
<!-- Node32&#45;&gt;Node33 -->
<g id="edge9" class="edge"><title>Node32&#45;&gt;Node33</title>
<path fill="none" stroke="midnightblue" d="M407.85,-499.764C440.519,-469.383 508.258,-406.386 534.073,-382.379"/>
<polygon fill="midnightblue" stroke="midnightblue" points="405.287,-497.368 400.347,-506.741 410.054,-502.494 405.287,-497.368"/>
</g>
<!-- Node34 -->
<g id="node10" class="node"><title>Node34</title>
<g id="a_node10"><a xlink:href="run_8c.html#a05e0ffe612d44e6d7f3a9ae5b9df56a2" target="_top" xlink:title="run">
<polygon fill="white" stroke="black" points="464.5,-394.543 464.5,-413.543 494.5,-413.543 494.5,-394.543 464.5,-394.543"/>
<text text-anchor="middle" x="479.5" y="-401.543" font-family="Helvetica,sans-Serif" font-size="10.00">run</text>
</a>
</g>
</g>
<!-- Node33&#45;&gt;Node34 -->
<g id="edge10" class="edge"><title>Node33&#45;&gt;Node34</title>
<path fill="none" stroke="midnightblue" d="M515.232,-386.835C508.209,-390.218 500.977,-393.7 494.873,-396.64"/>
<polygon fill="midnightblue" stroke="midnightblue" points="517.063,-389.838 524.554,-382.346 514.026,-383.532 517.063,-389.838"/>
</g>
<!-- Node34&#45;&gt;Node31 -->
<g id="edge11" class="edge"><title>Node34&#45;&gt;Node31</title>
<path fill="none" stroke="midnightblue" d="M455.267,-415.713C448.173,-419.129 440.518,-422.816 433.786,-426.058"/>
<polygon fill="midnightblue" stroke="midnightblue" points="456.963,-418.781 464.455,-411.289 453.926,-412.474 456.963,-418.781"/>
</g>
<!-- Node39 -->
<g id="node15" class="node"><title>Node39</title>
<g id="a_node15"><a xlink:href="walltime_8h.html#a8cb8a56d90973bb67710a5e0de6f004e" target="_top" xlink:title="walltime_measure_full">
<polygon fill="white" stroke="black" points="108.761,-0.5 108.761,-19.5 221.761,-19.5 221.761,-0.5 108.761,-0.5"/>
<text text-anchor="middle" x="165.261" y="-7.5" font-family="Helvetica,sans-Serif" font-size="10.00">walltime_measure_full</text>
</a>
</g>
</g>
<!-- Node38&#45;&gt;Node39 -->
<g id="edge17" class="edge"><title>Node38&#45;&gt;Node39</title>
<path fill="none" stroke="midnightblue" d="M196.102,-48.6729C188.502,-39.143 179.402,-27.7319 173.065,-19.7852"/>
<polygon fill="midnightblue" stroke="midnightblue" points="193.566,-51.1066 202.537,-56.7427 199.039,-46.7422 193.566,-51.1066"/>
</g>
</g>
</svg>
        <g id="navigator" transform="translate(0 0)" fill="#404254">
                <rect fill="#f2f5e9" fill-opacity="0.5" stroke="#606060" stroke-width=".5" x="0" y="0" width="60" height="60"/>
                <use id="zoomplus" xlink:href="#zoomPlus" x="17" y="9" onmousedown="handleZoom(evt,'in')"/>
                <use id="zoomminus" xlink:href="#zoomMin" x="42" y="9" onmousedown="handleZoom(evt,'out')"/>
                <use id="reset" xlink:href="#resetDef" x="30" y="36" onmousedown="handleReset()"/>
                <g id="arrowUp" xlink:href="#dirArrow" transform="translate(30 24)" onmousedown="handlePan(0,-1)">
                  <use xlink:href="#rim" fill="#404040">
                        <set attributeName="fill" to="#808080" begin="arrowUp.mouseover" end="arrowUp.mouseout"/>
                  </use>
                  <path fill="none" stroke="white" stroke-width="1.5" d="M0,-3.0v7 M-2.5,-0.5L0,-3.0L2.5,-0.5"/>
                </g>
                <g id="arrowRight" xlink:href="#dirArrow" transform="rotate(90) translate(36 -43)" onmousedown="handlePan(1,0)">
                  <use xlink:href="#rim" fill="#404040">
                        <set attributeName="fill" to="#808080" begin="arrowRight.mouseover" end="arrowRight.mouseout"/>
                  </use>
                  <path fill="none" stroke="white" stroke-width="1.5" d="M0,-3.0v7 M-2.5,-0.5L0,-3.0L2.5,-0.5"/>
                </g>
                <g id="arrowDown" xlink:href="#dirArrow" transform="rotate(180) translate(-30 -48)" onmousedown="handlePan(0,1)">
                  <use xlink:href="#rim" fill="#404040">
                        <set attributeName="fill" to="#808080" begin="arrowDown.mouseover" end="arrowDown.mouseout"/>
                  </use>
                  <path fill="none" stroke="white" stroke-width="1.5" d="M0,-3.0v7 M-2.5,-0.5L0,-3.0L2.5,-0.5"/>
                </g>
                <g id="arrowLeft" xlink:href="#dirArrow" transform="rotate(270) translate(-36 17)" onmousedown="handlePan(-1,0)">
                  <use xlink:href="#rim" fill="#404040">
                        <set attributeName="fill" to="#808080" begin="arrowLeft.mouseover" end="arrowLeft.mouseout"/>
                  </use>
                  <path fill="none" stroke="white" stroke-width="1.5" d="M0,-3.0v7 M-2.5,-0.5L0,-3.0L2.5,-0.5"/>
                </g>
        </g>
        <svg viewBox="0 0 15 15" width="100%" height="30px" preserveAspectRatio="xMaxYMin meet">
         <g id="arrow_out" transform="scale(0.3 0.3)">
          <a xlink:href="walltime_8h_a4f4dd186dc5d9dbfc87eaaf30ffb3642_icgraph_org.svg" target="_base">
           <rect id="button" ry="5" rx="5" y="6" x="6" height="38" width="38"
                fill="#f2f5e9" fill-opacity="0.5" stroke="#606060" stroke-width="1.0"/>
           <path id="arrow"
             d="M 11.500037,31.436501 C 11.940474,20.09759 22.043105,11.32322 32.158766,21.979434 L 37.068811,17.246167 C 37.068811,17.246167 37.088388,32 37.088388,32 L 22.160133,31.978069 C 22.160133,31.978069 26.997745,27.140456 26.997745,27.140456 C 18.528582,18.264221 13.291696,25.230495 11.500037,31.436501 z"
             style="fill:#404040;"/>
          </a>
         </g>
        </svg>
</svg>
