<?xml version="1.0" encoding="UTF-8" standalone="no"?>
<!DOCTYPE svg PUBLIC "-//W3C//DTD SVG 1.1//EN"
 "http://www.w3.org/Graphics/SVG/1.1/DTD/svg11.dtd">
<!-- Generated by graphviz version 2.38.0 (20140413.2041)
 -->
<!-- Title: walltime_get Pages: 1 -->
<svg width="578pt" height="85pt"
 viewBox="0.00 0.00 578.00 85.00" xmlns="http://www.w3.org/2000/svg" xmlns:xlink="http://www.w3.org/1999/xlink">
<g id="graph0" class="graph" transform="scale(1 1) rotate(0) translate(4 81)">
<title>walltime_get</title>
<polygon fill="white" stroke="none" points="-4,4 -4,-81 574,-81 574,4 -4,4"/>
<!-- Node40 -->
<g id="node1" class="node"><title>Node40</title>
<polygon fill="#bfbfbf" stroke="black" points="0,-19.5 0,-38.5 71,-38.5 71,-19.5 0,-19.5"/>
<text text-anchor="middle" x="35.5" y="-26.5" font-family="Helvetica,sans-Serif" font-size="10.00">walltime_get</text>
</g>
<!-- Node41 -->
<g id="node2" class="node"><title>Node41</title>
<g id="a_node2"><a xlink:href="walltime_8c.html#a4f4dd186dc5d9dbfc87eaaf30ffb3642" target="_top" xlink:title="walltime_clock">
<polygon fill="white" stroke="black" points="107,-19.5 107,-38.5 188,-38.5 188,-19.5 107,-19.5"/>
<text text-anchor="middle" x="147.5" y="-26.5" font-family="Helvetica,sans-Serif" font-size="10.00">walltime_clock</text>
</a>
</g>
</g>
<!-- Node40&#45;&gt;Node41 -->
<g id="edge1" class="edge"><title>Node40&#45;&gt;Node41</title>
<path fill="none" stroke="midnightblue" d="M71.0029,-29C79.1544,-29 88.0068,-29 96.6855,-29"/>
<polygon fill="midnightblue" stroke="midnightblue" points="96.7414,-32.5001 106.741,-29 96.7413,-25.5001 96.7414,-32.5001"/>
</g>
<!-- Node42 -->
<g id="node3" class="node"><title>Node42</title>
<g id="a_node3"><a xlink:href="walltime_8c.html#a7e97b1e5e48d21dd93fb962dbd031415" target="_top" xlink:title="clockcmp">
<polygon fill="white" stroke="black" points="379.5,-57.5 379.5,-76.5 438.5,-76.5 438.5,-57.5 379.5,-57.5"/>
<text text-anchor="middle" x="409" y="-64.5" font-family="Helvetica,sans-Serif" font-size="10.00">clockcmp</text>
</a>
</g>
</g>
<!-- Node41&#45;&gt;Node42 -->
<g id="edge2" class="edge"><title>Node41&#45;&gt;Node42</title>
<path fill="none" stroke="midnightblue" d="M182.102,-38.5563C195.101,-41.9626 210.157,-45.5565 224,-48 273.652,-56.7645 331.609,-61.925 369.009,-64.6055"/>
<polygon fill="midnightblue" stroke="midnightblue" points="369.238,-68.1296 379.455,-65.3279 369.721,-61.1463 369.238,-68.1296"/>
</g>
<!-- Node43 -->
<g id="node4" class="node"><title>Node43</title>
<g id="a_node4"><a xlink:href="walltime_8c.html#a771e7f4e5961eb4f5b9b1c5c75b66cf3" target="_top" xlink:title="walltime_clock_insert">
<polygon fill="white" stroke="black" points="224,-19.5 224,-38.5 334,-38.5 334,-19.5 224,-19.5"/>
<text text-anchor="middle" x="279" y="-26.5" font-family="Helvetica,sans-Serif" font-size="10.00">walltime_clock_insert</text>
</a>
</g>
</g>
<!-- Node41&#45;&gt;Node43 -->
<g id="edge3" class="edge"><title>Node41&#45;&gt;Node43</title>
<path fill="none" stroke="midnightblue" d="M188.058,-22.7263C196.184,-22.4035 204.938,-22.2447 213.681,-22.2501"/>
<polygon fill="midnightblue" stroke="midnightblue" points="213.873,-25.7517 223.901,-22.3318 213.929,-18.7519 213.873,-25.7517"/>
</g>
<!-- Node43&#45;&gt;Node41 -->
<g id="edge8" class="edge"><title>Node43&#45;&gt;Node41</title>
<path fill="none" stroke="midnightblue" d="M223.901,-35.6682C215.358,-35.8005 206.56,-35.7723 198.125,-35.5836"/>
<polygon fill="midnightblue" stroke="midnightblue" points="198.161,-32.0831 188.058,-35.2737 197.945,-39.0798 198.161,-32.0831"/>
</g>
<!-- Node43&#45;&gt;Node42 -->
<g id="edge4" class="edge"><title>Node43&#45;&gt;Node42</title>
<path fill="none" stroke="midnightblue" d="M312.3,-38.589C329.672,-43.7463 351.212,-50.1411 369.456,-55.5572"/>
<polygon fill="midnightblue" stroke="midnightblue" points="368.622,-58.9606 379.205,-58.4513 370.614,-52.25 368.622,-58.9606"/>
</g>
<!-- Node44 -->
<g id="node5" class="node"><title>Node44</title>
<g id="a_node5"><a xlink:href="openmpsort_8c.html#a8938b38d71dd3b45bfc7cc745c096248" target="_top" xlink:title="qsort_openmp">
<polygon fill="white" stroke="black" points="370,-19.5 370,-38.5 448,-38.5 448,-19.5 370,-19.5"/>
<text text-anchor="middle" x="409" y="-26.5" font-family="Helvetica,sans-Serif" font-size="10.00">qsort_openmp</text>
</a>
</g>
</g>
<!-- Node43&#45;&gt;Node44 -->
<g id="edge5" class="edge"><title>Node43&#45;&gt;Node44</title>
<path fill="none" stroke="midnightblue" d="M334.284,-29C342.716,-29 351.378,-29 359.667,-29"/>
<polygon fill="midnightblue" stroke="midnightblue" points="359.921,-32.5001 369.921,-29 359.921,-25.5001 359.921,-32.5001"/>
</g>
<!-- Node45 -->
<g id="node6" class="node"><title>Node45</title>
<g id="a_node6"><a xlink:href="openmpsort_8c.html#af794f526e2627202b5e7d35506fa3434" target="_top" xlink:title="merge">
<polygon fill="white" stroke="black" points="505,-38.5 505,-57.5 549,-57.5 549,-38.5 505,-38.5"/>
<text text-anchor="middle" x="527" y="-45.5" font-family="Helvetica,sans-Serif" font-size="10.00">merge</text>
</a>
</g>
</g>
<!-- Node44&#45;&gt;Node45 -->
<g id="edge6" class="edge"><title>Node44&#45;&gt;Node45</title>
<path fill="none" stroke="midnightblue" d="M448.304,-35.274C463.492,-37.7616 480.724,-40.5841 495.094,-42.9378"/>
<polygon fill="midnightblue" stroke="midnightblue" points="494.547,-46.3949 504.982,-44.5574 495.679,-39.4869 494.547,-46.3949"/>
</g>
<!-- Node46 -->
<g id="node7" class="node"><title>Node46</title>
<g id="a_node7"><a xlink:href="openmpsort_8c.html#a9af28c641be3cee5fdee6ec137e84c9d" target="_top" xlink:title="msort_with_tmp">
<polygon fill="white" stroke="black" points="484,-0.5 484,-19.5 570,-19.5 570,-0.5 484,-0.5"/>
<text text-anchor="middle" x="527" y="-7.5" font-family="Helvetica,sans-Serif" font-size="10.00">msort_with_tmp</text>
</a>
</g>
</g>
<!-- Node44&#45;&gt;Node46 -->
<g id="edge7" class="edge"><title>Node44&#45;&gt;Node46</title>
<path fill="none" stroke="midnightblue" d="M448.304,-22.726C456.463,-21.3898 465.211,-19.9568 473.789,-18.5519"/>
<polygon fill="midnightblue" stroke="midnightblue" points="474.431,-21.9933 483.734,-16.9228 473.3,-15.0854 474.431,-21.9933"/>
</g>
</g>
</svg>
