<?xml version="1.0" encoding="UTF-8" standalone="no"?>
<!DOCTYPE svg PUBLIC "-//W3C//DTD SVG 1.1//EN"
 "http://www.w3.org/Graphics/SVG/1.1/DTD/svg11.dtd">
<!-- Generated by graphviz version 2.38.0 (20140413.2041)
 -->
<!-- Title: walltime_clock Pages: 1 -->
<svg width="474pt" height="123pt"
 viewBox="0.00 0.00 474.00 123.00" xmlns="http://www.w3.org/2000/svg" xmlns:xlink="http://www.w3.org/1999/xlink">
<g id="graph0" class="graph" transform="scale(1 1) rotate(0) translate(4 119)">
<title>walltime_clock</title>
<polygon fill="white" stroke="none" points="-4,4 -4,-119 470,-119 470,4 -4,4"/>
<!-- Node18 -->
<g id="node1" class="node"><title>Node18</title>
<polygon fill="#bfbfbf" stroke="black" points="0,-95.5 0,-114.5 81,-114.5 81,-95.5 0,-95.5"/>
<text text-anchor="middle" x="40.5" y="-102.5" font-family="Helvetica,sans-Serif" font-size="10.00">walltime_clock</text>
</g>
<!-- Node19 -->
<g id="node2" class="node"><title>Node19</title>
<g id="a_node2"><a xlink:href="walltime_8c.html#a7e97b1e5e48d21dd93fb962dbd031415" target="_top" xlink:title="clockcmp">
<polygon fill="white" stroke="black" points="393.5,-95.5 393.5,-114.5 452.5,-114.5 452.5,-95.5 393.5,-95.5"/>
<text text-anchor="middle" x="423" y="-102.5" font-family="Helvetica,sans-Serif" font-size="10.00">clockcmp</text>
</a>
</g>
</g>
<!-- Node18&#45;&gt;Node19 -->
<g id="edge1" class="edge"><title>Node18&#45;&gt;Node19</title>
<path fill="none" stroke="midnightblue" d="M81.1434,-105C154.437,-105 310.28,-105 383.05,-105"/>
<polygon fill="midnightblue" stroke="midnightblue" points="383.164,-108.5 393.164,-105 383.164,-101.5 383.164,-108.5"/>
</g>
<!-- Node20 -->
<g id="node3" class="node"><title>Node20</title>
<g id="a_node3"><a xlink:href="walltime_8c.html#a771e7f4e5961eb4f5b9b1c5c75b66cf3" target="_top" xlink:title="walltime_clock_insert">
<polygon fill="white" stroke="black" points="117,-57.5 117,-76.5 227,-76.5 227,-57.5 117,-57.5"/>
<text text-anchor="middle" x="172" y="-64.5" font-family="Helvetica,sans-Serif" font-size="10.00">walltime_clock_insert</text>
</a>
</g>
</g>
<!-- Node18&#45;&gt;Node20 -->
<g id="edge2" class="edge"><title>Node18&#45;&gt;Node20</title>
<path fill="none" stroke="midnightblue" d="M74.1783,-95.411C90.5888,-90.5956 110.676,-84.7012 128.292,-79.532"/>
<polygon fill="midnightblue" stroke="midnightblue" points="129.722,-82.7601 138.332,-76.5859 127.751,-76.0433 129.722,-82.7601"/>
</g>
<!-- Node20&#45;&gt;Node19 -->
<g id="edge3" class="edge"><title>Node20&#45;&gt;Node19</title>
<path fill="none" stroke="midnightblue" d="M214.525,-76.574C229.72,-79.8635 247.086,-83.3747 263,-86 303.786,-92.7283 350.833,-98.0505 383.108,-101.33"/>
<polygon fill="midnightblue" stroke="midnightblue" points="383.159,-104.852 393.457,-102.363 383.854,-97.8871 383.159,-104.852"/>
</g>
<!-- Node21 -->
<g id="node4" class="node"><title>Node21</title>
<g id="a_node4"><a xlink:href="openmpsort_8c.html#a8938b38d71dd3b45bfc7cc745c096248" target="_top" xlink:title="qsort_openmp">
<polygon fill="white" stroke="black" points="264.5,-19.5 264.5,-38.5 342.5,-38.5 342.5,-19.5 264.5,-19.5"/>
<text text-anchor="middle" x="303.5" y="-26.5" font-family="Helvetica,sans-Serif" font-size="10.00">qsort_openmp</text>
</a>
</g>
</g>
<!-- Node20&#45;&gt;Node21 -->
<g id="edge4" class="edge"><title>Node20&#45;&gt;Node21</title>
<path fill="none" stroke="midnightblue" d="M205.678,-57.411C222.089,-52.5956 242.176,-46.7012 259.792,-41.532"/>
<polygon fill="midnightblue" stroke="midnightblue" points="261.222,-44.7601 269.832,-38.5859 259.251,-38.0433 261.222,-44.7601"/>
</g>
<!-- Node24 -->
<g id="node7" class="node"><title>Node24</title>
<g id="a_node7"><a xlink:href="walltime_8c.html#a4f4dd186dc5d9dbfc87eaaf30ffb3642" target="_top" xlink:title="walltime_clock">
<polygon fill="white" stroke="black" points="263,-57.5 263,-76.5 344,-76.5 344,-57.5 263,-57.5"/>
<text text-anchor="middle" x="303.5" y="-64.5" font-family="Helvetica,sans-Serif" font-size="10.00">walltime_clock</text>
</a>
</g>
</g>
<!-- Node20&#45;&gt;Node24 -->
<g id="edge7" class="edge"><title>Node20&#45;&gt;Node24</title>
<path fill="none" stroke="midnightblue" d="M227.169,-60.3307C235.551,-60.2018 244.177,-60.2273 252.462,-60.4073"/>
<polygon fill="midnightblue" stroke="midnightblue" points="252.631,-63.9139 262.733,-60.718 252.843,-56.9171 252.631,-63.9139"/>
</g>
<!-- Node22 -->
<g id="node5" class="node"><title>Node22</title>
<g id="a_node5"><a xlink:href="openmpsort_8c.html#af794f526e2627202b5e7d35506fa3434" target="_top" xlink:title="merge">
<polygon fill="white" stroke="black" points="401,-38.5 401,-57.5 445,-57.5 445,-38.5 401,-38.5"/>
<text text-anchor="middle" x="423" y="-45.5" font-family="Helvetica,sans-Serif" font-size="10.00">merge</text>
</a>
</g>
</g>
<!-- Node21&#45;&gt;Node22 -->
<g id="edge5" class="edge"><title>Node21&#45;&gt;Node22</title>
<path fill="none" stroke="midnightblue" d="M342.649,-35.1688C358.179,-37.6799 375.907,-40.5467 390.662,-42.9326"/>
<polygon fill="midnightblue" stroke="midnightblue" points="390.376,-46.4317 400.807,-44.573 391.494,-39.5215 390.376,-46.4317"/>
</g>
<!-- Node23 -->
<g id="node6" class="node"><title>Node23</title>
<g id="a_node6"><a xlink:href="openmpsort_8c.html#a9af28c641be3cee5fdee6ec137e84c9d" target="_top" xlink:title="msort_with_tmp">
<polygon fill="white" stroke="black" points="380,-0.5 380,-19.5 466,-19.5 466,-0.5 380,-0.5"/>
<text text-anchor="middle" x="423" y="-7.5" font-family="Helvetica,sans-Serif" font-size="10.00">msort_with_tmp</text>
</a>
</g>
</g>
<!-- Node21&#45;&gt;Node23 -->
<g id="edge6" class="edge"><title>Node21&#45;&gt;Node23</title>
<path fill="none" stroke="midnightblue" d="M342.649,-22.8312C351.408,-21.4148 360.867,-19.8853 370.098,-18.3927"/>
<polygon fill="midnightblue" stroke="midnightblue" points="370.667,-21.8462 379.98,-16.7947 369.55,-14.9359 370.667,-21.8462"/>
</g>
<!-- Node24&#45;&gt;Node19 -->
<g id="edge8" class="edge"><title>Node24&#45;&gt;Node19</title>
<path fill="none" stroke="midnightblue" d="M334.15,-76.589C349.126,-81.4323 367.477,-87.367 383.527,-92.5575"/>
<polygon fill="midnightblue" stroke="midnightblue" points="382.58,-95.9298 393.172,-95.6768 384.734,-89.2694 382.58,-95.9298"/>
</g>
<!-- Node24&#45;&gt;Node20 -->
<g id="edge9" class="edge"><title>Node24&#45;&gt;Node20</title>
<path fill="none" stroke="midnightblue" d="M262.733,-73.282C254.662,-73.5994 245.979,-73.7554 237.307,-73.7499"/>
<polygon fill="midnightblue" stroke="midnightblue" points="237.197,-70.249 227.169,-73.6693 237.141,-77.2487 237.197,-70.249"/>
</g>
</g>
</svg>
