<?xml version="1.0" encoding="UTF-8" standalone="no"?>
<!DOCTYPE svg PUBLIC "-//W3C//DTD SVG 1.1//EN"
 "http://www.w3.org/Graphics/SVG/1.1/DTD/svg11.dtd">
<!-- Generated by graphviz version 2.38.0 (20140413.2041)
 -->
<!-- Title: walltime_update_parents Pages: 1 -->
<svg width="639pt" height="47pt"
 viewBox="0.00 0.00 639.00 47.00" xmlns="http://www.w3.org/2000/svg" xmlns:xlink="http://www.w3.org/1999/xlink">
<g id="graph0" class="graph" transform="scale(1 1) rotate(0) translate(4 43)">
<title>walltime_update_parents</title>
<polygon fill="white" stroke="none" points="-4,4 -4,-43 635,-43 635,4 -4,4"/>
<!-- Node639 -->
<g id="node1" class="node"><title>Node639</title>
<polygon fill="#bfbfbf" stroke="black" points="0,-0.5 0,-19.5 125,-19.5 125,-0.5 0,-0.5"/>
<text text-anchor="middle" x="62.5" y="-7.5" font-family="Helvetica,sans-Serif" font-size="10.00">walltime_update_parents</text>
</g>
<!-- Node640 -->
<g id="node2" class="node"><title>Node640</title>
<g id="a_node2"><a xlink:href="walltime_8h.html#a44ebd264165684ad7bed2d5bf4e02e22" target="_top" xlink:title="walltime_summary">
<polygon fill="white" stroke="black" points="161,-0.5 161,-19.5 259,-19.5 259,-0.5 161,-0.5"/>
<text text-anchor="middle" x="210" y="-7.5" font-family="Helvetica,sans-Serif" font-size="10.00">walltime_summary</text>
</a>
</g>
</g>
<!-- Node639&#45;&gt;Node640 -->
<g id="edge1" class="edge"><title>Node639&#45;&gt;Node640</title>
<path fill="none" stroke="midnightblue" d="M135.336,-10C143.998,-10 152.677,-10 160.882,-10"/>
<polygon fill="midnightblue" stroke="midnightblue" points="135.205,-6.5001 125.205,-10 135.205,-13.5001 135.205,-6.5001"/>
</g>
<!-- Node641 -->
<g id="node3" class="node"><title>Node641</title>
<g id="a_node3"><a xlink:href="run_8c.html#adc59e9ee1517e4e690694a64ab6a59d2" target="_top" xlink:title="write_cpu_log">
<polygon fill="white" stroke="black" points="295,-0.5 295,-19.5 372,-19.5 372,-0.5 295,-0.5"/>
<text text-anchor="middle" x="333.5" y="-7.5" font-family="Helvetica,sans-Serif" font-size="10.00">write_cpu_log</text>
</a>
</g>
</g>
<!-- Node640&#45;&gt;Node641 -->
<g id="edge2" class="edge"><title>Node640&#45;&gt;Node641</title>
<path fill="none" stroke="midnightblue" d="M269.213,-10C277.961,-10 286.779,-10 294.941,-10"/>
<polygon fill="midnightblue" stroke="midnightblue" points="269.02,-6.5001 259.02,-10 269.02,-13.5001 269.02,-6.5001"/>
</g>
<!-- Node642 -->
<g id="node4" class="node"><title>Node642</title>
<g id="a_node4"><a xlink:href="run_8c.html#a05e0ffe612d44e6d7f3a9ae5b9df56a2" target="_top" xlink:title="run">
<polygon fill="white" stroke="black" points="408,-19.5 408,-38.5 438,-38.5 438,-19.5 408,-19.5"/>
<text text-anchor="middle" x="423" y="-26.5" font-family="Helvetica,sans-Serif" font-size="10.00">run</text>
</a>
</g>
</g>
<!-- Node641&#45;&gt;Node642 -->
<g id="edge3" class="edge"><title>Node641&#45;&gt;Node642</title>
<path fill="none" stroke="midnightblue" d="M381.925,-20.2979C391.329,-22.3399 400.505,-24.3324 407.698,-25.8944"/>
<polygon fill="midnightblue" stroke="midnightblue" points="382.631,-16.8697 372.116,-18.168 381.145,-23.7103 382.631,-16.8697"/>
</g>
<!-- Node643 -->
<g id="node5" class="node"><title>Node643</title>
<g id="a_node5"><a xlink:href="main_8c.html#a3c04138a5bfe5d72780bb7e82a18e627" target="_top" xlink:title="main">
<polygon fill="white" stroke="black" points="474,-19.5 474,-38.5 512,-38.5 512,-19.5 474,-19.5"/>
<text text-anchor="middle" x="493" y="-26.5" font-family="Helvetica,sans-Serif" font-size="10.00">main</text>
</a>
</g>
</g>
<!-- Node642&#45;&gt;Node643 -->
<g id="edge4" class="edge"><title>Node642&#45;&gt;Node643</title>
<path fill="none" stroke="midnightblue" d="M448.134,-29C456.578,-29 465.911,-29 473.79,-29"/>
<polygon fill="midnightblue" stroke="midnightblue" points="448.09,-25.5001 438.09,-29 448.09,-32.5001 448.09,-25.5001"/>
</g>
<!-- Node644 -->
<g id="node6" class="node"><title>Node644</title>
<g id="a_node6"><a xlink:href="walltime_8h.html#a76d2135b612766d4d665748454b879d6" target="_top" xlink:title="walltime_report">
<polygon fill="white" stroke="black" points="548,-0.5 548,-19.5 631,-19.5 631,-0.5 548,-0.5"/>
<text text-anchor="middle" x="589.5" y="-7.5" font-family="Helvetica,sans-Serif" font-size="10.00">walltime_report</text>
</a>
</g>
</g>
<!-- Node643&#45;&gt;Node644 -->
<g id="edge5" class="edge"><title>Node643&#45;&gt;Node644</title>
<path fill="none" stroke="midnightblue" d="M522.141,-23.342C530.148,-21.7322 539.035,-19.9453 547.635,-18.2163"/>
<polygon fill="midnightblue" stroke="midnightblue" points="521.334,-19.9341 512.221,-25.3366 522.714,-26.7967 521.334,-19.9341"/>
</g>
<!-- Node644&#45;&gt;Node641 -->
<g id="edge6" class="edge"><title>Node644&#45;&gt;Node641</title>
<path fill="none" stroke="midnightblue" d="M537.549,-10C488.71,-10 416.119,-10 372.252,-10"/>
<polygon fill="midnightblue" stroke="midnightblue" points="537.591,-13.5001 547.591,-10 537.591,-6.5001 537.591,-13.5001"/>
</g>
</g>
</svg>
