<?xml version="1.0" encoding="UTF-8" standalone="no"?>
<!DOCTYPE svg PUBLIC "-//W3C//DTD SVG 1.1//EN"
 "http://www.w3.org/Graphics/SVG/1.1/DTD/svg11.dtd">
<!-- Generated by graphviz version 2.38.0 (20140413.2041)
 -->
<!-- Title: walltime_report Pages: 1 -->
<svg width="463pt" height="47pt"
 viewBox="0.00 0.00 463.00 47.00" xmlns="http://www.w3.org/2000/svg" xmlns:xlink="http://www.w3.org/1999/xlink">
<g id="graph0" class="graph" transform="scale(1 1) rotate(0) translate(4 43)">
<title>walltime_report</title>
<polygon fill="white" stroke="none" points="-4,4 -4,-43 459,-43 459,4 -4,4"/>
<!-- Node608 -->
<g id="node1" class="node"><title>Node608</title>
<polygon fill="#bfbfbf" stroke="black" points="0,-0.5 0,-19.5 83,-19.5 83,-0.5 0,-0.5"/>
<text text-anchor="middle" x="41.5" y="-7.5" font-family="Helvetica,sans-Serif" font-size="10.00">walltime_report</text>
</g>
<!-- Node609 -->
<g id="node2" class="node"><title>Node609</title>
<g id="a_node2"><a xlink:href="run_8c.html#adc59e9ee1517e4e690694a64ab6a59d2" target="_top" xlink:title="write_cpu_log">
<polygon fill="white" stroke="black" points="119,-0.5 119,-19.5 196,-19.5 196,-0.5 119,-0.5"/>
<text text-anchor="middle" x="157.5" y="-7.5" font-family="Helvetica,sans-Serif" font-size="10.00">write_cpu_log</text>
</a>
</g>
</g>
<!-- Node608&#45;&gt;Node609 -->
<g id="edge1" class="edge"><title>Node608&#45;&gt;Node609</title>
<path fill="none" stroke="midnightblue" d="M93.0306,-10C101.684,-10 110.54,-10 118.785,-10"/>
<polygon fill="midnightblue" stroke="midnightblue" points="93.0132,-6.5001 83.0131,-10 93.0131,-13.5001 93.0132,-6.5001"/>
</g>
<!-- Node610 -->
<g id="node3" class="node"><title>Node610</title>
<g id="a_node3"><a xlink:href="run_8c.html#a05e0ffe612d44e6d7f3a9ae5b9df56a2" target="_top" xlink:title="run">
<polygon fill="white" stroke="black" points="232,-19.5 232,-38.5 262,-38.5 262,-19.5 232,-19.5"/>
<text text-anchor="middle" x="247" y="-26.5" font-family="Helvetica,sans-Serif" font-size="10.00">run</text>
</a>
</g>
</g>
<!-- Node609&#45;&gt;Node610 -->
<g id="edge2" class="edge"><title>Node609&#45;&gt;Node610</title>
<path fill="none" stroke="midnightblue" d="M205.925,-20.2979C215.329,-22.3399 224.505,-24.3324 231.698,-25.8944"/>
<polygon fill="midnightblue" stroke="midnightblue" points="206.631,-16.8697 196.116,-18.168 205.145,-23.7103 206.631,-16.8697"/>
</g>
<!-- Node611 -->
<g id="node4" class="node"><title>Node611</title>
<g id="a_node4"><a xlink:href="main_8c.html#a3c04138a5bfe5d72780bb7e82a18e627" target="_top" xlink:title="main">
<polygon fill="white" stroke="black" points="298,-19.5 298,-38.5 336,-38.5 336,-19.5 298,-19.5"/>
<text text-anchor="middle" x="317" y="-26.5" font-family="Helvetica,sans-Serif" font-size="10.00">main</text>
</a>
</g>
</g>
<!-- Node610&#45;&gt;Node611 -->
<g id="edge3" class="edge"><title>Node610&#45;&gt;Node611</title>
<path fill="none" stroke="midnightblue" d="M272.134,-29C280.578,-29 289.911,-29 297.79,-29"/>
<polygon fill="midnightblue" stroke="midnightblue" points="272.09,-25.5001 262.09,-29 272.09,-32.5001 272.09,-25.5001"/>
</g>
<!-- Node612 -->
<g id="node5" class="node"><title>Node612</title>
<g id="a_node5"><a xlink:href="walltime_8h.html#a76d2135b612766d4d665748454b879d6" target="_top" xlink:title="walltime_report">
<polygon fill="white" stroke="black" points="372,-0.5 372,-19.5 455,-19.5 455,-0.5 372,-0.5"/>
<text text-anchor="middle" x="413.5" y="-7.5" font-family="Helvetica,sans-Serif" font-size="10.00">walltime_report</text>
</a>
</g>
</g>
<!-- Node611&#45;&gt;Node612 -->
<g id="edge4" class="edge"><title>Node611&#45;&gt;Node612</title>
<path fill="none" stroke="midnightblue" d="M346.141,-23.342C354.148,-21.7322 363.035,-19.9453 371.635,-18.2163"/>
<polygon fill="midnightblue" stroke="midnightblue" points="345.334,-19.9341 336.221,-25.3366 346.714,-26.7967 345.334,-19.9341"/>
</g>
<!-- Node612&#45;&gt;Node609 -->
<g id="edge5" class="edge"><title>Node612&#45;&gt;Node609</title>
<path fill="none" stroke="midnightblue" d="M361.549,-10C312.71,-10 240.119,-10 196.252,-10"/>
<polygon fill="midnightblue" stroke="midnightblue" points="361.591,-13.5001 371.591,-10 361.591,-6.5001 361.591,-13.5001"/>
</g>
</g>
</svg>
