<?xml version="1.0" encoding="UTF-8" standalone="no"?>
<!DOCTYPE svg PUBLIC "-//W3C//DTD SVG 1.1//EN"
 "http://www.w3.org/Graphics/SVG/1.1/DTD/svg11.dtd">
<!-- Generated by graphviz version 2.50.0 (0)
 -->
<!-- Title: winds_subgrid Pages: 1 -->
<svg width="1375pt" height="947pt"
 viewBox="0.00 0.00 1375.00 946.50" xmlns="http://www.w3.org/2000/svg" xmlns:xlink="http://www.w3.org/1999/xlink">
<g id="graph0" class="graph" transform="scale(1 1) rotate(0) translate(4 942.5)">
<title>winds_subgrid</title>
<polygon fill="white" stroke="transparent" points="-4,4 -4,-942.5 1371,-942.5 1371,4 -4,4"/>
<!-- Node1 -->
<g id="node1" class="node">
<title>Node1</title>
<g id="a_node1"><a xlink:title=" ">
<polygon fill="#bfbfbf" stroke="black" points="0,-786 0,-805 86,-805 86,-786 0,-786"/>
<text text-anchor="middle" x="43" y="-793" font-family="Helvetica,sans-Serif" font-size="10.00">winds_subgrid</text>
</a>
</g>
</g>
<!-- Node2 -->
<g id="node2" class="node">
<title>Node2</title>
<g id="a_node2"><a xlink:href="system_8c.html#ade2741449d03e719e2e91a6e511e07a4" target="_top" xlink:title=" ">
<polygon fill="white" stroke="black" points="148.5,-824 148.5,-843 214.5,-843 214.5,-824 148.5,-824"/>
<text text-anchor="middle" x="181.5" y="-831" font-family="Helvetica,sans-Serif" font-size="10.00">MPIU_Any</text>
</a>
</g>
</g>
<!-- Node1&#45;&gt;Node2 -->
<g id="edge1" class="edge">
<title>Node1&#45;&gt;Node2</title>
<path fill="none" stroke="midnightblue" d="M78.44,-805.09C96.74,-810.18 119.37,-816.48 138.66,-821.85"/>
<polygon fill="midnightblue" stroke="midnightblue" points="137.84,-825.26 148.41,-824.57 139.72,-818.51 137.84,-825.26"/>
</g>
<!-- Node3 -->
<g id="node3" class="node">
<title>Node3</title>
<g id="a_node3"><a xlink:href="winds_8c.html#ada438f91fe37bf38ff3b49a86ef5528e" target="_top" xlink:title=" ">
<polygon fill="white" stroke="black" points="125.5,-786 125.5,-805 237.5,-805 237.5,-786 125.5,-786"/>
<text text-anchor="middle" x="181.5" y="-793" font-family="Helvetica,sans-Serif" font-size="10.00">winds_find_weights</text>
</a>
</g>
</g>
<!-- Node1&#45;&gt;Node3 -->
<g id="edge2" class="edge">
<title>Node1&#45;&gt;Node3</title>
<path fill="none" stroke="midnightblue" d="M86.07,-795.5C95.25,-795.5 105.19,-795.5 115.04,-795.5"/>
<polygon fill="midnightblue" stroke="midnightblue" points="115.25,-799 125.25,-795.5 115.25,-792 115.25,-799"/>
</g>
<!-- Node47 -->
<g id="node47" class="node">
<title>Node47</title>
<g id="a_node47"><a xlink:href="winds_8c.html#aaa222abd429c8ee6138143c00a20c234" target="_top" xlink:title=" ">
<polygon fill="white" stroke="black" points="122,-748 122,-767 241,-767 241,-748 122,-748"/>
<text text-anchor="middle" x="181.5" y="-755" font-family="Helvetica,sans-Serif" font-size="10.00">winds_make_after_sf</text>
</a>
</g>
</g>
<!-- Node1&#45;&gt;Node47 -->
<g id="edge73" class="edge">
<title>Node1&#45;&gt;Node47</title>
<path fill="none" stroke="midnightblue" d="M78.44,-785.91C95.98,-781.03 117.51,-775.04 136.26,-769.82"/>
<polygon fill="midnightblue" stroke="midnightblue" points="137.37,-773.14 146.07,-767.09 135.49,-766.4 137.37,-773.14"/>
</g>
<!-- Node4 -->
<g id="node4" class="node">
<title>Node4</title>
<g id="a_node4"><a xlink:href="winds_8c.html#adcf39595c0d7d48d0f30ebb0ca163cb3" target="_top" xlink:title=" ">
<polygon fill="white" stroke="black" points="314,-862 314,-881 400,-881 400,-862 314,-862"/>
<text text-anchor="middle" x="357" y="-869" font-family="Helvetica,sans-Serif" font-size="10.00">sfr_wind_copy</text>
</a>
</g>
</g>
<!-- Node3&#45;&gt;Node4 -->
<g id="edge3" class="edge">
<title>Node3&#45;&gt;Node4</title>
<path fill="none" stroke="midnightblue" d="M221.18,-805.03C228.06,-807.56 234.95,-810.68 241,-814.5 260.67,-826.92 256.86,-840.86 277,-852.5 285.25,-857.27 294.64,-860.84 304,-863.52"/>
<polygon fill="midnightblue" stroke="midnightblue" points="303.14,-866.92 313.7,-866 304.88,-860.13 303.14,-866.92"/>
</g>
<!-- Node8 -->
<g id="node8" class="node">
<title>Node8</title>
<g id="a_node8"><a xlink:href="winds_8c.html#a0223e4c6d8241b64c3be4430c060b8d7" target="_top" xlink:title=" ">
<polygon fill="white" stroke="black" points="290,-824 290,-843 424,-843 424,-824 290,-824"/>
<text text-anchor="middle" x="357" y="-831" font-family="Helvetica,sans-Serif" font-size="10.00">sfr_wind_reduce_weight</text>
</a>
</g>
</g>
<!-- Node3&#45;&gt;Node8 -->
<g id="edge7" class="edge">
<title>Node3&#45;&gt;Node8</title>
<path fill="none" stroke="midnightblue" d="M226.28,-805.09C249.49,-810.17 278.18,-816.46 302.67,-821.82"/>
<polygon fill="midnightblue" stroke="midnightblue" points="302.02,-825.26 312.53,-823.98 303.51,-818.42 302.02,-825.26"/>
</g>
<!-- Node9 -->
<g id="node9" class="node">
<title>Node9</title>
<g id="a_node9"><a xlink:href="winds_8c.html#a3aeafc6b684066752e88a22505a493ef" target="_top" xlink:title=" ">
<polygon fill="white" stroke="black" points="289,-786 289,-805 425,-805 425,-786 289,-786"/>
<text text-anchor="middle" x="357" y="-793" font-family="Helvetica,sans-Serif" font-size="10.00">sfr_wind_weight_ngbiter</text>
</a>
</g>
</g>
<!-- Node3&#45;&gt;Node9 -->
<g id="edge8" class="edge">
<title>Node3&#45;&gt;Node9</title>
<path fill="none" stroke="midnightblue" d="M237.87,-795.5C250.76,-795.5 264.7,-795.5 278.35,-795.5"/>
<polygon fill="midnightblue" stroke="midnightblue" points="278.7,-799 288.7,-795.5 278.7,-792 278.7,-799"/>
</g>
<!-- Node10 -->
<g id="node10" class="node">
<title>Node10</title>
<g id="a_node10"><a xlink:href="winds_8c.html#a42efa4f6f370b61e66dfe818a7b36418" target="_top" xlink:title=" ">
<polygon fill="white" stroke="black" points="277,-900 277,-919 437,-919 437,-900 277,-900"/>
<text text-anchor="middle" x="357" y="-907" font-family="Helvetica,sans-Serif" font-size="10.00">sfr_wind_weight_postprocess</text>
</a>
</g>
</g>
<!-- Node3&#45;&gt;Node10 -->
<g id="edge9" class="edge">
<title>Node3&#45;&gt;Node10</title>
<path fill="none" stroke="midnightblue" d="M225.9,-805.07C231.37,-807.53 236.59,-810.62 241,-814.5 269.07,-839.18 247.99,-866.93 277,-890.5 279.06,-892.17 281.24,-893.7 283.52,-895.1"/>
<polygon fill="midnightblue" stroke="midnightblue" points="282.23,-898.37 292.72,-899.87 285.45,-892.16 282.23,-898.37"/>
</g>
<!-- Node12 -->
<g id="node12" class="node">
<title>Node12</title>
<g id="a_node12"><a xlink:href="system_8c.html#a866c4b0425665030c89933c11752b1fe" target="_top" xlink:title=" ">
<polygon fill="white" stroke="black" points="305.5,-748 305.5,-767 408.5,-767 408.5,-748 305.5,-748"/>
<text text-anchor="middle" x="357" y="-755" font-family="Helvetica,sans-Serif" font-size="10.00">sumup_large_ints</text>
</a>
</g>
</g>
<!-- Node3&#45;&gt;Node12 -->
<g id="edge12" class="edge">
<title>Node3&#45;&gt;Node12</title>
<path fill="none" stroke="midnightblue" d="M226.28,-785.91C249.49,-780.83 278.18,-774.54 302.67,-769.18"/>
<polygon fill="midnightblue" stroke="midnightblue" points="303.51,-772.58 312.53,-767.02 302.02,-765.74 303.51,-772.58"/>
</g>
<!-- Node13 -->
<g id="node13" class="node">
<title>Node13</title>
<g id="a_node13"><a xlink:href="treewalk_8c.html#a72643adf5c7952933b8f5fbb27d45a97" target="_top" xlink:title=" ">
<polygon fill="white" stroke="black" points="291,-117 291,-136 423,-136 423,-117 291,-117"/>
<text text-anchor="middle" x="357" y="-124" font-family="Helvetica,sans-Serif" font-size="10.00">treewalk_do_hsml_loop</text>
</a>
</g>
</g>
<!-- Node3&#45;&gt;Node13 -->
<g id="edge13" class="edge">
<title>Node3&#45;&gt;Node13</title>
<path fill="none" stroke="midnightblue" d="M228.94,-785.91C233.48,-783.45 237.64,-780.37 241,-776.5 283.86,-727.23 341.57,-250.32 353.71,-146.42"/>
<polygon fill="midnightblue" stroke="midnightblue" points="357.2,-146.69 354.87,-136.35 350.24,-145.88 357.2,-146.69"/>
</g>
<!-- Node44 -->
<g id="node44" class="node">
<title>Node44</title>
<g id="a_node44"><a xlink:href="treewalk_8c.html#a1878fddf49185074fd570a46f3eea372" target="_top" xlink:title=" ">
<polygon fill="white" stroke="black" points="769,-715.5 769,-745.5 887,-745.5 887,-715.5 769,-715.5"/>
<text text-anchor="start" x="777" y="-733.5" font-family="Helvetica,sans-Serif" font-size="10.00">treewalk_visit_nolist</text>
<text text-anchor="middle" x="828" y="-722.5" font-family="Helvetica,sans-Serif" font-size="10.00">_ngbiter</text>
</a>
</g>
</g>
<!-- Node3&#45;&gt;Node44 -->
<g id="edge68" class="edge">
<title>Node3&#45;&gt;Node44</title>
<path fill="none" stroke="midnightblue" d="M221.18,-785.97C228.06,-783.44 234.95,-780.32 241,-776.5 260.67,-764.08 255.7,-747.85 277,-738.5 437.75,-667.97 651.22,-694.6 758.82,-715.23"/>
<polygon fill="midnightblue" stroke="midnightblue" points="758.41,-718.71 768.9,-717.2 759.76,-711.84 758.41,-718.71"/>
</g>
<!-- Node5 -->
<g id="node5" class="node">
<title>Node5</title>
<g id="a_node5"><a xlink:href="winds_8c.html#a1dbcaffe39a1283f7f766a0493b95da4" target="_top" xlink:title=" ">
<polygon fill="white" stroke="black" points="488,-881 488,-900 563,-900 563,-881 488,-881"/>
<text text-anchor="middle" x="525.5" y="-888" font-family="Helvetica,sans-Serif" font-size="10.00">effdmradius</text>
</a>
</g>
</g>
<!-- Node4&#45;&gt;Node5 -->
<g id="edge4" class="edge">
<title>Node4&#45;&gt;Node5</title>
<path fill="none" stroke="midnightblue" d="M400.01,-876.29C423.7,-879 453.35,-882.38 477.76,-885.17"/>
<polygon fill="midnightblue" stroke="midnightblue" points="477.54,-888.66 487.88,-886.32 478.34,-881.71 477.54,-888.66"/>
</g>
<!-- Node6 -->
<g id="node6" class="node">
<title>Node6</title>
<g id="a_node6"><a xlink:href="timebinmgr_8c.html#a716e51b694540af2851fb51c081bcf5d" target="_top" xlink:title=" ">
<polygon fill="white" stroke="black" points="473.5,-843 473.5,-862 577.5,-862 577.5,-843 473.5,-843"/>
<text text-anchor="middle" x="525.5" y="-850" font-family="Helvetica,sans-Serif" font-size="10.00">get_dloga_for_bin</text>
</a>
</g>
</g>
<!-- Node4&#45;&gt;Node6 -->
<g id="edge5" class="edge">
<title>Node4&#45;&gt;Node6</title>
<path fill="none" stroke="midnightblue" d="M400.01,-866.71C419.14,-864.52 442.15,-861.9 463.15,-859.5"/>
<polygon fill="midnightblue" stroke="midnightblue" points="463.74,-862.96 473.28,-858.35 462.95,-856 463.74,-862.96"/>
</g>
<!-- Node7 -->
<g id="node7" class="node">
<title>Node7</title>
<g id="a_node7"><a xlink:href="timebinmgr_8c.html#a1aaa55e4aa15066a753c96e8646e62be" target="_top" xlink:title=" ">
<polygon fill="white" stroke="black" points="622,-843 622,-862 722,-862 722,-843 622,-843"/>
<text text-anchor="middle" x="672" y="-850" font-family="Helvetica,sans-Serif" font-size="10.00">Dloga_interval_ti</text>
</a>
</g>
</g>
<!-- Node6&#45;&gt;Node7 -->
<g id="edge6" class="edge">
<title>Node6&#45;&gt;Node7</title>
<path fill="none" stroke="midnightblue" d="M577.85,-852.5C588.78,-852.5 600.41,-852.5 611.62,-852.5"/>
<polygon fill="midnightblue" stroke="midnightblue" points="611.75,-856 621.75,-852.5 611.75,-849 611.75,-856"/>
</g>
<!-- Node10&#45;&gt;Node5 -->
<g id="edge10" class="edge">
<title>Node10&#45;&gt;Node5</title>
<path fill="none" stroke="midnightblue" d="M437.35,-900.45C451.09,-898.88 464.97,-897.29 477.5,-895.86"/>
<polygon fill="midnightblue" stroke="midnightblue" points="478.13,-899.31 487.66,-894.7 477.33,-892.36 478.13,-899.31"/>
</g>
<!-- Node11 -->
<g id="node11" class="node">
<title>Node11</title>
<g id="a_node11"><a xlink:href="treewalk_8c.html#a510761e6aead0135964f0f9b18a4f8e7" target="_top" xlink:title=" ">
<polygon fill="white" stroke="black" points="473,-919 473,-938 578,-938 578,-919 473,-919"/>
<text text-anchor="middle" x="525.5" y="-926" font-family="Helvetica,sans-Serif" font-size="10.00">ngb_narrow_down</text>
</a>
</g>
</g>
<!-- Node10&#45;&gt;Node11 -->
<g id="edge11" class="edge">
<title>Node10&#45;&gt;Node11</title>
<path fill="none" stroke="midnightblue" d="M437.35,-918.55C445.92,-919.53 454.55,-920.52 462.87,-921.47"/>
<polygon fill="midnightblue" stroke="midnightblue" points="462.51,-924.95 472.84,-922.61 463.31,-917.99 462.51,-924.95"/>
</g>
<!-- Node14 -->
<g id="node14" class="node">
<title>Node14</title>
<g id="a_node14"><a xlink:href="endrun_8c.html#ad963d7efdb9f10f7a2298c8ccd222ab0" target="_top" xlink:title=" ">
<polygon fill="white" stroke="black" points="1100,-414 1100,-433 1150,-433 1150,-414 1100,-414"/>
<text text-anchor="middle" x="1125" y="-421" font-family="Helvetica,sans-Serif" font-size="10.00">endrun</text>
</a>
</g>
</g>
<!-- Node13&#45;&gt;Node14 -->
<g id="edge14" class="edge">
<title>Node13&#45;&gt;Node14</title>
<path fill="none" stroke="midnightblue" d="M358.76,-136.41C365.02,-210.14 414.4,-670.5 671,-670.5 671,-670.5 671,-670.5 829,-670.5 934.53,-670.5 984.66,-706.08 1064,-636.5 1093.48,-610.65 1114.1,-490.59 1121.24,-443"/>
<polygon fill="midnightblue" stroke="midnightblue" points="1124.71,-443.44 1122.7,-433.04 1117.79,-442.43 1124.71,-443.44"/>
</g>
<!-- Node18 -->
<g id="node18" class="node">
<title>Node18</title>
<g id="a_node18"><a xlink:href="system_8c.html#a98a657dc63957ee4d2d237c6411f32f7" target="_top" xlink:title=" ">
<polygon fill="white" stroke="black" points="928,-59.5 928,-89.5 1062,-89.5 1062,-59.5 928,-59.5"/>
<text text-anchor="start" x="936" y="-77.5" font-family="Helvetica,sans-Serif" font-size="10.00">gadget_compact_thread</text>
<text text-anchor="middle" x="995" y="-66.5" font-family="Helvetica,sans-Serif" font-size="10.00">_arrays</text>
</a>
</g>
</g>
<!-- Node13&#45;&gt;Node18 -->
<g id="edge18" class="edge">
<title>Node13&#45;&gt;Node18</title>
<path fill="none" stroke="midnightblue" d="M395.07,-116.96C417.5,-111.48 446.75,-104.84 473,-100.5 656.35,-70.18 704.21,-65.04 890,-69.5 899.02,-69.72 908.49,-70.04 917.87,-70.42"/>
<polygon fill="midnightblue" stroke="midnightblue" points="917.86,-73.92 928,-70.85 918.15,-66.93 917.86,-73.92"/>
</g>
<!-- Node19 -->
<g id="node19" class="node">
<title>Node19</title>
<g id="a_node19"><a xlink:href="system_8c.html#a0082531d4facaa6caabf05fb9fd547d4" target="_top" xlink:title=" ">
<polygon fill="white" stroke="black" points="935.5,-0.5 935.5,-30.5 1054.5,-30.5 1054.5,-0.5 935.5,-0.5"/>
<text text-anchor="start" x="943.5" y="-18.5" font-family="Helvetica,sans-Serif" font-size="10.00">gadget_setup_thread</text>
<text text-anchor="middle" x="995" y="-7.5" font-family="Helvetica,sans-Serif" font-size="10.00">_arrays</text>
</a>
</g>
</g>
<!-- Node13&#45;&gt;Node19 -->
<g id="edge19" class="edge">
<title>Node13&#45;&gt;Node19</title>
<path fill="none" stroke="midnightblue" d="M377.86,-116.98C400.4,-106.6 438.51,-90.29 473,-81.5 631.88,-41.02 824.62,-24.84 925.26,-18.8"/>
<polygon fill="midnightblue" stroke="midnightblue" points="925.52,-22.29 935.3,-18.21 925.11,-15.3 925.52,-22.29"/>
</g>
<!-- Node20 -->
<g id="node20" class="node">
<title>Node20</title>
<g id="a_node20"><a xlink:href="endrun_8c.html#a6567cd867c5549fb6586e19ccd819764" target="_top" xlink:title=" ">
<polygon fill="white" stroke="black" points="964.5,-155 964.5,-174 1025.5,-174 1025.5,-155 964.5,-155"/>
<text text-anchor="middle" x="995" y="-162" font-family="Helvetica,sans-Serif" font-size="10.00">message</text>
</a>
</g>
</g>
<!-- Node13&#45;&gt;Node20 -->
<g id="edge20" class="edge">
<title>Node13&#45;&gt;Node20</title>
<path fill="none" stroke="midnightblue" d="M423.21,-129.42C497.5,-132.84 622.53,-138.89 730,-145.5 809.6,-150.4 902.6,-157.39 954.25,-161.38"/>
<polygon fill="midnightblue" stroke="midnightblue" points="954.08,-164.88 964.32,-162.16 954.62,-157.9 954.08,-164.88"/>
</g>
<!-- Node21 -->
<g id="node21" class="node">
<title>Node21</title>
<g id="a_node21"><a xlink:href="treewalk_8c.html#a39f80ab447e12ec0435538433ecd1463" target="_top" xlink:title=" ">
<polygon fill="white" stroke="black" points="766,-79 766,-98 890,-98 890,-79 766,-79"/>
<text text-anchor="middle" x="828" y="-86" font-family="Helvetica,sans-Serif" font-size="10.00">treewalk_build_queue</text>
</a>
</g>
</g>
<!-- Node13&#45;&gt;Node21 -->
<g id="edge22" class="edge">
<title>Node13&#45;&gt;Node21</title>
<path fill="none" stroke="midnightblue" d="M423.01,-117.97C439.31,-116 456.78,-114.04 473,-112.5 570.76,-103.24 684.03,-96.21 755.59,-92.22"/>
<polygon fill="midnightblue" stroke="midnightblue" points="756.05,-95.7 765.84,-91.65 755.66,-88.71 756.05,-95.7"/>
</g>
<!-- Node22 -->
<g id="node22" class="node">
<title>Node22</title>
<g id="a_node22"><a xlink:href="treewalk_8c.html#a1e336844d7f92d15cd9248c81ecfb453" target="_top" xlink:title=" ">
<polygon fill="white" stroke="black" points="485.5,-338 485.5,-357 565.5,-357 565.5,-338 485.5,-338"/>
<text text-anchor="middle" x="525.5" y="-345" font-family="Helvetica,sans-Serif" font-size="10.00">treewalk_run</text>
</a>
</g>
</g>
<!-- Node13&#45;&gt;Node22 -->
<g id="edge26" class="edge">
<title>Node13&#45;&gt;Node22</title>
<path fill="none" stroke="midnightblue" d="M365.37,-136.28C391.16,-170.51 477.6,-285.24 511.09,-329.69"/>
<polygon fill="midnightblue" stroke="midnightblue" points="508.4,-331.95 517.22,-337.83 513.99,-327.74 508.4,-331.95"/>
</g>
<!-- Node15 -->
<g id="node15" class="node">
<title>Node15</title>
<g id="a_node15"><a xlink:href="system_8c.html#a341c8d27bd6c7dde856566810b412b1f" target="_top" xlink:title=" ">
<polygon fill="white" stroke="black" points="1194,-326 1194,-345 1273,-345 1273,-326 1194,-326"/>
<text text-anchor="middle" x="1233.5" y="-333" font-family="Helvetica,sans-Serif" font-size="10.00">MPIU_Tracev</text>
</a>
</g>
</g>
<!-- Node14&#45;&gt;Node15 -->
<g id="edge15" class="edge">
<title>Node14&#45;&gt;Node15</title>
<path fill="none" stroke="midnightblue" d="M1137.8,-413.75C1155.97,-398.73 1190.99,-369.8 1212.97,-351.64"/>
<polygon fill="midnightblue" stroke="midnightblue" points="1215.49,-354.1 1220.97,-345.03 1211.03,-348.7 1215.49,-354.1"/>
</g>
<!-- Node17 -->
<g id="node17" class="node">
<title>Node17</title>
<g id="a_node17"><a xlink:href="endrun_8c.html#a1200f02a595ab7cbe17c9e36ff32af0f" target="_top" xlink:title=" ">
<polygon fill="white" stroke="black" points="1186,-414 1186,-433 1281,-433 1281,-414 1186,-414"/>
<text text-anchor="middle" x="1233.5" y="-421" font-family="Helvetica,sans-Serif" font-size="10.00">show_backtrace</text>
</a>
</g>
</g>
<!-- Node14&#45;&gt;Node17 -->
<g id="edge17" class="edge">
<title>Node14&#45;&gt;Node17</title>
<path fill="none" stroke="midnightblue" d="M1150.17,-423.5C1157.84,-423.5 1166.67,-423.5 1175.63,-423.5"/>
<polygon fill="midnightblue" stroke="midnightblue" points="1175.76,-427 1185.76,-423.5 1175.76,-420 1175.76,-427"/>
</g>
<!-- Node16 -->
<g id="node16" class="node">
<title>Node16</title>
<g id="a_node16"><a xlink:href="system_8c.html#a87108946670b4c3afbe846c6726675ff" target="_top" xlink:title=" ">
<polygon fill="white" stroke="black" points="1317,-326 1317,-345 1367,-345 1367,-326 1317,-326"/>
<text text-anchor="middle" x="1342" y="-333" font-family="Helvetica,sans-Serif" font-size="10.00">putline</text>
</a>
</g>
</g>
<!-- Node15&#45;&gt;Node16 -->
<g id="edge16" class="edge">
<title>Node15&#45;&gt;Node16</title>
<path fill="none" stroke="midnightblue" d="M1273.25,-335.5C1284.22,-335.5 1296.09,-335.5 1306.77,-335.5"/>
<polygon fill="midnightblue" stroke="midnightblue" points="1306.99,-339 1316.99,-335.5 1306.99,-332 1306.99,-339"/>
</g>
<!-- Node20&#45;&gt;Node15 -->
<g id="edge21" class="edge">
<title>Node20&#45;&gt;Node15</title>
<path fill="none" stroke="midnightblue" d="M1025.52,-172.24C1037.88,-176.15 1052.11,-181.56 1064,-188.5 1127.44,-225.53 1189.15,-288.12 1217.03,-318.26"/>
<polygon fill="midnightblue" stroke="midnightblue" points="1214.64,-320.84 1223.97,-325.86 1219.81,-316.11 1214.64,-320.84"/>
</g>
<!-- Node21&#45;&gt;Node14 -->
<g id="edge23" class="edge">
<title>Node21&#45;&gt;Node14</title>
<path fill="none" stroke="midnightblue" d="M890.05,-95.9C951.37,-104.59 1040.12,-121 1064,-145.5 1100.2,-182.63 1117.39,-345.96 1122.39,-403.42"/>
<polygon fill="midnightblue" stroke="midnightblue" points="1118.93,-404.04 1123.26,-413.71 1125.91,-403.45 1118.93,-404.04"/>
</g>
<!-- Node21&#45;&gt;Node18 -->
<g id="edge24" class="edge">
<title>Node21&#45;&gt;Node18</title>
<path fill="none" stroke="midnightblue" d="M890.44,-83.29C899.29,-82.54 908.49,-81.76 917.6,-80.98"/>
<polygon fill="midnightblue" stroke="midnightblue" points="918.14,-84.45 927.81,-80.12 917.55,-77.47 918.14,-84.45"/>
</g>
<!-- Node21&#45;&gt;Node19 -->
<g id="edge25" class="edge">
<title>Node21&#45;&gt;Node19</title>
<path fill="none" stroke="midnightblue" d="M850.57,-78.96C875.85,-67.77 918.39,-48.95 950.59,-34.71"/>
<polygon fill="midnightblue" stroke="midnightblue" points="952.06,-37.88 959.79,-30.63 949.23,-31.48 952.06,-37.88"/>
</g>
<!-- Node22&#45;&gt;Node14 -->
<g id="edge27" class="edge">
<title>Node22&#45;&gt;Node14</title>
<path fill="none" stroke="midnightblue" d="M528.06,-357.04C533.63,-387.98 555.4,-486.46 614,-537.5 721.62,-631.24 783.89,-600.29 926,-613.5 987.07,-619.18 1014.53,-649.76 1064,-613.5 1118.71,-573.4 1124.81,-483.24 1124.67,-443.25"/>
<polygon fill="midnightblue" stroke="midnightblue" points="1128.17,-443.11 1124.49,-433.18 1121.17,-443.24 1128.17,-443.11"/>
</g>
<!-- Node23 -->
<g id="node23" class="node">
<title>Node23</title>
<g id="a_node23"><a xlink:href="treewalk_8c.html#a0b5feaa7a56276366d62ca281d2d3060" target="_top" xlink:title=" ">
<polygon fill="white" stroke="black" points="641.5,-193 641.5,-212 702.5,-212 702.5,-193 641.5,-193"/>
<text text-anchor="middle" x="672" y="-200" font-family="Helvetica,sans-Serif" font-size="10.00">ev_begin</text>
</a>
</g>
</g>
<!-- Node22&#45;&gt;Node23 -->
<g id="edge28" class="edge">
<title>Node22&#45;&gt;Node23</title>
<path fill="none" stroke="midnightblue" d="M531.97,-337.86C544.32,-316.75 576.26,-265.76 614,-233.5 621.55,-227.05 630.65,-221.37 639.35,-216.69"/>
<polygon fill="midnightblue" stroke="midnightblue" points="641.21,-219.67 648.53,-212.02 638.03,-213.43 641.21,-219.67"/>
</g>
<!-- Node24 -->
<g id="node24" class="node">
<title>Node24</title>
<g id="a_node24"><a xlink:href="treewalk_8c.html#a183c4217393b49949352febbde1cc1f2" target="_top" xlink:title=" ">
<polygon fill="white" stroke="black" points="642,-395 642,-414 702,-414 702,-395 642,-395"/>
<text text-anchor="middle" x="672" y="-402" font-family="Helvetica,sans-Serif" font-size="10.00">ev_finish</text>
</a>
</g>
</g>
<!-- Node22&#45;&gt;Node24 -->
<g id="edge32" class="edge">
<title>Node22&#45;&gt;Node24</title>
<path fill="none" stroke="midnightblue" d="M547.15,-357.08C564.75,-365.1 590.8,-376.62 614,-385.5 619.88,-387.75 626.16,-390 632.32,-392.12"/>
<polygon fill="midnightblue" stroke="midnightblue" points="631.23,-395.45 641.83,-395.32 633.47,-388.81 631.23,-395.45"/>
</g>
<!-- Node25 -->
<g id="node25" class="node">
<title>Node25</title>
<g id="a_node25"><a xlink:href="treewalk_8c.html#a811a0915f7609b68f8cbbb2a8651d2d1" target="_top" xlink:title=" ">
<polygon fill="white" stroke="black" points="627,-357 627,-376 717,-376 717,-357 627,-357"/>
<text text-anchor="middle" x="672" y="-364" font-family="Helvetica,sans-Serif" font-size="10.00">ev_get_remote</text>
</a>
</g>
</g>
<!-- Node22&#45;&gt;Node25 -->
<g id="edge33" class="edge">
<title>Node22&#45;&gt;Node25</title>
<path fill="none" stroke="midnightblue" d="M565.6,-352.64C581.25,-354.7 599.54,-357.1 616.45,-359.33"/>
<polygon fill="midnightblue" stroke="midnightblue" points="616.39,-362.85 626.76,-360.68 617.3,-355.91 616.39,-362.85"/>
</g>
<!-- Node26 -->
<g id="node26" class="node">
<title>Node26</title>
<g id="a_node26"><a xlink:href="treewalk_8c.html#aecf470724936367dfc728a10b83152bf" target="_top" xlink:title=" ">
<polygon fill="white" stroke="black" points="640,-319 640,-338 704,-338 704,-319 640,-319"/>
<text text-anchor="middle" x="672" y="-326" font-family="Helvetica,sans-Serif" font-size="10.00">ev_ndone</text>
</a>
</g>
</g>
<!-- Node22&#45;&gt;Node26 -->
<g id="edge34" class="edge">
<title>Node22&#45;&gt;Node26</title>
<path fill="none" stroke="midnightblue" d="M565.6,-342.36C585.39,-339.76 609.41,-336.6 629.52,-333.95"/>
<polygon fill="midnightblue" stroke="midnightblue" points="630.18,-337.4 639.64,-332.62 629.27,-330.46 630.18,-337.4"/>
</g>
<!-- Node27 -->
<g id="node27" class="node">
<title>Node27</title>
<g id="a_node27"><a xlink:href="system_8c.html#ad24c35a2016ce428248988795c1d3174" target="_top" xlink:title=" ">
<polygon fill="white" stroke="black" points="802.5,-357 802.5,-376 853.5,-376 853.5,-357 802.5,-357"/>
<text text-anchor="middle" x="828" y="-364" font-family="Helvetica,sans-Serif" font-size="10.00">second</text>
</a>
</g>
</g>
<!-- Node22&#45;&gt;Node27 -->
<g id="edge66" class="edge">
<title>Node22&#45;&gt;Node27</title>
<path fill="none" stroke="midnightblue" d="M542.92,-337.93C560.02,-328.56 587.89,-314.92 614,-309.5 664.48,-299.01 681.95,-290.81 730,-309.5 750.23,-317.37 747.59,-331 766,-342.5 774.22,-347.64 783.73,-352.01 792.75,-355.56"/>
<polygon fill="midnightblue" stroke="midnightblue" points="791.68,-358.9 802.27,-359.09 794.11,-352.34 791.68,-358.9"/>
</g>
<!-- Node28 -->
<g id="node28" class="node">
<title>Node28</title>
<g id="a_node28"><a xlink:href="system_8c.html#a890645bdc4536bd797ca53028072e30d" target="_top" xlink:title=" ">
<polygon fill="white" stroke="black" points="800.5,-395 800.5,-414 855.5,-414 855.5,-395 800.5,-395"/>
<text text-anchor="middle" x="828" y="-402" font-family="Helvetica,sans-Serif" font-size="10.00">timediff</text>
</a>
</g>
</g>
<!-- Node22&#45;&gt;Node28 -->
<g id="edge67" class="edge">
<title>Node22&#45;&gt;Node28</title>
<path fill="none" stroke="midnightblue" d="M533.6,-357.11C547.01,-374.36 578,-410.05 614,-423.5 662.29,-441.55 678.69,-428.48 730,-423.5 750.23,-421.54 772.5,-417.33 790.59,-413.36"/>
<polygon fill="midnightblue" stroke="midnightblue" points="791.46,-416.76 800.44,-411.14 789.92,-409.93 791.46,-416.76"/>
</g>
<!-- Node29 -->
<g id="node29" class="node">
<title>Node29</title>
<g id="a_node29"><a xlink:href="treewalk_8c.html#a21252682de7e3a6bc5567a2353a59e72" target="_top" xlink:title=" ">
<polygon fill="white" stroke="black" points="636,-471 636,-490 708,-490 708,-471 636,-471"/>
<text text-anchor="middle" x="672" y="-478" font-family="Helvetica,sans-Serif" font-size="10.00">ev_primary</text>
</a>
</g>
</g>
<!-- Node22&#45;&gt;Node29 -->
<g id="edge37" class="edge">
<title>Node22&#45;&gt;Node29</title>
<path fill="none" stroke="midnightblue" d="M532.03,-357.29C544.28,-378.18 575.65,-427.56 614,-456.5 619.17,-460.4 625.08,-463.8 631.08,-466.72"/>
<polygon fill="midnightblue" stroke="midnightblue" points="629.94,-470.04 640.5,-470.9 632.78,-463.64 629.94,-470.04"/>
</g>
<!-- Node38 -->
<g id="node38" class="node">
<title>Node38</title>
<g id="a_node38"><a xlink:href="treewalk_8c.html#a188435b665f3ff35fdbe7beeff218f18" target="_top" xlink:title=" ">
<polygon fill="white" stroke="black" points="622,-243 622,-262 722,-262 722,-243 622,-243"/>
<text text-anchor="middle" x="672" y="-250" font-family="Helvetica,sans-Serif" font-size="10.00">ev_reduce_result</text>
</a>
</g>
</g>
<!-- Node22&#45;&gt;Node38 -->
<g id="edge51" class="edge">
<title>Node22&#45;&gt;Node38</title>
<path fill="none" stroke="midnightblue" d="M536.3,-337.96C551.78,-323.28 583.3,-294.91 614,-276.5 620.39,-272.67 627.51,-269.15 634.49,-266.05"/>
<polygon fill="midnightblue" stroke="midnightblue" points="635.99,-269.22 643.85,-262.11 633.27,-262.77 635.99,-269.22"/>
</g>
<!-- Node42 -->
<g id="node42" class="node">
<title>Node42</title>
<g id="a_node42"><a xlink:href="treewalk_8c.html#a6c043b95263071bc974da1c1cefc0a57" target="_top" xlink:title=" ">
<polygon fill="white" stroke="black" points="630,-509 630,-528 714,-528 714,-509 630,-509"/>
<text text-anchor="middle" x="672" y="-516" font-family="Helvetica,sans-Serif" font-size="10.00">ev_secondary</text>
</a>
</g>
</g>
<!-- Node22&#45;&gt;Node42 -->
<g id="edge58" class="edge">
<title>Node22&#45;&gt;Node42</title>
<path fill="none" stroke="midnightblue" d="M529.4,-357.3C537.85,-384.13 564.96,-459.43 614,-499.5 616.23,-501.33 618.65,-502.98 621.18,-504.47"/>
<polygon fill="midnightblue" stroke="midnightblue" points="619.65,-507.62 630.15,-508.98 622.79,-501.36 619.65,-507.62"/>
</g>
<!-- Node43 -->
<g id="node43" class="node">
<title>Node43</title>
<g id="a_node43"><a xlink:href="forcetree_8c.html#a6676b2eba19512b1671a4c21fcb6e71d" target="_top" xlink:title=" ">
<polygon fill="white" stroke="black" points="614,-155 614,-174 730,-174 730,-155 614,-155"/>
<text text-anchor="middle" x="672" y="-162" font-family="Helvetica,sans-Serif" font-size="10.00">force_tree_allocated</text>
</a>
</g>
</g>
<!-- Node22&#45;&gt;Node43 -->
<g id="edge65" class="edge">
<title>Node22&#45;&gt;Node43</title>
<path fill="none" stroke="midnightblue" d="M528.94,-337.75C536.51,-309.57 562.22,-227.22 614,-183.5 616.02,-181.79 618.2,-180.24 620.49,-178.82"/>
<polygon fill="midnightblue" stroke="midnightblue" points="622.49,-181.73 629.75,-174.01 619.26,-175.52 622.49,-181.73"/>
</g>
<!-- Node23&#45;&gt;Node14 -->
<g id="edge29" class="edge">
<title>Node23&#45;&gt;Node14</title>
<path fill="none" stroke="midnightblue" d="M702.63,-199.7C783.95,-192.67 1008.26,-177.76 1064,-221.5 1093.18,-244.4 1113.78,-357.76 1121.08,-403.91"/>
<polygon fill="midnightblue" stroke="midnightblue" points="1117.63,-404.51 1122.62,-413.86 1124.55,-403.45 1117.63,-404.51"/>
</g>
<!-- Node23&#45;&gt;Node20 -->
<g id="edge30" class="edge">
<title>Node23&#45;&gt;Node20</title>
<path fill="none" stroke="midnightblue" d="M702.69,-197.69C720.93,-194.81 744.78,-191.21 766,-188.5 831.93,-180.07 908.86,-172.43 954.39,-168.13"/>
<polygon fill="midnightblue" stroke="midnightblue" points="954.81,-171.61 964.44,-167.19 954.15,-164.64 954.81,-171.61"/>
</g>
<!-- Node23&#45;&gt;Node21 -->
<g id="edge31" class="edge">
<title>Node23&#45;&gt;Node21</title>
<path fill="none" stroke="midnightblue" d="M702.54,-195.44C711.72,-192.53 721.63,-188.61 730,-183.5 739.25,-177.85 785.3,-131.26 810.48,-105.49"/>
<polygon fill="midnightblue" stroke="midnightblue" points="813.09,-107.83 817.56,-98.23 808.07,-102.94 813.09,-107.83"/>
</g>
<!-- Node26&#45;&gt;Node27 -->
<g id="edge35" class="edge">
<title>Node26&#45;&gt;Node27</title>
<path fill="none" stroke="midnightblue" d="M704.16,-336.19C729.77,-342.51 766,-351.45 792.48,-357.98"/>
<polygon fill="midnightblue" stroke="midnightblue" points="791.92,-361.45 802.47,-360.45 793.59,-354.65 791.92,-361.45"/>
</g>
<!-- Node26&#45;&gt;Node28 -->
<g id="edge36" class="edge">
<title>Node26&#45;&gt;Node28</title>
<path fill="none" stroke="midnightblue" d="M704.13,-335.84C712.89,-338.7 722.17,-342.51 730,-347.5 749.62,-360 746.25,-373.2 766,-385.5 773.44,-390.14 782.11,-393.72 790.53,-396.46"/>
<polygon fill="midnightblue" stroke="midnightblue" points="789.63,-399.85 800.21,-399.31 791.6,-393.13 789.63,-399.85"/>
</g>
<!-- Node29&#45;&gt;Node27 -->
<g id="edge49" class="edge">
<title>Node29&#45;&gt;Node27</title>
<path fill="none" stroke="midnightblue" d="M682.76,-470.9C694.18,-459.63 713.6,-440.35 730,-423.5 746.23,-406.83 746.25,-397.8 766,-385.5 774,-380.51 783.42,-376.74 792.42,-373.93"/>
<polygon fill="midnightblue" stroke="midnightblue" points="793.64,-377.23 802.32,-371.15 791.75,-370.49 793.64,-377.23"/>
</g>
<!-- Node29&#45;&gt;Node28 -->
<g id="edge50" class="edge">
<title>Node29&#45;&gt;Node28</title>
<path fill="none" stroke="midnightblue" d="M700.92,-470.97C710.5,-467.13 721.05,-462.24 730,-456.5 748.27,-444.78 747.18,-434.32 766,-423.5 773.6,-419.13 782.33,-415.64 790.76,-412.92"/>
<polygon fill="midnightblue" stroke="midnightblue" points="791.83,-416.25 800.43,-410.05 789.85,-409.54 791.83,-416.25"/>
</g>
<!-- Node30 -->
<g id="node30" class="node">
<title>Node30</title>
<g id="a_node30"><a xlink:href="treewalk_8c.html#aff93c24242038a9c53a192886ab6fff4" target="_top" xlink:title=" ">
<polygon fill="white" stroke="black" points="767,-509 767,-528 889,-528 889,-509 767,-509"/>
<text text-anchor="middle" x="828" y="-516" font-family="Helvetica,sans-Serif" font-size="10.00">ev_alloc_threadlocals</text>
</a>
</g>
</g>
<!-- Node29&#45;&gt;Node30 -->
<g id="edge38" class="edge">
<title>Node29&#45;&gt;Node30</title>
<path fill="none" stroke="midnightblue" d="M708.33,-489.22C729.14,-494.35 755.76,-500.92 778.51,-506.53"/>
<polygon fill="midnightblue" stroke="midnightblue" points="777.78,-509.96 788.32,-508.96 779.45,-503.16 777.78,-509.96"/>
</g>
<!-- Node31 -->
<g id="node31" class="node">
<title>Node31</title>
<g id="a_node31"><a xlink:href="treewalk_8c.html#a0db9e65f7d67e08e19fe008c214f0339" target="_top" xlink:title=" ">
<polygon fill="white" stroke="black" points="768.5,-471 768.5,-490 887.5,-490 887.5,-471 768.5,-471"/>
<text text-anchor="middle" x="828" y="-478" font-family="Helvetica,sans-Serif" font-size="10.00">ev_free_threadlocals</text>
</a>
</g>
</g>
<!-- Node29&#45;&gt;Node31 -->
<g id="edge39" class="edge">
<title>Node29&#45;&gt;Node31</title>
<path fill="none" stroke="midnightblue" d="M708.33,-480.5C723.18,-480.5 740.98,-480.5 758.23,-480.5"/>
<polygon fill="midnightblue" stroke="midnightblue" points="758.29,-484 768.29,-480.5 758.29,-477 758.29,-484"/>
</g>
<!-- Node32 -->
<g id="node32" class="node">
<title>Node32</title>
<g id="a_node32"><a xlink:href="treewalk_8c.html#a78ce813a0e69520884e026c6b7965217" target="_top" xlink:title=" ">
<polygon fill="white" stroke="black" points="801.5,-433 801.5,-452 854.5,-452 854.5,-433 801.5,-433"/>
<text text-anchor="middle" x="828" y="-440" font-family="Helvetica,sans-Serif" font-size="10.00">real_ev</text>
</a>
</g>
</g>
<!-- Node29&#45;&gt;Node32 -->
<g id="edge40" class="edge">
<title>Node29&#45;&gt;Node32</title>
<path fill="none" stroke="midnightblue" d="M708.33,-471.78C733.31,-465.62 766.65,-457.39 791.63,-451.23"/>
<polygon fill="midnightblue" stroke="midnightblue" points="792.57,-454.6 801.44,-448.81 790.89,-447.8 792.57,-454.6"/>
</g>
<!-- Node32&#45;&gt;Node14 -->
<g id="edge42" class="edge">
<title>Node32&#45;&gt;Node14</title>
<path fill="none" stroke="midnightblue" d="M854.66,-440.85C907.82,-437.42 1030,-429.55 1089.78,-425.7"/>
<polygon fill="midnightblue" stroke="midnightblue" points="1090.09,-429.19 1099.85,-425.06 1089.64,-422.21 1090.09,-429.19"/>
</g>
<!-- Node32&#45;&gt;Node20 -->
<g id="edge44" class="edge">
<title>Node32&#45;&gt;Node20</title>
<path fill="none" stroke="midnightblue" d="M854.59,-440.62C867.01,-438.36 881.12,-433.57 890,-423.5 950.31,-355.1 880.31,-300.42 926,-221.5 936.03,-204.17 953.42,-189.74 968.09,-179.73"/>
<polygon fill="midnightblue" stroke="midnightblue" points="970.31,-182.47 976.79,-174.09 966.5,-176.6 970.31,-182.47"/>
</g>
<!-- Node33 -->
<g id="node33" class="node">
<title>Node33</title>
<g id="a_node33"><a xlink:href="system_8h.html#a00eeba7aebd7952f4c0ecebb60fbeca2" target="_top" xlink:title=" ">
<polygon fill="white" stroke="black" points="931.5,-452 931.5,-471 1058.5,-471 1058.5,-452 931.5,-452"/>
<text text-anchor="middle" x="995" y="-459" font-family="Helvetica,sans-Serif" font-size="10.00">atomic_fetch_and_add</text>
</a>
</g>
</g>
<!-- Node32&#45;&gt;Node33 -->
<g id="edge41" class="edge">
<title>Node32&#45;&gt;Node33</title>
<path fill="none" stroke="midnightblue" d="M854.78,-445.47C872.7,-447.53 897.55,-450.39 921.3,-453.13"/>
<polygon fill="midnightblue" stroke="midnightblue" points="921.05,-456.62 931.39,-454.29 921.85,-449.67 921.05,-456.62"/>
</g>
<!-- Node34 -->
<g id="node34" class="node">
<title>Node34</title>
<g id="a_node34"><a xlink:href="treewalk_8c.html#a4238c59700ad7d440eb4d7890de08f2c" target="_top" xlink:title=" ">
<polygon fill="white" stroke="black" points="952,-538 952,-557 1038,-557 1038,-538 952,-538"/>
<text text-anchor="middle" x="995" y="-545" font-family="Helvetica,sans-Serif" font-size="10.00">ev_init_thread</text>
</a>
</g>
</g>
<!-- Node32&#45;&gt;Node34 -->
<g id="edge43" class="edge">
<title>Node32&#45;&gt;Node34</title>
<path fill="none" stroke="midnightblue" d="M854.62,-446.3C866.31,-449.03 879.79,-453.66 890,-461.5 913.77,-479.75 903.19,-499.08 926,-518.5 933.47,-524.86 942.54,-530.01 951.59,-534.1"/>
<polygon fill="midnightblue" stroke="midnightblue" points="950.37,-537.38 960.95,-537.99 953.06,-530.92 950.37,-537.38"/>
</g>
<!-- Node35 -->
<g id="node35" class="node">
<title>Node35</title>
<g id="a_node35"><a xlink:href="treewalk_8c.html#af8619681f7d063183bea07a7d80ac98e" target="_top" xlink:title=" ">
<polygon fill="white" stroke="black" points="938.5,-490 938.5,-509 1051.5,-509 1051.5,-490 938.5,-490"/>
<text text-anchor="middle" x="995" y="-497" font-family="Helvetica,sans-Serif" font-size="10.00">treewalk_init_query</text>
</a>
</g>
</g>
<!-- Node32&#45;&gt;Node35 -->
<g id="edge45" class="edge">
<title>Node32&#45;&gt;Node35</title>
<path fill="none" stroke="midnightblue" d="M854.6,-449.33C865.65,-452.58 878.63,-456.78 890,-461.5 906.71,-468.44 909.19,-473.81 926,-480.5 931.9,-482.85 938.21,-485.03 944.5,-487.01"/>
<polygon fill="midnightblue" stroke="midnightblue" points="943.75,-490.44 954.33,-489.95 945.76,-483.73 943.75,-490.44"/>
</g>
<!-- Node36 -->
<g id="node36" class="node">
<title>Node36</title>
<g id="a_node36"><a xlink:href="treewalk_8c.html#af7a85c8514602df4d3dd61f4ef3e0d48" target="_top" xlink:title=" ">
<polygon fill="white" stroke="black" points="938.5,-585 938.5,-604 1051.5,-604 1051.5,-585 938.5,-585"/>
<text text-anchor="middle" x="995" y="-592" font-family="Helvetica,sans-Serif" font-size="10.00">treewalk_init_result</text>
</a>
</g>
</g>
<!-- Node32&#45;&gt;Node36 -->
<g id="edge46" class="edge">
<title>Node32&#45;&gt;Node36</title>
<path fill="none" stroke="midnightblue" d="M854.58,-445.1C866.69,-447.55 880.54,-452.3 890,-461.5 925.37,-495.89 892.18,-530.58 926,-566.5 931.48,-572.32 938.34,-576.96 945.58,-580.66"/>
<polygon fill="midnightblue" stroke="midnightblue" points="944.33,-583.94 954.89,-584.86 947.21,-577.56 944.33,-583.94"/>
</g>
<!-- Node37 -->
<g id="node37" class="node">
<title>Node37</title>
<g id="a_node37"><a xlink:href="treewalk_8c.html#ac3d61be6b2bd96daed4c4a17521a0fda" target="_top" xlink:title=" ">
<polygon fill="white" stroke="black" points="929.5,-376 929.5,-395 1060.5,-395 1060.5,-376 929.5,-376"/>
<text text-anchor="middle" x="995" y="-383" font-family="Helvetica,sans-Serif" font-size="10.00">treewalk_reduce_result</text>
</a>
</g>
</g>
<!-- Node32&#45;&gt;Node37 -->
<g id="edge47" class="edge">
<title>Node32&#45;&gt;Node37</title>
<path fill="none" stroke="midnightblue" d="M854.65,-434.94C865.6,-431.6 878.48,-427.53 890,-423.5 906.2,-417.83 909.9,-415.47 926,-409.5 935.86,-405.84 946.57,-402 956.51,-398.49"/>
<polygon fill="midnightblue" stroke="midnightblue" points="957.86,-401.73 966.14,-395.11 955.54,-395.12 957.86,-401.73"/>
</g>
<!-- Node37&#45;&gt;Node14 -->
<g id="edge48" class="edge">
<title>Node37&#45;&gt;Node14</title>
<path fill="none" stroke="midnightblue" d="M1028.3,-395.09C1047.13,-400.68 1070.87,-407.73 1089.99,-413.4"/>
<polygon fill="midnightblue" stroke="midnightblue" points="1089.21,-416.82 1099.79,-416.31 1091.2,-410.11 1089.21,-416.82"/>
</g>
<!-- Node38&#45;&gt;Node27 -->
<g id="edge55" class="edge">
<title>Node38&#45;&gt;Node27</title>
<path fill="none" stroke="midnightblue" d="M705.96,-262C714.47,-265.57 723.15,-270.31 730,-276.5 754.79,-298.91 740.95,-320.39 766,-342.5 773.6,-349.21 783.29,-354.15 792.71,-357.75"/>
<polygon fill="midnightblue" stroke="midnightblue" points="791.72,-361.11 802.31,-361.03 793.98,-354.49 791.72,-361.11"/>
</g>
<!-- Node38&#45;&gt;Node28 -->
<g id="edge56" class="edge">
<title>Node38&#45;&gt;Node28</title>
<path fill="none" stroke="midnightblue" d="M684.67,-262.02C697.1,-272.62 716.78,-290.74 730,-309.5 751.53,-340.05 737.78,-360.99 766,-385.5 772.94,-391.52 781.77,-395.64 790.55,-398.45"/>
<polygon fill="midnightblue" stroke="midnightblue" points="789.76,-401.86 800.33,-401.1 791.59,-395.11 789.76,-401.86"/>
</g>
<!-- Node38&#45;&gt;Node37 -->
<g id="edge57" class="edge">
<title>Node38&#45;&gt;Node37</title>
<path fill="none" stroke="midnightblue" d="M686.61,-262.12C704.25,-274.24 736.27,-295.1 766,-308.5 818.67,-332.23 835.3,-328.91 890,-347.5 913.31,-355.42 939.32,-364.92 959.5,-372.44"/>
<polygon fill="midnightblue" stroke="midnightblue" points="958.3,-375.74 968.9,-375.96 960.76,-369.18 958.3,-375.74"/>
</g>
<!-- Node39 -->
<g id="node39" class="node">
<title>Node39</title>
<g id="a_node39"><a xlink:href="treewalk_8c.html#ae4323d8e8e5005a65e1e9bfafc706858" target="_top" xlink:title=" ">
<polygon fill="white" stroke="black" points="768.5,-269.5 768.5,-299.5 887.5,-299.5 887.5,-269.5 768.5,-269.5"/>
<text text-anchor="start" x="776.5" y="-287.5" font-family="Helvetica,sans-Serif" font-size="10.00">data_index_compare</text>
<text text-anchor="middle" x="828" y="-276.5" font-family="Helvetica,sans-Serif" font-size="10.00">_by_index</text>
</a>
</g>
</g>
<!-- Node38&#45;&gt;Node39 -->
<g id="edge52" class="edge">
<title>Node38&#45;&gt;Node39</title>
<path fill="none" stroke="midnightblue" d="M718.79,-262.01C731.15,-264.58 744.81,-267.42 758.14,-270.19"/>
<polygon fill="midnightblue" stroke="midnightblue" points="757.73,-273.68 768.24,-272.29 759.16,-266.83 757.73,-273.68"/>
</g>
<!-- Node40 -->
<g id="node40" class="node">
<title>Node40</title>
<g id="a_node40"><a xlink:href="treewalk_8c.html#a5f2dd9f61ec056711e8ecc4a8e2303b5" target="_top" xlink:title=" ">
<polygon fill="white" stroke="black" points="777.5,-231 777.5,-250 878.5,-250 878.5,-231 777.5,-231"/>
<text text-anchor="middle" x="828" y="-238" font-family="Helvetica,sans-Serif" font-size="10.00">ev_communicate</text>
</a>
</g>
</g>
<!-- Node38&#45;&gt;Node40 -->
<g id="edge53" class="edge">
<title>Node38&#45;&gt;Node40</title>
<path fill="none" stroke="midnightblue" d="M722.15,-248.67C736.45,-247.56 752.24,-246.33 767.13,-245.17"/>
<polygon fill="midnightblue" stroke="midnightblue" points="767.56,-248.64 777.26,-244.38 767.02,-241.66 767.56,-248.64"/>
</g>
<!-- Node41 -->
<g id="node41" class="node">
<title>Node41</title>
<g id="a_node41"><a xlink:href="system_8c.html#a0233ee60e9c4f0a8dbe43e1c662231c6" target="_top" xlink:title=" ">
<polygon fill="white" stroke="black" points="936,-231 936,-250 1054,-250 1054,-231 936,-231"/>
<text text-anchor="middle" x="995" y="-238" font-family="Helvetica,sans-Serif" font-size="10.00">MPI_Alltoallv_sparse</text>
</a>
</g>
</g>
<!-- Node40&#45;&gt;Node41 -->
<g id="edge54" class="edge">
<title>Node40&#45;&gt;Node41</title>
<path fill="none" stroke="midnightblue" d="M878.51,-240.5C893.3,-240.5 909.79,-240.5 925.57,-240.5"/>
<polygon fill="midnightblue" stroke="midnightblue" points="925.82,-244 935.82,-240.5 925.82,-237 925.82,-244"/>
</g>
<!-- Node42&#45;&gt;Node27 -->
<g id="edge62" class="edge">
<title>Node42&#45;&gt;Node27</title>
<path fill="none" stroke="midnightblue" d="M714.06,-510.12C719.96,-507.49 725.54,-504.03 730,-499.5 767.27,-461.63 728.36,-423 766,-385.5 773.12,-378.41 782.83,-373.96 792.41,-371.17"/>
<polygon fill="midnightblue" stroke="midnightblue" points="793.33,-374.55 802.24,-368.82 791.7,-367.74 793.33,-374.55"/>
</g>
<!-- Node42&#45;&gt;Node28 -->
<g id="edge63" class="edge">
<title>Node42&#45;&gt;Node28</title>
<path fill="none" stroke="midnightblue" d="M714.13,-509.31C719.88,-506.79 725.39,-503.58 730,-499.5 757.97,-474.71 737.78,-448.01 766,-423.5 772.94,-417.48 781.77,-413.36 790.55,-410.55"/>
<polygon fill="midnightblue" stroke="midnightblue" points="791.59,-413.89 800.33,-407.9 789.76,-407.14 791.59,-413.89"/>
</g>
<!-- Node42&#45;&gt;Node30 -->
<g id="edge59" class="edge">
<title>Node42&#45;&gt;Node30</title>
<path fill="none" stroke="midnightblue" d="M714.27,-518.5C727.25,-518.5 741.96,-518.5 756.38,-518.5"/>
<polygon fill="midnightblue" stroke="midnightblue" points="756.79,-522 766.79,-518.5 756.79,-515 756.79,-522"/>
</g>
<!-- Node42&#45;&gt;Node31 -->
<g id="edge60" class="edge">
<title>Node42&#45;&gt;Node31</title>
<path fill="none" stroke="midnightblue" d="M711.86,-508.91C732.09,-503.92 757.02,-497.77 778.5,-492.47"/>
<polygon fill="midnightblue" stroke="midnightblue" points="779.55,-495.81 788.42,-490.02 777.87,-489.02 779.55,-495.81"/>
</g>
<!-- Node42&#45;&gt;Node34 -->
<g id="edge61" class="edge">
<title>Node42&#45;&gt;Node34</title>
<path fill="none" stroke="midnightblue" d="M712.6,-528.02C729.02,-531.6 748.34,-535.32 766,-537.5 825.96,-544.89 895.37,-547.03 941.71,-547.54"/>
<polygon fill="midnightblue" stroke="midnightblue" points="941.78,-551.04 951.81,-547.63 941.84,-544.04 941.78,-551.04"/>
</g>
<!-- Node42&#45;&gt;Node36 -->
<g id="edge64" class="edge">
<title>Node42&#45;&gt;Node36</title>
<path fill="none" stroke="midnightblue" d="M692.86,-528.13C711.39,-536.75 739.99,-549.12 766,-556.5 819.66,-571.73 882.26,-581.62 928.27,-587.48"/>
<polygon fill="midnightblue" stroke="midnightblue" points="928.06,-590.99 938.42,-588.75 928.93,-584.04 928.06,-590.99"/>
</g>
<!-- Node44&#45;&gt;Node14 -->
<g id="edge70" class="edge">
<title>Node44&#45;&gt;Node14</title>
<path fill="none" stroke="midnightblue" d="M887.07,-726.29C948.31,-720.64 1039.28,-708.43 1064,-684.5 1098.93,-650.69 1116.83,-497.95 1122.22,-443.15"/>
<polygon fill="midnightblue" stroke="midnightblue" points="1125.72,-443.3 1123.18,-433.02 1118.75,-442.64 1125.72,-443.3"/>
</g>
<!-- Node45 -->
<g id="node45" class="node">
<title>Node45</title>
<g id="a_node45"><a xlink:href="treewalk_8c.html#a33eec1e25037842b2892687630dd0f67" target="_top" xlink:title=" ">
<polygon fill="white" stroke="black" points="963.5,-775 963.5,-794 1026.5,-794 1026.5,-775 963.5,-775"/>
<text text-anchor="middle" x="995" y="-782" font-family="Helvetica,sans-Serif" font-size="10.00">cull_node</text>
</a>
</g>
</g>
<!-- Node44&#45;&gt;Node45 -->
<g id="edge69" class="edge">
<title>Node44&#45;&gt;Node45</title>
<path fill="none" stroke="midnightblue" d="M868.89,-745.64C886.32,-752.07 907.07,-759.45 926,-765.5 934.92,-768.35 944.57,-771.19 953.72,-773.77"/>
<polygon fill="midnightblue" stroke="midnightblue" points="952.82,-777.16 963.39,-776.46 954.7,-770.41 952.82,-777.16"/>
</g>
<!-- Node46 -->
<g id="node46" class="node">
<title>Node46</title>
<g id="a_node46"><a xlink:href="treewalk_8c.html#ad796f088f1c33bc7994c85e4c93f8585" target="_top" xlink:title=" ">
<polygon fill="white" stroke="black" points="926,-737 926,-756 1064,-756 1064,-737 926,-737"/>
<text text-anchor="middle" x="995" y="-744" font-family="Helvetica,sans-Serif" font-size="10.00">treewalk_export_particle</text>
</a>
</g>
</g>
<!-- Node44&#45;&gt;Node46 -->
<g id="edge71" class="edge">
<title>Node44&#45;&gt;Node46</title>
<path fill="none" stroke="midnightblue" d="M887.17,-736.14C896.47,-737.04 906.22,-737.99 915.89,-738.93"/>
<polygon fill="midnightblue" stroke="midnightblue" points="915.62,-742.42 925.91,-739.9 916.29,-735.45 915.62,-742.42"/>
</g>
<!-- Node46&#45;&gt;Node14 -->
<g id="edge72" class="edge">
<title>Node46&#45;&gt;Node14</title>
<path fill="none" stroke="midnightblue" d="M1043.47,-736.93C1051.22,-733.5 1058.5,-728.83 1064,-722.5 1100.76,-680.15 1117.77,-503.13 1122.54,-443.34"/>
<polygon fill="midnightblue" stroke="midnightblue" points="1126.04,-443.54 1123.31,-433.3 1119.06,-443 1126.04,-443.54"/>
</g>
</g>
</svg>
