<?xml version="1.0" encoding="UTF-8" standalone="no"?>
<!DOCTYPE svg PUBLIC "-//W3C//DTD SVG 1.1//EN"
 "http://www.w3.org/Graphics/SVG/1.1/DTD/svg11.dtd">
<!-- Generated by graphviz version 2.50.0 (0)
 -->
<!-- Title: gaussian_fill Pages: 1 -->
<svg width="326pt" height="104pt"
 viewBox="0.00 0.00 326.00 104.00" xmlns="http://www.w3.org/2000/svg" xmlns:xlink="http://www.w3.org/1999/xlink">
<g id="graph0" class="graph" transform="scale(1 1) rotate(0) translate(4 100)">
<title>gaussian_fill</title>
<polygon fill="white" stroke="transparent" points="-4,4 -4,-100 322,-100 322,4 -4,4"/>
<!-- Node1 -->
<g id="node1" class="node">
<title>Node1</title>
<g id="a_node1"><a xlink:title=" ">
<polygon fill="#bfbfbf" stroke="black" points="0,-38.5 0,-57.5 77,-57.5 77,-38.5 0,-38.5"/>
<text text-anchor="middle" x="38.5" y="-45.5" font-family="Helvetica,sans-Serif" font-size="10.00">gaussian_fill</text>
</a>
</g>
</g>
<!-- Node2 -->
<g id="node2" class="node">
<title>Node2</title>
<g id="a_node2"><a xlink:href="pmesh_8h.html#a258f0aaacc7d38c7c1a86c102afcb118" target="_top" xlink:title=" ">
<polygon fill="white" stroke="black" points="113,-33 113,-63 220,-63 220,-33 113,-33"/>
<text text-anchor="start" x="121" y="-51" font-family="Helvetica,sans-Serif" font-size="10.00">pmic_fill_gaussian</text>
<text text-anchor="middle" x="166.5" y="-40" font-family="Helvetica,sans-Serif" font-size="10.00">_gadget</text>
</a>
</g>
</g>
<!-- Node1&#45;&gt;Node2 -->
<g id="edge1" class="edge">
<title>Node1&#45;&gt;Node2</title>
<path fill="none" stroke="midnightblue" d="M77.3,-48C85.33,-48 94,-48 102.68,-48"/>
<polygon fill="midnightblue" stroke="midnightblue" points="102.81,-51.5 112.81,-48 102.81,-44.5 102.81,-51.5"/>
</g>
<!-- Node3 -->
<g id="node3" class="node">
<title>Node3</title>
<g id="a_node3"><a xlink:href="pmesh_8h.html#ae888ae8d7cd9a259a7eb557b813441b0" target="_top" xlink:title=" ">
<polygon fill="white" stroke="black" points="256,-76.5 256,-95.5 318,-95.5 318,-76.5 256,-76.5"/>
<text text-anchor="middle" x="287" y="-83.5" font-family="Helvetica,sans-Serif" font-size="10.00">GETSEED</text>
</a>
</g>
</g>
<!-- Node2&#45;&gt;Node3 -->
<g id="edge2" class="edge">
<title>Node2&#45;&gt;Node3</title>
<path fill="none" stroke="midnightblue" d="M214.33,-63.02C225.02,-66.45 236.27,-70.05 246.61,-73.37"/>
<polygon fill="midnightblue" stroke="midnightblue" points="245.61,-76.72 256.2,-76.44 247.74,-70.06 245.61,-76.72"/>
</g>
<!-- Node4 -->
<g id="node4" class="node">
<title>Node4</title>
<g id="a_node4"><a xlink:href="pmesh_8h.html#a10d7e0d8b2a1601d7b785b39f906956d" target="_top" xlink:title=" ">
<polygon fill="white" stroke="black" points="259,-38.5 259,-57.5 315,-57.5 315,-38.5 259,-38.5"/>
<text text-anchor="middle" x="287" y="-45.5" font-family="Helvetica,sans-Serif" font-size="10.00">SAMPLE</text>
</a>
</g>
</g>
<!-- Node2&#45;&gt;Node4 -->
<g id="edge3" class="edge">
<title>Node2&#45;&gt;Node4</title>
<path fill="none" stroke="midnightblue" d="M220.17,-48C229.76,-48 239.59,-48 248.63,-48"/>
<polygon fill="midnightblue" stroke="midnightblue" points="248.82,-51.5 258.82,-48 248.82,-44.5 248.82,-51.5"/>
</g>
<!-- Node5 -->
<g id="node5" class="node">
<title>Node5</title>
<g id="a_node5"><a xlink:href="pmesh_8h.html#a02e486534fa84096a98ef181edadeff6" target="_top" xlink:title=" ">
<polygon fill="white" stroke="black" points="257,-0.5 257,-19.5 317,-19.5 317,-0.5 257,-0.5"/>
<text text-anchor="middle" x="287" y="-7.5" font-family="Helvetica,sans-Serif" font-size="10.00">SETSEED</text>
</a>
</g>
</g>
<!-- Node2&#45;&gt;Node5 -->
<g id="edge4" class="edge">
<title>Node2&#45;&gt;Node5</title>
<path fill="none" stroke="midnightblue" d="M214.33,-32.98C225.22,-29.49 236.69,-25.81 247.18,-22.45"/>
<polygon fill="midnightblue" stroke="midnightblue" points="248.44,-25.72 256.89,-19.33 246.3,-19.05 248.44,-25.72"/>
</g>
</g>
</svg>
